# ROS coordinates: X forward, Y left, Z up; units are metres.
o mesh
v -0.013188079 -0.12774 0.00282921316
v -0.0167165957 -0.127610177 0.0030101114
v -0.0169135313 -0.127397642 0.000553640537
v -0.0152012873 -0.127406418 -1.9912608E-05
v -0.0134029165 -0.127508134 0.00014942605
v -0.0172739159 -0.1270087 -0.00194753427
v -0.0137960669 -0.127083838 -0.0025791293
v -0.01567567 -0.126894444 -0.003014273
v -0.0178083349 -0.126431942 -0.0044600945
v -0.0143790748 -0.126454636 -0.005320101
v -0.0163907185 -0.126122743 -0.00600984227
v -0.0181430336 -0.126070738 -0.005708971
v -0.0151590481 -0.12561287 -0.008032269
v -0.0185233168 -0.12566033 -0.00694624428
v -0.0173539184 -0.125083238 -0.008945719
v -0.016137667 -0.12455672 -0.0106709925
v -0.0194203816 -0.124692187 -0.009365081
v -0.0185633134 -0.12377803 -0.011756747
v -0.0173104126 -0.123291068 -0.0131902
v -0.0204954017 -0.123532 -0.0116743511
v -0.0200064722 -0.122220539 -0.0143775428
v -0.0186662655 -0.121827796 -0.0155446781
v -0.0216604341 -0.120435536 -0.0167470537
v -0.0217382647 -0.122190669 -0.0138326185
v -0.0201878343 -0.120185681 -0.0176925734
v -0.0231330376 -0.1206854 -0.01580153
v -0.0218520332 -0.118389636 -0.0195977874
v -0.02465855 -0.119039029 -0.0175479725
v -0.02349279 -0.118458018 -0.0188130364
v -0.0236312468 -0.116469465 -0.02123192
v -0.0262895 -0.117278866 -0.01904593
v -0.0254637189 -0.116330937 -0.0205358379
v -0.0254948214 -0.114458248 -0.0225756951
v -0.027997775 -0.11543525 -0.0202777237
v -0.0275288485 -0.1141022 -0.0218908451
v -0.02741076 -0.112390518 -0.0236195847
v -0.0297540538 -0.11353983 -0.0212346241
v -0.02964241 -0.11182119 -0.0228694
v -0.029347416 -0.110300429 -0.0243636817
v -0.0315293223 -0.111623921 -0.0219167061
v -0.0317603 -0.109535515 -0.02347805
v -0.03127502 -0.108220115 -0.0248168372
v -0.0332962871 -0.109716959 -0.0223321021
v -0.0338426381 -0.107288204 -0.0237365
v -0.033166863 -0.106178388 -0.0249953866
v -0.03585559 -0.105115771 -0.02367464
v -0.03503048 -0.107845381 -0.022495769
v -0.03500017 -0.104199834 -0.0249213614
v -0.0367110148 -0.106031708 -0.0224279165
v -0.0368215442 -0.10223417 -0.0246052742
v -0.0383806042 -0.104229845 -0.02213817
v -0.03785353 -0.102959543 -0.02330836
v -0.03867606 -0.100232728 -0.0240268372
v -0.04008058 -0.102395184 -0.0216079354
v -0.0398887135 -0.100763127 -0.0226104
v -0.04053902 -0.0982221738 -0.0231690556
v -0.04178829 -0.100552179 -0.0208216347
v -0.04141783 -0.09911286 -0.0218553841
v -0.0423824 -0.09623275 -0.02202148
v -0.0434780568 -0.098728545 -0.01976969
v -0.0429302268 -0.09748065 -0.0208955854
v -0.0444074981 -0.09588634 -0.0197298639
v -0.0441758633 -0.0942972 -0.0205816366
v -0.0451220647 -0.0969542861 -0.0184498355
v -0.0458307154 -0.09435037 -0.01836181
v -0.0458880961 -0.0924493149 -0.0188561678
v -0.04669161 -0.0952604 -0.0168681554
v -0.0471811444 -0.09289295 -0.0167999715
v -0.04748836 -0.09072227 -0.0168613
v -0.0481585227 -0.09367727 -0.0150395269
v -0.0484409779 -0.09153331 -0.0150578367
v -0.04894823 -0.08914675 -0.01462262
v -0.04949673 -0.09223304 -0.0129874
v -0.0495940819 -0.09028885 -0.0131534981
v -0.0502431467 -0.08774924 -0.0121740876
v -0.0506837368 -0.0909519941 -0.0107429074
v -0.0506266654 -0.08917446 -0.01110907
v -0.05135382 -0.08655058 -0.0095563205
v -0.05170185 -0.08985321 -0.008343293
v -0.0515278354 -0.0882018954 -0.00894981
v -0.0522899479 -0.0873794 -0.00670313
v -0.05226714 -0.08556489 -0.00681444537
v -0.0525390655 -0.08894967 -0.005829907
v -0.0529088154 -0.0867115 -0.0043974584
v -0.05297664 -0.08479918 -0.003995524
v -0.05318944 -0.088247776 -0.00324589666
v -0.0533836558 -0.0861990452 -0.002061123
v -0.053482376 -0.08425338 -0.00114611816
v -0.05365304 -0.08774745 -0.000633941963
v -0.05371689 -0.08583941 0.0002786629
v -0.0537903756 -0.08392097 0.001689964
v -0.05393537 -0.08744275 0.00196580123
v -0.0539137833 -0.0856269151 0.00259668287
v -0.05391173 -0.0837900043 0.00447343756
v -0.05404661 -0.0873227 0.004517318
v -0.0539819822 -0.08555332 0.004870385
v -0.0538614243 -0.0838443041 0.00717078568
v -0.0540004931 -0.08737247 0.00698988745
v -0.0538035557 -0.087585 0.009446357
v -0.0538614243 -0.0838443041 0.00717078568
v -0.0536820069 -0.08587706 0.0100199115
v -0.0536465868 -0.08407616 0.009850573
v -0.05344317 -0.08797394 0.011947534
v -0.0532534346 -0.0845004544 0.0125791281
v -0.05320763 -0.08638902 0.0130142719
v -0.0529087558 -0.0885507 0.0144600924
v -0.0526704267 -0.0851296559 0.0153201
v -0.0524925776 -0.08716072 0.0160098411
v -0.052193772 -0.08932233 0.016946245
v -0.0518904552 -0.085971415 0.0180322658
v -0.0515293777 -0.08820023 0.0189457163
v -0.0512967035 -0.0902904645 0.01936508
v -0.0509118363 -0.08702757 0.0206709951
v -0.0503199846 -0.08950544 0.0217567459
v -0.05022169 -0.09145065 0.02167435
v -0.0497390851 -0.08829323 0.0231902
v -0.048876822 -0.09106293 0.0243775435
v -0.0489788242 -0.09279198 0.02383262
v -0.04722286 -0.0928479359 0.0267470554
v -0.0483832359 -0.0897565 0.0255446769
v -0.04758405 -0.09429725 0.0258015282
v -0.04686167 -0.09139861 0.027692575
v -0.0460585356 -0.09594362 0.0275479741
v -0.04519747 -0.0931946561 0.029597789
v -0.0453905053 -0.0948254541 0.0288130343
v -0.04442759 -0.0977037847 0.0290459283
v -0.04341826 -0.09511483 0.0312319212
v -0.0434195772 -0.09695253 0.030535832
v -0.042719312 -0.09954739 0.0302777216
v -0.041554682 -0.0971260443 0.0325756967
v -0.0413544476 -0.09918127 0.0318908431
v -0.04096304 -0.101442814 0.0312346257
v -0.0396387428 -0.0991937742 0.0336195864
v -0.0392408855 -0.101462275 0.0328693949
v -0.0391877666 -0.103358731 0.031916704
v -0.0377020836 -0.101283863 0.0343636759
v -0.0371229947 -0.103747956 0.0334780477
v -0.0374208 -0.105265684 0.0323321037
v -0.0357744843 -0.103364177 0.03481684
v -0.035040658 -0.105995268 0.0337364934
v -0.03568661 -0.10713727 0.0324957669
v -0.0330277048 -0.1081677 0.03367464
v -0.03388264 -0.105405904 0.03499538
v -0.0340060778 -0.108950943 0.0324279144
v -0.03204933 -0.107384458 0.034921363
v -0.0323364846 -0.110752806 0.03213817
v -0.03022796 -0.10935013 0.03460527
v -0.03102976 -0.110323928 0.03330836
v -0.03063651 -0.112587459 0.03160793
v -0.02837344 -0.111351572 0.03402683
v -0.0289945826 -0.112520345 0.0326103978
v -0.0289287977 -0.114430465 0.0308216326
v -0.02651048 -0.113362119 0.0331690572
v -0.0274654645 -0.1141706 0.031855382
v -0.0272390358 -0.1162541 0.0297696926
v -0.0246671028 -0.115351543 0.0320214741
v -0.02595307 -0.115802824 0.0308955871
v -0.024475798 -0.11739713 0.0297298618
v -0.0255950242 -0.118028358 0.0284498334
v -0.0228736382 -0.117287092 0.0305816382
v -0.02305258 -0.118933104 0.0283618122
v -0.02402548 -0.119722247 0.0268681534
v -0.02116141 -0.119134977 0.02885617
v -0.021702148 -0.120390519 0.0267999731
v -0.0225585625 -0.121305384 0.0250395276
v -0.01956114 -0.120862022 0.0268613026
v -0.0204423144 -0.121750161 0.0250578374
v -0.02122036 -0.122749604 0.022987403
v -0.0181012768 -0.122437544 0.0246226229
v -0.0192892142 -0.122994617 0.0231535
v -0.0200333521 -0.124030657 0.0207429081
v -0.0168063547 -0.123835057 0.0221740827
v -0.0182566289 -0.124109015 0.0211090669
v -0.0190152358 -0.125129431 0.0183432959
v -0.0156956855 -0.125033721 0.0195563212
v -0.0173554588 -0.125081569 0.01894981
v -0.0165933445 -0.125904068 0.01670313
v -0.01817802 -0.126032978 0.0158299077
v -0.0147823617 -0.1260194 0.0168144461
v -0.0159744769 -0.126571968 0.0143974572
v -0.0175276436 -0.126734883 0.0132458955
v -0.0140728615 -0.126785114 0.0139955226
v -0.01549964 -0.127084434 0.0120611219
v -0.0170640517 -0.1272352 0.01063394
v -0.0135671236 -0.127330914 0.011146117
v -0.0151664056 -0.127444059 0.009721335
v -0.01678172 -0.1275399 0.00803419948
v -0.013259124 -0.127663314 0.008310036
v -0.0149695091 -0.127656549 0.007403316
v -0.01667048 -0.127659947 0.00548268063
v -0.013137769 -0.127794281 0.00552656129
v -0.0149013139 -0.127730161 0.005129614
v -0.0167165957 -0.127610177 0.0030101114
v -0.013188079 -0.12774 0.00282921316
v -0.013188079 -0.12774 0.00282921316
v -0.009520493 -0.124341637 0.00282921316
v -0.009470183 -0.124395929 0.00552656129
v -0.0113104191 -0.126088157 0.005919642
v -0.013137769 -0.127794281 0.00552656129
v -0.009591538 -0.124264963 0.008310036
v -0.013259124 -0.127663314 0.008310036
v -0.0114937164 -0.125890344 0.009116595
v -0.009899538 -0.123932563 0.011146117
v -0.0135671236 -0.127330914 0.011146117
v -0.0119253807 -0.125424474 0.0123681258
v -0.0104052722 -0.123386756 0.0139955226
v -0.0140728615 -0.126785114 0.0139955226
v -0.0126193948 -0.124675475 0.0156130157
v -0.0111147724 -0.122621045 0.0168144461
v -0.0147823617 -0.1260194 0.0168144461
v -0.0135803949 -0.123638339 0.01878355
v -0.0120280981 -0.12163537 0.0195563212
v -0.0156956855 -0.125033721 0.0195563212
v -0.0148022417 -0.1223197 0.0218094587
v -0.0131387673 -0.120436706 0.0221740827
v -0.0162674822 -0.120738372 0.0246226229
v -0.0168063547 -0.123835057 0.0221740827
v -0.0144336894 -0.119039193 0.0246226229
v -0.0181012768 -0.122437544 0.0246226229
v -0.0158935525 -0.117463671 0.0268613026
v -0.01956114 -0.120862022 0.0268613026
v -0.0179479886 -0.11892473 0.0271619037
v -0.0174938217 -0.115736626 0.02885617
v -0.02116141 -0.119134977 0.02885617
v -0.0198067129 -0.116918743 0.0293775424
v -0.01920605 -0.113888741 0.0305816382
v -0.0228736382 -0.117287092 0.0305816382
v -0.021800356 -0.114767157 0.03123429
v -0.0209995173 -0.111953184 0.0320214741
v -0.0246671028 -0.115351543 0.0320214741
v -0.0238825418 -0.112520009 0.0327130631
v -0.0228428952 -0.109963767 0.0331690572
v -0.02651048 -0.113362119 0.0331690572
v -0.0260070637 -0.110227168 0.03381085
v -0.0247058533 -0.107953213 0.03402683
v -0.02837344 -0.111351572 0.03402683
v -0.0281307269 -0.107935257 0.03453916
v -0.0265603717 -0.105951771 0.03460527
v -0.0302155372 -0.105685279 0.034921363
v -0.03022796 -0.10935013 0.03460527
v -0.0283817425 -0.103986107 0.034921363
v -0.03204933 -0.107384458 0.034921363
v -0.030215051 -0.102007553 0.03499538
v -0.03388264 -0.105405904 0.03499538
v -0.03231601 -0.103418395 0.0349859037
v -0.0321069 -0.0999658257 0.03481684
v -0.0357744843 -0.103364177 0.03481684
v -0.0344888866 -0.101073377 0.0347162224
v -0.034034498 -0.09788551 0.0343636759
v -0.0377020836 -0.101283863 0.0343636759
v -0.03614507 -0.09928598 0.0342754833
v -0.0359711573 -0.09579542 0.0336195864
v -0.0396387428 -0.0991937742 0.0336195864
v -0.03780495 -0.0974945948 0.0336195864
v -0.03944964 -0.0957196057 0.0327432826
v -0.0378870927 -0.09372769 0.0325756967
v -0.041554682 -0.0971260443 0.0325756967
v -0.04105923 -0.0939824954 0.0316460878
v -0.03975067 -0.0917164758 0.0312319212
v -0.04341826 -0.09511483 0.0312319212
v -0.0426135026 -0.09230509 0.0303326659
v -0.0415298827 -0.0897963047 0.029597789
v -0.04519747 -0.0931946561 0.029597789
v -0.044092685 -0.09070872 0.028813
v -0.04319408 -0.08800026 0.027692575
v -0.04686167 -0.09139861 0.027692575
v -0.04547827 -0.0892133638 0.0271022022
v -0.0447156467 -0.0863581449 0.0255446769
v -0.0483832359 -0.0897565 0.0255446769
v -0.04675375 -0.0878368244 0.025220044
v -0.0460715 -0.08489488 0.0231902
v -0.0497390851 -0.08829323 0.0231902
v -0.0479052924 -0.08659405 0.0231902
v -0.0489222035 -0.0854965746 0.0210392736
v -0.047244247 -0.08362922 0.0206709951
v -0.0509118363 -0.08702757 0.0206709951
v -0.0497972481 -0.08455221 0.0187956877
v -0.0482228659 -0.08257306 0.0180322658
v -0.0518904552 -0.085971415 0.0180322658
v -0.05052671 -0.0837649554 0.0164885279
v -0.04900284 -0.0817313045 0.0153201
v -0.0526704267 -0.0851296559 0.0153201
v -0.0511103123 -0.08313511 0.0141464248
v -0.04958585 -0.0811021 0.0125791281
v -0.0532534346 -0.0845004544 0.0125791281
v -0.05155091 -0.08265962 0.0117965825
v -0.0499789976 -0.08067781 0.009850573
v -0.0536465868 -0.08407616 0.009850573
v -0.05185408 -0.08233242 0.009463981
v -0.050193835 -0.08044595 0.00717078568
v -0.0538614243 -0.0838443041 0.00717078568
v -0.0502441451 -0.08039165 0.00447343756
v -0.0520714968 -0.08209778 0.004080357
v -0.05391173 -0.0837900043 0.00447343756
v -0.05012279 -0.08052262 0.001689964
v -0.0537903756 -0.08392097 0.001689964
v -0.0518881977 -0.0822956041 0.000883404166
v -0.0498147868 -0.08085503 -0.00114611816
v -0.053482376 -0.08425338 -0.00114611816
v -0.05145653 -0.08276147 -0.002368127
v -0.0493090525 -0.08140083 -0.003995524
v -0.05297664 -0.08479918 -0.003995524
v -0.05076252 -0.0835104659 -0.005613017
v -0.0485995524 -0.08216654 -0.00681444537
v -0.05226714 -0.08556489 -0.00681444537
v -0.04980152 -0.0845476 -0.008783556
v -0.04768623 -0.08315222 -0.0095563205
v -0.05135382 -0.08655058 -0.0095563205
v -0.04857967 -0.08586624 -0.0118094636
v -0.0465755574 -0.084350884 -0.0121740876
v -0.04711443 -0.08744757 -0.01462262
v -0.0502431467 -0.08774924 -0.0121740876
v -0.04528064 -0.08574839 -0.01462262
v -0.04894823 -0.08914675 -0.01462262
v -0.043820776 -0.08732392 -0.0168613
v -0.04748836 -0.09072227 -0.0168613
v -0.0454339236 -0.08926121 -0.01716191
v -0.0422205068 -0.08905096 -0.0188561678
v -0.0458880961 -0.0924493149 -0.0188561678
v -0.0435752 -0.0912672 -0.0193775445
v -0.0405082777 -0.09089885 -0.0205816366
v -0.0441758633 -0.0942972 -0.0205816366
v -0.04158156 -0.0934187844 -0.0212342963
v -0.03871481 -0.0928344 -0.02202148
v -0.0423824 -0.09623275 -0.02202148
v -0.0394993722 -0.09566593 -0.0227130651
v -0.0368714333 -0.09482382 -0.0231690556
v -0.04053902 -0.0982221738 -0.0231690556
v -0.03737485 -0.09795877 -0.023810856
v -0.0350084752 -0.09683437 -0.0240268372
v -0.03867606 -0.100232728 -0.0240268372
v -0.0352511853 -0.100250684 -0.024539154
v -0.0331539549 -0.09883581 -0.0246052742
v -0.033166375 -0.102500662 -0.0249213614
v -0.0368215442 -0.10223417 -0.0246052742
v -0.0313325822 -0.100801483 -0.0249213614
v -0.03500017 -0.104199834 -0.0249213614
v -0.0294992737 -0.102780037 -0.0249953866
v -0.033166863 -0.106178388 -0.0249953866
v -0.0310659036 -0.104767546 -0.0249859057
v -0.02760743 -0.104821764 -0.0248168372
v -0.03127502 -0.108220115 -0.0248168372
v -0.0288930275 -0.107112564 -0.02471622
v -0.0256798286 -0.106902078 -0.0243636817
v -0.029347416 -0.110300429 -0.0243636817
v -0.0272368453 -0.108899958 -0.0242754854
v -0.0237431712 -0.108992167 -0.0236195847
v -0.02741076 -0.112390518 -0.0236195847
v -0.0255769659 -0.110691339 -0.0236195847
v -0.0239322763 -0.112466335 -0.0227432847
v -0.0218272321 -0.1110599 -0.0225756951
v -0.0254948214 -0.114458248 -0.0225756951
v -0.0223226845 -0.114203446 -0.02164609
v -0.01996366 -0.113071114 -0.02123192
v -0.0236312468 -0.116469465 -0.02123192
v -0.0207684115 -0.115880854 -0.020332668
v -0.0181844458 -0.114991285 -0.0195977874
v -0.0218520332 -0.118389636 -0.0195977874
v -0.0192892291 -0.117477223 -0.0188130066
v -0.0165202469 -0.116787329 -0.0176925734
v -0.0201878343 -0.120185681 -0.0176925734
v -0.0179036465 -0.118972585 -0.0171022
v -0.0149986781 -0.118429445 -0.0155446781
v -0.0186662655 -0.121827796 -0.0155446781
v -0.0166281629 -0.120349117 -0.0152200488
v -0.0136428252 -0.119892716 -0.0131902
v -0.0173104126 -0.123291068 -0.0131902
v -0.015476618 -0.121591888 -0.0131902
v -0.0144597087 -0.122689366 -0.0110392747
v -0.0124700777 -0.121158369 -0.0106709925
v -0.016137667 -0.12455672 -0.0106709925
v -0.013584666 -0.123633735 -0.008795689
v -0.0114914589 -0.122214518 -0.008032269
v -0.0151590481 -0.12561287 -0.008032269
v -0.012855202 -0.124420986 -0.006488529
v -0.0107114874 -0.123056285 -0.005320101
v -0.0143790748 -0.126454636 -0.005320101
v -0.0122716 -0.125050828 -0.004146424
v -0.0101284795 -0.123685479 -0.0025791293
v -0.0137960669 -0.127083838 -0.0025791293
v -0.011831 -0.125526324 -0.00179658271
v -0.009735331 -0.124109775 0.00014942605
v -0.0134029165 -0.127508134 0.00014942605
v -0.0115278326 -0.125853524 0.000536018051
v -0.009520493 -0.124341637 0.00282921316
v -0.013188079 -0.12774 0.00282921316
v -0.009520493 -0.124341637 0.00282921316
v -0.009381421 -0.120813474 0.0030101114
v -0.009335304 -0.120863244 0.00548268063
v -0.009408915 -0.122622922 0.00588132348
v -0.009470183 -0.124395929 0.00552656129
v -0.009446545 -0.120743193 0.00803419948
v -0.009591538 -0.124264963 0.008310036
v -0.009584574 -0.122433349 0.00894507
v -0.009728877 -0.120438494 0.01063394
v -0.009899538 -0.123932563 0.011146117
v -0.009998258 -0.121986896 0.0120611219
v -0.0101924688 -0.119938172 0.0132458955
v -0.0104052722 -0.123386756 0.0139955226
v -0.0106633529 -0.121269107 0.015170808
v -0.0108428448 -0.119236268 0.0158299077
v -0.0111147724 -0.122621045 0.0168144461
v -0.01158431 -0.120275185 0.0182092339
v -0.011680061 -0.118332729 0.0183432959
v -0.0120280981 -0.12163537 0.0195563212
v -0.0127552468 -0.119011484 0.0211090669
v -0.0126981772 -0.117233947 0.0207429081
v -0.0141594354 -0.117496051 0.0238050111
v -0.0131387673 -0.120436706 0.0221740827
v -0.0138851851 -0.1159529 0.022987403
v -0.0144336894 -0.119039193 0.0246226229
v -0.0152233876 -0.114508674 0.0250395276
v -0.0158935525 -0.117463671 0.0268613026
v -0.0157699212 -0.115757972 0.0262384936
v -0.0166903045 -0.112925544 0.0268681534
v -0.0174938217 -0.115736626 0.02885617
v -0.0175511986 -0.113835573 0.0283618122
v -0.01825985 -0.111231655 0.0284498334
v -0.01920605 -0.113888741 0.0305816382
v -0.0194617715 -0.111773632 0.0301411934
v -0.019903861 -0.109457396 0.0297696926
v -0.0209995173 -0.111953184 0.0320214741
v -0.0214572027 -0.109620117 0.0315583535
v -0.0215936229 -0.107633762 0.0308216326
v -0.0228428952 -0.109963767 0.0331690572
v -0.0234932024 -0.107422814 0.0326103978
v -0.0233013351 -0.105790757 0.03160793
v -0.0247058533 -0.107953213 0.03402683
v -0.02552838 -0.1052264 0.03330836
v -0.02500131 -0.103956096 0.03213817
v -0.0275263228 -0.10307017 0.03367464
v -0.0265603717 -0.105951771 0.03460527
v -0.0266709011 -0.102154233 0.0324279144
v -0.0283817425 -0.103986107 0.034921363
v -0.0283514336 -0.10034056 0.0324957669
v -0.030215051 -0.102007553 0.03499538
v -0.0295392759 -0.100897737 0.0337364934
v -0.030085627 -0.09846898 0.0323321037
v -0.0321069 -0.0999658257 0.03481684
v -0.0316216126 -0.0986504257 0.0334780477
v -0.03185259 -0.09656202 0.031916704
v -0.034034498 -0.09788551 0.0343636759
v -0.03320879 -0.09693751 0.03305567
v -0.03362786 -0.09464611 0.0312346257
v -0.0359711573 -0.09579542 0.0336195864
v -0.03479951 -0.09522077 0.0324271061
v -0.03637567 -0.09351973 0.0315873139
v -0.03538414 -0.09275069 0.0302777216
v -0.0378870927 -0.09372769 0.0325756967
v -0.0379181951 -0.0918550044 0.030535832
v -0.0370924175 -0.0909070745 0.0290459283
v -0.03975067 -0.0917164758 0.0312319212
v -0.0394077078 -0.09024748 0.0292771421
v -0.0387233645 -0.08914692 0.0275479741
v -0.0415298827 -0.0897963047 0.029597789
v -0.0408252552 -0.0887176245 0.0278207958
v -0.04024888 -0.08750054 0.0258015282
v -0.04319408 -0.08800026 0.027692575
v -0.0421531051 -0.08728458 0.0261812769
v -0.04164365 -0.08599527 0.02383262
v -0.0447156467 -0.0863581449 0.0255446769
v -0.04337544 -0.0859654 0.0243775435
v -0.04288651 -0.0846539438 0.02167435
v -0.0460715 -0.08489488 0.0231902
v -0.044479005 -0.0847744048 0.0224322751
v -0.0454535447 -0.0837226659 0.0203709714
v -0.04396153 -0.0834937543 0.01936508
v -0.047244247 -0.08362922 0.0206709951
v -0.0462921262 -0.0828176439 0.01822087
v -0.0448585972 -0.08252562 0.016946245
v -0.0482228659 -0.08257306 0.0180322658
v -0.0469911955 -0.08206319 0.0160098411
v -0.0455735773 -0.08175399 0.0144600924
v -0.04900284 -0.0817313045 0.0153201
v -0.0475504845 -0.0814596 0.0137653239
v -0.046108 -0.0811772346 0.011947534
v -0.04958585 -0.0811021 0.0125791281
v -0.04797272 -0.0810039043 0.0115133915
v -0.0464683846 -0.0807883 0.009446357
v -0.0499789976 -0.08067781 0.009850573
v -0.048263263 -0.08069034 0.009277983
v -0.050193835 -0.08044595 0.00717078568
v -0.04666532 -0.0805757642 0.00698988745
v -0.0467114374 -0.0805259943 0.004517318
v -0.050193835 -0.08044595 0.00717078568
v -0.0484716147 -0.08046549 0.0041186763
v -0.0502441451 -0.08039165 0.00447343756
v -0.0466001928 -0.08064604 0.00196580123
v -0.05012279 -0.08052262 0.001689964
v -0.04829596 -0.08065506 0.00105492864
v -0.04631786 -0.0809507445 -0.000633941963
v -0.0498147868 -0.08085503 -0.00114611816
v -0.0478822738 -0.0811015144 -0.002061123
v -0.0461091921 -0.08117595 -0.0019408213
v -0.0493090525 -0.08140083 -0.003995524
v -0.0458542667 -0.0814510658 -0.00324589666
v -0.04721718 -0.0818193 -0.005170808
v -0.0485995524 -0.08216654 -0.00681444537
v -0.04520389 -0.08215297 -0.005829907
v -0.046296224 -0.0828132257 -0.008209235
v -0.04768623 -0.08315222 -0.0095563205
v -0.04436668 -0.08305651 -0.008343293
v -0.0451252833 -0.0840769261 -0.01110907
v -0.0465755574 -0.084350884 -0.0121740876
v -0.0437210947 -0.08559237 -0.0138050122
v -0.043348562 -0.0841552839 -0.0107429074
v -0.04528064 -0.08574839 -0.01462262
v -0.0421615541 -0.08543634 -0.0129874
v -0.043820776 -0.08732392 -0.0168613
v -0.0408233479 -0.0868805647 -0.0150395269
v -0.04211061 -0.08733044 -0.0162384957
v -0.0422205068 -0.08905096 -0.0188561678
v -0.0393564329 -0.0884636939 -0.0168681554
v -0.0403293334 -0.08925284 -0.01836181
v -0.0405082777 -0.09089885 -0.0205816366
v -0.0377868935 -0.09015758 -0.0184498355
v -0.0384187624 -0.09131478 -0.0201411955
v -0.03871481 -0.0928344 -0.02202148
v -0.036142882 -0.0919318348 -0.01976969
v -0.036423333 -0.09346829 -0.0215583518
v -0.0368714333 -0.09482382 -0.0231690556
v -0.0344531164 -0.0937554762 -0.0208216347
v -0.03438733 -0.0956656 -0.0226104
v -0.0350084752 -0.09683437 -0.0240268372
v -0.032745406 -0.09559848 -0.0216079354
v -0.0323521532 -0.09786201 -0.02330836
v -0.0331539549 -0.09883581 -0.0246052742
v -0.0303542111 -0.100018241 -0.02367464
v -0.03104543 -0.0974331349 -0.02213817
v -0.0313325822 -0.100801483 -0.0249213614
v -0.0293758381 -0.099235 -0.0224279165
v -0.0294992737 -0.102780037 -0.0249953866
v -0.0276953056 -0.101048671 -0.022495769
v -0.0283412561 -0.102190673 -0.0237365
v -0.02760743 -0.104821764 -0.0248168372
v -0.0259611122 -0.102920257 -0.0223321021
v -0.02625892 -0.104437985 -0.02347805
v -0.0256798286 -0.106902078 -0.0243636817
v -0.0241941474 -0.10482721 -0.0219167061
v -0.0246717427 -0.1061509 -0.0230556726
v -0.0237431712 -0.108992167 -0.0236195847
v -0.022418879 -0.106743127 -0.0212346241
v -0.0230810251 -0.107867643 -0.0224271119
v -0.0215048622 -0.109568678 -0.02158732
v -0.0218272321 -0.1110599 -0.0225756951
v -0.0206626 -0.10863854 -0.0202777237
v -0.0199623387 -0.111233413 -0.0205358379
v -0.01996366 -0.113071114 -0.02123192
v -0.0189543255 -0.110482156 -0.01904593
v -0.0184728261 -0.112840928 -0.01927714
v -0.0181844458 -0.114991285 -0.0195977874
v -0.0173233747 -0.112242319 -0.0175479725
v -0.0170552749 -0.114370786 -0.0178207941
v -0.0165202469 -0.116787329 -0.0176925734
v -0.0157978628 -0.113888688 -0.01580153
v -0.0157274269 -0.11580383 -0.016181279
v -0.0149986781 -0.118429445 -0.0155446781
v -0.01440309 -0.115393959 -0.0138326185
v -0.01450509 -0.117123008 -0.0143775428
v -0.0136428252 -0.119892716 -0.0131902
v -0.0131602269 -0.116735294 -0.0116743511
v -0.0134015251 -0.118314005 -0.0124322781
v -0.0124269873 -0.119365752 -0.0103709688
v -0.0124700777 -0.121158369 -0.0106709925
v -0.0120852068 -0.117895484 -0.009365081
v -0.0115884021 -0.120270774 -0.008220871
v -0.0114914589 -0.122214518 -0.008032269
v -0.011188142 -0.11886362 -0.00694624428
v -0.0108893365 -0.12102522 -0.00600984227
v -0.0107114874 -0.123056285 -0.005320101
v -0.01047316 -0.119635239 -0.0044600945
v -0.0103300475 -0.121628821 -0.003765326
v -0.0101284795 -0.123685479 -0.0025791293
v -0.009938741 -0.120212 -0.00194753427
v -0.009907808 -0.122084506 -0.00151339266
v -0.009735331 -0.124109775 0.00014942605
v -0.00957835652 -0.120600939 0.000553640537
v -0.009617269 -0.122398064 0.000722017139
v -0.009520493 -0.124341637 0.00282921316
v -0.009381421 -0.120813474 0.0030101114
v -0.04105792 -0.09398391 0.024341315
v -0.0458935462 -0.09612168 0.0271075852
v -0.03855837 -0.08932498 0.0271075852
v -0.036222294 -0.09184614 0.0215750448
v -0.0435574651 -0.09864284 0.0215750448
v -0.0441930778 -0.09060037 0.0247647874
v -0.0478606671 -0.09399872 0.0247647874
v -0.04964006 -0.09207836 0.0219552014
v -0.0458935462 -0.09612168 0.0271075852
v -0.03855837 -0.08932498 0.0271075852
v -0.04052549 -0.08720201 0.0247647874
v -0.0459724739 -0.08868 0.0219552014
v -0.0511590019 -0.0904390737 0.0187319554
v -0.04230489 -0.08528165 0.0219552014
v -0.0474914163 -0.08704072 0.0187319554
v -0.0523553938 -0.0891478956 0.0151796751
v -0.0438238271 -0.08364236 0.0187319554
v -0.04868781 -0.0857495442 0.0151796751
v -0.0531853437 -0.0882522 0.011407922
v -0.0450202227 -0.08235119 0.0151796751
v -0.0495177545 -0.08485384 0.011407922
v -0.0536282547 -0.0877741948 0.00754022552
v -0.0458501652 -0.08145549 0.011407922
v -0.0499606654 -0.08437584 0.00754022552
v -0.0536884 -0.0877092853 0.0037009567
v -0.04629308 -0.08097749 0.00754022552
v -0.0500208139 -0.0843109339 0.0037009567
v -0.05339261 -0.0880285054 2.86567956E-06
v -0.0463532247 -0.08091258 0.0037009567
v -0.0460574329 -0.0812318 2.86567956E-06
v -0.0475759469 -0.08694949 0.000782464631
v -0.04909446 -0.09266718 0.00156206731
v -0.0417592861 -0.0858704746 0.00156206731
v -0.0460574329 -0.0812318 2.86567956E-06
v -0.05339261 -0.0880285054 2.86567956E-06
v -0.045615945 -0.08906478 0.00429436238
v -0.0492835343 -0.09246313 0.00429436238
v -0.0492170975 -0.0925348252 0.007119837
v -0.04909446 -0.09266718 0.00156206731
v -0.0417592861 -0.0858704746 0.00156206731
v -0.0419483557 -0.08566642 0.00429436238
v -0.0455495119 -0.0891364738 0.007119837
v -0.04887782 -0.092900984 0.009959978
v -0.0418819226 -0.08573812 0.007119837
v -0.04521023 -0.08950263 0.009959978
v -0.04826356 -0.09356391 0.0127290124
v -0.04154264 -0.08610428 0.009959978
v -0.04459597 -0.0901655555 0.0127290124
v -0.04738877 -0.09450801 0.0153420065
v -0.0409283862 -0.0867672 0.0127290124
v -0.0437211841 -0.09110965 0.0153420065
v -0.0462834239 -0.09570092 0.01772334
v -0.0400535949 -0.0877113 0.0153420065
v -0.04261584 -0.09230257 0.01772334
v -0.04498977 -0.09709707 0.0198138151
v -0.0389482528 -0.08890421 0.01772334
v -0.04132218 -0.09369871 0.0198138151
v -0.0435574651 -0.09864284 0.0215750448
v -0.0376545936 -0.09030036 0.0198138151
v -0.036222294 -0.09184614 0.0215750448
v -0.04833038 -0.08613528 -0.00638644677
v -0.0519979671 -0.08953364 -0.00638644677
v -0.0507317036 -0.09090023 -0.009744546
v -0.0529044941 -0.0885553 -0.00290990528
v -0.0455693156 -0.08175859 -0.00290990528
v -0.044662796 -0.08273693 -0.00638644677
v -0.0470641181 -0.08750187 -0.009744546
v -0.0491175577 -0.09264225 -0.0128660193
v -0.0433965325 -0.08410352 -0.009744546
v -0.0454499722 -0.0892439 -0.0128660193
v -0.0471910536 -0.0947213843 -0.0156378448
v -0.0417823866 -0.0858455449 -0.0128660193
v -0.0435234681 -0.09132303 -0.0156378448
v -0.04500944 -0.0970758349 -0.01796471
v -0.0398558825 -0.0879246742 -0.0156378448
v -0.0413418561 -0.09367748 -0.01796471
v -0.04264621 -0.0996262953 -0.0197796561
v -0.0376742668 -0.09027913 -0.01796471
v -0.03897862 -0.09622794 -0.0197796561
v -0.0401830748 -0.102284573 -0.0210502185
v -0.0353110358 -0.0928295851 -0.0197796561
v -0.0365154855 -0.0988862142 -0.0210502185
v -0.0377012044 -0.104963064 -0.0217790939
v -0.0328479 -0.09548786 -0.0210502185
v -0.03036603 -0.09816636 -0.0217790939
v -0.0338734537 -0.101737566 -0.0185310058
v -0.0373808779 -0.105308771 -0.0152829206
v -0.0300457031 -0.09851206 -0.0152829206
v -0.03036603 -0.09816636 -0.0217790939
v -0.0377012044 -0.104963064 -0.0217790939
v -0.03553789 -0.09994127 -0.0147031611
v -0.0392054766 -0.10333962 -0.0147031611
v -0.04101135 -0.101390675 -0.01373708
v -0.0373808779 -0.105308771 -0.0152829206
v -0.0300457031 -0.09851206 -0.0152829206
v -0.0318703 -0.09654291 -0.0147031611
v -0.03734376 -0.09799232 -0.01373708
v -0.0427423865 -0.0995225 -0.0123846708
v -0.0336761735 -0.09459397 -0.01373708
v -0.0390748 -0.09612414 -0.0123846708
v -0.0443424881 -0.09779563 -0.0106694745
v -0.03540721 -0.09272579 -0.0123846708
v -0.0406749025 -0.09439728 -0.0106694745
v -0.0457612164 -0.0962645 -0.008637923
v -0.0370073169 -0.09099892 -0.0106694745
v -0.04209363 -0.0928661451 -0.008637923
v -0.0469589531 -0.09497187 -0.00635535363
v -0.03842604 -0.08946779 -0.008637923
v -0.0432913639 -0.09157352 -0.00635535363
v -0.04791048 -0.09394496 -0.003899158
v -0.0396237746 -0.08817516 -0.00635535363
v -0.0442428924 -0.09054661 -0.003899158
v -0.0486063436 -0.09319396 -0.00135070458
v -0.0405753031 -0.08714826 -0.003899158
v -0.0412711725 -0.08639726 -0.00135070458
v -0.0470878333 -0.0874762759 -0.00213030726
v -0.0529044941 -0.0885553 -0.00290990528
v -0.0455693156 -0.08175859 -0.00290990528
v -0.0412711725 -0.08639726 -0.00135070458
v -0.0486063436 -0.09319396 -0.00135070458
v -0.0163860656 -0.120610394 -0.00254681986
v -0.0180035625 -0.126221254 -0.00377464946
v -0.0106683876 -0.119424552 -0.00377464946
v -0.0147685632 -0.114999533 -0.00131899025
v -0.022103738 -0.121796243 -0.00131899025
v -0.01368049 -0.123530321 -0.000178098679
v -0.0173480771 -0.126928672 -0.000178098679
v -0.0170309469 -0.127270922 0.0036337385
v -0.0180035625 -0.126221254 -0.00377464946
v -0.0106683876 -0.119424552 -0.00377464946
v -0.0100129023 -0.120131969 -0.000178098679
v -0.0133633595 -0.123872571 0.0036337385
v -0.017089786 -0.127207428 0.007554993
v -0.009695772 -0.120474219 0.0036337385
v -0.0134221986 -0.123809069 0.007554993
v -0.01754102 -0.126720443 0.0114635006
v -0.009754611 -0.120410718 0.007554993
v -0.0138734318 -0.123322092 0.0114635006
v -0.0183763914 -0.125818878 0.0152326571
v -0.0102058444 -0.119923741 0.0114635006
v -0.014708804 -0.122420534 0.0152326571
v -0.0195632186 -0.124538034 0.0187447239
v -0.0110412166 -0.119022176 0.0152326571
v -0.0158956312 -0.121139683 0.0187447239
v -0.0210483465 -0.12293525 0.0219027735
v -0.0122280437 -0.117741331 0.0187447239
v -0.01738076 -0.119536892 0.0219027735
v -0.0227650348 -0.121082552 0.02463879
v -0.0137131717 -0.11613854 0.0219027735
v -0.01542986 -0.114285849 0.02463879
v -0.020524634 -0.116143942 0.02214954
v -0.02561941 -0.118002042 0.01966029
v -0.0182842351 -0.111205332 0.01966029
v -0.01542986 -0.114285849 0.02463879
v -0.0227650348 -0.121082552 0.02463879
v -0.0207073018 -0.115946807 0.01761333
v -0.02437489 -0.119345158 0.01761333
v -0.02329986 -0.120505363 0.0152700171
v -0.02561941 -0.118002042 0.01966029
v -0.0182842351 -0.111205332 0.01966029
v -0.0170397144 -0.112548456 0.01761333
v -0.0196322724 -0.117107004 0.0152700171
v -0.0224397127 -0.121433645 0.0126788821
v -0.015964685 -0.113708653 0.0152700171
v -0.0187721252 -0.118035294 0.0126788821
v -0.0218304209 -0.122091211 0.009907473
v -0.0151045378 -0.114636943 0.0126788821
v -0.0181628335 -0.11869286 0.009907473
v -0.0214942526 -0.122454017 0.007036988
v -0.0144952461 -0.1152945 0.009907473
v -0.0178266652 -0.119055659 0.007036988
v -0.02143715 -0.122515641 0.004154536
v -0.0141590778 -0.115657307 0.007036988
v -0.0177695621 -0.11911729 0.004154536
v -0.0216485988 -0.122287437 0.001344542
v -0.0141019747 -0.115718931 0.004154536
v -0.0179810114 -0.118889086 0.001344542
v -0.022103738 -0.121796243 -0.00131899025
v -0.014313424 -0.115490735 0.001344542
v -0.0147685632 -0.114999533 -0.00131899025
v -0.0220831819 -0.114461921 0.0240838975
v -0.02432358 -0.119400531 0.0265731439
v -0.016988406 -0.112603828 0.0265731439
v -0.0198427849 -0.109523311 0.0215946436
v -0.02717796 -0.116320014 0.0215946436
v -0.022778267 -0.113711767 0.0286017545
v -0.0264458545 -0.117110118 0.0286017545
v -0.0288118459 -0.114556685 0.0302234329
v -0.02432358 -0.119400531 0.0265731439
v -0.016988406 -0.112603828 0.0265731439
v -0.01911068 -0.110313416 0.0286017545
v -0.02514426 -0.111158334 0.0302234329
v -0.0313647464 -0.111801527 0.0313528366
v -0.0214766711 -0.107759975 0.0302234329
v -0.02769716 -0.108403176 0.0313528366
v -0.03403067 -0.108924404 0.03192923
v -0.0240295716 -0.105004825 0.0313528366
v -0.03036308 -0.105526052 0.03192923
v -0.0367252156 -0.106016383 0.0319250263
v -0.0266954917 -0.102127694 0.03192923
v -0.0330576263 -0.102618024 0.0319250263
v -0.03936218 -0.1031705 0.0313496031
v -0.0293900389 -0.09921967 0.0319250263
v -0.03569459 -0.09977215 0.0313496031
v -0.0418624878 -0.1004721 0.0302473642
v -0.0320270061 -0.0963738 0.0313496031
v -0.0381949022 -0.09707375 0.0302473642
v -0.04416155 -0.0979909 0.0286906958
v -0.0345273167 -0.0936754 0.0302473642
v -0.0368263759 -0.09119419 0.0286906958
v -0.0393259265 -0.09585312 0.02592443
v -0.0418254733 -0.10051205 0.0231581554
v -0.0344903 -0.09371535 0.0231581554
v -0.0368263759 -0.09119419 0.0286906958
v -0.04416155 -0.0979909 0.0286906958
v -0.0364501439 -0.0989567339 0.0242670532
v -0.0401177332 -0.102355093 0.0242670532
v -0.0382708 -0.104348347 0.0250472073
v -0.0418254733 -0.10051205 0.0231581554
v -0.0344903 -0.09371535 0.0231581554
v -0.0327825546 -0.09555838 0.0242670532
v -0.034603212 -0.100949995 0.0250472073
v -0.0363300741 -0.106442824 0.0254501067
v -0.0309356246 -0.09755164 0.0250472073
v -0.03266249 -0.103044473 0.0254501067
v -0.034350343 -0.108579405 0.0254462641
v -0.0289949 -0.09964612 0.0254501067
v -0.0306827538 -0.105181046 0.0254462641
v -0.0323909633 -0.110694014 0.0250296369
v -0.0270151664 -0.101782694 0.0254462641
v -0.028723374 -0.107295662 0.0250296369
v -0.0305100847 -0.1127239 0.02421881
v -0.0250557866 -0.1038973 0.0250296369
v -0.0268424973 -0.10932555 0.02421881
v -0.02875903 -0.114613682 0.0230545979
v -0.02317491 -0.1059272 0.02421881
v -0.0250914432 -0.111215331 0.0230545979
v -0.02717796 -0.116320014 0.0215946436
v -0.0214238558 -0.107816979 0.0230545979
v -0.0198427849 -0.109523311 0.0215946436
v -0.031839788 -0.103932351 -0.0187480859
v -0.03566754 -0.107157849 -0.021996174
v -0.0283323638 -0.100361146 -0.021996174
v -0.0280120373 -0.100706846 -0.0155000007
v -0.0353472121 -0.107503556 -0.0155000007
v -0.0294725653 -0.10648711 -0.021801997
v -0.0331401527 -0.109885469 -0.021801997
v -0.0305781644 -0.112650432 -0.0210678317
v -0.03566754 -0.107157849 -0.021996174
v -0.0283323638 -0.100361146 -0.021996174
v -0.0258049779 -0.103088759 -0.021801997
v -0.026910577 -0.109252073 -0.0210678317
v -0.0280616265 -0.11536634 -0.0197737627
v -0.02324299 -0.105853721 -0.0210678317
v -0.0243940391 -0.111967988 -0.0197737627
v -0.0256745871 -0.1179425 -0.0179345682
v -0.0207264517 -0.108569637 -0.0197737627
v -0.022007 -0.114544138 -0.0179345682
v -0.0234963261 -0.120293327 -0.0156008964
v -0.01833941 -0.111145787 -0.0179345682
v -0.0198287386 -0.116894975 -0.0156008964
v -0.021592861 -0.122347593 -0.0128548956
v -0.0161611512 -0.113496616 -0.0156008964
v -0.0179252736 -0.118949242 -0.0128548956
v -0.02001041 -0.124055415 -0.00980087649
v -0.0142576862 -0.115550891 -0.0128548956
v -0.0163428225 -0.120657057 -0.00980087649
v -0.01877232 -0.125391588 -0.00655325968
v -0.012675235 -0.117258705 -0.00980087649
v -0.011437146 -0.118594885 -0.00655325968
v -0.01715482 -0.119780734 -0.005325429
v -0.0228725 -0.120966576 -0.00409759954
v -0.0155373253 -0.114169866 -0.00409759954
v -0.011437146 -0.118594885 -0.00655325968
v -0.01877232 -0.125391588 -0.00655325968
v -0.0201435015 -0.116555274 -0.00647158828
v -0.0238110889 -0.119953625 -0.00647158828
v -0.0249936152 -0.118677415 -0.008699992
v -0.0228725 -0.120966576 -0.00409759954
v -0.0155373253 -0.114169866 -0.00409759954
v -0.016475914 -0.113156922 -0.00647158828
v -0.0213260278 -0.115279064 -0.008699992
v -0.0264027361 -0.117156655 -0.0107042966
v -0.0176584385 -0.111880712 -0.008699992
v -0.0227351487 -0.1137583 -0.0107042966
v -0.02800591 -0.115426473 -0.0124132829
v -0.01906756 -0.110359952 -0.0107042966
v -0.02433832 -0.112028122 -0.0124132829
v -0.029757522 -0.11353609 -0.01377071
v -0.0206707343 -0.108629763 -0.0124132829
v -0.0260899365 -0.110137731 -0.01377071
v -0.03160311 -0.111544281 -0.014741336
v -0.0224223472 -0.106739379 -0.01377071
v -0.0279355217 -0.10814593 -0.014741336
v -0.0334848464 -0.109513469 -0.0153137958
v -0.0242679343 -0.104747579 -0.014741336
v -0.0298172571 -0.10611511 -0.0153137958
v -0.0353472121 -0.107503556 -0.0155000007
v -0.02614967 -0.102716759 -0.0153137958
v -0.0280120373 -0.100706846 -0.0155000007
v -0.04174252 -0.0932450742 0.0143562434
v -0.0381658375 -0.08974861 0.0141414134
v -0.0374817327 -0.0904869139 0.0156109491
v -0.04047759 -0.09461022 0.016795028
v -0.03669082 -0.09134049 0.0169843938
v -0.0387366936 -0.089132525 0.012602156
v -0.03580324 -0.09229839 0.0182373356
v -0.04267848 -0.09223496 0.0117016416
v -0.0395317674 -0.088274464 0.009421158
v -0.0389252976 -0.0962854847 0.0188909173
v -0.0348324552 -0.09334608 0.01934871
v -0.0371557847 -0.09819519 0.02054355
v -0.0337945819 -0.09446618 0.020301953
v -0.0327074975 -0.09563939 0.0210858248
v -0.04327593 -0.09159017 0.008964673
v -0.0398864225 -0.08789171 0.00626629172
v -0.03525745 -0.100243919 0.02169476
v -0.0315898657 -0.09684557 0.02169476
v -0.0333230831 -0.102331541 0.0223344639
v -0.0293357149 -0.0992783 0.0223931558
v -0.03205557 -0.103699468 0.02249178
v -0.0271627083 -0.101623468 0.0224541277
v -0.0468669459 -0.0950711742 0.009421158
v -0.0460718721 -0.0959292352 0.012602156
v -0.0472216 -0.0946884155 0.00626629172
v -0.0455010124 -0.09654532 0.0141414134
v -0.0448169075 -0.0972836241 0.0156109491
v -0.0440259948 -0.0981372 0.0169843938
v -0.0431384146 -0.09909509 0.0182373356
v -0.04216763 -0.100142792 0.01934871
v -0.041129753 -0.10126289 0.020301953
v -0.0400426723 -0.102436095 0.0210858248
v -0.03892504 -0.10364227 0.02169476
v -0.03667089 -0.106075011 0.0223931558
v -0.0344978832 -0.108420171 0.0224541277
v -0.0308302958 -0.105021819 0.0224541277
v -0.0296141561 -0.106334306 0.0222311765
v -0.0323536135 -0.110734321 0.0219323188
v -0.0250184387 -0.103937611 0.0219323188
v -0.0283753537 -0.107671253 0.02180633
v -0.0271360483 -0.109008744 0.0211659521
v -0.0301915817 -0.113067642 0.02076253
v -0.0228564069 -0.106270932 0.02076253
v -0.02592144 -0.110319577 0.0203033369
v -0.0291453935 -0.11419671 0.0199226215
v -0.0218102187 -0.1074 0.0199226215
v -0.02475848 -0.111574672 0.01922023
v -0.0281465966 -0.115274638 0.0189160965
v -0.0208114218 -0.108477935 0.0189160965
v -0.0236742236 -0.112744831 0.017927777
v -0.0272131059 -0.116282083 0.0177524276
v -0.0226939283 -0.113802791 0.016446529
v -0.01987793 -0.10948538 0.0177524276
v -0.0263615157 -0.117201142 0.016446529
v -0.0190263391 -0.110404432 0.016446529
v -0.0256061517 -0.118016347 0.0150182135
v -0.0182709768 -0.111219645 0.0150182135
v -0.0218392052 -0.114725225 0.014805519
v -0.0249582566 -0.118715577 0.0134911882
v -0.0176230818 -0.111918867 0.0134911882
v -0.021126464 -0.115494438 0.0130404038
v -0.02442548 -0.11929056 0.011891759
v -0.0170903057 -0.11249385 0.011891759
v -0.0205658767 -0.116099432 0.0111909257
v -0.0240116045 -0.119737223 0.0102473879
v -0.01667643 -0.11294052 0.0102473879
v -0.02016104 -0.116536349 0.009298074
v -0.023536928 -0.12024951 0.006930854
v -0.0162017532 -0.1134528 0.006930854
v -0.0199092329 -0.1168081 0.00740134669
v -0.01980231 -0.116923496 0.00553645752
v -0.023495486 -0.120294228 0.00373370713
v -0.0161603112 -0.113497525 0.00373370713
v -0.0435796045 -0.0912624449 0.00446354132
v -0.04718016 -0.09473314 0.0030691456
v -0.0398449861 -0.08793643 0.0030691456
v -0.04347268 -0.09137784 0.00259865168
v -0.0432208739 -0.09164959 0.0007019248
v -0.04670548 -0.09524543 -0.000247388147
v -0.0393703058 -0.08844872 -0.000247388147
v -0.0428160354 -0.09208651 -0.00119092688
v -0.0462916046 -0.09569209 -0.00189175922
v -0.0389564335 -0.08889538 -0.00189175922
v -0.04225545 -0.0926915 -0.003040406
v -0.0457588322 -0.0962670743 -0.00349118933
v -0.0384236574 -0.0894703642 -0.00349118933
v -0.04154271 -0.09346072 -0.00480551925
v -0.04511094 -0.0969663 -0.0050182147
v -0.0406879857 -0.09438315 -0.006446532
v -0.0377757661 -0.0901695862 -0.0050182147
v -0.044355575 -0.09778151 -0.006446532
v -0.0370204 -0.0909848 -0.006446532
v -0.0435039848 -0.09870056 -0.00775242876
v -0.03616881 -0.09190386 -0.00775242876
v -0.03970769 -0.09544111 -0.007927778
v -0.0425704941 -0.0997080058 -0.008916101
v -0.03523532 -0.0929113 -0.008916101
v -0.0386234336 -0.09661127 -0.009220234
v -0.0415716954 -0.100785933 -0.009922626
v -0.03423652 -0.09398923 -0.009922626
v -0.0374604762 -0.0978663638 -0.01030334
v -0.0405255072 -0.101915009 -0.0107625267
v -0.0331903324 -0.0951183 -0.0107625267
v -0.0362458639 -0.0991772 -0.011165957
v -0.0383634754 -0.10424833 -0.01193232
v -0.0310283 -0.09745162 -0.01193232
v -0.03500656 -0.100514688 -0.0118063306
v -0.0337677561 -0.101851635 -0.0122311777
v -0.0362192057 -0.106562473 -0.0124541288
v -0.02888403 -0.09976577 -0.0124541288
v -0.03255162 -0.103164122 -0.0124541288
v -0.0313263424 -0.104486473 -0.0124917766
v -0.0340462 -0.10890764 -0.0123931533
v -0.0267110243 -0.10211093 -0.0123931533
v -0.030058831 -0.1058544 -0.012334465
v -0.03179205 -0.111340374 -0.0116947582
v -0.0244568735 -0.104543671 -0.0116947582
v -0.028124461 -0.107942022 -0.0116947582
v -0.0306744184 -0.112546548 -0.011085826
v -0.02622613 -0.109990746 -0.0105435541
v -0.0233392436 -0.105749846 -0.011085826
v -0.0295873359 -0.113719761 -0.0103019541
v -0.0222521611 -0.106923051 -0.0103019541
v -0.0285494588 -0.114839859 -0.009348708
v -0.021214284 -0.108043149 -0.009348708
v -0.0244566165 -0.111900449 -0.008890918
v -0.0275786743 -0.115887552 -0.008237339
v -0.0229043253 -0.113575719 -0.00679502543
v -0.0202435 -0.10909085 -0.008237339
v -0.0266910978 -0.116845451 -0.006984393
v -0.0193559229 -0.110048741 -0.006984393
v -0.0259001814 -0.117699027 -0.00561095029
v -0.0216393955 -0.114940867 -0.00435624458
v -0.0185650066 -0.110902317 -0.00561095029
v -0.0252160765 -0.118437327 -0.00414141361
v -0.0178809017 -0.111640625 -0.00414141361
v -0.0246452149 -0.119053416 -0.00260215532
v -0.01731004 -0.112256706 -0.00260215532
v -0.0207034349 -0.115950979 -0.00170164369
v -0.0238501448 -0.119911477 0.0005788412
v -0.01651497 -0.113114767 0.0005788412
v -0.0201059822 -0.116595767 0.00103532616
v -0.023495486 -0.120294228 0.00373370713
v -0.0161603112 -0.113497525 0.00373370713
v -0.03842604 -0.08946779 -0.008637923
v -0.0370204 -0.0909848 -0.006446532
v -0.03616881 -0.09190386 -0.00775242876
v -0.0377757661 -0.0901695862 -0.0050182147
v -0.0370073169 -0.09099892 -0.0106694745
v -0.0396237746 -0.08817516 -0.00635535363
v -0.03523532 -0.0929113 -0.008916101
v -0.0384236574 -0.0894703642 -0.00349118933
v -0.0405753031 -0.08714826 -0.003899158
v -0.0389564335 -0.08889538 -0.00189175922
v -0.03540721 -0.09272579 -0.0123846708
v -0.03423652 -0.09398923 -0.009922626
v -0.0331903324 -0.0951183 -0.0107625267
v -0.0336761735 -0.09459397 -0.01373708
v -0.0412711725 -0.08639726 -0.00135070458
v -0.0310283 -0.09745162 -0.01193232
v -0.0318703 -0.09654291 -0.0147031611
v -0.0300457031 -0.09851206 -0.0152829206
v -0.0393703058 -0.08844872 -0.000247388147
v -0.02888403 -0.09976577 -0.0124541288
v -0.0417592861 -0.0858704746 0.00156206731
v -0.0398449861 -0.08793643 0.0030691456
v -0.0419483557 -0.08566642 0.00429436238
v -0.0398864225 -0.08789171 0.00626629172
v -0.0418819226 -0.08573812 0.007119837
v -0.0460574329 -0.0812318 2.86567956E-06
v -0.0395317674 -0.088274464 0.009421158
v -0.04154264 -0.08610428 0.009959978
v -0.0409283862 -0.0867672 0.0127290124
v -0.0387366936 -0.089132525 0.012602156
v -0.0400535949 -0.0877113 0.0153420065
v -0.0381658375 -0.08974861 0.0141414134
v -0.0389482528 -0.08890421 0.01772334
v -0.0374817327 -0.0904869139 0.0156109491
v -0.03669082 -0.09134049 0.0169843938
v -0.0376545936 -0.09030036 0.0198138151
v -0.03580324 -0.09229839 0.0182373356
v -0.036222294 -0.09184614 0.0215750448
v -0.0348324552 -0.09334608 0.01934871
v -0.0337945819 -0.09446618 0.020301953
v -0.0344903 -0.09371535 0.0231581554
v -0.0327074975 -0.09563939 0.0210858248
v -0.03855837 -0.08932498 0.0271075852
v -0.0327825546 -0.09555838 0.0242670532
v -0.0315898657 -0.09684557 0.02169476
v -0.0309356246 -0.09755164 0.0250472073
v -0.0293357149 -0.0992783 0.0223931558
v -0.0289949 -0.09964612 0.0254501067
v -0.0271627083 -0.101623468 0.0224541277
v -0.0270151664 -0.101782694 0.0254462641
v -0.0250557866 -0.1038973 0.0250296369
v -0.0250184387 -0.103937611 0.0219323188
v -0.02317491 -0.1059272 0.02421881
v -0.0228564069 -0.106270932 0.02076253
v -0.0214238558 -0.107816979 0.0230545979
v -0.0218102187 -0.1074 0.0199226215
v -0.0198427849 -0.109523311 0.0215946436
v -0.0208114218 -0.108477935 0.0189160965
v -0.0182842351 -0.111205332 0.01966029
v -0.01987793 -0.10948538 0.0177524276
v -0.0190263391 -0.110404432 0.016446529
v -0.0170397144 -0.112548456 0.01761333
v -0.0182709768 -0.111219645 0.0150182135
v -0.01542986 -0.114285849 0.02463879
v -0.015964685 -0.113708653 0.0152700171
v -0.0176230818 -0.111918867 0.0134911882
v -0.0170903057 -0.11249385 0.011891759
v -0.0151045378 -0.114636943 0.0126788821
v -0.01667643 -0.11294052 0.0102473879
v -0.0144952461 -0.1152945 0.009907473
v -0.0162017532 -0.1134528 0.006930854
v -0.0141590778 -0.115657307 0.007036988
v -0.0141019747 -0.115718931 0.004154536
v -0.0161603112 -0.113497525 0.00373370713
v -0.014313424 -0.115490735 0.001344542
v -0.01651497 -0.113114767 0.0005788412
v -0.0147685632 -0.114999533 -0.00131899025
v -0.01731004 -0.112256706 -0.00260215532
v -0.0155373253 -0.114169866 -0.00409759954
v -0.0178809017 -0.111640625 -0.00414141361
v -0.0106683876 -0.119424552 -0.00377464946
v -0.016475914 -0.113156922 -0.00647158828
v -0.0185650066 -0.110902317 -0.00561095029
v -0.0176584385 -0.111880712 -0.008699992
v -0.0193559229 -0.110048741 -0.006984393
v -0.01906756 -0.110359952 -0.0107042966
v -0.0202435 -0.10909085 -0.008237339
v -0.021214284 -0.108043149 -0.009348708
v -0.0206707343 -0.108629763 -0.0124132829
v -0.0222521611 -0.106923051 -0.0103019541
v -0.0224223472 -0.106739379 -0.01377071
v -0.0233392436 -0.105749846 -0.011085826
v -0.0244568735 -0.104543671 -0.0116947582
v -0.0242679343 -0.104747579 -0.014741336
v -0.0267110243 -0.10211093 -0.0123931533
v -0.02614967 -0.102716759 -0.0153137958
v -0.0280120373 -0.100706846 -0.0155000007
v -0.0293758381 -0.099235 -0.0224279165
v -0.0283323638 -0.100361146 -0.021996174
v -0.03036603 -0.09816636 -0.0217790939
v -0.0276953056 -0.101048671 -0.022495769
v -0.03104543 -0.0974331349 -0.02213817
v -0.0258049779 -0.103088759 -0.021801997
v -0.0259611122 -0.102920257 -0.0223321021
v -0.0241941474 -0.10482721 -0.0219167061
v -0.02324299 -0.105853721 -0.0210678317
v -0.022418879 -0.106743127 -0.0212346241
v -0.0328479 -0.09548786 -0.0210502185
v -0.032745406 -0.09559848 -0.0216079354
v -0.0344531164 -0.0937554762 -0.0208216347
v -0.0353110358 -0.0928295851 -0.0197796561
v -0.036142882 -0.0919318348 -0.01976969
v -0.0207264517 -0.108569637 -0.0197737627
v -0.0206626 -0.10863854 -0.0202777237
v -0.0189543255 -0.110482156 -0.01904593
v -0.01833941 -0.111145787 -0.0179345682
v -0.0173233747 -0.112242319 -0.0175479725
v -0.0376742668 -0.09027913 -0.01796471
v -0.0377868935 -0.09015758 -0.0184498355
v -0.0393564329 -0.0884636939 -0.0168681554
v -0.0398558825 -0.0879246742 -0.0156378448
v -0.0408233479 -0.0868805647 -0.0150395269
v -0.0161611512 -0.113496616 -0.0156008964
v -0.0157978628 -0.113888688 -0.01580153
v -0.01440309 -0.115393959 -0.0138326185
v -0.0142576862 -0.115550891 -0.0128548956
v -0.0131602269 -0.116735294 -0.0116743511
v -0.012675235 -0.117258705 -0.00980087649
v -0.0120852068 -0.117895484 -0.009365081
v -0.0417823866 -0.0858455449 -0.0128660193
v -0.0421615541 -0.08543634 -0.0129874
v -0.043348562 -0.0841552839 -0.0107429074
v -0.0433965325 -0.08410352 -0.009744546
v -0.04436668 -0.08305651 -0.008343293
v -0.044662796 -0.08273693 -0.00638644677
v -0.04520389 -0.08215297 -0.005829907
v -0.011437146 -0.118594885 -0.00655325968
v -0.0455693156 -0.08175859 -0.00290990528
v -0.011188142 -0.11886362 -0.00694624428
v -0.0458542667 -0.0814510658 -0.00324589666
v -0.01047316 -0.119635239 -0.0044600945
v -0.0461091921 -0.08117595 -0.0019408213
v -0.009938741 -0.120212 -0.00194753427
v -0.0100129023 -0.120131969 -0.000178098679
v -0.00957835652 -0.120600939 0.000553640537
v -0.009695772 -0.120474219 0.0036337385
v -0.009381421 -0.120813474 0.0030101114
v -0.009335304 -0.120863244 0.00548268063
v -0.009754611 -0.120410718 0.007554993
v -0.009446545 -0.120743193 0.00803419948
v -0.009728877 -0.120438494 0.01063394
v -0.0102058444 -0.119923741 0.0114635006
v -0.0101924688 -0.119938172 0.0132458955
v -0.0110412166 -0.119022176 0.0152326571
v -0.0108428448 -0.119236268 0.0158299077
v -0.011680061 -0.118332729 0.0183432959
v -0.0122280437 -0.117741331 0.0187447239
v -0.0126981772 -0.117233947 0.0207429081
v -0.0137131717 -0.11613854 0.0219027735
v -0.0138851851 -0.1159529 0.022987403
v -0.0152233876 -0.114508674 0.0250395276
v -0.0166903045 -0.112925544 0.0268681534
v -0.016988406 -0.112603828 0.0265731439
v -0.01825985 -0.111231655 0.0284498334
v -0.01911068 -0.110313416 0.0286017545
v -0.019903861 -0.109457396 0.0297696926
v -0.0214766711 -0.107759975 0.0302234329
v -0.0215936229 -0.107633762 0.0308216326
v -0.0233013351 -0.105790757 0.03160793
v -0.0240295716 -0.105004825 0.0313528366
v -0.02500131 -0.103956096 0.03213817
v -0.0266954917 -0.102127694 0.03192923
v -0.0266709011 -0.102154233 0.0324279144
v -0.0283514336 -0.10034056 0.0324957669
v -0.0293900389 -0.09921967 0.0319250263
v -0.030085627 -0.09846898 0.0323321037
v -0.0320270061 -0.0963738 0.0313496031
v -0.03185259 -0.09656202 0.031916704
v -0.03362786 -0.09464611 0.0312346257
v -0.0345273167 -0.0936754 0.0302473642
v -0.03538414 -0.09275069 0.0302777216
v -0.0368263759 -0.09119419 0.0286906958
v -0.0370924175 -0.0909070745 0.0290459283
v -0.0387233645 -0.08914692 0.0275479741
v -0.04024888 -0.08750054 0.0258015282
v -0.04052549 -0.08720201 0.0247647874
v -0.04164365 -0.08599527 0.02383262
v -0.04230489 -0.08528165 0.0219552014
v -0.04288651 -0.0846539438 0.02167435
v -0.0438238271 -0.08364236 0.0187319554
v -0.04396153 -0.0834937543 0.01936508
v -0.0448585972 -0.08252562 0.016946245
v -0.0450202227 -0.08235119 0.0151796751
v -0.0455735773 -0.08175399 0.0144600924
v -0.0458501652 -0.08145549 0.011407922
v -0.046108 -0.0811772346 0.011947534
v -0.0464683846 -0.0807883 0.009446357
v -0.04629308 -0.08097749 0.00754022552
v -0.04666532 -0.0805757642 0.00698988745
v -0.0467114374 -0.0805259943 0.004517318
v -0.0463532247 -0.08091258 0.0037009567
v -0.0466001928 -0.08064604 0.00196580123
v -0.04631786 -0.0809507445 -0.000633941963
v -0.0427423865 -0.0995225 -0.0123846708
v -0.0415716954 -0.100785933 -0.009922626
v -0.0425704941 -0.0997080058 -0.008916101
v -0.0405255072 -0.101915009 -0.0107625267
v -0.0443424881 -0.09779563 -0.0106694745
v -0.04101135 -0.101390675 -0.01373708
v -0.0435039848 -0.09870056 -0.00775242876
v -0.0383634754 -0.10424833 -0.01193232
v -0.0392054766 -0.10333962 -0.0147031611
v -0.0457612164 -0.0962645 -0.008637923
v -0.044355575 -0.09778151 -0.006446532
v -0.04511094 -0.0969663 -0.0050182147
v -0.0469589531 -0.09497187 -0.00635535363
v -0.0457588322 -0.0962670743 -0.00349118933
v -0.04791048 -0.09394496 -0.003899158
v -0.0462916046 -0.09569209 -0.00189175922
v -0.0373808779 -0.105308771 -0.0152829206
v -0.0486063436 -0.09319396 -0.00135070458
v -0.0362192057 -0.106562473 -0.0124541288
v -0.04670548 -0.09524543 -0.000247388147
v -0.0367110148 -0.106031708 -0.0224279165
v -0.0377012044 -0.104963064 -0.0217790939
v -0.04909446 -0.09266718 0.00156206731
v -0.04718016 -0.09473314 0.0030691456
v -0.0492835343 -0.09246313 0.00429436238
v -0.0472216 -0.0946884155 0.00626629172
v -0.0492170975 -0.0925348252 0.007119837
v -0.05339261 -0.0880285054 2.86567956E-06
v -0.0468669459 -0.0950711742 0.009421158
v -0.04887782 -0.092900984 0.009959978
v -0.04826356 -0.09356391 0.0127290124
v -0.0460718721 -0.0959292352 0.012602156
v -0.04738877 -0.09450801 0.0153420065
v -0.0455010124 -0.09654532 0.0141414134
v -0.0462834239 -0.09570092 0.01772334
v -0.0448169075 -0.0972836241 0.0156109491
v -0.0440259948 -0.0981372 0.0169843938
v -0.04498977 -0.09709707 0.0198138151
v -0.0431384146 -0.09909509 0.0182373356
v -0.0435574651 -0.09864284 0.0215750448
v -0.04216763 -0.100142792 0.01934871
v -0.041129753 -0.10126289 0.020301953
v -0.0418254733 -0.10051205 0.0231581554
v -0.0400426723 -0.102436095 0.0210858248
v -0.0458935462 -0.09612168 0.0271075852
v -0.0401177332 -0.102355093 0.0242670532
v -0.03892504 -0.10364227 0.02169476
v -0.0382708 -0.104348347 0.0250472073
v -0.03667089 -0.106075011 0.0223931558
v -0.0363300741 -0.106442824 0.0254501067
v -0.0344978832 -0.108420171 0.0224541277
v -0.034350343 -0.108579405 0.0254462641
v -0.0323909633 -0.110694014 0.0250296369
v -0.0323536135 -0.110734321 0.0219323188
v -0.0305100847 -0.1127239 0.02421881
v -0.0301915817 -0.113067642 0.02076253
v -0.02875903 -0.114613682 0.0230545979
v -0.0291453935 -0.11419671 0.0199226215
v -0.02717796 -0.116320014 0.0215946436
v -0.0281465966 -0.115274638 0.0189160965
v -0.02561941 -0.118002042 0.01966029
v -0.0272131059 -0.116282083 0.0177524276
v -0.0263615157 -0.117201142 0.016446529
v -0.02437489 -0.119345158 0.01761333
v -0.0256061517 -0.118016347 0.0150182135
v -0.0227650348 -0.121082552 0.02463879
v -0.02329986 -0.120505363 0.0152700171
v -0.0249582566 -0.118715577 0.0134911882
v -0.02442548 -0.11929056 0.011891759
v -0.0224397127 -0.121433645 0.0126788821
v -0.0240116045 -0.119737223 0.0102473879
v -0.0218304209 -0.122091211 0.009907473
v -0.023536928 -0.12024951 0.006930854
v -0.0214942526 -0.122454017 0.007036988
v -0.02143715 -0.122515641 0.004154536
v -0.023495486 -0.120294228 0.00373370713
v -0.0216485988 -0.122287437 0.001344542
v -0.0238501448 -0.119911477 0.0005788412
v -0.022103738 -0.121796243 -0.00131899025
v -0.0246452149 -0.119053416 -0.00260215532
v -0.0228725 -0.120966576 -0.00409759954
v -0.0252160765 -0.118437327 -0.00414141361
v -0.0180035625 -0.126221254 -0.00377464946
v -0.0238110889 -0.119953625 -0.00647158828
v -0.0259001814 -0.117699027 -0.00561095029
v -0.0249936152 -0.118677415 -0.008699992
v -0.0266910978 -0.116845451 -0.006984393
v -0.0264027361 -0.117156655 -0.0107042966
v -0.0275786743 -0.115887552 -0.008237339
v -0.0285494588 -0.114839859 -0.009348708
v -0.02800591 -0.115426473 -0.0124132829
v -0.0295873359 -0.113719761 -0.0103019541
v -0.029757522 -0.11353609 -0.01377071
v -0.0306744184 -0.112546548 -0.011085826
v -0.03179205 -0.111340374 -0.0116947582
v -0.03160311 -0.111544281 -0.014741336
v -0.0340462 -0.10890764 -0.0123931533
v -0.0334848464 -0.109513469 -0.0153137958
v -0.0353472121 -0.107503556 -0.0155000007
v -0.03566754 -0.107157849 -0.021996174
v -0.03503048 -0.107845381 -0.022495769
v -0.0331401527 -0.109885469 -0.021801997
v -0.0332962871 -0.109716959 -0.0223321021
v -0.0315293223 -0.111623921 -0.0219167061
v -0.0305781644 -0.112650432 -0.0210678317
v -0.0297540538 -0.11353983 -0.0212346241
v -0.0280616265 -0.11536634 -0.0197737627
v -0.027997775 -0.11543525 -0.0202777237
v -0.0262895 -0.117278866 -0.01904593
v -0.0256745871 -0.1179425 -0.0179345682
v -0.02465855 -0.119039029 -0.0175479725
v -0.0234963261 -0.120293327 -0.0156008964
v -0.0231330376 -0.1206854 -0.01580153
v -0.0217382647 -0.122190669 -0.0138326185
v -0.021592861 -0.122347593 -0.0128548956
v -0.0204954017 -0.123532 -0.0116743511
v -0.02001041 -0.124055415 -0.00980087649
v -0.0194203816 -0.124692187 -0.009365081
v -0.01877232 -0.125391588 -0.00655325968
v -0.0185233168 -0.12566033 -0.00694624428
v -0.0181430336 -0.126070738 -0.005708971
v -0.0178083349 -0.126431942 -0.0044600945
v -0.0172739159 -0.1270087 -0.00194753427
v -0.0173480771 -0.126928672 -0.000178098679
v -0.0169135313 -0.127397642 0.000553640537
v -0.0170309469 -0.127270922 0.0036337385
v -0.0167165957 -0.127610177 0.0030101114
v -0.01667048 -0.127659947 0.00548268063
v -0.017089786 -0.127207428 0.007554993
v -0.01678172 -0.1275399 0.00803419948
v -0.0170640517 -0.1272352 0.01063394
v -0.01754102 -0.126720443 0.0114635006
v -0.0175276436 -0.126734883 0.0132458955
v -0.0183763914 -0.125818878 0.0152326571
v -0.01817802 -0.126032978 0.0158299077
v -0.0190152358 -0.125129431 0.0183432959
v -0.0195632186 -0.124538034 0.0187447239
v -0.0200333521 -0.124030657 0.0207429081
v -0.0210483465 -0.12293525 0.0219027735
v -0.02122036 -0.122749604 0.022987403
v -0.0225585625 -0.121305384 0.0250395276
v -0.02402548 -0.119722247 0.0268681534
v -0.02432358 -0.119400531 0.0265731439
v -0.0255950242 -0.118028358 0.0284498334
v -0.0264458545 -0.117110118 0.0286017545
v -0.0272390358 -0.1162541 0.0297696926
v -0.0288118459 -0.114556685 0.0302234329
v -0.0289287977 -0.114430465 0.0308216326
v -0.03063651 -0.112587459 0.03160793
v -0.0313647464 -0.111801527 0.0313528366
v -0.0323364846 -0.110752806 0.03213817
v -0.03403067 -0.108924404 0.03192923
v -0.0340060778 -0.108950943 0.0324279144
v -0.03568661 -0.10713727 0.0324957669
v -0.0367252156 -0.106016383 0.0319250263
v -0.0374208 -0.105265684 0.0323321037
v -0.03936218 -0.1031705 0.0313496031
v -0.0391877666 -0.103358731 0.031916704
v -0.04096304 -0.101442814 0.0312346257
v -0.0418624878 -0.1004721 0.0302473642
v -0.042719312 -0.09954739 0.0302777216
v -0.04416155 -0.0979909 0.0286906958
v -0.04442759 -0.0977037847 0.0290459283
v -0.0460585356 -0.09594362 0.0275479741
v -0.04758405 -0.09429725 0.0258015282
v -0.0478606671 -0.09399872 0.0247647874
v -0.0489788242 -0.09279198 0.02383262
v -0.04964006 -0.09207836 0.0219552014
v -0.05022169 -0.09145065 0.02167435
v -0.0511590019 -0.0904390737 0.0187319554
v -0.0512967035 -0.0902904645 0.01936508
v -0.052193772 -0.08932233 0.016946245
v -0.0523553938 -0.0891478956 0.0151796751
v -0.0529087558 -0.0885507 0.0144600924
v -0.0531853437 -0.0882522 0.011407922
v -0.05344317 -0.08797394 0.011947534
v -0.0538035557 -0.087585 0.009446357
v -0.0536282547 -0.0877741948 0.00754022552
v -0.0540004931 -0.08737247 0.00698988745
v -0.05404661 -0.0873227 0.004517318
v -0.0536884 -0.0877092853 0.0037009567
v -0.05393537 -0.08744275 0.00196580123
v -0.05365304 -0.08774745 -0.000633941963
v -0.0529044941 -0.0885553 -0.00290990528
v -0.05318944 -0.088247776 -0.00324589666
v -0.0525390655 -0.08894967 -0.005829907
v -0.0519979671 -0.08953364 -0.00638644677
v -0.05170185 -0.08985321 -0.008343293
v -0.0507317036 -0.09090023 -0.009744546
v -0.0506837368 -0.0909519941 -0.0107429074
v -0.0491175577 -0.09264225 -0.0128660193
v -0.04949673 -0.09223304 -0.0129874
v -0.0481585227 -0.09367727 -0.0150395269
v -0.0471910536 -0.0947213843 -0.0156378448
v -0.04669161 -0.0952604 -0.0168681554
v -0.04500944 -0.0970758349 -0.01796471
v -0.0451220647 -0.0969542861 -0.0184498355
v -0.0434780568 -0.098728545 -0.01976969
v -0.04264621 -0.0996262953 -0.0197796561
v -0.04178829 -0.100552179 -0.0208216347
v -0.0401830748 -0.102284573 -0.0210502185
v -0.04008058 -0.102395184 -0.0216079354
v -0.0383806042 -0.104229845 -0.02213817
f 1 2 3
f 4 1 3
f 1 4 5
f 4 3 6
f 4 7 5
f 8 4 6
f 4 8 7
f 8 6 9
f 8 10 7
f 11 8 9
f 8 11 10
f 11 9 12
f 11 13 10
f 11 12 14
f 11 15 13
f 15 11 14
f 15 16 13
f 15 14 17
f 15 18 16
f 18 15 17
f 18 19 16
f 18 17 20
f 18 21 19
f 21 18 20
f 21 22 19
f 21 23 22
f 21 20 24
f 23 21 24
f 23 25 22
f 23 24 26
f 23 27 25
f 23 26 28
f 23 29 27
f 29 23 28
f 29 30 27
f 29 28 31
f 29 32 30
f 32 29 31
f 32 33 30
f 32 31 34
f 32 35 33
f 35 32 34
f 35 36 33
f 35 34 37
f 35 38 36
f 38 35 37
f 38 39 36
f 38 37 40
f 38 41 39
f 41 38 40
f 41 42 39
f 41 40 43
f 41 44 42
f 44 41 43
f 44 45 42
f 44 46 45
f 44 43 47
f 46 44 47
f 46 48 45
f 46 47 49
f 46 50 48
f 46 49 51
f 46 52 50
f 52 46 51
f 52 53 50
f 52 51 54
f 52 55 53
f 55 52 54
f 55 56 53
f 55 54 57
f 55 58 56
f 58 55 57
f 58 59 56
f 58 57 60
f 59 58 61
f 58 60 61
f 59 61 62
f 62 61 60
f 63 59 62
f 64 62 60
f 63 62 65
f 65 62 64
f 66 63 65
f 67 65 64
f 66 65 68
f 68 65 67
f 69 66 68
f 70 68 67
f 69 68 71
f 71 68 70
f 72 69 71
f 73 71 70
f 72 71 74
f 74 71 73
f 75 72 74
f 76 74 73
f 75 74 77
f 77 74 76
f 78 75 77
f 79 77 76
f 80 78 77
f 80 77 79
f 80 81 78
f 81 80 79
f 81 82 78
f 81 79 83
f 81 84 82
f 84 81 83
f 84 85 82
f 84 83 86
f 84 87 85
f 87 84 86
f 87 88 85
f 87 86 89
f 87 90 88
f 90 87 89
f 90 91 88
f 90 89 92
f 90 93 91
f 93 90 92
f 93 94 91
f 93 92 95
f 93 96 94
f 96 93 95
f 94 96 97
f 96 95 98
f 96 98 97
f 98 99 100
f 99 101 100
f 100 101 102
f 99 103 101
f 101 104 102
f 103 105 101
f 101 105 104
f 103 106 105
f 105 107 104
f 106 108 105
f 105 108 107
f 106 109 108
f 108 110 107
f 109 111 108
f 108 111 110
f 109 112 111
f 111 113 110
f 112 114 111
f 111 114 113
f 112 115 114
f 114 116 113
f 115 117 114
f 114 117 116
f 115 118 117
f 118 119 117
f 117 120 116
f 117 119 120
f 118 121 119
f 119 122 120
f 121 123 119
f 119 124 122
f 123 125 119
f 119 125 124
f 123 126 125
f 125 127 124
f 126 128 125
f 125 128 127
f 126 129 128
f 128 130 127
f 129 131 128
f 128 131 130
f 129 132 131
f 131 133 130
f 132 134 131
f 131 134 133
f 132 135 134
f 134 136 133
f 135 137 134
f 134 137 136
f 135 138 137
f 137 139 136
f 138 140 137
f 137 140 139
f 138 141 140
f 141 142 140
f 140 143 139
f 140 142 143
f 141 144 142
f 142 145 143
f 144 146 142
f 142 147 145
f 146 148 142
f 142 148 147
f 146 149 148
f 148 150 147
f 149 151 148
f 148 151 150
f 149 152 151
f 151 153 150
f 152 154 151
f 151 154 153
f 152 155 154
f 154 156 153
f 155 157 154
f 154 157 156
f 155 158 157
f 158 156 157
f 158 155 159
f 158 160 156
f 161 158 159
f 158 161 160
f 161 159 162
f 161 163 160
f 164 161 162
f 161 164 163
f 164 162 165
f 164 166 163
f 167 164 165
f 164 167 166
f 167 165 168
f 167 169 166
f 170 167 168
f 167 170 169
f 170 168 171
f 170 172 169
f 173 170 171
f 170 173 172
f 173 171 174
f 173 175 172
f 176 173 174
f 173 176 175
f 176 174 177
f 176 177 175
f 174 178 177
f 179 175 177
f 178 180 177
f 179 177 180
f 178 181 180
f 182 179 180
f 181 183 180
f 182 180 183
f 181 184 183
f 185 182 183
f 184 186 183
f 185 183 186
f 184 187 186
f 188 185 186
f 187 189 186
f 188 186 189
f 187 190 189
f 191 188 189
f 190 192 189
f 191 189 192
f 190 193 192
f 194 191 192
f 193 194 192
f 195 196 197
f 198 195 197
f 195 198 199
f 198 197 200
f 198 201 199
f 202 198 200
f 198 202 201
f 202 200 203
f 202 204 201
f 205 202 203
f 202 205 204
f 205 203 206
f 205 207 204
f 208 205 206
f 205 208 207
f 208 206 209
f 208 210 207
f 211 208 209
f 208 211 210
f 211 209 212
f 211 213 210
f 214 211 212
f 211 214 213
f 214 212 215
f 216 214 215
f 214 217 213
f 214 216 217
f 216 215 218
f 216 219 217
f 216 218 220
f 216 221 219
f 222 216 220
f 216 222 221
f 222 220 223
f 222 224 221
f 225 222 223
f 222 225 224
f 225 223 226
f 225 227 224
f 228 225 226
f 225 228 227
f 228 226 229
f 228 230 227
f 231 228 229
f 228 231 230
f 231 229 232
f 231 233 230
f 234 231 232
f 231 234 233
f 234 232 235
f 234 236 233
f 237 234 235
f 234 237 236
f 237 235 238
f 239 237 238
f 237 240 236
f 237 239 240
f 239 238 241
f 239 242 240
f 239 241 243
f 239 244 242
f 245 239 243
f 239 245 244
f 245 243 246
f 245 247 244
f 248 245 246
f 245 248 247
f 248 246 249
f 248 250 247
f 251 248 249
f 248 251 250
f 251 249 252
f 251 253 250
f 251 252 254
f 253 251 254
f 255 254 252
f 253 254 255
f 256 255 252
f 257 253 255
f 258 255 256
f 257 255 258
f 259 258 256
f 260 257 258
f 261 258 259
f 260 258 261
f 262 261 259
f 263 260 261
f 264 261 262
f 263 261 264
f 265 264 262
f 266 263 264
f 267 264 265
f 266 264 267
f 268 267 265
f 269 266 267
f 270 267 268
f 269 267 270
f 271 270 268
f 272 269 270
f 273 270 271
f 273 272 270
f 274 273 271
f 273 274 272
f 274 271 275
f 274 276 272
f 277 274 275
f 274 277 276
f 277 275 278
f 277 279 276
f 280 277 278
f 277 280 279
f 280 278 281
f 280 282 279
f 283 280 281
f 280 283 282
f 283 281 284
f 283 285 282
f 286 283 284
f 283 286 285
f 286 284 287
f 286 288 285
f 289 286 287
f 286 289 288
f 289 287 290
f 288 289 291
f 289 290 291
f 290 292 291
f 292 293 291
f 291 293 294
f 292 295 293
f 293 296 294
f 295 297 293
f 293 297 296
f 295 298 297
f 297 299 296
f 298 300 297
f 297 300 299
f 298 301 300
f 300 302 299
f 301 303 300
f 300 303 302
f 301 304 303
f 303 305 302
f 304 306 303
f 303 306 305
f 304 307 306
f 306 308 305
f 307 309 306
f 306 309 308
f 307 310 309
f 310 311 309
f 309 312 308
f 309 311 312
f 310 313 311
f 311 314 312
f 313 315 311
f 311 316 314
f 315 317 311
f 311 317 316
f 315 318 317
f 317 319 316
f 318 320 317
f 317 320 319
f 318 321 320
f 320 322 319
f 321 323 320
f 320 323 322
f 321 324 323
f 323 325 322
f 324 326 323
f 323 326 325
f 324 327 326
f 326 328 325
f 327 329 326
f 326 329 328
f 327 330 329
f 329 331 328
f 330 332 329
f 329 332 331
f 330 333 332
f 333 334 332
f 332 335 331
f 332 334 335
f 333 336 334
f 334 337 335
f 336 338 334
f 334 339 337
f 338 340 334
f 334 340 339
f 338 341 340
f 340 342 339
f 341 343 340
f 340 343 342
f 341 344 343
f 343 345 342
f 344 346 343
f 343 346 345
f 344 347 346
f 346 348 345
f 347 349 346
f 346 349 348
f 347 350 349
f 350 348 349
f 350 347 351
f 350 352 348
f 353 350 351
f 350 353 352
f 353 351 354
f 353 355 352
f 356 353 354
f 353 356 355
f 356 354 357
f 356 358 355
f 359 356 357
f 356 359 358
f 359 357 360
f 359 361 358
f 362 359 360
f 359 362 361
f 362 360 363
f 362 364 361
f 365 362 363
f 362 365 364
f 365 363 366
f 365 367 364
f 368 365 366
f 365 368 367
f 368 366 369
f 368 369 367
f 366 370 369
f 371 367 369
f 370 372 369
f 371 369 372
f 370 373 372
f 374 371 372
f 373 375 372
f 374 372 375
f 373 376 375
f 377 374 375
f 376 378 375
f 377 375 378
f 376 379 378
f 380 377 378
f 379 381 378
f 380 378 381
f 379 382 381
f 383 380 381
f 382 384 381
f 383 381 384
f 382 385 384
f 386 383 384
f 385 386 384
f 387 388 389
f 390 387 389
f 387 390 391
f 390 389 392
f 390 393 391
f 394 390 392
f 390 394 393
f 394 392 395
f 394 396 393
f 397 394 395
f 394 397 396
f 397 395 398
f 397 399 396
f 400 397 398
f 397 400 399
f 400 398 401
f 400 402 399
f 403 400 401
f 400 403 402
f 403 401 404
f 403 405 402
f 406 403 404
f 403 406 405
f 406 404 407
f 408 406 407
f 406 409 405
f 406 408 409
f 408 407 410
f 408 411 409
f 408 410 412
f 408 413 411
f 414 408 412
f 408 414 413
f 414 412 415
f 414 416 413
f 417 414 415
f 414 417 416
f 417 415 418
f 417 419 416
f 420 417 418
f 417 420 419
f 420 418 421
f 420 422 419
f 423 420 421
f 420 423 422
f 423 421 424
f 423 425 422
f 426 423 424
f 423 426 425
f 426 424 427
f 426 428 425
f 429 426 427
f 426 429 428
f 429 427 430
f 431 429 430
f 429 432 428
f 429 431 432
f 431 430 433
f 431 434 432
f 431 433 435
f 431 436 434
f 437 431 435
f 431 437 436
f 437 435 438
f 437 439 436
f 440 437 438
f 437 440 439
f 440 438 441
f 440 442 439
f 443 440 441
f 440 443 442
f 443 441 444
f 443 445 442
f 443 444 446
f 445 443 446
f 447 446 444
f 445 446 447
f 448 447 444
f 449 445 447
f 450 447 448
f 449 447 450
f 451 450 448
f 452 449 450
f 453 450 451
f 452 450 453
f 454 453 451
f 455 452 453
f 456 453 454
f 455 453 456
f 457 456 454
f 458 455 456
f 459 456 457
f 458 456 459
f 460 459 457
f 461 458 459
f 462 459 460
f 461 459 462
f 463 462 460
f 464 461 462
f 465 462 463
f 465 464 462
f 466 465 463
f 465 466 464
f 466 463 467
f 466 468 464
f 469 466 467
f 466 469 468
f 469 467 470
f 469 471 468
f 472 469 470
f 469 472 471
f 472 470 473
f 472 474 471
f 475 472 473
f 472 475 474
f 475 473 476
f 475 477 474
f 478 475 476
f 475 478 477
f 478 476 479
f 478 480 477
f 481 478 479
f 478 481 480
f 480 481 482
f 481 479 483
f 481 483 482
f 483 484 485
f 484 486 485
f 485 486 487
f 484 488 486
f 486 489 487
f 488 490 486
f 486 490 489
f 488 491 490
f 490 492 489
f 491 493 490
f 490 493 492
f 491 494 493
f 493 495 492
f 494 496 493
f 493 497 495
f 496 497 493
f 497 498 495
f 496 499 497
f 497 500 498
f 499 500 497
f 500 501 498
f 499 502 500
f 500 503 501
f 502 503 500
f 503 504 501
f 503 505 504
f 502 506 503
f 506 505 503
f 505 507 504
f 506 508 505
f 505 509 507
f 508 510 505
f 505 511 509
f 510 511 505
f 511 512 509
f 510 513 511
f 511 514 512
f 513 514 511
f 514 515 512
f 513 516 514
f 514 517 515
f 516 517 514
f 517 518 515
f 516 519 517
f 517 520 518
f 519 520 517
f 520 521 518
f 519 522 520
f 520 523 521
f 522 523 520
f 523 524 521
f 522 525 523
f 523 526 524
f 525 526 523
f 526 527 524
f 526 528 527
f 525 529 526
f 529 528 526
f 528 530 527
f 529 531 528
f 528 532 530
f 531 533 528
f 528 534 532
f 533 534 528
f 534 535 532
f 533 536 534
f 534 537 535
f 536 537 534
f 537 538 535
f 536 539 537
f 537 540 538
f 539 540 537
f 540 541 538
f 539 542 540
f 540 543 541
f 542 543 540
f 544 541 543
f 542 544 543
f 544 545 541
f 544 542 546
f 544 547 545
f 547 544 546
f 547 548 545
f 547 546 549
f 547 550 548
f 550 547 549
f 550 551 548
f 550 549 552
f 550 553 551
f 553 550 552
f 553 554 551
f 553 552 555
f 553 556 554
f 556 553 555
f 556 557 554
f 556 555 558
f 556 559 557
f 559 556 558
f 559 560 557
f 559 558 561
f 559 562 560
f 562 559 561
f 562 563 560
f 562 561 563
f 564 560 563
f 561 565 563
f 564 563 566
f 565 566 563
f 567 564 566
f 565 568 566
f 567 566 569
f 568 569 566
f 570 567 569
f 568 571 569
f 570 569 572
f 571 572 569
f 573 570 572
f 571 574 572
f 573 572 575
f 574 575 572
f 576 573 575
f 574 577 575
f 576 575 578
f 577 578 575
f 579 576 578
f 577 580 578
f 580 579 578
f 581 582 583
f 581 583 584
f 582 581 585
f 585 581 584
f 586 587 588
f 586 589 587
f 589 586 590
f 586 591 590
f 592 586 588
f 586 592 591
f 592 588 593
f 592 594 591
f 595 592 593
f 592 595 594
f 595 593 596
f 595 597 594
f 598 595 596
f 595 598 597
f 598 596 599
f 598 600 597
f 601 598 599
f 598 601 600
f 601 599 602
f 601 603 600
f 604 601 602
f 601 604 603
f 604 602 605
f 604 606 603
f 607 604 605
f 604 607 606
f 607 605 608
f 607 609 606
f 610 607 608
f 607 610 609
f 611 612 613
f 611 613 614
f 612 611 615
f 615 611 614
f 616 617 618
f 616 619 617
f 619 616 620
f 616 621 620
f 622 616 618
f 616 622 621
f 622 618 623
f 622 624 621
f 625 622 623
f 622 625 624
f 625 623 626
f 625 627 624
f 628 625 626
f 625 628 627
f 628 626 629
f 628 630 627
f 631 628 629
f 628 631 630
f 631 629 632
f 631 633 630
f 634 631 632
f 631 634 633
f 634 632 635
f 634 636 633
f 637 634 635
f 634 637 636
f 637 635 638
f 637 639 636
f 640 637 638
f 637 640 639
f 641 642 643
f 641 644 642
f 644 641 645
f 641 646 645
f 647 641 643
f 641 647 646
f 647 643 648
f 647 649 646
f 650 647 648
f 647 650 649
f 650 648 651
f 650 652 649
f 653 650 651
f 650 653 652
f 653 651 654
f 653 655 652
f 656 653 654
f 653 656 655
f 656 654 657
f 656 658 655
f 659 656 657
f 656 659 658
f 659 657 660
f 659 661 658
f 662 659 660
f 659 662 661
f 662 660 663
f 662 664 661
f 665 662 663
f 662 665 664
f 666 667 668
f 666 668 669
f 667 666 670
f 670 666 669
f 671 672 673
f 671 674 672
f 674 671 675
f 671 676 675
f 677 671 673
f 671 677 676
f 677 673 678
f 677 679 676
f 680 677 678
f 677 680 679
f 680 678 681
f 680 682 679
f 683 680 681
f 680 683 682
f 683 681 684
f 683 685 682
f 686 683 684
f 683 686 685
f 686 684 687
f 686 688 685
f 689 686 687
f 686 689 688
f 689 687 690
f 689 691 688
f 692 689 690
f 689 692 691
f 692 690 693
f 692 694 691
f 695 692 693
f 692 695 694
f 696 697 698
f 696 698 699
f 697 696 700
f 700 696 699
f 701 702 703
f 701 703 704
f 702 701 705
f 705 701 704
f 706 707 708
f 706 709 707
f 709 706 710
f 706 711 710
f 712 706 708
f 706 712 711
f 712 708 713
f 712 714 711
f 715 712 713
f 712 715 714
f 715 713 716
f 715 717 714
f 718 715 716
f 715 718 717
f 718 716 719
f 718 720 717
f 721 718 719
f 718 721 720
f 721 719 722
f 721 723 720
f 724 721 722
f 721 724 723
f 724 722 725
f 724 726 723
f 727 724 725
f 724 727 726
f 727 725 728
f 727 729 726
f 730 727 728
f 727 730 729
f 731 732 733
f 731 733 734
f 732 731 735
f 735 731 734
f 736 737 738
f 736 739 737
f 739 736 740
f 736 741 740
f 742 736 738
f 736 742 741
f 742 738 743
f 742 744 741
f 745 742 743
f 742 745 744
f 745 743 746
f 745 747 744
f 748 745 746
f 745 748 747
f 748 746 749
f 748 750 747
f 751 748 749
f 748 751 750
f 751 749 752
f 751 753 750
f 754 751 752
f 751 754 753
f 754 752 755
f 754 756 753
f 757 754 755
f 754 757 756
f 757 755 758
f 757 759 756
f 760 757 758
f 757 760 759
f 761 762 763
f 761 763 764
f 762 761 765
f 765 761 764
f 766 767 768
f 766 769 767
f 769 766 770
f 766 771 770
f 772 766 768
f 766 772 771
f 772 768 773
f 772 774 771
f 775 772 773
f 772 775 774
f 775 773 776
f 775 777 774
f 778 775 776
f 775 778 777
f 778 776 779
f 778 780 777
f 781 778 779
f 778 781 780
f 781 779 782
f 781 783 780
f 784 781 782
f 781 784 783
f 784 782 785
f 784 786 783
f 787 784 785
f 784 787 786
f 787 785 788
f 787 789 786
f 790 787 788
f 787 790 789
f 791 792 793
f 791 793 794
f 792 791 795
f 795 791 794
f 796 797 798
f 796 799 797
f 799 796 800
f 796 801 800
f 802 796 798
f 796 802 801
f 802 798 803
f 802 804 801
f 805 802 803
f 802 805 804
f 805 803 806
f 805 807 804
f 808 805 806
f 805 808 807
f 808 806 809
f 808 810 807
f 811 808 809
f 808 811 810
f 811 809 812
f 811 813 810
f 814 811 812
f 811 814 813
f 814 812 815
f 814 816 813
f 817 814 815
f 814 817 816
f 817 815 818
f 817 819 816
f 820 817 818
f 817 820 819
f 821 822 823
f 821 823 824
f 822 821 825
f 825 821 824
f 826 827 828
f 826 829 827
f 829 826 830
f 826 831 830
f 832 826 828
f 826 832 831
f 832 828 833
f 832 834 831
f 835 832 833
f 832 835 834
f 835 833 836
f 835 837 834
f 838 835 836
f 835 838 837
f 838 836 839
f 838 840 837
f 841 838 839
f 838 841 840
f 841 839 842
f 841 843 840
f 844 841 842
f 841 844 843
f 844 842 845
f 844 846 843
f 847 844 845
f 844 847 846
f 847 845 848
f 847 849 846
f 850 847 848
f 847 850 849
f 851 852 853
f 851 853 854
f 852 851 855
f 855 851 854
f 856 857 858
f 856 859 857
f 859 856 860
f 856 861 860
f 862 856 858
f 856 862 861
f 862 858 863
f 862 864 861
f 865 862 863
f 862 865 864
f 865 863 866
f 865 867 864
f 868 865 866
f 865 868 867
f 868 866 869
f 868 870 867
f 871 868 869
f 868 871 870
f 871 869 872
f 871 873 870
f 874 871 872
f 871 874 873
f 874 872 875
f 874 876 873
f 877 874 875
f 874 877 876
f 877 875 878
f 877 879 876
f 880 877 878
f 877 880 879
f 881 882 883
f 884 881 883
f 884 883 885
f 881 886 882
f 884 885 887
f 881 888 886
f 888 889 886
f 890 884 887
f 890 887 891
f 892 890 891
f 892 891 893
f 892 893 894
f 888 895 889
f 889 895 896
f 897 892 894
f 897 894 898
f 899 897 898
f 899 898 900
f 901 899 900
f 901 900 902
f 895 888 903
f 888 904 903
f 895 903 905
f 895 905 896
f 888 881 904
f 881 906 904
f 881 907 906
f 881 884 907
f 884 908 907
f 884 909 908
f 884 890 909
f 890 910 909
f 890 892 910
f 892 911 910
f 892 912 911
f 892 897 912
f 897 913 912
f 897 899 913
f 899 914 913
f 899 901 914
f 901 915 914
f 901 916 915
f 916 901 902
f 916 917 915
f 916 902 917
f 915 917 918
f 902 919 917
f 917 920 918
f 919 920 917
f 921 918 920
f 919 921 920
f 921 922 918
f 921 919 923
f 921 924 922
f 924 921 923
f 924 925 922
f 924 923 926
f 924 927 925
f 927 924 926
f 927 928 925
f 927 926 929
f 927 930 928
f 930 927 929
f 930 931 928
f 930 932 931
f 930 929 933
f 932 930 933
f 932 934 931
f 932 933 935
f 932 936 934
f 932 935 937
f 932 938 936
f 938 932 937
f 938 939 936
f 938 937 940
f 938 941 939
f 941 938 940
f 941 942 939
f 941 940 943
f 941 944 942
f 944 941 943
f 944 945 942
f 944 943 946
f 944 947 945
f 947 944 946
f 947 948 945
f 947 946 949
f 947 950 948
f 950 947 949
f 950 951 948
f 950 949 951
f 952 948 951
f 949 953 951
f 953 952 951
f 954 896 905
f 955 954 905
f 954 956 896
f 954 955 957
f 956 954 957
f 958 957 955
f 956 957 958
f 958 955 959
f 960 956 958
f 961 958 959
f 958 961 960
f 961 959 962
f 961 963 960
f 964 961 962
f 961 964 963
f 964 962 965
f 964 966 963
f 967 964 965
f 964 967 966
f 967 965 968
f 969 967 968
f 967 970 966
f 967 969 970
f 969 968 971
f 969 972 970
f 969 971 973
f 969 974 972
f 975 969 973
f 969 975 974
f 975 973 976
f 975 977 974
f 978 975 976
f 975 978 977
f 978 976 979
f 978 980 977
f 981 978 979
f 978 981 980
f 981 979 982
f 981 983 980
f 984 981 982
f 981 984 983
f 984 982 985
f 984 986 983
f 987 984 985
f 984 987 986
f 987 985 988
f 987 988 986
f 985 989 988
f 986 988 990
f 989 991 988
f 988 991 990
f 989 992 991
f 992 990 991
f 992 989 993
f 992 994 990
f 995 992 993
f 992 995 994
f 995 993 996
f 995 997 994
f 998 995 996
f 995 998 997
f 998 996 999
f 1000 998 999
f 998 1001 997
f 998 1000 1001
f 1000 999 1002
f 1000 1003 1001
f 1000 1002 1004
f 1000 1005 1003
f 1006 1000 1004
f 1000 1006 1005
f 1006 1004 1007
f 1008 1006 1007
f 1006 1009 1005
f 1006 1008 1009
f 1008 1007 1010
f 1008 1011 1009
f 1008 1010 1012
f 1013 1008 1012
f 1008 1014 1011
f 1008 1013 1014
f 1013 1012 1015
f 1013 1016 1014
f 1017 1013 1015
f 1013 1018 1016
f 1019 1013 1017
f 1013 1019 1018
f 1020 1019 1017
f 1019 1021 1018
f 1022 1019 1020
f 1019 1022 1021
f 1023 1022 1020
f 1022 1024 1021
f 1022 1023 1024
f 1025 1026 1027
f 1025 1028 1026
f 1029 1025 1027
f 1025 1030 1028
f 1029 1027 1031
f 1030 1032 1028
f 1030 1033 1032
f 1033 1034 1032
f 1035 1029 1031
f 1035 1031 1036
f 1035 1036 1037
f 1038 1035 1037
f 1033 1039 1034
f 1037 1040 1038
f 1040 1041 1038
f 1040 1042 1041
f 1039 1043 1034
f 1042 1040 1044
f 1039 1045 1043
f 1045 1046 1043
f 1045 1047 1046
f 1047 1048 1046
f 1047 1049 1048
f 1050 1045 1039
f 1049 1051 1048
f 1049 1052 1051
f 1052 1053 1051
f 1053 1054 1051
f 1053 1055 1054
f 1055 1056 1054
f 1055 1057 1056
f 1057 1058 1056
f 1057 1059 1058
f 1057 1060 1059
f 1060 1061 1059
f 1060 1062 1061
f 1062 1063 1061
f 1062 1064 1063
f 1062 1065 1064
f 1065 1066 1064
f 1062 1067 1065
f 1065 1068 1066
f 1068 1069 1066
f 1068 1070 1069
f 1070 1071 1069
f 1070 1072 1071
f 1072 1073 1071
f 1072 1074 1073
f 1074 1075 1073
f 1075 1076 1073
f 1075 1077 1076
f 1077 1078 1076
f 1077 1079 1078
f 1079 1080 1078
f 1079 1081 1080
f 1081 1082 1080
f 1081 1083 1082
f 1083 1084 1082
f 1083 1085 1084
f 1083 1086 1085
f 1086 1087 1085
f 1088 1083 1081
f 1086 1089 1087
f 1089 1090 1087
f 1089 1091 1090
f 1089 1092 1091
f 1092 1093 1091
f 1092 1094 1093
f 1094 1095 1093
f 1095 1094 1096
f 1095 1096 1097
f 1098 1095 1097
f 1098 1097 1099
f 1100 1098 1099
f 1099 1101 1100
f 1101 1102 1100
f 1101 1103 1102
f 1103 1104 1102
f 1101 1105 1103
f 1103 1106 1104
f 1106 1107 1104
f 1106 1108 1107
f 1108 1109 1107
f 1108 1110 1109
f 1110 1111 1109
f 1110 1112 1111
f 1110 1113 1112
f 1113 1114 1112
f 1113 1115 1114
f 1115 1116 1114
f 1115 1117 1116
f 1115 1118 1117
f 1118 1119 1117
f 1119 1118 1120
f 1119 1120 1121
f 1044 1119 1121
f 1122 1044 1121
f 1042 1044 1122
f 1122 1121 1123
f 1124 1042 1122
f 1125 1122 1123
f 1124 1122 1126
f 1123 1127 1125
f 1127 1128 1125
f 1127 1129 1128
f 1127 1130 1129
f 1130 1131 1129
f 1132 1124 1126
f 1132 1126 1133
f 1132 1133 1134
f 1135 1132 1134
f 1135 1134 1136
f 1130 1137 1131
f 1137 1138 1131
f 1137 1139 1138
f 1137 1140 1139
f 1140 1141 1139
f 1142 1135 1136
f 1142 1136 1143
f 1142 1143 1144
f 1145 1142 1144
f 1145 1144 1146
f 1140 1147 1141
f 1147 1148 1141
f 1147 1149 1148
f 1147 1150 1149
f 1150 1151 1149
f 1150 1152 1151
f 1152 1153 1151
f 1154 1145 1146
f 1154 1146 1155
f 1154 1155 1156
f 1157 1154 1156
f 1157 1156 1158
f 1159 1157 1158
f 1159 1158 1160
f 1152 1161 1153
f 1162 1159 1160
f 1161 1163 1153
f 1162 1160 1164
f 1161 1165 1163
f 1162 1164 1166
f 1161 1105 1165
f 1105 1161 1103
f 1105 1167 1165
f 1105 1168 1167
f 1168 1169 1167
f 1168 1170 1169
f 1170 1171 1169
f 1170 1172 1171
f 1170 1173 1172
f 1173 1174 1172
f 1173 1175 1174
f 1173 1176 1175
f 1176 1177 1175
f 1176 1178 1177
f 1178 1179 1177
f 1178 1180 1179
f 1178 1181 1180
f 1181 1182 1180
f 1181 1183 1182
f 1183 1184 1182
f 1183 1088 1184
f 1088 1185 1184
f 1088 1186 1185
f 1088 1187 1186
f 1187 1088 1081
f 1187 1188 1186
f 1187 1189 1188
f 1189 1190 1188
f 1189 1191 1190
f 1191 1192 1190
f 1191 1193 1192
f 1191 1194 1193
f 1194 1195 1193
f 1194 1196 1195
f 1196 1197 1195
f 1196 1198 1197
f 1196 1199 1198
f 1199 1200 1198
f 1199 1201 1200
f 1201 1202 1200
f 1201 1203 1202
f 1201 1204 1203
f 1204 1205 1203
f 1204 1206 1205
f 1206 1207 1205
f 1206 1067 1207
f 1067 1206 1065
f 1067 1208 1207
f 1067 1209 1208
f 1067 1210 1209
f 1210 1211 1209
f 1210 1212 1211
f 1212 1213 1211
f 1212 1214 1213
f 1214 1215 1213
f 1214 1216 1215
f 1214 1217 1216
f 1217 1218 1216
f 1217 1219 1218
f 1219 1220 1218
f 1219 1221 1220
f 1219 1222 1221
f 1221 1222 1223
f 1222 1224 1223
f 1222 1225 1224
f 1225 1226 1224
f 1225 1050 1226
f 1050 1227 1226
f 1050 1166 1227
f 1050 1162 1166
f 1162 1050 1039
f 1228 1229 1230
f 1228 1231 1229
f 1232 1228 1230
f 1228 1233 1231
f 1232 1230 1234
f 1233 1235 1231
f 1235 1233 1236
f 1237 1232 1234
f 1237 1234 1238
f 1237 1238 1239
f 1240 1237 1239
f 1240 1239 1241
f 1242 1240 1241
f 1242 1241 1243
f 1235 1236 1244
f 1245 1242 1243
f 1246 1235 1244
f 1245 1243 1247
f 1248 1246 1244
f 1248 1244 1249
f 1250 1245 1247
f 1250 1247 1251
f 1252 1250 1251
f 1252 1251 1253
f 1254 1252 1253
f 1250 1255 1245
f 1254 1253 1256
f 1257 1254 1256
f 1258 1257 1256
f 1258 1256 1259
f 1260 1258 1259
f 1260 1259 1261
f 1262 1260 1261
f 1262 1261 1263
f 1262 1263 1264
f 1265 1262 1264
f 1265 1264 1266
f 1267 1265 1266
f 1267 1266 1268
f 1267 1268 1269
f 1270 1267 1269
f 1270 1269 1271
f 1272 1267 1270
f 1273 1270 1271
f 1273 1271 1274
f 1275 1273 1274
f 1275 1274 1276
f 1277 1275 1276
f 1277 1276 1278
f 1279 1277 1278
f 1280 1279 1278
f 1280 1278 1281
f 1282 1280 1281
f 1282 1281 1283
f 1284 1282 1283
f 1284 1283 1285
f 1286 1284 1285
f 1286 1285 1287
f 1288 1286 1287
f 1288 1287 1289
f 1288 1289 1290
f 1291 1288 1290
f 1291 1290 1292
f 1288 1293 1286
f 1294 1291 1292
f 1294 1292 1295
f 1294 1295 1296
f 1297 1294 1296
f 1297 1296 1298
f 1299 1297 1298
f 1298 1300 1299
f 1300 1301 1299
f 1300 1302 1301
f 1300 1303 1302
f 1303 1304 1302
f 1303 1305 1304
f 1305 1306 1304
f 1305 1307 1306
f 1307 1308 1306
f 1307 1309 1308
f 1310 1306 1308
f 1309 1311 1308
f 1309 1312 1311
f 1312 1313 1311
f 1312 1314 1313
f 1314 1315 1313
f 1314 1316 1315
f 1316 1317 1315
f 1317 1318 1315
f 1317 1319 1318
f 1319 1320 1318
f 1319 1321 1320
f 1321 1322 1320
f 1322 1323 1320
f 1322 1324 1323
f 1324 1325 1323
f 1324 1326 1325
f 1326 1324 1246
f 1326 1246 1248
f 1327 1326 1248
f 1327 1248 1328
f 1329 1327 1328
f 1329 1328 1330
f 1329 1330 1331
f 1332 1329 1331
f 1332 1331 1333
f 1334 1332 1333
f 1334 1333 1335
f 1334 1335 1336
f 1337 1334 1336
f 1337 1336 1338
f 1339 1337 1338
f 1339 1338 1340
f 1339 1340 1341
f 1342 1339 1341
f 1342 1341 1343
f 1344 1342 1343
f 1344 1343 1345
f 1346 1344 1345
f 1346 1345 1347
f 1346 1347 1348
f 1310 1346 1348
f 1346 1310 1308
f 1310 1348 1349
f 1310 1349 1350
f 1351 1310 1350
f 1351 1350 1352
f 1353 1351 1352
f 1353 1352 1354
f 1353 1354 1355
f 1356 1353 1355
f 1356 1355 1357
f 1356 1357 1358
f 1359 1356 1358
f 1359 1358 1360
f 1361 1359 1360
f 1361 1360 1362
f 1361 1362 1363
f 1364 1361 1363
f 1364 1363 1365
f 1366 1364 1365
f 1366 1365 1367
f 1293 1366 1367
f 1293 1367 1368
f 1293 1368 1369
f 1370 1293 1369
f 1293 1370 1286
f 1370 1369 1371
f 1372 1370 1371
f 1372 1371 1373
f 1374 1372 1373
f 1374 1373 1375
f 1374 1375 1376
f 1377 1374 1376
f 1377 1376 1378
f 1379 1377 1378
f 1379 1378 1380
f 1379 1380 1381
f 1382 1379 1381
f 1382 1381 1383
f 1384 1382 1383
f 1384 1383 1385
f 1384 1385 1386
f 1387 1384 1386
f 1387 1386 1388
f 1389 1387 1388
f 1389 1388 1390
f 1272 1389 1390
f 1389 1272 1270
f 1272 1390 1391
f 1272 1391 1392
f 1393 1272 1392
f 1393 1392 1394
f 1395 1393 1394
f 1395 1394 1396
f 1397 1395 1396
f 1397 1396 1398
f 1397 1398 1399
f 1400 1397 1399
f 1400 1399 1401
f 1402 1400 1401
f 1402 1401 1403
f 1402 1403 1404
f 1405 1402 1404
f 1405 1404 1406
f 1407 1405 1406
f 1408 1405 1407
f 1408 1407 1409
f 1255 1408 1409
f 1255 1409 1410
f 1411 1255 1410
f 1255 1411 1245
f 1411 1410 1412
f 1411 1412 1413
f 1414 1411 1413
f 1414 1413 1415
f 1416 1414 1415
f 1416 1415 1417
f 1418 1416 1417
f 1418 1417 1419
f 1418 1419 1420
f 1421 1418 1420
f 1421 1420 1422
f 1423 1421 1422
f 1423 1422 1424
f 1423 1424 1425
f 1426 1423 1425
f 1426 1425 1427
f 1428 1426 1427
f 1428 1427 1429
f 1428 1429 1430
f 1249 1428 1430
f 1430 1248 1249
