# ROS coordinates: X forward, Y left, Z up; units are metres.
o mesh
v -0.0465969741 -0.135014087 0.0345000029
v -0.04658052 -0.135031849 0.0342361555
v -0.0458903834 -0.135041013 0.0345000029
v -0.04622575 -0.1350469 0.03424976
v -0.0458796 -0.135052651 0.0343271345
v -0.04652778 -0.135088772 0.0339662656
v -0.0458450466 -0.135089934 0.03415031
v -0.04616806 -0.135109156 0.033995375
v -0.0464363322 -0.135187462 0.0337065458
v -0.0457851328 -0.1351546 0.0339801535
v -0.04606878 -0.1352163 0.0337574631
v -0.0463083237 -0.135325611 0.0334747
v -0.0457012653 -0.135245115 0.03382825
v -0.0459327549 -0.1353631 0.0335573256
v -0.0461507365 -0.135495678 0.0332863554
v -0.0455980226 -0.135356531 0.0337048545
v -0.04577105 -0.135537624 0.0334112644
v -0.0459742174 -0.135686189 0.03315181
v -0.0454823673 -0.135481358 0.033616703
v -0.045598153 -0.135724217 0.0333263837
v -0.04579078 -0.135884151 0.0330742076
v -0.0454280749 -0.135907769 0.0333000049
v -0.0453621857 -0.135611057 0.03356586
v -0.045611456 -0.136077687 0.03305
v -0.0452446938 -0.135737851 0.03355
v -0.045432128 -0.136271223 0.0330742076
v -0.0451272 -0.135864645 0.03356586
v -0.045257993 -0.136091322 0.0333263837
v -0.0452486873 -0.1364692 0.03315181
v -0.0450019054 -0.136367708 0.03347685
v -0.04500702 -0.13599436 0.033616703
v -0.0450721644 -0.136659712 0.0332863554
v -0.04489137 -0.136119172 0.0337048545
v -0.04491458 -0.136829764 0.0334747
v -0.0447881259 -0.136230588 0.03382825
v -0.0447873622 -0.136599243 0.0337574631
v -0.0447865762 -0.136967927 0.0337065458
v -0.04465402 -0.136743158 0.03412188
v -0.04470426 -0.1363211 0.0339801535
v -0.044695124 -0.137066618 0.0339662656
v -0.04464434 -0.136385769 0.03415031
v -0.04464238 -0.13712354 0.0342361555
v -0.0446097851 -0.136423051 0.0343271345
v -0.04462593 -0.137141287 0.0345000029
v -0.0445990041 -0.136434689 0.0345000029
v -0.0392618 -0.128217384 0.0345000029
v -0.0392453447 -0.128235132 0.03476385
v -0.039288722 -0.128923982 0.0345000029
v -0.0392573252 -0.128590032 0.0347502455
v -0.0392779447 -0.1289356 0.0346728638
v -0.039192602 -0.128292054 0.03503374
v -0.0392433852 -0.1289729 0.0348496921
v -0.03919964 -0.12865229 0.0350046232
v -0.0391011536 -0.128390759 0.0352934524
v -0.0391834751 -0.129037559 0.0350198522
v -0.0391003639 -0.128759429 0.03524254
v -0.0389731452 -0.128528908 0.0355253071
v -0.0390996039 -0.129128084 0.0351717547
v -0.03896434 -0.128906235 0.03544268
v -0.0388155654 -0.128698975 0.0357136428
v -0.03899636 -0.1292395 0.0352951437
v -0.0388026349 -0.129080743 0.03558874
v -0.0386390425 -0.128889471 0.0358481929
v -0.0388807133 -0.129364312 0.0353833
v -0.03862974 -0.129267335 0.03567362
v -0.0384556055 -0.129087448 0.0359257944
v -0.03845966 -0.1294509 0.0357
v -0.038760528 -0.129494011 0.03543414
v -0.0382762775 -0.129280984 0.03595
v -0.038643036 -0.12962082 0.035450004
v -0.03809695 -0.129474521 0.0359257944
v -0.0385255441 -0.129747614 0.03543414
v -0.038289573 -0.129634455 0.03567362
v -0.0379135124 -0.129672483 0.0358481929
v -0.03803349 -0.129910827 0.0355231538
v -0.03840536 -0.129877329 0.0353833
v -0.03773699 -0.129863 0.0357136428
v -0.03828971 -0.130002141 0.0352951437
v -0.0375794061 -0.130033061 0.0355253071
v -0.03818647 -0.130113557 0.0351717547
v -0.0378189459 -0.130142376 0.03524254
v -0.0374514 -0.13017121 0.0352934524
v -0.0376856 -0.130286276 0.0348781273
v -0.038102597 -0.130204067 0.0350198522
v -0.03735995 -0.1302699 0.03503374
v -0.0380426869 -0.130268738 0.0348496921
v -0.0373072028 -0.130326822 0.03476385
v -0.0380081274 -0.13030602 0.0346728638
v -0.0372907519 -0.130344585 0.0345000029
v -0.03799735 -0.130317658 0.0345000029
v -0.0582925752 -0.10767889 0.0345000029
v -0.0582761243 -0.107696645 0.03476385
v -0.0583195 -0.108385481 0.0345000029
v -0.0582881048 -0.108051538 0.0347502455
v -0.05830872 -0.108397119 0.0346728638
v -0.05822338 -0.107753567 0.03503374
v -0.0582741648 -0.108434409 0.0348496921
v -0.05823042 -0.108113796 0.0350046232
v -0.0581319332 -0.107852258 0.0352934524
v -0.05821425 -0.108499072 0.0350198522
v -0.0581311435 -0.108220935 0.03524254
v -0.0580039248 -0.107990414 0.0355253071
v -0.0581303835 -0.108589582 0.0351717547
v -0.0579951145 -0.108367741 0.03544268
v -0.05784634 -0.108160473 0.0357136428
v -0.05802714 -0.108701006 0.0352951437
v -0.05783341 -0.108542256 0.03558874
v -0.05766982 -0.108350985 0.0358481929
v -0.0579114854 -0.108825818 0.0353833
v -0.0576605126 -0.108728856 0.03567362
v -0.05748638 -0.108548954 0.0359257944
v -0.0574904345 -0.108912408 0.0357
v -0.0577913076 -0.108955525 0.03543414
v -0.0573070534 -0.10874249 0.03595
v -0.0576738119 -0.109082326 0.035450004
v -0.0571277253 -0.108936027 0.0359257944
v -0.0575563237 -0.10920912 0.03543414
v -0.0573203526 -0.109095961 0.03567362
v -0.05694429 -0.109133996 0.0358481929
v -0.057064265 -0.10937234 0.0355231538
v -0.05743614 -0.109338827 0.0353833
v -0.05676776 -0.1093245 0.0357136428
v -0.05732049 -0.109463647 0.0352951437
v -0.0566101819 -0.109494567 0.0355253071
v -0.0572172441 -0.109575063 0.0351717547
v -0.0568497255 -0.109603874 0.03524254
v -0.0564821735 -0.109632716 0.0352934524
v -0.05671638 -0.10974779 0.0348781273
v -0.0571333766 -0.10966558 0.0350198522
v -0.0563907251 -0.109731413 0.03503374
v -0.05707346 -0.109730244 0.0348496921
v -0.0563379824 -0.109788336 0.03476385
v -0.0570389032 -0.109767534 0.0346728638
v -0.05632153 -0.109806091 0.0345000029
v -0.057028126 -0.109779164 0.0345000029
v -0.0540759861 -0.119586051 0.016
v -0.05438735 -0.119825616 0.016
v -0.054415822 -0.119219288 0.0165
v -0.0545649268 -0.119641326 0.0162500013
v -0.0546547771 -0.119403146 0.0165
v -0.0547590964 -0.120013215 0.016
v -0.0549400672 -0.119547114 0.0165
v -0.05495171 -0.1198165 0.0162500013
v -0.0551771671 -0.120128609 0.016
v -0.0552609153 -0.119635679 0.0165
v -0.0553852022 -0.119902886 0.0162500013
v -0.05561914 -0.120157421 0.016
v -0.055600103 -0.119657785 0.0165
v -0.0558330268 -0.119885825 0.0162500013
v -0.05605764 -0.120095059 0.016
v -0.0559366271 -0.11960993 0.0165
v -0.0562586933 -0.1197667 0.0162500013
v -0.05646572 -0.119948186 0.016
v -0.0562498 -0.11949721 0.0165
v -0.0566310249 -0.119562596 0.0162500013
v -0.05682211 -0.119732842 0.016
v -0.05693096 -0.119300358 0.0162500013
v -0.0565233119 -0.119331948 0.0165
v -0.05711434 -0.119470276 0.016
v -0.0567475781 -0.11913044 0.0165
v -0.0573539138 -0.119158909 0.016
v -0.0569314361 -0.118891485 0.0165
v -0.0571696162 -0.118981339 0.0162500013
v -0.0575415045 -0.118787169 0.016
v -0.0574003346 -0.118381821 0.0162500013
v -0.0570754074 -0.118606195 0.0165
v -0.0576569028 -0.118369088 0.016
v -0.05716397 -0.118285351 0.0165
v -0.0576857179 -0.117927119 0.016
v -0.057186082 -0.117946155 0.0165
v -0.0574141219 -0.117713228 0.0162500013
v -0.0576233566 -0.117488623 0.016
v -0.0572020225 -0.117093213 0.0162500013
v -0.05713822 -0.117609635 0.0165
v -0.0574764758 -0.117080539 0.016
v -0.0570255 -0.117296457 0.0165
v -0.05726114 -0.116724148 0.016
v -0.056860242 -0.117022946 0.0165
v -0.05699857 -0.116431922 0.016
v -0.0566587336 -0.116798684 0.0165
v -0.0459199362 -0.128388256 0.016
v -0.0462313034 -0.128627837 0.016
v -0.046259772 -0.128021508 0.0165
v -0.04640888 -0.128443539 0.0162500013
v -0.0464987233 -0.128205359 0.0165
v -0.0466030464 -0.128815427 0.016
v -0.0467840172 -0.128349319 0.0165
v -0.04679566 -0.128618717 0.0162500013
v -0.04702112 -0.128930822 0.016
v -0.0471048653 -0.128437892 0.0165
v -0.0472291559 -0.1287051 0.0162500013
v -0.04746309 -0.128959641 0.016
v -0.0474440567 -0.12845999 0.0165
v -0.04767698 -0.128688037 0.0162500013
v -0.04790159 -0.12889728 0.016
v -0.0477805771 -0.128412142 0.0165
v -0.0481026471 -0.128568918 0.0162500013
v -0.04830967 -0.1287504 0.016
v -0.0480937548 -0.128299415 0.0165
v -0.0484749749 -0.128364816 0.0162500013
v -0.0486660637 -0.128535062 0.016
v -0.048774913 -0.128102571 0.0162500013
v -0.0483672656 -0.128134161 0.0165
v -0.04895829 -0.128272489 0.016
v -0.04859153 -0.127932653 0.0165
v -0.0491978675 -0.127961129 0.016
v -0.04877539 -0.1276937 0.0165
v -0.04901357 -0.127783552 0.0162500013
v -0.04938546 -0.127589375 0.016
v -0.04924429 -0.127184033 0.0162500013
v -0.0489193574 -0.1274084 0.0165
v -0.0495008565 -0.127171308 0.016
v -0.0490079224 -0.127087563 0.0165
v -0.04952967 -0.126729339 0.016
v -0.0490300357 -0.126748368 0.0165
v -0.04925807 -0.126515448 0.0162500013
v -0.0494673066 -0.126290828 0.016
v -0.0490459725 -0.125895426 0.0162500013
v -0.0489821732 -0.126411855 0.0165
v -0.04932043 -0.12588276 0.016
v -0.0488694534 -0.126098663 0.0165
v -0.0491050929 -0.125526354 0.016
v -0.0487041958 -0.125825167 0.0165
v -0.04884252 -0.125234127 0.016
v -0.0485026836 -0.125600889 0.0165
v -0.0540759861 -0.119586051 0.0210000016
v -0.0538134128 -0.119293816 0.0210000016
v -0.054415822 -0.119219288 0.0205
v -0.05398366 -0.119102731 0.0207500011
v -0.0542143136 -0.118995018 0.0205
v -0.0535980761 -0.118937425 0.0210000016
v -0.0540490523 -0.118721507 0.0205
v -0.0537795648 -0.118730396 0.0207500011
v -0.0534512 -0.118529342 0.0210000016
v -0.0539363362 -0.11840833 0.0205
v -0.0536604375 -0.118304737 0.0207500011
v -0.053388834 -0.118090846 0.0210000016
v -0.05388847 -0.118071809 0.0205
v -0.0536433719 -0.117856912 0.0207500011
v -0.05341765 -0.11764887 0.0210000016
v -0.053910587 -0.117732614 0.0205
v -0.05372976 -0.117423415 0.0207500011
v -0.0535330474 -0.1172308 0.0210000016
v -0.05399915 -0.117411777 0.0205
v -0.0539049357 -0.117036633 0.0207500011
v -0.0537206419 -0.116859056 0.0210000016
v -0.0541435927 -0.116717607 0.0207500011
v -0.0541431159 -0.11712648 0.0205
v -0.05396021 -0.116547689 0.0210000016
v -0.05432697 -0.116887532 0.0205
v -0.0542524457 -0.116285123 0.0210000016
v -0.0545512438 -0.116686024 0.0205
v -0.054443527 -0.116455376 0.0207500011
v -0.0546088368 -0.116069779 0.0210000016
v -0.05502375 -0.1161797 0.0207500011
v -0.0548247546 -0.116520762 0.0205
v -0.0550169125 -0.115922906 0.0210000016
v -0.05513793 -0.116408035 0.0205
v -0.0554554164 -0.115860537 0.0210000016
v -0.0554744527 -0.11636018 0.0205
v -0.05568935 -0.116115078 0.0207500011
v -0.05589739 -0.115889356 0.0210000016
v -0.05632371 -0.116279379 0.0207500011
v -0.05581364 -0.116382286 0.0205
v -0.05631546 -0.116004758 0.0210000016
v -0.0561344847 -0.116470858 0.0205
v -0.056687206 -0.116192348 0.0210000016
v -0.05641978 -0.116614819 0.0205
v -0.05699857 -0.116431922 0.0210000016
v -0.0566587336 -0.116798684 0.0205
v -0.04884252 -0.125234127 0.0210000016
v -0.0485026836 -0.125600889 0.0205
v -0.0482637323 -0.125417039 0.0205
v -0.04816766 -0.1250816 0.0207500011
v -0.04853116 -0.124994561 0.0210000016
v -0.04797844 -0.125273064 0.0205
v -0.048159413 -0.12480697 0.0210000016
v -0.0476575941 -0.1251845 0.0205
v -0.04774134 -0.124691568 0.0210000016
v -0.0475333035 -0.124917291 0.0207500011
v -0.0473184064 -0.1251624 0.0205
v -0.0468677 -0.12498191 0.0207500011
v -0.04729937 -0.124662757 0.0210000016
v -0.046981886 -0.125210255 0.0205
v -0.04686087 -0.124725118 0.0210000016
v -0.0466687046 -0.125322968 0.0205
v -0.0464527868 -0.124872 0.0210000016
v -0.0462874845 -0.125257581 0.0207500011
v -0.0463951938 -0.125488237 0.0205
v -0.0459875464 -0.125519827 0.0207500011
v -0.0460964 -0.125087336 0.0210000016
v -0.0461709239 -0.125689745 0.0205
v -0.0458041653 -0.125349909 0.0210000016
v -0.04598707 -0.1259287 0.0205
v -0.0455645956 -0.125661269 0.0210000016
v -0.04574889 -0.125838846 0.0207500011
v -0.045843102 -0.126213983 0.0205
v -0.045377 -0.126033008 0.0210000016
v -0.04557371 -0.126225621 0.0207500011
v -0.04575454 -0.126534835 0.0205
v -0.0452616028 -0.12645109 0.0210000016
v -0.0454873219 -0.126659125 0.0207500011
v -0.0457324237 -0.12687403 0.0205
v -0.0452327877 -0.126893058 0.0210000016
v -0.0455043875 -0.12710695 0.0207500011
v -0.0457802862 -0.127210543 0.0205
v -0.04529515 -0.127331555 0.0210000016
v -0.0456235148 -0.127532616 0.0207500011
v -0.045893006 -0.12752372 0.0205
v -0.04544203 -0.127739638 0.0210000016
v -0.045827616 -0.127904937 0.0207500011
v -0.0460582636 -0.127797231 0.0205
v -0.0456573665 -0.128096029 0.0210000016
v -0.046259772 -0.128021508 0.0205
v -0.0459199362 -0.128388256 0.0210000016
v -0.0464987233 -0.128205359 0.0205
v -0.0465948 -0.1285408 0.0207500011
v -0.0467840172 -0.128349319 0.0205
v -0.0462313034 -0.128627837 0.0210000016
v -0.0466030464 -0.128815427 0.0210000016
v -0.0471048653 -0.128437892 0.0205
v -0.04702112 -0.128930822 0.0210000016
v -0.0472291559 -0.1287051 0.0207500011
v -0.0474440567 -0.12845999 0.0205
v -0.0478947572 -0.128640488 0.0207500011
v -0.04746309 -0.128959641 0.0210000016
v -0.0477805771 -0.128412142 0.0205
v -0.04790159 -0.12889728 0.0210000016
v -0.0480937548 -0.128299415 0.0205
v -0.04830967 -0.1287504 0.0210000016
v -0.0484749749 -0.128364816 0.0207500011
v -0.0483672656 -0.128134161 0.0205
v -0.048774913 -0.128102571 0.0207500011
v -0.0486660637 -0.128535062 0.0210000016
v -0.04859153 -0.127932653 0.0205
v -0.04895829 -0.128272489 0.0210000016
v -0.04877539 -0.1276937 0.0205
v -0.0491978675 -0.127961129 0.0210000016
v -0.04901357 -0.127783552 0.0207500011
v -0.0489193574 -0.1274084 0.0205
v -0.04938546 -0.127589375 0.0210000016
v -0.04918874 -0.127396762 0.0207500011
v -0.0490079224 -0.127087563 0.0205
v -0.0495008565 -0.127171308 0.0210000016
v -0.0492751375 -0.126963273 0.0207500011
v -0.0490300357 -0.126748368 0.0205
v -0.04952967 -0.126729339 0.0210000016
v -0.04925807 -0.126515448 0.0207500011
v -0.0489821732 -0.126411855 0.0205
v -0.0494673066 -0.126290828 0.0210000016
v -0.04913895 -0.126089782 0.0207500011
v -0.0488694534 -0.126098663 0.0205
v -0.04932043 -0.12588276 0.0210000016
v -0.0489348434 -0.125717446 0.0207500011
v -0.0487041958 -0.125825167 0.0205
v -0.0491050929 -0.125526354 0.0210000016
v -0.0485026836 -0.125600889 0.0205
v -0.04884252 -0.125234127 0.0210000016
v -0.0485026836 -0.125600889 0.0205
v -0.0485026836 -0.125600889 0.0165
v -0.0482637323 -0.125417039 0.0165
v -0.04822564 -0.125393629 0.0185
v -0.0482637323 -0.125417039 0.0205
v -0.04797844 -0.125273064 0.0165
v -0.04797844 -0.125273064 0.0205
v -0.04788975 -0.125241518 0.0185
v -0.0476575941 -0.1251845 0.0165
v -0.0476575941 -0.1251845 0.0205
v -0.04751329 -0.125166491 0.0185
v -0.0473184064 -0.1251624 0.0165
v -0.0473184064 -0.1251624 0.0205
v -0.0471243933 -0.1251813 0.0185
v -0.046981886 -0.125210255 0.0165
v -0.046981886 -0.125210255 0.0205
v -0.0467547365 -0.125284761 0.0185
v -0.0466687046 -0.125322968 0.0165
v -0.0466687046 -0.125322968 0.0205
v -0.0464314 -0.125462 0.0185
v -0.0463951938 -0.125488237 0.0165
v -0.0461709239 -0.125689745 0.0185
v -0.0463951938 -0.125488237 0.0205
v -0.0461709239 -0.125689745 0.0165
v -0.0461709239 -0.125689745 0.0205
v -0.04598707 -0.1259287 0.0165
v -0.04598707 -0.1259287 0.0205
v -0.0459636748 -0.125966787 0.0185
v -0.045843102 -0.126213983 0.0165
v -0.045843102 -0.126213983 0.0205
v -0.045843102 -0.126213983 0.0185
v -0.04576331 -0.1264874 0.0185
v -0.04575454 -0.126534835 0.0165
v -0.04575454 -0.126534835 0.0205
v -0.0457315966 -0.126776427 0.0185
v -0.0457324237 -0.12687403 0.0165
v -0.0457324237 -0.12687403 0.0205
v -0.04575134 -0.127068028 0.0185
v -0.0457802862 -0.127210543 0.0165
v -0.0457802862 -0.127210543 0.0205
v -0.0458212346 -0.1273487 0.0185
v -0.045893006 -0.12752372 0.0165
v -0.045893006 -0.12752372 0.0205
v -0.04593553 -0.127606466 0.0185
v -0.0460582636 -0.127797231 0.0165
v -0.0460582636 -0.127797231 0.0205
v -0.04608523 -0.127832413 0.0185
v -0.046259772 -0.128021508 0.0165
v -0.046259772 -0.128021508 0.0205
v -0.0464987233 -0.128205359 0.0165
v -0.04653682 -0.128228754 0.0185
v -0.0464987233 -0.128205359 0.0205
v -0.0467840172 -0.128349319 0.0165
v -0.0467840172 -0.128349319 0.0205
v -0.04687271 -0.12838088 0.0185
v -0.0471048653 -0.128437892 0.0165
v -0.0471048653 -0.128437892 0.0205
v -0.0472491644 -0.1284559 0.0185
v -0.0474440567 -0.12845999 0.0165
v -0.0474440567 -0.12845999 0.0205
v -0.0476380661 -0.12844108 0.0185
v -0.0477805771 -0.128412142 0.0165
v -0.0477805771 -0.128412142 0.0205
v -0.0480077229 -0.128337637 0.0185
v -0.0480937548 -0.128299415 0.0165
v -0.0480937548 -0.128299415 0.0205
v -0.04833106 -0.128160387 0.0185
v -0.0483672656 -0.128134161 0.0165
v -0.04859153 -0.127932653 0.0185
v -0.0483672656 -0.128134161 0.0205
v -0.04859153 -0.127932653 0.0165
v -0.04859153 -0.127932653 0.0205
v -0.04877539 -0.1276937 0.0165
v -0.04877539 -0.1276937 0.0205
v -0.04879879 -0.12765561 0.0185
v -0.0489193574 -0.1274084 0.0165
v -0.0489193574 -0.1274084 0.0205
v -0.0489193574 -0.1274084 0.0185
v -0.0489991531 -0.127134979 0.0185
v -0.0490079224 -0.127087563 0.0165
v -0.0490079224 -0.127087563 0.0205
v -0.0490308665 -0.126845956 0.0185
v -0.0490300357 -0.126748368 0.0165
v -0.0490300357 -0.126748368 0.0205
v -0.04901112 -0.126554355 0.0185
v -0.0489821732 -0.126411855 0.0165
v -0.0489821732 -0.126411855 0.0205
v -0.0489412248 -0.126273677 0.0185
v -0.0488694534 -0.126098663 0.0165
v -0.0488694534 -0.126098663 0.0205
v -0.0488269255 -0.126015916 0.0185
v -0.0487041958 -0.125825167 0.0165
v -0.0487041958 -0.125825167 0.0205
v -0.04867723 -0.12578997 0.0185
v -0.0485026836 -0.125600889 0.0165
v -0.0485026836 -0.125600889 0.0205
v -0.054415822 -0.119219288 0.0205
v -0.0546547771 -0.119403146 0.0205
v -0.0540759861 -0.119586051 0.0210000016
v -0.0547508448 -0.119738586 0.0207500011
v -0.0549400672 -0.119547114 0.0205
v -0.05438735 -0.119825616 0.0210000016
v -0.0547590964 -0.120013215 0.0210000016
v -0.0552609153 -0.119635679 0.0205
v -0.0551771671 -0.120128609 0.0210000016
v -0.0553852022 -0.119902886 0.0207500011
v -0.055600103 -0.119657785 0.0205
v -0.0560508072 -0.119838268 0.0207500011
v -0.05561914 -0.120157421 0.0210000016
v -0.0559366271 -0.11960993 0.0205
v -0.05605764 -0.120095059 0.0210000016
v -0.0562498 -0.11949721 0.0205
v -0.05646572 -0.119948186 0.0210000016
v -0.0566310249 -0.119562596 0.0207500011
v -0.0565233119 -0.119331948 0.0205
v -0.05693096 -0.119300358 0.0207500011
v -0.05682211 -0.119732842 0.0210000016
v -0.0567475781 -0.11913044 0.0205
v -0.05711434 -0.119470276 0.0210000016
v -0.0569314361 -0.118891485 0.0205
v -0.0573539138 -0.119158909 0.0210000016
v -0.0571696162 -0.118981339 0.0207500011
v -0.0570754074 -0.118606195 0.0205
v -0.0575415045 -0.118787169 0.0210000016
v -0.05734479 -0.118594557 0.0207500011
v -0.05716397 -0.118285351 0.0205
v -0.0576569028 -0.118369088 0.0210000016
v -0.05743118 -0.118161052 0.0207500011
v -0.057186082 -0.117946155 0.0205
v -0.0576857179 -0.117927119 0.0210000016
v -0.0574141219 -0.117713228 0.0207500011
v -0.05713822 -0.117609635 0.0205
v -0.0576233566 -0.117488623 0.0210000016
v -0.05729499 -0.117287561 0.0207500011
v -0.0570255 -0.117296457 0.0205
v -0.0574764758 -0.117080539 0.0210000016
v -0.05709089 -0.116915233 0.0207500011
v -0.056860242 -0.117022946 0.0205
v -0.05726114 -0.116724148 0.0210000016
v -0.0566587336 -0.116798684 0.0205
v -0.05699857 -0.116431922 0.0210000016
v -0.0566587336 -0.116798684 0.0205
v -0.0566587336 -0.116798684 0.0165
v -0.05641978 -0.116614819 0.0165
v -0.0563816875 -0.116591424 0.0185
v -0.05641978 -0.116614819 0.0205
v -0.0561344847 -0.116470858 0.0165
v -0.0561344847 -0.116470858 0.0205
v -0.0560458 -0.1164393 0.0185
v -0.05581364 -0.116382286 0.0165
v -0.05581364 -0.116382286 0.0205
v -0.05566934 -0.11636427 0.0185
v -0.0554744527 -0.11636018 0.0165
v -0.0554744527 -0.11636018 0.0205
v -0.05528044 -0.1163791 0.0185
v -0.05513793 -0.116408035 0.0165
v -0.05513793 -0.116408035 0.0205
v -0.0549107827 -0.116482548 0.0185
v -0.0548247546 -0.116520762 0.0165
v -0.0548247546 -0.116520762 0.0205
v -0.0545874462 -0.11665979 0.0185
v -0.0545512438 -0.116686024 0.0165
v -0.05432697 -0.116887532 0.0185
v -0.0545512438 -0.116686024 0.0205
v -0.05432697 -0.116887532 0.0165
v -0.05432697 -0.116887532 0.0205
v -0.0541431159 -0.11712648 0.0165
v -0.0541431159 -0.11712648 0.0205
v -0.0541197173 -0.117164575 0.0185
v -0.05399915 -0.117411777 0.0165
v -0.05399915 -0.117411777 0.0205
v -0.05399915 -0.117411777 0.0185
v -0.0539193563 -0.1176852 0.0185
v -0.053910587 -0.117732614 0.0165
v -0.053910587 -0.117732614 0.0205
v -0.0538876429 -0.117974222 0.0185
v -0.05388847 -0.118071809 0.0165
v -0.05388847 -0.118071809 0.0205
v -0.053907387 -0.118265823 0.0185
v -0.0539363362 -0.11840833 0.0165
v -0.0539363362 -0.11840833 0.0205
v -0.0539772846 -0.118546493 0.0185
v -0.0540490523 -0.118721507 0.0165
v -0.0540490523 -0.118721507 0.0205
v -0.05409158 -0.118804261 0.0185
v -0.0542143136 -0.118995018 0.0165
v -0.0542143136 -0.118995018 0.0205
v -0.0542412773 -0.119030207 0.0185
v -0.054415822 -0.119219288 0.0165
v -0.054415822 -0.119219288 0.0205
v -0.0546547771 -0.119403146 0.0165
v -0.05469287 -0.119426541 0.0185
v -0.0546547771 -0.119403146 0.0205
v -0.0549400672 -0.119547114 0.0165
v -0.0549400672 -0.119547114 0.0205
v -0.05502875 -0.119578667 0.0185
v -0.0552609153 -0.119635679 0.0165
v -0.0552609153 -0.119635679 0.0205
v -0.0554052144 -0.119653687 0.0185
v -0.055600103 -0.119657785 0.0165
v -0.055600103 -0.119657785 0.0205
v -0.0557941124 -0.119638875 0.0185
v -0.0559366271 -0.11960993 0.0165
v -0.0559366271 -0.11960993 0.0205
v -0.05616377 -0.119535416 0.0185
v -0.0562498 -0.11949721 0.0165
v -0.0562498 -0.11949721 0.0205
v -0.05648711 -0.119358175 0.0185
v -0.0565233119 -0.119331948 0.0165
v -0.0567475781 -0.11913044 0.0185
v -0.0565233119 -0.119331948 0.0205
v -0.0567475781 -0.11913044 0.0165
v -0.0567475781 -0.11913044 0.0205
v -0.0569314361 -0.118891485 0.0165
v -0.0569314361 -0.118891485 0.0205
v -0.05695484 -0.11885339 0.0185
v -0.0570754074 -0.118606195 0.0165
v -0.0570754074 -0.118606195 0.0205
v -0.0570754074 -0.118606195 0.0185
v -0.0571551956 -0.118332766 0.0185
v -0.05716397 -0.118285351 0.0165
v -0.05716397 -0.118285351 0.0205
v -0.0571869127 -0.118043751 0.0185
v -0.057186082 -0.117946155 0.0165
v -0.057186082 -0.117946155 0.0205
v -0.057167165 -0.117752142 0.0185
v -0.05713822 -0.117609635 0.0165
v -0.05713822 -0.117609635 0.0205
v -0.05709727 -0.117471471 0.0185
v -0.0570255 -0.117296457 0.0165
v -0.0570255 -0.117296457 0.0205
v -0.0569829755 -0.117213711 0.0185
v -0.056860242 -0.117022946 0.0165
v -0.056860242 -0.117022946 0.0205
v -0.0568332747 -0.116987765 0.0185
v -0.0566587336 -0.116798684 0.0165
v -0.0566587336 -0.116798684 0.0205
v -0.046259772 -0.128021508 0.0165
v -0.0460582636 -0.127797231 0.0165
v -0.0459199362 -0.128388256 0.016
v -0.0457164869 -0.127726972 0.0162500013
v -0.045893006 -0.12752372 0.0165
v -0.0456573665 -0.128096029 0.016
v -0.04544203 -0.127739638 0.016
v -0.0457802862 -0.127210543 0.0165
v -0.04529515 -0.127331555 0.016
v -0.0455043875 -0.12710695 0.0162500013
v -0.0457324237 -0.12687403 0.0165
v -0.04551817 -0.126438349 0.0162500013
v -0.0452327877 -0.126893058 0.016
v -0.04575454 -0.126534835 0.0165
v -0.0452616028 -0.12645109 0.016
v -0.045843102 -0.126213983 0.0165
v -0.045377 -0.126033008 0.016
v -0.04574889 -0.125838846 0.0162500013
v -0.04598707 -0.1259287 0.0165
v -0.0459875464 -0.125519827 0.0162500013
v -0.0455645956 -0.125661269 0.016
v -0.0461709239 -0.125689745 0.0165
v -0.0458041653 -0.125349909 0.016
v -0.0463951938 -0.125488237 0.0165
v -0.0460964 -0.125087336 0.016
v -0.0462874845 -0.125257581 0.0162500013
v -0.0466687046 -0.125322968 0.0165
v -0.0464527868 -0.124872 0.016
v -0.0466598123 -0.12505348 0.0162500013
v -0.046981886 -0.125210255 0.0165
v -0.04686087 -0.124725118 0.016
v -0.04708548 -0.124934353 0.0162500013
v -0.0473184064 -0.1251624 0.0165
v -0.04729937 -0.124662757 0.016
v -0.0475333035 -0.124917291 0.0162500013
v -0.0476575941 -0.1251845 0.0165
v -0.04774134 -0.124691568 0.016
v -0.0479668 -0.125003681 0.0162500013
v -0.04797844 -0.125273064 0.0165
v -0.048159413 -0.12480697 0.016
v -0.04835358 -0.125178859 0.0162500013
v -0.0482637323 -0.125417039 0.0165
v -0.04853116 -0.124994561 0.016
v -0.0485026836 -0.125600889 0.0165
v -0.04884252 -0.125234127 0.016
v -0.054415822 -0.119219288 0.0165
v -0.0542143136 -0.118995018 0.0165
v -0.0540759861 -0.119586051 0.016
v -0.0538725331 -0.118924752 0.0162500013
v -0.0540490523 -0.118721507 0.0165
v -0.0538134128 -0.119293816 0.016
v -0.0535980761 -0.118937425 0.016
v -0.0539363362 -0.11840833 0.0165
v -0.0534512 -0.118529342 0.016
v -0.0536604375 -0.118304737 0.0162500013
v -0.05388847 -0.118071809 0.0165
v -0.0536742173 -0.117636144 0.0162500013
v -0.053388834 -0.118090846 0.016
v -0.053910587 -0.117732614 0.0165
v -0.05341765 -0.11764887 0.016
v -0.05399915 -0.117411777 0.0165
v -0.0535330474 -0.1172308 0.016
v -0.0539049357 -0.117036633 0.0162500013
v -0.0541431159 -0.11712648 0.0165
v -0.0541435927 -0.116717607 0.0162500013
v -0.0537206419 -0.116859056 0.016
v -0.05432697 -0.116887532 0.0165
v -0.05396021 -0.116547689 0.016
v -0.0545512438 -0.116686024 0.0165
v -0.0542524457 -0.116285123 0.016
v -0.054443527 -0.116455376 0.0162500013
v -0.0548247546 -0.116520762 0.0165
v -0.0546088368 -0.116069779 0.016
v -0.05481586 -0.116251275 0.0162500013
v -0.05513793 -0.116408035 0.0165
v -0.0550169125 -0.115922906 0.016
v -0.0552415252 -0.11613214 0.0162500013
v -0.0554744527 -0.11636018 0.0165
v -0.0554554164 -0.115860537 0.016
v -0.05568935 -0.116115078 0.0162500013
v -0.05581364 -0.116382286 0.0165
v -0.05589739 -0.115889356 0.016
v -0.0561228469 -0.116201468 0.0162500013
v -0.0561344847 -0.116470858 0.0165
v -0.05631546 -0.116004758 0.016
v -0.05650963 -0.116376646 0.0162500013
v -0.05641978 -0.116614819 0.0165
v -0.056687206 -0.116192348 0.016
v -0.0566587336 -0.116798684 0.0165
v -0.05699857 -0.116431922 0.016
v -0.0583195 -0.108385481 0.0345000029
v -0.05830872 -0.108397119 0.0343271345
v -0.0582925752 -0.10767889 0.0345000029
v -0.0582644865 -0.108077027 0.03412188
v -0.0582741648 -0.108434409 0.03415031
v -0.0582761243 -0.107696645 0.0342361555
v -0.05822338 -0.107753567 0.0339662656
v -0.05821425 -0.108499072 0.0339801535
v -0.0581319332 -0.107852258 0.0337065458
v -0.0581311435 -0.108220935 0.0337574631
v -0.0581303835 -0.108589582 0.03382825
v -0.0579166 -0.108452477 0.03347685
v -0.0580039248 -0.107990414 0.0334747
v -0.05802714 -0.108701006 0.0337048545
v -0.05784634 -0.108160473 0.0332863554
v -0.0579114854 -0.108825818 0.033616703
v -0.05766982 -0.108350985 0.03315181
v -0.0576605126 -0.108728856 0.0333263837
v -0.0577913076 -0.108955525 0.03356586
v -0.0574904345 -0.108912408 0.0333000049
v -0.05748638 -0.108548954 0.0330742076
v -0.0576738119 -0.109082326 0.03355
v -0.0573070534 -0.10874249 0.03305
v -0.0575563237 -0.10920912 0.03356586
v -0.0571277253 -0.108936027 0.0330742076
v -0.0573203526 -0.109095961 0.0333263837
v -0.05743614 -0.109338827 0.033616703
v -0.05694429 -0.109133996 0.03315181
v -0.05714746 -0.109282553 0.0334112644
v -0.05732049 -0.109463647 0.0337048545
v -0.05676776 -0.1093245 0.0332863554
v -0.0569857545 -0.109457068 0.0335573256
v -0.0572172441 -0.109575063 0.03382825
v -0.0566101819 -0.109494567 0.0334747
v -0.0568497255 -0.109603874 0.0337574631
v -0.0571333766 -0.10966558 0.0339801535
v -0.0564821735 -0.109632716 0.0337065458
v -0.0567504466 -0.109711021 0.033995375
v -0.05707346 -0.109730244 0.03415031
v -0.0563907251 -0.109731413 0.0339662656
v -0.05669276 -0.109773278 0.03424976
v -0.0570389032 -0.109767534 0.0343271345
v -0.0563379824 -0.109788336 0.0342361555
v -0.057028126 -0.109779164 0.0345000029
v -0.05632153 -0.109806091 0.0345000029
v -0.060328953 -0.112837687 0.0345000029
v -0.057028126 -0.109779164 0.0345000029
v -0.0570389032 -0.109767534 0.0343271345
v -0.0586927347 -0.1112931 0.0343018919
v -0.060339734 -0.112826049 0.0343271345
v -0.05707346 -0.109730244 0.03415031
v -0.06037429 -0.112788759 0.03415031
v -0.058738403 -0.111243814 0.03410051
v -0.0571333766 -0.10966558 0.0339801535
v -0.0604342036 -0.112724096 0.0339801535
v -0.058817 -0.111159 0.03391216
v -0.0572172441 -0.109575063 0.03382825
v -0.06051807 -0.112633586 0.03382825
v -0.05892469 -0.111042775 0.0337537155
v -0.05732049 -0.109463647 0.0337048545
v -0.0606213138 -0.112522162 0.0337048545
v -0.0590527 -0.110904619 0.0336380824
v -0.05743614 -0.109338827 0.033616703
v -0.06073697 -0.112397343 0.033616703
v -0.05918958 -0.1107569 0.0335708857
v -0.0575563237 -0.10920912 0.03356586
v -0.0593242273 -0.11061158 0.03355
v -0.06085715 -0.112267643 0.03356586
v -0.0576738119 -0.109082326 0.03355
v -0.0609746426 -0.112140842 0.03355
v -0.0577913076 -0.108955525 0.03356586
v -0.06109213 -0.11201404 0.03356586
v -0.0594588742 -0.110466264 0.0335708857
v -0.0579114854 -0.108825818 0.033616703
v -0.0612123162 -0.111884341 0.033616703
v -0.0595619 -0.110355079 0.033616703
v -0.05966161 -0.11024747 0.0336900055
v -0.05802714 -0.108701006 0.0337048545
v -0.0613279678 -0.111759529 0.0337048545
v -0.05975301 -0.110148832 0.03378971
v -0.0581303835 -0.108589582 0.03382825
v -0.0614312142 -0.1116481 0.03382825
v -0.0598314553 -0.110064171 0.03391216
v -0.05821425 -0.108499072 0.0339801535
v -0.0615150779 -0.111557588 0.0339801535
v -0.059893433 -0.10999728 0.0340515152
v -0.0582741648 -0.108434409 0.03415031
v -0.0615749955 -0.111492924 0.03415031
v -0.0599370226 -0.109950237 0.0342006534
v -0.05830872 -0.108397119 0.0343271345
v -0.0616095476 -0.111455634 0.0343271345
v -0.0599620566 -0.109923214 0.0343522951
v -0.0583195 -0.108385481 0.0345000029
v -0.06162033 -0.111444004 0.0345000029
v -0.05830872 -0.108397119 0.0346728638
v -0.0599557161 -0.109930061 0.03469811
v -0.0616095476 -0.111455634 0.0346728638
v -0.0582741648 -0.108434409 0.0348496921
v -0.0615749955 -0.111492924 0.0348496921
v -0.0599100478 -0.109979346 0.0348994955
v -0.05821425 -0.108499072 0.0350198522
v -0.0615150779 -0.111557588 0.0350198522
v -0.0598314553 -0.110064171 0.0350878462
v -0.0581303835 -0.108589582 0.0351717547
v -0.0614312142 -0.1116481 0.0351717547
v -0.0597237647 -0.110180385 0.03524629
v -0.05802714 -0.108701006 0.0352951437
v -0.0613279678 -0.111759529 0.0352951437
v -0.05959575 -0.110318549 0.0353619233
v -0.0579114854 -0.108825818 0.0353833
v -0.0612123162 -0.111884341 0.0353833
v -0.0594588742 -0.110466264 0.0354291163
v -0.0577913076 -0.108955525 0.03543414
v -0.0593242273 -0.11061158 0.035450004
v -0.06109213 -0.11201404 0.03543414
v -0.0576738119 -0.109082326 0.035450004
v -0.0609746426 -0.112140842 0.035450004
v -0.0575563237 -0.10920912 0.03543414
v -0.06085715 -0.112267643 0.03543414
v -0.05918958 -0.1107569 0.0354291163
v -0.05743614 -0.109338827 0.0353833
v -0.06073697 -0.112397343 0.0353833
v -0.0590865538 -0.110868081 0.0353833
v -0.0589868426 -0.11097569 0.03531
v -0.05732049 -0.109463647 0.0352951437
v -0.0606213138 -0.112522162 0.0352951437
v -0.0588954464 -0.111074328 0.0352102928
v -0.0572172441 -0.109575063 0.0351717547
v -0.06051807 -0.112633586 0.0351717547
v -0.058817 -0.111159 0.0350878462
v -0.0571333766 -0.10966558 0.0350198522
v -0.0604342036 -0.112724096 0.0350198522
v -0.05875502 -0.111225881 0.03494849
v -0.05707346 -0.109730244 0.0348496921
v -0.06037429 -0.112788759 0.0348496921
v -0.0587114319 -0.111272924 0.0347993523
v -0.0570389032 -0.109767534 0.0346728638
v -0.060339734 -0.112826049 0.0346728638
v -0.05868639 -0.111299947 0.03464771
v -0.057028126 -0.109779164 0.0345000029
v -0.060328953 -0.112837687 0.0345000029
v -0.039288722 -0.128923982 0.0345000029
v -0.0392779447 -0.1289356 0.0343271345
v -0.0392618 -0.128217384 0.0345000029
v -0.0392337069 -0.128615528 0.03412188
v -0.0392433852 -0.1289729 0.03415031
v -0.0392453447 -0.128235132 0.0342361555
v -0.039192602 -0.128292054 0.0339662656
v -0.0391834751 -0.129037559 0.0339801535
v -0.0391011536 -0.128390759 0.0337065458
v -0.0391003639 -0.128759429 0.0337574631
v -0.0390996039 -0.129128084 0.03382825
v -0.0388858244 -0.128990978 0.03347685
v -0.0389731452 -0.128528908 0.0334747
v -0.03899636 -0.1292395 0.0337048545
v -0.0388155654 -0.128698975 0.0332863554
v -0.0388807133 -0.129364312 0.033616703
v -0.0386390425 -0.128889471 0.03315181
v -0.03862974 -0.129267335 0.0333263837
v -0.038760528 -0.129494011 0.03356586
v -0.03845966 -0.1294509 0.0333000049
v -0.0384556055 -0.129087448 0.0330742076
v -0.038643036 -0.12962082 0.03355
v -0.0382762775 -0.129280984 0.03305
v -0.0385255441 -0.129747614 0.03356586
v -0.03809695 -0.129474521 0.0330742076
v -0.038289573 -0.129634455 0.0333263837
v -0.03840536 -0.129877329 0.033616703
v -0.0379135124 -0.129672483 0.03315181
v -0.03811668 -0.129821047 0.0334112644
v -0.03828971 -0.130002141 0.0337048545
v -0.03773699 -0.129863 0.0332863554
v -0.03795498 -0.12999557 0.0335573256
v -0.03818647 -0.130113557 0.03382825
v -0.0375794061 -0.130033061 0.0334747
v -0.0378189459 -0.130142376 0.0337574631
v -0.038102597 -0.130204067 0.0339801535
v -0.0374514 -0.13017121 0.0337065458
v -0.0377196744 -0.130249515 0.033995375
v -0.0380426869 -0.130268738 0.03415031
v -0.03735995 -0.1302699 0.0339662656
v -0.03766198 -0.130311772 0.03424976
v -0.0380081274 -0.13030602 0.0343271345
v -0.0373072028 -0.130326822 0.0342361555
v -0.03799735 -0.130317658 0.0345000029
v -0.0372907519 -0.130344585 0.0345000029
v -0.0445990041 -0.136434689 0.0345000029
v -0.03799735 -0.130317658 0.0345000029
v -0.0380081274 -0.13030602 0.0343271345
v -0.0413123742 -0.133360863 0.0343018919
v -0.0446097851 -0.136423051 0.0343271345
v -0.0380426869 -0.130268738 0.03415031
v -0.04464434 -0.136385769 0.03415031
v -0.0413580462 -0.13331157 0.03410051
v -0.038102597 -0.130204067 0.0339801535
v -0.04470426 -0.1363211 0.0339801535
v -0.041436635 -0.133226752 0.03391216
v -0.03818647 -0.130113557 0.03382825
v -0.0447881259 -0.136230588 0.03382825
v -0.0415443256 -0.133110523 0.0337537155
v -0.03828971 -0.130002141 0.0337048545
v -0.04489137 -0.136119172 0.0337048545
v -0.04167234 -0.132972375 0.0336380824
v -0.03840536 -0.129877329 0.033616703
v -0.04500702 -0.13599436 0.033616703
v -0.0418092161 -0.132824659 0.0335708857
v -0.0385255441 -0.129747614 0.03356586
v -0.0419438668 -0.132679343 0.03355
v -0.0451272 -0.135864645 0.03356586
v -0.038643036 -0.12962082 0.03355
v -0.0452446938 -0.135737851 0.03355
v -0.038760528 -0.129494011 0.03356586
v -0.0453621857 -0.135611057 0.03356586
v -0.0420785137 -0.132534027 0.0335708857
v -0.0388807133 -0.129364312 0.033616703
v -0.0454823673 -0.135481358 0.033616703
v -0.0421815366 -0.132422835 0.033616703
v -0.0422812477 -0.132315218 0.0336900055
v -0.03899636 -0.1292395 0.0337048545
v -0.0455980226 -0.135356531 0.0337048545
v -0.0423726439 -0.132216588 0.03378971
v -0.0390996039 -0.129128084 0.03382825
v -0.0457012653 -0.135245115 0.03382825
v -0.0424510948 -0.132131919 0.03391216
v -0.0391834751 -0.129037559 0.0339801535
v -0.0457851328 -0.1351546 0.0339801535
v -0.0425130725 -0.132065028 0.0340515152
v -0.0392433852 -0.1289729 0.03415031
v -0.0458450466 -0.135089934 0.03415031
v -0.04255666 -0.132018 0.0342006534
v -0.0392779447 -0.1289356 0.0343271345
v -0.0458796 -0.135052651 0.0343271345
v -0.0425817 -0.131990969 0.0343522951
v -0.039288722 -0.128923982 0.0345000029
v -0.0458903834 -0.135041013 0.0345000029
v -0.0392779447 -0.1289356 0.0346728638
v -0.04257536 -0.131997809 0.03469811
v -0.0458796 -0.135052651 0.0346728638
v -0.0392433852 -0.1289729 0.0348496921
v -0.0458450466 -0.135089934 0.0348496921
v -0.0425296873 -0.1320471 0.0348994955
v -0.0391834751 -0.129037559 0.0350198522
v -0.0457851328 -0.1351546 0.0350198522
v -0.0424510948 -0.132131919 0.0350878462
v -0.0390996039 -0.129128084 0.0351717547
v -0.0457012653 -0.135245115 0.0351717547
v -0.0423434 -0.132248148 0.03524629
v -0.03899636 -0.1292395 0.0352951437
v -0.0455980226 -0.135356531 0.0352951437
v -0.042215392 -0.1323863 0.0353619233
v -0.0388807133 -0.129364312 0.0353833
v -0.0454823673 -0.135481358 0.0353833
v -0.0420785137 -0.132534027 0.0354291163
v -0.038760528 -0.129494011 0.03543414
v -0.0419438668 -0.132679343 0.035450004
v -0.0453621857 -0.135611057 0.03543414
v -0.038643036 -0.12962082 0.035450004
v -0.0452446938 -0.135737851 0.035450004
v -0.0385255441 -0.129747614 0.03543414
v -0.0451272 -0.135864645 0.03543414
v -0.0418092161 -0.132824659 0.0354291163
v -0.03840536 -0.129877329 0.0353833
v -0.04500702 -0.13599436 0.0353833
v -0.04170619 -0.132935837 0.0353833
v -0.04160648 -0.133043453 0.03531
v -0.03828971 -0.130002141 0.0352951437
v -0.04489137 -0.136119172 0.0352951437
v -0.0415150858 -0.133142084 0.0352102928
v -0.03818647 -0.130113557 0.0351717547
v -0.0447881259 -0.136230588 0.0351717547
v -0.041436635 -0.133226752 0.0350878462
v -0.038102597 -0.130204067 0.0350198522
v -0.04470426 -0.1363211 0.0350198522
v -0.0413746573 -0.133293629 0.03494849
v -0.0380426869 -0.130268738 0.0348496921
v -0.04464434 -0.136385769 0.0348496921
v -0.04133107 -0.133340687 0.0347993523
v -0.0380081274 -0.13030602 0.0346728638
v -0.0446097851 -0.136423051 0.0346728638
v -0.04130603 -0.1333677 0.03464771
v -0.03799735 -0.130317658 0.0345000029
v -0.0445990041 -0.136434689 0.0345000029
v -0.06328289 -0.117006227 0.0205
v -0.06328289 -0.117006227 0.028
v -0.0660015643 -0.114072159 0.028
v -0.0660015643 -0.114072159 0.0165
v -0.0469707921 -0.134610653 0.0205
v -0.0442521125 -0.137544721 0.0165
v -0.0450721644 -0.136659712 0.0332863554
v -0.04491458 -0.136829764 0.0334747
v -0.0452486873 -0.1364692 0.03315181
v -0.045432128 -0.136271223 0.0330742076
v -0.045611456 -0.136077687 0.03305
v -0.04579078 -0.135884151 0.0330742076
v -0.0459742174 -0.135686189 0.03315181
v -0.0447865762 -0.136967927 0.0337065458
v -0.0461507365 -0.135495678 0.0332863554
v -0.044695124 -0.137066618 0.0339662656
v -0.04464238 -0.13712354 0.0342361555
v -0.04462593 -0.137141287 0.0345000029
v -0.0442521125 -0.137544721 0.04
v -0.04464238 -0.13712354 0.03476385
v -0.044695124 -0.137066618 0.03503374
v -0.0463083237 -0.135325611 0.0334747
v -0.0447865762 -0.136967927 0.0352934524
v -0.0464363322 -0.135187462 0.0337065458
v -0.04491458 -0.136829764 0.0355253071
v -0.04652778 -0.135088772 0.0339662656
v -0.04658052 -0.135031849 0.0342361555
v -0.0465969741 -0.135014087 0.0345000029
v -0.0469707921 -0.134610653 0.04
v -0.04658052 -0.135031849 0.03476385
v -0.04652778 -0.135088772 0.03503374
v -0.0450721644 -0.136659712 0.0357136428
v -0.0464363322 -0.135187462 0.0352934524
v -0.0452486873 -0.1364692 0.0358481929
v -0.045432128 -0.136271223 0.0359257944
v -0.045611456 -0.136077687 0.03595
v -0.0463083237 -0.135325611 0.0355253071
v -0.04579078 -0.135884151 0.0359257944
v -0.0461507365 -0.135495678 0.0357136428
v -0.0459742174 -0.135686189 0.0358481929
v -0.0625762939 -0.117033154 0.028
v -0.0625762939 -0.117033154 0.0215
v -0.05890871 -0.1136348 0.028
v -0.0559746362 -0.110916123 0.0215
v -0.0559746362 -0.110916123 0.04
v -0.05890871 -0.1136348 0.04
v -0.06597465 -0.113365561 0.028
v -0.06230706 -0.109967217 0.028
v -0.06597465 -0.113365561 0.0165
v -0.05937299 -0.10724853 0.0165
v -0.05937299 -0.10724853 0.04
v -0.06230706 -0.109967217 0.04
v -0.0458903834 -0.135041013 0.0345000029
v -0.0458796 -0.135052651 0.0346728638
v -0.0465969741 -0.135014087 0.0345000029
v -0.04620213 -0.1350724 0.0348781273
v -0.0458450466 -0.135089934 0.0348496921
v -0.04658052 -0.135031849 0.03476385
v -0.04652778 -0.135088772 0.03503374
v -0.0457851328 -0.1351546 0.0350198522
v -0.0464363322 -0.135187462 0.0352934524
v -0.04606878 -0.1352163 0.03524254
v -0.0457012653 -0.135245115 0.0351717547
v -0.04585424 -0.13544783 0.0355231538
v -0.0463083237 -0.135325611 0.0355253071
v -0.0455980226 -0.135356531 0.0352951437
v -0.0461507365 -0.135495678 0.0357136428
v -0.0454823673 -0.135481358 0.0353833
v -0.0459742174 -0.135686189 0.0358481929
v -0.045598153 -0.135724217 0.03567362
v -0.0453621857 -0.135611057 0.03543414
v -0.0454280749 -0.135907769 0.0357
v -0.04579078 -0.135884151 0.0359257944
v -0.0452446938 -0.135737851 0.035450004
v -0.045611456 -0.136077687 0.03595
v -0.0451272 -0.135864645 0.03543414
v -0.045432128 -0.136271223 0.0359257944
v -0.045257993 -0.136091322 0.03567362
v -0.04500702 -0.13599436 0.0353833
v -0.0452486873 -0.1364692 0.0358481929
v -0.0450850949 -0.136277914 0.03558874
v -0.04489137 -0.136119172 0.0352951437
v -0.0450721644 -0.136659712 0.0357136428
v -0.0449233949 -0.136452436 0.03544268
v -0.0447881259 -0.136230588 0.0351717547
v -0.04491458 -0.136829764 0.0355253071
v -0.0447873622 -0.136599243 0.03524254
v -0.04470426 -0.1363211 0.0350198522
v -0.0447865762 -0.136967927 0.0352934524
v -0.04468809 -0.136706382 0.0350046232
v -0.04464434 -0.136385769 0.0348496921
v -0.044695124 -0.137066618 0.03503374
v -0.0446304 -0.136768639 0.0347502455
v -0.0446097851 -0.136423051 0.0346728638
v -0.04464238 -0.13712354 0.03476385
v -0.0445990041 -0.136434689 0.0345000029
v -0.04462593 -0.137141287 0.0345000029
v -0.0596153 -0.113607876 0.0285000019
v -0.060339734 -0.112826049 0.0343271345
v -0.06037429 -0.112788759 0.03415031
v -0.0604342036 -0.112724096 0.0339801535
v -0.06051807 -0.112633586 0.03382825
v -0.0606213138 -0.112522162 0.0337048545
v -0.06073697 -0.112397343 0.033616703
v -0.06085715 -0.112267643 0.03356586
v -0.060328953 -0.112837687 0.0345000029
v -0.0609746426 -0.112140842 0.03355
v -0.0596153 -0.113607876 0.04
v -0.060339734 -0.112826049 0.0346728638
v -0.06037429 -0.112788759 0.0348496921
v -0.06233398 -0.110673815 0.0285000019
v -0.06109213 -0.11201404 0.03356586
v -0.0612123162 -0.111884341 0.033616703
v -0.0604342036 -0.112724096 0.0350198522
v -0.0613279678 -0.111759529 0.0337048545
v -0.06051807 -0.112633586 0.0351717547
v -0.0614312142 -0.1116481 0.03382825
v -0.0606213138 -0.112522162 0.0352951437
v -0.0615150779 -0.111557588 0.0339801535
v -0.06073697 -0.112397343 0.0353833
v -0.06085715 -0.112267643 0.03543414
v -0.0609746426 -0.112140842 0.035450004
v -0.06233398 -0.110673815 0.04
v -0.06109213 -0.11201404 0.03543414
v -0.0612123162 -0.111884341 0.0353833
v -0.0615749955 -0.111492924 0.03415031
v -0.0616095476 -0.111455634 0.0343271345
v -0.06162033 -0.111444004 0.0345000029
v -0.0613279678 -0.111759529 0.0352951437
v -0.0616095476 -0.111455634 0.0346728638
v -0.0614312142 -0.1116481 0.0351717547
v -0.0615749955 -0.111492924 0.0348496921
v -0.0615150779 -0.111557588 0.0350198522
v -0.0419438668 -0.132679343 0.0405000038
v -0.0400023758 -0.128153786 0.0405000038
v -0.0466040373 -0.134270817 0.0405000038
v -0.0438853577 -0.137204885 0.0405000038
v -0.0372836962 -0.131087855 0.0405000038
v -0.04024469 -0.134513125 0.0282500014
v -0.03694386 -0.131454617 0.04
v -0.04354552 -0.137571648 0.04
v -0.04354552 -0.137571648 0.0165
v -0.03694386 -0.131454617 0.0165
v -0.0591408461 -0.110441662 0.0405000038
v -0.05631447 -0.110549361 0.0405000038
v -0.0590331554 -0.107615292 0.0405000038
v -0.0619672239 -0.110333979 0.0405000038
v -0.0592485443 -0.11326804 0.0405000038
v -0.0436430424 -0.130845547 0.03075
v -0.04034221 -0.127787024 0.0215
v -0.0469438732 -0.133904055 0.0215
v -0.0469438732 -0.133904055 0.04
v -0.04034221 -0.127787024 0.04
v -0.06262506 -0.113670096 0.0285000019
v -0.06563481 -0.113732323 0.0285000019
v -0.06291613 -0.1166664 0.0285000019
v -0.0596153 -0.113607876 0.0285000019
v -0.06233398 -0.110673815 0.0285000019
v -0.03845966 -0.1294509 0.0402500033
v -0.036916934 -0.130748019 0.04
v -0.03963562 -0.12781395 0.04
v -0.0400023758 -0.128153786 0.0405000038
v -0.0372836962 -0.131087855 0.0405000038
v -0.0399889126 -0.1278005 0.0302500017
v -0.03963562 -0.12781395 0.04
v -0.03963562 -0.12781395 0.0205
v -0.04034221 -0.127787024 0.0215
v -0.04034221 -0.127787024 0.04
v -0.0434731245 -0.13102892 0.0402500033
v -0.0466040373 -0.134270817 0.0405000038
v -0.0400023758 -0.128153786 0.0405000038
v -0.04034221 -0.127787024 0.04
v -0.0469438732 -0.133904055 0.04
v -0.0574904345 -0.108912408 0.0402500033
v -0.05594771 -0.110209525 0.04
v -0.0586663932 -0.107275456 0.04
v -0.0590331554 -0.107615292 0.0405000038
v -0.05631447 -0.110549361 0.0405000038
v -0.0369303972 -0.13110131 0.0282500014
v -0.036916934 -0.130748019 0.0165
v -0.036916934 -0.130748019 0.04
v -0.03694386 -0.131454617 0.04
v -0.03694386 -0.131454617 0.0165
v -0.04041461 -0.134329751 0.0402500033
v -0.04354552 -0.137571648 0.04
v -0.03694386 -0.131454617 0.04
v -0.0372836962 -0.131087855 0.0405000038
v -0.0438853577 -0.137204885 0.0405000038
v -0.0454280749 -0.135907769 0.0402500033
v -0.0469707921 -0.134610653 0.04
v -0.0442521125 -0.137544721 0.04
v -0.0438853577 -0.137204885 0.0405000038
v -0.0466040373 -0.134270817 0.0405000038
v -0.0479750447 -0.119181655 0.0207500011
v -0.03963562 -0.12781395 0.0205
v -0.05594771 -0.110209525 0.0205
v -0.0556348041 -0.111282878 0.0210000016
v -0.0406820476 -0.127420262 0.0210000016
v -0.0559611768 -0.110562824 0.0302500017
v -0.05594771 -0.110209525 0.0205
v -0.05594771 -0.110209525 0.04
v -0.0559746362 -0.110916123 0.04
v -0.0559746362 -0.110916123 0.0215
v -0.04381296 -0.130662158 0.02125
v -0.0469438732 -0.133904055 0.0215
v -0.04034221 -0.127787024 0.0215
v -0.0406820476 -0.127420262 0.0210000016
v -0.0472837053 -0.133537292 0.0210000016
v -0.0590196922 -0.107261993 0.0282500014
v -0.0586663932 -0.107275456 0.04
v -0.0586663932 -0.107275456 0.0165
v -0.05937299 -0.10724853 0.0165
v -0.05937299 -0.10724853 0.04
v -0.0479750447 -0.119181655 0.0162500013
v -0.0586663932 -0.107275456 0.0165
v -0.036916934 -0.130748019 0.0165
v -0.0372836962 -0.131087855 0.016
v -0.0590331554 -0.107615292 0.016
v -0.04041461 -0.134329751 0.0162500013
v -0.0438853577 -0.137204885 0.016
v -0.0372836962 -0.131087855 0.016
v -0.03694386 -0.131454617 0.0165
v -0.04354552 -0.137571648 0.0165
v -0.0438988134 -0.137558192 0.0282500014
v -0.0442521125 -0.137544721 0.04
v -0.0442521125 -0.137544721 0.0165
v -0.04354552 -0.137571648 0.0165
v -0.04354552 -0.137571648 0.04
v -0.05910555 -0.114158012 0.02125
v -0.0622364581 -0.117399916 0.0210000016
v -0.0556348041 -0.111282878 0.0210000016
v -0.0559746362 -0.110916123 0.0215
v -0.0625762939 -0.117033154 0.0215
v -0.0625039041 -0.110490426 0.0162500013
v -0.06597465 -0.113365561 0.0165
v -0.05937299 -0.10724853 0.0165
v -0.0590331554 -0.107615292 0.016
v -0.06563481 -0.113732323 0.016
v -0.0549434647 -0.12563853 0.0162500013
v -0.0442521125 -0.137544721 0.0165
v -0.0660015643 -0.114072159 0.0165
v -0.06563481 -0.113732323 0.016
v -0.0438853577 -0.137204885 0.016
v -0.0609124154 -0.1151506 0.0282500014
v -0.06291613 -0.1166664 0.0285000019
v -0.0625762939 -0.117033154 0.028
v -0.05890871 -0.1136348 0.028
v -0.0596153 -0.113607876 0.0285000019
v -0.06397094 -0.11184977 0.0282500014
v -0.06597465 -0.113365561 0.028
v -0.06563481 -0.113732323 0.0285000019
v -0.06233398 -0.110673815 0.0285000019
v -0.06230706 -0.109967217 0.028
v -0.06598811 -0.11371886 0.02225
v -0.0660015643 -0.114072159 0.0165
v -0.0660015643 -0.114072159 0.028
v -0.06597465 -0.113365561 0.028
v -0.06597465 -0.113365561 0.0165
v -0.06445885 -0.115369275 0.0282500014
v -0.0660015643 -0.114072159 0.028
v -0.06328289 -0.117006227 0.028
v -0.06291613 -0.1166664 0.0285000019
v -0.06563481 -0.113732323 0.0285000019
v -0.0629295856 -0.117019691 0.02425
v -0.06328289 -0.117006227 0.028
v -0.06328289 -0.117006227 0.0205
v -0.0625762939 -0.117033154 0.0215
v -0.0625762939 -0.117033154 0.028
v -0.0660015643 -0.114072159 0.0165
v -0.06590316 -0.113810554 0.0163750015
v -0.06563481 -0.113732323 0.016
v -0.06597465 -0.113365561 0.0165
v -0.062320523 -0.110320508 0.034
v -0.06233398 -0.110673815 0.04
v -0.06230706 -0.109967217 0.04
v -0.06230706 -0.109967217 0.028
v -0.06233398 -0.110673815 0.0285000019
v -0.0549434647 -0.12563853 0.0207500011
v -0.06328289 -0.117006227 0.0205
v -0.0469707921 -0.134610653 0.0205
v -0.0472837053 -0.133537292 0.0210000016
v -0.0622364581 -0.117399916 0.0210000016
v -0.06270466 -0.117152095 0.0209750012
v -0.0622364581 -0.117399916 0.0210000016
v -0.0625762939 -0.117033154 0.0215
v -0.06328289 -0.117006227 0.0205
v -0.0592620037 -0.113621339 0.034
v -0.05890871 -0.1136348 0.04
v -0.0596153 -0.113607876 0.04
v -0.0596153 -0.113607876 0.0285000019
v -0.05890871 -0.1136348 0.028
v -0.0439837761 -0.13746649 0.0163750015
v -0.0438853577 -0.137204885 0.016
v -0.04354552 -0.137571648 0.0165
v -0.0442521125 -0.137544721 0.0165
v -0.0590331554 -0.107615292 0.016
v -0.058934737 -0.10735368 0.0163750015
v -0.0586663932 -0.107275456 0.0165
v -0.05937299 -0.10724853 0.0165
v -0.06079126 -0.111970924 0.0402500033
v -0.0592485443 -0.11326804 0.0405000038
v -0.0619672239 -0.110333979 0.0405000038
v -0.06233398 -0.110673815 0.04
v -0.0596153 -0.113607876 0.04
v -0.0606701076 -0.108791247 0.0402500033
v -0.0619672239 -0.110333979 0.0405000038
v -0.0590331554 -0.107615292 0.0405000038
v -0.05937299 -0.10724853 0.04
v -0.06230706 -0.109967217 0.04
v -0.04695733 -0.134257361 0.0302500017
v -0.0469707921 -0.134610653 0.0205
v -0.0469707921 -0.134610653 0.04
v -0.0469438732 -0.133904055 0.04
v -0.0469438732 -0.133904055 0.0215
v -0.0469707921 -0.134610653 0.0205
v -0.04707224 -0.134023011 0.0209750012
v -0.0472837053 -0.133537292 0.0210000016
v -0.0469438732 -0.133904055 0.0215
v -0.05584627 -0.110797182 0.0209750012
v -0.0556348041 -0.111282878 0.0210000016
v -0.05594771 -0.110209525 0.0205
v -0.0559746362 -0.110916123 0.0215
v -0.05761159 -0.112092078 0.0402500033
v -0.05890871 -0.1136348 0.04
v -0.0559746362 -0.110916123 0.04
v -0.05631447 -0.110549361 0.0405000038
v -0.0592485443 -0.11326804 0.0405000038
v -0.0370153561 -0.131009623 0.0163750015
v -0.0372836962 -0.131087855 0.016
v -0.036916934 -0.130748019 0.0165
v -0.03694386 -0.131454617 0.0165
v -0.05937299 -0.10724853 0.04
v -0.058934737 -0.10735368 0.040125
v -0.0586663932 -0.107275456 0.04
v -0.0590331554 -0.107615292 0.0405000038
v -0.0406820476 -0.127420262 0.0210000016
v -0.0402138457 -0.127668083 0.0209750012
v -0.03963562 -0.12781395 0.0205
v -0.04034221 -0.127787024 0.0215
v -0.05631447 -0.110549361 0.0405000038
v -0.0560461357 -0.110471129 0.040125
v -0.05594771 -0.110209525 0.04
v -0.0559746362 -0.110916123 0.04
v -0.0372836962 -0.131087855 0.0405000038
v -0.0370153561 -0.131009623 0.040125
v -0.036916934 -0.130748019 0.04
v -0.03694386 -0.131454617 0.04
v -0.04034221 -0.127787024 0.04
v -0.0399039537 -0.127892181 0.040125
v -0.03963562 -0.12781395 0.04
v -0.0400023758 -0.128153786 0.0405000038
v -0.0586663932 -0.107275456 0.0165
v -0.0582761243 -0.107696645 0.0342361555
v -0.05822338 -0.107753567 0.0339662656
v -0.0581319332 -0.107852258 0.0337065458
v -0.0580039248 -0.107990414 0.0334747
v -0.0582925752 -0.10767889 0.0345000029
v -0.05784634 -0.108160473 0.0332863554
v -0.0586663932 -0.107275456 0.04
v -0.0582761243 -0.107696645 0.03476385
v -0.05822338 -0.107753567 0.03503374
v -0.0581319332 -0.107852258 0.0352934524
v -0.0580039248 -0.107990414 0.0355253071
v -0.05784634 -0.108160473 0.0357136428
v -0.05766982 -0.108350985 0.0358481929
v -0.05748638 -0.108548954 0.0359257944
v -0.0573070534 -0.10874249 0.03595
v -0.05594771 -0.110209525 0.04
v -0.0571277253 -0.108936027 0.0359257944
v -0.05694429 -0.109133996 0.0358481929
v -0.05676776 -0.1093245 0.0357136428
v -0.0566101819 -0.109494567 0.0355253071
v -0.0564821735 -0.109632716 0.0352934524
v -0.0563907251 -0.109731413 0.03503374
v -0.0563379824 -0.109788336 0.03476385
v -0.05632153 -0.109806091 0.0345000029
v -0.05594771 -0.110209525 0.0205
v -0.0563379824 -0.109788336 0.0342361555
v -0.0563907251 -0.109731413 0.0339662656
v -0.0564821735 -0.109632716 0.0337065458
v -0.0566101819 -0.109494567 0.0334747
v -0.05676776 -0.1093245 0.0332863554
v -0.05694429 -0.109133996 0.03315181
v -0.0571277253 -0.108936027 0.0330742076
v -0.0573070534 -0.10874249 0.03305
v -0.05748638 -0.108548954 0.0330742076
v -0.05766982 -0.108350985 0.03315181
v -0.036916934 -0.130748019 0.0165
v -0.03963562 -0.12781395 0.0205
v -0.03942868 -0.128037274 0.0282500014
v -0.03963562 -0.12781395 0.04
v -0.0392618 -0.128217384 0.0345000029
v -0.0392453447 -0.128235132 0.03476385
v -0.039192602 -0.128292054 0.03503374
v -0.0392453447 -0.128235132 0.0342361555
v -0.0391011536 -0.128390759 0.0352934524
v -0.039192602 -0.128292054 0.0339662656
v -0.0391011536 -0.128390759 0.0337065458
v -0.0389731452 -0.128528908 0.0334747
v -0.0388155654 -0.128698975 0.0332863554
v -0.0386390425 -0.128889471 0.03315181
v -0.0389731452 -0.128528908 0.0355253071
v -0.0384556055 -0.129087448 0.0330742076
v -0.0388155654 -0.128698975 0.0357136428
v -0.0382762775 -0.129280984 0.03305
v -0.0386390425 -0.128889471 0.0358481929
v -0.0384556055 -0.129087448 0.0359257944
v -0.0382762775 -0.129280984 0.03595
v -0.036916934 -0.130748019 0.04
v -0.03809695 -0.129474521 0.0359257944
v -0.0379135124 -0.129672483 0.0358481929
v -0.03809695 -0.129474521 0.0330742076
v -0.03773699 -0.129863 0.0357136428
v -0.0379135124 -0.129672483 0.03315181
v -0.03773699 -0.129863 0.0332863554
v -0.0375794061 -0.130033061 0.0334747
v -0.0375794061 -0.130033061 0.0355253071
v -0.0374514 -0.13017121 0.0352934524
v -0.0374514 -0.13017121 0.0337065458
v -0.03735995 -0.1302699 0.03503374
v -0.0373072028 -0.130326822 0.03476385
v -0.0372907519 -0.130344585 0.0345000029
v -0.03735995 -0.1302699 0.0339662656
v -0.0373072028 -0.130326822 0.0342361555
v -0.0372836962 -0.131087855 0.016
v -0.0456573665 -0.128096029 0.016
v -0.04544203 -0.127739638 0.016
v -0.04529515 -0.127331555 0.016
v -0.0452327877 -0.126893058 0.016
v -0.0452616028 -0.12645109 0.016
v -0.045377 -0.126033008 0.016
v -0.0455645956 -0.125661269 0.016
v -0.0458041653 -0.125349909 0.016
v -0.0459199362 -0.128388256 0.016
v -0.0460964 -0.125087336 0.016
v -0.0438853577 -0.137204885 0.016
v -0.0462313034 -0.128627837 0.016
v -0.0466030464 -0.128815427 0.016
v -0.04702112 -0.128930822 0.016
v -0.04746309 -0.128959641 0.016
v -0.04790159 -0.12889728 0.016
v -0.04830967 -0.1287504 0.016
v -0.0486660637 -0.128535062 0.016
v -0.04895829 -0.128272489 0.016
v -0.0530363172 -0.123871386 0.016
v -0.0491978675 -0.127961129 0.016
v -0.04938546 -0.127589375 0.016
v -0.0495008565 -0.127171308 0.016
v -0.04952967 -0.126729339 0.016
v -0.0494673066 -0.126290828 0.016
v -0.06563481 -0.113732323 0.016
v -0.04932043 -0.12588276 0.016
v -0.05711434 -0.119470276 0.016
v -0.05682211 -0.119732842 0.016
v -0.0573539138 -0.119158909 0.016
v -0.0575415045 -0.118787169 0.016
v -0.05646572 -0.119948186 0.016
v -0.0576569028 -0.118369088 0.016
v -0.05605764 -0.120095059 0.016
v -0.0576857179 -0.117927119 0.016
v -0.05561914 -0.120157421 0.016
v -0.0576233566 -0.117488623 0.016
v -0.0551771671 -0.120128609 0.016
v -0.0574764758 -0.117080539 0.016
v -0.05726114 -0.116724148 0.016
v -0.05699857 -0.116431922 0.016
v -0.0590331554 -0.107615292 0.016
v -0.056687206 -0.116192348 0.016
v -0.05631546 -0.116004758 0.016
v -0.05589739 -0.115889356 0.016
v -0.0554554164 -0.115860537 0.016
v -0.0550169125 -0.115922906 0.016
v -0.0546088368 -0.116069779 0.016
v -0.0542524457 -0.116285123 0.016
v -0.05396021 -0.116547689 0.016
v -0.0537206419 -0.116859056 0.016
v -0.0535330474 -0.1172308 0.016
v -0.0464527868 -0.124872 0.016
v -0.04686087 -0.124725118 0.016
v -0.05341765 -0.11764887 0.016
v -0.04729937 -0.124662757 0.016
v -0.053388834 -0.118090846 0.016
v -0.04774134 -0.124691568 0.016
v -0.0534512 -0.118529342 0.016
v -0.048159413 -0.12480697 0.016
v -0.0535980761 -0.118937425 0.016
v -0.0514592528 -0.122410089 0.016
v -0.04853116 -0.124994561 0.016
v -0.0538134128 -0.119293816 0.016
v -0.04884252 -0.125234127 0.016
v -0.0540759861 -0.119586051 0.016
v -0.0491050929 -0.125526354 0.016
v -0.05438735 -0.119825616 0.016
v -0.0547590964 -0.120013215 0.016
v -0.0466030464 -0.128815427 0.0210000016
v -0.0472837053 -0.133537292 0.0210000016
v -0.0462313034 -0.128627837 0.0210000016
v -0.04702112 -0.128930822 0.0210000016
v -0.04746309 -0.128959641 0.0210000016
v -0.04790159 -0.12889728 0.0210000016
v -0.04830967 -0.1287504 0.0210000016
v -0.0486660637 -0.128535062 0.0210000016
v -0.04895829 -0.128272489 0.0210000016
v -0.0459199362 -0.128388256 0.0210000016
v -0.0491978675 -0.127961129 0.0210000016
v -0.0406820476 -0.127420262 0.0210000016
v -0.0456573665 -0.128096029 0.0210000016
v -0.04544203 -0.127739638 0.0210000016
v -0.04529515 -0.127331555 0.0210000016
v -0.0452327877 -0.126893058 0.0210000016
v -0.0452616028 -0.12645109 0.0210000016
v -0.045377 -0.126033008 0.0210000016
v -0.0455645956 -0.125661269 0.0210000016
v -0.0458041653 -0.125349909 0.0210000016
v -0.0460964 -0.125087336 0.0210000016
v -0.0530363172 -0.123871386 0.0210000016
v -0.04938546 -0.127589375 0.0210000016
v -0.0495008565 -0.127171308 0.0210000016
v -0.04952967 -0.126729339 0.0210000016
v -0.0494673066 -0.126290828 0.0210000016
v -0.04932043 -0.12588276 0.0210000016
v -0.0622364581 -0.117399916 0.0210000016
v -0.0514592528 -0.122410089 0.0210000016
v -0.0491050929 -0.125526354 0.0210000016
v -0.04884252 -0.125234127 0.0210000016
v -0.04853116 -0.124994561 0.0210000016
v -0.048159413 -0.12480697 0.0210000016
v -0.04774134 -0.124691568 0.0210000016
v -0.05682211 -0.119732842 0.0210000016
v -0.05711434 -0.119470276 0.0210000016
v -0.0573539138 -0.119158909 0.0210000016
v -0.0575415045 -0.118787169 0.0210000016
v -0.05646572 -0.119948186 0.0210000016
v -0.0576569028 -0.118369088 0.0210000016
v -0.05605764 -0.120095059 0.0210000016
v -0.0576857179 -0.117927119 0.0210000016
v -0.05561914 -0.120157421 0.0210000016
v -0.0551771671 -0.120128609 0.0210000016
v -0.0547590964 -0.120013215 0.0210000016
v -0.0576233566 -0.117488623 0.0210000016
v -0.05438735 -0.119825616 0.0210000016
v -0.0574764758 -0.117080539 0.0210000016
v -0.05726114 -0.116724148 0.0210000016
v -0.05699857 -0.116431922 0.0210000016
v -0.0556348041 -0.111282878 0.0210000016
v -0.056687206 -0.116192348 0.0210000016
v -0.05631546 -0.116004758 0.0210000016
v -0.05589739 -0.115889356 0.0210000016
v -0.0540759861 -0.119586051 0.0210000016
v -0.0554554164 -0.115860537 0.0210000016
v -0.0538134128 -0.119293816 0.0210000016
v -0.0535980761 -0.118937425 0.0210000016
v -0.0534512 -0.118529342 0.0210000016
v -0.053388834 -0.118090846 0.0210000016
v -0.04729937 -0.124662757 0.0210000016
v -0.05341765 -0.11764887 0.0210000016
v -0.04686087 -0.124725118 0.0210000016
v -0.0550169125 -0.115922906 0.0210000016
v -0.0535330474 -0.1172308 0.0210000016
v -0.0464527868 -0.124872 0.0210000016
v -0.0546088368 -0.116069779 0.0210000016
v -0.0537206419 -0.116859056 0.0210000016
v -0.0542524457 -0.116285123 0.0210000016
v -0.05396021 -0.116547689 0.0210000016
v -0.0660015643 -0.114072159 0.028
v -0.06590316 -0.113810554 0.0281250011
v -0.06597465 -0.113365561 0.028
v -0.06563481 -0.113732323 0.0285000019
v -0.06328289 -0.117006227 0.028
v -0.06301455 -0.116928004 0.0281250011
v -0.06291613 -0.1166664 0.0285000019
v -0.0625762939 -0.117033154 0.028
v -0.0619672239 -0.110333979 0.0405000038
v -0.062235564 -0.110412195 0.040125
v -0.06233398 -0.110673815 0.04
v -0.06230706 -0.109967217 0.04
v -0.05890871 -0.1136348 0.04
v -0.0593469664 -0.113529652 0.040125
v -0.0596153 -0.113607876 0.04
v -0.0592485443 -0.11326804 0.0405000038
v -0.0442521125 -0.137544721 0.04
v -0.0439837761 -0.13746649 0.040125
v -0.0438853577 -0.137204885 0.0405000038
v -0.04354552 -0.137571648 0.04
v -0.0469707921 -0.134610653 0.04
v -0.0468723737 -0.134349048 0.040125
v -0.0469438732 -0.133904055 0.04
v -0.0466040373 -0.134270817 0.0405000038
f 1 2 3
f 2 4 3
f 3 4 5
f 2 6 4
f 4 7 5
f 6 8 4
f 4 8 7
f 6 9 8
f 8 10 7
f 9 11 8
f 8 11 10
f 9 12 11
f 11 13 10
f 12 14 11
f 11 14 13
f 12 15 14
f 14 16 13
f 15 17 14
f 14 17 16
f 15 18 17
f 17 19 16
f 18 20 17
f 17 20 19
f 18 21 20
f 21 22 20
f 20 23 19
f 20 22 23
f 21 24 22
f 22 25 23
f 24 26 22
f 22 27 25
f 26 28 22
f 22 28 27
f 26 29 28
f 29 30 28
f 28 31 27
f 28 30 31
f 29 32 30
f 30 33 31
f 32 34 30
f 30 35 33
f 34 36 30
f 30 36 35
f 34 37 36
f 37 38 36
f 36 39 35
f 36 38 39
f 37 40 38
f 38 41 39
f 40 42 38
f 38 43 41
f 42 44 38
f 44 43 38
f 44 45 43
f 46 47 48
f 47 49 48
f 48 49 50
f 47 51 49
f 49 52 50
f 51 53 49
f 49 53 52
f 51 54 53
f 53 55 52
f 54 56 53
f 53 56 55
f 54 57 56
f 56 58 55
f 57 59 56
f 56 59 58
f 57 60 59
f 59 61 58
f 60 62 59
f 59 62 61
f 60 63 62
f 62 64 61
f 63 65 62
f 62 65 64
f 63 66 65
f 66 67 65
f 65 68 64
f 65 67 68
f 66 69 67
f 67 70 68
f 69 71 67
f 67 72 70
f 71 73 67
f 67 73 72
f 71 74 73
f 74 75 73
f 73 76 72
f 73 75 76
f 74 77 75
f 75 78 76
f 77 79 75
f 75 80 78
f 79 81 75
f 75 81 80
f 79 82 81
f 82 83 81
f 81 84 80
f 81 83 84
f 82 85 83
f 83 86 84
f 85 87 83
f 83 88 86
f 87 89 83
f 89 88 83
f 89 90 88
f 91 92 93
f 92 94 93
f 93 94 95
f 92 96 94
f 94 97 95
f 96 98 94
f 94 98 97
f 96 99 98
f 98 100 97
f 99 101 98
f 98 101 100
f 99 102 101
f 101 103 100
f 102 104 101
f 101 104 103
f 102 105 104
f 104 106 103
f 105 107 104
f 104 107 106
f 105 108 107
f 107 109 106
f 108 110 107
f 107 110 109
f 108 111 110
f 111 112 110
f 110 113 109
f 110 112 113
f 111 114 112
f 112 115 113
f 114 116 112
f 112 117 115
f 116 118 112
f 112 118 117
f 116 119 118
f 119 120 118
f 118 121 117
f 118 120 121
f 119 122 120
f 120 123 121
f 122 124 120
f 120 125 123
f 124 126 120
f 120 126 125
f 124 127 126
f 127 128 126
f 126 129 125
f 126 128 129
f 127 130 128
f 128 131 129
f 130 132 128
f 128 133 131
f 132 134 128
f 134 133 128
f 134 135 133
f 136 137 138
f 137 139 138
f 138 139 140
f 137 141 139
f 139 142 140
f 141 143 139
f 139 143 142
f 141 144 143
f 143 145 142
f 144 146 143
f 143 146 145
f 144 147 146
f 146 148 145
f 147 149 146
f 146 149 148
f 147 150 149
f 149 151 148
f 150 152 149
f 149 152 151
f 150 153 152
f 152 154 151
f 153 155 152
f 152 155 154
f 153 156 155
f 156 157 155
f 155 158 154
f 155 157 158
f 156 159 157
f 157 160 158
f 159 161 157
f 157 162 160
f 161 163 157
f 157 163 162
f 161 164 163
f 164 165 163
f 163 166 162
f 163 165 166
f 164 167 165
f 165 168 166
f 167 169 165
f 165 170 168
f 169 171 165
f 165 171 170
f 169 172 171
f 172 173 171
f 171 174 170
f 171 173 174
f 172 175 173
f 173 176 174
f 175 177 173
f 173 178 176
f 177 179 173
f 179 178 173
f 179 180 178
f 181 182 183
f 182 184 183
f 183 184 185
f 182 186 184
f 184 187 185
f 186 188 184
f 184 188 187
f 186 189 188
f 188 190 187
f 189 191 188
f 188 191 190
f 189 192 191
f 191 193 190
f 192 194 191
f 191 194 193
f 192 195 194
f 194 196 193
f 195 197 194
f 194 197 196
f 195 198 197
f 197 199 196
f 198 200 197
f 197 200 199
f 198 201 200
f 201 202 200
f 200 203 199
f 200 202 203
f 201 204 202
f 202 205 203
f 204 206 202
f 202 207 205
f 206 208 202
f 202 208 207
f 206 209 208
f 209 210 208
f 208 211 207
f 208 210 211
f 209 212 210
f 210 213 211
f 212 214 210
f 210 215 213
f 214 216 210
f 210 216 215
f 214 217 216
f 217 218 216
f 216 219 215
f 216 218 219
f 217 220 218
f 218 221 219
f 220 222 218
f 218 223 221
f 222 224 218
f 224 223 218
f 224 225 223
f 226 227 228
f 227 229 228
f 228 229 230
f 227 231 229
f 229 232 230
f 231 233 229
f 229 233 232
f 231 234 233
f 233 235 232
f 234 236 233
f 233 236 235
f 234 237 236
f 236 238 235
f 237 239 236
f 236 239 238
f 237 240 239
f 239 241 238
f 240 242 239
f 239 242 241
f 240 243 242
f 242 244 241
f 243 245 242
f 242 245 244
f 243 246 245
f 246 247 245
f 245 248 244
f 245 247 248
f 246 249 247
f 247 250 248
f 249 251 247
f 247 252 250
f 251 253 247
f 247 253 252
f 251 254 253
f 254 255 253
f 253 256 252
f 253 255 256
f 254 257 255
f 255 258 256
f 257 259 255
f 255 260 258
f 259 261 255
f 255 261 260
f 259 262 261
f 262 263 261
f 261 264 260
f 261 263 264
f 262 265 263
f 263 266 264
f 265 267 263
f 263 268 266
f 267 269 263
f 269 268 263
f 269 270 268
f 271 272 273
f 271 273 274
f 275 271 274
f 274 273 276
f 277 275 274
f 274 276 278
f 279 277 274
f 280 274 278
f 279 274 280
f 280 278 281
f 282 280 281
f 283 279 280
f 283 280 282
f 282 281 284
f 285 283 282
f 282 284 286
f 287 285 282
f 288 282 286
f 287 282 288
f 288 286 289
f 290 288 289
f 291 287 288
f 291 288 290
f 290 289 292
f 293 291 290
f 290 292 294
f 295 293 290
f 296 290 294
f 295 290 296
f 296 294 297
f 298 295 296
f 299 296 297
f 298 296 299
f 299 297 300
f 301 298 299
f 302 299 300
f 301 299 302
f 302 300 303
f 304 301 302
f 305 302 303
f 304 302 305
f 305 303 306
f 307 304 305
f 308 305 306
f 307 305 308
f 308 306 309
f 310 307 308
f 311 308 309
f 310 308 311
f 311 309 312
f 313 310 311
f 314 311 312
f 313 311 314
f 315 313 314
f 314 316 315
f 316 317 315
f 316 318 317
f 315 317 319
f 317 320 319
f 318 321 317
f 317 322 320
f 321 323 317
f 317 323 322
f 321 324 323
f 324 325 323
f 323 326 322
f 323 325 326
f 324 327 325
f 325 328 326
f 327 329 325
f 325 330 328
f 329 331 325
f 325 331 330
f 329 332 331
f 332 333 331
f 331 334 330
f 331 333 334
f 332 335 333
f 333 336 334
f 335 337 333
f 333 338 336
f 337 339 333
f 333 339 338
f 337 340 339
f 339 341 338
f 340 342 339
f 339 342 341
f 340 343 342
f 342 344 341
f 343 345 342
f 342 345 344
f 343 346 345
f 345 347 344
f 346 348 345
f 345 348 347
f 346 349 348
f 348 350 347
f 349 351 348
f 348 351 350
f 349 352 351
f 351 353 350
f 352 354 351
f 351 354 353
f 352 355 354
f 354 356 353
f 355 357 354
f 357 356 354
f 357 358 356
f 359 360 361
f 359 361 362
f 363 359 362
f 362 361 364
f 365 363 362
f 366 362 364
f 365 362 366
f 366 364 367
f 368 365 366
f 369 366 367
f 368 366 369
f 369 367 370
f 371 368 369
f 372 369 370
f 371 369 372
f 372 370 373
f 374 371 372
f 375 372 373
f 374 372 375
f 375 373 376
f 377 374 375
f 378 375 376
f 377 375 378
f 378 376 379
f 380 378 379
f 381 377 378
f 381 378 380
f 380 379 382
f 383 381 380
f 384 380 382
f 385 383 380
f 386 380 384
f 385 380 386
f 387 386 384
f 388 385 386
f 389 386 387
f 389 388 386
f 390 389 387
f 389 390 388
f 390 387 391
f 390 392 388
f 393 390 391
f 390 393 392
f 393 391 394
f 393 395 392
f 396 393 394
f 393 396 395
f 396 394 397
f 396 398 395
f 399 396 397
f 396 399 398
f 399 397 400
f 399 401 398
f 402 399 400
f 399 402 401
f 402 400 403
f 402 404 401
f 405 402 403
f 402 405 404
f 405 403 406
f 404 405 407
f 405 406 407
f 406 408 407
f 408 409 407
f 407 409 410
f 408 411 409
f 409 412 410
f 411 413 409
f 409 413 412
f 411 414 413
f 413 415 412
f 414 416 413
f 413 416 415
f 414 417 416
f 416 418 415
f 417 419 416
f 416 419 418
f 417 420 419
f 419 421 418
f 420 422 419
f 419 422 421
f 420 423 422
f 422 424 421
f 423 425 422
f 422 425 424
f 423 426 425
f 426 427 425
f 425 428 424
f 425 427 428
f 426 429 427
f 427 430 428
f 429 431 427
f 427 432 430
f 431 433 427
f 427 433 432
f 431 434 433
f 433 435 432
f 434 436 433
f 433 436 435
f 434 437 436
f 437 435 436
f 438 437 434
f 437 439 435
f 440 437 438
f 437 440 439
f 441 440 438
f 440 442 439
f 443 440 441
f 440 443 442
f 444 443 441
f 443 445 442
f 446 443 444
f 443 446 445
f 447 446 444
f 446 448 445
f 449 446 447
f 446 449 448
f 450 449 447
f 449 451 448
f 452 449 450
f 449 452 451
f 453 452 450
f 452 454 451
f 452 453 454
f 455 456 457
f 456 458 457
f 456 459 458
f 457 458 460
f 458 461 460
f 459 462 458
f 458 463 461
f 462 464 458
f 458 464 463
f 462 465 464
f 465 466 464
f 464 467 463
f 464 466 467
f 465 468 466
f 466 469 467
f 468 470 466
f 466 471 469
f 470 472 466
f 466 472 471
f 470 473 472
f 473 474 472
f 472 475 471
f 472 474 475
f 473 476 474
f 474 477 475
f 476 478 474
f 474 479 477
f 478 480 474
f 474 480 479
f 478 481 480
f 480 482 479
f 481 483 480
f 480 483 482
f 481 484 483
f 483 485 482
f 484 486 483
f 483 486 485
f 484 487 486
f 486 488 485
f 487 489 486
f 486 489 488
f 487 490 489
f 489 491 488
f 490 492 489
f 489 492 491
f 490 493 492
f 492 494 491
f 493 495 492
f 492 495 494
f 493 496 495
f 495 497 494
f 496 498 495
f 498 497 495
f 498 499 497
f 500 501 502
f 500 502 503
f 504 500 503
f 503 502 505
f 506 504 503
f 507 503 505
f 506 503 507
f 507 505 508
f 509 506 507
f 510 507 508
f 509 507 510
f 510 508 511
f 512 509 510
f 513 510 511
f 512 510 513
f 513 511 514
f 515 512 513
f 516 513 514
f 515 513 516
f 516 514 517
f 518 515 516
f 519 516 517
f 518 516 519
f 519 517 520
f 521 519 520
f 522 518 519
f 522 519 521
f 521 520 523
f 524 522 521
f 525 521 523
f 526 524 521
f 527 521 525
f 526 521 527
f 528 527 525
f 529 526 527
f 530 527 528
f 530 529 527
f 531 530 528
f 530 531 529
f 531 528 532
f 531 533 529
f 534 531 532
f 531 534 533
f 534 532 535
f 534 536 533
f 537 534 535
f 534 537 536
f 537 535 538
f 537 539 536
f 540 537 538
f 537 540 539
f 540 538 541
f 540 542 539
f 543 540 541
f 540 543 542
f 543 541 544
f 543 545 542
f 546 543 544
f 543 546 545
f 546 544 547
f 545 546 548
f 546 547 548
f 547 549 548
f 549 550 548
f 548 550 551
f 549 552 550
f 550 553 551
f 552 554 550
f 550 554 553
f 552 555 554
f 554 556 553
f 555 557 554
f 554 557 556
f 555 558 557
f 557 559 556
f 558 560 557
f 557 560 559
f 558 561 560
f 560 562 559
f 561 563 560
f 560 563 562
f 561 564 563
f 563 565 562
f 564 566 563
f 563 566 565
f 564 567 566
f 567 568 566
f 566 569 565
f 566 568 569
f 567 570 568
f 568 571 569
f 570 572 568
f 568 573 571
f 572 574 568
f 568 574 573
f 572 575 574
f 574 576 573
f 575 577 574
f 574 577 576
f 575 578 577
f 578 576 577
f 579 578 575
f 578 580 576
f 581 578 579
f 578 581 580
f 582 581 579
f 581 583 580
f 584 581 582
f 581 584 583
f 585 584 582
f 584 586 583
f 587 584 585
f 584 587 586
f 588 587 585
f 587 589 586
f 590 587 588
f 587 590 589
f 591 590 588
f 590 592 589
f 593 590 591
f 590 593 592
f 594 593 591
f 593 595 592
f 593 594 595
f 596 597 598
f 597 599 598
f 597 600 599
f 598 599 601
f 599 602 601
f 600 603 599
f 599 604 602
f 603 605 599
f 599 605 604
f 603 606 605
f 606 607 605
f 605 608 604
f 605 607 608
f 606 609 607
f 607 610 608
f 609 611 607
f 607 612 610
f 611 613 607
f 607 613 612
f 611 614 613
f 614 615 613
f 613 616 612
f 613 615 616
f 614 617 615
f 615 618 616
f 617 619 615
f 615 620 618
f 619 621 615
f 615 621 620
f 619 622 621
f 621 623 620
f 622 624 621
f 621 624 623
f 622 625 624
f 624 626 623
f 625 627 624
f 624 627 626
f 625 628 627
f 627 629 626
f 628 630 627
f 627 630 629
f 628 631 630
f 630 632 629
f 631 633 630
f 630 633 632
f 631 634 633
f 633 635 632
f 634 636 633
f 633 636 635
f 634 637 636
f 636 638 635
f 637 639 636
f 639 638 636
f 639 640 638
f 641 642 643
f 642 644 643
f 642 645 644
f 643 644 646
f 644 647 646
f 645 648 644
f 644 649 647
f 648 650 644
f 644 650 649
f 648 651 650
f 651 652 650
f 650 653 649
f 650 652 653
f 651 654 652
f 652 655 653
f 654 656 652
f 652 657 655
f 656 658 652
f 652 658 657
f 656 659 658
f 659 660 658
f 658 661 657
f 658 660 661
f 659 662 660
f 660 663 661
f 662 664 660
f 660 665 663
f 664 666 660
f 660 666 665
f 664 667 666
f 666 668 665
f 667 669 666
f 666 669 668
f 667 670 669
f 669 671 668
f 670 672 669
f 669 672 671
f 670 673 672
f 672 674 671
f 673 675 672
f 672 675 674
f 673 676 675
f 675 677 674
f 676 678 675
f 675 678 677
f 676 679 678
f 678 680 677
f 679 681 678
f 678 681 680
f 679 682 681
f 681 683 680
f 682 684 681
f 684 683 681
f 684 685 683
f 686 687 688
f 687 689 688
f 687 690 689
f 688 689 691
f 689 692 691
f 690 693 689
f 689 694 692
f 693 695 689
f 689 695 694
f 693 696 695
f 696 697 695
f 695 698 694
f 695 697 698
f 696 699 697
f 697 700 698
f 699 701 697
f 697 702 700
f 701 703 697
f 697 703 702
f 701 704 703
f 704 705 703
f 703 706 702
f 703 705 706
f 704 707 705
f 705 708 706
f 707 709 705
f 705 710 708
f 709 711 705
f 705 711 710
f 709 712 711
f 711 713 710
f 712 714 711
f 711 714 713
f 712 715 714
f 714 716 713
f 715 717 714
f 714 717 716
f 715 718 717
f 717 719 716
f 718 720 717
f 717 720 719
f 718 721 720
f 720 722 719
f 721 723 720
f 720 723 722
f 721 724 723
f 723 725 722
f 724 726 723
f 723 726 725
f 724 727 726
f 726 728 725
f 727 729 726
f 729 728 726
f 729 730 728
f 731 732 733
f 731 733 734
f 735 731 734
f 734 733 736
f 737 735 734
f 738 734 736
f 737 734 738
f 738 736 739
f 740 737 738
f 741 738 739
f 740 738 741
f 741 739 742
f 743 740 741
f 744 741 742
f 743 741 744
f 744 742 745
f 746 743 744
f 747 744 745
f 746 744 747
f 747 745 748
f 749 746 747
f 750 747 748
f 749 747 750
f 750 748 751
f 752 750 751
f 753 749 750
f 753 750 752
f 752 751 754
f 755 753 752
f 756 752 754
f 757 755 752
f 758 752 756
f 757 752 758
f 759 758 756
f 760 757 758
f 761 758 759
f 761 760 758
f 762 761 759
f 761 762 760
f 762 759 763
f 762 764 760
f 765 762 763
f 762 765 764
f 765 763 766
f 765 767 764
f 768 765 766
f 765 768 767
f 768 766 769
f 768 770 767
f 771 768 769
f 768 771 770
f 771 769 772
f 771 773 770
f 774 771 772
f 771 774 773
f 774 772 775
f 774 776 773
f 777 774 775
f 774 777 776
f 777 775 778
f 776 777 779
f 777 778 779
f 778 780 779
f 780 781 779
f 779 781 782
f 780 783 781
f 781 784 782
f 783 785 781
f 781 785 784
f 783 786 785
f 785 787 784
f 786 788 785
f 785 788 787
f 786 789 788
f 788 790 787
f 789 791 788
f 788 791 790
f 789 792 791
f 791 793 790
f 792 794 791
f 791 794 793
f 792 795 794
f 794 796 793
f 795 797 794
f 794 797 796
f 795 798 797
f 798 799 797
f 797 800 796
f 797 799 800
f 798 801 799
f 799 802 800
f 801 803 799
f 799 804 802
f 803 805 799
f 799 805 804
f 803 806 805
f 805 807 804
f 806 808 805
f 805 808 807
f 806 809 808
f 809 807 808
f 810 809 806
f 809 811 807
f 812 809 810
f 809 812 811
f 813 812 810
f 812 814 811
f 815 812 813
f 812 815 814
f 816 815 813
f 815 817 814
f 818 815 816
f 815 818 817
f 819 818 816
f 818 820 817
f 821 818 819
f 818 821 820
f 822 821 819
f 821 823 820
f 824 821 822
f 821 824 823
f 825 824 822
f 824 826 823
f 824 825 826
f 827 828 829
f 828 830 829
f 828 831 830
f 829 830 832
f 830 833 832
f 831 834 830
f 830 835 833
f 834 836 830
f 830 836 835
f 834 837 836
f 837 838 836
f 836 839 835
f 836 838 839
f 837 840 838
f 838 841 839
f 840 842 838
f 838 843 841
f 842 844 838
f 838 844 843
f 842 845 844
f 845 846 844
f 844 847 843
f 844 846 847
f 845 848 846
f 846 849 847
f 848 850 846
f 846 851 849
f 850 852 846
f 846 852 851
f 850 853 852
f 852 854 851
f 853 855 852
f 852 855 854
f 853 856 855
f 855 857 854
f 856 858 855
f 855 858 857
f 856 859 858
f 858 860 857
f 859 861 858
f 858 861 860
f 859 862 861
f 861 863 860
f 862 864 861
f 861 864 863
f 862 865 864
f 864 866 863
f 865 867 864
f 864 867 866
f 865 868 867
f 867 869 866
f 868 870 867
f 870 869 867
f 870 871 869
f 872 873 874
f 872 874 875
f 876 872 875
f 875 874 877
f 878 876 875
f 879 875 877
f 878 875 879
f 879 877 880
f 881 878 879
f 882 879 880
f 881 879 882
f 882 880 883
f 884 881 882
f 885 882 883
f 884 882 885
f 885 883 886
f 887 884 885
f 888 885 886
f 887 885 888
f 888 886 889
f 890 887 888
f 891 888 889
f 890 888 891
f 891 889 892
f 893 891 892
f 894 890 891
f 894 891 893
f 893 892 895
f 896 894 893
f 897 893 895
f 898 896 893
f 899 893 897
f 898 893 899
f 900 899 897
f 901 898 899
f 902 899 900
f 902 901 899
f 903 902 900
f 902 903 901
f 903 900 904
f 903 905 901
f 906 903 904
f 903 906 905
f 906 904 907
f 906 908 905
f 909 906 907
f 906 909 908
f 909 907 910
f 909 911 908
f 912 909 910
f 909 912 911
f 912 910 913
f 912 914 911
f 915 912 913
f 912 915 914
f 915 913 916
f 915 917 914
f 918 915 916
f 915 918 917
f 918 916 919
f 917 918 920
f 918 919 920
f 919 921 920
f 921 922 920
f 920 922 923
f 921 924 922
f 922 925 923
f 924 926 922
f 922 926 925
f 924 927 926
f 926 928 925
f 927 929 926
f 926 929 928
f 927 930 929
f 929 931 928
f 930 932 929
f 929 932 931
f 930 933 932
f 932 934 931
f 933 935 932
f 932 935 934
f 933 936 935
f 935 937 934
f 936 938 935
f 935 938 937
f 936 939 938
f 939 940 938
f 938 941 937
f 938 940 941
f 939 942 940
f 940 943 941
f 942 944 940
f 940 945 943
f 944 946 940
f 940 946 945
f 944 947 946
f 946 948 945
f 947 949 946
f 946 949 948
f 947 950 949
f 950 948 949
f 951 950 947
f 950 952 948
f 953 950 951
f 950 953 952
f 954 953 951
f 953 955 952
f 956 953 954
f 953 956 955
f 957 956 954
f 956 958 955
f 959 956 957
f 956 959 958
f 960 959 957
f 959 961 958
f 962 959 960
f 959 962 961
f 963 962 960
f 962 964 961
f 965 962 963
f 962 965 964
f 966 965 963
f 965 967 964
f 965 966 967
f 968 969 970
f 968 970 971
f 972 968 971
f 971 973 972
f 973 974 972
f 973 975 974
f 972 974 976
f 972 976 977
f 978 972 977
f 972 978 979
f 972 979 980
f 975 973 981
f 982 972 980
f 973 983 981
f 973 984 983
f 984 973 985
f 973 986 985
f 986 987 985
f 986 988 987
f 972 982 989
f 988 986 990
f 972 989 991
f 986 992 990
f 993 972 991
f 972 993 994
f 972 994 995
f 996 972 995
f 996 995 997
f 996 997 998
f 986 999 992
f 1000 996 998
f 999 986 1001
f 986 1002 1001
f 986 1003 1002
f 986 996 1003
f 996 1000 1004
f 996 1005 1003
f 996 1004 1006
f 996 1007 1005
f 1007 996 1006
f 1008 1009 1010
f 1009 1011 1010
f 1011 1012 1010
f 1012 1013 1010
f 1014 1015 1016
f 1015 1017 1016
f 1015 1018 1017
f 1018 1015 1019
f 1020 1021 1022
f 1021 1023 1022
f 1021 1024 1023
f 1022 1023 1025
f 1023 1026 1025
f 1024 1027 1023
f 1023 1028 1026
f 1027 1029 1023
f 1023 1029 1028
f 1027 1030 1029
f 1030 1031 1029
f 1029 1032 1028
f 1029 1031 1032
f 1030 1033 1031
f 1031 1034 1032
f 1033 1035 1031
f 1031 1036 1034
f 1035 1037 1031
f 1031 1037 1036
f 1035 1038 1037
f 1038 1039 1037
f 1037 1040 1036
f 1037 1039 1040
f 1038 1041 1039
f 1039 1042 1040
f 1041 1043 1039
f 1039 1044 1042
f 1043 1045 1039
f 1039 1045 1044
f 1043 1046 1045
f 1045 1047 1044
f 1046 1048 1045
f 1045 1048 1047
f 1046 1049 1048
f 1048 1050 1047
f 1049 1051 1048
f 1048 1051 1050
f 1049 1052 1051
f 1051 1053 1050
f 1052 1054 1051
f 1051 1054 1053
f 1052 1055 1054
f 1054 1056 1053
f 1055 1057 1054
f 1054 1057 1056
f 1055 1058 1057
f 1057 1059 1056
f 1058 1060 1057
f 1057 1060 1059
f 1058 1061 1060
f 1060 1062 1059
f 1061 1063 1060
f 1063 1062 1060
f 1063 1064 1062
f 1065 1066 1067
f 1068 1065 1067
f 1065 1068 1069
f 1065 1069 1070
f 1071 1065 1070
f 1065 1071 1072
f 1065 1073 1066
f 1065 1072 1074
f 1065 1075 1073
f 1075 1076 1073
f 1075 1077 1076
f 1078 1065 1074
f 1078 1074 1079
f 1078 1079 1080
f 1077 1075 1081
f 1082 1078 1080
f 1075 1083 1081
f 1078 1082 1084
f 1075 1085 1083
f 1078 1084 1086
f 1085 1075 1087
f 1075 1088 1087
f 1075 1089 1088
f 1075 1090 1089
f 1090 1091 1089
f 1090 1092 1091
f 1093 1078 1086
f 1078 1093 1094
f 1078 1094 1095
f 1090 1078 1095
f 1092 1090 1096
f 1090 1095 1097
f 1090 1098 1096
f 1090 1097 1099
f 1090 1100 1098
f 1100 1090 1099
f 1101 1102 1103
f 1101 1103 1104
f 1102 1101 1105
f 1105 1101 1104
f 1106 1107 1108
f 1106 1108 1109
f 1107 1106 1110
f 1110 1106 1109
f 1111 1112 1113
f 1111 1113 1114
f 1112 1111 1115
f 1115 1111 1114
f 1116 1117 1118
f 1116 1118 1119
f 1117 1116 1120
f 1120 1116 1119
f 1121 1122 1123
f 1121 1123 1124
f 1122 1121 1125
f 1125 1121 1124
f 1126 1127 1128
f 1126 1128 1129
f 1127 1126 1130
f 1130 1126 1129
f 1131 1132 1133
f 1131 1133 1134
f 1132 1131 1135
f 1135 1131 1134
f 1136 1137 1138
f 1136 1138 1139
f 1137 1136 1140
f 1140 1136 1139
f 1141 1142 1143
f 1141 1143 1144
f 1142 1141 1145
f 1145 1141 1144
f 1146 1147 1148
f 1146 1148 1149
f 1147 1146 1150
f 1150 1146 1149
f 1151 1152 1153
f 1151 1153 1154
f 1152 1151 1155
f 1155 1151 1154
f 1156 1157 1158
f 1156 1158 1159
f 1157 1156 1160
f 1160 1156 1159
f 1161 1162 1163
f 1161 1163 1164
f 1162 1161 1165
f 1165 1161 1164
f 1166 1167 1168
f 1166 1168 1169
f 1167 1166 1170
f 1170 1166 1169
f 1171 1172 1173
f 1171 1173 1174
f 1172 1171 1175
f 1175 1171 1174
f 1176 1177 1178
f 1176 1178 1179
f 1177 1176 1180
f 1180 1176 1179
f 1181 1182 1183
f 1181 1183 1184
f 1182 1181 1185
f 1185 1181 1184
f 1186 1187 1188
f 1186 1188 1189
f 1187 1186 1190
f 1190 1186 1189
f 1191 1192 1193
f 1191 1193 1194
f 1192 1191 1195
f 1195 1191 1194
f 1196 1197 1198
f 1196 1198 1199
f 1197 1196 1200
f 1200 1196 1199
f 1201 1202 1203
f 1201 1203 1204
f 1202 1201 1205
f 1205 1201 1204
f 1206 1207 1208
f 1206 1208 1209
f 1207 1206 1210
f 1210 1206 1209
f 1211 1212 1213
f 1211 1213 1214
f 1212 1211 1215
f 1215 1211 1214
f 1216 1217 1218
f 1216 1218 1219
f 1217 1216 1220
f 1220 1216 1219
f 1221 1222 1223
f 1221 1223 1224
f 1222 1221 1225
f 1225 1221 1224
f 1226 1227 1228
f 1226 1228 1229
f 1227 1226 1230
f 1230 1226 1229
f 1231 1232 1233
f 1231 1233 1234
f 1232 1231 1235
f 1235 1231 1234
f 1236 1237 1238
f 1237 1236 1239
f 1237 1239 1238
f 1240 1241 1242
f 1240 1242 1243
f 1241 1240 1244
f 1244 1240 1243
f 1245 1246 1247
f 1245 1247 1248
f 1246 1245 1249
f 1249 1245 1248
f 1250 1251 1252
f 1253 1250 1252
f 1250 1253 1251
f 1254 1255 1256
f 1254 1256 1257
f 1255 1254 1258
f 1258 1254 1257
f 1259 1260 1261
f 1262 1259 1261
f 1259 1262 1260
f 1263 1264 1265
f 1264 1263 1266
f 1264 1266 1265
f 1267 1268 1269
f 1267 1269 1270
f 1268 1267 1271
f 1271 1267 1270
f 1272 1273 1274
f 1272 1274 1275
f 1273 1272 1276
f 1276 1272 1275
f 1277 1278 1279
f 1277 1279 1280
f 1278 1277 1281
f 1281 1277 1280
f 1282 1283 1284
f 1283 1282 1285
f 1283 1285 1284
f 1286 1287 1288
f 1289 1286 1288
f 1286 1289 1287
f 1290 1291 1292
f 1290 1292 1293
f 1291 1290 1294
f 1294 1290 1293
f 1295 1296 1297
f 1298 1295 1297
f 1295 1298 1296
f 1299 1300 1301
f 1300 1299 1302
f 1300 1302 1301
f 1303 1304 1305
f 1304 1303 1306
f 1304 1306 1305
f 1307 1308 1309
f 1308 1307 1310
f 1308 1310 1309
f 1311 1312 1313
f 1312 1311 1314
f 1312 1314 1313
f 1315 1316 1317
f 1316 1315 1318
f 1316 1318 1317
f 1319 1320 1321
f 1319 1321 1322
f 1323 1319 1322
f 1320 1319 1324
f 1319 1323 1325
f 1319 1326 1324
f 1326 1327 1324
f 1326 1328 1327
f 1328 1326 1329
f 1326 1330 1329
f 1326 1331 1330
f 1331 1326 1332
f 1326 1333 1332
f 1326 1334 1333
f 1326 1335 1334
f 1335 1336 1334
f 1335 1337 1336
f 1337 1335 1338
f 1335 1339 1338
f 1335 1340 1339
f 1340 1335 1341
f 1335 1342 1341
f 1335 1343 1342
f 1335 1344 1343
f 1344 1345 1343
f 1344 1346 1345
f 1346 1344 1347
f 1344 1348 1347
f 1344 1349 1348
f 1349 1344 1350
f 1344 1351 1350
f 1344 1352 1351
f 1352 1344 1353
f 1344 1354 1353
f 1344 1325 1354
f 1319 1325 1344
f 1355 1319 1344
f 1355 1344 1356
f 1357 1355 1356
f 1356 1358 1357
f 1358 1359 1357
f 1358 1360 1359
f 1360 1358 1361
f 1362 1357 1359
f 1358 1363 1361
f 1357 1362 1364
f 1357 1364 1365
f 1366 1357 1365
f 1357 1366 1367
f 1357 1367 1368
f 1358 1369 1363
f 1370 1357 1368
f 1369 1358 1371
f 1357 1370 1372
f 1358 1373 1371
f 1358 1374 1373
f 1374 1358 1375
f 1358 1376 1375
f 1376 1377 1375
f 1376 1378 1377
f 1357 1372 1379
f 1378 1376 1380
f 1381 1357 1379
f 1357 1381 1382
f 1357 1382 1383
f 1376 1384 1380
f 1355 1357 1383
f 1376 1385 1384
f 1355 1383 1386
f 1385 1376 1387
f 1376 1388 1387
f 1376 1389 1388
f 1376 1355 1389
f 1390 1355 1386
f 1355 1391 1389
f 1355 1390 1391
f 1392 1393 1394
f 1392 1394 1395
f 1396 1392 1395
f 1392 1396 1397
f 1392 1397 1398
f 1399 1392 1398
f 1392 1399 1400
f 1393 1392 1401
f 1392 1400 1402
f 1392 1403 1401
f 1403 1404 1401
f 1403 1405 1404
f 1405 1403 1406
f 1403 1407 1406
f 1403 1408 1407
f 1408 1403 1409
f 1403 1410 1409
f 1403 1411 1410
f 1403 1412 1411
f 1412 1413 1411
f 1412 1414 1413
f 1414 1412 1415
f 1412 1416 1415
f 1412 1417 1416
f 1403 1418 1412
f 1417 1412 1419
f 1418 1420 1412
f 1421 1412 1420
f 1418 1422 1420
f 1422 1418 1423
f 1412 1421 1424
f 1418 1425 1423
f 1412 1424 1426
f 1418 1427 1425
f 1428 1412 1426
f 1427 1418 1429
f 1412 1428 1430
f 1418 1431 1429
f 1418 1432 1431
f 1432 1418 1433
f 1418 1434 1433
f 1434 1435 1433
f 1434 1436 1435
f 1436 1434 1437
f 1434 1438 1437
f 1434 1439 1438
f 1439 1434 1440
f 1434 1441 1440
f 1434 1442 1441
f 1442 1434 1443
f 1434 1402 1443
f 1434 1392 1402
f 1443 1402 1444
f 1402 1445 1444
f 1445 1446 1444
f 1446 1447 1444
f 1446 1448 1447
f 1448 1449 1447
f 1448 1450 1449
f 1450 1451 1449
f 1450 1452 1451
f 1452 1453 1451
f 1452 1454 1453
f 1455 1454 1452
f 1454 1456 1453
f 1454 1455 1457
f 1456 1454 1458
f 1454 1457 1459
f 1454 1460 1458
f 1419 1454 1459
f 1454 1461 1460
f 1412 1454 1419
f 1454 1412 1461
f 1412 1430 1461
f 1462 1463 1464
f 1463 1462 1465
f 1463 1465 1466
f 1467 1463 1466
f 1463 1467 1468
f 1463 1468 1469
f 1470 1463 1469
f 1463 1471 1464
f 1463 1470 1472
f 1463 1473 1471
f 1473 1474 1471
f 1473 1475 1474
f 1475 1473 1476
f 1473 1477 1476
f 1473 1478 1477
f 1478 1473 1479
f 1473 1480 1479
f 1473 1481 1480
f 1481 1473 1482
f 1463 1472 1483
f 1483 1472 1484
f 1485 1483 1484
f 1483 1485 1486
f 1483 1486 1487
f 1488 1483 1487
f 1489 1463 1483
f 1490 1483 1488
f 1491 1490 1488
f 1490 1491 1492
f 1490 1492 1493
f 1494 1490 1493
f 1490 1494 1495
f 1489 1483 1496
f 1497 1489 1496
f 1489 1497 1498
f 1489 1498 1499
f 1496 1483 1500
f 1501 1489 1499
f 1483 1502 1500
f 1489 1501 1503
f 1483 1504 1502
f 1504 1483 1505
f 1483 1506 1505
f 1483 1490 1506
f 1489 1503 1507
f 1490 1508 1506
f 1509 1489 1507
f 1489 1509 1510
f 1489 1510 1511
f 1512 1489 1511
f 1513 1512 1511
f 1512 1513 1514
f 1512 1514 1515
f 1508 1490 1516
f 1517 1512 1515
f 1490 1518 1516
f 1490 1519 1518
f 1519 1490 1520
f 1490 1495 1520
f 1520 1495 1521
f 1495 1522 1521
f 1522 1523 1521
f 1522 1524 1523
f 1512 1517 1525
f 1524 1526 1523
f 1524 1527 1526
f 1527 1482 1526
f 1512 1525 1528
f 1482 1529 1526
f 1482 1473 1529
f 1473 1512 1529
f 1530 1512 1528
f 1512 1531 1529
f 1512 1530 1531
f 1532 1533 1534
f 1533 1532 1535
f 1533 1535 1534
f 1536 1537 1538
f 1537 1536 1539
f 1537 1539 1538
f 1540 1541 1542
f 1541 1540 1543
f 1541 1543 1542
f 1544 1545 1546
f 1545 1544 1547
f 1545 1547 1546
f 1548 1549 1550
f 1549 1548 1551
f 1549 1551 1550
f 1552 1553 1554
f 1553 1552 1555
f 1553 1555 1554
