# ROS coordinates: X forward, Y left, Z up; units are metres.
o mesh
v 0.142891183 -0.01981196 0.000108717941
v 0.14278163 -0.0260054618 -0.00190398749
v 0.1428862 -0.02009286 0.00144195
v 0.142882779 -0.0202870481 0.00281372247
v 0.142774358 -0.0264162123 -0.000103904866
v 0.142880976 -0.0203889422 0.004215764
v 0.142769217 -0.0267069973 0.00175291859
v 0.142766342 -0.0268694013 0.00365478173
v 0.142765865 -0.026896514 0.005588525
v 0.142880887 -0.02039399 0.005638862
v 0.142767876 -0.02678323 0.00753977
v 0.142856076 -0.0217962973 0.0120120291
v 0.1427724 -0.0265264884 0.009493236
v 0.142882571 -0.0202988777 0.00707302149
v 0.1427795 -0.0261254646 0.0114331115
v 0.142886057 -0.02010167 0.008507678
v 0.142789125 -0.0255816616 0.013343459
v 0.142891362 -0.01980193 0.00993194
v 0.1428012 -0.02489891 0.015208655
v 0.142898455 -0.01940076 0.0113348495
v 0.14281562 -0.0240832958 0.0170138
v 0.142832264 -0.02314296 0.0187451169
v 0.142907292 -0.0189008322 0.0127056632
v 0.142850921 -0.0220878776 0.0203903057
v 0.142917812 -0.0183062982 0.014034126
v 0.14287141 -0.0209294949 0.0219387971
v 0.1429299 -0.0176227055 0.0153107224
v 0.142893508 -0.0196803939 0.0233819634
v 0.142943442 -0.0168568082 0.0165268965
v 0.142916977 -0.0183539018 0.02471322
v 0.142958313 -0.0160163771 0.01767524
v 0.142941564 -0.0169637017 0.0259280466
v 0.142974347 -0.015109974 0.0187496152
v 0.1429914 -0.0141466893 0.0197452419
v 0.143009275 -0.0131359054 0.0206587166
v 0.1530077 -0.0133127607 0.0206587166
v 0.15293999 -0.0171405561 0.0259280466
v 0.15298982 -0.0143235447 0.0197452419
v 0.152972788 -0.0152868293 0.0187496152
v 0.152956754 -0.0161932334 0.01767524
v 0.1529154 -0.0185307562 0.02471322
v 0.152941883 -0.0170336626 0.0165268965
v 0.152891949 -0.01985725 0.0233819634
v 0.152928337 -0.01779956 0.0153107224
v 0.15286985 -0.0211063512 0.0219387971
v 0.152916253 -0.0184831545 0.014034126
v 0.152849361 -0.0222647339 0.0203903057
v 0.152905732 -0.0190776885 0.0127056632
v 0.152854517 -0.0219731517 0.0120120291
v 0.15283069 -0.0233198144 0.0187451169
v 0.152896881 -0.019577615 0.0113348495
v 0.15281406 -0.0242601521 0.0170138
v 0.152889788 -0.019978784 0.00993194
v 0.152799636 -0.0250757672 0.015208655
v 0.152884483 -0.0202785246 0.008507678
v 0.152787566 -0.025758516 0.013343459
v 0.152881 -0.020475734 0.00707302149
v 0.15277794 -0.026302319 0.0114331115
v 0.152770847 -0.0267033428 0.009493236
v 0.1527663 -0.0269600861 0.00753977
v 0.152879328 -0.0205708444 0.005638862
v 0.1527643 -0.0270733684 0.005588525
v 0.152879417 -0.0205657966 0.004215764
v 0.152764782 -0.0270462558 0.00365478173
v 0.152767658 -0.0268838517 0.00175291859
v 0.1527728 -0.0265930668 -0.000103904866
v 0.1528812 -0.0204639025 0.00281372247
v 0.152780056 -0.0261823162 -0.00190398749
v 0.152884647 -0.0202697143 0.00144195
v 0.152889609 -0.0199888162 0.000108717941
v 0.147974625 -0.0151382312 0.0232933816
v 0.1530077 -0.0133127607 0.0206587166
v 0.143009275 -0.0131359054 0.0206587166
v 0.142941564 -0.0169637017 0.0259280466
v 0.15293999 -0.0171405561 0.0259280466
v 0.142891183 -0.01981196 0.000108717941
v 0.147885427 -0.0201812871 0.00144195
v 0.152889609 -0.0199888162 0.000108717941
v 0.1428862 -0.02009286 0.00144195
v 0.152884647 -0.0202697143 0.00144195
v 0.142882779 -0.0202870481 0.00281372247
v 0.147882 -0.0203754753 0.00281372247
v 0.1528812 -0.0204639025 0.00281372247
v 0.142880976 -0.0203889422 0.004215764
v 0.1478802 -0.02047737 0.004215764
v 0.152879417 -0.0205657966 0.004215764
v 0.142880887 -0.02039399 0.005638862
v 0.1478801 -0.0204824172 0.005638862
v 0.152879328 -0.0205708444 0.005638862
v 0.142882571 -0.0202988777 0.00707302149
v 0.147881776 -0.0203873049 0.00707302149
v 0.152881 -0.020475734 0.00707302149
v 0.142886057 -0.02010167 0.008507678
v 0.147885278 -0.0201900974 0.008507678
v 0.152884483 -0.0202785246 0.008507678
v 0.142891362 -0.01980193 0.00993194
v 0.147890568 -0.0198903568 0.00993194
v 0.152889788 -0.019978784 0.00993194
v 0.142898455 -0.01940076 0.0113348495
v 0.147897676 -0.0194891877 0.0113348495
v 0.152896881 -0.019577615 0.0113348495
v 0.142907292 -0.0189008322 0.0127056632
v 0.147906512 -0.01898926 0.0127056632
v 0.152905732 -0.0190776885 0.0127056632
v 0.142917812 -0.0183062982 0.014034126
v 0.147917032 -0.0183947254 0.014034126
v 0.152916253 -0.0184831545 0.014034126
v 0.1429299 -0.0176227055 0.0153107224
v 0.147929117 -0.0177111328 0.0153107224
v 0.152928337 -0.01779956 0.0153107224
v 0.142943442 -0.0168568082 0.0165268965
v 0.147942662 -0.0169452354 0.0165268965
v 0.152941883 -0.0170336626 0.0165268965
v 0.142958313 -0.0160163771 0.01767524
v 0.147957534 -0.0161048044 0.01767524
v 0.152956754 -0.0161932334 0.01767524
v 0.142974347 -0.015109974 0.0187496152
v 0.147973567 -0.0151984021 0.0187496152
v 0.152972788 -0.0152868293 0.0187496152
v 0.1429914 -0.0141466893 0.0197452419
v 0.1479906 -0.0142351175 0.0197452419
v 0.15298982 -0.0143235447 0.0197452419
v 0.143009275 -0.0131359054 0.0206587166
v 0.1530077 -0.0133127607 0.0206587166
v 0.147835627 -0.0229971372 -0.0008976357
v 0.152780056 -0.0261823162 -0.00190398749
v 0.14278163 -0.0260054618 -0.00190398749
v 0.142891183 -0.01981196 0.000108717941
v 0.152889609 -0.0199888162 0.000108717941
v 0.152780056 -0.0261823162 -0.00190398749
v 0.147773579 -0.02650464 -0.000103904866
v 0.14278163 -0.0260054618 -0.00190398749
v 0.1527728 -0.0265930668 -0.000103904866
v 0.142774358 -0.0264162123 -0.000103904866
v 0.152767658 -0.0268838517 0.00175291859
v 0.147768438 -0.0267954245 0.00175291859
v 0.142769217 -0.0267069973 0.00175291859
v 0.152764782 -0.0270462558 0.00365478173
v 0.147765562 -0.0269578286 0.00365478173
v 0.142766342 -0.0268694013 0.00365478173
v 0.1527643 -0.0270733684 0.005588525
v 0.147765085 -0.0269849412 0.005588525
v 0.142765865 -0.026896514 0.005588525
v 0.1527663 -0.0269600861 0.00753977
v 0.147767082 -0.026871657 0.00753977
v 0.142767876 -0.02678323 0.00753977
v 0.152770847 -0.0267033428 0.009493236
v 0.147771627 -0.0266149156 0.009493236
v 0.1427724 -0.0265264884 0.009493236
v 0.15277794 -0.026302319 0.0114331115
v 0.14777872 -0.0262138918 0.0114331115
v 0.1427795 -0.0261254646 0.0114331115
v 0.152787566 -0.025758516 0.013343459
v 0.147788346 -0.0256700888 0.013343459
v 0.142789125 -0.0255816616 0.013343459
v 0.152799636 -0.0250757672 0.015208655
v 0.147800416 -0.0249873381 0.015208655
v 0.1428012 -0.02489891 0.015208655
v 0.15281406 -0.0242601521 0.0170138
v 0.14781484 -0.0241717231 0.0170138
v 0.14281562 -0.0240832958 0.0170138
v 0.15283069 -0.0233198144 0.0187451169
v 0.14783147 -0.0232313871 0.0187451169
v 0.142832264 -0.02314296 0.0187451169
v 0.152849361 -0.0222647339 0.0203903057
v 0.147850141 -0.0221763048 0.0203903057
v 0.142850921 -0.0220878776 0.0203903057
v 0.15286985 -0.0211063512 0.0219387971
v 0.14787063 -0.0210179221 0.0219387971
v 0.14287141 -0.0209294949 0.0219387971
v 0.152891949 -0.01985725 0.0233819634
v 0.147892728 -0.0197688211 0.0233819634
v 0.142893508 -0.0196803939 0.0233819634
v 0.1529154 -0.0185307562 0.02471322
v 0.147916183 -0.018442329 0.02471322
v 0.142916977 -0.0183539018 0.02471322
v 0.15293999 -0.0171405561 0.0259280466
v 0.142941564 -0.0169637017 0.0259280466
f 1 2 3
f 2 4 3
f 2 5 4
f 5 6 4
f 5 7 6
f 7 8 6
f 8 9 6
f 9 10 6
f 9 11 10
f 11 12 10
f 11 13 12
f 10 12 14
f 13 15 12
f 12 16 14
f 15 17 12
f 12 18 16
f 17 19 12
f 18 12 20
f 19 21 12
f 21 22 12
f 12 23 20
f 22 24 12
f 24 23 12
f 24 25 23
f 24 26 25
f 26 27 25
f 26 28 27
f 28 29 27
f 28 30 29
f 30 31 29
f 30 32 31
f 32 33 31
f 32 34 33
f 34 32 35
f 36 37 38
f 37 39 38
f 37 40 39
f 37 41 40
f 41 42 40
f 41 43 42
f 43 44 42
f 43 45 44
f 45 46 44
f 45 47 46
f 47 48 46
f 47 49 48
f 49 47 50
f 49 51 48
f 52 49 50
f 49 53 51
f 49 52 54
f 53 49 55
f 49 54 56
f 49 57 55
f 58 49 56
f 49 58 59
f 49 59 60
f 49 61 57
f 61 49 60
f 61 60 62
f 63 61 62
f 64 63 62
f 63 64 65
f 63 65 66
f 67 63 66
f 66 68 67
f 68 69 67
f 68 70 69
f 71 72 73
f 71 73 74
f 72 71 75
f 75 71 74
f 76 77 78
f 77 76 79
f 77 80 78
f 77 79 81
f 77 82 80
f 82 77 81
f 82 83 80
f 82 81 84
f 82 85 83
f 85 82 84
f 85 86 83
f 85 84 87
f 85 88 86
f 88 85 87
f 88 89 86
f 88 87 90
f 88 91 89
f 91 88 90
f 91 92 89
f 91 90 93
f 91 94 92
f 94 91 93
f 94 95 92
f 94 93 96
f 94 97 95
f 97 94 96
f 97 98 95
f 97 96 99
f 97 100 98
f 100 97 99
f 100 101 98
f 100 99 102
f 100 103 101
f 103 100 102
f 103 104 101
f 103 102 105
f 103 106 104
f 106 103 105
f 106 107 104
f 106 105 108
f 106 109 107
f 109 106 108
f 109 110 107
f 109 108 111
f 109 112 110
f 112 109 111
f 112 113 110
f 112 111 114
f 112 115 113
f 115 112 114
f 115 116 113
f 115 114 117
f 115 118 116
f 118 115 117
f 118 119 116
f 118 117 120
f 118 121 119
f 121 118 120
f 121 122 119
f 121 120 123
f 121 124 122
f 124 121 123
f 125 126 127
f 125 127 128
f 126 125 129
f 129 125 128
f 130 131 132
f 131 130 133
f 131 134 132
f 131 133 135
f 131 136 134
f 136 131 135
f 136 137 134
f 136 135 138
f 136 139 137
f 139 136 138
f 139 140 137
f 139 138 141
f 139 142 140
f 142 139 141
f 142 143 140
f 142 141 144
f 142 145 143
f 145 142 144
f 145 146 143
f 145 144 147
f 145 148 146
f 148 145 147
f 148 149 146
f 148 147 150
f 148 151 149
f 151 148 150
f 151 152 149
f 151 150 153
f 151 154 152
f 154 151 153
f 154 155 152
f 154 153 156
f 154 157 155
f 157 154 156
f 157 158 155
f 157 156 159
f 157 160 158
f 160 157 159
f 160 161 158
f 160 159 162
f 160 163 161
f 163 160 162
f 163 164 161
f 163 162 165
f 163 166 164
f 166 163 165
f 166 167 164
f 166 165 168
f 166 169 167
f 169 166 168
f 169 170 167
f 169 168 171
f 169 172 170
f 172 169 171
f 172 173 170
f 172 171 174
f 172 175 173
f 175 172 174
f 175 176 173
f 175 174 177
f 175 178 176
f 178 175 177
