# ROS coordinates: X forward, Y left, Z up; units are metres.
o mesh
v -0.0985785648 -0.07048096 0.02927676
v -0.09775039 -0.0719779655 0.0287206955
v -0.100766122 -0.07169116 0.02927676
v -0.0999379456 -0.07318816 0.0287206955
v -0.0982217342 -0.07370817 0.02841121
v -0.0968725 -0.07356483 0.0283098854
v -0.09906006 -0.07477503 0.0283098854
v -0.0959532559 -0.0752264559 0.0280647557
v -0.09814082 -0.0764366537 0.0280647557
v -0.0966429859 -0.07656193 0.0280149616
v -0.09500333 -0.07694355 0.02800314
v -0.09719089 -0.0781537443 0.02800314
v -0.0958218 -0.07804629 0.0280213077
v -0.09403546 -0.07869306 0.0281389728
v -0.09622302 -0.07990326 0.0281389728
v -0.0949903354 -0.0795492455 0.0281750821
v -0.09306406 -0.0804489553 0.028481096
v -0.09525162 -0.08165915 0.028481096
v -0.0941578448 -0.0810540542 0.028481096
v -0.0933341 -0.08254306 0.02894082
v -0.09210458 -0.0821833238 0.02903229
v -0.094292134 -0.08339353 0.02903229
v -0.09252902 -0.083998315 0.0295521561
v -0.09117272 -0.08386774 0.0297887363
v -0.093360275 -0.08507795 0.0297887363
v -0.0917523 -0.08540231 0.0303093735
v -0.09028366 -0.085474804 0.0307399463
v -0.09247122 -0.08668501 0.0307399463
v -0.09101301 -0.08673865 0.0312032923
v -0.0894512162 -0.08697954 0.0318692327
v -0.09163877 -0.088189736 0.0318692327
v -0.09031925 -0.08799268 0.03222163
v -0.0886871144 -0.08836072 0.03315466
v -0.09087467 -0.08957092 0.03315466
v -0.0896778852 -0.0891520157 0.0333495662
v -0.08800052 -0.0896018147 0.03457038
v -0.09018808 -0.09081201 0.03457038
v -0.0890942961 -0.09020691 0.03457038
v -0.08739768 -0.0906915 0.03608819
v -0.08958524 -0.0919017047 0.03608819
v -0.08811409 -0.09197873 0.037218757
v -0.08688191 -0.09162379 0.0376790725
v -0.08906948 -0.0928339958 0.0376790725
v -0.08760338 -0.0929018855 0.03907933
v -0.08645375 -0.09239774 0.0393147022
v -0.08720502 -0.0936219543 0.0409686267
v -0.08864131 -0.09360795 0.0393147022
v -0.08611125 -0.0930168554 0.0409686267
v -0.0882988051 -0.09422706 0.0409686267
v -0.0858420655 -0.09350342 0.0426794365
v -0.08802962 -0.09471363 0.0426794365
v -0.0869028941 -0.0941681 0.04293257
v -0.0856432 -0.09386289 0.04449295
v -0.08783076 -0.0950731 0.04449295
v -0.08669449 -0.0945448056 0.0450276658
v -0.08552454 -0.094077386 0.0463918969
v -0.0877120942 -0.09528759 0.0463918969
v -0.08659421 -0.09472606 0.0472265854
v -0.08549471 -0.0941313058 0.04835424
v -0.08768227 -0.0953415 0.04835424
v -0.08661402 -0.09469025 0.0494940542
v -0.08556046 -0.09401245 0.0503536277
v -0.08774802 -0.0952226445 0.0503536277
v -0.08676221 -0.09442238 0.05178806
v -0.08572608 -0.09371308 0.0523603149
v -0.08791364 -0.09492328 0.0523603149
v -0.0870424062 -0.09391591 0.05406198
v -0.0859929 -0.09323077 0.0543423928
v -0.0874528661 -0.0931739658 0.0562674
v -0.08818046 -0.0944409743 0.0543423928
v -0.08635908 -0.09256886 0.0562674
v -0.08854664 -0.0937790647 0.0562674
v -0.0868195444 -0.09173653 0.0581039861
v -0.0890071 -0.09294674 0.0581039861
v -0.087986365 -0.09220961 0.05835743
v -0.08736621 -0.0907483846 0.059823636
v -0.08955377 -0.09195858 0.059823636
v -0.08863058 -0.09104513 0.06028996
v -0.087988466 -0.0896236 0.0614020824
v -0.09017602 -0.0908338055 0.0614020824
v -0.08936901 -0.08971035 0.06203045
v -0.0886737853 -0.08838481 0.0628204346
v -0.09086135 -0.08959501 0.0628204346
v -0.09018227 -0.0882402956 0.063553825
v -0.08940853 -0.0870567 0.06406577
v -0.09159609 -0.0882668942 0.06406577
v -0.0910496 -0.08667252 0.06484532
v -0.0901786461 -0.08566464 0.06513122
v -0.0923662 -0.0868748352 0.06513122
v -0.09195026 -0.08504448 0.0659003258
v -0.09097042 -0.08423342 0.0660157055
v -0.09315798 -0.08544362 0.0660157055
v -0.09177105 -0.0827862 0.06672324
v -0.09395861 -0.0839964 0.06672324
v -0.09259922 -0.0812892 0.06727931
v -0.09478678 -0.0824994 0.06727931
v -0.09431543 -0.0807691962 0.06758879
v -0.093477115 -0.07970233 0.06769012
v -0.09566467 -0.08091253 0.06769012
v -0.09439635 -0.07804071 0.06793525
v -0.09658391 -0.07925091 0.06793525
v -0.09589419 -0.077915445 0.06798504
v -0.09534629 -0.07632361 0.06799687
v -0.0975338444 -0.07753382 0.06799687
v -0.0967153758 -0.07643107 0.067978695
v -0.09631415 -0.0745741054 0.0678610355
v -0.09850171 -0.07578431 0.0678610355
v -0.09754684 -0.07492812 0.0678249151
v -0.0972855538 -0.0728182048 0.0675189048
v -0.09947311 -0.07402841 0.0675189048
v -0.09837933 -0.07342331 0.0675189048
v -0.09920307 -0.0719343051 0.06705918
v -0.09824504 -0.07108384 0.06696771
v -0.1004326 -0.07229404 0.06696771
v -0.100008152 -0.07047905 0.066447854
v -0.09917689 -0.06939942 0.06621127
v -0.101364449 -0.0706096143 0.06621127
v -0.100784875 -0.06907505 0.06569062
v -0.100065954 -0.067792356 0.06526005
v -0.102253512 -0.06900256 0.06526005
v -0.101524159 -0.06773871 0.064796716
v -0.1008984 -0.06628762 0.06413077
v -0.103085957 -0.06749783 0.06413077
v -0.10221792 -0.0664846748 0.06377837
v -0.1016625 -0.06490645 0.06284535
v -0.103850052 -0.0661166459 0.06284535
v -0.102859281 -0.06532535 0.06265043
v -0.102349095 -0.06366535 0.0614296235
v -0.104536653 -0.06487556 0.0614296235
v -0.103442878 -0.06427045 0.0614296235
v -0.102951936 -0.06257566 0.0599118136
v -0.105139494 -0.0637858659 0.0599118136
v -0.104423076 -0.0624986328 0.0587812476
v -0.1034677 -0.06164337 0.05832093
v -0.105655253 -0.0628535748 0.05832093
v -0.104933783 -0.0615754761 0.05692067
v -0.103895865 -0.0608694181 0.0566853024
v -0.105332144 -0.0608554073 0.0550313741
v -0.106083423 -0.06207962 0.0566853024
v -0.104238369 -0.06025031 0.0550313741
v -0.106425926 -0.06146051 0.0550313741
v -0.104507551 -0.05976374 0.0533205681
v -0.1066951 -0.0609739423 0.0533205681
v -0.10563428 -0.06030927 0.05306743
v -0.104706414 -0.0594042726 0.051507052
v -0.106893972 -0.0606144741 0.051507052
v -0.105842687 -0.059932556 0.05097234
v -0.104825079 -0.0591897741 0.0496081077
v -0.107012637 -0.0603999756 0.0496081077
v -0.105942957 -0.059751302 0.04877342
v -0.104854904 -0.059135858 0.0476457663
v -0.107042462 -0.06034606 0.0476457663
v -0.105923146 -0.05978711 0.0465059541
v -0.104789153 -0.0592547171 0.0456463769
v -0.1069767 -0.06046492 0.0456463769
v -0.105774954 -0.06005498 0.04421194
v -0.104623534 -0.05955409 0.04363969
v -0.106811091 -0.06076429 0.04363969
v -0.105494767 -0.06056145 0.04193802
v -0.104356706 -0.0600363947 0.04165761
v -0.105084307 -0.0613034 0.0397326052
v -0.106544271 -0.0612465963 0.04165761
v -0.103990532 -0.0606983 0.0397326052
v -0.10617809 -0.0619085021 0.0397326052
v -0.103530072 -0.0615306273 0.03789602
v -0.105717629 -0.06274083 0.03789602
v -0.104550809 -0.0622677542 0.0376425758
v -0.1029834 -0.0625187755 0.03617637
v -0.105170965 -0.06372898 0.03617637
v -0.103906587 -0.06343223 0.03571004
v -0.102361158 -0.06364356 0.03459792
v -0.104548708 -0.06485376 0.03459792
v -0.10316816 -0.06476702 0.0339695551
v -0.101675823 -0.06488235 0.0331795663
v -0.103863388 -0.06609255 0.0331795663
v -0.1023549 -0.06623706 0.0324461833
v -0.100941084 -0.06621046 0.03193424
v -0.103128642 -0.06742067 0.03193424
v -0.101487577 -0.0678048357 0.0311546829
v -0.10017097 -0.06760253 0.0308687873
v -0.102358527 -0.06881273 0.0308687873
v -0.100586914 -0.0694328845 0.0300996769
v -0.09937919 -0.06903374 0.0299843
v -0.101566747 -0.07024394 0.0299843
v -0.0985785648 -0.07048096 0.02927676
v -0.100766122 -0.07169116 0.02927676
v -0.09667246 -0.07392643 0.0397617742
v -0.09886002 -0.07513663 0.0397617742
v -0.09874912 -0.07533708 0.03969893
v -0.09763852 -0.0747624 0.03969322
v -0.096561566 -0.0741268843 0.03969893
v -0.09862763 -0.0755566955 0.03967899
v -0.09644007 -0.0743465 0.03967899
v -0.0974979848 -0.0750164241 0.0396824181
v -0.09850158 -0.07578455 0.039710056
v -0.09631401 -0.07457435 0.039710056
v -0.0973542556 -0.07527623 0.03973994
v -0.0983786359 -0.07600677 0.039795056
v -0.09619108 -0.07479657 0.039795056
v -0.0972190946 -0.0755205452 0.03986669
v -0.0982667357 -0.07620904 0.0399302877
v -0.09607918 -0.07499884 0.0399302877
v -0.09710352 -0.07572945 0.0400523432
v -0.09817244 -0.0763794854 0.04010586
v -0.09598488 -0.07516928 0.04010586
v -0.09701495 -0.07588956 0.0402780063
v -0.09809974 -0.07651091 0.0403079242
v -0.0969558656 -0.07599636 0.04052175
v -0.09591217 -0.0753007159 0.0403079242
v -0.09804964 -0.07660146 0.04052175
v -0.09586208 -0.07539126 0.04052175
v -0.09801922 -0.07665645 0.0407508276
v -0.09583166 -0.0754462555 0.0407508276
v -0.09692268 -0.07605635 0.04078558
v -0.098009564 -0.0766739 0.04100181
v -0.09582201 -0.0754637 0.04100181
v -0.09691579 -0.0760688 0.04100181
v -0.096927084 -0.07604839 0.0412250124
v -0.09802461 -0.0766467154 0.0412622057
v -0.09583705 -0.07543652 0.0412622057
v -0.0969575942 -0.07599323 0.0414452441
v -0.09806575 -0.07657234 0.04151617
v -0.09587819 -0.0753621459 0.04151617
v -0.09700665 -0.07590456 0.0416520163
v -0.09813122 -0.07645401 0.0417473242
v -0.09594366 -0.07524381 0.0417473242
v -0.0970718339 -0.07578674 0.041835878
v -0.0982162058 -0.07630038 0.0419421121
v -0.09602865 -0.0750901848 0.0419421121
v -0.09714939 -0.07564656 0.04198978
v -0.0983140245 -0.0761235654 0.0420923159
v -0.09612647 -0.07491337 0.0420923159
v -0.0972348452 -0.075492084 0.0421099365
v -0.09841753 -0.07593647 0.042195797
v -0.09622997 -0.07472627 0.042195797
v -0.09852842 -0.075736016 0.0422586426
v -0.09745147 -0.0751005039 0.04226435
v -0.0963408649 -0.07452582 0.0422586426
v -0.09864992 -0.0755164 0.04227858
v -0.09646236 -0.0743062049 0.04227858
v -0.097592 -0.07484648 0.0422751531
v -0.09877597 -0.07528855 0.0422475152
v -0.09658841 -0.07407835 0.0422475152
v -0.09773573 -0.07458667 0.0422176346
v -0.09889891 -0.07506633 0.04216252
v -0.09671135 -0.07385613 0.04216252
v -0.0978708938 -0.0743423551 0.0420908853
v -0.09901081 -0.07486406 0.0420272872
v -0.0968232453 -0.07365386 0.0420272872
v -0.09798647 -0.07413345 0.041905228
v -0.0991051048 -0.07469362 0.04185171
v -0.09691754 -0.0734834149 0.04185171
v -0.09807503 -0.07397335 0.04167957
v -0.099177815 -0.0745621845 0.0416496471
v -0.09813412 -0.07386654 0.0414358266
v -0.09699026 -0.07335198 0.0416496471
v -0.0992279053 -0.07447164 0.0414358266
v -0.09704035 -0.07326144 0.0414358266
v -0.099258326 -0.0744166449 0.0412067436
v -0.09707077 -0.07320644 0.0412067436
v -0.09816731 -0.0738065541 0.04117199
v -0.09926798 -0.0743991956 0.04095576
v -0.0970804244 -0.073189 0.04095576
v -0.0981742 -0.0737941 0.04095576
v -0.09816291 -0.07381451 0.0407325625
v -0.09925294 -0.07442638 0.0406953655
v -0.09706538 -0.073216185 0.0406953655
v -0.0981323943 -0.07386967 0.04051233
v -0.0992118 -0.0745007545 0.040441405
v -0.09702424 -0.07329056 0.040441405
v -0.09808334 -0.07395834 0.0403055549
v -0.09914633 -0.0746190846 0.040210247
v -0.09695877 -0.07340889 0.040210247
v -0.0980181545 -0.07407616 0.0401216969
v -0.09906134 -0.07477272 0.04001546
v -0.09687378 -0.07356252 0.04001546
v -0.0979406 -0.07421634 0.0399677865
v -0.09896352 -0.07494953 0.0398652554
v -0.0967759639 -0.0737393349 0.0398652554
v -0.09785514 -0.07437082 0.0398476347
v -0.09886002 -0.07513663 0.0397617742
v -0.09667246 -0.07392643 0.0397617742
v -0.09199721 -0.08237739 0.0441462249
v -0.09418477 -0.08358759 0.0441462249
v -0.09407388 -0.0837880448 0.04408338
v -0.09296328 -0.08321336 0.0440776721
v -0.09188632 -0.08257784 0.04408338
v -0.09395239 -0.08400766 0.0440634377
v -0.09176482 -0.08279745 0.0440634377
v -0.09282274 -0.08346739 0.04406687
v -0.09382633 -0.08423551 0.0440945067
v -0.09163877 -0.08302531 0.0440945067
v -0.09267901 -0.0837271959 0.0441243872
v -0.0937034 -0.08445773 0.0441795066
v -0.09151584 -0.08324753 0.0441795066
v -0.0925438553 -0.0839715 0.04425114
v -0.0935915 -0.08466 0.0443147346
v -0.09140394 -0.0834497958 0.0443147346
v -0.09242828 -0.0841804147 0.0444367938
v -0.0934972 -0.08483045 0.04449031
v -0.0913096443 -0.08362024 0.04449031
v -0.09233971 -0.08434051 0.0446624532
v -0.09342449 -0.0849618763 0.04469238
v -0.09228062 -0.0844473243 0.0449061953
v -0.0912369341 -0.08375167 0.04469238
v -0.0933744 -0.08505242 0.0449061953
v -0.09118684 -0.08384222 0.0449061953
v -0.09334397 -0.0851074159 0.04513528
v -0.0911564156 -0.08389722 0.04513528
v -0.092247434 -0.08450731 0.0451700352
v -0.0933343247 -0.0851248652 0.0453862622
v -0.09114677 -0.08391466 0.0453862622
v -0.09224054 -0.08451976 0.0453862622
v -0.09225184 -0.08449935 0.04560946
v -0.09334937 -0.08509768 0.0456466563
v -0.0911618 -0.08388747 0.0456466563
v -0.0922823548 -0.084444195 0.04582969
v -0.09339051 -0.08502331 0.0459006168
v -0.09120295 -0.0838131 0.0459006168
v -0.09233141 -0.08435552 0.04603647
v -0.09345597 -0.08490497 0.04613177
v -0.09126841 -0.08369477 0.04613177
v -0.09239659 -0.0842376947 0.0462203249
v -0.09354097 -0.08475134 0.0463265628
v -0.0913534 -0.08354114 0.0463265628
v -0.09247414 -0.08409751 0.0463742353
v -0.09363878 -0.08457453 0.0464767665
v -0.09145122 -0.08336433 0.0464767665
v -0.0925596 -0.08394304 0.0464943871
v -0.09374229 -0.08438743 0.0465802476
v -0.09155473 -0.08317723 0.0465802476
v -0.0938531756 -0.08418698 0.0466430932
v -0.092776224 -0.08355147 0.0466488
v -0.09166562 -0.08297678 0.0466430932
v -0.09397468 -0.08396736 0.04666303
v -0.0917871147 -0.08275716 0.04666303
v -0.0929167643 -0.08329743 0.0466596037
v -0.09410073 -0.08373951 0.0466319658
v -0.09191317 -0.08252931 0.0466319658
v -0.09306049 -0.08303763 0.04660208
v -0.09422366 -0.08351729 0.0465469658
v -0.0920361057 -0.0823070854 0.0465469658
v -0.09319565 -0.08279332 0.0464753322
v -0.09433556 -0.08331502 0.0464117341
v -0.092148006 -0.0821048245 0.0464117341
v -0.09331122 -0.08258441 0.04628968
v -0.09442986 -0.0831445754 0.04623616
v -0.0922423 -0.08193438 0.04623616
v -0.09339979 -0.0824243054 0.0460640155
v -0.09450257 -0.08301315 0.0460340939
v -0.09345888 -0.0823175 0.0458202735
v -0.09231501 -0.08180295 0.0460340939
v -0.09455266 -0.0829226 0.0458202735
v -0.0923651 -0.081712395 0.0458202735
v -0.09458309 -0.08286761 0.0455911942
v -0.09239552 -0.0816574 0.0455911942
v -0.09349207 -0.08225751 0.0455564372
v -0.0945927352 -0.08285016 0.04534021
v -0.09240518 -0.08163996 0.04534021
v -0.09349896 -0.08224506 0.04534021
v -0.0934876651 -0.08226547 0.04511701
v -0.0945777 -0.0828773454 0.0450798161
v -0.09239014 -0.08166714 0.0450798161
v -0.09345715 -0.08232063 0.0448967777
v -0.09453655 -0.08295172 0.0448258556
v -0.09234899 -0.08174151 0.0448258556
v -0.09340809 -0.0824093 0.0446900055
v -0.09447109 -0.08307005 0.0445947
v -0.09228353 -0.08185985 0.0445947
v -0.0933429152 -0.08252712 0.0445061438
v -0.09438609 -0.0832236856 0.0443999059
v -0.0921985358 -0.08201348 0.0443999059
v -0.09326536 -0.0826673061 0.0443522371
v -0.09428828 -0.0834004954 0.044249706
v -0.0921007246 -0.08219029 0.044249706
v -0.0931799039 -0.08282178 0.0442320853
v -0.09418477 -0.08358759 0.0441462249
v -0.09199721 -0.08237739 0.0441462249
v -0.098794885 -0.0700899363 0.049419757
v -0.100982442 -0.0713001341 0.049419757
v -0.100871548 -0.0715005845 0.04935691
v -0.09976095 -0.0709259 0.0493512042
v -0.09868399 -0.07029039 0.04935691
v -0.100750051 -0.0717202052 0.0493369736
v -0.0985624939 -0.07051 0.0493369736
v -0.09962041 -0.0711799338 0.0493404
v -0.100624 -0.07194805 0.04936804
v -0.098436445 -0.07073785 0.04936804
v -0.09947668 -0.0714397356 0.04939792
v -0.100501068 -0.07217027 0.04945304
v -0.09831351 -0.0709600747 0.04945304
v -0.09934153 -0.07168405 0.0495246723
v -0.100389168 -0.07237254 0.0495882668
v -0.09820161 -0.07116234 0.0495882668
v -0.09922595 -0.07189296 0.0497103259
v -0.100294873 -0.07254299 0.0497638434
v -0.0981073156 -0.07133278 0.0497638434
v -0.09913738 -0.07205306 0.04993599
v -0.100222163 -0.072674416 0.04996591
v -0.09907829 -0.07215987 0.05017973
v -0.0980346054 -0.07146422 0.04996591
v -0.100172073 -0.07276497 0.05017973
v -0.09798451 -0.0715547651 0.05017973
v -0.100141644 -0.07281996 0.05040881
v -0.09795409 -0.07160976 0.05040881
v -0.0990451053 -0.07221985 0.0504435673
v -0.100131996 -0.0728374049 0.0506597944
v -0.09794444 -0.07162721 0.0506597944
v -0.09903821 -0.072232306 0.0506597944
v -0.09904951 -0.0722119 0.05088299
v -0.100147031 -0.0728102252 0.05092019
v -0.0979594737 -0.07160002 0.05092019
v -0.0990800261 -0.0721567348 0.0511032231
v -0.100188181 -0.072735846 0.05117415
v -0.09800062 -0.07152565 0.05117415
v -0.09912908 -0.0720680654 0.05131
v -0.100253642 -0.0726175159 0.0514053032
v -0.0980660841 -0.07140732 0.0514053032
v -0.09919426 -0.07195024 0.05149386
v -0.100338638 -0.0724638849 0.0516000949
v -0.09815107 -0.07125369 0.0516000949
v -0.09927181 -0.07181006 0.0516477674
v -0.100436449 -0.07228707 0.0517503
v -0.09824889 -0.07107687 0.0517503
v -0.09935727 -0.07165559 0.0517679155
v -0.100539953 -0.0720999762 0.05185378
v -0.098352395 -0.07088977 0.05185378
v -0.100650847 -0.0718995258 0.0519166254
v -0.0995738953 -0.07126401 0.0519223325
v -0.09846329 -0.07068932 0.0519166254
v -0.100772351 -0.0716799051 0.0519365631
v -0.0985847861 -0.07046971 0.0519365631
v -0.09971443 -0.07100998 0.0519331358
v -0.1008984 -0.07145205 0.0519054942
v -0.09871084 -0.07024185 0.0519054942
v -0.0998581648 -0.07075017 0.0518756174
v -0.101021335 -0.07122983 0.0518205
v -0.09883378 -0.07001963 0.0518205
v -0.09999332 -0.0705058649 0.0517488644
v -0.101133235 -0.07102757 0.05168527
v -0.09894568 -0.0698173642 0.05168527
v -0.100108892 -0.07029695 0.05156321
v -0.101227529 -0.07085712 0.0515096933
v -0.09903997 -0.0696469247 0.0515096933
v -0.100197464 -0.07013685 0.05133755
v -0.10130024 -0.0707256943 0.05130763
v -0.100256555 -0.07003004 0.05109381
v -0.09911268 -0.06951549 0.05130763
v -0.10135033 -0.07063514 0.05109381
v -0.09916277 -0.06942494 0.05109381
v -0.101380751 -0.0705801547 0.0508647263
v -0.09919319 -0.06936995 0.0508647263
v -0.10028974 -0.06997006 0.05082997
v -0.101390406 -0.0705627054 0.0506137423
v -0.09920285 -0.06935251 0.0506137423
v -0.100296631 -0.06995761 0.0506137423
v -0.100285336 -0.06997801 0.0503905453
v -0.101375371 -0.0705898851 0.05035335
v -0.0991878062 -0.06937969 0.05035335
v -0.100254819 -0.07003317 0.05017031
v -0.101334222 -0.07066426 0.0500993878
v -0.0991466641 -0.06945406 0.0500993878
v -0.100205764 -0.07012185 0.0499635339
v -0.101268761 -0.0707825944 0.04986823
v -0.0990812 -0.06957239 0.04986823
v -0.100140586 -0.07023966 0.0497796759
v -0.101183765 -0.0709362254 0.04967344
v -0.09899621 -0.06972602 0.04967344
v -0.100063033 -0.07037985 0.04962577
v -0.101085946 -0.0711130351 0.0495232381
v -0.09889839 -0.06990284 0.0495232381
v -0.0999775752 -0.07053432 0.0495056175
v -0.100982442 -0.0713001341 0.049419757
v -0.098794885 -0.0700899363 0.049419757
v -0.0941196457 -0.07854089 0.0538042076
v -0.0963072 -0.0797511 0.0538042076
v -0.09619631 -0.07995155 0.05374136
v -0.0950857 -0.07937686 0.0537356548
v -0.09400875 -0.07874134 0.05374136
v -0.09607481 -0.08017116 0.0537214242
v -0.0938872546 -0.07896096 0.0537214242
v -0.09494517 -0.07963089 0.05372485
v -0.0959487557 -0.0803990141 0.0537524857
v -0.0937612 -0.07918881 0.0537524857
v -0.09480144 -0.0798907 0.0537823737
v -0.09582582 -0.0806212351 0.0538374856
v -0.09363826 -0.07941104 0.0538374856
v -0.09466628 -0.08013501 0.0539091229
v -0.09571393 -0.0808235 0.0539727174
v -0.09352636 -0.0796133 0.0539727174
v -0.09455071 -0.08034392 0.0540947765
v -0.09561963 -0.08099395 0.054148294
v -0.09343207 -0.0797837451 0.054148294
v -0.0944621339 -0.0805040151 0.054320436
v -0.0955469161 -0.08112538 0.0543503575
v -0.09440304 -0.08061083 0.054564178
v -0.09335936 -0.07991518 0.0543503575
v -0.0954968259 -0.08121593 0.054564178
v -0.09330927 -0.08000573 0.054564178
v -0.0954664052 -0.08127092 0.0547932573
v -0.09327885 -0.08006072 0.0547932573
v -0.09436986 -0.08067081 0.0548280142
v -0.09545675 -0.08128837 0.05504424
v -0.09326919 -0.08007817 0.05504424
v -0.0943629742 -0.08068327 0.05504424
v -0.09437426 -0.080662854 0.055267442
v -0.09547179 -0.08126118 0.05530464
v -0.0932842344 -0.0800509751 0.05530464
v -0.09440478 -0.0806077 0.0554876775
v -0.095512934 -0.08118681 0.0555586033
v -0.09332538 -0.0799766 0.0555586033
v -0.094453834 -0.08051902 0.0556944534
v -0.0955784 -0.08106848 0.05578975
v -0.09339084 -0.07985827 0.05578975
v -0.09451902 -0.0804012 0.05587831
v -0.09566339 -0.08091485 0.0559845455
v -0.09347583 -0.07970464 0.0559845455
v -0.09459657 -0.0802610144 0.0560322143
v -0.09576121 -0.08073804 0.05613475
v -0.0935736448 -0.07952783 0.05613475
v -0.09468203 -0.08010654 0.0561523661
v -0.09586471 -0.08055094 0.05623823
v -0.0936771557 -0.07934073 0.05623823
v -0.09597561 -0.08035049 0.056301076
v -0.094898656 -0.07971497 0.0563067831
v -0.09378805 -0.07914028 0.056301076
v -0.0960971043 -0.08013087 0.0563210137
v -0.09390955 -0.07892066 0.0563210137
v -0.09503919 -0.0794609338 0.0563175865
v -0.09622315 -0.079903014 0.0562899448
v -0.0940355957 -0.0786928162 0.0562899448
v -0.0951829255 -0.07920113 0.0562600642
v -0.0963460952 -0.07968079 0.05620495
v -0.09415854 -0.07847059 0.05620495
v -0.09531808 -0.07895682 0.056133315
v -0.09645799 -0.0794785246 0.0560697168
v -0.09427043 -0.07826833 0.0560697168
v -0.09543365 -0.07874791 0.0559476577
v -0.09655228 -0.0793080851 0.0558941439
v -0.0943647251 -0.07809788 0.0558941439
v -0.0955222249 -0.0785878152 0.055722
v -0.09662499 -0.07917665 0.05569208
v -0.09558131 -0.078481 0.0554782562
v -0.0944374353 -0.07796645 0.05569208
v -0.09667509 -0.0790861 0.0554782562
v -0.09448753 -0.0778759 0.0554782562
v -0.09670551 -0.07903111 0.0552491732
v -0.09451795 -0.07782091 0.0552491732
v -0.09561449 -0.07842102 0.0552144237
v -0.09671516 -0.07901366 0.0549981929
v -0.0945276 -0.07780346 0.0549981929
v -0.0956213847 -0.07840856 0.0549981929
v -0.0956101 -0.07842897 0.0547749959
v -0.0967001244 -0.07904085 0.0547378
v -0.09451257 -0.07783064 0.0547378
v -0.09557958 -0.07848413 0.05455476
v -0.0966589749 -0.07911523 0.0544838347
v -0.09447142 -0.07790502 0.0544838347
v -0.0955305248 -0.0785728 0.0543479845
v -0.0965935141 -0.07923356 0.05425268
v -0.09440596 -0.07802335 0.05425268
v -0.09546534 -0.07869063 0.0541641265
v -0.0965085253 -0.07938719 0.0540578924
v -0.09432097 -0.07817698 0.0540578924
v -0.09538779 -0.07883081 0.0540102236
v -0.09641071 -0.079564 0.0539076924
v -0.09422315 -0.07835379 0.0539076924
v -0.09530233 -0.07898528 0.0538900681
v -0.0963072 -0.0797511 0.0538042076
v -0.0941196457 -0.07854089 0.0538042076
v -0.0955784 -0.08106848 0.05578975
v -0.09315798 -0.08544362 0.0660157055
v -0.09566339 -0.08091485 0.0559845455
v -0.095512934 -0.08118681 0.0555586033
v -0.09547179 -0.08126118 0.05530464
v -0.09545675 -0.08128837 0.05504424
v -0.0954664052 -0.08127092 0.0547932573
v -0.0954968259 -0.08121593 0.054564178
v -0.09576121 -0.08073804 0.05613475
v -0.0923662 -0.0868748352 0.06513122
v -0.09395861 -0.0839964 0.06672324
v -0.09586471 -0.08055094 0.05623823
v -0.09597561 -0.08035049 0.056301076
v -0.09478678 -0.0824994 0.06727931
v -0.09159609 -0.0882668942 0.06406577
v -0.0960971043 -0.08013087 0.0563210137
v -0.09566467 -0.08091253 0.06769012
v -0.09086135 -0.08959501 0.0628204346
v -0.09658391 -0.07925091 0.06793525
v -0.09017602 -0.0908338055 0.0614020824
v -0.08955377 -0.09195858 0.059823636
v -0.0890071 -0.09294674 0.0581039861
v -0.08854664 -0.0937790647 0.0562674
v -0.09363878 -0.08457453 0.0464767665
v -0.09622315 -0.079903014 0.0562899448
v -0.0963460952 -0.07968079 0.05620495
v -0.09645799 -0.0794785246 0.0560697168
v -0.0975338444 -0.07753382 0.06799687
v -0.09850171 -0.07578431 0.0678610355
v -0.09947311 -0.07402841 0.0675189048
v -0.09655228 -0.0793080851 0.0558941439
v -0.1004326 -0.07229404 0.06696771
v -0.09662499 -0.07917665 0.05569208
v -0.08818046 -0.0944409743 0.0543423928
v -0.101364449 -0.0706096143 0.06621127
v -0.09354097 -0.08475134 0.0463265628
v -0.08791364 -0.09492328 0.0523603149
v -0.09345597 -0.08490497 0.04613177
v -0.08774802 -0.0952226445 0.0503536277
v -0.09339051 -0.08502331 0.0459006168
v -0.08768227 -0.0953415 0.04835424
v -0.09334937 -0.08509768 0.0456466563
v -0.0877120942 -0.09528759 0.0463918969
v -0.0933343247 -0.0851248652 0.0453862622
v -0.08783076 -0.0950731 0.04449295
v -0.08802962 -0.09471363 0.0426794365
v -0.09334397 -0.0851074159 0.04513528
v -0.0882988051 -0.09422706 0.0409686267
v -0.0933744 -0.08505242 0.0449061953
v -0.08864131 -0.09360795 0.0393147022
v -0.08906948 -0.0928339958 0.0376790725
v -0.08958524 -0.0919017047 0.03608819
v -0.09018808 -0.09081201 0.03457038
v -0.09087467 -0.08957092 0.03315466
v -0.09163877 -0.088189736 0.0318692327
v -0.09247122 -0.08668501 0.0307399463
v -0.093360275 -0.08507795 0.0297887363
v -0.094292134 -0.08339353 0.02903229
v -0.09525162 -0.08165915 0.028481096
v -0.09622302 -0.07990326 0.0281389728
v -0.09342449 -0.0849618763 0.04469238
v -0.0934972 -0.08483045 0.04449031
v -0.0935915 -0.08466 0.0443147346
v -0.0937034 -0.08445773 0.0441795066
v -0.09382633 -0.08423551 0.0440945067
v -0.09395239 -0.08400766 0.0440634377
v -0.09407388 -0.0837880448 0.04408338
v -0.09809974 -0.07651091 0.0403079242
v -0.09418477 -0.08358759 0.0441462249
v -0.09817244 -0.0763794854 0.04010586
v -0.0982667357 -0.07620904 0.0399302877
v -0.0983786359 -0.07600677 0.039795056
v -0.09719089 -0.0781537443 0.02800314
v -0.09850158 -0.07578455 0.039710056
v -0.09814082 -0.0764366537 0.0280647557
v -0.09804964 -0.07660146 0.04052175
v -0.09862763 -0.0755566955 0.03967899
v -0.09906006 -0.07477503 0.0283098854
v -0.0999379456 -0.07318816 0.0287206955
v -0.09874912 -0.07533708 0.03969893
v -0.09428828 -0.0834004954 0.044249706
v -0.100766122 -0.07169116 0.02927676
v -0.09886002 -0.07513663 0.0397617742
v -0.09896352 -0.07494953 0.0398652554
v -0.101566747 -0.07024394 0.0299843
v -0.09906134 -0.07477272 0.04001546
v -0.09438609 -0.0832236856 0.0443999059
v -0.09914633 -0.0746190846 0.040210247
v -0.09447109 -0.08307005 0.0445947
v -0.0992118 -0.0745007545 0.040441405
v -0.09925294 -0.07442638 0.0406953655
v -0.09926798 -0.0743991956 0.04095576
v -0.099258326 -0.0744166449 0.0412067436
v -0.0992279053 -0.07447164 0.0414358266
v -0.102358527 -0.06881273 0.0308687873
v -0.103128642 -0.06742067 0.03193424
v -0.100172073 -0.07276497 0.05017973
v -0.099177815 -0.0745621845 0.0416496471
v -0.0991051048 -0.07469362 0.04185171
v -0.09901081 -0.07486406 0.0420272872
v -0.09889891 -0.07506633 0.04216252
v -0.09453655 -0.08295172 0.0448258556
v -0.09877597 -0.07528855 0.0422475152
v -0.09677324 -0.0789087 0.0475429632
v -0.0945777 -0.0828773454 0.0450798161
v -0.09801922 -0.07665645 0.0407508276
v -0.0945927352 -0.08285016 0.04534021
v -0.098009564 -0.0766739 0.04100181
v -0.09458309 -0.08286761 0.0455911942
v -0.09802461 -0.0766467154 0.0412622057
v -0.09455266 -0.0829226 0.0458202735
v -0.09806575 -0.07657234 0.04151617
v -0.09450257 -0.08301315 0.0460340939
v -0.09813122 -0.07645401 0.0417473242
v -0.09442986 -0.0831445754 0.04623616
v -0.0982162058 -0.07630038 0.0419421121
v -0.09433556 -0.08331502 0.0464117341
v -0.0983140245 -0.0761235654 0.0420923159
v -0.09422366 -0.08351729 0.0465469658
v -0.09736237 -0.0778437853 0.048
v -0.0955469161 -0.08112538 0.0543503575
v -0.09841753 -0.07593647 0.042195797
v -0.09410073 -0.08373951 0.0466319658
v -0.09561963 -0.08099395 0.054148294
v -0.09852842 -0.075736016 0.0422586426
v -0.09397468 -0.08396736 0.04666303
v -0.0938531756 -0.08418698 0.0466430932
v -0.09374229 -0.08438743 0.0465802476
v -0.09571393 -0.0808235 0.0539727174
v -0.09864992 -0.0755164 0.04227858
v -0.100141644 -0.07281996 0.05040881
v -0.100131996 -0.0728374049 0.0506597944
v -0.09582582 -0.0806212351 0.0538374856
v -0.0959487557 -0.0803990141 0.0537524857
v -0.09607481 -0.08017116 0.0537214242
v -0.09619631 -0.07995155 0.05374136
v -0.0963072 -0.0797511 0.0538042076
v -0.09641071 -0.079564 0.0539076924
v -0.0965085253 -0.07938719 0.0540578924
v -0.0965935141 -0.07923356 0.05425268
v -0.100147031 -0.0728102252 0.05092019
v -0.0966589749 -0.07911523 0.0544838347
v -0.100188181 -0.072735846 0.05117415
v -0.0967001244 -0.07904085 0.0547378
v -0.100253642 -0.0726175159 0.0514053032
v -0.09671516 -0.07901366 0.0549981929
v -0.100338638 -0.0724638849 0.0516000949
v -0.09670551 -0.07903111 0.0552491732
v -0.100436449 -0.07228707 0.0517503
v -0.100539953 -0.0720999762 0.05185378
v -0.09667509 -0.0790861 0.0554782562
v -0.100650847 -0.0718995258 0.0519166254
v -0.102253512 -0.06900256 0.06526005
v -0.100772351 -0.0716799051 0.0519365631
v -0.103085957 -0.06749783 0.06413077
v -0.1008984 -0.07145205 0.0519054942
v -0.103850052 -0.0661166459 0.06284535
v -0.101021335 -0.07122983 0.0518205
v -0.104536653 -0.06487556 0.0614296235
v -0.101133235 -0.07102757 0.05168527
v -0.105139494 -0.0637858659 0.0599118136
v -0.101227529 -0.07085712 0.0515096933
v -0.105655253 -0.0628535748 0.05832093
v -0.106083423 -0.06207962 0.0566853024
v -0.10130024 -0.0707256943 0.05130763
v -0.106425926 -0.06146051 0.0550313741
v -0.10135033 -0.07063514 0.05109381
v -0.101380751 -0.0705801547 0.0508647263
v -0.1066951 -0.0609739423 0.0533205681
v -0.101390406 -0.0705627054 0.0506137423
v -0.106893972 -0.0606144741 0.051507052
v -0.107012637 -0.0603999756 0.0496081077
v -0.101375371 -0.0705898851 0.05035335
v -0.107042462 -0.06034606 0.0476457663
v -0.101334222 -0.07066426 0.0500993878
v -0.1069767 -0.06046492 0.0456463769
v -0.101268761 -0.0707825944 0.04986823
v -0.106811091 -0.06076429 0.04363969
v -0.101183765 -0.0709362254 0.04967344
v -0.106544271 -0.0612465963 0.04165761
v -0.101085946 -0.0711130351 0.0495232381
v -0.10617809 -0.0619085021 0.0397326052
v -0.100982442 -0.0713001341 0.049419757
v -0.105717629 -0.06274083 0.03789602
v -0.105170965 -0.06372898 0.03617637
v -0.100871548 -0.0715005845 0.04935691
v -0.104548708 -0.06485376 0.03459792
v -0.100750051 -0.0717202052 0.0493369736
v -0.103863388 -0.06609255 0.0331795663
v -0.100624 -0.07194805 0.04936804
v -0.100501068 -0.07217027 0.04945304
v -0.100389168 -0.07237254 0.0495882668
v -0.100294873 -0.07254299 0.0497638434
v -0.100222163 -0.072674416 0.04996591
v -0.09458567 -0.07769849 0.0475429632
v -0.0938872546 -0.07896096 0.0537214242
v -0.0937612 -0.07918881 0.0537524857
v -0.09363826 -0.07941104 0.0538374856
v -0.09352636 -0.0796133 0.0539727174
v -0.09343207 -0.0797837451 0.054148294
v -0.09335936 -0.07991518 0.0543503575
v -0.09400875 -0.07874134 0.05374136
v -0.09330927 -0.08000573 0.054564178
v -0.0951748043 -0.07663358 0.048
v -0.0941196457 -0.07854089 0.0538042076
v -0.09422315 -0.07835379 0.0539076924
v -0.09432097 -0.07817698 0.0540578924
v -0.09440596 -0.07802335 0.05425268
v -0.09798451 -0.0715547651 0.05017973
v -0.0980346054 -0.07146422 0.04996591
v -0.0981073156 -0.07133278 0.0497638434
v -0.09447142 -0.07790502 0.0544838347
v -0.09451257 -0.07783064 0.0547378
v -0.0945276 -0.07780346 0.0549981929
v -0.09451795 -0.07782091 0.0552491732
v -0.09448753 -0.0778759 0.0554782562
v -0.09439635 -0.07804071 0.06793525
v -0.09795409 -0.07160976 0.05040881
v -0.09794444 -0.07162721 0.0506597944
v -0.0979594737 -0.07160002 0.05092019
v -0.09800062 -0.07152565 0.05117415
v -0.0980660841 -0.07140732 0.0514053032
v -0.09815107 -0.07125369 0.0516000949
v -0.09820161 -0.07116234 0.0495882668
v -0.093477115 -0.07970233 0.06769012
v -0.09259922 -0.0812892 0.06727931
v -0.0944374353 -0.07796645 0.05569208
v -0.09534629 -0.07632361 0.06799687
v -0.09631415 -0.0745741054 0.0678610355
v -0.09824889 -0.07107687 0.0517503
v -0.0972855538 -0.0728182048 0.0675189048
v -0.0943647251 -0.07809788 0.0558941439
v -0.098352395 -0.07088977 0.05185378
v -0.09824504 -0.07108384 0.06696771
v -0.09917689 -0.06939942 0.06621127
v -0.09846329 -0.07068932 0.0519166254
v -0.100065954 -0.067792356 0.06526005
v -0.0985847861 -0.07046971 0.0519365631
v -0.1008984 -0.06628762 0.06413077
v -0.09871084 -0.07024185 0.0519054942
v -0.1016625 -0.06490645 0.06284535
v -0.09883378 -0.07001963 0.0518205
v -0.102349095 -0.06366535 0.0614296235
v -0.09894568 -0.0698173642 0.05168527
v -0.102951936 -0.06257566 0.0599118136
v -0.09903997 -0.0696469247 0.0515096933
v -0.1034677 -0.06164337 0.05832093
v -0.103895865 -0.0608694181 0.0566853024
v -0.09911268 -0.06951549 0.05130763
v -0.104238369 -0.06025031 0.0550313741
v -0.09916277 -0.06942494 0.05109381
v -0.09919319 -0.06936995 0.0508647263
v -0.104507551 -0.05976374 0.0533205681
v -0.09920285 -0.06935251 0.0506137423
v -0.104706414 -0.0594042726 0.051507052
v -0.104825079 -0.0591897741 0.0496081077
v -0.0991878062 -0.06937969 0.05035335
v -0.104854904 -0.059135858 0.0476457663
v -0.0991466641 -0.06945406 0.0500993878
v -0.104789153 -0.0592547171 0.0456463769
v -0.0990812 -0.06957239 0.04986823
v -0.104623534 -0.05955409 0.04363969
v -0.09899621 -0.06972602 0.04967344
v -0.104356706 -0.0600363947 0.04165761
v -0.09889839 -0.06990284 0.0495232381
v -0.103990532 -0.0606983 0.0397326052
v -0.09707077 -0.07320644 0.0412067436
v -0.103530072 -0.0615306273 0.03789602
v -0.09704035 -0.07326144 0.0414358266
v -0.0970804244 -0.073189 0.04095576
v -0.098794885 -0.0700899363 0.049419757
v -0.1029834 -0.0625187755 0.03617637
v -0.09699026 -0.07335198 0.0416496471
v -0.09868399 -0.07029039 0.04935691
v -0.0985624939 -0.07051 0.0493369736
v -0.09691754 -0.0734834149 0.04185171
v -0.098436445 -0.07073785 0.04936804
v -0.0968232453 -0.07365386 0.0420272872
v -0.09831351 -0.0709600747 0.04945304
v -0.09671135 -0.07385613 0.04216252
v -0.09658841 -0.07407835 0.0422475152
v -0.09706538 -0.073216185 0.0406953655
v -0.102361158 -0.06364356 0.03459792
v -0.101675823 -0.06488235 0.0331795663
v -0.09646236 -0.0743062049 0.04227858
v -0.100941084 -0.06621046 0.03193424
v -0.0963408649 -0.07452582 0.0422586426
v -0.09622997 -0.07472627 0.042195797
v -0.09612647 -0.07491337 0.0420923159
v -0.09602865 -0.0750901848 0.0419421121
v -0.09594366 -0.07524381 0.0417473242
v -0.09702424 -0.07329056 0.040441405
v -0.09695877 -0.07340889 0.040210247
v -0.09587819 -0.0753621459 0.04151617
v -0.09687378 -0.07356252 0.04001546
v -0.10017097 -0.06760253 0.0308687873
v -0.09937919 -0.06903374 0.0299843
v -0.0967759639 -0.0737393349 0.0398652554
v -0.09583705 -0.07543652 0.0412622057
v -0.0985785648 -0.07048096 0.02927676
v -0.09667246 -0.07392643 0.0397617742
v -0.096561566 -0.0741268843 0.03969893
v -0.09775039 -0.0719779655 0.0287206955
v -0.09644007 -0.0743465 0.03967899
v -0.09582201 -0.0754637 0.04100181
v -0.09631401 -0.07457435 0.039710056
v -0.09583166 -0.0754462555 0.0407508276
v -0.09586208 -0.07539126 0.04052175
v -0.09619108 -0.07479657 0.039795056
v -0.09607918 -0.07499884 0.0399302877
v -0.09598488 -0.07516928 0.04010586
v -0.09591217 -0.0753007159 0.0403079242
v -0.0968725 -0.07356483 0.0283098854
v -0.0959532559 -0.0752264559 0.0280647557
v -0.09500333 -0.07694355 0.02800314
v -0.09403546 -0.07869306 0.0281389728
v -0.09306406 -0.0804489553 0.028481096
v -0.09210458 -0.0821833238 0.02903229
v -0.09117272 -0.08386774 0.0297887363
v -0.09234899 -0.08174151 0.0448258556
v -0.09239014 -0.08166714 0.0450798161
v -0.09240518 -0.08163996 0.04534021
v -0.09228353 -0.08185985 0.0445947
v -0.09239552 -0.0816574 0.0455911942
v -0.0921985358 -0.08201348 0.0443999059
v -0.0923651 -0.081712395 0.0458202735
v -0.0921007246 -0.08219029 0.044249706
v -0.09199721 -0.08237739 0.0441462249
v -0.09231501 -0.08180295 0.0460340939
v -0.09188632 -0.08257784 0.04408338
v -0.09028366 -0.085474804 0.0307399463
v -0.09176482 -0.08279745 0.0440634377
v -0.0894512162 -0.08697954 0.0318692327
v -0.09163877 -0.08302531 0.0440945067
v -0.0886871144 -0.08836072 0.03315466
v -0.09151584 -0.08324753 0.0441795066
v -0.08800052 -0.0896018147 0.03457038
v -0.09140394 -0.0834497958 0.0443147346
v -0.08739768 -0.0906915 0.03608819
v -0.0922423 -0.08193438 0.04623616
v -0.092148006 -0.0821048245 0.0464117341
v -0.0920361057 -0.0823070854 0.0465469658
v -0.0913096443 -0.08362024 0.04449031
v -0.08688191 -0.09162379 0.0376790725
v -0.08645375 -0.09239774 0.0393147022
v -0.0912369341 -0.08375167 0.04469238
v -0.08611125 -0.0930168554 0.0409686267
v -0.09118684 -0.08384222 0.0449061953
v -0.09191317 -0.08252931 0.0466319658
v -0.0858420655 -0.09350342 0.0426794365
v -0.0856432 -0.09386289 0.04449295
v -0.08552454 -0.094077386 0.0463918969
v -0.08549471 -0.0941313058 0.04835424
v -0.08556046 -0.09401245 0.0503536277
v -0.0917871147 -0.08275716 0.04666303
v -0.09166562 -0.08297678 0.0466430932
v -0.09155473 -0.08317723 0.0465802476
v -0.08572608 -0.09371308 0.0523603149
v -0.09327885 -0.08006072 0.0547932573
v -0.0859929 -0.09323077 0.0543423928
v -0.08635908 -0.09256886 0.0562674
v -0.0868195444 -0.09173653 0.0581039861
v -0.08736621 -0.0907483846 0.059823636
v -0.087988466 -0.0896236 0.0614020824
v -0.0911564156 -0.08389722 0.04513528
v -0.09114677 -0.08391466 0.0453862622
v -0.0911618 -0.08388747 0.0456466563
v -0.09120295 -0.0838131 0.0459006168
v -0.09126841 -0.08369477 0.04613177
v -0.0913534 -0.08354114 0.0463265628
v -0.09145122 -0.08336433 0.0464767665
v -0.09326919 -0.08007817 0.05504424
v -0.0932842344 -0.0800509751 0.05530464
v -0.09332538 -0.0799766 0.0555586033
v -0.0886737853 -0.08838481 0.0628204346
v -0.09339084 -0.07985827 0.05578975
v -0.08940853 -0.0870567 0.06406577
v -0.09347583 -0.07970464 0.0559845455
v -0.0901786461 -0.08566464 0.06513122
v -0.09097042 -0.08423342 0.0660157055
v -0.0935736448 -0.07952783 0.05613475
v -0.09177105 -0.0827862 0.06672324
v -0.0936771557 -0.07934073 0.05623823
v -0.09378805 -0.07914028 0.056301076
v -0.09390955 -0.07892066 0.0563210137
v -0.0940355957 -0.0786928162 0.0562899448
v -0.09415854 -0.07847059 0.05620495
v -0.09427043 -0.07826833 0.0560697168
f 1 2 3
f 2 4 3
f 2 5 4
f 5 2 6
f 5 7 4
f 5 6 8
f 5 9 7
f 10 5 8
f 5 10 9
f 10 8 11
f 10 12 9
f 13 10 11
f 10 13 12
f 13 11 14
f 13 15 12
f 16 13 14
f 13 16 15
f 16 14 17
f 16 18 15
f 16 17 19
f 18 16 19
f 20 19 17
f 18 19 20
f 20 17 21
f 22 18 20
f 23 20 21
f 22 20 23
f 23 21 24
f 25 22 23
f 26 23 24
f 25 23 26
f 26 24 27
f 28 25 26
f 29 26 27
f 28 26 29
f 29 27 30
f 31 28 29
f 32 29 30
f 31 29 32
f 32 30 33
f 34 31 32
f 35 32 33
f 34 32 35
f 35 33 36
f 37 34 35
f 38 35 36
f 37 35 38
f 38 36 39
f 40 37 38
f 41 38 39
f 40 38 41
f 41 39 42
f 43 40 41
f 44 41 42
f 43 41 44
f 44 42 45
f 46 44 45
f 47 43 44
f 47 44 46
f 46 45 48
f 49 47 46
f 46 48 50
f 51 49 46
f 52 46 50
f 51 46 52
f 52 50 53
f 54 51 52
f 55 52 53
f 54 52 55
f 55 53 56
f 57 54 55
f 58 55 56
f 57 55 58
f 58 56 59
f 60 57 58
f 61 58 59
f 60 58 61
f 61 59 62
f 63 60 61
f 64 61 62
f 63 61 64
f 64 62 65
f 66 63 64
f 67 64 65
f 66 64 67
f 67 65 68
f 69 67 68
f 70 66 67
f 70 67 69
f 69 68 71
f 72 70 69
f 69 71 73
f 74 72 69
f 75 69 73
f 74 69 75
f 75 73 76
f 77 74 75
f 78 75 76
f 77 75 78
f 78 76 79
f 80 77 78
f 81 78 79
f 80 78 81
f 81 79 82
f 83 80 81
f 84 81 82
f 83 81 84
f 84 82 85
f 86 83 84
f 87 84 85
f 86 84 87
f 87 85 88
f 89 86 87
f 90 87 88
f 89 87 90
f 90 88 91
f 92 89 90
f 93 90 91
f 92 90 93
f 94 92 93
f 93 95 94
f 95 96 94
f 95 97 96
f 97 95 98
f 97 99 96
f 97 98 100
f 97 101 99
f 102 97 100
f 97 102 101
f 102 100 103
f 102 104 101
f 105 102 103
f 102 105 104
f 105 103 106
f 105 107 104
f 108 105 106
f 105 108 107
f 108 106 109
f 108 110 107
f 111 108 109
f 108 111 110
f 111 109 112
f 111 112 110
f 109 113 112
f 110 112 114
f 113 115 112
f 112 115 114
f 113 116 115
f 114 115 117
f 116 118 115
f 115 118 117
f 116 119 118
f 117 118 120
f 119 121 118
f 118 121 120
f 119 122 121
f 120 121 123
f 122 124 121
f 121 124 123
f 122 125 124
f 123 124 126
f 125 127 124
f 124 127 126
f 125 128 127
f 126 127 129
f 128 130 127
f 127 130 129
f 128 131 130
f 129 130 132
f 131 133 130
f 130 133 132
f 131 134 133
f 132 133 135
f 134 136 133
f 133 136 135
f 134 137 136
f 137 138 136
f 135 136 139
f 136 138 139
f 137 140 138
f 139 138 141
f 140 142 138
f 138 143 141
f 142 144 138
f 138 144 143
f 142 145 144
f 144 146 143
f 145 147 144
f 144 147 146
f 145 148 147
f 147 149 146
f 148 150 147
f 147 150 149
f 148 151 150
f 150 152 149
f 151 153 150
f 150 153 152
f 151 154 153
f 153 155 152
f 154 156 153
f 153 156 155
f 154 157 156
f 156 158 155
f 157 159 156
f 156 159 158
f 157 160 159
f 160 161 159
f 159 162 158
f 159 161 162
f 160 163 161
f 161 164 162
f 163 165 161
f 161 166 164
f 165 167 161
f 161 167 166
f 165 168 167
f 167 169 166
f 168 170 167
f 167 170 169
f 168 171 170
f 170 172 169
f 171 173 170
f 170 173 172
f 171 174 173
f 173 175 172
f 174 176 173
f 173 176 175
f 174 177 176
f 176 178 175
f 177 179 176
f 176 179 178
f 177 180 179
f 179 181 178
f 180 182 179
f 179 182 181
f 180 183 182
f 182 184 181
f 183 185 182
f 185 184 182
f 185 186 184
f 187 188 189
f 187 189 190
f 191 187 190
f 190 189 192
f 193 191 190
f 194 190 192
f 193 190 194
f 194 192 195
f 196 193 194
f 197 194 195
f 196 194 197
f 197 195 198
f 199 196 197
f 200 197 198
f 199 197 200
f 200 198 201
f 202 199 200
f 203 200 201
f 202 200 203
f 203 201 204
f 205 202 203
f 206 203 204
f 205 203 206
f 206 204 207
f 208 206 207
f 209 205 206
f 209 206 208
f 208 207 210
f 211 209 208
f 212 208 210
f 213 211 208
f 214 208 212
f 213 208 214
f 215 214 212
f 216 213 214
f 217 214 215
f 217 216 214
f 218 217 215
f 217 218 216
f 218 215 219
f 218 220 216
f 221 218 219
f 218 221 220
f 221 219 222
f 221 223 220
f 224 221 222
f 221 224 223
f 224 222 225
f 224 226 223
f 227 224 225
f 224 227 226
f 227 225 228
f 227 229 226
f 230 227 228
f 227 230 229
f 230 228 231
f 230 232 229
f 233 230 231
f 230 233 232
f 233 231 234
f 232 233 235
f 233 234 235
f 234 236 235
f 236 237 235
f 235 237 238
f 236 239 237
f 237 240 238
f 239 241 237
f 237 241 240
f 239 242 241
f 241 243 240
f 242 244 241
f 241 244 243
f 242 245 244
f 244 246 243
f 245 247 244
f 244 247 246
f 245 248 247
f 247 249 246
f 248 250 247
f 247 250 249
f 248 251 250
f 250 252 249
f 251 253 250
f 250 253 252
f 251 254 253
f 254 255 253
f 253 256 252
f 253 255 256
f 254 257 255
f 255 258 256
f 257 259 255
f 255 260 258
f 259 261 255
f 255 261 260
f 259 262 261
f 261 263 260
f 262 264 261
f 261 264 263
f 262 265 264
f 265 263 264
f 266 265 262
f 265 267 263
f 268 265 266
f 265 268 267
f 269 268 266
f 268 270 267
f 271 268 269
f 268 271 270
f 272 271 269
f 271 273 270
f 274 271 272
f 271 274 273
f 275 274 272
f 274 276 273
f 277 274 275
f 274 277 276
f 278 277 275
f 277 279 276
f 280 277 278
f 277 280 279
f 281 280 278
f 280 282 279
f 280 281 282
f 283 284 285
f 283 285 286
f 287 283 286
f 286 285 288
f 289 287 286
f 290 286 288
f 289 286 290
f 290 288 291
f 292 289 290
f 293 290 291
f 292 290 293
f 293 291 294
f 295 292 293
f 296 293 294
f 295 293 296
f 296 294 297
f 298 295 296
f 299 296 297
f 298 296 299
f 299 297 300
f 301 298 299
f 302 299 300
f 301 299 302
f 302 300 303
f 304 302 303
f 305 301 302
f 305 302 304
f 304 303 306
f 307 305 304
f 308 304 306
f 309 307 304
f 310 304 308
f 309 304 310
f 311 310 308
f 312 309 310
f 313 310 311
f 313 312 310
f 314 313 311
f 313 314 312
f 314 311 315
f 314 316 312
f 317 314 315
f 314 317 316
f 317 315 318
f 317 319 316
f 320 317 318
f 317 320 319
f 320 318 321
f 320 322 319
f 323 320 321
f 320 323 322
f 323 321 324
f 323 325 322
f 326 323 324
f 323 326 325
f 326 324 327
f 326 328 325
f 329 326 327
f 326 329 328
f 329 327 330
f 328 329 331
f 329 330 331
f 330 332 331
f 332 333 331
f 331 333 334
f 332 335 333
f 333 336 334
f 335 337 333
f 333 337 336
f 335 338 337
f 337 339 336
f 338 340 337
f 337 340 339
f 338 341 340
f 340 342 339
f 341 343 340
f 340 343 342
f 341 344 343
f 343 345 342
f 344 346 343
f 343 346 345
f 344 347 346
f 346 348 345
f 347 349 346
f 346 349 348
f 347 350 349
f 350 351 349
f 349 352 348
f 349 351 352
f 350 353 351
f 351 354 352
f 353 355 351
f 351 356 354
f 355 357 351
f 351 357 356
f 355 358 357
f 357 359 356
f 358 360 357
f 357 360 359
f 358 361 360
f 361 359 360
f 362 361 358
f 361 363 359
f 364 361 362
f 361 364 363
f 365 364 362
f 364 366 363
f 367 364 365
f 364 367 366
f 368 367 365
f 367 369 366
f 370 367 368
f 367 370 369
f 371 370 368
f 370 372 369
f 373 370 371
f 370 373 372
f 374 373 371
f 373 375 372
f 376 373 374
f 373 376 375
f 377 376 374
f 376 378 375
f 376 377 378
f 379 380 381
f 379 381 382
f 383 379 382
f 382 381 384
f 385 383 382
f 386 382 384
f 385 382 386
f 386 384 387
f 388 385 386
f 389 386 387
f 388 386 389
f 389 387 390
f 391 388 389
f 392 389 390
f 391 389 392
f 392 390 393
f 394 391 392
f 395 392 393
f 394 392 395
f 395 393 396
f 397 394 395
f 398 395 396
f 397 395 398
f 398 396 399
f 400 398 399
f 401 397 398
f 401 398 400
f 400 399 402
f 403 401 400
f 404 400 402
f 405 403 400
f 406 400 404
f 405 400 406
f 407 406 404
f 408 405 406
f 409 406 407
f 409 408 406
f 410 409 407
f 409 410 408
f 410 407 411
f 410 412 408
f 413 410 411
f 410 413 412
f 413 411 414
f 413 415 412
f 416 413 414
f 413 416 415
f 416 414 417
f 416 418 415
f 419 416 417
f 416 419 418
f 419 417 420
f 419 421 418
f 422 419 420
f 419 422 421
f 422 420 423
f 422 424 421
f 425 422 423
f 422 425 424
f 425 423 426
f 424 425 427
f 425 426 427
f 426 428 427
f 428 429 427
f 427 429 430
f 428 431 429
f 429 432 430
f 431 433 429
f 429 433 432
f 431 434 433
f 433 435 432
f 434 436 433
f 433 436 435
f 434 437 436
f 436 438 435
f 437 439 436
f 436 439 438
f 437 440 439
f 439 441 438
f 440 442 439
f 439 442 441
f 440 443 442
f 442 444 441
f 443 445 442
f 442 445 444
f 443 446 445
f 446 447 445
f 445 448 444
f 445 447 448
f 446 449 447
f 447 450 448
f 449 451 447
f 447 452 450
f 451 453 447
f 447 453 452
f 451 454 453
f 453 455 452
f 454 456 453
f 453 456 455
f 454 457 456
f 457 455 456
f 458 457 454
f 457 459 455
f 460 457 458
f 457 460 459
f 461 460 458
f 460 462 459
f 463 460 461
f 460 463 462
f 464 463 461
f 463 465 462
f 466 463 464
f 463 466 465
f 467 466 464
f 466 468 465
f 469 466 467
f 466 469 468
f 470 469 467
f 469 471 468
f 472 469 470
f 469 472 471
f 473 472 470
f 472 474 471
f 472 473 474
f 475 476 477
f 475 477 478
f 479 475 478
f 478 477 480
f 481 479 478
f 482 478 480
f 481 478 482
f 482 480 483
f 484 481 482
f 485 482 483
f 484 482 485
f 485 483 486
f 487 484 485
f 488 485 486
f 487 485 488
f 488 486 489
f 490 487 488
f 491 488 489
f 490 488 491
f 491 489 492
f 493 490 491
f 494 491 492
f 493 491 494
f 494 492 495
f 496 494 495
f 497 493 494
f 497 494 496
f 496 495 498
f 499 497 496
f 500 496 498
f 501 499 496
f 502 496 500
f 501 496 502
f 503 502 500
f 504 501 502
f 505 502 503
f 505 504 502
f 506 505 503
f 505 506 504
f 506 503 507
f 506 508 504
f 509 506 507
f 506 509 508
f 509 507 510
f 509 511 508
f 512 509 510
f 509 512 511
f 512 510 513
f 512 514 511
f 515 512 513
f 512 515 514
f 515 513 516
f 515 517 514
f 518 515 516
f 515 518 517
f 518 516 519
f 518 520 517
f 521 518 519
f 518 521 520
f 521 519 522
f 520 521 523
f 521 522 523
f 522 524 523
f 524 525 523
f 523 525 526
f 524 527 525
f 525 528 526
f 527 529 525
f 525 529 528
f 527 530 529
f 529 531 528
f 530 532 529
f 529 532 531
f 530 533 532
f 532 534 531
f 533 535 532
f 532 535 534
f 533 536 535
f 535 537 534
f 536 538 535
f 535 538 537
f 536 539 538
f 538 540 537
f 539 541 538
f 538 541 540
f 539 542 541
f 542 543 541
f 541 544 540
f 541 543 544
f 542 545 543
f 543 546 544
f 545 547 543
f 543 548 546
f 547 549 543
f 543 549 548
f 547 550 549
f 549 551 548
f 550 552 549
f 549 552 551
f 550 553 552
f 553 551 552
f 554 553 550
f 553 555 551
f 556 553 554
f 553 556 555
f 557 556 554
f 556 558 555
f 559 556 557
f 556 559 558
f 560 559 557
f 559 561 558
f 562 559 560
f 559 562 561
f 563 562 560
f 562 564 561
f 565 562 563
f 562 565 564
f 566 565 563
f 565 567 564
f 568 565 566
f 565 568 567
f 569 568 566
f 568 570 567
f 568 569 570
f 571 572 573
f 572 571 574
f 572 574 575
f 576 572 575
f 572 576 577
f 572 577 578
f 572 579 573
f 580 572 578
f 572 581 579
f 581 582 579
f 581 583 582
f 583 581 584
f 580 578 585
f 586 583 584
f 586 584 587
f 578 588 585
f 586 587 589
f 578 590 588
f 590 578 591
f 578 592 591
f 578 593 592
f 578 594 593
f 595 586 589
f 596 595 589
f 597 596 589
f 598 597 589
f 597 598 599
f 597 599 600
f 601 597 600
f 601 600 602
f 603 601 602
f 594 604 593
f 603 602 605
f 594 606 604
f 606 607 604
f 606 608 607
f 608 609 607
f 608 610 609
f 610 611 609
f 610 612 611
f 612 613 611
f 612 614 613
f 614 615 613
f 614 616 615
f 614 617 616
f 617 618 616
f 617 619 618
f 619 620 618
f 619 621 620
f 621 619 622
f 619 623 622
f 619 624 623
f 624 619 625
f 619 626 625
f 619 627 626
f 627 619 628
f 619 629 628
f 619 630 629
f 630 619 631
f 630 631 632
f 633 630 632
f 630 633 634
f 630 634 635
f 636 630 635
f 630 636 637
f 630 637 638
f 637 639 638
f 640 630 638
f 630 640 641
f 630 641 642
f 643 630 642
f 642 644 643
f 644 645 643
f 639 646 638
f 644 647 645
f 647 648 645
f 647 649 648
f 647 650 649
f 639 651 646
f 650 652 649
f 650 653 652
f 653 654 652
f 654 655 652
f 654 656 655
f 651 657 646
f 656 658 655
f 657 659 646
f 658 660 655
f 660 661 655
f 661 662 655
f 662 663 655
f 663 664 655
f 664 665 655
f 664 666 665
f 667 666 664
f 667 664 668
f 669 667 668
f 667 669 670
f 667 670 671
f 659 672 646
f 673 667 671
f 672 674 646
f 672 675 674
f 646 674 676
f 675 677 674
f 674 678 676
f 677 679 674
f 674 680 678
f 679 681 674
f 680 674 682
f 681 683 674
f 674 684 682
f 683 685 674
f 674 686 684
f 685 687 674
f 686 674 688
f 687 689 674
f 674 690 688
f 689 578 674
f 691 674 578
f 688 690 692
f 689 693 578
f 674 691 694
f 690 695 692
f 693 696 578
f 696 697 578
f 697 698 578
f 698 594 578
f 674 694 699
f 690 700 695
f 700 690 673
f 690 667 673
f 690 701 667
f 701 690 702
f 703 674 699
f 674 703 704
f 674 704 705
f 706 674 705
f 674 706 690
f 706 707 690
f 707 708 690
f 708 709 690
f 709 710 690
f 690 711 702
f 710 711 690
f 710 712 711
f 712 713 711
f 712 714 713
f 714 715 713
f 714 716 715
f 716 717 715
f 716 718 717
f 718 719 717
f 718 720 719
f 718 721 720
f 721 722 720
f 721 603 722
f 722 603 605
f 722 605 723
f 724 722 723
f 724 723 725
f 726 724 725
f 726 725 727
f 728 726 727
f 728 727 729
f 730 728 729
f 730 729 731
f 732 730 731
f 732 731 733
f 732 733 734
f 735 732 734
f 735 734 736
f 737 735 736
f 738 737 736
f 738 736 739
f 740 738 739
f 740 739 741
f 740 741 742
f 743 740 742
f 743 742 744
f 745 743 744
f 745 744 746
f 747 745 746
f 747 746 748
f 749 747 748
f 749 748 750
f 751 749 750
f 751 750 752
f 753 751 752
f 753 752 754
f 753 754 755
f 756 753 755
f 756 755 757
f 758 756 757
f 759 758 757
f 759 666 758
f 666 760 758
f 666 761 760
f 761 666 762
f 666 763 762
f 666 764 763
f 764 666 667
f 765 766 767
f 765 767 768
f 769 765 768
f 765 769 770
f 765 770 771
f 766 765 772
f 773 765 771
f 765 774 772
f 772 774 775
f 774 776 775
f 774 777 776
f 777 774 778
f 779 778 774
f 780 779 774
f 780 774 781
f 779 782 778
f 782 779 783
f 779 784 783
f 779 785 784
f 785 779 786
f 787 786 779
f 788 787 779
f 787 788 789
f 787 789 790
f 791 787 790
f 787 791 792
f 787 792 793
f 774 794 781
f 786 787 795
f 786 795 796
f 797 786 796
f 798 787 793
f 798 793 799
f 793 800 799
f 800 801 799
f 802 797 796
f 800 803 801
f 803 804 801
f 803 805 804
f 803 806 805
f 806 807 805
f 806 808 807
f 808 809 807
f 808 810 809
f 810 811 809
f 810 812 811
f 812 813 811
f 812 814 813
f 814 815 813
f 814 816 815
f 816 817 815
f 816 818 817
f 816 819 818
f 819 820 818
f 819 821 820
f 821 822 820
f 822 823 820
f 822 824 823
f 824 825 823
f 824 826 825
f 824 827 826
f 827 828 826
f 827 829 828
f 829 830 828
f 829 831 830
f 831 832 830
f 831 833 832
f 833 834 832
f 833 835 834
f 835 836 834
f 835 837 836
f 837 838 836
f 837 835 839
f 837 840 838
f 835 841 839
f 840 842 838
f 841 843 839
f 841 844 843
f 844 845 843
f 845 846 843
f 845 847 846
f 847 848 846
f 847 849 848
f 849 850 848
f 849 794 850
f 794 851 850
f 840 852 842
f 794 774 851
f 852 853 842
f 852 854 853
f 774 855 851
f 854 852 856
f 774 857 855
f 857 774 858
f 774 859 858
f 774 765 859
f 765 860 859
f 765 861 860
f 852 862 856
f 862 863 856
f 861 765 864
f 863 865 856
f 865 866 856
f 865 867 866
f 865 868 867
f 765 869 864
f 868 870 867
f 870 868 871
f 870 871 872
f 873 870 872
f 873 872 874
f 765 875 869
f 876 873 874
f 875 765 877
f 765 878 877
f 873 876 879
f 873 879 880
f 881 873 880
f 873 881 882
f 873 882 878
f 883 873 878
f 883 878 884
f 878 885 884
f 878 886 885
f 886 878 887
f 878 888 887
f 878 889 888
f 765 890 878
f 890 765 891
f 765 892 891
f 890 893 878
f 765 894 892
f 893 895 878
f 894 765 896
f 895 897 878
f 897 898 878
f 765 899 896
f 898 900 878
f 878 900 889
f 900 901 889
f 900 902 901
f 902 903 901
f 902 904 903
f 904 905 903
f 904 906 905
f 906 907 905
f 906 908 907
f 908 909 907
f 765 910 899
f 910 765 911
f 765 912 911
f 908 913 909
f 913 914 909
f 913 915 914
f 913 916 915
f 916 917 915
f 765 773 912
f 916 918 917
f 773 919 912
f 918 920 917
f 918 921 920
f 921 918 922
f 918 923 922
f 918 924 923
f 773 925 919
f 925 773 926
f 773 927 926
f 924 918 928
f 773 929 927
f 918 930 928
f 918 931 930
f 931 918 932
f 918 933 932
f 918 934 933
f 934 918 935
f 936 934 935
f 934 936 937
f 934 937 938
f 939 934 938
f 934 939 940
f 929 941 927
f 934 940 941
f 929 934 941
f 942 934 929
f 934 942 943
f 934 943 944
f 945 934 944
f 944 946 945
f 946 947 945
f 946 948 947
f 948 949 947
f 948 950 949
f 948 951 950
f 951 952 950
f 951 953 952
f 953 954 952
f 954 796 952
f 954 955 796
f 955 956 796
f 956 957 796
f 957 958 796
f 958 802 796
