# ROS coordinates: X forward, Y left, Z up; units are metres.
o mesh
v -0.0505863 0.0990389362 -0.00274445117
v -0.0567796268 0.09915803 -0.00475715753
v -0.0500300378 0.09902824 -0.00398819428
v -0.0560540557 0.09914407 -0.006454927
v -0.049380973 0.09901576 -0.00521214027
v -0.05519809 0.09912761 -0.008128074
v -0.04863946 0.0990015 -0.0064063156
v -0.05421179 0.09910865 -0.009762189
v -0.04780722 0.09898549 -0.007560595
v -0.0530973077 0.099087216 -0.01134256
v -0.0468874536 0.09896781 -0.00866494048
v -0.0518589579 0.0990634039 -0.012854551
v -0.0458848029 0.09894853 -0.009709668
v -0.0505032539 0.0990373343 -0.0142840045
v -0.04494414 0.09893044 -0.0123876138
v -0.0490388051 0.09900918 -0.0156176453
v -0.0448053069 0.09892777 -0.0106857093
v -0.047476206 0.09897913 -0.01684346
v -0.04365631 0.09890568 -0.011584851
v -0.04244627 0.0988824144 -0.012399965
v -0.04582773 0.0989474356 -0.01795106
v -0.04118459 0.09885815 -0.0131252008
v -0.04410706 0.09891435 -0.0189319663
v -0.03988134 0.09883309 -0.0137561178
v -0.04232888 0.09888016 -0.0197798349
v -0.0385470167 0.09880743 -0.0142897693
v -0.0405084863 0.09884515 -0.02049056
v -0.0371922627 0.0987813845 -0.0147247305
v -0.03866135 0.09880963 -0.02106233
v -0.0358276 0.09875514 -0.0150610628
v -0.03680272 0.09877389 -0.0214955583
v -0.0344632044 0.09872891 -0.0153002506
v -0.0349472463 0.0987382159 -0.02179275
v -0.03310866 0.09870286 -0.0154450508
v -0.03310866 0.09870286 -0.021958299
v -0.05039405 0.109037086 -0.00274445117
v -0.049837783 0.109026387 -0.00398819428
v -0.0565873757 0.109156176 -0.00475715753
v -0.0558618 0.109142222 -0.006454927
v -0.0491887219 0.109013908 -0.00521214027
v -0.0550058335 0.109125763 -0.008128074
v -0.0484472066 0.108999655 -0.0064063156
v -0.05401954 0.1091068 -0.009762189
v -0.04761497 0.108983651 -0.007560595
v -0.0529050529 0.109085374 -0.01134256
v -0.0466952026 0.108965963 -0.00866494048
v -0.0516667068 0.109061562 -0.012854551
v -0.04569255 0.108946681 -0.009709668
v -0.050311 0.109035492 -0.0142840045
v -0.04475189 0.1089286 -0.0123876138
v -0.0446130559 0.108925924 -0.0106857093
v -0.048846554 0.109007329 -0.0156176453
v -0.0434640571 0.108903833 -0.011584851
v -0.0472839549 0.108977281 -0.01684346
v -0.04225402 0.108880565 -0.012399965
v -0.04563548 0.108945586 -0.01795106
v -0.04099234 0.108856305 -0.0131252008
v -0.04391481 0.1089125 -0.0189319663
v -0.03968909 0.108831242 -0.0137561178
v -0.04213663 0.108878307 -0.0197798349
v -0.0383547656 0.108805589 -0.0142897693
v -0.0403162353 0.108843304 -0.02049056
v -0.0370000079 0.108779535 -0.0147247305
v -0.0384691 0.108807787 -0.02106233
v -0.03563535 0.108753294 -0.0150610628
v -0.03661047 0.108772047 -0.0214955583
v -0.03427095 0.10872706 -0.0153002506
v -0.0347549953 0.108736366 -0.02179275
v -0.0329164043 0.108701013 -0.0154450508
v -0.0329164043 0.108701013 -0.021958299
v -0.0505863 0.0990389362 -0.00274445117
v -0.04993391 0.104027316 -0.00398819428
v -0.05039405 0.109037086 -0.00274445117
v -0.0500300378 0.09902824 -0.00398819428
v -0.049837783 0.109026387 -0.00398819428
v -0.049380973 0.09901576 -0.00521214027
v -0.0492848456 0.104014836 -0.00521214027
v -0.0491887219 0.109013908 -0.00521214027
v -0.04863946 0.0990015 -0.0064063156
v -0.048543334 0.104000576 -0.0064063156
v -0.0484472066 0.108999655 -0.0064063156
v -0.04780722 0.09898549 -0.007560595
v -0.047711093 0.103984572 -0.007560595
v -0.04761497 0.108983651 -0.007560595
v -0.0468874536 0.09896781 -0.00866494048
v -0.04679133 0.103966884 -0.00866494048
v -0.0466952026 0.108965963 -0.00866494048
v -0.0458848029 0.09894853 -0.009709668
v -0.0457886755 0.10394761 -0.009709668
v -0.04569255 0.108946681 -0.009709668
v -0.0448053069 0.09892777 -0.0106857093
v -0.04470918 0.103926852 -0.0106857093
v -0.0446130559 0.108925924 -0.0106857093
v -0.04365631 0.09890568 -0.011584851
v -0.04356018 0.103904754 -0.011584851
v -0.0434640571 0.108903833 -0.011584851
v -0.04244627 0.0988824144 -0.012399965
v -0.0423501432 0.103881486 -0.012399965
v -0.04225402 0.108880565 -0.012399965
v -0.04118459 0.09885815 -0.0131252008
v -0.0410884656 0.103857227 -0.0131252008
v -0.04099234 0.108856305 -0.0131252008
v -0.03988134 0.09883309 -0.0137561178
v -0.0397852138 0.10383217 -0.0137561178
v -0.03968909 0.108831242 -0.0137561178
v -0.0385470167 0.09880743 -0.0142897693
v -0.03845089 0.103806511 -0.0142897693
v -0.0383547656 0.108805589 -0.0142897693
v -0.0371922627 0.0987813845 -0.0147247305
v -0.0370961353 0.103780456 -0.0147247305
v -0.0370000079 0.108779535 -0.0147247305
v -0.0358276 0.09875514 -0.0150610628
v -0.0357314758 0.103754215 -0.0150610628
v -0.03563535 0.108753294 -0.0150610628
v -0.0344632044 0.09872891 -0.0153002506
v -0.0343670771 0.103727981 -0.0153002506
v -0.03427095 0.10872706 -0.0153002506
v -0.03310866 0.09870286 -0.0154450508
v -0.0329164043 0.108701013 -0.0154450508
v -0.0535868369 0.104097553 -0.00375080481
v -0.0565873757 0.109156176 -0.00475715753
v -0.0567796268 0.09915803 -0.00475715753
v -0.0505863 0.0990389362 -0.00274445117
v -0.05039405 0.109037086 -0.00274445117
v -0.03310866 0.09870286 -0.021958299
v -0.0348511226 0.103737287 -0.02179275
v -0.0329164043 0.108701013 -0.021958299
v -0.0349472463 0.0987382159 -0.02179275
v -0.0347549953 0.108736366 -0.02179275
v -0.03680272 0.09877389 -0.0214955583
v -0.0367065929 0.103772968 -0.0214955583
v -0.03661047 0.108772047 -0.0214955583
v -0.03866135 0.09880963 -0.02106233
v -0.0385652259 0.103808708 -0.02106233
v -0.0384691 0.108807787 -0.02106233
v -0.0405084863 0.09884515 -0.02049056
v -0.0404123627 0.103844225 -0.02049056
v -0.0403162353 0.108843304 -0.02049056
v -0.04232888 0.09888016 -0.0197798349
v -0.0422327556 0.103879228 -0.0197798349
v -0.04213663 0.108878307 -0.0197798349
v -0.04410706 0.09891435 -0.0189319663
v -0.0440109372 0.103913419 -0.0189319663
v -0.04391481 0.1089125 -0.0189319663
v -0.04582773 0.0989474356 -0.01795106
v -0.0457316041 0.103946507 -0.01795106
v -0.04563548 0.108945586 -0.01795106
v -0.047476206 0.09897913 -0.01684346
v -0.04738008 0.103978209 -0.01684346
v -0.0472839549 0.108977281 -0.01684346
v -0.0490388051 0.09900918 -0.0156176453
v -0.0489426777 0.10400825 -0.0156176453
v -0.048846554 0.109007329 -0.0156176453
v -0.0505032539 0.0990373343 -0.0142840045
v -0.0504071265 0.104036413 -0.0142840045
v -0.050311 0.109035492 -0.0142840045
v -0.0518589579 0.0990634039 -0.012854551
v -0.05176283 0.104062483 -0.012854551
v -0.0516667068 0.109061562 -0.012854551
v -0.0530973077 0.099087216 -0.01134256
v -0.05300118 0.104086295 -0.01134256
v -0.0529050529 0.109085374 -0.01134256
v -0.05421179 0.09910865 -0.009762189
v -0.0541156642 0.104107723 -0.009762189
v -0.05401954 0.1091068 -0.009762189
v -0.05519809 0.09912761 -0.008128074
v -0.05510196 0.104126692 -0.008128074
v -0.0550058335 0.109125763 -0.008128074
v -0.0560540557 0.09914407 -0.006454927
v -0.05595793 0.10414315 -0.006454927
v -0.0558618 0.109142222 -0.006454927
v -0.0567796268 0.09915803 -0.00475715753
v -0.0565873757 0.109156176 -0.00475715753
v -0.0329164043 0.108701013 -0.021958299
v -0.03301253 0.103701934 -0.0187016763
v -0.03310866 0.09870286 -0.021958299
v -0.0329164043 0.108701013 -0.0154450508
v -0.03310866 0.09870286 -0.0154450508
f 1 2 3
f 2 4 3
f 4 5 3
f 4 6 5
f 6 7 5
f 6 8 7
f 8 9 7
f 8 10 9
f 10 11 9
f 10 12 11
f 12 13 11
f 12 14 13
f 14 15 13
f 14 16 15
f 13 15 17
f 16 18 15
f 15 19 17
f 15 20 19
f 18 21 15
f 21 20 15
f 21 22 20
f 21 23 22
f 23 24 22
f 23 25 24
f 25 26 24
f 25 27 26
f 27 28 26
f 27 29 28
f 29 30 28
f 29 31 30
f 31 32 30
f 31 33 32
f 33 34 32
f 33 35 34
f 36 37 38
f 37 39 38
f 37 40 39
f 40 41 39
f 40 42 41
f 42 43 41
f 42 44 43
f 44 45 43
f 44 46 45
f 46 47 45
f 46 48 47
f 48 49 47
f 48 50 49
f 50 48 51
f 50 52 49
f 53 50 51
f 50 54 52
f 50 53 55
f 54 50 56
f 50 55 56
f 55 57 56
f 57 58 56
f 57 59 58
f 59 60 58
f 59 61 60
f 61 62 60
f 61 63 62
f 63 64 62
f 63 65 64
f 65 66 64
f 65 67 66
f 67 68 66
f 67 69 68
f 69 70 68
f 71 72 73
f 72 71 74
f 72 75 73
f 72 74 76
f 72 77 75
f 77 72 76
f 77 78 75
f 77 76 79
f 77 80 78
f 80 77 79
f 80 81 78
f 80 79 82
f 80 83 81
f 83 80 82
f 83 84 81
f 83 82 85
f 83 86 84
f 86 83 85
f 86 87 84
f 86 85 88
f 86 89 87
f 89 86 88
f 89 90 87
f 89 88 91
f 89 92 90
f 92 89 91
f 92 93 90
f 92 91 94
f 92 95 93
f 95 92 94
f 95 96 93
f 95 94 97
f 95 98 96
f 98 95 97
f 98 99 96
f 98 97 100
f 98 101 99
f 101 98 100
f 101 102 99
f 101 100 103
f 101 104 102
f 104 101 103
f 104 105 102
f 104 103 106
f 104 107 105
f 107 104 106
f 107 108 105
f 107 106 109
f 107 110 108
f 110 107 109
f 110 111 108
f 110 109 112
f 110 113 111
f 113 110 112
f 113 114 111
f 113 112 115
f 113 116 114
f 116 113 115
f 116 117 114
f 116 115 118
f 116 119 117
f 119 116 118
f 120 121 122
f 120 122 123
f 121 120 124
f 124 120 123
f 125 126 127
f 126 125 128
f 126 129 127
f 126 128 130
f 126 131 129
f 131 126 130
f 131 132 129
f 131 130 133
f 131 134 132
f 134 131 133
f 134 135 132
f 134 133 136
f 134 137 135
f 137 134 136
f 137 138 135
f 137 136 139
f 137 140 138
f 140 137 139
f 140 141 138
f 140 139 142
f 140 143 141
f 143 140 142
f 143 144 141
f 143 142 145
f 143 146 144
f 146 143 145
f 146 147 144
f 146 145 148
f 146 149 147
f 149 146 148
f 149 150 147
f 149 148 151
f 149 152 150
f 152 149 151
f 152 153 150
f 152 151 154
f 152 155 153
f 155 152 154
f 155 156 153
f 155 154 157
f 155 158 156
f 158 155 157
f 158 159 156
f 158 157 160
f 158 161 159
f 161 158 160
f 161 162 159
f 161 160 163
f 161 164 162
f 164 161 163
f 164 165 162
f 164 163 166
f 164 167 165
f 167 164 166
f 167 168 165
f 167 166 169
f 167 170 168
f 170 167 169
f 170 171 168
f 170 169 172
f 170 173 171
f 173 170 172
f 174 175 176
f 177 175 174
f 175 178 176
f 175 177 178
