# ROS coordinates: X forward, Y left, Z up; units are metres.
o mesh
v -0.0155373253 -0.114169866 -0.00409759954
v -0.011437146 -0.118594885 -0.00655325968
v -0.0159756448 -0.113696821 -0.005297822
v -0.01201259 -0.117973849 -0.008194069
v -0.016475914 -0.113156922 -0.00647158828
v -0.012675235 -0.117258705 -0.00980087649
v -0.017037401 -0.112550952 -0.007608968
v -0.0134243239 -0.116450273 -0.0113593275
v -0.0176584385 -0.111880712 -0.008699992
v -0.0142576862 -0.115550891 -0.0128548956
v -0.0183363669 -0.111149073 -0.009734872
v -0.0151716638 -0.1145645 -0.0142733
v -0.01906756 -0.110359952 -0.0107042966
v -0.0161611512 -0.113496616 -0.0156008964
v -0.0198370442 -0.1095295 -0.0133071439
v -0.0172196571 -0.112354249 -0.01682505
v -0.019847475 -0.109518245 -0.0115996553
v -0.01833941 -0.111145787 -0.0179345682
v -0.0206707343 -0.108629763 -0.0124132829
v -0.0215312429 -0.107701078 -0.0131386844
v -0.0195115712 -0.10988076 -0.0189199522
v -0.0224223472 -0.106739379 -0.01377071
v -0.0207264517 -0.108569637 -0.0197737627
v -0.023337 -0.105752267 -0.0143056521
v -0.0219737813 -0.107223481 -0.0204907134
v -0.0242679343 -0.104747579 -0.014741336
v -0.02324299 -0.105853721 -0.0210678317
v -0.02520787 -0.103733175 -0.0150771076
v -0.0245234948 -0.104471773 -0.02150442
v -0.02614967 -0.102716759 -0.0153137958
v -0.0258049779 -0.103088759 -0.021801997
v -0.027086515 -0.101705693 -0.0154536115
v -0.02707763 -0.101715282 -0.0219641253
v -0.0280120373 -0.100706846 -0.0155000007
v -0.0283323638 -0.100361146 -0.021996174
v -0.03566754 -0.107157849 -0.021996174
v -0.034412805 -0.108511992 -0.0219641253
v -0.0353472121 -0.107503556 -0.0155000007
v -0.03442169 -0.1085024 -0.0154536115
v -0.0331401527 -0.109885469 -0.021801997
v -0.0334848464 -0.109513469 -0.0153137958
v -0.0318586677 -0.111268476 -0.02150442
v -0.0325430445 -0.110529885 -0.0150771076
v -0.0305781644 -0.112650432 -0.0210678317
v -0.03160311 -0.111544281 -0.014741336
v -0.0293089561 -0.114020191 -0.0204907134
v -0.0306721739 -0.112548977 -0.0143056521
v -0.0280616265 -0.11536634 -0.0197737627
v -0.029757522 -0.11353609 -0.01377071
v -0.026846746 -0.116677471 -0.0189199522
v -0.0288664177 -0.114497788 -0.0131386844
v -0.027172219 -0.116326213 -0.0133071439
v -0.0256745871 -0.1179425 -0.0179345682
v -0.02800591 -0.115426473 -0.0124132829
v -0.0245548319 -0.119150959 -0.01682505
v -0.0271826517 -0.116314955 -0.0115996553
v -0.0234963261 -0.120293327 -0.0156008964
v -0.0264027361 -0.117156655 -0.0107042966
v -0.0225068387 -0.1213612 -0.0142733
v -0.0256715417 -0.117945783 -0.009734872
v -0.021592861 -0.122347593 -0.0128548956
v -0.0249936152 -0.118677415 -0.008699992
v -0.0207594987 -0.123246983 -0.0113593275
v -0.0243725758 -0.119347654 -0.007608968
v -0.02001041 -0.124055415 -0.00980087649
v -0.0238110889 -0.119953625 -0.00647158828
v -0.0193477646 -0.124770559 -0.008194069
v -0.02331082 -0.120493531 -0.005297822
v -0.01877232 -0.125391588 -0.00655325968
v -0.0228725 -0.120966576 -0.00409759954
v -0.03074522 -0.105113633 -0.0219641253
v -0.02707763 -0.101715282 -0.0219641253
v -0.0258049779 -0.103088759 -0.021801997
v -0.0283323638 -0.100361146 -0.021996174
v -0.03566754 -0.107157849 -0.021996174
v -0.034412805 -0.108511992 -0.0219641253
v -0.0294725653 -0.10648711 -0.021801997
v -0.0245234948 -0.104471773 -0.02150442
v -0.0331401527 -0.109885469 -0.021801997
v -0.0281910822 -0.107870124 -0.02150442
v -0.02324299 -0.105853721 -0.0210678317
v -0.0318586677 -0.111268476 -0.02150442
v -0.026910577 -0.109252073 -0.0210678317
v -0.0219737813 -0.107223481 -0.0204907134
v -0.0305781644 -0.112650432 -0.0210678317
v -0.02564137 -0.11062184 -0.0204907134
v -0.0207264517 -0.108569637 -0.0197737627
v -0.0293089561 -0.114020191 -0.0204907134
v -0.0243940391 -0.111967988 -0.0197737627
v -0.0195115712 -0.10988076 -0.0189199522
v -0.0280616265 -0.11536634 -0.0197737627
v -0.0231791586 -0.113279119 -0.0189199522
v -0.01833941 -0.111145787 -0.0179345682
v -0.026846746 -0.116677471 -0.0189199522
v -0.022007 -0.114544138 -0.0179345682
v -0.0172196571 -0.112354249 -0.01682505
v -0.0256745871 -0.1179425 -0.0179345682
v -0.0208872445 -0.115752608 -0.01682505
v -0.0161611512 -0.113496616 -0.0156008964
v -0.0245548319 -0.119150959 -0.01682505
v -0.0198287386 -0.116894975 -0.0156008964
v -0.0151716638 -0.1145645 -0.0142733
v -0.0234963261 -0.120293327 -0.0156008964
v -0.0188392513 -0.117962852 -0.0142733
v -0.0142576862 -0.115550891 -0.0128548956
v -0.0225068387 -0.1213612 -0.0142733
v -0.0179252736 -0.118949242 -0.0128548956
v -0.0134243239 -0.116450273 -0.0113593275
v -0.021592861 -0.122347593 -0.0128548956
v -0.0170919113 -0.119848624 -0.0113593275
v -0.012675235 -0.117258705 -0.00980087649
v -0.0207594987 -0.123246983 -0.0113593275
v -0.0163428225 -0.120657057 -0.00980087649
v -0.01201259 -0.117973849 -0.008194069
v -0.02001041 -0.124055415 -0.00980087649
v -0.0156801771 -0.121372208 -0.008194069
v -0.011437146 -0.118594885 -0.00655325968
v -0.0193477646 -0.124770559 -0.008194069
v -0.01877232 -0.125391588 -0.00655325968
v -0.031839788 -0.103932351 -0.0187480859
v -0.0283323638 -0.100361146 -0.021996174
v -0.03566754 -0.107157849 -0.021996174
v -0.0353472121 -0.107503556 -0.0155000007
v -0.0280120373 -0.100706846 -0.0155000007
v -0.0196432322 -0.117095172 -0.005297822
v -0.0159756448 -0.113696821 -0.005297822
v -0.016475914 -0.113156922 -0.00647158828
v -0.0155373253 -0.114169866 -0.00409759954
v -0.0228725 -0.120966576 -0.00409759954
v -0.02331082 -0.120493531 -0.005297822
v -0.0201435015 -0.116555274 -0.00647158828
v -0.017037401 -0.112550952 -0.007608968
v -0.0238110889 -0.119953625 -0.00647158828
v -0.0207049884 -0.1159493 -0.007608968
v -0.0176584385 -0.111880712 -0.008699992
v -0.0243725758 -0.119347654 -0.007608968
v -0.0213260278 -0.115279064 -0.008699992
v -0.0183363669 -0.111149073 -0.009734872
v -0.0249936152 -0.118677415 -0.008699992
v -0.0220039524 -0.114547424 -0.009734872
v -0.01906756 -0.110359952 -0.0107042966
v -0.0256715417 -0.117945783 -0.009734872
v -0.0227351487 -0.1137583 -0.0107042966
v -0.019847475 -0.109518245 -0.0115996553
v -0.0264027361 -0.117156655 -0.0107042966
v -0.0235150643 -0.112916596 -0.0115996553
v -0.0206707343 -0.108629763 -0.0124132829
v -0.0271826517 -0.116314955 -0.0115996553
v -0.02433832 -0.112028122 -0.0124132829
v -0.0215312429 -0.107701078 -0.0131386844
v -0.02800591 -0.115426473 -0.0124132829
v -0.02519883 -0.111099437 -0.0131386844
v -0.0224223472 -0.106739379 -0.01377071
v -0.0288664177 -0.114497788 -0.0131386844
v -0.0260899365 -0.110137731 -0.01377071
v -0.023337 -0.105752267 -0.0143056521
v -0.029757522 -0.11353609 -0.01377071
v -0.0270045865 -0.109150618 -0.0143056521
v -0.0242679343 -0.104747579 -0.014741336
v -0.0306721739 -0.112548977 -0.0143056521
v -0.0279355217 -0.10814593 -0.014741336
v -0.02520787 -0.103733175 -0.0150771076
v -0.03160311 -0.111544281 -0.014741336
v -0.0288754571 -0.107131526 -0.0150771076
v -0.02614967 -0.102716759 -0.0153137958
v -0.0325430445 -0.110529885 -0.0150771076
v -0.0298172571 -0.10611511 -0.0153137958
v -0.027086515 -0.101705693 -0.0154536115
v -0.0334848464 -0.109513469 -0.0153137958
v -0.0307541024 -0.105104044 -0.0154536115
v -0.0280120373 -0.100706846 -0.0155000007
v -0.03442169 -0.1085024 -0.0154536115
v -0.0353472121 -0.107503556 -0.0155000007
v -0.01715482 -0.119780734 -0.005325429
v -0.0155373253 -0.114169866 -0.00409759954
v -0.0228725 -0.120966576 -0.00409759954
v -0.01877232 -0.125391588 -0.00655325968
v -0.011437146 -0.118594885 -0.00655325968
f 1 2 3
f 2 4 3
f 4 5 3
f 4 6 5
f 6 7 5
f 6 8 7
f 8 9 7
f 8 10 9
f 10 11 9
f 10 12 11
f 12 13 11
f 12 14 13
f 14 15 13
f 14 16 15
f 13 15 17
f 16 18 15
f 15 19 17
f 15 20 19
f 18 21 15
f 21 20 15
f 21 22 20
f 21 23 22
f 23 24 22
f 23 25 24
f 25 26 24
f 25 27 26
f 27 28 26
f 27 29 28
f 29 30 28
f 29 31 30
f 31 32 30
f 31 33 32
f 33 34 32
f 33 35 34
f 36 37 38
f 37 39 38
f 37 40 39
f 40 41 39
f 40 42 41
f 42 43 41
f 42 44 43
f 44 45 43
f 44 46 45
f 46 47 45
f 46 48 47
f 48 49 47
f 48 50 49
f 50 51 49
f 50 52 51
f 52 50 53
f 52 54 51
f 55 52 53
f 52 56 54
f 52 55 57
f 56 52 58
f 52 57 58
f 57 59 58
f 59 60 58
f 59 61 60
f 61 62 60
f 61 63 62
f 63 64 62
f 63 65 64
f 65 66 64
f 65 67 66
f 67 68 66
f 67 69 68
f 69 70 68
f 71 72 73
f 71 74 72
f 74 71 75
f 71 76 75
f 77 71 73
f 71 77 76
f 77 73 78
f 77 79 76
f 80 77 78
f 77 80 79
f 80 78 81
f 80 82 79
f 83 80 81
f 80 83 82
f 83 81 84
f 83 85 82
f 86 83 84
f 83 86 85
f 86 84 87
f 86 88 85
f 89 86 87
f 86 89 88
f 89 87 90
f 89 91 88
f 92 89 90
f 89 92 91
f 92 90 93
f 92 94 91
f 95 92 93
f 92 95 94
f 95 93 96
f 95 97 94
f 98 95 96
f 95 98 97
f 98 96 99
f 98 100 97
f 101 98 99
f 98 101 100
f 101 99 102
f 101 103 100
f 104 101 102
f 101 104 103
f 104 102 105
f 104 106 103
f 107 104 105
f 104 107 106
f 107 105 108
f 107 109 106
f 110 107 108
f 107 110 109
f 110 108 111
f 110 112 109
f 113 110 111
f 110 113 112
f 113 111 114
f 113 115 112
f 116 113 114
f 113 116 115
f 116 114 117
f 116 118 115
f 119 116 117
f 116 119 118
f 120 121 122
f 120 122 123
f 121 120 124
f 124 120 123
f 125 126 127
f 125 128 126
f 128 125 129
f 125 130 129
f 131 125 127
f 125 131 130
f 131 127 132
f 131 133 130
f 134 131 132
f 131 134 133
f 134 132 135
f 134 136 133
f 137 134 135
f 134 137 136
f 137 135 138
f 137 139 136
f 140 137 138
f 137 140 139
f 140 138 141
f 140 142 139
f 143 140 141
f 140 143 142
f 143 141 144
f 143 145 142
f 146 143 144
f 143 146 145
f 146 144 147
f 146 148 145
f 149 146 147
f 146 149 148
f 149 147 150
f 149 151 148
f 152 149 150
f 149 152 151
f 152 150 153
f 152 154 151
f 155 152 153
f 152 155 154
f 155 153 156
f 155 157 154
f 158 155 156
f 155 158 157
f 158 156 159
f 158 160 157
f 161 158 159
f 158 161 160
f 161 159 162
f 161 163 160
f 164 161 162
f 161 164 163
f 164 162 165
f 164 166 163
f 167 164 165
f 164 167 166
f 167 165 168
f 167 169 166
f 170 167 168
f 167 170 169
f 170 168 171
f 170 172 169
f 173 170 171
f 170 173 172
f 174 175 176
f 174 176 177
f 175 174 178
f 178 174 177
