# ROS coordinates: X forward, Y left, Z up; units are metres.
o mesh
v 0.136901483 0.00160000008 0.160650477
v 0.1372501 0.00160000008 0.168607622
v 0.136871129 0.00160000008 0.161163211
v 0.136732519 0.00160000008 0.161669523
v 0.136491254 0.00160000008 0.16213572
v 0.136166051 0.00160000008 0.162533253
v 0.135766461 0.00160000008 0.162855968
v 0.135298744 0.00160000008 0.163094282
v 0.13389124 0.00160000008 0.170982942
v 0.134791568 0.00160000008 0.163229674
v 0.13427867 0.00160000008 0.1632568
v 0.133771062 0.00160000008 0.163178474
v 0.133279979 0.00160000008 0.162993044
v 0.131818831 0.00160000008 0.170879036
v 0.132838443 0.00160000008 0.162709132
v 0.130786851 0.00160000008 0.1682835
v 0.132473141 0.00160000008 0.162348077
v 0.132189333 0.00160000008 0.161920011
v 0.131995916 0.00160000008 0.161432
v 0.131908655 0.00160000008 0.160914361
v 0.131929755 0.00160000008 0.16040118
v 0.134866312 0.00160000008 0.173565656
v 0.135707483 0.00160000008 0.174048752
v 0.135785341 0.00160000008 0.174111515
v 0.1350799 0.00160000008 0.174827337
v 0.137424409 0.00160000008 0.172586173
v 0.13451004 0.00160000008 0.174500033
v 0.134598628 0.00160000008 0.175005525
v 0.134772867 0.00160000008 0.173530012
v 0.133823574 0.00160000008 0.173330471
v 0.13441661 0.00160000008 0.1744644
v 0.134013951 0.00160000008 0.1747826
v 0.1337735 0.00160000008 0.1743292
v 0.1337237 0.00160000008 0.173325464
v 0.1327592 0.00160000008 0.173429042
v 0.133020192 0.00160000008 0.174394369
v 0.133389 0.00160000008 0.174751267
v 0.133673608 0.00160000008 0.174324214
v 0.132662669 0.00160000008 0.173455119
v 0.131777391 0.00160000008 0.173851684
v 0.132323921 0.00160000008 0.174689129
v 0.132923663 0.00160000008 0.174420476
v 0.132784963 0.00160000008 0.174914584
v 0.131693646 0.00160000008 0.173906326
v 0.130974233 0.00160000008 0.174557045
v 0.131752789 0.00160000008 0.175184608
v 0.132240176 0.00160000008 0.174743772
v 0.132260934 0.00160000008 0.175256565
v 0.130911469 0.00160000008 0.1746349
v 0.130428344 0.00160000008 0.175476074
v 0.129643947 0.00160000008 0.176165849
v 0.131362736 0.00160000008 0.175832346
v 0.131690025 0.00160000008 0.175262466
v 0.131868243 0.00160000008 0.175743729
v 0.13039273 0.00160000008 0.1755695
v 0.130193189 0.00160000008 0.176518828
v 0.131191924 0.00160000008 0.17656891
v 0.131327108 0.00160000008 0.175925776
v 0.131645322 0.00160000008 0.176328421
v 0.130188182 0.00160000008 0.17661868
v 0.1296094 0.00160000008 0.1769741
v 0.129746124 0.00160000008 0.177801922
v 0.130291745 0.00160000008 0.177583173
v 0.131186917 0.00160000008 0.176668763
v 0.1300584 0.00160000008 0.178594291
v 0.131257087 0.00160000008 0.177322179
v 0.13161397 0.00160000008 0.176953375
v 0.130317837 0.00160000008 0.177679718
v 0.130714387 0.00160000008 0.178565
v 0.1312832 0.00160000008 0.177418724
v 0.130527243 0.00160000008 0.179297656
v 0.131551832 0.00160000008 0.178018481
v 0.131777287 0.00160000008 0.177557409
v 0.130769044 0.00160000008 0.178648755
v 0.131114036 0.00160000008 0.1798715
v 0.131419748 0.00160000008 0.179368168
v 0.131606489 0.00160000008 0.178102225
v 0.132047325 0.00160000008 0.178589582
v 0.132119283 0.00160000008 0.178081453
v 0.1314976 0.00160000008 0.179430917
v 0.131787539 0.00160000008 0.180304348
v 0.132125184 0.00160000008 0.178652346
v 0.132338777 0.00160000008 0.179914027
v 0.13256304 0.00160000008 0.1806024
v 0.132695049 0.00160000008 0.17897965
v 0.132606462 0.00160000008 0.178474128
v 0.132432222 0.00160000008 0.179949671
v 0.132788479 0.00160000008 0.179015279
v 0.133381516 0.00160000008 0.180149212
v 0.133191139 0.00160000008 0.17869705
v 0.1334316 0.00160000008 0.179150462
v 0.133402213 0.00160000008 0.180734813
v 0.1334814 0.00160000008 0.180154219
v 0.134250417 0.00160000008 0.18068701
v 0.1341849 0.00160000008 0.1790853
v 0.1338161 0.00160000008 0.1787284
v 0.133531481 0.00160000008 0.179155469
v 0.134445891 0.00160000008 0.180050641
v 0.134542421 0.00160000008 0.180024534
v 0.135051847 0.00160000008 0.180468053
v 0.134881169 0.00160000008 0.17879054
v 0.134281427 0.00160000008 0.179059193
v 0.134420127 0.00160000008 0.178565085
v 0.1354277 0.00160000008 0.179627985
v 0.135765269 0.00160000008 0.180104747
v 0.135511443 0.00160000008 0.179573327
v 0.136230871 0.00160000008 0.178922623
v 0.136406541 0.00160000008 0.17959249
v 0.1354523 0.00160000008 0.178295076
v 0.134964913 0.00160000008 0.178735882
v 0.134944156 0.00160000008 0.1782231
v 0.13629362 0.00160000008 0.178844765
v 0.1369434 0.00160000008 0.178939566
v 0.136776745 0.00160000008 0.178003609
v 0.135842353 0.00160000008 0.177647337
v 0.135515049 0.00160000008 0.178217217
v 0.135336846 0.00160000008 0.177735925
v 0.136812359 0.00160000008 0.177910164
v 0.137333363 0.00160000008 0.178182408
v 0.1370119 0.00160000008 0.176960856
v 0.1375522 0.00160000008 0.177372411
v 0.137598708 0.00160000008 0.176564753
v 0.136013165 0.00160000008 0.176910788
v 0.135877982 0.00160000008 0.177553892
v 0.135559767 0.00160000008 0.177151248
v 0.137016922 0.00160000008 0.176860988
v 0.136913344 0.00160000008 0.1758965
v 0.136018187 0.00160000008 0.1768109
v 0.137511551 0.00160000008 0.174575463
v 0.135948 0.00160000008 0.1761575
v 0.13559112 0.00160000008 0.1765263
v 0.136887252 0.00160000008 0.175799966
v 0.1364907 0.00160000008 0.174914673
v 0.1359219 0.00160000008 0.176060945
v 0.135653257 0.00160000008 0.1754612
v 0.1354278 0.00160000008 0.175922245
v 0.136436045 0.00160000008 0.174830943
v 0.135598615 0.00160000008 0.175377458
v 0.135157764 0.00160000008 0.174890086
v 0.1350858 0.00160000008 0.175398216
v 0.133552462 0.00460000057 0.177738577
v 0.133552462 0.00560000027 0.177738577
v 0.133735031 0.00560000027 0.177731037
v 0.133761838 0.00510000065 0.177727059
v 0.133735031 0.00460000057 0.177731037
v 0.1339236 0.00560000027 0.177686885
v 0.1339236 0.00460000057 0.177686885
v 0.1339771 0.00510000065 0.177667022
v 0.134107143 0.00560000027 0.1776032
v 0.134107143 0.00460000057 0.1776032
v 0.134181216 0.00510000065 0.1775554
v 0.13427335 0.00560000027 0.177481472
v 0.13427335 0.00460000057 0.177481472
v 0.134356141 0.00510000065 0.177397192
v 0.134411082 0.00560000027 0.177328274
v 0.134411082 0.00460000057 0.177328274
v 0.134487629 0.00510000065 0.177205265
v 0.134512737 0.00560000027 0.177154034
v 0.134512737 0.00460000057 0.177154034
v 0.134568885 0.00510000065 0.1769971
v 0.1345755 0.00560000027 0.17697081
v 0.1346013 0.00510000065 0.176789925
v 0.1345755 0.00460000057 0.17697081
v 0.1346013 0.00560000027 0.176789925
v 0.1346013 0.00460000057 0.176789925
v 0.134593725 0.00560000027 0.176607355
v 0.134593725 0.00460000057 0.176607355
v 0.134589776 0.00510000065 0.176580548
v 0.1345496 0.00560000027 0.176418781
v 0.1345496 0.00460000057 0.176418781
v 0.1345496 0.00510000065 0.176418781
v 0.134480268 0.00510000065 0.17626068
v 0.1344659 0.00560000027 0.176235229
v 0.1344659 0.00460000057 0.176235229
v 0.134382531 0.00510000065 0.176114053
v 0.13434419 0.00560000027 0.176069051
v 0.13434419 0.00460000057 0.176069051
v 0.1342599 0.00510000065 0.17598623
v 0.134190977 0.00560000027 0.17593129
v 0.134190977 0.00460000057 0.17593129
v 0.134118184 0.00510000065 0.17588304
v 0.134016752 0.00560000027 0.175829649
v 0.134016752 0.00460000057 0.175829649
v 0.133964777 0.00510000065 0.175807759
v 0.133833528 0.00560000027 0.17576687
v 0.133833528 0.00460000057 0.17576687
v 0.1338073 0.00510000065 0.175761014
v 0.133652627 0.00560000027 0.175741091
v 0.133652627 0.00460000057 0.175741091
v 0.133470058 0.00560000027 0.175748631
v 0.133443266 0.00510000065 0.17575261
v 0.133470058 0.00460000057 0.175748631
v 0.133281469 0.00560000027 0.175792783
v 0.133281469 0.00460000057 0.175792783
v 0.133227989 0.00510000065 0.175812632
v 0.133097947 0.00560000027 0.175876483
v 0.133097947 0.00460000057 0.175876483
v 0.133023888 0.00510000065 0.175924271
v 0.132931739 0.00560000027 0.1759982
v 0.132931739 0.00460000057 0.1759982
v 0.132848948 0.00510000065 0.176082477
v 0.132794008 0.00560000027 0.1761514
v 0.132794008 0.00460000057 0.1761514
v 0.13271746 0.00510000065 0.1762744
v 0.132692367 0.00560000027 0.176325619
v 0.132692367 0.00460000057 0.176325619
v 0.1326362 0.00510000065 0.176482573
v 0.132629588 0.00560000027 0.176508859
v 0.132603809 0.00510000065 0.176689759
v 0.132629588 0.00460000057 0.176508859
v 0.132603809 0.00560000027 0.176689759
v 0.132603809 0.00460000057 0.176689759
v 0.132611364 0.00560000027 0.176872313
v 0.132611364 0.00460000057 0.176872313
v 0.132615313 0.00510000065 0.176899135
v 0.132655486 0.00560000027 0.1770609
v 0.132655486 0.00460000057 0.1770609
v 0.132655486 0.00510000065 0.1770609
v 0.132724822 0.00510000065 0.177219
v 0.1327392 0.00560000027 0.177244455
v 0.1327392 0.00460000057 0.177244455
v 0.132822558 0.00510000065 0.177365616
v 0.132860914 0.00560000027 0.177410662
v 0.132860914 0.00460000057 0.177410662
v 0.1329452 0.00510000065 0.177493423
v 0.133014113 0.00560000027 0.177548379
v 0.133014113 0.00460000057 0.177548379
v 0.1330869 0.00510000065 0.177596644
v 0.133188352 0.00560000027 0.17765002
v 0.133188352 0.00460000057 0.17765002
v 0.133240312 0.00510000065 0.177671909
v 0.133371562 0.00560000027 0.1777128
v 0.133371562 0.00460000057 0.1777128
v 0.133397788 0.00510000065 0.177718639
v 0.133552462 0.00560000027 0.177738577
v 0.133552462 0.00460000057 0.177738577
v 0.130193189 0.00460000057 0.176518828
v 0.131191924 0.00460000057 0.17656891
v 0.130188182 0.00460000057 0.17661868
v 0.131186917 0.00460000057 0.176668763
v 0.13161397 0.00460000057 0.176953375
v 0.131645322 0.00460000057 0.176328421
v 0.132603809 0.00460000057 0.176689759
v 0.132629588 0.00460000057 0.176508859
v 0.132611364 0.00460000057 0.176872313
v 0.132692367 0.00460000057 0.176325619
v 0.132655486 0.00460000057 0.1770609
v 0.131868243 0.00460000057 0.175743729
v 0.132794008 0.00460000057 0.1761514
v 0.131777287 0.00460000057 0.177557409
v 0.1327392 0.00460000057 0.177244455
v 0.131362736 0.00460000057 0.175832346
v 0.131327108 0.00460000057 0.175925776
v 0.13039273 0.00460000057 0.1755695
v 0.130428344 0.00460000057 0.175476074
v 0.132260934 0.00460000057 0.175256565
v 0.132931739 0.00460000057 0.1759982
v 0.131690025 0.00460000057 0.175262466
v 0.133097947 0.00460000057 0.175876483
v 0.131752789 0.00460000057 0.175184608
v 0.130911469 0.00460000057 0.1746349
v 0.130974233 0.00460000057 0.174557045
v 0.132784963 0.00460000057 0.174914584
v 0.133281469 0.00460000057 0.175792783
v 0.132240176 0.00460000057 0.174743772
v 0.13367337 0.00460000057 0.17532739
v 0.133470058 0.00460000057 0.175748631
v 0.133652627 0.00460000057 0.175741091
v 0.133833528 0.00460000057 0.17576687
v 0.134016752 0.00460000057 0.175829649
v 0.132323921 0.00460000057 0.174689129
v 0.131693646 0.00460000057 0.173906326
v 0.131777391 0.00460000057 0.173851684
v 0.134598628 0.00460000057 0.175005525
v 0.134190977 0.00460000057 0.17593129
v 0.133389 0.00460000057 0.174751267
v 0.132923663 0.00460000057 0.174420476
v 0.133020192 0.00460000057 0.174394369
v 0.132662669 0.00460000057 0.173455119
v 0.1327592 0.00460000057 0.173429042
v 0.1350858 0.00460000057 0.175398216
v 0.13434419 0.00460000057 0.176069051
v 0.1344659 0.00460000057 0.176235229
v 0.1354278 0.00460000057 0.175922245
v 0.1345496 0.00460000057 0.176418781
v 0.13559112 0.00460000057 0.1765263
v 0.134593725 0.00460000057 0.176607355
v 0.1346013 0.00460000057 0.176789925
v 0.135653257 0.00460000057 0.1754612
v 0.1359219 0.00460000057 0.176060945
v 0.135598615 0.00460000057 0.175377458
v 0.1364907 0.00460000057 0.174914673
v 0.136436045 0.00460000057 0.174830943
v 0.135157764 0.00460000057 0.174890086
v 0.1350799 0.00460000057 0.174827337
v 0.135785341 0.00460000057 0.174111515
v 0.135707483 0.00460000057 0.174048752
v 0.135948 0.00460000057 0.1761575
v 0.136913344 0.00460000057 0.1758965
v 0.136887252 0.00460000057 0.175799966
v 0.134013951 0.00460000057 0.1747826
v 0.13451004 0.00460000057 0.174500033
v 0.13441661 0.00460000057 0.1744644
v 0.134866312 0.00460000057 0.173565656
v 0.134772867 0.00460000057 0.173530012
v 0.133691788 0.00460000057 0.174960062
v 0.133701473 0.00460000057 0.174766928
v 0.133673608 0.00460000057 0.174324214
v 0.1337735 0.00460000057 0.1743292
v 0.1337237 0.00460000057 0.173325464
v 0.133823574 0.00460000057 0.173330471
v 0.1312832 0.00460000057 0.177418724
v 0.130317837 0.00460000057 0.177679718
v 0.130291745 0.00460000057 0.177583173
v 0.131257087 0.00460000057 0.177322179
v 0.132119283 0.00460000057 0.178081453
v 0.132860914 0.00460000057 0.177410662
v 0.131551832 0.00460000057 0.178018481
v 0.133014113 0.00460000057 0.177548379
v 0.131606489 0.00460000057 0.178102225
v 0.130714387 0.00460000057 0.178565
v 0.130769044 0.00460000057 0.178648755
v 0.132606462 0.00460000057 0.178474128
v 0.133188352 0.00460000057 0.17765002
v 0.132047325 0.00460000057 0.178589582
v 0.132125184 0.00460000057 0.178652346
v 0.131419748 0.00460000057 0.179368168
v 0.1314976 0.00460000057 0.179430917
v 0.133191139 0.00460000057 0.17869705
v 0.133371562 0.00460000057 0.1777128
v 0.132695049 0.00460000057 0.17897965
v 0.133552462 0.00460000057 0.177738577
v 0.1338161 0.00460000057 0.1787284
v 0.133735031 0.00460000057 0.177731037
v 0.1339236 0.00460000057 0.177686885
v 0.132788479 0.00460000057 0.179015279
v 0.132338777 0.00460000057 0.179914027
v 0.132432222 0.00460000057 0.179949671
v 0.1334316 0.00460000057 0.179150462
v 0.133531481 0.00460000057 0.179155469
v 0.1334814 0.00460000057 0.180154219
v 0.133381516 0.00460000057 0.180149212
v 0.134420127 0.00460000057 0.178565085
v 0.134107143 0.00460000057 0.1776032
v 0.134281427 0.00460000057 0.179059193
v 0.1341849 0.00460000057 0.1790853
v 0.134542421 0.00460000057 0.180024534
v 0.134445891 0.00460000057 0.180050641
v 0.134944156 0.00460000057 0.1782231
v 0.13427335 0.00460000057 0.177481472
v 0.134411082 0.00460000057 0.177328274
v 0.134964913 0.00460000057 0.178735882
v 0.134881169 0.00460000057 0.17879054
v 0.135511443 0.00460000057 0.179573327
v 0.1354277 0.00460000057 0.179627985
v 0.135336846 0.00460000057 0.177735925
v 0.134512737 0.00460000057 0.177154034
v 0.135515049 0.00460000057 0.178217217
v 0.1354523 0.00460000057 0.178295076
v 0.13629362 0.00460000057 0.178844765
v 0.136230871 0.00460000057 0.178922623
v 0.135559767 0.00460000057 0.177151248
v 0.1345755 0.00460000057 0.17697081
v 0.135842353 0.00460000057 0.177647337
v 0.135877982 0.00460000057 0.177553892
v 0.136812359 0.00460000057 0.177910164
v 0.136776745 0.00460000057 0.178003609
v 0.136013165 0.00460000057 0.176910788
v 0.136018187 0.00460000057 0.1768109
v 0.137016922 0.00460000057 0.176860988
v 0.1370119 0.00460000057 0.176960856
v 0.137598708 0.00160000008 0.176564753
v 0.137598708 0.00560000027 0.176564753
v 0.1375522 0.00560000027 0.177372411
v 0.13753958 0.0036000004 0.177446753
v 0.1375522 0.00160000008 0.177372411
v 0.1374333 0.0036000004 0.177891031
v 0.137333363 0.00560000027 0.178182408
v 0.137333363 0.00160000008 0.178182408
v 0.137274772 0.0036000004 0.178325623
v 0.1369434 0.00560000027 0.178939566
v 0.1369434 0.00160000008 0.178939566
v 0.136985436 0.0036000004 0.178874314
v 0.136616364 0.0036000004 0.179369837
v 0.136406541 0.00560000027 0.17959249
v 0.136406541 0.00160000008 0.17959249
v 0.136182815 0.0036000004 0.179796353
v 0.135765269 0.00560000027 0.180104747
v 0.135765269 0.00160000008 0.180104747
v 0.135703534 0.0036000004 0.180143639
v 0.135188729 0.0036000004 0.1804119
v 0.135051847 0.00560000027 0.180468053
v 0.135051847 0.00160000008 0.180468053
v 0.134623587 0.0036000004 0.180607319
v 0.134250417 0.00560000027 0.18068701
v 0.134250417 0.00160000008 0.18068701
v 0.134021476 0.0036000004 0.180717841
v 0.133402213 0.00560000027 0.180734813
v 0.133402213 0.00160000008 0.180734813
v 0.133402213 0.0036000004 0.180734813
v 0.132715166 0.0036000004 0.180640161
v 0.13256304 0.00560000027 0.1806024
v 0.13256304 0.00160000008 0.1806024
v 0.1320643 0.0036000004 0.18043223
v 0.131787539 0.00560000027 0.180304348
v 0.131787539 0.00160000008 0.180304348
v 0.131475 0.0036000004 0.1801271
v 0.131114036 0.00560000027 0.1798715
v 0.131114036 0.00160000008 0.1798715
v 0.130953223 0.0036000004 0.1797367
v 0.130527243 0.00560000027 0.179297656
v 0.130527243 0.00160000008 0.179297656
v 0.130607843 0.0036000004 0.179391578
v 0.130301639 0.0036000004 0.178999037
v 0.1300584 0.00560000027 0.178594291
v 0.1300584 0.00160000008 0.178594291
v 0.130043864 0.0036000004 0.178566247
v 0.129841819 0.0036000004 0.178102538
v 0.129746124 0.00560000027 0.177801922
v 0.129746124 0.00160000008 0.177801922
v 0.129700363 0.0036000004 0.177619025
v 0.1296094 0.00560000027 0.1769741
v 0.1296094 0.00160000008 0.1769741
v 0.129621387 0.0036000004 0.1771275
v 0.1296038 0.0036000004 0.176639557
v 0.129643947 0.00560000027 0.176165849
v 0.129643947 0.00160000008 0.176165849
v 0.13427867 0.00160000008 0.1632568
v 0.13427867 -0.00340000028 0.1632568
v 0.134735093 -0.00340000028 0.163237885
v 0.1348021 0.00110000011 0.16322799
v 0.134791568 0.00160000008 0.163229674
v 0.13520655 -0.00340000028 0.163127556
v 0.135298744 0.00160000008 0.163094282
v 0.135340258 0.00110000011 0.163077936
v 0.135665387 -0.00340000028 0.162918285
v 0.135766461 0.00160000008 0.162855968
v 0.135850534 0.00110000011 0.162798837
v 0.136166051 0.00160000008 0.162533253
v 0.136080891 -0.00340000028 0.162613988
v 0.136287838 0.00110000011 0.162403286
v 0.136425227 -0.00340000028 0.162231013
v 0.136491254 0.00160000008 0.16213572
v 0.136616588 0.00110000011 0.161923483
v 0.136732519 0.00160000008 0.161669523
v 0.136679351 -0.00340000028 0.161795408
v 0.136819735 0.00110000011 0.161403045
v 0.136836261 -0.00340000028 0.161337376
v 0.136871129 0.00160000008 0.161163211
v 0.136900738 -0.00340000028 0.16088514
v 0.136900738 0.00110000011 0.16088514
v 0.136901483 0.00160000008 0.160650477
v 0.136881828 -0.00340000028 0.1604287
v 0.136871949 0.00110000011 0.160361677
v 0.136901483 0.00560000027 0.160650477
v 0.1368451 0.00560000027 0.160220936
v 0.136771515 -0.00340000028 0.15995726
v 0.136771515 0.00110000011 0.15995726
v 0.136706546 0.00560000027 0.1597864
v 0.136598185 0.00110000011 0.159562
v 0.136562258 -0.00340000028 0.1594984
v 0.136482134 0.00560000027 0.159370363
v 0.13635385 0.00110000011 0.159195453
v 0.136257961 -0.00340000028 0.15908289
v 0.136177227 0.00560000027 0.158997744
v 0.136047244 0.00110000011 0.158875957
v 0.135874987 -0.00340000028 0.158738568
v 0.135806531 0.00560000027 0.1586905
v 0.135693 0.00110000011 0.158617914
v 0.135439366 -0.00340000028 0.158484444
v 0.135391936 0.00560000027 0.158463448
v 0.135309473 0.00110000011 0.158429712
v 0.134981334 -0.00340000028 0.15832752
v 0.134958267 0.00560000027 0.158322155
v 0.134915769 0.00110000011 0.158312887
v 0.134529084 -0.00340000028 0.158263057
v 0.134529084 0.00560000027 0.158263057
v 0.134072661 -0.00340000028 0.158281952
v 0.134005651 0.00110000011 0.158291832
v 0.134096131 0.00560000027 0.158278927
v 0.133601218 -0.00340000028 0.158392265
v 0.133650512 0.00560000027 0.158376113
v 0.1334675 0.00110000011 0.1584419
v 0.133142367 -0.00340000028 0.158601537
v 0.133215278 0.00560000027 0.158560544
v 0.13295722 0.00110000011 0.158721
v 0.132726863 -0.00340000028 0.158905834
v 0.132815719 0.00560000027 0.158829167
v 0.132519916 0.00110000011 0.159116536
v 0.132382527 -0.00340000028 0.159288809
v 0.132475063 0.00560000027 0.159169421
v 0.132191166 0.00110000011 0.159596339
v 0.13221015 0.00560000027 0.159560919
v 0.132128417 -0.00340000028 0.159724414
v 0.132028833 0.00560000027 0.159979433
v 0.131988019 0.00110000011 0.160116777
v 0.131929755 0.00560000027 0.16040118
v 0.131971478 -0.00340000028 0.160182476
v 0.131929755 0.00160000008 0.16040118
v 0.131907016 -0.00340000028 0.160634726
v 0.131907016 0.00110000011 0.160634726
v 0.131908655 0.00160000008 0.160914361
v 0.131925911 -0.00340000028 0.161091119
v 0.13193579 0.00110000011 0.161158144
v 0.131995916 0.00160000008 0.161432
v 0.132036239 -0.00340000028 0.161562577
v 0.132036239 0.00110000011 0.161562577
v 0.132189333 0.00160000008 0.161920011
v 0.132209554 0.00110000011 0.1619578
v 0.1322455 -0.00340000028 0.162021428
v 0.132473141 0.00160000008 0.162348077
v 0.132453889 0.00110000011 0.162324384
v 0.132549793 -0.00340000028 0.162436932
v 0.13276051 0.00110000011 0.16264388
v 0.132838443 0.00160000008 0.162709132
v 0.132932782 -0.00340000028 0.162781268
v 0.133114755 0.00110000011 0.1629019
v 0.133368373 -0.00340000028 0.163035378
v 0.133279979 0.00160000008 0.162993044
v 0.133498281 0.00110000011 0.16309011
v 0.13382642 -0.00340000028 0.163192317
v 0.133771062 0.00160000008 0.163178474
v 0.133891985 0.00110000011 0.163206935
v 0.13427867 -0.00340000028 0.1632568
v 0.13427867 0.00160000008 0.1632568
v 0.132028833 0.00560000027 0.159979433
v 0.131929755 0.00560000027 0.16040118
v 0.13221015 0.00560000027 0.159560919
v 0.132475063 0.00560000027 0.159169421
v 0.132815719 0.00560000027 0.158829167
v 0.132836327 0.00560000027 0.169795811
v 0.133215278 0.00560000027 0.158560544
v 0.133650512 0.00560000027 0.158376113
v 0.129643947 0.00560000027 0.176165849
v 0.133947968 0.00560000027 0.169851556
v 0.134096131 0.00560000027 0.158278927
v 0.134529084 0.00560000027 0.158263057
v 0.134958267 0.00560000027 0.158322155
v 0.135391936 0.00560000027 0.158463448
v 0.135806531 0.00560000027 0.1586905
v 0.136177227 0.00560000027 0.158997744
v 0.136901483 0.00560000027 0.160650477
v 0.136482134 0.00560000027 0.159370363
v 0.136706546 0.00560000027 0.1597864
v 0.1368451 0.00560000027 0.160220936
v 0.137598708 0.00560000027 0.176564753
v 0.133281469 0.00560000027 0.175792783
v 0.133470058 0.00560000027 0.175748631
v 0.133652627 0.00560000027 0.175741091
v 0.133097947 0.00560000027 0.175876483
v 0.133833528 0.00560000027 0.17576687
v 0.132931739 0.00560000027 0.1759982
v 0.134016752 0.00560000027 0.175829649
v 0.132794008 0.00560000027 0.1761514
v 0.132692367 0.00560000027 0.176325619
v 0.134190977 0.00560000027 0.17593129
v 0.132629588 0.00560000027 0.176508859
v 0.13434419 0.00560000027 0.176069051
v 0.1344659 0.00560000027 0.176235229
v 0.1345496 0.00560000027 0.176418781
v 0.134593725 0.00560000027 0.176607355
v 0.130527243 0.00560000027 0.179297656
v 0.132603809 0.00560000027 0.176689759
v 0.1300584 0.00560000027 0.178594291
v 0.129746124 0.00560000027 0.177801922
v 0.1296094 0.00560000027 0.1769741
v 0.131114036 0.00560000027 0.1798715
v 0.132611364 0.00560000027 0.176872313
v 0.131787539 0.00560000027 0.180304348
v 0.132655486 0.00560000027 0.1770609
v 0.1327392 0.00560000027 0.177244455
v 0.13256304 0.00560000027 0.1806024
v 0.132860914 0.00560000027 0.177410662
v 0.133014113 0.00560000027 0.177548379
v 0.133188352 0.00560000027 0.17765002
v 0.133402213 0.00560000027 0.180734813
v 0.133371562 0.00560000027 0.1777128
v 0.133552462 0.00560000027 0.177738577
v 0.133735031 0.00560000027 0.177731037
v 0.1339236 0.00560000027 0.177686885
v 0.134250417 0.00560000027 0.18068701
v 0.134107143 0.00560000027 0.1776032
v 0.13427335 0.00560000027 0.177481472
v 0.134411082 0.00560000027 0.177328274
v 0.135051847 0.00560000027 0.180468053
v 0.134512737 0.00560000027 0.177154034
v 0.1345755 0.00560000027 0.17697081
v 0.135765269 0.00560000027 0.180104747
v 0.1346013 0.00560000027 0.176789925
v 0.136406541 0.00560000027 0.17959249
v 0.1369434 0.00560000027 0.178939566
v 0.137333363 0.00560000027 0.178182408
v 0.1375522 0.00560000027 0.177372411
v 0.131929755 0.00160000008 0.16040118
v 0.130786851 0.0036000004 0.1682835
v 0.131929755 0.00560000027 0.16040118
v 0.130786851 0.00160000008 0.1682835
v 0.129643947 0.00560000027 0.176165849
v 0.129643947 0.00160000008 0.176165849
v 0.1372501 0.0036000004 0.168607622
v 0.137598708 0.00560000027 0.176564753
v 0.137598708 0.00160000008 0.176564753
v 0.137511551 0.00160000008 0.174575463
v 0.136901483 0.00560000027 0.160650477
v 0.137424409 0.00160000008 0.172586173
v 0.136901483 0.00160000008 0.160650477
v 0.1372501 0.00160000008 0.168607622
v 0.130692557 0.0031 0.176543862
v 0.130193189 0.00460000057 0.176518828
v 0.130193189 0.00160000008 0.176518828
v 0.131191924 0.00160000008 0.17656891
v 0.131191924 0.00460000057 0.17656891
v 0.131418616 0.0031 0.176448658
v 0.131191924 0.00160000008 0.17656891
v 0.131645322 0.00160000008 0.176328421
v 0.131645322 0.00460000057 0.176328421
v 0.131191924 0.00460000057 0.17656891
v 0.131400451 0.0031 0.176811069
v 0.13161397 0.00460000057 0.176953375
v 0.13161397 0.00160000008 0.176953375
v 0.131186917 0.00160000008 0.176668763
v 0.131186917 0.00460000057 0.176668763
v 0.13068755 0.0031 0.176643729
v 0.131186917 0.00160000008 0.176668763
v 0.130188182 0.00160000008 0.17661868
v 0.130188182 0.00460000057 0.17661868
v 0.131186917 0.00460000057 0.176668763
v 0.13019067 0.0031 0.176568747
v 0.130188182 0.00160000008 0.17661868
v 0.130193189 0.00160000008 0.176518828
v 0.130193189 0.00460000057 0.176518828
v 0.130188182 0.00460000057 0.17661868
v 0.13089554 0.0031 0.175654218
v 0.130428344 0.00460000057 0.175476074
v 0.130428344 0.00160000008 0.175476074
v 0.131362736 0.00160000008 0.175832346
v 0.131362736 0.00460000057 0.175832346
v 0.13161549 0.0031 0.175788045
v 0.131362736 0.00160000008 0.175832346
v 0.131868243 0.00160000008 0.175743729
v 0.131868243 0.00460000057 0.175743729
v 0.131362736 0.00460000057 0.175832346
v 0.131486222 0.0031 0.1761271
v 0.131645322 0.00160000008 0.176328421
v 0.131327108 0.00160000008 0.175925776
v 0.131327108 0.00460000057 0.175925776
v 0.131645322 0.00460000057 0.176328421
v 0.130859911 0.0031 0.175747648
v 0.131327108 0.00160000008 0.175925776
v 0.13039273 0.00160000008 0.1755695
v 0.13039273 0.00460000057 0.1755695
v 0.131327108 0.00460000057 0.175925776
v 0.130410537 0.0031 0.175522789
v 0.13039273 0.00160000008 0.1755695
v 0.130428344 0.00160000008 0.175476074
v 0.130428344 0.00460000057 0.175476074
v 0.13039273 0.00460000057 0.1755695
v 0.131363511 0.0031 0.174870819
v 0.130974233 0.00460000057 0.174557045
v 0.130974233 0.00160000008 0.174557045
v 0.131752789 0.00160000008 0.175184608
v 0.131752789 0.00460000057 0.175184608
v 0.132006869 0.0031 0.1752206
v 0.131752789 0.00160000008 0.175184608
v 0.132260934 0.00160000008 0.175256565
v 0.132260934 0.00460000057 0.175256565
v 0.131752789 0.00460000057 0.175184608
v 0.131779149 0.0031 0.1755031
v 0.131868243 0.00160000008 0.175743729
v 0.131690025 0.00160000008 0.175262466
v 0.131690025 0.00460000057 0.175262466
v 0.131868243 0.00460000057 0.175743729
v 0.131300747 0.0031 0.174948692
v 0.131690025 0.00160000008 0.175262466
v 0.130911469 0.00160000008 0.1746349
v 0.130911469 0.00460000057 0.1746349
v 0.131690025 0.00460000057 0.175262466
v 0.130942851 0.0031 0.174595982
v 0.130911469 0.00160000008 0.1746349
v 0.130974233 0.00160000008 0.174557045
v 0.130974233 0.00460000057 0.174557045
v 0.130911469 0.00460000057 0.1746349
v 0.132050648 0.0031 0.1742704
v 0.131777391 0.00460000057 0.173851684
v 0.131777391 0.00160000008 0.173851684
v 0.132323921 0.00160000008 0.174689129
v 0.132323921 0.00460000057 0.174689129
v 0.132554442 0.0031 0.174801856
v 0.132323921 0.00160000008 0.174689129
v 0.132784963 0.00160000008 0.174914584
v 0.132784963 0.00460000057 0.174914584
v 0.132323921 0.00460000057 0.174689129
v 0.132250547 0.0031 0.175000191
v 0.132260934 0.00160000008 0.175256565
v 0.132240176 0.00160000008 0.174743772
v 0.132240176 0.00460000057 0.174743772
v 0.132260934 0.00460000057 0.175256565
v 0.1319669 0.0031 0.174325049
v 0.132240176 0.00160000008 0.174743772
v 0.131693646 0.00160000008 0.173906326
v 0.131693646 0.00460000057 0.173906326
v 0.132240176 0.00460000057 0.174743772
v 0.131735519 0.0031 0.173879
v 0.131693646 0.00160000008 0.173906326
v 0.131777391 0.00160000008 0.173851684
v 0.131777391 0.00460000057 0.173851684
v 0.131693646 0.00460000057 0.173906326
v 0.132889718 0.0031 0.173911721
v 0.1327592 0.00460000057 0.173429042
v 0.1327592 0.00160000008 0.173429042
v 0.133020192 0.00160000008 0.174394369
v 0.133020192 0.00460000057 0.174394369
v 0.1332046 0.0031 0.174572825
v 0.133020192 0.00160000008 0.174394369
v 0.133389 0.00160000008 0.174751267
v 0.133389 0.00460000057 0.174751267
v 0.133020192 0.00460000057 0.174394369
v 0.1328543 0.0031 0.174667537
v 0.132784963 0.00160000008 0.174914584
v 0.132923663 0.00160000008 0.174420476
v 0.132923663 0.00460000057 0.174420476
v 0.132784963 0.00460000057 0.174914584
v 0.132793173 0.0031 0.173937812
v 0.132923663 0.00160000008 0.174420476
v 0.132662669 0.00160000008 0.173455119
v 0.132662669 0.00460000057 0.173455119
v 0.132923663 0.00460000057 0.174420476
v 0.132710949 0.0031 0.173442081
v 0.132662669 0.00160000008 0.173455119
v 0.1327592 0.00160000008 0.173429042
v 0.1327592 0.00460000057 0.173429042
v 0.132662669 0.00460000057 0.173455119
v 0.13379854 0.0031 0.173829854
v 0.133823574 0.00460000057 0.173330471
v 0.133823574 0.00160000008 0.173330471
v 0.1337735 0.00160000008 0.1743292
v 0.1337735 0.00460000057 0.1743292
v 0.133893728 0.0031 0.174555928
v 0.1337735 0.00160000008 0.1743292
v 0.134013951 0.00160000008 0.1747826
v 0.134013951 0.00460000057 0.1747826
v 0.1337735 0.00460000057 0.1743292
v 0.1335313 0.0031 0.174537748
v 0.133389 0.00160000008 0.174751267
v 0.133673608 0.00160000008 0.174324214
v 0.133673608 0.00460000057 0.174324214
v 0.133389 0.00460000057 0.174751267
v 0.133698657 0.0031 0.173824847
v 0.133673608 0.00160000008 0.174324214
v 0.1337237 0.00160000008 0.173325464
v 0.1337237 0.00460000057 0.173325464
v 0.133673608 0.00460000057 0.174324214
v 0.13377364 0.0031 0.173327953
v 0.1337237 0.00160000008 0.173325464
v 0.133823574 0.00160000008 0.173330471
v 0.133823574 0.00460000057 0.173330471
v 0.1337237 0.00460000057 0.173325464
v 0.134688184 0.0031 0.174032822
v 0.134866312 0.00460000057 0.173565656
v 0.134866312 0.00160000008 0.173565656
v 0.13451004 0.00160000008 0.174500033
v 0.13451004 0.00460000057 0.174500033
v 0.134554341 0.0031 0.174752772
v 0.13451004 0.00160000008 0.174500033
v 0.134598628 0.00160000008 0.175005525
v 0.134598628 0.00460000057 0.175005525
v 0.13451004 0.00460000057 0.174500033
v 0.13421528 0.0031 0.1746235
v 0.134013951 0.00160000008 0.1747826
v 0.13441661 0.00160000008 0.1744644
v 0.13441661 0.00460000057 0.1744644
v 0.134013951 0.00460000057 0.1747826
v 0.134594738 0.0031 0.173997208
v 0.13441661 0.00160000008 0.1744644
v 0.134772867 0.00160000008 0.173530012
v 0.134772867 0.00460000057 0.173530012
v 0.13441661 0.00460000057 0.1744644
v 0.134819582 0.0031 0.173547834
v 0.134772867 0.00160000008 0.173530012
v 0.134866312 0.00160000008 0.173565656
v 0.134866312 0.00460000057 0.173565656
v 0.134772867 0.00460000057 0.173530012
v 0.135471553 0.0031 0.1745008
v 0.135785341 0.00460000057 0.174111515
v 0.135785341 0.00160000008 0.174111515
v 0.135157764 0.00160000008 0.174890086
v 0.135157764 0.00460000057 0.174890086
v 0.1351218 0.0031 0.175144151
v 0.135157764 0.00160000008 0.174890086
v 0.1350858 0.00160000008 0.175398216
v 0.1350858 0.00460000057 0.175398216
v 0.135157764 0.00460000057 0.174890086
v 0.134839281 0.0031 0.174916416
v 0.134598628 0.00160000008 0.175005525
v 0.1350799 0.00160000008 0.174827337
v 0.1350799 0.00460000057 0.174827337
v 0.134598628 0.00460000057 0.175005525
v 0.1353937 0.0031 0.174438044
v 0.1350799 0.00160000008 0.174827337
v 0.135707483 0.00160000008 0.174048752
v 0.135707483 0.00460000057 0.174048752
v 0.1350799 0.00460000057 0.174827337
v 0.135746419 0.0031 0.174080133
v 0.135707483 0.00160000008 0.174048752
v 0.135785341 0.00160000008 0.174111515
v 0.135785341 0.00460000057 0.174111515
v 0.135707483 0.00460000057 0.174048752
v 0.13607198 0.0031 0.175187945
v 0.1364907 0.00460000057 0.174914673
v 0.1364907 0.00160000008 0.174914673
v 0.135653257 0.00160000008 0.1754612
v 0.135653257 0.00460000057 0.1754612
v 0.13554053 0.0031 0.175691724
v 0.135653257 0.00160000008 0.1754612
v 0.1354278 0.00160000008 0.175922245
v 0.1354278 0.00460000057 0.175922245
v 0.135653257 0.00460000057 0.1754612
v 0.135342211 0.0031 0.175387844
v 0.1350858 0.00160000008 0.175398216
v 0.135598615 0.00160000008 0.175377458
v 0.135598615 0.00460000057 0.175377458
v 0.1350858 0.00460000057 0.175398216
v 0.136017323 0.0031 0.175104216
v 0.135598615 0.00160000008 0.175377458
v 0.136436045 0.00160000008 0.174830943
v 0.136436045 0.00460000057 0.174830943
v 0.135598615 0.00460000057 0.175377458
v 0.136463374 0.0031 0.1748728
v 0.136436045 0.00160000008 0.174830943
v 0.1364907 0.00160000008 0.174914673
v 0.1364907 0.00460000057 0.174914673
v 0.136436045 0.00460000057 0.174830943
v 0.136430681 0.0031 0.176027
v 0.136913344 0.00460000057 0.1758965
v 0.136913344 0.00160000008 0.1758965
v 0.135948 0.00160000008 0.1761575
v 0.135948 0.00460000057 0.1761575
v 0.135769561 0.0031 0.176341891
v 0.135948 0.00160000008 0.1761575
v 0.13559112 0.00160000008 0.1765263
v 0.13559112 0.00460000057 0.1765263
v 0.135948 0.00460000057 0.1761575
v 0.135674864 0.0031 0.1759916
v 0.1354278 0.00160000008 0.175922245
v 0.1359219 0.00160000008 0.176060945
v 0.1359219 0.00460000057 0.176060945
v 0.1354278 0.00460000057 0.175922245
v 0.136404574 0.0031 0.17593044
v 0.1359219 0.00160000008 0.176060945
v 0.136887252 0.00160000008 0.175799966
v 0.136887252 0.00460000057 0.175799966
v 0.1359219 0.00460000057 0.176060945
v 0.1369003 0.0031 0.175848231
v 0.136887252 0.00160000008 0.175799966
v 0.136913344 0.00160000008 0.1758965
v 0.136913344 0.00460000057 0.1758965
v 0.136887252 0.00460000057 0.175799966
v 0.136512533 0.0031 0.176935822
v 0.1370119 0.00460000057 0.176960856
v 0.1370119 0.00160000008 0.176960856
v 0.136013165 0.00160000008 0.176910788
v 0.136013165 0.00460000057 0.176910788
v 0.135786474 0.0031 0.17703101
v 0.136013165 0.00160000008 0.176910788
v 0.135559767 0.00160000008 0.177151248
v 0.135559767 0.00460000057 0.177151248
v 0.136013165 0.00460000057 0.176910788
v 0.135804638 0.0031 0.1766686
v 0.13559112 0.00160000008 0.1765263
v 0.136018187 0.00160000008 0.1768109
v 0.136018187 0.00460000057 0.1768109
v 0.13559112 0.00460000057 0.1765263
v 0.136517555 0.0031 0.176835954
v 0.136018187 0.00160000008 0.1768109
v 0.137016922 0.00160000008 0.176860988
v 0.137016922 0.00460000057 0.176860988
v 0.136018187 0.00460000057 0.1768109
v 0.137014419 0.0031 0.176910922
v 0.137016922 0.00160000008 0.176860988
v 0.1370119 0.00160000008 0.176960856
v 0.1370119 0.00460000057 0.176960856
v 0.137016922 0.00460000057 0.176860988
v 0.136309549 0.0031 0.177825481
v 0.136776745 0.00460000057 0.178003609
v 0.136776745 0.00160000008 0.178003609
v 0.135842353 0.00160000008 0.177647337
v 0.135842353 0.00460000057 0.177647337
v 0.1355896 0.0031 0.177691638
v 0.135842353 0.00160000008 0.177647337
v 0.135336846 0.00160000008 0.177735925
v 0.135336846 0.00460000057 0.177735925
v 0.135842353 0.00460000057 0.177647337
v 0.135718867 0.0031 0.177352577
v 0.135559767 0.00160000008 0.177151248
v 0.135877982 0.00160000008 0.177553892
v 0.135877982 0.00460000057 0.177553892
v 0.135559767 0.00460000057 0.177151248
v 0.136345178 0.0031 0.177732036
v 0.135877982 0.00160000008 0.177553892
v 0.136812359 0.00160000008 0.177910164
v 0.136812359 0.00460000057 0.177910164
v 0.135877982 0.00460000057 0.177553892
v 0.136794552 0.0031 0.177956879
v 0.136812359 0.00160000008 0.177910164
v 0.136776745 0.00160000008 0.178003609
v 0.136776745 0.00460000057 0.178003609
v 0.136812359 0.00460000057 0.177910164
v 0.135841578 0.0031 0.178608835
v 0.136230871 0.00460000057 0.178922623
v 0.136230871 0.00160000008 0.178922623
v 0.1354523 0.00160000008 0.178295076
v 0.1354523 0.00460000057 0.178295076
v 0.135198221 0.0031 0.178259075
v 0.1354523 0.00160000008 0.178295076
v 0.134944156 0.00160000008 0.1782231
v 0.134944156 0.00460000057 0.1782231
v 0.1354523 0.00460000057 0.178295076
v 0.135425955 0.0031 0.177976564
v 0.135336846 0.00160000008 0.177735925
v 0.135515049 0.00160000008 0.178217217
v 0.135515049 0.00460000057 0.178217217
v 0.135336846 0.00460000057 0.177735925
v 0.135904342 0.0031 0.178530976
v 0.135515049 0.00160000008 0.178217217
v 0.13629362 0.00160000008 0.178844765
v 0.13629362 0.00460000057 0.178844765
v 0.135515049 0.00460000057 0.178217217
v 0.136262238 0.0031 0.178883687
v 0.13629362 0.00160000008 0.178844765
v 0.136230871 0.00160000008 0.178922623
v 0.136230871 0.00460000057 0.178922623
v 0.13629362 0.00460000057 0.178844765
v 0.135154441 0.0031 0.179209262
v 0.1354277 0.00460000057 0.179627985
v 0.1354277 0.00160000008 0.179627985
v 0.134881169 0.00160000008 0.17879054
v 0.134881169 0.00460000057 0.17879054
v 0.134650648 0.0031 0.178677812
v 0.134881169 0.00160000008 0.17879054
v 0.134420127 0.00160000008 0.178565085
v 0.134420127 0.00460000057 0.178565085
v 0.134881169 0.00460000057 0.17879054
v 0.134954542 0.0031 0.178479522
v 0.134944156 0.00160000008 0.1782231
v 0.134964913 0.00160000008 0.178735882
v 0.134964913 0.00460000057 0.178735882
v 0.134944156 0.00460000057 0.1782231
v 0.135238186 0.0031 0.1791546
v 0.134964913 0.00160000008 0.178735882
v 0.135511443 0.00160000008 0.179573327
v 0.135511443 0.00460000057 0.179573327
v 0.134964913 0.00460000057 0.178735882
v 0.135469571 0.0031 0.179600656
v 0.135511443 0.00160000008 0.179573327
v 0.1354277 0.00160000008 0.179627985
v 0.1354277 0.00460000057 0.179627985
v 0.135511443 0.00460000057 0.179573327
v 0.134315372 0.0031 0.179567963
v 0.134445891 0.00460000057 0.180050641
v 0.134445891 0.00160000008 0.180050641
v 0.1341849 0.00160000008 0.1790853
v 0.1341849 0.00460000057 0.1790853
v 0.1340005 0.0031 0.178906843
v 0.1341849 0.00160000008 0.1790853
v 0.1338161 0.00160000008 0.1787284
v 0.1338161 0.00460000057 0.1787284
v 0.1341849 0.00460000057 0.1790853
v 0.134350777 0.0031 0.178812146
v 0.134420127 0.00160000008 0.178565085
v 0.134281427 0.00160000008 0.179059193
v 0.134281427 0.00460000057 0.179059193
v 0.134420127 0.00460000057 0.178565085
v 0.134411916 0.0031 0.179541856
v 0.134281427 0.00160000008 0.179059193
v 0.134542421 0.00160000008 0.180024534
v 0.134542421 0.00460000057 0.180024534
v 0.134281427 0.00460000057 0.179059193
v 0.134494141 0.0031 0.180037588
v 0.134542421 0.00160000008 0.180024534
v 0.134445891 0.00160000008 0.180050641
v 0.134445891 0.00460000057 0.180050641
v 0.134542421 0.00460000057 0.180024534
v 0.13340655 0.0031 0.17964983
v 0.133381516 0.00460000057 0.180149212
v 0.133381516 0.00160000008 0.180149212
v 0.1334316 0.00160000008 0.179150462
v 0.1334316 0.00460000057 0.179150462
v 0.133311361 0.0031 0.178923771
v 0.1334316 0.00160000008 0.179150462
v 0.133191139 0.00160000008 0.17869705
v 0.133191139 0.00460000057 0.17869705
v 0.1334316 0.00460000057 0.179150462
v 0.133673787 0.0031 0.17894192
v 0.1338161 0.00160000008 0.1787284
v 0.133531481 0.00160000008 0.179155469
v 0.133531481 0.00460000057 0.179155469
v 0.1338161 0.00460000057 0.1787284
v 0.133506432 0.0031 0.179654837
v 0.133531481 0.00160000008 0.179155469
v 0.1334814 0.00160000008 0.180154219
v 0.1334814 0.00460000057 0.180154219
v 0.133531481 0.00460000057 0.179155469
v 0.13343145 0.0031 0.1801517
v 0.1334814 0.00160000008 0.180154219
v 0.133381516 0.00160000008 0.180149212
v 0.133381516 0.00460000057 0.180149212
v 0.1334814 0.00460000057 0.180154219
v 0.1325169 0.0031 0.179446846
v 0.132338777 0.00460000057 0.179914027
v 0.132338777 0.00160000008 0.179914027
v 0.132695049 0.00160000008 0.17897965
v 0.132695049 0.00460000057 0.17897965
v 0.132650748 0.0031 0.1787269
v 0.132695049 0.00160000008 0.17897965
v 0.132606462 0.00160000008 0.178474128
v 0.132606462 0.00460000057 0.178474128
v 0.132695049 0.00460000057 0.17897965
v 0.132989809 0.0031 0.178856179
v 0.133191139 0.00160000008 0.17869705
v 0.132788479 0.00160000008 0.179015279
v 0.132788479 0.00460000057 0.179015279
v 0.133191139 0.00460000057 0.17869705
v 0.132610366 0.0031 0.179482475
v 0.132788479 0.00160000008 0.179015279
v 0.132432222 0.00160000008 0.179949671
v 0.132432222 0.00460000057 0.179949671
v 0.132788479 0.00460000057 0.179015279
v 0.1323855 0.0031 0.179931834
v 0.132432222 0.00160000008 0.179949671
v 0.132338777 0.00160000008 0.179914027
v 0.132338777 0.00460000057 0.179914027
v 0.132432222 0.00460000057 0.179949671
v 0.131733537 0.0031 0.178978875
v 0.131419748 0.00460000057 0.179368168
v 0.131419748 0.00160000008 0.179368168
v 0.132047325 0.00160000008 0.178589582
v 0.132047325 0.00460000057 0.178589582
v 0.1320833 0.0031 0.178335518
v 0.132047325 0.00160000008 0.178589582
v 0.132119283 0.00160000008 0.178081453
v 0.132119283 0.00460000057 0.178081453
v 0.132047325 0.00460000057 0.178589582
v 0.132365808 0.0031 0.178563237
v 0.132606462 0.00160000008 0.178474128
v 0.132125184 0.00160000008 0.178652346
v 0.132125184 0.00460000057 0.178652346
v 0.132606462 0.00460000057 0.178474128
v 0.1318114 0.0031 0.179041624
v 0.132125184 0.00160000008 0.178652346
v 0.1314976 0.00160000008 0.179430917
v 0.1314976 0.00460000057 0.179430917
v 0.132125184 0.00460000057 0.178652346
v 0.13145867 0.0031 0.179399535
v 0.1314976 0.00160000008 0.179430917
v 0.131419748 0.00160000008 0.179368168
v 0.131419748 0.00460000057 0.179368168
v 0.1314976 0.00460000057 0.179430917
v 0.131133109 0.0031 0.178291723
v 0.130714387 0.00460000057 0.178565
v 0.130714387 0.00160000008 0.178565
v 0.131551832 0.00160000008 0.178018481
v 0.131551832 0.00460000057 0.178018481
v 0.131664559 0.0031 0.17778793
v 0.131551832 0.00160000008 0.178018481
v 0.131777287 0.00160000008 0.177557409
v 0.131777287 0.00460000057 0.177557409
v 0.131551832 0.00460000057 0.178018481
v 0.131862879 0.0031 0.178091824
v 0.132119283 0.00160000008 0.178081453
v 0.131606489 0.00160000008 0.178102225
v 0.131606489 0.00460000057 0.178102225
v 0.132119283 0.00460000057 0.178081453
v 0.131187767 0.0031 0.178375483
v 0.131606489 0.00160000008 0.178102225
v 0.130769044 0.00160000008 0.178648755
v 0.130769044 0.00460000057 0.178648755
v 0.131606489 0.00460000057 0.178102225
v 0.130741715 0.0031 0.178606868
v 0.130769044 0.00160000008 0.178648755
v 0.130714387 0.00160000008 0.178565
v 0.130714387 0.00460000057 0.178565
v 0.130769044 0.00460000057 0.178648755
v 0.130774409 0.0031 0.1774527
v 0.130291745 0.00460000057 0.177583173
v 0.130291745 0.00160000008 0.177583173
v 0.131257087 0.00160000008 0.177322179
v 0.131257087 0.00460000057 0.177322179
v 0.131435528 0.0031 0.177137777
v 0.131257087 0.00160000008 0.177322179
v 0.13161397 0.00160000008 0.176953375
v 0.13161397 0.00460000057 0.176953375
v 0.131257087 0.00460000057 0.177322179
v 0.13153024 0.0031 0.177488059
v 0.131777287 0.00160000008 0.177557409
v 0.1312832 0.00160000008 0.177418724
v 0.1312832 0.00460000057 0.177418724
v 0.131777287 0.00460000057 0.177557409
v 0.130800515 0.0031 0.177549213
v 0.1312832 0.00160000008 0.177418724
v 0.130317837 0.00160000008 0.177679718
v 0.130317837 0.00460000057 0.177679718
v 0.1312832 0.00460000057 0.177418724
v 0.130304784 0.0031 0.177631453
v 0.130317837 0.00160000008 0.177679718
v 0.130291745 0.00160000008 0.177583173
v 0.130291745 0.00460000057 0.177583173
v 0.130317837 0.00460000057 0.177679718
v 0.132932782 -0.00340000028 0.162781268
v 0.13440387 -0.00340000028 0.160759911
v 0.133368373 -0.00340000028 0.163035378
v 0.132549793 -0.00340000028 0.162436932
v 0.13382642 -0.00340000028 0.163192317
v 0.1322455 -0.00340000028 0.162021428
v 0.13427867 -0.00340000028 0.1632568
v 0.132036239 -0.00340000028 0.161562577
v 0.134735093 -0.00340000028 0.163237885
v 0.131925911 -0.00340000028 0.161091119
v 0.13520655 -0.00340000028 0.163127556
v 0.131907016 -0.00340000028 0.160634726
v 0.135665387 -0.00340000028 0.162918285
v 0.131971478 -0.00340000028 0.160182476
v 0.136080891 -0.00340000028 0.162613988
v 0.132128417 -0.00340000028 0.159724414
v 0.136425227 -0.00340000028 0.162231013
v 0.132382527 -0.00340000028 0.159288809
v 0.136679351 -0.00340000028 0.161795408
v 0.132726863 -0.00340000028 0.158905834
v 0.136836261 -0.00340000028 0.161337376
v 0.133142367 -0.00340000028 0.158601537
v 0.136900738 -0.00340000028 0.16088514
v 0.133601218 -0.00340000028 0.158392265
v 0.136881828 -0.00340000028 0.1604287
v 0.134072661 -0.00340000028 0.158281952
v 0.136771515 -0.00340000028 0.15995726
v 0.134529084 -0.00340000028 0.158263057
v 0.136562258 -0.00340000028 0.1594984
v 0.134981334 -0.00340000028 0.15832752
v 0.136257961 -0.00340000028 0.15908289
v 0.135439366 -0.00340000028 0.158484444
v 0.135874987 -0.00340000028 0.158738568
f 1 2 3
f 2 4 3
f 2 5 4
f 5 2 6
f 2 7 6
f 2 8 7
f 2 9 8
f 9 10 8
f 9 11 10
f 11 9 12
f 9 13 12
f 9 14 13
f 14 15 13
f 14 16 15
f 16 17 15
f 16 18 17
f 18 16 19
f 16 20 19
f 16 21 20
f 22 9 2
f 22 2 23
f 2 24 23
f 22 23 25
f 2 26 24
f 27 22 25
f 27 25 28
f 9 22 29
f 9 29 30
f 30 29 31
f 30 31 32
f 33 30 32
f 34 9 30
f 35 9 34
f 35 14 9
f 36 35 34
f 36 34 37
f 34 38 37
f 14 35 39
f 14 39 40
f 40 39 41
f 39 42 41
f 42 43 41
f 44 14 40
f 45 14 44
f 45 16 14
f 46 45 44
f 46 44 47
f 48 46 47
f 16 45 49
f 16 49 50
f 51 16 50
f 50 49 52
f 49 53 52
f 53 54 52
f 55 51 50
f 51 55 56
f 55 57 56
f 55 58 57
f 58 59 57
f 51 56 60
f 61 51 60
f 61 60 62
f 60 63 62
f 60 64 63
f 62 63 65
f 64 66 63
f 64 67 66
f 63 68 65
f 68 69 65
f 68 70 69
f 65 69 71
f 70 72 69
f 70 73 72
f 69 74 71
f 74 75 71
f 74 76 75
f 74 77 76
f 77 78 76
f 77 79 78
f 76 80 75
f 80 81 75
f 80 82 81
f 82 83 81
f 81 83 84
f 82 85 83
f 85 82 86
f 83 87 84
f 87 88 84
f 88 89 84
f 88 90 89
f 90 91 89
f 84 89 92
f 89 93 92
f 93 94 92
f 93 95 94
f 95 93 96
f 93 97 96
f 95 98 94
f 98 99 94
f 99 100 94
f 99 101 100
f 101 99 102
f 103 101 102
f 101 104 100
f 104 105 100
f 104 106 105
f 106 107 105
f 105 107 108
f 106 109 107
f 109 106 110
f 111 109 110
f 107 112 108
f 112 113 108
f 112 114 113
f 114 112 115
f 112 116 115
f 116 117 115
f 114 118 113
f 118 119 113
f 118 120 119
f 120 121 119
f 120 122 121
f 120 118 123
f 118 124 123
f 124 125 123
f 122 120 126
f 122 126 127
f 126 128 127
f 129 122 127
f 128 130 127
f 128 131 130
f 129 127 132
f 129 132 133
f 26 129 133
f 132 134 133
f 134 135 133
f 134 136 135
f 26 133 137
f 26 137 24
f 137 138 24
f 138 139 24
f 138 140 139
f 141 142 143
f 141 143 144
f 145 141 144
f 144 143 146
f 147 145 144
f 148 144 146
f 147 144 148
f 148 146 149
f 150 147 148
f 151 148 149
f 150 148 151
f 151 149 152
f 153 150 151
f 154 151 152
f 153 151 154
f 154 152 155
f 156 153 154
f 157 154 155
f 156 154 157
f 157 155 158
f 159 156 157
f 160 157 158
f 159 157 160
f 160 158 161
f 162 160 161
f 163 159 160
f 163 160 162
f 162 161 164
f 165 163 162
f 166 162 164
f 167 165 162
f 168 162 166
f 167 162 168
f 169 168 166
f 170 167 168
f 171 168 169
f 171 170 168
f 172 171 169
f 171 172 170
f 172 169 173
f 172 174 170
f 175 172 173
f 172 175 174
f 175 173 176
f 175 177 174
f 178 175 176
f 175 178 177
f 178 176 179
f 178 180 177
f 181 178 179
f 178 181 180
f 181 179 182
f 181 183 180
f 184 181 182
f 181 184 183
f 184 182 185
f 184 186 183
f 187 184 185
f 184 187 186
f 187 185 188
f 186 187 189
f 187 188 189
f 188 190 189
f 190 191 189
f 189 191 192
f 190 193 191
f 191 194 192
f 193 195 191
f 191 195 194
f 193 196 195
f 195 197 194
f 196 198 195
f 195 198 197
f 196 199 198
f 198 200 197
f 199 201 198
f 198 201 200
f 199 202 201
f 201 203 200
f 202 204 201
f 201 204 203
f 202 205 204
f 204 206 203
f 205 207 204
f 204 207 206
f 205 208 207
f 208 209 207
f 207 210 206
f 207 209 210
f 208 211 209
f 209 212 210
f 211 213 209
f 209 214 212
f 213 215 209
f 209 215 214
f 213 216 215
f 215 217 214
f 216 218 215
f 215 218 217
f 216 219 218
f 219 217 218
f 220 219 216
f 219 221 217
f 222 219 220
f 219 222 221
f 223 222 220
f 222 224 221
f 225 222 223
f 222 225 224
f 226 225 223
f 225 227 224
f 228 225 226
f 225 228 227
f 229 228 226
f 228 230 227
f 231 228 229
f 228 231 230
f 232 231 229
f 231 233 230
f 234 231 232
f 231 234 233
f 235 234 232
f 234 236 233
f 234 235 236
f 237 238 239
f 238 240 239
f 238 241 240
f 242 241 238
f 243 241 242
f 244 243 242
f 243 245 241
f 246 244 242
f 245 247 241
f 246 242 248
f 249 246 248
f 241 247 250
f 247 251 250
f 248 242 252
f 242 253 252
f 253 254 252
f 254 255 252
f 249 248 256
f 257 249 256
f 248 258 256
f 259 257 256
f 258 260 256
f 258 261 260
f 261 262 260
f 259 256 263
f 264 259 263
f 256 265 263
f 264 263 266
f 267 264 266
f 268 267 266
f 269 268 266
f 270 269 266
f 265 271 263
f 265 272 271
f 272 273 271
f 270 266 274
f 275 270 274
f 266 263 276
f 263 277 276
f 277 278 276
f 277 279 278
f 279 280 278
f 275 274 281
f 282 275 281
f 283 282 281
f 283 281 284
f 285 283 284
f 285 284 286
f 287 285 286
f 288 287 286
f 284 281 289
f 284 290 286
f 281 291 289
f 291 292 289
f 291 293 292
f 281 274 294
f 274 295 294
f 295 296 294
f 295 297 296
f 290 298 286
f 290 299 298
f 299 290 300
f 266 301 274
f 301 302 274
f 301 303 302
f 303 304 302
f 303 305 304
f 301 266 306
f 266 276 306
f 301 306 307
f 307 306 276
f 307 276 308
f 309 301 307
f 309 307 308
f 309 308 310
f 311 309 310
f 312 313 314
f 315 312 314
f 315 241 312
f 241 250 312
f 251 316 250
f 251 317 316
f 250 316 318
f 317 319 316
f 316 320 318
f 320 321 318
f 320 322 321
f 319 323 316
f 319 324 323
f 316 323 325
f 323 326 325
f 326 327 325
f 326 328 327
f 324 329 323
f 324 330 329
f 323 329 331
f 330 332 329
f 332 333 329
f 332 334 333
f 334 335 333
f 329 336 331
f 336 337 331
f 336 338 337
f 329 333 339
f 333 340 339
f 340 341 339
f 341 342 339
f 335 343 333
f 335 344 343
f 343 345 333
f 345 346 333
f 345 347 346
f 347 348 346
f 344 349 343
f 344 350 349
f 350 351 349
f 349 352 343
f 352 353 343
f 352 354 353
f 354 355 353
f 351 356 349
f 351 357 356
f 356 358 349
f 358 359 349
f 358 360 359
f 360 361 359
f 357 362 356
f 357 363 362
f 363 288 362
f 288 286 362
f 356 362 364
f 362 365 364
f 365 366 364
f 366 367 364
f 362 286 368
f 286 369 368
f 369 370 368
f 370 371 368
f 372 373 374
f 372 374 375
f 376 372 375
f 377 375 374
f 375 377 376
f 377 374 378
f 377 379 376
f 380 377 378
f 377 380 379
f 380 378 381
f 380 382 379
f 383 380 381
f 380 383 382
f 383 381 384
f 383 384 382
f 381 385 384
f 382 384 386
f 385 387 384
f 384 387 386
f 385 388 387
f 386 387 389
f 388 390 387
f 387 390 389
f 388 391 390
f 391 389 390
f 391 388 392
f 391 393 389
f 394 391 392
f 391 394 393
f 394 392 395
f 394 396 393
f 397 394 395
f 394 397 396
f 397 395 398
f 397 399 396
f 400 397 398
f 397 400 399
f 400 398 401
f 400 401 399
f 398 402 401
f 399 401 403
f 402 404 401
f 401 404 403
f 402 405 404
f 403 404 406
f 405 407 404
f 404 407 406
f 405 408 407
f 406 407 409
f 408 410 407
f 407 410 409
f 408 411 410
f 409 410 412
f 411 413 410
f 410 413 412
f 411 414 413
f 414 412 413
f 414 411 415
f 414 416 412
f 414 415 417
f 416 414 417
f 418 417 415
f 416 417 418
f 418 415 419
f 420 416 418
f 421 418 419
f 418 421 420
f 421 419 422
f 421 423 420
f 424 421 422
f 421 424 423
f 424 422 425
f 424 425 423
f 422 426 425
f 427 423 425
f 426 427 425
f 428 429 430
f 431 428 430
f 428 431 432
f 431 430 433
f 431 434 432
f 435 431 433
f 431 435 434
f 435 433 436
f 435 437 434
f 437 435 436
f 437 436 438
f 439 437 438
f 440 438 436
f 439 438 440
f 441 439 440
f 441 440 442
f 439 441 443
f 443 441 442
f 443 442 444
f 445 443 444
f 446 444 442
f 445 444 446
f 447 445 446
f 447 446 448
f 445 447 449
f 449 447 448
f 448 450 449
f 450 451 449
f 452 449 451
f 450 452 451
f 452 450 453
f 452 453 454
f 455 452 454
f 456 455 454
f 457 454 453
f 458 456 454
f 458 454 457
f 456 458 459
f 460 458 457
f 458 460 459
f 460 457 461
f 459 460 462
f 463 460 461
f 460 463 462
f 463 461 464
f 462 463 465
f 466 463 464
f 463 466 465
f 466 464 467
f 465 466 468
f 469 466 467
f 466 469 468
f 469 467 470
f 468 469 471
f 472 469 470
f 469 472 471
f 472 470 473
f 471 472 474
f 475 472 473
f 472 475 474
f 475 473 476
f 474 475 477
f 475 476 477
f 476 478 477
f 478 479 477
f 477 479 480
f 478 481 479
f 479 482 480
f 481 483 479
f 479 483 482
f 481 484 483
f 483 485 482
f 484 486 483
f 483 486 485
f 484 487 486
f 486 488 485
f 487 489 486
f 486 489 488
f 487 490 489
f 489 491 488
f 490 492 489
f 489 492 491
f 492 493 491
f 490 494 492
f 492 495 493
f 494 496 492
f 492 496 495
f 496 497 495
f 494 498 496
f 496 499 497
f 498 499 496
f 498 500 499
f 500 501 499
f 502 499 501
f 500 502 501
f 502 500 503
f 502 503 504
f 505 502 504
f 504 503 506
f 505 504 506
f 505 506 507
f 508 505 507
f 509 507 506
f 507 509 508
f 510 509 506
f 509 511 508
f 512 509 510
f 509 512 511
f 513 512 510
f 512 514 511
f 512 513 514
f 511 514 515
f 513 516 514
f 516 515 514
f 516 517 515
f 518 517 516
f 517 519 515
f 517 518 519
f 518 520 519
f 518 521 520
f 519 520 522
f 521 522 520
f 521 523 522
f 524 523 521
f 523 525 522
f 523 524 525
f 526 527 528
f 527 529 528
f 527 530 529
f 527 531 530
f 531 532 530
f 531 533 532
f 527 534 531
f 531 535 533
f 535 536 533
f 535 537 536
f 537 535 538
f 535 539 538
f 535 540 539
f 540 535 541
f 535 542 541
f 541 542 543
f 542 544 543
f 542 545 544
f 535 546 542
f 535 531 547
f 535 547 548
f 535 548 549
f 531 550 547
f 551 535 549
f 531 552 550
f 535 551 553
f 552 531 554
f 531 555 554
f 535 553 556
f 531 557 555
f 558 535 556
f 535 558 559
f 535 559 560
f 546 535 560
f 534 557 531
f 546 560 561
f 534 562 557
f 562 563 557
f 562 534 564
f 534 565 564
f 534 566 565
f 562 567 563
f 567 568 563
f 567 569 568
f 569 570 568
f 569 571 570
f 571 569 572
f 573 571 572
f 574 573 572
f 575 574 572
f 575 572 576
f 577 575 576
f 578 577 576
f 579 578 576
f 580 579 576
f 580 576 581
f 582 580 581
f 583 582 581
f 584 583 581
f 584 581 585
f 586 584 585
f 587 586 585
f 587 585 588
f 589 587 588
f 588 590 589
f 590 561 589
f 590 546 561
f 546 590 591
f 546 591 592
f 593 546 592
f 594 595 596
f 595 594 597
f 595 598 596
f 595 597 599
f 598 595 599
f 600 601 602
f 600 602 603
f 601 600 604
f 605 600 603
f 604 600 606
f 600 605 607
f 600 607 606
f 608 609 610
f 608 610 611
f 609 608 612
f 612 608 611
f 613 614 615
f 616 613 615
f 613 617 614
f 617 613 616
f 618 619 620
f 618 620 621
f 619 618 622
f 622 618 621
f 623 624 625
f 626 623 625
f 623 627 624
f 627 623 626
f 628 629 630
f 631 628 630
f 628 632 629
f 632 628 631
f 633 634 635
f 633 635 636
f 634 633 637
f 637 633 636
f 638 639 640
f 641 638 640
f 638 642 639
f 642 638 641
f 643 644 645
f 646 643 645
f 643 647 644
f 647 643 646
f 648 649 650
f 651 648 650
f 648 652 649
f 652 648 651
f 653 654 655
f 656 653 655
f 653 657 654
f 657 653 656
f 658 659 660
f 658 660 661
f 659 658 662
f 662 658 661
f 663 664 665
f 666 663 665
f 663 667 664
f 667 663 666
f 668 669 670
f 671 668 670
f 668 672 669
f 672 668 671
f 673 674 675
f 676 673 675
f 673 677 674
f 677 673 676
f 678 679 680
f 681 678 680
f 678 682 679
f 682 678 681
f 683 684 685
f 683 685 686
f 684 683 687
f 687 683 686
f 688 689 690
f 691 688 690
f 688 692 689
f 692 688 691
f 693 694 695
f 696 693 695
f 693 697 694
f 697 693 696
f 698 699 700
f 701 698 700
f 698 702 699
f 702 698 701
f 703 704 705
f 706 703 705
f 703 707 704
f 707 703 706
f 708 709 710
f 708 710 711
f 709 708 712
f 712 708 711
f 713 714 715
f 716 713 715
f 713 717 714
f 717 713 716
f 718 719 720
f 721 718 720
f 718 722 719
f 722 718 721
f 723 724 725
f 726 723 725
f 723 727 724
f 727 723 726
f 728 729 730
f 731 728 730
f 728 732 729
f 732 728 731
f 733 734 735
f 733 735 736
f 734 733 737
f 737 733 736
f 738 739 740
f 741 738 740
f 738 742 739
f 742 738 741
f 743 744 745
f 746 743 745
f 743 747 744
f 747 743 746
f 748 749 750
f 751 748 750
f 748 752 749
f 752 748 751
f 753 754 755
f 756 753 755
f 753 757 754
f 757 753 756
f 758 759 760
f 758 760 761
f 759 758 762
f 762 758 761
f 763 764 765
f 766 763 765
f 763 767 764
f 767 763 766
f 768 769 770
f 771 768 770
f 768 772 769
f 772 768 771
f 773 774 775
f 776 773 775
f 773 777 774
f 777 773 776
f 778 779 780
f 781 778 780
f 778 782 779
f 782 778 781
f 783 784 785
f 783 785 786
f 784 783 787
f 787 783 786
f 788 789 790
f 791 788 790
f 788 792 789
f 792 788 791
f 793 794 795
f 796 793 795
f 793 797 794
f 797 793 796
f 798 799 800
f 801 798 800
f 798 802 799
f 802 798 801
f 803 804 805
f 806 803 805
f 803 807 804
f 807 803 806
f 808 809 810
f 808 810 811
f 809 808 812
f 812 808 811
f 813 814 815
f 816 813 815
f 813 817 814
f 817 813 816
f 818 819 820
f 821 818 820
f 818 822 819
f 822 818 821
f 823 824 825
f 826 823 825
f 823 827 824
f 827 823 826
f 828 829 830
f 831 828 830
f 828 832 829
f 832 828 831
f 833 834 835
f 833 835 836
f 834 833 837
f 837 833 836
f 838 839 840
f 841 838 840
f 838 842 839
f 842 838 841
f 843 844 845
f 846 843 845
f 843 847 844
f 847 843 846
f 848 849 850
f 851 848 850
f 848 852 849
f 852 848 851
f 853 854 855
f 856 853 855
f 853 857 854
f 857 853 856
f 858 859 860
f 858 860 861
f 859 858 862
f 862 858 861
f 863 864 865
f 866 863 865
f 863 867 864
f 867 863 866
f 868 869 870
f 871 868 870
f 868 872 869
f 872 868 871
f 873 874 875
f 876 873 875
f 873 877 874
f 877 873 876
f 878 879 880
f 881 878 880
f 878 882 879
f 882 878 881
f 883 884 885
f 883 885 886
f 884 883 887
f 887 883 886
f 888 889 890
f 891 888 890
f 888 892 889
f 892 888 891
f 893 894 895
f 896 893 895
f 893 897 894
f 897 893 896
f 898 899 900
f 901 898 900
f 898 902 899
f 902 898 901
f 903 904 905
f 906 903 905
f 903 907 904
f 907 903 906
f 908 909 910
f 908 910 911
f 909 908 912
f 912 908 911
f 913 914 915
f 916 913 915
f 913 917 914
f 917 913 916
f 918 919 920
f 921 918 920
f 918 922 919
f 922 918 921
f 923 924 925
f 926 923 925
f 923 927 924
f 927 923 926
f 928 929 930
f 931 928 930
f 928 932 929
f 932 928 931
f 933 934 935
f 933 935 936
f 934 933 937
f 937 933 936
f 938 939 940
f 941 938 940
f 938 942 939
f 942 938 941
f 943 944 945
f 946 943 945
f 943 947 944
f 947 943 946
f 948 949 950
f 951 948 950
f 948 952 949
f 952 948 951
f 953 954 955
f 956 953 955
f 953 957 954
f 957 953 956
f 958 959 960
f 958 960 961
f 959 958 962
f 962 958 961
f 963 964 965
f 966 963 965
f 963 967 964
f 967 963 966
f 968 969 970
f 971 968 970
f 968 972 969
f 972 968 971
f 973 974 975
f 976 973 975
f 973 977 974
f 977 973 976
f 978 979 980
f 981 978 980
f 978 982 979
f 982 978 981
f 983 984 985
f 983 985 986
f 984 983 987
f 987 983 986
f 988 989 990
f 991 988 990
f 988 992 989
f 992 988 991
f 993 994 995
f 996 993 995
f 993 997 994
f 997 993 996
f 998 999 1000
f 1001 998 1000
f 998 1002 999
f 1002 998 1001
f 1003 1004 1005
f 1006 1003 1005
f 1003 1007 1004
f 1007 1003 1006
f 1008 1009 1010
f 1008 1010 1011
f 1009 1008 1012
f 1012 1008 1011
f 1013 1014 1015
f 1016 1013 1015
f 1013 1017 1014
f 1017 1013 1016
f 1018 1019 1020
f 1021 1018 1020
f 1018 1022 1019
f 1022 1018 1021
f 1023 1024 1025
f 1026 1023 1025
f 1023 1027 1024
f 1027 1023 1026
f 1028 1029 1030
f 1031 1028 1030
f 1028 1032 1029
f 1032 1028 1031
f 1033 1034 1035
f 1033 1035 1036
f 1034 1033 1037
f 1037 1033 1036
f 1038 1039 1040
f 1041 1038 1040
f 1038 1042 1039
f 1042 1038 1041
f 1043 1044 1045
f 1046 1043 1045
f 1043 1047 1044
f 1047 1043 1046
f 1048 1049 1050
f 1051 1048 1050
f 1048 1052 1049
f 1052 1048 1051
f 1053 1054 1055
f 1056 1053 1055
f 1053 1057 1054
f 1057 1053 1056
f 1058 1059 1060
f 1058 1060 1061
f 1059 1058 1062
f 1062 1058 1061
f 1063 1064 1065
f 1066 1063 1065
f 1063 1067 1064
f 1067 1063 1066
f 1068 1069 1070
f 1071 1068 1070
f 1068 1072 1069
f 1072 1068 1071
f 1073 1074 1075
f 1076 1073 1075
f 1073 1077 1074
f 1077 1073 1076
f 1078 1079 1080
f 1081 1078 1080
f 1078 1082 1079
f 1082 1078 1081
f 1083 1084 1085
f 1083 1085 1086
f 1084 1083 1087
f 1087 1083 1086
f 1088 1089 1090
f 1091 1088 1090
f 1088 1092 1089
f 1092 1088 1091
f 1093 1094 1095
f 1096 1093 1095
f 1093 1097 1094
f 1097 1093 1096
f 1098 1099 1100
f 1101 1098 1100
f 1098 1102 1099
f 1102 1098 1101
f 1103 1104 1105
f 1106 1103 1105
f 1103 1107 1104
f 1107 1103 1106
f 1108 1109 1110
f 1109 1108 1111
f 1109 1112 1110
f 1109 1111 1113
f 1112 1109 1114
f 1115 1109 1113
f 1109 1116 1114
f 1109 1115 1117
f 1109 1118 1116
f 1109 1117 1119
f 1118 1109 1120
f 1121 1109 1119
f 1109 1122 1120
f 1109 1121 1123
f 1109 1124 1122
f 1109 1123 1125
f 1124 1109 1126
f 1127 1109 1125
f 1109 1128 1126
f 1109 1127 1129
f 1109 1130 1128
f 1109 1129 1131
f 1130 1109 1132
f 1133 1109 1131
f 1109 1134 1132
f 1109 1133 1135
f 1109 1136 1134
f 1109 1135 1137
f 1136 1109 1138
f 1139 1109 1137
f 1109 1140 1138
f 1109 1139 1140
