# ROS coordinates: X forward, Y left, Z up; units are metres.
o mesh
v 0.148205385 0.00525 0.159627616
v 0.148557991 0.00525 0.159454376
v 0.148026824 0.00475000031 0.159160584
v 0.148471281 0.00500000035 0.159213573
v 0.148297429 0.00475000031 0.159027636
v 0.148890689 0.00525 0.159203991
v 0.148552775 0.00475000031 0.158835486
v 0.148799509 0.00500000035 0.158944219
v 0.149179161 0.00525 0.158880129
v 0.148774147 0.00475000031 0.158586934
v 0.149068773 0.00500000035 0.158593684
v 0.149400547 0.00525 0.158496514
v 0.14894405 0.00475000031 0.158292517
v 0.1492516 0.00500000035 0.158184528
v 0.149538621 0.00525 0.158075675
v 0.14905 0.00475000031 0.157969564
v 0.14933309 0.00500000035 0.157750085
v 0.149587438 0.00525 0.157644719
v 0.149087474 0.00475000031 0.157638818
v 0.149314791 0.00500000035 0.157325879
v 0.149552017 0.00525 0.157229826
v 0.149212316 0.00500000035 0.156940877
v 0.149060279 0.00475000031 0.157320425
v 0.149445817 0.00525 0.15685159
v 0.1489788 0.00475000031 0.15703015
v 0.149272576 0.00525 0.156498984
v 0.148845851 0.00475000031 0.156759545
v 0.1490318 0.00500000035 0.156585708
v 0.149022192 0.00525 0.156166285
v 0.148596227 0.00500000035 0.156113535
v 0.148653686 0.00475000031 0.156504214
v 0.14869833 0.00525 0.155877829
v 0.14840512 0.00475000031 0.156282842
v 0.148314714 0.00525 0.155656442
v 0.148110732 0.00475000031 0.156112939
v 0.148002744 0.00500000035 0.155805379
v 0.147893876 0.00525 0.155518368
v 0.147352844 0.00500000035 0.155721277
v 0.147787765 0.00475000031 0.156006977
v 0.147462919 0.00525 0.155469537
v 0.147457033 0.00475000031 0.1559695
v 0.147048041 0.00525 0.155504972
v 0.147138625 0.00475000031 0.1559967
v 0.14666979 0.00525 0.155611157
v 0.146848351 0.00475000031 0.156078175
v 0.14666979 -0.00475000031 0.155611157
v 0.146848351 -0.00425 0.156078175
v 0.146577746 -0.00425 0.156211138
v 0.146234423 -0.00450000027 0.156148881
v 0.1463172 -0.00475000031 0.1557844
v 0.146322414 -0.00425 0.1564033
v 0.145984486 -0.00475000031 0.156034783
v 0.146101043 -0.00425 0.156651855
v 0.145696029 -0.00475000031 0.156358644
v 0.145806417 -0.00450000027 0.156645089
v 0.14593114 -0.00425 0.156946242
v 0.145569876 -0.00450000027 0.1572706
v 0.145474643 -0.00475000031 0.15674226
v 0.145825177 -0.00425 0.157269225
v 0.145336568 -0.00475000031 0.157163113
v 0.1457877 -0.00425 0.157599956
v 0.145287737 -0.00475000031 0.15759407
v 0.145560384 -0.00450000027 0.1579129
v 0.1458149 -0.00425 0.157918349
v 0.145662874 -0.00450000027 0.1582979
v 0.145323172 -0.00475000031 0.158008948
v 0.14589639 -0.00425 0.158208624
v 0.145429358 -0.00475000031 0.158387184
v 0.146029338 -0.00425 0.158479229
v 0.1456026 -0.00475000031 0.158739775
v 0.145843387 -0.00450000027 0.15865308
v 0.146221489 -0.00425 0.15873456
v 0.145852983 -0.00475000031 0.159072489
v 0.146112755 -0.00450000027 0.158981308
v 0.146470055 -0.00425 0.158955932
v 0.14617686 -0.00475000031 0.159360945
v 0.1464633 -0.00450000027 0.159250557
v 0.146764457 -0.00425 0.159125835
v 0.146560475 -0.00475000031 0.159582332
v 0.146872446 -0.00450000027 0.1594334
v 0.14708741 -0.00425 0.1592318
v 0.146981314 -0.00475000031 0.1597204
v 0.1473069 -0.00450000027 0.159514874
v 0.147418156 -0.00425 0.159269273
v 0.147412255 -0.00475000031 0.159769237
v 0.1477311 -0.00450000027 0.15949659
v 0.147736549 -0.00425 0.159242079
v 0.147827148 -0.00475000031 0.1597338
v 0.148026824 -0.00425 0.159160584
v 0.148205385 -0.00475000031 0.159627616
v 0.148297429 -0.00425 0.159027636
v 0.146848351 -0.00425 0.156078175
v 0.14666979 -0.00475000031 0.155611157
v 0.147048041 -0.00475000031 0.155504972
v 0.147144079 -0.00450000027 0.1557422
v 0.147138625 -0.00425 0.1559967
v 0.147462919 -0.00475000031 0.155469537
v 0.147457033 -0.00425 0.1559695
v 0.147568285 -0.00450000027 0.155723885
v 0.147893876 -0.00475000031 0.155518368
v 0.147787765 -0.00425 0.156006977
v 0.148002744 -0.00450000027 0.155805379
v 0.148314714 -0.00475000031 0.155656442
v 0.148110732 -0.00425 0.156112939
v 0.148411885 -0.00450000027 0.155988216
v 0.14869833 -0.00475000031 0.155877829
v 0.14840512 -0.00425 0.156282842
v 0.148762435 -0.00450000027 0.156257465
v 0.149022192 -0.00475000031 0.156166285
v 0.148653686 -0.00425 0.156504214
v 0.1490318 -0.00450000027 0.156585708
v 0.149272576 -0.00475000031 0.156498984
v 0.149212316 -0.00450000027 0.156940877
v 0.148845851 -0.00425 0.156759545
v 0.149445817 -0.00475000031 0.15685159
v 0.1489788 -0.00425 0.15703015
v 0.149552017 -0.00475000031 0.157229826
v 0.149060279 -0.00425 0.157320425
v 0.149314791 -0.00450000027 0.157325879
v 0.149587438 -0.00475000031 0.157644719
v 0.1493053 -0.00450000027 0.157968178
v 0.149087474 -0.00425 0.157638818
v 0.149538621 -0.00475000031 0.158075675
v 0.14905 -0.00425 0.157969564
v 0.149400547 -0.00475000031 0.158496514
v 0.14894405 -0.00425 0.158292517
v 0.149068773 -0.00450000027 0.158593684
v 0.149179161 -0.00475000031 0.158880129
v 0.148640752 -0.00450000027 0.159089878
v 0.148774147 -0.00425 0.158586934
v 0.148890689 -0.00475000031 0.159203991
v 0.148552775 -0.00425 0.158835486
v 0.148557991 -0.00475000031 0.159454376
v 0.148297429 -0.00425 0.159027636
v 0.148205385 -0.00475000031 0.159627616
v 0.146848351 0.00475000031 0.156078175
v 0.146848351 -0.00425 0.156078175
v 0.147138625 -0.00425 0.1559967
v 0.1471827 0.00025 0.1559892
v 0.147138625 0.00475000031 0.1559967
v 0.147457033 -0.00425 0.1559695
v 0.147457033 0.00475000031 0.1559695
v 0.14755109 0.00025 0.1559733
v 0.147787765 -0.00425 0.156006977
v 0.147787765 0.00475000031 0.156006977
v 0.147928372 0.00025 0.156044081
v 0.148110732 -0.00425 0.156112939
v 0.148110732 0.00475000031 0.156112939
v 0.14828369 0.00025 0.156202838
v 0.14840512 -0.00425 0.156282842
v 0.14840512 0.00475000031 0.156282842
v 0.1485881 0.00025 0.156436682
v 0.148653686 -0.00425 0.156504214
v 0.148653686 0.00475000031 0.156504214
v 0.148822039 0.00025 0.156721711
v 0.148845851 -0.00425 0.156759545
v 0.1489788 0.00025 0.15703015
v 0.148845851 0.00475000031 0.156759545
v 0.1489788 -0.00425 0.15703015
v 0.1489788 0.00475000031 0.15703015
v 0.149060279 -0.00425 0.157320425
v 0.149060279 0.00475000031 0.157320425
v 0.149067774 0.00025 0.157364488
v 0.149087474 -0.00425 0.157638818
v 0.149087474 0.00475000031 0.157638818
v 0.149087474 0.00025 0.157638818
v 0.149059549 0.00025 0.1579223
v 0.14905 -0.00425 0.157969564
v 0.14905 0.00475000031 0.157969564
v 0.1489812 0.00025 0.158202276
v 0.14894405 -0.00425 0.158292517
v 0.14894405 0.00475000031 0.158292517
v 0.148854136 0.00025 0.15846549
v 0.148774147 -0.00425 0.158586934
v 0.148774147 0.00475000031 0.158586934
v 0.148684621 0.00025 0.15869987
v 0.148552775 -0.00425 0.158835486
v 0.148552775 0.00475000031 0.158835486
v 0.148482457 0.00025 0.158896416
v 0.148297429 -0.00425 0.159027636
v 0.148297429 0.00475000031 0.159027636
v 0.148259282 0.00025 0.159050226
v 0.148026824 -0.00425 0.159160584
v 0.148026824 0.00475000031 0.159160584
v 0.147736549 -0.00425 0.159242079
v 0.147692472 0.00025 0.159249589
v 0.147736549 0.00475000031 0.159242079
v 0.147418156 -0.00425 0.159269273
v 0.147418156 0.00475000031 0.159269273
v 0.147324085 0.00025 0.159265473
v 0.14708741 -0.00425 0.1592318
v 0.14708741 0.00475000031 0.1592318
v 0.1469468 0.00025 0.159194708
v 0.146764457 -0.00425 0.159125835
v 0.146764457 0.00475000031 0.159125835
v 0.146591485 0.00025 0.159035936
v 0.146470055 -0.00425 0.158955932
v 0.146470055 0.00475000031 0.158955932
v 0.146287069 0.00025 0.1588021
v 0.146221489 -0.00425 0.15873456
v 0.146221489 0.00475000031 0.15873456
v 0.14605315 0.00025 0.158517063
v 0.146029338 -0.00425 0.158479229
v 0.14589639 0.00025 0.158208624
v 0.146029338 0.00475000031 0.158479229
v 0.14589639 -0.00425 0.158208624
v 0.14589639 0.00475000031 0.158208624
v 0.1458149 -0.00425 0.157918349
v 0.1458149 0.00475000031 0.157918349
v 0.1458074 0.00025 0.157874286
v 0.1457877 -0.00425 0.157599956
v 0.1457877 0.00475000031 0.157599956
v 0.1457877 0.00025 0.157599956
v 0.145815641 0.00025 0.157316476
v 0.145825177 -0.00425 0.157269225
v 0.145825177 0.00475000031 0.157269225
v 0.145893976 0.00025 0.1570365
v 0.14593114 -0.00425 0.156946242
v 0.14593114 0.00475000031 0.156946242
v 0.146021038 0.00025 0.1567733
v 0.146101043 -0.00425 0.156651855
v 0.146101043 0.00475000031 0.156651855
v 0.146190554 0.00025 0.156538919
v 0.146322414 -0.00425 0.1564033
v 0.146322414 0.00475000031 0.1564033
v 0.146392733 0.00025 0.156342372
v 0.146577746 -0.00425 0.156211138
v 0.146577746 0.00475000031 0.156211138
v 0.1466159 0.00025 0.156188548
v 0.146848351 -0.00425 0.156078175
v 0.146848351 0.00475000031 0.156078175
v 0.151640862 -0.00475000031 0.156012371
v 0.151814073 -0.00475000031 0.1565723
v 0.151913568 -0.00475000031 0.157155022
v 0.151935816 -0.00475000031 0.157745764
v 0.150033846 -0.00475000031 0.1518091
v 0.151881248 -0.00475000031 0.158329308
v 0.149272576 -0.00475000031 0.156498984
v 0.149445817 -0.00475000031 0.15685159
v 0.149022192 -0.00475000031 0.156166285
v 0.14869833 -0.00475000031 0.155877829
v 0.148314714 -0.00475000031 0.155656442
v 0.149552017 -0.00475000031 0.157229826
v 0.145830572 -0.00475000031 0.153416112
v 0.149587438 -0.00475000031 0.157644719
v 0.147893876 -0.00475000031 0.155518368
v 0.149538621 -0.00475000031 0.158075675
v 0.149400547 -0.00475000031 0.158496514
v 0.149179161 -0.00475000031 0.158880129
v 0.147462919 -0.00475000031 0.155469537
v 0.149593711 -0.00475000031 0.172647744
v 0.147048041 -0.00475000031 0.155504972
v 0.14666979 -0.00475000031 0.155611157
v 0.1463172 -0.00475000031 0.1557844
v 0.145234391 -0.00475000031 0.153695628
v 0.145984486 -0.00475000031 0.156034783
v 0.148890689 -0.00475000031 0.159203991
v 0.144679666 -0.00475000031 0.154063568
v 0.145696029 -0.00475000031 0.156358644
v 0.145474643 -0.00475000031 0.15674226
v 0.148557991 -0.00475000031 0.159454376
v 0.14418529 -0.00475000031 0.154509321
v 0.145336568 -0.00475000031 0.157163113
v 0.145287737 -0.00475000031 0.15759407
v 0.143766239 -0.00475000031 0.155017242
v 0.145323172 -0.00475000031 0.158008948
v 0.148205385 -0.00475000031 0.159627616
v 0.147827148 -0.00475000031 0.1597338
v 0.147225812 -0.00475000031 0.162114412
v 0.1456438 -0.00475000031 0.1720167
v 0.147412255 -0.00475000031 0.159769237
v 0.146981314 -0.00475000031 0.1597204
v 0.146560475 -0.00475000031 0.159582332
v 0.14617686 -0.00475000031 0.159360945
v 0.145852983 -0.00475000031 0.159072489
v 0.146602944 -0.00475000031 0.162041321
v 0.1456026 -0.00475000031 0.158739775
v 0.145429358 -0.00475000031 0.158387184
v 0.145977214 -0.00475000031 0.161875814
v 0.1453691 -0.00475000031 0.161615789
v 0.144799724 -0.00475000031 0.161265165
v 0.1442886 -0.00475000031 0.160834014
v 0.143234313 -0.00475000031 0.159226418
v 0.143851429 -0.00475000031 0.160337746
v 0.143498555 -0.00475000031 0.15979515
v 0.129558235 -0.00475000031 0.117855072
v 0.126092851 -0.00475000031 0.114391483
v 0.126124442 -0.00475000031 0.11324387
v 0.126278877 -0.00475000031 0.112976238
v 0.126480132 -0.00475000031 0.112750269
v 0.126712248 -0.00475000031 0.112575583
v 0.126028091 -0.00475000031 0.113537475
v 0.125994027 -0.00475000031 0.113838136
v 0.126018763 -0.00475000031 0.114127591
v 0.126958266 -0.00475000031 0.112454727
v 0.127118513 -0.00475000031 0.112393454
v 0.127399325 -0.00475000031 0.112316348
v 0.127695471 -0.00475000031 0.112295106
v 0.127989992 -0.00475000031 0.11233262
v 0.128266126 -0.00475000031 0.112425044
v 0.136118352 -0.00475000031 0.117174476
v 0.136358917 -0.00475000031 0.116041213
v 0.136228487 -0.00475000031 0.117150262
v 0.136332989 -0.00475000031 0.117100365
v 0.136423215 -0.00475000031 0.117027774
v 0.136492729 -0.00475000031 0.116938964
v 0.136540562 -0.00475000031 0.116836846
v 0.1365646 -0.00475000031 0.11672356
v 0.136533782 -0.00475000031 0.11649859
v 0.13656193 -0.00475000031 0.1166078
v 0.148026824 0.00475000031 0.159160584
v 0.147736549 0.00475000031 0.159242079
v 0.148205385 0.00525 0.159627616
v 0.14752233 0.00500000035 0.1595175
v 0.147418156 0.00475000031 0.159269273
v 0.147827148 0.00525 0.1597338
v 0.147412255 0.00525 0.159769237
v 0.14708741 0.00475000031 0.1592318
v 0.146981314 0.00525 0.1597204
v 0.146872446 0.00500000035 0.1594334
v 0.146764457 0.00475000031 0.159125835
v 0.146278948 0.00500000035 0.159125239
v 0.146560475 0.00525 0.159582332
v 0.146470055 0.00475000031 0.158955932
v 0.14617686 0.00525 0.159360945
v 0.146221489 0.00475000031 0.15873456
v 0.145852983 0.00525 0.159072489
v 0.145843387 0.00500000035 0.15865308
v 0.146029338 0.00475000031 0.158479229
v 0.145662874 0.00500000035 0.1582979
v 0.1456026 0.00525 0.158739775
v 0.14589639 0.00475000031 0.158208624
v 0.145429358 0.00525 0.158387184
v 0.1458149 0.00475000031 0.157918349
v 0.145323172 0.00525 0.158008948
v 0.145560384 0.00500000035 0.1579129
v 0.1457877 0.00475000031 0.157599956
v 0.145287737 0.00525 0.15759407
v 0.145542085 0.00500000035 0.1574887
v 0.145825177 0.00475000031 0.157269225
v 0.145336568 0.00525 0.157163113
v 0.14562358 0.00500000035 0.157054245
v 0.14593114 0.00475000031 0.156946242
v 0.145474643 0.00525 0.15674226
v 0.145806417 0.00500000035 0.156645089
v 0.146101043 0.00475000031 0.156651855
v 0.145696029 0.00525 0.156358644
v 0.146075681 0.00500000035 0.15629454
v 0.146322414 0.00475000031 0.1564033
v 0.145984486 0.00525 0.156034783
v 0.1464039 0.00500000035 0.156025186
v 0.146577746 0.00475000031 0.156211138
v 0.1463172 0.00525 0.1557844
v 0.146848351 0.00475000031 0.156078175
v 0.14666979 0.00525 0.155611157
v 0.136533782 0.00525 0.11649859
v 0.1365646 0.00525 0.11672356
v 0.13656193 0.00525 0.1166078
v 0.136358917 0.00525 0.116041213
v 0.136540562 0.00525 0.116836846
v 0.136492729 0.00525 0.116938964
v 0.136423215 0.00525 0.117027774
v 0.136332989 0.00525 0.117100365
v 0.136228487 0.00525 0.117150262
v 0.136118352 0.00525 0.117174476
v 0.128266126 0.00525 0.112425044
v 0.129558235 0.00525 0.117855072
v 0.127989992 0.00525 0.11233262
v 0.127695471 0.00525 0.112295106
v 0.127399325 0.00525 0.112316348
v 0.127118513 0.00525 0.112393454
v 0.126958266 0.00525 0.112454727
v 0.126712248 0.00525 0.112575583
v 0.126480132 0.00525 0.112750269
v 0.126278877 0.00525 0.112976238
v 0.126124442 0.00525 0.11324387
v 0.126092851 0.00525 0.114391483
v 0.126028091 0.00525 0.113537475
v 0.125994027 0.00525 0.113838136
v 0.126018763 0.00525 0.114127591
v 0.143234313 0.00525 0.159226418
v 0.143766239 0.00525 0.155017242
v 0.1442886 0.00525 0.160834014
v 0.143851429 0.00525 0.160337746
v 0.143498555 0.00525 0.15979515
v 0.144799724 0.00525 0.161265165
v 0.1453691 0.00525 0.161615789
v 0.145977214 0.00525 0.161875814
v 0.145429358 0.00525 0.158387184
v 0.146602944 0.00525 0.162041321
v 0.145323172 0.00525 0.158008948
v 0.1456026 0.00525 0.158739775
v 0.145287737 0.00525 0.15759407
v 0.145852983 0.00525 0.159072489
v 0.147225812 0.00525 0.162114412
v 0.14418529 0.00525 0.154509321
v 0.145336568 0.00525 0.157163113
v 0.145474643 0.00525 0.15674226
v 0.14617686 0.00525 0.159360945
v 0.144679666 0.00525 0.154063568
v 0.145696029 0.00525 0.156358644
v 0.145984486 0.00525 0.156034783
v 0.145234391 0.00525 0.153695628
v 0.1463172 0.00525 0.1557844
v 0.146560475 0.00525 0.159582332
v 0.145830572 0.00525 0.153416112
v 0.146981314 0.00525 0.1597204
v 0.14666979 0.00525 0.155611157
v 0.147412255 0.00525 0.159769237
v 0.147048041 0.00525 0.155504972
v 0.147462919 0.00525 0.155469537
v 0.147893876 0.00525 0.155518368
v 0.148314714 0.00525 0.155656442
v 0.150033846 0.00525 0.1518091
v 0.14869833 0.00525 0.155877829
v 0.149022192 0.00525 0.156166285
v 0.147827148 0.00525 0.1597338
v 0.149272576 0.00525 0.156498984
v 0.151881248 0.00525 0.158329308
v 0.149445817 0.00525 0.15685159
v 0.149552017 0.00525 0.157229826
v 0.149587438 0.00525 0.157644719
v 0.149538621 0.00525 0.158075675
v 0.149400547 0.00525 0.158496514
v 0.149179161 0.00525 0.158880129
v 0.151935816 0.00525 0.157745764
v 0.151640862 0.00525 0.156012371
v 0.151913568 0.00525 0.157155022
v 0.151814073 0.00525 0.1565723
v 0.149593711 0.00525 0.172647744
v 0.1456438 0.00525 0.1720167
v 0.148890689 0.00525 0.159203991
v 0.148557991 0.00525 0.159454376
v 0.148205385 0.00525 0.159627616
v 0.14664878 0.00475000031 0.162556767
v 0.147225812 0.00525 0.162114412
v 0.146602944 0.00525 0.162041321
v 0.145896092 0.00500000035 0.1621123
v 0.145977214 0.00525 0.161875814
v 0.145418629 0.00475000031 0.162193641
v 0.144653171 0.00500000035 0.161467716
v 0.144831628 0.00475000031 0.161886588
v 0.1453691 0.00525 0.161615789
v 0.144285768 0.00475000031 0.161500886
v 0.144799724 0.00525 0.161265165
v 0.143796235 0.00475000031 0.16104582
v 0.1442886 0.00525 0.160834014
v 0.1436522 0.00500000035 0.160488755
v 0.143851429 0.00525 0.160337746
v 0.143498555 0.00525 0.15979515
v 0.143375218 0.00475000031 0.160534367
v 0.143234313 0.00525 0.159226418
v 0.14276728 0.00475000031 0.159404963
v 0.14276728 -0.00425 0.159404963
v 0.143234313 -0.00475000031 0.159226418
v 0.143498555 -0.00475000031 0.15979515
v 0.1436522 -0.00450000027 0.160488755
v 0.143375218 -0.00425 0.160534367
v 0.143851429 -0.00475000031 0.160337746
v 0.143796235 -0.00425 0.16104582
v 0.144653171 -0.00450000027 0.161467716
v 0.144285768 -0.00425 0.161500886
v 0.1442886 -0.00475000031 0.160834014
v 0.144831628 -0.00425 0.161886588
v 0.144799724 -0.00475000031 0.161265165
v 0.145418629 -0.00425 0.162193641
v 0.1453691 -0.00475000031 0.161615789
v 0.145896092 -0.00450000027 0.1621123
v 0.14664878 -0.00425 0.162556767
v 0.145977214 -0.00475000031 0.161875814
v 0.147225812 -0.00475000031 0.162114412
v 0.146602944 -0.00475000031 0.162041321
v 0.145234391 -0.00475000031 0.153695628
v 0.145652026 -0.00425 0.15294908
v 0.145830572 -0.00475000031 0.153416112
v 0.144526437 -0.00450000027 0.153866023
v 0.144679666 -0.00475000031 0.154063568
v 0.1447355 -0.00425 0.1534124
v 0.14418529 -0.00475000031 0.154509321
v 0.143932968 -0.00425 0.154053211
v 0.143766239 -0.00475000031 0.155017242
v 0.151881248 -0.00475000031 0.158329308
v 0.151935816 -0.00475000031 0.157745764
v 0.152374983 -0.00425 0.1584082
v 0.152162239 -0.00450000027 0.157129228
v 0.151913568 -0.00475000031 0.157155022
v 0.1524109 -0.00425 0.157103419
v 0.151814073 -0.00475000031 0.1565723
v 0.1521079 -0.00425 0.155833811
v 0.151640862 -0.00475000031 0.156012371
v 0.1521079 0.00475000031 0.155833811
v 0.151640862 0.00525 0.156012371
v 0.151814073 0.00525 0.1565723
v 0.152162239 0.00500000035 0.157129228
v 0.151913568 0.00525 0.157155022
v 0.1524109 0.00475000031 0.157103419
v 0.151935816 0.00525 0.157745764
v 0.152374983 0.00475000031 0.1584082
v 0.151881248 0.00525 0.158329308
v 0.143932968 0.00475000031 0.154053211
v 0.143766239 0.00525 0.155017242
v 0.14418529 0.00525 0.154509321
v 0.144526437 0.00500000035 0.153866023
v 0.144679666 0.00525 0.154063568
v 0.145234391 0.00525 0.153695628
v 0.1447355 0.00475000031 0.1534124
v 0.145830572 0.00525 0.153416112
v 0.145652026 0.00475000031 0.15294908
v 0.136169955 0.00475000031 0.1176718
v 0.136169955 -0.00425 0.1176718
v 0.136390239 -0.00425 0.117623389
v 0.1364212 0.00025 0.11761222
v 0.136390239 0.00475000031 0.117623389
v 0.136541724 0.00025 0.117557153
v 0.136599228 -0.00425 0.117523588
v 0.136599228 0.00475000031 0.117523588
v 0.136654392 0.00025 0.117486276
v 0.136779666 -0.00425 0.117378391
v 0.136779666 0.00475000031 0.117378391
v 0.1367562 0.00025 0.117401481
v 0.136844829 0.00025 0.117305323
v 0.1369187 -0.00425 0.117200792
v 0.1369187 0.00475000031 0.117200792
v 0.1369786 0.00025 0.117087677
v 0.137014374 -0.00425 0.116996542
v 0.137014374 0.00475000031 0.116996542
v 0.137041315 0.00025 0.116901241
v 0.13706243 -0.00425 0.116769984
v 0.13706243 0.00475000031 0.116769984
v 0.137066409 0.00025 0.116703525
v 0.1370571 -0.00425 0.116538443
v 0.1370571 0.00475000031 0.116538443
v 0.137052 0.00025 0.116506055
v 0.137000814 -0.00425 0.116320036
v 0.137000814 0.00475000031 0.116320036
v 0.145418629 0.00025 0.162193641
v 0.145418629 0.00475000031 0.162193641
v 0.144831628 0.00475000031 0.161886588
v 0.14664878 0.00475000031 0.162556767
v 0.14664878 -0.00425 0.162556767
v 0.145418629 -0.00425 0.162193641
v 0.144831628 0.00025 0.161886588
v 0.144285768 0.00475000031 0.161500886
v 0.144831628 -0.00425 0.161886588
v 0.144285768 0.00025 0.161500886
v 0.143796235 0.00475000031 0.16104582
v 0.144285768 -0.00425 0.161500886
v 0.143796235 0.00025 0.16104582
v 0.143375218 0.00475000031 0.160534367
v 0.143796235 -0.00425 0.16104582
v 0.143375218 0.00025 0.160534367
v 0.14276728 0.00475000031 0.159404963
v 0.143375218 -0.00425 0.160534367
v 0.14276728 -0.00425 0.159404963
v 0.1513044 0.00025 0.153732181
v 0.1521079 0.00475000031 0.155833811
v 0.1521079 -0.00425 0.155833811
v 0.150500879 -0.00425 0.151630551
v 0.150500879 0.00475000031 0.151630551
v 0.1524109 0.00025 0.157103419
v 0.1524109 0.00475000031 0.157103419
v 0.152374983 0.00475000031 0.1584082
v 0.152374983 -0.00425 0.1584082
v 0.1521079 0.00475000031 0.155833811
v 0.1524109 -0.00425 0.157103419
v 0.1521079 -0.00425 0.155833811
v 0.151191771 0.00025 0.165814281
v 0.150008574 0.00475000031 0.173220351
v 0.150008574 -0.00425 0.173220351
v 0.152374983 -0.00425 0.1584082
v 0.152374983 0.00475000031 0.1584082
v 0.147539884 0.00025 0.172825962
v 0.145071179 0.00475000031 0.172431558
v 0.145071179 -0.00425 0.172431558
v 0.150008574 -0.00425 0.173220351
v 0.150008574 0.00475000031 0.173220351
v 0.145859987 0.00025 0.167494178
v 0.14664878 0.00475000031 0.162556767
v 0.14664878 -0.00425 0.162556767
v 0.145071179 -0.00425 0.172431558
v 0.145071179 0.00475000031 0.172431558
v 0.136876389 0.00025 0.115994625
v 0.137000814 0.00475000031 0.116320036
v 0.137000814 -0.00425 0.116320036
v 0.13675198 -0.00425 0.115669206
v 0.13675198 0.00475000031 0.115669206
v 0.132611051 0.00025 0.113818869
v 0.13675198 0.00475000031 0.115669206
v 0.13675198 -0.00425 0.115669206
v 0.128470108 -0.00425 0.111968547
v 0.128470108 0.00475000031 0.111968547
v 0.127314374 0.00025 0.111823618
v 0.127314374 0.00475000031 0.111823618
v 0.127709225 0.00475000031 0.1117953
v 0.126939967 0.00475000031 0.111926422
v 0.126939967 -0.00425 0.111926422
v 0.127314374 -0.00425 0.111823618
v 0.127709225 0.00025 0.1117953
v 0.12810193 0.00475000031 0.111845292
v 0.127709225 -0.00425 0.1117953
v 0.12810193 0.00025 0.111845292
v 0.128470108 0.00475000031 0.111968547
v 0.12810193 -0.00425 0.111845292
v 0.128470108 -0.00425 0.111968547
v 0.133213967 0.00025 0.117978483
v 0.130257964 0.00475000031 0.118285157
v 0.130257964 -0.00425 0.118285157
v 0.136169955 -0.00425 0.1176718
v 0.136169955 0.00475000031 0.1176718
v 0.126859829 0.00025 0.111957058
v 0.126939967 0.00475000031 0.111926422
v 0.126939967 -0.00425 0.111926422
v 0.1267797 -0.00425 0.111987695
v 0.1267797 0.00475000031 0.111987695
v 0.137095466 0.00025 0.13616918
v 0.143932968 0.00475000031 0.154053211
v 0.143932968 -0.00425 0.154053211
v 0.130257964 -0.00425 0.118285157
v 0.130257964 0.00475000031 0.118285157
v 0.125527039 0.00025 0.114218183
v 0.125527039 0.00475000031 0.114218183
v 0.125494063 0.00475000031 0.11383225
v 0.1256258 0.00475000031 0.114570044
v 0.1256258 -0.00425 0.114570044
v 0.125527039 -0.00425 0.114218183
v 0.125494063 0.00025 0.11383225
v 0.125539482 0.00475000031 0.113431364
v 0.125494063 -0.00425 0.11383225
v 0.125539482 0.00025 0.113431364
v 0.12566793 0.00475000031 0.113039896
v 0.125539482 -0.00425 0.113431364
v 0.12566793 0.00025 0.113039896
v 0.125873864 0.00475000031 0.112683035
v 0.12566793 -0.00425 0.113039896
v 0.125873864 0.00025 0.112683035
v 0.1261422 0.00475000031 0.112381764
v 0.125873864 -0.00425 0.112683035
v 0.1261422 0.00025 0.112381764
v 0.1264517 0.00475000031 0.112148836
v 0.1261422 -0.00425 0.112381764
v 0.1264517 0.00025 0.112148836
v 0.1267797 0.00475000031 0.111987695
v 0.1264517 -0.00425 0.112148836
v 0.1267797 -0.00425 0.111987695
v 0.1447355 0.00025 0.1534124
v 0.1447355 0.00475000031 0.1534124
v 0.145652026 0.00475000031 0.15294908
v 0.145652026 -0.00425 0.15294908
v 0.143932968 0.00475000031 0.154053211
v 0.1447355 -0.00425 0.1534124
v 0.143932968 -0.00425 0.154053211
v 0.13419655 0.00025 0.1369875
v 0.1256258 0.00475000031 0.114570044
v 0.1256258 -0.00425 0.114570044
v 0.14276728 -0.00425 0.159404963
v 0.14276728 0.00475000031 0.159404963
v 0.147753656 0.00025 0.152145579
v 0.1498553 0.00475000031 0.151342064
v 0.1498553 -0.00425 0.151342064
v 0.145652026 -0.00425 0.15294908
v 0.145652026 0.00475000031 0.15294908
v 0.132460117 0.00496548228 0.113987438
v 0.128470108 0.00475000031 0.111968547
v 0.128266126 0.00525 0.112425044
v 0.136358917 0.00525 0.116041213
v 0.13675198 0.00475000031 0.115669206
v 0.128470108 0.00475000031 0.111968547
v 0.128045961 0.00500000035 0.112088956
v 0.128266126 0.00525 0.112425044
v 0.12810193 0.00475000031 0.111845292
v 0.127989992 0.00525 0.11233262
v 0.127709225 0.00475000031 0.1117953
v 0.12770234 0.00500000035 0.112045214
v 0.127695471 0.00525 0.112295106
v 0.127314374 0.00475000031 0.111823618
v 0.127356857 0.00500000035 0.112069987
v 0.127399325 0.00525 0.112316348
v 0.126939967 0.00475000031 0.111926422
v 0.127118513 0.00525 0.112393454
v 0.126949117 0.00500000035 0.11219056
v 0.126958266 0.00525 0.112454727
v 0.127118513 0.00525 0.112393454
v 0.126939967 0.00475000031 0.111926422
v 0.1267797 0.00475000031 0.111987695
v 0.1267797 0.00475000031 0.111987695
v 0.126581967 0.00500000035 0.112362206
v 0.126958266 0.00525 0.112454727
v 0.1264517 0.00475000031 0.112148836
v 0.126712248 0.00525 0.112575583
v 0.1261422 0.00475000031 0.112381764
v 0.126311168 0.00500000035 0.112566017
v 0.126480132 0.00525 0.112750269
v 0.125873864 0.00475000031 0.112683035
v 0.12607637 0.00500000035 0.112829641
v 0.126278877 0.00525 0.112976238
v 0.12566793 0.00475000031 0.113039896
v 0.125896186 0.00500000035 0.113141872
v 0.126124442 0.00525 0.11324387
v 0.125539482 0.00475000031 0.113431364
v 0.1257838 0.00500000035 0.113484412
v 0.126028091 0.00525 0.113537475
v 0.125494063 0.00475000031 0.11383225
v 0.12574406 0.00500000035 0.113835193
v 0.125994027 0.00525 0.113838136
v 0.125527039 0.00475000031 0.114218183
v 0.1257729 0.00500000035 0.114172891
v 0.126018763 0.00525 0.114127591
v 0.1256258 0.00475000031 0.114570044
v 0.126092851 0.00525 0.114391483
v 0.134430066 0.00500000035 0.13689822
v 0.143234313 0.00525 0.159226418
v 0.126092851 0.00525 0.114391483
v 0.1256258 0.00475000031 0.114570044
v 0.14276728 0.00475000031 0.159404963
v 0.132460117 -0.00446548266 0.113987438
v 0.128266126 -0.00475000031 0.112425044
v 0.128470108 -0.00425 0.111968547
v 0.13675198 -0.00425 0.115669206
v 0.136358917 -0.00475000031 0.116041213
v 0.126939967 -0.00425 0.111926422
v 0.127356857 -0.00450000027 0.112069987
v 0.127118513 -0.00475000031 0.112393454
v 0.127314374 -0.00425 0.111823618
v 0.127399325 -0.00475000031 0.112316348
v 0.127709225 -0.00425 0.1117953
v 0.12770234 -0.00450000027 0.112045214
v 0.127695471 -0.00475000031 0.112295106
v 0.12810193 -0.00425 0.111845292
v 0.128045961 -0.00450000027 0.112088956
v 0.127989992 -0.00475000031 0.11233262
v 0.128470108 -0.00425 0.111968547
v 0.128266126 -0.00475000031 0.112425044
v 0.126949117 -0.00450000027 0.11219056
v 0.1267797 -0.00425 0.111987695
v 0.126939967 -0.00425 0.111926422
v 0.127118513 -0.00475000031 0.112393454
v 0.126958266 -0.00475000031 0.112454727
v 0.1256258 -0.00425 0.114570044
v 0.1257729 -0.00450000027 0.114172891
v 0.126092851 -0.00475000031 0.114391483
v 0.125527039 -0.00425 0.114218183
v 0.126018763 -0.00475000031 0.114127591
v 0.125494063 -0.00425 0.11383225
v 0.12574406 -0.00450000027 0.113835193
v 0.125994027 -0.00475000031 0.113838136
v 0.125539482 -0.00425 0.113431364
v 0.1257838 -0.00450000027 0.113484412
v 0.126028091 -0.00475000031 0.113537475
v 0.12566793 -0.00425 0.113039896
v 0.125896186 -0.00450000027 0.113141872
v 0.126124442 -0.00475000031 0.11324387
v 0.125873864 -0.00425 0.112683035
v 0.12607637 -0.00450000027 0.112829641
v 0.126278877 -0.00475000031 0.112976238
v 0.1261422 -0.00425 0.112381764
v 0.126311168 -0.00450000027 0.112566017
v 0.126480132 -0.00475000031 0.112750269
v 0.1264517 -0.00425 0.112148836
v 0.126581967 -0.00450000027 0.112362206
v 0.126712248 -0.00475000031 0.112575583
v 0.1267797 -0.00425 0.111987695
v 0.126958266 -0.00475000031 0.112454727
v 0.134430066 -0.00450000027 0.13689822
v 0.14276728 -0.00425 0.159404963
v 0.1256258 -0.00425 0.114570044
v 0.126092851 -0.00475000031 0.114391483
v 0.143234313 -0.00475000031 0.159226418
v 0.132977381 0.005031391 0.117720127
v 0.136169955 0.00475000031 0.1176718
v 0.136118352 0.00525 0.117174476
v 0.129558235 0.00525 0.117855072
v 0.130257964 0.00475000031 0.118285157
v 0.136228487 0.00525 0.117150262
v 0.136118352 0.00525 0.117174476
v 0.136285961 0.00500000035 0.117394395
v 0.136169955 0.00475000031 0.1176718
v 0.136390239 0.00475000031 0.117623389
v 0.136422977 0.00500000035 0.117337145
v 0.136332989 0.00525 0.117100365
v 0.136599228 0.00475000031 0.117523588
v 0.136546791 0.00500000035 0.117253393
v 0.136423215 0.00525 0.117027774
v 0.136779666 0.00475000031 0.117378391
v 0.136650309 0.00500000035 0.11714828
v 0.136492729 0.00525 0.116938964
v 0.1369187 0.00475000031 0.117200792
v 0.136750638 0.00500000035 0.116985053
v 0.136540562 0.00525 0.116836846
v 0.137014374 0.00475000031 0.116996542
v 0.136807233 0.00500000035 0.116796315
v 0.1365646 0.00525 0.11672356
v 0.13706243 0.00475000031 0.116769984
v 0.136812523 0.00500000035 0.11659763
v 0.13656193 0.00525 0.1166078
v 0.1370571 0.00475000031 0.116538443
v 0.136533782 0.00525 0.11649859
v 0.137000814 0.00475000031 0.116320036
v 0.136642888 0.00500000035 0.11608389
v 0.136533782 0.00525 0.11649859
v 0.137000814 0.00475000031 0.116320036
v 0.13675198 0.00475000031 0.115669206
v 0.136358917 0.00525 0.116041213
v 0.146148488 -0.00450000027 0.167272985
v 0.1456438 -0.00475000031 0.1720167
v 0.145071179 -0.00425 0.172431558
v 0.14664878 -0.00425 0.162556767
v 0.147225812 -0.00475000031 0.162114412
v 0.136895761 0.00500000035 0.136346877
v 0.143766239 0.00525 0.155017242
v 0.143932968 0.00475000031 0.154053211
v 0.130257964 0.00475000031 0.118285157
v 0.129558235 0.00525 0.117855072
v 0.147502616 -0.004326795 0.172742218
v 0.149593711 -0.00475000031 0.172647744
v 0.150008574 -0.00425 0.173220351
v 0.145071179 -0.00425 0.172431558
v 0.1456438 -0.00475000031 0.1720167
v 0.147842944 0.00500000035 0.1523791
v 0.1498553 0.00475000031 0.151342064
v 0.145652026 0.00475000031 0.15294908
v 0.145830572 0.00525 0.153416112
v 0.150033846 0.00525 0.1518091
v 0.151011631 0.00493814144 0.165749326
v 0.152374983 0.00475000031 0.1584082
v 0.151881248 0.00525 0.158329308
v 0.149593711 0.00525 0.172647744
v 0.150008574 0.00475000031 0.173220351
v 0.151070863 0.00500000035 0.153821453
v 0.150033846 0.00525 0.1518091
v 0.151640862 0.00525 0.156012371
v 0.1521079 0.00475000031 0.155833811
v 0.150500879 0.00475000031 0.151630551
v 0.15017809 0.00025 0.1514863
v 0.1498553 -0.00425 0.151342064
v 0.1498553 0.00475000031 0.151342064
v 0.150500879 0.00475000031 0.151630551
v 0.150500879 -0.00425 0.151630551
v 0.151070863 -0.00450000027 0.153821453
v 0.150500879 -0.00425 0.151630551
v 0.1521079 -0.00425 0.155833811
v 0.151640862 -0.00475000031 0.156012371
v 0.150033846 -0.00475000031 0.1518091
v 0.151011631 -0.00443814136 0.165749326
v 0.151881248 -0.00475000031 0.158329308
v 0.152374983 -0.00425 0.1584082
v 0.150008574 -0.00425 0.173220351
v 0.149593711 -0.00475000031 0.172647744
v 0.147842944 -0.00450000027 0.1523791
v 0.150033846 -0.00475000031 0.1518091
v 0.145830572 -0.00475000031 0.153416112
v 0.145652026 -0.00425 0.15294908
v 0.1498553 -0.00425 0.151342064
v 0.150033846 -0.00475000031 0.1518091
v 0.150061324 -0.004375 0.151530951
v 0.150500879 -0.00425 0.151630551
v 0.1498553 -0.00425 0.151342064
v 0.150500879 0.00475000031 0.151630551
v 0.150061324 0.00487500057 0.151530951
v 0.150033846 0.00525 0.1518091
v 0.1498553 0.00475000031 0.151342064
v 0.136895761 -0.00450000027 0.136346877
v 0.143766239 -0.00475000031 0.155017242
v 0.129558235 -0.00475000031 0.117855072
v 0.130257964 -0.00425 0.118285157
v 0.143932968 -0.00425 0.154053211
v 0.147502616 0.00482679531 0.172742218
v 0.149593711 0.00525 0.172647744
v 0.1456438 0.00525 0.1720167
v 0.145071179 0.00475000031 0.172431558
v 0.150008574 0.00475000031 0.173220351
v 0.132977381 -0.00453139143 0.117720127
v 0.136118352 -0.00475000031 0.117174476
v 0.136169955 -0.00425 0.1176718
v 0.130257964 -0.00425 0.118285157
v 0.129558235 -0.00475000031 0.117855072
v 0.136533782 -0.00475000031 0.11649859
v 0.137000814 -0.00425 0.116320036
v 0.136805683 -0.00450000027 0.116548821
v 0.13656193 -0.00475000031 0.1166078
v 0.1370571 -0.00425 0.116538443
v 0.136816487 -0.00450000027 0.116696924
v 0.1365646 -0.00475000031 0.11672356
v 0.13706243 -0.00425 0.116769984
v 0.136797681 -0.00450000027 0.11684522
v 0.136540562 -0.00475000031 0.116836846
v 0.137014374 -0.00425 0.116996542
v 0.136750638 -0.00450000027 0.116985053
v 0.136492729 -0.00475000031 0.116938964
v 0.1369187 -0.00425 0.117200792
v 0.136650309 -0.00450000027 0.11714828
v 0.136423215 -0.00475000031 0.117027774
v 0.136779666 -0.00425 0.117378391
v 0.136507466 -0.00450000027 0.117283992
v 0.136332989 -0.00475000031 0.117100365
v 0.136599228 -0.00425 0.117523588
v 0.1363326 -0.00450000027 0.117378451
v 0.136228487 -0.00475000031 0.117150262
v 0.136390239 -0.00425 0.117623389
v 0.136118352 -0.00475000031 0.117174476
v 0.136169955 -0.00425 0.1176718
v 0.136642888 -0.00450000027 0.11608389
v 0.136533782 -0.00475000031 0.11649859
v 0.136358917 -0.00475000031 0.116041213
v 0.13675198 -0.00425 0.115669206
v 0.137000814 -0.00425 0.116320036
v 0.146148488 0.00500000035 0.167272985
v 0.1456438 0.00525 0.1720167
v 0.147225812 0.00525 0.162114412
v 0.14664878 0.00475000031 0.162556767
v 0.145071179 0.00475000031 0.172431558
f 1 2 3
f 2 4 3
f 3 4 5
f 2 6 4
f 4 7 5
f 6 8 4
f 4 8 7
f 6 9 8
f 8 10 7
f 9 11 8
f 8 11 10
f 9 12 11
f 11 13 10
f 12 14 11
f 11 14 13
f 12 15 14
f 14 16 13
f 15 17 14
f 14 17 16
f 15 18 17
f 17 19 16
f 18 20 17
f 17 20 19
f 18 21 20
f 21 22 20
f 20 23 19
f 20 22 23
f 21 24 22
f 22 25 23
f 24 26 22
f 22 27 25
f 26 28 22
f 22 28 27
f 26 29 28
f 29 30 28
f 28 31 27
f 28 30 31
f 29 32 30
f 30 33 31
f 32 34 30
f 30 35 33
f 34 36 30
f 30 36 35
f 34 37 36
f 37 38 36
f 36 39 35
f 36 38 39
f 37 40 38
f 38 41 39
f 40 42 38
f 38 43 41
f 42 44 38
f 44 43 38
f 44 45 43
f 46 47 48
f 46 48 49
f 50 46 49
f 49 48 51
f 52 50 49
f 49 51 53
f 54 52 49
f 55 49 53
f 54 49 55
f 55 53 56
f 57 55 56
f 58 54 55
f 58 55 57
f 57 56 59
f 60 58 57
f 57 59 61
f 62 60 57
f 63 57 61
f 62 57 63
f 63 61 64
f 65 63 64
f 66 62 63
f 66 63 65
f 65 64 67
f 68 66 65
f 65 67 69
f 70 68 65
f 71 65 69
f 70 65 71
f 71 69 72
f 73 70 71
f 74 71 72
f 73 71 74
f 74 72 75
f 76 73 74
f 77 74 75
f 76 74 77
f 77 75 78
f 79 76 77
f 80 77 78
f 79 77 80
f 80 78 81
f 82 79 80
f 83 80 81
f 82 80 83
f 83 81 84
f 85 82 83
f 86 83 84
f 85 83 86
f 86 84 87
f 88 85 86
f 89 86 87
f 88 86 89
f 90 88 89
f 89 91 90
f 92 93 94
f 92 94 95
f 96 92 95
f 95 94 97
f 98 96 95
f 99 95 97
f 98 95 99
f 99 97 100
f 101 98 99
f 102 99 100
f 101 99 102
f 102 100 103
f 104 101 102
f 105 102 103
f 104 102 105
f 105 103 106
f 107 104 105
f 108 105 106
f 107 105 108
f 108 106 109
f 110 107 108
f 111 108 109
f 110 108 111
f 111 109 112
f 113 111 112
f 114 110 111
f 114 111 113
f 113 112 115
f 116 114 113
f 113 115 117
f 118 116 113
f 119 113 117
f 118 113 119
f 119 117 120
f 121 119 120
f 122 118 119
f 122 119 121
f 121 120 123
f 124 122 121
f 121 123 125
f 126 124 121
f 127 121 125
f 126 121 127
f 127 125 128
f 129 127 128
f 130 126 127
f 130 127 129
f 129 128 131
f 132 130 129
f 129 131 133
f 134 132 129
f 135 129 133
f 134 129 135
f 136 137 138
f 136 138 139
f 140 136 139
f 139 138 141
f 142 140 139
f 143 139 141
f 142 139 143
f 143 141 144
f 145 142 143
f 146 143 144
f 145 143 146
f 146 144 147
f 148 145 146
f 149 146 147
f 148 146 149
f 149 147 150
f 151 148 149
f 152 149 150
f 151 149 152
f 152 150 153
f 154 151 152
f 155 152 153
f 154 152 155
f 155 153 156
f 157 155 156
f 158 154 155
f 158 155 157
f 157 156 159
f 160 158 157
f 161 157 159
f 162 160 157
f 163 157 161
f 162 157 163
f 164 163 161
f 165 162 163
f 166 163 164
f 166 165 163
f 167 166 164
f 166 167 165
f 167 164 168
f 167 169 165
f 170 167 168
f 167 170 169
f 170 168 171
f 170 172 169
f 173 170 171
f 170 173 172
f 173 171 174
f 173 175 172
f 176 173 174
f 173 176 175
f 176 174 177
f 176 178 175
f 179 176 177
f 176 179 178
f 179 177 180
f 179 181 178
f 182 179 180
f 179 182 181
f 182 180 183
f 181 182 184
f 182 183 184
f 183 185 184
f 185 186 184
f 184 186 187
f 185 188 186
f 186 189 187
f 188 190 186
f 186 190 189
f 188 191 190
f 190 192 189
f 191 193 190
f 190 193 192
f 191 194 193
f 193 195 192
f 194 196 193
f 193 196 195
f 194 197 196
f 196 198 195
f 197 199 196
f 196 199 198
f 197 200 199
f 199 201 198
f 200 202 199
f 199 202 201
f 200 203 202
f 203 204 202
f 202 205 201
f 202 204 205
f 203 206 204
f 204 207 205
f 206 208 204
f 204 209 207
f 208 210 204
f 204 210 209
f 208 211 210
f 210 212 209
f 211 213 210
f 210 213 212
f 211 214 213
f 214 212 213
f 215 214 211
f 214 216 212
f 217 214 215
f 214 217 216
f 218 217 215
f 217 219 216
f 220 217 218
f 217 220 219
f 221 220 218
f 220 222 219
f 223 220 221
f 220 223 222
f 224 223 221
f 223 225 222
f 226 223 224
f 223 226 225
f 227 226 224
f 226 228 225
f 229 226 227
f 226 229 228
f 230 229 227
f 229 231 228
f 229 230 231
f 232 233 234
f 232 234 235
f 236 232 235
f 235 237 236
f 237 238 236
f 237 239 238
f 240 236 238
f 236 240 241
f 236 241 242
f 239 237 243
f 244 236 242
f 237 245 243
f 244 242 246
f 237 247 245
f 247 237 248
f 237 249 248
f 244 246 250
f 237 251 249
f 252 244 250
f 244 252 253
f 244 253 254
f 255 244 254
f 254 256 255
f 251 257 249
f 256 258 255
f 256 259 258
f 259 260 258
f 251 261 257
f 260 262 258
f 260 263 262
f 263 264 262
f 264 265 262
f 264 266 265
f 261 251 267
f 251 268 267
f 269 268 251
f 270 269 251
f 269 271 268
f 271 269 272
f 269 273 272
f 269 274 273
f 274 269 275
f 269 276 275
f 276 277 275
f 276 278 277
f 266 278 265
f 278 276 279
f 278 279 265
f 265 279 280
f 281 265 280
f 265 281 282
f 265 282 283
f 283 282 284
f 285 283 284
f 286 265 283
f 286 283 287
f 286 287 288
f 289 286 288
f 286 289 290
f 286 290 291
f 288 287 292
f 287 293 292
f 287 294 293
f 295 286 291
f 286 295 296
f 286 296 297
f 298 286 297
f 286 298 299
f 286 299 300
f 301 286 300
f 300 302 301
f 302 303 301
f 302 304 303
f 304 302 305
f 302 306 305
f 302 307 306
f 307 302 308
f 302 309 308
f 309 310 308
f 311 312 313
f 312 314 313
f 312 315 314
f 313 314 316
f 314 317 316
f 315 318 314
f 314 319 317
f 318 320 314
f 314 320 319
f 318 321 320
f 321 322 320
f 320 323 319
f 320 322 323
f 321 324 322
f 322 325 323
f 324 326 322
f 322 327 325
f 326 328 322
f 322 328 327
f 326 329 328
f 329 330 328
f 328 331 327
f 328 330 331
f 329 332 330
f 330 333 331
f 332 334 330
f 330 335 333
f 334 336 330
f 330 336 335
f 334 337 336
f 336 338 335
f 337 339 336
f 336 339 338
f 337 340 339
f 339 341 338
f 340 342 339
f 339 342 341
f 340 343 342
f 342 344 341
f 343 345 342
f 342 345 344
f 343 346 345
f 345 347 344
f 346 348 345
f 345 348 347
f 346 349 348
f 348 350 347
f 349 351 348
f 348 351 350
f 349 352 351
f 351 353 350
f 352 354 351
f 354 353 351
f 354 355 353
f 356 357 358
f 356 359 357
f 359 360 357
f 359 361 360
f 361 359 362
f 359 363 362
f 359 364 363
f 364 359 365
f 359 366 365
f 366 367 365
f 366 368 367
f 368 369 367
f 369 370 367
f 370 371 367
f 371 372 367
f 372 373 367
f 373 374 367
f 374 375 367
f 375 376 367
f 376 377 367
f 376 378 377
f 378 379 377
f 379 380 377
f 377 381 367
f 381 382 367
f 381 383 382
f 383 381 384
f 381 385 384
f 383 386 382
f 386 387 382
f 387 388 382
f 388 389 382
f 388 390 389
f 382 389 391
f 390 392 389
f 382 391 393
f 390 394 392
f 394 390 395
f 396 382 393
f 396 393 397
f 396 397 398
f 399 394 395
f 400 396 398
f 400 398 401
f 400 401 402
f 403 400 402
f 402 404 403
f 405 399 395
f 404 406 403
f 407 405 395
f 404 408 406
f 409 407 395
f 408 410 406
f 410 411 406
f 411 412 406
f 412 413 406
f 413 414 406
f 413 415 414
f 415 416 414
f 417 409 395
f 416 418 414
f 418 419 414
f 418 420 419
f 420 421 419
f 421 422 419
f 422 423 419
f 423 424 419
f 424 425 419
f 419 426 414
f 426 427 414
f 426 428 427
f 428 429 427
f 425 430 419
f 430 395 431
f 425 432 430
f 417 395 430
f 432 433 430
f 434 417 430
f 433 434 430
f 435 436 437
f 435 437 438
f 438 437 439
f 440 435 438
f 438 441 440
f 441 442 440
f 438 439 443
f 441 438 443
f 441 444 442
f 441 443 445
f 444 441 446
f 447 441 445
f 441 448 446
f 441 447 448
f 447 449 448
f 449 450 448
f 446 448 451
f 450 452 448
f 452 451 448
f 452 453 451
f 454 455 456
f 454 456 457
f 458 454 457
f 457 456 459
f 460 458 457
f 460 457 461
f 462 460 461
f 457 459 463
f 461 457 463
f 464 462 461
f 461 463 465
f 466 464 461
f 467 461 465
f 468 466 461
f 468 461 467
f 466 468 469
f 470 468 467
f 469 468 471
f 468 470 472
f 468 472 471
f 473 474 475
f 476 474 473
f 477 476 473
f 476 478 474
f 476 477 479
f 478 476 480
f 476 479 481
f 480 476 481
f 482 483 484
f 483 485 484
f 483 486 485
f 487 484 485
f 486 488 485
f 489 487 485
f 488 490 485
f 490 489 485
f 491 492 493
f 494 491 493
f 494 493 495
f 491 494 496
f 497 494 495
f 496 494 498
f 494 497 499
f 494 499 498
f 500 501 502
f 500 502 503
f 503 502 504
f 503 504 505
f 506 500 503
f 507 503 505
f 506 503 507
f 508 506 507
f 509 510 511
f 509 511 512
f 513 509 512
f 514 512 511
f 513 512 514
f 515 514 511
f 516 513 514
f 517 514 515
f 516 514 517
f 518 517 515
f 519 516 517
f 520 517 518
f 520 519 517
f 521 520 518
f 520 521 519
f 521 518 522
f 521 523 519
f 524 521 522
f 521 524 523
f 524 522 525
f 524 526 523
f 527 524 525
f 524 527 526
f 527 525 528
f 527 529 526
f 530 527 528
f 527 530 529
f 530 528 531
f 530 532 529
f 533 530 531
f 530 533 532
f 533 531 534
f 533 535 532
f 535 533 534
f 536 537 538
f 536 539 537
f 539 536 540
f 536 541 540
f 542 536 538
f 536 542 541
f 542 538 543
f 542 544 541
f 545 542 543
f 542 545 544
f 545 543 546
f 545 547 544
f 548 545 546
f 545 548 547
f 548 546 549
f 548 550 547
f 551 548 549
f 548 551 550
f 551 549 552
f 551 553 550
f 554 551 552
f 551 554 553
f 555 556 557
f 555 557 558
f 556 555 559
f 559 555 558
f 560 561 562
f 563 560 562
f 560 564 561
f 560 563 565
f 564 560 566
f 560 565 566
f 567 568 569
f 567 569 570
f 568 567 571
f 571 567 570
f 572 573 574
f 572 574 575
f 573 572 576
f 576 572 575
f 577 578 579
f 577 579 580
f 578 577 581
f 581 577 580
f 582 583 584
f 582 584 585
f 583 582 586
f 586 582 585
f 587 588 589
f 587 589 590
f 588 587 591
f 591 587 590
f 592 593 594
f 592 595 593
f 595 592 596
f 592 597 596
f 598 592 594
f 592 598 597
f 598 594 599
f 598 600 597
f 601 598 599
f 598 601 600
f 601 599 602
f 601 603 600
f 604 601 602
f 601 604 603
f 605 606 607
f 605 607 608
f 606 605 609
f 609 605 608
f 610 611 612
f 610 612 613
f 611 610 614
f 614 610 613
f 615 616 617
f 615 617 618
f 616 615 619
f 619 615 618
f 620 621 622
f 620 623 621
f 623 620 624
f 620 625 624
f 626 620 622
f 620 626 625
f 626 622 627
f 626 628 625
f 629 626 627
f 626 629 628
f 629 627 630
f 629 631 628
f 632 629 630
f 629 632 631
f 632 630 633
f 632 634 631
f 635 632 633
f 632 635 634
f 635 633 636
f 635 637 634
f 638 635 636
f 635 638 637
f 638 636 639
f 638 640 637
f 641 638 639
f 638 641 640
f 641 639 642
f 641 643 640
f 644 641 642
f 641 644 643
f 645 646 647
f 648 645 647
f 645 649 646
f 645 648 650
f 649 645 651
f 645 650 651
f 652 653 654
f 652 654 655
f 653 652 656
f 656 652 655
f 657 658 659
f 657 659 660
f 658 657 661
f 661 657 660
f 662 663 664
f 662 664 665
f 663 662 666
f 666 662 665
f 667 668 669
f 668 667 670
f 668 671 669
f 668 670 672
f 668 673 671
f 673 668 672
f 673 674 671
f 673 672 675
f 673 676 674
f 676 673 675
f 676 677 674
f 676 675 678
f 677 676 679
f 676 678 679
f 680 681 682
f 680 682 683
f 681 680 684
f 684 680 683
f 685 686 687
f 686 685 688
f 686 689 687
f 686 688 690
f 686 691 689
f 691 686 690
f 691 692 689
f 691 690 693
f 691 694 692
f 694 691 693
f 694 695 692
f 694 693 696
f 694 697 695
f 697 694 696
f 697 698 695
f 697 696 699
f 697 700 698
f 700 697 699
f 700 701 698
f 700 699 702
f 700 703 701
f 703 700 702
f 703 704 701
f 703 702 705
f 703 706 704
f 706 703 705
f 706 707 704
f 706 705 708
f 707 706 709
f 706 708 709
f 710 711 712
f 710 712 713
f 711 710 714
f 714 710 713
f 715 716 717
f 715 717 718
f 716 715 719
f 719 715 718
f 720 721 722
f 721 720 723
f 721 724 722
f 721 723 725
f 721 726 724
f 726 721 725
f 726 727 724
f 726 725 728
f 726 729 727
f 729 726 728
f 729 730 727
f 729 728 731
f 730 729 732
f 729 731 732
f 733 734 735
f 733 735 736
f 734 733 737
f 737 733 736
f 738 739 740
f 739 738 741
f 739 742 740
f 739 741 743
f 739 744 742
f 744 739 743
f 744 745 742
f 744 743 746
f 744 747 745
f 747 744 746
f 747 748 745
f 747 746 749
f 747 750 748
f 750 747 749
f 750 751 748
f 750 749 752
f 750 753 751
f 753 750 752
f 753 754 751
f 753 752 755
f 753 756 754
f 756 753 755
f 756 757 754
f 756 755 758
f 756 759 757
f 759 756 758
f 759 760 757
f 759 758 761
f 760 759 762
f 759 761 762
f 763 764 765
f 763 765 766
f 764 763 767
f 767 763 766
f 768 769 770
f 768 770 771
f 769 768 772
f 772 768 771
f 773 774 775
f 774 776 775
f 776 777 775
f 773 775 778
f 777 778 775
f 779 773 778
f 777 780 778
f 779 778 781
f 780 781 778
f 782 779 781
f 780 783 781
f 782 781 784
f 783 784 781
f 785 782 784
f 783 786 784
f 785 784 787
f 786 787 784
f 788 785 787
f 786 789 787
f 788 787 790
f 789 790 787
f 791 788 790
f 789 792 790
f 793 791 790
f 793 790 792
f 791 793 794
f 795 793 792
f 794 793 796
f 793 795 797
f 793 797 796
f 798 799 800
f 798 800 801
f 799 798 802
f 802 798 801
f 803 804 805
f 803 805 806
f 804 803 807
f 807 803 806
f 808 809 810
f 808 810 811
f 809 808 812
f 812 808 811
f 813 814 815
f 813 815 816
f 814 813 817
f 817 813 816
f 818 819 820
f 818 820 821
f 819 818 822
f 822 818 821
f 823 824 825
f 823 825 826
f 824 823 827
f 827 823 826
f 828 829 830
f 828 830 831
f 829 828 832
f 832 828 831
f 833 834 835
f 833 835 836
f 834 833 837
f 837 833 836
f 838 839 840
f 838 840 841
f 839 838 842
f 842 838 841
f 843 844 845
f 843 845 846
f 844 843 847
f 847 843 846
f 848 849 850
f 848 850 851
f 849 848 852
f 852 848 851
f 853 854 855
f 854 853 856
f 854 856 855
f 857 858 859
f 858 857 860
f 858 860 859
f 861 862 863
f 864 861 863
f 861 865 862
f 865 861 864
f 866 867 868
f 869 866 868
f 866 870 867
f 870 866 869
f 871 872 873
f 871 873 874
f 872 871 875
f 875 871 874
f 876 877 878
f 879 876 878
f 877 880 878
f 879 878 881
f 880 881 878
f 882 879 881
f 880 883 881
f 882 881 884
f 883 884 881
f 885 882 884
f 883 886 884
f 885 884 887
f 886 887 884
f 888 885 887
f 886 889 887
f 888 887 890
f 889 890 887
f 891 888 890
f 889 892 890
f 891 890 893
f 892 893 890
f 894 891 893
f 892 895 893
f 896 894 893
f 896 893 895
f 894 896 897
f 898 896 895
f 897 896 899
f 896 898 900
f 896 900 899
f 901 902 903
f 904 901 903
f 901 905 902
f 905 901 904
f 906 907 908
f 909 906 908
f 906 910 907
f 910 906 909
