# ROS coordinates: X forward, Y left, Z up; units are metres.
o mesh
v 0.00680610957 -0.0305037089 0.12965
v 0.00680610957 -0.0305037089 0.1305
v 0.00678774575 -0.03030355 0.1305
v 0.006781926 -0.03027432 0.130075008
v 0.00678774575 -0.03030355 0.12965
v 0.006728877 -0.0300988052 0.1305
v 0.006728877 -0.0300988052 0.12965
v 0.00670412136 -0.0300411377 0.130075008
v 0.006626805 -0.02990178 0.1305
v 0.006626805 -0.02990178 0.12965
v 0.00657023 -0.0298230518 0.130075008
v 0.006483927 -0.0297258925 0.1305
v 0.006483927 -0.0297258925 0.12965
v 0.00638676854 -0.02963959 0.130075008
v 0.00630804 -0.0295830145 0.1305
v 0.00630804 -0.0295830145 0.12965
v 0.00616868166 -0.029505698 0.130075008
v 0.00611101324 -0.0294809416 0.1305
v 0.00611101324 -0.0294809416 0.12965
v 0.005935498 -0.0294278935 0.130075008
v 0.00590626942 -0.0294220746 0.1305
v 0.00570610957 -0.0294037089 0.130075008
v 0.00590626942 -0.0294220746 0.12965
v 0.00570610957 -0.0294037089 0.1305
v 0.00570610957 -0.0294037089 0.12965
v 0.00550594972 -0.0294220746 0.1305
v 0.00550594972 -0.0294220746 0.12965
v 0.005476721 -0.0294278935 0.130075008
v 0.005301206 -0.0294809416 0.1305
v 0.005301206 -0.0294809416 0.12965
v 0.005301206 -0.0294809416 0.130075008
v 0.00513134 -0.0295658186 0.130075008
v 0.005104179 -0.0295830145 0.1305
v 0.005104179 -0.0295830145 0.12965
v 0.004975638 -0.0296812672 0.130075008
v 0.00492829224 -0.0297258925 0.1305
v 0.00492829224 -0.0297258925 0.12965
v 0.00484198937 -0.0298230518 0.130075008
v 0.00478541432 -0.02990178 0.1305
v 0.00478541432 -0.02990178 0.12965
v 0.0047364044 -0.029984409 0.130075008
v 0.0046833423 -0.0300988071 0.1305
v 0.0046833423 -0.0300988071 0.12965
v 0.00466214633 -0.0301570967 0.130075008
v 0.0046244734 -0.03030355 0.1305
v 0.0046244734 -0.03030355 0.12965
v 0.004619486 -0.03033268 0.130075008
v 0.00460610958 -0.03050371 0.1305
v 0.00460610958 -0.03050371 0.12965
v 0.0046244734 -0.0307038687 0.1305
v 0.004630293 -0.0307331 0.130075008
v 0.0046244734 -0.0307038687 0.12965
v 0.0046833423 -0.0309086144 0.1305
v 0.0046833423 -0.0309086144 0.12965
v 0.004708098 -0.0309662819 0.130075008
v 0.00478541432 -0.0311056413 0.1305
v 0.00478541432 -0.0311056413 0.12965
v 0.00484198937 -0.0311843678 0.130075008
v 0.00492829224 -0.0312815271 0.1305
v 0.00492829224 -0.0312815271 0.12965
v 0.00502545061 -0.03136783 0.130075008
v 0.005104179 -0.0314244069 0.1305
v 0.005104179 -0.0314244069 0.12965
v 0.00524353748 -0.03150172 0.130075008
v 0.005301206 -0.0315264761 0.1305
v 0.005301206 -0.0315264761 0.12965
v 0.005476721 -0.031579528 0.130075008
v 0.00550595066 -0.0315853469 0.1305
v 0.00570610957 -0.03160371 0.130075008
v 0.00550595066 -0.0315853469 0.12965
v 0.00570610957 -0.03160371 0.1305
v 0.00570610957 -0.03160371 0.12965
v 0.00590626942 -0.0315853469 0.1305
v 0.00590626942 -0.0315853469 0.12965
v 0.005935498 -0.031579528 0.130075008
v 0.006111014 -0.0315264761 0.1305
v 0.006111014 -0.0315264761 0.12965
v 0.006111014 -0.0315264761 0.130075008
v 0.006280879 -0.0314416029 0.130075008
v 0.00630804 -0.0314244032 0.1305
v 0.00630804 -0.0314244032 0.12965
v 0.00643658126 -0.0313261524 0.130075008
v 0.006483928 -0.0312815271 0.1305
v 0.006483928 -0.0312815271 0.12965
v 0.00657023 -0.0311843678 0.130075008
v 0.006626805 -0.0311056413 0.1305
v 0.006626805 -0.0311056413 0.12965
v 0.006675814 -0.03102301 0.130075008
v 0.006728877 -0.0309086144 0.1305
v 0.006728877 -0.0309086144 0.12965
v 0.006750073 -0.0308503248 0.130075008
v 0.00678774575 -0.0307038687 0.1305
v 0.00678774575 -0.0307038687 0.12965
v 0.006792732 -0.0306747388 0.130075008
v 0.00680610957 -0.0305037089 0.1305
v 0.00680610957 -0.0305037089 0.12965
v 0.00770611 -0.0305037089 0.1305
v 0.00770611 -0.0305037089 0.1342
v 0.00767272 -0.0301397834 0.1342
v 0.00766213937 -0.03008664 0.13235
v 0.00767272 -0.0301397834 0.1305
v 0.007565686 -0.02976752 0.1342
v 0.007565686 -0.02976752 0.1305
v 0.007520676 -0.0296626687 0.13235
v 0.00738010043 -0.02940929 0.1342
v 0.00738010043 -0.02940929 0.1305
v 0.00727723772 -0.0292661488 0.13235
v 0.007120323 -0.0290894955 0.1342
v 0.007120323 -0.0290894955 0.1305
v 0.00694367057 -0.0289325826 0.13235
v 0.006800529 -0.028829718 0.1342
v 0.006800529 -0.028829718 0.1305
v 0.00654714974 -0.0286891423 0.13235
v 0.00644229865 -0.0286441334 0.1342
v 0.00644229865 -0.0286441334 0.1305
v 0.00612318 -0.02854768 0.13235
v 0.006070035 -0.0285370983 0.1342
v 0.00570610957 -0.0285037085 0.13235
v 0.006070035 -0.0285370983 0.1305
v 0.00570610957 -0.0285037085 0.1342
v 0.00570610957 -0.0285037085 0.1305
v 0.005342183 -0.0285370983 0.1342
v 0.005342183 -0.0285370983 0.1305
v 0.005289039 -0.02854768 0.13235
v 0.00496991957 -0.0286441334 0.1342
v 0.00496991957 -0.0286441334 0.1305
v 0.00496991957 -0.0286441334 0.13235
v 0.00466107531 -0.0287984535 0.13235
v 0.00461169 -0.02882972 0.1342
v 0.00461169 -0.02882972 0.1305
v 0.00437798025 -0.0290083587 0.13235
v 0.00429189624 -0.0290894955 0.1342
v 0.00429189624 -0.0290894955 0.1305
v 0.00413498143 -0.0292661488 0.13235
v 0.00403211871 -0.0294092912 0.1342
v 0.00403211871 -0.0294092912 0.1305
v 0.00394301 -0.0295595266 0.13235
v 0.0038465322 -0.02976752 0.1342
v 0.0038465322 -0.02976752 0.1305
v 0.003807994 -0.0298735034 0.13235
v 0.003739499 -0.0301397853 0.1342
v 0.003739499 -0.0301397853 0.1305
v 0.00373043166 -0.0301927477 0.13235
v 0.00370610924 -0.03050371 0.1342
v 0.00370610924 -0.03050371 0.1305
v 0.003739499 -0.0308676362 0.1342
v 0.00375007885 -0.0309207812 0.13235
v 0.003739499 -0.0308676362 0.1305
v 0.0038465322 -0.0312399 0.1342
v 0.0038465322 -0.0312399 0.1305
v 0.003891543 -0.03134475 0.13235
v 0.00403211871 -0.03159813 0.1342
v 0.00403211871 -0.03159813 0.1305
v 0.00413498143 -0.0317412727 0.13235
v 0.00429189624 -0.0319179222 0.1342
v 0.00429189624 -0.0319179222 0.1305
v 0.00446854858 -0.03207484 0.13235
v 0.00461169 -0.0321777 0.1342
v 0.00461169 -0.0321777 0.1305
v 0.00486506941 -0.0323182754 0.13235
v 0.00496991957 -0.0323632881 0.1342
v 0.00496991957 -0.0323632881 0.1305
v 0.005289039 -0.03245974 0.13235
v 0.005342184 -0.03247032 0.1342
v 0.00570610957 -0.03250371 0.13235
v 0.005342184 -0.03247032 0.1305
v 0.00570610957 -0.03250371 0.1342
v 0.00570610957 -0.03250371 0.1305
v 0.006070036 -0.03247032 0.1342
v 0.006070036 -0.03247032 0.1305
v 0.00612318 -0.03245974 0.13235
v 0.00644229958 -0.0323632881 0.1342
v 0.00644229958 -0.0323632881 0.1305
v 0.00644229958 -0.0323632881 0.13235
v 0.006751145 -0.032208968 0.13235
v 0.00680053 -0.0321777 0.1342
v 0.00680053 -0.0321777 0.1305
v 0.007034239 -0.03199906 0.13235
v 0.007120324 -0.0319179222 0.1342
v 0.007120324 -0.0319179222 0.1305
v 0.00727723772 -0.03174127 0.13235
v 0.00738010043 -0.03159813 0.1342
v 0.00738010043 -0.03159813 0.1305
v 0.00746920938 -0.0314478949 0.13235
v 0.007565687 -0.0312398989 0.1342
v 0.007565687 -0.0312398989 0.1305
v 0.007604224 -0.0311339162 0.13235
v 0.007672721 -0.0308676362 0.1342
v 0.007672721 -0.0308676362 0.1305
v 0.00768178748 -0.0308146719 0.13235
v 0.00770611 -0.0305037089 0.1342
v 0.00770611 -0.0305037089 0.1305
v 0.00370610924 -0.0340037122 0.12965
v 0.00370610924 -0.03425371 0.129900008
v 0.00370610924 -0.03425371 0.12465
v 0.00370610924 -0.03112871 0.127275
v 0.00370610924 -0.02800371 0.12465
v 0.00370610924 -0.02800371 0.12965
v 0.00770611 -0.03425371 0.129900008
v 0.00770611 -0.0340037122 0.12965
v 0.00770611 -0.03425371 0.12465
v 0.00770611 -0.03112871 0.127275
v 0.00770611 -0.02800371 0.12965
v 0.00770611 -0.02800371 0.12465
v 0.00795611 -0.03450371 0.12465
v 0.00770611 -0.03425371 0.12465
v 0.00605611 -0.03450371 0.12465
v 0.00605611 -0.02995371 0.12465
v 0.00770611 -0.02800371 0.12465
v 0.00535610924 -0.02995371 0.12465
v 0.00370610924 -0.02800371 0.12465
v 0.00370610924 -0.03425371 0.12465
v 0.00535611 -0.03450371 0.12465
v 0.00345610967 -0.03450371 0.12465
v 0.0132061094 -0.02655261 0.130864173
v 0.0132061113 -0.0265087169 0.13075459
v 0.0132061094 -0.0265247729 0.130810425
v 0.0132061094 -0.0265915766 0.13091214
v 0.0132061113 -0.0266395453 0.1309511
v 0.0132061094 -0.02669328 0.130978942
v 0.0132061113 -0.02674912 0.13099499
v 0.0132061094 -0.02680371 0.131
v 0.0132061113 -0.0272368621 0.1305
v 0.0132061113 -0.02790371 0.131
v 0.0132061113 -0.0265037082 0.124
v 0.0132061113 -0.0265037082 0.1307
v 0.0132061113 -0.0272368621 0.124
v 0.0132061113 -0.0277705565 0.1305
v 0.0132061113 -0.0305037089 0.1291
v 0.0132061113 -0.0277705565 0.124
v 0.0132061113 -0.03450371 0.124
v 0.0132061113 -0.03450371 0.1305
v 0.0132061113 -0.0329598673 0.134139061
v 0.0132061113 -0.03286781 0.1342
v 0.0132061113 -0.02800371 0.1342
v 0.0132061113 -0.0328818336 0.134199023
v 0.0132061113 -0.02790371 0.1341
v 0.0132061113 -0.0328960232 0.134195939
v 0.0132061113 -0.0279855132 0.134198338
v 0.0132061113 -0.03290991 0.134190708
v 0.0132061113 -0.0279669 0.134192973
v 0.0132061113 -0.0279489867 0.1341837
v 0.0132061113 -0.0279329978 0.134170711
v 0.0132061113 -0.0279053785 0.1341182
v 0.0132061094 -0.02792001 0.134154722
v 0.0132061113 -0.02791073 0.134136811
v 0.0132061113 -0.032923013 0.134183377
v 0.0132061113 -0.03293487 0.134174183
v 0.0132061113 -0.03294511 0.134163439
v 0.0132061113 -0.0329534821 0.134151578
v 0.0103561115 -0.03450371 0.124
v 0.0103561115 -0.03450371 0.12465
v 0.008456111 -0.03450371 0.12465
v 0.00795611 -0.03450371 0.12465
v 0.00605611 -0.03450371 0.124
v 0.00605611 -0.03450371 0.12465
v 0.00820611 -0.03450371 0.12725
v 0.008456111 -0.03450371 0.13015
v 0.00795611 -0.03450371 0.13015
v 0.0132061113 -0.03450371 0.1305
v 0.0129561108 -0.03450371 0.13015
v 0.0129561108 -0.03450371 0.12465
v 0.0132061113 -0.03450371 0.124
v 0.01105611 -0.03450371 0.124
v 0.01105611 -0.03450371 0.12465
v 0.00320610916 -0.03450371 0.1305
v 0.00345610967 -0.03450371 0.13015
v 0.00345610967 -0.03450371 0.12465
v 0.00320610916 -0.03450371 0.124
v 0.00535611 -0.03450371 0.124
v 0.00535611 -0.03450371 0.12465
v 0.01105611 -0.03450371 0.124
v 0.01105611 -0.0299537089 0.124
v 0.0132061113 -0.03450371 0.124
v 0.0132061113 -0.0277705565 0.124
v 0.01035611 -0.0299537089 0.124
v 0.0132061113 -0.0272368621 0.124
v 0.01370611 -0.02800371 0.124
v 0.01370611 -0.02700371 0.124
v 0.0132061113 -0.0265037082 0.124
v 0.00370457815 -0.0270044245 0.124
v 0.00320610823 -0.02650371 0.124
v 0.00320610823 -0.027236864 0.124
v 0.008456109 -0.0305037089 0.124
v 0.0103561115 -0.03450371 0.124
v 0.00605611 -0.03450371 0.124
v 0.00605611 -0.02995371 0.124
v 0.00370457815 -0.0280044228 0.124
v 0.00535610924 -0.02995371 0.124
v 0.00320610916 -0.0277719833 0.124
v 0.00320610916 -0.03450371 0.124
v 0.00535611 -0.03450371 0.124
v 0.0129561108 -0.03450371 0.12465
v 0.01270611 -0.03425371 0.12465
v 0.01105611 -0.03450371 0.12465
v 0.01105611 -0.0299537089 0.12465
v 0.01270611 -0.02800371 0.12465
v 0.01035611 -0.0299537089 0.12465
v 0.00870611 -0.02800371 0.12465
v 0.00870611 -0.03425371 0.12465
v 0.0103561115 -0.03450371 0.12465
v 0.008456111 -0.03450371 0.12465
v 0.00320610823 -0.027236864 0.124
v 0.00320610823 -0.027236864 0.1305
v 0.00320610823 -0.02650371 0.124
v 0.00320610823 -0.02650371 0.1307
v 0.00320610823 -0.02680371 0.131
v 0.00320610916 -0.02790371 0.131
v 0.00320610823 -0.026749121 0.13099499
v 0.00320610823 -0.02669328 0.130978942
v 0.00320610823 -0.0266395472 0.1309511
v 0.00320610823 -0.0265915766 0.13091214
v 0.00320610823 -0.02655261 0.130864173
v 0.00320610823 -0.0265247729 0.130810425
v 0.00320610823 -0.0265087187 0.13075459
v 0.00320610916 -0.0277719833 0.1305
v 0.00320610916 -0.03050371 0.1291
v 0.00320610916 -0.0277719833 0.124
v 0.00320610916 -0.03450371 0.124
v 0.00320610916 -0.03450371 0.1305
v 0.00320611 -0.03295987 0.134139061
v 0.00320610916 -0.03286781 0.1342
v 0.00320610916 -0.02800371 0.1342
v 0.00320610916 -0.02790371 0.1341
v 0.00320610916 -0.0328818336 0.134199023
v 0.00320610916 -0.0279855132 0.134198338
v 0.00320610916 -0.0328960232 0.134195939
v 0.00320610916 -0.0279669017 0.134192973
v 0.00320610916 -0.03290991 0.134190708
v 0.00320610916 -0.0279489886 0.1341837
v 0.00320610916 -0.032923013 0.134183377
v 0.00320610916 -0.03293487 0.134174183
v 0.00320610916 -0.03294511 0.134163439
v 0.00320610916 -0.0329534821 0.134151578
v 0.00320610916 -0.027933 0.134170711
v 0.00320610916 -0.0279200114 0.134154722
v 0.00320610916 -0.0279107317 0.134136811
v 0.00320610916 -0.0279053785 0.1341182
v 0.00870611 -0.0340037122 0.12965
v 0.00870611 -0.03425371 0.129900008
v 0.00870611 -0.03425371 0.12465
v 0.00870611 -0.03112871 0.127275
v 0.00870611 -0.02800371 0.12465
v 0.00870611 -0.02800371 0.12965
v 0.01270611 -0.03425371 0.129900008
v 0.01270611 -0.03400371 0.12965
v 0.01270611 -0.03425371 0.12465
v 0.01270611 -0.0311287083 0.127275
v 0.01270611 -0.02800371 0.12965
v 0.01270611 -0.02800371 0.12465
v 0.01270611 -0.0305037089 0.1305
v 0.01270611 -0.0305037089 0.1342
v 0.0126727205 -0.0301397834 0.1342
v 0.0126621407 -0.0300866384 0.13235
v 0.0126727205 -0.0301397834 0.1305
v 0.0125656873 -0.02976752 0.1342
v 0.0125656873 -0.02976752 0.1305
v 0.0125206765 -0.0296626687 0.13235
v 0.0123801008 -0.02940929 0.1342
v 0.0123801008 -0.02940929 0.1305
v 0.0122772381 -0.0292661488 0.13235
v 0.0121203233 -0.0290894955 0.1342
v 0.0121203233 -0.0290894955 0.1305
v 0.01194367 -0.02893258 0.13235
v 0.0118005294 -0.028829718 0.1342
v 0.0118005294 -0.028829718 0.1305
v 0.01154715 -0.0286891423 0.13235
v 0.0114423 -0.0286441334 0.1342
v 0.0114423 -0.0286441334 0.1305
v 0.01112318 -0.02854768 0.13235
v 0.0110700354 -0.0285370983 0.1342
v 0.01070611 -0.0285037085 0.13235
v 0.0110700354 -0.0285370983 0.1305
v 0.01070611 -0.0285037085 0.1342
v 0.01070611 -0.0285037085 0.1305
v 0.0103421845 -0.0285370983 0.1342
v 0.0103421845 -0.0285370983 0.1305
v 0.0102890395 -0.02854768 0.13235
v 0.00996992 -0.0286441334 0.1342
v 0.00996992 -0.0286441334 0.1305
v 0.00996992 -0.0286441334 0.13235
v 0.009661075 -0.0287984516 0.13235
v 0.00961169 -0.028829718 0.1342
v 0.00961169 -0.028829718 0.1305
v 0.009377981 -0.0290083587 0.13235
v 0.009291897 -0.0290894955 0.1342
v 0.009291897 -0.0290894955 0.1305
v 0.009134982 -0.0292661488 0.13235
v 0.009032119 -0.02940929 0.1342
v 0.009032119 -0.02940929 0.1305
v 0.00894301 -0.0295595266 0.13235
v 0.008846533 -0.02976752 0.1342
v 0.008846533 -0.02976752 0.1305
v 0.008807996 -0.0298735015 0.13235
v 0.008739499 -0.0301397834 0.1342
v 0.008739499 -0.0301397834 0.1305
v 0.008730432 -0.0301927477 0.13235
v 0.00870611 -0.0305037089 0.1342
v 0.00870611 -0.0305037089 0.1305
v 0.008739499 -0.0308676362 0.1342
v 0.008750081 -0.0309207812 0.13235
v 0.008739499 -0.0308676362 0.1305
v 0.008846534 -0.0312398989 0.1342
v 0.008846534 -0.0312398989 0.1305
v 0.008891543 -0.03134475 0.13235
v 0.009032119 -0.03159813 0.1342
v 0.009032119 -0.03159813 0.1305
v 0.009134982 -0.03174127 0.13235
v 0.009291897 -0.0319179222 0.1342
v 0.009291897 -0.0319179222 0.1305
v 0.00946855 -0.03207484 0.13235
v 0.00961169 -0.0321777 0.1342
v 0.00961169 -0.0321777 0.1305
v 0.00986507 -0.0323182754 0.13235
v 0.009969922 -0.0323632881 0.1342
v 0.009969922 -0.0323632881 0.1305
v 0.0102890395 -0.03245974 0.13235
v 0.0103421845 -0.03247032 0.1342
v 0.01070611 -0.03250371 0.13235
v 0.0103421845 -0.03247032 0.1305
v 0.01070611 -0.03250371 0.1342
v 0.01070611 -0.03250371 0.1305
v 0.0110700354 -0.03247032 0.1342
v 0.0110700354 -0.03247032 0.1305
v 0.01112318 -0.03245974 0.13235
v 0.0114423 -0.0323632881 0.1342
v 0.0114423 -0.0323632881 0.1305
v 0.0114423 -0.0323632881 0.13235
v 0.0117511451 -0.032208968 0.13235
v 0.0118005294 -0.0321777 0.1342
v 0.0118005294 -0.0321777 0.1305
v 0.0120342392 -0.03199906 0.13235
v 0.0121203233 -0.0319179222 0.1342
v 0.0121203233 -0.0319179222 0.1305
v 0.0122772381 -0.03174127 0.13235
v 0.0123801008 -0.03159813 0.1342
v 0.0123801008 -0.03159813 0.1305
v 0.01246921 -0.03144789 0.13235
v 0.0125656873 -0.0312398989 0.1342
v 0.0125656873 -0.0312398989 0.1305
v 0.0126042254 -0.0311339162 0.13235
v 0.0126727205 -0.0308676362 0.1342
v 0.0126727205 -0.0308676362 0.1305
v 0.0126817878 -0.03081467 0.13235
v 0.01270611 -0.0305037089 0.1342
v 0.01270611 -0.0305037089 0.1305
v 0.01180611 -0.0305037089 0.12965
v 0.01180611 -0.0305037089 0.1305
v 0.0117877461 -0.030303549 0.1305
v 0.0117819272 -0.03027432 0.130075008
v 0.0117877461 -0.030303549 0.12965
v 0.0117288772 -0.0300988052 0.1305
v 0.0117288772 -0.0300988052 0.12965
v 0.0117041226 -0.0300411377 0.130075008
v 0.0116268042 -0.0299017783 0.1305
v 0.0116268042 -0.0299017783 0.12965
v 0.01157023 -0.02982305 0.130075008
v 0.0114839282 -0.02972589 0.1305
v 0.0114839282 -0.02972589 0.12965
v 0.0113867689 -0.0296395887 0.130075008
v 0.0113080405 -0.0295830145 0.1305
v 0.0113080405 -0.0295830145 0.12965
v 0.0111686829 -0.029505698 0.130075008
v 0.0111110136 -0.0294809416 0.1305
v 0.0111110136 -0.0294809416 0.12965
v 0.0109354984 -0.0294278935 0.130075008
v 0.01090627 -0.0294220746 0.1305
v 0.01070611 -0.0294037089 0.130075008
v 0.01090627 -0.0294220746 0.12965
v 0.01070611 -0.0294037089 0.1305
v 0.01070611 -0.0294037089 0.12965
v 0.01050595 -0.0294220746 0.1305
v 0.01050595 -0.0294220746 0.12965
v 0.0104767215 -0.0294278935 0.130075008
v 0.0103012063 -0.0294809416 0.1305
v 0.0103012063 -0.0294809416 0.12965
v 0.0103012063 -0.0294809416 0.130075008
v 0.0101313405 -0.0295658186 0.130075008
v 0.0101041794 -0.0295830145 0.1305
v 0.0101041794 -0.0295830145 0.12965
v 0.009975638 -0.0296812672 0.130075008
v 0.009928292 -0.0297258925 0.1305
v 0.009928292 -0.0297258925 0.12965
v 0.00984199 -0.02982305 0.130075008
v 0.009785416 -0.0299017783 0.1305
v 0.009785416 -0.0299017783 0.12965
v 0.009736406 -0.029984409 0.130075008
v 0.009683343 -0.0300988052 0.1305
v 0.009683343 -0.0300988052 0.12965
v 0.009662148 -0.0301570967 0.130075008
v 0.009624474 -0.03030355 0.1305
v 0.009624474 -0.03030355 0.12965
v 0.009619487 -0.03033268 0.130075008
v 0.00960611 -0.0305037089 0.1305
v 0.00960611 -0.0305037089 0.12965
v 0.009624474 -0.0307038687 0.1305
v 0.00963029452 -0.0307330973 0.130075008
v 0.009624474 -0.0307038687 0.12965
v 0.009683343 -0.0309086144 0.1305
v 0.009683343 -0.0309086144 0.12965
v 0.009708099 -0.0309662819 0.130075008
v 0.009785416 -0.0311056413 0.1305
v 0.009785416 -0.0311056413 0.12965
v 0.00984199 -0.0311843678 0.130075008
v 0.00992829353 -0.0312815271 0.1305
v 0.00992829353 -0.0312815271 0.12965
v 0.010025451 -0.03136783 0.130075008
v 0.0101041794 -0.0314244032 0.1305
v 0.0101041794 -0.0314244032 0.12965
v 0.0102435388 -0.03150172 0.130075008
v 0.0103012063 -0.0315264761 0.1305
v 0.0103012063 -0.0315264761 0.12965
v 0.0104767215 -0.0315795243 0.130075008
v 0.01050595 -0.0315853469 0.1305
v 0.01070611 -0.03160371 0.130075008
v 0.01050595 -0.0315853469 0.12965
v 0.01070611 -0.03160371 0.1305
v 0.01070611 -0.03160371 0.12965
v 0.01090627 -0.0315853469 0.1305
v 0.01090627 -0.0315853469 0.12965
v 0.0109354984 -0.0315795243 0.130075008
v 0.0111110136 -0.0315264761 0.1305
v 0.0111110136 -0.0315264761 0.12965
v 0.0111110136 -0.0315264761 0.130075008
v 0.0112808794 -0.0314416 0.130075008
v 0.0113080405 -0.0314244032 0.1305
v 0.0113080405 -0.0314244032 0.12965
v 0.0114365816 -0.0313261524 0.130075008
v 0.0114839282 -0.0312815271 0.1305
v 0.0114839282 -0.0312815271 0.12965
v 0.01157023 -0.0311843678 0.130075008
v 0.0116268042 -0.0311056413 0.1305
v 0.0116268042 -0.0311056413 0.12965
v 0.0116758142 -0.03102301 0.130075008
v 0.0117288772 -0.0309086144 0.1305
v 0.0117288772 -0.0309086144 0.12965
v 0.0117500741 -0.0308503229 0.130075008
v 0.0117877461 -0.0307038687 0.1305
v 0.0117877461 -0.0307038687 0.12965
v 0.0117927324 -0.0306747388 0.130075008
v 0.01180611 -0.0305037089 0.1305
v 0.01180611 -0.0305037089 0.12965
v 0.0128311105 -0.03437871 0.1274
v 0.0129561108 -0.03450371 0.12465
v 0.0129561108 -0.03450371 0.13015
v 0.01270611 -0.03425371 0.129900008
v 0.01270611 -0.03425371 0.12465
v 0.008581111 -0.03437871 0.1274
v 0.008456111 -0.03450371 0.13015
v 0.008456111 -0.03450371 0.12465
v 0.00870611 -0.03425371 0.12465
v 0.00870611 -0.03425371 0.129900008
v 0.01070611 -0.03425371 0.129900008
v 0.01270611 -0.03425371 0.129900008
v 0.0129561108 -0.03450371 0.13015
v 0.008456111 -0.03450371 0.13015
v 0.01270611 -0.03400371 0.12965
v 0.00870611 -0.03425371 0.129900008
v 0.00870611 -0.0340037122 0.12965
v 0.008206109 -0.0265087187 0.13075459
v 0.00320610823 -0.0265087187 0.13075459
v 0.00320610823 -0.0265247729 0.130810425
v 0.00320610823 -0.02650371 0.1307
v 0.0132061113 -0.0265037082 0.1307
v 0.0132061113 -0.0265087169 0.13075459
v 0.008206109 -0.0265247729 0.130810425
v 0.00320610823 -0.02655261 0.130864173
v 0.0132061094 -0.0265247729 0.130810425
v 0.008206109 -0.02655261 0.130864173
v 0.00320610823 -0.0265915766 0.13091214
v 0.0132061094 -0.02655261 0.130864173
v 0.008206109 -0.0265915766 0.13091214
v 0.00320610823 -0.0266395472 0.1309511
v 0.0132061094 -0.0265915766 0.13091214
v 0.008206109 -0.0266395472 0.1309511
v 0.00320610823 -0.02669328 0.130978942
v 0.0132061113 -0.0266395453 0.1309511
v 0.008206109 -0.02669328 0.130978942
v 0.00320610823 -0.026749121 0.13099499
v 0.0132061094 -0.02669328 0.130978942
v 0.008206109 -0.02674912 0.13099499
v 0.00320610823 -0.02680371 0.131
v 0.0132061113 -0.02674912 0.13099499
v 0.0132061094 -0.02680371 0.131
v 0.00820611 -0.0328818336 0.134199023
v 0.00320610916 -0.0328818336 0.134199023
v 0.00320610916 -0.0328960232 0.134195939
v 0.00320610916 -0.03286781 0.1342
v 0.0132061113 -0.03286781 0.1342
v 0.0132061113 -0.0328818336 0.134199023
v 0.00820611 -0.0328960232 0.134195939
v 0.00320610916 -0.03290991 0.134190708
v 0.0132061113 -0.0328960232 0.134195939
v 0.00820611 -0.03290991 0.134190708
v 0.00320610916 -0.032923013 0.134183377
v 0.0132061113 -0.03290991 0.134190708
v 0.00820611 -0.032923013 0.134183377
v 0.00320610916 -0.03293487 0.134174183
v 0.0132061113 -0.032923013 0.134183377
v 0.00820611 -0.03293487 0.134174183
v 0.00320610916 -0.03294511 0.134163439
v 0.0132061113 -0.03293487 0.134174183
v 0.00820611 -0.03294511 0.134163439
v 0.00320610916 -0.0329534821 0.134151578
v 0.0132061113 -0.03294511 0.134163439
v 0.00820611 -0.0329534821 0.134151578
v 0.00320611 -0.03295987 0.134139061
v 0.0132061113 -0.0329534821 0.134151578
v 0.0132061113 -0.0329598673 0.134139061
v 0.00820611 -0.0279053785 0.1341182
v 0.00320610916 -0.0279053785 0.1341182
v 0.00320610916 -0.0279107317 0.134136811
v 0.00320610916 -0.02790371 0.1341
v 0.0132061113 -0.02790371 0.1341
v 0.0132061113 -0.0279053785 0.1341182
v 0.00820611 -0.0279107317 0.134136811
v 0.00320610916 -0.0279200114 0.134154722
v 0.0132061113 -0.02791073 0.134136811
v 0.00820611 -0.02792001 0.134154722
v 0.00320610916 -0.027933 0.134170711
v 0.0132061094 -0.02792001 0.134154722
v 0.00820611 -0.0279329978 0.134170711
v 0.00320610916 -0.0279489886 0.1341837
v 0.0132061113 -0.0279329978 0.134170711
v 0.00820611 -0.0279489886 0.1341837
v 0.00320610916 -0.0279669017 0.134192973
v 0.0132061113 -0.0279489867 0.1341837
v 0.00820611 -0.0279669 0.134192973
v 0.00320610916 -0.0279855132 0.134198338
v 0.0132061113 -0.0279669 0.134192973
v 0.00820611 -0.0279855132 0.134198338
v 0.00320610916 -0.02800371 0.1342
v 0.0132061113 -0.0279855132 0.134198338
v 0.0132061113 -0.02800371 0.1342
v 0.00345534319 -0.0275044236 0.1305
v 0.00370457815 -0.0270044245 0.1305
v 0.00370457815 -0.0280044228 0.1305
v 0.00320610916 -0.0277719833 0.1305
v 0.00320610823 -0.027236864 0.1305
v 0.00345534319 -0.0271206424 0.12725
v 0.00320610823 -0.027236864 0.1305
v 0.00320610823 -0.027236864 0.124
v 0.00370457815 -0.0270044245 0.124
v 0.00370457815 -0.0270044245 0.1305
v 0.00370457815 -0.0275044236 0.12725
v 0.00370457815 -0.0270044245 0.124
v 0.00370457815 -0.0280044228 0.124
v 0.00370457815 -0.0280044228 0.1305
v 0.00370457815 -0.0270044245 0.1305
v 0.00345534412 -0.027888203 0.12725
v 0.00370457815 -0.0280044228 0.124
v 0.00320610916 -0.0277719833 0.124
v 0.00320610916 -0.0277719833 0.1305
v 0.00370457815 -0.0280044228 0.1305
v 0.013456108 -0.0275037084 0.1305
v 0.0132061113 -0.0277705565 0.1305
v 0.01370611 -0.02800371 0.1305
v 0.01370611 -0.02700371 0.1305
v 0.0132061113 -0.0272368621 0.1305
v 0.01345611 -0.0271202847 0.12725
v 0.01370611 -0.02700371 0.1305
v 0.01370611 -0.02700371 0.124
v 0.0132061113 -0.0272368621 0.124
v 0.0132061113 -0.0272368621 0.1305
v 0.01345611 -0.027887132 0.12725
v 0.0132061113 -0.0277705565 0.1305
v 0.0132061113 -0.0277705565 0.124
v 0.01370611 -0.02800371 0.124
v 0.01370611 -0.02800371 0.1305
v 0.0137061086 -0.0275037084 0.12725
v 0.01370611 -0.02800371 0.124
v 0.01370611 -0.02700371 0.124
v 0.01370611 -0.02700371 0.1305
v 0.01370611 -0.02800371 0.1305
v 0.01090627 -0.0315853469 0.1305
v 0.0110700354 -0.03247032 0.1305
v 0.0114423 -0.0323632881 0.1305
v 0.01070611 -0.03250371 0.1305
v 0.0111110136 -0.0315264761 0.1305
v 0.01070611 -0.03160371 0.1305
v 0.0118005294 -0.0321777 0.1305
v 0.0103421845 -0.03247032 0.1305
v 0.0113080405 -0.0314244032 0.1305
v 0.01050595 -0.0315853469 0.1305
v 0.0121203233 -0.0319179222 0.1305
v 0.009969922 -0.0323632881 0.1305
v 0.0114839282 -0.0312815271 0.1305
v 0.0103012063 -0.0315264761 0.1305
v 0.0123801008 -0.03159813 0.1305
v 0.00961169 -0.0321777 0.1305
v 0.0116268042 -0.0311056413 0.1305
v 0.0101041794 -0.0314244032 0.1305
v 0.0125656873 -0.0312398989 0.1305
v 0.009291897 -0.0319179222 0.1305
v 0.0117288772 -0.0309086144 0.1305
v 0.00992829353 -0.0312815271 0.1305
v 0.0126727205 -0.0308676362 0.1305
v 0.009032119 -0.03159813 0.1305
v 0.0117877461 -0.0307038687 0.1305
v 0.009785416 -0.0311056413 0.1305
v 0.008846534 -0.0312398989 0.1305
v 0.009683343 -0.0309086144 0.1305
v 0.01270611 -0.0305037089 0.1305
v 0.01180611 -0.0305037089 0.1305
v 0.0117877461 -0.030303549 0.1305
v 0.0126727205 -0.0301397834 0.1305
v 0.0117288772 -0.0300988052 0.1305
v 0.0125656873 -0.02976752 0.1305
v 0.0116268042 -0.0299017783 0.1305
v 0.0123801008 -0.02940929 0.1305
v 0.0114839282 -0.02972589 0.1305
v 0.0121203233 -0.0290894955 0.1305
v 0.0113080405 -0.0295830145 0.1305
v 0.0118005294 -0.028829718 0.1305
v 0.0111110136 -0.0294809416 0.1305
v 0.0114423 -0.0286441334 0.1305
v 0.01090627 -0.0294220746 0.1305
v 0.0110700354 -0.0285370983 0.1305
v 0.01070611 -0.0294037089 0.1305
v 0.01070611 -0.0285037085 0.1305
v 0.0103421845 -0.0285370983 0.1305
v 0.01050595 -0.0294220746 0.1305
v 0.00996992 -0.0286441334 0.1305
v 0.0103012063 -0.0294809416 0.1305
v 0.00961169 -0.028829718 0.1305
v 0.0101041794 -0.0295830145 0.1305
v 0.009291897 -0.0290894955 0.1305
v 0.009928292 -0.0297258925 0.1305
v 0.009032119 -0.02940929 0.1305
v 0.009785416 -0.0299017783 0.1305
v 0.008846533 -0.02976752 0.1305
v 0.009683343 -0.0300988052 0.1305
v 0.008739499 -0.0301397834 0.1305
v 0.009624474 -0.03030355 0.1305
v 0.00870611 -0.0305037089 0.1305
v 0.00960611 -0.0305037089 0.1305
v 0.008739499 -0.0308676362 0.1305
v 0.009624474 -0.0307038687 0.1305
v 0.01035611 -0.03222871 0.124325
v 0.01035611 -0.0299537089 0.12465
v 0.0103561115 -0.03450371 0.12465
v 0.0103561115 -0.03450371 0.124
v 0.01035611 -0.0299537089 0.124
v 0.01105611 -0.03222871 0.124325
v 0.01105611 -0.0299537089 0.124
v 0.01105611 -0.03450371 0.124
v 0.01105611 -0.03450371 0.12465
v 0.01105611 -0.0299537089 0.12465
v 0.01070611 -0.0299537089 0.124325
v 0.01105611 -0.0299537089 0.124
v 0.01105611 -0.0299537089 0.12465
v 0.01035611 -0.0299537089 0.12465
v 0.01035611 -0.0299537089 0.124
v 0.01070611 -0.02800371 0.12715
v 0.00870611 -0.02800371 0.12965
v 0.00870611 -0.02800371 0.12465
v 0.01270611 -0.02800371 0.12465
v 0.01270611 -0.02800371 0.12965
v 0.00870611 -0.0340037122 0.12965
v 0.009624474 -0.0307038687 0.12965
v 0.009683343 -0.0309086144 0.12965
v 0.009785416 -0.0311056413 0.12965
v 0.00992829353 -0.0312815271 0.12965
v 0.0101041794 -0.0314244032 0.12965
v 0.0103012063 -0.0315264761 0.12965
v 0.01050595 -0.0315853469 0.12965
v 0.00960611 -0.0305037089 0.12965
v 0.01070611 -0.03160371 0.12965
v 0.00870611 -0.02800371 0.12965
v 0.009624474 -0.03030355 0.12965
v 0.009683343 -0.0300988052 0.12965
v 0.01270611 -0.03400371 0.12965
v 0.01090627 -0.0315853469 0.12965
v 0.0111110136 -0.0315264761 0.12965
v 0.009785416 -0.0299017783 0.12965
v 0.0113080405 -0.0314244032 0.12965
v 0.009928292 -0.0297258925 0.12965
v 0.0114839282 -0.0312815271 0.12965
v 0.0101041794 -0.0295830145 0.12965
v 0.0116268042 -0.0311056413 0.12965
v 0.0103012063 -0.0294809416 0.12965
v 0.01050595 -0.0294220746 0.12965
v 0.01070611 -0.0294037089 0.12965
v 0.01270611 -0.02800371 0.12965
v 0.01090627 -0.0294220746 0.12965
v 0.0111110136 -0.0294809416 0.12965
v 0.0117288772 -0.0309086144 0.12965
v 0.0117877461 -0.0307038687 0.12965
v 0.01180611 -0.0305037089 0.12965
v 0.0113080405 -0.0295830145 0.12965
v 0.0117877461 -0.030303549 0.12965
v 0.0114839282 -0.02972589 0.12965
v 0.0117288772 -0.0300988052 0.12965
v 0.0116268042 -0.0299017783 0.12965
v 0.00820611 -0.02790371 0.13255
v 0.00320610916 -0.02790371 0.1341
v 0.0132061113 -0.02790371 0.1341
v 0.0132061113 -0.02790371 0.131
v 0.00320610916 -0.02790371 0.131
v 0.008206109 -0.02735371 0.131
v 0.0132061094 -0.02680371 0.131
v 0.00320610823 -0.02680371 0.131
v 0.00320610916 -0.02790371 0.131
v 0.0132061113 -0.02790371 0.131
v 0.00820611 -0.03373179 0.132319525
v 0.0132061113 -0.0329598673 0.134139061
v 0.00320611 -0.03295987 0.134139061
v 0.00320610916 -0.03450371 0.1305
v 0.0132061113 -0.03450371 0.1305
v 0.008206109 -0.0265037082 0.12735
v 0.00320610823 -0.02650371 0.1307
v 0.0132061113 -0.0265037082 0.1307
v 0.0132061113 -0.0265037082 0.124
v 0.00320610823 -0.02650371 0.124
v 0.0132061113 -0.03286781 0.1342
v 0.0126727205 -0.0308676362 0.1342
v 0.0125656873 -0.0312398989 0.1342
v 0.0123801008 -0.03159813 0.1342
v 0.0121203233 -0.0319179222 0.1342
v 0.0118005294 -0.0321777 0.1342
v 0.0114423 -0.0323632881 0.1342
v 0.0110700354 -0.03247032 0.1342
v 0.01270611 -0.0305037089 0.1342
v 0.01070611 -0.03250371 0.1342
v 0.0132061113 -0.02800371 0.1342
v 0.0126727205 -0.0301397834 0.1342
v 0.0125656873 -0.02976752 0.1342
v 0.0123801008 -0.02940929 0.1342
v 0.0121203233 -0.0290894955 0.1342
v 0.0118005294 -0.028829718 0.1342
v 0.0114423 -0.0286441334 0.1342
v 0.0110700354 -0.0285370983 0.1342
v 0.01070611 -0.0285037085 0.1342
v 0.0103421845 -0.0285370983 0.1342
v 0.00820611 -0.03250371 0.1342
v 0.0103421845 -0.03247032 0.1342
v 0.009969922 -0.0323632881 0.1342
v 0.00961169 -0.0321777 0.1342
v 0.00320610916 -0.03286781 0.1342
v 0.009291897 -0.0319179222 0.1342
v 0.006070035 -0.0285370983 0.1342
v 0.00320610916 -0.02800371 0.1342
v 0.00570610957 -0.0285037085 0.1342
v 0.005342183 -0.0285370983 0.1342
v 0.00496991957 -0.0286441334 0.1342
v 0.00644229865 -0.0286441334 0.1342
v 0.00996992 -0.0286441334 0.1342
v 0.00961169 -0.028829718 0.1342
v 0.006800529 -0.028829718 0.1342
v 0.009291897 -0.0290894955 0.1342
v 0.007120323 -0.0290894955 0.1342
v 0.009032119 -0.02940929 0.1342
v 0.00738010043 -0.02940929 0.1342
v 0.008846533 -0.02976752 0.1342
v 0.007565686 -0.02976752 0.1342
v 0.00461169 -0.02882972 0.1342
v 0.008739499 -0.0301397834 0.1342
v 0.00429189624 -0.0290894955 0.1342
v 0.00403211871 -0.0294092912 0.1342
v 0.0038465322 -0.02976752 0.1342
v 0.003739499 -0.0301397853 0.1342
v 0.00370610924 -0.03050371 0.1342
v 0.003739499 -0.0308676362 0.1342
v 0.0038465322 -0.0312399 0.1342
v 0.00403211871 -0.03159813 0.1342
v 0.00429189624 -0.0319179222 0.1342
v 0.00461169 -0.0321777 0.1342
v 0.00496991957 -0.0323632881 0.1342
v 0.005342184 -0.03247032 0.1342
v 0.00570610957 -0.03250371 0.1342
v 0.006070036 -0.03247032 0.1342
v 0.00644229958 -0.0323632881 0.1342
v 0.00680053 -0.0321777 0.1342
v 0.007120324 -0.0319179222 0.1342
v 0.00738010043 -0.03159813 0.1342
v 0.009032119 -0.03159813 0.1342
v 0.007565687 -0.0312398989 0.1342
v 0.008846534 -0.0312398989 0.1342
v 0.007672721 -0.0308676362 0.1342
v 0.008739499 -0.0308676362 0.1342
v 0.00820611 -0.03043576 0.1342
v 0.00870611 -0.0305037089 0.1342
v 0.00770611 -0.0305037089 0.1342
v 0.00767272 -0.0301397834 0.1342
v 0.00570610957 -0.02800371 0.12715
v 0.00370610924 -0.02800371 0.12965
v 0.00370610924 -0.02800371 0.12465
v 0.00770611 -0.02800371 0.12465
v 0.00770611 -0.02800371 0.12965
v 0.00370610924 -0.0340037122 0.12965
v 0.0046244734 -0.0307038687 0.12965
v 0.0046833423 -0.0309086144 0.12965
v 0.00478541432 -0.0311056413 0.12965
v 0.00492829224 -0.0312815271 0.12965
v 0.005104179 -0.0314244069 0.12965
v 0.005301206 -0.0315264761 0.12965
v 0.00550595066 -0.0315853469 0.12965
v 0.00460610958 -0.03050371 0.12965
v 0.00570610957 -0.03160371 0.12965
v 0.00370610924 -0.02800371 0.12965
v 0.0046244734 -0.03030355 0.12965
v 0.0046833423 -0.0300988071 0.12965
v 0.00770611 -0.0340037122 0.12965
v 0.00590626942 -0.0315853469 0.12965
v 0.006111014 -0.0315264761 0.12965
v 0.00478541432 -0.02990178 0.12965
v 0.00630804 -0.0314244032 0.12965
v 0.00492829224 -0.0297258925 0.12965
v 0.006483928 -0.0312815271 0.12965
v 0.005104179 -0.0295830145 0.12965
v 0.006626805 -0.0311056413 0.12965
v 0.005301206 -0.0294809416 0.12965
v 0.00550594972 -0.0294220746 0.12965
v 0.00570610957 -0.0294037089 0.12965
v 0.00770611 -0.02800371 0.12965
v 0.00590626942 -0.0294220746 0.12965
v 0.00611101324 -0.0294809416 0.12965
v 0.006728877 -0.0309086144 0.12965
v 0.00678774575 -0.0307038687 0.12965
v 0.00680610957 -0.0305037089 0.12965
v 0.00630804 -0.0295830145 0.12965
v 0.00678774575 -0.03030355 0.12965
v 0.006483927 -0.0297258925 0.12965
v 0.006728877 -0.0300988052 0.12965
v 0.006626805 -0.02990178 0.12965
v 0.00590626942 -0.0315853469 0.1305
v 0.006070036 -0.03247032 0.1305
v 0.00644229958 -0.0323632881 0.1305
v 0.00570610957 -0.03250371 0.1305
v 0.006111014 -0.0315264761 0.1305
v 0.00570610957 -0.03160371 0.1305
v 0.00680053 -0.0321777 0.1305
v 0.005342184 -0.03247032 0.1305
v 0.00630804 -0.0314244032 0.1305
v 0.00550595066 -0.0315853469 0.1305
v 0.007120324 -0.0319179222 0.1305
v 0.00496991957 -0.0323632881 0.1305
v 0.006483928 -0.0312815271 0.1305
v 0.005301206 -0.0315264761 0.1305
v 0.00738010043 -0.03159813 0.1305
v 0.00461169 -0.0321777 0.1305
v 0.006626805 -0.0311056413 0.1305
v 0.005104179 -0.0314244069 0.1305
v 0.007565687 -0.0312398989 0.1305
v 0.00429189624 -0.0319179222 0.1305
v 0.006728877 -0.0309086144 0.1305
v 0.00492829224 -0.0312815271 0.1305
v 0.007672721 -0.0308676362 0.1305
v 0.00403211871 -0.03159813 0.1305
v 0.00678774575 -0.0307038687 0.1305
v 0.00478541432 -0.0311056413 0.1305
v 0.0038465322 -0.0312399 0.1305
v 0.0046833423 -0.0309086144 0.1305
v 0.00770611 -0.0305037089 0.1305
v 0.00680610957 -0.0305037089 0.1305
v 0.00678774575 -0.03030355 0.1305
v 0.00767272 -0.0301397834 0.1305
v 0.006728877 -0.0300988052 0.1305
v 0.007565686 -0.02976752 0.1305
v 0.006626805 -0.02990178 0.1305
v 0.00738010043 -0.02940929 0.1305
v 0.006483927 -0.0297258925 0.1305
v 0.007120323 -0.0290894955 0.1305
v 0.00630804 -0.0295830145 0.1305
v 0.006800529 -0.028829718 0.1305
v 0.00611101324 -0.0294809416 0.1305
v 0.00644229865 -0.0286441334 0.1305
v 0.00590626942 -0.0294220746 0.1305
v 0.006070035 -0.0285370983 0.1305
v 0.00570610957 -0.0294037089 0.1305
v 0.00570610957 -0.0285037085 0.1305
v 0.005342183 -0.0285370983 0.1305
v 0.00550594972 -0.0294220746 0.1305
v 0.00496991957 -0.0286441334 0.1305
v 0.005301206 -0.0294809416 0.1305
v 0.00461169 -0.02882972 0.1305
v 0.005104179 -0.0295830145 0.1305
v 0.00429189624 -0.0290894955 0.1305
v 0.00492829224 -0.0297258925 0.1305
v 0.00403211871 -0.0294092912 0.1305
v 0.00478541432 -0.02990178 0.1305
v 0.0038465322 -0.02976752 0.1305
v 0.0046833423 -0.0300988071 0.1305
v 0.003739499 -0.0301397853 0.1305
v 0.0046244734 -0.03030355 0.1305
v 0.00370610924 -0.03050371 0.1305
v 0.00460610958 -0.03050371 0.1305
v 0.003739499 -0.0308676362 0.1305
v 0.0046244734 -0.0307038687 0.1305
v 0.00535610924 -0.032228712 0.124325
v 0.00535610924 -0.02995371 0.12465
v 0.00535611 -0.03450371 0.12465
v 0.00535611 -0.03450371 0.124
v 0.00535610924 -0.02995371 0.124
v 0.00605611 -0.032228712 0.124325
v 0.00605611 -0.02995371 0.124
v 0.00605611 -0.03450371 0.124
v 0.00605611 -0.03450371 0.12465
v 0.00605611 -0.02995371 0.12465
v 0.00570610957 -0.03425371 0.129900008
v 0.00770611 -0.03425371 0.129900008
v 0.00795611 -0.03450371 0.13015
v 0.00345610967 -0.03450371 0.13015
v 0.00770611 -0.0340037122 0.12965
v 0.00370610924 -0.03425371 0.129900008
v 0.00370610924 -0.0340037122 0.12965
v 0.00535610924 -0.02995371 0.124
v 0.00570610957 -0.02995371 0.124325
v 0.00535610924 -0.02995371 0.12465
v 0.00605611 -0.02995371 0.124
v 0.00605611 -0.02995371 0.12465
v 0.00770611 -0.03425371 0.12465
v 0.00783111 -0.03437871 0.1274
v 0.00770611 -0.03425371 0.129900008
v 0.00795611 -0.03450371 0.12465
v 0.00795611 -0.03450371 0.13015
v 0.00370610924 -0.03425371 0.129900008
v 0.00358111 -0.03437871 0.1274
v 0.00370610924 -0.03425371 0.12465
v 0.00345610967 -0.03450371 0.13015
v 0.00345610967 -0.03450371 0.12465
f 1 2 3
f 1 3 4
f 5 1 4
f 4 3 6
f 7 5 4
f 8 4 6
f 7 4 8
f 8 6 9
f 10 7 8
f 11 8 9
f 10 8 11
f 11 9 12
f 13 10 11
f 14 11 12
f 13 11 14
f 14 12 15
f 16 13 14
f 17 14 15
f 16 14 17
f 17 15 18
f 19 16 17
f 20 17 18
f 19 17 20
f 20 18 21
f 22 20 21
f 23 19 20
f 23 20 22
f 22 21 24
f 25 23 22
f 26 22 24
f 27 25 22
f 28 22 26
f 27 22 28
f 29 28 26
f 30 27 28
f 31 28 29
f 31 30 28
f 32 31 29
f 31 32 30
f 32 29 33
f 32 34 30
f 35 32 33
f 32 35 34
f 35 33 36
f 35 37 34
f 38 35 36
f 35 38 37
f 38 36 39
f 38 40 37
f 41 38 39
f 38 41 40
f 41 39 42
f 41 43 40
f 44 41 42
f 41 44 43
f 44 42 45
f 44 46 43
f 47 44 45
f 44 47 46
f 47 45 48
f 46 47 49
f 47 48 49
f 48 50 49
f 50 51 49
f 49 51 52
f 50 53 51
f 51 54 52
f 53 55 51
f 51 55 54
f 53 56 55
f 55 57 54
f 56 58 55
f 55 58 57
f 56 59 58
f 58 60 57
f 59 61 58
f 58 61 60
f 59 62 61
f 61 63 60
f 62 64 61
f 61 64 63
f 62 65 64
f 64 66 63
f 65 67 64
f 64 67 66
f 65 68 67
f 68 69 67
f 67 70 66
f 67 69 70
f 68 71 69
f 69 72 70
f 71 73 69
f 69 74 72
f 73 75 69
f 69 75 74
f 73 76 75
f 75 77 74
f 76 78 75
f 75 78 77
f 76 79 78
f 79 77 78
f 80 79 76
f 79 81 77
f 82 79 80
f 79 82 81
f 83 82 80
f 82 84 81
f 85 82 83
f 82 85 84
f 86 85 83
f 85 87 84
f 88 85 86
f 85 88 87
f 89 88 86
f 88 90 87
f 91 88 89
f 88 91 90
f 92 91 89
f 91 93 90
f 94 91 92
f 91 94 93
f 95 94 92
f 94 96 93
f 94 95 96
f 97 98 99
f 97 99 100
f 101 97 100
f 100 99 102
f 103 101 100
f 104 100 102
f 103 100 104
f 104 102 105
f 106 103 104
f 107 104 105
f 106 104 107
f 107 105 108
f 109 106 107
f 110 107 108
f 109 107 110
f 110 108 111
f 112 109 110
f 113 110 111
f 112 110 113
f 113 111 114
f 115 112 113
f 116 113 114
f 115 113 116
f 116 114 117
f 118 116 117
f 119 115 116
f 119 116 118
f 118 117 120
f 121 119 118
f 122 118 120
f 123 121 118
f 124 118 122
f 123 118 124
f 125 124 122
f 126 123 124
f 127 124 125
f 127 126 124
f 128 127 125
f 127 128 126
f 128 125 129
f 128 130 126
f 131 128 129
f 128 131 130
f 131 129 132
f 131 133 130
f 134 131 132
f 131 134 133
f 134 132 135
f 134 136 133
f 137 134 135
f 134 137 136
f 137 135 138
f 137 139 136
f 140 137 138
f 137 140 139
f 140 138 141
f 140 142 139
f 143 140 141
f 140 143 142
f 143 141 144
f 142 143 145
f 143 144 145
f 144 146 145
f 146 147 145
f 145 147 148
f 146 149 147
f 147 150 148
f 149 151 147
f 147 151 150
f 149 152 151
f 151 153 150
f 152 154 151
f 151 154 153
f 152 155 154
f 154 156 153
f 155 157 154
f 154 157 156
f 155 158 157
f 157 159 156
f 158 160 157
f 157 160 159
f 158 161 160
f 160 162 159
f 161 163 160
f 160 163 162
f 161 164 163
f 164 165 163
f 163 166 162
f 163 165 166
f 164 167 165
f 165 168 166
f 167 169 165
f 165 170 168
f 169 171 165
f 165 171 170
f 169 172 171
f 171 173 170
f 172 174 171
f 171 174 173
f 172 175 174
f 175 173 174
f 176 175 172
f 175 177 173
f 178 175 176
f 175 178 177
f 179 178 176
f 178 180 177
f 181 178 179
f 178 181 180
f 182 181 179
f 181 183 180
f 184 181 182
f 181 184 183
f 185 184 182
f 184 186 183
f 187 184 185
f 184 187 186
f 188 187 185
f 187 189 186
f 190 187 188
f 187 190 189
f 191 190 188
f 190 192 189
f 190 191 192
f 193 194 195
f 196 193 195
f 196 195 197
f 193 196 198
f 198 196 197
f 199 200 201
f 200 202 201
f 200 203 202
f 204 201 202
f 203 204 202
f 205 206 207
f 206 208 207
f 206 209 208
f 209 210 208
f 209 211 210
f 211 212 210
f 212 213 210
f 212 214 213
f 215 216 217
f 216 215 218
f 216 218 219
f 220 216 219
f 216 220 221
f 216 221 222
f 223 216 222
f 222 224 223
f 216 223 225
f 226 216 225
f 225 223 227
f 224 228 223
f 224 229 228
f 229 230 228
f 229 231 230
f 231 229 232
f 229 233 232
f 229 234 233
f 229 224 234
f 224 235 234
f 234 236 233
f 224 237 235
f 236 238 233
f 237 239 235
f 238 240 233
f 237 241 239
f 241 237 242
f 237 243 242
f 237 244 243
f 244 245 243
f 244 246 245
f 240 247 233
f 247 248 233
f 248 249 233
f 249 250 233
f 251 252 253
f 251 253 254
f 255 251 254
f 255 254 256
f 253 257 254
f 258 257 253
f 257 259 254
f 257 258 259
f 258 260 259
f 258 261 260
f 261 262 260
f 262 263 260
f 262 264 263
f 264 262 265
f 260 266 259
f 266 267 259
f 266 268 267
f 268 266 269
f 268 269 270
f 271 268 270
f 272 273 274
f 273 275 274
f 273 276 275
f 276 277 275
f 275 277 278
f 277 279 278
f 276 280 277
f 276 281 280
f 281 282 280
f 281 283 282
f 281 276 284
f 284 276 285
f 284 285 286
f 287 284 286
f 281 284 287
f 288 281 287
f 287 289 288
f 289 290 288
f 289 291 290
f 291 289 292
f 293 294 295
f 294 296 295
f 294 297 296
f 297 298 296
f 297 299 298
f 299 300 298
f 300 301 298
f 300 302 301
f 303 304 305
f 304 306 305
f 304 307 306
f 307 304 308
f 307 309 306
f 309 310 306
f 310 311 306
f 311 312 306
f 312 313 306
f 313 314 306
f 314 315 306
f 304 316 308
f 316 317 308
f 316 318 317
f 318 319 317
f 319 320 317
f 320 321 317
f 321 322 317
f 308 317 322
f 308 322 323
f 324 308 323
f 321 325 322
f 326 324 323
f 325 321 327
f 324 326 328
f 321 329 327
f 324 328 330
f 321 331 329
f 331 321 332
f 321 333 332
f 321 334 333
f 335 324 330
f 324 335 336
f 324 336 337
f 338 324 337
f 339 340 341
f 342 339 341
f 342 341 343
f 339 342 344
f 344 342 343
f 345 346 347
f 346 348 347
f 346 349 348
f 350 347 348
f 349 350 348
f 351 352 353
f 351 353 354
f 355 351 354
f 354 353 356
f 357 355 354
f 358 354 356
f 357 354 358
f 358 356 359
f 360 357 358
f 361 358 359
f 360 358 361
f 361 359 362
f 363 360 361
f 364 361 362
f 363 361 364
f 364 362 365
f 366 363 364
f 367 364 365
f 366 364 367
f 367 365 368
f 369 366 367
f 370 367 368
f 369 367 370
f 370 368 371
f 372 370 371
f 373 369 370
f 373 370 372
f 372 371 374
f 375 373 372
f 376 372 374
f 377 375 372
f 378 372 376
f 377 372 378
f 379 378 376
f 380 377 378
f 381 378 379
f 381 380 378
f 382 381 379
f 381 382 380
f 382 379 383
f 382 384 380
f 385 382 383
f 382 385 384
f 385 383 386
f 385 387 384
f 388 385 386
f 385 388 387
f 388 386 389
f 388 390 387
f 391 388 389
f 388 391 390
f 391 389 392
f 391 393 390
f 394 391 392
f 391 394 393
f 394 392 395
f 394 396 393
f 397 394 395
f 394 397 396
f 397 395 398
f 396 397 399
f 397 398 399
f 398 400 399
f 400 401 399
f 399 401 402
f 400 403 401
f 401 404 402
f 403 405 401
f 401 405 404
f 403 406 405
f 405 407 404
f 406 408 405
f 405 408 407
f 406 409 408
f 408 410 407
f 409 411 408
f 408 411 410
f 409 412 411
f 411 413 410
f 412 414 411
f 411 414 413
f 412 415 414
f 414 416 413
f 415 417 414
f 414 417 416
f 415 418 417
f 418 419 417
f 417 420 416
f 417 419 420
f 418 421 419
f 419 422 420
f 421 423 419
f 419 424 422
f 423 425 419
f 419 425 424
f 423 426 425
f 425 427 424
f 426 428 425
f 425 428 427
f 426 429 428
f 429 427 428
f 430 429 426
f 429 431 427
f 432 429 430
f 429 432 431
f 433 432 430
f 432 434 431
f 435 432 433
f 432 435 434
f 436 435 433
f 435 437 434
f 438 435 436
f 435 438 437
f 439 438 436
f 438 440 437
f 441 438 439
f 438 441 440
f 442 441 439
f 441 443 440
f 444 441 442
f 441 444 443
f 445 444 442
f 444 446 443
f 444 445 446
f 447 448 449
f 447 449 450
f 451 447 450
f 450 449 452
f 453 451 450
f 454 450 452
f 453 450 454
f 454 452 455
f 456 453 454
f 457 454 455
f 456 454 457
f 457 455 458
f 459 456 457
f 460 457 458
f 459 457 460
f 460 458 461
f 462 459 460
f 463 460 461
f 462 460 463
f 463 461 464
f 465 462 463
f 466 463 464
f 465 463 466
f 466 464 467
f 468 466 467
f 469 465 466
f 469 466 468
f 468 467 470
f 471 469 468
f 472 468 470
f 473 471 468
f 474 468 472
f 473 468 474
f 475 474 472
f 476 473 474
f 477 474 475
f 477 476 474
f 478 477 475
f 477 478 476
f 478 475 479
f 478 480 476
f 481 478 479
f 478 481 480
f 481 479 482
f 481 483 480
f 484 481 482
f 481 484 483
f 484 482 485
f 484 486 483
f 487 484 485
f 484 487 486
f 487 485 488
f 487 489 486
f 490 487 488
f 487 490 489
f 490 488 491
f 490 492 489
f 493 490 491
f 490 493 492
f 493 491 494
f 492 493 495
f 493 494 495
f 494 496 495
f 496 497 495
f 495 497 498
f 496 499 497
f 497 500 498
f 499 501 497
f 497 501 500
f 499 502 501
f 501 503 500
f 502 504 501
f 501 504 503
f 502 505 504
f 504 506 503
f 505 507 504
f 504 507 506
f 505 508 507
f 507 509 506
f 508 510 507
f 507 510 509
f 508 511 510
f 510 512 509
f 511 513 510
f 510 513 512
f 511 514 513
f 514 515 513
f 513 516 512
f 513 515 516
f 514 517 515
f 515 518 516
f 517 519 515
f 515 520 518
f 519 521 515
f 515 521 520
f 519 522 521
f 521 523 520
f 522 524 521
f 521 524 523
f 522 525 524
f 525 523 524
f 526 525 522
f 525 527 523
f 528 525 526
f 525 528 527
f 529 528 526
f 528 530 527
f 531 528 529
f 528 531 530
f 532 531 529
f 531 533 530
f 534 531 532
f 531 534 533
f 535 534 532
f 534 536 533
f 537 534 535
f 534 537 536
f 538 537 535
f 537 539 536
f 540 537 538
f 537 540 539
f 541 540 538
f 540 542 539
f 540 541 542
f 543 544 545
f 543 545 546
f 544 543 547
f 547 543 546
f 548 549 550
f 548 550 551
f 549 548 552
f 552 548 551
f 553 554 555
f 556 553 555
f 553 557 554
f 553 556 558
f 557 553 559
f 553 558 559
f 560 561 562
f 560 563 561
f 563 560 564
f 560 565 564
f 566 560 562
f 560 566 565
f 566 562 567
f 566 568 565
f 569 566 567
f 566 569 568
f 569 567 570
f 569 571 568
f 572 569 570
f 569 572 571
f 572 570 573
f 572 574 571
f 575 572 573
f 572 575 574
f 575 573 576
f 575 577 574
f 578 575 576
f 575 578 577
f 578 576 579
f 578 580 577
f 581 578 579
f 578 581 580
f 581 579 582
f 581 583 580
f 584 581 582
f 581 584 583
f 585 586 587
f 585 588 586
f 588 585 589
f 585 590 589
f 591 585 587
f 585 591 590
f 591 587 592
f 591 593 590
f 594 591 592
f 591 594 593
f 594 592 595
f 594 596 593
f 597 594 595
f 594 597 596
f 597 595 598
f 597 599 596
f 600 597 598
f 597 600 599
f 600 598 601
f 600 602 599
f 603 600 601
f 600 603 602
f 603 601 604
f 603 605 602
f 606 603 604
f 603 606 605
f 606 604 607
f 606 608 605
f 609 606 607
f 606 609 608
f 610 611 612
f 610 613 611
f 613 610 614
f 610 615 614
f 616 610 612
f 610 616 615
f 616 612 617
f 616 618 615
f 619 616 617
f 616 619 618
f 619 617 620
f 619 621 618
f 622 619 620
f 619 622 621
f 622 620 623
f 622 624 621
f 625 622 623
f 622 625 624
f 625 623 626
f 625 627 624
f 628 625 626
f 625 628 627
f 628 626 629
f 628 630 627
f 631 628 629
f 628 631 630
f 631 629 632
f 631 633 630
f 634 631 632
f 631 634 633
f 635 636 637
f 635 637 638
f 636 635 639
f 639 635 638
f 640 641 642
f 640 642 643
f 641 640 644
f 644 640 643
f 645 646 647
f 648 645 647
f 645 649 646
f 649 645 648
f 650 651 652
f 653 650 652
f 650 654 651
f 654 650 653
f 655 656 657
f 655 657 658
f 656 655 659
f 659 655 658
f 660 661 662
f 660 662 663
f 661 660 664
f 664 660 663
f 665 666 667
f 665 667 668
f 666 665 669
f 669 665 668
f 670 671 672
f 673 670 672
f 670 674 671
f 674 670 673
f 675 676 677
f 675 678 676
f 679 675 677
f 675 680 678
f 679 677 681
f 680 682 678
f 683 679 681
f 680 684 682
f 683 681 685
f 684 686 682
f 687 683 685
f 684 688 686
f 687 685 689
f 688 690 686
f 691 687 689
f 688 692 690
f 691 689 693
f 692 694 690
f 695 691 693
f 692 696 694
f 695 693 697
f 696 698 694
f 699 695 697
f 696 700 698
f 700 701 698
f 700 702 701
f 699 697 703
f 704 699 703
f 705 704 703
f 705 703 706
f 707 705 706
f 707 706 708
f 709 707 708
f 709 708 710
f 711 709 710
f 711 710 712
f 713 711 712
f 713 712 714
f 715 713 714
f 715 714 716
f 717 715 716
f 717 716 718
f 719 717 718
f 719 718 720
f 719 720 721
f 722 719 721
f 722 721 723
f 724 722 723
f 724 723 725
f 726 724 725
f 726 725 727
f 728 726 727
f 728 727 729
f 730 728 729
f 730 729 731
f 732 730 731
f 732 731 733
f 734 732 733
f 733 735 734
f 735 736 734
f 735 737 736
f 737 738 736
f 737 702 738
f 702 737 701
f 739 740 741
f 739 741 742
f 740 739 743
f 743 739 742
f 744 745 746
f 744 746 747
f 745 744 748
f 748 744 747
f 749 750 751
f 749 751 752
f 750 749 753
f 753 749 752
f 754 755 756
f 754 756 757
f 755 754 758
f 758 754 757
f 759 760 761
f 762 759 761
f 759 762 763
f 759 763 764
f 765 759 764
f 759 765 766
f 759 767 760
f 759 766 768
f 759 769 767
f 769 770 767
f 769 771 770
f 772 759 768
f 772 768 773
f 772 773 774
f 771 769 775
f 776 772 774
f 769 777 775
f 772 776 778
f 769 779 777
f 772 778 780
f 779 769 781
f 769 782 781
f 769 783 782
f 769 784 783
f 784 785 783
f 784 786 785
f 787 772 780
f 772 787 788
f 772 788 789
f 784 772 789
f 786 784 790
f 784 789 791
f 784 792 790
f 784 791 793
f 784 794 792
f 794 784 793
f 795 796 797
f 795 797 798
f 796 795 799
f 799 795 798
f 800 801 802
f 800 802 803
f 801 800 804
f 804 800 803
f 805 806 807
f 805 807 808
f 806 805 809
f 809 805 808
f 810 811 812
f 810 812 813
f 811 810 814
f 814 810 813
f 815 816 817
f 815 817 818
f 819 815 818
f 815 819 820
f 815 820 821
f 822 815 821
f 816 815 823
f 815 822 824
f 815 825 823
f 825 826 823
f 825 827 826
f 827 825 828
f 825 829 828
f 825 830 829
f 830 825 831
f 825 832 831
f 825 833 832
f 833 825 834
f 815 824 835
f 836 835 824
f 835 836 837
f 835 837 838
f 839 815 835
f 840 835 838
f 834 825 841
f 825 842 841
f 842 843 841
f 842 844 843
f 844 842 845
f 834 841 846
f 847 834 846
f 848 847 846
f 848 846 849
f 850 848 849
f 850 849 851
f 852 850 851
f 852 851 853
f 854 852 853
f 854 853 855
f 842 856 845
f 857 854 855
f 842 858 856
f 858 842 859
f 842 860 859
f 842 861 860
f 861 842 862
f 842 839 862
f 839 863 862
f 839 864 863
f 864 839 865
f 839 866 865
f 839 867 866
f 867 839 868
f 839 869 868
f 839 870 869
f 839 835 870
f 835 871 870
f 835 872 871
f 872 835 873
f 835 874 873
f 835 840 874
f 840 875 874
f 840 876 875
f 876 877 875
f 876 878 877
f 878 879 877
f 878 880 879
f 880 881 879
f 880 882 881
f 879 881 883
f 882 857 881
f 881 884 883
f 881 857 884
f 857 855 884
f 885 886 887
f 885 887 888
f 886 885 889
f 889 885 888
f 890 891 892
f 893 890 892
f 890 893 894
f 890 894 895
f 896 890 895
f 890 896 897
f 890 898 891
f 890 897 899
f 890 900 898
f 900 901 898
f 900 902 901
f 903 890 899
f 903 899 904
f 903 904 905
f 902 900 906
f 907 903 905
f 900 908 906
f 903 907 909
f 900 910 908
f 903 909 911
f 910 900 912
f 900 913 912
f 900 914 913
f 900 915 914
f 915 916 914
f 915 917 916
f 918 903 911
f 903 918 919
f 903 919 920
f 915 903 920
f 917 915 921
f 915 920 922
f 915 923 921
f 915 922 924
f 915 925 923
f 925 915 924
f 926 927 928
f 926 929 927
f 930 926 928
f 926 931 929
f 930 928 932
f 931 933 929
f 934 930 932
f 931 935 933
f 934 932 936
f 935 937 933
f 938 934 936
f 935 939 937
f 938 936 940
f 939 941 937
f 942 938 940
f 939 943 941
f 942 940 944
f 943 945 941
f 946 942 944
f 943 947 945
f 946 944 948
f 947 949 945
f 950 946 948
f 947 951 949
f 951 952 949
f 951 953 952
f 950 948 954
f 955 950 954
f 956 955 954
f 956 954 957
f 958 956 957
f 958 957 959
f 960 958 959
f 960 959 961
f 962 960 961
f 962 961 963
f 964 962 963
f 964 963 965
f 966 964 965
f 966 965 967
f 968 966 967
f 968 967 969
f 970 968 969
f 970 969 971
f 970 971 972
f 973 970 972
f 973 972 974
f 975 973 974
f 975 974 976
f 977 975 976
f 977 976 978
f 979 977 978
f 979 978 980
f 981 979 980
f 981 980 982
f 983 981 982
f 983 982 984
f 985 983 984
f 984 986 985
f 986 987 985
f 986 988 987
f 988 989 987
f 988 953 989
f 953 988 952
f 990 991 992
f 990 992 993
f 991 990 994
f 994 990 993
f 995 996 997
f 995 997 998
f 996 995 999
f 999 995 998
f 1000 1001 1002
f 1003 1000 1002
f 1000 1004 1001
f 1000 1003 1005
f 1004 1000 1006
f 1000 1005 1006
f 1007 1008 1009
f 1010 1008 1007
f 1008 1011 1009
f 1008 1010 1011
f 1012 1013 1014
f 1015 1013 1012
f 1013 1016 1014
f 1013 1015 1016
f 1017 1018 1019
f 1020 1018 1017
f 1018 1021 1019
f 1018 1020 1021
