# ROS coordinates: X forward, Y left, Z up; units are metres.
o mesh
v 0.153159812 -0.004713371 0.0218763836
v 0.156959221 -0.004780576 0.0218763836
v 0.156986371 -0.00324566918 0.02222415
v 0.153186962 -0.003178464 0.02222415
v 0.155106917 -0.00206713332 0.022391038
v 0.153215483 -0.00156568747 0.0224371441
v 0.157014892 -0.00163289264 0.0224371441
v 0.155132 -0.0006489946 0.0224919282
v 0.1532451 0.000108276552 0.0224989448
v 0.1570445 4.10713837E-05 0.0224989448
v 0.15515773 0.0008058357 0.0224756114
v 0.15327543 0.00182280038 0.0223957747
v 0.157074839 0.00175559521 0.0223957747
v 0.155183867 0.00228321739 0.0223344825
v 0.153306037 0.0035538224 0.0221175961
v 0.157105446 0.00348661724 0.0221175961
v 0.155210122 0.00376732624 0.0220631957
v 0.15333648 0.005274714 0.0216590874
v 0.157135889 0.005207509 0.0216590874
v 0.155236185 0.00524111139 0.0216590874
v 0.155261755 0.006686871 0.02112249
v 0.153366253 0.006957461 0.0210203715
v 0.157165661 0.006890256 0.0210203715
v 0.155286521 0.008086918 0.0204568654
v 0.153394848 0.008574078 0.0202073716
v 0.157194257 0.008506873 0.0202073716
v 0.155310184 0.009424273 0.0196688119
v 0.1534218 0.0100980978 0.0192317367
v 0.157221213 0.0100308927 0.0192317367
v 0.155332446 0.0106833391 0.0187678263
v 0.1534467 0.011506008 0.0181102864
v 0.157246113 0.0114388028 0.0181102864
v 0.1553531 0.0118505079 0.0177659467
v 0.1534692 0.0127784284 0.0168640651
v 0.157268614 0.0127112232 0.0168640651
v 0.155371919 0.0129146334 0.016677225
v 0.153489068 0.013900958 0.01551711
v 0.157288477 0.0138337528 0.01551711
v 0.155388772 0.0138673559 0.01551711
v 0.155403554 0.0147032458 0.0143018067
v 0.153506115 0.0148645863 0.0140950382
v 0.157305524 0.0147973811 0.0140950382
v 0.155416235 0.0154197775 0.013047616
v 0.153520286 0.0156656615 0.01262367
v 0.1573197 0.0155984573 0.01262367
v 0.155429855 0.016190201 0.01134209
v 0.1535316 0.0163055137 0.0111277783
v 0.155439869 0.0167561341 0.00963009
v 0.157331 0.0162383076 0.0111277783
v 0.153540164 0.0167897381 0.00963009
v 0.157339573 0.016722532 0.00963009
v 0.153546318 0.017137453 0.008094942
v 0.157345727 0.0170702469 0.008094942
v 0.155446708 0.0171429254 0.00786893349
v 0.153550088 0.01735041 0.006481914
v 0.1573495 0.0172832049 0.006481914
v 0.155450374 0.017350547 0.0060089766
v 0.153551176 0.0174122 0.00480768736
v 0.157350585 0.0173449963 0.00480768736
v 0.155450463 0.01735527 0.00407641148
v 0.153549343 0.0173090473 0.00309289573
v 0.157348752 0.017241843 0.00309289573
v 0.155446634 0.0171383955 0.00210394431
v 0.153544426 0.0170309134 0.00136160292
v 0.157343835 0.0169637073 0.00136160292
v 0.155438662 0.0166883525 0.00012954697
v 0.15353632 0.0165724754 -0.000359557569
v 0.157335728 0.01650527 -0.000359557569
v 0.155426532 0.0160023551 -0.001805543
v 0.153525025 0.01593386 -0.00204256736
v 0.155410349 0.0150873847 -0.00365943648
v 0.157324433 0.015866654 -0.00204256736
v 0.153510645 0.0151209868 -0.00365943648
v 0.157310054 0.0150537817 -0.00365943648
v 0.153493389 0.0141455047 -0.00518369675
v 0.1572928 0.0140782995 -0.00518369675
v 0.155390412 0.0139601957 -0.0053924704
v 0.153473556 0.0130242277 -0.00659182575
v 0.157272965 0.0129570225 -0.00659182575
v 0.155367166 0.0126463417 -0.00696998928
v 0.153451517 0.0117782047 -0.007864446
v 0.157250926 0.0117109995 -0.007864446
v 0.155341208 0.0111782849 -0.008364613
v 0.1534277 0.0104314592 -0.008987152
v 0.1572271 0.010364254 -0.008987152
v 0.155313164 0.0095929 -0.009557697
v 0.153402552 0.009009609 -0.009950931
v 0.157201961 0.008942404 -0.009950931
v 0.155283734 0.007928748 -0.0105398158
v 0.15337652 0.00753847044 -0.0107521312
v 0.157175928 0.00747126527 -0.0107521312
v 0.155253559 0.006223489 -0.0113103641
v 0.157149479 0.00597560732 -0.01139208
v 0.15335007 0.00604281249 -0.01139208
v 0.157122985 0.00447815331 -0.0118763829
v 0.153323591 0.00454535848 -0.0118763829
v 0.157095835 0.00294324639 -0.01222415
v 0.153296441 0.00301045156 -0.01222415
v 0.15517588 0.0018319157 -0.0123910392
v 0.157067314 0.00133046985 -0.0124371434
v 0.1532679 0.001397675 -0.0124371434
v 0.1551508 0.000413776957 -0.0124919275
v 0.1570377 -0.000343494175 -0.0124989441
v 0.1532383 -0.000276289 -0.0124989441
v 0.155125067 -0.00104105333 -0.0124756107
v 0.157007381 -0.002058018 -0.012395774
v 0.153207973 -0.00199081283 -0.012395774
v 0.15509893 -0.002518435 -0.0123344818
v 0.156976759 -0.00378904 -0.0121175954
v 0.153177351 -0.00372183486 -0.0121175954
v 0.155072689 -0.004002544 -0.012063195
v 0.156946316 -0.00550993159 -0.0116590867
v 0.153146908 -0.00544272643 -0.0116590867
v 0.155046612 -0.005476329 -0.0116590867
v 0.155021042 -0.00692208856 -0.0111224866
v 0.156916559 -0.00719267875 -0.0110203689
v 0.15311715 -0.00712547358 -0.0110203689
v 0.154996276 -0.00832213648 -0.0104568647
v 0.156887963 -0.00880929548 -0.0102073709
v 0.153088555 -0.00874209 -0.0102073709
v 0.154972628 -0.00965949148 -0.009668809
v 0.156861 -0.0103333155 -0.009231738
v 0.1530616 -0.01026611 -0.009231738
v 0.154950351 -0.0109185576 -0.008767826
v 0.156836092 -0.0117412256 -0.008110286
v 0.153036684 -0.01167402 -0.008110286
v 0.154929712 -0.0120857265 -0.007765946
v 0.156813592 -0.013013646 -0.00686406437
v 0.153014183 -0.0129464408 -0.00686406437
v 0.154910877 -0.01314985 -0.0066772243
v 0.156793728 -0.0141361756 -0.0055171093
v 0.152994335 -0.01406897 -0.0055171093
v 0.154894024 -0.0141025726 -0.0055171093
v 0.154879242 -0.0149384625 -0.004301806
v 0.1567767 -0.0150998039 -0.00409503747
v 0.152977288 -0.0150325987 -0.00409503747
v 0.154866576 -0.0156549942 -0.00304761529
v 0.156762525 -0.01590088 -0.00262366887
v 0.152963117 -0.0158336759 -0.00262366887
v 0.154852942 -0.01642542 -0.00134208892
v 0.1567512 -0.01654073 -0.00112777669
v 0.154842928 -0.0169913527 0.000369912
v 0.152951792 -0.0164735243 -0.00112777669
v 0.156742632 -0.0170249548 0.000369912
v 0.152943224 -0.0169577487 0.000369912
v 0.1567365 -0.01737267 0.00190505851
v 0.152937084 -0.0173054636 0.00190505851
v 0.154836088 -0.017378144 0.00213106815
v 0.156732723 -0.0175856277 0.00351808779
v 0.152933314 -0.0175184235 0.00351808779
v 0.154832423 -0.0175857656 0.003991024
v 0.15673162 -0.01764742 0.00519231334
v 0.152932227 -0.0175802149 0.00519231334
v 0.154832333 -0.01759049 0.005923589
v 0.156733453 -0.0175442658 0.00690710545
v 0.152934045 -0.0174770616 0.00690710545
v 0.154836178 -0.017373614 0.007896057
v 0.156738371 -0.01726613 0.008638398
v 0.152938962 -0.017198924 0.008638398
v 0.154844135 -0.016923571 0.009870454
v 0.156746477 -0.0168076921 0.0103595583
v 0.152947068 -0.016740486 0.0103595583
v 0.154856265 -0.0162375737 0.0118055455
v 0.156757772 -0.0161690768 0.012042569
v 0.154872447 -0.0153226014 0.0136594381
v 0.152958363 -0.01610187 0.012042569
v 0.156772152 -0.0153562045 0.0136594381
v 0.152972743 -0.0152889993 0.0136594381
v 0.1567894 -0.0143807223 0.0151836984
v 0.15299 -0.0143135171 0.0151836984
v 0.154892385 -0.0141954124 0.0153924711
v 0.156809241 -0.0132594453 0.0165918283
v 0.153009832 -0.01319224 0.0165918283
v 0.154915631 -0.0128815584 0.0169699881
v 0.156831279 -0.0120134223 0.0178644471
v 0.153031871 -0.0119462172 0.0178644471
v 0.154941589 -0.0114135016 0.0183646139
v 0.1568551 -0.0106666768 0.0189871527
v 0.1530557 -0.0105994716 0.0189871527
v 0.154969633 -0.009828119 0.0195576958
v 0.15688026 -0.009244827 0.01995093
v 0.153080851 -0.009177621 0.01995093
v 0.154999077 -0.008163966 0.0205398165
v 0.156906277 -0.007773688 0.0207521319
v 0.153106868 -0.007706483 0.0207521319
v 0.155029237 -0.00645870669 0.021310363
v 0.156932727 -0.00627803 0.0213920828
v 0.153133333 -0.006210825 0.0213920828
v 0.156959221 -0.004780576 0.0218763836
v 0.153159812 -0.004713371 0.0218763836
v 0.157160118 -0.004731206 0.02168351
v 0.156959221 -0.004780576 0.0218763836
v 0.156932727 -0.00627803 0.0213920828
v 0.157133937 -0.006211547 0.0212047435
v 0.157014519 -0.00730846543 0.02086011
v 0.157107785 -0.00769011164 0.02057211
v 0.156906277 -0.007773688 0.0207521319
v 0.156992167 -0.008572276 0.0202267319
v 0.157082066 -0.009144437 0.0197800621
v 0.15688026 -0.009244827 0.01995093
v 0.1569703 -0.009808 0.01947451
v 0.1570572 -0.0105500361 0.0188273
v 0.1568551 -0.0106666768 0.0189871527
v 0.156949222 -0.0109996917 0.01860412
v 0.157033652 -0.01188139 0.0177174248
v 0.156831279 -0.0120134223 0.0178644471
v 0.15692921 -0.0121311042 0.0176190212
v 0.157011867 -0.0131131746 0.01645935
v 0.156809241 -0.0132594453 0.0165918283
v 0.156910554 -0.01318631 0.0165255889
v 0.156893492 -0.01415034 0.0153330853
v 0.156992257 -0.0142216366 0.0150673129
v 0.1567894 -0.0143807223 0.0151836984
v 0.1568783 -0.0150098279 0.0140534546
v 0.1569752 -0.01518597 0.0135604739
v 0.156772152 -0.0153562045 0.0136594381
v 0.156865135 -0.015753597 0.0127009479
v 0.156960979 -0.0159895513 0.0119620822
v 0.156757772 -0.0161690768 0.012042569
v 0.156854182 -0.0163731351 0.0112916045
v 0.156949818 -0.0166208688 0.0102983061
v 0.156746477 -0.0168076921 0.0103595583
v 0.15684551 -0.01686291 0.009842622
v 0.1569418 -0.017074069 0.008596816
v 0.156738371 -0.01726613 0.008638398
v 0.156839192 -0.0172205158 0.008371672
v 0.156936929 -0.0173490252 0.0068853097
v 0.156733453 -0.0175442658 0.00690710545
v 0.1568352 -0.0174466446 0.00689620757
v 0.156833455 -0.0175448768 0.00543283951
v 0.156935126 -0.017451 0.00519011542
v 0.15673162 -0.01764742 0.00519231334
v 0.156833872 -0.017521318 0.00399678946
v 0.156936213 -0.0173899159 0.003535024
v 0.156732723 -0.0175856277 0.00351808779
v 0.156837523 -0.0173148848 0.00214746129
v 0.156939939 -0.0171793886 0.00194042921
v 0.156844318 -0.0169303045 0.000396369025
v 0.1567365 -0.01737267 0.00190505851
v 0.156946018 -0.0168356486 0.000422826968
v 0.156742632 -0.0170249548 0.000369912
v 0.156954482 -0.0163569581 -0.001057745
v 0.1567512 -0.01654073 -0.00112777669
v 0.156854272 -0.0163676031 -0.00130584743
v 0.156965673 -0.0157244224 -0.00253654085
v 0.156762525 -0.01590088 -0.00262366887
v 0.156867832 -0.0156015819 -0.00300162937
v 0.15697968 -0.0149324993 -0.00399109535
v 0.1567767 -0.0150998039 -0.00409503747
v 0.1568851 -0.0146252252 -0.004656531
v 0.156996533 -0.0139798857 -0.005396913
v 0.156793728 -0.0141361756 -0.0055171093
v 0.156906083 -0.0134391459 -0.00623310264
v 0.157016158 -0.0128701832 -0.006728475
v 0.156813592 -0.013013646 -0.00686406437
v 0.1569306 -0.0120527074 -0.007692999
v 0.1570384 -0.0116123054 -0.007960453
v 0.156836092 -0.0117412256 -0.008110286
v 0.156958342 -0.0104844486 -0.00899955
v 0.157063022 -0.0102204857 -0.009069088
v 0.156988814 -0.00876158848 -0.0101204747
v 0.156861 -0.0103333155 -0.009231738
v 0.15708968 -0.008713882 -0.0100335712
v 0.156887963 -0.00880929548 -0.0102073709
v 0.157117948 -0.007115742 -0.0108372783
v 0.156916559 -0.00719267875 -0.0110203689
v 0.157021418 -0.006918577 -0.0110303583
v 0.157147378 -0.00545222545 -0.0114686964
v 0.156946316 -0.00550993159 -0.0116590867
v 0.157055438 -0.004994844 -0.0117125409
v 0.157177463 -0.00375100179 -0.0119219655
v 0.156976759 -0.00378904 -0.0121175954
v 0.157090157 -0.00303203729 -0.0121600823
v 0.157207727 -0.00203976315 -0.0121969646
v 0.157007381 -0.002058018 -0.012395774
v 0.157124847 -0.00107114762 -0.0123757506
v 0.157237709 -0.000344833825 -0.0122989556
v 0.1570377 -0.000343494175 -0.0124989441
v 0.157158837 0.0008500735 -0.0123710567
v 0.157266974 0.00130999926 -0.0122378608
v 0.157067314 0.00133046985 -0.0124371434
v 0.15719153 0.00269911275 -0.0121645844
v 0.157095835 0.00294324639 -0.01222415
v 0.157295182 0.00290434412 -0.0120273037
v 0.157122985 0.00447815331 -0.0118763829
v 0.157322019 0.004421709 -0.01168351
v 0.157149479 0.00597560732 -0.01139208
v 0.157348216 0.00590205 -0.0112047428
v 0.15726766 0.00700250547 -0.0108601069
v 0.157175928 0.00747126527 -0.0107521312
v 0.157374352 0.00738061452 -0.0105721066
v 0.157290012 0.008266316 -0.0102267275
v 0.157201961 0.008942404 -0.009950931
v 0.157400087 0.008834939 -0.009780061
v 0.157311872 0.00950204 -0.009474509
v 0.1572271 0.010364254 -0.008987152
v 0.157424942 0.010240539 -0.008827298
v 0.157332942 0.0106937317 -0.00860411953
v 0.157250926 0.0117109995 -0.007864446
v 0.1574485 0.0115718925 -0.007717424
v 0.157352954 0.0118251443 -0.00761901867
v 0.157272965 0.0129570225 -0.00659182575
v 0.157470286 0.0128036775 -0.006459349
v 0.157371625 0.01288035 -0.006525588
v 0.157388672 0.01384438 -0.00533308368
v 0.1572928 0.0140782995 -0.00518369675
v 0.1574899 0.0139121395 -0.005067312
v 0.157403886 0.014703868 -0.004053454
v 0.157310054 0.0150537817 -0.00365943648
v 0.157506943 0.0148764728 -0.00356047321
v 0.157417029 0.015447638 -0.00270094723
v 0.157324433 0.015866654 -0.00204256736
v 0.157521158 0.0156800542 -0.00196208153
v 0.157428 0.0160671771 -0.00129160378
v 0.157335728 0.01650527 -0.000359557569
v 0.157532334 0.0163113717 -0.000298305415
v 0.157436654 0.0165569484 0.000157378614
v 0.157343835 0.0169637073 0.00136160292
v 0.157540351 0.0167645719 0.00140318461
v 0.157442987 0.0169145539 0.001628329
v 0.157348752 0.017241843 0.00309289573
v 0.157545209 0.0170395281 0.003114691
v 0.15744698 0.0171406865 0.00310379267
v 0.157448724 0.017238915 0.004567161
v 0.157350585 0.0173449963 0.00480768736
v 0.157547012 0.0171415024 0.00480988529
v 0.1574483 0.01721536 0.006003211
v 0.1573495 0.0172832049 0.006481914
v 0.157545939 0.0170804188 0.00646497775
v 0.157444656 0.017008923 0.007852539
v 0.157345727 0.0170702469 0.008094942
v 0.157437846 0.0166243427 0.009603632
v 0.157542214 0.0168698914 0.0080595715
v 0.157339573 0.016722532 0.00963009
v 0.157536134 0.0165261514 0.009577174
v 0.157331 0.0162383076 0.0111277783
v 0.157527655 0.016047461 0.0110577466
v 0.157427892 0.016061645 0.0113058491
v 0.1573197 0.0155984573 0.01262367
v 0.157516479 0.0154149253 0.0125365425
v 0.157414347 0.0152956219 0.01300163
v 0.157305524 0.0147973811 0.0140950382
v 0.157502472 0.0146230021 0.0139910951
v 0.157397076 0.0143192653 0.0146565307
v 0.157288477 0.0138337528 0.01551711
v 0.157485619 0.0136703886 0.0153969154
v 0.1573761 0.0131331859 0.0162331033
v 0.157268614 0.0127112232 0.0168640651
v 0.157466 0.0125606861 0.0167284757
v 0.157351568 0.0117467474 0.017693
v 0.157246113 0.0114388028 0.0181102864
v 0.157443732 0.0113028083 0.0179604534
v 0.157323837 0.0101784887 0.01899955
v 0.157221213 0.0100308927 0.0192317367
v 0.157293364 0.00845562853 0.0201204717
v 0.157419115 0.009910989 0.0190690886
v 0.157194257 0.008506873 0.0202073716
v 0.157392472 0.008404385 0.0200335756
v 0.157165661 0.006890256 0.0210203715
v 0.1573642 0.006806245 0.02083728
v 0.157260761 0.006612617 0.021030359
v 0.157135889 0.005207509 0.0216590874
v 0.157334775 0.00514272833 0.021468699
v 0.157226726 0.004688884 0.0217125416
v 0.157105446 0.00348661724 0.0221175961
v 0.157304689 0.00344150467 0.0219219662
v 0.157192 0.00272607733 0.0221600831
v 0.157074839 0.00175559521 0.0223957747
v 0.15727441 0.001730266 0.0221969672
v 0.157157332 0.0007651877 0.0223757513
v 0.1570445 4.10713837E-05 0.0224989448
v 0.157244429 3.53366922E-05 0.0222989582
v 0.157123342 -0.00115603348 0.0223710574
v 0.157014892 -0.00163289264 0.0224371441
v 0.157215163 -0.00161949638 0.0222378634
v 0.157090634 -0.00300507271 0.0221645869
v 0.156986371 -0.00324566918 0.02222415
v 0.15718697 -0.00321384124 0.0220273025
v 0.156959221 -0.004780576 0.0218763836
v 0.157160118 -0.004731206 0.02168351
v 0.157064974 0.00119791774 8.174032E-05
v 0.157265872 0.00124728773 -0.000111131929
v 0.1572819 0.002153773 0.000229354948
v 0.157183379 0.00223793741 0.000382455066
v 0.1570804 0.00207019621 0.00040937867
v 0.1572974 0.00302993483 0.000763891265
v 0.157095313 0.00291329552 0.0009237444
v 0.157200456 0.0032035138 0.00102880131
v 0.157311291 0.00381517364 0.00148933288
v 0.157108679 0.00366890244 0.00162181165
v 0.157215074 0.004030139 0.00191195216
v 0.157322526 0.004450192 0.002377428
v 0.157119483 0.00427995762 0.00247639278
v 0.157225817 0.00463695265 0.002977782
v 0.1573303 0.004889786 0.00337682012
v 0.157126963 0.004702963 0.00343807181
v 0.157231778 0.004974519 0.004139458
v 0.157334253 0.005112862 0.0044224197
v 0.157130763 0.004917621 0.00444421545
v 0.1572329 0.00503755827 0.005299811
v 0.157334477 0.0051253885 0.00544880843
v 0.157229781 0.004860933 0.006375798
v 0.157130972 0.00492967572 0.00543187233
v 0.157331467 0.004955585 0.006402256
v 0.157128081 0.00476628 0.00634934055
v 0.157325447 0.00461515132 0.00730888359
v 0.157122284 0.004438692 0.00722175557
v 0.157222748 0.00446384354 0.00739129167
v 0.157316 0.00408069743 0.008185182
v 0.1571132 0.0039244066 0.008064987
v 0.1572146 0.00400255248 0.008125084
v 0.157203987 0.00340326037 0.00879331
v 0.157303154 0.00335537 0.008970544
v 0.157100856 0.00322645 0.008820713
v 0.157191247 0.00268232217 0.009358733
v 0.157287449 0.002467414 0.009605662
v 0.157085732 0.0023720013 0.009431863
v 0.157176852 0.00186892273 0.009790682
v 0.157269776 0.001468178 0.0100453235
v 0.157068729 0.00141047267 0.009854934
v 0.1571615 0.00100140076 0.0100702066
v 0.157251284 0.0004227414 0.0102684349
v 0.157050937 0.000404486549 0.0100696264
v 0.157145947 0.000121414952 0.0101927537
v 0.157233134 -0.0006034863 0.010280964
v 0.157033473 -0.0005830156 0.0100816824
v 0.157130837 -0.0007322672 0.0101676229
v 0.157216281 -0.00155678485 0.0101111336
v 0.157017246 -0.00150034053 0.00991826
v 0.157200247 -0.00246327021 0.009770647
v 0.1570988 -0.00254389737 0.009617547
v 0.157001808 -0.002372619 0.009590622
v 0.157184735 -0.003339432 0.009236109
v 0.156986892 -0.00321571832 0.009076256
v 0.157081723 -0.00350947375 0.0089712
v 0.157170847 -0.00412467076 0.008510668
v 0.156973541 -0.00397132523 0.00837819
v 0.15706709 -0.004336099 0.008088049
v 0.157159626 -0.00475968933 0.007622573
v 0.156962723 -0.00458238041 0.00752360839
v 0.157056361 -0.00494291261 0.00702221924
v 0.157151848 -0.005199283 0.00662318058
v 0.156955242 -0.00500538573 0.00656192843
v 0.157050386 -0.005280479 0.005860543
v 0.1571479 -0.00542235933 0.005577581
v 0.156951442 -0.005220044 0.00555578526
v 0.157049268 -0.005343518 0.00470019039
v 0.157147676 -0.00543488562 0.00455119275
v 0.1570524 -0.005166893 0.00362420268
v 0.156951234 -0.00523209851 0.004568129
v 0.157150686 -0.005265082 0.00359774521
v 0.156954125 -0.00506870262 0.00365066016
v 0.1571567 -0.00492464844 0.002691118
v 0.156959921 -0.00474111456 0.0027782456
v 0.157059431 -0.00476980349 0.002608709
v 0.157166153 -0.00439019455 0.00181481894
v 0.156969011 -0.00422682939 0.0019350145
v 0.157067582 -0.00430851243 0.00187491626
v 0.157078177 -0.00370922033 0.00120669045
v 0.157178983 -0.003664867 0.001029457
v 0.156981364 -0.00352887274 0.00117928907
v 0.157090932 -0.00298828213 0.0006412687
v 0.157194689 -0.002776911 0.000394338742
v 0.156996474 -0.002674424 0.0005681375
v 0.157105327 -0.00217488268 0.000209318474
v 0.157212362 -0.00177767512 -4.53228131E-05
v 0.157013476 -0.00171289546 0.00014506653
v 0.157120675 -0.00130736071 -7.020496E-05
v 0.157230854 -0.0007322385 -0.000268434174
v 0.157031268 -0.000706909341 -6.96256757E-05
v 0.157136232 -0.0004273749 -0.000192753039
v 0.157249 0.0002939892 -0.000280963257
v 0.157048747 0.000280592853 -8.16797838E-05
v 0.157151341 0.000426307262 -0.000167622231
v 0.157265872 0.00124728773 -0.000111131929
v 0.157064974 0.00119791774 8.174032E-05
v 0.153265566 0.0012651229 8.174032E-05
v 0.157064974 0.00119791774 8.174032E-05
v 0.1570804 0.00207019621 0.00040937867
v 0.155182883 0.00222732965 0.000471253879
v 0.153280988 0.00213740137 0.00040937867
v 0.157095313 0.00291329552 0.0009237444
v 0.1532959 0.00298050069 0.0009237444
v 0.155199632 0.00317433686 0.00110516977
v 0.157108679 0.00366890244 0.00162181165
v 0.153309271 0.00373610761 0.00162181165
v 0.155213967 0.0039850655 0.001971338
v 0.157119483 0.00427995762 0.00247639278
v 0.153320074 0.004347163 0.00247639278
v 0.1552245 0.0045802095 0.00301666977
v 0.157126963 0.004702963 0.00343807181
v 0.153327554 0.004770168 0.00343807181
v 0.155230358 0.00491128443 0.004156007
v 0.157130763 0.004917621 0.00444421545
v 0.153331354 0.00498482632 0.00444421545
v 0.155231446 0.00497311167 0.005294045
v 0.157130972 0.00492967572 0.00543187233
v 0.155228376 0.00479988242 0.00634934055
v 0.153331578 0.004996881 0.00543187233
v 0.157128081 0.00476628 0.00634934055
v 0.153328687 0.004833485 0.00634934055
v 0.157122284 0.004438692 0.00722175557
v 0.15332289 0.004505897 0.00722175557
v 0.155221492 0.00441043 0.00734530529
v 0.1571132 0.0039244066 0.008064987
v 0.153313786 0.003991612 0.008064987
v 0.15521349 0.003958009 0.008064987
v 0.155203089 0.00337024219 0.008720363
v 0.157100856 0.00322645 0.008820713
v 0.153301448 0.003293655 0.008820713
v 0.155190587 0.00266316836 0.009274911
v 0.157085732 0.0023720013 0.009431863
v 0.153286323 0.00243920647 0.009431863
v 0.155176476 0.00186541118 0.009698554
v 0.157068729 0.00141047267 0.009854934
v 0.153269321 0.00147767784 0.009854934
v 0.155161425 0.00101457222 0.009972703
v 0.157050937 0.000404486549 0.0100696264
v 0.153251529 0.000471691717 0.0100696264
v 0.155146167 0.0001515093 0.0100928927
v 0.157033473 -0.0005830156 0.0100816824
v 0.153234065 -0.000515810447 0.0100816824
v 0.155131355 -0.0006857559 0.0100682462
v 0.157017246 -0.00150034053 0.00991826
v 0.153217837 -0.00143313536 0.00991826
v 0.157001808 -0.002372619 0.009590622
v 0.155099928 -0.00246254727 0.009528747
v 0.1532024 -0.00230541383 0.009590622
v 0.156986892 -0.00321571832 0.009076256
v 0.1531875 -0.00314851315 0.009076256
v 0.155083179 -0.00340955448 0.008894831
v 0.156973541 -0.00397132523 0.00837819
v 0.153174132 -0.00390412 0.00837819
v 0.15506883 -0.004220283 0.008028664
v 0.156962723 -0.00458238041 0.00752360839
v 0.153163314 -0.00451517524 0.00752360839
v 0.155058309 -0.004815427 0.00698333047
v 0.156955242 -0.00500538573 0.00656192843
v 0.153155833 -0.00493818056 0.00656192843
v 0.155052453 -0.005146502 0.005843994
v 0.156951442 -0.005220044 0.00555578526
v 0.153152034 -0.005152839 0.00555578526
v 0.155051351 -0.0052083293 0.00470595574
v 0.156951234 -0.00523209851 0.004568129
v 0.15505442 -0.0050351 0.00365066016
v 0.153151825 -0.00516489334 0.004568129
v 0.156954125 -0.00506870262 0.00365066016
v 0.153154716 -0.00500149745 0.00365066016
v 0.156959921 -0.00474111456 0.0027782456
v 0.153160512 -0.0046739094 0.0027782456
v 0.1550613 -0.00464564748 0.002654695
v 0.156969011 -0.00422682939 0.0019350145
v 0.1531696 -0.004159624 0.0019350145
v 0.1550693 -0.004193227 0.0019350145
v 0.155079708 -0.00360545982 0.00127963815
v 0.156981364 -0.00352887274 0.00117928907
v 0.153181955 -0.00346166757 0.00117928907
v 0.15509221 -0.002898386 0.0007250896
v 0.156996474 -0.002674424 0.0005681375
v 0.153197065 -0.002607219 0.0005681375
v 0.155106321 -0.0021006288 0.0003014477
v 0.157013476 -0.00171289546 0.00014506653
v 0.153214067 -0.0016456903 0.00014506653
v 0.155121371 -0.00124978984 2.7297996E-05
v 0.157031268 -0.000706909341 -6.96256757E-05
v 0.153231874 -0.0006397042 -6.96256757E-05
v 0.155136645 -0.000386726926 -9.28919762E-05
v 0.157048747 0.000280592853 -8.16797838E-05
v 0.153249338 0.000347798021 -8.16797838E-05
v 0.155151457 0.0004505383 -6.82445243E-05
v 0.157064974 0.00119791774 8.174032E-05
v 0.153265566 0.0012651229 8.174032E-05
v 0.153249413 0.000352476723 -0.00659120176
v 0.154249266 0.0003347909 -0.00659120176
v 0.154254258 0.0006169987 -0.00648520235
v 0.153755039 0.00066580734 -0.00646518264
v 0.1532544 0.0006346845 -0.00648520235
v 0.154259086 0.000889766146 -0.006318788
v 0.153259233 0.000907451962 -0.006318788
v 0.153760463 0.000972192269 -0.00626009237
v 0.1542634 0.00113422715 -0.006092944
v 0.153263554 0.001151913 -0.006092944
v 0.1537651 0.00123448658 -0.005979861
v 0.1542669 0.00133192167 -0.00581646059
v 0.153267056 0.00134960748 -0.00581646059
v 0.15376851 0.00142703345 -0.00564166624
v 0.154269323 0.00146877626 -0.005505329
v 0.15326947 0.00148646208 -0.005505329
v 0.1537704 0.00153414567 -0.005273057
v 0.154270545 0.0015382244 -0.005179813
v 0.1532707 0.00155591022 -0.005179813
v 0.15377076 0.00155414862 -0.004904867
v 0.154270619 0.00154212432 -0.00486027729
v 0.153769761 0.00149810372 -0.004563449
v 0.153270781 0.00155981013 -0.00486027729
v 0.15426968 0.00148926082 -0.004563449
v 0.153269842 0.00150694663 -0.004563449
v 0.1542678 0.00138327677 -0.00428119674
v 0.153267965 0.00140096259 -0.00428119674
v 0.153767526 0.00137210463 -0.00424122438
v 0.154264867 0.00121689029 -0.004008387
v 0.153265029 0.00123457611 -0.004008387
v 0.153764948 0.0012257332 -0.004008387
v 0.153761581 0.00103557331 -0.003796353
v 0.154260874 0.0009910807 -0.003763887
v 0.153261021 0.00100876647 -0.003763887
v 0.153757527 0.00080681406 -0.00361694116
v 0.154255986 0.00071464153 -0.00356616173
v 0.153256133 0.000732327346 -0.00356616173
v 0.153752968 0.0005487161 -0.00347987935
v 0.154250473 0.000403558661 -0.003429287
v 0.153250635 0.000421244476 -0.003429287
v 0.1537481 0.000273444719 -0.00339118484
v 0.154244721 7.809258E-05 -0.00335982628
v 0.153244883 9.577839E-05 -0.00335982628
v 0.153743163 -5.7815123E-06 -0.00335230026
v 0.154239073 -0.000241393427 -0.00335592683
v 0.15323922 -0.000223707611 -0.00335592683
v 0.153738365 -0.00027666142 -0.00336027332
v 0.154233813 -0.000538175 -0.003408798
v 0.153233975 -0.0005204892 -0.003408798
v 0.154228836 -0.0008203828 -0.00351479836
v 0.1537282 -0.0008515056 -0.00353481714
v 0.153228983 -0.000802697 -0.00351479836
v 0.154224008 -0.00109315023 -0.00368121173
v 0.153224155 -0.00107546442 -0.00368121173
v 0.153722778 -0.00115789054 -0.00373990741
v 0.154219687 -0.00133761123 -0.00390705653
v 0.153219834 -0.00131992542 -0.00390705653
v 0.153718144 -0.00142018485 -0.00402013864
v 0.154216185 -0.00153530575 -0.004183539
v 0.153216347 -0.00151761994 -0.004183539
v 0.153714731 -0.00161273172 -0.00435833447
v 0.154213756 -0.00167216035 -0.004494671
v 0.153213918 -0.00165447453 -0.004494671
v 0.153712839 -0.001719844 -0.00472694263
v 0.154212534 -0.00174160849 -0.00482018664
v 0.1532127 -0.00172392267 -0.00482018664
v 0.153712481 -0.00173984689 -0.00509513263
v 0.15421246 -0.0017455084 -0.00513972249
v 0.15371348 -0.001683802 -0.005436551
v 0.153212622 -0.00172782259 -0.00513972249
v 0.1542134 -0.0016926449 -0.005436551
v 0.153213561 -0.00167495909 -0.005436551
v 0.154215276 -0.00158666086 -0.005718804
v 0.153215438 -0.001568975 -0.005718804
v 0.1537157 -0.0015578029 -0.00575877633
v 0.154218212 -0.00142027438 -0.00599161256
v 0.153218374 -0.00140258856 -0.00599161256
v 0.1537183 -0.00141143147 -0.00599161256
v 0.15372166 -0.00122127158 -0.006203647
v 0.1542222 -0.00119446474 -0.00623611268
v 0.153222367 -0.00117677893 -0.00623611268
v 0.153725713 -0.0009925123 -0.00638305862
v 0.154227108 -0.0009180256 -0.006433838
v 0.153227255 -0.0009003398 -0.006433838
v 0.153730273 -0.0007344144 -0.0065201195
v 0.1542326 -0.000606942747 -0.00657071266
v 0.153232768 -0.000589256932 -0.00657071266
v 0.153735146 -0.000459143 -0.006608815
v 0.154238358 -0.000281476649 -0.00664017443
v 0.15323852 -0.000263790833 -0.00664017443
v 0.153740078 -0.000179916766 -0.00664769951
v 0.154244 3.800934E-05 -0.006644073
v 0.153244168 5.56951563E-05 -0.006644073
v 0.153744876 9.096316E-05 -0.00663972739
v 0.154249266 0.0003347909 -0.00659120176
v 0.153249413 0.000352476723 -0.00659120176
v 0.153072566 -0.00964596 0.00340879848
v 0.1540724 -0.009663646 0.00340879848
v 0.1540774 -0.009381438 0.00351479929
v 0.153578177 -0.00933263 0.0035348176
v 0.153077558 -0.009363752 0.00351479929
v 0.154082224 -0.00910867 0.00368121173
v 0.153082386 -0.009090984 0.00368121173
v 0.1535836 -0.009026245 0.00373990834
v 0.154086545 -0.008864208 0.00390705653
v 0.1530867 -0.008846522 0.00390705653
v 0.15358825 -0.00876395 0.00402013864
v 0.154090047 -0.008666514 0.004183539
v 0.1530902 -0.008648829 0.004183539
v 0.153591648 -0.008571403 0.004358335
v 0.154092461 -0.00852966 0.004494671
v 0.153092623 -0.00851197448 0.004494671
v 0.15359354 -0.008464291 0.00472694356
v 0.1540937 -0.008460212 0.00482018758
v 0.153093845 -0.008442526 0.00482018758
v 0.1535939 -0.008444288 0.00509513263
v 0.154093757 -0.008456313 0.00513972342
v 0.1535929 -0.008500333 0.00543655176
v 0.153093919 -0.008438627 0.00513972342
v 0.154092833 -0.008509176 0.00543655176
v 0.15309298 -0.00849149 0.00543655176
v 0.154090956 -0.008615159 0.0057188035
v 0.1530911 -0.008597474 0.0057188035
v 0.153590679 -0.00862633251 0.005758776
v 0.154088 -0.008781546 0.00599161349
v 0.153088167 -0.00876386 0.00599161349
v 0.153588086 -0.008772703 0.00599161349
v 0.153584719 -0.008962863 0.006203647
v 0.154084012 -0.009007355 0.00623611268
v 0.153084174 -0.008989669 0.00623611268
v 0.15358068 -0.009191623 0.00638306
v 0.154079124 -0.009283795 0.00643383851
v 0.153079286 -0.009266109 0.00643383851
v 0.1535761 -0.00944972 0.00652012043
v 0.154073626 -0.009594878 0.00657071453
v 0.153073773 -0.009577192 0.00657071453
v 0.153571248 -0.009724991 0.006608816
v 0.154067874 -0.009920344 0.00664017349
v 0.153068021 -0.009902658 0.00664017349
v 0.1535663 -0.0100042177 0.006647701
v 0.154062212 -0.0102398293 0.006644074
v 0.153062373 -0.0102221435 0.006644074
v 0.153561518 -0.0102750976 0.006639727
v 0.154056966 -0.0105366111 0.006591202
v 0.153057128 -0.0105189253 0.006591202
v 0.154051974 -0.0108188195 0.00648520142
v 0.15355134 -0.0108499425 0.006465183
v 0.153052136 -0.0108011337 0.00648520142
v 0.154047146 -0.0110915862 0.006318789
v 0.153047308 -0.0110739 0.006318789
v 0.153545931 -0.011156328 0.00626009237
v 0.154042825 -0.0113360472 0.006092944
v 0.153042987 -0.0113183614 0.006092944
v 0.153541282 -0.011418622 0.005979862
v 0.154039323 -0.0115337418 0.00581646152
v 0.153039485 -0.011516056 0.00581646152
v 0.153537884 -0.0116111673 0.00564166624
v 0.154036909 -0.0116705969 0.00550533039
v 0.153037071 -0.0116529111 0.00550533039
v 0.153535992 -0.0117182806 0.005273057
v 0.154035673 -0.0117400447 0.005179813
v 0.153035834 -0.0117223589 0.005179813
v 0.153535634 -0.0117382836 0.004904868
v 0.154035613 -0.011743946 0.00486027729
v 0.153536618 -0.0116822384 0.00456344942
v 0.15303576 -0.01172626 0.00486027729
v 0.154036552 -0.0116910813 0.00456344942
v 0.1530367 -0.0116733955 0.00456344942
v 0.154038414 -0.0115850968 0.00428119767
v 0.153038576 -0.011567411 0.00428119767
v 0.153538853 -0.0115562389 0.004241226
v 0.154041365 -0.0114187114 0.004008387
v 0.153041527 -0.0114010256 0.004008387
v 0.153541446 -0.0114098685 0.004008387
v 0.1535448 -0.0112197073 0.003796354
v 0.154045358 -0.011192902 0.00376388757
v 0.15304552 -0.0111752162 0.00376388757
v 0.153548852 -0.0109909484 0.00361694163
v 0.154050246 -0.0109164631 0.00356616266
v 0.153050408 -0.0108987773 0.00356616266
v 0.153553411 -0.01073285 0.00347988075
v 0.154055744 -0.010605379 0.003429287
v 0.1530559 -0.0105876932 0.003429287
v 0.153558284 -0.01045758 0.00339118484
v 0.154061511 -0.0102799125 0.00335982721
v 0.153061658 -0.0102622267 0.00335982721
v 0.153563231 -0.0101783527 0.0033522998
v 0.154067159 -0.009960426 0.0033559273
v 0.153067321 -0.00994274 0.0033559273
v 0.153568015 -0.009907474 0.00336027425
v 0.1540724 -0.009663646 0.00340879848
v 0.153072566 -0.00964596 0.00340879848
v 0.153249413 0.000352476723 0.0134087987
v 0.154249266 0.0003347909 0.0134087987
v 0.154254258 0.0006169987 0.0135148
v 0.153755039 0.00066580734 0.0135348178
v 0.1532544 0.0006346845 0.0135148
v 0.154259086 0.000889766146 0.0136812124
v 0.153259233 0.000907451962 0.0136812124
v 0.153760463 0.000972192269 0.013739909
v 0.1542634 0.00113422715 0.0139070572
v 0.153263554 0.001151913 0.0139070572
v 0.1537651 0.00123448658 0.0140201394
v 0.1542669 0.00133192167 0.01418354
v 0.153267056 0.00134960748 0.01418354
v 0.15376851 0.00142703345 0.0143583352
v 0.154269323 0.00146877626 0.0144946706
v 0.15326947 0.00148646208 0.0144946706
v 0.1537704 0.00153414567 0.0147269443
v 0.154270545 0.0015382244 0.0148201883
v 0.1532707 0.00155591022 0.0148201883
v 0.15377076 0.00155414862 0.0150951333
v 0.154270619 0.00154212432 0.0151397241
v 0.153769761 0.00149810372 0.0154365525
v 0.153270781 0.00155981013 0.0151397241
v 0.15426968 0.00148926082 0.0154365525
v 0.153269842 0.00150694663 0.0154365525
v 0.1542678 0.00138327677 0.0157188028
v 0.153267965 0.00140096259 0.0157188028
v 0.153767526 0.00137210463 0.0157587752
v 0.154264867 0.00121689029 0.0159916133
v 0.153265029 0.00123457611 0.0159916133
v 0.153764948 0.0012257332 0.0159916133
v 0.153761581 0.00103557331 0.0162036475
v 0.154260874 0.0009910807 0.0162361134
v 0.153261021 0.00100876647 0.0162361134
v 0.153757527 0.00080681406 0.01638306
v 0.154255986 0.00071464153 0.0164338388
v 0.153256133 0.000732327346 0.0164338388
v 0.153752968 0.0005487161 0.01652012
v 0.154250473 0.000403558661 0.0165707134
v 0.153250635 0.000421244476 0.0165707134
v 0.1537481 0.000273444719 0.0166088156
v 0.154244721 7.809258E-05 0.0166401751
v 0.153244883 9.577839E-05 0.0166401751
v 0.153743163 -5.7815123E-06 0.0166477021
v 0.154239073 -0.000241393427 0.0166440737
v 0.15323922 -0.000223707611 0.0166440737
v 0.153738365 -0.00027666142 0.0166397281
v 0.154233813 -0.000538175 0.0165912025
v 0.153233975 -0.0005204892 0.0165912025
v 0.154228836 -0.0008203828 0.0164852031
v 0.1537282 -0.0008515056 0.0164651833
v 0.153228983 -0.000802697 0.0164852031
v 0.154224008 -0.00109315023 0.01631879
v 0.153224155 -0.00107546442 0.01631879
v 0.153722778 -0.00115789054 0.0162600931
v 0.154219687 -0.00133761123 0.0160929449
v 0.153219834 -0.00131992542 0.0160929449
v 0.153718144 -0.00142018485 0.0159798637
v 0.154216185 -0.00153530575 0.0158164613
v 0.153216347 -0.00151761994 0.0158164613
v 0.153714731 -0.00161273172 0.0156416669
v 0.154213756 -0.00167216035 0.0155053306
v 0.153213918 -0.00165447453 0.0155053306
v 0.153712839 -0.001719844 0.0152730579
v 0.154212534 -0.00174160849 0.0151798138
v 0.1532127 -0.00172392267 0.0151798138
v 0.153712481 -0.00173984689 0.0149048688
v 0.15421246 -0.0017455084 0.014860278
v 0.15371348 -0.001683802 0.01456345
v 0.153212622 -0.00172782259 0.014860278
v 0.1542134 -0.0016926449 0.01456345
v 0.153213561 -0.00167495909 0.01456345
v 0.154215276 -0.00158666086 0.0142811984
v 0.153215438 -0.001568975 0.0142811984
v 0.1537157 -0.0015578029 0.014241226
v 0.154218212 -0.00142027438 0.0140083879
v 0.153218374 -0.00140258856 0.0140083879
v 0.1537183 -0.00141143147 0.0140083879
v 0.15372166 -0.00122127158 0.0137963546
v 0.1542222 -0.00119446474 0.0137638887
v 0.153222367 -0.00117677893 0.0137638887
v 0.153725713 -0.0009925123 0.0136169419
v 0.154227108 -0.0009180256 0.0135661624
v 0.153227255 -0.0009003398 0.0135661624
v 0.153730273 -0.0007344144 0.013479881
v 0.1542326 -0.000606942747 0.0134292869
v 0.153232768 -0.000589256932 0.0134292869
v 0.153735146 -0.000459143 0.0133911856
v 0.154238358 -0.000281476649 0.0133598279
v 0.15323852 -0.000263790833 0.0133598279
v 0.153740078 -0.000179916766 0.013352301
v 0.154244 3.800934E-05 0.0133559275
v 0.153244168 5.56951563E-05 0.0133559275
v 0.153744876 9.096316E-05 0.013360275
v 0.154249266 0.0003347909 0.0134087987
v 0.153249413 0.000352476723 0.0134087987
v 0.153426275 0.0103509128 0.00340879848
v 0.154426113 0.010333227 0.00340879848
v 0.1544311 0.0106154354 0.00351479929
v 0.1539319 0.0106642442 0.0035348176
v 0.153431267 0.0106331212 0.00351479929
v 0.154435933 0.0108882021 0.00368121173
v 0.1534361 0.0109058879 0.00368121173
v 0.15393731 0.01097063 0.00373990834
v 0.154440254 0.0111326631 0.00390705653
v 0.153440416 0.0111503489 0.00390705653
v 0.153941959 0.0112329237 0.00402013864
v 0.154443756 0.0113303578 0.004183539
v 0.153443918 0.0113480436 0.004183539
v 0.153945357 0.0114254691 0.004358335
v 0.15444617 0.0114672128 0.004494671
v 0.153446332 0.0114848986 0.004494671
v 0.153947249 0.0115325823 0.00472694356
v 0.1544474 0.0115366606 0.00482018758
v 0.153447568 0.0115543464 0.00482018758
v 0.1539476 0.0115525853 0.00509513263
v 0.154447466 0.0115405619 0.00513972342
v 0.153946608 0.01149654 0.00543655176
v 0.153447628 0.0115582477 0.00513972342
v 0.154446542 0.0114876973 0.00543655176
v 0.153446689 0.0115053831 0.00543655176
v 0.154444665 0.0113817127 0.0057188035
v 0.153444827 0.0113993986 0.0057188035
v 0.153944388 0.0113705406 0.005758776
v 0.154441714 0.0112153273 0.00599161349
v 0.153441876 0.0112330131 0.00599161349
v 0.1539418 0.01122417 0.00599161349
v 0.153938442 0.011034009 0.006203647
v 0.154437721 0.0109895179 0.00623611268
v 0.153437883 0.0110072037 0.00623611268
v 0.153934389 0.01080525 0.00638306
v 0.154432833 0.010713079 0.00643383851
v 0.153433 0.0107307648 0.00643383851
v 0.15392983 0.0105471518 0.00652012043
v 0.154427335 0.0104019949 0.00657071453
v 0.1534275 0.0104196807 0.00657071453
v 0.153924957 0.0102718817 0.006608816
v 0.154421583 0.0100765284 0.00664017349
v 0.15342173 0.0100942142 0.00664017349
v 0.15392001 0.009992654 0.006647701
v 0.15441592 0.009757042 0.006644074
v 0.153416082 0.009774728 0.006644074
v 0.153915226 0.009721776 0.006639727
v 0.154410675 0.009460262 0.006591202
v 0.153410837 0.009477948 0.006591202
v 0.154405683 0.009178054 0.00648520142
v 0.153905049 0.009146932 0.006465183
v 0.153405845 0.009195739 0.00648520142
v 0.154400855 0.008905286 0.006318789
v 0.153401017 0.008922972 0.006318789
v 0.15389964 0.008840547 0.00626009237
v 0.154396534 0.008660824 0.006092944
v 0.1533967 0.00867851 0.006092944
v 0.153894991 0.008578252 0.005979862
v 0.154393032 0.00846313 0.00581646152
v 0.1533932 0.008480816 0.00581646152
v 0.1538916 0.008385705 0.00564166624
v 0.154390618 0.008326276 0.00550533039
v 0.15339078 0.008343962 0.00550533039
v 0.1538897 0.00827859249 0.005273057
v 0.1543894 0.00825682748 0.005179813
v 0.153389543 0.008274513 0.005179813
v 0.153889343 0.00825859 0.004904868
v 0.154389322 0.008252929 0.00486027729
v 0.153890342 0.008314635 0.00456344942
v 0.153389484 0.008270615 0.00486027729
v 0.154390261 0.008305792 0.00456344942
v 0.153390408 0.008323478 0.00456344942
v 0.154392123 0.008411775 0.00428119767
v 0.153392285 0.008429461 0.00428119767
v 0.153892562 0.008440634 0.004241226
v 0.154395074 0.008578162 0.004008387
v 0.153395236 0.00859584752 0.004008387
v 0.153895155 0.008587005 0.004008387
v 0.1538985 0.008777165 0.003796354
v 0.154399067 0.008803971 0.00376388757
v 0.153399229 0.008821657 0.00376388757
v 0.15390256 0.009005925 0.00361694163
v 0.154403955 0.009080411 0.00356616266
v 0.153404117 0.009098097 0.00356616266
v 0.15390712 0.009264022 0.00347988075
v 0.154409453 0.009391494 0.003429287
v 0.153409615 0.00940918 0.003429287
v 0.153912 0.009539293 0.00339118484
v 0.15441522 0.00971696 0.00335982721
v 0.153415367 0.00973464549 0.00335982721
v 0.15391694 0.009818519 0.0033522998
v 0.154420868 0.0100364452 0.0033559273
v 0.153421029 0.010054131 0.0033559273
v 0.153921723 0.0100893993 0.00336027425
v 0.154426113 0.010333227 0.00340879848
v 0.153426275 0.0103509128 0.00340879848
v 0.153265566 0.0012651229 8.174032E-05
v 0.153267965 0.00140096259 -0.00428119674
v 0.153265029 0.00123457611 -0.004008387
v 0.153261021 0.00100876647 -0.003763887
v 0.153256133 0.000732327346 -0.00356616173
v 0.153269842 0.00150694663 -0.004563449
v 0.153323591 0.00454535848 -0.0118763829
v 0.153270781 0.00155981013 -0.00486027729
v 0.1532707 0.00155591022 -0.005179813
v 0.15326947 0.00148646208 -0.005505329
v 0.153267056 0.00134960748 -0.00581646059
v 0.153263554 0.001151913 -0.006092944
v 0.153259233 0.000907451962 -0.006318788
v 0.153250635 0.000421244476 -0.003429287
v 0.153296441 0.00301045156 -0.01222415
v 0.1532544 0.0006346845 -0.00648520235
v 0.1532679 0.001397675 -0.0124371434
v 0.153249413 0.000352476723 -0.00659120176
v 0.153244168 5.56951563E-05 -0.006644073
v 0.1532383 -0.000276289 -0.0124989441
v 0.15323852 -0.000263790833 -0.00664017443
v 0.153207973 -0.00199081283 -0.012395774
v 0.153232768 -0.000589256932 -0.00657071266
v 0.153227255 -0.0009003398 -0.006433838
v 0.153177351 -0.00372183486 -0.0121175954
v 0.153222367 -0.00117677893 -0.00623611268
v 0.153146908 -0.00544272643 -0.0116590867
v 0.153218374 -0.00140258856 -0.00599161256
v 0.153215438 -0.001568975 -0.005718804
v 0.15311715 -0.00712547358 -0.0110203689
v 0.153213561 -0.00167495909 -0.005436551
v 0.153088555 -0.00874209 -0.0102073709
v 0.153212622 -0.00172782259 -0.00513972249
v 0.1530616 -0.01026611 -0.009231738
v 0.1532127 -0.00172392267 -0.00482018664
v 0.153036684 -0.01167402 -0.008110286
v 0.153213918 -0.00165447453 -0.004494671
v 0.153181955 -0.00346166757 0.00117928907
v 0.153014183 -0.0129464408 -0.00686406437
v 0.153216347 -0.00151761994 -0.004183539
v 0.153197065 -0.002607219 0.0005681375
v 0.153219834 -0.00131992542 -0.00390705653
v 0.1531696 -0.004159624 0.0019350145
v 0.152994335 -0.01406897 -0.0055171093
v 0.152977288 -0.0150325987 -0.00409503747
v 0.153214067 -0.0016456903 0.00014506653
v 0.153224155 -0.00107546442 -0.00368121173
v 0.153228983 -0.000802697 -0.00351479836
v 0.153160512 -0.0046739094 0.0027782456
v 0.152963117 -0.0158336759 -0.00262366887
v 0.152951792 -0.0164735243 -0.00112777669
v 0.153154716 -0.00500149745 0.00365066016
v 0.152943224 -0.0169577487 0.000369912
v 0.153072566 -0.00964596 0.00340879848
v 0.153231874 -0.0006397042 -6.96256757E-05
v 0.153233975 -0.0005204892 -0.003408798
v 0.15323922 -0.000223707611 -0.00335592683
v 0.153249338 0.000347798021 -8.16797838E-05
v 0.153244883 9.577839E-05 -0.00335982628
v 0.153067321 -0.00994274 0.0033559273
v 0.153077558 -0.009363752 0.00351479929
v 0.153061658 -0.0102622267 0.00335982721
v 0.153082386 -0.009090984 0.00368121173
v 0.1530559 -0.0105876932 0.003429287
v 0.1530867 -0.008846522 0.00390705653
v 0.1530902 -0.008648829 0.004183539
v 0.153092623 -0.00851197448 0.004494671
v 0.153050408 -0.0108987773 0.00356616266
v 0.15304552 -0.0111752162 0.00376388757
v 0.153041527 -0.0114010256 0.004008387
v 0.152937084 -0.0173054636 0.00190505851
v 0.153038576 -0.011567411 0.00428119767
v 0.153151825 -0.00516489334 0.004568129
v 0.153093845 -0.008442526 0.00482018758
v 0.153093919 -0.008438627 0.00513972342
v 0.152933314 -0.0175184235 0.00351808779
v 0.1530367 -0.0116733955 0.00456344942
v 0.15303576 -0.01172626 0.00486027729
v 0.152932227 -0.0175802149 0.00519231334
v 0.153035834 -0.0117223589 0.005179813
v 0.153152034 -0.005152839 0.00555578526
v 0.15309298 -0.00849149 0.00543655176
v 0.1530911 -0.008597474 0.0057188035
v 0.152934045 -0.0174770616 0.00690710545
v 0.153037071 -0.0116529111 0.00550533039
v 0.153039485 -0.011516056 0.00581646152
v 0.152938962 -0.017198924 0.008638398
v 0.153042987 -0.0113183614 0.006092944
v 0.153155833 -0.00493818056 0.00656192843
v 0.153088167 -0.00876386 0.00599161349
v 0.153084174 -0.008989669 0.00623611268
v 0.153163314 -0.00451517524 0.00752360839
v 0.153079286 -0.009266109 0.00643383851
v 0.152947068 -0.016740486 0.0103595583
v 0.153047308 -0.0110739 0.006318789
v 0.153052136 -0.0108011337 0.00648520142
v 0.152958363 -0.01610187 0.012042569
v 0.153057128 -0.0105189253 0.006591202
v 0.152972743 -0.0152889993 0.0136594381
v 0.153062373 -0.0102221435 0.006644074
v 0.15299 -0.0143135171 0.0151836984
v 0.153068021 -0.009902658 0.00664017349
v 0.153174132 -0.00390412 0.00837819
v 0.153009832 -0.01319224 0.0165918283
v 0.153073773 -0.009577192 0.00657071453
v 0.153031871 -0.0119462172 0.0178644471
v 0.1531875 -0.00314851315 0.009076256
v 0.1530557 -0.0105994716 0.0189871527
v 0.153080851 -0.009177621 0.01995093
v 0.1532024 -0.00230541383 0.009590622
v 0.153106868 -0.007706483 0.0207521319
v 0.153133333 -0.006210825 0.0213920828
v 0.153217837 -0.00143313536 0.00991826
v 0.153159812 -0.004713371 0.0218763836
v 0.153213561 -0.00167495909 0.01456345
v 0.153212622 -0.00172782259 0.014860278
v 0.153215438 -0.001568975 0.0142811984
v 0.1532127 -0.00172392267 0.0151798138
v 0.153218374 -0.00140258856 0.0140083879
v 0.153213918 -0.00165447453 0.0155053306
v 0.153222367 -0.00117677893 0.0137638887
v 0.153227255 -0.0009003398 0.0135661624
v 0.153232768 -0.000589256932 0.0134292869
v 0.153216347 -0.00151761994 0.0158164613
v 0.153219834 -0.00131992542 0.0160929449
v 0.153224155 -0.00107546442 0.01631879
v 0.153186962 -0.003178464 0.02222415
v 0.153228983 -0.000802697 0.0164852031
v 0.153234065 -0.000515810447 0.0100816824
v 0.15323852 -0.000263790833 0.0133598279
v 0.153244168 5.56951563E-05 0.0133559275
v 0.153215483 -0.00156568747 0.0224371441
v 0.153233975 -0.0005204892 0.0165912025
v 0.15323922 -0.000223707611 0.0166440737
v 0.1532451 0.000108276552 0.0224989448
v 0.153244883 9.577839E-05 0.0166401751
v 0.153251529 0.000471691717 0.0100696264
v 0.153249413 0.000352476723 0.0134087987
v 0.1532544 0.0006346845 0.0135148
v 0.15327543 0.00182280038 0.0223957747
v 0.153250635 0.000421244476 0.0165707134
v 0.153256133 0.000732327346 0.0164338388
v 0.153306037 0.0035538224 0.0221175961
v 0.153261021 0.00100876647 0.0162361134
v 0.153269321 0.00147767784 0.009854934
v 0.153259233 0.000907451962 0.0136812124
v 0.153263554 0.001151913 0.0139070572
v 0.153286323 0.00243920647 0.009431863
v 0.153267056 0.00134960748 0.01418354
v 0.15333648 0.005274714 0.0216590874
v 0.153265029 0.00123457611 0.0159916133
v 0.153267965 0.00140096259 0.0157188028
v 0.153366253 0.006957461 0.0210203715
v 0.153269842 0.00150694663 0.0154365525
v 0.153394848 0.008574078 0.0202073716
v 0.153270781 0.00155981013 0.0151397241
v 0.1534218 0.0100980978 0.0192317367
v 0.1532707 0.00155591022 0.0148201883
v 0.153301448 0.003293655 0.008820713
v 0.1534467 0.011506008 0.0181102864
v 0.15326947 0.00148646208 0.0144946706
v 0.1534692 0.0127784284 0.0168640651
v 0.153313786 0.003991612 0.008064987
v 0.153489068 0.013900958 0.01551711
v 0.153506115 0.0148645863 0.0140950382
v 0.15332289 0.004505897 0.00722175557
v 0.153520286 0.0156656615 0.01262367
v 0.1535316 0.0163055137 0.0111277783
v 0.153328687 0.004833485 0.00634934055
v 0.153540164 0.0167897381 0.00963009
v 0.153410837 0.009477948 0.006591202
v 0.153416082 0.009774728 0.006644074
v 0.153405845 0.009195739 0.00648520142
v 0.15342173 0.0100942142 0.00664017349
v 0.153401017 0.008922972 0.006318789
v 0.1534275 0.0104196807 0.00657071453
v 0.1533967 0.00867851 0.006092944
v 0.1533932 0.008480816 0.00581646152
v 0.15339078 0.008343962 0.00550533039
v 0.153433 0.0107307648 0.00643383851
v 0.153437883 0.0110072037 0.00623611268
v 0.153441876 0.0112330131 0.00599161349
v 0.153546318 0.017137453 0.008094942
v 0.153444827 0.0113993986 0.0057188035
v 0.153331578 0.004996881 0.00543187233
v 0.153389543 0.008274513 0.005179813
v 0.153389484 0.008270615 0.00486027729
v 0.153550088 0.01735041 0.006481914
v 0.153446689 0.0115053831 0.00543655176
v 0.153447628 0.0115582477 0.00513972342
v 0.153551176 0.0174122 0.00480768736
v 0.153447568 0.0115543464 0.00482018758
v 0.153331354 0.00498482632 0.00444421545
v 0.153390408 0.008323478 0.00456344942
v 0.153392285 0.008429461 0.00428119767
v 0.153549343 0.0173090473 0.00309289573
v 0.153446332 0.0114848986 0.004494671
v 0.153443918 0.0113480436 0.004183539
v 0.153544426 0.0170309134 0.00136160292
v 0.153440416 0.0111503489 0.00390705653
v 0.153327554 0.004770168 0.00343807181
v 0.153395236 0.00859584752 0.004008387
v 0.153399229 0.008821657 0.00376388757
v 0.153320074 0.004347163 0.00247639278
v 0.153404117 0.009098097 0.00356616266
v 0.15353632 0.0165724754 -0.000359557569
v 0.1534361 0.0109058879 0.00368121173
v 0.153431267 0.0106331212 0.00351479929
v 0.153525025 0.01593386 -0.00204256736
v 0.153426275 0.0103509128 0.00340879848
v 0.153510645 0.0151209868 -0.00365943648
v 0.153421029 0.010054131 0.0033559273
v 0.153493389 0.0141455047 -0.00518369675
v 0.153415367 0.00973464549 0.00335982721
v 0.153309271 0.00373610761 0.00162181165
v 0.153473556 0.0130242277 -0.00659182575
v 0.153409615 0.00940918 0.003429287
v 0.153451517 0.0117782047 -0.007864446
v 0.1532959 0.00298050069 0.0009237444
v 0.1534277 0.0104314592 -0.008987152
v 0.153402552 0.009009609 -0.009950931
v 0.153280988 0.00213740137 0.00040937867
v 0.15337652 0.00753847044 -0.0107521312
v 0.15335007 0.00604281249 -0.01139208
v 0.1544184 0.009896745 0.00176683813
v 0.154426113 0.010333227 0.00340879848
v 0.154420868 0.0100364452 0.0033559273
v 0.15441522 0.00971696 0.00335982721
v 0.1544311 0.0106154354 0.00351479929
v 0.154409453 0.009391494 0.003429287
v 0.154435933 0.0108882021 0.00368121173
v 0.154403955 0.009080411 0.00356616266
v 0.154467911 0.0126963062 0.00338342
v 0.154368877 0.007097183 0.00338342
v 0.154440254 0.0111326631 0.00390705653
v 0.154399067 0.008803971 0.00376388757
v 0.154443756 0.0113303578 0.004183539
v 0.154395074 0.008578162 0.004008387
v 0.15444617 0.0114672128 0.004494671
v 0.1544474 0.0115366606 0.00482018758
v 0.154447466 0.0115405619 0.00513972342
v 0.154392123 0.008411775 0.00428119767
v 0.154390261 0.008305792 0.00456344942
v 0.154389322 0.008252929 0.00486027729
v 0.154467911 0.0126963062 0.006616581
v 0.154368877 0.007097183 0.006616581
v 0.154446542 0.0114876973 0.00543655176
v 0.1543894 0.00825682748 0.005179813
v 0.154444665 0.0113817127 0.0057188035
v 0.154390618 0.008326276 0.00550533039
v 0.154441714 0.0112153273 0.00599161349
v 0.154437721 0.0109895179 0.00623611268
v 0.154432833 0.010713079 0.00643383851
v 0.1544184 0.009896745 0.008233162
v 0.154393032 0.00846313 0.00581646152
v 0.154396534 0.008660824 0.006092944
v 0.154400855 0.008905286 0.006318789
v 0.154427335 0.0104019949 0.00657071453
v 0.154405683 0.009178054 0.00648520142
v 0.154421583 0.0100765284 0.00664017349
v 0.154410675 0.009460262 0.006591202
v 0.15441592 0.009757042 0.006644074
v 0.1558934 0.008470435 0.00742487144
v 0.1544184 0.009896745 0.008233162
v 0.157417923 0.009843688 0.008233162
v 0.1573684 0.00704412628 0.006616581
v 0.154368877 0.007097183 0.006616581
v 0.155868649 0.00707065454 0.00500000035
v 0.1573684 0.00704412628 0.006616581
v 0.1573684 0.00704412628 0.00338342
v 0.154368877 0.007097183 0.00338342
v 0.154368877 0.007097183 0.006616581
v 0.1558934 0.008470435 0.00257512927
v 0.1573684 0.00704412628 0.00338342
v 0.157417923 0.009843688 0.00176683813
v 0.1544184 0.009896745 0.00176683813
v 0.154368877 0.007097183 0.00338342
v 0.155942917 0.0112699978 0.00257512927
v 0.157417923 0.009843688 0.00176683813
v 0.157467455 0.01264325 0.00338342
v 0.154467911 0.0126963062 0.00338342
v 0.1544184 0.009896745 0.00176683813
v 0.155967683 0.0126697775 0.00500000035
v 0.157467455 0.01264325 0.00338342
v 0.157467455 0.01264325 0.006616581
v 0.154467911 0.0126963062 0.006616581
v 0.154467911 0.0126963062 0.00338342
v 0.155942917 0.0112699978 0.00742487144
v 0.157467455 0.01264325 0.006616581
v 0.157417923 0.009843688 0.008233162
v 0.1544184 0.009896745 0.008233162
v 0.154467911 0.0126963062 0.006616581
v 0.154212952 -0.00171802007 -0.007799999
v 0.154238358 -0.000281476649 -0.00664017443
v 0.1542326 -0.000606942747 -0.00657071266
v 0.154227108 -0.0009180256 -0.006433838
v 0.1542222 -0.00119446474 -0.00623611268
v 0.154244 3.800934E-05 -0.006644073
v 0.154218212 -0.00142027438 -0.00599161256
v 0.154184356 -0.003334348 -0.005
v 0.154270127 0.001514636 -0.007799999
v 0.154215276 -0.00158666086 -0.005718804
v 0.154249266 0.0003347909 -0.00659120176
v 0.1542134 -0.0016926449 -0.005436551
v 0.154254258 0.0006169987 -0.00648520235
v 0.15421246 -0.0017455084 -0.00513972249
v 0.154259086 0.000889766146 -0.006318788
v 0.1542634 0.00113422715 -0.006092944
v 0.1542669 0.00133192167 -0.00581646059
v 0.154298723 0.003130964 -0.005
v 0.154212534 -0.00174160849 -0.00482018664
v 0.154213756 -0.00167216035 -0.004494671
v 0.154216185 -0.00153530575 -0.004183539
v 0.154269323 0.00146877626 -0.005505329
v 0.154212952 -0.00171802007 -0.0022
v 0.154270545 0.0015382244 -0.005179813
v 0.154219687 -0.00133761123 -0.00390705653
v 0.154270619 0.00154212432 -0.00486027729
v 0.154224008 -0.00109315023 -0.00368121173
v 0.15426968 0.00148926082 -0.004563449
v 0.1542678 0.00138327677 -0.00428119674
v 0.154264867 0.00121689029 -0.004008387
v 0.154228836 -0.0008203828 -0.00351479836
v 0.154233813 -0.000538175 -0.003408798
v 0.154239073 -0.000241393427 -0.00335592683
v 0.154270127 0.001514636 -0.0022
v 0.154260874 0.0009910807 -0.003763887
v 0.154244721 7.809258E-05 -0.00335982628
v 0.154255986 0.00071464153 -0.00356616173
v 0.154250473 0.000403558661 -0.003429287
v 0.15578419 0.00229627173 -0.0036000004
v 0.154298723 0.003130964 -0.005
v 0.157298252 0.00307790749 -0.005
v 0.157269657 0.00146157946 -0.0022
v 0.154270127 0.001514636 -0.0022
v 0.1557413 -0.0001282203 -0.0022
v 0.157269657 0.00146157946 -0.0022
v 0.157212481 -0.00177107658 -0.0022
v 0.154212952 -0.00171802007 -0.0022
v 0.154270127 0.001514636 -0.0022
v 0.155698419 -0.00255271234 -0.0036000004
v 0.157212481 -0.00177107658 -0.0022
v 0.157183886 -0.00338740461 -0.005
v 0.154184356 -0.003334348 -0.005
v 0.154212952 -0.00171802007 -0.0022
v 0.155698419 -0.00255271234 -0.00639999937
v 0.157183886 -0.00338740461 -0.005
v 0.157212481 -0.00177107658 -0.007799999
v 0.154212952 -0.00171802007 -0.007799999
v 0.154184356 -0.003334348 -0.005
v 0.1557413 -0.0001282203 -0.007799999
v 0.157212481 -0.00177107658 -0.007799999
v 0.157269657 0.00146157946 -0.007799999
v 0.154270127 0.001514636 -0.007799999
v 0.154212952 -0.00171802007 -0.007799999
v 0.15578419 0.00229627173 -0.00639999937
v 0.157269657 0.00146157946 -0.007799999
v 0.157298252 0.00307790749 -0.005
v 0.154298723 0.003130964 -0.005
v 0.154270127 0.001514636 -0.007799999
v 0.154064685 -0.0101001291 0.00176683813
v 0.1540724 -0.009663646 0.00340879848
v 0.154067159 -0.009960426 0.0033559273
v 0.154061511 -0.0102799125 0.00335982721
v 0.1540774 -0.009381438 0.00351479929
v 0.154055744 -0.010605379 0.003429287
v 0.154082224 -0.00910867 0.00368121173
v 0.154050246 -0.0109164631 0.00356616266
v 0.1541142 -0.007300567 0.00338342
v 0.154015169 -0.01289969 0.00338342
v 0.154086545 -0.008864208 0.00390705653
v 0.154045358 -0.011192902 0.00376388757
v 0.154090047 -0.008666514 0.004183539
v 0.154041365 -0.0114187114 0.004008387
v 0.154092461 -0.00852966 0.004494671
v 0.1540937 -0.008460212 0.00482018758
v 0.154093757 -0.008456313 0.00513972342
v 0.154038414 -0.0115850968 0.00428119767
v 0.154036552 -0.0116910813 0.00456344942
v 0.154035613 -0.011743946 0.00486027729
v 0.1541142 -0.007300567 0.006616581
v 0.154015169 -0.01289969 0.006616581
v 0.154092833 -0.008509176 0.00543655176
v 0.154035673 -0.0117400447 0.005179813
v 0.154090956 -0.008615159 0.0057188035
v 0.154036909 -0.0116705969 0.00550533039
v 0.154088 -0.008781546 0.00599161349
v 0.154084012 -0.009007355 0.00623611268
v 0.154079124 -0.009283795 0.00643383851
v 0.154064685 -0.0101001291 0.008233162
v 0.154039323 -0.0115337418 0.00581646152
v 0.154042825 -0.0113360472 0.006092944
v 0.154047146 -0.0110915862 0.006318789
v 0.154073626 -0.009594878 0.00657071453
v 0.154051974 -0.0108188195 0.00648520142
v 0.154067874 -0.009920344 0.00664017349
v 0.154056966 -0.0105366111 0.006591202
v 0.154062212 -0.0102398293 0.006644074
v 0.155589208 -0.008726876 0.00257512927
v 0.154064685 -0.0101001291 0.00176683813
v 0.157064214 -0.0101531856 0.00176683813
v 0.157113731 -0.0073536234 0.00338342
v 0.1541142 -0.007300567 0.00338342
v 0.155613974 -0.007327095 0.00500000035
v 0.157113731 -0.0073536234 0.00338342
v 0.157113731 -0.0073536234 0.006616581
v 0.1541142 -0.007300567 0.006616581
v 0.1541142 -0.007300567 0.00338342
v 0.155589208 -0.008726876 0.00742487144
v 0.157113731 -0.0073536234 0.006616581
v 0.157064214 -0.0101531856 0.008233162
v 0.154064685 -0.0101001291 0.008233162
v 0.1541142 -0.007300567 0.006616581
v 0.155539691 -0.0115264393 0.00742487144
v 0.157064214 -0.0101531856 0.008233162
v 0.1570147 -0.0129527468 0.006616581
v 0.154015169 -0.01289969 0.006616581
v 0.154064685 -0.0101001291 0.008233162
v 0.155514926 -0.012926219 0.00500000035
v 0.1570147 -0.0129527468 0.006616581
v 0.1570147 -0.0129527468 0.00338342
v 0.154015169 -0.01289969 0.00338342
v 0.154015169 -0.01289969 0.006616581
v 0.155539691 -0.0115264393 0.00257512927
v 0.1570147 -0.0129527468 0.00338342
v 0.157064214 -0.0101531856 0.00176683813
v 0.154064685 -0.0101001291 0.00176683813
v 0.154015169 -0.01289969 0.00338342
v 0.154212952 -0.00171802007 0.0122000007
v 0.154238358 -0.000281476649 0.0133598279
v 0.1542326 -0.000606942747 0.0134292869
v 0.154227108 -0.0009180256 0.0135661624
v 0.1542222 -0.00119446474 0.0137638887
v 0.154244 3.800934E-05 0.0133559275
v 0.154218212 -0.00142027438 0.0140083879
v 0.154184356 -0.003334348 0.0150000006
v 0.154270127 0.001514636 0.0122000007
v 0.154215276 -0.00158666086 0.0142811984
v 0.154249266 0.0003347909 0.0134087987
v 0.1542134 -0.0016926449 0.01456345
v 0.154254258 0.0006169987 0.0135148
v 0.15421246 -0.0017455084 0.014860278
v 0.154259086 0.000889766146 0.0136812124
v 0.1542634 0.00113422715 0.0139070572
v 0.1542669 0.00133192167 0.01418354
v 0.154298723 0.003130964 0.0150000006
v 0.154212534 -0.00174160849 0.0151798138
v 0.154213756 -0.00167216035 0.0155053306
v 0.154216185 -0.00153530575 0.0158164613
v 0.154269323 0.00146877626 0.0144946706
v 0.154212952 -0.00171802007 0.0178
v 0.154270545 0.0015382244 0.0148201883
v 0.154219687 -0.00133761123 0.0160929449
v 0.154270619 0.00154212432 0.0151397241
v 0.154224008 -0.00109315023 0.01631879
v 0.15426968 0.00148926082 0.0154365525
v 0.1542678 0.00138327677 0.0157188028
v 0.154264867 0.00121689029 0.0159916133
v 0.154228836 -0.0008203828 0.0164852031
v 0.154233813 -0.000538175 0.0165912025
v 0.154239073 -0.000241393427 0.0166440737
v 0.154270127 0.001514636 0.0178
v 0.154260874 0.0009910807 0.0162361134
v 0.154244721 7.809258E-05 0.0166401751
v 0.154255986 0.00071464153 0.0164338388
v 0.154250473 0.000403558661 0.0165707134
v 0.15578419 0.00229627173 0.0136000011
v 0.154270127 0.001514636 0.0122000007
v 0.157269657 0.00146157946 0.0122000007
v 0.157298252 0.00307790749 0.0150000006
v 0.154298723 0.003130964 0.0150000006
v 0.15578419 0.00229627173 0.0164000019
v 0.157298252 0.00307790749 0.0150000006
v 0.157269657 0.00146157946 0.0178
v 0.154270127 0.001514636 0.0178
v 0.154298723 0.003130964 0.0150000006
v 0.1557413 -0.0001282203 0.0178
v 0.157269657 0.00146157946 0.0178
v 0.157212481 -0.00177107658 0.0178
v 0.154212952 -0.00171802007 0.0178
v 0.154270127 0.001514636 0.0178
v 0.155698419 -0.00255271234 0.0164000019
v 0.157212481 -0.00177107658 0.0178
v 0.157183886 -0.00338740461 0.0150000006
v 0.154184356 -0.003334348 0.0150000006
v 0.154212952 -0.00171802007 0.0178
v 0.155698419 -0.00255271234 0.0136000011
v 0.157183886 -0.00338740461 0.0150000006
v 0.157212481 -0.00177107658 0.0122000007
v 0.154212952 -0.00171802007 0.0122000007
v 0.154184356 -0.003334348 0.0150000006
v 0.1557413 -0.0001282203 0.0122000007
v 0.157212481 -0.00177107658 0.0122000007
v 0.157269657 0.00146157946 0.0122000007
v 0.154270127 0.001514636 0.0122000007
v 0.154212952 -0.00171802007 0.0122000007
v 0.1573684 0.00704412628 0.006616581
v 0.157325447 0.00461515132 0.00730888359
v 0.157331467 0.004955585 0.006402256
v 0.157334477 0.0051253885 0.00544880843
v 0.157316 0.00408069743 0.008185182
v 0.157417923 0.009843688 0.008233162
v 0.157303154 0.00335537 0.008970544
v 0.1573684 0.00704412628 0.00338342
v 0.157334253 0.005112862 0.0044224197
v 0.1573303 0.004889786 0.00337682012
v 0.157322526 0.004450192 0.002377428
v 0.157417923 0.009843688 0.00176683813
v 0.157311291 0.00381517364 0.00148933288
v 0.157298252 0.00307790749 -0.005
v 0.1572974 0.00302993483 0.000763891265
v 0.157298252 0.00307790749 0.0150000006
v 0.157287449 0.002467414 0.009605662
v 0.157269657 0.00146157946 0.0122000007
v 0.157269776 0.001468178 0.0100453235
v 0.157251284 0.0004227414 0.0102684349
v 0.157233134 -0.0006034863 0.010280964
v 0.157212481 -0.00177107658 0.0122000007
v 0.157216281 -0.00155678485 0.0101111336
v 0.157200247 -0.00246327021 0.009770647
v 0.157184735 -0.003339432 0.009236109
v 0.157183886 -0.00338740461 0.0150000006
v 0.157170847 -0.00412467076 0.008510668
v 0.157064214 -0.0101531856 0.008233162
v 0.157159626 -0.00475968933 0.007622573
v 0.157113731 -0.0073536234 0.006616581
v 0.157151848 -0.005199283 0.00662318058
v 0.1571479 -0.00542235933 0.005577581
v 0.157147676 -0.00543488562 0.00455119275
v 0.157113731 -0.0073536234 0.00338342
v 0.157150686 -0.005265082 0.00359774521
v 0.1571567 -0.00492464844 0.002691118
v 0.157166153 -0.00439019455 0.00181481894
v 0.157064214 -0.0101531856 0.00176683813
v 0.157178983 -0.003664867 0.001029457
v 0.157183886 -0.00338740461 -0.005
v 0.157194689 -0.002776911 0.000394338742
v 0.157212481 -0.00177107658 -0.0022
v 0.157212362 -0.00177767512 -4.53228131E-05
v 0.157230854 -0.0007322385 -0.000268434174
v 0.157249 0.0002939892 -0.000280963257
v 0.157269657 0.00146157946 -0.0022
v 0.157265872 0.00124728773 -0.000111131929
v 0.1572819 0.002153773 0.000229354948
v 0.157016158 -0.0128701832 -0.006728475
v 0.1570384 -0.0116123054 -0.007960453
v 0.156996533 -0.0139798857 -0.005396913
v 0.157063022 -0.0102204857 -0.009069088
v 0.15697968 -0.0149324993 -0.00399109535
v 0.156965673 -0.0157244224 -0.00253654085
v 0.156954482 -0.0163569581 -0.001057745
v 0.15708968 -0.008713882 -0.0100335712
v 0.157117948 -0.007115742 -0.0108372783
v 0.157147378 -0.00545222545 -0.0114686964
v 0.1570147 -0.0129527468 0.00338342
v 0.157212481 -0.00177107658 -0.007799999
v 0.156946018 -0.0168356486 0.000422826968
v 0.157177463 -0.00375100179 -0.0119219655
v 0.157207727 -0.00203976315 -0.0121969646
v 0.157237709 -0.000344833825 -0.0122989556
v 0.156939939 -0.0171793886 0.00194042921
v 0.156936213 -0.0173899159 0.003535024
v 0.156935126 -0.017451 0.00519011542
v 0.157269657 0.00146157946 -0.007799999
v 0.1570147 -0.0129527468 0.006616581
v 0.157266974 0.00130999926 -0.0122378608
v 0.156936929 -0.0173490252 0.0068853097
v 0.1569418 -0.017074069 0.008596816
v 0.156949818 -0.0166208688 0.0102983061
v 0.157295182 0.00290434412 -0.0120273037
v 0.157322019 0.004421709 -0.01168351
v 0.157348216 0.00590205 -0.0112047428
v 0.156960979 -0.0159895513 0.0119620822
v 0.157374352 0.00738061452 -0.0105721066
v 0.1569752 -0.01518597 0.0135604739
v 0.157400087 0.008834939 -0.009780061
v 0.157424942 0.010240539 -0.008827298
v 0.1574485 0.0115718925 -0.007717424
v 0.156992257 -0.0142216366 0.0150673129
v 0.157011867 -0.0131131746 0.01645935
v 0.157033652 -0.01188139 0.0177174248
v 0.157470286 0.0128036775 -0.006459349
v 0.1570572 -0.0105500361 0.0188273
v 0.1574899 0.0139121395 -0.005067312
v 0.157082066 -0.009144437 0.0197800621
v 0.157107785 -0.00769011164 0.02057211
v 0.157133937 -0.006211547 0.0212047435
v 0.157506943 0.0148764728 -0.00356047321
v 0.157521158 0.0156800542 -0.00196208153
v 0.157532334 0.0163113717 -0.000298305415
v 0.157212481 -0.00177107658 0.0178
v 0.157467455 0.01264325 0.00338342
v 0.157160118 -0.004731206 0.02168351
v 0.157540351 0.0167645719 0.00140318461
v 0.157545209 0.0170395281 0.003114691
v 0.157547012 0.0171415024 0.00480988529
v 0.15718697 -0.00321384124 0.0220273025
v 0.157215163 -0.00161949638 0.0222378634
v 0.157244429 3.53366922E-05 0.0222989582
v 0.157467455 0.01264325 0.006616581
v 0.157269657 0.00146157946 0.0178
v 0.157545939 0.0170804188 0.00646497775
v 0.15727441 0.001730266 0.0221969672
v 0.157304689 0.00344150467 0.0219219662
v 0.157334775 0.00514272833 0.021468699
v 0.157542214 0.0168698914 0.0080595715
v 0.157536134 0.0165261514 0.009577174
v 0.157527655 0.016047461 0.0110577466
v 0.1573642 0.006806245 0.02083728
v 0.157516479 0.0154149253 0.0125365425
v 0.157392472 0.008404385 0.0200335756
v 0.157502472 0.0146230021 0.0139910951
v 0.157485619 0.0136703886 0.0153969154
v 0.157466 0.0125606861 0.0167284757
v 0.157419115 0.009910989 0.0190690886
v 0.157443732 0.0113028083 0.0179604534
f 1 2 3
f 4 1 3
f 4 3 5
f 6 4 5
f 7 5 3
f 6 5 8
f 8 5 7
f 9 6 8
f 10 8 7
f 9 8 11
f 11 8 10
f 12 9 11
f 13 11 10
f 12 11 14
f 14 11 13
f 15 12 14
f 16 14 13
f 15 14 17
f 17 14 16
f 18 15 17
f 19 17 16
f 20 18 17
f 20 17 19
f 20 21 18
f 21 20 19
f 21 22 18
f 21 19 23
f 21 24 22
f 24 21 23
f 24 25 22
f 24 23 26
f 24 27 25
f 27 24 26
f 27 28 25
f 27 26 29
f 27 30 28
f 30 27 29
f 30 31 28
f 30 29 32
f 30 33 31
f 33 30 32
f 33 34 31
f 33 32 35
f 33 36 34
f 36 33 35
f 36 37 34
f 36 35 38
f 37 36 39
f 36 38 39
f 37 39 40
f 40 39 38
f 41 37 40
f 40 38 42
f 41 40 43
f 43 40 42
f 44 41 43
f 43 42 45
f 44 43 46
f 46 43 45
f 47 44 46
f 47 46 48
f 46 45 49
f 48 46 49
f 50 47 48
f 48 49 51
f 52 50 48
f 48 51 53
f 52 48 54
f 54 48 53
f 55 52 54
f 54 53 56
f 55 54 57
f 57 54 56
f 58 55 57
f 57 56 59
f 58 57 60
f 60 57 59
f 61 58 60
f 60 59 62
f 61 60 63
f 63 60 62
f 64 61 63
f 63 62 65
f 64 63 66
f 66 63 65
f 67 64 66
f 66 65 68
f 67 66 69
f 69 66 68
f 70 67 69
f 70 69 71
f 69 68 72
f 71 69 72
f 73 70 71
f 71 72 74
f 75 73 71
f 71 74 76
f 75 71 77
f 77 71 76
f 78 75 77
f 77 76 79
f 78 77 80
f 80 77 79
f 81 78 80
f 80 79 82
f 81 80 83
f 83 80 82
f 84 81 83
f 83 82 85
f 84 83 86
f 86 83 85
f 87 84 86
f 86 85 88
f 87 86 89
f 89 86 88
f 90 87 89
f 89 88 91
f 90 89 92
f 92 89 91
f 92 91 93
f 94 90 92
f 95 92 93
f 94 92 95
f 96 94 95
f 95 97 96
f 97 98 96
f 97 99 98
f 99 97 100
f 99 101 98
f 102 99 100
f 99 102 101
f 102 100 103
f 102 104 101
f 105 102 103
f 102 105 104
f 105 103 106
f 105 107 104
f 108 105 106
f 105 108 107
f 108 106 109
f 108 110 107
f 111 108 109
f 108 111 110
f 111 109 112
f 111 113 110
f 114 111 112
f 111 114 113
f 114 112 115
f 114 115 113
f 112 116 115
f 113 115 117
f 116 118 115
f 115 118 117
f 116 119 118
f 117 118 120
f 119 121 118
f 118 121 120
f 119 122 121
f 120 121 123
f 122 124 121
f 121 124 123
f 122 125 124
f 123 124 126
f 125 127 124
f 124 127 126
f 125 128 127
f 126 127 129
f 128 130 127
f 127 130 129
f 128 131 130
f 129 130 132
f 131 133 130
f 130 133 132
f 131 134 133
f 134 132 133
f 134 131 135
f 134 136 132
f 137 134 135
f 134 137 136
f 137 135 138
f 137 139 136
f 140 137 138
f 137 140 139
f 140 138 141
f 142 140 141
f 140 143 139
f 140 142 143
f 142 141 144
f 142 145 143
f 142 144 146
f 142 147 145
f 148 142 146
f 142 148 147
f 148 146 149
f 148 150 147
f 151 148 149
f 148 151 150
f 151 149 152
f 151 153 150
f 154 151 152
f 151 154 153
f 154 152 155
f 154 156 153
f 157 154 155
f 154 157 156
f 157 155 158
f 157 159 156
f 160 157 158
f 157 160 159
f 160 158 161
f 160 162 159
f 163 160 161
f 160 163 162
f 163 161 164
f 165 163 164
f 163 166 162
f 163 165 166
f 165 164 167
f 165 168 166
f 165 167 169
f 165 170 168
f 171 165 169
f 165 171 170
f 171 169 172
f 171 173 170
f 174 171 172
f 171 174 173
f 174 172 175
f 174 176 173
f 177 174 175
f 174 177 176
f 177 175 178
f 177 179 176
f 180 177 178
f 177 180 179
f 180 178 181
f 180 182 179
f 183 180 181
f 180 183 182
f 183 181 184
f 183 185 182
f 186 183 184
f 183 186 185
f 186 184 187
f 186 188 185
f 189 186 187
f 186 189 188
f 189 190 188
f 191 192 193
f 194 191 193
f 194 193 195
f 196 194 195
f 197 195 193
f 196 195 198
f 198 195 197
f 199 196 198
f 200 198 197
f 199 198 201
f 201 198 200
f 202 199 201
f 203 201 200
f 202 201 204
f 204 201 203
f 205 202 204
f 206 204 203
f 205 204 207
f 207 204 206
f 208 205 207
f 209 207 206
f 210 208 207
f 210 207 209
f 210 211 208
f 211 210 209
f 211 212 208
f 211 209 213
f 211 214 212
f 214 211 213
f 214 215 212
f 214 213 216
f 214 217 215
f 217 214 216
f 217 218 215
f 217 216 219
f 217 220 218
f 220 217 219
f 220 221 218
f 220 219 222
f 220 223 221
f 223 220 222
f 223 224 221
f 223 222 225
f 223 226 224
f 226 223 225
f 226 227 224
f 226 225 228
f 227 226 229
f 226 228 229
f 227 229 230
f 230 229 228
f 231 227 230
f 230 228 232
f 231 230 233
f 233 230 232
f 234 231 233
f 233 232 235
f 234 233 236
f 236 233 235
f 237 234 236
f 237 236 238
f 236 235 239
f 238 236 239
f 240 237 238
f 238 239 241
f 242 240 238
f 238 241 243
f 242 238 244
f 244 238 243
f 245 242 244
f 244 243 246
f 245 244 247
f 247 244 246
f 248 245 247
f 247 246 249
f 248 247 250
f 250 247 249
f 251 248 250
f 250 249 252
f 251 250 253
f 253 250 252
f 254 251 253
f 253 252 255
f 254 253 256
f 256 253 255
f 257 254 256
f 256 255 258
f 257 256 259
f 259 256 258
f 260 257 259
f 260 259 261
f 259 258 262
f 261 259 262
f 263 260 261
f 261 262 264
f 265 263 261
f 261 264 266
f 265 261 267
f 267 261 266
f 268 265 267
f 267 266 269
f 268 267 270
f 270 267 269
f 271 268 270
f 270 269 272
f 271 270 273
f 273 270 272
f 274 271 273
f 273 272 275
f 274 273 276
f 276 273 275
f 277 274 276
f 276 275 278
f 277 276 279
f 279 276 278
f 280 277 279
f 279 278 281
f 280 279 282
f 282 279 281
f 282 281 283
f 284 280 282
f 285 282 283
f 284 282 285
f 286 284 285
f 285 287 286
f 287 288 286
f 287 289 288
f 289 287 290
f 289 291 288
f 292 289 290
f 289 292 291
f 292 290 293
f 292 294 291
f 295 292 293
f 292 295 294
f 295 293 296
f 295 297 294
f 298 295 296
f 295 298 297
f 298 296 299
f 298 300 297
f 301 298 299
f 298 301 300
f 301 299 302
f 301 303 300
f 304 301 302
f 301 304 303
f 304 302 305
f 304 305 303
f 302 306 305
f 303 305 307
f 306 308 305
f 305 308 307
f 306 309 308
f 307 308 310
f 309 311 308
f 308 311 310
f 309 312 311
f 310 311 313
f 312 314 311
f 311 314 313
f 312 315 314
f 313 314 316
f 315 317 314
f 314 317 316
f 315 318 317
f 316 317 319
f 318 320 317
f 317 320 319
f 318 321 320
f 319 320 322
f 321 323 320
f 320 323 322
f 321 324 323
f 324 322 323
f 324 321 325
f 324 326 322
f 327 324 325
f 324 327 326
f 327 325 328
f 327 329 326
f 330 327 328
f 327 330 329
f 330 328 331
f 332 330 331
f 330 333 329
f 330 332 333
f 332 331 334
f 332 335 333
f 332 334 336
f 332 337 335
f 338 332 336
f 332 338 337
f 338 336 339
f 338 340 337
f 341 338 339
f 338 341 340
f 341 339 342
f 341 343 340
f 344 341 342
f 341 344 343
f 344 342 345
f 344 346 343
f 347 344 345
f 344 347 346
f 347 345 348
f 347 349 346
f 350 347 348
f 347 350 349
f 350 348 351
f 350 352 349
f 353 350 351
f 350 353 352
f 353 351 354
f 355 353 354
f 353 356 352
f 353 355 356
f 355 354 357
f 355 358 356
f 355 357 359
f 355 360 358
f 361 355 359
f 355 361 360
f 361 359 362
f 361 363 360
f 364 361 362
f 361 364 363
f 364 362 365
f 364 366 363
f 367 364 365
f 364 367 366
f 367 365 368
f 367 369 366
f 370 367 368
f 367 370 369
f 370 368 371
f 370 372 369
f 373 370 371
f 370 373 372
f 373 371 374
f 373 375 372
f 376 373 374
f 373 376 375
f 376 374 377
f 376 378 375
f 379 376 377
f 376 379 378
f 379 380 378
f 381 382 383
f 381 383 384
f 385 381 384
f 384 383 386
f 387 385 384
f 388 384 386
f 387 384 388
f 388 386 389
f 390 387 388
f 391 388 389
f 390 388 391
f 391 389 392
f 393 390 391
f 394 391 392
f 393 391 394
f 394 392 395
f 396 393 394
f 397 394 395
f 396 394 397
f 397 395 398
f 399 396 397
f 400 397 398
f 399 397 400
f 400 398 401
f 402 400 401
f 403 399 400
f 403 400 402
f 402 401 404
f 405 403 402
f 406 402 404
f 407 405 402
f 408 402 406
f 407 402 408
f 409 408 406
f 410 407 408
f 411 408 409
f 411 410 408
f 412 411 409
f 411 412 410
f 412 409 413
f 412 414 410
f 415 412 413
f 412 415 414
f 415 413 416
f 415 417 414
f 418 415 416
f 415 418 417
f 418 416 419
f 418 420 417
f 421 418 419
f 418 421 420
f 421 419 422
f 421 423 420
f 424 421 422
f 421 424 423
f 424 422 425
f 424 426 423
f 427 424 425
f 424 427 426
f 427 425 428
f 426 427 429
f 427 428 429
f 428 430 429
f 430 431 429
f 429 431 432
f 430 433 431
f 431 434 432
f 433 435 431
f 431 435 434
f 433 436 435
f 435 437 434
f 436 438 435
f 435 438 437
f 436 439 438
f 438 440 437
f 439 441 438
f 438 441 440
f 439 442 441
f 441 443 440
f 442 444 441
f 441 444 443
f 442 445 444
f 444 446 443
f 445 447 444
f 444 447 446
f 445 448 447
f 448 449 447
f 447 450 446
f 447 449 450
f 448 451 449
f 449 452 450
f 451 453 449
f 449 454 452
f 453 455 449
f 449 455 454
f 453 456 455
f 455 457 454
f 456 458 455
f 455 458 457
f 456 459 458
f 459 457 458
f 460 459 456
f 459 461 457
f 462 459 460
f 459 462 461
f 463 462 460
f 462 464 461
f 465 462 463
f 462 465 464
f 466 465 463
f 465 467 464
f 468 465 466
f 465 468 467
f 469 468 466
f 468 470 467
f 471 468 469
f 468 471 470
f 472 471 469
f 471 473 470
f 474 471 472
f 471 474 473
f 475 474 472
f 474 476 473
f 474 475 476
f 477 478 479
f 477 479 480
f 481 477 480
f 480 479 482
f 483 481 480
f 484 480 482
f 483 480 484
f 484 482 485
f 486 483 484
f 487 484 485
f 486 484 487
f 487 485 488
f 489 486 487
f 490 487 488
f 489 487 490
f 490 488 491
f 492 489 490
f 493 490 491
f 492 490 493
f 493 491 494
f 495 492 493
f 496 493 494
f 495 493 496
f 496 494 497
f 498 496 497
f 499 495 496
f 499 496 498
f 498 497 500
f 501 499 498
f 502 498 500
f 503 501 498
f 504 498 502
f 503 498 504
f 505 504 502
f 506 503 504
f 507 504 505
f 507 506 504
f 508 507 505
f 507 508 506
f 508 505 509
f 508 510 506
f 511 508 509
f 508 511 510
f 511 509 512
f 511 513 510
f 514 511 512
f 511 514 513
f 514 512 515
f 514 516 513
f 517 514 515
f 514 517 516
f 517 515 518
f 517 519 516
f 520 517 518
f 517 520 519
f 520 518 521
f 520 522 519
f 523 520 521
f 520 523 522
f 523 521 524
f 522 523 525
f 523 524 525
f 524 526 525
f 526 527 525
f 525 527 528
f 526 529 527
f 527 530 528
f 529 531 527
f 527 531 530
f 529 532 531
f 531 533 530
f 532 534 531
f 531 534 533
f 532 535 534
f 534 536 533
f 535 537 534
f 534 537 536
f 535 538 537
f 537 539 536
f 538 540 537
f 537 540 539
f 538 541 540
f 540 542 539
f 541 543 540
f 540 543 542
f 541 544 543
f 544 545 543
f 543 546 542
f 543 545 546
f 544 547 545
f 545 548 546
f 547 549 545
f 545 550 548
f 549 551 545
f 545 551 550
f 549 552 551
f 551 553 550
f 552 554 551
f 551 554 553
f 552 555 554
f 555 553 554
f 556 555 552
f 555 557 553
f 558 555 556
f 555 558 557
f 559 558 556
f 558 560 557
f 561 558 559
f 558 561 560
f 562 561 559
f 561 563 560
f 564 561 562
f 561 564 563
f 565 564 562
f 564 566 563
f 567 564 565
f 564 567 566
f 568 567 565
f 567 569 566
f 570 567 568
f 567 570 569
f 571 570 568
f 570 572 569
f 570 571 572
f 573 574 575
f 573 575 576
f 577 573 576
f 576 575 578
f 579 577 576
f 580 576 578
f 579 576 580
f 580 578 581
f 582 579 580
f 583 580 581
f 582 580 583
f 583 581 584
f 585 582 583
f 586 583 584
f 585 583 586
f 586 584 587
f 588 585 586
f 589 586 587
f 588 586 589
f 589 587 590
f 591 588 589
f 592 589 590
f 591 589 592
f 592 590 593
f 594 592 593
f 595 591 592
f 595 592 594
f 594 593 596
f 597 595 594
f 598 594 596
f 599 597 594
f 600 594 598
f 599 594 600
f 601 600 598
f 602 599 600
f 603 600 601
f 603 602 600
f 604 603 601
f 603 604 602
f 604 601 605
f 604 606 602
f 607 604 605
f 604 607 606
f 607 605 608
f 607 609 606
f 610 607 608
f 607 610 609
f 610 608 611
f 610 612 609
f 613 610 611
f 610 613 612
f 613 611 614
f 613 615 612
f 616 613 614
f 613 616 615
f 616 614 617
f 616 618 615
f 619 616 617
f 616 619 618
f 619 617 620
f 618 619 621
f 619 620 621
f 620 622 621
f 622 623 621
f 621 623 624
f 622 625 623
f 623 626 624
f 625 627 623
f 623 627 626
f 625 628 627
f 627 629 626
f 628 630 627
f 627 630 629
f 628 631 630
f 630 632 629
f 631 633 630
f 630 633 632
f 631 634 633
f 633 635 632
f 634 636 633
f 633 636 635
f 634 637 636
f 636 638 635
f 637 639 636
f 636 639 638
f 637 640 639
f 640 641 639
f 639 642 638
f 639 641 642
f 640 643 641
f 641 644 642
f 643 645 641
f 641 646 644
f 645 647 641
f 641 647 646
f 645 648 647
f 647 649 646
f 648 650 647
f 647 650 649
f 648 651 650
f 651 649 650
f 652 651 648
f 651 653 649
f 654 651 652
f 651 654 653
f 655 654 652
f 654 656 653
f 657 654 655
f 654 657 656
f 658 657 655
f 657 659 656
f 660 657 658
f 657 660 659
f 661 660 658
f 660 662 659
f 663 660 661
f 660 663 662
f 664 663 661
f 663 665 662
f 666 663 664
f 663 666 665
f 667 666 664
f 666 668 665
f 666 667 668
f 669 670 671
f 669 671 672
f 673 669 672
f 672 671 674
f 675 673 672
f 676 672 674
f 675 672 676
f 676 674 677
f 678 675 676
f 679 676 677
f 678 676 679
f 679 677 680
f 681 678 679
f 682 679 680
f 681 679 682
f 682 680 683
f 684 681 682
f 685 682 683
f 684 682 685
f 685 683 686
f 687 684 685
f 688 685 686
f 687 685 688
f 688 686 689
f 690 688 689
f 691 687 688
f 691 688 690
f 690 689 692
f 693 691 690
f 694 690 692
f 695 693 690
f 696 690 694
f 695 690 696
f 697 696 694
f 698 695 696
f 699 696 697
f 699 698 696
f 700 699 697
f 699 700 698
f 700 697 701
f 700 702 698
f 703 700 701
f 700 703 702
f 703 701 704
f 703 705 702
f 706 703 704
f 703 706 705
f 706 704 707
f 706 708 705
f 709 706 707
f 706 709 708
f 709 707 710
f 709 711 708
f 712 709 710
f 709 712 711
f 712 710 713
f 712 714 711
f 715 712 713
f 712 715 714
f 715 713 716
f 714 715 717
f 715 716 717
f 716 718 717
f 718 719 717
f 717 719 720
f 718 721 719
f 719 722 720
f 721 723 719
f 719 723 722
f 721 724 723
f 723 725 722
f 724 726 723
f 723 726 725
f 724 727 726
f 726 728 725
f 727 729 726
f 726 729 728
f 727 730 729
f 729 731 728
f 730 732 729
f 729 732 731
f 730 733 732
f 732 734 731
f 733 735 732
f 732 735 734
f 733 736 735
f 736 737 735
f 735 738 734
f 735 737 738
f 736 739 737
f 737 740 738
f 739 741 737
f 737 742 740
f 741 743 737
f 737 743 742
f 741 744 743
f 743 745 742
f 744 746 743
f 743 746 745
f 744 747 746
f 747 745 746
f 748 747 744
f 747 749 745
f 750 747 748
f 747 750 749
f 751 750 748
f 750 752 749
f 753 750 751
f 750 753 752
f 754 753 751
f 753 755 752
f 756 753 754
f 753 756 755
f 757 756 754
f 756 758 755
f 759 756 757
f 756 759 758
f 760 759 757
f 759 761 758
f 762 759 760
f 759 762 761
f 763 762 760
f 762 764 761
f 762 763 764
f 765 766 767
f 765 767 768
f 769 765 768
f 768 767 770
f 771 769 768
f 772 768 770
f 771 768 772
f 772 770 773
f 774 771 772
f 775 772 773
f 774 772 775
f 775 773 776
f 777 774 775
f 778 775 776
f 777 775 778
f 778 776 779
f 780 777 778
f 781 778 779
f 780 778 781
f 781 779 782
f 783 780 781
f 784 781 782
f 783 781 784
f 784 782 785
f 786 784 785
f 787 783 784
f 787 784 786
f 786 785 788
f 789 787 786
f 790 786 788
f 791 789 786
f 792 786 790
f 791 786 792
f 793 792 790
f 794 791 792
f 795 792 793
f 795 794 792
f 796 795 793
f 795 796 794
f 796 793 797
f 796 798 794
f 799 796 797
f 796 799 798
f 799 797 800
f 799 801 798
f 802 799 800
f 799 802 801
f 802 800 803
f 802 804 801
f 805 802 803
f 802 805 804
f 805 803 806
f 805 807 804
f 808 805 806
f 805 808 807
f 808 806 809
f 808 810 807
f 811 808 809
f 808 811 810
f 811 809 812
f 810 811 813
f 811 812 813
f 812 814 813
f 814 815 813
f 813 815 816
f 814 817 815
f 815 818 816
f 817 819 815
f 815 819 818
f 817 820 819
f 819 821 818
f 820 822 819
f 819 822 821
f 820 823 822
f 822 824 821
f 823 825 822
f 822 825 824
f 823 826 825
f 825 827 824
f 826 828 825
f 825 828 827
f 826 829 828
f 828 830 827
f 829 831 828
f 828 831 830
f 829 832 831
f 832 833 831
f 831 834 830
f 831 833 834
f 832 835 833
f 833 836 834
f 835 837 833
f 833 838 836
f 837 839 833
f 833 839 838
f 837 840 839
f 839 841 838
f 840 842 839
f 839 842 841
f 840 843 842
f 843 841 842
f 844 843 840
f 843 845 841
f 846 843 844
f 843 846 845
f 847 846 844
f 846 848 845
f 849 846 847
f 846 849 848
f 850 849 847
f 849 851 848
f 852 849 850
f 849 852 851
f 853 852 850
f 852 854 851
f 855 852 853
f 852 855 854
f 856 855 853
f 855 857 854
f 858 855 856
f 855 858 857
f 859 858 856
f 858 860 857
f 858 859 860
f 861 862 863
f 861 863 864
f 865 861 864
f 864 863 866
f 867 865 864
f 868 864 866
f 867 864 868
f 868 866 869
f 870 867 868
f 871 868 869
f 870 868 871
f 871 869 872
f 873 870 871
f 874 871 872
f 873 871 874
f 874 872 875
f 876 873 874
f 877 874 875
f 876 874 877
f 877 875 878
f 879 876 877
f 880 877 878
f 879 877 880
f 880 878 881
f 882 880 881
f 883 879 880
f 883 880 882
f 882 881 884
f 885 883 882
f 886 882 884
f 887 885 882
f 888 882 886
f 887 882 888
f 889 888 886
f 890 887 888
f 891 888 889
f 891 890 888
f 892 891 889
f 891 892 890
f 892 889 893
f 892 894 890
f 895 892 893
f 892 895 894
f 895 893 896
f 895 897 894
f 898 895 896
f 895 898 897
f 898 896 899
f 898 900 897
f 901 898 899
f 898 901 900
f 901 899 902
f 901 903 900
f 904 901 902
f 901 904 903
f 904 902 905
f 904 906 903
f 907 904 905
f 904 907 906
f 907 905 908
f 906 907 909
f 907 908 909
f 908 910 909
f 910 911 909
f 909 911 912
f 910 913 911
f 911 914 912
f 913 915 911
f 911 915 914
f 913 916 915
f 915 917 914
f 916 918 915
f 915 918 917
f 916 919 918
f 918 920 917
f 919 921 918
f 918 921 920
f 919 922 921
f 921 923 920
f 922 924 921
f 921 924 923
f 922 925 924
f 924 926 923
f 925 927 924
f 924 927 926
f 925 928 927
f 928 929 927
f 927 930 926
f 927 929 930
f 928 931 929
f 929 932 930
f 931 933 929
f 929 934 932
f 933 935 929
f 929 935 934
f 933 936 935
f 935 937 934
f 936 938 935
f 935 938 937
f 936 939 938
f 939 937 938
f 940 939 936
f 939 941 937
f 942 939 940
f 939 942 941
f 943 942 940
f 942 944 941
f 945 942 943
f 942 945 944
f 946 945 943
f 945 947 944
f 948 945 946
f 945 948 947
f 949 948 946
f 948 950 947
f 951 948 949
f 948 951 950
f 952 951 949
f 951 953 950
f 954 951 952
f 951 954 953
f 955 954 952
f 954 956 953
f 954 955 956
f 957 958 959
f 960 957 959
f 957 960 961
f 957 962 958
f 963 962 957
f 963 964 962
f 965 964 963
f 966 965 963
f 967 966 963
f 968 967 963
f 969 968 963
f 957 961 970
f 969 963 971
f 972 969 971
f 972 971 973
f 974 972 973
f 975 974 973
f 975 973 976
f 977 975 976
f 977 976 978
f 979 977 978
f 980 979 978
f 980 978 981
f 982 980 981
f 982 981 983
f 984 982 983
f 985 984 983
f 985 983 986
f 987 985 986
f 987 986 988
f 989 987 988
f 989 988 990
f 991 989 990
f 991 990 992
f 993 991 992
f 994 993 992
f 994 992 995
f 996 993 994
f 996 994 997
f 998 996 997
f 999 994 995
f 999 995 1000
f 999 1000 1001
f 997 1002 998
f 1002 1003 998
f 1002 1004 1003
f 1005 999 1001
f 1005 1001 1006
f 1005 1006 1007
f 1008 1005 1007
f 1009 1008 1007
f 1010 1008 1009
f 1002 1011 1004
f 1011 1012 1004
f 1011 1013 1012
f 1011 1014 1013
f 1014 1015 1013
f 1014 970 1015
f 1014 957 970
f 1016 1010 1009
f 1010 1017 1008
f 1018 1016 1009
f 1017 1019 1008
f 1020 1018 1009
f 1019 1021 1008
f 1021 1022 1008
f 1022 1023 1008
f 1024 1020 1009
f 1025 1024 1009
f 1026 1025 1009
f 1026 1009 1027
f 1028 1026 1027
f 1023 1029 1008
f 1023 1030 1029
f 1030 1031 1029
f 1028 1027 1032
f 1033 1028 1032
f 1034 1033 1032
f 1034 1032 1035
f 1036 1034 1035
f 1031 1037 1029
f 1031 1038 1037
f 1038 1039 1037
f 1036 1035 1040
f 1041 1036 1040
f 1042 1041 1040
f 1042 1040 1043
f 1044 1042 1043
f 1039 1045 1037
f 1039 1046 1045
f 1046 1047 1045
f 1047 1048 1045
f 1047 1049 1048
f 1044 1043 1050
f 1051 1044 1050
f 1052 1051 1050
f 1052 1050 1053
f 1054 1052 1053
f 1054 1053 1055
f 1056 1054 1055
f 1056 1055 1057
f 1058 1056 1057
f 1049 1059 1048
f 1058 1057 1060
f 1061 1058 1060
f 1049 1061 1059
f 1059 1061 1060
f 1059 1060 1062
f 1063 1059 1062
f 1063 1062 1064
f 1063 1064 1065
f 1066 1063 1065
f 1066 1065 1067
f 1066 1067 1068
f 1069 1066 1068
f 1070 1069 1068
f 1071 1069 1070
f 1072 1071 1070
f 1071 1073 1069
f 1074 1072 1070
f 1073 1075 1069
f 1076 1074 1070
f 1075 1077 1069
f 1077 1078 1069
f 1078 1079 1069
f 1080 1076 1070
f 1081 1080 1070
f 1082 1081 1070
f 1082 1070 1083
f 1084 1082 1083
f 1079 1085 1069
f 1079 1086 1085
f 1086 1087 1085
f 1084 1083 1088
f 1089 1084 1088
f 1090 1089 1088
f 1090 1088 1091
f 1092 1090 1091
f 1087 1093 1085
f 1087 1094 1093
f 1094 1095 1093
f 1092 1091 1096
f 1097 1092 1096
f 1098 1097 1096
f 1098 1096 1099
f 1100 1098 1099
f 1095 1101 1093
f 1095 1102 1101
f 1102 1103 1101
f 1103 1104 1101
f 1103 1105 1104
f 1100 1099 1106
f 1107 1100 1106
f 1108 1107 1106
f 1108 1106 1109
f 1110 1108 1109
f 1110 1109 1111
f 1112 1110 1111
f 1112 1111 1113
f 1114 1112 1113
f 1105 1115 1104
f 1114 1113 1116
f 1117 1114 1116
f 1105 1117 1115
f 1115 1117 1116
f 1115 1116 1118
f 1119 1115 1118
f 1119 1118 1120
f 1119 1120 1121
f 1122 1119 1121
f 1122 1121 1123
f 1122 1123 1124
f 1125 1122 1124
f 1126 1125 1124
f 1127 1125 1126
f 1128 1127 1126
f 1127 1129 1125
f 1130 1128 1126
f 1129 1131 1125
f 1132 1130 1126
f 1131 1133 1125
f 1133 1134 1125
f 1134 1135 1125
f 1136 1132 1126
f 1137 1136 1126
f 1138 1137 1126
f 1138 1126 1139
f 1140 1138 1139
f 1135 1141 1125
f 1135 1142 1141
f 1142 1143 1141
f 1140 1139 1144
f 1145 1140 1144
f 1146 1145 1144
f 1146 1144 1147
f 1148 1146 1147
f 1143 1149 1141
f 1143 1150 1149
f 1150 1151 1149
f 1148 1147 1152
f 1153 1148 1152
f 1154 1153 1152
f 1154 1152 1155
f 1156 1154 1155
f 1151 1157 1149
f 1151 1158 1157
f 1158 1159 1157
f 1159 1160 1157
f 1159 1161 1160
f 1156 1155 1162
f 1163 1156 1162
f 1164 1163 1162
f 1164 1162 1165
f 1166 1164 1165
f 1166 1165 1167
f 1168 1166 1167
f 1168 1167 1169
f 1170 1168 1169
f 1161 1171 1160
f 1170 1169 1172
f 1173 1170 1172
f 1161 1173 1171
f 1171 1173 1172
f 1171 1172 1174
f 1175 1171 1174
f 1175 1174 1176
f 1175 1176 1177
f 1178 1175 1177
f 1178 1177 1179
f 1178 1179 1180
f 957 1178 1180
f 1180 963 957
f 1181 1182 1183
f 1184 1181 1183
f 1181 1185 1182
f 1181 1184 1186
f 1185 1181 1187
f 1181 1186 1188
f 1181 1189 1187
f 1190 1181 1188
f 1189 1191 1187
f 1190 1188 1192
f 1189 1193 1191
f 1190 1192 1194
f 1193 1189 1195
f 1189 1196 1195
f 1189 1197 1196
f 1198 1190 1194
f 1190 1198 1199
f 1190 1199 1200
f 1189 1201 1197
f 1202 1190 1200
f 1201 1203 1197
f 1202 1200 1204
f 1201 1205 1203
f 1202 1204 1206
f 1205 1201 1207
f 1201 1208 1207
f 1201 1209 1208
f 1201 1210 1209
f 1211 1202 1206
f 1202 1211 1212
f 1202 1212 1213
f 1210 1202 1213
f 1210 1214 1209
f 1210 1213 1215
f 1210 1216 1214
f 1210 1215 1217
f 1216 1210 1218
f 1218 1210 1217
f 1219 1220 1221
f 1219 1221 1222
f 1220 1219 1223
f 1223 1219 1222
f 1224 1225 1226
f 1227 1224 1226
f 1224 1228 1225
f 1228 1224 1227
f 1229 1230 1231
f 1232 1229 1231
f 1229 1233 1230
f 1233 1229 1232
f 1234 1235 1236
f 1237 1234 1236
f 1234 1238 1235
f 1238 1234 1237
f 1239 1240 1241
f 1242 1239 1241
f 1239 1243 1240
f 1243 1239 1242
f 1244 1245 1246
f 1247 1244 1246
f 1244 1248 1245
f 1248 1244 1247
f 1249 1250 1251
f 1252 1249 1251
f 1249 1252 1253
f 1249 1254 1250
f 1249 1253 1255
f 1256 1249 1255
f 1249 1257 1254
f 1258 1256 1255
f 1257 1259 1254
f 1256 1258 1260
f 1257 1261 1259
f 1256 1260 1262
f 1261 1257 1263
f 1257 1264 1263
f 1257 1265 1264
f 1257 1266 1265
f 1267 1256 1262
f 1256 1267 1268
f 1256 1268 1269
f 1266 1270 1265
f 1271 1256 1269
f 1266 1272 1270
f 1271 1269 1273
f 1272 1266 1274
f 1271 1273 1275
f 1266 1276 1274
f 1266 1277 1276
f 1277 1266 1278
f 1279 1271 1275
f 1271 1279 1280
f 1271 1280 1281
f 1266 1282 1278
f 1282 1271 1281
f 1282 1283 1278
f 1282 1281 1284
f 1282 1285 1283
f 1282 1284 1286
f 1285 1282 1286
f 1287 1288 1289
f 1287 1289 1290
f 1288 1287 1291
f 1291 1287 1290
f 1292 1293 1294
f 1295 1292 1294
f 1292 1296 1293
f 1296 1292 1295
f 1297 1298 1299
f 1300 1297 1299
f 1297 1301 1298
f 1301 1297 1300
f 1302 1303 1304
f 1305 1302 1304
f 1302 1306 1303
f 1306 1302 1305
f 1307 1308 1309
f 1310 1307 1309
f 1307 1311 1308
f 1311 1307 1310
f 1312 1313 1314
f 1315 1312 1314
f 1312 1316 1313
f 1316 1312 1315
f 1317 1318 1319
f 1320 1317 1319
f 1317 1321 1318
f 1317 1320 1322
f 1321 1317 1323
f 1317 1322 1324
f 1317 1325 1323
f 1326 1317 1324
f 1325 1327 1323
f 1326 1324 1328
f 1325 1329 1327
f 1326 1328 1330
f 1329 1325 1331
f 1325 1332 1331
f 1325 1333 1332
f 1334 1326 1330
f 1326 1334 1335
f 1326 1335 1336
f 1325 1337 1333
f 1338 1326 1336
f 1337 1339 1333
f 1338 1336 1340
f 1337 1341 1339
f 1338 1340 1342
f 1341 1337 1343
f 1337 1344 1343
f 1337 1345 1344
f 1337 1346 1345
f 1347 1338 1342
f 1338 1347 1348
f 1338 1348 1349
f 1346 1338 1349
f 1346 1350 1345
f 1346 1349 1351
f 1346 1352 1350
f 1346 1351 1353
f 1352 1346 1354
f 1354 1346 1353
f 1355 1356 1357
f 1355 1357 1358
f 1356 1355 1359
f 1359 1355 1358
f 1360 1361 1362
f 1363 1360 1362
f 1360 1364 1361
f 1364 1360 1363
f 1365 1366 1367
f 1368 1365 1367
f 1365 1369 1366
f 1369 1365 1368
f 1370 1371 1372
f 1373 1370 1372
f 1370 1374 1371
f 1374 1370 1373
f 1375 1376 1377
f 1378 1375 1377
f 1375 1379 1376
f 1379 1375 1378
f 1380 1381 1382
f 1383 1380 1382
f 1380 1384 1381
f 1384 1380 1383
f 1385 1386 1387
f 1388 1385 1387
f 1385 1388 1389
f 1385 1390 1386
f 1385 1389 1391
f 1392 1385 1391
f 1385 1393 1390
f 1394 1392 1391
f 1393 1395 1390
f 1392 1394 1396
f 1393 1397 1395
f 1392 1396 1398
f 1397 1393 1399
f 1393 1400 1399
f 1393 1401 1400
f 1393 1402 1401
f 1403 1392 1398
f 1392 1403 1404
f 1392 1404 1405
f 1402 1406 1401
f 1407 1392 1405
f 1402 1408 1406
f 1407 1405 1409
f 1408 1402 1410
f 1407 1409 1411
f 1402 1412 1410
f 1402 1413 1412
f 1413 1402 1414
f 1415 1407 1411
f 1407 1415 1416
f 1407 1416 1417
f 1402 1418 1414
f 1418 1407 1417
f 1418 1419 1414
f 1418 1417 1420
f 1418 1421 1419
f 1418 1420 1422
f 1421 1418 1422
f 1423 1424 1425
f 1423 1425 1426
f 1424 1423 1427
f 1427 1423 1426
f 1428 1429 1430
f 1431 1428 1430
f 1428 1432 1429
f 1432 1428 1431
f 1433 1434 1435
f 1436 1433 1435
f 1433 1437 1434
f 1437 1433 1436
f 1438 1439 1440
f 1441 1438 1440
f 1438 1442 1439
f 1442 1438 1441
f 1443 1444 1445
f 1446 1443 1445
f 1443 1447 1444
f 1447 1443 1446
f 1448 1449 1450
f 1451 1448 1450
f 1448 1452 1449
f 1452 1448 1451
f 1453 1454 1455
f 1453 1455 1456
f 1454 1453 1457
f 1453 1458 1457
f 1458 1459 1457
f 1460 1453 1456
f 1461 1460 1456
f 1460 1461 1462
f 1460 1462 1463
f 1464 1460 1463
f 1464 1463 1465
f 1466 1464 1465
f 1466 1465 1467
f 1458 1468 1459
f 1468 1469 1459
f 1468 1470 1469
f 1470 1471 1469
f 1470 1472 1471
f 1472 1470 1473
f 1470 1474 1473
f 1474 1475 1473
f 1474 1476 1475
f 1476 1474 1477
f 1474 1478 1477
f 1478 1479 1477
f 1478 1480 1479
f 1480 1481 1479
f 1480 1482 1481
f 1482 1483 1481
f 1482 1484 1483
f 1484 1482 1485
f 1482 1486 1485
f 1486 1487 1485
f 1486 1488 1487
f 1488 1486 1489
f 1486 1490 1489
f 1490 1491 1489
f 1490 1492 1491
f 1492 1493 1491
f 1492 1494 1493
f 1494 1495 1493
f 1494 1496 1495
f 1496 1494 1497
f 1494 1498 1497
f 1498 1499 1497
f 1498 1500 1499
f 1500 1498 1467
f 1498 1466 1467
f 1492 1490 1501
f 1492 1501 1502
f 1490 1503 1501
f 1492 1502 1504
f 1490 1505 1503
f 1505 1490 1506
f 1490 1507 1506
f 1508 1492 1504
f 1492 1508 1509
f 1492 1509 1510
f 1490 1511 1507
f 1512 1492 1510
f 1511 1513 1507
f 1514 1512 1510
f 1512 1514 1515
f 1512 1515 1516
f 1511 1517 1513
f 1517 1511 1518
f 1511 1519 1518
f 1520 1512 1516
f 1511 1521 1519
f 1522 1520 1516
f 1521 1523 1519
f 1521 1524 1523
f 1524 1521 1525
f 1520 1522 1526
f 1520 1526 1527
f 1528 1520 1527
f 1521 1480 1525
f 1466 1520 1528
f 1480 1529 1525
f 1466 1528 1530
f 1480 1531 1529
f 1532 1466 1530
f 1466 1532 1533
f 1466 1533 1534
f 1531 1480 1535
f 1480 1536 1535
f 1480 1537 1536
f 1464 1466 1534
f 1480 1478 1537
f 1464 1534 1538
f 1478 1539 1537
f 1464 1538 1540
f 1478 1541 1539
f 1541 1478 1542
f 1478 1543 1542
f 1544 1464 1540
f 1464 1544 1545
f 1464 1545 1546
f 1478 1547 1543
f 1548 1464 1546
f 1547 1549 1543
f 1550 1548 1546
f 1548 1550 1551
f 1548 1551 1552
f 1547 1553 1549
f 1553 1547 1554
f 1547 1555 1554
f 1556 1548 1552
f 1547 1557 1555
f 1556 1552 1558
f 1557 1559 1555
f 1557 1560 1559
f 1560 1557 1561
f 1562 1556 1558
f 1556 1562 1563
f 1556 1563 1564
f 1557 1468 1561
f 1458 1556 1564
f 1468 1565 1561
f 1458 1564 1566
f 1468 1567 1565
f 1568 1458 1566
f 1458 1568 1569
f 1458 1569 1570
f 1468 1458 1570
f 1567 1468 1571
f 1468 1570 1572
f 1468 1572 1571
