# ROS coordinates: X forward, Y left, Z up; units are metres.
o mesh
v -0.0833056346 -0.09292385 0.09300001
v -0.08286521 -0.09371996 0.09291653
v -0.0824146941 -0.09453431 0.09264895
v -0.08198117 -0.09531795 0.0921849757
v -0.08159415 -0.0960175246 0.09153554
v -0.08127977 -0.0965858 0.09073605
v -0.08105517 -0.09699178 0.08984047
v -0.08814644 -0.08417361 0.0855
v -0.080925636 -0.09722592 0.08890982
v -0.09540765 -0.07104826 0.09300001
v -0.08088523 -0.0972989649 0.088
v -0.09540765 -0.07104826 0.0779999942
v -0.08088523 -0.0972989649 0.0779999942
v -0.102873534 -0.06375027 0.09300001
v -0.102873534 -0.06375027 0.0779999942
v -0.10529393 -0.0593751557 0.09300001
v -0.10771434 -0.0550000332 0.088
v -0.105734356 -0.0585790463 0.09291653
v -0.10618487 -0.0577646978 0.09264895
v -0.106618404 -0.0569810458 0.0921849757
v -0.107005417 -0.0562814772 0.09153554
v -0.1073198 -0.0557132028 0.09073605
v -0.1075444 -0.0553072169 0.08984047
v -0.107673928 -0.05507308 0.08890982
v -0.103817075 -0.0620447136 0.0590810031
v -0.103222623 -0.06311925 0.06076354
v -0.102543831 -0.06434624 0.0623189174
v -0.104726695 -0.0604004972 0.0554539226
v -0.105251305 -0.0594522133 0.0516847521
v -0.105414957 -0.0591564 0.048
v -0.1017909 -0.06570723 0.06372115
v -0.10771434 -0.0550000332 0.02
v -0.105251305 -0.0594522133 0.04431525
v -0.104726695 -0.0604004972 0.040546082
v -0.103817075 -0.0620447136 0.0369190052
v -0.103222623 -0.06311925 0.035236463
v -0.100976415 -0.0671794862 0.0649491549
v -0.102543831 -0.06434624 0.0336810872
v -0.09922062 -0.07035327 0.06682821
v -0.1017909 -0.06570723 0.03227885
v -0.09739604 -0.07365137 0.06791194
v -0.09561232 -0.07687562 0.06825
v -0.0938286 -0.0800998658 0.06791194
v -0.0835103 -0.09875121 0.0779999942
v -0.09200402 -0.08339798 0.06682821
v -0.09024822 -0.08657175 0.0649491549
v -0.08943374 -0.08804402 0.06372115
v -0.100976415 -0.0671794862 0.0310508423
v -0.08868081 -0.08940501 0.0623189174
v -0.09922062 -0.07035327 0.0291717872
v -0.09739604 -0.07365137 0.0280880667
v -0.09561232 -0.07687562 0.02775
v -0.08800201 -0.090632 0.06076354
v -0.0835103 -0.09875121 0.02
v -0.0938286 -0.0800998658 0.0280880667
v -0.09200402 -0.08339798 0.0291717872
v -0.09024822 -0.08657175 0.0310508423
v -0.08943374 -0.08804402 0.03227885
v -0.08740756 -0.09170653 0.0590810031
v -0.08868081 -0.08940501 0.0336810872
v -0.08649794 -0.0933507457 0.0554539226
v -0.08597334 -0.0942990258 0.0516847521
v -0.0858096853 -0.09459484 0.048
v -0.08800201 -0.090632 0.035236463
v -0.08597334 -0.0942990258 0.04431525
v -0.08740756 -0.09170653 0.0369190052
v -0.08649794 -0.0933507457 0.040546082
v -0.08768075 -0.09534425 0.09300001
v -0.0833056346 -0.09292385 0.09300001
v -0.09540765 -0.07104826 0.09300001
v -0.102873534 -0.06375027 0.09300001
v -0.107043982 -0.0603433177 0.09300001
v -0.10529393 -0.0593751557 0.09300001
v -0.08928249 -0.0676597 0.09300001
v -0.0914982259 -0.0574572235 0.09300001
v -0.07569145 -0.07156912 0.09300001
v -0.07518898 -0.0621485338 0.09300001
v -0.05534167 -0.09802449 0.09300001
v -0.0597167835 -0.1004449 0.09300001
v -0.0704691857 -0.07068001 0.08400001
v -0.07484431 -0.07310042 0.08400001
v -0.07483824 -0.07311137 0.08386353
v -0.07264876 -0.0719046444 0.0838436037
v -0.07046313 -0.07069097 0.08386353
v -0.07481881 -0.07314649 0.08372393
v -0.0704437 -0.07072609 0.08372393
v -0.07262308 -0.07195106 0.08368461
v -0.07478513 -0.07320739 0.0835896
v -0.0704100057 -0.07078698 0.0835896
v -0.07257889 -0.07203094 0.0835359246
v -0.0747379661 -0.07329263 0.083469674
v -0.07036285 -0.07087223 0.083469674
v -0.07251834 -0.0721403956 0.08341083
v -0.07467992 -0.07339756 0.08337225
v -0.0703047961 -0.07097717 0.08337225
v -0.07244636 -0.0722705051 0.0833195448
v -0.07461488 -0.07351512 0.08330266
v -0.07023977 -0.07109471 0.08330266
v -0.0723694 -0.07240962 0.0832665
v -0.0745473057 -0.07363726 0.08326253
v -0.0722936839 -0.07254648 0.08325
v -0.07017219 -0.07121687 0.08326253
v -0.07448124 -0.07375668 0.08325
v -0.07010613 -0.0713362843 0.08325
v -0.0744151846 -0.0738761 0.08326253
v -0.07004006 -0.0714556947 0.08326253
v -0.07221797 -0.0726833344 0.0832665
v -0.0743476 -0.07399825 0.08330266
v -0.0699724853 -0.07157785 0.08330266
v -0.07216004 -0.0727880448 0.08330266
v -0.07210398 -0.07288939 0.08336054
v -0.07428257 -0.0741158 0.08337225
v -0.06990746 -0.0716953948 0.08337225
v -0.07205259 -0.07298228 0.0834392458
v -0.0742245242 -0.07422073 0.083469674
v -0.0698494 -0.07180033 0.083469674
v -0.0720084757 -0.07306202 0.0835359246
v -0.07417736 -0.0743059739 0.0835896
v -0.06980225 -0.07188557 0.0835896
v -0.07197363 -0.07312501 0.08364594
v -0.07414368 -0.07436687 0.08372393
v -0.06976856 -0.07194647 0.08372393
v -0.0719491243 -0.07316931 0.0837636739
v -0.07412425 -0.07440199 0.08386353
v -0.06974913 -0.071981594 0.08386353
v -0.07193504 -0.07319477 0.08388339
v -0.07411818 -0.07441295 0.08400001
v -0.06974307 -0.07199255 0.08400001
v -0.07412425 -0.07440199 0.08413647
v -0.0719386041 -0.07318832 0.08415641
v -0.06974913 -0.071981594 0.08413647
v -0.07414368 -0.07436687 0.0842760652
v -0.06976856 -0.07194647 0.0842760652
v -0.0719642863 -0.0731419 0.08431539
v -0.07417736 -0.0743059739 0.0844104141
v -0.06980225 -0.07188557 0.0844104141
v -0.0720084757 -0.07306202 0.08446409
v -0.0742245242 -0.07422073 0.08453034
v -0.0698494 -0.07180033 0.08453034
v -0.072069034 -0.07295257 0.08458918
v -0.07428257 -0.0741158 0.08462775
v -0.06990746 -0.0716953948 0.08462775
v -0.07214101 -0.07282245 0.08468047
v -0.0743476 -0.07399825 0.084697336
v -0.0699724853 -0.07157785 0.084697336
v -0.07221797 -0.0726833344 0.084733516
v -0.0744151846 -0.0738761 0.08473748
v -0.0722936839 -0.07254648 0.08475
v -0.07004006 -0.0714556947 0.08473748
v -0.07448124 -0.07375668 0.08475
v -0.07010613 -0.0713362843 0.08475
v -0.0745473057 -0.07363726 0.08473748
v -0.07017219 -0.07121687 0.08473748
v -0.0723694 -0.07240962 0.084733516
v -0.07461488 -0.07351512 0.084697336
v -0.07023977 -0.07109471 0.084697336
v -0.072427325 -0.07230491 0.084697336
v -0.07248339 -0.07220357 0.0846394747
v -0.07467992 -0.07339756 0.08462775
v -0.0703047961 -0.07097717 0.08462775
v -0.0725347847 -0.0721106753 0.08456075
v -0.0747379661 -0.07329263 0.08453034
v -0.07036285 -0.07087223 0.08453034
v -0.07257889 -0.07203094 0.08446409
v -0.07478513 -0.07320739 0.0844104141
v -0.0704100057 -0.07078698 0.0844104141
v -0.07261374 -0.0719679445 0.08435407
v -0.07481881 -0.07314649 0.0842760652
v -0.0704437 -0.07072609 0.0842760652
v -0.07263825 -0.07192364 0.08423634
v -0.07483824 -0.07311137 0.08413647
v -0.07046313 -0.07069097 0.08413647
v -0.072652325 -0.07189819 0.08411661
v -0.07484431 -0.07310042 0.08400001
v -0.0704691857 -0.07068001 0.08400001
v -0.0569149256 -0.09518067 0.08400001
v -0.06129004 -0.09760107 0.08400001
v -0.0612839833 -0.09761202 0.08386353
v -0.0590945035 -0.0964053 0.0838436037
v -0.05690887 -0.09519162 0.08386353
v -0.0612645522 -0.0976471454 0.08372393
v -0.0568894371 -0.09522674 0.08372393
v -0.05906882 -0.0964517146 0.08368461
v -0.06123086 -0.09770805 0.0835896
v -0.0568557456 -0.09528764 0.0835896
v -0.059024632 -0.09653159 0.0835359246
v -0.0611837059 -0.09779329 0.083469674
v -0.05680859 -0.0953728855 0.083469674
v -0.0589640774 -0.09664105 0.08341083
v -0.06112565 -0.09789822 0.08337225
v -0.056750536 -0.09547782 0.08337225
v -0.0588920973 -0.09677116 0.0833195448
v -0.0610606223 -0.09801577 0.08330266
v -0.0566855073 -0.09559537 0.08330266
v -0.0588151366 -0.09691028 0.0832665
v -0.0609930456 -0.09813792 0.08326253
v -0.0587394238 -0.0970471352 0.08325
v -0.05661793 -0.09571752 0.08326253
v -0.06092698 -0.09825733 0.08325
v -0.0565518662 -0.09583693 0.08325
v -0.060860917 -0.09837675 0.08326253
v -0.0564858019 -0.09595635 0.08326253
v -0.05866371 -0.09718399 0.0832665
v -0.06079334 -0.0984989 0.08330266
v -0.0564182252 -0.0960785 0.08330266
v -0.0586057827 -0.0972887054 0.08330266
v -0.0585497171 -0.09739005 0.08336054
v -0.06072831 -0.09861645 0.08337225
v -0.0563531965 -0.09619605 0.08337225
v -0.0584983267 -0.0974829346 0.0834392458
v -0.06067026 -0.098721385 0.083469674
v -0.05629514 -0.09630098 0.083469674
v -0.0584542155 -0.09756267 0.0835359246
v -0.0606231019 -0.09880663 0.0835896
v -0.0562479869 -0.096386224 0.0835896
v -0.05841937 -0.0976256654 0.08364594
v -0.06058941 -0.09886753 0.08372393
v -0.0562142953 -0.0964471251 0.08372393
v -0.0583948568 -0.097669974 0.0837636739
v -0.060569983 -0.09890265 0.08386353
v -0.05619487 -0.09648225 0.08386353
v -0.05838078 -0.09769542 0.08388339
v -0.0605639219 -0.0989136 0.08400001
v -0.0561888069 -0.0964932 0.08400001
v -0.060569983 -0.09890265 0.08413647
v -0.058384344 -0.09768897 0.08415641
v -0.05619487 -0.09648225 0.08413647
v -0.06058941 -0.09886753 0.0842760652
v -0.0562142953 -0.0964471251 0.0842760652
v -0.0584100261 -0.0976425558 0.08431539
v -0.0606231019 -0.09880663 0.0844104141
v -0.0562479869 -0.096386224 0.0844104141
v -0.0584542155 -0.09756267 0.08446409
v -0.06067026 -0.098721385 0.08453034
v -0.05629514 -0.09630098 0.08453034
v -0.0585147664 -0.09745322 0.08458918
v -0.06072831 -0.09861645 0.08462775
v -0.0563531965 -0.09619605 0.08462775
v -0.0585867465 -0.0973231047 0.08468047
v -0.06079334 -0.0984989 0.084697336
v -0.0564182252 -0.0960785 0.084697336
v -0.05866371 -0.09718399 0.084733516
v -0.060860917 -0.09837675 0.08473748
v -0.0587394238 -0.0970471352 0.08475
v -0.0564858019 -0.09595635 0.08473748
v -0.06092698 -0.09825733 0.08475
v -0.0565518662 -0.09583693 0.08475
v -0.0609930456 -0.09813792 0.08473748
v -0.05661793 -0.09571752 0.08473748
v -0.0588151366 -0.09691028 0.084733516
v -0.0610606223 -0.09801577 0.084697336
v -0.0566855073 -0.09559537 0.084697336
v -0.0588730648 -0.0968055651 0.084697336
v -0.05892913 -0.09670422 0.0846394747
v -0.06112565 -0.09789822 0.08462775
v -0.056750536 -0.09547782 0.08462775
v -0.0589805171 -0.09661133 0.08456075
v -0.0611837059 -0.09779329 0.08453034
v -0.05680859 -0.0953728855 0.08453034
v -0.059024632 -0.09653159 0.08446409
v -0.06123086 -0.09770805 0.0844104141
v -0.0568557456 -0.09528764 0.0844104141
v -0.05905948 -0.0964686 0.08435407
v -0.0612645522 -0.0976471454 0.0842760652
v -0.0568894371 -0.09522674 0.0842760652
v -0.05908399 -0.0964243 0.08423634
v -0.0612839833 -0.09761202 0.08413647
v -0.05690887 -0.09519162 0.08413647
v -0.05909807 -0.0963988453 0.08411661
v -0.06129004 -0.09760107 0.08400001
v -0.0569149256 -0.09518067 0.08400001
v -0.09540765 -0.07104826 0.0779999942
v -0.08088523 -0.0972989649 0.0779999942
v -0.0835103 -0.09875121 0.0779999942
v -0.102873534 -0.06375027 0.0779999942
v -0.08928249 -0.0676597 0.0779999942
v -0.0914982259 -0.0574572235 0.0779999942
v -0.07569145 -0.07156912 0.0779999942
v -0.07518898 -0.0621485338 0.0779999942
v -0.06889593 -0.0735238343 0.0779999942
v -0.07327104 -0.0759442449 0.0779999942
v -0.1023185 -0.05855622 0.02
v -0.1023185 -0.05855622 0.013
v -0.102042452 -0.05843498 0.013
v -0.101999864 -0.0584214 0.0165
v -0.102042452 -0.05843498 0.02
v -0.101730973 -0.05836358 0.013
v -0.101730973 -0.05836358 0.02
v -0.101637304 -0.0583542027 0.0165
v -0.101398252 -0.05835449 0.013
v -0.101398252 -0.05835449 0.02
v -0.101253837 -0.05837158 0.0165
v -0.101063646 -0.0584143065 0.013
v -0.101063646 -0.0584143065 0.02
v -0.100879826 -0.05847916 0.0165
v -0.100748405 -0.0585414171 0.013
v -0.100748405 -0.0585414171 0.02
v -0.100545734 -0.05866819 0.0165
v -0.100471362 -0.05872591 0.013
v -0.100471362 -0.05872591 0.02
v -0.100274287 -0.0589177534 0.0165
v -0.100245424 -0.0589518957 0.013
v -0.100075983 -0.0592012741 0.0165
v -0.100245424 -0.0589518957 0.02
v -0.100075983 -0.0592012741 0.013
v -0.100075983 -0.0592012741 0.02
v -0.09995475 -0.05947733 0.013
v -0.09995475 -0.05947733 0.02
v -0.0999411643 -0.0595199168 0.0165
v -0.09988335 -0.05978881 0.013
v -0.09988335 -0.05978881 0.02
v -0.09988335 -0.05978881 0.0165
v -0.0998714045 -0.06007339 0.0165
v -0.09987425 -0.06012153 0.013
v -0.09987425 -0.06012153 0.02
v -0.09990987 -0.0603615828 0.0165
v -0.09993407 -0.06045613 0.013
v -0.09993407 -0.06045613 0.02
v -0.09999892 -0.0606399626 0.0165
v -0.100061178 -0.0607713833 0.013
v -0.100061178 -0.0607713833 0.02
v -0.100134045 -0.0608957037 0.0165
v -0.100245669 -0.0610484146 0.013
v -0.100245669 -0.0610484146 0.02
v -0.100306787 -0.06111856 0.0165
v -0.100471653 -0.0612743534 0.013
v -0.100471653 -0.0612743534 0.02
v -0.100506268 -0.06130205 0.0165
v -0.100721039 -0.0614438 0.013
v -0.100721039 -0.0614438 0.02
v -0.10099709 -0.0615650341 0.013
v -0.101039678 -0.061578624 0.0165
v -0.10099709 -0.0615650341 0.02
v -0.101308569 -0.061636433 0.013
v -0.101308569 -0.061636433 0.02
v -0.101402238 -0.061645817 0.0165
v -0.10164129 -0.06164553 0.013
v -0.10164129 -0.06164553 0.02
v -0.101785704 -0.061628446 0.0165
v -0.101975895 -0.06158571 0.013
v -0.101975895 -0.06158571 0.02
v -0.102159716 -0.0615208559 0.0165
v -0.102291144 -0.0614586025 0.013
v -0.102291144 -0.0614586025 0.02
v -0.102493815 -0.0613318272 0.0165
v -0.102568179 -0.06127411 0.013
v -0.102568179 -0.06127411 0.02
v -0.102765255 -0.0610822625 0.0165
v -0.102794118 -0.0610481277 0.013
v -0.102963559 -0.0607987419 0.0165
v -0.102794118 -0.0610481277 0.02
v -0.102963559 -0.0607987419 0.013
v -0.102963559 -0.0607987419 0.02
v -0.103084795 -0.0605226941 0.013
v -0.103084795 -0.0605226941 0.02
v -0.103098378 -0.0604801 0.0165
v -0.103156194 -0.06021121 0.013
v -0.103156194 -0.06021121 0.02
v -0.103156194 -0.06021121 0.0165
v -0.103168145 -0.0599266253 0.0165
v -0.103165291 -0.05987849 0.013
v -0.103165291 -0.05987849 0.02
v -0.103129663 -0.0596384369 0.0165
v -0.103105471 -0.0595438853 0.013
v -0.103105471 -0.0595438853 0.02
v -0.103040613 -0.0593600646 0.0165
v -0.102978364 -0.0592286363 0.013
v -0.102978364 -0.0592286363 0.02
v -0.1029055 -0.0591043122 0.0165
v -0.102793872 -0.0589515977 0.013
v -0.102793872 -0.0589515977 0.02
v -0.102732755 -0.0588814579 0.0165
v -0.102567881 -0.0587256625 0.013
v -0.102567881 -0.0587256625 0.02
v -0.102533273 -0.058697965 0.0165
v -0.1023185 -0.05855622 0.013
v -0.1023185 -0.05855622 0.02
v -0.0853756741 -0.08918204 0.02
v -0.0853756741 -0.08918204 0.013
v -0.08509963 -0.0890608 0.013
v -0.0850570351 -0.0890472159 0.0165
v -0.08509963 -0.0890608 0.02
v -0.08478814 -0.0889894 0.013
v -0.08478814 -0.0889894 0.02
v -0.08469448 -0.08898002 0.0165
v -0.08445542 -0.08898031 0.013
v -0.08445542 -0.08898031 0.02
v -0.0843110159 -0.0889974 0.0165
v -0.0841208249 -0.08904012 0.013
v -0.0841208249 -0.08904012 0.02
v -0.083937 -0.08910498 0.0165
v -0.083805576 -0.08916724 0.013
v -0.083805576 -0.08916724 0.02
v -0.0836029053 -0.08929401 0.0165
v -0.08352853 -0.08935172 0.013
v -0.08352853 -0.08935172 0.02
v -0.0833314657 -0.08954357 0.0165
v -0.0833026 -0.08957771 0.013
v -0.08313315 -0.08982709 0.0165
v -0.0833026 -0.08957771 0.02
v -0.08313315 -0.08982709 0.013
v -0.08313315 -0.08982709 0.02
v -0.08301192 -0.09010314 0.013
v -0.08301192 -0.09010314 0.02
v -0.0829983354 -0.09014574 0.0165
v -0.08294052 -0.09041463 0.013
v -0.08294052 -0.09041463 0.02
v -0.08294052 -0.09041463 0.0165
v -0.0829285756 -0.09069921 0.0165
v -0.08293143 -0.09074735 0.013
v -0.08293143 -0.09074735 0.02
v -0.08296705 -0.09098741 0.0165
v -0.08299124 -0.09108195 0.013
v -0.08299124 -0.09108195 0.02
v -0.0830561 -0.0912657753 0.0165
v -0.08311836 -0.0913971961 0.013
v -0.08311836 -0.0913971961 0.02
v -0.08319122 -0.0915215239 0.0165
v -0.08330284 -0.09167424 0.013
v -0.08330284 -0.09167424 0.02
v -0.08336396 -0.09174438 0.0165
v -0.08352883 -0.09190017 0.013
v -0.08352883 -0.09190017 0.02
v -0.08356345 -0.09192787 0.0165
v -0.08377821 -0.09206962 0.013
v -0.08377821 -0.09206962 0.02
v -0.08405426 -0.0921908543 0.013
v -0.08409685 -0.09220444 0.0165
v -0.08405426 -0.0921908543 0.02
v -0.08436574 -0.09226225 0.013
v -0.08436574 -0.09226225 0.02
v -0.08445941 -0.09227163 0.0165
v -0.08469846 -0.09227135 0.013
v -0.08469846 -0.09227135 0.02
v -0.0848428756 -0.09225426 0.0165
v -0.08503307 -0.09221153 0.013
v -0.08503307 -0.09221153 0.02
v -0.0852168947 -0.09214667 0.0165
v -0.0853483155 -0.0920844153 0.013
v -0.0853483155 -0.0920844153 0.02
v -0.0855509862 -0.09195764 0.0165
v -0.08562535 -0.09189993 0.013
v -0.08562535 -0.09189993 0.02
v -0.0858224258 -0.09170808 0.0165
v -0.08585129 -0.09167394 0.013
v -0.08602073 -0.09142456 0.0165
v -0.08585129 -0.09167394 0.02
v -0.08602073 -0.09142456 0.013
v -0.08602073 -0.09142456 0.02
v -0.0861419737 -0.09114851 0.013
v -0.0861419737 -0.09114851 0.02
v -0.0861555561 -0.09110592 0.0165
v -0.08621337 -0.09083703 0.013
v -0.08621337 -0.09083703 0.02
v -0.08621337 -0.09083703 0.0165
v -0.0862253159 -0.09055245 0.0165
v -0.08622246 -0.09050431 0.013
v -0.08622246 -0.09050431 0.02
v -0.08618684 -0.09026425 0.0165
v -0.08616265 -0.0901697055 0.013
v -0.08616265 -0.0901697055 0.02
v -0.08609779 -0.08998588 0.0165
v -0.0860355347 -0.08985446 0.013
v -0.0860355347 -0.08985446 0.02
v -0.08596267 -0.08973013 0.0165
v -0.08585105 -0.08957742 0.013
v -0.08585105 -0.08957742 0.02
v -0.0857899338 -0.0895072743 0.0165
v -0.08562506 -0.08935148 0.013
v -0.08562506 -0.08935148 0.02
v -0.0855904445 -0.08932379 0.0165
v -0.0853756741 -0.08918204 0.013
v -0.0853756741 -0.08918204 0.02
v -0.0835103 -0.09875121 0.0779999942
v -0.08088523 -0.0972989649 0.0779999942
v -0.08088523 -0.0972989649 0.088
v -0.08526035 -0.09971937 0.088
v -0.08526035 -0.09971937 0.013
v -0.0835103 -0.09875121 0.02
v -0.07651012 -0.09487856 0.013
v -0.07651012 -0.09487856 0.02
v -0.10942398 -0.05604124 0.08890982
v -0.109464385 -0.0559681952 0.088
v -0.109294444 -0.05627538 0.08984047
v -0.109069847 -0.0566813648 0.09073605
v -0.108755469 -0.05724964 0.09153554
v -0.108368449 -0.0579492077 0.0921849757
v -0.107934922 -0.05873286 0.09264895
v -0.1074844 -0.05954721 0.09291653
v -0.107043982 -0.0603433177 0.09300001
v -0.103540942 -0.0666753948 0.06372115
v -0.104293875 -0.0653144 0.0623189174
v -0.10272646 -0.06814765 0.0649491549
v -0.104972675 -0.0640874058 0.06076354
v -0.100970663 -0.07132143 0.06682821
v -0.09914608 -0.07461954 0.06791194
v -0.09736237 -0.0778437853 0.06825
v -0.105567127 -0.0630128756 0.0590810031
v -0.08768075 -0.09534425 0.09300001
v -0.106476739 -0.06136866 0.0554539226
v -0.107001349 -0.0604203753 0.0516847521
v -0.107165 -0.06012456 0.048
v -0.09557865 -0.081068024 0.06791194
v -0.109464385 -0.0559681952 0.013
v -0.107001349 -0.0604203753 0.04431525
v -0.106476739 -0.06136866 0.040546082
v -0.105567127 -0.0630128756 0.0369190052
v -0.104972675 -0.0640874058 0.035236463
v -0.09375407 -0.0843661353 0.06682821
v -0.104293875 -0.0653144 0.0336810872
v -0.0919982642 -0.08753991 0.0649491549
v -0.103540942 -0.0666753948 0.03227885
v -0.10272646 -0.06814765 0.0310508423
v -0.100970663 -0.07132143 0.0291717872
v -0.09914608 -0.07461954 0.0280880667
v -0.09736237 -0.0778437853 0.02775
v -0.08526035 -0.09971937 0.013
v -0.09557865 -0.081068024 0.0280880667
v -0.09375407 -0.0843661353 0.0291717872
v -0.0919982642 -0.08753991 0.0310508423
v -0.09118378 -0.0890121758 0.03227885
v -0.0904308558 -0.0903731659 0.0336810872
v -0.0897520557 -0.09160016 0.035236463
v -0.0891576 -0.092674695 0.0369190052
v -0.08824799 -0.09431891 0.040546082
v -0.08772338 -0.09526719 0.04431525
v -0.08755973 -0.09556301 0.048
v -0.08526035 -0.09971937 0.088
v -0.08772338 -0.09526719 0.0516847521
v -0.08824799 -0.09431891 0.0554539226
v -0.0891576 -0.092674695 0.0590810031
v -0.0897520557 -0.09160016 0.06076354
v -0.0904308558 -0.0903731659 0.0623189174
v -0.09118378 -0.0890121758 0.06372115
v -0.08724032 -0.09614036 0.09291653
v -0.08678981 -0.09695471 0.09264895
v -0.08635628 -0.0977383554 0.0921849757
v -0.08596927 -0.09843793 0.09153554
v -0.0856548846 -0.0990062058 0.09073605
v -0.08543029 -0.09941218 0.08984047
v -0.08530075 -0.09964633 0.08890982
v -0.08768075 -0.09534425 0.09300001
v -0.0850527659 -0.09493016 0.09291653
v -0.0833056346 -0.09292385 0.09300001
v -0.08724032 -0.09614036 0.09291653
v -0.08286521 -0.09371996 0.09291653
v -0.08678981 -0.09695471 0.09264895
v -0.08460225 -0.0957445055 0.09264895
v -0.0824146941 -0.09453431 0.09264895
v -0.08635628 -0.0977383554 0.0921849757
v -0.0841687247 -0.09652816 0.0921849757
v -0.08198117 -0.09531795 0.0921849757
v -0.08596927 -0.09843793 0.09153554
v -0.0837817043 -0.09722772 0.09153554
v -0.08159415 -0.0960175246 0.09153554
v -0.0856548846 -0.0990062058 0.09073605
v -0.08346733 -0.097796 0.09073605
v -0.08127977 -0.0965858 0.09073605
v -0.08543029 -0.09941218 0.08984047
v -0.08324273 -0.09820198 0.08984047
v -0.08105517 -0.09699178 0.08984047
v -0.08530075 -0.09964633 0.08890982
v -0.08311319 -0.0984361246 0.08890982
v -0.080925636 -0.09722592 0.08890982
v -0.08526035 -0.09971937 0.088
v -0.08088523 -0.0972989649 0.088
v -0.10529393 -0.0593751557 0.09300001
v -0.106609382 -0.05906313 0.09291653
v -0.107043982 -0.0603433177 0.09300001
v -0.105734356 -0.0585790463 0.09291653
v -0.1074844 -0.05954721 0.09291653
v -0.10618487 -0.0577646978 0.09264895
v -0.107059896 -0.05824878 0.09264895
v -0.107934922 -0.05873286 0.09264895
v -0.106618404 -0.0569810458 0.0921849757
v -0.107493423 -0.05746513 0.0921849757
v -0.108368449 -0.0579492077 0.0921849757
v -0.107005417 -0.0562814772 0.09153554
v -0.107880443 -0.05676556 0.09153554
v -0.108755469 -0.05724964 0.09153554
v -0.1073198 -0.0557132028 0.09073605
v -0.108194821 -0.0561972857 0.09073605
v -0.109069847 -0.0566813648 0.09073605
v -0.1075444 -0.0553072169 0.08984047
v -0.108419418 -0.0557913 0.08984047
v -0.109294444 -0.05627538 0.08984047
v -0.107673928 -0.05507308 0.08890982
v -0.108548954 -0.05555716 0.08890982
v -0.10942398 -0.05604124 0.08890982
v -0.10771434 -0.0550000332 0.088
v -0.109464385 -0.0559681952 0.088
v -0.08754093 -0.07493928 0.0165
v -0.07651012 -0.09487856 0.013
v -0.09857175 -0.055 0.013
v -0.09857175 -0.055 0.02
v -0.07651012 -0.09487856 0.02
v -0.09211223 -0.0749392956 0.02
v -0.08478814 -0.0889894 0.02
v -0.08445542 -0.08898031 0.02
v -0.0841208249 -0.08904012 0.02
v -0.08509963 -0.0890608 0.02
v -0.083805576 -0.08916724 0.02
v -0.0853756741 -0.08918204 0.02
v -0.08352853 -0.08935172 0.02
v -0.08562506 -0.08935148 0.02
v -0.0833026 -0.08957771 0.02
v -0.07651012 -0.09487856 0.02
v -0.08313315 -0.08982709 0.02
v -0.08301192 -0.09010314 0.02
v -0.08294052 -0.09041463 0.02
v -0.08293143 -0.09074735 0.02
v -0.08299124 -0.09108195 0.02
v -0.08311836 -0.0913971961 0.02
v -0.08330284 -0.09167424 0.02
v -0.09857175 -0.055 0.02
v -0.09995475 -0.05947733 0.02
v -0.0835103 -0.09875121 0.02
v -0.08352883 -0.09190017 0.02
v -0.08377821 -0.09206962 0.02
v -0.08405426 -0.0921908543 0.02
v -0.08436574 -0.09226225 0.02
v -0.08469846 -0.09227135 0.02
v -0.08503307 -0.09221153 0.02
v -0.0853483155 -0.0920844153 0.02
v -0.08562535 -0.09189993 0.02
v -0.08585129 -0.09167394 0.02
v -0.08602073 -0.09142456 0.02
v -0.09988335 -0.05978881 0.02
v -0.09987425 -0.06012153 0.02
v -0.09993407 -0.06045613 0.02
v -0.100061178 -0.0607713833 0.02
v -0.100245669 -0.0610484146 0.02
v -0.100471653 -0.0612743534 0.02
v -0.100721039 -0.0614438 0.02
v -0.10099709 -0.0615650341 0.02
v -0.0944310352 -0.07622211 0.02
v -0.0861419737 -0.09114851 0.02
v -0.101308569 -0.061636433 0.02
v -0.08621337 -0.09083703 0.02
v -0.08585105 -0.08957742 0.02
v -0.10164129 -0.06164553 0.02
v -0.08622246 -0.09050431 0.02
v -0.0860355347 -0.08985446 0.02
v -0.101975895 -0.06158571 0.02
v -0.08616265 -0.0901697055 0.02
v -0.102291144 -0.0614586025 0.02
v -0.102568179 -0.06127411 0.02
v -0.102794118 -0.0610481277 0.02
v -0.102963559 -0.0607987419 0.02
v -0.10771434 -0.0550000332 0.02
v -0.103084795 -0.0605226941 0.02
v -0.103156194 -0.06021121 0.02
v -0.103165291 -0.05987849 0.02
v -0.103105471 -0.0595438853 0.02
v -0.102978364 -0.0592286363 0.02
v -0.102793872 -0.0589515977 0.02
v -0.102567881 -0.0587256625 0.02
v -0.1023185 -0.05855622 0.02
v -0.102042452 -0.05843498 0.02
v -0.101730973 -0.05836358 0.02
v -0.101398252 -0.05835449 0.02
v -0.101063646 -0.0584143065 0.02
v -0.100748405 -0.0585414171 0.02
v -0.100471362 -0.05872591 0.02
v -0.100245424 -0.0589518957 0.02
v -0.100075983 -0.0592012741 0.02
v -0.108589359 -0.0554841161 0.0505
v -0.10771434 -0.0550000332 0.088
v -0.10771434 -0.0550000332 0.02
v -0.10771434 -0.0550000332 0.013
v -0.109464385 -0.0559681952 0.088
v -0.109464385 -0.0559681952 0.013
v -0.102978364 -0.0592286363 0.013
v -0.10771434 -0.0550000332 0.013
v -0.102793872 -0.0589515977 0.013
v -0.103105471 -0.0595438853 0.013
v -0.102567881 -0.0587256625 0.013
v -0.103165291 -0.05987849 0.013
v -0.1023185 -0.05855622 0.013
v -0.103156194 -0.06021121 0.013
v -0.102042452 -0.05843498 0.013
v -0.103084795 -0.0605226941 0.013
v -0.101730973 -0.05836358 0.013
v -0.102963559 -0.0607987419 0.013
v -0.101398252 -0.05835449 0.013
v -0.09857175 -0.055 0.013
v -0.101063646 -0.0584143065 0.013
v -0.100748405 -0.0585414171 0.013
v -0.109464385 -0.0559681952 0.013
v -0.100471362 -0.05872591 0.013
v -0.100245424 -0.0589518957 0.013
v -0.100075983 -0.0592012741 0.013
v -0.102794118 -0.0610481277 0.013
v -0.09995475 -0.05947733 0.013
v -0.0944310352 -0.07622211 0.013
v -0.102568179 -0.06127411 0.013
v -0.102291144 -0.0614586025 0.013
v -0.101975895 -0.06158571 0.013
v -0.10164129 -0.06164553 0.013
v -0.101308569 -0.061636433 0.013
v -0.08526035 -0.09971937 0.013
v -0.09298725 -0.0754233748 0.013
v -0.10099709 -0.0615650341 0.013
v -0.09988335 -0.05978881 0.013
v -0.100721039 -0.0614438 0.013
v -0.09987425 -0.06012153 0.013
v -0.100471653 -0.0612743534 0.013
v -0.09993407 -0.06045613 0.013
v -0.100245669 -0.0610484146 0.013
v -0.100061178 -0.0607713833 0.013
v -0.0833026 -0.08957771 0.013
v -0.07651012 -0.09487856 0.013
v -0.08352853 -0.08935172 0.013
v -0.083805576 -0.08916724 0.013
v -0.0841208249 -0.08904012 0.013
v -0.08313315 -0.08982709 0.013
v -0.08301192 -0.09010314 0.013
v -0.08294052 -0.09041463 0.013
v -0.08445542 -0.08898031 0.013
v -0.08293143 -0.09074735 0.013
v -0.08478814 -0.0889894 0.013
v -0.08299124 -0.09108195 0.013
v -0.08509963 -0.0890608 0.013
v -0.08311836 -0.0913971961 0.013
v -0.0853756741 -0.08918204 0.013
v -0.08562506 -0.08935148 0.013
v -0.08585105 -0.08957742 0.013
v -0.08330284 -0.09167424 0.013
v -0.08352883 -0.09190017 0.013
v -0.08377821 -0.09206962 0.013
v -0.08405426 -0.0921908543 0.013
v -0.08436574 -0.09226225 0.013
v -0.08469846 -0.09227135 0.013
v -0.08503307 -0.09221153 0.013
v -0.0860355347 -0.08985446 0.013
v -0.0853483155 -0.0920844153 0.013
v -0.08616265 -0.0901697055 0.013
v -0.08562535 -0.09189993 0.013
v -0.08622246 -0.09050431 0.013
v -0.08621337 -0.09083703 0.013
v -0.0861419737 -0.09114851 0.013
v -0.08585129 -0.09167394 0.013
v -0.08602073 -0.09142456 0.013
v -0.10771434 -0.0550000332 0.02
v -0.103143044 -0.0550000146 0.0165
v -0.10771434 -0.0550000332 0.013
v -0.09857175 -0.055 0.02
v -0.09857175 -0.055 0.013
v -0.08755973 -0.09556301 0.048
v -0.0858096853 -0.09459484 0.048
v -0.08673674 -0.09498487 0.0459162779
v -0.08772338 -0.09526719 0.04431525
v -0.08597334 -0.0942990258 0.04431525
v -0.08690022 -0.09468937 0.0437771678
v -0.08718408 -0.09417626 0.04161915
v -0.08824799 -0.09431891 0.040546082
v -0.08649794 -0.0933507457 0.040546082
v -0.08759358 -0.0934360549 0.03948447
v -0.0891576 -0.092674695 0.0369190052
v -0.08740756 -0.09170653 0.0369190052
v -0.0881293342 -0.09246762 0.03741903
v -0.08878674 -0.09127928 0.0354697
v -0.0897520557 -0.09160016 0.035236463
v -0.08955583 -0.08988909 0.0336810872
v -0.08800201 -0.090632 0.035236463
v -0.0904308558 -0.0903731659 0.0336810872
v -0.08868081 -0.08940501 0.0336810872
v -0.09118378 -0.0890121758 0.03227885
v -0.08943374 -0.08804402 0.03227885
v -0.09042166 -0.08832401 0.0320923328
v -0.0919982642 -0.08753991 0.0310508423
v -0.09024822 -0.08657175 0.0310508423
v -0.0913653 -0.0866183043 0.0307342689
v -0.09236514 -0.0848109946 0.029627515
v -0.09375407 -0.0843661353 0.0291717872
v -0.09200402 -0.08339798 0.0291717872
v -0.0933985 -0.0829431 0.028781591
v -0.09557865 -0.081068024 0.0280880667
v -0.0938286 -0.0800998658 0.0280880667
v -0.09444315 -0.0810547844 0.0281951986
v -0.0954786539 -0.07918301 0.0278574936
v -0.09736237 -0.0778437853 0.02775
v -0.09561232 -0.07687562 0.02775
v -0.09648734 -0.0773597 0.02775
v -0.09749603 -0.07553639 0.0278574936
v -0.09914608 -0.07461954 0.0280880667
v -0.09739604 -0.07365137 0.0280880667
v -0.09853154 -0.07366462 0.0281951986
v -0.100970663 -0.07132143 0.0291717872
v -0.09922062 -0.07035327 0.0291717872
v -0.100095645 -0.07083735 0.0291717872
v -0.101609387 -0.0681011 0.0307342689
v -0.10272646 -0.06814765 0.0310508423
v -0.100976415 -0.0671794862 0.0310508423
v -0.103540942 -0.0666753948 0.03227885
v -0.1017909 -0.06570723 0.03227885
v -0.102996923 -0.065593 0.03285958
v -0.104293875 -0.0653144 0.0336810872
v -0.104187936 -0.06344012 0.0354697
v -0.102543831 -0.06434624 0.0336810872
v -0.104972675 -0.0640874058 0.035236463
v -0.103222623 -0.06311925 0.035236463
v -0.105567127 -0.0630128756 0.0369190052
v -0.103817075 -0.0620447136 0.0369190052
v -0.105128855 -0.0617393255 0.03844015
v -0.106476739 -0.06136866 0.040546082
v -0.104726695 -0.0604004972 0.040546082
v -0.1057906 -0.060543146 0.04161915
v -0.107001349 -0.0604203753 0.04431525
v -0.105251305 -0.0594522133 0.04431525
v -0.106170766 -0.059855964 0.04485152
v -0.107165 -0.06012456 0.048
v -0.105414957 -0.0591564 0.048
v -0.10623794 -0.05973454 0.0500837266
v -0.105251305 -0.0594522133 0.0516847521
v -0.107001349 -0.0604203753 0.0516847521
v -0.106074467 -0.06003004 0.0522228368
v -0.1057906 -0.060543146 0.0543808527
v -0.104726695 -0.0604004972 0.0554539226
v -0.106476739 -0.06136866 0.0554539226
v -0.1053811 -0.0612833537 0.0565155335
v -0.103817075 -0.0620447136 0.0590810031
v -0.105567127 -0.0630128756 0.0590810031
v -0.104845352 -0.0622517839 0.058580976
v -0.104187936 -0.06344012 0.0605303049
v -0.103222623 -0.06311925 0.06076354
v -0.103418849 -0.06483032 0.0623189174
v -0.104972675 -0.0640874058 0.06076354
v -0.102543831 -0.06434624 0.0623189174
v -0.104293875 -0.0653144 0.0623189174
v -0.1017909 -0.06570723 0.06372115
v -0.103540942 -0.0666753948 0.06372115
v -0.102553017 -0.0663954 0.06390767
v -0.100976415 -0.0671794862 0.0649491549
v -0.10272646 -0.06814765 0.0649491549
v -0.101609387 -0.0681011 0.0652657449
v -0.100609548 -0.06990841 0.066372484
v -0.09922062 -0.07035327 0.06682821
v -0.100970663 -0.07132143 0.06682821
v -0.09957619 -0.0717763156 0.0672184154
v -0.09739604 -0.07365137 0.06791194
v -0.09914608 -0.07461954 0.06791194
v -0.09853154 -0.07366462 0.0678048
v -0.09749603 -0.07553639 0.06814251
v -0.09561232 -0.07687562 0.06825
v -0.09736237 -0.0778437853 0.06825
v -0.09648734 -0.0773597 0.06825
v -0.0954786539 -0.07918301 0.06814251
v -0.0938286 -0.0800998658 0.06791194
v -0.09557865 -0.081068024 0.06791194
v -0.09444315 -0.0810547844 0.0678048
v -0.09200402 -0.08339798 0.06682821
v -0.09375407 -0.0843661353 0.06682821
v -0.09287904 -0.0838820562 0.06682821
v -0.0913653 -0.0866183043 0.0652657449
v -0.09024822 -0.08657175 0.0649491549
v -0.0919982642 -0.08753991 0.0649491549
v -0.08943374 -0.08804402 0.06372115
v -0.09118378 -0.0890121758 0.06372115
v -0.0899777561 -0.08912641 0.06314043
v -0.08868081 -0.08940501 0.0623189174
v -0.08878674 -0.09127928 0.0605303049
v -0.0904308558 -0.0903731659 0.0623189174
v -0.08800201 -0.090632 0.06076354
v -0.0897520557 -0.09160016 0.06076354
v -0.08740756 -0.09170653 0.0590810031
v -0.0891576 -0.092674695 0.0590810031
v -0.08784583 -0.09298008 0.0575598553
v -0.08649794 -0.0933507457 0.0554539226
v -0.08824799 -0.09431891 0.0554539226
v -0.08718408 -0.09417626 0.0543808527
v -0.08597334 -0.0942990258 0.0516847521
v -0.08772338 -0.09526719 0.0516847521
v -0.08680392 -0.0948634446 0.0511484854
v -0.0858096853 -0.09459484 0.048
v -0.08755973 -0.09556301 0.048
v -0.09718588 -0.0606037453 0.0855
v -0.102873534 -0.06375027 0.09300001
v -0.0914982259 -0.0574572235 0.09300001
v -0.0914982259 -0.0574572235 0.0779999942
v -0.102873534 -0.06375027 0.0779999942
v -0.0621371865 -0.0960697755 0.09
v -0.0612839833 -0.09761202 0.08413647
v -0.0612645522 -0.0976471454 0.0842760652
v -0.06123086 -0.09770805 0.0844104141
v -0.0611837059 -0.09779329 0.08453034
v -0.06112565 -0.09789822 0.08462775
v -0.0610606223 -0.09801577 0.084697336
v -0.0609930456 -0.09813792 0.08473748
v -0.06092698 -0.09825733 0.08475
v -0.060860917 -0.09837675 0.08473748
v -0.06129004 -0.09760107 0.08400001
v -0.06079334 -0.0984989 0.084697336
v -0.0621371865 -0.0960697755 0.0779999942
v -0.0612839833 -0.09761202 0.08386353
v -0.0612645522 -0.0976471454 0.08372393
v -0.06123086 -0.09770805 0.0835896
v -0.0611837059 -0.09779329 0.083469674
v -0.06112565 -0.09789822 0.08337225
v -0.0610606223 -0.09801577 0.08330266
v -0.0609930456 -0.09813792 0.08326253
v -0.06092698 -0.09825733 0.08325
v -0.0597167835 -0.1004449 0.0779999942
v -0.060860917 -0.09837675 0.08326253
v -0.06079334 -0.0984989 0.08330266
v -0.06072831 -0.09861645 0.08337225
v -0.06067026 -0.098721385 0.083469674
v -0.0606231019 -0.09880663 0.0835896
v -0.06058941 -0.09886753 0.08372393
v -0.060569983 -0.09890265 0.08386353
v -0.0605639219 -0.0989136 0.08400001
v -0.0597167835 -0.1004449 0.09300001
v -0.060569983 -0.09890265 0.08413647
v -0.06058941 -0.09886753 0.0842760652
v -0.0606231019 -0.09880663 0.0844104141
v -0.06067026 -0.098721385 0.08453034
v -0.06072831 -0.09861645 0.08462775
v -0.07327104 -0.0759442449 0.09
v -0.07569145 -0.07156912 0.09300001
v -0.07461488 -0.07351512 0.084697336
v -0.0745473057 -0.07363726 0.08473748
v -0.07448124 -0.07375668 0.08475
v -0.0744151846 -0.0738761 0.08473748
v -0.0743476 -0.07399825 0.084697336
v -0.07467992 -0.07339756 0.08462775
v -0.07428257 -0.0741158 0.08462775
v -0.0747379661 -0.07329263 0.08453034
v -0.0742245242 -0.07422073 0.08453034
v -0.07478513 -0.07320739 0.0844104141
v -0.07417736 -0.0743059739 0.0844104141
v -0.07481881 -0.07314649 0.0842760652
v -0.07483824 -0.07311137 0.08413647
v -0.07484431 -0.07310042 0.08400001
v -0.07569145 -0.07156912 0.0779999942
v -0.07483824 -0.07311137 0.08386353
v -0.07481881 -0.07314649 0.08372393
v -0.07414368 -0.07436687 0.0842760652
v -0.07412425 -0.07440199 0.08413647
v -0.07411818 -0.07441295 0.08400001
v -0.07327104 -0.0759442449 0.0779999942
v -0.07412425 -0.07440199 0.08386353
v -0.07414368 -0.07436687 0.08372393
v -0.07478513 -0.07320739 0.0835896
v -0.07417736 -0.0743059739 0.0835896
v -0.0747379661 -0.07329263 0.083469674
v -0.0742245242 -0.07422073 0.083469674
v -0.07467992 -0.07339756 0.08337225
v -0.07428257 -0.0741158 0.08337225
v -0.07461488 -0.07351512 0.08330266
v -0.0745473057 -0.07363726 0.08326253
v -0.07448124 -0.07375668 0.08325
v -0.0743476 -0.07399825 0.08330266
v -0.0744151846 -0.0738761 0.08326253
v -0.0710834861 -0.07473404 0.08400001
v -0.06889593 -0.0735238343 0.09
v -0.07327104 -0.0759442449 0.09
v -0.07327104 -0.0759442449 0.0779999942
v -0.06889593 -0.0735238343 0.0779999942
v -0.0655165538 -0.08479681 0.09
v -0.05776207 -0.09364937 0.09
v -0.0621371865 -0.0960697755 0.09
v -0.07327104 -0.0759442449 0.09
v -0.06889593 -0.0735238343 0.09
v -0.0599496253 -0.09485958 0.08400001
v -0.05776207 -0.09364937 0.0779999942
v -0.0621371865 -0.0960697755 0.0779999942
v -0.0621371865 -0.0960697755 0.09
v -0.05776207 -0.09364937 0.09
v -0.0587394238 -0.0970471352 0.0779999942
v -0.05534167 -0.09802449 0.0779999942
v -0.0597167835 -0.1004449 0.0779999942
v -0.0621371865 -0.0960697755 0.0779999942
v -0.05776207 -0.09364937 0.0779999942
v -0.0575292222 -0.09923469 0.0855
v -0.05534167 -0.09802449 0.09300001
v -0.0597167835 -0.1004449 0.09300001
v -0.0597167835 -0.1004449 0.0779999942
v -0.05534167 -0.09802449 0.0779999942
v -0.0824869648 -0.06961441 0.0855
v -0.08928249 -0.0676597 0.09300001
v -0.08928249 -0.0676597 0.0779999942
v -0.07569145 -0.07156912 0.0779999942
v -0.07569145 -0.07156912 0.09300001
v -0.06889593 -0.0735238343 0.09
v -0.06974913 -0.071981594 0.08413647
v -0.06976856 -0.07194647 0.0842760652
v -0.06980225 -0.07188557 0.0844104141
v -0.0698494 -0.07180033 0.08453034
v -0.06990746 -0.0716953948 0.08462775
v -0.0699724853 -0.07157785 0.084697336
v -0.07004006 -0.0714556947 0.08473748
v -0.07010613 -0.0713362843 0.08475
v -0.07017219 -0.07121687 0.08473748
v -0.06974307 -0.07199255 0.08400001
v -0.07023977 -0.07109471 0.084697336
v -0.06889593 -0.0735238343 0.0779999942
v -0.06974913 -0.071981594 0.08386353
v -0.06976856 -0.07194647 0.08372393
v -0.06980225 -0.07188557 0.0835896
v -0.0698494 -0.07180033 0.083469674
v -0.06990746 -0.0716953948 0.08337225
v -0.0699724853 -0.07157785 0.08330266
v -0.07004006 -0.0714556947 0.08326253
v -0.07010613 -0.0713362843 0.08325
v -0.07017219 -0.07121687 0.08326253
v -0.07518898 -0.0621485338 0.0779999942
v -0.07023977 -0.07109471 0.08330266
v -0.0703047961 -0.07097717 0.08337225
v -0.07036285 -0.07087223 0.083469674
v -0.0704100057 -0.07078698 0.0835896
v -0.0704437 -0.07072609 0.08372393
v -0.07046313 -0.07069097 0.08386353
v -0.0704691857 -0.07068001 0.08400001
v -0.07046313 -0.07069097 0.08413647
v -0.0704437 -0.07072609 0.0842760652
v -0.07518898 -0.0621485338 0.09300001
v -0.0704100057 -0.07078698 0.0844104141
v -0.07036285 -0.07087223 0.08453034
v -0.0703047961 -0.07097717 0.08462775
v -0.05534167 -0.09802449 0.09300001
v -0.05776207 -0.09364937 0.09
v -0.0564182252 -0.0960785 0.084697336
v -0.0564858019 -0.09595635 0.08473748
v -0.0565518662 -0.09583693 0.08475
v -0.05661793 -0.09571752 0.08473748
v -0.0566855073 -0.09559537 0.084697336
v -0.0563531965 -0.09619605 0.08462775
v -0.056750536 -0.09547782 0.08462775
v -0.05629514 -0.09630098 0.08453034
v -0.05680859 -0.0953728855 0.08453034
v -0.0562479869 -0.096386224 0.0844104141
v -0.0562142953 -0.0964471251 0.0842760652
v -0.05619487 -0.09648225 0.08413647
v -0.05534167 -0.09802449 0.0779999942
v -0.0561888069 -0.0964932 0.08400001
v -0.05619487 -0.09648225 0.08386353
v -0.0562142953 -0.0964471251 0.08372393
v -0.0568557456 -0.09528764 0.0844104141
v -0.0562479869 -0.096386224 0.0835896
v -0.0568894371 -0.09522674 0.0842760652
v -0.05690887 -0.09519162 0.08413647
v -0.0569149256 -0.09518067 0.08400001
v -0.05776207 -0.09364937 0.0779999942
v -0.05690887 -0.09519162 0.08386353
v -0.0568894371 -0.09522674 0.08372393
v -0.05629514 -0.09630098 0.083469674
v -0.0568557456 -0.09528764 0.0835896
v -0.0563531965 -0.09619605 0.08337225
v -0.05680859 -0.0953728855 0.083469674
v -0.0564182252 -0.0960785 0.08330266
v -0.0564858019 -0.09595635 0.08326253
v -0.0565518662 -0.09583693 0.08325
v -0.056750536 -0.09547782 0.08337225
v -0.05661793 -0.09571752 0.08326253
v -0.0566855073 -0.09559537 0.08330266
v -0.09234507 -0.06935398 0.0855
v -0.09540765 -0.07104826 0.09300001
v -0.09540765 -0.07104826 0.0779999942
v -0.08928249 -0.0676597 0.0779999942
v -0.08928249 -0.0676597 0.09300001
v -0.0914982259 -0.0574572235 0.09300001
v -0.0833436 -0.0598028749 0.0855
v -0.0914982259 -0.0574572235 0.0779999942
v -0.07518898 -0.0621485338 0.09300001
v -0.07518898 -0.0621485338 0.0779999942
f 1 2 3
f 1 3 4
f 5 1 4
f 1 5 6
f 1 6 7
f 8 1 7
f 8 7 9
f 1 8 10
f 8 9 11
f 8 12 10
f 13 8 11
f 8 13 12
f 14 15 16
f 15 17 16
f 16 17 18
f 17 19 18
f 17 20 19
f 20 17 21
f 17 22 21
f 17 23 22
f 23 17 24
f 15 25 17
f 25 15 26
f 15 27 26
f 25 28 17
f 28 29 17
f 29 30 17
f 15 31 27
f 30 32 17
f 30 33 32
f 33 34 32
f 34 35 32
f 35 36 32
f 31 15 37
f 36 38 32
f 15 39 37
f 38 40 32
f 15 41 39
f 41 15 42
f 15 43 42
f 15 44 43
f 44 45 43
f 44 46 45
f 47 46 44
f 40 48 32
f 49 47 44
f 48 50 32
f 50 51 32
f 51 52 32
f 53 49 44
f 52 54 32
f 52 55 54
f 55 56 54
f 56 57 54
f 57 58 54
f 59 53 44
f 58 60 54
f 61 59 44
f 62 61 44
f 63 62 44
f 63 44 54
f 60 64 54
f 65 63 54
f 64 66 54
f 67 65 54
f 66 67 54
f 68 69 70
f 71 68 70
f 68 71 72
f 71 73 72
f 71 70 74
f 75 71 74
f 75 74 76
f 77 75 76
f 77 76 78
f 76 79 78
f 80 81 82
f 80 82 83
f 84 80 83
f 83 82 85
f 86 84 83
f 87 83 85
f 86 83 87
f 87 85 88
f 89 86 87
f 90 87 88
f 89 87 90
f 90 88 91
f 92 89 90
f 93 90 91
f 92 90 93
f 93 91 94
f 95 92 93
f 96 93 94
f 95 93 96
f 96 94 97
f 98 95 96
f 99 96 97
f 98 96 99
f 99 97 100
f 101 99 100
f 102 98 99
f 102 99 101
f 101 100 103
f 104 102 101
f 105 101 103
f 106 104 101
f 107 101 105
f 106 101 107
f 108 107 105
f 109 106 107
f 110 107 108
f 110 109 107
f 111 110 108
f 110 111 109
f 111 108 112
f 111 113 109
f 114 111 112
f 111 114 113
f 114 112 115
f 114 116 113
f 117 114 115
f 114 117 116
f 117 115 118
f 117 119 116
f 120 117 118
f 117 120 119
f 120 118 121
f 120 122 119
f 123 120 121
f 120 123 122
f 123 121 124
f 123 125 122
f 126 123 124
f 123 126 125
f 126 124 127
f 125 126 128
f 126 127 128
f 127 129 128
f 129 130 128
f 128 130 131
f 129 132 130
f 130 133 131
f 132 134 130
f 130 134 133
f 132 135 134
f 134 136 133
f 135 137 134
f 134 137 136
f 135 138 137
f 137 139 136
f 138 140 137
f 137 140 139
f 138 141 140
f 140 142 139
f 141 143 140
f 140 143 142
f 141 144 143
f 143 145 142
f 144 146 143
f 143 146 145
f 144 147 146
f 147 148 146
f 146 149 145
f 146 148 149
f 147 150 148
f 148 151 149
f 150 152 148
f 148 153 151
f 152 154 148
f 148 154 153
f 152 155 154
f 154 156 153
f 155 157 154
f 154 157 156
f 155 158 157
f 158 156 157
f 159 158 155
f 158 160 156
f 161 158 159
f 158 161 160
f 162 161 159
f 161 163 160
f 164 161 162
f 161 164 163
f 165 164 162
f 164 166 163
f 167 164 165
f 164 167 166
f 168 167 165
f 167 169 166
f 170 167 168
f 167 170 169
f 171 170 168
f 170 172 169
f 173 170 171
f 170 173 172
f 174 173 171
f 173 175 172
f 173 174 175
f 176 177 178
f 176 178 179
f 180 176 179
f 179 178 181
f 182 180 179
f 183 179 181
f 182 179 183
f 183 181 184
f 185 182 183
f 186 183 184
f 185 183 186
f 186 184 187
f 188 185 186
f 189 186 187
f 188 186 189
f 189 187 190
f 191 188 189
f 192 189 190
f 191 189 192
f 192 190 193
f 194 191 192
f 195 192 193
f 194 192 195
f 195 193 196
f 197 195 196
f 198 194 195
f 198 195 197
f 197 196 199
f 200 198 197
f 201 197 199
f 202 200 197
f 203 197 201
f 202 197 203
f 204 203 201
f 205 202 203
f 206 203 204
f 206 205 203
f 207 206 204
f 206 207 205
f 207 204 208
f 207 209 205
f 210 207 208
f 207 210 209
f 210 208 211
f 210 212 209
f 213 210 211
f 210 213 212
f 213 211 214
f 213 215 212
f 216 213 214
f 213 216 215
f 216 214 217
f 216 218 215
f 219 216 217
f 216 219 218
f 219 217 220
f 219 221 218
f 222 219 220
f 219 222 221
f 222 220 223
f 221 222 224
f 222 223 224
f 223 225 224
f 225 226 224
f 224 226 227
f 225 228 226
f 226 229 227
f 228 230 226
f 226 230 229
f 228 231 230
f 230 232 229
f 231 233 230
f 230 233 232
f 231 234 233
f 233 235 232
f 234 236 233
f 233 236 235
f 234 237 236
f 236 238 235
f 237 239 236
f 236 239 238
f 237 240 239
f 239 241 238
f 240 242 239
f 239 242 241
f 240 243 242
f 243 244 242
f 242 245 241
f 242 244 245
f 243 246 244
f 244 247 245
f 246 248 244
f 244 249 247
f 248 250 244
f 244 250 249
f 248 251 250
f 250 252 249
f 251 253 250
f 250 253 252
f 251 254 253
f 254 252 253
f 255 254 251
f 254 256 252
f 257 254 255
f 254 257 256
f 258 257 255
f 257 259 256
f 260 257 258
f 257 260 259
f 261 260 258
f 260 262 259
f 263 260 261
f 260 263 262
f 264 263 261
f 263 265 262
f 266 263 264
f 263 266 265
f 267 266 264
f 266 268 265
f 269 266 267
f 266 269 268
f 270 269 267
f 269 271 268
f 269 270 271
f 272 273 274
f 272 274 275
f 276 272 275
f 276 275 277
f 278 276 277
f 278 277 279
f 280 278 279
f 278 280 281
f 282 283 284
f 282 284 285
f 286 282 285
f 285 284 287
f 288 286 285
f 289 285 287
f 288 285 289
f 289 287 290
f 291 288 289
f 292 289 290
f 291 289 292
f 292 290 293
f 294 291 292
f 295 292 293
f 294 292 295
f 295 293 296
f 297 294 295
f 298 295 296
f 297 295 298
f 298 296 299
f 300 297 298
f 301 298 299
f 300 298 301
f 301 299 302
f 303 301 302
f 304 300 301
f 304 301 303
f 303 302 305
f 306 304 303
f 307 303 305
f 308 306 303
f 309 303 307
f 308 303 309
f 310 309 307
f 311 308 309
f 312 309 310
f 312 311 309
f 313 312 310
f 312 313 311
f 313 310 314
f 313 315 311
f 316 313 314
f 313 316 315
f 316 314 317
f 316 318 315
f 319 316 317
f 316 319 318
f 319 317 320
f 319 321 318
f 322 319 320
f 319 322 321
f 322 320 323
f 322 324 321
f 325 322 323
f 322 325 324
f 325 323 326
f 325 327 324
f 328 325 326
f 325 328 327
f 328 326 329
f 327 328 330
f 328 329 330
f 329 331 330
f 331 332 330
f 330 332 333
f 331 334 332
f 332 335 333
f 334 336 332
f 332 336 335
f 334 337 336
f 336 338 335
f 337 339 336
f 336 339 338
f 337 340 339
f 339 341 338
f 340 342 339
f 339 342 341
f 340 343 342
f 342 344 341
f 343 345 342
f 342 345 344
f 343 346 345
f 345 347 344
f 346 348 345
f 345 348 347
f 346 349 348
f 349 350 348
f 348 351 347
f 348 350 351
f 349 352 350
f 350 353 351
f 352 354 350
f 350 355 353
f 354 356 350
f 350 356 355
f 354 357 356
f 356 358 355
f 357 359 356
f 356 359 358
f 357 360 359
f 360 358 359
f 361 360 357
f 360 362 358
f 363 360 361
f 360 363 362
f 364 363 361
f 363 365 362
f 366 363 364
f 363 366 365
f 367 366 364
f 366 368 365
f 369 366 367
f 366 369 368
f 370 369 367
f 369 371 368
f 372 369 370
f 369 372 371
f 373 372 370
f 372 374 371
f 375 372 373
f 372 375 374
f 376 375 373
f 375 377 374
f 375 376 377
f 378 379 380
f 378 380 381
f 382 378 381
f 381 380 383
f 384 382 381
f 385 381 383
f 384 381 385
f 385 383 386
f 387 384 385
f 388 385 386
f 387 385 388
f 388 386 389
f 390 387 388
f 391 388 389
f 390 388 391
f 391 389 392
f 393 390 391
f 394 391 392
f 393 391 394
f 394 392 395
f 396 393 394
f 397 394 395
f 396 394 397
f 397 395 398
f 399 397 398
f 400 396 397
f 400 397 399
f 399 398 401
f 402 400 399
f 403 399 401
f 404 402 399
f 405 399 403
f 404 399 405
f 406 405 403
f 407 404 405
f 408 405 406
f 408 407 405
f 409 408 406
f 408 409 407
f 409 406 410
f 409 411 407
f 412 409 410
f 409 412 411
f 412 410 413
f 412 414 411
f 415 412 413
f 412 415 414
f 415 413 416
f 415 417 414
f 418 415 416
f 415 418 417
f 418 416 419
f 418 420 417
f 421 418 419
f 418 421 420
f 421 419 422
f 421 423 420
f 424 421 422
f 421 424 423
f 424 422 425
f 423 424 426
f 424 425 426
f 425 427 426
f 427 428 426
f 426 428 429
f 427 430 428
f 428 431 429
f 430 432 428
f 428 432 431
f 430 433 432
f 432 434 431
f 433 435 432
f 432 435 434
f 433 436 435
f 435 437 434
f 436 438 435
f 435 438 437
f 436 439 438
f 438 440 437
f 439 441 438
f 438 441 440
f 439 442 441
f 441 443 440
f 442 444 441
f 441 444 443
f 442 445 444
f 445 446 444
f 444 447 443
f 444 446 447
f 445 448 446
f 446 449 447
f 448 450 446
f 446 451 449
f 450 452 446
f 446 452 451
f 450 453 452
f 452 454 451
f 453 455 452
f 452 455 454
f 453 456 455
f 456 454 455
f 457 456 453
f 456 458 454
f 459 456 457
f 456 459 458
f 460 459 457
f 459 461 458
f 462 459 460
f 459 462 461
f 463 462 460
f 462 464 461
f 465 462 463
f 462 465 464
f 466 465 463
f 465 467 464
f 468 465 466
f 465 468 467
f 469 468 466
f 468 470 467
f 471 468 469
f 468 471 470
f 472 471 469
f 471 473 470
f 471 472 473
f 474 475 476
f 474 476 477
f 478 474 477
f 474 478 479
f 478 480 479
f 480 481 479
f 482 483 484
f 483 485 484
f 483 486 485
f 486 483 487
f 483 488 487
f 483 489 488
f 489 483 490
f 483 491 490
f 483 492 491
f 490 491 493
f 492 483 494
f 495 490 493
f 490 495 496
f 490 496 497
f 483 498 494
f 499 490 497
f 483 500 498
f 500 483 501
f 483 502 501
f 499 497 503
f 483 504 502
f 504 505 502
f 504 506 505
f 506 504 507
f 504 508 507
f 499 503 509
f 504 510 508
f 511 499 509
f 510 504 512
f 504 513 512
f 504 514 513
f 514 504 515
f 504 516 515
f 504 517 516
f 517 518 516
f 517 519 518
f 519 517 520
f 517 521 520
f 517 522 521
f 522 517 523
f 517 524 523
f 517 525 524
f 525 517 526
f 517 527 526
f 517 528 527
f 528 529 527
f 528 530 529
f 530 528 531
f 528 532 531
f 528 533 532
f 533 528 534
f 499 534 528
f 499 511 534
f 535 499 528
f 535 528 536
f 528 537 536
f 528 538 537
f 538 528 539
f 528 540 539
f 528 541 540
f 542 543 544
f 543 542 545
f 543 546 544
f 543 545 547
f 543 548 546
f 548 543 547
f 548 549 546
f 548 547 550
f 548 551 549
f 551 548 550
f 551 552 549
f 551 550 553
f 551 554 552
f 554 551 553
f 554 555 552
f 554 553 556
f 554 557 555
f 557 554 556
f 557 558 555
f 557 556 559
f 557 560 558
f 560 557 559
f 560 561 558
f 560 559 562
f 560 563 561
f 563 560 562
f 563 564 561
f 563 562 565
f 564 563 566
f 563 565 566
f 567 568 569
f 568 567 570
f 568 571 569
f 568 570 572
f 568 573 571
f 573 568 572
f 573 574 571
f 573 572 575
f 573 576 574
f 576 573 575
f 576 577 574
f 576 575 578
f 576 579 577
f 579 576 578
f 579 580 577
f 579 578 581
f 579 582 580
f 582 579 581
f 582 583 580
f 582 581 584
f 582 585 583
f 585 582 584
f 585 586 583
f 585 584 587
f 585 588 586
f 588 585 587
f 588 589 586
f 588 587 590
f 588 591 589
f 591 588 590
f 592 593 594
f 592 594 595
f 593 592 596
f 596 592 595
f 597 598 599
f 597 599 600
f 598 597 601
f 602 597 600
f 601 597 603
f 597 602 604
f 597 605 603
f 597 604 606
f 607 597 606
f 607 606 608
f 609 607 608
f 607 609 610
f 607 610 611
f 612 607 611
f 607 612 613
f 607 613 614
f 607 615 597
f 615 616 597
f 617 607 614
f 617 614 618
f 617 618 619
f 620 617 619
f 617 620 621
f 617 621 622
f 623 617 622
f 617 623 624
f 617 624 625
f 626 617 625
f 617 626 627
f 597 616 628
f 597 628 629
f 630 597 629
f 597 630 631
f 597 631 632
f 633 597 632
f 597 633 634
f 597 634 635
f 617 627 636
f 636 597 635
f 636 627 637
f 597 636 605
f 636 635 638
f 639 636 637
f 636 640 605
f 641 636 638
f 636 639 642
f 636 643 640
f 636 641 644
f 636 642 645
f 643 636 645
f 636 644 646
f 647 636 646
f 636 647 648
f 636 648 649
f 650 636 649
f 650 617 636
f 650 649 651
f 650 651 652
f 653 650 652
f 650 653 654
f 650 654 655
f 656 650 655
f 650 656 657
f 650 657 658
f 659 650 658
f 650 659 660
f 650 660 661
f 615 650 661
f 615 661 662
f 663 615 662
f 615 663 664
f 615 664 665
f 666 615 665
f 615 666 616
f 667 668 669
f 667 669 670
f 668 667 671
f 672 667 670
f 667 672 671
f 673 674 675
f 674 673 676
f 674 677 675
f 674 676 678
f 677 674 679
f 680 674 678
f 674 681 679
f 674 680 682
f 674 683 681
f 674 682 684
f 683 674 685
f 674 686 685
f 686 687 685
f 686 688 687
f 689 674 684
f 688 686 690
f 686 691 690
f 686 692 691
f 689 684 693
f 692 686 694
f 689 693 695
f 695 693 696
f 695 696 697
f 698 695 697
f 695 698 699
f 695 699 700
f 701 689 695
f 702 695 700
f 686 702 694
f 702 700 703
f 694 702 704
f 702 703 705
f 702 706 704
f 707 702 705
f 702 708 706
f 702 707 709
f 708 702 710
f 702 709 710
f 702 686 711
f 686 712 711
f 702 711 713
f 714 702 713
f 702 714 715
f 712 716 711
f 712 717 716
f 717 712 718
f 702 715 719
f 712 720 718
f 721 702 719
f 712 722 720
f 702 721 723
f 722 712 724
f 702 723 725
f 726 702 725
f 702 726 727
f 712 728 724
f 712 729 728
f 729 712 730
f 712 701 730
f 701 731 730
f 701 732 731
f 732 701 733
f 695 702 727
f 701 734 733
f 695 727 735
f 701 736 734
f 737 695 735
f 736 701 738
f 695 737 739
f 695 739 740
f 741 695 740
f 701 695 741
f 701 742 738
f 743 701 741
f 701 743 742
f 744 745 746
f 747 745 744
f 745 748 746
f 745 747 748
f 749 750 751
f 752 749 751
f 750 753 751
f 754 752 751
f 754 751 753
f 754 755 752
f 755 754 753
f 755 756 752
f 755 753 757
f 755 758 756
f 758 755 757
f 758 759 756
f 758 757 760
f 759 758 761
f 758 760 761
f 759 761 762
f 762 761 760
f 763 759 762
f 763 762 764
f 762 760 765
f 764 762 765
f 766 763 764
f 764 765 767
f 768 766 764
f 769 764 767
f 768 764 770
f 770 764 769
f 771 768 770
f 772 770 769
f 773 771 770
f 773 770 772
f 773 774 771
f 774 773 772
f 774 775 771
f 774 772 776
f 774 777 775
f 777 774 776
f 777 778 775
f 777 776 779
f 778 777 780
f 777 779 780
f 778 780 781
f 781 780 779
f 782 778 781
f 783 781 779
f 784 782 781
f 784 781 783
f 784 785 782
f 785 784 783
f 785 786 782
f 785 783 787
f 785 788 786
f 788 785 787
f 788 789 786
f 787 790 788
f 788 791 789
f 790 791 788
f 792 789 791
f 790 792 791
f 792 793 789
f 792 790 794
f 793 792 795
f 792 794 796
f 792 797 795
f 797 792 796
f 795 797 798
f 797 799 798
f 797 796 800
f 799 797 800
f 798 799 801
f 799 800 802
f 799 803 801
f 799 802 804
f 799 805 803
f 805 799 804
f 805 806 803
f 805 804 807
f 805 808 806
f 808 805 807
f 808 809 806
f 808 807 810
f 808 811 809
f 811 808 810
f 809 811 812
f 811 810 813
f 811 813 812
f 814 812 813
f 815 814 813
f 814 816 812
f 814 815 817
f 816 814 817
f 818 817 815
f 816 817 818
f 818 815 819
f 820 816 818
f 821 818 819
f 818 821 820
f 821 819 822
f 821 823 820
f 824 821 822
f 821 824 823
f 824 822 825
f 824 825 823
f 822 826 825
f 826 827 825
f 823 825 828
f 825 827 828
f 826 829 827
f 828 827 830
f 829 831 827
f 827 832 830
f 831 833 827
f 827 833 832
f 831 834 833
f 833 835 832
f 834 836 833
f 833 836 835
f 834 837 836
f 837 835 836
f 837 834 838
f 837 839 835
f 840 837 838
f 837 840 839
f 840 838 841
f 840 842 839
f 843 840 841
f 840 843 842
f 843 841 844
f 843 844 842
f 841 845 844
f 842 844 846
f 845 847 844
f 844 847 846
f 845 848 847
f 848 846 847
f 848 845 849
f 848 850 846
f 851 848 849
f 848 851 850
f 851 849 852
f 851 853 850
f 854 851 852
f 851 854 853
f 854 852 855
f 854 855 853
f 852 856 855
f 857 853 855
f 856 858 855
f 859 857 855
f 858 860 855
f 859 855 860
f 858 861 860
f 861 862 860
f 863 859 860
f 863 860 862
f 861 864 862
f 865 863 862
f 864 866 862
f 867 865 862
f 866 868 862
f 867 862 868
f 866 869 868
f 870 867 868
f 869 871 868
f 870 868 871
f 869 872 871
f 873 870 871
f 872 874 871
f 873 871 874
f 872 875 874
f 876 873 874
f 875 876 874
f 877 878 879
f 877 879 880
f 878 877 881
f 881 877 880
f 882 883 884
f 885 882 884
f 882 885 886
f 882 886 887
f 888 882 887
f 882 888 889
f 882 889 890
f 891 882 890
f 882 892 883
f 882 891 893
f 882 894 892
f 894 895 892
f 894 896 895
f 896 894 897
f 894 898 897
f 894 899 898
f 899 894 900
f 894 901 900
f 894 902 901
f 894 903 902
f 903 904 902
f 903 905 904
f 905 903 906
f 903 907 906
f 903 908 907
f 908 903 909
f 903 910 909
f 903 911 910
f 903 912 911
f 912 913 911
f 912 914 913
f 914 912 915
f 912 916 915
f 912 917 916
f 917 912 893
f 882 893 912
f 918 882 912
f 912 919 918
f 919 920 918
f 918 920 921
f 922 918 921
f 918 922 923
f 918 923 924
f 919 925 920
f 926 918 924
f 925 919 927
f 918 926 928
f 919 929 927
f 918 928 930
f 919 931 929
f 931 919 932
f 919 933 932
f 919 934 933
f 934 935 933
f 934 936 935
f 937 918 930
f 918 937 938
f 918 938 939
f 940 918 939
f 940 939 941
f 940 941 942
f 936 934 943
f 944 940 942
f 934 945 943
f 940 944 946
f 934 947 945
f 940 946 948
f 947 934 949
f 934 950 949
f 934 951 950
f 934 940 951
f 952 940 948
f 940 953 951
f 940 952 953
f 954 955 956
f 954 956 957
f 955 954 958
f 958 954 957
f 959 960 961
f 959 961 962
f 960 959 963
f 963 959 962
f 964 965 966
f 964 966 967
f 965 964 968
f 968 964 967
f 969 970 971
f 969 971 972
f 970 969 973
f 973 969 972
f 974 975 976
f 974 976 977
f 975 974 978
f 978 974 977
f 979 980 981
f 979 981 982
f 980 979 983
f 983 979 982
f 984 985 986
f 984 986 987
f 988 984 987
f 984 988 989
f 984 989 990
f 991 984 990
f 984 991 992
f 984 992 993
f 985 984 994
f 995 984 993
f 984 996 994
f 996 997 994
f 996 998 997
f 998 996 999
f 996 1000 999
f 996 1001 1000
f 1001 996 1002
f 996 1003 1002
f 996 1004 1003
f 1004 996 1005
f 996 1006 1005
f 1006 1007 1005
f 1006 1008 1007
f 1008 1006 1009
f 1006 1010 1009
f 1006 1011 1010
f 1011 1006 1012
f 1012 1006 1013
f 1006 1014 1013
f 1006 1015 1014
f 1006 1016 1015
f 1016 1017 1015
f 1016 1018 1017
f 1019 1018 1016
f 995 1019 1016
f 984 995 1016
f 984 1016 1020
f 1021 984 1020
f 1021 1020 1022
f 1021 1022 1023
f 1024 1021 1023
f 1021 1024 1025
f 1021 1025 1026
f 1020 1027 1022
f 1028 1021 1026
f 1020 1029 1027
f 1021 1028 1030
f 1029 1020 1031
f 1020 1032 1031
f 1020 1033 1032
f 1020 1034 1033
f 1034 1035 1033
f 1034 1036 1035
f 1036 1034 1037
f 1021 1030 1038
f 1034 1039 1037
f 1040 1021 1038
f 1021 1040 1041
f 1021 1041 1042
f 1043 1021 1042
f 1043 1042 1044
f 1043 1044 1045
f 1034 1046 1039
f 1047 1043 1045
f 1046 1034 1048
f 1043 1047 1049
f 1034 1050 1048
f 1034 1051 1050
f 1051 1034 1052
f 1034 1043 1052
f 1043 1049 1053
f 1043 1054 1052
f 1055 1043 1053
f 1043 1055 1054
f 1056 1057 1058
f 1059 1056 1058
f 1056 1060 1057
f 1060 1056 1059
f 1061 1062 1063
f 1064 1062 1061
f 1062 1065 1063
f 1062 1064 1065
