# ROS coordinates: X forward, Y left, Z up; units are metres.
o mesh
v 0.0184924249 -0.14177306 0
v 0.0184924249 -0.142273054 -0.0005
v 0.0187926628 -0.1423006 -0.0005
v 0.0190911219 -0.14211984 -0.00025
v 0.0188836455 -0.141808957 0
v 0.0190997813 -0.14238891 -0.0005
v 0.01928383 -0.141924009 0
v 0.0193953216 -0.142542 -0.0005
v 0.0196689256 -0.14212352 0
v 0.0196681079 -0.142430484 -0.00025
v 0.01965915 -0.142756328 -0.0005
v 0.0201124214 -0.142930284 -0.00025
v 0.0200127047 -0.142402783 0
v 0.0198734663 -0.143020168 -0.0005
v 0.0202919655 -0.142746553 0
v 0.0200265758 -0.1433157 -0.0005
v 0.02049147 -0.143131644 0
v 0.0203506537 -0.143526837 -0.00025
v 0.0201148763 -0.143622816 -0.0005
v 0.0203924254 -0.143923044 -0.00025
v 0.0206065327 -0.143531829 0
v 0.0201424249 -0.143923044 -0.0005
v 0.0206424259 -0.143923044 0
v 0.0201148763 -0.1442233 -0.0005
v 0.0206065327 -0.144314274 0
v 0.0203506537 -0.144319266 -0.00025
v 0.0200265758 -0.1445304 -0.0005
v 0.02049147 -0.14471446 0
v 0.0202162638 -0.144722044 -0.00025
v 0.0198734663 -0.14482595 -0.0005
v 0.0202919655 -0.145099565 0
v 0.0199849941 -0.145098746 -0.00025
v 0.01965915 -0.14508979 -0.0005
v 0.0200127047 -0.145443335 0
v 0.0196681079 -0.145415634 -0.00025
v 0.0193953216 -0.145304084 -0.0005
v 0.0196689256 -0.1457226 0
v 0.0192914139 -0.1456469 -0.00025
v 0.0190997813 -0.145457208 -0.0005
v 0.01928383 -0.1459221 0
v 0.0188886411 -0.145781279 -0.00025
v 0.0187926628 -0.145545512 -0.0005
v 0.0188836455 -0.146037161 0
v 0.0184924249 -0.14557305 -0.0005
v 0.0184924249 -0.146073058 2.08166825E-19
v 0.018192187 -0.145545512 -0.0005
v 0.0178937279 -0.145726264 -0.00025
v 0.0178850684 -0.145457208 -0.0005
v 0.0181012042 -0.146037161 0
v 0.01770102 -0.1459221 0
v 0.0175895281 -0.145304084 -0.0005
v 0.0173159242 -0.1457226 0
v 0.0173167419 -0.145415634 -0.00025
v 0.0173257 -0.14508979 -0.0005
v 0.0168724321 -0.144915834 -0.00025
v 0.0169721451 -0.145443335 0
v 0.0171113815 -0.14482595 -0.0005
v 0.0166928843 -0.145099565 0
v 0.0169582739 -0.1445304 -0.0005
v 0.01649338 -0.14471446 0
v 0.016634196 -0.144319266 -0.00025
v 0.0168699715 -0.1442233 -0.0005
v 0.0165924244 -0.143923044 -0.00025
v 0.0163783189 -0.144314274 0
v 0.0168424249 -0.143923044 -0.0005
v 0.0163424239 -0.143923044 0
v 0.0168699715 -0.143622816 -0.0005
v 0.0163783189 -0.143531829 0
v 0.016634196 -0.143526837 -0.00025
v 0.0169582739 -0.1433157 -0.0005
v 0.01649338 -0.143131644 0
v 0.0167685859 -0.143124059 -0.00025
v 0.0171113815 -0.143020168 -0.0005
v 0.0166928843 -0.142746553 0
v 0.0169998538 -0.142747372 -0.00025
v 0.0173257 -0.142756328 -0.0005
v 0.0169721451 -0.142402783 0
v 0.0173167419 -0.142430484 -0.00025
v 0.0175895281 -0.142542 -0.0005
v 0.0173159242 -0.14212352 0
v 0.0176934376 -0.142199218 -0.00025
v 0.0178850684 -0.14238891 -0.0005
v 0.01770102 -0.141924009 0
v 0.0180962086 -0.142064825 -0.00025
v 0.018192187 -0.1423006 -0.0005
v 0.0181012042 -0.141808957 0
v 0.0184924249 -0.142273054 -0.0005
v 0.0184924249 -0.14177306 0
v 0.0484924242 -0.14177306 0
v 0.0484924242 -0.142273054 -0.0005
v 0.048792664 -0.1423006 -0.0005
v 0.049091123 -0.14211984 -0.00025
v 0.0488836467 -0.141808957 0
v 0.04909978 -0.14238891 -0.0005
v 0.0492838323 -0.141924009 0
v 0.04939532 -0.142542 -0.0005
v 0.0496689267 -0.14212352 0
v 0.0496681072 -0.142430484 -0.00025
v 0.0496591553 -0.142756328 -0.0005
v 0.0501124226 -0.142930284 -0.00025
v 0.0500127077 -0.142402783 0
v 0.04987347 -0.143020168 -0.0005
v 0.0502919629 -0.142746553 0
v 0.05002658 -0.1433157 -0.0005
v 0.0504914671 -0.143131644 0
v 0.0503506549 -0.143526837 -0.00025
v 0.05011488 -0.143622816 -0.0005
v 0.0503924266 -0.143923044 -0.00025
v 0.0506065376 -0.143531829 0
v 0.050142426 -0.143923044 -0.0005
v 0.0506424233 -0.143923044 0
v 0.05011488 -0.1442233 -0.0005
v 0.0506065376 -0.144314274 0
v 0.0503506549 -0.144319266 -0.00025
v 0.05002658 -0.1445304 -0.0005
v 0.0504914671 -0.14471446 0
v 0.05021626 -0.144722044 -0.00025
v 0.04987347 -0.14482595 -0.0005
v 0.0502919629 -0.145099565 0
v 0.0499849953 -0.145098746 -0.00025
v 0.0496591553 -0.14508979 -0.0005
v 0.0500127077 -0.145443335 0
v 0.0496681072 -0.145415634 -0.00025
v 0.04939532 -0.145304084 -0.0005
v 0.0496689267 -0.1457226 0
v 0.04929141 -0.1456469 -0.00025
v 0.04909978 -0.145457208 -0.0005
v 0.0492838323 -0.1459221 0
v 0.0488886423 -0.145781279 -0.00025
v 0.048792664 -0.145545512 -0.0005
v 0.0488836467 -0.146037161 0
v 0.0484924242 -0.14557305 -0.0005
v 0.0484924242 -0.146073058 2.08166825E-19
v 0.04819219 -0.145545512 -0.0005
v 0.0478937328 -0.145726264 -0.00025
v 0.04788507 -0.145457208 -0.0005
v 0.04810121 -0.146037161 0
v 0.0477010235 -0.1459221 0
v 0.0475895256 -0.145304084 -0.0005
v 0.04731592 -0.1457226 0
v 0.04731674 -0.145415634 -0.00025
v 0.0473257 -0.14508979 -0.0005
v 0.04687243 -0.144915834 -0.00025
v 0.0469721481 -0.145443335 0
v 0.0471113846 -0.14482595 -0.0005
v 0.04669288 -0.145099565 0
v 0.0469582751 -0.1445304 -0.0005
v 0.0464933775 -0.14471446 0
v 0.0466341972 -0.144319266 -0.00025
v 0.04686997 -0.1442233 -0.0005
v 0.04659243 -0.143923044 -0.00025
v 0.04637832 -0.144314274 0
v 0.0468424261 -0.143923044 -0.0005
v 0.04634243 -0.143923044 0
v 0.04686997 -0.143622816 -0.0005
v 0.04637832 -0.143531829 0
v 0.0466341972 -0.143526837 -0.00025
v 0.0469582751 -0.1433157 -0.0005
v 0.0464933775 -0.143131644 0
v 0.0467685834 -0.143124059 -0.00025
v 0.0471113846 -0.143020168 -0.0005
v 0.04669288 -0.142746553 0
v 0.04699985 -0.142747372 -0.00025
v 0.0473257 -0.142756328 -0.0005
v 0.0469721481 -0.142402783 0
v 0.04731674 -0.142430484 -0.00025
v 0.0475895256 -0.142542 -0.0005
v 0.04731592 -0.14212352 0
v 0.0476934351 -0.142199218 -0.00025
v 0.04788507 -0.14238891 -0.0005
v 0.0477010235 -0.141924009 0
v 0.0480962135 -0.142064825 -0.00025
v 0.04819219 -0.1423006 -0.0005
v 0.04810121 -0.141808957 0
v 0.0484924242 -0.142273054 -0.0005
v 0.0484924242 -0.14177306 0
v 0.09849243 -0.108718544 2.08166825E-19
v 0.09888365 -0.108682655 0
v 0.09849243 -0.108218551 -0.0005
v 0.09888865 -0.108426772 -0.00025
v 0.09879267 -0.108191 -0.0005
v 0.09928383 -0.108567595 0
v 0.0990997851 -0.1081027 -0.0005
v 0.09929142 -0.108292386 -0.00025
v 0.0996689349 -0.108368091 0
v 0.09939533 -0.107949592 -0.0005
v 0.0996681154 -0.10806112 -0.00025
v 0.100012712 -0.108088821 0
v 0.09965915 -0.107735276 -0.0005
v 0.099985 -0.107744232 -0.00025
v 0.100291975 -0.107745051 0
v 0.09987347 -0.107471436 -0.0005
v 0.100216269 -0.107367545 -0.00025
v 0.100491479 -0.107359953 0
v 0.100026585 -0.107175916 -0.0005
v 0.100350663 -0.106964767 -0.00025
v 0.100606531 -0.106959775 0
v 0.100392431 -0.106568553 -0.00025
v 0.100114882 -0.106868789 -0.0005
v 0.100642428 -0.106568553 0
v 0.100142427 -0.106568553 -0.0005
v 0.100606531 -0.10617733 0
v 0.100114882 -0.1062683 -0.0005
v 0.100350663 -0.106172331 -0.00025
v 0.100491479 -0.105777144 0
v 0.100112423 -0.10557577 -0.00025
v 0.100026585 -0.105961196 -0.0005
v 0.100291975 -0.105392046 0
v 0.09987347 -0.105665654 -0.0005
v 0.100012712 -0.105048269 0
v 0.09965915 -0.105401814 -0.0005
v 0.0996681154 -0.105075978 -0.00025
v 0.0996689349 -0.104769006 0
v 0.09909112 -0.104765333 -0.00025
v 0.09939533 -0.105187513 -0.0005
v 0.09928383 -0.1045695 0
v 0.0990997851 -0.105034396 -0.0005
v 0.09888365 -0.104454443 0
v 0.09879267 -0.104946092 -0.0005
v 0.09849243 -0.104418546 0
v 0.09849243 -0.104918554 -0.0005
v 0.09849243 -0.0521500036 5.516421E-18
v 0.09888365 -0.0521141067 0
v 0.09849243 -0.05165 -0.0005
v 0.09888865 -0.0518582352 -0.00025
v 0.09879267 -0.0516224578 -0.0005
v 0.09928383 -0.0519990474 0
v 0.0990997851 -0.0515341535 -0.0005
v 0.09929142 -0.0517238379 -0.00025
v 0.0996689349 -0.0517995432 0
v 0.09939533 -0.0513810478 -0.0005
v 0.0996681154 -0.05149257 -0.00025
v 0.100012712 -0.0515202843 0
v 0.09965915 -0.05116673 -0.0005
v 0.099985 -0.0511756875 -0.00025
v 0.100291975 -0.0511765033 0
v 0.09987347 -0.0509028956 -0.0005
v 0.100216269 -0.05079899 -0.00025
v 0.100491479 -0.0507914051 0
v 0.100026585 -0.05060736 -0.0005
v 0.100350663 -0.05039622 -0.00025
v 0.100606531 -0.0503912233 0
v 0.100392431 -0.0500000045 -0.00025
v 0.100114882 -0.0503002442 -0.0005
v 0.100642428 -0.0500000045 0
v 0.100142427 -0.0500000045 -0.0005
v 0.100606531 -0.0496087819 0
v 0.100114882 -0.0496997647 -0.0005
v 0.100350663 -0.0496037863 -0.00025
v 0.100491479 -0.0492085963 0
v 0.100112423 -0.04900722 -0.00025
v 0.100026585 -0.049392648 -0.0005
v 0.100291975 -0.0488235019 0
v 0.09987347 -0.0490971059 -0.0005
v 0.100012712 -0.04847972 0
v 0.09965915 -0.0488332734 -0.0005
v 0.0996681154 -0.04850743 -0.00025
v 0.0996689349 -0.04820046 0
v 0.09909112 -0.0481967963 -0.00025
v 0.09939533 -0.0486189574 -0.0005
v 0.09928383 -0.0480009578 0
v 0.0990997851 -0.048465848 -0.0005
v 0.09888365 -0.0478858948 0
v 0.09879267 -0.04837755 -0.0005
v 0.09849243 -0.0478499979 0
v 0.09849243 -0.0483500026 -0.0005
v 0.0184924249 -0.0521500036 5.03069825E-18
v 0.0188836455 -0.0521141067 0
v 0.0184924249 -0.05165 -0.0005
v 0.0188886411 -0.0518582352 -0.00025
v 0.0187926628 -0.0516224578 -0.0005
v 0.01928383 -0.0519990474 0
v 0.0190997813 -0.0515341535 -0.0005
v 0.0192914139 -0.0517238379 -0.00025
v 0.0196689256 -0.0517995432 0
v 0.0193953216 -0.0513810478 -0.0005
v 0.0196681079 -0.05149257 -0.00025
v 0.0200127047 -0.0515202843 0
v 0.01965915 -0.05116673 -0.0005
v 0.0199849941 -0.0511756875 -0.00025
v 0.0202919655 -0.0511765033 0
v 0.0198734663 -0.0509028956 -0.0005
v 0.0202162638 -0.05079899 -0.00025
v 0.02049147 -0.0507914051 0
v 0.0200265758 -0.05060736 -0.0005
v 0.0203506537 -0.05039622 -0.00025
v 0.0206065327 -0.0503912233 0
v 0.0203924254 -0.0500000045 -0.00025
v 0.0201148763 -0.0503002442 -0.0005
v 0.0206424259 -0.0500000045 0
v 0.0201424249 -0.0500000045 -0.0005
v 0.0206065327 -0.0496087819 0
v 0.0201148763 -0.0496997647 -0.0005
v 0.0203506537 -0.0496037863 -0.00025
v 0.02049147 -0.0492085963 0
v 0.0201124214 -0.04900722 -0.00025
v 0.0200265758 -0.049392648 -0.0005
v 0.0202919655 -0.0488235019 0
v 0.0198734663 -0.0490971059 -0.0005
v 0.0200127047 -0.04847972 0
v 0.01965915 -0.0488332734 -0.0005
v 0.0196681079 -0.04850743 -0.00025
v 0.0196689256 -0.04820046 0
v 0.0190911219 -0.0481967963 -0.00025
v 0.0193953216 -0.0486189574 -0.0005
v 0.01928383 -0.0480009578 0
v 0.0190997813 -0.048465848 -0.0005
v 0.0188836455 -0.0478858948 0
v 0.0187926628 -0.04837755 -0.0005
v 0.0184924249 -0.0478499979 0
v 0.0184924249 -0.0483500026 -0.0005
v 0.0384924263 -0.14177306 0
v 0.0384924263 -0.142273054 -0.0005
v 0.038792666 -0.1423006 -0.0005
v 0.0390911177 -0.14211984 -0.00025
v 0.0388836451 -0.141808957 0
v 0.0390997827 -0.14238891 -0.0005
v 0.0392838269 -0.141924009 0
v 0.03939532 -0.142542 -0.0005
v 0.0396689251 -0.14212352 0
v 0.039668113 -0.142430484 -0.00025
v 0.03965915 -0.142756328 -0.0005
v 0.04011242 -0.142930284 -0.00025
v 0.0400127061 -0.142402783 0
v 0.0398734659 -0.143020168 -0.0005
v 0.04029196 -0.142746553 0
v 0.0400265753 -0.1433157 -0.0005
v 0.04049147 -0.143131644 0
v 0.0403506532 -0.143526837 -0.00025
v 0.04011488 -0.143622816 -0.0005
v 0.0403924249 -0.143923044 -0.00025
v 0.040606536 -0.143531829 0
v 0.0401424244 -0.143923044 -0.0005
v 0.0406424254 -0.143923044 0
v 0.04011488 -0.1442233 -0.0005
v 0.040606536 -0.144314274 0
v 0.0403506532 -0.144319266 -0.00025
v 0.0400265753 -0.1445304 -0.0005
v 0.04049147 -0.14471446 0
v 0.04021626 -0.144722044 -0.00025
v 0.0398734659 -0.14482595 -0.0005
v 0.04029196 -0.145099565 0
v 0.0399849974 -0.145098746 -0.00025
v 0.03965915 -0.14508979 -0.0005
v 0.0400127061 -0.145443335 0
v 0.039668113 -0.145415634 -0.00025
v 0.03939532 -0.145304084 -0.0005
v 0.0396689251 -0.1457226 0
v 0.0392914154 -0.1456469 -0.00025
v 0.0390997827 -0.145457208 -0.0005
v 0.0392838269 -0.1459221 0
v 0.0388886444 -0.145781279 -0.00025
v 0.038792666 -0.145545512 -0.0005
v 0.0388836451 -0.146037161 0
v 0.0384924263 -0.14557305 -0.0005
v 0.0384924263 -0.146073058 2.08166825E-19
v 0.0381921865 -0.145545512 -0.0005
v 0.03789373 -0.145726264 -0.00025
v 0.03788507 -0.145457208 -0.0005
v 0.0381012037 -0.146037161 0
v 0.0377010219 -0.1459221 0
v 0.0375895277 -0.145304084 -0.0005
v 0.0373159274 -0.1457226 0
v 0.0373167433 -0.145415634 -0.00025
v 0.0373257 -0.14508979 -0.0005
v 0.03687243 -0.144915834 -0.00025
v 0.0369721465 -0.145443335 0
v 0.0371113829 -0.14482595 -0.0005
v 0.0366928838 -0.145099565 0
v 0.0369582735 -0.1445304 -0.0005
v 0.0364933833 -0.14471446 0
v 0.0366342 -0.144319266 -0.00025
v 0.0368699729 -0.1442233 -0.0005
v 0.0365924239 -0.143923044 -0.00025
v 0.03637832 -0.144314274 0
v 0.03684243 -0.143923044 -0.0005
v 0.0363424271 -0.143923044 0
v 0.0368699729 -0.143622816 -0.0005
v 0.03637832 -0.143531829 0
v 0.0366342 -0.143526837 -0.00025
v 0.0369582735 -0.1433157 -0.0005
v 0.0364933833 -0.143131644 0
v 0.0367685854 -0.143124059 -0.00025
v 0.0371113829 -0.143020168 -0.0005
v 0.0366928838 -0.142746553 0
v 0.03699985 -0.142747372 -0.00025
v 0.0373257 -0.142756328 -0.0005
v 0.0369721465 -0.142402783 0
v 0.0373167433 -0.142430484 -0.00025
v 0.0375895277 -0.142542 -0.0005
v 0.0373159274 -0.14212352 0
v 0.0376934372 -0.142199218 -0.00025
v 0.03788507 -0.14238891 -0.0005
v 0.0377010219 -0.141924009 0
v 0.0380962081 -0.142064825 -0.00025
v 0.0381921865 -0.1423006 -0.0005
v 0.0381012037 -0.141808957 0
v 0.0384924263 -0.142273054 -0.0005
v 0.0384924263 -0.14177306 0
v 0.09849243 -0.0521500036 -0.003
v 0.0981012061 -0.0521141067 -0.003
v 0.09849243 -0.05165 -0.00250000018
v 0.0980962142 -0.0518582352 -0.00275000022
v 0.0981921852 -0.0516224578 -0.00250000018
v 0.09770103 -0.0519990474 -0.003
v 0.0978850648 -0.0515341535 -0.00250000018
v 0.0976934358 -0.0517238379 -0.00275000022
v 0.09731592 -0.0517995432 -0.003
v 0.09758954 -0.0513810478 -0.00250000018
v 0.09731674 -0.05149257 -0.00275000022
v 0.0969721451 -0.0515202843 -0.003
v 0.097325705 -0.05116673 -0.00250000018
v 0.09699986 -0.0511756875 -0.00275000022
v 0.09669289 -0.0511765033 -0.003
v 0.09711138 -0.0509028956 -0.00250000018
v 0.0967685953 -0.05079899 -0.00275000022
v 0.09649338 -0.0507914051 -0.003
v 0.09695828 -0.05060736 -0.00250000018
v 0.0966341943 -0.05039622 -0.00275000022
v 0.09637832 -0.0503912233 -0.003
v 0.09659243 -0.0500000045 -0.00275000022
v 0.09686998 -0.0503002442 -0.00250000018
v 0.09634242 -0.0500000045 -0.003
v 0.09684242 -0.0500000045 -0.00250000018
v 0.09637832 -0.0496087819 -0.003
v 0.09686998 -0.0496997647 -0.00250000018
v 0.0966341943 -0.0496037863 -0.00275000022
v 0.09649338 -0.0492085963 -0.003
v 0.096872434 -0.04900722 -0.00275000022
v 0.09695828 -0.049392648 -0.00250000018
v 0.09669289 -0.0488235019 -0.003
v 0.09711138 -0.0490971059 -0.00250000018
v 0.0969721451 -0.04847972 -0.003
v 0.097325705 -0.0488332734 -0.00250000018
v 0.09731674 -0.04850743 -0.00275000022
v 0.09731592 -0.04820046 -0.003
v 0.09789373 -0.0481967963 -0.00275000022
v 0.09758954 -0.0486189574 -0.00250000018
v 0.09770103 -0.0480009578 -0.003
v 0.0978850648 -0.048465848 -0.00250000018
v 0.0981012061 -0.0478858948 -0.003
v 0.0981921852 -0.04837755 -0.00250000018
v 0.09849243 -0.0478499979 -0.003
v 0.09849243 -0.0483500026 -0.00250000018
v 0.102992423 -0.108432509 -0.003
v 0.103492431 -0.108639613 -0.00250000018
v 0.0929947942 -0.118430145 -0.003
v 0.08324716 -0.128628969 -0.00268096454
v 0.06320899 -0.148923054 -0.00250000018
v 0.08299716 -0.128427774 -0.003
v 0.06300188 -0.148423061 -0.003
v 0.09849243 -0.05165 -0.00250000018
v 0.09879267 -0.0516224578 -0.00250000018
v 0.09849243 -0.0521500036 -0.003
v 0.09909112 -0.0518032126 -0.00275000022
v 0.0990997851 -0.0515341535 -0.00250000018
v 0.09888365 -0.0521141067 -0.003
v 0.09928383 -0.0519990474 -0.003
v 0.09939533 -0.0513810478 -0.00250000018
v 0.0996689349 -0.0517995432 -0.003
v 0.0996681154 -0.05149257 -0.00275000022
v 0.09965915 -0.05116673 -0.00250000018
v 0.100112423 -0.0509927869 -0.00275000022
v 0.100012712 -0.0515202843 -0.003
v 0.09987347 -0.0509028956 -0.00250000018
v 0.100291975 -0.0511765033 -0.003
v 0.100026585 -0.05060736 -0.00250000018
v 0.100491479 -0.0507914051 -0.003
v 0.100350663 -0.05039622 -0.00275000022
v 0.100114882 -0.0503002442 -0.00250000018
v 0.100392431 -0.0500000045 -0.00275000022
v 0.100606531 -0.0503912233 -0.003
v 0.100142427 -0.0500000045 -0.00250000018
v 0.100642428 -0.0500000045 -0.003
v 0.100114882 -0.0496997647 -0.00250000018
v 0.100606531 -0.0496087819 -0.003
v 0.100350663 -0.0496037863 -0.00275000022
v 0.100026585 -0.049392648 -0.00250000018
v 0.100491479 -0.0492085963 -0.003
v 0.100216269 -0.04920101 -0.00275000022
v 0.09987347 -0.0490971059 -0.00250000018
v 0.100291975 -0.0488235019 -0.003
v 0.099985 -0.0488243178 -0.00275000022
v 0.09965915 -0.0488332734 -0.00250000018
v 0.100012712 -0.04847972 -0.003
v 0.0996681154 -0.04850743 -0.00275000022
v 0.09939533 -0.0486189574 -0.00250000018
v 0.0996689349 -0.04820046 -0.003
v 0.09929142 -0.0482761636 -0.00275000022
v 0.0990997851 -0.048465848 -0.00250000018
v 0.09928383 -0.0480009578 -0.003
v 0.09888865 -0.0481417738 -0.00275000022
v 0.09879267 -0.04837755 -0.00250000018
v 0.09888365 -0.0478858948 -0.003
v 0.09849243 -0.0483500026 -0.00250000018
v 0.09849243 -0.0478499979 -0.003
v 0.09849243 -0.0483500026 -0.0005
v 0.09849243 -0.0483500026 -0.00250000018
v 0.09879267 -0.04837755 -0.00250000018
v 0.09883651 -0.0483862758 -0.0015
v 0.09879267 -0.04837755 -0.0005
v 0.0990997851 -0.048465848 -0.00250000018
v 0.0990997851 -0.048465848 -0.0005
v 0.0991862938 -0.0485029854 -0.0015
v 0.09939533 -0.0486189574 -0.00250000018
v 0.09939533 -0.0486189574 -0.0005
v 0.09951342 -0.04870382 -0.0015
v 0.09965915 -0.0488332734 -0.00250000018
v 0.09965915 -0.0488332734 -0.0005
v 0.09978861 -0.0489790142 -0.0015
v 0.09987347 -0.0490971059 -0.00250000018
v 0.09987347 -0.0490971059 -0.0005
v 0.099989444 -0.04930614 -0.0015
v 0.100026585 -0.049392648 -0.00250000018
v 0.100026585 -0.049392648 -0.0005
v 0.10010615 -0.04965592 -0.0015
v 0.100114882 -0.0496997647 -0.00250000018
v 0.100142427 -0.0500000045 -0.0015
v 0.100114882 -0.0496997647 -0.0005
v 0.100142427 -0.0500000045 -0.00250000018
v 0.100142427 -0.0500000045 -0.0005
v 0.100114882 -0.0503002442 -0.00250000018
v 0.100114882 -0.0503002442 -0.0005
v 0.10010615 -0.0503440872 -0.0015
v 0.100026585 -0.05060736 -0.00250000018
v 0.100026585 -0.05060736 -0.0005
v 0.100026585 -0.05060736 -0.0015
v 0.09989926 -0.0508621559 -0.0015
v 0.09987347 -0.0509028956 -0.00250000018
v 0.09987347 -0.0509028956 -0.0005
v 0.09972609 -0.05109571 -0.0015
v 0.09965915 -0.05116673 -0.00250000018
v 0.09965915 -0.05116673 -0.0005
v 0.09951342 -0.0512961857 -0.0015
v 0.09939533 -0.0513810478 -0.00250000018
v 0.09939533 -0.0513810478 -0.0005
v 0.09927138 -0.0514545627 -0.0015
v 0.0990997851 -0.0515341535 -0.00250000018
v 0.0990997851 -0.0515341535 -0.0005
v 0.0990123451 -0.0515659451 -0.0015
v 0.09879267 -0.0516224578 -0.00250000018
v 0.09879267 -0.0516224578 -0.0005
v 0.09874897 -0.0516299345 -0.0015
v 0.09849243 -0.05165 -0.00250000018
v 0.09849243 -0.05165 -0.0005
v 0.0981921852 -0.0516224578 -0.00250000018
v 0.0981483459 -0.05161373 -0.0015
v 0.0981921852 -0.0516224578 -0.0005
v 0.0978850648 -0.0515341535 -0.00250000018
v 0.0978850648 -0.0515341535 -0.0005
v 0.09779857 -0.0514970161 -0.0015
v 0.09758954 -0.0513810478 -0.00250000018
v 0.09758954 -0.0513810478 -0.0005
v 0.09747144 -0.0512961857 -0.0015
v 0.097325705 -0.05116673 -0.00250000018
v 0.097325705 -0.05116673 -0.0005
v 0.09719625 -0.0510209948 -0.0015
v 0.09711138 -0.0509028956 -0.00250000018
v 0.09711138 -0.0509028956 -0.0005
v 0.09699541 -0.0506938621 -0.0015
v 0.09695828 -0.05060736 -0.00250000018
v 0.09695828 -0.05060736 -0.0005
v 0.09687871 -0.0503440872 -0.0015
v 0.09686998 -0.0503002442 -0.00250000018
v 0.09684242 -0.0500000045 -0.0015
v 0.09686998 -0.0503002442 -0.0005
v 0.09684242 -0.0500000045 -0.00250000018
v 0.09684242 -0.0500000045 -0.0005
v 0.09686998 -0.0496997647 -0.00250000018
v 0.09686998 -0.0496997647 -0.0005
v 0.09687871 -0.04965592 -0.0015
v 0.09695828 -0.049392648 -0.00250000018
v 0.09695828 -0.049392648 -0.0005
v 0.09695828 -0.049392648 -0.0015
v 0.0970855951 -0.0491378456 -0.0015
v 0.09711138 -0.0490971059 -0.00250000018
v 0.09711138 -0.0490971059 -0.0005
v 0.09725876 -0.0489043 -0.0015
v 0.097325705 -0.0488332734 -0.00250000018
v 0.097325705 -0.0488332734 -0.0005
v 0.09747144 -0.04870382 -0.0015
v 0.09758954 -0.0486189574 -0.00250000018
v 0.09758954 -0.0486189574 -0.0005
v 0.09771347 -0.0485454462 -0.0015
v 0.0978850648 -0.048465848 -0.00250000018
v 0.0978850648 -0.048465848 -0.0005
v 0.09797251 -0.04843406 -0.0015
v 0.0981921852 -0.04837755 -0.00250000018
v 0.0981921852 -0.04837755 -0.0005
v 0.09823589 -0.048370067 -0.0015
v 0.09849243 -0.0483500026 -0.00250000018
v 0.09849243 -0.0483500026 -0.0005
v 0.0184924249 -0.05165 -0.0005
v 0.018192187 -0.0516224578 -0.0005
v 0.0184924249 -0.0521500036 5.03069825E-18
v 0.0178937279 -0.0518032126 -0.00025
v 0.0178850684 -0.0515341535 -0.0005
v 0.0181012042 -0.0521141067 0
v 0.01770102 -0.0519990474 0
v 0.0175895281 -0.0513810478 -0.0005
v 0.0173159242 -0.0517995432 0
v 0.0173167419 -0.05149257 -0.00025
v 0.0173257 -0.05116673 -0.0005
v 0.0168724321 -0.0509927869 -0.00025
v 0.0169721451 -0.0515202843 0
v 0.0171113815 -0.0509028956 -0.0005
v 0.0166928843 -0.0511765033 0
v 0.0169582739 -0.05060736 -0.0005
v 0.01649338 -0.0507914051 0
v 0.016634196 -0.05039622 -0.00025
v 0.0168699715 -0.0503002442 -0.0005
v 0.0165924244 -0.0500000045 -0.00025
v 0.0163783189 -0.0503912233 0
v 0.0168424249 -0.0500000045 -0.0005
v 0.0163424239 -0.0500000045 0
v 0.0168699715 -0.0496997647 -0.0005
v 0.0163783189 -0.0496087819 0
v 0.016634196 -0.0496037863 -0.00025
v 0.0169582739 -0.049392648 -0.0005
v 0.01649338 -0.0492085963 0
v 0.0167685859 -0.04920101 -0.00025
v 0.0171113815 -0.0490971059 -0.0005
v 0.0166928843 -0.0488235019 0
v 0.0169998538 -0.0488243178 -0.00025
v 0.0173257 -0.0488332734 -0.0005
v 0.0169721451 -0.04847972 0
v 0.0173167419 -0.04850743 -0.00025
v 0.0175895281 -0.0486189574 -0.0005
v 0.0173159242 -0.04820046 0
v 0.0176934376 -0.0482761636 -0.00025
v 0.0178850684 -0.048465848 -0.0005
v 0.01770102 -0.0480009578 0
v 0.0180962086 -0.0481417738 -0.00025
v 0.018192187 -0.04837755 -0.0005
v 0.0181012042 -0.0478858948 0
v 0.0184924249 -0.0483500026 -0.0005
v 0.0184924249 -0.0478499979 0
v 0.09849243 -0.05165 -0.0005
v 0.0981921852 -0.0516224578 -0.0005
v 0.09849243 -0.0521500036 5.516421E-18
v 0.09789373 -0.0518032126 -0.00025
v 0.0978850648 -0.0515341535 -0.0005
v 0.0981012061 -0.0521141067 0
v 0.09770103 -0.0519990474 0
v 0.09758954 -0.0513810478 -0.0005
v 0.09731592 -0.0517995432 0
v 0.09731674 -0.05149257 -0.00025
v 0.097325705 -0.05116673 -0.0005
v 0.096872434 -0.0509927869 -0.00025
v 0.0969721451 -0.0515202843 0
v 0.09711138 -0.0509028956 -0.0005
v 0.09669289 -0.0511765033 0
v 0.09695828 -0.05060736 -0.0005
v 0.09649338 -0.0507914051 0
v 0.0966341943 -0.05039622 -0.00025
v 0.09686998 -0.0503002442 -0.0005
v 0.09659243 -0.0500000045 -0.00025
v 0.09637832 -0.0503912233 0
v 0.09684242 -0.0500000045 -0.0005
v 0.09634242 -0.0500000045 0
v 0.09686998 -0.0496997647 -0.0005
v 0.09637832 -0.0496087819 0
v 0.0966341943 -0.0496037863 -0.00025
v 0.09695828 -0.049392648 -0.0005
v 0.09649338 -0.0492085963 0
v 0.0967685953 -0.04920101 -0.00025
v 0.09711138 -0.0490971059 -0.0005
v 0.09669289 -0.0488235019 0
v 0.09699986 -0.0488243178 -0.00025
v 0.097325705 -0.0488332734 -0.0005
v 0.0969721451 -0.04847972 0
v 0.09731674 -0.04850743 -0.00025
v 0.09758954 -0.0486189574 -0.0005
v 0.09731592 -0.04820046 0
v 0.0976934358 -0.0482761636 -0.00025
v 0.0978850648 -0.048465848 -0.0005
v 0.09770103 -0.0480009578 0
v 0.0980962142 -0.0481417738 -0.00025
v 0.0981921852 -0.04837755 -0.0005
v 0.0981012061 -0.0478858948 0
v 0.09849243 -0.0483500026 -0.0005
v 0.09849243 -0.0478499979 0
v 0.09849243 -0.108218551 -0.0005
v 0.0981921852 -0.108191 -0.0005
v 0.09849243 -0.108718544 2.08166825E-19
v 0.09789373 -0.108371757 -0.00025
v 0.0978850648 -0.1081027 -0.0005
v 0.0981012061 -0.108682655 0
v 0.09770103 -0.108567595 0
v 0.09758954 -0.107949592 -0.0005
v 0.09731592 -0.108368091 0
v 0.09731674 -0.10806112 -0.00025
v 0.097325705 -0.107735276 -0.0005
v 0.096872434 -0.10756132 -0.00025
v 0.0969721451 -0.108088821 0
v 0.09711138 -0.107471436 -0.0005
v 0.09669289 -0.107745051 0
v 0.09695828 -0.107175916 -0.0005
v 0.09649338 -0.107359953 0
v 0.0966341943 -0.106964767 -0.00025
v 0.09686998 -0.106868789 -0.0005
v 0.09659243 -0.106568553 -0.00025
v 0.09637832 -0.106959775 0
v 0.09684242 -0.106568553 -0.0005
v 0.09634242 -0.106568553 0
v 0.09686998 -0.1062683 -0.0005
v 0.09637832 -0.10617733 0
v 0.0966341943 -0.106172331 -0.00025
v 0.09695828 -0.105961196 -0.0005
v 0.09649338 -0.105777144 0
v 0.0967685953 -0.10576956 -0.00025
v 0.09711138 -0.105665654 -0.0005
v 0.09669289 -0.105392046 0
v 0.09699986 -0.105392858 -0.00025
v 0.097325705 -0.105401814 -0.0005
v 0.0969721451 -0.105048269 0
v 0.09731674 -0.105075978 -0.00025
v 0.09758954 -0.105187513 -0.0005
v 0.09731592 -0.104769006 0
v 0.0976934358 -0.104844712 -0.00025
v 0.0978850648 -0.105034396 -0.0005
v 0.09770103 -0.1045695 0
v 0.0980962142 -0.104710318 -0.00025
v 0.0981921852 -0.104946092 -0.0005
v 0.0981012061 -0.104454443 0
v 0.09849243 -0.104918554 -0.0005
v 0.09849243 -0.104418546 0
v 0.03835071 -0.148923054 -0.0015
v 0.013492425 -0.148923054 -0.0005
v 0.013492425 -0.148923054 -0.00250000018
v 0.06320899 -0.148923054 -0.00250000018
v 0.06320899 -0.148923054 -0.0005
v 0.0981012061 -0.108682655 0
v 0.06300188 -0.148423061 0
v 0.09849243 -0.108718544 2.08166825E-19
v 0.09770103 -0.108567595 0
v 0.09731592 -0.108368091 0
v 0.0969721451 -0.108088821 0
v 0.09669289 -0.107745051 0
v 0.09888365 -0.108682655 0
v 0.09649338 -0.107359953 0
v 0.0584924258 -0.09696153 0
v 0.0500127077 -0.142402783 0
v 0.09637832 -0.106959775 0
v 0.09634242 -0.106568553 0
v 0.09637832 -0.10617733 0
v 0.09634242 -0.09696153 0
v 0.09649338 -0.105777144 0
v 0.09669289 -0.105392046 0
v 0.0969721451 -0.105048269 0
v 0.09731592 -0.104769006 0
v 0.09770103 -0.1045695 0
v 0.0981012061 -0.104454443 0
v 0.09849243 -0.104418546 0
v 0.09888365 -0.104454443 0
v 0.09928383 -0.1045695 0
v 0.0996689349 -0.104769006 0
v 0.100012712 -0.105048269 0
v 0.100291975 -0.105392046 0
v 0.102992423 -0.108432509 0
v 0.100491479 -0.105777144 0
v 0.100606531 -0.10617733 0
v 0.100642428 -0.106568553 0
v 0.100606531 -0.106959775 0
v 0.100491479 -0.107359953 0
v 0.100291975 -0.107745051 0
v 0.100012712 -0.108088821 0
v 0.0996689349 -0.108368091 0
v 0.09928383 -0.108567595 0
v 0.100291975 -0.0511765033 0
v 0.100012712 -0.0515202843 0
v 0.0996689349 -0.0517995432 0
v 0.09928383 -0.0519990474 0
v 0.100491479 -0.0507914051 0
v 0.09888365 -0.0521141067 0
v 0.102992423 -0.0455000028 0
v 0.09849243 -0.0521500036 5.516421E-18
v 0.100606531 -0.0503912233 0
v 0.0981012061 -0.0521141067 0
v 0.100642428 -0.0500000045 0
v 0.100606531 -0.0496087819 0
v 0.100491479 -0.0492085963 0
v 0.100291975 -0.0488235019 0
v 0.100012712 -0.04847972 0
v 0.09770103 -0.0519990474 0
v 0.09731592 -0.0517995432 0
v 0.0969721451 -0.0515202843 0
v 0.09669289 -0.0511765033 0
v 0.09649338 -0.0507914051 0
v 0.09637832 -0.0503912233 0
v 0.0996689349 -0.04820046 0
v 0.09928383 -0.0480009578 0
v 0.09888365 -0.0478858948 0
v 0.09849243 -0.0478499979 0
v 0.0981012061 -0.0478858948 0
v 0.09770103 -0.0480009578 0
v 0.0139924241 -0.0455000028 0
v 0.09634242 -0.0500000045 0
v 0.01928383 -0.0480009578 0
v 0.09731592 -0.04820046 0
v 0.0196689256 -0.04820046 0
v 0.0969721451 -0.04847972 0
v 0.0200127047 -0.04847972 0
v 0.09669289 -0.0488235019 0
v 0.0202919655 -0.0488235019 0
v 0.09649338 -0.0492085963 0
v 0.02049147 -0.0492085963 0
v 0.09637832 -0.0496087819 0
v 0.0206065327 -0.0496087819 0
v 0.0206424259 -0.0500000045 0
v 0.0188836455 -0.0478858948 0
v 0.0184924249 -0.0478499979 0
v 0.0206065327 -0.0503912233 0
v 0.0181012042 -0.0478858948 0
v 0.01770102 -0.0480009578 0
v 0.0173159242 -0.04820046 0
v 0.0169721451 -0.04847972 0
v 0.0166928843 -0.0488235019 0
v 0.02049147 -0.0507914051 0
v 0.0202919655 -0.0511765033 0
v 0.0200127047 -0.0515202843 0
v 0.0163424239 -0.09696153 0
v 0.0384924263 -0.14177306 0
v 0.0196689256 -0.0517995432 0
v 0.01649338 -0.0492085963 0
v 0.01928383 -0.0519990474 0
v 0.0163783189 -0.0496087819 0
v 0.0188836455 -0.0521141067 0
v 0.0163424239 -0.0500000045 0
v 0.0184924249 -0.0521500036 5.03069825E-18
v 0.0163783189 -0.0503912233 0
v 0.0181012042 -0.0521141067 0
v 0.01770102 -0.0519990474 0
v 0.0173159242 -0.0517995432 0
v 0.0169721451 -0.0515202843 0
v 0.0166928843 -0.0511765033 0
v 0.01649338 -0.0507914051 0
v 0.0139924241 -0.148423061 0
v 0.01649338 -0.143131644 0
v 0.0163783189 -0.143531829 0
v 0.0166928843 -0.142746553 0
v 0.0169721451 -0.142402783 0
v 0.0173159242 -0.14212352 0
v 0.01770102 -0.141924009 0
v 0.0163424239 -0.143923044 0
v 0.0181012042 -0.141808957 0
v 0.0163783189 -0.144314274 0
v 0.0184924249 -0.14177306 0
v 0.01649338 -0.14471446 0
v 0.0188836455 -0.141808957 0
v 0.0166928843 -0.145099565 0
v 0.0169721451 -0.145443335 0
v 0.0173159242 -0.1457226 0
v 0.01770102 -0.1459221 0
v 0.0181012042 -0.146037161 0
v 0.0184924249 -0.146073058 2.08166825E-19
v 0.0188836455 -0.146037161 0
v 0.01928383 -0.141924009 0
v 0.01928383 -0.1459221 0
v 0.0377010219 -0.141924009 0
v 0.0196689256 -0.14212352 0
v 0.0381012037 -0.141808957 0
v 0.0373159274 -0.14212352 0
v 0.0200127047 -0.142402783 0
v 0.0369721465 -0.142402783 0
v 0.0202919655 -0.142746553 0
v 0.0366928838 -0.142746553 0
v 0.02049147 -0.143131644 0
v 0.0364933833 -0.143131644 0
v 0.0206065327 -0.143531829 0
v 0.03637832 -0.143531829 0
v 0.0206424259 -0.143923044 0
v 0.0363424271 -0.143923044 0
v 0.0206065327 -0.144314274 0
v 0.03637832 -0.144314274 0
v 0.02049147 -0.14471446 0
v 0.0364933833 -0.14471446 0
v 0.0202919655 -0.145099565 0
v 0.0366928838 -0.145099565 0
v 0.0200127047 -0.145443335 0
v 0.0369721465 -0.145443335 0
v 0.0196689256 -0.1457226 0
v 0.0373159274 -0.1457226 0
v 0.0377010219 -0.1459221 0
v 0.0381012037 -0.146037161 0
v 0.0384924263 -0.146073058 2.08166825E-19
v 0.0484924242 -0.146073058 2.08166825E-19
v 0.0388836451 -0.146037161 0
v 0.04810121 -0.146037161 0
v 0.0477010235 -0.1459221 0
v 0.0392838269 -0.1459221 0
v 0.04731592 -0.1457226 0
v 0.0396689251 -0.1457226 0
v 0.0469721481 -0.145443335 0
v 0.0400127061 -0.145443335 0
v 0.04669288 -0.145099565 0
v 0.04029196 -0.145099565 0
v 0.0464933775 -0.14471446 0
v 0.04049147 -0.14471446 0
v 0.04637832 -0.144314274 0
v 0.040606536 -0.144314274 0
v 0.04634243 -0.143923044 0
v 0.0406424254 -0.143923044 0
v 0.040606536 -0.143531829 0
v 0.04637832 -0.143531829 0
v 0.04049147 -0.143131644 0
v 0.0464933775 -0.143131644 0
v 0.04029196 -0.142746553 0
v 0.04669288 -0.142746553 0
v 0.0469721481 -0.142402783 0
v 0.0400127061 -0.142402783 0
v 0.04731592 -0.14212352 0
v 0.0396689251 -0.14212352 0
v 0.0477010235 -0.141924009 0
v 0.0392838269 -0.141924009 0
v 0.04810121 -0.141808957 0
v 0.0388836451 -0.141808957 0
v 0.0484924242 -0.14177306 0
v 0.0488836467 -0.141808957 0
v 0.0492838323 -0.141924009 0
v 0.0496689267 -0.14212352 0
v 0.0502919629 -0.142746553 0
v 0.0504914671 -0.143131644 0
v 0.0506065376 -0.143531829 0
v 0.0506424233 -0.143923044 0
v 0.0506065376 -0.144314274 0
v 0.0504914671 -0.14471446 0
v 0.0502919629 -0.145099565 0
v 0.0500127077 -0.145443335 0
v 0.0496689267 -0.1457226 0
v 0.0492838323 -0.1459221 0
v 0.0488836467 -0.146037161 0
v 0.013492425 -0.09696153 -0.0015
v 0.013492425 -0.045 -0.0005
v 0.013492425 -0.045 -0.00250000018
v 0.013492425 -0.148923054 -0.00250000018
v 0.013492425 -0.148923054 -0.0005
v 0.0584924258 -0.0452500023 -0.00025
v 0.013492425 -0.045 -0.0005
v 0.0139924241 -0.0455000028 0
v 0.102992423 -0.0455000028 0
v 0.103492431 -0.045 -0.0005
v 0.03835071 -0.148673058 -0.00025
v 0.0139924241 -0.148423061 0
v 0.013492425 -0.148923054 -0.0005
v 0.06320899 -0.148923054 -0.0005
v 0.06300188 -0.148423061 0
v 0.013492425 -0.045 -0.0005
v 0.0137424245 -0.09696153 -0.00025
v 0.0139924241 -0.0455000028 0
v 0.013492425 -0.148923054 -0.0005
v 0.0139924241 -0.148423061 0
v 0.08324716 -0.128628969 -0.000319035636
v 0.06320899 -0.148923054 -0.0005
v 0.103492431 -0.108639613 -0.0005
v 0.102992423 -0.108432509 0
v 0.06300188 -0.148423061 0
v 0.103242435 -0.0768198147 -0.00025
v 0.103492431 -0.108639613 -0.0005
v 0.103492431 -0.045 -0.0005
v 0.102992423 -0.0455000028 0
v 0.102992423 -0.108432509 0
v 0.0584924258 -0.09696153 -0.003
v 0.09637832 -0.0503912233 -0.003
v 0.09649338 -0.0507914051 -0.003
v 0.09669289 -0.0511765033 -0.003
v 0.0969721451 -0.0515202843 -0.003
v 0.09634242 -0.0500000045 -0.003
v 0.095786944 -0.09696153 -0.003
v 0.09731592 -0.0517995432 -0.003
v 0.09770103 -0.0519990474 -0.003
v 0.0981012061 -0.0521141067 -0.003
v 0.09849243 -0.0521500036 -0.003
v 0.09888365 -0.0521141067 -0.003
v 0.09928383 -0.0519990474 -0.003
v 0.0996689349 -0.0517995432 -0.003
v 0.100012712 -0.0515202843 -0.003
v 0.0212924257 -0.051616583 -0.003
v 0.015692424 -0.09696153 -0.003
v 0.0384924263 -0.1406899 -0.003
v 0.0212924257 -0.04838342 -0.003
v 0.0184924249 -0.0532331653 -0.003
v 0.09637832 -0.0496087819 -0.003
v 0.09649338 -0.0492085963 -0.003
v 0.09669289 -0.0488235019 -0.003
v 0.0969721451 -0.04847972 -0.003
v 0.09731592 -0.04820046 -0.003
v 0.0184924249 -0.0467668436 -0.003
v 0.015692424 -0.051616583 -0.003
v 0.09770103 -0.0480009578 -0.003
v 0.102992423 -0.0455000028 -0.003
v 0.0981012061 -0.0478858948 -0.003
v 0.09849243 -0.0478499979 -0.003
v 0.09888365 -0.0478858948 -0.003
v 0.09928383 -0.0480009578 -0.003
v 0.0996689349 -0.04820046 -0.003
v 0.100012712 -0.04847972 -0.003
v 0.100291975 -0.0488235019 -0.003
v 0.100491479 -0.0492085963 -0.003
v 0.100606531 -0.0496087819 -0.003
v 0.100642428 -0.0500000045 -0.003
v 0.100606531 -0.0503912233 -0.003
v 0.100491479 -0.0507914051 -0.003
v 0.0139924241 -0.0455000028 -0.003
v 0.015692424 -0.04838342 -0.003
v 0.0139924241 -0.148423061 -0.003
v 0.101292424 -0.10495197 -0.003
v 0.100291975 -0.0511765033 -0.003
v 0.102992423 -0.108432509 -0.003
v 0.101292424 -0.10818512 -0.003
v 0.09849243 -0.103335388 -0.003
v 0.09849243 -0.10980171 -0.003
v 0.095692426 -0.10495197 -0.003
v 0.0929947942 -0.118430145 -0.003
v 0.095692426 -0.10818512 -0.003
v 0.08299716 -0.128427774 -0.003
v 0.0512924269 -0.142306477 -0.003
v 0.06300188 -0.148423061 -0.003
v 0.0484924242 -0.1406899 -0.003
v 0.0512924269 -0.145539626 -0.003
v 0.0484924242 -0.147156209 -0.003
v 0.0384924263 -0.147156209 -0.003
v 0.04569243 -0.145539626 -0.003
v 0.0412924252 -0.145539626 -0.003
v 0.04569243 -0.142306477 -0.003
v 0.0412924252 -0.142306477 -0.003
v 0.0184924249 -0.147156209 -0.003
v 0.0356924236 -0.145539626 -0.003
v 0.015692424 -0.145539626 -0.003
v 0.0212924257 -0.145539626 -0.003
v 0.015692424 -0.142306477 -0.003
v 0.0356924236 -0.142306477 -0.003
v 0.0212924257 -0.142306477 -0.003
v 0.0184924249 -0.1406899 -0.003
v 0.0833507 -0.128781334 -0.0015
v 0.06320899 -0.148923054 -0.00250000018
v 0.103492431 -0.108639613 -0.00250000018
v 0.103492431 -0.108639613 -0.0005
v 0.06320899 -0.148923054 -0.0005
v 0.103492431 -0.0768198147 -0.0015
v 0.103492431 -0.108639613 -0.00250000018
v 0.103492431 -0.045 -0.00250000018
v 0.103492431 -0.045 -0.0005
v 0.103492431 -0.108639613 -0.0005
v 0.0584924258 -0.045 -0.0015
v 0.103492431 -0.045 -0.00250000018
v 0.013492425 -0.045 -0.00250000018
v 0.013492425 -0.045 -0.0005
v 0.103492431 -0.045 -0.0005
v 0.103242435 -0.0768198147 -0.00275000022
v 0.102992423 -0.0455000028 -0.003
v 0.103492431 -0.045 -0.00250000018
v 0.103492431 -0.108639613 -0.00250000018
v 0.102992423 -0.108432509 -0.003
v 0.0584924258 -0.0452500023 -0.00275000022
v 0.0139924241 -0.0455000028 -0.003
v 0.013492425 -0.045 -0.00250000018
v 0.103492431 -0.045 -0.00250000018
v 0.102992423 -0.0455000028 -0.003
v 0.013492425 -0.148923054 -0.00250000018
v 0.0137424245 -0.09696153 -0.00275000022
v 0.0139924241 -0.148423061 -0.003
v 0.013492425 -0.045 -0.00250000018
v 0.0139924241 -0.0455000028 -0.003
v 0.06320899 -0.148923054 -0.00250000018
v 0.03835071 -0.148673058 -0.00275000022
v 0.06300188 -0.148423061 -0.003
v 0.013492425 -0.148923054 -0.00250000018
v 0.0139924241 -0.148423061 -0.003
v 0.101292424 -0.10818512 -0.0005
v 0.09965915 -0.107735276 -0.0005
v 0.09987347 -0.107471436 -0.0005
v 0.100026585 -0.107175916 -0.0005
v 0.100114882 -0.106868789 -0.0005
v 0.09939533 -0.107949592 -0.0005
v 0.09849243 -0.10980171 -0.0005
v 0.100142427 -0.106568553 -0.0005
v 0.0990997851 -0.1081027 -0.0005
v 0.101292424 -0.10495197 -0.0005
v 0.09879267 -0.108191 -0.0005
v 0.100114882 -0.1062683 -0.0005
v 0.09849243 -0.108218551 -0.0005
v 0.100026585 -0.105961196 -0.0005
v 0.0981921852 -0.108191 -0.0005
v 0.0978850648 -0.1081027 -0.0005
v 0.09758954 -0.107949592 -0.0005
v 0.09987347 -0.105665654 -0.0005
v 0.09965915 -0.105401814 -0.0005
v 0.09939533 -0.105187513 -0.0005
v 0.09849243 -0.103335388 -0.0005
v 0.095692426 -0.10818512 -0.0005
v 0.0990997851 -0.105034396 -0.0005
v 0.097325705 -0.107735276 -0.0005
v 0.09879267 -0.104946092 -0.0005
v 0.09711138 -0.107471436 -0.0005
v 0.09849243 -0.104918554 -0.0005
v 0.09695828 -0.107175916 -0.0005
v 0.09686998 -0.106868789 -0.0005
v 0.09684242 -0.106568553 -0.0005
v 0.0981921852 -0.104946092 -0.0005
v 0.0978850648 -0.105034396 -0.0005
v 0.09758954 -0.105187513 -0.0005
v 0.095692426 -0.10495197 -0.0005
v 0.09686998 -0.1062683 -0.0005
v 0.097325705 -0.105401814 -0.0005
v 0.09695828 -0.105961196 -0.0005
v 0.09711138 -0.105665654 -0.0005
v 0.0970924348 -0.108993419 -0.00175
v 0.09849243 -0.10980171 -0.0005
v 0.09849243 -0.10980171 -0.003
v 0.095692426 -0.10818512 -0.003
v 0.095692426 -0.10818512 -0.0005
v 0.095692426 -0.10495197 -0.0005
v 0.095692426 -0.106568553 -0.00175
v 0.095692426 -0.10495197 -0.003
v 0.095692426 -0.10818512 -0.0005
v 0.095692426 -0.10818512 -0.003
v 0.09849243 -0.103335388 -0.0005
v 0.0970924348 -0.104143679 -0.00175
v 0.09849243 -0.103335388 -0.003
v 0.095692426 -0.10495197 -0.0005
v 0.095692426 -0.10495197 -0.003
v 0.101292424 -0.10495197 -0.0005
v 0.09989243 -0.104143679 -0.00175
v 0.101292424 -0.10495197 -0.003
v 0.09849243 -0.103335388 -0.0005
v 0.09849243 -0.103335388 -0.003
v 0.101292424 -0.10818512 -0.0005
v 0.101292424 -0.106568553 -0.00175
v 0.101292424 -0.10818512 -0.003
v 0.101292424 -0.10495197 -0.0005
v 0.101292424 -0.10495197 -0.003
v 0.0212924257 -0.051616583 -0.0005
v 0.01965915 -0.05116673 -0.0005
v 0.0198734663 -0.0509028956 -0.0005
v 0.0200265758 -0.05060736 -0.0005
v 0.0201148763 -0.0503002442 -0.0005
v 0.0193953216 -0.0513810478 -0.0005
v 0.0184924249 -0.0532331653 -0.0005
v 0.0201424249 -0.0500000045 -0.0005
v 0.0190997813 -0.0515341535 -0.0005
v 0.0212924257 -0.04838342 -0.0005
v 0.0187926628 -0.0516224578 -0.0005
v 0.0201148763 -0.0496997647 -0.0005
v 0.0184924249 -0.05165 -0.0005
v 0.0200265758 -0.049392648 -0.0005
v 0.018192187 -0.0516224578 -0.0005
v 0.0178850684 -0.0515341535 -0.0005
v 0.0175895281 -0.0513810478 -0.0005
v 0.0198734663 -0.0490971059 -0.0005
v 0.01965915 -0.0488332734 -0.0005
v 0.0193953216 -0.0486189574 -0.0005
v 0.0184924249 -0.0467668436 -0.0005
v 0.015692424 -0.051616583 -0.0005
v 0.0190997813 -0.048465848 -0.0005
v 0.0173257 -0.05116673 -0.0005
v 0.0187926628 -0.04837755 -0.0005
v 0.0171113815 -0.0509028956 -0.0005
v 0.0184924249 -0.0483500026 -0.0005
v 0.0169582739 -0.05060736 -0.0005
v 0.0168699715 -0.0503002442 -0.0005
v 0.0168424249 -0.0500000045 -0.0005
v 0.018192187 -0.04837755 -0.0005
v 0.0178850684 -0.048465848 -0.0005
v 0.0175895281 -0.0486189574 -0.0005
v 0.015692424 -0.04838342 -0.0005
v 0.0168699715 -0.0496997647 -0.0005
v 0.0173257 -0.0488332734 -0.0005
v 0.0169582739 -0.049392648 -0.0005
v 0.0171113815 -0.0490971059 -0.0005
v 0.0212924257 -0.0500000045 -0.00175
v 0.0212924257 -0.04838342 -0.0005
v 0.0212924257 -0.04838342 -0.003
v 0.0212924257 -0.051616583 -0.003
v 0.0212924257 -0.051616583 -0.0005
v 0.0184924249 -0.0532331653 -0.0005
v 0.0198924262 -0.0524248742 -0.00175
v 0.0184924249 -0.0532331653 -0.003
v 0.0212924257 -0.051616583 -0.0005
v 0.0212924257 -0.051616583 -0.003
v 0.015692424 -0.051616583 -0.0005
v 0.0170924254 -0.0524248742 -0.00175
v 0.015692424 -0.051616583 -0.003
v 0.0184924249 -0.0532331653 -0.0005
v 0.0184924249 -0.0532331653 -0.003
v 0.015692424 -0.04838342 -0.0005
v 0.015692424 -0.0500000045 -0.00175
v 0.015692424 -0.04838342 -0.003
v 0.015692424 -0.051616583 -0.0005
v 0.015692424 -0.051616583 -0.003
v 0.0184924249 -0.0467668436 -0.0005
v 0.0170924254 -0.04757513 -0.00175
v 0.0184924249 -0.0467668436 -0.003
v 0.015692424 -0.04838342 -0.0005
v 0.015692424 -0.04838342 -0.003
v 0.0212924257 -0.145539626 -0.0005
v 0.01965915 -0.14508979 -0.0005
v 0.0198734663 -0.14482595 -0.0005
v 0.0200265758 -0.1445304 -0.0005
v 0.0201148763 -0.1442233 -0.0005
v 0.0193953216 -0.145304084 -0.0005
v 0.0184924249 -0.147156209 -0.0005
v 0.0201424249 -0.143923044 -0.0005
v 0.0190997813 -0.145457208 -0.0005
v 0.0212924257 -0.142306477 -0.0005
v 0.0187926628 -0.145545512 -0.0005
v 0.0201148763 -0.143622816 -0.0005
v 0.0184924249 -0.14557305 -0.0005
v 0.0200265758 -0.1433157 -0.0005
v 0.018192187 -0.145545512 -0.0005
v 0.0178850684 -0.145457208 -0.0005
v 0.0175895281 -0.145304084 -0.0005
v 0.0198734663 -0.143020168 -0.0005
v 0.01965915 -0.142756328 -0.0005
v 0.0193953216 -0.142542 -0.0005
v 0.0184924249 -0.1406899 -0.0005
v 0.015692424 -0.145539626 -0.0005
v 0.0190997813 -0.14238891 -0.0005
v 0.0173257 -0.14508979 -0.0005
v 0.0187926628 -0.1423006 -0.0005
v 0.0171113815 -0.14482595 -0.0005
v 0.0184924249 -0.142273054 -0.0005
v 0.0169582739 -0.1445304 -0.0005
v 0.0168699715 -0.1442233 -0.0005
v 0.0168424249 -0.143923044 -0.0005
v 0.018192187 -0.1423006 -0.0005
v 0.0178850684 -0.14238891 -0.0005
v 0.0175895281 -0.142542 -0.0005
v 0.015692424 -0.142306477 -0.0005
v 0.0168699715 -0.143622816 -0.0005
v 0.0173257 -0.142756328 -0.0005
v 0.0169582739 -0.1433157 -0.0005
v 0.0171113815 -0.143020168 -0.0005
v 0.0198924262 -0.146347925 -0.00175
v 0.0212924257 -0.145539626 -0.0005
v 0.0212924257 -0.145539626 -0.003
v 0.0184924249 -0.147156209 -0.003
v 0.0184924249 -0.147156209 -0.0005
v 0.015692424 -0.145539626 -0.0005
v 0.0170924254 -0.146347925 -0.00175
v 0.015692424 -0.145539626 -0.003
v 0.0184924249 -0.147156209 -0.0005
v 0.0184924249 -0.147156209 -0.003
v 0.015692424 -0.142306477 -0.0005
v 0.015692424 -0.143923044 -0.00175
v 0.015692424 -0.142306477 -0.003
v 0.015692424 -0.145539626 -0.0005
v 0.015692424 -0.145539626 -0.003
v 0.0184924249 -0.1406899 -0.0005
v 0.0170924254 -0.141498178 -0.00175
v 0.0184924249 -0.1406899 -0.003
v 0.015692424 -0.142306477 -0.0005
v 0.015692424 -0.142306477 -0.003
v 0.0212924257 -0.142306477 -0.0005
v 0.0198924262 -0.141498178 -0.00175
v 0.0212924257 -0.142306477 -0.003
v 0.0184924249 -0.1406899 -0.0005
v 0.0184924249 -0.1406899 -0.003
v 0.0512924269 -0.145539626 -0.0005
v 0.0496591553 -0.14508979 -0.0005
v 0.04987347 -0.14482595 -0.0005
v 0.05002658 -0.1445304 -0.0005
v 0.05011488 -0.1442233 -0.0005
v 0.04939532 -0.145304084 -0.0005
v 0.0484924242 -0.147156209 -0.0005
v 0.050142426 -0.143923044 -0.0005
v 0.04909978 -0.145457208 -0.0005
v 0.0512924269 -0.142306477 -0.0005
v 0.048792664 -0.145545512 -0.0005
v 0.05011488 -0.143622816 -0.0005
v 0.0484924242 -0.14557305 -0.0005
v 0.05002658 -0.1433157 -0.0005
v 0.04819219 -0.145545512 -0.0005
v 0.04788507 -0.145457208 -0.0005
v 0.0475895256 -0.145304084 -0.0005
v 0.04987347 -0.143020168 -0.0005
v 0.0496591553 -0.142756328 -0.0005
v 0.04939532 -0.142542 -0.0005
v 0.0484924242 -0.1406899 -0.0005
v 0.04569243 -0.145539626 -0.0005
v 0.04909978 -0.14238891 -0.0005
v 0.0473257 -0.14508979 -0.0005
v 0.048792664 -0.1423006 -0.0005
v 0.0471113846 -0.14482595 -0.0005
v 0.0484924242 -0.142273054 -0.0005
v 0.0469582751 -0.1445304 -0.0005
v 0.04686997 -0.1442233 -0.0005
v 0.0468424261 -0.143923044 -0.0005
v 0.04819219 -0.1423006 -0.0005
v 0.04788507 -0.14238891 -0.0005
v 0.0475895256 -0.142542 -0.0005
v 0.04569243 -0.142306477 -0.0005
v 0.04686997 -0.143622816 -0.0005
v 0.0473257 -0.142756328 -0.0005
v 0.0469582751 -0.1433157 -0.0005
v 0.0471113846 -0.143020168 -0.0005
v 0.04569243 -0.143923044 -0.00175
v 0.04569243 -0.145539626 -0.0005
v 0.04569243 -0.145539626 -0.003
v 0.04569243 -0.142306477 -0.003
v 0.04569243 -0.142306477 -0.0005
v 0.0484924242 -0.1406899 -0.0005
v 0.0470924228 -0.141498178 -0.00175
v 0.0484924242 -0.1406899 -0.003
v 0.04569243 -0.142306477 -0.0005
v 0.04569243 -0.142306477 -0.003
v 0.0512924269 -0.142306477 -0.0005
v 0.0498924255 -0.141498178 -0.00175
v 0.0512924269 -0.142306477 -0.003
v 0.0484924242 -0.1406899 -0.0005
v 0.0484924242 -0.1406899 -0.003
v 0.0512924269 -0.145539626 -0.0005
v 0.0512924269 -0.143923044 -0.00175
v 0.0512924269 -0.145539626 -0.003
v 0.0512924269 -0.142306477 -0.0005
v 0.0512924269 -0.142306477 -0.003
v 0.0484924242 -0.147156209 -0.0005
v 0.0498924255 -0.146347925 -0.00175
v 0.0484924242 -0.147156209 -0.003
v 0.0512924269 -0.145539626 -0.0005
v 0.0512924269 -0.145539626 -0.003
v 0.0412924252 -0.145539626 -0.0005
v 0.03965915 -0.14508979 -0.0005
v 0.0398734659 -0.14482595 -0.0005
v 0.0400265753 -0.1445304 -0.0005
v 0.04011488 -0.1442233 -0.0005
v 0.03939532 -0.145304084 -0.0005
v 0.0384924263 -0.147156209 -0.0005
v 0.0401424244 -0.143923044 -0.0005
v 0.0390997827 -0.145457208 -0.0005
v 0.0412924252 -0.142306477 -0.0005
v 0.038792666 -0.145545512 -0.0005
v 0.04011488 -0.143622816 -0.0005
v 0.0384924263 -0.14557305 -0.0005
v 0.0400265753 -0.1433157 -0.0005
v 0.0381921865 -0.145545512 -0.0005
v 0.03788507 -0.145457208 -0.0005
v 0.0375895277 -0.145304084 -0.0005
v 0.0398734659 -0.143020168 -0.0005
v 0.03965915 -0.142756328 -0.0005
v 0.03939532 -0.142542 -0.0005
v 0.0384924263 -0.1406899 -0.0005
v 0.0356924236 -0.145539626 -0.0005
v 0.0390997827 -0.14238891 -0.0005
v 0.0373257 -0.14508979 -0.0005
v 0.038792666 -0.1423006 -0.0005
v 0.0371113829 -0.14482595 -0.0005
v 0.0384924263 -0.142273054 -0.0005
v 0.0369582735 -0.1445304 -0.0005
v 0.0368699729 -0.1442233 -0.0005
v 0.03684243 -0.143923044 -0.0005
v 0.0381921865 -0.1423006 -0.0005
v 0.03788507 -0.14238891 -0.0005
v 0.0375895277 -0.142542 -0.0005
v 0.0356924236 -0.142306477 -0.0005
v 0.0368699729 -0.143622816 -0.0005
v 0.0373257 -0.142756328 -0.0005
v 0.0369582735 -0.1433157 -0.0005
v 0.0371113829 -0.143020168 -0.0005
v 0.0412924252 -0.143923044 -0.00175
v 0.0412924252 -0.142306477 -0.0005
v 0.0412924252 -0.142306477 -0.003
v 0.0412924252 -0.145539626 -0.003
v 0.0412924252 -0.145539626 -0.0005
v 0.0384924263 -0.147156209 -0.0005
v 0.0398924239 -0.146347925 -0.00175
v 0.0384924263 -0.147156209 -0.003
v 0.0412924252 -0.145539626 -0.0005
v 0.0412924252 -0.145539626 -0.003
v 0.0356924236 -0.145539626 -0.0005
v 0.0370924249 -0.146347925 -0.00175
v 0.0356924236 -0.145539626 -0.003
v 0.0384924263 -0.147156209 -0.0005
v 0.0384924263 -0.147156209 -0.003
v 0.0356924236 -0.142306477 -0.0005
v 0.0356924236 -0.143923044 -0.00175
v 0.0356924236 -0.142306477 -0.003
v 0.0356924236 -0.145539626 -0.0005
v 0.0356924236 -0.145539626 -0.003
v 0.0384924263 -0.1406899 -0.0005
v 0.0370924249 -0.141498178 -0.00175
v 0.0384924263 -0.1406899 -0.003
v 0.0356924236 -0.142306477 -0.0005
v 0.0356924236 -0.142306477 -0.003
v 0.09849243 -0.10980171 -0.0005
v 0.09989243 -0.108993419 -0.00175
v 0.09849243 -0.10980171 -0.003
v 0.101292424 -0.10818512 -0.0005
v 0.101292424 -0.10818512 -0.003
v 0.0212924257 -0.04838342 -0.0005
v 0.0198924262 -0.04757513 -0.00175
v 0.0212924257 -0.04838342 -0.003
v 0.0184924249 -0.0467668436 -0.0005
v 0.0184924249 -0.0467668436 -0.003
v 0.0212924257 -0.145539626 -0.0005
v 0.0212924257 -0.143923044 -0.00175
v 0.0212924257 -0.145539626 -0.003
v 0.0212924257 -0.142306477 -0.0005
v 0.0212924257 -0.142306477 -0.003
v 0.04569243 -0.145539626 -0.0005
v 0.0470924228 -0.146347925 -0.00175
v 0.04569243 -0.145539626 -0.003
v 0.0484924242 -0.147156209 -0.0005
v 0.0484924242 -0.147156209 -0.003
v 0.0412924252 -0.142306477 -0.0005
v 0.0398924239 -0.141498178 -0.00175
v 0.0412924252 -0.142306477 -0.003
v 0.0384924263 -0.1406899 -0.0005
v 0.0384924263 -0.1406899 -0.003
f 1 2 3
f 1 3 4
f 5 1 4
f 4 3 6
f 7 5 4
f 4 6 8
f 9 7 4
f 10 4 8
f 9 4 10
f 10 8 11
f 12 10 11
f 13 9 10
f 13 10 12
f 12 11 14
f 15 13 12
f 12 14 16
f 17 15 12
f 18 12 16
f 17 12 18
f 18 16 19
f 20 18 19
f 21 17 18
f 21 18 20
f 20 19 22
f 23 21 20
f 20 22 24
f 25 23 20
f 26 20 24
f 25 20 26
f 26 24 27
f 28 25 26
f 29 26 27
f 28 26 29
f 29 27 30
f 31 28 29
f 32 29 30
f 31 29 32
f 32 30 33
f 34 31 32
f 35 32 33
f 34 32 35
f 35 33 36
f 37 34 35
f 38 35 36
f 37 35 38
f 38 36 39
f 40 37 38
f 41 38 39
f 40 38 41
f 41 39 42
f 43 40 41
f 44 41 42
f 43 41 44
f 45 43 44
f 44 46 45
f 46 47 45
f 46 48 47
f 45 47 49
f 47 50 49
f 48 51 47
f 47 52 50
f 51 53 47
f 47 53 52
f 51 54 53
f 54 55 53
f 53 56 52
f 53 55 56
f 54 57 55
f 55 58 56
f 57 59 55
f 55 60 58
f 59 61 55
f 55 61 60
f 59 62 61
f 62 63 61
f 61 64 60
f 61 63 64
f 62 65 63
f 63 66 64
f 65 67 63
f 63 68 66
f 67 69 63
f 63 69 68
f 67 70 69
f 69 71 68
f 70 72 69
f 69 72 71
f 70 73 72
f 72 74 71
f 73 75 72
f 72 75 74
f 73 76 75
f 75 77 74
f 76 78 75
f 75 78 77
f 76 79 78
f 78 80 77
f 79 81 78
f 78 81 80
f 79 82 81
f 81 83 80
f 82 84 81
f 81 84 83
f 82 85 84
f 84 86 83
f 85 87 84
f 87 86 84
f 87 88 86
f 89 90 91
f 89 91 92
f 93 89 92
f 92 91 94
f 95 93 92
f 92 94 96
f 97 95 92
f 98 92 96
f 97 92 98
f 98 96 99
f 100 98 99
f 101 97 98
f 101 98 100
f 100 99 102
f 103 101 100
f 100 102 104
f 105 103 100
f 106 100 104
f 105 100 106
f 106 104 107
f 108 106 107
f 109 105 106
f 109 106 108
f 108 107 110
f 111 109 108
f 108 110 112
f 113 111 108
f 114 108 112
f 113 108 114
f 114 112 115
f 116 113 114
f 117 114 115
f 116 114 117
f 117 115 118
f 119 116 117
f 120 117 118
f 119 117 120
f 120 118 121
f 122 119 120
f 123 120 121
f 122 120 123
f 123 121 124
f 125 122 123
f 126 123 124
f 125 123 126
f 126 124 127
f 128 125 126
f 129 126 127
f 128 126 129
f 129 127 130
f 131 128 129
f 132 129 130
f 131 129 132
f 133 131 132
f 132 134 133
f 134 135 133
f 134 136 135
f 133 135 137
f 135 138 137
f 136 139 135
f 135 140 138
f 139 141 135
f 135 141 140
f 139 142 141
f 142 143 141
f 141 144 140
f 141 143 144
f 142 145 143
f 143 146 144
f 145 147 143
f 143 148 146
f 147 149 143
f 143 149 148
f 147 150 149
f 150 151 149
f 149 152 148
f 149 151 152
f 150 153 151
f 151 154 152
f 153 155 151
f 151 156 154
f 155 157 151
f 151 157 156
f 155 158 157
f 157 159 156
f 158 160 157
f 157 160 159
f 158 161 160
f 160 162 159
f 161 163 160
f 160 163 162
f 161 164 163
f 163 165 162
f 164 166 163
f 163 166 165
f 164 167 166
f 166 168 165
f 167 169 166
f 166 169 168
f 167 170 169
f 169 171 168
f 170 172 169
f 169 172 171
f 170 173 172
f 172 174 171
f 173 175 172
f 175 174 172
f 175 176 174
f 177 178 179
f 178 180 179
f 179 180 181
f 178 182 180
f 180 183 181
f 182 184 180
f 180 184 183
f 182 185 184
f 184 186 183
f 185 187 184
f 184 187 186
f 185 188 187
f 187 189 186
f 188 190 187
f 187 190 189
f 188 191 190
f 190 192 189
f 191 193 190
f 190 193 192
f 191 194 193
f 193 195 192
f 194 196 193
f 193 196 195
f 194 197 196
f 197 198 196
f 196 199 195
f 196 198 199
f 197 200 198
f 198 201 199
f 200 202 198
f 198 203 201
f 202 204 198
f 198 204 203
f 202 205 204
f 205 206 204
f 204 207 203
f 204 206 207
f 205 208 206
f 206 209 207
f 208 210 206
f 206 211 209
f 210 212 206
f 206 212 211
f 210 213 212
f 213 214 212
f 212 215 211
f 212 214 215
f 213 216 214
f 214 217 215
f 216 218 214
f 214 219 217
f 218 220 214
f 220 219 214
f 220 221 219
f 222 223 224
f 223 225 224
f 224 225 226
f 223 227 225
f 225 228 226
f 227 229 225
f 225 229 228
f 227 230 229
f 229 231 228
f 230 232 229
f 229 232 231
f 230 233 232
f 232 234 231
f 233 235 232
f 232 235 234
f 233 236 235
f 235 237 234
f 236 238 235
f 235 238 237
f 236 239 238
f 238 240 237
f 239 241 238
f 238 241 240
f 239 242 241
f 242 243 241
f 241 244 240
f 241 243 244
f 242 245 243
f 243 246 244
f 245 247 243
f 243 248 246
f 247 249 243
f 243 249 248
f 247 250 249
f 250 251 249
f 249 252 248
f 249 251 252
f 250 253 251
f 251 254 252
f 253 255 251
f 251 256 254
f 255 257 251
f 251 257 256
f 255 258 257
f 258 259 257
f 257 260 256
f 257 259 260
f 258 261 259
f 259 262 260
f 261 263 259
f 259 264 262
f 263 265 259
f 265 264 259
f 265 266 264
f 267 268 269
f 268 270 269
f 269 270 271
f 268 272 270
f 270 273 271
f 272 274 270
f 270 274 273
f 272 275 274
f 274 276 273
f 275 277 274
f 274 277 276
f 275 278 277
f 277 279 276
f 278 280 277
f 277 280 279
f 278 281 280
f 280 282 279
f 281 283 280
f 280 283 282
f 281 284 283
f 283 285 282
f 284 286 283
f 283 286 285
f 284 287 286
f 287 288 286
f 286 289 285
f 286 288 289
f 287 290 288
f 288 291 289
f 290 292 288
f 288 293 291
f 292 294 288
f 288 294 293
f 292 295 294
f 295 296 294
f 294 297 293
f 294 296 297
f 295 298 296
f 296 299 297
f 298 300 296
f 296 301 299
f 300 302 296
f 296 302 301
f 300 303 302
f 303 304 302
f 302 305 301
f 302 304 305
f 303 306 304
f 304 307 305
f 306 308 304
f 304 309 307
f 308 310 304
f 310 309 304
f 310 311 309
f 312 313 314
f 312 314 315
f 316 312 315
f 315 314 317
f 318 316 315
f 315 317 319
f 320 318 315
f 321 315 319
f 320 315 321
f 321 319 322
f 323 321 322
f 324 320 321
f 324 321 323
f 323 322 325
f 326 324 323
f 323 325 327
f 328 326 323
f 329 323 327
f 328 323 329
f 329 327 330
f 331 329 330
f 332 328 329
f 332 329 331
f 331 330 333
f 334 332 331
f 331 333 335
f 336 334 331
f 337 331 335
f 336 331 337
f 337 335 338
f 339 336 337
f 340 337 338
f 339 337 340
f 340 338 341
f 342 339 340
f 343 340 341
f 342 340 343
f 343 341 344
f 345 342 343
f 346 343 344
f 345 343 346
f 346 344 347
f 348 345 346
f 349 346 347
f 348 346 349
f 349 347 350
f 351 348 349
f 352 349 350
f 351 349 352
f 352 350 353
f 354 351 352
f 355 352 353
f 354 352 355
f 356 354 355
f 355 357 356
f 357 358 356
f 357 359 358
f 356 358 360
f 358 361 360
f 359 362 358
f 358 363 361
f 362 364 358
f 358 364 363
f 362 365 364
f 365 366 364
f 364 367 363
f 364 366 367
f 365 368 366
f 366 369 367
f 368 370 366
f 366 371 369
f 370 372 366
f 366 372 371
f 370 373 372
f 373 374 372
f 372 375 371
f 372 374 375
f 373 376 374
f 374 377 375
f 376 378 374
f 374 379 377
f 378 380 374
f 374 380 379
f 378 381 380
f 380 382 379
f 381 383 380
f 380 383 382
f 381 384 383
f 383 385 382
f 384 386 383
f 383 386 385
f 384 387 386
f 386 388 385
f 387 389 386
f 386 389 388
f 387 390 389
f 389 391 388
f 390 392 389
f 389 392 391
f 390 393 392
f 392 394 391
f 393 395 392
f 392 395 394
f 393 396 395
f 395 397 394
f 396 398 395
f 398 397 395
f 398 399 397
f 400 401 402
f 401 403 402
f 402 403 404
f 401 405 403
f 403 406 404
f 405 407 403
f 403 407 406
f 405 408 407
f 407 409 406
f 408 410 407
f 407 410 409
f 408 411 410
f 410 412 409
f 411 413 410
f 410 413 412
f 411 414 413
f 413 415 412
f 414 416 413
f 413 416 415
f 414 417 416
f 416 418 415
f 417 419 416
f 416 419 418
f 417 420 419
f 420 421 419
f 419 422 418
f 419 421 422
f 420 423 421
f 421 424 422
f 423 425 421
f 421 426 424
f 425 427 421
f 421 427 426
f 425 428 427
f 428 429 427
f 427 430 426
f 427 429 430
f 428 431 429
f 429 432 430
f 431 433 429
f 429 434 432
f 433 435 429
f 429 435 434
f 433 436 435
f 436 437 435
f 435 438 434
f 435 437 438
f 436 439 437
f 437 440 438
f 439 441 437
f 437 442 440
f 441 443 437
f 443 442 437
f 443 444 442
f 445 446 447
f 446 448 447
f 446 449 448
f 450 447 448
f 449 451 448
f 451 450 448
f 452 453 454
f 453 455 454
f 453 456 455
f 454 455 457
f 455 458 457
f 456 459 455
f 455 460 458
f 459 461 455
f 455 461 460
f 459 462 461
f 462 463 461
f 461 464 460
f 461 463 464
f 462 465 463
f 463 466 464
f 465 467 463
f 463 468 466
f 467 469 463
f 463 469 468
f 467 470 469
f 470 471 469
f 469 472 468
f 469 471 472
f 470 473 471
f 471 474 472
f 473 475 471
f 471 476 474
f 475 477 471
f 471 477 476
f 475 478 477
f 477 479 476
f 478 480 477
f 477 480 479
f 478 481 480
f 480 482 479
f 481 483 480
f 480 483 482
f 481 484 483
f 483 485 482
f 484 486 483
f 483 486 485
f 484 487 486
f 486 488 485
f 487 489 486
f 486 489 488
f 487 490 489
f 489 491 488
f 490 492 489
f 489 492 491
f 490 493 492
f 492 494 491
f 493 495 492
f 495 494 492
f 495 496 494
f 497 498 499
f 497 499 500
f 501 497 500
f 500 499 502
f 503 501 500
f 504 500 502
f 503 500 504
f 504 502 505
f 506 503 504
f 507 504 505
f 506 504 507
f 507 505 508
f 509 506 507
f 510 507 508
f 509 507 510
f 510 508 511
f 512 509 510
f 513 510 511
f 512 510 513
f 513 511 514
f 515 512 513
f 516 513 514
f 515 513 516
f 516 514 517
f 518 516 517
f 519 515 516
f 519 516 518
f 518 517 520
f 521 519 518
f 522 518 520
f 523 521 518
f 524 518 522
f 523 518 524
f 525 524 522
f 526 523 524
f 527 524 525
f 527 526 524
f 528 527 525
f 527 528 526
f 528 525 529
f 528 530 526
f 531 528 529
f 528 531 530
f 531 529 532
f 531 533 530
f 534 531 532
f 531 534 533
f 534 532 535
f 534 536 533
f 537 534 535
f 534 537 536
f 537 535 538
f 537 539 536
f 540 537 538
f 537 540 539
f 540 538 541
f 540 542 539
f 543 540 541
f 540 543 542
f 543 541 544
f 542 543 545
f 543 544 545
f 544 546 545
f 546 547 545
f 545 547 548
f 546 549 547
f 547 550 548
f 549 551 547
f 547 551 550
f 549 552 551
f 551 553 550
f 552 554 551
f 551 554 553
f 552 555 554
f 554 556 553
f 555 557 554
f 554 557 556
f 555 558 557
f 557 559 556
f 558 560 557
f 557 560 559
f 558 561 560
f 560 562 559
f 561 563 560
f 560 563 562
f 561 564 563
f 564 565 563
f 563 566 562
f 563 565 566
f 564 567 565
f 565 568 566
f 567 569 565
f 565 570 568
f 569 571 565
f 565 571 570
f 569 572 571
f 571 573 570
f 572 574 571
f 571 574 573
f 572 575 574
f 575 573 574
f 576 575 572
f 575 577 573
f 578 575 576
f 575 578 577
f 579 578 576
f 578 580 577
f 581 578 579
f 578 581 580
f 582 581 579
f 581 583 580
f 584 581 582
f 581 584 583
f 585 584 582
f 584 586 583
f 587 584 585
f 584 587 586
f 588 587 585
f 587 589 586
f 590 587 588
f 587 590 589
f 591 590 588
f 590 592 589
f 590 591 592
f 593 594 595
f 594 596 595
f 594 597 596
f 595 596 598
f 596 599 598
f 597 600 596
f 596 601 599
f 600 602 596
f 596 602 601
f 600 603 602
f 603 604 602
f 602 605 601
f 602 604 605
f 603 606 604
f 604 607 605
f 606 608 604
f 604 609 607
f 608 610 604
f 604 610 609
f 608 611 610
f 611 612 610
f 610 613 609
f 610 612 613
f 611 614 612
f 612 615 613
f 614 616 612
f 612 617 615
f 616 618 612
f 612 618 617
f 616 619 618
f 618 620 617
f 619 621 618
f 618 621 620
f 619 622 621
f 621 623 620
f 622 624 621
f 621 624 623
f 622 625 624
f 624 626 623
f 625 627 624
f 624 627 626
f 625 628 627
f 627 629 626
f 628 630 627
f 627 630 629
f 628 631 630
f 630 632 629
f 631 633 630
f 630 633 632
f 631 634 633
f 633 635 632
f 634 636 633
f 636 635 633
f 636 637 635
f 638 639 640
f 639 641 640
f 639 642 641
f 640 641 643
f 641 644 643
f 642 645 641
f 641 646 644
f 645 647 641
f 641 647 646
f 645 648 647
f 648 649 647
f 647 650 646
f 647 649 650
f 648 651 649
f 649 652 650
f 651 653 649
f 649 654 652
f 653 655 649
f 649 655 654
f 653 656 655
f 656 657 655
f 655 658 654
f 655 657 658
f 656 659 657
f 657 660 658
f 659 661 657
f 657 662 660
f 661 663 657
f 657 663 662
f 661 664 663
f 663 665 662
f 664 666 663
f 663 666 665
f 664 667 666
f 666 668 665
f 667 669 666
f 666 669 668
f 667 670 669
f 669 671 668
f 670 672 669
f 669 672 671
f 670 673 672
f 672 674 671
f 673 675 672
f 672 675 674
f 673 676 675
f 675 677 674
f 676 678 675
f 675 678 677
f 676 679 678
f 678 680 677
f 679 681 678
f 681 680 678
f 681 682 680
f 683 684 685
f 684 686 685
f 684 687 686
f 685 686 688
f 686 689 688
f 687 690 686
f 686 691 689
f 690 692 686
f 686 692 691
f 690 693 692
f 693 694 692
f 692 695 691
f 692 694 695
f 693 696 694
f 694 697 695
f 696 698 694
f 694 699 697
f 698 700 694
f 694 700 699
f 698 701 700
f 701 702 700
f 700 703 699
f 700 702 703
f 701 704 702
f 702 705 703
f 704 706 702
f 702 707 705
f 706 708 702
f 702 708 707
f 706 709 708
f 708 710 707
f 709 711 708
f 708 711 710
f 709 712 711
f 711 713 710
f 712 714 711
f 711 714 713
f 712 715 714
f 714 716 713
f 715 717 714
f 714 717 716
f 715 718 717
f 717 719 716
f 718 720 717
f 717 720 719
f 718 721 720
f 720 722 719
f 721 723 720
f 720 723 722
f 721 724 723
f 723 725 722
f 724 726 723
f 726 725 723
f 726 727 725
f 728 729 730
f 728 730 731
f 729 728 732
f 732 728 731
f 733 734 735
f 734 733 736
f 734 736 737
f 738 734 737
f 734 738 739
f 734 740 735
f 734 739 741
f 742 734 741
f 734 742 743
f 742 741 744
f 742 744 745
f 746 742 745
f 742 746 747
f 746 748 747
f 748 749 747
f 749 750 747
f 750 751 747
f 751 752 747
f 752 753 747
f 753 754 747
f 754 755 747
f 755 756 747
f 756 757 747
f 757 758 747
f 758 759 747
f 759 760 747
f 759 761 760
f 761 762 760
f 762 763 760
f 763 764 760
f 764 765 760
f 765 766 760
f 766 767 760
f 767 768 760
f 760 768 769
f 760 769 740
f 734 760 740
f 747 760 770
f 747 770 771
f 747 771 772
f 773 747 772
f 760 774 770
f 747 773 775
f 760 776 774
f 747 775 777
f 776 778 774
f 779 747 777
f 776 780 778
f 780 776 781
f 776 782 781
f 776 783 782
f 783 776 784
f 747 779 785
f 747 785 786
f 787 747 786
f 742 747 787
f 788 742 787
f 742 788 789
f 742 789 790
f 776 791 784
f 776 792 791
f 792 776 793
f 776 794 793
f 776 795 794
f 795 776 796
f 776 797 796
f 798 742 790
f 797 799 796
f 796 799 800
f 799 801 800
f 801 802 800
f 801 803 802
f 803 804 802
f 803 805 804
f 805 806 804
f 805 807 806
f 807 808 806
f 807 809 808
f 809 798 808
f 809 810 798
f 797 811 799
f 810 742 798
f 812 811 797
f 810 813 742
f 814 812 797
f 815 814 797
f 816 815 797
f 817 816 797
f 818 817 797
f 813 819 742
f 819 820 742
f 820 821 742
f 821 822 742
f 742 822 823
f 821 824 822
f 825 818 797
f 824 826 822
f 827 825 797
f 826 828 822
f 829 827 797
f 828 830 822
f 831 829 797
f 830 832 822
f 832 833 822
f 833 834 822
f 834 835 822
f 835 836 822
f 837 831 797
f 836 837 822
f 837 797 822
f 797 838 822
f 838 839 822
f 838 840 839
f 822 839 841
f 822 841 842
f 843 822 842
f 822 843 844
f 840 838 845
f 822 844 846
f 838 847 845
f 848 822 846
f 838 849 847
f 822 848 850
f 849 838 851
f 838 852 851
f 838 853 852
f 853 838 854
f 838 855 854
f 855 838 856
f 838 857 856
f 822 850 858
f 838 859 857
f 860 822 858
f 860 858 861
f 822 860 862
f 822 862 823
f 863 860 861
f 861 864 863
f 864 865 863
f 864 866 865
f 866 867 865
f 866 868 867
f 868 869 867
f 868 870 869
f 870 871 869
f 870 872 871
f 872 873 871
f 872 874 873
f 874 875 873
f 874 876 875
f 876 877 875
f 876 878 877
f 878 879 877
f 878 880 879
f 880 881 879
f 880 882 881
f 882 883 881
f 882 859 883
f 859 884 883
f 859 838 884
f 838 885 884
f 838 886 885
f 838 734 886
f 734 887 886
f 886 887 888
f 887 889 888
f 889 890 888
f 890 891 888
f 890 892 891
f 892 893 891
f 892 894 893
f 894 895 893
f 894 896 895
f 896 897 895
f 896 898 897
f 898 899 897
f 898 900 899
f 900 901 899
f 900 902 901
f 902 903 901
f 902 904 903
f 902 905 904
f 905 906 904
f 905 907 906
f 907 908 906
f 907 909 908
f 909 910 908
f 910 911 908
f 910 912 911
f 912 913 911
f 912 914 913
f 914 915 913
f 914 916 915
f 916 917 915
f 916 742 917
f 742 823 917
f 742 916 918
f 742 918 919
f 920 742 919
f 742 920 921
f 742 921 743
f 734 743 922
f 923 734 922
f 734 923 924
f 734 924 925
f 926 734 925
f 734 926 927
f 734 927 928
f 929 734 928
f 734 929 930
f 734 930 931
f 932 734 931
f 734 932 887
f 933 934 935
f 933 935 936
f 934 933 937
f 937 933 936
f 938 939 940
f 938 940 941
f 939 938 942
f 942 938 941
f 943 944 945
f 943 945 946
f 944 943 947
f 947 943 946
f 948 949 950
f 951 949 948
f 949 952 950
f 949 951 952
f 953 954 955
f 956 953 955
f 953 957 954
f 957 953 956
f 958 959 960
f 961 958 960
f 958 962 959
f 962 958 961
f 963 964 965
f 963 965 966
f 967 963 966
f 964 963 968
f 963 967 969
f 967 970 969
f 970 971 969
f 971 972 969
f 972 973 969
f 973 974 969
f 974 975 969
f 975 976 969
f 976 977 969
f 968 963 978
f 963 979 978
f 963 980 979
f 968 978 981
f 982 978 979
f 983 968 981
f 984 983 981
f 985 984 981
f 986 985 981
f 987 986 981
f 987 981 988
f 989 982 979
f 990 987 988
f 990 988 991
f 992 990 991
f 993 992 991
f 994 993 991
f 995 994 991
f 996 995 991
f 997 996 991
f 998 997 991
f 999 998 991
f 1000 999 991
f 1001 1000 991
f 1002 1001 991
f 1003 1002 991
f 991 988 1004
f 988 1005 1004
f 1005 989 1004
f 989 979 1004
f 1004 979 1006
f 1007 1003 991
f 1008 1003 1007
f 977 1008 1007
f 1007 991 1009
f 977 1007 969
f 1010 1007 1009
f 969 1007 1011
f 1012 1010 1009
f 1013 969 1011
f 1012 1009 1014
f 963 969 1013
f 1015 1012 1014
f 1015 963 1013
f 963 1015 1014
f 963 1014 1016
f 1017 963 1016
f 1016 1018 1017
f 1019 963 1017
f 1018 1020 1017
f 1018 1021 1020
f 963 1019 980
f 1021 1018 1022
f 1023 1021 1022
f 1018 1006 1022
f 1023 1022 1024
f 1025 1023 1024
f 1025 1024 1026
f 1019 1025 1026
f 1019 1026 980
f 1006 1027 1022
f 1022 1027 1028
f 1006 1029 1027
f 1027 1030 1028
f 1029 1006 1031
f 1030 1032 1028
f 979 1031 1006
f 1030 1033 1032
f 1033 980 1032
f 979 1034 1031
f 980 1033 1034
f 980 1034 979
f 1035 1036 1037
f 1038 1035 1037
f 1035 1039 1036
f 1039 1035 1038
f 1040 1041 1042
f 1043 1040 1042
f 1040 1044 1041
f 1044 1040 1043
f 1045 1046 1047
f 1048 1045 1047
f 1045 1049 1046
f 1049 1045 1048
f 1050 1051 1052
f 1050 1052 1053
f 1051 1050 1054
f 1054 1050 1053
f 1055 1056 1057
f 1055 1057 1058
f 1056 1055 1059
f 1059 1055 1058
f 1060 1061 1062
f 1063 1061 1060
f 1061 1064 1062
f 1061 1063 1064
f 1065 1066 1067
f 1068 1066 1065
f 1066 1069 1067
f 1066 1068 1069
f 1070 1071 1072
f 1073 1070 1072
f 1070 1073 1074
f 1070 1075 1071
f 1070 1076 1075
f 1070 1074 1077
f 1076 1078 1075
f 1079 1070 1077
f 1076 1080 1078
f 1079 1077 1081
f 1080 1076 1082
f 1079 1081 1083
f 1076 1084 1082
f 1076 1085 1084
f 1085 1076 1086
f 1087 1079 1083
f 1079 1087 1088
f 1079 1088 1089
f 1090 1079 1089
f 1076 1091 1086
f 1092 1090 1089
f 1091 1093 1086
f 1090 1092 1094
f 1091 1095 1093
f 1090 1094 1096
f 1095 1091 1097
f 1091 1098 1097
f 1091 1099 1098
f 1100 1090 1096
f 1090 1100 1101
f 1090 1101 1102
f 1091 1103 1099
f 1103 1090 1102
f 1103 1104 1099
f 1103 1102 1105
f 1103 1106 1104
f 1103 1105 1107
f 1106 1103 1107
f 1108 1109 1110
f 1108 1110 1111
f 1109 1108 1112
f 1112 1108 1111
f 1113 1114 1115
f 1116 1114 1113
f 1114 1117 1115
f 1114 1116 1117
f 1118 1119 1120
f 1121 1119 1118
f 1119 1122 1120
f 1119 1121 1122
f 1123 1124 1125
f 1126 1124 1123
f 1124 1127 1125
f 1124 1126 1127
f 1128 1129 1130
f 1131 1129 1128
f 1129 1132 1130
f 1129 1131 1132
f 1133 1134 1135
f 1136 1133 1135
f 1133 1136 1137
f 1133 1138 1134
f 1133 1139 1138
f 1133 1137 1140
f 1139 1141 1138
f 1142 1133 1140
f 1139 1143 1141
f 1142 1140 1144
f 1143 1139 1145
f 1142 1144 1146
f 1139 1147 1145
f 1139 1148 1147
f 1148 1139 1149
f 1150 1142 1146
f 1142 1150 1151
f 1142 1151 1152
f 1153 1142 1152
f 1139 1154 1149
f 1155 1153 1152
f 1154 1156 1149
f 1153 1155 1157
f 1154 1158 1156
f 1153 1157 1159
f 1158 1154 1160
f 1154 1161 1160
f 1154 1162 1161
f 1163 1153 1159
f 1153 1163 1164
f 1153 1164 1165
f 1154 1166 1162
f 1166 1153 1165
f 1166 1167 1162
f 1166 1165 1168
f 1166 1169 1167
f 1166 1168 1170
f 1169 1166 1170
f 1171 1172 1173
f 1171 1173 1174
f 1172 1171 1175
f 1175 1171 1174
f 1176 1177 1178
f 1179 1177 1176
f 1177 1180 1178
f 1177 1179 1180
f 1181 1182 1183
f 1184 1182 1181
f 1182 1185 1183
f 1182 1184 1185
f 1186 1187 1188
f 1189 1187 1186
f 1187 1190 1188
f 1187 1189 1190
f 1191 1192 1193
f 1194 1192 1191
f 1192 1195 1193
f 1192 1194 1195
f 1196 1197 1198
f 1199 1196 1198
f 1196 1199 1200
f 1196 1201 1197
f 1196 1202 1201
f 1196 1200 1203
f 1202 1204 1201
f 1205 1196 1203
f 1202 1206 1204
f 1205 1203 1207
f 1206 1202 1208
f 1205 1207 1209
f 1202 1210 1208
f 1202 1211 1210
f 1211 1202 1212
f 1213 1205 1209
f 1205 1213 1214
f 1205 1214 1215
f 1216 1205 1215
f 1202 1217 1212
f 1218 1216 1215
f 1217 1219 1212
f 1216 1218 1220
f 1217 1221 1219
f 1216 1220 1222
f 1221 1217 1223
f 1217 1224 1223
f 1217 1225 1224
f 1226 1216 1222
f 1216 1226 1227
f 1216 1227 1228
f 1217 1229 1225
f 1229 1216 1228
f 1229 1230 1225
f 1229 1228 1231
f 1229 1232 1230
f 1229 1231 1233
f 1232 1229 1233
f 1234 1235 1236
f 1234 1236 1237
f 1235 1234 1238
f 1238 1234 1237
f 1239 1240 1241
f 1242 1240 1239
f 1240 1243 1241
f 1240 1242 1243
f 1244 1245 1246
f 1247 1245 1244
f 1245 1248 1246
f 1245 1247 1248
f 1249 1250 1251
f 1252 1250 1249
f 1250 1253 1251
f 1250 1252 1253
f 1254 1255 1256
f 1257 1255 1254
f 1255 1258 1256
f 1255 1257 1258
f 1259 1260 1261
f 1262 1259 1261
f 1259 1262 1263
f 1259 1264 1260
f 1259 1265 1264
f 1259 1263 1266
f 1265 1267 1264
f 1268 1259 1266
f 1265 1269 1267
f 1268 1266 1270
f 1269 1265 1271
f 1268 1270 1272
f 1265 1273 1271
f 1265 1274 1273
f 1274 1265 1275
f 1276 1268 1272
f 1268 1276 1277
f 1268 1277 1278
f 1279 1268 1278
f 1265 1280 1275
f 1281 1279 1278
f 1280 1282 1275
f 1279 1281 1283
f 1280 1284 1282
f 1279 1283 1285
f 1284 1280 1286
f 1280 1287 1286
f 1280 1288 1287
f 1289 1279 1285
f 1279 1289 1290
f 1279 1290 1291
f 1280 1292 1288
f 1292 1279 1291
f 1292 1293 1288
f 1292 1291 1294
f 1292 1295 1293
f 1292 1294 1296
f 1295 1292 1296
f 1297 1298 1299
f 1297 1299 1300
f 1298 1297 1301
f 1301 1297 1300
f 1302 1303 1304
f 1305 1303 1302
f 1303 1306 1304
f 1303 1305 1306
f 1307 1308 1309
f 1310 1308 1307
f 1308 1311 1309
f 1308 1310 1311
f 1312 1313 1314
f 1315 1313 1312
f 1313 1316 1314
f 1313 1315 1316
f 1317 1318 1319
f 1320 1318 1317
f 1318 1321 1319
f 1318 1320 1321
f 1322 1323 1324
f 1325 1322 1324
f 1322 1325 1326
f 1322 1327 1323
f 1322 1328 1327
f 1322 1326 1329
f 1328 1330 1327
f 1331 1322 1329
f 1328 1332 1330
f 1331 1329 1333
f 1332 1328 1334
f 1331 1333 1335
f 1328 1336 1334
f 1328 1337 1336
f 1337 1328 1338
f 1339 1331 1335
f 1331 1339 1340
f 1331 1340 1341
f 1342 1331 1341
f 1328 1343 1338
f 1344 1342 1341
f 1343 1345 1338
f 1342 1344 1346
f 1343 1347 1345
f 1342 1346 1348
f 1347 1343 1349
f 1343 1350 1349
f 1343 1351 1350
f 1352 1342 1348
f 1342 1352 1353
f 1342 1353 1354
f 1343 1355 1351
f 1355 1342 1354
f 1355 1356 1351
f 1355 1354 1357
f 1355 1358 1356
f 1355 1357 1359
f 1358 1355 1359
f 1360 1361 1362
f 1360 1362 1363
f 1361 1360 1364
f 1364 1360 1363
f 1365 1366 1367
f 1368 1366 1365
f 1366 1369 1367
f 1366 1368 1369
f 1370 1371 1372
f 1373 1371 1370
f 1371 1374 1372
f 1371 1373 1374
f 1375 1376 1377
f 1378 1376 1375
f 1376 1379 1377
f 1376 1378 1379
f 1380 1381 1382
f 1383 1381 1380
f 1381 1384 1382
f 1381 1383 1384
f 1385 1386 1387
f 1388 1386 1385
f 1386 1389 1387
f 1386 1388 1389
f 1390 1391 1392
f 1393 1391 1390
f 1391 1394 1392
f 1391 1393 1394
f 1395 1396 1397
f 1398 1396 1395
f 1396 1399 1397
f 1396 1398 1399
f 1400 1401 1402
f 1403 1401 1400
f 1401 1404 1402
f 1401 1403 1404
f 1405 1406 1407
f 1408 1406 1405
f 1406 1409 1407
f 1406 1408 1409
