# ROS coordinates: X forward, Y left, Z up; units are metres.
o mesh
v 0.154000655 0.0345000029 0.148592412
v 0.154000655 0.0295 0.148592412
v 0.154286087 0.0295 0.148529217
v 0.154329181 0.032 0.148524329
v 0.154286087 0.0345000029 0.148529217
v 0.154595837 0.0295 0.1485201
v 0.154595837 0.0345000029 0.1485201
v 0.1546867 0.032 0.148528844
v 0.154914021 0.0295 0.148574248
v 0.154914021 0.0345000029 0.148574248
v 0.155048162 0.032 0.148617759
v 0.155220985 0.0295 0.1486943
v 0.155220985 0.0345000029 0.1486943
v 0.155383587 0.032 0.148790687
v 0.155496836 0.0295 0.1488747
v 0.155496836 0.0345000029 0.1488747
v 0.155665681 0.032 0.149033546
v 0.155725524 0.0295 0.149102479
v 0.155725524 0.0345000029 0.149102479
v 0.155876741 0.032 0.149322167
v 0.155897751 0.0295 0.14936009
v 0.15601185 0.032 0.149629265
v 0.155897751 0.0345000029 0.14936009
v 0.15601185 0.0295 0.149629265
v 0.15601185 0.0345000029 0.149629265
v 0.15607506 0.0295 0.149914712
v 0.15607506 0.0345000029 0.149914712
v 0.156079948 0.032 0.149957791
v 0.156084165 0.0295 0.150224447
v 0.156084165 0.0345000029 0.150224447
v 0.156084165 0.032 0.150224447
v 0.156041816 0.032 0.150497392
v 0.156030014 0.0295 0.150542647
v 0.156030014 0.0345000029 0.150542647
v 0.155950814 0.032 0.150764242
v 0.155909956 0.0295 0.150849611
v 0.155909956 0.0345000029 0.150849611
v 0.15581356 0.032 0.151012212
v 0.155729547 0.0295 0.151125461
v 0.155729547 0.0345000029 0.151125461
v 0.155636787 0.032 0.151229948
v 0.155501783 0.0295 0.151354134
v 0.155501783 0.0345000029 0.151354134
v 0.1554304 0.032 0.151409328
v 0.155244187 0.0295 0.151526362
v 0.155244187 0.0345000029 0.151526362
v 0.15520604 0.032 0.15154618
v 0.154975 0.0295 0.15164046
v 0.154975 0.0345000029 0.15164046
v 0.15468955 0.0295 0.151703671
v 0.154646471 0.032 0.151708558
v 0.15468955 0.0345000029 0.151703671
v 0.1543798 0.0295 0.151712775
v 0.1543798 0.0345000029 0.151712775
v 0.154288948 0.032 0.151704028
v 0.15406163 0.0295 0.151658624
v 0.15406163 0.0345000029 0.151658624
v 0.15392749 0.032 0.151615113
v 0.153754666 0.0295 0.151538581
v 0.153754666 0.0345000029 0.151538581
v 0.153592065 0.032 0.15144217
v 0.153478816 0.0295 0.151358157
v 0.153478816 0.0345000029 0.151358157
v 0.153309971 0.032 0.151199326
v 0.153250128 0.0295 0.1511304
v 0.153250128 0.0345000029 0.1511304
v 0.1530989 0.032 0.15091072
v 0.153077886 0.0295 0.1508728
v 0.1529638 0.032 0.150603622
v 0.153077886 0.0345000029 0.1508728
v 0.1529638 0.0295 0.150603622
v 0.1529638 0.0345000029 0.150603622
v 0.152900591 0.0295 0.150318161
v 0.152900591 0.0345000029 0.150318161
v 0.1528957 0.032 0.1502751
v 0.152891472 0.0295 0.150008425
v 0.152891472 0.0345000029 0.150008425
v 0.152891472 0.032 0.150008425
v 0.152933836 0.032 0.149735481
v 0.152945638 0.0295 0.149690241
v 0.152945638 0.0345000029 0.149690241
v 0.153024822 0.032 0.149468645
v 0.153065681 0.0295 0.149383277
v 0.153065681 0.0345000029 0.149383277
v 0.153162077 0.032 0.149220675
v 0.15324609 0.0295 0.149107426
v 0.15324609 0.0345000029 0.149107426
v 0.153338879 0.032 0.149002925
v 0.153473869 0.0295 0.148878738
v 0.153473869 0.0345000029 0.148878738
v 0.153545246 0.032 0.148823574
v 0.153731465 0.0295 0.1487065
v 0.153731465 0.0345000029 0.1487065
v 0.153769612 0.032 0.148686692
v 0.154000655 0.0295 0.148592412
v 0.154000655 0.0345000029 0.148592412
v 0.161612764 0.0345000029 0.172405362
v 0.161612764 0.0295 0.172405362
v 0.161898226 0.0295 0.172342137
v 0.16194129 0.032 0.172337264
v 0.161898226 0.0345000029 0.172342137
v 0.162207946 0.0295 0.172333032
v 0.162207946 0.0345000029 0.172333032
v 0.162298828 0.032 0.172341779
v 0.162526146 0.0295 0.1723872
v 0.162526146 0.0345000029 0.1723872
v 0.162660256 0.032 0.1724307
v 0.162833109 0.0295 0.172507241
v 0.162833109 0.0345000029 0.172507241
v 0.1629957 0.032 0.172603637
v 0.163108945 0.0295 0.17268765
v 0.163108945 0.0345000029 0.17268765
v 0.163277775 0.032 0.172846481
v 0.163337648 0.0295 0.1729154
v 0.163337648 0.0345000029 0.1729154
v 0.163488865 0.032 0.1731351
v 0.163509861 0.0295 0.173173025
v 0.163623974 0.032 0.1734422
v 0.163509861 0.0345000029 0.173173025
v 0.163623974 0.0295 0.1734422
v 0.163623974 0.0345000029 0.1734422
v 0.163687184 0.0295 0.173727646
v 0.163687184 0.0345000029 0.173727646
v 0.163692057 0.032 0.173770726
v 0.163696289 0.0295 0.174037382
v 0.163696289 0.0345000029 0.174037382
v 0.163696289 0.032 0.174037382
v 0.16365394 0.032 0.174310341
v 0.163642138 0.0295 0.174355581
v 0.163642138 0.0345000029 0.174355581
v 0.163562924 0.032 0.174577162
v 0.16352208 0.0295 0.174662545
v 0.16352208 0.0345000029 0.174662545
v 0.163425684 0.032 0.174825132
v 0.163341671 0.0295 0.174938381
v 0.163341671 0.0345000029 0.174938381
v 0.1632489 0.032 0.175042883
v 0.163113892 0.0295 0.175167084
v 0.163113892 0.0345000029 0.175167084
v 0.163042516 0.032 0.175222248
v 0.1628563 0.0295 0.1753393
v 0.1628563 0.0345000029 0.1753393
v 0.162818149 0.032 0.175359115
v 0.1625871 0.0295 0.17545341
v 0.1625871 0.0345000029 0.17545341
v 0.16230166 0.0295 0.1755166
v 0.1622586 0.032 0.175521508
v 0.16230166 0.0345000029 0.1755166
v 0.161991924 0.0295 0.175525725
v 0.161991924 0.0345000029 0.175525725
v 0.161901057 0.032 0.175516963
v 0.16167374 0.0295 0.175471574
v 0.16167374 0.0345000029 0.175471574
v 0.1615396 0.032 0.175428063
v 0.161366776 0.0295 0.175351515
v 0.161366776 0.0345000029 0.175351515
v 0.161204174 0.032 0.1752551
v 0.161090925 0.0295 0.1751711
v 0.161090925 0.0345000029 0.1751711
v 0.16092208 0.032 0.175012276
v 0.160862237 0.0295 0.174943328
v 0.160862237 0.0345000029 0.174943328
v 0.16071102 0.032 0.174723655
v 0.16069001 0.0295 0.174685732
v 0.160575926 0.032 0.174416542
v 0.16069001 0.0345000029 0.174685732
v 0.160575926 0.0295 0.174416542
v 0.160575926 0.0345000029 0.174416542
v 0.1605127 0.0295 0.1741311
v 0.1605127 0.0345000029 0.1741311
v 0.160507828 0.032 0.174088031
v 0.1605036 0.0295 0.17382136
v 0.1605036 0.0345000029 0.17382136
v 0.1605036 0.032 0.17382136
v 0.160545945 0.032 0.17354843
v 0.160557762 0.0295 0.173503175
v 0.160557762 0.0345000029 0.173503175
v 0.160636932 0.032 0.173281565
v 0.1606778 0.0295 0.173196211
v 0.1606778 0.0345000029 0.173196211
v 0.1607742 0.032 0.17303361
v 0.160858214 0.0295 0.172920361
v 0.160858214 0.0345000029 0.172920361
v 0.160951 0.032 0.172815859
v 0.161085963 0.0295 0.172691673
v 0.161085963 0.0345000029 0.172691673
v 0.16115734 0.032 0.1726365
v 0.161343589 0.0295 0.172519445
v 0.161343589 0.0345000029 0.172519445
v 0.161381736 0.032 0.172499627
v 0.161612764 0.0295 0.172405362
v 0.161612764 0.0345000029 0.172405362
v 0.133827791 0.0345000029 0.16816406
v 0.133827791 0.032 0.16816406
v 0.134113252 0.032 0.168100834
v 0.134156317 0.03325 0.168095961
v 0.134113252 0.0345000029 0.168100834
v 0.134422973 0.032 0.168091729
v 0.134422973 0.0345000029 0.168091729
v 0.13451384 0.03325 0.168100476
v 0.134741157 0.032 0.1681459
v 0.134741157 0.0345000029 0.1681459
v 0.1348753 0.03325 0.1681894
v 0.135048121 0.032 0.168265939
v 0.135048121 0.0345000029 0.168265939
v 0.135210738 0.03325 0.168362334
v 0.135323986 0.032 0.168446362
v 0.135323986 0.0345000029 0.168446362
v 0.135492817 0.03325 0.168605179
v 0.13555266 0.032 0.168674126
v 0.13555266 0.0345000029 0.168674126
v 0.135703892 0.03325 0.1688938
v 0.1357249 0.032 0.168931723
v 0.135839 0.03325 0.1692009
v 0.1357249 0.0345000029 0.168931723
v 0.135839 0.032 0.1692009
v 0.135839 0.0345000029 0.1692009
v 0.1359022 0.032 0.169486374
v 0.1359022 0.0345000029 0.169486374
v 0.135907069 0.03325 0.169529438
v 0.135911316 0.032 0.169796079
v 0.135911316 0.0345000029 0.169796079
v 0.135911316 0.03325 0.169796079
v 0.135868952 0.03325 0.170069039
v 0.13585715 0.032 0.170114279
v 0.13585715 0.0345000029 0.170114279
v 0.13577795 0.03325 0.1703359
v 0.135737091 0.032 0.170421243
v 0.135737091 0.0345000029 0.170421243
v 0.135640711 0.03325 0.170583859
v 0.1355567 0.032 0.170697108
v 0.1355567 0.0345000029 0.170697108
v 0.135463908 0.03325 0.1708016
v 0.135328919 0.032 0.170925781
v 0.135328919 0.0345000029 0.170925781
v 0.135257542 0.03325 0.17098096
v 0.135071322 0.032 0.171098024
v 0.135071322 0.0345000029 0.171098024
v 0.135033175 0.03325 0.171117812
v 0.134802133 0.032 0.1712121
v 0.134802133 0.0345000029 0.1712121
v 0.134516686 0.032 0.171275318
v 0.134473622 0.03325 0.1712802
v 0.134516686 0.0345000029 0.171275318
v 0.134206951 0.032 0.171284437
v 0.134206951 0.0345000029 0.171284437
v 0.134116083 0.03325 0.17127566
v 0.133888766 0.032 0.171230271
v 0.133888766 0.0345000029 0.171230271
v 0.133754626 0.03325 0.17118676
v 0.133581787 0.032 0.171110213
v 0.133581787 0.0345000029 0.171110213
v 0.1334192 0.03325 0.171013832
v 0.133305952 0.032 0.1709298
v 0.133305952 0.0345000029 0.1709298
v 0.1331371 0.03325 0.170770973
v 0.133077264 0.032 0.170702025
v 0.133077264 0.0345000029 0.170702025
v 0.132926032 0.03325 0.170482367
v 0.132905036 0.032 0.170444429
v 0.132790938 0.03325 0.170175254
v 0.132905036 0.0345000029 0.170444429
v 0.132790938 0.032 0.170175254
v 0.132790938 0.0345000029 0.170175254
v 0.132727742 0.032 0.1698898
v 0.132727742 0.0345000029 0.1698898
v 0.132722855 0.03325 0.169846728
v 0.132718623 0.032 0.169580072
v 0.132718623 0.0345000029 0.169580072
v 0.132718623 0.03325 0.169580072
v 0.132760987 0.03325 0.169307128
v 0.132772774 0.032 0.169261873
v 0.132772774 0.0345000029 0.169261873
v 0.132851973 0.03325 0.169040263
v 0.132892817 0.032 0.168954909
v 0.132892817 0.0345000029 0.168954909
v 0.132989228 0.03325 0.1687923
v 0.133073241 0.032 0.168679059
v 0.133073241 0.0345000029 0.168679059
v 0.133166015 0.03325 0.168574572
v 0.133301 0.032 0.168450385
v 0.133301 0.0345000029 0.168450385
v 0.133372381 0.03325 0.1683952
v 0.1335586 0.032 0.168278143
v 0.1335586 0.0345000029 0.168278143
v 0.133596763 0.03325 0.168258324
v 0.133827791 0.032 0.16816406
v 0.133827791 0.0345000029 0.16816406
v 0.133711368 0.0295 0.173642278
v 0.133711368 0.0345000029 0.173642278
v 0.133188337 0.0345000029 0.173526138
v 0.132817358 0.032 0.173397154
v 0.133188337 0.0295 0.173526138
v 0.1326711 0.0345000029 0.173334688
v 0.1326711 0.0295 0.173334688
v 0.132175788 0.0345000029 0.173068017
v 0.132175788 0.0295 0.173068017
v 0.131974235 0.032 0.172931686
v 0.131718457 0.0345000029 0.1727308
v 0.131260633 0.032 0.172270924
v 0.131718457 0.0295 0.1727308
v 0.131313518 0.0345000029 0.172332168
v 0.131313518 0.0295 0.172332168
v 0.130972251 0.0345000029 0.171884969
v 0.130972251 0.0295 0.171884969
v 0.130736 0.032 0.171474382
v 0.13070184 0.0345000029 0.171404272
v 0.130504891 0.032 0.170906022
v 0.13070184 0.0295 0.171404272
v 0.130504891 0.0345000029 0.170906022
v 0.130504891 0.0295 0.170906022
v 0.130376309 0.0345000029 0.170385912
v 0.130376309 0.0295 0.170385912
v 0.130363449 0.032 0.170308977
v 0.130317748 0.0345000029 0.16983749
v 0.130317748 0.0295 0.16983749
v 0.130314976 0.032 0.16967757
v 0.130336314 0.0345000029 0.169275254
v 0.130336314 0.0295 0.169275254
v 0.130368784 0.032 0.169034123
v 0.13043496 0.0345000029 0.168715686
v 0.13043496 0.0295 0.168715686
v 0.1305268 0.032 0.168403655
v 0.1306119 0.0345000029 0.1681757
v 0.1306119 0.0295 0.1681757
v 0.130782813 0.032 0.167810857
v 0.130860686 0.0345000029 0.167671159
v 0.130860686 0.0295 0.167671159
v 0.131123334 0.032 0.167276978
v 0.131170958 0.0345000029 0.167215183
v 0.131170958 0.0295 0.167215183
v 0.131529644 0.0345000029 0.166817188
v 0.131529644 0.0295 0.166817188
v 0.161496341 0.0295 0.17788358
v 0.16069001 0.0295 0.174685732
v 0.160862237 0.0295 0.174943328
v 0.161090925 0.0295 0.1751711
v 0.161366776 0.0295 0.175351515
v 0.16167374 0.0295 0.175471574
v 0.161991924 0.0295 0.175525725
v 0.160575926 0.0295 0.174416542
v 0.162492573 0.0295 0.177910045
v 0.16230166 0.0295 0.1755166
v 0.1625871 0.0295 0.17545341
v 0.1634957 0.0295 0.177677944
v 0.1628563 0.0295 0.1753393
v 0.164406329 0.0295 0.177197471
v 0.163113892 0.0295 0.175167084
v 0.165142655 0.0295 0.176525876
v 0.163341671 0.0295 0.174938381
v 0.1656901 0.0295 0.175693125
v 0.16352208 0.0295 0.174662545
v 0.163642138 0.0295 0.174355581
v 0.166021377 0.0295 0.174718261
v 0.163696289 0.0295 0.174037382
v 0.166092843 0.0295 0.1736911
v 0.163687184 0.0295 0.173727646
v 0.16591 0.0295 0.172711447
v 0.163623974 0.0295 0.1734422
v 0.163509861 0.0295 0.173173025
v 0.163337648 0.0295 0.1729154
v 0.163108945 0.0295 0.17268765
v 0.162833109 0.0295 0.172507241
v 0.162526146 0.0295 0.1723872
v 0.159817919 0.0295 0.161535725
v 0.158297881 0.0295 0.1488985
v 0.155729547 0.0295 0.151125461
v 0.162207946 0.0295 0.172333032
v 0.161898226 0.0295 0.172342137
v 0.161612764 0.0295 0.172405362
v 0.161343589 0.0295 0.172519445
v 0.161085963 0.0295 0.172691673
v 0.160858214 0.0295 0.172920361
v 0.155501783 0.0295 0.151354134
v 0.155909956 0.0295 0.150849611
v 0.155244187 0.0295 0.151526362
v 0.156030014 0.0295 0.150542647
v 0.154975 0.0295 0.15164046
v 0.156084165 0.0295 0.150224447
v 0.15468955 0.0295 0.151703671
v 0.15607506 0.0295 0.149914712
v 0.15601185 0.0295 0.149629265
v 0.155897751 0.0295 0.14936009
v 0.157878563 0.0295 0.147994429
v 0.155725524 0.0295 0.149102479
v 0.157224551 0.0295 0.1471992
v 0.155496836 0.0295 0.1488747
v 0.1543798 0.0295 0.151712775
v 0.156389236 0.0295 0.146597251
v 0.155220985 0.0295 0.1486943
v 0.154914021 0.0295 0.148574248
v 0.155460238 0.0295 0.146236435
v 0.154595837 0.0295 0.1485201
v 0.154470891 0.0295 0.14611648
v 0.154286087 0.0295 0.148529217
v 0.1534504 0.0295 0.146253318
v 0.154000655 0.0295 0.148592412
v 0.152498648 0.0295 0.146646112
v 0.153731465 0.0295 0.1487065
v 0.153473869 0.0295 0.148878738
v 0.151702508 0.0295 0.147245556
v 0.15324609 0.0295 0.149107426
v 0.153065681 0.0295 0.149383277
v 0.152945638 0.0295 0.149690241
v 0.152891472 0.0295 0.150008425
v 0.152900591 0.0295 0.150318161
v 0.141616076 0.0295 0.157031387
v 0.1529638 0.0295 0.150603622
v 0.153077886 0.0295 0.1508728
v 0.153250128 0.0295 0.1511304
v 0.153478816 0.0295 0.151358157
v 0.153754666 0.0295 0.151538581
v 0.146304429 0.0295 0.1658555
v 0.136572853 0.0295 0.161924288
v 0.15406163 0.0295 0.151658624
v 0.1606778 0.0295 0.173196211
v 0.160557762 0.0295 0.173503175
v 0.1605036 0.0295 0.17382136
v 0.1605127 0.0295 0.1741311
v 0.136450961 0.0295 0.167338416
v 0.134051263 0.0295 0.164370745
v 0.133348092 0.0295 0.166663438
v 0.131529644 0.0295 0.166817188
v 0.131212115 0.0295 0.169013083
v 0.131170958 0.0295 0.167215183
v 0.130860686 0.0295 0.167671159
v 0.1306119 0.0295 0.1681757
v 0.13043496 0.0295 0.168715686
v 0.130336314 0.0295 0.169275254
v 0.130317748 0.0295 0.16983749
v 0.130376309 0.0295 0.170385912
v 0.130504891 0.0295 0.170906022
v 0.132178977 0.0295 0.17203775
v 0.13070184 0.0295 0.171404272
v 0.130972251 0.0295 0.171884969
v 0.131313518 0.0295 0.172332168
v 0.131718457 0.0295 0.1727308
v 0.132175788 0.0295 0.173068017
v 0.1326711 0.0295 0.173334688
v 0.133188337 0.0295 0.173526138
v 0.133711368 0.0295 0.173642278
v 0.135281846 0.0295 0.172712728
v 0.137417823 0.0295 0.170363069
v 0.1372561 0.0295 0.1687479
v 0.146304429 0.0345000029 0.1658555
v 0.135048121 0.0345000029 0.168265939
v 0.135323986 0.0345000029 0.168446362
v 0.13555266 0.0345000029 0.168674126
v 0.1357249 0.0345000029 0.168931723
v 0.135839 0.0345000029 0.1692009
v 0.1359022 0.0345000029 0.169486374
v 0.135911316 0.0345000029 0.169796079
v 0.13585715 0.0345000029 0.170114279
v 0.135737091 0.0345000029 0.170421243
v 0.134741157 0.0345000029 0.1681459
v 0.131529644 0.0345000029 0.166817188
v 0.151702508 0.0345000029 0.147245556
v 0.1529638 0.0345000029 0.150603622
v 0.1355567 0.0345000029 0.170697108
v 0.134422973 0.0345000029 0.168091729
v 0.133711368 0.0345000029 0.173642278
v 0.135328919 0.0345000029 0.170925781
v 0.134113252 0.0345000029 0.168100834
v 0.135071322 0.0345000029 0.171098024
v 0.133827791 0.0345000029 0.16816406
v 0.134802133 0.0345000029 0.1712121
v 0.1335586 0.0345000029 0.168278143
v 0.133301 0.0345000029 0.168450385
v 0.134516686 0.0345000029 0.171275318
v 0.133073241 0.0345000029 0.168679059
v 0.131170958 0.0345000029 0.167215183
v 0.130860686 0.0345000029 0.167671159
v 0.132892817 0.0345000029 0.168954909
v 0.1306119 0.0345000029 0.1681757
v 0.134206951 0.0345000029 0.171284437
v 0.132772774 0.0345000029 0.169261873
v 0.13043496 0.0345000029 0.168715686
v 0.130336314 0.0345000029 0.169275254
v 0.132718623 0.0345000029 0.169580072
v 0.130317748 0.0345000029 0.16983749
v 0.132727742 0.0345000029 0.1698898
v 0.130376309 0.0345000029 0.170385912
v 0.132790938 0.0345000029 0.170175254
v 0.130504891 0.0345000029 0.170906022
v 0.13070184 0.0345000029 0.171404272
v 0.132905036 0.0345000029 0.170444429
v 0.130972251 0.0345000029 0.171884969
v 0.133077264 0.0345000029 0.170702025
v 0.131313518 0.0345000029 0.172332168
v 0.133305952 0.0345000029 0.1709298
v 0.131718457 0.0345000029 0.1727308
v 0.132175788 0.0345000029 0.173068017
v 0.133581787 0.0345000029 0.171110213
v 0.1326711 0.0345000029 0.173334688
v 0.133888766 0.0345000029 0.171230271
v 0.133188337 0.0345000029 0.173526138
v 0.161496341 0.0345000029 0.17788358
v 0.160575926 0.0345000029 0.174416542
v 0.16069001 0.0345000029 0.174685732
v 0.1605127 0.0345000029 0.1741311
v 0.1605036 0.0345000029 0.17382136
v 0.160557762 0.0345000029 0.173503175
v 0.1606778 0.0345000029 0.173196211
v 0.160858214 0.0345000029 0.172920361
v 0.160862237 0.0345000029 0.174943328
v 0.159817919 0.0345000029 0.161535725
v 0.161085963 0.0345000029 0.172691673
v 0.161090925 0.0345000029 0.1751711
v 0.161343589 0.0345000029 0.172519445
v 0.161366776 0.0345000029 0.175351515
v 0.16167374 0.0345000029 0.175471574
v 0.161991924 0.0345000029 0.175525725
v 0.161612764 0.0345000029 0.172405362
v 0.162492573 0.0345000029 0.177910045
v 0.16230166 0.0345000029 0.1755166
v 0.1625871 0.0345000029 0.17545341
v 0.1634957 0.0345000029 0.177677944
v 0.1628563 0.0345000029 0.1753393
v 0.164406329 0.0345000029 0.177197471
v 0.163113892 0.0345000029 0.175167084
v 0.165142655 0.0345000029 0.176525876
v 0.163341671 0.0345000029 0.174938381
v 0.161898226 0.0345000029 0.172342137
v 0.1656901 0.0345000029 0.175693125
v 0.16352208 0.0345000029 0.174662545
v 0.163642138 0.0345000029 0.174355581
v 0.166021377 0.0345000029 0.174718261
v 0.163696289 0.0345000029 0.174037382
v 0.166092843 0.0345000029 0.1736911
v 0.163687184 0.0345000029 0.173727646
v 0.16591 0.0345000029 0.172711447
v 0.163623974 0.0345000029 0.1734422
v 0.162207946 0.0345000029 0.172333032
v 0.163509861 0.0345000029 0.173173025
v 0.163337648 0.0345000029 0.1729154
v 0.163108945 0.0345000029 0.17268765
v 0.162833109 0.0345000029 0.172507241
v 0.162526146 0.0345000029 0.1723872
v 0.158297881 0.0345000029 0.1488985
v 0.155729547 0.0345000029 0.151125461
v 0.155909956 0.0345000029 0.150849611
v 0.155501783 0.0345000029 0.151354134
v 0.156030014 0.0345000029 0.150542647
v 0.155244187 0.0345000029 0.151526362
v 0.156084165 0.0345000029 0.150224447
v 0.154975 0.0345000029 0.15164046
v 0.15607506 0.0345000029 0.149914712
v 0.15601185 0.0345000029 0.149629265
v 0.155897751 0.0345000029 0.14936009
v 0.157878563 0.0345000029 0.147994429
v 0.155725524 0.0345000029 0.149102479
v 0.157224551 0.0345000029 0.1471992
v 0.155496836 0.0345000029 0.1488747
v 0.15468955 0.0345000029 0.151703671
v 0.1543798 0.0345000029 0.151712775
v 0.15406163 0.0345000029 0.151658624
v 0.156389236 0.0345000029 0.146597251
v 0.155220985 0.0345000029 0.1486943
v 0.154914021 0.0345000029 0.148574248
v 0.155460238 0.0345000029 0.146236435
v 0.154595837 0.0345000029 0.1485201
v 0.154470891 0.0345000029 0.14611648
v 0.154286087 0.0345000029 0.148529217
v 0.1534504 0.0345000029 0.146253318
v 0.154000655 0.0345000029 0.148592412
v 0.152498648 0.0345000029 0.146646112
v 0.153731465 0.0345000029 0.1487065
v 0.153473869 0.0345000029 0.148878738
v 0.153754666 0.0345000029 0.151538581
v 0.153478816 0.0345000029 0.151358157
v 0.153250128 0.0345000029 0.1511304
v 0.153077886 0.0345000029 0.1508728
v 0.15324609 0.0345000029 0.149107426
v 0.152900591 0.0345000029 0.150318161
v 0.153065681 0.0345000029 0.149383277
v 0.152891472 0.0345000029 0.150008425
v 0.152945638 0.0345000029 0.149690241
v 0.161496341 0.0345000029 0.17788358
v 0.161496341 0.0295 0.17788358
v 0.162059128 0.032 0.177929163
v 0.162492573 0.0345000029 0.177910045
v 0.162492573 0.0295 0.177910045
v 0.16263777 0.032 0.177893057
v 0.163214236 0.032 0.177771017
v 0.1634957 0.0345000029 0.177677944
v 0.1634957 0.0295 0.177677944
v 0.163769484 0.032 0.1775643
v 0.164406329 0.0345000029 0.177197471
v 0.164406329 0.0295 0.177197471
v 0.164285377 0.032 0.177279577
v 0.164746732 0.032 0.176928461
v 0.165142655 0.0345000029 0.176525876
v 0.165142655 0.0295 0.176525876
v 0.165142655 0.032 0.176525876
v 0.165477961 0.032 0.176071584
v 0.1656901 0.0345000029 0.175693125
v 0.1656901 0.0295 0.175693125
v 0.165862113 0.032 0.175288081
v 0.166021377 0.0345000029 0.174718261
v 0.166021377 0.0295 0.174718261
v 0.166069046 0.032 0.174425676
v 0.166092843 0.0345000029 0.1736911
v 0.166092843 0.0295 0.1736911
v 0.166081518 0.032 0.173546061
v 0.16591 0.0345000029 0.172711447
v 0.16591 0.0295 0.172711447
v 0.147603855 0.032 0.175762922
v 0.133711368 0.0345000029 0.173642278
v 0.133711368 0.0295 0.173642278
v 0.161496341 0.0295 0.17788358
v 0.161496341 0.0345000029 0.17788358
v 0.141616076 0.032 0.157031387
v 0.151702508 0.0345000029 0.147245556
v 0.151702508 0.0295 0.147245556
v 0.141616076 0.0295 0.157031387
v 0.131529644 0.0345000029 0.166817188
v 0.136572853 0.0295 0.161924288
v 0.131529644 0.0295 0.166817188
v 0.134051263 0.0295 0.164370745
v 0.158297881 0.0345000029 0.1488985
v 0.158297881 0.0295 0.1488985
v 0.158088446 0.032 0.148374155
v 0.157878563 0.0345000029 0.147994429
v 0.157878563 0.0295 0.147994429
v 0.157798752 0.032 0.147871941
v 0.1574331 0.032 0.147409886
v 0.157224551 0.0345000029 0.1471992
v 0.157224551 0.0295 0.1471992
v 0.157000989 0.032 0.14700453
v 0.156389236 0.0345000029 0.146597251
v 0.156389236 0.0295 0.146597251
v 0.156516552 0.032 0.14666909
v 0.155996889 0.032 0.146412015
v 0.155460238 0.0345000029 0.146236435
v 0.155460238 0.0295 0.146236435
v 0.155460238 0.032 0.146236435
v 0.154904217 0.032 0.146138161
v 0.154470891 0.0345000029 0.14611648
v 0.154470891 0.0295 0.14611648
v 0.1540316 0.032 0.146142542
v 0.1534504 0.0345000029 0.146253318
v 0.1534504 0.0295 0.146253318
v 0.153167158 0.032 0.146340743
v 0.152498648 0.0345000029 0.146646112
v 0.152498648 0.0295 0.146646112
v 0.152373761 0.032 0.146720752
v 0.151702508 0.0345000029 0.147245556
v 0.151702508 0.0295 0.147245556
v 0.1335586 0.032 0.168278143
v 0.133348092 0.032 0.166663438
v 0.133827791 0.032 0.16816406
v 0.133301 0.032 0.168450385
v 0.134113252 0.032 0.168100834
v 0.134422973 0.032 0.168091729
v 0.133073241 0.032 0.168679059
v 0.134741157 0.032 0.1681459
v 0.131212115 0.032 0.169013083
v 0.136450961 0.032 0.167338416
v 0.132892817 0.032 0.168954909
v 0.135048121 0.032 0.168265939
v 0.132772774 0.032 0.169261873
v 0.135323986 0.032 0.168446362
v 0.132718623 0.032 0.169580072
v 0.132727742 0.032 0.1698898
v 0.132790938 0.032 0.170175254
v 0.13555266 0.032 0.168674126
v 0.1357249 0.032 0.168931723
v 0.135839 0.032 0.1692009
v 0.132178977 0.032 0.17203775
v 0.137417823 0.032 0.170363069
v 0.132905036 0.032 0.170444429
v 0.1359022 0.032 0.169486374
v 0.133077264 0.032 0.170702025
v 0.135911316 0.032 0.169796079
v 0.133305952 0.032 0.1709298
v 0.133581787 0.032 0.171110213
v 0.133888766 0.032 0.171230271
v 0.135281846 0.032 0.172712728
v 0.13585715 0.032 0.170114279
v 0.135737091 0.032 0.170421243
v 0.1355567 0.032 0.170697108
v 0.134206951 0.032 0.171284437
v 0.135328919 0.032 0.170925781
v 0.134516686 0.032 0.171275318
v 0.135071322 0.032 0.171098024
v 0.134802133 0.032 0.1712121
v 0.131695539 0.03075 0.1705254
v 0.132178977 0.032 0.17203775
v 0.132178977 0.0295 0.17203775
v 0.131212115 0.0295 0.169013083
v 0.131212115 0.032 0.169013083
v 0.133348092 0.032 0.166663438
v 0.1322801 0.03075 0.167838261
v 0.133348092 0.0295 0.166663438
v 0.131212115 0.032 0.169013083
v 0.131212115 0.0295 0.169013083
v 0.136450961 0.032 0.167338416
v 0.134899527 0.03075 0.16700092
v 0.136450961 0.0295 0.167338416
v 0.133348092 0.032 0.166663438
v 0.133348092 0.0295 0.166663438
v 0.137417823 0.032 0.170363069
v 0.136934385 0.03075 0.16885075
v 0.137417823 0.0295 0.170363069
v 0.136450961 0.032 0.167338416
v 0.136450961 0.0295 0.167338416
v 0.135281846 0.032 0.172712728
v 0.136349827 0.03075 0.1715379
v 0.135281846 0.0295 0.172712728
v 0.137417823 0.032 0.170363069
v 0.137417823 0.0295 0.170363069
v 0.158297881 0.0345000029 0.1488985
v 0.162103936 0.032 0.160804972
v 0.158297881 0.0295 0.1488985
v 0.16591 0.0345000029 0.172711447
v 0.16591 0.0295 0.172711447
v 0.132178977 0.032 0.17203775
v 0.133730412 0.03075 0.172375232
v 0.132178977 0.0295 0.17203775
v 0.135281846 0.032 0.172712728
v 0.135281846 0.0295 0.172712728
f 1 2 3
f 1 3 4
f 5 1 4
f 4 3 6
f 7 5 4
f 8 4 6
f 7 4 8
f 8 6 9
f 10 7 8
f 11 8 9
f 10 8 11
f 11 9 12
f 13 10 11
f 14 11 12
f 13 11 14
f 14 12 15
f 16 13 14
f 17 14 15
f 16 14 17
f 17 15 18
f 19 16 17
f 20 17 18
f 19 17 20
f 20 18 21
f 22 20 21
f 23 19 20
f 23 20 22
f 22 21 24
f 25 23 22
f 26 22 24
f 27 25 22
f 28 22 26
f 27 22 28
f 29 28 26
f 30 27 28
f 31 28 29
f 31 30 28
f 32 31 29
f 31 32 30
f 32 29 33
f 32 34 30
f 35 32 33
f 32 35 34
f 35 33 36
f 35 37 34
f 38 35 36
f 35 38 37
f 38 36 39
f 38 40 37
f 41 38 39
f 38 41 40
f 41 39 42
f 41 43 40
f 44 41 42
f 41 44 43
f 44 42 45
f 44 46 43
f 47 44 45
f 44 47 46
f 47 45 48
f 46 47 49
f 47 48 49
f 48 50 49
f 50 51 49
f 49 51 52
f 50 53 51
f 51 54 52
f 53 55 51
f 51 55 54
f 53 56 55
f 55 57 54
f 56 58 55
f 55 58 57
f 56 59 58
f 58 60 57
f 59 61 58
f 58 61 60
f 59 62 61
f 61 63 60
f 62 64 61
f 61 64 63
f 62 65 64
f 64 66 63
f 65 67 64
f 64 67 66
f 65 68 67
f 68 69 67
f 67 70 66
f 67 69 70
f 68 71 69
f 69 72 70
f 71 73 69
f 69 74 72
f 73 75 69
f 69 75 74
f 73 76 75
f 75 77 74
f 76 78 75
f 75 78 77
f 76 79 78
f 79 77 78
f 80 79 76
f 79 81 77
f 82 79 80
f 79 82 81
f 83 82 80
f 82 84 81
f 85 82 83
f 82 85 84
f 86 85 83
f 85 87 84
f 88 85 86
f 85 88 87
f 89 88 86
f 88 90 87
f 91 88 89
f 88 91 90
f 92 91 89
f 91 93 90
f 94 91 92
f 91 94 93
f 95 94 92
f 94 96 93
f 94 95 96
f 97 98 99
f 97 99 100
f 101 97 100
f 100 99 102
f 103 101 100
f 104 100 102
f 103 100 104
f 104 102 105
f 106 103 104
f 107 104 105
f 106 104 107
f 107 105 108
f 109 106 107
f 110 107 108
f 109 107 110
f 110 108 111
f 112 109 110
f 113 110 111
f 112 110 113
f 113 111 114
f 115 112 113
f 116 113 114
f 115 113 116
f 116 114 117
f 118 116 117
f 119 115 116
f 119 116 118
f 118 117 120
f 121 119 118
f 122 118 120
f 123 121 118
f 124 118 122
f 123 118 124
f 125 124 122
f 126 123 124
f 127 124 125
f 127 126 124
f 128 127 125
f 127 128 126
f 128 125 129
f 128 130 126
f 131 128 129
f 128 131 130
f 131 129 132
f 131 133 130
f 134 131 132
f 131 134 133
f 134 132 135
f 134 136 133
f 137 134 135
f 134 137 136
f 137 135 138
f 137 139 136
f 140 137 138
f 137 140 139
f 140 138 141
f 140 142 139
f 143 140 141
f 140 143 142
f 143 141 144
f 142 143 145
f 143 144 145
f 144 146 145
f 146 147 145
f 145 147 148
f 146 149 147
f 147 150 148
f 149 151 147
f 147 151 150
f 149 152 151
f 151 153 150
f 152 154 151
f 151 154 153
f 152 155 154
f 154 156 153
f 155 157 154
f 154 157 156
f 155 158 157
f 157 159 156
f 158 160 157
f 157 160 159
f 158 161 160
f 160 162 159
f 161 163 160
f 160 163 162
f 161 164 163
f 164 165 163
f 163 166 162
f 163 165 166
f 164 167 165
f 165 168 166
f 167 169 165
f 165 170 168
f 169 171 165
f 165 171 170
f 169 172 171
f 171 173 170
f 172 174 171
f 171 174 173
f 172 175 174
f 175 173 174
f 176 175 172
f 175 177 173
f 178 175 176
f 175 178 177
f 179 178 176
f 178 180 177
f 181 178 179
f 178 181 180
f 182 181 179
f 181 183 180
f 184 181 182
f 181 184 183
f 185 184 182
f 184 186 183
f 187 184 185
f 184 187 186
f 188 187 185
f 187 189 186
f 190 187 188
f 187 190 189
f 191 190 188
f 190 192 189
f 190 191 192
f 193 194 195
f 193 195 196
f 197 193 196
f 196 195 198
f 199 197 196
f 200 196 198
f 199 196 200
f 200 198 201
f 202 199 200
f 203 200 201
f 202 200 203
f 203 201 204
f 205 202 203
f 206 203 204
f 205 203 206
f 206 204 207
f 208 205 206
f 209 206 207
f 208 206 209
f 209 207 210
f 211 208 209
f 212 209 210
f 211 209 212
f 212 210 213
f 214 212 213
f 215 211 212
f 215 212 214
f 214 213 216
f 217 215 214
f 218 214 216
f 219 217 214
f 220 214 218
f 219 214 220
f 221 220 218
f 222 219 220
f 223 220 221
f 223 222 220
f 224 223 221
f 223 224 222
f 224 221 225
f 224 226 222
f 227 224 225
f 224 227 226
f 227 225 228
f 227 229 226
f 230 227 228
f 227 230 229
f 230 228 231
f 230 232 229
f 233 230 231
f 230 233 232
f 233 231 234
f 233 235 232
f 236 233 234
f 233 236 235
f 236 234 237
f 236 238 235
f 239 236 237
f 236 239 238
f 239 237 240
f 238 239 241
f 239 240 241
f 240 242 241
f 242 243 241
f 241 243 244
f 242 245 243
f 243 246 244
f 245 247 243
f 243 247 246
f 245 248 247
f 247 249 246
f 248 250 247
f 247 250 249
f 248 251 250
f 250 252 249
f 251 253 250
f 250 253 252
f 251 254 253
f 253 255 252
f 254 256 253
f 253 256 255
f 254 257 256
f 256 258 255
f 257 259 256
f 256 259 258
f 257 260 259
f 260 261 259
f 259 262 258
f 259 261 262
f 260 263 261
f 261 264 262
f 263 265 261
f 261 266 264
f 265 267 261
f 261 267 266
f 265 268 267
f 267 269 266
f 268 270 267
f 267 270 269
f 268 271 270
f 271 269 270
f 272 271 268
f 271 273 269
f 274 271 272
f 271 274 273
f 275 274 272
f 274 276 273
f 277 274 275
f 274 277 276
f 278 277 275
f 277 279 276
f 280 277 278
f 277 280 279
f 281 280 278
f 280 282 279
f 283 280 281
f 280 283 282
f 284 283 281
f 283 285 282
f 286 283 284
f 283 286 285
f 287 286 284
f 286 288 285
f 286 287 288
f 289 290 291
f 289 291 292
f 293 289 292
f 292 291 294
f 293 292 295
f 292 294 296
f 292 297 295
f 298 292 296
f 292 298 297
f 298 296 299
f 300 298 299
f 298 301 297
f 298 300 301
f 300 299 302
f 300 303 301
f 300 302 304
f 300 305 303
f 306 300 304
f 300 306 305
f 306 304 307
f 308 306 307
f 306 309 305
f 306 308 309
f 308 307 310
f 308 311 309
f 308 310 312
f 308 313 311
f 314 308 312
f 308 314 313
f 314 312 315
f 314 316 313
f 317 314 315
f 314 317 316
f 317 315 318
f 317 319 316
f 320 317 318
f 317 320 319
f 320 318 321
f 320 322 319
f 323 320 321
f 320 323 322
f 323 321 324
f 323 325 322
f 326 323 324
f 323 326 325
f 326 324 327
f 326 328 325
f 329 326 327
f 326 329 328
f 329 327 330
f 329 331 328
f 332 329 330
f 329 332 331
f 332 333 331
f 334 335 336
f 334 336 337
f 338 334 337
f 334 338 339
f 334 339 340
f 335 334 341
f 342 334 340
f 342 340 343
f 342 343 344
f 345 342 344
f 344 346 345
f 346 347 345
f 346 348 347
f 348 349 347
f 348 350 349
f 350 351 349
f 350 352 351
f 352 353 351
f 353 354 351
f 353 355 354
f 355 356 354
f 355 357 356
f 357 358 356
f 357 359 358
f 359 360 358
f 360 361 358
f 361 362 358
f 362 363 358
f 363 364 358
f 364 365 358
f 358 365 366
f 365 367 366
f 364 368 365
f 368 369 365
f 369 370 365
f 370 371 365
f 371 372 365
f 372 373 365
f 365 374 367
f 375 366 367
f 374 365 376
f 366 375 377
f 365 378 376
f 366 377 379
f 365 380 378
f 381 366 379
f 366 381 382
f 366 382 383
f 384 366 383
f 383 385 384
f 385 386 384
f 385 387 386
f 380 365 388
f 387 389 386
f 387 390 389
f 390 391 389
f 391 392 389
f 391 393 392
f 393 394 392
f 393 395 394
f 395 396 394
f 395 397 396
f 397 398 396
f 397 399 398
f 399 400 398
f 400 401 398
f 400 402 401
f 402 403 401
f 403 404 401
f 404 405 401
f 405 406 401
f 406 407 401
f 406 408 407
f 408 409 407
f 409 410 407
f 410 411 407
f 407 411 412
f 407 412 413
f 414 407 413
f 413 412 415
f 365 413 415
f 365 415 388
f 373 413 365
f 373 416 413
f 416 417 413
f 417 418 413
f 418 419 413
f 419 341 413
f 414 413 420
f 421 414 420
f 421 420 422
f 423 421 422
f 423 422 424
f 425 423 424
f 426 425 424
f 427 426 424
f 428 427 424
f 429 428 424
f 430 429 424
f 431 430 424
f 432 431 424
f 432 424 433
f 434 432 433
f 435 434 433
f 436 435 433
f 437 436 433
f 438 437 433
f 439 438 433
f 440 439 433
f 441 440 433
f 441 433 442
f 334 441 442
f 334 442 443
f 341 334 443
f 341 443 413
f 444 413 443
f 413 444 420
f 444 443 420
f 445 446 447
f 448 445 447
f 445 448 449
f 445 449 450
f 451 445 450
f 445 451 452
f 445 452 453
f 454 445 453
f 445 455 446
f 456 455 445
f 457 456 445
f 458 457 445
f 445 454 459
f 456 460 455
f 445 459 461
f 462 461 459
f 460 456 463
f 461 462 464
f 463 456 465
f 461 464 466
f 456 467 465
f 456 468 467
f 469 461 466
f 468 456 470
f 470 456 471
f 470 471 472
f 473 470 472
f 473 472 474
f 461 469 475
f 476 473 474
f 476 474 477
f 476 477 478
f 479 476 478
f 479 478 480
f 481 479 480
f 481 480 482
f 483 481 482
f 483 482 484
f 483 484 485
f 486 483 485
f 486 485 487
f 488 486 487
f 488 487 489
f 490 488 489
f 490 489 491
f 490 491 492
f 493 490 492
f 493 492 494
f 495 493 494
f 496 495 494
f 496 461 495
f 461 475 495
f 497 445 461
f 498 445 497
f 499 498 497
f 498 500 445
f 500 501 445
f 501 502 445
f 502 503 445
f 503 504 445
f 505 499 497
f 504 506 445
f 504 507 506
f 508 505 497
f 507 509 506
f 510 508 497
f 511 510 497
f 512 511 497
f 509 513 506
f 512 497 514
f 515 512 514
f 516 515 514
f 516 514 517
f 518 516 517
f 518 517 519
f 520 518 519
f 520 519 521
f 522 520 521
f 513 523 506
f 522 521 524
f 525 522 524
f 526 525 524
f 526 524 527
f 528 526 527
f 528 527 529
f 530 528 529
f 529 531 530
f 531 532 530
f 523 533 506
f 531 534 532
f 535 534 531
f 536 535 531
f 537 536 531
f 533 538 506
f 538 537 531
f 538 531 506
f 539 506 531
f 540 506 539
f 541 540 539
f 540 542 506
f 543 541 539
f 542 544 506
f 545 543 539
f 544 546 506
f 547 545 539
f 548 547 539
f 549 548 539
f 549 539 550
f 551 549 550
f 551 550 552
f 553 551 552
f 546 554 506
f 554 555 506
f 555 556 506
f 553 552 557
f 558 553 557
f 559 558 557
f 559 557 560
f 561 559 560
f 561 560 562
f 563 561 562
f 563 562 564
f 565 563 564
f 556 445 506
f 564 566 565
f 566 567 565
f 566 568 567
f 556 569 445
f 566 457 568
f 569 570 445
f 570 571 445
f 571 572 445
f 572 458 445
f 457 573 568
f 458 574 457
f 457 575 573
f 574 576 457
f 577 575 457
f 576 577 457
f 578 579 580
f 581 578 580
f 579 582 580
f 583 581 580
f 583 580 582
f 583 584 581
f 584 583 582
f 584 585 581
f 584 582 586
f 584 587 585
f 587 584 586
f 587 588 585
f 587 586 589
f 588 587 590
f 587 589 590
f 588 590 591
f 591 590 589
f 592 588 591
f 593 591 589
f 594 592 591
f 594 591 593
f 594 595 592
f 595 594 593
f 595 596 592
f 595 593 597
f 595 598 596
f 598 595 597
f 598 599 596
f 598 597 600
f 598 601 599
f 601 598 600
f 601 602 599
f 601 600 603
f 601 604 602
f 604 601 603
f 604 605 602
f 604 603 606
f 605 604 606
f 607 608 609
f 607 609 610
f 608 607 611
f 611 607 610
f 612 613 614
f 612 614 615
f 613 612 616
f 617 612 615
f 616 612 618
f 612 617 619
f 612 619 618
f 620 621 622
f 623 620 622
f 621 624 622
f 625 623 622
f 625 622 624
f 625 626 623
f 626 625 624
f 626 627 623
f 626 624 628
f 626 629 627
f 629 626 628
f 629 630 627
f 629 628 631
f 630 629 632
f 629 631 632
f 630 632 633
f 633 632 631
f 634 630 633
f 635 633 631
f 636 634 633
f 636 633 635
f 636 637 634
f 637 636 635
f 637 638 634
f 637 635 639
f 637 640 638
f 640 637 639
f 640 641 638
f 640 639 642
f 640 643 641
f 643 640 642
f 643 644 641
f 643 642 645
f 643 646 644
f 646 643 645
f 646 647 644
f 646 645 648
f 647 646 648
f 649 650 651
f 650 649 652
f 650 653 651
f 650 654 653
f 650 652 655
f 654 650 656
f 657 650 655
f 650 658 656
f 657 655 659
f 658 660 656
f 657 659 661
f 658 662 660
f 663 657 661
f 657 663 664
f 657 664 665
f 662 658 666
f 658 667 666
f 658 668 667
f 669 657 665
f 658 670 668
f 669 665 671
f 670 672 668
f 669 671 673
f 670 674 672
f 675 669 673
f 669 675 676
f 669 676 677
f 678 669 677
f 674 670 679
f 670 680 679
f 670 681 680
f 670 678 681
f 682 678 677
f 678 683 681
f 678 682 684
f 678 685 683
f 678 684 686
f 685 678 686
f 687 688 689
f 687 689 690
f 688 687 691
f 691 687 690
f 692 693 694
f 695 693 692
f 693 696 694
f 693 695 696
f 697 698 699
f 700 698 697
f 698 701 699
f 698 700 701
f 702 703 704
f 705 703 702
f 703 706 704
f 703 705 706
f 707 708 709
f 710 708 707
f 708 711 709
f 708 710 711
f 712 713 714
f 715 713 712
f 713 716 714
f 713 715 716
f 717 718 719
f 720 718 717
f 718 721 719
f 718 720 721
