# ROS coordinates: X forward, Y left, Z up; units are metres.
o mesh
v 0.0384924263 0.14177306 2.08166825E-19
v 0.0388836451 0.141808957 0
v 0.0384924263 0.142273054 -0.0005
v 0.0388886444 0.142064825 -0.00025
v 0.038792666 0.1423006 -0.0005
v 0.0392838269 0.141924009 0
v 0.0390997827 0.14238891 -0.0005
v 0.0392914154 0.142199218 -0.00025
v 0.0396689251 0.14212352 0
v 0.03939532 0.142542 -0.0005
v 0.039668113 0.142430484 -0.00025
v 0.0400127061 0.142402783 0
v 0.03965915 0.142756328 -0.0005
v 0.0399849974 0.142747372 -0.00025
v 0.04029196 0.142746553 0
v 0.0398734659 0.143020168 -0.0005
v 0.04021626 0.143124059 -0.00025
v 0.04049147 0.143131644 0
v 0.0400265753 0.1433157 -0.0005
v 0.0403506532 0.143526837 -0.00025
v 0.040606536 0.143531829 0
v 0.0403924249 0.143923044 -0.00025
v 0.04011488 0.143622816 -0.0005
v 0.0406424254 0.143923044 0
v 0.0401424244 0.143923044 -0.0005
v 0.040606536 0.144314274 0
v 0.04011488 0.1442233 -0.0005
v 0.0403506532 0.144319266 -0.00025
v 0.04049147 0.14471446 0
v 0.04011242 0.144915834 -0.00025
v 0.0400265753 0.1445304 -0.0005
v 0.04029196 0.145099565 0
v 0.0398734659 0.14482595 -0.0005
v 0.0400127061 0.145443335 0
v 0.03965915 0.14508979 -0.0005
v 0.039668113 0.145415634 -0.00025
v 0.0396689251 0.1457226 0
v 0.0390911177 0.145726264 -0.00025
v 0.03939532 0.145304084 -0.0005
v 0.0392838269 0.1459221 0
v 0.0390997827 0.145457208 -0.0005
v 0.0388836451 0.146037161 0
v 0.038792666 0.145545512 -0.0005
v 0.0384924263 0.146073058 0
v 0.0384924263 0.14557305 -0.0005
v 0.09849243 0.104418546 2.08166825E-19
v 0.09888365 0.104454443 0
v 0.09849243 0.104918554 -0.0005
v 0.09888865 0.104710318 -0.00025
v 0.09879267 0.104946092 -0.0005
v 0.09928383 0.1045695 0
v 0.0990997851 0.105034396 -0.0005
v 0.09929142 0.104844712 -0.00025
v 0.0996689349 0.104769006 0
v 0.09939533 0.105187513 -0.0005
v 0.0996681154 0.105075978 -0.00025
v 0.100012712 0.105048269 0
v 0.09965915 0.105401814 -0.0005
v 0.099985 0.105392858 -0.00025
v 0.100291975 0.105392046 0
v 0.09987347 0.105665654 -0.0005
v 0.100216269 0.10576956 -0.00025
v 0.100491479 0.105777144 0
v 0.100026585 0.105961196 -0.0005
v 0.100350663 0.106172331 -0.00025
v 0.100606531 0.10617733 0
v 0.100392431 0.106568553 -0.00025
v 0.100114882 0.1062683 -0.0005
v 0.100642428 0.106568553 0
v 0.100142427 0.106568553 -0.0005
v 0.100606531 0.106959775 0
v 0.100114882 0.106868789 -0.0005
v 0.100350663 0.106964767 -0.00025
v 0.100491479 0.107359953 0
v 0.100112423 0.10756132 -0.00025
v 0.100026585 0.107175916 -0.0005
v 0.100291975 0.107745051 0
v 0.09987347 0.107471436 -0.0005
v 0.100012712 0.108088821 0
v 0.09965915 0.107735276 -0.0005
v 0.0996681154 0.10806112 -0.00025
v 0.0996689349 0.108368091 0
v 0.09909112 0.108371757 -0.00025
v 0.09939533 0.107949592 -0.0005
v 0.09928383 0.108567595 0
v 0.0990997851 0.1081027 -0.0005
v 0.09888365 0.108682655 0
v 0.09879267 0.108191 -0.0005
v 0.09849243 0.108718544 0
v 0.09849243 0.108218551 -0.0005
v 0.09849243 0.0478499979 5.516421E-18
v 0.09888365 0.0478858948 0
v 0.09849243 0.0483500026 -0.0005
v 0.09888865 0.0481417738 -0.00025
v 0.09879267 0.04837755 -0.0005
v 0.09928383 0.0480009578 0
v 0.0990997851 0.048465848 -0.0005
v 0.09929142 0.0482761636 -0.00025
v 0.0996689349 0.04820046 0
v 0.09939533 0.0486189574 -0.0005
v 0.0996681154 0.04850743 -0.00025
v 0.100012712 0.04847972 0
v 0.09965915 0.0488332734 -0.0005
v 0.099985 0.0488243178 -0.00025
v 0.100291975 0.0488235019 0
v 0.09987347 0.0490971059 -0.0005
v 0.100216269 0.04920101 -0.00025
v 0.100491479 0.0492085963 0
v 0.100026585 0.049392648 -0.0005
v 0.100350663 0.0496037863 -0.00025
v 0.100606531 0.0496087819 0
v 0.100392431 0.0500000045 -0.00025
v 0.100114882 0.0496997647 -0.0005
v 0.100642428 0.0500000045 0
v 0.100142427 0.0500000045 -0.0005
v 0.100606531 0.0503912233 0
v 0.100114882 0.0503002442 -0.0005
v 0.100350663 0.05039622 -0.00025
v 0.100491479 0.0507914051 0
v 0.100112423 0.0509927869 -0.00025
v 0.100026585 0.05060736 -0.0005
v 0.100291975 0.0511765033 0
v 0.09987347 0.0509028956 -0.0005
v 0.100012712 0.0515202843 0
v 0.09965915 0.05116673 -0.0005
v 0.0996681154 0.05149257 -0.00025
v 0.0996689349 0.0517995432 0
v 0.09909112 0.0518032126 -0.00025
v 0.09939533 0.0513810478 -0.0005
v 0.09928383 0.0519990474 0
v 0.0990997851 0.0515341535 -0.0005
v 0.09888365 0.0521141067 0
v 0.09879267 0.0516224578 -0.0005
v 0.09849243 0.0521500036 0
v 0.09849243 0.05165 -0.0005
v 0.0484924242 0.14177306 2.08166825E-19
v 0.0488836467 0.141808957 0
v 0.0484924242 0.142273054 -0.0005
v 0.0488886423 0.142064825 -0.00025
v 0.048792664 0.1423006 -0.0005
v 0.0492838323 0.141924009 0
v 0.04909978 0.14238891 -0.0005
v 0.04929141 0.142199218 -0.00025
v 0.0496689267 0.14212352 0
v 0.04939532 0.142542 -0.0005
v 0.0496681072 0.142430484 -0.00025
v 0.0500127077 0.142402783 0
v 0.0496591553 0.142756328 -0.0005
v 0.0499849953 0.142747372 -0.00025
v 0.0502919629 0.142746553 0
v 0.04987347 0.143020168 -0.0005
v 0.05021626 0.143124059 -0.00025
v 0.0504914671 0.143131644 0
v 0.05002658 0.1433157 -0.0005
v 0.0503506549 0.143526837 -0.00025
v 0.0506065376 0.143531829 0
v 0.0503924266 0.143923044 -0.00025
v 0.05011488 0.143622816 -0.0005
v 0.0506424233 0.143923044 0
v 0.050142426 0.143923044 -0.0005
v 0.0506065376 0.144314274 0
v 0.05011488 0.1442233 -0.0005
v 0.0503506549 0.144319266 -0.00025
v 0.0504914671 0.14471446 0
v 0.0501124226 0.144915834 -0.00025
v 0.05002658 0.1445304 -0.0005
v 0.0502919629 0.145099565 0
v 0.04987347 0.14482595 -0.0005
v 0.0500127077 0.145443335 0
v 0.0496591553 0.14508979 -0.0005
v 0.0496681072 0.145415634 -0.00025
v 0.0496689267 0.1457226 0
v 0.049091123 0.145726264 -0.00025
v 0.04939532 0.145304084 -0.0005
v 0.0492838323 0.1459221 0
v 0.04909978 0.145457208 -0.0005
v 0.0488836467 0.146037161 0
v 0.048792664 0.145545512 -0.0005
v 0.0484924242 0.146073058 0
v 0.0484924242 0.14557305 -0.0005
v 0.0184924249 0.0478499979 5.03069825E-18
v 0.0188836455 0.0478858948 0
v 0.0184924249 0.0483500026 -0.0005
v 0.0188886411 0.0481417738 -0.00025
v 0.0187926628 0.04837755 -0.0005
v 0.01928383 0.0480009578 0
v 0.0190997813 0.048465848 -0.0005
v 0.0192914139 0.0482761636 -0.00025
v 0.0196689256 0.04820046 0
v 0.0193953216 0.0486189574 -0.0005
v 0.0196681079 0.04850743 -0.00025
v 0.0200127047 0.04847972 0
v 0.01965915 0.0488332734 -0.0005
v 0.0199849941 0.0488243178 -0.00025
v 0.0202919655 0.0488235019 0
v 0.0198734663 0.0490971059 -0.0005
v 0.0202162638 0.04920101 -0.00025
v 0.02049147 0.0492085963 0
v 0.0200265758 0.049392648 -0.0005
v 0.0203506537 0.0496037863 -0.00025
v 0.0206065327 0.0496087819 0
v 0.0203924254 0.0500000045 -0.00025
v 0.0201148763 0.0496997647 -0.0005
v 0.0206424259 0.0500000045 0
v 0.0201424249 0.0500000045 -0.0005
v 0.0206065327 0.0503912233 0
v 0.0201148763 0.0503002442 -0.0005
v 0.0203506537 0.05039622 -0.00025
v 0.02049147 0.0507914051 0
v 0.0201124214 0.0509927869 -0.00025
v 0.0200265758 0.05060736 -0.0005
v 0.0202919655 0.0511765033 0
v 0.0198734663 0.0509028956 -0.0005
v 0.0200127047 0.0515202843 0
v 0.01965915 0.05116673 -0.0005
v 0.0196681079 0.05149257 -0.00025
v 0.0196689256 0.0517995432 0
v 0.0190911219 0.0518032126 -0.00025
v 0.0193953216 0.0513810478 -0.0005
v 0.01928383 0.0519990474 0
v 0.0190997813 0.0515341535 -0.0005
v 0.0188836455 0.0521141067 0
v 0.0187926628 0.0516224578 -0.0005
v 0.0184924249 0.0521500036 0
v 0.0184924249 0.05165 -0.0005
v 0.0184924249 0.14177306 2.08166825E-19
v 0.0188836455 0.141808957 0
v 0.0184924249 0.142273054 -0.0005
v 0.0188886411 0.142064825 -0.00025
v 0.0187926628 0.1423006 -0.0005
v 0.01928383 0.141924009 0
v 0.0190997813 0.14238891 -0.0005
v 0.0192914139 0.142199218 -0.00025
v 0.0196689256 0.14212352 0
v 0.0193953216 0.142542 -0.0005
v 0.0196681079 0.142430484 -0.00025
v 0.0200127047 0.142402783 0
v 0.01965915 0.142756328 -0.0005
v 0.0199849941 0.142747372 -0.00025
v 0.0202919655 0.142746553 0
v 0.0198734663 0.143020168 -0.0005
v 0.0202162638 0.143124059 -0.00025
v 0.02049147 0.143131644 0
v 0.0200265758 0.1433157 -0.0005
v 0.0203506537 0.143526837 -0.00025
v 0.0206065327 0.143531829 0
v 0.0203924254 0.143923044 -0.00025
v 0.0201148763 0.143622816 -0.0005
v 0.0206424259 0.143923044 0
v 0.0201424249 0.143923044 -0.0005
v 0.0206065327 0.144314274 0
v 0.0201148763 0.1442233 -0.0005
v 0.0203506537 0.144319266 -0.00025
v 0.02049147 0.14471446 0
v 0.0201124214 0.144915834 -0.00025
v 0.0200265758 0.1445304 -0.0005
v 0.0202919655 0.145099565 0
v 0.0198734663 0.14482595 -0.0005
v 0.0200127047 0.145443335 0
v 0.01965915 0.14508979 -0.0005
v 0.0196681079 0.145415634 -0.00025
v 0.0196689256 0.1457226 0
v 0.0190911219 0.145726264 -0.00025
v 0.0193953216 0.145304084 -0.0005
v 0.01928383 0.1459221 0
v 0.0190997813 0.145457208 -0.0005
v 0.0188836455 0.146037161 0
v 0.0187926628 0.145545512 -0.0005
v 0.0184924249 0.146073058 0
v 0.0184924249 0.14557305 -0.0005
v 0.09849243 0.0521500036 -0.003
v 0.09849243 0.05165 -0.00250000018
v 0.0981921852 0.0516224578 -0.00250000018
v 0.09789373 0.0518032126 -0.00275000022
v 0.0981012061 0.0521141067 -0.003
v 0.0978850648 0.0515341535 -0.00250000018
v 0.09770103 0.0519990474 -0.003
v 0.09758954 0.0513810478 -0.00250000018
v 0.09731592 0.0517995432 -0.003
v 0.09731674 0.05149257 -0.00275000022
v 0.097325705 0.05116673 -0.00250000018
v 0.096872434 0.0509927869 -0.00275000022
v 0.0969721451 0.0515202843 -0.003
v 0.09711138 0.0509028956 -0.00250000018
v 0.09669289 0.0511765033 -0.003
v 0.09695828 0.05060736 -0.00250000018
v 0.09649338 0.0507914051 -0.003
v 0.0966341943 0.05039622 -0.00275000022
v 0.09686998 0.0503002442 -0.00250000018
v 0.09659243 0.0500000045 -0.00275000022
v 0.09637832 0.0503912233 -0.003
v 0.09684242 0.0500000045 -0.00250000018
v 0.09634242 0.0500000045 -0.003
v 0.09686998 0.0496997647 -0.00250000018
v 0.09637832 0.0496087819 -0.003
v 0.0966341943 0.0496037863 -0.00275000022
v 0.09695828 0.049392648 -0.00250000018
v 0.09649338 0.0492085963 -0.003
v 0.0967685953 0.04920101 -0.00275000022
v 0.09711138 0.0490971059 -0.00250000018
v 0.09669289 0.0488235019 -0.003
v 0.09699986 0.0488243178 -0.00275000022
v 0.097325705 0.0488332734 -0.00250000018
v 0.0969721451 0.04847972 -0.003
v 0.09731674 0.04850743 -0.00275000022
v 0.09758954 0.0486189574 -0.00250000018
v 0.09731592 0.04820046 -0.003
v 0.0976934358 0.0482761636 -0.00275000022
v 0.0978850648 0.048465848 -0.00250000018
v 0.09770103 0.0480009578 -0.003
v 0.0980962142 0.0481417738 -0.00275000022
v 0.0981921852 0.04837755 -0.00250000018
v 0.0981012061 0.0478858948 -0.003
v 0.09849243 0.0483500026 -0.00250000018
v 0.09849243 0.0478499979 -0.003
v 0.09879267 0.04837755 -0.00250000018
v 0.09909112 0.0481967963 -0.00275000022
v 0.0990997851 0.048465848 -0.00250000018
v 0.09888365 0.0478858948 -0.003
v 0.09928383 0.0480009578 -0.003
v 0.09939533 0.0486189574 -0.00250000018
v 0.0996689349 0.04820046 -0.003
v 0.0996681154 0.04850743 -0.00275000022
v 0.09965915 0.0488332734 -0.00250000018
v 0.100112423 0.04900722 -0.00275000022
v 0.100012712 0.04847972 -0.003
v 0.09987347 0.0490971059 -0.00250000018
v 0.100291975 0.0488235019 -0.003
v 0.100026585 0.049392648 -0.00250000018
v 0.100491479 0.0492085963 -0.003
v 0.100350663 0.0496037863 -0.00275000022
v 0.100114882 0.0496997647 -0.00250000018
v 0.100392431 0.0500000045 -0.00275000022
v 0.100606531 0.0496087819 -0.003
v 0.100142427 0.0500000045 -0.00250000018
v 0.100642428 0.0500000045 -0.003
v 0.100114882 0.0503002442 -0.00250000018
v 0.100606531 0.0503912233 -0.003
v 0.100350663 0.05039622 -0.00275000022
v 0.100026585 0.05060736 -0.00250000018
v 0.100491479 0.0507914051 -0.003
v 0.100216269 0.05079899 -0.00275000022
v 0.09987347 0.0509028956 -0.00250000018
v 0.100291975 0.0511765033 -0.003
v 0.099985 0.0511756875 -0.00275000022
v 0.09965915 0.05116673 -0.00250000018
v 0.100012712 0.0515202843 -0.003
v 0.0996681154 0.05149257 -0.00275000022
v 0.09939533 0.0513810478 -0.00250000018
v 0.0996689349 0.0517995432 -0.003
v 0.09929142 0.0517238379 -0.00275000022
v 0.0990997851 0.0515341535 -0.00250000018
v 0.09928383 0.0519990474 -0.003
v 0.09888865 0.0518582352 -0.00275000022
v 0.09879267 0.0516224578 -0.00250000018
v 0.09888365 0.0521141067 -0.003
v 0.09849243 0.05165 -0.00250000018
v 0.09849243 0.0521500036 -0.003
v 0.09849243 0.05165 -0.0005
v 0.09849243 0.05165 -0.00250000018
v 0.09879267 0.0516224578 -0.00250000018
v 0.09883651 0.05161373 -0.0015
v 0.09879267 0.0516224578 -0.0005
v 0.0990997851 0.0515341535 -0.00250000018
v 0.0990997851 0.0515341535 -0.0005
v 0.0991862938 0.0514970161 -0.0015
v 0.09939533 0.0513810478 -0.00250000018
v 0.09939533 0.0513810478 -0.0005
v 0.09951342 0.0512961857 -0.0015
v 0.09965915 0.05116673 -0.00250000018
v 0.09965915 0.05116673 -0.0005
v 0.09978861 0.0510209948 -0.0015
v 0.09987347 0.0509028956 -0.00250000018
v 0.09987347 0.0509028956 -0.0005
v 0.099989444 0.0506938621 -0.0015
v 0.100026585 0.05060736 -0.00250000018
v 0.100026585 0.05060736 -0.0005
v 0.10010615 0.0503440872 -0.0015
v 0.100114882 0.0503002442 -0.00250000018
v 0.100142427 0.0500000045 -0.0015
v 0.100114882 0.0503002442 -0.0005
v 0.100142427 0.0500000045 -0.00250000018
v 0.100142427 0.0500000045 -0.0005
v 0.100114882 0.0496997647 -0.00250000018
v 0.100114882 0.0496997647 -0.0005
v 0.10010615 0.04965592 -0.0015
v 0.100026585 0.049392648 -0.00250000018
v 0.100026585 0.049392648 -0.0005
v 0.100026585 0.049392648 -0.0015
v 0.09989926 0.0491378456 -0.0015
v 0.09987347 0.0490971059 -0.00250000018
v 0.09987347 0.0490971059 -0.0005
v 0.09972609 0.0489043 -0.0015
v 0.09965915 0.0488332734 -0.00250000018
v 0.09965915 0.0488332734 -0.0005
v 0.09951342 0.04870382 -0.0015
v 0.09939533 0.0486189574 -0.00250000018
v 0.09939533 0.0486189574 -0.0005
v 0.09927138 0.0485454462 -0.0015
v 0.0990997851 0.048465848 -0.00250000018
v 0.0990997851 0.048465848 -0.0005
v 0.0990123451 0.04843406 -0.0015
v 0.09879267 0.04837755 -0.00250000018
v 0.09879267 0.04837755 -0.0005
v 0.09874897 0.048370067 -0.0015
v 0.09849243 0.0483500026 -0.00250000018
v 0.09849243 0.0483500026 -0.0005
v 0.0981921852 0.04837755 -0.00250000018
v 0.0981483459 0.0483862758 -0.0015
v 0.0981921852 0.04837755 -0.0005
v 0.0978850648 0.048465848 -0.00250000018
v 0.0978850648 0.048465848 -0.0005
v 0.09779857 0.0485029854 -0.0015
v 0.09758954 0.0486189574 -0.00250000018
v 0.09758954 0.0486189574 -0.0005
v 0.09747144 0.04870382 -0.0015
v 0.097325705 0.0488332734 -0.00250000018
v 0.097325705 0.0488332734 -0.0005
v 0.09719625 0.0489790142 -0.0015
v 0.09711138 0.0490971059 -0.00250000018
v 0.09711138 0.0490971059 -0.0005
v 0.09699541 0.04930614 -0.0015
v 0.09695828 0.049392648 -0.00250000018
v 0.09695828 0.049392648 -0.0005
v 0.09687871 0.04965592 -0.0015
v 0.09686998 0.0496997647 -0.00250000018
v 0.09684242 0.0500000045 -0.0015
v 0.09686998 0.0496997647 -0.0005
v 0.09684242 0.0500000045 -0.00250000018
v 0.09684242 0.0500000045 -0.0005
v 0.09686998 0.0503002442 -0.00250000018
v 0.09686998 0.0503002442 -0.0005
v 0.09687871 0.0503440872 -0.0015
v 0.09695828 0.05060736 -0.00250000018
v 0.09695828 0.05060736 -0.0005
v 0.09695828 0.05060736 -0.0015
v 0.0970855951 0.0508621559 -0.0015
v 0.09711138 0.0509028956 -0.00250000018
v 0.09711138 0.0509028956 -0.0005
v 0.09725876 0.05109571 -0.0015
v 0.097325705 0.05116673 -0.00250000018
v 0.097325705 0.05116673 -0.0005
v 0.09747144 0.0512961857 -0.0015
v 0.09758954 0.0513810478 -0.00250000018
v 0.09758954 0.0513810478 -0.0005
v 0.09771347 0.0514545627 -0.0015
v 0.0978850648 0.0515341535 -0.00250000018
v 0.0978850648 0.0515341535 -0.0005
v 0.09797251 0.0515659451 -0.0015
v 0.0981921852 0.0516224578 -0.00250000018
v 0.0981921852 0.0516224578 -0.0005
v 0.09823589 0.0516299345 -0.0015
v 0.09849243 0.05165 -0.00250000018
v 0.09849243 0.05165 -0.0005
v 0.0979936048 0.113431327 0
v 0.102992423 0.108432509 0
v 0.103492431 0.108639613 -0.0005
v 0.0929947942 0.118430145 0
v 0.08324716 0.128628969 -0.000319035636
v 0.06320899 0.148923054 -0.0005
v 0.08299716 0.128427774 0
v 0.06300188 0.148423061 0
v 0.0184924249 0.142273054 -0.0005
v 0.018192187 0.1423006 -0.0005
v 0.0184924249 0.14177306 2.08166825E-19
v 0.0178937279 0.14211984 -0.00025
v 0.0178850684 0.14238891 -0.0005
v 0.0181012042 0.141808957 0
v 0.01770102 0.141924009 0
v 0.0175895281 0.142542 -0.0005
v 0.0173159242 0.14212352 0
v 0.0173167419 0.142430484 -0.00025
v 0.0173257 0.142756328 -0.0005
v 0.0168724321 0.142930284 -0.00025
v 0.0169721451 0.142402783 0
v 0.0171113815 0.143020168 -0.0005
v 0.0166928843 0.142746553 0
v 0.0169582739 0.1433157 -0.0005
v 0.01649338 0.143131644 0
v 0.016634196 0.143526837 -0.00025
v 0.0168699715 0.143622816 -0.0005
v 0.0165924244 0.143923044 -0.00025
v 0.0163783189 0.143531829 0
v 0.0168424249 0.143923044 -0.0005
v 0.0163424239 0.143923044 0
v 0.0168699715 0.1442233 -0.0005
v 0.0163783189 0.144314274 0
v 0.016634196 0.144319266 -0.00025
v 0.0169582739 0.1445304 -0.0005
v 0.01649338 0.14471446 0
v 0.0167685859 0.144722044 -0.00025
v 0.0171113815 0.14482595 -0.0005
v 0.0166928843 0.145099565 0
v 0.0169998538 0.145098746 -0.00025
v 0.0173257 0.14508979 -0.0005
v 0.0169721451 0.145443335 0
v 0.0173167419 0.145415634 -0.00025
v 0.0175895281 0.145304084 -0.0005
v 0.0173159242 0.1457226 0
v 0.0176934376 0.1456469 -0.00025
v 0.0178850684 0.145457208 -0.0005
v 0.01770102 0.1459221 0
v 0.0180962086 0.145781279 -0.00025
v 0.018192187 0.145545512 -0.0005
v 0.0181012042 0.146037161 0
v 0.0184924249 0.14557305 -0.0005
v 0.0184924249 0.146073058 0
v 0.0184924249 0.0483500026 -0.0005
v 0.018192187 0.04837755 -0.0005
v 0.0184924249 0.0478499979 5.03069825E-18
v 0.0178937279 0.0481967963 -0.00025
v 0.0178850684 0.048465848 -0.0005
v 0.0181012042 0.0478858948 0
v 0.01770102 0.0480009578 0
v 0.0175895281 0.0486189574 -0.0005
v 0.0173159242 0.04820046 0
v 0.0173167419 0.04850743 -0.00025
v 0.0173257 0.0488332734 -0.0005
v 0.0168724321 0.04900722 -0.00025
v 0.0169721451 0.04847972 0
v 0.0171113815 0.0490971059 -0.0005
v 0.0166928843 0.0488235019 0
v 0.0169582739 0.049392648 -0.0005
v 0.01649338 0.0492085963 0
v 0.016634196 0.0496037863 -0.00025
v 0.0168699715 0.0496997647 -0.0005
v 0.0165924244 0.0500000045 -0.00025
v 0.0163783189 0.0496087819 0
v 0.0168424249 0.0500000045 -0.0005
v 0.0163424239 0.0500000045 0
v 0.0168699715 0.0503002442 -0.0005
v 0.0163783189 0.0503912233 0
v 0.016634196 0.05039622 -0.00025
v 0.0169582739 0.05060736 -0.0005
v 0.01649338 0.0507914051 0
v 0.0167685859 0.05079899 -0.00025
v 0.0171113815 0.0509028956 -0.0005
v 0.0166928843 0.0511765033 0
v 0.0169998538 0.0511756875 -0.00025
v 0.0173257 0.05116673 -0.0005
v 0.0169721451 0.0515202843 0
v 0.0173167419 0.05149257 -0.00025
v 0.0175895281 0.0513810478 -0.0005
v 0.0173159242 0.0517995432 0
v 0.0176934376 0.0517238379 -0.00025
v 0.0178850684 0.0515341535 -0.0005
v 0.01770102 0.0519990474 0
v 0.0180962086 0.0518582352 -0.00025
v 0.018192187 0.0516224578 -0.0005
v 0.0181012042 0.0521141067 0
v 0.0184924249 0.05165 -0.0005
v 0.0184924249 0.0521500036 0
v 0.0484924242 0.142273054 -0.0005
v 0.04819219 0.1423006 -0.0005
v 0.0484924242 0.14177306 2.08166825E-19
v 0.0478937328 0.14211984 -0.00025
v 0.04788507 0.14238891 -0.0005
v 0.04810121 0.141808957 0
v 0.0477010235 0.141924009 0
v 0.0475895256 0.142542 -0.0005
v 0.04731592 0.14212352 0
v 0.04731674 0.142430484 -0.00025
v 0.0473257 0.142756328 -0.0005
v 0.04687243 0.142930284 -0.00025
v 0.0469721481 0.142402783 0
v 0.0471113846 0.143020168 -0.0005
v 0.04669288 0.142746553 0
v 0.0469582751 0.1433157 -0.0005
v 0.0464933775 0.143131644 0
v 0.0466341972 0.143526837 -0.00025
v 0.04686997 0.143622816 -0.0005
v 0.04659243 0.143923044 -0.00025
v 0.04637832 0.143531829 0
v 0.0468424261 0.143923044 -0.0005
v 0.04634243 0.143923044 0
v 0.04686997 0.1442233 -0.0005
v 0.04637832 0.144314274 0
v 0.0466341972 0.144319266 -0.00025
v 0.0469582751 0.1445304 -0.0005
v 0.0464933775 0.14471446 0
v 0.0467685834 0.144722044 -0.00025
v 0.0471113846 0.14482595 -0.0005
v 0.04669288 0.145099565 0
v 0.04699985 0.145098746 -0.00025
v 0.0473257 0.14508979 -0.0005
v 0.0469721481 0.145443335 0
v 0.04731674 0.145415634 -0.00025
v 0.0475895256 0.145304084 -0.0005
v 0.04731592 0.1457226 0
v 0.0476934351 0.1456469 -0.00025
v 0.04788507 0.145457208 -0.0005
v 0.0477010235 0.1459221 0
v 0.0480962135 0.145781279 -0.00025
v 0.04819219 0.145545512 -0.0005
v 0.04810121 0.146037161 0
v 0.0484924242 0.14557305 -0.0005
v 0.0484924242 0.146073058 0
v 0.09849243 0.0483500026 -0.0005
v 0.0981921852 0.04837755 -0.0005
v 0.09849243 0.0478499979 5.516421E-18
v 0.09789373 0.0481967963 -0.00025
v 0.0978850648 0.048465848 -0.0005
v 0.0981012061 0.0478858948 0
v 0.09770103 0.0480009578 0
v 0.09758954 0.0486189574 -0.0005
v 0.09731592 0.04820046 0
v 0.09731674 0.04850743 -0.00025
v 0.097325705 0.0488332734 -0.0005
v 0.096872434 0.04900722 -0.00025
v 0.0969721451 0.04847972 0
v 0.09711138 0.0490971059 -0.0005
v 0.09669289 0.0488235019 0
v 0.09695828 0.049392648 -0.0005
v 0.09649338 0.0492085963 0
v 0.0966341943 0.0496037863 -0.00025
v 0.09686998 0.0496997647 -0.0005
v 0.09659243 0.0500000045 -0.00025
v 0.09637832 0.0496087819 0
v 0.09684242 0.0500000045 -0.0005
v 0.09634242 0.0500000045 0
v 0.09686998 0.0503002442 -0.0005
v 0.09637832 0.0503912233 0
v 0.0966341943 0.05039622 -0.00025
v 0.09695828 0.05060736 -0.0005
v 0.09649338 0.0507914051 0
v 0.0967685953 0.05079899 -0.00025
v 0.09711138 0.0509028956 -0.0005
v 0.09669289 0.0511765033 0
v 0.09699986 0.0511756875 -0.00025
v 0.097325705 0.05116673 -0.0005
v 0.0969721451 0.0515202843 0
v 0.09731674 0.05149257 -0.00025
v 0.09758954 0.0513810478 -0.0005
v 0.09731592 0.0517995432 0
v 0.0976934358 0.0517238379 -0.00025
v 0.0978850648 0.0515341535 -0.0005
v 0.09770103 0.0519990474 0
v 0.0980962142 0.0518582352 -0.00025
v 0.0981921852 0.0516224578 -0.0005
v 0.0981012061 0.0521141067 0
v 0.09849243 0.05165 -0.0005
v 0.09849243 0.0521500036 0
v 0.09849243 0.104918554 -0.0005
v 0.0981921852 0.104946092 -0.0005
v 0.09849243 0.104418546 2.08166825E-19
v 0.09789373 0.104765333 -0.00025
v 0.0978850648 0.105034396 -0.0005
v 0.0981012061 0.104454443 0
v 0.09770103 0.1045695 0
v 0.09758954 0.105187513 -0.0005
v 0.09731592 0.104769006 0
v 0.09731674 0.105075978 -0.00025
v 0.097325705 0.105401814 -0.0005
v 0.096872434 0.10557577 -0.00025
v 0.0969721451 0.105048269 0
v 0.09711138 0.105665654 -0.0005
v 0.09669289 0.105392046 0
v 0.09695828 0.105961196 -0.0005
v 0.09649338 0.105777144 0
v 0.0966341943 0.106172331 -0.00025
v 0.09686998 0.1062683 -0.0005
v 0.09659243 0.106568553 -0.00025
v 0.09637832 0.10617733 0
v 0.09684242 0.106568553 -0.0005
v 0.09634242 0.106568553 0
v 0.09686998 0.106868789 -0.0005
v 0.09637832 0.106959775 0
v 0.0966341943 0.106964767 -0.00025
v 0.09695828 0.107175916 -0.0005
v 0.09649338 0.107359953 0
v 0.0967685953 0.107367545 -0.00025
v 0.09711138 0.107471436 -0.0005
v 0.09669289 0.107745051 0
v 0.09699986 0.107744232 -0.00025
v 0.097325705 0.107735276 -0.0005
v 0.0969721451 0.108088821 0
v 0.09731674 0.10806112 -0.00025
v 0.09758954 0.107949592 -0.0005
v 0.09731592 0.108368091 0
v 0.0976934358 0.108292386 -0.00025
v 0.0978850648 0.1081027 -0.0005
v 0.09770103 0.108567595 0
v 0.0980962142 0.108426772 -0.00025
v 0.0981921852 0.108191 -0.0005
v 0.0981012061 0.108682655 0
v 0.09849243 0.108218551 -0.0005
v 0.09849243 0.108718544 0
v 0.0384924263 0.142273054 -0.0005
v 0.0381921865 0.1423006 -0.0005
v 0.0384924263 0.14177306 2.08166825E-19
v 0.03789373 0.14211984 -0.00025
v 0.03788507 0.14238891 -0.0005
v 0.0381012037 0.141808957 0
v 0.0377010219 0.141924009 0
v 0.0375895277 0.142542 -0.0005
v 0.0373159274 0.14212352 0
v 0.0373167433 0.142430484 -0.00025
v 0.0373257 0.142756328 -0.0005
v 0.03687243 0.142930284 -0.00025
v 0.0369721465 0.142402783 0
v 0.0371113829 0.143020168 -0.0005
v 0.0366928838 0.142746553 0
v 0.0369582735 0.1433157 -0.0005
v 0.0364933833 0.143131644 0
v 0.0366342 0.143526837 -0.00025
v 0.0368699729 0.143622816 -0.0005
v 0.0365924239 0.143923044 -0.00025
v 0.03637832 0.143531829 0
v 0.03684243 0.143923044 -0.0005
v 0.0363424271 0.143923044 0
v 0.0368699729 0.1442233 -0.0005
v 0.03637832 0.144314274 0
v 0.0366342 0.144319266 -0.00025
v 0.0369582735 0.1445304 -0.0005
v 0.0364933833 0.14471446 0
v 0.0367685854 0.144722044 -0.00025
v 0.0371113829 0.14482595 -0.0005
v 0.0366928838 0.145099565 0
v 0.03699985 0.145098746 -0.00025
v 0.0373257 0.14508979 -0.0005
v 0.0369721465 0.145443335 0
v 0.0373167433 0.145415634 -0.00025
v 0.0375895277 0.145304084 -0.0005
v 0.0373159274 0.1457226 0
v 0.0376934372 0.1456469 -0.00025
v 0.03788507 0.145457208 -0.0005
v 0.0377010219 0.1459221 0
v 0.0380962081 0.145781279 -0.00025
v 0.0381921865 0.145545512 -0.0005
v 0.0381012037 0.146037161 0
v 0.0384924263 0.14557305 -0.0005
v 0.0384924263 0.146073058 0
v 0.0188836455 0.0521141067 0
v 0.0163424239 0.09696153 0
v 0.0184924249 0.0521500036 0
v 0.01928383 0.0519990474 0
v 0.0181012042 0.0521141067 0
v 0.0196689256 0.0517995432 0
v 0.01770102 0.0519990474 0
v 0.0173159242 0.0517995432 0
v 0.0169721451 0.0515202843 0
v 0.0166928843 0.0511765033 0
v 0.0200127047 0.0515202843 0
v 0.01649338 0.0507914051 0
v 0.0584924258 0.09696153 0
v 0.0202919655 0.0511765033 0
v 0.02049147 0.0507914051 0
v 0.0206065327 0.0503912233 0
v 0.0206424259 0.0500000045 0
v 0.09634242 0.0500000045 0
v 0.09637832 0.0496087819 0
v 0.0206065327 0.0496087819 0
v 0.09649338 0.0492085963 0
v 0.02049147 0.0492085963 0
v 0.09669289 0.0488235019 0
v 0.0202919655 0.0488235019 0
v 0.0969721451 0.04847972 0
v 0.0200127047 0.04847972 0
v 0.09731592 0.04820046 0
v 0.0196689256 0.04820046 0
v 0.09637832 0.0503912233 0
v 0.09770103 0.0480009578 0
v 0.09649338 0.0507914051 0
v 0.01928383 0.0480009578 0
v 0.09669289 0.0511765033 0
v 0.102992423 0.0455000028 0
v 0.0981012061 0.0478858948 0
v 0.09849243 0.0478499979 5.516421E-18
v 0.09888365 0.0478858948 0
v 0.09928383 0.0480009578 0
v 0.0996689349 0.04820046 0
v 0.100012712 0.04847972 0
v 0.100291975 0.0488235019 0
v 0.100491479 0.0492085963 0
v 0.100606531 0.0496087819 0
v 0.100642428 0.0500000045 0
v 0.100606531 0.0503912233 0
v 0.100491479 0.0507914051 0
v 0.0139924241 0.0455000028 0
v 0.102992423 0.108432509 0
v 0.0188836455 0.0478858948 0
v 0.0184924249 0.0478499979 5.03069825E-18
v 0.0181012042 0.0478858948 0
v 0.01770102 0.0480009578 0
v 0.0173159242 0.04820046 0
v 0.0169721451 0.04847972 0
v 0.0166928843 0.0488235019 0
v 0.01649338 0.0492085963 0
v 0.0163783189 0.0496087819 0
v 0.0163424239 0.0500000045 0
v 0.0163783189 0.0503912233 0
v 0.0139924241 0.148423061 0
v 0.01649338 0.143131644 0
v 0.0163783189 0.143531829 0
v 0.0166928843 0.142746553 0
v 0.0169721451 0.142402783 0
v 0.0173159242 0.14212352 0
v 0.01770102 0.141924009 0
v 0.0181012042 0.141808957 0
v 0.0163424239 0.143923044 0
v 0.0184924249 0.14177306 2.08166825E-19
v 0.0163783189 0.144314274 0
v 0.0188836455 0.141808957 0
v 0.01649338 0.14471446 0
v 0.0166928843 0.145099565 0
v 0.0169721451 0.145443335 0
v 0.0173159242 0.1457226 0
v 0.01770102 0.1459221 0
v 0.0181012042 0.146037161 0
v 0.0184924249 0.146073058 0
v 0.0188836455 0.146037161 0
v 0.01928383 0.141924009 0
v 0.01928383 0.1459221 0
v 0.0377010219 0.141924009 0
v 0.0196689256 0.14212352 0
v 0.0381012037 0.141808957 0
v 0.0373159274 0.14212352 0
v 0.0384924263 0.14177306 2.08166825E-19
v 0.0200127047 0.142402783 0
v 0.0369721465 0.142402783 0
v 0.0202919655 0.142746553 0
v 0.0366928838 0.142746553 0
v 0.02049147 0.143131644 0
v 0.0364933833 0.143131644 0
v 0.0206065327 0.143531829 0
v 0.03637832 0.143531829 0
v 0.0206424259 0.143923044 0
v 0.0363424271 0.143923044 0
v 0.0206065327 0.144314274 0
v 0.03637832 0.144314274 0
v 0.02049147 0.14471446 0
v 0.0364933833 0.14471446 0
v 0.0202919655 0.145099565 0
v 0.0366928838 0.145099565 0
v 0.0200127047 0.145443335 0
v 0.0369721465 0.145443335 0
v 0.0196689256 0.1457226 0
v 0.0373159274 0.1457226 0
v 0.0377010219 0.1459221 0
v 0.0381012037 0.146037161 0
v 0.0384924263 0.146073058 0
v 0.06300188 0.148423061 0
v 0.0484924242 0.146073058 0
v 0.0388836451 0.146037161 0
v 0.04810121 0.146037161 0
v 0.0477010235 0.1459221 0
v 0.0392838269 0.1459221 0
v 0.04731592 0.1457226 0
v 0.0396689251 0.1457226 0
v 0.0469721481 0.145443335 0
v 0.0400127061 0.145443335 0
v 0.04669288 0.145099565 0
v 0.04029196 0.145099565 0
v 0.0464933775 0.14471446 0
v 0.04049147 0.14471446 0
v 0.04637832 0.144314274 0
v 0.040606536 0.144314274 0
v 0.04634243 0.143923044 0
v 0.0406424254 0.143923044 0
v 0.040606536 0.143531829 0
v 0.04637832 0.143531829 0
v 0.04049147 0.143131644 0
v 0.0464933775 0.143131644 0
v 0.04029196 0.142746553 0
v 0.04669288 0.142746553 0
v 0.0469721481 0.142402783 0
v 0.0400127061 0.142402783 0
v 0.04731592 0.14212352 0
v 0.0396689251 0.14212352 0
v 0.0477010235 0.141924009 0
v 0.0392838269 0.141924009 0
v 0.04810121 0.141808957 0
v 0.0388836451 0.141808957 0
v 0.0484924242 0.14177306 2.08166825E-19
v 0.0488836467 0.141808957 0
v 0.0492838323 0.141924009 0
v 0.0496689267 0.14212352 0
v 0.08299716 0.128427774 0
v 0.0500127077 0.142402783 0
v 0.0502919629 0.142746553 0
v 0.0504914671 0.143131644 0
v 0.0506065376 0.143531829 0
v 0.0506424233 0.143923044 0
v 0.0506065376 0.144314274 0
v 0.0504914671 0.14471446 0
v 0.0502919629 0.145099565 0
v 0.0500127077 0.145443335 0
v 0.0496689267 0.1457226 0
v 0.0492838323 0.1459221 0
v 0.0488836467 0.146037161 0
v 0.0929947942 0.118430145 0
v 0.09634242 0.106568553 0
v 0.09637832 0.106959775 0
v 0.09649338 0.107359953 0
v 0.09669289 0.107745051 0
v 0.0979936048 0.113431327 0
v 0.0969721451 0.108088821 0
v 0.09731592 0.108368091 0
v 0.09770103 0.108567595 0
v 0.0981012061 0.108682655 0
v 0.09849243 0.108718544 0
v 0.09888365 0.108682655 0
v 0.09928383 0.108567595 0
v 0.0996689349 0.108368091 0
v 0.100012712 0.108088821 0
v 0.100291975 0.107745051 0
v 0.100491479 0.107359953 0
v 0.100606531 0.106959775 0
v 0.100642428 0.106568553 0
v 0.100606531 0.10617733 0
v 0.100491479 0.105777144 0
v 0.100291975 0.105392046 0
v 0.09634242 0.09696153 0
v 0.100012712 0.105048269 0
v 0.0996689349 0.104769006 0
v 0.09928383 0.1045695 0
v 0.09888365 0.104454443 0
v 0.09849243 0.104418546 2.08166825E-19
v 0.0981012061 0.104454443 0
v 0.09770103 0.1045695 0
v 0.09731592 0.104769006 0
v 0.100291975 0.0511765033 0
v 0.100012712 0.0515202843 0
v 0.0996689349 0.0517995432 0
v 0.09928383 0.0519990474 0
v 0.09888365 0.0521141067 0
v 0.09849243 0.0521500036 0
v 0.0981012061 0.0521141067 0
v 0.09404506 0.09696153 0
v 0.0969721451 0.105048269 0
v 0.09770103 0.0519990474 0
v 0.09669289 0.105392046 0
v 0.09731592 0.0517995432 0
v 0.09649338 0.105777144 0
v 0.0969721451 0.0515202843 0
v 0.09637832 0.10617733 0
v 0.0833507 0.128781334 -0.0015
v 0.103492431 0.108639613 -0.0005
v 0.103492431 0.108639613 -0.00250000018
v 0.06320899 0.148923054 -0.00250000018
v 0.06320899 0.148923054 -0.0005
v 0.103492431 0.0768198147 -0.0015
v 0.103492431 0.045 -0.0005
v 0.103492431 0.045 -0.00250000018
v 0.103492431 0.108639613 -0.00250000018
v 0.103492431 0.108639613 -0.0005
v 0.03835071 0.148673058 -0.00025
v 0.013492425 0.148923054 -0.0005
v 0.0139924241 0.148423061 0
v 0.06300188 0.148423061 0
v 0.06320899 0.148923054 -0.0005
v 0.0584924258 0.0452500023 -0.00025
v 0.103492431 0.045 -0.0005
v 0.102992423 0.0455000028 0
v 0.0139924241 0.0455000028 0
v 0.013492425 0.045 -0.0005
v 0.103242435 0.0768198147 -0.00025
v 0.103492431 0.045 -0.0005
v 0.103492431 0.108639613 -0.0005
v 0.102992423 0.108432509 0
v 0.102992423 0.0455000028 0
v 0.0137424245 0.09696153 -0.00025
v 0.013492425 0.045 -0.0005
v 0.0139924241 0.0455000028 0
v 0.0139924241 0.148423061 0
v 0.013492425 0.148923054 -0.0005
v 0.0981012061 0.0521141067 -0.003
v 0.095786944 0.09696153 -0.003
v 0.09849243 0.0521500036 -0.003
v 0.09770103 0.0519990474 -0.003
v 0.09888365 0.0521141067 -0.003
v 0.09731592 0.0517995432 -0.003
v 0.09928383 0.0519990474 -0.003
v 0.0996689349 0.0517995432 -0.003
v 0.0969721451 0.0515202843 -0.003
v 0.100012712 0.0515202843 -0.003
v 0.0584924258 0.09696153 -0.003
v 0.09669289 0.0511765033 -0.003
v 0.09649338 0.0507914051 -0.003
v 0.09637832 0.0503912233 -0.003
v 0.09634242 0.0500000045 -0.003
v 0.095692426 0.10495197 -0.003
v 0.095692426 0.10818512 -0.003
v 0.06300188 0.148423061 -0.003
v 0.09849243 0.103335388 -0.003
v 0.101292424 0.10495197 -0.003
v 0.100291975 0.0511765033 -0.003
v 0.09849243 0.10980171 -0.003
v 0.100491479 0.0507914051 -0.003
v 0.102992423 0.0455000028 -0.003
v 0.100606531 0.0503912233 -0.003
v 0.100642428 0.0500000045 -0.003
v 0.100606531 0.0496087819 -0.003
v 0.100491479 0.0492085963 -0.003
v 0.100291975 0.0488235019 -0.003
v 0.100012712 0.04847972 -0.003
v 0.0996689349 0.04820046 -0.003
v 0.09928383 0.0480009578 -0.003
v 0.09888365 0.0478858948 -0.003
v 0.09849243 0.0478499979 -0.003
v 0.0981012061 0.0478858948 -0.003
v 0.09770103 0.0480009578 -0.003
v 0.102992423 0.108432509 -0.003
v 0.101292424 0.10818512 -0.003
v 0.0184924249 0.0467668436 -0.003
v 0.09731592 0.04820046 -0.003
v 0.0139924241 0.0455000028 -0.003
v 0.0212924257 0.04838342 -0.003
v 0.015692424 0.04838342 -0.003
v 0.0969721451 0.04847972 -0.003
v 0.09669289 0.0488235019 -0.003
v 0.09649338 0.0492085963 -0.003
v 0.09637832 0.0496087819 -0.003
v 0.0212924257 0.051616583 -0.003
v 0.015692424 0.051616583 -0.003
v 0.015692424 0.09696153 -0.003
v 0.0184924249 0.0532331653 -0.003
v 0.0139924241 0.148423061 -0.003
v 0.015692424 0.142306477 -0.003
v 0.015692424 0.145539626 -0.003
v 0.0184924249 0.1406899 -0.003
v 0.0184924249 0.147156209 -0.003
v 0.0384924263 0.1406899 -0.003
v 0.0212924257 0.142306477 -0.003
v 0.0356924236 0.142306477 -0.003
v 0.0356924236 0.145539626 -0.003
v 0.0212924257 0.145539626 -0.003
v 0.0384924263 0.147156209 -0.003
v 0.0484924242 0.1406899 -0.003
v 0.0412924252 0.142306477 -0.003
v 0.0512924269 0.142306477 -0.003
v 0.04569243 0.142306477 -0.003
v 0.0512924269 0.145539626 -0.003
v 0.0484924242 0.147156209 -0.003
v 0.04569243 0.145539626 -0.003
v 0.0412924252 0.145539626 -0.003
v 0.03835071 0.148923054 -0.0015
v 0.06320899 0.148923054 -0.00250000018
v 0.013492425 0.148923054 -0.00250000018
v 0.013492425 0.148923054 -0.0005
v 0.06320899 0.148923054 -0.0005
v 0.013492425 0.09696153 -0.0015
v 0.013492425 0.148923054 -0.00250000018
v 0.013492425 0.045 -0.00250000018
v 0.013492425 0.045 -0.0005
v 0.013492425 0.148923054 -0.0005
v 0.0584924258 0.045 -0.0015
v 0.013492425 0.045 -0.00250000018
v 0.103492431 0.045 -0.00250000018
v 0.103492431 0.045 -0.0005
v 0.013492425 0.045 -0.0005
v 0.0137424245 0.09696153 -0.00275000022
v 0.0139924241 0.0455000028 -0.003
v 0.013492425 0.045 -0.00250000018
v 0.013492425 0.148923054 -0.00250000018
v 0.0139924241 0.148423061 -0.003
v 0.0584924258 0.0452500023 -0.00275000022
v 0.102992423 0.0455000028 -0.003
v 0.103492431 0.045 -0.00250000018
v 0.013492425 0.045 -0.00250000018
v 0.0139924241 0.0455000028 -0.003
v 0.103492431 0.108639613 -0.00250000018
v 0.103242435 0.0768198147 -0.00275000022
v 0.102992423 0.108432509 -0.003
v 0.103492431 0.045 -0.00250000018
v 0.102992423 0.0455000028 -0.003
v 0.06320899 0.148923054 -0.00250000018
v 0.08324716 0.128628969 -0.00268096454
v 0.06300188 0.148423061 -0.003
v 0.103492431 0.108639613 -0.00250000018
v 0.102992423 0.108432509 -0.003
v 0.0512924269 0.142306477 -0.0005
v 0.0496591553 0.142756328 -0.0005
v 0.04987347 0.143020168 -0.0005
v 0.05002658 0.1433157 -0.0005
v 0.05011488 0.143622816 -0.0005
v 0.04939532 0.142542 -0.0005
v 0.0484924242 0.1406899 -0.0005
v 0.050142426 0.143923044 -0.0005
v 0.04909978 0.14238891 -0.0005
v 0.0512924269 0.145539626 -0.0005
v 0.048792664 0.1423006 -0.0005
v 0.05011488 0.1442233 -0.0005
v 0.0484924242 0.142273054 -0.0005
v 0.05002658 0.1445304 -0.0005
v 0.04819219 0.1423006 -0.0005
v 0.04788507 0.14238891 -0.0005
v 0.0475895256 0.142542 -0.0005
v 0.04987347 0.14482595 -0.0005
v 0.0496591553 0.14508979 -0.0005
v 0.04939532 0.145304084 -0.0005
v 0.0484924242 0.147156209 -0.0005
v 0.04569243 0.142306477 -0.0005
v 0.04909978 0.145457208 -0.0005
v 0.0473257 0.142756328 -0.0005
v 0.048792664 0.145545512 -0.0005
v 0.0471113846 0.143020168 -0.0005
v 0.0484924242 0.14557305 -0.0005
v 0.0469582751 0.1433157 -0.0005
v 0.04686997 0.143622816 -0.0005
v 0.0468424261 0.143923044 -0.0005
v 0.04819219 0.145545512 -0.0005
v 0.04788507 0.145457208 -0.0005
v 0.0475895256 0.145304084 -0.0005
v 0.04569243 0.145539626 -0.0005
v 0.04686997 0.1442233 -0.0005
v 0.0473257 0.14508979 -0.0005
v 0.0469582751 0.1445304 -0.0005
v 0.0471113846 0.14482595 -0.0005
v 0.0512924269 0.143923044 -0.00175
v 0.0512924269 0.145539626 -0.0005
v 0.0512924269 0.145539626 -0.003
v 0.0512924269 0.142306477 -0.003
v 0.0512924269 0.142306477 -0.0005
v 0.0484924242 0.1406899 -0.0005
v 0.0498924255 0.141498178 -0.00175
v 0.0484924242 0.1406899 -0.003
v 0.0512924269 0.142306477 -0.0005
v 0.0512924269 0.142306477 -0.003
v 0.04569243 0.142306477 -0.0005
v 0.0470924228 0.141498178 -0.00175
v 0.04569243 0.142306477 -0.003
v 0.0484924242 0.1406899 -0.0005
v 0.0484924242 0.1406899 -0.003
v 0.04569243 0.145539626 -0.0005
v 0.04569243 0.143923044 -0.00175
v 0.04569243 0.145539626 -0.003
v 0.04569243 0.142306477 -0.0005
v 0.04569243 0.142306477 -0.003
v 0.0484924242 0.147156209 -0.0005
v 0.0470924228 0.146347925 -0.00175
v 0.0484924242 0.147156209 -0.003
v 0.04569243 0.145539626 -0.0005
v 0.04569243 0.145539626 -0.003
v 0.0412924252 0.142306477 -0.0005
v 0.03965915 0.142756328 -0.0005
v 0.0398734659 0.143020168 -0.0005
v 0.0400265753 0.1433157 -0.0005
v 0.04011488 0.143622816 -0.0005
v 0.03939532 0.142542 -0.0005
v 0.0384924263 0.1406899 -0.0005
v 0.0401424244 0.143923044 -0.0005
v 0.0390997827 0.14238891 -0.0005
v 0.0412924252 0.145539626 -0.0005
v 0.038792666 0.1423006 -0.0005
v 0.04011488 0.1442233 -0.0005
v 0.0384924263 0.142273054 -0.0005
v 0.0400265753 0.1445304 -0.0005
v 0.0381921865 0.1423006 -0.0005
v 0.03788507 0.14238891 -0.0005
v 0.0375895277 0.142542 -0.0005
v 0.0398734659 0.14482595 -0.0005
v 0.03965915 0.14508979 -0.0005
v 0.03939532 0.145304084 -0.0005
v 0.0384924263 0.147156209 -0.0005
v 0.0356924236 0.142306477 -0.0005
v 0.0390997827 0.145457208 -0.0005
v 0.0373257 0.142756328 -0.0005
v 0.038792666 0.145545512 -0.0005
v 0.0371113829 0.143020168 -0.0005
v 0.0384924263 0.14557305 -0.0005
v 0.0369582735 0.1433157 -0.0005
v 0.0368699729 0.143622816 -0.0005
v 0.03684243 0.143923044 -0.0005
v 0.0381921865 0.145545512 -0.0005
v 0.03788507 0.145457208 -0.0005
v 0.0375895277 0.145304084 -0.0005
v 0.0356924236 0.145539626 -0.0005
v 0.0368699729 0.1442233 -0.0005
v 0.0373257 0.14508979 -0.0005
v 0.0369582735 0.1445304 -0.0005
v 0.0371113829 0.14482595 -0.0005
v 0.0412924252 0.143923044 -0.00175
v 0.0412924252 0.145539626 -0.0005
v 0.0412924252 0.145539626 -0.003
v 0.0412924252 0.142306477 -0.003
v 0.0412924252 0.142306477 -0.0005
v 0.0384924263 0.1406899 -0.0005
v 0.0398924239 0.141498178 -0.00175
v 0.0384924263 0.1406899 -0.003
v 0.0412924252 0.142306477 -0.0005
v 0.0412924252 0.142306477 -0.003
v 0.0356924236 0.142306477 -0.0005
v 0.0370924249 0.141498178 -0.00175
v 0.0356924236 0.142306477 -0.003
v 0.0384924263 0.1406899 -0.0005
v 0.0384924263 0.1406899 -0.003
v 0.0356924236 0.145539626 -0.0005
v 0.0356924236 0.143923044 -0.00175
v 0.0356924236 0.145539626 -0.003
v 0.0356924236 0.142306477 -0.0005
v 0.0356924236 0.142306477 -0.003
v 0.0384924263 0.147156209 -0.0005
v 0.0370924249 0.146347925 -0.00175
v 0.0384924263 0.147156209 -0.003
v 0.0356924236 0.145539626 -0.0005
v 0.0356924236 0.145539626 -0.003
v 0.101292424 0.10495197 -0.0005
v 0.09965915 0.105401814 -0.0005
v 0.09987347 0.105665654 -0.0005
v 0.100026585 0.105961196 -0.0005
v 0.100114882 0.1062683 -0.0005
v 0.09939533 0.105187513 -0.0005
v 0.09849243 0.103335388 -0.0005
v 0.100142427 0.106568553 -0.0005
v 0.0990997851 0.105034396 -0.0005
v 0.101292424 0.10818512 -0.0005
v 0.09879267 0.104946092 -0.0005
v 0.100114882 0.106868789 -0.0005
v 0.09849243 0.104918554 -0.0005
v 0.100026585 0.107175916 -0.0005
v 0.0981921852 0.104946092 -0.0005
v 0.0978850648 0.105034396 -0.0005
v 0.09758954 0.105187513 -0.0005
v 0.09987347 0.107471436 -0.0005
v 0.09965915 0.107735276 -0.0005
v 0.09939533 0.107949592 -0.0005
v 0.09849243 0.10980171 -0.0005
v 0.095692426 0.10495197 -0.0005
v 0.0990997851 0.1081027 -0.0005
v 0.097325705 0.105401814 -0.0005
v 0.09879267 0.108191 -0.0005
v 0.09711138 0.105665654 -0.0005
v 0.09849243 0.108218551 -0.0005
v 0.09695828 0.105961196 -0.0005
v 0.09686998 0.1062683 -0.0005
v 0.09684242 0.106568553 -0.0005
v 0.0981921852 0.108191 -0.0005
v 0.0978850648 0.1081027 -0.0005
v 0.09758954 0.107949592 -0.0005
v 0.095692426 0.10818512 -0.0005
v 0.09686998 0.106868789 -0.0005
v 0.097325705 0.107735276 -0.0005
v 0.09695828 0.107175916 -0.0005
v 0.09711138 0.107471436 -0.0005
v 0.101292424 0.106568553 -0.00175
v 0.101292424 0.10818512 -0.0005
v 0.101292424 0.10818512 -0.003
v 0.101292424 0.10495197 -0.003
v 0.101292424 0.10495197 -0.0005
v 0.09849243 0.103335388 -0.0005
v 0.09989243 0.104143679 -0.00175
v 0.09849243 0.103335388 -0.003
v 0.101292424 0.10495197 -0.0005
v 0.101292424 0.10495197 -0.003
v 0.095692426 0.10495197 -0.0005
v 0.0970924348 0.104143679 -0.00175
v 0.095692426 0.10495197 -0.003
v 0.09849243 0.103335388 -0.0005
v 0.09849243 0.103335388 -0.003
v 0.095692426 0.10818512 -0.0005
v 0.095692426 0.106568553 -0.00175
v 0.095692426 0.10818512 -0.003
v 0.095692426 0.10495197 -0.0005
v 0.095692426 0.10495197 -0.003
v 0.09849243 0.10980171 -0.0005
v 0.0970924348 0.108993419 -0.00175
v 0.09849243 0.10980171 -0.003
v 0.095692426 0.10818512 -0.0005
v 0.095692426 0.10818512 -0.003
v 0.0212924257 0.142306477 -0.0005
v 0.01965915 0.142756328 -0.0005
v 0.0198734663 0.143020168 -0.0005
v 0.0200265758 0.1433157 -0.0005
v 0.0201148763 0.143622816 -0.0005
v 0.0193953216 0.142542 -0.0005
v 0.0184924249 0.1406899 -0.0005
v 0.0201424249 0.143923044 -0.0005
v 0.0190997813 0.14238891 -0.0005
v 0.0212924257 0.145539626 -0.0005
v 0.0187926628 0.1423006 -0.0005
v 0.0201148763 0.1442233 -0.0005
v 0.0184924249 0.142273054 -0.0005
v 0.0200265758 0.1445304 -0.0005
v 0.018192187 0.1423006 -0.0005
v 0.0178850684 0.14238891 -0.0005
v 0.0175895281 0.142542 -0.0005
v 0.0198734663 0.14482595 -0.0005
v 0.01965915 0.14508979 -0.0005
v 0.0193953216 0.145304084 -0.0005
v 0.0184924249 0.147156209 -0.0005
v 0.015692424 0.142306477 -0.0005
v 0.0190997813 0.145457208 -0.0005
v 0.0173257 0.142756328 -0.0005
v 0.0187926628 0.145545512 -0.0005
v 0.0171113815 0.143020168 -0.0005
v 0.0184924249 0.14557305 -0.0005
v 0.0169582739 0.1433157 -0.0005
v 0.0168699715 0.143622816 -0.0005
v 0.0168424249 0.143923044 -0.0005
v 0.018192187 0.145545512 -0.0005
v 0.0178850684 0.145457208 -0.0005
v 0.0175895281 0.145304084 -0.0005
v 0.015692424 0.145539626 -0.0005
v 0.0168699715 0.1442233 -0.0005
v 0.0173257 0.14508979 -0.0005
v 0.0169582739 0.1445304 -0.0005
v 0.0171113815 0.14482595 -0.0005
v 0.0212924257 0.143923044 -0.00175
v 0.0212924257 0.145539626 -0.0005
v 0.0212924257 0.145539626 -0.003
v 0.0212924257 0.142306477 -0.003
v 0.0212924257 0.142306477 -0.0005
v 0.0184924249 0.1406899 -0.0005
v 0.0198924262 0.141498178 -0.00175
v 0.0184924249 0.1406899 -0.003
v 0.0212924257 0.142306477 -0.0005
v 0.0212924257 0.142306477 -0.003
v 0.015692424 0.142306477 -0.0005
v 0.0170924254 0.141498178 -0.00175
v 0.015692424 0.142306477 -0.003
v 0.0184924249 0.1406899 -0.0005
v 0.0184924249 0.1406899 -0.003
v 0.015692424 0.145539626 -0.0005
v 0.015692424 0.143923044 -0.00175
v 0.015692424 0.145539626 -0.003
v 0.015692424 0.142306477 -0.0005
v 0.015692424 0.142306477 -0.003
v 0.0184924249 0.147156209 -0.0005
v 0.0170924254 0.146347925 -0.00175
v 0.0184924249 0.147156209 -0.003
v 0.015692424 0.145539626 -0.0005
v 0.015692424 0.145539626 -0.003
v 0.0212924257 0.04838342 -0.0005
v 0.01965915 0.0488332734 -0.0005
v 0.0198734663 0.0490971059 -0.0005
v 0.0200265758 0.049392648 -0.0005
v 0.0201148763 0.0496997647 -0.0005
v 0.0193953216 0.0486189574 -0.0005
v 0.0184924249 0.0467668436 -0.0005
v 0.0201424249 0.0500000045 -0.0005
v 0.0190997813 0.048465848 -0.0005
v 0.0212924257 0.051616583 -0.0005
v 0.0187926628 0.04837755 -0.0005
v 0.0201148763 0.0503002442 -0.0005
v 0.0184924249 0.0483500026 -0.0005
v 0.0200265758 0.05060736 -0.0005
v 0.018192187 0.04837755 -0.0005
v 0.0178850684 0.048465848 -0.0005
v 0.0175895281 0.0486189574 -0.0005
v 0.0198734663 0.0509028956 -0.0005
v 0.01965915 0.05116673 -0.0005
v 0.0193953216 0.0513810478 -0.0005
v 0.0184924249 0.0532331653 -0.0005
v 0.015692424 0.04838342 -0.0005
v 0.0190997813 0.0515341535 -0.0005
v 0.0173257 0.0488332734 -0.0005
v 0.0187926628 0.0516224578 -0.0005
v 0.0171113815 0.0490971059 -0.0005
v 0.0184924249 0.05165 -0.0005
v 0.0169582739 0.049392648 -0.0005
v 0.0168699715 0.0496997647 -0.0005
v 0.0168424249 0.0500000045 -0.0005
v 0.018192187 0.0516224578 -0.0005
v 0.0178850684 0.0515341535 -0.0005
v 0.0175895281 0.0513810478 -0.0005
v 0.015692424 0.051616583 -0.0005
v 0.0168699715 0.0503002442 -0.0005
v 0.0173257 0.05116673 -0.0005
v 0.0169582739 0.05060736 -0.0005
v 0.0171113815 0.0509028956 -0.0005
v 0.0212924257 0.0500000045 -0.00175
v 0.0212924257 0.051616583 -0.0005
v 0.0212924257 0.051616583 -0.003
v 0.0212924257 0.04838342 -0.003
v 0.0212924257 0.04838342 -0.0005
v 0.0184924249 0.0467668436 -0.0005
v 0.0198924262 0.04757513 -0.00175
v 0.0184924249 0.0467668436 -0.003
v 0.0212924257 0.04838342 -0.0005
v 0.0212924257 0.04838342 -0.003
v 0.015692424 0.04838342 -0.0005
v 0.0170924254 0.04757513 -0.00175
v 0.015692424 0.04838342 -0.003
v 0.0184924249 0.0467668436 -0.0005
v 0.0184924249 0.0467668436 -0.003
v 0.015692424 0.051616583 -0.0005
v 0.015692424 0.0500000045 -0.00175
v 0.015692424 0.051616583 -0.003
v 0.015692424 0.04838342 -0.0005
v 0.015692424 0.04838342 -0.003
v 0.0184924249 0.0532331653 -0.0005
v 0.0170924254 0.0524248742 -0.00175
v 0.0184924249 0.0532331653 -0.003
v 0.015692424 0.051616583 -0.0005
v 0.015692424 0.051616583 -0.003
v 0.013492425 0.148923054 -0.00250000018
v 0.03835071 0.148673058 -0.00275000022
v 0.0139924241 0.148423061 -0.003
v 0.06320899 0.148923054 -0.00250000018
v 0.06300188 0.148423061 -0.003
v 0.0512924269 0.145539626 -0.0005
v 0.0498924255 0.146347925 -0.00175
v 0.0512924269 0.145539626 -0.003
v 0.0484924242 0.147156209 -0.0005
v 0.0484924242 0.147156209 -0.003
v 0.0412924252 0.145539626 -0.0005
v 0.0398924239 0.146347925 -0.00175
v 0.0412924252 0.145539626 -0.003
v 0.0384924263 0.147156209 -0.0005
v 0.0384924263 0.147156209 -0.003
v 0.101292424 0.10818512 -0.0005
v 0.09989243 0.108993419 -0.00175
v 0.101292424 0.10818512 -0.003
v 0.09849243 0.10980171 -0.0005
v 0.09849243 0.10980171 -0.003
v 0.0212924257 0.145539626 -0.0005
v 0.0198924262 0.146347925 -0.00175
v 0.0212924257 0.145539626 -0.003
v 0.0184924249 0.147156209 -0.0005
v 0.0184924249 0.147156209 -0.003
v 0.0212924257 0.051616583 -0.0005
v 0.0198924262 0.0524248742 -0.00175
v 0.0212924257 0.051616583 -0.003
v 0.0184924249 0.0532331653 -0.0005
v 0.0184924249 0.0532331653 -0.003
f 1 2 3
f 2 4 3
f 3 4 5
f 2 6 4
f 4 7 5
f 6 8 4
f 4 8 7
f 6 9 8
f 8 10 7
f 9 11 8
f 8 11 10
f 9 12 11
f 11 13 10
f 12 14 11
f 11 14 13
f 12 15 14
f 14 16 13
f 15 17 14
f 14 17 16
f 15 18 17
f 17 19 16
f 18 20 17
f 17 20 19
f 18 21 20
f 21 22 20
f 20 23 19
f 20 22 23
f 21 24 22
f 22 25 23
f 24 26 22
f 22 27 25
f 26 28 22
f 22 28 27
f 26 29 28
f 29 30 28
f 28 31 27
f 28 30 31
f 29 32 30
f 30 33 31
f 32 34 30
f 30 35 33
f 34 36 30
f 30 36 35
f 34 37 36
f 37 38 36
f 36 39 35
f 36 38 39
f 37 40 38
f 38 41 39
f 40 42 38
f 38 43 41
f 42 44 38
f 44 43 38
f 44 45 43
f 46 47 48
f 47 49 48
f 48 49 50
f 47 51 49
f 49 52 50
f 51 53 49
f 49 53 52
f 51 54 53
f 53 55 52
f 54 56 53
f 53 56 55
f 54 57 56
f 56 58 55
f 57 59 56
f 56 59 58
f 57 60 59
f 59 61 58
f 60 62 59
f 59 62 61
f 60 63 62
f 62 64 61
f 63 65 62
f 62 65 64
f 63 66 65
f 66 67 65
f 65 68 64
f 65 67 68
f 66 69 67
f 67 70 68
f 69 71 67
f 67 72 70
f 71 73 67
f 67 73 72
f 71 74 73
f 74 75 73
f 73 76 72
f 73 75 76
f 74 77 75
f 75 78 76
f 77 79 75
f 75 80 78
f 79 81 75
f 75 81 80
f 79 82 81
f 82 83 81
f 81 84 80
f 81 83 84
f 82 85 83
f 83 86 84
f 85 87 83
f 83 88 86
f 87 89 83
f 89 88 83
f 89 90 88
f 91 92 93
f 92 94 93
f 93 94 95
f 92 96 94
f 94 97 95
f 96 98 94
f 94 98 97
f 96 99 98
f 98 100 97
f 99 101 98
f 98 101 100
f 99 102 101
f 101 103 100
f 102 104 101
f 101 104 103
f 102 105 104
f 104 106 103
f 105 107 104
f 104 107 106
f 105 108 107
f 107 109 106
f 108 110 107
f 107 110 109
f 108 111 110
f 111 112 110
f 110 113 109
f 110 112 113
f 111 114 112
f 112 115 113
f 114 116 112
f 112 117 115
f 116 118 112
f 112 118 117
f 116 119 118
f 119 120 118
f 118 121 117
f 118 120 121
f 119 122 120
f 120 123 121
f 122 124 120
f 120 125 123
f 124 126 120
f 120 126 125
f 124 127 126
f 127 128 126
f 126 129 125
f 126 128 129
f 127 130 128
f 128 131 129
f 130 132 128
f 128 133 131
f 132 134 128
f 134 133 128
f 134 135 133
f 136 137 138
f 137 139 138
f 138 139 140
f 137 141 139
f 139 142 140
f 141 143 139
f 139 143 142
f 141 144 143
f 143 145 142
f 144 146 143
f 143 146 145
f 144 147 146
f 146 148 145
f 147 149 146
f 146 149 148
f 147 150 149
f 149 151 148
f 150 152 149
f 149 152 151
f 150 153 152
f 152 154 151
f 153 155 152
f 152 155 154
f 153 156 155
f 156 157 155
f 155 158 154
f 155 157 158
f 156 159 157
f 157 160 158
f 159 161 157
f 157 162 160
f 161 163 157
f 157 163 162
f 161 164 163
f 164 165 163
f 163 166 162
f 163 165 166
f 164 167 165
f 165 168 166
f 167 169 165
f 165 170 168
f 169 171 165
f 165 171 170
f 169 172 171
f 172 173 171
f 171 174 170
f 171 173 174
f 172 175 173
f 173 176 174
f 175 177 173
f 173 178 176
f 177 179 173
f 179 178 173
f 179 180 178
f 181 182 183
f 182 184 183
f 183 184 185
f 182 186 184
f 184 187 185
f 186 188 184
f 184 188 187
f 186 189 188
f 188 190 187
f 189 191 188
f 188 191 190
f 189 192 191
f 191 193 190
f 192 194 191
f 191 194 193
f 192 195 194
f 194 196 193
f 195 197 194
f 194 197 196
f 195 198 197
f 197 199 196
f 198 200 197
f 197 200 199
f 198 201 200
f 201 202 200
f 200 203 199
f 200 202 203
f 201 204 202
f 202 205 203
f 204 206 202
f 202 207 205
f 206 208 202
f 202 208 207
f 206 209 208
f 209 210 208
f 208 211 207
f 208 210 211
f 209 212 210
f 210 213 211
f 212 214 210
f 210 215 213
f 214 216 210
f 210 216 215
f 214 217 216
f 217 218 216
f 216 219 215
f 216 218 219
f 217 220 218
f 218 221 219
f 220 222 218
f 218 223 221
f 222 224 218
f 224 223 218
f 224 225 223
f 226 227 228
f 227 229 228
f 228 229 230
f 227 231 229
f 229 232 230
f 231 233 229
f 229 233 232
f 231 234 233
f 233 235 232
f 234 236 233
f 233 236 235
f 234 237 236
f 236 238 235
f 237 239 236
f 236 239 238
f 237 240 239
f 239 241 238
f 240 242 239
f 239 242 241
f 240 243 242
f 242 244 241
f 243 245 242
f 242 245 244
f 243 246 245
f 246 247 245
f 245 248 244
f 245 247 248
f 246 249 247
f 247 250 248
f 249 251 247
f 247 252 250
f 251 253 247
f 247 253 252
f 251 254 253
f 254 255 253
f 253 256 252
f 253 255 256
f 254 257 255
f 255 258 256
f 257 259 255
f 255 260 258
f 259 261 255
f 255 261 260
f 259 262 261
f 262 263 261
f 261 264 260
f 261 263 264
f 262 265 263
f 263 266 264
f 265 267 263
f 263 268 266
f 267 269 263
f 269 268 263
f 269 270 268
f 271 272 273
f 271 273 274
f 275 271 274
f 274 273 276
f 277 275 274
f 274 276 278
f 279 277 274
f 280 274 278
f 279 274 280
f 280 278 281
f 282 280 281
f 283 279 280
f 283 280 282
f 282 281 284
f 285 283 282
f 282 284 286
f 287 285 282
f 288 282 286
f 287 282 288
f 288 286 289
f 290 288 289
f 291 287 288
f 291 288 290
f 290 289 292
f 293 291 290
f 290 292 294
f 295 293 290
f 296 290 294
f 295 290 296
f 296 294 297
f 298 295 296
f 299 296 297
f 298 296 299
f 299 297 300
f 301 298 299
f 302 299 300
f 301 299 302
f 302 300 303
f 304 301 302
f 305 302 303
f 304 302 305
f 305 303 306
f 307 304 305
f 308 305 306
f 307 305 308
f 308 306 309
f 310 307 308
f 311 308 309
f 310 308 311
f 311 309 312
f 313 310 311
f 314 311 312
f 313 311 314
f 315 313 314
f 314 316 315
f 316 317 315
f 316 318 317
f 315 317 319
f 317 320 319
f 318 321 317
f 317 322 320
f 321 323 317
f 317 323 322
f 321 324 323
f 324 325 323
f 323 326 322
f 323 325 326
f 324 327 325
f 325 328 326
f 327 329 325
f 325 330 328
f 329 331 325
f 325 331 330
f 329 332 331
f 332 333 331
f 331 334 330
f 331 333 334
f 332 335 333
f 333 336 334
f 335 337 333
f 333 338 336
f 337 339 333
f 333 339 338
f 337 340 339
f 339 341 338
f 340 342 339
f 339 342 341
f 340 343 342
f 342 344 341
f 343 345 342
f 342 345 344
f 343 346 345
f 345 347 344
f 346 348 345
f 345 348 347
f 346 349 348
f 348 350 347
f 349 351 348
f 348 351 350
f 349 352 351
f 351 353 350
f 352 354 351
f 351 354 353
f 352 355 354
f 354 356 353
f 355 357 354
f 357 356 354
f 357 358 356
f 359 360 361
f 359 361 362
f 363 359 362
f 362 361 364
f 365 363 362
f 366 362 364
f 365 362 366
f 366 364 367
f 368 365 366
f 369 366 367
f 368 366 369
f 369 367 370
f 371 368 369
f 372 369 370
f 371 369 372
f 372 370 373
f 374 371 372
f 375 372 373
f 374 372 375
f 375 373 376
f 377 374 375
f 378 375 376
f 377 375 378
f 378 376 379
f 380 378 379
f 381 377 378
f 381 378 380
f 380 379 382
f 383 381 380
f 384 380 382
f 385 383 380
f 386 380 384
f 385 380 386
f 387 386 384
f 388 385 386
f 389 386 387
f 389 388 386
f 390 389 387
f 389 390 388
f 390 387 391
f 390 392 388
f 393 390 391
f 390 393 392
f 393 391 394
f 393 395 392
f 396 393 394
f 393 396 395
f 396 394 397
f 396 398 395
f 399 396 397
f 396 399 398
f 399 397 400
f 399 401 398
f 402 399 400
f 399 402 401
f 402 400 403
f 402 404 401
f 405 402 403
f 402 405 404
f 405 403 406
f 404 405 407
f 405 406 407
f 406 408 407
f 408 409 407
f 407 409 410
f 408 411 409
f 409 412 410
f 411 413 409
f 409 413 412
f 411 414 413
f 413 415 412
f 414 416 413
f 413 416 415
f 414 417 416
f 416 418 415
f 417 419 416
f 416 419 418
f 417 420 419
f 419 421 418
f 420 422 419
f 419 422 421
f 420 423 422
f 422 424 421
f 423 425 422
f 422 425 424
f 423 426 425
f 426 427 425
f 425 428 424
f 425 427 428
f 426 429 427
f 427 430 428
f 429 431 427
f 427 432 430
f 431 433 427
f 427 433 432
f 431 434 433
f 433 435 432
f 434 436 433
f 433 436 435
f 434 437 436
f 437 435 436
f 438 437 434
f 437 439 435
f 440 437 438
f 437 440 439
f 441 440 438
f 440 442 439
f 443 440 441
f 440 443 442
f 444 443 441
f 443 445 442
f 446 443 444
f 443 446 445
f 447 446 444
f 446 448 445
f 449 446 447
f 446 449 448
f 450 449 447
f 449 451 448
f 452 449 450
f 449 452 451
f 453 452 450
f 452 454 451
f 452 453 454
f 455 456 457
f 458 455 457
f 459 458 457
f 459 457 460
f 458 459 461
f 462 459 460
f 459 462 461
f 463 464 465
f 464 466 465
f 464 467 466
f 465 466 468
f 466 469 468
f 467 470 466
f 466 471 469
f 470 472 466
f 466 472 471
f 470 473 472
f 473 474 472
f 472 475 471
f 472 474 475
f 473 476 474
f 474 477 475
f 476 478 474
f 474 479 477
f 478 480 474
f 474 480 479
f 478 481 480
f 481 482 480
f 480 483 479
f 480 482 483
f 481 484 482
f 482 485 483
f 484 486 482
f 482 487 485
f 486 488 482
f 482 488 487
f 486 489 488
f 488 490 487
f 489 491 488
f 488 491 490
f 489 492 491
f 491 493 490
f 492 494 491
f 491 494 493
f 492 495 494
f 494 496 493
f 495 497 494
f 494 497 496
f 495 498 497
f 497 499 496
f 498 500 497
f 497 500 499
f 498 501 500
f 500 502 499
f 501 503 500
f 500 503 502
f 501 504 503
f 503 505 502
f 504 506 503
f 506 505 503
f 506 507 505
f 508 509 510
f 509 511 510
f 509 512 511
f 510 511 513
f 511 514 513
f 512 515 511
f 511 516 514
f 515 517 511
f 511 517 516
f 515 518 517
f 518 519 517
f 517 520 516
f 517 519 520
f 518 521 519
f 519 522 520
f 521 523 519
f 519 524 522
f 523 525 519
f 519 525 524
f 523 526 525
f 526 527 525
f 525 528 524
f 525 527 528
f 526 529 527
f 527 530 528
f 529 531 527
f 527 532 530
f 531 533 527
f 527 533 532
f 531 534 533
f 533 535 532
f 534 536 533
f 533 536 535
f 534 537 536
f 536 538 535
f 537 539 536
f 536 539 538
f 537 540 539
f 539 541 538
f 540 542 539
f 539 542 541
f 540 543 542
f 542 544 541
f 543 545 542
f 542 545 544
f 543 546 545
f 545 547 544
f 546 548 545
f 545 548 547
f 546 549 548
f 548 550 547
f 549 551 548
f 551 550 548
f 551 552 550
f 553 554 555
f 554 556 555
f 554 557 556
f 555 556 558
f 556 559 558
f 557 560 556
f 556 561 559
f 560 562 556
f 556 562 561
f 560 563 562
f 563 564 562
f 562 565 561
f 562 564 565
f 563 566 564
f 564 567 565
f 566 568 564
f 564 569 567
f 568 570 564
f 564 570 569
f 568 571 570
f 571 572 570
f 570 573 569
f 570 572 573
f 571 574 572
f 572 575 573
f 574 576 572
f 572 577 575
f 576 578 572
f 572 578 577
f 576 579 578
f 578 580 577
f 579 581 578
f 578 581 580
f 579 582 581
f 581 583 580
f 582 584 581
f 581 584 583
f 582 585 584
f 584 586 583
f 585 587 584
f 584 587 586
f 585 588 587
f 587 589 586
f 588 590 587
f 587 590 589
f 588 591 590
f 590 592 589
f 591 593 590
f 590 593 592
f 591 594 593
f 593 595 592
f 594 596 593
f 596 595 593
f 596 597 595
f 598 599 600
f 599 601 600
f 599 602 601
f 600 601 603
f 601 604 603
f 602 605 601
f 601 606 604
f 605 607 601
f 601 607 606
f 605 608 607
f 608 609 607
f 607 610 606
f 607 609 610
f 608 611 609
f 609 612 610
f 611 613 609
f 609 614 612
f 613 615 609
f 609 615 614
f 613 616 615
f 616 617 615
f 615 618 614
f 615 617 618
f 616 619 617
f 617 620 618
f 619 621 617
f 617 622 620
f 621 623 617
f 617 623 622
f 621 624 623
f 623 625 622
f 624 626 623
f 623 626 625
f 624 627 626
f 626 628 625
f 627 629 626
f 626 629 628
f 627 630 629
f 629 631 628
f 630 632 629
f 629 632 631
f 630 633 632
f 632 634 631
f 633 635 632
f 632 635 634
f 633 636 635
f 635 637 634
f 636 638 635
f 635 638 637
f 636 639 638
f 638 640 637
f 639 641 638
f 641 640 638
f 641 642 640
f 643 644 645
f 644 646 645
f 644 647 646
f 645 646 648
f 646 649 648
f 647 650 646
f 646 651 649
f 650 652 646
f 646 652 651
f 650 653 652
f 653 654 652
f 652 655 651
f 652 654 655
f 653 656 654
f 654 657 655
f 656 658 654
f 654 659 657
f 658 660 654
f 654 660 659
f 658 661 660
f 661 662 660
f 660 663 659
f 660 662 663
f 661 664 662
f 662 665 663
f 664 666 662
f 662 667 665
f 666 668 662
f 662 668 667
f 666 669 668
f 668 670 667
f 669 671 668
f 668 671 670
f 669 672 671
f 671 673 670
f 672 674 671
f 671 674 673
f 672 675 674
f 674 676 673
f 675 677 674
f 674 677 676
f 675 678 677
f 677 679 676
f 678 680 677
f 677 680 679
f 678 681 680
f 680 682 679
f 681 683 680
f 680 683 682
f 681 684 683
f 683 685 682
f 684 686 683
f 686 685 683
f 686 687 685
f 688 689 690
f 689 691 690
f 689 692 691
f 690 691 693
f 691 694 693
f 692 695 691
f 691 696 694
f 695 697 691
f 691 697 696
f 695 698 697
f 698 699 697
f 697 700 696
f 697 699 700
f 698 701 699
f 699 702 700
f 701 703 699
f 699 704 702
f 703 705 699
f 699 705 704
f 703 706 705
f 706 707 705
f 705 708 704
f 705 707 708
f 706 709 707
f 707 710 708
f 709 711 707
f 707 712 710
f 711 713 707
f 707 713 712
f 711 714 713
f 713 715 712
f 714 716 713
f 713 716 715
f 714 717 716
f 716 718 715
f 717 719 716
f 716 719 718
f 717 720 719
f 719 721 718
f 720 722 719
f 719 722 721
f 720 723 722
f 722 724 721
f 723 725 722
f 722 725 724
f 723 726 725
f 725 727 724
f 726 728 725
f 725 728 727
f 726 729 728
f 728 730 727
f 729 731 728
f 731 730 728
f 731 732 730
f 733 734 735
f 734 733 736
f 734 737 735
f 734 736 738
f 734 739 737
f 739 734 740
f 734 741 740
f 734 742 741
f 743 734 738
f 742 734 744
f 745 734 743
f 746 745 743
f 745 746 747
f 745 747 748
f 749 745 748
f 745 749 750
f 749 751 750
f 749 752 751
f 752 753 751
f 752 754 753
f 754 755 753
f 754 756 755
f 756 757 755
f 756 758 757
f 758 759 757
f 758 760 759
f 745 750 761
f 760 762 759
f 745 761 763
f 760 764 762
f 765 745 763
f 766 762 764
f 766 767 762
f 767 766 768
f 766 769 768
f 766 770 769
f 770 766 771
f 766 772 771
f 766 773 772
f 773 766 774
f 766 775 774
f 766 776 775
f 776 766 777
f 766 778 777
f 779 766 764
f 766 780 778
f 779 764 781
f 779 781 782
f 783 779 782
f 779 783 784
f 785 779 784
f 779 785 786
f 779 786 787
f 788 779 787
f 779 788 789
f 779 789 790
f 791 779 790
f 779 791 744
f 779 744 734
f 792 779 734
f 792 734 793
f 792 793 794
f 734 795 793
f 734 796 795
f 796 734 797
f 734 798 797
f 734 799 798
f 792 794 800
f 799 734 801
f 802 792 800
f 734 803 801
f 792 802 804
f 792 804 805
f 806 792 805
f 792 806 807
f 792 807 808
f 809 792 808
f 792 809 810
f 792 810 811
f 734 812 803
f 813 792 811
f 734 814 812
f 814 815 812
f 816 814 734
f 814 817 815
f 818 816 734
f 817 819 815
f 817 820 819
f 820 821 819
f 820 822 821
f 822 823 821
f 822 824 823
f 824 825 823
f 824 826 825
f 826 827 825
f 826 828 827
f 828 829 827
f 828 830 829
f 830 831 829
f 830 832 831
f 832 833 831
f 832 834 833
f 834 835 833
f 834 836 835
f 836 837 835
f 836 838 837
f 838 813 837
f 838 839 813
f 839 792 813
f 792 839 840
f 792 840 841
f 842 792 841
f 842 841 843
f 841 844 843
f 844 845 843
f 844 846 845
f 844 847 846
f 847 848 846
f 847 849 848
f 849 850 848
f 849 851 850
f 851 852 850
f 851 853 852
f 853 854 852
f 853 855 854
f 855 856 854
f 855 857 856
f 857 858 856
f 857 859 858
f 859 860 858
f 860 861 858
f 860 862 861
f 862 863 861
f 862 864 863
f 864 865 863
f 864 866 865
f 864 867 866
f 867 868 866
f 867 869 868
f 869 870 868
f 869 871 870
f 871 872 870
f 871 873 872
f 873 745 872
f 873 818 745
f 818 734 745
f 872 745 874
f 745 875 874
f 745 876 875
f 876 745 877
f 878 877 745
f 878 879 877
f 878 842 879
f 842 880 879
f 842 881 880
f 881 842 882
f 842 883 882
f 842 884 883
f 884 842 885
f 842 886 885
f 842 887 886
f 887 842 888
f 842 889 888
f 842 890 889
f 890 842 843
f 891 878 745
f 891 745 892
f 893 891 892
f 891 893 894
f 891 894 895
f 896 891 895
f 896 895 897
f 896 897 898
f 899 896 898
f 896 899 900
f 896 900 901
f 902 896 901
f 896 902 903
f 896 903 904
f 780 896 904
f 780 904 905
f 780 905 906
f 907 780 906
f 780 907 908
f 780 908 909
f 910 780 909
f 780 910 911
f 780 911 912
f 913 780 912
f 913 912 914
f 913 914 915
f 916 913 915
f 913 916 917
f 913 917 918
f 919 913 918
f 913 919 920
f 913 920 921
f 780 913 922
f 913 923 922
f 780 922 778
f 913 924 923
f 924 913 925
f 913 926 925
f 913 927 926
f 927 913 928
f 929 913 921
f 913 929 928
f 929 921 930
f 928 929 931
f 929 930 932
f 929 933 931
f 934 929 932
f 929 935 933
f 929 934 936
f 935 929 765
f 929 936 892
f 929 745 765
f 745 929 892
f 937 938 939
f 937 939 940
f 938 937 941
f 941 937 940
f 942 943 944
f 942 944 945
f 943 942 946
f 946 942 945
f 947 948 949
f 947 949 950
f 948 947 951
f 951 947 950
f 952 953 954
f 952 954 955
f 953 952 956
f 956 952 955
f 957 958 959
f 960 957 959
f 957 961 958
f 961 957 960
f 962 963 964
f 962 964 965
f 963 962 966
f 966 962 965
f 967 968 969
f 968 967 970
f 968 971 969
f 968 970 972
f 968 973 971
f 973 968 974
f 975 968 972
f 968 976 974
f 968 975 977
f 975 978 977
f 978 979 977
f 979 980 977
f 977 980 981
f 968 977 982
f 982 977 983
f 977 984 983
f 985 968 982
f 985 986 968
f 986 976 968
f 986 987 976
f 983 984 988
f 987 986 989
f 990 989 986
f 990 991 989
f 992 991 990
f 993 992 990
f 994 993 990
f 995 994 990
f 996 995 990
f 997 996 990
f 998 997 990
f 999 998 990
f 1000 999 990
f 1001 1000 990
f 1002 1001 990
f 1003 990 986
f 1003 986 1004
f 1003 1004 988
f 984 1003 988
f 1002 990 1005
f 1006 1002 1005
f 990 1007 1005
f 1006 1005 1008
f 1007 1009 1005
f 1010 1006 1008
f 1011 1010 1008
f 1012 1011 1008
f 1013 1012 1008
f 981 1013 1008
f 1014 981 1008
f 1007 1015 1009
f 1007 1016 1015
f 1015 1016 1017
f 1016 1014 1017
f 977 981 1014
f 1016 977 1014
f 1007 1018 1016
f 1018 1019 1016
f 1018 1020 1019
f 1016 1019 1021
f 1020 1018 1022
f 1023 1016 1021
f 977 1016 1023
f 1023 1021 1024
f 1025 1023 1024
f 1026 1025 1024
f 1027 1026 1024
f 1027 1022 1026
f 1022 1028 1026
f 1022 1018 1028
f 1018 984 1028
f 977 1023 1029
f 1023 1030 1029
f 1031 977 1029
f 977 1031 984
f 1030 1032 1029
f 1031 1033 984
f 984 1033 1034
f 984 1034 1028
f 1030 1035 1032
f 1034 1035 1028
f 1035 1030 1036
f 1035 1036 1028
f 1037 1038 1039
f 1040 1037 1039
f 1037 1041 1038
f 1041 1037 1040
f 1042 1043 1044
f 1045 1042 1044
f 1042 1046 1043
f 1046 1042 1045
f 1047 1048 1049
f 1050 1047 1049
f 1047 1051 1048
f 1051 1047 1050
f 1052 1053 1054
f 1052 1054 1055
f 1053 1052 1056
f 1056 1052 1055
f 1057 1058 1059
f 1057 1059 1060
f 1058 1057 1061
f 1061 1057 1060
f 1062 1063 1064
f 1065 1063 1062
f 1063 1066 1064
f 1063 1065 1066
f 1067 1068 1069
f 1070 1068 1067
f 1068 1071 1069
f 1068 1070 1071
f 1072 1073 1074
f 1075 1072 1074
f 1072 1075 1076
f 1072 1077 1073
f 1072 1078 1077
f 1072 1076 1079
f 1078 1080 1077
f 1081 1072 1079
f 1078 1082 1080
f 1081 1079 1083
f 1082 1078 1084
f 1081 1083 1085
f 1078 1086 1084
f 1078 1087 1086
f 1087 1078 1088
f 1089 1081 1085
f 1081 1089 1090
f 1081 1090 1091
f 1092 1081 1091
f 1078 1093 1088
f 1094 1092 1091
f 1093 1095 1088
f 1092 1094 1096
f 1093 1097 1095
f 1092 1096 1098
f 1097 1093 1099
f 1093 1100 1099
f 1093 1101 1100
f 1102 1092 1098
f 1092 1102 1103
f 1092 1103 1104
f 1093 1105 1101
f 1105 1092 1104
f 1105 1106 1101
f 1105 1104 1107
f 1105 1108 1106
f 1105 1107 1109
f 1108 1105 1109
f 1110 1111 1112
f 1110 1112 1113
f 1111 1110 1114
f 1114 1110 1113
f 1115 1116 1117
f 1118 1116 1115
f 1116 1119 1117
f 1116 1118 1119
f 1120 1121 1122
f 1123 1121 1120
f 1121 1124 1122
f 1121 1123 1124
f 1125 1126 1127
f 1128 1126 1125
f 1126 1129 1127
f 1126 1128 1129
f 1130 1131 1132
f 1133 1131 1130
f 1131 1134 1132
f 1131 1133 1134
f 1135 1136 1137
f 1138 1135 1137
f 1135 1138 1139
f 1135 1140 1136
f 1135 1141 1140
f 1135 1139 1142
f 1141 1143 1140
f 1144 1135 1142
f 1141 1145 1143
f 1144 1142 1146
f 1145 1141 1147
f 1144 1146 1148
f 1141 1149 1147
f 1141 1150 1149
f 1150 1141 1151
f 1152 1144 1148
f 1144 1152 1153
f 1144 1153 1154
f 1155 1144 1154
f 1141 1156 1151
f 1157 1155 1154
f 1156 1158 1151
f 1155 1157 1159
f 1156 1160 1158
f 1155 1159 1161
f 1160 1156 1162
f 1156 1163 1162
f 1156 1164 1163
f 1165 1155 1161
f 1155 1165 1166
f 1155 1166 1167
f 1156 1168 1164
f 1168 1155 1167
f 1168 1169 1164
f 1168 1167 1170
f 1168 1171 1169
f 1168 1170 1172
f 1171 1168 1172
f 1173 1174 1175
f 1173 1175 1176
f 1174 1173 1177
f 1177 1173 1176
f 1178 1179 1180
f 1181 1179 1178
f 1179 1182 1180
f 1179 1181 1182
f 1183 1184 1185
f 1186 1184 1183
f 1184 1187 1185
f 1184 1186 1187
f 1188 1189 1190
f 1191 1189 1188
f 1189 1192 1190
f 1189 1191 1192
f 1193 1194 1195
f 1196 1194 1193
f 1194 1197 1195
f 1194 1196 1197
f 1198 1199 1200
f 1201 1198 1200
f 1198 1201 1202
f 1198 1203 1199
f 1198 1204 1203
f 1198 1202 1205
f 1204 1206 1203
f 1207 1198 1205
f 1204 1208 1206
f 1207 1205 1209
f 1208 1204 1210
f 1207 1209 1211
f 1204 1212 1210
f 1204 1213 1212
f 1213 1204 1214
f 1215 1207 1211
f 1207 1215 1216
f 1207 1216 1217
f 1218 1207 1217
f 1204 1219 1214
f 1220 1218 1217
f 1219 1221 1214
f 1218 1220 1222
f 1219 1223 1221
f 1218 1222 1224
f 1223 1219 1225
f 1219 1226 1225
f 1219 1227 1226
f 1228 1218 1224
f 1218 1228 1229
f 1218 1229 1230
f 1219 1231 1227
f 1231 1218 1230
f 1231 1232 1227
f 1231 1230 1233
f 1231 1234 1232
f 1231 1233 1235
f 1234 1231 1235
f 1236 1237 1238
f 1236 1238 1239
f 1237 1236 1240
f 1240 1236 1239
f 1241 1242 1243
f 1244 1242 1241
f 1242 1245 1243
f 1242 1244 1245
f 1246 1247 1248
f 1249 1247 1246
f 1247 1250 1248
f 1247 1249 1250
f 1251 1252 1253
f 1254 1252 1251
f 1252 1255 1253
f 1252 1254 1255
f 1256 1257 1258
f 1259 1257 1256
f 1257 1260 1258
f 1257 1259 1260
f 1261 1262 1263
f 1264 1261 1263
f 1261 1264 1265
f 1261 1266 1262
f 1261 1267 1266
f 1261 1265 1268
f 1267 1269 1266
f 1270 1261 1268
f 1267 1271 1269
f 1270 1268 1272
f 1271 1267 1273
f 1270 1272 1274
f 1267 1275 1273
f 1267 1276 1275
f 1276 1267 1277
f 1278 1270 1274
f 1270 1278 1279
f 1270 1279 1280
f 1281 1270 1280
f 1267 1282 1277
f 1283 1281 1280
f 1282 1284 1277
f 1281 1283 1285
f 1282 1286 1284
f 1281 1285 1287
f 1286 1282 1288
f 1282 1289 1288
f 1282 1290 1289
f 1291 1281 1287
f 1281 1291 1292
f 1281 1292 1293
f 1282 1294 1290
f 1294 1281 1293
f 1294 1295 1290
f 1294 1293 1296
f 1294 1297 1295
f 1294 1296 1298
f 1297 1294 1298
f 1299 1300 1301
f 1299 1301 1302
f 1300 1299 1303
f 1303 1299 1302
f 1304 1305 1306
f 1307 1305 1304
f 1305 1308 1306
f 1305 1307 1308
f 1309 1310 1311
f 1312 1310 1309
f 1310 1313 1311
f 1310 1312 1313
f 1314 1315 1316
f 1317 1315 1314
f 1315 1318 1316
f 1315 1317 1318
f 1319 1320 1321
f 1322 1320 1319
f 1320 1323 1321
f 1320 1322 1323
f 1324 1325 1326
f 1327 1324 1326
f 1324 1327 1328
f 1324 1329 1325
f 1324 1330 1329
f 1324 1328 1331
f 1330 1332 1329
f 1333 1324 1331
f 1330 1334 1332
f 1333 1331 1335
f 1334 1330 1336
f 1333 1335 1337
f 1330 1338 1336
f 1330 1339 1338
f 1339 1330 1340
f 1341 1333 1337
f 1333 1341 1342
f 1333 1342 1343
f 1344 1333 1343
f 1330 1345 1340
f 1346 1344 1343
f 1345 1347 1340
f 1344 1346 1348
f 1345 1349 1347
f 1344 1348 1350
f 1349 1345 1351
f 1345 1352 1351
f 1345 1353 1352
f 1354 1344 1350
f 1344 1354 1355
f 1344 1355 1356
f 1345 1357 1353
f 1357 1344 1356
f 1357 1358 1353
f 1357 1356 1359
f 1357 1360 1358
f 1357 1359 1361
f 1360 1357 1361
f 1362 1363 1364
f 1362 1364 1365
f 1363 1362 1366
f 1366 1362 1365
f 1367 1368 1369
f 1370 1368 1367
f 1368 1371 1369
f 1368 1370 1371
f 1372 1373 1374
f 1375 1373 1372
f 1373 1376 1374
f 1373 1375 1376
f 1377 1378 1379
f 1380 1378 1377
f 1378 1381 1379
f 1378 1380 1381
f 1382 1383 1384
f 1385 1383 1382
f 1383 1386 1384
f 1383 1385 1386
f 1387 1388 1389
f 1390 1388 1387
f 1388 1391 1389
f 1388 1390 1391
f 1392 1393 1394
f 1395 1393 1392
f 1393 1396 1394
f 1393 1395 1396
f 1397 1398 1399
f 1400 1398 1397
f 1398 1401 1399
f 1398 1400 1401
f 1402 1403 1404
f 1405 1403 1402
f 1403 1406 1404
f 1403 1405 1406
f 1407 1408 1409
f 1410 1408 1407
f 1408 1411 1409
f 1408 1410 1411
f 1412 1413 1414
f 1415 1413 1412
f 1413 1416 1414
f 1413 1415 1416
