# ROS coordinates: X forward, Y left, Z up; units are metres.
o mesh
v -0.03192831 0.111994676 0.081597805
v -0.0239132531 0.120009735 0.08877516
v -0.023913255 0.120009735 0.07442044
v -0.0399433672 0.103979617 0.07442044
v -0.0399433635 0.103979617 0.08877516
v -0.02352788 0.103594244 0.081597805
v -0.0315429345 0.09557919 0.0887751654
v -0.0315429345 0.09557919 0.0744204447
v -0.015512825 0.1116093 0.0744204447
v -0.0155128222 0.1116093 0.0887751654
v -0.0197130367 0.115809515 0.081597805
v -0.023913255 0.120009735 0.07442044
v -0.0239132531 0.120009735 0.08877516
v -0.0155128222 0.1116093 0.0887751654
v -0.015512825 0.1116093 0.0744204447
v -0.0277280938 0.107794464 0.0887751654
v -0.0399433635 0.103979617 0.08877516
v -0.0315429345 0.09557919 0.0887751654
v -0.0155128222 0.1116093 0.0887751654
v -0.0239132531 0.120009735 0.08877516
v -0.03574315 0.0997794047 0.081597805
v -0.0399433672 0.103979617 0.07442044
v -0.0315429345 0.09557919 0.0744204447
v -0.0315429345 0.09557919 0.0887751654
v -0.0399433635 0.103979617 0.08877516
v -0.0315429345 0.09557919 0.0744204447
v -0.0277280938 0.107794464 0.0744204447
v -0.015512825 0.1116093 0.0744204447
v -0.0399433672 0.103979617 0.07442044
v -0.023913255 0.120009735 0.07442044
f 1 2 3
f 1 3 4
f 2 1 5
f 5 1 4
f 6 7 8
f 6 8 9
f 7 6 10
f 10 6 9
f 11 12 13
f 11 13 14
f 12 11 15
f 15 11 14
f 16 17 18
f 19 16 18
f 16 20 17
f 20 16 19
f 21 22 23
f 24 21 23
f 21 25 22
f 25 21 24
f 26 27 28
f 29 27 26
f 27 30 28
f 27 29 30
