# ROS coordinates: X forward, Y left, Z up; units are metres.
o mesh
v -0.0625 -0.01625 0.12508
v -0.063 -0.01575 0.12508
v -0.063 -0.01625 0.12508
v -0.063 -0.016 0.125085
v -0.063 -0.01575 0.12508
v -0.063 -0.01575 0.12509
v -0.063 -0.01625 0.12509
v -0.063 -0.01625 0.12508
v -0.0627500042 -0.016 0.125085
v -0.0625 -0.01625 0.12508
v -0.0625 -0.01625 0.12509
v -0.063 -0.01575 0.12509
v -0.063 -0.01575 0.12508
v -0.0627500042 -0.01625 0.125085
v -0.063 -0.01625 0.12509
v -0.0625 -0.01625 0.12509
v -0.0625 -0.01625 0.12508
v -0.063 -0.01625 0.12508
v -0.056 -0.00925 0.12459
v -0.0635 -0.01675 0.12459
v -0.0635 -0.00175000029 0.12459
v -0.0485 -0.00175000029 0.124590009
v -0.0485 -0.01675 0.124590009
v -0.0485 -0.00175000029 0.12509
v -0.0635 -0.00175000029 0.12509
v -0.056 -0.00925 0.12509
v -0.0485 -0.01675 0.12509
v -0.063 -0.01575 0.12509
v -0.0635 -0.01675 0.12509
v -0.063 -0.01625 0.12509
v -0.0625 -0.01625 0.12509
v -0.0635 -0.00925 0.124840006
v -0.0635 -0.00175000029 0.12509
v -0.0635 -0.00175000029 0.12459
v -0.0635 -0.01675 0.12459
v -0.0635 -0.01675 0.12509
v -0.0485 -0.01675 0.12509
v -0.056 -0.01675 0.124840006
v -0.0485 -0.01675 0.124590009
v -0.0635 -0.01675 0.12509
v -0.0635 -0.01675 0.12459
v -0.0485 -0.00175000029 0.12509
v -0.0485 -0.00925 0.124840006
v -0.0485 -0.00175000029 0.124590009
v -0.0485 -0.01675 0.12509
v -0.0485 -0.01675 0.124590009
v -0.0635 -0.00175000029 0.12509
v -0.056 -0.00175000029 0.124840006
v -0.0635 -0.00175000029 0.12459
v -0.0485 -0.00175000029 0.12509
v -0.0485 -0.00175000029 0.124590009
f 1 2 3
f 4 5 6
f 4 6 7
f 5 4 8
f 8 4 7
f 9 10 11
f 9 11 12
f 10 9 13
f 13 9 12
f 14 15 16
f 17 14 16
f 14 18 15
f 18 14 17
f 19 20 21
f 19 21 22
f 20 19 23
f 23 19 22
f 24 25 26
f 24 26 27
f 25 28 26
f 25 29 28
f 29 30 28
f 26 28 31
f 26 31 27
f 29 31 30
f 27 31 29
f 32 33 34
f 32 34 35
f 33 32 36
f 36 32 35
f 37 38 39
f 40 38 37
f 38 41 39
f 38 40 41
f 42 43 44
f 45 43 42
f 43 46 44
f 43 45 46
f 47 48 49
f 50 48 47
f 48 51 49
f 48 50 51
