# ROS coordinates: X forward, Y left, Z up; units are metres.
o mesh
v -0.0224509314 0.00272387266 0.13217
v -0.02230093 0.00287387148 0.13217
v -0.022600932 0.00287387148 0.13217
v -0.022600932 0.00257387385 0.13217
v -0.02230093 0.00257387385 0.13217
v -0.0224509314 0.00272387266 0.121170007
v -0.02230093 0.00257387385 0.121170007
v -0.022600932 0.00257387385 0.121170007
v -0.022600932 0.00287387148 0.121170007
v -0.02230093 0.00287387148 0.121170007
v -0.02214593 0.00272387266 0.12667
v -0.02214593 0.00302887335 0.122056559
v -0.02214593 0.00302887335 0.131283462
v -0.02214593 0.002418872 0.131283462
v -0.02214593 0.002418872 0.122056559
v -0.0224509314 0.00302887335 0.12667
v -0.0227559321 0.00302887335 0.122056559
v -0.0227559321 0.00302887335 0.131283462
v -0.02214593 0.00302887335 0.131283462
v -0.02214593 0.00302887335 0.122056559
v -0.0224509314 0.002496373 0.121613279
v -0.022600932 0.00257387385 0.121170007
v -0.02230093 0.00257387385 0.121170007
v -0.02214593 0.002418872 0.122056559
v -0.0227559321 0.002418872 0.122056559
v -0.0222234316 0.00272387266 0.121613279
v -0.02230093 0.00287387148 0.121170007
v -0.02214593 0.00302887335 0.122056559
v -0.02214593 0.002418872 0.122056559
v -0.02230093 0.00257387385 0.121170007
v -0.0224509314 0.00295137241 0.121613279
v -0.022600932 0.00287387148 0.121170007
v -0.0227559321 0.00302887335 0.122056559
v -0.02214593 0.00302887335 0.122056559
v -0.02230093 0.00287387148 0.121170007
v -0.0227559321 0.00302887335 0.122056559
v -0.0226784311 0.00272387266 0.121613279
v -0.0227559321 0.002418872 0.122056559
v -0.022600932 0.00287387148 0.121170007
v -0.022600932 0.00257387385 0.121170007
v -0.0224509314 0.002418872 0.12667
v -0.02214593 0.002418872 0.131283462
v -0.0227559321 0.002418872 0.131283462
v -0.0227559321 0.002418872 0.122056559
v -0.02214593 0.002418872 0.122056559
v -0.0227559321 0.00272387266 0.12667
v -0.0227559321 0.002418872 0.131283462
v -0.0227559321 0.00302887335 0.131283462
v -0.0227559321 0.00302887335 0.122056559
v -0.0227559321 0.002418872 0.122056559
v -0.0224509314 0.002496373 0.131726727
v -0.0227559321 0.002418872 0.131283462
v -0.02214593 0.002418872 0.131283462
v -0.02230093 0.00257387385 0.13217
v -0.022600932 0.00257387385 0.13217
v -0.0222234316 0.00272387266 0.131726727
v -0.02214593 0.00302887335 0.131283462
v -0.02230093 0.00287387148 0.13217
v -0.02230093 0.00257387385 0.13217
v -0.02214593 0.002418872 0.131283462
v -0.0224509314 0.00295137241 0.131726727
v -0.0227559321 0.00302887335 0.131283462
v -0.022600932 0.00287387148 0.13217
v -0.02230093 0.00287387148 0.13217
v -0.02214593 0.00302887335 0.131283462
v -0.022600932 0.00287387148 0.13217
v -0.0226784311 0.00272387266 0.131726727
v -0.022600932 0.00257387385 0.13217
v -0.0227559321 0.00302887335 0.131283462
v -0.0227559321 0.002418872 0.131283462
f 1 2 3
f 1 3 4
f 2 1 5
f 5 1 4
f 6 7 8
f 6 8 9
f 7 6 10
f 10 6 9
f 11 12 13
f 11 13 14
f 12 11 15
f 15 11 14
f 16 17 18
f 16 18 19
f 17 16 20
f 20 16 19
f 21 22 23
f 21 23 24
f 22 21 25
f 25 21 24
f 26 27 28
f 29 26 28
f 26 30 27
f 30 26 29
f 31 32 33
f 34 31 33
f 31 35 32
f 35 31 34
f 36 37 38
f 39 37 36
f 37 40 38
f 37 39 40
f 41 42 43
f 44 41 43
f 41 45 42
f 45 41 44
f 46 47 48
f 49 46 48
f 46 50 47
f 50 46 49
f 51 52 53
f 51 53 54
f 52 51 55
f 55 51 54
f 56 57 58
f 59 56 58
f 56 60 57
f 60 56 59
f 61 62 63
f 64 61 63
f 61 65 62
f 65 61 64
f 66 67 68
f 69 67 66
f 67 70 68
f 67 69 70
