# ROS coordinates: X forward, Y left, Z up; units are metres.
o mesh
v -0.0448373146 0.0989283845 0.0206587166
v -0.048665002 0.09900199 0.0259280466
v -0.0458480678 0.09894782 0.0197452419
v -0.0468113273 0.0989663452 0.0187496152
v -0.0477177054 0.09898377 0.01767524
v -0.05005516 0.09902872 0.02471322
v -0.04855811 0.09899993 0.0165268965
v -0.0513816178 0.0990542248 0.0233819634
v -0.0493239872 0.09901466 0.0153107224
v -0.05263068 0.0990782455 0.0219387971
v -0.05000756 0.099027805 0.014034126
v -0.0537890345 0.0991005152 0.0203903057
v -0.05060208 0.0990392342 0.0127056632
v -0.05349746 0.09909491 0.0120120291
v -0.05484408 0.0991208 0.0187451169
v -0.05110199 0.09904885 0.0113348495
v -0.0557843968 0.0991388857 0.0170138
v -0.05150315 0.0990565643 0.00993194
v -0.0565999858 0.09915457 0.015208655
v -0.05180288 0.09906232 0.008507678
v -0.057282716 0.0991677 0.013343459
v -0.052000083 0.0990661159 0.00707302149
v -0.0578265041 0.09917815 0.0114331115
v -0.0582275167 0.09918586 0.009493236
v -0.0584842525 0.0991908 0.00753977
v -0.0520951971 0.09906795 0.005638862
v -0.0585975349 0.09919298 0.005588525
v -0.0520901456 0.09906785 0.004215764
v -0.05857042 0.0991924554 0.00365478173
v -0.0584080219 0.09918933 0.00175291859
v -0.0581172444 0.0991837457 -0.000103904866
v -0.0519882552 0.09906589 0.00281372247
v -0.0577065051 0.09917585 -0.00190398749
v -0.0517940745 0.09906216 0.00144195
v -0.05151318 0.09905676 0.000108717941
v -0.05132093 0.109054908 0.000108717941
v -0.05751425 0.109174 -0.00190398749
v -0.05160182 0.10906031 0.00144195
v -0.0517960042 0.109064043 0.00281372247
v -0.0579249933 0.109181896 -0.000103904866
v -0.05189789 0.109066 0.004215764
v -0.05821577 0.109187491 0.00175291859
v -0.0583781675 0.109190613 0.00365478173
v -0.05840528 0.109191135 0.005588525
v -0.0519029424 0.1090661 0.005638862
v -0.058292 0.109188952 0.00753977
v -0.05330521 0.109093063 0.0120120291
v -0.0580352619 0.109184019 0.009493236
v -0.05180783 0.109064274 0.00707302149
v -0.05763425 0.109176308 0.0114331115
v -0.0516106263 0.109060481 0.008507678
v -0.05709046 0.109165847 0.013343459
v -0.0513108969 0.109054714 0.00993194
v -0.0564077348 0.109152719 0.015208655
v -0.05090974 0.109047 0.0113348495
v -0.055592142 0.109137043 0.0170138
v -0.05465183 0.109118961 0.0187451169
v -0.0504098237 0.109037392 0.0127056632
v -0.05359678 0.109098673 0.0203903057
v -0.0498153046 0.109025955 0.014034126
v -0.05243843 0.109076396 0.0219387971
v -0.0491317362 0.109012812 0.0153107224
v -0.051189363 0.109052382 0.0233819634
v -0.0483658575 0.10899809 0.0165268965
v -0.04986291 0.109026872 0.02471322
v -0.04752545 0.10898193 0.01767524
v -0.0484727472 0.109000146 0.0259280466
v -0.0466190763 0.108964495 0.0187496152
v -0.0456558168 0.108945973 0.0197452419
v -0.0446450636 0.108926542 0.0206587166
v -0.0545137152 0.104115374 -0.0008976357
v -0.05132093 0.109054908 0.000108717941
v -0.05151318 0.09905676 0.000108717941
v -0.0577065051 0.09917585 -0.00190398749
v -0.05751425 0.109174 -0.00190398749
v -0.0448373146 0.0989283845 0.0206587166
v -0.0457519442 0.1039469 0.0197452419
v -0.0446450636 0.108926542 0.0206587166
v -0.0458480678 0.09894782 0.0197452419
v -0.0456558168 0.108945973 0.0197452419
v -0.0468113273 0.0989663452 0.0187496152
v -0.0467152 0.103965424 0.0187496152
v -0.0466190763 0.108964495 0.0187496152
v -0.0477177054 0.09898377 0.01767524
v -0.047621578 0.103982851 0.01767524
v -0.04752545 0.10898193 0.01767524
v -0.04855811 0.09899993 0.0165268965
v -0.04846198 0.103999011 0.0165268965
v -0.0483658575 0.10899809 0.0165268965
v -0.0493239872 0.09901466 0.0153107224
v -0.04922786 0.104013741 0.0153107224
v -0.0491317362 0.109012812 0.0153107224
v -0.05000756 0.099027805 0.014034126
v -0.049911432 0.104026884 0.014034126
v -0.0498153046 0.109025955 0.014034126
v -0.05060208 0.0990392342 0.0127056632
v -0.05050595 0.104038313 0.0127056632
v -0.0504098237 0.109037392 0.0127056632
v -0.05110199 0.09904885 0.0113348495
v -0.0510058627 0.104047924 0.0113348495
v -0.05090974 0.109047 0.0113348495
v -0.05150315 0.0990565643 0.00993194
v -0.0514070243 0.104055643 0.00993194
v -0.0513108969 0.109054714 0.00993194
v -0.05180288 0.09906232 0.008507678
v -0.0517067537 0.1040614 0.008507678
v -0.0516106263 0.109060481 0.008507678
v -0.052000083 0.0990661159 0.00707302149
v -0.0519039556 0.104065195 0.00707302149
v -0.05180783 0.109064274 0.00707302149
v -0.0520951971 0.09906795 0.005638862
v -0.05199907 0.104067028 0.005638862
v -0.0519029424 0.1090661 0.005638862
v -0.0520901456 0.09906785 0.004215764
v -0.05199402 0.104066931 0.004215764
v -0.05189789 0.109066 0.004215764
v -0.0519882552 0.09906589 0.00281372247
v -0.0518921278 0.104064971 0.00281372247
v -0.0517960042 0.109064043 0.00281372247
v -0.0517940745 0.09906216 0.00144195
v -0.0516979471 0.104061231 0.00144195
v -0.05160182 0.10906031 0.00144195
v -0.05151318 0.09905676 0.000108717941
v -0.05132093 0.109054908 0.000108717941
v -0.0466550328 0.103964262 0.0232933816
v -0.0484727472 0.109000146 0.0259280466
v -0.048665002 0.09900199 0.0259280466
v -0.0448373146 0.0989283845 0.0206587166
v -0.0446450636 0.108926542 0.0206587166
v -0.0484727472 0.109000146 0.0259280466
v -0.0499590337 0.1040278 0.02471322
v -0.048665002 0.09900199 0.0259280466
v -0.04986291 0.109026872 0.02471322
v -0.05005516 0.09902872 0.02471322
v -0.051189363 0.109052382 0.0233819634
v -0.05128549 0.1040533 0.0233819634
v -0.0513816178 0.0990542248 0.0233819634
v -0.05243843 0.109076396 0.0219387971
v -0.0525345542 0.104077324 0.0219387971
v -0.05263068 0.0990782455 0.0219387971
v -0.05359678 0.109098673 0.0203903057
v -0.0536929071 0.104099594 0.0203903057
v -0.0537890345 0.0991005152 0.0203903057
v -0.05465183 0.109118961 0.0187451169
v -0.054747954 0.104119882 0.0187451169
v -0.05484408 0.0991208 0.0187451169
v -0.055592142 0.109137043 0.0170138
v -0.05568827 0.104137965 0.0170138
v -0.0557843968 0.0991388857 0.0170138
v -0.0564077348 0.109152719 0.015208655
v -0.05650386 0.104153648 0.015208655
v -0.0565999858 0.09915457 0.015208655
v -0.05709046 0.109165847 0.013343459
v -0.05718659 0.104166776 0.013343459
v -0.057282716 0.0991677 0.013343459
v -0.05763425 0.109176308 0.0114331115
v -0.0577303767 0.104177229 0.0114331115
v -0.0578265041 0.09917815 0.0114331115
v -0.0580352619 0.109184019 0.009493236
v -0.05813139 0.10418494 0.009493236
v -0.0582275167 0.09918586 0.009493236
v -0.058292 0.109188952 0.00753977
v -0.0583881252 0.10418988 0.00753977
v -0.0584842525 0.0991908 0.00753977
v -0.05840528 0.109191135 0.005588525
v -0.0585014075 0.104192056 0.005588525
v -0.0585975349 0.09919298 0.005588525
v -0.0583781675 0.109190613 0.00365478173
v -0.05847429 0.104191534 0.00365478173
v -0.05857042 0.0991924554 0.00365478173
v -0.05821577 0.109187491 0.00175291859
v -0.0583118945 0.104188412 0.00175291859
v -0.0584080219 0.09918933 0.00175291859
v -0.0579249933 0.109181896 -0.000103904866
v -0.058021117 0.104182817 -0.000103904866
v -0.0581172444 0.0991837457 -0.000103904866
v -0.05751425 0.109174 -0.00190398749
v -0.0577065051 0.09917585 -0.00190398749
f 1 2 3
f 2 4 3
f 2 5 4
f 2 6 5
f 6 7 5
f 6 8 7
f 8 9 7
f 8 10 9
f 10 11 9
f 10 12 11
f 12 13 11
f 12 14 13
f 14 12 15
f 14 16 13
f 17 14 15
f 14 18 16
f 14 17 19
f 18 14 20
f 14 19 21
f 14 22 20
f 23 14 21
f 14 23 24
f 14 24 25
f 14 26 22
f 26 14 25
f 26 25 27
f 28 26 27
f 29 28 27
f 28 29 30
f 28 30 31
f 32 28 31
f 31 33 32
f 33 34 32
f 33 35 34
f 36 37 38
f 37 39 38
f 37 40 39
f 40 41 39
f 40 42 41
f 42 43 41
f 43 44 41
f 44 45 41
f 44 46 45
f 46 47 45
f 46 48 47
f 45 47 49
f 48 50 47
f 47 51 49
f 50 52 47
f 47 53 51
f 52 54 47
f 53 47 55
f 54 56 47
f 56 57 47
f 47 58 55
f 57 59 47
f 59 58 47
f 59 60 58
f 59 61 60
f 61 62 60
f 61 63 62
f 63 64 62
f 63 65 64
f 65 66 64
f 65 67 66
f 67 68 66
f 67 69 68
f 69 67 70
f 71 72 73
f 71 73 74
f 72 71 75
f 75 71 74
f 76 77 78
f 77 76 79
f 77 80 78
f 77 79 81
f 77 82 80
f 82 77 81
f 82 83 80
f 82 81 84
f 82 85 83
f 85 82 84
f 85 86 83
f 85 84 87
f 85 88 86
f 88 85 87
f 88 89 86
f 88 87 90
f 88 91 89
f 91 88 90
f 91 92 89
f 91 90 93
f 91 94 92
f 94 91 93
f 94 95 92
f 94 93 96
f 94 97 95
f 97 94 96
f 97 98 95
f 97 96 99
f 97 100 98
f 100 97 99
f 100 101 98
f 100 99 102
f 100 103 101
f 103 100 102
f 103 104 101
f 103 102 105
f 103 106 104
f 106 103 105
f 106 107 104
f 106 105 108
f 106 109 107
f 109 106 108
f 109 110 107
f 109 108 111
f 109 112 110
f 112 109 111
f 112 113 110
f 112 111 114
f 112 115 113
f 115 112 114
f 115 116 113
f 115 114 117
f 115 118 116
f 118 115 117
f 118 119 116
f 118 117 120
f 118 121 119
f 121 118 120
f 121 122 119
f 121 120 123
f 121 124 122
f 124 121 123
f 125 126 127
f 125 127 128
f 126 125 129
f 129 125 128
f 130 131 132
f 131 130 133
f 131 134 132
f 131 133 135
f 131 136 134
f 136 131 135
f 136 137 134
f 136 135 138
f 136 139 137
f 139 136 138
f 139 140 137
f 139 138 141
f 139 142 140
f 142 139 141
f 142 143 140
f 142 141 144
f 142 145 143
f 145 142 144
f 145 146 143
f 145 144 147
f 145 148 146
f 148 145 147
f 148 149 146
f 148 147 150
f 148 151 149
f 151 148 150
f 151 152 149
f 151 150 153
f 151 154 152
f 154 151 153
f 154 155 152
f 154 153 156
f 154 157 155
f 157 154 156
f 157 158 155
f 157 156 159
f 157 160 158
f 160 157 159
f 160 161 158
f 160 159 162
f 160 163 161
f 163 160 162
f 163 164 161
f 163 162 165
f 163 166 164
f 166 163 165
f 166 167 164
f 166 165 168
f 166 169 167
f 169 166 168
f 169 170 167
f 169 168 171
f 169 172 170
f 172 169 171
f 172 173 170
f 172 171 174
f 172 175 173
f 175 172 174
f 175 176 173
f 175 174 177
f 175 178 176
f 178 175 177
