# ROS coordinates: X forward, Y left, Z up; units are metres.
o mesh
v 0.1457365 -0.035 0.1894042
v 0.145119622 -0.0345000029 0.188130453
v 0.145619631 -0.035 0.188130453
v 0.145529017 -0.03475 0.18964234
v 0.145244837 -0.0345000029 0.1894952
v 0.145738959 -0.03475 0.190414965
v 0.146111116 -0.035 0.190707132
v 0.145646214 -0.0345000029 0.190891176
v 0.146041825 -0.03475 0.191179231
v 0.146760657 -0.035 0.191960931
v 0.146342158 -0.0345000029 0.192234546
v 0.146438062 -0.03475 0.1919187
v 0.146924287 -0.03475 0.192616612
v 0.147669882 -0.035 0.193080217
v 0.147316322 -0.0345000029 0.193433762
v 0.1474931 -0.03475 0.193256974
v 0.148133472 -0.03475 0.193825811
v 0.148789153 -0.035 0.193989441
v 0.148515552 -0.0345000029 0.194407925
v 0.148831367 -0.03475 0.194312036
v 0.149570853 -0.03475 0.194708258
v 0.150042951 -0.035 0.194638982
v 0.149858922 -0.0345000029 0.195103884
v 0.150335118 -0.03475 0.195011124
v 0.1513459 -0.035 0.1950136
v 0.1512549 -0.0345000029 0.195505247
v 0.151107743 -0.03475 0.195221066
v 0.15261963 -0.03475 0.195380464
v 0.15261963 -0.035 0.195130467
v 0.15261963 -0.0345000029 0.195630476
v 0.153893366 -0.035 0.1950136
v 0.153984353 -0.0345000029 0.195505247
v 0.1541315 -0.03475 0.195221066
v 0.1551963 -0.035 0.194638982
v 0.155380338 -0.0345000029 0.195103884
v 0.155288309 -0.03475 0.194871426
v 0.156407878 -0.03475 0.194312036
v 0.156450108 -0.035 0.193989441
v 0.1567237 -0.0345000029 0.194407925
v 0.1574341 -0.03475 0.193551108
v 0.157569379 -0.035 0.193080217
v 0.157922938 -0.0345000029 0.193433762
v 0.158314973 -0.03475 0.192616612
v 0.1584786 -0.035 0.191960931
v 0.1588971 -0.0345000029 0.192234546
v 0.159010872 -0.03475 0.191553116
v 0.159128144 -0.035 0.190707132
v 0.159593046 -0.0345000029 0.190891176
v 0.1595003 -0.03475 0.190414965
v 0.15950276 -0.035 0.1894042
v 0.159994423 -0.0345000029 0.1894952
v 0.159781456 -0.03475 0.189257711
v 0.160119653 -0.0345000029 0.188130453
v 0.159619614 -0.035 0.188130453
v 0.15950276 -0.035 0.186856717
v 0.160119653 -0.0345000029 0.188130453
v 0.159710228 -0.03475 0.186618581
v 0.159994423 -0.0345000029 0.18676573
v 0.1595003 -0.03475 0.185845956
v 0.159128144 -0.035 0.1855538
v 0.159593046 -0.0345000029 0.18536976
v 0.159197435 -0.03475 0.185081691
v 0.1584786 -0.035 0.1843
v 0.1588971 -0.0345000029 0.184026375
v 0.1588012 -0.03475 0.184342235
v 0.158314973 -0.03475 0.1836443
v 0.157569379 -0.035 0.18318072
v 0.157922938 -0.0345000029 0.182827145
v 0.157746151 -0.03475 0.183003932
v 0.157105789 -0.03475 0.182435125
v 0.156450108 -0.035 0.182271481
v 0.1567237 -0.0345000029 0.181853
v 0.156407878 -0.03475 0.1819489
v 0.1556684 -0.03475 0.181552678
v 0.1551963 -0.035 0.181621939
v 0.155380338 -0.0345000029 0.181157053
v 0.154904127 -0.03475 0.1812498
v 0.153893366 -0.035 0.181247309
v 0.153984353 -0.0345000029 0.18075569
v 0.1541315 -0.03475 0.181039855
v 0.15261963 -0.03475 0.180880457
v 0.15261963 -0.035 0.181130454
v 0.15261963 -0.0345000029 0.18063046
v 0.1513459 -0.035 0.181247309
v 0.1512549 -0.0345000029 0.18075569
v 0.151107743 -0.03475 0.181039855
v 0.150042951 -0.035 0.181621939
v 0.149858922 -0.0345000029 0.181157053
v 0.149950951 -0.03475 0.181389481
v 0.148831367 -0.03475 0.1819489
v 0.148789153 -0.035 0.182271481
v 0.148515552 -0.0345000029 0.181853
v 0.147805169 -0.03475 0.182709828
v 0.147669882 -0.035 0.18318072
v 0.147316322 -0.0345000029 0.182827145
v 0.146924287 -0.03475 0.1836443
v 0.146760657 -0.035 0.1843
v 0.146342158 -0.0345000029 0.184026375
v 0.1462284 -0.03475 0.1847078
v 0.146111116 -0.035 0.1855538
v 0.145646214 -0.0345000029 0.18536976
v 0.145738959 -0.03475 0.185845956
v 0.1457365 -0.035 0.186856717
v 0.145244837 -0.0345000029 0.18676573
v 0.1454578 -0.03475 0.187003225
v 0.145619631 -0.035 0.188130453
v 0.145119622 -0.0345000029 0.188130453
v 0.145244837 -0.0345000029 0.1894952
v 0.145119622 -0.00550000044 0.188130453
v 0.145119622 -0.0345000029 0.188130453
v 0.145284519 -0.0200000014 0.189694464
v 0.145244837 -0.00550000044 0.1894952
v 0.1455017 -0.0200000014 0.190493748
v 0.145646214 -0.0345000029 0.190891176
v 0.145646214 -0.00550000044 0.190891176
v 0.145815 -0.0200000014 0.191284359
v 0.146342158 -0.0345000029 0.192234546
v 0.146342158 -0.00550000044 0.192234546
v 0.146224916 -0.0200000014 0.192049325
v 0.1467279 -0.0200000014 0.192771316
v 0.147316322 -0.0345000029 0.193433762
v 0.147316322 -0.00550000044 0.193433762
v 0.147316322 -0.0200000014 0.193433762
v 0.147978783 -0.0200000014 0.1940222
v 0.148515552 -0.0345000029 0.194407925
v 0.148515552 -0.00550000044 0.194407925
v 0.148700744 -0.0200000014 0.194525182
v 0.14946574 -0.0200000014 0.194935083
v 0.149858922 -0.0345000029 0.195103884
v 0.149858922 -0.00550000044 0.195103884
v 0.150256351 -0.0200000014 0.1952484
v 0.1512549 -0.0345000029 0.195505247
v 0.1512549 -0.00550000044 0.195505247
v 0.151055619 -0.0200000014 0.195465565
v 0.15261963 -0.0200000014 0.195630476
v 0.15261963 -0.0345000029 0.195630476
v 0.15261963 -0.00550000044 0.195630476
v 0.153984353 -0.0345000029 0.195505247
v 0.153984353 -0.00550000044 0.195505247
v 0.154183641 -0.0200000014 0.195465565
v 0.155380338 -0.0345000029 0.195103884
v 0.155380338 -0.00550000044 0.195103884
v 0.155380338 -0.0200000014 0.195103884
v 0.1565385 -0.0200000014 0.194525182
v 0.1567237 -0.0345000029 0.194407925
v 0.1567237 -0.00550000044 0.194407925
v 0.15760012 -0.0200000014 0.193738028
v 0.157922938 -0.0345000029 0.193433762
v 0.157922938 -0.00550000044 0.193433762
v 0.15851137 -0.0200000014 0.192771316
v 0.1588971 -0.0345000029 0.192234546
v 0.1588971 -0.00550000044 0.192234546
v 0.15923126 -0.0200000014 0.191671163
v 0.159593046 -0.0345000029 0.190891176
v 0.159593046 -0.00550000044 0.190891176
v 0.159737557 -0.0200000014 0.190493748
v 0.159994423 -0.0345000029 0.1894952
v 0.159994423 -0.00550000044 0.1894952
v 0.160028428 -0.0200000014 0.189296588
v 0.160119653 -0.0345000029 0.188130453
v 0.160119653 -0.00550000044 0.188130453
v 0.159994423 -0.0345000029 0.18676573
v 0.159954742 -0.0200000014 0.186566442
v 0.159994423 -0.00550000044 0.18676573
v 0.159737557 -0.0200000014 0.185767189
v 0.159593046 -0.0345000029 0.18536976
v 0.159593046 -0.00550000044 0.18536976
v 0.15942426 -0.0200000014 0.184976578
v 0.1588971 -0.0345000029 0.184026375
v 0.1588971 -0.00550000044 0.184026375
v 0.159014344 -0.0200000014 0.184211582
v 0.15851137 -0.0200000014 0.183489621
v 0.157922938 -0.0345000029 0.182827145
v 0.157922938 -0.00550000044 0.182827145
v 0.157922938 -0.0200000014 0.182827145
v 0.157260478 -0.0200000014 0.182238743
v 0.1567237 -0.0345000029 0.181853
v 0.1567237 -0.00550000044 0.181853
v 0.1565385 -0.0200000014 0.181735754
v 0.155773535 -0.0200000014 0.181325838
v 0.155380338 -0.0345000029 0.181157053
v 0.155380338 -0.00550000044 0.181157053
v 0.15498291 -0.0200000014 0.181012526
v 0.153984353 -0.0345000029 0.18075569
v 0.153984353 -0.00550000044 0.18075569
v 0.154183641 -0.0200000014 0.180795357
v 0.15261963 -0.0200000014 0.18063046
v 0.15261963 -0.0345000029 0.18063046
v 0.15261963 -0.00550000044 0.18063046
v 0.1512549 -0.0345000029 0.18075569
v 0.1512549 -0.00550000044 0.18075569
v 0.151055619 -0.0200000014 0.180795357
v 0.149858922 -0.0345000029 0.181157053
v 0.149858922 -0.00550000044 0.181157053
v 0.149858922 -0.0200000014 0.181157053
v 0.148700744 -0.0200000014 0.181735754
v 0.148515552 -0.0345000029 0.181853
v 0.148515552 -0.00550000044 0.181853
v 0.147639155 -0.0200000014 0.1825229
v 0.147316322 -0.0345000029 0.182827145
v 0.147316322 -0.00550000044 0.182827145
v 0.1467279 -0.0200000014 0.183489621
v 0.146342158 -0.0345000029 0.184026375
v 0.146342158 -0.00550000044 0.184026375
v 0.146008 -0.0200000014 0.184589773
v 0.145646214 -0.0345000029 0.18536976
v 0.145646214 -0.00550000044 0.18536976
v 0.1455017 -0.0200000014 0.185767189
v 0.145244837 -0.0345000029 0.18676573
v 0.145244837 -0.00550000044 0.18676573
v 0.145210832 -0.0200000014 0.186964348
v 0.145119622 -0.0345000029 0.188130453
v 0.145119622 -0.00550000044 0.188130453
v 0.1457365 -0.00500000035 0.186856717
v 0.145119622 -0.00550000044 0.188130453
v 0.145619631 -0.00500000035 0.188130453
v 0.145529017 -0.00525 0.186618581
v 0.145244837 -0.00550000044 0.18676573
v 0.145738959 -0.00525 0.185845956
v 0.146111116 -0.00500000035 0.1855538
v 0.145646214 -0.00550000044 0.18536976
v 0.146041825 -0.00525 0.185081691
v 0.146760657 -0.00500000035 0.1843
v 0.146342158 -0.00550000044 0.184026375
v 0.146438062 -0.00525 0.184342235
v 0.146924287 -0.00525 0.1836443
v 0.147669882 -0.00500000035 0.18318072
v 0.147316322 -0.00550000044 0.182827145
v 0.1474931 -0.00525 0.183003932
v 0.148133472 -0.00525 0.182435125
v 0.148789153 -0.00500000035 0.182271481
v 0.148515552 -0.00550000044 0.181853
v 0.148831367 -0.00525 0.1819489
v 0.149570853 -0.00525 0.181552678
v 0.150042951 -0.00500000035 0.181621939
v 0.149858922 -0.00550000044 0.181157053
v 0.150335118 -0.00525 0.1812498
v 0.1513459 -0.00500000035 0.181247309
v 0.1512549 -0.00550000044 0.18075569
v 0.151107743 -0.00525 0.181039855
v 0.15261963 -0.00525 0.180880457
v 0.15261963 -0.00500000035 0.181130454
v 0.15261963 -0.00550000044 0.18063046
v 0.153893366 -0.00500000035 0.181247309
v 0.153984353 -0.00550000044 0.18075569
v 0.1541315 -0.00525 0.181039855
v 0.1551963 -0.00500000035 0.181621939
v 0.155380338 -0.00550000044 0.181157053
v 0.155288309 -0.00525 0.181389481
v 0.156407878 -0.00525 0.1819489
v 0.156450108 -0.00500000035 0.182271481
v 0.1567237 -0.00550000044 0.181853
v 0.1574341 -0.00525 0.182709828
v 0.157569379 -0.00500000035 0.18318072
v 0.157922938 -0.00550000044 0.182827145
v 0.158314973 -0.00525 0.1836443
v 0.1584786 -0.00500000035 0.1843
v 0.1588971 -0.00550000044 0.184026375
v 0.159010872 -0.00525 0.1847078
v 0.159128144 -0.00500000035 0.1855538
v 0.159593046 -0.00550000044 0.18536976
v 0.1595003 -0.00525 0.185845956
v 0.15950276 -0.00500000035 0.186856717
v 0.159994423 -0.00550000044 0.18676573
v 0.159781456 -0.00525 0.187003225
v 0.160119653 -0.00550000044 0.188130453
v 0.159619614 -0.00500000035 0.188130453
v 0.15950276 -0.00500000035 0.1894042
v 0.160119653 -0.00550000044 0.188130453
v 0.159710228 -0.00525 0.18964234
v 0.159994423 -0.00550000044 0.1894952
v 0.1595003 -0.00525 0.190414965
v 0.159128144 -0.00500000035 0.190707132
v 0.159593046 -0.00550000044 0.190891176
v 0.159197435 -0.00525 0.191179231
v 0.1584786 -0.00500000035 0.191960931
v 0.1588971 -0.00550000044 0.192234546
v 0.1588012 -0.00525 0.1919187
v 0.158314973 -0.00525 0.192616612
v 0.157569379 -0.00500000035 0.193080217
v 0.157922938 -0.00550000044 0.193433762
v 0.157746151 -0.00525 0.193256974
v 0.157105789 -0.00525 0.193825811
v 0.156450108 -0.00500000035 0.193989441
v 0.1567237 -0.00550000044 0.194407925
v 0.156407878 -0.00525 0.194312036
v 0.1556684 -0.00525 0.194708258
v 0.1551963 -0.00500000035 0.194638982
v 0.155380338 -0.00550000044 0.195103884
v 0.154904127 -0.00525 0.195011124
v 0.153893366 -0.00500000035 0.1950136
v 0.153984353 -0.00550000044 0.195505247
v 0.1541315 -0.00525 0.195221066
v 0.15261963 -0.00525 0.195380464
v 0.15261963 -0.00500000035 0.195130467
v 0.15261963 -0.00550000044 0.195630476
v 0.1513459 -0.00500000035 0.1950136
v 0.1512549 -0.00550000044 0.195505247
v 0.151107743 -0.00525 0.195221066
v 0.150042951 -0.00500000035 0.194638982
v 0.149858922 -0.00550000044 0.195103884
v 0.149950951 -0.00525 0.194871426
v 0.148831367 -0.00525 0.194312036
v 0.148789153 -0.00500000035 0.193989441
v 0.148515552 -0.00550000044 0.194407925
v 0.147805169 -0.00525 0.193551108
v 0.147669882 -0.00500000035 0.193080217
v 0.147316322 -0.00550000044 0.193433762
v 0.146924287 -0.00525 0.192616612
v 0.146760657 -0.00500000035 0.191960931
v 0.146342158 -0.00550000044 0.192234546
v 0.1462284 -0.00525 0.191553116
v 0.146111116 -0.00500000035 0.190707132
v 0.145646214 -0.00550000044 0.190891176
v 0.145738959 -0.00525 0.190414965
v 0.1457365 -0.00500000035 0.1894042
v 0.145244837 -0.00550000044 0.1894952
v 0.1454578 -0.00525 0.189257711
v 0.145619631 -0.00500000035 0.188130453
v 0.145119622 -0.00550000044 0.188130453
v 0.149769619 0.00500000035 0.188130453
v 0.149769619 -0.00500000035 0.188130453
v 0.1498172 -0.00500000035 0.188649058
v 0.149832278 -2.93022876E-17 0.188724786
v 0.1498172 0.00500000035 0.188649058
v 0.149969727 -0.00500000035 0.18917951
v 0.149969727 0.00500000035 0.18917951
v 0.150033861 -3.02632762E-17 0.189328939
v 0.1502342 -0.00500000035 0.189690009
v 0.1502342 0.00500000035 0.189690009
v 0.15038076 -2.981188E-17 0.189893976
v 0.150604367 -0.00500000035 0.1901457
v 0.150604367 0.00500000035 0.1901457
v 0.150856107 -2.981188E-17 0.190369338
v 0.151060089 -0.00500000035 0.1905159
v 0.151060089 0.00500000035 0.1905159
v 0.151421145 -2.90023055E-17 0.190716222
v 0.151570559 -0.00500000035 0.190780371
v 0.151570559 0.00500000035 0.190780371
v 0.152025312 -3.04983E-17 0.19091782
v 0.15210104 -0.00500000035 0.1909329
v 0.15261963 -2.99760229E-17 0.190980464
v 0.15210104 0.00500000035 0.1909329
v 0.15261963 -0.00500000035 0.190980464
v 0.15261963 0.00500000035 0.190980464
v 0.15313822 -0.00500000035 0.1909329
v 0.15313822 0.00500000035 0.1909329
v 0.153213948 -2.99002928E-17 0.19091782
v 0.1536687 -0.00500000035 0.190780371
v 0.1536687 0.00500000035 0.190780371
v 0.1536687 -2.993305E-17 0.190780371
v 0.154108793 -2.88616782E-17 0.19056046
v 0.154179171 -0.00500000035 0.1905159
v 0.154179171 0.00500000035 0.1905159
v 0.154512212 -2.9890102E-17 0.190261334
v 0.154634878 -0.00500000035 0.1901457
v 0.154634878 0.00500000035 0.1901457
v 0.154858485 -2.981188E-17 0.189893976
v 0.155005068 -0.00500000035 0.189690009
v 0.155005068 0.00500000035 0.189690009
v 0.15513204 -3.05484451E-17 0.189475924
v 0.155269518 -0.00500000035 0.18917951
v 0.155269518 0.00500000035 0.18917951
v 0.155324444 -2.956086E-17 0.1890285
v 0.155422047 -0.00500000035 0.188649058
v 0.155422047 0.00500000035 0.188649058
v 0.155434966 -2.999135E-17 0.188573584
v 0.155469626 -0.00500000035 0.188130453
v 0.155469626 0.00500000035 0.188130453
v 0.155422047 -0.00500000035 0.187611878
v 0.155406967 -3.04983E-17 0.18753615
v 0.155422047 0.00500000035 0.187611878
v 0.155269518 -0.00500000035 0.1870814
v 0.155269518 0.00500000035 0.1870814
v 0.155205384 -3.02632762E-17 0.186931968
v 0.155005068 -0.00500000035 0.186570913
v 0.155005068 0.00500000035 0.186570913
v 0.154858485 -2.981188E-17 0.186366946
v 0.154634878 -0.00500000035 0.18611522
v 0.154634878 0.00500000035 0.18611522
v 0.154383153 -2.981188E-17 0.1858916
v 0.154179171 -0.00500000035 0.185745031
v 0.154179171 0.00500000035 0.185745031
v 0.153818116 -3.02632762E-17 0.185544714
v 0.1536687 -0.00500000035 0.185480565
v 0.1536687 0.00500000035 0.185480565
v 0.153213948 -3.04983E-17 0.185343117
v 0.15313822 -0.00500000035 0.185328037
v 0.15261963 -2.99760229E-17 0.185280457
v 0.15313822 0.00500000035 0.185328037
v 0.15261963 -0.00500000035 0.185280457
v 0.15261963 0.00500000035 0.185280457
v 0.15210104 -0.00500000035 0.185328037
v 0.15210104 0.00500000035 0.185328037
v 0.152025312 -3.04983E-17 0.185343117
v 0.151570559 -0.00500000035 0.185480565
v 0.151570559 0.00500000035 0.185480565
v 0.151570559 -2.868584E-17 0.185480565
v 0.151130453 -3.014442E-17 0.185700476
v 0.151060089 -0.00500000035 0.185745031
v 0.151060089 0.00500000035 0.185745031
v 0.150727049 -2.9890102E-17 0.185999587
v 0.150604367 -0.00500000035 0.18611522
v 0.150604367 0.00500000035 0.18611522
v 0.15038076 -2.981188E-17 0.186366946
v 0.1502342 -0.00500000035 0.186570913
v 0.1502342 0.00500000035 0.186570913
v 0.1501072 -3.05484451E-17 0.186785
v 0.149969727 -0.00500000035 0.1870814
v 0.149969727 0.00500000035 0.1870814
v 0.149914816 -3.01767134E-17 0.18723242
v 0.1498172 -0.00500000035 0.187611878
v 0.1498172 0.00500000035 0.187611878
v 0.1498043 -2.999135E-17 0.187687352
v 0.149769619 -0.00500000035 0.188130453
v 0.149769619 0.00500000035 0.188130453
v 0.151269615 -0.035 0.188130453
v 0.151269615 0.00500000035 0.188130453
v 0.151292175 0.00500000035 0.1883761
v 0.151299313 -0.0150000006 0.188412
v 0.151292175 -0.035 0.1883761
v 0.151364416 0.00500000035 0.188627392
v 0.151364416 -0.035 0.188627392
v 0.151394784 -0.0150000006 0.188698173
v 0.15148969 0.00500000035 0.188869208
v 0.15148969 -0.035 0.188869208
v 0.151559129 -0.0150000006 0.188965827
v 0.151665032 0.00500000035 0.189085066
v 0.151665032 -0.035 0.189085066
v 0.151784271 -0.0150000006 0.189190969
v 0.15188089 0.00500000035 0.189260408
v 0.15188089 -0.035 0.189260408
v 0.152051926 -0.0150000006 0.1893553
v 0.1521227 0.00500000035 0.189385682
v 0.1521227 -0.035 0.189385682
v 0.1523381 -0.0150000006 0.1894508
v 0.15237397 0.00500000035 0.189457923
v 0.15261963 -0.0150000006 0.189480469
v 0.15237397 -0.035 0.189457923
v 0.15261963 0.00500000035 0.189480469
v 0.15261963 -0.035 0.189480469
v 0.152865276 0.00500000035 0.189457923
v 0.152865276 -0.035 0.189457923
v 0.152901143 -0.0150000006 0.1894508
v 0.153116554 0.00500000035 0.189385682
v 0.153116554 -0.035 0.189385682
v 0.153116554 -0.0150000006 0.189385682
v 0.153325036 -0.0150000006 0.189281523
v 0.15335837 0.00500000035 0.189260408
v 0.15335837 -0.035 0.189260408
v 0.153516114 -0.0150000006 0.189139828
v 0.153574228 0.00500000035 0.189085066
v 0.153574228 -0.035 0.189085066
v 0.153680146 -0.0150000006 0.188965827
v 0.15374957 0.00500000035 0.188869208
v 0.15374957 -0.035 0.188869208
v 0.153809726 -0.0150000006 0.188767776
v 0.153874844 0.00500000035 0.188627392
v 0.153874844 -0.035 0.188627392
v 0.153900862 -0.0150000006 0.188555866
v 0.153947085 0.00500000035 0.1883761
v 0.153947085 -0.035 0.1883761
v 0.15395321 -0.0150000006 0.188340366
v 0.153969631 0.00500000035 0.188130453
v 0.153969631 -0.035 0.188130453
v 0.153947085 0.00500000035 0.187884808
v 0.153939947 -0.0150000006 0.18784894
v 0.153947085 -0.035 0.187884808
v 0.153874844 0.00500000035 0.187633544
v 0.153874844 -0.035 0.187633544
v 0.153844461 -0.0150000006 0.187562764
v 0.15374957 0.00500000035 0.187391728
v 0.15374957 -0.035 0.187391728
v 0.153680146 -0.0150000006 0.1872951
v 0.153574228 0.00500000035 0.18717587
v 0.153574228 -0.035 0.18717587
v 0.153454974 -0.0150000006 0.187069952
v 0.15335837 0.00500000035 0.187000513
v 0.15335837 -0.035 0.187000513
v 0.153187335 -0.0150000006 0.186905622
v 0.153116554 0.00500000035 0.186875254
v 0.153116554 -0.035 0.186875254
v 0.152901143 -0.0150000006 0.186810136
v 0.152865276 0.00500000035 0.186803013
v 0.15261963 -0.0150000006 0.186780468
v 0.152865276 -0.035 0.186803013
v 0.15261963 0.00500000035 0.186780468
v 0.15261963 -0.035 0.186780468
v 0.15237397 0.00500000035 0.186803013
v 0.15237397 -0.035 0.186803013
v 0.1523381 -0.0150000006 0.186810136
v 0.1521227 0.00500000035 0.186875254
v 0.1521227 -0.035 0.186875254
v 0.1521227 -0.0150000006 0.186875254
v 0.151914224 -0.0150000006 0.186979413
v 0.15188089 0.00500000035 0.187000513
v 0.15188089 -0.035 0.187000513
v 0.151723146 -0.0150000006 0.1871211
v 0.151665032 0.00500000035 0.18717587
v 0.151665032 -0.035 0.18717587
v 0.151559129 -0.0150000006 0.1872951
v 0.15148969 0.00500000035 0.187391728
v 0.15148969 -0.035 0.187391728
v 0.151429534 -0.0150000006 0.187493131
v 0.151364416 0.00500000035 0.187633544
v 0.151364416 -0.035 0.187633544
v 0.1513384 -0.0150000006 0.18770507
v 0.151292175 0.00500000035 0.187884808
v 0.151292175 -0.035 0.187884808
v 0.151286051 -0.0150000006 0.187920555
v 0.151269615 0.00500000035 0.188130453
v 0.151269615 -0.035 0.188130453
v 0.15261963 0.00500000035 0.189480469
v 0.15261963 0.00500000035 0.190980464
v 0.15313822 0.00500000035 0.1909329
v 0.15210104 0.00500000035 0.1909329
v 0.152865276 0.00500000035 0.189457923
v 0.15237397 0.00500000035 0.189457923
v 0.1536687 0.00500000035 0.190780371
v 0.151570559 0.00500000035 0.190780371
v 0.153116554 0.00500000035 0.189385682
v 0.1521227 0.00500000035 0.189385682
v 0.154179171 0.00500000035 0.1905159
v 0.151060089 0.00500000035 0.1905159
v 0.15335837 0.00500000035 0.189260408
v 0.15188089 0.00500000035 0.189260408
v 0.154634878 0.00500000035 0.1901457
v 0.150604367 0.00500000035 0.1901457
v 0.153574228 0.00500000035 0.189085066
v 0.151665032 0.00500000035 0.189085066
v 0.155005068 0.00500000035 0.189690009
v 0.1502342 0.00500000035 0.189690009
v 0.15374957 0.00500000035 0.188869208
v 0.15148969 0.00500000035 0.188869208
v 0.155269518 0.00500000035 0.18917951
v 0.149969727 0.00500000035 0.18917951
v 0.153874844 0.00500000035 0.188627392
v 0.151364416 0.00500000035 0.188627392
v 0.155422047 0.00500000035 0.188649058
v 0.1498172 0.00500000035 0.188649058
v 0.153947085 0.00500000035 0.1883761
v 0.151292175 0.00500000035 0.1883761
v 0.155469626 0.00500000035 0.188130453
v 0.153969631 0.00500000035 0.188130453
v 0.149769619 0.00500000035 0.188130453
v 0.151269615 0.00500000035 0.188130453
v 0.151292175 0.00500000035 0.187884808
v 0.1498172 0.00500000035 0.187611878
v 0.151364416 0.00500000035 0.187633544
v 0.149969727 0.00500000035 0.1870814
v 0.15148969 0.00500000035 0.187391728
v 0.1502342 0.00500000035 0.186570913
v 0.151665032 0.00500000035 0.18717587
v 0.150604367 0.00500000035 0.18611522
v 0.15188089 0.00500000035 0.187000513
v 0.151060089 0.00500000035 0.185745031
v 0.1521227 0.00500000035 0.186875254
v 0.151570559 0.00500000035 0.185480565
v 0.15237397 0.00500000035 0.186803013
v 0.15210104 0.00500000035 0.185328037
v 0.15261963 0.00500000035 0.185280457
v 0.15261963 0.00500000035 0.186780468
v 0.15313822 0.00500000035 0.185328037
v 0.152865276 0.00500000035 0.186803013
v 0.1536687 0.00500000035 0.185480565
v 0.153116554 0.00500000035 0.186875254
v 0.154179171 0.00500000035 0.185745031
v 0.15335837 0.00500000035 0.187000513
v 0.154634878 0.00500000035 0.18611522
v 0.153574228 0.00500000035 0.18717587
v 0.155005068 0.00500000035 0.186570913
v 0.15374957 0.00500000035 0.187391728
v 0.155269518 0.00500000035 0.1870814
v 0.153874844 0.00500000035 0.187633544
v 0.155422047 0.00500000035 0.187611878
v 0.153947085 0.00500000035 0.187884808
v 0.15210104 -0.00500000035 0.185328037
v 0.1513459 -0.00500000035 0.181247309
v 0.150042951 -0.00500000035 0.181621939
v 0.15261963 -0.00500000035 0.181130454
v 0.151570559 -0.00500000035 0.185480565
v 0.15261963 -0.00500000035 0.185280457
v 0.148789153 -0.00500000035 0.182271481
v 0.153893366 -0.00500000035 0.181247309
v 0.151060089 -0.00500000035 0.185745031
v 0.15313822 -0.00500000035 0.185328037
v 0.147669882 -0.00500000035 0.18318072
v 0.1551963 -0.00500000035 0.181621939
v 0.150604367 -0.00500000035 0.18611522
v 0.1536687 -0.00500000035 0.185480565
v 0.146760657 -0.00500000035 0.1843
v 0.156450108 -0.00500000035 0.182271481
v 0.1502342 -0.00500000035 0.186570913
v 0.154179171 -0.00500000035 0.185745031
v 0.146111116 -0.00500000035 0.1855538
v 0.157569379 -0.00500000035 0.18318072
v 0.149969727 -0.00500000035 0.1870814
v 0.154634878 -0.00500000035 0.18611522
v 0.1457365 -0.00500000035 0.186856717
v 0.1584786 -0.00500000035 0.1843
v 0.1498172 -0.00500000035 0.187611878
v 0.155005068 -0.00500000035 0.186570913
v 0.159128144 -0.00500000035 0.1855538
v 0.155269518 -0.00500000035 0.1870814
v 0.145619631 -0.00500000035 0.188130453
v 0.149769619 -0.00500000035 0.188130453
v 0.1498172 -0.00500000035 0.188649058
v 0.1457365 -0.00500000035 0.1894042
v 0.149969727 -0.00500000035 0.18917951
v 0.146111116 -0.00500000035 0.190707132
v 0.1502342 -0.00500000035 0.189690009
v 0.146760657 -0.00500000035 0.191960931
v 0.150604367 -0.00500000035 0.1901457
v 0.147669882 -0.00500000035 0.193080217
v 0.151060089 -0.00500000035 0.1905159
v 0.148789153 -0.00500000035 0.193989441
v 0.151570559 -0.00500000035 0.190780371
v 0.150042951 -0.00500000035 0.194638982
v 0.15210104 -0.00500000035 0.1909329
v 0.1513459 -0.00500000035 0.1950136
v 0.15261963 -0.00500000035 0.190980464
v 0.15261963 -0.00500000035 0.195130467
v 0.153893366 -0.00500000035 0.1950136
v 0.15313822 -0.00500000035 0.1909329
v 0.1551963 -0.00500000035 0.194638982
v 0.1536687 -0.00500000035 0.190780371
v 0.156450108 -0.00500000035 0.193989441
v 0.154179171 -0.00500000035 0.1905159
v 0.157569379 -0.00500000035 0.193080217
v 0.154634878 -0.00500000035 0.1901457
v 0.1584786 -0.00500000035 0.191960931
v 0.155005068 -0.00500000035 0.189690009
v 0.159128144 -0.00500000035 0.190707132
v 0.155269518 -0.00500000035 0.18917951
v 0.15950276 -0.00500000035 0.1894042
v 0.155422047 -0.00500000035 0.188649058
v 0.159619614 -0.00500000035 0.188130453
v 0.155469626 -0.00500000035 0.188130453
v 0.15950276 -0.00500000035 0.186856717
v 0.155422047 -0.00500000035 0.187611878
v 0.15261963 -0.035 0.189480469
v 0.15261963 -0.035 0.195130467
v 0.1513459 -0.035 0.1950136
v 0.153893366 -0.035 0.1950136
v 0.15237397 -0.035 0.189457923
v 0.152865276 -0.035 0.189457923
v 0.150042951 -0.035 0.194638982
v 0.1551963 -0.035 0.194638982
v 0.1521227 -0.035 0.189385682
v 0.153116554 -0.035 0.189385682
v 0.148789153 -0.035 0.193989441
v 0.156450108 -0.035 0.193989441
v 0.15188089 -0.035 0.189260408
v 0.15335837 -0.035 0.189260408
v 0.147669882 -0.035 0.193080217
v 0.157569379 -0.035 0.193080217
v 0.151665032 -0.035 0.189085066
v 0.153574228 -0.035 0.189085066
v 0.146760657 -0.035 0.191960931
v 0.1584786 -0.035 0.191960931
v 0.15148969 -0.035 0.188869208
v 0.15374957 -0.035 0.188869208
v 0.146111116 -0.035 0.190707132
v 0.159128144 -0.035 0.190707132
v 0.151364416 -0.035 0.188627392
v 0.153874844 -0.035 0.188627392
v 0.1457365 -0.035 0.1894042
v 0.15950276 -0.035 0.1894042
v 0.151292175 -0.035 0.1883761
v 0.153947085 -0.035 0.1883761
v 0.145619631 -0.035 0.188130453
v 0.151269615 -0.035 0.188130453
v 0.159619614 -0.035 0.188130453
v 0.153969631 -0.035 0.188130453
v 0.153947085 -0.035 0.187884808
v 0.15950276 -0.035 0.186856717
v 0.153874844 -0.035 0.187633544
v 0.159128144 -0.035 0.1855538
v 0.15374957 -0.035 0.187391728
v 0.1584786 -0.035 0.1843
v 0.153574228 -0.035 0.18717587
v 0.157569379 -0.035 0.18318072
v 0.15335837 -0.035 0.187000513
v 0.156450108 -0.035 0.182271481
v 0.153116554 -0.035 0.186875254
v 0.1551963 -0.035 0.181621939
v 0.152865276 -0.035 0.186803013
v 0.153893366 -0.035 0.181247309
v 0.15261963 -0.035 0.181130454
v 0.15261963 -0.035 0.186780468
v 0.1513459 -0.035 0.181247309
v 0.15237397 -0.035 0.186803013
v 0.150042951 -0.035 0.181621939
v 0.1521227 -0.035 0.186875254
v 0.148789153 -0.035 0.182271481
v 0.15188089 -0.035 0.187000513
v 0.147669882 -0.035 0.18318072
v 0.151665032 -0.035 0.18717587
v 0.146760657 -0.035 0.1843
v 0.15148969 -0.035 0.187391728
v 0.146111116 -0.035 0.1855538
v 0.151364416 -0.035 0.187633544
v 0.1457365 -0.035 0.186856717
v 0.151292175 -0.035 0.187884808
f 1 2 3
f 4 2 1
f 4 5 2
f 6 4 1
f 4 6 5
f 6 1 7
f 6 8 5
f 9 6 7
f 6 9 8
f 7 10 9
f 9 11 8
f 10 12 9
f 9 12 11
f 10 13 12
f 13 11 12
f 13 10 14
f 13 15 11
f 13 14 16
f 15 13 16
f 17 16 14
f 15 16 17
f 18 17 14
f 19 15 17
f 20 17 18
f 20 19 17
f 21 20 18
f 20 21 19
f 21 18 22
f 21 23 19
f 24 21 22
f 21 24 23
f 24 22 25
f 24 26 23
f 24 25 27
f 26 24 27
f 28 27 25
f 26 27 28
f 28 25 29
f 30 26 28
f 31 28 29
f 32 30 28
f 33 28 31
f 32 28 33
f 34 33 31
f 35 32 33
f 36 33 34
f 36 35 33
f 37 36 34
f 36 37 35
f 37 34 38
f 37 39 35
f 40 37 38
f 37 40 39
f 40 38 41
f 40 42 39
f 43 40 41
f 40 43 42
f 43 41 44
f 43 45 42
f 46 43 44
f 43 46 45
f 46 44 47
f 46 48 45
f 49 46 47
f 46 49 48
f 49 47 50
f 49 51 48
f 52 49 50
f 49 52 51
f 51 52 53
f 52 50 54
f 52 54 53
f 54 55 56
f 55 57 56
f 56 57 58
f 55 59 57
f 59 58 57
f 59 55 60
f 59 61 58
f 62 59 60
f 59 62 61
f 62 60 63
f 62 64 61
f 65 62 63
f 62 65 64
f 65 63 66
f 65 66 64
f 63 67 66
f 64 66 68
f 67 69 66
f 66 69 68
f 67 70 69
f 70 68 69
f 70 67 71
f 70 72 68
f 70 71 73
f 72 70 73
f 74 73 71
f 72 73 74
f 74 71 75
f 76 72 74
f 77 74 75
f 74 77 76
f 77 75 78
f 77 79 76
f 80 77 78
f 77 80 79
f 80 78 81
f 80 81 79
f 78 82 81
f 79 81 83
f 82 84 81
f 81 85 83
f 84 86 81
f 81 86 85
f 84 87 86
f 86 88 85
f 87 89 86
f 86 89 88
f 87 90 89
f 90 88 89
f 91 90 87
f 90 92 88
f 93 90 91
f 90 93 92
f 94 93 91
f 93 95 92
f 96 93 94
f 93 96 95
f 97 96 94
f 96 98 95
f 99 96 97
f 96 99 98
f 100 99 97
f 99 101 98
f 102 99 100
f 99 102 101
f 103 102 100
f 102 104 101
f 105 102 103
f 102 105 104
f 106 105 103
f 105 107 104
f 105 106 107
f 108 109 110
f 111 109 108
f 111 112 109
f 113 111 108
f 111 113 112
f 113 108 114
f 113 115 112
f 116 113 114
f 113 116 115
f 114 117 116
f 116 118 115
f 117 119 116
f 116 119 118
f 117 120 119
f 120 118 119
f 120 117 121
f 120 122 118
f 120 121 123
f 122 120 123
f 124 123 121
f 122 123 124
f 125 124 121
f 126 122 124
f 127 124 125
f 127 126 124
f 128 127 125
f 127 128 126
f 128 125 129
f 128 130 126
f 131 128 129
f 128 131 130
f 131 129 132
f 131 133 130
f 131 132 134
f 133 131 134
f 135 134 132
f 133 134 135
f 135 132 136
f 137 133 135
f 138 135 136
f 139 137 135
f 140 135 138
f 139 135 140
f 141 140 138
f 142 139 140
f 143 140 141
f 143 142 140
f 144 143 141
f 143 144 142
f 144 141 145
f 144 146 142
f 147 144 145
f 144 147 146
f 147 145 148
f 147 149 146
f 150 147 148
f 147 150 149
f 150 148 151
f 150 152 149
f 153 150 151
f 150 153 152
f 153 151 154
f 153 155 152
f 156 153 154
f 153 156 155
f 156 154 157
f 156 158 155
f 159 156 157
f 156 159 158
f 159 157 160
f 158 159 161
f 159 160 161
f 160 162 161
f 162 163 161
f 161 163 164
f 162 165 163
f 165 164 163
f 165 162 166
f 165 167 164
f 168 165 166
f 165 168 167
f 168 166 169
f 168 170 167
f 171 168 169
f 168 171 170
f 171 169 172
f 171 172 170
f 169 173 172
f 170 172 174
f 173 175 172
f 172 175 174
f 173 176 175
f 176 174 175
f 176 173 177
f 176 178 174
f 176 177 179
f 178 176 179
f 180 179 177
f 178 179 180
f 180 177 181
f 182 178 180
f 183 180 181
f 180 183 182
f 183 181 184
f 183 185 182
f 186 183 184
f 183 186 185
f 186 184 187
f 186 187 185
f 184 188 187
f 185 187 189
f 188 190 187
f 187 191 189
f 190 192 187
f 187 192 191
f 190 193 192
f 192 194 191
f 193 195 192
f 192 195 194
f 193 196 195
f 196 194 195
f 197 196 193
f 196 198 194
f 199 196 197
f 196 199 198
f 200 199 197
f 199 201 198
f 202 199 200
f 199 202 201
f 203 202 200
f 202 204 201
f 205 202 203
f 202 205 204
f 206 205 203
f 205 207 204
f 208 205 206
f 205 208 207
f 209 208 206
f 208 210 207
f 211 208 209
f 208 211 210
f 212 211 209
f 211 213 210
f 211 212 213
f 214 215 216
f 217 215 214
f 217 218 215
f 219 217 214
f 217 219 218
f 219 214 220
f 219 221 218
f 222 219 220
f 219 222 221
f 220 223 222
f 222 224 221
f 223 225 222
f 222 225 224
f 223 226 225
f 226 224 225
f 226 223 227
f 226 228 224
f 226 227 229
f 228 226 229
f 230 229 227
f 228 229 230
f 231 230 227
f 232 228 230
f 233 230 231
f 233 232 230
f 234 233 231
f 233 234 232
f 234 231 235
f 234 236 232
f 237 234 235
f 234 237 236
f 237 235 238
f 237 239 236
f 237 238 240
f 239 237 240
f 241 240 238
f 239 240 241
f 241 238 242
f 243 239 241
f 244 241 242
f 245 243 241
f 246 241 244
f 245 241 246
f 247 246 244
f 248 245 246
f 249 246 247
f 249 248 246
f 250 249 247
f 249 250 248
f 250 247 251
f 250 252 248
f 253 250 251
f 250 253 252
f 253 251 254
f 253 255 252
f 256 253 254
f 253 256 255
f 256 254 257
f 256 258 255
f 259 256 257
f 256 259 258
f 259 257 260
f 259 261 258
f 262 259 260
f 259 262 261
f 262 260 263
f 262 264 261
f 265 262 263
f 262 265 264
f 264 265 266
f 265 263 267
f 265 267 266
f 267 268 269
f 268 270 269
f 269 270 271
f 268 272 270
f 272 271 270
f 272 268 273
f 272 274 271
f 275 272 273
f 272 275 274
f 275 273 276
f 275 277 274
f 278 275 276
f 275 278 277
f 278 276 279
f 278 279 277
f 276 280 279
f 277 279 281
f 280 282 279
f 279 282 281
f 280 283 282
f 283 281 282
f 283 280 284
f 283 285 281
f 283 284 286
f 285 283 286
f 287 286 284
f 285 286 287
f 287 284 288
f 289 285 287
f 290 287 288
f 287 290 289
f 290 288 291
f 290 292 289
f 293 290 291
f 290 293 292
f 293 291 294
f 293 294 292
f 291 295 294
f 292 294 296
f 295 297 294
f 294 298 296
f 297 299 294
f 294 299 298
f 297 300 299
f 299 301 298
f 300 302 299
f 299 302 301
f 300 303 302
f 303 301 302
f 304 303 300
f 303 305 301
f 306 303 304
f 303 306 305
f 307 306 304
f 306 308 305
f 309 306 307
f 306 309 308
f 310 309 307
f 309 311 308
f 312 309 310
f 309 312 311
f 313 312 310
f 312 314 311
f 315 312 313
f 312 315 314
f 316 315 313
f 315 317 314
f 318 315 316
f 315 318 317
f 319 318 316
f 318 320 317
f 318 319 320
f 321 322 323
f 321 323 324
f 325 321 324
f 324 323 326
f 327 325 324
f 328 324 326
f 327 324 328
f 328 326 329
f 330 327 328
f 331 328 329
f 330 328 331
f 331 329 332
f 333 330 331
f 334 331 332
f 333 331 334
f 334 332 335
f 336 333 334
f 337 334 335
f 336 334 337
f 337 335 338
f 339 336 337
f 340 337 338
f 339 337 340
f 340 338 341
f 342 340 341
f 343 339 340
f 343 340 342
f 342 341 344
f 345 343 342
f 346 342 344
f 347 345 342
f 348 342 346
f 347 342 348
f 349 348 346
f 350 347 348
f 351 348 349
f 351 350 348
f 352 351 349
f 351 352 350
f 352 349 353
f 352 354 350
f 355 352 353
f 352 355 354
f 355 353 356
f 355 357 354
f 358 355 356
f 355 358 357
f 358 356 359
f 358 360 357
f 361 358 359
f 358 361 360
f 361 359 362
f 361 363 360
f 364 361 362
f 361 364 363
f 364 362 365
f 364 366 363
f 367 364 365
f 364 367 366
f 367 365 368
f 366 367 369
f 367 368 369
f 368 370 369
f 370 371 369
f 369 371 372
f 370 373 371
f 371 374 372
f 373 375 371
f 371 375 374
f 373 376 375
f 375 377 374
f 376 378 375
f 375 378 377
f 376 379 378
f 378 380 377
f 379 381 378
f 378 381 380
f 379 382 381
f 381 383 380
f 382 384 381
f 381 384 383
f 382 385 384
f 384 386 383
f 385 387 384
f 384 387 386
f 385 388 387
f 388 389 387
f 387 390 386
f 387 389 390
f 388 391 389
f 389 392 390
f 391 393 389
f 389 394 392
f 393 395 389
f 389 395 394
f 393 396 395
f 395 397 394
f 396 398 395
f 395 398 397
f 396 399 398
f 399 397 398
f 400 399 396
f 399 401 397
f 402 399 400
f 399 402 401
f 403 402 400
f 402 404 401
f 405 402 403
f 402 405 404
f 406 405 403
f 405 407 404
f 408 405 406
f 405 408 407
f 409 408 406
f 408 410 407
f 411 408 409
f 408 411 410
f 412 411 409
f 411 413 410
f 414 411 412
f 411 414 413
f 415 414 412
f 414 416 413
f 414 415 416
f 417 418 419
f 417 419 420
f 421 417 420
f 420 419 422
f 423 421 420
f 424 420 422
f 423 420 424
f 424 422 425
f 426 423 424
f 427 424 425
f 426 424 427
f 427 425 428
f 429 426 427
f 430 427 428
f 429 427 430
f 430 428 431
f 432 429 430
f 433 430 431
f 432 430 433
f 433 431 434
f 435 432 433
f 436 433 434
f 435 433 436
f 436 434 437
f 438 436 437
f 439 435 436
f 439 436 438
f 438 437 440
f 441 439 438
f 442 438 440
f 443 441 438
f 444 438 442
f 443 438 444
f 445 444 442
f 446 443 444
f 447 444 445
f 447 446 444
f 448 447 445
f 447 448 446
f 448 445 449
f 448 450 446
f 451 448 449
f 448 451 450
f 451 449 452
f 451 453 450
f 454 451 452
f 451 454 453
f 454 452 455
f 454 456 453
f 457 454 455
f 454 457 456
f 457 455 458
f 457 459 456
f 460 457 458
f 457 460 459
f 460 458 461
f 460 462 459
f 463 460 461
f 460 463 462
f 463 461 464
f 462 463 465
f 463 464 465
f 464 466 465
f 466 467 465
f 465 467 468
f 466 469 467
f 467 470 468
f 469 471 467
f 467 471 470
f 469 472 471
f 471 473 470
f 472 474 471
f 471 474 473
f 472 475 474
f 474 476 473
f 475 477 474
f 474 477 476
f 475 478 477
f 477 479 476
f 478 480 477
f 477 480 479
f 478 481 480
f 480 482 479
f 481 483 480
f 480 483 482
f 481 484 483
f 484 485 483
f 483 486 482
f 483 485 486
f 484 487 485
f 485 488 486
f 487 489 485
f 485 490 488
f 489 491 485
f 485 491 490
f 489 492 491
f 491 493 490
f 492 494 491
f 491 494 493
f 492 495 494
f 495 493 494
f 496 495 492
f 495 497 493
f 498 495 496
f 495 498 497
f 499 498 496
f 498 500 497
f 501 498 499
f 498 501 500
f 502 501 499
f 501 503 500
f 504 501 502
f 501 504 503
f 505 504 502
f 504 506 503
f 507 504 505
f 504 507 506
f 508 507 505
f 507 509 506
f 510 507 508
f 507 510 509
f 511 510 508
f 510 512 509
f 510 511 512
f 513 514 515
f 513 516 514
f 517 513 515
f 513 518 516
f 517 515 519
f 518 520 516
f 521 517 519
f 518 522 520
f 521 519 523
f 522 524 520
f 525 521 523
f 522 526 524
f 525 523 527
f 526 528 524
f 529 525 527
f 526 530 528
f 529 527 531
f 530 532 528
f 533 529 531
f 530 534 532
f 533 531 535
f 534 536 532
f 537 533 535
f 534 538 536
f 537 535 539
f 538 540 536
f 541 537 539
f 538 542 540
f 541 539 543
f 544 541 543
f 542 545 540
f 545 542 546
f 545 546 547
f 548 545 547
f 547 549 548
f 549 550 548
f 549 551 550
f 551 552 550
f 551 553 552
f 553 554 552
f 553 555 554
f 555 556 554
f 555 557 556
f 557 558 556
f 557 559 558
f 559 560 558
f 559 561 560
f 559 562 561
f 562 563 561
f 562 564 563
f 564 565 563
f 564 566 565
f 566 567 565
f 566 568 567
f 568 569 567
f 568 570 569
f 570 571 569
f 570 572 571
f 572 573 571
f 572 574 573
f 574 575 573
f 574 576 575
f 576 544 575
f 544 543 575
f 577 578 579
f 577 580 578
f 581 577 579
f 577 582 580
f 581 579 583
f 582 584 580
f 585 581 583
f 582 586 584
f 585 583 587
f 586 588 584
f 589 585 587
f 586 590 588
f 589 587 591
f 590 592 588
f 593 589 591
f 590 594 592
f 593 591 595
f 594 596 592
f 597 593 595
f 594 598 596
f 597 595 599
f 598 600 596
f 601 597 599
f 598 602 600
f 602 603 600
f 602 604 603
f 601 599 605
f 606 601 605
f 607 606 605
f 607 605 608
f 609 607 608
f 609 608 610
f 611 609 610
f 611 610 612
f 613 611 612
f 613 612 614
f 615 613 614
f 615 614 616
f 617 615 616
f 617 616 618
f 619 617 618
f 619 618 620
f 621 619 620
f 621 620 622
f 621 622 623
f 624 621 623
f 624 623 625
f 626 624 625
f 626 625 627
f 628 626 627
f 628 627 629
f 630 628 629
f 630 629 631
f 632 630 631
f 632 631 633
f 634 632 633
f 634 633 635
f 636 634 635
f 635 637 636
f 637 638 636
f 637 639 638
f 639 640 638
f 639 604 640
f 604 639 603
f 641 642 643
f 641 644 642
f 645 641 643
f 641 646 644
f 645 643 647
f 646 648 644
f 649 645 647
f 646 650 648
f 649 647 651
f 650 652 648
f 653 649 651
f 650 654 652
f 653 651 655
f 654 656 652
f 657 653 655
f 654 658 656
f 657 655 659
f 658 660 656
f 661 657 659
f 658 662 660
f 661 659 663
f 662 664 660
f 665 661 663
f 662 666 664
f 665 663 667
f 666 668 664
f 669 665 667
f 666 670 668
f 669 667 671
f 672 669 671
f 670 673 668
f 673 670 674
f 673 674 675
f 676 673 675
f 675 677 676
f 677 678 676
f 677 679 678
f 679 680 678
f 679 681 680
f 681 682 680
f 681 683 682
f 683 684 682
f 683 685 684
f 685 686 684
f 685 687 686
f 687 688 686
f 687 689 688
f 687 690 689
f 690 691 689
f 690 692 691
f 692 693 691
f 692 694 693
f 694 695 693
f 694 696 695
f 696 697 695
f 696 698 697
f 698 699 697
f 698 700 699
f 700 701 699
f 700 702 701
f 702 703 701
f 702 704 703
f 704 672 703
f 672 671 703
