# ROS coordinates: X forward, Y left, Z up; units are metres.
o mesh
v 0.08349243 0.004499998 0.204000011
v 0.08349243 0.00250000134 0.204000011
v 0.08347221 0.00250000134 0.203550741
v 0.08347221 0.004499998 0.203550741
v 0.0834316239 0.00349999964 0.2032226
v 0.08340896 0.004499998 0.203090191
v 0.08340896 0.00250000134 0.203090191
v 0.08329943 0.004499998 0.202624232
v 0.08329943 0.00250000134 0.202624232
v 0.0832377151 0.00349999964 0.2024245
v 0.08314137 0.004499998 0.202159539
v 0.08290018 0.00349999964 0.201639563
v 0.08314137 0.00250000134 0.202159539
v 0.08293385 0.004499998 0.201703548
v 0.08293385 0.00250000134 0.201703548
v 0.08267741 0.004499998 0.201263964
v 0.08267741 0.00250000134 0.201263964
v 0.08267741 0.00349999964 0.201263964
v 0.08242025 0.00349999964 0.200906113
v 0.0823742 0.004499998 0.20084852
v 0.0823742 0.00250000134 0.20084852
v 0.082131 0.00349999964 0.200570613
v 0.0820279643 0.004499998 0.200464472
v 0.0820279643 0.00250000134 0.200464472
v 0.0818127543 0.00349999964 0.200261638
v 0.0816439241 0.004499998 0.200118244
v 0.0816439241 0.00250000134 0.200118244
v 0.08146931 0.00349999964 0.199982777
v 0.08122848 0.004499998 0.199815035
v 0.08122848 0.00250000134 0.199815035
v 0.0811050162 0.00349999964 0.199736863
v 0.0807889 0.004499998 0.199558586
v 0.0807889 0.00250000134 0.199558586
v 0.08072458 0.00349999964 0.199525923
v 0.0803329051 0.004499998 0.199351072
v 0.0803329051 0.00250000134 0.199351072
v 0.0803329051 0.00349999964 0.199351072
v 0.07986822 0.004499998 0.199193031
v 0.07986822 0.00250000134 0.199193031
v 0.0795351043 0.00349999964 0.199109942
v 0.0794022456 0.004499998 0.199083477
v 0.0794022456 0.00250000134 0.199083477
v 0.0790069252 0.00349999964 0.199026555
v 0.0789417 0.004499998 0.199020237
v 0.07849243 0.00349999964 0.199
v 0.0789417 0.00250000134 0.199020237
v 0.07849243 0.004499998 0.199
v 0.07849243 0.00250000134 0.199
v 0.07804316 0.004499998 0.199020237
v 0.07804316 0.00250000134 0.199020237
v 0.0779779255 0.00349999964 0.199026555
v 0.07758261 0.004499998 0.199083477
v 0.07758261 0.00250000134 0.199083477
v 0.0774497539 0.00349999964 0.199109942
v 0.07711664 0.004499998 0.199193031
v 0.07711664 0.00250000134 0.199193031
v 0.07691692 0.00349999964 0.199254721
v 0.07665195 0.004499998 0.199351072
v 0.07665195 0.00250000134 0.199351072
v 0.07638983 0.00349999964 0.1994636
v 0.0761959553 0.004499998 0.199558586
v 0.0761959553 0.00250000134 0.199558586
v 0.07587984 0.00349999964 0.199736863
v 0.07575638 0.004499998 0.199815035
v 0.07575638 0.00250000134 0.199815035
v 0.07539853 0.00349999964 0.2000722
v 0.07534094 0.004499998 0.200118244
v 0.0749568939 0.00349999964 0.200464472
v 0.07534094 0.00250000134 0.200118244
v 0.0749568939 0.004499998 0.200464472
v 0.0749568939 0.00250000134 0.200464472
v 0.0746106654 0.004499998 0.20084852
v 0.0746106654 0.00250000134 0.20084852
v 0.074564606 0.00349999964 0.200906113
v 0.07430746 0.004499998 0.201263964
v 0.07430746 0.00250000134 0.201263964
v 0.0742292851 0.00349999964 0.20138742
v 0.07405101 0.004499998 0.201703548
v 0.07405101 0.00250000134 0.201703548
v 0.07395601 0.00349999964 0.201897413
v 0.07384349 0.004499998 0.202159539
v 0.07384349 0.00250000134 0.202159539
v 0.07374714 0.00349999964 0.2024245
v 0.07368544 0.004499998 0.202624232
v 0.07368544 0.00250000134 0.202624232
v 0.073602356 0.00349999964 0.202957332
v 0.0735759 0.004499998 0.203090191
v 0.0735759 0.00250000134 0.203090191
v 0.07351897 0.00349999964 0.203485519
v 0.07351266 0.00250000134 0.203550741
v 0.07351266 0.004499998 0.203550741
v 0.07349243 0.00250000134 0.204000011
v 0.07349243 0.004499998 0.204000011
v 0.07351266 0.00250000134 0.204449281
v 0.07351266 0.004499998 0.204449281
v 0.0735532343 0.00349999964 0.20477742
v 0.0735759 0.00250000134 0.204909831
v 0.0735759 0.004499998 0.204909831
v 0.07368544 0.00250000134 0.2053758
v 0.07368544 0.004499998 0.2053758
v 0.07374714 0.00349999964 0.205575526
v 0.07384349 0.00250000134 0.2058405
v 0.0740846843 0.00349999964 0.206360474
v 0.07384349 0.004499998 0.2058405
v 0.07405101 0.00250000134 0.206296489
v 0.07405101 0.004499998 0.206296489
v 0.07430746 0.00250000134 0.206736058
v 0.07430746 0.004499998 0.206736058
v 0.07430746 0.00349999964 0.206736058
v 0.074564606 0.00349999964 0.207093924
v 0.0746106654 0.00250000134 0.2071515
v 0.0746106654 0.004499998 0.2071515
v 0.07485386 0.00349999964 0.207429424
v 0.0749568939 0.00250000134 0.20753555
v 0.0749568939 0.004499998 0.20753555
v 0.07517211 0.00349999964 0.2077384
v 0.07534094 0.00250000134 0.207881778
v 0.07534094 0.004499998 0.207881778
v 0.07551555 0.00349999964 0.20801726
v 0.07575638 0.00250000134 0.208184987
v 0.07575638 0.004499998 0.208184987
v 0.07587984 0.00349999964 0.208263159
v 0.0761959553 0.00250000134 0.208441436
v 0.0761959553 0.004499998 0.208441436
v 0.0762602761 0.00349999964 0.2084741
v 0.07665195 0.00250000134 0.20864895
v 0.07665195 0.004499998 0.20864895
v 0.07665195 0.00349999964 0.20864895
v 0.07711664 0.00250000134 0.208807
v 0.07711664 0.004499998 0.208807
v 0.0774497539 0.00349999964 0.20889008
v 0.07758261 0.00250000134 0.208916545
v 0.07758261 0.004499998 0.208916545
v 0.0779779255 0.00349999964 0.208973467
v 0.07804316 0.00250000134 0.208979785
v 0.07849243 0.00349999964 0.209
v 0.07804316 0.004499998 0.208979785
v 0.07849243 0.00250000134 0.209
v 0.07849243 0.004499998 0.209
v 0.0789417 0.00250000134 0.208979785
v 0.0789417 0.004499998 0.208979785
v 0.0790069252 0.00349999964 0.208973467
v 0.0794022456 0.00250000134 0.208916545
v 0.0794022456 0.004499998 0.208916545
v 0.0795351043 0.00349999964 0.20889008
v 0.07986822 0.00250000134 0.208807
v 0.07986822 0.004499998 0.208807
v 0.08006795 0.00349999964 0.2087453
v 0.0803329051 0.00250000134 0.20864895
v 0.0803329051 0.004499998 0.20864895
v 0.08059503 0.00349999964 0.208536431
v 0.0807889 0.00250000134 0.208441436
v 0.0807889 0.004499998 0.208441436
v 0.0811050162 0.00349999964 0.208263159
v 0.08122848 0.00250000134 0.208184987
v 0.08122848 0.004499998 0.208184987
v 0.08158633 0.00349999964 0.207927838
v 0.0816439241 0.00250000134 0.207881778
v 0.0820279643 0.00349999964 0.20753555
v 0.0816439241 0.004499998 0.207881778
v 0.0820279643 0.00250000134 0.20753555
v 0.0820279643 0.004499998 0.20753555
v 0.0823742 0.00250000134 0.2071515
v 0.0823742 0.004499998 0.2071515
v 0.08242025 0.00349999964 0.207093924
v 0.08267741 0.00250000134 0.206736058
v 0.08267741 0.004499998 0.206736058
v 0.08275557 0.00349999964 0.2066126
v 0.08293385 0.00250000134 0.206296489
v 0.08293385 0.004499998 0.206296489
v 0.0830288455 0.00349999964 0.20610261
v 0.08314137 0.00250000134 0.2058405
v 0.08314137 0.004499998 0.2058405
v 0.0832377151 0.00349999964 0.205575526
v 0.08329943 0.00250000134 0.2053758
v 0.08329943 0.004499998 0.2053758
v 0.0833825 0.00349999964 0.20504269
v 0.08340896 0.00250000134 0.204909831
v 0.08340896 0.004499998 0.204909831
v 0.08346589 0.00349999964 0.204514518
v 0.08347221 0.00250000134 0.204449281
v 0.08347221 0.004499998 0.204449281
v 0.08349243 0.00250000134 0.204000011
v 0.08349243 0.004499998 0.204000011
v 0.08014243 0.0149999969 0.204000011
v 0.08014243 0.00250000134 0.204000011
v 0.0801148862 0.00250000134 0.204300255
v 0.0801061541 0.008750003 0.2043441
v 0.0801148862 0.0149999969 0.204300255
v 0.08002658 0.00250000134 0.204607368
v 0.08002658 0.0149999969 0.204607368
v 0.07998945 0.008750003 0.204693869
v 0.07987347 0.00250000134 0.204902917
v 0.07987347 0.0149999969 0.204902917
v 0.07978861 0.008750003 0.205021
v 0.07965916 0.00250000134 0.205166742
v 0.07965916 0.0149999969 0.205166742
v 0.0795134157 0.008750003 0.205296189
v 0.079395324 0.00250000134 0.205381051
v 0.079395324 0.0149999969 0.205381051
v 0.07918629 0.008750003 0.205497026
v 0.07909979 0.00250000134 0.20553416
v 0.07909979 0.0149999969 0.20553416
v 0.0788365155 0.008750003 0.205613732
v 0.07879267 0.00250000134 0.205622464
v 0.07849243 0.008750003 0.20565
v 0.07879267 0.0149999969 0.205622464
v 0.07849243 0.00250000134 0.20565
v 0.07849243 0.0149999969 0.20565
v 0.07819219 0.00250000134 0.205622464
v 0.07819219 0.0149999969 0.205622464
v 0.07814835 0.008750003 0.205613732
v 0.07788508 0.00250000134 0.20553416
v 0.07788508 0.0149999969 0.20553416
v 0.07788508 0.008750003 0.20553416
v 0.07763028 0.008750003 0.205406845
v 0.0775895342 0.00250000134 0.205381051
v 0.0775895342 0.0149999969 0.205381051
v 0.07739672 0.008750003 0.205233678
v 0.0773257 0.00250000134 0.205166742
v 0.0773257 0.0149999969 0.205166742
v 0.07719625 0.008750003 0.205021
v 0.0771113858 0.00250000134 0.204902917
v 0.0771113858 0.0149999969 0.204902917
v 0.07703787 0.008750003 0.204778969
v 0.0769582838 0.00250000134 0.204607368
v 0.0769582838 0.0149999969 0.204607368
v 0.0769264847 0.008750003 0.204519928
v 0.07686998 0.00250000134 0.204300255
v 0.07686998 0.0149999969 0.204300255
v 0.0768625 0.008750003 0.204256549
v 0.07684243 0.00250000134 0.204000011
v 0.07684243 0.0149999969 0.204000011
v 0.07686998 0.00250000134 0.203699768
v 0.0768787041 0.008750003 0.203655928
v 0.07686998 0.0149999969 0.203699768
v 0.0769582838 0.00250000134 0.203392655
v 0.0769582838 0.0149999969 0.203392655
v 0.07699541 0.008750003 0.203306153
v 0.0771113858 0.00250000134 0.20309712
v 0.0771113858 0.0149999969 0.20309712
v 0.07719625 0.008750003 0.202979028
v 0.0773257 0.00250000134 0.2028333
v 0.0773257 0.0149999969 0.2028333
v 0.07747144 0.008750003 0.202703834
v 0.0775895342 0.00250000134 0.202618971
v 0.0775895342 0.0149999969 0.202618971
v 0.0777985752 0.008750003 0.202503
v 0.07788508 0.00250000134 0.202465862
v 0.07788508 0.0149999969 0.202465862
v 0.07814835 0.008750003 0.20238629
v 0.07819219 0.00250000134 0.202377558
v 0.07849243 0.008750003 0.20235
v 0.07819219 0.0149999969 0.202377558
v 0.07849243 0.00250000134 0.20235
v 0.07849243 0.0149999969 0.20235
v 0.07879267 0.00250000134 0.202377558
v 0.07879267 0.0149999969 0.202377558
v 0.0788365155 0.008750003 0.20238629
v 0.07909979 0.00250000134 0.202465862
v 0.07909979 0.0149999969 0.202465862
v 0.07909979 0.008750003 0.202465862
v 0.0793545842 0.008750003 0.202593178
v 0.079395324 0.00250000134 0.202618971
v 0.079395324 0.0149999969 0.202618971
v 0.07958814 0.008750003 0.202766344
v 0.07965916 0.00250000134 0.2028333
v 0.07965916 0.0149999969 0.2028333
v 0.07978861 0.008750003 0.202979028
v 0.07987347 0.00250000134 0.20309712
v 0.07987347 0.0149999969 0.20309712
v 0.07994699 0.008750003 0.203221068
v 0.08002658 0.00250000134 0.203392655
v 0.08002658 0.0149999969 0.203392655
v 0.08005838 0.008750003 0.2034801
v 0.0801148862 0.00250000134 0.203699768
v 0.0801148862 0.0149999969 0.203699768
v 0.08012237 0.008750003 0.203743473
v 0.08014243 0.00250000134 0.204000011
v 0.08014243 0.0149999969 0.204000011
v 0.08099243 0.004499998 0.204000011
v 0.08099243 0.0149999969 0.204000011
v 0.08095069 0.0149999969 0.204454929
v 0.08093747 0.009749997 0.204521358
v 0.08095069 0.004499998 0.204454929
v 0.0808169 0.0149999969 0.204920247
v 0.0808169 0.004499998 0.204920247
v 0.0807606354 0.009749997 0.2050513
v 0.08058491 0.0149999969 0.205368042
v 0.08058491 0.004499998 0.205368042
v 0.0804563463 0.009749997 0.20554696
v 0.0802601948 0.0149999969 0.205767781
v 0.0802601948 0.004499998 0.205767781
v 0.08003938 0.009749997 0.205963925
v 0.07986046 0.0149999969 0.2060925
v 0.07986046 0.004499998 0.2060925
v 0.07954373 0.009749997 0.206268221
v 0.07941267 0.0149999969 0.206324488
v 0.07941267 0.004499998 0.206324488
v 0.0790137649 0.009749997 0.206445053
v 0.0789473355 0.0149999969 0.206458271
v 0.07849243 0.009749997 0.206500009
v 0.0789473355 0.004499998 0.206458271
v 0.07849243 0.0149999969 0.206500009
v 0.07849243 0.004499998 0.206500009
v 0.07803752 0.0149999969 0.206458271
v 0.07803752 0.004499998 0.206458271
v 0.07797109 0.009749997 0.206445053
v 0.0775722 0.0149999969 0.206324488
v 0.0775722 0.004499998 0.206324488
v 0.0775722 0.009749997 0.206324488
v 0.07718614 0.009749997 0.206131577
v 0.0771244 0.0149999969 0.2060925
v 0.0771244 0.004499998 0.2060925
v 0.0768322647 0.009749997 0.2058692
v 0.07672466 0.0149999969 0.205767781
v 0.07672466 0.004499998 0.205767781
v 0.07652852 0.009749997 0.20554696
v 0.0763999447 0.0149999969 0.205368042
v 0.0763999447 0.004499998 0.205368042
v 0.07628855 0.009749997 0.205180243
v 0.076167956 0.0149999969 0.204920247
v 0.076167956 0.004499998 0.204920247
v 0.07611978 0.009749997 0.204787761
v 0.07603417 0.0149999969 0.204454929
v 0.07603417 0.004499998 0.204454929
v 0.07602283 0.009749997 0.204388708
v 0.07599243 0.0149999969 0.204000011
v 0.07599243 0.004499998 0.204000011
v 0.07603417 0.0149999969 0.2035451
v 0.07604739 0.009749997 0.203478679
v 0.07603417 0.004499998 0.2035451
v 0.076167956 0.0149999969 0.203079775
v 0.076167956 0.004499998 0.203079775
v 0.07622422 0.009749997 0.202948719
v 0.0763999447 0.0149999969 0.202632
v 0.0763999447 0.004499998 0.202632
v 0.07652852 0.009749997 0.202453062
v 0.07672466 0.0149999969 0.202232242
v 0.07672466 0.004499998 0.202232242
v 0.07694548 0.009749997 0.2020361
v 0.0771244 0.0149999969 0.201907516
v 0.0771244 0.004499998 0.201907516
v 0.07744113 0.009749997 0.2017318
v 0.0775722 0.0149999969 0.201675549
v 0.0775722 0.004499998 0.201675549
v 0.07797109 0.009749997 0.201554984
v 0.07803752 0.0149999969 0.201541752
v 0.07849243 0.009749997 0.201500013
v 0.07803752 0.004499998 0.201541752
v 0.07849243 0.0149999969 0.201500013
v 0.07849243 0.004499998 0.201500013
v 0.0789473355 0.0149999969 0.201541752
v 0.0789473355 0.004499998 0.201541752
v 0.0790137649 0.009749997 0.201554984
v 0.07941267 0.0149999969 0.201675549
v 0.07941267 0.004499998 0.201675549
v 0.07941267 0.009749997 0.201675549
v 0.07979873 0.009749997 0.201868445
v 0.07986046 0.0149999969 0.201907516
v 0.07986046 0.004499998 0.201907516
v 0.08015259 0.009749997 0.202130824
v 0.0802601948 0.0149999969 0.202232242
v 0.0802601948 0.004499998 0.202232242
v 0.0804563463 0.009749997 0.202453062
v 0.08058491 0.0149999969 0.202632
v 0.08058491 0.004499998 0.202632
v 0.0806963 0.009749997 0.2028198
v 0.0808169 0.0149999969 0.203079775
v 0.0808169 0.004499998 0.203079775
v 0.08086507 0.009749997 0.203212246
v 0.08095069 0.0149999969 0.2035451
v 0.08095069 0.004499998 0.2035451
v 0.0809620246 0.009749997 0.203611314
v 0.08099243 0.0149999969 0.204000011
v 0.08099243 0.004499998 0.204000011
v 0.07849243 0.0149999969 0.20565
v 0.07849243 0.0149999969 0.206500009
v 0.0789473355 0.0149999969 0.206458271
v 0.07803752 0.0149999969 0.206458271
v 0.07879267 0.0149999969 0.205622464
v 0.07819219 0.0149999969 0.205622464
v 0.07941267 0.0149999969 0.206324488
v 0.0775722 0.0149999969 0.206324488
v 0.07909979 0.0149999969 0.20553416
v 0.07788508 0.0149999969 0.20553416
v 0.07986046 0.0149999969 0.2060925
v 0.0771244 0.0149999969 0.2060925
v 0.079395324 0.0149999969 0.205381051
v 0.0775895342 0.0149999969 0.205381051
v 0.0802601948 0.0149999969 0.205767781
v 0.07672466 0.0149999969 0.205767781
v 0.07965916 0.0149999969 0.205166742
v 0.0773257 0.0149999969 0.205166742
v 0.08058491 0.0149999969 0.205368042
v 0.0763999447 0.0149999969 0.205368042
v 0.07987347 0.0149999969 0.204902917
v 0.0771113858 0.0149999969 0.204902917
v 0.0808169 0.0149999969 0.204920247
v 0.076167956 0.0149999969 0.204920247
v 0.08002658 0.0149999969 0.204607368
v 0.0769582838 0.0149999969 0.204607368
v 0.08095069 0.0149999969 0.204454929
v 0.07603417 0.0149999969 0.204454929
v 0.0801148862 0.0149999969 0.204300255
v 0.07686998 0.0149999969 0.204300255
v 0.08099243 0.0149999969 0.204000011
v 0.08014243 0.0149999969 0.204000011
v 0.07599243 0.0149999969 0.204000011
v 0.07684243 0.0149999969 0.204000011
v 0.07686998 0.0149999969 0.203699768
v 0.07603417 0.0149999969 0.2035451
v 0.0769582838 0.0149999969 0.203392655
v 0.076167956 0.0149999969 0.203079775
v 0.0771113858 0.0149999969 0.20309712
v 0.0763999447 0.0149999969 0.202632
v 0.0773257 0.0149999969 0.2028333
v 0.07672466 0.0149999969 0.202232242
v 0.0775895342 0.0149999969 0.202618971
v 0.0771244 0.0149999969 0.201907516
v 0.07788508 0.0149999969 0.202465862
v 0.0775722 0.0149999969 0.201675549
v 0.07819219 0.0149999969 0.202377558
v 0.07803752 0.0149999969 0.201541752
v 0.07849243 0.0149999969 0.201500013
v 0.07849243 0.0149999969 0.20235
v 0.0789473355 0.0149999969 0.201541752
v 0.07879267 0.0149999969 0.202377558
v 0.07941267 0.0149999969 0.201675549
v 0.07909979 0.0149999969 0.202465862
v 0.07986046 0.0149999969 0.201907516
v 0.079395324 0.0149999969 0.202618971
v 0.0802601948 0.0149999969 0.202232242
v 0.07965916 0.0149999969 0.2028333
v 0.08058491 0.0149999969 0.202632
v 0.07987347 0.0149999969 0.20309712
v 0.0808169 0.0149999969 0.203079775
v 0.08002658 0.0149999969 0.203392655
v 0.08095069 0.0149999969 0.2035451
v 0.0801148862 0.0149999969 0.203699768
v 0.0801148862 0.00250000134 0.204300255
v 0.08340896 0.00250000134 0.204909831
v 0.08329943 0.00250000134 0.2053758
v 0.08347221 0.00250000134 0.204449281
v 0.08002658 0.00250000134 0.204607368
v 0.08314137 0.00250000134 0.2058405
v 0.08293385 0.00250000134 0.206296489
v 0.08014243 0.00250000134 0.204000011
v 0.08349243 0.00250000134 0.204000011
v 0.08347221 0.00250000134 0.203550741
v 0.07987347 0.00250000134 0.204902917
v 0.08267741 0.00250000134 0.206736058
v 0.0823742 0.00250000134 0.2071515
v 0.0801148862 0.00250000134 0.203699768
v 0.08340896 0.00250000134 0.203090191
v 0.08329943 0.00250000134 0.202624232
v 0.07965916 0.00250000134 0.205166742
v 0.0820279643 0.00250000134 0.20753555
v 0.0816439241 0.00250000134 0.207881778
v 0.08002658 0.00250000134 0.203392655
v 0.08314137 0.00250000134 0.202159539
v 0.08293385 0.00250000134 0.201703548
v 0.079395324 0.00250000134 0.205381051
v 0.08122848 0.00250000134 0.208184987
v 0.0807889 0.00250000134 0.208441436
v 0.07987347 0.00250000134 0.20309712
v 0.08267741 0.00250000134 0.201263964
v 0.0823742 0.00250000134 0.20084852
v 0.07909979 0.00250000134 0.20553416
v 0.0803329051 0.00250000134 0.20864895
v 0.07986822 0.00250000134 0.208807
v 0.07965916 0.00250000134 0.2028333
v 0.0820279643 0.00250000134 0.200464472
v 0.0816439241 0.00250000134 0.200118244
v 0.07879267 0.00250000134 0.205622464
v 0.0794022456 0.00250000134 0.208916545
v 0.0789417 0.00250000134 0.208979785
v 0.079395324 0.00250000134 0.202618971
v 0.08122848 0.00250000134 0.199815035
v 0.0807889 0.00250000134 0.199558586
v 0.07849243 0.00250000134 0.20565
v 0.07849243 0.00250000134 0.209
v 0.07804316 0.00250000134 0.208979785
v 0.07909979 0.00250000134 0.202465862
v 0.0803329051 0.00250000134 0.199351072
v 0.07986822 0.00250000134 0.199193031
v 0.07819219 0.00250000134 0.205622464
v 0.07758261 0.00250000134 0.208916545
v 0.07711664 0.00250000134 0.208807
v 0.07879267 0.00250000134 0.202377558
v 0.0794022456 0.00250000134 0.199083477
v 0.0789417 0.00250000134 0.199020237
v 0.07849243 0.00250000134 0.20235
v 0.07788508 0.00250000134 0.20553416
v 0.07665195 0.00250000134 0.20864895
v 0.0761959553 0.00250000134 0.208441436
v 0.07849243 0.00250000134 0.199
v 0.0775895342 0.00250000134 0.205381051
v 0.07575638 0.00250000134 0.208184987
v 0.07534094 0.00250000134 0.207881778
v 0.07804316 0.00250000134 0.199020237
v 0.0773257 0.00250000134 0.205166742
v 0.0749568939 0.00250000134 0.20753555
v 0.0746106654 0.00250000134 0.2071515
v 0.07758261 0.00250000134 0.199083477
v 0.0771113858 0.00250000134 0.204902917
v 0.07430746 0.00250000134 0.206736058
v 0.07405101 0.00250000134 0.206296489
v 0.07711664 0.00250000134 0.199193031
v 0.07665195 0.00250000134 0.199351072
v 0.0761959553 0.00250000134 0.199558586
v 0.07819219 0.00250000134 0.202377558
v 0.07575638 0.00250000134 0.199815035
v 0.0769582838 0.00250000134 0.204607368
v 0.07384349 0.00250000134 0.2058405
v 0.07368544 0.00250000134 0.2053758
v 0.07534094 0.00250000134 0.200118244
v 0.07686998 0.00250000134 0.204300255
v 0.0735759 0.00250000134 0.204909831
v 0.07351266 0.00250000134 0.204449281
v 0.0749568939 0.00250000134 0.200464472
v 0.07684243 0.00250000134 0.204000011
v 0.07349243 0.00250000134 0.204000011
v 0.07351266 0.00250000134 0.203550741
v 0.0746106654 0.00250000134 0.20084852
v 0.07686998 0.00250000134 0.203699768
v 0.0735759 0.00250000134 0.203090191
v 0.07368544 0.00250000134 0.202624232
v 0.0769582838 0.00250000134 0.203392655
v 0.07430746 0.00250000134 0.201263964
v 0.07405101 0.00250000134 0.201703548
v 0.07384349 0.00250000134 0.202159539
v 0.0771113858 0.00250000134 0.20309712
v 0.07788508 0.00250000134 0.202465862
v 0.0773257 0.00250000134 0.2028333
v 0.0775895342 0.00250000134 0.202618971
v 0.08099243 0.004499998 0.204000011
v 0.08349243 0.004499998 0.204000011
v 0.08347221 0.004499998 0.203550741
v 0.08347221 0.004499998 0.204449281
v 0.08095069 0.004499998 0.2035451
v 0.08340896 0.004499998 0.203090191
v 0.08329943 0.004499998 0.202624232
v 0.08095069 0.004499998 0.204454929
v 0.08340896 0.004499998 0.204909831
v 0.08329943 0.004499998 0.2053758
v 0.0808169 0.004499998 0.203079775
v 0.08314137 0.004499998 0.202159539
v 0.08293385 0.004499998 0.201703548
v 0.0808169 0.004499998 0.204920247
v 0.08314137 0.004499998 0.2058405
v 0.08293385 0.004499998 0.206296489
v 0.08058491 0.004499998 0.202632
v 0.08267741 0.004499998 0.201263964
v 0.0823742 0.004499998 0.20084852
v 0.08058491 0.004499998 0.205368042
v 0.08267741 0.004499998 0.206736058
v 0.0823742 0.004499998 0.2071515
v 0.0802601948 0.004499998 0.202232242
v 0.0820279643 0.004499998 0.200464472
v 0.0816439241 0.004499998 0.200118244
v 0.0802601948 0.004499998 0.205767781
v 0.0820279643 0.004499998 0.20753555
v 0.0816439241 0.004499998 0.207881778
v 0.07986046 0.004499998 0.201907516
v 0.08122848 0.004499998 0.199815035
v 0.0807889 0.004499998 0.199558586
v 0.07986046 0.004499998 0.2060925
v 0.08122848 0.004499998 0.208184987
v 0.0807889 0.004499998 0.208441436
v 0.07941267 0.004499998 0.201675549
v 0.0803329051 0.004499998 0.199351072
v 0.07986822 0.004499998 0.199193031
v 0.07941267 0.004499998 0.206324488
v 0.0803329051 0.004499998 0.20864895
v 0.07986822 0.004499998 0.208807
v 0.0789473355 0.004499998 0.201541752
v 0.0794022456 0.004499998 0.199083477
v 0.0789417 0.004499998 0.199020237
v 0.0789473355 0.004499998 0.206458271
v 0.0794022456 0.004499998 0.208916545
v 0.0789417 0.004499998 0.208979785
v 0.07849243 0.004499998 0.201500013
v 0.07849243 0.004499998 0.199
v 0.07804316 0.004499998 0.199020237
v 0.07849243 0.004499998 0.206500009
v 0.07849243 0.004499998 0.209
v 0.07804316 0.004499998 0.208979785
v 0.07803752 0.004499998 0.201541752
v 0.07758261 0.004499998 0.199083477
v 0.07711664 0.004499998 0.199193031
v 0.07803752 0.004499998 0.206458271
v 0.07758261 0.004499998 0.208916545
v 0.07711664 0.004499998 0.208807
v 0.0775722 0.004499998 0.201675549
v 0.07665195 0.004499998 0.199351072
v 0.0761959553 0.004499998 0.199558586
v 0.0775722 0.004499998 0.206324488
v 0.07665195 0.004499998 0.20864895
v 0.0761959553 0.004499998 0.208441436
v 0.0771244 0.004499998 0.201907516
v 0.07575638 0.004499998 0.199815035
v 0.07534094 0.004499998 0.200118244
v 0.0771244 0.004499998 0.2060925
v 0.07575638 0.004499998 0.208184987
v 0.07534094 0.004499998 0.207881778
v 0.07672466 0.004499998 0.202232242
v 0.0749568939 0.004499998 0.200464472
v 0.0746106654 0.004499998 0.20084852
v 0.07672466 0.004499998 0.205767781
v 0.0749568939 0.004499998 0.20753555
v 0.0746106654 0.004499998 0.2071515
v 0.0763999447 0.004499998 0.202632
v 0.07430746 0.004499998 0.201263964
v 0.07405101 0.004499998 0.201703548
v 0.0763999447 0.004499998 0.205368042
v 0.07430746 0.004499998 0.206736058
v 0.07405101 0.004499998 0.206296489
v 0.076167956 0.004499998 0.203079775
v 0.07384349 0.004499998 0.202159539
v 0.07368544 0.004499998 0.202624232
v 0.076167956 0.004499998 0.204920247
v 0.07384349 0.004499998 0.2058405
v 0.07368544 0.004499998 0.2053758
v 0.07603417 0.004499998 0.2035451
v 0.0735759 0.004499998 0.203090191
v 0.07351266 0.004499998 0.203550741
v 0.07603417 0.004499998 0.204454929
v 0.0735759 0.004499998 0.204909831
v 0.07351266 0.004499998 0.204449281
v 0.07599243 0.004499998 0.204000011
v 0.07349243 0.004499998 0.204000011
f 1 2 3
f 4 1 3
f 4 3 5
f 6 4 5
f 5 3 7
f 8 6 5
f 9 5 7
f 8 5 10
f 10 5 9
f 11 8 10
f 12 11 10
f 13 10 9
f 12 10 13
f 11 12 14
f 15 12 13
f 12 16 14
f 12 15 17
f 16 12 18
f 12 17 18
f 16 18 19
f 19 18 17
f 20 16 19
f 19 17 21
f 20 19 22
f 22 19 21
f 23 20 22
f 22 21 24
f 23 22 25
f 25 22 24
f 26 23 25
f 25 24 27
f 26 25 28
f 28 25 27
f 29 26 28
f 28 27 30
f 29 28 31
f 31 28 30
f 32 29 31
f 31 30 33
f 32 31 34
f 34 31 33
f 35 32 34
f 34 33 36
f 35 34 37
f 37 34 36
f 38 35 37
f 37 36 39
f 38 37 40
f 40 37 39
f 41 38 40
f 40 39 42
f 41 40 43
f 43 40 42
f 44 41 43
f 44 43 45
f 43 42 46
f 45 43 46
f 47 44 45
f 45 46 48
f 49 47 45
f 45 48 50
f 49 45 51
f 51 45 50
f 52 49 51
f 51 50 53
f 52 51 54
f 54 51 53
f 55 52 54
f 54 53 56
f 55 54 57
f 57 54 56
f 58 55 57
f 57 56 59
f 58 57 60
f 60 57 59
f 61 58 60
f 60 59 62
f 61 60 63
f 63 60 62
f 64 61 63
f 63 62 65
f 64 63 66
f 66 63 65
f 67 64 66
f 67 66 68
f 66 65 69
f 68 66 69
f 70 67 68
f 68 69 71
f 72 70 68
f 68 71 73
f 72 68 74
f 74 68 73
f 75 72 74
f 74 73 76
f 75 74 77
f 77 74 76
f 78 75 77
f 77 76 79
f 78 77 80
f 80 77 79
f 81 78 80
f 80 79 82
f 81 80 83
f 83 80 82
f 84 81 83
f 83 82 85
f 84 83 86
f 86 83 85
f 87 84 86
f 86 85 88
f 87 86 89
f 89 86 88
f 89 88 90
f 91 87 89
f 92 89 90
f 91 89 92
f 93 91 92
f 92 94 93
f 94 95 93
f 94 96 95
f 96 94 97
f 96 98 95
f 99 96 97
f 96 100 98
f 101 96 99
f 96 101 100
f 102 101 99
f 103 101 102
f 101 104 100
f 101 103 104
f 105 103 102
f 103 106 104
f 103 105 107
f 103 108 106
f 103 107 109
f 108 103 109
f 110 109 107
f 108 109 110
f 110 107 111
f 112 108 110
f 113 110 111
f 110 113 112
f 113 111 114
f 113 115 112
f 116 113 114
f 113 116 115
f 116 114 117
f 116 118 115
f 119 116 117
f 116 119 118
f 119 117 120
f 119 121 118
f 122 119 120
f 119 122 121
f 122 120 123
f 122 124 121
f 125 122 123
f 122 125 124
f 125 123 126
f 125 127 124
f 128 125 126
f 125 128 127
f 128 126 129
f 128 130 127
f 131 128 129
f 128 131 130
f 131 129 132
f 131 133 130
f 134 131 132
f 131 134 133
f 134 132 135
f 136 134 135
f 134 137 133
f 134 136 137
f 136 135 138
f 136 139 137
f 136 138 140
f 136 141 139
f 142 136 140
f 136 142 141
f 142 140 143
f 142 144 141
f 145 142 143
f 142 145 144
f 145 143 146
f 145 147 144
f 148 145 146
f 145 148 147
f 148 146 149
f 148 150 147
f 151 148 149
f 148 151 150
f 151 149 152
f 151 153 150
f 154 151 152
f 151 154 153
f 154 152 155
f 154 156 153
f 157 154 155
f 154 157 156
f 157 155 158
f 159 157 158
f 157 160 156
f 157 159 160
f 159 158 161
f 159 162 160
f 159 161 163
f 159 164 162
f 165 159 163
f 159 165 164
f 165 163 166
f 165 167 164
f 168 165 166
f 165 168 167
f 168 166 169
f 168 170 167
f 171 168 169
f 168 171 170
f 171 169 172
f 171 173 170
f 174 171 172
f 171 174 173
f 174 172 175
f 174 176 173
f 177 174 175
f 174 177 176
f 177 175 178
f 177 179 176
f 180 177 178
f 177 180 179
f 180 178 181
f 180 182 179
f 183 180 181
f 180 183 182
f 183 184 182
f 185 186 187
f 185 187 188
f 189 185 188
f 188 187 190
f 191 189 188
f 192 188 190
f 191 188 192
f 192 190 193
f 194 191 192
f 195 192 193
f 194 192 195
f 195 193 196
f 197 194 195
f 198 195 196
f 197 195 198
f 198 196 199
f 200 197 198
f 201 198 199
f 200 198 201
f 201 199 202
f 203 200 201
f 204 201 202
f 203 201 204
f 204 202 205
f 206 204 205
f 207 203 204
f 207 204 206
f 206 205 208
f 209 207 206
f 210 206 208
f 211 209 206
f 212 206 210
f 211 206 212
f 213 212 210
f 214 211 212
f 215 212 213
f 215 214 212
f 216 215 213
f 215 216 214
f 216 213 217
f 216 218 214
f 219 216 217
f 216 219 218
f 219 217 220
f 219 221 218
f 222 219 220
f 219 222 221
f 222 220 223
f 222 224 221
f 225 222 223
f 222 225 224
f 225 223 226
f 225 227 224
f 228 225 226
f 225 228 227
f 228 226 229
f 228 230 227
f 231 228 229
f 228 231 230
f 231 229 232
f 230 231 233
f 231 232 233
f 232 234 233
f 234 235 233
f 233 235 236
f 234 237 235
f 235 238 236
f 237 239 235
f 235 239 238
f 237 240 239
f 239 241 238
f 240 242 239
f 239 242 241
f 240 243 242
f 242 244 241
f 243 245 242
f 242 245 244
f 243 246 245
f 245 247 244
f 246 248 245
f 245 248 247
f 246 249 248
f 248 250 247
f 249 251 248
f 248 251 250
f 249 252 251
f 252 253 251
f 251 254 250
f 251 253 254
f 252 255 253
f 253 256 254
f 255 257 253
f 253 258 256
f 257 259 253
f 253 259 258
f 257 260 259
f 259 261 258
f 260 262 259
f 259 262 261
f 260 263 262
f 263 261 262
f 264 263 260
f 263 265 261
f 266 263 264
f 263 266 265
f 267 266 264
f 266 268 265
f 269 266 267
f 266 269 268
f 270 269 267
f 269 271 268
f 272 269 270
f 269 272 271
f 273 272 270
f 272 274 271
f 275 272 273
f 272 275 274
f 276 275 273
f 275 277 274
f 278 275 276
f 275 278 277
f 279 278 276
f 278 280 277
f 278 279 280
f 281 282 283
f 281 283 284
f 285 281 284
f 284 283 286
f 287 285 284
f 288 284 286
f 287 284 288
f 288 286 289
f 290 287 288
f 291 288 289
f 290 288 291
f 291 289 292
f 293 290 291
f 294 291 292
f 293 291 294
f 294 292 295
f 296 293 294
f 297 294 295
f 296 294 297
f 297 295 298
f 299 296 297
f 300 297 298
f 299 297 300
f 300 298 301
f 302 300 301
f 303 299 300
f 303 300 302
f 302 301 304
f 305 303 302
f 306 302 304
f 307 305 302
f 308 302 306
f 307 302 308
f 309 308 306
f 310 307 308
f 311 308 309
f 311 310 308
f 312 311 309
f 311 312 310
f 312 309 313
f 312 314 310
f 315 312 313
f 312 315 314
f 315 313 316
f 315 317 314
f 318 315 316
f 315 318 317
f 318 316 319
f 318 320 317
f 321 318 319
f 318 321 320
f 321 319 322
f 321 323 320
f 324 321 322
f 321 324 323
f 324 322 325
f 324 326 323
f 327 324 325
f 324 327 326
f 327 325 328
f 326 327 329
f 327 328 329
f 328 330 329
f 330 331 329
f 329 331 332
f 330 333 331
f 331 334 332
f 333 335 331
f 331 335 334
f 333 336 335
f 335 337 334
f 336 338 335
f 335 338 337
f 336 339 338
f 338 340 337
f 339 341 338
f 338 341 340
f 339 342 341
f 341 343 340
f 342 344 341
f 341 344 343
f 342 345 344
f 344 346 343
f 345 347 344
f 344 347 346
f 345 348 347
f 348 349 347
f 347 350 346
f 347 349 350
f 348 351 349
f 349 352 350
f 351 353 349
f 349 354 352
f 353 355 349
f 349 355 354
f 353 356 355
f 355 357 354
f 356 358 355
f 355 358 357
f 356 359 358
f 359 357 358
f 360 359 356
f 359 361 357
f 362 359 360
f 359 362 361
f 363 362 360
f 362 364 361
f 365 362 363
f 362 365 364
f 366 365 363
f 365 367 364
f 368 365 366
f 365 368 367
f 369 368 366
f 368 370 367
f 371 368 369
f 368 371 370
f 372 371 369
f 371 373 370
f 374 371 372
f 371 374 373
f 375 374 372
f 374 376 373
f 374 375 376
f 377 378 379
f 377 380 378
f 381 377 379
f 377 382 380
f 381 379 383
f 382 384 380
f 385 381 383
f 382 386 384
f 385 383 387
f 386 388 384
f 389 385 387
f 386 390 388
f 389 387 391
f 390 392 388
f 393 389 391
f 390 394 392
f 393 391 395
f 394 396 392
f 397 393 395
f 394 398 396
f 397 395 399
f 398 400 396
f 401 397 399
f 398 402 400
f 401 399 403
f 402 404 400
f 405 401 403
f 402 406 404
f 405 403 407
f 408 405 407
f 406 409 404
f 409 406 410
f 409 410 411
f 412 409 411
f 411 413 412
f 413 414 412
f 413 415 414
f 415 416 414
f 415 417 416
f 417 418 416
f 417 419 418
f 419 420 418
f 419 421 420
f 421 422 420
f 421 423 422
f 423 424 422
f 423 425 424
f 423 426 425
f 426 427 425
f 426 428 427
f 428 429 427
f 428 430 429
f 430 431 429
f 430 432 431
f 432 433 431
f 432 434 433
f 434 435 433
f 434 436 435
f 436 437 435
f 436 438 437
f 438 439 437
f 438 440 439
f 440 408 439
f 408 407 439
f 441 442 443
f 441 444 442
f 445 441 443
f 445 443 446
f 445 446 447
f 441 448 444
f 444 448 449
f 448 450 449
f 451 445 447
f 451 447 452
f 451 452 453
f 448 454 450
f 454 455 450
f 454 456 455
f 457 451 453
f 457 453 458
f 457 458 459
f 454 460 456
f 460 461 456
f 460 462 461
f 463 457 459
f 463 459 464
f 463 464 465
f 460 466 462
f 466 467 462
f 466 468 467
f 469 463 465
f 469 465 470
f 469 470 471
f 466 472 468
f 472 473 468
f 472 474 473
f 475 469 471
f 475 471 476
f 475 476 477
f 472 478 474
f 478 479 474
f 478 480 479
f 481 475 477
f 481 477 482
f 481 482 483
f 478 484 480
f 484 485 480
f 484 486 485
f 487 481 483
f 487 483 488
f 487 488 489
f 484 490 486
f 490 491 486
f 490 492 491
f 490 493 492
f 494 487 489
f 494 489 495
f 494 495 496
f 493 497 492
f 498 494 496
f 498 496 499
f 498 499 500
f 493 501 497
f 502 498 500
f 502 500 503
f 502 503 504
f 501 493 505
f 506 502 504
f 506 504 507
f 506 507 508
f 493 509 505
f 493 510 509
f 510 493 511
f 493 512 511
f 512 513 511
f 514 506 508
f 514 508 515
f 514 515 516
f 512 517 513
f 518 514 516
f 518 516 519
f 518 519 520
f 517 512 521
f 522 518 520
f 522 520 523
f 522 523 524
f 512 525 521
f 526 522 524
f 526 524 527
f 526 527 528
f 529 526 528
f 512 530 525
f 530 512 531
f 529 528 532
f 512 532 531
f 533 529 532
f 512 534 532
f 535 533 532
f 534 536 532
f 536 535 532
f 537 538 539
f 537 540 538
f 541 537 539
f 541 539 542
f 541 542 543
f 537 544 540
f 544 545 540
f 544 546 545
f 547 541 543
f 547 543 548
f 547 548 549
f 544 550 546
f 550 551 546
f 550 552 551
f 553 547 549
f 553 549 554
f 553 554 555
f 550 556 552
f 556 557 552
f 556 558 557
f 559 553 555
f 559 555 560
f 559 560 561
f 556 562 558
f 562 563 558
f 562 564 563
f 565 559 561
f 565 561 566
f 565 566 567
f 562 568 564
f 568 569 564
f 568 570 569
f 571 565 567
f 571 567 572
f 571 572 573
f 568 574 570
f 574 575 570
f 574 576 575
f 577 571 573
f 577 573 578
f 577 578 579
f 574 580 576
f 580 581 576
f 580 582 581
f 583 577 579
f 583 579 584
f 583 584 585
f 580 586 582
f 586 587 582
f 586 588 587
f 589 583 585
f 589 585 590
f 589 590 591
f 586 592 588
f 592 593 588
f 592 594 593
f 595 589 591
f 595 591 596
f 595 596 597
f 592 598 594
f 598 599 594
f 598 600 599
f 601 595 597
f 601 597 602
f 601 602 603
f 598 604 600
f 604 605 600
f 604 606 605
f 607 601 603
f 607 603 608
f 607 608 609
f 604 610 606
f 610 611 606
f 610 612 611
f 613 607 609
f 613 609 614
f 613 614 615
f 610 616 612
f 616 617 612
f 616 618 617
f 619 613 615
f 619 615 620
f 619 620 621
f 616 622 618
f 622 623 618
f 622 624 623
f 625 619 621
f 625 621 626
f 625 626 627
f 622 628 624
f 628 629 624
f 628 630 629
f 631 625 627
f 628 631 630
f 631 627 632
f 630 631 632
