# ROS coordinates: X forward, Y left, Z up; units are metres.
o mesh
v 0.00444880128 -0.139879435 0.071
v 0.0046649985 -0.139619559 0.071
v 0.004095249 -0.139525875 0.0705
v 0.004483085 -0.139441848 0.0707500055
v 0.004253015 -0.139336243 0.0705
v 0.004838478 -0.139306068 0.071
v 0.00437960774 -0.139107466 0.0705
v 0.00464289635 -0.139122 0.0707500055
v 0.00495140254 -0.138950363 0.071
v 0.004462011 -0.1388479 0.0705
v 0.004729487 -0.138759971 0.0707500055
v 0.004990656 -0.138571277 0.071
v 0.00449065864 -0.138571277 0.0705
v 0.00472949445 -0.138382584 0.0707500055
v 0.004951399 -0.138192192 0.071
v 0.004462011 -0.138294652 0.0705
v 0.00464289635 -0.138020575 0.0707500055
v 0.00483848155 -0.1378365 0.071
v 0.00437960774 -0.138035089 0.0705
v 0.004483085 -0.137700722 0.0707500055
v 0.0046649985 -0.13752301 0.071
v 0.004272029 -0.1374399 0.0707500055
v 0.004253015 -0.137806326 0.0705
v 0.004448805 -0.137263134 0.071
v 0.0040952526 -0.1376167 0.0705
v 0.00418892875 -0.137046933 0.071
v 0.003905613 -0.13745892 0.0705
v 0.004011225 -0.137228847 0.0707500055
v 0.00387543812 -0.136873454 0.071
v 0.00351413339 -0.137015477 0.0707500055
v 0.003676843 -0.13733232 0.0705
v 0.00351973623 -0.136760533 0.071
v 0.00341727957 -0.137249917 0.0705
v 0.00314065069 -0.136721283 0.071
v 0.00314065814 -0.137221277 0.0705
v 0.002951961 -0.136982441 0.0707500055
v 0.0027615726 -0.136760533 0.071
v 0.00242342427 -0.137141049 0.0707500055
v 0.00286402926 -0.137249917 0.0705
v 0.00240587816 -0.136873454 0.071
v 0.002604466 -0.137332335 0.0705
v 0.00209238 -0.137046933 0.071
v 0.00237569958 -0.13745892 0.0705
v 0.00183250755 -0.137263134 0.071
v 0.00218606368 -0.1376167 0.0705
v 0.00444880128 -0.139879435 0.0129999891
v 0.004188925 -0.140095621 0.0129999891
v 0.00409524143 -0.139525875 0.0134999976
v 0.004011221 -0.139913708 0.0132499933
v 0.00390560925 -0.139683634 0.0134999976
v 0.003875427 -0.1402691 0.0129999891
v 0.00367683172 -0.139810234 0.0134999976
v 0.00369136035 -0.140073523 0.0132499933
v 0.00351973623 -0.140382022 0.0129999891
v 0.0034172833 -0.139892638 0.0134999976
v 0.003329344 -0.140160114 0.0132499933
v 0.00314065069 -0.140421286 0.0129999891
v 0.00314065069 -0.139921278 0.0134999976
v 0.00295195729 -0.140160114 0.0132499933
v 0.00276156515 -0.140382022 0.0129999891
v 0.00286402553 -0.139892638 0.0134999976
v 0.002589941 -0.140073523 0.0132499933
v 0.00240587443 -0.1402691 0.0129999891
v 0.00260445476 -0.139810234 0.0134999976
v 0.00227008015 -0.139913708 0.0132499933
v 0.0020923838 -0.140095621 0.0129999891
v 0.00200928 -0.139702648 0.0132499933
v 0.00237569213 -0.139683634 0.0134999976
v 0.0018325001 -0.139879435 0.0129999891
v 0.00218606 -0.139525875 0.0134999976
v 0.0016163066 -0.139619559 0.0129999891
v 0.002028294 -0.139336243 0.0134999976
v 0.00179822 -0.139441848 0.0132499933
v 0.00144282728 -0.139306068 0.0129999891
v 0.00158485025 -0.13894476 0.0132499933
v 0.00190169364 -0.139107466 0.0134999976
v 0.00132990628 -0.138950363 0.0129999891
v 0.00181929022 -0.138847917 0.0134999976
v 0.00129064918 -0.138571277 0.0129999891
v 0.00179065019 -0.138571292 0.0134999976
v 0.00155181438 -0.138382584 0.0132499933
v 0.00132990628 -0.1381922 0.0129999891
v 0.00171042234 -0.13785404 0.0132499933
v 0.00181929767 -0.138294652 0.0134999976
v 0.00144282728 -0.137836516 0.0129999891
v 0.00190169364 -0.138035089 0.0134999976
v 0.001616314 -0.13752301 0.0129999891
v 0.00202828646 -0.137806326 0.0134999976
v 0.0018325001 -0.137263134 0.0129999891
v 0.00218606 -0.1376167 0.0134999976
v 0.006676182 -0.142106816 0.0134999976
v 0.00632262975 -0.141753256 0.0129999891
v 0.006848518 -0.141121134 0.0129999891
v 0.007125985 -0.141155779 0.0132499933
v 0.007260494 -0.14140445 0.0134999976
v 0.007270485 -0.140358567 0.0129999891
v 0.00772935525 -0.14055717 0.0134999976
v 0.0076004155 -0.140206188 0.0132499933
v 0.00754516944 -0.139493376 0.0129999891
v 0.008034557 -0.139595836 0.0134999976
v 0.00785750151 -0.139131457 0.0132499933
v 0.007640645 -0.138571277 0.0129999891
v 0.008140657 -0.138571277 0.0134999976
v 0.00785750151 -0.1380111 0.0132499933
v 0.007545162 -0.1376492 0.0129999891
v 0.008034553 -0.137546733 0.0134999976
v 0.0076004155 -0.136936367 0.0132499933
v 0.007270489 -0.136783987 0.0129999891
v 0.0077293627 -0.1365854 0.0134999976
v 0.007125981 -0.135986775 0.0132499933
v 0.006848518 -0.13602142 0.0129999891
v 0.00649940968 -0.135212526 0.0132499933
v 0.007260494 -0.1357381 0.0134999976
v 0.00632262975 -0.1353893 0.0129999891
v 0.006676186 -0.135035753 0.0134999976
v 0.005690504 -0.134863421 0.0129999891
v 0.00597382337 -0.134451434 0.0134999976
v 0.005725153 -0.134585947 0.0132499933
v 0.004927952 -0.134441435 0.0129999891
v 0.00512653962 -0.133982569 0.0134999976
v 0.005027242 -0.134212 0.0132499933
v 0.004249409 -0.1339525 0.0132499933
v 0.00406274572 -0.134166777 0.0129999891
v 0.004165191 -0.133677378 0.0134999976
v 0.00342147425 -0.1338296 0.0132499933
v 0.00314065069 -0.134071276 0.0129999891
v 0.003140647 -0.133571282 0.0134999976
v 0.002580464 -0.133854434 0.0132499933
v 0.00221855566 -0.134166762 0.0129999891
v 0.002116099 -0.133677378 0.0134999976
v 0.00176538527 -0.134024739 0.0132499933
v 0.00135334581 -0.134441435 0.0129999891
v 0.00115476921 -0.133982569 0.0134999976
v 0.00101134926 -0.134325266 0.0132499933
v 0.000590790063 -0.134863421 0.0129999891
v 0.000307478 -0.134451434 0.0134999976
v 0.0003449656 -0.134731144 0.0132499933
v -0.000394880772 -0.135035753 0.0134999976
v -4.133582E-05 -0.1353893 0.0129999891
v -0.0005672127 -0.13602142 0.0129999891
v -0.000394880772 -0.135035753 0.0134999976
v -0.0008446872 -0.135986775 0.0132499933
v -0.0009791926 -0.1357381 0.0134999976
v -0.0009891912 -0.136783987 0.0129999891
v -0.00144805759 -0.1365854 0.0134999976
v -0.00131911784 -0.136936367 0.0132499933
v -0.00126386434 -0.1376492 0.0129999891
v -0.00175325572 -0.137546733 0.0134999976
v -0.00157620013 -0.1380111 0.0132499933
v -0.001359351 -0.138571277 0.0129999891
v -0.001859352 -0.138571277 0.0134999976
v -0.00157620013 -0.139131472 0.0132499933
v -0.00126386434 -0.139493376 0.0129999891
v -0.00175326318 -0.139595821 0.0134999976
v -0.00131911784 -0.1402062 0.0132499933
v -0.0009891838 -0.140358582 0.0129999891
v -0.00144805759 -0.14055717 0.0134999976
v -0.0008446798 -0.141155779 0.0132499933
v -0.0005672127 -0.141121134 0.0129999891
v -0.0002181083 -0.141930044 0.0132499933
v -0.0009791926 -0.14140445 0.0134999976
v -4.132837E-05 -0.141753256 0.0129999891
v -0.000394880772 -0.142106816 0.0134999976
v 0.000590801239 -0.142279148 0.0129999891
v 0.000307478 -0.142691135 0.0134999976
v 0.0005561486 -0.142556608 0.0132499933
v 0.00135335326 -0.142701119 0.0129999891
v 0.00115476549 -0.143159986 0.0134999976
v 0.00125405192 -0.142930552 0.0132499933
v 0.00203189254 -0.143190056 0.0132499933
v 0.002218552 -0.142975792 0.0129999891
v 0.002116099 -0.143465191 0.0134999976
v 0.00285982341 -0.143312976 0.0132499933
v 0.00314064324 -0.143071279 0.0129999891
v 0.00314065814 -0.143571287 0.0134999976
v 0.00370083749 -0.143288136 0.0132499933
v 0.00406274945 -0.142975792 0.0129999891
v 0.00416520238 -0.143465191 0.0134999976
v 0.004515916 -0.14311783 0.0132499933
v 0.004927948 -0.142701119 0.0129999891
v 0.00512652844 -0.143159986 0.0134999976
v 0.005269952 -0.142817289 0.0132499933
v 0.005690515 -0.142279148 0.0129999891
v 0.00597382337 -0.142691121 0.0134999976
v 0.0059363395 -0.142411411 0.0132499933
v 0.00632262975 -0.141753256 0.0129999891
v 0.006676182 -0.142106816 0.0134999976
v -0.000394880772 -0.135035753 0.0134999976
v -0.000394873321 -0.135035753 0.0705
v 0.000307481736 -0.134451434 0.0705
v 0.0004201308 -0.1343762 0.042
v 0.000307478 -0.134451434 0.0134999976
v 0.00115477294 -0.133982569 0.0705
v 0.00115476921 -0.133982569 0.0134999976
v 0.00141968951 -0.133876786 0.042
v 0.00211611018 -0.133677378 0.0705
v 0.002116099 -0.133677378 0.0134999976
v 0.002550982 -0.133606181 0.042
v 0.00314065441 -0.133571282 0.0705
v 0.003140647 -0.133571282 0.0134999976
v 0.00373031944 -0.133606166 0.042
v 0.00416520238 -0.133677378 0.0705
v 0.004165191 -0.133677378 0.0134999976
v 0.004861623 -0.133876786 0.042
v 0.005126547 -0.133982569 0.0705
v 0.00512653962 -0.133982569 0.0134999976
v 0.005861178 -0.1343762 0.042
v 0.005973831 -0.134451434 0.0705
v 0.0066761896 -0.135035753 0.042
v 0.00597382337 -0.134451434 0.0134999976
v 0.00667619333 -0.135035753 0.0705
v 0.006676186 -0.135035753 0.0134999976
v 0.00726050138 -0.1357381 0.0705
v 0.007260494 -0.1357381 0.0134999976
v 0.00733573735 -0.135850757 0.042
v 0.00772936642 -0.1365854 0.0705
v 0.0077293627 -0.1365854 0.0134999976
v 0.007729359 -0.1365854 0.042
v 0.008002523 -0.137404159 0.042
v 0.008034561 -0.137546733 0.0705
v 0.008034553 -0.137546733 0.0134999976
v 0.008131914 -0.138275668 0.042
v 0.008140657 -0.138571277 0.0705
v 0.008140657 -0.138571277 0.0134999976
v 0.008105755 -0.139160946 0.042
v 0.008034561 -0.139595836 0.0705
v 0.008034557 -0.139595836 0.0134999976
v 0.007926498 -0.14001894 0.042
v 0.00772936642 -0.14055717 0.0705
v 0.00772935525 -0.14055717 0.0134999976
v 0.007610135 -0.14081265 0.042
v 0.00726050138 -0.14140445 0.0705
v 0.007260494 -0.14140445 0.0134999976
v 0.007182896 -0.141514108 0.042
v 0.0066761896 -0.142106816 0.0705
v 0.006676182 -0.142106816 0.0134999976
v 0.005973827 -0.142691121 0.0705
v 0.005861178 -0.142766371 0.042
v 0.00597382337 -0.142691121 0.0134999976
v 0.00512654334 -0.143159986 0.0705
v 0.00512652844 -0.143159986 0.0134999976
v 0.00486161932 -0.143265784 0.042
v 0.00416520238 -0.143465191 0.0705
v 0.00416520238 -0.143465191 0.0134999976
v 0.00373031944 -0.143536389 0.042
v 0.00314065814 -0.143571287 0.0705
v 0.00314065814 -0.143571287 0.0134999976
v 0.00255098939 -0.143536389 0.042
v 0.00211610645 -0.143465191 0.0705
v 0.002116099 -0.143465191 0.0134999976
v 0.00141968578 -0.143265784 0.042
v 0.00115476921 -0.143159986 0.0705
v 0.00115476549 -0.143159986 0.0134999976
v 0.0004201308 -0.142766371 0.042
v 0.000307481736 -0.142691135 0.0705
v -0.000394880772 -0.142106816 0.042
v 0.000307478 -0.142691135 0.0134999976
v -0.000394877046 -0.142106816 0.0705
v -0.000394880772 -0.142106816 0.0134999976
v -0.0009791888 -0.14140445 0.0705
v -0.0009791926 -0.14140445 0.0134999976
v -0.00105442852 -0.1412918 0.042
v -0.00144805014 -0.14055717 0.0705
v -0.00144805759 -0.14055717 0.0134999976
v -0.00144805014 -0.14055717 0.042
v -0.0017212145 -0.139738411 0.042
v -0.00175324827 -0.139595821 0.0705
v -0.00175326318 -0.139595821 0.0134999976
v -0.00185059756 -0.1388669 0.042
v -0.00185934454 -0.138571277 0.0705
v -0.001859352 -0.138571277 0.0134999976
v -0.00182445347 -0.137981609 0.042
v -0.00175324827 -0.137546733 0.0705
v -0.00175325572 -0.137546733 0.0134999976
v -0.00164518878 -0.137123629 0.042
v -0.00144805014 -0.1365854 0.0705
v -0.00144805759 -0.1365854 0.0134999976
v -0.0013288334 -0.136329919 0.042
v -0.0009791926 -0.1357381 0.0705
v -0.0009791926 -0.1357381 0.0134999976
v -0.0009015873 -0.135628447 0.042
v -0.000394873321 -0.135035753 0.0705
v -0.000394880772 -0.135035753 0.0134999976
v 0.00409524143 -0.139525875 0.0134999976
v 0.004253011 -0.139336243 0.0134999976
v 0.00444880128 -0.139879435 0.0129999891
v 0.004570883 -0.139288515 0.0132499933
v 0.00437959656 -0.139107466 0.0134999976
v 0.00466498733 -0.139619559 0.0129999891
v 0.004838474 -0.139306068 0.0129999891
v 0.00446200743 -0.1388479 0.0134999976
v 0.004951395 -0.138950363 0.0129999891
v 0.004729487 -0.138759971 0.0132499933
v 0.004490651 -0.138571277 0.0134999976
v 0.0046964474 -0.138197809 0.0132499933
v 0.00499064848 -0.138571277 0.0129999891
v 0.004462011 -0.138294652 0.0134999976
v 0.004951395 -0.138192192 0.0129999891
v 0.00437959656 -0.138035089 0.0134999976
v 0.004838474 -0.1378365 0.0129999891
v 0.00448307768 -0.137700722 0.0132499933
v 0.00425300375 -0.137806326 0.0134999976
v 0.00427202135 -0.1374399 0.0132499933
v 0.0046649985 -0.13752301 0.0129999816
v 0.004095245 -0.1376167 0.0134999976
v 0.00444879755 -0.137263134 0.0129999891
v 0.00390560552 -0.13745892 0.0134999976
v 0.0041889213 -0.137046933 0.0129999816
v 0.0040112175 -0.137228847 0.0132499933
v 0.00367683545 -0.13733232 0.0134999976
v 0.003875427 -0.136873454 0.0129999891
v 0.00369136035 -0.137069046 0.0132499933
v 0.00341727585 -0.137249917 0.0134999976
v 0.00351973623 -0.136760533 0.0129999891
v 0.003329344 -0.136982441 0.0132499933
v 0.00314065069 -0.137221277 0.0134999976
v 0.003140647 -0.136721283 0.0129999891
v 0.00295195729 -0.136982441 0.0132499933
v 0.00286402181 -0.137249917 0.0134999976
v 0.00276156515 -0.136760533 0.0129999891
v 0.002589941 -0.137069046 0.0132499933
v 0.00260445848 -0.137332335 0.0134999976
v 0.00240587443 -0.136873454 0.0129999891
v 0.00227008015 -0.137228847 0.0132499933
v 0.0023756884 -0.13745892 0.0134999976
v 0.00209237635 -0.137046933 0.0129999891
v 0.00218606 -0.1376167 0.0134999976
v 0.0018325001 -0.137263134 0.0129999891
v 0.00218606368 -0.1376167 0.0705
v 0.00218606 -0.1376167 0.0134999976
v 0.0023756884 -0.13745892 0.0134999976
v 0.0024061203 -0.13743861 0.042
v 0.00237569958 -0.13745892 0.0705
v 0.00260445848 -0.137332335 0.0134999976
v 0.002604466 -0.137332335 0.0705
v 0.00267599523 -0.13730377 0.042
v 0.00286402181 -0.137249917 0.0134999976
v 0.00286402926 -0.137249917 0.0705
v 0.00298143923 -0.1372307 0.042
v 0.00314065069 -0.137221277 0.0134999976
v 0.00314065814 -0.137221277 0.0705
v 0.00329986587 -0.1372307 0.042
v 0.00341727585 -0.137249917 0.0134999976
v 0.00341727957 -0.137249917 0.0705
v 0.003605321 -0.13730377 0.042
v 0.00367683545 -0.13733232 0.0134999976
v 0.003676843 -0.13733232 0.0705
v 0.003875196 -0.13743861 0.042
v 0.00390560552 -0.13745892 0.0134999976
v 0.004095249 -0.1376167 0.042
v 0.003905613 -0.13745892 0.0705
v 0.004095245 -0.1376167 0.0134999976
v 0.0040952526 -0.1376167 0.0705
v 0.00425300375 -0.137806326 0.0134999976
v 0.004253015 -0.137806326 0.0705
v 0.004273325 -0.137836739 0.042
v 0.00437959656 -0.138035089 0.0134999976
v 0.00437960774 -0.138035089 0.0705
v 0.00437960774 -0.138035089 0.042
v 0.00445336476 -0.138256162 0.042
v 0.004462011 -0.138294652 0.0134999976
v 0.004462011 -0.138294652 0.0705
v 0.00448828936 -0.138491467 0.042
v 0.004490651 -0.138571277 0.0134999976
v 0.00449065864 -0.138571277 0.0705
v 0.00448123366 -0.1387305 0.042
v 0.00446200743 -0.1388479 0.0134999976
v 0.004462011 -0.1388479 0.0705
v 0.004432831 -0.13896215 0.042
v 0.00437959656 -0.139107466 0.0134999976
v 0.00437960774 -0.139107466 0.0705
v 0.00434741 -0.139176458 0.042
v 0.004253011 -0.139336243 0.0134999976
v 0.004253015 -0.139336243 0.0705
v 0.00423205644 -0.139365852 0.042
v 0.00409524143 -0.139525875 0.0134999976
v 0.004095249 -0.139525875 0.0705
v 0.00390560925 -0.139683634 0.0134999976
v 0.00387518853 -0.139703959 0.042
v 0.003905613 -0.139683634 0.0705
v 0.00367683172 -0.139810234 0.0134999976
v 0.00367684662 -0.139810234 0.0705
v 0.0036053136 -0.1398388 0.042
v 0.0034172833 -0.139892638 0.0134999976
v 0.0034172833 -0.139892638 0.0705
v 0.00329986215 -0.13991186 0.042
v 0.00314065069 -0.139921278 0.0134999976
v 0.00314065814 -0.139921278 0.0705
v 0.002981443 -0.13991186 0.042
v 0.00286402553 -0.139892638 0.0134999976
v 0.00286402926 -0.139892638 0.0705
v 0.00267599523 -0.1398388 0.042
v 0.00260445476 -0.139810234 0.0134999976
v 0.002604466 -0.139810234 0.0705
v 0.00240611285 -0.139703959 0.042
v 0.00237569213 -0.139683634 0.0134999976
v 0.00218606 -0.139525875 0.042
v 0.00237569958 -0.139683634 0.0705
v 0.00218606 -0.139525875 0.0134999976
v 0.00218606368 -0.139525875 0.0705
v 0.002028294 -0.139336243 0.0134999976
v 0.00202829763 -0.139336243 0.0705
v 0.00200798362 -0.139305815 0.042
v 0.00190169364 -0.139107466 0.0134999976
v 0.00190170109 -0.139107466 0.0705
v 0.00190170109 -0.139107466 0.042
v 0.00182794407 -0.1388864 0.042
v 0.00181929022 -0.138847917 0.0134999976
v 0.00181929767 -0.138847917 0.0705
v 0.00179301947 -0.138651088 0.042
v 0.00179065019 -0.138571292 0.0134999976
v 0.00179065764 -0.138571292 0.0705
v 0.00180006772 -0.138412073 0.042
v 0.00181929767 -0.138294652 0.0134999976
v 0.0018193014 -0.138294652 0.0705
v 0.00184847042 -0.1381804 0.042
v 0.00190169364 -0.138035089 0.0134999976
v 0.00190170482 -0.138035089 0.0705
v 0.00193389878 -0.137966111 0.042
v 0.00202828646 -0.137806326 0.0134999976
v 0.00202829763 -0.137806326 0.0705
v 0.002049245 -0.137776718 0.042
v 0.00218606 -0.1376167 0.0134999976
v 0.00218606368 -0.1376167 0.0705
v 0.0066761896 -0.142106816 0.0705
v 0.006322637 -0.141753256 0.071
v 0.005690515 -0.142279148 0.071
v 0.005725153 -0.142556608 0.0707500055
v 0.005973827 -0.142691121 0.0705
v 0.004927952 -0.142701119 0.071
v 0.00512654334 -0.143159986 0.0705
v 0.00477557257 -0.143031046 0.0707500055
v 0.00406274945 -0.142975792 0.071
v 0.00416520238 -0.143465191 0.0705
v 0.00370083749 -0.143288136 0.0707500055
v 0.00314065441 -0.143071279 0.071
v 0.00314065814 -0.143571287 0.0705
v 0.00258047134 -0.143288136 0.0707500055
v 0.00221855938 -0.142975792 0.071
v 0.00211610645 -0.143465191 0.0705
v 0.00150574 -0.143031046 0.0707500055
v 0.00135336071 -0.142701119 0.071
v 0.00115476921 -0.143159986 0.0705
v 0.000556159765 -0.142556608 0.0707500055
v 0.000590801239 -0.142279148 0.071
v -0.000218100846 -0.141930044 0.0707500055
v 0.000307481736 -0.142691135 0.0705
v -4.13246453E-05 -0.141753256 0.071
v -0.000394877046 -0.142106816 0.0705
v -0.00056720525 -0.141121134 0.071
v -0.0009791888 -0.14140445 0.0705
v -0.000844676048 -0.141155779 0.0707500055
v -0.0009891838 -0.140358582 0.071
v -0.00144805014 -0.14055717 0.0705
v -0.001218617 -0.140457869 0.0707500055
v -0.00147812814 -0.139680043 0.0707500055
v -0.00126385689 -0.139493376 0.071
v -0.00175324827 -0.139595821 0.0705
v -0.00160103291 -0.1388521 0.0707500055
v -0.00135934353 -0.138571277 0.071
v -0.00185934454 -0.138571277 0.0705
v -0.0015761964 -0.1380111 0.0707500055
v -0.00126385689 -0.1376492 0.071
v -0.00175324827 -0.137546733 0.0705
v -0.001405891 -0.137196 0.0707500055
v -0.0009891838 -0.136783987 0.071
v -0.00144805014 -0.1365854 0.0705
v -0.001105357 -0.136441976 0.0707500055
v -0.000567209 -0.13602142 0.071
v -0.0009791926 -0.1357381 0.0705
v -0.0006994754 -0.1357756 0.0707500055
v -0.000394873321 -0.135035753 0.0705
v -4.132837E-05 -0.1353893 0.071
v 0.0005907938 -0.134863421 0.071
v -0.000394873321 -0.135035753 0.0705
v 0.000556159765 -0.134585947 0.0707500055
v 0.000307481736 -0.134451434 0.0705
v 0.001353357 -0.134441435 0.071
v 0.00115477294 -0.133982569 0.0705
v 0.00150573626 -0.134111509 0.0707500055
v 0.002218563 -0.134166762 0.071
v 0.00211611018 -0.133677378 0.0705
v 0.00258047134 -0.133854434 0.0707500055
v 0.00314065441 -0.134071276 0.071
v 0.00314065441 -0.133571282 0.0705
v 0.003700845 -0.133854434 0.0707500055
v 0.004062753 -0.134166777 0.071
v 0.00416520238 -0.133677378 0.0705
v 0.00477557629 -0.134111509 0.0707500055
v 0.004927952 -0.134441435 0.071
v 0.005126547 -0.133982569 0.0705
v 0.005725153 -0.134585947 0.0707500055
v 0.00569051132 -0.134863421 0.071
v 0.0064994134 -0.135212526 0.0707500055
v 0.005973831 -0.134451434 0.0705
v 0.006322637 -0.1353893 0.071
v 0.00667619333 -0.135035753 0.0705
v 0.006848518 -0.13602142 0.071
v 0.00726050138 -0.1357381 0.0705
v 0.0071259886 -0.135986775 0.0707500055
v 0.00727049634 -0.136783987 0.071
v 0.00772936642 -0.1365854 0.0705
v 0.00749992952 -0.136684686 0.0707500055
v 0.00775944069 -0.137462527 0.0707500055
v 0.00754516944 -0.1376492 0.071
v 0.008034561 -0.137546733 0.0705
v 0.007882349 -0.13829045 0.0707500055
v 0.00764065236 -0.138571277 0.071
v 0.008140657 -0.138571277 0.0705
v 0.007857505 -0.139131457 0.0707500055
v 0.00754516944 -0.139493376 0.071
v 0.008034561 -0.139595836 0.0705
v 0.00768720731 -0.13994655 0.0707500055
v 0.00727049261 -0.140358567 0.071
v 0.00772936642 -0.14055717 0.0705
v 0.00738666952 -0.140700579 0.0707500055
v 0.006848518 -0.141121134 0.071
v 0.00726050138 -0.14140445 0.0705
v 0.00698079169 -0.141366974 0.0707500055
v 0.006322637 -0.141753256 0.071
v 0.0066761896 -0.142106816 0.0705
v 0.004095249 -0.139525875 0.0705
v 0.003905613 -0.139683634 0.0705
v 0.00444880128 -0.139879435 0.071
v 0.003857892 -0.140001521 0.0707500055
v 0.00367684662 -0.139810234 0.0705
v 0.00418893248 -0.140095621 0.071
v 0.0038754344 -0.1402691 0.071
v 0.0034172833 -0.139892638 0.0705
v 0.00351974 -0.140382022 0.071
v 0.00332934782 -0.140160114 0.0707500055
v 0.00314065814 -0.139921278 0.0705
v 0.00276717544 -0.140127078 0.0707500055
v 0.00314065814 -0.140421286 0.071
v 0.00286402926 -0.139892638 0.0705
v 0.0027615726 -0.140382022 0.071
v 0.002604466 -0.139810234 0.0705
v 0.00240587816 -0.1402691 0.071
v 0.0022700876 -0.139913708 0.0707500055
v 0.00237569958 -0.139683634 0.0705
v 0.00200928748 -0.139702648 0.0707500055
v 0.0020923838 -0.140095621 0.071
v 0.00218606368 -0.139525875 0.0705
v 0.00183250755 -0.139879435 0.071
v 0.00202829763 -0.139336243 0.0705
v 0.001616314 -0.139619559 0.071
v 0.00179822743 -0.139441848 0.0707500055
v 0.00190170109 -0.139107466 0.0705
v 0.00144283473 -0.139306068 0.071
v 0.00163841993 -0.139122 0.0707500055
v 0.00181929767 -0.138847917 0.0705
v 0.00132991 -0.138950363 0.071
v 0.00155182183 -0.138759971 0.0707500055
v 0.00179065764 -0.138571292 0.0705
v 0.0012906529 -0.138571277 0.071
v 0.00155182183 -0.138382584 0.0707500055
v 0.0018193014 -0.138294652 0.0705
v 0.00132991 -0.1381922 0.071
v 0.00163841993 -0.138020575 0.0707500055
v 0.00190170482 -0.138035089 0.0705
v 0.00144283473 -0.137836516 0.071
v 0.00179822743 -0.1377007 0.0707500055
v 0.00202829763 -0.137806326 0.0705
v 0.001616314 -0.13752301 0.071
v 0.00218606368 -0.1376167 0.0705
v 0.00183250755 -0.137263134 0.071
v 0.0020923838 -0.140095621 0.071
v 0.000590801239 -0.142279148 0.071
v 0.00135336071 -0.142701119 0.071
v -4.13246453E-05 -0.141753256 0.071
v 0.00240587816 -0.1402691 0.071
v 0.00183250755 -0.139879435 0.071
v 0.00221855938 -0.142975792 0.071
v -0.00056720525 -0.141121134 0.071
v 0.0027615726 -0.140382022 0.071
v 0.001616314 -0.139619559 0.071
v 0.00314065441 -0.143071279 0.071
v -0.0009891838 -0.140358582 0.071
v 0.00314065814 -0.140421286 0.071
v 0.00144283473 -0.139306068 0.071
v 0.00406274945 -0.142975792 0.071
v -0.00126385689 -0.139493376 0.071
v 0.00351974 -0.140382022 0.071
v 0.00132991 -0.138950363 0.071
v 0.004927952 -0.142701119 0.071
v -0.00135934353 -0.138571277 0.071
v 0.0038754344 -0.1402691 0.071
v 0.0012906529 -0.138571277 0.071
v 0.005690515 -0.142279148 0.071
v -0.00126385689 -0.1376492 0.071
v 0.00418893248 -0.140095621 0.071
v 0.00132991 -0.1381922 0.071
v -0.0009891838 -0.136783987 0.071
v 0.00144283473 -0.137836516 0.071
v 0.006322637 -0.141753256 0.071
v 0.00444880128 -0.139879435 0.071
v 0.0046649985 -0.139619559 0.071
v 0.006848518 -0.141121134 0.071
v 0.004838478 -0.139306068 0.071
v 0.00727049261 -0.140358567 0.071
v 0.00495140254 -0.138950363 0.071
v 0.00754516944 -0.139493376 0.071
v 0.004990656 -0.138571277 0.071
v 0.00764065236 -0.138571277 0.071
v 0.004951399 -0.138192192 0.071
v 0.00754516944 -0.1376492 0.071
v 0.00483848155 -0.1378365 0.071
v 0.00727049634 -0.136783987 0.071
v 0.0046649985 -0.13752301 0.071
v 0.006848518 -0.13602142 0.071
v 0.004448805 -0.137263134 0.071
v 0.006322637 -0.1353893 0.071
v 0.00569051132 -0.134863421 0.071
v 0.00418892875 -0.137046933 0.071
v 0.004927952 -0.134441435 0.071
v 0.00387543812 -0.136873454 0.071
v 0.004062753 -0.134166777 0.071
v 0.00351973623 -0.136760533 0.071
v 0.00314065441 -0.134071276 0.071
v 0.00314065069 -0.136721283 0.071
v 0.002218563 -0.134166762 0.071
v 0.0027615726 -0.136760533 0.071
v 0.001353357 -0.134441435 0.071
v 0.00240587816 -0.136873454 0.071
v 0.0005907938 -0.134863421 0.071
v 0.00209238 -0.137046933 0.071
v -4.132837E-05 -0.1353893 0.071
v 0.00183250755 -0.137263134 0.071
v -0.000567209 -0.13602142 0.071
v 0.001616314 -0.13752301 0.071
v 0.00444879755 -0.137263134 0.0129999891
v 0.00632262975 -0.1353893 0.0129999891
v 0.006848518 -0.13602142 0.0129999891
v 0.005690504 -0.134863421 0.0129999891
v 0.0046649985 -0.13752301 0.0129999816
v 0.0041889213 -0.137046933 0.0129999816
v 0.007270489 -0.136783987 0.0129999891
v 0.004927952 -0.134441435 0.0129999891
v 0.004838474 -0.1378365 0.0129999891
v 0.003875427 -0.136873454 0.0129999891
v 0.007545162 -0.1376492 0.0129999891
v 0.00406274572 -0.134166777 0.0129999891
v 0.004951395 -0.138192192 0.0129999891
v 0.00351973623 -0.136760533 0.0129999891
v 0.007640645 -0.138571277 0.0129999891
v 0.00314065069 -0.134071276 0.0129999891
v 0.00499064848 -0.138571277 0.0129999891
v 0.003140647 -0.136721283 0.0129999891
v 0.00754516944 -0.139493376 0.0129999891
v 0.00221855566 -0.134166762 0.0129999891
v 0.004951395 -0.138950363 0.0129999891
v 0.00276156515 -0.136760533 0.0129999891
v 0.007270485 -0.140358567 0.0129999891
v 0.00135334581 -0.134441435 0.0129999891
v 0.004838474 -0.139306068 0.0129999891
v 0.00240587443 -0.136873454 0.0129999891
v 0.006848518 -0.141121134 0.0129999891
v 0.000590790063 -0.134863421 0.0129999891
v 0.00466498733 -0.139619559 0.0129999891
v 0.00209237635 -0.137046933 0.0129999891
v 0.00632262975 -0.141753256 0.0129999891
v 0.00444880128 -0.139879435 0.0129999891
v -4.133582E-05 -0.1353893 0.0129999891
v 0.0018325001 -0.137263134 0.0129999891
v 0.001616314 -0.13752301 0.0129999891
v -0.0005672127 -0.13602142 0.0129999891
v 0.00144282728 -0.137836516 0.0129999891
v -0.0009891912 -0.136783987 0.0129999891
v 0.00132990628 -0.1381922 0.0129999891
v -0.00126386434 -0.1376492 0.0129999891
v 0.00129064918 -0.138571277 0.0129999891
v -0.001359351 -0.138571277 0.0129999891
v 0.00132990628 -0.138950363 0.0129999891
v -0.00126386434 -0.139493376 0.0129999891
v 0.00144282728 -0.139306068 0.0129999891
v -0.0009891838 -0.140358582 0.0129999891
v 0.0016163066 -0.139619559 0.0129999891
v -0.0005672127 -0.141121134 0.0129999891
v -4.132837E-05 -0.141753256 0.0129999891
v 0.0018325001 -0.139879435 0.0129999891
v 0.000590801239 -0.142279148 0.0129999891
v 0.0020923838 -0.140095621 0.0129999891
v 0.00135335326 -0.142701119 0.0129999891
v 0.00240587443 -0.1402691 0.0129999891
v 0.002218552 -0.142975792 0.0129999891
v 0.00276156515 -0.140382022 0.0129999891
v 0.00314064324 -0.143071279 0.0129999891
v 0.00314065069 -0.140421286 0.0129999891
v 0.00406274945 -0.142975792 0.0129999891
v 0.00351973623 -0.140382022 0.0129999891
v 0.004927948 -0.142701119 0.0129999891
v 0.003875427 -0.1402691 0.0129999891
v 0.005690515 -0.142279148 0.0129999891
v 0.004188925 -0.140095621 0.0129999891
f 1 2 3
f 2 4 3
f 3 4 5
f 2 6 4
f 4 7 5
f 6 8 4
f 4 8 7
f 6 9 8
f 8 10 7
f 9 11 8
f 8 11 10
f 9 12 11
f 11 13 10
f 12 14 11
f 11 14 13
f 12 15 14
f 14 16 13
f 15 17 14
f 14 17 16
f 15 18 17
f 17 19 16
f 18 20 17
f 17 20 19
f 18 21 20
f 21 22 20
f 20 23 19
f 20 22 23
f 21 24 22
f 22 25 23
f 24 26 22
f 22 27 25
f 26 28 22
f 22 28 27
f 26 29 28
f 29 30 28
f 28 31 27
f 28 30 31
f 29 32 30
f 30 33 31
f 32 34 30
f 30 35 33
f 34 36 30
f 30 36 35
f 34 37 36
f 37 38 36
f 36 39 35
f 36 38 39
f 37 40 38
f 38 41 39
f 40 42 38
f 38 43 41
f 42 44 38
f 44 43 38
f 44 45 43
f 46 47 48
f 47 49 48
f 48 49 50
f 47 51 49
f 49 52 50
f 51 53 49
f 49 53 52
f 51 54 53
f 53 55 52
f 54 56 53
f 53 56 55
f 54 57 56
f 56 58 55
f 57 59 56
f 56 59 58
f 57 60 59
f 59 61 58
f 60 62 59
f 59 62 61
f 60 63 62
f 62 64 61
f 63 65 62
f 62 65 64
f 63 66 65
f 66 67 65
f 65 68 64
f 65 67 68
f 66 69 67
f 67 70 68
f 69 71 67
f 67 72 70
f 71 73 67
f 67 73 72
f 71 74 73
f 74 75 73
f 73 76 72
f 73 75 76
f 74 77 75
f 75 78 76
f 77 79 75
f 75 80 78
f 79 81 75
f 75 81 80
f 79 82 81
f 82 83 81
f 81 84 80
f 81 83 84
f 82 85 83
f 83 86 84
f 85 87 83
f 83 88 86
f 87 89 83
f 89 88 83
f 89 90 88
f 91 92 93
f 91 93 94
f 95 91 94
f 94 93 96
f 97 95 94
f 98 94 96
f 97 94 98
f 98 96 99
f 100 97 98
f 101 98 99
f 100 98 101
f 101 99 102
f 103 100 101
f 104 101 102
f 103 101 104
f 104 102 105
f 106 103 104
f 107 104 105
f 106 104 107
f 107 105 108
f 109 106 107
f 110 107 108
f 109 107 110
f 110 108 111
f 112 110 111
f 113 109 110
f 113 110 112
f 112 111 114
f 115 113 112
f 116 112 114
f 117 115 112
f 118 112 116
f 117 112 118
f 119 118 116
f 120 117 118
f 121 118 119
f 121 120 118
f 122 121 119
f 121 122 120
f 122 119 123
f 122 124 120
f 125 122 123
f 122 125 124
f 125 123 126
f 125 127 124
f 128 125 126
f 125 128 127
f 128 126 129
f 128 130 127
f 131 128 129
f 128 131 130
f 131 129 132
f 131 133 130
f 134 131 132
f 131 134 133
f 134 132 135
f 134 136 133
f 137 134 135
f 134 137 136
f 136 137 138
f 137 135 139
f 137 139 138
f 139 140 141
f 140 142 141
f 141 142 143
f 140 144 142
f 142 145 143
f 144 146 142
f 142 146 145
f 144 147 146
f 146 148 145
f 147 149 146
f 146 149 148
f 147 150 149
f 149 151 148
f 150 152 149
f 149 152 151
f 150 153 152
f 152 154 151
f 153 155 152
f 152 155 154
f 153 156 155
f 155 157 154
f 156 158 155
f 155 158 157
f 156 159 158
f 159 160 158
f 158 161 157
f 158 160 161
f 159 162 160
f 160 163 161
f 162 164 160
f 160 165 163
f 164 166 160
f 160 166 165
f 164 167 166
f 166 168 165
f 167 169 166
f 166 169 168
f 167 170 169
f 170 168 169
f 171 170 167
f 170 172 168
f 173 170 171
f 170 173 172
f 174 173 171
f 173 175 172
f 176 173 174
f 173 176 175
f 177 176 174
f 176 178 175
f 179 176 177
f 176 179 178
f 180 179 177
f 179 181 178
f 182 179 180
f 179 182 181
f 183 182 180
f 182 184 181
f 185 182 183
f 182 185 184
f 186 185 183
f 185 187 184
f 185 186 187
f 188 189 190
f 188 190 191
f 192 188 191
f 191 190 193
f 194 192 191
f 195 191 193
f 194 191 195
f 195 193 196
f 197 194 195
f 198 195 196
f 197 195 198
f 198 196 199
f 200 197 198
f 201 198 199
f 200 198 201
f 201 199 202
f 203 200 201
f 204 201 202
f 203 201 204
f 204 202 205
f 206 203 204
f 207 204 205
f 206 204 207
f 207 205 208
f 209 207 208
f 210 206 207
f 210 207 209
f 209 208 211
f 212 210 209
f 213 209 211
f 214 212 209
f 215 209 213
f 214 209 215
f 216 215 213
f 217 214 215
f 218 215 216
f 218 217 215
f 219 218 216
f 218 219 217
f 219 216 220
f 219 221 217
f 222 219 220
f 219 222 221
f 222 220 223
f 222 224 221
f 225 222 223
f 222 225 224
f 225 223 226
f 225 227 224
f 228 225 226
f 225 228 227
f 228 226 229
f 228 230 227
f 231 228 229
f 228 231 230
f 231 229 232
f 231 233 230
f 234 231 232
f 231 234 233
f 234 232 235
f 233 234 236
f 234 235 236
f 235 237 236
f 237 238 236
f 236 238 239
f 237 240 238
f 238 241 239
f 240 242 238
f 238 242 241
f 240 243 242
f 242 244 241
f 243 245 242
f 242 245 244
f 243 246 245
f 245 247 244
f 246 248 245
f 245 248 247
f 246 249 248
f 248 250 247
f 249 251 248
f 248 251 250
f 249 252 251
f 251 253 250
f 252 254 251
f 251 254 253
f 252 255 254
f 255 256 254
f 254 257 253
f 254 256 257
f 255 258 256
f 256 259 257
f 258 260 256
f 256 261 259
f 260 262 256
f 256 262 261
f 260 263 262
f 262 264 261
f 263 265 262
f 262 265 264
f 263 266 265
f 266 264 265
f 267 266 263
f 266 268 264
f 269 266 267
f 266 269 268
f 270 269 267
f 269 271 268
f 272 269 270
f 269 272 271
f 273 272 270
f 272 274 271
f 275 272 273
f 272 275 274
f 276 275 273
f 275 277 274
f 278 275 276
f 275 278 277
f 279 278 276
f 278 280 277
f 281 278 279
f 278 281 280
f 282 281 279
f 281 283 280
f 281 282 283
f 284 285 286
f 285 287 286
f 285 288 287
f 286 287 289
f 287 290 289
f 288 291 287
f 287 292 290
f 291 293 287
f 287 293 292
f 291 294 293
f 294 295 293
f 293 296 292
f 293 295 296
f 294 297 295
f 295 298 296
f 297 299 295
f 295 300 298
f 299 301 295
f 295 301 300
f 299 302 301
f 302 303 301
f 301 304 300
f 301 303 304
f 302 305 303
f 303 306 304
f 305 307 303
f 303 308 306
f 307 309 303
f 303 309 308
f 307 310 309
f 309 311 308
f 310 312 309
f 309 312 311
f 310 313 312
f 312 314 311
f 313 315 312
f 312 315 314
f 313 316 315
f 315 317 314
f 316 318 315
f 315 318 317
f 316 319 318
f 318 320 317
f 319 321 318
f 318 321 320
f 319 322 321
f 321 323 320
f 322 324 321
f 321 324 323
f 322 325 324
f 324 326 323
f 325 327 324
f 327 326 324
f 327 328 326
f 329 330 331
f 329 331 332
f 333 329 332
f 332 331 334
f 335 333 332
f 336 332 334
f 335 332 336
f 336 334 337
f 338 335 336
f 339 336 337
f 338 336 339
f 339 337 340
f 341 338 339
f 342 339 340
f 341 339 342
f 342 340 343
f 344 341 342
f 345 342 343
f 344 342 345
f 345 343 346
f 347 344 345
f 348 345 346
f 347 345 348
f 348 346 349
f 350 348 349
f 351 347 348
f 351 348 350
f 350 349 352
f 353 351 350
f 354 350 352
f 355 353 350
f 356 350 354
f 355 350 356
f 357 356 354
f 358 355 356
f 359 356 357
f 359 358 356
f 360 359 357
f 359 360 358
f 360 357 361
f 360 362 358
f 363 360 361
f 360 363 362
f 363 361 364
f 363 365 362
f 366 363 364
f 363 366 365
f 366 364 367
f 366 368 365
f 369 366 367
f 366 369 368
f 369 367 370
f 369 371 368
f 372 369 370
f 369 372 371
f 372 370 373
f 372 374 371
f 375 372 373
f 372 375 374
f 375 373 376
f 374 375 377
f 375 376 377
f 376 378 377
f 378 379 377
f 377 379 380
f 378 381 379
f 379 382 380
f 381 383 379
f 379 383 382
f 381 384 383
f 383 385 382
f 384 386 383
f 383 386 385
f 384 387 386
f 386 388 385
f 387 389 386
f 386 389 388
f 387 390 389
f 389 391 388
f 390 392 389
f 389 392 391
f 390 393 392
f 392 394 391
f 393 395 392
f 392 395 394
f 393 396 395
f 396 397 395
f 395 398 394
f 395 397 398
f 396 399 397
f 397 400 398
f 399 401 397
f 397 402 400
f 401 403 397
f 397 403 402
f 401 404 403
f 403 405 402
f 404 406 403
f 403 406 405
f 404 407 406
f 407 405 406
f 408 407 404
f 407 409 405
f 410 407 408
f 407 410 409
f 411 410 408
f 410 412 409
f 413 410 411
f 410 413 412
f 414 413 411
f 413 415 412
f 416 413 414
f 413 416 415
f 417 416 414
f 416 418 415
f 419 416 417
f 416 419 418
f 420 419 417
f 419 421 418
f 422 419 420
f 419 422 421
f 423 422 420
f 422 424 421
f 422 423 424
f 425 426 427
f 425 427 428
f 429 425 428
f 428 427 430
f 431 429 428
f 432 428 430
f 431 428 432
f 432 430 433
f 434 431 432
f 435 432 433
f 434 432 435
f 435 433 436
f 437 434 435
f 438 435 436
f 437 435 438
f 438 436 439
f 440 437 438
f 441 438 439
f 440 438 441
f 441 439 442
f 443 440 441
f 444 441 442
f 443 441 444
f 444 442 445
f 446 444 445
f 447 443 444
f 447 444 446
f 446 445 448
f 449 447 446
f 450 446 448
f 451 449 446
f 452 446 450
f 451 446 452
f 453 452 450
f 454 451 452
f 455 452 453
f 455 454 452
f 456 455 453
f 455 456 454
f 456 453 457
f 456 458 454
f 459 456 457
f 456 459 458
f 459 457 460
f 459 461 458
f 462 459 460
f 459 462 461
f 462 460 463
f 462 464 461
f 465 462 463
f 462 465 464
f 465 463 466
f 465 467 464
f 468 465 466
f 465 468 467
f 468 466 469
f 468 470 467
f 471 468 469
f 468 471 470
f 470 471 472
f 471 469 473
f 471 473 472
f 473 474 475
f 474 476 475
f 475 476 477
f 474 478 476
f 476 479 477
f 478 480 476
f 476 480 479
f 478 481 480
f 480 482 479
f 481 483 480
f 480 483 482
f 481 484 483
f 483 485 482
f 484 486 483
f 483 486 485
f 484 487 486
f 486 488 485
f 487 489 486
f 486 489 488
f 487 490 489
f 489 491 488
f 490 492 489
f 489 492 491
f 490 493 492
f 493 494 492
f 492 495 491
f 492 494 495
f 493 496 494
f 494 497 495
f 496 498 494
f 494 499 497
f 498 500 494
f 494 500 499
f 498 501 500
f 500 502 499
f 501 503 500
f 500 503 502
f 501 504 503
f 504 502 503
f 505 504 501
f 504 506 502
f 507 504 505
f 504 507 506
f 508 507 505
f 507 509 506
f 510 507 508
f 507 510 509
f 511 510 508
f 510 512 509
f 513 510 511
f 510 513 512
f 514 513 511
f 513 515 512
f 516 513 514
f 513 516 515
f 517 516 514
f 516 518 515
f 519 516 517
f 516 519 518
f 520 519 517
f 519 521 518
f 519 520 521
f 522 523 524
f 523 525 524
f 523 526 525
f 524 525 527
f 525 528 527
f 526 529 525
f 525 530 528
f 529 531 525
f 525 531 530
f 529 532 531
f 532 533 531
f 531 534 530
f 531 533 534
f 532 535 533
f 533 536 534
f 535 537 533
f 533 538 536
f 537 539 533
f 533 539 538
f 537 540 539
f 540 541 539
f 539 542 538
f 539 541 542
f 540 543 541
f 541 544 542
f 543 545 541
f 541 546 544
f 545 547 541
f 541 547 546
f 545 548 547
f 547 549 546
f 548 550 547
f 547 550 549
f 548 551 550
f 550 552 549
f 551 553 550
f 550 553 552
f 551 554 553
f 553 555 552
f 554 556 553
f 553 556 555
f 554 557 556
f 556 558 555
f 557 559 556
f 556 559 558
f 557 560 559
f 559 561 558
f 560 562 559
f 559 562 561
f 560 563 562
f 562 564 561
f 563 565 562
f 565 564 562
f 565 566 564
f 567 568 569
f 567 570 568
f 571 567 569
f 567 572 570
f 571 569 573
f 572 574 570
f 575 571 573
f 572 576 574
f 575 573 577
f 576 578 574
f 579 575 577
f 576 580 578
f 579 577 581
f 580 582 578
f 583 579 581
f 580 584 582
f 583 581 585
f 584 586 582
f 587 583 585
f 584 588 586
f 587 585 589
f 588 590 586
f 591 587 589
f 588 592 590
f 592 593 590
f 592 594 593
f 591 589 595
f 596 591 595
f 597 596 595
f 597 595 598
f 599 597 598
f 599 598 600
f 601 599 600
f 601 600 602
f 603 601 602
f 603 602 604
f 605 603 604
f 605 604 606
f 607 605 606
f 607 606 608
f 609 607 608
f 609 608 610
f 611 609 610
f 611 610 612
f 611 612 613
f 614 611 613
f 614 613 615
f 616 614 615
f 616 615 617
f 618 616 617
f 618 617 619
f 620 618 619
f 620 619 621
f 622 620 621
f 622 621 623
f 624 622 623
f 624 623 625
f 626 624 625
f 625 627 626
f 627 628 626
f 627 629 628
f 629 630 628
f 629 594 630
f 594 629 593
f 631 632 633
f 631 634 632
f 635 631 633
f 631 636 634
f 635 633 637
f 636 638 634
f 639 635 637
f 636 640 638
f 639 637 641
f 640 642 638
f 643 639 641
f 640 644 642
f 643 641 645
f 644 646 642
f 647 643 645
f 644 648 646
f 647 645 649
f 648 650 646
f 651 647 649
f 648 652 650
f 651 649 653
f 652 654 650
f 655 651 653
f 652 656 654
f 655 653 657
f 656 658 654
f 659 655 657
f 656 660 658
f 659 657 661
f 662 659 661
f 660 663 658
f 663 660 664
f 663 664 665
f 666 663 665
f 665 667 666
f 667 668 666
f 667 669 668
f 669 670 668
f 669 671 670
f 671 672 670
f 671 673 672
f 673 674 672
f 673 675 674
f 675 676 674
f 675 677 676
f 677 678 676
f 677 679 678
f 677 680 679
f 680 681 679
f 680 682 681
f 682 683 681
f 682 684 683
f 684 685 683
f 684 686 685
f 686 687 685
f 686 688 687
f 688 689 687
f 688 690 689
f 690 691 689
f 690 692 691
f 692 693 691
f 692 694 693
f 694 662 693
f 662 661 693
