# ROS coordinates: X forward, Y left, Z up; units are metres.
o mesh
v -0.0523000024 -0.0213000011 0.12589
v -0.0525000021 -0.0213000011 0.12589
v -0.0522983335 -0.0213000011 0.1259082
v -0.0524949953 -0.0213000011 0.1259446
v -0.05229298 -0.0213000011 0.125926808
v -0.05247894 -0.0213000011 0.126000434
v -0.0523500033 -0.0213000011 0.126040012
v -0.0524511039 -0.0213000011 0.126054168
v -0.0522837 -0.0213000011 0.125944734
v -0.0524121337 -0.0213000011 0.126102135
v -0.0522707142 -0.0213000011 0.125960708
v -0.0523641668 -0.0213000011 0.1261411
v -0.05225472 -0.0213000011 0.1259737
v -0.05223681 -0.0213000011 0.125982985
v -0.05231043 -0.0213000011 0.126168936
v -0.0522182 -0.0213000011 0.125988334
v -0.05225459 -0.0213000011 0.126185
v -0.0522000045 -0.0213000011 0.12619
v -0.0522 -0.0213000011 0.12599
v -0.0522 -0.0317 0.12599
v -0.0522000045 -0.0317 0.12619
v -0.0522182 -0.0317 0.125988334
v -0.05225459 -0.0317 0.126185
v -0.05223681 -0.0317 0.125982985
v -0.05231043 -0.0317 0.126168936
v -0.0523500033 -0.0317 0.126040012
v -0.0523641668 -0.0317 0.1261411
v -0.05225472 -0.0317 0.1259737
v -0.0524121337 -0.0317 0.126102135
v -0.0522707142 -0.0317 0.125960708
v -0.0524511039 -0.0317 0.126054168
v -0.0522837 -0.0317 0.125944734
v -0.05247894 -0.0317 0.126000434
v -0.05229298 -0.0317 0.125926808
v -0.0524949953 -0.0317 0.1259446
v -0.0522983335 -0.0317 0.1259082
v -0.0525000021 -0.0317 0.12589
v -0.0523000024 -0.0317 0.12589
v -0.0397 -0.0317 0.12589
v -0.0394999981 -0.0317 0.12589
v -0.03970167 -0.0317 0.1259082
v -0.03950501 -0.0317 0.1259446
v -0.03970702 -0.0317 0.125926822
v -0.0395210646 -0.0317 0.126000434
v -0.03965 -0.0317 0.126040012
v -0.0395489037 -0.0317 0.126054168
v -0.0397163033 -0.0317 0.125944734
v -0.03958787 -0.0317 0.126102135
v -0.03972929 -0.0317 0.125960723
v -0.0396358371 -0.0317 0.1261411
v -0.03974528 -0.0317 0.1259737
v -0.03976319 -0.0317 0.125982985
v -0.03968957 -0.0317 0.126168936
v -0.0397818051 -0.0317 0.125988334
v -0.0397454128 -0.0317 0.126185
v -0.0398000032 -0.0317 0.12619
v -0.0398000032 -0.0317 0.12599
v -0.0398000032 -0.0213000011 0.12599
v -0.0398000032 -0.0213000011 0.12619
v -0.0397818051 -0.0213000011 0.125988334
v -0.0397454128 -0.0213000011 0.126185
v -0.03976319 -0.0213000011 0.125982985
v -0.03968957 -0.0213000011 0.126168936
v -0.03965 -0.0213000011 0.126040012
v -0.0396358371 -0.0213000011 0.1261411
v -0.03974528 -0.0213000011 0.1259737
v -0.03958787 -0.0213000011 0.126102135
v -0.03972929 -0.0213000011 0.125960723
v -0.0395489037 -0.0213000011 0.126054168
v -0.0397163033 -0.0213000011 0.125944734
v -0.0395210646 -0.0213000011 0.126000434
v -0.03970702 -0.0213000011 0.125926822
v -0.03950501 -0.0213000011 0.1259446
v -0.03970167 -0.0213000011 0.1259082
v -0.0394999981 -0.0213000011 0.12589
v -0.0397 -0.0213000011 0.12589
v -0.0398000032 -0.0212000012 0.12589
v -0.0398000032 -0.0210000016 0.12589
v -0.0398000032 -0.02120167 0.1259082
v -0.0398000032 -0.02100501 0.1259446
v -0.0398000032 -0.0212070234 0.125926822
v -0.0398000032 -0.0210210644 0.126000434
v -0.0398000032 -0.02115 0.126040012
v -0.0398000032 -0.0210489035 0.126054168
v -0.0398000032 -0.0212163012 0.125944734
v -0.0398000032 -0.02108787 0.126102135
v -0.0398000032 -0.0212292913 0.125960723
v -0.0398000032 -0.0211358387 0.1261411
v -0.0398000032 -0.02124528 0.1259737
v -0.0398000032 -0.0212631933 0.125982985
v -0.0398000032 -0.0211895723 0.126168936
v -0.0398000032 -0.0212818049 0.125988334
v -0.0398000032 -0.0212454125 0.126185
v -0.0398000032 -0.0213000011 0.12619
v -0.0398000032 -0.0213000011 0.12599
v -0.0522 -0.0213000011 0.12599
v -0.0522000045 -0.0213000011 0.12619
v -0.0522000045 -0.0212818049 0.125988334
v -0.0522 -0.0212454125 0.126185
v -0.0522 -0.0212631933 0.125982985
v -0.0522000045 -0.0211895723 0.126168936
v -0.0522 -0.02115 0.126040012
v -0.0522 -0.0211358387 0.1261411
v -0.0522000045 -0.02124528 0.1259737
v -0.0522 -0.02108787 0.126102135
v -0.0522 -0.0212292913 0.125960708
v -0.0522000045 -0.0210489035 0.126054168
v -0.0522 -0.0212163012 0.125944734
v -0.0522000045 -0.0210210644 0.126000434
v -0.0522 -0.0212070234 0.125926808
v -0.0522 -0.02100501 0.1259446
v -0.0522 -0.02120167 0.1259082
v -0.0522 -0.0210000016 0.12589
v -0.0522 -0.0212000012 0.12589
v -0.04235 -0.0210000016 0.125390008
v -0.04235 -0.0210000016 0.124590009
v -0.04385 -0.0210000016 0.124590009
v -0.04385 -0.0210000016 0.125390008
v -0.0398000032 -0.0210000016 0.12589
v -0.040950004 -0.0210000016 0.125390008
v -0.0452500023 -0.0210000016 0.125390008
v -0.0398000032 -0.0210000016 0.124590009
v -0.04095 -0.0210000016 0.124590009
v -0.04675 -0.0210000016 0.125390008
v -0.0522 -0.0210000016 0.12589
v -0.046 -0.0210000016 0.12524
v -0.0452500023 -0.0210000016 0.12459
v -0.04675 -0.0210000016 0.124590009
v -0.048150003 -0.0210000016 0.125390008
v -0.0496500023 -0.0210000016 0.125390008
v -0.0496500023 -0.0210000016 0.12459
v -0.048150003 -0.0210000016 0.124590009
v -0.05105 -0.0210000016 0.125390008
v -0.0522 -0.0210000016 0.12459
v -0.05105 -0.0210000016 0.12459
v -0.0496500023 -0.0212000012 0.125390008
v -0.0496500023 -0.0212000012 0.12459
v -0.048150003 -0.0212000012 0.124590009
v -0.048150003 -0.0212000012 0.125390008
v -0.0522 -0.0212000012 0.12589
v -0.05105 -0.0212000012 0.125390008
v -0.04675 -0.0212000012 0.125390008
v -0.0522 -0.0212000012 0.12459
v -0.05105 -0.0212000012 0.12459
v -0.0398000032 -0.0212000012 0.12589
v -0.0452500023 -0.0212000012 0.125390008
v -0.046 -0.0212000012 0.12524
v -0.04675 -0.0212000012 0.124590009
v -0.0452500023 -0.0212000012 0.12459
v -0.04385 -0.0212000012 0.125390008
v -0.04235 -0.0212000012 0.125390008
v -0.04235 -0.0212000012 0.124590009
v -0.04385 -0.0212000012 0.124590009
v -0.040950004 -0.0212000012 0.125390008
v -0.0398000032 -0.0212000012 0.124590009
v -0.04095 -0.0212000012 0.124590009
v -0.0522 -0.0318 0.12589
v -0.0522 -0.032 0.12589
v -0.0522 -0.0317983329 0.1259082
v -0.0522 -0.0319949947 0.1259446
v -0.0522 -0.03179298 0.125926808
v -0.0522000045 -0.03197894 0.126000434
v -0.0522 -0.0318500027 0.126040012
v -0.0522000045 -0.0319511 0.126054168
v -0.0522 -0.0317837 0.125944734
v -0.0522 -0.0319121331 0.126102135
v -0.0522 -0.0317707136 0.125960708
v -0.0522 -0.0318641663 0.1261411
v -0.0522000045 -0.0317547247 0.1259737
v -0.0522 -0.03173681 0.125982985
v -0.0522000045 -0.03181043 0.126168936
v -0.0522000045 -0.0317182 0.125988334
v -0.0522 -0.03175459 0.126185
v -0.0522000045 -0.0317 0.12619
v -0.0522 -0.0317 0.12599
v -0.0398000032 -0.0317 0.12599
v -0.0398000032 -0.0317 0.12619
v -0.0398000032 -0.0317182 0.125988334
v -0.0398000032 -0.03175459 0.126185
v -0.0398000032 -0.03173681 0.125982985
v -0.0398000032 -0.03181043 0.126168936
v -0.0398000032 -0.0318500027 0.126040012
v -0.0398000032 -0.0318641663 0.1261411
v -0.0398000032 -0.0317547247 0.1259737
v -0.0398000032 -0.0319121331 0.126102135
v -0.0398000032 -0.0317707136 0.125960723
v -0.0398000032 -0.0319511 0.126054168
v -0.0398000032 -0.0317837 0.125944734
v -0.0398000032 -0.03197894 0.126000434
v -0.0398000032 -0.03179298 0.125926822
v -0.0398000032 -0.0319949947 0.1259446
v -0.0398000032 -0.0317983329 0.1259082
v -0.0398000032 -0.032 0.12589
v -0.0398000032 -0.0318 0.12589
v -0.0496500023 -0.032 0.125390008
v -0.0496500023 -0.032 0.12459
v -0.048150003 -0.032 0.124590009
v -0.048150003 -0.032 0.125390008
v -0.0522 -0.032 0.12589
v -0.05105 -0.032 0.125390008
v -0.04675 -0.032 0.125390008
v -0.0522 -0.032 0.12459
v -0.05105 -0.032 0.12459
v -0.0398000032 -0.032 0.12589
v -0.0452500023 -0.032 0.125390008
v -0.046 -0.032 0.12524
v -0.04675 -0.032 0.124590009
v -0.0452500023 -0.032 0.12459
v -0.04385 -0.032 0.125390008
v -0.04235 -0.032 0.125390008
v -0.04235 -0.032 0.124590009
v -0.04385 -0.032 0.124590009
v -0.040950004 -0.032 0.125390008
v -0.0398000032 -0.032 0.124590009
v -0.04095 -0.032 0.124590009
v -0.04235 -0.0318 0.125390008
v -0.04235 -0.0318 0.124590009
v -0.04385 -0.0318 0.124590009
v -0.04385 -0.0318 0.125390008
v -0.0398000032 -0.0318 0.12589
v -0.040950004 -0.0318 0.125390008
v -0.0452500023 -0.0318 0.125390008
v -0.0398000032 -0.0318 0.124590009
v -0.04095 -0.0318 0.124590009
v -0.04675 -0.0318 0.125390008
v -0.0522 -0.0318 0.12589
v -0.046 -0.0318 0.12524
v -0.0452500023 -0.0318 0.12459
v -0.04675 -0.0318 0.124590009
v -0.048150003 -0.0318 0.125390008
v -0.0496500023 -0.0318 0.125390008
v -0.0496500023 -0.0318 0.12459
v -0.048150003 -0.0318 0.124590009
v -0.05105 -0.0318 0.125390008
v -0.0522 -0.0318 0.12459
v -0.05105 -0.0318 0.12459
v -0.04385 -0.0211000014 0.12499
v -0.04385 -0.0210000016 0.124590009
v -0.04385 -0.0212000012 0.124590009
v -0.04385 -0.0212000012 0.125390008
v -0.04385 -0.0210000016 0.125390008
v -0.04455 -0.0211000014 0.125390008
v -0.04385 -0.0210000016 0.125390008
v -0.04385 -0.0212000012 0.125390008
v -0.0452500023 -0.0212000012 0.125390008
v -0.0452500023 -0.0210000016 0.125390008
v -0.0452500023 -0.0211000014 0.124990009
v -0.0452500023 -0.0210000016 0.125390008
v -0.0452500023 -0.0212000012 0.125390008
v -0.0452500023 -0.0212000012 0.12459
v -0.0452500023 -0.0210000016 0.12459
v -0.04675 -0.0211000014 0.12499
v -0.04675 -0.0210000016 0.124590009
v -0.04675 -0.0212000012 0.124590009
v -0.04675 -0.0212000012 0.125390008
v -0.04675 -0.0210000016 0.125390008
v -0.0474500023 -0.0211000014 0.125390008
v -0.04675 -0.0210000016 0.125390008
v -0.04675 -0.0212000012 0.125390008
v -0.048150003 -0.0212000012 0.125390008
v -0.048150003 -0.0210000016 0.125390008
v -0.048150003 -0.0211000014 0.12499
v -0.048150003 -0.0210000016 0.125390008
v -0.048150003 -0.0212000012 0.125390008
v -0.048150003 -0.0212000012 0.124590009
v -0.048150003 -0.0210000016 0.124590009
v -0.0496500023 -0.0211000014 0.12499
v -0.0496500023 -0.0210000016 0.12459
v -0.0496500023 -0.0212000012 0.12459
v -0.0496500023 -0.0212000012 0.125390008
v -0.0496500023 -0.0210000016 0.125390008
v -0.0503500029 -0.0211000014 0.125390008
v -0.0496500023 -0.0210000016 0.125390008
v -0.0496500023 -0.0212000012 0.125390008
v -0.05105 -0.0212000012 0.125390008
v -0.05105 -0.0210000016 0.125390008
v -0.05105 -0.0211000014 0.12499
v -0.05105 -0.0210000016 0.125390008
v -0.05105 -0.0212000012 0.125390008
v -0.05105 -0.0212000012 0.12459
v -0.05105 -0.0210000016 0.12459
v -0.0452500023 -0.0319000036 0.124990009
v -0.0452500023 -0.032 0.12459
v -0.0452500023 -0.0318 0.12459
v -0.0452500023 -0.0318 0.125390008
v -0.0452500023 -0.032 0.125390008
v -0.04455 -0.0319000036 0.125390008
v -0.0452500023 -0.032 0.125390008
v -0.0452500023 -0.0318 0.125390008
v -0.04385 -0.0318 0.125390008
v -0.04385 -0.032 0.125390008
v -0.04385 -0.0319000036 0.12499
v -0.04385 -0.032 0.125390008
v -0.04385 -0.0318 0.125390008
v -0.04385 -0.0318 0.124590009
v -0.04385 -0.032 0.124590009
v -0.048150003 -0.0319000036 0.12499
v -0.048150003 -0.032 0.124590009
v -0.048150003 -0.0318 0.124590009
v -0.048150003 -0.0318 0.125390008
v -0.048150003 -0.032 0.125390008
v -0.0474500023 -0.0319000036 0.125390008
v -0.048150003 -0.032 0.125390008
v -0.048150003 -0.0318 0.125390008
v -0.04675 -0.0318 0.125390008
v -0.04675 -0.032 0.125390008
v -0.04675 -0.0319000036 0.12499
v -0.04675 -0.032 0.125390008
v -0.04675 -0.0318 0.125390008
v -0.04675 -0.0318 0.124590009
v -0.04675 -0.032 0.124590009
v -0.05105 -0.0319000036 0.12499
v -0.05105 -0.032 0.12459
v -0.05105 -0.0318 0.12459
v -0.05105 -0.0318 0.125390008
v -0.05105 -0.032 0.125390008
v -0.0503500029 -0.0319000036 0.125390008
v -0.05105 -0.032 0.125390008
v -0.05105 -0.0318 0.125390008
v -0.0496500023 -0.0318 0.125390008
v -0.0496500023 -0.032 0.125390008
v -0.0496500023 -0.0319000036 0.12499
v -0.0496500023 -0.032 0.125390008
v -0.0496500023 -0.0318 0.125390008
v -0.0496500023 -0.0318 0.12459
v -0.0496500023 -0.032 0.12459
v -0.04095 -0.0211000014 0.12499
v -0.04095 -0.0210000016 0.124590009
v -0.04095 -0.0212000012 0.124590009
v -0.040950004 -0.0212000012 0.125390008
v -0.040950004 -0.0210000016 0.125390008
v -0.04235 -0.0211000014 0.12499
v -0.04235 -0.0210000016 0.125390008
v -0.04235 -0.0212000012 0.125390008
v -0.04235 -0.0212000012 0.124590009
v -0.04235 -0.0210000016 0.124590009
v -0.04165 -0.0211000014 0.125390008
v -0.040950004 -0.0210000016 0.125390008
v -0.040950004 -0.0212000012 0.125390008
v -0.04235 -0.0212000012 0.125390008
v -0.04235 -0.0210000016 0.125390008
v -0.04165 -0.0319000036 0.125390008
v -0.04235 -0.032 0.125390008
v -0.04235 -0.0318 0.125390008
v -0.040950004 -0.0318 0.125390008
v -0.040950004 -0.032 0.125390008
v -0.04095 -0.0319000036 0.12499
v -0.040950004 -0.032 0.125390008
v -0.040950004 -0.0318 0.125390008
v -0.04095 -0.0318 0.124590009
v -0.04095 -0.032 0.124590009
v -0.04235 -0.0319000036 0.12499
v -0.04235 -0.032 0.124590009
v -0.04235 -0.0318 0.124590009
v -0.04235 -0.0318 0.125390008
v -0.04235 -0.032 0.125390008
v -0.040375 -0.0319000036 0.124590009
v -0.04095 -0.032 0.124590009
v -0.04095 -0.0318 0.124590009
v -0.0398000032 -0.0318 0.124590009
v -0.0398000032 -0.032 0.124590009
v -0.0522 -0.0319000036 0.12524
v -0.0522 -0.032 0.12459
v -0.0522 -0.032 0.12589
v -0.0522 -0.0318 0.12589
v -0.0522 -0.0318 0.12459
v -0.0398000032 -0.0319000036 0.12524
v -0.0398000032 -0.0318 0.12589
v -0.0398000032 -0.032 0.12589
v -0.0398000032 -0.032 0.124590009
v -0.0398000032 -0.0318 0.124590009
v -0.0522 -0.0318 0.12589
v -0.046 -0.0317983329 0.1259082
v -0.0398000032 -0.0318 0.12589
v -0.0522 -0.0317983329 0.1259082
v -0.0398000032 -0.0317983329 0.1259082
v -0.0522 -0.03179298 0.125926808
v -0.046 -0.03179298 0.125926808
v -0.0398000032 -0.03179298 0.125926822
v -0.0522 -0.0317837 0.125944734
v -0.0460000038 -0.0317837 0.125944734
v -0.0398000032 -0.0317837 0.125944734
v -0.0522 -0.0317707136 0.125960708
v -0.046 -0.0317707136 0.125960723
v -0.0398000032 -0.0317707136 0.125960723
v -0.0522000045 -0.0317547247 0.1259737
v -0.0460000038 -0.0317547247 0.1259737
v -0.0398000032 -0.0317547247 0.1259737
v -0.0522 -0.03173681 0.125982985
v -0.046 -0.03173681 0.125982985
v -0.0398000032 -0.03173681 0.125982985
v -0.0522000045 -0.0317182 0.125988334
v -0.0460000038 -0.0317182 0.125988334
v -0.0398000032 -0.0317182 0.125988334
v -0.0522 -0.0317 0.12599
v -0.0398000032 -0.0317 0.12599
v -0.0398000032 -0.032 0.12589
v -0.0460000038 -0.0319949947 0.1259446
v -0.0522 -0.032 0.12589
v -0.0398000032 -0.0319949947 0.1259446
v -0.0522 -0.0319949947 0.1259446
v -0.0398000032 -0.03197894 0.126000434
v -0.0460000038 -0.03197894 0.126000434
v -0.0522000045 -0.03197894 0.126000434
v -0.0398000032 -0.0319511 0.126054168
v -0.0460000038 -0.0319511 0.126054168
v -0.0522000045 -0.0319511 0.126054168
v -0.0398000032 -0.0319121331 0.126102135
v -0.046 -0.0319121331 0.126102135
v -0.0522 -0.0319121331 0.126102135
v -0.0398000032 -0.0318641663 0.1261411
v -0.046 -0.0318641663 0.1261411
v -0.0522 -0.0318641663 0.1261411
v -0.0398000032 -0.03181043 0.126168936
v -0.0460000038 -0.03181043 0.126168936
v -0.0522000045 -0.03181043 0.126168936
v -0.0398000032 -0.03175459 0.126185
v -0.046 -0.03175459 0.126185
v -0.0522 -0.03175459 0.126185
v -0.0398000032 -0.0317 0.12619
v -0.0522000045 -0.0317 0.12619
v -0.040375 -0.0211000014 0.124590009
v -0.04095 -0.0212000012 0.124590009
v -0.04095 -0.0210000016 0.124590009
v -0.0398000032 -0.0210000016 0.124590009
v -0.0398000032 -0.0212000012 0.124590009
v -0.0398000032 -0.0211000014 0.12524
v -0.0398000032 -0.0210000016 0.12589
v -0.0398000032 -0.0212000012 0.12589
v -0.0398000032 -0.0212000012 0.124590009
v -0.0398000032 -0.0210000016 0.124590009
v -0.0522 -0.0211000014 0.12524
v -0.0522 -0.0212000012 0.12459
v -0.0522 -0.0212000012 0.12589
v -0.0522 -0.0210000016 0.12589
v -0.0522 -0.0210000016 0.12459
v -0.0398000032 -0.0212000012 0.12589
v -0.046 -0.02120167 0.1259082
v -0.0522 -0.0212000012 0.12589
v -0.0398000032 -0.02120167 0.1259082
v -0.0522 -0.02120167 0.1259082
v -0.0398000032 -0.0212070234 0.125926822
v -0.046 -0.0212070234 0.125926808
v -0.0522 -0.0212070234 0.125926808
v -0.0398000032 -0.0212163012 0.125944734
v -0.0460000038 -0.0212163012 0.125944734
v -0.0522 -0.0212163012 0.125944734
v -0.0398000032 -0.0212292913 0.125960723
v -0.046 -0.0212292913 0.125960723
v -0.0522 -0.0212292913 0.125960708
v -0.0398000032 -0.02124528 0.1259737
v -0.0460000038 -0.02124528 0.1259737
v -0.0522000045 -0.02124528 0.1259737
v -0.0398000032 -0.0212631933 0.125982985
v -0.046 -0.0212631933 0.125982985
v -0.0522 -0.0212631933 0.125982985
v -0.0398000032 -0.0212818049 0.125988334
v -0.0460000038 -0.0212818049 0.125988334
v -0.0522000045 -0.0212818049 0.125988334
v -0.0398000032 -0.0213000011 0.12599
v -0.0522 -0.0213000011 0.12599
v -0.0522 -0.0210000016 0.12589
v -0.0460000038 -0.02100501 0.1259446
v -0.0398000032 -0.0210000016 0.12589
v -0.0522 -0.02100501 0.1259446
v -0.0398000032 -0.02100501 0.1259446
v -0.0522000045 -0.0210210644 0.126000434
v -0.0460000038 -0.0210210644 0.126000434
v -0.0398000032 -0.0210210644 0.126000434
v -0.0522000045 -0.0210489035 0.126054168
v -0.0460000038 -0.0210489035 0.126054168
v -0.0398000032 -0.0210489035 0.126054168
v -0.0522 -0.02108787 0.126102135
v -0.046 -0.02108787 0.126102135
v -0.0398000032 -0.02108787 0.126102135
v -0.0522 -0.0211358387 0.1261411
v -0.046 -0.0211358387 0.1261411
v -0.0398000032 -0.0211358387 0.1261411
v -0.0522000045 -0.0211895723 0.126168936
v -0.0460000038 -0.0211895723 0.126168936
v -0.0398000032 -0.0211895723 0.126168936
v -0.0522 -0.0212454125 0.126185
v -0.046 -0.0212454125 0.126185
v -0.0398000032 -0.0212454125 0.126185
v -0.0522000045 -0.0213000011 0.12619
v -0.0398000032 -0.0213000011 0.12619
v -0.0396 -0.0265000015 0.124590009
v -0.0394999981 -0.0317 0.124590009
v -0.0397 -0.0317 0.124590009
v -0.0397 -0.0213000011 0.124590009
v -0.0394999981 -0.0213000011 0.124590009
v -0.0397 -0.0265000015 0.12524
v -0.0397 -0.0317 0.12589
v -0.0397 -0.0213000011 0.12589
v -0.0397 -0.0213000011 0.124590009
v -0.0397 -0.0317 0.124590009
v -0.0394999981 -0.0265000015 0.12524
v -0.0394999981 -0.0213000011 0.124590009
v -0.0394999981 -0.0213000011 0.12589
v -0.0394999981 -0.0317 0.12589
v -0.0394999981 -0.0317 0.124590009
v -0.0396 -0.0213000011 0.12524
v -0.0397 -0.0213000011 0.12589
v -0.0394999981 -0.0213000011 0.12589
v -0.0394999981 -0.0213000011 0.124590009
v -0.0397 -0.0213000011 0.124590009
v -0.0396 -0.0317 0.12524
v -0.0394999981 -0.0317 0.12589
v -0.0397 -0.0317 0.12589
v -0.0397 -0.0317 0.124590009
v -0.0394999981 -0.0317 0.124590009
v -0.0397 -0.0317 0.12589
v -0.03970167 -0.0265000015 0.1259082
v -0.0397 -0.0213000011 0.12589
v -0.03970167 -0.0317 0.1259082
v -0.03970167 -0.0213000011 0.1259082
v -0.03970702 -0.0317 0.125926822
v -0.03970702 -0.0265000015 0.125926822
v -0.03970702 -0.0213000011 0.125926822
v -0.0397163033 -0.0317 0.125944734
v -0.0397163033 -0.0265000015 0.125944734
v -0.0397163033 -0.0213000011 0.125944734
v -0.03972929 -0.0317 0.125960723
v -0.03972929 -0.0265000015 0.125960723
v -0.03972929 -0.0213000011 0.125960723
v -0.03974528 -0.0317 0.1259737
v -0.03974528 -0.0265000015 0.1259737
v -0.03974528 -0.0213000011 0.1259737
v -0.03976319 -0.0317 0.125982985
v -0.03976319 -0.0265000015 0.125982985
v -0.03976319 -0.0213000011 0.125982985
v -0.0397818051 -0.0317 0.125988334
v -0.0397818051 -0.0265000015 0.125988334
v -0.0397818051 -0.0213000011 0.125988334
v -0.0398000032 -0.0317 0.12599
v -0.0398000032 -0.0213000011 0.12599
v -0.0394999981 -0.0213000011 0.12589
v -0.03950501 -0.0265000015 0.1259446
v -0.0394999981 -0.0317 0.12589
v -0.03950501 -0.0213000011 0.1259446
v -0.03950501 -0.0317 0.1259446
v -0.0395210646 -0.0213000011 0.126000434
v -0.0395210646 -0.0265000015 0.126000434
v -0.0395210646 -0.0317 0.126000434
v -0.0395489037 -0.0213000011 0.126054168
v -0.0395489037 -0.0265000015 0.126054168
v -0.0395489037 -0.0317 0.126054168
v -0.03958787 -0.0213000011 0.126102135
v -0.03958787 -0.0265000015 0.126102135
v -0.03958787 -0.0317 0.126102135
v -0.0396358371 -0.0213000011 0.1261411
v -0.0396358371 -0.0265000015 0.1261411
v -0.0396358371 -0.0317 0.1261411
v -0.03968957 -0.0213000011 0.126168936
v -0.03968957 -0.0265000015 0.126168936
v -0.03968957 -0.0317 0.126168936
v -0.0397454128 -0.0213000011 0.126185
v -0.0397454128 -0.0265000015 0.126185
v -0.0397454128 -0.0317 0.126185
v -0.0398000032 -0.0213000011 0.12619
v -0.0398000032 -0.0317 0.12619
v -0.0524 -0.0265000015 0.12459
v -0.0525000021 -0.0213000011 0.12459
v -0.0523000024 -0.0213000011 0.12459
v -0.0523000024 -0.0317 0.12459
v -0.0525000021 -0.0317 0.12459
v -0.0523000024 -0.0265000015 0.12524
v -0.0523000024 -0.0213000011 0.12589
v -0.0523000024 -0.0317 0.12589
v -0.0523000024 -0.0317 0.12459
v -0.0523000024 -0.0213000011 0.12459
v -0.0525000021 -0.0265000015 0.12524
v -0.0525000021 -0.0317 0.12459
v -0.0525000021 -0.0317 0.12589
v -0.0525000021 -0.0213000011 0.12589
v -0.0525000021 -0.0213000011 0.12459
v -0.0524 -0.0317 0.12524
v -0.0523000024 -0.0317 0.12589
v -0.0525000021 -0.0317 0.12589
v -0.0525000021 -0.0317 0.12459
v -0.0523000024 -0.0317 0.12459
v -0.0524 -0.0213000011 0.12524
v -0.0525000021 -0.0213000011 0.12589
v -0.0523000024 -0.0213000011 0.12589
v -0.0523000024 -0.0213000011 0.12459
v -0.0525000021 -0.0213000011 0.12459
v -0.0523000024 -0.0213000011 0.12589
v -0.0522983335 -0.0265000015 0.1259082
v -0.0523000024 -0.0317 0.12589
v -0.0522983335 -0.0213000011 0.1259082
v -0.0522983335 -0.0317 0.1259082
v -0.05229298 -0.0213000011 0.125926808
v -0.05229298 -0.0265000015 0.125926808
v -0.05229298 -0.0317 0.125926808
v -0.0522837 -0.0213000011 0.125944734
v -0.0522837 -0.0265000015 0.125944734
v -0.0522837 -0.0317 0.125944734
v -0.0522707142 -0.0213000011 0.125960708
v -0.0522707142 -0.0265000015 0.125960708
v -0.0522707142 -0.0317 0.125960708
v -0.05225472 -0.0213000011 0.1259737
v -0.05225472 -0.0265000015 0.1259737
v -0.05225472 -0.0317 0.1259737
v -0.05223681 -0.0213000011 0.125982985
v -0.05223681 -0.0265000015 0.125982985
v -0.05223681 -0.0317 0.125982985
v -0.0522182 -0.0213000011 0.125988334
v -0.0522182 -0.0265000015 0.125988334
v -0.0522182 -0.0317 0.125988334
v -0.0522 -0.0213000011 0.12599
v -0.0522 -0.0317 0.12599
v -0.0525000021 -0.0317 0.12589
v -0.0524949953 -0.0265000015 0.1259446
v -0.0525000021 -0.0213000011 0.12589
v -0.0524949953 -0.0317 0.1259446
v -0.0524949953 -0.0213000011 0.1259446
v -0.05247894 -0.0317 0.126000434
v -0.05247894 -0.0265000015 0.126000434
v -0.05247894 -0.0213000011 0.126000434
v -0.0524511039 -0.0317 0.126054168
v -0.0524511039 -0.0265000015 0.126054168
v -0.0524511039 -0.0213000011 0.126054168
v -0.0524121337 -0.0317 0.126102135
v -0.0524121337 -0.0265000015 0.126102135
v -0.0524121337 -0.0213000011 0.126102135
v -0.0523641668 -0.0317 0.1261411
v -0.0523641668 -0.0265000015 0.1261411
v -0.0523641668 -0.0213000011 0.1261411
v -0.05231043 -0.0317 0.126168936
v -0.05231043 -0.0265000015 0.126168936
v -0.05231043 -0.0213000011 0.126168936
v -0.05225459 -0.0317 0.126185
v -0.05225459 -0.0265000015 0.126185
v -0.05225459 -0.0213000011 0.126185
v -0.0522000045 -0.0317 0.12619
v -0.0522000045 -0.0213000011 0.12619
v -0.0522000045 -0.0317 0.12619
v -0.0460000038 -0.0265000015 0.12619
v -0.0522000045 -0.0213000011 0.12619
v -0.0398000032 -0.0317 0.12619
v -0.0398000032 -0.0213000011 0.12619
v -0.0398000032 -0.0317 0.12599
v -0.046 -0.0265000015 0.12599
v -0.0398000032 -0.0213000011 0.12599
v -0.0522 -0.0317 0.12599
v -0.0522 -0.0213000011 0.12599
v -0.04235 -0.032 0.124590009
v -0.0431 -0.0319000036 0.124590009
v -0.04235 -0.0318 0.124590009
v -0.04385 -0.032 0.124590009
v -0.04385 -0.0318 0.124590009
v -0.04235 -0.0212000012 0.124590009
v -0.0431 -0.0211000014 0.124590009
v -0.04235 -0.0210000016 0.124590009
v -0.04385 -0.0212000012 0.124590009
v -0.04385 -0.0210000016 0.124590009
v -0.0522 -0.0318 0.12459
v -0.0516250022 -0.0319000036 0.12459
v -0.0522 -0.032 0.12459
v -0.05105 -0.0318 0.12459
v -0.05105 -0.032 0.12459
v -0.0496500023 -0.0318 0.12459
v -0.0489 -0.0319000036 0.12459
v -0.0496500023 -0.032 0.12459
v -0.048150003 -0.0318 0.124590009
v -0.048150003 -0.032 0.124590009
v -0.04675 -0.0318 0.124590009
v -0.0460000038 -0.0319000036 0.124590009
v -0.04675 -0.032 0.124590009
v -0.0452500023 -0.0318 0.12459
v -0.0452500023 -0.032 0.12459
v -0.0522 -0.0210000016 0.12459
v -0.0516250022 -0.0211000014 0.12459
v -0.0522 -0.0212000012 0.12459
v -0.05105 -0.0210000016 0.12459
v -0.05105 -0.0212000012 0.12459
v -0.0496500023 -0.0210000016 0.12459
v -0.0489 -0.0211000014 0.12459
v -0.0496500023 -0.0212000012 0.12459
v -0.048150003 -0.0210000016 0.124590009
v -0.048150003 -0.0212000012 0.124590009
v -0.04675 -0.0210000016 0.124590009
v -0.0460000038 -0.0211000014 0.124590009
v -0.04675 -0.0212000012 0.124590009
v -0.0452500023 -0.0210000016 0.12459
v -0.0452500023 -0.0212000012 0.12459
f 1 2 3
f 2 4 3
f 4 5 3
f 4 6 5
f 6 7 5
f 6 8 7
f 5 7 9
f 8 10 7
f 7 11 9
f 10 12 7
f 7 13 11
f 13 7 14
f 12 15 7
f 15 14 7
f 15 16 14
f 16 15 17
f 16 17 18
f 19 16 18
f 20 21 22
f 21 23 22
f 23 24 22
f 23 25 24
f 25 26 24
f 25 27 26
f 24 26 28
f 27 29 26
f 26 30 28
f 29 31 26
f 26 32 30
f 31 33 26
f 32 26 34
f 33 34 26
f 33 35 34
f 35 36 34
f 35 37 36
f 37 38 36
f 39 40 41
f 40 42 41
f 42 43 41
f 42 44 43
f 44 45 43
f 44 46 45
f 43 45 47
f 46 48 45
f 45 49 47
f 48 50 45
f 45 51 49
f 51 45 52
f 50 53 45
f 53 52 45
f 53 54 52
f 54 53 55
f 54 55 56
f 57 54 56
f 58 59 60
f 59 61 60
f 61 62 60
f 61 63 62
f 63 64 62
f 63 65 64
f 62 64 66
f 65 67 64
f 64 68 66
f 67 69 64
f 64 70 68
f 69 71 64
f 70 64 72
f 71 72 64
f 71 73 72
f 73 74 72
f 73 75 74
f 75 76 74
f 77 78 79
f 78 80 79
f 80 81 79
f 80 82 81
f 82 83 81
f 82 84 83
f 81 83 85
f 84 86 83
f 83 87 85
f 86 88 83
f 83 89 87
f 89 83 90
f 88 91 83
f 91 90 83
f 91 92 90
f 92 91 93
f 92 93 94
f 95 92 94
f 96 97 98
f 97 99 98
f 99 100 98
f 99 101 100
f 101 102 100
f 101 103 102
f 100 102 104
f 103 105 102
f 102 106 104
f 105 107 102
f 102 108 106
f 107 109 102
f 108 102 110
f 109 110 102
f 109 111 110
f 111 112 110
f 111 113 112
f 113 114 112
f 115 116 117
f 115 117 118
f 119 115 118
f 115 119 120
f 118 121 119
f 119 122 120
f 122 123 120
f 121 124 119
f 119 124 125
f 121 126 124
f 126 121 127
f 126 127 128
f 124 126 128
f 124 129 125
f 129 130 125
f 129 131 130
f 131 129 132
f 130 133 125
f 133 134 125
f 133 135 134
f 136 137 138
f 136 138 139
f 140 136 139
f 136 140 141
f 140 139 142
f 140 143 141
f 143 144 141
f 145 140 142
f 146 145 142
f 146 142 147
f 147 142 148
f 149 147 148
f 149 146 147
f 150 145 146
f 145 150 151
f 150 152 151
f 150 153 152
f 145 151 154
f 155 145 154
f 155 154 156
f 157 158 159
f 158 160 159
f 160 161 159
f 160 162 161
f 162 163 161
f 162 164 163
f 161 163 165
f 164 166 163
f 163 167 165
f 166 168 163
f 163 169 167
f 169 163 170
f 168 171 163
f 171 170 163
f 171 172 170
f 172 171 173
f 172 173 174
f 175 172 174
f 176 177 178
f 177 179 178
f 179 180 178
f 179 181 180
f 181 182 180
f 181 183 182
f 180 182 184
f 183 185 182
f 182 186 184
f 185 187 182
f 182 188 186
f 187 189 182
f 188 182 190
f 189 190 182
f 189 191 190
f 191 192 190
f 191 193 192
f 193 194 192
f 195 196 197
f 195 197 198
f 199 195 198
f 195 199 200
f 199 198 201
f 199 202 200
f 202 203 200
f 204 199 201
f 205 204 201
f 205 201 206
f 206 201 207
f 208 206 207
f 208 205 206
f 205 209 204
f 209 210 204
f 209 211 210
f 211 209 212
f 210 213 204
f 213 214 204
f 213 215 214
f 216 217 218
f 219 216 218
f 220 216 219
f 220 221 216
f 222 220 219
f 221 220 223
f 224 221 223
f 225 220 222
f 225 226 220
f 227 225 222
f 227 222 228
f 229 227 228
f 225 227 229
f 230 226 225
f 226 230 231
f 230 232 231
f 230 233 232
f 226 231 234
f 235 226 234
f 235 234 236
f 237 238 239
f 237 239 240
f 238 237 241
f 241 237 240
f 242 243 244
f 242 244 245
f 243 242 246
f 246 242 245
f 247 248 249
f 247 249 250
f 248 247 251
f 251 247 250
f 252 253 254
f 252 254 255
f 253 252 256
f 256 252 255
f 257 258 259
f 257 259 260
f 258 257 261
f 261 257 260
f 262 263 264
f 262 264 265
f 263 262 266
f 266 262 265
f 267 268 269
f 267 269 270
f 268 267 271
f 271 267 270
f 272 273 274
f 272 274 275
f 273 272 276
f 276 272 275
f 277 278 279
f 277 279 280
f 278 277 281
f 281 277 280
f 282 283 284
f 282 284 285
f 283 282 286
f 286 282 285
f 287 288 289
f 287 289 290
f 288 287 291
f 291 287 290
f 292 293 294
f 292 294 295
f 293 292 296
f 296 292 295
f 297 298 299
f 297 299 300
f 298 297 301
f 301 297 300
f 302 303 304
f 302 304 305
f 303 302 306
f 306 302 305
f 307 308 309
f 307 309 310
f 308 307 311
f 311 307 310
f 312 313 314
f 312 314 315
f 313 312 316
f 316 312 315
f 317 318 319
f 317 319 320
f 318 317 321
f 321 317 320
f 322 323 324
f 322 324 325
f 323 322 326
f 326 322 325
f 327 328 329
f 327 329 330
f 328 327 331
f 331 327 330
f 332 333 334
f 332 334 335
f 333 332 336
f 336 332 335
f 337 338 339
f 337 339 340
f 338 337 341
f 341 337 340
f 342 343 344
f 342 344 345
f 343 342 346
f 346 342 345
f 347 348 349
f 347 349 350
f 348 347 351
f 351 347 350
f 352 353 354
f 352 354 355
f 353 352 356
f 356 352 355
f 357 358 359
f 357 359 360
f 358 357 361
f 361 357 360
f 362 363 364
f 362 364 365
f 363 362 366
f 366 362 365
f 367 368 369
f 370 367 369
f 367 371 368
f 371 367 370
f 372 373 374
f 373 372 375
f 373 376 374
f 373 375 377
f 373 378 376
f 378 373 377
f 378 379 376
f 378 377 380
f 378 381 379
f 381 378 380
f 381 382 379
f 381 380 383
f 381 384 382
f 384 381 383
f 384 385 382
f 384 383 386
f 384 387 385
f 387 384 386
f 387 388 385
f 387 386 389
f 387 390 388
f 390 387 389
f 390 391 388
f 390 389 392
f 390 393 391
f 393 390 392
f 393 394 391
f 393 392 395
f 394 393 396
f 393 395 396
f 397 398 399
f 398 397 400
f 398 401 399
f 398 400 402
f 398 403 401
f 403 398 402
f 403 404 401
f 403 402 405
f 403 406 404
f 406 403 405
f 406 407 404
f 406 405 408
f 406 409 407
f 409 406 408
f 409 410 407
f 409 408 411
f 409 412 410
f 412 409 411
f 412 413 410
f 412 411 414
f 412 415 413
f 415 412 414
f 415 416 413
f 415 414 417
f 415 418 416
f 418 415 417
f 418 419 416
f 418 417 420
f 419 418 421
f 418 420 421
f 422 423 424
f 422 424 425
f 423 422 426
f 426 422 425
f 427 428 429
f 430 427 429
f 427 431 428
f 431 427 430
f 432 433 434
f 432 434 435
f 433 432 436
f 436 432 435
f 437 438 439
f 438 437 440
f 438 441 439
f 438 440 442
f 438 443 441
f 443 438 442
f 443 444 441
f 443 442 445
f 443 446 444
f 446 443 445
f 446 447 444
f 446 445 448
f 446 449 447
f 449 446 448
f 449 450 447
f 449 448 451
f 449 452 450
f 452 449 451
f 452 453 450
f 452 451 454
f 452 455 453
f 455 452 454
f 455 456 453
f 455 454 457
f 455 458 456
f 458 455 457
f 458 459 456
f 458 457 460
f 459 458 461
f 458 460 461
f 462 463 464
f 463 462 465
f 463 466 464
f 463 465 467
f 463 468 466
f 468 463 467
f 468 469 466
f 468 467 470
f 468 471 469
f 471 468 470
f 471 472 469
f 471 470 473
f 471 474 472
f 474 471 473
f 474 475 472
f 474 473 476
f 474 477 475
f 477 474 476
f 477 478 475
f 477 476 479
f 477 480 478
f 480 477 479
f 480 481 478
f 480 479 482
f 480 483 481
f 483 480 482
f 483 484 481
f 483 482 485
f 484 483 486
f 483 485 486
f 487 488 489
f 487 489 490
f 488 487 491
f 491 487 490
f 492 493 494
f 492 494 495
f 493 492 496
f 496 492 495
f 497 498 499
f 497 499 500
f 498 497 501
f 501 497 500
f 502 503 504
f 505 502 504
f 502 506 503
f 506 502 505
f 507 508 509
f 510 507 509
f 507 511 508
f 511 507 510
f 512 513 514
f 513 512 515
f 513 516 514
f 513 515 517
f 513 518 516
f 518 513 517
f 518 519 516
f 518 517 520
f 518 521 519
f 521 518 520
f 521 522 519
f 521 520 523
f 521 524 522
f 524 521 523
f 524 525 522
f 524 523 526
f 524 527 525
f 527 524 526
f 527 528 525
f 527 526 529
f 527 530 528
f 530 527 529
f 530 531 528
f 530 529 532
f 530 533 531
f 533 530 532
f 533 534 531
f 533 532 535
f 534 533 536
f 533 535 536
f 537 538 539
f 538 537 540
f 538 541 539
f 538 540 542
f 538 543 541
f 543 538 542
f 543 544 541
f 543 542 545
f 543 546 544
f 546 543 545
f 546 547 544
f 546 545 548
f 546 549 547
f 549 546 548
f 549 550 547
f 549 548 551
f 549 552 550
f 552 549 551
f 552 553 550
f 552 551 554
f 552 555 553
f 555 552 554
f 555 556 553
f 555 554 557
f 555 558 556
f 558 555 557
f 558 559 556
f 558 557 560
f 559 558 561
f 558 560 561
f 562 563 564
f 562 564 565
f 563 562 566
f 566 562 565
f 567 568 569
f 567 569 570
f 568 567 571
f 571 567 570
f 572 573 574
f 572 574 575
f 573 572 576
f 576 572 575
f 577 578 579
f 580 577 579
f 577 581 578
f 581 577 580
f 582 583 584
f 585 582 584
f 582 586 583
f 586 582 585
f 587 588 589
f 588 587 590
f 588 591 589
f 588 590 592
f 588 593 591
f 593 588 592
f 593 594 591
f 593 592 595
f 593 596 594
f 596 593 595
f 596 597 594
f 596 595 598
f 596 599 597
f 599 596 598
f 599 600 597
f 599 598 601
f 599 602 600
f 602 599 601
f 602 603 600
f 602 601 604
f 602 605 603
f 605 602 604
f 605 606 603
f 605 604 607
f 605 608 606
f 608 605 607
f 608 609 606
f 608 607 610
f 609 608 611
f 608 610 611
f 612 613 614
f 613 612 615
f 613 616 614
f 613 615 617
f 613 618 616
f 618 613 617
f 618 619 616
f 618 617 620
f 618 621 619
f 621 618 620
f 621 622 619
f 621 620 623
f 621 624 622
f 624 621 623
f 624 625 622
f 624 623 626
f 624 627 625
f 627 624 626
f 627 628 625
f 627 626 629
f 627 630 628
f 630 627 629
f 630 631 628
f 630 629 632
f 630 633 631
f 633 630 632
f 633 634 631
f 633 632 635
f 634 633 636
f 633 635 636
f 637 638 639
f 640 638 637
f 638 641 639
f 638 640 641
f 642 643 644
f 645 643 642
f 643 646 644
f 643 645 646
f 647 648 649
f 650 648 647
f 648 651 649
f 648 650 651
f 652 653 654
f 655 653 652
f 653 656 654
f 653 655 656
f 657 658 659
f 660 658 657
f 658 661 659
f 658 660 661
f 662 663 664
f 665 663 662
f 663 666 664
f 663 665 666
f 667 668 669
f 670 668 667
f 668 671 669
f 668 670 671
f 672 673 674
f 675 673 672
f 673 676 674
f 673 675 676
f 677 678 679
f 680 678 677
f 678 681 679
f 678 680 681
f 682 683 684
f 685 683 682
f 683 686 684
f 683 685 686
