# ROS coordinates: X forward, Y left, Z up; units are metres.
o mesh
v -0.0289738178 0.08487081 0.00500000035
v -0.029483337 0.0843805149 0.00500000035
v -0.0295233969 0.08438128 0.00456328876
v -0.0292868279 0.08462678 0.004447382
v -0.0290222224 0.08487174 0.0044723074
v -0.0296518132 0.0843837559 0.004116573
v -0.0291773938 0.08487472 0.0039325254
v -0.0294742323 0.084630385 0.003885622
v -0.0298744757 0.08438803 0.00368669676
v -0.0294464417 0.0848799 0.00341309188
v -0.029796727 0.0846365839 0.00336023187
v -0.03018615 0.08439402 0.003302944
v -0.02982305 0.08488714 0.00294939056
v -0.0302386228 0.084645085 0.00291825528
v -0.0305698328 0.08440141 0.00299121113
v -0.030286666 0.08489605 0.00257271319
v -0.0307639148 0.08465519 0.00259569963
v -0.03099963 0.08440967 0.00276850816
v -0.0308060031 0.08490604 0.002303614
v -0.03132557 0.0846659839 0.00240826071
v -0.0314462632 0.08441826 0.00264006713
v -0.0318780877 0.08467661 0.0023500002
v -0.0313456878 0.08491641 0.0021484145
v -0.0318828933 0.08442666 0.0026
v -0.031873282 0.08492656 0.0021
v -0.0323195234 0.0844350457 0.00264006713
v -0.0324008763 0.08493671 0.0021484145
v -0.0324306041 0.08468723 0.00240826071
v -0.03276616 0.0844436362 0.00276850816
v -0.03294056 0.08494708 0.002303614
v -0.0328533575 0.08469536 0.00253606122
v -0.0332625024 0.08470323 0.00274053356
v -0.0331959538 0.0844519 0.00299121113
v -0.0334598981 0.08495707 0.00257271319
v -0.0336375348 0.08471044 0.003018661
v -0.0335796364 0.084459275 0.003302944
v -0.0339235142 0.08496598 0.00294939056
v -0.03395945 0.08471663 0.00336023187
v -0.0338913128 0.08446527 0.00368669676
v -0.03430012 0.08497322 0.00341309188
v -0.0342137627 0.08472152 0.003748958
v -0.0341139734 0.08446956 0.004116573
v -0.03456917 0.0849784 0.0039325254
v -0.0343926251 0.08472496 0.004164976
v -0.03424239 0.08447202 0.00456328876
v -0.03472434 0.08498138 0.0044723074
v -0.0344953761 0.08472694 0.00458797626
v -0.0347727463 0.08498231 0.00500000035
v -0.03428245 0.08447279 0.00500000035
v -0.03424239 0.08447202 0.00543671148
v -0.0347727463 0.08498231 0.00500000035
v -0.0344693474 0.08472644 0.00555261876
v -0.03472434 0.08498138 0.00552769331
v -0.0341139734 0.08446956 0.005883428
v -0.03456917 0.0849784 0.00606747437
v -0.034281943 0.08472283 0.006114379
v -0.0338913128 0.08446527 0.00631330349
v -0.03430012 0.08497322 0.00658690836
v -0.03395945 0.08471663 0.00663976837
v -0.0335796364 0.084459275 0.006697057
v -0.0339235142 0.08496598 0.00705061
v -0.0335175544 0.08470814 0.00708174473
v -0.0331959538 0.0844519 0.00700878957
v -0.0334598981 0.08495707 0.00742728775
v -0.03299226 0.08469804 0.007404301
v -0.03276616 0.0844436362 0.007231492
v -0.03294056 0.08494708 0.00769638643
v -0.0324306041 0.08468723 0.0075917393
v -0.0323195234 0.0844350457 0.007359933
v -0.0318780877 0.08467661 0.00765
v -0.0324008763 0.08493671 0.007851586
v -0.0318828933 0.08442666 0.00740000047
v -0.031873282 0.08492656 0.007900001
v -0.0314462632 0.08441826 0.007359933
v -0.0313456878 0.08491641 0.007851586
v -0.03132557 0.0846659839 0.0075917393
v -0.03099963 0.08440967 0.007231492
v -0.0308060031 0.08490604 0.00769638643
v -0.0309028178 0.0846578553 0.00746393949
v -0.0304936729 0.08464999 0.007259466
v -0.0305698328 0.08440141 0.00700878957
v -0.030286666 0.08489605 0.00742728775
v -0.0301186424 0.08464278 0.00698133931
v -0.03018615 0.08439402 0.006697057
v -0.02982305 0.08488714 0.00705061
v -0.029796727 0.0846365839 0.00663976837
v -0.0298744757 0.08438803 0.00631330349
v -0.0294464417 0.0848799 0.00658690836
v -0.0295424126 0.0846317 0.00625104271
v -0.0296518132 0.0843837559 0.005883428
v -0.0291773938 0.08487472 0.00606747437
v -0.02936355 0.08462826 0.005835025
v -0.0295233969 0.08438128 0.00543671148
v -0.0290222224 0.08487174 0.00552769331
v -0.0292608 0.08462629 0.00541202445
v -0.029483337 0.0843805149 0.00500000035
v -0.0289738178 0.08487081 0.00500000035
v -0.0289738178 0.08487081 0.00500000035
v -0.0282336473 0.1233637 0.00500000035
v -0.0282820519 0.123364627 0.00552769331
v -0.028667476 0.104118481 0.005604753
v -0.0290222224 0.08487174 0.00552769331
v -0.0284372233 0.123367615 0.00606747437
v -0.0291773938 0.08487472 0.00606747437
v -0.02887256 0.104122423 0.006219508
v -0.0287062712 0.123372786 0.00658690836
v -0.0294464417 0.0848799 0.00658690836
v -0.0292254817 0.10412921 0.006794464
v -0.02908288 0.123380028 0.00705061
v -0.02982305 0.08488714 0.00705061
v -0.0297090635 0.104138508 0.007278136
v -0.0295464955 0.123388946 0.00742728775
v -0.030286666 0.08489605 0.00742728775
v -0.030283913 0.104149558 0.00763112167
v -0.0300658327 0.12339893 0.00769638643
v -0.0308060031 0.08490604 0.00769638643
v -0.0308985561 0.104161382 0.007836243
v -0.0306055155 0.123409308 0.007851586
v -0.0315031968 0.104173005 0.007900001
v -0.0313456878 0.08491641 0.007851586
v -0.0311331116 0.123419449 0.007900001
v -0.031873282 0.08492656 0.007900001
v -0.0316607058 0.1234296 0.007851586
v -0.0324008763 0.08493671 0.007851586
v -0.0321078375 0.104184635 0.007836243
v -0.03220039 0.123439975 0.00769638643
v -0.03294056 0.08494708 0.00769638643
v -0.0325704738 0.104193531 0.00769638643
v -0.0330182165 0.104202136 0.007472624
v -0.0327197276 0.123449959 0.00742728775
v -0.0334598981 0.08495707 0.00742728775
v -0.033428628 0.104210027 0.00716825854
v -0.03318334 0.123458877 0.00705061
v -0.0339235142 0.08496598 0.00705061
v -0.03378091 0.104216807 0.006794464
v -0.03355995 0.123466119 0.00658690836
v -0.03430012 0.08497322 0.00658690836
v -0.03405922 0.104222156 0.00636906549
v -0.033829 0.12347129 0.00606747437
v -0.03456917 0.0849784 0.00606747437
v -0.0342549533 0.104225919 0.005913801
v -0.03398417 0.123474278 0.00552769331
v -0.03472434 0.08498138 0.00552769331
v -0.0343674 0.104228079 0.005450894
v -0.0340325758 0.123475209 0.00500000035
v -0.0347727463 0.08498231 0.00500000035
v -0.03398417 0.123474278 0.0044723074
v -0.0343389139 0.104227535 0.00439524837
v -0.03472434 0.08498138 0.0044723074
v -0.033829 0.12347129 0.0039325254
v -0.03456917 0.0849784 0.0039325254
v -0.0341338329 0.104223587 0.00378049188
v -0.03355995 0.123466119 0.00341309188
v -0.03430012 0.08497322 0.00341309188
v -0.03378091 0.104216807 0.00320553686
v -0.03318334 0.123458877 0.00294939056
v -0.0339235142 0.08496598 0.00294939056
v -0.0332973264 0.104207508 0.0027218645
v -0.0327197276 0.123449959 0.00257271319
v -0.0334598981 0.08495707 0.00257271319
v -0.03272248 0.104196452 0.00236887881
v -0.03220039 0.123439975 0.002303614
v -0.03294056 0.08494708 0.002303614
v -0.0321078375 0.104184635 0.002163757
v -0.0316607058 0.1234296 0.0021484145
v -0.0315031968 0.104173005 0.0021
v -0.0324008763 0.08493671 0.0021484145
v -0.0311331116 0.123419449 0.0021
v -0.031873282 0.08492656 0.0021
v -0.0306055155 0.123409308 0.0021484145
v -0.0313456878 0.08491641 0.0021484145
v -0.0308985561 0.104161382 0.002163757
v -0.0300658327 0.12339893 0.002303614
v -0.0308060031 0.08490604 0.002303614
v -0.0304359179 0.104152486 0.002303614
v -0.0299881771 0.104143873 0.00252737687
v -0.0295464955 0.123388946 0.00257271319
v -0.030286666 0.08489605 0.00257271319
v -0.0295777638 0.104135983 0.002831742
v -0.02908288 0.123380028 0.00294939056
v -0.02982305 0.08488714 0.00294939056
v -0.0292254817 0.10412921 0.00320553686
v -0.0287062712 0.123372786 0.00341309188
v -0.0294464417 0.0848799 0.00341309188
v -0.0289471745 0.104123861 0.00363093521
v -0.0284372233 0.123367615 0.0039325254
v -0.0291773938 0.08487472 0.0039325254
v -0.0287514385 0.104120091 0.0040862
v -0.0282820519 0.123364627 0.0044723074
v -0.0290222224 0.08487174 0.0044723074
v -0.0286389925 0.10411793 0.004549106
v -0.0282336473 0.1233637 0.00500000035
v -0.0289738178 0.08487081 0.00500000035
v -0.0282336473 0.1233637 0.00500000035
v -0.0287239421 0.123873219 0.00500000035
v -0.028764002 0.123873986 0.00543671148
v -0.0285370443 0.123619571 0.00555261876
v -0.0282820519 0.123364627 0.00552769331
v -0.0288924184 0.12387646 0.005883428
v -0.0284372233 0.123367615 0.00606747437
v -0.0287244488 0.123623177 0.006114379
v -0.02911508 0.123880737 0.00631330349
v -0.0287062712 0.123372786 0.00658690836
v -0.0290469453 0.123629376 0.00663976837
v -0.0294267554 0.123886734 0.006697057
v -0.02908288 0.123380028 0.00705061
v -0.02948884 0.123637877 0.00708174473
v -0.0298104379 0.12389411 0.00700878957
v -0.0295464955 0.123388946 0.00742728775
v -0.0300141312 0.12364798 0.007404301
v -0.030240234 0.123902373 0.007231492
v -0.0300658327 0.12339893 0.00769638643
v -0.0305757876 0.123658776 0.0075917393
v -0.0306868684 0.123910964 0.007359933
v -0.0311283041 0.1236694 0.00765
v -0.0306055155 0.123409308 0.007851586
v -0.0311234985 0.12391936 0.00740000047
v -0.0311331116 0.123419449 0.007900001
v -0.03156013 0.123927757 0.007359933
v -0.0316607058 0.1234296 0.007851586
v -0.0316808224 0.123680025 0.0075917393
v -0.0320067629 0.12393634 0.007231492
v -0.03220039 0.123439975 0.00769638643
v -0.0321035758 0.123688154 0.00746393949
v -0.03251272 0.123696022 0.007259466
v -0.03243656 0.12394461 0.00700878957
v -0.0327197276 0.123449959 0.00742728775
v -0.03288775 0.123703234 0.00698133931
v -0.03282024 0.123951986 0.006697057
v -0.03318334 0.123458877 0.00705061
v -0.0332096629 0.123709425 0.00663976837
v -0.0331319161 0.123957977 0.00631330349
v -0.03355995 0.123466119 0.00658690836
v -0.03346398 0.123714313 0.00625104271
v -0.0333545767 0.123962261 0.005883428
v -0.033829 0.12347129 0.00606747437
v -0.0336428434 0.123717755 0.005835025
v -0.0334829949 0.123964727 0.00543671148
v -0.03398417 0.123474278 0.00552769331
v -0.0337455943 0.123719729 0.00541202445
v -0.0340325758 0.123475209 0.00500000035
v -0.0335230567 0.1239655 0.00500000035
v -0.0334829949 0.123964727 0.00456328876
v -0.0340325758 0.123475209 0.00500000035
v -0.0337195657 0.12371923 0.004447382
v -0.03398417 0.123474278 0.0044723074
v -0.0333545767 0.123962261 0.004116573
v -0.033829 0.12347129 0.0039325254
v -0.03353216 0.123715624 0.003885622
v -0.0331319161 0.123957977 0.00368669676
v -0.03355995 0.123466119 0.00341309188
v -0.0332096629 0.123709425 0.00336023187
v -0.03282024 0.123951986 0.003302944
v -0.03318334 0.123458877 0.00294939056
v -0.03276777 0.123700932 0.00291825528
v -0.03243656 0.12394461 0.00299121113
v -0.0327197276 0.123449959 0.00257271319
v -0.0322424769 0.123690829 0.00259569963
v -0.0320067629 0.12393634 0.00276850816
v -0.03220039 0.123439975 0.002303614
v -0.0316808224 0.123680025 0.00240826071
v -0.03156013 0.123927757 0.00264006713
v -0.0311283041 0.1236694 0.0023500002
v -0.0316607058 0.1234296 0.0021484145
v -0.0311234985 0.12391936 0.0026
v -0.0311331116 0.123419449 0.0021
v -0.0306868684 0.123910964 0.00264006713
v -0.0306055155 0.123409308 0.0021484145
v -0.0305757876 0.123658776 0.00240826071
v -0.030240234 0.123902373 0.00276850816
v -0.0300658327 0.12339893 0.002303614
v -0.0301530343 0.123650648 0.00253606122
v -0.02974389 0.12364278 0.00274053356
v -0.0298104379 0.12389411 0.00299121113
v -0.0295464955 0.123388946 0.00257271319
v -0.0293688588 0.123635575 0.003018661
v -0.0294267554 0.123886734 0.003302944
v -0.02908288 0.123380028 0.00294939056
v -0.0290469453 0.123629376 0.00336023187
v -0.02911508 0.123880737 0.00368669676
v -0.0287062712 0.123372786 0.00341309188
v -0.028792629 0.123624489 0.003748958
v -0.0288924184 0.12387646 0.004116573
v -0.0284372233 0.123367615 0.0039325254
v -0.0286137667 0.123621054 0.004164976
v -0.028764002 0.123873986 0.00456328876
v -0.0282820519 0.123364627 0.0044723074
v -0.0285110157 0.12361908 0.00458797626
v -0.0287239421 0.123873219 0.00500000035
v -0.0282336473 0.1233637 0.00500000035
v -0.0331319161 0.123957977 0.00631330349
v -0.0311234985 0.12391936 0.00500000035
v -0.0333545767 0.123962261 0.005883428
v -0.03282024 0.123951986 0.006697057
v -0.0334829949 0.123964727 0.00543671148
v -0.03243656 0.12394461 0.00700878957
v -0.0335230567 0.1239655 0.00500000035
v -0.0320067629 0.12393634 0.007231492
v -0.0334829949 0.123964727 0.00456328876
v -0.03156013 0.123927757 0.007359933
v -0.0333545767 0.123962261 0.004116573
v -0.0311234985 0.12391936 0.00740000047
v -0.0331319161 0.123957977 0.00368669676
v -0.0306868684 0.123910964 0.007359933
v -0.03282024 0.123951986 0.003302944
v -0.030240234 0.123902373 0.007231492
v -0.03243656 0.12394461 0.00299121113
v -0.0298104379 0.12389411 0.00700878957
v -0.0320067629 0.12393634 0.00276850816
v -0.0294267554 0.123886734 0.006697057
v -0.03156013 0.123927757 0.00264006713
v -0.02911508 0.123880737 0.00631330349
v -0.0311234985 0.12391936 0.0026
v -0.0288924184 0.12387646 0.005883428
v -0.0306868684 0.123910964 0.00264006713
v -0.028764002 0.123873986 0.00543671148
v -0.030240234 0.123902373 0.00276850816
v -0.0287239421 0.123873219 0.00500000035
v -0.0298104379 0.12389411 0.00299121113
v -0.028764002 0.123873986 0.00456328876
v -0.0294267554 0.123886734 0.003302944
v -0.0288924184 0.12387646 0.004116573
v -0.02911508 0.123880737 0.00368669676
v -0.0338913128 0.08446527 0.00368669676
v -0.0318828933 0.08442666 0.00500000035
v -0.0341139734 0.08446956 0.004116573
v -0.0335796364 0.084459275 0.003302944
v -0.03424239 0.08447202 0.00456328876
v -0.0331959538 0.0844519 0.00299121113
v -0.03428245 0.08447279 0.00500000035
v -0.03276616 0.0844436362 0.00276850816
v -0.03424239 0.08447202 0.00543671148
v -0.0323195234 0.0844350457 0.00264006713
v -0.0341139734 0.08446956 0.005883428
v -0.0318828933 0.08442666 0.0026
v -0.0338913128 0.08446527 0.00631330349
v -0.0314462632 0.08441826 0.00264006713
v -0.0335796364 0.084459275 0.006697057
v -0.03099963 0.08440967 0.00276850816
v -0.0331959538 0.0844519 0.00700878957
v -0.0305698328 0.08440141 0.00299121113
v -0.03276616 0.0844436362 0.007231492
v -0.03018615 0.08439402 0.003302944
v -0.0323195234 0.0844350457 0.007359933
v -0.0298744757 0.08438803 0.00368669676
v -0.0318828933 0.08442666 0.00740000047
v -0.0296518132 0.0843837559 0.004116573
v -0.0314462632 0.08441826 0.007359933
v -0.0295233969 0.08438128 0.00456328876
v -0.03099963 0.08440967 0.007231492
v -0.029483337 0.0843805149 0.00500000035
v -0.0305698328 0.08440141 0.00700878957
v -0.0295233969 0.08438128 0.00543671148
v -0.03018615 0.08439402 0.006697057
v -0.0296518132 0.0843837559 0.005883428
v -0.0298744757 0.08438803 0.00631330349
f 1 2 3
f 1 3 4
f 5 1 4
f 4 3 6
f 7 5 4
f 8 4 6
f 7 4 8
f 8 6 9
f 10 7 8
f 11 8 9
f 10 8 11
f 11 9 12
f 13 10 11
f 14 11 12
f 13 11 14
f 14 12 15
f 16 13 14
f 17 14 15
f 16 14 17
f 17 15 18
f 19 16 17
f 20 17 18
f 19 17 20
f 20 18 21
f 22 20 21
f 23 19 20
f 23 20 22
f 22 21 24
f 25 23 22
f 26 22 24
f 27 25 22
f 28 22 26
f 27 22 28
f 29 28 26
f 30 27 28
f 31 28 29
f 31 30 28
f 32 31 29
f 31 32 30
f 32 29 33
f 32 34 30
f 35 32 33
f 32 35 34
f 35 33 36
f 35 37 34
f 38 35 36
f 35 38 37
f 38 36 39
f 38 40 37
f 41 38 39
f 38 41 40
f 41 39 42
f 41 43 40
f 44 41 42
f 41 44 43
f 44 42 45
f 44 46 43
f 47 44 45
f 44 47 46
f 46 47 48
f 47 45 49
f 47 49 48
f 49 50 51
f 50 52 51
f 51 52 53
f 50 54 52
f 52 55 53
f 54 56 52
f 52 56 55
f 54 57 56
f 56 58 55
f 57 59 56
f 56 59 58
f 57 60 59
f 59 61 58
f 60 62 59
f 59 62 61
f 60 63 62
f 62 64 61
f 63 65 62
f 62 65 64
f 63 66 65
f 65 67 64
f 66 68 65
f 65 68 67
f 66 69 68
f 69 70 68
f 68 71 67
f 68 70 71
f 69 72 70
f 70 73 71
f 72 74 70
f 70 75 73
f 74 76 70
f 70 76 75
f 74 77 76
f 76 78 75
f 77 79 76
f 76 79 78
f 77 80 79
f 80 78 79
f 81 80 77
f 80 82 78
f 83 80 81
f 80 83 82
f 84 83 81
f 83 85 82
f 86 83 84
f 83 86 85
f 87 86 84
f 86 88 85
f 89 86 87
f 86 89 88
f 90 89 87
f 89 91 88
f 92 89 90
f 89 92 91
f 93 92 90
f 92 94 91
f 95 92 93
f 92 95 94
f 96 95 93
f 95 97 94
f 95 96 97
f 98 99 100
f 98 100 101
f 102 98 101
f 101 100 103
f 104 102 101
f 105 101 103
f 104 101 105
f 105 103 106
f 107 104 105
f 108 105 106
f 107 105 108
f 108 106 109
f 110 107 108
f 111 108 109
f 110 108 111
f 111 109 112
f 113 110 111
f 114 111 112
f 113 111 114
f 114 112 115
f 116 113 114
f 117 114 115
f 116 114 117
f 117 115 118
f 119 117 118
f 120 116 117
f 120 117 119
f 119 118 121
f 122 120 119
f 123 119 121
f 124 122 119
f 125 119 123
f 124 119 125
f 126 125 123
f 127 124 125
f 128 125 126
f 128 127 125
f 129 128 126
f 128 129 127
f 129 126 130
f 129 131 127
f 132 129 130
f 129 132 131
f 132 130 133
f 132 134 131
f 135 132 133
f 132 135 134
f 135 133 136
f 135 137 134
f 138 135 136
f 135 138 137
f 138 136 139
f 138 140 137
f 141 138 139
f 138 141 140
f 141 139 142
f 141 143 140
f 144 141 142
f 141 144 143
f 144 142 145
f 143 144 146
f 144 145 146
f 145 147 146
f 147 148 146
f 146 148 149
f 147 150 148
f 148 151 149
f 150 152 148
f 148 152 151
f 150 153 152
f 152 154 151
f 153 155 152
f 152 155 154
f 153 156 155
f 155 157 154
f 156 158 155
f 155 158 157
f 156 159 158
f 158 160 157
f 159 161 158
f 158 161 160
f 159 162 161
f 161 163 160
f 162 164 161
f 161 164 163
f 162 165 164
f 165 166 164
f 164 167 163
f 164 166 167
f 165 168 166
f 166 169 167
f 168 170 166
f 166 171 169
f 170 172 166
f 166 172 171
f 170 173 172
f 172 174 171
f 173 175 172
f 172 175 174
f 173 176 175
f 176 174 175
f 177 176 173
f 176 178 174
f 179 176 177
f 176 179 178
f 180 179 177
f 179 181 178
f 182 179 180
f 179 182 181
f 183 182 180
f 182 184 181
f 185 182 183
f 182 185 184
f 186 185 183
f 185 187 184
f 188 185 186
f 185 188 187
f 189 188 186
f 188 190 187
f 191 188 189
f 188 191 190
f 192 191 189
f 191 193 190
f 191 192 193
f 194 195 196
f 194 196 197
f 198 194 197
f 197 196 199
f 200 198 197
f 201 197 199
f 200 197 201
f 201 199 202
f 203 200 201
f 204 201 202
f 203 201 204
f 204 202 205
f 206 203 204
f 207 204 205
f 206 204 207
f 207 205 208
f 209 206 207
f 210 207 208
f 209 207 210
f 210 208 211
f 212 209 210
f 213 210 211
f 212 210 213
f 213 211 214
f 215 213 214
f 216 212 213
f 216 213 215
f 215 214 217
f 218 216 215
f 219 215 217
f 220 218 215
f 221 215 219
f 220 215 221
f 222 221 219
f 223 220 221
f 224 221 222
f 224 223 221
f 225 224 222
f 224 225 223
f 225 222 226
f 225 227 223
f 228 225 226
f 225 228 227
f 228 226 229
f 228 230 227
f 231 228 229
f 228 231 230
f 231 229 232
f 231 233 230
f 234 231 232
f 231 234 233
f 234 232 235
f 234 236 233
f 237 234 235
f 234 237 236
f 237 235 238
f 237 239 236
f 240 237 238
f 237 240 239
f 239 240 241
f 240 238 242
f 240 242 241
f 242 243 244
f 243 245 244
f 244 245 246
f 243 247 245
f 245 248 246
f 247 249 245
f 245 249 248
f 247 250 249
f 249 251 248
f 250 252 249
f 249 252 251
f 250 253 252
f 252 254 251
f 253 255 252
f 252 255 254
f 253 256 255
f 255 257 254
f 256 258 255
f 255 258 257
f 256 259 258
f 258 260 257
f 259 261 258
f 258 261 260
f 259 262 261
f 262 263 261
f 261 264 260
f 261 263 264
f 262 265 263
f 263 266 264
f 265 267 263
f 263 268 266
f 267 269 263
f 263 269 268
f 267 270 269
f 269 271 268
f 270 272 269
f 269 272 271
f 270 273 272
f 273 271 272
f 274 273 270
f 273 275 271
f 276 273 274
f 273 276 275
f 277 276 274
f 276 278 275
f 279 276 277
f 276 279 278
f 280 279 277
f 279 281 278
f 282 279 280
f 279 282 281
f 283 282 280
f 282 284 281
f 285 282 283
f 282 285 284
f 286 285 283
f 285 287 284
f 288 285 286
f 285 288 287
f 289 288 286
f 288 290 287
f 288 289 290
f 291 292 293
f 292 291 294
f 292 295 293
f 292 294 296
f 295 292 297
f 298 292 296
f 292 299 297
f 292 298 300
f 292 301 299
f 292 300 302
f 301 292 303
f 304 292 302
f 292 305 303
f 292 304 306
f 292 307 305
f 292 306 308
f 307 292 309
f 310 292 308
f 292 311 309
f 292 310 312
f 292 313 311
f 292 312 314
f 313 292 315
f 316 292 314
f 292 317 315
f 292 316 318
f 292 319 317
f 292 318 320
f 319 292 321
f 322 292 320
f 292 323 321
f 292 322 323
f 324 325 326
f 325 324 327
f 325 328 326
f 325 327 329
f 328 325 330
f 331 325 329
f 325 332 330
f 325 331 333
f 325 334 332
f 325 333 335
f 334 325 336
f 337 325 335
f 325 338 336
f 325 337 339
f 325 340 338
f 325 339 341
f 340 325 342
f 343 325 341
f 325 344 342
f 325 343 345
f 325 346 344
f 325 345 347
f 346 325 348
f 349 325 347
f 325 350 348
f 325 349 351
f 325 352 350
f 325 351 353
f 352 325 354
f 355 325 353
f 325 356 354
f 325 355 356
