# ROS coordinates: X forward, Y left, Z up; units are metres.
o mesh
v -0.0373199955 0.101709805 0.09153
v -0.0363654047 0.102664396 0.09153
v -0.0396958776 0.104085684 0.09153
v -0.0240193158 0.119762249 0.09153
v -0.02777052 0.107836887 0.09153
v -0.0158451609 0.111588091 0.09153
v -0.0329430066 0.099242 0.09153
v -0.0315217227 0.0959115252 0.09153
v -0.0338976 0.0982874 0.09153
v -0.0156683847 0.111411318 0.0912800059
v -0.015639171 0.111446433 0.0912800059
v -0.0156713352 0.111414269 0.09132549
v -0.01564261 0.111448795 0.09132549
v -0.0156157268 0.1114888 0.0912800059
v -0.0156807974 0.111423723 0.09137203
v -0.0156195574 0.111490451 0.09132549
v -0.0156004671 0.11153686 0.0912800059
v -0.0156536326 0.111456379 0.09137203
v -0.0156972 0.11144013 0.091416806
v -0.0156045528 0.111537717 0.09132549
v -0.0155951623 0.111588091 0.0912800059
v -0.0156318359 0.111495771 0.09137203
v -0.015672747 0.111469522 0.091416806
v -0.0157201625 0.111463092 0.09145678
v -0.0155993365 0.111588091 0.09132549
v -0.0156004671 0.111639321 0.0912800059
v -0.0156176472 0.111540459 0.09137203
v -0.0156531259 0.111504979 0.091416806
v -0.0156995021 0.111487925 0.09145678
v -0.0157484282 0.11149136 0.0914892554
v -0.0156045519 0.111638464 0.09132549
v -0.0156157259 0.111687385 0.0912800059
v -0.0156127149 0.111588091 0.09137203
v -0.0156403519 0.111545213 0.091416806
v -0.0156829264 0.111517876 0.09145678
v -0.0157324411 0.111510575 0.0914892554
v -0.0157800913 0.111523017 0.09151245
v -0.0156195574 0.111685731 0.09132549
v -0.015639171 0.111729749 0.0912800059
v -0.0156176472 0.111635722 0.09137203
v -0.0156359132 0.111588091 0.091416806
v -0.0156721361 0.111551866 0.09145678
v -0.0157196112 0.111533754 0.0914892554
v -0.0157693364 0.111535951 0.09151245
v -0.0158129949 0.111555927 0.09152583
v -0.0158451609 0.111588091 0.09153
v -0.01564261 0.111727387 0.09132549
v -0.0156683866 0.111764863 0.0912800059
v -0.015671337 0.111761913 0.09132549
v -0.0156318359 0.111680411 0.09137203
v -0.0156536326 0.1117198 0.09137203
v -0.0156807974 0.111752458 0.09137203
v -0.0157607086 0.111551538 0.09151245
v -0.0158451609 0.111588091 0.09153
v -0.0156403519 0.111630969 0.091416806
v -0.015672747 0.111706659 0.091416806
v -0.0156972 0.111736052 0.091416806
v -0.0156531259 0.1116712 0.091416806
v -0.0157112628 0.111560062 0.0914892554
v -0.0156683847 0.111588091 0.09145678
v -0.0156995039 0.111688256 0.09145678
v -0.0157201625 0.111713089 0.09145678
v -0.0156721361 0.111624315 0.09145678
v -0.0156829264 0.111658305 0.09145678
v -0.01575509 0.111569233 0.09151245
v -0.0158451609 0.111588091 0.09153
v -0.01570836 0.111588091 0.0914892554
v -0.0157324411 0.111665606 0.0914892554
v -0.0157484282 0.111684822 0.0914892554
v -0.0157112628 0.11161612 0.0914892554
v -0.0157531388 0.111588091 0.09151245
v -0.0158451609 0.111588091 0.09153
v -0.0157196131 0.111642428 0.0914892554
v -0.01575509 0.111606948 0.09151245
v -0.0158451609 0.111588091 0.09153
v -0.0157607086 0.111624643 0.09151245
v -0.0158451609 0.111588091 0.09153
v -0.0157693382 0.111640237 0.09151245
v -0.0158451609 0.111588091 0.09153
v -0.0157800913 0.111653164 0.09151245
v -0.0158129968 0.111620255 0.09152583
v -0.0158451609 0.111588091 0.09153
v -0.0238454919 0.119936071 0.09132549
v -0.0238425415 0.119939022 0.09128
v -0.02387766 0.119968235 0.09128
v -0.0238800235 0.1199648 0.09132549
v -0.023920022 0.119991682 0.09128
v -0.0238549523 0.119926609 0.09137203
v -0.02392168 0.119987853 0.09132549
v -0.02396809 0.120006941 0.09128
v -0.0238876045 0.119953774 0.09137203
v -0.0238713548 0.11991021 0.091416806
v -0.0239689462 0.120002858 0.09132549
v -0.0240193177 0.120012246 0.09128
v -0.0239269957 0.119975574 0.09137203
v -0.023900751 0.119934663 0.091416806
v -0.0238943174 0.119887248 0.09145678
v -0.0240193177 0.120008074 0.09132549
v -0.024070546 0.120006941 0.09128
v -0.023971688 0.11998976 0.09137203
v -0.0239362083 0.119954281 0.091416806
v -0.02391915 0.1199079 0.09145678
v -0.0239225831 0.11985898 0.09148925
v -0.02406969 0.120002851 0.09132549
v -0.0241186116 0.119991682 0.09128
v -0.0240193158 0.119994693 0.09137203
v -0.0239764415 0.119967058 0.091416806
v -0.0239491053 0.119924478 0.09145678
v -0.0239418 0.119874969 0.09148925
v -0.0239542462 0.119827315 0.09151245
v -0.0241169538 0.119987853 0.09132549
v -0.0241609775 0.119968235 0.09128
v -0.0240669474 0.11998976 0.09137203
v -0.0240193177 0.119971491 0.091416806
v -0.0239830948 0.119935274 0.09145678
v -0.0239649825 0.1198878 0.09148925
v -0.023967173 0.119838074 0.09151245
v -0.0239871517 0.119794413 0.09152583
v -0.0240193158 0.119762249 0.09153
v -0.0241586119 0.1199648 0.09132549
v -0.0241960939 0.119939022 0.09128
v -0.0241931416 0.119936071 0.09132549
v -0.02411164 0.119975574 0.09137203
v -0.0241510291 0.119953774 0.09137203
v -0.0241836812 0.119926609 0.09137203
v -0.023982767 0.1198467 0.09151245
v -0.0240193158 0.119762249 0.09153
v -0.0240621939 0.119967058 0.091416806
v -0.0241378844 0.119934663 0.091416806
v -0.0241672788 0.11991021 0.091416806
v -0.0241024271 0.119954281 0.091416806
v -0.0239912849 0.119896144 0.09148925
v -0.0240193158 0.119939022 0.09145678
v -0.0241194852 0.119907908 0.09145678
v -0.024144318 0.119887248 0.09145678
v -0.02405554 0.119935274 0.09145678
v -0.0240895282 0.119924486 0.09145678
v -0.0240004621 0.119852319 0.09151245
v -0.0240193158 0.119762249 0.09153
v -0.0240193177 0.119899049 0.09148925
v -0.0240968335 0.119874969 0.09148925
v -0.02411605 0.11985898 0.09148925
v -0.0240473486 0.119896144 0.09148925
v -0.0240193177 0.119854271 0.09151245
v -0.0240193158 0.119762249 0.09153
v -0.0240736529 0.1198878 0.09148925
v -0.0240381733 0.119852319 0.09151245
v -0.0240193158 0.119762249 0.09153
v -0.0240558684 0.1198467 0.09151245
v -0.0240193158 0.119762249 0.09153
v -0.02407146 0.119838074 0.09151245
v -0.0240193158 0.119762249 0.09153
v -0.0240843873 0.119827315 0.09151245
v -0.0240514837 0.119794413 0.09152583
v -0.0240193158 0.119762249 0.09153
v -0.0316955447 0.0957377 0.09132549
v -0.0316985 0.09573475 0.0912800059
v -0.03166338 0.09570554 0.0912800059
v -0.031661015 0.09570897 0.09132549
v -0.0316210166 0.09568209 0.0912800059
v -0.0316860862 0.0957471654 0.09137203
v -0.03161936 0.09568592 0.09132549
v -0.03157295 0.09566683 0.0912800059
v -0.031653434 0.09572 0.09137203
v -0.0316696838 0.0957635641 0.091416806
v -0.0315720923 0.0956709161 0.09132549
v -0.0315217227 0.09566153 0.0912800059
v -0.0316140428 0.0956982 0.09137203
v -0.0316402875 0.09573911 0.091416806
v -0.03164672 0.09578653 0.09145678
v -0.03152172 0.0956657 0.09132549
v -0.0314704925 0.09566683 0.0912800059
v -0.03156935 0.0956840143 0.09137203
v -0.03160483 0.0957194939 0.091416806
v -0.03162189 0.0957658738 0.09145678
v -0.0316184536 0.0958147943 0.0914892554
v -0.03147135 0.09567092 0.09132549
v -0.03142243 0.09568209 0.0912800059
v -0.0315217227 0.09567908 0.09137203
v -0.031564597 0.0957067162 0.091416806
v -0.0315919332 0.0957492962 0.09145678
v -0.03159924 0.0957988054 0.0914892554
v -0.0315867923 0.09584646 0.09151245
v -0.0314240828 0.09568592 0.09132549
v -0.03138006 0.09570554 0.0912800059
v -0.03147409 0.0956840143 0.09137203
v -0.0315217227 0.09570228 0.091416806
v -0.0315579437 0.0957385 0.09145678
v -0.031576056 0.0957859755 0.0914892554
v -0.0315738656 0.0958357 0.09151245
v -0.0315538868 0.09587936 0.09152583
v -0.0315217227 0.0959115252 0.09153
v -0.0313824266 0.09570897 0.09132549
v -0.0313449465 0.09573475 0.0912800059
v -0.0313478969 0.0957377 0.09132549
v -0.0314294 0.0956982 0.09137203
v -0.0313900076 0.09572 0.09137203
v -0.0313573554 0.0957471654 0.09137203
v -0.03155827 0.09582707 0.09151245
v -0.0315217227 0.0959115252 0.09153
v -0.0314788446 0.0957067162 0.091416806
v -0.0314031541 0.09573911 0.091416806
v -0.03137376 0.0957635641 0.091416806
v -0.03143861 0.0957194939 0.091416806
v -0.03154975 0.09577763 0.0914892554
v -0.0315217227 0.09573475 0.09145678
v -0.0314215533 0.09576587 0.09145678
v -0.03139672 0.09578653 0.09145678
v -0.031485498 0.0957385 0.09145678
v -0.03145151 0.09574929 0.09145678
v -0.03154058 0.0958214551 0.09151245
v -0.0315217227 0.0959115252 0.09153
v -0.03152172 0.0957747251 0.0914892554
v -0.0314442031 0.0957988054 0.0914892554
v -0.0314249881 0.0958147943 0.0914892554
v -0.03149369 0.09577763 0.0914892554
v -0.0315217227 0.0958195 0.09151245
v -0.0315217227 0.0959115252 0.09153
v -0.0314673856 0.0957859755 0.0914892554
v -0.0315028653 0.0958214551 0.09151245
v -0.0315217227 0.0959115252 0.09153
v -0.03148517 0.09582707 0.09151245
v -0.0315217227 0.0959115252 0.09153
v -0.03146958 0.0958357 0.09151245
v -0.0315217227 0.0959115252 0.09153
v -0.031456653 0.09584646 0.09151245
v -0.0314895548 0.09587936 0.09152583
v -0.0315217227 0.0959115252 0.09153
v -0.0398726538 0.104262456 0.09128
v -0.0399018675 0.104227342 0.09128
v -0.0398697034 0.104259506 0.09132549
v -0.03989843 0.10422498 0.09132549
v -0.0399253145 0.104184978 0.09128
v -0.03986024 0.104250051 0.09137203
v -0.03992148 0.104183324 0.09132549
v -0.0399405733 0.104136914 0.09128
v -0.0398874059 0.104217395 0.09137203
v -0.03984384 0.104233645 0.091416806
v -0.0399364866 0.104136057 0.09132549
v -0.0399458781 0.104085684 0.09128
v -0.0399092026 0.104178004 0.09137203
v -0.03986829 0.104204252 0.091416806
v -0.039820876 0.104210682 0.09145678
v -0.039941702 0.104085684 0.09132549
v -0.0399405733 0.104034454 0.09128
v -0.0399233922 0.104133315 0.09137203
v -0.0398879126 0.104168795 0.091416806
v -0.0398415364 0.104185849 0.09145678
v -0.0397926122 0.104182415 0.09148925
v -0.0399364866 0.10403531 0.09132549
v -0.0399253145 0.10398639 0.09128
v -0.0399283245 0.104085684 0.09137203
v -0.0399006866 0.104128562 0.091416806
v -0.03985811 0.1041559 0.09145678
v -0.0398085974 0.1041632 0.09148925
v -0.0397609472 0.104150757 0.09151245
v -0.03992148 0.103988044 0.09132549
v -0.0399018675 0.103944026 0.09128
v -0.0399233922 0.104038052 0.09137203
v -0.0399051234 0.104085684 0.091416806
v -0.0398689024 0.104121909 0.09145678
v -0.0398214273 0.104140021 0.09148925
v -0.0397717021 0.104137823 0.09151245
v -0.0397280455 0.104117848 0.09152583
v -0.0396958776 0.104085684 0.09153
v -0.03989843 0.103946388 0.09132549
v -0.0398726538 0.103908911 0.09128
v -0.0398697034 0.103911862 0.09132549
v -0.0399092026 0.103993364 0.09137203
v -0.0398874059 0.103953972 0.09137203
v -0.03986024 0.103921317 0.09137203
v -0.03978033 0.104122236 0.09151245
v -0.0396958776 0.104085684 0.09153
v -0.0399006866 0.104042806 0.091416806
v -0.03986829 0.103967115 0.091416806
v -0.03984384 0.103937723 0.091416806
v -0.0398879126 0.104002573 0.091416806
v -0.0398297757 0.104113713 0.09148925
v -0.0398726538 0.104085684 0.09145678
v -0.0398415327 0.103985518 0.09145678
v -0.039820876 0.103960685 0.09145678
v -0.0398689024 0.104049459 0.09145678
v -0.03985811 0.10401547 0.09145678
v -0.0397859477 0.104104541 0.09151245
v -0.0396958776 0.104085684 0.09153
v -0.0398326777 0.104085684 0.09148925
v -0.0398085974 0.104008168 0.09148925
v -0.0397926122 0.103988953 0.09148925
v -0.0398297757 0.104057655 0.09148925
v -0.0397879034 0.104085684 0.09151245
v -0.0396958776 0.104085684 0.09153
v -0.0398214236 0.104031347 0.09148925
v -0.0397859477 0.104066826 0.09151245
v -0.0396958776 0.104085684 0.09153
v -0.03978033 0.104049131 0.09151245
v -0.0396958776 0.104085684 0.09153
v -0.0397717021 0.104033537 0.09151245
v -0.0396958776 0.104085684 0.09153
v -0.0397609472 0.10402061 0.09151245
v -0.0397280455 0.10405352 0.09152583
v -0.0396958776 0.104085684 0.09153
v -0.0374967754 0.101533026 0.0912800059
v -0.0398726538 0.103908911 0.09128
v -0.0374967754 0.101533026 0.08977516
v -0.0398726538 0.103908911 0.08877516
v -0.0340743773 0.09811063 0.08977516
v -0.0316985 0.09573475 0.0887751654
v -0.0316985 0.09573475 0.0912800059
v -0.0340743773 0.09811063 0.0912800059
v -0.0399253145 0.104184978 0.08877516
v -0.0399018675 0.104227342 0.08877516
v -0.0398726538 0.104262456 0.08877516
v -0.0399405733 0.104136914 0.08877516
v -0.0399458781 0.104085684 0.08877516
v -0.0399405733 0.104034454 0.08877516
v -0.0399253145 0.10398639 0.08877516
v -0.0399018675 0.103944026 0.08877516
v -0.0398726538 0.103908911 0.08877516
v -0.02777052 0.107836887 0.0887751654
v -0.0241960939 0.119939022 0.08877516
v -0.0238425415 0.119939022 0.08877516
v -0.0316985 0.09573475 0.0887751654
v -0.0313449465 0.09573475 0.0887751654
v -0.03166338 0.09570554 0.0887751654
v -0.0316210166 0.09568209 0.0887751654
v -0.03157295 0.09566683 0.0887751654
v -0.0315217227 0.09566153 0.0887751654
v -0.0314704925 0.09566683 0.0887751654
v -0.03142243 0.09568209 0.0887751654
v -0.03138006 0.09570554 0.0887751654
v -0.0156683847 0.111411318 0.0887751654
v -0.0156683866 0.111764863 0.0887751654
v -0.02387766 0.119968235 0.08877516
v -0.015639171 0.111729749 0.0887751654
v -0.023920022 0.119991682 0.08877516
v -0.0156157259 0.111687385 0.0887751654
v -0.02396809 0.120006941 0.08877516
v -0.0156004671 0.111639321 0.0887751654
v -0.0240193177 0.120012246 0.08877516
v -0.024070546 0.120006941 0.08877516
v -0.0241186116 0.119991682 0.08877516
v -0.0241609775 0.119968235 0.08877516
v -0.0155951623 0.111588091 0.0887751654
v -0.0156004671 0.11153686 0.0887751654
v -0.0156157268 0.1114888 0.0887751654
v -0.015639171 0.111446433 0.0887751654
v -0.0374843627 0.101545438 0.09137203
v -0.037493825 0.101535976 0.09132549
v -0.03746796 0.101561844 0.091416806
v -0.0374449976 0.101584807 0.09145678
v -0.0374167338 0.101613075 0.09148925
v -0.0374967754 0.101533026 0.0912800059
v -0.03738507 0.101644732 0.09151245
v -0.0373521633 0.101677641 0.09152583
v -0.0373199955 0.101709805 0.09153
v -0.03693109 0.102098711 0.090652585
v -0.0374967754 0.101533026 0.08977516
v -0.0363654047 0.102664396 0.09153
v -0.0363654047 0.102664396 0.08977516
v -0.0340226 0.09816241 0.09145678
v -0.0340619646 0.0981230438 0.09137203
v -0.0340455621 0.09813945 0.091416806
v -0.0339943357 0.09819067 0.0914892554
v -0.03396267 0.09822234 0.09151245
v -0.0340714268 0.09811358 0.09132549
v -0.0340743773 0.09811063 0.0912800059
v -0.0339297652 0.09825524 0.09152583
v -0.0338976 0.0982874 0.09153
v -0.0335086919 0.09867632 0.090652585
v -0.0329430066 0.099242 0.09153
v -0.0340743773 0.09811063 0.08977516
v -0.0329430066 0.099242 0.08977516
v -0.0346542075 0.1009532 0.090652585
v -0.0329430066 0.099242 0.09153
v -0.0363654047 0.102664396 0.09153
v -0.0363654047 0.102664396 0.08977516
v -0.0329430066 0.099242 0.08977516
v -0.03521989 0.100387514 0.08977516
v -0.0363654047 0.102664396 0.08977516
v -0.0374967754 0.101533026 0.08977516
v -0.0340743773 0.09811063 0.08977516
v -0.0329430066 0.099242 0.08977516
v -0.019755464 0.115851946 0.0900275856
v -0.0156683866 0.111764863 0.0887751654
v -0.0238425415 0.119939022 0.08877516
v -0.0238425415 0.119939022 0.09128
v -0.0156683866 0.111764863 0.0912800059
v -0.0320343748 0.112100743 0.09002758
v -0.0241960939 0.119939022 0.09128
v -0.0241960939 0.119939022 0.08877516
v -0.0398726538 0.104262456 0.08877516
v -0.0398726538 0.104262456 0.09128
v -0.0238425415 0.119939022 0.08877516
v -0.02387766 0.119968235 0.0900275856
v -0.0238425415 0.119939022 0.09128
v -0.02387766 0.119968235 0.08877516
v -0.02387766 0.119968235 0.09128
v -0.023920022 0.119991682 0.08877516
v -0.023920022 0.119991682 0.09002758
v -0.023920022 0.119991682 0.09128
v -0.02396809 0.120006941 0.08877516
v -0.02396809 0.120006941 0.09002758
v -0.02396809 0.120006941 0.09128
v -0.0240193177 0.120012246 0.08877516
v -0.0240193177 0.120012246 0.09002758
v -0.0240193177 0.120012246 0.09128
v -0.024070546 0.120006941 0.08877516
v -0.024070546 0.120006941 0.09002758
v -0.024070546 0.120006941 0.09128
v -0.0241186116 0.119991682 0.08877516
v -0.0241186116 0.119991682 0.09002758
v -0.0241186116 0.119991682 0.09128
v -0.0241609775 0.119968235 0.08877516
v -0.0241609775 0.119968235 0.09002758
v -0.0241609775 0.119968235 0.09128
v -0.0241960939 0.119939022 0.08877516
v -0.0241960939 0.119939022 0.09128
v -0.0398726538 0.104262456 0.08877516
v -0.0399018675 0.104227342 0.09002758
v -0.0398726538 0.104262456 0.09128
v -0.0399018675 0.104227342 0.08877516
v -0.0399018675 0.104227342 0.09128
v -0.0399253145 0.104184978 0.08877516
v -0.0399253145 0.104184978 0.09002758
v -0.0399253145 0.104184978 0.09128
v -0.0399405733 0.104136914 0.08877516
v -0.0399405733 0.104136914 0.09002758
v -0.0399405733 0.104136914 0.09128
v -0.0399458781 0.104085684 0.08877516
v -0.0399458781 0.104085684 0.09002758
v -0.0399458781 0.104085684 0.09128
v -0.0399405733 0.104034454 0.08877516
v -0.0399405733 0.104034454 0.09002758
v -0.0399405733 0.104034454 0.09128
v -0.0399253145 0.10398639 0.08877516
v -0.0399253145 0.10398639 0.09002758
v -0.0399253145 0.10398639 0.09128
v -0.0399018675 0.103944026 0.08877516
v -0.0399018675 0.103944026 0.0900275856
v -0.0399018675 0.103944026 0.09128
v -0.0398726538 0.103908911 0.08877516
v -0.0398726538 0.103908911 0.09128
v -0.0235066656 0.103573032 0.0900275856
v -0.0313449465 0.09573475 0.0912800059
v -0.0313449465 0.09573475 0.0887751654
v -0.0156683847 0.111411318 0.0887751654
v -0.0156683847 0.111411318 0.0912800059
v -0.0316985 0.09573475 0.0887751654
v -0.03166338 0.09570554 0.0900275856
v -0.0316985 0.09573475 0.0912800059
v -0.03166338 0.09570554 0.0887751654
v -0.03166338 0.09570554 0.0912800059
v -0.0316210166 0.09568209 0.0887751654
v -0.0316210166 0.09568209 0.0900275856
v -0.0316210166 0.09568209 0.0912800059
v -0.03157295 0.09566683 0.0887751654
v -0.03157295 0.09566683 0.0900275856
v -0.03157295 0.09566683 0.0912800059
v -0.0315217227 0.09566153 0.0887751654
v -0.0315217227 0.09566153 0.0900275856
v -0.0315217227 0.09566153 0.0912800059
v -0.0314704925 0.09566683 0.0887751654
v -0.0314704925 0.09566683 0.0900275856
v -0.0314704925 0.09566683 0.0912800059
v -0.03142243 0.09568209 0.0887751654
v -0.03142243 0.09568209 0.0900275856
v -0.03142243 0.09568209 0.0912800059
v -0.03138006 0.09570554 0.0887751654
v -0.03138006 0.09570554 0.0900275856
v -0.03138006 0.09570554 0.0912800059
v -0.0313449465 0.09573475 0.0887751654
v -0.0313449465 0.09573475 0.0912800059
v -0.0156683847 0.111411318 0.0887751654
v -0.015639171 0.111446433 0.0900275856
v -0.0156683847 0.111411318 0.0912800059
v -0.015639171 0.111446433 0.0887751654
v -0.015639171 0.111446433 0.0912800059
v -0.0156157268 0.1114888 0.0887751654
v -0.0156157268 0.1114888 0.0900275856
v -0.0156157268 0.1114888 0.0912800059
v -0.0156004671 0.11153686 0.0887751654
v -0.0156004671 0.11153686 0.0900275856
v -0.0156004671 0.11153686 0.0912800059
v -0.0155951623 0.111588091 0.0887751654
v -0.0155951623 0.111588091 0.0900275856
v -0.0155951623 0.111588091 0.0912800059
v -0.0156004671 0.111639321 0.0887751654
v -0.0156004671 0.111639321 0.0900275856
v -0.0156004671 0.111639321 0.0912800059
v -0.0156157259 0.111687385 0.0887751654
v -0.0156157259 0.111687385 0.0900275856
v -0.0156157259 0.111687385 0.0912800059
v -0.015639171 0.111729749 0.0887751654
v -0.015639171 0.111729749 0.0900275856
v -0.015639171 0.111729749 0.0912800059
v -0.0156683866 0.111764863 0.0887751654
v -0.0156683866 0.111764863 0.0912800059
v -0.0240193158 0.119762249 0.09153
v -0.0318897627 0.111956134 0.09152583
v -0.0396958776 0.104085684 0.09153
v -0.0240514837 0.119794413 0.09152583
v -0.0397280455 0.104117848 0.09152583
v -0.0240843873 0.119827315 0.09151245
v -0.03192267 0.111989036 0.09151245
v -0.0397609472 0.104150757 0.09151245
v -0.02411605 0.11985898 0.09148925
v -0.03195433 0.1120207 0.09148925
v -0.0397926122 0.104182415 0.09148925
v -0.024144318 0.119887248 0.09145678
v -0.031982597 0.112048969 0.09145678
v -0.039820876 0.104210682 0.09145678
v -0.0241672788 0.11991021 0.091416806
v -0.03200556 0.112071924 0.091416806
v -0.03984384 0.104233645 0.091416806
v -0.0241836812 0.119926609 0.09137203
v -0.0320219621 0.11208833 0.09137203
v -0.03986024 0.104250051 0.09137203
v -0.0241931416 0.119936071 0.09132549
v -0.0320314243 0.112097792 0.09132549
v -0.0398697034 0.104259506 0.09132549
v -0.0241960939 0.119939022 0.09128
v -0.0398726538 0.104262456 0.09128
v -0.0315217227 0.0959115252 0.09153
v -0.0236512739 0.10371764 0.09152583
v -0.0158451609 0.111588091 0.09153
v -0.0314895548 0.09587936 0.09152583
v -0.0158129949 0.111555927 0.09152583
v -0.031456653 0.09584646 0.09151245
v -0.02361837 0.103684738 0.09151245
v -0.0157800913 0.111523017 0.09151245
v -0.0314249881 0.0958147943 0.0914892554
v -0.0235867091 0.103653073 0.0914892554
v -0.0157484282 0.11149136 0.0914892554
v -0.03139672 0.09578653 0.09145678
v -0.0235584415 0.103624806 0.09145678
v -0.0157201625 0.111463092 0.09145678
v -0.03137376 0.0957635641 0.091416806
v -0.02353548 0.103601851 0.091416806
v -0.0156972 0.11144013 0.091416806
v -0.0313573554 0.0957471654 0.09137203
v -0.0235190764 0.103585444 0.09137203
v -0.0156807974 0.111423723 0.09137203
v -0.0313478969 0.0957377 0.09132549
v -0.023509616 0.103575982 0.09132549
v -0.0156713352 0.111414269 0.09132549
v -0.0313449465 0.09573475 0.0912800059
v -0.0156683847 0.111411318 0.0912800059
v -0.0158451609 0.111588091 0.09153
v -0.0199000724 0.115707338 0.09152583
v -0.0240193158 0.119762249 0.09153
v -0.0158129968 0.111620255 0.09152583
v -0.0239871517 0.119794413 0.09152583
v -0.0157800913 0.111653164 0.09151245
v -0.0198671687 0.11574024 0.09151245
v -0.0239542462 0.119827315 0.09151245
v -0.0157484282 0.111684822 0.0914892554
v -0.0198355056 0.115771905 0.09148925
v -0.0239225831 0.11985898 0.09148925
v -0.0157201625 0.111713089 0.09145678
v -0.01980724 0.115800165 0.09145678
v -0.0238943174 0.119887248 0.09145678
v -0.0156972 0.111736052 0.091416806
v -0.0197842773 0.115823127 0.091416806
v -0.0238713548 0.11991021 0.091416806
v -0.0156807974 0.111752458 0.09137203
v -0.019767873 0.115839534 0.09137203
v -0.0238549523 0.119926609 0.09137203
v -0.015671337 0.111761913 0.09132549
v -0.0197584145 0.115848996 0.09132549
v -0.0238454919 0.119936071 0.09132549
v -0.0156683866 0.111764863 0.0912800059
v -0.0238425415 0.119939022 0.09128
v -0.0338976 0.0982874 0.09153
v -0.03274183 0.097067304 0.09152583
v -0.0315217227 0.0959115252 0.09153
v -0.0339297652 0.09825524 0.09152583
v -0.0315538868 0.09587936 0.09152583
v -0.03396267 0.09822234 0.09151245
v -0.03277473 0.0970343947 0.09151245
v -0.0315867923 0.09584646 0.09151245
v -0.0339943357 0.09819067 0.0914892554
v -0.0328063965 0.09700274 0.0914892554
v -0.0316184536 0.0958147943 0.0914892554
v -0.0340226 0.09816241 0.09145678
v -0.03283466 0.09697447 0.09145678
v -0.03164672 0.09578653 0.09145678
v -0.0340455621 0.09813945 0.091416806
v -0.032857623 0.09695151 0.091416806
v -0.0316696838 0.0957635641 0.091416806
v -0.0340619646 0.0981230438 0.09137203
v -0.0328740254 0.0969351 0.09137203
v -0.0316860862 0.0957471654 0.09137203
v -0.0340714268 0.09811358 0.09132549
v -0.0328834876 0.0969256461 0.09132549
v -0.0316955447 0.0957377 0.09132549
v -0.0340743773 0.09811063 0.0912800059
v -0.0316985 0.09573475 0.0912800059
v -0.0396958776 0.104085684 0.09153
v -0.0385401025 0.102865577 0.09152583
v -0.0373199955 0.101709805 0.09153
v -0.0397280455 0.10405352 0.09152583
v -0.0373521633 0.101677641 0.09152583
v -0.0397609472 0.10402061 0.09151245
v -0.038573008 0.102832675 0.09151245
v -0.03738507 0.101644732 0.09151245
v -0.0397926122 0.103988953 0.09148925
v -0.03860467 0.10280101 0.09148925
v -0.0374167338 0.101613075 0.09148925
v -0.039820876 0.103960685 0.09145678
v -0.0386329368 0.102772743 0.09145678
v -0.0374449976 0.101584807 0.09145678
v -0.03984384 0.103937723 0.091416806
v -0.0386559 0.10274978 0.091416806
v -0.03746796 0.101561844 0.091416806
v -0.03986024 0.103921317 0.09137203
v -0.0386723019 0.102733381 0.09137203
v -0.0374843627 0.101545438 0.09137203
v -0.0398697034 0.103911862 0.09132549
v -0.03868176 0.102723919 0.09132549
v -0.037493825 0.101535976 0.09132549
v -0.0398726538 0.103908911 0.09128
v -0.0374967754 0.101533026 0.0912800059
f 1 2 3
f 2 4 3
f 2 5 4
f 5 6 4
f 2 7 5
f 7 6 5
f 7 8 6
f 8 7 9
f 10 11 12
f 11 13 12
f 11 14 13
f 12 13 15
f 14 16 13
f 14 17 16
f 13 18 15
f 13 16 18
f 15 18 19
f 17 20 16
f 17 21 20
f 16 22 18
f 16 20 22
f 18 23 19
f 18 22 23
f 19 23 24
f 21 25 20
f 21 26 25
f 20 27 22
f 20 25 27
f 22 28 23
f 22 27 28
f 23 29 24
f 23 28 29
f 24 29 30
f 26 31 25
f 26 32 31
f 25 33 27
f 25 31 33
f 27 34 28
f 27 33 34
f 28 35 29
f 28 34 35
f 29 36 30
f 29 35 36
f 30 36 37
f 32 38 31
f 32 39 38
f 31 40 33
f 31 38 40
f 33 41 34
f 33 40 41
f 34 42 35
f 34 41 42
f 35 43 36
f 35 42 43
f 36 44 37
f 36 43 44
f 37 44 45
f 44 46 45
f 39 47 38
f 39 48 47
f 48 49 47
f 38 50 40
f 38 47 50
f 49 51 47
f 47 51 50
f 49 52 51
f 43 53 44
f 44 53 54
f 40 50 55
f 40 55 41
f 52 56 51
f 52 57 56
f 50 51 58
f 50 58 55
f 51 56 58
f 43 59 53
f 42 59 43
f 41 60 42
f 41 55 60
f 42 60 59
f 57 61 56
f 57 62 61
f 55 58 63
f 55 63 60
f 58 56 64
f 56 61 64
f 58 64 63
f 59 65 53
f 53 65 66
f 60 67 59
f 60 63 67
f 59 67 65
f 62 68 61
f 62 69 68
f 63 64 70
f 63 70 67
f 67 71 65
f 67 70 71
f 65 71 72
f 64 61 73
f 64 73 70
f 61 68 73
f 70 74 71
f 70 73 74
f 71 74 75
f 73 76 74
f 73 68 76
f 74 76 77
f 69 78 68
f 68 78 76
f 76 78 79
f 69 80 78
f 80 81 78
f 81 82 78
f 83 84 85
f 86 83 85
f 86 85 87
f 83 86 88
f 89 86 87
f 89 87 90
f 86 91 88
f 86 89 91
f 88 91 92
f 93 89 90
f 93 90 94
f 89 95 91
f 89 93 95
f 91 96 92
f 91 95 96
f 92 96 97
f 98 93 94
f 98 94 99
f 93 100 95
f 93 98 100
f 95 101 96
f 95 100 101
f 96 102 97
f 96 101 102
f 97 102 103
f 104 98 99
f 104 99 105
f 98 106 100
f 98 104 106
f 100 107 101
f 100 106 107
f 101 108 102
f 101 107 108
f 102 109 103
f 102 108 109
f 103 109 110
f 111 104 105
f 111 105 112
f 104 113 106
f 104 111 113
f 106 114 107
f 106 113 114
f 107 115 108
f 107 114 115
f 108 116 109
f 108 115 116
f 109 117 110
f 109 116 117
f 110 117 118
f 117 119 118
f 120 111 112
f 120 112 121
f 122 120 121
f 111 123 113
f 111 120 123
f 120 122 124
f 120 124 123
f 122 125 124
f 116 126 117
f 117 126 127
f 113 123 128
f 113 128 114
f 125 129 124
f 125 130 129
f 123 124 131
f 123 131 128
f 124 129 131
f 116 132 126
f 115 132 116
f 114 133 115
f 114 128 133
f 115 133 132
f 130 134 129
f 130 135 134
f 128 131 136
f 128 136 133
f 131 129 137
f 129 134 137
f 131 137 136
f 132 138 126
f 126 138 139
f 133 140 132
f 133 136 140
f 132 140 138
f 135 141 134
f 135 142 141
f 136 137 143
f 136 143 140
f 140 144 138
f 140 143 144
f 138 144 145
f 137 134 146
f 137 146 143
f 134 141 146
f 143 147 144
f 143 146 147
f 144 147 148
f 146 149 147
f 146 141 149
f 147 149 150
f 142 151 141
f 141 151 149
f 149 151 152
f 142 153 151
f 153 154 151
f 154 155 151
f 156 157 158
f 159 156 158
f 159 158 160
f 156 159 161
f 162 159 160
f 162 160 163
f 159 164 161
f 159 162 164
f 161 164 165
f 166 162 163
f 166 163 167
f 162 168 164
f 162 166 168
f 164 169 165
f 164 168 169
f 165 169 170
f 171 166 167
f 171 167 172
f 166 173 168
f 166 171 173
f 168 174 169
f 168 173 174
f 169 175 170
f 169 174 175
f 170 175 176
f 177 171 172
f 177 172 178
f 171 179 173
f 171 177 179
f 173 180 174
f 173 179 180
f 174 181 175
f 174 180 181
f 175 182 176
f 175 181 182
f 176 182 183
f 184 177 178
f 184 178 185
f 177 186 179
f 177 184 186
f 179 187 180
f 179 186 187
f 180 188 181
f 180 187 188
f 181 189 182
f 181 188 189
f 182 190 183
f 182 189 190
f 183 190 191
f 190 192 191
f 193 184 185
f 193 185 194
f 195 193 194
f 184 196 186
f 184 193 196
f 193 195 197
f 193 197 196
f 195 198 197
f 189 199 190
f 190 199 200
f 186 196 201
f 186 201 187
f 198 202 197
f 198 203 202
f 196 197 204
f 196 204 201
f 197 202 204
f 189 205 199
f 188 205 189
f 187 206 188
f 187 201 206
f 188 206 205
f 203 207 202
f 203 208 207
f 201 204 209
f 201 209 206
f 204 202 210
f 202 207 210
f 204 210 209
f 205 211 199
f 199 211 212
f 206 213 205
f 206 209 213
f 205 213 211
f 208 214 207
f 208 215 214
f 209 210 216
f 209 216 213
f 213 217 211
f 213 216 217
f 211 217 218
f 210 207 219
f 210 219 216
f 207 214 219
f 216 220 217
f 216 219 220
f 217 220 221
f 219 222 220
f 219 214 222
f 220 222 223
f 215 224 214
f 214 224 222
f 222 224 225
f 215 226 224
f 226 227 224
f 227 228 224
f 229 230 231
f 230 232 231
f 230 233 232
f 231 232 234
f 233 235 232
f 233 236 235
f 232 237 234
f 232 235 237
f 234 237 238
f 236 239 235
f 236 240 239
f 235 241 237
f 235 239 241
f 237 242 238
f 237 241 242
f 238 242 243
f 240 244 239
f 240 245 244
f 239 246 241
f 239 244 246
f 241 247 242
f 241 246 247
f 242 248 243
f 242 247 248
f 243 248 249
f 245 250 244
f 245 251 250
f 244 252 246
f 244 250 252
f 246 253 247
f 246 252 253
f 247 254 248
f 247 253 254
f 248 255 249
f 248 254 255
f 249 255 256
f 251 257 250
f 251 258 257
f 250 259 252
f 250 257 259
f 252 260 253
f 252 259 260
f 253 261 254
f 253 260 261
f 254 262 255
f 254 261 262
f 255 263 256
f 255 262 263
f 256 263 264
f 263 265 264
f 258 266 257
f 258 267 266
f 267 268 266
f 257 269 259
f 257 266 269
f 268 270 266
f 266 270 269
f 268 271 270
f 262 272 263
f 263 272 273
f 259 269 274
f 259 274 260
f 271 275 270
f 271 276 275
f 269 270 277
f 269 277 274
f 270 275 277
f 262 278 272
f 261 278 262
f 260 279 261
f 260 274 279
f 261 279 278
f 276 280 275
f 276 281 280
f 274 277 282
f 274 282 279
f 277 275 283
f 275 280 283
f 277 283 282
f 278 284 272
f 272 284 285
f 279 286 278
f 279 282 286
f 278 286 284
f 281 287 280
f 281 288 287
f 282 283 289
f 282 289 286
f 286 290 284
f 286 289 290
f 284 290 291
f 283 280 292
f 283 292 289
f 280 287 292
f 289 293 290
f 289 292 293
f 290 293 294
f 292 295 293
f 292 287 295
f 293 295 296
f 288 297 287
f 287 297 295
f 295 297 298
f 288 299 297
f 299 300 297
f 300 301 297
f 302 303 304
f 303 305 304
f 305 306 304
f 305 307 306
f 307 308 306
f 308 309 306
f 310 311 312
f 313 310 312
f 314 313 312
f 315 314 312
f 316 315 312
f 317 316 312
f 318 317 312
f 318 312 319
f 320 319 312
f 319 320 321
f 322 318 319
f 319 323 322
f 323 324 322
f 323 325 324
f 325 323 326
f 323 327 326
f 323 328 327
f 328 323 329
f 323 330 329
f 323 319 331
f 319 332 331
f 319 321 332
f 320 333 321
f 334 331 332
f 320 335 333
f 331 334 336
f 335 320 337
f 331 336 338
f 320 339 337
f 320 340 339
f 340 320 341
f 320 342 341
f 343 331 338
f 331 343 344
f 331 344 345
f 346 331 345
f 347 348 349
f 348 350 349
f 348 351 350
f 348 352 351
f 352 353 351
f 352 354 353
f 354 352 355
f 352 356 355
f 352 357 356
f 358 355 356
f 357 359 356
f 359 358 356
f 360 361 362
f 361 360 363
f 361 363 364
f 365 361 364
f 366 365 364
f 367 366 364
f 367 368 366
f 368 369 366
f 368 370 369
f 371 366 369
f 370 372 369
f 372 371 369
f 373 374 375
f 373 375 376
f 374 373 377
f 377 373 376
f 378 379 380
f 378 380 381
f 379 378 382
f 382 378 381
f 383 384 385
f 383 385 386
f 384 383 387
f 387 383 386
f 388 389 390
f 388 390 391
f 389 388 392
f 392 388 391
f 393 394 395
f 394 393 396
f 394 397 395
f 394 396 398
f 394 399 397
f 399 394 398
f 399 400 397
f 399 398 401
f 399 402 400
f 402 399 401
f 402 403 400
f 402 401 404
f 402 405 403
f 405 402 404
f 405 406 403
f 405 404 407
f 405 408 406
f 408 405 407
f 408 409 406
f 408 407 410
f 408 411 409
f 411 408 410
f 411 412 409
f 411 410 413
f 411 414 412
f 414 411 413
f 414 415 412
f 414 413 416
f 415 414 417
f 414 416 417
f 418 419 420
f 419 418 421
f 419 422 420
f 419 421 423
f 419 424 422
f 424 419 423
f 424 425 422
f 424 423 426
f 424 427 425
f 427 424 426
f 427 428 425
f 427 426 429
f 427 430 428
f 430 427 429
f 430 431 428
f 430 429 432
f 430 433 431
f 433 430 432
f 433 434 431
f 433 432 435
f 433 436 434
f 436 433 435
f 436 437 434
f 436 435 438
f 436 439 437
f 439 436 438
f 439 440 437
f 439 438 441
f 440 439 442
f 439 441 442
f 443 444 445
f 443 445 446
f 444 443 447
f 447 443 446
f 448 449 450
f 449 448 451
f 449 452 450
f 449 451 453
f 449 454 452
f 454 449 453
f 454 455 452
f 454 453 456
f 454 457 455
f 457 454 456
f 457 458 455
f 457 456 459
f 457 460 458
f 460 457 459
f 460 461 458
f 460 459 462
f 460 463 461
f 463 460 462
f 463 464 461
f 463 462 465
f 463 466 464
f 466 463 465
f 466 467 464
f 466 465 468
f 466 469 467
f 469 466 468
f 469 470 467
f 469 468 471
f 470 469 472
f 469 471 472
f 473 474 475
f 474 473 476
f 474 477 475
f 474 476 478
f 474 479 477
f 479 474 478
f 479 480 477
f 479 478 481
f 479 482 480
f 482 479 481
f 482 483 480
f 482 481 484
f 482 485 483
f 485 482 484
f 485 486 483
f 485 484 487
f 485 488 486
f 488 485 487
f 488 489 486
f 488 487 490
f 488 491 489
f 491 488 490
f 491 492 489
f 491 490 493
f 491 494 492
f 494 491 493
f 494 495 492
f 494 493 496
f 495 494 497
f 494 496 497
f 498 499 500
f 499 498 501
f 499 502 500
f 499 501 503
f 499 504 502
f 504 499 503
f 504 505 502
f 504 503 506
f 504 507 505
f 507 504 506
f 507 508 505
f 507 506 509
f 507 510 508
f 510 507 509
f 510 511 508
f 510 509 512
f 510 513 511
f 513 510 512
f 513 514 511
f 513 512 515
f 513 516 514
f 516 513 515
f 516 517 514
f 516 515 518
f 516 519 517
f 519 516 518
f 519 520 517
f 519 518 521
f 519 522 520
f 522 519 521
f 523 524 525
f 524 523 526
f 524 527 525
f 524 526 528
f 524 529 527
f 529 524 528
f 529 530 527
f 529 528 531
f 529 532 530
f 532 529 531
f 532 533 530
f 532 531 534
f 532 535 533
f 535 532 534
f 535 536 533
f 535 534 537
f 535 538 536
f 538 535 537
f 538 539 536
f 538 537 540
f 538 541 539
f 541 538 540
f 541 542 539
f 541 540 543
f 541 544 542
f 544 541 543
f 544 545 542
f 544 543 546
f 544 547 545
f 547 544 546
f 548 549 550
f 549 548 551
f 549 552 550
f 549 551 553
f 549 554 552
f 554 549 553
f 554 555 552
f 554 553 556
f 554 557 555
f 557 554 556
f 557 558 555
f 557 556 559
f 557 560 558
f 560 557 559
f 560 561 558
f 560 559 562
f 560 563 561
f 563 560 562
f 563 564 561
f 563 562 565
f 563 566 564
f 566 563 565
f 566 567 564
f 566 565 568
f 566 569 567
f 569 566 568
f 569 570 567
f 569 568 571
f 569 572 570
f 572 569 571
f 573 574 575
f 574 573 576
f 574 577 575
f 574 576 578
f 574 579 577
f 579 574 578
f 579 580 577
f 579 578 581
f 579 582 580
f 582 579 581
f 582 583 580
f 582 581 584
f 582 585 583
f 585 582 584
f 585 586 583
f 585 584 587
f 585 588 586
f 588 585 587
f 588 589 586
f 588 587 590
f 588 591 589
f 591 588 590
f 591 592 589
f 591 590 593
f 591 594 592
f 594 591 593
f 594 595 592
f 594 593 596
f 594 597 595
f 597 594 596
f 598 599 600
f 599 598 601
f 599 602 600
f 599 601 603
f 599 604 602
f 604 599 603
f 604 605 602
f 604 603 606
f 604 607 605
f 607 604 606
f 607 608 605
f 607 606 609
f 607 610 608
f 610 607 609
f 610 611 608
f 610 609 612
f 610 613 611
f 613 610 612
f 613 614 611
f 613 612 615
f 613 616 614
f 616 613 615
f 616 617 614
f 616 615 618
f 616 619 617
f 619 616 618
f 619 620 617
f 619 618 621
f 619 622 620
f 622 619 621
