# ROS coordinates: X forward, Y left, Z up; units are metres.
o mesh
v 0.143578947 0.019070752 -0.00274445117
v 0.1436885 0.0252642557 -0.00475715753
v 0.143569112 0.018514473 -0.00398819428
v 0.14367567 0.0245386623 -0.006454927
v 0.143557623 0.0178653933 -0.00521214027
v 0.14366053 0.02368267 -0.008128074
v 0.14354451 0.0171238575 -0.0064063156
v 0.143643081 0.022696346 -0.009762189
v 0.143529788 0.016291596 -0.007560595
v 0.143623367 0.02158183 -0.01134256
v 0.143513516 0.0153718032 -0.00866494048
v 0.143601462 0.0203434471 -0.012854551
v 0.143495783 0.0143691208 -0.009709668
v 0.143577486 0.0189877022 -0.0142840045
v 0.143479139 0.0134284347 -0.0123876138
v 0.143551573 0.0175232161 -0.0156176453
v 0.1434767 0.0132895941 -0.0106857093
v 0.143523932 0.0159605686 -0.01684346
v 0.14345637 0.0121405628 -0.011584851
v 0.143434957 0.0109304925 -0.012399965
v 0.14349477 0.01431205 -0.01795106
v 0.14341265 0.009668778 -0.0131252008
v 0.143464342 0.01259133 -0.0189319663
v 0.1433896 0.008365491 -0.0137561178
v 0.143432885 0.0108130993 -0.0197798349
v 0.143366 0.00703112828 -0.0142897693
v 0.143400684 0.008992654 -0.02049056
v 0.143342018 0.005676334 -0.0147247305
v 0.143368 0.007145465 -0.02106233
v 0.143317878 0.004311635 -0.0150610628
v 0.143335134 0.00528678158 -0.0214955583
v 0.143293753 0.00294719823 -0.0153002506
v 0.1433023 0.00343125663 -0.02179275
v 0.143269792 0.00159261457 -0.0154450508
v 0.143269792 0.00159261457 -0.021958299
v 0.153577387 0.0188938975 -0.00274445117
v 0.153567553 0.0183376186 -0.00398819428
v 0.153686941 0.0250874013 -0.00475715753
v 0.1536741 0.0243618079 -0.006454927
v 0.153556064 0.0176885389 -0.00521214027
v 0.153658956 0.0235058144 -0.008128074
v 0.153542951 0.0169470012 -0.0064063156
v 0.153641522 0.0225194916 -0.009762189
v 0.153528228 0.0161147416 -0.007560595
v 0.153621808 0.0214049742 -0.01134256
v 0.153511956 0.0151949478 -0.00866494048
v 0.153599888 0.02016659 -0.012854551
v 0.153494224 0.0141922655 -0.009709668
v 0.153575912 0.0188108459 -0.0142840045
v 0.153477579 0.0132515794 -0.0123876138
v 0.153475121 0.0131127387 -0.0106857093
v 0.153550014 0.01734636 -0.0156176453
v 0.1534548 0.0119637074 -0.011584851
v 0.153522372 0.0157837123 -0.01684346
v 0.1534334 0.0107536372 -0.012399965
v 0.153493211 0.0141351949 -0.01795106
v 0.153411075 0.009491922 -0.0131252008
v 0.153462768 0.012414475 -0.0189319663
v 0.153388023 0.008188636 -0.0137561178
v 0.153431326 0.010636244 -0.0197798349
v 0.15336442 0.006854273 -0.0142897693
v 0.153399125 0.008815799 -0.02049056
v 0.153340459 0.00549947843 -0.0147247305
v 0.153366446 0.00696860952 -0.02106233
v 0.153316319 0.00413478 -0.0150610628
v 0.153333575 0.005109926 -0.0214955583
v 0.153292179 0.00277034286 -0.0153002506
v 0.153300747 0.00325440126 -0.02179275
v 0.153268233 0.00141575921 -0.0154450508
v 0.153268233 0.00141575921 -0.021958299
v 0.143578947 0.019070752 -0.00274445117
v 0.148568332 0.0184260458 -0.00398819428
v 0.153577387 0.0188938975 -0.00274445117
v 0.143569112 0.018514473 -0.00398819428
v 0.153567553 0.0183376186 -0.00398819428
v 0.143557623 0.0178653933 -0.00521214027
v 0.148556843 0.0177769661 -0.00521214027
v 0.153556064 0.0176885389 -0.00521214027
v 0.14354451 0.0171238575 -0.0064063156
v 0.14854373 0.01703543 -0.0064063156
v 0.153542951 0.0169470012 -0.0064063156
v 0.143529788 0.016291596 -0.007560595
v 0.148529008 0.0162031688 -0.007560595
v 0.153528228 0.0161147416 -0.007560595
v 0.143513516 0.0153718032 -0.00866494048
v 0.148512736 0.015283375 -0.00866494048
v 0.153511956 0.0151949478 -0.00866494048
v 0.143495783 0.0143691208 -0.009709668
v 0.148495 0.0142806927 -0.009709668
v 0.153494224 0.0141922655 -0.009709668
v 0.1434767 0.0132895941 -0.0106857093
v 0.1484759 0.0132011659 -0.0106857093
v 0.153475121 0.0131127387 -0.0106857093
v 0.14345637 0.0121405628 -0.011584851
v 0.14845559 0.0120521346 -0.011584851
v 0.1534548 0.0119637074 -0.011584851
v 0.143434957 0.0109304925 -0.012399965
v 0.148434177 0.0108420644 -0.012399965
v 0.1534334 0.0107536372 -0.012399965
v 0.14341265 0.009668778 -0.0131252008
v 0.148411855 0.00958035 -0.0131252008
v 0.153411075 0.009491922 -0.0131252008
v 0.1433896 0.008365491 -0.0137561178
v 0.1483888 0.008277063 -0.0137561178
v 0.153388023 0.008188636 -0.0137561178
v 0.143366 0.00703112828 -0.0142897693
v 0.1483652 0.00694270059 -0.0142897693
v 0.15336442 0.006854273 -0.0142897693
v 0.143342018 0.005676334 -0.0147247305
v 0.148341238 0.005587906 -0.0147247305
v 0.153340459 0.00549947843 -0.0147247305
v 0.143317878 0.004311635 -0.0150610628
v 0.1483171 0.00422320748 -0.0150610628
v 0.153316319 0.00413478 -0.0150610628
v 0.143293753 0.00294719823 -0.0153002506
v 0.148292974 0.00285877055 -0.0153002506
v 0.153292179 0.00277034286 -0.0153002506
v 0.143269792 0.00159261457 -0.0154450508
v 0.153268233 0.00141575921 -0.0154450508
v 0.148632944 0.0220790766 -0.00375080481
v 0.153686941 0.0250874013 -0.00475715753
v 0.1436885 0.0252642557 -0.00475715753
v 0.143578947 0.019070752 -0.00274445117
v 0.153577387 0.0188938975 -0.00274445117
v 0.143269792 0.00159261457 -0.021958299
v 0.148301527 0.003342829 -0.02179275
v 0.153268233 0.00141575921 -0.021958299
v 0.1433023 0.00343125663 -0.02179275
v 0.153300747 0.00325440126 -0.02179275
v 0.143335134 0.00528678158 -0.0214955583
v 0.148334354 0.005198354 -0.0214955583
v 0.153333575 0.005109926 -0.0214955583
v 0.143368 0.007145465 -0.02106233
v 0.148367226 0.007057037 -0.02106233
v 0.153366446 0.00696860952 -0.02106233
v 0.143400684 0.008992654 -0.02049056
v 0.1483999 0.008904226 -0.02049056
v 0.153399125 0.008815799 -0.02049056
v 0.143432885 0.0108130993 -0.0197798349
v 0.1484321 0.0107246712 -0.0197798349
v 0.153431326 0.010636244 -0.0197798349
v 0.143464342 0.01259133 -0.0189319663
v 0.148463562 0.0125029022 -0.0189319663
v 0.153462768 0.012414475 -0.0189319663
v 0.14349477 0.01431205 -0.01795106
v 0.14849399 0.0142236222 -0.01795106
v 0.153493211 0.0141351949 -0.01795106
v 0.143523932 0.0159605686 -0.01684346
v 0.148523152 0.0158721413 -0.01684346
v 0.153522372 0.0157837123 -0.01684346
v 0.143551573 0.0175232161 -0.0156176453
v 0.1485508 0.0174347889 -0.0156176453
v 0.153550014 0.01734636 -0.0156176453
v 0.143577486 0.0189877022 -0.0142840045
v 0.148576692 0.018899275 -0.0142840045
v 0.153575912 0.0188108459 -0.0142840045
v 0.143601462 0.0203434471 -0.012854551
v 0.148600683 0.02025502 -0.012854551
v 0.153599888 0.02016659 -0.012854551
v 0.143623367 0.02158183 -0.01134256
v 0.148622587 0.0214934032 -0.01134256
v 0.153621808 0.0214049742 -0.01134256
v 0.143643081 0.022696346 -0.009762189
v 0.1486423 0.0226079188 -0.009762189
v 0.153641522 0.0225194916 -0.009762189
v 0.14366053 0.02368267 -0.008128074
v 0.148659736 0.0235942435 -0.008128074
v 0.153658956 0.0235058144 -0.008128074
v 0.14367567 0.0245386623 -0.006454927
v 0.14867489 0.0244502351 -0.006454927
v 0.1536741 0.0243618079 -0.006454927
v 0.1436885 0.0252642557 -0.00475715753
v 0.153686941 0.0250874013 -0.00475715753
v 0.153268233 0.00141575921 -0.021958299
v 0.148269013 0.00150418677 -0.0187016763
v 0.143269792 0.00159261457 -0.021958299
v 0.153268233 0.00141575921 -0.0154450508
v 0.143269792 0.00159261457 -0.0154450508
f 1 2 3
f 2 4 3
f 4 5 3
f 4 6 5
f 6 7 5
f 6 8 7
f 8 9 7
f 8 10 9
f 10 11 9
f 10 12 11
f 12 13 11
f 12 14 13
f 14 15 13
f 14 16 15
f 13 15 17
f 16 18 15
f 15 19 17
f 15 20 19
f 18 21 15
f 21 20 15
f 21 22 20
f 21 23 22
f 23 24 22
f 23 25 24
f 25 26 24
f 25 27 26
f 27 28 26
f 27 29 28
f 29 30 28
f 29 31 30
f 31 32 30
f 31 33 32
f 33 34 32
f 33 35 34
f 36 37 38
f 37 39 38
f 37 40 39
f 40 41 39
f 40 42 41
f 42 43 41
f 42 44 43
f 44 45 43
f 44 46 45
f 46 47 45
f 46 48 47
f 48 49 47
f 48 50 49
f 50 48 51
f 50 52 49
f 53 50 51
f 50 54 52
f 50 53 55
f 54 50 56
f 50 55 56
f 55 57 56
f 57 58 56
f 57 59 58
f 59 60 58
f 59 61 60
f 61 62 60
f 61 63 62
f 63 64 62
f 63 65 64
f 65 66 64
f 65 67 66
f 67 68 66
f 67 69 68
f 69 70 68
f 71 72 73
f 72 71 74
f 72 75 73
f 72 74 76
f 72 77 75
f 77 72 76
f 77 78 75
f 77 76 79
f 77 80 78
f 80 77 79
f 80 81 78
f 80 79 82
f 80 83 81
f 83 80 82
f 83 84 81
f 83 82 85
f 83 86 84
f 86 83 85
f 86 87 84
f 86 85 88
f 86 89 87
f 89 86 88
f 89 90 87
f 89 88 91
f 89 92 90
f 92 89 91
f 92 93 90
f 92 91 94
f 92 95 93
f 95 92 94
f 95 96 93
f 95 94 97
f 95 98 96
f 98 95 97
f 98 99 96
f 98 97 100
f 98 101 99
f 101 98 100
f 101 102 99
f 101 100 103
f 101 104 102
f 104 101 103
f 104 105 102
f 104 103 106
f 104 107 105
f 107 104 106
f 107 108 105
f 107 106 109
f 107 110 108
f 110 107 109
f 110 111 108
f 110 109 112
f 110 113 111
f 113 110 112
f 113 114 111
f 113 112 115
f 113 116 114
f 116 113 115
f 116 117 114
f 116 115 118
f 116 119 117
f 119 116 118
f 120 121 122
f 120 122 123
f 121 120 124
f 124 120 123
f 125 126 127
f 126 125 128
f 126 129 127
f 126 128 130
f 126 131 129
f 131 126 130
f 131 132 129
f 131 130 133
f 131 134 132
f 134 131 133
f 134 135 132
f 134 133 136
f 134 137 135
f 137 134 136
f 137 138 135
f 137 136 139
f 137 140 138
f 140 137 139
f 140 141 138
f 140 139 142
f 140 143 141
f 143 140 142
f 143 144 141
f 143 142 145
f 143 146 144
f 146 143 145
f 146 147 144
f 146 145 148
f 146 149 147
f 149 146 148
f 149 150 147
f 149 148 151
f 149 152 150
f 152 149 151
f 152 153 150
f 152 151 154
f 152 155 153
f 155 152 154
f 155 156 153
f 155 154 157
f 155 158 156
f 158 155 157
f 158 159 156
f 158 157 160
f 158 161 159
f 161 158 160
f 161 162 159
f 161 160 163
f 161 164 162
f 164 161 163
f 164 165 162
f 164 163 166
f 164 167 165
f 167 164 166
f 167 168 165
f 167 166 169
f 167 170 168
f 170 167 169
f 170 171 168
f 170 169 172
f 170 173 171
f 173 170 172
f 174 175 176
f 177 175 174
f 175 178 176
f 175 177 178
