# ROS coordinates: X forward, Y left, Z up; units are metres.
o mesh
v -0.09702587 0.0784520358 0.0418397672
v -0.0974633843 0.0786940753 0.0418397672
v -0.0973484144 0.07890189 0.0418449529
v -0.09711267 0.07881158 0.04184202
v -0.0969109 0.07865985 0.0418449529
v -0.09722823 0.07911914 0.0418031849
v -0.0967907161 0.0788771 0.0418031849
v -0.09697509 0.0790602639 0.0417818241
v -0.09710963 0.079333514 0.0417096578
v -0.09667212 0.0790914744 0.0417096578
v -0.09684246 0.0793 0.0416537449
v -0.0970004052 0.07953095 0.0415653922
v -0.09656289 0.07928891 0.0415653922
v -0.0967263058 0.07950996 0.04146284
v -0.09690781 0.07969832 0.04137795
v -0.0964703038 0.07945628 0.04137795
v -0.09663609 0.07967304 0.0412246473
v -0.0968370438 0.07982623 0.041160237
v -0.09639954 0.07958419 0.041160237
v -0.09657678 0.0797802359 0.04096123
v -0.09679034 0.07991066 0.0409276821
v -0.09654819 0.07983191 0.0406951047
v -0.09635283 0.07966862 0.0409276821
v -0.09676695 0.07995294 0.0406951047
v -0.0963294357 0.0797109 0.0406951047
v -0.0967644453 0.07995747 0.04045761
v -0.09632693 0.07971543 0.04045761
v -0.0965471044 0.07983389 0.0404225178
v -0.09678466 0.0799209252 0.04020933
v -0.0963471457 0.0796788856 0.04020933
v -0.0965659 0.0797999054 0.04020933
v -0.09660316 0.07973257 0.0399985276
v -0.0968299359 0.07983909 0.0399643332
v -0.09639242 0.07959705 0.0399643332
v -0.0966587141 0.07963215 0.0398002639
v -0.09689977 0.07971285 0.0397387072
v -0.09646226 0.07947081 0.0397387072
v -0.09673066 0.07950209 0.0396243781
v -0.09699051 0.0795488358 0.0395474248
v -0.096553 0.0793067962 0.0395474248
v -0.09681555 0.0793486461 0.0394788347
v -0.0970959 0.07935833 0.0394012369
v -0.09665839 0.07911629 0.0394012369
v -0.0969089046 0.0791799 0.03936856
v -0.09720847 0.07915484 0.0393047556
v -0.09677096 0.0789128 0.0393047556
v -0.0970059559 0.079004474 0.0392950065
v -0.09732106 0.07895133 0.03925644
v -0.09688355 0.07870929 0.03925644
v -0.0974360257 0.0787435248 0.0392512567
v -0.09723426 0.0785917938 0.0392541848
v -0.09699851 0.0785014853 0.0392512567
v -0.09755622 0.0785262659 0.0392930172
v -0.0971187055 0.07828423 0.0392930172
v -0.09737184 0.07834309 0.0393143855
v -0.09767482 0.07831189 0.0393865481
v -0.0972373039 0.07806985 0.0393865481
v -0.09750447 0.07810336 0.0394424573
v -0.0977840349 0.07811446 0.0395308174
v -0.09734652 0.07787242 0.0395308174
v -0.09762062 0.0778934062 0.03963337
v -0.09787662 0.07794709 0.03971826
v -0.09743912 0.07770505 0.03971826
v -0.09771083 0.07773033 0.0398715623
v -0.0979474 0.07781917 0.0399359725
v -0.09750988 0.07757713 0.0399359725
v -0.09777015 0.077623114 0.04013498
v -0.097994104 0.07773474 0.04016852
v -0.0977987349 0.0775714442 0.0404011048
v -0.09755659 0.0774927 0.04016852
v -0.09801749 0.077692464 0.0404011048
v -0.09757998 0.0774504244 0.0404011048
v -0.09802 0.07768793 0.0406385921
v -0.09758249 0.07744589 0.0406385921
v -0.09779983 0.07756947 0.04067369
v -0.09799978 0.07772447 0.04088688
v -0.09756227 0.07748243 0.04088688
v -0.0977810249 0.07760345 0.04088688
v -0.0977437645 0.0776708052 0.0410976857
v -0.0979545042 0.07780632 0.0411318764
v -0.09751699 0.07756428 0.0411318764
v -0.09768822 0.07777122 0.0412959456
v -0.09788467 0.07793255 0.0413575023
v -0.09744716 0.07769051 0.0413575023
v -0.09761627 0.07790127 0.041471824
v -0.09779394 0.07809656 0.0415487848
v -0.0973564237 0.07785452 0.0415487848
v -0.09753138 0.07805471 0.04161737
v -0.09768854 0.07828707 0.0416949652
v -0.09725103 0.07804503 0.0416949652
v -0.09743802 0.07822347 0.0417276435
v -0.09757597 0.07849056 0.041791454
v -0.09713846 0.07824852 0.041791454
v -0.09734098 0.07839888 0.041801203
v -0.0974633843 0.0786940753 0.0418397672
v -0.09702587 0.0784520358 0.0418397672
v -0.09852677 0.075739 0.0469746552
v -0.09983931 0.07646512 0.0469746552
v -0.100333765 0.07557134 0.04681159
v -0.09974886 0.07507929 0.0467801951
v -0.0990212262 0.0748452246 0.04681159
v -0.100835271 0.0746648163 0.046547275
v -0.09952274 0.0739387 0.046547275
v -0.100322656 0.0740421 0.0464522727
v -0.101336971 0.07375795 0.04617578
v -0.100024432 0.07303183 0.04617578
v -0.100893877 0.07300955 0.0459828153
v -0.101831123 0.0728647262 0.0456937365
v -0.100518584 0.0721386 0.0456937365
v -0.101450667 0.07200311 0.0453684144
v -0.102309443 0.07200011 0.04510091
v -0.100996912 0.07127399 0.04510091
v -0.101980433 0.07104551 0.0446112864
v -0.102763437 0.07117948 0.044400543
v -0.1014509 0.07045335 0.044400543
v -0.102470666 0.07015935 0.0437198021
v -0.103184842 0.07041774 0.0435995869
v -0.102909833 0.0693655238 0.0427084751
v -0.10187231 0.06969162 0.0435995869
v -0.103566095 0.06972858 0.0427084751
v -0.102253564 0.0690024644 0.0427084751
v -0.103900768 0.06912364 0.0417407975
v -0.102588229 0.0683975145 0.0417407975
v -0.103288196 0.0686816 0.04159722
v -0.10418389 0.06861186 0.04071255
v -0.102871358 0.06788574 0.04071255
v -0.10359855 0.0681206 0.0404100753
v -0.104412235 0.0681991056 0.0396413133
v -0.103099704 0.06747299 0.0396413133
v -0.103836648 0.06769021 0.0391735621
v -0.104584396 0.06788791 0.0385452732
v -0.103271864 0.06716178 0.0385452732
v -0.104001351 0.06739249 0.0379147269
v -0.104700737 0.06767761 0.037442252
v -0.103388205 0.06695149 0.037442252
v -0.104094438 0.06722423 0.0366593972
v -0.10476324 0.06756463 0.0363488942
v -0.103450708 0.06683851 0.0363488942
v -0.104120187 0.06717768 0.0354306921
v -0.104775228 0.06754296 0.035279993
v -0.104084775 0.0672417 0.0342480354
v -0.103462696 0.066816844 0.035279993
v -0.104741044 0.06760476 0.0342480354
v -0.103428505 0.06687864 0.0342480354
v -0.104662105 0.06774745 0.0332265943
v -0.103349566 0.0670213252 0.0332265943
v -0.103990637 0.0674118549 0.0330791771
v -0.104534157 0.06797873 0.0321905836
v -0.103221618 0.0672526062 0.0321905836
v -0.1038319 0.06769879 0.0318938456
v -0.104354322 0.06830379 0.0311542
v -0.103041783 0.067577675 0.0311542
v -0.103668019 0.06799503 0.0310070254
v -0.104120977 0.0687255859 0.0301333927
v -0.102808438 0.06799947 0.0301333927
v -0.103464708 0.06836253 0.0301333927
v -0.103221968 0.06880131 0.0292837843
v -0.103833996 0.06924434 0.0291452929
v -0.102521457 0.0685182139 0.0291452929
v -0.102940708 0.069309704 0.02846926
v -0.103494965 0.0698571652 0.0282074511
v -0.102182433 0.06913105 0.0282074511
v -0.102622814 0.06988434 0.0277007185
v -0.103107236 0.07055803 0.0273369178
v -0.1017947 0.06983191 0.0273369178
v -0.102271087 0.07052012 0.0269883871
v -0.102675863 0.07133777 0.0265493318
v -0.101363331 0.07061165 0.0265493318
v -0.101889223 0.07121037 0.0263414755
v -0.10220743 0.0721845 0.0258579887
v -0.1008949 0.0714583844 0.0258579887
v -0.101481661 0.07194709 0.0257677138
v -0.101709671 0.07308425 0.0252731144
v -0.10039714 0.07235813 0.0252731144
v -0.101053409 0.07272119 0.0252731144
v -0.100609869 0.07352293 0.02486172
v -0.101191111 0.0740216 0.024801407
v -0.09987858 0.07329548 0.024801407
v -0.100156583 0.0743422955 0.024535507
v -0.10066054 0.07498067 0.0244457647
v -0.099348 0.07425454 0.0244457647
v -0.0996990353 0.07516935 0.0242944956
v -0.100126587 0.07594583 0.0242054239
v -0.0988140553 0.07521971 0.0242054239
v -0.09924247 0.07599463 0.0241368115
v -0.09959731 0.07690255 0.0240763016
v -0.09828478 0.07617643 0.0240763016
v -0.09879171 0.07680942 0.0240589343
v -0.09907988 0.07783786 0.02405155
v -0.0977673456 0.07711174 0.02405155
v -0.0983510241 0.07760601 0.0240560211
v -0.09858033 0.07874085 0.0241221711
v -0.09726779 0.07801473 0.0241221711
v -0.09808587 0.07963463 0.0242852382
v -0.09735824 0.07940057 0.0243166313
v -0.0967733338 0.07890851 0.0242852382
v -0.09758436 0.08054116 0.0245495439
v -0.09627182 0.079815045 0.0245495439
v -0.09678444 0.0804377645 0.02464455
v -0.09708266 0.081448026 0.0249210447
v -0.09577013 0.08072191 0.0249210447
v -0.09621322 0.0814703 0.0251140073
v -0.0965885147 0.0823412538 0.02540309
v -0.0952759758 0.0816151351 0.02540309
v -0.09565643 0.08247675 0.0257284045
v -0.09611019 0.08320587 0.0259959213
v -0.0947976559 0.0824797451 0.0259959213
v -0.09512667 0.08343435 0.02648554
v -0.0956561938 0.08402651 0.02669628
v -0.09434366 0.08330038 0.02669628
v -0.09463643 0.0843205 0.0273770168
v -0.09523479 0.08478823 0.0274972431
v -0.0941972658 0.08511434 0.0283883475
v -0.09392226 0.0840621144 0.0274972431
v -0.0948535353 0.0854774 0.0283883475
v -0.093541 0.08475128 0.0283883475
v -0.09451887 0.08608234 0.0293560252
v -0.09320633 0.08535622 0.0293560252
v -0.0938189 0.08579826 0.029499609
v -0.09423575 0.08659411 0.0303842761
v -0.09292321 0.08586799 0.0303842761
v -0.09350855 0.08635926 0.0306867473
v -0.0940074 0.08700687 0.0314555056
v -0.09269486 0.08628075 0.0314555056
v -0.09327045 0.08678965 0.03192326
v -0.0938352346 0.08731807 0.0325515531
v -0.0925227 0.0865919441 0.0325515531
v -0.09310575 0.08708736 0.0331820957
v -0.0937188938 0.08752836 0.0336545669
v -0.09240636 0.0868022442 0.0336545669
v -0.09301266 0.08725563 0.03443743
v -0.09365639 0.08764135 0.0347479247
v -0.09234385 0.08691523 0.0347479247
v -0.09298691 0.08730216 0.03566613
v -0.0936444 0.0876630247 0.0358168334
v -0.0930223241 0.08723816 0.0368487947
v -0.09233187 0.0869369 0.0358168334
v -0.09367859 0.08760122 0.0368487947
v -0.0923660547 0.086875096 0.0368487947
v -0.0937575251 0.087458536 0.037870232
v -0.09244499 0.08673242 0.037870232
v -0.09311646 0.087068 0.0380176455
v -0.09388548 0.0872272551 0.0389062352
v -0.09257294 0.08650114 0.0389062352
v -0.0932752043 0.08678106 0.03920298
v -0.094065316 0.08690218 0.03994262
v -0.09275278 0.08617606 0.03994262
v -0.09343909 0.08648483 0.0400897972
v -0.09429866 0.08648039 0.04096343
v -0.09298612 0.08575427 0.04096343
v -0.09364239 0.08611733 0.04096343
v -0.09388513 0.08567855 0.041813042
v -0.09458564 0.08596164 0.041951526
v -0.0932731 0.08523552 0.041951526
v -0.09416638 0.08517016 0.04262756
v -0.09492467 0.0853488147 0.0428893752
v -0.0936121345 0.084622696 0.0428893752
v -0.0944842845 0.0845955238 0.04339611
v -0.0953124 0.08464795 0.0437599048
v -0.09399986 0.0839218348 0.0437599048
v -0.09483601 0.08395974 0.0441084355
v -0.09574377 0.08386822 0.0445474945
v -0.09443123 0.0831420943 0.0445474945
v -0.0952178761 0.0832694843 0.04475535
v -0.0962122 0.08302147 0.04523884
v -0.09489967 0.08229535 0.04523884
v -0.09562544 0.08253277 0.0453291051
v -0.09670996 0.08212173 0.04582371
v -0.09539742 0.08139561 0.04582371
v -0.09605369 0.08175867 0.04582371
v -0.09649723 0.08095692 0.04623511
v -0.09722852 0.08118438 0.0462954231
v -0.09591599 0.08045825 0.0462954231
v -0.09695052 0.0801375657 0.0465613119
v -0.0977591 0.08022531 0.04665106
v -0.09644656 0.0794991851 0.04665106
v -0.09740806 0.07931051 0.046802327
v -0.09829304 0.07926015 0.0468914025
v -0.09698051 0.07853402 0.0468914025
v -0.09786462 0.07848523 0.0469600148
v -0.09882232 0.07830343 0.04702052
v -0.09750979 0.07757731 0.04702052
v -0.09831538 0.07767044 0.04703788
v -0.09933975 0.07736811 0.04704528
v -0.09802722 0.07664199 0.04704528
v -0.0987560749 0.07687385 0.0470408
v -0.09983931 0.07646512 0.0469746552
v -0.09852677 0.075739 0.0469746552
v -0.0992098153 0.07760299 0.035548415
v -0.09959731 0.07690255 0.0240763016
v -0.100126587 0.07594583 0.0242054239
v -0.10066054 0.07498067 0.0244457647
v -0.09907988 0.07783786 0.02405155
v -0.101191111 0.0740216 0.024801407
v -0.09858033 0.07874085 0.0241221711
v -0.101709671 0.07308425 0.0252731144
v -0.09808587 0.07963463 0.0242852382
v -0.10220743 0.0721845 0.0258579887
v -0.09758436 0.08054116 0.0245495439
v -0.102675863 0.07133777 0.0265493318
v -0.09708266 0.081448026 0.0249210447
v -0.103107236 0.07055803 0.0273369178
v -0.0965885147 0.0823412538 0.02540309
v -0.103494965 0.0698571652 0.0282074511
v -0.09611019 0.08320587 0.0259959213
v -0.103833996 0.06924434 0.0291452929
v -0.0956561938 0.08402651 0.02669628
v -0.104120977 0.0687255859 0.0301333927
v -0.09523479 0.08478823 0.0274972431
v -0.104354322 0.06830379 0.0311542
v -0.0948535353 0.0854774 0.0283883475
v -0.104534157 0.06797873 0.0321905836
v -0.09451887 0.08608234 0.0293560252
v -0.104662105 0.06774745 0.0332265943
v -0.09423575 0.08659411 0.0303842761
v -0.104741044 0.06760476 0.0342480354
v -0.0940074 0.08700687 0.0314555056
v -0.104775228 0.06754296 0.035279993
v -0.0938352346 0.08731807 0.0325515531
v -0.10476324 0.06756463 0.0363488942
v -0.0937188938 0.08752836 0.0336545669
v -0.104700737 0.06767761 0.037442252
v -0.09365639 0.08764135 0.0347479247
v -0.104584396 0.06788791 0.0385452732
v -0.0936444 0.0876630247 0.0358168334
v -0.104412235 0.0681991056 0.0396413133
v -0.09367859 0.08760122 0.0368487947
v -0.10418389 0.06861186 0.04071255
v -0.0937575251 0.087458536 0.037870232
v -0.103900768 0.06912364 0.0417407975
v -0.09388548 0.0872272551 0.0389062352
v -0.103566095 0.06972858 0.0427084751
v -0.094065316 0.08690218 0.03994262
v -0.103184842 0.07041774 0.0435995869
v -0.09429866 0.08648039 0.04096343
v -0.102763437 0.07117948 0.044400543
v -0.09458564 0.08596164 0.041951526
v -0.102309443 0.07200011 0.04510091
v -0.09492467 0.0853488147 0.0428893752
v -0.101831123 0.0728647262 0.0456937365
v -0.0953124 0.08464795 0.0437599048
v -0.101336971 0.07375795 0.04617578
v -0.09574377 0.08386822 0.0445474945
v -0.100835271 0.0746648163 0.046547275
v -0.0962122 0.08302147 0.04523884
v -0.100333765 0.07557134 0.04681159
v -0.09670996 0.08212173 0.04582371
v -0.09983931 0.07646512 0.0469746552
v -0.09722852 0.08118438 0.0462954231
v -0.09933975 0.07736811 0.04704528
v -0.0977591 0.08022531 0.04665106
v -0.09882232 0.07830343 0.04702052
v -0.09829304 0.07926015 0.0468914025
v -0.0978972837 0.0768768638 0.035548415
v -0.09677096 0.0789128 0.0393047556
v -0.09688355 0.07870929 0.03925644
v -0.09699851 0.0785014853 0.0392512567
v -0.0971187055 0.07828423 0.0392930172
v -0.0972373039 0.07806985 0.0393865481
v -0.09734652 0.07787242 0.0395308174
v -0.09743912 0.07770505 0.03971826
v -0.09750988 0.07757713 0.0399359725
v -0.09755659 0.0774927 0.04016852
v -0.09665839 0.07911629 0.0394012369
v -0.09757998 0.0774504244 0.0404011048
v -0.09852677 0.075739 0.0469746552
v -0.0923660547 0.086875096 0.0368487947
v -0.0990212262 0.0748452246 0.04681159
v -0.09758249 0.07744589 0.0406385921
v -0.096553 0.0793067962 0.0395474248
v -0.09952274 0.0739387 0.046547275
v -0.09756227 0.07748243 0.04088688
v -0.100024432 0.07303183 0.04617578
v -0.09751699 0.07756428 0.0411318764
v -0.09744716 0.07769051 0.0413575023
v -0.0973564237 0.07785452 0.0415487848
v -0.09802722 0.07664199 0.04704528
v -0.09725103 0.07804503 0.0416949652
v -0.09750979 0.07757731 0.04702052
v -0.09713846 0.07824852 0.041791454
v -0.100518584 0.0721386 0.0456937365
v -0.09698051 0.07853402 0.0468914025
v -0.09702587 0.0784520358 0.0418397672
v -0.0969109 0.07865985 0.0418449529
v -0.09644656 0.0794991851 0.04665106
v -0.0967907161 0.0788771 0.0418031849
v -0.09591599 0.08045825 0.0462954231
v -0.09667212 0.0790914744 0.0417096578
v -0.09539742 0.08139561 0.04582371
v -0.09656289 0.07928891 0.0415653922
v -0.09489967 0.08229535 0.04523884
v -0.0964703038 0.07945628 0.04137795
v -0.100996912 0.07127399 0.04510091
v -0.1014509 0.07045335 0.044400543
v -0.10187231 0.06969162 0.0435995869
v -0.102253564 0.0690024644 0.0427084751
v -0.102588229 0.0683975145 0.0417407975
v -0.09443123 0.0831420943 0.0445474945
v -0.09639954 0.07958419 0.041160237
v -0.09635283 0.07966862 0.0409276821
v -0.09399986 0.0839218348 0.0437599048
v -0.0963294357 0.0797109 0.0406951047
v -0.0936121345 0.084622696 0.0428893752
v -0.09632693 0.07971543 0.04045761
v -0.0932731 0.08523552 0.041951526
v -0.102871358 0.06788574 0.04071255
v -0.0963471457 0.0796788856 0.04020933
v -0.09298612 0.08575427 0.04096343
v -0.09275278 0.08617606 0.03994262
v -0.09639242 0.07959705 0.0399643332
v -0.09257294 0.08650114 0.0389062352
v -0.103099704 0.06747299 0.0396413133
v -0.09646226 0.07947081 0.0397387072
v -0.09244499 0.08673242 0.037870232
v -0.103271864 0.06716178 0.0385452732
v -0.09233187 0.0869369 0.0358168334
v -0.103388205 0.06695149 0.037442252
v -0.09234385 0.08691523 0.0347479247
v -0.103450708 0.06683851 0.0363488942
v -0.09240636 0.0868022442 0.0336545669
v -0.103462696 0.066816844 0.035279993
v -0.0925227 0.0865919441 0.0325515531
v -0.103428505 0.06687864 0.0342480354
v -0.09269486 0.08628075 0.0314555056
v -0.103349566 0.0670213252 0.0332265943
v -0.09292321 0.08586799 0.0303842761
v -0.103221618 0.0672526062 0.0321905836
v -0.09320633 0.08535622 0.0293560252
v -0.103041783 0.067577675 0.0311542
v -0.093541 0.08475128 0.0283883475
v -0.102808438 0.06799947 0.0301333927
v -0.09392226 0.0840621144 0.0274972431
v -0.102521457 0.0685182139 0.0291452929
v -0.09434366 0.08330038 0.02669628
v -0.102182433 0.06913105 0.0282074511
v -0.0947976559 0.0824797451 0.0259959213
v -0.1017947 0.06983191 0.0273369178
v -0.0952759758 0.0816151351 0.02540309
v -0.101363331 0.07061165 0.0265493318
v -0.09577013 0.08072191 0.0249210447
v -0.1008949 0.0714583844 0.0258579887
v -0.09627182 0.079815045 0.0245495439
v -0.10039714 0.07235813 0.0252731144
v -0.0967733338 0.07890851 0.0242852382
v -0.09987858 0.07329548 0.024801407
v -0.09726779 0.07801473 0.0241221711
v -0.099348 0.07425454 0.0244457647
v -0.0977673456 0.07711174 0.02405155
v -0.0988140553 0.07521971 0.0242054239
v -0.09828478 0.07617643 0.0240763016
v -0.09699051 0.0795488358 0.0395474248
v -0.0973922238 0.0788227 0.0405481048
v -0.0970959 0.07935833 0.0394012369
v -0.09689977 0.07971285 0.0397387072
v -0.09720847 0.07915484 0.0393047556
v -0.0968299359 0.07983909 0.0399643332
v -0.09732106 0.07895133 0.03925644
v -0.09678466 0.0799209252 0.04020933
v -0.0974360257 0.0787435248 0.0392512567
v -0.0967644453 0.07995747 0.04045761
v -0.09755622 0.0785262659 0.0392930172
v -0.09676695 0.07995294 0.0406951047
v -0.09767482 0.07831189 0.0393865481
v -0.09679034 0.07991066 0.0409276821
v -0.0977840349 0.07811446 0.0395308174
v -0.0968370438 0.07982623 0.041160237
v -0.09787662 0.07794709 0.03971826
v -0.09690781 0.07969832 0.04137795
v -0.0979474 0.07781917 0.0399359725
v -0.0970004052 0.07953095 0.0415653922
v -0.097994104 0.07773474 0.04016852
v -0.09710963 0.079333514 0.0417096578
v -0.09801749 0.077692464 0.0404011048
v -0.09722823 0.07911914 0.0418031849
v -0.09802 0.07768793 0.0406385921
v -0.0973484144 0.07890189 0.0418449529
v -0.09799978 0.07772447 0.04088688
v -0.0974633843 0.0786940753 0.0418397672
v -0.0979545042 0.07780632 0.0411318764
v -0.09757597 0.07849056 0.041791454
v -0.09788467 0.07793255 0.0413575023
v -0.09768854 0.07828707 0.0416949652
v -0.09779394 0.07809656 0.0415487848
f 1 2 3
f 1 3 4
f 5 1 4
f 4 3 6
f 7 5 4
f 8 4 6
f 7 4 8
f 8 6 9
f 10 7 8
f 11 8 9
f 10 8 11
f 11 9 12
f 13 10 11
f 14 11 12
f 13 11 14
f 14 12 15
f 16 13 14
f 17 14 15
f 16 14 17
f 17 15 18
f 19 16 17
f 20 17 18
f 19 17 20
f 20 18 21
f 22 20 21
f 23 19 20
f 23 20 22
f 22 21 24
f 25 23 22
f 26 22 24
f 27 25 22
f 28 22 26
f 27 22 28
f 29 28 26
f 30 27 28
f 31 28 29
f 31 30 28
f 32 31 29
f 31 32 30
f 32 29 33
f 32 34 30
f 35 32 33
f 32 35 34
f 35 33 36
f 35 37 34
f 38 35 36
f 35 38 37
f 38 36 39
f 38 40 37
f 41 38 39
f 38 41 40
f 41 39 42
f 41 43 40
f 44 41 42
f 41 44 43
f 44 42 45
f 44 46 43
f 47 44 45
f 44 47 46
f 47 45 48
f 46 47 49
f 47 48 49
f 48 50 49
f 50 51 49
f 49 51 52
f 50 53 51
f 51 54 52
f 53 55 51
f 51 55 54
f 53 56 55
f 55 57 54
f 56 58 55
f 55 58 57
f 56 59 58
f 58 60 57
f 59 61 58
f 58 61 60
f 59 62 61
f 61 63 60
f 62 64 61
f 61 64 63
f 62 65 64
f 64 66 63
f 65 67 64
f 64 67 66
f 65 68 67
f 68 69 67
f 67 70 66
f 67 69 70
f 68 71 69
f 69 72 70
f 71 73 69
f 69 74 72
f 73 75 69
f 69 75 74
f 73 76 75
f 75 77 74
f 76 78 75
f 75 78 77
f 76 79 78
f 79 77 78
f 80 79 76
f 79 81 77
f 82 79 80
f 79 82 81
f 83 82 80
f 82 84 81
f 85 82 83
f 82 85 84
f 86 85 83
f 85 87 84
f 88 85 86
f 85 88 87
f 89 88 86
f 88 90 87
f 91 88 89
f 88 91 90
f 92 91 89
f 91 93 90
f 94 91 92
f 91 94 93
f 95 94 92
f 94 96 93
f 94 95 96
f 97 98 99
f 100 97 99
f 97 100 101
f 100 99 102
f 100 103 101
f 104 100 102
f 100 104 103
f 104 102 105
f 104 106 103
f 107 104 105
f 104 107 106
f 107 105 108
f 107 109 106
f 110 107 108
f 107 110 109
f 110 108 111
f 110 112 109
f 113 110 111
f 110 113 112
f 113 111 114
f 113 115 112
f 116 113 114
f 113 116 115
f 116 114 117
f 118 116 117
f 116 119 115
f 116 118 119
f 118 117 120
f 118 121 119
f 118 120 122
f 118 123 121
f 124 118 122
f 118 124 123
f 124 122 125
f 124 126 123
f 127 124 125
f 124 127 126
f 127 125 128
f 127 129 126
f 130 127 128
f 127 130 129
f 130 128 131
f 130 132 129
f 133 130 131
f 130 133 132
f 133 131 134
f 133 135 132
f 136 133 134
f 133 136 135
f 136 134 137
f 136 138 135
f 139 136 137
f 136 139 138
f 139 137 140
f 141 139 140
f 139 142 138
f 139 141 142
f 141 140 143
f 141 144 142
f 141 143 145
f 141 146 144
f 147 141 145
f 141 147 146
f 147 145 148
f 147 149 146
f 150 147 148
f 147 150 149
f 150 148 151
f 150 152 149
f 153 150 151
f 150 153 152
f 153 151 154
f 153 155 152
f 153 154 156
f 155 153 156
f 157 156 154
f 155 156 157
f 158 157 154
f 159 155 157
f 160 157 158
f 159 157 160
f 161 160 158
f 162 159 160
f 163 160 161
f 162 160 163
f 164 163 161
f 165 162 163
f 166 163 164
f 165 163 166
f 167 166 164
f 168 165 166
f 169 166 167
f 168 166 169
f 170 169 167
f 171 168 169
f 172 169 170
f 171 169 172
f 173 172 170
f 174 171 172
f 175 172 173
f 175 174 172
f 176 175 173
f 175 176 174
f 176 173 177
f 176 178 174
f 179 176 177
f 176 179 178
f 179 177 180
f 179 181 178
f 182 179 180
f 179 182 181
f 182 180 183
f 182 184 181
f 185 182 183
f 182 185 184
f 185 183 186
f 185 187 184
f 188 185 186
f 185 188 187
f 188 186 189
f 188 190 187
f 191 188 189
f 188 191 190
f 191 189 192
f 190 191 193
f 191 192 193
f 192 194 193
f 194 195 193
f 193 195 196
f 194 197 195
f 195 198 196
f 197 199 195
f 195 199 198
f 197 200 199
f 199 201 198
f 200 202 199
f 199 202 201
f 200 203 202
f 202 204 201
f 203 205 202
f 202 205 204
f 203 206 205
f 205 207 204
f 206 208 205
f 205 208 207
f 206 209 208
f 208 210 207
f 209 211 208
f 208 211 210
f 209 212 211
f 212 213 211
f 211 214 210
f 211 213 214
f 212 215 213
f 213 216 214
f 215 217 213
f 213 218 216
f 217 219 213
f 213 219 218
f 217 220 219
f 219 221 218
f 220 222 219
f 219 222 221
f 220 223 222
f 222 224 221
f 223 225 222
f 222 225 224
f 223 226 225
f 225 227 224
f 226 228 225
f 225 228 227
f 226 229 228
f 228 230 227
f 229 231 228
f 228 231 230
f 229 232 231
f 231 233 230
f 232 234 231
f 231 234 233
f 232 235 234
f 235 236 234
f 234 237 233
f 234 236 237
f 235 238 236
f 236 239 237
f 238 240 236
f 236 241 239
f 240 242 236
f 236 242 241
f 240 243 242
f 242 244 241
f 243 245 242
f 242 245 244
f 243 246 245
f 245 247 244
f 246 248 245
f 245 248 247
f 246 249 248
f 248 250 247
f 249 251 248
f 248 251 250
f 249 252 251
f 252 250 251
f 252 249 253
f 252 254 250
f 255 252 253
f 252 255 254
f 255 253 256
f 255 257 254
f 258 255 256
f 255 258 257
f 258 256 259
f 258 260 257
f 261 258 259
f 258 261 260
f 261 259 262
f 261 263 260
f 264 261 262
f 261 264 263
f 264 262 265
f 264 266 263
f 267 264 265
f 264 267 266
f 267 265 268
f 267 269 266
f 270 267 268
f 267 270 269
f 270 268 271
f 270 271 269
f 268 272 271
f 273 269 271
f 272 274 271
f 273 271 274
f 272 275 274
f 276 273 274
f 275 277 274
f 276 274 277
f 275 278 277
f 279 276 277
f 278 280 277
f 279 277 280
f 278 281 280
f 282 279 280
f 281 283 280
f 282 280 283
f 281 284 283
f 285 282 283
f 284 286 283
f 285 283 286
f 284 287 286
f 288 285 286
f 287 288 286
f 289 290 291
f 289 291 292
f 290 289 293
f 294 289 292
f 293 289 295
f 289 294 296
f 289 297 295
f 289 296 298
f 289 299 297
f 300 289 298
f 299 289 301
f 289 300 302
f 289 303 301
f 289 302 304
f 289 305 303
f 306 289 304
f 305 289 307
f 289 306 308
f 289 309 307
f 289 308 310
f 289 311 309
f 312 289 310
f 311 289 313
f 289 312 314
f 289 315 313
f 289 314 316
f 289 317 315
f 318 289 316
f 317 289 319
f 289 318 320
f 289 321 319
f 289 320 322
f 289 323 321
f 324 289 322
f 323 289 325
f 289 324 326
f 289 327 325
f 289 326 328
f 289 329 327
f 330 289 328
f 329 289 331
f 289 330 332
f 289 333 331
f 289 332 334
f 289 335 333
f 336 289 334
f 335 289 337
f 289 336 338
f 289 339 337
f 289 338 340
f 289 341 339
f 342 289 340
f 341 289 343
f 289 342 344
f 289 345 343
f 289 344 346
f 289 347 345
f 348 289 346
f 347 289 349
f 289 348 350
f 289 351 349
f 289 350 352
f 289 353 351
f 353 289 352
f 354 355 356
f 354 356 357
f 358 354 357
f 354 358 359
f 354 359 360
f 361 354 360
f 354 361 362
f 354 362 363
f 355 354 364
f 365 354 363
f 354 365 366
f 367 364 354
f 354 366 368
f 365 369 366
f 367 370 364
f 371 354 368
f 369 372 366
f 354 371 373
f 372 374 366
f 366 374 375
f 366 375 376
f 377 366 376
f 376 378 377
f 378 379 377
f 378 380 379
f 354 373 381
f 380 382 379
f 380 383 382
f 383 384 382
f 384 385 382
f 384 386 385
f 386 387 385
f 386 388 387
f 388 389 387
f 388 390 389
f 390 391 389
f 390 392 391
f 393 354 381
f 354 393 394
f 354 394 395
f 396 354 395
f 354 396 397
f 392 398 391
f 392 399 398
f 399 400 398
f 400 401 398
f 400 402 401
f 402 403 401
f 402 404 403
f 404 405 403
f 354 397 406
f 404 407 405
f 407 408 405
f 407 409 408
f 407 410 409
f 410 411 409
f 412 354 406
f 410 413 411
f 413 414 411
f 413 367 414
f 370 367 413
f 354 412 415
f 416 367 354
f 354 415 417
f 416 354 418
f 419 354 417
f 354 420 418
f 354 419 421
f 354 422 420
f 354 421 423
f 422 354 424
f 425 354 423
f 354 426 424
f 354 425 427
f 354 428 426
f 354 427 429
f 428 354 430
f 431 354 429
f 354 432 430
f 354 431 433
f 354 434 432
f 354 433 435
f 434 354 436
f 437 354 435
f 354 438 436
f 354 437 439
f 354 440 438
f 354 439 441
f 440 354 442
f 443 354 441
f 354 444 442
f 354 443 445
f 354 446 444
f 354 445 447
f 446 354 448
f 449 354 447
f 354 450 448
f 354 449 450
f 451 452 453
f 452 451 454
f 452 455 453
f 452 454 456
f 455 452 457
f 458 452 456
f 452 459 457
f 452 458 460
f 452 461 459
f 452 460 462
f 461 452 463
f 464 452 462
f 452 465 463
f 452 464 466
f 452 467 465
f 452 466 468
f 467 452 469
f 470 452 468
f 452 471 469
f 452 470 472
f 452 473 471
f 452 472 474
f 473 452 475
f 476 452 474
f 452 477 475
f 452 476 478
f 452 479 477
f 452 478 480
f 479 452 481
f 482 452 480
f 452 483 481
f 452 482 483
