# ROS coordinates: X forward, Y left, Z up; units are metres.
o mesh
v -0.0235974267 -0.108634762 0.0905070156
v -0.0268406738 -0.10537263 0.090652585
v -0.0235879831 -0.108625323 0.090652585
v -0.0252267644 -0.107011408 0.09048575
v -0.02685012 -0.10538207 0.0905070156
v -0.0252431445 -0.107027791 0.0904005
v -0.0236277 -0.108665034 0.09035811
v -0.0268803909 -0.105412349 0.09035811
v -0.0252667777 -0.107051425 0.09031617
v -0.0236801915 -0.108717531 0.09021481
v -0.026932884 -0.105464838 0.09021481
v -0.0252976939 -0.107082337 0.09023457
v -0.0253356323 -0.107120275 0.09015756
v -0.02375367 -0.108791009 0.0900869
v -0.02700636 -0.105538316 0.0900869
v -0.0253800135 -0.107164659 0.0900869
v -0.025429979 -0.107214622 0.09002413
v -0.02384412 -0.108881459 0.08998299
v -0.0270968117 -0.105628766 0.08998299
v -0.0254844334 -0.107269078 0.08997048
v -0.0255421326 -0.107326776 0.08992676
v -0.0239454433 -0.108982779 0.08990875
v -0.027198134 -0.105730087 0.08990875
v -0.0256017633 -0.10738641 0.08989333
v -0.0240507349 -0.109088071 0.08986594
v -0.0273034256 -0.105835378 0.08986594
v -0.02566205 -0.107446693 0.08987017
v -0.0257800147 -0.107564658 0.08985258
v -0.0241536684 -0.109191008 0.08985258
v -0.02740636 -0.105938315 0.08985258
v -0.0242566019 -0.109293938 0.08986594
v -0.0275092945 -0.106041245 0.08986594
v -0.02589798 -0.107682623 0.08987017
v -0.0243618935 -0.109399229 0.08990875
v -0.0276145861 -0.106146537 0.08990875
v -0.02598824 -0.107772887 0.08990875
v -0.0260755941 -0.107860237 0.08997048
v -0.0244632177 -0.109500557 0.08998299
v -0.0277159084 -0.106247865 0.08998299
v -0.0261556655 -0.107940309 0.090054445
v -0.0245536678 -0.109591007 0.0900869
v -0.02780636 -0.106338315 0.0900869
v -0.0262243971 -0.10800904 0.09015756
v -0.0246271454 -0.109664485 0.09021481
v -0.027879836 -0.106411792 0.09021481
v -0.0262786932 -0.10806334 0.09027491
v -0.0246796347 -0.109716974 0.09035811
v -0.0279323272 -0.106464282 0.09035811
v -0.0263168812 -0.108101524 0.0904005
v -0.02470991 -0.109747246 0.0905070156
v -0.0279626 -0.106494553 0.0905070156
v -0.02633882 -0.108123466 0.0905282
v -0.0247193538 -0.109756693 0.090652585
v -0.0279720444 -0.106504 0.090652585
v -0.02470991 -0.109747246 0.0907981545
v -0.0263332631 -0.108117908 0.09081941
v -0.0279626 -0.106494553 0.0907981545
v -0.0263168812 -0.108101524 0.09090467
v -0.0246796347 -0.109716974 0.09094706
v -0.0279323272 -0.106464282 0.09094706
v -0.02629325 -0.1080779 0.090989
v -0.0246271454 -0.109664485 0.09109035
v -0.027879836 -0.106411792 0.09109035
v -0.0262623318 -0.108046979 0.0910706
v -0.0262243971 -0.10800904 0.09114761
v -0.0245536678 -0.109591007 0.09121827
v -0.02780636 -0.106338315 0.09121827
v -0.026180014 -0.107964657 0.09121827
v -0.0261300486 -0.107914694 0.0912810341
v -0.0244632177 -0.109500557 0.0913221762
v -0.0277159084 -0.106247865 0.0913221762
v -0.0260755941 -0.107860237 0.0913346857
v -0.0260178968 -0.10780254 0.0913784057
v -0.0243618935 -0.109399229 0.0913964137
v -0.0276145861 -0.106146537 0.0913964137
v -0.0259582624 -0.107742906 0.09141183
v -0.0242566019 -0.109293938 0.0914392248
v -0.0275092926 -0.106041245 0.0914392248
v -0.02589798 -0.107682623 0.09143499
v -0.0257800147 -0.107564658 0.09145258
v -0.0241536684 -0.109191008 0.09145258
v -0.02740636 -0.105938315 0.09145258
v -0.0240507349 -0.109088071 0.0914392248
v -0.0273034256 -0.105835378 0.0914392248
v -0.02566205 -0.107446693 0.09143499
v -0.0239454415 -0.108982779 0.0913964137
v -0.027198134 -0.105730087 0.0913964137
v -0.0255717877 -0.107356437 0.0913964137
v -0.0254844334 -0.107269078 0.0913346857
v -0.02384412 -0.108881459 0.0913221762
v -0.0270968117 -0.105628766 0.0913221762
v -0.02540436 -0.107189007 0.0912507251
v -0.0237536673 -0.108791009 0.09121827
v -0.0270063579 -0.105538316 0.09121827
v -0.0253356323 -0.107120275 0.09114761
v -0.0236801915 -0.108717531 0.09109035
v -0.026932884 -0.105464838 0.09109035
v -0.0252813343 -0.107065976 0.091030255
v -0.0236277 -0.108665034 0.09094706
v -0.0268803909 -0.105412349 0.09094706
v -0.0252431445 -0.107027791 0.09090467
v -0.0235974267 -0.108634762 0.0907981545
v -0.02685012 -0.10538207 0.0907981545
v -0.0252212062 -0.107005849 0.090776965
v -0.0235879831 -0.108625323 0.090652585
v -0.0268406738 -0.10537263 0.090652585
v -0.027879836 -0.106411792 0.09109035
v -0.02740636 -0.105938315 0.090652585
v -0.0279323272 -0.106464282 0.09094706
v -0.02780636 -0.106338315 0.09121827
v -0.0279626 -0.106494553 0.0907981545
v -0.0277159084 -0.106247865 0.0913221762
v -0.0279720444 -0.106504 0.090652585
v -0.0276145861 -0.106146537 0.0913964137
v -0.0279626 -0.106494553 0.0905070156
v -0.0275092926 -0.106041245 0.0914392248
v -0.0279323272 -0.106464282 0.09035811
v -0.02740636 -0.105938315 0.09145258
v -0.027879836 -0.106411792 0.09021481
v -0.0273034256 -0.105835378 0.0914392248
v -0.02780636 -0.106338315 0.0900869
v -0.027198134 -0.105730087 0.0913964137
v -0.0277159084 -0.106247865 0.08998299
v -0.0270968117 -0.105628766 0.0913221762
v -0.0276145861 -0.106146537 0.08990875
v -0.0270063579 -0.105538316 0.09121827
v -0.0275092945 -0.106041245 0.08986594
v -0.026932884 -0.105464838 0.09109035
v -0.02740636 -0.105938315 0.08985258
v -0.0268803909 -0.105412349 0.09094706
v -0.0273034256 -0.105835378 0.08986594
v -0.02685012 -0.10538207 0.0907981545
v -0.027198134 -0.105730087 0.08990875
v -0.0268406738 -0.10537263 0.090652585
v -0.0270968117 -0.105628766 0.08998299
v -0.02685012 -0.10538207 0.0905070156
v -0.02700636 -0.105538316 0.0900869
v -0.0268803909 -0.105412349 0.09035811
v -0.026932884 -0.105464838 0.09021481
v -0.0236801915 -0.108717531 0.09109035
v -0.0241536684 -0.109191008 0.090652585
v -0.0236277 -0.108665034 0.09094706
v -0.0237536673 -0.108791009 0.09121827
v -0.0235974267 -0.108634762 0.0907981545
v -0.02384412 -0.108881459 0.0913221762
v -0.0235879831 -0.108625323 0.090652585
v -0.0239454415 -0.108982779 0.0913964137
v -0.0235974267 -0.108634762 0.0905070156
v -0.0240507349 -0.109088071 0.0914392248
v -0.0236277 -0.108665034 0.09035811
v -0.0241536684 -0.109191008 0.09145258
v -0.0236801915 -0.108717531 0.09021481
v -0.0242566019 -0.109293938 0.0914392248
v -0.02375367 -0.108791009 0.0900869
v -0.0243618935 -0.109399229 0.0913964137
v -0.02384412 -0.108881459 0.08998299
v -0.0244632177 -0.109500557 0.0913221762
v -0.0239454433 -0.108982779 0.08990875
v -0.0245536678 -0.109591007 0.09121827
v -0.0240507349 -0.109088071 0.08986594
v -0.0246271454 -0.109664485 0.09109035
v -0.0241536684 -0.109191008 0.08985258
v -0.0246796347 -0.109716974 0.09094706
v -0.0242566019 -0.109293938 0.08986594
v -0.02470991 -0.109747246 0.0907981545
v -0.0243618935 -0.109399229 0.08990875
v -0.0247193538 -0.109756693 0.090652585
v -0.0244632177 -0.109500557 0.08998299
v -0.02470991 -0.109747246 0.0905070156
v -0.0245536678 -0.109591007 0.0900869
v -0.0246796347 -0.109716974 0.09035811
v -0.0246271454 -0.109664485 0.09021481
f 1 2 3
f 4 2 1
f 4 5 2
f 6 4 1
f 4 6 5
f 6 1 7
f 6 8 5
f 9 6 7
f 6 9 8
f 7 10 9
f 9 11 8
f 10 12 9
f 9 12 11
f 10 13 12
f 13 11 12
f 13 10 14
f 13 15 11
f 13 14 16
f 15 13 16
f 17 16 14
f 15 16 17
f 18 17 14
f 19 15 17
f 20 17 18
f 20 19 17
f 21 20 18
f 20 21 19
f 21 18 22
f 21 23 19
f 24 21 22
f 21 24 23
f 24 22 25
f 24 26 23
f 24 25 27
f 26 24 27
f 28 27 25
f 26 27 28
f 28 25 29
f 30 26 28
f 31 28 29
f 32 30 28
f 33 28 31
f 32 28 33
f 34 33 31
f 35 32 33
f 36 33 34
f 36 35 33
f 37 36 34
f 36 37 35
f 37 34 38
f 37 39 35
f 40 37 38
f 37 40 39
f 40 38 41
f 40 42 39
f 43 40 41
f 40 43 42
f 43 41 44
f 43 45 42
f 46 43 44
f 43 46 45
f 46 44 47
f 46 48 45
f 49 46 47
f 46 49 48
f 49 47 50
f 49 51 48
f 52 49 50
f 49 52 51
f 52 50 53
f 51 52 54
f 52 53 54
f 53 55 54
f 55 56 54
f 54 56 57
f 55 58 56
f 58 57 56
f 58 55 59
f 58 60 57
f 61 58 59
f 58 61 60
f 61 59 62
f 61 63 60
f 64 61 62
f 61 64 63
f 64 62 65
f 64 65 63
f 62 66 65
f 63 65 67
f 66 68 65
f 65 68 67
f 66 69 68
f 69 67 68
f 69 66 70
f 69 71 67
f 69 70 72
f 71 69 72
f 73 72 70
f 71 72 73
f 73 70 74
f 75 71 73
f 76 73 74
f 73 76 75
f 76 74 77
f 76 78 75
f 79 76 77
f 76 79 78
f 79 77 80
f 79 80 78
f 77 81 80
f 78 80 82
f 81 83 80
f 80 84 82
f 83 85 80
f 80 85 84
f 83 86 85
f 85 87 84
f 86 88 85
f 85 88 87
f 86 89 88
f 89 87 88
f 90 89 86
f 89 91 87
f 92 89 90
f 89 92 91
f 93 92 90
f 92 94 91
f 95 92 93
f 92 95 94
f 96 95 93
f 95 97 94
f 98 95 96
f 95 98 97
f 99 98 96
f 98 100 97
f 101 98 99
f 98 101 100
f 102 101 99
f 101 103 100
f 104 101 102
f 101 104 103
f 105 104 102
f 104 106 103
f 104 105 106
f 107 108 109
f 108 107 110
f 108 111 109
f 108 110 112
f 111 108 113
f 114 108 112
f 108 115 113
f 108 114 116
f 108 117 115
f 108 116 118
f 117 108 119
f 120 108 118
f 108 121 119
f 108 120 122
f 108 123 121
f 108 122 124
f 123 108 125
f 126 108 124
f 108 127 125
f 108 126 128
f 108 129 127
f 108 128 130
f 129 108 131
f 132 108 130
f 108 133 131
f 108 132 134
f 108 135 133
f 108 134 136
f 135 108 137
f 138 108 136
f 108 139 137
f 108 138 139
f 140 141 142
f 141 140 143
f 141 144 142
f 141 143 145
f 144 141 146
f 147 141 145
f 141 148 146
f 141 147 149
f 141 150 148
f 141 149 151
f 150 141 152
f 153 141 151
f 141 154 152
f 141 153 155
f 141 156 154
f 141 155 157
f 156 141 158
f 159 141 157
f 141 160 158
f 141 159 161
f 141 162 160
f 141 161 163
f 162 141 164
f 165 141 163
f 141 166 164
f 141 165 167
f 141 168 166
f 141 167 169
f 168 141 170
f 171 141 169
f 141 172 170
f 141 171 172
