# ROS coordinates: X forward, Y left, Z up; units are metres.
o mesh
v -0.0816500038 0.0550000034 0.110000007
v -0.0816500038 0.0475000031 0.110000007
v -0.08162246 0.0475000031 0.109699771
v -0.08161373 0.0512500033 0.109655924
v -0.08162246 0.0550000034 0.109699771
v -0.0815341547 0.0475000031 0.109392643
v -0.0815341547 0.0550000034 0.109392643
v -0.08149702 0.0512500033 0.109306142
v -0.08138105 0.0475000031 0.1090971
v -0.08138105 0.0550000034 0.1090971
v -0.08129618 0.0512500033 0.108979017
v -0.08116673 0.0475000031 0.108833276
v -0.08116673 0.0550000034 0.108833276
v -0.08102098 0.0512500033 0.108703829
v -0.0809029043 0.0475000031 0.10861896
v -0.0809029043 0.0550000034 0.10861896
v -0.0806938559 0.0512500033 0.108502984
v -0.0806073546 0.0475000031 0.108465858
v -0.0806073546 0.0550000034 0.108465858
v -0.08034409 0.0512500033 0.108386286
v -0.08030024 0.0475000031 0.108377554
v -0.0800000057 0.0512500033 0.10835
v -0.08030024 0.0550000034 0.108377554
v -0.0800000057 0.0475000031 0.10835
v -0.0800000057 0.0550000034 0.10835
v -0.07969976 0.0475000031 0.108377554
v -0.07969976 0.0550000034 0.108377554
v -0.07965593 0.0512500033 0.108386286
v -0.07939265 0.0475000031 0.108465858
v -0.07939265 0.0550000034 0.108465858
v -0.07939265 0.0512500033 0.108465858
v -0.07913785 0.0512500033 0.108593166
v -0.07909711 0.0475000031 0.10861896
v -0.07909711 0.0550000034 0.10861896
v -0.0789043 0.0512500033 0.10876634
v -0.07883328 0.0475000031 0.108833276
v -0.07883328 0.0550000034 0.108833276
v -0.07870383 0.0512500033 0.108979017
v -0.07861896 0.0475000031 0.1090971
v -0.07861896 0.0550000034 0.1090971
v -0.07854544 0.0512500033 0.109221049
v -0.07846586 0.0475000031 0.109392643
v -0.07846586 0.0550000034 0.109392643
v -0.07843406 0.0512500033 0.109480083
v -0.0783775449 0.0475000031 0.109699771
v -0.0783775449 0.0550000034 0.109699771
v -0.0783700645 0.0512500033 0.109743461
v -0.07835001 0.0475000031 0.110000007
v -0.07835001 0.0550000034 0.110000007
v -0.0783775449 0.0475000031 0.110300243
v -0.07838628 0.0512500033 0.1103441
v -0.0783775449 0.0550000034 0.110300243
v -0.07846586 0.0475000031 0.110607363
v -0.07846586 0.0550000034 0.110607363
v -0.07850298 0.0512500033 0.110693865
v -0.07861896 0.0475000031 0.110902905
v -0.07861896 0.0550000034 0.110902905
v -0.07870383 0.0512500033 0.11102099
v -0.07883328 0.0475000031 0.111166731
v -0.07883328 0.0550000034 0.111166731
v -0.0789790154 0.0512500033 0.111296184
v -0.07909711 0.0475000031 0.111381046
v -0.07909711 0.0550000034 0.111381046
v -0.07930614 0.0512500033 0.11149703
v -0.07939265 0.0475000031 0.111534148
v -0.07939265 0.0550000034 0.111534148
v -0.07965593 0.0512500033 0.111613728
v -0.07969976 0.0475000031 0.111622468
v -0.0800000057 0.0512500033 0.111650005
v -0.07969976 0.0550000034 0.111622468
v -0.0800000057 0.0475000031 0.111650005
v -0.0800000057 0.0550000034 0.111650005
v -0.08030024 0.0475000031 0.111622468
v -0.08030024 0.0550000034 0.111622468
v -0.08034409 0.0512500033 0.111613728
v -0.0806073546 0.0475000031 0.111534148
v -0.0806073546 0.0550000034 0.111534148
v -0.0806073546 0.0512500033 0.111534148
v -0.08086216 0.0512500033 0.111406848
v -0.0809029043 0.0475000031 0.111381046
v -0.0809029043 0.0550000034 0.111381046
v -0.0810957 0.0512500033 0.111233667
v -0.08116673 0.0475000031 0.111166731
v -0.08116673 0.0550000034 0.111166731
v -0.08129618 0.0512500033 0.11102099
v -0.08138105 0.0475000031 0.110902905
v -0.08138105 0.0550000034 0.110902905
v -0.08145456 0.0512500033 0.110778958
v -0.0815341547 0.0475000031 0.110607363
v -0.0815341547 0.0550000034 0.110607363
v -0.08156595 0.0512500033 0.110519931
v -0.08162246 0.0475000031 0.110300243
v -0.08162246 0.0550000034 0.110300243
v -0.08162994 0.0512500033 0.110256553
v -0.0816500038 0.0475000031 0.110000007
v -0.0816500038 0.0550000034 0.110000007
v -0.06165 0.0550000034 0.110000007
v -0.06165 0.0475000031 0.110000007
v -0.0616224557 0.0475000031 0.109699771
v -0.06161373 0.0512500033 0.109655924
v -0.0616224557 0.0550000034 0.109699771
v -0.0615341552 0.0475000031 0.109392643
v -0.0615341552 0.0550000034 0.109392643
v -0.0614970177 0.0512500033 0.109306142
v -0.06138105 0.0475000031 0.1090971
v -0.06138105 0.0550000034 0.1090971
v -0.0612961836 0.0512500033 0.108979017
v -0.06116673 0.0475000031 0.108833276
v -0.06116673 0.0550000034 0.108833276
v -0.0610209927 0.0512500033 0.108703829
v -0.0609029 0.0475000031 0.10861896
v -0.0609029 0.0550000034 0.10861896
v -0.0606938638 0.0512500033 0.108502984
v -0.06060736 0.0475000031 0.108465858
v -0.06060736 0.0550000034 0.108465858
v -0.06034408 0.0512500033 0.108386286
v -0.0603002459 0.0475000031 0.108377554
v -0.0600000024 0.0512500033 0.10835
v -0.0603002459 0.0550000034 0.108377554
v -0.0600000024 0.0475000031 0.10835
v -0.0600000024 0.0550000034 0.10835
v -0.05969976 0.0475000031 0.108377554
v -0.05969976 0.0550000034 0.108377554
v -0.0596559234 0.0512500033 0.108386286
v -0.059392646 0.0475000031 0.108465858
v -0.059392646 0.0550000034 0.108465858
v -0.059392646 0.0512500033 0.108465858
v -0.0591378473 0.0512500033 0.108593166
v -0.0590971075 0.0475000031 0.10861896
v -0.0590971075 0.0550000034 0.10861896
v -0.0589042976 0.0512500033 0.10876634
v -0.05883328 0.0475000031 0.108833276
v -0.05883328 0.0550000034 0.108833276
v -0.0587038249 0.0512500033 0.108979017
v -0.0586189553 0.0475000031 0.1090971
v -0.0586189553 0.0550000034 0.1090971
v -0.05854544 0.0512500033 0.109221049
v -0.0584658533 0.0475000031 0.109392643
v -0.0584658533 0.0550000034 0.109392643
v -0.05843406 0.0512500033 0.109480083
v -0.05837755 0.0475000031 0.109699771
v -0.05837755 0.0550000034 0.109699771
v -0.05837007 0.0512500033 0.109743461
v -0.0583500043 0.0475000031 0.110000007
v -0.0583500043 0.0550000034 0.110000007
v -0.05837755 0.0475000031 0.110300243
v -0.0583862737 0.0512500033 0.1103441
v -0.05837755 0.0550000034 0.110300243
v -0.0584658533 0.0475000031 0.110607363
v -0.0584658533 0.0550000034 0.110607363
v -0.058502987 0.0512500033 0.110693865
v -0.0586189553 0.0475000031 0.110902905
v -0.0586189553 0.0550000034 0.110902905
v -0.0587038249 0.0512500033 0.11102099
v -0.05883328 0.0475000031 0.111166731
v -0.05883328 0.0550000034 0.111166731
v -0.0589790158 0.0512500033 0.111296184
v -0.0590971075 0.0475000031 0.111381046
v -0.0590971075 0.0550000034 0.111381046
v -0.05930614 0.0512500033 0.11149703
v -0.059392646 0.0475000031 0.111534148
v -0.059392646 0.0550000034 0.111534148
v -0.0596559234 0.0512500033 0.111613728
v -0.05969976 0.0475000031 0.111622468
v -0.0600000024 0.0512500033 0.111650005
v -0.05969976 0.0550000034 0.111622468
v -0.0600000024 0.0475000031 0.111650005
v -0.0600000024 0.0550000034 0.111650005
v -0.0603002459 0.0475000031 0.111622468
v -0.0603002459 0.0550000034 0.111622468
v -0.06034408 0.0512500033 0.111613728
v -0.06060736 0.0475000031 0.111534148
v -0.06060736 0.0550000034 0.111534148
v -0.06060736 0.0512500033 0.111534148
v -0.0608621575 0.0512500033 0.111406848
v -0.0609029 0.0475000031 0.111381046
v -0.0609029 0.0550000034 0.111381046
v -0.0610957071 0.0512500033 0.111233667
v -0.06116673 0.0475000031 0.111166731
v -0.06116673 0.0550000034 0.111166731
v -0.0612961836 0.0512500033 0.11102099
v -0.06138105 0.0475000031 0.110902905
v -0.06138105 0.0550000034 0.110902905
v -0.0614545643 0.0512500033 0.110778958
v -0.0615341552 0.0475000031 0.110607363
v -0.0615341552 0.0550000034 0.110607363
v -0.0615659431 0.0512500033 0.110519931
v -0.0616224557 0.0475000031 0.110300243
v -0.0616224557 0.0550000034 0.110300243
v -0.0616299361 0.0512500033 0.110256553
v -0.06165 0.0475000031 0.110000007
v -0.06165 0.0550000034 0.110000007
v 0.0300000012 0.05165 0.11500001
v 0.0300000012 0.05165 0.105000004
v 0.030300241 0.0516224578 0.105000004
v 0.0303440839 0.05161373 0.110000007
v 0.030300241 0.0516224578 0.11500001
v 0.0306073576 0.0515341535 0.105000004
v 0.0306073576 0.0515341535 0.11500001
v 0.0306938589 0.0514970161 0.110000007
v 0.0309028961 0.0513810478 0.105000004
v 0.0309028961 0.0513810478 0.11500001
v 0.0310209878 0.0512961857 0.110000007
v 0.0311667267 0.05116673 0.105000004
v 0.0311667267 0.05116673 0.11500001
v 0.0312961824 0.0510209948 0.110000007
v 0.0313810445 0.0509028956 0.105000004
v 0.0313810445 0.0509028956 0.11500001
v 0.03149702 0.0506938621 0.110000007
v 0.03153415 0.05060736 0.105000004
v 0.03153415 0.05060736 0.11500001
v 0.0316137262 0.0503440872 0.110000007
v 0.0316224545 0.0503002442 0.105000004
v 0.03165 0.0500000045 0.110000007
v 0.0316224545 0.0503002442 0.11500001
v 0.03165 0.0500000045 0.105000004
v 0.03165 0.0500000045 0.11500001
v 0.0316224545 0.0496997647 0.105000004
v 0.0316224545 0.0496997647 0.11500001
v 0.0316137262 0.04965592 0.110000007
v 0.03153415 0.049392648 0.105000004
v 0.03153415 0.049392648 0.11500001
v 0.03153415 0.049392648 0.110000007
v 0.03140684 0.0491378456 0.110000007
v 0.0313810445 0.0490971059 0.105000004
v 0.0313810445 0.0490971059 0.11500001
v 0.0312336646 0.0489043 0.110000007
v 0.0311667267 0.0488332734 0.105000004
v 0.0311667267 0.0488332734 0.11500001
v 0.0310209878 0.04870382 0.110000007
v 0.0309028961 0.0486189574 0.105000004
v 0.0309028961 0.0486189574 0.11500001
v 0.0307789538 0.0485454462 0.110000007
v 0.0306073576 0.048465848 0.105000004
v 0.0306073576 0.048465848 0.11500001
v 0.0305199232 0.04843406 0.110000007
v 0.030300241 0.04837755 0.105000004
v 0.030300241 0.04837755 0.11500001
v 0.0302565452 0.048370067 0.110000007
v 0.0300000012 0.0483500026 0.105000004
v 0.0300000012 0.0483500026 0.11500001
v 0.0296997633 0.04837755 0.105000004
v 0.0296559185 0.0483862758 0.110000007
v 0.0296997633 0.04837755 0.11500001
v 0.0293926448 0.048465848 0.105000004
v 0.0293926448 0.048465848 0.11500001
v 0.0293061435 0.0485029854 0.110000007
v 0.0290971063 0.0486189574 0.105000004
v 0.0290971063 0.0486189574 0.11500001
v 0.0289790146 0.04870382 0.110000007
v 0.0288332775 0.0488332734 0.105000004
v 0.0288332775 0.0488332734 0.11500001
v 0.02870382 0.0489790142 0.110000007
v 0.0286189578 0.0490971059 0.105000004
v 0.0286189578 0.0490971059 0.11500001
v 0.0285029821 0.04930614 0.110000007
v 0.0284658521 0.049392648 0.105000004
v 0.0284658521 0.049392648 0.11500001
v 0.0283862762 0.04965592 0.110000007
v 0.0283775479 0.0496997647 0.105000004
v 0.0283500012 0.0500000045 0.110000007
v 0.0283775479 0.0496997647 0.11500001
v 0.0283500012 0.0500000045 0.105000004
v 0.0283500012 0.0500000045 0.11500001
v 0.0283775479 0.0503002442 0.105000004
v 0.0283775479 0.0503002442 0.11500001
v 0.0283862762 0.0503440872 0.110000007
v 0.0284658521 0.05060736 0.105000004
v 0.0284658521 0.05060736 0.11500001
v 0.0284658521 0.05060736 0.110000007
v 0.0285931658 0.0508621559 0.110000007
v 0.0286189578 0.0509028956 0.105000004
v 0.0286189578 0.0509028956 0.11500001
v 0.0287663378 0.05109571 0.110000007
v 0.0288332775 0.05116673 0.105000004
v 0.0288332775 0.05116673 0.11500001
v 0.0289790146 0.0512961857 0.110000007
v 0.0290971063 0.0513810478 0.105000004
v 0.0290971063 0.0513810478 0.11500001
v 0.0292210486 0.0514545627 0.110000007
v 0.0293926448 0.0515341535 0.105000004
v 0.0293926448 0.0515341535 0.11500001
v 0.0294800811 0.0515659451 0.110000007
v 0.0296997633 0.0516224578 0.105000004
v 0.0296997633 0.0516224578 0.11500001
v 0.02974346 0.0516299345 0.110000007
v 0.0300000012 0.05165 0.105000004
v 0.0300000012 0.05165 0.11500001
v 0.045 0.05165 0.11500001
v 0.045 0.05165 0.105000004
v 0.04530024 0.0516224578 0.105000004
v 0.0453440845 0.05161373 0.110000007
v 0.04530024 0.0516224578 0.11500001
v 0.04560736 0.0515341535 0.105000004
v 0.04560736 0.0515341535 0.11500001
v 0.04569386 0.0514970161 0.110000007
v 0.0459028967 0.0513810478 0.105000004
v 0.0459028967 0.0513810478 0.11500001
v 0.0460209921 0.0512961857 0.110000007
v 0.0461667255 0.05116673 0.105000004
v 0.0461667255 0.05116673 0.11500001
v 0.0462961867 0.0510209948 0.110000007
v 0.04638105 0.0509028956 0.105000004
v 0.04638105 0.0509028956 0.11500001
v 0.04649702 0.0506938621 0.110000007
v 0.04653416 0.05060736 0.105000004
v 0.04653416 0.05060736 0.11500001
v 0.04661373 0.0503440872 0.110000007
v 0.0466224551 0.0503002442 0.105000004
v 0.0466500036 0.0500000045 0.110000007
v 0.0466224551 0.0503002442 0.11500001
v 0.0466500036 0.0500000045 0.105000004
v 0.0466500036 0.0500000045 0.11500001
v 0.0466224551 0.0496997647 0.105000004
v 0.0466224551 0.0496997647 0.11500001
v 0.04661373 0.04965592 0.110000007
v 0.04653416 0.049392648 0.105000004
v 0.04653416 0.049392648 0.11500001
v 0.04653416 0.049392648 0.110000007
v 0.04640684 0.0491378456 0.110000007
v 0.04638105 0.0490971059 0.105000004
v 0.04638105 0.0490971059 0.11500001
v 0.0462336652 0.0489043 0.110000007
v 0.0461667255 0.0488332734 0.105000004
v 0.0461667255 0.0488332734 0.11500001
v 0.0460209921 0.04870382 0.110000007
v 0.0459028967 0.0486189574 0.105000004
v 0.0459028967 0.0486189574 0.11500001
v 0.0457789525 0.0485454462 0.110000007
v 0.04560736 0.048465848 0.105000004
v 0.04560736 0.048465848 0.11500001
v 0.0455199219 0.04843406 0.110000007
v 0.04530024 0.04837755 0.105000004
v 0.04530024 0.04837755 0.11500001
v 0.0452565439 0.048370067 0.110000007
v 0.045 0.0483500026 0.105000004
v 0.045 0.0483500026 0.11500001
v 0.044699762 0.04837755 0.105000004
v 0.04465592 0.0483862758 0.110000007
v 0.044699762 0.04837755 0.11500001
v 0.0443926454 0.048465848 0.105000004
v 0.0443926454 0.048465848 0.11500001
v 0.0443061441 0.0485029854 0.110000007
v 0.0440971032 0.0486189574 0.105000004
v 0.0440971032 0.0486189574 0.11500001
v 0.04397901 0.04870382 0.110000007
v 0.0438332781 0.0488332734 0.105000004
v 0.0438332781 0.0488332734 0.11500001
v 0.04370382 0.0489790142 0.110000007
v 0.04361896 0.0490971059 0.105000004
v 0.04361896 0.0490971059 0.11500001
v 0.0435029864 0.04930614 0.110000007
v 0.04346585 0.049392648 0.105000004
v 0.04346585 0.049392648 0.11500001
v 0.0433862768 0.04965592 0.110000007
v 0.04337755 0.0496997647 0.105000004
v 0.0433500037 0.0500000045 0.110000007
v 0.04337755 0.0496997647 0.11500001
v 0.0433500037 0.0500000045 0.105000004
v 0.0433500037 0.0500000045 0.11500001
v 0.04337755 0.0503002442 0.105000004
v 0.04337755 0.0503002442 0.11500001
v 0.0433862768 0.0503440872 0.110000007
v 0.04346585 0.05060736 0.105000004
v 0.04346585 0.05060736 0.11500001
v 0.04346585 0.05060736 0.110000007
v 0.0435931645 0.0508621559 0.110000007
v 0.04361896 0.0509028956 0.105000004
v 0.04361896 0.0509028956 0.11500001
v 0.0437663421 0.05109571 0.110000007
v 0.0438332781 0.05116673 0.105000004
v 0.0438332781 0.05116673 0.11500001
v 0.04397901 0.0512961857 0.110000007
v 0.0440971032 0.0513810478 0.105000004
v 0.0440971032 0.0513810478 0.11500001
v 0.04422105 0.0514545627 0.110000007
v 0.0443926454 0.0515341535 0.105000004
v 0.0443926454 0.0515341535 0.11500001
v 0.04448008 0.0515659451 0.110000007
v 0.044699762 0.0516224578 0.105000004
v 0.044699762 0.0516224578 0.11500001
v 0.04474346 0.0516299345 0.110000007
v 0.045 0.05165 0.105000004
v 0.045 0.05165 0.11500001
v 0.0150000006 0.05165 0.11500001
v 0.0150000006 0.05165 0.1075
v 0.01530024 0.0516224578 0.1075
v 0.0153440842 0.05161373 0.11125
v 0.01530024 0.0516224578 0.11500001
v 0.0156073561 0.0515341535 0.1075
v 0.0156073561 0.0515341535 0.11500001
v 0.0156938583 0.0514970161 0.11125
v 0.0159028955 0.0513810478 0.1075
v 0.0159028955 0.0513810478 0.11500001
v 0.016020989 0.0512961857 0.11125
v 0.016166728 0.05116673 0.1075
v 0.016166728 0.05116673 0.11500001
v 0.0162961818 0.0510209948 0.11125
v 0.0163810439 0.0509028956 0.1075
v 0.0163810439 0.0509028956 0.11500001
v 0.0164970178 0.0506938621 0.11125
v 0.0165341515 0.05060736 0.1075
v 0.0165341515 0.05060736 0.11500001
v 0.0166137256 0.0503440872 0.11125
v 0.0166224539 0.0503002442 0.1075
v 0.01665 0.0500000045 0.11125
v 0.0166224539 0.0503002442 0.11500001
v 0.01665 0.0500000045 0.1075
v 0.01665 0.0500000045 0.11500001
v 0.0166224539 0.0496997647 0.1075
v 0.0166224539 0.0496997647 0.11500001
v 0.0166137256 0.04965592 0.11125
v 0.0165341515 0.049392648 0.1075
v 0.0165341515 0.049392648 0.11500001
v 0.0165341515 0.049392648 0.11125
v 0.0164068379 0.0491378456 0.11125
v 0.0163810439 0.0490971059 0.1075
v 0.0163810439 0.0490971059 0.11500001
v 0.016233664 0.0489043 0.11125
v 0.016166728 0.0488332734 0.1075
v 0.016166728 0.0488332734 0.11500001
v 0.016020989 0.04870382 0.11125
v 0.0159028955 0.0486189574 0.1075
v 0.0159028955 0.0486189574 0.11500001
v 0.0157789513 0.0485454462 0.11125
v 0.0156073561 0.048465848 0.1075
v 0.0156073561 0.048465848 0.11500001
v 0.0155199217 0.04843406 0.11125
v 0.01530024 0.04837755 0.1075
v 0.01530024 0.04837755 0.11500001
v 0.0152565436 0.048370067 0.11125
v 0.0150000006 0.0483500026 0.1075
v 0.0150000006 0.0483500026 0.11500001
v 0.0146997618 0.04837755 0.1075
v 0.014655917 0.0483862758 0.11125
v 0.0146997618 0.04837755 0.11500001
v 0.0143926451 0.048465848 0.1075
v 0.0143926451 0.048465848 0.11500001
v 0.0143061429 0.0485029854 0.11125
v 0.0140971048 0.0486189574 0.1075
v 0.0140971048 0.0486189574 0.11500001
v 0.0139790121 0.04870382 0.11125
v 0.0138332741 0.0488332734 0.1075
v 0.0138332741 0.0488332734 0.11500001
v 0.01370382 0.0489790142 0.11125
v 0.0136189582 0.0490971059 0.1075
v 0.0136189582 0.0490971059 0.11500001
v 0.0135029843 0.04930614 0.11125
v 0.01346585 0.049392648 0.1075
v 0.01346585 0.049392648 0.11500001
v 0.0133862766 0.04965592 0.11125
v 0.0133775463 0.0496997647 0.1075
v 0.0133500015 0.0500000045 0.11125
v 0.0133775463 0.0496997647 0.11500001
v 0.0133500015 0.0500000045 0.1075
v 0.0133500015 0.0500000045 0.11500001
v 0.0133775463 0.0503002442 0.1075
v 0.0133775463 0.0503002442 0.11500001
v 0.0133862766 0.0503440872 0.11125
v 0.01346585 0.05060736 0.1075
v 0.01346585 0.05060736 0.11500001
v 0.01346585 0.05060736 0.11125
v 0.0135931633 0.0508621559 0.11125
v 0.0136189582 0.0509028956 0.1075
v 0.0136189582 0.0509028956 0.11500001
v 0.0137663372 0.05109571 0.11125
v 0.0138332741 0.05116673 0.1075
v 0.0138332741 0.05116673 0.11500001
v 0.0139790121 0.0512961857 0.11125
v 0.0140971048 0.0513810478 0.1075
v 0.0140971048 0.0513810478 0.11500001
v 0.01422105 0.0514545627 0.11125
v 0.0143926451 0.0515341535 0.1075
v 0.0143926451 0.0515341535 0.11500001
v 0.01448008 0.0515659451 0.11125
v 0.0146997618 0.0516224578 0.1075
v 0.0146997618 0.0516224578 0.11500001
v 0.0147434585 0.0516299345 0.11125
v 0.0150000006 0.05165 0.1075
v 0.0150000006 0.05165 0.11500001
v -0.08500001 0.05165 0.11500001
v -0.08500001 0.05165 0.1075
v -0.0846997648 0.0516224578 0.1075
v -0.08465592 0.05161373 0.11125
v -0.0846997648 0.0516224578 0.11500001
v -0.0843926445 0.0515341535 0.1075
v -0.0843926445 0.0515341535 0.11500001
v -0.08430615 0.0514970161 0.11125
v -0.0840971 0.0513810478 0.1075
v -0.0840971 0.0513810478 0.11500001
v -0.0839790255 0.0512961857 0.11125
v -0.08383328 0.05116673 0.1075
v -0.08383328 0.05116673 0.11500001
v -0.08370383 0.0510209948 0.11125
v -0.0836189538 0.0509028956 0.1075
v -0.0836189538 0.0509028956 0.11500001
v -0.0835029855 0.0506938621 0.11125
v -0.08346586 0.05060736 0.1075
v -0.08346586 0.05060736 0.11500001
v -0.08338629 0.0503440872 0.11125
v -0.08337755 0.0503002442 0.1075
v -0.08335001 0.0500000045 0.11125
v -0.08337755 0.0503002442 0.11500001
v -0.08335001 0.0500000045 0.1075
v -0.08335001 0.0500000045 0.11500001
v -0.08337755 0.0496997647 0.1075
v -0.08337755 0.0496997647 0.11500001
v -0.08338629 0.04965592 0.11125
v -0.08346586 0.049392648 0.1075
v -0.08346586 0.049392648 0.11500001
v -0.08346586 0.049392648 0.11125
v -0.08359316 0.0491378456 0.11125
v -0.0836189538 0.0490971059 0.1075
v -0.0836189538 0.0490971059 0.11500001
v -0.08376634 0.0489043 0.11125
v -0.08383328 0.0488332734 0.1075
v -0.08383328 0.0488332734 0.11500001
v -0.0839790255 0.04870382 0.11125
v -0.0840971 0.0486189574 0.1075
v -0.0840971 0.0486189574 0.11500001
v -0.08422106 0.0485454462 0.11125
v -0.0843926445 0.048465848 0.1075
v -0.0843926445 0.048465848 0.11500001
v -0.0844800845 0.04843406 0.11125
v -0.0846997648 0.04837755 0.1075
v -0.0846997648 0.04837755 0.11500001
v -0.0847434551 0.048370067 0.11125
v -0.08500001 0.0483500026 0.1075
v -0.08500001 0.0483500026 0.11500001
v -0.0853002444 0.04837755 0.1075
v -0.08534409 0.0483862758 0.11125
v -0.0853002444 0.04837755 0.11500001
v -0.08560736 0.048465848 0.1075
v -0.08560736 0.048465848 0.11500001
v -0.08569386 0.0485029854 0.11125
v -0.0859029 0.0486189574 0.1075
v -0.0859029 0.0486189574 0.11500001
v -0.0860209838 0.04870382 0.11125
v -0.0861667246 0.0488332734 0.1075
v -0.0861667246 0.0488332734 0.11500001
v -0.0862961859 0.0489790142 0.11125
v -0.08638105 0.0490971059 0.1075
v -0.08638105 0.0490971059 0.11500001
v -0.08649702 0.04930614 0.11125
v -0.08653416 0.049392648 0.1075
v -0.08653416 0.049392648 0.11500001
v -0.08661373 0.04965592 0.11125
v -0.08662246 0.0496997647 0.1075
v -0.08665 0.0500000045 0.11125
v -0.08662246 0.0496997647 0.11500001
v -0.08665 0.0500000045 0.1075
v -0.08665 0.0500000045 0.11500001
v -0.08662246 0.0503002442 0.1075
v -0.08662246 0.0503002442 0.11500001
v -0.08661373 0.0503440872 0.11125
v -0.08653416 0.05060736 0.1075
v -0.08653416 0.05060736 0.11500001
v -0.08653416 0.05060736 0.11125
v -0.08640684 0.0508621559 0.11125
v -0.08638105 0.0509028956 0.1075
v -0.08638105 0.0509028956 0.11500001
v -0.0862336755 0.05109571 0.11125
v -0.0861667246 0.05116673 0.1075
v -0.0861667246 0.05116673 0.11500001
v -0.0860209838 0.0512961857 0.11125
v -0.0859029 0.0513810478 0.1075
v -0.0859029 0.0513810478 0.11500001
v -0.08577895 0.0514545627 0.11125
v -0.08560736 0.0515341535 0.1075
v -0.08560736 0.0515341535 0.11500001
v -0.0855199248 0.0515659451 0.11125
v -0.0853002444 0.0516224578 0.1075
v -0.0853002444 0.0516224578 0.11500001
v -0.0852565542 0.0516299345 0.11125
v -0.08500001 0.05165 0.1075
v -0.08500001 0.05165 0.11500001
v 0.093492426 0.051350005 0.110000007
v 0.08349243 0.051350005 0.110000007
v 0.08349243 0.0513274632 0.109754354
v 0.08849242 0.05132032 0.109718479
v 0.093492426 0.0513274632 0.109754354
v 0.08349243 0.05125521 0.109503075
v 0.093492426 0.05125521 0.109503075
v 0.08849242 0.0512248352 0.1094323
v 0.08349243 0.0511299446 0.109261274
v 0.093492426 0.0511299446 0.109261274
v 0.08849242 0.05106051 0.109164648
v 0.08349243 0.0509545952 0.109045416
v 0.093492426 0.0509545952 0.109045416
v 0.08849242 0.0508353524 0.108939491
v 0.08349243 0.050738737 0.108870059
v 0.093492426 0.050738737 0.108870059
v 0.08849242 0.0505677052 0.108775169
v 0.08349243 0.05049693 0.108744793
v 0.093492426 0.05049693 0.108744793
v 0.08849242 0.05028153 0.108679682
v 0.08349243 0.0502456538 0.108672537
v 0.08849242 0.0500000045 0.10865
v 0.093492426 0.0502456538 0.108672537
v 0.08349243 0.0500000045 0.10865
v 0.093492426 0.0500000045 0.10865
v 0.08349243 0.0497543477 0.108672537
v 0.093492426 0.0497543477 0.108672537
v 0.08849242 0.0497184768 0.108679682
v 0.08349243 0.0495030768 0.108744793
v 0.093492426 0.0495030768 0.108744793
v 0.08849242 0.0495030768 0.108744793
v 0.08849242 0.0492946021 0.108848959
v 0.08349243 0.04926127 0.108870059
v 0.093492426 0.04926127 0.108870059
v 0.08849242 0.0491035171 0.108990639
v 0.08349243 0.0490454063 0.109045416
v 0.093492426 0.0490454063 0.109045416
v 0.08849242 0.0489394926 0.109164648
v 0.08349243 0.0488700643 0.109261274
v 0.093492426 0.0488700643 0.109261274
v 0.08849242 0.0488099121 0.109362684
v 0.08349243 0.04874479 0.109503075
v 0.093492426 0.04874479 0.109503075
v 0.08849242 0.0487187728 0.109574616
v 0.08349243 0.04867254 0.109754354
v 0.093492426 0.04867254 0.109754354
v 0.08849242 0.0486664176 0.1097901
v 0.08349243 0.04865 0.110000007
v 0.093492426 0.04865 0.110000007
v 0.08349243 0.04867254 0.110245652
v 0.08849242 0.04867968 0.110281527
v 0.093492426 0.04867254 0.110245652
v 0.08349243 0.04874479 0.110496938
v 0.093492426 0.04874479 0.110496938
v 0.08849242 0.04877517 0.110567704
v 0.08349243 0.0488700643 0.110738739
v 0.093492426 0.0488700643 0.110738739
v 0.08849242 0.0489394926 0.110835359
v 0.08349243 0.0490454063 0.1109546
v 0.093492426 0.0490454063 0.1109546
v 0.08849242 0.04916465 0.111060522
v 0.08349243 0.04926127 0.111129947
v 0.093492426 0.04926127 0.111129947
v 0.08849242 0.0494322963 0.111224838
v 0.08349243 0.0495030768 0.111255214
v 0.093492426 0.0495030768 0.111255214
v 0.08849242 0.0497184768 0.111320324
v 0.08349243 0.0497543477 0.111327469
v 0.08849242 0.0500000045 0.111350007
v 0.093492426 0.0497543477 0.111327469
v 0.08349243 0.0500000045 0.111350007
v 0.093492426 0.0500000045 0.111350007
v 0.08349243 0.0502456538 0.111327469
v 0.093492426 0.0502456538 0.111327469
v 0.08849242 0.05028153 0.111320324
v 0.08349243 0.05049693 0.111255214
v 0.093492426 0.05049693 0.111255214
v 0.08849242 0.05049693 0.111255214
v 0.08849242 0.0507054031 0.111151047
v 0.08349243 0.050738737 0.111129947
v 0.093492426 0.050738737 0.111129947
v 0.08849242 0.0508964881 0.111009367
v 0.08349243 0.0509545952 0.1109546
v 0.093492426 0.0509545952 0.1109546
v 0.08849242 0.05106051 0.110835359
v 0.08349243 0.0511299446 0.110738739
v 0.093492426 0.0511299446 0.110738739
v 0.08849242 0.0511900932 0.11063733
v 0.08349243 0.05125521 0.110496938
v 0.093492426 0.05125521 0.110496938
v 0.08849242 0.05128123 0.11042539
v 0.08349243 0.0513274632 0.110245652
v 0.093492426 0.0513274632 0.110245652
v 0.08849242 0.0513335876 0.110209912
v 0.08349243 0.051350005 0.110000007
v 0.093492426 0.051350005 0.110000007
v -0.09999959 0.04865 0.110000007
v -0.08999959 0.04865 0.110000007
v -0.08999959 0.04867254 0.109754354
v -0.09499959 0.04867968 0.109718479
v -0.09999959 0.04867254 0.109754354
v -0.08999959 0.04874479 0.109503075
v -0.09999959 0.04874479 0.109503075
v -0.09499959 0.04877517 0.1094323
v -0.08999959 0.0488700643 0.109261274
v -0.09999959 0.0488700643 0.109261274
v -0.09499959 0.0489394926 0.109164648
v -0.08999959 0.0490454063 0.109045416
v -0.09999959 0.0490454063 0.109045416
v -0.09499959 0.04916465 0.108939491
v -0.08999959 0.04926127 0.108870059
v -0.09999959 0.04926127 0.108870059
v -0.09499959 0.0494322963 0.108775169
v -0.08999959 0.0495030768 0.108744793
v -0.09999959 0.0495030768 0.108744793
v -0.09499959 0.0497184768 0.108679682
v -0.08999959 0.0497543477 0.108672537
v -0.09499959 0.0500000045 0.10865
v -0.09999959 0.0497543477 0.108672537
v -0.08999959 0.0500000045 0.10865
v -0.09999959 0.0500000045 0.10865
v -0.08999959 0.0502456538 0.108672537
v -0.09999959 0.0502456538 0.108672537
v -0.09499959 0.05028153 0.108679682
v -0.08999959 0.05049693 0.108744793
v -0.09999959 0.05049693 0.108744793
v -0.09499959 0.05049693 0.108744793
v -0.09499959 0.0507054031 0.108848959
v -0.08999959 0.050738737 0.108870059
v -0.09999959 0.050738737 0.108870059
v -0.09499959 0.0508964881 0.108990639
v -0.08999959 0.0509545952 0.109045416
v -0.09999959 0.0509545952 0.109045416
v -0.09499959 0.05106051 0.109164648
v -0.08999959 0.0511299446 0.109261274
v -0.09999959 0.0511299446 0.109261274
v -0.09499959 0.0511900932 0.109362684
v -0.08999959 0.05125521 0.109503075
v -0.09999959 0.05125521 0.109503075
v -0.09499959 0.05128123 0.109574616
v -0.08999959 0.0513274632 0.109754354
v -0.09999959 0.0513274632 0.109754354
v -0.09499959 0.0513335876 0.1097901
v -0.08999959 0.051350005 0.110000007
v -0.09999959 0.051350005 0.110000007
v -0.08999959 0.0513274632 0.110245652
v -0.09499959 0.05132032 0.110281527
v -0.09999959 0.0513274632 0.110245652
v -0.08999959 0.05125521 0.110496938
v -0.09999959 0.05125521 0.110496938
v -0.09499959 0.0512248352 0.110567704
v -0.08999959 0.0511299446 0.110738739
v -0.09999959 0.0511299446 0.110738739
v -0.09499959 0.05106051 0.110835359
v -0.08999959 0.0509545952 0.1109546
v -0.09999959 0.0509545952 0.1109546
v -0.09499959 0.0508353524 0.111060522
v -0.08999959 0.050738737 0.111129947
v -0.09999959 0.050738737 0.111129947
v -0.09499959 0.0505677052 0.111224838
v -0.08999959 0.05049693 0.111255214
v -0.09999959 0.05049693 0.111255214
v -0.09499959 0.05028153 0.111320324
v -0.08999959 0.0502456538 0.111327469
v -0.09499959 0.0500000045 0.111350007
v -0.09999959 0.0502456538 0.111327469
v -0.08999959 0.0500000045 0.111350007
v -0.09999959 0.0500000045 0.111350007
v -0.08999959 0.0497543477 0.111327469
v -0.09999959 0.0497543477 0.111327469
v -0.09499959 0.0497184768 0.111320324
v -0.08999959 0.0495030768 0.111255214
v -0.09999959 0.0495030768 0.111255214
v -0.09499959 0.0495030768 0.111255214
v -0.09499959 0.0492946021 0.111151047
v -0.08999959 0.04926127 0.111129947
v -0.09999959 0.04926127 0.111129947
v -0.09499959 0.0491035171 0.111009367
v -0.08999959 0.0490454063 0.1109546
v -0.09999959 0.0490454063 0.1109546
v -0.09499959 0.0489394926 0.110835359
v -0.08999959 0.0488700643 0.110738739
v -0.09999959 0.0488700643 0.110738739
v -0.09499959 0.0488099121 0.11063733
v -0.08999959 0.04874479 0.110496938
v -0.09999959 0.04874479 0.110496938
v -0.09499959 0.0487187728 0.11042539
v -0.08999959 0.04867254 0.110245652
v -0.09999959 0.04867254 0.110245652
v -0.09499959 0.0486664176 0.110209912
v -0.08999959 0.04865 0.110000007
v -0.09999959 0.04865 0.110000007
v -0.08999959 0.0511299446 0.109261274
v -0.08999959 0.0500000045 0.110000007
v -0.08999959 0.05125521 0.109503075
v -0.08999959 0.0509545952 0.109045416
v -0.08999959 0.0513274632 0.109754354
v -0.08999959 0.050738737 0.108870059
v -0.08999959 0.051350005 0.110000007
v -0.08999959 0.05049693 0.108744793
v -0.08999959 0.0513274632 0.110245652
v -0.08999959 0.0502456538 0.108672537
v -0.08999959 0.05125521 0.110496938
v -0.08999959 0.0500000045 0.10865
v -0.08999959 0.0511299446 0.110738739
v -0.08999959 0.0497543477 0.108672537
v -0.08999959 0.0509545952 0.1109546
v -0.08999959 0.0495030768 0.108744793
v -0.08999959 0.050738737 0.111129947
v -0.08999959 0.04926127 0.108870059
v -0.08999959 0.05049693 0.111255214
v -0.08999959 0.0490454063 0.109045416
v -0.08999959 0.0502456538 0.111327469
v -0.08999959 0.0488700643 0.109261274
v -0.08999959 0.0500000045 0.111350007
v -0.08999959 0.04874479 0.109503075
v -0.08999959 0.0497543477 0.111327469
v -0.08999959 0.04867254 0.109754354
v -0.08999959 0.0495030768 0.111255214
v -0.08999959 0.04865 0.110000007
v -0.08999959 0.04926127 0.111129947
v -0.08999959 0.04867254 0.110245652
v -0.08999959 0.0490454063 0.1109546
v -0.08999959 0.04874479 0.110496938
v -0.08999959 0.0488700643 0.110738739
v 0.08349243 0.0488700643 0.109261274
v 0.08349243 0.0500000045 0.110000007
v 0.08349243 0.04874479 0.109503075
v 0.08349243 0.0490454063 0.109045416
v 0.08349243 0.04867254 0.109754354
v 0.08349243 0.04926127 0.108870059
v 0.08349243 0.04865 0.110000007
v 0.08349243 0.0495030768 0.108744793
v 0.08349243 0.04867254 0.110245652
v 0.08349243 0.0497543477 0.108672537
v 0.08349243 0.04874479 0.110496938
v 0.08349243 0.0500000045 0.10865
v 0.08349243 0.0488700643 0.110738739
v 0.08349243 0.0502456538 0.108672537
v 0.08349243 0.0490454063 0.1109546
v 0.08349243 0.05049693 0.108744793
v 0.08349243 0.04926127 0.111129947
v 0.08349243 0.050738737 0.108870059
v 0.08349243 0.0495030768 0.111255214
v 0.08349243 0.0509545952 0.109045416
v 0.08349243 0.0497543477 0.111327469
v 0.08349243 0.0511299446 0.109261274
v 0.08349243 0.0500000045 0.111350007
v 0.08349243 0.05125521 0.109503075
v 0.08349243 0.0502456538 0.111327469
v 0.08349243 0.0513274632 0.109754354
v 0.08349243 0.05049693 0.111255214
v 0.08349243 0.051350005 0.110000007
v 0.08349243 0.050738737 0.111129947
v 0.08349243 0.0513274632 0.110245652
v 0.08349243 0.0509545952 0.1109546
v 0.08349243 0.05125521 0.110496938
v 0.08349243 0.0511299446 0.110738739
v -0.09999959 0.0545 0.1145
v -0.09999959 0.0513274632 0.110245652
v -0.09999959 0.05125521 0.110496938
v -0.09999959 0.0511299446 0.110738739
v -0.09999959 0.0509545952 0.1109546
v -0.09999959 0.050738737 0.111129947
v -0.09999959 0.05049693 0.111255214
v -0.09999959 0.0502456538 0.111327469
v -0.09999959 0.051350005 0.110000007
v -0.09999959 0.0500000045 0.111350007
v -0.09999959 0.0545 0.105500005
v -0.09999959 0.0513274632 0.109754354
v -0.09999959 0.05125521 0.109503075
v -0.09999959 0.0455000028 0.1145
v -0.09999959 0.0497543477 0.111327469
v -0.09999959 0.0495030768 0.111255214
v -0.09999959 0.0511299446 0.109261274
v -0.09999959 0.04926127 0.111129947
v -0.09999959 0.0509545952 0.109045416
v -0.09999959 0.0490454063 0.1109546
v -0.09999959 0.050738737 0.108870059
v -0.09999959 0.0488700643 0.110738739
v -0.09999959 0.05049693 0.108744793
v -0.09999959 0.0502456538 0.108672537
v -0.09999959 0.0500000045 0.10865
v -0.09999959 0.0455000028 0.105500005
v -0.09999959 0.0497543477 0.108672537
v -0.09999959 0.0495030768 0.108744793
v -0.09999959 0.04874479 0.110496938
v -0.09999959 0.04867254 0.110245652
v -0.09999959 0.04865 0.110000007
v -0.09999959 0.04926127 0.108870059
v -0.09999959 0.04867254 0.109754354
v -0.09999959 0.0490454063 0.109045416
v -0.09999959 0.04874479 0.109503075
v -0.09999959 0.0488700643 0.109261274
v -0.09949958 0.0545 0.11500001
v -0.08662246 0.0503002442 0.11500001
v -0.08653416 0.05060736 0.11500001
v -0.08638105 0.0509028956 0.11500001
v -0.0861667246 0.05116673 0.11500001
v -0.0859029 0.0513810478 0.11500001
v -0.08560736 0.0515341535 0.11500001
v -0.0853002444 0.0516224578 0.11500001
v -0.08665 0.0500000045 0.11500001
v -0.08500001 0.05165 0.11500001
v -0.09949958 0.0455000028 0.11500001
v -0.08662246 0.0496997647 0.11500001
v -0.08653416 0.049392648 0.11500001
v -0.08638105 0.0490971059 0.11500001
v -0.0861667246 0.0488332734 0.11500001
v -0.0859029 0.0486189574 0.11500001
v -0.08560736 0.048465848 0.11500001
v -0.0853002444 0.04837755 0.11500001
v -0.08500001 0.0483500026 0.11500001
v 0.0150000006 0.0483500026 0.11500001
v -0.0846997648 0.04837755 0.11500001
v 0.092992425 0.0455000028 0.11500001
v 0.0146997618 0.04837755 0.11500001
v -0.0843926445 0.048465848 0.11500001
v 0.0143926451 0.048465848 0.11500001
v -0.00325357588 0.0500000045 0.11500001
v -0.0840971 0.0486189574 0.11500001
v 0.0140971048 0.0486189574 0.11500001
v -0.08383328 0.0488332734 0.11500001
v 0.0138332741 0.0488332734 0.11500001
v -0.0836189538 0.0490971059 0.11500001
v 0.0136189582 0.0490971059 0.11500001
v -0.08346586 0.049392648 0.11500001
v 0.01346585 0.049392648 0.11500001
v -0.08337755 0.0496997647 0.11500001
v 0.0133775463 0.0496997647 0.11500001
v -0.08335001 0.0500000045 0.11500001
v 0.0133500015 0.0500000045 0.11500001
v -0.08337755 0.0503002442 0.11500001
v 0.0133775463 0.0503002442 0.11500001
v -0.08346586 0.05060736 0.11500001
v 0.01346585 0.05060736 0.11500001
v -0.0836189538 0.0509028956 0.11500001
v 0.0136189582 0.0509028956 0.11500001
v -0.08383328 0.05116673 0.11500001
v 0.0138332741 0.05116673 0.11500001
v -0.0840971 0.0513810478 0.11500001
v 0.0140971048 0.0513810478 0.11500001
v -0.0843926445 0.0515341535 0.11500001
v 0.0143926451 0.0515341535 0.11500001
v -0.0846997648 0.0516224578 0.11500001
v 0.0146997618 0.0516224578 0.11500001
v 0.0150000006 0.05165 0.11500001
v 0.092992425 0.0545 0.11500001
v 0.0300000012 0.05165 0.11500001
v 0.01530024 0.0516224578 0.11500001
v 0.0296997633 0.0516224578 0.11500001
v 0.0156073561 0.0515341535 0.11500001
v 0.0293926448 0.0515341535 0.11500001
v 0.0159028955 0.0513810478 0.11500001
v 0.0290971063 0.0513810478 0.11500001
v 0.016166728 0.05116673 0.11500001
v 0.0288332775 0.05116673 0.11500001
v 0.0163810439 0.0509028956 0.11500001
v 0.0286189578 0.0509028956 0.11500001
v 0.0165341515 0.05060736 0.11500001
v 0.0284658521 0.05060736 0.11500001
v 0.0166224539 0.0503002442 0.11500001
v 0.0283775479 0.0503002442 0.11500001
v 0.01665 0.0500000045 0.11500001
v 0.0283500012 0.0500000045 0.11500001
v 0.0283775479 0.0496997647 0.11500001
v 0.0166224539 0.0496997647 0.11500001
v 0.0284658521 0.049392648 0.11500001
v 0.0165341515 0.049392648 0.11500001
v 0.0286189578 0.0490971059 0.11500001
v 0.0163810439 0.0490971059 0.11500001
v 0.0288332775 0.0488332734 0.11500001
v 0.016166728 0.0488332734 0.11500001
v 0.0290971063 0.0486189574 0.11500001
v 0.0159028955 0.0486189574 0.11500001
v 0.0293926448 0.048465848 0.11500001
v 0.0156073561 0.048465848 0.11500001
v 0.0296997633 0.04837755 0.11500001
v 0.01530024 0.04837755 0.11500001
v 0.0300000012 0.0483500026 0.11500001
v 0.045 0.0483500026 0.11500001
v 0.04530024 0.04837755 0.11500001
v 0.04560736 0.048465848 0.11500001
v 0.030300241 0.04837755 0.11500001
v 0.044699762 0.04837755 0.11500001
v 0.0306073576 0.048465848 0.11500001
v 0.0443926454 0.048465848 0.11500001
v 0.0309028961 0.0486189574 0.11500001
v 0.0440971032 0.0486189574 0.11500001
v 0.0311667267 0.0488332734 0.11500001
v 0.0438332781 0.0488332734 0.11500001
v 0.0313810445 0.0490971059 0.11500001
v 0.04361896 0.0490971059 0.11500001
v 0.03153415 0.049392648 0.11500001
v 0.04346585 0.049392648 0.11500001
v 0.0316224545 0.0496997647 0.11500001
v 0.04337755 0.0496997647 0.11500001
v 0.03165 0.0500000045 0.11500001
v 0.0433500037 0.0500000045 0.11500001
v 0.04337755 0.0503002442 0.11500001
v 0.0316224545 0.0503002442 0.11500001
v 0.04346585 0.05060736 0.11500001
v 0.03153415 0.05060736 0.11500001
v 0.04361896 0.0509028956 0.11500001
v 0.0313810445 0.0509028956 0.11500001
v 0.0438332781 0.05116673 0.11500001
v 0.0311667267 0.05116673 0.11500001
v 0.0440971032 0.0513810478 0.11500001
v 0.0309028961 0.0513810478 0.11500001
v 0.0443926454 0.0515341535 0.11500001
v 0.0306073576 0.0515341535 0.11500001
v 0.044699762 0.0516224578 0.11500001
v 0.030300241 0.0516224578 0.11500001
v 0.045 0.05165 0.11500001
v 0.04530024 0.0516224578 0.11500001
v 0.04560736 0.0515341535 0.11500001
v 0.0459028967 0.0513810478 0.11500001
v 0.0461667255 0.05116673 0.11500001
v 0.04638105 0.0509028956 0.11500001
v 0.04653416 0.05060736 0.11500001
v 0.0466224551 0.0503002442 0.11500001
v 0.0466500036 0.0500000045 0.11500001
v 0.0466224551 0.0496997647 0.11500001
v 0.04653416 0.049392648 0.11500001
v 0.04638105 0.0490971059 0.11500001
v 0.0461667255 0.0488332734 0.11500001
v 0.0459028967 0.0486189574 0.11500001
v 0.092992425 0.0455000028 0.105000004
v 0.04530024 0.04837755 0.105000004
v 0.04560736 0.048465848 0.105000004
v 0.0459028967 0.0486189574 0.105000004
v 0.0461667255 0.0488332734 0.105000004
v 0.04638105 0.0490971059 0.105000004
v 0.04653416 0.049392648 0.105000004
v 0.0466224551 0.0496997647 0.105000004
v 0.0466500036 0.0500000045 0.105000004
v 0.045 0.0483500026 0.105000004
v 0.092992425 0.0545 0.105000004
v 0.0466224551 0.0503002442 0.105000004
v 0.04653416 0.05060736 0.105000004
v 0.04638105 0.0509028956 0.105000004
v 0.0461667255 0.05116673 0.105000004
v 0.0459028967 0.0513810478 0.105000004
v 0.04560736 0.0515341535 0.105000004
v 0.04530024 0.0516224578 0.105000004
v 0.045 0.05165 0.105000004
v 0.0150000006 0.0467668436 0.105000004
v -0.09949958 0.0455000028 0.105000004
v 0.0150000006 0.0532331653 0.105000004
v -0.09949958 0.0545 0.105000004
v -0.0877999961 0.051616583 0.105000004
v -0.0877999961 0.04838342 0.105000004
v -0.08500001 0.0532331653 0.105000004
v -0.08500001 0.0467668436 0.105000004
v -0.0822000057 0.051616583 0.105000004
v 0.0122000007 0.04838342 0.105000004
v -0.0822000057 0.04838342 0.105000004
v -0.00325357588 0.0500000045 0.105000004
v 0.0122000007 0.051616583 0.105000004
v 0.0300000012 0.05165 0.105000004
v 0.0178 0.051616583 0.105000004
v 0.0296997633 0.0516224578 0.105000004
v 0.0293926448 0.0515341535 0.105000004
v 0.030300241 0.0516224578 0.105000004
v 0.044699762 0.0516224578 0.105000004
v 0.0306073576 0.0515341535 0.105000004
v 0.0443926454 0.0515341535 0.105000004
v 0.0309028961 0.0513810478 0.105000004
v 0.0440971032 0.0513810478 0.105000004
v 0.0311667267 0.05116673 0.105000004
v 0.0438332781 0.05116673 0.105000004
v 0.0313810445 0.0509028956 0.105000004
v 0.04361896 0.0509028956 0.105000004
v 0.03153415 0.05060736 0.105000004
v 0.04346585 0.05060736 0.105000004
v 0.0316224545 0.0503002442 0.105000004
v 0.04337755 0.0503002442 0.105000004
v 0.03165 0.0500000045 0.105000004
v 0.0433500037 0.0500000045 0.105000004
v 0.04337755 0.0496997647 0.105000004
v 0.0316224545 0.0496997647 0.105000004
v 0.04346585 0.049392648 0.105000004
v 0.03153415 0.049392648 0.105000004
v 0.04361896 0.0490971059 0.105000004
v 0.0313810445 0.0490971059 0.105000004
v 0.0438332781 0.0488332734 0.105000004
v 0.0311667267 0.0488332734 0.105000004
v 0.0440971032 0.0486189574 0.105000004
v 0.0309028961 0.0486189574 0.105000004
v 0.0443926454 0.048465848 0.105000004
v 0.0306073576 0.048465848 0.105000004
v 0.044699762 0.04837755 0.105000004
v 0.030300241 0.04837755 0.105000004
v 0.0300000012 0.0483500026 0.105000004
v 0.0178 0.04838342 0.105000004
v 0.0296997633 0.04837755 0.105000004
v 0.0293926448 0.048465848 0.105000004
v 0.0290971063 0.0486189574 0.105000004
v 0.0288332775 0.0488332734 0.105000004
v 0.0286189578 0.0490971059 0.105000004
v 0.0284658521 0.049392648 0.105000004
v 0.0283775479 0.0496997647 0.105000004
v 0.0283500012 0.0500000045 0.105000004
v 0.0283775479 0.0503002442 0.105000004
v 0.0284658521 0.05060736 0.105000004
v 0.0286189578 0.0509028956 0.105000004
v 0.0288332775 0.05116673 0.105000004
v 0.0290971063 0.0513810478 0.105000004
v 0.093492426 0.0455000028 0.1145
v 0.093492426 0.04867254 0.110245652
v 0.093492426 0.04874479 0.110496938
v 0.093492426 0.0488700643 0.110738739
v 0.093492426 0.0490454063 0.1109546
v 0.093492426 0.04926127 0.111129947
v 0.093492426 0.0495030768 0.111255214
v 0.093492426 0.0497543477 0.111327469
v 0.093492426 0.04865 0.110000007
v 0.093492426 0.0500000045 0.111350007
v 0.093492426 0.0455000028 0.105500005
v 0.093492426 0.04867254 0.109754354
v 0.093492426 0.04874479 0.109503075
v 0.093492426 0.0545 0.1145
v 0.093492426 0.0502456538 0.111327469
v 0.093492426 0.05049693 0.111255214
v 0.093492426 0.0488700643 0.109261274
v 0.093492426 0.050738737 0.111129947
v 0.093492426 0.0490454063 0.109045416
v 0.093492426 0.0509545952 0.1109546
v 0.093492426 0.04926127 0.108870059
v 0.093492426 0.0511299446 0.110738739
v 0.093492426 0.0495030768 0.108744793
v 0.093492426 0.0497543477 0.108672537
v 0.093492426 0.0500000045 0.10865
v 0.093492426 0.0545 0.105500005
v 0.093492426 0.0502456538 0.108672537
v 0.093492426 0.05049693 0.108744793
v 0.093492426 0.05125521 0.110496938
v 0.093492426 0.0513274632 0.110245652
v 0.093492426 0.051350005 0.110000007
v 0.093492426 0.050738737 0.108870059
v 0.093492426 0.0513274632 0.109754354
v 0.093492426 0.0509545952 0.109045416
v 0.093492426 0.05125521 0.109503075
v 0.093492426 0.0511299446 0.109261274
v -0.00325357588 0.0550000034 0.110000007
v -0.05969976 0.0550000034 0.108377554
v -0.059392646 0.0550000034 0.108465858
v -0.0590971075 0.0550000034 0.10861896
v -0.05883328 0.0550000034 0.108833276
v -0.0586189553 0.0550000034 0.1090971
v -0.0584658533 0.0550000034 0.109392643
v -0.05837755 0.0550000034 0.109699771
v -0.0583500043 0.0550000034 0.110000007
v -0.05837755 0.0550000034 0.110300243
v -0.0584658533 0.0550000034 0.110607363
v -0.0586189553 0.0550000034 0.110902905
v -0.05883328 0.0550000034 0.111166731
v -0.0590971075 0.0550000034 0.111381046
v -0.059392646 0.0550000034 0.111534148
v -0.05969976 0.0550000034 0.111622468
v -0.0600000024 0.0550000034 0.10835
v -0.0600000024 0.0550000034 0.111650005
v 0.092992425 0.0550000034 0.105500005
v 0.092992425 0.0550000034 0.1145
v -0.09949958 0.0550000034 0.105500005
v -0.09949958 0.0550000034 0.1145
v -0.0816500038 0.0550000034 0.110000007
v -0.08162246 0.0550000034 0.110300243
v -0.0815341547 0.0550000034 0.110607363
v -0.08162246 0.0550000034 0.109699771
v -0.0815341547 0.0550000034 0.109392643
v -0.08138105 0.0550000034 0.110902905
v -0.08138105 0.0550000034 0.1090971
v -0.08116673 0.0550000034 0.111166731
v -0.08116673 0.0550000034 0.108833276
v -0.0809029043 0.0550000034 0.111381046
v -0.0809029043 0.0550000034 0.10861896
v -0.0806073546 0.0550000034 0.111534148
v -0.08030024 0.0550000034 0.111622468
v -0.0800000057 0.0550000034 0.111650005
v -0.07969976 0.0550000034 0.111622468
v -0.0603002459 0.0550000034 0.111622468
v -0.07939265 0.0550000034 0.111534148
v -0.06060736 0.0550000034 0.111534148
v -0.07909711 0.0550000034 0.111381046
v -0.0609029 0.0550000034 0.111381046
v -0.07883328 0.0550000034 0.111166731
v -0.06116673 0.0550000034 0.111166731
v -0.07861896 0.0550000034 0.110902905
v -0.06138105 0.0550000034 0.110902905
v -0.07846586 0.0550000034 0.110607363
v -0.0615341552 0.0550000034 0.110607363
v -0.0783775449 0.0550000034 0.110300243
v -0.0616224557 0.0550000034 0.110300243
v -0.07835001 0.0550000034 0.110000007
v -0.06165 0.0550000034 0.110000007
v -0.0616224557 0.0550000034 0.109699771
v -0.0783775449 0.0550000034 0.109699771
v -0.0615341552 0.0550000034 0.109392643
v -0.07846586 0.0550000034 0.109392643
v -0.06138105 0.0550000034 0.1090971
v -0.07861896 0.0550000034 0.1090971
v -0.06116673 0.0550000034 0.108833276
v -0.07883328 0.0550000034 0.108833276
v -0.0609029 0.0550000034 0.10861896
v -0.07909711 0.0550000034 0.10861896
v -0.06060736 0.0550000034 0.108465858
v -0.07939265 0.0550000034 0.108465858
v -0.0603002459 0.0550000034 0.108377554
v -0.07969976 0.0550000034 0.108377554
v -0.0800000057 0.0550000034 0.10835
v -0.08030024 0.0550000034 0.108377554
v -0.0806073546 0.0550000034 0.108465858
v -0.07841229 0.045 0.11275
v -0.09949958 0.045 0.1145
v -0.0815877244 0.045 0.11275
v -0.0831754357 0.045 0.110000007
v -0.06158772 0.045 0.11275
v -0.07682458 0.045 0.110000007
v -0.0631754249 0.045 0.110000007
v -0.06158772 0.045 0.107250005
v -0.07841229 0.045 0.107250005
v -0.0584122874 0.045 0.11275
v -0.09949958 0.045 0.105500005
v -0.0815877244 0.045 0.107250005
v -0.0584122874 0.045 0.107250005
v 0.092992425 0.045 0.1145
v 0.092992425 0.045 0.105500005
v -0.00325357588 0.045 0.110000007
v -0.0568245761 0.045 0.110000007
v -0.09974958 0.0452500023 0.110000007
v -0.09999959 0.0455000028 0.1145
v -0.09999959 0.0455000028 0.105500005
v -0.09949958 0.045 0.105500005
v -0.09949958 0.045 0.1145
v -0.00325357588 0.0452500023 0.114750005
v 0.092992425 0.0455000028 0.11500001
v -0.09949958 0.0455000028 0.11500001
v -0.09949958 0.045 0.1145
v 0.092992425 0.045 0.1145
v -0.09974958 0.0500000045 0.114750005
v -0.09999959 0.0545 0.1145
v -0.09999959 0.0455000028 0.1145
v -0.09949958 0.0455000028 0.11500001
v -0.09949958 0.0545 0.11500001
v -0.00325357588 0.0452500023 0.10525
v 0.092992425 0.045 0.105500005
v -0.09949958 0.045 0.105500005
v -0.09949958 0.0455000028 0.105000004
v 0.092992425 0.0455000028 0.105000004
v -0.09974958 0.0500000045 0.10525
v -0.09999959 0.0455000028 0.105500005
v -0.09999959 0.0545 0.105500005
v -0.09949958 0.0545 0.105000004
v -0.09949958 0.0455000028 0.105000004
v -0.09974958 0.05475 0.110000007
v -0.09999959 0.0545 0.105500005
v -0.09999959 0.0545 0.1145
v -0.09949958 0.0550000034 0.1145
v -0.09949958 0.0550000034 0.105500005
v -0.00325357588 0.05475 0.114750005
v 0.092992425 0.0550000034 0.1145
v -0.09949958 0.0550000034 0.1145
v -0.09949958 0.0545 0.11500001
v 0.092992425 0.0545 0.11500001
v 0.09324244 0.0500000045 0.114750005
v 0.092992425 0.0545 0.11500001
v 0.092992425 0.0455000028 0.11500001
v 0.093492426 0.0455000028 0.1145
v 0.093492426 0.0545 0.1145
v 0.09324244 0.0500000045 0.10525
v 0.092992425 0.0455000028 0.105000004
v 0.092992425 0.0545 0.105000004
v 0.093492426 0.0545 0.105500005
v 0.093492426 0.0455000028 0.105500005
v -0.00325357588 0.05475 0.10525
v 0.092992425 0.0545 0.105000004
v -0.09949958 0.0545 0.105000004
v -0.09949958 0.0550000034 0.105500005
v 0.092992425 0.0550000034 0.105500005
v 0.09324244 0.05475 0.110000007
v 0.092992425 0.0550000034 0.105500005
v 0.092992425 0.0550000034 0.1145
v 0.093492426 0.0545 0.1145
v 0.093492426 0.0545 0.105500005
v 0.09324244 0.0452500023 0.110000007
v 0.092992425 0.045 0.1145
v 0.092992425 0.045 0.105500005
v 0.093492426 0.0455000028 0.105500005
v 0.093492426 0.0455000028 0.1145
v -0.0853002444 0.0516224578 0.1075
v -0.08500001 0.0532331653 0.1075
v -0.08500001 0.05165 0.1075
v -0.08560736 0.0515341535 0.1075
v -0.0846997648 0.0516224578 0.1075
v -0.0843926445 0.0515341535 0.1075
v -0.0859029 0.0513810478 0.1075
v -0.0840971 0.0513810478 0.1075
v -0.0877999961 0.051616583 0.1075
v -0.0822000057 0.051616583 0.1075
v -0.0861667246 0.05116673 0.1075
v -0.08383328 0.05116673 0.1075
v -0.08638105 0.0509028956 0.1075
v -0.0836189538 0.0509028956 0.1075
v -0.08653416 0.05060736 0.1075
v -0.08662246 0.0503002442 0.1075
v -0.08665 0.0500000045 0.1075
v -0.08346586 0.05060736 0.1075
v -0.08337755 0.0503002442 0.1075
v -0.08335001 0.0500000045 0.1075
v -0.0877999961 0.04838342 0.1075
v -0.0822000057 0.04838342 0.1075
v -0.08662246 0.0496997647 0.1075
v -0.08337755 0.0496997647 0.1075
v -0.08653416 0.049392648 0.1075
v -0.08346586 0.049392648 0.1075
v -0.08638105 0.0490971059 0.1075
v -0.0861667246 0.0488332734 0.1075
v -0.0859029 0.0486189574 0.1075
v -0.08500001 0.0467668436 0.1075
v -0.0836189538 0.0490971059 0.1075
v -0.08383328 0.0488332734 0.1075
v -0.0840971 0.0486189574 0.1075
v -0.08560736 0.048465848 0.1075
v -0.0843926445 0.048465848 0.1075
v -0.0853002444 0.04837755 0.1075
v -0.0846997648 0.04837755 0.1075
v -0.08500001 0.0483500026 0.1075
v -0.0822000057 0.0500000045 0.10625
v -0.0822000057 0.051616583 0.1075
v -0.0822000057 0.051616583 0.105000004
v -0.0822000057 0.04838342 0.105000004
v -0.0822000057 0.04838342 0.1075
v -0.08500001 0.0467668436 0.1075
v -0.0836 0.04757513 0.10625
v -0.08500001 0.0467668436 0.105000004
v -0.0822000057 0.04838342 0.1075
v -0.0822000057 0.04838342 0.105000004
v -0.0877999961 0.04838342 0.1075
v -0.0864 0.04757513 0.10625
v -0.0877999961 0.04838342 0.105000004
v -0.08500001 0.0467668436 0.1075
v -0.08500001 0.0467668436 0.105000004
v -0.0877999961 0.051616583 0.1075
v -0.0877999961 0.0500000045 0.10625
v -0.0877999961 0.051616583 0.105000004
v -0.0877999961 0.04838342 0.1075
v -0.0877999961 0.04838342 0.105000004
v -0.08500001 0.0532331653 0.1075
v -0.0864 0.0524248742 0.10625
v -0.08500001 0.0532331653 0.105000004
v -0.0877999961 0.051616583 0.1075
v -0.0877999961 0.051616583 0.105000004
v 0.0146997618 0.0516224578 0.1075
v 0.0150000006 0.0532331653 0.1075
v 0.0150000006 0.05165 0.1075
v 0.0143926451 0.0515341535 0.1075
v 0.01530024 0.0516224578 0.1075
v 0.0156073561 0.0515341535 0.1075
v 0.0140971048 0.0513810478 0.1075
v 0.0159028955 0.0513810478 0.1075
v 0.0122000007 0.051616583 0.1075
v 0.0178 0.051616583 0.1075
v 0.0138332741 0.05116673 0.1075
v 0.016166728 0.05116673 0.1075
v 0.0136189582 0.0509028956 0.1075
v 0.0163810439 0.0509028956 0.1075
v 0.01346585 0.05060736 0.1075
v 0.0133775463 0.0503002442 0.1075
v 0.0133500015 0.0500000045 0.1075
v 0.0165341515 0.05060736 0.1075
v 0.0166224539 0.0503002442 0.1075
v 0.01665 0.0500000045 0.1075
v 0.0122000007 0.04838342 0.1075
v 0.0178 0.04838342 0.1075
v 0.0133775463 0.0496997647 0.1075
v 0.0166224539 0.0496997647 0.1075
v 0.01346585 0.049392648 0.1075
v 0.0165341515 0.049392648 0.1075
v 0.0136189582 0.0490971059 0.1075
v 0.0138332741 0.0488332734 0.1075
v 0.0140971048 0.0486189574 0.1075
v 0.0150000006 0.0467668436 0.1075
v 0.0163810439 0.0490971059 0.1075
v 0.016166728 0.0488332734 0.1075
v 0.0159028955 0.0486189574 0.1075
v 0.0143926451 0.048465848 0.1075
v 0.0156073561 0.048465848 0.1075
v 0.0146997618 0.04837755 0.1075
v 0.01530024 0.04837755 0.1075
v 0.0150000006 0.0483500026 0.1075
v 0.0178 0.0500000045 0.10625
v 0.0178 0.051616583 0.1075
v 0.0178 0.051616583 0.105000004
v 0.0178 0.04838342 0.105000004
v 0.0178 0.04838342 0.1075
v 0.0150000006 0.0467668436 0.1075
v 0.0164 0.04757513 0.10625
v 0.0150000006 0.0467668436 0.105000004
v 0.0178 0.04838342 0.1075
v 0.0178 0.04838342 0.105000004
v 0.0122000007 0.04838342 0.1075
v 0.0136000011 0.04757513 0.10625
v 0.0122000007 0.04838342 0.105000004
v 0.0150000006 0.0467668436 0.1075
v 0.0150000006 0.0467668436 0.105000004
v 0.0122000007 0.051616583 0.1075
v 0.0122000007 0.0500000045 0.10625
v 0.0122000007 0.051616583 0.105000004
v 0.0122000007 0.04838342 0.1075
v 0.0122000007 0.04838342 0.105000004
v 0.0150000006 0.0532331653 0.1075
v 0.0136000011 0.0524248742 0.10625
v 0.0150000006 0.0532331653 0.105000004
v 0.0122000007 0.051616583 0.1075
v 0.0122000007 0.051616583 0.105000004
v -0.08162246 0.0475000031 0.110300243
v -0.0831754357 0.0475000031 0.110000007
v -0.0816500038 0.0475000031 0.110000007
v -0.0815341547 0.0475000031 0.110607363
v -0.08162246 0.0475000031 0.109699771
v -0.0815341547 0.0475000031 0.109392643
v -0.08138105 0.0475000031 0.110902905
v -0.08138105 0.0475000031 0.1090971
v -0.0815877244 0.0475000031 0.11275
v -0.0815877244 0.0475000031 0.107250005
v -0.08116673 0.0475000031 0.111166731
v -0.08116673 0.0475000031 0.108833276
v -0.0809029043 0.0475000031 0.111381046
v -0.0809029043 0.0475000031 0.10861896
v -0.0806073546 0.0475000031 0.111534148
v -0.08030024 0.0475000031 0.111622468
v -0.0800000057 0.0475000031 0.111650005
v -0.0806073546 0.0475000031 0.108465858
v -0.08030024 0.0475000031 0.108377554
v -0.0800000057 0.0475000031 0.10835
v -0.07841229 0.0475000031 0.11275
v -0.07841229 0.0475000031 0.107250005
v -0.07969976 0.0475000031 0.111622468
v -0.07969976 0.0475000031 0.108377554
v -0.07939265 0.0475000031 0.111534148
v -0.07939265 0.0475000031 0.108465858
v -0.07909711 0.0475000031 0.111381046
v -0.07883328 0.0475000031 0.111166731
v -0.07861896 0.0475000031 0.110902905
v -0.07682458 0.0475000031 0.110000007
v -0.07909711 0.0475000031 0.10861896
v -0.07883328 0.0475000031 0.108833276
v -0.07861896 0.0475000031 0.1090971
v -0.07846586 0.0475000031 0.110607363
v -0.07846586 0.0475000031 0.109392643
v -0.0783775449 0.0475000031 0.110300243
v -0.0783775449 0.0475000031 0.109699771
v -0.07835001 0.0475000031 0.110000007
v -0.08238158 0.04625 0.111375004
v -0.0815877244 0.0475000031 0.11275
v -0.0815877244 0.045 0.11275
v -0.0831754357 0.045 0.110000007
v -0.0831754357 0.0475000031 0.110000007
v -0.0815877244 0.0475000031 0.107250005
v -0.08238158 0.04625 0.108625
v -0.0815877244 0.045 0.107250005
v -0.0831754357 0.0475000031 0.110000007
v -0.0831754357 0.045 0.110000007
v -0.07841229 0.0475000031 0.107250005
v -0.0800000057 0.04625 0.107250005
v -0.07841229 0.045 0.107250005
v -0.0815877244 0.0475000031 0.107250005
v -0.0815877244 0.045 0.107250005
v -0.07682458 0.0475000031 0.110000007
v -0.077618435 0.04625 0.108625
v -0.07682458 0.045 0.110000007
v -0.07841229 0.0475000031 0.107250005
v -0.07841229 0.045 0.107250005
v -0.07841229 0.0475000031 0.11275
v -0.077618435 0.04625 0.111375004
v -0.07841229 0.045 0.11275
v -0.07682458 0.0475000031 0.110000007
v -0.07682458 0.045 0.110000007
v -0.0616224557 0.0475000031 0.110300243
v -0.0631754249 0.0475000031 0.110000007
v -0.06165 0.0475000031 0.110000007
v -0.0615341552 0.0475000031 0.110607363
v -0.0616224557 0.0475000031 0.109699771
v -0.0615341552 0.0475000031 0.109392643
v -0.06138105 0.0475000031 0.110902905
v -0.06138105 0.0475000031 0.1090971
v -0.06158772 0.0475000031 0.11275
v -0.06158772 0.0475000031 0.107250005
v -0.06116673 0.0475000031 0.111166731
v -0.06116673 0.0475000031 0.108833276
v -0.0609029 0.0475000031 0.111381046
v -0.0609029 0.0475000031 0.10861896
v -0.06060736 0.0475000031 0.111534148
v -0.0603002459 0.0475000031 0.111622468
v -0.0600000024 0.0475000031 0.111650005
v -0.06060736 0.0475000031 0.108465858
v -0.0603002459 0.0475000031 0.108377554
v -0.0600000024 0.0475000031 0.10835
v -0.0584122874 0.0475000031 0.11275
v -0.0584122874 0.0475000031 0.107250005
v -0.05969976 0.0475000031 0.111622468
v -0.05969976 0.0475000031 0.108377554
v -0.059392646 0.0475000031 0.111534148
v -0.059392646 0.0475000031 0.108465858
v -0.0590971075 0.0475000031 0.111381046
v -0.05883328 0.0475000031 0.111166731
v -0.0586189553 0.0475000031 0.110902905
v -0.0568245761 0.0475000031 0.110000007
v -0.0590971075 0.0475000031 0.10861896
v -0.05883328 0.0475000031 0.108833276
v -0.0586189553 0.0475000031 0.1090971
v -0.0584658533 0.0475000031 0.110607363
v -0.0584658533 0.0475000031 0.109392643
v -0.05837755 0.0475000031 0.110300243
v -0.05837755 0.0475000031 0.109699771
v -0.0583500043 0.0475000031 0.110000007
v -0.06238157 0.04625 0.111375004
v -0.06158772 0.0475000031 0.11275
v -0.06158772 0.045 0.11275
v -0.0631754249 0.045 0.110000007
v -0.0631754249 0.0475000031 0.110000007
v -0.06158772 0.0475000031 0.107250005
v -0.06238157 0.04625 0.108625
v -0.06158772 0.045 0.107250005
v -0.0631754249 0.0475000031 0.110000007
v -0.0631754249 0.045 0.110000007
v -0.0584122874 0.0475000031 0.107250005
v -0.0600000024 0.04625 0.107250005
v -0.0584122874 0.045 0.107250005
v -0.06158772 0.0475000031 0.107250005
v -0.06158772 0.045 0.107250005
v -0.0568245761 0.0475000031 0.110000007
v -0.0576184355 0.04625 0.108625
v -0.0568245761 0.045 0.110000007
v -0.0584122874 0.0475000031 0.107250005
v -0.0584122874 0.045 0.107250005
v -0.0584122874 0.0475000031 0.11275
v -0.0576184355 0.04625 0.111375004
v -0.0584122874 0.045 0.11275
v -0.0568245761 0.0475000031 0.110000007
v -0.0568245761 0.045 0.110000007
v 0.092992425 0.0550000034 0.105500005
v 0.09324244 0.0546250045 0.105375007
v 0.092992425 0.0545 0.105000004
v 0.093492426 0.0545 0.105500005
v 0.093492426 0.0545 0.1145
v 0.09324244 0.0546250045 0.114625007
v 0.092992425 0.0545 0.11500001
v 0.092992425 0.0550000034 0.1145
v -0.09949958 0.0550000034 0.105500005
v -0.09974958 0.0546250045 0.105375007
v -0.09999959 0.0545 0.105500005
v -0.09949958 0.0545 0.105000004
v 0.093492426 0.0455000028 0.105500005
v 0.09324244 0.045375 0.105375007
v 0.092992425 0.0455000028 0.105000004
v 0.092992425 0.045 0.105500005
v -0.09949958 0.0545 0.11500001
v -0.09974958 0.0546250045 0.114625007
v -0.09999959 0.0545 0.1145
v -0.09949958 0.0550000034 0.1145
v 0.093492426 0.0455000028 0.1145
v 0.09324244 0.045375 0.114625007
v 0.092992425 0.045 0.1145
v 0.092992425 0.0455000028 0.11500001
v -0.09949958 0.0455000028 0.105000004
v -0.09974958 0.045375 0.105375007
v -0.09999959 0.0455000028 0.105500005
v -0.09949958 0.045 0.105500005
v -0.09949958 0.045 0.1145
v -0.09974958 0.045375 0.114625007
v -0.09999959 0.0455000028 0.1145
v -0.09949958 0.0455000028 0.11500001
v -0.0822000057 0.051616583 0.1075
v -0.0836 0.0524248742 0.10625
v -0.0822000057 0.051616583 0.105000004
v -0.08500001 0.0532331653 0.1075
v -0.08500001 0.0532331653 0.105000004
v 0.0178 0.051616583 0.1075
v 0.0164 0.0524248742 0.10625
v 0.0178 0.051616583 0.105000004
v 0.0150000006 0.0532331653 0.1075
v 0.0150000006 0.0532331653 0.105000004
v -0.0815877244 0.0475000031 0.11275
v -0.0800000057 0.04625 0.11275
v -0.0815877244 0.045 0.11275
v -0.07841229 0.0475000031 0.11275
v -0.07841229 0.045 0.11275
v -0.06158772 0.0475000031 0.11275
v -0.0600000024 0.04625 0.11275
v -0.06158772 0.045 0.11275
v -0.0584122874 0.0475000031 0.11275
v -0.0584122874 0.045 0.11275
f 1 2 3
f 1 3 4
f 5 1 4
f 4 3 6
f 7 5 4
f 8 4 6
f 7 4 8
f 8 6 9
f 10 7 8
f 11 8 9
f 10 8 11
f 11 9 12
f 13 10 11
f 14 11 12
f 13 11 14
f 14 12 15
f 16 13 14
f 17 14 15
f 16 14 17
f 17 15 18
f 19 16 17
f 20 17 18
f 19 17 20
f 20 18 21
f 22 20 21
f 23 19 20
f 23 20 22
f 22 21 24
f 25 23 22
f 26 22 24
f 27 25 22
f 28 22 26
f 27 22 28
f 29 28 26
f 30 27 28
f 31 28 29
f 31 30 28
f 32 31 29
f 31 32 30
f 32 29 33
f 32 34 30
f 35 32 33
f 32 35 34
f 35 33 36
f 35 37 34
f 38 35 36
f 35 38 37
f 38 36 39
f 38 40 37
f 41 38 39
f 38 41 40
f 41 39 42
f 41 43 40
f 44 41 42
f 41 44 43
f 44 42 45
f 44 46 43
f 47 44 45
f 44 47 46
f 47 45 48
f 46 47 49
f 47 48 49
f 48 50 49
f 50 51 49
f 49 51 52
f 50 53 51
f 51 54 52
f 53 55 51
f 51 55 54
f 53 56 55
f 55 57 54
f 56 58 55
f 55 58 57
f 56 59 58
f 58 60 57
f 59 61 58
f 58 61 60
f 59 62 61
f 61 63 60
f 62 64 61
f 61 64 63
f 62 65 64
f 64 66 63
f 65 67 64
f 64 67 66
f 65 68 67
f 68 69 67
f 67 70 66
f 67 69 70
f 68 71 69
f 69 72 70
f 71 73 69
f 69 74 72
f 73 75 69
f 69 75 74
f 73 76 75
f 75 77 74
f 76 78 75
f 75 78 77
f 76 79 78
f 79 77 78
f 80 79 76
f 79 81 77
f 82 79 80
f 79 82 81
f 83 82 80
f 82 84 81
f 85 82 83
f 82 85 84
f 86 85 83
f 85 87 84
f 88 85 86
f 85 88 87
f 89 88 86
f 88 90 87
f 91 88 89
f 88 91 90
f 92 91 89
f 91 93 90
f 94 91 92
f 91 94 93
f 95 94 92
f 94 96 93
f 94 95 96
f 97 98 99
f 97 99 100
f 101 97 100
f 100 99 102
f 103 101 100
f 104 100 102
f 103 100 104
f 104 102 105
f 106 103 104
f 107 104 105
f 106 104 107
f 107 105 108
f 109 106 107
f 110 107 108
f 109 107 110
f 110 108 111
f 112 109 110
f 113 110 111
f 112 110 113
f 113 111 114
f 115 112 113
f 116 113 114
f 115 113 116
f 116 114 117
f 118 116 117
f 119 115 116
f 119 116 118
f 118 117 120
f 121 119 118
f 122 118 120
f 123 121 118
f 124 118 122
f 123 118 124
f 125 124 122
f 126 123 124
f 127 124 125
f 127 126 124
f 128 127 125
f 127 128 126
f 128 125 129
f 128 130 126
f 131 128 129
f 128 131 130
f 131 129 132
f 131 133 130
f 134 131 132
f 131 134 133
f 134 132 135
f 134 136 133
f 137 134 135
f 134 137 136
f 137 135 138
f 137 139 136
f 140 137 138
f 137 140 139
f 140 138 141
f 140 142 139
f 143 140 141
f 140 143 142
f 143 141 144
f 142 143 145
f 143 144 145
f 144 146 145
f 146 147 145
f 145 147 148
f 146 149 147
f 147 150 148
f 149 151 147
f 147 151 150
f 149 152 151
f 151 153 150
f 152 154 151
f 151 154 153
f 152 155 154
f 154 156 153
f 155 157 154
f 154 157 156
f 155 158 157
f 157 159 156
f 158 160 157
f 157 160 159
f 158 161 160
f 160 162 159
f 161 163 160
f 160 163 162
f 161 164 163
f 164 165 163
f 163 166 162
f 163 165 166
f 164 167 165
f 165 168 166
f 167 169 165
f 165 170 168
f 169 171 165
f 165 171 170
f 169 172 171
f 171 173 170
f 172 174 171
f 171 174 173
f 172 175 174
f 175 173 174
f 176 175 172
f 175 177 173
f 178 175 176
f 175 178 177
f 179 178 176
f 178 180 177
f 181 178 179
f 178 181 180
f 182 181 179
f 181 183 180
f 184 181 182
f 181 184 183
f 185 184 182
f 184 186 183
f 187 184 185
f 184 187 186
f 188 187 185
f 187 189 186
f 190 187 188
f 187 190 189
f 191 190 188
f 190 192 189
f 190 191 192
f 193 194 195
f 193 195 196
f 197 193 196
f 196 195 198
f 199 197 196
f 200 196 198
f 199 196 200
f 200 198 201
f 202 199 200
f 203 200 201
f 202 200 203
f 203 201 204
f 205 202 203
f 206 203 204
f 205 203 206
f 206 204 207
f 208 205 206
f 209 206 207
f 208 206 209
f 209 207 210
f 211 208 209
f 212 209 210
f 211 209 212
f 212 210 213
f 214 212 213
f 215 211 212
f 215 212 214
f 214 213 216
f 217 215 214
f 218 214 216
f 219 217 214
f 220 214 218
f 219 214 220
f 221 220 218
f 222 219 220
f 223 220 221
f 223 222 220
f 224 223 221
f 223 224 222
f 224 221 225
f 224 226 222
f 227 224 225
f 224 227 226
f 227 225 228
f 227 229 226
f 230 227 228
f 227 230 229
f 230 228 231
f 230 232 229
f 233 230 231
f 230 233 232
f 233 231 234
f 233 235 232
f 236 233 234
f 233 236 235
f 236 234 237
f 236 238 235
f 239 236 237
f 236 239 238
f 239 237 240
f 238 239 241
f 239 240 241
f 240 242 241
f 242 243 241
f 241 243 244
f 242 245 243
f 243 246 244
f 245 247 243
f 243 247 246
f 245 248 247
f 247 249 246
f 248 250 247
f 247 250 249
f 248 251 250
f 250 252 249
f 251 253 250
f 250 253 252
f 251 254 253
f 253 255 252
f 254 256 253
f 253 256 255
f 254 257 256
f 256 258 255
f 257 259 256
f 256 259 258
f 257 260 259
f 260 261 259
f 259 262 258
f 259 261 262
f 260 263 261
f 261 264 262
f 263 265 261
f 261 266 264
f 265 267 261
f 261 267 266
f 265 268 267
f 267 269 266
f 268 270 267
f 267 270 269
f 268 271 270
f 271 269 270
f 272 271 268
f 271 273 269
f 274 271 272
f 271 274 273
f 275 274 272
f 274 276 273
f 277 274 275
f 274 277 276
f 278 277 275
f 277 279 276
f 280 277 278
f 277 280 279
f 281 280 278
f 280 282 279
f 283 280 281
f 280 283 282
f 284 283 281
f 283 285 282
f 286 283 284
f 283 286 285
f 287 286 284
f 286 288 285
f 286 287 288
f 289 290 291
f 289 291 292
f 293 289 292
f 292 291 294
f 295 293 292
f 296 292 294
f 295 292 296
f 296 294 297
f 298 295 296
f 299 296 297
f 298 296 299
f 299 297 300
f 301 298 299
f 302 299 300
f 301 299 302
f 302 300 303
f 304 301 302
f 305 302 303
f 304 302 305
f 305 303 306
f 307 304 305
f 308 305 306
f 307 305 308
f 308 306 309
f 310 308 309
f 311 307 308
f 311 308 310
f 310 309 312
f 313 311 310
f 314 310 312
f 315 313 310
f 316 310 314
f 315 310 316
f 317 316 314
f 318 315 316
f 319 316 317
f 319 318 316
f 320 319 317
f 319 320 318
f 320 317 321
f 320 322 318
f 323 320 321
f 320 323 322
f 323 321 324
f 323 325 322
f 326 323 324
f 323 326 325
f 326 324 327
f 326 328 325
f 329 326 327
f 326 329 328
f 329 327 330
f 329 331 328
f 332 329 330
f 329 332 331
f 332 330 333
f 332 334 331
f 335 332 333
f 332 335 334
f 335 333 336
f 334 335 337
f 335 336 337
f 336 338 337
f 338 339 337
f 337 339 340
f 338 341 339
f 339 342 340
f 341 343 339
f 339 343 342
f 341 344 343
f 343 345 342
f 344 346 343
f 343 346 345
f 344 347 346
f 346 348 345
f 347 349 346
f 346 349 348
f 347 350 349
f 349 351 348
f 350 352 349
f 349 352 351
f 350 353 352
f 352 354 351
f 353 355 352
f 352 355 354
f 353 356 355
f 356 357 355
f 355 358 354
f 355 357 358
f 356 359 357
f 357 360 358
f 359 361 357
f 357 362 360
f 361 363 357
f 357 363 362
f 361 364 363
f 363 365 362
f 364 366 363
f 363 366 365
f 364 367 366
f 367 365 366
f 368 367 364
f 367 369 365
f 370 367 368
f 367 370 369
f 371 370 368
f 370 372 369
f 373 370 371
f 370 373 372
f 374 373 371
f 373 375 372
f 376 373 374
f 373 376 375
f 377 376 374
f 376 378 375
f 379 376 377
f 376 379 378
f 380 379 377
f 379 381 378
f 382 379 380
f 379 382 381
f 383 382 380
f 382 384 381
f 382 383 384
f 385 386 387
f 385 387 388
f 389 385 388
f 388 387 390
f 391 389 388
f 392 388 390
f 391 388 392
f 392 390 393
f 394 391 392
f 395 392 393
f 394 392 395
f 395 393 396
f 397 394 395
f 398 395 396
f 397 395 398
f 398 396 399
f 400 397 398
f 401 398 399
f 400 398 401
f 401 399 402
f 403 400 401
f 404 401 402
f 403 401 404
f 404 402 405
f 406 404 405
f 407 403 404
f 407 404 406
f 406 405 408
f 409 407 406
f 410 406 408
f 411 409 406
f 412 406 410
f 411 406 412
f 413 412 410
f 414 411 412
f 415 412 413
f 415 414 412
f 416 415 413
f 415 416 414
f 416 413 417
f 416 418 414
f 419 416 417
f 416 419 418
f 419 417 420
f 419 421 418
f 422 419 420
f 419 422 421
f 422 420 423
f 422 424 421
f 425 422 423
f 422 425 424
f 425 423 426
f 425 427 424
f 428 425 426
f 425 428 427
f 428 426 429
f 428 430 427
f 431 428 429
f 428 431 430
f 431 429 432
f 430 431 433
f 431 432 433
f 432 434 433
f 434 435 433
f 433 435 436
f 434 437 435
f 435 438 436
f 437 439 435
f 435 439 438
f 437 440 439
f 439 441 438
f 440 442 439
f 439 442 441
f 440 443 442
f 442 444 441
f 443 445 442
f 442 445 444
f 443 446 445
f 445 447 444
f 446 448 445
f 445 448 447
f 446 449 448
f 448 450 447
f 449 451 448
f 448 451 450
f 449 452 451
f 452 453 451
f 451 454 450
f 451 453 454
f 452 455 453
f 453 456 454
f 455 457 453
f 453 458 456
f 457 459 453
f 453 459 458
f 457 460 459
f 459 461 458
f 460 462 459
f 459 462 461
f 460 463 462
f 463 461 462
f 464 463 460
f 463 465 461
f 466 463 464
f 463 466 465
f 467 466 464
f 466 468 465
f 469 466 467
f 466 469 468
f 470 469 467
f 469 471 468
f 472 469 470
f 469 472 471
f 473 472 470
f 472 474 471
f 475 472 473
f 472 475 474
f 476 475 473
f 475 477 474
f 478 475 476
f 475 478 477
f 479 478 476
f 478 480 477
f 478 479 480
f 481 482 483
f 481 483 484
f 485 481 484
f 484 483 486
f 487 485 484
f 488 484 486
f 487 484 488
f 488 486 489
f 490 487 488
f 491 488 489
f 490 488 491
f 491 489 492
f 493 490 491
f 494 491 492
f 493 491 494
f 494 492 495
f 496 493 494
f 497 494 495
f 496 494 497
f 497 495 498
f 499 496 497
f 500 497 498
f 499 497 500
f 500 498 501
f 502 500 501
f 503 499 500
f 503 500 502
f 502 501 504
f 505 503 502
f 506 502 504
f 507 505 502
f 508 502 506
f 507 502 508
f 509 508 506
f 510 507 508
f 511 508 509
f 511 510 508
f 512 511 509
f 511 512 510
f 512 509 513
f 512 514 510
f 515 512 513
f 512 515 514
f 515 513 516
f 515 517 514
f 518 515 516
f 515 518 517
f 518 516 519
f 518 520 517
f 521 518 519
f 518 521 520
f 521 519 522
f 521 523 520
f 524 521 522
f 521 524 523
f 524 522 525
f 524 526 523
f 527 524 525
f 524 527 526
f 527 525 528
f 526 527 529
f 527 528 529
f 528 530 529
f 530 531 529
f 529 531 532
f 530 533 531
f 531 534 532
f 533 535 531
f 531 535 534
f 533 536 535
f 535 537 534
f 536 538 535
f 535 538 537
f 536 539 538
f 538 540 537
f 539 541 538
f 538 541 540
f 539 542 541
f 541 543 540
f 542 544 541
f 541 544 543
f 542 545 544
f 544 546 543
f 545 547 544
f 544 547 546
f 545 548 547
f 548 549 547
f 547 550 546
f 547 549 550
f 548 551 549
f 549 552 550
f 551 553 549
f 549 554 552
f 553 555 549
f 549 555 554
f 553 556 555
f 555 557 554
f 556 558 555
f 555 558 557
f 556 559 558
f 559 557 558
f 560 559 556
f 559 561 557
f 562 559 560
f 559 562 561
f 563 562 560
f 562 564 561
f 565 562 563
f 562 565 564
f 566 565 563
f 565 567 564
f 568 565 566
f 565 568 567
f 569 568 566
f 568 570 567
f 571 568 569
f 568 571 570
f 572 571 569
f 571 573 570
f 574 571 572
f 571 574 573
f 575 574 572
f 574 576 573
f 574 575 576
f 577 578 579
f 577 579 580
f 581 577 580
f 580 579 582
f 583 581 580
f 584 580 582
f 583 580 584
f 584 582 585
f 586 583 584
f 587 584 585
f 586 584 587
f 587 585 588
f 589 586 587
f 590 587 588
f 589 587 590
f 590 588 591
f 592 589 590
f 593 590 591
f 592 590 593
f 593 591 594
f 595 592 593
f 596 593 594
f 595 593 596
f 596 594 597
f 598 596 597
f 599 595 596
f 599 596 598
f 598 597 600
f 601 599 598
f 602 598 600
f 603 601 598
f 604 598 602
f 603 598 604
f 605 604 602
f 606 603 604
f 607 604 605
f 607 606 604
f 608 607 605
f 607 608 606
f 608 605 609
f 608 610 606
f 611 608 609
f 608 611 610
f 611 609 612
f 611 613 610
f 614 611 612
f 611 614 613
f 614 612 615
f 614 616 613
f 617 614 615
f 614 617 616
f 617 615 618
f 617 619 616
f 620 617 618
f 617 620 619
f 620 618 621
f 620 622 619
f 623 620 621
f 620 623 622
f 623 621 624
f 622 623 625
f 623 624 625
f 624 626 625
f 626 627 625
f 625 627 628
f 626 629 627
f 627 630 628
f 629 631 627
f 627 631 630
f 629 632 631
f 631 633 630
f 632 634 631
f 631 634 633
f 632 635 634
f 634 636 633
f 635 637 634
f 634 637 636
f 635 638 637
f 637 639 636
f 638 640 637
f 637 640 639
f 638 641 640
f 640 642 639
f 641 643 640
f 640 643 642
f 641 644 643
f 644 645 643
f 643 646 642
f 643 645 646
f 644 647 645
f 645 648 646
f 647 649 645
f 645 650 648
f 649 651 645
f 645 651 650
f 649 652 651
f 651 653 650
f 652 654 651
f 651 654 653
f 652 655 654
f 655 653 654
f 656 655 652
f 655 657 653
f 658 655 656
f 655 658 657
f 659 658 656
f 658 660 657
f 661 658 659
f 658 661 660
f 662 661 659
f 661 663 660
f 664 661 662
f 661 664 663
f 665 664 662
f 664 666 663
f 667 664 665
f 664 667 666
f 668 667 665
f 667 669 666
f 670 667 668
f 667 670 669
f 671 670 668
f 670 672 669
f 670 671 672
f 673 674 675
f 673 675 676
f 677 673 676
f 676 675 678
f 679 677 676
f 680 676 678
f 679 676 680
f 680 678 681
f 682 679 680
f 683 680 681
f 682 680 683
f 683 681 684
f 685 682 683
f 686 683 684
f 685 683 686
f 686 684 687
f 688 685 686
f 689 686 687
f 688 686 689
f 689 687 690
f 691 688 689
f 692 689 690
f 691 689 692
f 692 690 693
f 694 692 693
f 695 691 692
f 695 692 694
f 694 693 696
f 697 695 694
f 698 694 696
f 699 697 694
f 700 694 698
f 699 694 700
f 701 700 698
f 702 699 700
f 703 700 701
f 703 702 700
f 704 703 701
f 703 704 702
f 704 701 705
f 704 706 702
f 707 704 705
f 704 707 706
f 707 705 708
f 707 709 706
f 710 707 708
f 707 710 709
f 710 708 711
f 710 712 709
f 713 710 711
f 710 713 712
f 713 711 714
f 713 715 712
f 716 713 714
f 713 716 715
f 716 714 717
f 716 718 715
f 719 716 717
f 716 719 718
f 719 717 720
f 718 719 721
f 719 720 721
f 720 722 721
f 722 723 721
f 721 723 724
f 722 725 723
f 723 726 724
f 725 727 723
f 723 727 726
f 725 728 727
f 727 729 726
f 728 730 727
f 727 730 729
f 728 731 730
f 730 732 729
f 731 733 730
f 730 733 732
f 731 734 733
f 733 735 732
f 734 736 733
f 733 736 735
f 734 737 736
f 736 738 735
f 737 739 736
f 736 739 738
f 737 740 739
f 740 741 739
f 739 742 738
f 739 741 742
f 740 743 741
f 741 744 742
f 743 745 741
f 741 746 744
f 745 747 741
f 741 747 746
f 745 748 747
f 747 749 746
f 748 750 747
f 747 750 749
f 748 751 750
f 751 749 750
f 752 751 748
f 751 753 749
f 754 751 752
f 751 754 753
f 755 754 752
f 754 756 753
f 757 754 755
f 754 757 756
f 758 757 755
f 757 759 756
f 760 757 758
f 757 760 759
f 761 760 758
f 760 762 759
f 763 760 761
f 760 763 762
f 764 763 761
f 763 765 762
f 766 763 764
f 763 766 765
f 767 766 764
f 766 768 765
f 766 767 768
f 769 770 771
f 770 769 772
f 770 773 771
f 770 772 774
f 773 770 775
f 776 770 774
f 770 777 775
f 770 776 778
f 770 779 777
f 770 778 780
f 779 770 781
f 782 770 780
f 770 783 781
f 770 782 784
f 770 785 783
f 770 784 786
f 785 770 787
f 788 770 786
f 770 789 787
f 770 788 790
f 770 791 789
f 770 790 792
f 791 770 793
f 794 770 792
f 770 795 793
f 770 794 796
f 770 797 795
f 770 796 798
f 797 770 799
f 800 770 798
f 770 801 799
f 770 800 801
f 802 803 804
f 803 802 805
f 803 806 804
f 803 805 807
f 806 803 808
f 809 803 807
f 803 810 808
f 803 809 811
f 803 812 810
f 803 811 813
f 812 803 814
f 815 803 813
f 803 816 814
f 803 815 817
f 803 818 816
f 803 817 819
f 818 803 820
f 821 803 819
f 803 822 820
f 803 821 823
f 803 824 822
f 803 823 825
f 824 803 826
f 827 803 825
f 803 828 826
f 803 827 829
f 803 830 828
f 803 829 831
f 830 803 832
f 833 803 831
f 803 834 832
f 803 833 834
f 835 836 837
f 838 835 837
f 835 838 839
f 835 839 840
f 841 835 840
f 835 841 842
f 835 843 836
f 835 842 844
f 835 845 843
f 845 846 843
f 845 847 846
f 848 835 844
f 848 844 849
f 848 849 850
f 847 845 851
f 852 848 850
f 845 853 851
f 848 852 854
f 845 855 853
f 848 854 856
f 855 845 857
f 845 858 857
f 845 859 858
f 845 860 859
f 860 861 859
f 860 862 861
f 863 848 856
f 848 863 864
f 848 864 865
f 860 848 865
f 862 860 866
f 860 865 867
f 860 868 866
f 860 867 869
f 860 870 868
f 870 860 869
f 871 872 873
f 871 873 874
f 875 871 874
f 871 875 876
f 871 876 877
f 878 871 877
f 872 871 879
f 871 878 880
f 871 881 879
f 881 882 879
f 881 883 882
f 884 883 881
f 885 884 881
f 886 885 881
f 887 886 881
f 888 887 881
f 889 888 881
f 889 881 890
f 891 889 890
f 881 892 890
f 891 890 893
f 894 891 893
f 894 893 895
f 894 895 896
f 897 894 896
f 896 895 898
f 899 897 896
f 896 898 900
f 901 899 896
f 902 896 900
f 903 901 896
f 896 902 904
f 905 903 896
f 896 904 906
f 907 905 896
f 908 896 906
f 909 907 896
f 896 908 910
f 911 909 896
f 896 910 912
f 913 911 896
f 914 896 912
f 915 913 896
f 896 914 916
f 917 915 896
f 896 916 918
f 919 917 896
f 920 896 918
f 919 896 920
f 921 919 920
f 921 920 922
f 880 921 922
f 923 880 922
f 871 880 923
f 924 871 923
f 924 923 925
f 923 926 925
f 926 927 925
f 926 928 927
f 928 929 927
f 928 930 929
f 930 931 929
f 930 932 931
f 932 933 931
f 932 934 933
f 934 935 933
f 934 936 935
f 936 937 935
f 936 938 937
f 938 939 937
f 938 940 939
f 940 941 939
f 940 942 941
f 940 943 942
f 943 944 942
f 943 945 944
f 945 946 944
f 945 947 946
f 947 948 946
f 947 949 948
f 949 950 948
f 949 951 950
f 951 952 950
f 951 953 952
f 953 954 952
f 953 955 954
f 955 956 954
f 955 890 956
f 892 956 890
f 892 957 956
f 957 892 958
f 892 959 958
f 957 960 956
f 957 961 960
f 961 962 960
f 961 963 962
f 963 964 962
f 963 965 964
f 965 966 964
f 965 967 966
f 967 968 966
f 967 969 968
f 969 970 968
f 969 971 970
f 971 972 970
f 971 973 972
f 973 974 972
f 973 975 974
f 975 976 974
f 976 977 974
f 976 978 977
f 978 979 977
f 978 980 979
f 980 981 979
f 980 982 981
f 982 983 981
f 982 984 983
f 984 985 983
f 984 986 985
f 986 987 985
f 986 988 987
f 988 989 987
f 988 990 989
f 990 925 989
f 990 924 925
f 924 990 991
f 924 991 992
f 993 924 992
f 924 993 994
f 924 994 995
f 996 924 995
f 924 996 997
f 924 997 998
f 892 924 998
f 892 998 999
f 1000 892 999
f 892 1000 1001
f 892 1001 1002
f 1003 892 1002
f 892 1003 959
f 1004 1005 1006
f 1007 1004 1006
f 1004 1007 1008
f 1004 1008 1009
f 1010 1004 1009
f 1004 1010 1011
f 1004 1011 1012
f 1004 1013 1005
f 1014 1004 1012
f 1015 1014 1012
f 1014 1015 1016
f 1014 1016 1017
f 1018 1014 1017
f 1014 1018 1019
f 1014 1019 1020
f 1021 1014 1020
f 1014 1021 1022
f 1004 1023 1013
f 1004 1024 1023
f 1014 1022 1025
f 1026 1014 1025
f 1024 1026 1027
f 1028 1024 1027
f 1026 1029 1027
f 1026 1025 1029
f 1024 1028 1030
f 1024 1030 1023
f 1025 1031 1029
f 1023 1030 1032
f 1032 1030 1033
f 1032 1033 1034
f 1031 1034 1033
f 1035 1032 1034
f 1035 1034 1031
f 1025 1035 1031
f 1036 1025 1022
f 1036 1037 1025
f 1037 1036 1038
f 1037 1038 1039
f 1040 1036 1022
f 1022 1041 1040
f 1041 1042 1040
f 1041 1043 1042
f 1043 1044 1042
f 1043 1045 1044
f 1045 1046 1044
f 1045 1047 1046
f 1047 1048 1046
f 1047 1049 1048
f 1049 1050 1048
f 1049 1051 1050
f 1051 1052 1050
f 1051 1053 1052
f 1053 1054 1052
f 1053 1055 1054
f 1055 1056 1054
f 1056 1057 1054
f 1056 1058 1057
f 1058 1059 1057
f 1058 1060 1059
f 1060 1061 1059
f 1060 1062 1061
f 1062 1063 1061
f 1062 1064 1063
f 1064 1065 1063
f 1064 1066 1065
f 1066 1067 1065
f 1066 1068 1067
f 1068 1069 1067
f 1068 1013 1069
f 1013 1070 1069
f 1013 1023 1070
f 1023 1071 1070
f 1071 1072 1070
f 1071 1073 1072
f 1073 1071 1074
f 1071 1075 1074
f 1071 1076 1075
f 1076 1071 1077
f 1071 1078 1077
f 1071 1079 1078
f 1071 1037 1079
f 1037 1080 1079
f 1037 1081 1080
f 1081 1037 1082
f 1037 1083 1082
f 1037 1084 1083
f 1084 1037 1039
f 1085 1086 1087
f 1088 1085 1087
f 1085 1088 1089
f 1085 1089 1090
f 1091 1085 1090
f 1085 1091 1092
f 1085 1093 1086
f 1085 1092 1094
f 1085 1095 1093
f 1095 1096 1093
f 1095 1097 1096
f 1098 1085 1094
f 1098 1094 1099
f 1098 1099 1100
f 1097 1095 1101
f 1102 1098 1100
f 1095 1103 1101
f 1098 1102 1104
f 1095 1105 1103
f 1098 1104 1106
f 1105 1095 1107
f 1095 1108 1107
f 1095 1109 1108
f 1095 1110 1109
f 1110 1111 1109
f 1110 1112 1111
f 1113 1098 1106
f 1098 1113 1114
f 1098 1114 1115
f 1110 1098 1115
f 1112 1110 1116
f 1110 1115 1117
f 1110 1118 1116
f 1110 1117 1119
f 1110 1120 1118
f 1120 1110 1119
f 1121 1122 1123
f 1121 1123 1124
f 1125 1121 1124
f 1121 1125 1126
f 1121 1126 1127
f 1128 1121 1127
f 1121 1128 1129
f 1121 1129 1130
f 1131 1121 1130
f 1121 1131 1132
f 1121 1132 1133
f 1134 1121 1133
f 1121 1134 1135
f 1121 1135 1136
f 1122 1121 1137
f 1138 1121 1136
f 1139 1137 1121
f 1140 1139 1121
f 1121 1138 1140
f 1139 1141 1137
f 1138 1142 1140
f 1143 1141 1142
f 1144 1143 1142
f 1145 1144 1142
f 1143 1146 1141
f 1146 1147 1141
f 1148 1145 1142
f 1147 1149 1141
f 1150 1148 1142
f 1149 1151 1141
f 1152 1150 1142
f 1151 1153 1141
f 1154 1152 1142
f 1155 1154 1142
f 1156 1155 1142
f 1138 1156 1142
f 1156 1138 1157
f 1138 1158 1157
f 1158 1159 1157
f 1158 1160 1159
f 1160 1161 1159
f 1160 1162 1161
f 1162 1163 1161
f 1162 1164 1163
f 1164 1165 1163
f 1164 1166 1165
f 1166 1167 1165
f 1166 1168 1167
f 1168 1169 1167
f 1168 1170 1169
f 1170 1171 1169
f 1170 1172 1171
f 1172 1173 1171
f 1173 1174 1171
f 1173 1175 1174
f 1175 1176 1174
f 1175 1177 1176
f 1177 1178 1176
f 1177 1179 1178
f 1179 1180 1178
f 1179 1181 1180
f 1181 1182 1180
f 1181 1183 1182
f 1183 1184 1182
f 1183 1185 1184
f 1185 1186 1184
f 1185 1137 1186
f 1137 1187 1186
f 1141 1187 1137
f 1141 1188 1187
f 1189 1188 1141
f 1153 1189 1141
f 1190 1191 1192
f 1191 1193 1192
f 1191 1190 1194
f 1190 1195 1194
f 1195 1196 1194
f 1195 1197 1196
f 1197 1195 1198
f 1191 1194 1199
f 1191 1200 1193
f 1197 1198 1200
f 1200 1201 1193
f 1200 1198 1201
f 1202 1197 1200
f 1203 1191 1199
f 1202 1200 1204
f 1204 1203 1205
f 1203 1199 1205
f 1205 1202 1204
f 1205 1199 1206
f 1202 1205 1206
f 1207 1208 1209
f 1207 1209 1210
f 1208 1207 1211
f 1211 1207 1210
f 1212 1213 1214
f 1212 1214 1215
f 1213 1212 1216
f 1216 1212 1215
f 1217 1218 1219
f 1217 1219 1220
f 1218 1217 1221
f 1221 1217 1220
f 1222 1223 1224
f 1222 1224 1225
f 1223 1222 1226
f 1226 1222 1225
f 1227 1228 1229
f 1227 1229 1230
f 1228 1227 1231
f 1231 1227 1230
f 1232 1233 1234
f 1232 1234 1235
f 1233 1232 1236
f 1236 1232 1235
f 1237 1238 1239
f 1237 1239 1240
f 1238 1237 1241
f 1241 1237 1240
f 1242 1243 1244
f 1242 1244 1245
f 1243 1242 1246
f 1246 1242 1245
f 1247 1248 1249
f 1247 1249 1250
f 1248 1247 1251
f 1251 1247 1250
f 1252 1253 1254
f 1252 1254 1255
f 1253 1252 1256
f 1256 1252 1255
f 1257 1258 1259
f 1257 1259 1260
f 1258 1257 1261
f 1261 1257 1260
f 1262 1263 1264
f 1262 1264 1265
f 1263 1262 1266
f 1266 1262 1265
f 1267 1268 1269
f 1268 1267 1270
f 1268 1271 1269
f 1268 1272 1271
f 1268 1270 1273
f 1272 1268 1274
f 1275 1268 1273
f 1268 1276 1274
f 1275 1273 1277
f 1276 1278 1274
f 1275 1277 1279
f 1276 1280 1278
f 1281 1275 1279
f 1275 1281 1282
f 1275 1282 1283
f 1280 1276 1284
f 1276 1285 1284
f 1276 1286 1285
f 1287 1275 1283
f 1276 1288 1286
f 1287 1283 1289
f 1288 1290 1286
f 1287 1289 1291
f 1288 1292 1290
f 1293 1287 1291
f 1287 1293 1294
f 1287 1294 1295
f 1296 1287 1295
f 1292 1288 1297
f 1288 1298 1297
f 1288 1299 1298
f 1288 1296 1299
f 1300 1296 1295
f 1296 1301 1299
f 1296 1300 1302
f 1296 1303 1301
f 1296 1302 1304
f 1303 1296 1304
f 1305 1306 1307
f 1305 1307 1308
f 1306 1305 1309
f 1309 1305 1308
f 1310 1311 1312
f 1313 1311 1310
f 1311 1314 1312
f 1311 1313 1314
f 1315 1316 1317
f 1318 1316 1315
f 1316 1319 1317
f 1316 1318 1319
f 1320 1321 1322
f 1323 1321 1320
f 1321 1324 1322
f 1321 1323 1324
f 1325 1326 1327
f 1328 1326 1325
f 1326 1329 1327
f 1326 1328 1329
f 1330 1331 1332
f 1331 1330 1333
f 1331 1334 1332
f 1331 1335 1334
f 1331 1333 1336
f 1335 1331 1337
f 1338 1331 1336
f 1331 1339 1337
f 1338 1336 1340
f 1339 1341 1337
f 1338 1340 1342
f 1339 1343 1341
f 1344 1338 1342
f 1338 1344 1345
f 1338 1345 1346
f 1343 1339 1347
f 1339 1348 1347
f 1339 1349 1348
f 1350 1338 1346
f 1339 1351 1349
f 1350 1346 1352
f 1351 1353 1349
f 1350 1352 1354
f 1351 1355 1353
f 1356 1350 1354
f 1350 1356 1357
f 1350 1357 1358
f 1359 1350 1358
f 1355 1351 1360
f 1351 1361 1360
f 1351 1362 1361
f 1351 1359 1362
f 1363 1359 1358
f 1359 1364 1362
f 1359 1363 1365
f 1359 1366 1364
f 1359 1365 1367
f 1366 1359 1367
f 1368 1369 1370
f 1368 1370 1371
f 1369 1368 1372
f 1372 1368 1371
f 1373 1374 1375
f 1376 1374 1373
f 1374 1377 1375
f 1374 1376 1377
f 1378 1379 1380
f 1381 1379 1378
f 1379 1382 1380
f 1379 1381 1382
f 1383 1384 1385
f 1386 1384 1383
f 1384 1387 1385
f 1384 1386 1387
f 1388 1389 1390
f 1391 1389 1388
f 1389 1392 1390
f 1389 1391 1392
f 1393 1394 1395
f 1394 1393 1396
f 1394 1397 1395
f 1394 1398 1397
f 1394 1396 1399
f 1398 1394 1400
f 1401 1394 1399
f 1394 1402 1400
f 1401 1399 1403
f 1402 1404 1400
f 1401 1403 1405
f 1402 1406 1404
f 1407 1401 1405
f 1401 1407 1408
f 1401 1408 1409
f 1406 1402 1410
f 1402 1411 1410
f 1402 1412 1411
f 1413 1401 1409
f 1402 1414 1412
f 1413 1409 1415
f 1414 1416 1412
f 1413 1415 1417
f 1414 1418 1416
f 1419 1413 1417
f 1413 1419 1420
f 1413 1420 1421
f 1422 1413 1421
f 1418 1414 1423
f 1414 1424 1423
f 1414 1425 1424
f 1414 1422 1425
f 1426 1422 1421
f 1422 1427 1425
f 1422 1426 1428
f 1422 1429 1427
f 1422 1428 1430
f 1429 1422 1430
f 1431 1432 1433
f 1431 1433 1434
f 1432 1431 1435
f 1435 1431 1434
f 1436 1437 1438
f 1439 1437 1436
f 1437 1440 1438
f 1437 1439 1440
f 1441 1442 1443
f 1444 1442 1441
f 1442 1445 1443
f 1442 1444 1445
f 1446 1447 1448
f 1449 1447 1446
f 1447 1450 1448
f 1447 1449 1450
f 1451 1452 1453
f 1454 1452 1451
f 1452 1455 1453
f 1452 1454 1455
f 1456 1457 1458
f 1457 1456 1459
f 1457 1460 1458
f 1457 1461 1460
f 1457 1459 1462
f 1461 1457 1463
f 1464 1457 1462
f 1457 1465 1463
f 1464 1462 1466
f 1465 1467 1463
f 1464 1466 1468
f 1465 1469 1467
f 1470 1464 1468
f 1464 1470 1471
f 1464 1471 1472
f 1469 1465 1473
f 1465 1474 1473
f 1465 1475 1474
f 1476 1464 1472
f 1465 1477 1475
f 1476 1472 1478
f 1477 1479 1475
f 1476 1478 1480
f 1477 1481 1479
f 1482 1476 1480
f 1476 1482 1483
f 1476 1483 1484
f 1485 1476 1484
f 1481 1477 1486
f 1477 1487 1486
f 1477 1488 1487
f 1477 1485 1488
f 1489 1485 1484
f 1485 1490 1488
f 1485 1489 1491
f 1485 1492 1490
f 1485 1491 1493
f 1492 1485 1493
f 1494 1495 1496
f 1494 1496 1497
f 1495 1494 1498
f 1498 1494 1497
f 1499 1500 1501
f 1502 1500 1499
f 1500 1503 1501
f 1500 1502 1503
f 1504 1505 1506
f 1507 1505 1504
f 1505 1508 1506
f 1505 1507 1508
f 1509 1510 1511
f 1512 1510 1509
f 1510 1513 1511
f 1510 1512 1513
f 1514 1515 1516
f 1517 1515 1514
f 1515 1518 1516
f 1515 1517 1518
f 1519 1520 1521
f 1520 1519 1522
f 1520 1522 1521
f 1523 1524 1525
f 1524 1523 1526
f 1524 1526 1525
f 1527 1528 1529
f 1528 1527 1530
f 1528 1530 1529
f 1531 1532 1533
f 1532 1531 1534
f 1532 1534 1533
f 1535 1536 1537
f 1536 1535 1538
f 1536 1538 1537
f 1539 1540 1541
f 1540 1539 1542
f 1540 1542 1541
f 1543 1544 1545
f 1544 1543 1546
f 1544 1546 1545
f 1547 1548 1549
f 1548 1547 1550
f 1548 1550 1549
f 1551 1552 1553
f 1554 1552 1551
f 1552 1555 1553
f 1552 1554 1555
f 1556 1557 1558
f 1559 1557 1556
f 1557 1560 1558
f 1557 1559 1560
f 1561 1562 1563
f 1564 1562 1561
f 1562 1565 1563
f 1562 1564 1565
f 1566 1567 1568
f 1569 1567 1566
f 1567 1570 1568
f 1567 1569 1570
