# ROS coordinates: X forward, Y left, Z up; units are metres.
o mesh
v -0.08440001 0.0137302019 0.12989
v -0.08440001 0.0137302019 0.13024
v -0.0844455 0.01372603 0.13024
v -0.0844521448 0.0137247071 0.130065
v -0.0844455 0.01372603 0.12989
v -0.08449203 0.01371265 0.13024
v -0.08449203 0.01371265 0.12989
v -0.08450514 0.0137070231 0.130065
v -0.08453681 0.0136894509 0.13024
v -0.08453681 0.0136894509 0.12989
v -0.0845547 0.0136765931 0.130065
v -0.0845767856 0.0136569794 0.13024
v -0.0845767856 0.0136569794 0.12989
v -0.0845964 0.0136348978 0.130065
v -0.0846092552 0.0136170052 0.13024
v -0.0846092552 0.0136170052 0.12989
v -0.08462683 0.0135853328 0.130065
v -0.08463246 0.0135722272 0.13024
v -0.08463246 0.0135722272 0.12989
v -0.08464451 0.0135323368 0.130065
v -0.08464584 0.0135256927 0.13024
v -0.08465001 0.0134802032 0.130065
v -0.08464584 0.0135256927 0.12989
v -0.08465001 0.0134802032 0.13024
v -0.08465001 0.0134802032 0.12989
v -0.08464584 0.0134347118 0.13024
v -0.08464584 0.0134347118 0.12989
v -0.08464451 0.01342807 0.130065
v -0.08463246 0.0133881792 0.13024
v -0.08463246 0.0133881792 0.12989
v -0.08463246 0.0133881792 0.130065
v -0.08461317 0.0133495741 0.130065
v -0.0846092552 0.0133433994 0.13024
v -0.0846092552 0.0133433994 0.12989
v -0.08458693 0.0133141875 0.130065
v -0.0845767856 0.0133034252 0.13024
v -0.0845767856 0.0133034252 0.12989
v -0.0845547 0.0132838115 0.130065
v -0.08453681 0.0132709537 0.13024
v -0.08453681 0.0132709537 0.12989
v -0.08451803 0.0132598151 0.130065
v -0.08449203 0.0132477563 0.13024
v -0.08449203 0.0132477563 0.12989
v -0.08447879 0.0132429376 0.130065
v -0.0844455 0.0132343769 0.13024
v -0.0844455 0.0132343769 0.12989
v -0.08443888 0.0132332426 0.130065
v -0.08440001 0.0132302027 0.13024
v -0.08440001 0.0132302027 0.12989
v -0.08440001 0.0177698 0.12989
v -0.08440001 0.0177698 0.13024
v -0.0844455 0.0177656263 0.13024
v -0.0844521448 0.0177643038 0.130065
v -0.0844455 0.0177656263 0.12989
v -0.08449203 0.0177522469 0.13024
v -0.08449203 0.0177522469 0.12989
v -0.08450514 0.01774662 0.130065
v -0.08453681 0.01772905 0.13024
v -0.08453681 0.01772905 0.12989
v -0.0845547 0.01771619 0.130065
v -0.0845767856 0.0176965762 0.13024
v -0.0845767856 0.0176965762 0.12989
v -0.0845964 0.0176744945 0.130065
v -0.0846092552 0.017656602 0.13024
v -0.0846092552 0.017656602 0.12989
v -0.08462683 0.01762493 0.130065
v -0.08463246 0.017611824 0.13024
v -0.08463246 0.017611824 0.12989
v -0.08464451 0.0175719336 0.130065
v -0.08464584 0.0175652914 0.13024
v -0.08465001 0.0175198 0.130065
v -0.08464584 0.0175652914 0.12989
v -0.08465001 0.0175198 0.13024
v -0.08465001 0.0175198 0.12989
v -0.08464584 0.0174743086 0.13024
v -0.08464584 0.0174743086 0.12989
v -0.08464451 0.0174676664 0.130065
v -0.08463246 0.017427776 0.13024
v -0.08463246 0.017427776 0.12989
v -0.08463246 0.017427776 0.130065
v -0.08461317 0.01738917 0.130065
v -0.0846092552 0.017382998 0.13024
v -0.0846092552 0.017382998 0.12989
v -0.08458693 0.0173537843 0.130065
v -0.0845767856 0.0173430238 0.13024
v -0.0845767856 0.0173430238 0.12989
v -0.0845547 0.0173234083 0.130065
v -0.08453681 0.01731055 0.13024
v -0.08453681 0.01731055 0.12989
v -0.08451803 0.0172994118 0.130065
v -0.08449203 0.0172873531 0.13024
v -0.08449203 0.0172873531 0.12989
v -0.08447879 0.0172825363 0.130065
v -0.0844455 0.0172739737 0.13024
v -0.0844455 0.0172739737 0.12989
v -0.08443888 0.01727284 0.130065
v -0.08440001 0.0172698 0.13024
v -0.08440001 0.0172698 0.12989
v -0.08440001 0.0118859541 0.12304
v -0.08440001 0.0122721363 0.12304
v -0.08440001 0.0119765773 0.123234347
v -0.08440001 0.0122937858 0.12308643
v -0.08440001 0.0123357791 0.123210132
v -0.08440001 0.01235 0.123339996
v -0.08440001 0.011994075 0.12328589
v -0.08440001 0.012000002 0.123339996
v -0.08440001 0.012211442 0.12680164
v -0.08440001 0.012000002 0.12984
v -0.08440001 0.01235 0.12984
v -0.08440001 0.0123508368 0.1298491
v -0.08440001 0.0123535115 0.1298584
v -0.08440001 0.0122527629 0.13021192
v -0.08440001 0.0123272166 0.130233318
v -0.08440001 0.0121811181 0.1301748
v -0.08440001 0.0123581514 0.12986736
v -0.08440001 0.0121171586 0.13012284
v -0.08440001 0.01200668 0.1299128
v -0.08440001 0.0120652039 0.130058885
v -0.08440001 0.0120280851 0.12998724
v -0.08440001 0.0124000013 0.13024
v -0.08440001 0.0123646464 0.129875362
v -0.08440001 0.0123726409 0.129881859
v -0.08440001 0.0123815965 0.1298865
v -0.08440001 0.0123909023 0.12988916
v -0.08440001 0.0124000013 0.12989
v -0.08440001 0.0132302027 0.13024
v -0.08440001 0.0132302027 0.12989
v -0.08540001 0.0118859541 0.12304
v -0.08540001 0.0119765773 0.123234347
v -0.08540001 0.0122721363 0.12304
v -0.08540001 0.0122937858 0.12308643
v -0.08540001 0.0123357791 0.123210132
v -0.08540001 0.01235 0.123339996
v -0.08540001 0.011994075 0.12328589
v -0.08540001 0.012000002 0.123339996
v -0.08540001 0.0121328365 0.123933069
v -0.08540001 0.012000002 0.12484
v -0.08540001 0.01235 0.12484
v -0.08540001 0.01235 0.12484
v -0.08440001 0.01235 0.123339996
v -0.08540001 0.01235 0.123339996
v -0.08535001 0.01235 0.126988083
v -0.08440001 0.01235 0.12984
v -0.08535001 0.01235 0.128538087
v -0.08780001 0.01235 0.12984
v -0.08685001 0.01235 0.128538072
v -0.08685001 0.01235 0.126988083
v -0.08780001 0.01235 0.12514
v -0.087500006 0.01235 0.12484
v -0.08610001 0.01235 0.12659
v -0.08440001 0.012000002 0.123339996
v -0.08540001 0.012000002 0.12484
v -0.08540001 0.012000002 0.123339996
v -0.08535001 0.012000002 0.126988083
v -0.08440001 0.012000002 0.12984
v -0.08535001 0.012000002 0.128538087
v -0.08685001 0.012000002 0.128538072
v -0.08780001 0.012000002 0.12984
v -0.08685001 0.012000002 0.126988083
v -0.08780001 0.012000002 0.12514
v -0.087500006 0.012000002 0.12484
v -0.08610001 0.012000002 0.12659
v -0.08780001 0.012000002 0.12514
v -0.08780001 0.01235 0.12984
v -0.08780001 0.01235 0.12514
v -0.08780001 0.012000002 0.12984
v -0.08780001 0.0123508368 0.1298491
v -0.08780001 0.01200668 0.1299128
v -0.08780001 0.0123535115 0.1298584
v -0.08780001 0.0123581514 0.12986736
v -0.08780001 0.0120280851 0.12998724
v -0.08780001 0.0123646464 0.129875362
v -0.08780001 0.0123726409 0.129881844
v -0.08780001 0.0120652039 0.130058885
v -0.08780001 0.0123815965 0.1298865
v -0.08780001 0.0121171586 0.13012284
v -0.08780001 0.0123909023 0.12988916
v -0.08780001 0.0121811181 0.1301748
v -0.08780001 0.0122527629 0.13021192
v -0.08780001 0.0124000013 0.12989
v -0.08780001 0.0123272166 0.130233318
v -0.08780001 0.0124000013 0.13024
v -0.08780001 0.0186000019 0.12989
v -0.08780001 0.0186000019 0.13024
v -0.08780001 0.0186727867 0.130233318
v -0.08780001 0.0186091 0.12988916
v -0.08780001 0.0186184067 0.1298865
v -0.08780001 0.0186273623 0.129881844
v -0.08780001 0.0186353568 0.129875362
v -0.08780001 0.0186418518 0.12986736
v -0.08780001 0.0186464917 0.1298584
v -0.08780001 0.0186491664 0.1298491
v -0.08780001 0.01865 0.12984
v -0.08780001 0.0187472384 0.13021192
v -0.08780001 0.0188188851 0.1301748
v -0.08780001 0.0188828446 0.13012284
v -0.08780001 0.0189348 0.130058885
v -0.08780001 0.0189719163 0.12998724
v -0.08780001 0.0189933237 0.1299128
v -0.08780001 0.0190000013 0.12984
v -0.08780001 0.01865 0.12514
v -0.08780001 0.0190000013 0.12514
v -0.08440001 0.0132302027 0.12989
v -0.08440001 0.0124000013 0.12989
v -0.0844455 0.0132343769 0.12989
v -0.08449203 0.0132477563 0.12989
v -0.08453681 0.0132709537 0.12989
v -0.0845767856 0.0133034252 0.12989
v -0.0846092552 0.0133433994 0.12989
v -0.08463246 0.0133881792 0.12989
v -0.08780001 0.0124000013 0.12989
v -0.08464584 0.0134347118 0.12989
v -0.08465001 0.0134802032 0.12989
v -0.08464584 0.0135256927 0.12989
v -0.08510001 0.0155000016 0.12989
v -0.08463246 0.0135722272 0.12989
v -0.0846092552 0.0136170052 0.12989
v -0.0845767856 0.0136569794 0.12989
v -0.08453681 0.0136894509 0.12989
v -0.08449203 0.01371265 0.12989
v -0.0844455 0.01372603 0.12989
v -0.08440001 0.0137302019 0.12989
v -0.08240001 0.0140828565 0.12989
v -0.08780001 0.0186000019 0.12989
v -0.08440001 0.0172698 0.12989
v -0.0844455 0.0172739737 0.12989
v -0.08240001 0.0169171449 0.12989
v -0.08449203 0.0172873531 0.12989
v -0.08453681 0.01731055 0.12989
v -0.0845767856 0.0173430238 0.12989
v -0.0846092552 0.017382998 0.12989
v -0.08463246 0.017427776 0.12989
v -0.08464584 0.0174743086 0.12989
v -0.08465001 0.0175198 0.12989
v -0.08464584 0.0175652914 0.12989
v -0.08463246 0.017611824 0.12989
v -0.08440001 0.0186000019 0.12989
v -0.0846092552 0.017656602 0.12989
v -0.0845767856 0.0176965762 0.12989
v -0.08453681 0.01772905 0.12989
v -0.08449203 0.0177522469 0.12989
v -0.0844455 0.0177656263 0.12989
v -0.08440001 0.0177698 0.12989
v -0.08440001 0.0177698 0.13024
v -0.08440001 0.0186000019 0.13024
v -0.0844455 0.0177656263 0.13024
v -0.08449203 0.0177522469 0.13024
v -0.08453681 0.01772905 0.13024
v -0.0845767856 0.0176965762 0.13024
v -0.0846092552 0.017656602 0.13024
v -0.08463246 0.017611824 0.13024
v -0.08780001 0.0186000019 0.13024
v -0.08464584 0.0175652914 0.13024
v -0.08465001 0.0175198 0.13024
v -0.08464584 0.0174743086 0.13024
v -0.08510001 0.0155000016 0.13024
v -0.08463246 0.017427776 0.13024
v -0.0846092552 0.017382998 0.13024
v -0.0845767856 0.0173430238 0.13024
v -0.08453681 0.01731055 0.13024
v -0.08449203 0.0172873531 0.13024
v -0.0844455 0.0172739737 0.13024
v -0.08440001 0.0172698 0.13024
v -0.08240001 0.0169171449 0.130240008
v -0.08780001 0.0124000013 0.13024
v -0.08440001 0.0137302019 0.13024
v -0.0844455 0.01372603 0.13024
v -0.08240001 0.0140828565 0.130240008
v -0.08449203 0.01371265 0.13024
v -0.08453681 0.0136894509 0.13024
v -0.0845767856 0.0136569794 0.13024
v -0.0846092552 0.0136170052 0.13024
v -0.08463246 0.0135722272 0.13024
v -0.08464584 0.0135256927 0.13024
v -0.08465001 0.0134802032 0.13024
v -0.08464584 0.0134347118 0.13024
v -0.08463246 0.0133881792 0.13024
v -0.08440001 0.0124000013 0.13024
v -0.0846092552 0.0133433994 0.13024
v -0.0845767856 0.0133034252 0.13024
v -0.08453681 0.0132709537 0.13024
v -0.08449203 0.0132477563 0.13024
v -0.0844455 0.0132343769 0.13024
v -0.08440001 0.0132302027 0.13024
v -0.08440001 0.0186000019 0.13024
v -0.08440001 0.0177698 0.13024
v -0.08440001 0.0177698 0.12989
v -0.08440001 0.0186000019 0.12989
v -0.08440001 0.0186091 0.12988916
v -0.08440001 0.0186184067 0.1298865
v -0.08440001 0.0186727867 0.130233318
v -0.08440001 0.0186273623 0.129881859
v -0.08440001 0.0187472384 0.13021192
v -0.08440001 0.0188188851 0.1301748
v -0.08440001 0.0188828446 0.13012284
v -0.08440001 0.0190000013 0.12984
v -0.08440001 0.0186353568 0.129875362
v -0.08440001 0.0189348 0.130058885
v -0.08440001 0.0186418518 0.12986736
v -0.08440001 0.0189719163 0.12998724
v -0.08440001 0.0189933237 0.1299128
v -0.08440001 0.0186464917 0.1298584
v -0.08440001 0.0186491664 0.1298491
v -0.08440001 0.01865 0.12984
v -0.08440001 0.0190000013 0.123339996
v -0.08440001 0.01865 0.123339996
v -0.08440001 0.0187278669 0.12304
v -0.08440001 0.0190059282 0.12328589
v -0.08440001 0.019023424 0.123234347
v -0.08440001 0.01911405 0.12304
v -0.08440001 0.0187062174 0.12308643
v -0.08440001 0.0186642241 0.123210132
v -0.08240001 0.0140828565 0.130240008
v -0.08240001 0.0140828565 0.130065
v -0.0822732 0.0140993036 0.1302275
v -0.08222438 0.0141144749 0.130032942
v -0.082151264 0.0141157471 0.130190521
v -0.08203889 0.0141321905 0.130130455
v -0.08234148 0.0140993036 0.129884243
v -0.08240001 0.0140828565 0.12989
v -0.0822852 0.0141157471 0.129867166
v -0.08223334 0.0141321905 0.12983945
v -0.0820641443 0.0141486377 0.129925862
v -0.08194038 0.0141486377 0.130049616
v -0.0821878761 0.0141486377 0.129802138
v -0.08540001 0.01865 0.12484
v -0.08540001 0.01865 0.123339996
v -0.08440001 0.01865 0.123339996
v -0.08535001 0.01865 0.127280429
v -0.08440001 0.01865 0.12984
v -0.08535001 0.01865 0.128830433
v -0.08685001 0.01865 0.128830433
v -0.08780001 0.01865 0.12984
v -0.08685001 0.01865 0.127280429
v -0.08780001 0.01865 0.12514
v -0.087500006 0.01865 0.12484
v -0.08610001 0.01865 0.12659
v -0.08240001 0.0169171449 0.12989
v -0.08240001 0.0169171449 0.130065
v -0.08234148 0.0169006977 0.129884243
v -0.08221099 0.0168829821 0.1300274
v -0.0822852 0.0168842543 0.129867166
v -0.08223334 0.0168678127 0.12983945
v -0.0822732 0.0169006977 0.1302275
v -0.08240001 0.0169171449 0.130240008
v -0.082151264 0.0168842543 0.130190521
v -0.08203889 0.0168678127 0.130130455
v -0.0820641443 0.0168513637 0.129925862
v -0.0821878761 0.0168513637 0.129802138
v -0.08194038 0.0168513637 0.130049616
v -0.08440001 0.0190000013 0.123339996
v -0.08540001 0.0190000013 0.123339996
v -0.08540001 0.0190000013 0.12484
v -0.08535001 0.0190000013 0.127280429
v -0.08440001 0.0190000013 0.12984
v -0.08535001 0.0190000013 0.128830433
v -0.08780001 0.0190000013 0.12984
v -0.08685001 0.0190000013 0.128830433
v -0.08685001 0.0190000013 0.127280429
v -0.08780001 0.0190000013 0.12514
v -0.087500006 0.0190000013 0.12484
v -0.08610001 0.0190000013 0.12659
v -0.08610001 0.0190000013 0.1249275
v -0.08540001 0.0186642241 0.123210132
v -0.08540001 0.01865 0.123339996
v -0.08540001 0.0187062174 0.12308643
v -0.08540001 0.018882025 0.12394
v -0.08540001 0.01865 0.12484
v -0.08540001 0.0190000013 0.12484
v -0.08540001 0.0190000013 0.123339996
v -0.08540001 0.0187278669 0.12304
v -0.08540001 0.0190059282 0.12328589
v -0.08540001 0.019023424 0.123234347
v -0.08540001 0.01911405 0.12304
v -0.08007349 0.014614176 0.128182724
v -0.0801972151 0.014614176 0.128058985
v -0.08002045 0.0146323554 0.1281392
v -0.0800348744 0.0146491155 0.127946943
v -0.07995994 0.0146505293 0.128106847
v -0.0798942745 0.0146687031 0.128086925
v -0.0802148953 0.0146323554 0.127848178
v -0.08032097 0.014614176 0.127935231
v -0.0800938755 0.0146505293 0.127783492
v -0.07996257 0.0146687031 0.127743661
v -0.079826 0.0146868825 0.12790522
v -0.079826 0.0146868825 0.1280802
v -0.079826 0.0146868825 0.1277302
v -0.08032097 0.0163858254 0.127935231
v -0.0801972151 0.0163858254 0.128058985
v -0.0802148953 0.0163676478 0.127848178
v -0.08002002 0.01634806 0.127940789
v -0.0800938755 0.016349474 0.127783492
v -0.07996257 0.0163313 0.127743661
v -0.08002045 0.0163676478 0.1281392
v -0.08007349 0.0163858254 0.128182724
v -0.07995994 0.016349474 0.128106847
v -0.0798942745 0.0163313 0.128086925
v -0.079826 0.01631312 0.12790522
v -0.079826 0.01631312 0.1277302
v -0.079826 0.01631312 0.1280802
v -0.079826 0.01631312 0.1277302
v -0.0797515959 0.0163000021 0.1277302
v -0.079826 0.0146868825 0.1277302
v -0.0797515959 0.0147000011 0.1277302
v -0.0791960061 0.0155000016 0.1277302
v -0.0785660148 0.0163000021 0.1277302
v -0.0785660148 0.0147000011 0.1277302
v -0.0797515959 0.0163000021 0.1280802
v -0.079826 0.01631312 0.1280802
v -0.079826 0.0146868825 0.1280802
v -0.0797515959 0.0147000011 0.1280802
v -0.0791960061 0.0155000016 0.1280802
v -0.0785660148 0.0147000011 0.1280802
v -0.0785660148 0.0163000021 0.1280802
v -0.0791588053 0.0147000011 0.1279052
v -0.0797515959 0.0147000011 0.1280802
v -0.0797515959 0.0147000011 0.1277302
v -0.0785660148 0.0147000011 0.1277302
v -0.0785660148 0.0147000011 0.1280802
v -0.0785660148 0.0155000016 0.1279052
v -0.0785660148 0.0147000011 0.1280802
v -0.0785660148 0.0147000011 0.1277302
v -0.0785660148 0.0163000021 0.1277302
v -0.0785660148 0.0163000021 0.1280802
v -0.0791588053 0.0163000021 0.1279052
v -0.0785660148 0.0163000021 0.1280802
v -0.0785660148 0.0163000021 0.1277302
v -0.0797515959 0.0163000021 0.1277302
v -0.0797515959 0.0163000021 0.1280802
v -0.079826 0.01631312 0.12790522
v -0.0797888 0.01630656 0.12790522
v -0.079826 0.01631312 0.1277302
v -0.079826 0.01631312 0.1280802
v -0.0797515959 0.0163000021 0.1277302
v -0.0797515959 0.0163000021 0.1280802
v -0.079826 0.0146868825 0.12790522
v -0.0797888 0.0146934409 0.12790522
v -0.079826 0.0146868825 0.1280802
v -0.079826 0.0146868825 0.1277302
v -0.0797515959 0.0147000011 0.1280802
v -0.0797515959 0.0147000011 0.1277302
v -0.08490001 0.018920958 0.12304
v -0.08540001 0.0187278669 0.12304
v -0.08540001 0.01911405 0.12304
v -0.08440001 0.01911405 0.12304
v -0.08440001 0.0187278669 0.12304
v -0.08490001 0.0190687366 0.123137176
v -0.08540001 0.01911405 0.12304
v -0.08540001 0.019023424 0.123234347
v -0.08440001 0.019023424 0.123234347
v -0.08440001 0.01911405 0.12304
v -0.08490001 0.0187170412 0.123063214
v -0.08440001 0.0187278669 0.12304
v -0.08440001 0.0187062174 0.12308643
v -0.08540001 0.0187062174 0.12308643
v -0.08540001 0.0187278669 0.12304
v -0.08007349 0.014614176 0.128182724
v -0.08002045 0.0155000016 0.1281392
v -0.08007349 0.0163858254 0.128182724
v -0.08002045 0.0146323554 0.1281392
v -0.08002045 0.0163676478 0.1281392
v -0.07995994 0.0146505293 0.128106847
v -0.07995994 0.016349474 0.128106847
v -0.07995994 0.0155000016 0.128106847
v -0.0798942745 0.0146687031 0.128086925
v -0.0798942745 0.0163313 0.128086925
v -0.0798942745 0.0155000016 0.128086925
v -0.079826 0.0146868825 0.1280802
v -0.079826 0.01631312 0.1280802
v -0.08490001 0.0190059282 0.12328589
v -0.08540001 0.0190059282 0.12328589
v -0.08540001 0.0190000013 0.123339996
v -0.08440001 0.0190000013 0.123339996
v -0.08540001 0.019023424 0.123234347
v -0.08440001 0.0190059282 0.12328589
v -0.08440001 0.019023424 0.123234347
v -0.08032097 0.0163858254 0.127935231
v -0.0802148953 0.0155000016 0.127848178
v -0.08032097 0.014614176 0.127935231
v -0.0802148953 0.0163676478 0.127848178
v -0.0802148953 0.0146323554 0.127848178
v -0.0800938755 0.016349474 0.127783492
v -0.0800938755 0.0146505293 0.127783492
v -0.0800938755 0.0155000016 0.127783492
v -0.07996257 0.0163313 0.127743661
v -0.07996257 0.0146687031 0.127743661
v -0.07996257 0.0155000016 0.127743661
v -0.079826 0.01631312 0.1277302
v -0.079826 0.0146868825 0.1277302
v -0.08113068 0.0166185945 0.128992423
v -0.08032097 0.0163858254 0.127935231
v -0.0821878761 0.0168513637 0.129802138
v -0.0820641443 0.0168513637 0.129925862
v -0.0801972151 0.0163858254 0.128058985
v -0.08194038 0.0168513637 0.130049616
v -0.08007349 0.0163858254 0.128182724
v -0.08113068 0.0143814068 0.128992423
v -0.08007349 0.014614176 0.128182724
v -0.08194038 0.0141486377 0.130049616
v -0.0820641443 0.0141486377 0.129925862
v -0.0801972151 0.014614176 0.128058985
v -0.0821878761 0.0141486377 0.129802138
v -0.08032097 0.014614176 0.127935231
v -0.08490001 0.0186642241 0.123210132
v -0.08540001 0.0186642241 0.123210132
v -0.08540001 0.0187062174 0.12308643
v -0.08440001 0.0187062174 0.12308643
v -0.08540001 0.01865 0.123339996
v -0.08440001 0.0186642241 0.123210132
v -0.08440001 0.01865 0.123339996
v -0.08645001 0.018825002 0.12484
v -0.08540001 0.0190000013 0.12484
v -0.08540001 0.01865 0.12484
v -0.087500006 0.01865 0.12484
v -0.087500006 0.0190000013 0.12484
v -0.08765001 0.018825002 0.12499
v -0.087500006 0.0190000013 0.12484
v -0.087500006 0.01865 0.12484
v -0.08780001 0.01865 0.12514
v -0.08780001 0.0190000013 0.12514
v -0.08535001 0.018825002 0.128055438
v -0.08535001 0.0190000013 0.127280429
v -0.08535001 0.01865 0.127280429
v -0.08535001 0.01865 0.128830433
v -0.08535001 0.0190000013 0.128830433
v -0.08610001 0.018825002 0.128830433
v -0.08535001 0.0190000013 0.128830433
v -0.08535001 0.01865 0.128830433
v -0.08685001 0.01865 0.128830433
v -0.08685001 0.0190000013 0.128830433
v -0.08685001 0.018825002 0.128055438
v -0.08685001 0.0190000013 0.128830433
v -0.08685001 0.01865 0.128830433
v -0.08685001 0.01865 0.127280429
v -0.08685001 0.0190000013 0.127280429
v -0.08610001 0.018825002 0.127280429
v -0.08685001 0.0190000013 0.127280429
v -0.08685001 0.01865 0.127280429
v -0.08535001 0.01865 0.127280429
v -0.08535001 0.0190000013 0.127280429
v -0.08100694 0.0155000016 0.129116178
v -0.08194038 0.0168513637 0.130049616
v -0.08194038 0.0141486377 0.130049616
v -0.08007349 0.014614176 0.128182724
v -0.08007349 0.0163858254 0.128182724
v -0.08125442 0.0155000016 0.128868684
v -0.0821878761 0.0141486377 0.129802138
v -0.0821878761 0.0168513637 0.129802138
v -0.08032097 0.0163858254 0.127935231
v -0.08032097 0.014614176 0.127935231
v -0.08240001 0.0140828565 0.130240008
v -0.0822732 0.0155000016 0.1302275
v -0.08240001 0.0169171449 0.130240008
v -0.0822732 0.0140993036 0.1302275
v -0.0822732 0.0169006977 0.1302275
v -0.082151264 0.0141157471 0.130190521
v -0.082151264 0.0168842543 0.130190521
v -0.082151264 0.0155000016 0.130190521
v -0.08203889 0.0141321905 0.130130455
v -0.08203889 0.0168678127 0.130130455
v -0.08203889 0.0155000016 0.130130455
v -0.08194038 0.0141486377 0.130049616
v -0.08194038 0.0168513637 0.130049616
v -0.08440001 0.0186000019 0.13024
v -0.08610001 0.0186727867 0.130233318
v -0.08780001 0.0186000019 0.13024
v -0.08440001 0.0186727867 0.130233318
v -0.08780001 0.0186727867 0.130233318
v -0.08440001 0.0187472384 0.13021192
v -0.08610001 0.0187472384 0.13021192
v -0.08780001 0.0187472384 0.13021192
v -0.08440001 0.0188188851 0.1301748
v -0.08610001 0.0188188851 0.1301748
v -0.08780001 0.0188188851 0.1301748
v -0.08440001 0.0188828446 0.13012284
v -0.08610001 0.0188828446 0.13012284
v -0.08780001 0.0188828446 0.13012284
v -0.08440001 0.0189348 0.130058885
v -0.08610001 0.0189348 0.130058885
v -0.08780001 0.0189348 0.130058885
v -0.08440001 0.0189719163 0.12998724
v -0.08610001 0.0189719163 0.12998724
v -0.08780001 0.0189719163 0.12998724
v -0.08440001 0.0189933237 0.1299128
v -0.08610001 0.0189933237 0.1299128
v -0.08780001 0.0189933237 0.1299128
v -0.08440001 0.0190000013 0.12984
v -0.08780001 0.0190000013 0.12984
v -0.08240001 0.0169171449 0.12989
v -0.0823414847 0.0155000016 0.129884243
v -0.08240001 0.0140828565 0.12989
v -0.08234148 0.0169006977 0.129884243
v -0.08234148 0.0140993036 0.129884243
v -0.0822852 0.0168842543 0.129867166
v -0.0822852 0.0141157471 0.129867166
v -0.0822852 0.0155000016 0.129867166
v -0.08223334 0.0168678127 0.12983945
v -0.08223334 0.0141321905 0.12983945
v -0.08223334 0.0155000016 0.12983945
v -0.0821878761 0.0168513637 0.129802138
v -0.0821878761 0.0141486377 0.129802138
v -0.08440001 0.0172698 0.12989
v -0.08340001 0.0170934722 0.130065
v -0.08240001 0.0169171449 0.12989
v -0.08440001 0.0172698 0.13024
v -0.08240001 0.0169171449 0.130065
v -0.08240001 0.0169171449 0.130240008
v -0.08780001 0.0186000019 0.12989
v -0.08610001 0.0186091 0.12988916
v -0.08440001 0.0186000019 0.12989
v -0.08780001 0.0186091 0.12988916
v -0.08440001 0.0186091 0.12988916
v -0.08780001 0.0186184067 0.1298865
v -0.08610001 0.0186184067 0.1298865
v -0.08440001 0.0186184067 0.1298865
v -0.08780001 0.0186273623 0.129881844
v -0.08610001 0.0186273623 0.129881859
v -0.08440001 0.0186273623 0.129881859
v -0.08780001 0.0186353568 0.129875362
v -0.08610001 0.0186353568 0.129875362
v -0.08440001 0.0186353568 0.129875362
v -0.08780001 0.0186418518 0.12986736
v -0.08610001 0.0186418518 0.12986736
v -0.08440001 0.0186418518 0.12986736
v -0.08780001 0.0186464917 0.1298584
v -0.08610001 0.0186464917 0.1298584
v -0.08440001 0.0186464917 0.1298584
v -0.08780001 0.0186491664 0.1298491
v -0.08610001 0.0186491664 0.1298491
v -0.08440001 0.0186491664 0.1298491
v -0.08780001 0.01865 0.12984
v -0.08440001 0.01865 0.12984
v -0.08440001 0.0137302019 0.13024
v -0.08340001 0.0139065292 0.130065
v -0.08240001 0.0140828565 0.130240008
v -0.08440001 0.0137302019 0.12989
v -0.08240001 0.0140828565 0.130065
v -0.08240001 0.0140828565 0.12989
v -0.08610001 0.01200668 0.1299128
v -0.08440001 0.01200668 0.1299128
v -0.08440001 0.0120280851 0.12998724
v -0.08440001 0.012000002 0.12984
v -0.08780001 0.012000002 0.12984
v -0.08780001 0.01200668 0.1299128
v -0.08610001 0.0120280851 0.12998724
v -0.08440001 0.0120652039 0.130058885
v -0.08780001 0.0120280851 0.12998724
v -0.08610001 0.0120652039 0.130058885
v -0.08440001 0.0121171586 0.13012284
v -0.08780001 0.0120652039 0.130058885
v -0.08610001 0.0121171586 0.13012284
v -0.08440001 0.0121811181 0.1301748
v -0.08780001 0.0121171586 0.13012284
v -0.08610001 0.0121811181 0.1301748
v -0.08440001 0.0122527629 0.13021192
v -0.08780001 0.0121811181 0.1301748
v -0.08610001 0.0122527629 0.13021192
v -0.08440001 0.0123272166 0.130233318
v -0.08780001 0.0122527629 0.13021192
v -0.08610001 0.0123272166 0.130233318
v -0.08440001 0.0124000013 0.13024
v -0.08780001 0.0123272166 0.130233318
v -0.08780001 0.0124000013 0.13024
v -0.08610001 0.0123909023 0.12988916
v -0.08440001 0.0123909023 0.12988916
v -0.08440001 0.0123815965 0.1298865
v -0.08440001 0.0124000013 0.12989
v -0.08780001 0.0124000013 0.12989
v -0.08780001 0.0123909023 0.12988916
v -0.08610001 0.0123815965 0.1298865
v -0.08440001 0.0123726409 0.129881859
v -0.08780001 0.0123815965 0.1298865
v -0.08610001 0.0123726409 0.129881859
v -0.08440001 0.0123646464 0.129875362
v -0.08780001 0.0123726409 0.129881844
v -0.08610001 0.0123646464 0.129875362
v -0.08440001 0.0123581514 0.12986736
v -0.08780001 0.0123646464 0.129875362
v -0.08610001 0.0123581514 0.12986736
v -0.08440001 0.0123535115 0.1298584
v -0.08780001 0.0123581514 0.12986736
v -0.08610001 0.0123535115 0.1298584
v -0.08440001 0.0123508368 0.1298491
v -0.08780001 0.0123535115 0.1298584
v -0.08610001 0.0123508368 0.1298491
v -0.08440001 0.01235 0.12984
v -0.08780001 0.0123508368 0.1298491
v -0.08780001 0.01235 0.12984
v -0.08765001 0.0121750012 0.12499
v -0.08780001 0.012000002 0.12514
v -0.08780001 0.01235 0.12514
v -0.087500006 0.01235 0.12484
v -0.087500006 0.012000002 0.12484
v -0.08645001 0.0121750012 0.12484
v -0.087500006 0.012000002 0.12484
v -0.087500006 0.01235 0.12484
v -0.08540001 0.01235 0.12484
v -0.08540001 0.012000002 0.12484
v -0.08535001 0.0121750012 0.127763078
v -0.08535001 0.012000002 0.128538087
v -0.08535001 0.01235 0.128538087
v -0.08535001 0.01235 0.126988083
v -0.08535001 0.012000002 0.126988083
v -0.08610001 0.0121750012 0.126988083
v -0.08535001 0.012000002 0.126988083
v -0.08535001 0.01235 0.126988083
v -0.08685001 0.01235 0.126988083
v -0.08685001 0.012000002 0.126988083
v -0.08685001 0.0121750012 0.127763078
v -0.08685001 0.012000002 0.126988083
v -0.08685001 0.01235 0.126988083
v -0.08685001 0.01235 0.128538072
v -0.08685001 0.012000002 0.128538072
v -0.08610001 0.0121750012 0.128538072
v -0.08685001 0.012000002 0.128538072
v -0.08685001 0.01235 0.128538072
v -0.08535001 0.01235 0.128538087
v -0.08535001 0.012000002 0.128538087
v -0.08490001 0.0123357791 0.123210132
v -0.08440001 0.0123357791 0.123210132
v -0.08440001 0.0122937858 0.12308643
v -0.08540001 0.0122937858 0.12308643
v -0.08440001 0.01235 0.123339996
v -0.08540001 0.0123357791 0.123210132
v -0.08540001 0.01235 0.123339996
v -0.08490001 0.011994075 0.12328589
v -0.08440001 0.011994075 0.12328589
v -0.08440001 0.012000002 0.123339996
v -0.08540001 0.012000002 0.123339996
v -0.08440001 0.0119765773 0.123234347
v -0.08540001 0.011994075 0.12328589
v -0.08540001 0.0119765773 0.123234347
v -0.08490001 0.01228296 0.123063214
v -0.08540001 0.0122721363 0.12304
v -0.08540001 0.0122937858 0.12308643
v -0.08440001 0.0122937858 0.12308643
v -0.08440001 0.0122721363 0.12304
v -0.08490001 0.0119312666 0.123137176
v -0.08440001 0.0118859541 0.12304
v -0.08440001 0.0119765773 0.123234347
v -0.08540001 0.0119765773 0.123234347
v -0.08540001 0.0118859541 0.12304
v -0.08540001 0.0122721363 0.12304
v -0.08490001 0.0120790452 0.12304
v -0.08540001 0.0118859541 0.12304
v -0.08440001 0.0122721363 0.12304
v -0.08440001 0.0118859541 0.12304
f 1 2 3
f 1 3 4
f 5 1 4
f 6 4 3
f 5 4 7
f 4 6 8
f 4 8 7
f 6 9 8
f 7 8 10
f 9 11 8
f 8 11 10
f 9 12 11
f 10 11 13
f 12 14 11
f 11 14 13
f 12 15 14
f 13 14 16
f 15 17 14
f 14 17 16
f 15 18 17
f 16 17 19
f 18 20 17
f 17 20 19
f 18 21 20
f 21 22 20
f 19 20 23
f 20 22 23
f 21 24 22
f 23 22 25
f 24 26 22
f 22 27 25
f 26 28 22
f 22 28 27
f 26 29 28
f 28 30 27
f 29 31 28
f 28 31 30
f 29 32 31
f 32 30 31
f 33 32 29
f 32 34 30
f 35 32 33
f 32 35 34
f 36 35 33
f 35 37 34
f 38 35 36
f 35 38 37
f 39 38 36
f 38 40 37
f 41 38 39
f 38 41 40
f 42 41 39
f 41 43 40
f 44 41 42
f 41 44 43
f 45 44 42
f 44 46 43
f 47 44 45
f 44 47 46
f 48 47 45
f 47 49 46
f 47 48 49
f 50 51 52
f 50 52 53
f 54 50 53
f 55 53 52
f 54 53 56
f 53 55 57
f 53 57 56
f 55 58 57
f 56 57 59
f 58 60 57
f 57 60 59
f 58 61 60
f 59 60 62
f 61 63 60
f 60 63 62
f 61 64 63
f 62 63 65
f 64 66 63
f 63 66 65
f 64 67 66
f 65 66 68
f 67 69 66
f 66 69 68
f 67 70 69
f 70 71 69
f 68 69 72
f 69 71 72
f 70 73 71
f 72 71 74
f 73 75 71
f 71 76 74
f 75 77 71
f 71 77 76
f 75 78 77
f 77 79 76
f 78 80 77
f 77 80 79
f 78 81 80
f 81 79 80
f 82 81 78
f 81 83 79
f 84 81 82
f 81 84 83
f 85 84 82
f 84 86 83
f 87 84 85
f 84 87 86
f 88 87 85
f 87 89 86
f 90 87 88
f 87 90 89
f 91 90 88
f 90 92 89
f 93 90 91
f 90 93 92
f 94 93 91
f 93 95 92
f 96 93 94
f 93 96 95
f 97 96 94
f 96 98 95
f 96 97 98
f 99 100 101
f 100 102 101
f 102 103 101
f 103 104 101
f 104 105 101
f 104 106 105
f 104 107 106
f 107 108 106
f 109 107 104
f 107 109 108
f 109 110 108
f 110 111 108
f 111 112 108
f 111 113 112
f 108 112 114
f 111 115 113
f 108 114 116
f 117 108 116
f 117 116 118
f 119 117 118
f 115 120 113
f 115 121 120
f 121 122 120
f 122 123 120
f 123 124 120
f 124 125 120
f 125 126 120
f 125 127 126
f 128 129 130
f 129 131 130
f 129 132 131
f 132 129 133
f 129 134 133
f 134 135 133
f 135 136 133
f 135 137 136
f 138 133 136
f 137 138 136
f 139 140 141
f 142 140 139
f 142 143 140
f 142 144 143
f 144 145 143
f 144 146 145
f 146 147 145
f 145 147 148
f 147 149 148
f 150 139 149
f 150 142 139
f 147 150 149
f 142 150 147
f 151 152 153
f 152 151 154
f 151 155 154
f 155 156 154
f 155 157 156
f 155 158 157
f 158 159 157
f 158 160 159
f 160 161 159
f 161 152 162
f 152 154 162
f 161 162 159
f 159 162 154
f 163 164 165
f 163 166 164
f 166 167 164
f 166 168 167
f 168 169 167
f 168 170 169
f 168 171 170
f 171 172 170
f 171 173 172
f 171 174 173
f 174 175 173
f 174 176 175
f 176 177 175
f 176 178 177
f 178 179 177
f 179 180 177
f 179 181 180
f 181 182 180
f 182 183 180
f 182 184 183
f 184 185 183
f 185 186 183
f 185 187 186
f 187 185 188
f 185 189 188
f 185 190 189
f 190 185 191
f 185 192 191
f 185 193 192
f 193 185 194
f 195 193 194
f 193 195 196
f 193 196 197
f 198 193 197
f 193 198 199
f 193 199 200
f 201 193 200
f 201 200 202
f 203 204 205
f 204 206 205
f 204 207 206
f 207 204 208
f 204 209 208
f 204 210 209
f 204 211 210
f 211 212 210
f 211 213 212
f 213 211 214
f 211 215 214
f 214 215 216
f 215 217 216
f 215 218 217
f 218 215 219
f 215 220 219
f 215 221 220
f 221 215 222
f 215 223 222
f 211 224 215
f 215 225 223
f 225 215 226
f 225 227 223
f 215 228 226
f 215 229 228
f 229 215 230
f 215 231 230
f 215 232 231
f 232 215 233
f 224 233 215
f 224 234 233
f 234 224 235
f 224 236 235
f 224 237 236
f 237 238 236
f 237 239 238
f 239 237 240
f 237 241 240
f 237 242 241
f 242 237 243
f 244 245 246
f 245 247 246
f 245 248 247
f 248 245 249
f 245 250 249
f 245 251 250
f 245 252 251
f 252 253 251
f 252 254 253
f 254 252 255
f 252 256 255
f 255 256 257
f 256 258 257
f 256 259 258
f 259 256 260
f 256 261 260
f 256 262 261
f 262 256 263
f 256 264 263
f 252 265 256
f 256 266 264
f 266 256 267
f 266 268 264
f 256 269 267
f 256 270 269
f 270 256 271
f 256 272 271
f 256 273 272
f 273 256 274
f 265 274 256
f 265 275 274
f 275 265 276
f 265 277 276
f 265 278 277
f 278 279 277
f 278 280 279
f 280 278 281
f 278 282 281
f 278 283 282
f 283 278 284
f 285 286 287
f 285 287 288
f 289 285 288
f 289 290 285
f 290 291 285
f 290 292 291
f 292 293 291
f 292 294 293
f 294 292 295
f 292 296 295
f 292 297 296
f 295 296 298
f 297 299 296
f 296 300 298
f 296 301 300
f 299 302 296
f 302 303 296
f 303 304 296
f 304 305 296
f 304 306 305
f 306 307 305
f 305 307 308
f 307 309 308
f 307 310 309
f 306 311 307
f 311 306 312
f 313 314 315
f 314 316 315
f 315 316 317
f 316 318 317
f 314 319 316
f 319 314 320
f 319 321 316
f 321 322 316
f 316 323 318
f 322 323 316
f 323 324 318
f 322 325 323
f 326 327 328
f 329 326 328
f 329 328 330
f 331 329 330
f 332 331 330
f 332 330 333
f 334 332 333
f 334 333 335
f 336 334 335
f 329 337 326
f 337 336 326
f 337 334 336
f 334 337 329
f 338 339 340
f 339 341 340
f 340 341 342
f 341 343 342
f 339 344 341
f 344 339 345
f 344 346 341
f 346 347 341
f 341 348 343
f 347 348 341
f 348 349 343
f 347 350 348
f 351 352 353
f 354 351 353
f 351 354 355
f 354 356 355
f 356 357 355
f 356 358 357
f 358 359 357
f 359 360 357
f 359 361 360
f 359 354 362
f 354 353 362
f 361 359 362
f 353 361 363
f 361 362 363
f 353 363 362
f 364 365 366
f 365 367 366
f 367 365 368
f 367 368 369
f 370 367 369
f 366 367 371
f 367 370 371
f 371 370 372
f 371 372 373
f 374 371 373
f 375 376 377
f 376 378 377
f 377 378 379
f 378 380 379
f 376 381 378
f 381 376 382
f 381 383 378
f 383 384 378
f 378 385 380
f 384 385 378
f 385 386 380
f 384 387 385
f 388 389 390
f 389 391 390
f 390 391 392
f 391 393 392
f 389 394 391
f 394 389 395
f 394 396 391
f 396 397 391
f 391 398 393
f 397 398 391
f 398 399 393
f 397 400 398
f 401 402 403
f 402 404 403
f 402 405 404
f 405 402 406
f 404 405 407
f 405 406 407
f 408 409 410
f 408 410 411
f 412 408 411
f 412 411 413
f 408 412 414
f 414 412 413
f 415 416 417
f 415 417 418
f 416 415 419
f 419 415 418
f 420 421 422
f 420 422 423
f 421 420 424
f 424 420 423
f 425 426 427
f 425 427 428
f 426 425 429
f 429 425 428
f 430 431 432
f 431 430 433
f 431 434 432
f 431 433 435
f 434 431 435
f 436 437 438
f 437 436 439
f 437 440 438
f 437 439 441
f 440 437 441
f 442 443 444
f 442 444 445
f 443 442 446
f 446 442 445
f 447 448 449
f 447 449 450
f 448 447 451
f 451 447 450
f 452 453 454
f 452 454 455
f 453 452 456
f 456 452 455
f 457 458 459
f 458 457 460
f 458 461 459
f 458 460 462
f 458 463 461
f 464 458 462
f 458 464 463
f 464 462 465
f 464 466 463
f 467 464 465
f 464 467 466
f 467 465 468
f 466 467 469
f 467 468 469
f 470 471 472
f 473 470 472
f 470 474 471
f 470 473 475
f 474 470 476
f 470 475 476
f 477 478 479
f 478 477 480
f 478 481 479
f 478 480 482
f 478 483 481
f 484 478 482
f 478 484 483
f 484 482 485
f 484 486 483
f 487 484 485
f 484 487 486
f 487 485 488
f 486 487 489
f 487 488 489
f 490 491 492
f 493 490 492
f 490 494 491
f 490 493 495
f 494 490 496
f 490 495 496
f 497 498 499
f 500 497 499
f 497 501 498
f 497 500 502
f 501 497 503
f 497 502 503
f 504 505 506
f 507 504 506
f 504 508 505
f 504 507 509
f 508 504 510
f 504 509 510
f 511 512 513
f 511 513 514
f 512 511 515
f 515 511 514
f 516 517 518
f 516 518 519
f 517 516 520
f 520 516 519
f 521 522 523
f 521 523 524
f 522 521 525
f 525 521 524
f 526 527 528
f 526 528 529
f 527 526 530
f 530 526 529
f 531 532 533
f 531 533 534
f 532 531 535
f 535 531 534
f 536 537 538
f 536 538 539
f 537 536 540
f 540 536 539
f 541 542 543
f 541 543 544
f 542 541 545
f 545 541 544
f 546 547 548
f 549 546 548
f 546 550 547
f 550 546 549
f 551 552 553
f 552 551 554
f 552 555 553
f 552 554 556
f 552 557 555
f 558 552 556
f 552 558 557
f 558 556 559
f 558 560 557
f 561 558 559
f 558 561 560
f 561 559 562
f 560 561 563
f 561 562 563
f 564 565 566
f 565 564 567
f 565 568 566
f 565 567 569
f 565 570 568
f 570 565 569
f 570 571 568
f 570 569 572
f 570 573 571
f 573 570 572
f 573 574 571
f 573 572 575
f 573 576 574
f 576 573 575
f 576 577 574
f 576 575 578
f 576 579 577
f 579 576 578
f 579 580 577
f 579 578 581
f 579 582 580
f 582 579 581
f 582 583 580
f 582 581 584
f 582 585 583
f 585 582 584
f 585 586 583
f 585 584 587
f 586 585 588
f 585 587 588
f 589 590 591
f 590 589 592
f 590 593 591
f 590 592 594
f 590 595 593
f 596 590 594
f 590 596 595
f 596 594 597
f 596 598 595
f 599 596 597
f 596 599 598
f 599 597 600
f 598 599 601
f 599 600 601
f 602 603 604
f 603 602 605
f 603 606 604
f 603 605 607
f 606 603 607
f 608 609 610
f 609 608 611
f 609 612 610
f 609 611 613
f 609 614 612
f 614 609 613
f 614 615 612
f 614 613 616
f 614 617 615
f 617 614 616
f 617 618 615
f 617 616 619
f 617 620 618
f 620 617 619
f 620 621 618
f 620 619 622
f 620 623 621
f 623 620 622
f 623 624 621
f 623 622 625
f 623 626 624
f 626 623 625
f 626 627 624
f 626 625 628
f 626 629 627
f 629 626 628
f 629 630 627
f 629 628 631
f 630 629 632
f 629 631 632
f 633 634 635
f 634 633 636
f 634 637 635
f 634 636 638
f 637 634 638
f 639 640 641
f 639 642 640
f 642 639 643
f 639 644 643
f 645 639 641
f 639 645 644
f 645 641 646
f 645 647 644
f 648 645 646
f 645 648 647
f 648 646 649
f 648 650 647
f 651 648 649
f 648 651 650
f 651 649 652
f 651 653 650
f 654 651 652
f 651 654 653
f 654 652 655
f 654 656 653
f 657 654 655
f 654 657 656
f 657 655 658
f 657 659 656
f 660 657 658
f 657 660 659
f 660 658 661
f 660 662 659
f 663 660 661
f 660 663 662
f 664 665 666
f 664 667 665
f 667 664 668
f 664 669 668
f 670 664 666
f 664 670 669
f 670 666 671
f 670 672 669
f 673 670 671
f 670 673 672
f 673 671 674
f 673 675 672
f 676 673 674
f 673 676 675
f 676 674 677
f 676 678 675
f 679 676 677
f 676 679 678
f 679 677 680
f 679 681 678
f 682 679 680
f 679 682 681
f 682 680 683
f 682 684 681
f 685 682 683
f 682 685 684
f 685 683 686
f 685 687 684
f 688 685 686
f 685 688 687
f 689 690 691
f 689 691 692
f 690 689 693
f 693 689 692
f 694 695 696
f 694 696 697
f 695 694 698
f 698 694 697
f 699 700 701
f 699 701 702
f 700 699 703
f 703 699 702
f 704 705 706
f 704 706 707
f 705 704 708
f 708 704 707
f 709 710 711
f 709 711 712
f 710 709 713
f 713 709 712
f 714 715 716
f 714 716 717
f 715 714 718
f 718 714 717
f 719 720 721
f 722 719 721
f 719 723 720
f 719 722 724
f 723 719 725
f 719 724 725
f 726 727 728
f 729 726 728
f 726 730 727
f 726 729 731
f 730 726 732
f 726 731 732
f 733 734 735
f 733 735 736
f 734 733 737
f 737 733 736
f 738 739 740
f 738 740 741
f 739 738 742
f 742 738 741
f 743 744 745
f 746 744 743
f 744 747 745
f 744 746 747
