# ROS coordinates: X forward, Y left, Z up; units are metres.
o mesh
v -0.07626591 0.0150000006 0.12503916
v -0.0762750059 0.0150000006 0.12529
v -0.0762750059 0.0150000006 0.12504
v -0.0762566 0.0150000006 0.1250365
v -0.07624765 0.0150000006 0.125031859
v -0.07622042 0.0150000006 0.125285
v -0.07623965 0.0150000006 0.125025362
v -0.076233156 0.0150000006 0.12501736
v -0.0762285143 0.0150000006 0.1250084
v -0.07622584 0.0150000006 0.1249991
v -0.0762250051 0.0150000006 0.12499
v -0.07616457 0.0150000006 0.125268936
v -0.076125 0.0150000006 0.124165
v -0.0762250051 0.0150000006 0.123040006
v -0.07611085 0.0150000006 0.1252411
v -0.07597501 0.0150000006 0.123040006
v -0.07606287 0.0150000006 0.125202134
v -0.07602391 0.0150000006 0.125154167
v -0.07597501 0.0150000006 0.12499
v -0.07599607 0.0150000006 0.125100434
v -0.0759800151 0.0150000006 0.125044584
v -0.07599607 0.016 0.125100434
v -0.0759800151 0.016 0.125044584
v -0.07597501 0.016 0.12499
v -0.076125 0.016 0.124165
v -0.07597501 0.016 0.123040006
v -0.07602391 0.016 0.125154167
v -0.0762250051 0.016 0.123040006
v -0.07606287 0.016 0.125202134
v -0.07611085 0.016 0.1252411
v -0.07616457 0.016 0.125268936
v -0.0762250051 0.016 0.12499
v -0.07622042 0.016 0.125285
v -0.07622584 0.016 0.1249991
v -0.0762285143 0.016 0.1250084
v -0.076233156 0.016 0.12501736
v -0.07623965 0.016 0.125025362
v -0.07624765 0.016 0.125031859
v -0.0762750059 0.016 0.12529
v -0.0762566 0.016 0.1250365
v -0.07626591 0.016 0.12503916
v -0.0762750059 0.016 0.12504
v -0.0762750059 0.0146000013 0.12529
v -0.0762750059 0.0146000013 0.12504
v -0.0763113946 0.014603341 0.12504
v -0.0763167143 0.014604399 0.125165
v -0.0763113946 0.014603341 0.12529
v -0.0763486251 0.0146140438 0.12504
v -0.0763486251 0.0146140438 0.12529
v -0.07635911 0.0146185439 0.125165
v -0.07638445 0.0146326013 0.12504
v -0.076384455 0.0146326013 0.12529
v -0.07639876 0.0146428887 0.125165
v -0.0764164254 0.01465858 0.12504
v -0.07641643 0.01465858 0.12529
v -0.07643212 0.0146762449 0.125165
v -0.0764424056 0.0146905594 0.12504
v -0.0764424056 0.0146905594 0.12529
v -0.0764564648 0.0147158969 0.125165
v -0.076460965 0.0147263817 0.12504
v -0.076460965 0.0147263817 0.12529
v -0.07647061 0.0147582944 0.125165
v -0.07647167 0.0147636086 0.12504
v -0.07647501 0.0148000009 0.125165
v -0.07647167 0.0147636086 0.12529
v -0.07647501 0.0148000009 0.12504
v -0.07647501 0.0148000009 0.12529
v -0.07647167 0.0148363933 0.12504
v -0.07647167 0.0148363933 0.12529
v -0.07647061 0.0148417074 0.125165
v -0.076460965 0.01487362 0.12504
v -0.076460965 0.01487362 0.12529
v -0.076460965 0.01487362 0.125165
v -0.0764455348 0.0149045046 0.125165
v -0.0764424056 0.0149094425 0.12504
v -0.0764424056 0.0149094425 0.12529
v -0.07642454 0.014932815 0.125165
v -0.0764164254 0.0149414223 0.12504
v -0.07641643 0.0149414223 0.12529
v -0.07639876 0.0149571132 0.125165
v -0.07638445 0.0149674006 0.12504
v -0.076384455 0.0149674006 0.12529
v -0.07636943 0.0149763115 0.125165
v -0.0763486251 0.0149859581 0.12504
v -0.0763486251 0.0149859581 0.12529
v -0.07633802 0.0149898119 0.125165
v -0.0763113946 0.0149966627 0.12504
v -0.0763113946 0.0149966627 0.12529
v -0.0763061047 0.01499757 0.125165
v -0.0762750059 0.0150000006 0.12504
v -0.0762750059 0.0150000006 0.12529
v -0.07997501 0.0139000006 0.12529
v -0.07997501 0.0146000013 0.12529
v -0.08097501 0.0140763279 0.12529
v -0.07997501 0.0164000019 0.12529
v -0.08097501 0.0169236735 0.12529
v -0.07997501 0.0171 0.12529
v -0.07862501 0.0155000016 0.12529
v -0.0788750052 0.0146000013 0.12529
v -0.0788750052 0.0164000019 0.12529
v -0.07647167 0.0148363933 0.12529
v -0.076460965 0.01487362 0.12529
v -0.07647501 0.0148000009 0.12529
v -0.07647167 0.0147636086 0.12529
v -0.076460965 0.0147263817 0.12529
v -0.0764424056 0.0149094425 0.12529
v -0.0788750052 0.0145000014 0.12529
v -0.0764424056 0.0146905594 0.12529
v -0.07641643 0.01465858 0.12529
v -0.0788750052 0.0139000006 0.12529
v -0.0762750059 0.0139000006 0.12529
v -0.076384455 0.0146326013 0.12529
v -0.0763486251 0.0146140438 0.12529
v -0.0763113946 0.014603341 0.12529
v -0.0762750059 0.0146000013 0.12529
v -0.07641643 0.0149414223 0.12529
v -0.07641643 0.01605858 0.12529
v -0.076384455 0.0149674006 0.12529
v -0.076384455 0.0160326026 0.12529
v -0.0764424056 0.0160905588 0.12529
v -0.076460965 0.0161263831 0.12529
v -0.07647167 0.0161636081 0.12529
v -0.0763486251 0.0149859581 0.12529
v -0.0763486251 0.0160140432 0.12529
v -0.0763113946 0.01600334 0.12529
v -0.0763113946 0.0149966627 0.12529
v -0.0762750059 0.016 0.12529
v -0.0762750059 0.0150000006 0.12529
v -0.07647501 0.0162 0.12529
v -0.07647167 0.0162363946 0.12529
v -0.076460965 0.01627362 0.12529
v -0.0788750052 0.0165000018 0.12529
v -0.0764424056 0.0163094439 0.12529
v -0.07641643 0.0163414218 0.12529
v -0.0788750052 0.0171 0.12529
v -0.0762750059 0.0171 0.12529
v -0.076384455 0.0163674 0.12529
v -0.0763486251 0.01638596 0.12529
v -0.0763113946 0.0163966622 0.12529
v -0.0762750059 0.0164000019 0.12529
v -0.0762750059 0.016 0.12529
v -0.0762750059 0.016 0.12504
v -0.0763113946 0.01600334 0.12504
v -0.0763167143 0.0160043985 0.125165
v -0.0763113946 0.01600334 0.12529
v -0.0763486251 0.0160140432 0.12504
v -0.0763486251 0.0160140432 0.12529
v -0.07635911 0.0160185453 0.125165
v -0.07638445 0.0160326026 0.12504
v -0.076384455 0.0160326026 0.12529
v -0.07639876 0.0160428882 0.125165
v -0.0764164254 0.01605858 0.12504
v -0.07641643 0.01605858 0.12529
v -0.07643212 0.0160762444 0.125165
v -0.0764424056 0.0160905588 0.12504
v -0.0764424056 0.0160905588 0.12529
v -0.0764564648 0.0161158964 0.125165
v -0.076460965 0.0161263831 0.12504
v -0.076460965 0.0161263831 0.12529
v -0.07647061 0.0161582939 0.125165
v -0.07647167 0.0161636081 0.12504
v -0.07647501 0.0162 0.125165
v -0.07647167 0.0161636081 0.12529
v -0.07647501 0.0162 0.12504
v -0.07647501 0.0162 0.12529
v -0.07647167 0.0162363946 0.12504
v -0.07647167 0.0162363946 0.12529
v -0.07647061 0.0162417088 0.125165
v -0.076460965 0.01627362 0.12504
v -0.076460965 0.01627362 0.12529
v -0.076460965 0.01627362 0.125165
v -0.0764455348 0.0163045041 0.125165
v -0.0764424056 0.0163094439 0.12504
v -0.0764424056 0.0163094439 0.12529
v -0.07642454 0.0163328145 0.125165
v -0.0764164254 0.0163414218 0.12504
v -0.07641643 0.0163414218 0.12529
v -0.07639876 0.0163571145 0.125165
v -0.07638445 0.0163674 0.12504
v -0.076384455 0.0163674 0.12529
v -0.07636943 0.016376311 0.125165
v -0.0763486251 0.01638596 0.12504
v -0.0763486251 0.01638596 0.12529
v -0.07633802 0.0163898133 0.125165
v -0.0763113946 0.0163966622 0.12504
v -0.0763113946 0.0163966622 0.12529
v -0.0763061047 0.01639757 0.125165
v -0.0762750059 0.0164000019 0.12504
v -0.0762750059 0.0164000019 0.12529
v -0.0762750059 0.0139000006 0.12504
v -0.0762750059 0.0139000006 0.12529
v -0.0788750052 0.0139000006 0.12504
v -0.0788750052 0.0139000006 0.12529
v -0.07902501 0.0139000006 0.1252498
v -0.0789526552 0.0139000006 0.125279784
v -0.0788815 0.0139000006 0.125039577
v -0.07888795 0.0139000006 0.1250383
v -0.07889417 0.0139000006 0.12503618
v -0.07890001 0.0139000006 0.1250333
v -0.07981168 0.0139000006 0.124795623
v -0.07968668 0.0139000006 0.124579117
v -0.07890001 0.0171 0.1250333
v -0.07968668 0.0171 0.124579117
v -0.07981168 0.0171 0.124795623
v -0.07902501 0.0171 0.1252498
v -0.07888795 0.0171 0.1250383
v -0.0788750052 0.0171 0.12504
v -0.0788750052 0.0171 0.12529
v -0.0789526552 0.0171 0.125279784
v -0.0762750059 0.0171 0.12504
v -0.0762750059 0.0171 0.12529
v -0.08097501 0.0140763279 0.125165
v -0.08097501 0.0140763279 0.12529
v -0.0810271 0.0140894074 0.125294566
v -0.0810490251 0.0140894074 0.125170246
v -0.08097501 0.0140763279 0.12504
v -0.08107051 0.0140894074 0.125048384
v -0.0811631158 0.0141024869 0.125073165
v -0.0811203644 0.0141024869 0.125190631
v -0.08107761 0.0141024869 0.1253081
v -0.0788750052 0.0145000014 0.12529
v -0.0788750052 0.0145000014 0.12504
v -0.0789526552 0.0145000014 0.125279784
v -0.0788815 0.0145000014 0.125039577
v -0.07902501 0.0145000014 0.1252498
v -0.07888795 0.0145000014 0.1250383
v -0.07889417 0.0145000014 0.12503618
v -0.07890001 0.0145000014 0.1250333
v -0.07934334 0.0145000014 0.124934562
v -0.07968668 0.0145000014 0.124579117
v -0.07981168 0.0145000014 0.124795623
v -0.07997501 0.0171 0.12504
v -0.07997501 0.0164000019 0.12504
v -0.08097501 0.0169236735 0.12504
v -0.07997501 0.0146000013 0.12504
v -0.08097501 0.0140763279 0.12504
v -0.07997501 0.0139000006 0.12504
v -0.07862501 0.0155000016 0.12504
v -0.0788750052 0.0164000019 0.12504
v -0.0788750052 0.0146000013 0.12504
v -0.07647167 0.0161636081 0.12504
v -0.076460965 0.0161263831 0.12504
v -0.07647501 0.0162 0.12504
v -0.07647167 0.0162363946 0.12504
v -0.076460965 0.01627362 0.12504
v -0.0764424056 0.0160905588 0.12504
v -0.0788750052 0.0165000018 0.12504
v -0.0764424056 0.0163094439 0.12504
v -0.0764164254 0.0163414218 0.12504
v -0.0788750052 0.0171 0.12504
v -0.0762750059 0.0171 0.12504
v -0.07638445 0.0163674 0.12504
v -0.0763486251 0.01638596 0.12504
v -0.0763113946 0.0163966622 0.12504
v -0.0762750059 0.0164000019 0.12504
v -0.0764164254 0.01605858 0.12504
v -0.0764164254 0.0149414223 0.12504
v -0.07638445 0.0149674006 0.12504
v -0.07638445 0.0160326026 0.12504
v -0.0763486251 0.0149859581 0.12504
v -0.0763486251 0.0160140432 0.12504
v -0.0763113946 0.0149966627 0.12504
v -0.0763113946 0.01600334 0.12504
v -0.0762750059 0.0150000006 0.12504
v -0.0762750059 0.016 0.12504
v -0.0764424056 0.0149094425 0.12504
v -0.076460965 0.01487362 0.12504
v -0.07647167 0.0148363933 0.12504
v -0.07647501 0.0148000009 0.12504
v -0.07647167 0.0147636086 0.12504
v -0.076460965 0.0147263817 0.12504
v -0.0788750052 0.0145000014 0.12504
v -0.0764424056 0.0146905594 0.12504
v -0.0764164254 0.01465858 0.12504
v -0.0788750052 0.0139000006 0.12504
v -0.0762750059 0.0139000006 0.12504
v -0.07638445 0.0146326013 0.12504
v -0.0763486251 0.0146140438 0.12504
v -0.0763113946 0.014603341 0.12504
v -0.0762750059 0.0146000013 0.12504
v -0.0788750052 0.0165000018 0.12529
v -0.0789526552 0.0165000018 0.125279784
v -0.0788750052 0.0165000018 0.12504
v -0.07888795 0.0165000018 0.1250383
v -0.07902501 0.0165000018 0.1252498
v -0.07890001 0.0165000018 0.1250333
v -0.07934334 0.0165000018 0.124934562
v -0.07981168 0.0165000018 0.124795623
v -0.07968668 0.0165000018 0.124579117
v -0.08097501 0.0169236735 0.12529
v -0.08097501 0.0169236735 0.125165
v -0.0810271 0.0169105958 0.125294566
v -0.0810490251 0.0169105958 0.125170246
v -0.08097501 0.0169236735 0.12504
v -0.08107051 0.0169105958 0.125048384
v -0.0811631158 0.0168975163 0.125073165
v -0.0811203644 0.0168975163 0.125190631
v -0.08107761 0.0168975163 0.1253081
v -0.0857212543 0.0163373873 0.126998246
v -0.0857212543 0.014662616 0.126998246
v -0.08406269 0.0163373873 0.12639457
v -0.08339943 0.0155000016 0.126153171
v -0.08406269 0.014662616 0.12639457
v -0.08107761 0.0168975163 0.1253081
v -0.08107761 0.0141024869 0.1253081
v -0.08580676 0.014662616 0.126763314
v -0.08414819 0.014662616 0.126159638
v -0.08406269 0.014662616 0.12639457
v -0.0857212543 0.014662616 0.126998246
v -0.08585378 0.014662616 0.127033144
v -0.0859986842 0.014662616 0.127043173
v -0.086148724 0.014662616 0.127023727
v -0.0858951062 0.014662616 0.12678659
v -0.08629473 0.014662616 0.1269732
v -0.08599171 0.014662616 0.12679328
v -0.08609174 0.014662616 0.1267803
v -0.0864272863 0.014662616 0.126893833
v -0.08618908 0.014662616 0.126746625
v -0.08653863 0.014662616 0.126791388
v -0.0862774551 0.014662616 0.126693711
v -0.08635168 0.014662616 0.126625419
v -0.08662409 0.014662616 0.126673937
v -0.08640865 0.014662616 0.126547113
v -0.0866825357 0.014662616 0.126549989
v -0.08644761 0.014662616 0.126464486
v -0.08414819 0.0163373873 0.126159638
v -0.0857212543 0.0163373873 0.126998246
v -0.08406269 0.0163373873 0.12639457
v -0.08580676 0.0163373873 0.126763314
v -0.08585378 0.0163373873 0.127033144
v -0.0859986842 0.0163373873 0.127043173
v -0.086148724 0.0163373873 0.127023727
v -0.0858951062 0.0163373873 0.12678659
v -0.08629473 0.0163373873 0.1269732
v -0.08599171 0.0163373873 0.12679328
v -0.08609174 0.0163373873 0.1267803
v -0.0864272863 0.0163373873 0.126893833
v -0.08618908 0.0163373873 0.126746625
v -0.08653863 0.0163373873 0.126791388
v -0.0862774551 0.0163373873 0.126693711
v -0.08635168 0.0163373873 0.126625419
v -0.08662409 0.0163373873 0.126673937
v -0.08640865 0.0163373873 0.126547113
v -0.0866825357 0.0163373873 0.126549989
v -0.08644761 0.0163373873 0.126464486
v -0.08580676 0.0163373873 0.126763314
v -0.08414819 0.014662616 0.126159638
v -0.08580676 0.014662616 0.126763314
v -0.08348494 0.0155000016 0.125918239
v -0.0811631158 0.0141024869 0.125073165
v -0.08414819 0.0163373873 0.126159638
v -0.0811631158 0.0168975163 0.125073165
v -0.0858951062 0.0155000016 0.12678659
v -0.0858951062 0.014662616 0.12678659
v -0.08599171 0.014662616 0.12679328
v -0.08580676 0.014662616 0.126763314
v -0.08580676 0.0163373873 0.126763314
v -0.0858951062 0.0163373873 0.12678659
v -0.08599171 0.0155000016 0.12679328
v -0.08609174 0.014662616 0.1267803
v -0.08599171 0.0163373873 0.12679328
v -0.08609174 0.0155000016 0.1267803
v -0.08618908 0.014662616 0.126746625
v -0.08609174 0.0163373873 0.1267803
v -0.08618908 0.0155000016 0.126746625
v -0.0862774551 0.014662616 0.126693711
v -0.08618908 0.0163373873 0.126746625
v -0.0862774551 0.0155000016 0.126693711
v -0.08635168 0.014662616 0.126625419
v -0.0862774551 0.0163373873 0.126693711
v -0.08635168 0.0155000016 0.126625419
v -0.08640865 0.014662616 0.126547113
v -0.08635168 0.0163373873 0.126625419
v -0.08640865 0.0155000016 0.126547113
v -0.08644761 0.014662616 0.126464486
v -0.08640865 0.0163373873 0.126547113
v -0.08644761 0.0163373873 0.126464486
v -0.08656508 0.0155000016 0.126507238
v -0.08644761 0.014662616 0.126464486
v -0.0866825357 0.014662616 0.126549989
v -0.0866825357 0.0163373873 0.126549989
v -0.08644761 0.0163373873 0.126464486
v -0.07929334 0.0168000013 0.12480621
v -0.07890001 0.0165000018 0.1250333
v -0.07968668 0.0165000018 0.124579117
v -0.07968668 0.0171 0.124579117
v -0.07890001 0.0171 0.1250333
v -0.07929334 0.014200002 0.12480621
v -0.07968668 0.0139000006 0.124579117
v -0.07968668 0.0145000014 0.124579117
v -0.07890001 0.0145000014 0.1250333
v -0.07890001 0.0139000006 0.1250333
v -0.08662409 0.0155000016 0.126673937
v -0.08662409 0.014662616 0.126673937
v -0.08653863 0.014662616 0.126791388
v -0.0866825357 0.014662616 0.126549989
v -0.0866825357 0.0163373873 0.126549989
v -0.08662409 0.0163373873 0.126673937
v -0.08653863 0.0155000016 0.126791388
v -0.0864272863 0.014662616 0.126893833
v -0.08653863 0.0163373873 0.126791388
v -0.0864272863 0.0155000016 0.126893833
v -0.08629473 0.014662616 0.1269732
v -0.0864272863 0.0163373873 0.126893833
v -0.08629473 0.0155000016 0.1269732
v -0.086148724 0.014662616 0.127023727
v -0.08629473 0.0163373873 0.1269732
v -0.086148724 0.0155000016 0.127023727
v -0.0859986842 0.014662616 0.127043173
v -0.086148724 0.0163373873 0.127023727
v -0.0859986842 0.0155000016 0.127043173
v -0.08585378 0.014662616 0.127033144
v -0.0859986842 0.0163373873 0.127043173
v -0.08585378 0.0155000016 0.127033144
v -0.0857212543 0.014662616 0.126998246
v -0.08585378 0.0163373873 0.127033144
v -0.0857212543 0.0163373873 0.126998246
v -0.0811203644 0.0168975163 0.125190631
v -0.0826129 0.01661745 0.125733867
v -0.08107761 0.0168975163 0.1253081
v -0.0811631158 0.0168975163 0.125073165
v -0.08406269 0.0163373873 0.12639457
v -0.08414819 0.0163373873 0.126159638
v -0.0811203644 0.0141024869 0.125190631
v -0.0826129 0.0143825505 0.125733867
v -0.0811631158 0.0141024869 0.125073165
v -0.08107761 0.0141024869 0.1253081
v -0.08414819 0.014662616 0.126159638
v -0.08406269 0.014662616 0.12639457
v -0.07974918 0.0168000013 0.124687374
v -0.07968668 0.0165000018 0.124579117
v -0.07981168 0.0165000018 0.124795623
v -0.07981168 0.0171 0.124795623
v -0.07968668 0.0171 0.124579117
v -0.08107051 0.0155000016 0.125048354
v -0.08097501 0.0169236735 0.12504
v -0.08097501 0.0140763279 0.12504
v -0.08107051 0.0140894074 0.125048384
v -0.08107051 0.0169105958 0.125048384
v -0.0811631158 0.0141024869 0.125073165
v -0.0811631158 0.0168975163 0.125073165
v -0.07888795 0.0168000013 0.1250383
v -0.0788750052 0.0171 0.12504
v -0.0788750052 0.0165000018 0.12504
v -0.07888795 0.0165000018 0.1250383
v -0.07888795 0.0171 0.1250383
v -0.07890001 0.0165000018 0.1250333
v -0.07890001 0.0171 0.1250333
v -0.07974918 0.014200002 0.124687374
v -0.07968668 0.0139000006 0.124579117
v -0.07981168 0.0139000006 0.124795623
v -0.07981168 0.0145000014 0.124795623
v -0.07968668 0.0145000014 0.124579117
v -0.07889417 0.014200002 0.12503618
v -0.07889417 0.0145000014 0.12503618
v -0.07888795 0.0145000014 0.1250383
v -0.07890001 0.0145000014 0.1250333
v -0.07890001 0.0139000006 0.1250333
v -0.07889417 0.0139000006 0.12503618
v -0.07888795 0.014200002 0.1250383
v -0.0788815 0.0145000014 0.125039577
v -0.07888795 0.0139000006 0.1250383
v -0.0788815 0.014200002 0.125039577
v -0.0788750052 0.0145000014 0.12504
v -0.0788815 0.0139000006 0.125039577
v -0.0788750052 0.0139000006 0.12504
v -0.07941835 0.0168000013 0.125022709
v -0.07981168 0.0171 0.124795623
v -0.07981168 0.0165000018 0.124795623
v -0.07902501 0.0165000018 0.1252498
v -0.07902501 0.0171 0.1252498
v -0.07941835 0.014200002 0.125022709
v -0.07902501 0.0145000014 0.1252498
v -0.07981168 0.0145000014 0.124795623
v -0.07981168 0.0139000006 0.124795623
v -0.07902501 0.0139000006 0.1252498
v -0.0810271055 0.0155000016 0.125294566
v -0.08097501 0.0140763279 0.12529
v -0.08097501 0.0169236735 0.12529
v -0.0810271 0.0169105958 0.125294566
v -0.0810271 0.0140894074 0.125294566
v -0.08107761 0.0168975163 0.1253081
v -0.08107761 0.0141024869 0.1253081
v -0.07997501 0.0171 0.12529
v -0.080475 0.017011838 0.125165
v -0.08097501 0.0169236735 0.12529
v -0.07997501 0.0171 0.12504
v -0.08097501 0.0169236735 0.125165
v -0.08097501 0.0169236735 0.12504
v -0.07997501 0.01675 0.125165
v -0.07997501 0.0171 0.12529
v -0.07997501 0.0164000019 0.12529
v -0.07997501 0.0164000019 0.12504
v -0.07997501 0.0171 0.12504
v -0.07942501 0.0164000019 0.125165
v -0.07997501 0.0164000019 0.12529
v -0.0788750052 0.0164000019 0.12529
v -0.0788750052 0.0164000019 0.12504
v -0.07997501 0.0164000019 0.12504
v -0.0788750052 0.01645 0.125165
v -0.0788750052 0.0164000019 0.12529
v -0.0788750052 0.0165000018 0.12529
v -0.0788750052 0.0165000018 0.12504
v -0.0788750052 0.0164000019 0.12504
v -0.0789526552 0.0168000013 0.125279784
v -0.0788750052 0.0165000018 0.12529
v -0.0788750052 0.0171 0.12529
v -0.0789526552 0.0171 0.125279784
v -0.0789526552 0.0165000018 0.125279784
v -0.07902501 0.0171 0.1252498
v -0.07902501 0.0165000018 0.1252498
v -0.0762750059 0.01675 0.125165
v -0.0762750059 0.0171 0.12529
v -0.0762750059 0.0164000019 0.12529
v -0.0762750059 0.0164000019 0.12504
v -0.0762750059 0.0171 0.12504
v -0.0788750052 0.0145000014 0.12529
v -0.0789526552 0.014200002 0.125279784
v -0.0788750052 0.0139000006 0.12529
v -0.0789526552 0.0145000014 0.125279784
v -0.0789526552 0.0139000006 0.125279784
v -0.07902501 0.0145000014 0.1252498
v -0.07902501 0.0139000006 0.1252498
v -0.0788750052 0.01455 0.125165
v -0.0788750052 0.0145000014 0.12529
v -0.0788750052 0.0146000013 0.12529
v -0.0788750052 0.0146000013 0.12504
v -0.0788750052 0.0145000014 0.12504
v -0.07942501 0.0146000013 0.125165
v -0.0788750052 0.0146000013 0.12529
v -0.07997501 0.0146000013 0.12529
v -0.07997501 0.0146000013 0.12504
v -0.0788750052 0.0146000013 0.12504
v -0.07997501 0.0142500009 0.125165
v -0.07997501 0.0146000013 0.12529
v -0.07997501 0.0139000006 0.12529
v -0.07997501 0.0139000006 0.12504
v -0.07997501 0.0146000013 0.12504
v -0.080475 0.0139881652 0.125165
v -0.07997501 0.0139000006 0.12529
v -0.08097501 0.0140763279 0.12529
v -0.08097501 0.0140763279 0.125165
v -0.07997501 0.0139000006 0.12504
v -0.08097501 0.0140763279 0.12504
v -0.0762750059 0.0142500009 0.125165
v -0.0762750059 0.0146000013 0.12504
v -0.0762750059 0.0146000013 0.12529
v -0.0762750059 0.0139000006 0.12529
v -0.0762750059 0.0139000006 0.12504
v -0.0762750059 0.016 0.12504
v -0.07626591 0.0155000016 0.12503916
v -0.0762750059 0.0150000006 0.12504
v -0.07626591 0.016 0.12503916
v -0.07626591 0.0150000006 0.12503916
v -0.0762566 0.016 0.1250365
v -0.0762566 0.0155000016 0.1250365
v -0.0762566 0.0150000006 0.1250365
v -0.07624765 0.016 0.125031859
v -0.07624765 0.0155000016 0.125031859
v -0.07624765 0.0150000006 0.125031859
v -0.07623965 0.016 0.125025362
v -0.07623965 0.0155000016 0.125025362
v -0.07623965 0.0150000006 0.125025362
v -0.076233156 0.016 0.12501736
v -0.076233156 0.0155000016 0.12501736
v -0.076233156 0.0150000006 0.12501736
v -0.0762285143 0.016 0.1250084
v -0.0762285143 0.0155000016 0.1250084
v -0.0762285143 0.0150000006 0.1250084
v -0.07622584 0.016 0.1249991
v -0.07622584 0.0155000016 0.1249991
v -0.07622584 0.0150000006 0.1249991
v -0.0762250051 0.016 0.12499
v -0.0762250051 0.0150000006 0.12499
v -0.0762750059 0.0150000006 0.12529
v -0.07622042 0.0155000016 0.125285
v -0.0762750059 0.016 0.12529
v -0.07622042 0.0150000006 0.125285
v -0.07622042 0.016 0.125285
v -0.07616457 0.0150000006 0.125268936
v -0.07616457 0.0155000016 0.125268936
v -0.07616457 0.016 0.125268936
v -0.07611085 0.0150000006 0.1252411
v -0.07611085 0.0155000016 0.1252411
v -0.07611085 0.016 0.1252411
v -0.07606287 0.0150000006 0.125202134
v -0.07606287 0.0155000016 0.125202134
v -0.07606287 0.016 0.125202134
v -0.07602391 0.0150000006 0.125154167
v -0.07602391 0.0155000016 0.125154167
v -0.07602391 0.016 0.125154167
v -0.07599607 0.0150000006 0.125100434
v -0.07599607 0.0155000016 0.125100434
v -0.07599607 0.016 0.125100434
v -0.0759800151 0.0150000006 0.125044584
v -0.0759800151 0.0155000016 0.125044584
v -0.0759800151 0.016 0.125044584
v -0.07597501 0.0150000006 0.12499
v -0.07597501 0.016 0.12499
v -0.0762250051 0.0155000016 0.124015
v -0.0762250051 0.0150000006 0.123040006
v -0.0762250051 0.0150000006 0.12499
v -0.0762250051 0.016 0.12499
v -0.0762250051 0.016 0.123040006
v -0.07597501 0.0155000016 0.124015
v -0.07597501 0.016 0.123040006
v -0.07597501 0.016 0.12499
v -0.07597501 0.0150000006 0.12499
v -0.07597501 0.0150000006 0.123040006
v -0.07597501 0.016 0.123040006
v -0.07610001 0.0155000016 0.12304
v -0.0762250051 0.016 0.123040006
v -0.07597501 0.0150000006 0.123040006
v -0.0762250051 0.0150000006 0.123040006
f 1 2 3
f 2 1 4
f 2 4 5
f 6 2 5
f 6 5 7
f 6 7 8
f 9 6 8
f 6 9 10
f 6 10 11
f 12 6 11
f 13 12 11
f 13 11 14
f 12 13 15
f 16 13 14
f 13 17 15
f 13 18 17
f 13 16 19
f 18 13 20
f 13 19 20
f 20 19 21
f 22 23 24
f 25 22 24
f 25 24 26
f 22 25 27
f 28 25 26
f 25 29 27
f 25 30 29
f 30 25 31
f 25 28 32
f 25 32 31
f 31 32 33
f 32 34 33
f 34 35 33
f 35 36 33
f 36 37 33
f 37 38 33
f 38 39 33
f 38 40 39
f 40 41 39
f 41 42 39
f 43 44 45
f 43 45 46
f 47 43 46
f 48 46 45
f 47 46 49
f 46 48 50
f 46 50 49
f 48 51 50
f 49 50 52
f 51 53 50
f 50 53 52
f 51 54 53
f 52 53 55
f 54 56 53
f 53 56 55
f 54 57 56
f 55 56 58
f 57 59 56
f 56 59 58
f 57 60 59
f 58 59 61
f 60 62 59
f 59 62 61
f 60 63 62
f 63 64 62
f 61 62 65
f 62 64 65
f 63 66 64
f 65 64 67
f 66 68 64
f 64 69 67
f 68 70 64
f 64 70 69
f 68 71 70
f 70 72 69
f 71 73 70
f 70 73 72
f 71 74 73
f 74 72 73
f 75 74 71
f 74 76 72
f 77 74 75
f 74 77 76
f 78 77 75
f 77 79 76
f 80 77 78
f 77 80 79
f 81 80 78
f 80 82 79
f 83 80 81
f 80 83 82
f 84 83 81
f 83 85 82
f 86 83 84
f 83 86 85
f 87 86 84
f 86 88 85
f 89 86 87
f 86 89 88
f 90 89 87
f 89 91 88
f 89 90 91
f 92 93 94
f 93 95 94
f 94 95 96
f 95 97 96
f 93 98 95
f 98 93 99
f 98 100 95
f 98 99 101
f 102 98 101
f 101 99 103
f 99 104 103
f 99 105 104
f 98 102 106
f 99 107 105
f 107 108 105
f 107 109 108
f 109 107 110
f 109 110 111
f 112 109 111
f 112 111 113
f 111 114 113
f 111 115 114
f 98 106 116
f 117 98 116
f 117 116 118
f 119 117 118
f 98 117 120
f 98 120 121
f 122 98 121
f 118 123 119
f 123 124 119
f 123 125 124
f 123 126 125
f 126 127 125
f 126 128 127
f 98 122 100
f 122 129 100
f 129 130 100
f 130 131 100
f 131 132 100
f 131 133 132
f 133 134 132
f 134 135 132
f 134 136 135
f 137 136 134
f 136 137 138
f 136 138 139
f 140 136 139
f 141 142 143
f 141 143 144
f 145 141 144
f 146 144 143
f 145 144 147
f 144 146 148
f 144 148 147
f 146 149 148
f 147 148 150
f 149 151 148
f 148 151 150
f 149 152 151
f 150 151 153
f 152 154 151
f 151 154 153
f 152 155 154
f 153 154 156
f 155 157 154
f 154 157 156
f 155 158 157
f 156 157 159
f 158 160 157
f 157 160 159
f 158 161 160
f 161 162 160
f 159 160 163
f 160 162 163
f 161 164 162
f 163 162 165
f 164 166 162
f 162 167 165
f 166 168 162
f 162 168 167
f 166 169 168
f 168 170 167
f 169 171 168
f 168 171 170
f 169 172 171
f 172 170 171
f 173 172 169
f 172 174 170
f 175 172 173
f 172 175 174
f 176 175 173
f 175 177 174
f 178 175 176
f 175 178 177
f 179 178 176
f 178 180 177
f 181 178 179
f 178 181 180
f 182 181 179
f 181 183 180
f 184 181 182
f 181 184 183
f 185 184 182
f 184 186 183
f 187 184 185
f 184 187 186
f 188 187 185
f 187 189 186
f 187 188 189
f 190 191 192
f 191 193 192
f 193 194 192
f 193 195 194
f 192 194 196
f 194 197 196
f 194 198 197
f 198 194 199
f 194 200 199
f 200 201 199
f 202 203 204
f 202 204 205
f 206 202 205
f 207 206 205
f 207 205 208
f 208 205 209
f 210 207 208
f 210 208 211
f 212 213 214
f 212 214 215
f 216 212 215
f 216 215 217
f 215 218 217
f 215 219 218
f 219 215 214
f 220 219 214
f 221 222 223
f 222 224 223
f 224 225 223
f 224 226 225
f 226 227 225
f 227 228 225
f 228 229 225
f 228 230 229
f 231 225 229
f 230 231 229
f 232 233 234
f 233 235 234
f 234 235 236
f 235 237 236
f 233 238 235
f 233 239 238
f 238 240 235
f 239 241 238
f 238 241 242
f 239 243 241
f 243 239 244
f 239 245 244
f 238 242 246
f 239 247 245
f 247 248 245
f 247 249 248
f 249 247 250
f 249 250 251
f 252 249 251
f 252 251 253
f 251 254 253
f 251 255 254
f 256 238 246
f 238 256 257
f 256 258 257
f 256 259 258
f 259 260 258
f 259 261 260
f 261 262 260
f 261 263 262
f 263 264 262
f 263 265 264
f 238 257 266
f 238 266 267
f 268 238 267
f 238 268 240
f 268 269 240
f 269 270 240
f 270 271 240
f 271 272 240
f 271 273 272
f 273 274 272
f 274 275 272
f 274 276 275
f 277 276 274
f 276 277 278
f 276 278 279
f 280 276 279
f 281 282 283
f 282 284 283
f 282 285 284
f 285 286 284
f 285 287 286
f 288 287 285
f 287 289 286
f 287 288 289
f 290 291 292
f 291 293 292
f 291 294 293
f 294 295 293
f 295 296 293
f 296 297 293
f 297 292 293
f 297 298 292
f 299 300 301
f 300 302 301
f 302 300 303
f 301 302 304
f 302 303 305
f 304 302 305
f 306 307 308
f 306 308 309
f 310 306 309
f 306 310 311
f 306 311 312
f 313 306 312
f 312 314 313
f 314 315 313
f 314 316 315
f 314 317 316
f 317 318 316
f 317 319 318
f 319 320 318
f 319 321 320
f 319 322 321
f 322 323 321
f 322 324 323
f 324 325 323
f 326 327 328
f 326 329 327
f 329 330 327
f 329 331 330
f 331 329 332
f 329 333 332
f 333 334 332
f 333 335 334
f 335 336 334
f 336 337 334
f 336 338 337
f 338 339 337
f 338 340 339
f 340 341 339
f 341 342 339
f 341 343 342
f 343 344 342
f 343 345 344
f 346 347 348
f 349 347 346
f 347 349 350
f 351 349 346
f 349 352 350
f 349 351 352
f 353 354 355
f 353 356 354
f 356 353 357
f 353 358 357
f 359 353 355
f 353 359 358
f 359 355 360
f 359 361 358
f 362 359 360
f 359 362 361
f 362 360 363
f 362 364 361
f 365 362 363
f 362 365 364
f 365 363 366
f 365 367 364
f 368 365 366
f 365 368 367
f 368 366 369
f 368 370 367
f 371 368 369
f 368 371 370
f 371 369 372
f 371 373 370
f 374 371 372
f 371 374 373
f 374 372 375
f 374 376 373
f 377 374 375
f 374 377 376
f 378 379 380
f 378 380 381
f 379 378 382
f 382 378 381
f 383 384 385
f 383 385 386
f 384 383 387
f 387 383 386
f 388 389 390
f 388 390 391
f 389 388 392
f 392 388 391
f 393 394 395
f 393 396 394
f 396 393 397
f 393 398 397
f 399 393 395
f 393 399 398
f 399 395 400
f 399 401 398
f 402 399 400
f 399 402 401
f 402 400 403
f 402 404 401
f 405 402 403
f 402 405 404
f 405 403 406
f 405 407 404
f 408 405 406
f 405 408 407
f 408 406 409
f 408 410 407
f 411 408 409
f 408 411 410
f 411 409 412
f 411 413 410
f 414 411 412
f 411 414 413
f 414 412 415
f 414 416 413
f 417 414 415
f 414 417 416
f 418 419 420
f 419 418 421
f 419 422 420
f 419 421 423
f 422 419 423
f 424 425 426
f 425 424 427
f 425 428 426
f 425 427 429
f 428 425 429
f 430 431 432
f 430 432 433
f 431 430 434
f 434 430 433
f 435 436 437
f 438 435 437
f 435 439 436
f 435 438 440
f 439 435 441
f 435 440 441
f 442 443 444
f 445 442 444
f 442 446 443
f 442 445 447
f 446 442 448
f 442 447 448
f 449 450 451
f 449 451 452
f 450 449 453
f 453 449 452
f 454 455 456
f 454 457 455
f 457 454 458
f 454 459 458
f 460 454 456
f 454 460 459
f 460 456 461
f 460 462 459
f 463 460 461
f 460 463 462
f 463 461 464
f 463 465 462
f 466 463 464
f 463 466 465
f 467 468 469
f 467 469 470
f 468 467 471
f 471 467 470
f 472 473 474
f 472 474 475
f 473 472 476
f 476 472 475
f 477 478 479
f 480 477 479
f 477 481 478
f 477 480 482
f 481 477 483
f 477 482 483
f 484 485 486
f 485 484 487
f 485 488 486
f 485 487 489
f 488 485 489
f 490 491 492
f 493 490 492
f 490 494 491
f 494 490 493
f 495 496 497
f 498 495 497
f 495 499 496
f 499 495 498
f 500 501 502
f 503 500 502
f 500 504 501
f 504 500 503
f 505 506 507
f 508 505 507
f 505 509 506
f 505 508 510
f 509 505 511
f 505 510 511
f 512 513 514
f 515 512 514
f 512 516 513
f 516 512 515
f 517 518 519
f 518 517 520
f 518 521 519
f 518 520 522
f 518 523 521
f 523 518 522
f 524 525 526
f 527 524 526
f 524 528 525
f 528 524 527
f 529 530 531
f 532 529 531
f 529 533 530
f 533 529 532
f 534 535 536
f 537 534 536
f 534 538 535
f 538 534 537
f 539 540 541
f 542 539 541
f 539 543 540
f 539 542 544
f 543 539 544
f 545 546 547
f 545 547 548
f 546 545 549
f 549 545 548
f 550 551 552
f 551 550 553
f 551 554 552
f 551 553 555
f 551 556 554
f 556 551 555
f 556 557 554
f 556 555 558
f 556 559 557
f 559 556 558
f 559 560 557
f 559 558 561
f 559 562 560
f 562 559 561
f 562 563 560
f 562 561 564
f 562 565 563
f 565 562 564
f 565 566 563
f 565 564 567
f 565 568 566
f 568 565 567
f 568 569 566
f 568 567 570
f 568 571 569
f 571 568 570
f 571 572 569
f 571 570 573
f 572 571 574
f 571 573 574
f 575 576 577
f 576 575 578
f 576 579 577
f 576 578 580
f 576 581 579
f 581 576 580
f 581 582 579
f 581 580 583
f 581 584 582
f 584 581 583
f 584 585 582
f 584 583 586
f 584 587 585
f 587 584 586
f 587 588 585
f 587 586 589
f 587 590 588
f 590 587 589
f 590 591 588
f 590 589 592
f 590 593 591
f 593 590 592
f 593 594 591
f 593 592 595
f 593 596 594
f 596 593 595
f 596 597 594
f 596 595 598
f 597 596 599
f 596 598 599
f 600 601 602
f 600 602 603
f 601 600 604
f 604 600 603
f 605 606 607
f 605 607 608
f 606 605 609
f 609 605 608
f 610 611 612
f 613 611 610
f 611 614 612
f 611 613 614
