# ROS coordinates: X forward, Y left, Z up; units are metres.
o mesh
v -0.0571500026 -0.0363185219 0.122633427
v -0.0571500026 -0.0362663344 0.122615792
v -0.0571500026 -0.03621287 0.12261
v -0.0571500026 -0.0363655761 0.122662067
v -0.0571500026 -0.0341494754 0.12261
v -0.0571500026 -0.0341494754 0.122760005
v -0.0571500026 -0.03370674 0.122750342
v -0.0571500026 -0.03621287 0.122760005
v -0.0571500026 -0.03371328 0.122600488
v -0.0571500026 -0.0332648456 0.122721381
v -0.0571500026 -0.0332779177 0.122571953
v -0.0571500026 -0.02986011 0.122423507
v -0.0571500026 -0.03640438 0.122699305
v -0.0571500026 -0.0362342522 0.122762315
v -0.0571500026 -0.03625513 0.122769371
v -0.0571500026 -0.0298731811 0.122274071
v -0.0571500026 -0.0296094827 0.122373052
v -0.0571500026 -0.0293761939 0.122268476
v -0.0571500026 -0.0364924632 0.122804284
v -0.0571500026 -0.0362739526 0.12278083
v -0.0571500026 -0.0296552442 0.1222302
v -0.0571500026 -0.0362894721 0.122795723
v -0.0571500026 -0.0365079828 0.122819178
v -0.0571500026 -0.0365268067 0.122830637
v -0.0571500026 -0.0293447971 0.122254528
v -0.0571500026 -0.0363775566 0.1229007
v -0.0571500026 -0.03654768 0.122837692
v -0.0571500026 -0.0365690663 0.12284
v -0.0571500026 -0.0369500034 0.12284
v -0.0571500026 -0.0364163555 0.12293794
v -0.0571500026 -0.0369500034 0.122990005
v -0.0571500026 -0.0364634134 0.12296658
v -0.0571500026 -0.0365690663 0.122990005
v -0.0571500026 -0.0365155973 0.122984216
v -0.0571500026 -0.0293100961 0.122248024
v -0.0571500026 -0.02906102 0.122216329
v -0.0571500026 -0.0292748362 0.122249804
v -0.0571500026 -0.0292418525 0.122259408
v -0.0571500026 -0.0291123837 0.122163586
v -0.0571500026 -0.0294523872 0.122139268
v -0.0571500026 -0.02917308 0.122125849
v -0.0571500026 -0.0293869376 0.122110553
v -0.0571500026 -0.029240977 0.122103542
v -0.0571500026 -0.0293143913 0.122098029
v -0.0571500026 -0.0290240459 0.122279994
v -0.0571500026 -0.02921192 0.122276269
v -0.0571500026 -0.02918598 0.122300215
v -0.0571500026 -0.02916636 0.12232957
v -0.0571500026 -0.0290040411 0.122348607
v -0.0571500026 -0.0291543677 0.122361757
v -0.0574900024 -0.0365155973 0.122984216
v -0.0574900024 -0.0364634134 0.12296658
v -0.0574900024 -0.0365690663 0.122990005
v -0.0574900024 -0.0369500034 0.122990005
v -0.0574900024 -0.0364163555 0.12293794
v -0.0574900024 -0.0369500034 0.12284
v -0.0574900024 -0.0363775566 0.1229007
v -0.0574900024 -0.0365690663 0.12284
v -0.0574900024 -0.03654768 0.122837692
v -0.0574900024 -0.0365268067 0.122830637
v -0.0574900024 -0.0362894721 0.122795723
v -0.0574900024 -0.0365079828 0.122819178
v -0.0574900024 -0.0364924632 0.122804284
v -0.0574900024 -0.0362739526 0.12278083
v -0.0574900024 -0.03625513 0.122769371
v -0.0574900024 -0.03640438 0.122699305
v -0.0574900024 -0.0362342522 0.122762315
v -0.0574900024 -0.03621287 0.122760005
v -0.0574900024 -0.0363655761 0.122662067
v -0.0574900024 -0.0341494754 0.122760005
v -0.0574900024 -0.0341494754 0.12261
v -0.0574900024 -0.03370674 0.122750342
v -0.0574900024 -0.03621287 0.12261
v -0.0574900024 -0.0363185219 0.122633427
v -0.0574900024 -0.0362663344 0.122615792
v -0.0574900024 -0.03371328 0.122600488
v -0.0574900024 -0.0332648456 0.122721381
v -0.0574900024 -0.0332779177 0.122571953
v -0.0574900024 -0.02986011 0.122423507
v -0.0574900024 -0.0298731811 0.122274071
v -0.0574900024 -0.0296094827 0.122373052
v -0.0574900024 -0.0293761939 0.122268476
v -0.0574900024 -0.0296552442 0.1222302
v -0.0574900024 -0.0293447971 0.122254528
v -0.0574900024 -0.0293100961 0.122248024
v -0.0574900024 -0.02906102 0.122216329
v -0.0574900024 -0.0292748362 0.122249804
v -0.0574900024 -0.0292418525 0.122259408
v -0.0574900024 -0.0291123837 0.122163586
v -0.0574900024 -0.0294523872 0.122139268
v -0.0574900024 -0.02917308 0.122125849
v -0.0574900024 -0.0293869376 0.122110553
v -0.0574900024 -0.029240977 0.122103542
v -0.0574900024 -0.0293143913 0.122098029
v -0.0574900024 -0.0290240459 0.122279994
v -0.0574900024 -0.02921192 0.122276269
v -0.0574900024 -0.02918598 0.122300215
v -0.0574900024 -0.02916636 0.12232957
v -0.0574900024 -0.0290040411 0.122348607
v -0.0574900024 -0.0291543677 0.122361757
v -0.0571500026 -0.03621287 0.12261
v -0.0573200025 -0.0362663344 0.122615784
v -0.0574900024 -0.03621287 0.12261
v -0.0571500026 -0.0362663344 0.122615792
v -0.0574900024 -0.0362663344 0.122615792
v -0.0571500026 -0.0363185219 0.122633427
v -0.0573200025 -0.0363185219 0.122633427
v -0.0574900024 -0.0363185219 0.122633427
v -0.0571500026 -0.0363655761 0.122662067
v -0.0573200025 -0.0363655761 0.122662067
v -0.0574900024 -0.0363655761 0.122662067
v -0.0571500026 -0.03640438 0.122699305
v -0.0574900024 -0.03640438 0.122699305
v -0.0573200025 -0.03644842 0.122751795
v -0.0571500026 -0.03640438 0.122699305
v -0.0571500026 -0.0364924632 0.122804284
v -0.0574900024 -0.0364924632 0.122804284
v -0.0574900024 -0.03640438 0.122699305
v -0.0573200025 -0.0365079828 0.122819178
v -0.0571500026 -0.0364924632 0.122804284
v -0.0571500026 -0.0365079828 0.122819178
v -0.0574900024 -0.0364924632 0.122804284
v -0.0571500026 -0.0365268067 0.122830637
v -0.0574900024 -0.0365079828 0.122819178
v -0.0573200025 -0.0365268067 0.122830637
v -0.0571500026 -0.03654768 0.122837692
v -0.0574900024 -0.0365268067 0.122830637
v -0.0573200025 -0.03654768 0.122837692
v -0.0571500026 -0.0365690663 0.12284
v -0.0574900024 -0.03654768 0.122837692
v -0.0574900024 -0.0365690663 0.12284
v -0.0573200025 -0.036759533 0.12284
v -0.0571500026 -0.0365690663 0.12284
v -0.0571500026 -0.0369500034 0.12284
v -0.0574900024 -0.0369500034 0.12284
v -0.0574900024 -0.0365690663 0.12284
v -0.0573200025 -0.0369500034 0.122915007
v -0.0571500026 -0.0369500034 0.12284
v -0.0571500026 -0.0369500034 0.122990005
v -0.0574900024 -0.0369500034 0.122990005
v -0.0574900024 -0.0369500034 0.12284
v -0.0573200025 -0.036759533 0.122990005
v -0.0571500026 -0.0369500034 0.122990005
v -0.0571500026 -0.0365690663 0.122990005
v -0.0574900024 -0.0365690663 0.122990005
v -0.0574900024 -0.0369500034 0.122990005
v -0.0573200025 -0.0365155973 0.122984216
v -0.0571500026 -0.0365690663 0.122990005
v -0.0571500026 -0.0365155973 0.122984216
v -0.0574900024 -0.0365690663 0.122990005
v -0.0571500026 -0.0364634134 0.12296658
v -0.0574900024 -0.0365155973 0.122984216
v -0.0573200025 -0.0364634134 0.12296658
v -0.0571500026 -0.0364163555 0.12293794
v -0.0574900024 -0.0364634134 0.12296658
v -0.0573200025 -0.0364163555 0.12293794
v -0.0571500026 -0.0363775566 0.1229007
v -0.0574900024 -0.0364163555 0.12293794
v -0.0574900024 -0.0363775566 0.1229007
v -0.0573200025 -0.0363335125 0.122848213
v -0.0571500026 -0.0363775566 0.1229007
v -0.0571500026 -0.0362894721 0.122795723
v -0.0574900024 -0.0362894721 0.122795723
v -0.0574900024 -0.0363775566 0.1229007
v -0.0573200025 -0.0362739526 0.12278083
v -0.0571500026 -0.0362894721 0.122795723
v -0.0571500026 -0.0362739526 0.12278083
v -0.0574900024 -0.0362894721 0.122795723
v -0.0571500026 -0.03625513 0.122769371
v -0.0574900024 -0.0362739526 0.12278083
v -0.0573200025 -0.03625513 0.122769371
v -0.0571500026 -0.0362342522 0.122762315
v -0.0574900024 -0.03625513 0.122769371
v -0.0573200025 -0.0362342522 0.122762315
v -0.0571500026 -0.03621287 0.122760005
v -0.0574900024 -0.0362342522 0.122762315
v -0.0574900024 -0.03621287 0.122760005
v -0.0573200025 -0.0351811722 0.122760005
v -0.0571500026 -0.03621287 0.122760005
v -0.0571500026 -0.0341494754 0.122760005
v -0.0574900024 -0.0341494754 0.122760005
v -0.0574900024 -0.03621287 0.122760005
v -0.0573200025 -0.03370674 0.122750342
v -0.0571500026 -0.0341494754 0.122760005
v -0.0571500026 -0.03370674 0.122750342
v -0.0571500026 -0.0332648456 0.122721381
v -0.0574900024 -0.0341494754 0.122760005
v -0.0574900024 -0.0332648456 0.122721381
v -0.0574900024 -0.03370674 0.122750342
v -0.0573200025 -0.0315624774 0.122572444
v -0.0571500026 -0.0332648456 0.122721381
v -0.0571500026 -0.02986011 0.122423507
v -0.0574900024 -0.02986011 0.122423507
v -0.0574900024 -0.0332648456 0.122721381
v -0.0573200025 -0.0296094827 0.122373052
v -0.0571500026 -0.02986011 0.122423507
v -0.0571500026 -0.0296094827 0.122373052
v -0.0571500026 -0.0293761939 0.122268476
v -0.0574900024 -0.02986011 0.122423507
v -0.0574900024 -0.0293761939 0.122268476
v -0.0574900024 -0.0296094827 0.122373052
v -0.0573200025 -0.0293495432 0.1222561
v -0.0571500026 -0.0293761939 0.122268476
v -0.0571500026 -0.0293447971 0.122254528
v -0.0574900024 -0.0293761939 0.122268476
v -0.0574900024 -0.0293447971 0.122254528
v -0.0573200025 -0.029320199 0.122249044
v -0.0571500026 -0.0293100961 0.122248024
v -0.0574900024 -0.0293100961 0.122248024
v -0.0573200025 -0.0292898268 0.122248024
v -0.0571500026 -0.0292748362 0.122249804
v -0.0574900024 -0.0292748362 0.122249804
v -0.0573200025 -0.029260274 0.122253038
v -0.0571500026 -0.0292418525 0.122259408
v -0.0574900024 -0.0292418525 0.122259408
v -0.0573200025 -0.0292244144 0.122268118
v -0.0571500026 -0.02921192 0.122276269
v -0.0574900024 -0.02921192 0.122276269
v -0.0573200025 -0.0292079076 0.122279279
v -0.0573200025 -0.0291928351 0.122292727
v -0.0571500026 -0.02918598 0.122300215
v -0.0574900024 -0.02918598 0.122300215
v -0.0573200025 -0.0291796476 0.12230815
v -0.0571500026 -0.02916636 0.12232957
v -0.0574900024 -0.02916636 0.12232957
v -0.0573200025 -0.02916871 0.122325137
v -0.0573200025 -0.0291602537 0.122343183
v -0.0571500026 -0.0291543677 0.122361757
v -0.0574900024 -0.0291543677 0.122361757
v -0.0573200025 -0.0290792026 0.122355185
v -0.0571500026 -0.0291543677 0.122361757
v -0.0571500026 -0.0290040411 0.122348607
v -0.0574900024 -0.0290040411 0.122348607
v -0.0574900024 -0.0291543677 0.122361757
v -0.0573200025 -0.02902013 0.122289643
v -0.0571500026 -0.0290040411 0.122348607
v -0.0571500026 -0.0290240459 0.122279994
v -0.0574900024 -0.0290040411 0.122348607
v -0.0574900024 -0.0290240459 0.122279994
v -0.0573200025 -0.02904882 0.122233644
v -0.0571500026 -0.02906102 0.122216329
v -0.0574900024 -0.02906102 0.122216329
v -0.0573200025 -0.029088892 0.12218453
v -0.0571500026 -0.0291123837 0.122163586
v -0.0574900024 -0.0291123837 0.122163586
v -0.0573200025 -0.0291376039 0.122145437
v -0.0571500026 -0.02917308 0.122125849
v -0.0574900024 -0.02917308 0.122125849
v -0.0573200025 -0.02917308 0.122125849
v -0.0573200025 -0.02921087 0.122111231
v -0.0571500026 -0.029240977 0.122103542
v -0.0574900024 -0.029240977 0.122103542
v -0.0573200025 -0.0292512663 0.122101665
v -0.0573200025 -0.02929321 0.12209776
v -0.0571500026 -0.0293143913 0.122098029
v -0.0574900024 -0.0293143913 0.122098029
v -0.0573200025 -0.0293354988 0.122099787
v -0.0571500026 -0.0293869376 0.122110553
v -0.0574900024 -0.0293869376 0.122110553
v -0.0573200025 -0.0293768756 0.1221077
v -0.0573200025 -0.02941617 0.122121088
v -0.0571500026 -0.0294523872 0.122139268
v -0.0574900024 -0.0294523872 0.122139268
v -0.0573200025 -0.0296552442 0.1222302
v -0.0571500026 -0.0294523872 0.122139268
v -0.0571500026 -0.0296552442 0.1222302
v -0.0571500026 -0.0298731811 0.122274071
v -0.0574900024 -0.0294523872 0.122139268
v -0.0574900024 -0.0298731811 0.122274071
v -0.0574900024 -0.0296552442 0.1222302
v -0.0573200025 -0.03157555 0.122423016
v -0.0571500026 -0.0298731811 0.122274071
v -0.0571500026 -0.0332779177 0.122571953
v -0.0574900024 -0.0332779177 0.122571953
v -0.0574900024 -0.0298731811 0.122274071
v -0.0573200025 -0.03371328 0.122600488
v -0.0571500026 -0.0332779177 0.122571953
v -0.0571500026 -0.03371328 0.122600488
v -0.0571500026 -0.0341494754 0.12261
v -0.0574900024 -0.0332779177 0.122571953
v -0.0574900024 -0.0341494754 0.12261
v -0.0574900024 -0.03371328 0.122600488
v -0.0573200025 -0.0351811722 0.12261
v -0.0571500026 -0.0341494754 0.12261
v -0.0571500026 -0.03621287 0.12261
v -0.0574900024 -0.03621287 0.12261
v -0.0574900024 -0.0341494754 0.12261
f 1 2 3
f 4 1 3
f 5 4 3
f 6 4 5
f 7 6 5
f 6 8 4
f 7 5 9
f 10 7 9
f 9 11 10
f 11 12 10
f 8 13 4
f 8 14 13
f 14 15 13
f 11 16 12
f 16 17 12
f 16 18 17
f 15 19 13
f 15 20 19
f 16 21 18
f 20 22 19
f 22 23 19
f 22 24 23
f 21 25 18
f 22 26 24
f 26 27 24
f 26 28 27
f 28 26 29
f 26 30 29
f 30 31 29
f 30 32 31
f 32 33 31
f 32 34 33
f 21 35 25
f 21 36 35
f 36 37 35
f 36 38 37
f 36 21 39
f 21 40 39
f 40 41 39
f 40 42 41
f 42 43 41
f 42 44 43
f 36 45 38
f 45 46 38
f 45 47 46
f 47 45 48
f 45 49 48
f 49 50 48
f 51 52 53
f 52 54 53
f 52 55 54
f 55 56 54
f 55 57 56
f 57 58 56
f 57 59 58
f 59 57 60
f 57 61 60
f 61 62 60
f 61 63 62
f 63 61 64
f 63 64 65
f 66 63 65
f 66 65 67
f 66 67 68
f 69 66 68
f 70 69 68
f 69 70 71
f 70 72 71
f 69 71 73
f 74 69 73
f 74 73 75
f 72 76 71
f 72 77 76
f 77 78 76
f 77 79 78
f 79 80 78
f 79 81 80
f 81 82 80
f 82 83 80
f 82 84 83
f 84 85 83
f 85 86 83
f 85 87 86
f 87 88 86
f 86 89 83
f 89 90 83
f 89 91 90
f 91 92 90
f 91 93 92
f 93 94 92
f 88 95 86
f 88 96 95
f 96 97 95
f 97 98 95
f 98 99 95
f 98 100 99
f 101 102 103
f 102 101 104
f 102 105 103
f 102 104 106
f 102 107 105
f 107 102 106
f 107 108 105
f 107 106 109
f 107 110 108
f 110 107 109
f 110 111 108
f 110 109 112
f 110 113 111
f 113 110 112
f 114 115 116
f 117 114 116
f 114 118 115
f 118 114 117
f 119 120 121
f 120 119 122
f 119 121 123
f 119 124 122
f 125 119 123
f 119 125 124
f 125 123 126
f 125 127 124
f 128 125 126
f 125 128 127
f 128 126 129
f 128 130 127
f 131 128 129
f 128 131 130
f 132 133 134
f 135 132 134
f 132 136 133
f 136 132 135
f 137 138 139
f 140 137 139
f 137 141 138
f 141 137 140
f 142 143 144
f 145 142 144
f 142 146 143
f 146 142 145
f 147 148 149
f 148 147 150
f 147 149 151
f 147 152 150
f 153 147 151
f 147 153 152
f 153 151 154
f 153 155 152
f 156 153 154
f 153 156 155
f 156 154 157
f 156 158 155
f 159 156 157
f 156 159 158
f 160 161 162
f 163 160 162
f 160 164 161
f 164 160 163
f 165 166 167
f 166 165 168
f 165 167 169
f 165 170 168
f 171 165 169
f 165 171 170
f 171 169 172
f 171 173 170
f 174 171 172
f 171 174 173
f 174 172 175
f 174 176 173
f 177 174 175
f 174 177 176
f 178 179 180
f 181 178 180
f 178 182 179
f 182 178 181
f 183 184 185
f 183 185 186
f 184 183 187
f 188 183 186
f 183 189 187
f 183 188 189
f 190 191 192
f 193 190 192
f 190 194 191
f 194 190 193
f 195 196 197
f 195 197 198
f 196 195 199
f 200 195 198
f 195 201 199
f 195 200 201
f 202 203 204
f 202 205 203
f 205 202 206
f 207 202 204
f 202 207 206
f 207 204 208
f 206 207 209
f 210 207 208
f 207 210 209
f 210 208 211
f 209 210 212
f 213 210 211
f 210 213 212
f 213 211 214
f 212 213 215
f 216 213 214
f 213 216 215
f 216 214 217
f 215 216 218
f 216 217 219
f 218 216 219
f 220 219 217
f 218 219 220
f 221 220 217
f 222 218 220
f 223 220 221
f 222 220 223
f 224 223 221
f 225 222 223
f 226 223 224
f 226 225 223
f 227 226 224
f 226 227 225
f 227 224 228
f 227 229 225
f 229 227 228
f 230 231 232
f 233 230 232
f 230 234 231
f 234 230 233
f 235 236 237
f 235 238 236
f 238 235 239
f 240 235 237
f 235 240 239
f 240 237 241
f 239 240 242
f 243 240 241
f 240 243 242
f 243 241 244
f 242 243 245
f 246 243 244
f 243 246 245
f 244 247 246
f 245 246 248
f 247 249 246
f 246 249 248
f 247 250 249
f 250 248 249
f 250 247 251
f 250 252 248
f 250 251 253
f 252 250 253
f 254 253 251
f 252 253 254
f 255 254 251
f 256 252 254
f 257 254 255
f 256 254 257
f 258 257 255
f 259 256 257
f 260 257 258
f 260 259 257
f 261 260 258
f 260 261 259
f 261 258 262
f 261 263 259
f 263 261 262
f 264 265 266
f 264 266 267
f 265 264 268
f 269 264 267
f 264 270 268
f 264 269 270
f 271 272 273
f 274 271 273
f 271 275 272
f 275 271 274
f 276 277 278
f 276 278 279
f 277 276 280
f 281 276 279
f 276 282 280
f 276 281 282
f 283 284 285
f 286 283 285
f 283 287 284
f 287 283 286
