# ROS coordinates: X forward, Y left, Z up; units are metres.
o mesh
v 0.145864174 -0.00011963211 0.0576
v 0.145864174 -0.00011963211 0.06048
v 0.145871967 5.33377752E-05 0.06048
v 0.1458744 7.845042E-05 0.0590399951
v 0.145871967 5.33377752E-05 0.0576
v 0.145896316 0.000230647158 0.06048
v 0.145896316 0.000230647158 0.0576
v 0.1459065 0.0002817982 0.0590399951
v 0.145938486 0.000410047825 0.06048
v 0.145938486 0.000410047825 0.0576
v 0.145962238 0.000486942474 0.0590399951
v 0.145999342 0.000588950235 0.06048
v 0.145999342 0.000588950235 0.0576
v 0.14604266 0.0006898693 0.0590399951
v 0.146079227 0.000764509663 0.06048
v 0.146079227 0.000764509663 0.0576
v 0.146147862 0.000886213966 0.0590399951
v 0.146177962 0.0009337468 0.06048
v 0.146177962 0.0009337468 0.0576
v 0.146276966 0.00107152015 0.0590399951
v 0.1462947 0.00109369215 0.06048
v 0.146427989 0.00124154845 0.0590399951
v 0.1462947 0.00109369215 0.0576
v 0.146427989 0.00124154845 0.06048
v 0.146427989 0.00124154845 0.0576
v 0.146575853 0.00137484772 0.06048
v 0.146575853 0.00137484772 0.0576
v 0.146598026 0.00139257917 0.0590399951
v 0.1467358 0.00149158435 0.06048
v 0.1467358 0.00149158435 0.0576
v 0.146783322 0.00152167864 0.0590399951
v 0.146905035 0.00159031525 0.06048
v 0.146905035 0.00159031525 0.0576
v 0.146979675 0.00162688829 0.0590399951
v 0.1470806 0.00167021062 0.06048
v 0.1470806 0.00167021062 0.0576
v 0.1471826 0.00170730334 0.0590399951
v 0.1472595 0.00173106138 0.06048
v 0.1472595 0.00173106138 0.0576
v 0.147387743 0.00176304718 0.0590399951
v 0.1474389 0.0017732312 0.06048
v 0.1474389 0.0017732312 0.0576
v 0.1475911 0.001795149 0.0590399951
v 0.147616208 0.00179758109 0.06048
v 0.14778918 0.00180536835 0.0590399951
v 0.147616208 0.00179758109 0.0576
v 0.14778918 0.00180536835 0.06048
v 0.14778918 0.00180536835 0.0576
v 0.147962153 0.00179758109 0.06048
v 0.147962153 0.00179758109 0.0576
v 0.147987261 0.001795149 0.0590399951
v 0.148139462 0.0017732312 0.06048
v 0.148139447 0.0017732312 0.0576
v 0.1481906 0.00176304718 0.0590399951
v 0.148318857 0.00173106138 0.06048
v 0.148318857 0.00173106138 0.0576
v 0.148344517 0.00172352558 0.0590399951
v 0.14849776 0.00167021062 0.06048
v 0.14849776 0.00167021062 0.0576
v 0.14849776 0.00167021062 0.0590399951
v 0.14864856 0.00160289323 0.0590399951
v 0.148673326 0.00159031525 0.06048
v 0.148673326 0.00159031525 0.0576
v 0.148795024 0.00152167864 0.0590399951
v 0.148842558 0.00149158435 0.06048
v 0.148842558 0.00149158435 0.0576
v 0.148935273 0.00142700365 0.0590399951
v 0.149002492 0.00137484772 0.06048
v 0.149002492 0.00137484772 0.0576
v 0.1490675 0.00131964264 0.0590399951
v 0.149150357 0.00124154845 0.06048
v 0.149150357 0.00124154845 0.0576
v 0.149190024 0.001200689 0.0590399951
v 0.149283662 0.00109369215 0.06048
v 0.149283648 0.00109369215 0.0576
v 0.14930138 0.00107152015 0.0590399951
v 0.1494004 0.0009337468 0.06048
v 0.1494004 0.0009337468 0.0576
v 0.1494004 0.0009337468 0.0590399951
v 0.149486154 0.0007891436 0.0590399951
v 0.149499118 0.000764509663 0.06048
v 0.149499118 0.000764509663 0.0576
v 0.149558142 0.000639580656 0.0590399951
v 0.149579018 0.000588950235 0.06048
v 0.149579018 0.000588950235 0.0576
v 0.1496161 0.000486942474 0.0590399951
v 0.149639875 0.000410047825 0.06048
v 0.149639875 0.000410047825 0.0576
v 0.149660185 0.0003330647 0.0590399951
v 0.149682045 0.000230647158 0.06048
v 0.149682045 0.000230647158 0.0576
v 0.149690762 0.000179668423 0.0590399951
v 0.1497064 5.33377752E-05 0.06048
v 0.1497064 5.33377752E-05 0.0576
v 0.14970848 2.83145346E-05 0.0590399951
v 0.149714172 -0.00011963211 0.06048
v 0.149714172 -0.00011963211 0.0576
v 0.1497064 -0.000292602 0.06048
v 0.149703965 -0.000317714643 0.0590399951
v 0.1497064 -0.000292602 0.0576
v 0.149682045 -0.000469911378 0.06048
v 0.149682045 -0.000469911378 0.0576
v 0.149671853 -0.0005210624 0.0590399951
v 0.149639875 -0.000649312045 0.06048
v 0.149639875 -0.000649312045 0.0576
v 0.1496161 -0.0007262067 0.0590399951
v 0.149579018 -0.000828214455 0.06048
v 0.149579018 -0.000828214455 0.0576
v 0.1495357 -0.000929133035 0.0590399951
v 0.149499118 -0.00100377388 0.06048
v 0.149499118 -0.00100377388 0.0576
v 0.149430484 -0.00112547772 0.0590399951
v 0.1494004 -0.00117301056 0.06048
v 0.1494004 -0.00117301056 0.0576
v 0.14930138 -0.00131078437 0.0590399951
v 0.149283662 -0.0013329559 0.06048
v 0.149150357 -0.00148081267 0.0590399951
v 0.149283648 -0.0013329559 0.0576
v 0.149150357 -0.00148081267 0.06048
v 0.149150357 -0.00148081267 0.0576
v 0.149002492 -0.00161411194 0.06048
v 0.149002492 -0.00161411194 0.0576
v 0.148980334 -0.00163184293 0.0590399951
v 0.148842558 -0.00173084857 0.06048
v 0.148842558 -0.00173084857 0.0576
v 0.148795024 -0.0017609424 0.0590399951
v 0.148673326 -0.00182957854 0.06048
v 0.148673326 -0.00182957854 0.0576
v 0.148598671 -0.00186615228 0.0590399951
v 0.14849776 -0.00190947484 0.06048
v 0.14849776 -0.00190947484 0.0576
v 0.148395747 -0.00194656732 0.0590399951
v 0.148318857 -0.00197032513 0.06048
v 0.148318857 -0.00197032513 0.0576
v 0.1481906 -0.00200231071 0.0590399951
v 0.148139462 -0.002012495 0.06048
v 0.148139447 -0.002012495 0.0576
v 0.147987261 -0.00203441363 0.0590399951
v 0.147962153 -0.00203684531 0.06048
v 0.14778918 -0.002044632 0.0590399951
v 0.147962153 -0.00203684531 0.0576
v 0.14778918 -0.002044632 0.06048
v 0.14778918 -0.002044632 0.0576
v 0.147616208 -0.00203684531 0.06048
v 0.147616208 -0.00203684531 0.0576
v 0.1475911 -0.00203441363 0.0590399951
v 0.1474389 -0.002012495 0.06048
v 0.1474389 -0.002012495 0.0576
v 0.147387743 -0.00200231071 0.0590399951
v 0.1472595 -0.00197032513 0.06048
v 0.1472595 -0.00197032513 0.0576
v 0.147233844 -0.00196279 0.0590399951
v 0.1470806 -0.00190947484 0.06048
v 0.1470806 -0.00190947484 0.0576
v 0.1470806 -0.00190947484 0.0590399951
v 0.1469298 -0.001842157 0.0590399951
v 0.146905035 -0.00182957854 0.06048
v 0.146905035 -0.00182957854 0.0576
v 0.146783322 -0.0017609424 0.0590399951
v 0.1467358 -0.00173084857 0.06048
v 0.1467358 -0.00173084857 0.0576
v 0.146643072 -0.00166626787 0.0590399951
v 0.146575853 -0.00161411194 0.06048
v 0.146575853 -0.00161411194 0.0576
v 0.146510854 -0.00155890663 0.0590399951
v 0.146427989 -0.00148081267 0.06048
v 0.146427989 -0.00148081267 0.0576
v 0.146388322 -0.00143995322 0.0590399951
v 0.1462947 -0.0013329559 0.06048
v 0.1462947 -0.0013329559 0.0576
v 0.146276966 -0.00131078437 0.0590399951
v 0.146177962 -0.00117301056 0.06048
v 0.146177962 -0.00117301056 0.0576
v 0.146177962 -0.00117301056 0.0590399951
v 0.146092191 -0.0010284083 0.0590399951
v 0.146079227 -0.00100377388 0.06048
v 0.146079227 -0.00100377388 0.0576
v 0.146020219 -0.0008788444 0.0590399951
v 0.145999342 -0.000828214455 0.06048
v 0.145999342 -0.000828214455 0.0576
v 0.145962238 -0.0007262067 0.0590399951
v 0.145938486 -0.000649312045 0.06048
v 0.145938486 -0.000649312045 0.0576
v 0.145918161 -0.000572328456 0.0590399951
v 0.145896316 -0.000469911378 0.06048
v 0.145896316 -0.000469911378 0.0576
v 0.145887583 -0.000418932643 0.0590399951
v 0.145871967 -0.000292602 0.06048
v 0.145871967 -0.000292602 0.0576
v 0.145869866 -0.0002675783 0.0590399951
v 0.145864174 -0.00011963211 0.06048
v 0.145864174 -0.00011963211 0.0576
v 0.146796033 6.415043E-05 0.0576
v 0.14677918 -0.00011963211 0.06048
v 0.14677918 -0.00011963211 0.0576
v 0.146801382 9.098882E-05 0.0590399951
v 0.146796033 6.415043E-05 0.06048
v 0.146830633 0.000198623165 0.0590399951
v 0.1468501 0.000252143946 0.0576
v 0.1468501 0.000252143946 0.06048
v 0.146872818 0.000305093359 0.05904
v 0.146943808 0.00043304963 0.0576
v 0.146943808 0.00043304963 0.06048
v 0.146928012 0.000408110674 0.0590399951
v 0.146995753 0.00050533656 0.0590399951
v 0.147075 0.000594546553 0.0576
v 0.147075 0.000594546553 0.06048
v 0.147075 0.000594546553 0.0590399951
v 0.147164211 0.0006737872 0.0590399951
v 0.1472365 0.0007257336 0.0576
v 0.1472365 0.0007257336 0.06048
v 0.147261441 0.0007415237 0.0590399951
v 0.147364452 0.000796723645 0.0590399951
v 0.1474174 0.000819454435 0.0576
v 0.1474174 0.000819454435 0.06048
v 0.147470921 0.0008389163 0.0590399951
v 0.147605389 0.000873506535 0.0576
v 0.147605389 0.000873506535 0.06048
v 0.147578552 0.0008681631 0.0590399951
v 0.14778918 0.00089036813 0.0590399951
v 0.14778918 0.00089036813 0.0576
v 0.14778918 0.00089036813 0.06048
v 0.147972956 0.000873506535 0.0576
v 0.147972956 0.000873506535 0.06048
v 0.1479998 0.0008681631 0.0590399951
v 0.148160949 0.000819454435 0.0576
v 0.148160949 0.000819454435 0.06048
v 0.148160949 0.000819454435 0.0590399951
v 0.14831692 0.0007415237 0.0590399951
v 0.148341864 0.0007257336 0.0576
v 0.148341864 0.0007257336 0.06048
v 0.148459882 0.0006355201 0.0590399951
v 0.148503363 0.000594546553 0.0576
v 0.148503348 0.000594546553 0.06048
v 0.1485826 0.00050533656 0.0590399951
v 0.148634538 0.00043304963 0.0576
v 0.148634538 0.00043304963 0.06048
v 0.14867954 0.000357180368 0.0590399951
v 0.148728266 0.000252143946 0.0576
v 0.148728266 0.000252143946 0.06048
v 0.148747727 0.000198623165 0.0590399951
v 0.148782313 6.415043E-05 0.0576
v 0.148782313 6.415043E-05 0.06048
v 0.1487869 3.740331E-05 0.0590399951
v 0.148799181 -0.00011963211 0.0576
v 0.148799181 -0.00011963211 0.06048
v 0.148782313 -0.00030341465 0.0576
v 0.148776978 -0.000330253039 0.0590399951
v 0.148782313 -0.00030341465 0.06048
v 0.148747727 -0.000437886454 0.0590399951
v 0.148728266 -0.0004914077 0.0576
v 0.148728266 -0.0004914077 0.06048
v 0.148705542 -0.0005443571 0.05903999
v 0.148634538 -0.00067231385 0.0576
v 0.148634538 -0.00067231385 0.06048
v 0.148650333 -0.0006473744 0.0590399951
v 0.1485826 -0.0007446003 0.0590399951
v 0.148503363 -0.000833809841 0.0576
v 0.148503348 -0.000833809841 0.06048
v 0.148503363 -0.000833809841 0.0590399951
v 0.14841415 -0.0009130514 0.0590399951
v 0.148341864 -0.0009649978 0.0576
v 0.148341864 -0.0009649978 0.06048
v 0.14831692 -0.0009807874 0.0590399951
v 0.1482139 -0.00103598833 0.0590399951
v 0.148160949 -0.00105871819 0.0576
v 0.148160949 -0.00105871819 0.06048
v 0.148107439 -0.00107818 0.0590399951
v 0.147972956 -0.00111277029 0.0576
v 0.147972956 -0.00111277029 0.06048
v 0.1479998 -0.00110742683 0.0590399951
v 0.14778918 -0.00112963188 0.0590399951
v 0.14778918 -0.00112963188 0.0576
v 0.14778918 -0.00112963188 0.06048
v 0.147605389 -0.00111277029 0.0576
v 0.147605389 -0.00111277029 0.06048
v 0.147578552 -0.00110742683 0.0590399951
v 0.1474174 -0.00105871819 0.0576
v 0.1474174 -0.00105871819 0.06048
v 0.1474174 -0.00105871819 0.0590399951
v 0.147261441 -0.0009807874 0.0590399951
v 0.1472365 -0.0009649978 0.0576
v 0.1472365 -0.0009649978 0.06048
v 0.147118479 -0.000874783844 0.0590399951
v 0.147075 -0.000833809841 0.0576
v 0.147075 -0.000833809841 0.06048
v 0.146995753 -0.0007446003 0.0590399951
v 0.146943808 -0.00067231385 0.0576
v 0.146943808 -0.00067231385 0.06048
v 0.1468988 -0.0005964446 0.0590399951
v 0.1468501 -0.0004914077 0.0576
v 0.1468501 -0.0004914077 0.06048
v 0.146830633 -0.000437886454 0.0590399951
v 0.146796033 -0.00030341465 0.0576
v 0.146796033 -0.00030341465 0.06048
v 0.146791458 -0.000276667532 0.0590399951
v 0.14677918 -0.00011963211 0.0576
v 0.14677918 -0.00011963211 0.06048
v 0.148782313 6.415043E-05 0.06048
v 0.149682045 0.000230647158 0.06048
v 0.149639875 0.000410047825 0.06048
v 0.1497064 5.33377752E-05 0.06048
v 0.148728266 0.000252143946 0.06048
v 0.149579018 0.000588950235 0.06048
v 0.149499118 0.000764509663 0.06048
v 0.148799181 -0.00011963211 0.06048
v 0.149714172 -0.00011963211 0.06048
v 0.1497064 -0.000292602 0.06048
v 0.148634538 0.00043304963 0.06048
v 0.1494004 0.0009337468 0.06048
v 0.149283662 0.00109369215 0.06048
v 0.148782313 -0.00030341465 0.06048
v 0.149682045 -0.000469911378 0.06048
v 0.149639875 -0.000649312045 0.06048
v 0.148503348 0.000594546553 0.06048
v 0.149150357 0.00124154845 0.06048
v 0.149002492 0.00137484772 0.06048
v 0.148728266 -0.0004914077 0.06048
v 0.149579018 -0.000828214455 0.06048
v 0.149499118 -0.00100377388 0.06048
v 0.148341864 0.0007257336 0.06048
v 0.148842558 0.00149158435 0.06048
v 0.148673326 0.00159031525 0.06048
v 0.148634538 -0.00067231385 0.06048
v 0.1494004 -0.00117301056 0.06048
v 0.149283662 -0.0013329559 0.06048
v 0.148160949 0.000819454435 0.06048
v 0.14849776 0.00167021062 0.06048
v 0.148318857 0.00173106138 0.06048
v 0.148503348 -0.000833809841 0.06048
v 0.149150357 -0.00148081267 0.06048
v 0.149002492 -0.00161411194 0.06048
v 0.147972956 0.000873506535 0.06048
v 0.148139462 0.0017732312 0.06048
v 0.147962153 0.00179758109 0.06048
v 0.148341864 -0.0009649978 0.06048
v 0.148842558 -0.00173084857 0.06048
v 0.148673326 -0.00182957854 0.06048
v 0.14778918 0.00089036813 0.06048
v 0.14778918 0.00180536835 0.06048
v 0.147616208 0.00179758109 0.06048
v 0.148160949 -0.00105871819 0.06048
v 0.14849776 -0.00190947484 0.06048
v 0.148318857 -0.00197032513 0.06048
v 0.147605389 0.000873506535 0.06048
v 0.1474389 0.0017732312 0.06048
v 0.1472595 0.00173106138 0.06048
v 0.147972956 -0.00111277029 0.06048
v 0.148139462 -0.002012495 0.06048
v 0.147962153 -0.00203684531 0.06048
v 0.1474174 0.000819454435 0.06048
v 0.1470806 0.00167021062 0.06048
v 0.146905035 0.00159031525 0.06048
v 0.14778918 -0.00112963188 0.06048
v 0.14778918 -0.002044632 0.06048
v 0.147616208 -0.00203684531 0.06048
v 0.1472365 0.0007257336 0.06048
v 0.1467358 0.00149158435 0.06048
v 0.146575853 0.00137484772 0.06048
v 0.147605389 -0.00111277029 0.06048
v 0.1474389 -0.002012495 0.06048
v 0.1472595 -0.00197032513 0.06048
v 0.147075 0.000594546553 0.06048
v 0.146427989 0.00124154845 0.06048
v 0.1462947 0.00109369215 0.06048
v 0.1474174 -0.00105871819 0.06048
v 0.1470806 -0.00190947484 0.06048
v 0.146905035 -0.00182957854 0.06048
v 0.146943808 0.00043304963 0.06048
v 0.146177962 0.0009337468 0.06048
v 0.146079227 0.000764509663 0.06048
v 0.1472365 -0.0009649978 0.06048
v 0.1467358 -0.00173084857 0.06048
v 0.146575853 -0.00161411194 0.06048
v 0.1468501 0.000252143946 0.06048
v 0.145999342 0.000588950235 0.06048
v 0.145938486 0.000410047825 0.06048
v 0.147075 -0.000833809841 0.06048
v 0.146427989 -0.00148081267 0.06048
v 0.1462947 -0.0013329559 0.06048
v 0.146796033 6.415043E-05 0.06048
v 0.145896316 0.000230647158 0.06048
v 0.145871967 5.33377752E-05 0.06048
v 0.146943808 -0.00067231385 0.06048
v 0.146177962 -0.00117301056 0.06048
v 0.146079227 -0.00100377388 0.06048
v 0.14677918 -0.00011963211 0.06048
v 0.145864174 -0.00011963211 0.06048
v 0.145871967 -0.000292602 0.06048
v 0.1468501 -0.0004914077 0.06048
v 0.145999342 -0.000828214455 0.06048
v 0.145938486 -0.000649312045 0.06048
v 0.146796033 -0.00030341465 0.06048
v 0.145896316 -0.000469911378 0.06048
v 0.146796033 6.415043E-05 0.0576
v 0.145896316 0.000230647158 0.0576
v 0.145938486 0.000410047825 0.0576
v 0.145871967 5.33377752E-05 0.0576
v 0.1468501 0.000252143946 0.0576
v 0.145999342 0.000588950235 0.0576
v 0.146079227 0.000764509663 0.0576
v 0.14677918 -0.00011963211 0.0576
v 0.145864174 -0.00011963211 0.0576
v 0.145871967 -0.000292602 0.0576
v 0.146943808 0.00043304963 0.0576
v 0.146177962 0.0009337468 0.0576
v 0.1462947 0.00109369215 0.0576
v 0.146796033 -0.00030341465 0.0576
v 0.145896316 -0.000469911378 0.0576
v 0.145938486 -0.000649312045 0.0576
v 0.147075 0.000594546553 0.0576
v 0.146427989 0.00124154845 0.0576
v 0.146575853 0.00137484772 0.0576
v 0.1468501 -0.0004914077 0.0576
v 0.145999342 -0.000828214455 0.0576
v 0.146079227 -0.00100377388 0.0576
v 0.1472365 0.0007257336 0.0576
v 0.1467358 0.00149158435 0.0576
v 0.146905035 0.00159031525 0.0576
v 0.146943808 -0.00067231385 0.0576
v 0.146177962 -0.00117301056 0.0576
v 0.1462947 -0.0013329559 0.0576
v 0.1474174 0.000819454435 0.0576
v 0.1470806 0.00167021062 0.0576
v 0.1472595 0.00173106138 0.0576
v 0.147075 -0.000833809841 0.0576
v 0.146427989 -0.00148081267 0.0576
v 0.146575853 -0.00161411194 0.0576
v 0.147605389 0.000873506535 0.0576
v 0.1474389 0.0017732312 0.0576
v 0.147616208 0.00179758109 0.0576
v 0.1472365 -0.0009649978 0.0576
v 0.1467358 -0.00173084857 0.0576
v 0.146905035 -0.00182957854 0.0576
v 0.14778918 0.00089036813 0.0576
v 0.14778918 0.00180536835 0.0576
v 0.147962153 0.00179758109 0.0576
v 0.1474174 -0.00105871819 0.0576
v 0.1470806 -0.00190947484 0.0576
v 0.1472595 -0.00197032513 0.0576
v 0.147972956 0.000873506535 0.0576
v 0.148139447 0.0017732312 0.0576
v 0.148318857 0.00173106138 0.0576
v 0.147605389 -0.00111277029 0.0576
v 0.1474389 -0.002012495 0.0576
v 0.147616208 -0.00203684531 0.0576
v 0.148160949 0.000819454435 0.0576
v 0.14849776 0.00167021062 0.0576
v 0.148673326 0.00159031525 0.0576
v 0.14778918 -0.00112963188 0.0576
v 0.14778918 -0.002044632 0.0576
v 0.147962153 -0.00203684531 0.0576
v 0.148341864 0.0007257336 0.0576
v 0.148842558 0.00149158435 0.0576
v 0.149002492 0.00137484772 0.0576
v 0.147972956 -0.00111277029 0.0576
v 0.148139447 -0.002012495 0.0576
v 0.148318857 -0.00197032513 0.0576
v 0.148503363 0.000594546553 0.0576
v 0.149150357 0.00124154845 0.0576
v 0.149283648 0.00109369215 0.0576
v 0.148160949 -0.00105871819 0.0576
v 0.14849776 -0.00190947484 0.0576
v 0.148673326 -0.00182957854 0.0576
v 0.148634538 0.00043304963 0.0576
v 0.1494004 0.0009337468 0.0576
v 0.149499118 0.000764509663 0.0576
v 0.148341864 -0.0009649978 0.0576
v 0.148842558 -0.00173084857 0.0576
v 0.149002492 -0.00161411194 0.0576
v 0.148728266 0.000252143946 0.0576
v 0.149579018 0.000588950235 0.0576
v 0.149639875 0.000410047825 0.0576
v 0.148503363 -0.000833809841 0.0576
v 0.149150357 -0.00148081267 0.0576
v 0.149283648 -0.0013329559 0.0576
v 0.148782313 6.415043E-05 0.0576
v 0.149682045 0.000230647158 0.0576
v 0.1497064 5.33377752E-05 0.0576
v 0.148634538 -0.00067231385 0.0576
v 0.1494004 -0.00117301056 0.0576
v 0.149499118 -0.00100377388 0.0576
v 0.148799181 -0.00011963211 0.0576
v 0.149714172 -0.00011963211 0.0576
v 0.1497064 -0.000292602 0.0576
v 0.148728266 -0.0004914077 0.0576
v 0.149579018 -0.000828214455 0.0576
v 0.149639875 -0.000649312045 0.0576
v 0.148782313 -0.00030341465 0.0576
v 0.149682045 -0.000469911378 0.0576
f 1 2 3
f 4 1 3
f 1 4 5
f 4 3 6
f 4 7 5
f 8 4 6
f 4 8 7
f 8 6 9
f 8 10 7
f 11 8 9
f 8 11 10
f 11 9 12
f 11 13 10
f 14 11 12
f 11 14 13
f 14 12 15
f 14 16 13
f 17 14 15
f 14 17 16
f 17 15 18
f 17 19 16
f 20 17 18
f 17 20 19
f 20 18 21
f 22 20 21
f 20 23 19
f 20 22 23
f 22 21 24
f 22 25 23
f 22 24 26
f 22 27 25
f 28 22 26
f 22 28 27
f 28 26 29
f 28 30 27
f 31 28 29
f 28 31 30
f 31 29 32
f 31 33 30
f 34 31 32
f 31 34 33
f 34 32 35
f 34 36 33
f 37 34 35
f 34 37 36
f 37 35 38
f 37 39 36
f 40 37 38
f 37 40 39
f 40 38 41
f 40 42 39
f 43 40 41
f 40 43 42
f 43 41 44
f 45 43 44
f 43 46 42
f 43 45 46
f 45 44 47
f 45 48 46
f 45 47 49
f 45 50 48
f 51 45 49
f 45 51 50
f 51 49 52
f 51 53 50
f 54 51 52
f 51 54 53
f 54 52 55
f 54 56 53
f 57 54 55
f 54 57 56
f 57 55 58
f 57 59 56
f 57 58 60
f 59 57 60
f 61 60 58
f 59 60 61
f 62 61 58
f 63 59 61
f 64 61 62
f 63 61 64
f 65 64 62
f 66 63 64
f 67 64 65
f 66 64 67
f 68 67 65
f 69 66 67
f 70 67 68
f 69 67 70
f 71 70 68
f 72 69 70
f 73 70 71
f 72 70 73
f 74 73 71
f 75 72 73
f 76 73 74
f 75 73 76
f 77 76 74
f 78 75 76
f 79 76 77
f 79 78 76
f 80 79 77
f 79 80 78
f 80 77 81
f 80 82 78
f 83 80 81
f 80 83 82
f 83 81 84
f 83 85 82
f 86 83 84
f 83 86 85
f 86 84 87
f 86 88 85
f 89 86 87
f 86 89 88
f 89 87 90
f 89 91 88
f 92 89 90
f 89 92 91
f 92 90 93
f 92 94 91
f 95 92 93
f 92 95 94
f 95 93 96
f 94 95 97
f 95 96 97
f 96 98 97
f 98 99 97
f 97 99 100
f 98 101 99
f 99 102 100
f 101 103 99
f 99 103 102
f 101 104 103
f 103 105 102
f 104 106 103
f 103 106 105
f 104 107 106
f 106 108 105
f 107 109 106
f 106 109 108
f 107 110 109
f 109 111 108
f 110 112 109
f 109 112 111
f 110 113 112
f 112 114 111
f 113 115 112
f 112 115 114
f 113 116 115
f 116 117 115
f 115 118 114
f 115 117 118
f 116 119 117
f 117 120 118
f 119 121 117
f 117 122 120
f 121 123 117
f 117 123 122
f 121 124 123
f 123 125 122
f 124 126 123
f 123 126 125
f 124 127 126
f 126 128 125
f 127 129 126
f 126 129 128
f 127 130 129
f 129 131 128
f 130 132 129
f 129 132 131
f 130 133 132
f 132 134 131
f 133 135 132
f 132 135 134
f 133 136 135
f 135 137 134
f 136 138 135
f 135 138 137
f 136 139 138
f 139 140 138
f 138 141 137
f 138 140 141
f 139 142 140
f 140 143 141
f 142 144 140
f 140 145 143
f 144 146 140
f 140 146 145
f 144 147 146
f 146 148 145
f 147 149 146
f 146 149 148
f 147 150 149
f 149 151 148
f 150 152 149
f 149 152 151
f 150 153 152
f 152 154 151
f 153 155 152
f 152 155 154
f 153 156 155
f 156 154 155
f 156 153 157
f 156 158 154
f 159 156 157
f 156 159 158
f 159 157 160
f 159 161 158
f 162 159 160
f 159 162 161
f 162 160 163
f 162 164 161
f 165 162 163
f 162 165 164
f 165 163 166
f 165 167 164
f 168 165 166
f 165 168 167
f 168 166 169
f 168 170 167
f 171 168 169
f 168 171 170
f 171 169 172
f 171 173 170
f 174 171 172
f 171 174 173
f 174 172 175
f 174 175 173
f 172 176 175
f 177 173 175
f 176 178 175
f 177 175 178
f 176 179 178
f 180 177 178
f 179 181 178
f 180 178 181
f 179 182 181
f 183 180 181
f 182 184 181
f 183 181 184
f 182 185 184
f 186 183 184
f 185 187 184
f 186 184 187
f 185 188 187
f 189 186 187
f 188 190 187
f 189 187 190
f 188 191 190
f 192 189 190
f 191 192 190
f 193 194 195
f 196 194 193
f 196 197 194
f 198 196 193
f 196 198 197
f 198 193 199
f 198 200 197
f 201 198 199
f 198 201 200
f 199 202 201
f 201 203 200
f 202 204 201
f 201 204 203
f 202 205 204
f 205 203 204
f 205 202 206
f 205 207 203
f 205 206 208
f 207 205 208
f 209 208 206
f 207 208 209
f 210 209 206
f 211 207 209
f 212 209 210
f 212 211 209
f 213 212 210
f 212 213 211
f 213 210 214
f 213 215 211
f 216 213 214
f 213 216 215
f 216 214 217
f 216 218 215
f 216 217 219
f 218 216 219
f 220 219 217
f 218 219 220
f 220 217 221
f 222 218 220
f 223 220 221
f 224 222 220
f 225 220 223
f 224 220 225
f 226 225 223
f 227 224 225
f 228 225 226
f 228 227 225
f 229 228 226
f 228 229 227
f 229 226 230
f 229 231 227
f 232 229 230
f 229 232 231
f 232 230 233
f 232 234 231
f 235 232 233
f 232 235 234
f 235 233 236
f 235 237 234
f 238 235 236
f 235 238 237
f 238 236 239
f 238 240 237
f 241 238 239
f 238 241 240
f 241 239 242
f 241 243 240
f 244 241 242
f 241 244 243
f 244 242 245
f 243 244 246
f 244 245 246
f 245 247 246
f 247 248 246
f 246 248 249
f 247 250 248
f 250 249 248
f 250 247 251
f 250 252 249
f 253 250 251
f 250 253 252
f 253 251 254
f 253 255 252
f 256 253 254
f 253 256 255
f 256 254 257
f 256 257 255
f 254 258 257
f 255 257 259
f 258 260 257
f 257 260 259
f 258 261 260
f 261 259 260
f 261 258 262
f 261 263 259
f 261 262 264
f 263 261 264
f 265 264 262
f 263 264 265
f 265 262 266
f 267 263 265
f 268 265 266
f 265 268 267
f 268 266 269
f 268 270 267
f 271 268 269
f 268 271 270
f 271 269 272
f 271 272 270
f 269 273 272
f 270 272 274
f 273 275 272
f 272 276 274
f 275 277 272
f 272 277 276
f 275 278 277
f 277 279 276
f 278 280 277
f 277 280 279
f 278 281 280
f 281 279 280
f 282 281 278
f 281 283 279
f 284 281 282
f 281 284 283
f 285 284 282
f 284 286 283
f 287 284 285
f 284 287 286
f 288 287 285
f 287 289 286
f 290 287 288
f 287 290 289
f 291 290 288
f 290 292 289
f 293 290 291
f 290 293 292
f 294 293 291
f 293 295 292
f 296 293 294
f 293 296 295
f 297 296 294
f 296 298 295
f 296 297 298
f 299 300 301
f 299 302 300
f 303 299 301
f 303 301 304
f 303 304 305
f 299 306 302
f 302 306 307
f 306 308 307
f 309 303 305
f 309 305 310
f 309 310 311
f 306 312 308
f 312 313 308
f 312 314 313
f 315 309 311
f 315 311 316
f 315 316 317
f 312 318 314
f 318 319 314
f 318 320 319
f 321 315 317
f 321 317 322
f 321 322 323
f 318 324 320
f 324 325 320
f 324 326 325
f 327 321 323
f 327 323 328
f 327 328 329
f 324 330 326
f 330 331 326
f 330 332 331
f 333 327 329
f 333 329 334
f 333 334 335
f 330 336 332
f 336 337 332
f 336 338 337
f 339 333 335
f 339 335 340
f 339 340 341
f 336 342 338
f 342 343 338
f 342 344 343
f 345 339 341
f 345 341 346
f 345 346 347
f 342 348 344
f 348 349 344
f 348 350 349
f 351 345 347
f 351 347 352
f 351 352 353
f 348 354 350
f 354 355 350
f 354 356 355
f 357 351 353
f 357 353 358
f 357 358 359
f 354 360 356
f 360 361 356
f 360 362 361
f 363 357 359
f 363 359 364
f 363 364 365
f 360 366 362
f 366 367 362
f 366 368 367
f 369 363 365
f 369 365 370
f 369 370 371
f 366 372 368
f 372 373 368
f 372 374 373
f 375 369 371
f 375 371 376
f 375 376 377
f 372 378 374
f 378 379 374
f 378 380 379
f 381 375 377
f 381 377 382
f 381 382 383
f 378 384 380
f 384 385 380
f 384 386 385
f 387 381 383
f 387 383 388
f 387 388 389
f 384 390 386
f 390 391 386
f 390 392 391
f 393 387 389
f 390 393 392
f 393 389 394
f 393 394 392
f 395 396 397
f 395 398 396
f 399 395 397
f 399 397 400
f 399 400 401
f 395 402 398
f 398 402 403
f 402 404 403
f 405 399 401
f 405 401 406
f 405 406 407
f 402 408 404
f 408 409 404
f 408 410 409
f 411 405 407
f 411 407 412
f 411 412 413
f 408 414 410
f 414 415 410
f 414 416 415
f 417 411 413
f 417 413 418
f 417 418 419
f 414 420 416
f 420 421 416
f 420 422 421
f 423 417 419
f 423 419 424
f 423 424 425
f 420 426 422
f 426 427 422
f 426 428 427
f 429 423 425
f 429 425 430
f 429 430 431
f 426 432 428
f 432 433 428
f 432 434 433
f 435 429 431
f 435 431 436
f 435 436 437
f 432 438 434
f 438 439 434
f 438 440 439
f 441 435 437
f 441 437 442
f 441 442 443
f 438 444 440
f 444 445 440
f 444 446 445
f 447 441 443
f 447 443 448
f 447 448 449
f 444 450 446
f 450 451 446
f 450 452 451
f 453 447 449
f 453 449 454
f 453 454 455
f 450 456 452
f 456 457 452
f 456 458 457
f 459 453 455
f 459 455 460
f 459 460 461
f 456 462 458
f 462 463 458
f 462 464 463
f 465 459 461
f 465 461 466
f 465 466 467
f 462 468 464
f 468 469 464
f 468 470 469
f 471 465 467
f 471 467 472
f 471 472 473
f 468 474 470
f 474 475 470
f 474 476 475
f 477 471 473
f 477 473 478
f 477 478 479
f 474 480 476
f 480 481 476
f 480 482 481
f 483 477 479
f 483 479 484
f 483 484 485
f 480 486 482
f 486 487 482
f 486 488 487
f 489 483 485
f 486 489 488
f 489 485 490
f 489 490 488
