# ROS coordinates: X forward, Y left, Z up; units are metres.
o mesh
v -0.0619000047 -0.01455 0.12649
v -0.0619000047 -0.00925 0.12649
v -0.0623000041 -0.01455 0.12609
v -0.04886301 -0.01609721 0.12509
v -0.0489928946 -0.0162571073 0.12509
v -0.04915279 -0.016386997 0.12509
v -0.0493319072 -0.0164797883 0.12509
v -0.04877021 -0.0159180947 0.12509
v -0.04951804 -0.0165333059 0.12509
v -0.0487166941 -0.0157319643 0.12509
v -0.0497000031 -0.01655 0.12509
v -0.0487 -0.0155500006 0.12509
v -0.056 -0.00925 0.12509
v -0.0620585829 -0.01655 0.12509
v -0.0633000061 -0.0153085794 0.12509
v -0.0633000061 -0.00295 0.12509
v -0.0487 -0.00295 0.12509
v -0.0623000041 -0.00195000041 0.12509
v -0.06328331 -0.00276803738 0.12509
v -0.0497000031 -0.00195000041 0.12509
v -0.0624819659 -0.00196669484 0.12509
v -0.06322979 -0.002581905 0.12509
v -0.0626681 -0.00202021236 0.12509
v -0.063137 -0.00240279036 0.12509
v -0.06284721 -0.00211300468 0.12509
v -0.06300711 -0.00224289345 0.12509
v -0.04951804 -0.00196669484 0.12509
v -0.0487166941 -0.00276803738 0.12509
v -0.04877021 -0.002581905 0.12509
v -0.0493319072 -0.00202021236 0.12509
v -0.04886301 -0.00240279036 0.12509
v -0.04915279 -0.00211300468 0.12509
v -0.0489928946 -0.00224289345 0.12509
v -0.0614966638 -0.0145863928 0.12689
v -0.0615000054 -0.01455 0.12689
v -0.0617000051 -0.01455 0.12669
v -0.0618899874 -0.0146591775 0.12649
v -0.0619000047 -0.01455 0.12649
v -0.0622833073 -0.0147319622 0.12609
v -0.0623000041 -0.01455 0.12609
v -0.0622297935 -0.0149180945 0.12609
v -0.06185788 -0.014770858 0.12649
v -0.06148596 -0.01462362 0.12689
v -0.0618329756 -0.0148255769 0.12649
v -0.062137 -0.01509721 0.12609
v -0.0614674 -0.014659442 0.12689
v -0.0618022 -0.014878327 0.12649
v -0.06200711 -0.0152571071 0.12609
v -0.0617242679 -0.0149742644 0.12649
v -0.0614414252 -0.0146914218 0.12689
v -0.0618472137 -0.0153869968 0.12609
v -0.06162833 -0.0150521975 0.12649
v -0.0614094473 -0.0147174 0.12689
v -0.061668098 -0.0154797882 0.12609
v -0.06152086 -0.0151078738 0.12649
v -0.06137362 -0.0147359576 0.12689
v -0.0614819676 -0.0155333057 0.12609
v -0.0614091828 -0.015139984 0.12649
v -0.061300002 -0.0155500006 0.12609
v -0.061300002 -0.0151499994 0.12649
v -0.0613363981 -0.0147466622 0.12689
v -0.061300002 -0.01495 0.12669
v -0.061300002 -0.01475 0.12689
v -0.0619000047 -0.00925 0.12649
v -0.0623000041 -0.00395000027 0.12609
v -0.0623000041 -0.01455 0.12609
v -0.0619000047 -0.00395000027 0.12649
v -0.0617000051 -0.00395000027 0.12669
v -0.0615000054 -0.00395000027 0.12689
v -0.0615000054 -0.01455 0.12689
v -0.0617000051 -0.01455 0.12669
v -0.0619000047 -0.01455 0.12649
v -0.0613363981 -0.00375333941 0.12689
v -0.061300002 -0.00375000015 0.12689
v -0.061300002 -0.00355 0.12669
v -0.0614091828 -0.00336001674 0.12649
v -0.061300002 -0.00335000036 0.12649
v -0.0614819676 -0.002966695 0.12609
v -0.061300002 -0.00295 0.12609
v -0.061668098 -0.003020212 0.12609
v -0.06152086 -0.00339212688 0.12649
v -0.06137362 -0.00376404263 0.12689
v -0.06157558 -0.00341703 0.12649
v -0.0618472137 -0.00311300438 0.12609
v -0.0614094473 -0.003782601 0.12689
v -0.06162833 -0.00344780274 0.12649
v -0.06200711 -0.00324289314 0.12609
v -0.0617242679 -0.00352573628 0.12649
v -0.0614414252 -0.003808579 0.12689
v -0.062137 -0.00340279052 0.12609
v -0.0618022 -0.00362167414 0.12649
v -0.0614674 -0.0038405587 0.12689
v -0.0622297935 -0.00358190574 0.12609
v -0.06185788 -0.00372914318 0.12649
v -0.06148596 -0.003876381 0.12689
v -0.0622833073 -0.00376803754 0.12609
v -0.0618899874 -0.00384082319 0.12649
v -0.0623000041 -0.00395000027 0.12609
v -0.0619000047 -0.00395000027 0.12649
v -0.0614966638 -0.003913608 0.12689
v -0.0617000051 -0.00395000027 0.12669
v -0.0615000054 -0.00395000027 0.12689
v -0.0505033433 -0.003913608 0.12689
v -0.0505 -0.00395000027 0.12689
v -0.0503000021 -0.00395000027 0.12669
v -0.05011002 -0.00384082319 0.12649
v -0.0501000024 -0.00395000027 0.12649
v -0.0497166961 -0.00376803754 0.12609
v -0.0497000031 -0.00395000027 0.12609
v -0.0497702137 -0.00358190574 0.12609
v -0.050142128 -0.00372914318 0.12649
v -0.0505140424 -0.003876381 0.12689
v -0.05016703 -0.00367442332 0.12649
v -0.0498630069 -0.00340279052 0.12609
v -0.0505326 -0.0038405587 0.12689
v -0.0501978025 -0.00362167414 0.12649
v -0.0499928966 -0.00324289314 0.12609
v -0.05027574 -0.00352573628 0.12649
v -0.0505585819 -0.003808579 0.12689
v -0.0501527935 -0.00311300438 0.12609
v -0.0503716767 -0.00344780274 0.12649
v -0.05059056 -0.003782601 0.12689
v -0.0503319055 -0.003020212 0.12609
v -0.0504791439 -0.00339212688 0.12649
v -0.0506263822 -0.00376404263 0.12689
v -0.05051804 -0.002966695 0.12609
v -0.0505908243 -0.00336001674 0.12649
v -0.0507 -0.00295 0.12609
v -0.0507 -0.00335000036 0.12649
v -0.0506636128 -0.00375333941 0.12689
v -0.0507 -0.00355 0.12669
v -0.0507 -0.00375000015 0.12689
v -0.0506636128 -0.0147466622 0.12689
v -0.0507 -0.01475 0.12689
v -0.0507 -0.01495 0.12669
v -0.0505908243 -0.015139984 0.12649
v -0.0507 -0.0151499994 0.12649
v -0.05051804 -0.0155333057 0.12609
v -0.0507 -0.0155500006 0.12609
v -0.0503319055 -0.0154797882 0.12609
v -0.0504791439 -0.0151078738 0.12649
v -0.0506263822 -0.0147359576 0.12689
v -0.0504244268 -0.01508297 0.12649
v -0.0501527935 -0.0153869968 0.12609
v -0.05059056 -0.0147174 0.12689
v -0.0503716767 -0.0150521975 0.12649
v -0.0499928966 -0.0152571071 0.12609
v -0.05027574 -0.0149742644 0.12649
v -0.0505585819 -0.0146914218 0.12689
v -0.0498630069 -0.01509721 0.12609
v -0.0501978025 -0.014878327 0.12649
v -0.0505326 -0.014659442 0.12689
v -0.0497702137 -0.0149180945 0.12609
v -0.050142128 -0.014770858 0.12649
v -0.0505140424 -0.01462362 0.12689
v -0.0497166961 -0.0147319622 0.12609
v -0.05011002 -0.0146591775 0.12649
v -0.0497000031 -0.01455 0.12609
v -0.0501000024 -0.01455 0.12649
v -0.0505033433 -0.0145863928 0.12689
v -0.0503000021 -0.01455 0.12669
v -0.0505 -0.01455 0.12689
v -0.0614674 -0.014659442 0.12689
v -0.0614414252 -0.0146914218 0.12689
v -0.0614094473 -0.0147174 0.12689
v -0.06137362 -0.0147359576 0.12689
v -0.06148596 -0.01462362 0.12689
v -0.0613363981 -0.0147466622 0.12689
v -0.0614966638 -0.0145863928 0.12689
v -0.061300002 -0.01475 0.12689
v -0.0615000054 -0.01455 0.12689
v -0.056 -0.00925 0.12689
v -0.0507 -0.01475 0.12689
v -0.0615000054 -0.00395000027 0.12689
v -0.0505 -0.01455 0.12689
v -0.0506636128 -0.0147466622 0.12689
v -0.0505033433 -0.0145863928 0.12689
v -0.0506263822 -0.0147359576 0.12689
v -0.0505140424 -0.01462362 0.12689
v -0.05059056 -0.0147174 0.12689
v -0.0505326 -0.014659442 0.12689
v -0.0505585819 -0.0146914218 0.12689
v -0.0505 -0.00395000027 0.12689
v -0.0507 -0.00375000015 0.12689
v -0.0505033433 -0.003913608 0.12689
v -0.061300002 -0.00375000015 0.12689
v -0.0506636128 -0.00375333941 0.12689
v -0.0505140424 -0.003876381 0.12689
v -0.0506263822 -0.00376404263 0.12689
v -0.0505326 -0.0038405587 0.12689
v -0.05059056 -0.003782601 0.12689
v -0.0505585819 -0.003808579 0.12689
v -0.0613363981 -0.00375333941 0.12689
v -0.0614966638 -0.003913608 0.12689
v -0.06148596 -0.003876381 0.12689
v -0.06137362 -0.00376404263 0.12689
v -0.0614674 -0.0038405587 0.12689
v -0.0614094473 -0.003782601 0.12689
v -0.0614414252 -0.003808579 0.12689
v -0.0507 -0.01475 0.12689
v -0.056 -0.0151499994 0.12649
v -0.0507 -0.01495 0.12669
v -0.061300002 -0.01475 0.12689
v -0.0507 -0.0151499994 0.12649
v -0.061300002 -0.01495 0.12669
v -0.0507 -0.0155500006 0.12609
v -0.061300002 -0.0151499994 0.12649
v -0.061300002 -0.0155500006 0.12609
v -0.0505 -0.00395000027 0.12689
v -0.0501000024 -0.00925 0.12649
v -0.0503000021 -0.00395000027 0.12669
v -0.0505 -0.01455 0.12689
v -0.0501000024 -0.00395000027 0.12649
v -0.0503000021 -0.01455 0.12669
v -0.0497000031 -0.00395000027 0.12609
v -0.0501000024 -0.01455 0.12649
v -0.0497000031 -0.01455 0.12609
v -0.061300002 -0.00375000015 0.12689
v -0.056 -0.00335000036 0.12649
v -0.061300002 -0.00355 0.12669
v -0.0507 -0.00375000015 0.12689
v -0.061300002 -0.00335000036 0.12649
v -0.0507 -0.00355 0.12669
v -0.061300002 -0.00295 0.12609
v -0.0507 -0.00335000036 0.12649
v -0.0507 -0.00295 0.12609
v -0.0624819659 -0.00196669484 0.12559
v -0.0624819659 -0.00196669484 0.12509
v -0.0626681 -0.00202021236 0.12509
v -0.0623000041 -0.00195000041 0.12509
v -0.0623000041 -0.00195000041 0.12609
v -0.0624819659 -0.00196669484 0.12609
v -0.0626681 -0.00202021236 0.12559
v -0.06284721 -0.00211300468 0.12509
v -0.0626681 -0.00202021236 0.12609
v -0.06284721 -0.00211300468 0.12559
v -0.06300711 -0.00224289345 0.12509
v -0.06284721 -0.00211300468 0.12609
v -0.06300711 -0.00224289345 0.12559
v -0.063137 -0.00240279036 0.12509
v -0.06300711 -0.00224289345 0.12609
v -0.063137 -0.00240279036 0.12559
v -0.06322979 -0.002581905 0.12509
v -0.063137 -0.00240279036 0.12609
v -0.06322979 -0.002581905 0.12559
v -0.06328331 -0.00276803738 0.12509
v -0.06322979 -0.002581905 0.12609
v -0.06328331 -0.00276803738 0.12559
v -0.0633000061 -0.00295 0.12509
v -0.06328331 -0.00276803738 0.12609
v -0.0633000061 -0.00295 0.12609
v -0.0487166978 -0.00276803738 0.125590011
v -0.0487166941 -0.00276803738 0.12509
v -0.04877021 -0.002581905 0.12509
v -0.0487 -0.00295 0.12509
v -0.0487 -0.00295 0.12609
v -0.0487166941 -0.00276803738 0.12609
v -0.0487702154 -0.002581905 0.125590011
v -0.04886301 -0.00240279036 0.12509
v -0.04877021 -0.002581905 0.12609
v -0.04886301 -0.00240279036 0.125590011
v -0.0489928946 -0.00224289345 0.12509
v -0.04886301 -0.00240279036 0.12609
v -0.0489928946 -0.00224289345 0.125590011
v -0.04915279 -0.00211300468 0.12509
v -0.0489928946 -0.00224289345 0.12609
v -0.04915279 -0.00211300468 0.125590011
v -0.0493319072 -0.00202021236 0.12509
v -0.04915279 -0.00211300468 0.12609
v -0.0493319072 -0.00202021236 0.125590011
v -0.04951804 -0.00196669484 0.12509
v -0.0493319072 -0.00202021236 0.12609
v -0.04951804 -0.00196669484 0.125590011
v -0.0497000031 -0.00195000041 0.12509
v -0.04951804 -0.00196669484 0.12609
v -0.0497000031 -0.00195000041 0.12609
v -0.04951804 -0.0165333059 0.125590011
v -0.04951804 -0.0165333059 0.12509
v -0.0493319072 -0.0164797883 0.12509
v -0.0497000031 -0.01655 0.12509
v -0.0497000031 -0.01655 0.12609
v -0.04951804 -0.0165333059 0.12609
v -0.0493319072 -0.0164797883 0.125590011
v -0.04915279 -0.016386997 0.12509
v -0.0493319072 -0.0164797883 0.12609
v -0.04915279 -0.016386997 0.125590011
v -0.0489928946 -0.0162571073 0.12509
v -0.04915279 -0.016386997 0.12609
v -0.0489928946 -0.0162571073 0.125590011
v -0.04886301 -0.01609721 0.12509
v -0.0489928946 -0.0162571073 0.12609
v -0.04886301 -0.01609721 0.125590011
v -0.04877021 -0.0159180947 0.12509
v -0.04886301 -0.01609721 0.12609
v -0.0487702154 -0.0159180947 0.125590011
v -0.0487166941 -0.0157319643 0.12509
v -0.04877021 -0.0159180947 0.12609
v -0.0487166978 -0.0157319643 0.125590011
v -0.0487 -0.0155500006 0.12509
v -0.0487166941 -0.0157319643 0.12609
v -0.0487 -0.0155500006 0.12609
v -0.0633000061 -0.0153085794 0.12609
v -0.0633000061 -0.00912929 0.12559
v -0.0633000061 -0.0153085794 0.12509
v -0.0633000061 -0.00295 0.12609
v -0.0633000061 -0.00295 0.12509
v -0.0620585829 -0.01655 0.12609
v -0.06267929 -0.01592929 0.12559
v -0.0620585829 -0.01655 0.12509
v -0.0633000061 -0.0153085794 0.12609
v -0.0633000061 -0.0153085794 0.12509
v -0.0623000041 -0.00395000027 0.12609
v -0.0622833073 -0.00376803754 0.12609
v -0.0633000061 -0.00295 0.12609
v -0.0622297935 -0.00358190574 0.12609
v -0.062137 -0.00340279052 0.12609
v -0.06328331 -0.00276803738 0.12609
v -0.06200711 -0.00324289314 0.12609
v -0.0633000061 -0.0153085794 0.12609
v -0.06322979 -0.002581905 0.12609
v -0.0623000041 -0.01455 0.12609
v -0.063137 -0.00240279036 0.12609
v -0.0622833073 -0.0147319622 0.12609
v -0.06300711 -0.00224289345 0.12609
v -0.0622297935 -0.0149180945 0.12609
v -0.062137 -0.01509721 0.12609
v -0.06200711 -0.0152571071 0.12609
v -0.06284721 -0.00211300468 0.12609
v -0.0626681 -0.00202021236 0.12609
v -0.0624819659 -0.00196669484 0.12609
v -0.0618472137 -0.00311300438 0.12609
v -0.0620585829 -0.01655 0.12609
v -0.0623000041 -0.00195000041 0.12609
v -0.0618472137 -0.0153869968 0.12609
v -0.061668098 -0.003020212 0.12609
v -0.0614819676 -0.002966695 0.12609
v -0.061300002 -0.00295 0.12609
v -0.061668098 -0.0154797882 0.12609
v -0.0497000031 -0.00195000041 0.12609
v -0.0614819676 -0.0155333057 0.12609
v -0.061300002 -0.0155500006 0.12609
v -0.0507 -0.0155500006 0.12609
v -0.0497000031 -0.01655 0.12609
v -0.05051804 -0.0155333057 0.12609
v -0.04951804 -0.0165333059 0.12609
v -0.0507 -0.00295 0.12609
v -0.0493319072 -0.0164797883 0.12609
v -0.05051804 -0.002966695 0.12609
v -0.0503319055 -0.003020212 0.12609
v -0.0501527935 -0.00311300438 0.12609
v -0.04951804 -0.00196669484 0.12609
v -0.0499928966 -0.00324289314 0.12609
v -0.04915279 -0.016386997 0.12609
v -0.0493319072 -0.00202021236 0.12609
v -0.0489928946 -0.0162571073 0.12609
v -0.04915279 -0.00211300468 0.12609
v -0.04886301 -0.01609721 0.12609
v -0.04877021 -0.0159180947 0.12609
v -0.0489928946 -0.00224289345 0.12609
v -0.0487166941 -0.0157319643 0.12609
v -0.04886301 -0.00240279036 0.12609
v -0.04877021 -0.002581905 0.12609
v -0.0487166941 -0.00276803738 0.12609
v -0.0498630069 -0.00340279052 0.12609
v -0.0503319055 -0.0154797882 0.12609
v -0.0487 -0.00295 0.12609
v -0.0501527935 -0.0153869968 0.12609
v -0.0499928966 -0.0152571071 0.12609
v -0.0498630069 -0.01509721 0.12609
v -0.0497702137 -0.00358190574 0.12609
v -0.0497166961 -0.00376803754 0.12609
v -0.0497000031 -0.00395000027 0.12609
v -0.0487 -0.0155500006 0.12609
v -0.0497702137 -0.0149180945 0.12609
v -0.0497000031 -0.01455 0.12609
v -0.0497166961 -0.0147319622 0.12609
v -0.0620585829 -0.01655 0.12509
v -0.05587929 -0.01655 0.12559
v -0.0620585829 -0.01655 0.12609
v -0.0497000031 -0.01655 0.12509
v -0.0497000031 -0.01655 0.12609
v -0.0487 -0.00295 0.12609
v -0.0487 -0.00925 0.125590011
v -0.0487 -0.00295 0.12509
v -0.0487 -0.0155500006 0.12609
v -0.0487 -0.0155500006 0.12509
v -0.0623000041 -0.00195000041 0.12609
v -0.056 -0.00195000041 0.12559
v -0.0623000041 -0.00195000041 0.12509
v -0.0497000031 -0.00195000041 0.12609
v -0.0497000031 -0.00195000041 0.12509
f 1 2 3
f 4 5 6
f 4 6 7
f 8 4 7
f 8 7 9
f 10 8 9
f 10 9 11
f 12 10 11
f 13 12 11
f 13 11 14
f 15 13 14
f 13 15 16
f 12 13 17
f 18 13 16
f 18 16 19
f 13 18 20
f 13 20 17
f 21 18 19
f 19 22 21
f 22 23 21
f 22 24 23
f 24 25 23
f 24 26 25
f 20 27 17
f 27 28 17
f 27 29 28
f 27 30 29
f 30 31 29
f 30 32 31
f 32 33 31
f 34 35 36
f 34 36 37
f 37 36 38
f 37 38 39
f 39 38 40
f 41 37 39
f 42 34 37
f 42 37 41
f 34 42 43
f 44 42 41
f 42 44 43
f 44 41 45
f 43 44 46
f 47 44 45
f 44 47 46
f 47 45 48
f 47 49 46
f 49 47 48
f 49 50 46
f 49 48 51
f 49 52 50
f 52 49 51
f 52 53 50
f 52 51 54
f 52 55 53
f 55 52 54
f 55 56 53
f 55 54 57
f 55 58 56
f 58 55 57
f 58 57 59
f 60 58 59
f 58 61 56
f 62 58 60
f 58 62 61
f 62 63 61
f 64 65 66
f 64 67 65
f 67 64 68
f 64 69 68
f 64 70 69
f 70 64 71
f 64 72 71
f 73 74 75
f 73 75 76
f 76 75 77
f 76 77 78
f 78 77 79
f 80 76 78
f 81 73 76
f 81 76 80
f 73 81 82
f 83 81 80
f 81 83 82
f 83 80 84
f 82 83 85
f 86 83 84
f 83 86 85
f 86 84 87
f 86 88 85
f 88 86 87
f 88 89 85
f 88 87 90
f 88 91 89
f 91 88 90
f 91 92 89
f 91 90 93
f 91 94 92
f 94 91 93
f 94 95 92
f 94 93 96
f 94 97 95
f 97 94 96
f 97 96 98
f 99 97 98
f 97 100 95
f 101 97 99
f 97 101 100
f 101 102 100
f 103 104 105
f 103 105 106
f 106 105 107
f 106 107 108
f 108 107 109
f 110 106 108
f 111 103 106
f 111 106 110
f 103 111 112
f 113 111 110
f 111 113 112
f 113 110 114
f 112 113 115
f 116 113 114
f 113 116 115
f 116 114 117
f 116 118 115
f 118 116 117
f 118 119 115
f 118 117 120
f 118 121 119
f 121 118 120
f 121 122 119
f 121 120 123
f 121 124 122
f 124 121 123
f 124 125 122
f 124 123 126
f 124 127 125
f 127 124 126
f 127 126 128
f 129 127 128
f 127 130 125
f 131 127 129
f 127 131 130
f 131 132 130
f 133 134 135
f 133 135 136
f 136 135 137
f 136 137 138
f 138 137 139
f 140 136 138
f 141 133 136
f 141 136 140
f 133 141 142
f 143 141 140
f 141 143 142
f 143 140 144
f 142 143 145
f 146 143 144
f 143 146 145
f 146 144 147
f 146 148 145
f 148 146 147
f 148 149 145
f 148 147 150
f 148 151 149
f 151 148 150
f 151 152 149
f 151 150 153
f 151 154 152
f 154 151 153
f 154 155 152
f 154 153 156
f 154 157 155
f 157 154 156
f 157 156 158
f 159 157 158
f 157 160 155
f 161 157 159
f 157 161 160
f 161 162 160
f 163 164 165
f 163 165 166
f 167 163 166
f 167 166 168
f 169 167 168
f 168 170 169
f 170 171 169
f 170 172 171
f 172 170 173
f 172 174 171
f 175 172 173
f 175 173 176
f 177 175 176
f 176 178 177
f 178 179 177
f 178 180 179
f 180 181 179
f 180 182 181
f 172 175 183
f 172 183 184
f 183 185 184
f 186 172 184
f 172 186 174
f 185 187 184
f 185 188 187
f 188 189 187
f 188 190 189
f 190 191 189
f 190 192 191
f 186 193 174
f 193 194 174
f 193 195 194
f 193 196 195
f 196 197 195
f 196 198 197
f 198 199 197
f 200 201 202
f 201 200 203
f 201 204 202
f 201 203 205
f 204 201 206
f 207 201 205
f 201 208 206
f 201 207 208
f 209 210 211
f 210 209 212
f 210 213 211
f 210 212 214
f 213 210 215
f 216 210 214
f 210 217 215
f 210 216 217
f 218 219 220
f 219 218 221
f 219 222 220
f 219 221 223
f 222 219 224
f 225 219 223
f 219 226 224
f 219 225 226
f 227 228 229
f 227 230 228
f 230 227 231
f 227 232 231
f 233 227 229
f 227 233 232
f 233 229 234
f 233 235 232
f 236 233 234
f 233 236 235
f 236 234 237
f 236 238 235
f 239 236 237
f 236 239 238
f 239 237 240
f 239 241 238
f 242 239 240
f 239 242 241
f 242 240 243
f 242 244 241
f 245 242 243
f 242 245 244
f 245 243 246
f 245 247 244
f 248 245 246
f 245 248 247
f 248 246 249
f 248 250 247
f 251 248 249
f 248 251 250
f 252 253 254
f 252 255 253
f 255 252 256
f 252 257 256
f 258 252 254
f 252 258 257
f 258 254 259
f 258 260 257
f 261 258 259
f 258 261 260
f 261 259 262
f 261 263 260
f 264 261 262
f 261 264 263
f 264 262 265
f 264 266 263
f 267 264 265
f 264 267 266
f 267 265 268
f 267 269 266
f 270 267 268
f 267 270 269
f 270 268 271
f 270 272 269
f 273 270 271
f 270 273 272
f 273 271 274
f 273 275 272
f 276 273 274
f 273 276 275
f 277 278 279
f 277 280 278
f 280 277 281
f 277 282 281
f 283 277 279
f 277 283 282
f 283 279 284
f 283 285 282
f 286 283 284
f 283 286 285
f 286 284 287
f 286 288 285
f 289 286 287
f 286 289 288
f 289 287 290
f 289 291 288
f 292 289 290
f 289 292 291
f 292 290 293
f 292 294 291
f 295 292 293
f 292 295 294
f 295 293 296
f 295 297 294
f 298 295 296
f 295 298 297
f 298 296 299
f 298 300 297
f 301 298 299
f 298 301 300
f 302 303 304
f 305 303 302
f 303 306 304
f 303 305 306
f 307 308 309
f 310 308 307
f 308 311 309
f 308 310 311
f 312 313 314
f 313 315 314
f 315 316 314
f 316 317 314
f 316 318 317
f 312 314 319
f 318 320 317
f 321 312 319
f 318 322 320
f 323 321 319
f 322 318 324
f 325 323 319
f 326 325 319
f 327 326 319
f 318 328 324
f 318 329 328
f 329 318 330
f 318 331 330
f 327 319 332
f 331 333 330
f 334 327 332
f 331 335 333
f 335 336 333
f 336 337 333
f 338 334 332
f 337 339 333
f 340 338 332
f 341 340 332
f 342 341 332
f 342 332 343
f 344 342 343
f 344 343 345
f 337 346 339
f 344 345 347
f 346 348 339
f 348 349 339
f 349 350 339
f 350 351 339
f 350 352 351
f 353 344 347
f 352 354 351
f 344 353 355
f 352 356 354
f 344 355 357
f 358 344 357
f 356 352 359
f 358 360 344
f 352 361 359
f 352 362 361
f 362 352 363
f 352 364 363
f 360 365 344
f 364 366 363
f 360 367 365
f 367 360 368
f 360 369 368
f 364 370 366
f 366 370 371
f 366 371 372
f 360 373 369
f 373 366 372
f 373 374 369
f 373 372 375
f 373 376 374
f 376 373 375
f 377 378 379
f 380 378 377
f 378 381 379
f 378 380 381
f 382 383 384
f 385 383 382
f 383 386 384
f 383 385 386
f 387 388 389
f 390 388 387
f 388 391 389
f 388 390 391
