# ROS coordinates: X forward, Y left, Z up; units are metres.
o mesh
v -0.07741526 -0.08015 0.1714952
v -0.07666526 -0.08015 0.170196161
v -0.07692527 -0.080122456 0.170046046
v -0.07733823 -0.0801137239 0.170673639
v -0.07767527 -0.080122456 0.171345085
v -0.07719124 -0.08003415 0.16989249
v -0.07794124 -0.08003415 0.171191514
v -0.0776411444 -0.07999702 0.170498759
v -0.07744719 -0.07988104 0.1697447
v -0.07819719 -0.07988104 0.171043754
v -0.07792445 -0.07979618 0.170335189
v -0.07767567 -0.0796667337 0.1696128
v -0.07842567 -0.0796667337 0.170911834
v -0.07816278 -0.079521 0.170197591
v -0.07786128 -0.0794028938 0.169505641
v -0.07861128 -0.0794028938 0.170804679
v -0.07833671 -0.07919386 0.170097172
v -0.07799387 -0.07910736 0.169429079
v -0.07874387 -0.07910736 0.170728117
v -0.07843778 -0.07884409 0.170038819
v -0.07807034 -0.0788002461 0.169384927
v -0.0784691945 -0.0785 0.17002067
v -0.07882034 -0.0788002461 0.170683965
v -0.0780942 -0.0785 0.169371158
v -0.0788442 -0.0785 0.1706702
v -0.07807034 -0.07819977 0.169384927
v -0.07882034 -0.07819977 0.170683965
v -0.07843778 -0.07815592 0.170038819
v -0.07799387 -0.0778926462 0.169429079
v -0.07874387 -0.0778926462 0.170728117
v -0.078368865 -0.0778926462 0.1700786
v -0.07825861 -0.07763785 0.170142263
v -0.07786128 -0.07759711 0.169505641
v -0.07861128 -0.07759711 0.170804679
v -0.07810864 -0.0774043 0.170228839
v -0.07767567 -0.07733328 0.1696128
v -0.07842567 -0.07733328 0.170911834
v -0.07792445 -0.07720382 0.170335189
v -0.07744719 -0.07711896 0.1697447
v -0.07819719 -0.07711896 0.171043754
v -0.0777148455 -0.07704545 0.1704562
v -0.07719124 -0.07696585 0.16989249
v -0.07794124 -0.07696585 0.171191514
v -0.077490516 -0.07693406 0.170585722
v -0.07692527 -0.07687755 0.170046046
v -0.07767527 -0.07687755 0.171345085
v -0.0772624239 -0.07687007 0.1707174
v -0.07666526 -0.07685 0.170196161
v -0.07741526 -0.07685 0.1714952
v -0.07640524 -0.07687755 0.170346275
v -0.07674226 -0.07688628 0.171017721
v -0.07715524 -0.07687755 0.171645314
v -0.07613927 -0.07696585 0.170499831
v -0.07688927 -0.07696585 0.17179887
v -0.07643935 -0.07700299 0.1711926
v -0.07588333 -0.07711896 0.1706476
v -0.07663333 -0.07711896 0.171946645
v -0.07615605 -0.07720382 0.171356171
v -0.07565484 -0.07733328 0.170779526
v -0.07640484 -0.07733328 0.172078565
v -0.07591773 -0.07747902 0.171493769
v -0.07546924 -0.07759711 0.17088668
v -0.07621924 -0.07759711 0.172185719
v -0.0757437944 -0.077806145 0.171594188
v -0.07533665 -0.0778926462 0.170963228
v -0.07608665 -0.0778926462 0.172262266
v -0.07564273 -0.07815592 0.171652541
v -0.07526017 -0.07819977 0.1710074
v -0.0756113157 -0.0785 0.171670675
v -0.07601017 -0.07819977 0.172306418
v -0.07523632 -0.0785 0.171021163
v -0.07598632 -0.0785 0.1723202
v -0.07526017 -0.0788002461 0.1710074
v -0.07601017 -0.0788002461 0.172306418
v -0.07564273 -0.07884409 0.171652541
v -0.07533665 -0.07910736 0.170963228
v -0.07608665 -0.07910736 0.172262266
v -0.0757116452 -0.07910736 0.171612754
v -0.07582189 -0.07936216 0.1715491
v -0.07546924 -0.0794028938 0.17088668
v -0.07621924 -0.0794028938 0.172185719
v -0.07597187 -0.0795957148 0.1714625
v -0.07565484 -0.0796667337 0.170779526
v -0.07640484 -0.0796667337 0.172078565
v -0.07615605 -0.07979618 0.171356171
v -0.07588333 -0.07988104 0.1706476
v -0.07663333 -0.07988104 0.171946645
v -0.0763656646 -0.0799545646 0.171235144
v -0.07613927 -0.08003415 0.170499831
v -0.07688927 -0.08003415 0.17179887
v -0.07658999 -0.08006595 0.171105638
v -0.07640524 -0.080122456 0.170346275
v -0.07715524 -0.080122456 0.171645314
v -0.07681808 -0.0801299438 0.170973957
v -0.07666526 -0.08015 0.170196161
v -0.07741526 -0.08015 0.1714952
v 0.0230436977 -0.08015 0.2294952
v 0.0237936955 -0.08015 0.228196159
v 0.0235336777 -0.080122456 0.228046045
v 0.0231207069 -0.0801137239 0.228673637
v 0.02278368 -0.080122456 0.229345083
v 0.0232677069 -0.08003415 0.227892488
v 0.0225177091 -0.08003415 0.229191527
v 0.0228177961 -0.07999702 0.228498757
v 0.0230117645 -0.07988104 0.227744713
v 0.0222617667 -0.07988104 0.229043752
v 0.0225344952 -0.07979618 0.228335187
v 0.0227832738 -0.0796667337 0.2276128
v 0.022033276 -0.0796667337 0.228911832
v 0.02229617 -0.079521 0.22819759
v 0.0225976724 -0.0794028938 0.227505639
v 0.0218476746 -0.0794028938 0.228804678
v 0.02212224 -0.07919386 0.228097171
v 0.0224650819 -0.07910736 0.227429092
v 0.0217150841 -0.07910736 0.22872813
v 0.0220211688 -0.07884409 0.228038818
v 0.0223886017 -0.0788002461 0.227384925
v 0.0219897572 -0.0785 0.228020683
v 0.0216386039 -0.0788002461 0.228683978
v 0.0223647524 -0.0785 0.227371156
v 0.0216147546 -0.0785 0.2286702
v 0.0223886017 -0.07819977 0.227384925
v 0.0216386039 -0.07819977 0.228683978
v 0.0220211688 -0.07815592 0.228038818
v 0.0224650819 -0.0778926462 0.227429092
v 0.0217150841 -0.0778926462 0.22872813
v 0.0220900867 -0.0778926462 0.2280786
v 0.0222003367 -0.07763785 0.228142262
v 0.0225976724 -0.07759711 0.227505639
v 0.0218476746 -0.07759711 0.228804678
v 0.0223503131 -0.0774043 0.228228852
v 0.0227832738 -0.07733328 0.2276128
v 0.022033276 -0.07733328 0.228911832
v 0.0225344952 -0.07720382 0.228335187
v 0.0230117645 -0.07711896 0.227744713
v 0.0222617667 -0.07711896 0.229043752
v 0.02274411 -0.07704545 0.2284562
v 0.0232677069 -0.07696585 0.227892488
v 0.0225177091 -0.07696585 0.229191527
v 0.0229684282 -0.07693406 0.22858572
v 0.0235336777 -0.07687755 0.228046045
v 0.02278368 -0.07687755 0.229345083
v 0.023196524 -0.07687007 0.228717417
v 0.0237936955 -0.07685 0.228196159
v 0.0230436977 -0.07685 0.2294952
v 0.0240537021 -0.07687755 0.228346273
v 0.0237166788 -0.07688628 0.22901772
v 0.0233037043 -0.07687755 0.229645312
v 0.024319673 -0.07696585 0.22849983
v 0.0235696752 -0.07696585 0.229798883
v 0.02401959 -0.07700299 0.229192615
v 0.0245756265 -0.07711896 0.228647619
v 0.0238256287 -0.07711896 0.229946643
v 0.024302898 -0.07720382 0.22935617
v 0.024804106 -0.07733328 0.228779525
v 0.0240541082 -0.07733328 0.230078563
v 0.0245412234 -0.07747902 0.229493767
v 0.0249897111 -0.07759711 0.228886679
v 0.0242397133 -0.07759711 0.230185717
v 0.0247151535 -0.077806145 0.229594186
v 0.0251223054 -0.0778926462 0.228963241
v 0.0243723076 -0.0778926462 0.23026228
v 0.0248162244 -0.07815592 0.229652539
v 0.0251987781 -0.07819977 0.2290074
v 0.02484764 -0.0785 0.229670674
v 0.02444878 -0.07819977 0.230306432
v 0.0252226349 -0.0785 0.229021162
v 0.0244726371 -0.0785 0.2303202
v 0.0251987781 -0.0788002461 0.2290074
v 0.02444878 -0.0788002461 0.230306432
v 0.0248162244 -0.07884409 0.229652539
v 0.0251223054 -0.07910736 0.228963241
v 0.0243723076 -0.07910736 0.23026228
v 0.02474731 -0.07910736 0.229612753
v 0.0246370528 -0.07936216 0.2295491
v 0.0249897111 -0.0794028938 0.228886679
v 0.0242397133 -0.0794028938 0.230185717
v 0.02448708 -0.0795957148 0.2294625
v 0.024804106 -0.0796667337 0.228779525
v 0.0240541082 -0.0796667337 0.230078563
v 0.024302898 -0.07979618 0.22935617
v 0.0245756265 -0.07988104 0.228647619
v 0.0238256287 -0.07988104 0.229946643
v 0.0240932871 -0.0799545646 0.229235157
v 0.024319673 -0.08003415 0.22849983
v 0.0235696752 -0.08003415 0.229798883
v 0.0238689613 -0.08006595 0.229105636
v 0.0240537021 -0.080122456 0.228346273
v 0.0233037043 -0.080122456 0.229645312
v 0.02364087 -0.0801299438 0.228973955
v 0.0237936955 -0.08015 0.228196159
v 0.0230436977 -0.08015 0.2294952
v -0.07741526 0.07685 0.1714952
v -0.07666526 0.07685 0.170196161
v -0.07692527 0.07687755 0.170046046
v -0.07733823 0.07688628 0.170673639
v -0.07767527 0.07687755 0.171345085
v -0.07719124 0.07696585 0.16989249
v -0.07794124 0.07696585 0.171191514
v -0.0776411444 0.07700299 0.170498759
v -0.07744719 0.07711896 0.1697447
v -0.07819719 0.07711896 0.171043754
v -0.07792445 0.07720382 0.170335189
v -0.07767567 0.07733328 0.1696128
v -0.07842567 0.07733328 0.170911834
v -0.07816278 0.07747902 0.170197591
v -0.07786128 0.07759711 0.169505641
v -0.07861128 0.07759711 0.170804679
v -0.07833671 0.077806145 0.170097172
v -0.07799387 0.0778926462 0.169429079
v -0.07874387 0.0778926462 0.170728117
v -0.07843778 0.07815592 0.170038819
v -0.07807034 0.07819977 0.169384927
v -0.0784691945 0.0785 0.17002067
v -0.07882034 0.07819977 0.170683965
v -0.0780942 0.0785 0.169371158
v -0.0788442 0.0785 0.1706702
v -0.07807034 0.0788002461 0.169384927
v -0.07882034 0.0788002461 0.170683965
v -0.07843778 0.07884409 0.170038819
v -0.07799387 0.07910736 0.169429079
v -0.07874387 0.07910736 0.170728117
v -0.078368865 0.07910736 0.1700786
v -0.07825861 0.07936216 0.170142263
v -0.07786128 0.0794028938 0.169505641
v -0.07861128 0.0794028938 0.170804679
v -0.07810864 0.0795957148 0.170228839
v -0.07767567 0.0796667337 0.1696128
v -0.07842567 0.0796667337 0.170911834
v -0.07792445 0.07979618 0.170335189
v -0.07744719 0.07988104 0.1697447
v -0.07819719 0.07988104 0.171043754
v -0.0777148455 0.0799545646 0.1704562
v -0.07719124 0.08003415 0.16989249
v -0.07794124 0.08003415 0.171191514
v -0.077490516 0.08006595 0.170585722
v -0.07692527 0.080122456 0.170046046
v -0.07767527 0.080122456 0.171345085
v -0.0772624239 0.0801299438 0.1707174
v -0.07666526 0.08015 0.170196161
v -0.07741526 0.08015 0.1714952
v -0.07640524 0.080122456 0.170346275
v -0.07674226 0.0801137239 0.171017721
v -0.07715524 0.080122456 0.171645314
v -0.07613927 0.08003415 0.170499831
v -0.07688927 0.08003415 0.17179887
v -0.07643935 0.07999702 0.1711926
v -0.07588333 0.07988104 0.1706476
v -0.07663333 0.07988104 0.171946645
v -0.07615605 0.07979618 0.171356171
v -0.07565484 0.0796667337 0.170779526
v -0.07640484 0.0796667337 0.172078565
v -0.07591773 0.079521 0.171493769
v -0.07546924 0.0794028938 0.17088668
v -0.07621924 0.0794028938 0.172185719
v -0.0757437944 0.07919386 0.171594188
v -0.07533665 0.07910736 0.170963228
v -0.07608665 0.07910736 0.172262266
v -0.07564273 0.07884409 0.171652541
v -0.07526017 0.0788002461 0.1710074
v -0.0756113157 0.0785 0.171670675
v -0.07601017 0.0788002461 0.172306418
v -0.07523632 0.0785 0.171021163
v -0.07598632 0.0785 0.1723202
v -0.07526017 0.07819977 0.1710074
v -0.07601017 0.07819977 0.172306418
v -0.07564273 0.07815592 0.171652541
v -0.07533665 0.0778926462 0.170963228
v -0.07608665 0.0778926462 0.172262266
v -0.0757116452 0.0778926462 0.171612754
v -0.07582189 0.07763785 0.1715491
v -0.07546924 0.07759711 0.17088668
v -0.07621924 0.07759711 0.172185719
v -0.07597187 0.0774043 0.1714625
v -0.07565484 0.07733328 0.170779526
v -0.07640484 0.07733328 0.172078565
v -0.07615605 0.07720382 0.171356171
v -0.07588333 0.07711896 0.1706476
v -0.07663333 0.07711896 0.171946645
v -0.0763656646 0.07704545 0.171235144
v -0.07613927 0.07696585 0.170499831
v -0.07688927 0.07696585 0.17179887
v -0.07658999 0.07693406 0.171105638
v -0.07640524 0.07687755 0.170346275
v -0.07715524 0.07687755 0.171645314
v -0.07681808 0.07687007 0.170973957
v -0.07666526 0.07685 0.170196161
v -0.07741526 0.07685 0.1714952
v 0.0230436977 0.07685 0.2294952
v 0.0237936955 0.07685 0.228196159
v 0.0235336777 0.07687755 0.228046045
v 0.0231207069 0.07688628 0.228673637
v 0.02278368 0.07687755 0.229345083
v 0.0232677069 0.07696585 0.227892488
v 0.0225177091 0.07696585 0.229191527
v 0.0228177961 0.07700299 0.228498757
v 0.0230117645 0.07711896 0.227744713
v 0.0222617667 0.07711896 0.229043752
v 0.0225344952 0.07720382 0.228335187
v 0.0227832738 0.07733328 0.2276128
v 0.022033276 0.07733328 0.228911832
v 0.02229617 0.07747902 0.22819759
v 0.0225976724 0.07759711 0.227505639
v 0.0218476746 0.07759711 0.228804678
v 0.02212224 0.077806145 0.228097171
v 0.0224650819 0.0778926462 0.227429092
v 0.0217150841 0.0778926462 0.22872813
v 0.0220211688 0.07815592 0.228038818
v 0.0223886017 0.07819977 0.227384925
v 0.0219897572 0.0785 0.228020683
v 0.0216386039 0.07819977 0.228683978
v 0.0223647524 0.0785 0.227371156
v 0.0216147546 0.0785 0.2286702
v 0.0223886017 0.0788002461 0.227384925
v 0.0216386039 0.0788002461 0.228683978
v 0.0220211688 0.07884409 0.228038818
v 0.0224650819 0.07910736 0.227429092
v 0.0217150841 0.07910736 0.22872813
v 0.0220900867 0.07910736 0.2280786
v 0.0222003367 0.07936216 0.228142262
v 0.0225976724 0.0794028938 0.227505639
v 0.0218476746 0.0794028938 0.228804678
v 0.0223503131 0.0795957148 0.228228852
v 0.0227832738 0.0796667337 0.2276128
v 0.022033276 0.0796667337 0.228911832
v 0.0225344952 0.07979618 0.228335187
v 0.0230117645 0.07988104 0.227744713
v 0.0222617667 0.07988104 0.229043752
v 0.02274411 0.0799545646 0.2284562
v 0.0232677069 0.08003415 0.227892488
v 0.0225177091 0.08003415 0.229191527
v 0.0229684282 0.08006595 0.22858572
v 0.0235336777 0.080122456 0.228046045
v 0.02278368 0.080122456 0.229345083
v 0.023196524 0.0801299438 0.228717417
v 0.0237936955 0.08015 0.228196159
v 0.0230436977 0.08015 0.2294952
v 0.0240537021 0.080122456 0.228346273
v 0.0237166788 0.0801137239 0.22901772
v 0.0233037043 0.080122456 0.229645312
v 0.024319673 0.08003415 0.22849983
v 0.0235696752 0.08003415 0.229798883
v 0.02401959 0.07999702 0.229192615
v 0.0245756265 0.07988104 0.228647619
v 0.0238256287 0.07988104 0.229946643
v 0.024302898 0.07979618 0.22935617
v 0.024804106 0.0796667337 0.228779525
v 0.0240541082 0.0796667337 0.230078563
v 0.0245412234 0.079521 0.229493767
v 0.0249897111 0.0794028938 0.228886679
v 0.0242397133 0.0794028938 0.230185717
v 0.0247151535 0.07919386 0.229594186
v 0.0251223054 0.07910736 0.228963241
v 0.0243723076 0.07910736 0.23026228
v 0.0248162244 0.07884409 0.229652539
v 0.0251987781 0.0788002461 0.2290074
v 0.02484764 0.0785 0.229670674
v 0.02444878 0.0788002461 0.230306432
v 0.0252226349 0.0785 0.229021162
v 0.0244726371 0.0785 0.2303202
v 0.0251987781 0.07819977 0.2290074
v 0.02444878 0.07819977 0.230306432
v 0.0248162244 0.07815592 0.229652539
v 0.0251223054 0.0778926462 0.228963241
v 0.0243723076 0.0778926462 0.23026228
v 0.02474731 0.0778926462 0.229612753
v 0.0246370528 0.07763785 0.2295491
v 0.0249897111 0.07759711 0.228886679
v 0.0242397133 0.07759711 0.230185717
v 0.02448708 0.0774043 0.2294625
v 0.024804106 0.07733328 0.228779525
v 0.0240541082 0.07733328 0.230078563
v 0.024302898 0.07720382 0.22935617
v 0.0245756265 0.07711896 0.228647619
v 0.0238256287 0.07711896 0.229946643
v 0.0240932871 0.07704545 0.229235157
v 0.024319673 0.07696585 0.22849983
v 0.0235696752 0.07696585 0.229798883
v 0.0238689613 0.07693406 0.229105636
v 0.0240537021 0.07687755 0.228346273
v 0.0233037043 0.07687755 0.229645312
v 0.02364087 0.07687007 0.228973955
v 0.0237936955 0.07685 0.228196159
v 0.0230436977 0.07685 0.2294952
v -0.07753128 -0.0824999958 0.169696152
v -0.07613927 -0.08003415 0.170499831
v -0.07588333 -0.07988104 0.1706476
v -0.07565484 -0.0796667337 0.170779526
v -0.07640524 -0.080122456 0.170346275
v -0.07666526 -0.08015 0.170196161
v -0.07692527 -0.080122456 0.170046046
v -0.07719124 -0.08003415 0.16989249
v -0.07546924 -0.0794028938 0.17088668
v -0.07744719 -0.07988104 0.1697447
v -0.07800404 -0.08244991 0.169423208
v -0.07848762 -0.08228936 0.169144019
v -0.07767567 -0.0796667337 0.1696128
v -0.0789529756 -0.08201099 0.168875337
v -0.07786128 -0.0794028938 0.169505641
v -0.0793684 -0.08162133 0.1686355
v -0.07799387 -0.07910736 0.169429079
v -0.0797058642 -0.0811416358 0.16844067
v -0.07994695 -0.08060429 0.168301478
v -0.0800859854 -0.0800458938 0.1682212
v -0.08012936 -0.0795000046 0.168196157
v -0.07807034 -0.0788002461 0.169384927
v -0.0780942 -0.0785 0.169371158
v -0.08012936 -0.0775 0.168196157
v -0.07807034 -0.07819977 0.169384927
v -0.07799387 -0.0778926462 0.169429079
v -0.0800859854 -0.07695412 0.1682212
v -0.07994695 -0.07639572 0.168301478
v -0.0797058642 -0.07585837 0.16844067
v -0.0793684 -0.0753786862 0.1686355
v -0.07786128 -0.07759711 0.169505641
v -0.0789529756 -0.07498902 0.168875337
v -0.07767567 -0.07733328 0.1696128
v -0.07848762 -0.07471064 0.169144019
v -0.07744719 -0.07711896 0.1697447
v -0.07800404 -0.07455009 0.169423208
v -0.07753128 -0.0745 0.169696152
v -0.07719124 -0.07696585 0.16989249
v -0.07692527 -0.07687755 0.170046046
v -0.07666526 -0.07685 0.170196161
v -0.07640524 -0.07687755 0.170346275
v -0.07613927 -0.07696585 0.170499831
v -0.0727681443 -0.0745 0.172446162
v -0.07588333 -0.07711896 0.1706476
v -0.07565484 -0.07733328 0.170779526
v -0.07546924 -0.07759711 0.17088668
v -0.07533665 -0.0778926462 0.170963228
v -0.07526017 -0.07819977 0.1710074
v -0.07523632 -0.0785 0.171021163
v -0.07526017 -0.0788002461 0.1710074
v -0.07533665 -0.07910736 0.170963228
v 0.01989658 -0.0745 0.225946158
v -0.0264357813 -8.81892429E-16 0.19919616
v -0.0727681443 0.0745 0.172446162
v 0.0225976724 -0.0794028938 0.227505639
v 0.0246597137 -0.0824999958 0.228696167
v 0.0227832738 -0.0796667337 0.2276128
v 0.0230117645 -0.07988104 0.227744713
v 0.0224650819 -0.07910736 0.227429092
v 0.0223886017 -0.0788002461 0.227384925
v 0.0223647524 -0.0785 0.227371156
v 0.0223886017 -0.07819977 0.227384925
v 0.0232677069 -0.08003415 0.227892488
v 0.0224650819 -0.0778926462 0.227429092
v 0.0235336777 -0.080122456 0.228046045
v 0.0225976724 -0.07759711 0.227505639
v 0.0237936955 -0.08015 0.228196159
v 0.0227832738 -0.07733328 0.2276128
v 0.0240537021 -0.080122456 0.228346273
v 0.024319673 -0.08003415 0.22849983
v 0.0230117645 -0.07711896 0.227744713
v 0.0245756265 -0.07988104 0.228647619
v 0.0251324717 -0.08244991 0.228969112
v 0.0256160516 -0.08228936 0.2292483
v 0.024804106 -0.0796667337 0.228779525
v 0.0260814112 -0.08201099 0.229516983
v 0.0249897111 -0.0794028938 0.228886679
v 0.0264968332 -0.08162133 0.229756817
v 0.0251223054 -0.07910736 0.228963241
v 0.0268342961 -0.0811416358 0.22995165
v 0.0270753819 -0.08060429 0.230090842
v 0.027214421 -0.0800458938 0.230171114
v 0.0272577945 -0.0795000046 0.230196163
v 0.0251987781 -0.0788002461 0.2290074
v 0.0252226349 -0.0785 0.229021162
v 0.0272577945 -0.0775 0.230196163
v 0.0251987781 -0.07819977 0.2290074
v 0.0251223054 -0.0778926462 0.228963241
v 0.027214421 -0.07695412 0.230171114
v 0.0270753819 -0.07639572 0.230090842
v 0.0268342961 -0.07585837 0.22995165
v 0.0264968332 -0.0753786862 0.229756817
v 0.0249897111 -0.07759711 0.228886679
v 0.0260814112 -0.07498902 0.229516983
v 0.024804106 -0.07733328 0.228779525
v 0.0256160516 -0.07471064 0.2292483
v 0.0245756265 -0.07711896 0.228647619
v 0.0251324717 -0.07455009 0.228969112
v 0.0246597137 -0.0745 0.228696167
v 0.024319673 -0.07696585 0.22849983
v 0.0240537021 -0.07687755 0.228346273
v 0.0237936955 -0.07685 0.228196159
v 0.0235336777 -0.07687755 0.228046045
v 0.0232677069 -0.07696585 0.227892488
v 0.01989658 0.0745 0.225946158
v 0.0225976724 0.0794028938 0.227505639
v 0.0224650819 0.07910736 0.227429092
v 0.0223886017 0.0788002461 0.227384925
v 0.0223647524 0.0785 0.227371156
v 0.0223886017 0.07819977 0.227384925
v 0.0224650819 0.0778926462 0.227429092
v 0.0225976724 0.07759711 0.227505639
v 0.0227832738 0.07733328 0.2276128
v 0.0230117645 0.07711896 0.227744713
v 0.0232677069 0.07696585 0.227892488
v 0.0246597137 0.0745 0.228696167
v 0.0235336777 0.07687755 0.228046045
v 0.0237936955 0.07685 0.228196159
v 0.0240537021 0.07687755 0.228346273
v 0.024319673 0.07696585 0.22849983
v 0.0245756265 0.07711896 0.228647619
v 0.0251324717 0.07455009 0.228969112
v 0.0256160516 0.07471064 0.2292483
v 0.024804106 0.07733328 0.228779525
v 0.0260814112 0.07498902 0.229516983
v 0.0249897111 0.07759711 0.228886679
v 0.0264968332 0.0753786862 0.229756817
v 0.0251223054 0.0778926462 0.228963241
v 0.0268342961 0.07585837 0.22995165
v 0.0270753819 0.07639572 0.230090842
v 0.027214421 0.07695412 0.230171114
v 0.0272577945 0.0775 0.230196163
v 0.0251987781 0.07819977 0.2290074
v 0.0252226349 0.0785 0.229021162
v 0.0272577945 0.0795000046 0.230196163
v 0.0251987781 0.0788002461 0.2290074
v 0.0251223054 0.07910736 0.228963241
v 0.027214421 0.0800458938 0.230171114
v 0.0270753819 0.08060429 0.230090842
v 0.0268342961 0.0811416358 0.22995165
v 0.0264968332 0.08162133 0.229756817
v 0.0249897111 0.0794028938 0.228886679
v 0.0260814112 0.08201099 0.229516983
v 0.024804106 0.0796667337 0.228779525
v 0.0256160516 0.08228936 0.2292483
v 0.0245756265 0.07988104 0.228647619
v 0.0251324717 0.08244991 0.228969112
v 0.0246597137 0.0824999958 0.228696167
v 0.024319673 0.08003415 0.22849983
v 0.0240537021 0.080122456 0.228346273
v 0.0237936955 0.08015 0.228196159
v 0.0235336777 0.080122456 0.228046045
v 0.0232677069 0.08003415 0.227892488
v 0.0230117645 0.07988104 0.227744713
v 0.0227832738 0.0796667337 0.2276128
v -0.07546924 0.0794028938 0.17088668
v -0.07753128 0.0824999958 0.169696152
v -0.07565484 0.0796667337 0.170779526
v -0.07588333 0.07988104 0.1706476
v -0.07533665 0.07910736 0.170963228
v -0.07526017 0.0788002461 0.1710074
v -0.07523632 0.0785 0.171021163
v -0.07613927 0.08003415 0.170499831
v -0.07526017 0.07819977 0.1710074
v -0.07640524 0.080122456 0.170346275
v -0.07533665 0.0778926462 0.170963228
v -0.07666526 0.08015 0.170196161
v -0.07546924 0.07759711 0.17088668
v -0.07692527 0.080122456 0.170046046
v -0.07719124 0.08003415 0.16989249
v -0.07565484 0.07733328 0.170779526
v -0.07588333 0.07711896 0.1706476
v -0.07613927 0.07696585 0.170499831
v -0.07744719 0.07988104 0.1697447
v -0.07800404 0.08244991 0.169423208
v -0.07848762 0.08228936 0.169144019
v -0.07767567 0.0796667337 0.1696128
v -0.0789529756 0.08201099 0.168875337
v -0.07786128 0.0794028938 0.169505641
v -0.0793684 0.08162133 0.1686355
v -0.07753128 0.0745 0.169696152
v -0.07799387 0.07910736 0.169429079
v -0.07640524 0.07687755 0.170346275
v -0.0797058642 0.0811416358 0.16844067
v -0.07666526 0.07685 0.170196161
v -0.07994695 0.08060429 0.168301478
v -0.0800859854 0.0800458938 0.1682212
v -0.07692527 0.07687755 0.170046046
v -0.07719124 0.07696585 0.16989249
v -0.08012936 0.0795000046 0.168196157
v -0.07807034 0.0788002461 0.169384927
v -0.0780942 0.0785 0.169371158
v -0.07744719 0.07711896 0.1697447
v -0.07800404 0.07455009 0.169423208
v -0.07848762 0.07471064 0.169144019
v -0.07767567 0.07733328 0.1696128
v -0.0789529756 0.07498902 0.168875337
v -0.07786128 0.07759711 0.169505641
v -0.0793684 0.0753786862 0.1686355
v -0.08012936 0.0775 0.168196157
v -0.07807034 0.07819977 0.169384927
v -0.07799387 0.0778926462 0.169429079
v -0.0797058642 0.07585837 0.16844067
v -0.0800859854 0.07695412 0.1682212
v -0.07994695 0.07639572 0.168301478
v -0.07552471 -0.0745 0.171720684
v -0.0727681443 -0.0745 0.172446162
v -0.07753128 -0.0745 0.169696152
v -0.0782812759 -0.0745 0.1709952
v -0.07351814 -0.0745 0.1737452
v -0.02681078 -0.0824999958 0.199845687
v 0.0239097159 -0.0824999958 0.229995191
v -0.0782812759 -0.0824999958 0.1709952
v -0.07753128 -0.0824999958 0.169696152
v 0.0246597137 -0.0824999958 0.228696167
v 0.0195215847 -9.551216E-16 0.226595685
v 0.01989658 0.0745 0.225946158
v 0.0191465821 0.0745 0.2272452
v 0.0191465821 -0.0745 0.2272452
v 0.01989658 -0.0745 0.225946158
v 0.0219031516 0.0745 0.227970675
v 0.0246597137 0.0745 0.228696167
v 0.0239097159 0.0745 0.229995191
v 0.0191465821 0.0745 0.2272452
v 0.01989658 0.0745 0.225946158
v -0.02681078 0.0824999958 0.199845687
v 0.0246597137 0.0824999958 0.228696167
v -0.07753128 0.0824999958 0.169696152
v -0.0782812759 0.0824999958 0.1709952
v 0.0239097159 0.0824999958 0.229995191
v -0.07552471 0.0745 0.171720684
v -0.07351814 0.0745 0.1737452
v -0.0782812759 0.0745 0.1709952
v -0.07753128 0.0745 0.169696152
v -0.0727681443 0.0745 0.172446162
v -0.07314314 -7.70817929E-16 0.173095673
v -0.07351814 -0.0745 0.1737452
v -0.07351814 0.0745 0.1737452
v -0.0727681443 0.0745 0.172446162
v -0.0727681443 -0.0745 0.172446162
v 0.0247574765 0.08244991 0.229618624
v 0.0243824739 0.08244991 0.230268151
v 0.0248660538 0.08228936 0.230547339
v 0.0239097159 0.0824999958 0.229995191
v 0.0246597137 0.0824999958 0.228696167
v 0.0251324717 0.08244991 0.228969112
v 0.0252410565 0.08228936 0.229897827
v 0.0253314134 0.08201099 0.230816
v 0.0256160516 0.08228936 0.2292483
v 0.025706416 0.08201099 0.2301665
v 0.0257468354 0.08162133 0.231055856
v 0.0260814112 0.08201099 0.229516983
v 0.026121838 0.08162133 0.230406344
v 0.0260842983 0.0811416358 0.231250688
v 0.0264968332 0.08162133 0.229756817
v 0.0264593 0.0811416358 0.230601177
v 0.0263253842 0.08060429 0.23138988
v 0.0268342961 0.0811416358 0.22995165
v 0.0267003868 0.08060429 0.230740368
v 0.0264644232 0.0800458938 0.231470153
v 0.0270753819 0.08060429 0.230090842
v 0.0268394258 0.0800458938 0.230820641
v 0.0265077967 0.0795000046 0.2314952
v 0.027214421 0.0800458938 0.230171114
v 0.0272577945 0.0795000046 0.230196163
v 0.0268828 0.0785 0.23084569
v 0.0265077967 0.0795000046 0.2314952
v 0.0265077967 0.0775 0.2314952
v 0.0272577945 0.0775 0.230196163
v 0.0272577945 0.0795000046 0.230196163
v 0.0268394258 0.07695412 0.230820641
v 0.0264644232 0.07695412 0.231470153
v 0.0263253842 0.07639572 0.23138988
v 0.0265077967 0.0775 0.2314952
v 0.0272577945 0.0775 0.230196163
v 0.027214421 0.07695412 0.230171114
v 0.0267003868 0.07639572 0.230740368
v 0.0260842983 0.07585837 0.231250688
v 0.0270753819 0.07639572 0.230090842
v 0.0264593 0.07585837 0.230601177
v 0.0257468354 0.0753786862 0.231055856
v 0.0268342961 0.07585837 0.22995165
v 0.026121838 0.0753786862 0.230406344
v 0.0253314134 0.07498902 0.230816
v 0.0264968332 0.0753786862 0.229756817
v 0.025706416 0.07498902 0.2301665
v 0.0248660538 0.07471064 0.230547339
v 0.0260814112 0.07498902 0.229516983
v 0.0252410565 0.07471064 0.229897827
v 0.0243824739 0.07455009 0.230268151
v 0.0256160516 0.07471064 0.2292483
v 0.0247574765 0.07455009 0.229618624
v 0.0239097159 0.0745 0.229995191
v 0.0251324717 0.07455009 0.228969112
v 0.0246597137 0.0745 0.228696167
v 0.0219031516 -0.0745 0.227970675
v 0.0191465821 -0.0745 0.2272452
v 0.0239097159 -0.0745 0.229995191
v 0.0246597137 -0.0745 0.228696167
v 0.01989658 -0.0745 0.225946158
v 0.0247574765 -0.07455009 0.229618624
v 0.0243824739 -0.07455009 0.230268151
v 0.0248660538 -0.07471064 0.230547339
v 0.0239097159 -0.0745 0.229995191
v 0.0246597137 -0.0745 0.228696167
v 0.0251324717 -0.07455009 0.228969112
v 0.0252410565 -0.07471064 0.229897827
v 0.0253314134 -0.07498902 0.230816
v 0.0256160516 -0.07471064 0.2292483
v 0.025706416 -0.07498902 0.2301665
v 0.0257468354 -0.0753786862 0.231055856
v 0.0260814112 -0.07498902 0.229516983
v 0.026121838 -0.0753786862 0.230406344
v 0.0260842983 -0.07585837 0.231250688
v 0.0264968332 -0.0753786862 0.229756817
v 0.0264593 -0.07585837 0.230601177
v 0.0263253842 -0.07639572 0.23138988
v 0.0268342961 -0.07585837 0.22995165
v 0.0267003868 -0.07639572 0.230740368
v 0.0264644232 -0.07695412 0.231470153
v 0.0270753819 -0.07639572 0.230090842
v 0.0268394258 -0.07695412 0.230820641
v 0.0265077967 -0.0775 0.2314952
v 0.027214421 -0.07695412 0.230171114
v 0.0272577945 -0.0775 0.230196163
v 0.0268828 -0.0785 0.23084569
v 0.0265077967 -0.0775 0.2314952
v 0.0265077967 -0.0795000046 0.2314952
v 0.0272577945 -0.0795000046 0.230196163
v 0.0272577945 -0.0775 0.230196163
v 0.0268394258 -0.0800458938 0.230820641
v 0.0264644232 -0.0800458938 0.231470153
v 0.0263253842 -0.08060429 0.23138988
v 0.0265077967 -0.0795000046 0.2314952
v 0.0272577945 -0.0795000046 0.230196163
v 0.027214421 -0.0800458938 0.230171114
v 0.0267003868 -0.08060429 0.230740368
v 0.0260842983 -0.0811416358 0.231250688
v 0.0270753819 -0.08060429 0.230090842
v 0.0264593 -0.0811416358 0.230601177
v 0.0257468354 -0.08162133 0.231055856
v 0.0268342961 -0.0811416358 0.22995165
v 0.026121838 -0.08162133 0.230406344
v 0.0253314134 -0.08201099 0.230816
v 0.0264968332 -0.08162133 0.229756817
v 0.025706416 -0.08201099 0.2301665
v 0.0248660538 -0.08228936 0.230547339
v 0.0260814112 -0.08201099 0.229516983
v 0.0252410565 -0.08228936 0.229897827
v 0.0243824739 -0.08244991 0.230268151
v 0.0256160516 -0.08228936 0.2292483
v 0.0247574765 -0.08244991 0.229618624
v 0.0239097159 -0.0824999958 0.229995191
v 0.0251324717 -0.08244991 0.228969112
v 0.0246597137 -0.0824999958 0.228696167
v -0.08046098 -0.07695412 0.168870717
v -0.08083598 -0.07695412 0.169520244
v -0.08069695 -0.07639572 0.169600517
v -0.08087936 -0.0775 0.1694952
v -0.08012936 -0.0775 0.168196157
v -0.0800859854 -0.07695412 0.1682212
v -0.0803219453 -0.07639572 0.16895099
v -0.08045586 -0.07585837 0.169739708
v -0.07994695 -0.07639572 0.168301478
v -0.08008086 -0.07585837 0.169090182
v -0.0801183954 -0.0753786862 0.169934541
v -0.0797058642 -0.07585837 0.16844067
v -0.07974339 -0.0753786862 0.169285014
v -0.07970297 -0.07498902 0.17017439
v -0.0793684 -0.0753786862 0.1686355
v -0.07932797 -0.07498902 0.169524863
v -0.07923762 -0.07471064 0.170443058
v -0.0789529756 -0.07498902 0.168875337
v -0.0788626149 -0.07471064 0.169793531
v -0.07875404 -0.07455009 0.170722246
v -0.07848762 -0.07471064 0.169144019
v -0.078379035 -0.07455009 0.170072734
v -0.0782812759 -0.0745 0.1709952
v -0.07800404 -0.07455009 0.169423208
v -0.07753128 -0.0745 0.169696152
v -0.08050436 -0.0785 0.168845683
v -0.08012936 -0.0795000046 0.168196157
v -0.08087936 -0.0795000046 0.1694952
v -0.08087936 -0.0775 0.1694952
v -0.08012936 -0.0775 0.168196157
v -0.078379035 -0.08244991 0.170072734
v -0.07875404 -0.08244991 0.170722246
v -0.07923762 -0.08228936 0.170443058
v -0.0782812759 -0.0824999958 0.1709952
v -0.07753128 -0.0824999958 0.169696152
v -0.07800404 -0.08244991 0.169423208
v -0.0788626149 -0.08228936 0.169793531
v -0.07970297 -0.08201099 0.17017439
v -0.07848762 -0.08228936 0.169144019
v -0.07932797 -0.08201099 0.169524863
v -0.0801183954 -0.08162133 0.169934541
v -0.0789529756 -0.08201099 0.168875337
v -0.07974339 -0.08162133 0.169285014
v -0.08045586 -0.0811416358 0.169739708
v -0.0793684 -0.08162133 0.1686355
v -0.08008086 -0.0811416358 0.169090182
v -0.08069695 -0.08060429 0.169600517
v -0.0797058642 -0.0811416358 0.16844067
v -0.0803219453 -0.08060429 0.16895099
v -0.08083598 -0.0800458938 0.169520244
v -0.07994695 -0.08060429 0.168301478
v -0.08046098 -0.0800458938 0.168870717
v -0.08087936 -0.0795000046 0.1694952
v -0.0800859854 -0.0800458938 0.1682212
v -0.08012936 -0.0795000046 0.168196157
v -0.08046098 0.0800458938 0.168870717
v -0.08083598 0.0800458938 0.169520244
v -0.08069695 0.08060429 0.169600517
v -0.08087936 0.0795000046 0.1694952
v -0.08012936 0.0795000046 0.168196157
v -0.0800859854 0.0800458938 0.1682212
v -0.0803219453 0.08060429 0.16895099
v -0.08045586 0.0811416358 0.169739708
v -0.07994695 0.08060429 0.168301478
v -0.08008086 0.0811416358 0.169090182
v -0.0801183954 0.08162133 0.169934541
v -0.0797058642 0.0811416358 0.16844067
v -0.07974339 0.08162133 0.169285014
v -0.07970297 0.08201099 0.17017439
v -0.0793684 0.08162133 0.1686355
v -0.07932797 0.08201099 0.169524863
v -0.07923762 0.08228936 0.170443058
v -0.0789529756 0.08201099 0.168875337
v -0.0788626149 0.08228936 0.169793531
v -0.07875404 0.08244991 0.170722246
v -0.07848762 0.08228936 0.169144019
v -0.078379035 0.08244991 0.170072734
v -0.0782812759 0.0824999958 0.1709952
v -0.07800404 0.08244991 0.169423208
v -0.07753128 0.0824999958 0.169696152
v -0.08050436 0.0785 0.168845683
v -0.08012936 0.0775 0.168196157
v -0.08087936 0.0775 0.1694952
v -0.08087936 0.0795000046 0.1694952
v -0.08012936 0.0795000046 0.168196157
v -0.07351814 -0.0745 0.1737452
v -0.07663333 -0.07711896 0.171946645
v -0.07640484 -0.07733328 0.172078565
v -0.07621924 -0.07759711 0.172185719
v -0.07608665 -0.0778926462 0.172262266
v -0.07601017 -0.07819977 0.172306418
v -0.07598632 -0.0785 0.1723202
v -0.07601017 -0.0788002461 0.172306418
v -0.07608665 -0.07910736 0.172262266
v -0.07688927 -0.07696585 0.17179887
v -0.07621924 -0.0794028938 0.172185719
v -0.0782812759 -0.0745 0.1709952
v -0.07715524 -0.07687755 0.171645314
v -0.07741526 -0.07685 0.1714952
v -0.07767527 -0.07687755 0.171345085
v -0.07794124 -0.07696585 0.171191514
v -0.07819719 -0.07711896 0.171043754
v -0.07875404 -0.07455009 0.170722246
v -0.07923762 -0.07471064 0.170443058
v -0.07842567 -0.07733328 0.170911834
v -0.07970297 -0.07498902 0.17017439
v -0.07861128 -0.07759711 0.170804679
v -0.0801183954 -0.0753786862 0.169934541
v -0.07874387 -0.0778926462 0.170728117
v -0.08045586 -0.07585837 0.169739708
v -0.08069695 -0.07639572 0.169600517
v -0.08083598 -0.07695412 0.169520244
v -0.08087936 -0.0775 0.1694952
v -0.07882034 -0.07819977 0.170683965
v -0.0788442 -0.0785 0.1706702
v -0.08087936 -0.0795000046 0.1694952
v -0.07882034 -0.0788002461 0.170683965
v -0.07874387 -0.07910736 0.170728117
v -0.08083598 -0.0800458938 0.169520244
v -0.08069695 -0.08060429 0.169600517
v -0.08045586 -0.0811416358 0.169739708
v -0.0801183954 -0.08162133 0.169934541
v -0.07861128 -0.0794028938 0.170804679
v -0.07970297 -0.08201099 0.17017439
v -0.07842567 -0.0796667337 0.170911834
v -0.07923762 -0.08228936 0.170443058
v -0.07819719 -0.07988104 0.171043754
v -0.07875404 -0.08244991 0.170722246
v -0.0782812759 -0.0824999958 0.1709952
v -0.07794124 -0.08003415 0.171191514
v -0.07767527 -0.080122456 0.171345085
v -0.07741526 -0.08015 0.1714952
v -0.07715524 -0.080122456 0.171645314
v -0.07688927 -0.08003415 0.17179887
v -0.07663333 -0.07988104 0.171946645
v -0.07640484 -0.0796667337 0.172078565
v 0.0239097159 -0.0824999958 0.229995191
v 0.0218476746 -0.0794028938 0.228804678
v 0.022033276 -0.0796667337 0.228911832
v 0.0222617667 -0.07988104 0.229043752
v 0.0225177091 -0.08003415 0.229191527
v 0.02278368 -0.080122456 0.229345083
v 0.0230436977 -0.08015 0.2294952
v 0.0233037043 -0.080122456 0.229645312
v 0.0235696752 -0.08003415 0.229798883
v 0.0238256287 -0.07988104 0.229946643
v 0.0243824739 -0.08244991 0.230268151
v 0.0248660538 -0.08228936 0.230547339
v 0.0240541082 -0.0796667337 0.230078563
v 0.0253314134 -0.08201099 0.230816
v 0.0242397133 -0.0794028938 0.230185717
v 0.0257468354 -0.08162133 0.231055856
v 0.0243723076 -0.07910736 0.23026228
v 0.0260842983 -0.0811416358 0.231250688
v 0.0263253842 -0.08060429 0.23138988
v 0.0264644232 -0.0800458938 0.231470153
v 0.0265077967 -0.0795000046 0.2314952
v 0.02444878 -0.0788002461 0.230306432
v 0.0244726371 -0.0785 0.2303202
v 0.0265077967 -0.0775 0.2314952
v 0.02444878 -0.07819977 0.230306432
v 0.0243723076 -0.0778926462 0.23026228
v 0.0264644232 -0.07695412 0.231470153
v 0.0263253842 -0.07639572 0.23138988
v 0.0260842983 -0.07585837 0.231250688
v 0.0257468354 -0.0753786862 0.231055856
v 0.0242397133 -0.07759711 0.230185717
v 0.0253314134 -0.07498902 0.230816
v 0.0240541082 -0.07733328 0.230078563
v 0.0248660538 -0.07471064 0.230547339
v 0.0238256287 -0.07711896 0.229946643
v 0.0243824739 -0.07455009 0.230268151
v 0.0239097159 -0.0745 0.229995191
v 0.0235696752 -0.07696585 0.229798883
v 0.0233037043 -0.07687755 0.229645312
v 0.0230436977 -0.07685 0.2294952
v 0.02278368 -0.07687755 0.229345083
v 0.0225177091 -0.07696585 0.229191527
v 0.0191465821 -0.0745 0.2272452
v 0.0222617667 -0.07711896 0.229043752
v 0.022033276 -0.07733328 0.228911832
v 0.0218476746 -0.07759711 0.228804678
v 0.0217150841 -0.0778926462 0.22872813
v 0.0216386039 -0.07819977 0.228683978
v 0.0216147546 -0.0785 0.2286702
v 0.0216386039 -0.0788002461 0.228683978
v 0.0217150841 -0.07910736 0.22872813
v -0.02718578 -8.795742E-16 0.2004952
v -0.07351814 0.0745 0.1737452
v 0.0191465821 0.0745 0.2272452
v -0.07621924 0.0794028938 0.172185719
v -0.07608665 0.07910736 0.172262266
v -0.07601017 0.0788002461 0.172306418
v -0.07598632 0.0785 0.1723202
v -0.07601017 0.07819977 0.172306418
v -0.07608665 0.0778926462 0.172262266
v -0.07621924 0.07759711 0.172185719
v -0.07640484 0.07733328 0.172078565
v -0.07663333 0.07711896 0.171946645
v -0.07688927 0.07696585 0.17179887
v -0.0782812759 0.0745 0.1709952
v -0.07715524 0.07687755 0.171645314
v -0.07741526 0.07685 0.1714952
v -0.07767527 0.07687755 0.171345085
v -0.07794124 0.07696585 0.171191514
v -0.07819719 0.07711896 0.171043754
v -0.07875404 0.07455009 0.170722246
v -0.07923762 0.07471064 0.170443058
v -0.07842567 0.07733328 0.170911834
v -0.07970297 0.07498902 0.17017439
v -0.07861128 0.07759711 0.170804679
v -0.0801183954 0.0753786862 0.169934541
v -0.07874387 0.0778926462 0.170728117
v -0.08045586 0.07585837 0.169739708
v -0.08069695 0.07639572 0.169600517
v -0.08083598 0.07695412 0.169520244
v -0.08087936 0.0775 0.1694952
v -0.07882034 0.07819977 0.170683965
v -0.0788442 0.0785 0.1706702
v -0.08087936 0.0795000046 0.1694952
v -0.07882034 0.0788002461 0.170683965
v -0.07874387 0.07910736 0.170728117
v -0.08083598 0.0800458938 0.169520244
v -0.08069695 0.08060429 0.169600517
v -0.08045586 0.0811416358 0.169739708
v -0.0801183954 0.08162133 0.169934541
v -0.07861128 0.0794028938 0.170804679
v -0.07970297 0.08201099 0.17017439
v -0.07842567 0.0796667337 0.170911834
v -0.07923762 0.08228936 0.170443058
v -0.07819719 0.07988104 0.171043754
v -0.07875404 0.08244991 0.170722246
v -0.0782812759 0.0824999958 0.1709952
v -0.07794124 0.08003415 0.171191514
v -0.07767527 0.080122456 0.171345085
v -0.07741526 0.08015 0.1714952
v -0.07715524 0.080122456 0.171645314
v -0.07688927 0.08003415 0.17179887
v -0.07663333 0.07988104 0.171946645
v -0.07640484 0.0796667337 0.172078565
v 0.0218476746 0.0794028938 0.228804678
v 0.0239097159 0.0824999958 0.229995191
v 0.022033276 0.0796667337 0.228911832
v 0.0222617667 0.07988104 0.229043752
v 0.0217150841 0.07910736 0.22872813
v 0.0216386039 0.0788002461 0.228683978
v 0.0216147546 0.0785 0.2286702
v 0.0225177091 0.08003415 0.229191527
v 0.0216386039 0.07819977 0.228683978
v 0.02278368 0.080122456 0.229345083
v 0.0217150841 0.0778926462 0.22872813
v 0.0230436977 0.08015 0.2294952
v 0.0218476746 0.07759711 0.228804678
v 0.0233037043 0.080122456 0.229645312
v 0.0235696752 0.08003415 0.229798883
v 0.022033276 0.07733328 0.228911832
v 0.0222617667 0.07711896 0.229043752
v 0.0225177091 0.07696585 0.229191527
v 0.0238256287 0.07988104 0.229946643
v 0.0243824739 0.08244991 0.230268151
v 0.0248660538 0.08228936 0.230547339
v 0.0240541082 0.0796667337 0.230078563
v 0.0253314134 0.08201099 0.230816
v 0.0242397133 0.0794028938 0.230185717
v 0.0257468354 0.08162133 0.231055856
v 0.0239097159 0.0745 0.229995191
v 0.0243723076 0.07910736 0.23026228
v 0.02278368 0.07687755 0.229345083
v 0.0260842983 0.0811416358 0.231250688
v 0.0230436977 0.07685 0.2294952
v 0.0263253842 0.08060429 0.23138988
v 0.0264644232 0.0800458938 0.231470153
v 0.0233037043 0.07687755 0.229645312
v 0.0235696752 0.07696585 0.229798883
v 0.0265077967 0.0795000046 0.2314952
v 0.02444878 0.0788002461 0.230306432
v 0.0244726371 0.0785 0.2303202
v 0.0238256287 0.07711896 0.229946643
v 0.0243824739 0.07455009 0.230268151
v 0.0248660538 0.07471064 0.230547339
v 0.0240541082 0.07733328 0.230078563
v 0.0253314134 0.07498902 0.230816
v 0.0242397133 0.07759711 0.230185717
v 0.0257468354 0.0753786862 0.231055856
v 0.0265077967 0.0775 0.2314952
v 0.02444878 0.07819977 0.230306432
v 0.0243723076 0.0778926462 0.23026228
v 0.0260842983 0.07585837 0.231250688
v 0.0264644232 0.07695412 0.231470153
v 0.0263253842 0.07639572 0.23138988
v -0.0782812759 0.0745 0.1709952
v -0.078379035 0.07455009 0.170072734
v -0.07753128 0.0745 0.169696152
v -0.07875404 0.07455009 0.170722246
v -0.07800404 0.07455009 0.169423208
v -0.07923762 0.07471064 0.170443058
v -0.0788626149 0.07471064 0.169793531
v -0.07848762 0.07471064 0.169144019
v -0.07970297 0.07498902 0.17017439
v -0.07932797 0.07498902 0.169524863
v -0.0789529756 0.07498902 0.168875337
v -0.0801183954 0.0753786862 0.169934541
v -0.07974339 0.0753786862 0.169285014
v -0.0793684 0.0753786862 0.1686355
v -0.08045586 0.07585837 0.169739708
v -0.08008086 0.07585837 0.169090182
v -0.0797058642 0.07585837 0.16844067
v -0.08069695 0.07639572 0.169600517
v -0.0803219453 0.07639572 0.16895099
v -0.07994695 0.07639572 0.168301478
v -0.08083598 0.07695412 0.169520244
v -0.08046098 0.07695412 0.168870717
v -0.0800859854 0.07695412 0.1682212
v -0.08087936 0.0775 0.1694952
v -0.08012936 0.0775 0.168196157
f 1 2 3
f 1 3 4
f 5 1 4
f 4 3 6
f 7 5 4
f 8 4 6
f 7 4 8
f 8 6 9
f 10 7 8
f 11 8 9
f 10 8 11
f 11 9 12
f 13 10 11
f 14 11 12
f 13 11 14
f 14 12 15
f 16 13 14
f 17 14 15
f 16 14 17
f 17 15 18
f 19 16 17
f 20 17 18
f 19 17 20
f 20 18 21
f 22 20 21
f 23 19 20
f 23 20 22
f 22 21 24
f 25 23 22
f 26 22 24
f 27 25 22
f 28 22 26
f 27 22 28
f 29 28 26
f 30 27 28
f 31 28 29
f 31 30 28
f 32 31 29
f 31 32 30
f 32 29 33
f 32 34 30
f 35 32 33
f 32 35 34
f 35 33 36
f 35 37 34
f 38 35 36
f 35 38 37
f 38 36 39
f 38 40 37
f 41 38 39
f 38 41 40
f 41 39 42
f 41 43 40
f 44 41 42
f 41 44 43
f 44 42 45
f 44 46 43
f 47 44 45
f 44 47 46
f 47 45 48
f 46 47 49
f 47 48 49
f 48 50 49
f 50 51 49
f 49 51 52
f 50 53 51
f 51 54 52
f 53 55 51
f 51 55 54
f 53 56 55
f 55 57 54
f 56 58 55
f 55 58 57
f 56 59 58
f 58 60 57
f 59 61 58
f 58 61 60
f 59 62 61
f 61 63 60
f 62 64 61
f 61 64 63
f 62 65 64
f 64 66 63
f 65 67 64
f 64 67 66
f 65 68 67
f 68 69 67
f 67 70 66
f 67 69 70
f 68 71 69
f 69 72 70
f 71 73 69
f 69 74 72
f 73 75 69
f 69 75 74
f 73 76 75
f 75 77 74
f 76 78 75
f 75 78 77
f 76 79 78
f 79 77 78
f 80 79 76
f 79 81 77
f 82 79 80
f 79 82 81
f 83 82 80
f 82 84 81
f 85 82 83
f 82 85 84
f 86 85 83
f 85 87 84
f 88 85 86
f 85 88 87
f 89 88 86
f 88 90 87
f 91 88 89
f 88 91 90
f 92 91 89
f 91 93 90
f 94 91 92
f 91 94 93
f 95 94 92
f 94 96 93
f 94 95 96
f 97 98 99
f 97 99 100
f 101 97 100
f 100 99 102
f 103 101 100
f 104 100 102
f 103 100 104
f 104 102 105
f 106 103 104
f 107 104 105
f 106 104 107
f 107 105 108
f 109 106 107
f 110 107 108
f 109 107 110
f 110 108 111
f 112 109 110
f 113 110 111
f 112 110 113
f 113 111 114
f 115 112 113
f 116 113 114
f 115 113 116
f 116 114 117
f 118 116 117
f 119 115 116
f 119 116 118
f 118 117 120
f 121 119 118
f 122 118 120
f 123 121 118
f 124 118 122
f 123 118 124
f 125 124 122
f 126 123 124
f 127 124 125
f 127 126 124
f 128 127 125
f 127 128 126
f 128 125 129
f 128 130 126
f 131 128 129
f 128 131 130
f 131 129 132
f 131 133 130
f 134 131 132
f 131 134 133
f 134 132 135
f 134 136 133
f 137 134 135
f 134 137 136
f 137 135 138
f 137 139 136
f 140 137 138
f 137 140 139
f 140 138 141
f 140 142 139
f 143 140 141
f 140 143 142
f 143 141 144
f 142 143 145
f 143 144 145
f 144 146 145
f 146 147 145
f 145 147 148
f 146 149 147
f 147 150 148
f 149 151 147
f 147 151 150
f 149 152 151
f 151 153 150
f 152 154 151
f 151 154 153
f 152 155 154
f 154 156 153
f 155 157 154
f 154 157 156
f 155 158 157
f 157 159 156
f 158 160 157
f 157 160 159
f 158 161 160
f 160 162 159
f 161 163 160
f 160 163 162
f 161 164 163
f 164 165 163
f 163 166 162
f 163 165 166
f 164 167 165
f 165 168 166
f 167 169 165
f 165 170 168
f 169 171 165
f 165 171 170
f 169 172 171
f 171 173 170
f 172 174 171
f 171 174 173
f 172 175 174
f 175 173 174
f 176 175 172
f 175 177 173
f 178 175 176
f 175 178 177
f 179 178 176
f 178 180 177
f 181 178 179
f 178 181 180
f 182 181 179
f 181 183 180
f 184 181 182
f 181 184 183
f 185 184 182
f 184 186 183
f 187 184 185
f 184 187 186
f 188 187 185
f 187 189 186
f 190 187 188
f 187 190 189
f 191 190 188
f 190 192 189
f 190 191 192
f 193 194 195
f 193 195 196
f 197 193 196
f 196 195 198
f 199 197 196
f 200 196 198
f 199 196 200
f 200 198 201
f 202 199 200
f 203 200 201
f 202 200 203
f 203 201 204
f 205 202 203
f 206 203 204
f 205 203 206
f 206 204 207
f 208 205 206
f 209 206 207
f 208 206 209
f 209 207 210
f 211 208 209
f 212 209 210
f 211 209 212
f 212 210 213
f 214 212 213
f 215 211 212
f 215 212 214
f 214 213 216
f 217 215 214
f 218 214 216
f 219 217 214
f 220 214 218
f 219 214 220
f 221 220 218
f 222 219 220
f 223 220 221
f 223 222 220
f 224 223 221
f 223 224 222
f 224 221 225
f 224 226 222
f 227 224 225
f 224 227 226
f 227 225 228
f 227 229 226
f 230 227 228
f 227 230 229
f 230 228 231
f 230 232 229
f 233 230 231
f 230 233 232
f 233 231 234
f 233 235 232
f 236 233 234
f 233 236 235
f 236 234 237
f 236 238 235
f 239 236 237
f 236 239 238
f 239 237 240
f 238 239 241
f 239 240 241
f 240 242 241
f 242 243 241
f 241 243 244
f 242 245 243
f 243 246 244
f 245 247 243
f 243 247 246
f 245 248 247
f 247 249 246
f 248 250 247
f 247 250 249
f 248 251 250
f 250 252 249
f 251 253 250
f 250 253 252
f 251 254 253
f 253 255 252
f 254 256 253
f 253 256 255
f 254 257 256
f 256 258 255
f 257 259 256
f 256 259 258
f 257 260 259
f 260 261 259
f 259 262 258
f 259 261 262
f 260 263 261
f 261 264 262
f 263 265 261
f 261 266 264
f 265 267 261
f 261 267 266
f 265 268 267
f 267 269 266
f 268 270 267
f 267 270 269
f 268 271 270
f 271 269 270
f 272 271 268
f 271 273 269
f 274 271 272
f 271 274 273
f 275 274 272
f 274 276 273
f 277 274 275
f 274 277 276
f 278 277 275
f 277 279 276
f 280 277 278
f 277 280 279
f 281 280 278
f 280 282 279
f 283 280 281
f 280 283 282
f 284 283 281
f 283 285 282
f 286 283 284
f 283 286 285
f 287 286 284
f 286 288 285
f 286 287 288
f 289 290 291
f 289 291 292
f 293 289 292
f 292 291 294
f 295 293 292
f 296 292 294
f 295 292 296
f 296 294 297
f 298 295 296
f 299 296 297
f 298 296 299
f 299 297 300
f 301 298 299
f 302 299 300
f 301 299 302
f 302 300 303
f 304 301 302
f 305 302 303
f 304 302 305
f 305 303 306
f 307 304 305
f 308 305 306
f 307 305 308
f 308 306 309
f 310 308 309
f 311 307 308
f 311 308 310
f 310 309 312
f 313 311 310
f 314 310 312
f 315 313 310
f 316 310 314
f 315 310 316
f 317 316 314
f 318 315 316
f 319 316 317
f 319 318 316
f 320 319 317
f 319 320 318
f 320 317 321
f 320 322 318
f 323 320 321
f 320 323 322
f 323 321 324
f 323 325 322
f 326 323 324
f 323 326 325
f 326 324 327
f 326 328 325
f 329 326 327
f 326 329 328
f 329 327 330
f 329 331 328
f 332 329 330
f 329 332 331
f 332 330 333
f 332 334 331
f 335 332 333
f 332 335 334
f 335 333 336
f 334 335 337
f 335 336 337
f 336 338 337
f 338 339 337
f 337 339 340
f 338 341 339
f 339 342 340
f 341 343 339
f 339 343 342
f 341 344 343
f 343 345 342
f 344 346 343
f 343 346 345
f 344 347 346
f 346 348 345
f 347 349 346
f 346 349 348
f 347 350 349
f 349 351 348
f 350 352 349
f 349 352 351
f 350 353 352
f 352 354 351
f 353 355 352
f 352 355 354
f 353 356 355
f 356 357 355
f 355 358 354
f 355 357 358
f 356 359 357
f 357 360 358
f 359 361 357
f 357 362 360
f 361 363 357
f 357 363 362
f 361 364 363
f 363 365 362
f 364 366 363
f 363 366 365
f 364 367 366
f 367 365 366
f 368 367 364
f 367 369 365
f 370 367 368
f 367 370 369
f 371 370 368
f 370 372 369
f 373 370 371
f 370 373 372
f 374 373 371
f 373 375 372
f 376 373 374
f 373 376 375
f 377 376 374
f 376 378 375
f 379 376 377
f 376 379 378
f 380 379 377
f 379 381 378
f 382 379 380
f 379 382 381
f 383 382 380
f 382 384 381
f 382 383 384
f 385 386 387
f 388 385 387
f 385 389 386
f 389 385 390
f 385 391 390
f 385 392 391
f 385 388 393
f 392 385 394
f 394 385 395
f 394 395 396
f 397 394 396
f 397 396 398
f 399 397 398
f 399 398 400
f 401 399 400
f 401 400 402
f 403 401 402
f 401 403 404
f 401 404 405
f 406 401 405
f 407 406 405
f 407 405 408
f 409 407 408
f 410 409 408
f 410 408 411
f 412 410 411
f 410 412 413
f 410 413 414
f 415 410 414
f 415 414 416
f 417 415 416
f 417 416 418
f 419 417 418
f 420 419 418
f 420 421 419
f 421 422 419
f 421 423 422
f 423 421 424
f 421 425 424
f 421 426 425
f 421 427 426
f 427 428 426
f 427 429 428
f 430 429 427
f 431 430 427
f 432 431 427
f 433 432 427
f 434 433 427
f 435 434 427
f 393 435 427
f 436 393 427
f 436 427 437
f 427 438 437
f 393 436 439
f 385 393 439
f 440 385 439
f 440 439 441
f 440 441 442
f 436 443 439
f 436 444 443
f 444 436 445
f 436 446 445
f 447 440 442
f 436 448 446
f 440 447 449
f 448 436 450
f 440 449 451
f 436 452 450
f 453 440 451
f 440 453 454
f 436 455 452
f 440 454 456
f 457 440 456
f 457 456 458
f 456 459 458
f 459 460 458
f 459 461 460
f 461 462 460
f 461 463 462
f 463 464 462
f 463 465 464
f 465 463 466
f 463 467 466
f 463 468 467
f 468 469 467
f 469 470 467
f 469 471 470
f 471 472 470
f 472 473 470
f 472 474 473
f 474 472 475
f 472 476 475
f 472 477 476
f 477 478 476
f 477 479 478
f 479 480 478
f 479 481 480
f 481 482 480
f 481 483 482
f 483 481 484
f 483 484 485
f 486 483 485
f 483 486 487
f 483 487 488
f 436 483 488
f 455 436 488
f 489 436 437
f 438 489 437
f 438 490 489
f 490 491 489
f 491 492 489
f 492 493 489
f 493 494 489
f 494 495 489
f 495 496 489
f 496 497 489
f 497 498 489
f 498 499 489
f 499 500 489
f 499 501 500
f 501 502 500
f 502 503 500
f 503 504 500
f 504 505 500
f 505 506 500
f 505 507 506
f 505 508 507
f 508 509 507
f 508 510 509
f 510 511 509
f 510 512 511
f 512 513 511
f 512 514 513
f 514 512 515
f 512 516 515
f 512 517 516
f 517 518 516
f 518 519 516
f 518 520 519
f 520 521 519
f 521 522 519
f 521 523 522
f 523 521 524
f 521 525 524
f 521 526 525
f 526 527 525
f 526 528 527
f 528 529 527
f 528 530 529
f 530 531 529
f 530 532 531
f 533 532 530
f 532 533 534
f 532 534 535
f 536 532 535
f 532 536 537
f 532 537 538
f 539 532 538
f 532 539 490
f 532 490 540
f 541 532 540
f 541 540 542
f 541 542 543
f 490 438 540
f 438 544 540
f 438 545 544
f 545 438 546
f 547 541 543
f 438 548 546
f 541 547 549
f 438 550 548
f 541 549 551
f 550 438 552
f 553 541 551
f 541 553 554
f 438 555 552
f 438 556 555
f 556 438 557
f 541 554 558
f 559 541 558
f 559 558 560
f 558 561 560
f 561 562 560
f 561 563 562
f 563 564 562
f 438 565 557
f 563 566 564
f 565 567 557
f 566 568 564
f 565 569 567
f 566 570 568
f 570 566 571
f 569 565 572
f 565 573 572
f 566 574 571
f 566 575 574
f 575 576 574
f 565 577 573
f 577 565 578
f 577 578 579
f 580 577 579
f 580 579 581
f 582 580 581
f 582 581 583
f 576 584 574
f 584 576 585
f 586 582 583
f 584 585 586
f 586 583 587
f 588 584 586
f 586 587 589
f 588 586 589
f 590 591 592
f 590 592 593
f 591 590 594
f 594 590 593
f 595 596 597
f 595 597 598
f 596 595 599
f 599 595 598
f 600 601 602
f 600 602 603
f 601 600 604
f 604 600 603
f 605 606 607
f 608 605 607
f 605 609 606
f 609 605 608
f 610 611 612
f 610 612 613
f 611 610 614
f 614 610 613
f 615 616 617
f 615 617 618
f 616 615 619
f 619 615 618
f 620 621 622
f 623 620 622
f 620 624 621
f 624 620 623
f 625 626 627
f 625 628 626
f 628 625 629
f 625 630 629
f 631 625 627
f 625 631 630
f 631 627 632
f 631 633 630
f 634 631 632
f 631 634 633
f 634 632 635
f 634 636 633
f 637 634 635
f 634 637 636
f 637 635 638
f 637 639 636
f 640 637 638
f 637 640 639
f 640 638 641
f 640 642 639
f 643 640 641
f 640 643 642
f 643 641 644
f 643 645 642
f 646 643 644
f 643 646 645
f 646 644 647
f 646 648 645
f 649 646 647
f 646 649 648
f 650 651 652
f 650 652 653
f 651 650 654
f 654 650 653
f 655 656 657
f 655 658 656
f 658 655 659
f 655 660 659
f 661 655 657
f 655 661 660
f 661 657 662
f 661 663 660
f 664 661 662
f 661 664 663
f 664 662 665
f 664 666 663
f 667 664 665
f 664 667 666
f 667 665 668
f 667 669 666
f 670 667 668
f 667 670 669
f 670 668 671
f 670 672 669
f 673 670 671
f 670 673 672
f 673 671 674
f 673 675 672
f 676 673 674
f 673 676 675
f 676 674 677
f 676 678 675
f 679 676 677
f 676 679 678
f 680 681 682
f 680 682 683
f 681 680 684
f 684 680 683
f 685 686 687
f 685 688 686
f 688 685 689
f 685 690 689
f 691 685 687
f 685 691 690
f 691 687 692
f 691 693 690
f 694 691 692
f 691 694 693
f 694 692 695
f 694 696 693
f 697 694 695
f 694 697 696
f 697 695 698
f 697 699 696
f 700 697 698
f 697 700 699
f 700 698 701
f 700 702 699
f 703 700 701
f 700 703 702
f 703 701 704
f 703 705 702
f 706 703 704
f 703 706 705
f 706 704 707
f 706 708 705
f 709 706 707
f 706 709 708
f 710 711 712
f 710 712 713
f 711 710 714
f 714 710 713
f 715 716 717
f 715 718 716
f 718 715 719
f 715 720 719
f 721 715 717
f 715 721 720
f 721 717 722
f 721 723 720
f 724 721 722
f 721 724 723
f 724 722 725
f 724 726 723
f 727 724 725
f 724 727 726
f 727 725 728
f 727 729 726
f 730 727 728
f 727 730 729
f 730 728 731
f 730 732 729
f 733 730 731
f 730 733 732
f 733 731 734
f 733 735 732
f 736 733 734
f 733 736 735
f 736 734 737
f 736 738 735
f 739 736 737
f 736 739 738
f 740 741 742
f 740 743 741
f 743 740 744
f 740 745 744
f 746 740 742
f 740 746 745
f 746 742 747
f 746 748 745
f 749 746 747
f 746 749 748
f 749 747 750
f 749 751 748
f 752 749 750
f 749 752 751
f 752 750 753
f 752 754 751
f 755 752 753
f 752 755 754
f 755 753 756
f 755 757 754
f 758 755 756
f 755 758 757
f 758 756 759
f 758 760 757
f 761 758 759
f 758 761 760
f 761 759 762
f 761 763 760
f 764 761 762
f 761 764 763
f 765 766 767
f 768 765 767
f 765 769 766
f 769 765 768
f 770 771 772
f 770 773 771
f 773 770 774
f 770 775 774
f 776 770 772
f 770 776 775
f 776 772 777
f 776 778 775
f 779 776 777
f 776 779 778
f 779 777 780
f 779 781 778
f 782 779 780
f 779 782 781
f 782 780 783
f 782 784 781
f 785 782 783
f 782 785 784
f 785 783 786
f 785 787 784
f 788 785 786
f 785 788 787
f 788 786 789
f 788 790 787
f 791 788 789
f 788 791 790
f 791 789 792
f 791 793 790
f 794 791 792
f 791 794 793
f 795 796 797
f 795 798 796
f 798 795 799
f 795 800 799
f 801 795 797
f 795 801 800
f 801 797 802
f 801 803 800
f 804 801 802
f 801 804 803
f 804 802 805
f 804 806 803
f 807 804 805
f 804 807 806
f 807 805 808
f 807 809 806
f 810 807 808
f 807 810 809
f 810 808 811
f 810 812 809
f 813 810 811
f 810 813 812
f 813 811 814
f 813 815 812
f 816 813 814
f 813 816 815
f 816 814 817
f 816 818 815
f 819 816 817
f 816 819 818
f 820 821 822
f 823 820 822
f 820 824 821
f 824 820 823
f 825 826 827
f 825 827 828
f 829 825 828
f 825 829 830
f 825 830 831
f 832 825 831
f 825 832 833
f 826 825 834
f 825 833 835
f 825 836 834
f 836 837 834
f 836 838 837
f 838 836 839
f 836 840 839
f 836 841 840
f 841 836 842
f 841 842 843
f 844 841 843
f 844 843 845
f 846 844 845
f 846 845 847
f 848 846 847
f 848 847 849
f 850 848 849
f 848 850 851
f 848 851 852
f 853 848 852
f 854 853 852
f 854 852 855
f 856 854 855
f 857 856 855
f 857 855 858
f 859 857 858
f 857 859 860
f 857 860 861
f 862 857 861
f 862 861 863
f 864 862 863
f 864 863 865
f 866 864 865
f 867 866 865
f 867 868 866
f 868 869 866
f 868 870 869
f 870 868 871
f 868 872 871
f 868 873 872
f 873 868 874
f 868 875 874
f 868 835 875
f 868 876 835
f 876 877 835
f 876 878 877
f 878 876 879
f 876 880 879
f 876 881 880
f 881 876 882
f 876 883 882
f 876 884 883
f 884 876 885
f 885 876 886
f 885 886 887
f 888 885 887
f 888 887 889
f 890 888 889
f 890 889 891
f 892 890 891
f 892 891 893
f 894 892 893
f 892 894 895
f 892 895 896
f 897 892 896
f 898 897 896
f 898 896 899
f 900 898 899
f 901 900 899
f 901 899 902
f 903 901 902
f 901 903 904
f 901 904 905
f 906 901 905
f 906 905 907
f 908 906 907
f 908 907 909
f 910 908 909
f 911 910 909
f 911 912 910
f 912 913 910
f 912 914 913
f 914 912 915
f 912 916 915
f 912 917 916
f 912 918 917
f 918 919 917
f 918 920 919
f 921 920 918
f 922 921 918
f 923 922 918
f 924 923 918
f 925 924 918
f 926 925 918
f 877 926 918
f 825 877 918
f 877 825 835
f 825 918 927
f 928 825 927
f 918 929 927
f 929 928 927
f 929 930 928
f 930 931 928
f 931 932 928
f 932 933 928
f 933 934 928
f 934 935 928
f 935 936 928
f 936 937 928
f 937 938 928
f 938 939 928
f 939 940 928
f 939 941 940
f 941 942 940
f 942 943 940
f 940 943 944
f 940 944 945
f 946 940 945
f 946 945 947
f 945 948 947
f 948 949 947
f 948 950 949
f 950 951 949
f 950 952 951
f 952 953 951
f 952 954 953
f 954 952 955
f 952 956 955
f 952 957 956
f 957 958 956
f 958 959 956
f 958 960 959
f 960 961 959
f 961 962 959
f 961 963 962
f 963 961 964
f 961 965 964
f 961 966 965
f 966 967 965
f 966 968 967
f 968 969 967
f 968 970 969
f 970 971 969
f 970 972 971
f 973 972 970
f 972 973 974
f 972 974 975
f 976 972 975
f 972 976 977
f 972 977 978
f 979 972 978
f 972 979 930
f 972 930 980
f 981 972 980
f 981 980 982
f 981 982 983
f 930 929 980
f 929 984 980
f 929 985 984
f 985 929 986
f 987 981 983
f 929 988 986
f 981 987 989
f 929 990 988
f 981 989 991
f 990 929 992
f 993 981 991
f 981 993 994
f 929 995 992
f 929 996 995
f 996 929 997
f 981 994 998
f 999 981 998
f 999 998 1000
f 998 1001 1000
f 1001 1002 1000
f 1001 1003 1002
f 1003 1004 1002
f 929 1005 997
f 1003 1006 1004
f 1005 1007 997
f 1006 1008 1004
f 1005 1009 1007
f 1006 1010 1008
f 1010 1006 1011
f 1009 1005 1012
f 1005 1013 1012
f 1006 1014 1011
f 1006 1015 1014
f 1015 1016 1014
f 1005 1017 1013
f 1017 1005 1018
f 1017 1018 1019
f 1020 1017 1019
f 1020 1019 1021
f 1022 1020 1021
f 1022 1021 1023
f 1016 1024 1014
f 1016 1025 1024
f 1026 1022 1023
f 1025 1026 1024
f 1026 1023 1027
f 1026 1028 1024
f 1029 1026 1027
f 1026 1029 1028
f 1030 1031 1032
f 1031 1030 1033
f 1031 1034 1032
f 1031 1033 1035
f 1031 1036 1034
f 1036 1031 1035
f 1036 1037 1034
f 1036 1035 1038
f 1036 1039 1037
f 1039 1036 1038
f 1039 1040 1037
f 1039 1038 1041
f 1039 1042 1040
f 1042 1039 1041
f 1042 1043 1040
f 1042 1041 1044
f 1042 1045 1043
f 1045 1042 1044
f 1045 1046 1043
f 1045 1044 1047
f 1045 1048 1046
f 1048 1045 1047
f 1048 1049 1046
f 1048 1047 1050
f 1048 1051 1049
f 1051 1048 1050
f 1051 1052 1049
f 1051 1050 1053
f 1051 1054 1052
f 1054 1051 1053
