# ROS coordinates: X forward, Y left, Z up; units are metres.
o mesh
v -0.0365157425 0.108770221 0.00500000035
v -0.0367079936 0.09877207 0.00500000035
v -0.036622867 0.09877043 0.00407198863
v -0.03649976 0.103768989 0.00393647142
v -0.0364306122 0.10876859 0.00407198863
v -0.03634998 0.09876519 0.00312271714
v -0.0361577272 0.108763337 0.00312271714
v -0.0361390971 0.103762053 0.002855348
v -0.0358768255 0.09875609 0.00220923079
v -0.03568457 0.10875424 0.00220923079
v -0.0355184451 0.103750125 0.00184421986
v -0.0352145135 0.09874336 0.0013937559
v -0.0350222625 0.108741507 0.0013937559
v -0.034668006 0.103733771 0.0009936243
v -0.03439919 0.09872767 0.0007313229
v -0.034206938 0.108725831 0.0007313229
v -0.0336570665 0.103714332 0.000372855924
v -0.03348587 0.09871011 0.00025807973
v -0.03329362 0.10870827 0.00025807973
v -0.03257614 0.103693545 1.21248886E-05
v -0.0325367749 0.0986918658 -1.48564577E-05
v -0.0315128081 0.1036731 -9.99989E-05
v -0.0323445238 0.108690016 -1.48564577E-05
v -0.0316089354 0.09867402 -9.99989E-05
v -0.0314166844 0.108672172 -9.99989E-05
v -0.0306810942 0.09865618 -1.48564577E-05
v -0.0304888431 0.108654335 -1.48564577E-05
v -0.0304494761 0.103652649 1.21248886E-05
v -0.0297319982 0.09863793 0.00025807973
v -0.0295397472 0.108636081 0.00025807973
v -0.0296358727 0.10363701 0.00025807973
v -0.0288484637 0.10362187 0.0006515933
v -0.02881868 0.09862037 0.0007313229
v -0.0286264289 0.10861852 0.0007313229
v -0.0281267054 0.10360799 0.001186857
v -0.0280033555 0.098604694 0.0013937559
v -0.0278111044 0.108602844 0.0013937559
v -0.0275071729 0.103596076 0.00184421986
v -0.0273410454 0.09859195 0.00220923079
v -0.0271487944 0.108590111 0.00220923079
v -0.0270177349 0.103586666 0.00259233359
v -0.02686789 0.09858286 0.00312271714
v -0.0266756378 0.108581014 0.00312271714
v -0.02667351 0.103580043 0.003392972
v -0.0265950039 0.09857761 0.00407198863
v -0.026402751 0.108575761 0.00407198863
v -0.0264757611 0.103576243 0.00420704857
v -0.0265098773 0.09857597 0.00500000035
v -0.0263176244 0.10857413 0.00500000035
v -0.0265950039 0.09857761 0.005928012
v -0.0265258551 0.103577204 0.00606353
v -0.026402751 0.108575761 0.005928012
v -0.02686789 0.09858286 0.00687728357
v -0.0266756378 0.108581014 0.00687728357
v -0.026886519 0.103584141 0.00714465324
v -0.0273410454 0.09859195 0.00779077038
v -0.0271487944 0.108590111 0.00779077038
v -0.0275071729 0.103596076 0.008155781
v -0.0280033555 0.098604694 0.008606246
v -0.0278111044 0.108602844 0.008606246
v -0.028357612 0.10361243 0.009006377
v -0.02881868 0.09862037 0.009268678
v -0.0286264289 0.10861852 0.009268678
v -0.0293685533 0.103631869 0.009627145
v -0.0297319982 0.09863793 0.009741921
v -0.0295397472 0.108636081 0.009741921
v -0.0304494761 0.103652649 0.009987877
v -0.0306810942 0.09865618 0.0100148581
v -0.0315128081 0.1036731 0.0101000005
v -0.0304888431 0.108654335 0.0100148581
v -0.0316089354 0.09867402 0.0101000005
v -0.0314166844 0.108672172 0.0101000005
v -0.0325367749 0.0986918658 0.0100148581
v -0.0323445238 0.108690016 0.0100148581
v -0.03257614 0.103693545 0.009987877
v -0.03348587 0.09871011 0.009741921
v -0.03329362 0.10870827 0.009741921
v -0.0333897434 0.103709191 0.009741921
v -0.0341771543 0.103724331 0.009348407
v -0.03439919 0.09872767 0.009268678
v -0.034206938 0.108725831 0.009268678
v -0.03489891 0.103738211 0.008813145
v -0.0352145135 0.09874336 0.008606246
v -0.0350222625 0.108741507 0.008606246
v -0.0355184451 0.103750125 0.008155781
v -0.0358768255 0.09875609 0.00779077038
v -0.03568457 0.10875424 0.00779077038
v -0.03600788 0.103759535 0.00740766665
v -0.03634998 0.09876519 0.00687728357
v -0.0361577272 0.108763337 0.00687728357
v -0.0363521054 0.103766151 0.00660702866
v -0.036622867 0.09877043 0.005928012
v -0.0364306122 0.10876859 0.005928012
v -0.036549855 0.103769958 0.005792952
v -0.0367079936 0.09877207 0.00500000035
v -0.0365157425 0.108770221 0.00500000035
v -0.03325863 0.0987057462 0.0150000006
v -0.033066377 0.1087039 0.0150000006
v -0.033038836 0.108703367 0.01530024
v -0.033126235 0.103704125 0.0153440842
v -0.033231087 0.09870522 0.01530024
v -0.03295055 0.108701669 0.015607357
v -0.0331428 0.09870352 0.015607357
v -0.0330095477 0.103701882 0.0156938583
v -0.03279747 0.108698726 0.0159028955
v -0.03298972 0.0987005755 0.0159028955
v -0.03280875 0.103698015 0.0160209872
v -0.032583192 0.108694606 0.016166728
v -0.0327754468 0.0986964554 0.016166728
v -0.03253361 0.103692725 0.0162961818
v -0.03231941 0.108689532 0.0163810439
v -0.0325116627 0.09869138 0.0163810439
v -0.03220654 0.103686437 0.0164970178
v -0.0320239253 0.108683854 0.0165341515
v -0.03221618 0.0986857 0.0165341515
v -0.0318568274 0.103679717 0.0166137256
v -0.0317168646 0.108677946 0.0166224539
v -0.0315128081 0.1036731 0.0166500024
v -0.03190912 0.0986797959 0.0166224539
v -0.0314166844 0.108672172 0.0166500024
v -0.0316089354 0.09867402 0.0166500024
v -0.0311164986 0.108666405 0.0166224539
v -0.03130875 0.09866825 0.0166224539
v -0.0311687887 0.103666484 0.0166137256
v -0.0308094379 0.1086605 0.0165341515
v -0.03100169 0.09866235 0.0165341515
v -0.0309055652 0.103661425 0.0165341515
v -0.030650815 0.103656523 0.0164068379
v -0.0305139534 0.108654819 0.0163810439
v -0.0307062045 0.09865666 0.0163810439
v -0.0304173045 0.10365203 0.016233664
v -0.0302501712 0.108649746 0.016166728
v -0.0304424241 0.0986515954 0.016166728
v -0.0302168671 0.103648178 0.0160209872
v -0.0300358944 0.108645625 0.0159028955
v -0.0302281473 0.0986474752 0.0159028955
v -0.03005852 0.103645131 0.0157789513
v -0.0298828147 0.108642682 0.015607357
v -0.0300750677 0.0986445248 0.015607357
v -0.0299471542 0.103642993 0.0155199226
v -0.02979453 0.108640984 0.01530024
v -0.02998678 0.09864283 0.01530024
v -0.0298831761 0.103641763 0.0152565446
v -0.029766988 0.108640455 0.0150000006
v -0.0299592391 0.0986423045 0.0150000006
v -0.02979453 0.108640984 0.0146997627
v -0.029899383 0.103642076 0.0146559179
v -0.02998678 0.09864283 0.0146997627
v -0.0298828147 0.108642682 0.0143926442
v -0.0300750677 0.0986445248 0.0143926442
v -0.0300160684 0.103644319 0.0143061429
v -0.0300358944 0.108645625 0.0140971048
v -0.0302281473 0.0986474752 0.0140971048
v -0.0302168671 0.103648178 0.0139790131
v -0.0302501712 0.108649746 0.0138332751
v -0.0304424241 0.0986515954 0.0138332751
v -0.03049201 0.103653468 0.01370382
v -0.0305139534 0.108654819 0.0136189582
v -0.0307062045 0.09865666 0.0136189582
v -0.0308190789 0.103659756 0.0135029834
v -0.0308094379 0.1086605 0.01346585
v -0.03100169 0.09866235 0.01346585
v -0.0311687887 0.103666484 0.0133862756
v -0.0311164986 0.108666405 0.0133775473
v -0.0315128081 0.1036731 0.0133500006
v -0.03130875 0.09866825 0.0133775473
v -0.0314166844 0.108672172 0.0133500006
v -0.0316089354 0.09867402 0.0133500006
v -0.0317168646 0.108677946 0.0133775473
v -0.03190912 0.0986797959 0.0133775473
v -0.0318568274 0.103679717 0.0133862756
v -0.0320239253 0.108683854 0.01346585
v -0.03221618 0.0986857 0.01346585
v -0.0321200527 0.103684776 0.01346585
v -0.032374803 0.103689671 0.0135931633
v -0.03231941 0.108689532 0.0136189582
v -0.0325116627 0.09869138 0.0136189582
v -0.03260831 0.103694163 0.0137663372
v -0.032583192 0.108694606 0.0138332751
v -0.0327754468 0.0986964554 0.0138332751
v -0.03280875 0.103698015 0.0139790131
v -0.03279747 0.108698726 0.0140971048
v -0.03298972 0.0987005755 0.0140971048
v -0.0329670981 0.103701063 0.01422105
v -0.03295055 0.108701669 0.0143926442
v -0.0331428 0.09870352 0.0143926442
v -0.0330784656 0.1037032 0.01448008
v -0.033038836 0.108703367 0.0146997627
v -0.033231087 0.09870522 0.0146997627
v -0.03314244 0.103704438 0.0147434575
v -0.033066377 0.1087039 0.0150000006
v -0.03325863 0.0987057462 0.0150000006
v -0.0232604779 0.09851349 0.00500000035
v -0.023068225 0.108511642 0.00500000035
v -0.0230406839 0.108511113 0.005300239
v -0.0231280811 0.10351187 0.00534408353
v -0.0232329369 0.09851296 0.005300239
v -0.0229523964 0.108509421 0.005607357
v -0.02314465 0.0985112637 0.005607357
v -0.0230113957 0.103509627 0.005693859
v -0.0227993168 0.108506471 0.00590289664
v -0.0229915679 0.09850832 0.00590289664
v -0.022810597 0.103505768 0.00602098834
v -0.02258504 0.108502351 0.00616672635
v -0.0227772929 0.0985042 0.00616672635
v -0.0225354545 0.103500478 0.006296181
v -0.0223212577 0.108497284 0.00638104323
v -0.0225135088 0.09849913 0.00638104323
v -0.0222083852 0.10349419 0.006497018
v -0.0220257752 0.1084916 0.00653415127
v -0.0222180262 0.09849345 0.00653415127
v -0.0218586773 0.103487462 0.00661372533
v -0.0217187144 0.1084857 0.00662245462
v -0.021514656 0.103480846 0.006650001
v -0.0219109654 0.09848754 0.00662245462
v -0.02141853 0.108479924 0.006650001
v -0.0216107816 0.0984817743 0.006650001
v -0.0211183466 0.10847415 0.00662245462
v -0.0213105977 0.098476 0.00662245462
v -0.0211706366 0.10347423 0.00661372533
v -0.0208112858 0.108468249 0.00653415127
v -0.0210035369 0.09847009 0.00653415127
v -0.0209074132 0.103469171 0.00653415127
v -0.020652663 0.103464268 0.006406838
v -0.0205158014 0.108462565 0.00638104323
v -0.0207080543 0.0984644145 0.00638104323
v -0.0204191525 0.103459783 0.0062336647
v -0.02025202 0.108457491 0.00616672635
v -0.0204442721 0.09845934 0.00616672635
v -0.0202187151 0.103455931 0.00602098834
v -0.0200377442 0.108453371 0.00590289664
v -0.0202299953 0.09845522 0.00590289664
v -0.0200603679 0.103452884 0.00577895157
v -0.01988466 0.108450428 0.005607357
v -0.0200769138 0.09845228 0.005607357
v -0.019949 0.103450738 0.00551992143
v -0.0197963752 0.108448729 0.005300239
v -0.0199886281 0.09845058 0.005300239
v -0.0198850222 0.103449509 0.005256544
v -0.019768836 0.1084482 0.00500000035
v -0.0199610889 0.09845005 0.00500000035
v -0.0197963752 0.108448729 0.004699761
v -0.01990123 0.103449821 0.004655917
v -0.0199886281 0.09845058 0.004699761
v -0.01988466 0.108450428 0.00439264439
v -0.0200769138 0.09845228 0.00439264439
v -0.0200179163 0.103452064 0.004306142
v -0.0200377442 0.108453371 0.004097105
v -0.0202299953 0.09845522 0.004097105
v -0.0202187151 0.103455931 0.0039790133
v -0.02025202 0.108457491 0.003833274
v -0.0204442721 0.09845934 0.003833274
v -0.0204938576 0.103461221 0.00370382
v -0.0205158014 0.108462565 0.003618958
v -0.0207080543 0.0984644145 0.003618958
v -0.0208209269 0.103467509 0.00350298313
v -0.0208112858 0.108468249 0.00346585
v -0.0210035369 0.09847009 0.00346585
v -0.0211706366 0.10347423 0.00338627631
v -0.0211183466 0.10847415 0.00337754656
v -0.021514656 0.103480846 0.00335
v -0.0213105977 0.098476 0.00337754656
v -0.02141853 0.108479924 0.00335
v -0.0216107816 0.0984817743 0.00335
v -0.0217187144 0.1084857 0.00337754656
v -0.0219109654 0.09848754 0.00337754656
v -0.0218586773 0.103487462 0.00338627631
v -0.0220257752 0.1084916 0.00346585
v -0.0222180262 0.09849345 0.00346585
v -0.0221219 0.103492521 0.00346585
v -0.02237665 0.103497423 0.00359316263
v -0.0223212577 0.108497284 0.003618958
v -0.0225135088 0.09849913 0.003618958
v -0.0226101615 0.103501908 0.00376633648
v -0.02258504 0.108502351 0.003833274
v -0.0227772929 0.0985042 0.003833274
v -0.022810597 0.103505768 0.0039790133
v -0.0227993168 0.108506471 0.004097105
v -0.0229915679 0.09850832 0.004097105
v -0.0229689442 0.103508808 0.004221049
v -0.0229523964 0.108509421 0.00439264439
v -0.02314465 0.0985112637 0.00439264439
v -0.0230803117 0.103510953 0.00448007928
v -0.0230406839 0.108511113 0.004699761
v -0.0232329369 0.09851296 0.004699761
v -0.02314429 0.103512183 0.00474345731
v -0.023068225 0.108511642 0.00500000035
v -0.0232604779 0.09851349 0.00500000035
v -0.043256782 0.09889799 0.00500000035
v -0.0430645272 0.108896151 0.00500000035
v -0.04303699 0.108895622 0.005300239
v -0.04312439 0.103896372 0.00534408353
v -0.04322924 0.0988974646 0.005300239
v -0.0429487042 0.108893923 0.005607357
v -0.0431409553 0.0988957658 0.005607357
v -0.0430077 0.103894129 0.005693859
v -0.04279562 0.10889098 0.00590289664
v -0.0429878756 0.09889282 0.00590289664
v -0.0428069 0.10389027 0.00602098834
v -0.0425813459 0.10888686 0.00616672635
v -0.0427735969 0.0988887 0.00616672635
v -0.0425317623 0.10388498 0.006296181
v -0.04231756 0.108881786 0.00638104323
v -0.0425098166 0.09888364 0.00638104323
v -0.04220469 0.103878692 0.006497018
v -0.04202208 0.1088761 0.00653415127
v -0.04221433 0.09887795 0.00653415127
v -0.04185498 0.103871964 0.00661372533
v -0.04171502 0.1088702 0.00662245462
v -0.0415109619 0.103865348 0.006650001
v -0.0419072732 0.09887205 0.00662245462
v -0.0414148346 0.108864427 0.006650001
v -0.04160709 0.09886628 0.006650001
v -0.04111465 0.108858652 0.00662245462
v -0.0413069054 0.0988605 0.00662245462
v -0.0411669426 0.103858739 0.00661372533
v -0.04080759 0.108852752 0.00653415127
v -0.0409998447 0.0988546 0.00653415127
v -0.0409037173 0.103853673 0.00653415127
v -0.040648967 0.103848778 0.006406838
v -0.0405121073 0.108847067 0.00638104323
v -0.04070436 0.09884892 0.00638104323
v -0.04041546 0.103844285 0.0062336647
v -0.040248327 0.108842 0.00616672635
v -0.040440578 0.09884384 0.00616672635
v -0.0402150229 0.103840433 0.00602098834
v -0.04003405 0.10883788 0.00590289664
v -0.0402263 0.09883972 0.00590289664
v -0.0400566757 0.103837386 0.00577895157
v -0.03988097 0.108834937 0.005607357
v -0.04007322 0.09883678 0.005607357
v -0.0399453044 0.103835247 0.00551992143
v -0.03979268 0.108833238 0.005300239
v -0.039984934 0.09883508 0.005300239
v -0.03988133 0.103834018 0.005256544
v -0.0397651419 0.108832709 0.00500000035
v -0.039957393 0.09883455 0.00500000035
v -0.03979268 0.108833238 0.004699761
v -0.039897535 0.103834324 0.004655917
v -0.039984934 0.09883508 0.004699761
v -0.03988097 0.108834937 0.00439264439
v -0.04007322 0.09883678 0.00439264439
v -0.0400142223 0.103836574 0.004306142
v -0.04003405 0.10883788 0.004097105
v -0.0402263 0.09883972 0.004097105
v -0.0402150229 0.103840433 0.0039790133
v -0.040248327 0.108842 0.003833274
v -0.040440578 0.09884384 0.003833274
v -0.04049016 0.103845723 0.00370382
v -0.0405121073 0.108847067 0.003618958
v -0.04070436 0.09884892 0.003618958
v -0.04081723 0.103852011 0.00350298313
v -0.04080759 0.108852752 0.00346585
v -0.0409998447 0.0988546 0.00346585
v -0.0411669426 0.103858739 0.00338627631
v -0.04111465 0.108858652 0.00337754656
v -0.0415109619 0.103865348 0.00335
v -0.0413069054 0.0988605 0.00337754656
v -0.0414148346 0.108864427 0.00335
v -0.04160709 0.09886628 0.00335
v -0.04171502 0.1088702 0.00337754656
v -0.0419072732 0.09887205 0.00337754656
v -0.04185498 0.103871964 0.00338627631
v -0.04202208 0.1088761 0.00346585
v -0.04221433 0.09887795 0.00346585
v -0.0421182066 0.10387703 0.00346585
v -0.0423729569 0.103881925 0.00359316263
v -0.04231756 0.108881786 0.003618958
v -0.0425098166 0.09888364 0.003618958
v -0.0426064655 0.103886418 0.00376633648
v -0.0425813459 0.10888686 0.003833274
v -0.0427735969 0.0988887 0.003833274
v -0.0428069 0.10389027 0.0039790133
v -0.04279562 0.10889098 0.004097105
v -0.0429878756 0.09889282 0.004097105
v -0.042965252 0.103893317 0.004221049
v -0.0429487042 0.108893923 0.00439264439
v -0.0431409553 0.0988957658 0.00439264439
v -0.04307662 0.103895456 0.00448007928
v -0.04303699 0.108895622 0.004699761
v -0.04322924 0.0988974646 0.004699761
v -0.0431405939 0.103896685 0.00474345731
v -0.0430645272 0.108896151 0.00500000035
v -0.043256782 0.09889799 0.00500000035
v -0.03325863 0.0987057462 -0.005
v -0.033066377 0.1087039 -0.005
v -0.033038836 0.108703367 -0.004699761
v -0.033126235 0.103704125 -0.00465591624
v -0.033231087 0.09870522 -0.004699761
v -0.03295055 0.108701669 -0.00439264439
v -0.0331428 0.09870352 -0.00439264439
v -0.0330095477 0.103701882 -0.004306142
v -0.03279747 0.108698726 -0.004097104
v -0.03298972 0.0987005755 -0.004097104
v -0.03280875 0.103698015 -0.00397901144
v -0.032583192 0.108694606 -0.00383327343
v -0.0327754468 0.0986964554 -0.00383327343
v -0.03253361 0.103692725 -0.00370381959
v -0.03231941 0.108689532 -0.00361895747
v -0.0325116627 0.09869138 -0.00361895747
v -0.03220654 0.103686437 -0.0035029836
v -0.0320239253 0.108683854 -0.003465849
v -0.03221618 0.0986857 -0.003465849
v -0.0318568274 0.103679717 -0.00338627584
v -0.0317168646 0.108677946 -0.00337754562
v -0.0315128081 0.1036731 -0.00335000083
v -0.03190912 0.0986797959 -0.00337754562
v -0.0314166844 0.108672172 -0.00335000083
v -0.0316089354 0.09867402 -0.00335000083
v -0.0311164986 0.108666405 -0.00337754562
v -0.03130875 0.09866825 -0.00337754562
v -0.0311687887 0.103666484 -0.00338627584
v -0.0308094379 0.1086605 -0.003465849
v -0.03100169 0.09866235 -0.003465849
v -0.0309055652 0.103661425 -0.003465849
v -0.030650815 0.103656523 -0.00359316263
v -0.0305139534 0.108654819 -0.00361895747
v -0.0307062045 0.09865666 -0.00361895747
v -0.0304173045 0.10365203 -0.00376633648
v -0.0302501712 0.108649746 -0.00383327343
v -0.0304424241 0.0986515954 -0.00383327343
v -0.0302168671 0.103648178 -0.00397901144
v -0.0300358944 0.108645625 -0.004097104
v -0.0302281473 0.0986474752 -0.004097104
v -0.03005852 0.103645131 -0.004221049
v -0.0298828147 0.108642682 -0.00439264439
v -0.0300750677 0.0986445248 -0.00439264439
v -0.0299471542 0.103642993 -0.00448007975
v -0.02979453 0.108640984 -0.004699761
v -0.02998678 0.09864283 -0.004699761
v -0.0298831761 0.103641763 -0.004743458
v -0.029766988 0.108640455 -0.005
v -0.0299592391 0.0986423045 -0.005
v -0.02979453 0.108640984 -0.00530023966
v -0.029899383 0.103642076 -0.00534408353
v -0.02998678 0.09864283 -0.00530023966
v -0.0298828147 0.108642682 -0.00560735539
v -0.0300750677 0.0986445248 -0.00560735539
v -0.0300160684 0.103644319 -0.00569385756
v -0.0300358944 0.108645625 -0.005902895
v -0.0302281473 0.0986474752 -0.005902895
v -0.0302168671 0.103648178 -0.00602098834
v -0.0302501712 0.108649746 -0.00616672728
v -0.0304424241 0.0986515954 -0.00616672728
v -0.03049201 0.103653468 -0.006296181
v -0.0305139534 0.108654819 -0.00638104323
v -0.0307062045 0.09865666 -0.00638104323
v -0.0308190789 0.103659756 -0.006497017
v -0.0308094379 0.1086605 -0.006534151
v -0.03100169 0.09866235 -0.006534151
v -0.0311687887 0.103666484 -0.006613725
v -0.0311164986 0.108666405 -0.006622453
v -0.0315128081 0.1036731 -0.00665
v -0.03130875 0.09866825 -0.006622453
v -0.0314166844 0.108672172 -0.00665
v -0.0316089354 0.09867402 -0.00665
v -0.0317168646 0.108677946 -0.006622453
v -0.03190912 0.0986797959 -0.006622453
v -0.0318568274 0.103679717 -0.006613725
v -0.0320239253 0.108683854 -0.006534151
v -0.03221618 0.0986857 -0.006534151
v -0.0321200527 0.103684776 -0.006534151
v -0.032374803 0.103689671 -0.006406837
v -0.03231941 0.108689532 -0.00638104323
v -0.0325116627 0.09869138 -0.00638104323
v -0.03260831 0.103694163 -0.0062336633
v -0.032583192 0.108694606 -0.00616672728
v -0.0327754468 0.0986964554 -0.00616672728
v -0.03280875 0.103698015 -0.00602098834
v -0.03279747 0.108698726 -0.005902895
v -0.03298972 0.0987005755 -0.005902895
v -0.0329670981 0.103701063 -0.00577895064
v -0.03295055 0.108701669 -0.00560735539
v -0.0331428 0.09870352 -0.00560735539
v -0.0330784656 0.1037032 -0.005519921
v -0.033038836 0.108703367 -0.00530023966
v -0.033231087 0.09870522 -0.00530023966
v -0.03314244 0.103704438 -0.005256543
v -0.033066377 0.1087039 -0.005
v -0.03325863 0.0987057462 -0.005
v -0.0314166844 0.108672172 0.0225
v -0.02984452 0.108641945 0.0224292129
v -0.0282329172 0.108610958 0.022207845
v -0.0266023036 0.1085796 0.0218244828
v -0.0308094379 0.1086605 0.0165341515
v -0.0311164986 0.108666405 0.0166224539
v -0.0314166844 0.108672172 0.0166500024
v -0.0329888463 0.108702406 0.0224292129
v -0.0346004479 0.108733393 0.022207845
v -0.0305139534 0.108654819 0.0163810439
v -0.0302501712 0.108649746 0.016166728
v -0.0300358944 0.108645625 0.0159028955
v -0.0249762144 0.108548336 0.0212712958
v -0.0298828147 0.108642682 0.015607357
v -0.02338051 0.108517647 0.0205449723
v -0.02979453 0.108640984 0.01530024
v -0.0218422823 0.108488068 0.0196474232
v -0.029766988 0.108640455 0.0150000006
v -0.0203885026 0.108460113 0.0185861811
v -0.0362310633 0.108764753 0.0218244828
v -0.02979453 0.108640984 0.0146997627
v -0.03785715 0.108796015 0.0212712958
v -0.0394528545 0.108826704 0.0205449723
v -0.0409910828 0.108856276 0.0196474232
v -0.0424448624 0.10888423 0.0185861811
v -0.0437887646 0.108910076 0.01737437
v -0.0317168646 0.108677946 0.0166224539
v -0.0320239253 0.108683854 0.0165341515
v -0.03231941 0.108689532 0.0163810439
v -0.032583192 0.108694606 0.016166728
v -0.03279747 0.108698726 0.0159028955
v -0.03295055 0.108701669 0.015607357
v -0.033038836 0.108703367 0.01530024
v -0.033066377 0.1087039 0.0150000006
v -0.033038836 0.108703367 0.0146997627
v -0.03295055 0.108701669 0.0143926442
v -0.045000352 0.108933374 0.0160302185
v -0.0460613966 0.108953774 0.0145761715
v -0.03279747 0.108698726 0.0140971048
v -0.04695878 0.10897103 0.0130376564
v -0.0314166844 0.108672172 0.0101000005
v -0.032583192 0.108694606 0.0138332751
v -0.047684975 0.108984992 0.0114416583
v -0.03231941 0.108689532 0.0136189582
v -0.0323445238 0.108690016 0.0100148581
v -0.03329362 0.10870827 0.009741921
v -0.0320239253 0.108683854 0.01346585
v -0.034206938 0.108725831 0.009268678
v -0.0317168646 0.108677946 0.0133775473
v -0.0314166844 0.108672172 0.0133500006
v -0.0311164986 0.108666405 0.0133775473
v -0.0304888431 0.108654335 0.0100148581
v -0.0308094379 0.1086605 0.01346585
v -0.0305139534 0.108654819 0.0136189582
v -0.0295397472 0.108636081 0.009741921
v -0.0302501712 0.108649746 0.0138332751
v -0.0300358944 0.108645625 0.0140971048
v -0.0286264289 0.10861852 0.009268678
v -0.0298828147 0.108642682 0.0143926442
v -0.0278111044 0.108602844 0.008606246
v -0.0350222625 0.108741507 0.008606246
v -0.0190446 0.108434275 0.01737437
v -0.02141853 0.108479924 0.006650001
v -0.0178330131 0.108410977 0.0160302185
v -0.0271487944 0.108590111 0.00779077038
v -0.0167719666 0.108390577 0.0145761715
v -0.0266756378 0.108581014 0.00687728357
v -0.0211183466 0.10847415 0.00662245462
v -0.0158745833 0.108373322 0.0130376564
v -0.0208112858 0.108468249 0.00653415127
v -0.0151483919 0.108359359 0.0114416583
v -0.0205158014 0.108462565 0.00638104323
v -0.0145953074 0.10834872 0.009815269
v -0.02025202 0.108457491 0.00616672635
v -0.0217187144 0.1084857 0.00662245462
v -0.01421202 0.108341351 0.008184354
v -0.0200377442 0.108453371 0.00590289664
v -0.01988466 0.108450428 0.005607357
v -0.0139906891 0.1083371 0.00657245331
v -0.0197963752 0.108448729 0.005300239
v -0.0220257752 0.1084916 0.00653415127
v -0.013919916 0.108335733 0.00500000035
v -0.019768836 0.1084482 0.00500000035
v -0.0197963752 0.108448729 0.004699761
v -0.0139906891 0.1083371 0.00342754787
v -0.01988466 0.108450428 0.00439264439
v -0.0223212577 0.108497284 0.00638104323
v -0.02258504 0.108502351 0.00616672635
v -0.0227993168 0.108506471 0.00590289664
v -0.01421202 0.108341351 0.00181564689
v -0.0200377442 0.108453371 0.004097105
v -0.02025202 0.108457491 0.003833274
v -0.0145953074 0.10834872 0.000184731558
v -0.0205158014 0.108462565 0.003618958
v -0.0151483919 0.108359359 -0.00144165661
v -0.0208112858 0.108468249 0.00346585
v -0.0158745833 0.108373322 -0.00303765479
v -0.0211183466 0.10847415 0.00337754656
v -0.0167719666 0.108390577 -0.004576171
v -0.026402751 0.108575761 0.005928012
v -0.0229523964 0.108509421 0.005607357
v -0.0230406839 0.108511113 0.005300239
v -0.02141853 0.108479924 0.00335
v -0.0263176244 0.10857413 0.00500000035
v -0.023068225 0.108511642 0.00500000035
v -0.0230406839 0.108511113 0.004699761
v -0.0178330131 0.108410977 -0.00603021774
v -0.026402751 0.108575761 0.00407198863
v -0.0229523964 0.108509421 0.00439264439
v -0.0227993168 0.108506471 0.004097105
v -0.0266756378 0.108581014 0.00312271714
v -0.02258504 0.108502351 0.003833274
v -0.0223212577 0.108497284 0.003618958
v -0.0220257752 0.1084916 0.00346585
v -0.0217187144 0.1084857 0.00337754656
v -0.0271487944 0.108590111 0.00220923079
v -0.0190446 0.108434275 -0.00737436954
v -0.0278111044 0.108602844 0.0013937559
v -0.02979453 0.108640984 -0.004699761
v -0.0203885026 0.108460113 -0.00858618
v -0.0298828147 0.108642682 -0.00439264439
v -0.029766988 0.108640455 -0.005
v -0.0286264289 0.10861852 0.0007313229
v -0.0218422823 0.108488068 -0.00964742247
v -0.0300358944 0.108645625 -0.004097104
v -0.02979453 0.108640984 -0.00530023966
v -0.02338051 0.108517647 -0.0105449716
v -0.0298828147 0.108642682 -0.00560735539
v -0.0249762144 0.108548336 -0.0112712951
v -0.0300358944 0.108645625 -0.005902895
v -0.0266023036 0.1085796 -0.0118244821
v -0.0302501712 0.108649746 -0.00616672728
v -0.0295397472 0.108636081 0.00025807973
v -0.0302501712 0.108649746 -0.00383327343
v -0.0305139534 0.108654819 -0.00361895747
v -0.0282329172 0.108610958 -0.0122078443
v -0.0305139534 0.108654819 -0.00638104323
v -0.0308094379 0.1086605 -0.006534151
v -0.02984452 0.108641945 -0.01242921
v -0.0311164986 0.108666405 -0.006622453
v -0.0304888431 0.108654335 -1.48564577E-05
v -0.0308094379 0.1086605 -0.003465849
v -0.0311164986 0.108666405 -0.00337754562
v -0.0314166844 0.108672172 -9.99989E-05
v -0.0314166844 0.108672172 -0.0125
v -0.0314166844 0.108672172 -0.00665
v -0.0317168646 0.108677946 -0.006622453
v -0.0329888463 0.108702406 -0.01242921
v -0.0320239253 0.108683854 -0.006534151
v -0.0314166844 0.108672172 -0.00335000083
v -0.0346004479 0.108733393 -0.0122078443
v -0.03231941 0.108689532 -0.00638104323
v -0.032583192 0.108694606 -0.00616672728
v -0.0362310633 0.108764753 -0.0118244821
v -0.03279747 0.108698726 -0.005902895
v -0.03785715 0.108796015 -0.0112712951
v -0.03295055 0.108701669 -0.00560735539
v -0.0394528545 0.108826704 -0.0105449716
v -0.033038836 0.108703367 -0.00530023966
v -0.0409910828 0.108856276 -0.00964742247
v -0.033066377 0.1087039 -0.005
v -0.0424448624 0.10888423 -0.00858618
v -0.033038836 0.108703367 -0.004699761
v -0.0437887646 0.108910076 -0.00737436954
v -0.03295055 0.108701669 -0.00439264439
v -0.045000352 0.108933374 -0.00603021774
v -0.0460613966 0.108953774 -0.004576171
v -0.03279747 0.108698726 -0.004097104
v -0.04695878 0.10897103 -0.00303765479
v -0.032583192 0.108694606 -0.00383327343
v -0.03231941 0.108689532 -0.00361895747
v -0.0320239253 0.108683854 -0.003465849
v -0.0317168646 0.108677946 -0.00337754562
v -0.034206938 0.108725831 0.0007313229
v -0.03329362 0.10870827 0.00025807973
v -0.0323445238 0.108690016 -1.48564577E-05
v -0.0350222625 0.108741507 0.0013937559
v -0.0414148346 0.108864427 0.00335
v -0.03568457 0.10875424 0.00220923079
v -0.0361577272 0.108763337 0.00312271714
v -0.04171502 0.1088702 0.00337754656
v -0.04202208 0.1088761 0.00346585
v -0.047684975 0.108984992 -0.00144165661
v -0.04231756 0.108881786 0.003618958
v -0.0482380576 0.108995631 0.000184731558
v -0.0425813459 0.10888686 0.003833274
v -0.04111465 0.108858652 0.00337754656
v -0.0486213453 0.109003 0.00181564689
v -0.04279562 0.10889098 0.004097105
v -0.0429487042 0.108893923 0.00439264439
v -0.048842676 0.109007254 0.00342754787
v -0.04303699 0.108895622 0.004699761
v -0.04080759 0.108852752 0.00346585
v -0.04891345 0.109008618 0.00500000035
v -0.0430645272 0.108896151 0.00500000035
v -0.04303699 0.108895622 0.005300239
v -0.048842676 0.109007254 0.00657245331
v -0.0429487042 0.108893923 0.005607357
v -0.0405121073 0.108847067 0.003618958
v -0.040248327 0.108842 0.003833274
v -0.04003405 0.10883788 0.004097105
v -0.0486213453 0.109003 0.008184354
v -0.04279562 0.10889098 0.00590289664
v -0.0425813459 0.10888686 0.00616672635
v -0.0482380576 0.108995631 0.009815269
v -0.04231756 0.108881786 0.00638104323
v -0.0364306122 0.10876859 0.00407198863
v -0.03988097 0.108834937 0.00439264439
v -0.03979268 0.108833238 0.004699761
v -0.0365157425 0.108770221 0.00500000035
v -0.0397651419 0.108832709 0.00500000035
v -0.03979268 0.108833238 0.005300239
v -0.04202208 0.1088761 0.00653415127
v -0.04171502 0.1088702 0.00662245462
v -0.0364306122 0.10876859 0.005928012
v -0.03988097 0.108834937 0.005607357
v -0.04003405 0.10883788 0.00590289664
v -0.0414148346 0.108864427 0.006650001
v -0.0361577272 0.108763337 0.00687728357
v -0.03568457 0.10875424 0.00779077038
v -0.040248327 0.108842 0.00616672635
v -0.04111465 0.108858652 0.00662245462
v -0.0405121073 0.108847067 0.00638104323
v -0.04080759 0.108852752 0.00653415127
v -0.0141121689 0.09833758 0.00500000035
v -0.013919916 0.108335733 0.00500000035
v -0.0139906891 0.1083371 0.00657245331
v -0.0141089167 0.103338443 0.00680074934
v -0.014182942 0.09833894 0.00657245331
v -0.01421202 0.108341351 0.008184354
v -0.0144042727 0.0983432 0.008184354
v -0.0144007094 0.103344053 0.008649366
v -0.0145953074 0.10834872 0.009815269
v -0.01478756 0.09835057 0.009815269
v -0.014907375 0.1033538 0.0105143134
v -0.0151483919 0.108359359 0.0114416583
v -0.0153406449 0.0983612 0.0114416583
v -0.0156382862 0.10336785 0.0123591032
v -0.0158745833 0.108373322 0.0130376564
v -0.0160668362 0.098375164 0.0130376564
v -0.0165945627 0.103386238 0.0141440518
v -0.0167719666 0.108390577 0.0145761715
v -0.01696422 0.09839242 0.0145761715
v -0.017767977 0.103408806 0.0158286579
v -0.0178330131 0.108410977 0.0160302185
v -0.0191407278 0.103435196 0.01737437
v -0.0180252641 0.09841283 0.0160302185
v -0.0190446 0.108434275 0.01737437
v -0.0192368515 0.0984361246 0.01737437
v -0.0203885026 0.108460113 0.0185861811
v -0.0205807537 0.09846196 0.0185861811
v -0.0206861533 0.103464916 0.01874737
v -0.0218422823 0.108488068 0.0196474232
v -0.0220345333 0.09848992 0.0196474232
v -0.0223704465 0.103497304 0.0199210048
v -0.02338051 0.108517647 0.0205449723
v -0.0235727634 0.0985195 0.0205449723
v -0.0241550654 0.103531621 0.0208774582
v -0.0249762144 0.108548336 0.0212712958
v -0.0251684673 0.09855018 0.0212712958
v -0.0259995144 0.103567086 0.0216085054
v -0.0266023036 0.1085796 0.0218244828
v -0.0267945565 0.09858145 0.0218244828
v -0.0278641172 0.103602938 0.02211526
v -0.0282329172 0.108610958 0.022207845
v -0.02842517 0.0986128 0.022207845
v -0.0297123939 0.103638478 0.0224071071
v -0.02984452 0.108641945 0.0224292129
v -0.0315128081 0.1036731 0.0225
v -0.0300367735 0.0986437947 0.0224292129
v -0.0314166844 0.108672172 0.0225
v -0.0316089354 0.09867402 0.0225
v -0.0329888463 0.108702406 0.0224292129
v -0.0331810974 0.0987042561 0.0224292129
v -0.033313226 0.103707716 0.0224071071
v -0.0346004479 0.108733393 0.022207845
v -0.0347927 0.09873524 0.022207845
v -0.0351615 0.103743255 0.02211526
v -0.0362310633 0.108764753 0.0218244828
v -0.0364233144 0.0987665951 0.0218244828
v -0.0365603454 0.103770159 0.0217559841
v -0.03785715 0.108796015 0.0212712958
v -0.0380494036 0.0987978652 0.0212712958
v -0.0379532762 0.103796944 0.0212712958
v -0.0393239036 0.1038233 0.02065932
v -0.0394528545 0.108826704 0.0205449723
v -0.0396451056 0.09882855 0.0205449723
v -0.04065517 0.1038489 0.0199210048
v -0.0409910828 0.108856276 0.0196474232
v -0.0411833376 0.0988581255 0.0196474232
v -0.041929964 0.103873409 0.0190603267
v -0.0424448624 0.10888423 0.0185861811
v -0.0426371135 0.09888608 0.0185861811
v -0.04313179 0.103896521 0.0180843174
v -0.0437887646 0.108910076 0.01737437
v -0.0439810157 0.0989119262 0.01737437
v -0.044245448 0.103917934 0.0170029178
v -0.045000352 0.108933374 0.0160302185
v -0.045192603 0.09893522 0.0160302185
v -0.04525764 0.103937395 0.0158286579
v -0.0460613966 0.108953774 0.0145761715
v -0.04625365 0.0989556238 0.0145761715
v -0.046157524 0.103954695 0.0145761715
v -0.04693708 0.103969686 0.0132616
v -0.04695878 0.10897103 0.0130376564
v -0.0471510328 0.09897288 0.0130376564
v -0.0475912951 0.10398227 0.0119019309
v -0.047684975 0.108984992 0.0114416583
v -0.047877226 0.09898684 0.0114416583
v -0.04811824 0.1039924 0.0105143134
v -0.0482380576 0.108995631 0.009815269
v -0.04843031 0.09899747 0.009815269
v -0.0485188738 0.104000106 0.009115424
v -0.0486213453 0.109003 0.008184354
v -0.0488135964 0.09900485 0.008184354
v -0.0487968 0.104005449 0.00772091374
v -0.048842676 0.109007254 0.00657245331
v -0.04903493 0.0990091041 0.00657245331
v -0.0489578247 0.104008548 0.00634496845
v -0.04891345 0.109008618 0.00500000035
v -0.0491057038 0.09901047 0.00500000035
v -0.048842676 0.109007254 0.00342754787
v -0.0489166975 0.104007751 0.0031992523
v -0.04903493 0.0990091041 0.00342754787
v -0.0486213453 0.109003 0.00181564689
v -0.0488135964 0.09900485 0.00181564689
v -0.0486249067 0.10400214 0.00135063473
v -0.0482380576 0.108995631 0.000184731558
v -0.04843031 0.09899747 0.000184731558
v -0.04811824 0.1039924 -0.0005143136
v -0.047684975 0.108984992 -0.00144165661
v -0.047877226 0.09898684 -0.00144165661
v -0.04738733 0.103978343 -0.00235910155
v -0.04695878 0.10897103 -0.00303765479
v -0.0471510328 0.09897288 -0.00303765479
v -0.0464310572 0.103959955 -0.004144051
v -0.0460613966 0.108953774 -0.004576171
v -0.04625365 0.0989556238 -0.004576171
v -0.04525764 0.103937395 -0.005828657
v -0.045000352 0.108933374 -0.00603021774
v -0.043884892 0.103911 -0.00737436954
v -0.045192603 0.09893522 -0.00603021774
v -0.0437887646 0.108910076 -0.00737436954
v -0.0439810157 0.0989119262 -0.00737436954
v -0.0424448624 0.10888423 -0.00858618
v -0.0426371135 0.09888608 -0.00858618
v -0.0423394665 0.103881285 -0.00874737
v -0.0409910828 0.108856276 -0.00964742247
v -0.0411833376 0.0988581255 -0.00964742247
v -0.04065517 0.1038489 -0.009921004
v -0.0394528545 0.108826704 -0.0105449716
v -0.0396451056 0.09882855 -0.0105449716
v -0.03887055 0.10381458 -0.0108774574
v -0.03785715 0.108796015 -0.0112712951
v -0.0380494036 0.0987978652 -0.0112712951
v -0.0370261036 0.103779115 -0.0116085047
v -0.0362310633 0.108764753 -0.0118244821
v -0.0364233144 0.0987665951 -0.0118244821
v -0.0351615 0.103743255 -0.01211526
v -0.0346004479 0.108733393 -0.0122078443
v -0.0347927 0.09873524 -0.0122078443
v -0.033313226 0.103707716 -0.0124071063
v -0.0329888463 0.108702406 -0.01242921
v -0.0315128081 0.1036731 -0.0125
v -0.0331810974 0.0987042561 -0.01242921
v -0.0314166844 0.108672172 -0.0125
v -0.0316089354 0.09867402 -0.0125
v -0.02984452 0.108641945 -0.01242921
v -0.0300367735 0.0986437947 -0.01242921
v -0.0297123939 0.103638478 -0.0124071063
v -0.0282329172 0.108610958 -0.0122078443
v -0.02842517 0.0986128 -0.0122078443
v -0.0278641172 0.103602938 -0.01211526
v -0.0266023036 0.1085796 -0.0118244821
v -0.0267945565 0.09858145 -0.0118244821
v -0.02646527 0.103576042 -0.0117559815
v -0.0249762144 0.108548336 -0.0112712951
v -0.0251684673 0.09855018 -0.0112712951
v -0.02507234 0.103549257 -0.0112712951
v -0.0237017144 0.103522904 -0.0106593193
v -0.02338051 0.108517647 -0.0105449716
v -0.0235727634 0.0985195 -0.0105449716
v -0.0223704465 0.103497304 -0.009921004
v -0.0218422823 0.108488068 -0.00964742247
v -0.0220345333 0.09848992 -0.00964742247
v -0.0210956521 0.103472792 -0.009060326
v -0.0203885026 0.108460113 -0.00858618
v -0.0205807537 0.09846196 -0.00858618
v -0.0198938251 0.10344968 -0.008084317
v -0.0190446 0.108434275 -0.00737436954
v -0.0192368515 0.0984361246 -0.00737436954
v -0.0187801719 0.103428267 -0.007002917
v -0.0178330131 0.108410977 -0.00603021774
v -0.0180252641 0.09841283 -0.00603021774
v -0.017767977 0.103408806 -0.005828657
v -0.0167719666 0.108390577 -0.004576171
v -0.01696422 0.09839242 -0.004576171
v -0.0168680921 0.1033915 -0.004576171
v -0.0160885379 0.103376508 -0.00326159969
v -0.0158745833 0.108373322 -0.00303765479
v -0.0160668362 0.098375164 -0.00303765479
v -0.015434321 0.103363931 -0.0019019302
v -0.0151483919 0.108359359 -0.00144165661
v -0.0153406449 0.0983612 -0.00144165661
v -0.014907375 0.1033538 -0.0005143136
v -0.0145953074 0.10834872 0.000184731558
v -0.01478756 0.09835057 0.000184731558
v -0.0145067405 0.103346094 0.000884577632
v -0.01421202 0.108341351 0.00181564689
v -0.0144042727 0.0983432 0.00181564689
v -0.0142288171 0.103340752 0.002279087
v -0.0139906891 0.1083371 0.00342754787
v -0.014182942 0.09833894 0.00342754787
v -0.0140677914 0.103337653 0.00365503225
v -0.013919916 0.108335733 0.00500000035
v -0.0141121689 0.09833758 0.00500000035
v -0.03634998 0.09876519 0.00687728357
v -0.0413069054 0.0988605 0.00662245462
v -0.0409998447 0.0988546 0.00653415127
v -0.04070436 0.09884892 0.00638104323
v -0.040440578 0.09884384 0.00616672635
v -0.0402263 0.09883972 0.00590289664
v -0.04160709 0.09886628 0.006650001
v -0.036622867 0.09877043 0.005928012
v -0.04007322 0.09883678 0.005607357
v -0.039984934 0.09883508 0.005300239
v -0.0358768255 0.09875609 0.00779077038
v -0.0367079936 0.09877207 0.00500000035
v -0.039957393 0.09883455 0.00500000035
v -0.039984934 0.09883508 0.004699761
v -0.036622867 0.09877043 0.00407198863
v -0.04007322 0.09883678 0.00439264439
v -0.0402263 0.09883972 0.004097105
v -0.03634998 0.09876519 0.00312271714
v -0.040440578 0.09884384 0.003833274
v -0.04070436 0.09884892 0.003618958
v -0.0409998447 0.0988546 0.00346585
v -0.0413069054 0.0988605 0.00337754656
v -0.04160709 0.09886628 0.00335
v -0.0358768255 0.09875609 0.00220923079
v -0.0352145135 0.09874336 0.0013937559
v -0.0439810157 0.0989119262 -0.00737436954
v -0.045192603 0.09893522 -0.00603021774
v -0.04625365 0.0989556238 -0.004576171
v -0.0419072732 0.09887205 0.00337754656
v -0.0471510328 0.09897288 -0.00303765479
v -0.04221433 0.09887795 0.00346585
v -0.047877226 0.09898684 -0.00144165661
v -0.0425098166 0.09888364 0.003618958
v -0.04843031 0.09899747 0.000184731558
v -0.0427735969 0.0988887 0.003833274
v -0.0488135964 0.09900485 0.00181564689
v -0.0429878756 0.09889282 0.004097105
v -0.0431409553 0.0988957658 0.00439264439
v -0.04903493 0.0990091041 0.00342754787
v -0.04322924 0.0988974646 0.004699761
v -0.0491057038 0.09901047 0.00500000035
v -0.043256782 0.09889799 0.00500000035
v -0.04322924 0.0988974646 0.005300239
v -0.04903493 0.0990091041 0.00657245331
v -0.0431409553 0.0988957658 0.005607357
v -0.0488135964 0.09900485 0.008184354
v -0.0429878756 0.09889282 0.00590289664
v -0.0427735969 0.0988887 0.00616672635
v -0.04843031 0.09899747 0.009815269
v -0.0425098166 0.09888364 0.00638104323
v -0.047877226 0.09898684 0.0114416583
v -0.04221433 0.09887795 0.00653415127
v -0.0471510328 0.09897288 0.0130376564
v -0.0419072732 0.09887205 0.00662245462
v -0.04625365 0.0989556238 0.0145761715
v -0.045192603 0.09893522 0.0160302185
v -0.0439810157 0.0989119262 0.01737437
v -0.0352145135 0.09874336 0.008606246
v -0.033231087 0.09870522 0.0146997627
v -0.0426371135 0.09888608 0.0185861811
v -0.0331428 0.09870352 0.0143926442
v -0.03325863 0.0987057462 0.0150000006
v -0.03439919 0.09872767 0.009268678
v -0.0411833376 0.0988581255 0.0196474232
v -0.03298972 0.0987005755 0.0140971048
v -0.033231087 0.09870522 0.01530024
v -0.0396451056 0.09882855 0.0205449723
v -0.0331428 0.09870352 0.015607357
v -0.0380494036 0.0987978652 0.0212712958
v -0.03298972 0.0987005755 0.0159028955
v -0.0364233144 0.0987665951 0.0218244828
v -0.0327754468 0.0986964554 0.016166728
v -0.03348587 0.09871011 0.009741921
v -0.0327754468 0.0986964554 0.0138332751
v -0.0325116627 0.09869138 0.0136189582
v -0.0347927 0.09873524 0.022207845
v -0.0325116627 0.09869138 0.0163810439
v -0.03221618 0.0986857 0.0165341515
v -0.0331810974 0.0987042561 0.0224292129
v -0.03190912 0.0986797959 0.0166224539
v -0.0316089354 0.09867402 0.0225
v -0.0316089354 0.09867402 0.0166500024
v -0.0300367735 0.0986437947 0.0224292129
v -0.02842517 0.0986128 0.022207845
v -0.0325367749 0.0986918658 0.0100148581
v -0.03221618 0.0986857 0.01346585
v -0.03190912 0.0986797959 0.0133775473
v -0.0316089354 0.09867402 0.0101000005
v -0.0316089354 0.09867402 0.0133500006
v -0.03130875 0.09866825 0.0133775473
v -0.0267945565 0.09858145 0.0218244828
v -0.03100169 0.09866235 0.01346585
v -0.0251684673 0.09855018 0.0212712958
v -0.0307062045 0.09865666 0.0136189582
v -0.0235727634 0.0985195 0.0205449723
v -0.0304424241 0.0986515954 0.0138332751
v -0.0220345333 0.09848992 0.0196474232
v -0.0205807537 0.09846196 0.0185861811
v -0.0192368515 0.0984361246 0.01737437
v -0.03130875 0.09866825 0.0166224539
v -0.03100169 0.09866235 0.0165341515
v -0.0307062045 0.09865666 0.0163810439
v -0.0304424241 0.0986515954 0.016166728
v -0.0302281473 0.0986474752 0.0159028955
v -0.0300750677 0.0986445248 0.015607357
v -0.02998678 0.09864283 0.01530024
v -0.0299592391 0.0986423045 0.0150000006
v -0.02998678 0.09864283 0.0146997627
v -0.0300750677 0.0986445248 0.0143926442
v -0.0180252641 0.09841283 0.0160302185
v -0.01696422 0.09839242 0.0145761715
v -0.0302281473 0.0986474752 0.0140971048
v -0.0160668362 0.098375164 0.0130376564
v -0.0153406449 0.0983612 0.0114416583
v -0.0306810942 0.09865618 0.0100148581
v -0.0297319982 0.09863793 0.009741921
v -0.02881868 0.09862037 0.009268678
v -0.0280033555 0.098604694 0.008606246
v -0.0216107816 0.0984817743 0.006650001
v -0.0273410454 0.09859195 0.00779077038
v -0.02686789 0.09858286 0.00687728357
v -0.0213105977 0.098476 0.00662245462
v -0.0210035369 0.09847009 0.00653415127
v -0.0207080543 0.0984644145 0.00638104323
v -0.01478756 0.09835057 0.009815269
v -0.0204442721 0.09845934 0.00616672635
v -0.0219109654 0.09848754 0.00662245462
v -0.0144042727 0.0983432 0.008184354
v -0.0202299953 0.09845522 0.00590289664
v -0.0200769138 0.09845228 0.005607357
v -0.014182942 0.09833894 0.00657245331
v -0.0199886281 0.09845058 0.005300239
v -0.0222180262 0.09849345 0.00653415127
v -0.0141121689 0.09833758 0.00500000035
v -0.0225135088 0.09849913 0.00638104323
v -0.0227772929 0.0985042 0.00616672635
v -0.0229915679 0.09850832 0.00590289664
v -0.0199610889 0.09845005 0.00500000035
v -0.0265950039 0.09857761 0.005928012
v -0.02314465 0.0985112637 0.005607357
v -0.0232329369 0.09851296 0.005300239
v -0.0199886281 0.09845058 0.004699761
v -0.0265098773 0.09857597 0.00500000035
v -0.0232604779 0.09851349 0.00500000035
v -0.0232329369 0.09851296 0.004699761
v -0.0200769138 0.09845228 0.00439264439
v -0.0202299953 0.09845522 0.004097105
v -0.0265950039 0.09857761 0.00407198863
v -0.02314465 0.0985112637 0.00439264439
v -0.0229915679 0.09850832 0.004097105
v -0.0204442721 0.09845934 0.003833274
v -0.02686789 0.09858286 0.00312271714
v -0.014182942 0.09833894 0.00342754787
v -0.0144042727 0.0983432 0.00181564689
v -0.01478756 0.09835057 0.000184731558
v -0.0207080543 0.0984644145 0.003618958
v -0.0153406449 0.0983612 -0.00144165661
v -0.0210035369 0.09847009 0.00346585
v -0.0227772929 0.0985042 0.003833274
v -0.0160668362 0.098375164 -0.00303765479
v -0.0213105977 0.098476 0.00337754656
v -0.0225135088 0.09849913 0.003618958
v -0.0216107816 0.0984817743 0.00335
v -0.0222180262 0.09849345 0.00346585
v -0.0219109654 0.09848754 0.00337754656
v -0.0273410454 0.09859195 0.00220923079
v -0.0280033555 0.098604694 0.0013937559
v -0.02881868 0.09862037 0.0007313229
v -0.0316089354 0.09867402 -0.00335000083
v -0.0297319982 0.09863793 0.00025807973
v -0.0306810942 0.09865618 -1.48564577E-05
v -0.0316089354 0.09867402 -9.99989E-05
v -0.03190912 0.0986797959 -0.00337754562
v -0.03130875 0.09866825 -0.00337754562
v -0.0325367749 0.0986918658 -1.48564577E-05
v -0.03221618 0.0986857 -0.003465849
v -0.0325116627 0.09869138 -0.00361895747
v -0.03100169 0.09866235 -0.003465849
v -0.03348587 0.09871011 0.00025807973
v -0.0327754468 0.0986964554 -0.00383327343
v -0.03298972 0.0987005755 -0.004097104
v -0.03439919 0.09872767 0.0007313229
v -0.0331428 0.09870352 -0.00439264439
v -0.0307062045 0.09865666 -0.00361895747
v -0.0304424241 0.0986515954 -0.00383327343
v -0.0302281473 0.0986474752 -0.004097104
v -0.01696422 0.09839242 -0.004576171
v -0.033231087 0.09870522 -0.004699761
v -0.0426371135 0.09888608 -0.00858618
v -0.03325863 0.0987057462 -0.005
v -0.0411833376 0.0988581255 -0.00964742247
v -0.033231087 0.09870522 -0.00530023966
v -0.0396451056 0.09882855 -0.0105449716
v -0.0331428 0.09870352 -0.00560735539
v -0.0380494036 0.0987978652 -0.0112712951
v -0.03298972 0.0987005755 -0.005902895
v -0.0364233144 0.0987665951 -0.0118244821
v -0.0327754468 0.0986964554 -0.00616672728
v -0.0347927 0.09873524 -0.0122078443
v -0.0325116627 0.09869138 -0.00638104323
v -0.03221618 0.0986857 -0.006534151
v -0.0331810974 0.0987042561 -0.01242921
v -0.03190912 0.0986797959 -0.006622453
v -0.0316089354 0.09867402 -0.0125
v -0.0316089354 0.09867402 -0.00665
v -0.03130875 0.09866825 -0.006622453
v -0.0300367735 0.0986437947 -0.01242921
v -0.03100169 0.09866235 -0.006534151
v -0.02842517 0.0986128 -0.0122078443
v -0.0307062045 0.09865666 -0.00638104323
v -0.0304424241 0.0986515954 -0.00616672728
v -0.0267945565 0.09858145 -0.0118244821
v -0.0302281473 0.0986474752 -0.005902895
v -0.0251684673 0.09855018 -0.0112712951
v -0.0300750677 0.0986445248 -0.00560735539
v -0.0235727634 0.0985195 -0.0105449716
v -0.02998678 0.09864283 -0.00530023966
v -0.0220345333 0.09848992 -0.00964742247
v -0.0299592391 0.0986423045 -0.005
v -0.0205807537 0.09846196 -0.00858618
v -0.02998678 0.09864283 -0.004699761
v -0.0192368515 0.0984361246 -0.00737436954
v -0.0300750677 0.0986445248 -0.00439264439
v -0.0180252641 0.09841283 -0.00603021774
f 1 2 3
f 1 3 4
f 5 1 4
f 4 3 6
f 7 5 4
f 8 4 6
f 7 4 8
f 8 6 9
f 10 7 8
f 11 8 9
f 10 8 11
f 11 9 12
f 13 10 11
f 14 11 12
f 13 11 14
f 14 12 15
f 16 13 14
f 17 14 15
f 16 14 17
f 17 15 18
f 19 16 17
f 20 17 18
f 19 17 20
f 20 18 21
f 22 20 21
f 23 19 20
f 23 20 22
f 22 21 24
f 25 23 22
f 26 22 24
f 27 25 22
f 28 22 26
f 27 22 28
f 29 28 26
f 30 27 28
f 31 28 29
f 31 30 28
f 32 31 29
f 31 32 30
f 32 29 33
f 32 34 30
f 35 32 33
f 32 35 34
f 35 33 36
f 35 37 34
f 38 35 36
f 35 38 37
f 38 36 39
f 38 40 37
f 41 38 39
f 38 41 40
f 41 39 42
f 41 43 40
f 44 41 42
f 41 44 43
f 44 42 45
f 44 46 43
f 47 44 45
f 44 47 46
f 47 45 48
f 46 47 49
f 47 48 49
f 48 50 49
f 50 51 49
f 49 51 52
f 50 53 51
f 51 54 52
f 53 55 51
f 51 55 54
f 53 56 55
f 55 57 54
f 56 58 55
f 55 58 57
f 56 59 58
f 58 60 57
f 59 61 58
f 58 61 60
f 59 62 61
f 61 63 60
f 62 64 61
f 61 64 63
f 62 65 64
f 64 66 63
f 65 67 64
f 64 67 66
f 65 68 67
f 68 69 67
f 67 70 66
f 67 69 70
f 68 71 69
f 69 72 70
f 71 73 69
f 69 74 72
f 73 75 69
f 69 75 74
f 73 76 75
f 75 77 74
f 76 78 75
f 75 78 77
f 76 79 78
f 79 77 78
f 80 79 76
f 79 81 77
f 82 79 80
f 79 82 81
f 83 82 80
f 82 84 81
f 85 82 83
f 82 85 84
f 86 85 83
f 85 87 84
f 88 85 86
f 85 88 87
f 89 88 86
f 88 90 87
f 91 88 89
f 88 91 90
f 92 91 89
f 91 93 90
f 94 91 92
f 91 94 93
f 95 94 92
f 94 96 93
f 94 95 96
f 97 98 99
f 97 99 100
f 101 97 100
f 100 99 102
f 103 101 100
f 104 100 102
f 103 100 104
f 104 102 105
f 106 103 104
f 107 104 105
f 106 104 107
f 107 105 108
f 109 106 107
f 110 107 108
f 109 107 110
f 110 108 111
f 112 109 110
f 113 110 111
f 112 110 113
f 113 111 114
f 115 112 113
f 116 113 114
f 115 113 116
f 116 114 117
f 118 116 117
f 119 115 116
f 119 116 118
f 118 117 120
f 121 119 118
f 122 118 120
f 123 121 118
f 124 118 122
f 123 118 124
f 125 124 122
f 126 123 124
f 127 124 125
f 127 126 124
f 128 127 125
f 127 128 126
f 128 125 129
f 128 130 126
f 131 128 129
f 128 131 130
f 131 129 132
f 131 133 130
f 134 131 132
f 131 134 133
f 134 132 135
f 134 136 133
f 137 134 135
f 134 137 136
f 137 135 138
f 137 139 136
f 140 137 138
f 137 140 139
f 140 138 141
f 140 142 139
f 143 140 141
f 140 143 142
f 143 141 144
f 142 143 145
f 143 144 145
f 144 146 145
f 146 147 145
f 145 147 148
f 146 149 147
f 147 150 148
f 149 151 147
f 147 151 150
f 149 152 151
f 151 153 150
f 152 154 151
f 151 154 153
f 152 155 154
f 154 156 153
f 155 157 154
f 154 157 156
f 155 158 157
f 157 159 156
f 158 160 157
f 157 160 159
f 158 161 160
f 160 162 159
f 161 163 160
f 160 163 162
f 161 164 163
f 164 165 163
f 163 166 162
f 163 165 166
f 164 167 165
f 165 168 166
f 167 169 165
f 165 170 168
f 169 171 165
f 165 171 170
f 169 172 171
f 171 173 170
f 172 174 171
f 171 174 173
f 172 175 174
f 175 173 174
f 176 175 172
f 175 177 173
f 178 175 176
f 175 178 177
f 179 178 176
f 178 180 177
f 181 178 179
f 178 181 180
f 182 181 179
f 181 183 180
f 184 181 182
f 181 184 183
f 185 184 182
f 184 186 183
f 187 184 185
f 184 187 186
f 188 187 185
f 187 189 186
f 190 187 188
f 187 190 189
f 191 190 188
f 190 192 189
f 190 191 192
f 193 194 195
f 193 195 196
f 197 193 196
f 196 195 198
f 199 197 196
f 200 196 198
f 199 196 200
f 200 198 201
f 202 199 200
f 203 200 201
f 202 200 203
f 203 201 204
f 205 202 203
f 206 203 204
f 205 203 206
f 206 204 207
f 208 205 206
f 209 206 207
f 208 206 209
f 209 207 210
f 211 208 209
f 212 209 210
f 211 209 212
f 212 210 213
f 214 212 213
f 215 211 212
f 215 212 214
f 214 213 216
f 217 215 214
f 218 214 216
f 219 217 214
f 220 214 218
f 219 214 220
f 221 220 218
f 222 219 220
f 223 220 221
f 223 222 220
f 224 223 221
f 223 224 222
f 224 221 225
f 224 226 222
f 227 224 225
f 224 227 226
f 227 225 228
f 227 229 226
f 230 227 228
f 227 230 229
f 230 228 231
f 230 232 229
f 233 230 231
f 230 233 232
f 233 231 234
f 233 235 232
f 236 233 234
f 233 236 235
f 236 234 237
f 236 238 235
f 239 236 237
f 236 239 238
f 239 237 240
f 238 239 241
f 239 240 241
f 240 242 241
f 242 243 241
f 241 243 244
f 242 245 243
f 243 246 244
f 245 247 243
f 243 247 246
f 245 248 247
f 247 249 246
f 248 250 247
f 247 250 249
f 248 251 250
f 250 252 249
f 251 253 250
f 250 253 252
f 251 254 253
f 253 255 252
f 254 256 253
f 253 256 255
f 254 257 256
f 256 258 255
f 257 259 256
f 256 259 258
f 257 260 259
f 260 261 259
f 259 262 258
f 259 261 262
f 260 263 261
f 261 264 262
f 263 265 261
f 261 266 264
f 265 267 261
f 261 267 266
f 265 268 267
f 267 269 266
f 268 270 267
f 267 270 269
f 268 271 270
f 271 269 270
f 272 271 268
f 271 273 269
f 274 271 272
f 271 274 273
f 275 274 272
f 274 276 273
f 277 274 275
f 274 277 276
f 278 277 275
f 277 279 276
f 280 277 278
f 277 280 279
f 281 280 278
f 280 282 279
f 283 280 281
f 280 283 282
f 284 283 281
f 283 285 282
f 286 283 284
f 283 286 285
f 287 286 284
f 286 288 285
f 286 287 288
f 289 290 291
f 289 291 292
f 293 289 292
f 292 291 294
f 295 293 292
f 296 292 294
f 295 292 296
f 296 294 297
f 298 295 296
f 299 296 297
f 298 296 299
f 299 297 300
f 301 298 299
f 302 299 300
f 301 299 302
f 302 300 303
f 304 301 302
f 305 302 303
f 304 302 305
f 305 303 306
f 307 304 305
f 308 305 306
f 307 305 308
f 308 306 309
f 310 308 309
f 311 307 308
f 311 308 310
f 310 309 312
f 313 311 310
f 314 310 312
f 315 313 310
f 316 310 314
f 315 310 316
f 317 316 314
f 318 315 316
f 319 316 317
f 319 318 316
f 320 319 317
f 319 320 318
f 320 317 321
f 320 322 318
f 323 320 321
f 320 323 322
f 323 321 324
f 323 325 322
f 326 323 324
f 323 326 325
f 326 324 327
f 326 328 325
f 329 326 327
f 326 329 328
f 329 327 330
f 329 331 328
f 332 329 330
f 329 332 331
f 332 330 333
f 332 334 331
f 335 332 333
f 332 335 334
f 335 333 336
f 334 335 337
f 335 336 337
f 336 338 337
f 338 339 337
f 337 339 340
f 338 341 339
f 339 342 340
f 341 343 339
f 339 343 342
f 341 344 343
f 343 345 342
f 344 346 343
f 343 346 345
f 344 347 346
f 346 348 345
f 347 349 346
f 346 349 348
f 347 350 349
f 349 351 348
f 350 352 349
f 349 352 351
f 350 353 352
f 352 354 351
f 353 355 352
f 352 355 354
f 353 356 355
f 356 357 355
f 355 358 354
f 355 357 358
f 356 359 357
f 357 360 358
f 359 361 357
f 357 362 360
f 361 363 357
f 357 363 362
f 361 364 363
f 363 365 362
f 364 366 363
f 363 366 365
f 364 367 366
f 367 365 366
f 368 367 364
f 367 369 365
f 370 367 368
f 367 370 369
f 371 370 368
f 370 372 369
f 373 370 371
f 370 373 372
f 374 373 371
f 373 375 372
f 376 373 374
f 373 376 375
f 377 376 374
f 376 378 375
f 379 376 377
f 376 379 378
f 380 379 377
f 379 381 378
f 382 379 380
f 379 382 381
f 383 382 380
f 382 384 381
f 382 383 384
f 385 386 387
f 385 387 388
f 389 385 388
f 388 387 390
f 391 389 388
f 392 388 390
f 391 388 392
f 392 390 393
f 394 391 392
f 395 392 393
f 394 392 395
f 395 393 396
f 397 394 395
f 398 395 396
f 397 395 398
f 398 396 399
f 400 397 398
f 401 398 399
f 400 398 401
f 401 399 402
f 403 400 401
f 404 401 402
f 403 401 404
f 404 402 405
f 406 404 405
f 407 403 404
f 407 404 406
f 406 405 408
f 409 407 406
f 410 406 408
f 411 409 406
f 412 406 410
f 411 406 412
f 413 412 410
f 414 411 412
f 415 412 413
f 415 414 412
f 416 415 413
f 415 416 414
f 416 413 417
f 416 418 414
f 419 416 417
f 416 419 418
f 419 417 420
f 419 421 418
f 422 419 420
f 419 422 421
f 422 420 423
f 422 424 421
f 425 422 423
f 422 425 424
f 425 423 426
f 425 427 424
f 428 425 426
f 425 428 427
f 428 426 429
f 428 430 427
f 431 428 429
f 428 431 430
f 431 429 432
f 430 431 433
f 431 432 433
f 432 434 433
f 434 435 433
f 433 435 436
f 434 437 435
f 435 438 436
f 437 439 435
f 435 439 438
f 437 440 439
f 439 441 438
f 440 442 439
f 439 442 441
f 440 443 442
f 442 444 441
f 443 445 442
f 442 445 444
f 443 446 445
f 445 447 444
f 446 448 445
f 445 448 447
f 446 449 448
f 448 450 447
f 449 451 448
f 448 451 450
f 449 452 451
f 452 453 451
f 451 454 450
f 451 453 454
f 452 455 453
f 453 456 454
f 455 457 453
f 453 458 456
f 457 459 453
f 453 459 458
f 457 460 459
f 459 461 458
f 460 462 459
f 459 462 461
f 460 463 462
f 463 461 462
f 464 463 460
f 463 465 461
f 466 463 464
f 463 466 465
f 467 466 464
f 466 468 465
f 469 466 467
f 466 469 468
f 470 469 467
f 469 471 468
f 472 469 470
f 469 472 471
f 473 472 470
f 472 474 471
f 475 472 473
f 472 475 474
f 476 475 473
f 475 477 474
f 478 475 476
f 475 478 477
f 479 478 476
f 478 480 477
f 478 479 480
f 481 482 483
f 484 481 483
f 485 481 484
f 485 486 481
f 486 487 481
f 487 488 481
f 487 489 488
f 490 485 484
f 491 490 484
f 492 491 484
f 492 484 493
f 494 492 493
f 494 493 495
f 496 494 495
f 496 495 497
f 498 496 497
f 498 497 499
f 489 487 500
f 501 498 499
f 487 502 500
f 487 503 502
f 503 487 504
f 487 505 504
f 487 506 505
f 506 487 507
f 508 506 507
f 506 508 509
f 506 509 510
f 511 506 510
f 506 511 512
f 506 512 513
f 514 506 513
f 506 514 515
f 506 515 516
f 517 506 516
f 517 516 518
f 516 519 518
f 519 520 518
f 519 521 520
f 522 521 519
f 521 523 520
f 521 522 524
f 521 525 523
f 525 526 523
f 521 524 527
f 526 528 523
f 529 521 527
f 521 529 530
f 521 530 531
f 532 521 531
f 532 531 533
f 532 533 534
f 535 532 534
f 535 534 536
f 535 536 537
f 538 535 537
f 537 539 538
f 539 540 538
f 528 541 523
f 539 501 540
f 542 540 501
f 499 542 501
f 542 543 540
f 543 542 544
f 543 545 540
f 543 544 546
f 543 547 545
f 548 543 546
f 548 546 549
f 550 548 549
f 550 549 551
f 552 550 551
f 552 551 553
f 554 552 553
f 547 543 555
f 554 553 556
f 557 554 556
f 558 557 556
f 558 556 559
f 560 558 559
f 547 555 561
f 559 562 560
f 562 563 560
f 562 564 563
f 564 562 565
f 566 564 565
f 567 547 561
f 547 567 568
f 547 568 569
f 566 565 570
f 571 566 570
f 572 571 570
f 572 570 573
f 574 572 573
f 574 573 575
f 576 574 575
f 576 575 577
f 578 576 577
f 578 577 579
f 580 547 569
f 580 569 581
f 580 581 582
f 583 578 579
f 584 580 582
f 584 582 585
f 584 585 586
f 583 579 587
f 588 584 586
f 588 586 589
f 588 589 590
f 591 588 590
f 591 590 592
f 591 592 593
f 594 591 593
f 591 594 595
f 591 595 583
f 596 591 583
f 597 583 587
f 598 596 583
f 598 583 597
f 599 598 597
f 599 597 600
f 599 601 598
f 602 599 600
f 601 603 598
f 602 600 604
f 601 605 603
f 606 602 604
f 606 604 607
f 608 606 607
f 608 607 609
f 610 608 609
f 610 609 611
f 612 610 611
f 605 613 603
f 605 614 613
f 614 615 613
f 612 611 616
f 617 612 616
f 618 617 616
f 618 616 619
f 620 618 619
f 615 621 613
f 615 622 621
f 622 623 621
f 623 624 621
f 620 619 625
f 626 620 625
f 627 626 625
f 627 625 628
f 629 627 628
f 623 630 624
f 629 628 631
f 632 629 631
f 633 632 631
f 633 631 634
f 635 633 634
f 635 634 636
f 637 635 636
f 637 636 638
f 639 637 638
f 639 638 640
f 641 639 640
f 641 640 642
f 643 641 642
f 643 642 644
f 645 643 644
f 645 644 646
f 645 646 647
f 648 645 647
f 647 649 648
f 649 650 648
f 649 651 650
f 652 651 649
f 653 652 649
f 630 653 649
f 630 649 654
f 655 630 654
f 630 655 656
f 630 656 624
f 654 649 657
f 658 657 649
f 658 659 657
f 659 658 660
f 661 658 649
f 662 661 649
f 662 649 663
f 664 662 663
f 664 663 665
f 666 664 665
f 658 667 660
f 666 665 668
f 669 666 668
f 670 669 668
f 670 668 671
f 672 670 671
f 667 673 660
f 672 671 674
f 675 672 674
f 676 675 674
f 676 674 677
f 678 676 677
f 673 679 660
f 679 680 660
f 680 681 660
f 678 677 682
f 683 678 682
f 684 683 682
f 684 682 685
f 686 684 685
f 681 687 660
f 681 688 687
f 688 689 687
f 685 523 686
f 689 690 687
f 690 689 691
f 690 691 692
f 523 693 686
f 523 694 693
f 695 690 692
f 695 692 696
f 695 696 697
f 694 523 698
f 699 695 697
f 541 698 523
f 541 700 698
f 700 699 698
f 699 697 701
f 699 702 698
f 699 701 703
f 699 704 702
f 704 699 703
f 705 706 707
f 708 705 707
f 705 708 709
f 708 707 710
f 708 711 709
f 712 708 710
f 708 712 711
f 712 710 713
f 712 714 711
f 715 712 713
f 712 715 714
f 715 713 716
f 715 717 714
f 718 715 716
f 715 718 717
f 718 716 719
f 718 720 717
f 721 718 719
f 718 721 720
f 721 719 722
f 721 723 720
f 724 721 722
f 721 724 723
f 724 722 725
f 726 724 725
f 724 727 723
f 724 726 727
f 726 725 728
f 726 729 727
f 726 728 730
f 726 731 729
f 732 726 730
f 726 732 731
f 732 730 733
f 732 734 731
f 735 732 733
f 732 735 734
f 735 733 736
f 735 737 734
f 738 735 736
f 735 738 737
f 738 736 739
f 738 740 737
f 741 738 739
f 738 741 740
f 741 739 742
f 741 743 740
f 744 741 742
f 741 744 743
f 744 742 745
f 744 746 743
f 747 744 745
f 744 747 746
f 747 745 748
f 749 747 748
f 747 750 746
f 747 749 750
f 749 748 751
f 749 752 750
f 749 751 753
f 749 754 752
f 755 749 753
f 749 755 754
f 755 753 756
f 755 757 754
f 758 755 756
f 755 758 757
f 758 756 759
f 758 760 757
f 761 758 759
f 758 761 760
f 761 759 762
f 761 763 760
f 761 762 764
f 763 761 764
f 765 764 762
f 763 764 765
f 766 765 762
f 767 763 765
f 768 765 766
f 767 765 768
f 769 768 766
f 770 767 768
f 771 768 769
f 770 768 771
f 772 771 769
f 773 770 771
f 774 771 772
f 773 771 774
f 775 774 772
f 776 773 774
f 777 774 775
f 776 774 777
f 778 777 775
f 779 776 777
f 780 777 778
f 779 777 780
f 781 780 778
f 782 779 780
f 783 780 781
f 783 782 780
f 784 783 781
f 783 784 782
f 784 781 785
f 784 786 782
f 787 784 785
f 784 787 786
f 787 785 788
f 787 789 786
f 790 787 788
f 787 790 789
f 790 788 791
f 790 792 789
f 793 790 791
f 790 793 792
f 793 791 794
f 793 795 792
f 796 793 794
f 793 796 795
f 796 794 797
f 796 798 795
f 799 796 797
f 796 799 798
f 799 797 800
f 798 799 801
f 799 800 801
f 800 802 801
f 802 803 801
f 801 803 804
f 802 805 803
f 803 806 804
f 805 807 803
f 803 807 806
f 805 808 807
f 807 809 806
f 808 810 807
f 807 810 809
f 808 811 810
f 810 812 809
f 811 813 810
f 810 813 812
f 811 814 813
f 813 815 812
f 814 816 813
f 813 816 815
f 814 817 816
f 816 818 815
f 817 819 816
f 816 819 818
f 817 820 819
f 820 821 819
f 819 822 818
f 819 821 822
f 820 823 821
f 821 824 822
f 823 825 821
f 821 826 824
f 825 827 821
f 821 827 826
f 825 828 827
f 827 829 826
f 828 830 827
f 827 830 829
f 828 831 830
f 830 832 829
f 831 833 830
f 830 833 832
f 831 834 833
f 833 835 832
f 834 836 833
f 833 836 835
f 834 837 836
f 836 838 835
f 837 839 836
f 836 839 838
f 837 840 839
f 839 841 838
f 840 842 839
f 839 842 841
f 840 843 842
f 843 844 842
f 842 845 841
f 842 844 845
f 843 846 844
f 844 847 845
f 846 848 844
f 844 849 847
f 848 850 844
f 844 850 849
f 848 851 850
f 850 852 849
f 851 853 850
f 850 853 852
f 851 854 853
f 853 855 852
f 854 856 853
f 853 856 855
f 854 857 856
f 856 858 855
f 857 859 856
f 856 859 858
f 857 860 859
f 860 858 859
f 860 857 861
f 860 862 858
f 863 860 861
f 860 863 862
f 863 861 864
f 863 865 862
f 866 863 864
f 863 866 865
f 866 864 867
f 866 868 865
f 869 866 867
f 866 869 868
f 869 867 870
f 869 871 868
f 872 869 870
f 869 872 871
f 872 870 873
f 872 874 871
f 875 872 873
f 872 875 874
f 875 873 876
f 875 877 874
f 878 875 876
f 875 878 877
f 878 876 879
f 878 879 877
f 876 880 879
f 881 877 879
f 880 882 879
f 881 879 882
f 880 883 882
f 884 881 882
f 883 885 882
f 884 882 885
f 883 886 885
f 887 884 885
f 886 888 885
f 887 885 888
f 886 889 888
f 890 887 888
f 889 891 888
f 890 888 891
f 889 892 891
f 893 890 891
f 892 894 891
f 893 891 894
f 892 895 894
f 896 893 894
f 895 896 894
f 897 898 899
f 900 897 899
f 897 900 901
f 897 901 902
f 897 903 898
f 904 897 902
f 904 902 905
f 904 905 906
f 903 897 907
f 908 904 906
f 908 906 909
f 908 909 910
f 911 908 910
f 911 910 912
f 911 912 913
f 914 911 913
f 914 913 915
f 914 915 916
f 917 914 916
f 914 917 918
f 914 918 919
f 920 914 919
f 921 920 919
f 921 919 922
f 922 919 923
f 919 924 923
f 919 925 924
f 925 926 924
f 925 927 926
f 927 928 926
f 927 929 928
f 929 930 928
f 929 931 930
f 931 932 930
f 931 933 932
f 933 934 932
f 934 935 932
f 934 936 935
f 936 937 935
f 936 938 937
f 938 939 937
f 939 940 937
f 939 941 940
f 941 942 940
f 941 943 942
f 943 944 942
f 944 945 942
f 944 946 945
f 946 947 945
f 946 948 947
f 948 949 947
f 948 950 949
f 950 951 949
f 950 903 951
f 903 952 951
f 903 953 952
f 953 903 954
f 903 907 954
f 953 954 955
f 956 953 955
f 957 955 954
f 955 958 956
f 957 954 959
f 958 960 956
f 961 957 959
f 958 962 960
f 962 963 960
f 962 964 963
f 964 965 963
f 964 966 965
f 966 967 965
f 966 968 967
f 959 969 961
f 969 970 961
f 969 971 970
f 968 972 967
f 968 973 972
f 973 974 972
f 974 975 972
f 974 976 975
f 976 977 975
f 976 978 977
f 978 979 977
f 978 980 979
f 969 981 971
f 981 982 971
f 981 983 982
f 981 984 983
f 984 985 983
f 984 986 985
f 980 978 987
f 986 984 988
f 978 989 987
f 984 990 988
f 978 991 989
f 984 992 990
f 991 978 993
f 978 994 993
f 978 995 994
f 995 978 996
f 997 995 996
f 995 997 998
f 995 998 999
f 1000 995 999
f 995 1000 1001
f 995 1001 1002
f 1003 995 1002
f 995 1003 1004
f 995 1004 1005
f 1006 995 1005
f 1006 1005 1007
f 1005 1008 1007
f 1008 1009 1007
f 1008 984 1009
f 992 984 1008
f 984 1010 1009
f 984 1011 1010
f 1011 1012 1010
f 1012 1013 1010
f 1013 1014 1010
f 1014 1015 1010
f 1014 1016 1015
f 1016 1017 1015
f 1018 1010 1015
f 1010 1018 1019
f 1010 1019 1020
f 1021 1010 1020
f 1020 1022 1021
f 1017 1023 1015
f 1022 1024 1021
f 1022 1025 1024
f 1025 1026 1024
f 1026 1027 1024
f 1026 1028 1027
f 1017 1029 1023
f 1028 1030 1027
f 1031 1029 1017
f 1032 1031 1017
f 1033 1032 1017
f 1028 1034 1030
f 1033 1017 1035
f 1036 1033 1035
f 1037 1036 1035
f 1034 1038 1030
f 1037 1035 1039
f 1040 1037 1039
f 1041 1040 1039
f 1038 1042 1030
f 1030 1042 1043
f 1041 1039 1044
f 1045 1041 1044
f 1046 1045 1044
f 1030 1043 1047
f 1046 1044 1048
f 1049 1030 1047
f 1049 1047 1050
f 1047 1051 1050
f 1047 1052 1051
f 1052 1053 1051
f 1052 1054 1053
f 1055 1046 1048
f 1054 1056 1053
f 1054 1057 1056
f 1058 1055 1048
f 1057 1059 1056
f 1060 1058 1048
f 1061 1060 1048
f 1059 1061 1048
f 1062 1059 1048
f 1059 1063 1056
f 1059 1062 1063
f 1064 1056 1063
f 1065 1056 1064
f 1066 1065 1064
f 1065 1066 1067
f 1065 1067 1068
f 1069 1065 1068
f 1065 1070 1056
f 1069 1068 1071
f 1072 1069 1071
f 1073 1072 1071
f 1070 1074 1056
f 1073 1071 1075
f 1076 1073 1075
f 1077 1076 1075
f 1077 1075 1078
f 1079 1077 1078
f 1079 1078 921
f 1074 1080 1056
f 1056 1080 1081
f 1056 1081 1082
f 1083 1056 1082
f 1084 1079 921
f 1084 921 922
f 1084 922 1085
f 1086 1084 1085
f 1086 1085 1087
f 1088 1086 1087
f 1088 1087 1089
f 1090 1088 1089
f 1090 1089 1091
f 1092 1090 1091
f 1092 1091 1093
f 1094 1092 1093
f 1094 1093 1095
f 1096 1094 1095
f 1097 1096 1095
f 1097 1095 1098
f 1099 1097 1098
f 1099 1098 1100
f 1101 1099 1100
f 1102 1101 1100
f 1102 1100 1103
f 1104 1102 1103
f 1104 1103 1105
f 1106 1104 1105
f 1107 1106 1105
f 1107 1105 1108
f 1109 1107 1108
f 1109 1108 1110
f 1111 1109 1110
f 1111 1110 1112
f 1113 1111 1112
f 1113 1112 1114
f 1115 1113 1114
f 1115 1114 1116
f 1117 1115 1116
f 1117 1116 1118
f 1119 1117 1118
f 1119 1118 1120
f 1119 1120 1083
f 1082 1119 1083
