# ROS coordinates: X forward, Y left, Z up; units are metres.
o mesh
v -0.06519 -0.0291663557 0.122329563
v -0.06519 -0.029154364 0.122361757
v -0.06519 -0.0290040411 0.122348607
v -0.06519 -0.0290240459 0.122279994
v -0.06519 -0.02918598 0.122300215
v -0.06519 -0.02921192 0.122276261
v -0.06519 -0.0292418525 0.122259408
v -0.06519 -0.02906102 0.122216329
v -0.06519 -0.0292748362 0.122249804
v -0.06519 -0.0293100961 0.122248024
v -0.06519 -0.0296552442 0.1222302
v -0.06519 -0.0293447971 0.122254528
v -0.06519 -0.0291123837 0.122163586
v -0.06519 -0.0293761939 0.122268476
v -0.06519 -0.0294523872 0.122139268
v -0.06519 -0.0291730762 0.122125849
v -0.06519 -0.0293869376 0.122110553
v -0.06519 -0.029240977 0.122103542
v -0.06519 -0.0293143913 0.122098029
v -0.06519 -0.0298731811 0.122274071
v -0.06519 -0.029609479 0.122373052
v -0.06519 -0.02986011 0.1224235
v -0.06519 -0.0332779177 0.122571953
v -0.06519 -0.0332648456 0.122721381
v -0.06519 -0.03371328 0.122600488
v -0.06519 -0.03370674 0.122750342
v -0.06519 -0.0341494754 0.12261
v -0.06519 -0.0341494754 0.122760005
v -0.06519 -0.0363655761 0.122662067
v -0.06519 -0.0362128653 0.12261
v -0.06519 -0.0362128653 0.122760005
v -0.06519 -0.0363185219 0.122633427
v -0.06519 -0.0362663344 0.122615784
v -0.06519 -0.03640438 0.122699305
v -0.06519 -0.0362342522 0.122762315
v -0.06519 -0.03625513 0.122769371
v -0.06519 -0.0364924632 0.122804284
v -0.06519 -0.03627395 0.12278083
v -0.06519 -0.03628947 0.122795723
v -0.06519 -0.0365079828 0.122819178
v -0.06519 -0.0365268029 0.122830637
v -0.06519 -0.0363775566 0.1229007
v -0.06519 -0.03654768 0.122837692
v -0.06519 -0.0365690663 0.12284
v -0.06519 -0.03695 0.12284
v -0.06519 -0.0364163555 0.12293794
v -0.06519 -0.03695 0.122990005
v -0.06519 -0.0364634134 0.12296658
v -0.06519 -0.0365690663 0.122990005
v -0.06519 -0.0365155973 0.122984216
v -0.06485 -0.0364634134 0.12296658
v -0.06485 -0.0365155973 0.122984216
v -0.06485 -0.0365690663 0.122990005
v -0.06485 -0.03695 0.122990005
v -0.06485 -0.0364163555 0.12293794
v -0.06485 -0.03695 0.12284
v -0.06485 -0.0363775566 0.1229007
v -0.06485 -0.0365690663 0.12284
v -0.06485 -0.03654768 0.122837692
v -0.06485 -0.0365268029 0.122830637
v -0.06485 -0.03628947 0.122795723
v -0.06485 -0.0365079828 0.122819178
v -0.06485 -0.0364924632 0.122804284
v -0.06485 -0.03627395 0.12278083
v -0.06485 -0.03625513 0.122769371
v -0.06485 -0.03640438 0.122699305
v -0.06485 -0.0362342522 0.122762315
v -0.06485 -0.0362128653 0.122760005
v -0.06485 -0.0363655761 0.122662067
v -0.06485 -0.0341494754 0.122760005
v -0.06485 -0.0341494754 0.12261
v -0.06485 -0.03370674 0.122750342
v -0.06485 -0.0362128653 0.12261
v -0.06485 -0.0363185219 0.122633427
v -0.06485 -0.0362663344 0.122615784
v -0.06485 -0.03371328 0.122600488
v -0.06485 -0.0332648456 0.122721381
v -0.06485 -0.0332779177 0.122571953
v -0.06485 -0.02986011 0.1224235
v -0.06485 -0.0298731811 0.122274071
v -0.06485 -0.029609479 0.122373052
v -0.06485 -0.0293761939 0.122268476
v -0.06485 -0.0296552442 0.1222302
v -0.06485 -0.0293447971 0.122254528
v -0.06485 -0.0293100961 0.122248024
v -0.06485 -0.02906102 0.122216329
v -0.06485 -0.0292748362 0.122249804
v -0.06485 -0.0292418525 0.122259408
v -0.06485 -0.0291123837 0.122163586
v -0.06485 -0.0294523872 0.122139268
v -0.06485 -0.0291730762 0.122125849
v -0.06485 -0.0293869376 0.122110553
v -0.06485 -0.029240977 0.122103542
v -0.06485 -0.0293143913 0.122098029
v -0.06485 -0.0290240459 0.122279994
v -0.06485 -0.02921192 0.122276261
v -0.06485 -0.02918598 0.122300215
v -0.06485 -0.0291663557 0.122329563
v -0.06485 -0.0290040411 0.122348607
v -0.06485 -0.029154364 0.122361757
v -0.06502 -0.0351811722 0.12261
v -0.06485 -0.0362128653 0.12261
v -0.06519 -0.0362128653 0.12261
v -0.06519 -0.0341494754 0.12261
v -0.06485 -0.0341494754 0.12261
v -0.06502 -0.03371328 0.122600488
v -0.06519 -0.0341494754 0.12261
v -0.06519 -0.03371328 0.122600488
v -0.06519 -0.0332779177 0.122571953
v -0.06485 -0.0341494754 0.12261
v -0.06485 -0.0332779177 0.122571953
v -0.06485 -0.03371328 0.122600488
v -0.06502 -0.03157555 0.122423008
v -0.06519 -0.0332779177 0.122571953
v -0.06519 -0.0298731811 0.122274071
v -0.06485 -0.0298731811 0.122274071
v -0.06485 -0.0332779177 0.122571953
v -0.06502 -0.0296552442 0.1222302
v -0.06519 -0.0298731811 0.122274071
v -0.06519 -0.0296552442 0.1222302
v -0.06519 -0.0294523872 0.122139268
v -0.06485 -0.0298731811 0.122274071
v -0.06485 -0.0294523872 0.122139268
v -0.06485 -0.0296552442 0.1222302
v -0.06502 -0.0290792026 0.122355185
v -0.06485 -0.0290040411 0.122348607
v -0.06519 -0.0290040411 0.122348607
v -0.06519 -0.029154364 0.122361757
v -0.06485 -0.029154364 0.122361757
v -0.06502 -0.0291602537 0.122343175
v -0.06519 -0.029154364 0.122361757
v -0.06519 -0.0291663557 0.122329563
v -0.06485 -0.029154364 0.122361757
v -0.06485 -0.0291663557 0.122329563
v -0.06502 -0.02916871 0.122325137
v -0.06502 -0.0291796476 0.12230815
v -0.06519 -0.02918598 0.122300215
v -0.06485 -0.02918598 0.122300215
v -0.06502 -0.0291928351 0.122292727
v -0.06519 -0.02921192 0.122276261
v -0.06485 -0.02921192 0.122276261
v -0.06502 -0.0292079076 0.122279279
v -0.06502 -0.0292244144 0.122268118
v -0.06519 -0.0292418525 0.122259408
v -0.06485 -0.0292418525 0.122259408
v -0.06502 -0.02926027 0.122253038
v -0.06519 -0.0292748362 0.122249804
v -0.06485 -0.0292748362 0.122249804
v -0.06502 -0.0292898268 0.122248024
v -0.06519 -0.0293100961 0.122248024
v -0.06485 -0.0293100961 0.122248024
v -0.06502 -0.0293201953 0.122249044
v -0.06519 -0.0293447971 0.122254528
v -0.06485 -0.0293447971 0.122254528
v -0.06502 -0.0293495432 0.1222561
v -0.06519 -0.0293761939 0.122268476
v -0.06485 -0.0293761939 0.122268476
v -0.06502 -0.029609479 0.122373052
v -0.06519 -0.0293761939 0.122268476
v -0.06519 -0.029609479 0.122373052
v -0.06519 -0.02986011 0.1224235
v -0.06485 -0.0293761939 0.122268476
v -0.06485 -0.02986011 0.1224235
v -0.06485 -0.029609479 0.122373052
v -0.06502 -0.0315624774 0.122572444
v -0.06519 -0.02986011 0.1224235
v -0.06519 -0.0332648456 0.122721381
v -0.06485 -0.0332648456 0.122721381
v -0.06485 -0.02986011 0.1224235
v -0.06502 -0.03370674 0.122750342
v -0.06519 -0.0332648456 0.122721381
v -0.06519 -0.03370674 0.122750342
v -0.06519 -0.0341494754 0.122760005
v -0.06485 -0.0332648456 0.122721381
v -0.06485 -0.0341494754 0.122760005
v -0.06485 -0.03370674 0.122750342
v -0.06502 -0.0351811722 0.122760005
v -0.06519 -0.0341494754 0.122760005
v -0.06519 -0.0362128653 0.122760005
v -0.06485 -0.0362128653 0.122760005
v -0.06485 -0.0341494754 0.122760005
v -0.06502 -0.0362342522 0.122762315
v -0.06519 -0.0362128653 0.122760005
v -0.06519 -0.0362342522 0.122762315
v -0.06485 -0.0362128653 0.122760005
v -0.06519 -0.03625513 0.122769371
v -0.06485 -0.0362342522 0.122762315
v -0.06502 -0.03625513 0.122769371
v -0.06519 -0.03627395 0.12278083
v -0.06485 -0.03625513 0.122769371
v -0.06502 -0.03627395 0.12278083
v -0.06519 -0.03628947 0.122795723
v -0.06485 -0.03627395 0.12278083
v -0.06485 -0.03628947 0.122795723
v -0.06502 -0.0363335125 0.122848213
v -0.06519 -0.03628947 0.122795723
v -0.06519 -0.0363775566 0.1229007
v -0.06485 -0.0363775566 0.1229007
v -0.06485 -0.03628947 0.122795723
v -0.06502 -0.0364163555 0.12293794
v -0.06519 -0.0363775566 0.1229007
v -0.06519 -0.0364163555 0.12293794
v -0.06485 -0.0363775566 0.1229007
v -0.06519 -0.0364634134 0.12296658
v -0.06485 -0.0364163555 0.12293794
v -0.06502 -0.0364634134 0.12296658
v -0.06519 -0.0365155973 0.122984216
v -0.06485 -0.0364634134 0.12296658
v -0.06502 -0.0365155973 0.122984216
v -0.06519 -0.0365690663 0.122990005
v -0.06485 -0.0365155973 0.122984216
v -0.06485 -0.0365690663 0.122990005
v -0.06502 -0.036759533 0.122990005
v -0.06519 -0.0365690663 0.122990005
v -0.06519 -0.03695 0.122990005
v -0.06485 -0.03695 0.122990005
v -0.06485 -0.0365690663 0.122990005
v -0.06502 -0.03695 0.122915
v -0.06519 -0.03695 0.122990005
v -0.06519 -0.03695 0.12284
v -0.06485 -0.03695 0.12284
v -0.06485 -0.03695 0.122990005
v -0.06502 -0.036759533 0.12284
v -0.06519 -0.03695 0.12284
v -0.06519 -0.0365690663 0.12284
v -0.06485 -0.0365690663 0.12284
v -0.06485 -0.03695 0.12284
v -0.06502 -0.03654768 0.122837692
v -0.06519 -0.0365690663 0.12284
v -0.06519 -0.03654768 0.122837692
v -0.06485 -0.0365690663 0.12284
v -0.06519 -0.0365268029 0.122830637
v -0.06485 -0.03654768 0.122837692
v -0.06502 -0.0365268029 0.122830637
v -0.06519 -0.0365079828 0.122819178
v -0.06485 -0.0365268029 0.122830637
v -0.06502 -0.0365079828 0.122819178
v -0.06519 -0.0364924632 0.122804284
v -0.06485 -0.0365079828 0.122819178
v -0.06485 -0.0364924632 0.122804284
v -0.06485 -0.03640438 0.122699305
v -0.06502 -0.03644842 0.122751795
v -0.06519 -0.03640438 0.122699305
v -0.06485 -0.0364924632 0.122804284
v -0.06519 -0.0364924632 0.122804284
v -0.06485 -0.0362128653 0.12261
v -0.06502 -0.0362663344 0.122615784
v -0.06519 -0.0362128653 0.12261
v -0.06485 -0.0362663344 0.122615784
v -0.06519 -0.0362663344 0.122615784
v -0.06485 -0.0363185219 0.122633427
v -0.06502 -0.0363185219 0.122633427
v -0.06519 -0.0363185219 0.122633427
v -0.06485 -0.0363655761 0.122662067
v -0.06502 -0.0363655761 0.122662067
v -0.06519 -0.0363655761 0.122662067
v -0.06485 -0.03640438 0.122699305
v -0.06519 -0.03640438 0.122699305
v -0.06485 -0.0290040411 0.122348607
v -0.06502 -0.0290201269 0.122289643
v -0.06519 -0.0290040411 0.122348607
v -0.06485 -0.0290240459 0.122279994
v -0.06519 -0.0290240459 0.122279994
v -0.06502 -0.02904882 0.122233644
v -0.06485 -0.02906102 0.122216329
v -0.06519 -0.02906102 0.122216329
v -0.06502 -0.0290888883 0.12218453
v -0.06485 -0.0291123837 0.122163586
v -0.06519 -0.0291123837 0.122163586
v -0.06502 -0.0291376 0.122145437
v -0.06485 -0.0291730762 0.122125849
v -0.06519 -0.0291730762 0.122125849
v -0.06502 -0.0291730762 0.122125849
v -0.06502 -0.02921087 0.122111224
v -0.06485 -0.029240977 0.122103542
v -0.06519 -0.029240977 0.122103542
v -0.06502 -0.0292512625 0.122101665
v -0.06502 -0.02929321 0.12209776
v -0.06485 -0.0293143913 0.122098029
v -0.06519 -0.0293143913 0.122098029
v -0.06502 -0.0293354988 0.122099787
v -0.06485 -0.0293869376 0.122110553
v -0.06519 -0.0293869376 0.122110553
v -0.06502 -0.0293768756 0.1221077
v -0.06502 -0.02941617 0.122121088
v -0.06485 -0.0294523872 0.122139268
v -0.06519 -0.0294523872 0.122139268
f 1 2 3
f 1 3 4
f 5 1 4
f 6 5 4
f 7 6 4
f 7 4 8
f 9 7 8
f 10 9 8
f 10 8 11
f 12 10 11
f 8 13 11
f 14 12 11
f 13 15 11
f 13 16 15
f 16 17 15
f 16 18 17
f 18 19 17
f 14 11 20
f 21 14 20
f 22 21 20
f 22 20 23
f 24 22 23
f 24 23 25
f 26 24 25
f 26 25 27
f 28 26 27
f 29 28 27
f 29 27 30
f 28 29 31
f 32 29 30
f 32 30 33
f 29 34 31
f 34 35 31
f 34 36 35
f 34 37 36
f 37 38 36
f 37 39 38
f 39 37 40
f 39 40 41
f 42 39 41
f 42 41 43
f 42 43 44
f 45 42 44
f 42 45 46
f 45 47 46
f 47 48 46
f 47 49 48
f 49 50 48
f 51 52 53
f 51 53 54
f 55 51 54
f 55 54 56
f 57 55 56
f 57 56 58
f 59 57 58
f 59 60 57
f 60 61 57
f 60 62 61
f 62 63 61
f 63 64 61
f 63 65 64
f 63 66 65
f 66 67 65
f 66 68 67
f 66 69 68
f 69 70 68
f 69 71 70
f 71 72 70
f 71 69 73
f 69 74 73
f 74 75 73
f 71 76 72
f 76 77 72
f 76 78 77
f 78 79 77
f 78 80 79
f 80 81 79
f 80 82 81
f 80 83 82
f 83 84 82
f 83 85 84
f 83 86 85
f 86 87 85
f 86 88 87
f 86 83 89
f 83 90 89
f 90 91 89
f 90 92 91
f 92 93 91
f 92 94 93
f 86 95 88
f 95 96 88
f 95 97 96
f 97 95 98
f 95 99 98
f 99 100 98
f 101 102 103
f 101 103 104
f 102 101 105
f 105 101 104
f 106 107 108
f 106 108 109
f 107 106 110
f 111 106 109
f 106 112 110
f 106 111 112
f 113 114 115
f 116 113 115
f 113 117 114
f 117 113 116
f 118 119 120
f 118 120 121
f 119 118 122
f 123 118 121
f 118 124 122
f 118 123 124
f 125 126 127
f 125 127 128
f 126 125 129
f 129 125 128
f 130 131 132
f 131 130 133
f 130 134 133
f 130 132 135
f 134 130 135
f 136 135 132
f 134 135 136
f 137 136 132
f 138 134 136
f 139 136 137
f 138 136 139
f 140 139 137
f 141 138 139
f 142 139 140
f 142 141 139
f 143 142 140
f 142 143 141
f 143 140 144
f 143 145 141
f 146 143 144
f 143 146 145
f 146 144 147
f 146 148 145
f 149 146 147
f 146 149 148
f 149 147 150
f 149 151 148
f 152 149 150
f 149 152 151
f 152 150 153
f 152 154 151
f 155 152 153
f 152 155 154
f 155 153 156
f 155 157 154
f 157 155 156
f 158 159 160
f 158 160 161
f 159 158 162
f 163 158 161
f 158 164 162
f 158 163 164
f 165 166 167
f 168 165 167
f 165 169 166
f 169 165 168
f 170 171 172
f 170 172 173
f 171 170 174
f 175 170 173
f 170 176 174
f 170 175 176
f 177 178 179
f 180 177 179
f 177 181 178
f 181 177 180
f 182 183 184
f 183 182 185
f 182 184 186
f 182 187 185
f 188 182 186
f 182 188 187
f 188 186 189
f 188 190 187
f 191 188 189
f 188 191 190
f 191 189 192
f 191 193 190
f 194 191 192
f 191 194 193
f 195 196 197
f 198 195 197
f 195 199 196
f 199 195 198
f 200 201 202
f 201 200 203
f 200 202 204
f 200 205 203
f 206 200 204
f 200 206 205
f 206 204 207
f 206 208 205
f 209 206 207
f 206 209 208
f 209 207 210
f 209 211 208
f 212 209 210
f 209 212 211
f 213 214 215
f 216 213 215
f 213 217 214
f 217 213 216
f 218 219 220
f 221 218 220
f 218 222 219
f 222 218 221
f 223 224 225
f 226 223 225
f 223 227 224
f 227 223 226
f 228 229 230
f 229 228 231
f 228 230 232
f 228 233 231
f 234 228 232
f 228 234 233
f 234 232 235
f 234 236 233
f 237 234 235
f 234 237 236
f 237 235 238
f 237 239 236
f 240 237 238
f 237 240 239
f 241 242 243
f 244 242 241
f 242 245 243
f 242 244 245
f 246 247 248
f 247 246 249
f 247 250 248
f 247 249 251
f 247 252 250
f 252 247 251
f 252 253 250
f 252 251 254
f 252 255 253
f 255 252 254
f 255 256 253
f 255 254 257
f 255 258 256
f 258 255 257
f 259 260 261
f 260 259 262
f 260 263 261
f 264 260 262
f 260 264 263
f 264 262 265
f 264 266 263
f 267 264 265
f 264 267 266
f 267 265 268
f 267 269 266
f 270 267 268
f 267 270 269
f 270 268 271
f 270 272 269
f 273 270 271
f 270 273 272
f 273 271 274
f 273 274 272
f 271 275 274
f 272 274 276
f 275 277 274
f 274 277 276
f 275 278 277
f 278 276 277
f 278 275 279
f 278 280 276
f 281 278 279
f 278 281 280
f 281 279 282
f 281 283 280
f 284 281 282
f 281 284 283
f 284 282 285
f 284 285 283
f 282 286 285
f 287 283 285
f 286 287 285
