# ROS coordinates: X forward, Y left, Z up; units are metres.
o mesh
v -0.06444409 -0.131797165 0.119
v -0.0641350746 -0.132748216 0.119
v -0.0641350746 -0.132748216 0.118
v -0.0657574162 -0.127755165 0.119
v -0.06444409 -0.131797165 0.120000005
v -0.06707074 -0.12371318 0.120000005
v -0.06737975 -0.122762129 0.118
v -0.06707074 -0.12371318 0.119
v -0.06737975 -0.122762129 0.119
v -0.06887159 -0.121406794 0.11500001
v 0.0200000014 -0.09253067 0.11500001
v -0.06454535 -0.134721577 0.11500001
v 0.0379077569 -0.0898608 0.11500001
v 0.1446871 -0.06673784 0.11500001
v 0.140360862 -0.05342305 0.11500001
v 0.0300000012 -0.08928147 0.11500001
v 0.020524174 -0.0898608 0.11500001
v 0.0200000014 -0.045 0.11500001
v 0.0300000012 -0.0550000034 0.11500001
v 0.0286189578 -0.0509028956 0.11500001
v 0.0284658521 -0.05060736 0.11500001
v 0.0288332775 -0.05116673 0.11500001
v 0.0290971063 -0.0513810478 0.11500001
v 0.0293926448 -0.0515341535 0.11500001
v 0.0296997633 -0.0516224578 0.11500001
v 0.0300000012 -0.05165 0.11500001
v 0.0283775479 -0.0503002442 0.11500001
v 0.0283500012 -0.0500000045 0.11500001
v 0.0283775479 -0.0496997647 0.11500001
v 0.0284658521 -0.049392648 0.11500001
v 0.0286189578 -0.0490971059 0.11500001
v 0.030300241 -0.0516224578 0.11500001
v 0.0288332775 -0.0488332734 0.11500001
v 0.0306073576 -0.0515341535 0.11500001
v 0.0290971063 -0.0486189574 0.11500001
v 0.0293926448 -0.048465848 0.11500001
v 0.0296997633 -0.04837755 0.11500001
v 0.0300000012 -0.0483500026 0.11500001
v 0.030300241 -0.04837755 0.11500001
v 0.0309028961 -0.0513810478 0.11500001
v 0.0500000045 -0.045 0.11500001
v 0.044699762 -0.04837755 0.11500001
v 0.045 -0.0483500026 0.11500001
v 0.04530024 -0.04837755 0.11500001
v 0.04560736 -0.048465848 0.11500001
v 0.0443926454 -0.048465848 0.11500001
v 0.0306073576 -0.048465848 0.11500001
v 0.0459028967 -0.0486189574 0.11500001
v 0.0440971032 -0.0486189574 0.11500001
v 0.0309028961 -0.0486189574 0.11500001
v 0.0311667267 -0.0488332734 0.11500001
v 0.0438332781 -0.0488332734 0.11500001
v 0.0313810445 -0.0490971059 0.11500001
v 0.04361896 -0.0490971059 0.11500001
v 0.03153415 -0.049392648 0.11500001
v 0.04346585 -0.049392648 0.11500001
v 0.0316224545 -0.0496997647 0.11500001
v 0.04337755 -0.0496997647 0.11500001
v 0.03165 -0.0500000045 0.11500001
v 0.0433500037 -0.0500000045 0.11500001
v 0.0316224545 -0.0503002442 0.11500001
v 0.04337755 -0.0503002442 0.11500001
v 0.03153415 -0.05060736 0.11500001
v 0.04346585 -0.05060736 0.11500001
v 0.0313810445 -0.0509028956 0.11500001
v 0.04361896 -0.0509028956 0.11500001
v 0.0311667267 -0.05116673 0.11500001
v 0.0438332781 -0.05116673 0.11500001
v 0.0440971032 -0.0513810478 0.11500001
v 0.0443926454 -0.0515341535 0.11500001
v 0.044699762 -0.0516224578 0.11500001
v 0.0500000045 -0.0550000034 0.11500001
v 0.045 -0.05165 0.11500001
v 0.04530024 -0.0516224578 0.11500001
v 0.04560736 -0.0515341535 0.11500001
v 0.0459028967 -0.0513810478 0.11500001
v 0.0461667255 -0.05116673 0.11500001
v 0.04638105 -0.0509028956 0.11500001
v 0.04653416 -0.05060736 0.11500001
v 0.0466224551 -0.0503002442 0.11500001
v 0.0466500036 -0.0500000045 0.11500001
v 0.0466224551 -0.0496997647 0.11500001
v 0.04653416 -0.049392648 0.11500001
v 0.04638105 -0.0490971059 0.11500001
v 0.0461667255 -0.0488332734 0.11500001
v 0.0200000014 -0.09253067 0.118
v 0.0200000014 -0.09253067 0.11500001
v -0.06887159 -0.121406794 0.11500001
v -0.06887159 -0.121406794 0.120000005
v 0.0300000012 -0.08928147 0.118
v 0.140360862 -0.05342305 0.120000005
v 0.0357446373 -0.08741491 0.117500007
v 0.140360862 -0.05342305 0.11500001
v 0.0300000012 -0.08928147 0.11500001
v 0.1438373 -0.06412244 0.120000005
v -0.06444409 -0.131797165 0.120000005
v 0.1446871 -0.06673784 0.120000005
v -0.06454535 -0.134721577 0.120000005
v -0.06887159 -0.121406794 0.120000005
v -0.06707074 -0.12371318 0.120000005
v 0.140360862 -0.05342305 0.120000005
v 0.14121066 -0.0560384579 0.120000005
v 0.0300000012 -0.08928147 0.118
v 0.0300000012 -0.0550000034 0.118
v 0.0200000014 -0.09253067 0.118
v 0.0200000014 -0.045 0.118
v 0.0284658521 -0.05060736 0.118
v 0.0286189578 -0.0509028956 0.118
v 0.0283775479 -0.0503002442 0.118
v 0.0283500012 -0.0500000045 0.118
v 0.0283775479 -0.0496997647 0.118
v 0.0284658521 -0.049392648 0.118
v 0.0286189578 -0.0490971059 0.118
v 0.0288332775 -0.05116673 0.118
v 0.0288332775 -0.0488332734 0.118
v 0.0290971063 -0.0513810478 0.118
v 0.0290971063 -0.0486189574 0.118
v 0.0293926448 -0.0515341535 0.118
v 0.0293926448 -0.048465848 0.118
v 0.0296997633 -0.0516224578 0.118
v 0.0300000012 -0.05165 0.118
v 0.030300241 -0.0516224578 0.118
v 0.0306073576 -0.0515341535 0.118
v 0.0309028961 -0.0513810478 0.118
v 0.0296997633 -0.04837755 0.118
v 0.0300000012 -0.0483500026 0.118
v 0.030300241 -0.04837755 0.118
v 0.0311667267 -0.05116673 0.118
v 0.0500000045 -0.045 0.118
v 0.0313810445 -0.0509028956 0.118
v 0.0306073576 -0.048465848 0.118
v 0.04361896 -0.0509028956 0.118
v 0.03153415 -0.05060736 0.118
v 0.04346585 -0.05060736 0.118
v 0.0316224545 -0.0503002442 0.118
v 0.04337755 -0.0503002442 0.118
v 0.03165 -0.0500000045 0.118
v 0.0433500037 -0.0500000045 0.118
v 0.0316224545 -0.0496997647 0.118
v 0.04337755 -0.0496997647 0.118
v 0.03153415 -0.049392648 0.118
v 0.04346585 -0.049392648 0.118
v 0.0313810445 -0.0490971059 0.118
v 0.04361896 -0.0490971059 0.118
v 0.0311667267 -0.0488332734 0.118
v 0.0438332781 -0.0488332734 0.118
v 0.0309028961 -0.0486189574 0.118
v 0.0440971032 -0.0486189574 0.118
v 0.0443926454 -0.048465848 0.118
v 0.044699762 -0.04837755 0.118
v 0.045 -0.0483500026 0.118
v 0.04530024 -0.04837755 0.118
v 0.04560736 -0.048465848 0.118
v 0.0459028967 -0.0486189574 0.118
v 0.0461667255 -0.0488332734 0.118
v 0.04638105 -0.0490971059 0.118
v 0.04653416 -0.049392648 0.118
v 0.0466224551 -0.0496997647 0.118
v 0.0466500036 -0.0500000045 0.118
v 0.0500000045 -0.0550000034 0.118
v 0.0466224551 -0.0503002442 0.118
v 0.04653416 -0.05060736 0.118
v 0.04638105 -0.0509028956 0.118
v 0.0461667255 -0.05116673 0.118
v 0.0459028967 -0.0513810478 0.118
v 0.04560736 -0.0515341535 0.118
v 0.04530024 -0.0516224578 0.118
v 0.045 -0.05165 0.118
v 0.044699762 -0.0516224578 0.118
v 0.0443926454 -0.0515341535 0.118
v 0.0440971032 -0.0513810478 0.118
v 0.0438332781 -0.05116673 0.118
v 0.0300000012 -0.05165 0.118
v 0.0300000012 -0.05165 0.11500001
v 0.0296997633 -0.0516224578 0.11500001
v 0.0296559185 -0.05161373 0.1165
v 0.0296997633 -0.0516224578 0.118
v 0.0293926448 -0.0515341535 0.11500001
v 0.0293926448 -0.0515341535 0.118
v 0.0293061435 -0.0514970161 0.1165
v 0.0290971063 -0.0513810478 0.11500001
v 0.0290971063 -0.0513810478 0.118
v 0.0289790146 -0.0512961857 0.1165
v 0.0288332775 -0.05116673 0.11500001
v 0.0288332775 -0.05116673 0.118
v 0.02870382 -0.0510209948 0.1165
v 0.0286189578 -0.0509028956 0.11500001
v 0.0286189578 -0.0509028956 0.118
v 0.0285029821 -0.0506938621 0.1165
v 0.0284658521 -0.05060736 0.11500001
v 0.0284658521 -0.05060736 0.118
v 0.0283862762 -0.0503440872 0.1165
v 0.0283775479 -0.0503002442 0.11500001
v 0.0283500012 -0.0500000045 0.1165
v 0.0283775479 -0.0503002442 0.118
v 0.0283500012 -0.0500000045 0.11500001
v 0.0283500012 -0.0500000045 0.118
v 0.0283775479 -0.0496997647 0.11500001
v 0.0283775479 -0.0496997647 0.118
v 0.0283862762 -0.04965592 0.1165
v 0.0284658521 -0.049392648 0.11500001
v 0.0284658521 -0.049392648 0.118
v 0.0284658521 -0.049392648 0.1165
v 0.0285931658 -0.0491378456 0.1165
v 0.0286189578 -0.0490971059 0.11500001
v 0.0286189578 -0.0490971059 0.118
v 0.0287663378 -0.0489043 0.1165
v 0.0288332775 -0.0488332734 0.11500001
v 0.0288332775 -0.0488332734 0.118
v 0.0289790146 -0.04870382 0.1165
v 0.0290971063 -0.0486189574 0.11500001
v 0.0290971063 -0.0486189574 0.118
v 0.0292210486 -0.0485454462 0.1165
v 0.0293926448 -0.048465848 0.11500001
v 0.0293926448 -0.048465848 0.118
v 0.0294800811 -0.04843406 0.1165
v 0.0296997633 -0.04837755 0.11500001
v 0.0296997633 -0.04837755 0.118
v 0.02974346 -0.048370067 0.1165
v 0.0300000012 -0.0483500026 0.11500001
v 0.0300000012 -0.0483500026 0.118
v 0.030300241 -0.04837755 0.11500001
v 0.0303440839 -0.0483862758 0.1165
v 0.030300241 -0.04837755 0.118
v 0.0306073576 -0.048465848 0.11500001
v 0.0306073576 -0.048465848 0.118
v 0.0306938589 -0.0485029854 0.1165
v 0.0309028961 -0.0486189574 0.11500001
v 0.0309028961 -0.0486189574 0.118
v 0.0310209878 -0.04870382 0.1165
v 0.0311667267 -0.0488332734 0.11500001
v 0.0311667267 -0.0488332734 0.118
v 0.0312961824 -0.0489790142 0.1165
v 0.0313810445 -0.0490971059 0.11500001
v 0.0313810445 -0.0490971059 0.118
v 0.03149702 -0.04930614 0.1165
v 0.03153415 -0.049392648 0.11500001
v 0.03153415 -0.049392648 0.118
v 0.0316137262 -0.04965592 0.1165
v 0.0316224545 -0.0496997647 0.11500001
v 0.03165 -0.0500000045 0.1165
v 0.0316224545 -0.0496997647 0.118
v 0.03165 -0.0500000045 0.11500001
v 0.03165 -0.0500000045 0.118
v 0.0316224545 -0.0503002442 0.11500001
v 0.0316224545 -0.0503002442 0.118
v 0.0316137262 -0.0503440872 0.1165
v 0.03153415 -0.05060736 0.11500001
v 0.03153415 -0.05060736 0.118
v 0.03153415 -0.05060736 0.1165
v 0.03140684 -0.0508621559 0.1165
v 0.0313810445 -0.0509028956 0.11500001
v 0.0313810445 -0.0509028956 0.118
v 0.0312336646 -0.05109571 0.1165
v 0.0311667267 -0.05116673 0.11500001
v 0.0311667267 -0.05116673 0.118
v 0.0310209878 -0.0512961857 0.1165
v 0.0309028961 -0.0513810478 0.11500001
v 0.0309028961 -0.0513810478 0.118
v 0.0307789538 -0.0514545627 0.1165
v 0.0306073576 -0.0515341535 0.11500001
v 0.0306073576 -0.0515341535 0.118
v 0.0305199232 -0.0515659451 0.1165
v 0.030300241 -0.0516224578 0.11500001
v 0.030300241 -0.0516224578 0.118
v 0.0302565452 -0.0516299345 0.1165
v 0.0300000012 -0.05165 0.11500001
v 0.0300000012 -0.05165 0.118
v 0.045 -0.05165 0.118
v 0.045 -0.05165 0.11500001
v 0.044699762 -0.0516224578 0.11500001
v 0.04465592 -0.05161373 0.1165
v 0.044699762 -0.0516224578 0.118
v 0.0443926454 -0.0515341535 0.11500001
v 0.0443926454 -0.0515341535 0.118
v 0.0443061441 -0.0514970161 0.1165
v 0.0440971032 -0.0513810478 0.11500001
v 0.0440971032 -0.0513810478 0.118
v 0.04397901 -0.0512961857 0.1165
v 0.0438332781 -0.05116673 0.11500001
v 0.0438332781 -0.05116673 0.118
v 0.04370382 -0.0510209948 0.1165
v 0.04361896 -0.0509028956 0.11500001
v 0.04361896 -0.0509028956 0.118
v 0.0435029864 -0.0506938621 0.1165
v 0.04346585 -0.05060736 0.11500001
v 0.04346585 -0.05060736 0.118
v 0.0433862768 -0.0503440872 0.1165
v 0.04337755 -0.0503002442 0.11500001
v 0.0433500037 -0.0500000045 0.1165
v 0.04337755 -0.0503002442 0.118
v 0.0433500037 -0.0500000045 0.11500001
v 0.0433500037 -0.0500000045 0.118
v 0.04337755 -0.0496997647 0.11500001
v 0.04337755 -0.0496997647 0.118
v 0.0433862768 -0.04965592 0.1165
v 0.04346585 -0.049392648 0.11500001
v 0.04346585 -0.049392648 0.118
v 0.04346585 -0.049392648 0.1165
v 0.0435931645 -0.0491378456 0.1165
v 0.04361896 -0.0490971059 0.11500001
v 0.04361896 -0.0490971059 0.118
v 0.0437663421 -0.0489043 0.1165
v 0.0438332781 -0.0488332734 0.11500001
v 0.0438332781 -0.0488332734 0.118
v 0.04397901 -0.04870382 0.1165
v 0.0440971032 -0.0486189574 0.11500001
v 0.0440971032 -0.0486189574 0.118
v 0.04422105 -0.0485454462 0.1165
v 0.0443926454 -0.048465848 0.11500001
v 0.0443926454 -0.048465848 0.118
v 0.04448008 -0.04843406 0.1165
v 0.044699762 -0.04837755 0.11500001
v 0.044699762 -0.04837755 0.118
v 0.04474346 -0.048370067 0.1165
v 0.045 -0.0483500026 0.11500001
v 0.045 -0.0483500026 0.118
v 0.04530024 -0.04837755 0.11500001
v 0.0453440845 -0.0483862758 0.1165
v 0.04530024 -0.04837755 0.118
v 0.04560736 -0.048465848 0.11500001
v 0.04560736 -0.048465848 0.118
v 0.04569386 -0.0485029854 0.1165
v 0.0459028967 -0.0486189574 0.11500001
v 0.0459028967 -0.0486189574 0.118
v 0.0460209921 -0.04870382 0.1165
v 0.0461667255 -0.0488332734 0.11500001
v 0.0461667255 -0.0488332734 0.118
v 0.0462961867 -0.0489790142 0.1165
v 0.04638105 -0.0490971059 0.11500001
v 0.04638105 -0.0490971059 0.118
v 0.04649702 -0.04930614 0.1165
v 0.04653416 -0.049392648 0.11500001
v 0.04653416 -0.049392648 0.118
v 0.04661373 -0.04965592 0.1165
v 0.0466224551 -0.0496997647 0.11500001
v 0.0466500036 -0.0500000045 0.1165
v 0.0466224551 -0.0496997647 0.118
v 0.0466500036 -0.0500000045 0.11500001
v 0.0466500036 -0.0500000045 0.118
v 0.0466224551 -0.0503002442 0.11500001
v 0.0466224551 -0.0503002442 0.118
v 0.04661373 -0.0503440872 0.1165
v 0.04653416 -0.05060736 0.11500001
v 0.04653416 -0.05060736 0.118
v 0.04653416 -0.05060736 0.1165
v 0.04640684 -0.0508621559 0.1165
v 0.04638105 -0.0509028956 0.11500001
v 0.04638105 -0.0509028956 0.118
v 0.0462336652 -0.05109571 0.1165
v 0.0461667255 -0.05116673 0.11500001
v 0.0461667255 -0.05116673 0.118
v 0.0460209921 -0.0512961857 0.1165
v 0.0459028967 -0.0513810478 0.11500001
v 0.0459028967 -0.0513810478 0.118
v 0.0457789525 -0.0514545627 0.1165
v 0.04560736 -0.0515341535 0.11500001
v 0.04560736 -0.0515341535 0.118
v 0.0455199219 -0.0515659451 0.1165
v 0.04530024 -0.0516224578 0.11500001
v 0.04530024 -0.0516224578 0.118
v 0.0452565439 -0.0516299345 0.1165
v 0.045 -0.05165 0.11500001
v 0.045 -0.05165 0.118
v 0.14121066 -0.0560384579 0.120000005
v 0.14121066 -0.0560384579 0.119
v 0.14090164 -0.0550874025 0.119
v 0.140360862 -0.05342305 0.120000005
v 0.14090164 -0.0550874025 0.118
v 0.140360862 -0.05342305 0.11500001
v 0.142523974 -0.0600804426 0.117500007
v 0.1446871 -0.06673784 0.11500001
v 0.144146323 -0.06507349 0.118
v 0.1446871 -0.06673784 0.120000005
v 0.144146323 -0.06507349 0.119
v 0.1438373 -0.06412244 0.120000005
v 0.1438373 -0.06412244 0.119
v -0.06670847 -0.128064185 0.117500007
v -0.06454535 -0.134721577 0.11500001
v -0.06454535 -0.134721577 0.120000005
v -0.06887159 -0.121406794 0.120000005
v -0.06887159 -0.121406794 0.11500001
v 0.0300000012 -0.07214074 0.1165
v 0.0300000012 -0.08928147 0.118
v 0.0300000012 -0.08928147 0.11500001
v 0.0300000012 -0.0550000034 0.11500001
v 0.0300000012 -0.0550000034 0.118
v 0.0400000028 -0.0550000034 0.1165
v 0.0300000012 -0.0550000034 0.118
v 0.0300000012 -0.0550000034 0.11500001
v 0.0500000045 -0.0550000034 0.11500001
v 0.0500000045 -0.0550000034 0.118
v 0.0500000045 -0.0500000045 0.1165
v 0.0500000045 -0.0550000034 0.118
v 0.0500000045 -0.0550000034 0.11500001
v 0.0500000045 -0.045 0.11500001
v 0.0500000045 -0.045 0.118
v 0.035 -0.045 0.1165
v 0.0500000045 -0.045 0.118
v 0.0500000045 -0.045 0.11500001
v 0.0200000014 -0.045 0.11500001
v 0.0200000014 -0.045 0.118
v 0.0200000014 -0.0687653348 0.1165
v 0.0200000014 -0.045 0.118
v 0.0200000014 -0.045 0.11500001
v 0.0200000014 -0.09253067 0.11500001
v 0.0200000014 -0.09253067 0.118
v 0.0383832827 -0.09391781 0.118
v 0.14090164 -0.0550874025 0.118
v -0.06737975 -0.122762129 0.118
v -0.0641350746 -0.132748216 0.118
v 0.144146323 -0.06507349 0.118
v 0.03676094 -0.0889247656 0.118500009
v 0.14090164 -0.0550874025 0.119
v -0.06737975 -0.122762129 0.119
v -0.06737975 -0.122762129 0.118
v 0.14090164 -0.0550874025 0.118
v 0.0400056243 -0.09891086 0.118500009
v -0.0641350746 -0.132748216 0.118
v -0.0641350746 -0.132748216 0.119
v 0.144146323 -0.06507349 0.119
v 0.144146323 -0.06507349 0.118
v 0.03985111 -0.09843533 0.119
v -0.0641350746 -0.132748216 0.119
v -0.06444409 -0.131797165 0.119
v 0.1438373 -0.06412244 0.119
v 0.144146323 -0.06507349 0.119
v 0.039696604 -0.0979597941 0.119500004
v -0.06444409 -0.131797165 0.119
v -0.06444409 -0.131797165 0.120000005
v 0.1438373 -0.06412244 0.120000005
v 0.1438373 -0.06412244 0.119
v 0.03691545 -0.08940029 0.119
v 0.14121066 -0.0560384579 0.119
v -0.06707074 -0.12371318 0.119
v -0.06737975 -0.122762129 0.119
v 0.14090164 -0.0550874025 0.119
v 0.0370699577 -0.08987582 0.119500004
v -0.06707074 -0.12371318 0.120000005
v -0.06707074 -0.12371318 0.119
v 0.14121066 -0.0560384579 0.119
v 0.14121066 -0.0560384579 0.120000005
v 0.1446871 -0.06673784 0.120000005
v 0.0400708765 -0.100729719 0.117500007
v 0.1446871 -0.06673784 0.11500001
v -0.06454535 -0.134721577 0.120000005
v -0.06454535 -0.134721577 0.11500001
f 1 2 3
f 1 3 4
f 5 1 4
f 5 4 6
f 7 4 3
f 4 8 6
f 4 7 8
f 7 9 8
f 10 11 12
f 11 13 12
f 14 12 13
f 15 14 13
f 16 15 13
f 11 16 13
f 11 17 16
f 18 17 11
f 17 19 16
f 17 18 19
f 18 20 19
f 18 21 20
f 19 20 22
f 19 22 23
f 24 19 23
f 19 24 25
f 19 25 26
f 21 18 27
f 18 28 27
f 18 29 28
f 29 18 30
f 18 31 30
f 32 19 26
f 18 33 31
f 19 32 34
f 33 18 35
f 18 36 35
f 18 37 36
f 37 18 38
f 18 39 38
f 40 19 34
f 18 41 39
f 41 42 39
f 41 43 42
f 43 41 44
f 41 45 44
f 42 46 39
f 46 47 39
f 41 48 45
f 46 49 47
f 49 50 47
f 49 51 50
f 49 52 51
f 52 53 51
f 52 54 53
f 54 55 53
f 54 56 55
f 56 57 55
f 56 58 57
f 58 59 57
f 58 60 59
f 60 61 59
f 60 62 61
f 62 63 61
f 62 64 63
f 64 65 63
f 64 66 65
f 66 67 65
f 66 68 67
f 68 40 67
f 68 69 40
f 69 19 40
f 19 69 70
f 19 70 71
f 72 19 71
f 72 71 73
f 74 72 73
f 72 74 75
f 76 72 75
f 72 76 77
f 72 77 78
f 79 72 78
f 72 79 80
f 72 80 81
f 41 72 81
f 41 81 82
f 83 41 82
f 41 83 84
f 41 84 85
f 48 41 85
f 86 87 88
f 86 88 89
f 90 86 89
f 89 91 90
f 91 92 90
f 91 93 92
f 94 90 92
f 93 94 92
f 95 96 97
f 96 98 97
f 96 99 98
f 96 100 99
f 100 101 99
f 100 102 101
f 103 104 105
f 104 106 105
f 104 107 106
f 108 107 104
f 107 109 106
f 109 110 106
f 110 111 106
f 111 112 106
f 112 113 106
f 114 108 104
f 113 115 106
f 116 114 104
f 115 117 106
f 118 116 104
f 117 119 106
f 120 118 104
f 121 120 104
f 122 121 104
f 123 122 104
f 124 123 104
f 119 125 106
f 125 126 106
f 126 127 106
f 128 124 104
f 127 129 106
f 130 128 104
f 127 131 129
f 130 104 132
f 133 130 132
f 133 132 134
f 135 133 134
f 135 134 136
f 137 135 136
f 137 136 138
f 139 137 138
f 139 138 140
f 141 139 140
f 141 140 142
f 143 141 142
f 143 142 144
f 145 143 144
f 145 144 146
f 147 145 146
f 147 146 148
f 131 147 148
f 131 148 149
f 131 149 129
f 129 149 150
f 129 150 151
f 152 129 151
f 129 152 153
f 154 129 153
f 129 154 155
f 129 155 156
f 157 129 156
f 129 157 158
f 129 158 159
f 160 129 159
f 160 159 161
f 162 160 161
f 160 162 163
f 160 163 164
f 165 160 164
f 160 165 166
f 160 166 167
f 168 160 167
f 160 168 169
f 160 169 170
f 104 160 170
f 104 170 171
f 104 171 172
f 132 104 172
f 173 174 175
f 173 175 176
f 177 173 176
f 176 175 178
f 179 177 176
f 180 176 178
f 179 176 180
f 180 178 181
f 182 179 180
f 183 180 181
f 182 180 183
f 183 181 184
f 185 182 183
f 186 183 184
f 185 183 186
f 186 184 187
f 188 185 186
f 189 186 187
f 188 186 189
f 189 187 190
f 191 188 189
f 192 189 190
f 191 189 192
f 192 190 193
f 194 192 193
f 195 191 192
f 195 192 194
f 194 193 196
f 197 195 194
f 198 194 196
f 199 197 194
f 200 194 198
f 199 194 200
f 201 200 198
f 202 199 200
f 203 200 201
f 203 202 200
f 204 203 201
f 203 204 202
f 204 201 205
f 204 206 202
f 207 204 205
f 204 207 206
f 207 205 208
f 207 209 206
f 210 207 208
f 207 210 209
f 210 208 211
f 210 212 209
f 213 210 211
f 210 213 212
f 213 211 214
f 213 215 212
f 216 213 214
f 213 216 215
f 216 214 217
f 216 218 215
f 219 216 217
f 216 219 218
f 219 217 220
f 218 219 221
f 219 220 221
f 220 222 221
f 222 223 221
f 221 223 224
f 222 225 223
f 223 226 224
f 225 227 223
f 223 227 226
f 225 228 227
f 227 229 226
f 228 230 227
f 227 230 229
f 228 231 230
f 230 232 229
f 231 233 230
f 230 233 232
f 231 234 233
f 233 235 232
f 234 236 233
f 233 236 235
f 234 237 236
f 236 238 235
f 237 239 236
f 236 239 238
f 237 240 239
f 240 241 239
f 239 242 238
f 239 241 242
f 240 243 241
f 241 244 242
f 243 245 241
f 241 246 244
f 245 247 241
f 241 247 246
f 245 248 247
f 247 249 246
f 248 250 247
f 247 250 249
f 248 251 250
f 251 249 250
f 252 251 248
f 251 253 249
f 254 251 252
f 251 254 253
f 255 254 252
f 254 256 253
f 257 254 255
f 254 257 256
f 258 257 255
f 257 259 256
f 260 257 258
f 257 260 259
f 261 260 258
f 260 262 259
f 263 260 261
f 260 263 262
f 264 263 261
f 263 265 262
f 266 263 264
f 263 266 265
f 267 266 264
f 266 268 265
f 266 267 268
f 269 270 271
f 269 271 272
f 273 269 272
f 272 271 274
f 275 273 272
f 276 272 274
f 275 272 276
f 276 274 277
f 278 275 276
f 279 276 277
f 278 276 279
f 279 277 280
f 281 278 279
f 282 279 280
f 281 279 282
f 282 280 283
f 284 281 282
f 285 282 283
f 284 282 285
f 285 283 286
f 287 284 285
f 288 285 286
f 287 285 288
f 288 286 289
f 290 288 289
f 291 287 288
f 291 288 290
f 290 289 292
f 293 291 290
f 294 290 292
f 295 293 290
f 296 290 294
f 295 290 296
f 297 296 294
f 298 295 296
f 299 296 297
f 299 298 296
f 300 299 297
f 299 300 298
f 300 297 301
f 300 302 298
f 303 300 301
f 300 303 302
f 303 301 304
f 303 305 302
f 306 303 304
f 303 306 305
f 306 304 307
f 306 308 305
f 309 306 307
f 306 309 308
f 309 307 310
f 309 311 308
f 312 309 310
f 309 312 311
f 312 310 313
f 312 314 311
f 315 312 313
f 312 315 314
f 315 313 316
f 314 315 317
f 315 316 317
f 316 318 317
f 318 319 317
f 317 319 320
f 318 321 319
f 319 322 320
f 321 323 319
f 319 323 322
f 321 324 323
f 323 325 322
f 324 326 323
f 323 326 325
f 324 327 326
f 326 328 325
f 327 329 326
f 326 329 328
f 327 330 329
f 329 331 328
f 330 332 329
f 329 332 331
f 330 333 332
f 332 334 331
f 333 335 332
f 332 335 334
f 333 336 335
f 336 337 335
f 335 338 334
f 335 337 338
f 336 339 337
f 337 340 338
f 339 341 337
f 337 342 340
f 341 343 337
f 337 343 342
f 341 344 343
f 343 345 342
f 344 346 343
f 343 346 345
f 344 347 346
f 347 345 346
f 348 347 344
f 347 349 345
f 350 347 348
f 347 350 349
f 351 350 348
f 350 352 349
f 353 350 351
f 350 353 352
f 354 353 351
f 353 355 352
f 356 353 354
f 353 356 355
f 357 356 354
f 356 358 355
f 359 356 357
f 356 359 358
f 360 359 357
f 359 361 358
f 362 359 360
f 359 362 361
f 363 362 360
f 362 364 361
f 362 363 364
f 365 366 367
f 368 365 367
f 368 367 369
f 370 368 369
f 370 369 371
f 372 370 371
f 373 371 369
f 371 373 372
f 373 374 372
f 373 375 374
f 375 376 374
f 375 377 376
f 378 379 380
f 378 380 381
f 379 378 382
f 382 378 381
f 383 384 385
f 383 385 386
f 384 383 387
f 387 383 386
f 388 389 390
f 388 390 391
f 389 388 392
f 392 388 391
f 393 394 395
f 393 395 396
f 394 393 397
f 397 393 396
f 398 399 400
f 398 400 401
f 399 398 402
f 402 398 401
f 403 404 405
f 403 405 406
f 404 403 407
f 407 403 406
f 408 409 410
f 408 410 411
f 409 408 412
f 412 408 411
f 413 414 415
f 413 415 416
f 414 413 417
f 417 413 416
f 418 419 420
f 421 418 420
f 418 422 419
f 422 418 421
f 423 424 425
f 426 423 425
f 423 427 424
f 427 423 426
f 428 429 430
f 431 428 430
f 428 432 429
f 432 428 431
f 433 434 435
f 433 435 436
f 434 433 437
f 437 433 436
f 438 439 440
f 441 438 440
f 438 442 439
f 442 438 441
f 443 444 445
f 446 444 443
f 444 447 445
f 444 446 447
