# ROS coordinates: X forward, Y left, Z up; units are metres.
o mesh
v -0.105000004 0.051350005 0.035
v -0.105000004 0.051350005 0.0259486865
v -0.104861706 0.05134289 0.0259587876
v -0.1047901 0.0513335876 0.0304743424
v -0.104726717 0.0513220541 0.0259872638
v -0.104754351 0.0513274632 0.035
v -0.104574621 0.05128123 0.0304743424
v -0.104471311 0.0512421727 0.0260860547
v -0.104503073 0.05125521 0.035
v -0.104362682 0.0511900932 0.0304743424
v -0.104241513 0.0511165373 0.0262143351
v -0.104261272 0.0511299446 0.035
v -0.104164645 0.05106051 0.0304743424
v -0.104045413 0.0509545952 0.0263458285
v -0.104045413 0.0509545952 0.035
v -0.103990652 0.0508964881 0.0304743424
v -0.103885889 0.0507618338 0.0264633
v -0.103870064 0.050738737 0.035
v -0.103848957 0.0507054031 0.0304743424
v -0.103758425 0.05053007 0.0265625417
v -0.10374479 0.05049693 0.035
v -0.10374479 0.05049693 0.0304743424
v -0.103677735 0.050270278 0.02662731
v -0.103679679 0.05028153 0.0304743424
v -0.10365 0.0500000045 0.0304743424
v -0.103672534 0.0502456538 0.035
v -0.10365 0.0500000045 0.02665
v -0.10365 0.0500000045 0.035
v -0.103677735 0.0497297235 0.02662731
v -0.103672534 0.0497543477 0.035
v -0.103679679 0.0497184768 0.0304743424
v -0.103758425 0.0494699366 0.0265625417
v -0.10374479 0.0495030768 0.035
v -0.103775173 0.0494322963 0.0304743424
v -0.103885889 0.0492381677 0.0264633
v -0.103870064 0.04926127 0.035
v -0.103939489 0.04916465 0.0304743424
v -0.104045413 0.0490454063 0.0263458285
v -0.104045413 0.0490454063 0.035
v -0.104164645 0.0489394926 0.0304743424
v -0.104241513 0.0488834642 0.0262143351
v -0.104261272 0.0488700643 0.035
v -0.1044323 0.04877517 0.0304743424
v -0.104471311 0.0487578325 0.0260860547
v -0.104503073 0.04874479 0.035
v -0.104718477 0.04867968 0.0304743424
v -0.104726717 0.0486779548 0.0259872638
v -0.104861706 0.0486571155 0.0259587876
v -0.104754351 0.04867254 0.035
v -0.105000004 0.04865 0.0259486865
v -0.105000004 0.04865 0.035
v -0.105138309 0.0486571155 0.0259587876
v -0.105209909 0.0486664176 0.0304743424
v -0.105273284 0.0486779548 0.0259872638
v -0.10524565 0.04867254 0.035
v -0.105425388 0.0487187728 0.0304743424
v -0.10552869 0.0487578325 0.0260860547
v -0.105496936 0.04874479 0.035
v -0.105637327 0.0488099121 0.0304743424
v -0.1057585 0.0488834642 0.0262143351
v -0.105738744 0.0488700643 0.035
v -0.105835356 0.0489394926 0.0304743424
v -0.105954595 0.0490454063 0.0263458285
v -0.105954595 0.0490454063 0.035
v -0.106009364 0.0491035171 0.0304743424
v -0.106114119 0.0492381677 0.0264633
v -0.106129944 0.04926127 0.035
v -0.106151044 0.0492946021 0.0304743424
v -0.106241584 0.0494699366 0.0265625417
v -0.106255226 0.0495030768 0.035
v -0.106255226 0.0495030768 0.0304743424
v -0.106322274 0.0497297235 0.02662731
v -0.106320322 0.0497184768 0.0304743424
v -0.106350005 0.0500000045 0.0304743424
v -0.106327467 0.0497543477 0.035
v -0.106350005 0.0500000045 0.02665
v -0.106350005 0.0500000045 0.035
v -0.106322274 0.050270278 0.02662731
v -0.106327467 0.0502456538 0.035
v -0.106320322 0.05028153 0.0304743424
v -0.106241584 0.05053007 0.0265625417
v -0.106255226 0.05049693 0.035
v -0.106224835 0.0505677052 0.0304743424
v -0.106114119 0.0507618338 0.0264633
v -0.106129944 0.050738737 0.035
v -0.10606052 0.0508353524 0.0304743424
v -0.105954595 0.0509545952 0.0263458285
v -0.105954595 0.0509545952 0.035
v -0.105835356 0.05106051 0.0304743424
v -0.1057585 0.0511165373 0.0262143351
v -0.105738744 0.0511299446 0.035
v -0.105567709 0.0512248352 0.0304743424
v -0.10552869 0.0512421727 0.0260860547
v -0.105496936 0.05125521 0.035
v -0.105281532 0.05132032 0.0304743424
v -0.105273284 0.0513220541 0.0259872638
v -0.105138309 0.05134289 0.0259587876
v -0.10524565 0.0513274632 0.035
v -0.105000004 0.051350005 0.0259486865
v -0.105000004 0.051350005 0.035
v -0.106850006 0.0550000034 0.100000009
v -0.106350005 0.0545 0.100000009
v -0.106327467 0.0545 0.09975436
v -0.106518492 0.05475 0.0994958356
v -0.106819123 0.0550000034 0.09966338
v -0.106255226 0.0545 0.09950307
v -0.106720105 0.0550000034 0.09931903
v -0.106129944 0.0545 0.09926127
v -0.106548443 0.0550000034 0.09898767
v -0.10625691 0.05475 0.09900995
v -0.105954595 0.0545 0.09904541
v -0.105836034 0.05475 0.09863581
v -0.106308155 0.0550000034 0.0986918658
v -0.105738744 0.0545 0.09887006
v -0.106012337 0.0550000034 0.09845156
v -0.105496936 0.0545 0.09874479
v -0.105680972 0.0550000034 0.0982799
v -0.105333656 0.05475 0.09843518
v -0.10524565 0.0545 0.09867254
v -0.105000004 0.05475 0.0984000042
v -0.105336636 0.0550000034 0.09818089
v -0.105000004 0.0545 0.09865
v -0.105000004 0.0550000034 0.09815
v -0.104754351 0.0545 0.09867254
v -0.104663379 0.0550000034 0.09818089
v -0.104666352 0.05475 0.09843518
v -0.104503073 0.0545 0.09874479
v -0.104319036 0.0550000034 0.0982799
v -0.104327165 0.05475 0.09854835
v -0.104261272 0.0545 0.09887006
v -0.103987671 0.0550000034 0.09845156
v -0.104009956 0.05475 0.0987431
v -0.104045413 0.0545 0.09904541
v -0.103691861 0.0550000034 0.0986918658
v -0.103743106 0.05475 0.09900995
v -0.103870064 0.0545 0.09926127
v -0.103451565 0.0550000034 0.09898767
v -0.103548348 0.05475 0.09932716
v -0.10374479 0.0545 0.09950307
v -0.1032799 0.0550000034 0.09931903
v -0.103435181 0.05475 0.09966635
v -0.103672534 0.0545 0.09975436
v -0.103180893 0.0550000034 0.09966338
v -0.10365 0.0545 0.100000009
v -0.10315 0.0550000034 0.100000009
v -0.103672534 0.0545 0.100245655
v -0.103481516 0.05475 0.100504175
v -0.10374479 0.0545 0.100496933
v -0.103180893 0.0550000034 0.100336634
v -0.1032799 0.0550000034 0.10068097
v -0.103870064 0.0545 0.100738741
v -0.103451565 0.0550000034 0.101012334
v -0.103743106 0.05475 0.10099005
v -0.104045413 0.0545 0.100954592
v -0.104163975 0.05475 0.10136421
v -0.103691861 0.0550000034 0.101308152
v -0.104261272 0.0545 0.101129942
v -0.103987671 0.0550000034 0.101548448
v -0.104503073 0.0545 0.101255223
v -0.104319036 0.0550000034 0.10172011
v -0.104666352 0.05475 0.101564832
v -0.104754351 0.0545 0.101327464
v -0.105000004 0.05475 0.1016
v -0.104663379 0.0550000034 0.10181912
v -0.105000004 0.0545 0.101350009
v -0.105000004 0.0550000034 0.10185
v -0.10524565 0.0545 0.101327464
v -0.105336636 0.0550000034 0.10181912
v -0.105333656 0.05475 0.101564832
v -0.105496936 0.0545 0.101255223
v -0.105680972 0.0550000034 0.10172011
v -0.105672844 0.05475 0.101451658
v -0.105738744 0.0545 0.101129942
v -0.106012337 0.0550000034 0.101548448
v -0.105990052 0.05475 0.101256907
v -0.105954595 0.0545 0.100954592
v -0.106308155 0.0550000034 0.101308152
v -0.10625691 0.05475 0.10099005
v -0.106129944 0.0545 0.100738741
v -0.106548443 0.0550000034 0.101012334
v -0.10645166 0.05475 0.100672841
v -0.106255226 0.0545 0.100496933
v -0.106720105 0.0550000034 0.10068097
v -0.106564835 0.05475 0.100333653
v -0.106327467 0.0545 0.100245655
v -0.106819123 0.0550000034 0.100336634
v -0.106350005 0.0545 0.100000009
v -0.106850006 0.0550000034 0.100000009
v -0.106850006 0.0550000034 0.045
v -0.106350005 0.0545 0.045
v -0.106327467 0.0545 0.04475435
v -0.106518492 0.05475 0.0444958359
v -0.106819123 0.0550000034 0.04466337
v -0.106255226 0.0545 0.0445030779
v -0.106720105 0.0550000034 0.0443190262
v -0.106129944 0.0545 0.04426127
v -0.106548443 0.0550000034 0.0439876653
v -0.10625691 0.05475 0.0440099537
v -0.105954595 0.0545 0.0440454073
v -0.105836034 0.05475 0.0436357968
v -0.106308155 0.0550000034 0.04369186
v -0.105738744 0.0545 0.04387006
v -0.106012337 0.0550000034 0.04345156
v -0.105496936 0.0545 0.0437447876
v -0.105680972 0.0550000034 0.0432798937
v -0.105333656 0.05475 0.04343518
v -0.10524565 0.0545 0.043672543
v -0.105000004 0.05475 0.0434000045
v -0.105336636 0.0550000034 0.0431808867
v -0.105000004 0.0545 0.04365
v -0.105000004 0.0550000034 0.043150004
v -0.104754351 0.0545 0.043672543
v -0.104663379 0.0550000034 0.0431808867
v -0.104666352 0.05475 0.04343518
v -0.104503073 0.0545 0.0437447876
v -0.104319036 0.0550000034 0.0432798937
v -0.104327165 0.05475 0.0435483456
v -0.104261272 0.0545 0.04387006
v -0.103987671 0.0550000034 0.04345156
v -0.104009956 0.05475 0.0437431
v -0.104045413 0.0545 0.0440454073
v -0.103691861 0.0550000034 0.04369186
v -0.103743106 0.05475 0.0440099537
v -0.103870064 0.0545 0.04426127
v -0.103451565 0.0550000034 0.0439876653
v -0.103548348 0.05475 0.04432717
v -0.10374479 0.0545 0.0445030779
v -0.1032799 0.0550000034 0.0443190262
v -0.103435181 0.05475 0.0446663462
v -0.103672534 0.0545 0.04475435
v -0.103180893 0.0550000034 0.04466337
v -0.10365 0.0545 0.045
v -0.10315 0.0550000034 0.045
v -0.103672534 0.0545 0.0452456549
v -0.103481516 0.05475 0.045504164
v -0.10374479 0.0545 0.04549693
v -0.103180893 0.0550000034 0.0453366339
v -0.1032799 0.0550000034 0.0456809774
v -0.103870064 0.0545 0.045738738
v -0.103451565 0.0550000034 0.046012342
v -0.103743106 0.05475 0.04599005
v -0.104045413 0.0545 0.0459546
v -0.104163975 0.05475 0.04636421
v -0.103691861 0.0550000034 0.04630815
v -0.104261272 0.0545 0.0461299419
v -0.103987671 0.0550000034 0.04654844
v -0.104503073 0.0545 0.046255216
v -0.104319036 0.0550000034 0.04672011
v -0.104666352 0.05475 0.0465648249
v -0.104754351 0.0545 0.0463274643
v -0.105000004 0.05475 0.0466
v -0.104663379 0.0550000034 0.0468191169
v -0.105000004 0.0545 0.046350006
v -0.105000004 0.0550000034 0.04685
v -0.10524565 0.0545 0.0463274643
v -0.105336636 0.0550000034 0.0468191169
v -0.105333656 0.05475 0.0465648249
v -0.105496936 0.0545 0.046255216
v -0.105680972 0.0550000034 0.04672011
v -0.105672844 0.05475 0.0464516543
v -0.105738744 0.0545 0.0461299419
v -0.106012337 0.0550000034 0.04654844
v -0.105990052 0.05475 0.0462569073
v -0.105954595 0.0545 0.0459546
v -0.106308155 0.0550000034 0.04630815
v -0.10625691 0.05475 0.04599005
v -0.106129944 0.0545 0.045738738
v -0.106548443 0.0550000034 0.046012342
v -0.10645166 0.05475 0.0456728339
v -0.106255226 0.0545 0.04549693
v -0.106720105 0.0550000034 0.0456809774
v -0.106564835 0.05475 0.0453336574
v -0.106327467 0.0545 0.0452456549
v -0.106819123 0.0550000034 0.0453366339
v -0.106350005 0.0545 0.045
v -0.106850006 0.0550000034 0.045
v -0.110000007 0.0483500026 0.0950000063
v -0.100000009 0.0483500026 0.0950000063
v -0.100000009 0.04837755 0.09469977
v -0.105000004 0.0483862758 0.0946559161
v -0.110000007 0.04837755 0.09469977
v -0.100000009 0.048465848 0.09439264
v -0.110000007 0.048465848 0.09439264
v -0.105000004 0.0485029854 0.094306156
v -0.100000009 0.0486189574 0.09409711
v -0.110000007 0.0486189574 0.09409711
v -0.105000004 0.04870382 0.0939790159
v -0.100000009 0.0488332734 0.09383328
v -0.110000007 0.0488332734 0.09383328
v -0.105000004 0.0489790142 0.09370383
v -0.100000009 0.0490971059 0.09361896
v -0.110000007 0.0490971059 0.09361896
v -0.105000004 0.04930614 0.09350298
v -0.100000009 0.049392648 0.09346586
v -0.110000007 0.049392648 0.09346586
v -0.105000004 0.04965592 0.093386285
v -0.100000009 0.0496997647 0.0933775455
v -0.105000004 0.0500000045 0.09335
v -0.110000007 0.0496997647 0.0933775455
v -0.100000009 0.0500000045 0.09335
v -0.110000007 0.0500000045 0.09335
v -0.100000009 0.0503002442 0.0933775455
v -0.110000007 0.0503002442 0.0933775455
v -0.105000004 0.0503440872 0.093386285
v -0.100000009 0.05060736 0.09346586
v -0.110000007 0.05060736 0.09346586
v -0.105000004 0.05060736 0.09346586
v -0.105000004 0.0508621559 0.09359316
v -0.100000009 0.0509028956 0.09361896
v -0.110000007 0.0509028956 0.09361896
v -0.105000004 0.05109571 0.09376634
v -0.100000009 0.05116673 0.09383328
v -0.110000007 0.05116673 0.09383328
v -0.105000004 0.0512961857 0.0939790159
v -0.100000009 0.0513810478 0.09409711
v -0.110000007 0.0513810478 0.09409711
v -0.105000004 0.0514545627 0.0942210555
v -0.100000009 0.0515341535 0.09439264
v -0.110000007 0.0515341535 0.09439264
v -0.105000004 0.0515659451 0.0944800749
v -0.100000009 0.0516224578 0.09469977
v -0.110000007 0.0516224578 0.09469977
v -0.105000004 0.0516299345 0.09474345
v -0.100000009 0.05165 0.0950000063
v -0.110000007 0.05165 0.0950000063
v -0.100000009 0.0516224578 0.0953002349
v -0.105000004 0.05161373 0.0953441
v -0.110000007 0.0516224578 0.0953002349
v -0.100000009 0.0515341535 0.0956073552
v -0.110000007 0.0515341535 0.0956073552
v -0.105000004 0.0514970161 0.09569386
v -0.100000009 0.0513810478 0.0959029049
v -0.110000007 0.0513810478 0.0959029049
v -0.105000004 0.0512961857 0.09602099
v -0.100000009 0.05116673 0.09616673
v -0.110000007 0.05116673 0.09616673
v -0.105000004 0.0510209948 0.0962961838
v -0.100000009 0.0509028956 0.0963810459
v -0.110000007 0.0509028956 0.0963810459
v -0.105000004 0.0506938621 0.09649702
v -0.100000009 0.05060736 0.0965341553
v -0.110000007 0.05060736 0.0965341553
v -0.105000004 0.0503440872 0.09661373
v -0.100000009 0.0503002442 0.09662247
v -0.105000004 0.0500000045 0.0966500044
v -0.110000007 0.0503002442 0.09662247
v -0.100000009 0.0500000045 0.0966500044
v -0.110000007 0.0500000045 0.0966500044
v -0.100000009 0.0496997647 0.09662247
v -0.110000007 0.0496997647 0.09662247
v -0.105000004 0.04965592 0.09661373
v -0.100000009 0.049392648 0.0965341553
v -0.110000007 0.049392648 0.0965341553
v -0.105000004 0.049392648 0.0965341553
v -0.105000004 0.0491378456 0.09640685
v -0.100000009 0.0490971059 0.0963810459
v -0.110000007 0.0490971059 0.0963810459
v -0.105000004 0.0489043 0.0962336659
v -0.100000009 0.0488332734 0.09616673
v -0.110000007 0.0488332734 0.09616673
v -0.105000004 0.04870382 0.09602099
v -0.100000009 0.0486189574 0.0959029049
v -0.110000007 0.0486189574 0.0959029049
v -0.105000004 0.0485454462 0.09577896
v -0.100000009 0.048465848 0.0956073552
v -0.110000007 0.048465848 0.0956073552
v -0.105000004 0.04843406 0.09551993
v -0.100000009 0.04837755 0.0953002349
v -0.110000007 0.04837755 0.0953002349
v -0.105000004 0.048370067 0.09525655
v -0.100000009 0.0483500026 0.0950000063
v -0.110000007 0.0483500026 0.0950000063
v -0.110000007 0.0483500026 0.0250000022
v -0.100000009 0.0483500026 0.0250000022
v -0.100000009 0.04837755 0.0246997625
v -0.105000004 0.0483862758 0.0246559177
v -0.110000007 0.04837755 0.0246997625
v -0.100000009 0.048465848 0.0243926439
v -0.110000007 0.048465848 0.0243926439
v -0.105000004 0.0485029854 0.0243061427
v -0.100000009 0.0486189574 0.0240971055
v -0.110000007 0.0486189574 0.0240971055
v -0.105000004 0.04865 0.0240513161
v -0.104861706 0.0486571155 0.024041215
v -0.104726717 0.0486779548 0.0240127388
v -0.104471311 0.0487578325 0.023913946
v -0.105138309 0.0486571155 0.024041215
v -0.105273284 0.0486779548 0.0240127388
v -0.10552869 0.0487578325 0.023913946
v -0.110000007 0.0488332734 0.0238332748
v -0.1057585 0.0488834642 0.02378567
v -0.100000009 0.0488332734 0.0238332748
v -0.104241513 0.0488834642 0.02378567
v -0.104045413 0.0490454063 0.0236541741
v -0.100000009 0.0490971059 0.0236189589
v -0.103885889 0.0492381677 0.0235367026
v -0.100000009 0.049392648 0.02346585
v -0.103758425 0.0494699366 0.02343746
v -0.100000009 0.0496997647 0.0233775489
v -0.103677735 0.0497297235 0.0233726948
v -0.110000007 0.0490971059 0.0236189589
v -0.105954595 0.0490454063 0.0236541741
v -0.106114119 0.0492381677 0.0235367026
v -0.110000007 0.049392648 0.02346585
v -0.106241584 0.0494699366 0.02343746
v -0.110000007 0.0496997647 0.0233775489
v -0.106322274 0.0497297235 0.0233726948
v -0.100000009 0.0500000045 0.02335
v -0.10365 0.0500000045 0.02335
v -0.103677735 0.050270278 0.0233726948
v -0.100000009 0.0503002442 0.0233775489
v -0.103758425 0.05053007 0.02343746
v -0.100000009 0.05060736 0.02346585
v -0.103885889 0.0507618338 0.0235367026
v -0.110000007 0.0500000045 0.02335
v -0.106350005 0.0500000045 0.02335
v -0.106322274 0.050270278 0.0233726948
v -0.110000007 0.0503002442 0.0233775489
v -0.106241584 0.05053007 0.02343746
v -0.110000007 0.05060736 0.02346585
v -0.106114119 0.0507618338 0.0235367026
v -0.110000007 0.0509028956 0.0236189589
v -0.105954595 0.0509545952 0.0236541741
v -0.100000009 0.0509028956 0.0236189589
v -0.104045413 0.0509545952 0.0236541741
v -0.104241513 0.0511165373 0.02378567
v -0.100000009 0.05116673 0.0238332748
v -0.104471311 0.0512421727 0.023913946
v -0.110000007 0.05116673 0.0238332748
v -0.1057585 0.0511165373 0.02378567
v -0.10552869 0.0512421727 0.023913946
v -0.100000009 0.0513810478 0.0240971055
v -0.110000007 0.0513810478 0.0240971055
v -0.104726717 0.0513220541 0.0240127388
v -0.105273284 0.0513220541 0.0240127388
v -0.104861706 0.05134289 0.024041215
v -0.105138309 0.05134289 0.024041215
v -0.105000004 0.051350005 0.0240513161
v -0.105000004 0.0514545627 0.0242210515
v -0.100000009 0.0515341535 0.0243926439
v -0.110000007 0.0515341535 0.0243926439
v -0.105000004 0.0515659451 0.0244800784
v -0.100000009 0.0516224578 0.0246997625
v -0.110000007 0.0516224578 0.0246997625
v -0.105000004 0.0516299345 0.0247434564
v -0.100000009 0.05165 0.0250000022
v -0.110000007 0.05165 0.0250000022
v -0.100000009 0.0516224578 0.0253002383
v -0.105000004 0.05161373 0.0253440831
v -0.110000007 0.0516224578 0.0253002383
v -0.100000009 0.0515341535 0.0256073587
v -0.110000007 0.0515341535 0.0256073587
v -0.105000004 0.0514970161 0.025693858
v -0.100000009 0.0513810478 0.0259028971
v -0.110000007 0.0513810478 0.0259028971
v -0.105000004 0.051350005 0.0259486865
v -0.104861706 0.05134289 0.0259587876
v -0.104726717 0.0513220541 0.0259872638
v -0.104471311 0.0512421727 0.0260860547
v -0.105138309 0.05134289 0.0259587876
v -0.105273284 0.0513220541 0.0259872638
v -0.10552869 0.0512421727 0.0260860547
v -0.110000007 0.05116673 0.0261667259
v -0.1057585 0.0511165373 0.0262143351
v -0.100000009 0.05116673 0.0261667259
v -0.104241513 0.0511165373 0.0262143351
v -0.104045413 0.0509545952 0.0263458285
v -0.100000009 0.0509028956 0.0263810437
v -0.103885889 0.0507618338 0.0264633
v -0.100000009 0.05060736 0.0265341513
v -0.103758425 0.05053007 0.0265625417
v -0.100000009 0.0503002442 0.0266224537
v -0.103677735 0.050270278 0.02662731
v -0.110000007 0.0509028956 0.0263810437
v -0.105954595 0.0509545952 0.0263458285
v -0.106114119 0.0507618338 0.0264633
v -0.110000007 0.05060736 0.0265341513
v -0.106241584 0.05053007 0.0265625417
v -0.110000007 0.0503002442 0.0266224537
v -0.106322274 0.050270278 0.02662731
v -0.100000009 0.0500000045 0.02665
v -0.10365 0.0500000045 0.02665
v -0.103677735 0.0497297235 0.02662731
v -0.100000009 0.0496997647 0.0266224537
v -0.103758425 0.0494699366 0.0265625417
v -0.100000009 0.049392648 0.0265341513
v -0.103885889 0.0492381677 0.0264633
v -0.110000007 0.0500000045 0.02665
v -0.106350005 0.0500000045 0.02665
v -0.106322274 0.0497297235 0.02662731
v -0.110000007 0.0496997647 0.0266224537
v -0.106241584 0.0494699366 0.0265625417
v -0.110000007 0.049392648 0.0265341513
v -0.106114119 0.0492381677 0.0264633
v -0.110000007 0.0490971059 0.0263810437
v -0.105954595 0.0490454063 0.0263458285
v -0.100000009 0.0490971059 0.0263810437
v -0.104045413 0.0490454063 0.0263458285
v -0.104241513 0.0488834642 0.0262143351
v -0.100000009 0.0488332734 0.0261667259
v -0.104471311 0.0487578325 0.0260860547
v -0.110000007 0.0488332734 0.0261667259
v -0.1057585 0.0488834642 0.0262143351
v -0.10552869 0.0487578325 0.0260860547
v -0.100000009 0.0486189574 0.0259028971
v -0.110000007 0.0486189574 0.0259028971
v -0.104726717 0.0486779548 0.0259872638
v -0.105273284 0.0486779548 0.0259872638
v -0.104861706 0.0486571155 0.0259587876
v -0.105138309 0.0486571155 0.0259587876
v -0.105000004 0.04865 0.0259486865
v -0.105000004 0.0485454462 0.025778953
v -0.100000009 0.048465848 0.0256073587
v -0.110000007 0.048465848 0.0256073587
v -0.105000004 0.04843406 0.0255199224
v -0.100000009 0.04837755 0.0253002383
v -0.110000007 0.04837755 0.0253002383
v -0.105000004 0.048370067 0.0252565444
v -0.100000009 0.0483500026 0.0250000022
v -0.110000007 0.0483500026 0.0250000022
v -0.105000004 0.051350005 0.0240513161
v -0.105138309 0.05134289 0.024041215
v -0.105000004 0.051350005 0.0100000007
v -0.105281532 0.05132032 0.0170256589
v -0.105273284 0.0513220541 0.0240127388
v -0.10524565 0.0513274632 0.0100000007
v -0.10552869 0.0512421727 0.023913946
v -0.105496936 0.05125521 0.0100000007
v -0.105567709 0.0512248352 0.0170256589
v -0.1057585 0.0511165373 0.02378567
v -0.105738744 0.0511299446 0.0100000007
v -0.105835356 0.05106051 0.0170256589
v -0.105954595 0.0509545952 0.0236541741
v -0.105954595 0.0509545952 0.0100000007
v -0.10606052 0.0508353524 0.0170256589
v -0.106114119 0.0507618338 0.0235367026
v -0.106129944 0.050738737 0.0100000007
v -0.106224835 0.0505677052 0.0170256589
v -0.106241584 0.05053007 0.02343746
v -0.106255226 0.05049693 0.0100000007
v -0.106320322 0.05028153 0.0170256589
v -0.106322274 0.050270278 0.0233726948
v -0.106350005 0.0500000045 0.0170256589
v -0.106327467 0.0502456538 0.0100000007
v -0.106350005 0.0500000045 0.02335
v -0.106350005 0.0500000045 0.0100000007
v -0.106327467 0.0497543477 0.0100000007
v -0.106322274 0.0497297235 0.0233726948
v -0.106320322 0.0497184768 0.0170256589
v -0.106255226 0.0495030768 0.0100000007
v -0.106255226 0.0495030768 0.0170256589
v -0.106241584 0.0494699366 0.02343746
v -0.106151044 0.0492946021 0.0170256589
v -0.106129944 0.04926127 0.0100000007
v -0.106114119 0.0492381677 0.0235367026
v -0.106009364 0.0491035171 0.0170256589
v -0.105954595 0.0490454063 0.0100000007
v -0.105954595 0.0490454063 0.0236541741
v -0.105835356 0.0489394926 0.0170256589
v -0.105738744 0.0488700643 0.0100000007
v -0.1057585 0.0488834642 0.02378567
v -0.105637327 0.0488099121 0.0170256589
v -0.105496936 0.04874479 0.0100000007
v -0.10552869 0.0487578325 0.023913946
v -0.105425388 0.0487187728 0.0170256589
v -0.10524565 0.04867254 0.0100000007
v -0.105273284 0.0486779548 0.0240127388
v -0.105209909 0.0486664176 0.0170256589
v -0.105138309 0.0486571155 0.024041215
v -0.105000004 0.04865 0.0240513161
v -0.105000004 0.04865 0.0100000007
v -0.104861706 0.0486571155 0.024041215
v -0.104718477 0.04867968 0.0170256589
v -0.104726717 0.0486779548 0.0240127388
v -0.104754351 0.04867254 0.0100000007
v -0.104471311 0.0487578325 0.023913946
v -0.104503073 0.04874479 0.0100000007
v -0.1044323 0.04877517 0.0170256589
v -0.104241513 0.0488834642 0.02378567
v -0.104261272 0.0488700643 0.0100000007
v -0.104164645 0.0489394926 0.0170256589
v -0.104045413 0.0490454063 0.0236541741
v -0.104045413 0.0490454063 0.0100000007
v -0.103939489 0.04916465 0.0170256589
v -0.103885889 0.0492381677 0.0235367026
v -0.103870064 0.04926127 0.0100000007
v -0.103775173 0.0494322963 0.0170256589
v -0.103758425 0.0494699366 0.02343746
v -0.10374479 0.0495030768 0.0100000007
v -0.103679679 0.0497184768 0.0170256589
v -0.103677735 0.0497297235 0.0233726948
v -0.10365 0.0500000045 0.0170256589
v -0.103672534 0.0497543477 0.0100000007
v -0.10365 0.0500000045 0.02335
v -0.10365 0.0500000045 0.0100000007
v -0.103672534 0.0502456538 0.0100000007
v -0.103677735 0.050270278 0.0233726948
v -0.103679679 0.05028153 0.0170256589
v -0.10374479 0.05049693 0.0100000007
v -0.10374479 0.05049693 0.0170256589
v -0.103758425 0.05053007 0.02343746
v -0.103848957 0.0507054031 0.0170256589
v -0.103870064 0.050738737 0.0100000007
v -0.103885889 0.0507618338 0.0235367026
v -0.103990652 0.0508964881 0.0170256589
v -0.104045413 0.0509545952 0.0100000007
v -0.104045413 0.0509545952 0.0236541741
v -0.104164645 0.05106051 0.0170256589
v -0.104261272 0.0511299446 0.0100000007
v -0.104241513 0.0511165373 0.02378567
v -0.104362682 0.0511900932 0.0170256589
v -0.104503073 0.05125521 0.0100000007
v -0.104471311 0.0512421727 0.023913946
v -0.104574621 0.05128123 0.0170256589
v -0.104754351 0.0513274632 0.0100000007
v -0.104726717 0.0513220541 0.0240127388
v -0.1047901 0.0513335876 0.0170256589
v -0.105000004 0.051350005 0.0100000007
v -0.104861706 0.05134289 0.024041215
v -0.105000004 0.051350005 0.0240513161
v -0.110000007 0.0483500026 0.110000007
v -0.100000009 0.0483500026 0.110000007
v -0.100000009 0.04837755 0.109699771
v -0.105000004 0.0483862758 0.109655924
v -0.110000007 0.04837755 0.109699771
v -0.100000009 0.048465848 0.109392643
v -0.110000007 0.048465848 0.109392643
v -0.105000004 0.0485029854 0.109306142
v -0.100000009 0.0486189574 0.1090971
v -0.110000007 0.0486189574 0.1090971
v -0.105000004 0.04870382 0.108979017
v -0.100000009 0.0488332734 0.108833276
v -0.110000007 0.0488332734 0.108833276
v -0.105000004 0.0489790142 0.108703829
v -0.100000009 0.0490971059 0.10861896
v -0.110000007 0.0490971059 0.10861896
v -0.105000004 0.04930614 0.108502984
v -0.100000009 0.049392648 0.108465858
v -0.110000007 0.049392648 0.108465858
v -0.105000004 0.04965592 0.108386286
v -0.100000009 0.0496997647 0.108377554
v -0.105000004 0.0500000045 0.10835
v -0.110000007 0.0496997647 0.108377554
v -0.100000009 0.0500000045 0.10835
v -0.110000007 0.0500000045 0.10835
v -0.100000009 0.0503002442 0.108377554
v -0.110000007 0.0503002442 0.108377554
v -0.105000004 0.0503440872 0.108386286
v -0.100000009 0.05060736 0.108465858
v -0.110000007 0.05060736 0.108465858
v -0.105000004 0.05060736 0.108465858
v -0.105000004 0.0508621559 0.108593166
v -0.100000009 0.0509028956 0.10861896
v -0.110000007 0.0509028956 0.10861896
v -0.105000004 0.05109571 0.10876634
v -0.100000009 0.05116673 0.108833276
v -0.110000007 0.05116673 0.108833276
v -0.105000004 0.0512961857 0.108979017
v -0.100000009 0.0513810478 0.1090971
v -0.110000007 0.0513810478 0.1090971
v -0.105000004 0.0514545627 0.109221049
v -0.100000009 0.0515341535 0.109392643
v -0.110000007 0.0515341535 0.109392643
v -0.105000004 0.0515659451 0.109480083
v -0.100000009 0.0516224578 0.109699771
v -0.110000007 0.0516224578 0.109699771
v -0.105000004 0.0516299345 0.109743461
v -0.100000009 0.05165 0.110000007
v -0.110000007 0.05165 0.110000007
v -0.100000009 0.0516224578 0.110300243
v -0.105000004 0.05161373 0.1103441
v -0.110000007 0.0516224578 0.110300243
v -0.100000009 0.0515341535 0.110607363
v -0.110000007 0.0515341535 0.110607363
v -0.105000004 0.0514970161 0.110693865
v -0.100000009 0.0513810478 0.110902905
v -0.110000007 0.0513810478 0.110902905
v -0.105000004 0.0512961857 0.11102099
v -0.100000009 0.05116673 0.111166731
v -0.110000007 0.05116673 0.111166731
v -0.105000004 0.0510209948 0.111296184
v -0.100000009 0.0509028956 0.111381046
v -0.110000007 0.0509028956 0.111381046
v -0.105000004 0.0506938621 0.11149703
v -0.100000009 0.05060736 0.111534148
v -0.110000007 0.05060736 0.111534148
v -0.105000004 0.0503440872 0.111613728
v -0.100000009 0.0503002442 0.111622468
v -0.105000004 0.0500000045 0.111650005
v -0.110000007 0.0503002442 0.111622468
v -0.100000009 0.0500000045 0.111650005
v -0.110000007 0.0500000045 0.111650005
v -0.100000009 0.0496997647 0.111622468
v -0.110000007 0.0496997647 0.111622468
v -0.105000004 0.04965592 0.111613728
v -0.100000009 0.049392648 0.111534148
v -0.110000007 0.049392648 0.111534148
v -0.105000004 0.049392648 0.111534148
v -0.105000004 0.0491378456 0.111406848
v -0.100000009 0.0490971059 0.111381046
v -0.110000007 0.0490971059 0.111381046
v -0.105000004 0.0489043 0.111233667
v -0.100000009 0.0488332734 0.111166731
v -0.110000007 0.0488332734 0.111166731
v -0.105000004 0.04870382 0.11102099
v -0.100000009 0.0486189574 0.110902905
v -0.110000007 0.0486189574 0.110902905
v -0.105000004 0.0485454462 0.110778958
v -0.100000009 0.048465848 0.110607363
v -0.110000007 0.048465848 0.110607363
v -0.105000004 0.04843406 0.110519931
v -0.100000009 0.04837755 0.110300243
v -0.110000007 0.04837755 0.110300243
v -0.105000004 0.048370067 0.110256553
v -0.100000009 0.0483500026 0.110000007
v -0.110000007 0.0483500026 0.110000007
v -0.106350005 0.0545 0.045
v -0.106350005 0.045 0.045
v -0.106327467 0.045 0.04475435
v -0.106320322 0.04975 0.0447184779
v -0.106327467 0.0545 0.04475435
v -0.106255226 0.045 0.0445030779
v -0.106255226 0.0545 0.0445030779
v -0.106224835 0.04975 0.0444323
v -0.106129944 0.045 0.04426127
v -0.106129944 0.0545 0.04426127
v -0.10606052 0.04975 0.04416465
v -0.105954595 0.045 0.0440454073
v -0.105954595 0.0545 0.0440454073
v -0.105835356 0.04975 0.0439394936
v -0.105738744 0.045 0.04387006
v -0.105738744 0.0545 0.04387006
v -0.105567709 0.04975 0.04377517
v -0.105496936 0.045 0.0437447876
v -0.105496936 0.0545 0.0437447876
v -0.105281532 0.04975 0.04367968
v -0.10524565 0.045 0.043672543
v -0.105000004 0.04975 0.04365
v -0.10524565 0.0545 0.043672543
v -0.105000004 0.045 0.04365
v -0.105000004 0.0545 0.04365
v -0.104754351 0.045 0.043672543
v -0.104754351 0.0545 0.043672543
v -0.104718477 0.04975 0.04367968
v -0.104503073 0.045 0.0437447876
v -0.104503073 0.0545 0.0437447876
v -0.104503073 0.04975 0.0437447876
v -0.104294606 0.04975 0.0438489541
v -0.104261272 0.045 0.04387006
v -0.104261272 0.0545 0.04387006
v -0.104103528 0.04975 0.0439906456
v -0.104045413 0.045 0.0440454073
v -0.104045413 0.0545 0.0440454073
v -0.103939489 0.04975 0.04416465
v -0.103870064 0.045 0.04426127
v -0.103870064 0.0545 0.04426127
v -0.103809915 0.04975 0.04436268
v -0.10374479 0.045 0.0445030779
v -0.10374479 0.0545 0.0445030779
v -0.10371878 0.04975 0.04457461
v -0.103672534 0.045 0.04475435
v -0.103672534 0.0545 0.04475435
v -0.103666425 0.04975 0.0447901
v -0.10365 0.045 0.045
v -0.10365 0.0545 0.045
v -0.103672534 0.045 0.0452456549
v -0.103679679 0.04975 0.04528153
v -0.103672534 0.0545 0.0452456549
v -0.10374479 0.045 0.04549693
v -0.10374479 0.0545 0.04549693
v -0.103775173 0.04975 0.0455677062
v -0.103870064 0.045 0.045738738
v -0.103870064 0.0545 0.045738738
v -0.103939489 0.04975 0.0458353534
v -0.104045413 0.045 0.0459546
v -0.104045413 0.0545 0.0459546
v -0.104164645 0.04975 0.0460605137
v -0.104261272 0.045 0.0461299419
v -0.104261272 0.0545 0.0461299419
v -0.1044323 0.04975 0.0462248363
v -0.104503073 0.045 0.046255216
v -0.104503073 0.0545 0.046255216
v -0.104718477 0.04975 0.04632032
v -0.104754351 0.045 0.0463274643
v -0.105000004 0.04975 0.046350006
v -0.104754351 0.0545 0.0463274643
v -0.105000004 0.045 0.046350006
v -0.105000004 0.0545 0.046350006
v -0.10524565 0.045 0.0463274643
v -0.10524565 0.0545 0.0463274643
v -0.105281532 0.04975 0.04632032
v -0.105496936 0.045 0.046255216
v -0.105496936 0.0545 0.046255216
v -0.105496936 0.04975 0.046255216
v -0.1057054 0.04975 0.04615105
v -0.105738744 0.045 0.0461299419
v -0.105738744 0.0545 0.0461299419
v -0.105896488 0.04975 0.04600936
v -0.105954595 0.045 0.0459546
v -0.105954595 0.0545 0.0459546
v -0.10606052 0.04975 0.0458353534
v -0.106129944 0.045 0.045738738
v -0.106129944 0.0545 0.045738738
v -0.1061901 0.04975 0.0456373245
v -0.106255226 0.045 0.04549693
v -0.106255226 0.0545 0.04549693
v -0.106281228 0.04975 0.0454253927
v -0.106327467 0.045 0.0452456549
v -0.106327467 0.0545 0.0452456549
v -0.106333584 0.04975 0.0452099
v -0.106350005 0.045 0.045
v -0.106350005 0.0545 0.045
v -0.106350005 0.0545 0.100000009
v -0.106350005 0.045 0.100000009
v -0.106327467 0.045 0.09975436
v -0.106320322 0.04975 0.09971848
v -0.106327467 0.0545 0.09975436
v -0.106255226 0.045 0.09950307
v -0.106255226 0.0545 0.09950307
v -0.106224835 0.04975 0.0994323045
v -0.106129944 0.045 0.09926127
v -0.106129944 0.0545 0.09926127
v -0.10606052 0.04975 0.09916466
v -0.105954595 0.045 0.09904541
v -0.105954595 0.0545 0.09904541
v -0.105835356 0.04975 0.09893949
v -0.105738744 0.045 0.09887006
v -0.105738744 0.0545 0.09887006
v -0.105567709 0.04975 0.09877517
v -0.105496936 0.045 0.09874479
v -0.105496936 0.0545 0.09874479
v -0.105281532 0.04975 0.09867968
v -0.10524565 0.045 0.09867254
v -0.105000004 0.04975 0.09865
v -0.10524565 0.0545 0.09867254
v -0.105000004 0.045 0.09865
v -0.105000004 0.0545 0.09865
v -0.104754351 0.045 0.09867254
v -0.104754351 0.0545 0.09867254
v -0.104718477 0.04975 0.09867968
v -0.104503073 0.045 0.09874479
v -0.104503073 0.0545 0.09874479
v -0.104503073 0.04975 0.09874479
v -0.104294606 0.04975 0.0988489538
v -0.104261272 0.045 0.09887006
v -0.104261272 0.0545 0.09887006
v -0.104103528 0.04975 0.09899065
v -0.104045413 0.045 0.09904541
v -0.104045413 0.0545 0.09904541
v -0.103939489 0.04975 0.09916466
v -0.103870064 0.045 0.09926127
v -0.103870064 0.0545 0.09926127
v -0.103809915 0.04975 0.09936269
v -0.10374479 0.045 0.09950307
v -0.10374479 0.0545 0.09950307
v -0.10371878 0.04975 0.09957462
v -0.103672534 0.045 0.09975436
v -0.103672534 0.0545 0.09975436
v -0.103666425 0.04975 0.0997901037
v -0.10365 0.045 0.100000009
v -0.10365 0.0545 0.100000009
v -0.103672534 0.045 0.100245655
v -0.103679679 0.04975 0.100281529
v -0.103672534 0.0545 0.100245655
v -0.10374479 0.045 0.100496933
v -0.10374479 0.0545 0.100496933
v -0.103775173 0.04975 0.100567706
v -0.103870064 0.045 0.100738741
v -0.103870064 0.0545 0.100738741
v -0.103939489 0.04975 0.100835353
v -0.104045413 0.045 0.100954592
v -0.104045413 0.0545 0.100954592
v -0.104164645 0.04975 0.101060525
v -0.104261272 0.045 0.101129942
v -0.104261272 0.0545 0.101129942
v -0.1044323 0.04975 0.10122484
v -0.104503073 0.045 0.101255223
v -0.104503073 0.0545 0.101255223
v -0.104718477 0.04975 0.101320326
v -0.104754351 0.045 0.101327464
v -0.105000004 0.04975 0.101350009
v -0.104754351 0.0545 0.101327464
v -0.105000004 0.045 0.101350009
v -0.105000004 0.0545 0.101350009
v -0.10524565 0.045 0.101327464
v -0.10524565 0.0545 0.101327464
v -0.105281532 0.04975 0.101320326
v -0.105496936 0.045 0.101255223
v -0.105496936 0.0545 0.101255223
v -0.105496936 0.04975 0.101255223
v -0.1057054 0.04975 0.101151049
v -0.105738744 0.045 0.101129942
v -0.105738744 0.0545 0.101129942
v -0.105896488 0.04975 0.101009369
v -0.105954595 0.045 0.100954592
v -0.105954595 0.0545 0.100954592
v -0.10606052 0.04975 0.100835353
v -0.106129944 0.045 0.100738741
v -0.106129944 0.0545 0.100738741
v -0.1061901 0.04975 0.100637332
v -0.106255226 0.045 0.100496933
v -0.106255226 0.0545 0.100496933
v -0.106281228 0.04975 0.100425392
v -0.106327467 0.045 0.100245655
v -0.106327467 0.0545 0.100245655
v -0.106333584 0.04975 0.100209907
v -0.106350005 0.045 0.100000009
v -0.106350005 0.0545 0.100000009
v -0.104261272 0.0511299446 0.035
v -0.105000004 0.0500000045 0.035
v -0.104503073 0.05125521 0.035
v -0.104045413 0.0509545952 0.035
v -0.104754351 0.0513274632 0.035
v -0.103870064 0.050738737 0.035
v -0.105000004 0.051350005 0.035
v -0.10374479 0.05049693 0.035
v -0.10524565 0.0513274632 0.035
v -0.103672534 0.0502456538 0.035
v -0.105496936 0.05125521 0.035
v -0.10365 0.0500000045 0.035
v -0.105738744 0.0511299446 0.035
v -0.103672534 0.0497543477 0.035
v -0.105954595 0.0509545952 0.035
v -0.10374479 0.0495030768 0.035
v -0.106129944 0.050738737 0.035
v -0.103870064 0.04926127 0.035
v -0.106255226 0.05049693 0.035
v -0.104045413 0.0490454063 0.035
v -0.106327467 0.0502456538 0.035
v -0.104261272 0.0488700643 0.035
v -0.106350005 0.0500000045 0.035
v -0.104503073 0.04874479 0.035
v -0.106327467 0.0497543477 0.035
v -0.104754351 0.04867254 0.035
v -0.106255226 0.0495030768 0.035
v -0.105000004 0.04865 0.035
v -0.106129944 0.04926127 0.035
v -0.10524565 0.04867254 0.035
v -0.105954595 0.0490454063 0.035
v -0.105496936 0.04874479 0.035
v -0.105738744 0.0488700643 0.035
v -0.110000007 0.0455000028 0.11500001
v -0.110000007 0.0496997647 0.111622468
v -0.110000007 0.049392648 0.111534148
v -0.110000007 0.0490971059 0.111381046
v -0.110000007 0.0488332734 0.111166731
v -0.110000007 0.0486189574 0.110902905
v -0.110000007 0.048465848 0.110607363
v -0.110000007 0.04837755 0.110300243
v -0.110000007 0.0500000045 0.111650005
v -0.110000007 0.0483500026 0.110000007
v -0.110000007 0.0545 0.11500001
v -0.110000007 0.0503002442 0.111622468
v -0.110000007 0.05060736 0.111534148
v -0.110000007 0.0509028956 0.111381046
v -0.110000007 0.05116673 0.111166731
v -0.110000007 0.0513810478 0.110902905
v -0.110000007 0.0515341535 0.110607363
v -0.110000007 0.0516224578 0.110300243
v -0.110000007 0.05165 0.110000007
v -0.110000007 0.0483500026 0.0950000063
v -0.110000007 0.0455000028 0.0105
v -0.110000007 0.04837755 0.109699771
v -0.110000007 0.05165 0.0950000063
v -0.110000007 0.0516224578 0.109699771
v -0.110000007 0.0545 0.0105
v -0.110000007 0.0500000045 0.02335
v -0.110000007 0.0503002442 0.0233775489
v -0.110000007 0.05060736 0.02346585
v -0.110000007 0.0496997647 0.0233775489
v -0.110000007 0.049392648 0.02346585
v -0.110000007 0.0509028956 0.0236189589
v -0.110000007 0.0490971059 0.0236189589
v -0.110000007 0.05116673 0.0238332748
v -0.110000007 0.0488332734 0.0238332748
v -0.110000007 0.0513810478 0.0240971055
v -0.110000007 0.0486189574 0.0240971055
v -0.110000007 0.0515341535 0.0243926439
v -0.110000007 0.0516224578 0.0246997625
v -0.110000007 0.048465848 0.0243926439
v -0.110000007 0.04837755 0.0246997625
v -0.110000007 0.0483500026 0.0250000022
v -0.110000007 0.05165 0.0250000022
v -0.110000007 0.04837755 0.0253002383
v -0.110000007 0.0516224578 0.09469977
v -0.110000007 0.0516224578 0.0253002383
v -0.110000007 0.0500000045 0.0627500042
v -0.110000007 0.0515341535 0.0256073587
v -0.110000007 0.0515341535 0.09439264
v -0.110000007 0.0513810478 0.0259028971
v -0.110000007 0.0513810478 0.09409711
v -0.110000007 0.05116673 0.0261667259
v -0.110000007 0.05116673 0.09383328
v -0.110000007 0.0509028956 0.0263810437
v -0.110000007 0.0509028956 0.09361896
v -0.110000007 0.05060736 0.0265341513
v -0.110000007 0.05060736 0.09346586
v -0.110000007 0.0503002442 0.0266224537
v -0.110000007 0.0503002442 0.0933775455
v -0.110000007 0.0500000045 0.02665
v -0.110000007 0.0500000045 0.09335
v -0.110000007 0.0496997647 0.0266224537
v -0.110000007 0.0496997647 0.0933775455
v -0.110000007 0.049392648 0.0265341513
v -0.110000007 0.049392648 0.09346586
v -0.110000007 0.0490971059 0.0263810437
v -0.110000007 0.0490971059 0.09361896
v -0.110000007 0.0488332734 0.0261667259
v -0.110000007 0.0488332734 0.09383328
v -0.110000007 0.0486189574 0.0259028971
v -0.110000007 0.0486189574 0.09409711
v -0.110000007 0.048465848 0.0256073587
v -0.110000007 0.048465848 0.09439264
v -0.110000007 0.04837755 0.09469977
v -0.110000007 0.04837755 0.0953002349
v -0.110000007 0.048465848 0.109392643
v -0.110000007 0.048465848 0.0956073552
v -0.110000007 0.0486189574 0.1090971
v -0.110000007 0.0486189574 0.0959029049
v -0.110000007 0.0488332734 0.09616673
v -0.110000007 0.0488332734 0.108833276
v -0.110000007 0.0490971059 0.0963810459
v -0.110000007 0.0490971059 0.10861896
v -0.110000007 0.049392648 0.0965341553
v -0.110000007 0.049392648 0.108465858
v -0.110000007 0.0496997647 0.09662247
v -0.110000007 0.0496997647 0.108377554
v -0.110000007 0.0500000045 0.0966500044
v -0.110000007 0.0500000045 0.10835
v -0.110000007 0.0503002442 0.108377554
v -0.110000007 0.0503002442 0.09662247
v -0.110000007 0.05060736 0.108465858
v -0.110000007 0.05060736 0.0965341553
v -0.110000007 0.0509028956 0.10861896
v -0.110000007 0.0509028956 0.0963810459
v -0.110000007 0.05116673 0.108833276
v -0.110000007 0.05116673 0.09616673
v -0.110000007 0.0513810478 0.1090971
v -0.110000007 0.0513810478 0.0959029049
v -0.110000007 0.0515341535 0.0956073552
v -0.110000007 0.0515341535 0.109392643
v -0.110000007 0.0516224578 0.0953002349
v -0.103691861 0.0550000034 0.0986918658
v -0.103451565 0.0550000034 0.09898767
v -0.105000004 0.0550000034 0.0627500042
v -0.103987671 0.0550000034 0.09845156
v -0.104319036 0.0550000034 0.0982799
v -0.104663379 0.0550000034 0.09818089
v -0.105000004 0.0550000034 0.09815
v -0.105336636 0.0550000034 0.09818089
v -0.105680972 0.0550000034 0.0982799
v -0.106012337 0.0550000034 0.09845156
v -0.106308155 0.0550000034 0.0986918658
v -0.106548443 0.0550000034 0.09898767
v -0.106720105 0.0550000034 0.09931903
v -0.1032799 0.0550000034 0.09931903
v -0.106720105 0.0550000034 0.0456809774
v -0.106819123 0.0550000034 0.09966338
v -0.106819123 0.0550000034 0.0453366339
v -0.106548443 0.0550000034 0.046012342
v -0.106850006 0.0550000034 0.100000009
v -0.106308155 0.0550000034 0.04630815
v -0.106012337 0.0550000034 0.04654844
v -0.105680972 0.0550000034 0.04672011
v -0.105336636 0.0550000034 0.0468191169
v -0.105000004 0.0550000034 0.04685
v -0.104663379 0.0550000034 0.0468191169
v -0.104319036 0.0550000034 0.04672011
v -0.103987671 0.0550000034 0.04654844
v -0.103691861 0.0550000034 0.04630815
v -0.103451565 0.0550000034 0.046012342
v -0.1032799 0.0550000034 0.0456809774
v -0.103180893 0.0550000034 0.0453366339
v -0.103180893 0.0550000034 0.09966338
v -0.10315 0.0550000034 0.045
v -0.10315 0.0550000034 0.100000009
v -0.1005 0.0550000034 0.11500001
v -0.103180893 0.0550000034 0.100336634
v -0.1032799 0.0550000034 0.10068097
v -0.103451565 0.0550000034 0.101012334
v -0.103691861 0.0550000034 0.101308152
v -0.103987671 0.0550000034 0.101548448
v -0.104319036 0.0550000034 0.10172011
v -0.104663379 0.0550000034 0.10181912
v -0.105000004 0.0550000034 0.10185
v -0.1005 0.0550000034 0.0105
v -0.103180893 0.0550000034 0.04466337
v -0.1032799 0.0550000034 0.0443190262
v -0.1095 0.0550000034 0.11500001
v -0.105336636 0.0550000034 0.10181912
v -0.105680972 0.0550000034 0.10172011
v -0.106012337 0.0550000034 0.101548448
v -0.103451565 0.0550000034 0.0439876653
v -0.106308155 0.0550000034 0.101308152
v -0.103691861 0.0550000034 0.04369186
v -0.106548443 0.0550000034 0.101012334
v -0.103987671 0.0550000034 0.04345156
v -0.106720105 0.0550000034 0.10068097
v -0.104319036 0.0550000034 0.0432798937
v -0.104663379 0.0550000034 0.0431808867
v -0.105000004 0.0550000034 0.043150004
v -0.1095 0.0550000034 0.0105
v -0.105336636 0.0550000034 0.0431808867
v -0.105680972 0.0550000034 0.0432798937
v -0.106819123 0.0550000034 0.100336634
v -0.106012337 0.0550000034 0.04345156
v -0.106308155 0.0550000034 0.04369186
v -0.106548443 0.0550000034 0.0439876653
v -0.106720105 0.0550000034 0.0443190262
v -0.106819123 0.0550000034 0.04466337
v -0.106850006 0.0550000034 0.045
v -0.1005 0.045 0.0100000007
v -0.104754351 0.04867254 0.0100000007
v -0.104503073 0.04874479 0.0100000007
v -0.104261272 0.0488700643 0.0100000007
v -0.104045413 0.0490454063 0.0100000007
v -0.103870064 0.04926127 0.0100000007
v -0.10374479 0.0495030768 0.0100000007
v -0.103672534 0.0497543477 0.0100000007
v -0.105000004 0.04865 0.0100000007
v -0.10365 0.0500000045 0.0100000007
v -0.1095 0.045 0.0100000007
v -0.10524565 0.04867254 0.0100000007
v -0.105496936 0.04874479 0.0100000007
v -0.1005 0.0545 0.0100000007
v -0.103672534 0.0502456538 0.0100000007
v -0.10374479 0.05049693 0.0100000007
v -0.105738744 0.0488700643 0.0100000007
v -0.103870064 0.050738737 0.0100000007
v -0.105954595 0.0490454063 0.0100000007
v -0.104045413 0.0509545952 0.0100000007
v -0.106129944 0.04926127 0.0100000007
v -0.104261272 0.0511299446 0.0100000007
v -0.106255226 0.0495030768 0.0100000007
v -0.106327467 0.0497543477 0.0100000007
v -0.106350005 0.0500000045 0.0100000007
v -0.1095 0.0545 0.0100000007
v -0.106327467 0.0502456538 0.0100000007
v -0.106255226 0.05049693 0.0100000007
v -0.104503073 0.05125521 0.0100000007
v -0.104754351 0.0513274632 0.0100000007
v -0.105000004 0.051350005 0.0100000007
v -0.106129944 0.050738737 0.0100000007
v -0.10524565 0.0513274632 0.0100000007
v -0.105954595 0.0509545952 0.0100000007
v -0.105496936 0.05125521 0.0100000007
v -0.105738744 0.0511299446 0.0100000007
v -0.100250006 0.05475 0.0627500042
v -0.1005 0.0550000034 0.0105
v -0.1005 0.0550000034 0.11500001
v -0.100000009 0.0545 0.11500001
v -0.100000009 0.0545 0.0105
v -0.10975 0.05475 0.0627500042
v -0.110000007 0.0545 0.0105
v -0.110000007 0.0545 0.11500001
v -0.1095 0.0550000034 0.11500001
v -0.1095 0.0550000034 0.0105
v -0.100250006 0.04975 0.01025
v -0.1005 0.0545 0.0100000007
v -0.100000009 0.0545 0.0105
v -0.100000009 0.0455000028 0.0105
v -0.1005 0.045 0.0100000007
v -0.105000004 0.05475 0.01025
v -0.1095 0.0550000034 0.0105
v -0.1005 0.0550000034 0.0105
v -0.1005 0.0545 0.0100000007
v -0.1095 0.0545 0.0100000007
v -0.1005 0.0545 0.0100000007
v -0.100250006 0.0546250045 0.0103750005
v -0.100000009 0.0545 0.0105
v -0.1005 0.0550000034 0.0105
v -0.10975 0.04975 0.01025
v -0.110000007 0.0545 0.0105
v -0.1095 0.0545 0.0100000007
v -0.1095 0.045 0.0100000007
v -0.110000007 0.0455000028 0.0105
v -0.100000009 0.0486189574 0.0259028971
v -0.100000009 0.0500000045 0.0627500042
v -0.100000009 0.048465848 0.0256073587
v -0.100000009 0.0488332734 0.0261667259
v -0.100000009 0.0490971059 0.0263810437
v -0.100000009 0.049392648 0.0265341513
v -0.100000009 0.0496997647 0.0266224537
v -0.100000009 0.0500000045 0.02665
v -0.100000009 0.0503002442 0.0266224537
v -0.100000009 0.05060736 0.0265341513
v -0.100000009 0.0509028956 0.0263810437
v -0.100000009 0.05116673 0.0261667259
v -0.100000009 0.0513810478 0.0259028971
v -0.100000009 0.0515341535 0.0256073587
v -0.100000009 0.04837755 0.0253002383
v -0.100000009 0.0516224578 0.0253002383
v -0.100000009 0.04837755 0.09469977
v -0.100000009 0.0483500026 0.0250000022
v -0.100000009 0.048465848 0.09439264
v -0.100000009 0.0486189574 0.09409711
v -0.100000009 0.0488332734 0.09383328
v -0.100000009 0.0490971059 0.09361896
v -0.100000009 0.049392648 0.09346586
v -0.100000009 0.0496997647 0.0933775455
v -0.100000009 0.0500000045 0.09335
v -0.100000009 0.0503002442 0.0933775455
v -0.100000009 0.05060736 0.09346586
v -0.100000009 0.0509028956 0.09361896
v -0.100000009 0.05116673 0.09383328
v -0.100000009 0.0513810478 0.09409711
v -0.100000009 0.0515341535 0.09439264
v -0.100000009 0.0516224578 0.09469977
v -0.100000009 0.05165 0.0950000063
v -0.100000009 0.05165 0.0250000022
v -0.100000009 0.0545 0.0105
v -0.100000009 0.0516224578 0.0246997625
v -0.100000009 0.0515341535 0.0243926439
v -0.100000009 0.0513810478 0.0240971055
v -0.100000009 0.05116673 0.0238332748
v -0.100000009 0.0509028956 0.0236189589
v -0.100000009 0.05060736 0.02346585
v -0.100000009 0.0503002442 0.0233775489
v -0.100000009 0.0500000045 0.02335
v -0.100000009 0.0455000028 0.0105
v -0.100000009 0.0496997647 0.0233775489
v -0.100000009 0.049392648 0.02346585
v -0.100000009 0.0490971059 0.0236189589
v -0.100000009 0.0488332734 0.0238332748
v -0.100000009 0.0486189574 0.0240971055
v -0.100000009 0.048465848 0.0243926439
v -0.100000009 0.04837755 0.0246997625
v -0.100000009 0.0483500026 0.0950000063
v -0.100000009 0.0455000028 0.11500001
v -0.100000009 0.0483500026 0.110000007
v -0.100000009 0.04837755 0.110300243
v -0.100000009 0.048465848 0.110607363
v -0.100000009 0.04837755 0.109699771
v -0.100000009 0.04837755 0.0953002349
v -0.100000009 0.048465848 0.109392643
v -0.100000009 0.048465848 0.0956073552
v -0.100000009 0.0486189574 0.110902905
v -0.100000009 0.0486189574 0.1090971
v -0.100000009 0.0486189574 0.0959029049
v -0.100000009 0.0488332734 0.09616673
v -0.100000009 0.0488332734 0.108833276
v -0.100000009 0.0490971059 0.0963810459
v -0.100000009 0.0490971059 0.10861896
v -0.100000009 0.049392648 0.0965341553
v -0.100000009 0.049392648 0.108465858
v -0.100000009 0.0496997647 0.09662247
v -0.100000009 0.0496997647 0.108377554
v -0.100000009 0.0488332734 0.111166731
v -0.100000009 0.0500000045 0.0966500044
v -0.100000009 0.0500000045 0.10835
v -0.100000009 0.0503002442 0.108377554
v -0.100000009 0.0503002442 0.09662247
v -0.100000009 0.05060736 0.108465858
v -0.100000009 0.05060736 0.0965341553
v -0.100000009 0.0509028956 0.10861896
v -0.100000009 0.0509028956 0.0963810459
v -0.100000009 0.05116673 0.108833276
v -0.100000009 0.05116673 0.09616673
v -0.100000009 0.0490971059 0.111381046
v -0.100000009 0.0513810478 0.1090971
v -0.100000009 0.0513810478 0.0959029049
v -0.100000009 0.0515341535 0.0956073552
v -0.100000009 0.0515341535 0.109392643
v -0.100000009 0.0516224578 0.0953002349
v -0.100000009 0.0516224578 0.109699771
v -0.100000009 0.049392648 0.111534148
v -0.100000009 0.0496997647 0.111622468
v -0.100000009 0.0500000045 0.111650005
v -0.100000009 0.0545 0.11500001
v -0.100000009 0.0503002442 0.111622468
v -0.100000009 0.05060736 0.111534148
v -0.100000009 0.0509028956 0.111381046
v -0.100000009 0.05116673 0.111166731
v -0.100000009 0.0513810478 0.110902905
v -0.100000009 0.0515341535 0.110607363
v -0.100000009 0.0516224578 0.110300243
v -0.100000009 0.05165 0.110000007
v -0.100250006 0.0452500023 0.0625
v -0.100000009 0.0455000028 0.11500001
v -0.1005 0.045 0.11500001
v -0.1005 0.045 0.0100000007
v -0.100000009 0.0455000028 0.0105
v -0.1005 0.045 0.11500001
v -0.104754351 0.045 0.101327464
v -0.104503073 0.045 0.101255223
v -0.104261272 0.045 0.101129942
v -0.104045413 0.045 0.100954592
v -0.103870064 0.045 0.100738741
v -0.10374479 0.045 0.100496933
v -0.103672534 0.045 0.100245655
v -0.105000004 0.045 0.101350009
v -0.10365 0.045 0.100000009
v -0.1095 0.045 0.11500001
v -0.10524565 0.045 0.101327464
v -0.105496936 0.045 0.101255223
v -0.105738744 0.045 0.101129942
v -0.105954595 0.045 0.100954592
v -0.106129944 0.045 0.100738741
v -0.106255226 0.045 0.100496933
v -0.106327467 0.045 0.100245655
v -0.106350005 0.045 0.100000009
v -0.106350005 0.045 0.045
v -0.1095 0.045 0.0100000007
v -0.106327467 0.045 0.04475435
v -0.106255226 0.045 0.0445030779
v -0.106327467 0.045 0.09975436
v -0.106129944 0.045 0.04426127
v -0.105954595 0.045 0.0440454073
v -0.105738744 0.045 0.04387006
v -0.105496936 0.045 0.0437447876
v -0.10524565 0.045 0.043672543
v -0.105000004 0.045 0.04365
v -0.1005 0.045 0.0100000007
v -0.104754351 0.045 0.043672543
v -0.104503073 0.045 0.0437447876
v -0.104261272 0.045 0.04387006
v -0.104045413 0.045 0.0440454073
v -0.103870064 0.045 0.04426127
v -0.10374479 0.045 0.0445030779
v -0.103672534 0.045 0.04475435
v -0.10365 0.045 0.045
v -0.103672534 0.045 0.0452456549
v -0.103672534 0.045 0.09975436
v -0.105000004 0.045 0.0625
v -0.10374479 0.045 0.09950307
v -0.10374479 0.045 0.04549693
v -0.103870064 0.045 0.09926127
v -0.103870064 0.045 0.045738738
v -0.104045413 0.045 0.09904541
v -0.104045413 0.045 0.0459546
v -0.104261272 0.045 0.09887006
v -0.104261272 0.045 0.0461299419
v -0.104503073 0.045 0.09874479
v -0.104503073 0.045 0.046255216
v -0.104754351 0.045 0.09867254
v -0.104754351 0.045 0.0463274643
v -0.105000004 0.045 0.09865
v -0.105000004 0.045 0.046350006
v -0.10524565 0.045 0.09867254
v -0.10524565 0.045 0.0463274643
v -0.105496936 0.045 0.09874479
v -0.105496936 0.045 0.046255216
v -0.105738744 0.045 0.09887006
v -0.105738744 0.045 0.0461299419
v -0.105954595 0.045 0.09904541
v -0.105954595 0.045 0.0459546
v -0.106129944 0.045 0.09926127
v -0.106129944 0.045 0.045738738
v -0.106255226 0.045 0.09950307
v -0.106255226 0.045 0.04549693
v -0.106327467 0.045 0.0452456549
v -0.10975 0.0452500023 0.0625
v -0.1095 0.045 0.11500001
v -0.110000007 0.0455000028 0.11500001
v -0.110000007 0.0455000028 0.0105
v -0.1095 0.045 0.0100000007
v -0.1095 0.0545 0.0100000007
v -0.10975 0.0546250045 0.0103750005
v -0.1095 0.0550000034 0.0105
v -0.110000007 0.0545 0.0105
v -0.1005 0.045 0.11500001
v -0.105000004 0.0500000045 0.11500001
v -0.1095 0.045 0.11500001
v -0.100000009 0.0455000028 0.11500001
v -0.110000007 0.0455000028 0.11500001
v -0.100000009 0.0545 0.11500001
v -0.110000007 0.0545 0.11500001
v -0.1005 0.0550000034 0.11500001
v -0.1095 0.0550000034 0.11500001
f 1 2 3
f 4 1 3
f 4 3 5
f 1 4 6
f 7 4 5
f 4 7 6
f 7 5 8
f 6 7 9
f 10 7 8
f 7 10 9
f 10 8 11
f 9 10 12
f 13 10 11
f 10 13 12
f 13 11 14
f 12 13 15
f 16 13 14
f 13 16 15
f 16 14 17
f 15 16 18
f 19 16 17
f 16 19 18
f 19 17 20
f 18 19 21
f 19 20 22
f 21 19 22
f 20 23 22
f 21 22 24
f 23 24 22
f 23 25 24
f 26 21 24
f 26 24 25
f 25 23 27
f 28 26 25
f 25 27 29
f 30 28 25
f 31 25 29
f 30 25 31
f 31 29 32
f 33 30 31
f 34 31 32
f 33 31 34
f 34 32 35
f 36 33 34
f 37 34 35
f 36 34 37
f 37 35 38
f 39 36 37
f 40 37 38
f 39 37 40
f 40 38 41
f 42 39 40
f 43 40 41
f 42 40 43
f 43 41 44
f 45 42 43
f 46 43 44
f 45 43 46
f 46 44 47
f 46 47 48
f 49 45 46
f 50 46 48
f 49 46 50
f 51 49 50
f 50 52 51
f 52 53 51
f 52 54 53
f 51 53 55
f 54 56 53
f 53 56 55
f 54 57 56
f 55 56 58
f 57 59 56
f 56 59 58
f 57 60 59
f 58 59 61
f 60 62 59
f 59 62 61
f 60 63 62
f 61 62 64
f 63 65 62
f 62 65 64
f 63 66 65
f 64 65 67
f 66 68 65
f 65 68 67
f 66 69 68
f 67 68 70
f 69 71 68
f 68 71 70
f 69 72 71
f 71 73 70
f 72 73 71
f 72 74 73
f 73 75 70
f 74 75 73
f 74 72 76
f 74 77 75
f 78 74 76
f 77 74 79
f 74 78 80
f 74 80 79
f 78 81 80
f 79 80 82
f 81 83 80
f 80 83 82
f 81 84 83
f 82 83 85
f 84 86 83
f 83 86 85
f 84 87 86
f 85 86 88
f 87 89 86
f 86 89 88
f 87 90 89
f 88 89 91
f 90 92 89
f 89 92 91
f 90 93 92
f 91 92 94
f 93 95 92
f 92 95 94
f 93 96 95
f 96 97 95
f 94 95 98
f 97 99 95
f 99 98 95
f 99 100 98
f 101 102 103
f 101 103 104
f 105 101 104
f 104 103 106
f 107 105 104
f 104 106 108
f 109 107 104
f 110 104 108
f 109 104 110
f 110 108 111
f 112 110 111
f 113 109 110
f 113 110 112
f 112 111 114
f 115 113 112
f 112 114 116
f 117 115 112
f 118 112 116
f 117 112 118
f 118 116 119
f 120 118 119
f 121 117 118
f 121 118 120
f 120 119 122
f 123 121 120
f 120 122 124
f 125 123 120
f 126 120 124
f 125 120 126
f 126 124 127
f 128 125 126
f 129 126 127
f 128 126 129
f 129 127 130
f 131 128 129
f 132 129 130
f 131 129 132
f 132 130 133
f 134 131 132
f 135 132 133
f 134 132 135
f 135 133 136
f 137 134 135
f 138 135 136
f 137 135 138
f 138 136 139
f 140 137 138
f 141 138 139
f 140 138 141
f 141 139 142
f 143 140 141
f 144 141 142
f 143 141 144
f 145 143 144
f 144 146 145
f 146 147 145
f 146 148 147
f 145 147 149
f 147 150 149
f 148 151 147
f 147 152 150
f 151 153 147
f 147 153 152
f 151 154 153
f 154 155 153
f 153 156 152
f 153 155 156
f 154 157 155
f 155 158 156
f 157 159 155
f 155 160 158
f 159 161 155
f 155 161 160
f 159 162 161
f 162 163 161
f 161 164 160
f 161 163 164
f 162 165 163
f 163 166 164
f 165 167 163
f 163 168 166
f 167 169 163
f 163 169 168
f 167 170 169
f 169 171 168
f 170 172 169
f 169 172 171
f 170 173 172
f 172 174 171
f 173 175 172
f 172 175 174
f 173 176 175
f 175 177 174
f 176 178 175
f 175 178 177
f 176 179 178
f 178 180 177
f 179 181 178
f 178 181 180
f 179 182 181
f 181 183 180
f 182 184 181
f 181 184 183
f 182 185 184
f 184 186 183
f 185 187 184
f 187 186 184
f 187 188 186
f 189 190 191
f 189 191 192
f 193 189 192
f 192 191 194
f 195 193 192
f 192 194 196
f 197 195 192
f 198 192 196
f 197 192 198
f 198 196 199
f 200 198 199
f 201 197 198
f 201 198 200
f 200 199 202
f 203 201 200
f 200 202 204
f 205 203 200
f 206 200 204
f 205 200 206
f 206 204 207
f 208 206 207
f 209 205 206
f 209 206 208
f 208 207 210
f 211 209 208
f 208 210 212
f 213 211 208
f 214 208 212
f 213 208 214
f 214 212 215
f 216 213 214
f 217 214 215
f 216 214 217
f 217 215 218
f 219 216 217
f 220 217 218
f 219 217 220
f 220 218 221
f 222 219 220
f 223 220 221
f 222 220 223
f 223 221 224
f 225 222 223
f 226 223 224
f 225 223 226
f 226 224 227
f 228 225 226
f 229 226 227
f 228 226 229
f 229 227 230
f 231 228 229
f 232 229 230
f 231 229 232
f 233 231 232
f 232 234 233
f 234 235 233
f 234 236 235
f 233 235 237
f 235 238 237
f 236 239 235
f 235 240 238
f 239 241 235
f 235 241 240
f 239 242 241
f 242 243 241
f 241 244 240
f 241 243 244
f 242 245 243
f 243 246 244
f 245 247 243
f 243 248 246
f 247 249 243
f 243 249 248
f 247 250 249
f 250 251 249
f 249 252 248
f 249 251 252
f 250 253 251
f 251 254 252
f 253 255 251
f 251 256 254
f 255 257 251
f 251 257 256
f 255 258 257
f 257 259 256
f 258 260 257
f 257 260 259
f 258 261 260
f 260 262 259
f 261 263 260
f 260 263 262
f 261 264 263
f 263 265 262
f 264 266 263
f 263 266 265
f 264 267 266
f 266 268 265
f 267 269 266
f 266 269 268
f 267 270 269
f 269 271 268
f 270 272 269
f 269 272 271
f 270 273 272
f 272 274 271
f 273 275 272
f 275 274 272
f 275 276 274
f 277 278 279
f 277 279 280
f 281 277 280
f 280 279 282
f 283 281 280
f 284 280 282
f 283 280 284
f 284 282 285
f 286 283 284
f 287 284 285
f 286 284 287
f 287 285 288
f 289 286 287
f 290 287 288
f 289 287 290
f 290 288 291
f 292 289 290
f 293 290 291
f 292 290 293
f 293 291 294
f 295 292 293
f 296 293 294
f 295 293 296
f 296 294 297
f 298 296 297
f 299 295 296
f 299 296 298
f 298 297 300
f 301 299 298
f 302 298 300
f 303 301 298
f 304 298 302
f 303 298 304
f 305 304 302
f 306 303 304
f 307 304 305
f 307 306 304
f 308 307 305
f 307 308 306
f 308 305 309
f 308 310 306
f 311 308 309
f 308 311 310
f 311 309 312
f 311 313 310
f 314 311 312
f 311 314 313
f 314 312 315
f 314 316 313
f 317 314 315
f 314 317 316
f 317 315 318
f 317 319 316
f 320 317 318
f 317 320 319
f 320 318 321
f 320 322 319
f 323 320 321
f 320 323 322
f 323 321 324
f 322 323 325
f 323 324 325
f 324 326 325
f 326 327 325
f 325 327 328
f 326 329 327
f 327 330 328
f 329 331 327
f 327 331 330
f 329 332 331
f 331 333 330
f 332 334 331
f 331 334 333
f 332 335 334
f 334 336 333
f 335 337 334
f 334 337 336
f 335 338 337
f 337 339 336
f 338 340 337
f 337 340 339
f 338 341 340
f 340 342 339
f 341 343 340
f 340 343 342
f 341 344 343
f 344 345 343
f 343 346 342
f 343 345 346
f 344 347 345
f 345 348 346
f 347 349 345
f 345 350 348
f 349 351 345
f 345 351 350
f 349 352 351
f 351 353 350
f 352 354 351
f 351 354 353
f 352 355 354
f 355 353 354
f 356 355 352
f 355 357 353
f 358 355 356
f 355 358 357
f 359 358 356
f 358 360 357
f 361 358 359
f 358 361 360
f 362 361 359
f 361 363 360
f 364 361 362
f 361 364 363
f 365 364 362
f 364 366 363
f 367 364 365
f 364 367 366
f 368 367 365
f 367 369 366
f 370 367 368
f 367 370 369
f 371 370 368
f 370 372 369
f 370 371 372
f 373 374 375
f 373 375 376
f 377 373 376
f 378 376 375
f 379 377 376
f 380 376 378
f 379 376 380
f 381 380 378
f 382 379 380
f 383 380 381
f 383 382 380
f 384 383 381
f 385 384 381
f 386 385 381
f 387 382 383
f 382 387 388
f 382 388 389
f 390 382 389
f 389 391 390
f 386 381 392
f 393 386 392
f 394 393 392
f 394 392 395
f 396 394 395
f 396 395 397
f 398 396 397
f 398 397 399
f 400 398 399
f 391 401 390
f 391 402 401
f 402 403 401
f 403 404 401
f 403 405 404
f 405 406 404
f 405 407 406
f 400 399 408
f 409 400 408
f 410 409 408
f 410 408 411
f 412 410 411
f 412 411 413
f 414 412 413
f 407 415 406
f 407 416 415
f 416 417 415
f 417 418 415
f 417 419 418
f 419 420 418
f 419 421 420
f 421 422 420
f 421 423 422
f 414 413 424
f 425 414 424
f 426 425 424
f 426 424 427
f 428 426 427
f 423 429 422
f 423 430 429
f 430 431 429
f 428 427 432
f 431 433 429
f 434 428 432
f 431 435 433
f 436 434 432
f 435 437 433
f 438 436 432
f 437 438 433
f 439 438 432
f 438 439 433
f 439 432 440
f 433 439 441
f 442 439 440
f 439 442 441
f 442 440 443
f 441 442 444
f 445 442 443
f 442 445 444
f 445 443 446
f 444 445 447
f 445 446 447
f 447 446 448
f 447 448 449
f 450 447 449
f 451 449 448
f 452 450 449
f 453 449 451
f 452 449 453
f 454 453 451
f 455 452 453
f 453 454 456
f 455 453 456
f 454 457 456
f 454 458 457
f 458 454 459
f 460 455 456
f 455 460 461
f 455 461 462
f 463 455 462
f 463 462 464
f 454 465 459
f 465 466 459
f 465 467 466
f 465 468 467
f 468 469 467
f 468 470 469
f 470 471 469
f 470 472 471
f 472 473 471
f 474 463 464
f 474 464 475
f 474 475 476
f 477 474 476
f 477 476 478
f 479 477 478
f 479 478 480
f 472 481 473
f 481 482 473
f 481 483 482
f 481 484 483
f 484 485 483
f 484 486 485
f 486 487 485
f 488 479 480
f 488 480 489
f 488 489 490
f 491 488 490
f 491 490 492
f 493 491 492
f 493 492 494
f 495 493 494
f 495 494 496
f 486 497 487
f 497 498 487
f 497 499 498
f 497 500 499
f 500 501 499
f 502 495 496
f 502 496 503
f 502 503 504
f 500 505 501
f 506 502 504
f 505 507 501
f 506 504 508
f 505 509 507
f 510 506 508
f 509 505 511
f 510 511 506
f 511 505 512
f 511 512 506
f 505 513 512
f 514 506 512
f 513 515 512
f 514 512 515
f 513 516 515
f 517 514 515
f 516 518 515
f 517 515 518
f 516 519 518
f 520 517 518
f 519 520 518
f 521 522 523
f 522 524 523
f 524 522 525
f 523 524 526
f 524 525 527
f 524 528 526
f 529 524 527
f 524 529 528
f 529 527 530
f 529 531 528
f 532 529 530
f 529 532 531
f 532 530 533
f 532 534 531
f 535 532 533
f 532 535 534
f 535 533 536
f 535 537 534
f 538 535 536
f 535 538 537
f 538 536 539
f 538 540 537
f 541 538 539
f 538 541 540
f 541 539 542
f 543 541 542
f 541 544 540
f 541 543 544
f 543 542 545
f 543 546 544
f 543 547 546
f 543 545 548
f 543 549 547
f 549 543 548
f 549 550 547
f 549 548 551
f 550 549 551
f 552 551 548
f 550 551 553
f 553 551 552
f 554 550 553
f 555 553 552
f 554 553 556
f 556 553 555
f 557 554 556
f 558 556 555
f 557 556 559
f 559 556 558
f 560 557 559
f 561 559 558
f 560 559 562
f 562 559 561
f 563 560 562
f 564 562 561
f 563 562 565
f 565 562 564
f 566 563 565
f 567 565 564
f 568 566 565
f 568 565 567
f 569 568 567
f 568 569 570
f 566 568 571
f 568 570 571
f 570 572 571
f 572 573 571
f 572 574 573
f 571 573 575
f 574 576 573
f 573 577 575
f 576 578 573
f 573 578 577
f 576 579 578
f 578 580 577
f 579 581 578
f 578 581 580
f 579 582 581
f 581 583 580
f 582 584 581
f 581 584 583
f 582 585 584
f 584 586 583
f 585 587 584
f 584 587 586
f 585 588 587
f 587 589 586
f 588 590 587
f 587 590 589
f 588 591 590
f 591 592 590
f 590 593 589
f 590 592 593
f 591 594 592
f 592 595 593
f 592 596 595
f 594 597 592
f 592 598 596
f 597 598 592
f 598 599 596
f 597 600 598
f 600 599 598
f 600 597 601
f 600 602 599
f 602 600 601
f 602 603 599
f 602 601 604
f 602 605 603
f 605 602 604
f 605 606 603
f 605 604 607
f 605 608 606
f 608 605 607
f 608 609 606
f 608 607 610
f 608 611 609
f 611 608 610
f 611 612 609
f 611 610 613
f 611 614 612
f 614 611 613
f 614 615 612
f 614 613 616
f 614 617 615
f 617 614 616
f 617 618 615
f 617 616 619
f 617 620 618
f 620 617 619
f 621 622 623
f 621 623 624
f 625 621 624
f 624 623 626
f 627 625 624
f 628 624 626
f 627 624 628
f 628 626 629
f 630 627 628
f 631 628 629
f 630 628 631
f 631 629 632
f 633 630 631
f 634 631 632
f 633 631 634
f 634 632 635
f 636 633 634
f 637 634 635
f 636 634 637
f 637 635 638
f 639 636 637
f 640 637 638
f 639 637 640
f 640 638 641
f 642 640 641
f 643 639 640
f 643 640 642
f 642 641 644
f 645 643 642
f 646 642 644
f 647 645 642
f 648 642 646
f 647 642 648
f 649 648 646
f 650 647 648
f 651 648 649
f 651 650 648
f 652 651 649
f 651 652 650
f 652 649 653
f 652 654 650
f 655 652 653
f 652 655 654
f 655 653 656
f 655 657 654
f 658 655 656
f 655 658 657
f 658 656 659
f 658 660 657
f 661 658 659
f 658 661 660
f 661 659 662
f 661 663 660
f 664 661 662
f 661 664 663
f 664 662 665
f 664 666 663
f 667 664 665
f 664 667 666
f 667 665 668
f 666 667 669
f 667 668 669
f 668 670 669
f 670 671 669
f 669 671 672
f 670 673 671
f 671 674 672
f 673 675 671
f 671 675 674
f 673 676 675
f 675 677 674
f 676 678 675
f 675 678 677
f 676 679 678
f 678 680 677
f 679 681 678
f 678 681 680
f 679 682 681
f 681 683 680
f 682 684 681
f 681 684 683
f 682 685 684
f 684 686 683
f 685 687 684
f 684 687 686
f 685 688 687
f 688 689 687
f 687 690 686
f 687 689 690
f 688 691 689
f 689 692 690
f 691 693 689
f 689 694 692
f 693 695 689
f 689 695 694
f 693 696 695
f 695 697 694
f 696 698 695
f 695 698 697
f 696 699 698
f 699 697 698
f 700 699 696
f 699 701 697
f 702 699 700
f 699 702 701
f 703 702 700
f 702 704 701
f 705 702 703
f 702 705 704
f 706 705 703
f 705 707 704
f 708 705 706
f 705 708 707
f 709 708 706
f 708 710 707
f 711 708 709
f 708 711 710
f 712 711 709
f 711 713 710
f 714 711 712
f 711 714 713
f 715 714 712
f 714 716 713
f 714 715 716
f 717 718 719
f 717 719 720
f 721 717 720
f 720 719 722
f 723 721 720
f 724 720 722
f 723 720 724
f 724 722 725
f 726 723 724
f 727 724 725
f 726 724 727
f 727 725 728
f 729 726 727
f 730 727 728
f 729 727 730
f 730 728 731
f 732 729 730
f 733 730 731
f 732 730 733
f 733 731 734
f 735 732 733
f 736 733 734
f 735 733 736
f 736 734 737
f 738 736 737
f 739 735 736
f 739 736 738
f 738 737 740
f 741 739 738
f 742 738 740
f 743 741 738
f 744 738 742
f 743 738 744
f 745 744 742
f 746 743 744
f 747 744 745
f 747 746 744
f 748 747 745
f 747 748 746
f 748 745 749
f 748 750 746
f 751 748 749
f 748 751 750
f 751 749 752
f 751 753 750
f 754 751 752
f 751 754 753
f 754 752 755
f 754 756 753
f 757 754 755
f 754 757 756
f 757 755 758
f 757 759 756
f 760 757 758
f 757 760 759
f 760 758 761
f 760 762 759
f 763 760 761
f 760 763 762
f 763 761 764
f 762 763 765
f 763 764 765
f 764 766 765
f 766 767 765
f 765 767 768
f 766 769 767
f 767 770 768
f 769 771 767
f 767 771 770
f 769 772 771
f 771 773 770
f 772 774 771
f 771 774 773
f 772 775 774
f 774 776 773
f 775 777 774
f 774 777 776
f 775 778 777
f 777 779 776
f 778 780 777
f 777 780 779
f 778 781 780
f 780 782 779
f 781 783 780
f 780 783 782
f 781 784 783
f 784 785 783
f 783 786 782
f 783 785 786
f 784 787 785
f 785 788 786
f 787 789 785
f 785 790 788
f 789 791 785
f 785 791 790
f 789 792 791
f 791 793 790
f 792 794 791
f 791 794 793
f 792 795 794
f 795 793 794
f 796 795 792
f 795 797 793
f 798 795 796
f 795 798 797
f 799 798 796
f 798 800 797
f 801 798 799
f 798 801 800
f 802 801 799
f 801 803 800
f 804 801 802
f 801 804 803
f 805 804 802
f 804 806 803
f 807 804 805
f 804 807 806
f 808 807 805
f 807 809 806
f 810 807 808
f 807 810 809
f 811 810 808
f 810 812 809
f 810 811 812
f 813 814 815
f 813 815 816
f 817 813 816
f 816 815 818
f 819 817 816
f 820 816 818
f 819 816 820
f 820 818 821
f 822 819 820
f 823 820 821
f 822 820 823
f 823 821 824
f 825 822 823
f 826 823 824
f 825 823 826
f 826 824 827
f 828 825 826
f 829 826 827
f 828 826 829
f 829 827 830
f 831 828 829
f 832 829 830
f 831 829 832
f 832 830 833
f 834 832 833
f 835 831 832
f 835 832 834
f 834 833 836
f 837 835 834
f 838 834 836
f 839 837 834
f 840 834 838
f 839 834 840
f 841 840 838
f 842 839 840
f 843 840 841
f 843 842 840
f 844 843 841
f 843 844 842
f 844 841 845
f 844 846 842
f 847 844 845
f 844 847 846
f 847 845 848
f 847 849 846
f 850 847 848
f 847 850 849
f 850 848 851
f 850 852 849
f 853 850 851
f 850 853 852
f 853 851 854
f 853 855 852
f 856 853 854
f 853 856 855
f 856 854 857
f 856 858 855
f 859 856 857
f 856 859 858
f 859 857 860
f 858 859 861
f 859 860 861
f 860 862 861
f 862 863 861
f 861 863 864
f 862 865 863
f 863 866 864
f 865 867 863
f 863 867 866
f 865 868 867
f 867 869 866
f 868 870 867
f 867 870 869
f 868 871 870
f 870 872 869
f 871 873 870
f 870 873 872
f 871 874 873
f 873 875 872
f 874 876 873
f 873 876 875
f 874 877 876
f 876 878 875
f 877 879 876
f 876 879 878
f 877 880 879
f 880 881 879
f 879 882 878
f 879 881 882
f 880 883 881
f 881 884 882
f 883 885 881
f 881 886 884
f 885 887 881
f 881 887 886
f 885 888 887
f 887 889 886
f 888 890 887
f 887 890 889
f 888 891 890
f 891 889 890
f 892 891 888
f 891 893 889
f 894 891 892
f 891 894 893
f 895 894 892
f 894 896 893
f 897 894 895
f 894 897 896
f 898 897 895
f 897 899 896
f 900 897 898
f 897 900 899
f 901 900 898
f 900 902 899
f 903 900 901
f 900 903 902
f 904 903 901
f 903 905 902
f 906 903 904
f 903 906 905
f 907 906 904
f 906 908 905
f 906 907 908
f 909 910 911
f 910 909 912
f 910 913 911
f 910 912 914
f 913 910 915
f 916 910 914
f 910 917 915
f 910 916 918
f 910 919 917
f 910 918 920
f 919 910 921
f 922 910 920
f 910 923 921
f 910 922 924
f 910 925 923
f 910 924 926
f 925 910 927
f 928 910 926
f 910 929 927
f 910 928 930
f 910 931 929
f 910 930 932
f 931 910 933
f 934 910 932
f 910 935 933
f 910 934 936
f 910 937 935
f 910 936 938
f 937 910 939
f 940 910 938
f 910 941 939
f 910 940 941
f 942 943 944
f 942 944 945
f 946 942 945
f 942 946 947
f 942 947 948
f 949 942 948
f 943 942 950
f 942 949 951
f 942 952 950
f 952 953 950
f 952 954 953
f 955 954 952
f 956 955 952
f 957 956 952
f 958 957 952
f 959 958 952
f 960 959 952
f 942 951 961
f 962 942 961
f 951 963 961
f 960 952 964
f 965 960 964
f 952 966 964
f 966 962 967
f 968 966 967
f 966 968 969
f 962 970 967
f 962 971 970
f 966 969 972
f 973 971 962
f 974 966 972
f 975 973 962
f 966 974 976
f 977 975 962
f 966 976 978
f 979 966 978
f 980 977 962
f 981 980 962
f 982 981 962
f 966 979 983
f 982 962 961
f 966 983 964
f 984 982 961
f 964 983 985
f 983 986 985
f 986 987 985
f 986 988 987
f 985 987 989
f 988 990 987
f 987 991 989
f 990 992 987
f 987 993 991
f 992 994 987
f 993 987 995
f 994 996 987
f 987 997 995
f 996 998 987
f 987 999 997
f 998 1000 987
f 999 987 1001
f 1000 1002 987
f 987 1003 1001
f 1002 1004 987
f 987 1005 1003
f 1004 1006 987
f 1005 987 1007
f 1006 1008 987
f 987 1009 1007
f 1008 1010 987
f 987 1011 1009
f 1010 1012 987
f 1011 987 1013
f 1012 984 987
f 987 1014 1013
f 984 1014 987
f 984 961 1014
f 963 1015 961
f 963 1016 1015
f 1016 1017 1015
f 1016 1018 1017
f 1018 1019 1017
f 1018 1020 1019
f 1018 1021 1020
f 1021 1022 1020
f 1021 1023 1022
f 1023 1024 1022
f 1023 1025 1024
f 1025 1026 1024
f 1025 1027 1026
f 1027 1028 1026
f 1027 1029 1028
f 1029 1030 1028
f 1030 1031 1028
f 1030 1032 1031
f 1032 1033 1031
f 1032 1034 1033
f 1034 1035 1033
f 1034 1036 1035
f 1036 1037 1035
f 1036 1038 1037
f 1038 1039 1037
f 1038 1040 1039
f 1038 1041 1040
f 1041 1042 1040
f 1041 965 1042
f 965 964 1042
f 1043 1044 1045
f 1046 1043 1045
f 1047 1046 1045
f 1048 1047 1045
f 1049 1048 1045
f 1050 1049 1045
f 1051 1050 1045
f 1052 1051 1045
f 1053 1052 1045
f 1054 1053 1045
f 1055 1054 1045
f 1044 1056 1045
f 1055 1045 1057
f 1058 1055 1057
f 1058 1057 1059
f 1057 1045 1060
f 1061 1058 1059
f 1045 1062 1060
f 1045 1063 1062
f 1063 1045 1064
f 1045 1065 1064
f 1045 1066 1065
f 1066 1045 1067
f 1045 1068 1067
f 1045 1069 1068
f 1069 1045 1070
f 1045 1071 1070
f 1045 1072 1071
f 1056 1072 1045
f 1056 1073 1072
f 1056 1074 1073
f 1074 1075 1073
f 1074 1076 1075
f 1076 1077 1075
f 1076 1078 1077
f 1078 1079 1077
f 1079 1080 1077
f 1080 1081 1077
f 1081 1082 1077
f 1082 1083 1077
f 1077 1083 1084
f 1077 1084 1085
f 1077 1086 1075
f 1086 1087 1075
f 1086 1088 1087
f 1089 1077 1085
f 1090 1089 1085
f 1089 1090 1091
f 1089 1091 1092
f 1088 1086 1093
f 1094 1089 1092
f 1086 1095 1093
f 1089 1094 1096
f 1086 1097 1095
f 1089 1096 1098
f 1097 1086 1099
f 1086 1100 1099
f 1086 1101 1100
f 1086 1102 1101
f 1102 1103 1101
f 1102 1104 1103
f 1105 1089 1098
f 1104 1102 1106
f 1102 1107 1106
f 1102 1108 1107
f 1108 1102 1109
f 1102 1110 1109
f 1102 1111 1110
f 1102 1089 1111
f 1089 1105 1061
f 1089 1061 1111
f 1111 1061 1059
f 1112 1113 1114
f 1115 1112 1114
f 1112 1115 1116
f 1112 1116 1117
f 1118 1112 1117
f 1112 1118 1119
f 1112 1120 1113
f 1112 1119 1121
f 1112 1122 1120
f 1122 1123 1120
f 1122 1124 1123
f 1125 1112 1121
f 1125 1121 1126
f 1125 1126 1127
f 1124 1122 1128
f 1129 1125 1127
f 1122 1130 1128
f 1125 1129 1131
f 1122 1132 1130
f 1125 1131 1133
f 1132 1122 1134
f 1122 1135 1134
f 1122 1136 1135
f 1122 1137 1136
f 1137 1138 1136
f 1137 1139 1138
f 1140 1125 1133
f 1125 1140 1141
f 1125 1141 1142
f 1137 1125 1142
f 1139 1137 1143
f 1137 1142 1144
f 1137 1145 1143
f 1137 1144 1146
f 1137 1147 1145
f 1147 1137 1146
f 1148 1149 1150
f 1148 1150 1151
f 1149 1148 1152
f 1152 1148 1151
f 1153 1154 1155
f 1153 1155 1156
f 1154 1153 1157
f 1157 1153 1156
f 1158 1159 1160
f 1158 1160 1161
f 1159 1158 1162
f 1162 1158 1161
f 1163 1164 1165
f 1163 1165 1166
f 1164 1163 1167
f 1167 1163 1166
f 1168 1169 1170
f 1169 1168 1171
f 1169 1171 1170
f 1172 1173 1174
f 1172 1174 1175
f 1173 1172 1176
f 1176 1172 1175
f 1177 1178 1179
f 1178 1177 1180
f 1178 1180 1181
f 1182 1178 1181
f 1178 1182 1183
f 1178 1183 1184
f 1185 1178 1184
f 1178 1185 1186
f 1178 1186 1187
f 1188 1178 1187
f 1178 1188 1189
f 1178 1189 1190
f 1178 1191 1179
f 1192 1178 1190
f 1193 1191 1178
f 1193 1194 1191
f 1195 1193 1178
f 1196 1195 1178
f 1197 1196 1178
f 1198 1197 1178
f 1199 1198 1178
f 1200 1199 1178
f 1201 1200 1178
f 1202 1201 1178
f 1203 1202 1178
f 1204 1203 1178
f 1205 1204 1178
f 1206 1205 1178
f 1207 1206 1178
f 1208 1207 1178
f 1208 1178 1192
f 1209 1208 1192
f 1209 1192 1210
f 1211 1209 1210
f 1211 1210 1212
f 1211 1212 1213
f 1214 1211 1213
f 1211 1214 1215
f 1211 1215 1216
f 1217 1211 1216
f 1211 1217 1218
f 1211 1218 1219
f 1220 1211 1219
f 1221 1220 1219
f 1220 1221 1222
f 1220 1222 1223
f 1224 1220 1223
f 1220 1224 1225
f 1220 1225 1226
f 1227 1220 1226
f 1220 1227 1194
f 1220 1194 1228
f 1228 1194 1193
f 1229 1220 1228
f 1230 1229 1228
f 1230 1231 1229
f 1231 1232 1229
f 1233 1230 1228
f 1228 1234 1233
f 1234 1235 1233
f 1234 1236 1235
f 1232 1237 1229
f 1236 1238 1235
f 1236 1239 1238
f 1239 1240 1238
f 1240 1241 1238
f 1240 1242 1241
f 1242 1243 1241
f 1242 1244 1243
f 1244 1245 1243
f 1244 1246 1245
f 1246 1247 1245
f 1237 1248 1229
f 1246 1249 1247
f 1249 1250 1247
f 1249 1251 1250
f 1249 1252 1251
f 1252 1253 1251
f 1252 1254 1253
f 1254 1255 1253
f 1254 1256 1255
f 1256 1257 1255
f 1256 1258 1257
f 1248 1259 1229
f 1258 1260 1257
f 1258 1261 1260
f 1261 1262 1260
f 1262 1263 1260
f 1262 1264 1263
f 1264 1265 1263
f 1259 1266 1229
f 1229 1266 1267
f 1229 1267 1268
f 1269 1229 1268
f 1270 1269 1268
f 1269 1270 1271
f 1269 1271 1272
f 1264 1209 1265
f 1273 1269 1272
f 1269 1273 1274
f 1269 1274 1275
f 1276 1269 1275
f 1211 1269 1209
f 1209 1277 1265
f 1269 1276 1277
f 1269 1277 1209
f 1278 1279 1280
f 1281 1278 1280
f 1278 1282 1279
f 1282 1278 1281
f 1283 1284 1285
f 1283 1285 1286
f 1287 1283 1286
f 1283 1287 1288
f 1283 1288 1289
f 1290 1283 1289
f 1284 1283 1291
f 1283 1290 1292
f 1283 1293 1291
f 1293 1294 1291
f 1293 1295 1294
f 1296 1295 1293
f 1297 1296 1293
f 1298 1297 1293
f 1299 1298 1293
f 1300 1299 1293
f 1301 1300 1293
f 1301 1293 1302
f 1293 1303 1302
f 1303 1304 1302
f 1303 1305 1304
f 1306 1301 1302
f 1305 1303 1307
f 1303 1308 1307
f 1303 1309 1308
f 1309 1303 1310
f 1303 1311 1310
f 1303 1312 1311
f 1303 1313 1312
f 1313 1314 1312
f 1313 1315 1314
f 1315 1313 1316
f 1313 1317 1316
f 1313 1318 1317
f 1318 1313 1319
f 1313 1320 1319
f 1313 1321 1320
f 1313 1283 1321
f 1283 1292 1321
f 1321 1292 1322
f 1292 1323 1322
f 1323 1324 1322
f 1323 1325 1324
f 1322 1324 1326
f 1325 1327 1324
f 1324 1328 1326
f 1327 1329 1324
f 1324 1330 1328
f 1329 1331 1324
f 1330 1324 1332
f 1331 1333 1324
f 1324 1334 1332
f 1333 1335 1324
f 1324 1336 1334
f 1335 1337 1324
f 1336 1324 1338
f 1337 1339 1324
f 1324 1340 1338
f 1339 1341 1324
f 1324 1342 1340
f 1341 1343 1324
f 1342 1324 1344
f 1343 1345 1324
f 1324 1346 1344
f 1345 1347 1324
f 1324 1348 1346
f 1347 1349 1324
f 1348 1324 1350
f 1349 1306 1324
f 1324 1351 1350
f 1306 1351 1324
f 1306 1302 1351
f 1352 1353 1354
f 1355 1352 1354
f 1352 1356 1353
f 1356 1352 1355
f 1357 1358 1359
f 1358 1357 1360
f 1358 1360 1359
f 1361 1362 1363
f 1362 1361 1364
f 1362 1365 1363
f 1366 1362 1364
f 1362 1367 1365
f 1362 1366 1368
f 1367 1362 1369
f 1362 1368 1369
