# ROS coordinates: X forward, Y left, Z up; units are metres.
o mesh
v 0.03670613 0.0850706846 0.0823994055
v 0.03620613 0.08457069 0.0823994055
v 0.03620613 0.0855706856 0.0823994055
v 0.037206132 0.0855706856 0.0823994055
v 0.037206132 0.08457069 0.0823994055
v 0.03670613 0.0850706846 0.0973994061
v 0.037206132 0.08457069 0.0973994061
v 0.037206132 0.0855706856 0.0973994061
v 0.03620613 0.0855706856 0.0973994061
v 0.03620613 0.08457069 0.0973994061
v 0.03670613 0.0855706856 0.0898994058
v 0.037206132 0.0855706856 0.0973994061
v 0.037206132 0.0855706856 0.0823994055
v 0.03620613 0.0855706856 0.0823994055
v 0.03620613 0.0855706856 0.0973994061
v 0.037206132 0.0850706846 0.0898994058
v 0.037206132 0.08457069 0.0973994061
v 0.037206132 0.08457069 0.0823994055
v 0.037206132 0.0855706856 0.0823994055
v 0.037206132 0.0855706856 0.0973994061
v 0.03670613 0.08457069 0.0898994058
v 0.03620613 0.08457069 0.0973994061
v 0.03620613 0.08457069 0.0823994055
v 0.037206132 0.08457069 0.0823994055
v 0.037206132 0.08457069 0.0973994061
v 0.03620613 0.08457069 0.0973994061
v 0.03620613 0.0850706846 0.0898994058
v 0.03620613 0.08457069 0.0823994055
v 0.03620613 0.0855706856 0.0973994061
v 0.03620613 0.0855706856 0.0823994055
f 1 2 3
f 1 3 4
f 2 1 5
f 5 1 4
f 6 7 8
f 6 8 9
f 7 6 10
f 10 6 9
f 11 12 13
f 11 13 14
f 12 11 15
f 15 11 14
f 16 17 18
f 16 18 19
f 17 16 20
f 20 16 19
f 21 22 23
f 21 23 24
f 22 21 25
f 25 21 24
f 26 27 28
f 29 27 26
f 27 30 28
f 27 29 30
