# ROS coordinates: X forward, Y left, Z up; units are metres.
o mesh
v -0.0377491824 0.117445543 0.008
v -0.0377491824 0.117445543 0.0100000007
v -0.03745758 0.117466651 0.0100000007
v -0.0374149121 0.117474295 0.009000001
v -0.03745758 0.117466651 0.008
v -0.03715818 0.117546536 0.0100000007
v -0.03715818 0.117546536 0.008
v -0.0370736234 0.117580928 0.009000001
v -0.0368687958 0.117689468 0.0100000007
v -0.0368687958 0.117689468 0.008
v -0.0367527232 0.117769539 0.009000001
v -0.0366090126 0.117892332 0.0100000007
v -0.0366090126 0.117892332 0.008
v -0.03648079 0.118031219 0.009000001
v -0.03639631 0.118144125 0.0100000007
v -0.03639631 0.118144125 0.008
v -0.0362799726 0.118344627 0.009000001
v -0.03624236 0.1184278 0.0100000007
v -0.03624236 0.1184278 0.008
v -0.0361603051 0.118681565 0.009000001
v -0.03615102 0.118723914 0.0100000007
v -0.03611872 0.119014487 0.009000001
v -0.03615102 0.118723914 0.008
v -0.03611872 0.119014487 0.0100000007
v -0.03611872 0.119014487 0.008
v -0.0361398272 0.119306087 0.0100000007
v -0.0361398272 0.119306087 0.008
v -0.0361474752 0.119348757 0.009000001
v -0.0362197161 0.119605489 0.0100000007
v -0.0362197161 0.119605489 0.008
v -0.0362197161 0.119605489 0.009000001
v -0.0363383964 0.1198549 0.009000001
v -0.0363626443 0.119894877 0.0100000007
v -0.0363626443 0.119894877 0.008
v -0.0365019366 0.120084554 0.009000001
v -0.0365655124 0.120154656 0.0100000007
v -0.0365655124 0.120154656 0.008
v -0.03670439 0.120282881 0.009000001
v -0.0368173048 0.120367363 0.0100000007
v -0.0368173048 0.120367363 0.008
v -0.0369361 0.120440945 0.009000001
v -0.03710098 0.120521307 0.0100000007
v -0.03710098 0.120521307 0.008
v -0.03718516 0.120553762 0.009000001
v -0.03739709 0.120612644 0.0100000007
v -0.03739709 0.120612644 0.008
v -0.0374393128 0.120620713 0.009000001
v -0.037687663 0.120644949 0.0100000007
v -0.037687663 0.120644949 0.008
v -0.0379792638 0.120623842 0.0100000007
v -0.0380219333 0.12061619 0.009000001
v -0.0379792638 0.120623842 0.008
v -0.0382786654 0.120543957 0.0100000007
v -0.0382786654 0.120543957 0.008
v -0.038363222 0.120509565 0.009000001
v -0.03856805 0.120401025 0.0100000007
v -0.03856805 0.120401025 0.008
v -0.038684126 0.120320946 0.009000001
v -0.0388278365 0.12019816 0.0100000007
v -0.0388278365 0.12019816 0.008
v -0.03895606 0.120059274 0.009000001
v -0.0390405357 0.119946368 0.0100000007
v -0.0390405357 0.119946368 0.008
v -0.0391568728 0.119745865 0.009000001
v -0.039194487 0.119662687 0.0100000007
v -0.039194487 0.119662687 0.008
v -0.039276544 0.11940892 0.009000001
v -0.0392858237 0.119366579 0.0100000007
v -0.0393181257 0.119076006 0.009000001
v -0.0392858237 0.119366579 0.008
v -0.0393181257 0.119076006 0.0100000007
v -0.0393181257 0.119076006 0.008
v -0.03929702 0.118784405 0.0100000007
v -0.03929702 0.118784405 0.008
v -0.0392893739 0.118741736 0.009000001
v -0.0392171331 0.118485 0.0100000007
v -0.0392171331 0.118485 0.008
v -0.0392171331 0.118485 0.009000001
v -0.03909845 0.1182356 0.009000001
v -0.0390742 0.118195623 0.0100000007
v -0.0390742 0.118195623 0.008
v -0.03893491 0.118005939 0.009000001
v -0.0388713367 0.117935836 0.0100000007
v -0.0388713367 0.117935836 0.008
v -0.0387324542 0.117807612 0.009000001
v -0.0386195444 0.117723137 0.0100000007
v -0.0386195444 0.117723137 0.008
v -0.03850075 0.117649548 0.009000001
v -0.0383358672 0.117569186 0.0100000007
v -0.0383358672 0.117569186 0.008
v -0.03825169 0.117536724 0.009000001
v -0.03803976 0.117477842 0.0100000007
v -0.03803976 0.117477842 0.008
v -0.0379975326 0.11746978 0.009000001
v -0.0377491824 0.117445543 0.0100000007
v -0.0377491824 0.117445543 0.008
v -0.024751585 0.117195614 0.008
v -0.024751585 0.117195614 0.0100000007
v -0.0244599842 0.117216721 0.0100000007
v -0.0244173147 0.117224365 0.009000001
v -0.0244599842 0.117216721 0.008
v -0.0241605826 0.117296606 0.0100000007
v -0.0241605826 0.117296606 0.008
v -0.0240760259 0.117331 0.009000001
v -0.0238711983 0.117439538 0.0100000007
v -0.0238711983 0.117439538 0.008
v -0.0237551238 0.117519617 0.009000001
v -0.0236114133 0.1176424 0.0100000007
v -0.0236114133 0.1176424 0.008
v -0.0234831888 0.117781289 0.009000001
v -0.0233987123 0.1178942 0.0100000007
v -0.0233987123 0.1178942 0.008
v -0.023282377 0.118094705 0.009000001
v -0.02324476 0.118177876 0.0100000007
v -0.02324476 0.118177876 0.008
v -0.023162704 0.118431643 0.009000001
v -0.0231534243 0.118473984 0.0100000007
v -0.0231211223 0.118764557 0.009000001
v -0.0231534243 0.118473984 0.008
v -0.0231211223 0.118764557 0.0100000007
v -0.0231211223 0.118764557 0.008
v -0.02314223 0.119056158 0.0100000007
v -0.02314223 0.119056158 0.008
v -0.0231498759 0.119098827 0.009000001
v -0.0232221149 0.119355559 0.0100000007
v -0.0232221149 0.119355559 0.008
v -0.0232221149 0.119355559 0.009000001
v -0.0233407989 0.119604968 0.009000001
v -0.0233650487 0.119644947 0.0100000007
v -0.0233650487 0.119644947 0.008
v -0.02350434 0.119834624 0.009000001
v -0.0235679112 0.119904727 0.0100000007
v -0.0235679112 0.119904727 0.008
v -0.0237067938 0.120032951 0.009000001
v -0.0238197055 0.120117433 0.0100000007
v -0.0238197055 0.120117433 0.008
v -0.0239385013 0.120191015 0.009000001
v -0.02410338 0.120271385 0.0100000007
v -0.02410338 0.120271385 0.008
v -0.02418756 0.120303839 0.009000001
v -0.024399491 0.120362721 0.0100000007
v -0.024399491 0.120362721 0.008
v -0.0244417153 0.12037079 0.009000001
v -0.0246900655 0.120395027 0.0100000007
v -0.0246900655 0.120395027 0.008
v -0.0249816664 0.120373912 0.0100000007
v -0.0250243358 0.12036626 0.009000001
v -0.0249816664 0.120373912 0.008
v -0.0252810679 0.120294027 0.0100000007
v -0.0252810679 0.120294027 0.008
v -0.0253656246 0.120259635 0.009000001
v -0.0255704522 0.120151095 0.0100000007
v -0.0255704522 0.120151095 0.008
v -0.0256865267 0.120071024 0.009000001
v -0.0258302353 0.119948231 0.0100000007
v -0.0258302353 0.119948231 0.008
v -0.0259584617 0.119809344 0.009000001
v -0.0260429382 0.119696438 0.0100000007
v -0.0260429382 0.119696438 0.008
v -0.0261592753 0.119495936 0.009000001
v -0.0261968877 0.119412765 0.0100000007
v -0.0261968877 0.119412765 0.008
v -0.0262789447 0.119159 0.009000001
v -0.0262882262 0.119116649 0.0100000007
v -0.02632053 0.118826076 0.009000001
v -0.0262882262 0.119116649 0.008
v -0.02632053 0.118826076 0.0100000007
v -0.02632053 0.118826076 0.008
v -0.02629942 0.118534476 0.0100000007
v -0.02629942 0.118534476 0.008
v -0.0262917746 0.118491806 0.009000001
v -0.0262195338 0.118235074 0.0100000007
v -0.0262195338 0.118235074 0.008
v -0.0262195338 0.118235074 0.009000001
v -0.0261008516 0.117985673 0.009000001
v -0.0260766037 0.117945693 0.0100000007
v -0.0260766037 0.117945693 0.008
v -0.0259373114 0.117756009 0.009000001
v -0.0258737374 0.117685907 0.0100000007
v -0.0258737374 0.117685907 0.008
v -0.0257348549 0.117557682 0.009000001
v -0.025621945 0.117473207 0.0100000007
v -0.025621945 0.117473207 0.008
v -0.0255031474 0.117399618 0.009000001
v -0.0253382679 0.117319256 0.0100000007
v -0.0253382679 0.117319256 0.008
v -0.0252540912 0.1172868 0.009000001
v -0.02504216 0.117227919 0.0100000007
v -0.02504216 0.117227919 0.008
v -0.0249999352 0.11721985 0.009000001
v -0.024751585 0.117195614 0.0100000007
v -0.024751585 0.117195614 0.008
v -0.03856805 0.120401025 0.008
v -0.04112165 0.124111608 0.008
v -0.0382786654 0.120543957 0.008
v -0.0388278365 0.12019816 0.008
v -0.0379792638 0.120623842 0.008
v -0.0390405357 0.119946368 0.008
v -0.037687663 0.120644949 0.008
v -0.039194487 0.119662687 0.008
v -0.03739709 0.120612644 0.008
v -0.0392858237 0.119366579 0.008
v -0.03710098 0.120521307 0.008
v -0.0393181257 0.119076006 0.008
v -0.0252810679 0.120294027 0.008
v -0.0368173048 0.120367363 0.008
v -0.0413139 0.114113458 0.008
v -0.03929702 0.118784405 0.008
v -0.0392171331 0.118485 0.008
v -0.0390742 0.118195623 0.008
v -0.0388713367 0.117935836 0.008
v -0.0386195444 0.117723137 0.008
v -0.0383358672 0.117569186 0.008
v -0.03803976 0.117477842 0.008
v -0.0377491824 0.117445543 0.008
v -0.03745758 0.117466651 0.008
v -0.0211253464 0.123727106 0.008
v -0.03715818 0.117546536 0.008
v -0.0249816664 0.120373912 0.008
v -0.0246900655 0.120395027 0.008
v -0.024399491 0.120362721 0.008
v -0.02410338 0.120271385 0.008
v -0.0238197055 0.120117433 0.008
v -0.0235679112 0.119904727 0.008
v -0.0233650487 0.119644947 0.008
v -0.0232221149 0.119355559 0.008
v -0.02314223 0.119056158 0.008
v -0.0231211223 0.118764557 0.008
v -0.0213175975 0.113728955 0.008
v -0.0231534243 0.118473984 0.008
v -0.02324476 0.118177876 0.008
v -0.0233987123 0.1178942 0.008
v -0.0236114133 0.1176424 0.008
v -0.0238711983 0.117439538 0.008
v -0.0241605826 0.117296606 0.008
v -0.0244599842 0.117216721 0.008
v -0.024751585 0.117195614 0.008
v -0.02504216 0.117227919 0.008
v -0.0253382679 0.117319256 0.008
v -0.025621945 0.117473207 0.008
v -0.0368687958 0.117689468 0.008
v -0.031219624 0.118920282 0.008
v -0.0366090126 0.117892332 0.008
v -0.0258737374 0.117685907 0.008
v -0.03639631 0.118144125 0.008
v -0.0260766037 0.117945693 0.008
v -0.03624236 0.1184278 0.008
v -0.0262195338 0.118235074 0.008
v -0.03615102 0.118723914 0.008
v -0.02629942 0.118534476 0.008
v -0.03611872 0.119014487 0.008
v -0.02632053 0.118826076 0.008
v -0.0361398272 0.119306087 0.008
v -0.0262882262 0.119116649 0.008
v -0.0362197161 0.119605489 0.008
v -0.0261968877 0.119412765 0.008
v -0.0363626443 0.119894877 0.008
v -0.0260429382 0.119696438 0.008
v -0.0365655124 0.120154656 0.008
v -0.0258302353 0.119948231 0.008
v -0.0255704522 0.120151095 0.008
v -0.0386195444 0.117723137 0.0100000007
v -0.0413139 0.114113458 0.0100000007
v -0.0383358672 0.117569186 0.0100000007
v -0.0388713367 0.117935836 0.0100000007
v -0.03803976 0.117477842 0.0100000007
v -0.0390742 0.118195623 0.0100000007
v -0.0377491824 0.117445543 0.0100000007
v -0.0392171331 0.118485 0.0100000007
v -0.03745758 0.117466651 0.0100000007
v -0.03929702 0.118784405 0.0100000007
v -0.03715818 0.117546536 0.0100000007
v -0.0393181257 0.119076006 0.0100000007
v -0.0253382679 0.117319256 0.0100000007
v -0.0368687958 0.117689468 0.0100000007
v -0.04112165 0.124111608 0.0100000007
v -0.0392858237 0.119366579 0.0100000007
v -0.039194487 0.119662687 0.0100000007
v -0.0390405357 0.119946368 0.0100000007
v -0.0388278365 0.12019816 0.0100000007
v -0.03856805 0.120401025 0.0100000007
v -0.0382786654 0.120543957 0.0100000007
v -0.0379792638 0.120623842 0.0100000007
v -0.037687663 0.120644949 0.0100000007
v -0.03739709 0.120612644 0.0100000007
v -0.0213175975 0.113728955 0.0100000007
v -0.03710098 0.120521307 0.0100000007
v -0.02504216 0.117227919 0.0100000007
v -0.024751585 0.117195614 0.0100000007
v -0.0244599842 0.117216721 0.0100000007
v -0.0241605826 0.117296606 0.0100000007
v -0.0238711983 0.117439538 0.0100000007
v -0.0236114133 0.1176424 0.0100000007
v -0.0233987123 0.1178942 0.0100000007
v -0.02324476 0.118177876 0.0100000007
v -0.0231534243 0.118473984 0.0100000007
v -0.0231211223 0.118764557 0.0100000007
v -0.0211253464 0.123727106 0.0100000007
v -0.02314223 0.119056158 0.0100000007
v -0.0232221149 0.119355559 0.0100000007
v -0.0233650487 0.119644947 0.0100000007
v -0.0235679112 0.119904727 0.0100000007
v -0.0238197055 0.120117433 0.0100000007
v -0.02410338 0.120271385 0.0100000007
v -0.024399491 0.120362721 0.0100000007
v -0.0246900655 0.120395027 0.0100000007
v -0.0249816664 0.120373912 0.0100000007
v -0.0252810679 0.120294027 0.0100000007
v -0.0255704522 0.120151095 0.0100000007
v -0.0368173048 0.120367363 0.0100000007
v -0.031219624 0.118920282 0.0100000007
v -0.0365655124 0.120154656 0.0100000007
v -0.0258302353 0.119948231 0.0100000007
v -0.0363626443 0.119894877 0.0100000007
v -0.0260429382 0.119696438 0.0100000007
v -0.0362197161 0.119605489 0.0100000007
v -0.0261968877 0.119412765 0.0100000007
v -0.0361398272 0.119306087 0.0100000007
v -0.0262882262 0.119116649 0.0100000007
v -0.03611872 0.119014487 0.0100000007
v -0.02632053 0.118826076 0.0100000007
v -0.03615102 0.118723914 0.0100000007
v -0.02629942 0.118534476 0.0100000007
v -0.03624236 0.1184278 0.0100000007
v -0.0262195338 0.118235074 0.0100000007
v -0.03639631 0.118144125 0.0100000007
v -0.0260766037 0.117945693 0.0100000007
v -0.0366090126 0.117892332 0.0100000007
v -0.0258737374 0.117685907 0.0100000007
v -0.025621945 0.117473207 0.0100000007
v -0.02122147 0.118728027 0.009000001
v -0.0213175975 0.113728955 0.0100000007
v -0.0213175975 0.113728955 0.008
v -0.0211253464 0.123727106 0.008
v -0.0211253464 0.123727106 0.0100000007
v -0.03131575 0.1139212 0.009000001
v -0.0413139 0.114113458 0.0100000007
v -0.0413139 0.114113458 0.008
v -0.0213175975 0.113728955 0.008
v -0.0213175975 0.113728955 0.0100000007
v -0.0412177779 0.119112536 0.009000001
v -0.04112165 0.124111608 0.0100000007
v -0.04112165 0.124111608 0.008
v -0.0413139 0.114113458 0.008
v -0.0413139 0.114113458 0.0100000007
v -0.04112165 0.124111608 0.0100000007
v -0.0311234985 0.12391936 0.009000001
v -0.04112165 0.124111608 0.008
v -0.0211253464 0.123727106 0.0100000007
v -0.0211253464 0.123727106 0.008
f 1 2 3
f 1 3 4
f 5 1 4
f 4 3 6
f 7 5 4
f 8 4 6
f 7 4 8
f 8 6 9
f 10 7 8
f 11 8 9
f 10 8 11
f 11 9 12
f 13 10 11
f 14 11 12
f 13 11 14
f 14 12 15
f 16 13 14
f 17 14 15
f 16 14 17
f 17 15 18
f 19 16 17
f 20 17 18
f 19 17 20
f 20 18 21
f 22 20 21
f 23 19 20
f 23 20 22
f 22 21 24
f 25 23 22
f 26 22 24
f 27 25 22
f 28 22 26
f 27 22 28
f 29 28 26
f 30 27 28
f 31 28 29
f 31 30 28
f 32 31 29
f 31 32 30
f 32 29 33
f 32 34 30
f 35 32 33
f 32 35 34
f 35 33 36
f 35 37 34
f 38 35 36
f 35 38 37
f 38 36 39
f 38 40 37
f 41 38 39
f 38 41 40
f 41 39 42
f 41 43 40
f 44 41 42
f 41 44 43
f 44 42 45
f 44 46 43
f 47 44 45
f 44 47 46
f 47 45 48
f 46 47 49
f 47 48 49
f 48 50 49
f 50 51 49
f 49 51 52
f 50 53 51
f 51 54 52
f 53 55 51
f 51 55 54
f 53 56 55
f 55 57 54
f 56 58 55
f 55 58 57
f 56 59 58
f 58 60 57
f 59 61 58
f 58 61 60
f 59 62 61
f 61 63 60
f 62 64 61
f 61 64 63
f 62 65 64
f 64 66 63
f 65 67 64
f 64 67 66
f 65 68 67
f 68 69 67
f 67 70 66
f 67 69 70
f 68 71 69
f 69 72 70
f 71 73 69
f 69 74 72
f 73 75 69
f 69 75 74
f 73 76 75
f 75 77 74
f 76 78 75
f 75 78 77
f 76 79 78
f 79 77 78
f 80 79 76
f 79 81 77
f 82 79 80
f 79 82 81
f 83 82 80
f 82 84 81
f 85 82 83
f 82 85 84
f 86 85 83
f 85 87 84
f 88 85 86
f 85 88 87
f 89 88 86
f 88 90 87
f 91 88 89
f 88 91 90
f 92 91 89
f 91 93 90
f 94 91 92
f 91 94 93
f 95 94 92
f 94 96 93
f 94 95 96
f 97 98 99
f 97 99 100
f 101 97 100
f 100 99 102
f 103 101 100
f 104 100 102
f 103 100 104
f 104 102 105
f 106 103 104
f 107 104 105
f 106 104 107
f 107 105 108
f 109 106 107
f 110 107 108
f 109 107 110
f 110 108 111
f 112 109 110
f 113 110 111
f 112 110 113
f 113 111 114
f 115 112 113
f 116 113 114
f 115 113 116
f 116 114 117
f 118 116 117
f 119 115 116
f 119 116 118
f 118 117 120
f 121 119 118
f 122 118 120
f 123 121 118
f 124 118 122
f 123 118 124
f 125 124 122
f 126 123 124
f 127 124 125
f 127 126 124
f 128 127 125
f 127 128 126
f 128 125 129
f 128 130 126
f 131 128 129
f 128 131 130
f 131 129 132
f 131 133 130
f 134 131 132
f 131 134 133
f 134 132 135
f 134 136 133
f 137 134 135
f 134 137 136
f 137 135 138
f 137 139 136
f 140 137 138
f 137 140 139
f 140 138 141
f 140 142 139
f 143 140 141
f 140 143 142
f 143 141 144
f 142 143 145
f 143 144 145
f 144 146 145
f 146 147 145
f 145 147 148
f 146 149 147
f 147 150 148
f 149 151 147
f 147 151 150
f 149 152 151
f 151 153 150
f 152 154 151
f 151 154 153
f 152 155 154
f 154 156 153
f 155 157 154
f 154 157 156
f 155 158 157
f 157 159 156
f 158 160 157
f 157 160 159
f 158 161 160
f 160 162 159
f 161 163 160
f 160 163 162
f 161 164 163
f 164 165 163
f 163 166 162
f 163 165 166
f 164 167 165
f 165 168 166
f 167 169 165
f 165 170 168
f 169 171 165
f 165 171 170
f 169 172 171
f 171 173 170
f 172 174 171
f 171 174 173
f 172 175 174
f 175 173 174
f 176 175 172
f 175 177 173
f 178 175 176
f 175 178 177
f 179 178 176
f 178 180 177
f 181 178 179
f 178 181 180
f 182 181 179
f 181 183 180
f 184 181 182
f 181 184 183
f 185 184 182
f 184 186 183
f 187 184 185
f 184 187 186
f 188 187 185
f 187 189 186
f 190 187 188
f 187 190 189
f 191 190 188
f 190 192 189
f 190 191 192
f 193 194 195
f 194 193 196
f 194 197 195
f 194 196 198
f 197 194 199
f 200 194 198
f 194 201 199
f 194 200 202
f 194 203 201
f 194 202 204
f 194 205 203
f 205 206 203
f 207 194 204
f 207 204 208
f 207 208 209
f 210 207 209
f 207 210 211
f 207 211 212
f 213 207 212
f 207 213 214
f 207 214 215
f 216 207 215
f 194 217 205
f 207 216 218
f 217 219 205
f 217 220 219
f 220 217 221
f 217 222 221
f 217 223 222
f 223 217 224
f 217 225 224
f 217 226 225
f 226 217 227
f 217 228 227
f 217 229 228
f 229 230 228
f 229 231 230
f 231 229 232
f 229 233 232
f 229 234 233
f 234 229 235
f 229 236 235
f 229 237 236
f 237 229 238
f 229 239 238
f 229 207 239
f 207 218 239
f 239 218 240
f 218 241 240
f 241 242 240
f 241 243 242
f 240 242 244
f 243 245 242
f 242 246 244
f 245 247 242
f 242 248 246
f 247 249 242
f 248 242 250
f 249 251 242
f 242 252 250
f 251 253 242
f 242 254 252
f 253 255 242
f 254 242 256
f 255 257 242
f 242 258 256
f 257 259 242
f 242 260 258
f 259 206 242
f 260 242 261
f 206 261 242
f 206 205 261
f 262 263 264
f 263 262 265
f 263 266 264
f 263 265 267
f 266 263 268
f 269 263 267
f 263 270 268
f 263 269 271
f 263 272 270
f 263 271 273
f 263 274 272
f 274 275 272
f 276 263 273
f 276 273 277
f 276 277 278
f 279 276 278
f 276 279 280
f 276 280 281
f 282 276 281
f 276 282 283
f 276 283 284
f 285 276 284
f 263 286 274
f 276 285 287
f 286 288 274
f 286 289 288
f 289 286 290
f 286 291 290
f 286 292 291
f 292 286 293
f 286 294 293
f 286 295 294
f 295 286 296
f 286 297 296
f 286 298 297
f 298 299 297
f 298 300 299
f 300 298 301
f 298 302 301
f 298 303 302
f 303 298 304
f 298 305 304
f 298 306 305
f 306 298 307
f 298 308 307
f 298 276 308
f 276 287 308
f 308 287 309
f 287 310 309
f 310 311 309
f 310 312 311
f 309 311 313
f 312 314 311
f 311 315 313
f 314 316 311
f 311 317 315
f 316 318 311
f 317 311 319
f 318 320 311
f 311 321 319
f 320 322 311
f 311 323 321
f 322 324 311
f 323 311 325
f 324 326 311
f 311 327 325
f 326 328 311
f 311 329 327
f 328 275 311
f 329 311 330
f 275 330 311
f 275 274 330
f 331 332 333
f 331 333 334
f 332 331 335
f 335 331 334
f 336 337 338
f 336 338 339
f 337 336 340
f 340 336 339
f 341 342 343
f 341 343 344
f 342 341 345
f 345 341 344
f 346 347 348
f 349 347 346
f 347 350 348
f 347 349 350
