# ROS coordinates: X forward, Y left, Z up; units are metres.
o mesh
v -0.1425696 -0.045 0.0187709816
v -0.142069608 -0.0445 0.0187709816
v -0.142047063 -0.0445 0.0190166309
v -0.1422381 -0.044750005 0.0192751475
v -0.142538711 -0.045 0.0191076118
v -0.141974822 -0.0445 0.01926791
v -0.142439708 -0.045 0.0194519553
v -0.141849548 -0.0445 0.0195097141
v -0.142268047 -0.045 0.01978332
v -0.1419765 -0.044750005 0.0197610278
v -0.141674191 -0.0445 0.019725576
v -0.141555637 -0.044750005 0.0201351866
v -0.142027751 -0.045 0.02007913
v -0.141458333 -0.0445 0.0199009255
v -0.141731933 -0.045 0.02031942
v -0.141216531 -0.0445 0.0200261958
v -0.141400576 -0.045 0.0204910878
v -0.141053259 -0.044750005 0.0203358028
v -0.140965253 -0.0445 0.0200984441
v -0.1407196 -0.044750005 0.0203709789
v -0.141056225 -0.045 0.0205900967
v -0.1407196 -0.0445 0.0201209821
v -0.1407196 -0.045 0.0206209812
v -0.140473962 -0.0445 0.0200984441
v -0.14038296 -0.045 0.0205900967
v -0.140385941 -0.044750005 0.0203358028
v -0.140222669 -0.0445 0.0200261958
v -0.14003861 -0.045 0.0204910878
v -0.14004676 -0.044750005 0.0202226341
v -0.139980868 -0.0445 0.0199009255
v -0.139707267 -0.045 0.02031942
v -0.139729559 -0.044750005 0.0200278852
v -0.139765009 -0.0445 0.019725576
v -0.139411449 -0.045 0.02007913
v -0.1394627 -0.044750005 0.0197610278
v -0.139589667 -0.0445 0.0195097141
v -0.139171153 -0.045 0.01978332
v -0.139267951 -0.044750005 0.0194438137
v -0.139464378 -0.0445 0.01926791
v -0.138999492 -0.045 0.0194519553
v -0.139154777 -0.044750005 0.0191046372
v -0.139392138 -0.0445 0.0190166309
v -0.138900489 -0.045 0.0191076118
v -0.1393696 -0.0445 0.0187709816
v -0.1388696 -0.045 0.0187709816
v -0.139392138 -0.0445 0.01852533
v -0.1392011 -0.044750005 0.0182668157
v -0.139464378 -0.0445 0.0182740539
v -0.138900489 -0.045 0.01843435
v -0.138999492 -0.045 0.018090006
v -0.139589667 -0.0445 0.0180322472
v -0.139171153 -0.045 0.0177586433
v -0.1394627 -0.044750005 0.0177809317
v -0.139765009 -0.0445 0.0178163871
v -0.139883578 -0.044750005 0.0174067747
v -0.139411449 -0.045 0.0174628347
v -0.139980868 -0.0445 0.0176410377
v -0.139707267 -0.045 0.0172225386
v -0.140222669 -0.0445 0.0175157674
v -0.14003861 -0.045 0.0170508735
v -0.140385941 -0.044750005 0.0172061566
v -0.140473962 -0.0445 0.01744352
v -0.1407196 -0.044750005 0.01717098
v -0.14038296 -0.045 0.0169518664
v -0.1407196 -0.0445 0.0174209811
v -0.1407196 -0.045 0.01692098
v -0.140965253 -0.0445 0.01744352
v -0.141056225 -0.045 0.0169518664
v -0.141053259 -0.044750005 0.0172061566
v -0.141216531 -0.0445 0.0175157674
v -0.141400576 -0.045 0.0170508735
v -0.141392425 -0.044750005 0.0173193272
v -0.141458333 -0.0445 0.0176410377
v -0.141731933 -0.045 0.0172225386
v -0.141709656 -0.044750005 0.0175140779
v -0.141674191 -0.0445 0.0178163871
v -0.142027751 -0.045 0.0174628347
v -0.1419765 -0.044750005 0.0177809317
v -0.141849548 -0.0445 0.0180322472
v -0.142268047 -0.045 0.0177586433
v -0.142171249 -0.044750005 0.01809815
v -0.141974822 -0.0445 0.0182740539
v -0.142439708 -0.045 0.018090006
v -0.142284423 -0.044750005 0.0184373241
v -0.142047063 -0.0445 0.01852533
v -0.142538711 -0.045 0.01843435
v -0.142069608 -0.0445 0.0187709816
v -0.1425696 -0.045 0.0187709816
v 0.09634242 -0.045 0.0784423351
v 0.09684242 -0.0445 0.0784423351
v 0.09686998 -0.0445 0.07874258
v 0.0966892242 -0.044750005 0.079041034
v 0.09637832 -0.045 0.07883356
v 0.09695828 -0.0445 0.07904969
v 0.09649338 -0.045 0.0792337358
v 0.09711138 -0.0445 0.07934524
v 0.09669289 -0.045 0.07961884
v 0.09699986 -0.044750005 0.07961802
v 0.097325705 -0.0445 0.0796090662
v 0.09749964 -0.044750005 0.08006234
v 0.0969721451 -0.045 0.07996261
v 0.09758954 -0.0445 0.0798233747
v 0.09731592 -0.045 0.0802418739
v 0.0978850648 -0.0445 0.0799764842
v 0.09770103 -0.045 0.0804413855
v 0.0980962142 -0.044750005 0.08030056
v 0.0981921852 -0.0445 0.08006479
v 0.09849243 -0.044750005 0.08034234
v 0.0981012061 -0.045 0.08055644
v 0.09849243 -0.0445 0.08009233
v 0.09849243 -0.045 0.08059234
v 0.09879267 -0.0445 0.08006479
v 0.09888365 -0.045 0.08055644
v 0.09888865 -0.044750005 0.08030056
v 0.0990997851 -0.0445 0.0799764842
v 0.09928383 -0.045 0.0804413855
v 0.09929142 -0.044750005 0.08016617
v 0.09939533 -0.0445 0.0798233747
v 0.0996689349 -0.045 0.0802418739
v 0.0996681154 -0.044750005 0.07993491
v 0.09965915 -0.0445 0.0796090662
v 0.100012712 -0.045 0.07996261
v 0.099985 -0.044750005 0.07961802
v 0.09987347 -0.0445 0.07934524
v 0.100291975 -0.045 0.07961884
v 0.100216269 -0.044750005 0.07924133
v 0.100026585 -0.0445 0.07904969
v 0.100491479 -0.045 0.0792337358
v 0.100350663 -0.044750005 0.07883855
v 0.100114882 -0.0445 0.07874258
v 0.100606531 -0.045 0.07883356
v 0.100142427 -0.0445 0.0784423351
v 0.100642428 -0.045 0.0784423351
v 0.100114882 -0.0445 0.0781421
v 0.100295633 -0.044750005 0.07784364
v 0.100026585 -0.0445 0.07783498
v 0.100606531 -0.045 0.07805112
v 0.100491479 -0.045 0.0776509345
v 0.09987347 -0.0445 0.077539444
v 0.100291975 -0.045 0.07726583
v 0.099985 -0.044750005 0.0772666559
v 0.09965915 -0.0445 0.07727561
v 0.09948521 -0.044750005 0.07682234
v 0.100012712 -0.045 0.07692206
v 0.09939533 -0.0445 0.0770612955
v 0.0996689349 -0.045 0.0766428
v 0.0990997851 -0.0445 0.0769081861
v 0.09928383 -0.045 0.07644329
v 0.09888865 -0.044750005 0.07658411
v 0.09879267 -0.0445 0.07681988
v 0.09849243 -0.044750005 0.07654234
v 0.09888365 -0.045 0.0763282254
v 0.09849243 -0.0445 0.07679234
v 0.09849243 -0.045 0.076292336
v 0.0981921852 -0.0445 0.07681988
v 0.0981012061 -0.045 0.0763282254
v 0.0980962142 -0.044750005 0.07658411
v 0.0978850648 -0.0445 0.0769081861
v 0.09770103 -0.045 0.07644329
v 0.0976934358 -0.044750005 0.0767185
v 0.09758954 -0.0445 0.0770612955
v 0.09731592 -0.045 0.0766428
v 0.09731674 -0.044750005 0.07694977
v 0.097325705 -0.0445 0.07727561
v 0.0969721451 -0.045 0.07692206
v 0.09699986 -0.044750005 0.0772666559
v 0.09711138 -0.0445 0.077539444
v 0.09669289 -0.045 0.07726583
v 0.0967685953 -0.044750005 0.07764335
v 0.09695828 -0.0445 0.07783498
v 0.09649338 -0.045 0.0776509345
v 0.0966341943 -0.044750005 0.07804612
v 0.09686998 -0.0445 0.0781421
v 0.09637832 -0.045 0.07805112
v 0.09684242 -0.0445 0.0784423351
v 0.09634242 -0.045 0.0784423351
v 0.154719621 -0.045 0.188130453
v 0.154684573 -0.045 0.188512579
v 0.154219627 -0.0445 0.188130453
v 0.154428959 -0.044750005 0.188516244
v 0.15419291 -0.0445 0.1884216
v 0.154572174 -0.045 0.188903451
v 0.154107288 -0.0445 0.1887194
v 0.154298112 -0.044750005 0.188908428
v 0.154377311 -0.045 0.1892796
v 0.153958827 -0.0445 0.189006
v 0.154072925 -0.044750005 0.18927522
v 0.154104561 -0.045 0.1896154
v 0.153751 -0.0445 0.189261824
v 0.153764367 -0.044750005 0.189583749
v 0.153768778 -0.045 0.189888164
v 0.153495163 -0.0445 0.189469635
v 0.15339759 -0.044750005 0.18980892
v 0.153392628 -0.045 0.190083012
v 0.153208584 -0.0445 0.189618111
v 0.153005421 -0.044750005 0.1899398
v 0.153001755 -0.045 0.190195411
v 0.15261963 -0.044750005 0.189980447
v 0.152910769 -0.0445 0.189703763
v 0.15261963 -0.045 0.190230459
v 0.15261963 -0.0445 0.189730465
v 0.1522375 -0.045 0.190195411
v 0.152328491 -0.0445 0.189703763
v 0.152233839 -0.044750005 0.1899398
v 0.151846617 -0.045 0.190083012
v 0.151652977 -0.044750005 0.189707816
v 0.152030677 -0.0445 0.189618111
v 0.151470482 -0.045 0.189888164
v 0.1517441 -0.0445 0.189469635
v 0.151134714 -0.045 0.1896154
v 0.151488245 -0.0445 0.189261824
v 0.151166335 -0.044750005 0.18927522
v 0.150861934 -0.045 0.1892796
v 0.150863871 -0.044750005 0.1887134
v 0.151280433 -0.0445 0.189006
v 0.150667071 -0.045 0.188903451
v 0.151131973 -0.0445 0.1887194
v 0.150554687 -0.045 0.188512579
v 0.151046336 -0.0445 0.1884216
v 0.150519624 -0.045 0.188130453
v 0.151019633 -0.0445 0.188130453
v -0.072100006 -0.045 0.00500000035
v -0.0716 -0.0445 0.00500000035
v -0.0715732947 -0.0445 0.005291141
v -0.07175576 -0.044750005 0.0055829417
v -0.07206494 -0.045 0.00538212247
v -0.0714876652 -0.0445 0.00558895152
v -0.07195256 -0.045 0.005772999
v -0.0713392 -0.0445 0.00587553624
v -0.07175769 -0.045 0.006149141
v -0.0714532956 -0.044750005 0.00614474434
v -0.07113138 -0.0445 0.006131371
v -0.07096666 -0.044750005 0.00657736324
v -0.07148492 -0.045 0.00648492435
v -0.07087554 -0.0445 0.00633919332
v -0.07114914 -0.045 0.00675769057
v -0.0705889538 -0.0445 0.006487661
v -0.0707730055 -0.045 0.00695255538
v -0.07038579 -0.044750005 0.00680932775
v -0.07029115 -0.0445 0.0065732887
v -0.07 -0.044750005 0.00685000047
v -0.0703821257 -0.045 0.00706494227
v -0.07 -0.0445 0.006600001
v -0.07 -0.045 0.0071
v -0.06970886 -0.0445 0.0065732887
v -0.06961788 -0.045 0.00706494227
v -0.06961422 -0.044750005 0.00680932775
v -0.0694110543 -0.0445 0.006487661
v -0.069227 -0.045 0.00695255538
v -0.06922205 -0.044750005 0.006678474
v -0.06912447 -0.0445 0.00633919332
v -0.06885086 -0.045 0.00675769057
v -0.06885526 -0.044750005 0.00645329338
v -0.06886863 -0.0445 0.006131371
v -0.06851508 -0.045 0.00648492435
v -0.06854671 -0.044750005 0.00614474434
v -0.06866081 -0.0445 0.00587553624
v -0.06824231 -0.045 0.006149141
v -0.0683215261 -0.044750005 0.00577796251
v -0.06851234 -0.0445 0.00558895152
v -0.06804745 -0.045 0.005772999
v -0.06819068 -0.044750005 0.00538579
v -0.06842671 -0.0445 0.005291141
v -0.06793506 -0.045 0.00538212247
v -0.0684 -0.0445 0.00500000035
v -0.0679 -0.045 0.00500000035
v -0.06842671 -0.0445 0.004708859
v -0.06824425 -0.044750005 0.00441705855
v -0.06851234 -0.0445 0.00441104872
v -0.06793506 -0.045 0.004617878
v -0.06804745 -0.045 0.004227001
v -0.06866081 -0.0445 0.00412446447
v -0.06824231 -0.045 0.00385085959
v -0.06854671 -0.044750005 0.00385525636
v -0.06886863 -0.0445 0.00386862922
v -0.06903335 -0.044750005 0.003422637
v -0.06851508 -0.045 0.003515076
v -0.06912447 -0.0445 0.00366080762
v -0.06885086 -0.045 0.00324230967
v -0.0694110543 -0.0445 0.00351233874
v -0.069227 -0.045 0.00304744462
v -0.06961422 -0.044750005 0.00319067249
v -0.06970886 -0.0445 0.00342671177
v -0.07 -0.044750005 0.00315000024
v -0.06961788 -0.045 0.002935059
v -0.07 -0.0445 0.00340000028
v -0.07 -0.045 0.0029
v -0.07029115 -0.0445 0.00342671177
v -0.0703821257 -0.045 0.002935059
v -0.07038579 -0.044750005 0.00319067249
v -0.0705889538 -0.0445 0.00351233874
v -0.0707730055 -0.045 0.00304744462
v -0.07077797 -0.044750005 0.003321526
v -0.07087554 -0.0445 0.00366080762
v -0.07114914 -0.045 0.00324230967
v -0.0711447448 -0.044750005 0.00354670687
v -0.07113138 -0.0445 0.00386862922
v -0.07148492 -0.045 0.003515076
v -0.0714532956 -0.044750005 0.00385525636
v -0.0713392 -0.0445 0.00412446447
v -0.07175769 -0.045 0.00385085959
v -0.0716784745 -0.044750005 0.004222038
v -0.0714876652 -0.0445 0.00441104872
v -0.07195256 -0.045 0.004227001
v -0.07180933 -0.044750005 0.00461421
v -0.0715732947 -0.0445 0.004708859
v -0.07206494 -0.045 0.004617878
v -0.0716 -0.0445 0.00500000035
v -0.072100006 -0.045 0.00500000035
v -0.1425696 -0.035 0.0187709816
v -0.142069608 -0.0355 0.0187709816
v -0.142047063 -0.0355 0.01852533
v -0.1422381 -0.0352500044 0.0182668157
v -0.142538711 -0.035 0.01843435
v -0.141974822 -0.0355 0.0182740539
v -0.142439708 -0.035 0.018090006
v -0.141849548 -0.0355 0.0180322472
v -0.142268047 -0.035 0.0177586433
v -0.1419765 -0.0352500044 0.0177809317
v -0.141674191 -0.0355 0.0178163871
v -0.141555637 -0.0352500044 0.0174067747
v -0.142027751 -0.035 0.0174628347
v -0.141458333 -0.0355 0.0176410377
v -0.141731933 -0.035 0.0172225386
v -0.141216531 -0.0355 0.0175157674
v -0.141400576 -0.035 0.0170508735
v -0.141053259 -0.0352500044 0.0172061566
v -0.140965253 -0.0355 0.01744352
v -0.1407196 -0.0352500044 0.01717098
v -0.141056225 -0.035 0.0169518664
v -0.1407196 -0.0355 0.0174209811
v -0.1407196 -0.035 0.01692098
v -0.140473962 -0.0355 0.01744352
v -0.14038296 -0.035 0.0169518664
v -0.140385941 -0.0352500044 0.0172061566
v -0.140222669 -0.0355 0.0175157674
v -0.14003861 -0.035 0.0170508735
v -0.14004676 -0.0352500044 0.0173193272
v -0.139980868 -0.0355 0.0176410377
v -0.139707267 -0.035 0.0172225386
v -0.139729559 -0.0352500044 0.0175140779
v -0.139765009 -0.0355 0.0178163871
v -0.139411449 -0.035 0.0174628347
v -0.1394627 -0.0352500044 0.0177809317
v -0.139589667 -0.0355 0.0180322472
v -0.139171153 -0.035 0.0177586433
v -0.139267951 -0.0352500044 0.01809815
v -0.139464378 -0.0355 0.0182740539
v -0.138999492 -0.035 0.018090006
v -0.139154777 -0.0352500044 0.0184373241
v -0.139392138 -0.0355 0.01852533
v -0.138900489 -0.035 0.01843435
v -0.1393696 -0.0355 0.0187709816
v -0.1388696 -0.035 0.0187709816
v -0.139392138 -0.0355 0.0190166309
v -0.1392011 -0.0352500044 0.0192751475
v -0.139464378 -0.0355 0.01926791
v -0.138900489 -0.035 0.0191076118
v -0.138999492 -0.035 0.0194519553
v -0.139589667 -0.0355 0.0195097141
v -0.139171153 -0.035 0.01978332
v -0.1394627 -0.0352500044 0.0197610278
v -0.139765009 -0.0355 0.019725576
v -0.139883578 -0.0352500044 0.0201351866
v -0.139411449 -0.035 0.02007913
v -0.139980868 -0.0355 0.0199009255
v -0.139707267 -0.035 0.02031942
v -0.140222669 -0.0355 0.0200261958
v -0.14003861 -0.035 0.0204910878
v -0.140385941 -0.0352500044 0.0203358028
v -0.140473962 -0.0355 0.0200984441
v -0.1407196 -0.0352500044 0.0203709789
v -0.14038296 -0.035 0.0205900967
v -0.1407196 -0.0355 0.0201209821
v -0.1407196 -0.035 0.0206209812
v -0.140965253 -0.0355 0.0200984441
v -0.141056225 -0.035 0.0205900967
v -0.141053259 -0.0352500044 0.0203358028
v -0.141216531 -0.0355 0.0200261958
v -0.141400576 -0.035 0.0204910878
v -0.141392425 -0.0352500044 0.0202226341
v -0.141458333 -0.0355 0.0199009255
v -0.141731933 -0.035 0.02031942
v -0.141709656 -0.0352500044 0.0200278852
v -0.141674191 -0.0355 0.019725576
v -0.142027751 -0.035 0.02007913
v -0.1419765 -0.0352500044 0.0197610278
v -0.141849548 -0.0355 0.0195097141
v -0.142268047 -0.035 0.01978332
v -0.142171249 -0.0352500044 0.0194438137
v -0.141974822 -0.0355 0.01926791
v -0.142439708 -0.035 0.0194519553
v -0.142284423 -0.0352500044 0.0191046372
v -0.142047063 -0.0355 0.0190166309
v -0.142538711 -0.035 0.0191076118
v -0.142069608 -0.0355 0.0187709816
v -0.1425696 -0.035 0.0187709816
v 0.154719621 -0.035 0.188130453
v 0.154684573 -0.035 0.187748358
v 0.154219627 -0.0355 0.188130453
v 0.154428959 -0.0352500044 0.187744662
v 0.15419291 -0.0355 0.187839329
v 0.154572174 -0.035 0.187357485
v 0.154107288 -0.0355 0.187541515
v 0.154298112 -0.0352500044 0.187352479
v 0.154377311 -0.035 0.18698132
v 0.153958827 -0.0355 0.187254936
v 0.154072925 -0.0352500044 0.186985716
v 0.154104561 -0.035 0.186645538
v 0.153751 -0.0355 0.186999112
v 0.153764367 -0.0352500044 0.186677188
v 0.153768778 -0.035 0.186372772
v 0.153495163 -0.0355 0.186791271
v 0.15339759 -0.0352500044 0.186451986
v 0.153392628 -0.035 0.186177909
v 0.153208584 -0.0355 0.1866428
v 0.153005421 -0.0352500044 0.186321139
v 0.153001755 -0.035 0.186065525
v 0.15261963 -0.0352500044 0.186280474
v 0.152910769 -0.0355 0.186557174
v 0.15261963 -0.035 0.186030477
v 0.15261963 -0.0355 0.186530471
v 0.1522375 -0.035 0.186065525
v 0.152328491 -0.0355 0.186557174
v 0.152233839 -0.0352500044 0.186321139
v 0.151846617 -0.035 0.186177909
v 0.151652977 -0.0352500044 0.186553121
v 0.152030677 -0.0355 0.1866428
v 0.151470482 -0.035 0.186372772
v 0.1517441 -0.0355 0.186791271
v 0.151134714 -0.035 0.186645538
v 0.151488245 -0.0355 0.186999112
v 0.151166335 -0.0352500044 0.186985716
v 0.150861934 -0.035 0.18698132
v 0.150863871 -0.0352500044 0.18754752
v 0.151280433 -0.0355 0.187254936
v 0.150667071 -0.035 0.187357485
v 0.151131973 -0.0355 0.187541515
v 0.150554687 -0.035 0.187748358
v 0.151046336 -0.0355 0.187839329
v 0.150519624 -0.035 0.188130453
v 0.151019633 -0.0355 0.188130453
v -0.07300001 -0.035 0.00500000035
v -0.07300001 -0.0375 0.00500000035
v -0.0729499161 -0.0375 0.004454111
v -0.07293405 -0.0362500027 0.00437439466
v -0.0729499161 -0.035 0.004454111
v -0.07278937 -0.0375 0.00389571581
v -0.07278937 -0.035 0.00389571581
v -0.0727218539 -0.0362500027 0.00373844
v -0.07251099 -0.0375 0.00335837062
v -0.07251099 -0.035 0.00335837062
v -0.07235669 -0.0362500027 0.00314365863
v -0.07212132 -0.0375 0.00287867966
v -0.07212132 -0.035 0.00287867966
v -0.07185635 -0.0362500027 0.00264330814
v -0.07164164 -0.0375 0.0024890136
v -0.07164164 -0.035 0.0024890136
v -0.07126156 -0.0362500027 0.00227815052
v -0.07110429 -0.0375 0.00221063523
v -0.07110429 -0.035 0.00221063523
v -0.07062561 -0.0362500027 0.00206595543
v -0.07054589 -0.0375 0.002050084
v -0.07 -0.0362500027 0.002
v -0.07054589 -0.035 0.002050084
v -0.07 -0.0375 0.002
v -0.07 -0.035 0.002
v -0.06945412 -0.0375 0.002050084
v -0.06945412 -0.035 0.002050084
v -0.0693744 -0.0362500027 0.00206595543
v -0.06889572 -0.0375 0.00221063523
v -0.06889572 -0.035 0.00221063523
v -0.06889572 -0.0362500027 0.00221063523
v -0.06843245 -0.0362500027 0.00244211382
v -0.06835838 -0.0375 0.0024890136
v -0.06835838 -0.035 0.0024890136
v -0.06800781 -0.0362500027 0.00275697443
v -0.06787868 -0.0375 0.00287867966
v -0.06787868 -0.035 0.00287867966
v -0.0676433146 -0.0362500027 0.00314365863
v -0.06748901 -0.0375 0.00335837062
v -0.06748901 -0.035 0.00335837062
v -0.06735535 -0.0362500027 0.00358372577
v -0.06721064 -0.0375 0.00389571581
v -0.06721064 -0.035 0.00389571581
v -0.0671528354 -0.0362500027 0.00405468931
v -0.06705009 -0.0375 0.004454111
v -0.06705009 -0.035 0.004454111
v -0.06703648 -0.0362500027 0.004533558
v -0.067 -0.0375 0.00500000035
v -0.067 -0.035 0.00500000035
v -0.06705009 -0.0375 0.005545889
v -0.06706596 -0.0362500027 0.00562560558
v -0.06705009 -0.035 0.005545889
v -0.06721064 -0.0375 0.006104284
v -0.06721064 -0.035 0.006104284
v -0.0672781542 -0.0362500027 0.0062615606
v -0.06748901 -0.0375 0.00664162962
v -0.06748901 -0.035 0.00664162962
v -0.0676433146 -0.0362500027 0.00685634138
v -0.06787868 -0.0375 0.007121321
v -0.06787868 -0.035 0.007121321
v -0.0681436658 -0.0362500027 0.007356692
v -0.06835838 -0.0375 0.00751098664
v -0.06835838 -0.035 0.00751098664
v -0.0687384456 -0.0362500027 0.00772184972
v -0.06889572 -0.0375 0.00778936548
v -0.06889572 -0.035 0.00778936548
v -0.0693744 -0.0362500027 0.007934045
v -0.06945412 -0.0375 0.007949917
v -0.07 -0.0362500027 0.008
v -0.06945412 -0.035 0.007949917
v -0.07 -0.0375 0.008
v -0.07 -0.035 0.008
v -0.07054589 -0.0375 0.007949917
v -0.07054589 -0.035 0.007949917
v -0.07062561 -0.0362500027 0.007934045
v -0.07110429 -0.0375 0.00778936548
v -0.07110429 -0.035 0.00778936548
v -0.07110429 -0.0362500027 0.00778936548
v -0.07156755 -0.0362500027 0.00755788665
v -0.07164164 -0.0375 0.00751098664
v -0.07164164 -0.035 0.00751098664
v -0.0719921961 -0.0362500027 0.00724302558
v -0.07212132 -0.0375 0.007121321
v -0.07212132 -0.035 0.007121321
v -0.07235669 -0.0362500027 0.00685634138
v -0.07251099 -0.0375 0.00664162962
v -0.07251099 -0.035 0.00664162962
v -0.07264465 -0.0362500027 0.0064162747
v -0.07278937 -0.0375 0.006104284
v -0.07278937 -0.035 0.006104284
v -0.07284717 -0.0362500027 0.005945311
v -0.0729499161 -0.0375 0.005545889
v -0.0729499161 -0.035 0.005545889
v -0.07296352 -0.0362500027 0.005466442
v -0.07300001 -0.0375 0.00500000035
v -0.07300001 -0.035 0.00500000035
v -0.0716 -0.0375 0.00500000035
v -0.0716 -0.0445 0.00500000035
v -0.0715732947 -0.0445 0.004708859
v -0.07156482 -0.041 0.004666344
v -0.0715732947 -0.0375 0.004708859
v -0.0714876652 -0.0445 0.00441104872
v -0.0714876652 -0.0375 0.00441104872
v -0.07145166 -0.041 0.00432716776
v -0.0713392 -0.0445 0.00412446447
v -0.0713392 -0.0375 0.00412446447
v -0.0712569058 -0.041 0.004009952
v -0.07113138 -0.0445 0.00386862922
v -0.07113138 -0.0375 0.00386862922
v -0.07099005 -0.041 0.00374309765
v -0.07087554 -0.0445 0.00366080762
v -0.07087554 -0.0375 0.00366080762
v -0.07067284 -0.041 0.003548347
v -0.0705889538 -0.0445 0.00351233874
v -0.0705889538 -0.0375 0.00351233874
v -0.07033366 -0.041 0.00343517633
v -0.07029115 -0.0445 0.00342671177
v -0.07 -0.041 0.00340000028
v -0.07029115 -0.0375 0.00342671177
v -0.07 -0.0445 0.00340000028
v -0.07 -0.0375 0.00340000028
v -0.06970886 -0.0445 0.00342671177
v -0.06970886 -0.0375 0.00342671177
v -0.06966635 -0.041 0.00343517633
v -0.0694110543 -0.0445 0.00351233874
v -0.0694110543 -0.0375 0.00351233874
v -0.0694110543 -0.041 0.00351233874
v -0.06916397 -0.041 0.003635794
v -0.06912447 -0.0445 0.00366080762
v -0.06912447 -0.0375 0.00366080762
v -0.0689374954 -0.041 0.00380371977
v -0.06886863 -0.0445 0.00386862922
v -0.06886863 -0.0375 0.00386862922
v -0.0687430948 -0.041 0.004009952
v -0.06866081 -0.0445 0.00412446447
v -0.06866081 -0.0375 0.00412446447
v -0.06858952 -0.041 0.004244654
v -0.06851234 -0.0445 0.00441104872
v -0.06851234 -0.0375 0.00441104872
v -0.0684815049 -0.041 0.00449583447
v -0.06842671 -0.0445 0.004708859
v -0.06842671 -0.0375 0.004708859
v -0.06841946 -0.041 0.004751231
v -0.0684 -0.0445 0.00500000035
v -0.0684 -0.0375 0.00500000035
v -0.06842671 -0.0445 0.005291141
v -0.06843518 -0.041 0.00533365645
v -0.06842671 -0.0375 0.005291141
v -0.06851234 -0.0445 0.00558895152
v -0.06851234 -0.0375 0.00558895152
v -0.06854835 -0.041 0.00567283249
v -0.06866081 -0.0445 0.00587553624
v -0.06866081 -0.0375 0.00587553624
v -0.0687430948 -0.041 0.005990049
v -0.06886863 -0.0445 0.006131371
v -0.06886863 -0.0375 0.006131371
v -0.06900995 -0.041 0.00625690259
v -0.06912447 -0.0445 0.00633919332
v -0.06912447 -0.0375 0.00633919332
v -0.0693271756 -0.041 0.00645165332
v -0.0694110543 -0.0445 0.006487661
v -0.0694110543 -0.0375 0.006487661
v -0.06966635 -0.041 0.006564824
v -0.06970886 -0.0445 0.0065732887
v -0.07 -0.041 0.006600001
v -0.06970886 -0.0375 0.0065732887
v -0.07 -0.0445 0.006600001
v -0.07 -0.0375 0.006600001
v -0.07029115 -0.0445 0.0065732887
v -0.07029115 -0.0375 0.0065732887
v -0.07033366 -0.041 0.006564824
v -0.0705889538 -0.0445 0.006487661
v -0.0705889538 -0.0375 0.006487661
v -0.0705889538 -0.041 0.006487661
v -0.07083603 -0.041 0.00636420632
v -0.07087554 -0.0445 0.00633919332
v -0.07087554 -0.0375 0.00633919332
v -0.0710625052 -0.041 0.00619628048
v -0.07113138 -0.0445 0.006131371
v -0.07113138 -0.0375 0.006131371
v -0.0712569058 -0.041 0.005990049
v -0.0713392 -0.0445 0.00587553624
v -0.0713392 -0.0375 0.00587553624
v -0.07141048 -0.041 0.00575534627
v -0.0714876652 -0.0445 0.00558895152
v -0.0714876652 -0.0375 0.00558895152
v -0.0715184957 -0.041 0.005504166
v -0.0715732947 -0.0445 0.005291141
v -0.0715732947 -0.0375 0.005291141
v -0.0715805441 -0.041 0.005248769
v -0.0716 -0.0445 0.00500000035
v -0.0716 -0.0375 0.00500000035
v 0.154219627 -0.0355 0.188130453
v 0.15419291 -0.0355 0.1884216
v 0.154719621 -0.035 0.188130453
v 0.154375389 -0.0352500044 0.1887134
v 0.154107288 -0.0355 0.1887194
v 0.154684573 -0.035 0.188512579
v 0.154572174 -0.035 0.188903451
v 0.153958827 -0.0355 0.189006
v 0.154377311 -0.035 0.1892796
v 0.154072925 -0.0352500044 0.18927522
v 0.153751 -0.0355 0.189261824
v 0.153586283 -0.0352500044 0.189707816
v 0.154104561 -0.035 0.1896154
v 0.153495163 -0.0355 0.189469635
v 0.153768778 -0.035 0.189888164
v 0.153208584 -0.0355 0.189618111
v 0.153392628 -0.035 0.190083012
v 0.153005421 -0.0352500044 0.1899398
v 0.152910769 -0.0355 0.189703763
v 0.15261963 -0.0352500044 0.189980447
v 0.153001755 -0.035 0.190195411
v 0.15261963 -0.0355 0.189730465
v 0.15261963 -0.035 0.190230459
v 0.152328491 -0.0355 0.189703763
v 0.1522375 -0.035 0.190195411
v 0.152233839 -0.0352500044 0.1899398
v 0.152030677 -0.0355 0.189618111
v 0.151846617 -0.035 0.190083012
v 0.15184167 -0.0352500044 0.18980892
v 0.1517441 -0.0355 0.189469635
v 0.151470482 -0.035 0.189888164
v 0.1514749 -0.0352500044 0.189583749
v 0.151488245 -0.0355 0.189261824
v 0.151134714 -0.035 0.1896154
v 0.151166335 -0.0352500044 0.18927522
v 0.151280433 -0.0355 0.189006
v 0.150861934 -0.035 0.1892796
v 0.150941148 -0.0352500044 0.188908428
v 0.151131973 -0.0355 0.1887194
v 0.150667071 -0.035 0.188903451
v 0.1508103 -0.0352500044 0.188516244
v 0.151046336 -0.0355 0.1884216
v 0.150554687 -0.035 0.188512579
v 0.151019633 -0.0355 0.188130453
v 0.150519624 -0.035 0.188130453
v 0.151019633 -0.0355 0.188130453
v 0.151019633 -0.0445 0.188130453
v 0.151046336 -0.0445 0.187839329
v 0.151054814 -0.0400000028 0.187796816
v 0.151046336 -0.0355 0.187839329
v 0.151131973 -0.0445 0.187541515
v 0.151131973 -0.0355 0.187541515
v 0.151167974 -0.0400000028 0.187457636
v 0.151280433 -0.0445 0.187254936
v 0.151280433 -0.0355 0.187254936
v 0.151362732 -0.0400000028 0.18714042
v 0.151488245 -0.0445 0.186999112
v 0.151488245 -0.0355 0.186999112
v 0.151629582 -0.0400000028 0.186873555
v 0.1517441 -0.0445 0.186791271
v 0.1517441 -0.0355 0.186791271
v 0.1519468 -0.0400000028 0.186678827
v 0.152030677 -0.0445 0.1866428
v 0.152030677 -0.0355 0.1866428
v 0.152285978 -0.0400000028 0.186565638
v 0.152328491 -0.0445 0.186557174
v 0.15261963 -0.0400000028 0.186530471
v 0.152328491 -0.0355 0.186557174
v 0.15261963 -0.0445 0.186530471
v 0.15261963 -0.0355 0.186530471
v 0.152910769 -0.0445 0.186557174
v 0.152910769 -0.0355 0.186557174
v 0.152953282 -0.0400000028 0.186565638
v 0.153208584 -0.0445 0.1866428
v 0.153208584 -0.0355 0.1866428
v 0.153208584 -0.0400000028 0.1866428
v 0.15345566 -0.0400000028 0.186766252
v 0.153495163 -0.0445 0.186791271
v 0.153495163 -0.0355 0.186791271
v 0.153682142 -0.0400000028 0.186934173
v 0.153751 -0.0445 0.186999112
v 0.153751 -0.0355 0.186999112
v 0.153876528 -0.0400000028 0.18714042
v 0.153958827 -0.0445 0.187254936
v 0.153958827 -0.0355 0.187254936
v 0.154030114 -0.0400000028 0.187375113
v 0.154107288 -0.0445 0.187541515
v 0.154107288 -0.0355 0.187541515
v 0.154138118 -0.0400000028 0.1876263
v 0.15419291 -0.0445 0.187839329
v 0.15419291 -0.0355 0.187839329
v 0.154200166 -0.0400000028 0.187881678
v 0.154219627 -0.0445 0.188130453
v 0.154219627 -0.0355 0.188130453
v 0.15419291 -0.0445 0.1884216
v 0.154184461 -0.0400000028 0.1884641
v 0.15419291 -0.0355 0.1884216
v 0.154107288 -0.0445 0.1887194
v 0.154107288 -0.0355 0.1887194
v 0.154071286 -0.0400000028 0.1888033
v 0.153958827 -0.0445 0.189006
v 0.153958827 -0.0355 0.189006
v 0.153876528 -0.0400000028 0.1891205
v 0.153751 -0.0445 0.189261824
v 0.153751 -0.0355 0.189261824
v 0.153609678 -0.0400000028 0.189387366
v 0.153495163 -0.0445 0.189469635
v 0.153495163 -0.0355 0.189469635
v 0.153292462 -0.0400000028 0.189582109
v 0.153208584 -0.0445 0.189618111
v 0.153208584 -0.0355 0.189618111
v 0.152953282 -0.0400000028 0.189695284
v 0.152910769 -0.0445 0.189703763
v 0.15261963 -0.0400000028 0.189730465
v 0.152910769 -0.0355 0.189703763
v 0.15261963 -0.0445 0.189730465
v 0.15261963 -0.0355 0.189730465
v 0.152328491 -0.0445 0.189703763
v 0.152328491 -0.0355 0.189703763
v 0.152285978 -0.0400000028 0.189695284
v 0.152030677 -0.0445 0.189618111
v 0.152030677 -0.0355 0.189618111
v 0.152030677 -0.0400000028 0.189618111
v 0.1517836 -0.0400000028 0.189494669
v 0.1517441 -0.0445 0.189469635
v 0.1517441 -0.0355 0.189469635
v 0.151557133 -0.0400000028 0.189326763
v 0.151488245 -0.0445 0.189261824
v 0.151488245 -0.0355 0.189261824
v 0.151362732 -0.0400000028 0.1891205
v 0.151280433 -0.0445 0.189006
v 0.151280433 -0.0355 0.189006
v 0.151209146 -0.0400000028 0.188885808
v 0.151131973 -0.0445 0.1887194
v 0.151131973 -0.0355 0.1887194
v 0.151101142 -0.0400000028 0.188634634
v 0.151046336 -0.0445 0.1884216
v 0.151046336 -0.0355 0.1884216
v 0.151039079 -0.0400000028 0.188379228
v 0.151019633 -0.0445 0.188130453
v 0.151019633 -0.0355 0.188130453
v 0.09684242 -0.0375 0.0784423351
v 0.09684242 -0.0445 0.0784423351
v 0.09686998 -0.0445 0.0781421
v 0.09687871 -0.041 0.07809825
v 0.09686998 -0.0375 0.0781421
v 0.09695828 -0.0445 0.07783498
v 0.09695828 -0.0375 0.07783498
v 0.09699541 -0.041 0.07774848
v 0.09711138 -0.0445 0.077539444
v 0.09711138 -0.0375 0.077539444
v 0.09719625 -0.041 0.07742135
v 0.097325705 -0.0445 0.07727561
v 0.097325705 -0.0375 0.07727561
v 0.09747144 -0.041 0.07714616
v 0.09758954 -0.0445 0.0770612955
v 0.09758954 -0.0375 0.0770612955
v 0.09779857 -0.041 0.07694532
v 0.0978850648 -0.0445 0.0769081861
v 0.0978850648 -0.0375 0.0769081861
v 0.0981483459 -0.041 0.0768286139
v 0.0981921852 -0.0445 0.07681988
v 0.09849243 -0.041 0.07679234
v 0.0981921852 -0.0375 0.07681988
v 0.09849243 -0.0445 0.07679234
v 0.09849243 -0.0375 0.07679234
v 0.09879267 -0.0445 0.07681988
v 0.09879267 -0.0375 0.07681988
v 0.09883651 -0.041 0.0768286139
v 0.0990997851 -0.0445 0.0769081861
v 0.0990997851 -0.0375 0.0769081861
v 0.0990997851 -0.041 0.0769081861
v 0.09935458 -0.041 0.0770354941
v 0.09939533 -0.0445 0.0770612955
v 0.09939533 -0.0375 0.0770612955
v 0.0995881259 -0.041 0.07720867
v 0.09965915 -0.0445 0.07727561
v 0.09965915 -0.0375 0.07727561
v 0.09978861 -0.041 0.07742135
v 0.09987347 -0.0445 0.077539444
v 0.09987347 -0.0375 0.077539444
v 0.09994699 -0.041 0.0776633844
v 0.100026585 -0.0445 0.07783498
v 0.100026585 -0.0375 0.07783498
v 0.100058377 -0.041 0.07792241
v 0.100114882 -0.0445 0.0781421
v 0.100114882 -0.0375 0.0781421
v 0.100122362 -0.041 0.0781858
v 0.100142427 -0.0445 0.0784423351
v 0.100142427 -0.0375 0.0784423351
v 0.100114882 -0.0445 0.07874258
v 0.10010615 -0.041 0.07878642
v 0.100114882 -0.0375 0.07874258
v 0.100026585 -0.0445 0.07904969
v 0.100026585 -0.0375 0.07904969
v 0.099989444 -0.041 0.07913619
v 0.09987347 -0.0445 0.07934524
v 0.09987347 -0.0375 0.07934524
v 0.09978861 -0.041 0.07946332
v 0.09965915 -0.0445 0.0796090662
v 0.09965915 -0.0375 0.0796090662
v 0.09951342 -0.041 0.07973851
v 0.09939533 -0.0445 0.0798233747
v 0.09939533 -0.0375 0.0798233747
v 0.0991862938 -0.041 0.07993936
v 0.0990997851 -0.0445 0.0799764842
v 0.0990997851 -0.0375 0.0799764842
v 0.09883651 -0.041 0.08005606
v 0.09879267 -0.0445 0.08006479
v 0.09849243 -0.041 0.08009233
v 0.09879267 -0.0375 0.08006479
v 0.09849243 -0.0445 0.08009233
v 0.09849243 -0.0375 0.08009233
v 0.0981921852 -0.0445 0.08006479
v 0.0981921852 -0.0375 0.08006479
v 0.0981483459 -0.041 0.08005606
v 0.0978850648 -0.0445 0.0799764842
v 0.0978850648 -0.0375 0.0799764842
v 0.0978850648 -0.041 0.0799764842
v 0.09763028 -0.041 0.0798491761
v 0.09758954 -0.0445 0.0798233747
v 0.09758954 -0.0375 0.0798233747
v 0.09739672 -0.041 0.079676
v 0.097325705 -0.0445 0.0796090662
v 0.097325705 -0.0375 0.0796090662
v 0.09719625 -0.041 0.07946332
v 0.09711138 -0.0445 0.07934524
v 0.09711138 -0.0375 0.07934524
v 0.09703787 -0.041 0.0792212859
v 0.09695828 -0.0445 0.07904969
v 0.09695828 -0.0375 0.07904969
v 0.09692648 -0.041 0.07896226
v 0.09686998 -0.0445 0.07874258
v 0.09686998 -0.0375 0.07874258
v 0.0968624949 -0.041 0.07869888
v 0.09684242 -0.0445 0.0784423351
v 0.09684242 -0.0375 0.0784423351
v -0.142069608 -0.0355 0.0187709816
v -0.142069608 -0.0445 0.0187709816
v -0.142047063 -0.0445 0.01852533
v -0.142039925 -0.0400000028 0.0184894577
v -0.142047063 -0.0355 0.01852533
v -0.141974822 -0.0445 0.0182740539
v -0.141974822 -0.0355 0.0182740539
v -0.141944438 -0.0400000028 0.018203279
v -0.141849548 -0.0445 0.0180322472
v -0.141849548 -0.0355 0.0180322472
v -0.141780108 -0.0400000028 0.0179356281
v -0.141674191 -0.0445 0.0178163871
v -0.141674191 -0.0355 0.0178163871
v -0.141554952 -0.0400000028 0.01771047
v -0.141458333 -0.0445 0.0176410377
v -0.141458333 -0.0355 0.0176410377
v -0.141287312 -0.0400000028 0.017546149
v -0.141216531 -0.0445 0.0175157674
v -0.141216531 -0.0355 0.0175157674
v -0.141001135 -0.0400000028 0.01745066
v -0.140965253 -0.0445 0.01744352
v -0.1407196 -0.0400000028 0.0174209811
v -0.140965253 -0.0355 0.01744352
v -0.1407196 -0.0445 0.0174209811
v -0.1407196 -0.0355 0.0174209811
v -0.140473962 -0.0445 0.01744352
v -0.140473962 -0.0355 0.01744352
v -0.14043808 -0.0400000028 0.01745066
v -0.140222669 -0.0445 0.0175157674
v -0.140222669 -0.0355 0.0175157674
v -0.140222669 -0.0400000028 0.0175157674
v -0.1400142 -0.0400000028 0.0176199321
v -0.139980868 -0.0445 0.0176410377
v -0.139980868 -0.0355 0.0176410377
v -0.139823109 -0.0400000028 0.01776162
v -0.139765009 -0.0445 0.0178163871
v -0.139765009 -0.0355 0.0178163871
v -0.139659077 -0.0400000028 0.0179356281
v -0.139589667 -0.0445 0.0180322472
v -0.139589667 -0.0355 0.0180322472
v -0.139529511 -0.0400000028 0.0181336571
v -0.139464378 -0.0445 0.0182740539
v -0.139464378 -0.0355 0.0182740539
v -0.139438376 -0.0400000028 0.01834559
v -0.139392138 -0.0445 0.01852533
v -0.139392138 -0.0355 0.01852533
v -0.139386028 -0.0400000028 0.018561082
v -0.1393696 -0.0445 0.0187709816
v -0.1393696 -0.0355 0.0187709816
v -0.139392138 -0.0445 0.0190166309
v -0.139399275 -0.0400000028 0.0190525036
v -0.139392138 -0.0355 0.0190166309
v -0.139464378 -0.0445 0.01926791
v -0.139464378 -0.0355 0.01926791
v -0.139494777 -0.0400000028 0.0193386823
v -0.139589667 -0.0445 0.0195097141
v -0.139589667 -0.0355 0.0195097141
v -0.139659077 -0.0400000028 0.0196063351
v -0.139765009 -0.0445 0.019725576
v -0.139765009 -0.0355 0.019725576
v -0.139884248 -0.0400000028 0.0198314916
v -0.139980868 -0.0445 0.0199009255
v -0.139980868 -0.0355 0.0199009255
v -0.140151888 -0.0400000028 0.0199958123
v -0.140222669 -0.0445 0.0200261958
v -0.140222669 -0.0355 0.0200261958
v -0.14043808 -0.0400000028 0.0200913
v -0.140473962 -0.0445 0.0200984441
v -0.1407196 -0.0400000028 0.0201209821
v -0.140473962 -0.0355 0.0200984441
v -0.1407196 -0.0445 0.0201209821
v -0.1407196 -0.0355 0.0201209821
v -0.140965253 -0.0445 0.0200984441
v -0.140965253 -0.0355 0.0200984441
v -0.141001135 -0.0400000028 0.0200913
v -0.141216531 -0.0445 0.0200261958
v -0.141216531 -0.0355 0.0200261958
v -0.141216531 -0.0400000028 0.0200261958
v -0.141425 -0.0400000028 0.0199220311
v -0.141458333 -0.0445 0.0199009255
v -0.141458333 -0.0355 0.0199009255
v -0.141616076 -0.0400000028 0.0197803415
v -0.141674191 -0.0445 0.019725576
v -0.141674191 -0.0355 0.019725576
v -0.141780108 -0.0400000028 0.0196063351
v -0.141849548 -0.0445 0.0195097141
v -0.141849548 -0.0355 0.0195097141
v -0.141909689 -0.0400000028 0.0194083042
v -0.141974822 -0.0445 0.01926791
v -0.141974822 -0.0355 0.01926791
v -0.142000824 -0.0400000028 0.01919637
v -0.142047063 -0.0445 0.0190166309
v -0.142047063 -0.0355 0.0190166309
v -0.142053187 -0.0400000028 0.01898088
v -0.142069608 -0.0445 0.0187709816
v -0.142069608 -0.0355 0.0187709816
v 0.154219627 -0.0445 0.188130453
v 0.15419291 -0.0445 0.187839329
v 0.154719621 -0.045 0.188130453
v 0.154375389 -0.044750005 0.18754752
v 0.154107288 -0.0445 0.187541515
v 0.154684573 -0.045 0.187748358
v 0.154572174 -0.045 0.187357485
v 0.153958827 -0.0445 0.187254936
v 0.154377311 -0.045 0.18698132
v 0.154072925 -0.044750005 0.186985716
v 0.153751 -0.0445 0.186999112
v 0.153586283 -0.044750005 0.186553121
v 0.154104561 -0.045 0.186645538
v 0.153495163 -0.0445 0.186791271
v 0.153768778 -0.045 0.186372772
v 0.153208584 -0.0445 0.1866428
v 0.153392628 -0.045 0.186177909
v 0.153005421 -0.044750005 0.186321139
v 0.152910769 -0.0445 0.186557174
v 0.15261963 -0.044750005 0.186280474
v 0.153001755 -0.045 0.186065525
v 0.15261963 -0.0445 0.186530471
v 0.15261963 -0.045 0.186030477
v 0.152328491 -0.0445 0.186557174
v 0.1522375 -0.045 0.186065525
v 0.152233839 -0.044750005 0.186321139
v 0.152030677 -0.0445 0.1866428
v 0.151846617 -0.045 0.186177909
v 0.15184167 -0.044750005 0.186451986
v 0.1517441 -0.0445 0.186791271
v 0.151470482 -0.045 0.186372772
v 0.1514749 -0.044750005 0.186677188
v 0.151488245 -0.0445 0.186999112
v 0.151134714 -0.045 0.186645538
v 0.151166335 -0.044750005 0.186985716
v 0.151280433 -0.0445 0.187254936
v 0.150861934 -0.045 0.18698132
v 0.150941148 -0.044750005 0.187352479
v 0.151131973 -0.0445 0.187541515
v 0.150667071 -0.045 0.187357485
v 0.1508103 -0.044750005 0.187744662
v 0.151046336 -0.0445 0.187839329
v 0.150554687 -0.045 0.187748358
v 0.151019633 -0.0445 0.188130453
v 0.150519624 -0.045 0.188130453
v 0.161342472 -0.0355 0.193700373
v 0.161342472 -0.0445 0.193700373
v 0.158415422 -0.0400000028 0.179760471
v 0.155638 -0.0355 0.169330388
v 0.155638 -0.0445 0.169330388
v 0.154600531 -0.0400000028 0.165865287
v 0.14989154 -0.0400000028 0.152098149
v 0.1472026 -0.0355 0.145289183
v 0.1472026 -0.0445 0.145289183
v 0.1442925 -0.0400000028 0.1385442
v 0.1360657 -0.0355 0.122031309
v 0.1360657 -0.0445 0.122031309
v 0.137818262 -0.0400000028 0.12528868
v 0.130494431 -0.0400000028 0.112415388
v 0.122357234 -0.0355 0.100004829
v 0.122357234 -0.0445 0.100004829
v 0.122357234 -0.0400000028 0.100004829
v 0.113452926 -0.0400000028 0.08813263
v 0.106304288 -0.0355 0.0796236843
v 0.106304288 -0.0445 0.0796236843
v 0.103836894 -0.0400000028 0.07686798
v 0.09357256 -0.0400000028 0.06627235
v 0.0882189348 -0.0355 0.0612422079
v 0.0882189348 -0.0445 0.0612422079
v 0.0827299356 -0.0400000028 0.0563982949
v 0.0684783459 -0.0355 0.0451349169
v 0.0684783459 -0.0445 0.0451349169
v 0.07138422 -0.0400000028 0.04728878
v 0.059614066 -0.0400000028 0.03897655
v 0.0475000031 -0.0355 0.03148403
v 0.0475000031 -0.0445 0.03148403
v 0.0475000031 -0.0400000028 0.03148403
v 0.03495426 -0.0400000028 0.0247392021
v 0.025188813 -0.0355 0.0201416984
v 0.025188813 -0.0445 0.0201416984
v 0.0218705833 -0.0400000028 0.0187020674
v 0.00136920263 -0.0355 0.0110994941
v 0.00136920263 -0.0445 0.0110994941
v 0.00136920263 -0.0400000028 0.0110994941
v -0.0199721027 -0.0400000028 0.00538682658
v -0.0235923 -0.0355 0.00462785456
v -0.0235923 -0.0445 0.00462785456
v -0.0418866239 -0.0400000028 0.001687682
v -0.0492693633 -0.0355 0.0009161674
v -0.0492693633 -0.0445 0.0009161674
v -0.06408582 -0.0400000028 7.443212E-05
v -0.0751991 -0.0355 5.75188824E-05
v -0.0751991 -0.0445 5.7518886E-05
v -0.08627184 -0.0400000028 0.0005640227
v -0.100909442 -0.0355 0.00204162113
v -0.100909442 -0.0445 0.00204162113
v -0.108150661 -0.0400000028 0.00311742746
v -0.125947431 -0.0355 0.00675696135
v -0.125947431 -0.0445 0.006756962
v -0.129444867 -0.0400000028 0.007642773
v -0.149904713 -0.0355 0.0140017234
v -0.149904713 -0.0445 0.0140017234
v 0.146570325 -0.0445 0.1963051
v 0.146570325 -0.0355 0.1963051
v 0.14382869 -0.0400000028 0.183257446
v 0.141227692 -0.0445 0.173495024
v 0.141227692 -0.0355 0.173495024
v 0.1402562 -0.0400000028 0.170251757
v 0.135846958 -0.0400000028 0.157366022
v 0.133329362 -0.0445 0.150993
v 0.133329362 -0.0355 0.150993
v 0.130604789 -0.0400000028 0.1446799
v 0.122902907 -0.0445 0.129224434
v 0.122902907 -0.0355 0.129224434
v 0.124543592 -0.0400000028 0.132273212
v 0.11768733 -0.0400000028 0.12022429
v 0.110069953 -0.0445 0.108608484
v 0.110069953 -0.0355 0.108608484
v 0.110069953 -0.0400000028 0.108608484
v 0.101734683 -0.0400000028 0.0974965543
v 0.0950430259 -0.0445 0.08953248
v 0.0950430259 -0.0355 0.08953248
v 0.0927334 -0.0400000028 0.08695324
v 0.08312539 -0.0400000028 0.07703604
v 0.07811417 -0.0445 0.07232796
v 0.07811417 -0.0355 0.07232796
v 0.07297624 -0.0400000028 0.06779416
v 0.05963628 -0.0445 0.0572517663
v 0.05963628 -0.0355 0.0572517663
v 0.0623562634 -0.0400000028 0.059267763
v 0.051339075 -0.0400000028 0.05148752
v 0.0400000028 -0.0445 0.04447441
v 0.0400000028 -0.0355 0.04447441
v 0.0400000028 -0.0400000028 0.04447441
v 0.0282569379 -0.0400000028 0.0381610468
v 0.0191163532 -0.0445 0.0338575728
v 0.0191163532 -0.0355 0.0338575728
v 0.0160104558 -0.0400000028 0.0325099975
v -0.00317895226 -0.0445 0.02539335
v -0.00317895226 -0.0355 0.02539335
v -0.00317895226 -0.0400000028 0.02539335
v -0.0231544375 -0.0400000028 0.02004537
v -0.026542943 -0.0445 0.0193347875
v -0.026542943 -0.0355 0.0193347875
v -0.0436664373 -0.0400000028 0.0165817253
v -0.0505767 -0.0445 0.0158590972
v -0.0505767 -0.0355 0.0158590972
v -0.06444498 -0.0400000028 0.015070145
v -0.07484712 -0.0445 0.0150534045
v -0.07484712 -0.0355 0.0150534045
v -0.08521137 -0.0400000028 0.0155265061
v -0.09891249 -0.0445 0.01690812
v -0.09891249 -0.0355 0.01690812
v -0.105690472 -0.0400000028 0.0179143269
v -0.122348964 -0.0445 0.0213189609
v -0.122348964 -0.0355 0.0213189609
v -0.125622734 -0.0400000028 0.0221476723
v -0.144774392 -0.0445 0.028097149
v -0.144774392 -0.0355 0.028097149
v -0.1478096 -0.0400000028 0.0212199278
v -0.150203735 -0.0355 0.0146420812
v -0.150203735 -0.0445 0.0146420812
v -0.145415455 -0.0445 0.0277977791
v -0.145415455 -0.0355 0.0277977791
v -0.144945413 -0.045 0.0276273
v -0.142268047 -0.045 0.01978332
v -0.142027751 -0.045 0.02007913
v -0.141731933 -0.045 0.02031942
v -0.141400576 -0.045 0.0204910878
v -0.141056225 -0.045 0.0205900967
v -0.1407196 -0.045 0.0206209812
v -0.14038296 -0.045 0.0205900967
v -0.142439708 -0.045 0.0194519553
v -0.14003861 -0.045 0.0204910878
v -0.1497337 -0.045 0.0144715719
v -0.142538711 -0.045 0.0191076118
v -0.1425696 -0.045 0.0187709816
v -0.142538711 -0.045 0.01843435
v -0.142439708 -0.045 0.018090006
v -0.122468911 -0.045 0.02083356
v -0.139707267 -0.045 0.02031942
v -0.139411449 -0.045 0.02007913
v -0.139171153 -0.045 0.01978332
v -0.138999492 -0.045 0.0194519553
v -0.142268047 -0.045 0.0177586433
v -0.138900489 -0.045 0.0191076118
v -0.142027751 -0.045 0.0174628347
v -0.1388696 -0.045 0.0187709816
v -0.141731933 -0.045 0.0172225386
v -0.138900489 -0.045 0.01843435
v -0.141400576 -0.045 0.0170508735
v -0.141056225 -0.045 0.0169518664
v -0.1407196 -0.045 0.01692098
v -0.125827491 -0.045 0.007242361
v -0.14038296 -0.045 0.0169518664
v -0.138999492 -0.045 0.018090006
v -0.14003861 -0.045 0.0170508735
v -0.139707267 -0.045 0.0172225386
v -0.139411449 -0.045 0.0174628347
v -0.139171153 -0.045 0.0177586433
v -0.0989790559 -0.045 0.01641257
v -0.100842878 -0.045 0.002537171
v -0.0748588443 -0.045 0.01455354
v -0.07195256 -0.045 0.005772999
v -0.07175769 -0.045 0.006149141
v -0.07148492 -0.045 0.00648492435
v -0.07206494 -0.045 0.00538212247
v -0.07114914 -0.045 0.00675769057
v -0.07518736 -0.045 0.00055738166
v -0.072100006 -0.045 0.00500000035
v -0.07206494 -0.045 0.004617878
v -0.07195256 -0.045 0.004227001
v -0.07175769 -0.045 0.00385085959
v -0.0707730055 -0.045 0.00695255538
v -0.07148492 -0.045 0.003515076
v -0.0703821257 -0.045 0.00706494227
v -0.07114914 -0.045 0.00324230967
v -0.07 -0.045 0.0071
v -0.06961788 -0.045 0.00706494227
v -0.069227 -0.045 0.00695255538
v -0.0505331233 -0.045 0.015361
v -0.06885086 -0.045 0.00675769057
v -0.0707730055 -0.045 0.00304744462
v -0.06851508 -0.045 0.00648492435
v -0.0703821257 -0.045 0.002935059
v -0.07 -0.045 0.0029
v -0.06961788 -0.045 0.002935059
v -0.06824231 -0.045 0.006149141
v -0.0622481927 -0.045 0.000628159731
v -0.069227 -0.045 0.00304744462
v -0.06885086 -0.045 0.00324230967
v -0.06851508 -0.045 0.003515076
v -0.06824231 -0.045 0.00385085959
v -0.06804745 -0.045 0.004227001
v -0.06793506 -0.045 0.004617878
v -0.0679 -0.045 0.00500000035
v -0.06793506 -0.045 0.00538212247
v -0.06804745 -0.045 0.005772999
v -0.04931294 -0.045 0.00141426513
v -0.0236906558 -0.045 0.005118086
v -0.026444586 -0.045 0.0188445561
v 0.00121759751 -0.045 0.0115759559
v -0.003027347 -0.045 0.024916891
v 0.0249864 -0.045 0.0205988958
v 0.0193187669 -0.045 0.03340038
v 0.0472500026 -0.045 0.031917043
v 0.0402500033 -0.045 0.0440414026
v 0.06818361 -0.045 0.0455388129
v 0.0599310137 -0.045 0.05684787
v 0.0878821 -0.045 0.0616117343
v 0.07845099 -0.045 0.07195843
v 0.09770103 -0.045 0.07644329
v 0.09731592 -0.045 0.0766428
v 0.0969721451 -0.045 0.07692206
v 0.09669289 -0.045 0.07726583
v 0.0981012061 -0.045 0.0763282254
v 0.09649338 -0.045 0.0776509345
v 0.09849243 -0.045 0.076292336
v 0.09637832 -0.045 0.07805112
v 0.09888365 -0.045 0.0763282254
v 0.09928383 -0.045 0.07644329
v 0.0996689349 -0.045 0.0766428
v 0.09634242 -0.045 0.0784423351
v 0.105928913 -0.045 0.079953976
v 0.09637832 -0.045 0.07883356
v 0.09649338 -0.045 0.0792337358
v 0.09669289 -0.045 0.07961884
v 0.0954184 -0.045 0.08920219
v 0.0969721451 -0.045 0.07996261
v 0.09731592 -0.045 0.0802418739
v 0.09770103 -0.045 0.0804413855
v 0.100012712 -0.045 0.07692206
v 0.0981012061 -0.045 0.08055644
v 0.100291975 -0.045 0.07726583
v 0.100491479 -0.045 0.0776509345
v 0.100606531 -0.045 0.07805112
v 0.100642428 -0.045 0.0784423351
v 0.100606531 -0.045 0.07883356
v 0.09849243 -0.045 0.08059234
v 0.100491479 -0.045 0.0792337358
v 0.09888365 -0.045 0.08055644
v 0.100291975 -0.045 0.07961884
v 0.100012712 -0.045 0.07996261
v 0.0996689349 -0.045 0.0802418739
v 0.09928383 -0.045 0.0804413855
v 0.121947661 -0.045 0.100291625
v 0.110479519 -0.045 0.108321689
v 0.135626957 -0.045 0.122271091
v 0.123341665 -0.045 0.12898466
v 0.146740153 -0.045 0.1454793
v 0.1337918 -0.045 0.1508029
v 0.155157655 -0.045 0.169469208
v 0.141708046 -0.045 0.1733562
v 0.15261963 -0.045 0.186030477
v 0.1522375 -0.045 0.186065525
v 0.151846617 -0.045 0.186177909
v 0.153001755 -0.045 0.186065525
v 0.151470482 -0.045 0.186372772
v 0.153392628 -0.045 0.186177909
v 0.151134714 -0.045 0.186645538
v 0.153768778 -0.045 0.186372772
v 0.154104561 -0.045 0.186645538
v 0.154377311 -0.045 0.18698132
v 0.150861934 -0.045 0.18698132
v 0.160850078 -0.045 0.1937872
v 0.150667071 -0.045 0.187357485
v 0.150554687 -0.045 0.187748358
v 0.150519624 -0.045 0.188130453
v 0.147062734 -0.045 0.196218282
v 0.150554687 -0.045 0.188512579
v 0.150667071 -0.045 0.188903451
v 0.154572174 -0.045 0.187357485
v 0.154684573 -0.045 0.187748358
v 0.154719621 -0.045 0.188130453
v 0.154684573 -0.045 0.188512579
v 0.154572174 -0.045 0.188903451
v 0.150861934 -0.045 0.1892796
v 0.154377311 -0.045 0.1892796
v 0.151134714 -0.045 0.1896154
v 0.154104561 -0.045 0.1896154
v 0.151470482 -0.045 0.189888164
v 0.153768778 -0.045 0.189888164
v 0.151846617 -0.045 0.190083012
v 0.1522375 -0.045 0.190195411
v 0.15261963 -0.045 0.190230459
v 0.153392628 -0.045 0.190083012
v 0.153001755 -0.045 0.190195411
v 0.154043764 -0.0400000028 0.195495039
v 0.147150114 -0.0355 0.196710587
v 0.147150114 -0.0445 0.196710587
v 0.160937443 -0.0445 0.194279522
v 0.160937443 -0.0355 0.194279522
v 0.154000089 -0.03525 0.195248887
v 0.160850078 -0.035 0.1937872
v 0.147062734 -0.035 0.196218282
v 0.147150114 -0.0355 0.196710587
v 0.160937443 -0.0355 0.194279522
v -0.149904713 -0.0355 0.0140017234
v -0.1497337 -0.035 0.0144715719
v -0.136298269 -0.0352500044 0.009806521
v -0.125947431 -0.0355 0.00675696135
v -0.125827491 -0.035 0.007242361
v -0.122372068 -0.0352500044 0.00616659131
v -0.10811007 -0.0352500044 0.0033641113
v -0.100909442 -0.0355 0.00204162113
v -0.100842878 -0.035 0.002537171
v -0.09358794 -0.0352500044 0.00143807789
v -0.0751991 -0.0355 5.75188824E-05
v -0.07518736 -0.035 0.00055738166
v -0.07888687 -0.0352500044 0.000418274169
v -0.0640921146 -0.0352500044 0.000324352935
v -0.0492693633 -0.0355 0.0009161674
v -0.04931294 -0.035 0.00141426513
v -0.0492911562 -0.0352500044 0.00116521621
v -0.0345733128 -0.0352500044 0.00293855974
v -0.0235923 -0.0355 0.00462785456
v -0.0236906558 -0.035 0.005118086
v -0.0200253259 -0.0352500044 0.00563109573
v -0.005732279 -0.0352500044 0.00921864
v 0.00136920263 -0.0355 0.0110994941
v 0.00121759751 -0.035 0.0115759559
v 0.00822534 -0.0352500044 0.0136668608
v 0.025188813 -0.0355 0.0201416984
v 0.0249864 -0.035 0.0205988958
v 0.0217728484 -0.0352500044 0.0189321712
v 0.0348426066 -0.0352500044 0.0249628834
v 0.0475000031 -0.0355 0.03148403
v 0.0472500026 -0.035 0.031917043
v 0.0473750047 -0.0352500044 0.03170054
v 0.05947618 -0.0352500044 0.0391850844
v 0.0684783459 -0.0355 0.0451349169
v 0.06818361 -0.035 0.0455388129
v 0.07123381 -0.0352500044 0.04748847
v 0.0878821 -0.035 0.0616117343
v 0.0882189348 -0.0355 0.0612422079
v 0.0880505145 -0.0352500044 0.0614269748
v 0.0971367359 -0.035 0.0705142543
v 0.103651963 -0.0352500044 0.07703622
v 0.106304288 -0.0355 0.0796236843
v 0.105928913 -0.035 0.079953976
v 0.11779771 -0.0352500044 0.0941469446
v 0.122357234 -0.0355 0.100004829
v 0.121947661 -0.035 0.100291625
v 0.130281135 -0.0352500044 0.112545796
v 0.1360657 -0.0355 0.122031309
v 0.135626957 -0.035 0.122271091
v 0.140938789 -0.0352500044 0.131983548
v 0.1472026 -0.0355 0.145289183
v 0.146740153 -0.035 0.1454793
v 0.1496576 -0.0352500044 0.152186349
v 0.155638 -0.0355 0.169330388
v 0.155157655 -0.035 0.169469208
v 0.156378478 -0.0352500044 0.172868311
v 0.161342472 -0.0355 0.193700373
v 0.1583425 -0.035 0.181615055
v 0.160850078 -0.035 0.1937872
v 0.16113995 -0.0400000028 0.193989933
v 0.161342472 -0.0445 0.193700373
v 0.161342472 -0.0355 0.193700373
v 0.160937443 -0.0355 0.194279522
v 0.160937443 -0.0445 0.194279522
v 0.146570325 -0.0355 0.1963051
v 0.147062734 -0.035 0.196218282
v 0.144071937 -0.0352500044 0.183199659
v 0.141227692 -0.0355 0.173495024
v 0.141708046 -0.035 0.1733562
v 0.14049542 -0.0352500044 0.1701791
v 0.136081189 -0.0352500044 0.157278642
v 0.133329362 -0.0355 0.150993
v 0.1337918 -0.035 0.1508029
v 0.130833089 -0.0352500044 0.144578025
v 0.122902907 -0.0355 0.129224434
v 0.123341665 -0.035 0.12898466
v 0.124765 -0.0352500044 0.132157117
v 0.11790096 -0.0352500044 0.120094419
v 0.110069953 -0.0355 0.108608484
v 0.110479519 -0.035 0.108321689
v 0.110274732 -0.0352500044 0.10846509
v 0.101930134 -0.0352500044 0.09734067
v 0.0950430259 -0.0355 0.08953248
v 0.0954184 -0.035 0.08920219
v 0.09291858 -0.0352500044 0.0867853
v 0.08329964 -0.0352500044 0.0768567547
v 0.07811417 -0.0355 0.07232796
v 0.07845099 -0.035 0.07195843
v 0.07313889 -0.0352500044 0.0676043
v 0.05963628 -0.0355 0.0572517663
v 0.0599310137 -0.035 0.05684787
v 0.06250679 -0.0352500044 0.05906816
v 0.051477015 -0.0352500044 0.051279027
v 0.0400000028 -0.0355 0.04447441
v 0.0402500033 -0.035 0.0440414026
v 0.0401249975 -0.0352500044 0.0442579053
v 0.0283685289 -0.0352500044 0.0379373319
v 0.0191163532 -0.0355 0.0338575728
v 0.0193187669 -0.035 0.03340038
v 0.0161080547 -0.0352500044 0.0322798342
v -0.00317895226 -0.0355 0.02539335
v -0.003027347 -0.035 0.024916891
v -0.00310314936 -0.0352500044 0.02515512
v -0.02310159 -0.0352500044 0.0198010188
v -0.026542943 -0.0355 0.0193347875
v -0.026444586 -0.035 0.0188445561
v -0.04363703 -0.0352500044 0.0163334589
v -0.0505767 -0.0355 0.0158590972
v -0.0505331233 -0.035 0.015361
v -0.06443932 -0.0352500044 0.0148202088
v -0.07484712 -0.0355 0.0150534045
v -0.0748588443 -0.035 0.01455354
v -0.08522942 -0.0352500044 0.0152771585
v -0.09891249 -0.0355 0.01690812
v -0.0989790559 -0.035 0.01641257
v -0.105731927 -0.0352500044 0.0176677834
v -0.122348964 -0.0355 0.0213189609
v -0.122468911 -0.035 0.02083356
v -0.125686914 -0.0352500044 0.0219060555
v -0.144774392 -0.0355 0.028097149
v -0.144945413 -0.035 0.0276273
v -0.147574559 -0.0352499969 0.0211346783
v -0.144945413 -0.035 0.0276273
v -0.1497337 -0.035 0.0144715719
v -0.150203735 -0.0355 0.0146420812
v -0.145415455 -0.0355 0.0277977791
v 0.146860227 -0.0400000028 0.196507856
v 0.147150114 -0.0445 0.196710587
v 0.147150114 -0.0355 0.196710587
v 0.146570325 -0.0355 0.1963051
v 0.146570325 -0.0445 0.1963051
v -0.150054231 -0.0400000028 0.0143219028
v -0.150203735 -0.0445 0.0146420812
v -0.150203735 -0.0355 0.0146420812
v -0.149904713 -0.0355 0.0140017234
v -0.149904713 -0.0445 0.0140017234
v -0.1497337 -0.045 0.0144715719
v -0.149904713 -0.0445 0.0140017234
v -0.129381627 -0.044750005 0.007884643
v -0.125827491 -0.045 0.007242361
v -0.125947431 -0.0445 0.006756962
v -0.10811007 -0.044750005 0.0033641113
v -0.100842878 -0.045 0.002537171
v -0.100909442 -0.0445 0.00204162113
v -0.08625452 -0.044750005 0.0008134226
v -0.07518736 -0.045 0.00055738166
v -0.0751991 -0.0445 5.7518886E-05
v -0.0640921146 -0.044750005 0.000324352935
v -0.0622481927 -0.045 0.000628159731
v -0.0492693633 -0.0445 0.0009161674
v -0.04931294 -0.045 0.00141426513
v -0.0419165269 -0.044750005 0.00193588657
v -0.0235923 -0.0445 0.00462785456
v -0.0236906558 -0.045 0.005118086
v -0.0200253259 -0.044750005 0.00563109573
v 0.00136920263 -0.0445 0.0110994941
v 0.00121759751 -0.045 0.0115759559
v 0.0012934003 -0.044750005 0.0113377245
v 0.0217728484 -0.044750005 0.0189321712
v 0.025188813 -0.0445 0.0201416984
v 0.0249864 -0.045 0.0205988958
v 0.0348426066 -0.044750005 0.0249628834
v 0.0475000031 -0.0445 0.03148403
v 0.0472500026 -0.045 0.031917043
v 0.0473750047 -0.044750005 0.03170054
v 0.05947618 -0.044750005 0.0391850844
v 0.0684783459 -0.0445 0.0451349169
v 0.06818361 -0.045 0.0455388129
v 0.07123381 -0.044750005 0.04748847
v 0.08256745 -0.044750005 0.0565883
v 0.0882189348 -0.0445 0.0612422079
v 0.0878821 -0.045 0.0616117343
v 0.09339854 -0.044750005 0.06645185
v 0.106304288 -0.0445 0.0796236843
v 0.105928913 -0.045 0.079953976
v 0.103651963 -0.044750005 0.07703622
v 0.113257766 -0.044750005 0.08828887
v 0.122357234 -0.0445 0.100004829
v 0.121947661 -0.045 0.100291625
v 0.122152448 -0.044750005 0.100148231
v 0.130281135 -0.044750005 0.112545796
v 0.1360657 -0.0445 0.122031309
v 0.135626957 -0.045 0.122271091
v 0.137597173 -0.044750005 0.1254054
v 0.144064546 -0.044750005 0.1386468
v 0.1472026 -0.0445 0.145289183
v 0.146740153 -0.045 0.1454793
v 0.1496576 -0.044750005 0.152186349
v 0.155638 -0.0445 0.169330388
v 0.155157655 -0.045 0.169469208
v 0.154361591 -0.044750005 0.165938854
v 0.158172414 -0.044750005 0.179819241
v 0.161342472 -0.0445 0.193700373
v 0.160850078 -0.045 0.1937872
v -0.144774392 -0.0445 0.028097149
v -0.144945413 -0.045 0.0276273
v -0.13217555 -0.044750005 0.02370811
v -0.122348964 -0.0445 0.0213189609
v -0.122468911 -0.045 0.02083356
v -0.119111165 -0.044750005 0.020295186
v -0.105731927 -0.044750005 0.0176677834
v -0.09891249 -0.0445 0.01690812
v -0.0989790559 -0.045 0.01641257
v -0.09210881 -0.044750005 0.0158624556
v -0.07484712 -0.0445 0.0150534045
v -0.0748588443 -0.045 0.01455354
v -0.0783179551 -0.044750005 0.0149071254
v -0.06443932 -0.044750005 0.0148202088
v -0.0505767 -0.0445 0.0158590972
v -0.0505331233 -0.045 0.015361
v -0.0505549125 -0.044750005 0.0156100476
v -0.0367485881 -0.044750005 0.017274471
v -0.026542943 -0.0445 0.0193347875
v -0.026444586 -0.045 0.0188445561
v -0.02310159 -0.044750005 0.0198010188
v -0.00969374 -0.044750005 0.0231670048
v -0.00317895226 -0.0445 0.02539335
v -0.003027347 -0.045 0.024916891
v 0.00339948665 -0.044750005 0.0273402371
v 0.0191163532 -0.0445 0.0338575728
v 0.0193187669 -0.045 0.03340038
v 0.0161080547 -0.044750005 0.0322798342
v 0.0283685289 -0.044750005 0.0379373319
v 0.0400000028 -0.0445 0.04447441
v 0.0402500033 -0.045 0.0440414026
v 0.0401249975 -0.044750005 0.0442579053
v 0.051477015 -0.044750005 0.051279027
v 0.05963628 -0.0445 0.0572517663
v 0.0599310137 -0.045 0.05684787
v 0.06250679 -0.044750005 0.05906816
v 0.07811417 -0.0445 0.07232796
v 0.07845099 -0.045 0.07195843
v 0.07828257 -0.044750005 0.07214319
v 0.09291858 -0.044750005 0.0867853
v 0.0950430259 -0.0445 0.08953248
v 0.0954184 -0.045 0.08920219
v 0.106189311 -0.044750005 0.102835737
v 0.110069953 -0.0445 0.108608484
v 0.110479519 -0.045 0.108321689
v 0.11790096 -0.044750005 0.120094419
v 0.122902907 -0.0445 0.129224434
v 0.123341665 -0.045 0.12898466
v 0.127900273 -0.044750005 0.138327658
v 0.133329362 -0.0445 0.150993
v 0.1337918 -0.045 0.1508029
v 0.136081189 -0.044750005 0.157278642
v 0.141227692 -0.0445 0.173495024
v 0.141708046 -0.045 0.1733562
v 0.142388225 -0.044750005 0.176679313
v 0.146570325 -0.0445 0.1963051
v 0.147062734 -0.045 0.196218282
v -0.145094931 -0.0400000028 0.0279474631
v -0.144774392 -0.0445 0.028097149
v -0.144774392 -0.0355 0.028097149
v -0.145415455 -0.0355 0.0277977791
v -0.145415455 -0.0445 0.0277977791
v -0.147574559 -0.04475001 0.0211346783
v -0.145415455 -0.0445 0.0277977791
v -0.150203735 -0.0445 0.0146420812
v -0.1497337 -0.045 0.0144715719
v -0.144945413 -0.045 0.0276273
v 0.154000089 -0.04475001 0.195248887
v 0.147062734 -0.045 0.196218282
v 0.160850078 -0.045 0.1937872
v 0.160937443 -0.0445 0.194279522
v 0.147150114 -0.0445 0.196710587
v -0.145415455 -0.0355 0.0277977791
v -0.145094931 -0.0353032276 0.0277939849
v -0.144945413 -0.035 0.0276273
v -0.144774392 -0.0355 0.028097149
v -0.149904713 -0.0355 0.0140017234
v -0.149968714 -0.03539104 0.0143209929
v -0.1497337 -0.035 0.0144715719
v -0.150203735 -0.0355 0.0146420812
v 0.146570325 -0.0355 0.1963051
v 0.146860227 -0.0353351571 0.1963657
v 0.147062734 -0.035 0.196218282
v 0.147150114 -0.0355 0.196710587
v 0.160937443 -0.0355 0.194279522
v 0.161096275 -0.0353916325 0.19391863
v 0.160850078 -0.035 0.1937872
v 0.161342472 -0.0355 0.193700373
v -0.1497337 -0.035 0.0144715719
v -0.1425696 -0.035 0.0187709816
v -0.142538711 -0.035 0.01843435
v -0.142439708 -0.035 0.018090006
v -0.142538711 -0.035 0.0191076118
v -0.142268047 -0.035 0.0177586433
v -0.142027751 -0.035 0.0174628347
v -0.141731933 -0.035 0.0172225386
v -0.141400576 -0.035 0.0170508735
v -0.141056225 -0.035 0.0169518664
v -0.142439708 -0.035 0.0194519553
v -0.1407196 -0.035 0.01692098
v -0.125827491 -0.035 0.007242361
v -0.14038296 -0.035 0.0169518664
v -0.144945413 -0.035 0.0276273
v -0.142268047 -0.035 0.01978332
v -0.142027751 -0.035 0.02007913
v -0.14003861 -0.035 0.0170508735
v -0.141731933 -0.035 0.02031942
v -0.139707267 -0.035 0.0172225386
v -0.141400576 -0.035 0.0204910878
v -0.139411449 -0.035 0.0174628347
v -0.141056225 -0.035 0.0205900967
v -0.1407196 -0.035 0.0206209812
v -0.14038296 -0.035 0.0205900967
v -0.14003861 -0.035 0.0204910878
v -0.122468911 -0.035 0.02083356
v -0.139707267 -0.035 0.02031942
v -0.139411449 -0.035 0.02007913
v -0.139171153 -0.035 0.01978332
v -0.138999492 -0.035 0.0194519553
v -0.138900489 -0.035 0.0191076118
v -0.1388696 -0.035 0.0187709816
v -0.138900489 -0.035 0.01843435
v -0.138999492 -0.035 0.018090006
v -0.139171153 -0.035 0.0177586433
v -0.0989790559 -0.035 0.01641257
v -0.100842878 -0.035 0.002537171
v -0.0748588443 -0.035 0.01455354
v -0.07278937 -0.035 0.006104284
v -0.07251099 -0.035 0.00664162962
v -0.07212132 -0.035 0.007121321
v -0.0729499161 -0.035 0.005545889
v -0.07300001 -0.035 0.00500000035
v -0.07518736 -0.035 0.00055738166
v -0.0729499161 -0.035 0.004454111
v -0.07278937 -0.035 0.00389571581
v -0.07251099 -0.035 0.00335837062
v -0.07164164 -0.035 0.00751098664
v -0.07212132 -0.035 0.00287867966
v -0.07110429 -0.035 0.00778936548
v -0.07164164 -0.035 0.0024890136
v -0.07054589 -0.035 0.007949917
v -0.07110429 -0.035 0.00221063523
v -0.07 -0.035 0.008
v -0.06945412 -0.035 0.007949917
v -0.06889572 -0.035 0.00778936548
v -0.0505331233 -0.035 0.015361
v -0.07054589 -0.035 0.002050084
v -0.07 -0.035 0.002
v -0.06945412 -0.035 0.002050084
v -0.06835838 -0.035 0.00751098664
v -0.04931294 -0.035 0.00141426513
v -0.06889572 -0.035 0.00221063523
v -0.06835838 -0.035 0.0024890136
v -0.06787868 -0.035 0.00287867966
v -0.06748901 -0.035 0.00335837062
v -0.06787868 -0.035 0.007121321
v -0.06721064 -0.035 0.00389571581
v -0.06748901 -0.035 0.00664162962
v -0.06705009 -0.035 0.004454111
v -0.067 -0.035 0.00500000035
v -0.06705009 -0.035 0.005545889
v -0.06721064 -0.035 0.006104284
v -0.0236906558 -0.035 0.005118086
v -0.026444586 -0.035 0.0188445561
v 0.00121759751 -0.035 0.0115759559
v -0.003027347 -0.035 0.024916891
v 0.0249864 -0.035 0.0205988958
v 0.0193187669 -0.035 0.03340038
v 0.0472500026 -0.035 0.031917043
v 0.0402500033 -0.035 0.0440414026
v 0.06818361 -0.035 0.0455388129
v 0.0599310137 -0.035 0.05684787
v 0.0878821 -0.035 0.0616117343
v 0.07845099 -0.035 0.07195843
v 0.0971367359 -0.035 0.0705142543
v 0.09687585 -0.035 0.07564233
v 0.0952592641 -0.035 0.0784423351
v 0.100109011 -0.035 0.07564233
v 0.09687585 -0.035 0.08124233
v 0.105928913 -0.035 0.079953976
v 0.0954184 -0.035 0.08920219
v 0.101725593 -0.035 0.0784423351
v 0.100109011 -0.035 0.08124233
v 0.121947661 -0.035 0.100291625
v 0.110479519 -0.035 0.108321689
v 0.135626957 -0.035 0.122271091
v 0.123341665 -0.035 0.12898466
v 0.146740153 -0.035 0.1454793
v 0.1337918 -0.035 0.1508029
v 0.155157655 -0.035 0.169469208
v 0.141708046 -0.035 0.1733562
v 0.1583425 -0.035 0.181615055
v 0.1522375 -0.035 0.186065525
v 0.151846617 -0.035 0.186177909
v 0.15261963 -0.035 0.186030477
v 0.153001755 -0.035 0.186065525
v 0.151470482 -0.035 0.186372772
v 0.153392628 -0.035 0.186177909
v 0.151134714 -0.035 0.186645538
v 0.153768778 -0.035 0.186372772
v 0.150861934 -0.035 0.18698132
v 0.154104561 -0.035 0.186645538
v 0.150667071 -0.035 0.187357485
v 0.150554687 -0.035 0.187748358
v 0.150519624 -0.035 0.188130453
v 0.147062734 -0.035 0.196218282
v 0.150554687 -0.035 0.188512579
v 0.150667071 -0.035 0.188903451
v 0.154377311 -0.035 0.18698132
v 0.154572174 -0.035 0.187357485
v 0.154684573 -0.035 0.187748358
v 0.160850078 -0.035 0.1937872
v 0.154719621 -0.035 0.188130453
v 0.154684573 -0.035 0.188512579
v 0.154572174 -0.035 0.188903451
v 0.150861934 -0.035 0.1892796
v 0.154377311 -0.035 0.1892796
v 0.151134714 -0.035 0.1896154
v 0.154104561 -0.035 0.1896154
v 0.151470482 -0.035 0.189888164
v 0.153768778 -0.035 0.189888164
v 0.151846617 -0.035 0.190083012
v 0.1522375 -0.035 0.190195411
v 0.15261963 -0.035 0.190230459
v 0.153392628 -0.035 0.190083012
v 0.153001755 -0.035 0.190195411
v 0.100109011 -0.0375 0.08124233
v 0.09965915 -0.0375 0.0796090662
v 0.09939533 -0.0375 0.0798233747
v 0.0990997851 -0.0375 0.0799764842
v 0.09879267 -0.0375 0.08006479
v 0.09987347 -0.0375 0.07934524
v 0.101725593 -0.0375 0.0784423351
v 0.09849243 -0.0375 0.08009233
v 0.100026585 -0.0375 0.07904969
v 0.09687585 -0.0375 0.08124233
v 0.100114882 -0.0375 0.07874258
v 0.0981921852 -0.0375 0.08006479
v 0.100142427 -0.0375 0.0784423351
v 0.0978850648 -0.0375 0.0799764842
v 0.100114882 -0.0375 0.0781421
v 0.100026585 -0.0375 0.07783498
v 0.09987347 -0.0375 0.077539444
v 0.09758954 -0.0375 0.0798233747
v 0.097325705 -0.0375 0.0796090662
v 0.09711138 -0.0375 0.07934524
v 0.0952592641 -0.0375 0.0784423351
v 0.100109011 -0.0375 0.07564233
v 0.09695828 -0.0375 0.07904969
v 0.09965915 -0.0375 0.07727561
v 0.09686998 -0.0375 0.07874258
v 0.09939533 -0.0375 0.0770612955
v 0.09684242 -0.0375 0.0784423351
v 0.0990997851 -0.0375 0.0769081861
v 0.09879267 -0.0375 0.07681988
v 0.09849243 -0.0375 0.07679234
v 0.09686998 -0.0375 0.0781421
v 0.09695828 -0.0375 0.07783498
v 0.09711138 -0.0375 0.077539444
v 0.09687585 -0.0375 0.07564233
v 0.0981921852 -0.0375 0.07681988
v 0.097325705 -0.0375 0.07727561
v 0.0978850648 -0.0375 0.0769081861
v 0.09758954 -0.0375 0.0770612955
v 0.100917295 -0.0362500027 0.0798423439
v 0.100109011 -0.0375 0.08124233
v 0.100109011 -0.035 0.08124233
v 0.101725593 -0.035 0.0784423351
v 0.101725593 -0.0375 0.0784423351
v 0.100109011 -0.0375 0.07564233
v 0.100917295 -0.0362500027 0.07704234
v 0.100109011 -0.035 0.07564233
v 0.101725593 -0.0375 0.0784423351
v 0.101725593 -0.035 0.0784423351
v 0.09687585 -0.0375 0.07564233
v 0.09849243 -0.0362500027 0.07564233
v 0.09687585 -0.035 0.07564233
v 0.100109011 -0.0375 0.07564233
v 0.100109011 -0.035 0.07564233
v 0.0952592641 -0.0375 0.0784423351
v 0.0960675552 -0.0362500027 0.07704234
v 0.0952592641 -0.035 0.0784423351
v 0.09687585 -0.0375 0.07564233
v 0.09687585 -0.035 0.07564233
v 0.09687585 -0.0375 0.08124233
v 0.0960675552 -0.0362500027 0.0798423439
v 0.09687585 -0.035 0.08124233
v 0.0952592641 -0.0375 0.0784423351
v 0.0952592641 -0.035 0.0784423351
v -0.07029115 -0.0375 0.00342671177
v -0.07054589 -0.0375 0.002050084
v -0.07110429 -0.0375 0.00221063523
v -0.07 -0.0375 0.002
v -0.0705889538 -0.0375 0.00351233874
v -0.07 -0.0375 0.00340000028
v -0.07164164 -0.0375 0.0024890136
v -0.06945412 -0.0375 0.002050084
v -0.07087554 -0.0375 0.00366080762
v -0.06970886 -0.0375 0.00342671177
v -0.07212132 -0.0375 0.00287867966
v -0.06889572 -0.0375 0.00221063523
v -0.07113138 -0.0375 0.00386862922
v -0.0694110543 -0.0375 0.00351233874
v -0.07251099 -0.0375 0.00335837062
v -0.06835838 -0.0375 0.0024890136
v -0.0713392 -0.0375 0.00412446447
v -0.06912447 -0.0375 0.00366080762
v -0.07278937 -0.0375 0.00389571581
v -0.06787868 -0.0375 0.00287867966
v -0.0714876652 -0.0375 0.00441104872
v -0.06886863 -0.0375 0.00386862922
v -0.0729499161 -0.0375 0.004454111
v -0.06748901 -0.0375 0.00335837062
v -0.0715732947 -0.0375 0.004708859
v -0.06866081 -0.0375 0.00412446447
v -0.06721064 -0.0375 0.00389571581
v -0.06851234 -0.0375 0.00441104872
v -0.07300001 -0.0375 0.00500000035
v -0.0716 -0.0375 0.00500000035
v -0.0715732947 -0.0375 0.005291141
v -0.0729499161 -0.0375 0.005545889
v -0.0714876652 -0.0375 0.00558895152
v -0.07278937 -0.0375 0.006104284
v -0.0713392 -0.0375 0.00587553624
v -0.07251099 -0.0375 0.00664162962
v -0.07113138 -0.0375 0.006131371
v -0.07212132 -0.0375 0.007121321
v -0.07087554 -0.0375 0.00633919332
v -0.07164164 -0.0375 0.00751098664
v -0.0705889538 -0.0375 0.006487661
v -0.07110429 -0.0375 0.00778936548
v -0.07029115 -0.0375 0.0065732887
v -0.07054589 -0.0375 0.007949917
v -0.07 -0.0375 0.006600001
v -0.07 -0.0375 0.008
v -0.06945412 -0.0375 0.007949917
v -0.06970886 -0.0375 0.0065732887
v -0.06889572 -0.0375 0.00778936548
v -0.0694110543 -0.0375 0.006487661
v -0.06835838 -0.0375 0.00751098664
v -0.06912447 -0.0375 0.00633919332
v -0.06787868 -0.0375 0.007121321
v -0.06886863 -0.0375 0.006131371
v -0.06748901 -0.0375 0.00664162962
v -0.06866081 -0.0375 0.00587553624
v -0.06721064 -0.0375 0.006104284
v -0.06851234 -0.0375 0.00558895152
v -0.06705009 -0.0375 0.005545889
v -0.06842671 -0.0375 0.005291141
v -0.067 -0.0375 0.00500000035
v -0.0684 -0.0375 0.00500000035
v -0.06705009 -0.0375 0.004454111
v -0.06842671 -0.0375 0.004708859
v -0.145415455 -0.0445 0.0277977791
v -0.145094931 -0.0446967781 0.0277939849
v -0.144774392 -0.0445 0.028097149
v -0.144945413 -0.045 0.0276273
v -0.1497337 -0.045 0.0144715719
v -0.149968714 -0.04460897 0.0143209929
v -0.149904713 -0.0445 0.0140017234
v -0.150203735 -0.0445 0.0146420812
v 0.147062734 -0.045 0.196218282
v 0.146860227 -0.0446648449 0.1963657
v 0.146570325 -0.0445 0.1963051
v 0.147150114 -0.0445 0.196710587
v 0.160850078 -0.045 0.1937872
v 0.161096275 -0.0446083732 0.19391863
v 0.160937443 -0.0445 0.194279522
v 0.161342472 -0.0445 0.193700373
v 0.100109011 -0.0375 0.08124233
v 0.09849243 -0.0362500027 0.08124233
v 0.100109011 -0.035 0.08124233
v 0.09687585 -0.0375 0.08124233
v 0.09687585 -0.035 0.08124233
f 1 2 3
f 1 3 4
f 5 1 4
f 4 3 6
f 7 5 4
f 4 6 8
f 9 7 4
f 10 4 8
f 9 4 10
f 10 8 11
f 12 10 11
f 13 9 10
f 13 10 12
f 12 11 14
f 15 13 12
f 12 14 16
f 17 15 12
f 18 12 16
f 17 12 18
f 18 16 19
f 20 18 19
f 21 17 18
f 21 18 20
f 20 19 22
f 23 21 20
f 20 22 24
f 25 23 20
f 26 20 24
f 25 20 26
f 26 24 27
f 28 25 26
f 29 26 27
f 28 26 29
f 29 27 30
f 31 28 29
f 32 29 30
f 31 29 32
f 32 30 33
f 34 31 32
f 35 32 33
f 34 32 35
f 35 33 36
f 37 34 35
f 38 35 36
f 37 35 38
f 38 36 39
f 40 37 38
f 41 38 39
f 40 38 41
f 41 39 42
f 43 40 41
f 44 41 42
f 43 41 44
f 45 43 44
f 44 46 45
f 46 47 45
f 46 48 47
f 45 47 49
f 47 50 49
f 48 51 47
f 47 52 50
f 51 53 47
f 47 53 52
f 51 54 53
f 54 55 53
f 53 56 52
f 53 55 56
f 54 57 55
f 55 58 56
f 57 59 55
f 55 60 58
f 59 61 55
f 55 61 60
f 59 62 61
f 62 63 61
f 61 64 60
f 61 63 64
f 62 65 63
f 63 66 64
f 65 67 63
f 63 68 66
f 67 69 63
f 63 69 68
f 67 70 69
f 69 71 68
f 70 72 69
f 69 72 71
f 70 73 72
f 72 74 71
f 73 75 72
f 72 75 74
f 73 76 75
f 75 77 74
f 76 78 75
f 75 78 77
f 76 79 78
f 78 80 77
f 79 81 78
f 78 81 80
f 79 82 81
f 81 83 80
f 82 84 81
f 81 84 83
f 82 85 84
f 84 86 83
f 85 87 84
f 87 86 84
f 87 88 86
f 89 90 91
f 89 91 92
f 93 89 92
f 92 91 94
f 95 93 92
f 92 94 96
f 97 95 92
f 98 92 96
f 97 92 98
f 98 96 99
f 100 98 99
f 101 97 98
f 101 98 100
f 100 99 102
f 103 101 100
f 100 102 104
f 105 103 100
f 106 100 104
f 105 100 106
f 106 104 107
f 108 106 107
f 109 105 106
f 109 106 108
f 108 107 110
f 111 109 108
f 108 110 112
f 113 111 108
f 114 108 112
f 113 108 114
f 114 112 115
f 116 113 114
f 117 114 115
f 116 114 117
f 117 115 118
f 119 116 117
f 120 117 118
f 119 117 120
f 120 118 121
f 122 119 120
f 123 120 121
f 122 120 123
f 123 121 124
f 125 122 123
f 126 123 124
f 125 123 126
f 126 124 127
f 128 125 126
f 129 126 127
f 128 126 129
f 129 127 130
f 131 128 129
f 132 129 130
f 131 129 132
f 133 131 132
f 132 134 133
f 134 135 133
f 134 136 135
f 133 135 137
f 135 138 137
f 136 139 135
f 135 140 138
f 139 141 135
f 135 141 140
f 139 142 141
f 142 143 141
f 141 144 140
f 141 143 144
f 142 145 143
f 143 146 144
f 145 147 143
f 143 148 146
f 147 149 143
f 143 149 148
f 147 150 149
f 150 151 149
f 149 152 148
f 149 151 152
f 150 153 151
f 151 154 152
f 153 155 151
f 151 156 154
f 155 157 151
f 151 157 156
f 155 158 157
f 157 159 156
f 158 160 157
f 157 160 159
f 158 161 160
f 160 162 159
f 161 163 160
f 160 163 162
f 161 164 163
f 163 165 162
f 164 166 163
f 163 166 165
f 164 167 166
f 166 168 165
f 167 169 166
f 166 169 168
f 167 170 169
f 169 171 168
f 170 172 169
f 169 172 171
f 170 173 172
f 172 174 171
f 173 175 172
f 175 174 172
f 175 176 174
f 177 178 179
f 178 180 179
f 179 180 181
f 178 182 180
f 180 183 181
f 182 184 180
f 180 184 183
f 182 185 184
f 184 186 183
f 185 187 184
f 184 187 186
f 185 188 187
f 187 189 186
f 188 190 187
f 187 190 189
f 188 191 190
f 190 192 189
f 191 193 190
f 190 193 192
f 191 194 193
f 193 195 192
f 194 196 193
f 193 196 195
f 194 197 196
f 197 198 196
f 196 199 195
f 196 198 199
f 197 200 198
f 198 201 199
f 200 202 198
f 198 203 201
f 202 204 198
f 198 204 203
f 202 205 204
f 205 206 204
f 204 207 203
f 204 206 207
f 205 208 206
f 206 209 207
f 208 210 206
f 206 211 209
f 210 212 206
f 206 212 211
f 210 213 212
f 213 214 212
f 212 215 211
f 212 214 215
f 213 216 214
f 214 217 215
f 216 218 214
f 214 219 217
f 218 220 214
f 220 219 214
f 220 221 219
f 222 223 224
f 222 224 225
f 226 222 225
f 225 224 227
f 228 226 225
f 225 227 229
f 230 228 225
f 231 225 229
f 230 225 231
f 231 229 232
f 233 231 232
f 234 230 231
f 234 231 233
f 233 232 235
f 236 234 233
f 233 235 237
f 238 236 233
f 239 233 237
f 238 233 239
f 239 237 240
f 241 239 240
f 242 238 239
f 242 239 241
f 241 240 243
f 244 242 241
f 241 243 245
f 246 244 241
f 247 241 245
f 246 241 247
f 247 245 248
f 249 246 247
f 250 247 248
f 249 247 250
f 250 248 251
f 252 249 250
f 253 250 251
f 252 250 253
f 253 251 254
f 255 252 253
f 256 253 254
f 255 253 256
f 256 254 257
f 258 255 256
f 259 256 257
f 258 256 259
f 259 257 260
f 261 258 259
f 262 259 260
f 261 259 262
f 262 260 263
f 264 261 262
f 265 262 263
f 264 262 265
f 266 264 265
f 265 267 266
f 267 268 266
f 267 269 268
f 266 268 270
f 268 271 270
f 269 272 268
f 268 273 271
f 272 274 268
f 268 274 273
f 272 275 274
f 275 276 274
f 274 277 273
f 274 276 277
f 275 278 276
f 276 279 277
f 278 280 276
f 276 281 279
f 280 282 276
f 276 282 281
f 280 283 282
f 283 284 282
f 282 285 281
f 282 284 285
f 283 286 284
f 284 287 285
f 286 288 284
f 284 289 287
f 288 290 284
f 284 290 289
f 288 291 290
f 290 292 289
f 291 293 290
f 290 293 292
f 291 294 293
f 293 295 292
f 294 296 293
f 293 296 295
f 294 297 296
f 296 298 295
f 297 299 296
f 296 299 298
f 297 300 299
f 299 301 298
f 300 302 299
f 299 302 301
f 300 303 302
f 302 304 301
f 303 305 302
f 302 305 304
f 303 306 305
f 305 307 304
f 306 308 305
f 308 307 305
f 308 309 307
f 310 311 312
f 310 312 313
f 314 310 313
f 313 312 315
f 316 314 313
f 313 315 317
f 318 316 313
f 319 313 317
f 318 313 319
f 319 317 320
f 321 319 320
f 322 318 319
f 322 319 321
f 321 320 323
f 324 322 321
f 321 323 325
f 326 324 321
f 327 321 325
f 326 321 327
f 327 325 328
f 329 327 328
f 330 326 327
f 330 327 329
f 329 328 331
f 332 330 329
f 329 331 333
f 334 332 329
f 335 329 333
f 334 329 335
f 335 333 336
f 337 334 335
f 338 335 336
f 337 335 338
f 338 336 339
f 340 337 338
f 341 338 339
f 340 338 341
f 341 339 342
f 343 340 341
f 344 341 342
f 343 341 344
f 344 342 345
f 346 343 344
f 347 344 345
f 346 344 347
f 347 345 348
f 349 346 347
f 350 347 348
f 349 347 350
f 350 348 351
f 352 349 350
f 353 350 351
f 352 350 353
f 354 352 353
f 353 355 354
f 355 356 354
f 355 357 356
f 354 356 358
f 356 359 358
f 357 360 356
f 356 361 359
f 360 362 356
f 356 362 361
f 360 363 362
f 363 364 362
f 362 365 361
f 362 364 365
f 363 366 364
f 364 367 365
f 366 368 364
f 364 369 367
f 368 370 364
f 364 370 369
f 368 371 370
f 371 372 370
f 370 373 369
f 370 372 373
f 371 374 372
f 372 375 373
f 374 376 372
f 372 377 375
f 376 378 372
f 372 378 377
f 376 379 378
f 378 380 377
f 379 381 378
f 378 381 380
f 379 382 381
f 381 383 380
f 382 384 381
f 381 384 383
f 382 385 384
f 384 386 383
f 385 387 384
f 384 387 386
f 385 388 387
f 387 389 386
f 388 390 387
f 387 390 389
f 388 391 390
f 390 392 389
f 391 393 390
f 390 393 392
f 391 394 393
f 393 395 392
f 394 396 393
f 396 395 393
f 396 397 395
f 398 399 400
f 399 401 400
f 400 401 402
f 399 403 401
f 401 404 402
f 403 405 401
f 401 405 404
f 403 406 405
f 405 407 404
f 406 408 405
f 405 408 407
f 406 409 408
f 408 410 407
f 409 411 408
f 408 411 410
f 409 412 411
f 411 413 410
f 412 414 411
f 411 414 413
f 412 415 414
f 414 416 413
f 415 417 414
f 414 417 416
f 415 418 417
f 418 419 417
f 417 420 416
f 417 419 420
f 418 421 419
f 419 422 420
f 421 423 419
f 419 424 422
f 423 425 419
f 419 425 424
f 423 426 425
f 426 427 425
f 425 428 424
f 425 427 428
f 426 429 427
f 427 430 428
f 429 431 427
f 427 432 430
f 431 433 427
f 427 433 432
f 431 434 433
f 434 435 433
f 433 436 432
f 433 435 436
f 434 437 435
f 435 438 436
f 437 439 435
f 435 440 438
f 439 441 435
f 441 440 435
f 441 442 440
f 443 444 445
f 443 445 446
f 447 443 446
f 446 445 448
f 449 447 446
f 450 446 448
f 449 446 450
f 450 448 451
f 452 449 450
f 453 450 451
f 452 450 453
f 453 451 454
f 455 452 453
f 456 453 454
f 455 453 456
f 456 454 457
f 458 455 456
f 459 456 457
f 458 456 459
f 459 457 460
f 461 458 459
f 462 459 460
f 461 459 462
f 462 460 463
f 464 462 463
f 465 461 462
f 465 462 464
f 464 463 466
f 467 465 464
f 468 464 466
f 469 467 464
f 470 464 468
f 469 464 470
f 471 470 468
f 472 469 470
f 473 470 471
f 473 472 470
f 474 473 471
f 473 474 472
f 474 471 475
f 474 476 472
f 477 474 475
f 474 477 476
f 477 475 478
f 477 479 476
f 480 477 478
f 477 480 479
f 480 478 481
f 480 482 479
f 483 480 481
f 480 483 482
f 483 481 484
f 483 485 482
f 486 483 484
f 483 486 485
f 486 484 487
f 486 488 485
f 489 486 487
f 486 489 488
f 489 487 490
f 488 489 491
f 489 490 491
f 490 492 491
f 492 493 491
f 491 493 494
f 492 495 493
f 493 496 494
f 495 497 493
f 493 497 496
f 495 498 497
f 497 499 496
f 498 500 497
f 497 500 499
f 498 501 500
f 500 502 499
f 501 503 500
f 500 503 502
f 501 504 503
f 503 505 502
f 504 506 503
f 503 506 505
f 504 507 506
f 506 508 505
f 507 509 506
f 506 509 508
f 507 510 509
f 510 511 509
f 509 512 508
f 509 511 512
f 510 513 511
f 511 514 512
f 513 515 511
f 511 516 514
f 515 517 511
f 511 517 516
f 515 518 517
f 517 519 516
f 518 520 517
f 517 520 519
f 518 521 520
f 521 519 520
f 522 521 518
f 521 523 519
f 524 521 522
f 521 524 523
f 525 524 522
f 524 526 523
f 527 524 525
f 524 527 526
f 528 527 525
f 527 529 526
f 530 527 528
f 527 530 529
f 531 530 528
f 530 532 529
f 533 530 531
f 530 533 532
f 534 533 531
f 533 535 532
f 536 533 534
f 533 536 535
f 537 536 534
f 536 538 535
f 536 537 538
f 539 540 541
f 539 541 542
f 543 539 542
f 542 541 544
f 545 543 542
f 546 542 544
f 545 542 546
f 546 544 547
f 548 545 546
f 549 546 547
f 548 546 549
f 549 547 550
f 551 548 549
f 552 549 550
f 551 549 552
f 552 550 553
f 554 551 552
f 555 552 553
f 554 552 555
f 555 553 556
f 557 554 555
f 558 555 556
f 557 555 558
f 558 556 559
f 560 558 559
f 561 557 558
f 561 558 560
f 560 559 562
f 563 561 560
f 564 560 562
f 565 563 560
f 566 560 564
f 565 560 566
f 567 566 564
f 568 565 566
f 569 566 567
f 569 568 566
f 570 569 567
f 569 570 568
f 570 567 571
f 570 572 568
f 573 570 571
f 570 573 572
f 573 571 574
f 573 575 572
f 576 573 574
f 573 576 575
f 576 574 577
f 576 578 575
f 579 576 577
f 576 579 578
f 579 577 580
f 579 581 578
f 582 579 580
f 579 582 581
f 582 580 583
f 582 584 581
f 585 582 583
f 582 585 584
f 585 583 586
f 584 585 587
f 585 586 587
f 586 588 587
f 588 589 587
f 587 589 590
f 588 591 589
f 589 592 590
f 591 593 589
f 589 593 592
f 591 594 593
f 593 595 592
f 594 596 593
f 593 596 595
f 594 597 596
f 596 598 595
f 597 599 596
f 596 599 598
f 597 600 599
f 599 601 598
f 600 602 599
f 599 602 601
f 600 603 602
f 602 604 601
f 603 605 602
f 602 605 604
f 603 606 605
f 606 607 605
f 605 608 604
f 605 607 608
f 606 609 607
f 607 610 608
f 609 611 607
f 607 612 610
f 611 613 607
f 607 613 612
f 611 614 613
f 613 615 612
f 614 616 613
f 613 616 615
f 614 617 616
f 617 615 616
f 618 617 614
f 617 619 615
f 620 617 618
f 617 620 619
f 621 620 618
f 620 622 619
f 623 620 621
f 620 623 622
f 624 623 621
f 623 625 622
f 626 623 624
f 623 626 625
f 627 626 624
f 626 628 625
f 629 626 627
f 626 629 628
f 630 629 627
f 629 631 628
f 632 629 630
f 629 632 631
f 633 632 630
f 632 634 631
f 632 633 634
f 635 636 637
f 636 638 637
f 636 639 638
f 637 638 640
f 638 641 640
f 639 642 638
f 638 643 641
f 642 644 638
f 638 644 643
f 642 645 644
f 645 646 644
f 644 647 643
f 644 646 647
f 645 648 646
f 646 649 647
f 648 650 646
f 646 651 649
f 650 652 646
f 646 652 651
f 650 653 652
f 653 654 652
f 652 655 651
f 652 654 655
f 653 656 654
f 654 657 655
f 656 658 654
f 654 659 657
f 658 660 654
f 654 660 659
f 658 661 660
f 660 662 659
f 661 663 660
f 660 663 662
f 661 664 663
f 663 665 662
f 664 666 663
f 663 666 665
f 664 667 666
f 666 668 665
f 667 669 666
f 666 669 668
f 667 670 669
f 669 671 668
f 670 672 669
f 669 672 671
f 670 673 672
f 672 674 671
f 673 675 672
f 672 675 674
f 673 676 675
f 675 677 674
f 676 678 675
f 678 677 675
f 678 679 677
f 680 681 682
f 680 682 683
f 684 680 683
f 683 682 685
f 686 684 683
f 687 683 685
f 686 683 687
f 687 685 688
f 689 686 687
f 690 687 688
f 689 687 690
f 690 688 691
f 692 689 690
f 693 690 691
f 692 690 693
f 693 691 694
f 695 692 693
f 696 693 694
f 695 693 696
f 696 694 697
f 698 695 696
f 699 696 697
f 698 696 699
f 699 697 700
f 701 699 700
f 702 698 699
f 702 699 701
f 701 700 703
f 704 702 701
f 705 701 703
f 706 704 701
f 707 701 705
f 706 701 707
f 708 707 705
f 709 706 707
f 710 707 708
f 710 709 707
f 711 710 708
f 710 711 709
f 711 708 712
f 711 713 709
f 714 711 712
f 711 714 713
f 714 712 715
f 714 716 713
f 717 714 715
f 714 717 716
f 717 715 718
f 717 719 716
f 720 717 718
f 717 720 719
f 720 718 721
f 720 722 719
f 723 720 721
f 720 723 722
f 723 721 724
f 723 725 722
f 726 723 724
f 723 726 725
f 726 724 727
f 725 726 728
f 726 727 728
f 727 729 728
f 729 730 728
f 728 730 731
f 729 732 730
f 730 733 731
f 732 734 730
f 730 734 733
f 732 735 734
f 734 736 733
f 735 737 734
f 734 737 736
f 735 738 737
f 737 739 736
f 738 740 737
f 737 740 739
f 738 741 740
f 740 742 739
f 741 743 740
f 740 743 742
f 741 744 743
f 743 745 742
f 744 746 743
f 743 746 745
f 744 747 746
f 747 748 746
f 746 749 745
f 746 748 749
f 747 750 748
f 748 751 749
f 750 752 748
f 748 753 751
f 752 754 748
f 748 754 753
f 752 755 754
f 754 756 753
f 755 757 754
f 754 757 756
f 755 758 757
f 758 756 757
f 759 758 755
f 758 760 756
f 761 758 759
f 758 761 760
f 762 761 759
f 761 763 760
f 764 761 762
f 761 764 763
f 765 764 762
f 764 766 763
f 767 764 765
f 764 767 766
f 768 767 765
f 767 769 766
f 770 767 768
f 767 770 769
f 771 770 768
f 770 772 769
f 773 770 771
f 770 773 772
f 774 773 771
f 773 775 772
f 773 774 775
f 776 777 778
f 776 778 779
f 780 776 779
f 779 778 781
f 782 780 779
f 783 779 781
f 782 779 783
f 783 781 784
f 785 782 783
f 786 783 784
f 785 783 786
f 786 784 787
f 788 785 786
f 789 786 787
f 788 786 789
f 789 787 790
f 791 788 789
f 792 789 790
f 791 789 792
f 792 790 793
f 794 791 792
f 795 792 793
f 794 792 795
f 795 793 796
f 797 795 796
f 798 794 795
f 798 795 797
f 797 796 799
f 800 798 797
f 801 797 799
f 802 800 797
f 803 797 801
f 802 797 803
f 804 803 801
f 805 802 803
f 806 803 804
f 806 805 803
f 807 806 804
f 806 807 805
f 807 804 808
f 807 809 805
f 810 807 808
f 807 810 809
f 810 808 811
f 810 812 809
f 813 810 811
f 810 813 812
f 813 811 814
f 813 815 812
f 816 813 814
f 813 816 815
f 816 814 817
f 816 818 815
f 819 816 817
f 816 819 818
f 819 817 820
f 819 821 818
f 822 819 820
f 819 822 821
f 822 820 823
f 821 822 824
f 822 823 824
f 823 825 824
f 825 826 824
f 824 826 827
f 825 828 826
f 826 829 827
f 828 830 826
f 826 830 829
f 828 831 830
f 830 832 829
f 831 833 830
f 830 833 832
f 831 834 833
f 833 835 832
f 834 836 833
f 833 836 835
f 834 837 836
f 836 838 835
f 837 839 836
f 836 839 838
f 837 840 839
f 839 841 838
f 840 842 839
f 839 842 841
f 840 843 842
f 843 844 842
f 842 845 841
f 842 844 845
f 843 846 844
f 844 847 845
f 846 848 844
f 844 849 847
f 848 850 844
f 844 850 849
f 848 851 850
f 850 852 849
f 851 853 850
f 850 853 852
f 851 854 853
f 854 852 853
f 855 854 851
f 854 856 852
f 857 854 855
f 854 857 856
f 858 857 855
f 857 859 856
f 860 857 858
f 857 860 859
f 861 860 858
f 860 862 859
f 863 860 861
f 860 863 862
f 864 863 861
f 863 865 862
f 866 863 864
f 863 866 865
f 867 866 864
f 866 868 865
f 869 866 867
f 866 869 868
f 870 869 867
f 869 871 868
f 869 870 871
f 872 873 874
f 872 874 875
f 876 872 875
f 875 874 877
f 878 876 875
f 879 875 877
f 878 875 879
f 879 877 880
f 881 878 879
f 882 879 880
f 881 879 882
f 882 880 883
f 884 881 882
f 885 882 883
f 884 882 885
f 885 883 886
f 887 884 885
f 888 885 886
f 887 885 888
f 888 886 889
f 890 887 888
f 891 888 889
f 890 888 891
f 891 889 892
f 893 891 892
f 894 890 891
f 894 891 893
f 893 892 895
f 896 894 893
f 897 893 895
f 898 896 893
f 899 893 897
f 898 893 899
f 900 899 897
f 901 898 899
f 902 899 900
f 902 901 899
f 903 902 900
f 902 903 901
f 903 900 904
f 903 905 901
f 906 903 904
f 903 906 905
f 906 904 907
f 906 908 905
f 909 906 907
f 906 909 908
f 909 907 910
f 909 911 908
f 912 909 910
f 909 912 911
f 912 910 913
f 912 914 911
f 915 912 913
f 912 915 914
f 915 913 916
f 915 917 914
f 918 915 916
f 915 918 917
f 918 916 919
f 917 918 920
f 918 919 920
f 919 921 920
f 921 922 920
f 920 922 923
f 921 924 922
f 922 925 923
f 924 926 922
f 922 926 925
f 924 927 926
f 926 928 925
f 927 929 926
f 926 929 928
f 927 930 929
f 929 931 928
f 930 932 929
f 929 932 931
f 930 933 932
f 932 934 931
f 933 935 932
f 932 935 934
f 933 936 935
f 935 937 934
f 936 938 935
f 935 938 937
f 936 939 938
f 939 940 938
f 938 941 937
f 938 940 941
f 939 942 940
f 940 943 941
f 942 944 940
f 940 945 943
f 944 946 940
f 940 946 945
f 944 947 946
f 946 948 945
f 947 949 946
f 946 949 948
f 947 950 949
f 950 948 949
f 951 950 947
f 950 952 948
f 953 950 951
f 950 953 952
f 954 953 951
f 953 955 952
f 956 953 954
f 953 956 955
f 957 956 954
f 956 958 955
f 959 956 957
f 956 959 958
f 960 959 957
f 959 961 958
f 962 959 960
f 959 962 961
f 963 962 960
f 962 964 961
f 965 962 963
f 962 965 964
f 966 965 963
f 965 967 964
f 965 966 967
f 968 969 970
f 969 971 970
f 969 972 971
f 970 971 973
f 971 974 973
f 972 975 971
f 971 976 974
f 975 977 971
f 971 977 976
f 975 978 977
f 978 979 977
f 977 980 976
f 977 979 980
f 978 981 979
f 979 982 980
f 981 983 979
f 979 984 982
f 983 985 979
f 979 985 984
f 983 986 985
f 986 987 985
f 985 988 984
f 985 987 988
f 986 989 987
f 987 990 988
f 989 991 987
f 987 992 990
f 991 993 987
f 987 993 992
f 991 994 993
f 993 995 992
f 994 996 993
f 993 996 995
f 994 997 996
f 996 998 995
f 997 999 996
f 996 999 998
f 997 1000 999
f 999 1001 998
f 1000 1002 999
f 999 1002 1001
f 1000 1003 1002
f 1002 1004 1001
f 1003 1005 1002
f 1002 1005 1004
f 1003 1006 1005
f 1005 1007 1004
f 1006 1008 1005
f 1005 1008 1007
f 1006 1009 1008
f 1008 1010 1007
f 1009 1011 1008
f 1011 1010 1008
f 1011 1012 1010
f 1013 1014 1015
f 1016 1013 1015
f 1014 1017 1015
f 1018 1016 1015
f 1018 1015 1017
f 1018 1019 1016
f 1019 1018 1017
f 1019 1020 1016
f 1019 1017 1021
f 1019 1022 1020
f 1022 1019 1021
f 1022 1023 1020
f 1021 1024 1022
f 1022 1025 1023
f 1024 1025 1022
f 1026 1023 1025
f 1024 1026 1025
f 1026 1027 1023
f 1026 1024 1028
f 1027 1026 1029
f 1026 1028 1029
f 1027 1029 1030
f 1030 1029 1028
f 1031 1027 1030
f 1032 1030 1028
f 1033 1031 1030
f 1033 1030 1032
f 1033 1034 1031
f 1034 1033 1032
f 1034 1035 1031
f 1034 1032 1036
f 1034 1037 1035
f 1037 1034 1036
f 1037 1038 1035
f 1036 1039 1037
f 1037 1040 1038
f 1039 1040 1037
f 1041 1038 1040
f 1039 1041 1040
f 1041 1042 1038
f 1041 1039 1043
f 1042 1041 1044
f 1041 1043 1044
f 1042 1044 1045
f 1045 1044 1043
f 1046 1042 1045
f 1047 1045 1043
f 1046 1045 1048
f 1048 1045 1047
f 1049 1046 1048
f 1050 1048 1047
f 1051 1049 1048
f 1051 1048 1050
f 1051 1052 1049
f 1052 1051 1050
f 1052 1053 1049
f 1052 1050 1054
f 1052 1055 1053
f 1055 1052 1054
f 1055 1056 1053
f 1055 1054 1057
f 1055 1058 1056
f 1058 1055 1057
f 1058 1059 1056
f 1058 1057 1060
f 1058 1061 1059
f 1061 1058 1060
f 1061 1062 1059
f 1061 1060 1063
f 1061 1064 1062
f 1064 1061 1063
f 1064 1065 1062
f 1064 1063 1066
f 1064 1067 1065
f 1067 1064 1066
f 1067 1068 1065
f 1067 1066 1069
f 1068 1067 1069
f 1070 1071 1072
f 1073 1070 1072
f 1071 1074 1072
f 1075 1073 1072
f 1075 1072 1074
f 1075 1076 1073
f 1076 1075 1074
f 1076 1077 1073
f 1076 1074 1078
f 1076 1079 1077
f 1079 1076 1078
f 1079 1080 1077
f 1078 1081 1079
f 1079 1082 1080
f 1081 1082 1079
f 1083 1080 1082
f 1081 1083 1082
f 1083 1084 1080
f 1083 1081 1085
f 1084 1083 1086
f 1083 1085 1086
f 1084 1086 1087
f 1087 1086 1085
f 1088 1084 1087
f 1089 1087 1085
f 1090 1088 1087
f 1090 1087 1089
f 1090 1091 1088
f 1091 1090 1089
f 1091 1092 1088
f 1091 1089 1093
f 1091 1094 1092
f 1094 1091 1093
f 1094 1095 1092
f 1093 1096 1094
f 1094 1097 1095
f 1096 1097 1094
f 1098 1095 1097
f 1096 1098 1097
f 1098 1099 1095
f 1098 1096 1100
f 1099 1098 1101
f 1098 1100 1101
f 1099 1101 1102
f 1102 1101 1100
f 1103 1099 1102
f 1104 1102 1100
f 1103 1102 1105
f 1105 1102 1104
f 1106 1103 1105
f 1107 1105 1104
f 1108 1106 1105
f 1108 1105 1107
f 1108 1109 1106
f 1109 1108 1107
f 1109 1110 1106
f 1109 1107 1111
f 1109 1112 1110
f 1112 1109 1111
f 1112 1113 1110
f 1112 1111 1114
f 1112 1115 1113
f 1115 1112 1114
f 1115 1116 1113
f 1115 1114 1117
f 1115 1118 1116
f 1118 1115 1117
f 1118 1119 1116
f 1118 1117 1120
f 1118 1121 1119
f 1121 1118 1120
f 1121 1122 1119
f 1121 1120 1123
f 1121 1124 1122
f 1124 1121 1123
f 1122 1124 1125
f 1124 1123 1126
f 1124 1126 1125
f 1127 1128 1129
f 1127 1129 1130
f 1128 1127 1131
f 1131 1127 1130
f 1132 1133 1134
f 1135 1132 1134
f 1132 1135 1136
f 1132 1136 1137
f 1138 1132 1137
f 1132 1138 1139
f 1132 1140 1133
f 1132 1139 1141
f 1132 1142 1140
f 1142 1143 1140
f 1142 1144 1143
f 1144 1142 1145
f 1142 1146 1145
f 1147 1132 1141
f 1148 1147 1141
f 1147 1148 1149
f 1147 1149 1150
f 1151 1147 1150
f 1142 1152 1146
f 1147 1151 1153
f 1152 1142 1154
f 1147 1153 1155
f 1142 1156 1154
f 1157 1147 1155
f 1142 1158 1156
f 1158 1142 1159
f 1142 1160 1159
f 1142 1161 1160
f 1161 1162 1160
f 1163 1147 1157
f 1161 1164 1162
f 1164 1161 1165
f 1161 1166 1165
f 1147 1163 1167
f 1161 1167 1166
f 1147 1167 1161
f 1168 1147 1161
f 1161 1169 1168
f 1169 1170 1168
f 1169 1171 1170
f 1171 1172 1170
f 1172 1173 1170
f 1174 1171 1169
f 1173 1175 1170
f 1174 1169 1176
f 1177 1174 1176
f 1178 1177 1176
f 1179 1178 1176
f 1180 1179 1176
f 1175 1181 1170
f 1182 1180 1176
f 1181 1183 1170
f 1184 1182 1176
f 1183 1185 1170
f 1185 1186 1170
f 1186 1187 1170
f 1187 1188 1170
f 1187 1189 1188
f 1190 1184 1176
f 1189 1191 1188
f 1192 1190 1176
f 1193 1192 1176
f 1194 1193 1176
f 1191 1195 1188
f 1194 1176 1196
f 1197 1194 1196
f 1198 1197 1196
f 1199 1198 1196
f 1200 1199 1196
f 1201 1200 1196
f 1202 1201 1196
f 1203 1202 1196
f 1204 1203 1196
f 1205 1204 1196
f 1195 1205 1188
f 1205 1196 1188
f 1188 1196 1206
f 1188 1206 1207
f 1208 1188 1207
f 1207 1209 1208
f 1209 1210 1208
f 1209 1211 1210
f 1211 1212 1210
f 1211 1213 1212
f 1213 1214 1212
f 1213 1215 1214
f 1215 1216 1214
f 1215 1217 1216
f 1217 1218 1216
f 1217 1219 1218
f 1219 1220 1218
f 1220 1221 1218
f 1221 1222 1218
f 1223 1219 1217
f 1222 1224 1218
f 1225 1223 1217
f 1224 1226 1218
f 1227 1225 1217
f 1228 1227 1217
f 1229 1228 1217
f 1226 1230 1218
f 1229 1217 1231
f 1230 1232 1218
f 1232 1233 1218
f 1233 1234 1218
f 1234 1235 1218
f 1234 1236 1235
f 1236 1237 1235
f 1237 1238 1235
f 1239 1229 1231
f 1238 1240 1235
f 1241 1239 1231
f 1242 1241 1231
f 1243 1242 1231
f 1244 1243 1231
f 1245 1244 1231
f 1240 1246 1235
f 1247 1245 1231
f 1246 1248 1235
f 1249 1247 1231
f 1250 1249 1231
f 1251 1250 1231
f 1252 1251 1231
f 1248 1252 1235
f 1252 1231 1235
f 1231 1253 1235
f 1253 1254 1235
f 1253 1255 1254
f 1255 1256 1254
f 1255 1257 1256
f 1257 1258 1256
f 1257 1259 1258
f 1259 1260 1258
f 1259 1261 1260
f 1261 1262 1260
f 1262 1263 1260
f 1264 1261 1259
f 1263 1265 1260
f 1266 1264 1259
f 1265 1267 1260
f 1268 1266 1259
f 1269 1268 1259
f 1270 1269 1259
f 1267 1271 1260
f 1270 1259 1272
f 1271 1273 1260
f 1273 1274 1260
f 1274 1275 1260
f 1275 1276 1260
f 1275 1277 1276
f 1277 1278 1276
f 1279 1270 1272
f 1280 1279 1272
f 1281 1280 1272
f 1282 1281 1272
f 1283 1282 1272
f 1278 1284 1276
f 1285 1283 1272
f 1284 1286 1276
f 1287 1285 1272
f 1286 1288 1276
f 1289 1287 1272
f 1288 1290 1276
f 1290 1291 1276
f 1291 1292 1276
f 1292 1272 1276
f 1293 1289 1272
f 1292 1294 1272
f 1294 1293 1272
f 1295 1296 1297
f 1295 1297 1298
f 1296 1295 1299
f 1299 1295 1298
f 1300 1301 1302
f 1300 1302 1303
f 1301 1300 1304
f 1304 1300 1303
f 1305 1306 1307
f 1308 1305 1307
f 1306 1309 1307
f 1310 1308 1307
f 1310 1307 1309
f 1310 1311 1308
f 1311 1310 1309
f 1311 1312 1308
f 1311 1309 1313
f 1311 1314 1312
f 1314 1311 1313
f 1314 1315 1312
f 1313 1316 1314
f 1314 1317 1315
f 1316 1317 1314
f 1318 1315 1317
f 1316 1318 1317
f 1318 1319 1315
f 1318 1316 1320
f 1319 1318 1321
f 1318 1320 1321
f 1319 1321 1322
f 1322 1321 1320
f 1323 1319 1322
f 1324 1322 1320
f 1325 1323 1322
f 1325 1322 1324
f 1325 1326 1323
f 1326 1325 1324
f 1326 1327 1323
f 1326 1324 1328
f 1326 1329 1327
f 1329 1326 1328
f 1329 1330 1327
f 1329 1328 1331
f 1330 1329 1332
f 1329 1331 1332
f 1330 1332 1333
f 1333 1332 1331
f 1334 1330 1333
f 1335 1333 1331
f 1336 1334 1333
f 1336 1333 1335
f 1336 1337 1334
f 1337 1336 1335
f 1337 1338 1334
f 1337 1335 1339
f 1337 1340 1338
f 1340 1337 1339
f 1340 1339 1341
f 1340 1342 1338
f 1340 1341 1343
f 1342 1340 1343
f 1344 1343 1341
f 1342 1343 1345
f 1345 1343 1344
f 1346 1342 1345
f 1347 1345 1344
f 1346 1345 1348
f 1348 1345 1347
f 1349 1346 1348
f 1350 1348 1347
f 1349 1348 1351
f 1351 1348 1350
f 1352 1349 1351
f 1353 1351 1350
f 1352 1351 1354
f 1354 1351 1353
f 1355 1352 1354
f 1356 1354 1353
f 1355 1354 1357
f 1357 1354 1356
f 1358 1355 1357
f 1359 1357 1356
f 1360 1358 1357
f 1360 1357 1359
f 1358 1360 1361
f 1362 1360 1359
f 1360 1363 1361
f 1360 1362 1363
f 1364 1365 1366
f 1364 1366 1367
f 1365 1364 1368
f 1368 1364 1367
f 1369 1370 1371
f 1372 1369 1371
f 1370 1373 1371
f 1374 1372 1371
f 1374 1371 1373
f 1374 1375 1372
f 1375 1374 1373
f 1375 1376 1372
f 1375 1373 1377
f 1375 1378 1376
f 1378 1375 1377
f 1378 1379 1376
f 1377 1380 1378
f 1378 1381 1379
f 1380 1381 1378
f 1382 1379 1381
f 1380 1382 1381
f 1382 1383 1379
f 1382 1380 1384
f 1383 1382 1385
f 1382 1384 1385
f 1383 1385 1386
f 1386 1385 1384
f 1387 1383 1386
f 1388 1386 1384
f 1389 1387 1386
f 1389 1386 1388
f 1389 1390 1387
f 1390 1389 1388
f 1390 1391 1387
f 1390 1388 1392
f 1390 1393 1391
f 1393 1390 1392
f 1393 1394 1391
f 1392 1395 1393
f 1393 1396 1394
f 1395 1396 1393
f 1397 1394 1396
f 1395 1397 1396
f 1397 1398 1394
f 1397 1395 1399
f 1398 1397 1400
f 1397 1399 1400
f 1398 1400 1401
f 1401 1400 1399
f 1402 1398 1401
f 1403 1401 1399
f 1402 1401 1404
f 1404 1401 1403
f 1405 1402 1404
f 1406 1404 1403
f 1407 1405 1404
f 1407 1404 1406
f 1407 1408 1405
f 1408 1407 1406
f 1408 1409 1405
f 1408 1406 1410
f 1408 1411 1409
f 1411 1408 1410
f 1411 1412 1409
f 1411 1410 1413
f 1411 1414 1412
f 1414 1411 1413
f 1414 1415 1412
f 1414 1413 1416
f 1414 1417 1415
f 1417 1414 1416
f 1417 1418 1415
f 1417 1416 1419
f 1417 1420 1418
f 1420 1417 1419
f 1420 1421 1418
f 1420 1419 1422
f 1420 1423 1421
f 1423 1420 1422
f 1421 1423 1424
f 1423 1422 1425
f 1423 1425 1424
f 1426 1427 1428
f 1426 1428 1429
f 1427 1426 1430
f 1430 1426 1429
f 1431 1432 1433
f 1431 1433 1434
f 1432 1431 1435
f 1435 1431 1434
f 1436 1437 1438
f 1436 1438 1439
f 1437 1436 1440
f 1440 1436 1439
f 1441 1442 1443
f 1444 1441 1443
f 1442 1445 1443
f 1444 1443 1446
f 1445 1446 1443
f 1447 1444 1446
f 1445 1448 1446
f 1447 1446 1449
f 1448 1449 1446
f 1450 1447 1449
f 1448 1451 1449
f 1450 1449 1452
f 1451 1452 1449
f 1453 1450 1452
f 1451 1454 1452
f 1455 1453 1452
f 1454 1456 1452
f 1455 1452 1456
f 1454 1457 1456
f 1458 1455 1456
f 1457 1459 1456
f 1458 1456 1459
f 1457 1460 1459
f 1461 1458 1459
f 1462 1459 1460
f 1462 1461 1459
f 1463 1462 1460
f 1462 1463 1461
f 1463 1460 1464
f 1463 1465 1461
f 1466 1463 1464
f 1463 1466 1465
f 1466 1464 1467
f 1466 1468 1465
f 1466 1467 1469
f 1468 1466 1469
f 1470 1469 1467
f 1468 1469 1470
f 1471 1470 1467
f 1472 1468 1470
f 1473 1470 1471
f 1473 1472 1470
f 1474 1473 1471
f 1473 1474 1472
f 1474 1471 1475
f 1474 1476 1472
f 1477 1474 1475
f 1474 1477 1476
f 1475 1478 1477
f 1477 1479 1476
f 1478 1480 1477
f 1477 1480 1479
f 1478 1481 1480
f 1481 1479 1480
f 1481 1478 1482
f 1481 1483 1479
f 1481 1482 1484
f 1483 1481 1484
f 1485 1484 1482
f 1483 1484 1485
f 1486 1485 1482
f 1487 1483 1485
f 1488 1485 1486
f 1488 1487 1485
f 1489 1488 1486
f 1488 1489 1487
f 1489 1486 1490
f 1489 1491 1487
f 1492 1489 1490
f 1489 1492 1491
f 1490 1493 1492
f 1492 1494 1491
f 1493 1495 1492
f 1492 1495 1494
f 1493 1496 1495
f 1496 1494 1495
f 1496 1493 1497
f 1494 1496 1498
f 1496 1497 1498
f 1499 1500 1501
f 1502 1499 1501
f 1500 1503 1501
f 1504 1502 1501
f 1504 1501 1503
f 1504 1505 1502
f 1505 1504 1503
f 1505 1506 1502
f 1505 1503 1507
f 1505 1508 1506
f 1508 1505 1507
f 1508 1509 1506
f 1507 1510 1508
f 1508 1511 1509
f 1510 1511 1508
f 1512 1509 1511
f 1510 1512 1511
f 1512 1513 1509
f 1512 1510 1514
f 1513 1512 1515
f 1512 1514 1515
f 1513 1515 1516
f 1516 1515 1514
f 1517 1513 1516
f 1518 1516 1514
f 1519 1517 1516
f 1519 1516 1518
f 1519 1520 1517
f 1520 1519 1518
f 1520 1521 1517
f 1520 1518 1522
f 1520 1523 1521
f 1523 1520 1522
f 1523 1524 1521
f 1522 1525 1523
f 1523 1526 1524
f 1525 1526 1523
f 1527 1524 1526
f 1525 1527 1526
f 1527 1528 1524
f 1527 1525 1529
f 1528 1527 1530
f 1527 1529 1530
f 1528 1530 1531
f 1531 1530 1529
f 1532 1528 1531
f 1533 1531 1529
f 1532 1531 1534
f 1534 1531 1533
f 1535 1532 1534
f 1536 1534 1533
f 1537 1535 1534
f 1537 1534 1536
f 1537 1538 1535
f 1538 1537 1536
f 1538 1539 1535
f 1538 1536 1540
f 1538 1541 1539
f 1541 1538 1540
f 1541 1542 1539
f 1541 1540 1543
f 1541 1544 1542
f 1544 1541 1543
f 1544 1545 1542
f 1544 1543 1546
f 1544 1547 1545
f 1547 1544 1546
f 1547 1548 1545
f 1547 1546 1549
f 1547 1550 1548
f 1550 1547 1549
f 1550 1551 1548
f 1550 1549 1552
f 1550 1553 1551
f 1553 1550 1552
f 1551 1553 1554
f 1553 1552 1555
f 1553 1555 1554
f 1556 1557 1558
f 1556 1558 1559
f 1557 1556 1560
f 1560 1556 1559
f 1561 1562 1563
f 1561 1563 1564
f 1562 1561 1565
f 1565 1561 1564
f 1566 1567 1568
f 1566 1568 1569
f 1567 1566 1570
f 1570 1566 1569
f 1571 1572 1573
f 1572 1571 1574
f 1572 1574 1573
f 1575 1576 1577
f 1576 1575 1578
f 1576 1578 1577
f 1579 1580 1581
f 1580 1579 1582
f 1580 1582 1581
f 1583 1584 1585
f 1584 1583 1586
f 1584 1586 1585
f 1587 1588 1589
f 1587 1589 1590
f 1588 1587 1591
f 1592 1587 1590
f 1587 1592 1593
f 1587 1593 1594
f 1595 1587 1594
f 1587 1595 1596
f 1587 1597 1591
f 1587 1596 1598
f 1599 1587 1598
f 1599 1598 1600
f 1587 1601 1597
f 1601 1602 1597
f 1601 1603 1602
f 1604 1599 1600
f 1605 1603 1601
f 1599 1604 1606
f 1607 1605 1601
f 1599 1606 1608
f 1609 1607 1601
f 1610 1609 1601
f 1611 1610 1601
f 1612 1611 1601
f 1612 1601 1613
f 1614 1612 1613
f 1615 1614 1613
f 1616 1615 1613
f 1617 1616 1613
f 1618 1617 1613
f 1619 1618 1613
f 1620 1619 1613
f 1621 1620 1613
f 1622 1621 1613
f 1599 1622 1613
f 1622 1599 1608
f 1599 1613 1623
f 1624 1599 1623
f 1623 1625 1624
f 1625 1626 1624
f 1625 1627 1626
f 1627 1625 1628
f 1624 1626 1629
f 1624 1629 1630
f 1631 1624 1630
f 1632 1631 1630
f 1631 1632 1633
f 1631 1633 1634
f 1625 1635 1628
f 1636 1631 1634
f 1625 1637 1635
f 1631 1636 1638
f 1637 1625 1639
f 1631 1638 1640
f 1625 1641 1639
f 1625 1642 1641
f 1642 1625 1643
f 1625 1644 1643
f 1645 1631 1640
f 1631 1645 1646
f 1631 1646 1647
f 1644 1648 1643
f 1649 1631 1647
f 1649 1647 1650
f 1651 1649 1650
f 1649 1651 1652
f 1649 1652 1653
f 1644 1654 1648
f 1655 1649 1653
f 1654 1644 1656
f 1649 1655 1657
f 1649 1657 1658
f 1659 1649 1658
f 1649 1659 1660
f 1644 1660 1656
f 1649 1660 1644
f 1661 1649 1644
f 1644 1662 1661
f 1662 1663 1661
f 1662 1664 1663
f 1664 1665 1663
f 1664 1666 1665
f 1666 1667 1665
f 1666 1668 1667
f 1668 1669 1667
f 1668 1670 1669
f 1670 1671 1669
f 1670 1672 1671
f 1672 1673 1671
f 1672 1674 1673
f 1675 1674 1672
f 1674 1676 1673
f 1677 1675 1672
f 1676 1678 1673
f 1677 1672 1679
f 1676 1680 1678
f 1680 1681 1678
f 1681 1677 1679
f 1681 1679 1678
f 1678 1679 1682
f 1679 1683 1682
f 1683 1684 1682
f 1683 1685 1684
f 1685 1686 1684
f 1685 1687 1686
f 1687 1688 1686
f 1687 1689 1688
f 1689 1690 1688
f 1689 1691 1690
f 1692 1691 1689
f 1691 1693 1690
f 1693 1694 1690
f 1695 1692 1689
f 1694 1696 1690
f 1697 1695 1689
f 1696 1698 1690
f 1699 1697 1689
f 1698 1700 1690
f 1701 1699 1689
f 1702 1701 1689
f 1703 1702 1689
f 1703 1689 1704
f 1705 1703 1704
f 1706 1705 1704
f 1700 1707 1690
f 1707 1708 1690
f 1708 1709 1690
f 1709 1710 1690
f 1709 1711 1710
f 1711 1712 1710
f 1712 1713 1710
f 1714 1706 1704
f 1713 1715 1710
f 1716 1714 1704
f 1715 1717 1710
f 1718 1716 1704
f 1717 1719 1710
f 1720 1718 1704
f 1721 1720 1704
f 1722 1721 1704
f 1722 1704 1710
f 1719 1723 1710
f 1724 1722 1710
f 1723 1724 1710
f 1725 1726 1727
f 1728 1725 1727
f 1725 1728 1729
f 1725 1730 1726
f 1725 1731 1730
f 1725 1729 1732
f 1731 1733 1730
f 1734 1725 1732
f 1731 1735 1733
f 1734 1732 1736
f 1735 1731 1737
f 1734 1736 1738
f 1731 1739 1737
f 1731 1740 1739
f 1740 1731 1741
f 1742 1734 1738
f 1734 1742 1743
f 1734 1743 1744
f 1745 1734 1744
f 1731 1746 1741
f 1747 1745 1744
f 1746 1748 1741
f 1745 1747 1749
f 1746 1750 1748
f 1745 1749 1751
f 1750 1746 1752
f 1746 1753 1752
f 1746 1754 1753
f 1755 1745 1751
f 1745 1755 1756
f 1745 1756 1757
f 1746 1758 1754
f 1758 1745 1757
f 1758 1759 1754
f 1758 1757 1760
f 1758 1761 1759
f 1758 1760 1762
f 1761 1758 1762
f 1763 1764 1765
f 1763 1765 1766
f 1764 1763 1767
f 1767 1763 1766
f 1768 1769 1770
f 1771 1769 1768
f 1769 1772 1770
f 1769 1771 1772
f 1773 1774 1775
f 1776 1774 1773
f 1774 1777 1775
f 1774 1776 1777
f 1778 1779 1780
f 1781 1779 1778
f 1779 1782 1780
f 1779 1781 1782
f 1783 1784 1785
f 1786 1784 1783
f 1784 1787 1785
f 1784 1786 1787
f 1788 1789 1790
f 1788 1791 1789
f 1792 1788 1790
f 1788 1793 1791
f 1792 1790 1794
f 1793 1795 1791
f 1796 1792 1794
f 1793 1797 1795
f 1796 1794 1798
f 1797 1799 1795
f 1800 1796 1798
f 1797 1801 1799
f 1800 1798 1802
f 1801 1803 1799
f 1804 1800 1802
f 1801 1805 1803
f 1804 1802 1806
f 1805 1807 1803
f 1808 1804 1806
f 1805 1809 1807
f 1808 1806 1810
f 1809 1811 1807
f 1812 1808 1810
f 1809 1813 1811
f 1813 1814 1811
f 1813 1815 1814
f 1812 1810 1816
f 1817 1812 1816
f 1818 1817 1816
f 1818 1816 1819
f 1820 1818 1819
f 1820 1819 1821
f 1822 1820 1821
f 1822 1821 1823
f 1824 1822 1823
f 1824 1823 1825
f 1826 1824 1825
f 1826 1825 1827
f 1828 1826 1827
f 1828 1827 1829
f 1830 1828 1829
f 1830 1829 1831
f 1832 1830 1831
f 1832 1831 1833
f 1832 1833 1834
f 1835 1832 1834
f 1835 1834 1836
f 1837 1835 1836
f 1837 1836 1838
f 1839 1837 1838
f 1839 1838 1840
f 1841 1839 1840
f 1841 1840 1842
f 1843 1841 1842
f 1843 1842 1844
f 1845 1843 1844
f 1845 1844 1846
f 1847 1845 1846
f 1846 1848 1847
f 1848 1849 1847
f 1848 1850 1849
f 1850 1851 1849
f 1850 1815 1851
f 1815 1850 1814
f 1852 1853 1854
f 1853 1852 1855
f 1853 1855 1854
f 1856 1857 1858
f 1857 1856 1859
f 1857 1859 1858
f 1860 1861 1862
f 1861 1860 1863
f 1861 1863 1862
f 1864 1865 1866
f 1865 1864 1867
f 1865 1867 1866
f 1868 1869 1870
f 1871 1869 1868
f 1869 1872 1870
f 1869 1871 1872
