# ROS coordinates: X forward, Y left, Z up; units are metres.
o mesh
v -0.03926611 -0.119973451 0.008
v -0.03926611 -0.119973451 0.0100000007
v -0.0390486345 -0.12016885 0.0100000007
v -0.0390135273 -0.120194286 0.009000001
v -0.0390486345 -0.12016885 0.008
v -0.0387834124 -0.1203291 0.0100000007
v -0.0387834124 -0.1203291 0.008
v -0.038699992 -0.120366156 0.009000001
v -0.03847973 -0.120438404 0.0100000007
v -0.03847973 -0.120438404 0.008
v -0.0383415334 -0.120466471 0.009000001
v -0.0381534025 -0.120484814 0.0100000007
v -0.0381534025 -0.120484814 0.008
v -0.03796442 -0.120480843 0.009000001
v -0.0378244929 -0.120463371 0.0100000007
v -0.0378244929 -0.120463371 0.008
v -0.03759937 -0.120408088 0.009000001
v -0.0375133678 -0.120377496 0.0100000007
v -0.0375133678 -0.120377496 0.008
v -0.03727366 -0.120260581 0.009000001
v -0.03723672 -0.120237887 0.0100000007
v -0.0370050073 -0.1200596 0.009000001
v -0.03723672 -0.120237887 0.008
v -0.0370050073 -0.1200596 0.0100000007
v -0.0370050073 -0.1200596 0.008
v -0.0368096046 -0.119842127 0.0100000007
v -0.0368096046 -0.119842127 0.008
v -0.0367841758 -0.11980702 0.009000001
v -0.0366493538 -0.119576909 0.0100000007
v -0.0366493538 -0.119576909 0.008
v -0.0366493538 -0.119576909 0.009000001
v -0.03655203 -0.119318418 0.009000001
v -0.03654005 -0.119273223 0.0100000007
v -0.03654005 -0.119273223 0.008
v -0.0365000367 -0.119041316 0.009000001
v -0.0364936441 -0.118946895 0.0100000007
v -0.0364936441 -0.118946895 0.008
v -0.0364976153 -0.118757918 0.009000001
v -0.0365150869 -0.118617982 0.0100000007
v -0.0365150869 -0.118617982 0.008
v -0.0365444832 -0.118481375 0.009000001
v -0.0366009623 -0.11830686 0.0100000007
v -0.0366009623 -0.11830686 0.008
v -0.0366359763 -0.118223712 0.009000001
v -0.0367405675 -0.118030213 0.0100000007
v -0.0367405675 -0.118030213 0.008
v -0.0367640443 -0.117994204 0.009000001
v -0.0369188562 -0.117798507 0.0100000007
v -0.0369188562 -0.117798507 0.008
v -0.0371363275 -0.1176031 0.0100000007
v -0.0371714346 -0.117577665 0.009000001
v -0.0371363275 -0.1176031 0.008
v -0.03740155 -0.117442846 0.0100000007
v -0.03740155 -0.117442846 0.008
v -0.0374849737 -0.117405795 0.009000001
v -0.0377052352 -0.117333546 0.0100000007
v -0.0377052352 -0.117333546 0.008
v -0.03784343 -0.11730548 0.009000001
v -0.03803156 -0.117287137 0.0100000007
v -0.03803156 -0.117287137 0.008
v -0.0382205434 -0.117291108 0.009000001
v -0.03836047 -0.117308579 0.0100000007
v -0.03836047 -0.117308579 0.008
v -0.0385855921 -0.117363855 0.009000001
v -0.0386715941 -0.117394455 0.0100000007
v -0.0386715941 -0.117394455 0.008
v -0.0389113 -0.117511377 0.009000001
v -0.03894824 -0.117534064 0.0100000007
v -0.03917995 -0.117712349 0.009000001
v -0.03894824 -0.117534064 0.008
v -0.03917995 -0.117712349 0.0100000007
v -0.03917995 -0.117712349 0.008
v -0.0393753573 -0.117929816 0.0100000007
v -0.0393753573 -0.117929816 0.008
v -0.03940079 -0.117964923 0.009000001
v -0.03953561 -0.118195042 0.0100000007
v -0.03953561 -0.118195042 0.008
v -0.03953561 -0.118195042 0.009000001
v -0.03963293 -0.118453532 0.009000001
v -0.0396449119 -0.118498728 0.0100000007
v -0.0396449119 -0.118498728 0.008
v -0.03968492 -0.118730634 0.009000001
v -0.03969132 -0.118825056 0.0100000007
v -0.03969132 -0.118825056 0.008
v -0.03968735 -0.11901404 0.009000001
v -0.03966988 -0.119153962 0.0100000007
v -0.03966988 -0.119153962 0.008
v -0.03964048 -0.119290575 0.009000001
v -0.039584 -0.11946509 0.0100000007
v -0.039584 -0.11946509 0.008
v -0.0395489857 -0.119548231 0.009000001
v -0.0394443944 -0.119741738 0.0100000007
v -0.0394443944 -0.119741738 0.008
v -0.0394209176 -0.119777746 0.009000001
v -0.03926611 -0.119973451 0.0100000007
v -0.03926611 -0.119973451 0.008
v -0.0481018275 -0.110437721 0.008
v -0.0481018275 -0.110437721 0.0100000007
v -0.0478843525 -0.11063312 0.0100000007
v -0.0478492454 -0.110658556 0.009000001
v -0.0478843525 -0.11063312 0.008
v -0.0476191342 -0.110793374 0.0100000007
v -0.0476191342 -0.110793374 0.008
v -0.0475357063 -0.110830426 0.009000001
v -0.0473154448 -0.110902682 0.0100000007
v -0.0473154448 -0.110902682 0.008
v -0.04717725 -0.110930748 0.009000001
v -0.04698912 -0.110949092 0.0100000007
v -0.04698912 -0.110949092 0.008
v -0.0468001366 -0.110945113 0.009000001
v -0.04666021 -0.110927641 0.0100000007
v -0.04666021 -0.110927641 0.008
v -0.0464350879 -0.110872366 0.009000001
v -0.0463490859 -0.110841766 0.0100000007
v -0.0463490859 -0.110841766 0.008
v -0.04610938 -0.110724851 0.009000001
v -0.04607244 -0.110702164 0.0100000007
v -0.0458407253 -0.11052388 0.009000001
v -0.04607244 -0.110702164 0.008
v -0.0458407253 -0.11052388 0.0100000007
v -0.0458407253 -0.11052388 0.008
v -0.0456453227 -0.110306405 0.0100000007
v -0.0456453227 -0.110306405 0.008
v -0.04561989 -0.1102713 0.009000001
v -0.04548507 -0.110041179 0.0100000007
v -0.04548507 -0.110041179 0.008
v -0.04548507 -0.110041179 0.009000001
v -0.04538775 -0.109782696 0.009000001
v -0.04537577 -0.109737493 0.0100000007
v -0.04537577 -0.109737493 0.008
v -0.04533576 -0.109505586 0.009000001
v -0.04532936 -0.109411173 0.0100000007
v -0.04532936 -0.109411173 0.008
v -0.0453333333 -0.109222189 0.009000001
v -0.0453508 -0.109082259 0.0100000007
v -0.0453508 -0.109082259 0.008
v -0.0453802 -0.108945645 0.009000001
v -0.04543668 -0.108771138 0.0100000007
v -0.04543668 -0.108771138 0.008
v -0.04547169 -0.108687989 0.009000001
v -0.0455762856 -0.10849449 0.0100000007
v -0.0455762856 -0.10849449 0.008
v -0.0455997624 -0.108458474 0.009000001
v -0.04575457 -0.108262777 0.0100000007
v -0.04575457 -0.108262777 0.008
v -0.04597204 -0.108067371 0.0100000007
v -0.04600715 -0.108041942 0.009000001
v -0.04597204 -0.108067371 0.008
v -0.0462372676 -0.107907124 0.0100000007
v -0.0462372676 -0.107907124 0.008
v -0.04632069 -0.107870065 0.009000001
v -0.0465409532 -0.107797816 0.0100000007
v -0.0465409532 -0.107797816 0.008
v -0.0466791466 -0.10776975 0.009000001
v -0.0468672775 -0.107751407 0.0100000007
v -0.0468672775 -0.107751407 0.008
v -0.04705626 -0.107755378 0.009000001
v -0.0471961871 -0.10777285 0.0100000007
v -0.0471961871 -0.10777285 0.008
v -0.04742131 -0.107828133 0.009000001
v -0.0475073121 -0.107858732 0.0100000007
v -0.0475073121 -0.107858732 0.008
v -0.0477470234 -0.107975647 0.009000001
v -0.04778396 -0.107998334 0.0100000007
v -0.0480156727 -0.108176619 0.009000001
v -0.04778396 -0.107998334 0.008
v -0.0480156727 -0.108176619 0.0100000007
v -0.0480156727 -0.108176619 0.008
v -0.0482110754 -0.108394094 0.0100000007
v -0.0482110754 -0.108394094 0.008
v -0.0482365079 -0.1084292 0.009000001
v -0.0483713225 -0.108659312 0.0100000007
v -0.0483713225 -0.108659312 0.008
v -0.0483713225 -0.108659312 0.009000001
v -0.04846865 -0.1089178 0.009000001
v -0.04848063 -0.108963 0.0100000007
v -0.04848063 -0.108963 0.008
v -0.04852064 -0.109194905 0.009000001
v -0.04852704 -0.109289326 0.0100000007
v -0.04852704 -0.109289326 0.008
v -0.0485230647 -0.10947831 0.009000001
v -0.0485055968 -0.109618239 0.0100000007
v -0.0485055968 -0.109618239 0.008
v -0.0484761968 -0.109754853 0.009000001
v -0.0484197177 -0.10992936 0.0100000007
v -0.0484197177 -0.10992936 0.008
v -0.0483847037 -0.110012509 0.009000001
v -0.0482801124 -0.110206008 0.0100000007
v -0.0482801124 -0.110206008 0.008
v -0.0482566357 -0.110242017 0.009000001
v -0.0481018275 -0.110437721 0.0100000007
v -0.0481018275 -0.110437721 0.008
v -0.03926611 -0.119973451 0.008
v -0.03938122 -0.124851637 0.008
v -0.0394443944 -0.119741738 0.008
v -0.0390486345 -0.12016885 0.008
v -0.0387834124 -0.1203291 0.008
v -0.03847973 -0.120438404 0.008
v -0.0381534025 -0.120484814 0.008
v -0.0378244929 -0.120463371 0.008
v -0.0375133678 -0.120377496 0.008
v -0.03723672 -0.120237887 0.008
v -0.0370050073 -0.1200596 0.008
v -0.039584 -0.11946509 0.008
v -0.03204605 -0.118054934 0.008
v -0.0368096046 -0.119842127 0.008
v -0.0366493538 -0.119576909 0.008
v -0.03654005 -0.119273223 0.008
v -0.0364936441 -0.118946895 0.008
v -0.0365150869 -0.118617982 0.008
v -0.0366009623 -0.11830686 0.008
v -0.0367405675 -0.118030213 0.008
v -0.0369188562 -0.117798507 0.008
v -0.0371363275 -0.1176031 0.008
v -0.03740155 -0.117442846 0.008
v -0.0529746339 -0.110181287 0.008
v -0.04563946 -0.103384584 0.008
v -0.0476191342 -0.110793374 0.008
v -0.03966988 -0.119153962 0.008
v -0.0478843525 -0.11063312 0.008
v -0.0481018275 -0.110437721 0.008
v -0.0482801124 -0.110206008 0.008
v -0.0484197177 -0.10992936 0.008
v -0.0485055968 -0.109618239 0.008
v -0.04852704 -0.109289326 0.008
v -0.04848063 -0.108963 0.008
v -0.0483713225 -0.108659312 0.008
v -0.0482110754 -0.108394094 0.008
v -0.0480156727 -0.108176619 0.008
v -0.04778396 -0.107998334 0.008
v -0.0475073121 -0.107858732 0.008
v -0.0471961871 -0.10777285 0.008
v -0.0468672775 -0.107751407 0.008
v -0.0465409532 -0.107797816 0.008
v -0.0462372676 -0.107907124 0.008
v -0.04597204 -0.108067371 0.008
v -0.04575457 -0.108262777 0.008
v -0.0455762856 -0.10849449 0.008
v -0.04543668 -0.108771138 0.008
v -0.0453508 -0.109082259 0.008
v -0.0377052352 -0.117333546 0.008
v -0.0425103381 -0.114118114 0.008
v -0.03803156 -0.117287137 0.008
v -0.04532936 -0.109411173 0.008
v -0.03836047 -0.117308579 0.008
v -0.04537577 -0.109737493 0.008
v -0.0386715941 -0.117394455 0.008
v -0.04548507 -0.110041179 0.008
v -0.03894824 -0.117534064 0.008
v -0.0456453227 -0.110306405 0.008
v -0.03917995 -0.117712349 0.008
v -0.0458407253 -0.11052388 0.008
v -0.0393753573 -0.117929816 0.008
v -0.04607244 -0.110702164 0.008
v -0.03953561 -0.118195042 0.008
v -0.0463490859 -0.110841766 0.008
v -0.0396449119 -0.118498728 0.008
v -0.04666021 -0.110927641 0.008
v -0.03969132 -0.118825056 0.008
v -0.04698912 -0.110949092 0.008
v -0.0473154448 -0.110902682 0.008
v -0.0369188562 -0.117798507 0.0100000007
v -0.03204605 -0.118054934 0.0100000007
v -0.0371363275 -0.1176031 0.0100000007
v -0.0367405675 -0.118030213 0.0100000007
v -0.0366009623 -0.11830686 0.0100000007
v -0.0365150869 -0.118617982 0.0100000007
v -0.0364936441 -0.118946895 0.0100000007
v -0.03654005 -0.119273223 0.0100000007
v -0.0366493538 -0.119576909 0.0100000007
v -0.0368096046 -0.119842127 0.0100000007
v -0.0370050073 -0.1200596 0.0100000007
v -0.03740155 -0.117442846 0.0100000007
v -0.03938122 -0.124851637 0.0100000007
v -0.03723672 -0.120237887 0.0100000007
v -0.0375133678 -0.120377496 0.0100000007
v -0.0378244929 -0.120463371 0.0100000007
v -0.0381534025 -0.120484814 0.0100000007
v -0.03847973 -0.120438404 0.0100000007
v -0.0387834124 -0.1203291 0.0100000007
v -0.0390486345 -0.12016885 0.0100000007
v -0.03926611 -0.119973451 0.0100000007
v -0.0394443944 -0.119741738 0.0100000007
v -0.039584 -0.11946509 0.0100000007
v -0.04563946 -0.103384584 0.0100000007
v -0.0529746339 -0.110181287 0.0100000007
v -0.04543668 -0.108771138 0.0100000007
v -0.0377052352 -0.117333546 0.0100000007
v -0.0455762856 -0.10849449 0.0100000007
v -0.04575457 -0.108262777 0.0100000007
v -0.04597204 -0.108067371 0.0100000007
v -0.0462372676 -0.107907124 0.0100000007
v -0.0465409532 -0.107797816 0.0100000007
v -0.0468672775 -0.107751407 0.0100000007
v -0.0471961871 -0.10777285 0.0100000007
v -0.0475073121 -0.107858732 0.0100000007
v -0.04778396 -0.107998334 0.0100000007
v -0.0480156727 -0.108176619 0.0100000007
v -0.0482110754 -0.108394094 0.0100000007
v -0.0483713225 -0.108659312 0.0100000007
v -0.04848063 -0.108963 0.0100000007
v -0.04852704 -0.109289326 0.0100000007
v -0.0485055968 -0.109618239 0.0100000007
v -0.0484197177 -0.10992936 0.0100000007
v -0.0482801124 -0.110206008 0.0100000007
v -0.0481018275 -0.110437721 0.0100000007
v -0.0478843525 -0.11063312 0.0100000007
v -0.0476191342 -0.110793374 0.0100000007
v -0.0473154448 -0.110902682 0.0100000007
v -0.03966988 -0.119153962 0.0100000007
v -0.0425103381 -0.114118114 0.0100000007
v -0.03969132 -0.118825056 0.0100000007
v -0.04698912 -0.110949092 0.0100000007
v -0.0396449119 -0.118498728 0.0100000007
v -0.04666021 -0.110927641 0.0100000007
v -0.03953561 -0.118195042 0.0100000007
v -0.0463490859 -0.110841766 0.0100000007
v -0.0393753573 -0.117929816 0.0100000007
v -0.04607244 -0.110702164 0.0100000007
v -0.03917995 -0.117712349 0.0100000007
v -0.0458407253 -0.11052388 0.0100000007
v -0.03894824 -0.117534064 0.0100000007
v -0.0456453227 -0.110306405 0.0100000007
v -0.0386715941 -0.117394455 0.0100000007
v -0.04548507 -0.110041179 0.0100000007
v -0.03836047 -0.117308579 0.0100000007
v -0.04537577 -0.109737493 0.0100000007
v -0.03803156 -0.117287137 0.0100000007
v -0.04532936 -0.109411173 0.0100000007
v -0.0453508 -0.109082259 0.0100000007
v -0.0357136354 -0.121453285 0.009000001
v -0.03938122 -0.124851637 0.0100000007
v -0.03938122 -0.124851637 0.008
v -0.03204605 -0.118054934 0.008
v -0.03204605 -0.118054934 0.0100000007
v -0.0461779274 -0.117516465 0.009000001
v -0.0529746339 -0.110181287 0.0100000007
v -0.0529746339 -0.110181287 0.008
v -0.03938122 -0.124851637 0.008
v -0.03938122 -0.124851637 0.0100000007
v -0.0493070446 -0.106782936 0.009000001
v -0.04563946 -0.103384584 0.0100000007
v -0.04563946 -0.103384584 0.008
v -0.0529746339 -0.110181287 0.008
v -0.0529746339 -0.110181287 0.0100000007
v -0.04563946 -0.103384584 0.0100000007
v -0.0388427526 -0.110719755 0.009000001
v -0.04563946 -0.103384584 0.008
v -0.03204605 -0.118054934 0.0100000007
v -0.03204605 -0.118054934 0.008
f 1 2 3
f 1 3 4
f 5 1 4
f 4 3 6
f 7 5 4
f 8 4 6
f 7 4 8
f 8 6 9
f 10 7 8
f 11 8 9
f 10 8 11
f 11 9 12
f 13 10 11
f 14 11 12
f 13 11 14
f 14 12 15
f 16 13 14
f 17 14 15
f 16 14 17
f 17 15 18
f 19 16 17
f 20 17 18
f 19 17 20
f 20 18 21
f 22 20 21
f 23 19 20
f 23 20 22
f 22 21 24
f 25 23 22
f 26 22 24
f 27 25 22
f 28 22 26
f 27 22 28
f 29 28 26
f 30 27 28
f 31 28 29
f 31 30 28
f 32 31 29
f 31 32 30
f 32 29 33
f 32 34 30
f 35 32 33
f 32 35 34
f 35 33 36
f 35 37 34
f 38 35 36
f 35 38 37
f 38 36 39
f 38 40 37
f 41 38 39
f 38 41 40
f 41 39 42
f 41 43 40
f 44 41 42
f 41 44 43
f 44 42 45
f 44 46 43
f 47 44 45
f 44 47 46
f 47 45 48
f 46 47 49
f 47 48 49
f 48 50 49
f 50 51 49
f 49 51 52
f 50 53 51
f 51 54 52
f 53 55 51
f 51 55 54
f 53 56 55
f 55 57 54
f 56 58 55
f 55 58 57
f 56 59 58
f 58 60 57
f 59 61 58
f 58 61 60
f 59 62 61
f 61 63 60
f 62 64 61
f 61 64 63
f 62 65 64
f 64 66 63
f 65 67 64
f 64 67 66
f 65 68 67
f 68 69 67
f 67 70 66
f 67 69 70
f 68 71 69
f 69 72 70
f 71 73 69
f 69 74 72
f 73 75 69
f 69 75 74
f 73 76 75
f 75 77 74
f 76 78 75
f 75 78 77
f 76 79 78
f 79 77 78
f 80 79 76
f 79 81 77
f 82 79 80
f 79 82 81
f 83 82 80
f 82 84 81
f 85 82 83
f 82 85 84
f 86 85 83
f 85 87 84
f 88 85 86
f 85 88 87
f 89 88 86
f 88 90 87
f 91 88 89
f 88 91 90
f 92 91 89
f 91 93 90
f 94 91 92
f 91 94 93
f 95 94 92
f 94 96 93
f 94 95 96
f 97 98 99
f 97 99 100
f 101 97 100
f 100 99 102
f 103 101 100
f 104 100 102
f 103 100 104
f 104 102 105
f 106 103 104
f 107 104 105
f 106 104 107
f 107 105 108
f 109 106 107
f 110 107 108
f 109 107 110
f 110 108 111
f 112 109 110
f 113 110 111
f 112 110 113
f 113 111 114
f 115 112 113
f 116 113 114
f 115 113 116
f 116 114 117
f 118 116 117
f 119 115 116
f 119 116 118
f 118 117 120
f 121 119 118
f 122 118 120
f 123 121 118
f 124 118 122
f 123 118 124
f 125 124 122
f 126 123 124
f 127 124 125
f 127 126 124
f 128 127 125
f 127 128 126
f 128 125 129
f 128 130 126
f 131 128 129
f 128 131 130
f 131 129 132
f 131 133 130
f 134 131 132
f 131 134 133
f 134 132 135
f 134 136 133
f 137 134 135
f 134 137 136
f 137 135 138
f 137 139 136
f 140 137 138
f 137 140 139
f 140 138 141
f 140 142 139
f 143 140 141
f 140 143 142
f 143 141 144
f 142 143 145
f 143 144 145
f 144 146 145
f 146 147 145
f 145 147 148
f 146 149 147
f 147 150 148
f 149 151 147
f 147 151 150
f 149 152 151
f 151 153 150
f 152 154 151
f 151 154 153
f 152 155 154
f 154 156 153
f 155 157 154
f 154 157 156
f 155 158 157
f 157 159 156
f 158 160 157
f 157 160 159
f 158 161 160
f 160 162 159
f 161 163 160
f 160 163 162
f 161 164 163
f 164 165 163
f 163 166 162
f 163 165 166
f 164 167 165
f 165 168 166
f 167 169 165
f 165 170 168
f 169 171 165
f 165 171 170
f 169 172 171
f 171 173 170
f 172 174 171
f 171 174 173
f 172 175 174
f 175 173 174
f 176 175 172
f 175 177 173
f 178 175 176
f 175 178 177
f 179 178 176
f 178 180 177
f 181 178 179
f 178 181 180
f 182 181 179
f 181 183 180
f 184 181 182
f 181 184 183
f 185 184 182
f 184 186 183
f 187 184 185
f 184 187 186
f 188 187 185
f 187 189 186
f 190 187 188
f 187 190 189
f 191 190 188
f 190 192 189
f 190 191 192
f 193 194 195
f 194 193 196
f 194 196 197
f 198 194 197
f 194 198 199
f 194 199 200
f 201 194 200
f 194 201 202
f 194 202 203
f 194 204 195
f 205 194 203
f 205 203 206
f 207 205 206
f 205 207 208
f 205 208 209
f 210 205 209
f 205 210 211
f 205 211 212
f 213 205 212
f 205 213 214
f 205 214 215
f 194 216 204
f 217 205 215
f 216 218 204
f 204 218 219
f 216 220 218
f 220 216 221
f 216 222 221
f 216 223 222
f 223 216 224
f 216 225 224
f 216 226 225
f 226 216 227
f 216 228 227
f 216 229 228
f 216 217 229
f 217 230 229
f 217 231 230
f 231 217 232
f 217 233 232
f 217 234 233
f 234 217 235
f 217 236 235
f 236 217 237
f 217 238 237
f 217 239 238
f 217 215 239
f 215 240 239
f 215 241 240
f 241 242 240
f 241 243 242
f 240 242 244
f 243 245 242
f 242 246 244
f 245 247 242
f 242 248 246
f 247 249 242
f 248 242 250
f 249 251 242
f 242 252 250
f 251 253 242
f 242 254 252
f 253 255 242
f 254 242 256
f 255 257 242
f 242 258 256
f 257 259 242
f 242 260 258
f 259 219 242
f 260 242 261
f 219 261 242
f 219 218 261
f 262 263 264
f 263 262 265
f 263 265 266
f 267 263 266
f 263 267 268
f 263 268 269
f 270 263 269
f 263 270 271
f 263 271 272
f 263 273 264
f 274 263 272
f 274 272 275
f 276 274 275
f 274 276 277
f 274 277 278
f 279 274 278
f 274 279 280
f 274 280 281
f 282 274 281
f 274 282 283
f 274 283 284
f 263 285 273
f 286 274 284
f 285 287 273
f 273 287 288
f 285 289 287
f 289 285 290
f 285 291 290
f 285 292 291
f 292 285 293
f 285 294 293
f 285 295 294
f 295 285 296
f 285 297 296
f 285 298 297
f 285 286 298
f 286 299 298
f 286 300 299
f 300 286 301
f 286 302 301
f 286 303 302
f 303 286 304
f 286 305 304
f 305 286 306
f 286 307 306
f 286 308 307
f 286 284 308
f 284 309 308
f 284 310 309
f 310 311 309
f 310 312 311
f 309 311 313
f 312 314 311
f 311 315 313
f 314 316 311
f 311 317 315
f 316 318 311
f 317 311 319
f 318 320 311
f 311 321 319
f 320 322 311
f 311 323 321
f 322 324 311
f 323 311 325
f 324 326 311
f 311 327 325
f 326 328 311
f 311 329 327
f 328 288 311
f 329 311 330
f 288 330 311
f 288 287 330
f 331 332 333
f 331 333 334
f 332 331 335
f 335 331 334
f 336 337 338
f 336 338 339
f 337 336 340
f 340 336 339
f 341 342 343
f 341 343 344
f 342 341 345
f 345 341 344
f 346 347 348
f 349 347 346
f 347 350 348
f 347 349 350
