# ROS coordinates: X forward, Y left, Z up; units are metres.
o mesh
v -0.102985561 0.0375 0.153512865
v -0.122985542 0.0375 0.153491437
v -0.12298578 0.0399565026 0.153716817
v -0.112985879 0.0403152257 0.153798938
v -0.102985784 0.0399565026 0.15373823
v -0.122986555 0.042469278 0.1544393
v -0.102986574 0.042469278 0.154460713
v -0.112986892 0.0431770273 0.154753819
v -0.122987896 0.0448873341 0.155692011
v -0.102987915 0.0448873341 0.155713409
v -0.112988651 0.0458535366 0.15639703
v -0.122989789 0.0470459424 0.15744549
v -0.102989793 0.0470459424 0.157466918
v -0.112991065 0.0481051169 0.15864861
v -0.122992083 0.04879944 0.159604117
v -0.1029921 0.04879944 0.159625515
v -0.112993926 0.0497483276 0.161325127
v -0.122994691 0.0500521436 0.162022159
v -0.102994695 0.0500521436 0.162043586
v -0.112996995 0.0507032052 0.164186925
v -0.122997373 0.0507746264 0.164534926
v -0.113000005 0.0510000028 0.167002127
v -0.102997392 0.0507746264 0.164556339
v -0.123000026 0.0510000028 0.166991428
v -0.103000015 0.0510000028 0.167012841
v -0.123002648 0.0507746264 0.169447929
v -0.103002653 0.0507746264 0.169469342
v -0.113003016 0.0507032052 0.169817358
v -0.123005331 0.0500521436 0.171960711
v -0.10300535 0.0500521436 0.171982124
v -0.11300534 0.0500521436 0.171971425
v -0.11300756 0.0490104854 0.174056113
v -0.123007923 0.04879944 0.174378753
v -0.103007913 0.04879944 0.174400166
v -0.1130096 0.04759362 0.175967008
v -0.123010233 0.0470459424 0.17653738
v -0.103010237 0.0470459424 0.1765588
v -0.11301136 0.0458535366 0.177607253
v -0.123012096 0.0448873341 0.178290859
v -0.10301213 0.0448873341 0.178312287
v -0.113012761 0.0438732356 0.178903058
v -0.123013437 0.042469278 0.17954357
v -0.103013456 0.042469278 0.179564983
v -0.113013729 0.041753903 0.1798144
v -0.123014227 0.0399565026 0.180266052
v -0.103014231 0.0399565026 0.180287465
v -0.113014281 0.039598994 0.180337965
v -0.123014465 0.0375 0.180491418
v -0.103014469 0.0375 0.180512831
v -0.103014469 -0.0375 0.180512831
v -0.123014465 -0.0375 0.180491418
v -0.123014227 -0.0399565026 0.180266052
v -0.113014162 -0.0403152257 0.18020533
v -0.103014231 -0.0399565026 0.180287465
v -0.123013437 -0.042469278 0.17954357
v -0.103013456 -0.042469278 0.179564983
v -0.113013148 -0.0431770273 0.179250464
v -0.123012096 -0.0448873341 0.178290859
v -0.10301213 -0.0448873341 0.178312287
v -0.11301136 -0.0458535366 0.177607253
v -0.123010233 -0.0470459424 0.17653738
v -0.103010237 -0.0470459424 0.1765588
v -0.113008946 -0.0481051169 0.175355688
v -0.123007923 -0.04879944 0.174378753
v -0.103007913 -0.04879944 0.174400166
v -0.11300607 -0.0497483276 0.172679156
v -0.123005331 -0.0500521436 0.171960711
v -0.10300535 -0.0500521436 0.171982124
v -0.113003016 -0.0507032052 0.169817358
v -0.123002648 -0.0507746264 0.169447929
v -0.113000005 -0.0510000028 0.167002127
v -0.103002653 -0.0507746264 0.169469342
v -0.123000026 -0.0510000028 0.166991428
v -0.103000015 -0.0510000028 0.167012841
v -0.122997373 -0.0507746264 0.164534926
v -0.102997392 -0.0507746264 0.164556339
v -0.112996995 -0.0507032052 0.164186925
v -0.122994691 -0.0500521436 0.162022159
v -0.102994695 -0.0500521436 0.162043586
v -0.1129947 -0.0500521436 0.162032872
v -0.112992465 -0.0490104854 0.159948155
v -0.122992083 -0.04879944 0.159604117
v -0.1029921 -0.04879944 0.159625515
v -0.112990409 -0.04759362 0.158037275
v -0.122989789 -0.0470459424 0.15744549
v -0.102989793 -0.0470459424 0.157466918
v -0.112988651 -0.0458535366 0.15639703
v -0.122987896 -0.0448873341 0.155692011
v -0.102987915 -0.0448873341 0.155713409
v -0.11298725 -0.0438732356 0.15510121
v -0.122986555 -0.042469278 0.1544393
v -0.102986574 -0.042469278 0.154460713
v -0.1129863 -0.041753903 0.15418987
v -0.12298578 -0.0399565026 0.153716817
v -0.102985784 -0.0399565026 0.15373823
v -0.11298573 -0.039598994 0.153666317
v -0.122985542 -0.0375 0.153491437
v -0.102985561 -0.0375 0.153512865
v -0.102985784 -0.0399565026 0.15373823
v -0.102985561 -0.0375 0.153512865
v -0.102986574 -0.042469278 0.154460713
v -0.102987915 -0.0448873341 0.155713409
v -0.102989793 -0.0470459424 0.157466918
v -0.103000015 6.38655748E-16 0.167012841
v -0.1029921 -0.04879944 0.159625515
v -0.102994695 -0.0500521436 0.162043586
v -0.102997392 -0.0507746264 0.164556339
v -0.103000015 -0.0510000028 0.167012841
v -0.103002653 -0.0507746264 0.169469342
v -0.10300535 -0.0500521436 0.171982124
v -0.103007913 -0.04879944 0.174400166
v -0.103010237 -0.0470459424 0.1765588
v -0.102985561 0.0375 0.153512865
v -0.103014469 -0.0375 0.180512831
v -0.10301213 -0.0448873341 0.178312287
v -0.103013456 -0.042469278 0.179564983
v -0.103014231 -0.0399565026 0.180287465
v -0.103014469 0.0375 0.180512831
v -0.102989793 0.0470459424 0.157466918
v -0.1029921 0.04879944 0.159625515
v -0.102994695 0.0500521436 0.162043586
v -0.102987915 0.0448873341 0.155713409
v -0.102986574 0.042469278 0.154460713
v -0.102985784 0.0399565026 0.15373823
v -0.102997392 0.0507746264 0.164556339
v -0.103000015 0.0510000028 0.167012841
v -0.103002653 0.0507746264 0.169469342
v -0.10300535 0.0500521436 0.171982124
v -0.103007913 0.04879944 0.174400166
v -0.103010237 0.0470459424 0.1765588
v -0.10301213 0.0448873341 0.178312287
v -0.103013456 0.042469278 0.179564983
v -0.103014231 0.0399565026 0.180287465
v -0.123014227 -0.0399565026 0.180266052
v -0.123014465 -0.0375 0.180491418
v -0.123013437 -0.042469278 0.17954357
v -0.123012096 -0.0448873341 0.178290859
v -0.123010233 -0.0470459424 0.17653738
v -0.123000026 5.265324E-16 0.166991428
v -0.123007923 -0.04879944 0.174378753
v -0.123005331 -0.0500521436 0.171960711
v -0.123002648 -0.0507746264 0.169447929
v -0.123000026 -0.0510000028 0.166991428
v -0.122997373 -0.0507746264 0.164534926
v -0.122994691 -0.0500521436 0.162022159
v -0.122992083 -0.04879944 0.159604117
v -0.122989789 -0.0470459424 0.15744549
v -0.123014465 0.0375 0.180491418
v -0.122985542 -0.0375 0.153491437
v -0.122987896 -0.0448873341 0.155692011
v -0.122986555 -0.042469278 0.1544393
v -0.12298578 -0.0399565026 0.153716817
v -0.122985542 0.0375 0.153491437
v -0.123010233 0.0470459424 0.17653738
v -0.123007923 0.04879944 0.174378753
v -0.123005331 0.0500521436 0.171960711
v -0.123012096 0.0448873341 0.178290859
v -0.123013437 0.042469278 0.17954357
v -0.123014227 0.0399565026 0.180266052
v -0.123002648 0.0507746264 0.169447929
v -0.123000026 0.0510000028 0.166991428
v -0.122997373 0.0507746264 0.164534926
v -0.122994691 0.0500521436 0.162022159
v -0.122992083 0.04879944 0.159604117
v -0.122989789 0.0470459424 0.15744549
v -0.122987896 0.0448873341 0.155692011
v -0.122986555 0.042469278 0.1544393
v -0.12298578 0.0399565026 0.153716817
v -0.113014475 4.968273E-16 0.180502146
v -0.103014469 0.0375 0.180512831
v -0.123014465 0.0375 0.180491418
v -0.123014465 -0.0375 0.180491418
v -0.103014469 -0.0375 0.180512831
v -0.102985561 0.0375 0.153512865
v -0.112985551 6.86124533E-16 0.153502136
v -0.122985542 0.0375 0.153491437
v -0.102985561 -0.0375 0.153512865
v -0.122985542 -0.0375 0.153491437
f 1 2 3
f 1 3 4
f 5 1 4
f 4 3 6
f 7 5 4
f 8 4 6
f 7 4 8
f 8 6 9
f 10 7 8
f 11 8 9
f 10 8 11
f 11 9 12
f 13 10 11
f 14 11 12
f 13 11 14
f 14 12 15
f 16 13 14
f 17 14 15
f 16 14 17
f 17 15 18
f 19 16 17
f 20 17 18
f 19 17 20
f 20 18 21
f 22 20 21
f 23 19 20
f 23 20 22
f 22 21 24
f 25 23 22
f 26 22 24
f 27 25 22
f 28 22 26
f 27 22 28
f 29 28 26
f 30 27 28
f 31 28 29
f 31 30 28
f 32 31 29
f 31 32 30
f 32 29 33
f 32 34 30
f 35 32 33
f 32 35 34
f 35 33 36
f 35 37 34
f 38 35 36
f 35 38 37
f 38 36 39
f 38 40 37
f 41 38 39
f 38 41 40
f 41 39 42
f 41 43 40
f 44 41 42
f 41 44 43
f 44 42 45
f 44 46 43
f 47 44 45
f 44 47 46
f 47 45 48
f 47 49 46
f 49 47 48
f 50 51 52
f 50 52 53
f 54 50 53
f 53 52 55
f 56 54 53
f 57 53 55
f 56 53 57
f 57 55 58
f 59 56 57
f 60 57 58
f 59 57 60
f 60 58 61
f 62 59 60
f 63 60 61
f 62 60 63
f 63 61 64
f 65 62 63
f 66 63 64
f 65 63 66
f 66 64 67
f 68 65 66
f 69 66 67
f 68 66 69
f 69 67 70
f 71 69 70
f 72 68 69
f 72 69 71
f 71 70 73
f 74 72 71
f 75 71 73
f 76 74 71
f 77 71 75
f 76 71 77
f 78 77 75
f 79 76 77
f 80 77 78
f 80 79 77
f 81 80 78
f 80 81 79
f 81 78 82
f 81 83 79
f 84 81 82
f 81 84 83
f 84 82 85
f 84 86 83
f 87 84 85
f 84 87 86
f 87 85 88
f 87 89 86
f 90 87 88
f 87 90 89
f 90 88 91
f 90 92 89
f 93 90 91
f 90 93 92
f 93 91 94
f 93 95 92
f 96 93 94
f 93 96 95
f 96 94 97
f 96 98 95
f 98 96 97
f 99 100 101
f 100 102 101
f 100 103 102
f 100 104 103
f 104 105 103
f 104 106 105
f 106 104 107
f 104 108 107
f 104 109 108
f 109 104 110
f 104 111 110
f 104 112 111
f 104 100 113
f 104 114 112
f 114 115 112
f 114 116 115
f 116 114 117
f 114 104 118
f 104 113 119
f 120 104 119
f 104 120 121
f 119 113 122
f 113 123 122
f 113 124 123
f 104 121 125
f 126 104 125
f 104 126 127
f 104 127 128
f 129 104 128
f 104 129 130
f 104 130 118
f 118 130 131
f 118 131 132
f 133 118 132
f 134 135 136
f 135 137 136
f 135 138 137
f 135 139 138
f 139 140 138
f 139 141 140
f 141 139 142
f 139 143 142
f 139 144 143
f 144 139 145
f 139 146 145
f 139 147 146
f 139 135 148
f 139 149 147
f 149 150 147
f 149 151 150
f 151 149 152
f 149 139 153
f 139 148 154
f 155 139 154
f 139 155 156
f 154 148 157
f 148 158 157
f 148 159 158
f 139 156 160
f 161 139 160
f 139 161 162
f 139 162 163
f 164 139 163
f 139 164 165
f 139 165 153
f 153 165 166
f 153 166 167
f 168 153 167
f 169 170 171
f 169 171 172
f 170 169 173
f 173 169 172
f 174 175 176
f 177 175 174
f 175 178 176
f 175 177 178
