# ROS coordinates: X forward, Y left, Z up; units are metres.
o mesh
v -0.1425696 0.035 0.0187709816
v -0.142069608 0.0355 0.0187709816
v -0.142047063 0.0355 0.0190166309
v -0.1422381 0.0352500044 0.0192751475
v -0.142538711 0.035 0.0191076118
v -0.141974822 0.0355 0.01926791
v -0.142439708 0.035 0.0194519553
v -0.141849548 0.0355 0.0195097141
v -0.142268047 0.035 0.01978332
v -0.1419765 0.0352500044 0.0197610278
v -0.141674191 0.0355 0.019725576
v -0.141555637 0.0352500044 0.0201351866
v -0.142027751 0.035 0.02007913
v -0.141458333 0.0355 0.0199009255
v -0.141731933 0.035 0.02031942
v -0.141216531 0.0355 0.0200261958
v -0.141400576 0.035 0.0204910878
v -0.141053259 0.0352500044 0.0203358028
v -0.140965253 0.0355 0.0200984441
v -0.1407196 0.0352500044 0.0203709789
v -0.141056225 0.035 0.0205900967
v -0.1407196 0.0355 0.0201209821
v -0.1407196 0.035 0.0206209812
v -0.140473962 0.0355 0.0200984441
v -0.14038296 0.035 0.0205900967
v -0.140385941 0.0352500044 0.0203358028
v -0.140222669 0.0355 0.0200261958
v -0.14003861 0.035 0.0204910878
v -0.14004676 0.0352500044 0.0202226341
v -0.139980868 0.0355 0.0199009255
v -0.139707267 0.035 0.02031942
v -0.139729559 0.0352500044 0.0200278852
v -0.139765009 0.0355 0.019725576
v -0.139411449 0.035 0.02007913
v -0.1394627 0.0352500044 0.0197610278
v -0.139589667 0.0355 0.0195097141
v -0.139171153 0.035 0.01978332
v -0.139267951 0.0352500044 0.0194438137
v -0.139464378 0.0355 0.01926791
v -0.138999492 0.035 0.0194519553
v -0.139154777 0.0352500044 0.0191046372
v -0.139392138 0.0355 0.0190166309
v -0.138900489 0.035 0.0191076118
v -0.1393696 0.0355 0.0187709816
v -0.1388696 0.035 0.0187709816
v -0.139392138 0.0355 0.01852533
v -0.1392011 0.0352500044 0.0182668157
v -0.139464378 0.0355 0.0182740539
v -0.138900489 0.035 0.01843435
v -0.138999492 0.035 0.018090006
v -0.139589667 0.0355 0.0180322472
v -0.139171153 0.035 0.0177586433
v -0.1394627 0.0352500044 0.0177809317
v -0.139765009 0.0355 0.0178163871
v -0.139883578 0.0352500044 0.0174067747
v -0.139411449 0.035 0.0174628347
v -0.139980868 0.0355 0.0176410377
v -0.139707267 0.035 0.0172225386
v -0.140222669 0.0355 0.0175157674
v -0.14003861 0.035 0.0170508735
v -0.140385941 0.0352500044 0.0172061566
v -0.140473962 0.0355 0.01744352
v -0.1407196 0.0352500044 0.01717098
v -0.14038296 0.035 0.0169518664
v -0.1407196 0.0355 0.0174209811
v -0.1407196 0.035 0.01692098
v -0.140965253 0.0355 0.01744352
v -0.141056225 0.035 0.0169518664
v -0.141053259 0.0352500044 0.0172061566
v -0.141216531 0.0355 0.0175157674
v -0.141400576 0.035 0.0170508735
v -0.141392425 0.0352500044 0.0173193272
v -0.141458333 0.0355 0.0176410377
v -0.141731933 0.035 0.0172225386
v -0.141709656 0.0352500044 0.0175140779
v -0.141674191 0.0355 0.0178163871
v -0.142027751 0.035 0.0174628347
v -0.1419765 0.0352500044 0.0177809317
v -0.141849548 0.0355 0.0180322472
v -0.142268047 0.035 0.0177586433
v -0.142171249 0.0352500044 0.01809815
v -0.141974822 0.0355 0.0182740539
v -0.142439708 0.035 0.018090006
v -0.142284423 0.0352500044 0.0184373241
v -0.142047063 0.0355 0.01852533
v -0.142538711 0.035 0.01843435
v -0.142069608 0.0355 0.0187709816
v -0.1425696 0.035 0.0187709816
v 0.154719621 0.035 0.188130453
v 0.154684573 0.035 0.188512579
v 0.154219627 0.0355 0.188130453
v 0.154428959 0.0352500044 0.188516244
v 0.15419291 0.0355 0.1884216
v 0.154572174 0.035 0.188903451
v 0.154107288 0.0355 0.1887194
v 0.154298112 0.0352500044 0.188908428
v 0.154377311 0.035 0.1892796
v 0.153958827 0.0355 0.189006
v 0.154072925 0.0352500044 0.18927522
v 0.154104561 0.035 0.1896154
v 0.153751 0.0355 0.189261824
v 0.153764367 0.0352500044 0.189583749
v 0.153768778 0.035 0.189888164
v 0.153495163 0.0355 0.189469635
v 0.15339759 0.0352500044 0.18980892
v 0.153392628 0.035 0.190083012
v 0.153208584 0.0355 0.189618111
v 0.153005421 0.0352500044 0.1899398
v 0.153001755 0.035 0.190195411
v 0.15261963 0.0352500044 0.189980447
v 0.152910769 0.0355 0.189703763
v 0.15261963 0.035 0.190230459
v 0.15261963 0.0355 0.189730465
v 0.1522375 0.035 0.190195411
v 0.152328491 0.0355 0.189703763
v 0.152233839 0.0352500044 0.1899398
v 0.151846617 0.035 0.190083012
v 0.151652977 0.0352500044 0.189707816
v 0.152030677 0.0355 0.189618111
v 0.151470482 0.035 0.189888164
v 0.1517441 0.0355 0.189469635
v 0.151134714 0.035 0.1896154
v 0.151488245 0.0355 0.189261824
v 0.151166335 0.0352500044 0.18927522
v 0.150861934 0.035 0.1892796
v 0.150863871 0.0352500044 0.1887134
v 0.151280433 0.0355 0.189006
v 0.150667071 0.035 0.188903451
v 0.151131973 0.0355 0.1887194
v 0.150554687 0.035 0.188512579
v 0.151046336 0.0355 0.1884216
v 0.150519624 0.035 0.188130453
v 0.151019633 0.0355 0.188130453
v -0.1425696 0.045 0.0187709816
v -0.142069608 0.0445 0.0187709816
v -0.142047063 0.0445 0.01852533
v -0.1422381 0.044750005 0.0182668157
v -0.142538711 0.045 0.01843435
v -0.141974822 0.0445 0.0182740539
v -0.142439708 0.045 0.018090006
v -0.141849548 0.0445 0.0180322472
v -0.142268047 0.045 0.0177586433
v -0.1419765 0.044750005 0.0177809317
v -0.141674191 0.0445 0.0178163871
v -0.141555637 0.044750005 0.0174067747
v -0.142027751 0.045 0.0174628347
v -0.141458333 0.0445 0.0176410377
v -0.141731933 0.045 0.0172225386
v -0.141216531 0.0445 0.0175157674
v -0.141400576 0.045 0.0170508735
v -0.141053259 0.044750005 0.0172061566
v -0.140965253 0.0445 0.01744352
v -0.1407196 0.044750005 0.01717098
v -0.141056225 0.045 0.0169518664
v -0.1407196 0.0445 0.0174209811
v -0.1407196 0.045 0.01692098
v -0.140473962 0.0445 0.01744352
v -0.14038296 0.045 0.0169518664
v -0.140385941 0.044750005 0.0172061566
v -0.140222669 0.0445 0.0175157674
v -0.14003861 0.045 0.0170508735
v -0.14004676 0.044750005 0.0173193272
v -0.139980868 0.0445 0.0176410377
v -0.139707267 0.045 0.0172225386
v -0.139729559 0.044750005 0.0175140779
v -0.139765009 0.0445 0.0178163871
v -0.139411449 0.045 0.0174628347
v -0.1394627 0.044750005 0.0177809317
v -0.139589667 0.0445 0.0180322472
v -0.139171153 0.045 0.0177586433
v -0.139267951 0.044750005 0.01809815
v -0.139464378 0.0445 0.0182740539
v -0.138999492 0.045 0.018090006
v -0.139154777 0.044750005 0.0184373241
v -0.139392138 0.0445 0.01852533
v -0.138900489 0.045 0.01843435
v -0.1393696 0.0445 0.0187709816
v -0.1388696 0.045 0.0187709816
v -0.139392138 0.0445 0.0190166309
v -0.1392011 0.044750005 0.0192751475
v -0.139464378 0.0445 0.01926791
v -0.138900489 0.045 0.0191076118
v -0.138999492 0.045 0.0194519553
v -0.139589667 0.0445 0.0195097141
v -0.139171153 0.045 0.01978332
v -0.1394627 0.044750005 0.0197610278
v -0.139765009 0.0445 0.019725576
v -0.139883578 0.044750005 0.0201351866
v -0.139411449 0.045 0.02007913
v -0.139980868 0.0445 0.0199009255
v -0.139707267 0.045 0.02031942
v -0.140222669 0.0445 0.0200261958
v -0.14003861 0.045 0.0204910878
v -0.140385941 0.044750005 0.0203358028
v -0.140473962 0.0445 0.0200984441
v -0.1407196 0.044750005 0.0203709789
v -0.14038296 0.045 0.0205900967
v -0.1407196 0.0445 0.0201209821
v -0.1407196 0.045 0.0206209812
v -0.140965253 0.0445 0.0200984441
v -0.141056225 0.045 0.0205900967
v -0.141053259 0.044750005 0.0203358028
v -0.141216531 0.0445 0.0200261958
v -0.141400576 0.045 0.0204910878
v -0.141392425 0.044750005 0.0202226341
v -0.141458333 0.0445 0.0199009255
v -0.141731933 0.045 0.02031942
v -0.141709656 0.044750005 0.0200278852
v -0.141674191 0.0445 0.019725576
v -0.142027751 0.045 0.02007913
v -0.1419765 0.044750005 0.0197610278
v -0.141849548 0.0445 0.0195097141
v -0.142268047 0.045 0.01978332
v -0.142171249 0.044750005 0.0194438137
v -0.141974822 0.0445 0.01926791
v -0.142439708 0.045 0.0194519553
v -0.142284423 0.044750005 0.0191046372
v -0.142047063 0.0445 0.0190166309
v -0.142538711 0.045 0.0191076118
v -0.142069608 0.0445 0.0187709816
v -0.1425696 0.045 0.0187709816
v 0.09634242 0.045 0.0784423351
v 0.09684242 0.0445 0.0784423351
v 0.09686998 0.0445 0.0781421
v 0.0966892242 0.044750005 0.07784364
v 0.09637832 0.045 0.07805112
v 0.09695828 0.0445 0.07783498
v 0.09649338 0.045 0.0776509345
v 0.09711138 0.0445 0.077539444
v 0.09669289 0.045 0.07726583
v 0.09699986 0.044750005 0.0772666559
v 0.097325705 0.0445 0.07727561
v 0.09749964 0.044750005 0.07682234
v 0.0969721451 0.045 0.07692206
v 0.09758954 0.0445 0.0770612955
v 0.09731592 0.045 0.0766428
v 0.0978850648 0.0445 0.0769081861
v 0.09770103 0.045 0.07644329
v 0.0980962142 0.044750005 0.07658411
v 0.0981921852 0.0445 0.07681988
v 0.09849243 0.044750005 0.07654234
v 0.0981012061 0.045 0.0763282254
v 0.09849243 0.0445 0.07679234
v 0.09849243 0.045 0.076292336
v 0.09879267 0.0445 0.07681988
v 0.09888365 0.045 0.0763282254
v 0.09888865 0.044750005 0.07658411
v 0.0990997851 0.0445 0.0769081861
v 0.09928383 0.045 0.07644329
v 0.09929142 0.044750005 0.0767185
v 0.09939533 0.0445 0.0770612955
v 0.0996689349 0.045 0.0766428
v 0.0996681154 0.044750005 0.07694977
v 0.09965915 0.0445 0.07727561
v 0.100012712 0.045 0.07692206
v 0.099985 0.044750005 0.0772666559
v 0.09987347 0.0445 0.077539444
v 0.100291975 0.045 0.07726583
v 0.100216269 0.044750005 0.07764335
v 0.100026585 0.0445 0.07783498
v 0.100491479 0.045 0.0776509345
v 0.100350663 0.044750005 0.07804612
v 0.100114882 0.0445 0.0781421
v 0.100606531 0.045 0.07805112
v 0.100142427 0.0445 0.0784423351
v 0.100642428 0.045 0.0784423351
v 0.100114882 0.0445 0.07874258
v 0.100295633 0.044750005 0.079041034
v 0.100026585 0.0445 0.07904969
v 0.100606531 0.045 0.07883356
v 0.100491479 0.045 0.0792337358
v 0.09987347 0.0445 0.07934524
v 0.100291975 0.045 0.07961884
v 0.099985 0.044750005 0.07961802
v 0.09965915 0.0445 0.0796090662
v 0.09948521 0.044750005 0.08006234
v 0.100012712 0.045 0.07996261
v 0.09939533 0.0445 0.0798233747
v 0.0996689349 0.045 0.0802418739
v 0.0990997851 0.0445 0.0799764842
v 0.09928383 0.045 0.0804413855
v 0.09888865 0.044750005 0.08030056
v 0.09879267 0.0445 0.08006479
v 0.09849243 0.044750005 0.08034234
v 0.09888365 0.045 0.08055644
v 0.09849243 0.0445 0.08009233
v 0.09849243 0.045 0.08059234
v 0.0981921852 0.0445 0.08006479
v 0.0981012061 0.045 0.08055644
v 0.0980962142 0.044750005 0.08030056
v 0.0978850648 0.0445 0.0799764842
v 0.09770103 0.045 0.0804413855
v 0.0976934358 0.044750005 0.08016617
v 0.09758954 0.0445 0.0798233747
v 0.09731592 0.045 0.0802418739
v 0.09731674 0.044750005 0.07993491
v 0.097325705 0.0445 0.0796090662
v 0.0969721451 0.045 0.07996261
v 0.09699986 0.044750005 0.07961802
v 0.09711138 0.0445 0.07934524
v 0.09669289 0.045 0.07961884
v 0.0967685953 0.044750005 0.07924133
v 0.09695828 0.0445 0.07904969
v 0.09649338 0.045 0.0792337358
v 0.0966341943 0.044750005 0.07883855
v 0.09686998 0.0445 0.07874258
v 0.09637832 0.045 0.07883356
v 0.09684242 0.0445 0.0784423351
v 0.09634242 0.045 0.0784423351
v 0.150519624 0.045 0.188130453
v 0.151019633 0.0445 0.188130453
v 0.151046336 0.0445 0.187839329
v 0.150863871 0.044750005 0.18754752
v 0.150554687 0.045 0.187748358
v 0.151131973 0.0445 0.187541515
v 0.150667071 0.045 0.187357485
v 0.151280433 0.0445 0.187254936
v 0.150861934 0.045 0.18698132
v 0.151166335 0.044750005 0.186985716
v 0.151488245 0.0445 0.186999112
v 0.151652977 0.044750005 0.186553121
v 0.151134714 0.045 0.186645538
v 0.1517441 0.0445 0.186791271
v 0.151470482 0.045 0.186372772
v 0.152030677 0.0445 0.1866428
v 0.151846617 0.045 0.186177909
v 0.152233839 0.044750005 0.186321139
v 0.152328491 0.0445 0.186557174
v 0.15261963 0.044750005 0.186280474
v 0.1522375 0.045 0.186065525
v 0.15261963 0.0445 0.186530471
v 0.15261963 0.045 0.186030477
v 0.152910769 0.0445 0.186557174
v 0.153001755 0.045 0.186065525
v 0.153005421 0.044750005 0.186321139
v 0.153208584 0.0445 0.1866428
v 0.153392628 0.045 0.186177909
v 0.15339759 0.044750005 0.186451986
v 0.153495163 0.0445 0.186791271
v 0.153768778 0.045 0.186372772
v 0.153764367 0.044750005 0.186677188
v 0.153751 0.0445 0.186999112
v 0.154104561 0.045 0.186645538
v 0.154072925 0.044750005 0.186985716
v 0.153958827 0.0445 0.187254936
v 0.154377311 0.045 0.18698132
v 0.154298112 0.044750005 0.187352479
v 0.154107288 0.0445 0.187541515
v 0.154572174 0.045 0.187357485
v 0.154428959 0.044750005 0.187744662
v 0.15419291 0.0445 0.187839329
v 0.154684573 0.045 0.187748358
v 0.154219627 0.0445 0.188130453
v 0.154719621 0.045 0.188130453
v 0.15419291 0.0445 0.1884216
v 0.154375389 0.044750005 0.1887134
v 0.154107288 0.0445 0.1887194
v 0.154684573 0.045 0.188512579
v 0.154572174 0.045 0.188903451
v 0.153958827 0.0445 0.189006
v 0.154377311 0.045 0.1892796
v 0.154072925 0.044750005 0.18927522
v 0.153751 0.0445 0.189261824
v 0.153586283 0.044750005 0.189707816
v 0.154104561 0.045 0.1896154
v 0.153495163 0.0445 0.189469635
v 0.153768778 0.045 0.189888164
v 0.153208584 0.0445 0.189618111
v 0.153392628 0.045 0.190083012
v 0.153005421 0.044750005 0.1899398
v 0.152910769 0.0445 0.189703763
v 0.15261963 0.044750005 0.189980447
v 0.153001755 0.045 0.190195411
v 0.15261963 0.0445 0.189730465
v 0.15261963 0.045 0.190230459
v 0.152328491 0.0445 0.189703763
v 0.1522375 0.045 0.190195411
v 0.152233839 0.044750005 0.1899398
v 0.152030677 0.0445 0.189618111
v 0.151846617 0.045 0.190083012
v 0.15184167 0.044750005 0.18980892
v 0.1517441 0.0445 0.189469635
v 0.151470482 0.045 0.189888164
v 0.1514749 0.044750005 0.189583749
v 0.151488245 0.0445 0.189261824
v 0.151134714 0.045 0.1896154
v 0.151166335 0.044750005 0.18927522
v 0.151280433 0.0445 0.189006
v 0.150861934 0.045 0.1892796
v 0.150941148 0.044750005 0.188908428
v 0.151131973 0.0445 0.1887194
v 0.150667071 0.045 0.188903451
v 0.1508103 0.044750005 0.188516244
v 0.151046336 0.0445 0.1884216
v 0.150554687 0.045 0.188512579
v 0.151019633 0.0445 0.188130453
v 0.150519624 0.045 0.188130453
v -0.0679 0.045 0.00500000035
v -0.0684 0.0445 0.00500000035
v -0.06842671 0.0445 0.005291141
v -0.06824425 0.044750005 0.0055829417
v -0.06793506 0.045 0.00538212247
v -0.06851234 0.0445 0.00558895152
v -0.06804745 0.045 0.005772999
v -0.06866081 0.0445 0.00587553624
v -0.06824231 0.045 0.006149141
v -0.06854671 0.044750005 0.00614474434
v -0.06886863 0.0445 0.006131371
v -0.06903335 0.044750005 0.00657736324
v -0.06851508 0.045 0.00648492435
v -0.06912447 0.0445 0.00633919332
v -0.06885086 0.045 0.00675769057
v -0.0694110543 0.0445 0.006487661
v -0.069227 0.045 0.00695255538
v -0.06961422 0.044750005 0.00680932775
v -0.06970886 0.0445 0.0065732887
v -0.07 0.044750005 0.00685000047
v -0.06961788 0.045 0.00706494227
v -0.07 0.0445 0.006600001
v -0.07 0.045 0.0071
v -0.07029115 0.0445 0.0065732887
v -0.0703821257 0.045 0.00706494227
v -0.07038579 0.044750005 0.00680932775
v -0.0705889538 0.0445 0.006487661
v -0.0707730055 0.045 0.00695255538
v -0.07077797 0.044750005 0.006678474
v -0.07087554 0.0445 0.00633919332
v -0.07114914 0.045 0.00675769057
v -0.0711447448 0.044750005 0.00645329338
v -0.07113138 0.0445 0.006131371
v -0.07148492 0.045 0.00648492435
v -0.0714532956 0.044750005 0.00614474434
v -0.0713392 0.0445 0.00587553624
v -0.07175769 0.045 0.006149141
v -0.0716784745 0.044750005 0.00577796251
v -0.0714876652 0.0445 0.00558895152
v -0.07195256 0.045 0.005772999
v -0.07180933 0.044750005 0.00538579
v -0.0715732947 0.0445 0.005291141
v -0.07206494 0.045 0.00538212247
v -0.0716 0.0445 0.00500000035
v -0.072100006 0.045 0.00500000035
v -0.0715732947 0.0445 0.004708859
v -0.07175576 0.044750005 0.00441705855
v -0.0714876652 0.0445 0.00441104872
v -0.07206494 0.045 0.004617878
v -0.07195256 0.045 0.004227001
v -0.0713392 0.0445 0.00412446447
v -0.07175769 0.045 0.00385085959
v -0.0714532956 0.044750005 0.00385525636
v -0.07113138 0.0445 0.00386862922
v -0.07096666 0.044750005 0.003422637
v -0.07148492 0.045 0.003515076
v -0.07087554 0.0445 0.00366080762
v -0.07114914 0.045 0.00324230967
v -0.0705889538 0.0445 0.00351233874
v -0.0707730055 0.045 0.00304744462
v -0.07038579 0.044750005 0.00319067249
v -0.07029115 0.0445 0.00342671177
v -0.07 0.044750005 0.00315000024
v -0.0703821257 0.045 0.002935059
v -0.07 0.0445 0.00340000028
v -0.07 0.045 0.0029
v -0.06970886 0.0445 0.00342671177
v -0.06961788 0.045 0.002935059
v -0.06961422 0.044750005 0.00319067249
v -0.0694110543 0.0445 0.00351233874
v -0.069227 0.045 0.00304744462
v -0.06922205 0.044750005 0.003321526
v -0.06912447 0.0445 0.00366080762
v -0.06885086 0.045 0.00324230967
v -0.06885526 0.044750005 0.00354670687
v -0.06886863 0.0445 0.00386862922
v -0.06851508 0.045 0.003515076
v -0.06854671 0.044750005 0.00385525636
v -0.06866081 0.0445 0.00412446447
v -0.06824231 0.045 0.00385085959
v -0.0683215261 0.044750005 0.004222038
v -0.06851234 0.0445 0.00441104872
v -0.06804745 0.045 0.004227001
v -0.06819068 0.044750005 0.00461421
v -0.06842671 0.0445 0.004708859
v -0.06793506 0.045 0.004617878
v -0.0684 0.0445 0.00500000035
v -0.0679 0.045 0.00500000035
v -0.067 0.035 0.00500000035
v -0.067 0.0375 0.00500000035
v -0.06705009 0.0375 0.004454111
v -0.06706596 0.0362500027 0.00437439466
v -0.06705009 0.035 0.004454111
v -0.06721064 0.0375 0.00389571581
v -0.06721064 0.035 0.00389571581
v -0.0672781542 0.0362500027 0.00373844
v -0.06748901 0.0375 0.00335837062
v -0.06748901 0.035 0.00335837062
v -0.0676433146 0.0362500027 0.00314365863
v -0.06787868 0.0375 0.00287867966
v -0.06787868 0.035 0.00287867966
v -0.0681436658 0.0362500027 0.00264330814
v -0.06835838 0.0375 0.0024890136
v -0.06835838 0.035 0.0024890136
v -0.0687384456 0.0362500027 0.00227815052
v -0.06889572 0.0375 0.00221063523
v -0.06889572 0.035 0.00221063523
v -0.0693744 0.0362500027 0.00206595543
v -0.06945412 0.0375 0.002050084
v -0.07 0.0362500027 0.002
v -0.06945412 0.035 0.002050084
v -0.07 0.0375 0.002
v -0.07 0.035 0.002
v -0.07054589 0.0375 0.002050084
v -0.07054589 0.035 0.002050084
v -0.07062561 0.0362500027 0.00206595543
v -0.07110429 0.0375 0.00221063523
v -0.07110429 0.035 0.00221063523
v -0.07110429 0.0362500027 0.00221063523
v -0.07156755 0.0362500027 0.00244211382
v -0.07164164 0.0375 0.0024890136
v -0.07164164 0.035 0.0024890136
v -0.0719921961 0.0362500027 0.00275697443
v -0.07212132 0.0375 0.00287867966
v -0.07212132 0.035 0.00287867966
v -0.07235669 0.0362500027 0.00314365863
v -0.07251099 0.0375 0.00335837062
v -0.07251099 0.035 0.00335837062
v -0.07264465 0.0362500027 0.00358372577
v -0.07278937 0.0375 0.00389571581
v -0.07278937 0.035 0.00389571581
v -0.07284717 0.0362500027 0.00405468931
v -0.0729499161 0.0375 0.004454111
v -0.0729499161 0.035 0.004454111
v -0.07296352 0.0362500027 0.004533558
v -0.07300001 0.0375 0.00500000035
v -0.07300001 0.035 0.00500000035
v -0.0729499161 0.0375 0.005545889
v -0.07293405 0.0362500027 0.00562560558
v -0.0729499161 0.035 0.005545889
v -0.07278937 0.0375 0.006104284
v -0.07278937 0.035 0.006104284
v -0.0727218539 0.0362500027 0.0062615606
v -0.07251099 0.0375 0.00664162962
v -0.07251099 0.035 0.00664162962
v -0.07235669 0.0362500027 0.00685634138
v -0.07212132 0.0375 0.007121321
v -0.07212132 0.035 0.007121321
v -0.07185635 0.0362500027 0.007356692
v -0.07164164 0.0375 0.00751098664
v -0.07164164 0.035 0.00751098664
v -0.07126156 0.0362500027 0.00772184972
v -0.07110429 0.0375 0.00778936548
v -0.07110429 0.035 0.00778936548
v -0.07062561 0.0362500027 0.007934045
v -0.07054589 0.0375 0.007949917
v -0.07 0.0362500027 0.008
v -0.07054589 0.035 0.007949917
v -0.07 0.0375 0.008
v -0.07 0.035 0.008
v -0.06945412 0.0375 0.007949917
v -0.06945412 0.035 0.007949917
v -0.0693744 0.0362500027 0.007934045
v -0.06889572 0.0375 0.00778936548
v -0.06889572 0.035 0.00778936548
v -0.06889572 0.0362500027 0.00778936548
v -0.06843245 0.0362500027 0.00755788665
v -0.06835838 0.0375 0.00751098664
v -0.06835838 0.035 0.00751098664
v -0.06800781 0.0362500027 0.00724302558
v -0.06787868 0.0375 0.007121321
v -0.06787868 0.035 0.007121321
v -0.0676433146 0.0362500027 0.00685634138
v -0.06748901 0.0375 0.00664162962
v -0.06748901 0.035 0.00664162962
v -0.06735535 0.0362500027 0.0064162747
v -0.06721064 0.0375 0.006104284
v -0.06721064 0.035 0.006104284
v -0.0671528354 0.0362500027 0.005945311
v -0.06705009 0.0375 0.005545889
v -0.06705009 0.035 0.005545889
v -0.06703648 0.0362500027 0.005466442
v -0.067 0.0375 0.00500000035
v -0.067 0.035 0.00500000035
v -0.0684 0.0375 0.00500000035
v -0.0684 0.0445 0.00500000035
v -0.06842671 0.0445 0.004708859
v -0.06843518 0.041 0.004666344
v -0.06842671 0.0375 0.004708859
v -0.06851234 0.0445 0.00441104872
v -0.06851234 0.0375 0.00441104872
v -0.06854835 0.041 0.00432716776
v -0.06866081 0.0445 0.00412446447
v -0.06866081 0.0375 0.00412446447
v -0.0687430948 0.041 0.004009952
v -0.06886863 0.0445 0.00386862922
v -0.06886863 0.0375 0.00386862922
v -0.06900995 0.041 0.00374309765
v -0.06912447 0.0445 0.00366080762
v -0.06912447 0.0375 0.00366080762
v -0.0693271756 0.041 0.003548347
v -0.0694110543 0.0445 0.00351233874
v -0.0694110543 0.0375 0.00351233874
v -0.06966635 0.041 0.00343517633
v -0.06970886 0.0445 0.00342671177
v -0.07 0.041 0.00340000028
v -0.06970886 0.0375 0.00342671177
v -0.07 0.0445 0.00340000028
v -0.07 0.0375 0.00340000028
v -0.07029115 0.0445 0.00342671177
v -0.07029115 0.0375 0.00342671177
v -0.07033366 0.041 0.00343517633
v -0.0705889538 0.0445 0.00351233874
v -0.0705889538 0.0375 0.00351233874
v -0.0705889538 0.041 0.00351233874
v -0.07083603 0.041 0.003635794
v -0.07087554 0.0445 0.00366080762
v -0.07087554 0.0375 0.00366080762
v -0.0710625052 0.041 0.00380371977
v -0.07113138 0.0445 0.00386862922
v -0.07113138 0.0375 0.00386862922
v -0.0712569058 0.041 0.004009952
v -0.0713392 0.0445 0.00412446447
v -0.0713392 0.0375 0.00412446447
v -0.07141048 0.041 0.004244654
v -0.0714876652 0.0445 0.00441104872
v -0.0714876652 0.0375 0.00441104872
v -0.0715184957 0.041 0.00449583447
v -0.0715732947 0.0445 0.004708859
v -0.0715732947 0.0375 0.004708859
v -0.0715805441 0.041 0.004751231
v -0.0716 0.0445 0.00500000035
v -0.0716 0.0375 0.00500000035
v -0.0715732947 0.0445 0.005291141
v -0.07156482 0.041 0.00533365645
v -0.0715732947 0.0375 0.005291141
v -0.0714876652 0.0445 0.00558895152
v -0.0714876652 0.0375 0.00558895152
v -0.07145166 0.041 0.00567283249
v -0.0713392 0.0445 0.00587553624
v -0.0713392 0.0375 0.00587553624
v -0.0712569058 0.041 0.005990049
v -0.07113138 0.0445 0.006131371
v -0.07113138 0.0375 0.006131371
v -0.07099005 0.041 0.00625690259
v -0.07087554 0.0445 0.00633919332
v -0.07087554 0.0375 0.00633919332
v -0.07067284 0.041 0.00645165332
v -0.0705889538 0.0445 0.006487661
v -0.0705889538 0.0375 0.006487661
v -0.07033366 0.041 0.006564824
v -0.07029115 0.0445 0.0065732887
v -0.07 0.041 0.006600001
v -0.07029115 0.0375 0.0065732887
v -0.07 0.0445 0.006600001
v -0.07 0.0375 0.006600001
v -0.06970886 0.0445 0.0065732887
v -0.06970886 0.0375 0.0065732887
v -0.06966635 0.041 0.006564824
v -0.0694110543 0.0445 0.006487661
v -0.0694110543 0.0375 0.006487661
v -0.0694110543 0.041 0.006487661
v -0.06916397 0.041 0.00636420632
v -0.06912447 0.0445 0.00633919332
v -0.06912447 0.0375 0.00633919332
v -0.0689374954 0.041 0.00619628048
v -0.06886863 0.0445 0.006131371
v -0.06886863 0.0375 0.006131371
v -0.0687430948 0.041 0.005990049
v -0.06866081 0.0445 0.00587553624
v -0.06866081 0.0375 0.00587553624
v -0.06858952 0.041 0.00575534627
v -0.06851234 0.0445 0.00558895152
v -0.06851234 0.0375 0.00558895152
v -0.0684815049 0.041 0.005504166
v -0.06842671 0.0445 0.005291141
v -0.06842671 0.0375 0.005291141
v -0.06841946 0.041 0.005248769
v -0.0684 0.0445 0.00500000035
v -0.0684 0.0375 0.00500000035
v 0.151019633 0.0445 0.188130453
v 0.151019633 0.0355 0.188130453
v 0.151046336 0.0355 0.187839329
v 0.151054814 0.0400000028 0.187796816
v 0.151046336 0.0445 0.187839329
v 0.151131973 0.0355 0.187541515
v 0.151131973 0.0445 0.187541515
v 0.151167974 0.0400000028 0.187457636
v 0.151280433 0.0355 0.187254936
v 0.151280433 0.0445 0.187254936
v 0.151362732 0.0400000028 0.18714042
v 0.151488245 0.0355 0.186999112
v 0.151488245 0.0445 0.186999112
v 0.151629582 0.0400000028 0.186873555
v 0.1517441 0.0355 0.186791271
v 0.1517441 0.0445 0.186791271
v 0.1519468 0.0400000028 0.186678827
v 0.152030677 0.0355 0.1866428
v 0.152030677 0.0445 0.1866428
v 0.152285978 0.0400000028 0.186565638
v 0.152328491 0.0355 0.186557174
v 0.15261963 0.0400000028 0.186530471
v 0.152328491 0.0445 0.186557174
v 0.15261963 0.0355 0.186530471
v 0.15261963 0.0445 0.186530471
v 0.152910769 0.0355 0.186557174
v 0.152910769 0.0445 0.186557174
v 0.152953282 0.0400000028 0.186565638
v 0.153208584 0.0355 0.1866428
v 0.153208584 0.0445 0.1866428
v 0.153208584 0.0400000028 0.1866428
v 0.15345566 0.0400000028 0.186766252
v 0.153495163 0.0355 0.186791271
v 0.153495163 0.0445 0.186791271
v 0.153682142 0.0400000028 0.186934173
v 0.153751 0.0355 0.186999112
v 0.153751 0.0445 0.186999112
v 0.153876528 0.0400000028 0.18714042
v 0.153958827 0.0355 0.187254936
v 0.153958827 0.0445 0.187254936
v 0.154030114 0.0400000028 0.187375113
v 0.154107288 0.0355 0.187541515
v 0.154107288 0.0445 0.187541515
v 0.154138118 0.0400000028 0.1876263
v 0.15419291 0.0355 0.187839329
v 0.15419291 0.0445 0.187839329
v 0.154200166 0.0400000028 0.187881678
v 0.154219627 0.0355 0.188130453
v 0.154219627 0.0445 0.188130453
v 0.15419291 0.0355 0.1884216
v 0.154184461 0.0400000028 0.1884641
v 0.15419291 0.0445 0.1884216
v 0.154107288 0.0355 0.1887194
v 0.154107288 0.0445 0.1887194
v 0.154071286 0.0400000028 0.1888033
v 0.153958827 0.0355 0.189006
v 0.153958827 0.0445 0.189006
v 0.153876528 0.0400000028 0.1891205
v 0.153751 0.0355 0.189261824
v 0.153751 0.0445 0.189261824
v 0.153609678 0.0400000028 0.189387366
v 0.153495163 0.0355 0.189469635
v 0.153495163 0.0445 0.189469635
v 0.153292462 0.0400000028 0.189582109
v 0.153208584 0.0355 0.189618111
v 0.153208584 0.0445 0.189618111
v 0.152953282 0.0400000028 0.189695284
v 0.152910769 0.0355 0.189703763
v 0.15261963 0.0400000028 0.189730465
v 0.152910769 0.0445 0.189703763
v 0.15261963 0.0355 0.189730465
v 0.15261963 0.0445 0.189730465
v 0.152328491 0.0355 0.189703763
v 0.152328491 0.0445 0.189703763
v 0.152285978 0.0400000028 0.189695284
v 0.152030677 0.0355 0.189618111
v 0.152030677 0.0445 0.189618111
v 0.152030677 0.0400000028 0.189618111
v 0.1517836 0.0400000028 0.189494669
v 0.1517441 0.0355 0.189469635
v 0.1517441 0.0445 0.189469635
v 0.151557133 0.0400000028 0.189326763
v 0.151488245 0.0355 0.189261824
v 0.151488245 0.0445 0.189261824
v 0.151362732 0.0400000028 0.1891205
v 0.151280433 0.0355 0.189006
v 0.151280433 0.0445 0.189006
v 0.151209146 0.0400000028 0.188885808
v 0.151131973 0.0355 0.1887194
v 0.151131973 0.0445 0.1887194
v 0.151101142 0.0400000028 0.188634634
v 0.151046336 0.0355 0.1884216
v 0.151046336 0.0445 0.1884216
v 0.151039079 0.0400000028 0.188379228
v 0.151019633 0.0355 0.188130453
v 0.151019633 0.0445 0.188130453
v 0.09684242 0.0445 0.0784423351
v 0.09684242 0.0375 0.0784423351
v 0.09686998 0.0375 0.0781421
v 0.09687871 0.041 0.07809825
v 0.09686998 0.0445 0.0781421
v 0.09695828 0.0375 0.07783498
v 0.09695828 0.0445 0.07783498
v 0.09699541 0.041 0.07774848
v 0.09711138 0.0375 0.077539444
v 0.09711138 0.0445 0.077539444
v 0.09719625 0.041 0.07742135
v 0.097325705 0.0375 0.07727561
v 0.097325705 0.0445 0.07727561
v 0.09747144 0.041 0.07714616
v 0.09758954 0.0375 0.0770612955
v 0.09758954 0.0445 0.0770612955
v 0.09779857 0.041 0.07694532
v 0.0978850648 0.0375 0.0769081861
v 0.0978850648 0.0445 0.0769081861
v 0.0981483459 0.041 0.0768286139
v 0.0981921852 0.0375 0.07681988
v 0.09849243 0.041 0.07679234
v 0.0981921852 0.0445 0.07681988
v 0.09849243 0.0375 0.07679234
v 0.09849243 0.0445 0.07679234
v 0.09879267 0.0375 0.07681988
v 0.09879267 0.0445 0.07681988
v 0.09883651 0.041 0.0768286139
v 0.0990997851 0.0375 0.0769081861
v 0.0990997851 0.0445 0.0769081861
v 0.0990997851 0.041 0.0769081861
v 0.09935458 0.041 0.0770354941
v 0.09939533 0.0375 0.0770612955
v 0.09939533 0.0445 0.0770612955
v 0.0995881259 0.041 0.07720867
v 0.09965915 0.0375 0.07727561
v 0.09965915 0.0445 0.07727561
v 0.09978861 0.041 0.07742135
v 0.09987347 0.0375 0.077539444
v 0.09987347 0.0445 0.077539444
v 0.09994699 0.041 0.0776633844
v 0.100026585 0.0375 0.07783498
v 0.100026585 0.0445 0.07783498
v 0.100058377 0.041 0.07792241
v 0.100114882 0.0375 0.0781421
v 0.100114882 0.0445 0.0781421
v 0.100122362 0.041 0.0781858
v 0.100142427 0.0375 0.0784423351
v 0.100142427 0.0445 0.0784423351
v 0.100114882 0.0375 0.07874258
v 0.10010615 0.041 0.07878642
v 0.100114882 0.0445 0.07874258
v 0.100026585 0.0375 0.07904969
v 0.100026585 0.0445 0.07904969
v 0.099989444 0.041 0.07913619
v 0.09987347 0.0375 0.07934524
v 0.09987347 0.0445 0.07934524
v 0.09978861 0.041 0.07946332
v 0.09965915 0.0375 0.0796090662
v 0.09965915 0.0445 0.0796090662
v 0.09951342 0.041 0.07973851
v 0.09939533 0.0375 0.0798233747
v 0.09939533 0.0445 0.0798233747
v 0.0991862938 0.041 0.07993936
v 0.0990997851 0.0375 0.0799764842
v 0.0990997851 0.0445 0.0799764842
v 0.09883651 0.041 0.08005606
v 0.09879267 0.0375 0.08006479
v 0.09849243 0.041 0.08009233
v 0.09879267 0.0445 0.08006479
v 0.09849243 0.0375 0.08009233
v 0.09849243 0.0445 0.08009233
v 0.0981921852 0.0375 0.08006479
v 0.0981921852 0.0445 0.08006479
v 0.0981483459 0.041 0.08005606
v 0.0978850648 0.0375 0.0799764842
v 0.0978850648 0.0445 0.0799764842
v 0.0978850648 0.041 0.0799764842
v 0.09763028 0.041 0.0798491761
v 0.09758954 0.0375 0.0798233747
v 0.09758954 0.0445 0.0798233747
v 0.09739672 0.041 0.079676
v 0.097325705 0.0375 0.0796090662
v 0.097325705 0.0445 0.0796090662
v 0.09719625 0.041 0.07946332
v 0.09711138 0.0375 0.07934524
v 0.09711138 0.0445 0.07934524
v 0.09703787 0.041 0.0792212859
v 0.09695828 0.0375 0.07904969
v 0.09695828 0.0445 0.07904969
v 0.09692648 0.041 0.07896226
v 0.09686998 0.0375 0.07874258
v 0.09686998 0.0445 0.07874258
v 0.0968624949 0.041 0.07869888
v 0.09684242 0.0375 0.0784423351
v 0.09684242 0.0445 0.0784423351
v -0.142069608 0.0445 0.0187709816
v -0.142069608 0.0355 0.0187709816
v -0.142047063 0.0355 0.01852533
v -0.142039925 0.0400000028 0.0184894577
v -0.142047063 0.0445 0.01852533
v -0.141974822 0.0355 0.0182740539
v -0.141974822 0.0445 0.0182740539
v -0.141944438 0.0400000028 0.018203279
v -0.141849548 0.0355 0.0180322472
v -0.141849548 0.0445 0.0180322472
v -0.141780108 0.0400000028 0.0179356281
v -0.141674191 0.0355 0.0178163871
v -0.141674191 0.0445 0.0178163871
v -0.141554952 0.0400000028 0.01771047
v -0.141458333 0.0355 0.0176410377
v -0.141458333 0.0445 0.0176410377
v -0.141287312 0.0400000028 0.017546149
v -0.141216531 0.0355 0.0175157674
v -0.141216531 0.0445 0.0175157674
v -0.141001135 0.0400000028 0.01745066
v -0.140965253 0.0355 0.01744352
v -0.1407196 0.0400000028 0.0174209811
v -0.140965253 0.0445 0.01744352
v -0.1407196 0.0355 0.0174209811
v -0.1407196 0.0445 0.0174209811
v -0.140473962 0.0355 0.01744352
v -0.140473962 0.0445 0.01744352
v -0.14043808 0.0400000028 0.01745066
v -0.140222669 0.0355 0.0175157674
v -0.140222669 0.0445 0.0175157674
v -0.140222669 0.0400000028 0.0175157674
v -0.1400142 0.0400000028 0.0176199321
v -0.139980868 0.0355 0.0176410377
v -0.139980868 0.0445 0.0176410377
v -0.139823109 0.0400000028 0.01776162
v -0.139765009 0.0355 0.0178163871
v -0.139765009 0.0445 0.0178163871
v -0.139659077 0.0400000028 0.0179356281
v -0.139589667 0.0355 0.0180322472
v -0.139589667 0.0445 0.0180322472
v -0.139529511 0.0400000028 0.0181336571
v -0.139464378 0.0355 0.0182740539
v -0.139464378 0.0445 0.0182740539
v -0.139438376 0.0400000028 0.01834559
v -0.139392138 0.0355 0.01852533
v -0.139392138 0.0445 0.01852533
v -0.139386028 0.0400000028 0.018561082
v -0.1393696 0.0355 0.0187709816
v -0.1393696 0.0445 0.0187709816
v -0.139392138 0.0355 0.0190166309
v -0.139399275 0.0400000028 0.0190525036
v -0.139392138 0.0445 0.0190166309
v -0.139464378 0.0355 0.01926791
v -0.139464378 0.0445 0.01926791
v -0.139494777 0.0400000028 0.0193386823
v -0.139589667 0.0355 0.0195097141
v -0.139589667 0.0445 0.0195097141
v -0.139659077 0.0400000028 0.0196063351
v -0.139765009 0.0355 0.019725576
v -0.139765009 0.0445 0.019725576
v -0.139884248 0.0400000028 0.0198314916
v -0.139980868 0.0355 0.0199009255
v -0.139980868 0.0445 0.0199009255
v -0.140151888 0.0400000028 0.0199958123
v -0.140222669 0.0355 0.0200261958
v -0.140222669 0.0445 0.0200261958
v -0.14043808 0.0400000028 0.0200913
v -0.140473962 0.0355 0.0200984441
v -0.1407196 0.0400000028 0.0201209821
v -0.140473962 0.0445 0.0200984441
v -0.1407196 0.0355 0.0201209821
v -0.1407196 0.0445 0.0201209821
v -0.140965253 0.0355 0.0200984441
v -0.140965253 0.0445 0.0200984441
v -0.141001135 0.0400000028 0.0200913
v -0.141216531 0.0355 0.0200261958
v -0.141216531 0.0445 0.0200261958
v -0.141216531 0.0400000028 0.0200261958
v -0.141425 0.0400000028 0.0199220311
v -0.141458333 0.0355 0.0199009255
v -0.141458333 0.0445 0.0199009255
v -0.141616076 0.0400000028 0.0197803415
v -0.141674191 0.0355 0.019725576
v -0.141674191 0.0445 0.019725576
v -0.141780108 0.0400000028 0.0196063351
v -0.141849548 0.0355 0.0195097141
v -0.141849548 0.0445 0.0195097141
v -0.141909689 0.0400000028 0.0194083042
v -0.141974822 0.0355 0.01926791
v -0.141974822 0.0445 0.01926791
v -0.142000824 0.0400000028 0.01919637
v -0.142047063 0.0355 0.0190166309
v -0.142047063 0.0445 0.0190166309
v -0.142053187 0.0400000028 0.01898088
v -0.142069608 0.0355 0.0187709816
v -0.142069608 0.0445 0.0187709816
v 0.154219627 0.0355 0.188130453
v 0.15419291 0.0355 0.187839329
v 0.154719621 0.035 0.188130453
v 0.154375389 0.0352500044 0.18754752
v 0.154107288 0.0355 0.187541515
v 0.154684573 0.035 0.187748358
v 0.154572174 0.035 0.187357485
v 0.153958827 0.0355 0.187254936
v 0.154377311 0.035 0.18698132
v 0.154072925 0.0352500044 0.186985716
v 0.153751 0.0355 0.186999112
v 0.153586283 0.0352500044 0.186553121
v 0.154104561 0.035 0.186645538
v 0.153495163 0.0355 0.186791271
v 0.153768778 0.035 0.186372772
v 0.153208584 0.0355 0.1866428
v 0.153392628 0.035 0.186177909
v 0.153005421 0.0352500044 0.186321139
v 0.152910769 0.0355 0.186557174
v 0.15261963 0.0352500044 0.186280474
v 0.153001755 0.035 0.186065525
v 0.15261963 0.0355 0.186530471
v 0.15261963 0.035 0.186030477
v 0.152328491 0.0355 0.186557174
v 0.1522375 0.035 0.186065525
v 0.152233839 0.0352500044 0.186321139
v 0.152030677 0.0355 0.1866428
v 0.151846617 0.035 0.186177909
v 0.15184167 0.0352500044 0.186451986
v 0.1517441 0.0355 0.186791271
v 0.151470482 0.035 0.186372772
v 0.1514749 0.0352500044 0.186677188
v 0.151488245 0.0355 0.186999112
v 0.151134714 0.035 0.186645538
v 0.151166335 0.0352500044 0.186985716
v 0.151280433 0.0355 0.187254936
v 0.150861934 0.035 0.18698132
v 0.150941148 0.0352500044 0.187352479
v 0.151131973 0.0355 0.187541515
v 0.150667071 0.035 0.187357485
v 0.1508103 0.0352500044 0.187744662
v 0.151046336 0.0355 0.187839329
v 0.150554687 0.035 0.187748358
v 0.151019633 0.0355 0.188130453
v 0.150519624 0.035 0.188130453
v 0.161342472 0.0445 0.193700373
v 0.161342472 0.0355 0.193700373
v 0.158415422 0.0400000028 0.179760471
v 0.155638 0.0445 0.169330388
v 0.155638 0.0355 0.169330388
v 0.154600531 0.0400000028 0.165865287
v 0.14989154 0.0400000028 0.152098149
v 0.1472026 0.0445 0.145289183
v 0.1472026 0.0355 0.145289183
v 0.1442925 0.0400000028 0.1385442
v 0.1360657 0.0445 0.122031309
v 0.1360657 0.0355 0.122031309
v 0.137818262 0.0400000028 0.12528868
v 0.130494431 0.0400000028 0.112415388
v 0.122357234 0.0445 0.100004829
v 0.122357234 0.0355 0.100004829
v 0.122357234 0.0400000028 0.100004829
v 0.113452926 0.0400000028 0.08813263
v 0.106304288 0.0445 0.0796236843
v 0.106304288 0.0355 0.0796236843
v 0.103836894 0.0400000028 0.07686798
v 0.09357256 0.0400000028 0.06627235
v 0.0882189348 0.0445 0.0612422079
v 0.0882189348 0.0355 0.0612422079
v 0.0827299356 0.0400000028 0.0563982949
v 0.0684783459 0.0445 0.0451349169
v 0.0684783459 0.0355 0.0451349169
v 0.07138422 0.0400000028 0.04728878
v 0.059614066 0.0400000028 0.03897655
v 0.0475000031 0.0445 0.03148403
v 0.0475000031 0.0355 0.03148403
v 0.0475000031 0.0400000028 0.03148403
v 0.03495426 0.0400000028 0.0247392021
v 0.025188813 0.0445 0.0201416984
v 0.025188813 0.0355 0.0201416984
v 0.0218705833 0.0400000028 0.0187020674
v 0.00136920263 0.0445 0.0110994941
v 0.00136920263 0.0355 0.0110994941
v 0.00136920263 0.0400000028 0.0110994941
v -0.0199721027 0.0400000028 0.00538682658
v -0.0235923 0.0445 0.00462785456
v -0.0235923 0.0355 0.00462785456
v -0.0418866239 0.0400000028 0.001687682
v -0.0492693633 0.0445 0.0009161674
v -0.0492693633 0.0355 0.0009161674
v -0.06408582 0.0400000028 7.443212E-05
v -0.0751991 0.0445 5.7518886E-05
v -0.0751991 0.0355 5.75188824E-05
v -0.08627184 0.0400000028 0.0005640227
v -0.100909442 0.0445 0.00204162113
v -0.100909442 0.0355 0.00204162113
v -0.108150661 0.0400000028 0.00311742746
v -0.125947431 0.0445 0.006756962
v -0.125947431 0.0355 0.00675696135
v -0.129444867 0.0400000028 0.007642773
v -0.149904713 0.0445 0.0140017234
v -0.149904713 0.0355 0.0140017234
v 0.146570325 0.0355 0.1963051
v 0.146570325 0.0445 0.1963051
v 0.14382869 0.0400000028 0.183257446
v 0.141227692 0.0355 0.173495024
v 0.141227692 0.0445 0.173495024
v 0.1402562 0.0400000028 0.170251757
v 0.135846958 0.0400000028 0.157366022
v 0.133329362 0.0355 0.150993
v 0.133329362 0.0445 0.150993
v 0.130604789 0.0400000028 0.1446799
v 0.122902907 0.0355 0.129224434
v 0.122902907 0.0445 0.129224434
v 0.124543592 0.0400000028 0.132273212
v 0.11768733 0.0400000028 0.12022429
v 0.110069953 0.0355 0.108608484
v 0.110069953 0.0445 0.108608484
v 0.110069953 0.0400000028 0.108608484
v 0.101734683 0.0400000028 0.0974965543
v 0.0950430259 0.0355 0.08953248
v 0.0950430259 0.0445 0.08953248
v 0.0927334 0.0400000028 0.08695324
v 0.08312539 0.0400000028 0.07703604
v 0.07811417 0.0355 0.07232796
v 0.07811417 0.0445 0.07232796
v 0.07297624 0.0400000028 0.06779416
v 0.05963628 0.0355 0.0572517663
v 0.05963628 0.0445 0.0572517663
v 0.0623562634 0.0400000028 0.059267763
v 0.051339075 0.0400000028 0.05148752
v 0.0400000028 0.0355 0.04447441
v 0.0400000028 0.0445 0.04447441
v 0.0400000028 0.0400000028 0.04447441
v 0.0282569379 0.0400000028 0.0381610468
v 0.0191163532 0.0355 0.0338575728
v 0.0191163532 0.0445 0.0338575728
v 0.0160104558 0.0400000028 0.0325099975
v -0.00317895226 0.0355 0.02539335
v -0.00317895226 0.0445 0.02539335
v -0.00317895226 0.0400000028 0.02539335
v -0.0231544375 0.0400000028 0.02004537
v -0.026542943 0.0355 0.0193347875
v -0.026542943 0.0445 0.0193347875
v -0.0436664373 0.0400000028 0.0165817253
v -0.0505767 0.0355 0.0158590972
v -0.0505767 0.0445 0.0158590972
v -0.06444498 0.0400000028 0.015070145
v -0.07484712 0.0355 0.0150534045
v -0.07484712 0.0445 0.0150534045
v -0.08521137 0.0400000028 0.0155265061
v -0.09891249 0.0355 0.01690812
v -0.09891249 0.0445 0.01690812
v -0.105690472 0.0400000028 0.0179143269
v -0.122348964 0.0355 0.0213189609
v -0.122348964 0.0445 0.0213189609
v -0.125622734 0.0400000028 0.0221476723
v -0.144774392 0.0355 0.028097149
v -0.144774392 0.0445 0.028097149
v -0.1478096 0.0400000028 0.0212199278
v -0.150203735 0.0445 0.0146420812
v -0.150203735 0.0355 0.0146420812
v -0.145415455 0.0355 0.0277977791
v -0.145415455 0.0445 0.0277977791
v -0.144945413 0.035 0.0276273
v -0.142268047 0.035 0.01978332
v -0.142027751 0.035 0.02007913
v -0.141731933 0.035 0.02031942
v -0.141400576 0.035 0.0204910878
v -0.141056225 0.035 0.0205900967
v -0.1407196 0.035 0.0206209812
v -0.14038296 0.035 0.0205900967
v -0.142439708 0.035 0.0194519553
v -0.14003861 0.035 0.0204910878
v -0.1497337 0.035 0.0144715719
v -0.142538711 0.035 0.0191076118
v -0.1425696 0.035 0.0187709816
v -0.142538711 0.035 0.01843435
v -0.142439708 0.035 0.018090006
v -0.122468911 0.035 0.02083356
v -0.139707267 0.035 0.02031942
v -0.139411449 0.035 0.02007913
v -0.139171153 0.035 0.01978332
v -0.138999492 0.035 0.0194519553
v -0.142268047 0.035 0.0177586433
v -0.138900489 0.035 0.0191076118
v -0.142027751 0.035 0.0174628347
v -0.1388696 0.035 0.0187709816
v -0.141731933 0.035 0.0172225386
v -0.138900489 0.035 0.01843435
v -0.141400576 0.035 0.0170508735
v -0.141056225 0.035 0.0169518664
v -0.1407196 0.035 0.01692098
v -0.125827491 0.035 0.007242361
v -0.14038296 0.035 0.0169518664
v -0.138999492 0.035 0.018090006
v -0.14003861 0.035 0.0170508735
v -0.139707267 0.035 0.0172225386
v -0.139411449 0.035 0.0174628347
v -0.139171153 0.035 0.0177586433
v -0.0989790559 0.035 0.01641257
v -0.100842878 0.035 0.002537171
v -0.0748588443 0.035 0.01455354
v -0.07278937 0.035 0.006104284
v -0.07251099 0.035 0.00664162962
v -0.07212132 0.035 0.007121321
v -0.0729499161 0.035 0.005545889
v -0.07300001 0.035 0.00500000035
v -0.07518736 0.035 0.00055738166
v -0.0729499161 0.035 0.004454111
v -0.07278937 0.035 0.00389571581
v -0.07164164 0.035 0.00751098664
v -0.07251099 0.035 0.00335837062
v -0.07110429 0.035 0.00778936548
v -0.07212132 0.035 0.00287867966
v -0.07054589 0.035 0.007949917
v -0.07164164 0.035 0.0024890136
v -0.07 0.035 0.008
v -0.06945412 0.035 0.007949917
v -0.06889572 0.035 0.00778936548
v -0.0505331233 0.035 0.015361
v -0.07110429 0.035 0.00221063523
v -0.07054589 0.035 0.002050084
v -0.07 0.035 0.002
v -0.0622481927 0.035 0.000628159731
v -0.06945412 0.035 0.002050084
v -0.06889572 0.035 0.00221063523
v -0.06835838 0.035 0.0024890136
v -0.06835838 0.035 0.00751098664
v -0.06787868 0.035 0.00287867966
v -0.06787868 0.035 0.007121321
v -0.06748901 0.035 0.00335837062
v -0.06748901 0.035 0.00664162962
v -0.06721064 0.035 0.00389571581
v -0.06705009 0.035 0.004454111
v -0.067 0.035 0.00500000035
v -0.06705009 0.035 0.005545889
v -0.04931294 0.035 0.00141426513
v -0.06721064 0.035 0.006104284
v -0.0236906558 0.035 0.005118086
v -0.026444586 0.035 0.0188445561
v 0.00121759751 0.035 0.0115759559
v -0.003027347 0.035 0.024916891
v 0.0249864 0.035 0.0205988958
v 0.0193187669 0.035 0.03340038
v 0.0472500026 0.035 0.031917043
v 0.0402500033 0.035 0.0440414026
v 0.06818361 0.035 0.0455388129
v 0.0599310137 0.035 0.05684787
v 0.0878821 0.035 0.0616117343
v 0.07845099 0.035 0.07195843
v 0.09687585 0.035 0.07564233
v 0.100109011 0.035 0.07564233
v 0.0952592641 0.035 0.0784423351
v 0.09687585 0.035 0.08124233
v 0.105928913 0.035 0.079953976
v 0.0954184 0.035 0.08920219
v 0.101725593 0.035 0.0784423351
v 0.100109011 0.035 0.08124233
v 0.121947661 0.035 0.100291625
v 0.110479519 0.035 0.108321689
v 0.135626957 0.035 0.122271091
v 0.123341665 0.035 0.12898466
v 0.146740153 0.035 0.1454793
v 0.1337918 0.035 0.1508029
v 0.155157655 0.035 0.169469208
v 0.141708046 0.035 0.1733562
v 0.15261963 0.035 0.186030477
v 0.1522375 0.035 0.186065525
v 0.151846617 0.035 0.186177909
v 0.153001755 0.035 0.186065525
v 0.151470482 0.035 0.186372772
v 0.153392628 0.035 0.186177909
v 0.151134714 0.035 0.186645538
v 0.153768778 0.035 0.186372772
v 0.154104561 0.035 0.186645538
v 0.154377311 0.035 0.18698132
v 0.150861934 0.035 0.18698132
v 0.160850078 0.035 0.1937872
v 0.150667071 0.035 0.187357485
v 0.150554687 0.035 0.187748358
v 0.150519624 0.035 0.188130453
v 0.147062734 0.035 0.196218282
v 0.150554687 0.035 0.188512579
v 0.150667071 0.035 0.188903451
v 0.154572174 0.035 0.187357485
v 0.154684573 0.035 0.187748358
v 0.154719621 0.035 0.188130453
v 0.154684573 0.035 0.188512579
v 0.154572174 0.035 0.188903451
v 0.150861934 0.035 0.1892796
v 0.154377311 0.035 0.1892796
v 0.151134714 0.035 0.1896154
v 0.154104561 0.035 0.1896154
v 0.151470482 0.035 0.189888164
v 0.153768778 0.035 0.189888164
v 0.151846617 0.035 0.190083012
v 0.1522375 0.035 0.190195411
v 0.15261963 0.035 0.190230459
v 0.153392628 0.035 0.190083012
v 0.153001755 0.035 0.190195411
v 0.154043764 0.0400000028 0.195495039
v 0.147150114 0.0445 0.196710587
v 0.147150114 0.0355 0.196710587
v 0.160937443 0.0355 0.194279522
v 0.160937443 0.0445 0.194279522
v 0.154000089 0.04475001 0.195248887
v 0.160850078 0.045 0.1937872
v 0.147062734 0.045 0.196218282
v 0.147150114 0.0445 0.196710587
v 0.160937443 0.0445 0.194279522
v -0.149904713 0.0445 0.0140017234
v -0.1497337 0.045 0.0144715719
v -0.136298269 0.044750005 0.009806521
v -0.125947431 0.0445 0.006756962
v -0.125827491 0.045 0.007242361
v -0.122372068 0.044750005 0.00616659131
v -0.10811007 0.044750005 0.0033641113
v -0.100909442 0.0445 0.00204162113
v -0.100842878 0.045 0.002537171
v -0.09358794 0.044750005 0.00143807789
v -0.0751991 0.0445 5.7518886E-05
v -0.07518736 0.045 0.00055738166
v -0.07888687 0.044750005 0.000418274169
v -0.0640921146 0.044750005 0.000324352935
v -0.0492693633 0.0445 0.0009161674
v -0.04931294 0.045 0.00141426513
v -0.0492911562 0.044750005 0.00116521621
v -0.0345733128 0.044750005 0.00293855974
v -0.0235923 0.0445 0.00462785456
v -0.0236906558 0.045 0.005118086
v -0.0200253259 0.044750005 0.00563109573
v -0.005732279 0.044750005 0.00921864
v 0.00136920263 0.0445 0.0110994941
v 0.00121759751 0.045 0.0115759559
v 0.00822534 0.044750005 0.0136668608
v 0.025188813 0.0445 0.0201416984
v 0.0249864 0.045 0.0205988958
v 0.0217728484 0.044750005 0.0189321712
v 0.0348426066 0.044750005 0.0249628834
v 0.0475000031 0.0445 0.03148403
v 0.0472500026 0.045 0.031917043
v 0.0473750047 0.044750005 0.03170054
v 0.05947618 0.044750005 0.0391850844
v 0.0684783459 0.0445 0.0451349169
v 0.06818361 0.045 0.0455388129
v 0.07123381 0.044750005 0.04748847
v 0.0878821 0.045 0.0616117343
v 0.0882189348 0.0445 0.0612422079
v 0.0880505145 0.044750005 0.0614269748
v 0.0971367359 0.045 0.0705142543
v 0.103651963 0.044750005 0.07703622
v 0.106304288 0.0445 0.0796236843
v 0.105928913 0.045 0.079953976
v 0.11779771 0.044750005 0.0941469446
v 0.122357234 0.0445 0.100004829
v 0.121947661 0.045 0.100291625
v 0.130281135 0.044750005 0.112545796
v 0.1360657 0.0445 0.122031309
v 0.135626957 0.045 0.122271091
v 0.140938789 0.044750005 0.131983548
v 0.1472026 0.0445 0.145289183
v 0.146740153 0.045 0.1454793
v 0.1496576 0.044750005 0.152186349
v 0.155638 0.0445 0.169330388
v 0.155157655 0.045 0.169469208
v 0.156378478 0.044750005 0.172868311
v 0.161342472 0.0445 0.193700373
v 0.1583425 0.045 0.181615055
v 0.160850078 0.045 0.1937872
v 0.16113995 0.0400000028 0.193989933
v 0.161342472 0.0355 0.193700373
v 0.161342472 0.0445 0.193700373
v 0.160937443 0.0445 0.194279522
v 0.160937443 0.0355 0.194279522
v 0.146570325 0.0445 0.1963051
v 0.147062734 0.045 0.196218282
v 0.144071937 0.044750005 0.183199674
v 0.141227692 0.0445 0.173495024
v 0.141708046 0.045 0.1733562
v 0.14049542 0.044750005 0.1701791
v 0.136081189 0.044750005 0.157278642
v 0.133329362 0.0445 0.150993
v 0.1337918 0.045 0.1508029
v 0.130833089 0.044750005 0.144578025
v 0.122902907 0.0445 0.129224434
v 0.123341665 0.045 0.12898466
v 0.124765 0.044750005 0.132157117
v 0.11790096 0.044750005 0.120094419
v 0.110069953 0.0445 0.108608484
v 0.110479519 0.045 0.108321689
v 0.110274732 0.044750005 0.10846509
v 0.101930134 0.044750005 0.09734067
v 0.0950430259 0.0445 0.08953248
v 0.0954184 0.045 0.08920219
v 0.09291858 0.044750005 0.0867853
v 0.08329964 0.044750005 0.0768567547
v 0.07811417 0.0445 0.07232796
v 0.07845099 0.045 0.07195843
v 0.07313889 0.044750005 0.0676043
v 0.05963628 0.0445 0.0572517663
v 0.0599310137 0.045 0.05684787
v 0.06250679 0.044750005 0.05906816
v 0.051477015 0.044750005 0.051279027
v 0.0400000028 0.0445 0.04447441
v 0.0402500033 0.045 0.0440414026
v 0.0401249975 0.044750005 0.0442579053
v 0.0283685289 0.044750005 0.0379373319
v 0.0191163532 0.0445 0.0338575728
v 0.0193187669 0.045 0.03340038
v 0.0161080547 0.044750005 0.0322798342
v -0.00317895226 0.0445 0.02539335
v -0.003027347 0.045 0.024916891
v -0.00310314936 0.044750005 0.02515512
v -0.02310159 0.044750005 0.0198010188
v -0.026542943 0.0445 0.0193347875
v -0.026444586 0.045 0.0188445561
v -0.04363703 0.044750005 0.0163334589
v -0.0505767 0.0445 0.0158590972
v -0.0505331233 0.045 0.015361
v -0.06443932 0.044750005 0.0148202088
v -0.07484712 0.0445 0.0150534045
v -0.0748588443 0.045 0.01455354
v -0.08522943 0.044750005 0.0152771585
v -0.09891249 0.0445 0.01690812
v -0.0989790559 0.045 0.01641257
v -0.105731927 0.044750005 0.0176677834
v -0.122348964 0.0445 0.0213189609
v -0.122468911 0.045 0.02083356
v -0.125686914 0.044750005 0.0219060555
v -0.144774392 0.0445 0.028097149
v -0.144945413 0.045 0.0276273
v -0.147574559 0.04475001 0.0211346783
v -0.144945413 0.045 0.0276273
v -0.1497337 0.045 0.0144715719
v -0.150203735 0.0445 0.0146420812
v -0.145415455 0.0445 0.0277977791
v 0.146860227 0.0400000028 0.196507856
v 0.147150114 0.0355 0.196710587
v 0.147150114 0.0445 0.196710587
v 0.146570325 0.0445 0.1963051
v 0.146570325 0.0355 0.1963051
v -0.150054231 0.0400000028 0.0143219028
v -0.150203735 0.0355 0.0146420812
v -0.150203735 0.0445 0.0146420812
v -0.149904713 0.0445 0.0140017234
v -0.149904713 0.0355 0.0140017234
v -0.1497337 0.035 0.0144715719
v -0.149904713 0.0355 0.0140017234
v -0.129381627 0.0352500044 0.007884643
v -0.125827491 0.035 0.007242361
v -0.125947431 0.0355 0.00675696135
v -0.10811007 0.0352500044 0.0033641113
v -0.100842878 0.035 0.002537171
v -0.100909442 0.0355 0.00204162113
v -0.08625452 0.0352500044 0.0008134226
v -0.07518736 0.035 0.00055738166
v -0.0751991 0.0355 5.75188824E-05
v -0.0640921146 0.0352500044 0.000324352935
v -0.0622481927 0.035 0.000628159731
v -0.0492693633 0.0355 0.0009161674
v -0.04931294 0.035 0.00141426513
v -0.0419165269 0.0352500044 0.00193588657
v -0.0235923 0.0355 0.00462785456
v -0.0236906558 0.035 0.005118086
v -0.0200253259 0.0352500044 0.00563109573
v 0.00136920263 0.0355 0.0110994941
v 0.00121759751 0.035 0.0115759559
v 0.0012934003 0.0352500044 0.0113377245
v 0.0217728484 0.0352500044 0.0189321712
v 0.025188813 0.0355 0.0201416984
v 0.0249864 0.035 0.0205988958
v 0.0348426066 0.0352500044 0.0249628834
v 0.0475000031 0.0355 0.03148403
v 0.0472500026 0.035 0.031917043
v 0.0473750047 0.0352500044 0.03170054
v 0.05947618 0.0352500044 0.0391850844
v 0.0684783459 0.0355 0.0451349169
v 0.06818361 0.035 0.0455388129
v 0.07123381 0.0352500044 0.04748847
v 0.08256745 0.0352500044 0.0565883
v 0.0882189348 0.0355 0.0612422079
v 0.0878821 0.035 0.0616117343
v 0.09339854 0.0352500044 0.06645185
v 0.106304288 0.0355 0.0796236843
v 0.105928913 0.035 0.079953976
v 0.103651963 0.0352500044 0.07703622
v 0.113257766 0.0352500044 0.08828887
v 0.122357234 0.0355 0.100004829
v 0.121947661 0.035 0.100291625
v 0.122152448 0.0352500044 0.100148231
v 0.130281135 0.0352500044 0.112545796
v 0.1360657 0.0355 0.122031309
v 0.135626957 0.035 0.122271091
v 0.137597173 0.0352500044 0.1254054
v 0.144064546 0.0352500044 0.1386468
v 0.1472026 0.0355 0.145289183
v 0.146740153 0.035 0.1454793
v 0.1496576 0.0352500044 0.152186349
v 0.155638 0.0355 0.169330388
v 0.155157655 0.035 0.169469208
v 0.154361591 0.0352500044 0.165938854
v 0.158172414 0.0352500044 0.179819241
v 0.161342472 0.0355 0.193700373
v 0.160850078 0.035 0.1937872
v -0.144774392 0.0355 0.028097149
v -0.144945413 0.035 0.0276273
v -0.13217555 0.0352500044 0.02370811
v -0.122348964 0.0355 0.0213189609
v -0.122468911 0.035 0.02083356
v -0.119111165 0.0352500044 0.020295186
v -0.105731927 0.0352500044 0.0176677834
v -0.09891249 0.0355 0.01690812
v -0.0989790559 0.035 0.01641257
v -0.09210881 0.0352500044 0.0158624556
v -0.07484712 0.0355 0.0150534045
v -0.0748588443 0.035 0.01455354
v -0.0783179551 0.0352500044 0.0149071254
v -0.06443932 0.0352500044 0.0148202088
v -0.0505767 0.0355 0.0158590972
v -0.0505331233 0.035 0.015361
v -0.0505549125 0.0352500044 0.0156100476
v -0.0367485881 0.0352500044 0.017274471
v -0.026542943 0.0355 0.0193347875
v -0.026444586 0.035 0.0188445561
v -0.02310159 0.0352500044 0.0198010188
v -0.00969374 0.0352500044 0.0231670048
v -0.00317895226 0.0355 0.02539335
v -0.003027347 0.035 0.024916891
v 0.00339948665 0.0352500044 0.0273402371
v 0.0191163532 0.0355 0.0338575728
v 0.0193187669 0.035 0.03340038
v 0.0161080547 0.0352500044 0.0322798342
v 0.0283685289 0.0352500044 0.0379373319
v 0.0400000028 0.0355 0.04447441
v 0.0402500033 0.035 0.0440414026
v 0.0401249975 0.0352500044 0.0442579053
v 0.051477015 0.0352500044 0.051279027
v 0.05963628 0.0355 0.0572517663
v 0.0599310137 0.035 0.05684787
v 0.06250679 0.0352500044 0.05906816
v 0.07811417 0.0355 0.07232796
v 0.07845099 0.035 0.07195843
v 0.07828257 0.0352500044 0.07214319
v 0.09291858 0.0352500044 0.0867853
v 0.0950430259 0.0355 0.08953248
v 0.0954184 0.035 0.08920219
v 0.106189311 0.0352500044 0.102835737
v 0.110069953 0.0355 0.108608484
v 0.110479519 0.035 0.108321689
v 0.11790096 0.0352500044 0.120094419
v 0.122902907 0.0355 0.129224434
v 0.123341665 0.035 0.12898466
v 0.127900273 0.0352500044 0.138327658
v 0.133329362 0.0355 0.150993
v 0.1337918 0.035 0.1508029
v 0.136081189 0.0352500044 0.157278642
v 0.141227692 0.0355 0.173495024
v 0.141708046 0.035 0.1733562
v 0.142388225 0.0352500044 0.176679313
v 0.146570325 0.0355 0.1963051
v 0.147062734 0.035 0.196218282
v -0.145094931 0.0400000028 0.0279474631
v -0.144774392 0.0355 0.028097149
v -0.144774392 0.0445 0.028097149
v -0.145415455 0.0445 0.0277977791
v -0.145415455 0.0355 0.0277977791
v -0.147574559 0.0352499969 0.0211346783
v -0.145415455 0.0355 0.0277977791
v -0.150203735 0.0355 0.0146420812
v -0.1497337 0.035 0.0144715719
v -0.144945413 0.035 0.0276273
v 0.154000089 0.03525 0.195248887
v 0.147062734 0.035 0.196218282
v 0.160850078 0.035 0.1937872
v 0.160937443 0.0355 0.194279522
v 0.147150114 0.0355 0.196710587
v -0.145415455 0.0445 0.0277977791
v -0.145094931 0.0446967781 0.0277939849
v -0.144945413 0.045 0.0276273
v -0.144774392 0.0445 0.028097149
v -0.149904713 0.0445 0.0140017234
v -0.149968714 0.04460897 0.0143209929
v -0.1497337 0.045 0.0144715719
v -0.150203735 0.0445 0.0146420812
v 0.146570325 0.0445 0.1963051
v 0.146860227 0.0446648449 0.1963657
v 0.147062734 0.045 0.196218282
v 0.147150114 0.0445 0.196710587
v 0.160937443 0.0445 0.194279522
v 0.161096275 0.0446083732 0.19391863
v 0.160850078 0.045 0.1937872
v 0.161342472 0.0445 0.193700373
v -0.07518736 0.045 0.00055738166
v -0.07195256 0.045 0.004227001
v -0.07175769 0.045 0.00385085959
v -0.07148492 0.045 0.003515076
v -0.07206494 0.045 0.004617878
v -0.07114914 0.045 0.00324230967
v -0.072100006 0.045 0.00500000035
v -0.0707730055 0.045 0.00304744462
v -0.0703821257 0.045 0.002935059
v -0.07 0.045 0.0029
v -0.07206494 0.045 0.00538212247
v -0.06961788 0.045 0.002935059
v -0.100842878 0.045 0.002537171
v -0.04931294 0.045 0.00141426513
v -0.069227 0.045 0.00304744462
v -0.06885086 0.045 0.00324230967
v -0.06851508 0.045 0.003515076
v -0.06824231 0.045 0.00385085959
v -0.06804745 0.045 0.004227001
v -0.06793506 0.045 0.004617878
v -0.0679 0.045 0.00500000035
v -0.06793506 0.045 0.00538212247
v -0.06804745 0.045 0.005772999
v -0.0505331233 0.045 0.015361
v -0.06824231 0.045 0.006149141
v -0.06851508 0.045 0.00648492435
v -0.06885086 0.045 0.00675769057
v -0.0236906558 0.045 0.005118086
v -0.069227 0.045 0.00695255538
v -0.026444586 0.045 0.0188445561
v -0.0748588443 0.045 0.01455354
v -0.06961788 0.045 0.00706494227
v -0.07 0.045 0.0071
v -0.0703821257 0.045 0.00706494227
v 0.00121759751 0.045 0.0115759559
v -0.003027347 0.045 0.024916891
v 0.0249864 0.045 0.0205988958
v 0.0193187669 0.045 0.03340038
v 0.0472500026 0.045 0.031917043
v 0.0402500033 0.045 0.0440414026
v 0.06818361 0.045 0.0455388129
v 0.0599310137 0.045 0.05684787
v 0.0878821 0.045 0.0616117343
v 0.07845099 0.045 0.07195843
v 0.0971367359 0.045 0.0705142543
v 0.0969721451 0.045 0.07692206
v 0.09669289 0.045 0.07726583
v 0.09731592 0.045 0.0766428
v 0.09770103 0.045 0.07644329
v 0.09649338 0.045 0.0776509345
v 0.0981012061 0.045 0.0763282254
v 0.09637832 0.045 0.07805112
v 0.09849243 0.045 0.076292336
v 0.09634242 0.045 0.0784423351
v 0.09888365 0.045 0.0763282254
v 0.09637832 0.045 0.07883356
v 0.09649338 0.045 0.0792337358
v 0.09669289 0.045 0.07961884
v 0.0954184 0.045 0.08920219
v 0.0969721451 0.045 0.07996261
v 0.09731592 0.045 0.0802418739
v 0.09770103 0.045 0.0804413855
v 0.09928383 0.045 0.07644329
v 0.0996689349 0.045 0.0766428
v 0.100012712 0.045 0.07692206
v 0.0981012061 0.045 0.08055644
v 0.105928913 0.045 0.079953976
v 0.09849243 0.045 0.08059234
v 0.100291975 0.045 0.07726583
v 0.100491479 0.045 0.0776509345
v 0.100606531 0.045 0.07805112
v 0.100642428 0.045 0.0784423351
v 0.100606531 0.045 0.07883356
v 0.09888365 0.045 0.08055644
v 0.100491479 0.045 0.0792337358
v 0.100291975 0.045 0.07961884
v 0.100012712 0.045 0.07996261
v 0.0996689349 0.045 0.0802418739
v 0.09928383 0.045 0.0804413855
v 0.121947661 0.045 0.100291625
v 0.110479519 0.045 0.108321689
v 0.135626957 0.045 0.122271091
v 0.123341665 0.045 0.12898466
v 0.146740153 0.045 0.1454793
v 0.1337918 0.045 0.1508029
v 0.155157655 0.045 0.169469208
v 0.141708046 0.045 0.1733562
v 0.1583425 0.045 0.181615055
v 0.1522375 0.045 0.186065525
v 0.151846617 0.045 0.186177909
v 0.15261963 0.045 0.186030477
v 0.153001755 0.045 0.186065525
v 0.151470482 0.045 0.186372772
v 0.153392628 0.045 0.186177909
v 0.151134714 0.045 0.186645538
v 0.153768778 0.045 0.186372772
v 0.150861934 0.045 0.18698132
v 0.154104561 0.045 0.186645538
v 0.150667071 0.045 0.187357485
v 0.150554687 0.045 0.187748358
v 0.150519624 0.045 0.188130453
v 0.147062734 0.045 0.196218282
v 0.150554687 0.045 0.188512579
v 0.150667071 0.045 0.188903451
v 0.154377311 0.045 0.18698132
v 0.154572174 0.045 0.187357485
v 0.154684573 0.045 0.187748358
v 0.160850078 0.045 0.1937872
v 0.154719621 0.045 0.188130453
v 0.154684573 0.045 0.188512579
v 0.154572174 0.045 0.188903451
v 0.150861934 0.045 0.1892796
v 0.154377311 0.045 0.1892796
v 0.151134714 0.045 0.1896154
v 0.154104561 0.045 0.1896154
v 0.151470482 0.045 0.189888164
v 0.153768778 0.045 0.189888164
v 0.151846617 0.045 0.190083012
v 0.1522375 0.045 0.190195411
v 0.15261963 0.045 0.190230459
v 0.153392628 0.045 0.190083012
v 0.153001755 0.045 0.190195411
v -0.07195256 0.045 0.005772999
v -0.07175769 0.045 0.006149141
v -0.07148492 0.045 0.00648492435
v -0.07114914 0.045 0.00675769057
v -0.0707730055 0.045 0.00695255538
v -0.0989790559 0.045 0.01641257
v -0.125827491 0.045 0.007242361
v -0.122468911 0.045 0.02083356
v -0.139171153 0.045 0.0177586433
v -0.138999492 0.045 0.018090006
v -0.138900489 0.045 0.01843435
v -0.1388696 0.045 0.0187709816
v -0.139411449 0.045 0.0174628347
v -0.138900489 0.045 0.0191076118
v -0.139707267 0.045 0.0172225386
v -0.138999492 0.045 0.0194519553
v -0.14003861 0.045 0.0170508735
v -0.14038296 0.045 0.0169518664
v -0.1407196 0.045 0.01692098
v -0.139171153 0.045 0.01978332
v -0.1497337 0.045 0.0144715719
v -0.141056225 0.045 0.0169518664
v -0.141400576 0.045 0.0170508735
v -0.141731933 0.045 0.0172225386
v -0.142027751 0.045 0.0174628347
v -0.139411449 0.045 0.02007913
v -0.139707267 0.045 0.02031942
v -0.14003861 0.045 0.0204910878
v -0.144945413 0.045 0.0276273
v -0.14038296 0.045 0.0205900967
v -0.1407196 0.045 0.0206209812
v -0.142268047 0.045 0.0177586433
v -0.141056225 0.045 0.0205900967
v -0.142439708 0.045 0.018090006
v -0.141400576 0.045 0.0204910878
v -0.142538711 0.045 0.01843435
v -0.141731933 0.045 0.02031942
v -0.1425696 0.045 0.0187709816
v -0.142538711 0.045 0.0191076118
v -0.142439708 0.045 0.0194519553
v -0.142027751 0.045 0.02007913
v -0.142268047 0.045 0.01978332
v 0.09686998 0.0375 0.07874258
v 0.0952592641 0.0375 0.0784423351
v 0.09684242 0.0375 0.0784423351
v 0.09695828 0.0375 0.07904969
v 0.09686998 0.0375 0.0781421
v 0.09695828 0.0375 0.07783498
v 0.09711138 0.0375 0.07934524
v 0.09711138 0.0375 0.077539444
v 0.09687585 0.0375 0.08124233
v 0.09687585 0.0375 0.07564233
v 0.097325705 0.0375 0.0796090662
v 0.097325705 0.0375 0.07727561
v 0.09758954 0.0375 0.0798233747
v 0.09758954 0.0375 0.0770612955
v 0.0978850648 0.0375 0.0799764842
v 0.0981921852 0.0375 0.08006479
v 0.09849243 0.0375 0.08009233
v 0.0978850648 0.0375 0.0769081861
v 0.0981921852 0.0375 0.07681988
v 0.09849243 0.0375 0.07679234
v 0.100109011 0.0375 0.08124233
v 0.100109011 0.0375 0.07564233
v 0.09879267 0.0375 0.08006479
v 0.09879267 0.0375 0.07681988
v 0.0990997851 0.0375 0.0799764842
v 0.0990997851 0.0375 0.0769081861
v 0.09939533 0.0375 0.0798233747
v 0.09965915 0.0375 0.0796090662
v 0.09987347 0.0375 0.07934524
v 0.101725593 0.0375 0.0784423351
v 0.09939533 0.0375 0.0770612955
v 0.09965915 0.0375 0.07727561
v 0.09987347 0.0375 0.077539444
v 0.100026585 0.0375 0.07904969
v 0.100026585 0.0375 0.07783498
v 0.100114882 0.0375 0.07874258
v 0.100114882 0.0375 0.0781421
v 0.100142427 0.0375 0.0784423351
v 0.0960675552 0.0362500027 0.0798423439
v 0.09687585 0.0375 0.08124233
v 0.09687585 0.035 0.08124233
v 0.0952592641 0.035 0.0784423351
v 0.0952592641 0.0375 0.0784423351
v 0.09687585 0.0375 0.07564233
v 0.0960675552 0.0362500027 0.07704234
v 0.09687585 0.035 0.07564233
v 0.0952592641 0.0375 0.0784423351
v 0.0952592641 0.035 0.0784423351
v 0.100109011 0.0375 0.07564233
v 0.09849243 0.0362500027 0.07564233
v 0.100109011 0.035 0.07564233
v 0.09687585 0.0375 0.07564233
v 0.09687585 0.035 0.07564233
v 0.101725593 0.0375 0.0784423351
v 0.100917295 0.0362500027 0.07704234
v 0.101725593 0.035 0.0784423351
v 0.100109011 0.0375 0.07564233
v 0.100109011 0.035 0.07564233
v 0.100109011 0.0375 0.08124233
v 0.100917295 0.0362500027 0.0798423439
v 0.100109011 0.035 0.08124233
v 0.101725593 0.0375 0.0784423351
v 0.101725593 0.035 0.0784423351
v -0.06970886 0.0375 0.00342671177
v -0.06945412 0.0375 0.002050084
v -0.06889572 0.0375 0.00221063523
v -0.07 0.0375 0.002
v -0.0694110543 0.0375 0.00351233874
v -0.07 0.0375 0.00340000028
v -0.06835838 0.0375 0.0024890136
v -0.07054589 0.0375 0.002050084
v -0.06912447 0.0375 0.00366080762
v -0.07029115 0.0375 0.00342671177
v -0.06787868 0.0375 0.00287867966
v -0.07110429 0.0375 0.00221063523
v -0.06886863 0.0375 0.00386862922
v -0.0705889538 0.0375 0.00351233874
v -0.06748901 0.0375 0.00335837062
v -0.07164164 0.0375 0.0024890136
v -0.06866081 0.0375 0.00412446447
v -0.07087554 0.0375 0.00366080762
v -0.06721064 0.0375 0.00389571581
v -0.07212132 0.0375 0.00287867966
v -0.06851234 0.0375 0.00441104872
v -0.07113138 0.0375 0.00386862922
v -0.06705009 0.0375 0.004454111
v -0.07251099 0.0375 0.00335837062
v -0.06842671 0.0375 0.004708859
v -0.0713392 0.0375 0.00412446447
v -0.07278937 0.0375 0.00389571581
v -0.0714876652 0.0375 0.00441104872
v -0.067 0.0375 0.00500000035
v -0.0684 0.0375 0.00500000035
v -0.06842671 0.0375 0.005291141
v -0.06705009 0.0375 0.005545889
v -0.06851234 0.0375 0.00558895152
v -0.06721064 0.0375 0.006104284
v -0.06866081 0.0375 0.00587553624
v -0.06748901 0.0375 0.00664162962
v -0.06886863 0.0375 0.006131371
v -0.06787868 0.0375 0.007121321
v -0.06912447 0.0375 0.00633919332
v -0.06835838 0.0375 0.00751098664
v -0.0694110543 0.0375 0.006487661
v -0.06889572 0.0375 0.00778936548
v -0.06970886 0.0375 0.0065732887
v -0.06945412 0.0375 0.007949917
v -0.07 0.0375 0.006600001
v -0.07 0.0375 0.008
v -0.07054589 0.0375 0.007949917
v -0.07029115 0.0375 0.0065732887
v -0.07110429 0.0375 0.00778936548
v -0.0705889538 0.0375 0.006487661
v -0.07164164 0.0375 0.00751098664
v -0.07087554 0.0375 0.00633919332
v -0.07212132 0.0375 0.007121321
v -0.07113138 0.0375 0.006131371
v -0.07251099 0.0375 0.00664162962
v -0.0713392 0.0375 0.00587553624
v -0.07278937 0.0375 0.006104284
v -0.0714876652 0.0375 0.00558895152
v -0.0729499161 0.0375 0.005545889
v -0.0715732947 0.0375 0.005291141
v -0.07300001 0.0375 0.00500000035
v -0.0716 0.0375 0.00500000035
v -0.0729499161 0.0375 0.004454111
v -0.0715732947 0.0375 0.004708859
v -0.145415455 0.0355 0.0277977791
v -0.145094931 0.0353032276 0.0277939849
v -0.144774392 0.0355 0.028097149
v -0.144945413 0.035 0.0276273
v -0.1497337 0.035 0.0144715719
v -0.149968714 0.03539104 0.0143209929
v -0.149904713 0.0355 0.0140017234
v -0.150203735 0.0355 0.0146420812
v 0.147062734 0.035 0.196218282
v 0.146860227 0.0353351571 0.1963657
v 0.146570325 0.0355 0.1963051
v 0.147150114 0.0355 0.196710587
v 0.160850078 0.035 0.1937872
v 0.161096275 0.0353916325 0.19391863
v 0.160937443 0.0355 0.194279522
v 0.161342472 0.0355 0.193700373
v 0.09687585 0.0375 0.08124233
v 0.09849243 0.0362500027 0.08124233
v 0.09687585 0.035 0.08124233
v 0.100109011 0.0375 0.08124233
v 0.100109011 0.035 0.08124233
f 1 2 3
f 1 3 4
f 5 1 4
f 4 3 6
f 7 5 4
f 4 6 8
f 9 7 4
f 10 4 8
f 9 4 10
f 10 8 11
f 12 10 11
f 13 9 10
f 13 10 12
f 12 11 14
f 15 13 12
f 12 14 16
f 17 15 12
f 18 12 16
f 17 12 18
f 18 16 19
f 20 18 19
f 21 17 18
f 21 18 20
f 20 19 22
f 23 21 20
f 20 22 24
f 25 23 20
f 26 20 24
f 25 20 26
f 26 24 27
f 28 25 26
f 29 26 27
f 28 26 29
f 29 27 30
f 31 28 29
f 32 29 30
f 31 29 32
f 32 30 33
f 34 31 32
f 35 32 33
f 34 32 35
f 35 33 36
f 37 34 35
f 38 35 36
f 37 35 38
f 38 36 39
f 40 37 38
f 41 38 39
f 40 38 41
f 41 39 42
f 43 40 41
f 44 41 42
f 43 41 44
f 45 43 44
f 44 46 45
f 46 47 45
f 46 48 47
f 45 47 49
f 47 50 49
f 48 51 47
f 47 52 50
f 51 53 47
f 47 53 52
f 51 54 53
f 54 55 53
f 53 56 52
f 53 55 56
f 54 57 55
f 55 58 56
f 57 59 55
f 55 60 58
f 59 61 55
f 55 61 60
f 59 62 61
f 62 63 61
f 61 64 60
f 61 63 64
f 62 65 63
f 63 66 64
f 65 67 63
f 63 68 66
f 67 69 63
f 63 69 68
f 67 70 69
f 69 71 68
f 70 72 69
f 69 72 71
f 70 73 72
f 72 74 71
f 73 75 72
f 72 75 74
f 73 76 75
f 75 77 74
f 76 78 75
f 75 78 77
f 76 79 78
f 78 80 77
f 79 81 78
f 78 81 80
f 79 82 81
f 81 83 80
f 82 84 81
f 81 84 83
f 82 85 84
f 84 86 83
f 85 87 84
f 87 86 84
f 87 88 86
f 89 90 91
f 90 92 91
f 91 92 93
f 90 94 92
f 92 95 93
f 94 96 92
f 92 96 95
f 94 97 96
f 96 98 95
f 97 99 96
f 96 99 98
f 97 100 99
f 99 101 98
f 100 102 99
f 99 102 101
f 100 103 102
f 102 104 101
f 103 105 102
f 102 105 104
f 103 106 105
f 105 107 104
f 106 108 105
f 105 108 107
f 106 109 108
f 109 110 108
f 108 111 107
f 108 110 111
f 109 112 110
f 110 113 111
f 112 114 110
f 110 115 113
f 114 116 110
f 110 116 115
f 114 117 116
f 117 118 116
f 116 119 115
f 116 118 119
f 117 120 118
f 118 121 119
f 120 122 118
f 118 123 121
f 122 124 118
f 118 124 123
f 122 125 124
f 125 126 124
f 124 127 123
f 124 126 127
f 125 128 126
f 126 129 127
f 128 130 126
f 126 131 129
f 130 132 126
f 132 131 126
f 132 133 131
f 134 135 136
f 134 136 137
f 138 134 137
f 137 136 139
f 140 138 137
f 137 139 141
f 142 140 137
f 143 137 141
f 142 137 143
f 143 141 144
f 145 143 144
f 146 142 143
f 146 143 145
f 145 144 147
f 148 146 145
f 145 147 149
f 150 148 145
f 151 145 149
f 150 145 151
f 151 149 152
f 153 151 152
f 154 150 151
f 154 151 153
f 153 152 155
f 156 154 153
f 153 155 157
f 158 156 153
f 159 153 157
f 158 153 159
f 159 157 160
f 161 158 159
f 162 159 160
f 161 159 162
f 162 160 163
f 164 161 162
f 165 162 163
f 164 162 165
f 165 163 166
f 167 164 165
f 168 165 166
f 167 165 168
f 168 166 169
f 170 167 168
f 171 168 169
f 170 168 171
f 171 169 172
f 173 170 171
f 174 171 172
f 173 171 174
f 174 172 175
f 176 173 174
f 177 174 175
f 176 174 177
f 178 176 177
f 177 179 178
f 179 180 178
f 179 181 180
f 178 180 182
f 180 183 182
f 181 184 180
f 180 185 183
f 184 186 180
f 180 186 185
f 184 187 186
f 187 188 186
f 186 189 185
f 186 188 189
f 187 190 188
f 188 191 189
f 190 192 188
f 188 193 191
f 192 194 188
f 188 194 193
f 192 195 194
f 195 196 194
f 194 197 193
f 194 196 197
f 195 198 196
f 196 199 197
f 198 200 196
f 196 201 199
f 200 202 196
f 196 202 201
f 200 203 202
f 202 204 201
f 203 205 202
f 202 205 204
f 203 206 205
f 205 207 204
f 206 208 205
f 205 208 207
f 206 209 208
f 208 210 207
f 209 211 208
f 208 211 210
f 209 212 211
f 211 213 210
f 212 214 211
f 211 214 213
f 212 215 214
f 214 216 213
f 215 217 214
f 214 217 216
f 215 218 217
f 217 219 216
f 218 220 217
f 220 219 217
f 220 221 219
f 222 223 224
f 222 224 225
f 226 222 225
f 225 224 227
f 228 226 225
f 225 227 229
f 230 228 225
f 231 225 229
f 230 225 231
f 231 229 232
f 233 231 232
f 234 230 231
f 234 231 233
f 233 232 235
f 236 234 233
f 233 235 237
f 238 236 233
f 239 233 237
f 238 233 239
f 239 237 240
f 241 239 240
f 242 238 239
f 242 239 241
f 241 240 243
f 244 242 241
f 241 243 245
f 246 244 241
f 247 241 245
f 246 241 247
f 247 245 248
f 249 246 247
f 250 247 248
f 249 247 250
f 250 248 251
f 252 249 250
f 253 250 251
f 252 250 253
f 253 251 254
f 255 252 253
f 256 253 254
f 255 253 256
f 256 254 257
f 258 255 256
f 259 256 257
f 258 256 259
f 259 257 260
f 261 258 259
f 262 259 260
f 261 259 262
f 262 260 263
f 264 261 262
f 265 262 263
f 264 262 265
f 266 264 265
f 265 267 266
f 267 268 266
f 267 269 268
f 266 268 270
f 268 271 270
f 269 272 268
f 268 273 271
f 272 274 268
f 268 274 273
f 272 275 274
f 275 276 274
f 274 277 273
f 274 276 277
f 275 278 276
f 276 279 277
f 278 280 276
f 276 281 279
f 280 282 276
f 276 282 281
f 280 283 282
f 283 284 282
f 282 285 281
f 282 284 285
f 283 286 284
f 284 287 285
f 286 288 284
f 284 289 287
f 288 290 284
f 284 290 289
f 288 291 290
f 290 292 289
f 291 293 290
f 290 293 292
f 291 294 293
f 293 295 292
f 294 296 293
f 293 296 295
f 294 297 296
f 296 298 295
f 297 299 296
f 296 299 298
f 297 300 299
f 299 301 298
f 300 302 299
f 299 302 301
f 300 303 302
f 302 304 301
f 303 305 302
f 302 305 304
f 303 306 305
f 305 307 304
f 306 308 305
f 308 307 305
f 308 309 307
f 310 311 312
f 310 312 313
f 314 310 313
f 313 312 315
f 316 314 313
f 313 315 317
f 318 316 313
f 319 313 317
f 318 313 319
f 319 317 320
f 321 319 320
f 322 318 319
f 322 319 321
f 321 320 323
f 324 322 321
f 321 323 325
f 326 324 321
f 327 321 325
f 326 321 327
f 327 325 328
f 329 327 328
f 330 326 327
f 330 327 329
f 329 328 331
f 332 330 329
f 329 331 333
f 334 332 329
f 335 329 333
f 334 329 335
f 335 333 336
f 337 334 335
f 338 335 336
f 337 335 338
f 338 336 339
f 340 337 338
f 341 338 339
f 340 338 341
f 341 339 342
f 343 340 341
f 344 341 342
f 343 341 344
f 344 342 345
f 346 343 344
f 347 344 345
f 346 344 347
f 347 345 348
f 349 346 347
f 350 347 348
f 349 347 350
f 350 348 351
f 352 349 350
f 353 350 351
f 352 350 353
f 354 352 353
f 353 355 354
f 355 356 354
f 355 357 356
f 354 356 358
f 356 359 358
f 357 360 356
f 356 361 359
f 360 362 356
f 356 362 361
f 360 363 362
f 363 364 362
f 362 365 361
f 362 364 365
f 363 366 364
f 364 367 365
f 366 368 364
f 364 369 367
f 368 370 364
f 364 370 369
f 368 371 370
f 371 372 370
f 370 373 369
f 370 372 373
f 371 374 372
f 372 375 373
f 374 376 372
f 372 377 375
f 376 378 372
f 372 378 377
f 376 379 378
f 378 380 377
f 379 381 378
f 378 381 380
f 379 382 381
f 381 383 380
f 382 384 381
f 381 384 383
f 382 385 384
f 384 386 383
f 385 387 384
f 384 387 386
f 385 388 387
f 387 389 386
f 388 390 387
f 387 390 389
f 388 391 390
f 390 392 389
f 391 393 390
f 390 393 392
f 391 394 393
f 393 395 392
f 394 396 393
f 396 395 393
f 396 397 395
f 398 399 400
f 398 400 401
f 402 398 401
f 401 400 403
f 404 402 401
f 401 403 405
f 406 404 401
f 407 401 405
f 406 401 407
f 407 405 408
f 409 407 408
f 410 406 407
f 410 407 409
f 409 408 411
f 412 410 409
f 409 411 413
f 414 412 409
f 415 409 413
f 414 409 415
f 415 413 416
f 417 415 416
f 418 414 415
f 418 415 417
f 417 416 419
f 420 418 417
f 417 419 421
f 422 420 417
f 423 417 421
f 422 417 423
f 423 421 424
f 425 422 423
f 426 423 424
f 425 423 426
f 426 424 427
f 428 425 426
f 429 426 427
f 428 426 429
f 429 427 430
f 431 428 429
f 432 429 430
f 431 429 432
f 432 430 433
f 434 431 432
f 435 432 433
f 434 432 435
f 435 433 436
f 437 434 435
f 438 435 436
f 437 435 438
f 438 436 439
f 440 437 438
f 441 438 439
f 440 438 441
f 442 440 441
f 441 443 442
f 443 444 442
f 443 445 444
f 442 444 446
f 444 447 446
f 445 448 444
f 444 449 447
f 448 450 444
f 444 450 449
f 448 451 450
f 451 452 450
f 450 453 449
f 450 452 453
f 451 454 452
f 452 455 453
f 454 456 452
f 452 457 455
f 456 458 452
f 452 458 457
f 456 459 458
f 459 460 458
f 458 461 457
f 458 460 461
f 459 462 460
f 460 463 461
f 462 464 460
f 460 465 463
f 464 466 460
f 460 466 465
f 464 467 466
f 466 468 465
f 467 469 466
f 466 469 468
f 467 470 469
f 469 471 468
f 470 472 469
f 469 472 471
f 470 473 472
f 472 474 471
f 473 475 472
f 472 475 474
f 473 476 475
f 475 477 474
f 476 478 475
f 475 478 477
f 476 479 478
f 478 480 477
f 479 481 478
f 478 481 480
f 479 482 481
f 481 483 480
f 482 484 481
f 484 483 481
f 484 485 483
f 486 487 488
f 486 488 489
f 490 486 489
f 489 488 491
f 492 490 489
f 493 489 491
f 492 489 493
f 493 491 494
f 495 492 493
f 496 493 494
f 495 493 496
f 496 494 497
f 498 495 496
f 499 496 497
f 498 496 499
f 499 497 500
f 501 498 499
f 502 499 500
f 501 499 502
f 502 500 503
f 504 501 502
f 505 502 503
f 504 502 505
f 505 503 506
f 507 505 506
f 508 504 505
f 508 505 507
f 507 506 509
f 510 508 507
f 511 507 509
f 512 510 507
f 513 507 511
f 512 507 513
f 514 513 511
f 515 512 513
f 516 513 514
f 516 515 513
f 517 516 514
f 516 517 515
f 517 514 518
f 517 519 515
f 520 517 518
f 517 520 519
f 520 518 521
f 520 522 519
f 523 520 521
f 520 523 522
f 523 521 524
f 523 525 522
f 526 523 524
f 523 526 525
f 526 524 527
f 526 528 525
f 529 526 527
f 526 529 528
f 529 527 530
f 529 531 528
f 532 529 530
f 529 532 531
f 532 530 533
f 531 532 534
f 532 533 534
f 533 535 534
f 535 536 534
f 534 536 537
f 535 538 536
f 536 539 537
f 538 540 536
f 536 540 539
f 538 541 540
f 540 542 539
f 541 543 540
f 540 543 542
f 541 544 543
f 543 545 542
f 544 546 543
f 543 546 545
f 544 547 546
f 546 548 545
f 547 549 546
f 546 549 548
f 547 550 549
f 549 551 548
f 550 552 549
f 549 552 551
f 550 553 552
f 553 554 552
f 552 555 551
f 552 554 555
f 553 556 554
f 554 557 555
f 556 558 554
f 554 559 557
f 558 560 554
f 554 560 559
f 558 561 560
f 560 562 559
f 561 563 560
f 560 563 562
f 561 564 563
f 564 562 563
f 565 564 561
f 564 566 562
f 567 564 565
f 564 567 566
f 568 567 565
f 567 569 566
f 570 567 568
f 567 570 569
f 571 570 568
f 570 572 569
f 573 570 571
f 570 573 572
f 574 573 571
f 573 575 572
f 576 573 574
f 573 576 575
f 577 576 574
f 576 578 575
f 579 576 577
f 576 579 578
f 580 579 577
f 579 581 578
f 579 580 581
f 582 583 584
f 582 584 585
f 586 582 585
f 585 584 587
f 588 586 585
f 589 585 587
f 588 585 589
f 589 587 590
f 591 588 589
f 592 589 590
f 591 589 592
f 592 590 593
f 594 591 592
f 595 592 593
f 594 592 595
f 595 593 596
f 597 594 595
f 598 595 596
f 597 595 598
f 598 596 599
f 600 597 598
f 601 598 599
f 600 598 601
f 601 599 602
f 603 601 602
f 604 600 601
f 604 601 603
f 603 602 605
f 606 604 603
f 607 603 605
f 608 606 603
f 609 603 607
f 608 603 609
f 610 609 607
f 611 608 609
f 612 609 610
f 612 611 609
f 613 612 610
f 612 613 611
f 613 610 614
f 613 615 611
f 616 613 614
f 613 616 615
f 616 614 617
f 616 618 615
f 619 616 617
f 616 619 618
f 619 617 620
f 619 621 618
f 622 619 620
f 619 622 621
f 622 620 623
f 622 624 621
f 625 622 623
f 622 625 624
f 625 623 626
f 625 627 624
f 628 625 626
f 625 628 627
f 628 626 629
f 627 628 630
f 628 629 630
f 629 631 630
f 631 632 630
f 630 632 633
f 631 634 632
f 632 635 633
f 634 636 632
f 632 636 635
f 634 637 636
f 636 638 635
f 637 639 636
f 636 639 638
f 637 640 639
f 639 641 638
f 640 642 639
f 639 642 641
f 640 643 642
f 642 644 641
f 643 645 642
f 642 645 644
f 643 646 645
f 645 647 644
f 646 648 645
f 645 648 647
f 646 649 648
f 649 650 648
f 648 651 647
f 648 650 651
f 649 652 650
f 650 653 651
f 652 654 650
f 650 655 653
f 654 656 650
f 650 656 655
f 654 657 656
f 656 658 655
f 657 659 656
f 656 659 658
f 657 660 659
f 660 658 659
f 661 660 657
f 660 662 658
f 663 660 661
f 660 663 662
f 664 663 661
f 663 665 662
f 666 663 664
f 663 666 665
f 667 666 664
f 666 668 665
f 669 666 667
f 666 669 668
f 670 669 667
f 669 671 668
f 672 669 670
f 669 672 671
f 673 672 670
f 672 674 671
f 675 672 673
f 672 675 674
f 676 675 673
f 675 677 674
f 675 676 677
f 678 679 680
f 678 680 681
f 682 678 681
f 681 680 683
f 684 682 681
f 685 681 683
f 684 681 685
f 685 683 686
f 687 684 685
f 688 685 686
f 687 685 688
f 688 686 689
f 690 687 688
f 691 688 689
f 690 688 691
f 691 689 692
f 693 690 691
f 694 691 692
f 693 691 694
f 694 692 695
f 696 693 694
f 697 694 695
f 696 694 697
f 697 695 698
f 699 697 698
f 700 696 697
f 700 697 699
f 699 698 701
f 702 700 699
f 703 699 701
f 704 702 699
f 705 699 703
f 704 699 705
f 706 705 703
f 707 704 705
f 708 705 706
f 708 707 705
f 709 708 706
f 708 709 707
f 709 706 710
f 709 711 707
f 712 709 710
f 709 712 711
f 712 710 713
f 712 714 711
f 715 712 713
f 712 715 714
f 715 713 716
f 715 717 714
f 718 715 716
f 715 718 717
f 718 716 719
f 718 720 717
f 721 718 719
f 718 721 720
f 721 719 722
f 721 723 720
f 724 721 722
f 721 724 723
f 724 722 725
f 723 724 726
f 724 725 726
f 725 727 726
f 727 728 726
f 726 728 729
f 727 730 728
f 728 731 729
f 730 732 728
f 728 732 731
f 730 733 732
f 732 734 731
f 733 735 732
f 732 735 734
f 733 736 735
f 735 737 734
f 736 738 735
f 735 738 737
f 736 739 738
f 738 740 737
f 739 741 738
f 738 741 740
f 739 742 741
f 741 743 740
f 742 744 741
f 741 744 743
f 742 745 744
f 745 746 744
f 744 747 743
f 744 746 747
f 745 748 746
f 746 749 747
f 748 750 746
f 746 751 749
f 750 752 746
f 746 752 751
f 750 753 752
f 752 754 751
f 753 755 752
f 752 755 754
f 753 756 755
f 756 754 755
f 757 756 753
f 756 758 754
f 759 756 757
f 756 759 758
f 760 759 757
f 759 761 758
f 762 759 760
f 759 762 761
f 763 762 760
f 762 764 761
f 765 762 763
f 762 765 764
f 766 765 763
f 765 767 764
f 768 765 766
f 765 768 767
f 769 768 766
f 768 770 767
f 771 768 769
f 768 771 770
f 772 771 769
f 771 773 770
f 771 772 773
f 774 775 776
f 774 776 777
f 778 774 777
f 777 776 779
f 780 778 777
f 781 777 779
f 780 777 781
f 781 779 782
f 783 780 781
f 784 781 782
f 783 781 784
f 784 782 785
f 786 783 784
f 787 784 785
f 786 784 787
f 787 785 788
f 789 786 787
f 790 787 788
f 789 787 790
f 790 788 791
f 792 789 790
f 793 790 791
f 792 790 793
f 793 791 794
f 795 793 794
f 796 792 793
f 796 793 795
f 795 794 797
f 798 796 795
f 799 795 797
f 800 798 795
f 801 795 799
f 800 795 801
f 802 801 799
f 803 800 801
f 804 801 802
f 804 803 801
f 805 804 802
f 804 805 803
f 805 802 806
f 805 807 803
f 808 805 806
f 805 808 807
f 808 806 809
f 808 810 807
f 811 808 809
f 808 811 810
f 811 809 812
f 811 813 810
f 814 811 812
f 811 814 813
f 814 812 815
f 814 816 813
f 817 814 815
f 814 817 816
f 817 815 818
f 817 819 816
f 820 817 818
f 817 820 819
f 820 818 821
f 819 820 822
f 820 821 822
f 821 823 822
f 823 824 822
f 822 824 825
f 823 826 824
f 824 827 825
f 826 828 824
f 824 828 827
f 826 829 828
f 828 830 827
f 829 831 828
f 828 831 830
f 829 832 831
f 831 833 830
f 832 834 831
f 831 834 833
f 832 835 834
f 834 836 833
f 835 837 834
f 834 837 836
f 835 838 837
f 837 839 836
f 838 840 837
f 837 840 839
f 838 841 840
f 841 842 840
f 840 843 839
f 840 842 843
f 841 844 842
f 842 845 843
f 844 846 842
f 842 847 845
f 846 848 842
f 842 848 847
f 846 849 848
f 848 850 847
f 849 851 848
f 848 851 850
f 849 852 851
f 852 850 851
f 853 852 849
f 852 854 850
f 855 852 853
f 852 855 854
f 856 855 853
f 855 857 854
f 858 855 856
f 855 858 857
f 859 858 856
f 858 860 857
f 861 858 859
f 858 861 860
f 862 861 859
f 861 863 860
f 864 861 862
f 861 864 863
f 865 864 862
f 864 866 863
f 867 864 865
f 864 867 866
f 868 867 865
f 867 869 866
f 867 868 869
f 870 871 872
f 870 872 873
f 874 870 873
f 873 872 875
f 876 874 873
f 877 873 875
f 876 873 877
f 877 875 878
f 879 876 877
f 880 877 878
f 879 877 880
f 880 878 881
f 882 879 880
f 883 880 881
f 882 880 883
f 883 881 884
f 885 882 883
f 886 883 884
f 885 883 886
f 886 884 887
f 888 885 886
f 889 886 887
f 888 886 889
f 889 887 890
f 891 889 890
f 892 888 889
f 892 889 891
f 891 890 893
f 894 892 891
f 895 891 893
f 896 894 891
f 897 891 895
f 896 891 897
f 898 897 895
f 899 896 897
f 900 897 898
f 900 899 897
f 901 900 898
f 900 901 899
f 901 898 902
f 901 903 899
f 904 901 902
f 901 904 903
f 904 902 905
f 904 906 903
f 907 904 905
f 904 907 906
f 907 905 908
f 907 909 906
f 910 907 908
f 907 910 909
f 910 908 911
f 910 912 909
f 913 910 911
f 910 913 912
f 913 911 914
f 913 915 912
f 916 913 914
f 913 916 915
f 916 914 917
f 915 916 918
f 916 917 918
f 917 919 918
f 919 920 918
f 918 920 921
f 919 922 920
f 920 923 921
f 922 924 920
f 920 924 923
f 922 925 924
f 924 926 923
f 925 927 924
f 924 927 926
f 925 928 927
f 927 929 926
f 928 930 927
f 927 930 929
f 928 931 930
f 930 932 929
f 931 933 930
f 930 933 932
f 931 934 933
f 933 935 932
f 934 936 933
f 933 936 935
f 934 937 936
f 937 938 936
f 936 939 935
f 936 938 939
f 937 940 938
f 938 941 939
f 940 942 938
f 938 943 941
f 942 944 938
f 938 944 943
f 942 945 944
f 944 946 943
f 945 947 944
f 944 947 946
f 945 948 947
f 948 946 947
f 949 948 945
f 948 950 946
f 951 948 949
f 948 951 950
f 952 951 949
f 951 953 950
f 954 951 952
f 951 954 953
f 955 954 952
f 954 956 953
f 957 954 955
f 954 957 956
f 958 957 955
f 957 959 956
f 960 957 958
f 957 960 959
f 961 960 958
f 960 962 959
f 963 960 961
f 960 963 962
f 964 963 961
f 963 965 962
f 963 964 965
f 966 967 968
f 967 969 968
f 967 970 969
f 968 969 971
f 969 972 971
f 970 973 969
f 969 974 972
f 973 975 969
f 969 975 974
f 973 976 975
f 976 977 975
f 975 978 974
f 975 977 978
f 976 979 977
f 977 980 978
f 979 981 977
f 977 982 980
f 981 983 977
f 977 983 982
f 981 984 983
f 984 985 983
f 983 986 982
f 983 985 986
f 984 987 985
f 985 988 986
f 987 989 985
f 985 990 988
f 989 991 985
f 985 991 990
f 989 992 991
f 991 993 990
f 992 994 991
f 991 994 993
f 992 995 994
f 994 996 993
f 995 997 994
f 994 997 996
f 995 998 997
f 997 999 996
f 998 1000 997
f 997 1000 999
f 998 1001 1000
f 1000 1002 999
f 1001 1003 1000
f 1000 1003 1002
f 1001 1004 1003
f 1003 1005 1002
f 1004 1006 1003
f 1003 1006 1005
f 1004 1007 1006
f 1006 1008 1005
f 1007 1009 1006
f 1009 1008 1006
f 1009 1010 1008
f 1011 1012 1013
f 1014 1011 1013
f 1012 1015 1013
f 1016 1014 1013
f 1016 1013 1015
f 1016 1017 1014
f 1017 1016 1015
f 1017 1018 1014
f 1017 1015 1019
f 1017 1020 1018
f 1020 1017 1019
f 1020 1021 1018
f 1019 1022 1020
f 1020 1023 1021
f 1022 1023 1020
f 1024 1021 1023
f 1022 1024 1023
f 1024 1025 1021
f 1024 1022 1026
f 1025 1024 1027
f 1024 1026 1027
f 1025 1027 1028
f 1028 1027 1026
f 1029 1025 1028
f 1030 1028 1026
f 1031 1029 1028
f 1031 1028 1030
f 1031 1032 1029
f 1032 1031 1030
f 1032 1033 1029
f 1032 1030 1034
f 1032 1035 1033
f 1035 1032 1034
f 1035 1036 1033
f 1034 1037 1035
f 1035 1038 1036
f 1037 1038 1035
f 1039 1036 1038
f 1037 1039 1038
f 1039 1040 1036
f 1039 1037 1041
f 1040 1039 1042
f 1039 1041 1042
f 1040 1042 1043
f 1043 1042 1041
f 1044 1040 1043
f 1045 1043 1041
f 1044 1043 1046
f 1046 1043 1045
f 1047 1044 1046
f 1048 1046 1045
f 1049 1047 1046
f 1049 1046 1048
f 1049 1050 1047
f 1050 1049 1048
f 1050 1051 1047
f 1050 1048 1052
f 1050 1053 1051
f 1053 1050 1052
f 1053 1054 1051
f 1053 1052 1055
f 1053 1056 1054
f 1056 1053 1055
f 1056 1057 1054
f 1056 1055 1058
f 1056 1059 1057
f 1059 1056 1058
f 1059 1060 1057
f 1059 1058 1061
f 1059 1062 1060
f 1062 1059 1061
f 1062 1063 1060
f 1062 1061 1064
f 1062 1065 1063
f 1065 1062 1064
f 1065 1066 1063
f 1065 1064 1067
f 1066 1065 1067
f 1068 1069 1070
f 1071 1068 1070
f 1069 1072 1070
f 1073 1071 1070
f 1073 1070 1072
f 1073 1074 1071
f 1074 1073 1072
f 1074 1075 1071
f 1074 1072 1076
f 1074 1077 1075
f 1077 1074 1076
f 1077 1078 1075
f 1076 1079 1077
f 1077 1080 1078
f 1079 1080 1077
f 1081 1078 1080
f 1079 1081 1080
f 1081 1082 1078
f 1081 1079 1083
f 1082 1081 1084
f 1081 1083 1084
f 1082 1084 1085
f 1085 1084 1083
f 1086 1082 1085
f 1087 1085 1083
f 1088 1086 1085
f 1088 1085 1087
f 1088 1089 1086
f 1089 1088 1087
f 1089 1090 1086
f 1089 1087 1091
f 1089 1092 1090
f 1092 1089 1091
f 1092 1093 1090
f 1091 1094 1092
f 1092 1095 1093
f 1094 1095 1092
f 1096 1093 1095
f 1094 1096 1095
f 1096 1097 1093
f 1096 1094 1098
f 1097 1096 1099
f 1096 1098 1099
f 1097 1099 1100
f 1100 1099 1098
f 1101 1097 1100
f 1102 1100 1098
f 1101 1100 1103
f 1103 1100 1102
f 1104 1101 1103
f 1105 1103 1102
f 1106 1104 1103
f 1106 1103 1105
f 1106 1107 1104
f 1107 1106 1105
f 1107 1108 1104
f 1107 1105 1109
f 1107 1110 1108
f 1110 1107 1109
f 1110 1111 1108
f 1110 1109 1112
f 1110 1113 1111
f 1113 1110 1112
f 1113 1114 1111
f 1113 1112 1115
f 1113 1116 1114
f 1116 1113 1115
f 1116 1117 1114
f 1116 1115 1118
f 1116 1119 1117
f 1119 1116 1118
f 1119 1120 1117
f 1119 1118 1121
f 1119 1122 1120
f 1122 1119 1121
f 1120 1122 1123
f 1122 1121 1124
f 1122 1124 1123
f 1125 1126 1127
f 1125 1127 1128
f 1126 1125 1129
f 1129 1125 1128
f 1130 1131 1132
f 1133 1130 1132
f 1130 1133 1134
f 1130 1134 1135
f 1136 1130 1135
f 1130 1136 1137
f 1130 1138 1131
f 1130 1137 1139
f 1130 1140 1138
f 1140 1141 1138
f 1140 1142 1141
f 1142 1140 1143
f 1140 1144 1143
f 1145 1130 1139
f 1146 1145 1139
f 1145 1146 1147
f 1145 1147 1148
f 1149 1145 1148
f 1140 1150 1144
f 1145 1149 1151
f 1150 1140 1152
f 1145 1151 1153
f 1140 1154 1152
f 1155 1145 1153
f 1140 1156 1154
f 1156 1140 1157
f 1140 1158 1157
f 1140 1159 1158
f 1159 1160 1158
f 1161 1145 1155
f 1159 1162 1160
f 1162 1159 1163
f 1159 1164 1163
f 1145 1161 1165
f 1159 1165 1164
f 1145 1165 1159
f 1166 1145 1159
f 1159 1167 1166
f 1167 1168 1166
f 1167 1169 1168
f 1169 1170 1168
f 1170 1171 1168
f 1172 1169 1167
f 1173 1172 1167
f 1173 1167 1174
f 1175 1173 1174
f 1176 1175 1174
f 1171 1177 1168
f 1178 1176 1174
f 1177 1179 1168
f 1180 1178 1174
f 1179 1181 1168
f 1182 1180 1174
f 1181 1183 1168
f 1183 1184 1168
f 1184 1185 1168
f 1185 1186 1168
f 1187 1182 1174
f 1188 1187 1174
f 1189 1188 1174
f 1189 1174 1190
f 1191 1189 1190
f 1192 1191 1190
f 1193 1192 1190
f 1185 1194 1186
f 1195 1193 1190
f 1194 1196 1186
f 1197 1195 1190
f 1196 1198 1186
f 1199 1197 1190
f 1200 1199 1190
f 1201 1200 1190
f 1202 1201 1190
f 1202 1190 1203
f 1204 1202 1203
f 1198 1204 1186
f 1204 1203 1186
f 1203 1205 1186
f 1205 1206 1186
f 1205 1207 1206
f 1207 1208 1206
f 1207 1209 1208
f 1209 1210 1208
f 1209 1211 1210
f 1211 1212 1210
f 1211 1213 1212
f 1213 1214 1212
f 1213 1215 1214
f 1215 1216 1214
f 1215 1217 1216
f 1218 1217 1215
f 1217 1219 1216
f 1219 1220 1216
f 1218 1215 1221
f 1220 1222 1216
f 1223 1218 1221
f 1224 1223 1221
f 1220 1224 1222
f 1224 1221 1222
f 1221 1225 1222
f 1225 1226 1222
f 1225 1227 1226
f 1227 1228 1226
f 1227 1229 1228
f 1229 1230 1228
f 1229 1231 1230
f 1231 1232 1230
f 1231 1233 1232
f 1233 1234 1232
f 1234 1235 1232
f 1236 1233 1231
f 1235 1237 1232
f 1238 1236 1231
f 1237 1239 1232
f 1240 1238 1231
f 1241 1240 1231
f 1242 1241 1231
f 1239 1243 1232
f 1242 1231 1244
f 1243 1245 1232
f 1245 1246 1232
f 1246 1247 1232
f 1247 1248 1232
f 1247 1249 1248
f 1249 1250 1248
f 1251 1242 1244
f 1252 1251 1244
f 1253 1252 1244
f 1254 1253 1244
f 1255 1254 1244
f 1250 1256 1248
f 1257 1255 1244
f 1256 1258 1248
f 1259 1257 1244
f 1258 1260 1248
f 1261 1259 1244
f 1260 1262 1248
f 1262 1263 1248
f 1263 1264 1248
f 1264 1244 1248
f 1265 1261 1244
f 1264 1266 1244
f 1266 1265 1244
f 1267 1268 1269
f 1267 1269 1270
f 1268 1267 1271
f 1271 1267 1270
f 1272 1273 1274
f 1272 1274 1275
f 1273 1272 1276
f 1276 1272 1275
f 1277 1278 1279
f 1280 1277 1279
f 1278 1281 1279
f 1282 1280 1279
f 1282 1279 1281
f 1282 1283 1280
f 1283 1282 1281
f 1283 1284 1280
f 1283 1281 1285
f 1283 1286 1284
f 1286 1283 1285
f 1286 1287 1284
f 1285 1288 1286
f 1286 1289 1287
f 1288 1289 1286
f 1290 1287 1289
f 1288 1290 1289
f 1290 1291 1287
f 1290 1288 1292
f 1291 1290 1293
f 1290 1292 1293
f 1291 1293 1294
f 1294 1293 1292
f 1295 1291 1294
f 1296 1294 1292
f 1297 1295 1294
f 1297 1294 1296
f 1297 1298 1295
f 1298 1297 1296
f 1298 1299 1295
f 1298 1296 1300
f 1298 1301 1299
f 1301 1298 1300
f 1301 1302 1299
f 1301 1300 1303
f 1302 1301 1304
f 1301 1303 1304
f 1302 1304 1305
f 1305 1304 1303
f 1306 1302 1305
f 1307 1305 1303
f 1308 1306 1305
f 1308 1305 1307
f 1308 1309 1306
f 1309 1308 1307
f 1309 1310 1306
f 1309 1307 1311
f 1309 1312 1310
f 1312 1309 1311
f 1312 1311 1313
f 1312 1314 1310
f 1312 1313 1315
f 1314 1312 1315
f 1316 1315 1313
f 1314 1315 1317
f 1317 1315 1316
f 1318 1314 1317
f 1319 1317 1316
f 1318 1317 1320
f 1320 1317 1319
f 1321 1318 1320
f 1322 1320 1319
f 1321 1320 1323
f 1323 1320 1322
f 1324 1321 1323
f 1325 1323 1322
f 1324 1323 1326
f 1326 1323 1325
f 1327 1324 1326
f 1328 1326 1325
f 1327 1326 1329
f 1329 1326 1328
f 1330 1327 1329
f 1331 1329 1328
f 1332 1330 1329
f 1332 1329 1331
f 1330 1332 1333
f 1334 1332 1331
f 1332 1335 1333
f 1332 1334 1335
f 1336 1337 1338
f 1336 1338 1339
f 1337 1336 1340
f 1340 1336 1339
f 1341 1342 1343
f 1344 1341 1343
f 1342 1345 1343
f 1346 1344 1343
f 1346 1343 1345
f 1346 1347 1344
f 1347 1346 1345
f 1347 1348 1344
f 1347 1345 1349
f 1347 1350 1348
f 1350 1347 1349
f 1350 1351 1348
f 1349 1352 1350
f 1350 1353 1351
f 1352 1353 1350
f 1354 1351 1353
f 1352 1354 1353
f 1354 1355 1351
f 1354 1352 1356
f 1355 1354 1357
f 1354 1356 1357
f 1355 1357 1358
f 1358 1357 1356
f 1359 1355 1358
f 1360 1358 1356
f 1361 1359 1358
f 1361 1358 1360
f 1361 1362 1359
f 1362 1361 1360
f 1362 1363 1359
f 1362 1360 1364
f 1362 1365 1363
f 1365 1362 1364
f 1365 1366 1363
f 1364 1367 1365
f 1365 1368 1366
f 1367 1368 1365
f 1369 1366 1368
f 1367 1369 1368
f 1369 1370 1366
f 1369 1367 1371
f 1370 1369 1372
f 1369 1371 1372
f 1370 1372 1373
f 1373 1372 1371
f 1374 1370 1373
f 1375 1373 1371
f 1374 1373 1376
f 1376 1373 1375
f 1377 1374 1376
f 1378 1376 1375
f 1379 1377 1376
f 1379 1376 1378
f 1379 1380 1377
f 1380 1379 1378
f 1380 1381 1377
f 1380 1378 1382
f 1380 1383 1381
f 1383 1380 1382
f 1383 1384 1381
f 1383 1382 1385
f 1383 1386 1384
f 1386 1383 1385
f 1386 1387 1384
f 1386 1385 1388
f 1386 1389 1387
f 1389 1386 1388
f 1389 1390 1387
f 1389 1388 1391
f 1389 1392 1390
f 1392 1389 1391
f 1392 1393 1390
f 1392 1391 1394
f 1392 1395 1393
f 1395 1392 1394
f 1393 1395 1396
f 1395 1394 1397
f 1395 1397 1396
f 1398 1399 1400
f 1398 1400 1401
f 1399 1398 1402
f 1402 1398 1401
f 1403 1404 1405
f 1403 1405 1406
f 1404 1403 1407
f 1407 1403 1406
f 1408 1409 1410
f 1408 1410 1411
f 1409 1408 1412
f 1412 1408 1411
f 1413 1414 1415
f 1416 1413 1415
f 1414 1417 1415
f 1416 1415 1418
f 1417 1418 1415
f 1419 1416 1418
f 1417 1420 1418
f 1419 1418 1421
f 1420 1421 1418
f 1422 1419 1421
f 1420 1423 1421
f 1422 1421 1424
f 1423 1424 1421
f 1425 1422 1424
f 1423 1426 1424
f 1427 1425 1424
f 1426 1428 1424
f 1427 1424 1428
f 1426 1429 1428
f 1430 1427 1428
f 1429 1431 1428
f 1430 1428 1431
f 1429 1432 1431
f 1433 1430 1431
f 1434 1431 1432
f 1434 1433 1431
f 1435 1434 1432
f 1434 1435 1433
f 1435 1432 1436
f 1435 1437 1433
f 1438 1435 1436
f 1435 1438 1437
f 1438 1436 1439
f 1438 1440 1437
f 1438 1439 1441
f 1440 1438 1441
f 1442 1441 1439
f 1440 1441 1442
f 1443 1442 1439
f 1444 1440 1442
f 1445 1442 1443
f 1445 1444 1442
f 1446 1445 1443
f 1445 1446 1444
f 1446 1443 1447
f 1446 1448 1444
f 1449 1446 1447
f 1446 1449 1448
f 1447 1450 1449
f 1449 1451 1448
f 1450 1452 1449
f 1449 1452 1451
f 1450 1453 1452
f 1453 1451 1452
f 1453 1450 1454
f 1453 1455 1451
f 1453 1454 1456
f 1455 1453 1456
f 1457 1456 1454
f 1455 1456 1457
f 1458 1457 1454
f 1459 1455 1457
f 1460 1457 1458
f 1460 1459 1457
f 1461 1460 1458
f 1460 1461 1459
f 1461 1458 1462
f 1461 1463 1459
f 1464 1461 1462
f 1461 1464 1463
f 1462 1465 1464
f 1464 1466 1463
f 1465 1467 1464
f 1464 1467 1466
f 1465 1468 1467
f 1468 1466 1467
f 1468 1465 1469
f 1466 1468 1470
f 1468 1469 1470
f 1471 1472 1473
f 1474 1471 1473
f 1472 1475 1473
f 1476 1474 1473
f 1476 1473 1475
f 1476 1477 1474
f 1477 1476 1475
f 1477 1478 1474
f 1477 1475 1479
f 1477 1480 1478
f 1480 1477 1479
f 1480 1481 1478
f 1479 1482 1480
f 1480 1483 1481
f 1482 1483 1480
f 1484 1481 1483
f 1482 1484 1483
f 1484 1485 1481
f 1484 1482 1486
f 1485 1484 1487
f 1484 1486 1487
f 1485 1487 1488
f 1488 1487 1486
f 1489 1485 1488
f 1490 1488 1486
f 1491 1489 1488
f 1491 1488 1490
f 1491 1492 1489
f 1492 1491 1490
f 1492 1493 1489
f 1492 1490 1494
f 1492 1495 1493
f 1495 1492 1494
f 1495 1496 1493
f 1494 1497 1495
f 1495 1498 1496
f 1497 1498 1495
f 1499 1496 1498
f 1497 1499 1498
f 1499 1500 1496
f 1499 1497 1501
f 1500 1499 1502
f 1499 1501 1502
f 1500 1502 1503
f 1503 1502 1501
f 1504 1500 1503
f 1505 1503 1501
f 1504 1503 1506
f 1506 1503 1505
f 1507 1504 1506
f 1508 1506 1505
f 1509 1507 1506
f 1509 1506 1508
f 1509 1510 1507
f 1510 1509 1508
f 1510 1511 1507
f 1510 1508 1512
f 1510 1513 1511
f 1513 1510 1512
f 1513 1514 1511
f 1513 1512 1515
f 1513 1516 1514
f 1516 1513 1515
f 1516 1517 1514
f 1516 1515 1518
f 1516 1519 1517
f 1519 1516 1518
f 1519 1520 1517
f 1519 1518 1521
f 1519 1522 1520
f 1522 1519 1521
f 1522 1523 1520
f 1522 1521 1524
f 1522 1525 1523
f 1525 1522 1524
f 1523 1525 1526
f 1525 1524 1527
f 1525 1527 1526
f 1528 1529 1530
f 1528 1530 1531
f 1529 1528 1532
f 1532 1528 1531
f 1533 1534 1535
f 1533 1535 1536
f 1534 1533 1537
f 1537 1533 1536
f 1538 1539 1540
f 1538 1540 1541
f 1539 1538 1542
f 1542 1538 1541
f 1543 1544 1545
f 1544 1543 1546
f 1544 1546 1545
f 1547 1548 1549
f 1548 1547 1550
f 1548 1550 1549
f 1551 1552 1553
f 1552 1551 1554
f 1552 1554 1553
f 1555 1556 1557
f 1556 1555 1558
f 1556 1558 1557
f 1559 1560 1561
f 1562 1559 1561
f 1559 1563 1560
f 1559 1562 1564
f 1563 1559 1565
f 1559 1564 1566
f 1567 1559 1566
f 1559 1567 1568
f 1559 1569 1565
f 1559 1568 1570
f 1559 1571 1569
f 1572 1559 1570
f 1572 1570 1573
f 1574 1572 1573
f 1572 1574 1575
f 1572 1575 1576
f 1577 1572 1576
f 1572 1577 1578
f 1572 1578 1579
f 1580 1572 1579
f 1572 1580 1581
f 1572 1581 1582
f 1582 1581 1583
f 1584 1582 1583
f 1582 1584 1585
f 1586 1572 1582
f 1582 1585 1587
f 1582 1588 1586
f 1589 1582 1587
f 1589 1587 1590
f 1589 1590 1591
f 1592 1589 1591
f 1588 1593 1586
f 1588 1594 1593
f 1594 1595 1593
f 1594 1596 1595
f 1596 1597 1595
f 1596 1598 1597
f 1598 1599 1597
f 1598 1600 1599
f 1600 1601 1599
f 1600 1602 1601
f 1602 1603 1601
f 1602 1604 1603
f 1605 1604 1602
f 1604 1606 1603
f 1606 1607 1603
f 1608 1605 1602
f 1607 1609 1603
f 1610 1608 1602
f 1609 1611 1603
f 1612 1610 1602
f 1611 1613 1603
f 1614 1612 1602
f 1615 1614 1602
f 1616 1615 1602
f 1616 1602 1617
f 1618 1616 1617
f 1619 1618 1617
f 1620 1619 1617
f 1613 1621 1603
f 1621 1622 1603
f 1622 1623 1603
f 1624 1620 1617
f 1623 1625 1603
f 1626 1624 1617
f 1623 1627 1625
f 1627 1628 1625
f 1628 1629 1625
f 1629 1630 1625
f 1630 1631 1625
f 1632 1626 1617
f 1631 1633 1625
f 1633 1634 1625
f 1634 1635 1625
f 1635 1636 1625
f 1636 1637 1625
f 1637 1632 1617
f 1637 1617 1625
f 1625 1617 1638
f 1617 1639 1638
f 1639 1640 1638
f 1639 1641 1640
f 1641 1642 1640
f 1641 1643 1642
f 1643 1644 1642
f 1643 1645 1644
f 1645 1646 1644
f 1645 1647 1646
f 1648 1647 1645
f 1647 1649 1646
f 1649 1650 1646
f 1651 1648 1645
f 1650 1652 1646
f 1653 1651 1645
f 1652 1654 1646
f 1655 1653 1645
f 1654 1656 1646
f 1657 1655 1645
f 1658 1657 1645
f 1659 1658 1645
f 1659 1645 1660
f 1661 1659 1660
f 1662 1661 1660
f 1656 1663 1646
f 1663 1664 1646
f 1664 1665 1646
f 1665 1666 1646
f 1665 1667 1666
f 1667 1668 1666
f 1668 1669 1666
f 1670 1662 1660
f 1669 1671 1666
f 1672 1670 1660
f 1671 1673 1666
f 1674 1672 1660
f 1673 1675 1666
f 1676 1674 1660
f 1677 1676 1660
f 1678 1677 1660
f 1678 1660 1666
f 1675 1679 1666
f 1680 1678 1666
f 1679 1680 1666
f 1571 1681 1569
f 1571 1589 1681
f 1589 1682 1681
f 1589 1683 1682
f 1683 1589 1684
f 1589 1685 1684
f 1589 1592 1685
f 1589 1571 1686
f 1571 1687 1686
f 1687 1688 1686
f 1687 1689 1688
f 1689 1690 1688
f 1690 1691 1688
f 1691 1692 1688
f 1689 1687 1693
f 1692 1694 1688
f 1687 1695 1693
f 1694 1696 1688
f 1687 1697 1695
f 1697 1687 1698
f 1687 1699 1698
f 1696 1700 1688
f 1687 1701 1699
f 1701 1702 1699
f 1701 1703 1702
f 1703 1701 1704
f 1701 1705 1704
f 1700 1706 1688
f 1706 1707 1688
f 1707 1708 1688
f 1708 1709 1688
f 1708 1710 1709
f 1710 1711 1709
f 1701 1712 1705
f 1711 1713 1709
f 1712 1701 1714
f 1713 1715 1709
f 1701 1716 1714
f 1715 1717 1709
f 1701 1718 1716
f 1718 1701 1719
f 1701 1720 1719
f 1701 1709 1720
f 1717 1721 1709
f 1709 1722 1720
f 1709 1721 1722
f 1723 1724 1725
f 1724 1723 1726
f 1724 1727 1725
f 1724 1728 1727
f 1724 1726 1729
f 1728 1724 1730
f 1731 1724 1729
f 1724 1732 1730
f 1731 1729 1733
f 1732 1734 1730
f 1731 1733 1735
f 1732 1736 1734
f 1737 1731 1735
f 1731 1737 1738
f 1731 1738 1739
f 1736 1732 1740
f 1732 1741 1740
f 1732 1742 1741
f 1743 1731 1739
f 1732 1744 1742
f 1743 1739 1745
f 1744 1746 1742
f 1743 1745 1747
f 1744 1748 1746
f 1749 1743 1747
f 1743 1749 1750
f 1743 1750 1751
f 1752 1743 1751
f 1748 1744 1753
f 1744 1754 1753
f 1744 1755 1754
f 1744 1752 1755
f 1756 1752 1751
f 1752 1757 1755
f 1752 1756 1758
f 1752 1759 1757
f 1752 1758 1760
f 1759 1752 1760
f 1761 1762 1763
f 1761 1763 1764
f 1762 1761 1765
f 1765 1761 1764
f 1766 1767 1768
f 1769 1767 1766
f 1767 1770 1768
f 1767 1769 1770
f 1771 1772 1773
f 1774 1772 1771
f 1772 1775 1773
f 1772 1774 1775
f 1776 1777 1778
f 1779 1777 1776
f 1777 1780 1778
f 1777 1779 1780
f 1781 1782 1783
f 1784 1782 1781
f 1782 1785 1783
f 1782 1784 1785
f 1786 1787 1788
f 1786 1789 1787
f 1790 1786 1788
f 1786 1791 1789
f 1790 1788 1792
f 1791 1793 1789
f 1794 1790 1792
f 1791 1795 1793
f 1794 1792 1796
f 1795 1797 1793
f 1798 1794 1796
f 1795 1799 1797
f 1798 1796 1800
f 1799 1801 1797
f 1802 1798 1800
f 1799 1803 1801
f 1802 1800 1804
f 1803 1805 1801
f 1806 1802 1804
f 1803 1807 1805
f 1806 1804 1808
f 1807 1809 1805
f 1810 1806 1808
f 1807 1811 1809
f 1811 1812 1809
f 1811 1813 1812
f 1810 1808 1814
f 1815 1810 1814
f 1816 1815 1814
f 1816 1814 1817
f 1818 1816 1817
f 1818 1817 1819
f 1820 1818 1819
f 1820 1819 1821
f 1822 1820 1821
f 1822 1821 1823
f 1824 1822 1823
f 1824 1823 1825
f 1826 1824 1825
f 1826 1825 1827
f 1828 1826 1827
f 1828 1827 1829
f 1830 1828 1829
f 1830 1829 1831
f 1830 1831 1832
f 1833 1830 1832
f 1833 1832 1834
f 1835 1833 1834
f 1835 1834 1836
f 1837 1835 1836
f 1837 1836 1838
f 1839 1837 1838
f 1839 1838 1840
f 1841 1839 1840
f 1841 1840 1842
f 1843 1841 1842
f 1843 1842 1844
f 1845 1843 1844
f 1844 1846 1845
f 1846 1847 1845
f 1846 1848 1847
f 1848 1849 1847
f 1848 1813 1849
f 1813 1848 1812
f 1850 1851 1852
f 1851 1850 1853
f 1851 1853 1852
f 1854 1855 1856
f 1855 1854 1857
f 1855 1857 1856
f 1858 1859 1860
f 1859 1858 1861
f 1859 1861 1860
f 1862 1863 1864
f 1863 1862 1865
f 1863 1865 1864
f 1866 1867 1868
f 1869 1867 1866
f 1867 1870 1868
f 1867 1869 1870
