# ROS coordinates: X forward, Y left, Z up; units are metres.
o mesh
v -0.144499689 -0.0229 0.0117624542
v -0.144691885 -0.0229267124 0.0115437536
v -0.144274339 -0.0232 0.0115644243
v -0.144586623 -0.02308188 0.0114363
v -0.144430488 -0.0232217051 0.0113867316
v -0.144888446 -0.0230123382 0.0113200434
v -0.144590214 -0.0232912768 0.0112049663
v -0.1447895 -0.023184441 0.0112054031
v -0.145077631 -0.02316081 0.0111047663
v -0.144743919 -0.0234119054 0.0110300547
v -0.144979268 -0.0233609322 0.0109894536
v -0.1452465 -0.02336863 0.0109125869
v -0.144881129 -0.0235807616 0.0108739091
v -0.145138919 -0.02360277 0.0108077917
v -0.145383686 -0.0236244667 0.0107564759
v -0.14499259 -0.0237886272 0.0107470667
v -0.145255417 -0.0238902476 0.0106752124
v -0.145481691 -0.0239110515 0.0106449481
v -0.1450722 -0.02402148 0.0106564527
v -0.145323113 -0.024197625 0.0105981715
v -0.145538211 -0.0242088586 0.0105806263
v -0.145344153 -0.0245000031 0.0105742253
v -0.145118132 -0.024263449 0.01060419
v -0.145555854 -0.0245000031 0.010560561
v -0.145132467 -0.0245000031 0.0105878888
v -0.145538211 -0.02479114 0.0105806263
v -0.145118132 -0.0247365534 0.01060419
v -0.145323113 -0.0248023756 0.0105981715
v -0.145481691 -0.0250889529 0.0106449481
v -0.1452031 -0.02525765 0.0107347425
v -0.1450722 -0.0249785259 0.0106564527
v -0.145383686 -0.0253755376 0.0107564759
v -0.14499259 -0.0252113715 0.0107470667
v -0.1452465 -0.0256313719 0.0109125869
v -0.144881129 -0.02541924 0.0108739091
v -0.144979268 -0.0256390683 0.0109894536
v -0.145077631 -0.0258391928 0.0111047663
v -0.144688621 -0.0258761346 0.011320225
v -0.144743919 -0.0255880971 0.0110300547
v -0.144888446 -0.0259876624 0.0113200434
v -0.144590214 -0.0257087275 0.0112049663
v -0.144691885 -0.02607329 0.0115437536
v -0.144430488 -0.0257782973 0.0113867316
v -0.144499689 -0.0261 0.0117624542
v -0.144274339 -0.0258 0.0115644243
v -0.144499689 0.0229 0.0117624542
v -0.144274339 0.0232 0.0115644243
v -0.144430488 0.0232217051 0.0113867316
v -0.144688621 0.0231238678 0.011320225
v -0.144691885 0.0229267124 0.0115437536
v -0.144590214 0.0232912768 0.0112049663
v -0.144888446 0.0230123382 0.0113200434
v -0.144743919 0.0234119054 0.0110300547
v -0.145077631 0.02316081 0.0111047663
v -0.144979268 0.0233609322 0.0109894536
v -0.144881129 0.0235807616 0.0108739091
v -0.1452031 0.0237423517 0.0107347425
v -0.1452465 0.02336863 0.0109125869
v -0.14499259 0.0237886272 0.0107470667
v -0.145383686 0.0236244667 0.0107564759
v -0.1450722 0.02402148 0.0106564527
v -0.145481691 0.0239110515 0.0106449481
v -0.145323113 0.024197625 0.0105981715
v -0.145118132 0.024263449 0.01060419
v -0.145344153 0.0245000031 0.0105742253
v -0.145538211 0.0242088586 0.0105806263
v -0.145132467 0.0245000031 0.0105878888
v -0.145555854 0.0245000031 0.010560561
v -0.145118132 0.0247365534 0.01060419
v -0.145538211 0.02479114 0.0105806263
v -0.145323113 0.0248023756 0.0105981715
v -0.1450722 0.0249785259 0.0106564527
v -0.145481691 0.0250889529 0.0106449481
v -0.145255417 0.0251097567 0.0106752124
v -0.14499259 0.0252113715 0.0107470667
v -0.145383686 0.0253755376 0.0107564759
v -0.145138919 0.0253972318 0.0108077917
v -0.144881129 0.02541924 0.0108739091
v -0.1452465 0.0256313719 0.0109125869
v -0.144979268 0.0256390683 0.0109894536
v -0.144743919 0.0255880971 0.0110300547
v -0.145077631 0.0258391928 0.0111047663
v -0.1447895 0.0258155614 0.0112054031
v -0.144590214 0.0257087275 0.0112049663
v -0.144888446 0.0259876624 0.0113200434
v -0.144586623 0.0259181224 0.0114363
v -0.144430488 0.0257782973 0.0113867316
v -0.144691885 0.02607329 0.0115437536
v -0.144274339 0.0258 0.0115644243
v -0.144499689 0.0261 0.0117624542
v -0.14411819 0.0257782973 0.01174212
v -0.144274339 0.0232 0.0115644243
v -0.144499689 0.0229 0.0117624542
v -0.144307509 0.0229267124 0.0119811539
v -0.144187421 0.02308188 0.0118905781
v -0.14411819 0.0232217051 0.01174212
v -0.144110933 0.0230123382 0.0122048631
v -0.143958464 0.0232912768 0.0119238831
v -0.143984526 0.023184441 0.0121214762
v -0.143921763 0.02316081 0.0124201411
v -0.143804759 0.0234119054 0.0120987948
v -0.14379476 0.0233609322 0.0123374248
v -0.143752888 0.02336863 0.01261232
v -0.143667549 0.0235807616 0.01225494
v -0.143635124 0.02360277 0.0125190876
v -0.1436157 0.0236244667 0.0127684316
v -0.143556088 0.0237886272 0.0123817837
v -0.143518627 0.0238902476 0.0126516651
v -0.1435177 0.0239110515 0.0128799584
v -0.143476456 0.02402148 0.0124723976
v -0.143450931 0.024197625 0.0127287069
v -0.143461183 0.0242088586 0.01294428
v -0.143429875 0.0245000031 0.012752654
v -0.143430546 0.024263449 0.01252466
v -0.14344354 0.0245000031 0.0129643455
v -0.143416211 0.0245000031 0.0125409616
v -0.143461183 0.02479114 0.01294428
v -0.143430546 0.0247365534 0.01252466
v -0.143450931 0.0248023756 0.0127287069
v -0.1435177 0.0250889529 0.0128799584
v -0.14357093 0.02525765 0.012592135
v -0.143476456 0.0249785259 0.0124723976
v -0.1436157 0.0253755376 0.0127684316
v -0.143556088 0.0252113715 0.0123817837
v -0.143752888 0.0256313719 0.01261232
v -0.143667549 0.02541924 0.01225494
v -0.14379476 0.0256390683 0.0123374248
v -0.143921763 0.0258391928 0.0124201411
v -0.144085422 0.0258761346 0.0120066553
v -0.143804759 0.0255880971 0.0120987948
v -0.144110933 0.0259876624 0.0122048631
v -0.143958464 0.0257087275 0.0119238831
v -0.144307509 0.02607329 0.0119811539
v -0.14411819 0.0257782973 0.01174212
v -0.144499689 0.0261 0.0117624542
v -0.144274339 0.0232 0.0115644243
v -0.136987865 0.0232 0.00516150845
v -0.137144014 0.0232217051 0.004983815
v -0.140810058 0.023228582 0.00815932453
v -0.144430488 0.0232217051 0.0113867316
v -0.13730374 0.0232912768 0.00480205
v -0.144590214 0.0232912768 0.0112049663
v -0.140991971 0.0233205333 0.007952313
v -0.137457445 0.0234119054 0.00462713744
v -0.144743919 0.0234119054 0.0110300547
v -0.1411621 0.0234787688 0.00775870448
v -0.137594655 0.0235807616 0.00447099237
v -0.144881129 0.0235807616 0.0108739091
v -0.141305208 0.0236955862 0.00759583432
v -0.137706116 0.0237886272 0.00434415136
v -0.14499259 0.0237886272 0.0107470667
v -0.141409665 0.023953326 0.00747697055
v -0.137785733 0.02402148 0.00425353553
v -0.1450722 0.02402148 0.0106564527
v -0.141470373 0.0242289063 0.00740789855
v -0.137831658 0.024263449 0.00420127437
v -0.141489223 0.0245000031 0.00738643
v -0.145118132 0.024263449 0.01060419
v -0.137846 0.0245000031 0.004184971
v -0.145132467 0.0245000031 0.0105878888
v -0.137831658 0.0247365534 0.00420127437
v -0.145118132 0.0247365534 0.01060419
v -0.141470373 0.024771098 0.00740789855
v -0.137785733 0.0249785259 0.00425353553
v -0.1450722 0.0249785259 0.0106564527
v -0.141428977 0.0249785259 0.007454994
v -0.141362756 0.0251792725 0.007530343
v -0.137706116 0.0252113715 0.00434415136
v -0.14499259 0.0252113715 0.0107470667
v -0.141272709 0.0253632851 0.007632834
v -0.137594655 0.02541924 0.00447099237
v -0.144881129 0.02541924 0.0108739091
v -0.1411621 0.0255212355 0.00775870448
v -0.137457445 0.0255880971 0.00462713744
v -0.144743919 0.0255880971 0.0110300547
v -0.141036212 0.025646016 0.007901952
v -0.13730374 0.0257087275 0.00480205
v -0.144590214 0.0257087275 0.0112049663
v -0.1409015 0.0257337745 0.008055257
v -0.137144014 0.0257782973 0.004983815
v -0.144430488 0.0257782973 0.0113867316
v -0.140764534 0.02578419 0.008211134
v -0.136987865 0.0258 0.00516150845
v -0.144274339 0.0258 0.0115644243
v -0.136831716 0.0257782973 0.00533920247
v -0.140452147 0.02577142 0.00856661
v -0.14411819 0.0257782973 0.01174212
v -0.13667199 0.0257087275 0.005520967
v -0.143958464 0.0257087275 0.0119238831
v -0.140270248 0.025679471 0.00877362
v -0.1365183 0.0255880971 0.00569587946
v -0.143804759 0.0255880971 0.0120987948
v -0.1401001 0.0255212355 0.008967229
v -0.136381075 0.02541924 0.005852025
v -0.143667549 0.02541924 0.01225494
v -0.139957 0.0253044162 0.009130099
v -0.136269614 0.0252113715 0.00597886555
v -0.143556088 0.0252113715 0.0123817837
v -0.139852539 0.0250466764 0.009248963
v -0.13619 0.0249785259 0.00606948137
v -0.143476456 0.0249785259 0.0124723976
v -0.139791846 0.024771098 0.009318035
v -0.136144072 0.0247365534 0.00612174254
v -0.139772981 0.0245000031 0.009339504
v -0.143430546 0.0247365534 0.01252466
v -0.136129737 0.0245000031 0.00613804627
v -0.143416211 0.0245000031 0.0125409616
v -0.136144072 0.024263449 0.00612174254
v -0.143430546 0.024263449 0.01252466
v -0.139791846 0.0242289063 0.009318035
v -0.13619 0.02402148 0.00606948137
v -0.143476456 0.02402148 0.0124723976
v -0.139833227 0.02402148 0.00927094
v -0.139899433 0.0238207281 0.00919559
v -0.136269614 0.0237886272 0.00597886555
v -0.143556088 0.0237886272 0.0123817837
v -0.13998951 0.0236367155 0.009093099
v -0.136381075 0.0235807616 0.005852025
v -0.143667549 0.0235807616 0.01225494
v -0.1401001 0.0234787688 0.008967229
v -0.1365183 0.0234119054 0.00569587946
v -0.143804759 0.0234119054 0.0120987948
v -0.140225992 0.0233539846 0.00882398151
v -0.13667199 0.0232912768 0.005520967
v -0.143958464 0.0232912768 0.0119238831
v -0.140360713 0.0232662261 0.008670677
v -0.136831716 0.0232217051 0.00533920247
v -0.14411819 0.0232217051 0.01174212
v -0.140497684 0.023215808 0.0085148
v -0.136987865 0.0232 0.00516150845
v -0.144274339 0.0232 0.0115644243
v -0.144274339 -0.0232 0.0115644243
v -0.14411819 -0.0232217051 0.01174212
v -0.144499689 -0.0229 0.0117624542
v -0.144085422 -0.0231238678 0.0120066553
v -0.143958464 -0.0232912768 0.0119238831
v -0.144307509 -0.0229267124 0.0119811539
v -0.144110933 -0.0230123382 0.0122048631
v -0.143804759 -0.0234119054 0.0120987948
v -0.143921763 -0.02316081 0.0124201411
v -0.14379476 -0.0233609322 0.0123374248
v -0.143667549 -0.0235807616 0.01225494
v -0.14357093 -0.0237423517 0.012592135
v -0.143752888 -0.02336863 0.01261232
v -0.143556088 -0.0237886272 0.0123817837
v -0.1436157 -0.0236244667 0.0127684316
v -0.143476456 -0.02402148 0.0124723976
v -0.1435177 -0.0239110515 0.0128799584
v -0.143450931 -0.024197625 0.0127287069
v -0.143430546 -0.024263449 0.01252466
v -0.143429875 -0.0245000031 0.012752654
v -0.143461183 -0.0242088586 0.01294428
v -0.143416211 -0.0245000031 0.0125409616
v -0.14344354 -0.0245000031 0.0129643455
v -0.143430546 -0.0247365534 0.01252466
v -0.143461183 -0.02479114 0.01294428
v -0.143450931 -0.0248023756 0.0127287069
v -0.143476456 -0.0249785259 0.0124723976
v -0.1435177 -0.0250889529 0.0128799584
v -0.143518627 -0.0251097567 0.0126516651
v -0.143556088 -0.0252113715 0.0123817837
v -0.1436157 -0.0253755376 0.0127684316
v -0.143635124 -0.0253972318 0.0125190876
v -0.143667549 -0.02541924 0.01225494
v -0.143752888 -0.0256313719 0.01261232
v -0.14379476 -0.0256390683 0.0123374248
v -0.143804759 -0.0255880971 0.0120987948
v -0.143921763 -0.0258391928 0.0124201411
v -0.143984526 -0.0258155614 0.0121214762
v -0.143958464 -0.0257087275 0.0119238831
v -0.144110933 -0.0259876624 0.0122048631
v -0.144187421 -0.0259181224 0.0118905781
v -0.14411819 -0.0257782973 0.01174212
v -0.144307509 -0.02607329 0.0119811539
v -0.144274339 -0.0258 0.0115644243
v -0.144499689 -0.0261 0.0117624542
v -0.144274339 -0.0258 0.0115644243
v -0.136987865 -0.0258 0.00516150845
v -0.137144014 -0.0257782973 0.004983815
v -0.140810058 -0.02577142 0.00815932453
v -0.144430488 -0.0257782973 0.0113867316
v -0.13730374 -0.0257087275 0.00480205
v -0.144590214 -0.0257087275 0.0112049663
v -0.140991971 -0.025679471 0.007952313
v -0.137457445 -0.0255880971 0.00462713744
v -0.144743919 -0.0255880971 0.0110300547
v -0.1411621 -0.0255212355 0.00775870448
v -0.137594655 -0.02541924 0.00447099237
v -0.144881129 -0.02541924 0.0108739091
v -0.141305208 -0.0253044162 0.00759583432
v -0.137706116 -0.0252113715 0.00434415136
v -0.14499259 -0.0252113715 0.0107470667
v -0.141409665 -0.0250466764 0.00747697055
v -0.137785733 -0.0249785259 0.00425353553
v -0.1450722 -0.0249785259 0.0106564527
v -0.141470373 -0.024771098 0.00740789855
v -0.137831658 -0.0247365534 0.00420127437
v -0.141489223 -0.0245000031 0.00738643
v -0.145118132 -0.0247365534 0.01060419
v -0.137846 -0.0245000031 0.004184971
v -0.145132467 -0.0245000031 0.0105878888
v -0.137831658 -0.024263449 0.00420127437
v -0.145118132 -0.024263449 0.01060419
v -0.141470373 -0.0242289063 0.00740789855
v -0.137785733 -0.02402148 0.00425353553
v -0.1450722 -0.02402148 0.0106564527
v -0.141428977 -0.02402148 0.007454994
v -0.141362756 -0.0238207281 0.007530343
v -0.137706116 -0.0237886272 0.00434415136
v -0.14499259 -0.0237886272 0.0107470667
v -0.141272709 -0.0236367155 0.007632834
v -0.137594655 -0.0235807616 0.00447099237
v -0.144881129 -0.0235807616 0.0108739091
v -0.1411621 -0.0234787688 0.00775870448
v -0.137457445 -0.0234119054 0.00462713744
v -0.144743919 -0.0234119054 0.0110300547
v -0.141036212 -0.0233539846 0.007901952
v -0.13730374 -0.0232912768 0.00480205
v -0.144590214 -0.0232912768 0.0112049663
v -0.1409015 -0.0232662261 0.008055257
v -0.137144014 -0.0232217051 0.004983815
v -0.144430488 -0.0232217051 0.0113867316
v -0.140764534 -0.023215808 0.008211134
v -0.136987865 -0.0232 0.00516150845
v -0.144274339 -0.0232 0.0115644243
v -0.136831716 -0.0232217051 0.00533920247
v -0.140452147 -0.023228582 0.00856661
v -0.14411819 -0.0232217051 0.01174212
v -0.13667199 -0.0232912768 0.005520967
v -0.143958464 -0.0232912768 0.0119238831
v -0.140270248 -0.0233205333 0.00877362
v -0.1365183 -0.0234119054 0.00569587946
v -0.143804759 -0.0234119054 0.0120987948
v -0.1401001 -0.0234787688 0.008967229
v -0.136381075 -0.0235807616 0.005852025
v -0.143667549 -0.0235807616 0.01225494
v -0.139957 -0.0236955862 0.009130099
v -0.136269614 -0.0237886272 0.00597886555
v -0.143556088 -0.0237886272 0.0123817837
v -0.139852539 -0.023953326 0.009248963
v -0.13619 -0.02402148 0.00606948137
v -0.143476456 -0.02402148 0.0124723976
v -0.139791846 -0.0242289063 0.009318035
v -0.136144072 -0.024263449 0.00612174254
v -0.139772981 -0.0245000031 0.009339504
v -0.143430546 -0.024263449 0.01252466
v -0.136129737 -0.0245000031 0.00613804627
v -0.143416211 -0.0245000031 0.0125409616
v -0.136144072 -0.0247365534 0.00612174254
v -0.143430546 -0.0247365534 0.01252466
v -0.139791846 -0.024771098 0.009318035
v -0.13619 -0.0249785259 0.00606948137
v -0.143476456 -0.0249785259 0.0124723976
v -0.139833227 -0.0249785259 0.00927094
v -0.139899433 -0.0251792725 0.00919559
v -0.136269614 -0.0252113715 0.00597886555
v -0.143556088 -0.0252113715 0.0123817837
v -0.13998951 -0.0253632851 0.009093099
v -0.136381075 -0.02541924 0.005852025
v -0.143667549 -0.02541924 0.01225494
v -0.1401001 -0.0255212355 0.008967229
v -0.1365183 -0.0255880971 0.00569587946
v -0.143804759 -0.0255880971 0.0120987948
v -0.140225992 -0.025646016 0.00882398151
v -0.13667199 -0.0257087275 0.005520967
v -0.143958464 -0.0257087275 0.0119238831
v -0.140360713 -0.0257337745 0.008670677
v -0.136831716 -0.0257782973 0.00533920247
v -0.14411819 -0.0257782973 0.01174212
v -0.140497684 -0.02578419 0.0085148
v -0.136987865 -0.0258 0.00516150845
v -0.144274339 -0.0258 0.0115644243
v -0.1449131 0.0295 0.007333532
v -0.1449131 -0.0295 0.007333532
v -0.144954488 -0.0295 0.007090347
v -0.144956812 0 0.007053844
v -0.144954488 0.0295 0.007090347
v -0.144949287 -0.0295 0.00682894047
v -0.144949287 0.0295 0.00682894047
v -0.144938126 0 0.006752733
v -0.144890413 -0.0295 0.00656305347
v -0.144890413 0.0295 0.00656305347
v -0.144848168 0 0.00645182747
v -0.144776464 -0.0295 0.00630936073
v -0.144776464 0.0295 0.00630936073
v -0.144688472 0 0.00617634272
v -0.144612953 -0.0295 0.00608439976
v -0.144612953 0.0295 0.00608439976
v -0.144472077 0 0.00594872143
v -0.144411489 -0.0295 0.005901162
v -0.144411489 0.0295 0.005901162
v -0.144220069 0 0.00578285428
v -0.144187242 -0.0295 0.005766728
v -0.143955648 0 0.0056817797
v -0.144187242 0.0295 0.005766728
v -0.143955648 -0.0295 0.0056817797
v -0.143955648 0.0295 0.0056817797
v -0.143712476 -0.0295 0.00564039173
v -0.143712476 0.0295 0.00564039173
v -0.143675968 0 0.00563806854
v -0.143451065 -0.0295 0.005645594
v -0.143451065 0.0295 0.005645594
v -0.143451065 0 0.005645594
v -0.143222824 0 0.005692649
v -0.143185169 -0.0295 0.00570447231
v -0.143185169 0.0295 0.00570447231
v -0.1430017 0 0.0057804333
v -0.142931476 -0.0295 0.005818417
v -0.142931476 0.0295 0.005818417
v -0.142798454 0 0.00590641145
v -0.142706513 -0.0295 0.00598192867
v -0.142706513 0.0295 0.00598192867
v -0.142622322 0 0.006064461
v -0.142523274 -0.0295 0.00618338957
v -0.142523274 0.0295 0.00618338957
v -0.142479748 0 0.006245832
v -0.14238885 -0.0295 0.00640763855
v -0.14238885 0.0295 0.00640763855
v -0.142373741 0 0.00644061342
v -0.1423039 -0.0295 0.006639232
v -0.1423039 0.0295 0.006639232
v -0.142262518 -0.0295 0.00688241748
v -0.142260179 0 0.00691892
v -0.142262518 0.0295 0.00688241748
v -0.1422677 -0.0295 0.007143824
v -0.1422677 0.0295 0.007143824
v -0.14227888 0 0.00722003076
v -0.1423266 -0.0295 0.00740971044
v -0.1423266 0.0295 0.00740971044
v -0.142368853 0 0.007520937
v -0.142440528 -0.0295 0.00766340364
v -0.142440528 0.0295 0.00766340364
v -0.142528534 0 0.00779642165
v -0.142604053 -0.0295 0.007888365
v -0.142604053 0.0295 0.007888365
v -0.142744929 0 0.00802404247
v -0.142805517 -0.0295 0.008071602
v -0.142805517 0.0295 0.008071602
v -0.142996922 0 0.00818991
v -0.143029749 -0.0295 0.008206036
v -0.143261358 0 0.008290985
v -0.143029749 0.0295 0.008206036
v -0.143261358 -0.0295 0.008290985
v -0.143261358 0.0295 0.008290985
v -0.143504545 -0.0295 0.008332373
v -0.143504545 0.0295 0.008332373
v -0.143541038 0 0.008334695
v -0.143765941 -0.0295 0.00832717
v -0.143765941 0.0295 0.00832717
v -0.143765941 0 0.00832717
v -0.143994182 0 0.008280115
v -0.144031823 -0.0295 0.008268292
v -0.144031823 0.0295 0.008268292
v -0.144215286 0 0.008192331
v -0.14428553 -0.0295 0.008154347
v -0.14428553 0.0295 0.008154347
v -0.144418538 0 0.008066352
v -0.144510478 -0.0295 0.007990835
v -0.144510478 0.0295 0.007990835
v -0.144594684 0 0.007908303
v -0.144693717 -0.0295 0.007789375
v -0.144693717 0.0295 0.007789375
v -0.144737259 0 0.007726932
v -0.144828156 -0.0295 0.007565126
v -0.144828156 0.0295 0.007565126
v -0.144843265 0 0.00753215048
v -0.1449131 -0.0295 0.007333532
v -0.1449131 0.0295 0.007333532
v -0.120856658 0.0295 0.000518287939
v -0.120856658 -0.0295 0.000518287939
v -0.120898053 -0.0295 0.000275103
v -0.120900363 0 0.000238600347
v -0.120898053 0.0295 0.000275103
v -0.120892838 -0.0295 1.36967728E-05
v -0.120892838 0.0295 1.36967728E-05
v -0.120881684 0 -6.251016E-05
v -0.120833963 -0.0295 -0.0002521901
v -0.120833963 0.0295 -0.0002521901
v -0.120791718 0 -0.000363415777
v -0.120720014 -0.0295 -0.000505882956
v -0.120720014 0.0295 -0.000505882956
v -0.120632023 0 -0.0006389009
v -0.120556511 -0.0295 -0.000730844331
v -0.120556511 0.0295 -0.000730844331
v -0.120415628 0 -0.000866522
v -0.120355047 -0.0295 -0.0009140817
v -0.120355047 0.0295 -0.0009140817
v -0.120163627 0 -0.00103238912
v -0.120130807 -0.0295 -0.00104851567
v -0.119899206 0 -0.00113346393
v -0.120130807 0.0295 -0.00104851567
v -0.119899206 -0.0295 -0.00113346393
v -0.119899206 0.0295 -0.00113346393
v -0.119656026 -0.0295 -0.00117485248
v -0.119656026 0.0295 -0.00117485248
v -0.119619519 0 -0.001177175
v -0.119394615 -0.0295 -0.00116964942
v -0.119394615 0.0295 -0.00116964942
v -0.119394615 0 -0.00116964942
v -0.119166374 0 -0.00112259469
v -0.119128734 -0.0295 -0.00111077144
v -0.119128734 0.0295 -0.00111077144
v -0.118945271 0 -0.00103481009
v -0.118875027 -0.0295 -0.0009968264
v -0.118875027 0.0295 -0.0009968264
v -0.118742019 0 -0.0009088322
v -0.118650064 -0.0295 -0.0008333153
v -0.118650064 0.0295 -0.0008333153
v -0.118565865 0 -0.0007507827
v -0.118466839 -0.0295 -0.000631854346
v -0.118466839 0.0295 -0.000631854346
v -0.118423313 0 -0.0005694112
v -0.1183324 -0.0295 -0.000407604966
v -0.1183324 0.0295 -0.000407604966
v -0.1183173 0 -0.0003746299
v -0.118247457 -0.0295 -0.000176011061
v -0.118247457 0.0295 -0.000176011061
v -0.118206069 -0.0295 6.71739E-05
v -0.118203744 0 0.000103676568
v -0.118206069 0.0295 6.71739E-05
v -0.118211269 -0.0295 0.00032858015
v -0.118211269 0.0295 0.00032858015
v -0.11822243 0 0.0004047871
v -0.118270144 -0.0295 0.000594467041
v -0.118270144 0.0295 0.000594467041
v -0.118312396 0 0.000705692742
v -0.118384093 -0.0295 0.0008481599
v -0.118384093 0.0295 0.0008481599
v -0.118472084 0 0.0009811778
v -0.1185476 -0.0295 0.00107312121
v -0.1185476 0.0295 0.00107312121
v -0.118688487 0 0.001208799
v -0.11874906 -0.0295 0.00125635858
v -0.11874906 0.0295 0.00125635858
v -0.11894048 0 0.00137466611
v -0.118973322 -0.0295 0.00139079266
v -0.119204909 0 0.00147574092
v -0.118973322 0.0295 0.00139079266
v -0.119204909 -0.0295 0.00147574092
v -0.119204909 0.0295 0.00147574092
v -0.119448096 -0.0295 0.00151712925
v -0.119448096 0.0295 0.00151712925
v -0.119484589 0 0.00151945173
v -0.119709492 -0.0295 0.00151192641
v -0.119709492 0.0295 0.00151192641
v -0.119709492 0 0.00151192641
v -0.11993774 0 0.00146487157
v -0.119975388 -0.0295 0.00145304832
v -0.119975388 0.0295 0.00145304832
v -0.120158836 0 0.00137708709
v -0.12022908 -0.0295 0.00133910344
v -0.12022908 0.0295 0.00133910344
v -0.1203621 0 0.00125110906
v -0.120454043 -0.0295 0.0011755923
v -0.120454043 0.0295 0.0011755923
v -0.120538242 0 0.00109305955
v -0.120637275 -0.0295 0.0009741313
v -0.120637275 0.0295 0.0009741313
v -0.120680816 0 0.0009116881
v -0.120771714 -0.0295 0.000749881845
v -0.120771714 0.0295 0.000749881845
v -0.120786816 0 0.0007169068
v -0.120856658 -0.0295 0.000518287939
v -0.120856658 0.0295 0.000518287939
v -0.119614586 -0.00500000035 0.009488987
v -0.119714946 -0.00500000035 0.009527666
v -0.119522795 -0.00500000035 0.009428057
v -0.119446576 -0.00500000035 0.009348504
v -0.119390726 -0.00500000035 0.009256572
v -0.121358916 -0.00500000035 0.009270758
v -0.120732307 -0.00500000035 0.009798383
v -0.121355467 -0.00500000035 0.009388671
v -0.121323161 -0.00500000035 0.00950574
v -0.121263579 -0.00500000035 0.009611568
v -0.121182941 -0.00500000035 0.009697664
v -0.121084377 -0.00500000035 0.00976247
v -0.120969944 -0.00500000035 0.009803158
v -0.120849088 -0.00500000035 0.009815059
v -0.118601069 -0.00500000035 0.005904988
v -0.120949462 -0.00500000035 0.004682175
v -0.118523471 -0.00500000035 0.00403662724
v -0.117720544 -0.00500000035 0.00372719532
v -0.116986215 -0.00500000035 0.00323975924
v -0.116376467 -0.00500000035 0.00260333577
v -0.115929753 -0.00500000035 0.00186788011
v -0.119714946 0.00500000035 0.009527666
v -0.119614586 0.00500000035 0.009488987
v -0.119522795 0.00500000035 0.009428057
v -0.119446576 0.00500000035 0.009348504
v -0.119390726 0.00500000035 0.009256572
v -0.121358916 0.00500000035 0.009270758
v -0.120732307 0.00500000035 0.009798383
v -0.121355467 0.00500000035 0.009388671
v -0.121323161 0.00500000035 0.00950574
v -0.121263579 0.00500000035 0.009611568
v -0.121182941 0.00500000035 0.009697664
v -0.121084377 0.00500000035 0.00976247
v -0.120969944 0.00500000035 0.009803158
v -0.120849088 0.00500000035 0.009815059
v -0.118601069 0.00500000035 0.005904988
v -0.120949462 0.00500000035 0.004682175
v -0.118523471 0.00500000035 0.00403662724
v -0.117720544 0.00500000035 0.00372719532
v -0.116986215 0.00500000035 0.00323975924
v -0.116376467 0.00500000035 0.00260333577
v -0.115929753 0.00500000035 0.00186788011
v -0.118523471 0.00500000035 0.00403662724
v -0.118523471 0.0295 0.00403662724
v -0.120949462 0.00500000035 0.004682175
v -0.128738314 0.0295 0.006754758
v -0.123630896 -8.881785E-18 0.005395693
v -0.128738314 -0.0295 0.006754758
v -0.120949462 -0.00500000035 0.004682175
v -0.118523471 -0.0295 0.00403662724
v -0.118523471 -0.00500000035 0.00403662724
v -0.117837265 0.0295 0.00378492847
v -0.118523471 0.0295 0.00403662724
v -0.118523471 0.00500000035 0.00403662724
v -0.117720544 0.00500000035 0.00372719532
v -0.117172822 0.0295 0.00338660553
v -0.116986215 0.00500000035 0.00323975924
v -0.116575889 0.0295 0.00284367986
v -0.116376467 0.00500000035 0.00260333577
v -0.116091415 0.0295 0.00217712787
v -0.115929753 0.00500000035 0.00186788011
v -0.115753815 0.0295 0.0014254452
v -0.115879 0 0.001755003
v -0.115929753 -0.00500000035 0.00186788011
v -0.115612417 0 0.0008634306
v -0.115579359 0.0295 0.0006376323
v -0.115753815 -0.0295 0.0014254452
v -0.116091415 -0.0295 0.00217712787
v -0.116376467 -0.00500000035 0.00260333577
v -0.116575889 -0.0295 0.00284367986
v -0.116986215 -0.00500000035 0.00323975924
v -0.117172822 -0.0295 0.00338660553
v -0.117720544 -0.00500000035 0.00372719532
v -0.117837265 -0.0295 0.00378492847
v -0.118523471 -0.00500000035 0.00403662724
v -0.118523471 -0.0295 0.00403662724
v -0.115579359 -0.0295 0.0006376323
v -0.115557052 0 -2.874863E-05
v -0.115563937 0.0295 -0.000136904651
v -0.115686566 0 -0.0008574527
v -0.115563937 -0.0295 -0.000136904651
v -0.115686566 0.0295 -0.0008574527
v -0.115686566 -0.0295 -0.0008574527
v -0.115938269 0.0295 -0.00154365681
v -0.115938269 -0.0295 -0.00154365681
v -0.115986049 0 -0.00164092937
v -0.116336584 0.0295 -0.00220809947
v -0.116336584 -0.0295 -0.00220809947
v -0.116336584 0 -0.00220809947
v -0.116793692 0 -0.002725652
v -0.116879523 0.0295 -0.00280502066
v -0.116879523 -0.0295 -0.00280502066
v -0.117344975 0 -0.00316484785
v -0.117546067 0.0295 -0.00328949862
v -0.117546067 -0.0295 -0.00328949862
v -0.117968187 0 -0.00350192236
v -0.118297756 0.0295 -0.003627113
v -0.118297756 -0.0295 -0.003627113
v -0.118633948 0 -0.00372207025
v -0.119085565 0.0295 -0.00380156655
v -0.119085565 -0.0295 -0.00380156655
v -0.11931023 0 -0.00382154458
v -0.1198601 0.0295 -0.00381698273
v -0.1198601 -0.0295 -0.00381698273
v -0.119967133 0 -0.00380726764
v -0.120580651 0.0295 -0.00369435
v -0.120580651 -0.0295 -0.00369435
v -0.144739956 0.0295 0.00273434469
v -0.1456636 0.0295 0.00310859527
v -0.146490112 0.0295 0.00372259179
v -0.143955648 0.0295 0.0056817797
v -0.147132516 0.0295 0.004527226
v -0.144187242 0.0295 0.005766728
v -0.147538692 0.0295 0.0054372903
v -0.144411489 0.0295 0.005901162
v -0.143712476 0.0295 0.00564039173
v -0.1477073 0.0295 0.0064195185
v -0.143451065 0.0295 0.005645594
v -0.144612953 0.0295 0.00608439976
v -0.144776464 0.0295 0.00630936073
v -0.144890413 0.0295 0.00656305347
v -0.147620946 0.0295 0.00744550955
v -0.144949287 0.0295 0.00682894047
v -0.144954488 0.0295 0.007090347
v -0.1449131 0.0295 0.007333532
v -0.147275552 0.0295 0.008415468
v -0.144828156 0.0295 0.007565126
v -0.144693717 0.0295 0.007789375
v -0.144510478 0.0295 0.007990835
v -0.146716088 0.0295 0.009240211
v -0.14428553 0.0295 0.008154347
v -0.144031823 0.0295 0.008268292
v -0.143765941 0.0295 0.00832717
v -0.143504545 0.0295 0.008332373
v -0.143261358 0.0295 0.008290985
v -0.140115142 0.0295 0.0167520382
v -0.143029749 0.0295 0.008206036
v -0.131045029 0.0295 0.00670409342
v -0.142805517 0.0295 0.008071602
v -0.142604053 0.0295 0.007888365
v -0.142440528 0.0295 0.00766340364
v -0.1423266 0.0295 0.00740971044
v -0.128738314 0.0295 0.006754758
v -0.1422677 0.0295 0.007143824
v -0.132153392 0.0295 0.00253883167
v -0.142262518 0.0295 0.00688241748
v -0.1423039 0.0295 0.006639232
v -0.14238885 0.0295 0.00640763855
v -0.142523274 0.0295 0.00618338957
v -0.142706513 0.0295 0.00598192867
v -0.142931476 0.0295 0.005818417
v -0.143185169 0.0295 0.00570447231
v -0.120580651 0.0295 -0.00369435
v -0.120637275 0.0295 0.0009741313
v -0.120771714 0.0295 0.000749881845
v -0.120454043 0.0295 0.0011755923
v -0.120856658 0.0295 0.000518287939
v -0.12022908 0.0295 0.00133910344
v -0.120898053 0.0295 0.000275103
v -0.119975388 0.0295 0.00145304832
v -0.120892838 0.0295 1.36967728E-05
v -0.120833963 0.0295 -0.0002521901
v -0.120720014 0.0295 -0.000505882956
v -0.120556511 0.0295 -0.000730844331
v -0.120355047 0.0295 -0.0009140817
v -0.120130807 0.0295 -0.00104851567
v -0.119899206 0.0295 -0.00113346393
v -0.1198601 0.0295 -0.00381698273
v -0.119085565 0.0295 -0.00380156655
v -0.118297756 0.0295 -0.003627113
v -0.117546067 0.0295 -0.00328949862
v -0.119656026 0.0295 -0.00117485248
v -0.116879523 0.0295 -0.00280502066
v -0.119394615 0.0295 -0.00116964942
v -0.119128734 0.0295 -0.00111077144
v -0.116336584 0.0295 -0.00220809947
v -0.118875027 0.0295 -0.0009968264
v -0.118650064 0.0295 -0.0008333153
v -0.115938269 0.0295 -0.00154365681
v -0.118466839 0.0295 -0.000631854346
v -0.1183324 0.0295 -0.000407604966
v -0.115686566 0.0295 -0.0008574527
v -0.118247457 0.0295 -0.000176011061
v -0.118206069 0.0295 6.71739E-05
v -0.115563937 0.0295 -0.000136904651
v -0.118211269 0.0295 0.00032858015
v -0.118270144 0.0295 0.000594467041
v -0.115579359 0.0295 0.0006376323
v -0.118384093 0.0295 0.0008481599
v -0.1185476 0.0295 0.00107312121
v -0.115753815 0.0295 0.0014254452
v -0.11874906 0.0295 0.00125635858
v -0.118973322 0.0295 0.00139079266
v -0.116091415 0.0295 0.00217712787
v -0.119204909 0.0295 0.00147574092
v -0.116575889 0.0295 0.00284367986
v -0.119448096 0.0295 0.00151712925
v -0.119709492 0.0295 0.00151192641
v -0.118523471 0.0295 0.00403662724
v -0.117172822 0.0295 0.00338660553
v -0.117837265 0.0295 0.00378492847
v -0.117172822 -0.0295 0.00338660553
v -0.117837265 -0.0295 0.00378492847
v -0.118523471 -0.0295 0.00403662724
v -0.116575889 -0.0295 0.00284367986
v -0.128738314 -0.0295 0.006754758
v -0.131045029 -0.0295 0.00670409342
v -0.140115142 -0.0295 0.0167520382
v -0.143029749 -0.0295 0.008206036
v -0.143261358 -0.0295 0.008290985
v -0.142805517 -0.0295 0.008071602
v -0.142604053 -0.0295 0.007888365
v -0.142440528 -0.0295 0.00766340364
v -0.1423266 -0.0295 0.00740971044
v -0.1422677 -0.0295 0.007143824
v -0.146716088 -0.0295 0.009240211
v -0.143504545 -0.0295 0.008332373
v -0.143765941 -0.0295 0.00832717
v -0.144031823 -0.0295 0.008268292
v -0.14428553 -0.0295 0.008154347
v -0.144510478 -0.0295 0.007990835
v -0.147275552 -0.0295 0.008415468
v -0.144693717 -0.0295 0.007789375
v -0.144828156 -0.0295 0.007565126
v -0.1449131 -0.0295 0.007333532
v -0.147620946 -0.0295 0.00744550955
v -0.144954488 -0.0295 0.007090347
v -0.144949287 -0.0295 0.00682894047
v -0.144890413 -0.0295 0.00656305347
v -0.1477073 -0.0295 0.0064195185
v -0.144776464 -0.0295 0.00630936073
v -0.144612953 -0.0295 0.00608439976
v -0.144411489 -0.0295 0.005901162
v -0.147538692 -0.0295 0.0054372903
v -0.144187242 -0.0295 0.005766728
v -0.147132516 -0.0295 0.004527226
v -0.143955648 -0.0295 0.0056817797
v -0.146490112 -0.0295 0.00372259179
v -0.144739956 -0.0295 0.00273434469
v -0.1456636 -0.0295 0.00310859527
v -0.143712476 -0.0295 0.00564039173
v -0.143451065 -0.0295 0.005645594
v -0.143185169 -0.0295 0.00570447231
v -0.132153392 -0.0295 0.00253883167
v -0.142931476 -0.0295 0.005818417
v -0.142706513 -0.0295 0.00598192867
v -0.142523274 -0.0295 0.00618338957
v -0.14238885 -0.0295 0.00640763855
v -0.1423039 -0.0295 0.006639232
v -0.142262518 -0.0295 0.00688241748
v -0.120580651 -0.0295 -0.00369435
v -0.120556511 -0.0295 -0.000730844331
v -0.120720014 -0.0295 -0.000505882956
v -0.120355047 -0.0295 -0.0009140817
v -0.120130807 -0.0295 -0.00104851567
v -0.120833963 -0.0295 -0.0002521901
v -0.119899206 -0.0295 -0.00113346393
v -0.120892838 -0.0295 1.36967728E-05
v -0.1198601 -0.0295 -0.00381698273
v -0.120898053 -0.0295 0.000275103
v -0.119085565 -0.0295 -0.00380156655
v -0.118297756 -0.0295 -0.003627113
v -0.117546067 -0.0295 -0.00328949862
v -0.119656026 -0.0295 -0.00117485248
v -0.120856658 -0.0295 0.000518287939
v -0.120771714 -0.0295 0.000749881845
v -0.120637275 -0.0295 0.0009741313
v -0.116879523 -0.0295 -0.00280502066
v -0.119394615 -0.0295 -0.00116964942
v -0.119128734 -0.0295 -0.00111077144
v -0.116336584 -0.0295 -0.00220809947
v -0.118875027 -0.0295 -0.0009968264
v -0.118650064 -0.0295 -0.0008333153
v -0.120454043 -0.0295 0.0011755923
v -0.115938269 -0.0295 -0.00154365681
v -0.118466839 -0.0295 -0.000631854346
v -0.1183324 -0.0295 -0.000407604966
v -0.12022908 -0.0295 0.00133910344
v -0.119975388 -0.0295 0.00145304832
v -0.119709492 -0.0295 0.00151192641
v -0.115686566 -0.0295 -0.0008574527
v -0.118247457 -0.0295 -0.000176011061
v -0.118206069 -0.0295 6.71739E-05
v -0.119448096 -0.0295 0.00151712925
v -0.119204909 -0.0295 0.00147574092
v -0.116091415 -0.0295 0.00217712787
v -0.118973322 -0.0295 0.00139079266
v -0.115563937 -0.0295 -0.000136904651
v -0.118211269 -0.0295 0.00032858015
v -0.118270144 -0.0295 0.000594467041
v -0.115753815 -0.0295 0.0014254452
v -0.11874906 -0.0295 0.00125635858
v -0.1185476 -0.0295 0.00107312121
v -0.115579359 -0.0295 0.0006376323
v -0.118384093 -0.0295 0.0008481599
v -0.144739956 0.0295 0.00273434469
v -0.144739956 -0.0295 0.00273434469
v -0.145273983 0 0.002917689
v -0.1456636 0.0295 0.00310859527
v -0.1456636 -0.0295 0.00310859527
v -0.145789862 0 0.00318226265
v -0.1462694 0 0.003524701
v -0.146490112 0.0295 0.00372259179
v -0.146490112 -0.0295 0.00372259179
v -0.146695569 0 0.00393628562
v -0.147132516 0.0295 0.004527226
v -0.147132516 -0.0295 0.004527226
v -0.1470545 0 0.00440359954
v -0.14733687 0 0.00490995776
v -0.147538692 0.0295 0.0054372903
v -0.147538692 -0.0295 0.0054372903
v -0.147538692 0 0.0054372903
v -0.147664264 0 0.00598778762
v -0.1477073 0.0295 0.0064195185
v -0.1477073 -0.0295 0.0064195185
v -0.147702917 0 0.006859554
v -0.147620946 0.0295 0.00744550955
v -0.147620946 -0.0295 0.00744550955
v -0.147547573 0 0.007732727
v -0.147275552 0.0295 0.008415468
v -0.147275552 -0.0295 0.008415468
v -0.147207171 0 0.00854389
v -0.146716088 0.0295 0.009240211
v -0.146716088 -0.0295 0.009240211
v -0.1326603 0 -0.000480002753
v -0.120580651 0.0295 -0.00369435
v -0.120580651 -0.0295 -0.00369435
v -0.144739956 -0.0295 0.00273434469
v -0.144739956 0.0295 0.00273434469
v -0.134426743 0 0.011753398
v -0.140115142 0.0295 0.0167520382
v -0.140115142 -0.0295 0.0167520382
v -0.128738314 -0.0295 0.006754758
v -0.128738314 0.0295 0.006754758
v -0.117660239 -1.99840152E-17 0.00556222629
v -0.119390726 0.00500000035 0.009256572
v -0.119390726 -0.00500000035 0.009256572
v -0.115929753 -0.00500000035 0.00186788011
v -0.115929753 0.00500000035 0.00186788011
v -0.121154189 -1.99840152E-17 0.00697646663
v -0.120949462 -0.00500000035 0.004682175
v -0.121358916 -0.00500000035 0.009270758
v -0.121358916 0.00500000035 0.009270758
v -0.120949462 0.00500000035 0.004682175
v -0.120831922 -2.13514937E-17 0.009814359
v -0.120732307 -0.00500000035 0.009798383
v -0.120732307 0.00500000035 0.009798383
v -0.120849088 0.00500000035 0.009815059
v -0.120849088 -0.00500000035 0.009815059
v -0.120935619 -2.05671213E-17 0.00980958249
v -0.120969944 0.00500000035 0.009803158
v -0.120969944 -0.00500000035 0.009803158
v -0.1210368 -2.107758E-17 0.009783235
v -0.121084377 0.00500000035 0.00976247
v -0.121084377 -0.00500000035 0.00976247
v -0.121129006 -2.11236352E-17 0.009737233
v -0.121182941 0.00500000035 0.009697664
v -0.121182941 -0.00500000035 0.009697664
v -0.121182941 -2.10942389E-17 0.009697664
v -0.121231124 -2.11236352E-17 0.009651248
v -0.121263579 0.00500000035 0.009611568
v -0.121263579 -0.00500000035 0.009611568
v -0.121273577 -2.09501953E-17 0.009597497
v -0.121308722 -2.11547554E-17 0.009537554
v -0.121323161 0.00500000035 0.00950574
v -0.121323161 -0.00500000035 0.00950574
v -0.121335343 -2.11547554E-17 0.009472995
v -0.121355467 0.00500000035 0.009388671
v -0.121355467 -0.00500000035 0.009388671
v -0.121352628 -2.09501953E-17 0.009405692
v -0.121360384 -2.11236352E-17 0.0093376385
v -0.121358916 0.00500000035 0.009270758
v -0.121358916 -0.00500000035 0.009270758
v -0.120223626 -1.99840152E-17 0.009663025
v -0.119714946 -0.00500000035 0.009527666
v -0.119714946 0.00500000035 0.009527666
v -0.120732307 0.00500000035 0.009798383
v -0.120732307 -0.00500000035 0.009798383
v -0.137457445 0.0255880971 0.00462713744
v -0.136987865 0.0245000031 0.00516150845
v -0.13730374 0.0257087275 0.00480205
v -0.137594655 0.02541924 0.00447099237
v -0.137144014 0.0257782973 0.004983815
v -0.137706116 0.0252113715 0.00434415136
v -0.136987865 0.0258 0.00516150845
v -0.137785733 0.0249785259 0.00425353553
v -0.136831716 0.0257782973 0.00533920247
v -0.137831658 0.0247365534 0.00420127437
v -0.13667199 0.0257087275 0.005520967
v -0.137846 0.0245000031 0.004184971
v -0.1365183 0.0255880971 0.00569587946
v -0.137831658 0.024263449 0.00420127437
v -0.136381075 0.02541924 0.005852025
v -0.137785733 0.02402148 0.00425353553
v -0.136269614 0.0252113715 0.00597886555
v -0.137706116 0.0237886272 0.00434415136
v -0.13619 0.0249785259 0.00606948137
v -0.137594655 0.0235807616 0.00447099237
v -0.136144072 0.0247365534 0.00612174254
v -0.137457445 0.0234119054 0.00462713744
v -0.136129737 0.0245000031 0.00613804627
v -0.13730374 0.0232912768 0.00480205
v -0.136144072 0.024263449 0.00612174254
v -0.137144014 0.0232217051 0.004983815
v -0.13619 0.02402148 0.00606948137
v -0.136987865 0.0232 0.00516150845
v -0.136269614 0.0237886272 0.00597886555
v -0.136831716 0.0232217051 0.00533920247
v -0.136381075 0.0235807616 0.005852025
v -0.13667199 0.0232912768 0.005520967
v -0.1365183 0.0234119054 0.00569587946
v -0.137457445 -0.0234119054 0.00462713744
v -0.136987865 -0.0245000031 0.00516150845
v -0.13730374 -0.0232912768 0.00480205
v -0.137594655 -0.0235807616 0.00447099237
v -0.137144014 -0.0232217051 0.004983815
v -0.137706116 -0.0237886272 0.00434415136
v -0.136987865 -0.0232 0.00516150845
v -0.137785733 -0.02402148 0.00425353553
v -0.136831716 -0.0232217051 0.00533920247
v -0.137831658 -0.024263449 0.00420127437
v -0.13667199 -0.0232912768 0.005520967
v -0.137846 -0.0245000031 0.004184971
v -0.1365183 -0.0234119054 0.00569587946
v -0.137831658 -0.0247365534 0.00420127437
v -0.136381075 -0.0235807616 0.005852025
v -0.137785733 -0.0249785259 0.00425353553
v -0.136269614 -0.0237886272 0.00597886555
v -0.137706116 -0.0252113715 0.00434415136
v -0.13619 -0.02402148 0.00606948137
v -0.137594655 -0.02541924 0.00447099237
v -0.136144072 -0.024263449 0.00612174254
v -0.137457445 -0.0255880971 0.00462713744
v -0.136129737 -0.0245000031 0.00613804627
v -0.13730374 -0.0257087275 0.00480205
v -0.136144072 -0.0247365534 0.00612174254
v -0.137144014 -0.0257782973 0.004983815
v -0.13619 -0.0249785259 0.00606948137
v -0.136987865 -0.0258 0.00516150845
v -0.136269614 -0.0252113715 0.00597886555
v -0.136831716 -0.0257782973 0.00533920247
v -0.136381075 -0.02541924 0.005852025
v -0.13667199 -0.0257087275 0.005520967
v -0.1365183 -0.0255880971 0.00569587946
v -0.143752888 0.0256313719 0.01261232
v -0.140115142 0.0295 0.0167520382
v -0.143921763 0.0258391928 0.0124201411
v -0.1436157 0.0253755376 0.0127684316
v -0.1435177 0.0250889529 0.0128799584
v -0.143461183 0.02479114 0.01294428
v -0.144110933 0.0259876624 0.0122048631
v -0.14344354 0.0245000031 0.0129643455
v -0.146716088 0.0295 0.009240211
v -0.144307509 0.02607329 0.0119811539
v -0.144499689 0.0261 0.0117624542
v -0.144691885 0.02607329 0.0115437536
v -0.144888446 0.0259876624 0.0113200434
v -0.145077631 0.0258391928 0.0111047663
v -0.1452465 0.0256313719 0.0109125869
v -0.145383686 0.0253755376 0.0107564759
v -0.145481691 0.0250889529 0.0106449481
v -0.145538211 0.02479114 0.0105806263
v -0.145555854 0.0245000031 0.010560561
v -0.145538211 0.0242088586 0.0105806263
v -0.146716088 -0.0295 0.009240211
v -0.143415615 0 0.0129961241
v -0.140115142 -0.0295 0.0167520382
v -0.144110933 -0.0259876624 0.0122048631
v -0.143461183 0.0242088586 0.01294428
v -0.1435177 0.0239110515 0.0128799584
v -0.1436157 0.0236244667 0.0127684316
v -0.143752888 0.02336863 0.01261232
v -0.143921763 0.02316081 0.0124201411
v -0.144110933 0.0230123382 0.0122048631
v -0.144307509 0.0229267124 0.0119811539
v -0.144499689 0.0229 0.0117624542
v -0.144691885 0.0229267124 0.0115437536
v -0.144888446 0.0230123382 0.0113200434
v -0.145077631 0.02316081 0.0111047663
v -0.1452465 0.02336863 0.0109125869
v -0.145383686 0.0236244667 0.0107564759
v -0.145383686 -0.0236244667 0.0107564759
v -0.145481691 -0.0239110515 0.0106449481
v -0.145481691 0.0239110515 0.0106449481
v -0.1452465 -0.02336863 0.0109125869
v -0.145538211 -0.0242088586 0.0105806263
v -0.145077631 -0.02316081 0.0111047663
v -0.145555854 -0.0245000031 0.010560561
v -0.145538211 -0.02479114 0.0105806263
v -0.145481691 -0.0250889529 0.0106449481
v -0.145383686 -0.0253755376 0.0107564759
v -0.144888446 -0.0230123382 0.0113200434
v -0.144691885 -0.0229267124 0.0115437536
v -0.144499689 -0.0229 0.0117624542
v -0.144307509 -0.0229267124 0.0119811539
v -0.144110933 -0.0230123382 0.0122048631
v -0.1452465 -0.0256313719 0.0109125869
v -0.143921763 -0.02316081 0.0124201411
v -0.145077631 -0.0258391928 0.0111047663
v -0.143752888 -0.02336863 0.01261232
v -0.144888446 -0.0259876624 0.0113200434
v -0.1436157 -0.0236244667 0.0127684316
v -0.144691885 -0.02607329 0.0115437536
v -0.144499689 -0.0261 0.0117624542
v -0.144307509 -0.02607329 0.0119811539
v -0.1435177 -0.0239110515 0.0128799584
v -0.143461183 -0.0242088586 0.01294428
v -0.14344354 -0.0245000031 0.0129643455
v -0.143921763 -0.0258391928 0.0124201411
v -0.143461183 -0.02479114 0.01294428
v -0.143752888 -0.0256313719 0.01261232
v -0.1435177 -0.0250889529 0.0128799584
v -0.1436157 -0.0253755376 0.0127684316
v -0.119714946 -0.00500000035 0.009527666
v -0.119614586 -2.07117108E-17 0.009488987
v -0.119714946 0.00500000035 0.009527666
v -0.119614586 -0.00500000035 0.009488987
v -0.119614586 0.00500000035 0.009488987
v -0.119522795 -0.00500000035 0.009428057
v -0.119522795 -2.03838065E-17 0.009428057
v -0.119522795 0.00500000035 0.009428057
v -0.119446576 -0.00500000035 0.009348504
v -0.119446576 -2.07117108E-17 0.009348504
v -0.119446576 0.00500000035 0.009348504
v -0.119390726 -0.00500000035 0.009256572
v -0.119390726 0.00500000035 0.009256572
f 1 2 3
f 2 4 3
f 3 4 5
f 2 6 4
f 4 7 5
f 6 8 4
f 4 8 7
f 6 9 8
f 8 10 7
f 9 11 8
f 8 11 10
f 9 12 11
f 11 13 10
f 12 14 11
f 11 14 13
f 12 15 14
f 14 16 13
f 15 17 14
f 14 17 16
f 15 18 17
f 17 19 16
f 18 20 17
f 17 20 19
f 18 21 20
f 21 22 20
f 20 23 19
f 20 22 23
f 21 24 22
f 22 25 23
f 24 26 22
f 22 27 25
f 26 28 22
f 22 28 27
f 26 29 28
f 29 30 28
f 28 31 27
f 28 30 31
f 29 32 30
f 30 33 31
f 32 34 30
f 30 35 33
f 34 36 30
f 30 36 35
f 34 37 36
f 37 38 36
f 36 39 35
f 36 38 39
f 37 40 38
f 38 41 39
f 40 42 38
f 38 43 41
f 42 44 38
f 44 43 38
f 44 45 43
f 46 47 48
f 46 48 49
f 50 46 49
f 49 48 51
f 52 50 49
f 49 51 53
f 54 52 49
f 55 49 53
f 54 49 55
f 55 53 56
f 57 55 56
f 58 54 55
f 58 55 57
f 57 56 59
f 60 58 57
f 57 59 61
f 62 60 57
f 63 57 61
f 62 57 63
f 63 61 64
f 65 63 64
f 66 62 63
f 66 63 65
f 65 64 67
f 68 66 65
f 65 67 69
f 70 68 65
f 71 65 69
f 70 65 71
f 71 69 72
f 73 70 71
f 74 71 72
f 73 71 74
f 74 72 75
f 76 73 74
f 77 74 75
f 76 74 77
f 77 75 78
f 79 76 77
f 80 77 78
f 79 77 80
f 80 78 81
f 82 79 80
f 83 80 81
f 82 80 83
f 83 81 84
f 85 82 83
f 86 83 84
f 85 83 86
f 86 84 87
f 88 85 86
f 89 86 87
f 88 86 89
f 90 88 89
f 89 91 90
f 92 93 94
f 92 94 95
f 96 92 95
f 95 94 97
f 98 96 95
f 99 95 97
f 98 95 99
f 99 97 100
f 101 98 99
f 102 99 100
f 101 99 102
f 102 100 103
f 104 101 102
f 105 102 103
f 104 102 105
f 105 103 106
f 107 104 105
f 108 105 106
f 107 105 108
f 108 106 109
f 110 107 108
f 111 108 109
f 110 108 111
f 111 109 112
f 113 111 112
f 114 110 111
f 114 111 113
f 113 112 115
f 116 114 113
f 113 115 117
f 118 116 113
f 119 113 117
f 118 113 119
f 119 117 120
f 121 119 120
f 122 118 119
f 122 119 121
f 121 120 123
f 124 122 121
f 121 123 125
f 126 124 121
f 127 121 125
f 126 121 127
f 127 125 128
f 129 127 128
f 130 126 127
f 130 127 129
f 129 128 131
f 132 130 129
f 129 131 133
f 134 132 129
f 135 129 133
f 134 129 135
f 136 137 138
f 136 138 139
f 140 136 139
f 139 138 141
f 142 140 139
f 143 139 141
f 142 139 143
f 143 141 144
f 145 142 143
f 146 143 144
f 145 143 146
f 146 144 147
f 148 145 146
f 149 146 147
f 148 146 149
f 149 147 150
f 151 148 149
f 152 149 150
f 151 149 152
f 152 150 153
f 154 151 152
f 155 152 153
f 154 152 155
f 155 153 156
f 157 155 156
f 158 154 155
f 158 155 157
f 157 156 159
f 160 158 157
f 161 157 159
f 162 160 157
f 163 157 161
f 162 157 163
f 164 163 161
f 165 162 163
f 166 163 164
f 166 165 163
f 167 166 164
f 166 167 165
f 167 164 168
f 167 169 165
f 170 167 168
f 167 170 169
f 170 168 171
f 170 172 169
f 173 170 171
f 170 173 172
f 173 171 174
f 173 175 172
f 176 173 174
f 173 176 175
f 176 174 177
f 176 178 175
f 179 176 177
f 176 179 178
f 179 177 180
f 179 181 178
f 182 179 180
f 179 182 181
f 182 180 183
f 181 182 184
f 182 183 184
f 183 185 184
f 185 186 184
f 184 186 187
f 185 188 186
f 186 189 187
f 188 190 186
f 186 190 189
f 188 191 190
f 190 192 189
f 191 193 190
f 190 193 192
f 191 194 193
f 193 195 192
f 194 196 193
f 193 196 195
f 194 197 196
f 196 198 195
f 197 199 196
f 196 199 198
f 197 200 199
f 199 201 198
f 200 202 199
f 199 202 201
f 200 203 202
f 203 204 202
f 202 205 201
f 202 204 205
f 203 206 204
f 204 207 205
f 206 208 204
f 204 209 207
f 208 210 204
f 204 210 209
f 208 211 210
f 210 212 209
f 211 213 210
f 210 213 212
f 211 214 213
f 214 212 213
f 215 214 211
f 214 216 212
f 217 214 215
f 214 217 216
f 218 217 215
f 217 219 216
f 220 217 218
f 217 220 219
f 221 220 218
f 220 222 219
f 223 220 221
f 220 223 222
f 224 223 221
f 223 225 222
f 226 223 224
f 223 226 225
f 227 226 224
f 226 228 225
f 229 226 227
f 226 229 228
f 230 229 227
f 229 231 228
f 229 230 231
f 232 233 234
f 233 235 234
f 233 236 235
f 234 235 237
f 235 238 237
f 236 239 235
f 235 240 238
f 239 241 235
f 235 241 240
f 239 242 241
f 242 243 241
f 241 244 240
f 241 243 244
f 242 245 243
f 243 246 244
f 245 247 243
f 243 248 246
f 247 249 243
f 243 249 248
f 247 250 249
f 250 251 249
f 249 252 248
f 249 251 252
f 250 253 251
f 251 254 252
f 253 255 251
f 251 256 254
f 255 257 251
f 251 257 256
f 255 258 257
f 257 259 256
f 258 260 257
f 257 260 259
f 258 261 260
f 260 262 259
f 261 263 260
f 260 263 262
f 261 264 263
f 263 265 262
f 264 266 263
f 263 266 265
f 264 267 266
f 266 268 265
f 267 269 266
f 266 269 268
f 267 270 269
f 269 271 268
f 270 272 269
f 269 272 271
f 270 273 272
f 272 274 271
f 273 275 272
f 275 274 272
f 275 276 274
f 277 278 279
f 277 279 280
f 281 277 280
f 280 279 282
f 283 281 280
f 284 280 282
f 283 280 284
f 284 282 285
f 286 283 284
f 287 284 285
f 286 284 287
f 287 285 288
f 289 286 287
f 290 287 288
f 289 287 290
f 290 288 291
f 292 289 290
f 293 290 291
f 292 290 293
f 293 291 294
f 295 292 293
f 296 293 294
f 295 293 296
f 296 294 297
f 298 296 297
f 299 295 296
f 299 296 298
f 298 297 300
f 301 299 298
f 302 298 300
f 303 301 298
f 304 298 302
f 303 298 304
f 305 304 302
f 306 303 304
f 307 304 305
f 307 306 304
f 308 307 305
f 307 308 306
f 308 305 309
f 308 310 306
f 311 308 309
f 308 311 310
f 311 309 312
f 311 313 310
f 314 311 312
f 311 314 313
f 314 312 315
f 314 316 313
f 317 314 315
f 314 317 316
f 317 315 318
f 317 319 316
f 320 317 318
f 317 320 319
f 320 318 321
f 320 322 319
f 323 320 321
f 320 323 322
f 323 321 324
f 322 323 325
f 323 324 325
f 324 326 325
f 326 327 325
f 325 327 328
f 326 329 327
f 327 330 328
f 329 331 327
f 327 331 330
f 329 332 331
f 331 333 330
f 332 334 331
f 331 334 333
f 332 335 334
f 334 336 333
f 335 337 334
f 334 337 336
f 335 338 337
f 337 339 336
f 338 340 337
f 337 340 339
f 338 341 340
f 340 342 339
f 341 343 340
f 340 343 342
f 341 344 343
f 344 345 343
f 343 346 342
f 343 345 346
f 344 347 345
f 345 348 346
f 347 349 345
f 345 350 348
f 349 351 345
f 345 351 350
f 349 352 351
f 351 353 350
f 352 354 351
f 351 354 353
f 352 355 354
f 355 353 354
f 356 355 352
f 355 357 353
f 358 355 356
f 355 358 357
f 359 358 356
f 358 360 357
f 361 358 359
f 358 361 360
f 362 361 359
f 361 363 360
f 364 361 362
f 361 364 363
f 365 364 362
f 364 366 363
f 367 364 365
f 364 367 366
f 368 367 365
f 367 369 366
f 370 367 368
f 367 370 369
f 371 370 368
f 370 372 369
f 370 371 372
f 373 374 375
f 373 375 376
f 377 373 376
f 376 375 378
f 379 377 376
f 380 376 378
f 379 376 380
f 380 378 381
f 382 379 380
f 383 380 381
f 382 380 383
f 383 381 384
f 385 382 383
f 386 383 384
f 385 383 386
f 386 384 387
f 388 385 386
f 389 386 387
f 388 386 389
f 389 387 390
f 391 388 389
f 392 389 390
f 391 389 392
f 392 390 393
f 394 392 393
f 395 391 392
f 395 392 394
f 394 393 396
f 397 395 394
f 398 394 396
f 399 397 394
f 400 394 398
f 399 394 400
f 401 400 398
f 402 399 400
f 403 400 401
f 403 402 400
f 404 403 401
f 403 404 402
f 404 401 405
f 404 406 402
f 407 404 405
f 404 407 406
f 407 405 408
f 407 409 406
f 410 407 408
f 407 410 409
f 410 408 411
f 410 412 409
f 413 410 411
f 410 413 412
f 413 411 414
f 413 415 412
f 416 413 414
f 413 416 415
f 416 414 417
f 416 418 415
f 419 416 417
f 416 419 418
f 419 417 420
f 418 419 421
f 419 420 421
f 420 422 421
f 422 423 421
f 421 423 424
f 422 425 423
f 423 426 424
f 425 427 423
f 423 427 426
f 425 428 427
f 427 429 426
f 428 430 427
f 427 430 429
f 428 431 430
f 430 432 429
f 431 433 430
f 430 433 432
f 431 434 433
f 433 435 432
f 434 436 433
f 433 436 435
f 434 437 436
f 436 438 435
f 437 439 436
f 436 439 438
f 437 440 439
f 440 441 439
f 439 442 438
f 439 441 442
f 440 443 441
f 441 444 442
f 443 445 441
f 441 446 444
f 445 447 441
f 441 447 446
f 445 448 447
f 447 449 446
f 448 450 447
f 447 450 449
f 448 451 450
f 451 449 450
f 452 451 448
f 451 453 449
f 454 451 452
f 451 454 453
f 455 454 452
f 454 456 453
f 457 454 455
f 454 457 456
f 458 457 455
f 457 459 456
f 460 457 458
f 457 460 459
f 461 460 458
f 460 462 459
f 463 460 461
f 460 463 462
f 464 463 461
f 463 465 462
f 466 463 464
f 463 466 465
f 467 466 464
f 466 468 465
f 466 467 468
f 469 470 471
f 469 471 472
f 473 469 472
f 472 471 474
f 475 473 472
f 476 472 474
f 475 472 476
f 476 474 477
f 478 475 476
f 479 476 477
f 478 476 479
f 479 477 480
f 481 478 479
f 482 479 480
f 481 479 482
f 482 480 483
f 484 481 482
f 485 482 483
f 484 482 485
f 485 483 486
f 487 484 485
f 488 485 486
f 487 485 488
f 488 486 489
f 490 488 489
f 491 487 488
f 491 488 490
f 490 489 492
f 493 491 490
f 494 490 492
f 495 493 490
f 496 490 494
f 495 490 496
f 497 496 494
f 498 495 496
f 499 496 497
f 499 498 496
f 500 499 497
f 499 500 498
f 500 497 501
f 500 502 498
f 503 500 501
f 500 503 502
f 503 501 504
f 503 505 502
f 506 503 504
f 503 506 505
f 506 504 507
f 506 508 505
f 509 506 507
f 506 509 508
f 509 507 510
f 509 511 508
f 512 509 510
f 509 512 511
f 512 510 513
f 512 514 511
f 515 512 513
f 512 515 514
f 515 513 516
f 514 515 517
f 515 516 517
f 516 518 517
f 518 519 517
f 517 519 520
f 518 521 519
f 519 522 520
f 521 523 519
f 519 523 522
f 521 524 523
f 523 525 522
f 524 526 523
f 523 526 525
f 524 527 526
f 526 528 525
f 527 529 526
f 526 529 528
f 527 530 529
f 529 531 528
f 530 532 529
f 529 532 531
f 530 533 532
f 532 534 531
f 533 535 532
f 532 535 534
f 533 536 535
f 536 537 535
f 535 538 534
f 535 537 538
f 536 539 537
f 537 540 538
f 539 541 537
f 537 542 540
f 541 543 537
f 537 543 542
f 541 544 543
f 543 545 542
f 544 546 543
f 543 546 545
f 544 547 546
f 547 545 546
f 548 547 544
f 547 549 545
f 550 547 548
f 547 550 549
f 551 550 548
f 550 552 549
f 553 550 551
f 550 553 552
f 554 553 551
f 553 555 552
f 556 553 554
f 553 556 555
f 557 556 554
f 556 558 555
f 559 556 557
f 556 559 558
f 560 559 557
f 559 561 558
f 562 559 560
f 559 562 561
f 563 562 560
f 562 564 561
f 562 563 564
f 565 566 567
f 566 568 567
f 566 569 568
f 570 569 566
f 570 566 571
f 572 570 571
f 572 571 573
f 571 574 573
f 571 575 574
f 575 571 576
f 571 577 576
f 571 578 577
f 569 570 579
f 570 580 579
f 580 581 579
f 581 582 579
f 582 583 579
f 583 584 579
f 569 579 584
f 585 569 584
f 586 587 588
f 589 586 588
f 589 590 586
f 590 591 586
f 586 591 592
f 591 593 592
f 593 594 592
f 594 595 592
f 595 596 592
f 596 597 592
f 597 598 592
f 598 599 592
f 590 600 591
f 600 601 591
f 600 602 601
f 602 600 603
f 600 604 603
f 600 605 604
f 605 600 590
f 606 605 590
f 607 608 609
f 608 610 609
f 610 611 609
f 610 612 611
f 609 611 613
f 612 613 611
f 612 614 613
f 614 615 613
f 616 617 618
f 616 618 619
f 620 616 619
f 620 619 621
f 622 620 621
f 622 621 623
f 624 622 623
f 623 625 624
f 625 626 624
f 625 627 626
f 628 627 625
f 627 629 626
f 626 629 630
f 627 628 631
f 627 631 629
f 628 632 631
f 628 633 632
f 633 634 632
f 633 635 634
f 635 636 634
f 635 637 636
f 637 638 636
f 637 639 638
f 639 640 638
f 631 641 629
f 629 642 630
f 641 642 629
f 630 642 643
f 642 644 643
f 641 645 642
f 645 644 642
f 643 644 646
f 645 647 644
f 644 648 646
f 647 649 644
f 644 650 648
f 649 650 644
f 650 651 648
f 649 652 650
f 650 653 651
f 652 653 650
f 654 651 653
f 652 654 653
f 654 655 651
f 656 654 652
f 654 657 655
f 657 654 656
f 657 658 655
f 659 657 656
f 657 660 658
f 660 657 659
f 660 661 658
f 662 660 659
f 660 663 661
f 663 660 662
f 663 664 661
f 665 663 662
f 663 666 664
f 666 663 665
f 666 667 664
f 668 666 665
f 666 669 667
f 669 666 668
f 669 670 667
f 671 669 668
f 669 671 670
f 672 673 674
f 675 672 674
f 675 674 676
f 677 675 676
f 677 676 678
f 679 677 678
f 672 675 680
f 678 681 679
f 682 672 680
f 681 683 679
f 681 684 683
f 684 681 685
f 681 686 685
f 686 687 685
f 686 688 687
f 688 686 689
f 686 690 689
f 690 691 689
f 690 692 691
f 692 690 693
f 690 694 693
f 694 695 693
f 694 696 695
f 696 694 697
f 694 698 697
f 694 699 698
f 694 700 699
f 700 701 699
f 700 702 701
f 702 703 701
f 702 704 703
f 704 702 705
f 702 706 705
f 702 700 707
f 702 708 706
f 702 709 708
f 709 710 708
f 709 711 710
f 711 709 712
f 709 713 712
f 709 714 713
f 714 709 715
f 709 716 715
f 672 716 709
f 672 682 716
f 717 672 709
f 718 709 702
f 718 719 709
f 720 718 702
f 719 721 709
f 722 720 702
f 721 723 709
f 724 722 702
f 723 725 709
f 725 726 709
f 726 727 709
f 727 728 709
f 728 717 709
f 728 729 717
f 717 729 730
f 717 730 731
f 732 717 731
f 732 731 733
f 731 734 733
f 731 735 734
f 731 736 735
f 736 737 735
f 736 738 737
f 738 739 737
f 739 740 737
f 739 741 740
f 741 742 740
f 742 743 740
f 742 744 743
f 744 745 743
f 745 746 743
f 745 747 746
f 747 748 746
f 748 749 746
f 748 750 749
f 750 751 749
f 751 752 749
f 751 753 752
f 753 754 752
f 754 755 752
f 754 756 755
f 756 757 755
f 757 758 755
f 757 759 758
f 759 760 758
f 759 761 760
f 761 762 760
f 762 702 760
f 762 724 702
f 760 702 707
f 760 707 763
f 764 760 763
f 764 763 765
f 766 767 768
f 769 766 768
f 769 768 770
f 771 769 770
f 770 772 771
f 772 773 771
f 772 774 773
f 771 773 775
f 771 775 776
f 777 771 776
f 771 777 778
f 771 778 779
f 772 780 774
f 780 781 774
f 780 782 781
f 783 782 780
f 784 783 780
f 785 784 780
f 785 780 786
f 787 785 786
f 788 787 786
f 789 788 786
f 789 786 790
f 791 789 790
f 792 791 790
f 793 792 790
f 793 790 794
f 795 793 794
f 796 795 794
f 797 796 794
f 797 794 798
f 799 797 798
f 799 798 800
f 801 799 800
f 802 801 800
f 803 801 802
f 804 803 802
f 803 805 801
f 805 803 806
f 803 807 806
f 808 807 803
f 808 809 807
f 809 808 810
f 808 811 810
f 808 812 811
f 812 808 813
f 808 814 813
f 808 779 814
f 815 808 803
f 808 771 779
f 816 808 815
f 816 817 808
f 818 816 815
f 819 818 815
f 817 820 808
f 821 819 815
f 820 822 808
f 821 815 823
f 822 824 808
f 825 821 823
f 821 825 826
f 821 826 827
f 828 821 827
f 824 829 808
f 829 830 808
f 830 831 808
f 828 827 832
f 833 828 832
f 834 833 832
f 831 771 808
f 834 832 835
f 836 834 835
f 837 836 835
f 831 838 771
f 837 835 839
f 840 837 839
f 841 840 839
f 838 842 771
f 842 843 771
f 843 844 771
f 841 839 845
f 846 841 845
f 847 846 845
f 844 769 771
f 769 844 848
f 769 848 849
f 850 769 849
f 849 851 850
f 847 845 852
f 853 847 852
f 854 853 852
f 851 855 850
f 851 856 855
f 856 857 855
f 854 852 858
f 857 858 855
f 859 854 858
f 857 859 858
f 860 861 862
f 863 860 862
f 861 864 862
f 865 863 862
f 865 862 864
f 865 866 863
f 866 865 864
f 866 867 863
f 866 864 868
f 866 869 867
f 869 866 868
f 869 870 867
f 869 868 871
f 870 869 872
f 869 871 872
f 870 872 873
f 873 872 871
f 874 870 873
f 875 873 871
f 876 874 873
f 876 873 875
f 876 877 874
f 877 876 875
f 877 878 874
f 877 875 879
f 877 880 878
f 880 877 879
f 880 881 878
f 880 879 882
f 880 883 881
f 883 880 882
f 883 884 881
f 883 882 885
f 883 886 884
f 886 883 885
f 886 887 884
f 886 885 888
f 887 886 888
f 889 890 891
f 889 891 892
f 890 889 893
f 893 889 892
f 894 895 896
f 894 896 897
f 895 894 898
f 898 894 897
f 899 900 901
f 902 899 901
f 899 903 900
f 903 899 902
f 904 905 906
f 904 906 907
f 905 904 908
f 908 904 907
f 909 910 911
f 909 911 912
f 910 909 913
f 914 909 912
f 909 914 913
f 914 912 915
f 913 914 916
f 917 914 915
f 914 917 916
f 917 915 918
f 916 917 919
f 920 917 918
f 917 920 919
f 918 921 920
f 919 920 922
f 921 923 920
f 920 923 922
f 921 924 923
f 924 922 923
f 924 921 925
f 924 926 922
f 924 925 927
f 926 924 927
f 928 927 925
f 926 927 928
f 929 928 925
f 930 926 928
f 931 928 929
f 930 928 931
f 932 931 929
f 933 930 931
f 934 931 932
f 934 933 931
f 935 934 932
f 934 935 933
f 935 932 936
f 935 937 933
f 937 935 936
f 938 939 940
f 941 938 940
f 938 942 939
f 942 938 941
f 943 944 945
f 944 943 946
f 944 947 945
f 944 946 948
f 947 944 949
f 950 944 948
f 944 951 949
f 944 950 952
f 944 953 951
f 944 952 954
f 953 944 955
f 956 944 954
f 944 957 955
f 944 956 958
f 944 959 957
f 944 958 960
f 959 944 961
f 962 944 960
f 944 963 961
f 944 962 964
f 944 965 963
f 944 964 966
f 965 944 967
f 968 944 966
f 944 969 967
f 944 968 970
f 944 971 969
f 944 970 972
f 971 944 973
f 974 944 972
f 944 975 973
f 944 974 975
f 976 977 978
f 977 976 979
f 977 980 978
f 977 979 981
f 980 977 982
f 983 977 981
f 977 984 982
f 977 983 985
f 977 986 984
f 977 985 987
f 986 977 988
f 989 977 987
f 977 990 988
f 977 989 991
f 977 992 990
f 977 991 993
f 992 977 994
f 995 977 993
f 977 996 994
f 977 995 997
f 977 998 996
f 977 997 999
f 998 977 1000
f 1001 977 999
f 977 1002 1000
f 977 1001 1003
f 977 1004 1002
f 977 1003 1005
f 1004 977 1006
f 1007 977 1005
f 977 1008 1006
f 977 1007 1008
f 1009 1010 1011
f 1010 1009 1012
f 1010 1012 1013
f 1014 1010 1013
f 1010 1015 1011
f 1010 1014 1016
f 1010 1017 1015
f 1017 1018 1015
f 1017 1019 1018
f 1019 1017 1020
f 1017 1021 1020
f 1017 1022 1021
f 1022 1017 1023
f 1017 1024 1023
f 1017 1025 1024
f 1025 1017 1026
f 1017 1027 1026
f 1017 1028 1027
f 1017 1029 1028
f 1010 1016 1030
f 1031 1010 1030
f 1029 1031 1032
f 1033 1030 1016
f 1030 1033 1034
f 1030 1034 1035
f 1036 1030 1035
f 1030 1036 1037
f 1030 1037 1038
f 1039 1030 1038
f 1030 1039 1040
f 1030 1040 1041
f 1042 1030 1041
f 1030 1042 1043
f 1030 1043 1044
f 1045 1030 1044
f 1030 1045 1046
f 1045 1047 1046
f 1045 1048 1047
f 1030 1046 1049
f 1048 1050 1047
f 1048 1028 1050
f 1030 1049 1051
f 1029 1050 1028
f 1029 1052 1050
f 1052 1029 1053
f 1029 1054 1053
f 1029 1055 1054
f 1056 1030 1051
f 1030 1056 1057
f 1030 1057 1058
f 1059 1030 1058
f 1060 1030 1059
f 1055 1029 1061
f 1030 1060 1062
f 1029 1063 1061
f 1030 1062 1064
f 1029 1065 1063
f 1066 1030 1064
f 1065 1029 1067
f 1029 1068 1067
f 1029 1069 1068
f 1069 1029 1032
f 1030 1066 1070
f 1030 1070 1071
f 1072 1030 1071
f 1031 1030 1072
f 1031 1073 1032
f 1074 1031 1072
f 1031 1075 1073
f 1031 1074 1076
f 1075 1031 1077
f 1031 1076 1077
f 1078 1079 1080
f 1079 1078 1081
f 1079 1082 1080
f 1079 1081 1083
f 1079 1084 1082
f 1084 1079 1083
f 1084 1085 1082
f 1084 1083 1086
f 1084 1087 1085
f 1087 1084 1086
f 1087 1088 1085
f 1087 1086 1089
f 1087 1090 1088
f 1090 1087 1089
