# ROS coordinates: X forward, Y left, Z up; units are metres.
o mesh
v 0.06434648 0.0772289038 0.0605522431
v 0.09184649 0.0772289038 0.01705224
v 0.03684648 0.0772289038 0.01705224
v 0.03684648 0.0772289038 0.104052246
v 0.09184649 0.0772289038 0.104052246
v 0.06434648 0.0704789 0.01305224
v 0.09184649 0.07322891 0.01305224
v 0.09184649 0.06772891 0.01305224
v 0.03684648 0.0677289 0.01305224
v 0.03684648 0.0732289 0.01305224
v 0.09584649 0.07047891 0.0605522431
v 0.09584649 0.07322891 0.01705224
v 0.09584649 0.07322891 0.104052246
v 0.09584649 0.06772891 0.104052246
v 0.09584649 0.06772891 0.01705224
v 0.0328464732 0.0704789 0.0605522431
v 0.0328464732 0.0732289 0.01705224
v 0.0328464732 0.0677289 0.01705224
v 0.0328464732 0.0677289 0.104052246
v 0.0328464732 0.0732289 0.104052246
v 0.06434648 0.0637289062 0.0605522431
v 0.09184649 0.0637289062 0.01705224
v 0.09184649 0.0637289062 0.104052246
v 0.03684648 0.0637289 0.104052246
v 0.03684648 0.0637289 0.01705224
v 0.06434648 0.0704789 0.108052246
v 0.03684648 0.0732289 0.108052246
v 0.03684648 0.0677289 0.108052246
v 0.09184649 0.06772891 0.108052246
v 0.09184649 0.07322891 0.108052246
v 0.06434648 0.07395676 0.0131190186
v 0.03684648 0.07395675 0.0131190186
v 0.03684648 0.07470128 0.0133330869
v 0.03684648 0.0732289 0.01305224
v 0.09184649 0.07322891 0.01305224
v 0.09184649 0.07395676 0.0131190186
v 0.06434648 0.07470128 0.0133330869
v 0.03684648 0.07541774 0.013704258
v 0.09184649 0.07470129 0.0133330869
v 0.06434648 0.07541774 0.013704258
v 0.0368464775 0.07605733 0.0142238131
v 0.09184649 0.07541774 0.013704258
v 0.06434648 0.07605733 0.0142238131
v 0.03684648 0.07657688 0.0148634007
v 0.09184649 0.07605734 0.0142238131
v 0.06434648 0.07657689 0.0148634007
v 0.03684648 0.0769480541 0.0155798607
v 0.09184649 0.07657689 0.0148634007
v 0.06434648 0.07694806 0.0155798607
v 0.03684648 0.0771621242 0.0163243879
v 0.09184649 0.07694806 0.0155798607
v 0.06434648 0.0771621242 0.0163243879
v 0.03684648 0.0772289038 0.01705224
v 0.09184649 0.07716213 0.0163243879
v 0.09184649 0.0772289038 0.01705224
v 0.09577971 0.07395676 0.0605522431
v 0.09577971 0.07395676 0.01705224
v 0.09556564 0.07470129 0.01705224
v 0.09584649 0.07322891 0.01705224
v 0.09584649 0.07322891 0.104052246
v 0.09577971 0.07395676 0.104052246
v 0.09556564 0.07470129 0.0605522431
v 0.0951944739 0.07541775 0.01705224
v 0.09556564 0.07470129 0.104052246
v 0.0951944739 0.07541775 0.0605522431
v 0.0946749151 0.07605734 0.01705224
v 0.0951944739 0.07541775 0.104052246
v 0.0946749151 0.07605734 0.0605522431
v 0.09403533 0.07657689 0.01705224
v 0.0946749151 0.07605734 0.104052246
v 0.09403533 0.07657689 0.0605522431
v 0.0933188647 0.07694806 0.01705224
v 0.09403533 0.07657689 0.104052246
v 0.0933188647 0.07694806 0.0605522431
v 0.0925743356 0.07716213 0.01705224
v 0.0933188647 0.07694806 0.104052246
v 0.0925743356 0.07716213 0.0605522431
v 0.09184649 0.0772289038 0.01705224
v 0.0925743356 0.07716213 0.104052246
v 0.09184649 0.0772289038 0.104052246
v 0.09577971 0.07047891 0.0163243879
v 0.09577971 0.06772891 0.0163243879
v 0.09556564 0.06772891 0.0155798607
v 0.09584649 0.06772891 0.01705224
v 0.09584649 0.07322891 0.01705224
v 0.09577971 0.07322891 0.0163243879
v 0.09556564 0.07047891 0.0155798607
v 0.0951944739 0.06772891 0.0148634007
v 0.09556564 0.07322891 0.0155798607
v 0.0951944739 0.07047891 0.0148634007
v 0.0946749151 0.06772891 0.0142238131
v 0.0951944739 0.07322891 0.0148634007
v 0.0946749151 0.07047891 0.0142238131
v 0.09403533 0.06772891 0.013704258
v 0.0946749151 0.07322891 0.0142238131
v 0.09403533 0.07047891 0.013704258
v 0.0933188647 0.06772891 0.0133330869
v 0.09403533 0.07322891 0.013704258
v 0.0933188647 0.07047891 0.0133330869
v 0.09257434 0.06772891 0.0131190186
v 0.0933188647 0.07322891 0.0133330869
v 0.09257434 0.07047891 0.0131190186
v 0.09184649 0.06772891 0.01305224
v 0.09257434 0.07322891 0.0131190186
v 0.09184649 0.07322891 0.01305224
v 0.06434648 0.07395676 0.107985467
v 0.09184649 0.07395676 0.107985467
v 0.09184649 0.07470129 0.1077714
v 0.09184649 0.07322891 0.108052246
v 0.03684648 0.0732289 0.108052246
v 0.03684648 0.07395675 0.107985467
v 0.06434648 0.07470128 0.1077714
v 0.09184649 0.07541774 0.107400224
v 0.03684648 0.07470128 0.1077714
v 0.06434648 0.07541774 0.107400224
v 0.09184649 0.07605734 0.106880672
v 0.03684648 0.07541774 0.107400224
v 0.06434648 0.07605733 0.106880672
v 0.09184649 0.07657689 0.106241085
v 0.0368464775 0.07605733 0.106880672
v 0.06434648 0.07657689 0.106241085
v 0.09184649 0.07694806 0.105524629
v 0.03684648 0.07657688 0.106241085
v 0.06434648 0.07694806 0.105524629
v 0.09184649 0.07716213 0.104780093
v 0.03684648 0.0769480541 0.105524629
v 0.06434648 0.0771621242 0.104780093
v 0.09184649 0.0772289038 0.104052246
v 0.03684648 0.0771621242 0.104780093
v 0.03684648 0.0772289038 0.104052246
v 0.03291326 0.07395675 0.0605522431
v 0.03291326 0.07395675 0.104052246
v 0.03312733 0.07470128 0.104052246
v 0.0328464732 0.0732289 0.104052246
v 0.0328464732 0.0732289 0.01705224
v 0.03291326 0.07395675 0.01705224
v 0.03312733 0.07470128 0.0605522431
v 0.0334984958 0.07541774 0.104052246
v 0.03312733 0.07470128 0.01705224
v 0.0334984958 0.07541774 0.0605522431
v 0.03401805 0.07605733 0.104052246
v 0.0334984958 0.07541774 0.01705224
v 0.03401805 0.07605733 0.0605522431
v 0.0346576348 0.07657688 0.104052246
v 0.03401805 0.07605733 0.01705224
v 0.0346576348 0.07657688 0.0605522431
v 0.0353740975 0.0769480541 0.104052246
v 0.0346576348 0.07657688 0.01705224
v 0.0353740975 0.0769480541 0.0605522431
v 0.0361186266 0.0771621242 0.104052246
v 0.0353740975 0.0769480541 0.01705224
v 0.0361186266 0.0771621242 0.0605522431
v 0.03684648 0.0772289038 0.104052246
v 0.0361186266 0.0771621242 0.01705224
v 0.03684648 0.0772289038 0.01705224
v 0.0361186229 0.0704789 0.0131190186
v 0.0361186266 0.0677289 0.0131190186
v 0.0353741 0.0677289 0.0133330869
v 0.03684648 0.0677289 0.01305224
v 0.03684648 0.0732289 0.01305224
v 0.0361186266 0.0732289 0.0131190186
v 0.0353740975 0.0704789 0.0133330869
v 0.03465764 0.0677289 0.013704258
v 0.0353741 0.0732289 0.0133330869
v 0.0346576348 0.0704789 0.013704258
v 0.0340180546 0.0677289 0.0142238131
v 0.03465764 0.0732289 0.013704258
v 0.03401805 0.0704789 0.0142238131
v 0.0334984958 0.0677289 0.0148634007
v 0.0340180546 0.0732289 0.0142238131
v 0.0334984921 0.0704789 0.0148634007
v 0.03312733 0.0677289 0.0155798607
v 0.0334984958 0.0732289 0.0148634007
v 0.03312733 0.0704789 0.0155798607
v 0.03291326 0.0677289 0.0163243879
v 0.03312733 0.0732289 0.0155798607
v 0.03291326 0.0704789 0.0163243879
v 0.0328464732 0.0677289 0.01705224
v 0.03291326 0.0732289 0.0163243879
v 0.0328464732 0.0732289 0.01705224
v 0.06434648 0.06700105 0.0131190186
v 0.09184649 0.06700105 0.0131190186
v 0.09184649 0.06625653 0.0133330869
v 0.09184649 0.06772891 0.01305224
v 0.03684648 0.0677289 0.01305224
v 0.03684648 0.0670010448 0.0131190186
v 0.06434648 0.06625652 0.0133330869
v 0.09184649 0.06554007 0.013704258
v 0.03684648 0.06625652 0.0133330869
v 0.06434648 0.06554006 0.013704258
v 0.09184649 0.06490048 0.0142238131
v 0.03684648 0.06554006 0.013704258
v 0.06434648 0.06490047 0.0142238131
v 0.09184649 0.06438092 0.0148634007
v 0.03684648 0.06490047 0.0142238131
v 0.06434648 0.06438092 0.0148634007
v 0.09184649 0.0640097558 0.0155798607
v 0.03684648 0.064380914 0.0148634007
v 0.06434648 0.06400975 0.0155798607
v 0.09184649 0.0637956858 0.0163243879
v 0.03684648 0.06400975 0.0155798607
v 0.06434648 0.06379568 0.0163243879
v 0.09184649 0.0637289062 0.01705224
v 0.03684648 0.06379568 0.0163243879
v 0.03684648 0.0637289 0.01705224
v 0.09577971 0.06700105 0.0605522431
v 0.09577971 0.06700105 0.104052246
v 0.09556564 0.06625653 0.104052246
v 0.09584649 0.06772891 0.104052246
v 0.09584649 0.06772891 0.01705224
v 0.09577971 0.06700105 0.01705224
v 0.09556564 0.06625653 0.0605522431
v 0.0951944739 0.06554007 0.104052246
v 0.09556564 0.06625653 0.01705224
v 0.0951944739 0.06554007 0.0605522431
v 0.0946749151 0.06490048 0.104052246
v 0.0951944739 0.06554007 0.01705224
v 0.0946749151 0.06490048 0.0605522431
v 0.09403533 0.06438092 0.104052246
v 0.0946749151 0.06490048 0.01705224
v 0.09403533 0.06438092 0.0605522431
v 0.0933188647 0.0640097558 0.104052246
v 0.09403533 0.06438092 0.01705224
v 0.0933188647 0.0640097558 0.0605522431
v 0.09257434 0.0637956858 0.104052246
v 0.0933188647 0.0640097558 0.01705224
v 0.09257434 0.0637956858 0.0605522431
v 0.09184649 0.0637289062 0.104052246
v 0.09257434 0.0637956858 0.01705224
v 0.09184649 0.0637289062 0.01705224
v 0.09257434 0.07047891 0.107985467
v 0.09257434 0.06772891 0.107985467
v 0.0933188647 0.06772891 0.1077714
v 0.09184649 0.06772891 0.108052246
v 0.09184649 0.07322891 0.108052246
v 0.09257434 0.07322891 0.107985467
v 0.0933188647 0.07047891 0.1077714
v 0.09403533 0.06772891 0.107400224
v 0.0933188647 0.07322891 0.1077714
v 0.09403533 0.07047891 0.107400224
v 0.0946749151 0.06772891 0.106880672
v 0.09403533 0.07322891 0.107400224
v 0.0946749151 0.07047891 0.106880672
v 0.0951944739 0.06772891 0.106241085
v 0.0946749151 0.07322891 0.106880672
v 0.0951944739 0.07047891 0.106241085
v 0.09556564 0.06772891 0.105524629
v 0.0951944739 0.07322891 0.106241085
v 0.09556564 0.07047891 0.105524629
v 0.09577971 0.06772891 0.104780093
v 0.09556564 0.07322891 0.105524629
v 0.09577971 0.07047891 0.104780093
v 0.09584649 0.06772891 0.104052246
v 0.09577971 0.07322891 0.104780093
v 0.09584649 0.07322891 0.104052246
v 0.03291326 0.0704789 0.104780093
v 0.03291326 0.0677289 0.104780093
v 0.03312733 0.0677289 0.105524629
v 0.0328464732 0.0677289 0.104052246
v 0.0328464732 0.0732289 0.104052246
v 0.03291326 0.0732289 0.104780093
v 0.03312733 0.0704789 0.105524629
v 0.0334984958 0.0677289 0.106241085
v 0.03312733 0.0732289 0.105524629
v 0.0334984921 0.0704789 0.106241085
v 0.0340180546 0.0677289 0.106880672
v 0.0334984958 0.0732289 0.106241085
v 0.03401805 0.0704789 0.106880672
v 0.03465764 0.0677289 0.107400224
v 0.0340180546 0.0732289 0.106880672
v 0.0346576348 0.0704789 0.107400224
v 0.0353741 0.0677289 0.1077714
v 0.03465764 0.0732289 0.107400224
v 0.0353740975 0.0704789 0.1077714
v 0.0361186266 0.0677289 0.107985467
v 0.0353741 0.0732289 0.1077714
v 0.0361186229 0.0704789 0.107985467
v 0.03684648 0.0677289 0.108052246
v 0.0361186266 0.0732289 0.107985467
v 0.03684648 0.0732289 0.108052246
v 0.03291326 0.0670010448 0.0605522431
v 0.03291326 0.0670010448 0.01705224
v 0.03312733 0.06625652 0.01705224
v 0.0328464732 0.0677289 0.01705224
v 0.0328464732 0.0677289 0.104052246
v 0.03291326 0.0670010448 0.104052246
v 0.03312733 0.06625652 0.0605522431
v 0.0334984958 0.06554006 0.01705224
v 0.03312733 0.06625652 0.104052246
v 0.0334984958 0.06554006 0.0605522431
v 0.0340180546 0.06490047 0.01705224
v 0.0334984958 0.06554006 0.104052246
v 0.0340180546 0.06490047 0.0605522431
v 0.03465764 0.064380914 0.01705224
v 0.0340180546 0.06490047 0.104052246
v 0.03465764 0.064380914 0.0605522431
v 0.0353741 0.06400975 0.01705224
v 0.03465764 0.064380914 0.104052246
v 0.0353741 0.06400975 0.0605522431
v 0.0361186266 0.06379568 0.01705224
v 0.0353741 0.06400975 0.104052246
v 0.0361186266 0.06379568 0.0605522431
v 0.03684648 0.0637289 0.01705224
v 0.0361186266 0.06379568 0.104052246
v 0.03684648 0.0637289 0.104052246
v 0.06434648 0.06700105 0.107985467
v 0.03684648 0.0670010448 0.107985467
v 0.03684648 0.06625652 0.1077714
v 0.03684648 0.0677289 0.108052246
v 0.09184649 0.06772891 0.108052246
v 0.09184649 0.06700105 0.107985467
v 0.06434648 0.06625652 0.1077714
v 0.03684648 0.06554006 0.107400224
v 0.09184649 0.06625653 0.1077714
v 0.06434648 0.06554006 0.107400224
v 0.03684648 0.06490047 0.106880672
v 0.09184649 0.06554007 0.107400224
v 0.06434648 0.06490047 0.106880672
v 0.03684648 0.064380914 0.106241085
v 0.09184649 0.06490048 0.106880672
v 0.06434648 0.06438092 0.106241085
v 0.03684648 0.06400975 0.105524629
v 0.09184649 0.06438092 0.106241085
v 0.06434648 0.06400975 0.105524629
v 0.03684648 0.06379568 0.104780093
v 0.09184649 0.0640097558 0.105524629
v 0.06434648 0.06379568 0.104780093
v 0.03684648 0.0637289 0.104052246
v 0.09184649 0.0637956858 0.104780093
v 0.09184649 0.0637289062 0.104052246
v 0.03465764 0.064380914 0.104052246
v 0.034047123 0.06487623 0.104213148
v 0.0340180546 0.06490047 0.104052246
v 0.0334984958 0.06554006 0.104052246
v 0.03435587 0.0647057146 0.104862928
v 0.0335658453 0.06550445 0.104590058
v 0.03495848 0.0642208457 0.1044115
v 0.0353741 0.06400975 0.104052246
v 0.0353337079 0.0641373843 0.104953654
v 0.0334520973 0.06562131 0.104242571
v 0.03312733 0.06625652 0.104052246
v 0.0331875 0.06618142 0.104518309
v 0.03597893 0.0638396442 0.10440015
v 0.0361186266 0.06379568 0.104052246
v 0.03684648 0.0637289 0.104052246
v 0.0364985764 0.0638396442 0.1049198
v 0.03684648 0.06379568 0.104780093
v 0.03684648 0.06400975 0.105524629
v 0.0359450728 0.0641373843 0.105565012
v 0.0347682 0.06461399 0.1054587
v 0.0338868 0.06532718 0.105265535
v 0.03668036 0.0642648339 0.106045395
v 0.03684648 0.064380914 0.106241085
v 0.0354400277 0.06461399 0.106130525
v 0.03624803 0.06475405 0.106658414
v 0.03684648 0.06490047 0.106880672
v 0.03431545 0.06523183 0.105884872
v 0.03330086 0.06606496 0.104864582
v 0.03501385 0.06523183 0.106583282
v 0.0358538143 0.06537743 0.107132055
v 0.0336207 0.0658883154 0.105537713
v 0.0340478569 0.0657933 0.106154904
v 0.03677222 0.06566402 0.107477263
v 0.03684648 0.06554006 0.107400224
v 0.03684648 0.06625652 0.1077714
v 0.0347438268 0.0657933 0.10685087
v 0.0355808735 0.06593839 0.107397743
v 0.0364960879 0.06622399 0.107741743
v 0.03622725 0.0668338463 0.107901327
v 0.03684648 0.0670010448 0.107985467
v 0.0353419855 0.06655759 0.107568577
v 0.0345323235 0.06641725 0.107039593
v 0.0338591263 0.06641725 0.106366396
v 0.03344595 0.06650916 0.105769411
v 0.0359775275 0.0674674362 0.107947946
v 0.03684648 0.0677289 0.108052246
v 0.0361186266 0.0677289 0.107985467
v 0.0353741 0.0677289 0.1077714
v 0.0351479352 0.06720856 0.107636124
v 0.03465764 0.0677289 0.107400224
v 0.0343891829 0.06707704 0.107140407
v 0.0340180546 0.0677289 0.106880672
v 0.0337583125 0.06707704 0.106509537
v 0.0334984958 0.0677289 0.106241085
v 0.03337112 0.06716317 0.105950095
v 0.03312733 0.0677289 0.105524629
v 0.0330811962 0.06732329 0.105339929
v 0.0331365764 0.06668002 0.10511829
v 0.0329784453 0.06742886 0.105026044
v 0.03291326 0.0677289 0.104780093
v 0.0330269262 0.06679267 0.104783356
v 0.03310679 0.0663144961 0.104171433
v 0.03291326 0.0670010448 0.104052246
v 0.0329486281 0.06692189 0.104446612
v 0.0329048559 0.06755042 0.10470932
v 0.0329027846 0.0670633242 0.1041179
v 0.0328464732 0.0677289 0.104052246
v 0.0328621119 0.06768249 0.10440243
v 0.09577971 0.06772891 0.104780093
v 0.0957421958 0.06746744 0.104921192
v 0.09584649 0.06772891 0.104052246
v 0.09556564 0.06772891 0.105524629
v 0.09577971 0.06700105 0.104052246
v 0.09543037 0.0672085658 0.105750792
v 0.0951944739 0.06772891 0.106241085
v 0.09569557 0.06683385 0.104671478
v 0.09556564 0.06625653 0.104052246
v 0.09493466 0.06707705 0.106509537
v 0.0946749151 0.06772891 0.106880672
v 0.09536281 0.0665576 0.105556741
v 0.09553599 0.0662239939 0.104402632
v 0.09430379 0.06707705 0.107140407
v 0.09403533 0.06772891 0.107400224
v 0.09527151 0.06566403 0.1041265
v 0.0951944739 0.06554007 0.104052246
v 0.0946749151 0.06490048 0.104052246
v 0.09483384 0.0664172545 0.106366396
v 0.0951919854 0.0659384 0.105317838
v 0.09374433 0.06716318 0.107527614
v 0.0933188647 0.06772891 0.1077714
v 0.0949263 0.06537744 0.105044916
v 0.09416064 0.0664172545 0.107039593
v 0.09464511 0.0657933056 0.106154904
v 0.09445266 0.064754054 0.104650684
v 0.09403533 0.06438092 0.104052246
v 0.0943775252 0.06523184 0.105884872
v 0.09394914 0.0657933056 0.10685087
v 0.0935636461 0.0665091649 0.107452773
v 0.0931341648 0.0673233 0.107817523
v 0.0938396454 0.06426484 0.104218371
v 0.0933188647 0.0640097558 0.104052246
v 0.09392477 0.064614 0.1054587
v 0.0936791152 0.06523184 0.106583282
v 0.09282029 0.06742886 0.107920274
v 0.09257434 0.06772891 0.107985467
v 0.0933319554 0.06588832 0.107278019
v 0.09291254 0.06668003 0.10776215
v 0.09335926 0.06413739 0.104953654
v 0.09325294 0.064614 0.106130525
v 0.09305978 0.06532719 0.107011922
v 0.09265882 0.06606497 0.107597865
v 0.09271404 0.06383965 0.10440015
v 0.09257434 0.0637956858 0.104052246
v 0.09184649 0.0637289062 0.104052246
v 0.0927479 0.06413739 0.105565012
v 0.09219439 0.06383965 0.1049198
v 0.09184649 0.0637956858 0.104780093
v 0.09184649 0.0640097558 0.105524629
v 0.09265717 0.0647057146 0.106542856
v 0.09220574 0.06422085 0.105940238
v 0.09184649 0.06438092 0.106241085
v 0.09238429 0.0655044541 0.10733287
v 0.0920074 0.064876236 0.106851593
v 0.09184649 0.06490048 0.106880672
v 0.09184649 0.06554007 0.107400224
v 0.09203682 0.06562132 0.107446626
v 0.09184649 0.06625653 0.1077714
v 0.09231255 0.06618143 0.107711226
v 0.09257761 0.0667926744 0.107871793
v 0.09196568 0.0663145 0.10779193
v 0.09184649 0.06700105 0.107985467
v 0.0922408551 0.0669219 0.107950091
v 0.09250356 0.06755043 0.107993871
v 0.09191214 0.06706333 0.107995942
v 0.09184649 0.06772891 0.108052246
v 0.09219667 0.0676825 0.108036608
v 0.03684648 0.064380914 0.0148634007
v 0.0366855748 0.06487623 0.014252888
v 0.03684648 0.06490047 0.0142238131
v 0.03684648 0.06554006 0.013704258
v 0.0360357948 0.0647057146 0.0145616317
v 0.0363086723 0.06550445 0.0137716057
v 0.03648722 0.0642208457 0.0151642468
v 0.03684648 0.06400975 0.0155798607
v 0.0359450728 0.0641373843 0.0155394692
v 0.03665615 0.06562131 0.0136578577
v 0.03684648 0.06625652 0.0133330869
v 0.0363804176 0.06618142 0.0133932661
v 0.0364985764 0.0638396442 0.01618469
v 0.03684648 0.06379568 0.0163243879
v 0.03684648 0.0637289 0.01705224
v 0.03597893 0.0638396442 0.0167043358
v 0.0361186266 0.06379568 0.01705224
v 0.0353741 0.06400975 0.01705224
v 0.0353337079 0.0641373843 0.0161508322
v 0.0354400277 0.06461399 0.0149739627
v 0.03563319 0.06532718 0.0140925646
v 0.034853328 0.0642648339 0.0168861188
v 0.03465764 0.064380914 0.01705224
v 0.0347682 0.06461399 0.0156457871
v 0.03424031 0.06475405 0.0164537914
v 0.0340180546 0.06490047 0.01705224
v 0.03501385 0.06523183 0.0145212067
v 0.03603415 0.06606496 0.0135066193
v 0.03431545 0.06523183 0.01521961
v 0.0337666646 0.06537743 0.0160595812
v 0.0353610143 0.0658883154 0.0138264615
v 0.0347438268 0.0657933 0.0142536145
v 0.0334214568 0.06566402 0.01697798
v 0.0334984958 0.06554006 0.01705224
v 0.03312733 0.06625652 0.01705224
v 0.0340478569 0.0657933 0.014949589
v 0.0335009843 0.06593839 0.0157866385
v 0.03315697 0.06622399 0.0167018473
v 0.0329974 0.0668338463 0.016433008
v 0.03291326 0.0670010448 0.01705224
v 0.03333015 0.06655759 0.0155477477
v 0.0338591263 0.06641725 0.0147380885
v 0.0345323235 0.06641725 0.0140648875
v 0.0351293162 0.06650916 0.0136517137
v 0.0329507664 0.0674674362 0.0161832869
v 0.0328464732 0.0677289 0.01705224
v 0.03291326 0.0677289 0.0163243879
v 0.03312733 0.0677289 0.0155798607
v 0.033262603 0.06720856 0.0153536918
v 0.0334984958 0.0677289 0.0148634007
v 0.0337583125 0.06707704 0.0145949433
v 0.0340180546 0.0677289 0.0142238131
v 0.0343891829 0.06707704 0.0139640737
v 0.03465764 0.0677289 0.013704258
v 0.0349486321 0.06716317 0.0135768792
v 0.0353741 0.0677289 0.0133330869
v 0.0355588 0.06732329 0.0132869557
v 0.0357804224 0.06668002 0.0133423368
v 0.0358726755 0.06742886 0.0131842066
v 0.0361186266 0.0677289 0.0131190186
v 0.0361153632 0.06679267 0.0132326931
v 0.0367272831 0.0663144961 0.013312554
v 0.03684648 0.0670010448 0.0131190186
v 0.03645211 0.06692189 0.0131543931
v 0.0361894 0.06755042 0.0131106162
v 0.03678082 0.0670633242 0.0131085487
v 0.03684648 0.0677289 0.01305224
v 0.0364962928 0.06768249 0.0130678685
v 0.03295219 0.0740277544 0.104495332
v 0.03291326 0.07395675 0.104052246
v 0.0328464732 0.0732289 0.104052246
v 0.03291326 0.0732289 0.104780093
v 0.03312733 0.07470128 0.104052246
v 0.0330742449 0.07369209 0.105299525
v 0.03312733 0.0732289 0.105524629
v 0.0332712457 0.07487699 0.104760408
v 0.0334984958 0.07541774 0.104052246
v 0.03337659 0.07333587 0.106039315
v 0.0334984958 0.0732289 0.106241085
v 0.0334156156 0.07460156 0.105583578
v 0.0337238126 0.0742618 0.106328659
v 0.03377795 0.07565257 0.104894847
v 0.03401805 0.07605733 0.104052246
v 0.03395678 0.07542988 0.105727166
v 0.0344228148 0.07629743 0.104894847
v 0.0346576348 0.07657688 0.104052246
v 0.0341701 0.07388143 0.106952444
v 0.0340180546 0.0732289 0.106880672
v 0.034273278 0.07510282 0.106474444
v 0.0346454941 0.0761186 0.105727166
v 0.0349946767 0.0766932145 0.1048068
v 0.0353740975 0.0769480541 0.104052246
v 0.03462565 0.07354845 0.107363708
v 0.03465764 0.0732289 0.107400224
v 0.0353741 0.0732289 0.1077714
v 0.03470223 0.07469592 0.107093625
v 0.0349725522 0.0758021 0.106474444
v 0.03525625 0.0765413 0.10563314
v 0.0356183723 0.07698957 0.104643129
v 0.0361186266 0.0771621242 0.104052246
v 0.0351255536 0.07431362 0.107496336
v 0.035607025 0.0738933459 0.107796878
v 0.03537945 0.07537314 0.107093625
v 0.03559267 0.0762312859 0.106378973
v 0.0359223634 0.0768578053 0.105458327
v 0.035761755 0.07494982 0.107496336
v 0.035980016 0.07578879 0.107001185
v 0.0362689942 0.0765526444 0.106201485
v 0.0363259465 0.07534029 0.107409485
v 0.036635004 0.0761000142 0.106829286
v 0.03618203 0.0744683444 0.107796878
v 0.03669194 0.0748212561 0.107718378
v 0.03684648 0.07541774 0.107400224
v 0.0368464775 0.07605733 0.106880672
v 0.03684648 0.07657688 0.106241085
v 0.03684648 0.07470128 0.1077714
v 0.03684648 0.0769480541 0.105524629
v 0.0366211981 0.07395042 0.107980169
v 0.03684648 0.07395675 0.107985467
v 0.03684648 0.0732289 0.108052246
v 0.036608804 0.07704995 0.105211169
v 0.03684648 0.0771621242 0.104780093
v 0.03612496 0.07345419 0.107980169
v 0.0361186266 0.0732289 0.107985467
v 0.0362626277 0.07716976 0.1044111
v 0.03684648 0.0772289038 0.104052246
v 0.09577971 0.06700105 0.01705224
v 0.0957421958 0.06685995 0.0167907812
v 0.09584649 0.06772891 0.01705224
v 0.09556564 0.06625653 0.01705224
v 0.09577971 0.06772891 0.0163243879
v 0.09543037 0.06603036 0.0165319
v 0.0951944739 0.06554007 0.01705224
v 0.09569557 0.0671096742 0.0161571838
v 0.09556564 0.06772891 0.0155798607
v 0.09493466 0.06527161 0.01640038
v 0.0946749151 0.06490048 0.01705224
v 0.09536281 0.06622441 0.0158809312
v 0.09553599 0.06737851 0.0155473277
v 0.09430379 0.06464074 0.01640038
v 0.09403533 0.06438092 0.01705224
v 0.09527151 0.06765465 0.0149873653
v 0.0951944739 0.06772891 0.0148634007
v 0.0946749151 0.06772891 0.0142238131
v 0.09483384 0.06541476 0.0157405883
v 0.0951919854 0.06646331 0.01526173
v 0.09374433 0.06425355 0.0164865088
v 0.0933188647 0.0640097558 0.01705224
v 0.0949263 0.06673624 0.0147007713
v 0.09416064 0.06474155 0.0157405883
v 0.09464511 0.0656262562 0.0151166394
v 0.09445266 0.06713046 0.0140773887
v 0.09403533 0.06772891 0.013704258
v 0.0943775252 0.06589627 0.0145551739
v 0.09394914 0.06493028 0.0151166394
v 0.0935636461 0.06432838 0.0158324968
v 0.0931341648 0.06396362 0.0166466311
v 0.0938396454 0.06756279 0.0135881761
v 0.0933188647 0.06772891 0.0133330869
v 0.09392477 0.06632245 0.0139373327
v 0.0936791152 0.06519787 0.0145551739
v 0.09282029 0.06386087 0.0167521946
v 0.09257434 0.0637956858 0.01705224
v 0.0933319554 0.0645031258 0.0152116558
v 0.09291254 0.064019 0.016003361
v 0.09335926 0.0668275 0.0134607237
v 0.09325294 0.06565063 0.0139373327
v 0.09305978 0.06476923 0.0146505227
v 0.09265882 0.06418329 0.0153883016
v 0.09271404 0.067381 0.0131629836
v 0.09257434 0.06772891 0.0131190186
v 0.09184649 0.06772891 0.01305224
v 0.0927479 0.06621613 0.0134607237
v 0.09219439 0.0668613538 0.0131629836
v 0.09184649 0.06700105 0.0131190186
v 0.09184649 0.06625653 0.0133330869
v 0.09265717 0.0652383 0.0140290521
v 0.09220574 0.0658409148 0.01354419
v 0.09184649 0.06554007 0.013704258
v 0.09238429 0.0644482747 0.0148277842
v 0.0920074 0.06492955 0.014199568
v 0.09184649 0.06490048 0.0142238131
v 0.09184649 0.06438092 0.0148634007
v 0.09203682 0.06433453 0.0149446493
v 0.09184649 0.0640097558 0.0155798607
v 0.09231255 0.0640699342 0.01550476
v 0.09257761 0.06390936 0.0161160082
v 0.09196568 0.06398922 0.0156378355
v 0.09184649 0.0637956858 0.0163243879
v 0.0922408551 0.06383106 0.016245231
v 0.09250356 0.06378728 0.016873762
v 0.09191214 0.06378522 0.0163866654
v 0.09184649 0.0637289062 0.01705224
v 0.09219667 0.06374454 0.0170058329
v 0.09184649 0.0772289038 0.104052246
v 0.09184649 0.07716213 0.104780093
v 0.09207177 0.07715684 0.10477376
v 0.09184649 0.07694806 0.105524629
v 0.092568 0.07715684 0.104277521
v 0.0925743356 0.07716213 0.104052246
v 0.0933188647 0.07694806 0.104052246
v 0.09308594 0.07697354 0.104716696
v 0.09251093 0.07697354 0.105291694
v 0.09406731 0.07654037 0.1043718
v 0.09403533 0.07657689 0.104052246
v 0.0946749151 0.07605734 0.104052246
v 0.0935674161 0.07667301 0.105136961
v 0.09452286 0.0761291161 0.104704775
v 0.0951944739 0.07541775 0.104052246
v 0.09200102 0.07689504 0.1056446
v 0.09184649 0.07657689 0.106241085
v 0.0929312 0.07667301 0.105773166
v 0.0939907357 0.0762703 0.105519265
v 0.09496915 0.07550533 0.105085149
v 0.09236702 0.07658615 0.106163636
v 0.09331351 0.0762703 0.106196493
v 0.09205796 0.07600595 0.106923364
v 0.09184649 0.07605734 0.106880672
v 0.09184649 0.07541774 0.107400224
v 0.09531638 0.07521597 0.104159221
v 0.09556564 0.07470129 0.104052246
v 0.09561872 0.0744762 0.104515433
v 0.09577971 0.07395676 0.104052246
v 0.09441969 0.07565111 0.105926171
v 0.09271295 0.07617784 0.106612131
v 0.09242397 0.07537815 0.107375987
v 0.09184649 0.07470129 0.1077714
v 0.09574078 0.07367198 0.1048511
v 0.09584649 0.07322891 0.104052246
v 0.09577971 0.07322891 0.104780093
v 0.09556564 0.07322891 0.105524629
v 0.0952773541 0.07476024 0.1054249
v 0.095421724 0.07393707 0.105700329
v 0.0951944739 0.07322891 0.106241085
v 0.09473619 0.074903816 0.106253222
v 0.09491502 0.07407151 0.106475905
v 0.0946749151 0.07322891 0.106880672
v 0.09372041 0.07565111 0.106625438
v 0.09404747 0.074903816 0.106941938
v 0.0942701548 0.07407151 0.107120775
v 0.09403533 0.07322891 0.107400224
v 0.0931002945 0.07555564 0.107054621
v 0.09343672 0.07480979 0.10736464
v 0.09369829 0.07398347 0.107516557
v 0.0933188647 0.07322891 0.1077714
v 0.0927706 0.07463499 0.107681155
v 0.09307459 0.0738198 0.107812911
v 0.09257434 0.07322891 0.107985467
v 0.0920841545 0.07438783 0.107873283
v 0.09184649 0.07395676 0.107985467
v 0.09243034 0.07358776 0.107993096
v 0.09184649 0.07322891 0.108052246
v 0.03684648 0.0772289038 0.01705224
v 0.03684648 0.0771621242 0.0163243879
v 0.0366211981 0.0771568343 0.0163307227
v 0.03684648 0.0769480541 0.0155798607
v 0.03612496 0.0771568343 0.0168269575
v 0.0361186266 0.0771621242 0.01705224
v 0.0353740975 0.0769480541 0.01705224
v 0.035607025 0.0769735351 0.016387796
v 0.03618203 0.0769735351 0.0158127919
v 0.03462565 0.0765403658 0.0167326871
v 0.0346576348 0.07657688 0.01705224
v 0.03401805 0.07605733 0.01705224
v 0.0351255536 0.076673 0.0159675218
v 0.0341701 0.07612911 0.0163997132
v 0.0334984958 0.07541774 0.01705224
v 0.03669194 0.0768950358 0.0154598858
v 0.03684648 0.07657688 0.0148634007
v 0.03576176 0.076673 0.0153313149
v 0.03470223 0.07627029 0.0155852167
v 0.0337238126 0.0755053163 0.0160193387
v 0.0363259465 0.07658614 0.0149408458
v 0.0353794545 0.07627029 0.0149079943
v 0.0366350077 0.07600595 0.0141811268
v 0.0368464775 0.07605733 0.0142238131
v 0.03684648 0.07541774 0.013704258
v 0.03337659 0.0752159655 0.0169452671
v 0.03312733 0.07470128 0.01705224
v 0.0330742449 0.07447618 0.0165890474
v 0.03291326 0.07395675 0.01705224
v 0.0342732742 0.0756511 0.0151783163
v 0.0359800123 0.0761778355 0.0144923516
v 0.0362689979 0.07537815 0.0137284985
v 0.03684648 0.07470128 0.0133330869
v 0.03295219 0.07367198 0.0162533876
v 0.0328464732 0.0732289 0.01705224
v 0.03291326 0.0732289 0.0163243879
v 0.03312733 0.0732289 0.0155798607
v 0.0334156156 0.0747602358 0.015679583
v 0.0332712457 0.0739370659 0.0154041545
v 0.0334984958 0.0732289 0.0148634007
v 0.03395678 0.074903816 0.01485126
v 0.03377795 0.0740715042 0.0146285752
v 0.0340180546 0.0732289 0.0142238131
v 0.0349725559 0.0756511 0.0144790383
v 0.0346454978 0.074903816 0.0141625423
v 0.0344228148 0.0740715042 0.0139837107
v 0.03465764 0.0732289 0.013704258
v 0.0355926678 0.07555563 0.01404986
v 0.03525625 0.07480979 0.0137398439
v 0.034994673 0.07398346 0.0135879274
v 0.0353741 0.0732289 0.0133330869
v 0.0359223634 0.0746349841 0.0134233357
v 0.035618376 0.07381979 0.0132915732
v 0.0361186266 0.0732289 0.0131190186
v 0.0366088077 0.07438783 0.0132311936
v 0.03684648 0.07395675 0.0131190186
v 0.0362626277 0.07358776 0.0131113846
v 0.03684648 0.0732289 0.01305224
v 0.09184649 0.0772289038 0.01705224
v 0.0925743356 0.07716213 0.01705224
v 0.092568 0.07715684 0.0168269575
v 0.0933188647 0.07694806 0.01705224
v 0.09207177 0.07715684 0.0163307227
v 0.09184649 0.07716213 0.0163243879
v 0.09184649 0.07694806 0.0155798607
v 0.09251093 0.07697354 0.0158127919
v 0.09308594 0.07697354 0.016387796
v 0.09216604 0.07654037 0.0148314107
v 0.09184649 0.07657689 0.0148634007
v 0.09184649 0.07605734 0.0142238131
v 0.0929312 0.07667301 0.0153313149
v 0.09249902 0.0761291161 0.0143758617
v 0.09184649 0.07541774 0.013704258
v 0.09343884 0.07689504 0.0168977063
v 0.09403533 0.07657689 0.01705224
v 0.0935674161 0.07667301 0.0159675218
v 0.09331351 0.0762703 0.0149079943
v 0.0928793848 0.07550533 0.0139295757
v 0.09395788 0.07658615 0.0165317059
v 0.0939907357 0.0762703 0.0155852167
v 0.0947176 0.07600596 0.016840769
v 0.0946749151 0.07605734 0.01705224
v 0.0951944739 0.07541775 0.01705224
v 0.0919534639 0.07521597 0.0135823516
v 0.09184649 0.07470129 0.0133330869
v 0.09230968 0.0744762 0.013280008
v 0.09184649 0.07395676 0.0131190186
v 0.09372041 0.07565111 0.0144790383
v 0.0944063738 0.07617784 0.0161857735
v 0.09517023 0.07537816 0.0164747611
v 0.09556564 0.07470129 0.01705224
v 0.09264534 0.07367198 0.013157947
v 0.09184649 0.07322891 0.01305224
v 0.09257434 0.07322891 0.0131190186
v 0.0933188647 0.07322891 0.0133330869
v 0.0932191461 0.07476024 0.0136213768
v 0.09349457 0.07393707 0.0134770032
v 0.09403533 0.07322891 0.013704258
v 0.09404747 0.074903816 0.0141625423
v 0.0942701548 0.07407151 0.0139837107
v 0.0946749151 0.07322891 0.0142238131
v 0.09441969 0.07565111 0.0151783163
v 0.09473619 0.074903816 0.01485126
v 0.09491502 0.07407151 0.0146285752
v 0.0951944739 0.07322891 0.0148634007
v 0.09484887 0.07555564 0.0157984328
v 0.09515888 0.07480979 0.0154620111
v 0.0953108 0.07398347 0.015200438
v 0.09556564 0.07322891 0.0155798607
v 0.09547539 0.07463499 0.0161281265
v 0.0956071541 0.0738198 0.0158241373
v 0.09577971 0.07322891 0.0163243879
v 0.09566753 0.07438784 0.01681457
v 0.09577971 0.07395676 0.01705224
v 0.09578735 0.07358777 0.0164683927
v 0.09584649 0.07322891 0.01705224
f 1 2 3
f 1 3 4
f 2 1 5
f 5 1 4
f 6 7 8
f 6 8 9
f 7 6 10
f 10 6 9
f 11 12 13
f 11 13 14
f 12 11 15
f 15 11 14
f 16 17 18
f 16 18 19
f 17 16 20
f 20 16 19
f 21 22 23
f 21 23 24
f 22 21 25
f 25 21 24
f 26 27 28
f 26 28 29
f 27 26 30
f 30 26 29
f 31 32 33
f 31 34 32
f 34 31 35
f 31 36 35
f 37 31 33
f 31 37 36
f 37 33 38
f 37 39 36
f 40 37 38
f 37 40 39
f 40 38 41
f 40 42 39
f 43 40 41
f 40 43 42
f 43 41 44
f 43 45 42
f 46 43 44
f 43 46 45
f 46 44 47
f 46 48 45
f 49 46 47
f 46 49 48
f 49 47 50
f 49 51 48
f 52 49 50
f 49 52 51
f 52 50 53
f 52 54 51
f 55 52 53
f 52 55 54
f 56 57 58
f 56 59 57
f 59 56 60
f 56 61 60
f 62 56 58
f 56 62 61
f 62 58 63
f 62 64 61
f 65 62 63
f 62 65 64
f 65 63 66
f 65 67 64
f 68 65 66
f 65 68 67
f 68 66 69
f 68 70 67
f 71 68 69
f 68 71 70
f 71 69 72
f 71 73 70
f 74 71 72
f 71 74 73
f 74 72 75
f 74 76 73
f 77 74 75
f 74 77 76
f 77 75 78
f 77 79 76
f 80 77 78
f 77 80 79
f 81 82 83
f 81 84 82
f 84 81 85
f 81 86 85
f 87 81 83
f 81 87 86
f 87 83 88
f 87 89 86
f 90 87 88
f 87 90 89
f 90 88 91
f 90 92 89
f 93 90 91
f 90 93 92
f 93 91 94
f 93 95 92
f 96 93 94
f 93 96 95
f 96 94 97
f 96 98 95
f 99 96 97
f 96 99 98
f 99 97 100
f 99 101 98
f 102 99 100
f 99 102 101
f 102 100 103
f 102 104 101
f 105 102 103
f 102 105 104
f 106 107 108
f 106 109 107
f 109 106 110
f 106 111 110
f 112 106 108
f 106 112 111
f 112 108 113
f 112 114 111
f 115 112 113
f 112 115 114
f 115 113 116
f 115 117 114
f 118 115 116
f 115 118 117
f 118 116 119
f 118 120 117
f 121 118 119
f 118 121 120
f 121 119 122
f 121 123 120
f 124 121 122
f 121 124 123
f 124 122 125
f 124 126 123
f 127 124 125
f 124 127 126
f 127 125 128
f 127 129 126
f 130 127 128
f 127 130 129
f 131 132 133
f 131 134 132
f 134 131 135
f 131 136 135
f 137 131 133
f 131 137 136
f 137 133 138
f 137 139 136
f 140 137 138
f 137 140 139
f 140 138 141
f 140 142 139
f 143 140 141
f 140 143 142
f 143 141 144
f 143 145 142
f 146 143 144
f 143 146 145
f 146 144 147
f 146 148 145
f 149 146 147
f 146 149 148
f 149 147 150
f 149 151 148
f 152 149 150
f 149 152 151
f 152 150 153
f 152 154 151
f 155 152 153
f 152 155 154
f 156 157 158
f 156 159 157
f 159 156 160
f 156 161 160
f 162 156 158
f 156 162 161
f 162 158 163
f 162 164 161
f 165 162 163
f 162 165 164
f 165 163 166
f 165 167 164
f 168 165 166
f 165 168 167
f 168 166 169
f 168 170 167
f 171 168 169
f 168 171 170
f 171 169 172
f 171 173 170
f 174 171 172
f 171 174 173
f 174 172 175
f 174 176 173
f 177 174 175
f 174 177 176
f 177 175 178
f 177 179 176
f 180 177 178
f 177 180 179
f 181 182 183
f 181 184 182
f 184 181 185
f 181 186 185
f 187 181 183
f 181 187 186
f 187 183 188
f 187 189 186
f 190 187 188
f 187 190 189
f 190 188 191
f 190 192 189
f 193 190 191
f 190 193 192
f 193 191 194
f 193 195 192
f 196 193 194
f 193 196 195
f 196 194 197
f 196 198 195
f 199 196 197
f 196 199 198
f 199 197 200
f 199 201 198
f 202 199 200
f 199 202 201
f 202 200 203
f 202 204 201
f 205 202 203
f 202 205 204
f 206 207 208
f 206 209 207
f 209 206 210
f 206 211 210
f 212 206 208
f 206 212 211
f 212 208 213
f 212 214 211
f 215 212 213
f 212 215 214
f 215 213 216
f 215 217 214
f 218 215 216
f 215 218 217
f 218 216 219
f 218 220 217
f 221 218 219
f 218 221 220
f 221 219 222
f 221 223 220
f 224 221 222
f 221 224 223
f 224 222 225
f 224 226 223
f 227 224 225
f 224 227 226
f 227 225 228
f 227 229 226
f 230 227 228
f 227 230 229
f 231 232 233
f 231 234 232
f 234 231 235
f 231 236 235
f 237 231 233
f 231 237 236
f 237 233 238
f 237 239 236
f 240 237 238
f 237 240 239
f 240 238 241
f 240 242 239
f 243 240 241
f 240 243 242
f 243 241 244
f 243 245 242
f 246 243 244
f 243 246 245
f 246 244 247
f 246 248 245
f 249 246 247
f 246 249 248
f 249 247 250
f 249 251 248
f 252 249 250
f 249 252 251
f 252 250 253
f 252 254 251
f 255 252 253
f 252 255 254
f 256 257 258
f 256 259 257
f 259 256 260
f 256 261 260
f 262 256 258
f 256 262 261
f 262 258 263
f 262 264 261
f 265 262 263
f 262 265 264
f 265 263 266
f 265 267 264
f 268 265 266
f 265 268 267
f 268 266 269
f 268 270 267
f 271 268 269
f 268 271 270
f 271 269 272
f 271 273 270
f 274 271 272
f 271 274 273
f 274 272 275
f 274 276 273
f 277 274 275
f 274 277 276
f 277 275 278
f 277 279 276
f 280 277 278
f 277 280 279
f 281 282 283
f 281 284 282
f 284 281 285
f 281 286 285
f 287 281 283
f 281 287 286
f 287 283 288
f 287 289 286
f 290 287 288
f 287 290 289
f 290 288 291
f 290 292 289
f 293 290 291
f 290 293 292
f 293 291 294
f 293 295 292
f 296 293 294
f 293 296 295
f 296 294 297
f 296 298 295
f 299 296 297
f 296 299 298
f 299 297 300
f 299 301 298
f 302 299 300
f 299 302 301
f 302 300 303
f 302 304 301
f 305 302 303
f 302 305 304
f 306 307 308
f 306 309 307
f 309 306 310
f 306 311 310
f 312 306 308
f 306 312 311
f 312 308 313
f 312 314 311
f 315 312 313
f 312 315 314
f 315 313 316
f 315 317 314
f 318 315 316
f 315 318 317
f 318 316 319
f 318 320 317
f 321 318 319
f 318 321 320
f 321 319 322
f 321 323 320
f 324 321 322
f 321 324 323
f 324 322 325
f 324 326 323
f 327 324 325
f 324 327 326
f 327 325 328
f 327 329 326
f 330 327 328
f 327 330 329
f 331 332 333
f 332 334 333
f 335 332 331
f 336 334 332
f 335 336 332
f 337 335 331
f 337 331 338
f 339 337 338
f 339 335 337
f 336 340 334
f 340 341 334
f 340 342 341
f 336 342 340
f 339 338 343
f 343 338 344
f 345 343 344
f 346 343 345
f 346 339 343
f 347 346 345
f 346 347 348
f 339 346 349
f 346 348 349
f 335 339 350
f 339 349 350
f 336 335 351
f 335 350 351
f 352 349 348
f 352 348 353
f 350 349 354
f 349 352 354
f 355 352 353
f 354 352 355
f 353 356 355
f 350 354 357
f 351 350 357
f 336 351 358
f 342 336 358
f 354 355 359
f 357 354 359
f 356 360 355
f 355 360 359
f 351 357 361
f 358 351 361
f 357 359 362
f 357 362 361
f 356 363 360
f 363 356 364
f 363 364 365
f 359 360 366
f 359 366 362
f 363 367 360
f 360 367 366
f 368 363 365
f 363 368 367
f 369 368 365
f 370 369 365
f 371 367 368
f 369 371 368
f 372 366 367
f 371 372 367
f 373 362 366
f 372 373 366
f 374 361 362
f 373 374 362
f 375 369 370
f 376 375 370
f 375 376 377
f 375 377 378
f 375 379 369
f 379 375 378
f 379 371 369
f 379 378 380
f 379 381 371
f 381 379 380
f 381 372 371
f 381 380 382
f 381 383 372
f 383 381 382
f 383 373 372
f 383 382 384
f 383 385 373
f 385 383 384
f 385 374 373
f 384 386 385
f 385 387 374
f 386 387 385
f 387 388 374
f 374 388 361
f 388 358 361
f 386 389 387
f 389 388 387
f 386 390 389
f 391 358 388
f 389 391 388
f 342 358 391
f 392 342 391
f 342 392 341
f 341 392 393
f 392 391 394
f 394 391 389
f 393 392 394
f 390 395 389
f 395 394 389
f 393 394 396
f 394 395 396
f 397 393 396
f 390 397 398
f 390 398 395
f 397 396 398
f 398 396 395
f 399 400 401
f 402 400 399
f 400 403 401
f 404 400 402
f 405 404 402
f 400 406 403
f 404 406 400
f 406 407 403
f 408 404 405
f 409 408 405
f 410 406 404
f 408 410 404
f 406 411 407
f 410 411 406
f 412 408 409
f 413 412 409
f 411 414 407
f 407 414 415
f 414 416 415
f 417 410 408
f 412 417 408
f 418 411 410
f 411 418 414
f 417 418 410
f 419 412 413
f 420 419 413
f 414 421 416
f 418 421 414
f 422 417 412
f 419 422 412
f 423 418 417
f 418 423 421
f 422 423 417
f 421 424 416
f 416 424 425
f 423 426 421
f 424 421 426
f 427 423 422
f 423 427 426
f 428 422 419
f 428 427 422
f 429 419 420
f 429 428 419
f 424 430 425
f 425 430 431
f 424 426 432
f 430 424 432
f 427 433 426
f 432 426 433
f 434 429 420
f 434 420 435
f 428 436 427
f 427 436 433
f 437 428 429
f 434 437 429
f 428 437 436
f 431 430 438
f 430 432 438
f 432 433 439
f 438 432 439
f 436 440 433
f 440 439 433
f 437 441 436
f 436 441 440
f 431 438 442
f 443 431 442
f 444 443 442
f 438 439 445
f 442 438 445
f 446 444 442
f 446 442 445
f 444 446 447
f 446 448 447
f 448 446 445
f 449 439 440
f 445 439 449
f 448 445 450
f 450 445 449
f 451 448 450
f 451 450 449
f 452 449 440
f 441 452 440
f 453 451 449
f 453 449 452
f 451 453 454
f 453 455 454
f 455 453 452
f 455 452 456
f 457 455 456
f 458 456 452
f 441 458 452
f 458 457 456
f 459 458 441
f 437 459 441
f 434 459 437
f 458 460 457
f 459 460 458
f 460 461 457
f 460 459 462
f 459 434 462
f 460 462 461
f 462 434 463
f 463 434 435
f 462 464 461
f 462 463 464
f 465 461 464
f 463 435 466
f 435 465 466
f 463 466 464
f 465 464 466
f 467 468 469
f 468 470 469
f 471 468 467
f 472 470 468
f 471 472 468
f 473 471 467
f 473 467 474
f 475 473 474
f 475 471 473
f 472 476 470
f 476 477 470
f 476 478 477
f 472 478 476
f 475 474 479
f 479 474 480
f 481 479 480
f 482 479 481
f 482 475 479
f 483 482 481
f 482 483 484
f 475 482 485
f 482 484 485
f 471 475 486
f 475 485 486
f 472 471 487
f 471 486 487
f 488 485 484
f 488 484 489
f 486 485 490
f 485 488 490
f 491 488 489
f 490 488 491
f 489 492 491
f 486 490 493
f 487 486 493
f 472 487 494
f 478 472 494
f 490 491 495
f 493 490 495
f 492 496 491
f 491 496 495
f 487 493 497
f 494 487 497
f 493 495 498
f 493 498 497
f 492 499 496
f 499 492 500
f 499 500 501
f 495 496 502
f 495 502 498
f 499 503 496
f 496 503 502
f 504 499 501
f 499 504 503
f 505 504 501
f 506 505 501
f 507 503 504
f 505 507 504
f 508 502 503
f 507 508 503
f 509 498 502
f 508 509 502
f 510 497 498
f 509 510 498
f 511 505 506
f 512 511 506
f 511 512 513
f 511 513 514
f 511 515 505
f 515 511 514
f 515 507 505
f 515 514 516
f 515 517 507
f 517 515 516
f 517 508 507
f 517 516 518
f 517 519 508
f 519 517 518
f 519 509 508
f 519 518 520
f 519 521 509
f 521 519 520
f 521 510 509
f 520 522 521
f 521 523 510
f 522 523 521
f 523 524 510
f 510 524 497
f 524 494 497
f 522 525 523
f 525 524 523
f 522 526 525
f 527 494 524
f 525 527 524
f 478 494 527
f 528 478 527
f 478 528 477
f 477 528 529
f 528 527 530
f 530 527 525
f 529 528 530
f 526 531 525
f 531 530 525
f 529 530 532
f 530 531 532
f 533 529 532
f 526 533 534
f 526 534 531
f 533 532 534
f 534 532 531
f 535 536 537
f 538 535 537
f 535 539 536
f 540 535 538
f 541 540 538
f 535 542 539
f 542 543 539
f 540 541 544
f 541 545 544
f 540 546 535
f 546 542 535
f 540 544 547
f 545 547 544
f 546 540 547
f 542 548 543
f 548 549 543
f 546 550 542
f 550 548 542
f 548 551 549
f 551 552 549
f 545 553 547
f 554 553 545
f 546 547 555
f 550 546 555
f 550 556 548
f 556 551 548
f 551 557 552
f 557 558 552
f 559 553 554
f 560 559 554
f 560 561 559
f 553 562 547
f 547 562 555
f 550 555 563
f 556 550 563
f 556 564 551
f 564 557 551
f 557 565 558
f 565 566 558
f 559 567 553
f 553 567 562
f 561 568 559
f 559 568 567
f 555 562 569
f 555 569 563
f 556 563 570
f 564 556 570
f 564 571 557
f 571 565 557
f 567 572 562
f 562 572 569
f 573 563 569
f 570 563 573
f 564 570 574
f 571 564 574
f 575 573 569
f 575 569 572
f 576 570 573
f 574 570 576
f 576 573 575
f 567 577 572
f 567 568 577
f 578 575 572
f 577 578 572
f 579 575 578
f 579 576 575
f 576 579 580
f 581 576 580
f 574 576 581
f 582 579 578
f 577 582 578
f 583 574 581
f 571 574 583
f 577 584 582
f 568 584 577
f 584 585 582
f 584 586 585
f 587 571 583
f 587 583 588
f 571 587 565
f 589 584 568
f 584 589 586
f 561 589 568
f 589 590 586
f 589 561 590
f 591 587 588
f 587 591 565
f 591 588 592
f 565 591 566
f 566 591 592
f 593 594 595
f 596 594 593
f 594 597 595
f 598 594 596
f 599 598 596
f 594 600 597
f 598 600 594
f 600 601 597
f 602 598 599
f 603 602 599
f 604 600 598
f 602 604 598
f 600 605 601
f 604 605 600
f 606 602 603
f 607 606 603
f 605 608 601
f 601 608 609
f 608 610 609
f 611 604 602
f 606 611 602
f 612 605 604
f 605 612 608
f 611 612 604
f 613 606 607
f 614 613 607
f 608 615 610
f 612 615 608
f 616 611 606
f 613 616 606
f 617 612 611
f 612 617 615
f 616 617 611
f 615 618 610
f 610 618 619
f 617 620 615
f 618 615 620
f 621 617 616
f 617 621 620
f 622 616 613
f 622 621 616
f 623 613 614
f 623 622 613
f 618 624 619
f 619 624 625
f 618 620 626
f 624 618 626
f 621 627 620
f 626 620 627
f 628 623 614
f 628 614 629
f 622 630 621
f 621 630 627
f 631 622 623
f 628 631 623
f 622 631 630
f 625 624 632
f 624 626 632
f 626 627 633
f 632 626 633
f 630 634 627
f 634 633 627
f 631 635 630
f 630 635 634
f 625 632 636
f 637 625 636
f 638 637 636
f 632 633 639
f 636 632 639
f 640 638 636
f 640 636 639
f 638 640 641
f 640 642 641
f 642 640 639
f 643 633 634
f 639 633 643
f 642 639 644
f 644 639 643
f 645 642 644
f 645 644 643
f 646 643 634
f 635 646 634
f 647 645 643
f 647 643 646
f 645 647 648
f 647 649 648
f 649 647 646
f 649 646 650
f 651 649 650
f 652 650 646
f 635 652 646
f 652 651 650
f 653 652 635
f 631 653 635
f 628 653 631
f 652 654 651
f 653 654 652
f 654 655 651
f 654 653 656
f 653 628 656
f 654 656 655
f 656 628 657
f 657 628 629
f 656 658 655
f 656 657 658
f 659 655 658
f 657 629 660
f 629 659 660
f 657 660 658
f 659 658 660
f 661 662 663
f 662 664 663
f 661 663 665
f 666 661 665
f 666 665 667
f 665 663 668
f 665 668 667
f 664 669 663
f 663 669 668
f 668 670 667
f 670 671 667
f 670 672 671
f 673 670 668
f 673 668 669
f 670 674 672
f 674 670 673
f 674 675 672
f 664 676 669
f 677 676 664
f 678 673 669
f 676 678 669
f 679 674 673
f 679 673 678
f 674 680 675
f 680 674 679
f 681 676 677
f 676 681 678
f 682 679 678
f 681 682 678
f 683 681 677
f 683 677 684
f 685 683 684
f 680 686 675
f 675 686 687
f 688 687 686
f 680 688 686
f 688 689 687
f 690 680 679
f 682 690 679
f 681 691 682
f 683 691 681
f 692 683 685
f 693 692 685
f 688 694 689
f 694 695 689
f 694 696 695
f 696 694 697
f 698 688 680
f 698 694 688
f 690 698 680
f 694 699 697
f 694 698 699
f 697 699 700
f 698 690 701
f 698 701 699
f 699 702 700
f 699 701 702
f 700 702 703
f 690 704 701
f 690 682 704
f 691 704 682
f 701 705 702
f 701 704 705
f 702 706 703
f 702 705 706
f 703 706 707
f 691 708 704
f 708 705 704
f 708 691 683
f 692 708 683
f 708 709 705
f 709 706 705
f 709 708 692
f 710 707 706
f 709 710 706
f 710 711 707
f 712 709 692
f 712 710 709
f 712 692 693
f 710 713 711
f 713 710 712
f 713 714 711
f 715 712 693
f 715 713 712
f 715 693 716
f 713 717 714
f 717 713 715
f 717 715 716
f 717 718 714
f 717 716 718
f 719 720 721
f 720 722 721
f 719 721 723
f 724 719 723
f 724 723 725
f 723 721 726
f 723 726 725
f 722 727 721
f 721 727 726
f 726 728 725
f 728 729 725
f 728 730 729
f 731 728 726
f 731 726 727
f 728 732 730
f 732 728 731
f 732 733 730
f 722 734 727
f 735 734 722
f 736 731 727
f 734 736 727
f 737 732 731
f 737 731 736
f 732 738 733
f 738 732 737
f 739 734 735
f 734 739 736
f 740 737 736
f 739 740 736
f 741 739 735
f 741 735 742
f 743 741 742
f 738 744 733
f 733 744 745
f 746 745 744
f 738 746 744
f 746 747 745
f 748 738 737
f 740 748 737
f 739 749 740
f 741 749 739
f 750 741 743
f 751 750 743
f 746 752 747
f 752 753 747
f 752 754 753
f 754 752 755
f 756 746 738
f 756 752 746
f 748 756 738
f 752 757 755
f 752 756 757
f 755 757 758
f 756 748 759
f 756 759 757
f 757 760 758
f 757 759 760
f 758 760 761
f 748 762 759
f 748 740 762
f 749 762 740
f 759 763 760
f 759 762 763
f 760 764 761
f 760 763 764
f 761 764 765
f 749 766 762
f 766 763 762
f 766 749 741
f 750 766 741
f 766 767 763
f 767 764 763
f 767 766 750
f 768 765 764
f 767 768 764
f 768 769 765
f 770 767 750
f 770 768 767
f 770 750 751
f 768 771 769
f 771 768 770
f 771 772 769
f 773 770 751
f 773 771 770
f 773 751 774
f 771 775 772
f 775 771 773
f 775 773 774
f 775 776 772
f 775 774 776
f 777 778 779
f 778 780 779
f 777 779 781
f 782 777 781
f 782 781 783
f 781 779 784
f 781 784 783
f 780 785 779
f 779 785 784
f 784 786 783
f 786 787 783
f 786 788 787
f 789 786 784
f 789 784 785
f 786 790 788
f 790 786 789
f 790 791 788
f 780 792 785
f 793 792 780
f 794 789 785
f 792 794 785
f 795 790 789
f 795 789 794
f 790 796 791
f 796 790 795
f 797 792 793
f 792 797 794
f 798 795 794
f 797 798 794
f 799 797 793
f 799 793 800
f 801 799 800
f 796 802 791
f 791 802 803
f 804 803 802
f 796 804 802
f 804 805 803
f 806 796 795
f 798 806 795
f 797 807 798
f 799 807 797
f 808 799 801
f 809 808 801
f 804 810 805
f 810 811 805
f 810 812 811
f 812 810 813
f 814 804 796
f 814 810 804
f 806 814 796
f 810 815 813
f 810 814 815
f 813 815 816
f 814 806 817
f 814 817 815
f 815 818 816
f 815 817 818
f 816 818 819
f 806 820 817
f 806 798 820
f 807 820 798
f 817 821 818
f 817 820 821
f 818 822 819
f 818 821 822
f 819 822 823
f 807 824 820
f 824 821 820
f 824 807 799
f 808 824 799
f 824 825 821
f 825 822 821
f 825 824 808
f 826 823 822
f 825 826 822
f 826 827 823
f 828 825 808
f 828 826 825
f 828 808 809
f 826 829 827
f 829 826 828
f 829 830 827
f 831 828 809
f 831 829 828
f 831 809 832
f 829 833 830
f 833 829 831
f 833 831 832
f 833 834 830
f 833 832 834
