# ROS coordinates: X forward, Y left, Z up; units are metres.
o mesh
v 0.09849243 0.0478499979 0.194
v 0.09888365 0.0478858948 0.194
v 0.09849243 0.0483500026 0.193500012
v 0.09888865 0.0481417738 0.19375
v 0.09879267 0.04837755 0.193500012
v 0.09928383 0.0480009578 0.194
v 0.0990997851 0.048465848 0.193500012
v 0.09929142 0.0482761636 0.19375
v 0.0996689349 0.04820046 0.194
v 0.09939533 0.0486189574 0.193500012
v 0.0996681154 0.04850743 0.19375
v 0.100012712 0.04847972 0.194
v 0.09965915 0.0488332734 0.193500012
v 0.099985 0.0488243178 0.19375
v 0.100291975 0.0488235019 0.194
v 0.09987347 0.0490971059 0.193500012
v 0.100216269 0.04920101 0.19375
v 0.100491479 0.0492085963 0.194
v 0.100026585 0.049392648 0.193500012
v 0.100350663 0.0496037863 0.19375
v 0.100606531 0.0496087819 0.194
v 0.100392431 0.0500000045 0.19375
v 0.100114882 0.0496997647 0.193500012
v 0.100642428 0.0500000045 0.194
v 0.100142427 0.0500000045 0.193500012
v 0.100606531 0.0503912233 0.194
v 0.100114882 0.0503002442 0.193500012
v 0.100350663 0.05039622 0.19375
v 0.100491479 0.0507914051 0.194
v 0.100112423 0.0509927869 0.19375
v 0.100026585 0.05060736 0.193500012
v 0.100291975 0.0511765033 0.194
v 0.09987347 0.0509028956 0.193500012
v 0.100012712 0.0515202843 0.194
v 0.09965915 0.05116673 0.193500012
v 0.0996681154 0.05149257 0.19375
v 0.0996689349 0.0517995432 0.194
v 0.09909112 0.0518032126 0.19375
v 0.09939533 0.0513810478 0.193500012
v 0.09928383 0.0519990474 0.194
v 0.0990997851 0.0515341535 0.193500012
v 0.09888365 0.0521141067 0.194
v 0.09879267 0.0516224578 0.193500012
v 0.09849243 0.0521500036 0.194
v 0.09849243 0.05165 0.193500012
v 0.09849243 0.0521500036 0.184
v 0.09849243 0.05165 0.184500009
v 0.0981921852 0.0516224578 0.184500009
v 0.09789373 0.0518032126 0.184250012
v 0.0981012061 0.0521141067 0.184
v 0.0978850648 0.0515341535 0.184500009
v 0.09770103 0.0519990474 0.184
v 0.09758954 0.0513810478 0.184500009
v 0.09731592 0.0517995432 0.184
v 0.09731674 0.05149257 0.184250012
v 0.097325705 0.05116673 0.184500009
v 0.096872434 0.0509927869 0.184250012
v 0.0969721451 0.0515202843 0.184
v 0.09711138 0.0509028956 0.184500009
v 0.09669289 0.0511765033 0.184
v 0.09695828 0.05060736 0.184500009
v 0.09649338 0.0507914051 0.184
v 0.0966341943 0.05039622 0.184250012
v 0.09686998 0.0503002442 0.184500009
v 0.09659243 0.0500000045 0.184250012
v 0.09637832 0.0503912233 0.184
v 0.09684242 0.0500000045 0.184500009
v 0.09634242 0.0500000045 0.184
v 0.09686998 0.0496997647 0.184500009
v 0.09637832 0.0496087819 0.184
v 0.0966341943 0.0496037863 0.184250012
v 0.09695828 0.049392648 0.184500009
v 0.09649338 0.0492085963 0.184
v 0.0967685953 0.04920101 0.184250012
v 0.09711138 0.0490971059 0.184500009
v 0.09669289 0.0488235019 0.184
v 0.09699986 0.0488243178 0.184250012
v 0.097325705 0.0488332734 0.184500009
v 0.0969721451 0.04847972 0.184
v 0.09731674 0.04850743 0.184250012
v 0.09758954 0.0486189574 0.184500009
v 0.09731592 0.04820046 0.184
v 0.0976934358 0.0482761636 0.184250012
v 0.0978850648 0.048465848 0.184500009
v 0.09770103 0.0480009578 0.184
v 0.0980962142 0.0481417738 0.184250012
v 0.0981921852 0.04837755 0.184500009
v 0.0981012061 0.0478858948 0.184
v 0.09849243 0.0483500026 0.184500009
v 0.09849243 0.0478499979 0.184
v 0.09879267 0.04837755 0.184500009
v 0.09909112 0.0481967963 0.184250012
v 0.0990997851 0.048465848 0.184500009
v 0.09888365 0.0478858948 0.184
v 0.09928383 0.0480009578 0.184
v 0.09939533 0.0486189574 0.184500009
v 0.0996689349 0.04820046 0.184
v 0.0996681154 0.04850743 0.184250012
v 0.09965915 0.0488332734 0.184500009
v 0.100112423 0.04900722 0.184250012
v 0.100012712 0.04847972 0.184
v 0.09987347 0.0490971059 0.184500009
v 0.100291975 0.0488235019 0.184
v 0.100026585 0.049392648 0.184500009
v 0.100491479 0.0492085963 0.184
v 0.100350663 0.0496037863 0.184250012
v 0.100114882 0.0496997647 0.184500009
v 0.100392431 0.0500000045 0.184250012
v 0.100606531 0.0496087819 0.184
v 0.100142427 0.0500000045 0.184500009
v 0.100642428 0.0500000045 0.184
v 0.100114882 0.0503002442 0.184500009
v 0.100606531 0.0503912233 0.184
v 0.100350663 0.05039622 0.184250012
v 0.100026585 0.05060736 0.184500009
v 0.100491479 0.0507914051 0.184
v 0.100216269 0.05079899 0.184250012
v 0.09987347 0.0509028956 0.184500009
v 0.100291975 0.0511765033 0.184
v 0.099985 0.0511756875 0.184250012
v 0.09965915 0.05116673 0.184500009
v 0.100012712 0.0515202843 0.184
v 0.0996681154 0.05149257 0.184250012
v 0.09939533 0.0513810478 0.184500009
v 0.0996689349 0.0517995432 0.184
v 0.09929142 0.0517238379 0.184250012
v 0.0990997851 0.0515341535 0.184500009
v 0.09928383 0.0519990474 0.184
v 0.09888865 0.0518582352 0.184250012
v 0.09879267 0.0516224578 0.184500009
v 0.09888365 0.0521141067 0.184
v 0.09849243 0.05165 0.184500009
v 0.09849243 0.0521500036 0.184
v 0.14911963 0.0550000034 0.188130453
v 0.149619624 0.0545 0.188130453
v 0.1496697 0.0545 0.187584579
v 0.1495352 0.05475 0.187106371
v 0.149169639 0.0550000034 0.187540889
v 0.149830267 0.0545 0.187026188
v 0.149328187 0.0550000034 0.186940342
v 0.15010865 0.0545 0.186488837
v 0.149601161 0.0550000034 0.18635878
v 0.150066555 0.05475 0.186119437
v 0.149983227 0.0550000034 0.185828432
v 0.150498316 0.0545 0.186009139
v 0.150921449 0.05475 0.185359433
v 0.150457233 0.0550000034 0.185378358
v 0.150978 0.0545 0.185619473
v 0.15099667 0.0550000034 0.185029492
v 0.15151535 0.0545 0.1853411
v 0.15157038 0.0550000034 0.184791446
v 0.1519419 0.05475 0.184951931
v 0.152073741 0.0545 0.185180545
v 0.15214783 0.0550000034 0.184662417
v 0.15261963 0.05475 0.184880465
v 0.15261963 0.0545 0.185130477
v 0.152738765 0.0550000034 0.18463251
v 0.153165519 0.0545 0.185180545
v 0.153300017 0.05475 0.184952483
v 0.153355211 0.0550000034 0.184708655
v 0.153723925 0.0545 0.1853411
v 0.15396826 0.0550000034 0.184900731
v 0.15398632 0.05475 0.1851818
v 0.154261261 0.0545 0.185619473
v 0.154545262 0.0550000034 0.1852078
v 0.154630676 0.05475 0.1855774
v 0.154740945 0.0545 0.186009139
v 0.1550551 0.0550000034 0.185616791
v 0.1551727 0.05475 0.186119437
v 0.15513061 0.0545 0.186488837
v 0.155473515 0.0550000034 0.186104313
v 0.1555683 0.05475 0.186763778
v 0.155786738 0.0550000034 0.1866407
v 0.155409 0.0545 0.187026188
v 0.155992433 0.0550000034 0.18719548
v 0.155798182 0.05475 0.187452734
v 0.155569538 0.0545 0.187584579
v 0.156056032 0.0549364053 0.188130453
v 0.155619621 0.0545 0.188130453
v 0.155569538 0.0545 0.188676342
v 0.156056032 0.0549364053 0.188130453
v 0.155704066 0.05475 0.189154565
v 0.155409 0.0545 0.189234748
v 0.155992433 0.0550000034 0.189065456
v 0.15513061 0.0545 0.1897721
v 0.155786738 0.0550000034 0.189620242
v 0.1551727 0.05475 0.1901415
v 0.155473515 0.0550000034 0.190156624
v 0.154740945 0.0545 0.190251783
v 0.1543178 0.05475 0.190901488
v 0.1550551 0.0550000034 0.190644115
v 0.154261261 0.0545 0.190641448
v 0.154545262 0.0550000034 0.191053137
v 0.153723925 0.0545 0.190919816
v 0.15396826 0.0550000034 0.191360191
v 0.153300017 0.05475 0.191308439
v 0.153355211 0.0550000034 0.191552281
v 0.153165519 0.0545 0.191080391
v 0.152738765 0.0550000034 0.191628426
v 0.15261963 0.05475 0.191380471
v 0.15261963 0.0545 0.191130459
v 0.15214783 0.0550000034 0.19159852
v 0.152073741 0.0545 0.191080391
v 0.1519419 0.05475 0.191309
v 0.15157038 0.0550000034 0.191469491
v 0.15151535 0.0545 0.190919816
v 0.151252925 0.05475 0.19107914
v 0.15099667 0.0550000034 0.19123143
v 0.150978 0.0545 0.190641448
v 0.150610149 0.05475 0.190684766
v 0.150457233 0.0550000034 0.190882549
v 0.150498316 0.0545 0.190251783
v 0.149983227 0.0550000034 0.1904325
v 0.150066555 0.05475 0.1901415
v 0.15010865 0.0545 0.1897721
v 0.149601161 0.0550000034 0.189902157
v 0.149670959 0.05475 0.189497158
v 0.149830267 0.0545 0.189234748
v 0.149328187 0.0550000034 0.1893206
v 0.149441078 0.05475 0.1888082
v 0.1496697 0.0545 0.188676342
v 0.149169639 0.0550000034 0.188720047
v 0.149619624 0.0545 0.188130453
v 0.14911963 0.0550000034 0.188130453
v 0.150469631 0.045 0.188130453
v 0.150969625 0.0455000028 0.188130453
v 0.150997177 0.0455000028 0.1884307
v 0.150816426 0.0452500023 0.188729167
v 0.150505513 0.045 0.188521683
v 0.151085481 0.0455000028 0.188737825
v 0.15062058 0.045 0.188921854
v 0.151238576 0.0455000028 0.189033359
v 0.150820091 0.045 0.189306974
v 0.151127055 0.0452500023 0.189306155
v 0.1514529 0.0455000028 0.189297184
v 0.15162684 0.0452500023 0.189750463
v 0.151099354 0.045 0.189650729
v 0.151716739 0.0455000028 0.1895115
v 0.151443124 0.045 0.189930022
v 0.152012274 0.0455000028 0.189664632
v 0.151828229 0.045 0.190129519
v 0.152223423 0.0452500023 0.1899887
v 0.152319387 0.0455000028 0.1897529
v 0.15261963 0.0452500023 0.19003047
v 0.152228415 0.045 0.190244585
v 0.15261963 0.0455000028 0.189780474
v 0.15261963 0.045 0.190280467
v 0.152919874 0.0455000028 0.1897529
v 0.153010845 0.045 0.190244585
v 0.153015852 0.0452500023 0.1899887
v 0.153226987 0.0455000028 0.189664632
v 0.153411031 0.045 0.190129519
v 0.153418615 0.0452500023 0.1898543
v 0.153522521 0.0455000028 0.1895115
v 0.153796121 0.045 0.189930022
v 0.1537953 0.0452500023 0.189623028
v 0.153786361 0.0455000028 0.189297184
v 0.1541399 0.045 0.189650729
v 0.1541122 0.0452500023 0.189306155
v 0.15400067 0.0455000028 0.189033359
v 0.154419169 0.045 0.189306974
v 0.154343471 0.0452500023 0.188929453
v 0.154153779 0.0455000028 0.188737825
v 0.154618666 0.045 0.188921854
v 0.154477865 0.0452500023 0.188526675
v 0.154242083 0.0455000028 0.1884307
v 0.154733732 0.045 0.188521683
v 0.154269621 0.0455000028 0.188130453
v 0.154769629 0.045 0.188130453
v 0.154242083 0.0455000028 0.18783024
v 0.154422835 0.0452500023 0.187531769
v 0.154153779 0.0455000028 0.1875231
v 0.154733732 0.045 0.187739253
v 0.154618666 0.045 0.187339067
v 0.15400067 0.0455000028 0.187227562
v 0.154419169 0.045 0.186953962
v 0.1541122 0.0452500023 0.186954767
v 0.153786361 0.0455000028 0.186963737
v 0.1536124 0.0452500023 0.186510473
v 0.1541399 0.045 0.186610192
v 0.153522521 0.0455000028 0.186749429
v 0.153796121 0.045 0.186330914
v 0.153226987 0.0455000028 0.1865963
v 0.153411031 0.045 0.186131418
v 0.153015852 0.0452500023 0.186272234
v 0.152919874 0.0455000028 0.186508015
v 0.15261963 0.0452500023 0.186230466
v 0.153010845 0.045 0.186016351
v 0.15261963 0.0455000028 0.186480448
v 0.15261963 0.045 0.185980469
v 0.152319387 0.0455000028 0.186508015
v 0.152228415 0.045 0.186016351
v 0.152223423 0.0452500023 0.186272234
v 0.152012274 0.0455000028 0.1865963
v 0.151828229 0.045 0.186131418
v 0.151820645 0.0452500023 0.186406612
v 0.151716739 0.0455000028 0.186749429
v 0.151443124 0.045 0.186330914
v 0.151443943 0.0452500023 0.186637878
v 0.1514529 0.0455000028 0.186963737
v 0.151099354 0.045 0.186610192
v 0.151127055 0.0452500023 0.186954767
v 0.151238576 0.0455000028 0.187227562
v 0.150820091 0.045 0.186953962
v 0.150895789 0.0452500023 0.187331468
v 0.151085481 0.0455000028 0.1875231
v 0.15062058 0.045 0.187339067
v 0.1507614 0.0452500023 0.187734246
v 0.150997177 0.0455000028 0.18783024
v 0.150505513 0.045 0.187739253
v 0.150969625 0.0455000028 0.188130453
v 0.150469631 0.045 0.188130453
v 0.150969625 0.052 0.188130453
v 0.150969625 0.0455000028 0.188130453
v 0.150997177 0.0455000028 0.18783024
v 0.151005909 0.0487500019 0.187786371
v 0.150997177 0.052 0.18783024
v 0.151085481 0.0455000028 0.1875231
v 0.151085481 0.052 0.1875231
v 0.151122615 0.0487500019 0.18743661
v 0.151238576 0.0455000028 0.187227562
v 0.151238576 0.052 0.187227562
v 0.151323453 0.0487500019 0.187109485
v 0.1514529 0.0455000028 0.186963737
v 0.1514529 0.052 0.186963737
v 0.151598632 0.0487500019 0.186834276
v 0.151716739 0.0455000028 0.186749429
v 0.151716739 0.052 0.186749429
v 0.151925772 0.0487500019 0.186633453
v 0.152012274 0.0455000028 0.1865963
v 0.152012274 0.052 0.1865963
v 0.152275547 0.0487500019 0.186516732
v 0.152319387 0.0455000028 0.186508015
v 0.15261963 0.0487500019 0.186480448
v 0.152319387 0.052 0.186508015
v 0.15261963 0.0455000028 0.186480448
v 0.15261963 0.052 0.186480448
v 0.152919874 0.0455000028 0.186508015
v 0.152919874 0.052 0.186508015
v 0.152963713 0.0487500019 0.186516732
v 0.153226987 0.0455000028 0.1865963
v 0.153226987 0.052 0.1865963
v 0.153226987 0.0487500019 0.1865963
v 0.153481781 0.0487500019 0.18672362
v 0.153522521 0.0455000028 0.186749429
v 0.153522521 0.052 0.186749429
v 0.153715327 0.0487500019 0.186896786
v 0.153786361 0.0455000028 0.186963737
v 0.153786361 0.052 0.186963737
v 0.153915823 0.0487500019 0.187109485
v 0.15400067 0.0455000028 0.187227562
v 0.15400067 0.052 0.187227562
v 0.154074192 0.0487500019 0.187351525
v 0.154153779 0.0455000028 0.1875231
v 0.154153779 0.052 0.1875231
v 0.154185563 0.0487500019 0.187610537
v 0.154242083 0.0455000028 0.18783024
v 0.154242083 0.052 0.18783024
v 0.154249549 0.0487500019 0.18787393
v 0.154269621 0.0455000028 0.188130453
v 0.154269621 0.052 0.188130453
v 0.154242083 0.0455000028 0.1884307
v 0.154233351 0.0487500019 0.188474536
v 0.154242083 0.052 0.1884307
v 0.154153779 0.0455000028 0.188737825
v 0.154153779 0.052 0.188737825
v 0.154116645 0.0487500019 0.188824311
v 0.15400067 0.0455000028 0.189033359
v 0.15400067 0.052 0.189033359
v 0.153915823 0.0487500019 0.189151451
v 0.153786361 0.0455000028 0.189297184
v 0.153786361 0.052 0.189297184
v 0.153640628 0.0487500019 0.189426631
v 0.153522521 0.0455000028 0.1895115
v 0.153522521 0.052 0.1895115
v 0.153313488 0.0487500019 0.189627483
v 0.153226987 0.0455000028 0.189664632
v 0.153226987 0.052 0.189664632
v 0.152963713 0.0487500019 0.1897442
v 0.152919874 0.0455000028 0.1897529
v 0.15261963 0.0487500019 0.189780474
v 0.152919874 0.052 0.1897529
v 0.15261963 0.0455000028 0.189780474
v 0.15261963 0.052 0.189780474
v 0.152319387 0.0455000028 0.1897529
v 0.152319387 0.052 0.1897529
v 0.152275547 0.0487500019 0.1897442
v 0.152012274 0.0455000028 0.189664632
v 0.152012274 0.052 0.189664632
v 0.152012274 0.0487500019 0.189664632
v 0.151757479 0.0487500019 0.189537317
v 0.151716739 0.0455000028 0.1895115
v 0.151716739 0.052 0.1895115
v 0.151523918 0.0487500019 0.189364135
v 0.1514529 0.0455000028 0.189297184
v 0.1514529 0.052 0.189297184
v 0.151323453 0.0487500019 0.189151451
v 0.151238576 0.0455000028 0.189033359
v 0.151238576 0.052 0.189033359
v 0.151165068 0.0487500019 0.188909411
v 0.151085481 0.0455000028 0.188737825
v 0.151085481 0.052 0.188737825
v 0.151053682 0.0487500019 0.1886504
v 0.150997177 0.0455000028 0.1884307
v 0.150997177 0.052 0.1884307
v 0.1509897 0.0487500019 0.188387
v 0.150969625 0.0455000028 0.188130453
v 0.150969625 0.052 0.188130453
v 0.155992433 0.0550000034 0.18719548
v 0.156056032 0.0549364053 0.188130453
v 0.155992433 0.0550000034 0.184500009
v 0.15624243 0.05475 0.18900001
v 0.155992433 0.0550000034 0.189065456
v 0.156492427 0.0545 0.184500009
v 0.155992433 0.0550000034 0.193500012
v 0.156492427 0.0545 0.193500012
v 0.149619624 0.0545 0.188130453
v 0.149619624 0.052 0.188130453
v 0.1496697 0.052 0.187584579
v 0.149685577 0.0532500036 0.187504858
v 0.1496697 0.0545 0.187584579
v 0.149830267 0.052 0.187026188
v 0.149830267 0.0545 0.187026188
v 0.149897784 0.0532500036 0.1868689
v 0.15010865 0.052 0.186488837
v 0.15010865 0.0545 0.186488837
v 0.150262937 0.0532500036 0.186274126
v 0.150498316 0.052 0.186009139
v 0.150498316 0.0545 0.186009139
v 0.150763288 0.0532500036 0.18577376
v 0.150978 0.052 0.185619473
v 0.150978 0.0545 0.185619473
v 0.151358068 0.0532500036 0.1854086
v 0.15151535 0.052 0.1853411
v 0.15151535 0.0545 0.1853411
v 0.15199402 0.0532500036 0.185196415
v 0.152073741 0.052 0.185180545
v 0.15261963 0.0532500036 0.185130477
v 0.152073741 0.0545 0.185180545
v 0.15261963 0.052 0.185130477
v 0.15261963 0.0545 0.185130477
v 0.153165519 0.052 0.185180545
v 0.153165519 0.0545 0.185180545
v 0.15324524 0.0532500036 0.185196415
v 0.153723925 0.052 0.1853411
v 0.153723925 0.0545 0.1853411
v 0.153723925 0.0532500036 0.1853411
v 0.154187188 0.0532500036 0.18557258
v 0.154261261 0.052 0.185619473
v 0.154261261 0.0545 0.185619473
v 0.154611826 0.0532500036 0.185887441
v 0.154740945 0.052 0.186009139
v 0.154740945 0.0545 0.186009139
v 0.154976308 0.0532500036 0.186274126
v 0.15513061 0.052 0.186488837
v 0.15513061 0.0545 0.186488837
v 0.155264273 0.0532500036 0.186714172
v 0.155409 0.052 0.187026188
v 0.155409 0.0545 0.187026188
v 0.15546681 0.0532500036 0.187185138
v 0.155569538 0.052 0.187584579
v 0.155569538 0.0545 0.187584579
v 0.155583143 0.0532500036 0.187664017
v 0.155619621 0.052 0.188130453
v 0.155619621 0.0545 0.188130453
v 0.155569538 0.052 0.188676342
v 0.155553669 0.0532500036 0.188756078
v 0.155569538 0.0545 0.188676342
v 0.155409 0.052 0.189234748
v 0.155409 0.0545 0.189234748
v 0.155341476 0.0532500036 0.18939203
v 0.15513061 0.052 0.1897721
v 0.15513061 0.0545 0.1897721
v 0.154976308 0.0532500036 0.18998681
v 0.154740945 0.052 0.190251783
v 0.154740945 0.0545 0.190251783
v 0.154475972 0.0532500036 0.190487176
v 0.154261261 0.052 0.190641448
v 0.154261261 0.0545 0.190641448
v 0.153881177 0.0532500036 0.1908523
v 0.153723925 0.052 0.190919816
v 0.153723925 0.0545 0.190919816
v 0.15324524 0.0532500036 0.191064492
v 0.153165519 0.052 0.191080391
v 0.15261963 0.0532500036 0.191130459
v 0.153165519 0.0545 0.191080391
v 0.15261963 0.052 0.191130459
v 0.15261963 0.0545 0.191130459
v 0.152073741 0.052 0.191080391
v 0.152073741 0.0545 0.191080391
v 0.15199402 0.0532500036 0.191064492
v 0.15151535 0.052 0.190919816
v 0.15151535 0.0545 0.190919816
v 0.15151535 0.0532500036 0.190919816
v 0.151052073 0.0532500036 0.190688357
v 0.150978 0.052 0.190641448
v 0.150978 0.0545 0.190641448
v 0.150627434 0.0532500036 0.1903735
v 0.150498316 0.052 0.190251783
v 0.150498316 0.0545 0.190251783
v 0.150262937 0.0532500036 0.18998681
v 0.15010865 0.052 0.1897721
v 0.15010865 0.0545 0.1897721
v 0.149974987 0.0532500036 0.189546734
v 0.149830267 0.052 0.189234748
v 0.149830267 0.0545 0.189234748
v 0.14977245 0.0532500036 0.189075768
v 0.1496697 0.052 0.188676342
v 0.1496697 0.0545 0.188676342
v 0.149656117 0.0532500036 0.1885969
v 0.149619624 0.052 0.188130453
v 0.149619624 0.0545 0.188130453
v 0.09849243 0.05165 0.193500012
v 0.09849243 0.05165 0.184500009
v 0.09879267 0.0516224578 0.184500009
v 0.09883651 0.05161373 0.18900001
v 0.09879267 0.0516224578 0.193500012
v 0.0990997851 0.0515341535 0.184500009
v 0.0990997851 0.0515341535 0.193500012
v 0.0991862938 0.0514970161 0.18900001
v 0.09939533 0.0513810478 0.184500009
v 0.09939533 0.0513810478 0.193500012
v 0.09951342 0.0512961857 0.18900001
v 0.09965915 0.05116673 0.184500009
v 0.09965915 0.05116673 0.193500012
v 0.09978861 0.0510209948 0.18900001
v 0.09987347 0.0509028956 0.184500009
v 0.09987347 0.0509028956 0.193500012
v 0.099989444 0.0506938621 0.18900001
v 0.100026585 0.05060736 0.184500009
v 0.100026585 0.05060736 0.193500012
v 0.10010615 0.0503440872 0.18900001
v 0.100114882 0.0503002442 0.184500009
v 0.100142427 0.0500000045 0.18900001
v 0.100114882 0.0503002442 0.193500012
v 0.100142427 0.0500000045 0.184500009
v 0.100142427 0.0500000045 0.193500012
v 0.100114882 0.0496997647 0.184500009
v 0.100114882 0.0496997647 0.193500012
v 0.10010615 0.04965592 0.18900001
v 0.100026585 0.049392648 0.184500009
v 0.100026585 0.049392648 0.193500012
v 0.100026585 0.049392648 0.18900001
v 0.09989926 0.0491378456 0.18900001
v 0.09987347 0.0490971059 0.184500009
v 0.09987347 0.0490971059 0.193500012
v 0.09972609 0.0489043 0.18900001
v 0.09965915 0.0488332734 0.184500009
v 0.09965915 0.0488332734 0.193500012
v 0.09951342 0.04870382 0.18900001
v 0.09939533 0.0486189574 0.184500009
v 0.09939533 0.0486189574 0.193500012
v 0.09927138 0.0485454462 0.18900001
v 0.0990997851 0.048465848 0.184500009
v 0.0990997851 0.048465848 0.193500012
v 0.0990123451 0.04843406 0.18900001
v 0.09879267 0.04837755 0.184500009
v 0.09879267 0.04837755 0.193500012
v 0.09874897 0.048370067 0.18900001
v 0.09849243 0.0483500026 0.184500009
v 0.09849243 0.0483500026 0.193500012
v 0.0981921852 0.04837755 0.184500009
v 0.0981483459 0.0483862758 0.18900001
v 0.0981921852 0.04837755 0.193500012
v 0.0978850648 0.048465848 0.184500009
v 0.0978850648 0.048465848 0.193500012
v 0.09779857 0.0485029854 0.18900001
v 0.09758954 0.0486189574 0.184500009
v 0.09758954 0.0486189574 0.193500012
v 0.09747144 0.04870382 0.18900001
v 0.097325705 0.0488332734 0.184500009
v 0.097325705 0.0488332734 0.193500012
v 0.09719625 0.0489790142 0.18900001
v 0.09711138 0.0490971059 0.184500009
v 0.09711138 0.0490971059 0.193500012
v 0.09699541 0.04930614 0.18900001
v 0.09695828 0.049392648 0.184500009
v 0.09695828 0.049392648 0.193500012
v 0.09687871 0.04965592 0.18900001
v 0.09686998 0.0496997647 0.184500009
v 0.09684242 0.0500000045 0.18900001
v 0.09686998 0.0496997647 0.193500012
v 0.09684242 0.0500000045 0.184500009
v 0.09684242 0.0500000045 0.193500012
v 0.09686998 0.0503002442 0.184500009
v 0.09686998 0.0503002442 0.193500012
v 0.09687871 0.0503440872 0.18900001
v 0.09695828 0.05060736 0.184500009
v 0.09695828 0.05060736 0.193500012
v 0.09695828 0.05060736 0.18900001
v 0.0970855951 0.0508621559 0.18900001
v 0.09711138 0.0509028956 0.184500009
v 0.09711138 0.0509028956 0.193500012
v 0.09725876 0.05109571 0.18900001
v 0.097325705 0.05116673 0.184500009
v 0.097325705 0.05116673 0.193500012
v 0.09747144 0.0512961857 0.18900001
v 0.09758954 0.0513810478 0.184500009
v 0.09758954 0.0513810478 0.193500012
v 0.09771347 0.0514545627 0.18900001
v 0.0978850648 0.0515341535 0.184500009
v 0.0978850648 0.0515341535 0.193500012
v 0.09797251 0.0515659451 0.18900001
v 0.0981921852 0.0516224578 0.184500009
v 0.0981921852 0.0516224578 0.193500012
v 0.09823589 0.0516299345 0.18900001
v 0.09849243 0.05165 0.184500009
v 0.09849243 0.05165 0.193500012
v 0.155992433 0.0550000034 0.193500012
v 0.155992433 0.0550000034 0.189065456
v 0.155786738 0.0550000034 0.189620242
v 0.155473515 0.0550000034 0.190156624
v 0.1550551 0.0550000034 0.190644115
v 0.154545262 0.0550000034 0.191053137
v 0.15396826 0.0550000034 0.191360191
v 0.153355211 0.0550000034 0.191552281
v 0.152738765 0.0550000034 0.191628426
v 0.15214783 0.0550000034 0.19159852
v 0.0749924257 0.0550000034 0.188875228
v 0.15157038 0.0550000034 0.191469491
v -0.006007576 0.0550000034 0.193500012
v 0.15099667 0.0550000034 0.19123143
v 0.150457233 0.0550000034 0.190882549
v 0.149983227 0.0550000034 0.1904325
v 0.149601161 0.0550000034 0.189902157
v 0.149328187 0.0550000034 0.1893206
v 0.149169639 0.0550000034 0.188720047
v 0.14911963 0.0550000034 0.188130453
v 0.149169639 0.0550000034 0.187540889
v 0.149328187 0.0550000034 0.186940342
v 0.149601161 0.0550000034 0.18635878
v 0.149983227 0.0550000034 0.185828432
v 0.150457233 0.0550000034 0.185378358
v 0.15099667 0.0550000034 0.185029492
v -0.006007576 0.0550000034 0.184500009
v 0.15157038 0.0550000034 0.184791446
v 0.15214783 0.0550000034 0.184662417
v 0.152738765 0.0550000034 0.18463251
v 0.155992433 0.0550000034 0.184500009
v 0.153355211 0.0550000034 0.184708655
v 0.15396826 0.0550000034 0.184900731
v 0.154545262 0.0550000034 0.1852078
v 0.1550551 0.0550000034 0.185616791
v 0.155473515 0.0550000034 0.186104313
v 0.155786738 0.0550000034 0.1866407
v 0.155992433 0.0550000034 0.18719548
v 0.09849243 0.0483500026 0.193500012
v 0.0981921852 0.04837755 0.193500012
v 0.09849243 0.0478499979 0.194
v 0.09789373 0.0481967963 0.19375
v 0.0978850648 0.048465848 0.193500012
v 0.0981012061 0.0478858948 0.194
v 0.09770103 0.0480009578 0.194
v 0.09758954 0.0486189574 0.193500012
v 0.09731592 0.04820046 0.194
v 0.09731674 0.04850743 0.19375
v 0.097325705 0.0488332734 0.193500012
v 0.096872434 0.04900722 0.19375
v 0.0969721451 0.04847972 0.194
v 0.09711138 0.0490971059 0.193500012
v 0.09669289 0.0488235019 0.194
v 0.09695828 0.049392648 0.193500012
v 0.09649338 0.0492085963 0.194
v 0.0966341943 0.0496037863 0.19375
v 0.09686998 0.0496997647 0.193500012
v 0.09659243 0.0500000045 0.19375
v 0.09637832 0.0496087819 0.194
v 0.09684242 0.0500000045 0.193500012
v 0.09634242 0.0500000045 0.194
v 0.09686998 0.0503002442 0.193500012
v 0.09637832 0.0503912233 0.194
v 0.0966341943 0.05039622 0.19375
v 0.09695828 0.05060736 0.193500012
v 0.09649338 0.0507914051 0.194
v 0.0967685953 0.05079899 0.19375
v 0.09711138 0.0509028956 0.193500012
v 0.09669289 0.0511765033 0.194
v 0.09699986 0.0511756875 0.19375
v 0.097325705 0.05116673 0.193500012
v 0.0969721451 0.0515202843 0.194
v 0.09731674 0.05149257 0.19375
v 0.09758954 0.0513810478 0.193500012
v 0.09731592 0.0517995432 0.194
v 0.0976934358 0.0517238379 0.19375
v 0.0978850648 0.0515341535 0.193500012
v 0.09770103 0.0519990474 0.194
v 0.0980962142 0.0518582352 0.19375
v 0.0981921852 0.0516224578 0.193500012
v 0.0981012061 0.0521141067 0.194
v 0.09849243 0.05165 0.193500012
v 0.09849243 0.0521500036 0.194
v -0.00650757644 0.0487000048 0.18900001
v 0.0154924244 0.0487000048 0.18900001
v 0.0154924244 0.04872171 0.188763455
v 0.00449242443 0.04872858 0.1887289
v -0.00650757644 0.04872171 0.188763455
v 0.0154924244 0.04879128 0.188521475
v -0.00650757644 0.04879128 0.188521475
v 0.00449242443 0.0488205329 0.188453346
v 0.0154924244 0.0489119068 0.188288629
v -0.00650757644 0.0489119068 0.188288629
v 0.00449242443 0.048978772 0.188195586
v 0.0154924244 0.0490807667 0.188080788
v -0.00650757644 0.0490807667 0.188080788
v 0.00449242443 0.0491955876 0.187978774
v 0.0154924244 0.0492886268 0.187911913
v -0.00650757644 0.0492886268 0.187911913
v 0.00449242443 0.0494533256 0.187820524
v 0.0154924244 0.049521476 0.187791288
v -0.00650757644 0.049521476 0.187791288
v 0.00449242443 0.0497289039 0.187728584
v 0.0154924244 0.04976345 0.187721714
v 0.00449242443 0.0500000045 0.187700018
v -0.00650757644 0.04976345 0.187721714
v 0.0154924244 0.0500000045 0.187700018
v -0.00650757644 0.0500000045 0.187700018
v 0.0154924244 0.050236553 0.187721714
v -0.00650757644 0.050236553 0.187721714
v 0.00449242443 0.0502710976 0.187728584
v 0.0154924244 0.0504785255 0.187791288
v -0.00650757644 0.0504785255 0.187791288
v 0.00449242443 0.0504785255 0.187791288
v 0.00449242443 0.0506792776 0.187891588
v 0.0154924244 0.0507113747 0.187911913
v -0.00650757644 0.0507113747 0.187911913
v 0.00449242443 0.05086329 0.188028038
v 0.0154924244 0.05091924 0.188080788
v -0.00650757644 0.05091924 0.188080788
v 0.00449242443 0.0510212369 0.188195586
v 0.0154924244 0.0510880947 0.188288629
v -0.00650757644 0.0510880947 0.188288629
v 0.00449242443 0.05114602 0.188386291
v 0.0154924244 0.0512087271 0.188521475
v -0.00650757644 0.0512087271 0.188521475
v 0.00449242443 0.0512337759 0.188590378
v 0.0154924244 0.0512783 0.188763455
v -0.00650757644 0.0512783 0.188763455
v 0.00449242443 0.05128419 0.188797876
v 0.0154924244 0.0513000041 0.18900001
v -0.00650757644 0.0513000041 0.18900001
v 0.0154924244 0.0512783 0.189236552
v 0.00449242443 0.0512714237 0.1892711
v -0.00650757644 0.0512783 0.189236552
v 0.0154924244 0.0512087271 0.189478546
v -0.00650757644 0.0512087271 0.189478546
v 0.00449242443 0.05117947 0.189546674
v 0.0154924244 0.0510880947 0.189711392
v -0.00650757644 0.0510880947 0.189711392
v 0.00449242443 0.0510212369 0.189804435
v 0.0154924244 0.05091924 0.189919248
v -0.00650757644 0.05091924 0.189919248
v 0.00449242443 0.05080442 0.190021247
v 0.0154924244 0.0507113747 0.190088123
v -0.00650757644 0.0507113747 0.190088123
v 0.00449242443 0.0505466759 0.190179482
v 0.0154924244 0.0504785255 0.190208718
v -0.00650757644 0.0504785255 0.190208718
v 0.00449242443 0.0502710976 0.190271422
v 0.0154924244 0.050236553 0.1902783
v 0.00449242443 0.0500000045 0.190300018
v -0.00650757644 0.050236553 0.1902783
v 0.0154924244 0.0500000045 0.190300018
v -0.00650757644 0.0500000045 0.190300018
v 0.0154924244 0.04976345 0.1902783
v -0.00650757644 0.04976345 0.1902783
v 0.00449242443 0.0497289039 0.190271422
v 0.0154924244 0.049521476 0.190208718
v -0.00650757644 0.049521476 0.190208718
v 0.00449242443 0.049521476 0.190208718
v 0.00449242443 0.0493207276 0.190108418
v 0.0154924244 0.0492886268 0.190088123
v -0.00650757644 0.0492886268 0.190088123
v 0.00449242443 0.04913672 0.189972
v 0.0154924244 0.0490807667 0.189919248
v -0.00650757644 0.0490807667 0.189919248
v 0.00449242443 0.048978772 0.189804435
v 0.0154924244 0.0489119068 0.189711392
v -0.00650757644 0.0489119068 0.189711392
v 0.00449242443 0.048853986 0.18961373
v 0.0154924244 0.04879128 0.189478546
v -0.00650757644 0.04879128 0.189478546
v 0.00449242443 0.04876623 0.189409643
v 0.0154924244 0.04872171 0.189236552
v -0.00650757644 0.04872171 0.189236552
v 0.00449242443 0.04871581 0.18920213
v 0.0154924244 0.0487000048 0.18900001
v -0.00650757644 0.0487000048 0.18900001
v 0.152319387 0.052 0.186508015
v 0.152073741 0.052 0.185180545
v 0.15151535 0.052 0.1853411
v 0.15261963 0.052 0.185130477
v 0.152012274 0.052 0.1865963
v 0.15261963 0.052 0.186480448
v 0.150978 0.052 0.185619473
v 0.153165519 0.052 0.185180545
v 0.151716739 0.052 0.186749429
v 0.152919874 0.052 0.186508015
v 0.150498316 0.052 0.186009139
v 0.153723925 0.052 0.1853411
v 0.1514529 0.052 0.186963737
v 0.153226987 0.052 0.1865963
v 0.15010865 0.052 0.186488837
v 0.154261261 0.052 0.185619473
v 0.151238576 0.052 0.187227562
v 0.153522521 0.052 0.186749429
v 0.149830267 0.052 0.187026188
v 0.154740945 0.052 0.186009139
v 0.151085481 0.052 0.1875231
v 0.153786361 0.052 0.186963737
v 0.1496697 0.052 0.187584579
v 0.15513061 0.052 0.186488837
v 0.150997177 0.052 0.18783024
v 0.15400067 0.052 0.187227562
v 0.155409 0.052 0.187026188
v 0.154153779 0.052 0.1875231
v 0.149619624 0.052 0.188130453
v 0.150969625 0.052 0.188130453
v 0.150997177 0.052 0.1884307
v 0.1496697 0.052 0.188676342
v 0.151085481 0.052 0.188737825
v 0.149830267 0.052 0.189234748
v 0.151238576 0.052 0.189033359
v 0.15010865 0.052 0.1897721
v 0.1514529 0.052 0.189297184
v 0.150498316 0.052 0.190251783
v 0.151716739 0.052 0.1895115
v 0.150978 0.052 0.190641448
v 0.152012274 0.052 0.189664632
v 0.15151535 0.052 0.190919816
v 0.152319387 0.052 0.1897529
v 0.152073741 0.052 0.191080391
v 0.15261963 0.052 0.189780474
v 0.15261963 0.052 0.191130459
v 0.153165519 0.052 0.191080391
v 0.152919874 0.052 0.1897529
v 0.153723925 0.052 0.190919816
v 0.153226987 0.052 0.189664632
v 0.154261261 0.052 0.190641448
v 0.153522521 0.052 0.1895115
v 0.154740945 0.052 0.190251783
v 0.153786361 0.052 0.189297184
v 0.15513061 0.052 0.1897721
v 0.15400067 0.052 0.189033359
v 0.155409 0.052 0.189234748
v 0.154153779 0.052 0.188737825
v 0.155569538 0.052 0.188676342
v 0.154242083 0.052 0.1884307
v 0.155619621 0.052 0.188130453
v 0.154269621 0.052 0.188130453
v 0.155569538 0.052 0.187584579
v 0.154242083 0.052 0.18783024
v 0.0154924244 0.0510880947 0.188288629
v 0.0154924244 0.0500000045 0.18900001
v 0.0154924244 0.0512087271 0.188521475
v 0.0154924244 0.05091924 0.188080788
v 0.0154924244 0.0512783 0.188763455
v 0.0154924244 0.0507113747 0.187911913
v 0.0154924244 0.0513000041 0.18900001
v 0.0154924244 0.0504785255 0.187791288
v 0.0154924244 0.0512783 0.189236552
v 0.0154924244 0.050236553 0.187721714
v 0.0154924244 0.0512087271 0.189478546
v 0.0154924244 0.0500000045 0.187700018
v 0.0154924244 0.0510880947 0.189711392
v 0.0154924244 0.04976345 0.187721714
v 0.0154924244 0.05091924 0.189919248
v 0.0154924244 0.049521476 0.187791288
v 0.0154924244 0.0507113747 0.190088123
v 0.0154924244 0.0492886268 0.187911913
v 0.0154924244 0.0504785255 0.190208718
v 0.0154924244 0.0490807667 0.188080788
v 0.0154924244 0.050236553 0.1902783
v 0.0154924244 0.0489119068 0.188288629
v 0.0154924244 0.0500000045 0.190300018
v 0.0154924244 0.04879128 0.188521475
v 0.0154924244 0.04976345 0.1902783
v 0.0154924244 0.04872171 0.188763455
v 0.0154924244 0.049521476 0.190208718
v 0.0154924244 0.0487000048 0.18900001
v 0.0154924244 0.0492886268 0.190088123
v 0.0154924244 0.04872171 0.189236552
v 0.0154924244 0.0490807667 0.189919248
v 0.0154924244 0.04879128 0.189478546
v 0.0154924244 0.0489119068 0.189711392
v -0.00650757644 0.0545 0.193500012
v -0.00650757644 0.0512783 0.189236552
v -0.00650757644 0.0512087271 0.189478546
v -0.00650757644 0.0510880947 0.189711392
v -0.00650757644 0.05091924 0.189919248
v -0.00650757644 0.0507113747 0.190088123
v -0.00650757644 0.0504785255 0.190208718
v -0.00650757644 0.050236553 0.1902783
v -0.00650757644 0.0513000041 0.18900001
v -0.00650757644 0.0500000045 0.190300018
v -0.00650757644 0.0545 0.184500009
v -0.00650757644 0.0512783 0.188763455
v -0.00650757644 0.0512087271 0.188521475
v -0.00650757644 0.0455000028 0.193500012
v -0.00650757644 0.04976345 0.1902783
v -0.00650757644 0.049521476 0.190208718
v -0.00650757644 0.0510880947 0.188288629
v -0.00650757644 0.0492886268 0.190088123
v -0.00650757644 0.05091924 0.188080788
v -0.00650757644 0.0490807667 0.189919248
v -0.00650757644 0.0507113747 0.187911913
v -0.00650757644 0.0489119068 0.189711392
v -0.00650757644 0.0504785255 0.187791288
v -0.00650757644 0.050236553 0.187721714
v -0.00650757644 0.0500000045 0.187700018
v -0.00650757644 0.0455000028 0.184500009
v -0.00650757644 0.04976345 0.187721714
v -0.00650757644 0.049521476 0.187791288
v -0.00650757644 0.04879128 0.189478546
v -0.00650757644 0.04872171 0.189236552
v -0.00650757644 0.0487000048 0.18900001
v -0.00650757644 0.0492886268 0.187911913
v -0.00650757644 0.04872171 0.188763455
v -0.00650757644 0.0490807667 0.188080788
v -0.00650757644 0.04879128 0.188521475
v -0.00650757644 0.0489119068 0.188288629
v 0.155992433 0.0545 0.194
v 0.09888365 0.0521141067 0.194
v 0.09928383 0.0519990474 0.194
v 0.0996689349 0.0517995432 0.194
v 0.100012712 0.0515202843 0.194
v 0.100291975 0.0511765033 0.194
v 0.100491479 0.0507914051 0.194
v 0.100606531 0.0503912233 0.194
v 0.09849243 0.0521500036 0.194
v 0.100642428 0.0500000045 0.194
v 0.155992433 0.0455000028 0.194
v 0.100606531 0.0496087819 0.194
v 0.100491479 0.0492085963 0.194
v -0.006007576 0.0545 0.194
v 0.100291975 0.0488235019 0.194
v 0.0981012061 0.0521141067 0.194
v 0.100012712 0.04847972 0.194
v 0.0996689349 0.04820046 0.194
v 0.09928383 0.0480009578 0.194
v 0.09888365 0.0478858948 0.194
v 0.09849243 0.0478499979 0.194
v -0.006007576 0.0455000028 0.194
v 0.0981012061 0.0478858948 0.194
v 0.09770103 0.0519990474 0.194
v 0.09770103 0.0480009578 0.194
v 0.0749924257 0.0500000045 0.194
v 0.09731592 0.0517995432 0.194
v 0.09731592 0.04820046 0.194
v 0.0969721451 0.0515202843 0.194
v 0.0969721451 0.04847972 0.194
v 0.09669289 0.0511765033 0.194
v 0.09669289 0.0488235019 0.194
v 0.09649338 0.0507914051 0.194
v 0.09649338 0.0492085963 0.194
v 0.09637832 0.0503912233 0.194
v 0.09637832 0.0496087819 0.194
v 0.09634242 0.0500000045 0.194
v 0.156492427 0.0500000045 0.18900001
v 0.156492427 0.0455000028 0.193500012
v 0.156492427 0.0455000028 0.184500009
v 0.156492427 0.0545 0.184500009
v 0.156492427 0.0545 0.193500012
v -0.006257576 0.0500000045 0.184250012
v -0.00650757644 0.0455000028 0.184500009
v -0.00650757644 0.0545 0.184500009
v -0.006007576 0.0545 0.184
v -0.006007576 0.0455000028 0.184
v -0.006257576 0.05475 0.18900001
v -0.00650757644 0.0545 0.184500009
v -0.00650757644 0.0545 0.193500012
v -0.006007576 0.0550000034 0.193500012
v -0.006007576 0.0550000034 0.184500009
v 0.0749924257 0.05475 0.19375
v 0.155992433 0.0550000034 0.193500012
v -0.006007576 0.0550000034 0.193500012
v -0.006007576 0.0545 0.194
v 0.155992433 0.0545 0.194
v -0.006257576 0.0500000045 0.19375
v -0.00650757644 0.0545 0.193500012
v -0.00650757644 0.0455000028 0.193500012
v -0.006007576 0.0455000028 0.194
v -0.006007576 0.0545 0.194
v -0.006257576 0.0452500023 0.18900001
v -0.00650757644 0.0455000028 0.193500012
v -0.00650757644 0.0455000028 0.184500009
v -0.006007576 0.045 0.184500009
v -0.006007576 0.045 0.193500012
v 0.0749924257 0.0452500023 0.19375
v 0.155992433 0.0455000028 0.194
v -0.006007576 0.0455000028 0.194
v -0.006007576 0.045 0.193500012
v 0.155992433 0.045 0.193500012
v 0.15624243 0.0452500023 0.18900001
v 0.155992433 0.045 0.193500012
v 0.155992433 0.045 0.184500009
v 0.156492427 0.0455000028 0.184500009
v 0.156492427 0.0455000028 0.193500012
v 0.15624243 0.0500000045 0.19375
v 0.155992433 0.0545 0.194
v 0.155992433 0.0455000028 0.194
v 0.156492427 0.0455000028 0.193500012
v 0.156492427 0.0545 0.193500012
v 0.156492427 0.0455000028 0.193500012
v 0.15624243 0.045375 0.193625
v 0.155992433 0.045 0.193500012
v 0.155992433 0.0455000028 0.194
v -0.006007576 0.045 0.193500012
v -0.006257576 0.045375 0.193625
v -0.00650757644 0.0455000028 0.193500012
v -0.006007576 0.0455000028 0.194
v 0.15624243 0.0546250045 0.193625
v 0.155992433 0.0550000034 0.193500012
v 0.155992433 0.0545 0.194
v 0.156492427 0.0545 0.193500012
v 0.0749924257 0.0452500023 0.184250012
v 0.155992433 0.045 0.184500009
v -0.006007576 0.045 0.184500009
v -0.006007576 0.0455000028 0.184
v 0.155992433 0.0455000028 0.184
v 0.15624243 0.0500000045 0.184250012
v 0.156492427 0.0545 0.184500009
v 0.156492427 0.0455000028 0.184500009
v 0.155992433 0.0455000028 0.184
v 0.155992433 0.0545 0.184
v 0.155992433 0.0455000028 0.184
v 0.15624243 0.045375 0.184375018
v 0.155992433 0.045 0.184500009
v 0.156492427 0.0455000028 0.184500009
v -0.006257576 0.045375 0.184375018
v -0.006007576 0.045 0.184500009
v -0.00650757644 0.0455000028 0.184500009
v -0.006007576 0.0455000028 0.184
v 0.0749924257 0.05475 0.184250012
v 0.155992433 0.0545 0.184
v -0.006007576 0.0545 0.184
v -0.006007576 0.0550000034 0.184500009
v 0.155992433 0.0550000034 0.184500009
v 0.15624243 0.0546250045 0.184375018
v 0.155992433 0.0550000034 0.184500009
v 0.156492427 0.0545 0.184500009
v 0.155992433 0.0545 0.184
v -0.006257576 0.0546250045 0.184375018
v -0.006007576 0.0545 0.184
v -0.00650757644 0.0545 0.184500009
v -0.006007576 0.0550000034 0.184500009
v 0.155992433 0.0455000028 0.184
v 0.09888365 0.0478858948 0.184
v 0.09928383 0.0480009578 0.184
v 0.0996689349 0.04820046 0.184
v 0.100012712 0.04847972 0.184
v 0.100291975 0.0488235019 0.184
v 0.100491479 0.0492085963 0.184
v 0.100606531 0.0496087819 0.184
v 0.09849243 0.0478499979 0.184
v 0.100642428 0.0500000045 0.184
v 0.155992433 0.0545 0.184
v 0.100606531 0.0503912233 0.184
v 0.100491479 0.0507914051 0.184
v -0.006007576 0.0455000028 0.184
v 0.100291975 0.0511765033 0.184
v 0.0981012061 0.0478858948 0.184
v 0.100012712 0.0515202843 0.184
v 0.0996689349 0.0517995432 0.184
v 0.09928383 0.0519990474 0.184
v 0.09888365 0.0521141067 0.184
v 0.09849243 0.0521500036 0.184
v -0.006007576 0.0545 0.184
v 0.0981012061 0.0521141067 0.184
v 0.09770103 0.0480009578 0.184
v 0.09770103 0.0519990474 0.184
v 0.0749924257 0.0500000045 0.184
v 0.09731592 0.04820046 0.184
v 0.09731592 0.0517995432 0.184
v 0.0969721451 0.04847972 0.184
v 0.0969721451 0.0515202843 0.184
v 0.09669289 0.0488235019 0.184
v 0.09669289 0.0511765033 0.184
v 0.09649338 0.0492085963 0.184
v 0.09649338 0.0507914051 0.184
v 0.09637832 0.0496087819 0.184
v 0.09637832 0.0503912233 0.184
v 0.09634242 0.0500000045 0.184
v 0.0749924257 0.045 0.18900001
v 0.151828229 0.045 0.186131418
v 0.151443124 0.045 0.186330914
v 0.151099354 0.045 0.186610192
v 0.150820091 0.045 0.186953962
v 0.15062058 0.045 0.187339067
v 0.150505513 0.045 0.187739253
v 0.150469631 0.045 0.188130453
v 0.150505513 0.045 0.188521683
v 0.15062058 0.045 0.188921854
v 0.150820091 0.045 0.189306974
v 0.151099354 0.045 0.189650729
v 0.151443124 0.045 0.189930022
v 0.151828229 0.045 0.190129519
v 0.152228415 0.045 0.190244585
v 0.152228415 0.045 0.186016351
v 0.15261963 0.045 0.190280467
v 0.155992433 0.045 0.193500012
v 0.153010845 0.045 0.190244585
v 0.153411031 0.045 0.190129519
v 0.153796121 0.045 0.189930022
v 0.1541399 0.045 0.189650729
v 0.154419169 0.045 0.189306974
v 0.154618666 0.045 0.188921854
v 0.154733732 0.045 0.188521683
v 0.154769629 0.045 0.188130453
v -0.006007576 0.045 0.193500012
v -0.006007576 0.045 0.184500009
v 0.155992433 0.045 0.184500009
v 0.154733732 0.045 0.187739253
v 0.154618666 0.045 0.187339067
v 0.15261963 0.045 0.185980469
v 0.154419169 0.045 0.186953962
v 0.153010845 0.045 0.186016351
v 0.1541399 0.045 0.186610192
v 0.153411031 0.045 0.186131418
v 0.153796121 0.045 0.186330914
v -0.006007576 0.0545 0.194
v -0.006257576 0.0546250045 0.193625
v -0.00650757644 0.0545 0.193500012
v -0.006007576 0.0550000034 0.193500012
f 1 2 3
f 2 4 3
f 3 4 5
f 2 6 4
f 4 7 5
f 6 8 4
f 4 8 7
f 6 9 8
f 8 10 7
f 9 11 8
f 8 11 10
f 9 12 11
f 11 13 10
f 12 14 11
f 11 14 13
f 12 15 14
f 14 16 13
f 15 17 14
f 14 17 16
f 15 18 17
f 17 19 16
f 18 20 17
f 17 20 19
f 18 21 20
f 21 22 20
f 20 23 19
f 20 22 23
f 21 24 22
f 22 25 23
f 24 26 22
f 22 27 25
f 26 28 22
f 22 28 27
f 26 29 28
f 29 30 28
f 28 31 27
f 28 30 31
f 29 32 30
f 30 33 31
f 32 34 30
f 30 35 33
f 34 36 30
f 30 36 35
f 34 37 36
f 37 38 36
f 36 39 35
f 36 38 39
f 37 40 38
f 38 41 39
f 40 42 38
f 38 43 41
f 42 44 38
f 44 43 38
f 44 45 43
f 46 47 48
f 46 48 49
f 50 46 49
f 49 48 51
f 52 50 49
f 49 51 53
f 54 52 49
f 55 49 53
f 54 49 55
f 55 53 56
f 57 55 56
f 58 54 55
f 58 55 57
f 57 56 59
f 60 58 57
f 57 59 61
f 62 60 57
f 63 57 61
f 62 57 63
f 63 61 64
f 65 63 64
f 66 62 63
f 66 63 65
f 65 64 67
f 68 66 65
f 65 67 69
f 70 68 65
f 71 65 69
f 70 65 71
f 71 69 72
f 73 70 71
f 74 71 72
f 73 71 74
f 74 72 75
f 76 73 74
f 77 74 75
f 76 74 77
f 77 75 78
f 79 76 77
f 80 77 78
f 79 77 80
f 80 78 81
f 82 79 80
f 83 80 81
f 82 80 83
f 83 81 84
f 85 82 83
f 86 83 84
f 85 83 86
f 86 84 87
f 88 85 86
f 89 86 87
f 88 86 89
f 90 88 89
f 89 91 90
f 91 92 90
f 91 93 92
f 90 92 94
f 92 95 94
f 93 96 92
f 92 97 95
f 96 98 92
f 92 98 97
f 96 99 98
f 99 100 98
f 98 101 97
f 98 100 101
f 99 102 100
f 100 103 101
f 102 104 100
f 100 105 103
f 104 106 100
f 100 106 105
f 104 107 106
f 107 108 106
f 106 109 105
f 106 108 109
f 107 110 108
f 108 111 109
f 110 112 108
f 108 113 111
f 112 114 108
f 108 114 113
f 112 115 114
f 114 116 113
f 115 117 114
f 114 117 116
f 115 118 117
f 117 119 116
f 118 120 117
f 117 120 119
f 118 121 120
f 120 122 119
f 121 123 120
f 120 123 122
f 121 124 123
f 123 125 122
f 124 126 123
f 123 126 125
f 124 127 126
f 126 128 125
f 127 129 126
f 126 129 128
f 127 130 129
f 129 131 128
f 130 132 129
f 132 131 129
f 132 133 131
f 134 135 136
f 134 136 137
f 138 134 137
f 137 136 139
f 140 138 137
f 137 139 141
f 142 140 137
f 143 137 141
f 142 137 143
f 144 142 143
f 143 141 145
f 146 143 145
f 147 144 143
f 147 143 146
f 146 145 148
f 149 147 146
f 146 148 150
f 151 149 146
f 152 146 150
f 151 146 152
f 152 150 153
f 154 151 152
f 155 152 153
f 154 152 155
f 155 153 156
f 157 154 155
f 158 155 156
f 157 155 159
f 159 155 158
f 160 157 159
f 161 159 158
f 162 160 159
f 163 159 161
f 162 159 163
f 164 163 161
f 165 162 163
f 166 163 164
f 165 163 166
f 167 166 164
f 168 165 166
f 169 166 167
f 168 166 169
f 170 169 167
f 171 168 169
f 172 169 170
f 171 169 172
f 173 171 172
f 174 172 170
f 175 173 172
f 176 172 174
f 176 175 172
f 177 176 174
f 175 176 178
f 176 177 179
f 176 179 178
f 179 180 181
f 180 182 181
f 180 183 182
f 181 182 184
f 183 185 182
f 182 186 184
f 185 187 182
f 182 187 186
f 187 188 186
f 185 189 187
f 189 190 187
f 187 191 188
f 187 190 191
f 189 192 190
f 190 193 191
f 192 194 190
f 190 195 193
f 194 196 190
f 190 196 195
f 196 197 195
f 194 198 196
f 196 199 197
f 198 200 196
f 196 200 199
f 198 201 200
f 200 202 199
f 201 203 200
f 200 204 202
f 203 204 200
f 204 205 202
f 203 206 204
f 204 207 205
f 206 207 204
f 207 208 205
f 206 209 207
f 207 210 208
f 209 210 207
f 210 211 208
f 209 212 210
f 210 213 211
f 212 214 210
f 210 214 213
f 212 215 214
f 214 216 213
f 215 217 214
f 214 217 216
f 215 218 217
f 217 219 216
f 218 220 217
f 217 220 219
f 218 221 220
f 220 222 219
f 221 223 220
f 223 222 220
f 223 224 222
f 225 226 227
f 225 227 228
f 229 225 228
f 228 227 230
f 231 229 228
f 228 230 232
f 233 231 228
f 234 228 232
f 233 228 234
f 234 232 235
f 236 234 235
f 237 233 234
f 237 234 236
f 236 235 238
f 239 237 236
f 236 238 240
f 241 239 236
f 242 236 240
f 241 236 242
f 242 240 243
f 244 242 243
f 245 241 242
f 245 242 244
f 244 243 246
f 247 245 244
f 244 246 248
f 249 247 244
f 250 244 248
f 249 244 250
f 250 248 251
f 252 249 250
f 253 250 251
f 252 250 253
f 253 251 254
f 255 252 253
f 256 253 254
f 255 253 256
f 256 254 257
f 258 255 256
f 259 256 257
f 258 256 259
f 259 257 260
f 261 258 259
f 262 259 260
f 261 259 262
f 262 260 263
f 264 261 262
f 265 262 263
f 264 262 265
f 265 263 266
f 267 264 265
f 268 265 266
f 267 265 268
f 269 267 268
f 268 270 269
f 270 271 269
f 270 272 271
f 269 271 273
f 271 274 273
f 272 275 271
f 271 276 274
f 275 277 271
f 271 277 276
f 275 278 277
f 278 279 277
f 277 280 276
f 277 279 280
f 278 281 279
f 279 282 280
f 281 283 279
f 279 284 282
f 283 285 279
f 279 285 284
f 283 286 285
f 286 287 285
f 285 288 284
f 285 287 288
f 286 289 287
f 287 290 288
f 289 291 287
f 287 292 290
f 291 293 287
f 287 293 292
f 291 294 293
f 293 295 292
f 294 296 293
f 293 296 295
f 294 297 296
f 296 298 295
f 297 299 296
f 296 299 298
f 297 300 299
f 299 301 298
f 300 302 299
f 299 302 301
f 300 303 302
f 302 304 301
f 303 305 302
f 302 305 304
f 303 306 305
f 305 307 304
f 306 308 305
f 305 308 307
f 306 309 308
f 308 310 307
f 309 311 308
f 311 310 308
f 311 312 310
f 313 314 315
f 313 315 316
f 317 313 316
f 316 315 318
f 319 317 316
f 320 316 318
f 319 316 320
f 320 318 321
f 322 319 320
f 323 320 321
f 322 320 323
f 323 321 324
f 325 322 323
f 326 323 324
f 325 323 326
f 326 324 327
f 328 325 326
f 329 326 327
f 328 326 329
f 329 327 330
f 331 328 329
f 332 329 330
f 331 329 332
f 332 330 333
f 334 332 333
f 335 331 332
f 335 332 334
f 334 333 336
f 337 335 334
f 338 334 336
f 339 337 334
f 340 334 338
f 339 334 340
f 341 340 338
f 342 339 340
f 343 340 341
f 343 342 340
f 344 343 341
f 343 344 342
f 344 341 345
f 344 346 342
f 347 344 345
f 344 347 346
f 347 345 348
f 347 349 346
f 350 347 348
f 347 350 349
f 350 348 351
f 350 352 349
f 353 350 351
f 350 353 352
f 353 351 354
f 353 355 352
f 356 353 354
f 353 356 355
f 356 354 357
f 356 358 355
f 359 356 357
f 356 359 358
f 359 357 360
f 358 359 361
f 359 360 361
f 360 362 361
f 362 363 361
f 361 363 364
f 362 365 363
f 363 366 364
f 365 367 363
f 363 367 366
f 365 368 367
f 367 369 366
f 368 370 367
f 367 370 369
f 368 371 370
f 370 372 369
f 371 373 370
f 370 373 372
f 371 374 373
f 373 375 372
f 374 376 373
f 373 376 375
f 374 377 376
f 376 378 375
f 377 379 376
f 376 379 378
f 377 380 379
f 380 381 379
f 379 382 378
f 379 381 382
f 380 383 381
f 381 384 382
f 383 385 381
f 381 386 384
f 385 387 381
f 381 387 386
f 385 388 387
f 387 389 386
f 388 390 387
f 387 390 389
f 388 391 390
f 391 389 390
f 392 391 388
f 391 393 389
f 394 391 392
f 391 394 393
f 395 394 392
f 394 396 393
f 397 394 395
f 394 397 396
f 398 397 395
f 397 399 396
f 400 397 398
f 397 400 399
f 401 400 398
f 400 402 399
f 403 400 401
f 400 403 402
f 404 403 401
f 403 405 402
f 406 403 404
f 403 406 405
f 407 406 404
f 406 408 405
f 406 407 408
f 409 410 411
f 410 412 411
f 410 413 412
f 414 411 412
f 413 415 412
f 416 414 412
f 415 416 412
f 417 418 419
f 417 419 420
f 421 417 420
f 420 419 422
f 423 421 420
f 424 420 422
f 423 420 424
f 424 422 425
f 426 423 424
f 427 424 425
f 426 424 427
f 427 425 428
f 429 426 427
f 430 427 428
f 429 427 430
f 430 428 431
f 432 429 430
f 433 430 431
f 432 430 433
f 433 431 434
f 435 432 433
f 436 433 434
f 435 433 436
f 436 434 437
f 438 436 437
f 439 435 436
f 439 436 438
f 438 437 440
f 441 439 438
f 442 438 440
f 443 441 438
f 444 438 442
f 443 438 444
f 445 444 442
f 446 443 444
f 447 444 445
f 447 446 444
f 448 447 445
f 447 448 446
f 448 445 449
f 448 450 446
f 451 448 449
f 448 451 450
f 451 449 452
f 451 453 450
f 454 451 452
f 451 454 453
f 454 452 455
f 454 456 453
f 457 454 455
f 454 457 456
f 457 455 458
f 457 459 456
f 460 457 458
f 457 460 459
f 460 458 461
f 460 462 459
f 463 460 461
f 460 463 462
f 463 461 464
f 462 463 465
f 463 464 465
f 464 466 465
f 466 467 465
f 465 467 468
f 466 469 467
f 467 470 468
f 469 471 467
f 467 471 470
f 469 472 471
f 471 473 470
f 472 474 471
f 471 474 473
f 472 475 474
f 474 476 473
f 475 477 474
f 474 477 476
f 475 478 477
f 477 479 476
f 478 480 477
f 477 480 479
f 478 481 480
f 480 482 479
f 481 483 480
f 480 483 482
f 481 484 483
f 484 485 483
f 483 486 482
f 483 485 486
f 484 487 485
f 485 488 486
f 487 489 485
f 485 490 488
f 489 491 485
f 485 491 490
f 489 492 491
f 491 493 490
f 492 494 491
f 491 494 493
f 492 495 494
f 495 493 494
f 496 495 492
f 495 497 493
f 498 495 496
f 495 498 497
f 499 498 496
f 498 500 497
f 501 498 499
f 498 501 500
f 502 501 499
f 501 503 500
f 504 501 502
f 501 504 503
f 505 504 502
f 504 506 503
f 507 504 505
f 504 507 506
f 508 507 505
f 507 509 506
f 510 507 508
f 507 510 509
f 511 510 508
f 510 512 509
f 510 511 512
f 513 514 515
f 513 515 516
f 517 513 516
f 516 515 518
f 519 517 516
f 520 516 518
f 519 516 520
f 520 518 521
f 522 519 520
f 523 520 521
f 522 520 523
f 523 521 524
f 525 522 523
f 526 523 524
f 525 523 526
f 526 524 527
f 528 525 526
f 529 526 527
f 528 526 529
f 529 527 530
f 531 528 529
f 532 529 530
f 531 529 532
f 532 530 533
f 534 532 533
f 535 531 532
f 535 532 534
f 534 533 536
f 537 535 534
f 538 534 536
f 539 537 534
f 540 534 538
f 539 534 540
f 541 540 538
f 542 539 540
f 543 540 541
f 543 542 540
f 544 543 541
f 543 544 542
f 544 541 545
f 544 546 542
f 547 544 545
f 544 547 546
f 547 545 548
f 547 549 546
f 550 547 548
f 547 550 549
f 550 548 551
f 550 552 549
f 553 550 551
f 550 553 552
f 553 551 554
f 553 555 552
f 556 553 554
f 553 556 555
f 556 554 557
f 556 558 555
f 559 556 557
f 556 559 558
f 559 557 560
f 558 559 561
f 559 560 561
f 560 562 561
f 562 563 561
f 561 563 564
f 562 565 563
f 563 566 564
f 565 567 563
f 563 567 566
f 565 568 567
f 567 569 566
f 568 570 567
f 567 570 569
f 568 571 570
f 570 572 569
f 571 573 570
f 570 573 572
f 571 574 573
f 573 575 572
f 574 576 573
f 573 576 575
f 574 577 576
f 576 578 575
f 577 579 576
f 576 579 578
f 577 580 579
f 580 581 579
f 579 582 578
f 579 581 582
f 580 583 581
f 581 584 582
f 583 585 581
f 581 586 584
f 585 587 581
f 581 587 586
f 585 588 587
f 587 589 586
f 588 590 587
f 587 590 589
f 588 591 590
f 591 589 590
f 592 591 588
f 591 593 589
f 594 591 592
f 591 594 593
f 595 594 592
f 594 596 593
f 597 594 595
f 594 597 596
f 598 597 595
f 597 599 596
f 600 597 598
f 597 600 599
f 601 600 598
f 600 602 599
f 603 600 601
f 600 603 602
f 604 603 601
f 603 605 602
f 606 603 604
f 603 606 605
f 607 606 604
f 606 608 605
f 606 607 608
f 609 610 611
f 609 611 612
f 613 609 612
f 609 613 614
f 609 614 615
f 616 609 615
f 609 616 617
f 609 617 618
f 619 609 618
f 619 618 620
f 609 619 621
f 619 620 622
f 623 619 622
f 619 623 624
f 619 624 625
f 626 619 625
f 619 626 627
f 619 627 628
f 629 619 628
f 619 629 630
f 631 619 630
f 619 631 632
f 619 632 633
f 634 619 633
f 619 635 621
f 619 634 635
f 634 636 635
f 636 637 635
f 637 638 635
f 638 639 635
f 638 640 639
f 640 641 639
f 641 642 639
f 642 643 639
f 643 644 639
f 644 645 639
f 645 646 639
f 647 648 649
f 648 650 649
f 648 651 650
f 649 650 652
f 650 653 652
f 651 654 650
f 650 655 653
f 654 656 650
f 650 656 655
f 654 657 656
f 657 658 656
f 656 659 655
f 656 658 659
f 657 660 658
f 658 661 659
f 660 662 658
f 658 663 661
f 662 664 658
f 658 664 663
f 662 665 664
f 665 666 664
f 664 667 663
f 664 666 667
f 665 668 666
f 666 669 667
f 668 670 666
f 666 671 669
f 670 672 666
f 666 672 671
f 670 673 672
f 672 674 671
f 673 675 672
f 672 675 674
f 673 676 675
f 675 677 674
f 676 678 675
f 675 678 677
f 676 679 678
f 678 680 677
f 679 681 678
f 678 681 680
f 679 682 681
f 681 683 680
f 682 684 681
f 681 684 683
f 682 685 684
f 684 686 683
f 685 687 684
f 684 687 686
f 685 688 687
f 687 689 686
f 688 690 687
f 690 689 687
f 690 691 689
f 692 693 694
f 692 694 695
f 696 692 695
f 695 694 697
f 698 696 695
f 699 695 697
f 698 695 699
f 699 697 700
f 701 698 699
f 702 699 700
f 701 699 702
f 702 700 703
f 704 701 702
f 705 702 703
f 704 702 705
f 705 703 706
f 707 704 705
f 708 705 706
f 707 705 708
f 708 706 709
f 710 707 708
f 711 708 709
f 710 708 711
f 711 709 712
f 713 711 712
f 714 710 711
f 714 711 713
f 713 712 715
f 716 714 713
f 717 713 715
f 718 716 713
f 719 713 717
f 718 713 719
f 720 719 717
f 721 718 719
f 722 719 720
f 722 721 719
f 723 722 720
f 722 723 721
f 723 720 724
f 723 725 721
f 726 723 724
f 723 726 725
f 726 724 727
f 726 728 725
f 729 726 727
f 726 729 728
f 729 727 730
f 729 731 728
f 732 729 730
f 729 732 731
f 732 730 733
f 732 734 731
f 735 732 733
f 732 735 734
f 735 733 736
f 735 737 734
f 738 735 736
f 735 738 737
f 738 736 739
f 737 738 740
f 738 739 740
f 739 741 740
f 741 742 740
f 740 742 743
f 741 744 742
f 742 745 743
f 744 746 742
f 742 746 745
f 744 747 746
f 746 748 745
f 747 749 746
f 746 749 748
f 747 750 749
f 749 751 748
f 750 752 749
f 749 752 751
f 750 753 752
f 752 754 751
f 753 755 752
f 752 755 754
f 753 756 755
f 755 757 754
f 756 758 755
f 755 758 757
f 756 759 758
f 759 760 758
f 758 761 757
f 758 760 761
f 759 762 760
f 760 763 761
f 762 764 760
f 760 765 763
f 764 766 760
f 760 766 765
f 764 767 766
f 766 768 765
f 767 769 766
f 766 769 768
f 767 770 769
f 770 768 769
f 771 770 767
f 770 772 768
f 773 770 771
f 770 773 772
f 774 773 771
f 773 775 772
f 776 773 774
f 773 776 775
f 777 776 774
f 776 778 775
f 779 776 777
f 776 779 778
f 780 779 777
f 779 781 778
f 782 779 780
f 779 782 781
f 783 782 780
f 782 784 781
f 785 782 783
f 782 785 784
f 786 785 783
f 785 787 784
f 785 786 787
f 788 789 790
f 788 791 789
f 792 788 790
f 788 793 791
f 792 790 794
f 793 795 791
f 796 792 794
f 793 797 795
f 796 794 798
f 797 799 795
f 800 796 798
f 797 801 799
f 800 798 802
f 801 803 799
f 804 800 802
f 801 805 803
f 804 802 806
f 805 807 803
f 808 804 806
f 805 809 807
f 808 806 810
f 809 811 807
f 812 808 810
f 809 813 811
f 813 814 811
f 813 815 814
f 812 810 816
f 817 812 816
f 818 817 816
f 818 816 819
f 820 818 819
f 820 819 821
f 822 820 821
f 822 821 823
f 824 822 823
f 824 823 825
f 826 824 825
f 826 825 827
f 828 826 827
f 828 827 829
f 830 828 829
f 830 829 831
f 832 830 831
f 832 831 833
f 832 833 834
f 835 832 834
f 835 834 836
f 837 835 836
f 837 836 838
f 839 837 838
f 839 838 840
f 841 839 840
f 841 840 842
f 843 841 842
f 843 842 844
f 845 843 844
f 845 844 846
f 847 845 846
f 846 848 847
f 848 849 847
f 848 850 849
f 850 851 849
f 850 815 851
f 815 850 814
f 852 853 854
f 853 852 855
f 853 856 854
f 853 855 857
f 856 853 858
f 859 853 857
f 853 860 858
f 853 859 861
f 853 862 860
f 853 861 863
f 862 853 864
f 865 853 863
f 853 866 864
f 853 865 867
f 853 868 866
f 853 867 869
f 868 853 870
f 871 853 869
f 853 872 870
f 853 871 873
f 853 874 872
f 853 873 875
f 874 853 876
f 877 853 875
f 853 878 876
f 853 877 879
f 853 880 878
f 853 879 881
f 880 853 882
f 883 853 881
f 853 884 882
f 853 883 884
f 885 886 887
f 888 885 887
f 885 888 889
f 885 889 890
f 891 885 890
f 885 891 892
f 885 893 886
f 885 892 894
f 885 895 893
f 895 896 893
f 895 897 896
f 898 885 894
f 898 894 899
f 898 899 900
f 897 895 901
f 902 898 900
f 895 903 901
f 898 902 904
f 895 905 903
f 898 904 906
f 905 895 907
f 895 908 907
f 895 909 908
f 895 910 909
f 910 911 909
f 910 912 911
f 913 898 906
f 898 913 914
f 898 914 915
f 910 898 915
f 912 910 916
f 910 915 917
f 910 918 916
f 910 917 919
f 910 920 918
f 920 910 919
f 921 922 923
f 924 921 923
f 921 924 925
f 921 925 926
f 927 921 926
f 921 927 928
f 921 929 922
f 921 928 930
f 931 921 930
f 931 930 932
f 931 932 933
f 921 934 929
f 935 931 933
f 934 936 929
f 931 935 937
f 931 937 938
f 939 931 938
f 931 939 940
f 931 940 941
f 942 931 941
f 943 942 941
f 934 944 936
f 942 943 945
f 934 942 946
f 934 946 944
f 942 945 946
f 946 947 944
f 948 946 945
f 946 949 947
f 946 948 950
f 949 946 951
f 946 950 952
f 946 953 951
f 954 946 952
f 946 955 953
f 946 954 956
f 955 946 957
f 946 956 957
f 958 959 960
f 958 960 961
f 959 958 962
f 962 958 961
f 963 964 965
f 963 965 966
f 964 963 967
f 967 963 966
f 968 969 970
f 968 970 971
f 969 968 972
f 972 968 971
f 973 974 975
f 973 975 976
f 974 973 977
f 977 973 976
f 978 979 980
f 978 980 981
f 979 978 982
f 982 978 981
f 983 984 985
f 983 985 986
f 984 983 987
f 987 983 986
f 988 989 990
f 988 990 991
f 989 988 992
f 992 988 991
f 993 994 995
f 993 995 996
f 994 993 997
f 997 993 996
f 998 999 1000
f 998 1000 1001
f 999 998 1002
f 1002 998 1001
f 1003 1004 1005
f 1004 1003 1006
f 1004 1006 1005
f 1007 1008 1009
f 1008 1007 1010
f 1008 1010 1009
f 1011 1012 1013
f 1014 1011 1013
f 1011 1014 1012
f 1015 1016 1017
f 1015 1017 1018
f 1016 1015 1019
f 1019 1015 1018
f 1020 1021 1022
f 1020 1022 1023
f 1021 1020 1024
f 1024 1020 1023
f 1025 1026 1027
f 1026 1025 1028
f 1026 1028 1027
f 1029 1030 1031
f 1032 1029 1031
f 1029 1032 1030
f 1033 1034 1035
f 1033 1035 1036
f 1034 1033 1037
f 1037 1033 1036
f 1038 1039 1040
f 1041 1038 1040
f 1038 1041 1039
f 1042 1043 1044
f 1045 1042 1044
f 1042 1045 1043
f 1046 1047 1048
f 1049 1046 1048
f 1046 1049 1050
f 1046 1050 1051
f 1052 1046 1051
f 1046 1052 1053
f 1046 1054 1047
f 1046 1053 1055
f 1056 1046 1055
f 1056 1055 1057
f 1056 1057 1058
f 1046 1059 1054
f 1060 1056 1058
f 1059 1061 1054
f 1056 1060 1062
f 1056 1062 1063
f 1064 1056 1063
f 1056 1064 1065
f 1056 1065 1066
f 1067 1056 1066
f 1068 1067 1066
f 1059 1069 1061
f 1067 1068 1070
f 1059 1067 1071
f 1059 1071 1069
f 1067 1070 1071
f 1071 1072 1069
f 1073 1071 1070
f 1071 1074 1072
f 1071 1073 1075
f 1074 1071 1076
f 1071 1075 1077
f 1071 1078 1076
f 1079 1071 1077
f 1071 1080 1078
f 1071 1079 1081
f 1080 1071 1082
f 1071 1081 1082
f 1083 1084 1085
f 1086 1083 1085
f 1083 1086 1087
f 1083 1087 1088
f 1089 1083 1088
f 1083 1089 1090
f 1083 1090 1091
f 1092 1083 1091
f 1083 1092 1093
f 1083 1093 1094
f 1095 1083 1094
f 1083 1095 1096
f 1083 1096 1097
f 1083 1098 1084
f 1099 1083 1097
f 1083 1099 1100
f 1099 1101 1100
f 1101 1102 1100
f 1102 1103 1100
f 1103 1104 1100
f 1104 1105 1100
f 1105 1106 1100
f 1106 1107 1100
f 1107 1108 1100
f 1083 1100 1109
f 1110 1083 1109
f 1108 1111 1100
f 1110 1111 1083
f 1108 1112 1111
f 1111 1098 1083
f 1112 1113 1111
f 1111 1114 1098
f 1113 1115 1111
f 1116 1114 1111
f 1115 1117 1111
f 1118 1116 1111
f 1117 1119 1111
f 1119 1118 1111
f 1120 1121 1122
f 1121 1120 1123
f 1121 1123 1122
