# ROS coordinates: X forward, Y left, Z up; units are metres.
o mesh
v 0.116075523 -0.011978562 0.0345000029
v 0.1160751 -0.0120027661 0.0342361555
v 0.1165666 -0.0124873258 0.0345000029
v 0.116320595 -0.0122593231 0.03424976
v 0.116566323 -0.0125031844 0.0343271345
v 0.11607372 -0.0120803537 0.0339662656
v 0.116565421 -0.0125540169 0.03415031
v 0.11631909 -0.0123441881 0.033995375
v 0.116071343 -0.0122148823 0.0337065458
v 0.116563864 -0.0126421563 0.0339801535
v 0.116316512 -0.0124902278 0.0337574631
v 0.116068013 -0.0124031911 0.0334747
v 0.116561681 -0.0127655314 0.03382825
v 0.116312966 -0.0126903374 0.0335573256
v 0.116063908 -0.0126350056 0.0332863554
v 0.116559 -0.01291741 0.0337048545
v 0.116308764 -0.0129282121 0.0334112644
v 0.116059318 -0.0128946826 0.03315181
v 0.116555989 -0.0130875427 0.033616703
v 0.116304263 -0.0131825553 0.0333263837
v 0.11605455 -0.0131645305 0.0330742076
v 0.116299838 -0.0134327579 0.0333000049
v 0.11655286 -0.01326434 0.03356586
v 0.116049878 -0.013428336 0.03305
v 0.116549805 -0.013437178 0.03355
v 0.116045214 -0.0136921415 0.0330742076
v 0.11654675 -0.0136100166 0.03356586
v 0.116295412 -0.0136829605 0.0333263837
v 0.116040438 -0.0139619894 0.03315181
v 0.116288751 -0.0140596814 0.03347685
v 0.116543621 -0.0137868132 0.033616703
v 0.116035849 -0.0142216664 0.0332863554
v 0.116540611 -0.0139569463 0.0337048545
v 0.116031751 -0.014453481 0.0334747
v 0.116537921 -0.0141088245 0.03382825
v 0.116283163 -0.014375288 0.0337574631
v 0.116028413 -0.01464179 0.0337065458
v 0.116279691 -0.0145714488 0.03412188
v 0.116535738 -0.0142321987 0.0339801535
v 0.116026036 -0.0147763174 0.0339662656
v 0.116534181 -0.0143203391 0.03415031
v 0.116024658 -0.0148539059 0.0342361555
v 0.116533279 -0.0143711716 0.0343271345
v 0.116024233 -0.0148781091 0.0345000029
v 0.116533 -0.0143870292 0.0345000029
v 0.126073956 -0.0121554174 0.0345000029
v 0.126073539 -0.0121796206 0.03476385
v 0.1255652 -0.0126464972 0.0345000029
v 0.125819117 -0.0124273365 0.0347502455
v 0.125564918 -0.0126623558 0.0346728638
v 0.126072168 -0.0122572081 0.03503374
v 0.125564009 -0.0127131883 0.0348496921
v 0.125817612 -0.0125122014 0.0350046232
v 0.126069784 -0.0123917377 0.0352934524
v 0.125562459 -0.0128013277 0.0350198522
v 0.125815034 -0.0126582412 0.03524254
v 0.126066446 -0.0125800464 0.0355253071
v 0.125560284 -0.0129247028 0.0351717547
v 0.125811487 -0.0128583508 0.03544268
v 0.126062348 -0.012811861 0.0357136428
v 0.125557587 -0.0130765811 0.0352951437
v 0.125807285 -0.0130962254 0.03558874
v 0.126057759 -0.0130715379 0.0358481929
v 0.125554577 -0.0132467141 0.0353833
v 0.125802785 -0.0133505687 0.03567362
v 0.126052976 -0.0133413859 0.0359257944
v 0.12579836 -0.0136007713 0.0357
v 0.125551447 -0.0134235118 0.03543414
v 0.126048312 -0.0136051914 0.03595
v 0.125548393 -0.0135963494 0.035450004
v 0.126043648 -0.0138689969 0.0359257944
v 0.125545338 -0.013769188 0.03543414
v 0.125793934 -0.0138509739 0.03567362
v 0.126038879 -0.0141388448 0.0358481929
v 0.125787258 -0.0142276939 0.0355231538
v 0.125542209 -0.0139459847 0.0353833
v 0.12603429 -0.0143985217 0.0357136428
v 0.1255392 -0.0141161177 0.0352951437
v 0.126030177 -0.0146303363 0.0355253071
v 0.125536516 -0.014267996 0.0351717547
v 0.125781685 -0.0145433014 0.03524254
v 0.126026854 -0.0148186451 0.0352934524
v 0.125778213 -0.0147394622 0.0348781273
v 0.125534326 -0.01439137 0.0350198522
v 0.12602447 -0.0149531737 0.03503374
v 0.125532776 -0.0144795105 0.0348496921
v 0.1260231 -0.0150307612 0.03476385
v 0.125531867 -0.014530343 0.0346728638
v 0.126022667 -0.0150549645 0.0345000029
v 0.125531584 -0.0145462006 0.0345000029
v 0.126569152 0.0158402063 0.0345000029
v 0.126568735 0.0158160031 0.03476385
v 0.1260604 0.01534913 0.0345000029
v 0.126314312 0.015568288 0.0347502455
v 0.126060113 0.0153332707 0.0346728638
v 0.126567364 0.0157384146 0.03503374
v 0.1260592 0.01528244 0.0348496921
v 0.1263128 0.0154834241 0.0350046232
v 0.12656498 0.01560389 0.0352934524
v 0.126057655 0.0151942978 0.0350198522
v 0.126310229 0.0153373862 0.03524254
v 0.126561642 0.01541558 0.0355253071
v 0.126055479 0.0150709245 0.0351717547
v 0.126306683 0.0151372757 0.03544268
v 0.126557544 0.0151837654 0.0357136428
v 0.126052782 0.0149190463 0.0352951437
v 0.126302481 0.014899401 0.03558874
v 0.126552954 0.0149240857 0.0358481929
v 0.126049772 0.0147489123 0.0353833
v 0.126297981 0.0146450559 0.03567362
v 0.126548186 0.0146542387 0.0359257944
v 0.126293555 0.0143948561 0.0357
v 0.126046658 0.0145721156 0.03543414
v 0.126543522 0.014390436 0.03595
v 0.126043588 0.014399278 0.035450004
v 0.126538843 0.01412663 0.0359257944
v 0.126040533 0.01422644 0.03543414
v 0.126289129 0.0141446525 0.03567362
v 0.126534075 0.0138567826 0.0358481929
v 0.126282468 0.0137679316 0.0355231538
v 0.1260374 0.0140496437 0.0353833
v 0.126529485 0.0135971028 0.0357136428
v 0.1260344 0.01387951 0.0352951437
v 0.126525387 0.013365292 0.0355253071
v 0.126031712 0.0137276314 0.0351717547
v 0.126276881 0.0134523259 0.03524254
v 0.126522049 0.0131769823 0.0352934524
v 0.126273409 0.0132561643 0.0348781273
v 0.126029521 0.0136042535 0.0350198522
v 0.126519665 0.0130424527 0.03503374
v 0.126027972 0.013516116 0.0348496921
v 0.1265183 0.0129648633 0.03476385
v 0.126027077 0.0134652816 0.0346728638
v 0.126517862 0.01294066 0.0345000029
v 0.1260268 0.0134494249 0.0345000029
v 0.121364787 0.00433044834 0.016
v 0.120974258 0.004373254 0.016
v 0.121373624 0.00483036926 0.0165
v 0.120973788 0.0046291803 0.0162500013
v 0.121073924 0.004863224 0.0165
v 0.120576173 0.00449537672 0.016
v 0.120768413 0.004956944 0.0165
v 0.120573461 0.004770674 0.0162500013
v 0.120194666 0.00470165955 0.016
v 0.120475627 0.00511525432 0.0165
v 0.120200917 0.005008566 0.0162500013
v 0.119855881 0.00498695625 0.016
v 0.120215632 0.00533420267 0.0165
v 0.119889677 0.00533100776 0.0162500013
v 0.119582742 0.00533562154 0.016
v 0.12000601 0.00560178235 0.0165
v 0.119665109 0.005711733 0.0162500013
v 0.119390085 0.00572418375 0.016
v 0.119858161 0.005899981 0.0165
v 0.11953786 0.00611681957 0.0162500013
v 0.119282112 0.00612634048 0.016
v 0.1195031 0.00651371339 0.0162500013
v 0.119775295 0.00620861445 0.0165
v 0.119253144 0.00651813531 0.016
v 0.119753063 0.00650929147 0.0165
v 0.119295955 0.00690865936 0.016
v 0.11978592 0.006808996 0.0165
v 0.119551882 0.00690912642 0.0162500013
v 0.11941807 0.007306745 0.016
v 0.119800627 0.00750138937 0.0162500013
v 0.119879641 0.007114506 0.0165
v 0.119624361 0.007688255 0.016
v 0.120037951 0.007407292 0.0165
v 0.119909659 0.008027042 0.016
v 0.1202569 0.00766729238 0.0165
v 0.120253712 0.0079932455 0.0162500013
v 0.120258316 0.00830018148 0.016
v 0.120836094 0.008293631 0.0162500013
v 0.120524481 0.007876908 0.0165
v 0.120646887 0.008492841 0.016
v 0.120822683 0.008024763 0.0165
v 0.121049047 0.008600808 0.016
v 0.121131316 0.008107623 0.0165
v 0.121440835 0.00862977747 0.016
v 0.121431991 0.008129854 0.0165
v 0.121152557 -0.00766767841 0.016
v 0.120762035 -0.007624871 0.016
v 0.1211614 -0.007167756 0.0165
v 0.120761566 -0.00736894365 0.0162500013
v 0.120861694 -0.007134904 0.0165
v 0.120363951 -0.00750275049 0.016
v 0.120556191 -0.007041183 0.0165
v 0.120361231 -0.0072274534 0.0162500013
v 0.119982436 -0.00729646534 0.016
v 0.120263405 -0.006882873 0.0165
v 0.119988687 -0.00698955869 0.0162500013
v 0.119643658 -0.00701116864 0.016
v 0.1200034 -0.00666392269 0.0165
v 0.119677454 -0.00666711573 0.0162500013
v 0.11937052 -0.00666250568 0.016
v 0.119793788 -0.006396345 0.0165
v 0.119452886 -0.006286392 0.0162500013
v 0.119177856 -0.00627394067 0.016
v 0.119645931 -0.006098144 0.0165
v 0.119325638 -0.005881306 0.0162500013
v 0.119069889 -0.00587178348 0.016
v 0.119290881 -0.005484412 0.0162500013
v 0.119563073 -0.005789512 0.0165
v 0.119040921 -0.005479991 0.016
v 0.11954084 -0.005488835 0.0165
v 0.119083725 -0.0050894646 0.016
v 0.11957369 -0.005189128 0.0165
v 0.119339652 -0.005088997 0.0162500013
v 0.119205847 -0.0046913824 0.016
v 0.119588405 -0.00449673738 0.0162500013
v 0.119667411 -0.00488362135 0.0165
v 0.119412132 -0.00430987123 0.016
v 0.119825721 -0.00459083356 0.0165
v 0.119697429 -0.00397108262 0.016
v 0.120044671 -0.0043308367 0.0165
v 0.120041482 -0.00400488172 0.0162500013
v 0.120046094 -0.00369794713 0.016
v 0.120623872 -0.00370449852 0.0162500013
v 0.120312251 -0.00412121834 0.0165
v 0.120434657 -0.003505284 0.016
v 0.120610461 -0.003973361 0.0165
v 0.120836809 -0.003397319 0.016
v 0.120919079 -0.0038905032 0.0165
v 0.121228606 -0.00336834928 0.016
v 0.121219762 -0.0038682702 0.0165
v 0.121364787 0.00433044834 0.0210000016
v 0.121756583 0.004359416 0.0210000016
v 0.121373624 0.00483036926 0.0205
v 0.121766105 0.00461516576 0.0207500011
v 0.121674307 0.00485260133 0.0205
v 0.122158736 0.004467383 0.0210000016
v 0.12198294 0.00493546 0.0205
v 0.122171186 0.00474241376 0.0207500011
v 0.1225473 0.00466004433 0.0210000016
v 0.122281134 0.0050833174 0.0205
v 0.122551911 0.004966981 0.0207500011
v 0.122895963 0.00493318168 0.0210000016
v 0.122548722 0.005292932 0.0205
v 0.122874357 0.005278213 0.0207500011
v 0.123181261 0.0052719675 0.0210000016
v 0.122767672 0.00555293076 0.0205
v 0.123112246 0.00565075735 0.0207500011
v 0.123387545 0.005653476 0.0210000016
v 0.122925982 0.005845715 0.0205
v 0.12325374 0.00605109241 0.0207500011
v 0.12350966 0.00605156273 0.0210000016
v 0.123302512 0.00644650729 0.0207500011
v 0.123019695 0.00615122635 0.0205
v 0.123552471 0.00644208537 0.0210000016
v 0.123052552 0.00645092735 0.0205
v 0.1235235 0.00683388161 0.0210000016
v 0.12303032 0.006751608 0.0205
v 0.123267755 0.00684339739 0.0207500011
v 0.123415537 0.007236037 0.0210000016
v 0.12304011 0.007444089 0.0207500011
v 0.122947462 0.00706024142 0.0205
v 0.12322288 0.007624601 0.0210000016
v 0.122799605 0.00735844 0.0205
v 0.122949742 0.007973268 0.0210000016
v 0.12258999 0.00762602175 0.0205
v 0.122604705 0.00795166 0.0207500011
v 0.122610956 0.008258566 0.0210000016
v 0.122033305 0.008272454 0.0207500011
v 0.122329995 0.00784497149 0.0205
v 0.122229442 0.008464848 0.0210000016
v 0.1220372 0.008003278 0.0205
v 0.121831357 0.00858697 0.0210000016
v 0.1217317 0.008097 0.0205
v 0.121440835 0.00862977747 0.0210000016
v 0.121431991 0.008129854 0.0205
v 0.121228606 -0.00336834928 0.0210000016
v 0.121219762 -0.0038682702 0.0205
v 0.121519469 -0.003901125 0.0205
v 0.121821076 -0.003725675 0.0207500011
v 0.121619135 -0.00341115659 0.0210000016
v 0.12182498 -0.003994845 0.0205
v 0.12201722 -0.00353327487 0.0210000016
v 0.122117758 -0.004153156 0.0205
v 0.122398727 -0.00373956235 0.0210000016
v 0.122392476 -0.004046469 0.0207500011
v 0.122377761 -0.00437210547 0.0205
v 0.12282788 -0.004554038 0.0207500011
v 0.122737512 -0.004024857 0.0210000016
v 0.122587375 -0.00463968329 0.0205
v 0.12301065 -0.00437352248 0.0210000016
v 0.122735232 -0.004937886 0.0205
v 0.123203307 -0.00476209028 0.0210000016
v 0.123055525 -0.00515472423 0.0207500011
v 0.12281809 -0.00524651632 0.0205
v 0.123090282 -0.005551618 0.0207500011
v 0.123311274 -0.00516424235 0.0210000016
v 0.122840323 -0.005547197 0.0205
v 0.123340249 -0.00555604 0.0210000016
v 0.122807473 -0.0058469 0.0205
v 0.123297438 -0.005946561 0.0210000016
v 0.123041511 -0.005947033 0.0207500011
v 0.122713752 -0.00615240866 0.0205
v 0.123175323 -0.00634464761 0.0210000016
v 0.122900024 -0.00634736661 0.0207500011
v 0.122555435 -0.00644519459 0.0205
v 0.122969031 -0.006726156 0.0210000016
v 0.122662127 -0.00671991147 0.0207500011
v 0.122336492 -0.00670519331 0.0205
v 0.122683741 -0.007064943 0.0210000016
v 0.122339688 -0.007031145 0.0207500011
v 0.122068912 -0.00691481 0.0205
v 0.122335076 -0.00733808056 0.0210000016
v 0.121958956 -0.00725571346 0.0207500011
v 0.12177071 -0.00706266658 0.0205
v 0.121946506 -0.00753074326 0.0210000016
v 0.121553876 -0.007382958 0.0207500011
v 0.121462084 -0.007145524 0.0205
v 0.121544354 -0.00763870869 0.0210000016
v 0.1211614 -0.007167756 0.0205
v 0.121152557 -0.00766767841 0.0210000016
v 0.120861694 -0.007134904 0.0205
v 0.120560087 -0.00731035275 0.0207500011
v 0.120556191 -0.007041183 0.0205
v 0.120762035 -0.007624871 0.0210000016
v 0.120363951 -0.00750275049 0.0210000016
v 0.120263405 -0.006882873 0.0205
v 0.119982436 -0.00729646534 0.0210000016
v 0.119988687 -0.00698955869 0.0207500011
v 0.1200034 -0.00666392269 0.0205
v 0.119553283 -0.00648199162 0.0207500011
v 0.119643658 -0.00701116864 0.0210000016
v 0.119793788 -0.006396345 0.0205
v 0.11937052 -0.00666250568 0.0210000016
v 0.119645931 -0.006098144 0.0205
v 0.119177856 -0.00627394067 0.0210000016
v 0.119325638 -0.005881306 0.0207500011
v 0.119563073 -0.005789512 0.0205
v 0.119290881 -0.005484412 0.0207500011
v 0.119069889 -0.00587178348 0.0210000016
v 0.11954084 -0.005488835 0.0205
v 0.119040921 -0.005479991 0.0210000016
v 0.11957369 -0.005189128 0.0205
v 0.119083725 -0.0050894646 0.0210000016
v 0.119339652 -0.005088997 0.0207500011
v 0.119667411 -0.00488362135 0.0205
v 0.119205847 -0.0046913824 0.0210000016
v 0.119481146 -0.00468866574 0.0207500011
v 0.119825721 -0.00459083356 0.0205
v 0.119412132 -0.00430987123 0.0210000016
v 0.119719036 -0.00431611668 0.0207500011
v 0.120044671 -0.0043308367 0.0205
v 0.119697429 -0.00397108262 0.0210000016
v 0.120041482 -0.00400488172 0.0207500011
v 0.120312251 -0.00412121834 0.0205
v 0.120046094 -0.00369794713 0.0210000016
v 0.120422207 -0.00378031284 0.0207500011
v 0.120610461 -0.003973361 0.0205
v 0.120434657 -0.003505284 0.0210000016
v 0.120827287 -0.00365306949 0.0207500011
v 0.120919079 -0.0038905032 0.0205
v 0.120836809 -0.003397319 0.0210000016
v 0.121219762 -0.0038682702 0.0205
v 0.121228606 -0.00336834928 0.0210000016
v 0.121219762 -0.0038682702 0.0205
v 0.121219762 -0.0038682702 0.0165
v 0.121519469 -0.003901125 0.0165
v 0.121563151 -0.003910625 0.0185
v 0.121519469 -0.003901125 0.0205
v 0.12182498 -0.003994845 0.0165
v 0.12182498 -0.003994845 0.0205
v 0.12191081 -0.00403350033 0.0185
v 0.122117758 -0.004153156 0.0165
v 0.122117758 -0.004153156 0.0205
v 0.12223433 -0.004240093 0.0185
v 0.122377761 -0.00437210547 0.0165
v 0.122377761 -0.00437210547 0.0205
v 0.122504614 -0.004520109 0.0185
v 0.122587375 -0.00463968329 0.0165
v 0.122587375 -0.00463968329 0.0205
v 0.122699633 -0.00485073868 0.0185
v 0.122735232 -0.004937886 0.0165
v 0.122735232 -0.004937886 0.0205
v 0.12281014 -0.00520252436 0.0185
v 0.12281809 -0.00524651632 0.0165
v 0.122840323 -0.005547197 0.0185
v 0.12281809 -0.00524651632 0.0205
v 0.122840323 -0.005547197 0.0165
v 0.122840323 -0.005547197 0.0205
v 0.122807473 -0.0058469 0.0165
v 0.122807473 -0.0058469 0.0205
v 0.122797966 -0.005890582 0.0185
v 0.122713752 -0.00615240866 0.0165
v 0.122713752 -0.00615240866 0.0205
v 0.122713752 -0.00615240866 0.0185
v 0.122581951 -0.00640491256 0.0185
v 0.122555435 -0.00644519459 0.0165
v 0.122555435 -0.00644519459 0.0205
v 0.122404672 -0.0066353674 0.0185
v 0.122336492 -0.00670519331 0.0165
v 0.122336492 -0.00670519331 0.0205
v 0.122188486 -0.00683204876 0.0185
v 0.122068912 -0.00691481 0.0165
v 0.122068912 -0.00691481 0.0205
v 0.121943682 -0.006986119 0.0185
v 0.12177071 -0.00706266658 0.0165
v 0.12177071 -0.00706266658 0.0205
v 0.121682726 -0.00709291035 0.0185
v 0.121462084 -0.007145524 0.0165
v 0.121462084 -0.007145524 0.0205
v 0.121418253 -0.007152231 0.0185
v 0.1211614 -0.007167756 0.0165
v 0.1211614 -0.007167756 0.0205
v 0.120861694 -0.007134904 0.0165
v 0.120818011 -0.0071254014 0.0185
v 0.120861694 -0.007134904 0.0205
v 0.120556191 -0.007041183 0.0165
v 0.120556191 -0.007041183 0.0205
v 0.12047036 -0.007002525 0.0185
v 0.120263405 -0.006882873 0.0165
v 0.120263405 -0.006882873 0.0205
v 0.120146833 -0.006795936 0.0185
v 0.1200034 -0.00666392269 0.0165
v 0.1200034 -0.00666392269 0.0205
v 0.119876549 -0.006515919 0.0185
v 0.119793788 -0.006396345 0.0165
v 0.119793788 -0.006396345 0.0205
v 0.11968153 -0.00618528761 0.0185
v 0.119645931 -0.006098144 0.0165
v 0.119645931 -0.006098144 0.0205
v 0.119571023 -0.00583350332 0.0185
v 0.119563073 -0.005789512 0.0165
v 0.11954084 -0.005488835 0.0185
v 0.119563073 -0.005789512 0.0205
v 0.11954084 -0.005488835 0.0165
v 0.11954084 -0.005488835 0.0205
v 0.11957369 -0.005189128 0.0165
v 0.11957369 -0.005189128 0.0205
v 0.1195832 -0.00514544547 0.0185
v 0.119667411 -0.00488362135 0.0165
v 0.119667411 -0.00488362135 0.0205
v 0.119667411 -0.00488362135 0.0185
v 0.119799212 -0.004631114 0.0185
v 0.119825721 -0.00459083356 0.0165
v 0.119825721 -0.00459083356 0.0205
v 0.119976491 -0.00440066075 0.0185
v 0.120044671 -0.0043308367 0.0165
v 0.120044671 -0.0043308367 0.0205
v 0.120192677 -0.004203979 0.0185
v 0.120312251 -0.00412121834 0.0165
v 0.120312251 -0.00412121834 0.0205
v 0.120437481 -0.004049907 0.0185
v 0.120610461 -0.003973361 0.0165
v 0.120610461 -0.003973361 0.0205
v 0.120698437 -0.00394311966 0.0185
v 0.120919079 -0.0038905032 0.0165
v 0.120919079 -0.0038905032 0.0205
v 0.1209629 -0.00388379581 0.0185
v 0.121219762 -0.0038682702 0.0165
v 0.121219762 -0.0038682702 0.0205
v 0.121373624 0.00483036926 0.0205
v 0.121073924 0.004863224 0.0205
v 0.121364787 0.00433044834 0.0210000016
v 0.120772317 0.00468777027 0.0207500011
v 0.120768413 0.004956944 0.0205
v 0.120974258 0.004373254 0.0210000016
v 0.120576173 0.00449537672 0.0210000016
v 0.120475627 0.00511525432 0.0205
v 0.120194666 0.00470165955 0.0210000016
v 0.120200917 0.005008566 0.0207500011
v 0.120215632 0.00533420267 0.0205
v 0.119765513 0.00551613327 0.0207500011
v 0.119855881 0.00498695625 0.0210000016
v 0.12000601 0.00560178235 0.0205
v 0.119582742 0.00533562154 0.0210000016
v 0.119858161 0.005899981 0.0205
v 0.119390085 0.00572418375 0.0210000016
v 0.11953786 0.00611681957 0.0207500011
v 0.119775295 0.00620861445 0.0205
v 0.1195031 0.00651371339 0.0207500011
v 0.119282112 0.00612634048 0.0210000016
v 0.119753063 0.00650929147 0.0205
v 0.119253144 0.00651813531 0.0210000016
v 0.11978592 0.006808996 0.0205
v 0.119295955 0.00690865936 0.0210000016
v 0.119551882 0.00690912642 0.0207500011
v 0.119879641 0.007114506 0.0205
v 0.11941807 0.007306745 0.0210000016
v 0.119693369 0.007309461 0.0207500011
v 0.120037951 0.007407292 0.0205
v 0.119624361 0.007688255 0.0210000016
v 0.119931266 0.00768200774 0.0207500011
v 0.1202569 0.00766729238 0.0205
v 0.119909659 0.008027042 0.0210000016
v 0.120253712 0.0079932455 0.0207500011
v 0.120524481 0.007876908 0.0205
v 0.120258316 0.00830018148 0.0210000016
v 0.120634437 0.00821781252 0.0207500011
v 0.120822683 0.008024763 0.0205
v 0.120646887 0.008492841 0.0210000016
v 0.121039525 0.008345056 0.0207500011
v 0.121131316 0.008107623 0.0205
v 0.121049047 0.008600808 0.0210000016
v 0.121431991 0.008129854 0.0205
v 0.121440835 0.00862977747 0.0210000016
v 0.121431991 0.008129854 0.0205
v 0.121431991 0.008129854 0.0165
v 0.1217317 0.008097 0.0165
v 0.121775381 0.008087501 0.0185
v 0.1217317 0.008097 0.0205
v 0.1220372 0.008003278 0.0165
v 0.1220372 0.008003278 0.0205
v 0.122123033 0.007964625 0.0185
v 0.122329995 0.00784497149 0.0165
v 0.122329995 0.00784497149 0.0205
v 0.122446567 0.007758035 0.0185
v 0.12258999 0.00762602175 0.0165
v 0.12258999 0.00762602175 0.0205
v 0.122716844 0.00747801457 0.0185
v 0.122799605 0.00735844 0.0165
v 0.122799605 0.00735844 0.0205
v 0.122911863 0.007147385 0.0185
v 0.122947462 0.00706024142 0.0165
v 0.122947462 0.00706024142 0.0205
v 0.123022363 0.00679560052 0.0185
v 0.12303032 0.006751608 0.0165
v 0.123052552 0.00645092735 0.0185
v 0.12303032 0.006751608 0.0205
v 0.123052552 0.00645092735 0.0165
v 0.123052552 0.00645092735 0.0205
v 0.123019695 0.00615122635 0.0165
v 0.123019695 0.00615122635 0.0205
v 0.123010196 0.006107541 0.0185
v 0.122925982 0.005845715 0.0165
v 0.122925982 0.005845715 0.0205
v 0.122925982 0.005845715 0.0185
v 0.122794181 0.00559321139 0.0185
v 0.122767672 0.00555293076 0.0165
v 0.122767672 0.00555293076 0.0205
v 0.1226169 0.00536275329 0.0185
v 0.122548722 0.005292932 0.0165
v 0.122548722 0.005292932 0.0205
v 0.122400716 0.00516607426 0.0185
v 0.122281134 0.0050833174 0.0165
v 0.122281134 0.0050833174 0.0205
v 0.122155912 0.005012008 0.0185
v 0.12198294 0.00493546 0.0165
v 0.12198294 0.00493546 0.0205
v 0.121894956 0.004905214 0.0185
v 0.121674307 0.00485260133 0.0165
v 0.121674307 0.00485260133 0.0205
v 0.121630482 0.004845893 0.0185
v 0.121373624 0.00483036926 0.0165
v 0.121373624 0.00483036926 0.0205
v 0.121073924 0.004863224 0.0165
v 0.121030241 0.004872724 0.0185
v 0.121073924 0.004863224 0.0205
v 0.120768413 0.004956944 0.0165
v 0.120768413 0.004956944 0.0205
v 0.120682582 0.00499559566 0.0185
v 0.120475627 0.00511525432 0.0165
v 0.120475627 0.00511525432 0.0205
v 0.120359056 0.005202189 0.0185
v 0.120215632 0.00533420267 0.0165
v 0.120215632 0.00533420267 0.0205
v 0.120088771 0.005482208 0.0185
v 0.12000601 0.00560178235 0.0165
v 0.12000601 0.00560178235 0.0205
v 0.119893759 0.005812836 0.0185
v 0.119858161 0.005899981 0.0165
v 0.119858161 0.005899981 0.0205
v 0.119783252 0.00616462156 0.0185
v 0.119775295 0.00620861445 0.0165
v 0.119753063 0.00650929147 0.0185
v 0.119775295 0.00620861445 0.0205
v 0.119753063 0.00650929147 0.0165
v 0.119753063 0.00650929147 0.0205
v 0.11978592 0.006808996 0.0165
v 0.11978592 0.006808996 0.0205
v 0.119795419 0.00685268128 0.0185
v 0.119879641 0.007114506 0.0165
v 0.119879641 0.007114506 0.0205
v 0.119879641 0.007114506 0.0185
v 0.120011441 0.007367009 0.0185
v 0.120037951 0.007407292 0.0165
v 0.120037951 0.007407292 0.0205
v 0.120188721 0.0075974674 0.0185
v 0.1202569 0.00766729238 0.0165
v 0.1202569 0.00766729238 0.0205
v 0.120404907 0.00779414969 0.0185
v 0.120524481 0.007876908 0.0165
v 0.120524481 0.007876908 0.0205
v 0.12064971 0.007948218 0.0185
v 0.120822683 0.008024763 0.0165
v 0.120822683 0.008024763 0.0205
v 0.120910667 0.008055007 0.0185
v 0.121131316 0.008107623 0.0165
v 0.121131316 0.008107623 0.0205
v 0.121175133 0.008114329 0.0185
v 0.121431991 0.008129854 0.0165
v 0.121431991 0.008129854 0.0205
v 0.1211614 -0.007167756 0.0165
v 0.121462084 -0.007145524 0.0165
v 0.121152557 -0.00766767841 0.016
v 0.121757291 -0.007331529 0.0162500013
v 0.12177071 -0.00706266658 0.0165
v 0.121544354 -0.00763870869 0.016
v 0.121946506 -0.00753074326 0.016
v 0.122068912 -0.00691481 0.0165
v 0.122335076 -0.00733808056 0.016
v 0.122339688 -0.007031145 0.0162500013
v 0.122336492 -0.00670519331 0.0165
v 0.122792765 -0.006539292 0.0162500013
v 0.122683741 -0.007064943 0.016
v 0.122555435 -0.00644519459 0.0165
v 0.122969031 -0.006726156 0.016
v 0.122713752 -0.00615240866 0.0165
v 0.123175323 -0.00634464761 0.016
v 0.123041511 -0.005947033 0.0162500013
v 0.122807473 -0.0058469 0.0165
v 0.123090282 -0.005551618 0.0162500013
v 0.123297438 -0.005946561 0.016
v 0.122840323 -0.005547197 0.0165
v 0.123340249 -0.00555604 0.016
v 0.12281809 -0.00524651632 0.0165
v 0.123311274 -0.00516424235 0.016
v 0.123055525 -0.00515472423 0.0162500013
v 0.122735232 -0.004937886 0.0165
v 0.123203307 -0.00476209028 0.016
v 0.122928284 -0.00474963849 0.0162500013
v 0.122587375 -0.00463968329 0.0165
v 0.12301065 -0.00437352248 0.016
v 0.122703716 -0.00436891336 0.0162500013
v 0.122377761 -0.00437210547 0.0165
v 0.122737512 -0.004024857 0.016
v 0.122392476 -0.004046469 0.0162500013
v 0.122117758 -0.004153156 0.0165
v 0.122398727 -0.00373956235 0.016
v 0.122019932 -0.003808573 0.0162500013
v 0.12182498 -0.003994845 0.0165
v 0.12201722 -0.00353327487 0.016
v 0.121619605 -0.003667084 0.0162500013
v 0.121519469 -0.003901125 0.0165
v 0.121619135 -0.00341115659 0.016
v 0.121219762 -0.0038682702 0.0165
v 0.121228606 -0.00336834928 0.016
v 0.121373624 0.00483036926 0.0165
v 0.121674307 0.00485260133 0.0165
v 0.121364787 0.00433044834 0.016
v 0.121969521 0.004666594 0.0162500013
v 0.12198294 0.00493546 0.0165
v 0.121756583 0.004359416 0.016
v 0.122158736 0.004467383 0.016
v 0.122281134 0.0050833174 0.0165
v 0.1225473 0.00466004433 0.016
v 0.122551911 0.004966981 0.0162500013
v 0.122548722 0.005292932 0.0165
v 0.123004995 0.00545883272 0.0162500013
v 0.122895963 0.00493318168 0.016
v 0.122767672 0.00555293076 0.0165
v 0.123181261 0.0052719675 0.016
v 0.122925982 0.005845715 0.0165
v 0.123387545 0.005653476 0.016
v 0.12325374 0.00605109241 0.0162500013
v 0.123019695 0.00615122635 0.0165
v 0.123302512 0.00644650729 0.0162500013
v 0.12350966 0.00605156273 0.016
v 0.123052552 0.00645092735 0.0165
v 0.123552471 0.00644208537 0.016
v 0.12303032 0.006751608 0.0165
v 0.1235235 0.00683388161 0.016
v 0.123267755 0.00684339739 0.0162500013
v 0.122947462 0.00706024142 0.0165
v 0.123415537 0.007236037 0.016
v 0.123140506 0.00724848546 0.0162500013
v 0.122799605 0.00735844 0.0165
v 0.12322288 0.007624601 0.016
v 0.122915946 0.007629215 0.0162500013
v 0.12258999 0.00762602175 0.0165
v 0.122949742 0.007973268 0.016
v 0.122604705 0.00795166 0.0162500013
v 0.122329995 0.00784497149 0.0165
v 0.122610956 0.008258566 0.016
v 0.122232161 0.008189552 0.0162500013
v 0.1220372 0.008003278 0.0165
v 0.122229442 0.008464848 0.016
v 0.121831834 0.008331042 0.0162500013
v 0.1217317 0.008097 0.0165
v 0.121831357 0.00858697 0.016
v 0.121431991 0.008129854 0.0165
v 0.121440835 0.00862977747 0.016
v 0.1260604 0.01534913 0.0345000029
v 0.126060113 0.0153332707 0.0343271345
v 0.126569152 0.0158402063 0.0345000029
v 0.126313686 0.0155335441 0.03412188
v 0.1260592 0.01528244 0.03415031
v 0.126568735 0.0158160031 0.0342361555
v 0.126567364 0.0157384146 0.0339662656
v 0.126057655 0.0151942978 0.0339801535
v 0.12656498 0.01560389 0.0337065458
v 0.126310229 0.0153373862 0.0337574631
v 0.126055479 0.0150709245 0.03382825
v 0.126304641 0.0150217768 0.03347685
v 0.126561642 0.01541558 0.0334747
v 0.126052782 0.0149190463 0.0337048545
v 0.126557544 0.0151837654 0.0332863554
v 0.126049772 0.0147489123 0.033616703
v 0.126552954 0.0149240857 0.03315181
v 0.126297981 0.0146450559 0.0333263837
v 0.126046658 0.0145721156 0.03356586
v 0.126293555 0.0143948561 0.0333000049
v 0.126548186 0.0146542387 0.0330742076
v 0.126043588 0.014399278 0.03355
v 0.126543522 0.014390436 0.03305
v 0.126040533 0.01422644 0.03356586
v 0.126538843 0.01412663 0.0330742076
v 0.126289129 0.0141446525 0.0333263837
v 0.1260374 0.0140496437 0.033616703
v 0.126534075 0.0138567826 0.03315181
v 0.126284629 0.0138903111 0.0334112644
v 0.1260344 0.01387951 0.0337048545
v 0.126529485 0.0135971028 0.0332863554
v 0.126280427 0.0136524364 0.0335573256
v 0.126031712 0.0137276314 0.03382825
v 0.126525387 0.013365292 0.0334747
v 0.126276881 0.0134523259 0.0337574631
v 0.126029521 0.0136042535 0.0339801535
v 0.126522049 0.0131769823 0.0337065458
v 0.1262743 0.0133062843 0.033995375
v 0.126027972 0.013516116 0.03415031
v 0.126519665 0.0130424527 0.0339662656
v 0.1262728 0.01322142 0.03424976
v 0.126027077 0.0134652816 0.0343271345
v 0.1265183 0.0129648633 0.0342361555
v 0.1260268 0.0134494249 0.0345000029
v 0.126517862 0.01294066 0.0345000029
v 0.121527493 0.0135290083 0.0345000029
v 0.1260268 0.0134494249 0.0345000029
v 0.126027077 0.0134652816 0.0343271345
v 0.123777509 0.0135101 0.0343018919
v 0.121527776 0.013544865 0.0343271345
v 0.126027972 0.013516116 0.03415031
v 0.12152867 0.0135956993 0.03415031
v 0.1237787 0.0135772824 0.03410051
v 0.126029521 0.0136042535 0.0339801535
v 0.121530235 0.0136838369 0.0339801535
v 0.123780742 0.0136928968 0.03391216
v 0.126031712 0.0137276314 0.03382825
v 0.12153241 0.0138072148 0.03382825
v 0.123783544 0.01385132 0.0337537155
v 0.1260344 0.01387951 0.0337048545
v 0.1215351 0.013959093 0.0337048545
v 0.123786882 0.0140396338 0.0336380824
v 0.1260374 0.0140496437 0.033616703
v 0.12153811 0.014129227 0.033616703
v 0.123790443 0.0142409913 0.0335708857
v 0.126040533 0.01422644 0.03356586
v 0.123793945 0.0144390678 0.03355
v 0.121541239 0.0143060237 0.03356586
v 0.126043588 0.014399278 0.03355
v 0.121544294 0.0144788614 0.03355
v 0.126046658 0.0145721156 0.03356586
v 0.121547356 0.014651699 0.03356586
v 0.123797446 0.0146371443 0.0335708857
v 0.126049772 0.0147489123 0.033616703
v 0.121550478 0.0148284957 0.033616703
v 0.123800129 0.0147887021 0.033616703
v 0.123802722 0.0149353817 0.0336900055
v 0.126052782 0.0149190463 0.0337048545
v 0.121553488 0.01499863 0.0337048545
v 0.123805106 0.0150698321 0.03378971
v 0.126055479 0.0150709245 0.03382825
v 0.121556178 0.0151505079 0.03382825
v 0.123807147 0.0151852351 0.03391216
v 0.126057655 0.0151942978 0.0339801535
v 0.121558353 0.015273883 0.0339801535
v 0.123808756 0.01527641 0.0340515152
v 0.1260592 0.01528244 0.03415031
v 0.121559918 0.0153620252 0.03415031
v 0.123809889 0.015340534 0.0342006534
v 0.126060113 0.0153332707 0.0343271345
v 0.121560812 0.0154128522 0.0343271345
v 0.123810545 0.0153773641 0.0343522951
v 0.1260604 0.01534913 0.0345000029
v 0.121561095 0.0154287117 0.0345000029
v 0.126060113 0.0153332707 0.0346728638
v 0.123810381 0.0153680379 0.03469811
v 0.121560812 0.0154128522 0.0346728638
v 0.1260592 0.01528244 0.0348496921
v 0.121559918 0.0153620252 0.0348496921
v 0.123809189 0.0153008513 0.0348994955
v 0.126057655 0.0151942978 0.0350198522
v 0.121558353 0.015273883 0.0350198522
v 0.123807147 0.0151852351 0.0350878462
v 0.126055479 0.0150709245 0.0351717547
v 0.121556178 0.0151505079 0.0351717547
v 0.123804346 0.015026819 0.03524629
v 0.126052782 0.0149190463 0.0352951437
v 0.121553488 0.01499863 0.0352951437
v 0.123801008 0.0148384981 0.0353619233
v 0.126049772 0.0147489123 0.0353833
v 0.121550478 0.0148284957 0.0353833
v 0.123797446 0.0146371443 0.0354291163
v 0.126046658 0.0145721156 0.03543414
v 0.123793945 0.0144390678 0.035450004
v 0.121547356 0.014651699 0.03543414
v 0.126043588 0.014399278 0.035450004
v 0.121544294 0.0144788614 0.035450004
v 0.126040533 0.01422644 0.03543414
v 0.121541239 0.0143060237 0.03543414
v 0.123790443 0.0142409913 0.0354291163
v 0.1260374 0.0140496437 0.0353833
v 0.12153811 0.014129227 0.0353833
v 0.123787761 0.0140894335 0.0353833
v 0.123785168 0.0139427539 0.03531
v 0.1260344 0.01387951 0.0352951437
v 0.1215351 0.013959093 0.0352951437
v 0.123782784 0.0138083035 0.0352102928
v 0.126031712 0.0137276314 0.0351717547
v 0.12153241 0.0138072148 0.0351717547
v 0.123780742 0.0136928968 0.0350878462
v 0.126029521 0.0136042535 0.0350198522
v 0.121530235 0.0136838369 0.0350198522
v 0.123779133 0.0136017278 0.03494849
v 0.126027972 0.013516116 0.0348496921
v 0.12152867 0.0135956993 0.0348496921
v 0.123778 0.0135376062 0.0347993523
v 0.126027077 0.0134652816 0.0346728638
v 0.121527776 0.013544865 0.0346728638
v 0.123777345 0.0135007687 0.03464771
v 0.1260268 0.0134494249 0.0345000029
v 0.121527493 0.0135290083 0.0345000029
v 0.1255652 -0.0126464972 0.0345000029
v 0.125564918 -0.0126623558 0.0343271345
v 0.126073956 -0.0121554174 0.0345000029
v 0.125818491 -0.01246208 0.03412188
v 0.125564009 -0.0127131883 0.03415031
v 0.126073539 -0.0121796206 0.0342361555
v 0.126072168 -0.0122572081 0.0339662656
v 0.125562459 -0.0128013277 0.0339801535
v 0.126069784 -0.0123917377 0.0337065458
v 0.125815034 -0.0126582412 0.0337574631
v 0.125560284 -0.0129247028 0.03382825
v 0.125809446 -0.0129738487 0.03347685
v 0.126066446 -0.0125800464 0.0334747
v 0.125557587 -0.0130765811 0.0337048545
v 0.126062348 -0.012811861 0.0332863554
v 0.125554577 -0.0132467141 0.033616703
v 0.126057759 -0.0130715379 0.03315181
v 0.125802785 -0.0133505687 0.0333263837
v 0.125551447 -0.0134235118 0.03356586
v 0.12579836 -0.0136007713 0.0333000049
v 0.126052976 -0.0133413859 0.0330742076
v 0.125548393 -0.0135963494 0.03355
v 0.126048312 -0.0136051914 0.03305
v 0.125545338 -0.013769188 0.03356586
v 0.126043648 -0.0138689969 0.0330742076
v 0.125793934 -0.0138509739 0.0333263837
v 0.125542209 -0.0139459847 0.033616703
v 0.126038879 -0.0141388448 0.03315181
v 0.125789434 -0.0141053163 0.0334112644
v 0.1255392 -0.0141161177 0.0337048545
v 0.12603429 -0.0143985217 0.0332863554
v 0.125785232 -0.0143431919 0.0335573256
v 0.125536516 -0.014267996 0.03382825
v 0.126030177 -0.0146303363 0.0334747
v 0.125781685 -0.0145433014 0.0337574631
v 0.125534326 -0.01439137 0.0339801535
v 0.126026854 -0.0148186451 0.0337065458
v 0.125779092 -0.0146893412 0.033995375
v 0.125532776 -0.0144795105 0.03415031
v 0.12602447 -0.0149531737 0.0339662656
v 0.1257776 -0.0147742061 0.03424976
v 0.125531867 -0.014530343 0.0343271345
v 0.1260231 -0.0150307612 0.0342361555
v 0.125531584 -0.0145462006 0.0345000029
v 0.126022667 -0.0150549645 0.0345000029
v 0.116533 -0.0143870292 0.0345000029
v 0.125531584 -0.0145462006 0.0345000029
v 0.125531867 -0.014530343 0.0343271345
v 0.12103267 -0.0144457323 0.0343018919
v 0.116533279 -0.0143711716 0.0343271345
v 0.125532776 -0.0144795105 0.03415031
v 0.116534181 -0.0143203391 0.03415031
v 0.121033855 -0.0143785477 0.03410051
v 0.125534326 -0.01439137 0.0339801535
v 0.116535738 -0.0142321987 0.0339801535
v 0.1210359 -0.0142629333 0.03391216
v 0.125536516 -0.014267996 0.03382825
v 0.116537921 -0.0141088245 0.03382825
v 0.121038705 -0.0141045135 0.0337537155
v 0.1255392 -0.0141161177 0.0337048545
v 0.116540611 -0.0139569463 0.0337048545
v 0.121042028 -0.0139161954 0.0336380824
v 0.125542209 -0.0139459847 0.033616703
v 0.116543621 -0.0137868132 0.033616703
v 0.121045589 -0.0137148416 0.0335708857
v 0.125545338 -0.013769188 0.03356586
v 0.1210491 -0.0135167642 0.03355
v 0.11654675 -0.0136100166 0.03356586
v 0.125548393 -0.0135963494 0.03355
v 0.116549805 -0.013437178 0.03355
v 0.125551447 -0.0134235118 0.03356586
v 0.11655286 -0.01326434 0.03356586
v 0.1210526 -0.0133186858 0.0335708857
v 0.125554577 -0.0132467141 0.033616703
v 0.116555989 -0.0130875427 0.033616703
v 0.121055283 -0.0131671289 0.033616703
v 0.121057875 -0.0130204493 0.0336900055
v 0.125557587 -0.0130765811 0.0337048545
v 0.116559 -0.01291741 0.0337048545
v 0.121060252 -0.0128860008 0.03378971
v 0.125560284 -0.0129247028 0.03382825
v 0.116561681 -0.0127655314 0.03382825
v 0.121062294 -0.0127705941 0.03391216
v 0.125562459 -0.0128013277 0.0339801535
v 0.116563864 -0.0126421563 0.0339801535
v 0.1210639 -0.0126794223 0.0340515152
v 0.125564009 -0.0127131883 0.03415031
v 0.116565421 -0.0125540169 0.03415031
v 0.121065043 -0.0126153 0.0342006534
v 0.125564918 -0.0126623558 0.0343271345
v 0.116566323 -0.0125031844 0.0343271345
v 0.121065691 -0.0125784623 0.0343522951
v 0.1255652 -0.0126464972 0.0345000029
v 0.1165666 -0.0124873258 0.0345000029
v 0.125564918 -0.0126623558 0.0346728638
v 0.121065527 -0.0125877941 0.03469811
v 0.116566323 -0.0125031844 0.0346728638
v 0.125564009 -0.0127131883 0.0348496921
v 0.116565421 -0.0125540169 0.0348496921
v 0.121064343 -0.01265498 0.0348994955
v 0.125562459 -0.0128013277 0.0350198522
v 0.116563864 -0.0126421563 0.0350198522
v 0.121062294 -0.0127705941 0.0350878462
v 0.125560284 -0.0129247028 0.0351717547
v 0.116561681 -0.0127655314 0.0351717547
v 0.121059492 -0.0129290149 0.03524629
v 0.125557587 -0.0130765811 0.0352951437
v 0.116559 -0.01291741 0.0352951437
v 0.121056169 -0.013117332 0.0353619233
v 0.125554577 -0.0132467141 0.0353833
v 0.116555989 -0.0130875427 0.0353833
v 0.1210526 -0.0133186858 0.0354291163
v 0.125551447 -0.0134235118 0.03543414
v 0.1210491 -0.0135167642 0.035450004
v 0.11655286 -0.01326434 0.03543414
v 0.125548393 -0.0135963494 0.035450004
v 0.116549805 -0.013437178 0.035450004
v 0.125545338 -0.013769188 0.03543414
v 0.11654675 -0.0136100166 0.03543414
v 0.121045589 -0.0137148416 0.0354291163
v 0.125542209 -0.0139459847 0.0353833
v 0.116543621 -0.0137868132 0.0353833
v 0.121042915 -0.0138663985 0.0353833
v 0.121040314 -0.0140130781 0.03531
v 0.1255392 -0.0141161177 0.0352951437
v 0.116540611 -0.0139569463 0.0352951437
v 0.121037945 -0.0141475266 0.0352102928
v 0.125536516 -0.014267996 0.0351717547
v 0.116537921 -0.0141088245 0.0351717547
v 0.1210359 -0.0142629333 0.0350878462
v 0.125534326 -0.01439137 0.0350198522
v 0.116535738 -0.0142321987 0.0350198522
v 0.121034287 -0.0143541042 0.03494849
v 0.125532776 -0.0144795105 0.0348496921
v 0.116534181 -0.0143203391 0.0348496921
v 0.121033147 -0.0144182267 0.0347993523
v 0.125531867 -0.014530343 0.0346728638
v 0.116533279 -0.0143711716 0.0346728638
v 0.1210325 -0.0144550642 0.03464771
v 0.125531584 -0.0145462006 0.0345000029
v 0.116533 -0.0143870292 0.0345000029
v 0.116509706 0.0125676012 0.0205
v 0.116509706 0.0125676012 0.028
v 0.116580449 0.016566975 0.028
v 0.116580449 0.016566975 0.0165
v 0.116085246 -0.0114286486 0.0205
v 0.11601451 -0.0154280234 0.0165
v 0.116035849 -0.0142216664 0.0332863554
v 0.116031751 -0.014453481 0.0334747
v 0.116040438 -0.0139619894 0.03315181
v 0.116045214 -0.0136921415 0.0330742076
v 0.116049878 -0.013428336 0.03305
v 0.11605455 -0.0131645305 0.0330742076
v 0.116059318 -0.0128946826 0.03315181
v 0.116028413 -0.01464179 0.0337065458
v 0.116063908 -0.0126350056 0.0332863554
v 0.116026036 -0.0147763174 0.0339662656
v 0.116024658 -0.0148539059 0.0342361555
v 0.116024233 -0.0148781091 0.0345000029
v 0.11601451 -0.0154280234 0.04
v 0.116024658 -0.0148539059 0.03476385
v 0.116026036 -0.0147763174 0.03503374
v 0.116068013 -0.0124031911 0.0334747
v 0.116028413 -0.01464179 0.0352934524
v 0.116071343 -0.0122148823 0.0337065458
v 0.116031751 -0.014453481 0.0355253071
v 0.11607372 -0.0120803537 0.0339662656
v 0.1160751 -0.0120027661 0.0342361555
v 0.116075523 -0.011978562 0.0345000029
v 0.116085246 -0.0114286486 0.04
v 0.1160751 -0.0120027661 0.03476385
v 0.11607372 -0.0120803537 0.03503374
v 0.116035849 -0.0142216664 0.0357136428
v 0.116071343 -0.0122148823 0.0352934524
v 0.116040438 -0.0139619894 0.0358481929
v 0.116045214 -0.0136921415 0.0359257944
v 0.116049878 -0.013428336 0.03595
v 0.116068013 -0.0124031911 0.0355253071
v 0.11605455 -0.0131645305 0.0359257944
v 0.116063908 -0.0126350056 0.0357136428
v 0.116059318 -0.0128946826 0.0358481929
v 0.117000788 0.0120588383 0.028
v 0.117000788 0.0120588383 0.0215
v 0.122 0.0119704092 0.028
v 0.125999376 0.0118996678 0.0215
v 0.125999376 0.0118996678 0.04
v 0.122 0.0119704092 0.04
v 0.117089212 0.01705806 0.028
v 0.122088432 0.01696963 0.028
v 0.117089212 0.01705806 0.0165
v 0.1260878 0.01689889 0.0165
v 0.1260878 0.01689889 0.04
v 0.122088432 0.01696963 0.04
v 0.1165666 -0.0124873258 0.0345000029
v 0.116566323 -0.0125031844 0.0346728638
v 0.116075523 -0.011978562 0.0345000029
v 0.116319977 -0.0122940671 0.0348781273
v 0.116565421 -0.0125540169 0.0348496921
v 0.1160751 -0.0120027661 0.03476385
v 0.11607372 -0.0120803537 0.03503374
v 0.116563864 -0.0126421563 0.0350198522
v 0.116071343 -0.0122148823 0.0352934524
v 0.116316512 -0.0124902278 0.03524254
v 0.116561681 -0.0127655314 0.0351717547
v 0.116310924 -0.0128058353 0.0355231538
v 0.116068013 -0.0124031911 0.0355253071
v 0.116559 -0.01291741 0.0352951437
v 0.116063908 -0.0126350056 0.0357136428
v 0.116555989 -0.0130875427 0.0353833
v 0.116059318 -0.0128946826 0.0358481929
v 0.116304263 -0.0131825553 0.03567362
v 0.11655286 -0.01326434 0.03543414
v 0.116299838 -0.0134327579 0.0357
v 0.11605455 -0.0131645305 0.0359257944
v 0.116549805 -0.013437178 0.035450004
v 0.116049878 -0.013428336 0.03595
v 0.11654675 -0.0136100166 0.03543414
v 0.116045214 -0.0136921415 0.0359257944
v 0.116295412 -0.0136829605 0.03567362
v 0.116543621 -0.0137868132 0.0353833
v 0.116040438 -0.0139619894 0.0358481929
v 0.116290912 -0.0139373029 0.03558874
v 0.116540611 -0.0139569463 0.0352951437
v 0.116035849 -0.0142216664 0.0357136428
v 0.1162867 -0.0141751785 0.03544268
v 0.116537921 -0.0141088245 0.0351717547
v 0.116031751 -0.014453481 0.0355253071
v 0.116283163 -0.014375288 0.03524254
v 0.116535738 -0.0142321987 0.0350198522
v 0.116028413 -0.01464179 0.0352934524
v 0.116280586 -0.0145213278 0.0350046232
v 0.116534181 -0.0143203391 0.0348496921
v 0.116026036 -0.0147763174 0.03503374
v 0.116279081 -0.0146061927 0.0347502455
v 0.116533279 -0.0143711716 0.0346728638
v 0.116024658 -0.0148539059 0.03476385
v 0.116533 -0.0143870292 0.0345000029
v 0.116024233 -0.0148781091 0.0345000029
v 0.121508926 0.012479174 0.0285000019
v 0.121527776 0.013544865 0.0343271345
v 0.12152867 0.0135956993 0.03415031
v 0.121530235 0.0136838369 0.0339801535
v 0.12153241 0.0138072148 0.03382825
v 0.1215351 0.013959093 0.0337048545
v 0.12153811 0.014129227 0.033616703
v 0.121541239 0.0143060237 0.03356586
v 0.121527493 0.0135290083 0.0345000029
v 0.121544294 0.0144788614 0.03355
v 0.121508926 0.012479174 0.04
v 0.121527776 0.013544865 0.0346728638
v 0.12152867 0.0135956993 0.0348496921
v 0.121579669 0.0164785441 0.0285000019
v 0.121547356 0.014651699 0.03356586
v 0.121550478 0.0148284957 0.033616703
v 0.121530235 0.0136838369 0.0350198522
v 0.121553488 0.01499863 0.0337048545
v 0.12153241 0.0138072148 0.0351717547
v 0.121556178 0.0151505079 0.03382825
v 0.1215351 0.013959093 0.0352951437
v 0.121558353 0.015273883 0.0339801535
v 0.12153811 0.014129227 0.0353833
v 0.121541239 0.0143060237 0.03543414
v 0.121544294 0.0144788614 0.035450004
v 0.121579669 0.0164785441 0.04
v 0.121547356 0.014651699 0.03543414
v 0.121550478 0.0148284957 0.0353833
v 0.121559918 0.0153620252 0.03415031
v 0.121560812 0.0154128522 0.0343271345
v 0.121561095 0.0154287117 0.0345000029
v 0.121553488 0.01499863 0.0352951437
v 0.121560812 0.0154128522 0.0346728638
v 0.121556178 0.0151505079 0.0351717547
v 0.121559918 0.0153620252 0.0348496921
v 0.121558353 0.015273883 0.0350198522
v 0.1210491 -0.0135167642 0.0405000038
v 0.125583768 -0.011596662 0.0405000038
v 0.116585173 -0.0114374906 0.0405000038
v 0.116514429 -0.0154368654 0.0405000038
v 0.125513017 -0.0155960377 0.0405000038
v 0.121004879 -0.0160163734 0.0282500014
v 0.125504181 -0.0160959587 0.04
v 0.116505586 -0.0159367882 0.04
v 0.116505586 -0.0159367882 0.0165
v 0.125504181 -0.0160959587 0.0165
v 0.124043904 0.01443465 0.0405000038
v 0.126008213 0.0123995868 0.0405000038
v 0.126078963 0.0163989626 0.0405000038
v 0.122079588 0.016469704 0.0405000038
v 0.122008845 0.012470332 0.0405000038
v 0.12109331 -0.011017154 0.03075
v 0.1255926 -0.01109674 0.0215
v 0.116594017 -0.0109375687 0.0215
v 0.116594017 -0.0109375687 0.04
v 0.1255926 -0.01109674 0.04
v 0.119294643 0.0145186568 0.0285000019
v 0.117080376 0.0165581331 0.0285000019
v 0.117009625 0.0125587573 0.0285000019
v 0.121508926 0.012479174 0.0285000019
v 0.121579669 0.0164785441 0.0285000019
v 0.12579836 -0.0136007713 0.0402500033
v 0.126012951 -0.01560488 0.04
v 0.126083687 -0.011605504 0.04
v 0.125583768 -0.011596662 0.0405000038
v 0.125513017 -0.0155960377 0.0405000038
v 0.125838146 -0.0113511235 0.0302500017
v 0.126083687 -0.011605504 0.04
v 0.126083687 -0.011605504 0.0205
v 0.1255926 -0.01109674 0.0215
v 0.1255926 -0.01109674 0.04
v 0.121088892 -0.0112671154 0.0402500033
v 0.116585173 -0.0114374906 0.0405000038
v 0.125583768 -0.011596662 0.0405000038
v 0.1255926 -0.01109674 0.04
v 0.116594017 -0.0109375687 0.04
v 0.126293555 0.0143948561 0.0402500033
v 0.126508147 0.0123907449 0.04
v 0.126578882 0.01639012 0.04
v 0.126078963 0.0163989626 0.0405000038
v 0.126008213 0.0123995868 0.0405000038
v 0.125758559 -0.01585042 0.0282500014
v 0.126012951 -0.01560488 0.0165
v 0.126012951 -0.01560488 0.04
v 0.125504181 -0.0160959587 0.04
v 0.125504181 -0.0160959587 0.0165
v 0.121009305 -0.015766412 0.0402500033
v 0.116505586 -0.0159367882 0.04
v 0.125504181 -0.0160959587 0.04
v 0.125513017 -0.0155960377 0.0405000038
v 0.116514429 -0.0154368654 0.0405000038
v 0.116299838 -0.0134327579 0.0402500033
v 0.116085246 -0.0114286486 0.04
v 0.11601451 -0.0154280234 0.04
v 0.116514429 -0.0154368654 0.0405000038
v 0.116585173 -0.0114374906 0.0405000038
v 0.126045957 0.0003970433 0.0207500011
v 0.126083687 -0.011605504 0.0205
v 0.126508147 0.0123907449 0.0205
v 0.12599054 0.0113997487 0.0210000016
v 0.125601441 -0.0105968183 0.0210000016
v 0.126253754 0.0121452073 0.0302500017
v 0.126508147 0.0123907449 0.0205
v 0.126508147 0.0123907449 0.04
v 0.125999376 0.0118996678 0.04
v 0.125999376 0.0118996678 0.0215
v 0.121097729 -0.0107671944 0.02125
v 0.116594017 -0.0109375687 0.0215
v 0.1255926 -0.01109674 0.0215
v 0.125601441 -0.0105968183 0.0210000016
v 0.116602853 -0.0104376469 0.0210000016
v 0.126333341 0.0166445058 0.0282500014
v 0.126578882 0.01639012 0.04
v 0.126578882 0.01639012 0.0165
v 0.1260878 0.01689889 0.0165
v 0.1260878 0.01689889 0.04
v 0.126045957 0.0003970433 0.0162500013
v 0.126578882 0.01639012 0.0165
v 0.126012951 -0.01560488 0.0165
v 0.125513017 -0.0155960377 0.016
v 0.126078963 0.0163989626 0.016
v 0.121009305 -0.015766412 0.0162500013
v 0.116514429 -0.0154368654 0.016
v 0.125513017 -0.0155960377 0.016
v 0.125504181 -0.0160959587 0.0165
v 0.116505586 -0.0159367882 0.0165
v 0.116260044 -0.0156824067 0.0282500014
v 0.11601451 -0.0154280234 0.04
v 0.11601451 -0.0154280234 0.0165
v 0.116505586 -0.0159367882 0.0165
v 0.116505586 -0.0159367882 0.04
v 0.121495664 0.0117292935 0.02125
v 0.116991945 0.0115589155 0.0210000016
v 0.12599054 0.0113997487 0.0210000016
v 0.125999376 0.0118996678 0.0215
v 0.117000788 0.0120588383 0.0215
v 0.121584088 0.01672851 0.0162500013
v 0.117089212 0.01705806 0.0165
v 0.1260878 0.01689889 0.0165
v 0.126078963 0.0163989626 0.016
v 0.117080376 0.0165581331 0.016
v 0.116547436 0.000565055758 0.0162500013
v 0.11601451 -0.0154280234 0.0165
v 0.116580449 0.016566975 0.0165
v 0.117080376 0.0165581331 0.016
v 0.116514429 -0.0154368654 0.016
v 0.119504817 0.0122645842 0.0282500014
v 0.117009625 0.0125587573 0.0285000019
v 0.117000788 0.0120588383 0.028
v 0.122 0.0119704092 0.028
v 0.121508926 0.012479174 0.0285000019
v 0.1195844 0.01676388 0.0282500014
v 0.117089212 0.01705806 0.028
v 0.117080376 0.0165581331 0.0285000019
v 0.121579669 0.0164785441 0.0285000019
v 0.122088432 0.01696963 0.028
v 0.116834827 0.0168125182 0.02225
v 0.116580449 0.016566975 0.0165
v 0.116580449 0.016566975 0.028
v 0.117089212 0.01705806 0.028
v 0.117089212 0.01705806 0.0165
v 0.116795033 0.0145628685 0.0282500014
v 0.116580449 0.016566975 0.028
v 0.116509706 0.0125676012 0.028
v 0.117009625 0.0125587573 0.0285000019
v 0.117080376 0.0165581331 0.0285000019
v 0.116755247 0.01231322 0.02425
v 0.116509706 0.0125676012 0.028
v 0.116509706 0.0125676012 0.0205
v 0.117000788 0.0120588383 0.0215
v 0.117000788 0.0120588383 0.028
v 0.116580449 0.016566975 0.0165
v 0.116832621 0.0166875385 0.0163750015
v 0.117080376 0.0165581331 0.016
v 0.117089212 0.01705806 0.0165
v 0.121834047 0.016724091 0.034
v 0.121579669 0.0164785441 0.04
v 0.122088432 0.01696963 0.04
v 0.122088432 0.01696963 0.028
v 0.121579669 0.0164785441 0.0285000019
v 0.116547436 0.000565055758 0.0207500011
v 0.116509706 0.0125676012 0.0205
v 0.116085246 -0.0114286486 0.0205
v 0.116602853 -0.0104376469 0.0210000016
v 0.116991945 0.0115589155 0.0210000016
v 0.116825812 0.0120619321 0.0209750012
v 0.116991945 0.0115589155 0.0210000016
v 0.117000788 0.0120588383 0.0215
v 0.116509706 0.0125676012 0.0205
v 0.121754467 0.0122247925 0.034
v 0.122 0.0119704092 0.04
v 0.121508926 0.012479174 0.04
v 0.121508926 0.012479174 0.0285000019
v 0.122 0.0119704092 0.028
v 0.116262257 -0.0155574251 0.0163750015
v 0.116514429 -0.0154368654 0.016
v 0.116505586 -0.0159367882 0.0165
v 0.11601451 -0.0154280234 0.0165
v 0.126078963 0.0163989626 0.016
v 0.126331136 0.016519526 0.0163750015
v 0.126578882 0.01639012 0.0165
v 0.1260878 0.01689889 0.0165
v 0.121794254 0.0144744413 0.0402500033
v 0.122008845 0.012470332 0.0405000038
v 0.122079588 0.016469704 0.0405000038
v 0.121579669 0.0164785441 0.04
v 0.121508926 0.012479174 0.04
v 0.1240837 0.0166843 0.0402500033
v 0.122079588 0.016469704 0.0405000038
v 0.126078963 0.0163989626 0.0405000038
v 0.1260878 0.01689889 0.04
v 0.122088432 0.01696963 0.04
v 0.116339631 -0.01118311 0.0302500017
v 0.116085246 -0.0114286486 0.0205
v 0.116085246 -0.0114286486 0.04
v 0.116594017 -0.0109375687 0.04
v 0.116594017 -0.0109375687 0.0215
v 0.116085246 -0.0114286486 0.0205
v 0.11641904 -0.0109344749 0.0209750012
v 0.116602853 -0.0104376469 0.0210000016
v 0.116594017 -0.0109375687 0.0215
v 0.126174346 0.0118965721 0.0209750012
v 0.12599054 0.0113997487 0.0210000016
v 0.126508147 0.0123907449 0.0205
v 0.125999376 0.0118996678 0.0215
v 0.124004111 0.0121850008 0.0402500033
v 0.122 0.0119704092 0.04
v 0.125999376 0.0118996678 0.04
v 0.126008213 0.0123995868 0.0405000038
v 0.122008845 0.012470332 0.0405000038
v 0.125760764 -0.01572544 0.0163750015
v 0.125513017 -0.0155960377 0.016
v 0.126012951 -0.01560488 0.0165
v 0.125504181 -0.0160959587 0.0165
v 0.1260878 0.01689889 0.04
v 0.126331136 0.016519526 0.040125
v 0.126578882 0.01639012 0.04
v 0.126078963 0.0163989626 0.0405000038
v 0.125601441 -0.0105968183 0.0210000016
v 0.125767574 -0.0110998359 0.0209750012
v 0.126083687 -0.011605504 0.0205
v 0.1255926 -0.01109674 0.0215
v 0.126008213 0.0123995868 0.0405000038
v 0.126255974 0.01227019 0.040125
v 0.126508147 0.0123907449 0.04
v 0.125999376 0.0118996678 0.04
v 0.125513017 -0.0155960377 0.0405000038
v 0.125760764 -0.01572544 0.040125
v 0.126012951 -0.01560488 0.04
v 0.125504181 -0.0160959587 0.04
v 0.1255926 -0.01109674 0.04
v 0.12583594 -0.0114761041 0.040125
v 0.126083687 -0.011605504 0.04
v 0.125583768 -0.011596662 0.0405000038
v 0.126578882 0.01639012 0.0165
v 0.126568735 0.0158160031 0.0342361555
v 0.126567364 0.0157384146 0.0339662656
v 0.12656498 0.01560389 0.0337065458
v 0.126561642 0.01541558 0.0334747
v 0.126569152 0.0158402063 0.0345000029
v 0.126557544 0.0151837654 0.0332863554
v 0.126578882 0.01639012 0.04
v 0.126568735 0.0158160031 0.03476385
v 0.126567364 0.0157384146 0.03503374
v 0.12656498 0.01560389 0.0352934524
v 0.126561642 0.01541558 0.0355253071
v 0.126557544 0.0151837654 0.0357136428
v 0.126552954 0.0149240857 0.0358481929
v 0.126548186 0.0146542387 0.0359257944
v 0.126543522 0.014390436 0.03595
v 0.126508147 0.0123907449 0.04
v 0.126538843 0.01412663 0.0359257944
v 0.126534075 0.0138567826 0.0358481929
v 0.126529485 0.0135971028 0.0357136428
v 0.126525387 0.013365292 0.0355253071
v 0.126522049 0.0131769823 0.0352934524
v 0.126519665 0.0130424527 0.03503374
v 0.1265183 0.0129648633 0.03476385
v 0.126517862 0.01294066 0.0345000029
v 0.126508147 0.0123907449 0.0205
v 0.1265183 0.0129648633 0.0342361555
v 0.126519665 0.0130424527 0.0339662656
v 0.126522049 0.0131769823 0.0337065458
v 0.126525387 0.013365292 0.0334747
v 0.126529485 0.0135971028 0.0332863554
v 0.126534075 0.0138567826 0.03315181
v 0.126538843 0.01412663 0.0330742076
v 0.126543522 0.014390436 0.03305
v 0.126548186 0.0146542387 0.0330742076
v 0.126552954 0.0149240857 0.03315181
v 0.126012951 -0.01560488 0.0165
v 0.126083687 -0.011605504 0.0205
v 0.126078308 -0.0119099207 0.0282500014
v 0.126083687 -0.011605504 0.04
v 0.126073956 -0.0121554174 0.0345000029
v 0.126073539 -0.0121796206 0.03476385
v 0.126072168 -0.0122572081 0.03503374
v 0.126073539 -0.0121796206 0.0342361555
v 0.126069784 -0.0123917377 0.0352934524
v 0.126072168 -0.0122572081 0.0339662656
v 0.126069784 -0.0123917377 0.0337065458
v 0.126066446 -0.0125800464 0.0334747
v 0.126062348 -0.012811861 0.0332863554
v 0.126057759 -0.0130715379 0.03315181
v 0.126066446 -0.0125800464 0.0355253071
v 0.126052976 -0.0133413859 0.0330742076
v 0.126062348 -0.012811861 0.0357136428
v 0.126048312 -0.0136051914 0.03305
v 0.126057759 -0.0130715379 0.0358481929
v 0.126052976 -0.0133413859 0.0359257944
v 0.126048312 -0.0136051914 0.03595
v 0.126012951 -0.01560488 0.04
v 0.126043648 -0.0138689969 0.0359257944
v 0.126038879 -0.0141388448 0.0358481929
v 0.126043648 -0.0138689969 0.0330742076
v 0.12603429 -0.0143985217 0.0357136428
v 0.126038879 -0.0141388448 0.03315181
v 0.12603429 -0.0143985217 0.0332863554
v 0.126030177 -0.0146303363 0.0334747
v 0.126030177 -0.0146303363 0.0355253071
v 0.126026854 -0.0148186451 0.0352934524
v 0.126026854 -0.0148186451 0.0337065458
v 0.12602447 -0.0149531737 0.03503374
v 0.1260231 -0.0150307612 0.03476385
v 0.126022667 -0.0150549645 0.0345000029
v 0.12602447 -0.0149531737 0.0339662656
v 0.1260231 -0.0150307612 0.0342361555
v 0.125513017 -0.0155960377 0.016
v 0.121544354 -0.00763870869 0.016
v 0.121946506 -0.00753074326 0.016
v 0.122335076 -0.00733808056 0.016
v 0.122683741 -0.007064943 0.016
v 0.122969031 -0.006726156 0.016
v 0.123175323 -0.00634464761 0.016
v 0.123297438 -0.005946561 0.016
v 0.123340249 -0.00555604 0.016
v 0.121152557 -0.00766767841 0.016
v 0.123311274 -0.00516424235 0.016
v 0.116514429 -0.0154368654 0.016
v 0.120762035 -0.007624871 0.016
v 0.120363951 -0.00750275049 0.016
v 0.119982436 -0.00729646534 0.016
v 0.119643658 -0.00701116864 0.016
v 0.11937052 -0.00666250568 0.016
v 0.119177856 -0.00627394067 0.016
v 0.119069889 -0.00587178348 0.016
v 0.119040921 -0.005479991 0.016
v 0.119147032 0.0005190745 0.016
v 0.119083725 -0.0050894646 0.016
v 0.119205847 -0.0046913824 0.016
v 0.119412132 -0.00430987123 0.016
v 0.119697429 -0.00397108262 0.016
v 0.120046094 -0.00369794713 0.016
v 0.117080376 0.0165581331 0.016
v 0.120434657 -0.003505284 0.016
v 0.119253144 0.00651813531 0.016
v 0.119282112 0.00612634048 0.016
v 0.119295955 0.00690865936 0.016
v 0.11941807 0.007306745 0.016
v 0.119390085 0.00572418375 0.016
v 0.119624361 0.007688255 0.016
v 0.119582742 0.00533562154 0.016
v 0.119909659 0.008027042 0.016
v 0.119855881 0.00498695625 0.016
v 0.120258316 0.00830018148 0.016
v 0.120194666 0.00470165955 0.016
v 0.120646887 0.008492841 0.016
v 0.121049047 0.008600808 0.016
v 0.121440835 0.00862977747 0.016
v 0.126078963 0.0163989626 0.016
v 0.121831357 0.00858697 0.016
v 0.122229442 0.008464848 0.016
v 0.122610956 0.008258566 0.016
v 0.122949742 0.007973268 0.016
v 0.12322288 0.007624601 0.016
v 0.123415537 0.007236037 0.016
v 0.1235235 0.00683388161 0.016
v 0.123552471 0.00644208537 0.016
v 0.12350966 0.00605156273 0.016
v 0.123387545 0.005653476 0.016
v 0.123203307 -0.00476209028 0.016
v 0.12301065 -0.00437352248 0.016
v 0.123181261 0.0052719675 0.016
v 0.122737512 -0.004024857 0.016
v 0.122895963 0.00493318168 0.016
v 0.122398727 -0.00373956235 0.016
v 0.1225473 0.00466004433 0.016
v 0.12201722 -0.00353327487 0.016
v 0.122158736 0.004467383 0.016
v 0.1212967 0.000481050462 0.016
v 0.121619135 -0.00341115659 0.016
v 0.121756583 0.004359416 0.016
v 0.121228606 -0.00336834928 0.016
v 0.121364787 0.00433044834 0.016
v 0.120836809 -0.003397319 0.016
v 0.120974258 0.004373254 0.016
v 0.120576173 0.00449537672 0.016
v 0.120363951 -0.00750275049 0.0210000016
v 0.116602853 -0.0104376469 0.0210000016
v 0.120762035 -0.007624871 0.0210000016
v 0.119982436 -0.00729646534 0.0210000016
v 0.119643658 -0.00701116864 0.0210000016
v 0.11937052 -0.00666250568 0.0210000016
v 0.119177856 -0.00627394067 0.0210000016
v 0.119069889 -0.00587178348 0.0210000016
v 0.119040921 -0.005479991 0.0210000016
v 0.121152557 -0.00766767841 0.0210000016
v 0.119083725 -0.0050894646 0.0210000016
v 0.125601441 -0.0105968183 0.0210000016
v 0.121544354 -0.00763870869 0.0210000016
v 0.121946506 -0.00753074326 0.0210000016
v 0.122335076 -0.00733808056 0.0210000016
v 0.122683741 -0.007064943 0.0210000016
v 0.122969031 -0.006726156 0.0210000016
v 0.123175323 -0.00634464761 0.0210000016
v 0.123297438 -0.005946561 0.0210000016
v 0.123340249 -0.00555604 0.0210000016
v 0.123311274 -0.00516424235 0.0210000016
v 0.119147032 0.0005190745 0.0210000016
v 0.119205847 -0.0046913824 0.0210000016
v 0.119412132 -0.00430987123 0.0210000016
v 0.119697429 -0.00397108262 0.0210000016
v 0.120046094 -0.00369794713 0.0210000016
v 0.120434657 -0.003505284 0.0210000016
v 0.116991945 0.0115589155 0.0210000016
v 0.1212967 0.000481050462 0.0210000016
v 0.120836809 -0.003397319 0.0210000016
v 0.121228606 -0.00336834928 0.0210000016
v 0.121619135 -0.00341115659 0.0210000016
v 0.12201722 -0.00353327487 0.0210000016
v 0.122398727 -0.00373956235 0.0210000016
v 0.119282112 0.00612634048 0.0210000016
v 0.119253144 0.00651813531 0.0210000016
v 0.119295955 0.00690865936 0.0210000016
v 0.11941807 0.007306745 0.0210000016
v 0.119390085 0.00572418375 0.0210000016
v 0.119624361 0.007688255 0.0210000016
v 0.119582742 0.00533562154 0.0210000016
v 0.119909659 0.008027042 0.0210000016
v 0.119855881 0.00498695625 0.0210000016
v 0.120194666 0.00470165955 0.0210000016
v 0.120576173 0.00449537672 0.0210000016
v 0.120258316 0.00830018148 0.0210000016
v 0.120974258 0.004373254 0.0210000016
v 0.120646887 0.008492841 0.0210000016
v 0.121049047 0.008600808 0.0210000016
v 0.121440835 0.00862977747 0.0210000016
v 0.12599054 0.0113997487 0.0210000016
v 0.121831357 0.00858697 0.0210000016
v 0.122229442 0.008464848 0.0210000016
v 0.122610956 0.008258566 0.0210000016
v 0.121364787 0.00433044834 0.0210000016
v 0.122949742 0.007973268 0.0210000016
v 0.121756583 0.004359416 0.0210000016
v 0.122158736 0.004467383 0.0210000016
v 0.1225473 0.00466004433 0.0210000016
v 0.122895963 0.00493318168 0.0210000016
v 0.122737512 -0.004024857 0.0210000016
v 0.123181261 0.0052719675 0.0210000016
v 0.12301065 -0.00437352248 0.0210000016
v 0.12322288 0.007624601 0.0210000016
v 0.123387545 0.005653476 0.0210000016
v 0.123203307 -0.00476209028 0.0210000016
v 0.123415537 0.007236037 0.0210000016
v 0.12350966 0.00605156273 0.0210000016
v 0.1235235 0.00683388161 0.0210000016
v 0.123552471 0.00644208537 0.0210000016
v 0.116580449 0.016566975 0.028
v 0.116832621 0.0166875385 0.0281250011
v 0.117089212 0.01705806 0.028
v 0.117080376 0.0165581331 0.0285000019
v 0.116509706 0.0125676012 0.028
v 0.116757452 0.0124382023 0.0281250011
v 0.117009625 0.0125587573 0.0285000019
v 0.117000788 0.0120588383 0.028
v 0.122079588 0.016469704 0.0405000038
v 0.121831834 0.0165991113 0.040125
v 0.121579669 0.0164785441 0.04
v 0.122088432 0.01696963 0.04
v 0.122 0.0119704092 0.04
v 0.121756673 0.0123497751 0.040125
v 0.121508926 0.012479174 0.04
v 0.122008845 0.012470332 0.0405000038
v 0.11601451 -0.0154280234 0.04
v 0.116262257 -0.0155574251 0.040125
v 0.116514429 -0.0154368654 0.0405000038
v 0.116505586 -0.0159367882 0.04
v 0.116085246 -0.0114286486 0.04
v 0.116337419 -0.0113080908 0.040125
v 0.116594017 -0.0109375687 0.04
v 0.116585173 -0.0114374906 0.0405000038
f 1 2 3
f 2 4 3
f 3 4 5
f 2 6 4
f 4 7 5
f 6 8 4
f 4 8 7
f 6 9 8
f 8 10 7
f 9 11 8
f 8 11 10
f 9 12 11
f 11 13 10
f 12 14 11
f 11 14 13
f 12 15 14
f 14 16 13
f 15 17 14
f 14 17 16
f 15 18 17
f 17 19 16
f 18 20 17
f 17 20 19
f 18 21 20
f 21 22 20
f 20 23 19
f 20 22 23
f 21 24 22
f 22 25 23
f 24 26 22
f 22 27 25
f 26 28 22
f 22 28 27
f 26 29 28
f 29 30 28
f 28 31 27
f 28 30 31
f 29 32 30
f 30 33 31
f 32 34 30
f 30 35 33
f 34 36 30
f 30 36 35
f 34 37 36
f 37 38 36
f 36 39 35
f 36 38 39
f 37 40 38
f 38 41 39
f 40 42 38
f 38 43 41
f 42 44 38
f 44 43 38
f 44 45 43
f 46 47 48
f 47 49 48
f 48 49 50
f 47 51 49
f 49 52 50
f 51 53 49
f 49 53 52
f 51 54 53
f 53 55 52
f 54 56 53
f 53 56 55
f 54 57 56
f 56 58 55
f 57 59 56
f 56 59 58
f 57 60 59
f 59 61 58
f 60 62 59
f 59 62 61
f 60 63 62
f 62 64 61
f 63 65 62
f 62 65 64
f 63 66 65
f 66 67 65
f 65 68 64
f 65 67 68
f 66 69 67
f 67 70 68
f 69 71 67
f 67 72 70
f 71 73 67
f 67 73 72
f 71 74 73
f 74 75 73
f 73 76 72
f 73 75 76
f 74 77 75
f 75 78 76
f 77 79 75
f 75 80 78
f 79 81 75
f 75 81 80
f 79 82 81
f 82 83 81
f 81 84 80
f 81 83 84
f 82 85 83
f 83 86 84
f 85 87 83
f 83 88 86
f 87 89 83
f 89 88 83
f 89 90 88
f 91 92 93
f 92 94 93
f 93 94 95
f 92 96 94
f 94 97 95
f 96 98 94
f 94 98 97
f 96 99 98
f 98 100 97
f 99 101 98
f 98 101 100
f 99 102 101
f 101 103 100
f 102 104 101
f 101 104 103
f 102 105 104
f 104 106 103
f 105 107 104
f 104 107 106
f 105 108 107
f 107 109 106
f 108 110 107
f 107 110 109
f 108 111 110
f 111 112 110
f 110 113 109
f 110 112 113
f 111 114 112
f 112 115 113
f 114 116 112
f 112 117 115
f 116 118 112
f 112 118 117
f 116 119 118
f 119 120 118
f 118 121 117
f 118 120 121
f 119 122 120
f 120 123 121
f 122 124 120
f 120 125 123
f 124 126 120
f 120 126 125
f 124 127 126
f 127 128 126
f 126 129 125
f 126 128 129
f 127 130 128
f 128 131 129
f 130 132 128
f 128 133 131
f 132 134 128
f 134 133 128
f 134 135 133
f 136 137 138
f 137 139 138
f 138 139 140
f 137 141 139
f 139 142 140
f 141 143 139
f 139 143 142
f 141 144 143
f 143 145 142
f 144 146 143
f 143 146 145
f 144 147 146
f 146 148 145
f 147 149 146
f 146 149 148
f 147 150 149
f 149 151 148
f 150 152 149
f 149 152 151
f 150 153 152
f 152 154 151
f 153 155 152
f 152 155 154
f 153 156 155
f 156 157 155
f 155 158 154
f 155 157 158
f 156 159 157
f 157 160 158
f 159 161 157
f 157 162 160
f 161 163 157
f 157 163 162
f 161 164 163
f 164 165 163
f 163 166 162
f 163 165 166
f 164 167 165
f 165 168 166
f 167 169 165
f 165 170 168
f 169 171 165
f 165 171 170
f 169 172 171
f 172 173 171
f 171 174 170
f 171 173 174
f 172 175 173
f 173 176 174
f 175 177 173
f 173 178 176
f 177 179 173
f 179 178 173
f 179 180 178
f 181 182 183
f 182 184 183
f 183 184 185
f 182 186 184
f 184 187 185
f 186 188 184
f 184 188 187
f 186 189 188
f 188 190 187
f 189 191 188
f 188 191 190
f 189 192 191
f 191 193 190
f 192 194 191
f 191 194 193
f 192 195 194
f 194 196 193
f 195 197 194
f 194 197 196
f 195 198 197
f 197 199 196
f 198 200 197
f 197 200 199
f 198 201 200
f 201 202 200
f 200 203 199
f 200 202 203
f 201 204 202
f 202 205 203
f 204 206 202
f 202 207 205
f 206 208 202
f 202 208 207
f 206 209 208
f 209 210 208
f 208 211 207
f 208 210 211
f 209 212 210
f 210 213 211
f 212 214 210
f 210 215 213
f 214 216 210
f 210 216 215
f 214 217 216
f 217 218 216
f 216 219 215
f 216 218 219
f 217 220 218
f 218 221 219
f 220 222 218
f 218 223 221
f 222 224 218
f 224 223 218
f 224 225 223
f 226 227 228
f 227 229 228
f 228 229 230
f 227 231 229
f 229 232 230
f 231 233 229
f 229 233 232
f 231 234 233
f 233 235 232
f 234 236 233
f 233 236 235
f 234 237 236
f 236 238 235
f 237 239 236
f 236 239 238
f 237 240 239
f 239 241 238
f 240 242 239
f 239 242 241
f 240 243 242
f 242 244 241
f 243 245 242
f 242 245 244
f 243 246 245
f 246 247 245
f 245 248 244
f 245 247 248
f 246 249 247
f 247 250 248
f 249 251 247
f 247 252 250
f 251 253 247
f 247 253 252
f 251 254 253
f 254 255 253
f 253 256 252
f 253 255 256
f 254 257 255
f 255 258 256
f 257 259 255
f 255 260 258
f 259 261 255
f 255 261 260
f 259 262 261
f 262 263 261
f 261 264 260
f 261 263 264
f 262 265 263
f 263 266 264
f 265 267 263
f 263 268 266
f 267 269 263
f 269 268 263
f 269 270 268
f 271 272 273
f 271 273 274
f 275 271 274
f 274 273 276
f 277 275 274
f 274 276 278
f 279 277 274
f 280 274 278
f 279 274 280
f 280 278 281
f 282 280 281
f 283 279 280
f 283 280 282
f 282 281 284
f 285 283 282
f 282 284 286
f 287 285 282
f 288 282 286
f 287 282 288
f 288 286 289
f 290 288 289
f 291 287 288
f 291 288 290
f 290 289 292
f 293 291 290
f 290 292 294
f 295 293 290
f 296 290 294
f 295 290 296
f 296 294 297
f 298 295 296
f 299 296 297
f 298 296 299
f 299 297 300
f 301 298 299
f 302 299 300
f 301 299 302
f 302 300 303
f 304 301 302
f 305 302 303
f 304 302 305
f 305 303 306
f 307 304 305
f 308 305 306
f 307 305 308
f 308 306 309
f 310 307 308
f 311 308 309
f 310 308 311
f 311 309 312
f 313 310 311
f 314 311 312
f 313 311 314
f 315 313 314
f 314 316 315
f 316 317 315
f 316 318 317
f 315 317 319
f 317 320 319
f 318 321 317
f 317 322 320
f 321 323 317
f 317 323 322
f 321 324 323
f 324 325 323
f 323 326 322
f 323 325 326
f 324 327 325
f 325 328 326
f 327 329 325
f 325 330 328
f 329 331 325
f 325 331 330
f 329 332 331
f 332 333 331
f 331 334 330
f 331 333 334
f 332 335 333
f 333 336 334
f 335 337 333
f 333 338 336
f 337 339 333
f 333 339 338
f 337 340 339
f 339 341 338
f 340 342 339
f 339 342 341
f 340 343 342
f 342 344 341
f 343 345 342
f 342 345 344
f 343 346 345
f 345 347 344
f 346 348 345
f 345 348 347
f 346 349 348
f 348 350 347
f 349 351 348
f 348 351 350
f 349 352 351
f 351 353 350
f 352 354 351
f 351 354 353
f 352 355 354
f 354 356 353
f 355 357 354
f 357 356 354
f 357 358 356
f 359 360 361
f 359 361 362
f 363 359 362
f 362 361 364
f 365 363 362
f 366 362 364
f 365 362 366
f 366 364 367
f 368 365 366
f 369 366 367
f 368 366 369
f 369 367 370
f 371 368 369
f 372 369 370
f 371 369 372
f 372 370 373
f 374 371 372
f 375 372 373
f 374 372 375
f 375 373 376
f 377 374 375
f 378 375 376
f 377 375 378
f 378 376 379
f 380 378 379
f 381 377 378
f 381 378 380
f 380 379 382
f 383 381 380
f 384 380 382
f 385 383 380
f 386 380 384
f 385 380 386
f 387 386 384
f 388 385 386
f 389 386 387
f 389 388 386
f 390 389 387
f 389 390 388
f 390 387 391
f 390 392 388
f 393 390 391
f 390 393 392
f 393 391 394
f 393 395 392
f 396 393 394
f 393 396 395
f 396 394 397
f 396 398 395
f 399 396 397
f 396 399 398
f 399 397 400
f 399 401 398
f 402 399 400
f 399 402 401
f 402 400 403
f 402 404 401
f 405 402 403
f 402 405 404
f 405 403 406
f 404 405 407
f 405 406 407
f 406 408 407
f 408 409 407
f 407 409 410
f 408 411 409
f 409 412 410
f 411 413 409
f 409 413 412
f 411 414 413
f 413 415 412
f 414 416 413
f 413 416 415
f 414 417 416
f 416 418 415
f 417 419 416
f 416 419 418
f 417 420 419
f 419 421 418
f 420 422 419
f 419 422 421
f 420 423 422
f 422 424 421
f 423 425 422
f 422 425 424
f 423 426 425
f 426 427 425
f 425 428 424
f 425 427 428
f 426 429 427
f 427 430 428
f 429 431 427
f 427 432 430
f 431 433 427
f 427 433 432
f 431 434 433
f 433 435 432
f 434 436 433
f 433 436 435
f 434 437 436
f 437 435 436
f 438 437 434
f 437 439 435
f 440 437 438
f 437 440 439
f 441 440 438
f 440 442 439
f 443 440 441
f 440 443 442
f 444 443 441
f 443 445 442
f 446 443 444
f 443 446 445
f 447 446 444
f 446 448 445
f 449 446 447
f 446 449 448
f 450 449 447
f 449 451 448
f 452 449 450
f 449 452 451
f 453 452 450
f 452 454 451
f 452 453 454
f 455 456 457
f 456 458 457
f 456 459 458
f 457 458 460
f 458 461 460
f 459 462 458
f 458 463 461
f 462 464 458
f 458 464 463
f 462 465 464
f 465 466 464
f 464 467 463
f 464 466 467
f 465 468 466
f 466 469 467
f 468 470 466
f 466 471 469
f 470 472 466
f 466 472 471
f 470 473 472
f 473 474 472
f 472 475 471
f 472 474 475
f 473 476 474
f 474 477 475
f 476 478 474
f 474 479 477
f 478 480 474
f 474 480 479
f 478 481 480
f 480 482 479
f 481 483 480
f 480 483 482
f 481 484 483
f 483 485 482
f 484 486 483
f 483 486 485
f 484 487 486
f 486 488 485
f 487 489 486
f 486 489 488
f 487 490 489
f 489 491 488
f 490 492 489
f 489 492 491
f 490 493 492
f 492 494 491
f 493 495 492
f 492 495 494
f 493 496 495
f 495 497 494
f 496 498 495
f 498 497 495
f 498 499 497
f 500 501 502
f 500 502 503
f 504 500 503
f 503 502 505
f 506 504 503
f 507 503 505
f 506 503 507
f 507 505 508
f 509 506 507
f 510 507 508
f 509 507 510
f 510 508 511
f 512 509 510
f 513 510 511
f 512 510 513
f 513 511 514
f 515 512 513
f 516 513 514
f 515 513 516
f 516 514 517
f 518 515 516
f 519 516 517
f 518 516 519
f 519 517 520
f 521 519 520
f 522 518 519
f 522 519 521
f 521 520 523
f 524 522 521
f 525 521 523
f 526 524 521
f 527 521 525
f 526 521 527
f 528 527 525
f 529 526 527
f 530 527 528
f 530 529 527
f 531 530 528
f 530 531 529
f 531 528 532
f 531 533 529
f 534 531 532
f 531 534 533
f 534 532 535
f 534 536 533
f 537 534 535
f 534 537 536
f 537 535 538
f 537 539 536
f 540 537 538
f 537 540 539
f 540 538 541
f 540 542 539
f 543 540 541
f 540 543 542
f 543 541 544
f 543 545 542
f 546 543 544
f 543 546 545
f 546 544 547
f 545 546 548
f 546 547 548
f 547 549 548
f 549 550 548
f 548 550 551
f 549 552 550
f 550 553 551
f 552 554 550
f 550 554 553
f 552 555 554
f 554 556 553
f 555 557 554
f 554 557 556
f 555 558 557
f 557 559 556
f 558 560 557
f 557 560 559
f 558 561 560
f 560 562 559
f 561 563 560
f 560 563 562
f 561 564 563
f 563 565 562
f 564 566 563
f 563 566 565
f 564 567 566
f 567 568 566
f 566 569 565
f 566 568 569
f 567 570 568
f 568 571 569
f 570 572 568
f 568 573 571
f 572 574 568
f 568 574 573
f 572 575 574
f 574 576 573
f 575 577 574
f 574 577 576
f 575 578 577
f 578 576 577
f 579 578 575
f 578 580 576
f 581 578 579
f 578 581 580
f 582 581 579
f 581 583 580
f 584 581 582
f 581 584 583
f 585 584 582
f 584 586 583
f 587 584 585
f 584 587 586
f 588 587 585
f 587 589 586
f 590 587 588
f 587 590 589
f 591 590 588
f 590 592 589
f 593 590 591
f 590 593 592
f 594 593 591
f 593 595 592
f 593 594 595
f 596 597 598
f 597 599 598
f 597 600 599
f 598 599 601
f 599 602 601
f 600 603 599
f 599 604 602
f 603 605 599
f 599 605 604
f 603 606 605
f 606 607 605
f 605 608 604
f 605 607 608
f 606 609 607
f 607 610 608
f 609 611 607
f 607 612 610
f 611 613 607
f 607 613 612
f 611 614 613
f 614 615 613
f 613 616 612
f 613 615 616
f 614 617 615
f 615 618 616
f 617 619 615
f 615 620 618
f 619 621 615
f 615 621 620
f 619 622 621
f 621 623 620
f 622 624 621
f 621 624 623
f 622 625 624
f 624 626 623
f 625 627 624
f 624 627 626
f 625 628 627
f 627 629 626
f 628 630 627
f 627 630 629
f 628 631 630
f 630 632 629
f 631 633 630
f 630 633 632
f 631 634 633
f 633 635 632
f 634 636 633
f 633 636 635
f 634 637 636
f 636 638 635
f 637 639 636
f 639 638 636
f 639 640 638
f 641 642 643
f 642 644 643
f 642 645 644
f 643 644 646
f 644 647 646
f 645 648 644
f 644 649 647
f 648 650 644
f 644 650 649
f 648 651 650
f 651 652 650
f 650 653 649
f 650 652 653
f 651 654 652
f 652 655 653
f 654 656 652
f 652 657 655
f 656 658 652
f 652 658 657
f 656 659 658
f 659 660 658
f 658 661 657
f 658 660 661
f 659 662 660
f 660 663 661
f 662 664 660
f 660 665 663
f 664 666 660
f 660 666 665
f 664 667 666
f 666 668 665
f 667 669 666
f 666 669 668
f 667 670 669
f 669 671 668
f 670 672 669
f 669 672 671
f 670 673 672
f 672 674 671
f 673 675 672
f 672 675 674
f 673 676 675
f 675 677 674
f 676 678 675
f 675 678 677
f 676 679 678
f 678 680 677
f 679 681 678
f 678 681 680
f 679 682 681
f 681 683 680
f 682 684 681
f 684 683 681
f 684 685 683
f 686 687 688
f 687 689 688
f 687 690 689
f 688 689 691
f 689 692 691
f 690 693 689
f 689 694 692
f 693 695 689
f 689 695 694
f 693 696 695
f 696 697 695
f 695 698 694
f 695 697 698
f 696 699 697
f 697 700 698
f 699 701 697
f 697 702 700
f 701 703 697
f 697 703 702
f 701 704 703
f 704 705 703
f 703 706 702
f 703 705 706
f 704 707 705
f 705 708 706
f 707 709 705
f 705 710 708
f 709 711 705
f 705 711 710
f 709 712 711
f 711 713 710
f 712 714 711
f 711 714 713
f 712 715 714
f 714 716 713
f 715 717 714
f 714 717 716
f 715 718 717
f 717 719 716
f 718 720 717
f 717 720 719
f 718 721 720
f 720 722 719
f 721 723 720
f 720 723 722
f 721 724 723
f 723 725 722
f 724 726 723
f 723 726 725
f 724 727 726
f 726 728 725
f 727 729 726
f 729 728 726
f 729 730 728
f 731 732 733
f 731 733 734
f 735 731 734
f 734 733 736
f 737 735 734
f 738 734 736
f 737 734 738
f 738 736 739
f 740 737 738
f 741 738 739
f 740 738 741
f 741 739 742
f 743 740 741
f 744 741 742
f 743 741 744
f 744 742 745
f 746 743 744
f 747 744 745
f 746 744 747
f 747 745 748
f 749 746 747
f 750 747 748
f 749 747 750
f 750 748 751
f 752 750 751
f 753 749 750
f 753 750 752
f 752 751 754
f 755 753 752
f 756 752 754
f 757 755 752
f 758 752 756
f 757 752 758
f 759 758 756
f 760 757 758
f 761 758 759
f 761 760 758
f 762 761 759
f 761 762 760
f 762 759 763
f 762 764 760
f 765 762 763
f 762 765 764
f 765 763 766
f 765 767 764
f 768 765 766
f 765 768 767
f 768 766 769
f 768 770 767
f 771 768 769
f 768 771 770
f 771 769 772
f 771 773 770
f 774 771 772
f 771 774 773
f 774 772 775
f 774 776 773
f 777 774 775
f 774 777 776
f 777 775 778
f 776 777 779
f 777 778 779
f 778 780 779
f 780 781 779
f 779 781 782
f 780 783 781
f 781 784 782
f 783 785 781
f 781 785 784
f 783 786 785
f 785 787 784
f 786 788 785
f 785 788 787
f 786 789 788
f 788 790 787
f 789 791 788
f 788 791 790
f 789 792 791
f 791 793 790
f 792 794 791
f 791 794 793
f 792 795 794
f 794 796 793
f 795 797 794
f 794 797 796
f 795 798 797
f 798 799 797
f 797 800 796
f 797 799 800
f 798 801 799
f 799 802 800
f 801 803 799
f 799 804 802
f 803 805 799
f 799 805 804
f 803 806 805
f 805 807 804
f 806 808 805
f 805 808 807
f 806 809 808
f 809 807 808
f 810 809 806
f 809 811 807
f 812 809 810
f 809 812 811
f 813 812 810
f 812 814 811
f 815 812 813
f 812 815 814
f 816 815 813
f 815 817 814
f 818 815 816
f 815 818 817
f 819 818 816
f 818 820 817
f 821 818 819
f 818 821 820
f 822 821 819
f 821 823 820
f 824 821 822
f 821 824 823
f 825 824 822
f 824 826 823
f 824 825 826
f 827 828 829
f 828 830 829
f 828 831 830
f 829 830 832
f 830 833 832
f 831 834 830
f 830 835 833
f 834 836 830
f 830 836 835
f 834 837 836
f 837 838 836
f 836 839 835
f 836 838 839
f 837 840 838
f 838 841 839
f 840 842 838
f 838 843 841
f 842 844 838
f 838 844 843
f 842 845 844
f 845 846 844
f 844 847 843
f 844 846 847
f 845 848 846
f 846 849 847
f 848 850 846
f 846 851 849
f 850 852 846
f 846 852 851
f 850 853 852
f 852 854 851
f 853 855 852
f 852 855 854
f 853 856 855
f 855 857 854
f 856 858 855
f 855 858 857
f 856 859 858
f 858 860 857
f 859 861 858
f 858 861 860
f 859 862 861
f 861 863 860
f 862 864 861
f 861 864 863
f 862 865 864
f 864 866 863
f 865 867 864
f 864 867 866
f 865 868 867
f 867 869 866
f 868 870 867
f 870 869 867
f 870 871 869
f 872 873 874
f 872 874 875
f 876 872 875
f 875 874 877
f 878 876 875
f 879 875 877
f 878 875 879
f 879 877 880
f 881 878 879
f 882 879 880
f 881 879 882
f 882 880 883
f 884 881 882
f 885 882 883
f 884 882 885
f 885 883 886
f 887 884 885
f 888 885 886
f 887 885 888
f 888 886 889
f 890 887 888
f 891 888 889
f 890 888 891
f 891 889 892
f 893 891 892
f 894 890 891
f 894 891 893
f 893 892 895
f 896 894 893
f 897 893 895
f 898 896 893
f 899 893 897
f 898 893 899
f 900 899 897
f 901 898 899
f 902 899 900
f 902 901 899
f 903 902 900
f 902 903 901
f 903 900 904
f 903 905 901
f 906 903 904
f 903 906 905
f 906 904 907
f 906 908 905
f 909 906 907
f 906 909 908
f 909 907 910
f 909 911 908
f 912 909 910
f 909 912 911
f 912 910 913
f 912 914 911
f 915 912 913
f 912 915 914
f 915 913 916
f 915 917 914
f 918 915 916
f 915 918 917
f 918 916 919
f 917 918 920
f 918 919 920
f 919 921 920
f 921 922 920
f 920 922 923
f 921 924 922
f 922 925 923
f 924 926 922
f 922 926 925
f 924 927 926
f 926 928 925
f 927 929 926
f 926 929 928
f 927 930 929
f 929 931 928
f 930 932 929
f 929 932 931
f 930 933 932
f 932 934 931
f 933 935 932
f 932 935 934
f 933 936 935
f 935 937 934
f 936 938 935
f 935 938 937
f 936 939 938
f 939 940 938
f 938 941 937
f 938 940 941
f 939 942 940
f 940 943 941
f 942 944 940
f 940 945 943
f 944 946 940
f 940 946 945
f 944 947 946
f 946 948 945
f 947 949 946
f 946 949 948
f 947 950 949
f 950 948 949
f 951 950 947
f 950 952 948
f 953 950 951
f 950 953 952
f 954 953 951
f 953 955 952
f 956 953 954
f 953 956 955
f 957 956 954
f 956 958 955
f 959 956 957
f 956 959 958
f 960 959 957
f 959 961 958
f 962 959 960
f 959 962 961
f 963 962 960
f 962 964 961
f 965 962 963
f 962 965 964
f 966 965 963
f 965 967 964
f 965 966 967
f 968 969 970
f 968 970 971
f 972 968 971
f 971 973 972
f 973 974 972
f 973 975 974
f 972 974 976
f 972 976 977
f 978 972 977
f 972 978 979
f 972 979 980
f 975 973 981
f 982 972 980
f 973 983 981
f 973 984 983
f 984 973 985
f 973 986 985
f 986 987 985
f 986 988 987
f 972 982 989
f 988 986 990
f 972 989 991
f 986 992 990
f 993 972 991
f 972 993 994
f 972 994 995
f 996 972 995
f 996 995 997
f 996 997 998
f 986 999 992
f 1000 996 998
f 999 986 1001
f 986 1002 1001
f 986 1003 1002
f 986 996 1003
f 996 1000 1004
f 996 1005 1003
f 996 1004 1006
f 996 1007 1005
f 1007 996 1006
f 1008 1009 1010
f 1009 1011 1010
f 1011 1012 1010
f 1012 1013 1010
f 1014 1015 1016
f 1015 1017 1016
f 1015 1018 1017
f 1018 1015 1019
f 1020 1021 1022
f 1021 1023 1022
f 1021 1024 1023
f 1022 1023 1025
f 1023 1026 1025
f 1024 1027 1023
f 1023 1028 1026
f 1027 1029 1023
f 1023 1029 1028
f 1027 1030 1029
f 1030 1031 1029
f 1029 1032 1028
f 1029 1031 1032
f 1030 1033 1031
f 1031 1034 1032
f 1033 1035 1031
f 1031 1036 1034
f 1035 1037 1031
f 1031 1037 1036
f 1035 1038 1037
f 1038 1039 1037
f 1037 1040 1036
f 1037 1039 1040
f 1038 1041 1039
f 1039 1042 1040
f 1041 1043 1039
f 1039 1044 1042
f 1043 1045 1039
f 1039 1045 1044
f 1043 1046 1045
f 1045 1047 1044
f 1046 1048 1045
f 1045 1048 1047
f 1046 1049 1048
f 1048 1050 1047
f 1049 1051 1048
f 1048 1051 1050
f 1049 1052 1051
f 1051 1053 1050
f 1052 1054 1051
f 1051 1054 1053
f 1052 1055 1054
f 1054 1056 1053
f 1055 1057 1054
f 1054 1057 1056
f 1055 1058 1057
f 1057 1059 1056
f 1058 1060 1057
f 1057 1060 1059
f 1058 1061 1060
f 1060 1062 1059
f 1061 1063 1060
f 1063 1062 1060
f 1063 1064 1062
f 1065 1066 1067
f 1068 1065 1067
f 1065 1068 1069
f 1065 1069 1070
f 1071 1065 1070
f 1065 1071 1072
f 1065 1073 1066
f 1065 1072 1074
f 1065 1075 1073
f 1075 1076 1073
f 1075 1077 1076
f 1078 1065 1074
f 1078 1074 1079
f 1078 1079 1080
f 1077 1075 1081
f 1082 1078 1080
f 1075 1083 1081
f 1078 1082 1084
f 1075 1085 1083
f 1078 1084 1086
f 1085 1075 1087
f 1075 1088 1087
f 1075 1089 1088
f 1075 1090 1089
f 1090 1091 1089
f 1090 1092 1091
f 1093 1078 1086
f 1078 1093 1094
f 1078 1094 1095
f 1090 1078 1095
f 1092 1090 1096
f 1090 1095 1097
f 1090 1098 1096
f 1090 1097 1099
f 1090 1100 1098
f 1100 1090 1099
f 1101 1102 1103
f 1101 1103 1104
f 1102 1101 1105
f 1105 1101 1104
f 1106 1107 1108
f 1106 1108 1109
f 1107 1106 1110
f 1110 1106 1109
f 1111 1112 1113
f 1111 1113 1114
f 1112 1111 1115
f 1115 1111 1114
f 1116 1117 1118
f 1116 1118 1119
f 1117 1116 1120
f 1120 1116 1119
f 1121 1122 1123
f 1121 1123 1124
f 1122 1121 1125
f 1125 1121 1124
f 1126 1127 1128
f 1126 1128 1129
f 1127 1126 1130
f 1130 1126 1129
f 1131 1132 1133
f 1131 1133 1134
f 1132 1131 1135
f 1135 1131 1134
f 1136 1137 1138
f 1136 1138 1139
f 1137 1136 1140
f 1140 1136 1139
f 1141 1142 1143
f 1141 1143 1144
f 1142 1141 1145
f 1145 1141 1144
f 1146 1147 1148
f 1146 1148 1149
f 1147 1146 1150
f 1150 1146 1149
f 1151 1152 1153
f 1151 1153 1154
f 1152 1151 1155
f 1155 1151 1154
f 1156 1157 1158
f 1156 1158 1159
f 1157 1156 1160
f 1160 1156 1159
f 1161 1162 1163
f 1161 1163 1164
f 1162 1161 1165
f 1165 1161 1164
f 1166 1167 1168
f 1166 1168 1169
f 1167 1166 1170
f 1170 1166 1169
f 1171 1172 1173
f 1171 1173 1174
f 1172 1171 1175
f 1175 1171 1174
f 1176 1177 1178
f 1176 1178 1179
f 1177 1176 1180
f 1180 1176 1179
f 1181 1182 1183
f 1181 1183 1184
f 1182 1181 1185
f 1185 1181 1184
f 1186 1187 1188
f 1186 1188 1189
f 1187 1186 1190
f 1190 1186 1189
f 1191 1192 1193
f 1191 1193 1194
f 1192 1191 1195
f 1195 1191 1194
f 1196 1197 1198
f 1196 1198 1199
f 1197 1196 1200
f 1200 1196 1199
f 1201 1202 1203
f 1201 1203 1204
f 1202 1201 1205
f 1205 1201 1204
f 1206 1207 1208
f 1206 1208 1209
f 1207 1206 1210
f 1210 1206 1209
f 1211 1212 1213
f 1211 1213 1214
f 1212 1211 1215
f 1215 1211 1214
f 1216 1217 1218
f 1216 1218 1219
f 1217 1216 1220
f 1220 1216 1219
f 1221 1222 1223
f 1221 1223 1224
f 1222 1221 1225
f 1225 1221 1224
f 1226 1227 1228
f 1226 1228 1229
f 1227 1226 1230
f 1230 1226 1229
f 1231 1232 1233
f 1231 1233 1234
f 1232 1231 1235
f 1235 1231 1234
f 1236 1237 1238
f 1237 1236 1239
f 1237 1239 1238
f 1240 1241 1242
f 1240 1242 1243
f 1241 1240 1244
f 1244 1240 1243
f 1245 1246 1247
f 1245 1247 1248
f 1246 1245 1249
f 1249 1245 1248
f 1250 1251 1252
f 1253 1250 1252
f 1250 1253 1251
f 1254 1255 1256
f 1254 1256 1257
f 1255 1254 1258
f 1258 1254 1257
f 1259 1260 1261
f 1262 1259 1261
f 1259 1262 1260
f 1263 1264 1265
f 1264 1263 1266
f 1264 1266 1265
f 1267 1268 1269
f 1267 1269 1270
f 1268 1267 1271
f 1271 1267 1270
f 1272 1273 1274
f 1272 1274 1275
f 1273 1272 1276
f 1276 1272 1275
f 1277 1278 1279
f 1277 1279 1280
f 1278 1277 1281
f 1281 1277 1280
f 1282 1283 1284
f 1283 1282 1285
f 1283 1285 1284
f 1286 1287 1288
f 1289 1286 1288
f 1286 1289 1287
f 1290 1291 1292
f 1290 1292 1293
f 1291 1290 1294
f 1294 1290 1293
f 1295 1296 1297
f 1298 1295 1297
f 1295 1298 1296
f 1299 1300 1301
f 1300 1299 1302
f 1300 1302 1301
f 1303 1304 1305
f 1304 1303 1306
f 1304 1306 1305
f 1307 1308 1309
f 1308 1307 1310
f 1308 1310 1309
f 1311 1312 1313
f 1312 1311 1314
f 1312 1314 1313
f 1315 1316 1317
f 1316 1315 1318
f 1316 1318 1317
f 1319 1320 1321
f 1319 1321 1322
f 1323 1319 1322
f 1320 1319 1324
f 1319 1323 1325
f 1319 1326 1324
f 1326 1327 1324
f 1326 1328 1327
f 1328 1326 1329
f 1326 1330 1329
f 1326 1331 1330
f 1331 1326 1332
f 1326 1333 1332
f 1326 1334 1333
f 1326 1335 1334
f 1335 1336 1334
f 1335 1337 1336
f 1337 1335 1338
f 1335 1339 1338
f 1335 1340 1339
f 1340 1335 1341
f 1335 1342 1341
f 1335 1343 1342
f 1335 1344 1343
f 1344 1345 1343
f 1344 1346 1345
f 1346 1344 1347
f 1344 1348 1347
f 1344 1349 1348
f 1349 1344 1350
f 1344 1351 1350
f 1344 1352 1351
f 1352 1344 1353
f 1344 1354 1353
f 1344 1325 1354
f 1319 1325 1344
f 1355 1319 1344
f 1355 1344 1356
f 1357 1355 1356
f 1356 1358 1357
f 1358 1359 1357
f 1358 1360 1359
f 1360 1358 1361
f 1362 1357 1359
f 1358 1363 1361
f 1357 1362 1364
f 1357 1364 1365
f 1366 1357 1365
f 1357 1366 1367
f 1357 1367 1368
f 1358 1369 1363
f 1370 1357 1368
f 1369 1358 1371
f 1357 1370 1372
f 1358 1373 1371
f 1358 1374 1373
f 1374 1358 1375
f 1358 1376 1375
f 1376 1377 1375
f 1376 1378 1377
f 1357 1372 1379
f 1378 1376 1380
f 1381 1357 1379
f 1357 1381 1382
f 1357 1382 1383
f 1376 1384 1380
f 1355 1357 1383
f 1376 1385 1384
f 1355 1383 1386
f 1385 1376 1387
f 1376 1388 1387
f 1376 1389 1388
f 1376 1355 1389
f 1390 1355 1386
f 1355 1391 1389
f 1355 1390 1391
f 1392 1393 1394
f 1392 1394 1395
f 1396 1392 1395
f 1392 1396 1397
f 1392 1397 1398
f 1399 1392 1398
f 1392 1399 1400
f 1393 1392 1401
f 1392 1400 1402
f 1392 1403 1401
f 1403 1404 1401
f 1403 1405 1404
f 1405 1403 1406
f 1403 1407 1406
f 1403 1408 1407
f 1408 1403 1409
f 1403 1410 1409
f 1403 1411 1410
f 1403 1412 1411
f 1412 1413 1411
f 1412 1414 1413
f 1414 1412 1415
f 1412 1416 1415
f 1412 1417 1416
f 1403 1418 1412
f 1417 1412 1419
f 1418 1420 1412
f 1421 1412 1420
f 1418 1422 1420
f 1422 1418 1423
f 1412 1421 1424
f 1418 1425 1423
f 1412 1424 1426
f 1418 1427 1425
f 1428 1412 1426
f 1427 1418 1429
f 1412 1428 1430
f 1418 1431 1429
f 1418 1432 1431
f 1432 1418 1433
f 1418 1434 1433
f 1434 1435 1433
f 1434 1436 1435
f 1436 1434 1437
f 1434 1438 1437
f 1434 1439 1438
f 1439 1434 1440
f 1434 1441 1440
f 1434 1442 1441
f 1442 1434 1443
f 1434 1402 1443
f 1434 1392 1402
f 1443 1402 1444
f 1402 1445 1444
f 1445 1446 1444
f 1446 1447 1444
f 1446 1448 1447
f 1448 1449 1447
f 1448 1450 1449
f 1450 1451 1449
f 1450 1452 1451
f 1452 1453 1451
f 1452 1454 1453
f 1455 1454 1452
f 1454 1456 1453
f 1454 1455 1457
f 1456 1454 1458
f 1454 1457 1459
f 1454 1460 1458
f 1419 1454 1459
f 1454 1461 1460
f 1412 1454 1419
f 1454 1412 1461
f 1412 1430 1461
f 1462 1463 1464
f 1463 1462 1465
f 1463 1465 1466
f 1467 1463 1466
f 1463 1467 1468
f 1463 1468 1469
f 1470 1463 1469
f 1463 1471 1464
f 1463 1470 1472
f 1463 1473 1471
f 1473 1474 1471
f 1473 1475 1474
f 1475 1473 1476
f 1473 1477 1476
f 1473 1478 1477
f 1478 1473 1479
f 1473 1480 1479
f 1473 1481 1480
f 1481 1473 1482
f 1463 1472 1483
f 1483 1472 1484
f 1485 1483 1484
f 1483 1485 1486
f 1483 1486 1487
f 1488 1483 1487
f 1489 1463 1483
f 1490 1483 1488
f 1491 1490 1488
f 1490 1491 1492
f 1490 1492 1493
f 1494 1490 1493
f 1490 1494 1495
f 1489 1483 1496
f 1497 1489 1496
f 1489 1497 1498
f 1489 1498 1499
f 1496 1483 1500
f 1501 1489 1499
f 1483 1502 1500
f 1489 1501 1503
f 1483 1504 1502
f 1504 1483 1505
f 1483 1506 1505
f 1483 1490 1506
f 1489 1503 1507
f 1490 1508 1506
f 1509 1489 1507
f 1489 1509 1510
f 1489 1510 1511
f 1512 1489 1511
f 1513 1512 1511
f 1512 1513 1514
f 1512 1514 1515
f 1508 1490 1516
f 1517 1512 1515
f 1490 1518 1516
f 1490 1519 1518
f 1519 1490 1520
f 1490 1495 1520
f 1520 1495 1521
f 1495 1522 1521
f 1522 1523 1521
f 1522 1524 1523
f 1512 1517 1525
f 1524 1526 1523
f 1524 1527 1526
f 1527 1482 1526
f 1512 1525 1528
f 1482 1529 1526
f 1482 1473 1529
f 1473 1512 1529
f 1530 1512 1528
f 1512 1531 1529
f 1512 1530 1531
f 1532 1533 1534
f 1533 1532 1535
f 1533 1535 1534
f 1536 1537 1538
f 1537 1536 1539
f 1537 1539 1538
f 1540 1541 1542
f 1541 1540 1543
f 1541 1543 1542
f 1544 1545 1546
f 1545 1544 1547
f 1545 1547 1546
f 1548 1549 1550
f 1549 1548 1551
f 1549 1551 1550
f 1552 1553 1554
f 1553 1552 1555
f 1553 1555 1554
