# ROS coordinates: X forward, Y left, Z up; units are metres.
o mesh
v 0.154000655 -0.0295 0.148592412
v 0.154000655 -0.0345000029 0.148592412
v 0.154286087 -0.0345000029 0.148529217
v 0.154329181 -0.032 0.148524329
v 0.154286087 -0.0295 0.148529217
v 0.154595837 -0.0345000029 0.1485201
v 0.154595837 -0.0295 0.1485201
v 0.1546867 -0.032 0.148528844
v 0.154914021 -0.0345000029 0.148574248
v 0.154914021 -0.0295 0.148574248
v 0.155048162 -0.032 0.148617759
v 0.155220985 -0.0345000029 0.1486943
v 0.155220985 -0.0295 0.1486943
v 0.155383587 -0.032 0.148790687
v 0.155496836 -0.0345000029 0.1488747
v 0.155496836 -0.0295 0.1488747
v 0.155665681 -0.032 0.149033546
v 0.155725524 -0.0345000029 0.149102479
v 0.155725524 -0.0295 0.149102479
v 0.155876741 -0.032 0.149322167
v 0.155897751 -0.0345000029 0.14936009
v 0.15601185 -0.032 0.149629265
v 0.155897751 -0.0295 0.14936009
v 0.15601185 -0.0345000029 0.149629265
v 0.15601185 -0.0295 0.149629265
v 0.15607506 -0.0345000029 0.149914712
v 0.15607506 -0.0295 0.149914712
v 0.156079948 -0.032 0.149957791
v 0.156084165 -0.0345000029 0.150224447
v 0.156084165 -0.0295 0.150224447
v 0.156084165 -0.032 0.150224447
v 0.156041816 -0.032 0.150497392
v 0.156030014 -0.0345000029 0.150542647
v 0.156030014 -0.0295 0.150542647
v 0.155950814 -0.032 0.150764242
v 0.155909956 -0.0345000029 0.150849611
v 0.155909956 -0.0295 0.150849611
v 0.15581356 -0.032 0.151012212
v 0.155729547 -0.0345000029 0.151125461
v 0.155729547 -0.0295 0.151125461
v 0.155636787 -0.032 0.151229948
v 0.155501783 -0.0345000029 0.151354134
v 0.155501783 -0.0295 0.151354134
v 0.1554304 -0.032 0.151409328
v 0.155244187 -0.0345000029 0.151526362
v 0.155244187 -0.0295 0.151526362
v 0.15520604 -0.032 0.15154618
v 0.154975 -0.0345000029 0.15164046
v 0.154975 -0.0295 0.15164046
v 0.15468955 -0.0345000029 0.151703671
v 0.154646471 -0.032 0.151708558
v 0.15468955 -0.0295 0.151703671
v 0.1543798 -0.0345000029 0.151712775
v 0.1543798 -0.0295 0.151712775
v 0.154288948 -0.032 0.151704028
v 0.15406163 -0.0345000029 0.151658624
v 0.15406163 -0.0295 0.151658624
v 0.15392749 -0.032 0.151615113
v 0.153754666 -0.0345000029 0.151538581
v 0.153754666 -0.0295 0.151538581
v 0.153592065 -0.032 0.15144217
v 0.153478816 -0.0345000029 0.151358157
v 0.153478816 -0.0295 0.151358157
v 0.153309971 -0.032 0.151199326
v 0.153250128 -0.0345000029 0.1511304
v 0.153250128 -0.0295 0.1511304
v 0.1530989 -0.032 0.15091072
v 0.153077886 -0.0345000029 0.1508728
v 0.1529638 -0.032 0.150603622
v 0.153077886 -0.0295 0.1508728
v 0.1529638 -0.0345000029 0.150603622
v 0.1529638 -0.0295 0.150603622
v 0.152900591 -0.0345000029 0.150318161
v 0.152900591 -0.0295 0.150318161
v 0.1528957 -0.032 0.1502751
v 0.152891472 -0.0345000029 0.150008425
v 0.152891472 -0.0295 0.150008425
v 0.152891472 -0.032 0.150008425
v 0.152933836 -0.032 0.149735481
v 0.152945638 -0.0345000029 0.149690241
v 0.152945638 -0.0295 0.149690241
v 0.153024822 -0.032 0.149468645
v 0.153065681 -0.0345000029 0.149383277
v 0.153065681 -0.0295 0.149383277
v 0.153162077 -0.032 0.149220675
v 0.15324609 -0.0345000029 0.149107426
v 0.15324609 -0.0295 0.149107426
v 0.153338879 -0.032 0.149002925
v 0.153473869 -0.0345000029 0.148878738
v 0.153473869 -0.0295 0.148878738
v 0.153545246 -0.032 0.148823574
v 0.153731465 -0.0345000029 0.1487065
v 0.153731465 -0.0295 0.1487065
v 0.153769612 -0.032 0.148686692
v 0.154000655 -0.0345000029 0.148592412
v 0.154000655 -0.0295 0.148592412
v 0.161612764 -0.0295 0.172405362
v 0.161612764 -0.0345000029 0.172405362
v 0.161898226 -0.0345000029 0.172342137
v 0.16194129 -0.032 0.172337264
v 0.161898226 -0.0295 0.172342137
v 0.162207946 -0.0345000029 0.172333032
v 0.162207946 -0.0295 0.172333032
v 0.162298828 -0.032 0.172341779
v 0.162526146 -0.0345000029 0.1723872
v 0.162526146 -0.0295 0.1723872
v 0.162660256 -0.032 0.1724307
v 0.162833109 -0.0345000029 0.172507241
v 0.162833109 -0.0295 0.172507241
v 0.1629957 -0.032 0.172603637
v 0.163108945 -0.0345000029 0.17268765
v 0.163108945 -0.0295 0.17268765
v 0.163277775 -0.032 0.172846481
v 0.163337648 -0.0345000029 0.1729154
v 0.163337648 -0.0295 0.1729154
v 0.163488865 -0.032 0.1731351
v 0.163509861 -0.0345000029 0.173173025
v 0.163623974 -0.032 0.1734422
v 0.163509861 -0.0295 0.173173025
v 0.163623974 -0.0345000029 0.1734422
v 0.163623974 -0.0295 0.1734422
v 0.163687184 -0.0345000029 0.173727646
v 0.163687184 -0.0295 0.173727646
v 0.163692057 -0.032 0.173770726
v 0.163696289 -0.0345000029 0.174037382
v 0.163696289 -0.0295 0.174037382
v 0.163696289 -0.032 0.174037382
v 0.16365394 -0.032 0.174310341
v 0.163642138 -0.0345000029 0.174355581
v 0.163642138 -0.0295 0.174355581
v 0.163562924 -0.032 0.174577162
v 0.16352208 -0.0345000029 0.174662545
v 0.16352208 -0.0295 0.174662545
v 0.163425684 -0.032 0.174825132
v 0.163341671 -0.0345000029 0.174938381
v 0.163341671 -0.0295 0.174938381
v 0.1632489 -0.032 0.175042883
v 0.163113892 -0.0345000029 0.175167084
v 0.163113892 -0.0295 0.175167084
v 0.163042516 -0.032 0.175222248
v 0.1628563 -0.0345000029 0.1753393
v 0.1628563 -0.0295 0.1753393
v 0.162818149 -0.032 0.175359115
v 0.1625871 -0.0345000029 0.17545341
v 0.1625871 -0.0295 0.17545341
v 0.16230166 -0.0345000029 0.1755166
v 0.1622586 -0.032 0.175521508
v 0.16230166 -0.0295 0.1755166
v 0.161991924 -0.0345000029 0.175525725
v 0.161991924 -0.0295 0.175525725
v 0.161901057 -0.032 0.175516963
v 0.16167374 -0.0345000029 0.175471574
v 0.16167374 -0.0295 0.175471574
v 0.1615396 -0.032 0.175428063
v 0.161366776 -0.0345000029 0.175351515
v 0.161366776 -0.0295 0.175351515
v 0.161204174 -0.032 0.1752551
v 0.161090925 -0.0345000029 0.1751711
v 0.161090925 -0.0295 0.1751711
v 0.16092208 -0.032 0.175012276
v 0.160862237 -0.0345000029 0.174943328
v 0.160862237 -0.0295 0.174943328
v 0.16071102 -0.032 0.174723655
v 0.16069001 -0.0345000029 0.174685732
v 0.160575926 -0.032 0.174416542
v 0.16069001 -0.0295 0.174685732
v 0.160575926 -0.0345000029 0.174416542
v 0.160575926 -0.0295 0.174416542
v 0.1605127 -0.0345000029 0.1741311
v 0.1605127 -0.0295 0.1741311
v 0.160507828 -0.032 0.174088031
v 0.1605036 -0.0345000029 0.17382136
v 0.1605036 -0.0295 0.17382136
v 0.1605036 -0.032 0.17382136
v 0.160545945 -0.032 0.17354843
v 0.160557762 -0.0345000029 0.173503175
v 0.160557762 -0.0295 0.173503175
v 0.160636932 -0.032 0.173281565
v 0.1606778 -0.0345000029 0.173196211
v 0.1606778 -0.0295 0.173196211
v 0.1607742 -0.032 0.17303361
v 0.160858214 -0.0345000029 0.172920361
v 0.160858214 -0.0295 0.172920361
v 0.160951 -0.032 0.172815859
v 0.161085963 -0.0345000029 0.172691673
v 0.161085963 -0.0295 0.172691673
v 0.16115734 -0.032 0.1726365
v 0.161343589 -0.0345000029 0.172519445
v 0.161343589 -0.0295 0.172519445
v 0.161381736 -0.032 0.172499627
v 0.161612764 -0.0345000029 0.172405362
v 0.161612764 -0.0295 0.172405362
v 0.133827791 -0.032 0.16816406
v 0.133827791 -0.0345000029 0.16816406
v 0.134113252 -0.0345000029 0.168100834
v 0.134156317 -0.03325 0.168095961
v 0.134113252 -0.032 0.168100834
v 0.134422973 -0.0345000029 0.168091729
v 0.134422973 -0.032 0.168091729
v 0.13451384 -0.03325 0.168100476
v 0.134741157 -0.0345000029 0.1681459
v 0.134741157 -0.032 0.1681459
v 0.1348753 -0.03325 0.1681894
v 0.135048121 -0.0345000029 0.168265939
v 0.135048121 -0.032 0.168265939
v 0.135210738 -0.03325 0.168362334
v 0.135323986 -0.0345000029 0.168446362
v 0.135323986 -0.032 0.168446362
v 0.135492817 -0.03325 0.168605179
v 0.13555266 -0.0345000029 0.168674126
v 0.13555266 -0.032 0.168674126
v 0.135703892 -0.03325 0.1688938
v 0.1357249 -0.0345000029 0.168931723
v 0.135839 -0.03325 0.1692009
v 0.1357249 -0.032 0.168931723
v 0.135839 -0.0345000029 0.1692009
v 0.135839 -0.032 0.1692009
v 0.1359022 -0.0345000029 0.169486374
v 0.1359022 -0.032 0.169486374
v 0.135907069 -0.03325 0.169529438
v 0.135911316 -0.0345000029 0.169796079
v 0.135911316 -0.032 0.169796079
v 0.135911316 -0.03325 0.169796079
v 0.135868952 -0.03325 0.170069039
v 0.13585715 -0.0345000029 0.170114279
v 0.13585715 -0.032 0.170114279
v 0.13577795 -0.03325 0.1703359
v 0.135737091 -0.0345000029 0.170421243
v 0.135737091 -0.032 0.170421243
v 0.135640711 -0.03325 0.170583859
v 0.1355567 -0.0345000029 0.170697108
v 0.1355567 -0.032 0.170697108
v 0.135463908 -0.03325 0.1708016
v 0.135328919 -0.0345000029 0.170925781
v 0.135328919 -0.032 0.170925781
v 0.135257542 -0.03325 0.17098096
v 0.135071322 -0.0345000029 0.171098024
v 0.135071322 -0.032 0.171098024
v 0.135033175 -0.03325 0.171117812
v 0.134802133 -0.0345000029 0.1712121
v 0.134802133 -0.032 0.1712121
v 0.134516686 -0.0345000029 0.171275318
v 0.134473622 -0.03325 0.1712802
v 0.134516686 -0.032 0.171275318
v 0.134206951 -0.0345000029 0.171284437
v 0.134206951 -0.032 0.171284437
v 0.134116083 -0.03325 0.17127566
v 0.133888766 -0.0345000029 0.171230271
v 0.133888766 -0.032 0.171230271
v 0.133754626 -0.03325 0.17118676
v 0.133581787 -0.0345000029 0.171110213
v 0.133581787 -0.032 0.171110213
v 0.1334192 -0.03325 0.171013832
v 0.133305952 -0.0345000029 0.1709298
v 0.133305952 -0.032 0.1709298
v 0.1331371 -0.03325 0.170770973
v 0.133077264 -0.0345000029 0.170702025
v 0.133077264 -0.032 0.170702025
v 0.132926032 -0.03325 0.170482367
v 0.132905036 -0.0345000029 0.170444429
v 0.132790938 -0.03325 0.170175254
v 0.132905036 -0.032 0.170444429
v 0.132790938 -0.0345000029 0.170175254
v 0.132790938 -0.032 0.170175254
v 0.132727742 -0.0345000029 0.1698898
v 0.132727742 -0.032 0.1698898
v 0.132722855 -0.03325 0.169846728
v 0.132718623 -0.0345000029 0.169580072
v 0.132718623 -0.032 0.169580072
v 0.132718623 -0.03325 0.169580072
v 0.132760987 -0.03325 0.169307128
v 0.132772774 -0.0345000029 0.169261873
v 0.132772774 -0.032 0.169261873
v 0.132851973 -0.03325 0.169040263
v 0.132892817 -0.0345000029 0.168954909
v 0.132892817 -0.032 0.168954909
v 0.132989228 -0.03325 0.1687923
v 0.133073241 -0.0345000029 0.168679059
v 0.133073241 -0.032 0.168679059
v 0.133166015 -0.03325 0.168574572
v 0.133301 -0.0345000029 0.168450385
v 0.133301 -0.032 0.168450385
v 0.133372381 -0.03325 0.1683952
v 0.1335586 -0.0345000029 0.168278143
v 0.1335586 -0.032 0.168278143
v 0.133596763 -0.03325 0.168258324
v 0.133827791 -0.0345000029 0.16816406
v 0.133827791 -0.032 0.16816406
v 0.133711368 -0.0345000029 0.173642278
v 0.133711368 -0.0295 0.173642278
v 0.133188337 -0.0295 0.173526138
v 0.132817358 -0.032 0.173397154
v 0.133188337 -0.0345000029 0.173526138
v 0.1326711 -0.0295 0.173334688
v 0.1326711 -0.0345000029 0.173334688
v 0.132175788 -0.0295 0.173068017
v 0.132175788 -0.0345000029 0.173068017
v 0.131974235 -0.032 0.172931686
v 0.131718457 -0.0295 0.1727308
v 0.131260633 -0.032 0.172270924
v 0.131718457 -0.0345000029 0.1727308
v 0.131313518 -0.0295 0.172332168
v 0.131313518 -0.0345000029 0.172332168
v 0.130972251 -0.0295 0.171884969
v 0.130972251 -0.0345000029 0.171884969
v 0.130736 -0.032 0.171474382
v 0.13070184 -0.0295 0.171404272
v 0.130504891 -0.032 0.170906022
v 0.13070184 -0.0345000029 0.171404272
v 0.130504891 -0.0295 0.170906022
v 0.130504891 -0.0345000029 0.170906022
v 0.130376309 -0.0295 0.170385912
v 0.130376309 -0.0345000029 0.170385912
v 0.130363449 -0.032 0.170308977
v 0.130317748 -0.0295 0.16983749
v 0.130317748 -0.0345000029 0.16983749
v 0.130314976 -0.032 0.16967757
v 0.130336314 -0.0295 0.169275254
v 0.130336314 -0.0345000029 0.169275254
v 0.130368784 -0.032 0.169034123
v 0.13043496 -0.0295 0.168715686
v 0.13043496 -0.0345000029 0.168715686
v 0.1305268 -0.032 0.168403655
v 0.1306119 -0.0295 0.1681757
v 0.1306119 -0.0345000029 0.1681757
v 0.130782813 -0.032 0.167810857
v 0.130860686 -0.0295 0.167671159
v 0.130860686 -0.0345000029 0.167671159
v 0.131123334 -0.032 0.167276978
v 0.131170958 -0.0295 0.167215183
v 0.131170958 -0.0345000029 0.167215183
v 0.131529644 -0.0295 0.166817188
v 0.131529644 -0.0345000029 0.166817188
v 0.134516686 -0.0345000029 0.171275318
v 0.133711368 -0.0345000029 0.173642278
v 0.134206951 -0.0345000029 0.171284437
v 0.134802133 -0.0345000029 0.1712121
v 0.135071322 -0.0345000029 0.171098024
v 0.135328919 -0.0345000029 0.170925781
v 0.1355567 -0.0345000029 0.170697108
v 0.133888766 -0.0345000029 0.171230271
v 0.133188337 -0.0345000029 0.173526138
v 0.1326711 -0.0345000029 0.173334688
v 0.133581787 -0.0345000029 0.171110213
v 0.132175788 -0.0345000029 0.173068017
v 0.133305952 -0.0345000029 0.1709298
v 0.131718457 -0.0345000029 0.1727308
v 0.131313518 -0.0345000029 0.172332168
v 0.133077264 -0.0345000029 0.170702025
v 0.130972251 -0.0345000029 0.171884969
v 0.132905036 -0.0345000029 0.170444429
v 0.13070184 -0.0345000029 0.171404272
v 0.132790938 -0.0345000029 0.170175254
v 0.130504891 -0.0345000029 0.170906022
v 0.130376309 -0.0345000029 0.170385912
v 0.132727742 -0.0345000029 0.1698898
v 0.130317748 -0.0345000029 0.16983749
v 0.132718623 -0.0345000029 0.169580072
v 0.130336314 -0.0345000029 0.169275254
v 0.132772774 -0.0345000029 0.169261873
v 0.13043496 -0.0345000029 0.168715686
v 0.1306119 -0.0345000029 0.1681757
v 0.132892817 -0.0345000029 0.168954909
v 0.130860686 -0.0345000029 0.167671159
v 0.133073241 -0.0345000029 0.168679059
v 0.131170958 -0.0345000029 0.167215183
v 0.131529644 -0.0345000029 0.166817188
v 0.133301 -0.0345000029 0.168450385
v 0.1335586 -0.0345000029 0.168278143
v 0.133827791 -0.0345000029 0.16816406
v 0.134113252 -0.0345000029 0.168100834
v 0.134422973 -0.0345000029 0.168091729
v 0.134741157 -0.0345000029 0.1681459
v 0.146304429 -0.0345000029 0.1658555
v 0.151702508 -0.0345000029 0.147245556
v 0.1529638 -0.0345000029 0.150603622
v 0.135048121 -0.0345000029 0.168265939
v 0.135323986 -0.0345000029 0.168446362
v 0.13555266 -0.0345000029 0.168674126
v 0.1357249 -0.0345000029 0.168931723
v 0.135839 -0.0345000029 0.1692009
v 0.1359022 -0.0345000029 0.169486374
v 0.135911316 -0.0345000029 0.169796079
v 0.13585715 -0.0345000029 0.170114279
v 0.135737091 -0.0345000029 0.170421243
v 0.161496341 -0.0345000029 0.17788358
v 0.160575926 -0.0345000029 0.174416542
v 0.16069001 -0.0345000029 0.174685732
v 0.1605127 -0.0345000029 0.1741311
v 0.1605036 -0.0345000029 0.17382136
v 0.160557762 -0.0345000029 0.173503175
v 0.1606778 -0.0345000029 0.173196211
v 0.160858214 -0.0345000029 0.172920361
v 0.160862237 -0.0345000029 0.174943328
v 0.161090925 -0.0345000029 0.1751711
v 0.161366776 -0.0345000029 0.175351515
v 0.16167374 -0.0345000029 0.175471574
v 0.161991924 -0.0345000029 0.175525725
v 0.162492573 -0.0345000029 0.177910045
v 0.16230166 -0.0345000029 0.1755166
v 0.1625871 -0.0345000029 0.17545341
v 0.1634957 -0.0345000029 0.177677944
v 0.1628563 -0.0345000029 0.1753393
v 0.164406329 -0.0345000029 0.177197471
v 0.163113892 -0.0345000029 0.175167084
v 0.165142655 -0.0345000029 0.176525876
v 0.163341671 -0.0345000029 0.174938381
v 0.1656901 -0.0345000029 0.175693125
v 0.16352208 -0.0345000029 0.174662545
v 0.163642138 -0.0345000029 0.174355581
v 0.166021377 -0.0345000029 0.174718261
v 0.163696289 -0.0345000029 0.174037382
v 0.166092843 -0.0345000029 0.1736911
v 0.163687184 -0.0345000029 0.173727646
v 0.16591 -0.0345000029 0.172711447
v 0.163623974 -0.0345000029 0.1734422
v 0.163509861 -0.0345000029 0.173173025
v 0.163337648 -0.0345000029 0.1729154
v 0.163108945 -0.0345000029 0.17268765
v 0.162833109 -0.0345000029 0.172507241
v 0.162526146 -0.0345000029 0.1723872
v 0.160030738 -0.0345000029 0.1614677
v 0.158297881 -0.0345000029 0.1488985
v 0.155729547 -0.0345000029 0.151125461
v 0.162207946 -0.0345000029 0.172333032
v 0.161898226 -0.0345000029 0.172342137
v 0.155501783 -0.0345000029 0.151354134
v 0.155909956 -0.0345000029 0.150849611
v 0.156030014 -0.0345000029 0.150542647
v 0.156084165 -0.0345000029 0.150224447
v 0.15607506 -0.0345000029 0.149914712
v 0.15601185 -0.0345000029 0.149629265
v 0.155897751 -0.0345000029 0.14936009
v 0.157878563 -0.0345000029 0.147994429
v 0.155725524 -0.0345000029 0.149102479
v 0.157224551 -0.0345000029 0.1471992
v 0.155496836 -0.0345000029 0.1488747
v 0.156389236 -0.0345000029 0.146597251
v 0.155220985 -0.0345000029 0.1486943
v 0.154914021 -0.0345000029 0.148574248
v 0.155460238 -0.0345000029 0.146236435
v 0.154595837 -0.0345000029 0.1485201
v 0.154470891 -0.0345000029 0.14611648
v 0.154286087 -0.0345000029 0.148529217
v 0.1534504 -0.0345000029 0.146253318
v 0.154000655 -0.0345000029 0.148592412
v 0.152498648 -0.0345000029 0.146646112
v 0.153731465 -0.0345000029 0.1487065
v 0.153473869 -0.0345000029 0.148878738
v 0.15324609 -0.0345000029 0.149107426
v 0.153065681 -0.0345000029 0.149383277
v 0.152945638 -0.0345000029 0.149690241
v 0.152891472 -0.0345000029 0.150008425
v 0.152900591 -0.0345000029 0.150318161
v 0.153077886 -0.0345000029 0.1508728
v 0.153250128 -0.0345000029 0.1511304
v 0.153478816 -0.0345000029 0.151358157
v 0.153754666 -0.0345000029 0.151538581
v 0.15406163 -0.0345000029 0.151658624
v 0.159817919 -0.0345000029 0.161535725
v 0.1543798 -0.0345000029 0.151712775
v 0.15468955 -0.0345000029 0.151703671
v 0.161085963 -0.0345000029 0.172691673
v 0.154975 -0.0345000029 0.15164046
v 0.161343589 -0.0345000029 0.172519445
v 0.161612764 -0.0345000029 0.172405362
v 0.155244187 -0.0345000029 0.151526362
v 0.162526146 -0.0295 0.1723872
v 0.159817919 -0.0295 0.161535725
v 0.162207946 -0.0295 0.172333032
v 0.16591 -0.0295 0.172711447
v 0.162833109 -0.0295 0.172507241
v 0.161898226 -0.0295 0.172342137
v 0.163108945 -0.0295 0.17268765
v 0.161612764 -0.0295 0.172405362
v 0.163337648 -0.0295 0.1729154
v 0.161343589 -0.0295 0.172519445
v 0.163509861 -0.0295 0.173173025
v 0.161085963 -0.0295 0.172691673
v 0.163623974 -0.0295 0.1734422
v 0.158297881 -0.0295 0.1488985
v 0.155729547 -0.0295 0.151125461
v 0.160858214 -0.0295 0.172920361
v 0.155501783 -0.0295 0.151354134
v 0.163687184 -0.0295 0.173727646
v 0.166092843 -0.0295 0.1736911
v 0.163696289 -0.0295 0.174037382
v 0.166021377 -0.0295 0.174718261
v 0.163642138 -0.0295 0.174355581
v 0.155909956 -0.0295 0.150849611
v 0.155244187 -0.0295 0.151526362
v 0.1656901 -0.0295 0.175693125
v 0.16352208 -0.0295 0.174662545
v 0.163341671 -0.0295 0.174938381
v 0.165142655 -0.0295 0.176525876
v 0.163113892 -0.0295 0.175167084
v 0.164406329 -0.0295 0.177197471
v 0.1628563 -0.0295 0.1753393
v 0.1634957 -0.0295 0.177677944
v 0.1625871 -0.0295 0.17545341
v 0.154975 -0.0295 0.15164046
v 0.162492573 -0.0295 0.177910045
v 0.16230166 -0.0295 0.1755166
v 0.161991924 -0.0295 0.175525725
v 0.161496341 -0.0295 0.17788358
v 0.16167374 -0.0295 0.175471574
v 0.161366776 -0.0295 0.175351515
v 0.15468955 -0.0295 0.151703671
v 0.161090925 -0.0295 0.1751711
v 0.1543798 -0.0295 0.151712775
v 0.160862237 -0.0295 0.174943328
v 0.16069001 -0.0295 0.174685732
v 0.15406163 -0.0295 0.151658624
v 0.160575926 -0.0295 0.174416542
v 0.146304429 -0.0295 0.1658555
v 0.1606778 -0.0295 0.173196211
v 0.160557762 -0.0295 0.173503175
v 0.1605036 -0.0295 0.17382136
v 0.1605127 -0.0295 0.1741311
v 0.153754666 -0.0295 0.151538581
v 0.141616076 -0.0295 0.157031387
v 0.153478816 -0.0295 0.151358157
v 0.153250128 -0.0295 0.1511304
v 0.153077886 -0.0295 0.1508728
v 0.1529638 -0.0295 0.150603622
v 0.152900591 -0.0295 0.150318161
v 0.151702508 -0.0295 0.147245556
v 0.152891472 -0.0295 0.150008425
v 0.152945638 -0.0295 0.149690241
v 0.153065681 -0.0295 0.149383277
v 0.15324609 -0.0295 0.149107426
v 0.153473869 -0.0295 0.148878738
v 0.152498648 -0.0295 0.146646112
v 0.153731465 -0.0295 0.1487065
v 0.154000655 -0.0295 0.148592412
v 0.1534504 -0.0295 0.146253318
v 0.154286087 -0.0295 0.148529217
v 0.154470891 -0.0295 0.14611648
v 0.154595837 -0.0295 0.1485201
v 0.155460238 -0.0295 0.146236435
v 0.154914021 -0.0295 0.148574248
v 0.156389236 -0.0295 0.146597251
v 0.155220985 -0.0295 0.1486943
v 0.155496836 -0.0295 0.1488747
v 0.157224551 -0.0295 0.1471992
v 0.155725524 -0.0295 0.149102479
v 0.157878563 -0.0295 0.147994429
v 0.155897751 -0.0295 0.14936009
v 0.15601185 -0.0295 0.149629265
v 0.15607506 -0.0295 0.149914712
v 0.156084165 -0.0295 0.150224447
v 0.156030014 -0.0295 0.150542647
v 0.136572853 -0.0295 0.161924288
v 0.136450961 -0.0295 0.167338416
v 0.134051263 -0.0295 0.164370745
v 0.133348092 -0.0295 0.166663438
v 0.131529644 -0.0295 0.166817188
v 0.131212115 -0.0295 0.169013083
v 0.131170958 -0.0295 0.167215183
v 0.130860686 -0.0295 0.167671159
v 0.137417823 -0.0295 0.170363069
v 0.135281846 -0.0295 0.172712728
v 0.133711368 -0.0295 0.173642278
v 0.132178977 -0.0295 0.17203775
v 0.133188337 -0.0295 0.173526138
v 0.1326711 -0.0295 0.173334688
v 0.1306119 -0.0295 0.1681757
v 0.132175788 -0.0295 0.173068017
v 0.13043496 -0.0295 0.168715686
v 0.131718457 -0.0295 0.1727308
v 0.130336314 -0.0295 0.169275254
v 0.131313518 -0.0295 0.172332168
v 0.130317748 -0.0295 0.16983749
v 0.130376309 -0.0295 0.170385912
v 0.130504891 -0.0295 0.170906022
v 0.130972251 -0.0295 0.171884969
v 0.13070184 -0.0295 0.171404272
v 0.162103936 -0.032 0.160804972
v 0.16591 -0.0295 0.172711447
v 0.16591 -0.0345000029 0.172711447
v 0.158297881 -0.0345000029 0.1488985
v 0.158297881 -0.0295 0.1488985
v 0.161496341 -0.0295 0.17788358
v 0.161496341 -0.0345000029 0.17788358
v 0.162059128 -0.032 0.177929163
v 0.162492573 -0.0295 0.177910045
v 0.162492573 -0.0345000029 0.177910045
v 0.16263777 -0.032 0.177893057
v 0.163214236 -0.032 0.177771017
v 0.1634957 -0.0295 0.177677944
v 0.1634957 -0.0345000029 0.177677944
v 0.163769484 -0.032 0.1775643
v 0.164406329 -0.0295 0.177197471
v 0.164406329 -0.0345000029 0.177197471
v 0.164285377 -0.032 0.177279577
v 0.164746732 -0.032 0.176928461
v 0.165142655 -0.0295 0.176525876
v 0.165142655 -0.0345000029 0.176525876
v 0.165142655 -0.032 0.176525876
v 0.165477961 -0.032 0.176071584
v 0.1656901 -0.0295 0.175693125
v 0.1656901 -0.0345000029 0.175693125
v 0.165862113 -0.032 0.175288081
v 0.166021377 -0.0295 0.174718261
v 0.166021377 -0.0345000029 0.174718261
v 0.166069046 -0.032 0.174425676
v 0.166092843 -0.0295 0.1736911
v 0.166092843 -0.0345000029 0.1736911
v 0.166081518 -0.032 0.173546061
v 0.16591 -0.0295 0.172711447
v 0.16591 -0.0345000029 0.172711447
v 0.147603855 -0.032 0.175762922
v 0.133711368 -0.0295 0.173642278
v 0.133711368 -0.0345000029 0.173642278
v 0.161496341 -0.0345000029 0.17788358
v 0.161496341 -0.0295 0.17788358
v 0.141616076 -0.032 0.157031387
v 0.151702508 -0.0295 0.147245556
v 0.151702508 -0.0345000029 0.147245556
v 0.131529644 -0.0345000029 0.166817188
v 0.141616076 -0.0295 0.157031387
v 0.131529644 -0.0295 0.166817188
v 0.136572853 -0.0295 0.161924288
v 0.134051263 -0.0295 0.164370745
v 0.132178977 -0.032 0.17203775
v 0.133581787 -0.032 0.171110213
v 0.133305952 -0.032 0.1709298
v 0.133077264 -0.032 0.170702025
v 0.132905036 -0.032 0.170444429
v 0.133888766 -0.032 0.171230271
v 0.135281846 -0.032 0.172712728
v 0.132790938 -0.032 0.170175254
v 0.134206951 -0.032 0.171284437
v 0.131212115 -0.032 0.169013083
v 0.134516686 -0.032 0.171275318
v 0.132727742 -0.032 0.1698898
v 0.134802133 -0.032 0.1712121
v 0.132718623 -0.032 0.169580072
v 0.135071322 -0.032 0.171098024
v 0.135328919 -0.032 0.170925781
v 0.1355567 -0.032 0.170697108
v 0.132772774 -0.032 0.169261873
v 0.132892817 -0.032 0.168954909
v 0.133073241 -0.032 0.168679059
v 0.133348092 -0.032 0.166663438
v 0.137417823 -0.032 0.170363069
v 0.133301 -0.032 0.168450385
v 0.135737091 -0.032 0.170421243
v 0.1335586 -0.032 0.168278143
v 0.13585715 -0.032 0.170114279
v 0.133827791 -0.032 0.16816406
v 0.135911316 -0.032 0.169796079
v 0.1359022 -0.032 0.169486374
v 0.135839 -0.032 0.1692009
v 0.134113252 -0.032 0.168100834
v 0.134422973 -0.032 0.168091729
v 0.134741157 -0.032 0.1681459
v 0.136450961 -0.032 0.167338416
v 0.1357249 -0.032 0.168931723
v 0.135048121 -0.032 0.168265939
v 0.13555266 -0.032 0.168674126
v 0.135323986 -0.032 0.168446362
v 0.131695539 -0.03075 0.1705254
v 0.131212115 -0.032 0.169013083
v 0.131212115 -0.0295 0.169013083
v 0.132178977 -0.0295 0.17203775
v 0.132178977 -0.032 0.17203775
v 0.135281846 -0.032 0.172712728
v 0.133730412 -0.03075 0.172375232
v 0.135281846 -0.0295 0.172712728
v 0.132178977 -0.032 0.17203775
v 0.132178977 -0.0295 0.17203775
v 0.137417823 -0.032 0.170363069
v 0.136349827 -0.03075 0.1715379
v 0.137417823 -0.0295 0.170363069
v 0.135281846 -0.032 0.172712728
v 0.135281846 -0.0295 0.172712728
v 0.136450961 -0.032 0.167338416
v 0.136934385 -0.03075 0.16885075
v 0.136450961 -0.0295 0.167338416
v 0.137417823 -0.032 0.170363069
v 0.137417823 -0.0295 0.170363069
v 0.133348092 -0.032 0.166663438
v 0.134899527 -0.03075 0.16700092
v 0.133348092 -0.0295 0.166663438
v 0.136450961 -0.032 0.167338416
v 0.136450961 -0.0295 0.167338416
v 0.151702508 -0.0295 0.147245556
v 0.152373761 -0.032 0.146720752
v 0.151702508 -0.0345000029 0.147245556
v 0.152498648 -0.0295 0.146646112
v 0.152498648 -0.0345000029 0.146646112
v 0.153167158 -0.032 0.146340743
v 0.1534504 -0.0295 0.146253318
v 0.1534504 -0.0345000029 0.146253318
v 0.1540316 -0.032 0.146142542
v 0.154470891 -0.0295 0.14611648
v 0.154470891 -0.0345000029 0.14611648
v 0.154904217 -0.032 0.146138161
v 0.155460238 -0.0295 0.146236435
v 0.155460238 -0.0345000029 0.146236435
v 0.155460238 -0.032 0.146236435
v 0.155996889 -0.032 0.146412015
v 0.156389236 -0.0295 0.146597251
v 0.156389236 -0.0345000029 0.146597251
v 0.156516552 -0.032 0.14666909
v 0.157000989 -0.032 0.14700453
v 0.157224551 -0.0295 0.1471992
v 0.157224551 -0.0345000029 0.1471992
v 0.1574331 -0.032 0.147409886
v 0.157878563 -0.0295 0.147994429
v 0.157878563 -0.0345000029 0.147994429
v 0.157798752 -0.032 0.147871941
v 0.158088446 -0.032 0.148374155
v 0.158297881 -0.0295 0.1488985
v 0.158297881 -0.0345000029 0.1488985
v 0.131212115 -0.032 0.169013083
v 0.1322801 -0.03075 0.167838261
v 0.131212115 -0.0295 0.169013083
v 0.133348092 -0.032 0.166663438
v 0.133348092 -0.0295 0.166663438
f 1 2 3
f 1 3 4
f 5 1 4
f 4 3 6
f 7 5 4
f 8 4 6
f 7 4 8
f 8 6 9
f 10 7 8
f 11 8 9
f 10 8 11
f 11 9 12
f 13 10 11
f 14 11 12
f 13 11 14
f 14 12 15
f 16 13 14
f 17 14 15
f 16 14 17
f 17 15 18
f 19 16 17
f 20 17 18
f 19 17 20
f 20 18 21
f 22 20 21
f 23 19 20
f 23 20 22
f 22 21 24
f 25 23 22
f 26 22 24
f 27 25 22
f 28 22 26
f 27 22 28
f 29 28 26
f 30 27 28
f 31 28 29
f 31 30 28
f 32 31 29
f 31 32 30
f 32 29 33
f 32 34 30
f 35 32 33
f 32 35 34
f 35 33 36
f 35 37 34
f 38 35 36
f 35 38 37
f 38 36 39
f 38 40 37
f 41 38 39
f 38 41 40
f 41 39 42
f 41 43 40
f 44 41 42
f 41 44 43
f 44 42 45
f 44 46 43
f 47 44 45
f 44 47 46
f 47 45 48
f 46 47 49
f 47 48 49
f 48 50 49
f 50 51 49
f 49 51 52
f 50 53 51
f 51 54 52
f 53 55 51
f 51 55 54
f 53 56 55
f 55 57 54
f 56 58 55
f 55 58 57
f 56 59 58
f 58 60 57
f 59 61 58
f 58 61 60
f 59 62 61
f 61 63 60
f 62 64 61
f 61 64 63
f 62 65 64
f 64 66 63
f 65 67 64
f 64 67 66
f 65 68 67
f 68 69 67
f 67 70 66
f 67 69 70
f 68 71 69
f 69 72 70
f 71 73 69
f 69 74 72
f 73 75 69
f 69 75 74
f 73 76 75
f 75 77 74
f 76 78 75
f 75 78 77
f 76 79 78
f 79 77 78
f 80 79 76
f 79 81 77
f 82 79 80
f 79 82 81
f 83 82 80
f 82 84 81
f 85 82 83
f 82 85 84
f 86 85 83
f 85 87 84
f 88 85 86
f 85 88 87
f 89 88 86
f 88 90 87
f 91 88 89
f 88 91 90
f 92 91 89
f 91 93 90
f 94 91 92
f 91 94 93
f 95 94 92
f 94 96 93
f 94 95 96
f 97 98 99
f 97 99 100
f 101 97 100
f 100 99 102
f 103 101 100
f 104 100 102
f 103 100 104
f 104 102 105
f 106 103 104
f 107 104 105
f 106 104 107
f 107 105 108
f 109 106 107
f 110 107 108
f 109 107 110
f 110 108 111
f 112 109 110
f 113 110 111
f 112 110 113
f 113 111 114
f 115 112 113
f 116 113 114
f 115 113 116
f 116 114 117
f 118 116 117
f 119 115 116
f 119 116 118
f 118 117 120
f 121 119 118
f 122 118 120
f 123 121 118
f 124 118 122
f 123 118 124
f 125 124 122
f 126 123 124
f 127 124 125
f 127 126 124
f 128 127 125
f 127 128 126
f 128 125 129
f 128 130 126
f 131 128 129
f 128 131 130
f 131 129 132
f 131 133 130
f 134 131 132
f 131 134 133
f 134 132 135
f 134 136 133
f 137 134 135
f 134 137 136
f 137 135 138
f 137 139 136
f 140 137 138
f 137 140 139
f 140 138 141
f 140 142 139
f 143 140 141
f 140 143 142
f 143 141 144
f 142 143 145
f 143 144 145
f 144 146 145
f 146 147 145
f 145 147 148
f 146 149 147
f 147 150 148
f 149 151 147
f 147 151 150
f 149 152 151
f 151 153 150
f 152 154 151
f 151 154 153
f 152 155 154
f 154 156 153
f 155 157 154
f 154 157 156
f 155 158 157
f 157 159 156
f 158 160 157
f 157 160 159
f 158 161 160
f 160 162 159
f 161 163 160
f 160 163 162
f 161 164 163
f 164 165 163
f 163 166 162
f 163 165 166
f 164 167 165
f 165 168 166
f 167 169 165
f 165 170 168
f 169 171 165
f 165 171 170
f 169 172 171
f 171 173 170
f 172 174 171
f 171 174 173
f 172 175 174
f 175 173 174
f 176 175 172
f 175 177 173
f 178 175 176
f 175 178 177
f 179 178 176
f 178 180 177
f 181 178 179
f 178 181 180
f 182 181 179
f 181 183 180
f 184 181 182
f 181 184 183
f 185 184 182
f 184 186 183
f 187 184 185
f 184 187 186
f 188 187 185
f 187 189 186
f 190 187 188
f 187 190 189
f 191 190 188
f 190 192 189
f 190 191 192
f 193 194 195
f 193 195 196
f 197 193 196
f 196 195 198
f 199 197 196
f 200 196 198
f 199 196 200
f 200 198 201
f 202 199 200
f 203 200 201
f 202 200 203
f 203 201 204
f 205 202 203
f 206 203 204
f 205 203 206
f 206 204 207
f 208 205 206
f 209 206 207
f 208 206 209
f 209 207 210
f 211 208 209
f 212 209 210
f 211 209 212
f 212 210 213
f 214 212 213
f 215 211 212
f 215 212 214
f 214 213 216
f 217 215 214
f 218 214 216
f 219 217 214
f 220 214 218
f 219 214 220
f 221 220 218
f 222 219 220
f 223 220 221
f 223 222 220
f 224 223 221
f 223 224 222
f 224 221 225
f 224 226 222
f 227 224 225
f 224 227 226
f 227 225 228
f 227 229 226
f 230 227 228
f 227 230 229
f 230 228 231
f 230 232 229
f 233 230 231
f 230 233 232
f 233 231 234
f 233 235 232
f 236 233 234
f 233 236 235
f 236 234 237
f 236 238 235
f 239 236 237
f 236 239 238
f 239 237 240
f 238 239 241
f 239 240 241
f 240 242 241
f 242 243 241
f 241 243 244
f 242 245 243
f 243 246 244
f 245 247 243
f 243 247 246
f 245 248 247
f 247 249 246
f 248 250 247
f 247 250 249
f 248 251 250
f 250 252 249
f 251 253 250
f 250 253 252
f 251 254 253
f 253 255 252
f 254 256 253
f 253 256 255
f 254 257 256
f 256 258 255
f 257 259 256
f 256 259 258
f 257 260 259
f 260 261 259
f 259 262 258
f 259 261 262
f 260 263 261
f 261 264 262
f 263 265 261
f 261 266 264
f 265 267 261
f 261 267 266
f 265 268 267
f 267 269 266
f 268 270 267
f 267 270 269
f 268 271 270
f 271 269 270
f 272 271 268
f 271 273 269
f 274 271 272
f 271 274 273
f 275 274 272
f 274 276 273
f 277 274 275
f 274 277 276
f 278 277 275
f 277 279 276
f 280 277 278
f 277 280 279
f 281 280 278
f 280 282 279
f 283 280 281
f 280 283 282
f 284 283 281
f 283 285 282
f 286 283 284
f 283 286 285
f 287 286 284
f 286 288 285
f 286 287 288
f 289 290 291
f 289 291 292
f 293 289 292
f 292 291 294
f 293 292 295
f 292 294 296
f 292 297 295
f 298 292 296
f 292 298 297
f 298 296 299
f 300 298 299
f 298 301 297
f 298 300 301
f 300 299 302
f 300 303 301
f 300 302 304
f 300 305 303
f 306 300 304
f 300 306 305
f 306 304 307
f 308 306 307
f 306 309 305
f 306 308 309
f 308 307 310
f 308 311 309
f 308 310 312
f 308 313 311
f 314 308 312
f 308 314 313
f 314 312 315
f 314 316 313
f 317 314 315
f 314 317 316
f 317 315 318
f 317 319 316
f 320 317 318
f 317 320 319
f 320 318 321
f 320 322 319
f 323 320 321
f 320 323 322
f 323 321 324
f 323 325 322
f 326 323 324
f 323 326 325
f 326 324 327
f 326 328 325
f 329 326 327
f 326 329 328
f 329 327 330
f 329 331 328
f 332 329 330
f 329 332 331
f 332 333 331
f 334 335 336
f 335 334 337
f 335 337 338
f 339 335 338
f 335 339 340
f 335 341 336
f 341 335 342
f 341 342 343
f 344 341 343
f 344 343 345
f 346 344 345
f 346 345 347
f 346 347 348
f 349 346 348
f 349 348 350
f 351 349 350
f 351 350 352
f 353 351 352
f 353 352 354
f 353 354 355
f 356 353 355
f 356 355 357
f 358 356 357
f 358 357 359
f 360 358 359
f 360 359 361
f 360 361 362
f 363 360 362
f 363 362 364
f 365 363 364
f 366 365 364
f 366 367 365
f 367 368 365
f 367 369 368
f 369 367 370
f 367 371 370
f 367 372 371
f 372 367 373
f 374 373 367
f 375 374 367
f 376 374 375
f 374 377 373
f 377 374 378
f 374 379 378
f 374 380 379
f 380 374 381
f 374 382 381
f 374 383 382
f 383 374 384
f 374 385 384
f 374 340 385
f 335 340 374
f 386 335 374
f 386 374 387
f 388 386 387
f 387 374 389
f 374 390 389
f 374 391 390
f 391 374 392
f 374 393 392
f 386 388 394
f 386 394 395
f 396 386 395
f 386 396 397
f 386 397 398
f 399 386 398
f 399 398 400
f 399 400 401
f 402 399 401
f 401 403 402
f 403 404 402
f 403 405 404
f 405 406 404
f 405 407 406
f 407 408 406
f 407 409 408
f 409 410 408
f 410 411 408
f 410 412 411
f 412 413 411
f 412 414 413
f 414 415 413
f 414 416 415
f 416 417 415
f 417 418 415
f 418 419 415
f 419 420 415
f 415 420 421
f 415 421 422
f 423 415 422
f 424 423 422
f 422 421 425
f 422 425 426
f 427 424 422
f 424 428 423
f 428 429 423
f 429 430 423
f 430 431 423
f 423 431 432
f 423 432 433
f 434 423 433
f 433 435 434
f 435 436 434
f 435 437 436
f 437 438 436
f 437 439 438
f 439 440 438
f 440 441 438
f 440 442 441
f 442 443 441
f 442 444 443
f 444 445 443
f 444 446 445
f 446 447 445
f 446 448 447
f 448 449 447
f 449 375 447
f 449 450 375
f 450 451 375
f 451 452 375
f 452 453 375
f 453 454 375
f 454 376 375
f 376 455 374
f 455 456 374
f 456 457 374
f 457 458 374
f 458 459 374
f 459 460 374
f 459 461 460
f 374 460 393
f 461 462 460
f 460 463 393
f 462 464 460
f 460 465 463
f 465 460 466
f 460 426 466
f 464 467 460
f 460 422 426
f 467 422 460
f 467 427 422
f 468 469 470
f 471 469 468
f 472 471 468
f 469 473 470
f 471 472 474
f 473 469 475
f 471 474 476
f 469 477 475
f 478 471 476
f 469 479 477
f 471 478 480
f 471 481 469
f 481 482 469
f 479 469 483
f 484 469 482
f 471 480 485
f 486 471 485
f 485 487 486
f 487 488 486
f 487 489 488
f 481 490 482
f 469 484 491
f 489 492 488
f 489 493 492
f 493 494 492
f 494 495 492
f 494 496 495
f 496 497 495
f 496 498 497
f 498 499 497
f 498 500 499
f 469 491 501
f 500 502 499
f 500 503 502
f 503 504 502
f 504 505 502
f 504 506 505
f 506 507 505
f 508 469 501
f 507 509 505
f 469 508 510
f 509 511 505
f 511 512 505
f 469 510 513
f 512 514 505
f 515 469 513
f 469 515 483
f 483 515 516
f 515 517 516
f 515 518 517
f 518 515 519
f 515 514 519
f 515 513 520
f 515 520 521
f 521 520 522
f 521 522 523
f 524 521 523
f 521 524 525
f 521 525 526
f 527 521 526
f 527 526 528
f 527 528 529
f 530 527 529
f 527 530 531
f 527 531 532
f 533 527 532
f 533 532 534
f 533 534 535
f 536 533 535
f 535 537 536
f 537 538 536
f 537 539 538
f 539 540 538
f 539 541 540
f 541 542 540
f 541 543 542
f 543 544 542
f 544 545 542
f 544 546 545
f 546 547 545
f 546 548 547
f 548 481 547
f 548 549 481
f 549 550 481
f 550 551 481
f 551 552 481
f 552 490 481
f 553 515 521
f 515 553 554
f 553 555 554
f 555 556 554
f 555 557 556
f 557 558 556
f 557 559 558
f 559 560 558
f 515 554 561
f 514 515 561
f 514 561 505
f 505 561 562
f 563 505 562
f 563 562 564
f 565 563 564
f 566 565 564
f 560 567 558
f 568 566 564
f 567 569 558
f 570 568 564
f 569 571 558
f 572 570 564
f 571 573 558
f 573 574 558
f 574 575 558
f 575 564 558
f 576 572 564
f 575 577 564
f 577 576 564
f 578 579 580
f 578 580 581
f 579 578 582
f 582 578 581
f 583 584 585
f 586 583 585
f 584 587 585
f 588 586 585
f 588 585 587
f 588 589 586
f 589 588 587
f 589 590 586
f 589 587 591
f 589 592 590
f 592 589 591
f 592 593 590
f 592 591 594
f 593 592 595
f 592 594 595
f 593 595 596
f 596 595 594
f 597 593 596
f 598 596 594
f 599 597 596
f 599 596 598
f 599 600 597
f 600 599 598
f 600 601 597
f 600 598 602
f 600 603 601
f 603 600 602
f 603 604 601
f 603 602 605
f 603 606 604
f 606 603 605
f 606 607 604
f 606 605 608
f 606 609 607
f 609 606 608
f 609 610 607
f 609 608 611
f 610 609 611
f 612 613 614
f 612 614 615
f 613 612 616
f 616 612 615
f 617 618 619
f 617 619 620
f 618 617 621
f 622 617 620
f 617 623 621
f 624 617 622
f 617 624 623
f 625 626 627
f 628 625 627
f 625 628 629
f 625 630 626
f 625 631 630
f 625 629 632
f 631 633 630
f 634 625 632
f 631 635 633
f 634 632 636
f 635 631 637
f 634 636 638
f 631 639 637
f 631 640 639
f 640 631 641
f 642 634 638
f 634 642 643
f 634 643 644
f 645 634 644
f 631 646 641
f 647 645 644
f 646 648 641
f 645 647 649
f 646 650 648
f 645 649 651
f 650 646 652
f 646 653 652
f 646 654 653
f 655 645 651
f 645 655 656
f 645 656 657
f 646 658 654
f 658 645 657
f 658 659 654
f 658 657 660
f 658 661 659
f 658 660 662
f 661 658 662
f 663 664 665
f 663 665 666
f 664 663 667
f 667 663 666
f 668 669 670
f 671 669 668
f 669 672 670
f 669 671 672
f 673 674 675
f 676 674 673
f 674 677 675
f 674 676 677
f 678 679 680
f 681 679 678
f 679 682 680
f 679 681 682
f 683 684 685
f 686 684 683
f 684 687 685
f 684 686 687
f 688 689 690
f 689 688 691
f 689 692 690
f 693 689 691
f 689 693 692
f 693 691 694
f 693 695 692
f 696 693 694
f 693 696 695
f 696 694 697
f 696 698 695
f 699 696 697
f 696 699 698
f 699 697 700
f 699 701 698
f 702 699 700
f 699 702 701
f 702 700 703
f 702 703 701
f 700 704 703
f 701 703 705
f 704 706 703
f 703 706 705
f 704 707 706
f 707 705 706
f 707 704 708
f 707 709 705
f 710 707 708
f 707 710 709
f 710 708 711
f 710 712 709
f 713 710 711
f 710 713 712
f 713 711 714
f 713 714 712
f 711 715 714
f 716 712 714
f 715 716 714
f 717 718 719
f 720 718 717
f 718 721 719
f 718 720 721
