# ROS coordinates: X forward, Y left, Z up; units are metres.
o mesh
v 0.124553628 -0.007 0.17963244
v 0.124553628 -0.009500001 0.17963244
v 0.124514133 -0.009500001 0.179454029
v 0.124511078 -0.008250001 0.179427117
v 0.124514133 -0.007 0.179454029
v 0.124508426 -0.009500001 0.179260448
v 0.124508426 -0.007 0.179260448
v 0.124513894 -0.008250001 0.179203659
v 0.124542281 -0.009500001 0.179061577
v 0.124542281 -0.007 0.179061577
v 0.124569476 -0.008250001 0.178977758
v 0.124617308 -0.009500001 0.178869739
v 0.124617308 -0.007 0.178869739
v 0.124677561 -0.008250001 0.178768113
v 0.124730065 -0.009500001 0.178697333
v 0.124730065 -0.007 0.178697333
v 0.124829344 -0.008250001 0.178591788
v 0.124872416 -0.009500001 0.178554386
v 0.124872416 -0.007 0.178554386
v 0.12500973 -0.008250001 0.178459883
v 0.125033423 -0.009500001 0.17844674
v 0.125201657 -0.008250001 0.178375453
v 0.125033423 -0.007 0.17844674
v 0.125201657 -0.009500001 0.178375453
v 0.125201657 -0.007 0.178375453
v 0.125380069 -0.009500001 0.178335935
v 0.125380069 -0.007 0.178335935
v 0.125407 -0.008250001 0.1783329
v 0.125573665 -0.009500001 0.178330243
v 0.125573665 -0.007 0.178330243
v 0.125573665 -0.008250001 0.178330243
v 0.125744238 -0.008250001 0.1783567
v 0.125772521 -0.009500001 0.178364083
v 0.125772521 -0.007 0.178364083
v 0.125911027 -0.008250001 0.1784136
v 0.125964373 -0.009500001 0.17843914
v 0.125964373 -0.007 0.17843914
v 0.126066 -0.008250001 0.178499371
v 0.12613678 -0.009500001 0.178551883
v 0.12613678 -0.007 0.178551883
v 0.126202092 -0.008250001 0.178609863
v 0.126279712 -0.009500001 0.178694248
v 0.126279712 -0.007 0.178694248
v 0.1263142 -0.008250001 0.178738832
v 0.126387358 -0.009500001 0.178855225
v 0.126387358 -0.007 0.178855225
v 0.126399741 -0.008250001 0.178879067
v 0.126458675 -0.009500001 0.17902346
v 0.126458675 -0.007 0.17902346
v 0.126498178 -0.009500001 0.179201886
v 0.126501217 -0.008250001 0.179228783
v 0.126498178 -0.007 0.179201886
v 0.12650387 -0.009500001 0.179395467
v 0.12650387 -0.007 0.179395467
v 0.126498386 -0.008250001 0.17945227
v 0.126470014 -0.009500001 0.179594323
v 0.126470014 -0.007 0.179594323
v 0.12644282 -0.008250001 0.179678172
v 0.126394987 -0.009500001 0.179786175
v 0.126394987 -0.007 0.179786175
v 0.126334742 -0.008250001 0.179887831
v 0.12628223 -0.009500001 0.179958612
v 0.12628223 -0.007 0.179958612
v 0.126182944 -0.008250001 0.180064127
v 0.126139864 -0.009500001 0.180101529
v 0.126139864 -0.007 0.180101529
v 0.126002565 -0.008250001 0.180196032
v 0.125978872 -0.009500001 0.18020916
v 0.125810623 -0.008250001 0.180280477
v 0.125978872 -0.007 0.18020916
v 0.125810623 -0.009500001 0.180280477
v 0.125810623 -0.007 0.180280477
v 0.125632226 -0.009500001 0.180319965
v 0.125632226 -0.007 0.180319965
v 0.1256053 -0.008250001 0.180323
v 0.125438631 -0.009500001 0.180325672
v 0.125438631 -0.007 0.180325672
v 0.125438631 -0.008250001 0.180325672
v 0.125268057 -0.008250001 0.1802992
v 0.125239775 -0.009500001 0.180291831
v 0.125239775 -0.007 0.180291831
v 0.125101268 -0.008250001 0.18024233
v 0.125047922 -0.009500001 0.1802168
v 0.125047922 -0.007 0.1802168
v 0.124946296 -0.008250001 0.180156544
v 0.124875516 -0.009500001 0.180104047
v 0.124875516 -0.007 0.180104047
v 0.124810204 -0.008250001 0.180046052
v 0.124732584 -0.009500001 0.179961681
v 0.124732584 -0.007 0.179961681
v 0.1246981 -0.008250001 0.179917082
v 0.124624938 -0.009500001 0.179800674
v 0.124624938 -0.007 0.179800674
v 0.124612555 -0.008250001 0.179776832
v 0.124553628 -0.009500001 0.17963244
v 0.124553628 -0.007 0.17963244
v 0.151224121 -0.007 0.17110689
v 0.151224121 -0.009500001 0.17110689
v 0.151184618 -0.009500001 0.170928463
v 0.151181564 -0.008250001 0.170901552
v 0.151184618 -0.007 0.170928463
v 0.151178911 -0.009500001 0.170734882
v 0.151178911 -0.007 0.170734882
v 0.15118438 -0.008250001 0.170678079
v 0.151212767 -0.009500001 0.170536011
v 0.151212767 -0.007 0.170536011
v 0.151239961 -0.008250001 0.170452178
v 0.1512878 -0.009500001 0.170344144
v 0.1512878 -0.007 0.170344144
v 0.151348054 -0.008250001 0.170242518
v 0.151400551 -0.009500001 0.170171738
v 0.151400551 -0.007 0.170171738
v 0.151499838 -0.008250001 0.170066223
v 0.1515429 -0.009500001 0.170028821
v 0.1515429 -0.007 0.170028821
v 0.151680216 -0.008250001 0.1699343
v 0.151703909 -0.009500001 0.16992119
v 0.151872158 -0.008250001 0.169849858
v 0.151703909 -0.007 0.16992119
v 0.151872158 -0.009500001 0.169849858
v 0.151872158 -0.007 0.169849858
v 0.15205057 -0.009500001 0.169810355
v 0.15205057 -0.007 0.169810355
v 0.152077466 -0.008250001 0.1698073
v 0.152244151 -0.009500001 0.169804677
v 0.152244151 -0.007 0.169804677
v 0.152244151 -0.008250001 0.169804677
v 0.152414724 -0.008250001 0.169831142
v 0.152443 -0.009500001 0.169838518
v 0.152443 -0.007 0.169838518
v 0.152581513 -0.008250001 0.169888
v 0.152634859 -0.009500001 0.169913545
v 0.152634859 -0.007 0.169913545
v 0.152736485 -0.008250001 0.1699738
v 0.152807266 -0.009500001 0.1700263
v 0.152807266 -0.007 0.1700263
v 0.152872577 -0.008250001 0.1700843
v 0.1529502 -0.009500001 0.170168653
v 0.1529502 -0.007 0.170168653
v 0.152984679 -0.008250001 0.170213267
v 0.153057843 -0.009500001 0.17032966
v 0.153057843 -0.007 0.17032966
v 0.153070226 -0.008250001 0.170353517
v 0.153129146 -0.009500001 0.1704979
v 0.153129146 -0.007 0.1704979
v 0.153168648 -0.009500001 0.170676321
v 0.1531717 -0.008250001 0.170703232
v 0.153168648 -0.007 0.170676321
v 0.153174356 -0.009500001 0.1708699
v 0.153174356 -0.007 0.1708699
v 0.153168872 -0.008250001 0.17092669
v 0.1531405 -0.009500001 0.171068773
v 0.1531405 -0.007 0.171068773
v 0.1531133 -0.008250001 0.171152592
v 0.153065473 -0.009500001 0.17126061
v 0.153065473 -0.007 0.17126061
v 0.153005227 -0.008250001 0.171362236
v 0.152952716 -0.009500001 0.171433017
v 0.152952716 -0.007 0.171433017
v 0.152853444 -0.008250001 0.171538562
v 0.15281035 -0.009500001 0.171575963
v 0.15281035 -0.007 0.171575963
v 0.152673066 -0.008250001 0.171670467
v 0.152649358 -0.009500001 0.1716836
v 0.152481109 -0.008250001 0.1717549
v 0.152649358 -0.007 0.1716836
v 0.152481109 -0.009500001 0.1717549
v 0.152481109 -0.007 0.1717549
v 0.152302712 -0.009500001 0.171794415
v 0.152302712 -0.007 0.171794415
v 0.152275786 -0.008250001 0.171797454
v 0.152109131 -0.009500001 0.1718001
v 0.152109131 -0.007 0.1718001
v 0.152109131 -0.008250001 0.1718001
v 0.151938543 -0.008250001 0.171773642
v 0.151910245 -0.009500001 0.171766251
v 0.151910245 -0.007 0.171766251
v 0.151771754 -0.008250001 0.17171675
v 0.151718408 -0.009500001 0.171691209
v 0.151718408 -0.007 0.171691209
v 0.151616782 -0.008250001 0.171630979
v 0.151546 -0.009500001 0.171578467
v 0.151546 -0.007 0.171578467
v 0.151480675 -0.008250001 0.171520486
v 0.151403069 -0.009500001 0.1714361
v 0.151403069 -0.007 0.1714361
v 0.151368588 -0.008250001 0.1713915
v 0.151295424 -0.009500001 0.171275109
v 0.151295424 -0.007 0.171275109
v 0.151283041 -0.008250001 0.171251267
v 0.151224121 -0.009500001 0.17110689
v 0.151224121 -0.007 0.17110689
v 0.13122125 0.00460000057 0.177501023
v 0.13122125 0.000100000005 0.177501023
v 0.131399512 0.000100000005 0.177921653
v 0.131432354 0.0023500002 0.177980885
v 0.131399512 0.00460000057 0.177921653
v 0.131668642 0.000100000005 0.178324133
v 0.131668642 0.00460000057 0.178324133
v 0.131762147 0.0023500002 0.178431854
v 0.132025957 0.000100000005 0.178680032
v 0.132025957 0.00460000057 0.178680032
v 0.132202908 0.0023500002 0.178811312
v 0.132456988 0.000100000005 0.178961918
v 0.132456988 0.00460000057 0.178961918
v 0.132727027 0.0023500002 0.179081529
v 0.132936612 0.000100000005 0.179149508
v 0.132936612 0.00460000057 0.179149508
v 0.1332918 0.0023500002 0.179220453
v 0.133433774 0.000100000005 0.179234132
v 0.133433774 0.00460000057 0.179234132
v 0.13385044 0.0023500002 0.179227516
v 0.133917749 0.000100000005 0.179219872
v 0.134363756 0.0023500002 0.179121122
v 0.133917749 0.00460000057 0.179219872
v 0.134363756 0.000100000005 0.179121122
v 0.134363756 0.00460000057 0.179121122
v 0.134784356 0.000100000005 0.178942859
v 0.134784356 0.00460000057 0.178942859
v 0.1348436 0.0023500002 0.178910032
v 0.135186851 0.000100000005 0.178673729
v 0.135186851 0.00460000057 0.178673729
v 0.135186851 0.0023500002 0.178673729
v 0.135495842 0.0023500002 0.178372443
v 0.135542735 0.000100000005 0.178316414
v 0.135542735 0.00460000057 0.178316414
v 0.135753021 0.0023500002 0.178014785
v 0.135824636 0.000100000005 0.177885413
v 0.135824636 0.00460000057 0.177885413
v 0.135944232 0.0023500002 0.177615345
v 0.136012226 0.000100000005 0.177405775
v 0.136012226 0.00460000057 0.177405775
v 0.136061132 0.0023500002 0.177192986
v 0.13609685 0.000100000005 0.176908612
v 0.13609685 0.00460000057 0.176908612
v 0.1361024 0.0023500002 0.176767766
v 0.1360826 0.000100000005 0.176424652
v 0.1360826 0.00460000057 0.176424652
v 0.136073232 0.0023500002 0.176358134
v 0.13598384 0.000100000005 0.175978631
v 0.13598384 0.00460000057 0.175978631
v 0.135805577 0.000100000005 0.175558031
v 0.13577275 0.0023500002 0.175498784
v 0.135805577 0.00460000057 0.175558031
v 0.135536447 0.000100000005 0.175155535
v 0.135536447 0.00460000057 0.175155535
v 0.135442942 0.0023500002 0.17504783
v 0.135179132 0.000100000005 0.174799636
v 0.135179132 0.00460000057 0.174799636
v 0.135002181 0.0023500002 0.174668357
v 0.1347481 0.000100000005 0.174517766
v 0.1347481 0.00460000057 0.174517766
v 0.134478062 0.0023500002 0.174398154
v 0.134268478 0.000100000005 0.174330175
v 0.134268478 0.00460000057 0.174330175
v 0.1339133 0.0023500002 0.17425923
v 0.133771315 0.000100000005 0.174245536
v 0.133771315 0.00460000057 0.174245536
v 0.133354649 0.0023500002 0.174252152
v 0.13328734 0.000100000005 0.174259782
v 0.132841334 0.0023500002 0.174358547
v 0.13328734 0.00460000057 0.174259782
v 0.132841334 0.000100000005 0.174358547
v 0.132841334 0.00460000057 0.174358547
v 0.132420734 0.000100000005 0.174536824
v 0.132420734 0.00460000057 0.174536824
v 0.132361487 0.0023500002 0.174569637
v 0.132018238 0.000100000005 0.174805939
v 0.132018238 0.00460000057 0.174805939
v 0.132018238 0.0023500002 0.174805939
v 0.131709248 0.0023500002 0.175107211
v 0.131662354 0.000100000005 0.175163239
v 0.131662354 0.00460000057 0.175163239
v 0.131452069 0.0023500002 0.1754649
v 0.131380454 0.000100000005 0.175594255
v 0.131380454 0.00460000057 0.175594255
v 0.131260872 0.0023500002 0.175864324
v 0.131192863 0.000100000005 0.176073909
v 0.131192863 0.00460000057 0.176073909
v 0.131143957 0.0023500002 0.176286682
v 0.131108254 0.000100000005 0.176571041
v 0.131108254 0.00460000057 0.176571041
v 0.1311027 0.0023500002 0.1767119
v 0.131122485 0.000100000005 0.177055016
v 0.131122485 0.00460000057 0.177055016
v 0.131131858 0.0023500002 0.17712155
v 0.13122125 0.000100000005 0.177501023
v 0.13122125 0.00460000057 0.177501023
v 0.127887443 0.000100000005 0.178566739
v 0.127887443 -0.0054 0.178566739
v 0.128315285 -0.0054 0.179576188
v 0.128394067 -0.00265000015 0.1797184
v 0.128315285 0.000100000005 0.179576188
v 0.128961191 -0.0054 0.180542171
v 0.128961191 0.000100000005 0.180542171
v 0.129185587 -0.00265000015 0.180800676
v 0.129818738 -0.0054 0.1813963
v 0.129818738 0.000100000005 0.1813963
v 0.130243421 -0.00265000015 0.181711376
v 0.130853176 -0.0054 0.182072833
v 0.130853176 0.000100000005 0.182072833
v 0.1315013 -0.00265000015 0.182359874
v 0.132004291 -0.0054 0.182523057
v 0.132004291 0.000100000005 0.182523057
v 0.132856756 -0.00265000015 0.1826933
v 0.133197486 -0.0054 0.182726145
v 0.133197486 0.000100000005 0.182726145
v 0.134197488 -0.00265000015 0.182710275
v 0.134359017 -0.0054 0.182691962
v 0.135429457 -0.00265000015 0.182454944
v 0.134359017 0.000100000005 0.182691962
v 0.135429457 -0.0054 0.182454944
v 0.135429457 0.000100000005 0.182454944
v 0.136438891 -0.0054 0.1820271
v 0.136438891 0.000100000005 0.1820271
v 0.136581078 -0.00265000015 0.181948319
v 0.137404874 -0.0054 0.1813812
v 0.137404874 0.000100000005 0.1813812
v 0.137404874 -0.00265000015 0.1813812
v 0.13814646 -0.00265000015 0.1806581
v 0.138259023 -0.0054 0.180523664
v 0.138259023 0.000100000005 0.180523664
v 0.138763666 -0.00265000015 0.1797997
v 0.138935551 -0.0054 0.1794892
v 0.138935551 0.000100000005 0.1794892
v 0.139222577 -0.00265000015 0.178841084
v 0.13938576 -0.0054 0.178338081
v 0.13938576 0.000100000005 0.178338081
v 0.139503166 -0.00265000015 0.177827388
v 0.139588863 -0.0054 0.177144885
v 0.139588863 0.000100000005 0.177144885
v 0.139602169 -0.00265000015 0.176806837
v 0.139554679 -0.0054 0.175983369
v 0.139554679 0.000100000005 0.175983369
v 0.139532208 -0.00265000015 0.175823733
v 0.139317647 -0.0054 0.174912944
v 0.139317647 0.000100000005 0.174912944
v 0.1388898 -0.0054 0.1739035
v 0.138811037 -0.00265000015 0.173761308
v 0.1388898 0.000100000005 0.1739035
v 0.138243914 -0.0054 0.1729375
v 0.138243914 0.000100000005 0.1729375
v 0.1380195 -0.00265000015 0.172678992
v 0.137386352 -0.0054 0.172083363
v 0.137386352 0.000100000005 0.172083363
v 0.136961669 -0.00265000015 0.1717683
v 0.136351913 -0.0054 0.171406835
v 0.136351913 0.000100000005 0.171406835
v 0.135703787 -0.00265000015 0.1711198
v 0.1352008 -0.0054 0.170956627
v 0.1352008 0.000100000005 0.170956627
v 0.134348333 -0.00265000015 0.170786366
v 0.1340076 -0.0054 0.170753524
v 0.1340076 0.000100000005 0.170753524
v 0.1330076 -0.00265000015 0.170769408
v 0.132846072 -0.0054 0.1707877
v 0.131775647 -0.00265000015 0.171024725
v 0.132846072 0.000100000005 0.1707877
v 0.131775647 -0.0054 0.171024725
v 0.131775647 0.000100000005 0.171024725
v 0.1307662 -0.0054 0.171452582
v 0.1307662 0.000100000005 0.171452582
v 0.130624011 -0.00265000015 0.171531364
v 0.129800215 -0.0054 0.172098458
v 0.129800215 0.000100000005 0.172098458
v 0.129800215 -0.00265000015 0.172098458
v 0.129058629 -0.00265000015 0.172821566
v 0.128946066 -0.0054 0.172956
v 0.128946066 0.000100000005 0.172956
v 0.128441423 -0.00265000015 0.173679963
v 0.128269523 -0.0054 0.173990458
v 0.128269523 0.000100000005 0.173990458
v 0.127982512 -0.00265000015 0.174638614
v 0.127819315 -0.0054 0.1751416
v 0.127819315 0.000100000005 0.1751416
v 0.127701923 -0.00265000015 0.1756523
v 0.127616227 -0.0054 0.176334769
v 0.127616227 0.000100000005 0.176334769
v 0.12760292 -0.00265000015 0.176672816
v 0.12765041 -0.0054 0.1774963
v 0.12765041 0.000100000005 0.1774963
v 0.1276729 -0.00265000015 0.177655935
v 0.127887443 -0.0054 0.178566739
v 0.127887443 0.000100000005 0.178566739
v 0.15254052 -0.009500001 0.164386958
v 0.147968426 -0.009500001 0.1658485
v 0.15254052 -0.007 0.164386958
v 0.147968426 -0.007 0.1658485
v 0.131775647 -0.0054 0.171024725
v 0.147968426 -0.0054 0.1658485
v 0.137014478 -0.0167 0.169350058
v 0.147968426 -0.028 0.1658485
v 0.126060531 -0.028 0.172851652
v 0.126060531 -0.009500001 0.172851652
v 0.126060531 -0.007 0.172851652
v 0.126060531 -0.0054 0.172851652
v 0.121488452 -0.009500001 0.174313173
v 0.121488452 -0.007 0.174313173
v 0.156194329 -0.009500001 0.175817177
v 0.156194329 -0.007 0.175817177
v 0.151622251 -0.009500001 0.1772787
v 0.151622251 -0.007 0.1772787
v 0.135429457 -0.0054 0.182454944
v 0.151622251 -0.0054 0.1772787
v 0.140668288 -0.0167 0.180780277
v 0.151622251 -0.028 0.1772787
v 0.129714355 -0.028 0.184281856
v 0.129714355 -0.009500001 0.184281856
v 0.129714355 -0.007 0.184281856
v 0.129714355 -0.0054 0.184281856
v 0.125142261 -0.009500001 0.185743392
v 0.125142261 -0.007 0.185743392
v 0.151622251 -0.009500001 0.1772787
v 0.151295424 -0.009500001 0.171275109
v 0.151403069 -0.009500001 0.1714361
v 0.151546 -0.009500001 0.171578467
v 0.151718408 -0.009500001 0.171691209
v 0.151910245 -0.009500001 0.171766251
v 0.152109131 -0.009500001 0.1718001
v 0.152302712 -0.009500001 0.171794415
v 0.151224121 -0.009500001 0.17110689
v 0.152481109 -0.009500001 0.1717549
v 0.147968426 -0.009500001 0.1658485
v 0.151184618 -0.009500001 0.170928463
v 0.151178911 -0.009500001 0.170734882
v 0.156194329 -0.009500001 0.175817177
v 0.152649358 -0.009500001 0.1716836
v 0.15281035 -0.009500001 0.171575963
v 0.151212767 -0.009500001 0.170536011
v 0.152952716 -0.009500001 0.171433017
v 0.1512878 -0.009500001 0.170344144
v 0.153065473 -0.009500001 0.17126061
v 0.151400551 -0.009500001 0.170171738
v 0.1531405 -0.009500001 0.171068773
v 0.1515429 -0.009500001 0.170028821
v 0.151703909 -0.009500001 0.16992119
v 0.151872158 -0.009500001 0.169849858
v 0.15254052 -0.009500001 0.164386958
v 0.15205057 -0.009500001 0.169810355
v 0.152244151 -0.009500001 0.169804677
v 0.153174356 -0.009500001 0.1708699
v 0.153168648 -0.009500001 0.170676321
v 0.153129146 -0.009500001 0.1704979
v 0.152443 -0.009500001 0.169838518
v 0.153057843 -0.009500001 0.17032966
v 0.152634859 -0.009500001 0.169913545
v 0.1529502 -0.009500001 0.170168653
v 0.152807266 -0.009500001 0.1700263
v 0.154367417 -0.008250001 0.17010206
v 0.15254052 -0.007 0.164386958
v 0.156194329 -0.007 0.175817177
v 0.156194329 -0.009500001 0.175817177
v 0.15254052 -0.009500001 0.164386958
v 0.147968426 -0.007 0.1658485
v 0.151184618 -0.007 0.170928463
v 0.151178911 -0.007 0.170734882
v 0.151212767 -0.007 0.170536011
v 0.1512878 -0.007 0.170344144
v 0.151400551 -0.007 0.170171738
v 0.1515429 -0.007 0.170028821
v 0.151703909 -0.007 0.16992119
v 0.151224121 -0.007 0.17110689
v 0.151872158 -0.007 0.169849858
v 0.151622251 -0.007 0.1772787
v 0.151295424 -0.007 0.171275109
v 0.151403069 -0.007 0.1714361
v 0.15254052 -0.007 0.164386958
v 0.15205057 -0.007 0.169810355
v 0.152244151 -0.007 0.169804677
v 0.151546 -0.007 0.171578467
v 0.152443 -0.007 0.169838518
v 0.151718408 -0.007 0.171691209
v 0.152634859 -0.007 0.169913545
v 0.151910245 -0.007 0.171766251
v 0.152807266 -0.007 0.1700263
v 0.152109131 -0.007 0.1718001
v 0.152302712 -0.007 0.171794415
v 0.152481109 -0.007 0.1717549
v 0.156194329 -0.007 0.175817177
v 0.152649358 -0.007 0.1716836
v 0.15281035 -0.007 0.171575963
v 0.1529502 -0.007 0.170168653
v 0.153057843 -0.007 0.17032966
v 0.153129146 -0.007 0.1704979
v 0.152952716 -0.007 0.171433017
v 0.153168648 -0.007 0.170676321
v 0.153065473 -0.007 0.17126061
v 0.153174356 -0.007 0.1708699
v 0.1531405 -0.007 0.171068773
v 0.149795339 -0.0062 0.1715636
v 0.147968426 -0.0054 0.1658485
v 0.151622251 -0.0054 0.1772787
v 0.151622251 -0.007 0.1772787
v 0.147968426 -0.007 0.1658485
v 0.126060531 -0.007 0.172851652
v 0.127887443 -0.0062 0.178566739
v 0.126060531 -0.0054 0.172851652
v 0.129714355 -0.007 0.184281856
v 0.127887443 -0.0054 0.178566739
v 0.129714355 -0.0054 0.184281856
v 0.121488452 -0.007 0.174313173
v 0.124514133 -0.007 0.179454029
v 0.124508426 -0.007 0.179260448
v 0.124542281 -0.007 0.179061577
v 0.124617308 -0.007 0.178869739
v 0.124730065 -0.007 0.178697333
v 0.124872416 -0.007 0.178554386
v 0.125033423 -0.007 0.17844674
v 0.124553628 -0.007 0.17963244
v 0.125201657 -0.007 0.178375453
v 0.125142261 -0.007 0.185743392
v 0.124624938 -0.007 0.179800674
v 0.124732584 -0.007 0.179961681
v 0.126060531 -0.007 0.172851652
v 0.125380069 -0.007 0.178335935
v 0.125573665 -0.007 0.178330243
v 0.124875516 -0.007 0.180104047
v 0.125772521 -0.007 0.178364083
v 0.125047922 -0.007 0.1802168
v 0.125964373 -0.007 0.17843914
v 0.125239775 -0.007 0.180291831
v 0.12613678 -0.007 0.178551883
v 0.125438631 -0.007 0.180325672
v 0.125632226 -0.007 0.180319965
v 0.125810623 -0.007 0.180280477
v 0.129714355 -0.007 0.184281856
v 0.125978872 -0.007 0.18020916
v 0.126139864 -0.007 0.180101529
v 0.126279712 -0.007 0.178694248
v 0.126387358 -0.007 0.178855225
v 0.126458675 -0.007 0.17902346
v 0.12628223 -0.007 0.179958612
v 0.126498178 -0.007 0.179201886
v 0.126394987 -0.007 0.179786175
v 0.12650387 -0.007 0.179395467
v 0.126470014 -0.007 0.179594323
v 0.123315364 -0.008250001 0.18002826
v 0.121488452 -0.009500001 0.174313173
v 0.125142261 -0.009500001 0.185743392
v 0.125142261 -0.007 0.185743392
v 0.121488452 -0.007 0.174313173
v 0.125142261 -0.009500001 0.185743392
v 0.124624938 -0.009500001 0.179800674
v 0.124732584 -0.009500001 0.179961681
v 0.124875516 -0.009500001 0.180104047
v 0.125047922 -0.009500001 0.1802168
v 0.125239775 -0.009500001 0.180291831
v 0.125438631 -0.009500001 0.180325672
v 0.125632226 -0.009500001 0.180319965
v 0.124553628 -0.009500001 0.17963244
v 0.125810623 -0.009500001 0.180280477
v 0.121488452 -0.009500001 0.174313173
v 0.124514133 -0.009500001 0.179454029
v 0.124508426 -0.009500001 0.179260448
v 0.129714355 -0.009500001 0.184281856
v 0.125978872 -0.009500001 0.18020916
v 0.126139864 -0.009500001 0.180101529
v 0.124542281 -0.009500001 0.179061577
v 0.12628223 -0.009500001 0.179958612
v 0.124617308 -0.009500001 0.178869739
v 0.126394987 -0.009500001 0.179786175
v 0.124730065 -0.009500001 0.178697333
v 0.126470014 -0.009500001 0.179594323
v 0.124872416 -0.009500001 0.178554386
v 0.125033423 -0.009500001 0.17844674
v 0.125201657 -0.009500001 0.178375453
v 0.126060531 -0.009500001 0.172851652
v 0.125380069 -0.009500001 0.178335935
v 0.125573665 -0.009500001 0.178330243
v 0.12650387 -0.009500001 0.179395467
v 0.126498178 -0.009500001 0.179201886
v 0.126458675 -0.009500001 0.17902346
v 0.125772521 -0.009500001 0.178364083
v 0.126387358 -0.009500001 0.178855225
v 0.125964373 -0.009500001 0.17843914
v 0.126279712 -0.009500001 0.178694248
v 0.12613678 -0.009500001 0.178551883
v 0.127887443 -0.01875 0.178566739
v 0.126060531 -0.028 0.172851652
v 0.129714355 -0.028 0.184281856
v 0.129714355 -0.009500001 0.184281856
v 0.126060531 -0.009500001 0.172851652
v 0.138841391 -0.028 0.17506516
v 0.147968426 -0.028 0.1658485
v 0.151622251 -0.028 0.1772787
v 0.129714355 -0.028 0.184281856
v 0.126060531 -0.028 0.172851652
v 0.127616227 -0.0054 0.176334769
v 0.126060531 -0.0054 0.172851652
v 0.12765041 -0.0054 0.1774963
v 0.127819315 -0.0054 0.1751416
v 0.127887443 -0.0054 0.178566739
v 0.128269523 -0.0054 0.173990458
v 0.128946066 -0.0054 0.172956
v 0.129800215 -0.0054 0.172098458
v 0.1307662 -0.0054 0.171452582
v 0.131775647 -0.0054 0.171024725
v 0.129714355 -0.0054 0.184281856
v 0.128315285 -0.0054 0.179576188
v 0.128961191 -0.0054 0.180542171
v 0.129818738 -0.0054 0.1813963
v 0.130853176 -0.0054 0.182072833
v 0.132004291 -0.0054 0.182523057
v 0.133197486 -0.0054 0.182726145
v 0.134359017 -0.0054 0.182691962
v 0.135429457 -0.0054 0.182454944
v 0.132846072 -0.0054 0.1707877
v 0.147968426 -0.0054 0.1658485
v 0.1340076 -0.0054 0.170753524
v 0.1352008 -0.0054 0.170956627
v 0.136351913 -0.0054 0.171406835
v 0.137386352 -0.0054 0.172083363
v 0.138243914 -0.0054 0.1729375
v 0.141698942 -0.0054 0.174151719
v 0.151622251 -0.0054 0.1772787
v 0.136438891 -0.0054 0.1820271
v 0.1388898 -0.0054 0.1739035
v 0.137404874 -0.0054 0.1813812
v 0.139317647 -0.0054 0.174912944
v 0.139554679 -0.0054 0.175983369
v 0.139588863 -0.0054 0.177144885
v 0.138259023 -0.0054 0.180523664
v 0.13938576 -0.0054 0.178338081
v 0.138935551 -0.0054 0.1794892
v 0.134363756 0.000100000005 0.179121122
v 0.135429457 0.000100000005 0.182454944
v 0.136438891 0.000100000005 0.1820271
v 0.134359017 0.000100000005 0.182691962
v 0.134784356 0.000100000005 0.178942859
v 0.133917749 0.000100000005 0.179219872
v 0.137404874 0.000100000005 0.1813812
v 0.133197486 0.000100000005 0.182726145
v 0.135186851 0.000100000005 0.178673729
v 0.133433774 0.000100000005 0.179234132
v 0.138259023 0.000100000005 0.180523664
v 0.132004291 0.000100000005 0.182523057
v 0.135542735 0.000100000005 0.178316414
v 0.132936612 0.000100000005 0.179149508
v 0.138935551 0.000100000005 0.1794892
v 0.130853176 0.000100000005 0.182072833
v 0.135824636 0.000100000005 0.177885413
v 0.132456988 0.000100000005 0.178961918
v 0.13938576 0.000100000005 0.178338081
v 0.129818738 0.000100000005 0.1813963
v 0.136012226 0.000100000005 0.177405775
v 0.132025957 0.000100000005 0.178680032
v 0.139588863 0.000100000005 0.177144885
v 0.128961191 0.000100000005 0.180542171
v 0.13609685 0.000100000005 0.176908612
v 0.131668642 0.000100000005 0.178324133
v 0.139554679 0.000100000005 0.175983369
v 0.128315285 0.000100000005 0.179576188
v 0.1360826 0.000100000005 0.176424652
v 0.131399512 0.000100000005 0.177921653
v 0.139317647 0.000100000005 0.174912944
v 0.13598384 0.000100000005 0.175978631
v 0.127887443 0.000100000005 0.178566739
v 0.13122125 0.000100000005 0.177501023
v 0.131122485 0.000100000005 0.177055016
v 0.12765041 0.000100000005 0.1774963
v 0.131108254 0.000100000005 0.176571041
v 0.127616227 0.000100000005 0.176334769
v 0.131192863 0.000100000005 0.176073909
v 0.127819315 0.000100000005 0.1751416
v 0.131380454 0.000100000005 0.175594255
v 0.128269523 0.000100000005 0.173990458
v 0.131662354 0.000100000005 0.175163239
v 0.128946066 0.000100000005 0.172956
v 0.132018238 0.000100000005 0.174805939
v 0.129800215 0.000100000005 0.172098458
v 0.132420734 0.000100000005 0.174536824
v 0.1307662 0.000100000005 0.171452582
v 0.131775647 0.000100000005 0.171024725
v 0.132841334 0.000100000005 0.174358547
v 0.132846072 0.000100000005 0.1707877
v 0.13328734 0.000100000005 0.174259782
v 0.1340076 0.000100000005 0.170753524
v 0.133771315 0.000100000005 0.174245536
v 0.1352008 0.000100000005 0.170956627
v 0.134268478 0.000100000005 0.174330175
v 0.136351913 0.000100000005 0.171406835
v 0.1347481 0.000100000005 0.174517766
v 0.137386352 0.000100000005 0.172083363
v 0.135179132 0.000100000005 0.174799636
v 0.138243914 0.000100000005 0.1729375
v 0.135536447 0.000100000005 0.175155535
v 0.1388898 0.000100000005 0.1739035
v 0.135805577 0.000100000005 0.175558031
v 0.132025957 0.00460000057 0.178680032
v 0.133602545 0.00460000057 0.176739842
v 0.131668642 0.00460000057 0.178324133
v 0.132456988 0.00460000057 0.178961918
v 0.131399512 0.00460000057 0.177921653
v 0.132936612 0.00460000057 0.179149508
v 0.13122125 0.00460000057 0.177501023
v 0.133433774 0.00460000057 0.179234132
v 0.131122485 0.00460000057 0.177055016
v 0.133917749 0.00460000057 0.179219872
v 0.131108254 0.00460000057 0.176571041
v 0.134363756 0.00460000057 0.179121122
v 0.131192863 0.00460000057 0.176073909
v 0.134784356 0.00460000057 0.178942859
v 0.131380454 0.00460000057 0.175594255
v 0.135186851 0.00460000057 0.178673729
v 0.131662354 0.00460000057 0.175163239
v 0.135542735 0.00460000057 0.178316414
v 0.132018238 0.00460000057 0.174805939
v 0.135824636 0.00460000057 0.177885413
v 0.132420734 0.00460000057 0.174536824
v 0.136012226 0.00460000057 0.177405775
v 0.132841334 0.00460000057 0.174358547
v 0.13609685 0.00460000057 0.176908612
v 0.13328734 0.00460000057 0.174259782
v 0.1360826 0.00460000057 0.176424652
v 0.133771315 0.00460000057 0.174245536
v 0.13598384 0.00460000057 0.175978631
v 0.134268478 0.00460000057 0.174330175
v 0.135805577 0.00460000057 0.175558031
v 0.1347481 0.00460000057 0.174517766
v 0.135536447 0.00460000057 0.175155535
v 0.135179132 0.00460000057 0.174799636
v 0.147968426 -0.028 0.1658485
v 0.149795339 -0.01875 0.1715636
v 0.151622251 -0.028 0.1772787
v 0.147968426 -0.009500001 0.1658485
v 0.151622251 -0.009500001 0.1772787
f 1 2 3
f 1 3 4
f 5 1 4
f 4 3 6
f 7 5 4
f 8 4 6
f 7 4 8
f 8 6 9
f 10 7 8
f 11 8 9
f 10 8 11
f 11 9 12
f 13 10 11
f 14 11 12
f 13 11 14
f 14 12 15
f 16 13 14
f 17 14 15
f 16 14 17
f 17 15 18
f 19 16 17
f 20 17 18
f 19 17 20
f 20 18 21
f 22 20 21
f 23 19 20
f 23 20 22
f 22 21 24
f 25 23 22
f 26 22 24
f 27 25 22
f 28 22 26
f 27 22 28
f 29 28 26
f 30 27 28
f 31 28 29
f 31 30 28
f 32 31 29
f 31 32 30
f 32 29 33
f 32 34 30
f 35 32 33
f 32 35 34
f 35 33 36
f 35 37 34
f 38 35 36
f 35 38 37
f 38 36 39
f 38 40 37
f 41 38 39
f 38 41 40
f 41 39 42
f 41 43 40
f 44 41 42
f 41 44 43
f 44 42 45
f 44 46 43
f 47 44 45
f 44 47 46
f 47 45 48
f 46 47 49
f 47 48 49
f 48 50 49
f 50 51 49
f 49 51 52
f 50 53 51
f 51 54 52
f 53 55 51
f 51 55 54
f 53 56 55
f 55 57 54
f 56 58 55
f 55 58 57
f 56 59 58
f 58 60 57
f 59 61 58
f 58 61 60
f 59 62 61
f 61 63 60
f 62 64 61
f 61 64 63
f 62 65 64
f 64 66 63
f 65 67 64
f 64 67 66
f 65 68 67
f 68 69 67
f 67 70 66
f 67 69 70
f 68 71 69
f 69 72 70
f 71 73 69
f 69 74 72
f 73 75 69
f 69 75 74
f 73 76 75
f 75 77 74
f 76 78 75
f 75 78 77
f 76 79 78
f 79 77 78
f 80 79 76
f 79 81 77
f 82 79 80
f 79 82 81
f 83 82 80
f 82 84 81
f 85 82 83
f 82 85 84
f 86 85 83
f 85 87 84
f 88 85 86
f 85 88 87
f 89 88 86
f 88 90 87
f 91 88 89
f 88 91 90
f 92 91 89
f 91 93 90
f 94 91 92
f 91 94 93
f 95 94 92
f 94 96 93
f 94 95 96
f 97 98 99
f 97 99 100
f 101 97 100
f 100 99 102
f 103 101 100
f 104 100 102
f 103 100 104
f 104 102 105
f 106 103 104
f 107 104 105
f 106 104 107
f 107 105 108
f 109 106 107
f 110 107 108
f 109 107 110
f 110 108 111
f 112 109 110
f 113 110 111
f 112 110 113
f 113 111 114
f 115 112 113
f 116 113 114
f 115 113 116
f 116 114 117
f 118 116 117
f 119 115 116
f 119 116 118
f 118 117 120
f 121 119 118
f 122 118 120
f 123 121 118
f 124 118 122
f 123 118 124
f 125 124 122
f 126 123 124
f 127 124 125
f 127 126 124
f 128 127 125
f 127 128 126
f 128 125 129
f 128 130 126
f 131 128 129
f 128 131 130
f 131 129 132
f 131 133 130
f 134 131 132
f 131 134 133
f 134 132 135
f 134 136 133
f 137 134 135
f 134 137 136
f 137 135 138
f 137 139 136
f 140 137 138
f 137 140 139
f 140 138 141
f 140 142 139
f 143 140 141
f 140 143 142
f 143 141 144
f 142 143 145
f 143 144 145
f 144 146 145
f 146 147 145
f 145 147 148
f 146 149 147
f 147 150 148
f 149 151 147
f 147 151 150
f 149 152 151
f 151 153 150
f 152 154 151
f 151 154 153
f 152 155 154
f 154 156 153
f 155 157 154
f 154 157 156
f 155 158 157
f 157 159 156
f 158 160 157
f 157 160 159
f 158 161 160
f 160 162 159
f 161 163 160
f 160 163 162
f 161 164 163
f 164 165 163
f 163 166 162
f 163 165 166
f 164 167 165
f 165 168 166
f 167 169 165
f 165 170 168
f 169 171 165
f 165 171 170
f 169 172 171
f 171 173 170
f 172 174 171
f 171 174 173
f 172 175 174
f 175 173 174
f 176 175 172
f 175 177 173
f 178 175 176
f 175 178 177
f 179 178 176
f 178 180 177
f 181 178 179
f 178 181 180
f 182 181 179
f 181 183 180
f 184 181 182
f 181 184 183
f 185 184 182
f 184 186 183
f 187 184 185
f 184 187 186
f 188 187 185
f 187 189 186
f 190 187 188
f 187 190 189
f 191 190 188
f 190 192 189
f 190 191 192
f 193 194 195
f 193 195 196
f 197 193 196
f 196 195 198
f 199 197 196
f 200 196 198
f 199 196 200
f 200 198 201
f 202 199 200
f 203 200 201
f 202 200 203
f 203 201 204
f 205 202 203
f 206 203 204
f 205 203 206
f 206 204 207
f 208 205 206
f 209 206 207
f 208 206 209
f 209 207 210
f 211 208 209
f 212 209 210
f 211 209 212
f 212 210 213
f 214 212 213
f 215 211 212
f 215 212 214
f 214 213 216
f 217 215 214
f 218 214 216
f 219 217 214
f 220 214 218
f 219 214 220
f 221 220 218
f 222 219 220
f 223 220 221
f 223 222 220
f 224 223 221
f 223 224 222
f 224 221 225
f 224 226 222
f 227 224 225
f 224 227 226
f 227 225 228
f 227 229 226
f 230 227 228
f 227 230 229
f 230 228 231
f 230 232 229
f 233 230 231
f 230 233 232
f 233 231 234
f 233 235 232
f 236 233 234
f 233 236 235
f 236 234 237
f 236 238 235
f 239 236 237
f 236 239 238
f 239 237 240
f 238 239 241
f 239 240 241
f 240 242 241
f 242 243 241
f 241 243 244
f 242 245 243
f 243 246 244
f 245 247 243
f 243 247 246
f 245 248 247
f 247 249 246
f 248 250 247
f 247 250 249
f 248 251 250
f 250 252 249
f 251 253 250
f 250 253 252
f 251 254 253
f 253 255 252
f 254 256 253
f 253 256 255
f 254 257 256
f 256 258 255
f 257 259 256
f 256 259 258
f 257 260 259
f 260 261 259
f 259 262 258
f 259 261 262
f 260 263 261
f 261 264 262
f 263 265 261
f 261 266 264
f 265 267 261
f 261 267 266
f 265 268 267
f 267 269 266
f 268 270 267
f 267 270 269
f 268 271 270
f 271 269 270
f 272 271 268
f 271 273 269
f 274 271 272
f 271 274 273
f 275 274 272
f 274 276 273
f 277 274 275
f 274 277 276
f 278 277 275
f 277 279 276
f 280 277 278
f 277 280 279
f 281 280 278
f 280 282 279
f 283 280 281
f 280 283 282
f 284 283 281
f 283 285 282
f 286 283 284
f 283 286 285
f 287 286 284
f 286 288 285
f 286 287 288
f 289 290 291
f 289 291 292
f 293 289 292
f 292 291 294
f 295 293 292
f 296 292 294
f 295 292 296
f 296 294 297
f 298 295 296
f 299 296 297
f 298 296 299
f 299 297 300
f 301 298 299
f 302 299 300
f 301 299 302
f 302 300 303
f 304 301 302
f 305 302 303
f 304 302 305
f 305 303 306
f 307 304 305
f 308 305 306
f 307 305 308
f 308 306 309
f 310 308 309
f 311 307 308
f 311 308 310
f 310 309 312
f 313 311 310
f 314 310 312
f 315 313 310
f 316 310 314
f 315 310 316
f 317 316 314
f 318 315 316
f 319 316 317
f 319 318 316
f 320 319 317
f 319 320 318
f 320 317 321
f 320 322 318
f 323 320 321
f 320 323 322
f 323 321 324
f 323 325 322
f 326 323 324
f 323 326 325
f 326 324 327
f 326 328 325
f 329 326 327
f 326 329 328
f 329 327 330
f 329 331 328
f 332 329 330
f 329 332 331
f 332 330 333
f 332 334 331
f 335 332 333
f 332 335 334
f 335 333 336
f 334 335 337
f 335 336 337
f 336 338 337
f 338 339 337
f 337 339 340
f 338 341 339
f 339 342 340
f 341 343 339
f 339 343 342
f 341 344 343
f 343 345 342
f 344 346 343
f 343 346 345
f 344 347 346
f 346 348 345
f 347 349 346
f 346 349 348
f 347 350 349
f 349 351 348
f 350 352 349
f 349 352 351
f 350 353 352
f 352 354 351
f 353 355 352
f 352 355 354
f 353 356 355
f 356 357 355
f 355 358 354
f 355 357 358
f 356 359 357
f 357 360 358
f 359 361 357
f 357 362 360
f 361 363 357
f 357 363 362
f 361 364 363
f 363 365 362
f 364 366 363
f 363 366 365
f 364 367 366
f 367 365 366
f 368 367 364
f 367 369 365
f 370 367 368
f 367 370 369
f 371 370 368
f 370 372 369
f 373 370 371
f 370 373 372
f 374 373 371
f 373 375 372
f 376 373 374
f 373 376 375
f 377 376 374
f 376 378 375
f 379 376 377
f 376 379 378
f 380 379 377
f 379 381 378
f 382 379 380
f 379 382 381
f 383 382 380
f 382 384 381
f 382 383 384
f 385 386 387
f 386 388 387
f 386 389 388
f 389 390 388
f 391 389 386
f 392 391 386
f 391 392 393
f 391 393 394
f 389 391 394
f 389 394 395
f 396 389 395
f 395 394 397
f 398 395 397
f 399 400 401
f 400 402 401
f 402 403 401
f 402 404 403
f 403 405 401
f 405 406 401
f 405 407 406
f 407 405 408
f 405 403 408
f 403 409 408
f 409 403 410
f 409 411 408
f 409 412 411
f 413 414 415
f 416 413 415
f 413 416 417
f 413 417 418
f 419 413 418
f 413 419 420
f 413 421 414
f 413 420 422
f 413 423 421
f 423 424 421
f 423 425 424
f 426 413 422
f 426 422 427
f 426 427 428
f 425 423 429
f 430 426 428
f 423 431 429
f 426 430 432
f 423 433 431
f 426 432 434
f 433 423 435
f 423 436 435
f 423 437 436
f 423 438 437
f 438 439 437
f 438 440 439
f 441 426 434
f 426 441 442
f 426 442 443
f 438 426 443
f 440 438 444
f 438 443 445
f 438 446 444
f 438 445 447
f 438 448 446
f 448 438 447
f 449 450 451
f 449 451 452
f 450 449 453
f 453 449 452
f 454 455 456
f 457 454 456
f 454 457 458
f 454 458 459
f 460 454 459
f 454 460 461
f 454 462 455
f 454 461 463
f 454 464 462
f 464 465 462
f 464 466 465
f 467 454 463
f 467 463 468
f 467 468 469
f 466 464 470
f 471 467 469
f 464 472 470
f 467 471 473
f 464 474 472
f 467 473 475
f 474 464 476
f 464 477 476
f 464 478 477
f 464 479 478
f 479 480 478
f 479 481 480
f 482 467 475
f 467 482 483
f 467 483 484
f 479 467 484
f 481 479 485
f 479 484 486
f 479 487 485
f 479 486 488
f 479 489 487
f 489 479 488
f 490 491 492
f 490 492 493
f 491 490 494
f 494 490 493
f 495 496 497
f 496 495 498
f 496 499 497
f 496 498 500
f 499 496 500
f 501 502 503
f 504 501 503
f 501 504 505
f 501 505 506
f 507 501 506
f 501 507 508
f 501 509 502
f 501 508 510
f 501 511 509
f 511 512 509
f 511 513 512
f 514 501 510
f 514 510 515
f 514 515 516
f 513 511 517
f 518 514 516
f 511 519 517
f 514 518 520
f 511 521 519
f 514 520 522
f 521 511 523
f 511 524 523
f 511 525 524
f 511 526 525
f 526 527 525
f 526 528 527
f 529 514 522
f 514 529 530
f 514 530 531
f 526 514 531
f 528 526 532
f 526 531 533
f 526 534 532
f 526 533 535
f 526 536 534
f 536 526 535
f 537 538 539
f 537 539 540
f 538 537 541
f 541 537 540
f 542 543 544
f 545 542 544
f 542 545 546
f 542 546 547
f 548 542 547
f 542 548 549
f 542 550 543
f 542 549 551
f 542 552 550
f 552 553 550
f 552 554 553
f 555 542 551
f 555 551 556
f 555 556 557
f 554 552 558
f 559 555 557
f 552 560 558
f 555 559 561
f 552 562 560
f 555 561 563
f 562 552 564
f 552 565 564
f 552 566 565
f 552 567 566
f 567 568 566
f 567 569 568
f 570 555 563
f 555 570 571
f 555 571 572
f 567 555 572
f 569 567 573
f 567 572 574
f 567 575 573
f 567 574 576
f 567 577 575
f 577 567 576
f 578 579 580
f 578 580 581
f 579 578 582
f 582 578 581
f 583 584 585
f 583 585 586
f 584 583 587
f 587 583 586
f 588 589 590
f 589 588 591
f 589 592 590
f 589 591 593
f 594 589 593
f 589 594 595
f 589 595 596
f 597 589 596
f 592 598 599
f 598 600 599
f 598 601 600
f 601 598 602
f 598 603 602
f 598 604 603
f 604 598 605
f 598 606 605
f 607 608 597
f 608 607 609
f 608 609 610
f 611 608 610
f 608 611 612
f 608 612 613
f 614 608 613
f 608 614 615
f 606 615 616
f 614 613 617
f 615 618 616
f 619 614 617
f 614 619 620
f 614 620 621
f 615 614 621
f 615 622 618
f 615 621 623
f 622 615 624
f 615 623 624
f 625 626 627
f 625 628 626
f 629 625 627
f 625 630 628
f 629 627 631
f 630 632 628
f 633 629 631
f 630 634 632
f 633 631 635
f 634 636 632
f 637 633 635
f 634 638 636
f 637 635 639
f 638 640 636
f 641 637 639
f 638 642 640
f 641 639 643
f 642 644 640
f 645 641 643
f 642 646 644
f 645 643 647
f 646 648 644
f 649 645 647
f 646 650 648
f 649 647 651
f 650 652 648
f 653 649 651
f 650 654 652
f 653 651 655
f 656 653 655
f 654 657 652
f 657 654 658
f 657 658 659
f 660 657 659
f 659 661 660
f 661 662 660
f 661 663 662
f 663 664 662
f 663 665 664
f 665 666 664
f 665 667 666
f 667 668 666
f 667 669 668
f 669 670 668
f 669 671 670
f 671 672 670
f 671 673 672
f 671 674 673
f 674 675 673
f 674 676 675
f 676 677 675
f 676 678 677
f 678 679 677
f 678 680 679
f 680 681 679
f 680 682 681
f 682 683 681
f 682 684 683
f 684 685 683
f 684 686 685
f 686 687 685
f 686 688 687
f 688 656 687
f 656 655 687
f 689 690 691
f 690 689 692
f 690 693 691
f 690 692 694
f 693 690 695
f 696 690 694
f 690 697 695
f 690 696 698
f 690 699 697
f 690 698 700
f 699 690 701
f 702 690 700
f 690 703 701
f 690 702 704
f 690 705 703
f 690 704 706
f 705 690 707
f 708 690 706
f 690 709 707
f 690 708 710
f 690 711 709
f 690 710 712
f 711 690 713
f 714 690 712
f 690 715 713
f 690 714 716
f 690 717 715
f 690 716 718
f 717 690 719
f 720 690 718
f 690 721 719
f 690 720 721
f 722 723 724
f 725 723 722
f 723 726 724
f 723 725 726
