# ROS coordinates: X forward, Y left, Z up; units are metres.
o mesh
v -0.07616138 -0.0592692569 0.071
v -0.07594518 -0.0590093769 0.071
v -0.07651493 -0.0589157 0.0705
v -0.0761271 -0.0588316731 0.0707500055
v -0.07635717 -0.0587260649 0.0705
v -0.0757717043 -0.0586958826 0.071
v -0.07623057 -0.05849729 0.0705
v -0.07596728 -0.058511816 0.0707500055
v -0.07565878 -0.05834019 0.071
v -0.07614817 -0.0582377352 0.0705
v -0.07588069 -0.0581498 0.0707500055
v -0.0756195262 -0.0579611026 0.071
v -0.07611953 -0.0579611063 0.0705
v -0.07588069 -0.0577724129 0.0707500055
v -0.07565878 -0.05758202 0.071
v -0.07614817 -0.05768448 0.0705
v -0.07596728 -0.0574103966 0.0707500055
v -0.0757717043 -0.05722633 0.071
v -0.07623057 -0.0574249178 0.0705
v -0.0761271 -0.05709054 0.0707500055
v -0.07594518 -0.056912832 0.071
v -0.07633816 -0.0568297356 0.0707500055
v -0.07635716 -0.05719615 0.0705
v -0.07616138 -0.05665296 0.071
v -0.07651493 -0.05700651 0.0705
v -0.07642125 -0.0564367622 0.071
v -0.07670457 -0.0568487458 0.0705
v -0.07659896 -0.0566186756 0.0707500055
v -0.07673475 -0.0562632829 0.071
v -0.077096045 -0.0564053059 0.0707500055
v -0.07693334 -0.0567221567 0.0705
v -0.07709044 -0.05615036 0.071
v -0.0771929 -0.0566397458 0.0705
v -0.07746953 -0.0561111048 0.071
v -0.07746953 -0.0566111058 0.0705
v -0.07765822 -0.05637227 0.0707500055
v -0.07784861 -0.0561503619 0.071
v -0.0781867653 -0.05653087 0.0707500055
v -0.07774615 -0.05663975 0.0705
v -0.078204304 -0.0562632829 0.071
v -0.0780057162 -0.0567221567 0.0705
v -0.0785177946 -0.0564367659 0.071
v -0.07823448 -0.05684875 0.0705
v -0.07877768 -0.0566529557 0.071
v -0.07842412 -0.05700651 0.0705
v -0.0761613846 -0.0592692569 0.0129999891
v -0.07642126 -0.0594854467 0.0129999891
v -0.07651494 -0.0589157 0.0134999976
v -0.0765989646 -0.0593035333 0.0132499933
v -0.07670458 -0.0590734631 0.0134999976
v -0.07673475 -0.05965893 0.0129999891
v -0.07693335 -0.0592000522 0.0134999976
v -0.0769188255 -0.0594633445 0.0132499933
v -0.07709044 -0.05977185 0.0129999891
v -0.0771929 -0.059282463 0.0134999976
v -0.0772808343 -0.0595499426 0.0132499933
v -0.07746953 -0.0598111041 0.0129999891
v -0.07746953 -0.0593111068 0.0134999976
v -0.07765823 -0.0595499426 0.0132499933
v -0.07784861 -0.05977185 0.0129999891
v -0.07774616 -0.0592824668 0.0134999976
v -0.0780202448 -0.0594633445 0.0132499933
v -0.078204304 -0.05965893 0.0129999891
v -0.07800572 -0.0592000559 0.0134999976
v -0.0783401 -0.0593035333 0.0132499933
v -0.0785178 -0.05948545 0.0129999891
v -0.0786009 -0.059092477 0.0132499933
v -0.07823448 -0.0590734668 0.0134999976
v -0.0787776858 -0.0592692532 0.0129999891
v -0.0784241259 -0.0589157 0.0134999976
v -0.07899387 -0.05900938 0.0129999891
v -0.0785818845 -0.05872606 0.0134999976
v -0.0788119659 -0.05883167 0.0132499933
v -0.07916735 -0.0586958826 0.0129999891
v -0.0790253356 -0.05833458 0.0132499933
v -0.0787084848 -0.0584972948 0.0134999976
v -0.07928028 -0.0583401881 0.0129999891
v -0.07879089 -0.05823773 0.0134999976
v -0.07931953 -0.0579611063 0.0129999891
v -0.07881953 -0.0579611063 0.0134999976
v -0.07905837 -0.0577724129 0.0132499933
v -0.07928027 -0.05758202 0.0129999891
v -0.07889976 -0.05724387 0.0132499933
v -0.07879089 -0.0576844774 0.0134999976
v -0.07916735 -0.05722633 0.0129999891
v -0.0787084848 -0.0574249178 0.0134999976
v -0.07899387 -0.0569128357 0.0129999891
v -0.07858189 -0.0571961477 0.0134999976
v -0.0787776858 -0.0566529557 0.0129999891
v -0.0784241259 -0.05700651 0.0134999976
v -0.08100507 -0.0544255748 0.0134999976
v -0.0806515142 -0.0547791235 0.0129999891
v -0.08117739 -0.0554112457 0.0129999891
v -0.08145487 -0.0553766079 0.0132499933
v -0.08158937 -0.0551279336 0.0134999976
v -0.08159937 -0.0561738 0.0129999891
v -0.08205824 -0.05597522 0.0134999976
v -0.0819292963 -0.05632619 0.0132499933
v -0.08187404 -0.05703902 0.0129999891
v -0.0823634341 -0.05693656 0.0134999976
v -0.082186386 -0.05740092 0.0132499933
v -0.08196953 -0.0579611063 0.0129999891
v -0.08246952 -0.05796111 0.0134999976
v -0.082186386 -0.05852129 0.0132499933
v -0.08187405 -0.0588832 0.0129999891
v -0.08236344 -0.0589856468 0.0134999976
v -0.0819293 -0.0595960245 0.0132499933
v -0.08159937 -0.0597484037 0.0129999891
v -0.08205824 -0.05994699 0.0134999976
v -0.08145487 -0.0605456 0.0132499933
v -0.08117739 -0.0605109632 0.0129999891
v -0.0808282942 -0.0613198653 0.0132499933
v -0.08158938 -0.06079428 0.0134999976
v -0.08065151 -0.0611430854 0.0129999891
v -0.08100507 -0.06149664 0.0134999976
v -0.0800193846 -0.06166897 0.0129999891
v -0.0803027 -0.06208095 0.0134999976
v -0.08005403 -0.0619464442 0.0132499933
v -0.0792568251 -0.0620909445 0.0129999891
v -0.07945542 -0.0625498146 0.0134999976
v -0.07935612 -0.06232038 0.0132499933
v -0.07857829 -0.0625798851 0.0132499933
v -0.07839163 -0.0623656176 0.0129999891
v -0.07849408 -0.0628550053 0.0134999976
v -0.07775036 -0.0627028 0.0132499933
v -0.07746953 -0.062461108 0.0129999891
v -0.07746953 -0.0629611 0.0134999976
v -0.07690935 -0.06267795 0.0132499933
v -0.07654744 -0.06236562 0.0129999891
v -0.07644498 -0.0628550053 0.0134999976
v -0.07609426 -0.06250766 0.0132499933
v -0.07568223 -0.06209094 0.0129999891
v -0.07548365 -0.0625498146 0.0134999976
v -0.0753402337 -0.062207114 0.0132499933
v -0.07491967 -0.061668966 0.0129999891
v -0.074636355 -0.06208095 0.0134999976
v -0.07467384 -0.0618012361 0.0132499933
v -0.073934 -0.0614966378 0.0134999976
v -0.07428755 -0.0611430854 0.0129999891
v -0.07376167 -0.06051096 0.0129999891
v -0.073934 -0.0614966378 0.0134999976
v -0.0734842 -0.0605456047 0.0132499933
v -0.0733496845 -0.06079428 0.0134999976
v -0.07333969 -0.0597484037 0.0129999891
v -0.07288082 -0.0599469878 0.0134999976
v -0.07300976 -0.0595960245 0.0132499933
v -0.07306501 -0.0588831976 0.0129999891
v -0.07257563 -0.0589856543 0.0134999976
v -0.0727526844 -0.05852129 0.0132499933
v -0.0729695261 -0.0579611063 0.0129999891
v -0.07246953 -0.0579611026 0.0134999976
v -0.0727526844 -0.05740092 0.0132499933
v -0.07306502 -0.05703901 0.0129999891
v -0.07257563 -0.05693656 0.0134999976
v -0.07300976 -0.05632619 0.0132499933
v -0.0733396858 -0.0561738051 0.0129999891
v -0.07288082 -0.0559752174 0.0134999976
v -0.0734842 -0.05537661 0.0132499933
v -0.07376167 -0.05541125 0.0129999891
v -0.0741107762 -0.0546023473 0.0132499933
v -0.0733496845 -0.0551279336 0.0134999976
v -0.07428755 -0.0547791272 0.0129999891
v -0.0739339963 -0.05442557 0.0134999976
v -0.07491967 -0.0542532429 0.0129999891
v -0.07463636 -0.0538412631 0.0134999976
v -0.07488504 -0.05397577 0.0132499933
v -0.07568224 -0.0538312644 0.0129999891
v -0.07548365 -0.053372398 0.0134999976
v -0.0755829439 -0.05360183 0.0132499933
v -0.07636077 -0.0533423238 0.0132499933
v -0.0765474439 -0.053556595 0.0129999891
v -0.07644499 -0.0530671962 0.0134999976
v -0.0771887 -0.0532194152 0.0132499933
v -0.07746953 -0.0534611046 0.0129999891
v -0.07746953 -0.0529611073 0.0134999976
v -0.07802972 -0.0532442555 0.0132499933
v -0.07839163 -0.053556595 0.0129999891
v -0.07849408 -0.0530672036 0.0134999976
v -0.0788448 -0.0534145534 0.0132499933
v -0.07925683 -0.0538312644 0.0129999891
v -0.07945542 -0.053372398 0.0134999976
v -0.07959883 -0.0537150949 0.0132499933
v -0.0800193846 -0.05425324 0.0129999891
v -0.0803027 -0.0538412631 0.0134999976
v -0.080265224 -0.0541209728 0.0132499933
v -0.0806515142 -0.0547791235 0.0129999891
v -0.08100507 -0.0544255748 0.0134999976
v -0.08100507 -0.0544255748 0.0134999976
v -0.08100505 -0.0544255748 0.0705
v -0.0803027 -0.0538412631 0.0705
v -0.08019005 -0.0537660159 0.042
v -0.0803027 -0.0538412631 0.0134999976
v -0.0794554055 -0.053372398 0.0705
v -0.07945542 -0.053372398 0.0134999976
v -0.07919049 -0.0532666147 0.042
v -0.07849407 -0.0530672036 0.0705
v -0.07849408 -0.0530672036 0.0134999976
v -0.0780592039 -0.0529959947 0.042
v -0.07746953 -0.0529611073 0.0705
v -0.07746953 -0.0529611073 0.0134999976
v -0.07687986 -0.0529959947 0.042
v -0.07644498 -0.0530671962 0.0705
v -0.07644499 -0.0530671962 0.0134999976
v -0.07574856 -0.05326661 0.042
v -0.0754836351 -0.053372398 0.0705
v -0.07548365 -0.053372398 0.0134999976
v -0.07474901 -0.05376602 0.042
v -0.074636355 -0.0538412631 0.0705
v -0.07393399 -0.05442557 0.042
v -0.07463636 -0.0538412631 0.0134999976
v -0.07393399 -0.05442557 0.0705
v -0.0739339963 -0.05442557 0.0134999976
v -0.0733496845 -0.0551279336 0.0705
v -0.0733496845 -0.0551279336 0.0134999976
v -0.07327444 -0.05524058 0.042
v -0.07288082 -0.0559752174 0.0705
v -0.07288082 -0.0559752174 0.0134999976
v -0.07288082 -0.0559752174 0.042
v -0.07260765 -0.056793984 0.042
v -0.0725756139 -0.05693656 0.0705
v -0.07257563 -0.05693656 0.0134999976
v -0.07247827 -0.0576654933 0.042
v -0.07246953 -0.0579611026 0.0705
v -0.07246953 -0.0579611026 0.0134999976
v -0.0725044161 -0.05855078 0.042
v -0.07257562 -0.0589856543 0.0705
v -0.07257563 -0.0589856543 0.0134999976
v -0.0726836845 -0.05940876 0.042
v -0.07288082 -0.0599469878 0.0705
v -0.07288082 -0.0599469878 0.0134999976
v -0.07300004 -0.06020247 0.042
v -0.0733496845 -0.06079428 0.0705
v -0.0733496845 -0.06079428 0.0134999976
v -0.07342729 -0.0609039329 0.042
v -0.07393399 -0.0614966378 0.0705
v -0.073934 -0.0614966378 0.0134999976
v -0.074636355 -0.06208095 0.0705
v -0.07474901 -0.062156193 0.042
v -0.074636355 -0.06208095 0.0134999976
v -0.0754836351 -0.0625498146 0.0705
v -0.07548365 -0.0625498146 0.0134999976
v -0.07574856 -0.0626556 0.042
v -0.07644498 -0.0628550053 0.0705
v -0.07644498 -0.0628550053 0.0134999976
v -0.07687986 -0.06292622 0.042
v -0.07746953 -0.0629611 0.0705
v -0.07746953 -0.0629611 0.0134999976
v -0.0780592 -0.06292621 0.042
v -0.07849407 -0.0628550053 0.0705
v -0.07849408 -0.0628550053 0.0134999976
v -0.0791905 -0.0626556 0.042
v -0.07945541 -0.0625498146 0.0705
v -0.07945542 -0.0625498146 0.0134999976
v -0.08019005 -0.062156193 0.042
v -0.0803027 -0.06208095 0.0705
v -0.08100507 -0.06149664 0.042
v -0.0803027 -0.06208095 0.0134999976
v -0.08100506 -0.06149664 0.0705
v -0.08100507 -0.06149664 0.0134999976
v -0.08158937 -0.06079428 0.0705
v -0.08158938 -0.06079428 0.0134999976
v -0.0816646144 -0.0606816262 0.042
v -0.082058236 -0.05994699 0.0705
v -0.08205824 -0.05994699 0.0134999976
v -0.082058236 -0.05994699 0.042
v -0.0823314041 -0.05912823 0.042
v -0.0823634341 -0.0589856468 0.0705
v -0.08236344 -0.0589856468 0.0134999976
v -0.08246078 -0.05825672 0.042
v -0.08246952 -0.05796111 0.0705
v -0.08246952 -0.05796111 0.0134999976
v -0.08243464 -0.05737143 0.042
v -0.08236343 -0.05693656 0.0705
v -0.0823634341 -0.05693656 0.0134999976
v -0.08225537 -0.05651345 0.042
v -0.082058236 -0.05597522 0.0705
v -0.08205824 -0.05597522 0.0134999976
v -0.08193901 -0.055719737 0.042
v -0.08158937 -0.0551279336 0.0705
v -0.08158937 -0.0551279336 0.0134999976
v -0.08151177 -0.05501828 0.042
v -0.08100505 -0.0544255748 0.0705
v -0.08100507 -0.0544255748 0.0134999976
v -0.07651494 -0.0589157 0.0134999976
v -0.07635717 -0.0587260649 0.0134999976
v -0.0761613846 -0.0592692569 0.0129999891
v -0.0760393 -0.05867834 0.0132499933
v -0.0762305856 -0.05849729 0.0134999976
v -0.0759452 -0.0590093769 0.0129999891
v -0.0757717043 -0.0586958826 0.0129999891
v -0.07614818 -0.0582377352 0.0134999976
v -0.07565878 -0.05834019 0.0129999891
v -0.07588069 -0.0581498 0.0132499933
v -0.07611953 -0.0579611063 0.0134999976
v -0.0759137347 -0.0575876273 0.0132499933
v -0.07561953 -0.0579611026 0.0129999891
v -0.0761481747 -0.05768448 0.0134999976
v -0.07565878 -0.05758202 0.0129999891
v -0.0762305856 -0.0574249178 0.0134999976
v -0.0757717043 -0.05722633 0.0129999891
v -0.0761271 -0.05709054 0.0132499933
v -0.07635717 -0.05719615 0.0134999976
v -0.07633816 -0.0568297356 0.0132499933
v -0.07594518 -0.056912832 0.0129999816
v -0.07651494 -0.05700651 0.0134999976
v -0.0761613846 -0.05665296 0.0129999891
v -0.07670458 -0.0568487458 0.0134999976
v -0.07642126 -0.0564367622 0.0129999816
v -0.07659897 -0.0566186756 0.0132499933
v -0.07693334 -0.0567221567 0.0134999976
v -0.07673475 -0.0562632829 0.0129999891
v -0.0769188255 -0.0564588681 0.0132499933
v -0.0771929 -0.0566397458 0.0134999976
v -0.07709045 -0.05615036 0.0129999891
v -0.0772808343 -0.05637227 0.0132499933
v -0.07746953 -0.0566111058 0.0134999976
v -0.07746953 -0.0561111048 0.0129999891
v -0.07765823 -0.05637227 0.0132499933
v -0.07774616 -0.05663975 0.0134999976
v -0.07784861 -0.0561503619 0.0129999891
v -0.0780202448 -0.0564588681 0.0132499933
v -0.0780057162 -0.0567221567 0.0134999976
v -0.078204304 -0.0562632829 0.0129999891
v -0.0783401 -0.05661868 0.0132499933
v -0.0782344937 -0.05684875 0.0134999976
v -0.07851781 -0.0564367659 0.0129999891
v -0.0784241259 -0.05700651 0.0134999976
v -0.0787776858 -0.0566529557 0.0129999891
v -0.07842412 -0.05700651 0.0705
v -0.0784241259 -0.05700651 0.0134999976
v -0.0782344937 -0.05684875 0.0134999976
v -0.0782040656 -0.0568284281 0.042
v -0.07823448 -0.05684875 0.0705
v -0.0780057162 -0.0567221567 0.0134999976
v -0.0780057162 -0.0567221567 0.0705
v -0.07793419 -0.0566935949 0.042
v -0.07774616 -0.05663975 0.0134999976
v -0.07774615 -0.05663975 0.0705
v -0.07762873 -0.0566205271 0.042
v -0.07746953 -0.0566111058 0.0134999976
v -0.07746953 -0.0566111058 0.0705
v -0.0773103163 -0.05662053 0.042
v -0.0771929 -0.0566397458 0.0134999976
v -0.0771929 -0.0566397458 0.0705
v -0.0770048648 -0.0566935875 0.042
v -0.07693334 -0.0567221567 0.0134999976
v -0.07693334 -0.0567221567 0.0705
v -0.07673499 -0.05682843 0.042
v -0.07670458 -0.0568487458 0.0134999976
v -0.07651493 -0.05700651 0.042
v -0.07670457 -0.0568487458 0.0705
v -0.07651494 -0.05700651 0.0134999976
v -0.07651493 -0.05700651 0.0705
v -0.07635717 -0.05719615 0.0134999976
v -0.07635716 -0.05719615 0.0705
v -0.07633686 -0.0572265647 0.042
v -0.0762305856 -0.0574249178 0.0134999976
v -0.07623057 -0.0574249178 0.0705
v -0.07623058 -0.0574249178 0.042
v -0.0761568248 -0.057645984 0.042
v -0.0761481747 -0.05768448 0.0134999976
v -0.07614817 -0.05768448 0.0705
v -0.0761219 -0.057881292 0.042
v -0.07611953 -0.0579611063 0.0134999976
v -0.07611953 -0.0579611063 0.0705
v -0.0761289448 -0.058120314 0.042
v -0.07614818 -0.0582377352 0.0134999976
v -0.07614817 -0.0582377352 0.0705
v -0.07617735 -0.05835197 0.042
v -0.0762305856 -0.05849729 0.0134999976
v -0.07623057 -0.05849729 0.0705
v -0.07626277 -0.058566276 0.042
v -0.07635717 -0.0587260649 0.0134999976
v -0.07635717 -0.0587260649 0.0705
v -0.07637812 -0.0587556772 0.042
v -0.07651494 -0.0589157 0.0134999976
v -0.07651493 -0.0589157 0.0705
v -0.07670458 -0.0590734631 0.0134999976
v -0.07673499 -0.0590937771 0.042
v -0.07670457 -0.0590734631 0.0705
v -0.07693335 -0.0592000522 0.0134999976
v -0.07693334 -0.0592000522 0.0705
v -0.0770048648 -0.0592286177 0.042
v -0.0771929 -0.059282463 0.0134999976
v -0.0771929 -0.059282463 0.0705
v -0.07731032 -0.0593016855 0.042
v -0.07746953 -0.0593111068 0.0134999976
v -0.07746953 -0.0593111068 0.0705
v -0.07762874 -0.05930168 0.042
v -0.07774616 -0.0592824668 0.0134999976
v -0.07774615 -0.0592824668 0.0705
v -0.07793419 -0.0592286251 0.042
v -0.07800572 -0.0592000559 0.0134999976
v -0.0780057162 -0.0592000559 0.0705
v -0.0782040656 -0.0590937771 0.042
v -0.07823448 -0.0590734668 0.0134999976
v -0.0784241259 -0.0589157 0.042
v -0.07823448 -0.0590734668 0.0705
v -0.0784241259 -0.0589157 0.0134999976
v -0.07842412 -0.0589157 0.0705
v -0.0785818845 -0.05872606 0.0134999976
v -0.0785818845 -0.05872606 0.0705
v -0.0786022 -0.0586956441 0.042
v -0.0787084848 -0.0584972948 0.0134999976
v -0.07870848 -0.0584972948 0.0705
v -0.07870848 -0.0584972948 0.042
v -0.07878224 -0.05827623 0.042
v -0.07879089 -0.05823773 0.0134999976
v -0.07879088 -0.05823773 0.0705
v -0.07881717 -0.0580409132 0.042
v -0.07881953 -0.0579611063 0.0134999976
v -0.07881953 -0.0579611063 0.0705
v -0.07881011 -0.0578019 0.042
v -0.07879089 -0.0576844774 0.0134999976
v -0.07879088 -0.0576844774 0.0705
v -0.0787617043 -0.05757024 0.042
v -0.0787084848 -0.0574249178 0.0134999976
v -0.07870847 -0.0574249178 0.0705
v -0.07867628 -0.0573559366 0.042
v -0.07858189 -0.0571961477 0.0134999976
v -0.0785818845 -0.0571961477 0.0705
v -0.07856093 -0.0571665354 0.042
v -0.0784241259 -0.05700651 0.0134999976
v -0.07842412 -0.05700651 0.0705
v -0.08100505 -0.0544255748 0.0705
v -0.08065151 -0.0547791235 0.071
v -0.0800193846 -0.05425324 0.071
v -0.08005402 -0.0539757721 0.0707500055
v -0.0803027 -0.0538412631 0.0705
v -0.07925683 -0.0538312644 0.071
v -0.0794554055 -0.053372398 0.0705
v -0.07910444 -0.0535013378 0.0707500055
v -0.07839162 -0.053556595 0.071
v -0.07849407 -0.0530672036 0.0705
v -0.07802971 -0.0532442555 0.0707500055
v -0.07746953 -0.0534611046 0.071
v -0.07746953 -0.0529611073 0.0705
v -0.07690934 -0.05324425 0.0707500055
v -0.07654743 -0.053556595 0.071
v -0.07644498 -0.0530671962 0.0705
v -0.0758346 -0.0535013378 0.0707500055
v -0.07568223 -0.0538312644 0.071
v -0.0754836351 -0.053372398 0.0705
v -0.07488503 -0.05397577 0.0707500055
v -0.07491967 -0.0542532429 0.071
v -0.07411077 -0.0546023473 0.0707500055
v -0.074636355 -0.0538412631 0.0705
v -0.07428755 -0.0547791272 0.071
v -0.07393399 -0.05442557 0.0705
v -0.0737616643 -0.05541125 0.071
v -0.0733496845 -0.0551279336 0.0705
v -0.0734842 -0.05537661 0.0707500055
v -0.0733396858 -0.0561738051 0.071
v -0.07288082 -0.0559752174 0.0705
v -0.07311025 -0.056074515 0.0707500055
v -0.07285074 -0.0568523444 0.0707500055
v -0.07306501 -0.05703901 0.071
v -0.0725756139 -0.05693656 0.0705
v -0.07272783 -0.05768028 0.0707500055
v -0.0729695261 -0.0579611063 0.071
v -0.07246953 -0.0579611026 0.0705
v -0.07275268 -0.05852129 0.0707500055
v -0.07306501 -0.0588831976 0.071
v -0.07257562 -0.0589856543 0.0705
v -0.0729229748 -0.05933638 0.0707500055
v -0.0733396858 -0.0597484037 0.071
v -0.07288082 -0.0599469878 0.0705
v -0.07322352 -0.060090404 0.0707500055
v -0.07376167 -0.06051096 0.071
v -0.0733496845 -0.06079428 0.0705
v -0.0736293942 -0.06075679 0.0707500055
v -0.07428755 -0.0611430854 0.071
v -0.07393399 -0.0614966378 0.0705
v -0.07491967 -0.061668966 0.071
v -0.0748850256 -0.06194644 0.0707500055
v -0.074636355 -0.06208095 0.0705
v -0.07568222 -0.06209094 0.071
v -0.0754836351 -0.0625498146 0.0705
v -0.0758346 -0.0624208748 0.0707500055
v -0.07654743 -0.06236562 0.071
v -0.07644498 -0.0628550053 0.0705
v -0.07690935 -0.06267795 0.0707500055
v -0.07746953 -0.062461108 0.071
v -0.07746953 -0.0629611 0.0705
v -0.07802971 -0.06267796 0.0707500055
v -0.07839163 -0.0623656176 0.071
v -0.07849407 -0.0628550053 0.0705
v -0.0791044459 -0.0624208748 0.0707500055
v -0.07925682 -0.0620909445 0.071
v -0.07945541 -0.0625498146 0.0705
v -0.08005402 -0.0619464442 0.0707500055
v -0.0800193846 -0.06166897 0.071
v -0.08082828 -0.0613198653 0.0707500055
v -0.0803027 -0.06208095 0.0705
v -0.08065151 -0.0611430854 0.071
v -0.08100506 -0.06149664 0.0705
v -0.08117738 -0.0605109632 0.071
v -0.08158937 -0.06079428 0.0705
v -0.08145486 -0.0605456 0.0707500055
v -0.08159937 -0.0597484037 0.071
v -0.082058236 -0.05994699 0.0705
v -0.0818288 -0.0598476976 0.0707500055
v -0.08208831 -0.05906987 0.0707500055
v -0.08187404 -0.0588832 0.071
v -0.0823634341 -0.0589856468 0.0705
v -0.08221122 -0.0582419336 0.0707500055
v -0.08196953 -0.0579611063 0.071
v -0.08246952 -0.05796111 0.0705
v -0.08218638 -0.05740092 0.0707500055
v -0.08187404 -0.05703902 0.071
v -0.08236343 -0.05693656 0.0705
v -0.08201608 -0.0565858334 0.0707500055
v -0.08159937 -0.0561738 0.071
v -0.082058236 -0.05597522 0.0705
v -0.08171554 -0.0558318049 0.0707500055
v -0.08117738 -0.0554112457 0.071
v -0.08158937 -0.0551279336 0.0705
v -0.08130966 -0.0551654175 0.0707500055
v -0.08065151 -0.0547791235 0.071
v -0.08100505 -0.0544255748 0.0705
v -0.07651493 -0.0589157 0.0705
v -0.07670457 -0.0590734631 0.0705
v -0.07616138 -0.0592692569 0.071
v -0.07675229 -0.05939134 0.0707500055
v -0.07693334 -0.0592000522 0.0705
v -0.07642125 -0.0594854467 0.071
v -0.07673475 -0.05965893 0.071
v -0.0771929 -0.059282463 0.0705
v -0.07709044 -0.05977185 0.071
v -0.0772808343 -0.0595499426 0.0707500055
v -0.07746953 -0.0593111068 0.0705
v -0.07784301 -0.059516903 0.0707500055
v -0.07746953 -0.0598111041 0.071
v -0.07774615 -0.0592824668 0.0705
v -0.0778486058 -0.05977185 0.071
v -0.0780057162 -0.0592000559 0.0705
v -0.078204304 -0.05965893 0.071
v -0.07834009 -0.0593035333 0.0707500055
v -0.07823448 -0.0590734668 0.0705
v -0.0786009 -0.059092477 0.0707500055
v -0.0785177946 -0.05948545 0.071
v -0.07842412 -0.0589157 0.0705
v -0.07877767 -0.0592692532 0.071
v -0.0785818845 -0.05872606 0.0705
v -0.07899387 -0.05900938 0.071
v -0.07881196 -0.05883167 0.0707500055
v -0.07870848 -0.0584972948 0.0705
v -0.07916735 -0.0586958826 0.071
v -0.07897176 -0.058511816 0.0707500055
v -0.07879088 -0.05823773 0.0705
v -0.07928027 -0.0583401881 0.071
v -0.079058364 -0.0581498 0.0707500055
v -0.07881953 -0.0579611063 0.0705
v -0.07931952 -0.0579611063 0.071
v -0.079058364 -0.0577724129 0.0707500055
v -0.07879088 -0.0576844774 0.0705
v -0.07928027 -0.05758202 0.071
v -0.0789717659 -0.0574103966 0.0707500055
v -0.07870847 -0.0574249178 0.0705
v -0.07916735 -0.05722633 0.071
v -0.07881195 -0.05709054 0.0707500055
v -0.0785818845 -0.0571961477 0.0705
v -0.0789938644 -0.0569128357 0.071
v -0.07842412 -0.05700651 0.0705
v -0.07877768 -0.0566529557 0.071
v -0.07616138 -0.05665296 0.071
v -0.07428755 -0.0547791272 0.071
v -0.07491967 -0.0542532429 0.071
v -0.0737616643 -0.05541125 0.071
v -0.07642125 -0.0564367622 0.071
v -0.07594518 -0.056912832 0.071
v -0.07568223 -0.0538312644 0.071
v -0.0733396858 -0.0561738051 0.071
v -0.07673475 -0.0562632829 0.071
v -0.0757717043 -0.05722633 0.071
v -0.07654743 -0.053556595 0.071
v -0.07306501 -0.05703901 0.071
v -0.07709044 -0.05615036 0.071
v -0.07565878 -0.05758202 0.071
v -0.07746953 -0.0534611046 0.071
v -0.0729695261 -0.0579611063 0.071
v -0.07746953 -0.0561111048 0.071
v -0.0756195262 -0.0579611026 0.071
v -0.07839162 -0.053556595 0.071
v -0.07306501 -0.0588831976 0.071
v -0.07784861 -0.0561503619 0.071
v -0.07565878 -0.05834019 0.071
v -0.07925683 -0.0538312644 0.071
v -0.0733396858 -0.0597484037 0.071
v -0.078204304 -0.0562632829 0.071
v -0.0757717043 -0.0586958826 0.071
v -0.0800193846 -0.05425324 0.071
v -0.07376167 -0.06051096 0.071
v -0.0785177946 -0.0564367659 0.071
v -0.07594518 -0.0590093769 0.071
v -0.08065151 -0.0547791235 0.071
v -0.07877768 -0.0566529557 0.071
v -0.07428755 -0.0611430854 0.071
v -0.07616138 -0.0592692569 0.071
v -0.07642125 -0.0594854467 0.071
v -0.07491967 -0.061668966 0.071
v -0.07673475 -0.05965893 0.071
v -0.07568222 -0.06209094 0.071
v -0.07709044 -0.05977185 0.071
v -0.07654743 -0.06236562 0.071
v -0.07746953 -0.0598111041 0.071
v -0.07746953 -0.062461108 0.071
v -0.0778486058 -0.05977185 0.071
v -0.07839163 -0.0623656176 0.071
v -0.078204304 -0.05965893 0.071
v -0.07925682 -0.0620909445 0.071
v -0.0785177946 -0.05948545 0.071
v -0.0800193846 -0.06166897 0.071
v -0.08065151 -0.0611430854 0.071
v -0.07877767 -0.0592692532 0.071
v -0.08117738 -0.0605109632 0.071
v -0.07899387 -0.05900938 0.071
v -0.08159937 -0.0597484037 0.071
v -0.07916735 -0.0586958826 0.071
v -0.08187404 -0.0588832 0.071
v -0.07928027 -0.0583401881 0.071
v -0.08196953 -0.0579611063 0.071
v -0.07931952 -0.0579611063 0.071
v -0.08187404 -0.05703902 0.071
v -0.07928027 -0.05758202 0.071
v -0.08159937 -0.0561738 0.071
v -0.07916735 -0.05722633 0.071
v -0.08117738 -0.0554112457 0.071
v -0.0789938644 -0.0569128357 0.071
v -0.07899387 -0.05900938 0.0129999891
v -0.08117739 -0.0605109632 0.0129999891
v -0.08159937 -0.0597484037 0.0129999891
v -0.08065151 -0.0611430854 0.0129999891
v -0.07916735 -0.0586958826 0.0129999891
v -0.0787776858 -0.0592692532 0.0129999891
v -0.08187405 -0.0588832 0.0129999891
v -0.0800193846 -0.06166897 0.0129999891
v -0.07928028 -0.0583401881 0.0129999891
v -0.0785178 -0.05948545 0.0129999891
v -0.08196953 -0.0579611063 0.0129999891
v -0.0792568251 -0.0620909445 0.0129999891
v -0.07931953 -0.0579611063 0.0129999891
v -0.078204304 -0.05965893 0.0129999891
v -0.08187404 -0.05703902 0.0129999891
v -0.07839163 -0.0623656176 0.0129999891
v -0.07928027 -0.05758202 0.0129999891
v -0.07784861 -0.05977185 0.0129999891
v -0.08159937 -0.0561738 0.0129999891
v -0.07746953 -0.062461108 0.0129999891
v -0.07916735 -0.05722633 0.0129999891
v -0.07746953 -0.0598111041 0.0129999891
v -0.08117739 -0.0554112457 0.0129999891
v -0.07654744 -0.06236562 0.0129999891
v -0.07899387 -0.0569128357 0.0129999891
v -0.07709044 -0.05977185 0.0129999891
v -0.07568223 -0.06209094 0.0129999891
v -0.07673475 -0.05965893 0.0129999891
v -0.0806515142 -0.0547791235 0.0129999891
v -0.0787776858 -0.0566529557 0.0129999891
v -0.07851781 -0.0564367659 0.0129999891
v -0.0800193846 -0.05425324 0.0129999891
v -0.078204304 -0.0562632829 0.0129999891
v -0.07925683 -0.0538312644 0.0129999891
v -0.07784861 -0.0561503619 0.0129999891
v -0.07839163 -0.053556595 0.0129999891
v -0.07746953 -0.0561111048 0.0129999891
v -0.07746953 -0.0534611046 0.0129999891
v -0.07709045 -0.05615036 0.0129999891
v -0.0765474439 -0.053556595 0.0129999891
v -0.07673475 -0.0562632829 0.0129999891
v -0.07568224 -0.0538312644 0.0129999891
v -0.07642126 -0.0564367622 0.0129999816
v -0.07491967 -0.0542532429 0.0129999891
v -0.0761613846 -0.05665296 0.0129999891
v -0.07428755 -0.0547791272 0.0129999891
v -0.07376167 -0.05541125 0.0129999891
v -0.07594518 -0.056912832 0.0129999816
v -0.0733396858 -0.0561738051 0.0129999891
v -0.0757717043 -0.05722633 0.0129999891
v -0.07306502 -0.05703901 0.0129999891
v -0.07565878 -0.05758202 0.0129999891
v -0.0729695261 -0.0579611063 0.0129999891
v -0.07561953 -0.0579611026 0.0129999891
v -0.07306501 -0.0588831976 0.0129999891
v -0.07565878 -0.05834019 0.0129999891
v -0.07333969 -0.0597484037 0.0129999891
v -0.0757717043 -0.0586958826 0.0129999891
v -0.07376167 -0.06051096 0.0129999891
v -0.0759452 -0.0590093769 0.0129999891
v -0.07428755 -0.0611430854 0.0129999891
v -0.0761613846 -0.0592692569 0.0129999891
v -0.07491967 -0.061668966 0.0129999891
v -0.07642126 -0.0594854467 0.0129999891
f 1 2 3
f 2 4 3
f 3 4 5
f 2 6 4
f 4 7 5
f 6 8 4
f 4 8 7
f 6 9 8
f 8 10 7
f 9 11 8
f 8 11 10
f 9 12 11
f 11 13 10
f 12 14 11
f 11 14 13
f 12 15 14
f 14 16 13
f 15 17 14
f 14 17 16
f 15 18 17
f 17 19 16
f 18 20 17
f 17 20 19
f 18 21 20
f 21 22 20
f 20 23 19
f 20 22 23
f 21 24 22
f 22 25 23
f 24 26 22
f 22 27 25
f 26 28 22
f 22 28 27
f 26 29 28
f 29 30 28
f 28 31 27
f 28 30 31
f 29 32 30
f 30 33 31
f 32 34 30
f 30 35 33
f 34 36 30
f 30 36 35
f 34 37 36
f 37 38 36
f 36 39 35
f 36 38 39
f 37 40 38
f 38 41 39
f 40 42 38
f 38 43 41
f 42 44 38
f 44 43 38
f 44 45 43
f 46 47 48
f 47 49 48
f 48 49 50
f 47 51 49
f 49 52 50
f 51 53 49
f 49 53 52
f 51 54 53
f 53 55 52
f 54 56 53
f 53 56 55
f 54 57 56
f 56 58 55
f 57 59 56
f 56 59 58
f 57 60 59
f 59 61 58
f 60 62 59
f 59 62 61
f 60 63 62
f 62 64 61
f 63 65 62
f 62 65 64
f 63 66 65
f 66 67 65
f 65 68 64
f 65 67 68
f 66 69 67
f 67 70 68
f 69 71 67
f 67 72 70
f 71 73 67
f 67 73 72
f 71 74 73
f 74 75 73
f 73 76 72
f 73 75 76
f 74 77 75
f 75 78 76
f 77 79 75
f 75 80 78
f 79 81 75
f 75 81 80
f 79 82 81
f 82 83 81
f 81 84 80
f 81 83 84
f 82 85 83
f 83 86 84
f 85 87 83
f 83 88 86
f 87 89 83
f 89 88 83
f 89 90 88
f 91 92 93
f 91 93 94
f 95 91 94
f 94 93 96
f 97 95 94
f 98 94 96
f 97 94 98
f 98 96 99
f 100 97 98
f 101 98 99
f 100 98 101
f 101 99 102
f 103 100 101
f 104 101 102
f 103 101 104
f 104 102 105
f 106 103 104
f 107 104 105
f 106 104 107
f 107 105 108
f 109 106 107
f 110 107 108
f 109 107 110
f 110 108 111
f 112 110 111
f 113 109 110
f 113 110 112
f 112 111 114
f 115 113 112
f 116 112 114
f 117 115 112
f 118 112 116
f 117 112 118
f 119 118 116
f 120 117 118
f 121 118 119
f 121 120 118
f 122 121 119
f 121 122 120
f 122 119 123
f 122 124 120
f 125 122 123
f 122 125 124
f 125 123 126
f 125 127 124
f 128 125 126
f 125 128 127
f 128 126 129
f 128 130 127
f 131 128 129
f 128 131 130
f 131 129 132
f 131 133 130
f 134 131 132
f 131 134 133
f 134 132 135
f 134 136 133
f 137 134 135
f 134 137 136
f 136 137 138
f 137 135 139
f 137 139 138
f 139 140 141
f 140 142 141
f 141 142 143
f 140 144 142
f 142 145 143
f 144 146 142
f 142 146 145
f 144 147 146
f 146 148 145
f 147 149 146
f 146 149 148
f 147 150 149
f 149 151 148
f 150 152 149
f 149 152 151
f 150 153 152
f 152 154 151
f 153 155 152
f 152 155 154
f 153 156 155
f 155 157 154
f 156 158 155
f 155 158 157
f 156 159 158
f 159 160 158
f 158 161 157
f 158 160 161
f 159 162 160
f 160 163 161
f 162 164 160
f 160 165 163
f 164 166 160
f 160 166 165
f 164 167 166
f 166 168 165
f 167 169 166
f 166 169 168
f 167 170 169
f 170 168 169
f 171 170 167
f 170 172 168
f 173 170 171
f 170 173 172
f 174 173 171
f 173 175 172
f 176 173 174
f 173 176 175
f 177 176 174
f 176 178 175
f 179 176 177
f 176 179 178
f 180 179 177
f 179 181 178
f 182 179 180
f 179 182 181
f 183 182 180
f 182 184 181
f 185 182 183
f 182 185 184
f 186 185 183
f 185 187 184
f 185 186 187
f 188 189 190
f 188 190 191
f 192 188 191
f 191 190 193
f 194 192 191
f 195 191 193
f 194 191 195
f 195 193 196
f 197 194 195
f 198 195 196
f 197 195 198
f 198 196 199
f 200 197 198
f 201 198 199
f 200 198 201
f 201 199 202
f 203 200 201
f 204 201 202
f 203 201 204
f 204 202 205
f 206 203 204
f 207 204 205
f 206 204 207
f 207 205 208
f 209 207 208
f 210 206 207
f 210 207 209
f 209 208 211
f 212 210 209
f 213 209 211
f 214 212 209
f 215 209 213
f 214 209 215
f 216 215 213
f 217 214 215
f 218 215 216
f 218 217 215
f 219 218 216
f 218 219 217
f 219 216 220
f 219 221 217
f 222 219 220
f 219 222 221
f 222 220 223
f 222 224 221
f 225 222 223
f 222 225 224
f 225 223 226
f 225 227 224
f 228 225 226
f 225 228 227
f 228 226 229
f 228 230 227
f 231 228 229
f 228 231 230
f 231 229 232
f 231 233 230
f 234 231 232
f 231 234 233
f 234 232 235
f 233 234 236
f 234 235 236
f 235 237 236
f 237 238 236
f 236 238 239
f 237 240 238
f 238 241 239
f 240 242 238
f 238 242 241
f 240 243 242
f 242 244 241
f 243 245 242
f 242 245 244
f 243 246 245
f 245 247 244
f 246 248 245
f 245 248 247
f 246 249 248
f 248 250 247
f 249 251 248
f 248 251 250
f 249 252 251
f 251 253 250
f 252 254 251
f 251 254 253
f 252 255 254
f 255 256 254
f 254 257 253
f 254 256 257
f 255 258 256
f 256 259 257
f 258 260 256
f 256 261 259
f 260 262 256
f 256 262 261
f 260 263 262
f 262 264 261
f 263 265 262
f 262 265 264
f 263 266 265
f 266 264 265
f 267 266 263
f 266 268 264
f 269 266 267
f 266 269 268
f 270 269 267
f 269 271 268
f 272 269 270
f 269 272 271
f 273 272 270
f 272 274 271
f 275 272 273
f 272 275 274
f 276 275 273
f 275 277 274
f 278 275 276
f 275 278 277
f 279 278 276
f 278 280 277
f 281 278 279
f 278 281 280
f 282 281 279
f 281 283 280
f 281 282 283
f 284 285 286
f 285 287 286
f 285 288 287
f 286 287 289
f 287 290 289
f 288 291 287
f 287 292 290
f 291 293 287
f 287 293 292
f 291 294 293
f 294 295 293
f 293 296 292
f 293 295 296
f 294 297 295
f 295 298 296
f 297 299 295
f 295 300 298
f 299 301 295
f 295 301 300
f 299 302 301
f 302 303 301
f 301 304 300
f 301 303 304
f 302 305 303
f 303 306 304
f 305 307 303
f 303 308 306
f 307 309 303
f 303 309 308
f 307 310 309
f 309 311 308
f 310 312 309
f 309 312 311
f 310 313 312
f 312 314 311
f 313 315 312
f 312 315 314
f 313 316 315
f 315 317 314
f 316 318 315
f 315 318 317
f 316 319 318
f 318 320 317
f 319 321 318
f 318 321 320
f 319 322 321
f 321 323 320
f 322 324 321
f 321 324 323
f 322 325 324
f 324 326 323
f 325 327 324
f 327 326 324
f 327 328 326
f 329 330 331
f 329 331 332
f 333 329 332
f 332 331 334
f 335 333 332
f 336 332 334
f 335 332 336
f 336 334 337
f 338 335 336
f 339 336 337
f 338 336 339
f 339 337 340
f 341 338 339
f 342 339 340
f 341 339 342
f 342 340 343
f 344 341 342
f 345 342 343
f 344 342 345
f 345 343 346
f 347 344 345
f 348 345 346
f 347 345 348
f 348 346 349
f 350 348 349
f 351 347 348
f 351 348 350
f 350 349 352
f 353 351 350
f 354 350 352
f 355 353 350
f 356 350 354
f 355 350 356
f 357 356 354
f 358 355 356
f 359 356 357
f 359 358 356
f 360 359 357
f 359 360 358
f 360 357 361
f 360 362 358
f 363 360 361
f 360 363 362
f 363 361 364
f 363 365 362
f 366 363 364
f 363 366 365
f 366 364 367
f 366 368 365
f 369 366 367
f 366 369 368
f 369 367 370
f 369 371 368
f 372 369 370
f 369 372 371
f 372 370 373
f 372 374 371
f 375 372 373
f 372 375 374
f 375 373 376
f 374 375 377
f 375 376 377
f 376 378 377
f 378 379 377
f 377 379 380
f 378 381 379
f 379 382 380
f 381 383 379
f 379 383 382
f 381 384 383
f 383 385 382
f 384 386 383
f 383 386 385
f 384 387 386
f 386 388 385
f 387 389 386
f 386 389 388
f 387 390 389
f 389 391 388
f 390 392 389
f 389 392 391
f 390 393 392
f 392 394 391
f 393 395 392
f 392 395 394
f 393 396 395
f 396 397 395
f 395 398 394
f 395 397 398
f 396 399 397
f 397 400 398
f 399 401 397
f 397 402 400
f 401 403 397
f 397 403 402
f 401 404 403
f 403 405 402
f 404 406 403
f 403 406 405
f 404 407 406
f 407 405 406
f 408 407 404
f 407 409 405
f 410 407 408
f 407 410 409
f 411 410 408
f 410 412 409
f 413 410 411
f 410 413 412
f 414 413 411
f 413 415 412
f 416 413 414
f 413 416 415
f 417 416 414
f 416 418 415
f 419 416 417
f 416 419 418
f 420 419 417
f 419 421 418
f 422 419 420
f 419 422 421
f 423 422 420
f 422 424 421
f 422 423 424
f 425 426 427
f 425 427 428
f 429 425 428
f 428 427 430
f 431 429 428
f 432 428 430
f 431 428 432
f 432 430 433
f 434 431 432
f 435 432 433
f 434 432 435
f 435 433 436
f 437 434 435
f 438 435 436
f 437 435 438
f 438 436 439
f 440 437 438
f 441 438 439
f 440 438 441
f 441 439 442
f 443 440 441
f 444 441 442
f 443 441 444
f 444 442 445
f 446 444 445
f 447 443 444
f 447 444 446
f 446 445 448
f 449 447 446
f 450 446 448
f 451 449 446
f 452 446 450
f 451 446 452
f 453 452 450
f 454 451 452
f 455 452 453
f 455 454 452
f 456 455 453
f 455 456 454
f 456 453 457
f 456 458 454
f 459 456 457
f 456 459 458
f 459 457 460
f 459 461 458
f 462 459 460
f 459 462 461
f 462 460 463
f 462 464 461
f 465 462 463
f 462 465 464
f 465 463 466
f 465 467 464
f 468 465 466
f 465 468 467
f 468 466 469
f 468 470 467
f 471 468 469
f 468 471 470
f 471 469 472
f 470 471 473
f 471 472 473
f 472 474 473
f 474 475 473
f 473 475 476
f 474 477 475
f 475 478 476
f 477 479 475
f 475 479 478
f 477 480 479
f 479 481 478
f 480 482 479
f 479 482 481
f 480 483 482
f 482 484 481
f 483 485 482
f 482 485 484
f 483 486 485
f 485 487 484
f 486 488 485
f 485 488 487
f 486 489 488
f 488 490 487
f 489 491 488
f 488 491 490
f 489 492 491
f 492 493 491
f 491 494 490
f 491 493 494
f 492 495 493
f 493 496 494
f 495 497 493
f 493 498 496
f 497 499 493
f 493 499 498
f 497 500 499
f 499 501 498
f 500 502 499
f 499 502 501
f 500 503 502
f 503 501 502
f 504 503 500
f 503 505 501
f 506 503 504
f 503 506 505
f 507 506 504
f 506 508 505
f 509 506 507
f 506 509 508
f 510 509 507
f 509 511 508
f 512 509 510
f 509 512 511
f 513 512 510
f 512 514 511
f 515 512 513
f 512 515 514
f 516 515 513
f 515 517 514
f 518 515 516
f 515 518 517
f 519 518 516
f 518 520 517
f 518 519 520
f 521 522 523
f 522 524 523
f 522 525 524
f 523 524 526
f 524 527 526
f 525 528 524
f 524 529 527
f 528 530 524
f 524 530 529
f 528 531 530
f 531 532 530
f 530 533 529
f 530 532 533
f 531 534 532
f 532 535 533
f 534 536 532
f 532 537 535
f 536 538 532
f 532 538 537
f 536 539 538
f 539 540 538
f 538 541 537
f 538 540 541
f 539 542 540
f 540 543 541
f 542 544 540
f 540 545 543
f 544 546 540
f 540 546 545
f 544 547 546
f 546 548 545
f 547 549 546
f 546 549 548
f 547 550 549
f 549 551 548
f 550 552 549
f 549 552 551
f 550 553 552
f 552 554 551
f 553 555 552
f 552 555 554
f 553 556 555
f 555 557 554
f 556 558 555
f 555 558 557
f 556 559 558
f 558 560 557
f 559 561 558
f 558 561 560
f 559 562 561
f 561 563 560
f 562 564 561
f 564 563 561
f 564 565 563
f 566 567 568
f 566 569 567
f 570 566 568
f 566 571 569
f 570 568 572
f 571 573 569
f 574 570 572
f 571 575 573
f 574 572 576
f 575 577 573
f 578 574 576
f 575 579 577
f 578 576 580
f 579 581 577
f 582 578 580
f 579 583 581
f 582 580 584
f 583 585 581
f 586 582 584
f 583 587 585
f 586 584 588
f 587 589 585
f 590 586 588
f 587 591 589
f 590 588 592
f 591 593 589
f 594 590 592
f 591 595 593
f 594 592 596
f 597 594 596
f 595 598 593
f 598 595 599
f 598 599 600
f 601 598 600
f 600 602 601
f 602 603 601
f 602 604 603
f 604 605 603
f 604 606 605
f 606 607 605
f 606 608 607
f 608 609 607
f 608 610 609
f 610 611 609
f 610 612 611
f 612 613 611
f 612 614 613
f 612 615 614
f 615 616 614
f 615 617 616
f 617 618 616
f 617 619 618
f 619 620 618
f 619 621 620
f 621 622 620
f 621 623 622
f 623 624 622
f 623 625 624
f 625 626 624
f 625 627 626
f 627 628 626
f 627 629 628
f 629 597 628
f 597 596 628
f 630 631 632
f 630 633 631
f 634 630 632
f 630 635 633
f 634 632 636
f 635 637 633
f 638 634 636
f 635 639 637
f 638 636 640
f 639 641 637
f 642 638 640
f 639 643 641
f 642 640 644
f 643 645 641
f 646 642 644
f 643 647 645
f 646 644 648
f 647 649 645
f 650 646 648
f 647 651 649
f 650 648 652
f 651 653 649
f 654 650 652
f 651 655 653
f 655 656 653
f 655 657 656
f 654 652 658
f 659 654 658
f 660 659 658
f 660 658 661
f 662 660 661
f 662 661 663
f 664 662 663
f 664 663 665
f 666 664 665
f 666 665 667
f 668 666 667
f 668 667 669
f 670 668 669
f 670 669 671
f 672 670 671
f 672 671 673
f 674 672 673
f 674 673 675
f 674 675 676
f 677 674 676
f 677 676 678
f 679 677 678
f 679 678 680
f 681 679 680
f 681 680 682
f 683 681 682
f 683 682 684
f 685 683 684
f 685 684 686
f 687 685 686
f 687 686 688
f 689 687 688
f 688 690 689
f 690 691 689
f 690 692 691
f 692 693 691
f 692 657 693
f 657 692 656
