# ROS coordinates: X forward, Y left, Z up; units are metres.
o mesh
v -0.04423 0.0204600021 0.124590009
v -0.04423 0.0204600021 0.12519
v -0.04428 0.0204600021 0.124590009
v -0.04428 0.0204600021 0.12709
v -0.04341 0.0204600021 0.125840008
v -0.04254 0.0204600021 0.12709
v -0.04259 0.0204600021 0.12519
v -0.04254 0.0204600021 0.124590009
v -0.04259 0.0204600021 0.124590009
v -0.04259 0.0255400017 0.124590009
v -0.04259 0.0255400017 0.12519
v -0.04254 0.0255400017 0.124590009
v -0.04254 0.0255400017 0.12709
v -0.04341 0.0255400017 0.125840008
v -0.04428 0.0255400017 0.12709
v -0.04423 0.0255400017 0.12519
v -0.04428 0.0255400017 0.124590009
v -0.04423 0.0255400017 0.124590009
v -0.04005 0.0255400017 0.124590009
v -0.04005 0.0255400017 0.12519
v -0.04 0.0255400017 0.124590009
v -0.04 0.0255400017 0.12709
v -0.04087 0.0255400017 0.125840008
v -0.04174 0.0255400017 0.12709
v -0.04169 0.0255400017 0.12519
v -0.04174 0.0255400017 0.124590009
v -0.04169 0.0255400017 0.124590009
v -0.04169 0.0204600021 0.124590009
v -0.04169 0.0204600021 0.12519
v -0.04174 0.0204600021 0.124590009
v -0.04174 0.0204600021 0.12709
v -0.04087 0.0204600021 0.125840008
v -0.04 0.0204600021 0.12709
v -0.04005 0.0204600021 0.12519
v -0.04 0.0204600021 0.124590009
v -0.04005 0.0204600021 0.124590009
v -0.04468 0.0208600014 0.124590009
v -0.04468 0.0226000026 0.124590009
v -0.04428 0.0204600021 0.124590009
v -0.04428 0.0230000019 0.124590009
v -0.04423 0.0204600021 0.124590009
v -0.04423 0.0255400017 0.124590009
v -0.04428 0.0255400017 0.124590009
v -0.04468 0.0251400024 0.124590009
v -0.04468 0.0234000012 0.124590009
v -0.0396 0.0251400024 0.124590009
v -0.0396 0.0234000012 0.124590009
v -0.04 0.0255400017 0.124590009
v -0.04 0.0230000019 0.124590009
v -0.04005 0.0255400017 0.124590009
v -0.04005 0.0204600021 0.124590009
v -0.04 0.0204600021 0.124590009
v -0.0396 0.0208600014 0.124590009
v -0.0396 0.0226000026 0.124590009
v -0.04214 0.0230000019 0.124590009
v -0.04169 0.0204600021 0.124590009
v -0.04174 0.0204600021 0.124590009
v -0.04214 0.0208600014 0.124590009
v -0.04169 0.0255400017 0.124590009
v -0.04254 0.0204600021 0.124590009
v -0.04174 0.0255400017 0.124590009
v -0.04259 0.0204600021 0.124590009
v -0.04214 0.0251400024 0.124590009
v -0.04259 0.0255400017 0.124590009
v -0.04254 0.0255400017 0.124590009
v -0.04087 0.0214100014 0.12614
v -0.04119 0.0214100014 0.12709
v -0.04055 0.0214100014 0.12709
v -0.04055 0.0214100014 0.12519
v -0.04119 0.0214100014 0.12519
v -0.04005 0.0230000019 0.124890007
v -0.04005 0.0204600021 0.124590009
v -0.04005 0.0204600021 0.12519
v -0.04005 0.0255400017 0.12519
v -0.04005 0.0255400017 0.124590009
v -0.04169 0.0230000019 0.124890007
v -0.04169 0.0255400017 0.124590009
v -0.04169 0.0255400017 0.12519
v -0.04169 0.0204600021 0.12519
v -0.04169 0.0204600021 0.124590009
v -0.04087 0.0239500012 0.12614
v -0.04119 0.0239500012 0.12709
v -0.04055 0.0239500012 0.12709
v -0.04055 0.0239500012 0.12519
v -0.04119 0.0239500012 0.12519
v -0.04341 0.0214100014 0.12614
v -0.04373 0.0214100014 0.12709
v -0.04309 0.0214100014 0.12709
v -0.04309 0.0214100014 0.12519
v -0.04373 0.0214100014 0.12519
v -0.04259 0.0230000019 0.124890007
v -0.04259 0.0204600021 0.124590009
v -0.04259 0.0204600021 0.12519
v -0.04259 0.0255400017 0.12519
v -0.04259 0.0255400017 0.124590009
v -0.04423 0.0230000019 0.124890007
v -0.04423 0.0255400017 0.124590009
v -0.04423 0.0255400017 0.12519
v -0.04423 0.0204600021 0.12519
v -0.04423 0.0204600021 0.124590009
v -0.04341 0.0239500012 0.12614
v -0.04373 0.0239500012 0.12709
v -0.04309 0.0239500012 0.12709
v -0.04309 0.0239500012 0.12519
v -0.04373 0.0239500012 0.12519
v -0.04194 0.0206600018 0.125840008
v -0.04174 0.0204600021 0.12709
v -0.04214 0.0208600014 0.12709
v -0.04214 0.0208600014 0.124590009
v -0.04174 0.0204600021 0.124590009
v -0.0398 0.0228000022 0.125840008
v -0.04 0.0230000019 0.12709
v -0.0396 0.0226000026 0.12709
v -0.0396 0.0226000026 0.124590009
v -0.04 0.0230000019 0.124590009
v -0.0398 0.0206600018 0.125840008
v -0.0396 0.0208600014 0.12709
v -0.04 0.0204600021 0.12709
v -0.04 0.0204600021 0.124590009
v -0.0396 0.0208600014 0.124590009
v -0.0398 0.0232000016 0.125840008
v -0.0396 0.0234000012 0.12709
v -0.04 0.0230000019 0.12709
v -0.04 0.0230000019 0.124590009
v -0.0396 0.0234000012 0.124590009
v -0.04194 0.025340002 0.125840008
v -0.04214 0.0251400024 0.12709
v -0.04174 0.0255400017 0.12709
v -0.04174 0.0255400017 0.124590009
v -0.04214 0.0251400024 0.124590009
v -0.0398 0.025340002 0.125840008
v -0.04 0.0255400017 0.12709
v -0.0396 0.0251400024 0.12709
v -0.0396 0.0251400024 0.124590009
v -0.04 0.0255400017 0.124590009
v -0.04234 0.025340002 0.125840008
v -0.04254 0.0255400017 0.12709
v -0.04214 0.0251400024 0.12709
v -0.04214 0.0251400024 0.124590009
v -0.04254 0.0255400017 0.124590009
v -0.04448 0.0232000016 0.125840008
v -0.04428 0.0230000019 0.12709
v -0.04468 0.0234000012 0.12709
v -0.04468 0.0234000012 0.124590009
v -0.04428 0.0230000019 0.124590009
v -0.04448 0.025340002 0.125840008
v -0.04468 0.0251400024 0.12709
v -0.04428 0.0255400017 0.12709
v -0.04428 0.0255400017 0.124590009
v -0.04468 0.0251400024 0.124590009
v -0.04448 0.0228000022 0.125840008
v -0.04468 0.0226000026 0.12709
v -0.04428 0.0230000019 0.12709
v -0.04428 0.0230000019 0.124590009
v -0.04468 0.0226000026 0.124590009
v -0.04234 0.0206600018 0.125840008
v -0.04214 0.0208600014 0.12709
v -0.04254 0.0204600021 0.12709
v -0.04254 0.0204600021 0.124590009
v -0.04214 0.0208600014 0.124590009
v -0.04448 0.0206600018 0.125840008
v -0.04428 0.0204600021 0.12709
v -0.04468 0.0208600014 0.12709
v -0.04468 0.0208600014 0.124590009
v -0.04428 0.0204600021 0.124590009
v -0.04055 0.021730002 0.12614
v -0.04055 0.0214100014 0.12709
v -0.04055 0.0220500026 0.12709
v -0.04055 0.0220500026 0.12519
v -0.04055 0.0214100014 0.12519
v -0.04119 0.021730002 0.12614
v -0.04119 0.0220500026 0.12709
v -0.04119 0.0214100014 0.12709
v -0.04119 0.0214100014 0.12519
v -0.04119 0.0220500026 0.12519
v -0.04055 0.0242700018 0.12614
v -0.04055 0.0239500012 0.12709
v -0.04055 0.0245900024 0.12709
v -0.04055 0.0245900024 0.12519
v -0.04055 0.0239500012 0.12519
v -0.04169 0.0255400017 0.12519
v -0.04119 0.0245900024 0.12519
v -0.04119 0.0239500012 0.12519
v -0.04055 0.0245900024 0.12519
v -0.04005 0.0255400017 0.12519
v -0.04055 0.0239500012 0.12519
v -0.04169 0.0204600021 0.12519
v -0.04005 0.0204600021 0.12519
v -0.04119 0.0214100014 0.12519
v -0.04055 0.0214100014 0.12519
v -0.04119 0.0220500026 0.12519
v -0.04055 0.0220500026 0.12519
v -0.04087 0.0230000019 0.12519
v -0.04119 0.0242700018 0.12614
v -0.04119 0.0245900024 0.12709
v -0.04119 0.0239500012 0.12709
v -0.04119 0.0239500012 0.12519
v -0.04119 0.0245900024 0.12519
v -0.04309 0.021730002 0.12614
v -0.04309 0.0214100014 0.12709
v -0.04309 0.0220500026 0.12709
v -0.04309 0.0220500026 0.12519
v -0.04309 0.0214100014 0.12519
v -0.04373 0.021730002 0.12614
v -0.04373 0.0220500026 0.12709
v -0.04373 0.0214100014 0.12709
v -0.04373 0.0214100014 0.12519
v -0.04373 0.0220500026 0.12519
v -0.04309 0.0242700018 0.12614
v -0.04309 0.0239500012 0.12709
v -0.04309 0.0245900024 0.12709
v -0.04309 0.0245900024 0.12519
v -0.04309 0.0239500012 0.12519
v -0.04423 0.0255400017 0.12519
v -0.04373 0.0245900024 0.12519
v -0.04373 0.0239500012 0.12519
v -0.04309 0.0245900024 0.12519
v -0.04259 0.0255400017 0.12519
v -0.04309 0.0239500012 0.12519
v -0.04423 0.0204600021 0.12519
v -0.04259 0.0204600021 0.12519
v -0.04373 0.0214100014 0.12519
v -0.04309 0.0214100014 0.12519
v -0.04373 0.0220500026 0.12519
v -0.04309 0.0220500026 0.12519
v -0.04341 0.0230000019 0.12519
v -0.04373 0.0242700018 0.12614
v -0.04373 0.0245900024 0.12709
v -0.04373 0.0239500012 0.12709
v -0.04373 0.0239500012 0.12519
v -0.04373 0.0245900024 0.12519
v -0.0396 0.021730002 0.125840008
v -0.0396 0.0226000026 0.12709
v -0.0396 0.0208600014 0.12709
v -0.0396 0.0208600014 0.124590009
v -0.0396 0.0226000026 0.124590009
v -0.0396 0.0242700018 0.125840008
v -0.0396 0.0251400024 0.12709
v -0.0396 0.0234000012 0.12709
v -0.0396 0.0234000012 0.124590009
v -0.0396 0.0251400024 0.124590009
v -0.04468 0.0242700018 0.125840008
v -0.04468 0.0234000012 0.12709
v -0.04468 0.0251400024 0.12709
v -0.04468 0.0251400024 0.124590009
v -0.04468 0.0234000012 0.124590009
v -0.04468 0.021730002 0.125840008
v -0.04468 0.0208600014 0.12709
v -0.04468 0.0226000026 0.12709
v -0.04468 0.0226000026 0.124590009
v -0.04468 0.0208600014 0.124590009
v -0.04087 0.0220500026 0.12614
v -0.04055 0.0220500026 0.12709
v -0.04119 0.0220500026 0.12709
v -0.04119 0.0220500026 0.12519
v -0.04055 0.0220500026 0.12519
v -0.04087 0.0245900024 0.12614
v -0.04055 0.0245900024 0.12709
v -0.04119 0.0245900024 0.12709
v -0.04119 0.0245900024 0.12519
v -0.04055 0.0245900024 0.12519
v -0.04341 0.0220500026 0.12614
v -0.04309 0.0220500026 0.12709
v -0.04373 0.0220500026 0.12709
v -0.04373 0.0220500026 0.12519
v -0.04309 0.0220500026 0.12519
v -0.04341 0.0245900024 0.12614
v -0.04309 0.0245900024 0.12709
v -0.04373 0.0245900024 0.12709
v -0.04373 0.0245900024 0.12519
v -0.04309 0.0245900024 0.12519
v -0.04055 0.0214100014 0.12709
v -0.04 0.0204600021 0.12709
v -0.0396 0.0208600014 0.12709
v -0.04174 0.0204600021 0.12709
v -0.04055 0.0220500026 0.12709
v -0.0396 0.0226000026 0.12709
v -0.04119 0.0214100014 0.12709
v -0.04 0.0230000019 0.12709
v -0.04214 0.0208600014 0.12709
v -0.04119 0.0220500026 0.12709
v -0.04214 0.0230000019 0.12709
v -0.04214 0.0214100014 0.12709
v -0.04309 0.0214100014 0.12709
v -0.04254 0.0204600021 0.12709
v -0.04428 0.0204600021 0.12709
v -0.04373 0.0214100014 0.12709
v -0.04468 0.0208600014 0.12709
v -0.04309 0.0220500026 0.12709
v -0.04373 0.0220500026 0.12709
v -0.04468 0.0226000026 0.12709
v -0.04428 0.0230000019 0.12709
v -0.04119 0.0239500012 0.12709
v -0.04055 0.0239500012 0.12709
v -0.0396 0.0234000012 0.12709
v -0.04055 0.0245900024 0.12709
v -0.0396 0.0251400024 0.12709
v -0.04 0.0255400017 0.12709
v -0.04119 0.0245900024 0.12709
v -0.04174 0.0255400017 0.12709
v -0.04214 0.0251400024 0.12709
v -0.04214 0.0239500012 0.12709
v -0.04309 0.0239500012 0.12709
v -0.04373 0.0239500012 0.12709
v -0.04468 0.0234000012 0.12709
v -0.04309 0.0245900024 0.12709
v -0.04254 0.0255400017 0.12709
v -0.04373 0.0245900024 0.12709
v -0.04468 0.0251400024 0.12709
v -0.04428 0.0255400017 0.12709
f 1 2 3
f 2 4 3
f 2 5 4
f 5 6 4
f 2 7 5
f 7 6 5
f 7 8 6
f 8 7 9
f 10 11 12
f 11 13 12
f 11 14 13
f 14 15 13
f 16 14 11
f 14 16 15
f 16 17 15
f 16 18 17
f 19 20 21
f 20 22 21
f 20 23 22
f 23 24 22
f 25 23 20
f 23 25 24
f 25 26 24
f 25 27 26
f 28 29 30
f 29 31 30
f 29 32 31
f 32 33 31
f 29 34 32
f 34 33 32
f 34 35 33
f 35 34 36
f 37 38 39
f 38 40 39
f 40 41 39
f 40 42 41
f 42 40 43
f 40 44 43
f 40 45 44
f 46 47 48
f 47 49 48
f 49 50 48
f 49 51 50
f 51 49 52
f 49 53 52
f 49 54 53
f 55 56 57
f 55 57 58
f 56 55 59
f 60 55 58
f 59 55 61
f 55 60 62
f 55 63 61
f 55 62 64
f 55 65 63
f 65 55 64
f 66 67 68
f 66 68 69
f 67 66 70
f 70 66 69
f 71 72 73
f 71 73 74
f 72 71 75
f 75 71 74
f 76 77 78
f 76 78 79
f 77 76 80
f 80 76 79
f 81 82 83
f 81 83 84
f 82 81 85
f 85 81 84
f 86 87 88
f 86 88 89
f 87 86 90
f 90 86 89
f 91 92 93
f 91 93 94
f 92 91 95
f 95 91 94
f 96 97 98
f 96 98 99
f 97 96 100
f 100 96 99
f 101 102 103
f 101 103 104
f 102 101 105
f 105 101 104
f 106 107 108
f 106 108 109
f 107 106 110
f 110 106 109
f 111 112 113
f 111 113 114
f 112 111 115
f 115 111 114
f 116 117 118
f 116 118 119
f 117 116 120
f 120 116 119
f 121 122 123
f 121 123 124
f 122 121 125
f 125 121 124
f 126 127 128
f 126 128 129
f 127 126 130
f 130 126 129
f 131 132 133
f 131 133 134
f 132 131 135
f 135 131 134
f 136 137 138
f 136 138 139
f 137 136 140
f 140 136 139
f 141 142 143
f 141 143 144
f 142 141 145
f 145 141 144
f 146 147 148
f 146 148 149
f 147 146 150
f 150 146 149
f 151 152 153
f 151 153 154
f 152 151 155
f 155 151 154
f 156 157 158
f 156 158 159
f 157 156 160
f 160 156 159
f 161 162 163
f 161 163 164
f 162 161 165
f 165 161 164
f 166 167 168
f 166 168 169
f 167 166 170
f 170 166 169
f 171 172 173
f 171 173 174
f 172 171 175
f 175 171 174
f 176 177 178
f 176 178 179
f 177 176 180
f 180 176 179
f 181 182 183
f 181 184 182
f 184 181 185
f 186 184 185
f 187 181 183
f 188 186 185
f 188 187 189
f 188 189 190
f 187 191 189
f 187 183 191
f 188 190 192
f 186 188 192
f 183 193 191
f 183 186 193
f 186 192 193
f 191 193 192
f 194 195 196
f 194 196 197
f 195 194 198
f 198 194 197
f 199 200 201
f 199 201 202
f 200 199 203
f 203 199 202
f 204 205 206
f 204 206 207
f 205 204 208
f 208 204 207
f 209 210 211
f 209 211 212
f 210 209 213
f 213 209 212
f 214 215 216
f 214 217 215
f 217 214 218
f 219 217 218
f 220 214 216
f 221 219 218
f 221 220 222
f 221 222 223
f 220 224 222
f 220 216 224
f 221 223 225
f 219 221 225
f 216 226 224
f 216 219 226
f 219 225 226
f 224 226 225
f 227 228 229
f 227 229 230
f 228 227 231
f 231 227 230
f 232 233 234
f 232 234 235
f 233 232 236
f 236 232 235
f 237 238 239
f 237 239 240
f 238 237 241
f 241 237 240
f 242 243 244
f 242 244 245
f 243 242 246
f 246 242 245
f 247 248 249
f 247 249 250
f 248 247 251
f 251 247 250
f 252 253 254
f 252 254 255
f 253 252 256
f 256 252 255
f 257 258 259
f 257 259 260
f 258 257 261
f 261 257 260
f 262 263 264
f 262 264 265
f 263 262 266
f 266 262 265
f 267 268 269
f 267 269 270
f 268 267 271
f 271 267 270
f 272 273 274
f 272 275 273
f 276 272 274
f 276 274 277
f 272 278 275
f 276 277 279
f 278 280 275
f 281 276 279
f 281 279 282
f 278 281 283
f 280 278 283
f 281 282 283
f 280 283 284
f 285 280 284
f 285 284 286
f 284 287 286
f 287 288 286
f 284 283 289
f 283 282 289
f 287 290 288
f 290 291 288
f 290 292 291
f 292 290 289
f 282 292 289
f 279 293 282
f 279 294 293
f 294 279 295
f 296 294 295
f 296 295 297
f 296 297 298
f 299 296 298
f 300 299 298
f 299 300 301
f 293 299 302
f 282 293 302
f 299 301 302
f 292 282 303
f 282 302 303
f 292 303 304
f 305 292 304
f 303 302 306
f 306 302 301
f 306 301 307
f 304 308 305
f 308 306 307
f 308 309 305
f 310 308 307
f 308 310 309
