# ROS coordinates: X forward, Y left, Z up; units are metres.
o mesh
v 0.1290608 0.0153460605 0.0345000029
v 0.1265612 0.0153902741 0.0345
v 0.1265609 0.01537358 0.0343180373
v 0.127810612 0.0153461834 0.0342914648
v 0.1290605 0.0153293665 0.0343180373
v 0.126559943 0.0153200766 0.0341319069
v 0.129059553 0.015275863 0.0341319069
v 0.127809361 0.0152754625 0.0340794772
v 0.1265583 0.0152272955 0.03395279
v 0.129057914 0.0151830819 0.0339527875
v 0.1278072 0.0151537666 0.0338812172
v 0.126556009 0.0150974263 0.0337928943
v 0.129055619 0.0150532126 0.03379289
v 0.12780425 0.01498701 0.033714436
v 0.126553178 0.0149375545 0.0336630046
v 0.129052788 0.0148933409 0.0336630046
v 0.127800748 0.0147887766 0.0335927159
v 0.126550019 0.0147584667 0.03357021
v 0.129049629 0.0147142531 0.03357021
v 0.127797008 0.0145768225 0.0335219875
v 0.126546726 0.0145723652 0.0335166939
v 0.127793312 0.0143683245 0.0335
v 0.129046336 0.0145281516 0.0335166939
v 0.1265435 0.0143904323 0.0335
v 0.129043117 0.0143462187 0.0335
v 0.126540288 0.0142084947 0.0335166939
v 0.1290399 0.0141642811 0.0335166939
v 0.127789617 0.0141598191 0.0335219875
v 0.126537 0.0140223941 0.03357021
v 0.1290366 0.0139781805 0.03357021
v 0.1277868 0.0140002863 0.03357021
v 0.127784073 0.013845888 0.0336473733
v 0.126533836 0.0138433063 0.0336630046
v 0.129033431 0.0137990927 0.0336630046
v 0.12778157 0.0137043614 0.0337523222
v 0.126531 0.0136834346 0.0337928943
v 0.129030615 0.013639221 0.03379289
v 0.127779424 0.0135828787 0.0338812172
v 0.12652871 0.0135535644 0.03395279
v 0.12902832 0.0135093508 0.0339527875
v 0.127777725 0.01348691 0.034027908
v 0.126527071 0.0134607861 0.0341319069
v 0.129026666 0.0134165725 0.0341319069
v 0.127776533 0.0134194139 0.0341848955
v 0.126526117 0.0134072788 0.0343180373
v 0.129025728 0.0133630652 0.0343180373
v 0.127775848 0.01338064 0.0343445167
v 0.126525819 0.0133905867 0.0345
v 0.129025429 0.0133463731 0.0345000029
v 0.126526117 0.0134072788 0.03468196
v 0.127776012 0.0133904582 0.0347085372
v 0.129025728 0.0133630652 0.03468196
v 0.126527071 0.0134607861 0.0348680951
v 0.129026666 0.0134165725 0.0348680951
v 0.127777264 0.0134611828 0.03492052
v 0.12652871 0.0135535644 0.03504721
v 0.12902832 0.0135093508 0.03504721
v 0.127779424 0.0135828806 0.03511878
v 0.126531 0.0136834346 0.0352071077
v 0.129030615 0.013639221 0.0352071077
v 0.127782375 0.0137496395 0.0352855623
v 0.126533836 0.0138433082 0.0353369936
v 0.129033431 0.0137990946 0.0353369936
v 0.127785876 0.0139478687 0.0354072824
v 0.126537 0.0140223941 0.0354297869
v 0.1290366 0.0139781805 0.03542979
v 0.127789617 0.0141598191 0.0354780145
v 0.126540288 0.0142084947 0.0354833044
v 0.127793312 0.0143683227 0.0354999974
v 0.1290399 0.0141642811 0.0354833081
v 0.1265435 0.01439043 0.0354999974
v 0.129043117 0.0143462168 0.0354999974
v 0.126546726 0.0145723652 0.0354833044
v 0.129046336 0.0145281516 0.0354833081
v 0.127797008 0.0145768244 0.0354780145
v 0.126550019 0.0147584667 0.0354297869
v 0.129049629 0.0147142531 0.03542979
v 0.127799824 0.014736359 0.03542979
v 0.127802551 0.0148907593 0.03535263
v 0.126553178 0.0149375545 0.0353369936
v 0.129052788 0.0148933409 0.0353369936
v 0.127805054 0.015032283 0.0352476761
v 0.126556009 0.0150974263 0.0352071077
v 0.129055619 0.0150532126 0.0352071077
v 0.1278072 0.0151537647 0.03511878
v 0.1265583 0.0152272936 0.03504721
v 0.129057914 0.01518308 0.03504721
v 0.1278089 0.0152497357 0.034972094
v 0.126559943 0.0153200747 0.0348680951
v 0.129059553 0.0152758611 0.0348680951
v 0.127810091 0.0153172314 0.0348151028
v 0.1265609 0.015373582 0.03468196
v 0.1290605 0.0153293684 0.03468196
v 0.127810776 0.0153560089 0.03465548
v 0.1265612 0.0153902741 0.0345
v 0.1290608 0.0153460605 0.0345000029
v 0.128565609 -0.0126495622 0.0345000029
v 0.126066 -0.0126053486 0.0345
v 0.1260657 -0.01262204 0.0343180373
v 0.127315417 -0.0126494374 0.0342914648
v 0.128565311 -0.0126662534 0.0343180373
v 0.126064762 -0.0126755489 0.0341319069
v 0.128564358 -0.0127197625 0.0341319069
v 0.127314165 -0.0127201583 0.0340794772
v 0.126063108 -0.0127683273 0.03395279
v 0.128562719 -0.0128125409 0.0339527875
v 0.127312 -0.0128418589 0.0338812172
v 0.126060814 -0.0128981955 0.0337928943
v 0.128560424 -0.0129424091 0.03379289
v 0.127309054 -0.0130086159 0.033714436
v 0.126057982 -0.0130580682 0.0336630046
v 0.1285576 -0.0131022818 0.0336630046
v 0.127305552 -0.0132068451 0.0335927159
v 0.126054823 -0.013237155 0.03357021
v 0.128554434 -0.0132813687 0.03357021
v 0.127301812 -0.0134187974 0.0335219875
v 0.12605153 -0.0134232575 0.0335166939
v 0.127298117 -0.0136273 0.0335
v 0.12855114 -0.0134674711 0.0335166939
v 0.126048312 -0.0136051923 0.0335
v 0.128547922 -0.0136494059 0.0335
v 0.1260451 -0.0137871262 0.0335166939
v 0.1285447 -0.01383134 0.0335166939
v 0.127294421 -0.0138358027 0.0335219875
v 0.1260418 -0.01397323 0.03357021
v 0.12854141 -0.0140174432 0.03357021
v 0.1272916 -0.0139953373 0.03357021
v 0.127288878 -0.0141497357 0.0336473733
v 0.126038641 -0.0141523154 0.0336630046
v 0.128538236 -0.0141965291 0.0336630046
v 0.127286375 -0.01429126 0.0337523222
v 0.12603581 -0.0143121881 0.0337928943
v 0.12853542 -0.0143564017 0.03379289
v 0.127284229 -0.0144127412 0.0338812172
v 0.126033515 -0.0144420564 0.03395279
v 0.128533125 -0.01448627 0.0339527875
v 0.12728253 -0.0145087121 0.034027908
v 0.126031876 -0.0145348357 0.0341319069
v 0.128531471 -0.0145790493 0.0341319069
v 0.127281338 -0.0145762088 0.0341848955
v 0.126030922 -0.014588343 0.0343180373
v 0.128530532 -0.0146325566 0.0343180373
v 0.127280653 -0.0146149835 0.0343445167
v 0.126030624 -0.0146050351 0.0345
v 0.128530234 -0.0146492487 0.0345000029
v 0.126030922 -0.014588343 0.03468196
v 0.127280816 -0.0146051617 0.0347085372
v 0.128530532 -0.0146325566 0.03468196
v 0.126031876 -0.0145348357 0.0348680951
v 0.128531471 -0.0145790493 0.0348680951
v 0.127282068 -0.0145344408 0.03492052
v 0.126033515 -0.0144420564 0.03504721
v 0.128533125 -0.01448627 0.03504721
v 0.127284229 -0.0144127412 0.03511878
v 0.12603581 -0.0143121881 0.0352071077
v 0.12853542 -0.0143564017 0.0352071077
v 0.127287179 -0.0142459832 0.0352855623
v 0.126038641 -0.0141523154 0.0353369936
v 0.128538236 -0.0141965291 0.0353369936
v 0.127290681 -0.014047754 0.0354072824
v 0.1260418 -0.01397323 0.0354297869
v 0.12854141 -0.0140174432 0.03542979
v 0.127294421 -0.0138358027 0.0354780145
v 0.1260451 -0.0137871262 0.0354833044
v 0.127298117 -0.0136273 0.0354999974
v 0.1285447 -0.01383134 0.0354833081
v 0.126048312 -0.0136051923 0.0354999974
v 0.128547922 -0.0136494059 0.0354999974
v 0.12605153 -0.0134232575 0.0354833044
v 0.12855114 -0.0134674711 0.0354833081
v 0.127301812 -0.0134187974 0.0354780145
v 0.126054823 -0.013237155 0.0354297869
v 0.128554434 -0.0132813687 0.03542979
v 0.127304628 -0.0132592628 0.03542979
v 0.127307355 -0.0131048644 0.03535263
v 0.126057982 -0.0130580682 0.0353369936
v 0.1285576 -0.0131022818 0.0353369936
v 0.127309859 -0.0129633388 0.0352476761
v 0.126060814 -0.0128981955 0.0352071077
v 0.128560424 -0.0129424091 0.0352071077
v 0.127312 -0.0128418589 0.03511878
v 0.126063108 -0.0127683273 0.03504721
v 0.128562719 -0.0128125409 0.03504721
v 0.1273137 -0.012745888 0.034972094
v 0.126064762 -0.0126755489 0.0348680951
v 0.128564358 -0.0127197625 0.0348680951
v 0.1273149 -0.01267839 0.0348151028
v 0.1260657 -0.01262204 0.03468196
v 0.128565311 -0.0126662534 0.03468196
v 0.127315581 -0.0126396148 0.03465548
v 0.126066 -0.0126053486 0.0345
v 0.128565609 -0.0126495622 0.0345000029
v 0.140535191 0.008142004 0.0345
v 0.136035889 0.008221588 0.0345
v 0.136035159 0.008179856 0.03495491
v 0.138284564 0.008126839 0.03502134
v 0.140534446 0.008100272 0.03495491
v 0.13603279 0.008046085 0.0354202352
v 0.140532076 0.007966501 0.0354202352
v 0.13828145 0.007950038 0.0355513
v 0.136028677 0.007814138 0.0358680263
v 0.140527979 0.007734554 0.0358680263
v 0.13827607 0.007645787 0.036046952
v 0.13602294 0.00748946844 0.0362677649
v 0.140522242 0.007409884 0.0362677649
v 0.1382687 0.007228892 0.03646391
v 0.136015877 0.00708978856 0.0365924872
v 0.140515164 0.00701020425 0.0365924872
v 0.138259917 0.00673331972 0.03676821
v 0.13600795 0.00664206967 0.0368244722
v 0.140507251 0.00656248536 0.0368244722
v 0.138250545 0.006203443 0.0369450375
v 0.135999724 0.00617681257 0.0369582623
v 0.138241336 0.005682185 0.037
v 0.140499026 0.00609722827 0.0369582623
v 0.135991678 0.00572197745 0.037
v 0.140490979 0.005642393 0.037
v 0.135983631 0.005267138 0.0369582623
v 0.140482932 0.005187554 0.0369582623
v 0.138232112 0.0051609287 0.0369450375
v 0.1359754 0.004801885 0.0368244722
v 0.1404747 0.004722301 0.0368244722
v 0.138225049 0.00476209261 0.0368244722
v 0.138218224 0.004376097 0.036631573
v 0.135967478 0.00435416773 0.0365924872
v 0.140466779 0.00427458342 0.0365924872
v 0.138211966 0.00402228162 0.0363691859
v 0.135960415 0.003954486 0.0362677649
v 0.140459716 0.003874902 0.0362677649
v 0.1382066 0.00371858221 0.036046952
v 0.135954678 0.0036298146 0.0358680263
v 0.140453964 0.00355023029 0.0358680263
v 0.138202354 0.00347865513 0.035680227
v 0.135950565 0.00339786964 0.0354202352
v 0.140449867 0.00331828534 0.0354202352
v 0.138199374 0.00330991182 0.03528776
v 0.1359482 0.0032640968 0.03495491
v 0.1404475 0.00318451249 0.03495491
v 0.13819766 0.00321297161 0.0348887034
v 0.135947466 0.003222368 0.0345
v 0.140446767 0.00314278365 0.0345
v 0.1359482 0.00326409866 0.0340450928
v 0.1381981 0.00323753059 0.03397866
v 0.1404475 0.00318451435 0.0340450928
v 0.135950565 0.00339786964 0.033579763
v 0.140449867 0.00331828534 0.033579763
v 0.138201222 0.00341433124 0.0334487
v 0.135954678 0.00362981646 0.0331319757
v 0.140453964 0.00355023216 0.0331319757
v 0.1382066 0.00371858221 0.03295305
v 0.135960415 0.003954486 0.0327322334
v 0.140459716 0.003874902 0.0327322334
v 0.138213977 0.00413547549 0.03253609
v 0.135967478 0.00435416773 0.03240751
v 0.140466779 0.00427458342 0.03240751
v 0.138222739 0.00463105 0.0322317928
v 0.1359754 0.004801885 0.03217553
v 0.1404747 0.004722301 0.03217553
v 0.138232112 0.0051609287 0.0320549645
v 0.135983631 0.005267138 0.0320417359
v 0.138241336 0.005682185 0.032
v 0.140482932 0.005187554 0.0320417359
v 0.135991678 0.00572197745 0.0319999978
v 0.140490979 0.005642393 0.0319999978
v 0.135999724 0.00617681257 0.0320417359
v 0.140499026 0.00609722827 0.0320417359
v 0.138250545 0.006203443 0.0320549645
v 0.13600795 0.00664206967 0.03217553
v 0.140507251 0.00656248536 0.03217553
v 0.138257608 0.006602277 0.03217553
v 0.138264433 0.006988276 0.03236843
v 0.136015877 0.00708978856 0.03240751
v 0.140515164 0.00701020425 0.03240751
v 0.138270691 0.00734208571 0.0326308124
v 0.13602294 0.00748946844 0.0327322334
v 0.140522242 0.007409884 0.0327322334
v 0.13827607 0.007645787 0.03295305
v 0.136028677 0.007814138 0.0331319757
v 0.140527979 0.007734554 0.0331319757
v 0.1382803 0.007885714 0.03331977
v 0.13603279 0.008046085 0.033579763
v 0.140532076 0.007966501 0.033579763
v 0.1382833 0.008054459 0.03371224
v 0.136035159 0.008179856 0.0340450928
v 0.140534446 0.008100272 0.0340450928
v 0.138285011 0.008151398 0.0341113
v 0.136035889 0.008221588 0.0345
v 0.140535191 0.008142004 0.0345
v 0.136097789 0.0117210364 0.0345
v 0.130598649 0.0118183075 0.0345
v 0.130596876 0.0117181577 0.0355917774
v 0.133345887 0.0116377836 0.03575121
v 0.136096016 0.0116208866 0.0355917774
v 0.1305912 0.0113971056 0.0367085673
v 0.136090338 0.0112998346 0.0367085673
v 0.133338392 0.0112134609 0.03702312
v 0.130581349 0.0108404374 0.0377832577
v 0.136080489 0.0107431663 0.0377832577
v 0.133325472 0.01048326 0.0382126831
v 0.13056758 0.0100612249 0.03874264
v 0.1360667 0.009963954 0.03874264
v 0.13330777 0.009482716 0.03921338
v 0.130550608 0.009101992 0.0395219736
v 0.136049747 0.00900472049 0.0395219736
v 0.133286729 0.008293339 0.0399437
v 0.130531609 0.008027472 0.04007873
v 0.136030734 0.007930201 0.04007873
v 0.133264244 0.00702162832 0.0403680876
v 0.13051185 0.006910856 0.0403998345
v 0.133242115 0.005770613 0.0405
v 0.13601099 0.006813585 0.0403998345
v 0.130492538 0.0058192485 0.0405
v 0.135991678 0.00572197745 0.0405
v 0.130473226 0.00472764065 0.0403998345
v 0.135972366 0.0046303696 0.0403998345
v 0.133219987 0.004519599 0.0403680876
v 0.130453482 0.0036110247 0.04007873
v 0.135952622 0.00351375365 0.04007873
v 0.133203045 0.00356238917 0.04007873
v 0.133186668 0.00263600028 0.0396157727
v 0.130434483 0.00253650337 0.0395219736
v 0.135933608 0.00243923231 0.0395219736
v 0.133171648 0.00178684806 0.03898605
v 0.130417511 0.001577271 0.03874264
v 0.13591665 0.00148 0.03874264
v 0.133158758 0.00105796743 0.0382126831
v 0.130403727 0.0007980603 0.0377832577
v 0.135902867 0.0007007893 0.0377832577
v 0.133148566 0.000482141622 0.03733255
v 0.130393878 0.000241390633 0.0367085673
v 0.135893017 0.000144119578 0.0367085673
v 0.1331414 7.715881E-05 0.03639062
v 0.1303882 -7.966146E-05 0.0355917774
v 0.13588734 -0.000176932517 0.0355917774
v 0.133137286 -0.000155492016 0.0354328826
v 0.130386427 -0.0001798133 0.0345
v 0.135885566 -0.000277084357 0.0345
v 0.1303882 -7.966239E-05 0.03340822
v 0.133138329 -9.655877E-05 0.03324879
v 0.13588734 -0.000176933449 0.03340822
v 0.130393878 0.000241391564 0.03229143
v 0.135893017 0.00014412051 0.03229143
v 0.133145839 0.0003277646 0.03197688
v 0.130403727 0.0007980603 0.03121674
v 0.135902867 0.0007007893 0.03121674
v 0.133158758 0.00105796556 0.0307873171
v 0.130417511 0.001577272 0.03025736
v 0.13591665 0.00148000091 0.03025736
v 0.133176446 0.00205851253 0.0297866147
v 0.130434483 0.00253650337 0.0294780284
v 0.135933608 0.00243923231 0.0294780284
v 0.133197486 0.003247887 0.0290563013
v 0.130453482 0.00361102563 0.0289212689
v 0.135952622 0.00351375458 0.0289212689
v 0.133219987 0.004519599 0.0286319088
v 0.130473226 0.00472764065 0.0286001675
v 0.133242115 0.005770613 0.0285
v 0.135972366 0.0046303696 0.0286001675
v 0.130492538 0.0058192485 0.0284999982
v 0.135991678 0.00572197745 0.0284999982
v 0.13051185 0.006910856 0.0286001675
v 0.13601099 0.006813585 0.0286001675
v 0.133264244 0.00702163 0.0286319088
v 0.130531609 0.008027472 0.0289212689
v 0.136030734 0.007930201 0.0289212689
v 0.133281171 0.007978836 0.028921267
v 0.133297563 0.008905223 0.0293842275
v 0.130550608 0.009101992 0.0294780284
v 0.136049747 0.00900472049 0.0294780284
v 0.133312583 0.009754377 0.0300139468
v 0.13056758 0.0100612249 0.03025736
v 0.1360667 0.009963954 0.03025736
v 0.133325472 0.01048326 0.0307873171
v 0.130581349 0.0108404374 0.03121674
v 0.136080489 0.0107431663 0.03121674
v 0.13333565 0.011059083 0.03166745
v 0.1305912 0.0113971056 0.03229143
v 0.136090338 0.0112998346 0.03229143
v 0.133342817 0.0114640668 0.03260938
v 0.130596876 0.01171816 0.03340822
v 0.136096016 0.0116208885 0.03340822
v 0.13334693 0.0116967214 0.0335671157
v 0.130598649 0.0118183075 0.0345
v 0.136097789 0.0117210364 0.0345
v 0.126007631 -0.01590483 0.0285
v 0.126092523 -0.011105583 0.0285
v 0.128507242 -0.0159490444 0.0285
v 0.128592134 -0.0111497967 0.0285
v 0.130492538 0.0058192485 0.0284999982
v 0.130191892 -0.011178094 0.0284999982
v 0.119097039 0.000519953668 0.0285
v 0.107595421 -0.010778402 0.0285
v 0.108002186 0.0122180013 0.0285
v 0.1264993 0.01189082 0.0285
v 0.1289989 0.0118466066 0.0285
v 0.130598649 0.0118183093 0.0284999982
v 0.126584187 0.0166900717 0.0285
v 0.1290838 0.0166458581 0.0285
v 0.126007631 -0.01590483 0.0405
v 0.128507242 -0.0159490444 0.0405
v 0.126092523 -0.011105583 0.0405
v 0.128592134 -0.0111497967 0.0405
v 0.130492538 0.0058192485 0.0405
v 0.130191892 -0.011178094 0.0405
v 0.119097039 0.0005199546 0.0405
v 0.107595421 -0.010778402 0.0405
v 0.108002186 0.0122180013 0.0405
v 0.1264993 0.01189082 0.0405
v 0.1289989 0.0118466066 0.0405
v 0.130598649 0.0118183093 0.0405
v 0.126584187 0.01669007 0.0405
v 0.1290838 0.0166458562 0.0405
v 0.126092523 -0.011105583 0.0405
v 0.1260657 -0.01262204 0.03468196
v 0.126064762 -0.0126755489 0.0348680951
v 0.126063108 -0.0127683273 0.03504721
v 0.126060814 -0.0128981955 0.0352071077
v 0.126057982 -0.0130580682 0.0353369936
v 0.126054823 -0.013237155 0.0354297869
v 0.12605153 -0.0134232575 0.0354833044
v 0.126066 -0.0126053486 0.0345
v 0.126048312 -0.0136051923 0.0354999974
v 0.126092523 -0.011105583 0.0285
v 0.1260657 -0.01262204 0.0343180373
v 0.126064762 -0.0126755489 0.0341319069
v 0.126007631 -0.01590483 0.0405
v 0.1260451 -0.0137871262 0.0354833044
v 0.1260418 -0.01397323 0.0354297869
v 0.126063108 -0.0127683273 0.03395279
v 0.126038641 -0.0141523154 0.0353369936
v 0.126060814 -0.0128981955 0.0337928943
v 0.12603581 -0.0143121881 0.0352071077
v 0.126057982 -0.0130580682 0.0336630046
v 0.126033515 -0.0144420564 0.03504721
v 0.126054823 -0.013237155 0.03357021
v 0.12605153 -0.0134232575 0.0335166939
v 0.126048312 -0.0136051923 0.0335
v 0.126007631 -0.01590483 0.0285
v 0.1260451 -0.0137871262 0.0335166939
v 0.1260418 -0.01397323 0.03357021
v 0.126031876 -0.0145348357 0.0348680951
v 0.126030922 -0.014588343 0.03468196
v 0.126030624 -0.0146050351 0.0345
v 0.126038641 -0.0141523154 0.0336630046
v 0.126030922 -0.014588343 0.0343180373
v 0.12603581 -0.0143121881 0.0337928943
v 0.126031876 -0.0145348357 0.0341319069
v 0.126033515 -0.0144420564 0.03395279
v 0.127257437 -0.0159269385 0.0345000029
v 0.128507242 -0.0159490444 0.0285
v 0.128507242 -0.0159490444 0.0405
v 0.126007631 -0.01590483 0.0405
v 0.126007631 -0.01590483 0.0285
v 0.128592134 -0.0111497967 0.0285
v 0.128565311 -0.0126662534 0.0343180373
v 0.128564358 -0.0127197625 0.0341319069
v 0.128562719 -0.0128125409 0.0339527875
v 0.128560424 -0.0129424091 0.03379289
v 0.1285576 -0.0131022818 0.0336630046
v 0.128554434 -0.0132813687 0.03357021
v 0.12855114 -0.0134674711 0.0335166939
v 0.128565609 -0.0126495622 0.0345000029
v 0.128547922 -0.0136494059 0.0335
v 0.128592134 -0.0111497967 0.0405
v 0.128565311 -0.0126662534 0.03468196
v 0.128564358 -0.0127197625 0.0348680951
v 0.128507242 -0.0159490444 0.0285
v 0.1285447 -0.01383134 0.0335166939
v 0.12854141 -0.0140174432 0.03357021
v 0.128562719 -0.0128125409 0.03504721
v 0.128538236 -0.0141965291 0.0336630046
v 0.128560424 -0.0129424091 0.0352071077
v 0.12853542 -0.0143564017 0.03379289
v 0.1285576 -0.0131022818 0.0353369936
v 0.128533125 -0.01448627 0.0339527875
v 0.128554434 -0.0132813687 0.03542979
v 0.12855114 -0.0134674711 0.0354833081
v 0.128547922 -0.0136494059 0.0354999974
v 0.128507242 -0.0159490444 0.0405
v 0.1285447 -0.01383134 0.0354833081
v 0.12854141 -0.0140174432 0.03542979
v 0.128531471 -0.0145790493 0.0341319069
v 0.128530532 -0.0146325566 0.0343180373
v 0.128530234 -0.0146492487 0.0345000029
v 0.128538236 -0.0141965291 0.0353369936
v 0.128530532 -0.0146325566 0.03468196
v 0.12853542 -0.0143564017 0.0352071077
v 0.128531471 -0.0145790493 0.0348680951
v 0.128533125 -0.01448627 0.03504721
v 0.129392013 -0.0111639453 0.0345
v 0.130191892 -0.011178094 0.0284999982
v 0.130191892 -0.011178094 0.0405
v 0.128592134 -0.0111497967 0.0405
v 0.128592134 -0.0111497967 0.0285
v 0.1289989 0.0118466066 0.0285
v 0.12979877 0.0118324561 0.0345
v 0.130598649 0.0118183093 0.0284999982
v 0.1289989 0.0118466066 0.0405
v 0.130598649 0.0118183075 0.0345
v 0.130598649 0.0118183093 0.0405
v 0.1290838 0.0166458581 0.0285
v 0.1290605 0.0153293665 0.0343180373
v 0.129059553 0.015275863 0.0341319069
v 0.129057914 0.0151830819 0.0339527875
v 0.129055619 0.0150532126 0.03379289
v 0.129052788 0.0148933409 0.0336630046
v 0.129049629 0.0147142531 0.03357021
v 0.129046336 0.0145281516 0.0335166939
v 0.1290608 0.0153460605 0.0345000029
v 0.129043117 0.0143462187 0.0335
v 0.1290838 0.0166458562 0.0405
v 0.1290605 0.0153293684 0.03468196
v 0.129059553 0.0152758611 0.0348680951
v 0.1289989 0.0118466066 0.0285
v 0.1290399 0.0141642811 0.0335166939
v 0.1290366 0.0139781805 0.03357021
v 0.129057914 0.01518308 0.03504721
v 0.129033431 0.0137990927 0.0336630046
v 0.129055619 0.0150532126 0.0352071077
v 0.129030615 0.013639221 0.03379289
v 0.129052788 0.0148933409 0.0353369936
v 0.12902832 0.0135093508 0.0339527875
v 0.129049629 0.0147142531 0.03542979
v 0.129046336 0.0145281516 0.0354833081
v 0.129043117 0.0143462168 0.0354999974
v 0.1289989 0.0118466066 0.0405
v 0.1290399 0.0141642811 0.0354833081
v 0.1290366 0.0139781805 0.03542979
v 0.129026666 0.0134165725 0.0341319069
v 0.129025728 0.0133630652 0.0343180373
v 0.129025429 0.0133463731 0.0345000029
v 0.129033431 0.0137990946 0.0353369936
v 0.129025728 0.0133630652 0.03468196
v 0.129030615 0.013639221 0.0352071077
v 0.129026666 0.0134165725 0.0348680951
v 0.12902832 0.0135093508 0.03504721
v 0.127833992 0.0166679621 0.0345000029
v 0.126584187 0.0166900717 0.0285
v 0.126584187 0.01669007 0.0405
v 0.1290838 0.0166458562 0.0405
v 0.1290838 0.0166458581 0.0285
v 0.126584187 0.01669007 0.0405
v 0.1265609 0.015373582 0.03468196
v 0.126559943 0.0153200747 0.0348680951
v 0.1265583 0.0152272936 0.03504721
v 0.126556009 0.0150974263 0.0352071077
v 0.126553178 0.0149375545 0.0353369936
v 0.126550019 0.0147584667 0.0354297869
v 0.126546726 0.0145723652 0.0354833044
v 0.1265612 0.0153902741 0.0345
v 0.1265435 0.01439043 0.0354999974
v 0.126584187 0.0166900717 0.0285
v 0.1265609 0.01537358 0.0343180373
v 0.126559943 0.0153200766 0.0341319069
v 0.1264993 0.01189082 0.0405
v 0.126540288 0.0142084947 0.0354833044
v 0.126537 0.0140223941 0.0354297869
v 0.1265583 0.0152272955 0.03395279
v 0.126533836 0.0138433082 0.0353369936
v 0.126556009 0.0150974263 0.0337928943
v 0.126531 0.0136834346 0.0352071077
v 0.126553178 0.0149375545 0.0336630046
v 0.12652871 0.0135535644 0.03504721
v 0.126550019 0.0147584667 0.03357021
v 0.126546726 0.0145723652 0.0335166939
v 0.1265435 0.0143904323 0.0335
v 0.1264993 0.01189082 0.0285
v 0.126540288 0.0142084947 0.0335166939
v 0.126537 0.0140223941 0.03357021
v 0.126527071 0.0134607861 0.0348680951
v 0.126526117 0.0134072788 0.03468196
v 0.126525819 0.0133905867 0.0345
v 0.126533836 0.0138433063 0.0336630046
v 0.126526117 0.0134072788 0.0343180373
v 0.126531 0.0136834346 0.0337928943
v 0.126527071 0.0134607861 0.0341319069
v 0.12652871 0.0135535644 0.03395279
v 0.117250741 0.0120544089 0.0345
v 0.108002186 0.0122180013 0.0285
v 0.108002186 0.0122180013 0.0405
v 0.1264993 0.01189082 0.0405
v 0.1264993 0.01189082 0.0285
v 0.1077988 0.00071979966 0.0345
v 0.107595421 -0.010778402 0.0285
v 0.107595421 -0.010778402 0.0405
v 0.108002186 0.0122180013 0.0405
v 0.108002186 0.0122180013 0.0285
v 0.1305912 0.0113971056 0.03229143
v 0.130598649 0.0118183093 0.0284999982
v 0.130596876 0.01171816 0.03340822
v 0.130581349 0.0108404374 0.03121674
v 0.130598649 0.0118183075 0.0345
v 0.13056758 0.0100612249 0.03025736
v 0.130550608 0.009101992 0.0294780284
v 0.130531609 0.008027472 0.0289212689
v 0.13051185 0.006910856 0.0286001675
v 0.130492538 0.0058192485 0.0284999982
v 0.130598649 0.0118183093 0.0405
v 0.130596876 0.0117181577 0.0355917774
v 0.1305912 0.0113971056 0.0367085673
v 0.130581349 0.0108404374 0.0377832577
v 0.13056758 0.0100612249 0.03874264
v 0.130550608 0.009101992 0.0395219736
v 0.130531609 0.008027472 0.04007873
v 0.13051185 0.006910856 0.0403998345
v 0.130492538 0.0058192485 0.0405
v 0.130473226 0.00472764065 0.0286001675
v 0.130191892 -0.011178094 0.0284999982
v 0.130453482 0.00361102563 0.0289212689
v 0.130434483 0.00253650337 0.0294780284
v 0.130417511 0.001577272 0.03025736
v 0.130403727 0.0007980603 0.03121674
v 0.130393878 0.000241391564 0.03229143
v 0.130342215 -0.00267942273 0.0345
v 0.130191892 -0.011178094 0.0405
v 0.130473226 0.00472764065 0.0403998345
v 0.1303882 -7.966239E-05 0.03340822
v 0.130453482 0.0036110247 0.04007873
v 0.130386427 -0.0001798133 0.0345
v 0.1303882 -7.966146E-05 0.0355917774
v 0.130393878 0.000241390633 0.0367085673
v 0.130434483 0.00253650337 0.0395219736
v 0.130403727 0.0007980603 0.0377832577
v 0.130417511 0.001577271 0.03874264
v 0.135991678 0.00572197745 0.037
v 0.135991678 0.00572197745 0.0405
v 0.135972366 0.0046303696 0.0403998345
v 0.13601099 0.006813585 0.0403998345
v 0.135983631 0.005267138 0.0369582623
v 0.135999724 0.00617681257 0.0369582623
v 0.135952622 0.00351375365 0.04007873
v 0.136030734 0.007930201 0.04007873
v 0.1359754 0.004801885 0.0368244722
v 0.13600795 0.00664206967 0.0368244722
v 0.135933608 0.00243923231 0.0395219736
v 0.136049747 0.00900472049 0.0395219736
v 0.135967478 0.00435416773 0.0365924872
v 0.136015877 0.00708978856 0.0365924872
v 0.13591665 0.00148 0.03874264
v 0.1360667 0.009963954 0.03874264
v 0.135960415 0.003954486 0.0362677649
v 0.13602294 0.00748946844 0.0362677649
v 0.135902867 0.0007007893 0.0377832577
v 0.136080489 0.0107431663 0.0377832577
v 0.135954678 0.0036298146 0.0358680263
v 0.136028677 0.007814138 0.0358680263
v 0.135893017 0.000144119578 0.0367085673
v 0.136090338 0.0112998346 0.0367085673
v 0.135950565 0.00339786964 0.0354202352
v 0.13603279 0.008046085 0.0354202352
v 0.13588734 -0.000176932517 0.0355917774
v 0.136096016 0.0116208866 0.0355917774
v 0.1359482 0.0032640968 0.03495491
v 0.136035159 0.008179856 0.03495491
v 0.135885566 -0.000277084357 0.0345
v 0.135947466 0.003222368 0.0345
v 0.136097789 0.0117210364 0.0345
v 0.136035889 0.008221588 0.0345
v 0.136035159 0.008179856 0.0340450928
v 0.136096016 0.0116208885 0.03340822
v 0.13603279 0.008046085 0.033579763
v 0.136090338 0.0112998346 0.03229143
v 0.136028677 0.007814138 0.0331319757
v 0.136080489 0.0107431663 0.03121674
v 0.13602294 0.00748946844 0.0327322334
v 0.1360667 0.009963954 0.03025736
v 0.136015877 0.00708978856 0.03240751
v 0.136049747 0.00900472049 0.0294780284
v 0.13600795 0.00664206967 0.03217553
v 0.136030734 0.007930201 0.0289212689
v 0.135999724 0.00617681257 0.0320417359
v 0.13601099 0.006813585 0.0286001675
v 0.135991678 0.00572197745 0.0284999982
v 0.135991678 0.00572197745 0.0319999978
v 0.135972366 0.0046303696 0.0286001675
v 0.135983631 0.005267138 0.0320417359
v 0.135952622 0.00351375458 0.0289212689
v 0.1359754 0.004801885 0.03217553
v 0.135933608 0.00243923231 0.0294780284
v 0.135967478 0.00435416773 0.03240751
v 0.13591665 0.00148000091 0.03025736
v 0.135960415 0.003954486 0.0327322334
v 0.135902867 0.0007007893 0.03121674
v 0.135954678 0.00362981646 0.0331319757
v 0.135893017 0.00014412051 0.03229143
v 0.135950565 0.00339786964 0.033579763
v 0.13588734 -0.000176933449 0.03340822
v 0.1359482 0.00326409866 0.0340450928
v 0.140527979 0.007734554 0.0358680263
v 0.140490979 0.005642393 0.0345
v 0.140532076 0.007966501 0.0354202352
v 0.140522242 0.007409884 0.0362677649
v 0.140534446 0.008100272 0.03495491
v 0.140515164 0.00701020425 0.0365924872
v 0.140535191 0.008142004 0.0345
v 0.140507251 0.00656248536 0.0368244722
v 0.140534446 0.008100272 0.0340450928
v 0.140499026 0.00609722827 0.0369582623
v 0.140532076 0.007966501 0.033579763
v 0.140490979 0.005642393 0.037
v 0.140527979 0.007734554 0.0331319757
v 0.140482932 0.005187554 0.0369582623
v 0.140522242 0.007409884 0.0327322334
v 0.1404747 0.004722301 0.0368244722
v 0.140515164 0.00701020425 0.03240751
v 0.140466779 0.00427458342 0.0365924872
v 0.140507251 0.00656248536 0.03217553
v 0.140459716 0.003874902 0.0362677649
v 0.140499026 0.00609722827 0.0320417359
v 0.140453964 0.00355023029 0.0358680263
v 0.140490979 0.005642393 0.0319999978
v 0.140449867 0.00331828534 0.0354202352
v 0.140482932 0.005187554 0.0320417359
v 0.1404475 0.00318451249 0.03495491
v 0.1404747 0.004722301 0.03217553
v 0.140446767 0.00314278365 0.0345
v 0.140466779 0.00427458342 0.03240751
v 0.1404475 0.00318451435 0.0340450928
v 0.140459716 0.003874902 0.0327322334
v 0.140449867 0.00331828534 0.033579763
v 0.140453964 0.00355023216 0.0331319757
v 0.107595421 -0.010778402 0.0285
v 0.116843969 -0.0109419925 0.0345
v 0.107595421 -0.010778402 0.0405
v 0.126092523 -0.011105583 0.0285
v 0.126092523 -0.011105583 0.0405
f 1 2 3
f 1 3 4
f 5 1 4
f 4 3 6
f 7 5 4
f 8 4 6
f 7 4 8
f 8 6 9
f 10 7 8
f 11 8 9
f 10 8 11
f 11 9 12
f 13 10 11
f 14 11 12
f 13 11 14
f 14 12 15
f 16 13 14
f 17 14 15
f 16 14 17
f 17 15 18
f 19 16 17
f 20 17 18
f 19 17 20
f 20 18 21
f 22 20 21
f 23 19 20
f 23 20 22
f 22 21 24
f 25 23 22
f 26 22 24
f 27 25 22
f 28 22 26
f 27 22 28
f 29 28 26
f 30 27 28
f 31 28 29
f 31 30 28
f 32 31 29
f 31 32 30
f 32 29 33
f 32 34 30
f 35 32 33
f 32 35 34
f 35 33 36
f 35 37 34
f 38 35 36
f 35 38 37
f 38 36 39
f 38 40 37
f 41 38 39
f 38 41 40
f 41 39 42
f 41 43 40
f 44 41 42
f 41 44 43
f 44 42 45
f 44 46 43
f 47 44 45
f 44 47 46
f 47 45 48
f 46 47 49
f 47 48 49
f 48 50 49
f 50 51 49
f 49 51 52
f 50 53 51
f 51 54 52
f 53 55 51
f 51 55 54
f 53 56 55
f 55 57 54
f 56 58 55
f 55 58 57
f 56 59 58
f 58 60 57
f 59 61 58
f 58 61 60
f 59 62 61
f 61 63 60
f 62 64 61
f 61 64 63
f 62 65 64
f 64 66 63
f 65 67 64
f 64 67 66
f 65 68 67
f 68 69 67
f 67 70 66
f 67 69 70
f 68 71 69
f 69 72 70
f 71 73 69
f 69 74 72
f 73 75 69
f 69 75 74
f 73 76 75
f 75 77 74
f 76 78 75
f 75 78 77
f 76 79 78
f 79 77 78
f 80 79 76
f 79 81 77
f 82 79 80
f 79 82 81
f 83 82 80
f 82 84 81
f 85 82 83
f 82 85 84
f 86 85 83
f 85 87 84
f 88 85 86
f 85 88 87
f 89 88 86
f 88 90 87
f 91 88 89
f 88 91 90
f 92 91 89
f 91 93 90
f 94 91 92
f 91 94 93
f 95 94 92
f 94 96 93
f 94 95 96
f 97 98 99
f 97 99 100
f 101 97 100
f 100 99 102
f 103 101 100
f 104 100 102
f 103 100 104
f 104 102 105
f 106 103 104
f 107 104 105
f 106 104 107
f 107 105 108
f 109 106 107
f 110 107 108
f 109 107 110
f 110 108 111
f 112 109 110
f 113 110 111
f 112 110 113
f 113 111 114
f 115 112 113
f 116 113 114
f 115 113 116
f 116 114 117
f 118 116 117
f 119 115 116
f 119 116 118
f 118 117 120
f 121 119 118
f 122 118 120
f 123 121 118
f 124 118 122
f 123 118 124
f 125 124 122
f 126 123 124
f 127 124 125
f 127 126 124
f 128 127 125
f 127 128 126
f 128 125 129
f 128 130 126
f 131 128 129
f 128 131 130
f 131 129 132
f 131 133 130
f 134 131 132
f 131 134 133
f 134 132 135
f 134 136 133
f 137 134 135
f 134 137 136
f 137 135 138
f 137 139 136
f 140 137 138
f 137 140 139
f 140 138 141
f 140 142 139
f 143 140 141
f 140 143 142
f 143 141 144
f 142 143 145
f 143 144 145
f 144 146 145
f 146 147 145
f 145 147 148
f 146 149 147
f 147 150 148
f 149 151 147
f 147 151 150
f 149 152 151
f 151 153 150
f 152 154 151
f 151 154 153
f 152 155 154
f 154 156 153
f 155 157 154
f 154 157 156
f 155 158 157
f 157 159 156
f 158 160 157
f 157 160 159
f 158 161 160
f 160 162 159
f 161 163 160
f 160 163 162
f 161 164 163
f 164 165 163
f 163 166 162
f 163 165 166
f 164 167 165
f 165 168 166
f 167 169 165
f 165 170 168
f 169 171 165
f 165 171 170
f 169 172 171
f 171 173 170
f 172 174 171
f 171 174 173
f 172 175 174
f 175 173 174
f 176 175 172
f 175 177 173
f 178 175 176
f 175 178 177
f 179 178 176
f 178 180 177
f 181 178 179
f 178 181 180
f 182 181 179
f 181 183 180
f 184 181 182
f 181 184 183
f 185 184 182
f 184 186 183
f 187 184 185
f 184 187 186
f 188 187 185
f 187 189 186
f 190 187 188
f 187 190 189
f 191 190 188
f 190 192 189
f 190 191 192
f 193 194 195
f 193 195 196
f 197 193 196
f 196 195 198
f 199 197 196
f 200 196 198
f 199 196 200
f 200 198 201
f 202 199 200
f 203 200 201
f 202 200 203
f 203 201 204
f 205 202 203
f 206 203 204
f 205 203 206
f 206 204 207
f 208 205 206
f 209 206 207
f 208 206 209
f 209 207 210
f 211 208 209
f 212 209 210
f 211 209 212
f 212 210 213
f 214 212 213
f 215 211 212
f 215 212 214
f 214 213 216
f 217 215 214
f 218 214 216
f 219 217 214
f 220 214 218
f 219 214 220
f 221 220 218
f 222 219 220
f 223 220 221
f 223 222 220
f 224 223 221
f 223 224 222
f 224 221 225
f 224 226 222
f 227 224 225
f 224 227 226
f 227 225 228
f 227 229 226
f 230 227 228
f 227 230 229
f 230 228 231
f 230 232 229
f 233 230 231
f 230 233 232
f 233 231 234
f 233 235 232
f 236 233 234
f 233 236 235
f 236 234 237
f 236 238 235
f 239 236 237
f 236 239 238
f 239 237 240
f 238 239 241
f 239 240 241
f 240 242 241
f 242 243 241
f 241 243 244
f 242 245 243
f 243 246 244
f 245 247 243
f 243 247 246
f 245 248 247
f 247 249 246
f 248 250 247
f 247 250 249
f 248 251 250
f 250 252 249
f 251 253 250
f 250 253 252
f 251 254 253
f 253 255 252
f 254 256 253
f 253 256 255
f 254 257 256
f 256 258 255
f 257 259 256
f 256 259 258
f 257 260 259
f 260 261 259
f 259 262 258
f 259 261 262
f 260 263 261
f 261 264 262
f 263 265 261
f 261 266 264
f 265 267 261
f 261 267 266
f 265 268 267
f 267 269 266
f 268 270 267
f 267 270 269
f 268 271 270
f 271 269 270
f 272 271 268
f 271 273 269
f 274 271 272
f 271 274 273
f 275 274 272
f 274 276 273
f 277 274 275
f 274 277 276
f 278 277 275
f 277 279 276
f 280 277 278
f 277 280 279
f 281 280 278
f 280 282 279
f 283 280 281
f 280 283 282
f 284 283 281
f 283 285 282
f 286 283 284
f 283 286 285
f 287 286 284
f 286 288 285
f 286 287 288
f 289 290 291
f 289 291 292
f 293 289 292
f 292 291 294
f 295 293 292
f 296 292 294
f 295 292 296
f 296 294 297
f 298 295 296
f 299 296 297
f 298 296 299
f 299 297 300
f 301 298 299
f 302 299 300
f 301 299 302
f 302 300 303
f 304 301 302
f 305 302 303
f 304 302 305
f 305 303 306
f 307 304 305
f 308 305 306
f 307 305 308
f 308 306 309
f 310 308 309
f 311 307 308
f 311 308 310
f 310 309 312
f 313 311 310
f 314 310 312
f 315 313 310
f 316 310 314
f 315 310 316
f 317 316 314
f 318 315 316
f 319 316 317
f 319 318 316
f 320 319 317
f 319 320 318
f 320 317 321
f 320 322 318
f 323 320 321
f 320 323 322
f 323 321 324
f 323 325 322
f 326 323 324
f 323 326 325
f 326 324 327
f 326 328 325
f 329 326 327
f 326 329 328
f 329 327 330
f 329 331 328
f 332 329 330
f 329 332 331
f 332 330 333
f 332 334 331
f 335 332 333
f 332 335 334
f 335 333 336
f 334 335 337
f 335 336 337
f 336 338 337
f 338 339 337
f 337 339 340
f 338 341 339
f 339 342 340
f 341 343 339
f 339 343 342
f 341 344 343
f 343 345 342
f 344 346 343
f 343 346 345
f 344 347 346
f 346 348 345
f 347 349 346
f 346 349 348
f 347 350 349
f 349 351 348
f 350 352 349
f 349 352 351
f 350 353 352
f 352 354 351
f 353 355 352
f 352 355 354
f 353 356 355
f 356 357 355
f 355 358 354
f 355 357 358
f 356 359 357
f 357 360 358
f 359 361 357
f 357 362 360
f 361 363 357
f 357 363 362
f 361 364 363
f 363 365 362
f 364 366 363
f 363 366 365
f 364 367 366
f 367 365 366
f 368 367 364
f 367 369 365
f 370 367 368
f 367 370 369
f 371 370 368
f 370 372 369
f 373 370 371
f 370 373 372
f 374 373 371
f 373 375 372
f 376 373 374
f 373 376 375
f 377 376 374
f 376 378 375
f 379 376 377
f 376 379 378
f 380 379 377
f 379 381 378
f 382 379 380
f 379 382 381
f 383 382 380
f 382 384 381
f 382 383 384
f 385 386 387
f 386 388 387
f 386 389 388
f 389 390 388
f 391 389 386
f 392 391 386
f 391 392 393
f 391 393 394
f 389 391 394
f 389 394 395
f 396 389 395
f 395 394 397
f 398 395 397
f 399 400 401
f 400 402 401
f 402 403 401
f 402 404 403
f 403 405 401
f 405 406 401
f 405 407 406
f 407 405 408
f 405 403 408
f 403 409 408
f 409 403 410
f 409 411 408
f 409 412 411
f 413 414 415
f 416 413 415
f 413 416 417
f 413 417 418
f 419 413 418
f 413 419 420
f 413 421 414
f 413 420 422
f 413 423 421
f 423 424 421
f 423 425 424
f 426 413 422
f 426 422 427
f 426 427 428
f 425 423 429
f 430 426 428
f 423 431 429
f 426 430 432
f 423 433 431
f 426 432 434
f 433 423 435
f 423 436 435
f 423 437 436
f 423 438 437
f 438 439 437
f 438 440 439
f 441 426 434
f 426 441 442
f 426 442 443
f 438 426 443
f 440 438 444
f 438 443 445
f 438 446 444
f 438 445 447
f 438 448 446
f 448 438 447
f 449 450 451
f 449 451 452
f 450 449 453
f 453 449 452
f 454 455 456
f 457 454 456
f 454 457 458
f 454 458 459
f 460 454 459
f 454 460 461
f 454 462 455
f 454 461 463
f 454 464 462
f 464 465 462
f 464 466 465
f 467 454 463
f 467 463 468
f 467 468 469
f 466 464 470
f 471 467 469
f 464 472 470
f 467 471 473
f 464 474 472
f 467 473 475
f 474 464 476
f 464 477 476
f 464 478 477
f 464 479 478
f 479 480 478
f 479 481 480
f 482 467 475
f 467 482 483
f 467 483 484
f 479 467 484
f 481 479 485
f 479 484 486
f 479 487 485
f 479 486 488
f 479 489 487
f 489 479 488
f 490 491 492
f 490 492 493
f 491 490 494
f 494 490 493
f 495 496 497
f 496 495 498
f 496 499 497
f 496 498 500
f 499 496 500
f 501 502 503
f 504 501 503
f 501 504 505
f 501 505 506
f 507 501 506
f 501 507 508
f 501 509 502
f 501 508 510
f 501 511 509
f 511 512 509
f 511 513 512
f 514 501 510
f 514 510 515
f 514 515 516
f 513 511 517
f 518 514 516
f 511 519 517
f 514 518 520
f 511 521 519
f 514 520 522
f 521 511 523
f 511 524 523
f 511 525 524
f 511 526 525
f 526 527 525
f 526 528 527
f 529 514 522
f 514 529 530
f 514 530 531
f 526 514 531
f 528 526 532
f 526 531 533
f 526 534 532
f 526 533 535
f 526 536 534
f 536 526 535
f 537 538 539
f 537 539 540
f 538 537 541
f 541 537 540
f 542 543 544
f 545 542 544
f 542 545 546
f 542 546 547
f 548 542 547
f 542 548 549
f 542 550 543
f 542 549 551
f 542 552 550
f 552 553 550
f 552 554 553
f 555 542 551
f 555 551 556
f 555 556 557
f 554 552 558
f 559 555 557
f 552 560 558
f 555 559 561
f 552 562 560
f 555 561 563
f 562 552 564
f 552 565 564
f 552 566 565
f 552 567 566
f 567 568 566
f 567 569 568
f 570 555 563
f 555 570 571
f 555 571 572
f 567 555 572
f 569 567 573
f 567 572 574
f 567 575 573
f 567 574 576
f 567 577 575
f 577 567 576
f 578 579 580
f 578 580 581
f 579 578 582
f 582 578 581
f 583 584 585
f 583 585 586
f 584 583 587
f 587 583 586
f 588 589 590
f 589 588 591
f 589 592 590
f 589 591 593
f 594 589 593
f 589 594 595
f 589 595 596
f 597 589 596
f 592 598 599
f 598 600 599
f 598 601 600
f 601 598 602
f 598 603 602
f 598 604 603
f 604 598 605
f 598 606 605
f 607 608 597
f 608 607 609
f 608 609 610
f 611 608 610
f 608 611 612
f 608 612 613
f 614 608 613
f 608 614 615
f 606 615 616
f 614 613 617
f 615 618 616
f 619 614 617
f 614 619 620
f 614 620 621
f 615 614 621
f 615 622 618
f 615 621 623
f 622 615 624
f 615 623 624
f 625 626 627
f 625 628 626
f 629 625 627
f 625 630 628
f 629 627 631
f 630 632 628
f 633 629 631
f 630 634 632
f 633 631 635
f 634 636 632
f 637 633 635
f 634 638 636
f 637 635 639
f 638 640 636
f 641 637 639
f 638 642 640
f 641 639 643
f 642 644 640
f 645 641 643
f 642 646 644
f 645 643 647
f 646 648 644
f 649 645 647
f 646 650 648
f 649 647 651
f 650 652 648
f 653 649 651
f 650 654 652
f 653 651 655
f 656 653 655
f 654 657 652
f 657 654 658
f 657 658 659
f 660 657 659
f 659 661 660
f 661 662 660
f 661 663 662
f 663 664 662
f 663 665 664
f 665 666 664
f 665 667 666
f 667 668 666
f 667 669 668
f 669 670 668
f 669 671 670
f 671 672 670
f 671 673 672
f 671 674 673
f 674 675 673
f 674 676 675
f 676 677 675
f 676 678 677
f 678 679 677
f 678 680 679
f 680 681 679
f 680 682 681
f 682 683 681
f 682 684 683
f 684 685 683
f 684 686 685
f 686 687 685
f 686 688 687
f 688 656 687
f 656 655 687
f 689 690 691
f 690 689 692
f 690 693 691
f 690 692 694
f 693 690 695
f 696 690 694
f 690 697 695
f 690 696 698
f 690 699 697
f 690 698 700
f 699 690 701
f 702 690 700
f 690 703 701
f 690 702 704
f 690 705 703
f 690 704 706
f 705 690 707
f 708 690 706
f 690 709 707
f 690 708 710
f 690 711 709
f 690 710 712
f 711 690 713
f 714 690 712
f 690 715 713
f 690 714 716
f 690 717 715
f 690 716 718
f 717 690 719
f 720 690 718
f 690 721 719
f 690 720 721
f 722 723 724
f 725 723 722
f 723 726 724
f 723 725 726
