# ROS coordinates: X forward, Y left, Z up; units are metres.
o mesh
v 0.131780088 -0.00620540464 0.008
v 0.131780088 -0.00620540464 0.0100000007
v 0.131801635 -0.00649697147 0.0100000007
v 0.131809354 -0.006539631 0.009000001
v 0.131801635 -0.00649697147 0.008
v 0.131881982 -0.00679624965 0.0100000007
v 0.131881982 -0.00679624965 0.008
v 0.131916508 -0.006880754 0.009000001
v 0.132025361 -0.007085415 0.0100000007
v 0.132025361 -0.007085415 0.008
v 0.132105619 -0.007201365 0.009000001
v 0.132228628 -0.00734488573 0.0100000007
v 0.132228628 -0.00734488573 0.008
v 0.132367715 -0.00747289741 0.009000001
v 0.132480741 -0.00755719934 0.0100000007
v 0.132480741 -0.00755719934 0.008
v 0.132681429 -0.007673227 0.009000001
v 0.132764667 -0.007710714 0.0100000007
v 0.132764667 -0.007710714 0.008
v 0.133018553 -0.00779237971 0.009000001
v 0.1330609 -0.007801594 0.0100000007
v 0.133351535 -0.007833451 0.009000001
v 0.1330609 -0.007801594 0.008
v 0.133351535 -0.007833451 0.0100000007
v 0.133351535 -0.007833451 0.008
v 0.1336431 -0.007811892 0.0100000007
v 0.1336431 -0.007811892 0.008
v 0.133685753 -0.00780418143 0.009000001
v 0.133942381 -0.00773154572 0.0100000007
v 0.133942381 -0.00773154572 0.008
v 0.133942381 -0.00773154572 0.009000001
v 0.1341916 -0.007612478 0.009000001
v 0.134231538 -0.00758816861 0.0100000007
v 0.134231538 -0.00758816861 0.008
v 0.134421 -0.00744858524 0.009000001
v 0.134491012 -0.00738490373 0.0100000007
v 0.134491012 -0.00738490373 0.008
v 0.134619027 -0.00724582374 0.009000001
v 0.134703323 -0.007132783 0.0100000007
v 0.134703323 -0.007132783 0.008
v 0.134776726 -0.00701387366 0.009000001
v 0.134856835 -0.00684887031 0.0100000007
v 0.134856835 -0.00684887031 0.008
v 0.134889171 -0.00676464243 0.009000001
v 0.134947717 -0.006552621 0.0100000007
v 0.134947717 -0.006552621 0.008
v 0.134955719 -0.006510384 0.009000001
v 0.134979576 -0.00626199739 0.0100000007
v 0.134979576 -0.00626199739 0.008
v 0.134958029 -0.00597043 0.0100000007
v 0.13495031 -0.005927771 0.009000001
v 0.134958029 -0.00597043 0.008
v 0.134877682 -0.005671152 0.0100000007
v 0.134877682 -0.005671152 0.008
v 0.134843156 -0.005586647 0.009000001
v 0.1347343 -0.00538198557 0.0100000007
v 0.1347343 -0.00538198557 0.008
v 0.134654045 -0.00526603544 0.009000001
v 0.134531036 -0.005122516 0.0100000007
v 0.134531036 -0.005122516 0.008
v 0.134391949 -0.00499450369 0.009000001
v 0.134278908 -0.004910202 0.0100000007
v 0.134278908 -0.004910202 0.008
v 0.134078234 -0.004794174 0.009000001
v 0.133995 -0.004756688 0.0100000007
v 0.133995 -0.004756688 0.008
v 0.133741111 -0.00467502233 0.009000001
v 0.133698747 -0.00466580642 0.0100000007
v 0.133408129 -0.004633951 0.009000001
v 0.133698747 -0.00466580642 0.008
v 0.133408129 -0.004633951 0.0100000007
v 0.133408129 -0.004633951 0.008
v 0.133116558 -0.004655509 0.0100000007
v 0.133116558 -0.004655509 0.008
v 0.1330739 -0.00466322061 0.009000001
v 0.132817283 -0.00473585632 0.0100000007
v 0.132817283 -0.00473585632 0.008
v 0.132817283 -0.00473585632 0.009000001
v 0.132568061 -0.004854923 0.009000001
v 0.132528111 -0.004879233 0.0100000007
v 0.132528111 -0.004879233 0.008
v 0.132338643 -0.00501881633 0.009000001
v 0.132268652 -0.005082498 0.0100000007
v 0.132268652 -0.005082498 0.008
v 0.132140636 -0.005221577 0.009000001
v 0.132056326 -0.00533461757 0.0100000007
v 0.132056326 -0.00533461757 0.008
v 0.131982923 -0.005453528 0.009000001
v 0.131902814 -0.00561853126 0.0100000007
v 0.131902814 -0.00561853126 0.008
v 0.1318705 -0.005702758 0.009000001
v 0.131811932 -0.005914781 0.0100000007
v 0.131811932 -0.005914781 0.008
v 0.13180393 -0.00595701672 0.009000001
v 0.131780088 -0.00620540464 0.0100000007
v 0.131780088 -0.00620540464 0.008
v 0.132009983 0.00679256255 0.008
v 0.132009983 0.00679256255 0.0100000007
v 0.132031545 0.006500996 0.0100000007
v 0.132039264 0.006458336 0.009000001
v 0.132031545 0.006500996 0.008
v 0.132111892 0.006201718 0.0100000007
v 0.132111892 0.006201718 0.008
v 0.132146418 0.006117213 0.009000001
v 0.132255271 0.00591255166 0.0100000007
v 0.132255271 0.00591255166 0.008
v 0.132335529 0.00579660153 0.009000001
v 0.132458538 0.005653082 0.0100000007
v 0.132458538 0.005653082 0.008
v 0.132597625 0.00552507 0.009000001
v 0.132710665 0.00544076832 0.0100000007
v 0.132710665 0.00544076832 0.008
v 0.132911339 0.00532474 0.009000001
v 0.132994577 0.0052872533 0.0100000007
v 0.132994577 0.0052872533 0.008
v 0.133248463 0.00520558748 0.009000001
v 0.133290827 0.00519637251 0.0100000007
v 0.133581445 0.005164516 0.009000001
v 0.133290827 0.00519637251 0.008
v 0.133581445 0.005164516 0.0100000007
v 0.133581445 0.005164516 0.008
v 0.133873016 0.005186075 0.0100000007
v 0.133873016 0.005186075 0.008
v 0.133915663 0.00519378576 0.009000001
v 0.134172291 0.00526642147 0.0100000007
v 0.134172291 0.00526642147 0.008
v 0.134172291 0.00526642147 0.009000001
v 0.134421512 0.005385489 0.009000001
v 0.134461462 0.005409799 0.0100000007
v 0.134461462 0.005409799 0.008
v 0.134650916 0.00554938242 0.009000001
v 0.134720922 0.005613064 0.0100000007
v 0.134720922 0.005613064 0.008
v 0.134848937 0.005752143 0.009000001
v 0.134933233 0.00586518366 0.0100000007
v 0.134933233 0.00586518366 0.008
v 0.135006636 0.005984094 0.009000001
v 0.13508676 0.00614909735 0.0100000007
v 0.13508676 0.00614909735 0.008
v 0.135119081 0.006233325 0.009000001
v 0.135177642 0.006445347 0.0100000007
v 0.135177642 0.006445347 0.008
v 0.135185644 0.006487583 0.009000001
v 0.135209486 0.00673597 0.0100000007
v 0.135209486 0.00673597 0.008
v 0.135187939 0.00702753756 0.0100000007
v 0.13518022 0.00707019633 0.009000001
v 0.135187939 0.00702753756 0.008
v 0.135107592 0.00732681574 0.0100000007
v 0.135107592 0.00732681574 0.008
v 0.135073066 0.00741132 0.009000001
v 0.134964213 0.007615981 0.0100000007
v 0.134964213 0.007615981 0.008
v 0.134883955 0.00773193128 0.009000001
v 0.134760946 0.007875452 0.0100000007
v 0.134760946 0.007875452 0.008
v 0.134621859 0.008003464 0.009000001
v 0.134508818 0.008087765 0.0100000007
v 0.134508818 0.008087765 0.008
v 0.134308144 0.008203793 0.009000001
v 0.1342249 0.008241279 0.0100000007
v 0.1342249 0.008241279 0.008
v 0.133971021 0.008322945 0.009000001
v 0.133928657 0.00833216 0.0100000007
v 0.133638039 0.008364016 0.009000001
v 0.133928657 0.00833216 0.008
v 0.133638039 0.008364016 0.0100000007
v 0.133638039 0.008364016 0.008
v 0.133346468 0.008342458 0.0100000007
v 0.133346468 0.008342458 0.008
v 0.1333038 0.008334747 0.009000001
v 0.1330472 0.008262111 0.0100000007
v 0.1330472 0.008262111 0.008
v 0.1330472 0.008262111 0.009000001
v 0.132797971 0.008143044 0.009000001
v 0.132758021 0.008118735 0.0100000007
v 0.132758021 0.008118735 0.008
v 0.132568568 0.007979151 0.009000001
v 0.132498562 0.00791547 0.0100000007
v 0.132498562 0.00791547 0.008
v 0.132370546 0.00777639 0.009000001
v 0.132286251 0.007663349 0.0100000007
v 0.132286251 0.007663349 0.008
v 0.132212847 0.00754443975 0.009000001
v 0.132132724 0.0073794364 0.0100000007
v 0.132132724 0.0073794364 0.008
v 0.1321004 0.00729520945 0.009000001
v 0.132041842 0.007083187 0.0100000007
v 0.132041842 0.007083187 0.008
v 0.132033855 0.00704095 0.009000001
v 0.132009983 0.00679256255 0.0100000007
v 0.132009983 0.00679256255 0.008
v 0.131780088 -0.00620540464 0.008
v 0.128318712 -0.009644726 0.008
v 0.131811932 -0.005914781 0.008
v 0.131801635 -0.00649697147 0.008
v 0.131881982 -0.00679624965 0.008
v 0.132025361 -0.007085415 0.008
v 0.132228628 -0.00734488573 0.008
v 0.132480741 -0.00755719934 0.008
v 0.132764667 -0.007710714 0.008
v 0.1330609 -0.007801594 0.008
v 0.133351535 -0.007833451 0.008
v 0.131902814 -0.00561853126 0.008
v 0.138317153 -0.009821582 0.008
v 0.1336431 -0.007811892 0.008
v 0.133942381 -0.00773154572 0.008
v 0.134231538 -0.00758816861 0.008
v 0.134491012 -0.00738490373 0.008
v 0.134703323 -0.007132783 0.008
v 0.134856835 -0.00684887031 0.008
v 0.134947717 -0.006552621 0.008
v 0.134979576 -0.00626199739 0.008
v 0.134958029 -0.00597043 0.008
v 0.134877682 -0.005671152 0.008
v 0.128672421 0.0103521477 0.008
v 0.138670862 0.0101752924 0.008
v 0.132111892 0.006201718 0.008
v 0.132056326 -0.00533461757 0.008
v 0.132031545 0.006500996 0.008
v 0.132009983 0.00679256255 0.008
v 0.132041842 0.007083187 0.008
v 0.132132724 0.0073794364 0.008
v 0.132286251 0.007663349 0.008
v 0.132498562 0.00791547 0.008
v 0.132758021 0.008118735 0.008
v 0.1330472 0.008262111 0.008
v 0.133346468 0.008342458 0.008
v 0.133638039 0.008364016 0.008
v 0.133928657 0.00833216 0.008
v 0.1342249 0.008241279 0.008
v 0.134508818 0.008087765 0.008
v 0.134760946 0.007875452 0.008
v 0.134964213 0.007615981 0.008
v 0.135107592 0.00732681574 0.008
v 0.135187939 0.00702753756 0.008
v 0.135209486 0.00673597 0.008
v 0.135177642 0.006445347 0.008
v 0.13508676 0.00614909735 0.008
v 0.134933233 0.00586518366 0.008
v 0.1347343 -0.00538198557 0.008
v 0.133494779 0.000265282579 0.008
v 0.134531036 -0.005122516 0.008
v 0.134720922 0.005613064 0.008
v 0.134278908 -0.004910202 0.008
v 0.134461462 0.005409799 0.008
v 0.133995 -0.004756688 0.008
v 0.134172291 0.00526642147 0.008
v 0.133698747 -0.00466580642 0.008
v 0.133873016 0.005186075 0.008
v 0.133408129 -0.004633951 0.008
v 0.133581445 0.005164516 0.008
v 0.133116558 -0.004655509 0.008
v 0.133290827 0.00519637251 0.008
v 0.132817283 -0.00473585632 0.008
v 0.132994577 0.0052872533 0.008
v 0.132528111 -0.004879233 0.008
v 0.132710665 0.00544076832 0.008
v 0.132268652 -0.005082498 0.008
v 0.132458538 0.005653082 0.008
v 0.132255271 0.00591255166 0.008
v 0.134979576 -0.00626199739 0.0100000007
v 0.138317153 -0.009821582 0.0100000007
v 0.134958029 -0.00597043 0.0100000007
v 0.134947717 -0.006552621 0.0100000007
v 0.134856835 -0.00684887031 0.0100000007
v 0.134703323 -0.007132783 0.0100000007
v 0.134491012 -0.00738490373 0.0100000007
v 0.134231538 -0.00758816861 0.0100000007
v 0.133942381 -0.00773154572 0.0100000007
v 0.1336431 -0.007811892 0.0100000007
v 0.133351535 -0.007833451 0.0100000007
v 0.134877682 -0.005671152 0.0100000007
v 0.128318712 -0.009644726 0.0100000007
v 0.1330609 -0.007801594 0.0100000007
v 0.132764667 -0.007710714 0.0100000007
v 0.132480741 -0.00755719934 0.0100000007
v 0.132228628 -0.00734488573 0.0100000007
v 0.132025361 -0.007085415 0.0100000007
v 0.131881982 -0.00679624965 0.0100000007
v 0.131801635 -0.00649697147 0.0100000007
v 0.131780088 -0.00620540464 0.0100000007
v 0.131811932 -0.005914781 0.0100000007
v 0.131902814 -0.00561853126 0.0100000007
v 0.138670862 0.0101752924 0.0100000007
v 0.128672421 0.0103521477 0.0100000007
v 0.13508676 0.00614909735 0.0100000007
v 0.1347343 -0.00538198557 0.0100000007
v 0.135177642 0.006445347 0.0100000007
v 0.135209486 0.00673597 0.0100000007
v 0.135187939 0.00702753756 0.0100000007
v 0.135107592 0.00732681574 0.0100000007
v 0.134964213 0.007615981 0.0100000007
v 0.134760946 0.007875452 0.0100000007
v 0.134508818 0.008087765 0.0100000007
v 0.1342249 0.008241279 0.0100000007
v 0.133928657 0.00833216 0.0100000007
v 0.133638039 0.008364016 0.0100000007
v 0.133346468 0.008342458 0.0100000007
v 0.1330472 0.008262111 0.0100000007
v 0.132758021 0.008118735 0.0100000007
v 0.132498562 0.00791547 0.0100000007
v 0.132286251 0.007663349 0.0100000007
v 0.132132724 0.0073794364 0.0100000007
v 0.132041842 0.007083187 0.0100000007
v 0.132009983 0.00679256255 0.0100000007
v 0.132031545 0.006500996 0.0100000007
v 0.132111892 0.006201718 0.0100000007
v 0.132255271 0.00591255166 0.0100000007
v 0.132056326 -0.00533461757 0.0100000007
v 0.133494779 0.000265282579 0.0100000007
v 0.132268652 -0.005082498 0.0100000007
v 0.132458538 0.005653082 0.0100000007
v 0.132528111 -0.004879233 0.0100000007
v 0.132710665 0.00544076832 0.0100000007
v 0.132817283 -0.00473585632 0.0100000007
v 0.132994577 0.0052872533 0.0100000007
v 0.133116558 -0.004655509 0.0100000007
v 0.133290827 0.00519637251 0.0100000007
v 0.133408129 -0.004633951 0.0100000007
v 0.133581445 0.005164516 0.0100000007
v 0.133698747 -0.00466580642 0.0100000007
v 0.133873016 0.005186075 0.0100000007
v 0.133995 -0.004756688 0.0100000007
v 0.134172291 0.00526642147 0.0100000007
v 0.134278908 -0.004910202 0.0100000007
v 0.134461462 0.005409799 0.0100000007
v 0.134531036 -0.005122516 0.0100000007
v 0.134720922 0.005613064 0.0100000007
v 0.134933233 0.00586518366 0.0100000007
v 0.133317932 -0.009733154 0.009000001
v 0.128318712 -0.009644726 0.0100000007
v 0.128318712 -0.009644726 0.008
v 0.138317153 -0.009821582 0.008
v 0.138317153 -0.009821582 0.0100000007
v 0.128495574 0.000353710726 0.009000001
v 0.128672421 0.0103521477 0.0100000007
v 0.128672421 0.0103521477 0.008
v 0.128318712 -0.009644726 0.008
v 0.128318712 -0.009644726 0.0100000007
v 0.133671641 0.01026372 0.009000001
v 0.138670862 0.0101752924 0.0100000007
v 0.138670862 0.0101752924 0.008
v 0.128672421 0.0103521477 0.008
v 0.128672421 0.0103521477 0.0100000007
v 0.138670862 0.0101752924 0.0100000007
v 0.138494 0.000176855363 0.009000001
v 0.138670862 0.0101752924 0.008
v 0.138317153 -0.009821582 0.0100000007
v 0.138317153 -0.009821582 0.008
f 1 2 3
f 1 3 4
f 5 1 4
f 4 3 6
f 7 5 4
f 8 4 6
f 7 4 8
f 8 6 9
f 10 7 8
f 11 8 9
f 10 8 11
f 11 9 12
f 13 10 11
f 14 11 12
f 13 11 14
f 14 12 15
f 16 13 14
f 17 14 15
f 16 14 17
f 17 15 18
f 19 16 17
f 20 17 18
f 19 17 20
f 20 18 21
f 22 20 21
f 23 19 20
f 23 20 22
f 22 21 24
f 25 23 22
f 26 22 24
f 27 25 22
f 28 22 26
f 27 22 28
f 29 28 26
f 30 27 28
f 31 28 29
f 31 30 28
f 32 31 29
f 31 32 30
f 32 29 33
f 32 34 30
f 35 32 33
f 32 35 34
f 35 33 36
f 35 37 34
f 38 35 36
f 35 38 37
f 38 36 39
f 38 40 37
f 41 38 39
f 38 41 40
f 41 39 42
f 41 43 40
f 44 41 42
f 41 44 43
f 44 42 45
f 44 46 43
f 47 44 45
f 44 47 46
f 47 45 48
f 46 47 49
f 47 48 49
f 48 50 49
f 50 51 49
f 49 51 52
f 50 53 51
f 51 54 52
f 53 55 51
f 51 55 54
f 53 56 55
f 55 57 54
f 56 58 55
f 55 58 57
f 56 59 58
f 58 60 57
f 59 61 58
f 58 61 60
f 59 62 61
f 61 63 60
f 62 64 61
f 61 64 63
f 62 65 64
f 64 66 63
f 65 67 64
f 64 67 66
f 65 68 67
f 68 69 67
f 67 70 66
f 67 69 70
f 68 71 69
f 69 72 70
f 71 73 69
f 69 74 72
f 73 75 69
f 69 75 74
f 73 76 75
f 75 77 74
f 76 78 75
f 75 78 77
f 76 79 78
f 79 77 78
f 80 79 76
f 79 81 77
f 82 79 80
f 79 82 81
f 83 82 80
f 82 84 81
f 85 82 83
f 82 85 84
f 86 85 83
f 85 87 84
f 88 85 86
f 85 88 87
f 89 88 86
f 88 90 87
f 91 88 89
f 88 91 90
f 92 91 89
f 91 93 90
f 94 91 92
f 91 94 93
f 95 94 92
f 94 96 93
f 94 95 96
f 97 98 99
f 97 99 100
f 101 97 100
f 100 99 102
f 103 101 100
f 104 100 102
f 103 100 104
f 104 102 105
f 106 103 104
f 107 104 105
f 106 104 107
f 107 105 108
f 109 106 107
f 110 107 108
f 109 107 110
f 110 108 111
f 112 109 110
f 113 110 111
f 112 110 113
f 113 111 114
f 115 112 113
f 116 113 114
f 115 113 116
f 116 114 117
f 118 116 117
f 119 115 116
f 119 116 118
f 118 117 120
f 121 119 118
f 122 118 120
f 123 121 118
f 124 118 122
f 123 118 124
f 125 124 122
f 126 123 124
f 127 124 125
f 127 126 124
f 128 127 125
f 127 128 126
f 128 125 129
f 128 130 126
f 131 128 129
f 128 131 130
f 131 129 132
f 131 133 130
f 134 131 132
f 131 134 133
f 134 132 135
f 134 136 133
f 137 134 135
f 134 137 136
f 137 135 138
f 137 139 136
f 140 137 138
f 137 140 139
f 140 138 141
f 140 142 139
f 143 140 141
f 140 143 142
f 143 141 144
f 142 143 145
f 143 144 145
f 144 146 145
f 146 147 145
f 145 147 148
f 146 149 147
f 147 150 148
f 149 151 147
f 147 151 150
f 149 152 151
f 151 153 150
f 152 154 151
f 151 154 153
f 152 155 154
f 154 156 153
f 155 157 154
f 154 157 156
f 155 158 157
f 157 159 156
f 158 160 157
f 157 160 159
f 158 161 160
f 160 162 159
f 161 163 160
f 160 163 162
f 161 164 163
f 164 165 163
f 163 166 162
f 163 165 166
f 164 167 165
f 165 168 166
f 167 169 165
f 165 170 168
f 169 171 165
f 165 171 170
f 169 172 171
f 171 173 170
f 172 174 171
f 171 174 173
f 172 175 174
f 175 173 174
f 176 175 172
f 175 177 173
f 178 175 176
f 175 178 177
f 179 178 176
f 178 180 177
f 181 178 179
f 178 181 180
f 182 181 179
f 181 183 180
f 184 181 182
f 181 184 183
f 185 184 182
f 184 186 183
f 187 184 185
f 184 187 186
f 188 187 185
f 187 189 186
f 190 187 188
f 187 190 189
f 191 190 188
f 190 192 189
f 190 191 192
f 193 194 195
f 194 193 196
f 194 196 197
f 198 194 197
f 194 198 199
f 194 199 200
f 201 194 200
f 194 201 202
f 194 202 203
f 194 204 195
f 205 194 203
f 205 203 206
f 207 205 206
f 205 207 208
f 205 208 209
f 210 205 209
f 205 210 211
f 205 211 212
f 213 205 212
f 205 213 214
f 205 214 215
f 194 216 204
f 217 205 215
f 216 218 204
f 204 218 219
f 216 220 218
f 220 216 221
f 216 222 221
f 216 223 222
f 223 216 224
f 216 225 224
f 216 226 225
f 226 216 227
f 216 228 227
f 216 229 228
f 216 217 229
f 217 230 229
f 217 231 230
f 231 217 232
f 217 233 232
f 217 234 233
f 234 217 235
f 217 236 235
f 236 217 237
f 217 238 237
f 217 239 238
f 217 215 239
f 215 240 239
f 215 241 240
f 241 242 240
f 241 243 242
f 240 242 244
f 243 245 242
f 242 246 244
f 245 247 242
f 242 248 246
f 247 249 242
f 248 242 250
f 249 251 242
f 242 252 250
f 251 253 242
f 242 254 252
f 253 255 242
f 254 242 256
f 255 257 242
f 242 258 256
f 257 259 242
f 242 260 258
f 259 219 242
f 260 242 261
f 219 261 242
f 219 218 261
f 262 263 264
f 263 262 265
f 263 265 266
f 267 263 266
f 263 267 268
f 263 268 269
f 270 263 269
f 263 270 271
f 263 271 272
f 263 273 264
f 274 263 272
f 274 272 275
f 276 274 275
f 274 276 277
f 274 277 278
f 279 274 278
f 274 279 280
f 274 280 281
f 282 274 281
f 274 282 283
f 274 283 284
f 263 285 273
f 286 274 284
f 285 287 273
f 273 287 288
f 285 289 287
f 289 285 290
f 285 291 290
f 285 292 291
f 292 285 293
f 285 294 293
f 285 295 294
f 295 285 296
f 285 297 296
f 285 298 297
f 285 286 298
f 286 299 298
f 286 300 299
f 300 286 301
f 286 302 301
f 286 303 302
f 303 286 304
f 286 305 304
f 305 286 306
f 286 307 306
f 286 308 307
f 286 284 308
f 284 309 308
f 284 310 309
f 310 311 309
f 310 312 311
f 309 311 313
f 312 314 311
f 311 315 313
f 314 316 311
f 311 317 315
f 316 318 311
f 317 311 319
f 318 320 311
f 311 321 319
f 320 322 311
f 311 323 321
f 322 324 311
f 323 311 325
f 324 326 311
f 311 327 325
f 326 328 311
f 311 329 327
f 328 288 311
f 329 311 330
f 288 330 311
f 288 287 330
f 331 332 333
f 331 333 334
f 332 331 335
f 335 331 334
f 336 337 338
f 336 338 339
f 337 336 340
f 340 336 339
f 341 342 343
f 341 343 344
f 342 341 345
f 345 341 344
f 346 347 348
f 349 347 346
f 347 350 348
f 347 349 350
