# ROS coordinates: X forward, Y left, Z up; units are metres.
o mesh
v 0.129444122 -0.0025635215 0.00500000035
v 0.12895304 -0.002054756 0.00500000035
v 0.128953755 -0.0020146952 0.00456328876
v 0.129199609 -0.00225088722 0.004447382
v 0.129444987 -0.00251511438 0.0044723074
v 0.12895602 -0.00188627443 0.004116573
v 0.129447728 -0.00235993951 0.0039325254
v 0.129202932 -0.00206347764 0.003885622
v 0.128959954 -0.00166360638 0.00368669676
v 0.129452482 -0.00209088251 0.00341309188
v 0.129208639 -0.00174097228 0.00336023187
v 0.128965467 -0.00135192228 0.003302944
v 0.129459143 -0.00171426428 0.00294939056
v 0.129216447 -0.001299065 0.00291825528
v 0.128972262 -0.0009682294 0.00299121113
v 0.129467338 -0.00125063525 0.00257271319
v 0.129225746 -0.00077375723 0.00259569963
v 0.128979862 -0.0005384204 0.00276850816
v 0.129476532 -0.000731282867 0.002303614
v 0.129235685 -0.000212084968 0.00240826071
v 0.128987759 -9.17743E-05 0.00264006713
v 0.129245445 0.00034044683 0.0023500002
v 0.129486084 -0.0001915854 0.0021484145
v 0.1289955 0.000344868749 0.0026
v 0.129495412 0.0003360249 0.0021
v 0.129003212 0.0007815118 0.00264006713
v 0.12950474 0.0008636352 0.0021484145
v 0.12925522 0.0008929786 0.00240826071
v 0.129011109 0.0012281579 0.00276850816
v 0.129514292 0.00140333269 0.002303614
v 0.1292627 0.00131574529 0.00253606122
v 0.129269943 0.00172490091 0.00274053356
v 0.129018709 0.00165796687 0.00299121113
v 0.129523471 0.00192268507 0.00257271319
v 0.129276574 0.00209994288 0.003018661
v 0.1290255 0.00204165978 0.003302944
v 0.129531682 0.002386314 0.00294939056
v 0.129282266 0.002421866 0.00336023187
v 0.129031017 0.00235334388 0.00368669676
v 0.129538342 0.00276293233 0.00341309188
v 0.129286766 0.002676188 0.003748958
v 0.129034951 0.002576012 0.004116573
v 0.1295431 0.00303198933 0.0039325254
v 0.129289925 0.0028550555 0.004164976
v 0.129037231 0.0027044327 0.00456328876
v 0.129545838 0.0031871642 0.0044723074
v 0.129291743 0.00295781065 0.00458797626
v 0.1295467 0.00323557132 0.00500000035
v 0.129037932 0.00274449354 0.00500000035
v 0.129037231 0.0027044327 0.00543671148
v 0.1295467 0.00323557132 0.00500000035
v 0.129291281 0.00293178088 0.00555261876
v 0.129545838 0.0031871642 0.00552769331
v 0.129034951 0.002576012 0.005883428
v 0.1295431 0.00303198933 0.00606747437
v 0.129287973 0.0027443713 0.006114379
v 0.129031017 0.00235334388 0.00631330349
v 0.129538342 0.00276293233 0.00658690836
v 0.129282266 0.002421866 0.00663976837
v 0.1290255 0.00204165978 0.006697057
v 0.129531682 0.002386314 0.00705061
v 0.129274458 0.00197995873 0.00708174473
v 0.129018709 0.00165796687 0.00700878957
v 0.129523471 0.00192268507 0.00742728775
v 0.129265159 0.00145465089 0.007404301
v 0.129011109 0.0012281579 0.007231492
v 0.129514292 0.00140333269 0.00769638643
v 0.12925522 0.0008929786 0.0075917393
v 0.129003212 0.0007815118 0.007359933
v 0.129245445 0.00034044683 0.00765
v 0.12950474 0.0008636352 0.007851586
v 0.1289955 0.000344868749 0.00740000047
v 0.129495412 0.0003360249 0.007900001
v 0.128987759 -9.17743E-05 0.007359933
v 0.129486084 -0.0001915854 0.007851586
v 0.129235685 -0.000212084968 0.0075917393
v 0.128979862 -0.0005384204 0.007231492
v 0.129476532 -0.000731282867 0.00769638643
v 0.1292282 -0.0006348516 0.00746393949
v 0.129220963 -0.00104400725 0.007259466
v 0.128972262 -0.0009682294 0.00700878957
v 0.129467338 -0.00125063525 0.00742728775
v 0.129214332 -0.00141904934 0.00698133931
v 0.128965467 -0.00135192228 0.006697057
v 0.129459143 -0.00171426428 0.00705061
v 0.129208639 -0.00174097228 0.00663976837
v 0.128959954 -0.00166360638 0.00631330349
v 0.129452482 -0.00209088251 0.00658690836
v 0.129204139 -0.00199529435 0.00625104271
v 0.12895602 -0.00188627443 0.005883428
v 0.129447728 -0.00235993951 0.00606747437
v 0.129200965 -0.00217416184 0.005835025
v 0.128953755 -0.0020146952 0.00543671148
v 0.129444987 -0.00251511438 0.00552769331
v 0.129199147 -0.002276917 0.00541202445
v 0.12895304 -0.002054756 0.00500000035
v 0.129444122 -0.0025635215 0.00500000035
v 0.129444122 -0.0025635215 0.00500000035
v 0.167938113 -0.00324441516 0.00500000035
v 0.167938963 -0.003196008 0.00552769331
v 0.148692235 -0.00284022116 0.005604753
v 0.129444987 -0.00251511438 0.00552769331
v 0.1679417 -0.00304083317 0.00606747437
v 0.129447728 -0.00235993951 0.00606747437
v 0.148695871 -0.00263513136 0.006219508
v 0.167946458 -0.00277177617 0.00658690836
v 0.129452482 -0.00209088251 0.00658690836
v 0.148702115 -0.00228220085 0.006794464
v 0.167953134 -0.002395158 0.00705061
v 0.129459143 -0.00171426428 0.00705061
v 0.148710668 -0.00179860392 0.007278136
v 0.167961329 -0.00193152891 0.00742728775
v 0.129467338 -0.00125063525 0.00742728775
v 0.148720831 -0.00122373924 0.00763112167
v 0.167970508 -0.00141217653 0.00769638643
v 0.129476532 -0.000731282867 0.00769638643
v 0.148731709 -0.000609078852 0.007836243
v 0.16798006 -0.000872479053 0.007851586
v 0.148742408 -4.42139572E-06 0.007900001
v 0.129486084 -0.0001915854 0.007851586
v 0.167989388 -0.000344868749 0.007900001
v 0.129495412 0.0003360249 0.007900001
v 0.167998731 0.000182741554 0.007851586
v 0.12950474 0.0008636352 0.007851586
v 0.148753092 0.000600236061 0.007836243
v 0.168008268 0.000722439 0.00769638643
v 0.129514292 0.00140333269 0.00769638643
v 0.148761287 0.00106288632 0.00769638643
v 0.1487692 0.00151064154 0.007472624
v 0.168017462 0.00124179141 0.00742728775
v 0.129523471 0.00192268507 0.00742728775
v 0.148776457 0.00192106492 0.00716825854
v 0.168025658 0.00170542044 0.00705061
v 0.129531682 0.002386314 0.00705061
v 0.148782685 0.002273358 0.006794464
v 0.168032318 0.00208203867 0.00658690836
v 0.129538342 0.00276293233 0.00658690836
v 0.148787618 0.00255167275 0.00636906549
v 0.168037087 0.00235109567 0.00606747437
v 0.1295431 0.00303198933 0.00606747437
v 0.148791075 0.0027474144 0.005913801
v 0.168039829 0.00250627054 0.00552769331
v 0.129545838 0.0031871642 0.00552769331
v 0.148793072 0.00285986345 0.005450894
v 0.168040678 0.00255467766 0.00500000035
v 0.1295467 0.00323557132 0.00500000035
v 0.168039829 0.00250627054 0.0044723074
v 0.148792565 0.00283137825 0.00439524837
v 0.129545838 0.0031871642 0.0044723074
v 0.168037087 0.00235109567 0.0039325254
v 0.1295431 0.00303198933 0.0039325254
v 0.148788929 0.00262628845 0.00378049188
v 0.168032318 0.00208203867 0.00341309188
v 0.129538342 0.00276293233 0.00341309188
v 0.148782685 0.002273358 0.00320553686
v 0.168025658 0.00170542044 0.00294939056
v 0.129531682 0.002386314 0.00294939056
v 0.148774132 0.00178976124 0.0027218645
v 0.168017462 0.00124179141 0.00257271319
v 0.129523471 0.00192268507 0.00257271319
v 0.14876397 0.00121489633 0.00236887881
v 0.168008268 0.000722439 0.002303614
v 0.129514292 0.00140333269 0.002303614
v 0.148753092 0.000600236061 0.002163757
v 0.167998731 0.000182741554 0.0021484145
v 0.148742408 -4.42139572E-06 0.0021
v 0.12950474 0.0008636352 0.0021484145
v 0.167989388 -0.000344868749 0.0021
v 0.129495412 0.0003360249 0.0021
v 0.16798006 -0.000872479053 0.0021484145
v 0.129486084 -0.0001915854 0.0021484145
v 0.148731709 -0.000609078852 0.002163757
v 0.167970508 -0.00141217653 0.002303614
v 0.129476532 -0.000731282867 0.002303614
v 0.148723528 -0.00107172923 0.002303614
v 0.1487156 -0.00151948445 0.00252737687
v 0.167961329 -0.00193152891 0.00257271319
v 0.129467338 -0.00125063525 0.00257271319
v 0.148708344 -0.00192990759 0.002831742
v 0.167953134 -0.002395158 0.00294939056
v 0.129459143 -0.00171426428 0.00294939056
v 0.148702115 -0.00228220085 0.00320553686
v 0.167946458 -0.00277177617 0.00341309188
v 0.129452482 -0.00209088251 0.00341309188
v 0.148697183 -0.00256051566 0.00363093521
v 0.1679417 -0.00304083317 0.0039325254
v 0.129447728 -0.00235993951 0.0039325254
v 0.148693725 -0.00275625731 0.0040862
v 0.167938963 -0.003196008 0.0044723074
v 0.129444987 -0.00251511438 0.0044723074
v 0.148691744 -0.00286870636 0.004549106
v 0.167938113 -0.00324441516 0.00500000035
v 0.129444122 -0.0025635215 0.00500000035
v 0.167938113 -0.00324441516 0.00500000035
v 0.168446869 -0.00275333552 0.00500000035
v 0.168447584 -0.00271327468 0.00543671148
v 0.168193519 -0.00294062286 0.00555261876
v 0.167938963 -0.003196008 0.00552769331
v 0.168449849 -0.002584854 0.005883428
v 0.1679417 -0.00304083317 0.00606747437
v 0.168196827 -0.00275321328 0.006114379
v 0.168453783 -0.00236218586 0.00631330349
v 0.167946458 -0.00277177617 0.00658690836
v 0.168202534 -0.002430708 0.00663976837
v 0.1684593 -0.00205050176 0.006697057
v 0.167953134 -0.002395158 0.00705061
v 0.168210357 -0.00198880071 0.00708174473
v 0.168466091 -0.00166680885 0.00700878957
v 0.167961329 -0.00193152891 0.00742728775
v 0.168219641 -0.00146349287 0.007404301
v 0.168473691 -0.00123699987 0.007231492
v 0.167970508 -0.00141217653 0.00769638643
v 0.16822958 -0.0009018206 0.0075917393
v 0.168481588 -0.000790353748 0.007359933
v 0.168239355 -0.0003492888 0.00765
v 0.16798006 -0.000872479053 0.007851586
v 0.1684893 -0.000353710726 0.00740000047
v 0.167989388 -0.000344868749 0.007900001
v 0.168497041 8.29323253E-05 0.007359933
v 0.167998731 0.000182741554 0.007851586
v 0.16824913 0.000203242991 0.0075917393
v 0.168504938 0.0005295784 0.007231492
v 0.168008268 0.000722439 0.00769638643
v 0.168256611 0.0006260096 0.00746393949
v 0.168263838 0.00103516527 0.007259466
v 0.168512538 0.0009593874 0.00700878957
v 0.168017462 0.00124179141 0.00742728775
v 0.168270469 0.00141020736 0.00698133931
v 0.168519333 0.00134308031 0.006697057
v 0.168025658 0.00170542044 0.00705061
v 0.168276176 0.0017321303 0.00663976837
v 0.168524846 0.0016547644 0.00631330349
v 0.168032318 0.00208203867 0.00658690836
v 0.168280661 0.00198645238 0.00625104271
v 0.16852878 0.00187743246 0.005883428
v 0.168037087 0.00235109567 0.00606747437
v 0.168283835 0.00216531986 0.005835025
v 0.168531045 0.00200585322 0.00543671148
v 0.168039829 0.00250627054 0.00552769331
v 0.168285653 0.002268075 0.00541202445
v 0.168040678 0.00255467766 0.00500000035
v 0.168531761 0.002045914 0.00500000035
v 0.168531045 0.00200585322 0.00456328876
v 0.168040678 0.00255467766 0.00500000035
v 0.168285191 0.00224204524 0.004447382
v 0.168039829 0.00250627054 0.0044723074
v 0.16852878 0.00187743246 0.004116573
v 0.168037087 0.00235109567 0.0039325254
v 0.168281883 0.00205463567 0.003885622
v 0.168524846 0.0016547644 0.00368669676
v 0.168032318 0.00208203867 0.00341309188
v 0.168276176 0.0017321303 0.00336023187
v 0.168519333 0.00134308031 0.003302944
v 0.168025658 0.00170542044 0.00294939056
v 0.168268353 0.001290223 0.00291825528
v 0.168512538 0.0009593874 0.00299121113
v 0.168017462 0.00124179141 0.00257271319
v 0.168259054 0.000764915254 0.00259569963
v 0.168504938 0.0005295784 0.00276850816
v 0.168008268 0.000722439 0.002303614
v 0.16824913 0.000203242991 0.00240826071
v 0.168497041 8.29323253E-05 0.00264006713
v 0.168239355 -0.0003492888 0.0023500002
v 0.167998731 0.000182741554 0.0021484145
v 0.1684893 -0.000353710726 0.0026
v 0.167989388 -0.000344868749 0.0021
v 0.168481588 -0.000790353748 0.00264006713
v 0.16798006 -0.000872479053 0.0021484145
v 0.16822958 -0.0009018206 0.00240826071
v 0.168473691 -0.00123699987 0.00276850816
v 0.167970508 -0.00141217653 0.002303614
v 0.1682221 -0.00132458727 0.00253606122
v 0.168214858 -0.00173374289 0.00274053356
v 0.168466091 -0.00166680885 0.00299121113
v 0.167961329 -0.00193152891 0.00257271319
v 0.168208227 -0.00210878486 0.003018661
v 0.1684593 -0.00205050176 0.003302944
v 0.167953134 -0.002395158 0.00294939056
v 0.168202534 -0.002430708 0.00336023187
v 0.168453783 -0.00236218586 0.00368669676
v 0.167946458 -0.00277177617 0.00341309188
v 0.168198034 -0.00268503 0.003748958
v 0.168449849 -0.002584854 0.004116573
v 0.1679417 -0.00304083317 0.0039325254
v 0.168194875 -0.00286389748 0.004164976
v 0.168447584 -0.00271327468 0.00456328876
v 0.167938963 -0.003196008 0.0044723074
v 0.168193057 -0.00296665262 0.00458797626
v 0.168446869 -0.00275333552 0.00500000035
v 0.167938113 -0.00324441516 0.00500000035
v 0.168524846 0.0016547644 0.00631330349
v 0.1684893 -0.000353710726 0.00500000035
v 0.16852878 0.00187743246 0.005883428
v 0.168519333 0.00134308031 0.006697057
v 0.168531045 0.00200585322 0.00543671148
v 0.168512538 0.0009593874 0.00700878957
v 0.168531761 0.002045914 0.00500000035
v 0.168504938 0.0005295784 0.007231492
v 0.168531045 0.00200585322 0.00456328876
v 0.168497041 8.29323253E-05 0.007359933
v 0.16852878 0.00187743246 0.004116573
v 0.1684893 -0.000353710726 0.00740000047
v 0.168524846 0.0016547644 0.00368669676
v 0.168481588 -0.000790353748 0.007359933
v 0.168519333 0.00134308031 0.003302944
v 0.168473691 -0.00123699987 0.007231492
v 0.168512538 0.0009593874 0.00299121113
v 0.168466091 -0.00166680885 0.00700878957
v 0.168504938 0.0005295784 0.00276850816
v 0.1684593 -0.00205050176 0.006697057
v 0.168497041 8.29323253E-05 0.00264006713
v 0.168453783 -0.00236218586 0.00631330349
v 0.1684893 -0.000353710726 0.0026
v 0.168449849 -0.002584854 0.005883428
v 0.168481588 -0.000790353748 0.00264006713
v 0.168447584 -0.00271327468 0.00543671148
v 0.168473691 -0.00123699987 0.00276850816
v 0.168446869 -0.00275333552 0.00500000035
v 0.168466091 -0.00166680885 0.00299121113
v 0.168447584 -0.00271327468 0.00456328876
v 0.1684593 -0.00205050176 0.003302944
v 0.168449849 -0.002584854 0.004116573
v 0.168453783 -0.00236218586 0.00368669676
v 0.129031017 0.00235334388 0.00368669676
v 0.1289955 0.000344868749 0.00500000035
v 0.129034951 0.002576012 0.004116573
v 0.1290255 0.00204165978 0.003302944
v 0.129037231 0.0027044327 0.00456328876
v 0.129018709 0.00165796687 0.00299121113
v 0.129037932 0.00274449354 0.00500000035
v 0.129011109 0.0012281579 0.00276850816
v 0.129037231 0.0027044327 0.00543671148
v 0.129003212 0.0007815118 0.00264006713
v 0.129034951 0.002576012 0.005883428
v 0.1289955 0.000344868749 0.0026
v 0.129031017 0.00235334388 0.00631330349
v 0.128987759 -9.17743E-05 0.00264006713
v 0.1290255 0.00204165978 0.006697057
v 0.128979862 -0.0005384204 0.00276850816
v 0.129018709 0.00165796687 0.00700878957
v 0.128972262 -0.0009682294 0.00299121113
v 0.129011109 0.0012281579 0.007231492
v 0.128965467 -0.00135192228 0.003302944
v 0.129003212 0.0007815118 0.007359933
v 0.128959954 -0.00166360638 0.00368669676
v 0.1289955 0.000344868749 0.00740000047
v 0.12895602 -0.00188627443 0.004116573
v 0.128987759 -9.17743E-05 0.007359933
v 0.128953755 -0.0020146952 0.00456328876
v 0.128979862 -0.0005384204 0.007231492
v 0.12895304 -0.002054756 0.00500000035
v 0.128972262 -0.0009682294 0.00700878957
v 0.128953755 -0.0020146952 0.00543671148
v 0.128965467 -0.00135192228 0.006697057
v 0.12895602 -0.00188627443 0.005883428
v 0.128959954 -0.00166360638 0.00631330349
f 1 2 3
f 1 3 4
f 5 1 4
f 4 3 6
f 7 5 4
f 8 4 6
f 7 4 8
f 8 6 9
f 10 7 8
f 11 8 9
f 10 8 11
f 11 9 12
f 13 10 11
f 14 11 12
f 13 11 14
f 14 12 15
f 16 13 14
f 17 14 15
f 16 14 17
f 17 15 18
f 19 16 17
f 20 17 18
f 19 17 20
f 20 18 21
f 22 20 21
f 23 19 20
f 23 20 22
f 22 21 24
f 25 23 22
f 26 22 24
f 27 25 22
f 28 22 26
f 27 22 28
f 29 28 26
f 30 27 28
f 31 28 29
f 31 30 28
f 32 31 29
f 31 32 30
f 32 29 33
f 32 34 30
f 35 32 33
f 32 35 34
f 35 33 36
f 35 37 34
f 38 35 36
f 35 38 37
f 38 36 39
f 38 40 37
f 41 38 39
f 38 41 40
f 41 39 42
f 41 43 40
f 44 41 42
f 41 44 43
f 44 42 45
f 44 46 43
f 47 44 45
f 44 47 46
f 46 47 48
f 47 45 49
f 47 49 48
f 49 50 51
f 50 52 51
f 51 52 53
f 50 54 52
f 52 55 53
f 54 56 52
f 52 56 55
f 54 57 56
f 56 58 55
f 57 59 56
f 56 59 58
f 57 60 59
f 59 61 58
f 60 62 59
f 59 62 61
f 60 63 62
f 62 64 61
f 63 65 62
f 62 65 64
f 63 66 65
f 65 67 64
f 66 68 65
f 65 68 67
f 66 69 68
f 69 70 68
f 68 71 67
f 68 70 71
f 69 72 70
f 70 73 71
f 72 74 70
f 70 75 73
f 74 76 70
f 70 76 75
f 74 77 76
f 76 78 75
f 77 79 76
f 76 79 78
f 77 80 79
f 80 78 79
f 81 80 77
f 80 82 78
f 83 80 81
f 80 83 82
f 84 83 81
f 83 85 82
f 86 83 84
f 83 86 85
f 87 86 84
f 86 88 85
f 89 86 87
f 86 89 88
f 90 89 87
f 89 91 88
f 92 89 90
f 89 92 91
f 93 92 90
f 92 94 91
f 95 92 93
f 92 95 94
f 96 95 93
f 95 97 94
f 95 96 97
f 98 99 100
f 98 100 101
f 102 98 101
f 101 100 103
f 104 102 101
f 105 101 103
f 104 101 105
f 105 103 106
f 107 104 105
f 108 105 106
f 107 105 108
f 108 106 109
f 110 107 108
f 111 108 109
f 110 108 111
f 111 109 112
f 113 110 111
f 114 111 112
f 113 111 114
f 114 112 115
f 116 113 114
f 117 114 115
f 116 114 117
f 117 115 118
f 119 117 118
f 120 116 117
f 120 117 119
f 119 118 121
f 122 120 119
f 123 119 121
f 124 122 119
f 125 119 123
f 124 119 125
f 126 125 123
f 127 124 125
f 128 125 126
f 128 127 125
f 129 128 126
f 128 129 127
f 129 126 130
f 129 131 127
f 132 129 130
f 129 132 131
f 132 130 133
f 132 134 131
f 135 132 133
f 132 135 134
f 135 133 136
f 135 137 134
f 138 135 136
f 135 138 137
f 138 136 139
f 138 140 137
f 141 138 139
f 138 141 140
f 141 139 142
f 141 143 140
f 144 141 142
f 141 144 143
f 144 142 145
f 143 144 146
f 144 145 146
f 145 147 146
f 147 148 146
f 146 148 149
f 147 150 148
f 148 151 149
f 150 152 148
f 148 152 151
f 150 153 152
f 152 154 151
f 153 155 152
f 152 155 154
f 153 156 155
f 155 157 154
f 156 158 155
f 155 158 157
f 156 159 158
f 158 160 157
f 159 161 158
f 158 161 160
f 159 162 161
f 161 163 160
f 162 164 161
f 161 164 163
f 162 165 164
f 165 166 164
f 164 167 163
f 164 166 167
f 165 168 166
f 166 169 167
f 168 170 166
f 166 171 169
f 170 172 166
f 166 172 171
f 170 173 172
f 172 174 171
f 173 175 172
f 172 175 174
f 173 176 175
f 176 174 175
f 177 176 173
f 176 178 174
f 179 176 177
f 176 179 178
f 180 179 177
f 179 181 178
f 182 179 180
f 179 182 181
f 183 182 180
f 182 184 181
f 185 182 183
f 182 185 184
f 186 185 183
f 185 187 184
f 188 185 186
f 185 188 187
f 189 188 186
f 188 190 187
f 191 188 189
f 188 191 190
f 192 191 189
f 191 193 190
f 191 192 193
f 194 195 196
f 194 196 197
f 198 194 197
f 197 196 199
f 200 198 197
f 201 197 199
f 200 197 201
f 201 199 202
f 203 200 201
f 204 201 202
f 203 201 204
f 204 202 205
f 206 203 204
f 207 204 205
f 206 204 207
f 207 205 208
f 209 206 207
f 210 207 208
f 209 207 210
f 210 208 211
f 212 209 210
f 213 210 211
f 212 210 213
f 213 211 214
f 215 213 214
f 216 212 213
f 216 213 215
f 215 214 217
f 218 216 215
f 219 215 217
f 220 218 215
f 221 215 219
f 220 215 221
f 222 221 219
f 223 220 221
f 224 221 222
f 224 223 221
f 225 224 222
f 224 225 223
f 225 222 226
f 225 227 223
f 228 225 226
f 225 228 227
f 228 226 229
f 228 230 227
f 231 228 229
f 228 231 230
f 231 229 232
f 231 233 230
f 234 231 232
f 231 234 233
f 234 232 235
f 234 236 233
f 237 234 235
f 234 237 236
f 237 235 238
f 237 239 236
f 240 237 238
f 237 240 239
f 239 240 241
f 240 238 242
f 240 242 241
f 242 243 244
f 243 245 244
f 244 245 246
f 243 247 245
f 245 248 246
f 247 249 245
f 245 249 248
f 247 250 249
f 249 251 248
f 250 252 249
f 249 252 251
f 250 253 252
f 252 254 251
f 253 255 252
f 252 255 254
f 253 256 255
f 255 257 254
f 256 258 255
f 255 258 257
f 256 259 258
f 258 260 257
f 259 261 258
f 258 261 260
f 259 262 261
f 262 263 261
f 261 264 260
f 261 263 264
f 262 265 263
f 263 266 264
f 265 267 263
f 263 268 266
f 267 269 263
f 263 269 268
f 267 270 269
f 269 271 268
f 270 272 269
f 269 272 271
f 270 273 272
f 273 271 272
f 274 273 270
f 273 275 271
f 276 273 274
f 273 276 275
f 277 276 274
f 276 278 275
f 279 276 277
f 276 279 278
f 280 279 277
f 279 281 278
f 282 279 280
f 279 282 281
f 283 282 280
f 282 284 281
f 285 282 283
f 282 285 284
f 286 285 283
f 285 287 284
f 288 285 286
f 285 288 287
f 289 288 286
f 288 290 287
f 288 289 290
f 291 292 293
f 292 291 294
f 292 295 293
f 292 294 296
f 295 292 297
f 298 292 296
f 292 299 297
f 292 298 300
f 292 301 299
f 292 300 302
f 301 292 303
f 304 292 302
f 292 305 303
f 292 304 306
f 292 307 305
f 292 306 308
f 307 292 309
f 310 292 308
f 292 311 309
f 292 310 312
f 292 313 311
f 292 312 314
f 313 292 315
f 316 292 314
f 292 317 315
f 292 316 318
f 292 319 317
f 292 318 320
f 319 292 321
f 322 292 320
f 292 323 321
f 292 322 323
f 324 325 326
f 325 324 327
f 325 328 326
f 325 327 329
f 328 325 330
f 331 325 329
f 325 332 330
f 325 331 333
f 325 334 332
f 325 333 335
f 334 325 336
f 337 325 335
f 325 338 336
f 325 337 339
f 325 340 338
f 325 339 341
f 340 325 342
f 343 325 341
f 325 344 342
f 325 343 345
f 325 346 344
f 325 345 347
f 346 325 348
f 349 325 347
f 325 350 348
f 325 349 351
f 325 352 350
f 325 351 353
f 352 325 354
f 355 325 353
f 325 356 354
f 325 355 356
