# ROS coordinates: X forward, Y left, Z up; units are metres.
o mesh
v -0.0314806029 -0.09696348 0.005369033
v -0.0388157777 -0.10376019 0.005369033
v -0.0388037 -0.103773221 0.00443729339
v -0.03512449 -0.100387417 0.004300178
v -0.0314685255 -0.09697652 0.00443729339
v -0.0386653654 -0.103922516 0.00347076077
v -0.03133019 -0.09712581 0.00347076077
v -0.0349331237 -0.100593947 0.00319578638
v -0.0383894853 -0.104220256 0.002525425
v -0.03105431 -0.09742355 0.002525425
v -0.03456204 -0.10099443 0.002142392
v -0.0379805341 -0.104661606 0.00166415423
v -0.0306453612 -0.0978648961 0.00166415423
v -0.0340272635 -0.101571575 0.0012324769
v -0.0374603122 -0.105223045 0.0009444505
v -0.0301251374 -0.0984263346 0.0009444505
v -0.0333723575 -0.102278359 0.0005401699
v -0.036864344 -0.105866224 0.000406348146
v -0.02952917 -0.09906952 0.000406348146
v -0.0326572172 -0.103050157 0.000102155842
v -0.0362342671 -0.106546223 6.543845E-05
v -0.03194178 -0.103822276 -8.66306946E-05
v -0.0288990922 -0.09974951 6.543845E-05
v -0.0356093645 -0.107220635 -8.66306946E-05
v -0.0282741915 -0.100423925 -8.66306946E-05
v -0.03497609 -0.107904077 -6.886199E-05
v -0.0276409145 -0.101107374 -6.886199E-05
v -0.03121531 -0.1046063 -5.17582521E-05
v -0.0343191661 -0.108613044 0.000134670176
v -0.0269839913 -0.101816341 0.000134670176
v -0.0306515787 -0.105214693 0.000134670176
v -0.03009835 -0.105811752 0.000470164232
v -0.03367665 -0.10930647 0.00054057315
v -0.0263414737 -0.102509759 0.00054057315
v -0.0295826644 -0.106368296 0.0009517893
v -0.03309127 -0.109938227 0.00114226341
v -0.0257560927 -0.103141516 0.00114226341
v -0.0291302819 -0.106856517 0.00156259164
v -0.03260211 -0.110466138 0.00190766621
v -0.0252669323 -0.103669435 0.00190766621
v -0.0287616439 -0.107254356 0.002273323
v -0.0322363749 -0.110860847 0.00278451387
v -0.0249012 -0.104064137 0.00278451387
v -0.0284888782 -0.107548736 0.00304694939
v -0.03200467 -0.111110911 0.00371154724
v -0.0246694945 -0.104314208 0.00371154724
v -0.0283147655 -0.10773664 0.00384458061
v -0.03190131 -0.111222461 0.00463096565
v -0.0245661344 -0.104425751 0.00463096565
v -0.03191339 -0.111209422 0.00556270545
v -0.0282574259 -0.107798524 0.00569982175
v -0.0245782137 -0.10441272 0.00556270545
v -0.0320517235 -0.111060128 0.006529238
v -0.0247165486 -0.104263425 0.006529238
v -0.0284487922 -0.107591994 0.00680421246
v -0.0323276035 -0.110762388 0.00747457426
v -0.0249924287 -0.103965685 0.00747457426
v -0.0288198758 -0.10719151 0.007857608
v -0.0327365547 -0.110321045 0.008335845
v -0.0254013781 -0.103524335 0.008335845
v -0.0293546524 -0.106614366 0.008767524
v -0.0332567766 -0.109759606 0.009055548
v -0.0259216018 -0.102962896 0.009055548
v -0.0300095547 -0.105907582 0.009459829
v -0.0338527448 -0.10911642 0.009593651
v -0.02651757 -0.102319717 0.009593651
v -0.030724695 -0.105135784 0.009897844
v -0.03448282 -0.108436428 0.009934561
v -0.0314401351 -0.104363665 0.0100866314
v -0.027147647 -0.101639718 0.009934561
v -0.0351077244 -0.107762016 0.0100866314
v -0.0277725477 -0.100965306 0.0100866314
v -0.035741 -0.107078567 0.0100688618
v -0.0284058247 -0.100281864 0.0100688618
v -0.032166604 -0.10357964 0.0100517571
v -0.0363979228 -0.1063696 0.00986533
v -0.029062748 -0.0995729 0.00986533
v -0.0327303372 -0.102971248 0.00986533
v -0.03328356 -0.102374189 0.009529835
v -0.0370404422 -0.105676182 0.009459427
v -0.0297052655 -0.09887947 0.009459427
v -0.03379925 -0.101817645 0.00904821
v -0.03762582 -0.105044425 0.008857737
v -0.0302906446 -0.0982477143 0.008857737
v -0.034251634 -0.101329423 0.008437407
v -0.03811498 -0.104516506 0.008092334
v -0.0307798069 -0.0977198 0.008092334
v -0.03462027 -0.100931585 0.0077266763
v -0.038480714 -0.104121804 0.007215485
v -0.03114554 -0.097325094 0.007215485
v -0.0348930359 -0.100637205 0.00695304945
v -0.03871242 -0.103871733 0.00628845161
v -0.0313772447 -0.09707503 0.00628845161
v -0.03506715 -0.1004493 0.006155418
v -0.0388157777 -0.10376019 0.005369033
v -0.0314806029 -0.09696348 0.005369033
v -0.0359852538 -0.106814966 0.0150931813
v -0.0286500789 -0.100018255 0.0150931813
v -0.02861664 -0.100054346 0.0153906392
v -0.0322761536 -0.103461407 0.0154337371
v -0.0359518155 -0.106851049 0.0153906392
v -0.0285416767 -0.100135244 0.0156905614
v -0.03587685 -0.106931955 0.0156905614
v -0.0321798362 -0.103565358 0.01577415
v -0.0284233522 -0.100262947 0.0159742478
v -0.0357585251 -0.10705965 0.0159742478
v -0.0320276059 -0.10372965 0.01608589
v -0.0282650925 -0.100433744 0.0162218791
v -0.0356002674 -0.107230447 0.0162218791
v -0.03182752 -0.103945591 0.0163404476
v -0.0280757062 -0.100638136 0.0164165422
v -0.03541088 -0.107434839 0.0164165422
v -0.0315958858 -0.104195572 0.0165170878
v -0.0278678332 -0.100862473 0.0165478643
v -0.0352030061 -0.107659183 0.0165478643
v -0.0313530378 -0.104457662 0.0166081786
v -0.0276552979 -0.101091847 0.0166137125
v -0.0311180018 -0.104711317 0.0166194625
v -0.0349904746 -0.107888557 0.0166137125
v -0.0274504144 -0.101312965 0.0166194625
v -0.03478559 -0.108109668 0.0166194625
v -0.027248241 -0.101531155 0.0165702626
v -0.0345834158 -0.108327866 0.0165702626
v -0.0308865365 -0.10496112 0.0165583827
v -0.0270443931 -0.101751156 0.0164599679
v -0.034379568 -0.108547859 0.0164599679
v -0.03071198 -0.105149508 0.0164599679
v -0.0305455178 -0.105329156 0.0163145512
v -0.02685158 -0.101959243 0.0162858758
v -0.0341867544 -0.108755946 0.0162858758
v -0.03039571 -0.105490834 0.016124934
v -0.02668327 -0.102140881 0.0160530321
v -0.0340184458 -0.108937591 0.0160530321
v -0.030270271 -0.105626211 0.0158983059
v -0.0265509635 -0.102283671 0.0157743841
v -0.03388614 -0.109080382 0.0157743841
v -0.0301748142 -0.10572923 0.0156454463
v -0.02646171 -0.10238 0.0154685406
v -0.0337968841 -0.10917671 0.0154685406
v -0.030112043 -0.10579697 0.015379034
v -0.0264169537 -0.1024283 0.01515584
v -0.03375213 -0.109225005 0.01515584
v -0.0300816186 -0.105829805 0.0151117165
v -0.0264130458 -0.102432519 0.0148543939
v -0.03374822 -0.109229222 0.0148543939
v -0.026446484 -0.102396429 0.0145569351
v -0.030122146 -0.10578607 0.0145138372
v -0.03378166 -0.109193139 0.0145569351
v -0.02652145 -0.10231553 0.0142570119
v -0.0338566229 -0.109112233 0.0142570119
v -0.0302184634 -0.10568212 0.0141734239
v -0.0266397744 -0.102187827 0.0139733255
v -0.03397495 -0.108984537 0.0139733255
v -0.0303706974 -0.105517827 0.0138616851
v -0.0267980322 -0.10201703 0.0137256961
v -0.0341332071 -0.10881374 0.0137256961
v -0.03057078 -0.105301894 0.0136071267
v -0.02698742 -0.101812638 0.0135310311
v -0.0343225971 -0.108609349 0.0135310311
v -0.0308024157 -0.105051905 0.0134304864
v -0.0271952935 -0.101588294 0.013399709
v -0.03453047 -0.108385004 0.013399709
v -0.0310452636 -0.104789816 0.0133393947
v -0.0274078287 -0.101358928 0.0133338608
v -0.0312802978 -0.104536161 0.0133281117
v -0.0347430035 -0.108155631 0.0133338608
v -0.02761271 -0.101137809 0.0133281117
v -0.0349478871 -0.10793452 0.0133281117
v -0.0278148856 -0.100919619 0.0133773107
v -0.03515006 -0.107716322 0.0133773107
v -0.031511765 -0.104286358 0.01338919
v -0.0280187335 -0.100699618 0.0134876054
v -0.03535391 -0.107496329 0.0134876054
v -0.03168632 -0.10409797 0.0134876054
v -0.0318527855 -0.103918321 0.0136330221
v -0.0282115471 -0.100491531 0.0136616975
v -0.03554672 -0.107288241 0.0136616975
v -0.03200259 -0.103756651 0.0138226412
v -0.0283798538 -0.100309893 0.0138945431
v -0.03571503 -0.107106596 0.0138945431
v -0.03212803 -0.103621267 0.0140492665
v -0.0285121612 -0.1001671 0.0141731892
v -0.0358473361 -0.106963806 0.0141731892
v -0.03222349 -0.103518248 0.014302128
v -0.0286014173 -0.100070775 0.0144790336
v -0.035936594 -0.106867477 0.0144790336
v -0.0322862566 -0.103450507 0.0145685393
v -0.028646173 -0.100022472 0.0147917345
v -0.03598135 -0.106819183 0.0147917345
v -0.03231668 -0.103417672 0.0148358578
v -0.0286500789 -0.100018255 0.0150931813
v -0.0359852538 -0.106814966 0.0150931813
v -0.0296981726 -0.113600135 0.00439579738
v -0.0223629978 -0.106803432 0.00439579738
v -0.0223295577 -0.106839523 0.004693256
v -0.02598907 -0.110246591 0.00473635364
v -0.0296647325 -0.113636225 0.004693256
v -0.0222545937 -0.106920421 0.00499317935
v -0.0295897685 -0.113717131 0.00499317935
v -0.0258927532 -0.110350534 0.00507676741
v -0.0221362673 -0.107048124 0.00527686533
v -0.0294714421 -0.113844834 0.00527686533
v -0.025740521 -0.110514827 0.00538850669
v -0.02197801 -0.107218921 0.00552449562
v -0.0293131843 -0.114015624 0.00552449562
v -0.0255404375 -0.110730767 0.005643064
v -0.0217886213 -0.107423313 0.00571915973
v -0.0291237962 -0.114220023 0.00571915973
v -0.0253088027 -0.110980749 0.005819705
v -0.0215807483 -0.107647657 0.00585048134
v -0.0289159231 -0.11444436 0.00585048134
v -0.0250659548 -0.111242838 0.00591079658
v -0.0213682149 -0.107877024 0.0059163305
v -0.0248309188 -0.111496493 0.005922079
v -0.02870339 -0.114673734 0.0059163305
v -0.0211633313 -0.108098142 0.005922079
v -0.0284985062 -0.114894852 0.005922079
v -0.0209611561 -0.108316332 0.00587288
v -0.0282963309 -0.115113042 0.00587288
v -0.0245994534 -0.1117463 0.005861001
v -0.02075731 -0.108536333 0.00576258544
v -0.0280924849 -0.115333036 0.00576258544
v -0.0244248956 -0.111934684 0.00576258544
v -0.0242584329 -0.11211434 0.00561716873
v -0.0205644965 -0.10874442 0.00558849331
v -0.0278996713 -0.11554113 0.00558849331
v -0.0241086278 -0.11227601 0.005427549
v -0.02039619 -0.108926058 0.00535564777
v -0.0277313646 -0.115722768 0.00535564777
v -0.023983188 -0.112411387 0.00520092435
v -0.02026388 -0.109068848 0.00507700257
v -0.0275990553 -0.115865558 0.00507700257
v -0.0238877311 -0.112514406 0.004948063
v -0.0201746263 -0.109165177 0.00477115856
v -0.0275098011 -0.115961887 0.00477115856
v -0.0238249619 -0.112582147 0.004681651
v -0.02012987 -0.109213479 0.004458456
v -0.0274650455 -0.116010189 0.004458456
v -0.0237945355 -0.112614982 0.004414334
v -0.0201259628 -0.109217696 0.004157011
v -0.0274611376 -0.1160144 0.004157011
v -0.020159401 -0.109181605 0.00385955162
v -0.023835063 -0.112571247 0.00381645374
v -0.0274945758 -0.115978315 0.00385955162
v -0.020234365 -0.109100707 0.00355962943
v -0.02756954 -0.11589741 0.00355962943
v -0.02393138 -0.1124673 0.00347604137
v -0.0203526914 -0.108973004 0.003275944
v -0.0276878662 -0.115769714 0.003275944
v -0.0240836143 -0.112303 0.00316430256
v -0.02051095 -0.108802207 0.00302831223
v -0.027846124 -0.115598917 0.00302831223
v -0.0242837 -0.112087071 0.00290974276
v -0.02070034 -0.108597815 0.00283364812
v -0.0280355141 -0.115394525 0.00283364812
v -0.02451533 -0.111837082 0.00273310347
v -0.02090821 -0.108373471 0.00270232651
v -0.0282433853 -0.115170181 0.00270232651
v -0.02475818 -0.111574993 0.00264201267
v -0.021120742 -0.108144104 0.00263647828
v -0.0249932148 -0.111321338 0.0026307283
v -0.0284559168 -0.114940807 0.00263647828
v -0.0213256273 -0.107922986 0.0026307283
v -0.0286608022 -0.1147197 0.0026307283
v -0.0215278 -0.107704796 0.00267992821
v -0.0288629755 -0.114501506 0.00267992821
v -0.0252246819 -0.111071534 0.00269180769
v -0.02173165 -0.107484795 0.00279022288
v -0.0290668253 -0.114281505 0.00279022288
v -0.0253992379 -0.110883154 0.00279022288
v -0.0255657 -0.1107035 0.00293563958
v -0.0219244622 -0.107276708 0.00296431454
v -0.029259637 -0.114073418 0.00296431454
v -0.0257155076 -0.110541821 0.00312525872
v -0.02209277 -0.10709507 0.00319716
v -0.0294279456 -0.113891773 0.00319716
v -0.0258409455 -0.110406443 0.003351885
v -0.0222250782 -0.10695228 0.00347580668
v -0.029560253 -0.113748983 0.00347580668
v -0.0259364042 -0.110303424 0.00360474549
v -0.0223143343 -0.106855951 0.00378165022
v -0.02964951 -0.113652661 0.00378165022
v -0.0259991735 -0.110235684 0.00387115637
v -0.02235909 -0.106807649 0.004094352
v -0.0296942648 -0.113604352 0.004094352
v -0.026029598 -0.110202849 0.004138475
v -0.0223629978 -0.106803432 0.00439579738
v -0.0296981726 -0.113600135 0.00439579738
v -0.04325595 -0.0989682451 0.005842988
v -0.0359207764 -0.0921715349 0.005842988
v -0.03588734 -0.0922076255 0.00614044676
v -0.03954685 -0.0956146941 0.006183545
v -0.043222513 -0.0990043357 0.00614044676
v -0.0358123742 -0.09228853 0.00644037
v -0.04314755 -0.0990852341 0.00644037
v -0.0394505337 -0.09571864 0.006523958
v -0.0356940478 -0.09241623 0.00672405632
v -0.0430292226 -0.09921294 0.00672405632
v -0.0392983 -0.09588294 0.006835697
v -0.03553579 -0.092587024 0.006971686
v -0.0428709649 -0.0993837342 0.006971686
v -0.0390982144 -0.09609887 0.00709025562
v -0.0353464 -0.0927914158 0.00716635026
v -0.0426815748 -0.0995881259 0.00716635026
v -0.0388665833 -0.09634886 0.007266896
v -0.03513853 -0.09301576 0.00729767233
v -0.0424737036 -0.09981247 0.00729767233
v -0.0386237353 -0.09661095 0.00735798758
v -0.0349259973 -0.0932451338 0.00736352149
v -0.0383887 -0.096864596 0.00736926962
v -0.0422611721 -0.100041837 0.00736352149
v -0.0347211137 -0.0934662446 0.00736926962
v -0.0420562848 -0.100262955 0.00736926962
v -0.03451894 -0.0936844349 0.007320071
v -0.0418541133 -0.100481145 0.007320071
v -0.0381572321 -0.09711441 0.007308192
v -0.0343150869 -0.0939044356 0.00720977644
v -0.0416502655 -0.100701146 0.00720977644
v -0.0379826762 -0.09730279 0.00720977644
v -0.03781621 -0.09748244 0.00706436
v -0.0341222771 -0.09411252 0.007035685
v -0.0414574519 -0.100909233 0.007035685
v -0.0376664065 -0.09764411 0.00687474059
v -0.03395397 -0.09429417 0.00680283876
v -0.0412891433 -0.101090871 0.00680283876
v -0.03754097 -0.09777949 0.00664811535
v -0.03382166 -0.09443696 0.006524193
v -0.0411568359 -0.101233661 0.006524193
v -0.0374455079 -0.09788251 0.00639525335
v -0.0337324068 -0.09453328 0.006218349
v -0.0410675779 -0.10132999 0.006218349
v -0.03738274 -0.09795026 0.00612884248
v -0.03368765 -0.09458159 0.00590564637
v -0.0410228223 -0.101378292 0.00590564637
v -0.0373523161 -0.09798309 0.00586152449
v -0.0336837433 -0.0945858 0.00560420146
v -0.04101892 -0.101382509 0.00560420146
v -0.03371718 -0.0945497155 0.005306742
v -0.0373928435 -0.09793935 0.005263645
v -0.0410523564 -0.101346418 0.005306742
v -0.0337921456 -0.09446881 0.00500682
v -0.04112732 -0.10126552 0.00500682
v -0.03748916 -0.09783541 0.004923232
v -0.0339104719 -0.09434111 0.00472313445
v -0.0412456468 -0.101137817 0.00472313445
v -0.0376413949 -0.09767111 0.004611493
v -0.03406873 -0.09417032 0.00447550276
v -0.0414039046 -0.10096702 0.00447550276
v -0.0378414765 -0.0974551737 0.004356934
v -0.03425812 -0.09396592 0.00428083958
v -0.04159329 -0.100762628 0.00428083958
v -0.03807311 -0.09720519 0.004180294
v -0.03446599 -0.09374158 0.004149518
v -0.0418011658 -0.100538284 0.004149518
v -0.03831596 -0.0969431 0.004089203
v -0.0346785262 -0.09351221 0.00408366974
v -0.0385509953 -0.09668945 0.00407791976
v -0.0420136973 -0.100308917 0.00408366974
v -0.03488341 -0.09329109 0.00407791976
v -0.04221858 -0.1000878 0.00407791976
v -0.03508558 -0.0930729 0.00412711967
v -0.04242076 -0.09986961 0.00412711967
v -0.0387824625 -0.0964396447 0.004138998
v -0.03528943 -0.0928529054 0.00423741434
v -0.042624604 -0.09964961 0.00423741434
v -0.03895702 -0.09625126 0.00423741434
v -0.039123483 -0.0960716 0.00438283
v -0.0354822427 -0.09264481 0.004411506
v -0.0428174175 -0.09944152 0.004411506
v -0.0392732881 -0.09590993 0.00457244925
v -0.03565055 -0.09246317 0.00464435061
v -0.0429857224 -0.09925988 0.00464435061
v -0.0393987261 -0.09577455 0.00479907542
v -0.03578286 -0.09232038 0.004922997
v -0.0431180336 -0.09911709 0.004922997
v -0.0394941829 -0.0956715345 0.005051936
v -0.035872113 -0.092224054 0.00522884075
v -0.0432072878 -0.0990207642 0.00522884075
v -0.03955695 -0.0956037939 0.005318348
v -0.03591687 -0.09217575 0.00554154254
v -0.0432520434 -0.09897246 0.00554154254
v -0.03958738 -0.09557095 0.00558566535
v -0.0359207764 -0.0921715349 0.005842988
v -0.04325595 -0.0989682451 0.005842988
v -0.03696887 -0.105753422 -0.004854395
v -0.0296336934 -0.09895672 -0.004854395
v -0.0296002533 -0.0989928 -0.00455693528
v -0.033259768 -0.102399871 -0.0045138374
v -0.03693543 -0.105789512 -0.00455693528
v -0.02952529 -0.09907371 -0.004257014
v -0.036860466 -0.105870411 -0.004257014
v -0.03316345 -0.102503821 -0.004173425
v -0.0294069648 -0.0992014 -0.00397332758
v -0.03674214 -0.105998114 -0.00397332758
v -0.0330112167 -0.102668114 -0.00386168342
v -0.029248707 -0.0993722 -0.00372569449
v -0.03658388 -0.106168911 -0.00372569449
v -0.03281113 -0.102884047 -0.00360712782
v -0.0290593188 -0.09957659 -0.00353103317
v -0.0363944955 -0.1063733 -0.00353103317
v -0.0325794965 -0.103134036 -0.00343048759
v -0.0288514458 -0.09980094 -0.003399712
v -0.03618662 -0.106597647 -0.003399712
v -0.03233665 -0.103396125 -0.00333939679
v -0.0286389124 -0.10003031 -0.003333861
v -0.0321016163 -0.10364978 -0.00332811475
v -0.0359740853 -0.106827013 -0.003333861
v -0.028434027 -0.100251421 -0.00332811475
v -0.0357692 -0.107048132 -0.00332811475
v -0.0282318536 -0.100469619 -0.00337731279
v -0.03556703 -0.107266322 -0.00337731279
v -0.03187015 -0.103899583 -0.00338919275
v -0.0280280057 -0.100689612 -0.00348760653
v -0.0353631824 -0.107486323 -0.00348760653
v -0.0316955931 -0.104087964 -0.00348760653
v -0.03152913 -0.10426762 -0.00363302324
v -0.0278351922 -0.1008977 -0.00366169773
v -0.03517037 -0.10769441 -0.00366169773
v -0.0313793235 -0.10442929 -0.00382264424
v -0.0276668854 -0.101079345 -0.00389454328
v -0.03500206 -0.107876047 -0.00389454328
v -0.0312538855 -0.104564667 -0.00404926669
v -0.027534578 -0.101222135 -0.0041731894
v -0.0348697528 -0.108018838 -0.0041731894
v -0.0311584268 -0.104667693 -0.00430213
v -0.0274453219 -0.101318464 -0.004479034
v -0.0347805 -0.108115166 -0.004479034
v -0.0310956575 -0.104735434 -0.00456854049
v -0.0274005663 -0.101366758 -0.0047917366
v -0.034735743 -0.108163469 -0.0047917366
v -0.0310652331 -0.104768269 -0.00483586
v -0.0273966584 -0.101370975 -0.00509318244
v -0.0347318351 -0.108167686 -0.00509318244
v -0.0274300985 -0.101334892 -0.00539064128
v -0.03110576 -0.104724526 -0.005433738
v -0.0347652733 -0.108131595 -0.00539064128
v -0.0275050625 -0.101253986 -0.00569056254
v -0.0348402373 -0.1080507 -0.00569056254
v -0.031202076 -0.104620583 -0.0057741506
v -0.0276233871 -0.101126291 -0.005974247
v -0.0349585637 -0.107922994 -0.005974247
v -0.0313543081 -0.104456291 -0.006085892
v -0.0277816467 -0.100955494 -0.00622187834
v -0.03511682 -0.1077522 -0.00622187834
v -0.0315543935 -0.10424035 -0.00634045061
v -0.027971033 -0.1007511 -0.006416547
v -0.0353062078 -0.107547805 -0.006416547
v -0.03178603 -0.103990369 -0.006517087
v -0.0281789061 -0.100526758 -0.00654786546
v -0.0355140828 -0.107323468 -0.00654786546
v -0.0320288762 -0.103728279 -0.00660818
v -0.0283914413 -0.100297384 -0.00661371555
v -0.0322639123 -0.103474624 -0.006619462
v -0.0357266143 -0.107094094 -0.00661371555
v -0.0285963248 -0.100076273 -0.006619462
v -0.0359314978 -0.106872976 -0.006619462
v -0.0287984982 -0.0998580754 -0.00657026377
v -0.036133673 -0.106654786 -0.00657026377
v -0.03249538 -0.103224821 -0.00655838754
v -0.0290023461 -0.09963808 -0.006459971
v -0.03633752 -0.106434785 -0.006459971
v -0.0326699354 -0.103036433 -0.006459971
v -0.0328363962 -0.102856785 -0.00631455239
v -0.02919516 -0.0994299948 -0.006285879
v -0.0365303345 -0.1062267 -0.006285879
v -0.0329862051 -0.102695107 -0.00612493139
v -0.0293634683 -0.09924835 -0.00605303328
v -0.0366986431 -0.10604506 -0.00605303328
v -0.033111643 -0.10255973 -0.005898309
v -0.0294957757 -0.09910556 -0.0057743853
v -0.03683095 -0.105902269 -0.0057743853
v -0.0332071 -0.102456711 -0.00564544555
v -0.02958503 -0.09900923 -0.00546854176
v -0.0369202048 -0.105805941 -0.00546854176
v -0.03326987 -0.102388971 -0.005379036
v -0.0296297856 -0.0989609361 -0.00515584
v -0.03696496 -0.105757639 -0.00515584
v -0.0333002955 -0.102356136 -0.00511171855
v -0.0296336934 -0.09895672 -0.004854395
v -0.03696887 -0.105753422 -0.004854395
v -0.0271627083 -0.101623468 0.0224541277
v -0.02610024 -0.102770105 0.0222697426
v -0.0250184387 -0.103937611 0.0219323188
v -0.0239317119 -0.105110437 0.021431949
v -0.0270443931 -0.101751156 0.0164599679
v -0.027248241 -0.101531155 0.0165702626
v -0.0274504144 -0.101312965 0.0166194625
v -0.0282321386 -0.100469306 0.0224973056
v -0.0293357149 -0.0992783 0.0223931558
v -0.02685158 -0.101959243 0.0162858758
v -0.02668327 -0.102140881 0.0160530321
v -0.0265509635 -0.102283671 0.0157743841
v -0.0228564069 -0.106270932 0.02076253
v -0.02646171 -0.10238 0.0154685406
v -0.0218102187 -0.1074 0.0199226215
v -0.0264169537 -0.1024283 0.01515584
v -0.0208114218 -0.108477935 0.0189160965
v -0.0264130458 -0.102432519 0.0148543939
v -0.01987793 -0.10948538 0.0177524276
v -0.0304601472 -0.09806479 0.02212881
v -0.026446484 -0.102396429 0.0145569351
v -0.0315898657 -0.09684557 0.02169476
v -0.0327074975 -0.09563939 0.0210858248
v -0.0337945819 -0.09446618 0.020301953
v -0.0348324552 -0.09334608 0.01934871
v -0.03580324 -0.09229839 0.0182373356
v -0.0276552979 -0.101091847 0.0166137125
v -0.0278678332 -0.100862473 0.0165478643
v -0.0280757062 -0.100638136 0.0164165422
v -0.0282650925 -0.100433744 0.0162218791
v -0.0284233522 -0.100262947 0.0159742478
v -0.0285416767 -0.100135244 0.0156905614
v -0.02861664 -0.100054346 0.0153906392
v -0.0286500789 -0.100018255 0.0150931813
v -0.028646173 -0.100022472 0.0147917345
v -0.0286014173 -0.100070775 0.0144790336
v -0.03669082 -0.09134049 0.0169843938
v -0.0374817327 -0.0904869139 0.0156109491
v -0.0285121612 -0.1001671 0.0141731892
v -0.0381658375 -0.08974861 0.0141414134
v -0.0277725477 -0.100965306 0.0100866314
v -0.0283798538 -0.100309893 0.0138945431
v -0.0387366936 -0.089132525 0.012602156
v -0.0282115471 -0.100491531 0.0136616975
v -0.0284058247 -0.100281864 0.0100688618
v -0.029062748 -0.0995729 0.00986533
v -0.0280187335 -0.100699618 0.0134876054
v -0.0297052655 -0.09887947 0.009459427
v -0.0278148856 -0.100919619 0.0133773107
v -0.02761271 -0.101137809 0.0133281117
v -0.0274078287 -0.101358928 0.0133338608
v -0.027147647 -0.101639718 0.009934561
v -0.0271952935 -0.101588294 0.013399709
v -0.02698742 -0.101812638 0.0135310311
v -0.02651757 -0.102319717 0.009593651
v -0.0267980322 -0.10201703 0.0137256961
v -0.0266397744 -0.102187827 0.0139733255
v -0.0259216018 -0.102962896 0.009055548
v -0.02652145 -0.10231553 0.0142570119
v -0.0254013781 -0.103524335 0.008335845
v -0.0302906446 -0.0982477143 0.008857737
v -0.0190263391 -0.110404432 0.016446529
v -0.0211633313 -0.108098142 0.005922079
v -0.0182709768 -0.111219645 0.0150182135
v -0.0249924287 -0.103965685 0.00747457426
v -0.0176230818 -0.111918867 0.0134911882
v -0.0247165486 -0.104263425 0.006529238
v -0.0209611561 -0.108316332 0.00587288
v -0.0170903057 -0.11249385 0.011891759
v -0.02075731 -0.108536333 0.00576258544
v -0.01667643 -0.11294052 0.0102473879
v -0.0205644965 -0.10874442 0.00558849331
v -0.0163814221 -0.1132589 0.008585234
v -0.02039619 -0.108926058 0.00535564777
v -0.0213682149 -0.107877024 0.0059163305
v -0.0162017532 -0.1134528 0.006930854
v -0.02026388 -0.109068848 0.00507700257
v -0.0201746263 -0.109165177 0.00477115856
v -0.0161309633 -0.1135292 0.00530716032
v -0.02012987 -0.109213479 0.004458456
v -0.0215807483 -0.107647657 0.00585048134
v -0.0161603112 -0.113497525 0.00373370713
v -0.0201259628 -0.109217696 0.004157011
v -0.020159401 -0.109181605 0.00385955162
v -0.0162856318 -0.113362275 0.00217049848
v -0.020234365 -0.109100707 0.00355962943
v -0.0217886213 -0.107423313 0.00571915973
v -0.02197801 -0.107218921 0.00552449562
v -0.0221362673 -0.107048124 0.00527686533
v -0.01651497 -0.113114767 0.0005788412
v -0.0203526914 -0.108973004 0.003275944
v -0.02051095 -0.108802207 0.00302831223
v -0.0168550573 -0.112747744 -0.001020059
v -0.02070034 -0.108597815 0.00283364812
v -0.01731004 -0.112256706 -0.00260215532
v -0.02090821 -0.108373471 0.00270232651
v -0.0178809017 -0.111640625 -0.00414141361
v -0.021120742 -0.108144104 0.00263647828
v -0.0185650066 -0.110902317 -0.00561095029
v -0.0245782137 -0.10441272 0.00556270545
v -0.0222545937 -0.106920421 0.00499317935
v -0.0223295577 -0.106839523 0.004693256
v -0.0213256273 -0.107922986 0.0026307283
v -0.0245661344 -0.104425751 0.00463096565
v -0.0223629978 -0.106803432 0.00439579738
v -0.02235909 -0.106807649 0.004094352
v -0.0193559229 -0.110048741 -0.006984393
v -0.0246694945 -0.104314208 0.00371154724
v -0.0223143343 -0.106855951 0.00378165022
v -0.0222250782 -0.10695228 0.00347580668
v -0.0249012 -0.104064137 0.00278451387
v -0.02209277 -0.10709507 0.00319716
v -0.0219244622 -0.107276708 0.00296431454
v -0.02173165 -0.107484795 0.00279022288
v -0.0215278 -0.107704796 0.00267992821
v -0.0252669323 -0.103669435 0.00190766621
v -0.0202435 -0.10909085 -0.008237339
v -0.0257560927 -0.103141516 0.00114226341
v -0.0274005663 -0.101366758 -0.0047917366
v -0.021214284 -0.108043149 -0.009348708
v -0.0274453219 -0.101318464 -0.004479034
v -0.0273966584 -0.101370975 -0.00509318244
v -0.0263414737 -0.102509759 0.00054057315
v -0.0222521611 -0.106923051 -0.0103019541
v -0.027534578 -0.101222135 -0.0041731894
v -0.0274300985 -0.101334892 -0.00539064128
v -0.0233392436 -0.105749846 -0.011085826
v -0.0275050625 -0.101253986 -0.00569056254
v -0.0244568735 -0.104543671 -0.0116947582
v -0.0276233871 -0.101126291 -0.005974247
v -0.025586592 -0.103324451 -0.01212881
v -0.0277816467 -0.100955494 -0.00622187834
v -0.0269839913 -0.101816341 0.000134670176
v -0.0276668854 -0.101079345 -0.00389454328
v -0.0278351922 -0.1008977 -0.00366169773
v -0.0267110243 -0.10211093 -0.0123931533
v -0.027971033 -0.1007511 -0.006416547
v -0.0281789061 -0.100526758 -0.00654786546
v -0.0278146 -0.100919925 -0.0124973068
v -0.0283914413 -0.100297384 -0.00661371555
v -0.0276409145 -0.101107374 -6.886199E-05
v -0.0280280057 -0.100689612 -0.00348760653
v -0.0282318536 -0.100469619 -0.00337731279
v -0.0282741915 -0.100423925 -8.66306946E-05
v -0.02888403 -0.09976577 -0.0124541288
v -0.0285963248 -0.100076273 -0.006619462
v -0.0287984982 -0.0998580754 -0.00657026377
v -0.0299464986 -0.0986191258 -0.0122697437
v -0.0290023461 -0.09963808 -0.006459971
v -0.028434027 -0.100251421 -0.00332811475
v -0.0310283 -0.09745162 -0.01193232
v -0.02919516 -0.0994299948 -0.006285879
v -0.0293634683 -0.09924835 -0.00605303328
v -0.0321150273 -0.0962788 -0.01143195
v -0.0294957757 -0.09910556 -0.0057743853
v -0.0331903324 -0.0951183 -0.0107625267
v -0.02958503 -0.09900923 -0.00546854176
v -0.03423652 -0.09398923 -0.009922626
v -0.0296297856 -0.0989609361 -0.00515584
v -0.03523532 -0.0929113 -0.008916101
v -0.0296336934 -0.09895672 -0.004854395
v -0.03616881 -0.09190386 -0.00775242876
v -0.0296002533 -0.0989928 -0.00455693528
v -0.0370204 -0.0909848 -0.006446532
v -0.02952529 -0.09907371 -0.004257014
v -0.0377757661 -0.0901695862 -0.0050182147
v -0.0384236574 -0.0894703642 -0.00349118933
v -0.0294069648 -0.0992014 -0.00397332758
v -0.0389564335 -0.08889538 -0.00189175922
v -0.029248707 -0.0993722 -0.00372569449
v -0.0290593188 -0.09957659 -0.00353103317
v -0.0288514458 -0.09980094 -0.003399712
v -0.0286389124 -0.10003031 -0.003333861
v -0.0301251374 -0.0984263346 0.0009444505
v -0.02952917 -0.09906952 0.000406348146
v -0.0288990922 -0.09974951 6.543845E-05
v -0.0306453612 -0.0978648961 0.00166415423
v -0.03488341 -0.09329109 0.00407791976
v -0.03105431 -0.09742355 0.002525425
v -0.03133019 -0.09712581 0.00347076077
v -0.03508558 -0.0930729 0.00412711967
v -0.03528943 -0.0928529054 0.00423741434
v -0.0393703058 -0.08844872 -0.000247388147
v -0.0354822427 -0.09264481 0.004411506
v -0.0396653153 -0.08813034 0.00141476467
v -0.03565055 -0.09246317 0.00464435061
v -0.0346785262 -0.09351221 0.00408366974
v -0.0398449861 -0.08793643 0.0030691456
v -0.03578286 -0.09232038 0.004922997
v -0.035872113 -0.092224054 0.00522884075
v -0.03991577 -0.08786004 0.004692839
v -0.03591687 -0.09217575 0.00554154254
v -0.03446599 -0.09374158 0.004149518
v -0.0398864225 -0.08789171 0.00626629172
v -0.0359207764 -0.0921715349 0.005842988
v -0.03588734 -0.0922076255 0.00614044676
v -0.0397611037 -0.0880269557 0.0078295
v -0.0358123742 -0.09228853 0.00644037
v -0.03425812 -0.09396592 0.00428083958
v -0.03406873 -0.09417032 0.00447550276
v -0.0339104719 -0.09434111 0.00472313445
v -0.0395317674 -0.088274464 0.009421158
v -0.0356940478 -0.09241623 0.00672405632
v -0.03553579 -0.092587024 0.006971686
v -0.03919168 -0.0886414945 0.0110200578
v -0.0353464 -0.0927914158 0.00716635026
v -0.0314685255 -0.09697652 0.00443729339
v -0.0337921456 -0.09446881 0.00500682
v -0.03371718 -0.0945497155 0.005306742
v -0.0314806029 -0.09696348 0.005369033
v -0.0336837433 -0.0945858 0.00560420146
v -0.03368765 -0.09458159 0.00590564637
v -0.03513853 -0.09301576 0.00729767233
v -0.0349259973 -0.0932451338 0.00736352149
v -0.0313772447 -0.09707503 0.00628845161
v -0.0337324068 -0.09453328 0.006218349
v -0.03382166 -0.09443696 0.006524193
v -0.0347211137 -0.0934662446 0.00736926962
v -0.03114554 -0.097325094 0.007215485
v -0.0307798069 -0.0977198 0.008092334
v -0.03395397 -0.09429417 0.00680283876
v -0.03451894 -0.0936844349 0.007320071
v -0.0341222771 -0.09411252 0.007035685
v -0.0343150869 -0.0939044356 0.00720977644
v -0.023495486 -0.120294228 0.00373370713
v -0.0161603112 -0.113497525 0.00373370713
v -0.0161309633 -0.1135292 0.00530716032
v -0.01980231 -0.116923496 0.00553645752
v -0.0234661382 -0.120325908 0.00530716032
v -0.0162017532 -0.1134528 0.006930854
v -0.023536928 -0.12024951 0.006930854
v -0.0199092329 -0.1168081 0.00740134669
v -0.0163814221 -0.1132589 0.008585234
v -0.0237165969 -0.1200556 0.008585234
v -0.02016104 -0.116536349 0.009298074
v -0.01667643 -0.11294052 0.0102473879
v -0.0240116045 -0.119737223 0.0102473879
v -0.0205658767 -0.116099432 0.0111909257
v -0.0170903057 -0.11249385 0.011891759
v -0.02442548 -0.11929056 0.011891759
v -0.021126464 -0.115494438 0.0130404038
v -0.0176230818 -0.111918867 0.0134911882
v -0.0249582566 -0.118715577 0.0134911882
v -0.0218392052 -0.114725225 0.014805519
v -0.0182709768 -0.111219645 0.0150182135
v -0.0226939283 -0.113802791 0.016446529
v -0.0256061517 -0.118016347 0.0150182135
v -0.0190263391 -0.110404432 0.016446529
v -0.0263615157 -0.117201142 0.016446529
v -0.01987793 -0.10948538 0.0177524276
v -0.0272131059 -0.116282083 0.0177524276
v -0.0236742236 -0.112744831 0.017927777
v -0.0208114218 -0.108477935 0.0189160965
v -0.0281465966 -0.115274638 0.0189160965
v -0.02475848 -0.111574672 0.01922023
v -0.0218102187 -0.1074 0.0199226215
v -0.0291453935 -0.11419671 0.0199226215
v -0.02592144 -0.110319577 0.0203033369
v -0.0228564069 -0.106270932 0.02076253
v -0.0301915817 -0.113067642 0.02076253
v -0.0271360483 -0.109008744 0.0211659521
v -0.0239317119 -0.105110437 0.021431949
v -0.0312668867 -0.111907139 0.021431949
v -0.0283753537 -0.107671253 0.02180633
v -0.0250184387 -0.103937611 0.0219323188
v -0.0323536135 -0.110734321 0.0219323188
v -0.0296141561 -0.106334306 0.0222311765
v -0.02610024 -0.102770105 0.0222697426
v -0.0308302958 -0.105021819 0.0224541277
v -0.0334354155 -0.109566808 0.0222697426
v -0.0271627083 -0.101623468 0.0224541277
v -0.0344978832 -0.108420171 0.0224541277
v -0.0282321386 -0.100469306 0.0224973056
v -0.0355673134 -0.107266016 0.0224973056
v -0.03205557 -0.103699468 0.02249178
v -0.0293357149 -0.0992783 0.0223931558
v -0.03667089 -0.106075011 0.0223931558
v -0.0333230831 -0.102331541 0.0223344639
v -0.0304601472 -0.09806479 0.02212881
v -0.0377953239 -0.10486149 0.02212881
v -0.03428919 -0.101288892 0.0220773667
v -0.0315898657 -0.09684557 0.02169476
v -0.03892504 -0.10364227 0.02169476
v -0.03525745 -0.100243919 0.02169476
v -0.036216855 -0.09920851 0.02118358
v -0.0327074975 -0.09563939 0.0210858248
v -0.0400426723 -0.102436095 0.0210858248
v -0.0371557847 -0.09819519 0.02054355
v -0.0337945819 -0.09446618 0.020301953
v -0.041129753 -0.10126289 0.020301953
v -0.0380624421 -0.0972167 0.01977739
v -0.0348324552 -0.09334608 0.01934871
v -0.04216763 -0.100142792 0.01934871
v -0.0389252976 -0.0962854847 0.0188909173
v -0.03580324 -0.09229839 0.0182373356
v -0.0431384146 -0.09909509 0.0182373356
v -0.0397335552 -0.0954132 0.017892953
v -0.03669082 -0.09134049 0.0169843938
v -0.0440259948 -0.0981372 0.0169843938
v -0.04047759 -0.09461022 0.016795028
v -0.0374817327 -0.0904869139 0.0156109491
v -0.0448169075 -0.0972836241 0.0156109491
v -0.0411493219 -0.0938852653 0.0156109491
v -0.04174252 -0.0932450742 0.0143562434
v -0.0381658375 -0.08974861 0.0141414134
v -0.0455010124 -0.09654532 0.0141414134
v -0.0422529578 -0.09269419 0.0130474847
v -0.0387366936 -0.089132525 0.012602156
v -0.0460718721 -0.0959292352 0.012602156
v -0.04267848 -0.09223496 0.0117016416
v -0.03919168 -0.0886414945 0.0110200578
v -0.0465268567 -0.0954382047 0.0110200578
v -0.0430189148 -0.09186755 0.0103354137
v -0.0395317674 -0.088274464 0.009421158
v -0.0468669459 -0.0950711742 0.009421158
v -0.04327593 -0.09159017 0.008964673
v -0.0397611037 -0.0880269557 0.0078295
v -0.0470962822 -0.0948236659 0.0078295
v -0.04345278 -0.09139932 0.00760398852
v -0.0398864225 -0.08789171 0.00626629172
v -0.0472216 -0.0946884155 0.00626629172
v -0.03991577 -0.08786004 0.004692839
v -0.0435796045 -0.0912624449 0.00446354132
v -0.04725095 -0.09465674 0.004692839
v -0.0398449861 -0.08793643 0.0030691456
v -0.04718016 -0.09473314 0.0030691456
v -0.04347268 -0.09137784 0.00259865168
v -0.0396653153 -0.08813034 0.00141476467
v -0.04700049 -0.09492704 0.00141476467
v -0.0432208739 -0.09164959 0.0007019248
v -0.0393703058 -0.08844872 -0.000247388147
v -0.04670548 -0.09524543 -0.000247388147
v -0.0428160354 -0.09208651 -0.00119092688
v -0.0389564335 -0.08889538 -0.00189175922
v -0.0462916046 -0.09569209 -0.00189175922
v -0.04225545 -0.0926915 -0.003040406
v -0.0384236574 -0.0894703642 -0.00349118933
v -0.0457588322 -0.0962670743 -0.00349118933
v -0.04154271 -0.09346072 -0.00480551925
v -0.0377757661 -0.0901695862 -0.0050182147
v -0.0406879857 -0.09438315 -0.006446532
v -0.04511094 -0.0969663 -0.0050182147
v -0.0370204 -0.0909848 -0.006446532
v -0.044355575 -0.09778151 -0.006446532
v -0.03616881 -0.09190386 -0.00775242876
v -0.0435039848 -0.09870056 -0.00775242876
v -0.03970769 -0.09544111 -0.007927778
v -0.03523532 -0.0929113 -0.008916101
v -0.0425704941 -0.0997080058 -0.008916101
v -0.0386234336 -0.09661127 -0.009220234
v -0.03423652 -0.09398923 -0.009922626
v -0.0415716954 -0.100785933 -0.009922626
v -0.0374604762 -0.0978663638 -0.01030334
v -0.0331903324 -0.0951183 -0.0107625267
v -0.0405255072 -0.101915009 -0.0107625267
v -0.0362458639 -0.0991772 -0.011165957
v -0.0321150273 -0.0962788 -0.01143195
v -0.0394502021 -0.103075504 -0.01143195
v -0.03500656 -0.100514688 -0.0118063306
v -0.0310283 -0.09745162 -0.01193232
v -0.0383634754 -0.10424833 -0.01193232
v -0.0337677561 -0.101851635 -0.0122311777
v -0.0299464986 -0.0986191258 -0.0122697437
v -0.03255162 -0.103164122 -0.0124541288
v -0.0372816734 -0.105415836 -0.0122697437
v -0.02888403 -0.09976577 -0.0124541288
v -0.0362192057 -0.106562473 -0.0124541288
v -0.0278146 -0.100919925 -0.0124973068
v -0.0351497754 -0.107716635 -0.0124973068
v -0.0313263424 -0.104486473 -0.0124917766
v -0.0267110243 -0.10211093 -0.0123931533
v -0.0340462 -0.10890764 -0.0123931533
v -0.030058831 -0.1058544 -0.012334465
v -0.025586592 -0.103324451 -0.01212881
v -0.032921765 -0.110121153 -0.01212881
v -0.0290927254 -0.106897049 -0.0120773641
v -0.0244568735 -0.104543671 -0.0116947582
v -0.03179205 -0.111340374 -0.0116947582
v -0.028124461 -0.107942022 -0.0116947582
v -0.027165059 -0.10897743 -0.011183585
v -0.0233392436 -0.105749846 -0.011085826
v -0.0306744184 -0.112546548 -0.011085826
v -0.02622613 -0.109990746 -0.0105435541
v -0.0222521611 -0.106923051 -0.0103019541
v -0.0295873359 -0.113719761 -0.0103019541
v -0.025319472 -0.110969231 -0.00977739
v -0.021214284 -0.108043149 -0.009348708
v -0.0285494588 -0.114839859 -0.009348708
v -0.0244566165 -0.111900449 -0.008890918
v -0.0202435 -0.10909085 -0.008237339
v -0.0275786743 -0.115887552 -0.008237339
v -0.0236483589 -0.11277274 -0.007892954
v -0.0193559229 -0.110048741 -0.006984393
v -0.0266910978 -0.116845451 -0.006984393
v -0.0229043253 -0.113575719 -0.00679502543
v -0.0185650066 -0.110902317 -0.00561095029
v -0.0259001814 -0.117699027 -0.00561095029
v -0.0222325921 -0.114300676 -0.00561095029
v -0.0216393955 -0.114940867 -0.00435624458
v -0.0178809017 -0.111640625 -0.00414141361
v -0.0252160765 -0.118437327 -0.00414141361
v -0.0211289581 -0.115491748 -0.003047485
v -0.01731004 -0.112256706 -0.00260215532
v -0.0246452149 -0.119053416 -0.00260215532
v -0.0207034349 -0.115950979 -0.00170164369
v -0.0168550573 -0.112747744 -0.001020059
v -0.0241902322 -0.119544446 -0.001020059
v -0.0203629974 -0.11631839 -0.000335413963
v -0.01651497 -0.113114767 0.0005788412
v -0.0238501448 -0.119911477 0.0005788412
v -0.0201059822 -0.116595767 0.00103532616
v -0.0162856318 -0.113362275 0.00217049848
v -0.0236208066 -0.120158985 0.00217049848
v -0.0199291334 -0.116786622 0.00239600986
v -0.0161603112 -0.113497525 0.00373370713
v -0.023495486 -0.120294228 0.00373370713
v -0.038480714 -0.104121804 0.007215485
v -0.0418541133 -0.100481145 0.007320071
v -0.0416502655 -0.100701146 0.00720977644
v -0.0414574519 -0.100909233 0.007035685
v -0.0412891433 -0.101090871 0.00680283876
v -0.0411568359 -0.101233661 0.006524193
v -0.0420562848 -0.100262955 0.00736926962
v -0.03871242 -0.103871733 0.00628845161
v -0.0410675779 -0.10132999 0.006218349
v -0.0410228223 -0.101378292 0.00590564637
v -0.03811498 -0.104516506 0.008092334
v -0.0388157777 -0.10376019 0.005369033
v -0.04101892 -0.101382509 0.00560420146
v -0.0410523564 -0.101346418 0.005306742
v -0.0388037 -0.103773221 0.00443729339
v -0.04112732 -0.10126552 0.00500682
v -0.0412456468 -0.101137817 0.00472313445
v -0.0386653654 -0.103922516 0.00347076077
v -0.0414039046 -0.10096702 0.00447550276
v -0.04159329 -0.100762628 0.00428083958
v -0.0418011658 -0.100538284 0.004149518
v -0.0420136973 -0.100308917 0.00408366974
v -0.04221858 -0.1000878 0.00407791976
v -0.0383894853 -0.104220256 0.002525425
v -0.0379805341 -0.104661606 0.00166415423
v -0.044355575 -0.09778151 -0.006446532
v -0.04511094 -0.0969663 -0.0050182147
v -0.0457588322 -0.0962670743 -0.00349118933
v -0.04242076 -0.09986961 0.00412711967
v -0.0462916046 -0.09569209 -0.00189175922
v -0.042624604 -0.09964961 0.00423741434
v -0.04670548 -0.09524543 -0.000247388147
v -0.0428174175 -0.09944152 0.004411506
v -0.04700049 -0.09492704 0.00141476467
v -0.0429857224 -0.09925988 0.00464435061
v -0.04718016 -0.09473314 0.0030691456
v -0.0431180336 -0.09911709 0.004922997
v -0.0432072878 -0.0990207642 0.00522884075
v -0.04725095 -0.09465674 0.004692839
v -0.0432520434 -0.09897246 0.00554154254
v -0.0472216 -0.0946884155 0.00626629172
v -0.04325595 -0.0989682451 0.005842988
v -0.043222513 -0.0990043357 0.00614044676
v -0.0470962822 -0.0948236659 0.0078295
v -0.04314755 -0.0990852341 0.00644037
v -0.0468669459 -0.0950711742 0.009421158
v -0.0430292226 -0.09921294 0.00672405632
v -0.0428709649 -0.0993837342 0.006971686
v -0.0465268567 -0.0954382047 0.0110200578
v -0.0426815748 -0.0995881259 0.00716635026
v -0.0460718721 -0.0959292352 0.012602156
v -0.0424737036 -0.09981247 0.00729767233
v -0.0455010124 -0.09654532 0.0141414134
v -0.0422611721 -0.100041837 0.00736352149
v -0.0448169075 -0.0972836241 0.0156109491
v -0.0440259948 -0.0981372 0.0169843938
v -0.0431384146 -0.09909509 0.0182373356
v -0.03762582 -0.105044425 0.008857737
v -0.03598135 -0.106819183 0.0147917345
v -0.04216763 -0.100142792 0.01934871
v -0.035936594 -0.106867477 0.0144790336
v -0.0359852538 -0.106814966 0.0150931813
v -0.0370404422 -0.105676182 0.009459427
v -0.041129753 -0.10126289 0.020301953
v -0.0358473361 -0.106963806 0.0141731892
v -0.0359518155 -0.106851049 0.0153906392
v -0.0400426723 -0.102436095 0.0210858248
v -0.03587685 -0.106931955 0.0156905614
v -0.03892504 -0.10364227 0.02169476
v -0.0357585251 -0.10705965 0.0159742478
v -0.0377953239 -0.10486149 0.02212881
v -0.0356002674 -0.107230447 0.0162218791
v -0.0363979228 -0.1063696 0.00986533
v -0.03571503 -0.107106596 0.0138945431
v -0.03554672 -0.107288241 0.0136616975
v -0.03667089 -0.106075011 0.0223931558
v -0.03541088 -0.107434839 0.0164165422
v -0.0352030061 -0.107659183 0.0165478643
v -0.0355673134 -0.107266016 0.0224973056
v -0.0349904746 -0.107888557 0.0166137125
v -0.0344978832 -0.108420171 0.0224541277
v -0.03478559 -0.108109668 0.0166194625
v -0.0334354155 -0.109566808 0.0222697426
v -0.0323536135 -0.110734321 0.0219323188
v -0.035741 -0.107078567 0.0100688618
v -0.03535391 -0.107496329 0.0134876054
v -0.03515006 -0.107716322 0.0133773107
v -0.0351077244 -0.107762016 0.0100866314
v -0.0349478871 -0.10793452 0.0133281117
v -0.0347430035 -0.108155631 0.0133338608
v -0.0312668867 -0.111907139 0.021431949
v -0.03453047 -0.108385004 0.013399709
v -0.0301915817 -0.113067642 0.02076253
v -0.0343225971 -0.108609349 0.0135310311
v -0.0291453935 -0.11419671 0.0199226215
v -0.0341332071 -0.10881374 0.0137256961
v -0.0281465966 -0.115274638 0.0189160965
v -0.0272131059 -0.116282083 0.0177524276
v -0.0263615157 -0.117201142 0.016446529
v -0.0345834158 -0.108327866 0.0165702626
v -0.034379568 -0.108547859 0.0164599679
v -0.0341867544 -0.108755946 0.0162858758
v -0.0340184458 -0.108937591 0.0160530321
v -0.03388614 -0.109080382 0.0157743841
v -0.0337968841 -0.10917671 0.0154685406
v -0.03375213 -0.109225005 0.01515584
v -0.03374822 -0.109229222 0.0148543939
v -0.03378166 -0.109193139 0.0145569351
v -0.0338566229 -0.109112233 0.0142570119
v -0.0256061517 -0.118016347 0.0150182135
v -0.0249582566 -0.118715577 0.0134911882
v -0.03397495 -0.108984537 0.0139733255
v -0.02442548 -0.11929056 0.011891759
v -0.0240116045 -0.119737223 0.0102473879
v -0.03448282 -0.108436428 0.009934561
v -0.0338527448 -0.10911642 0.009593651
v -0.0332567766 -0.109759606 0.009055548
v -0.0327365547 -0.110321045 0.008335845
v -0.0284985062 -0.114894852 0.005922079
v -0.0323276035 -0.110762388 0.00747457426
v -0.0320517235 -0.111060128 0.006529238
v -0.0282963309 -0.115113042 0.00587288
v -0.0280924849 -0.115333036 0.00576258544
v -0.0278996713 -0.11554113 0.00558849331
v -0.0237165969 -0.1200556 0.008585234
v -0.0277313646 -0.115722768 0.00535564777
v -0.02870339 -0.114673734 0.0059163305
v -0.023536928 -0.12024951 0.006930854
v -0.0275990553 -0.115865558 0.00507700257
v -0.0275098011 -0.115961887 0.00477115856
v -0.0234661382 -0.120325908 0.00530716032
v -0.0274650455 -0.116010189 0.004458456
v -0.0289159231 -0.11444436 0.00585048134
v -0.023495486 -0.120294228 0.00373370713
v -0.0291237962 -0.114220023 0.00571915973
v -0.0293131843 -0.114015624 0.00552449562
v -0.0294714421 -0.113844834 0.00527686533
v -0.0274611376 -0.1160144 0.004157011
v -0.03191339 -0.111209422 0.00556270545
v -0.0295897685 -0.113717131 0.00499317935
v -0.0296647325 -0.113636225 0.004693256
v -0.0274945758 -0.115978315 0.00385955162
v -0.03190131 -0.111222461 0.00463096565
v -0.0296981726 -0.113600135 0.00439579738
v -0.0296942648 -0.113604352 0.004094352
v -0.02756954 -0.11589741 0.00355962943
v -0.0276878662 -0.115769714 0.003275944
v -0.03200467 -0.111110911 0.00371154724
v -0.02964951 -0.113652661 0.00378165022
v -0.029560253 -0.113748983 0.00347580668
v -0.027846124 -0.115598917 0.00302831223
v -0.0322363749 -0.110860847 0.00278451387
v -0.0236208066 -0.120158985 0.00217049848
v -0.0238501448 -0.119911477 0.0005788412
v -0.0241902322 -0.119544446 -0.001020059
v -0.0280355141 -0.115394525 0.00283364812
v -0.0246452149 -0.119053416 -0.00260215532
v -0.0282433853 -0.115170181 0.00270232651
v -0.0294279456 -0.113891773 0.00319716
v -0.0252160765 -0.118437327 -0.00414141361
v -0.0284559168 -0.114940807 0.00263647828
v -0.029259637 -0.114073418 0.00296431454
v -0.0286608022 -0.1147197 0.0026307283
v -0.0290668253 -0.114281505 0.00279022288
v -0.0288629755 -0.114501506 0.00267992821
v -0.03260211 -0.110466138 0.00190766621
v -0.03309127 -0.109938227 0.00114226341
v -0.03367665 -0.10930647 0.00054057315
v -0.0357692 -0.107048132 -0.00332811475
v -0.0343191661 -0.108613044 0.000134670176
v -0.03497609 -0.107904077 -6.886199E-05
v -0.0356093645 -0.107220635 -8.66306946E-05
v -0.0359740853 -0.106827013 -0.003333861
v -0.03556703 -0.107266322 -0.00337731279
v -0.0362342671 -0.106546223 6.543845E-05
v -0.03618662 -0.106597647 -0.003399712
v -0.0363944955 -0.1063733 -0.00353103317
v -0.0353631824 -0.107486323 -0.00348760653
v -0.036864344 -0.105866224 0.000406348146
v -0.03658388 -0.106168911 -0.00372569449
v -0.03674214 -0.105998114 -0.00397332758
v -0.0374603122 -0.105223045 0.0009444505
v -0.036860466 -0.105870411 -0.004257014
v -0.03517037 -0.10769441 -0.00366169773
v -0.03500206 -0.107876047 -0.00389454328
v -0.0348697528 -0.108018838 -0.0041731894
v -0.0259001814 -0.117699027 -0.00561095029
v -0.03693543 -0.105789512 -0.00455693528
v -0.0435039848 -0.09870056 -0.00775242876
v -0.03696887 -0.105753422 -0.004854395
v -0.0425704941 -0.0997080058 -0.008916101
v -0.03696496 -0.105757639 -0.00515584
v -0.0415716954 -0.100785933 -0.009922626
v -0.0369202048 -0.105805941 -0.00546854176
v -0.0405255072 -0.101915009 -0.0107625267
v -0.03683095 -0.105902269 -0.0057743853
v -0.0394502021 -0.103075504 -0.01143195
v -0.0366986431 -0.10604506 -0.00605303328
v -0.0383634754 -0.10424833 -0.01193232
v -0.0365303345 -0.1062267 -0.006285879
v -0.03633752 -0.106434785 -0.006459971
v -0.0372816734 -0.105415836 -0.0122697437
v -0.036133673 -0.106654786 -0.00657026377
v -0.0362192057 -0.106562473 -0.0124541288
v -0.0359314978 -0.106872976 -0.006619462
v -0.0357266143 -0.107094094 -0.00661371555
v -0.0351497754 -0.107716635 -0.0124973068
v -0.0355140828 -0.107323468 -0.00654786546
v -0.0340462 -0.10890764 -0.0123931533
v -0.0353062078 -0.107547805 -0.006416547
v -0.03511682 -0.1077522 -0.00622187834
v -0.032921765 -0.110121153 -0.01212881
v -0.0349585637 -0.107922994 -0.005974247
v -0.03179205 -0.111340374 -0.0116947582
v -0.0348402373 -0.1080507 -0.00569056254
v -0.0306744184 -0.112546548 -0.011085826
v -0.0347652733 -0.108131595 -0.00539064128
v -0.0295873359 -0.113719761 -0.0103019541
v -0.0347318351 -0.108167686 -0.00509318244
v -0.0285494588 -0.114839859 -0.009348708
v -0.034735743 -0.108163469 -0.0047917366
v -0.0275786743 -0.115887552 -0.008237339
v -0.0347805 -0.108115166 -0.004479034
v -0.0266910978 -0.116845451 -0.006984393
f 1 2 3
f 1 3 4
f 5 1 4
f 4 3 6
f 7 5 4
f 8 4 6
f 7 4 8
f 8 6 9
f 10 7 8
f 11 8 9
f 10 8 11
f 11 9 12
f 13 10 11
f 14 11 12
f 13 11 14
f 14 12 15
f 16 13 14
f 17 14 15
f 16 14 17
f 17 15 18
f 19 16 17
f 20 17 18
f 19 17 20
f 20 18 21
f 22 20 21
f 23 19 20
f 23 20 22
f 22 21 24
f 25 23 22
f 26 22 24
f 27 25 22
f 28 22 26
f 27 22 28
f 29 28 26
f 30 27 28
f 31 28 29
f 31 30 28
f 32 31 29
f 31 32 30
f 32 29 33
f 32 34 30
f 35 32 33
f 32 35 34
f 35 33 36
f 35 37 34
f 38 35 36
f 35 38 37
f 38 36 39
f 38 40 37
f 41 38 39
f 38 41 40
f 41 39 42
f 41 43 40
f 44 41 42
f 41 44 43
f 44 42 45
f 44 46 43
f 47 44 45
f 44 47 46
f 47 45 48
f 46 47 49
f 47 48 49
f 48 50 49
f 50 51 49
f 49 51 52
f 50 53 51
f 51 54 52
f 53 55 51
f 51 55 54
f 53 56 55
f 55 57 54
f 56 58 55
f 55 58 57
f 56 59 58
f 58 60 57
f 59 61 58
f 58 61 60
f 59 62 61
f 61 63 60
f 62 64 61
f 61 64 63
f 62 65 64
f 64 66 63
f 65 67 64
f 64 67 66
f 65 68 67
f 68 69 67
f 67 70 66
f 67 69 70
f 68 71 69
f 69 72 70
f 71 73 69
f 69 74 72
f 73 75 69
f 69 75 74
f 73 76 75
f 75 77 74
f 76 78 75
f 75 78 77
f 76 79 78
f 79 77 78
f 80 79 76
f 79 81 77
f 82 79 80
f 79 82 81
f 83 82 80
f 82 84 81
f 85 82 83
f 82 85 84
f 86 85 83
f 85 87 84
f 88 85 86
f 85 88 87
f 89 88 86
f 88 90 87
f 91 88 89
f 88 91 90
f 92 91 89
f 91 93 90
f 94 91 92
f 91 94 93
f 95 94 92
f 94 96 93
f 94 95 96
f 97 98 99
f 97 99 100
f 101 97 100
f 100 99 102
f 103 101 100
f 104 100 102
f 103 100 104
f 104 102 105
f 106 103 104
f 107 104 105
f 106 104 107
f 107 105 108
f 109 106 107
f 110 107 108
f 109 107 110
f 110 108 111
f 112 109 110
f 113 110 111
f 112 110 113
f 113 111 114
f 115 112 113
f 116 113 114
f 115 113 116
f 116 114 117
f 118 116 117
f 119 115 116
f 119 116 118
f 118 117 120
f 121 119 118
f 122 118 120
f 123 121 118
f 124 118 122
f 123 118 124
f 125 124 122
f 126 123 124
f 127 124 125
f 127 126 124
f 128 127 125
f 127 128 126
f 128 125 129
f 128 130 126
f 131 128 129
f 128 131 130
f 131 129 132
f 131 133 130
f 134 131 132
f 131 134 133
f 134 132 135
f 134 136 133
f 137 134 135
f 134 137 136
f 137 135 138
f 137 139 136
f 140 137 138
f 137 140 139
f 140 138 141
f 140 142 139
f 143 140 141
f 140 143 142
f 143 141 144
f 142 143 145
f 143 144 145
f 144 146 145
f 146 147 145
f 145 147 148
f 146 149 147
f 147 150 148
f 149 151 147
f 147 151 150
f 149 152 151
f 151 153 150
f 152 154 151
f 151 154 153
f 152 155 154
f 154 156 153
f 155 157 154
f 154 157 156
f 155 158 157
f 157 159 156
f 158 160 157
f 157 160 159
f 158 161 160
f 160 162 159
f 161 163 160
f 160 163 162
f 161 164 163
f 164 165 163
f 163 166 162
f 163 165 166
f 164 167 165
f 165 168 166
f 167 169 165
f 165 170 168
f 169 171 165
f 165 171 170
f 169 172 171
f 171 173 170
f 172 174 171
f 171 174 173
f 172 175 174
f 175 173 174
f 176 175 172
f 175 177 173
f 178 175 176
f 175 178 177
f 179 178 176
f 178 180 177
f 181 178 179
f 178 181 180
f 182 181 179
f 181 183 180
f 184 181 182
f 181 184 183
f 185 184 182
f 184 186 183
f 187 184 185
f 184 187 186
f 188 187 185
f 187 189 186
f 190 187 188
f 187 190 189
f 191 190 188
f 190 192 189
f 190 191 192
f 193 194 195
f 193 195 196
f 197 193 196
f 196 195 198
f 199 197 196
f 200 196 198
f 199 196 200
f 200 198 201
f 202 199 200
f 203 200 201
f 202 200 203
f 203 201 204
f 205 202 203
f 206 203 204
f 205 203 206
f 206 204 207
f 208 205 206
f 209 206 207
f 208 206 209
f 209 207 210
f 211 208 209
f 212 209 210
f 211 209 212
f 212 210 213
f 214 212 213
f 215 211 212
f 215 212 214
f 214 213 216
f 217 215 214
f 218 214 216
f 219 217 214
f 220 214 218
f 219 214 220
f 221 220 218
f 222 219 220
f 223 220 221
f 223 222 220
f 224 223 221
f 223 224 222
f 224 221 225
f 224 226 222
f 227 224 225
f 224 227 226
f 227 225 228
f 227 229 226
f 230 227 228
f 227 230 229
f 230 228 231
f 230 232 229
f 233 230 231
f 230 233 232
f 233 231 234
f 233 235 232
f 236 233 234
f 233 236 235
f 236 234 237
f 236 238 235
f 239 236 237
f 236 239 238
f 239 237 240
f 238 239 241
f 239 240 241
f 240 242 241
f 242 243 241
f 241 243 244
f 242 245 243
f 243 246 244
f 245 247 243
f 243 247 246
f 245 248 247
f 247 249 246
f 248 250 247
f 247 250 249
f 248 251 250
f 250 252 249
f 251 253 250
f 250 253 252
f 251 254 253
f 253 255 252
f 254 256 253
f 253 256 255
f 254 257 256
f 256 258 255
f 257 259 256
f 256 259 258
f 257 260 259
f 260 261 259
f 259 262 258
f 259 261 262
f 260 263 261
f 261 264 262
f 263 265 261
f 261 266 264
f 265 267 261
f 261 267 266
f 265 268 267
f 267 269 266
f 268 270 267
f 267 270 269
f 268 271 270
f 271 269 270
f 272 271 268
f 271 273 269
f 274 271 272
f 271 274 273
f 275 274 272
f 274 276 273
f 277 274 275
f 274 277 276
f 278 277 275
f 277 279 276
f 280 277 278
f 277 280 279
f 281 280 278
f 280 282 279
f 283 280 281
f 280 283 282
f 284 283 281
f 283 285 282
f 286 283 284
f 283 286 285
f 287 286 284
f 286 288 285
f 286 287 288
f 289 290 291
f 289 291 292
f 293 289 292
f 292 291 294
f 295 293 292
f 296 292 294
f 295 292 296
f 296 294 297
f 298 295 296
f 299 296 297
f 298 296 299
f 299 297 300
f 301 298 299
f 302 299 300
f 301 299 302
f 302 300 303
f 304 301 302
f 305 302 303
f 304 302 305
f 305 303 306
f 307 304 305
f 308 305 306
f 307 305 308
f 308 306 309
f 310 308 309
f 311 307 308
f 311 308 310
f 310 309 312
f 313 311 310
f 314 310 312
f 315 313 310
f 316 310 314
f 315 310 316
f 317 316 314
f 318 315 316
f 319 316 317
f 319 318 316
f 320 319 317
f 319 320 318
f 320 317 321
f 320 322 318
f 323 320 321
f 320 323 322
f 323 321 324
f 323 325 322
f 326 323 324
f 323 326 325
f 326 324 327
f 326 328 325
f 329 326 327
f 326 329 328
f 329 327 330
f 329 331 328
f 332 329 330
f 329 332 331
f 332 330 333
f 332 334 331
f 335 332 333
f 332 335 334
f 335 333 336
f 334 335 337
f 335 336 337
f 336 338 337
f 338 339 337
f 337 339 340
f 338 341 339
f 339 342 340
f 341 343 339
f 339 343 342
f 341 344 343
f 343 345 342
f 344 346 343
f 343 346 345
f 344 347 346
f 346 348 345
f 347 349 346
f 346 349 348
f 347 350 349
f 349 351 348
f 350 352 349
f 349 352 351
f 350 353 352
f 352 354 351
f 353 355 352
f 352 355 354
f 353 356 355
f 356 357 355
f 355 358 354
f 355 357 358
f 356 359 357
f 357 360 358
f 359 361 357
f 357 362 360
f 361 363 357
f 357 363 362
f 361 364 363
f 363 365 362
f 364 366 363
f 363 366 365
f 364 367 366
f 367 365 366
f 368 367 364
f 367 369 365
f 370 367 368
f 367 370 369
f 371 370 368
f 370 372 369
f 373 370 371
f 370 373 372
f 374 373 371
f 373 375 372
f 376 373 374
f 373 376 375
f 377 376 374
f 376 378 375
f 379 376 377
f 376 379 378
f 380 379 377
f 379 381 378
f 382 379 380
f 379 382 381
f 383 382 380
f 382 384 381
f 382 383 384
f 385 386 387
f 385 387 388
f 389 385 388
f 388 387 390
f 391 389 388
f 392 388 390
f 391 388 392
f 392 390 393
f 394 391 392
f 395 392 393
f 394 392 395
f 395 393 396
f 397 394 395
f 398 395 396
f 397 395 398
f 398 396 399
f 400 397 398
f 401 398 399
f 400 398 401
f 401 399 402
f 403 400 401
f 404 401 402
f 403 401 404
f 404 402 405
f 406 404 405
f 407 403 404
f 407 404 406
f 406 405 408
f 409 407 406
f 410 406 408
f 411 409 406
f 412 406 410
f 411 406 412
f 413 412 410
f 414 411 412
f 415 412 413
f 415 414 412
f 416 415 413
f 415 416 414
f 416 413 417
f 416 418 414
f 419 416 417
f 416 419 418
f 419 417 420
f 419 421 418
f 422 419 420
f 419 422 421
f 422 420 423
f 422 424 421
f 425 422 423
f 422 425 424
f 425 423 426
f 425 427 424
f 428 425 426
f 425 428 427
f 428 426 429
f 428 430 427
f 431 428 429
f 428 431 430
f 431 429 432
f 430 431 433
f 431 432 433
f 432 434 433
f 434 435 433
f 433 435 436
f 434 437 435
f 435 438 436
f 437 439 435
f 435 439 438
f 437 440 439
f 439 441 438
f 440 442 439
f 439 442 441
f 440 443 442
f 442 444 441
f 443 445 442
f 442 445 444
f 443 446 445
f 445 447 444
f 446 448 445
f 445 448 447
f 446 449 448
f 448 450 447
f 449 451 448
f 448 451 450
f 449 452 451
f 452 453 451
f 451 454 450
f 451 453 454
f 452 455 453
f 453 456 454
f 455 457 453
f 453 458 456
f 457 459 453
f 453 459 458
f 457 460 459
f 459 461 458
f 460 462 459
f 459 462 461
f 460 463 462
f 463 461 462
f 464 463 460
f 463 465 461
f 466 463 464
f 463 466 465
f 467 466 464
f 466 468 465
f 469 466 467
f 466 469 468
f 470 469 467
f 469 471 468
f 472 469 470
f 469 472 471
f 473 472 470
f 472 474 471
f 475 472 473
f 472 475 474
f 476 475 473
f 475 477 474
f 478 475 476
f 475 478 477
f 479 478 476
f 478 480 477
f 478 479 480
f 481 482 483
f 484 481 483
f 485 481 484
f 485 486 481
f 486 487 481
f 487 488 481
f 487 489 488
f 490 485 484
f 491 490 484
f 492 491 484
f 492 484 493
f 494 492 493
f 494 493 495
f 496 494 495
f 496 495 497
f 498 496 497
f 498 497 499
f 489 487 500
f 501 498 499
f 487 502 500
f 487 503 502
f 503 487 504
f 487 505 504
f 487 506 505
f 506 487 507
f 508 506 507
f 506 508 509
f 506 509 510
f 511 506 510
f 506 511 512
f 506 512 513
f 514 506 513
f 506 514 515
f 506 515 516
f 517 506 516
f 517 516 518
f 516 519 518
f 519 520 518
f 519 521 520
f 522 521 519
f 521 523 520
f 521 522 524
f 521 525 523
f 525 526 523
f 521 524 527
f 526 528 523
f 529 521 527
f 521 529 530
f 521 530 531
f 532 521 531
f 532 531 533
f 532 533 534
f 535 532 534
f 535 534 536
f 535 536 537
f 538 535 537
f 537 539 538
f 539 540 538
f 528 541 523
f 539 501 540
f 542 540 501
f 499 542 501
f 542 543 540
f 543 542 544
f 543 545 540
f 543 544 546
f 543 547 545
f 548 543 546
f 548 546 549
f 550 548 549
f 550 549 551
f 552 550 551
f 552 551 553
f 554 552 553
f 547 543 555
f 554 553 556
f 557 554 556
f 558 557 556
f 558 556 559
f 560 558 559
f 547 555 561
f 559 562 560
f 562 563 560
f 562 564 563
f 564 562 565
f 566 564 565
f 567 547 561
f 547 567 568
f 547 568 569
f 566 565 570
f 571 566 570
f 572 571 570
f 572 570 573
f 574 572 573
f 574 573 575
f 576 574 575
f 576 575 577
f 578 576 577
f 578 577 579
f 580 547 569
f 580 569 581
f 580 581 582
f 583 578 579
f 584 580 582
f 584 582 585
f 584 585 586
f 583 579 587
f 588 584 586
f 588 586 589
f 588 589 590
f 591 588 590
f 591 590 592
f 591 592 593
f 594 591 593
f 591 594 595
f 591 595 583
f 596 591 583
f 597 583 587
f 598 596 583
f 598 583 597
f 599 598 597
f 599 597 600
f 599 601 598
f 602 599 600
f 601 603 598
f 602 600 604
f 601 605 603
f 606 602 604
f 606 604 607
f 608 606 607
f 608 607 609
f 610 608 609
f 610 609 611
f 612 610 611
f 605 613 603
f 605 614 613
f 614 615 613
f 612 611 616
f 617 612 616
f 618 617 616
f 618 616 619
f 620 618 619
f 615 621 613
f 615 622 621
f 622 623 621
f 623 624 621
f 620 619 625
f 626 620 625
f 627 626 625
f 627 625 628
f 629 627 628
f 623 630 624
f 629 628 631
f 632 629 631
f 633 632 631
f 633 631 634
f 635 633 634
f 635 634 636
f 637 635 636
f 637 636 638
f 639 637 638
f 639 638 640
f 641 639 640
f 641 640 642
f 643 641 642
f 643 642 644
f 645 643 644
f 645 644 646
f 645 646 647
f 648 645 647
f 647 649 648
f 649 650 648
f 649 651 650
f 652 651 649
f 653 652 649
f 630 653 649
f 630 649 654
f 655 630 654
f 630 655 656
f 630 656 624
f 654 649 657
f 658 657 649
f 658 659 657
f 659 658 660
f 661 658 649
f 662 661 649
f 662 649 663
f 664 662 663
f 664 663 665
f 666 664 665
f 658 667 660
f 666 665 668
f 669 666 668
f 670 669 668
f 670 668 671
f 672 670 671
f 667 673 660
f 672 671 674
f 675 672 674
f 676 675 674
f 676 674 677
f 678 676 677
f 673 679 660
f 679 680 660
f 680 681 660
f 678 677 682
f 683 678 682
f 684 683 682
f 684 682 685
f 686 684 685
f 681 687 660
f 681 688 687
f 688 689 687
f 685 523 686
f 689 690 687
f 690 689 691
f 690 691 692
f 523 693 686
f 523 694 693
f 695 690 692
f 695 692 696
f 695 696 697
f 694 523 698
f 699 695 697
f 541 698 523
f 541 700 698
f 700 699 698
f 699 697 701
f 699 702 698
f 699 701 703
f 699 704 702
f 704 699 703
f 705 706 707
f 708 705 707
f 705 708 709
f 708 707 710
f 708 711 709
f 712 708 710
f 708 712 711
f 712 710 713
f 712 714 711
f 715 712 713
f 712 715 714
f 715 713 716
f 715 717 714
f 718 715 716
f 715 718 717
f 718 716 719
f 718 720 717
f 721 718 719
f 718 721 720
f 721 719 722
f 721 723 720
f 724 721 722
f 721 724 723
f 724 722 725
f 726 724 725
f 724 727 723
f 724 726 727
f 726 725 728
f 726 729 727
f 726 728 730
f 726 731 729
f 732 726 730
f 726 732 731
f 732 730 733
f 732 734 731
f 735 732 733
f 732 735 734
f 735 733 736
f 735 737 734
f 738 735 736
f 735 738 737
f 738 736 739
f 738 740 737
f 741 738 739
f 738 741 740
f 741 739 742
f 741 743 740
f 744 741 742
f 741 744 743
f 744 742 745
f 744 746 743
f 747 744 745
f 744 747 746
f 747 745 748
f 749 747 748
f 747 750 746
f 747 749 750
f 749 748 751
f 749 752 750
f 749 751 753
f 749 754 752
f 755 749 753
f 749 755 754
f 755 753 756
f 755 757 754
f 758 755 756
f 755 758 757
f 758 756 759
f 758 760 757
f 761 758 759
f 758 761 760
f 761 759 762
f 761 763 760
f 761 762 764
f 763 761 764
f 765 764 762
f 763 764 765
f 766 765 762
f 767 763 765
f 768 765 766
f 767 765 768
f 769 768 766
f 770 767 768
f 771 768 769
f 770 768 771
f 772 771 769
f 773 770 771
f 774 771 772
f 773 771 774
f 775 774 772
f 776 773 774
f 777 774 775
f 776 774 777
f 778 777 775
f 779 776 777
f 780 777 778
f 779 777 780
f 781 780 778
f 782 779 780
f 783 780 781
f 783 782 780
f 784 783 781
f 783 784 782
f 784 781 785
f 784 786 782
f 787 784 785
f 784 787 786
f 787 785 788
f 787 789 786
f 790 787 788
f 787 790 789
f 790 788 791
f 790 792 789
f 793 790 791
f 790 793 792
f 793 791 794
f 793 795 792
f 796 793 794
f 793 796 795
f 796 794 797
f 796 798 795
f 799 796 797
f 796 799 798
f 799 797 800
f 798 799 801
f 799 800 801
f 800 802 801
f 802 803 801
f 801 803 804
f 802 805 803
f 803 806 804
f 805 807 803
f 803 807 806
f 805 808 807
f 807 809 806
f 808 810 807
f 807 810 809
f 808 811 810
f 810 812 809
f 811 813 810
f 810 813 812
f 811 814 813
f 813 815 812
f 814 816 813
f 813 816 815
f 814 817 816
f 816 818 815
f 817 819 816
f 816 819 818
f 817 820 819
f 820 821 819
f 819 822 818
f 819 821 822
f 820 823 821
f 821 824 822
f 823 825 821
f 821 826 824
f 825 827 821
f 821 827 826
f 825 828 827
f 827 829 826
f 828 830 827
f 827 830 829
f 828 831 830
f 830 832 829
f 831 833 830
f 830 833 832
f 831 834 833
f 833 835 832
f 834 836 833
f 833 836 835
f 834 837 836
f 836 838 835
f 837 839 836
f 836 839 838
f 837 840 839
f 839 841 838
f 840 842 839
f 839 842 841
f 840 843 842
f 843 844 842
f 842 845 841
f 842 844 845
f 843 846 844
f 844 847 845
f 846 848 844
f 844 849 847
f 848 850 844
f 844 850 849
f 848 851 850
f 850 852 849
f 851 853 850
f 850 853 852
f 851 854 853
f 853 855 852
f 854 856 853
f 853 856 855
f 854 857 856
f 856 858 855
f 857 859 856
f 856 859 858
f 857 860 859
f 860 858 859
f 860 857 861
f 860 862 858
f 863 860 861
f 860 863 862
f 863 861 864
f 863 865 862
f 866 863 864
f 863 866 865
f 866 864 867
f 866 868 865
f 869 866 867
f 866 869 868
f 869 867 870
f 869 871 868
f 872 869 870
f 869 872 871
f 872 870 873
f 872 874 871
f 875 872 873
f 872 875 874
f 875 873 876
f 875 877 874
f 878 875 876
f 875 878 877
f 878 876 879
f 878 879 877
f 876 880 879
f 881 877 879
f 880 882 879
f 881 879 882
f 880 883 882
f 884 881 882
f 883 885 882
f 884 882 885
f 883 886 885
f 887 884 885
f 886 888 885
f 887 885 888
f 886 889 888
f 890 887 888
f 889 891 888
f 890 888 891
f 889 892 891
f 893 890 891
f 892 894 891
f 893 891 894
f 892 895 894
f 896 893 894
f 895 896 894
f 897 898 899
f 900 897 899
f 897 900 901
f 897 901 902
f 897 903 898
f 904 897 902
f 904 902 905
f 904 905 906
f 903 897 907
f 908 904 906
f 908 906 909
f 908 909 910
f 911 908 910
f 911 910 912
f 911 912 913
f 914 911 913
f 914 913 915
f 914 915 916
f 917 914 916
f 914 917 918
f 914 918 919
f 920 914 919
f 921 920 919
f 921 919 922
f 922 919 923
f 919 924 923
f 919 925 924
f 925 926 924
f 925 927 926
f 927 928 926
f 927 929 928
f 929 930 928
f 929 931 930
f 931 932 930
f 931 933 932
f 933 934 932
f 934 935 932
f 934 936 935
f 936 937 935
f 936 938 937
f 938 939 937
f 939 940 937
f 939 941 940
f 941 942 940
f 941 943 942
f 943 944 942
f 944 945 942
f 944 946 945
f 946 947 945
f 946 948 947
f 948 949 947
f 948 950 949
f 950 951 949
f 950 903 951
f 903 952 951
f 903 953 952
f 953 903 954
f 903 907 954
f 953 954 955
f 956 953 955
f 957 955 954
f 955 958 956
f 957 954 959
f 958 960 956
f 961 957 959
f 958 962 960
f 962 963 960
f 962 964 963
f 964 965 963
f 964 966 965
f 966 967 965
f 966 968 967
f 959 969 961
f 969 970 961
f 969 971 970
f 968 972 967
f 968 973 972
f 973 974 972
f 974 975 972
f 974 976 975
f 976 977 975
f 976 978 977
f 978 979 977
f 978 980 979
f 969 981 971
f 981 982 971
f 981 983 982
f 981 984 983
f 984 985 983
f 984 986 985
f 980 978 987
f 986 984 988
f 978 989 987
f 984 990 988
f 978 991 989
f 984 992 990
f 991 978 993
f 978 994 993
f 978 995 994
f 995 978 996
f 997 995 996
f 995 997 998
f 995 998 999
f 1000 995 999
f 995 1000 1001
f 995 1001 1002
f 1003 995 1002
f 995 1003 1004
f 995 1004 1005
f 1006 995 1005
f 1006 1005 1007
f 1005 1008 1007
f 1008 1009 1007
f 1008 984 1009
f 992 984 1008
f 984 1010 1009
f 984 1011 1010
f 1011 1012 1010
f 1012 1013 1010
f 1013 1014 1010
f 1014 1015 1010
f 1014 1016 1015
f 1016 1017 1015
f 1018 1010 1015
f 1010 1018 1019
f 1010 1019 1020
f 1021 1010 1020
f 1020 1022 1021
f 1017 1023 1015
f 1022 1024 1021
f 1022 1025 1024
f 1025 1026 1024
f 1026 1027 1024
f 1026 1028 1027
f 1017 1029 1023
f 1028 1030 1027
f 1031 1029 1017
f 1032 1031 1017
f 1033 1032 1017
f 1028 1034 1030
f 1033 1017 1035
f 1036 1033 1035
f 1037 1036 1035
f 1034 1038 1030
f 1037 1035 1039
f 1040 1037 1039
f 1041 1040 1039
f 1038 1042 1030
f 1030 1042 1043
f 1041 1039 1044
f 1045 1041 1044
f 1046 1045 1044
f 1030 1043 1047
f 1046 1044 1048
f 1049 1030 1047
f 1049 1047 1050
f 1047 1051 1050
f 1047 1052 1051
f 1052 1053 1051
f 1052 1054 1053
f 1055 1046 1048
f 1054 1056 1053
f 1054 1057 1056
f 1058 1055 1048
f 1057 1059 1056
f 1060 1058 1048
f 1061 1060 1048
f 1059 1061 1048
f 1062 1059 1048
f 1059 1063 1056
f 1059 1062 1063
f 1064 1056 1063
f 1065 1056 1064
f 1066 1065 1064
f 1065 1066 1067
f 1065 1067 1068
f 1069 1065 1068
f 1065 1070 1056
f 1069 1068 1071
f 1072 1069 1071
f 1073 1072 1071
f 1070 1074 1056
f 1073 1071 1075
f 1076 1073 1075
f 1077 1076 1075
f 1077 1075 1078
f 1079 1077 1078
f 1079 1078 921
f 1074 1080 1056
f 1056 1080 1081
f 1056 1081 1082
f 1083 1056 1082
f 1084 1079 921
f 1084 921 922
f 1084 922 1085
f 1086 1084 1085
f 1086 1085 1087
f 1088 1086 1087
f 1088 1087 1089
f 1090 1088 1089
f 1090 1089 1091
f 1092 1090 1091
f 1092 1091 1093
f 1094 1092 1093
f 1094 1093 1095
f 1096 1094 1095
f 1097 1096 1095
f 1097 1095 1098
f 1099 1097 1098
f 1099 1098 1100
f 1101 1099 1100
f 1102 1101 1100
f 1102 1100 1103
f 1104 1102 1103
f 1104 1103 1105
f 1106 1104 1105
f 1107 1106 1105
f 1107 1105 1108
f 1109 1107 1108
f 1109 1108 1110
f 1111 1109 1110
f 1111 1110 1112
f 1113 1111 1112
f 1113 1112 1114
f 1115 1113 1114
f 1115 1114 1116
f 1117 1115 1116
f 1117 1116 1118
f 1119 1117 1118
f 1119 1118 1120
f 1119 1120 1083
f 1082 1119 1083
