# ROS coordinates: X forward, Y left, Z up; units are metres.
o mesh
v 0.14677918 -0.00011963211 0.0614799969
v 0.14677918 -0.00011963211 0.06048
v 0.146796033 6.415043E-05 0.06048
v 0.146801382 9.098882E-05 0.0609799959
v 0.146796033 6.415043E-05 0.0614799969
v 0.1468501 0.000252143946 0.06048
v 0.1468501 0.000252143946 0.0614799969
v 0.146872818 0.000305093359 0.0609799959
v 0.146943808 0.00043304963 0.06048
v 0.146943808 0.00043304963 0.0614799969
v 0.146995753 0.00050533656 0.0609799959
v 0.147075 0.000594546553 0.06048
v 0.147075 0.000594546553 0.0614799969
v 0.147075 0.000594546553 0.0609799959
v 0.147164211 0.0006737872 0.0609799959
v 0.1472365 0.0007257336 0.06048
v 0.1472365 0.0007257336 0.0614799969
v 0.147364452 0.000796723645 0.0609799959
v 0.1474174 0.000819454435 0.06048
v 0.1474174 0.000819454435 0.0614799969
v 0.147578552 0.0008681631 0.0609799959
v 0.147605389 0.000873506535 0.06048
v 0.14778918 0.00089036813 0.0609799959
v 0.147605389 0.000873506535 0.0614799969
v 0.14778918 0.00089036813 0.06048
v 0.14778918 0.00089036813 0.0614799969
v 0.147972956 0.000873506535 0.06048
v 0.147972956 0.000873506535 0.0614799969
v 0.1479998 0.0008681631 0.0609799959
v 0.148160949 0.000819454435 0.06048
v 0.148160949 0.000819454435 0.0614799969
v 0.148160949 0.000819454435 0.0609799959
v 0.14831692 0.0007415237 0.0609799959
v 0.148341864 0.0007257336 0.06048
v 0.148341864 0.0007257336 0.0614799969
v 0.148459882 0.0006355201 0.0609799959
v 0.148503348 0.000594546553 0.06048
v 0.148503348 0.000594546553 0.0614799969
v 0.1485826 0.00050533656 0.0609799959
v 0.148634538 0.00043304963 0.06048
v 0.148634538 0.00043304963 0.0614799969
v 0.14867954 0.000357180368 0.0609799922
v 0.148728266 0.000252143946 0.06048
v 0.148728266 0.000252143946 0.0614799969
v 0.148747727 0.000198623165 0.06098
v 0.148782313 6.415043E-05 0.06048
v 0.148782313 6.415043E-05 0.0614799969
v 0.1487869 3.740331E-05 0.0609799922
v 0.148799181 -0.00011963211 0.06048
v 0.148799181 -0.00011963211 0.0614799969
v 0.148782313 -0.00030341465 0.06048
v 0.148776978 -0.000330253039 0.0609799959
v 0.148782313 -0.00030341465 0.0614799969
v 0.148728266 -0.0004914077 0.06048
v 0.148728266 -0.0004914077 0.0614799969
v 0.148705527 -0.0005443571 0.0609799922
v 0.148634538 -0.00067231385 0.06048
v 0.148634538 -0.00067231385 0.0614799969
v 0.1485826 -0.0007446003 0.0609799959
v 0.148503348 -0.000833809841 0.06048
v 0.148503348 -0.000833809841 0.0614799969
v 0.148503348 -0.000833809841 0.0609799922
v 0.14841415 -0.0009130514 0.0609799959
v 0.148341864 -0.0009649978 0.06048
v 0.148341864 -0.0009649978 0.0614799969
v 0.148213908 -0.00103598833 0.0609799959
v 0.148160949 -0.00105871819 0.06048
v 0.148160949 -0.00105871819 0.0614799969
v 0.1479998 -0.00110742683 0.0609799959
v 0.147972956 -0.00111277029 0.06048
v 0.14778918 -0.00112963188 0.0609799959
v 0.147972956 -0.00111277029 0.0614799969
v 0.14778918 -0.00112963188 0.06048
v 0.14778918 -0.00112963188 0.0614799969
v 0.147605389 -0.00111277029 0.06048
v 0.147605389 -0.00111277029 0.0614799969
v 0.147578552 -0.00110742683 0.0609799959
v 0.1474174 -0.00105871819 0.06048
v 0.1474174 -0.00105871819 0.0614799969
v 0.1474174 -0.00105871819 0.0609799959
v 0.147261441 -0.0009807874 0.0609799959
v 0.1472365 -0.0009649978 0.06048
v 0.1472365 -0.0009649978 0.0614799969
v 0.147118479 -0.000874783844 0.0609799959
v 0.147075 -0.000833809841 0.06048
v 0.147075 -0.000833809841 0.0614799969
v 0.146995753 -0.0007446003 0.0609799959
v 0.146943808 -0.00067231385 0.06048
v 0.146943808 -0.00067231385 0.0614799969
v 0.1468988 -0.0005964446 0.0609799959
v 0.1468501 -0.0004914077 0.06048
v 0.1468501 -0.0004914077 0.0614799969
v 0.146830633 -0.000437886454 0.0609799959
v 0.146796033 -0.00030341465 0.06048
v 0.146796033 -0.00030341465 0.0614799969
v 0.146791458 -0.000276667532 0.06098
v 0.14677918 -0.00011963211 0.06048
v 0.14677918 -0.00011963211 0.0614799969
v 0.150174171 -0.00011963211 0.06206
v 0.150174171 -0.00011963211 0.06048
v 0.15016453 9.467127E-05 0.06048
v 0.15016152 0.000125784427 0.0612699948
v 0.15016453 9.467127E-05 0.06206
v 0.150134355 0.000314349774 0.06048
v 0.150134355 0.000314349774 0.06206
v 0.150121748 0.0003777244 0.06127
v 0.150082111 0.000536620151 0.06048
v 0.150082111 0.000536620151 0.06206
v 0.150052682 0.0006318898 0.0612699948
v 0.150006726 0.000758274 0.06048
v 0.150006726 0.000758274 0.06206
v 0.149953052 0.0008833087 0.06127
v 0.149907738 0.0009757853 0.06048
v 0.149907738 0.0009757853 0.06206
v 0.1498227 0.001126572 0.06127
v 0.149785414 0.00118546328 0.06048
v 0.149785414 0.00118546328 0.06206
v 0.149662748 0.00135615934 0.06127
v 0.149640784 0.00138362916 0.06048
v 0.149475634 0.001566818 0.06127
v 0.149640784 0.00138362916 0.06206
v 0.149475634 0.001566818 0.06048
v 0.149475634 0.001566818 0.06206
v 0.149292439 0.00173196988 0.06048
v 0.149292439 0.00173196988 0.06206
v 0.149264961 0.00175393792 0.06127
v 0.149094269 0.001876602 0.06048
v 0.149094269 0.001876602 0.06206
v 0.149035379 0.00191388745 0.0612699948
v 0.1488846 0.001998926 0.06048
v 0.1488846 0.001998926 0.06206
v 0.148792118 0.00204423862 0.06127
v 0.148667082 0.0020979126 0.06048
v 0.148667082 0.0020979126 0.06206
v 0.1485407 0.00214387 0.06127
v 0.148445427 0.00217330456 0.06048
v 0.148445427 0.00217330456 0.06206
v 0.148286536 0.0022129342 0.06127
v 0.148223162 0.00222555175 0.06048
v 0.148223162 0.00222555175 0.06206
v 0.148034588 0.00225270772 0.06127
v 0.148003474 0.00225572 0.06048
v 0.14778918 0.00226536812 0.06127
v 0.148003474 0.00225572 0.06206
v 0.14778918 0.00226536812 0.06048
v 0.14778918 0.00226536812 0.06206
v 0.147574872 0.00225572 0.06048
v 0.147574872 0.00225572 0.06206
v 0.147543758 0.00225270772 0.06127
v 0.1473552 0.00222555175 0.06048
v 0.1473552 0.00222555175 0.06206
v 0.147291824 0.0022129342 0.06127
v 0.147132933 0.00217330456 0.06048
v 0.147132918 0.00217330456 0.06206
v 0.147101134 0.00216396945 0.06127
v 0.146911263 0.0020979126 0.06048
v 0.146911263 0.0020979126 0.06206
v 0.146911263 0.0020979126 0.06127
v 0.146724433 0.0020145094 0.06127
v 0.146693766 0.001998926 0.06048
v 0.146693766 0.001998926 0.06206
v 0.146542966 0.00191388745 0.06127
v 0.146484077 0.001876602 0.06048
v 0.146484077 0.001876602 0.06206
v 0.1463692 0.00179658923 0.06127
v 0.146285921 0.00173196988 0.06048
v 0.146285921 0.00173196988 0.06206
v 0.146205381 0.00166357309 0.06127
v 0.146102726 0.001566818 0.06048
v 0.146102726 0.001566818 0.06206
v 0.146053582 0.00151619408 0.06127
v 0.145937577 0.00138362916 0.06048
v 0.145937577 0.00138362916 0.06206
v 0.145915613 0.00135615934 0.06127
v 0.145792946 0.00118546328 0.06048
v 0.145792946 0.00118546328 0.06206
v 0.145792946 0.00118546328 0.06127
v 0.145686686 0.00100630615 0.06127
v 0.145670623 0.0009757853 0.06048
v 0.145670623 0.0009757853 0.06206
v 0.1455975 0.000821002759 0.06127
v 0.145571634 0.000758274 0.06048
v 0.145571634 0.000758274 0.06206
v 0.145525679 0.0006318898 0.06127
v 0.145496234 0.000536620151 0.06048
v 0.145496234 0.000536620151 0.06206
v 0.145471066 0.000441241544 0.06127
v 0.145443991 0.000314349774 0.06048
v 0.145443991 0.000314349774 0.06206
v 0.145433187 0.00025118934 0.06127
v 0.145413816 9.467127E-05 0.06048
v 0.145413816 9.467127E-05 0.06206
v 0.145411223 6.36680052E-05 0.06127
v 0.145404175 -0.00011963211 0.06048
v 0.145404175 -0.00011963211 0.06206
v 0.145413816 -0.000333934557 0.06048
v 0.145416841 -0.000365048181 0.06127
v 0.145413816 -0.000333934557 0.06206
v 0.145443991 -0.000553614 0.06048
v 0.145443991 -0.000553614 0.06206
v 0.145456612 -0.000616988633 0.06127
v 0.145496234 -0.0007758844 0.06048
v 0.145496234 -0.0007758844 0.06206
v 0.145525679 -0.000871154 0.06127
v 0.145571634 -0.0009975382 0.06048
v 0.145571634 -0.0009975382 0.06206
v 0.145625308 -0.00112257292 0.06127
v 0.145670623 -0.00121504953 0.06048
v 0.145670623 -0.00121504953 0.06206
v 0.145755664 -0.00136583578 0.06127
v 0.145792946 -0.001424727 0.06048
v 0.145792946 -0.001424727 0.06206
v 0.145915613 -0.00159542356 0.06127
v 0.145937577 -0.00162289315 0.06048
v 0.146102726 -0.00180608174 0.06127
v 0.145937577 -0.00162289315 0.06206
v 0.146102726 -0.00180608174 0.06048
v 0.146102726 -0.00180608174 0.06206
v 0.146285921 -0.00197123433 0.06048
v 0.146285921 -0.00197123433 0.06206
v 0.146313384 -0.00199320214 0.06127
v 0.146484077 -0.0021158664 0.06048
v 0.146484077 -0.0021158664 0.06206
v 0.146542966 -0.00215315167 0.06127
v 0.146693766 -0.00223818934 0.06048
v 0.146693766 -0.00223818934 0.06206
v 0.146786243 -0.00228350237 0.06127
v 0.146911263 -0.002337177 0.06048
v 0.146911263 -0.002337177 0.06206
v 0.147037655 -0.00238313386 0.06127
v 0.147132933 -0.00241256854 0.06048
v 0.147132918 -0.00241256854 0.06206
v 0.147291824 -0.00245219748 0.06127
v 0.1473552 -0.00246481551 0.06048
v 0.1473552 -0.00246481551 0.06206
v 0.147543758 -0.002491972 0.06127
v 0.147574872 -0.00249498454 0.06048
v 0.14778918 -0.002504632 0.06127
v 0.147574872 -0.00249498454 0.06206
v 0.14778918 -0.002504632 0.06048
v 0.14778918 -0.002504632 0.06206
v 0.148003474 -0.00249498454 0.06048
v 0.148003474 -0.00249498454 0.06206
v 0.148034588 -0.002491972 0.06127
v 0.148223162 -0.00246481551 0.06048
v 0.148223162 -0.00246481551 0.06206
v 0.148286536 -0.00245219748 0.06127
v 0.148445427 -0.00241256854 0.06048
v 0.148445427 -0.00241256854 0.06206
v 0.148477212 -0.002403233 0.06127
v 0.148667082 -0.002337177 0.06048
v 0.148667082 -0.002337177 0.06206
v 0.148667082 -0.002337177 0.06127
v 0.148853913 -0.00225377339 0.0612699948
v 0.1488846 -0.00223818934 0.06048
v 0.1488846 -0.00223818934 0.06206
v 0.149035379 -0.00215315167 0.0612699948
v 0.149094269 -0.0021158664 0.06048
v 0.149094269 -0.0021158664 0.06206
v 0.149209142 -0.00203585345 0.06127
v 0.149292439 -0.00197123433 0.06048
v 0.149292439 -0.00197123433 0.06206
v 0.149372965 -0.00190283731 0.06127
v 0.149475634 -0.00180608174 0.06048
v 0.149475634 -0.00180608174 0.06206
v 0.149524778 -0.00175545854 0.06127
v 0.149640784 -0.00162289315 0.06048
v 0.149640784 -0.00162289315 0.06206
v 0.149662748 -0.00159542356 0.06127
v 0.149785414 -0.001424727 0.06048
v 0.149785414 -0.001424727 0.06206
v 0.149785414 -0.001424727 0.0612699948
v 0.149891675 -0.0012455699 0.06127
v 0.149907738 -0.00121504953 0.06048
v 0.149907738 -0.00121504953 0.06206
v 0.149980843 -0.00106026651 0.06127
v 0.150006726 -0.0009975382 0.06048
v 0.150006726 -0.0009975382 0.06206
v 0.150052682 -0.000871154 0.0612699948
v 0.150082111 -0.0007758844 0.06048
v 0.150082111 -0.0007758844 0.06206
v 0.1501073 -0.000680505764 0.06127
v 0.150134355 -0.000553614 0.06048
v 0.150134355 -0.000553614 0.06206
v 0.150145173 -0.00049045356 0.06127
v 0.15016453 -0.000333934557 0.06048
v 0.15016453 -0.000333934557 0.06206
v 0.150167122 -0.00030293176 0.0612699948
v 0.150174171 -0.00011963211 0.06048
v 0.150174171 -0.00011963211 0.06206
v 0.146943808 0.00043304963 0.0614799969
v 0.14778918 -0.00011963211 0.0614799969
v 0.1468501 0.000252143946 0.0614799969
v 0.147075 0.000594546553 0.0614799969
v 0.146796033 6.415043E-05 0.0614799969
v 0.1472365 0.0007257336 0.0614799969
v 0.14677918 -0.00011963211 0.0614799969
v 0.1474174 0.000819454435 0.0614799969
v 0.146796033 -0.00030341465 0.0614799969
v 0.147605389 0.000873506535 0.0614799969
v 0.1468501 -0.0004914077 0.0614799969
v 0.14778918 0.00089036813 0.0614799969
v 0.146943808 -0.00067231385 0.0614799969
v 0.147972956 0.000873506535 0.0614799969
v 0.147075 -0.000833809841 0.0614799969
v 0.148160949 0.000819454435 0.0614799969
v 0.1472365 -0.0009649978 0.0614799969
v 0.148341864 0.0007257336 0.0614799969
v 0.1474174 -0.00105871819 0.0614799969
v 0.148503348 0.000594546553 0.0614799969
v 0.147605389 -0.00111277029 0.0614799969
v 0.148634538 0.00043304963 0.0614799969
v 0.14778918 -0.00112963188 0.0614799969
v 0.148728266 0.000252143946 0.0614799969
v 0.147972956 -0.00111277029 0.0614799969
v 0.148782313 6.415043E-05 0.0614799969
v 0.148160949 -0.00105871819 0.0614799969
v 0.148799181 -0.00011963211 0.0614799969
v 0.148341864 -0.0009649978 0.0614799969
v 0.148782313 -0.00030341465 0.0614799969
v 0.148503348 -0.000833809841 0.0614799969
v 0.148728266 -0.0004914077 0.0614799969
v 0.148634538 -0.00067231385 0.0614799969
v 0.14778918 -0.00011963211 0.06206
v 0.145443991 -0.000553614 0.06206
v 0.145496234 -0.0007758844 0.06206
v 0.145571634 -0.0009975382 0.06206
v 0.145413816 -0.000333934557 0.06206
v 0.145670623 -0.00121504953 0.06206
v 0.145404175 -0.00011963211 0.06206
v 0.145792946 -0.001424727 0.06206
v 0.145413816 9.467127E-05 0.06206
v 0.145937577 -0.00162289315 0.06206
v 0.145443991 0.000314349774 0.06206
v 0.146102726 -0.00180608174 0.06206
v 0.145496234 0.000536620151 0.06206
v 0.146285921 -0.00197123433 0.06206
v 0.145571634 0.000758274 0.06206
v 0.146484077 -0.0021158664 0.06206
v 0.145670623 0.0009757853 0.06206
v 0.146693766 -0.00223818934 0.06206
v 0.145792946 0.00118546328 0.06206
v 0.146911263 -0.002337177 0.06206
v 0.145937577 0.00138362916 0.06206
v 0.147132918 -0.00241256854 0.06206
v 0.146102726 0.001566818 0.06206
v 0.1473552 -0.00246481551 0.06206
v 0.146285921 0.00173196988 0.06206
v 0.147574872 -0.00249498454 0.06206
v 0.146484077 0.001876602 0.06206
v 0.14778918 -0.002504632 0.06206
v 0.146693766 0.001998926 0.06206
v 0.148003474 -0.00249498454 0.06206
v 0.146911263 0.0020979126 0.06206
v 0.148223162 -0.00246481551 0.06206
v 0.147132918 0.00217330456 0.06206
v 0.148445427 -0.00241256854 0.06206
v 0.1473552 0.00222555175 0.06206
v 0.148667082 -0.002337177 0.06206
v 0.147574872 0.00225572 0.06206
v 0.1488846 -0.00223818934 0.06206
v 0.14778918 0.00226536812 0.06206
v 0.149094269 -0.0021158664 0.06206
v 0.148003474 0.00225572 0.06206
v 0.149292439 -0.00197123433 0.06206
v 0.148223162 0.00222555175 0.06206
v 0.149475634 -0.00180608174 0.06206
v 0.148445427 0.00217330456 0.06206
v 0.149640784 -0.00162289315 0.06206
v 0.148667082 0.0020979126 0.06206
v 0.149785414 -0.001424727 0.06206
v 0.1488846 0.001998926 0.06206
v 0.149907738 -0.00121504953 0.06206
v 0.149094269 0.001876602 0.06206
v 0.150006726 -0.0009975382 0.06206
v 0.149292439 0.00173196988 0.06206
v 0.150082111 -0.0007758844 0.06206
v 0.149475634 0.001566818 0.06206
v 0.150134355 -0.000553614 0.06206
v 0.149640784 0.00138362916 0.06206
v 0.15016453 -0.000333934557 0.06206
v 0.149785414 0.00118546328 0.06206
v 0.150174171 -0.00011963211 0.06206
v 0.149907738 0.0009757853 0.06206
v 0.15016453 9.467127E-05 0.06206
v 0.150006726 0.000758274 0.06206
v 0.150134355 0.000314349774 0.06206
v 0.150082111 0.000536620151 0.06206
v 0.148782313 -0.00030341465 0.06048
v 0.150134355 -0.000553614 0.06048
v 0.150082111 -0.0007758844 0.06048
v 0.15016453 -0.000333934557 0.06048
v 0.148728266 -0.0004914077 0.06048
v 0.150006726 -0.0009975382 0.06048
v 0.149907738 -0.00121504953 0.06048
v 0.148634538 -0.00067231385 0.06048
v 0.148799181 -0.00011963211 0.06048
v 0.150174171 -0.00011963211 0.06048
v 0.15016453 9.467127E-05 0.06048
v 0.149785414 -0.001424727 0.06048
v 0.148782313 6.415043E-05 0.06048
v 0.150134355 0.000314349774 0.06048
v 0.150082111 0.000536620151 0.06048
v 0.148503348 -0.000833809841 0.06048
v 0.148341864 -0.0009649978 0.06048
v 0.148728266 0.000252143946 0.06048
v 0.150006726 0.000758274 0.06048
v 0.149907738 0.0009757853 0.06048
v 0.148160949 -0.00105871819 0.06048
v 0.149640784 -0.00162289315 0.06048
v 0.149475634 -0.00180608174 0.06048
v 0.147972956 -0.00111277029 0.06048
v 0.149292439 -0.00197123433 0.06048
v 0.148634538 0.00043304963 0.06048
v 0.149785414 0.00118546328 0.06048
v 0.149640784 0.00138362916 0.06048
v 0.149094269 -0.0021158664 0.06048
v 0.148503348 0.000594546553 0.06048
v 0.149475634 0.001566818 0.06048
v 0.149292439 0.00173196988 0.06048
v 0.1488846 -0.00223818934 0.06048
v 0.148341864 0.0007257336 0.06048
v 0.149094269 0.001876602 0.06048
v 0.1488846 0.001998926 0.06048
v 0.148667082 -0.002337177 0.06048
v 0.148160949 0.000819454435 0.06048
v 0.148667082 0.0020979126 0.06048
v 0.148445427 0.00217330456 0.06048
v 0.148445427 -0.00241256854 0.06048
v 0.148223162 -0.00246481551 0.06048
v 0.148003474 -0.00249498454 0.06048
v 0.147972956 0.000873506535 0.06048
v 0.148223162 0.00222555175 0.06048
v 0.148003474 0.00225572 0.06048
v 0.14778918 -0.00112963188 0.06048
v 0.14778918 -0.002504632 0.06048
v 0.147574872 -0.00249498454 0.06048
v 0.14778918 0.00089036813 0.06048
v 0.14778918 0.00226536812 0.06048
v 0.147574872 0.00225572 0.06048
v 0.147605389 -0.00111277029 0.06048
v 0.1473552 -0.00246481551 0.06048
v 0.147132933 -0.00241256854 0.06048
v 0.147605389 0.000873506535 0.06048
v 0.1473552 0.00222555175 0.06048
v 0.147132933 0.00217330456 0.06048
v 0.1474174 -0.00105871819 0.06048
v 0.146911263 -0.002337177 0.06048
v 0.146693766 -0.00223818934 0.06048
v 0.1474174 0.000819454435 0.06048
v 0.146911263 0.0020979126 0.06048
v 0.146693766 0.001998926 0.06048
v 0.1472365 -0.0009649978 0.06048
v 0.146484077 -0.0021158664 0.06048
v 0.146285921 -0.00197123433 0.06048
v 0.1472365 0.0007257336 0.06048
v 0.146484077 0.001876602 0.06048
v 0.146285921 0.00173196988 0.06048
v 0.147075 -0.000833809841 0.06048
v 0.146102726 -0.00180608174 0.06048
v 0.145937577 -0.00162289315 0.06048
v 0.147075 0.000594546553 0.06048
v 0.146102726 0.001566818 0.06048
v 0.145937577 0.00138362916 0.06048
v 0.146943808 -0.00067231385 0.06048
v 0.145792946 -0.001424727 0.06048
v 0.145670623 -0.00121504953 0.06048
v 0.146943808 0.00043304963 0.06048
v 0.145792946 0.00118546328 0.06048
v 0.145670623 0.0009757853 0.06048
v 0.1468501 -0.0004914077 0.06048
v 0.145571634 -0.0009975382 0.06048
v 0.145496234 -0.0007758844 0.06048
v 0.1468501 0.000252143946 0.06048
v 0.145571634 0.000758274 0.06048
v 0.145496234 0.000536620151 0.06048
v 0.146796033 -0.00030341465 0.06048
v 0.145443991 -0.000553614 0.06048
v 0.145413816 -0.000333934557 0.06048
v 0.146796033 6.415043E-05 0.06048
v 0.145443991 0.000314349774 0.06048
v 0.145413816 9.467127E-05 0.06048
v 0.14677918 -0.00011963211 0.06048
v 0.145404175 -0.00011963211 0.06048
f 1 2 3
f 4 1 3
f 1 4 5
f 4 3 6
f 4 7 5
f 8 4 6
f 4 8 7
f 8 6 9
f 8 10 7
f 11 8 9
f 8 11 10
f 11 9 12
f 11 13 10
f 11 12 14
f 13 11 14
f 15 14 12
f 13 14 15
f 15 12 16
f 17 13 15
f 18 15 16
f 17 15 18
f 18 16 19
f 20 17 18
f 21 18 19
f 20 18 21
f 21 19 22
f 23 21 22
f 24 20 21
f 24 21 23
f 23 22 25
f 26 24 23
f 27 23 25
f 28 26 23
f 29 23 27
f 28 23 29
f 30 29 27
f 31 28 29
f 32 29 30
f 32 31 29
f 33 32 30
f 32 33 31
f 33 30 34
f 33 35 31
f 36 33 34
f 33 36 35
f 36 34 37
f 36 38 35
f 39 36 37
f 36 39 38
f 39 37 40
f 39 41 38
f 42 39 40
f 39 42 41
f 42 40 43
f 42 44 41
f 45 42 43
f 42 45 44
f 45 43 46
f 45 47 44
f 48 45 46
f 45 48 47
f 48 46 49
f 47 48 50
f 48 49 50
f 49 51 50
f 51 52 50
f 50 52 53
f 51 54 52
f 52 55 53
f 54 56 52
f 52 56 55
f 54 57 56
f 56 58 55
f 57 59 56
f 56 59 58
f 57 60 59
f 59 61 58
f 60 62 59
f 59 62 61
f 60 63 62
f 63 61 62
f 63 60 64
f 63 65 61
f 66 63 64
f 63 66 65
f 66 64 67
f 66 68 65
f 69 66 67
f 66 69 68
f 69 67 70
f 71 69 70
f 69 72 68
f 69 71 72
f 71 70 73
f 71 74 72
f 71 73 75
f 71 76 74
f 77 71 75
f 71 77 76
f 77 75 78
f 77 79 76
f 80 77 78
f 77 80 79
f 80 78 81
f 80 81 79
f 78 82 81
f 83 79 81
f 82 84 81
f 83 81 84
f 82 85 84
f 86 83 84
f 85 87 84
f 86 84 87
f 85 88 87
f 89 86 87
f 88 90 87
f 89 87 90
f 88 91 90
f 92 89 90
f 91 93 90
f 92 90 93
f 91 94 93
f 95 92 93
f 94 96 93
f 95 93 96
f 94 97 96
f 98 95 96
f 97 98 96
f 99 100 101
f 102 99 101
f 99 102 103
f 102 101 104
f 102 105 103
f 106 102 104
f 102 106 105
f 106 104 107
f 106 108 105
f 109 106 107
f 106 109 108
f 109 107 110
f 109 111 108
f 112 109 110
f 109 112 111
f 112 110 113
f 112 114 111
f 115 112 113
f 112 115 114
f 115 113 116
f 115 117 114
f 118 115 116
f 115 118 117
f 118 116 119
f 120 118 119
f 118 121 117
f 118 120 121
f 120 119 122
f 120 123 121
f 120 122 124
f 120 125 123
f 126 120 124
f 120 126 125
f 126 124 127
f 126 128 125
f 129 126 127
f 126 129 128
f 129 127 130
f 129 131 128
f 132 129 130
f 129 132 131
f 132 130 133
f 132 134 131
f 135 132 133
f 132 135 134
f 135 133 136
f 135 137 134
f 138 135 136
f 135 138 137
f 138 136 139
f 138 140 137
f 141 138 139
f 138 141 140
f 141 139 142
f 143 141 142
f 141 144 140
f 141 143 144
f 143 142 145
f 143 146 144
f 143 145 147
f 143 148 146
f 149 143 147
f 143 149 148
f 149 147 150
f 149 151 148
f 152 149 150
f 149 152 151
f 152 150 153
f 152 154 151
f 155 152 153
f 152 155 154
f 155 153 156
f 155 157 154
f 155 156 158
f 157 155 158
f 159 158 156
f 157 158 159
f 160 159 156
f 161 157 159
f 162 159 160
f 161 159 162
f 163 162 160
f 164 161 162
f 165 162 163
f 164 162 165
f 166 165 163
f 167 164 165
f 168 165 166
f 167 165 168
f 169 168 166
f 170 167 168
f 171 168 169
f 170 168 171
f 172 171 169
f 173 170 171
f 174 171 172
f 173 171 174
f 175 174 172
f 176 173 174
f 177 174 175
f 177 176 174
f 178 177 175
f 177 178 176
f 178 175 179
f 178 180 176
f 181 178 179
f 178 181 180
f 181 179 182
f 181 183 180
f 184 181 182
f 181 184 183
f 184 182 185
f 184 186 183
f 187 184 185
f 184 187 186
f 187 185 188
f 187 189 186
f 190 187 188
f 187 190 189
f 190 188 191
f 190 192 189
f 193 190 191
f 190 193 192
f 193 191 194
f 192 193 195
f 193 194 195
f 194 196 195
f 196 197 195
f 195 197 198
f 196 199 197
f 197 200 198
f 199 201 197
f 197 201 200
f 199 202 201
f 201 203 200
f 202 204 201
f 201 204 203
f 202 205 204
f 204 206 203
f 205 207 204
f 204 207 206
f 205 208 207
f 207 209 206
f 208 210 207
f 207 210 209
f 208 211 210
f 210 212 209
f 211 213 210
f 210 213 212
f 211 214 213
f 214 215 213
f 213 216 212
f 213 215 216
f 214 217 215
f 215 218 216
f 217 219 215
f 215 220 218
f 219 221 215
f 215 221 220
f 219 222 221
f 221 223 220
f 222 224 221
f 221 224 223
f 222 225 224
f 224 226 223
f 225 227 224
f 224 227 226
f 225 228 227
f 227 229 226
f 228 230 227
f 227 230 229
f 228 231 230
f 230 232 229
f 231 233 230
f 230 233 232
f 231 234 233
f 233 235 232
f 234 236 233
f 233 236 235
f 234 237 236
f 237 238 236
f 236 239 235
f 236 238 239
f 237 240 238
f 238 241 239
f 240 242 238
f 238 243 241
f 242 244 238
f 238 244 243
f 242 245 244
f 244 246 243
f 245 247 244
f 244 247 246
f 245 248 247
f 247 249 246
f 248 250 247
f 247 250 249
f 248 251 250
f 250 252 249
f 251 253 250
f 250 253 252
f 251 254 253
f 254 252 253
f 254 251 255
f 254 256 252
f 257 254 255
f 254 257 256
f 257 255 258
f 257 259 256
f 260 257 258
f 257 260 259
f 260 258 261
f 260 262 259
f 263 260 261
f 260 263 262
f 263 261 264
f 263 265 262
f 266 263 264
f 263 266 265
f 266 264 267
f 266 268 265
f 269 266 267
f 266 269 268
f 269 267 270
f 269 271 268
f 272 269 270
f 269 272 271
f 272 270 273
f 272 273 271
f 270 274 273
f 275 271 273
f 274 276 273
f 275 273 276
f 274 277 276
f 278 275 276
f 277 279 276
f 278 276 279
f 277 280 279
f 281 278 279
f 280 282 279
f 281 279 282
f 280 283 282
f 284 281 282
f 283 285 282
f 284 282 285
f 283 286 285
f 287 284 285
f 286 288 285
f 287 285 288
f 286 289 288
f 290 287 288
f 289 290 288
f 291 292 293
f 292 291 294
f 292 295 293
f 292 294 296
f 295 292 297
f 298 292 296
f 292 299 297
f 292 298 300
f 292 301 299
f 292 300 302
f 301 292 303
f 304 292 302
f 292 305 303
f 292 304 306
f 292 307 305
f 292 306 308
f 307 292 309
f 310 292 308
f 292 311 309
f 292 310 312
f 292 313 311
f 292 312 314
f 313 292 315
f 316 292 314
f 292 317 315
f 292 316 318
f 292 319 317
f 292 318 320
f 319 292 321
f 322 292 320
f 292 323 321
f 292 322 323
f 324 325 326
f 324 326 327
f 325 324 328
f 329 324 327
f 328 324 330
f 324 329 331
f 324 332 330
f 324 331 333
f 324 334 332
f 335 324 333
f 334 324 336
f 324 335 337
f 324 338 336
f 324 337 339
f 324 340 338
f 341 324 339
f 340 324 342
f 324 341 343
f 324 344 342
f 324 343 345
f 324 346 344
f 347 324 345
f 346 324 348
f 324 347 349
f 324 350 348
f 324 349 351
f 324 352 350
f 353 324 351
f 352 324 354
f 324 353 355
f 324 356 354
f 324 355 357
f 324 358 356
f 359 324 357
f 358 324 360
f 324 359 361
f 324 362 360
f 324 361 363
f 324 364 362
f 365 324 363
f 364 324 366
f 324 365 367
f 324 368 366
f 324 367 369
f 324 370 368
f 371 324 369
f 370 324 372
f 324 371 373
f 324 374 372
f 324 373 375
f 324 376 374
f 377 324 375
f 376 324 378
f 324 377 379
f 324 380 378
f 324 379 381
f 324 382 380
f 383 324 381
f 382 324 384
f 324 383 385
f 324 386 384
f 324 385 387
f 324 388 386
f 388 324 387
f 389 390 391
f 389 392 390
f 393 389 391
f 393 391 394
f 393 394 395
f 396 393 395
f 389 397 392
f 392 397 398
f 397 399 398
f 395 400 396
f 397 401 399
f 401 402 399
f 401 403 402
f 400 404 396
f 400 405 404
f 401 406 403
f 406 407 403
f 406 408 407
f 405 400 409
f 409 400 410
f 409 410 411
f 412 409 411
f 412 411 413
f 406 414 408
f 414 415 408
f 414 416 415
f 417 412 413
f 414 418 416
f 418 419 416
f 418 420 419
f 412 417 421
f 418 422 420
f 422 423 420
f 422 424 423
f 412 421 425
f 422 426 424
f 426 427 424
f 426 428 427
f 429 412 425
f 412 429 430
f 412 430 431
f 426 432 428
f 432 433 428
f 432 434 433
f 435 412 431
f 435 431 436
f 435 436 437
f 432 438 434
f 438 439 434
f 438 440 439
f 441 435 437
f 441 437 442
f 441 442 443
f 438 444 440
f 444 445 440
f 444 446 445
f 447 441 443
f 447 443 448
f 447 448 449
f 444 450 446
f 450 451 446
f 450 452 451
f 453 447 449
f 453 449 454
f 453 454 455
f 450 456 452
f 456 457 452
f 456 458 457
f 459 453 455
f 459 455 460
f 459 460 461
f 456 462 458
f 462 463 458
f 462 464 463
f 465 459 461
f 465 461 466
f 465 466 467
f 462 468 464
f 468 469 464
f 468 470 469
f 471 465 467
f 471 467 472
f 471 472 473
f 468 474 470
f 474 475 470
f 474 476 475
f 477 471 473
f 477 473 478
f 477 478 479
f 474 480 476
f 480 481 476
f 480 482 481
f 483 477 479
f 480 483 482
f 483 479 484
f 483 484 482
