# ROS coordinates: X forward, Y left, Z up; units are metres.
o mesh
v -0.06605001 -0.028 0.12166
v -0.06605001 -0.0353 0.12166
v -0.06628001 -0.0353 0.12166
v -0.06628001 -0.02572 0.12166
v -0.0557900034 -0.028 0.12166
v -0.05457 -0.02572 0.12166
v -0.05457 -0.0360000022 0.12166
v -0.0557900034 -0.0360000022 0.12166
v -0.06605001 -0.0353 0.12166
v -0.06605001 -0.0353 0.12246
v -0.06628001 -0.0353 0.12166
v -0.06628001 -0.0353 0.12296
v -0.065645 -0.0353 0.12296
v -0.065645 -0.0353 0.12261
v -0.065645 -0.0353 0.12246
v -0.05556 -0.0307500027 0.12296
v -0.055970002 -0.0307500027 0.12296
v -0.05556 -0.0313 0.12296
v -0.0566900037 -0.03255 0.12296
v -0.05457 -0.0313 0.12296
v -0.05457 -0.03575 0.12296
v -0.05579 -0.03575 0.12296
v -0.0566900037 -0.02572 0.12296
v -0.055970002 -0.02621 0.12296
v -0.0557400025 -0.02621 0.12296
v -0.05457 -0.02572 0.12296
v -0.05528049 -0.0262041744 0.12296
v -0.0552350022 -0.0262 0.12296
v -0.05457 -0.0262 0.12296
v -0.055327028 -0.0262175538 0.12296
v -0.055371806 -0.0262407511 0.12296
v -0.05541178 -0.0262732245 0.12296
v -0.05544425 -0.0263131969 0.12296
v -0.05546745 -0.0263579767 0.12296
v -0.05548083 -0.0264045112 0.12296
v -0.0554850027 -0.02645 0.12296
v -0.0554850027 -0.027350001 0.12296
v -0.05548083 -0.02739549 0.12296
v -0.05558 -0.0292000026 0.12296
v -0.05546745 -0.0274420232 0.12296
v -0.05544425 -0.0274868011 0.12296
v -0.05541178 -0.0275267772 0.12296
v -0.055371806 -0.02755925 0.12296
v -0.055327028 -0.027582448 0.12296
v -0.05528049 -0.0275958255 0.12296
v -0.0552350022 -0.0276000015 0.12296
v -0.05457 -0.0276000015 0.12296
v -0.05457 -0.0297100022 0.12296
v -0.05558 -0.0297100022 0.12296
v -0.05579 -0.0360000022 0.12296
v -0.0654450059 -0.0360000022 0.12296
v -0.0654450059 -0.0355 0.12296
v -0.0654483438 -0.03546361 0.12296
v -0.06545904 -0.035426382 0.12296
v -0.0656300038 -0.03255 0.12296
v -0.0654776 -0.03539056 0.12296
v -0.06550358 -0.035358578 0.12296
v -0.06553556 -0.0353326 0.12296
v -0.06557138 -0.0353140421 0.12296
v -0.06560861 -0.03530334 0.12296
v -0.065645 -0.0353 0.12296
v -0.06628001 -0.0353 0.12296
v -0.06628001 -0.02572 0.12296
v -0.0656300038 -0.02572 0.12296
v -0.0592550039 -0.02572 0.12286
v -0.0592550039 -0.02572 0.122710004
v -0.0630250052 -0.02572 0.12286
v -0.0630250052 -0.02572 0.122710004
v -0.0604250021 -0.02572 0.122310005
v -0.0566900037 -0.02572 0.122710004
v -0.0656300038 -0.02572 0.122710004
v -0.05457 -0.02572 0.12166
v -0.05457 -0.02572 0.12296
v -0.0566900037 -0.02572 0.12296
v -0.06628001 -0.02572 0.12166
v -0.06628001 -0.02572 0.12296
v -0.0656300038 -0.02572 0.12296
v -0.05457 -0.0360000022 0.12279
v -0.05457 -0.0360000022 0.12166
v -0.05457 -0.03575 0.12279
v -0.05457 -0.0308600031 0.122310005
v -0.05457 -0.02572 0.12166
v -0.05457 -0.0262 0.12279
v -0.05457 -0.02572 0.12296
v -0.05457 -0.0262 0.12296
v -0.05457 -0.0276000015 0.12279
v -0.05457 -0.0297100022 0.12279
v -0.05457 -0.0276000015 0.12296
v -0.05457 -0.0297100022 0.12296
v -0.05457 -0.0313 0.12279
v -0.05457 -0.0313 0.12296
v -0.05457 -0.03575 0.12296
v -0.0656300038 -0.028 0.12246
v -0.06605001 -0.028 0.12246
v -0.06605001 -0.028 0.12166
v -0.0609200038 -0.028 0.122135006
v -0.0557900034 -0.028 0.12166
v -0.0656300038 -0.028 0.12261
v -0.0557900034 -0.028 0.12246
v -0.0557925068 -0.028 0.1224873
v -0.0558005348 -0.028 0.122515216
v -0.0558144525 -0.028 0.122542083
v -0.0559400022 -0.028 0.12261
v -0.0558339357 -0.028 0.122566067
v -0.05585792 -0.028 0.12258555
v -0.05588479 -0.028 0.122599475
v -0.055912707 -0.028 0.1226075
v -0.065645 -0.0353 0.12261
v -0.065645 -0.0353 0.12246
v -0.0656300038 -0.035300564 0.12246
v -0.0656300038 -0.035300564 0.12261
v -0.065645 -0.0353 0.12296
v -0.06560861 -0.03530334 0.122710004
v -0.06560861 -0.03530334 0.12296
v -0.0655954257 -0.0353062451 0.12261
v -0.06557138 -0.0353140421 0.122710004
v -0.06557138 -0.0353140421 0.12296
v -0.06556064 -0.0353186652 0.12261
v -0.06553556 -0.0353326 0.122710004
v -0.06553556 -0.0353326 0.12296
v -0.0655276 -0.0353380851 0.12261
v -0.06550358 -0.035358578 0.122710004
v -0.06550358 -0.035358578 0.12296
v -0.0654983744 -0.0353639871 0.12261
v -0.0654776 -0.03539056 0.122710004
v -0.0654776 -0.03539056 0.12296
v -0.06547474 -0.03539507 0.12261
v -0.06545904 -0.035426382 0.122710004
v -0.06545904 -0.035426382 0.12296
v -0.06545785 -0.035429474 0.12261
v -0.0654483438 -0.03546361 0.122710004
v -0.0654483438 -0.03546361 0.12296
v -0.0654480755 -0.0354650952 0.12261
v -0.0654450059 -0.0355 0.12296
v -0.0654450059 -0.0355 0.12261
v -0.0566900037 -0.026800001 0.122710004
v -0.0566900037 -0.026800001 0.122860007
v -0.0566900037 -0.02572 0.122710004
v -0.0566900037 -0.02572 0.12296
v -0.0566900037 -0.0286056437 0.122860007
v -0.0566900037 -0.03255 0.12296
v -0.0566900037 -0.029135 0.122835
v -0.05669 -0.0286056437 0.122734137
v -0.05669 -0.03255 0.122734137
v -0.0656300038 -0.0268 0.12286
v -0.0656300038 -0.0268 0.122710004
v -0.0656300038 -0.02572 0.122710004
v -0.0656300038 -0.02572 0.12296
v -0.0656300038 -0.0287799984 0.12286
v -0.0656300038 -0.03255 0.12296
v -0.0656300038 -0.029135 0.122835
v -0.0656300038 -0.0287799984 0.122734137
v -0.0656300038 -0.03255 0.122734137
v -0.06304 -0.0360000022 0.12261
v -0.06304 -0.0360000022 0.122760005
v -0.0637000054 -0.0360000022 0.12261
v -0.0637000054 -0.0360000022 0.122760005
v -0.0654450059 -0.0360000022 0.12296
v -0.0626 -0.0360000022 0.122760005
v -0.06414001 -0.0360000022 0.122760005
v -0.0619400032 -0.0360000022 0.122760005
v -0.0626 -0.0360000022 0.12261
v -0.0619400032 -0.0360000022 0.12261
v -0.0615 -0.0360000022 0.122760005
v -0.0608400032 -0.0360000022 0.122760005
v -0.0615 -0.0360000022 0.12261
v -0.0608400032 -0.0360000022 0.12261
v -0.0604 -0.0360000022 0.122760005
v -0.05579 -0.0360000022 0.12296
v -0.0597400032 -0.0360000022 0.122760005
v -0.0604 -0.0360000022 0.12261
v -0.0597400032 -0.0360000022 0.12261
v -0.0593 -0.0360000022 0.122760005
v -0.0586400032 -0.0360000022 0.122760005
v -0.0593 -0.0360000022 0.12261
v -0.0586400032 -0.0360000022 0.12261
v -0.0582 -0.0360000022 0.122760005
v -0.0575400032 -0.0360000022 0.122760005
v -0.0582 -0.0360000022 0.12261
v -0.0575400032 -0.0360000022 0.12261
v -0.0571 -0.0360000022 0.122760005
v -0.0557900034 -0.0360000022 0.12279
v -0.0559400022 -0.0360000022 0.12261
v -0.0571 -0.0360000022 0.12261
v -0.055912707 -0.0360000022 0.1226075
v -0.05457 -0.0360000022 0.12279
v -0.055884786 -0.0360000022 0.122599475
v -0.05585792 -0.0360000022 0.12258555
v -0.0558339357 -0.0360000022 0.122566067
v -0.0558144525 -0.0360000022 0.122542083
v -0.0558005348 -0.0360000022 0.122515216
v -0.0557925068 -0.0360000022 0.1224873
v -0.05579 -0.0360000022 0.12246
v -0.05457 -0.0360000022 0.12166
v -0.0557900034 -0.0360000022 0.12166
v -0.0648 -0.0360000022 0.12261
v -0.06414001 -0.0360000022 0.12261
v -0.0648 -0.0360000022 0.122760005
v -0.06524 -0.0360000022 0.122760005
v -0.0654450059 -0.0360000022 0.12261
v -0.06524 -0.0360000022 0.12261
v -0.0567167774 -0.0285587274 0.122860007
v -0.0566900037 -0.0286056437 0.122860007
v -0.0566900037 -0.026800001 0.122860007
v -0.0567507036 -0.0285146348 0.122860007
v -0.0567912832 -0.0284749381 0.122860007
v -0.0568375662 -0.0284410752 0.122860007
v -0.05688822 -0.0284141786 0.122860007
v -0.0569416359 -0.02839496 0.122860007
v -0.0569961071 -0.02838365 0.122860007
v -0.0570500046 -0.02838 0.122860007
v -0.0592550039 -0.0268 0.12286
v -0.0611600056 -0.02725 0.12286
v -0.0652300045 -0.02838 0.12286
v -0.0630250052 -0.0268 0.12286
v -0.0656300038 -0.0268 0.12286
v -0.06530279 -0.0283866785 0.12286
v -0.0630250052 -0.02572 0.12286
v -0.0592550039 -0.02572 0.12286
v -0.06537724 -0.0284080841 0.12286
v -0.06544889 -0.0284452029 0.12286
v -0.06551285 -0.0284971558 0.12286
v -0.0655648038 -0.0285611153 0.12286
v -0.06560192 -0.0286327638 0.12286
v -0.06562333 -0.0287072137 0.12286
v -0.0656300038 -0.0287799984 0.12286
v -0.0554850027 -0.027350001 0.12279
v -0.05548083 -0.02739549 0.12279
v -0.05546745 -0.0274420232 0.12279
v -0.05544425 -0.0274868011 0.12279
v -0.05541178 -0.0275267772 0.12279
v -0.055371806 -0.02755925 0.12279
v -0.055327028 -0.027582448 0.12279
v -0.0552804954 -0.0275958255 0.12279
v -0.0552350022 -0.0276000015 0.12279
v -0.0550275035 -0.0269 0.12279
v -0.0554850027 -0.02645 0.12279
v -0.0552350022 -0.0262 0.12279
v -0.05457 -0.0276000015 0.12279
v -0.05457 -0.0262 0.12279
v -0.05528049 -0.0262041744 0.12279
v -0.055327028 -0.0262175538 0.12279
v -0.055371806 -0.0262407511 0.12279
v -0.05541178 -0.0262732245 0.12279
v -0.05544425 -0.0263131969 0.12279
v -0.05546745 -0.0263579767 0.12279
v -0.05548083 -0.0264045112 0.12279
v -0.06414001 -0.0332779177 0.12261
v -0.06414001 -0.0360000022 0.12261
v -0.0648 -0.0360000022 0.12261
v -0.0648 -0.0332779177 0.12261
v -0.0656300038 -0.028 0.12261
v -0.06524 -0.0332779177 0.12261
v -0.0656300038 -0.035300564 0.12261
v -0.0655954257 -0.0353062451 0.12261
v -0.06556064 -0.0353186652 0.12261
v -0.0655276 -0.0353380851 0.12261
v -0.0654983744 -0.0353639871 0.12261
v -0.06547474 -0.03539507 0.12261
v -0.06545785 -0.035429474 0.12261
v -0.06524 -0.0360000022 0.12261
v -0.0654480755 -0.0354650952 0.12261
v -0.0654450059 -0.0355 0.12261
v -0.0654450059 -0.0360000022 0.12261
v -0.0637000054 -0.0332779177 0.12261
v -0.060785003 -0.032 0.12261
v -0.0559400022 -0.028 0.12261
v -0.06304 -0.0332779177 0.12261
v -0.0637000054 -0.0360000022 0.12261
v -0.06304 -0.0360000022 0.12261
v -0.0626 -0.0332779177 0.12261
v -0.0619400032 -0.0332779177 0.12261
v -0.0615 -0.0332779177 0.12261
v -0.0626 -0.0360000022 0.12261
v -0.0619400032 -0.0360000022 0.12261
v -0.0608400032 -0.0332779177 0.12261
v -0.0615 -0.0360000022 0.12261
v -0.0608400032 -0.0360000022 0.12261
v -0.0604 -0.0332779177 0.12261
v -0.0597400032 -0.0332779177 0.12261
v -0.0604 -0.0360000022 0.12261
v -0.0597400032 -0.0360000022 0.12261
v -0.0593 -0.0332779177 0.12261
v -0.0586400032 -0.0332779177 0.12261
v -0.0593 -0.0360000022 0.12261
v -0.0586400032 -0.0360000022 0.12261
v -0.0582 -0.0332779177 0.12261
v -0.0575400032 -0.0332779177 0.12261
v -0.0582 -0.0360000022 0.12261
v -0.0575400032 -0.0360000022 0.12261
v -0.0571 -0.0332779177 0.12261
v -0.0559400022 -0.0360000022 0.12261
v -0.0571 -0.0360000022 0.12261
v -0.05556 -0.0307500027 0.12279
v -0.05556 -0.0313 0.12279
v -0.05457 -0.0313 0.12279
v -0.05457 -0.0297100022 0.12279
v -0.05558 -0.0297100022 0.12279
v -0.055970002 -0.0307500027 0.12279
v -0.05558 -0.0292000026 0.12279
v -0.055970002 -0.02621 0.12279
v -0.0557400025 -0.02621 0.12279
v -0.0652300045 -0.02838 0.122734137
v -0.06530279 -0.0283866785 0.122734137
v -0.06537724 -0.0284080841 0.122734137
v -0.06544889 -0.0284452029 0.122734137
v -0.06551285 -0.0284971558 0.122734137
v -0.0655648038 -0.0285611153 0.122734137
v -0.06560192 -0.0286327638 0.122734137
v -0.06562333 -0.0287072137 0.122734137
v -0.0656300038 -0.0287799984 0.122734137
v -0.0611600019 -0.030465 0.122734137
v -0.0570500046 -0.02838 0.122734137
v -0.05669 -0.0286056437 0.122734137
v -0.0656300038 -0.03255 0.122734137
v -0.05669 -0.03255 0.122734137
v -0.0567167774 -0.0285587274 0.122734137
v -0.0567507 -0.0285146348 0.122734137
v -0.0567912832 -0.0284749381 0.122734137
v -0.0568375662 -0.0284410752 0.122734137
v -0.05688822 -0.0284141786 0.122734137
v -0.0569416359 -0.02839496 0.122734137
v -0.0569961071 -0.02838365 0.122734137
v -0.0639200062 -0.03463896 0.122760005
v -0.06414001 -0.0360000022 0.122760005
v -0.06414001 -0.0332779177 0.122760005
v -0.0637000054 -0.0332779177 0.122760005
v -0.0637000054 -0.0360000022 0.122760005
v -0.06282 -0.03463896 0.122760005
v -0.06304 -0.0360000022 0.122760005
v -0.06304 -0.0332779177 0.122760005
v -0.0626 -0.0332779177 0.122760005
v -0.0626 -0.0360000022 0.122760005
v -0.0617200024 -0.03463896 0.122760005
v -0.0619400032 -0.0360000022 0.122760005
v -0.0619400032 -0.0332779177 0.122760005
v -0.0615 -0.0332779177 0.122760005
v -0.0615 -0.0360000022 0.122760005
v -0.0606200024 -0.03463896 0.122760005
v -0.0608400032 -0.0360000022 0.122760005
v -0.0608400032 -0.0332779177 0.122760005
v -0.0604 -0.0332779177 0.122760005
v -0.0604 -0.0360000022 0.122760005
v -0.0595200025 -0.03463896 0.122760005
v -0.0597400032 -0.0360000022 0.122760005
v -0.0597400032 -0.0332779177 0.122760005
v -0.0593 -0.0332779177 0.122760005
v -0.0593 -0.0360000022 0.122760005
v -0.0584200025 -0.03463896 0.122760005
v -0.0586400032 -0.0360000022 0.122760005
v -0.0586400032 -0.0332779177 0.122760005
v -0.0582 -0.0332779177 0.122760005
v -0.0582 -0.0360000022 0.122760005
v -0.0573200025 -0.03463896 0.122760005
v -0.0575400032 -0.0360000022 0.122760005
v -0.0575400032 -0.0332779177 0.122760005
v -0.0571 -0.0332779177 0.122760005
v -0.0571 -0.0360000022 0.122760005
v -0.06502 -0.03463896 0.122760005
v -0.06524 -0.0360000022 0.122760005
v -0.06524 -0.0332779177 0.122760005
v -0.0648 -0.0332779177 0.122760005
v -0.0648 -0.0360000022 0.122760005
v -0.06414001 -0.03463896 0.122685
v -0.06414001 -0.0332779177 0.12261
v -0.06414001 -0.0332779177 0.122760005
v -0.06414001 -0.0360000022 0.122760005
v -0.06414001 -0.0360000022 0.12261
v -0.0639200062 -0.0332779177 0.122685
v -0.0637000054 -0.0332779177 0.12261
v -0.0637000054 -0.0332779177 0.122760005
v -0.06414001 -0.0332779177 0.122760005
v -0.06414001 -0.0332779177 0.12261
v -0.0637000054 -0.03463896 0.122685
v -0.0637000054 -0.0360000022 0.12261
v -0.0637000054 -0.0360000022 0.122760005
v -0.0637000054 -0.0332779177 0.122760005
v -0.0637000054 -0.0332779177 0.12261
v -0.06304 -0.03463896 0.122685
v -0.06304 -0.0332779177 0.12261
v -0.06304 -0.0332779177 0.122760005
v -0.06304 -0.0360000022 0.122760005
v -0.06304 -0.0360000022 0.12261
v -0.06282 -0.0332779177 0.122685
v -0.0626 -0.0332779177 0.12261
v -0.0626 -0.0332779177 0.122760005
v -0.06304 -0.0332779177 0.122760005
v -0.06304 -0.0332779177 0.12261
v -0.0626 -0.03463896 0.122685
v -0.0626 -0.0360000022 0.12261
v -0.0626 -0.0360000022 0.122760005
v -0.0626 -0.0332779177 0.122760005
v -0.0626 -0.0332779177 0.12261
v -0.0619400032 -0.03463896 0.122685
v -0.0619400032 -0.0332779177 0.12261
v -0.0619400032 -0.0332779177 0.122760005
v -0.0619400032 -0.0360000022 0.122760005
v -0.0619400032 -0.0360000022 0.12261
v -0.0617200024 -0.0332779177 0.122685
v -0.0615 -0.0332779177 0.12261
v -0.0615 -0.0332779177 0.122760005
v -0.0619400032 -0.0332779177 0.122760005
v -0.0619400032 -0.0332779177 0.12261
v -0.0615 -0.03463896 0.122685
v -0.0615 -0.0360000022 0.12261
v -0.0615 -0.0360000022 0.122760005
v -0.0615 -0.0332779177 0.122760005
v -0.0615 -0.0332779177 0.12261
v -0.0608400032 -0.03463896 0.122685
v -0.0608400032 -0.0332779177 0.12261
v -0.0608400032 -0.0332779177 0.122760005
v -0.0608400032 -0.0360000022 0.122760005
v -0.0608400032 -0.0360000022 0.12261
v -0.0606200024 -0.0332779177 0.122685
v -0.0604 -0.0332779177 0.12261
v -0.0604 -0.0332779177 0.122760005
v -0.0608400032 -0.0332779177 0.122760005
v -0.0608400032 -0.0332779177 0.12261
v -0.0604 -0.03463896 0.122685
v -0.0604 -0.0360000022 0.12261
v -0.0604 -0.0360000022 0.122760005
v -0.0604 -0.0332779177 0.122760005
v -0.0604 -0.0332779177 0.12261
v -0.0597400032 -0.03463896 0.122685
v -0.0597400032 -0.0332779177 0.12261
v -0.0597400032 -0.0332779177 0.122760005
v -0.0597400032 -0.0360000022 0.122760005
v -0.0597400032 -0.0360000022 0.12261
v -0.0595200025 -0.0332779177 0.122685
v -0.0593 -0.0332779177 0.12261
v -0.0593 -0.0332779177 0.122760005
v -0.0597400032 -0.0332779177 0.122760005
v -0.0597400032 -0.0332779177 0.12261
v -0.0593 -0.03463896 0.122685
v -0.0593 -0.0360000022 0.12261
v -0.0593 -0.0360000022 0.122760005
v -0.0593 -0.0332779177 0.122760005
v -0.0593 -0.0332779177 0.12261
v -0.0586400032 -0.03463896 0.122685
v -0.0586400032 -0.0332779177 0.12261
v -0.0586400032 -0.0332779177 0.122760005
v -0.0586400032 -0.0360000022 0.122760005
v -0.0586400032 -0.0360000022 0.12261
v -0.0584200025 -0.0332779177 0.122685
v -0.0582 -0.0332779177 0.12261
v -0.0582 -0.0332779177 0.122760005
v -0.0586400032 -0.0332779177 0.122760005
v -0.0586400032 -0.0332779177 0.12261
v -0.0582 -0.03463896 0.122685
v -0.0582 -0.0360000022 0.12261
v -0.0582 -0.0360000022 0.122760005
v -0.0582 -0.0332779177 0.122760005
v -0.0582 -0.0332779177 0.12261
v -0.0575400032 -0.03463896 0.122685
v -0.0575400032 -0.0332779177 0.12261
v -0.0575400032 -0.0332779177 0.122760005
v -0.0575400032 -0.0360000022 0.122760005
v -0.0575400032 -0.0360000022 0.12261
v -0.0573200025 -0.0332779177 0.122685
v -0.0571 -0.0332779177 0.12261
v -0.0571 -0.0332779177 0.122760005
v -0.0575400032 -0.0332779177 0.122760005
v -0.0575400032 -0.0332779177 0.12261
v -0.0571 -0.03463896 0.122685
v -0.0571 -0.0360000022 0.12261
v -0.0571 -0.0360000022 0.122760005
v -0.0571 -0.0332779177 0.122760005
v -0.0571 -0.0332779177 0.12261
v -0.0656300038 -0.0316502824 0.122535005
v -0.0656300038 -0.035300564 0.12261
v -0.0656300038 -0.035300564 0.12246
v -0.0656300038 -0.028 0.12246
v -0.0656300038 -0.028 0.12261
v -0.06524 -0.03463896 0.122685
v -0.06524 -0.0332779177 0.12261
v -0.06524 -0.0332779177 0.122760005
v -0.06524 -0.0360000022 0.122760005
v -0.06524 -0.0360000022 0.12261
v -0.06502 -0.0332779177 0.122685
v -0.0648 -0.0332779177 0.12261
v -0.0648 -0.0332779177 0.122760005
v -0.06524 -0.0332779177 0.122760005
v -0.06524 -0.0332779177 0.12261
v -0.0648 -0.03463896 0.122685
v -0.0648 -0.0360000022 0.12261
v -0.0648 -0.0360000022 0.122760005
v -0.0648 -0.0332779177 0.122760005
v -0.0648 -0.0332779177 0.12261
v -0.06432751 -0.0268 0.122785
v -0.0630250052 -0.0268 0.12286
v -0.0630250052 -0.0268 0.122710004
v -0.0656300038 -0.0268 0.122710004
v -0.0656300038 -0.0268 0.12286
v -0.057972502 -0.0268 0.122785
v -0.0566900037 -0.026800001 0.122860007
v -0.0566900037 -0.026800001 0.122710004
v -0.0592550039 -0.0268 0.122710004
v -0.0592550039 -0.0268 0.12286
v -0.0611400045 -0.02838 0.122797072
v -0.0652300045 -0.02838 0.12286
v -0.0652300045 -0.02838 0.122734137
v -0.0570500046 -0.02838 0.122734137
v -0.0570500046 -0.02838 0.122860007
v -0.06530279 -0.0283866785 0.122797072
v -0.06530279 -0.0283866785 0.12286
v -0.06537724 -0.0284080841 0.12286
v -0.0652300045 -0.02838 0.12286
v -0.0652300045 -0.02838 0.122734137
v -0.06530279 -0.0283866785 0.122734137
v -0.06537724 -0.0284080841 0.122797072
v -0.06544889 -0.0284452029 0.12286
v -0.06537724 -0.0284080841 0.122734137
v -0.06544889 -0.0284452029 0.122797072
v -0.06551285 -0.0284971558 0.12286
v -0.06544889 -0.0284452029 0.122734137
v -0.06551285 -0.0284971558 0.122797072
v -0.0655648038 -0.0285611153 0.12286
v -0.06551285 -0.0284971558 0.122734137
v -0.0655648038 -0.0285611153 0.122797072
v -0.06560192 -0.0286327638 0.12286
v -0.0655648038 -0.0285611153 0.122734137
v -0.06560192 -0.0286327638 0.122797072
v -0.06562333 -0.0287072137 0.12286
v -0.06560192 -0.0286327638 0.122734137
v -0.06562333 -0.0287072137 0.122797072
v -0.0656300038 -0.0287799984 0.12286
v -0.06562333 -0.0287072137 0.122734137
v -0.0656300038 -0.0287799984 0.122734137
v -0.0567167774 -0.0285587274 0.122797072
v -0.0567167774 -0.0285587274 0.122860007
v -0.0567507036 -0.0285146348 0.122860007
v -0.0566900037 -0.0286056437 0.122860007
v -0.05669 -0.0286056437 0.122734137
v -0.0567167774 -0.0285587274 0.122734137
v -0.0567507036 -0.0285146348 0.122797072
v -0.0567912832 -0.0284749381 0.122860007
v -0.0567507 -0.0285146348 0.122734137
v -0.0567912832 -0.0284749381 0.122797072
v -0.0568375662 -0.0284410752 0.122860007
v -0.0567912832 -0.0284749381 0.122734137
v -0.0568375662 -0.0284410752 0.122797072
v -0.05688822 -0.0284141786 0.122860007
v -0.0568375662 -0.0284410752 0.122734137
v -0.05688822 -0.0284141786 0.122797072
v -0.0569416359 -0.02839496 0.122860007
v -0.05688822 -0.0284141786 0.122734137
v -0.0569416359 -0.02839496 0.122797072
v -0.0569961071 -0.02838365 0.122860007
v -0.0569416359 -0.02839496 0.122734137
v -0.0569961071 -0.02838365 0.122797072
v -0.0570500046 -0.02838 0.122860007
v -0.0569961071 -0.02838365 0.122734137
v -0.0570500046 -0.02838 0.122734137
v -0.065645 -0.0353 0.12246
v -0.0658400059 -0.0316502824 0.12246
v -0.0656300038 -0.035300564 0.12246
v -0.06605001 -0.0353 0.12246
v -0.0656300038 -0.028 0.12246
v -0.06605001 -0.028 0.12246
v -0.0557925068 -0.032 0.1224873
v -0.0557925068 -0.0360000022 0.1224873
v -0.0558005348 -0.0360000022 0.122515216
v -0.05579 -0.0360000022 0.12246
v -0.0557900034 -0.028 0.12246
v -0.0557925068 -0.028 0.1224873
v -0.0558005348 -0.032 0.122515216
v -0.0558144525 -0.0360000022 0.122542083
v -0.0558005348 -0.028 0.122515216
v -0.0558144525 -0.032 0.122542083
v -0.0558339357 -0.0360000022 0.122566067
v -0.0558144525 -0.028 0.122542083
v -0.0558339357 -0.032 0.122566067
v -0.05585792 -0.0360000022 0.12258555
v -0.0558339357 -0.028 0.122566067
v -0.05585792 -0.032 0.12258555
v -0.055884786 -0.0360000022 0.122599475
v -0.05585792 -0.028 0.12258555
v -0.055884786 -0.032 0.122599475
v -0.055912707 -0.0360000022 0.1226075
v -0.05588479 -0.028 0.122599475
v -0.055912707 -0.032 0.1226075
v -0.0559400022 -0.0360000022 0.12261
v -0.055912707 -0.028 0.1226075
v -0.0559400022 -0.028 0.12261
v -0.055180002 -0.035875 0.12279
v -0.0557900034 -0.03575 0.12279
v -0.0557900034 -0.0360000022 0.12279
v -0.05457 -0.0360000022 0.12279
v -0.05457 -0.03575 0.12279
v -0.06432751 -0.02626 0.122710004
v -0.0656300038 -0.02572 0.122710004
v -0.0656300038 -0.0268 0.122710004
v -0.0630250052 -0.0268 0.122710004
v -0.0630250052 -0.02572 0.122710004
v -0.057972502 -0.02626 0.122710004
v -0.0592550039 -0.02572 0.122710004
v -0.0592550039 -0.0268 0.122710004
v -0.0566900037 -0.026800001 0.122710004
v -0.0566900037 -0.02572 0.122710004
v -0.0592550039 -0.02626 0.122785
v -0.0592550039 -0.0268 0.12286
v -0.0592550039 -0.0268 0.122710004
v -0.0592550039 -0.02572 0.122710004
v -0.0592550039 -0.02572 0.12286
v -0.0630250052 -0.02626 0.122785
v -0.0630250052 -0.02572 0.12286
v -0.0630250052 -0.02572 0.122710004
v -0.0630250052 -0.0268 0.122710004
v -0.0630250052 -0.0268 0.12286
v -0.0550650023 -0.0313 0.122875005
v -0.05457 -0.0313 0.12296
v -0.05457 -0.0313 0.12279
v -0.05556 -0.0313 0.12279
v -0.05556 -0.0313 0.12296
v -0.055180002 -0.03575 0.122875005
v -0.05579 -0.03575 0.12296
v -0.0557900034 -0.03575 0.12279
v -0.05457 -0.03575 0.12279
v -0.05457 -0.03575 0.12296
v -0.0557900034 -0.035875 0.122875005
v -0.05579 -0.0360000022 0.12296
v -0.0557900034 -0.0360000022 0.12279
v -0.0557900034 -0.03575 0.12279
v -0.05579 -0.03575 0.12296
v -0.0654450059 -0.03575 0.122785
v -0.0654450059 -0.0360000022 0.12296
v -0.0654450059 -0.0355 0.12296
v -0.0654450059 -0.0355 0.12261
v -0.0654450059 -0.0360000022 0.12261
v -0.0611600019 -0.03255 0.122847073
v -0.0566900037 -0.03255 0.12296
v -0.05669 -0.03255 0.122734137
v -0.0656300038 -0.03255 0.122734137
v -0.0656300038 -0.03255 0.12296
v -0.0549025 -0.0262 0.122875005
v -0.0552350022 -0.0262 0.12296
v -0.0552350022 -0.0262 0.12279
v -0.05457 -0.0262 0.12279
v -0.05457 -0.0262 0.12296
v -0.05528049 -0.0262041744 0.122875005
v -0.05528049 -0.0262041744 0.12296
v -0.055327028 -0.0262175538 0.12296
v -0.0552350022 -0.0262 0.12296
v -0.0552350022 -0.0262 0.12279
v -0.05528049 -0.0262041744 0.12279
v -0.055327028 -0.0262175538 0.122875005
v -0.055371806 -0.0262407511 0.12296
v -0.055327028 -0.0262175538 0.12279
v -0.055371806 -0.0262407511 0.122875005
v -0.05541178 -0.0262732245 0.12296
v -0.055371806 -0.0262407511 0.12279
v -0.05541178 -0.0262732245 0.122875005
v -0.05544425 -0.0263131969 0.12296
v -0.05541178 -0.0262732245 0.12279
v -0.05544425 -0.0263131969 0.122875005
v -0.05546745 -0.0263579767 0.12296
v -0.05544425 -0.0263131969 0.12279
v -0.05546745 -0.0263579767 0.122875005
v -0.05548083 -0.0264045112 0.12296
v -0.05546745 -0.0263579767 0.12279
v -0.05548083 -0.0264045112 0.122875005
v -0.0554850027 -0.02645 0.12296
v -0.05548083 -0.0264045112 0.12279
v -0.0554850027 -0.02645 0.12279
v -0.0554850027 -0.0269 0.122875005
v -0.0554850027 -0.027350001 0.12296
v -0.0554850027 -0.027350001 0.12279
v -0.0554850027 -0.02645 0.12279
v -0.0554850027 -0.02645 0.12296
v -0.05548083 -0.02739549 0.122875005
v -0.05548083 -0.02739549 0.12296
v -0.05546745 -0.0274420232 0.12296
v -0.0554850027 -0.027350001 0.12296
v -0.0554850027 -0.027350001 0.12279
v -0.05548083 -0.02739549 0.12279
v -0.05546745 -0.0274420232 0.122875005
v -0.05544425 -0.0274868011 0.12296
v -0.05546745 -0.0274420232 0.12279
v -0.05544425 -0.0274868011 0.122875005
v -0.05541178 -0.0275267772 0.12296
v -0.05544425 -0.0274868011 0.12279
v -0.05541178 -0.0275267772 0.122875005
v -0.055371806 -0.02755925 0.12296
v -0.05541178 -0.0275267772 0.12279
v -0.055371806 -0.02755925 0.122875005
v -0.055327028 -0.027582448 0.12296
v -0.055371806 -0.02755925 0.12279
v -0.055327028 -0.027582448 0.122875005
v -0.05528049 -0.0275958255 0.12296
v -0.055327028 -0.027582448 0.12279
v -0.0552804954 -0.0275958255 0.122875005
v -0.0552350022 -0.0276000015 0.12296
v -0.0552804954 -0.0275958255 0.12279
v -0.0552350022 -0.0276000015 0.12279
v -0.0549025 -0.0276000015 0.122875005
v -0.05457 -0.0276000015 0.12296
v -0.05457 -0.0276000015 0.12279
v -0.0552350022 -0.0276000015 0.12279
v -0.0552350022 -0.0276000015 0.12296
v -0.055075 -0.0297100022 0.122875005
v -0.05558 -0.0297100022 0.12296
v -0.05558 -0.0297100022 0.12279
v -0.05457 -0.0297100022 0.12279
v -0.05457 -0.0297100022 0.12296
v -0.05558 -0.0294550024 0.122875005
v -0.05558 -0.0292000026 0.12296
v -0.05558 -0.0292000026 0.12279
v -0.05558 -0.0297100022 0.12279
v -0.05558 -0.0297100022 0.12296
v -0.0556600019 -0.0277049989 0.122875005
v -0.0557400025 -0.02621 0.12296
v -0.0557400025 -0.02621 0.12279
v -0.05558 -0.0292000026 0.12279
v -0.05558 -0.0292000026 0.12296
v -0.0558550023 -0.02621 0.122875005
v -0.055970002 -0.02621 0.12296
v -0.055970002 -0.02621 0.12279
v -0.0557400025 -0.02621 0.12279
v -0.0557400025 -0.02621 0.12296
v -0.055970002 -0.02848 0.122875005
v -0.055970002 -0.0307500027 0.12296
v -0.055970002 -0.0307500027 0.12279
v -0.055970002 -0.02621 0.12279
v -0.055970002 -0.02621 0.12296
v -0.055765003 -0.0307500027 0.122875005
v -0.05556 -0.0307500027 0.12296
v -0.05556 -0.0307500027 0.12279
v -0.055970002 -0.0307500027 0.12279
v -0.055970002 -0.0307500027 0.12296
v -0.05556 -0.031025 0.122875005
v -0.05556 -0.0313 0.12296
v -0.05556 -0.0313 0.12279
v -0.05556 -0.0307500027 0.12279
v -0.05556 -0.0307500027 0.12296
v -0.06605001 -0.03165 0.12206
v -0.06605001 -0.0353 0.12246
v -0.06605001 -0.0353 0.12166
v -0.06605001 -0.028 0.12166
v -0.06605001 -0.028 0.12246
v -0.0557900034 -0.0360000022 0.12166
v -0.0557900034 -0.032 0.12206
v -0.0557900034 -0.028 0.12166
v -0.05579 -0.0360000022 0.12246
v -0.0557900034 -0.028 0.12246
v -0.06628001 -0.0353 0.12296
v -0.06628001 -0.03051 0.122310005
v -0.06628001 -0.0353 0.12166
v -0.06628001 -0.02572 0.12296
v -0.06628001 -0.02572 0.12166
f 1 2 3
f 1 3 4
f 5 1 4
f 5 4 6
f 7 5 6
f 5 7 8
f 9 10 11
f 10 12 11
f 10 13 12
f 13 10 14
f 10 15 14
f 16 17 18
f 17 19 18
f 18 19 20
f 19 21 20
f 19 22 21
f 17 23 19
f 23 17 24
f 23 24 25
f 26 23 25
f 26 25 27
f 26 27 28
f 29 26 28
f 25 30 27
f 25 31 30
f 31 25 32
f 25 33 32
f 25 34 33
f 34 25 35
f 25 36 35
f 25 37 36
f 37 25 38
f 25 39 38
f 39 40 38
f 39 41 40
f 41 39 42
f 39 43 42
f 39 44 43
f 44 39 45
f 39 46 45
f 39 47 46
f 47 39 48
f 39 49 48
f 50 22 51
f 22 52 51
f 22 53 52
f 22 19 53
f 19 54 53
f 19 55 54
f 55 56 54
f 55 57 56
f 57 55 58
f 55 59 58
f 55 60 59
f 60 55 61
f 55 62 61
f 55 63 62
f 63 55 64
f 65 66 67
f 66 68 67
f 66 69 68
f 69 66 70
f 69 71 68
f 69 70 72
f 72 70 73
f 70 74 73
f 75 69 72
f 69 75 71
f 75 76 71
f 76 77 71
f 78 79 80
f 79 81 80
f 79 82 81
f 82 83 81
f 82 84 83
f 84 85 83
f 86 81 83
f 81 86 87
f 86 88 87
f 88 89 87
f 81 87 90
f 80 81 90
f 80 90 91
f 92 80 91
f 93 94 95
f 96 93 95
f 96 95 97
f 93 96 98
f 99 96 97
f 96 99 100
f 96 100 101
f 102 96 101
f 96 103 98
f 96 102 103
f 102 104 103
f 104 105 103
f 105 106 103
f 106 107 103
f 108 109 110
f 108 110 111
f 112 108 111
f 112 111 113
f 114 112 113
f 115 113 111
f 114 113 116
f 116 113 115
f 117 114 116
f 118 116 115
f 117 116 119
f 119 116 118
f 120 117 119
f 121 119 118
f 120 119 122
f 122 119 121
f 123 120 122
f 124 122 121
f 123 122 125
f 125 122 124
f 126 123 125
f 127 125 124
f 126 125 128
f 128 125 127
f 129 126 128
f 130 128 127
f 131 129 128
f 131 128 130
f 129 131 132
f 133 131 130
f 132 131 134
f 131 133 135
f 131 135 134
f 136 137 138
f 137 139 138
f 137 140 139
f 140 141 139
f 140 142 141
f 143 142 140
f 142 144 141
f 142 143 144
f 145 146 147
f 145 147 148
f 149 145 148
f 149 148 150
f 151 149 150
f 149 151 152
f 151 150 153
f 151 153 152
f 154 155 156
f 155 157 156
f 155 158 157
f 158 155 159
f 158 160 157
f 158 159 161
f 161 159 162
f 163 161 162
f 164 158 161
f 158 164 165
f 164 166 165
f 166 167 165
f 158 165 168
f 169 158 168
f 170 169 168
f 170 168 171
f 172 170 171
f 169 170 173
f 169 173 174
f 174 173 175
f 176 174 175
f 177 169 174
f 169 177 178
f 177 179 178
f 179 180 178
f 169 178 181
f 182 169 181
f 182 181 183
f 181 184 183
f 182 183 185
f 186 182 185
f 186 185 187
f 188 186 187
f 186 188 189
f 186 189 190
f 191 186 190
f 186 191 192
f 186 192 193
f 194 186 193
f 194 193 195
f 196 197 160
f 198 196 160
f 158 198 160
f 198 158 199
f 158 200 199
f 200 201 199
f 202 203 204
f 205 202 204
f 206 205 204
f 207 206 204
f 208 207 204
f 209 208 204
f 210 209 204
f 211 210 204
f 211 204 212
f 213 211 212
f 211 213 214
f 213 212 215
f 214 213 215
f 214 215 216
f 217 214 216
f 215 212 218
f 212 219 218
f 217 216 220
f 216 221 220
f 216 222 221
f 222 216 223
f 216 224 223
f 216 225 224
f 225 216 226
f 227 228 229
f 230 227 229
f 227 230 231
f 227 231 232
f 233 227 232
f 227 233 234
f 227 234 235
f 236 227 235
f 227 236 237
f 236 238 237
f 236 235 239
f 236 239 240
f 238 236 240
f 241 237 238
f 237 241 242
f 237 242 243
f 244 237 243
f 237 244 245
f 237 245 246
f 247 237 246
f 248 249 250
f 248 250 251
f 252 248 251
f 251 253 252
f 253 254 252
f 253 255 254
f 255 253 256
f 253 257 256
f 253 258 257
f 258 253 259
f 253 260 259
f 253 261 260
f 261 262 260
f 261 263 262
f 263 261 264
f 248 252 265
f 252 266 265
f 252 267 266
f 266 268 265
f 268 269 265
f 268 270 269
f 268 266 271
f 266 272 271
f 266 273 272
f 271 272 274
f 272 275 274
f 266 276 273
f 276 277 273
f 276 278 277
f 276 266 279
f 266 280 279
f 279 280 281
f 280 282 281
f 266 283 280
f 266 284 283
f 284 285 283
f 284 286 285
f 284 266 287
f 267 287 266
f 267 288 287
f 288 289 287
f 288 290 289
f 288 267 291
f 267 292 291
f 292 293 291
f 294 295 296
f 294 296 297
f 298 294 297
f 294 298 299
f 298 300 299
f 300 301 299
f 300 302 301
f 303 304 305
f 306 303 305
f 303 306 307
f 303 307 308
f 309 303 308
f 303 309 310
f 303 310 311
f 312 303 311
f 303 312 313
f 312 314 313
f 312 311 315
f 312 315 316
f 314 312 316
f 317 313 314
f 313 317 318
f 313 318 319
f 320 313 319
f 313 320 321
f 313 321 322
f 323 313 322
f 324 325 326
f 324 326 327
f 325 324 328
f 328 324 327
f 329 330 331
f 329 331 332
f 330 329 333
f 333 329 332
f 334 335 336
f 334 336 337
f 335 334 338
f 338 334 337
f 339 340 341
f 339 341 342
f 340 339 343
f 343 339 342
f 344 345 346
f 344 346 347
f 345 344 348
f 348 344 347
f 349 350 351
f 349 351 352
f 350 349 353
f 353 349 352
f 354 355 356
f 354 356 357
f 355 354 358
f 358 354 357
f 359 360 361
f 359 361 362
f 360 359 363
f 363 359 362
f 364 365 366
f 364 366 367
f 365 364 368
f 368 364 367
f 369 370 371
f 369 371 372
f 370 369 373
f 373 369 372
f 374 375 376
f 374 376 377
f 375 374 378
f 378 374 377
f 379 380 381
f 379 381 382
f 380 379 383
f 383 379 382
f 384 385 386
f 384 386 387
f 385 384 388
f 388 384 387
f 389 390 391
f 389 391 392
f 390 389 393
f 393 389 392
f 394 395 396
f 394 396 397
f 395 394 398
f 398 394 397
f 399 400 401
f 399 401 402
f 400 399 403
f 403 399 402
f 404 405 406
f 404 406 407
f 405 404 408
f 408 404 407
f 409 410 411
f 409 411 412
f 410 409 413
f 413 409 412
f 414 415 416
f 414 416 417
f 415 414 418
f 418 414 417
f 419 420 421
f 419 421 422
f 420 419 423
f 423 419 422
f 424 425 426
f 424 426 427
f 425 424 428
f 428 424 427
f 429 430 431
f 429 431 432
f 430 429 433
f 433 429 432
f 434 435 436
f 434 436 437
f 435 434 438
f 438 434 437
f 439 440 441
f 439 441 442
f 440 439 443
f 443 439 442
f 444 445 446
f 444 446 447
f 445 444 448
f 448 444 447
f 449 450 451
f 449 451 452
f 450 449 453
f 453 449 452
f 454 455 456
f 454 456 457
f 455 454 458
f 458 454 457
f 459 460 461
f 459 461 462
f 460 459 463
f 463 459 462
f 464 465 466
f 464 466 467
f 465 464 468
f 468 464 467
f 469 470 471
f 469 471 472
f 470 469 473
f 473 469 472
f 474 475 476
f 474 476 477
f 475 474 478
f 478 474 477
f 479 480 481
f 479 481 482
f 480 479 483
f 483 479 482
f 484 485 486
f 484 486 487
f 485 484 488
f 488 484 487
f 489 490 491
f 489 491 492
f 490 489 493
f 493 489 492
f 494 495 496
f 494 496 497
f 495 494 498
f 498 494 497
f 499 500 501
f 499 501 502
f 500 499 503
f 503 499 502
f 504 505 506
f 504 507 505
f 507 504 508
f 504 509 508
f 510 504 506
f 504 510 509
f 510 506 511
f 510 512 509
f 513 510 511
f 510 513 512
f 513 511 514
f 513 515 512
f 516 513 514
f 513 516 515
f 516 514 517
f 516 518 515
f 519 516 517
f 516 519 518
f 519 517 520
f 519 521 518
f 522 519 520
f 519 522 521
f 522 520 523
f 522 524 521
f 525 522 523
f 522 525 524
f 525 523 526
f 525 527 524
f 528 525 526
f 525 528 527
f 529 530 531
f 529 532 530
f 532 529 533
f 529 534 533
f 535 529 531
f 529 535 534
f 535 531 536
f 535 537 534
f 538 535 536
f 535 538 537
f 538 536 539
f 538 540 537
f 541 538 539
f 538 541 540
f 541 539 542
f 541 543 540
f 544 541 542
f 541 544 543
f 544 542 545
f 544 546 543
f 547 544 545
f 544 547 546
f 547 545 548
f 547 549 546
f 550 547 548
f 547 550 549
f 550 548 551
f 550 552 549
f 553 550 551
f 550 553 552
f 554 555 556
f 555 554 557
f 555 558 556
f 555 557 559
f 558 555 559
f 560 561 562
f 560 563 561
f 563 560 564
f 560 565 564
f 566 560 562
f 560 566 565
f 566 562 567
f 566 568 565
f 569 566 567
f 566 569 568
f 569 567 570
f 569 571 568
f 572 569 570
f 569 572 571
f 572 570 573
f 572 574 571
f 575 572 573
f 572 575 574
f 575 573 576
f 575 577 574
f 578 575 576
f 575 578 577
f 578 576 579
f 578 580 577
f 581 578 579
f 578 581 580
f 581 579 582
f 581 583 580
f 584 581 582
f 581 584 583
f 585 586 587
f 585 587 588
f 586 585 589
f 589 585 588
f 590 591 592
f 590 592 593
f 591 590 594
f 594 590 593
f 595 596 597
f 595 597 598
f 596 595 599
f 599 595 598
f 600 601 602
f 600 602 603
f 601 600 604
f 604 600 603
f 605 606 607
f 605 607 608
f 606 605 609
f 609 605 608
f 610 611 612
f 610 612 613
f 611 610 614
f 614 610 613
f 615 616 617
f 615 617 618
f 616 615 619
f 619 615 618
f 620 621 622
f 620 622 623
f 621 620 624
f 624 620 623
f 625 626 627
f 625 627 628
f 626 625 629
f 629 625 628
f 630 631 632
f 630 632 633
f 631 630 634
f 634 630 633
f 635 636 637
f 635 637 638
f 636 635 639
f 639 635 638
f 640 641 642
f 640 643 641
f 643 640 644
f 640 645 644
f 646 640 642
f 640 646 645
f 646 642 647
f 646 648 645
f 649 646 647
f 646 649 648
f 649 647 650
f 649 651 648
f 652 649 650
f 649 652 651
f 652 650 653
f 652 654 651
f 655 652 653
f 652 655 654
f 655 653 656
f 655 657 654
f 658 655 656
f 655 658 657
f 658 656 659
f 658 660 657
f 661 658 659
f 658 661 660
f 661 659 662
f 661 663 660
f 664 661 662
f 661 664 663
f 665 666 667
f 665 667 668
f 666 665 669
f 669 665 668
f 670 671 672
f 670 673 671
f 673 670 674
f 670 675 674
f 676 670 672
f 670 676 675
f 676 672 677
f 676 678 675
f 679 676 677
f 676 679 678
f 679 677 680
f 679 681 678
f 682 679 680
f 679 682 681
f 682 680 683
f 682 684 681
f 685 682 683
f 682 685 684
f 685 683 686
f 685 687 684
f 688 685 686
f 685 688 687
f 688 686 689
f 688 690 687
f 691 688 689
f 688 691 690
f 691 689 692
f 691 693 690
f 694 691 692
f 691 694 693
f 695 696 697
f 695 697 698
f 696 695 699
f 699 695 698
f 700 701 702
f 700 702 703
f 701 700 704
f 704 700 703
f 705 706 707
f 705 707 708
f 706 705 709
f 709 705 708
f 710 711 712
f 710 712 713
f 711 710 714
f 714 710 713
f 715 716 717
f 715 717 718
f 716 715 719
f 719 715 718
f 720 721 722
f 720 722 723
f 721 720 724
f 724 720 723
f 725 726 727
f 725 727 728
f 726 725 729
f 729 725 728
f 730 731 732
f 730 732 733
f 731 730 734
f 734 730 733
f 735 736 737
f 735 737 738
f 736 735 739
f 739 735 738
f 740 741 742
f 743 741 740
f 741 744 742
f 741 743 744
f 745 746 747
f 748 746 745
f 746 749 747
f 746 748 749
