# ROS coordinates: X forward, Y left, Z up; units are metres.
o mesh
v 0.15601024 -0.0385 0.154879034
v 0.156432018 -0.0385 0.154722959
v 0.15601024 -0.0345000029 0.154879034
v 0.156432018 -0.0345000029 0.154722959
v 0.156732216 -0.0365000032 0.154584408
v 0.156851441 -0.0385 0.1545225
v 0.156851441 -0.0345000029 0.1545225
v 0.157261938 -0.0385 0.154276282
v 0.157261938 -0.0345000029 0.154276282
v 0.157433391 -0.0365000032 0.154156685
v 0.157656446 -0.0385 0.153984249
v 0.157656446 -0.0345000029 0.153984249
v 0.15776518 -0.0365000032 0.153892532
v 0.158027589 -0.0385 0.153647721
v 0.158027589 -0.0345000029 0.153647721
v 0.1580783 -0.0365000032 0.153596163
v 0.158368215 -0.0385 0.153269619
v 0.158368215 -0.0345000029 0.153269619
v 0.158368215 -0.0365000032 0.153269619
v 0.158630773 -0.0365000032 0.152915716
v 0.1586716 -0.0385 0.152854308
v 0.1586716 -0.0345000029 0.152854308
v 0.1588623 -0.0365000032 0.152538031
v 0.158932 -0.0385 0.152407587
v 0.158932 -0.0345000029 0.152407587
v 0.159059674 -0.0365000032 0.152140826
v 0.159144849 -0.0385 0.151936352
v 0.159144849 -0.0345000029 0.151936352
v 0.15922071 -0.0365000032 0.151728779
v 0.159307182 -0.0385 0.151448309
v 0.159307182 -0.0345000029 0.151448309
v 0.159344047 -0.0365000032 0.151306912
v 0.1594176 -0.0385 0.150951535
v 0.1594176 -0.0345000029 0.150951535
v 0.159429133 -0.0365000032 0.1508803
v 0.159476414 -0.0385 0.150454
v 0.159476414 -0.0345000029 0.150454
v 0.159476414 -0.0365000032 0.150454
v 0.159485489 -0.0385 0.14996326
v 0.159485489 -0.0345000029 0.14996326
v 0.1594632 -0.0365000032 0.149620652
v 0.159447923 -0.0385 0.14948605
v 0.159447923 -0.0345000029 0.14948605
v 0.159381792 -0.0365000032 0.149092168
v 0.159367934 -0.0385 0.149028122
v 0.159250408 -0.0365000032 0.148594022
v 0.159367934 -0.0345000029 0.149028122
v 0.159250408 -0.0385 0.148594022
v 0.159250408 -0.0345000029 0.148594022
v 0.159094349 -0.0385 0.14817223
v 0.159094349 -0.0345000029 0.14817223
v 0.15906848 -0.0365000032 0.148112029
v 0.158893883 -0.0385 0.147752821
v 0.158893883 -0.0345000029 0.147752821
v 0.158828229 -0.0365000032 0.147634327
v 0.158647656 -0.0385 0.147342324
v 0.158647656 -0.0345000029 0.147342324
v 0.158528075 -0.0365000032 0.147170857
v 0.158355623 -0.0385 0.146947831
v 0.158355623 -0.0345000029 0.146947831
v 0.158168644 -0.0365000032 0.1467324
v 0.1580191 -0.0385 0.146576673
v 0.1580191 -0.0345000029 0.146576673
v 0.157753065 -0.0365000032 0.14632985
v 0.157641008 -0.0385 0.146236047
v 0.157641008 -0.0345000029 0.146236047
v 0.1572871 -0.0365000032 0.145973489
v 0.1572257 -0.0385 0.145932645
v 0.156778961 -0.0365000032 0.145672277
v 0.1572257 -0.0345000029 0.145932645
v 0.156778961 -0.0385 0.145672277
v 0.156778961 -0.0345000029 0.145672277
v 0.156307742 -0.0385 0.145459414
v 0.156307742 -0.0345000029 0.145459414
v 0.156238854 -0.0365000032 0.145433083
v 0.1558197 -0.0385 0.1452971
v 0.1558197 -0.0345000029 0.1452971
v 0.1556783 -0.0365000032 0.14526023
v 0.155322909 -0.0385 0.145186663
v 0.155322909 -0.0345000029 0.145186663
v 0.155109316 -0.0365000032 0.145155221
v 0.154825389 -0.0385 0.145127848
v 0.154825389 -0.0345000029 0.145127848
v 0.154543668 -0.0365000032 0.145116761
v 0.154334635 -0.0385 0.145118788
v 0.154334635 -0.0345000029 0.145118788
v 0.153992042 -0.0365000032 0.14514108
v 0.15385744 -0.0385 0.145156354
v 0.15385744 -0.0345000029 0.145156354
v 0.153463542 -0.0365000032 0.145222485
v 0.1533995 -0.0385 0.145236313
v 0.1533995 -0.0345000029 0.145236313
v 0.1529654 -0.0385 0.145353854
v 0.1529654 -0.0345000029 0.145353854
v 0.152543619 -0.0385 0.145509914
v 0.152543619 -0.0345000029 0.145509914
v 0.15224342 -0.0365000032 0.145648479
v 0.1521242 -0.0385 0.1457104
v 0.1521242 -0.0345000029 0.1457104
v 0.1517137 -0.0385 0.1459566
v 0.1517137 -0.0345000029 0.1459566
v 0.151542246 -0.0365000032 0.146076187
v 0.151319221 -0.0385 0.146248639
v 0.151319221 -0.0345000029 0.146248639
v 0.151210457 -0.0365000032 0.14634034
v 0.150948048 -0.0385 0.146585137
v 0.150948048 -0.0345000029 0.146585137
v 0.150897354 -0.0365000032 0.1466367
v 0.150607437 -0.0385 0.146963269
v 0.150607437 -0.0345000029 0.146963269
v 0.150607437 -0.0365000032 0.146963269
v 0.150344864 -0.0365000032 0.147317171
v 0.150304034 -0.0385 0.147378579
v 0.150304034 -0.0345000029 0.147378579
v 0.150113374 -0.0365000032 0.147694841
v 0.150043651 -0.0385 0.1478253
v 0.150043651 -0.0345000029 0.1478253
v 0.149915978 -0.0365000032 0.148092046
v 0.149830788 -0.0385 0.14829652
v 0.149830788 -0.0345000029 0.14829652
v 0.149754912 -0.0365000032 0.1485041
v 0.14966847 -0.0385 0.148784563
v 0.14966847 -0.0345000029 0.148784563
v 0.149631619 -0.0365000032 0.14892596
v 0.149558052 -0.0385 0.149281353
v 0.149558052 -0.0345000029 0.149281353
v 0.149546519 -0.0365000032 0.149352565
v 0.149499238 -0.0385 0.149778888
v 0.149499238 -0.0345000029 0.149778888
v 0.149499238 -0.0365000032 0.149778888
v 0.149490178 -0.0385 0.150269628
v 0.149490178 -0.0345000029 0.150269628
v 0.14951247 -0.0365000032 0.150612235
v 0.149527729 -0.0385 0.150746837
v 0.149527729 -0.0345000029 0.150746837
v 0.14959386 -0.0365000032 0.15114072
v 0.1496077 -0.0385 0.151204765
v 0.149725243 -0.0365000032 0.151638851
v 0.1496077 -0.0345000029 0.151204765
v 0.149725243 -0.0385 0.151638851
v 0.149725243 -0.0345000029 0.151638851
v 0.1498813 -0.0385 0.152060643
v 0.1498813 -0.0345000029 0.152060643
v 0.149907187 -0.0365000032 0.152120858
v 0.150081784 -0.0385 0.152480066
v 0.150081784 -0.0345000029 0.152480066
v 0.150147423 -0.0365000032 0.15259856
v 0.150328 -0.0385 0.152890548
v 0.150328 -0.0345000029 0.152890548
v 0.150447577 -0.0365000032 0.153062016
v 0.150620013 -0.0385 0.153285056
v 0.150620013 -0.0345000029 0.153285056
v 0.150807023 -0.0365000032 0.153500468
v 0.150956526 -0.0385 0.153656214
v 0.150956526 -0.0345000029 0.153656214
v 0.1512226 -0.0365000032 0.153903037
v 0.151334643 -0.0385 0.153996825
v 0.151334643 -0.0345000029 0.153996825
v 0.151688561 -0.0365000032 0.154259384
v 0.151749954 -0.0385 0.154300228
v 0.152196676 -0.0365000032 0.154560611
v 0.151749954 -0.0345000029 0.154300228
v 0.152196676 -0.0385 0.154560611
v 0.152196676 -0.0345000029 0.154560611
v 0.15266791 -0.0385 0.154773474
v 0.15266791 -0.0345000029 0.154773474
v 0.152736783 -0.0365000032 0.1547998
v 0.153155953 -0.0385 0.154935777
v 0.153155953 -0.0345000029 0.154935777
v 0.15329735 -0.0365000032 0.154972643
v 0.153652743 -0.0385 0.15504621
v 0.153652743 -0.0345000029 0.15504621
v 0.153866321 -0.0365000032 0.155077666
v 0.154150277 -0.0385 0.155105025
v 0.154150277 -0.0345000029 0.155105025
v 0.154431984 -0.0365000032 0.155116126
v 0.154641017 -0.0385 0.1551141
v 0.154641017 -0.0345000029 0.1551141
v 0.15498361 -0.0365000032 0.155091792
v 0.155118227 -0.0385 0.155076548
v 0.155118227 -0.0345000029 0.155076548
v 0.1555121 -0.0365000032 0.1550104
v 0.155576155 -0.0385 0.154996544
v 0.155576155 -0.0345000029 0.154996544
v 0.15601024 -0.0385 0.154879034
v 0.15601024 -0.0345000029 0.154879034
v 0.154944554 -0.0345000029 0.151545227
v 0.154944554 -0.0385 0.151545227
v 0.154676944 -0.0385 0.151604474
v 0.154636562 -0.0365000032 0.151609048
v 0.154676944 -0.0345000029 0.151604474
v 0.15438655 -0.0385 0.151613012
v 0.15438655 -0.0345000029 0.151613012
v 0.154301375 -0.0365000032 0.151604816
v 0.154088274 -0.0385 0.151562244
v 0.154088274 -0.0345000029 0.151562244
v 0.153962508 -0.0365000032 0.151521444
v 0.153800488 -0.0385 0.15144968
v 0.153800488 -0.0345000029 0.15144968
v 0.153648049 -0.0365000032 0.15135932
v 0.153541878 -0.0385 0.151280567
v 0.153541878 -0.0345000029 0.151280567
v 0.153383583 -0.0365000032 0.151131645
v 0.15332748 -0.0385 0.151067019
v 0.15332748 -0.0345000029 0.151067019
v 0.15318571 -0.0365000032 0.150861084
v 0.153166011 -0.0385 0.15082553
v 0.15305905 -0.0365000032 0.150573164
v 0.153166011 -0.0345000029 0.15082553
v 0.15305905 -0.0385 0.150573164
v 0.15305905 -0.0345000029 0.150573164
v 0.152999789 -0.0385 0.150305554
v 0.152999789 -0.0345000029 0.150305554
v 0.152995214 -0.0365000032 0.150265172
v 0.15299125 -0.0385 0.150015175
v 0.15299125 -0.0345000029 0.150015175
v 0.15299125 -0.0365000032 0.150015175
v 0.153030962 -0.0365000032 0.1497593
v 0.153042018 -0.0385 0.149716884
v 0.153042018 -0.0345000029 0.149716884
v 0.153116271 -0.0365000032 0.149509132
v 0.153154567 -0.0385 0.1494291
v 0.153154567 -0.0345000029 0.1494291
v 0.153244942 -0.0365000032 0.149276659
v 0.15332371 -0.0385 0.149170488
v 0.15332371 -0.0345000029 0.149170488
v 0.153410673 -0.0365000032 0.149072528
v 0.153537244 -0.0385 0.14895609
v 0.153537244 -0.0345000029 0.14895609
v 0.15360415 -0.0365000032 0.148904368
v 0.153778747 -0.0385 0.148794621
v 0.153778747 -0.0345000029 0.148794621
v 0.15381451 -0.0365000032 0.148776054
v 0.1540311 -0.0385 0.148687676
v 0.1540311 -0.0345000029 0.148687676
v 0.154298708 -0.0385 0.148628414
v 0.15433909 -0.0365000032 0.148623839
v 0.154298708 -0.0345000029 0.148628414
v 0.154589087 -0.0385 0.14861986
v 0.154589087 -0.0345000029 0.14861986
v 0.154674262 -0.0365000032 0.148628071
v 0.1548874 -0.0385 0.148670644
v 0.1548874 -0.0345000029 0.148670644
v 0.155013144 -0.0365000032 0.148711428
v 0.155175164 -0.0385 0.148783192
v 0.155175164 -0.0345000029 0.148783192
v 0.1553276 -0.0365000032 0.148873553
v 0.155433774 -0.0385 0.14895232
v 0.155433774 -0.0345000029 0.14895232
v 0.155592069 -0.0365000032 0.149101228
v 0.155648157 -0.0385 0.149165854
v 0.155648157 -0.0345000029 0.149165854
v 0.155789942 -0.0365000032 0.1493718
v 0.155809641 -0.0385 0.149407357
v 0.1559166 -0.0365000032 0.149659723
v 0.155809641 -0.0345000029 0.149407357
v 0.1559166 -0.0385 0.149659723
v 0.1559166 -0.0345000029 0.149659723
v 0.155975848 -0.0385 0.149927318
v 0.155975848 -0.0345000029 0.149927318
v 0.155980423 -0.0365000032 0.1499677
v 0.1559844 -0.0385 0.1502177
v 0.1559844 -0.0345000029 0.1502177
v 0.1559844 -0.0365000032 0.1502177
v 0.15594469 -0.0365000032 0.15047358
v 0.155933633 -0.0385 0.150516
v 0.155933633 -0.0345000029 0.150516
v 0.155859381 -0.0365000032 0.15072377
v 0.15582107 -0.0385 0.150803789
v 0.15582107 -0.0345000029 0.150803789
v 0.155730709 -0.0365000032 0.150956228
v 0.155651942 -0.0385 0.1510624
v 0.155651942 -0.0345000029 0.1510624
v 0.155564964 -0.0365000032 0.151160359
v 0.155438408 -0.0385 0.151276767
v 0.155438408 -0.0345000029 0.151276767
v 0.155371487 -0.0365000032 0.1513285
v 0.15519692 -0.0385 0.151438251
v 0.15519692 -0.0345000029 0.151438251
v 0.155161142 -0.0365000032 0.151456833
v 0.154944554 -0.0385 0.151545227
v 0.154944554 -0.0345000029 0.151545227
v 0.153778747 -0.0345000029 0.148794621
v 0.1521242 -0.0345000029 0.1457104
v 0.1517137 -0.0345000029 0.1459566
v 0.152543619 -0.0345000029 0.145509914
v 0.153537244 -0.0345000029 0.14895609
v 0.151319221 -0.0345000029 0.146248639
v 0.150948048 -0.0345000029 0.146585137
v 0.1540311 -0.0345000029 0.148687676
v 0.1529654 -0.0345000029 0.145353854
v 0.1533995 -0.0345000029 0.145236313
v 0.15332371 -0.0345000029 0.149170488
v 0.150607437 -0.0345000029 0.146963269
v 0.150304034 -0.0345000029 0.147378579
v 0.154298708 -0.0345000029 0.148628414
v 0.15385744 -0.0345000029 0.145156354
v 0.154334635 -0.0345000029 0.145118788
v 0.153154567 -0.0345000029 0.1494291
v 0.150043651 -0.0345000029 0.1478253
v 0.149830788 -0.0345000029 0.14829652
v 0.154589087 -0.0345000029 0.14861986
v 0.154825389 -0.0345000029 0.145127848
v 0.155322909 -0.0345000029 0.145186663
v 0.153042018 -0.0345000029 0.149716884
v 0.14966847 -0.0345000029 0.148784563
v 0.149558052 -0.0345000029 0.149281353
v 0.1548874 -0.0345000029 0.148670644
v 0.1558197 -0.0345000029 0.1452971
v 0.156307742 -0.0345000029 0.145459414
v 0.15299125 -0.0345000029 0.150015175
v 0.149499238 -0.0345000029 0.149778888
v 0.149490178 -0.0345000029 0.150269628
v 0.155175164 -0.0345000029 0.148783192
v 0.156778961 -0.0345000029 0.145672277
v 0.1572257 -0.0345000029 0.145932645
v 0.152999789 -0.0345000029 0.150305554
v 0.149527729 -0.0345000029 0.150746837
v 0.1496077 -0.0345000029 0.151204765
v 0.155433774 -0.0345000029 0.14895232
v 0.157641008 -0.0345000029 0.146236047
v 0.1580191 -0.0345000029 0.146576673
v 0.15305905 -0.0345000029 0.150573164
v 0.149725243 -0.0345000029 0.151638851
v 0.1498813 -0.0345000029 0.152060643
v 0.155648157 -0.0345000029 0.149165854
v 0.158355623 -0.0345000029 0.146947831
v 0.158647656 -0.0345000029 0.147342324
v 0.153166011 -0.0345000029 0.15082553
v 0.150081784 -0.0345000029 0.152480066
v 0.150328 -0.0345000029 0.152890548
v 0.155809641 -0.0345000029 0.149407357
v 0.158893883 -0.0345000029 0.147752821
v 0.159094349 -0.0345000029 0.14817223
v 0.15332748 -0.0345000029 0.151067019
v 0.150620013 -0.0345000029 0.153285056
v 0.150956526 -0.0345000029 0.153656214
v 0.1559166 -0.0345000029 0.149659723
v 0.153541878 -0.0345000029 0.151280567
v 0.151334643 -0.0345000029 0.153996825
v 0.151749954 -0.0345000029 0.154300228
v 0.159250408 -0.0345000029 0.148594022
v 0.153800488 -0.0345000029 0.15144968
v 0.152196676 -0.0345000029 0.154560611
v 0.15266791 -0.0345000029 0.154773474
v 0.159367934 -0.0345000029 0.149028122
v 0.154088274 -0.0345000029 0.151562244
v 0.153155953 -0.0345000029 0.154935777
v 0.153652743 -0.0345000029 0.15504621
v 0.159447923 -0.0345000029 0.14948605
v 0.159485489 -0.0345000029 0.14996326
v 0.159476414 -0.0345000029 0.150454
v 0.1594176 -0.0345000029 0.150951535
v 0.159307182 -0.0345000029 0.151448309
v 0.15438655 -0.0345000029 0.151613012
v 0.154150277 -0.0345000029 0.155105025
v 0.154641017 -0.0345000029 0.1551141
v 0.159144849 -0.0345000029 0.151936352
v 0.154676944 -0.0345000029 0.151604474
v 0.155118227 -0.0345000029 0.155076548
v 0.155576155 -0.0345000029 0.154996544
v 0.158932 -0.0345000029 0.152407587
v 0.154944554 -0.0345000029 0.151545227
v 0.15601024 -0.0345000029 0.154879034
v 0.156432018 -0.0345000029 0.154722959
v 0.1586716 -0.0345000029 0.152854308
v 0.15519692 -0.0345000029 0.151438251
v 0.156851441 -0.0345000029 0.1545225
v 0.157261938 -0.0345000029 0.154276282
v 0.155438408 -0.0345000029 0.151276767
v 0.157656446 -0.0345000029 0.153984249
v 0.158368215 -0.0345000029 0.153269619
v 0.158027589 -0.0345000029 0.153647721
v 0.155651942 -0.0345000029 0.1510624
v 0.155975848 -0.0345000029 0.149927318
v 0.15582107 -0.0345000029 0.150803789
v 0.1559844 -0.0345000029 0.1502177
v 0.155933633 -0.0345000029 0.150516
v 0.154676944 -0.0385 0.151604474
v 0.155118227 -0.0385 0.155076548
v 0.154641017 -0.0385 0.1551141
v 0.155576155 -0.0385 0.154996544
v 0.15438655 -0.0385 0.151613012
v 0.154150277 -0.0385 0.155105025
v 0.153652743 -0.0385 0.15504621
v 0.154944554 -0.0385 0.151545227
v 0.15601024 -0.0385 0.154879034
v 0.156432018 -0.0385 0.154722959
v 0.154088274 -0.0385 0.151562244
v 0.153155953 -0.0385 0.154935777
v 0.15266791 -0.0385 0.154773474
v 0.15519692 -0.0385 0.151438251
v 0.156851441 -0.0385 0.1545225
v 0.157261938 -0.0385 0.154276282
v 0.153800488 -0.0385 0.15144968
v 0.152196676 -0.0385 0.154560611
v 0.151749954 -0.0385 0.154300228
v 0.155438408 -0.0385 0.151276767
v 0.157656446 -0.0385 0.153984249
v 0.158027589 -0.0385 0.153647721
v 0.153541878 -0.0385 0.151280567
v 0.151334643 -0.0385 0.153996825
v 0.150956526 -0.0385 0.153656214
v 0.155651942 -0.0385 0.1510624
v 0.158368215 -0.0385 0.153269619
v 0.1586716 -0.0385 0.152854308
v 0.15332748 -0.0385 0.151067019
v 0.150620013 -0.0385 0.153285056
v 0.150328 -0.0385 0.152890548
v 0.15582107 -0.0385 0.150803789
v 0.158932 -0.0385 0.152407587
v 0.159144849 -0.0385 0.151936352
v 0.153166011 -0.0385 0.15082553
v 0.150081784 -0.0385 0.152480066
v 0.1498813 -0.0385 0.152060643
v 0.155933633 -0.0385 0.150516
v 0.159307182 -0.0385 0.151448309
v 0.1594176 -0.0385 0.150951535
v 0.15305905 -0.0385 0.150573164
v 0.149725243 -0.0385 0.151638851
v 0.1496077 -0.0385 0.151204765
v 0.1559844 -0.0385 0.1502177
v 0.159476414 -0.0385 0.150454
v 0.159485489 -0.0385 0.14996326
v 0.152999789 -0.0385 0.150305554
v 0.149527729 -0.0385 0.150746837
v 0.149490178 -0.0385 0.150269628
v 0.155975848 -0.0385 0.149927318
v 0.159447923 -0.0385 0.14948605
v 0.159367934 -0.0385 0.149028122
v 0.15299125 -0.0385 0.150015175
v 0.149499238 -0.0385 0.149778888
v 0.149558052 -0.0385 0.149281353
v 0.1559166 -0.0385 0.149659723
v 0.153042018 -0.0385 0.149716884
v 0.14966847 -0.0385 0.148784563
v 0.149830788 -0.0385 0.14829652
v 0.159250408 -0.0385 0.148594022
v 0.153154567 -0.0385 0.1494291
v 0.150043651 -0.0385 0.1478253
v 0.150304034 -0.0385 0.147378579
v 0.159094349 -0.0385 0.14817223
v 0.15332371 -0.0385 0.149170488
v 0.150607437 -0.0385 0.146963269
v 0.150948048 -0.0385 0.146585137
v 0.158893883 -0.0385 0.147752821
v 0.158647656 -0.0385 0.147342324
v 0.158355623 -0.0385 0.146947831
v 0.1580191 -0.0385 0.146576673
v 0.157641008 -0.0385 0.146236047
v 0.153537244 -0.0385 0.14895609
v 0.151319221 -0.0385 0.146248639
v 0.1517137 -0.0385 0.1459566
v 0.1572257 -0.0385 0.145932645
v 0.153778747 -0.0385 0.148794621
v 0.1521242 -0.0385 0.1457104
v 0.152543619 -0.0385 0.145509914
v 0.156778961 -0.0385 0.145672277
v 0.1540311 -0.0385 0.148687676
v 0.1529654 -0.0385 0.145353854
v 0.1533995 -0.0385 0.145236313
v 0.156307742 -0.0385 0.145459414
v 0.154298708 -0.0385 0.148628414
v 0.15385744 -0.0385 0.145156354
v 0.154334635 -0.0385 0.145118788
v 0.154589087 -0.0385 0.14861986
v 0.154825389 -0.0385 0.145127848
v 0.1558197 -0.0385 0.1452971
v 0.155322909 -0.0385 0.145186663
v 0.1548874 -0.0385 0.148670644
v 0.155809641 -0.0385 0.149407357
v 0.155175164 -0.0385 0.148783192
v 0.155648157 -0.0385 0.149165854
v 0.155433774 -0.0385 0.14895232
f 1 2 3
f 2 4 3
f 2 5 4
f 5 2 6
f 5 7 4
f 5 6 8
f 5 9 7
f 10 5 8
f 5 10 9
f 10 8 11
f 10 12 9
f 13 10 11
f 10 13 12
f 13 11 14
f 13 15 12
f 16 13 14
f 13 16 15
f 16 14 17
f 16 18 15
f 16 17 19
f 18 16 19
f 20 19 17
f 18 19 20
f 20 17 21
f 22 18 20
f 23 20 21
f 22 20 23
f 23 21 24
f 25 22 23
f 26 23 24
f 25 23 26
f 26 24 27
f 28 25 26
f 29 26 27
f 28 26 29
f 29 27 30
f 31 28 29
f 32 29 30
f 31 29 32
f 32 30 33
f 34 31 32
f 35 32 33
f 34 32 35
f 35 33 36
f 37 34 35
f 38 35 36
f 37 35 38
f 38 36 39
f 40 37 38
f 41 38 39
f 40 38 41
f 41 39 42
f 43 40 41
f 44 41 42
f 43 41 44
f 44 42 45
f 46 44 45
f 47 43 44
f 47 44 46
f 46 45 48
f 49 47 46
f 46 48 50
f 51 49 46
f 52 46 50
f 51 46 52
f 52 50 53
f 54 51 52
f 55 52 53
f 54 52 55
f 55 53 56
f 57 54 55
f 58 55 56
f 57 55 58
f 58 56 59
f 60 57 58
f 61 58 59
f 60 58 61
f 61 59 62
f 63 60 61
f 64 61 62
f 63 61 64
f 64 62 65
f 66 63 64
f 67 64 65
f 66 64 67
f 67 65 68
f 69 67 68
f 70 66 67
f 70 67 69
f 69 68 71
f 72 70 69
f 69 71 73
f 74 72 69
f 75 69 73
f 74 69 75
f 75 73 76
f 77 74 75
f 78 75 76
f 77 75 78
f 78 76 79
f 80 77 78
f 81 78 79
f 80 78 81
f 81 79 82
f 83 80 81
f 84 81 82
f 83 81 84
f 84 82 85
f 86 83 84
f 87 84 85
f 86 84 87
f 87 85 88
f 89 86 87
f 90 87 88
f 89 87 90
f 90 88 91
f 92 89 90
f 93 90 91
f 92 90 93
f 94 92 93
f 93 95 94
f 95 96 94
f 95 97 96
f 97 95 98
f 97 99 96
f 97 98 100
f 97 101 99
f 102 97 100
f 97 102 101
f 102 100 103
f 102 104 101
f 105 102 103
f 102 105 104
f 105 103 106
f 105 107 104
f 108 105 106
f 105 108 107
f 108 106 109
f 108 110 107
f 111 108 109
f 108 111 110
f 111 109 112
f 111 112 110
f 109 113 112
f 110 112 114
f 113 115 112
f 112 115 114
f 113 116 115
f 114 115 117
f 116 118 115
f 115 118 117
f 116 119 118
f 117 118 120
f 119 121 118
f 118 121 120
f 119 122 121
f 120 121 123
f 122 124 121
f 121 124 123
f 122 125 124
f 123 124 126
f 125 127 124
f 124 127 126
f 125 128 127
f 126 127 129
f 128 130 127
f 127 130 129
f 128 131 130
f 129 130 132
f 131 133 130
f 130 133 132
f 131 134 133
f 132 133 135
f 134 136 133
f 133 136 135
f 134 137 136
f 137 138 136
f 135 136 139
f 136 138 139
f 137 140 138
f 139 138 141
f 140 142 138
f 138 143 141
f 142 144 138
f 138 144 143
f 142 145 144
f 144 146 143
f 145 147 144
f 144 147 146
f 145 148 147
f 147 149 146
f 148 150 147
f 147 150 149
f 148 151 150
f 150 152 149
f 151 153 150
f 150 153 152
f 151 154 153
f 153 155 152
f 154 156 153
f 153 156 155
f 154 157 156
f 156 158 155
f 157 159 156
f 156 159 158
f 157 160 159
f 160 161 159
f 159 162 158
f 159 161 162
f 160 163 161
f 161 164 162
f 163 165 161
f 161 166 164
f 165 167 161
f 161 167 166
f 165 168 167
f 167 169 166
f 168 170 167
f 167 170 169
f 168 171 170
f 170 172 169
f 171 173 170
f 170 173 172
f 171 174 173
f 173 175 172
f 174 176 173
f 173 176 175
f 174 177 176
f 176 178 175
f 177 179 176
f 176 179 178
f 177 180 179
f 179 181 178
f 180 182 179
f 179 182 181
f 180 183 182
f 182 184 181
f 183 185 182
f 185 184 182
f 185 186 184
f 187 188 189
f 187 189 190
f 191 187 190
f 190 189 192
f 193 191 190
f 194 190 192
f 193 190 194
f 194 192 195
f 196 193 194
f 197 194 195
f 196 194 197
f 197 195 198
f 199 196 197
f 200 197 198
f 199 197 200
f 200 198 201
f 202 199 200
f 203 200 201
f 202 200 203
f 203 201 204
f 205 202 203
f 206 203 204
f 205 203 206
f 206 204 207
f 208 206 207
f 209 205 206
f 209 206 208
f 208 207 210
f 211 209 208
f 212 208 210
f 213 211 208
f 214 208 212
f 213 208 214
f 215 214 212
f 216 213 214
f 217 214 215
f 217 216 214
f 218 217 215
f 217 218 216
f 218 215 219
f 218 220 216
f 221 218 219
f 218 221 220
f 221 219 222
f 221 223 220
f 224 221 222
f 221 224 223
f 224 222 225
f 224 226 223
f 227 224 225
f 224 227 226
f 227 225 228
f 227 229 226
f 230 227 228
f 227 230 229
f 230 228 231
f 230 232 229
f 233 230 231
f 230 233 232
f 233 231 234
f 232 233 235
f 233 234 235
f 234 236 235
f 236 237 235
f 235 237 238
f 236 239 237
f 237 240 238
f 239 241 237
f 237 241 240
f 239 242 241
f 241 243 240
f 242 244 241
f 241 244 243
f 242 245 244
f 244 246 243
f 245 247 244
f 244 247 246
f 245 248 247
f 247 249 246
f 248 250 247
f 247 250 249
f 248 251 250
f 250 252 249
f 251 253 250
f 250 253 252
f 251 254 253
f 254 255 253
f 253 256 252
f 253 255 256
f 254 257 255
f 255 258 256
f 257 259 255
f 255 260 258
f 259 261 255
f 255 261 260
f 259 262 261
f 261 263 260
f 262 264 261
f 261 264 263
f 262 265 264
f 265 263 264
f 266 265 262
f 265 267 263
f 268 265 266
f 265 268 267
f 269 268 266
f 268 270 267
f 271 268 269
f 268 271 270
f 272 271 269
f 271 273 270
f 274 271 272
f 271 274 273
f 275 274 272
f 274 276 273
f 277 274 275
f 274 277 276
f 278 277 275
f 277 279 276
f 280 277 278
f 277 280 279
f 281 280 278
f 280 282 279
f 280 281 282
f 283 284 285
f 283 286 284
f 287 283 285
f 287 285 288
f 287 288 289
f 283 290 286
f 286 290 291
f 290 292 291
f 293 287 289
f 293 289 294
f 293 294 295
f 290 296 292
f 296 297 292
f 296 298 297
f 299 293 295
f 299 295 300
f 299 300 301
f 296 302 298
f 302 303 298
f 302 304 303
f 305 299 301
f 305 301 306
f 305 306 307
f 302 308 304
f 308 309 304
f 308 310 309
f 311 305 307
f 311 307 312
f 311 312 313
f 308 314 310
f 314 315 310
f 314 316 315
f 317 311 313
f 317 313 318
f 317 318 319
f 314 320 316
f 320 321 316
f 320 322 321
f 323 317 319
f 323 319 324
f 323 324 325
f 320 326 322
f 326 327 322
f 326 328 327
f 329 323 325
f 329 325 330
f 329 330 331
f 326 332 328
f 332 333 328
f 332 334 333
f 335 329 331
f 335 331 336
f 335 336 337
f 332 338 334
f 339 335 337
f 339 337 340
f 339 340 341
f 338 342 334
f 343 339 341
f 343 341 344
f 343 344 345
f 338 346 342
f 347 343 345
f 347 345 348
f 347 348 349
f 346 338 350
f 338 351 350
f 338 352 351
f 352 338 353
f 338 354 353
f 355 347 349
f 355 349 356
f 355 356 357
f 338 358 354
f 359 355 357
f 359 357 360
f 359 360 361
f 358 338 362
f 363 359 361
f 363 361 364
f 363 364 365
f 338 366 362
f 367 363 365
f 367 365 368
f 367 368 369
f 370 367 369
f 370 369 371
f 338 372 366
f 372 338 373
f 338 371 373
f 374 370 371
f 338 375 371
f 376 374 371
f 375 377 371
f 378 376 371
f 377 378 371
f 379 380 381
f 379 382 380
f 383 379 381
f 383 381 384
f 383 384 385
f 379 386 382
f 382 386 387
f 386 388 387
f 389 383 385
f 389 385 390
f 389 390 391
f 386 392 388
f 392 393 388
f 392 394 393
f 395 389 391
f 395 391 396
f 395 396 397
f 392 398 394
f 398 399 394
f 398 400 399
f 401 395 397
f 401 397 402
f 401 402 403
f 398 404 400
f 404 405 400
f 404 406 405
f 407 401 403
f 407 403 408
f 407 408 409
f 404 410 406
f 410 411 406
f 410 412 411
f 413 407 409
f 413 409 414
f 413 414 415
f 410 416 412
f 416 417 412
f 416 418 417
f 419 413 415
f 419 415 420
f 419 420 421
f 416 422 418
f 422 423 418
f 422 424 423
f 425 419 421
f 425 421 426
f 425 426 427
f 422 428 424
f 428 429 424
f 428 430 429
f 431 425 427
f 431 427 432
f 431 432 433
f 428 434 430
f 435 431 433
f 435 433 436
f 435 436 437
f 434 438 430
f 439 435 437
f 439 437 440
f 439 440 441
f 434 442 438
f 443 439 441
f 443 441 444
f 443 444 445
f 442 434 446
f 434 447 446
f 434 448 447
f 448 434 449
f 434 450 449
f 451 443 445
f 451 445 452
f 451 452 453
f 434 454 450
f 455 451 453
f 455 453 456
f 455 456 457
f 454 434 458
f 459 455 457
f 459 457 460
f 459 460 461
f 434 462 458
f 463 459 461
f 463 461 464
f 463 464 465
f 466 463 465
f 466 465 467
f 434 468 462
f 468 434 469
f 434 467 469
f 470 466 467
f 434 471 467
f 472 470 467
f 471 473 467
f 474 472 467
f 473 474 467
