# ROS coordinates: X forward, Y left, Z up; units are metres.
o mesh
v 0.154719621 0.035 0.188130453
v 0.154719621 0.00500000035 0.188130453
v 0.154684573 0.00500000035 0.188512579
v 0.154673457 0.0200000014 0.188568383
v 0.154684573 0.035 0.188512579
v 0.154572174 0.00500000035 0.188903451
v 0.154572174 0.035 0.188903451
v 0.154524922 0.0200000014 0.189013556
v 0.154377311 0.00500000035 0.1892796
v 0.154377311 0.035 0.1892796
v 0.154269308 0.0200000014 0.1894299
v 0.154104561 0.00500000035 0.1896154
v 0.154104561 0.035 0.1896154
v 0.153919071 0.0200000014 0.189780146
v 0.153768778 0.00500000035 0.189888164
v 0.153768778 0.035 0.189888164
v 0.153502718 0.0200000014 0.19003576
v 0.153392628 0.00500000035 0.190083012
v 0.153392628 0.035 0.190083012
v 0.15305756 0.0200000014 0.1901843
v 0.153001755 0.00500000035 0.190195411
v 0.15261963 0.0200000014 0.190230459
v 0.153001755 0.035 0.190195411
v 0.15261963 0.00500000035 0.190230459
v 0.15261963 0.035 0.190230459
v 0.1522375 0.00500000035 0.190195411
v 0.1522375 0.035 0.190195411
v 0.152181715 0.0200000014 0.1901843
v 0.151846617 0.00500000035 0.190083012
v 0.151846617 0.035 0.190083012
v 0.151846617 0.0200000014 0.190083012
v 0.151522338 0.0200000014 0.189920977
v 0.151470482 0.00500000035 0.189888164
v 0.151470482 0.035 0.189888164
v 0.15122509 0.0200000014 0.189700574
v 0.151134714 0.00500000035 0.1896154
v 0.151134714 0.035 0.1896154
v 0.150969937 0.0200000014 0.1894299
v 0.150861934 0.00500000035 0.1892796
v 0.150861934 0.035 0.1892796
v 0.150768369 0.0200000014 0.189121842
v 0.150667071 0.00500000035 0.188903451
v 0.150667071 0.035 0.188903451
v 0.150626615 0.0200000014 0.188792184
v 0.150554687 0.00500000035 0.188512579
v 0.150554687 0.035 0.188512579
v 0.150545165 0.0200000014 0.188456953
v 0.150519624 0.00500000035 0.188130453
v 0.150519624 0.035 0.188130453
v 0.150554687 0.00500000035 0.187748358
v 0.150565788 0.0200000014 0.187692523
v 0.150554687 0.035 0.187748358
v 0.150667071 0.00500000035 0.187357485
v 0.150667071 0.035 0.187357485
v 0.150714338 0.0200000014 0.187247381
v 0.150861934 0.00500000035 0.18698132
v 0.150861934 0.035 0.18698132
v 0.150969937 0.0200000014 0.186831027
v 0.151134714 0.00500000035 0.186645538
v 0.151134714 0.035 0.186645538
v 0.151320189 0.0200000014 0.18648079
v 0.151470482 0.00500000035 0.186372772
v 0.151470482 0.035 0.186372772
v 0.151736528 0.0200000014 0.186225176
v 0.151846617 0.00500000035 0.186177909
v 0.151846617 0.035 0.186177909
v 0.152181715 0.0200000014 0.186076626
v 0.1522375 0.00500000035 0.186065525
v 0.15261963 0.0200000014 0.186030477
v 0.1522375 0.035 0.186065525
v 0.15261963 0.00500000035 0.186030477
v 0.15261963 0.035 0.186030477
v 0.153001755 0.00500000035 0.186065525
v 0.153001755 0.035 0.186065525
v 0.15305756 0.0200000014 0.186076626
v 0.153392628 0.00500000035 0.186177909
v 0.153392628 0.035 0.186177909
v 0.153392628 0.0200000014 0.186177909
v 0.153716922 0.0200000014 0.18633993
v 0.153768778 0.00500000035 0.186372772
v 0.153768778 0.035 0.186372772
v 0.15401417 0.0200000014 0.186560363
v 0.154104561 0.00500000035 0.186645538
v 0.154104561 0.035 0.186645538
v 0.154269308 0.0200000014 0.186831027
v 0.154377311 0.00500000035 0.18698132
v 0.154377311 0.035 0.18698132
v 0.154470876 0.0200000014 0.187139064
v 0.154572174 0.00500000035 0.187357485
v 0.154572174 0.035 0.187357485
v 0.154612646 0.0200000014 0.187468752
v 0.154684573 0.00500000035 0.187748358
v 0.154684573 0.035 0.187748358
v 0.15469408 0.0200000014 0.187803954
v 0.154719621 0.00500000035 0.188130453
v 0.154719621 0.035 0.188130453
v 0.150861934 0.035 0.1892796
v 0.146760657 0.035 0.191960931
v 0.147185147 0.035 0.192542538
v 0.146111116 0.035 0.190707132
v 0.150667071 0.035 0.188903451
v 0.1457365 0.035 0.1894042
v 0.150554687 0.035 0.188512579
v 0.151134714 0.035 0.1896154
v 0.147669882 0.035 0.193080217
v 0.14820753 0.035 0.193564951
v 0.151470482 0.035 0.189888164
v 0.148789153 0.035 0.193989441
v 0.151846617 0.035 0.190083012
v 0.150042951 0.035 0.194638982
v 0.1522375 0.035 0.190195411
v 0.1513459 0.035 0.1950136
v 0.145619631 0.035 0.188130453
v 0.150519624 0.035 0.188130453
v 0.150554687 0.035 0.187748358
v 0.1457365 0.035 0.186856717
v 0.150667071 0.035 0.187357485
v 0.146111116 0.035 0.1855538
v 0.15261963 0.035 0.190230459
v 0.15261963 0.035 0.195130467
v 0.153893366 0.035 0.1950136
v 0.153001755 0.035 0.190195411
v 0.1551963 0.035 0.194638982
v 0.153392628 0.035 0.190083012
v 0.156450108 0.035 0.193989441
v 0.153768778 0.035 0.189888164
v 0.157031715 0.035 0.193564951
v 0.150861934 0.035 0.18698132
v 0.146760657 0.035 0.1843
v 0.147185147 0.035 0.183718383
v 0.154104561 0.035 0.1896154
v 0.157569379 0.035 0.193080217
v 0.1580541 0.035 0.192542538
v 0.151134714 0.035 0.186645538
v 0.147669882 0.035 0.18318072
v 0.14820753 0.035 0.182695985
v 0.151470482 0.035 0.186372772
v 0.148789153 0.035 0.182271481
v 0.151846617 0.035 0.186177909
v 0.150042951 0.035 0.181621939
v 0.154377311 0.035 0.1892796
v 0.1584786 0.035 0.191960931
v 0.159128144 0.035 0.190707132
v 0.154572174 0.035 0.188903451
v 0.15950276 0.035 0.1894042
v 0.154684573 0.035 0.188512579
v 0.159619614 0.035 0.188130453
v 0.154719621 0.035 0.188130453
v 0.1522375 0.035 0.186065525
v 0.1513459 0.035 0.181247309
v 0.15261963 0.035 0.181130454
v 0.15261963 0.035 0.186030477
v 0.153893366 0.035 0.181247309
v 0.153001755 0.035 0.186065525
v 0.1551963 0.035 0.181621939
v 0.153392628 0.035 0.186177909
v 0.156450108 0.035 0.182271481
v 0.15950276 0.035 0.186856717
v 0.154684573 0.035 0.187748358
v 0.154572174 0.035 0.187357485
v 0.159128144 0.035 0.1855538
v 0.153768778 0.035 0.186372772
v 0.154377311 0.035 0.18698132
v 0.1584786 0.035 0.1843
v 0.157031715 0.035 0.182695985
v 0.157569379 0.035 0.18318072
v 0.1580541 0.035 0.183718383
v 0.154104561 0.035 0.186645538
v 0.1462284 0.03475 0.191553116
v 0.1459575 0.0345000029 0.19157517
v 0.146342158 0.0345000029 0.192234546
v 0.146924287 0.03475 0.192616612
v 0.146796972 0.0345000029 0.1928577
v 0.145646214 0.0345000029 0.190891176
v 0.147316322 0.0345000029 0.193433762
v 0.145738959 0.03475 0.190414965
v 0.145244837 0.0345000029 0.1894952
v 0.147805169 0.03475 0.193551108
v 0.1478924 0.0345000029 0.1939531
v 0.148831367 0.03475 0.194312036
v 0.148515552 0.0345000029 0.194407925
v 0.149174914 0.0345000029 0.194792584
v 0.1454578 0.03475 0.189257711
v 0.145119622 0.0345000029 0.188130453
v 0.149950951 0.03475 0.194871426
v 0.149858922 0.0345000029 0.195103884
v 0.151107743 0.03475 0.195221066
v 0.1512549 0.0345000029 0.195505247
v 0.150042951 0.035 0.194638982
v 0.148789153 0.035 0.193989441
v 0.14820753 0.035 0.193564951
v 0.147669882 0.035 0.193080217
v 0.147185147 0.035 0.192542538
v 0.146760657 0.035 0.191960931
v 0.146111116 0.035 0.190707132
v 0.1457365 0.035 0.1894042
v 0.145619631 0.035 0.188130453
v 0.1513459 0.035 0.1950136
v 0.1518736 0.03475 0.195341989
v 0.15261963 0.035 0.195130467
v 0.15261963 0.0345000029 0.195630476
v 0.145408109 0.03475 0.187384456
v 0.1457365 0.035 0.186856717
v 0.145244837 0.0345000029 0.18676573
v 0.15261963 0.03475 0.195380464
v 0.153365657 0.03475 0.195341989
v 0.153893366 0.035 0.1950136
v 0.153984353 0.0345000029 0.195505247
v 0.145529017 0.03475 0.186618581
v 0.145738959 0.03475 0.185845956
v 0.146111116 0.035 0.1855538
v 0.145646214 0.0345000029 0.18536976
v 0.146041825 0.03475 0.185081691
v 0.1459575 0.0345000029 0.184685752
v 0.146760657 0.035 0.1843
v 0.146438062 0.03475 0.184342235
v 0.146342158 0.0345000029 0.184026375
v 0.146924287 0.03475 0.1836443
v 0.147185147 0.035 0.183718383
v 0.1474931 0.03475 0.183003932
v 0.146796972 0.0345000029 0.183403224
v 0.147669882 0.035 0.18318072
v 0.147316322 0.0345000029 0.182827145
v 0.14820753 0.035 0.182695985
v 0.1478924 0.0345000029 0.18230781
v 0.148133472 0.03475 0.182435125
v 0.148515552 0.0345000029 0.181853
v 0.148789153 0.035 0.182271481
v 0.148831367 0.03475 0.1819489
v 0.149174914 0.0345000029 0.181468338
v 0.149570853 0.03475 0.181552678
v 0.150042951 0.035 0.181621939
v 0.149858922 0.0345000029 0.181157053
v 0.150335118 0.03475 0.1812498
v 0.1513459 0.035 0.181247309
v 0.1512549 0.0345000029 0.18075569
v 0.151107743 0.03475 0.181039855
v 0.1518736 0.03475 0.180918947
v 0.15261963 0.035 0.181130454
v 0.15261963 0.0345000029 0.18063046
v 0.15261963 0.03475 0.180880457
v 0.153365657 0.03475 0.180918947
v 0.153893366 0.035 0.181247309
v 0.153984353 0.0345000029 0.18075569
v 0.1541315 0.03475 0.181039855
v 0.155380338 0.0345000029 0.181157053
v 0.1551963 0.035 0.181621939
v 0.155288309 0.03475 0.181389481
v 0.156407878 0.03475 0.1819489
v 0.156064346 0.0345000029 0.181468338
v 0.156450108 0.035 0.182271481
v 0.1567237 0.0345000029 0.181853
v 0.157031715 0.035 0.182695985
v 0.157346874 0.0345000029 0.18230781
v 0.1574341 0.03475 0.182709828
v 0.157569379 0.035 0.18318072
v 0.158314973 0.03475 0.1836443
v 0.157922938 0.0345000029 0.182827145
v 0.1580541 0.035 0.183718383
v 0.158442274 0.0345000029 0.183403224
v 0.1584786 0.035 0.1843
v 0.1588971 0.0345000029 0.184026375
v 0.159010872 0.03475 0.1847078
v 0.15928176 0.0345000029 0.184685752
v 0.159128144 0.035 0.1855538
v 0.159593046 0.0345000029 0.18536976
v 0.1595003 0.03475 0.185845956
v 0.15950276 0.035 0.186856717
v 0.159994423 0.0345000029 0.18676573
v 0.159781456 0.03475 0.187003225
v 0.159619614 0.035 0.188130453
v 0.160119653 0.0345000029 0.188130453
v 0.1541315 0.03475 0.195221066
v 0.154904127 0.03475 0.195011124
v 0.155380338 0.0345000029 0.195103884
v 0.1551963 0.035 0.194638982
v 0.1556684 0.03475 0.194708258
v 0.156064346 0.0345000029 0.194792584
v 0.156450108 0.035 0.193989441
v 0.156407878 0.03475 0.194312036
v 0.1567237 0.0345000029 0.194407925
v 0.157105789 0.03475 0.193825811
v 0.157031715 0.035 0.193564951
v 0.157746151 0.03475 0.193256974
v 0.157346874 0.0345000029 0.1939531
v 0.157569379 0.035 0.193080217
v 0.157922938 0.0345000029 0.193433762
v 0.1580541 0.035 0.192542538
v 0.158442274 0.0345000029 0.1928577
v 0.158314973 0.03475 0.192616612
v 0.1588971 0.0345000029 0.192234546
v 0.1584786 0.035 0.191960931
v 0.1588012 0.03475 0.1919187
v 0.15928176 0.0345000029 0.19157517
v 0.159197435 0.03475 0.191179231
v 0.159128144 0.035 0.190707132
v 0.159593046 0.0345000029 0.190891176
v 0.1595003 0.03475 0.190414965
v 0.15950276 0.035 0.1894042
v 0.159994423 0.0345000029 0.1894952
v 0.159710228 0.03475 0.18964234
v 0.159831136 0.03475 0.18887648
v 0.159619614 0.035 0.188130453
v 0.160119653 0.0345000029 0.188130453
v 0.150861934 0.00500000035 0.18698132
v 0.146760657 0.00500000035 0.1843
v 0.147185147 0.00500000035 0.183718383
v 0.146111116 0.00500000035 0.1855538
v 0.151134714 0.00500000035 0.186645538
v 0.150667071 0.00500000035 0.187357485
v 0.151470482 0.00500000035 0.186372772
v 0.1457365 0.00500000035 0.186856717
v 0.150554687 0.00500000035 0.187748358
v 0.150519624 0.00500000035 0.188130453
v 0.145619631 0.00500000035 0.188130453
v 0.150554687 0.00500000035 0.188512579
v 0.1457365 0.00500000035 0.1894042
v 0.150667071 0.00500000035 0.188903451
v 0.146111116 0.00500000035 0.190707132
v 0.147669882 0.00500000035 0.18318072
v 0.14820753 0.00500000035 0.182695985
v 0.148789153 0.00500000035 0.182271481
v 0.151846617 0.00500000035 0.186177909
v 0.150042951 0.00500000035 0.181621939
v 0.1522375 0.00500000035 0.186065525
v 0.1513459 0.00500000035 0.181247309
v 0.15261963 0.00500000035 0.186030477
v 0.15261963 0.00500000035 0.181130454
v 0.150861934 0.00500000035 0.1892796
v 0.146760657 0.00500000035 0.191960931
v 0.147185147 0.00500000035 0.192542538
v 0.153001755 0.00500000035 0.186065525
v 0.153893366 0.00500000035 0.181247309
v 0.1551963 0.00500000035 0.181621939
v 0.153392628 0.00500000035 0.186177909
v 0.156450108 0.00500000035 0.182271481
v 0.153768778 0.00500000035 0.186372772
v 0.157031715 0.00500000035 0.182695985
v 0.151134714 0.00500000035 0.1896154
v 0.147669882 0.00500000035 0.193080217
v 0.14820753 0.00500000035 0.193564951
v 0.151470482 0.00500000035 0.189888164
v 0.148789153 0.00500000035 0.193989441
v 0.151846617 0.00500000035 0.190083012
v 0.150042951 0.00500000035 0.194638982
v 0.1522375 0.00500000035 0.190195411
v 0.1513459 0.00500000035 0.1950136
v 0.154104561 0.00500000035 0.186645538
v 0.157569379 0.00500000035 0.18318072
v 0.1580541 0.00500000035 0.183718383
v 0.15261963 0.00500000035 0.190230459
v 0.15261963 0.00500000035 0.195130467
v 0.153893366 0.00500000035 0.1950136
v 0.153001755 0.00500000035 0.190195411
v 0.1551963 0.00500000035 0.194638982
v 0.153392628 0.00500000035 0.190083012
v 0.156450108 0.00500000035 0.193989441
v 0.153768778 0.00500000035 0.189888164
v 0.157031715 0.00500000035 0.193564951
v 0.154377311 0.00500000035 0.18698132
v 0.1584786 0.00500000035 0.1843
v 0.159128144 0.00500000035 0.1855538
v 0.154572174 0.00500000035 0.187357485
v 0.15950276 0.00500000035 0.186856717
v 0.154684573 0.00500000035 0.187748358
v 0.154104561 0.00500000035 0.1896154
v 0.157569379 0.00500000035 0.193080217
v 0.1580541 0.00500000035 0.192542538
v 0.159619614 0.00500000035 0.188130453
v 0.154719621 0.00500000035 0.188130453
v 0.154684573 0.00500000035 0.188512579
v 0.15950276 0.00500000035 0.1894042
v 0.154572174 0.00500000035 0.188903451
v 0.159128144 0.00500000035 0.190707132
v 0.154377311 0.00500000035 0.1892796
v 0.1584786 0.00500000035 0.191960931
v 0.146008 0.0200000014 0.191671163
v 0.1459575 0.00550000044 0.19157517
v 0.146342158 0.00550000044 0.192234546
v 0.1467279 0.0200000014 0.192771316
v 0.146796972 0.00550000044 0.1928577
v 0.145646214 0.00550000044 0.190891176
v 0.147316322 0.00550000044 0.193433762
v 0.1455017 0.0200000014 0.190493748
v 0.145244837 0.00550000044 0.1894952
v 0.147639155 0.0200000014 0.193738028
v 0.1478924 0.00550000044 0.1939531
v 0.148700744 0.0200000014 0.194525182
v 0.148515552 0.00550000044 0.194407925
v 0.149174914 0.00550000044 0.194792584
v 0.145210832 0.0200000014 0.189296588
v 0.145119622 0.00550000044 0.188130453
v 0.149858922 0.0200000014 0.195103884
v 0.149858922 0.00550000044 0.195103884
v 0.151055619 0.0200000014 0.195465565
v 0.1512549 0.00550000044 0.195505247
v 0.151847869 0.0200000014 0.195590645
v 0.15261963 0.00550000044 0.195630476
v 0.145244837 0.0345000029 0.1894952
v 0.145646214 0.0345000029 0.190891176
v 0.145119622 0.0345000029 0.188130453
v 0.1459575 0.0345000029 0.19157517
v 0.146342158 0.0345000029 0.192234546
v 0.146796972 0.0345000029 0.1928577
v 0.147316322 0.0345000029 0.193433762
v 0.1478924 0.0345000029 0.1939531
v 0.148515552 0.0345000029 0.194407925
v 0.149174914 0.0345000029 0.194792584
v 0.149858922 0.0345000029 0.195103884
v 0.1512549 0.0345000029 0.195505247
v 0.15261963 0.0345000029 0.195630476
v 0.15261963 0.0200000014 0.195630476
v 0.153391376 0.0200000014 0.195590645
v 0.153984353 0.0345000029 0.195505247
v 0.153984353 0.00550000044 0.195505247
v 0.154183641 0.0200000014 0.195465565
v 0.15498291 0.0200000014 0.1952484
v 0.155380338 0.0345000029 0.195103884
v 0.155380338 0.00550000044 0.195103884
v 0.155773535 0.0200000014 0.194935083
v 0.156064346 0.0345000029 0.194792584
v 0.156064346 0.00550000044 0.194792584
v 0.1565385 0.0200000014 0.194525182
v 0.1567237 0.0345000029 0.194407925
v 0.1567237 0.00550000044 0.194407925
v 0.157260478 0.0200000014 0.1940222
v 0.157346874 0.0345000029 0.1939531
v 0.157922938 0.0200000014 0.193433762
v 0.157346874 0.00550000044 0.1939531
v 0.157922938 0.0345000029 0.193433762
v 0.157922938 0.00550000044 0.193433762
v 0.158442274 0.0345000029 0.1928577
v 0.158442274 0.00550000044 0.1928577
v 0.15851137 0.0200000014 0.192771316
v 0.1588971 0.0345000029 0.192234546
v 0.1588971 0.00550000044 0.192234546
v 0.159014344 0.0200000014 0.192049325
v 0.15928176 0.0345000029 0.19157517
v 0.15928176 0.00550000044 0.19157517
v 0.15942426 0.0200000014 0.191284359
v 0.159593046 0.0345000029 0.190891176
v 0.159593046 0.00550000044 0.190891176
v 0.159737557 0.0200000014 0.190493748
v 0.159994423 0.0345000029 0.1894952
v 0.159994423 0.00550000044 0.1894952
v 0.159954742 0.0200000014 0.189694464
v 0.1600798 0.0200000014 0.1889022
v 0.160119653 0.0345000029 0.188130453
v 0.160119653 0.00550000044 0.188130453
v 0.145159438 0.0200000014 0.1873587
v 0.145244837 0.0345000029 0.18676573
v 0.145244837 0.00550000044 0.18676573
v 0.145284519 0.0200000014 0.186566442
v 0.1455017 0.0200000014 0.185767189
v 0.145646214 0.0345000029 0.18536976
v 0.145646214 0.00550000044 0.18536976
v 0.145815 0.0200000014 0.184976578
v 0.1459575 0.0345000029 0.184685752
v 0.1459575 0.00550000044 0.184685752
v 0.146224916 0.0200000014 0.184211582
v 0.146342158 0.0345000029 0.184026375
v 0.146342158 0.00550000044 0.184026375
v 0.1467279 0.0200000014 0.183489621
v 0.146796972 0.0345000029 0.183403224
v 0.147316322 0.0200000014 0.182827145
v 0.146796972 0.00550000044 0.183403224
v 0.147316322 0.0345000029 0.182827145
v 0.147316322 0.00550000044 0.182827145
v 0.1478924 0.0345000029 0.18230781
v 0.1478924 0.00550000044 0.18230781
v 0.147978783 0.0200000014 0.182238743
v 0.148515552 0.0345000029 0.181853
v 0.148515552 0.00550000044 0.181853
v 0.148700744 0.0200000014 0.181735754
v 0.149174914 0.0345000029 0.181468338
v 0.149174914 0.00550000044 0.181468338
v 0.14946574 0.0200000014 0.181325838
v 0.149858922 0.0345000029 0.181157053
v 0.149858922 0.00550000044 0.181157053
v 0.150256351 0.0200000014 0.181012526
v 0.1512549 0.0345000029 0.18075569
v 0.1512549 0.00550000044 0.18075569
v 0.151055619 0.0200000014 0.180795357
v 0.151847869 0.0200000014 0.180670261
v 0.15261963 0.0345000029 0.18063046
v 0.15261963 0.00550000044 0.18063046
v 0.15261963 0.0200000014 0.18063046
v 0.153391376 0.0200000014 0.180670261
v 0.153984353 0.0345000029 0.18075569
v 0.153984353 0.00550000044 0.18075569
v 0.154183641 0.0200000014 0.180795357
v 0.155380338 0.0345000029 0.181157053
v 0.155380338 0.00550000044 0.181157053
v 0.155380338 0.0200000014 0.181157053
v 0.156064346 0.0345000029 0.181468338
v 0.1565385 0.0200000014 0.181735754
v 0.156064346 0.00550000044 0.181468338
v 0.1567237 0.0345000029 0.181853
v 0.1567237 0.00550000044 0.181853
v 0.157346874 0.0345000029 0.18230781
v 0.157346874 0.00550000044 0.18230781
v 0.15760012 0.0200000014 0.1825229
v 0.157922938 0.0345000029 0.182827145
v 0.15851137 0.0200000014 0.183489621
v 0.157922938 0.00550000044 0.182827145
v 0.158442274 0.0345000029 0.183403224
v 0.158442274 0.00550000044 0.183403224
v 0.1588971 0.0345000029 0.184026375
v 0.15923126 0.0200000014 0.184589773
v 0.1588971 0.00550000044 0.184026375
v 0.15928176 0.0345000029 0.184685752
v 0.15928176 0.00550000044 0.184685752
v 0.159593046 0.0345000029 0.18536976
v 0.159593046 0.00550000044 0.18536976
v 0.159737557 0.0200000014 0.185767189
v 0.159994423 0.0345000029 0.18676573
v 0.159994423 0.00550000044 0.18676573
v 0.160028428 0.0200000014 0.186964348
v 0.160119653 0.0345000029 0.188130453
v 0.160119653 0.00550000044 0.188130453
v 0.1462284 0.00525 0.1847078
v 0.1459575 0.00550000044 0.184685752
v 0.146342158 0.00550000044 0.184026375
v 0.146924287 0.00525 0.1836443
v 0.146796972 0.00550000044 0.183403224
v 0.145646214 0.00550000044 0.18536976
v 0.147316322 0.00550000044 0.182827145
v 0.145738959 0.00525 0.185845956
v 0.145244837 0.00550000044 0.18676573
v 0.147805169 0.00525 0.182709828
v 0.1478924 0.00550000044 0.18230781
v 0.148831367 0.00525 0.1819489
v 0.148515552 0.00550000044 0.181853
v 0.149174914 0.00550000044 0.181468338
v 0.1454578 0.00525 0.187003225
v 0.145119622 0.00550000044 0.188130453
v 0.145619631 0.00500000035 0.188130453
v 0.1457365 0.00500000035 0.186856717
v 0.146111116 0.00500000035 0.1855538
v 0.146760657 0.00500000035 0.1843
v 0.147185147 0.00500000035 0.183718383
v 0.147669882 0.00500000035 0.18318072
v 0.14820753 0.00500000035 0.182695985
v 0.148789153 0.00500000035 0.182271481
v 0.150042951 0.00500000035 0.181621939
v 0.149950951 0.00525 0.181389481
v 0.149858922 0.00550000044 0.181157053
v 0.151107743 0.00525 0.181039855
v 0.1513459 0.00500000035 0.181247309
v 0.1512549 0.00550000044 0.18075569
v 0.1518736 0.00525 0.180918947
v 0.15261963 0.00500000035 0.181130454
v 0.15261963 0.00550000044 0.18063046
v 0.15261963 0.00525 0.180880457
v 0.153365657 0.00525 0.180918947
v 0.153893366 0.00500000035 0.181247309
v 0.153984353 0.00550000044 0.18075569
v 0.1541315 0.00525 0.181039855
v 0.154904127 0.00525 0.1812498
v 0.1551963 0.00500000035 0.181621939
v 0.155380338 0.00550000044 0.181157053
v 0.1556684 0.00525 0.181552678
v 0.156064346 0.00550000044 0.181468338
v 0.156450108 0.00500000035 0.182271481
v 0.156407878 0.00525 0.1819489
v 0.1567237 0.00550000044 0.181853
v 0.157105789 0.00525 0.182435125
v 0.157031715 0.00500000035 0.182695985
v 0.157746151 0.00525 0.183003932
v 0.157346874 0.00550000044 0.18230781
v 0.157569379 0.00500000035 0.18318072
v 0.157922938 0.00550000044 0.182827145
v 0.1580541 0.00500000035 0.183718383
v 0.158442274 0.00550000044 0.183403224
v 0.158314973 0.00525 0.1836443
v 0.1588971 0.00550000044 0.184026375
v 0.1584786 0.00500000035 0.1843
v 0.1588012 0.00525 0.184342235
v 0.15928176 0.00550000044 0.184685752
v 0.159197435 0.00525 0.185081691
v 0.159128144 0.00500000035 0.1855538
v 0.159593046 0.00550000044 0.18536976
v 0.1595003 0.00525 0.185845956
v 0.15950276 0.00500000035 0.186856717
v 0.159994423 0.00550000044 0.18676573
v 0.159710228 0.00525 0.186618581
v 0.159831136 0.00525 0.187384456
v 0.159619614 0.00500000035 0.188130453
v 0.160119653 0.00550000044 0.188130453
v 0.1457365 0.00500000035 0.1894042
v 0.145408109 0.00525 0.18887648
v 0.145119622 0.00550000044 0.188130453
v 0.145244837 0.00550000044 0.1894952
v 0.145529017 0.00525 0.18964234
v 0.145738959 0.00525 0.190414965
v 0.146111116 0.00500000035 0.190707132
v 0.145646214 0.00550000044 0.190891176
v 0.146041825 0.00525 0.191179231
v 0.1459575 0.00550000044 0.19157517
v 0.146760657 0.00500000035 0.191960931
v 0.146438062 0.00525 0.1919187
v 0.146342158 0.00550000044 0.192234546
v 0.146924287 0.00525 0.192616612
v 0.147185147 0.00500000035 0.192542538
v 0.1474931 0.00525 0.193256974
v 0.146796972 0.00550000044 0.1928577
v 0.147669882 0.00500000035 0.193080217
v 0.147316322 0.00550000044 0.193433762
v 0.14820753 0.00500000035 0.193564951
v 0.1478924 0.00550000044 0.1939531
v 0.148133472 0.00525 0.193825811
v 0.148515552 0.00550000044 0.194407925
v 0.148789153 0.00500000035 0.193989441
v 0.148831367 0.00525 0.194312036
v 0.149174914 0.00550000044 0.194792584
v 0.149570853 0.00525 0.194708258
v 0.150042951 0.00500000035 0.194638982
v 0.149858922 0.00550000044 0.195103884
v 0.150335118 0.00525 0.195011124
v 0.1513459 0.00500000035 0.1950136
v 0.1512549 0.00550000044 0.195505247
v 0.151107743 0.00525 0.195221066
v 0.1518736 0.00525 0.195341989
v 0.15261963 0.00500000035 0.195130467
v 0.15261963 0.00550000044 0.195630476
v 0.15261963 0.00525 0.195380464
v 0.153365657 0.00525 0.195341989
v 0.153893366 0.00500000035 0.1950136
v 0.153984353 0.00550000044 0.195505247
v 0.1541315 0.00525 0.195221066
v 0.155380338 0.00550000044 0.195103884
v 0.1551963 0.00500000035 0.194638982
v 0.155288309 0.00525 0.194871426
v 0.156407878 0.00525 0.194312036
v 0.156064346 0.00550000044 0.194792584
v 0.156450108 0.00500000035 0.193989441
v 0.1567237 0.00550000044 0.194407925
v 0.157031715 0.00500000035 0.193564951
v 0.157346874 0.00550000044 0.1939531
v 0.1574341 0.00525 0.193551108
v 0.157569379 0.00500000035 0.193080217
v 0.158314973 0.00525 0.192616612
v 0.157922938 0.00550000044 0.193433762
v 0.1580541 0.00500000035 0.192542538
v 0.158442274 0.00550000044 0.1928577
v 0.1584786 0.00500000035 0.191960931
v 0.1588971 0.00550000044 0.192234546
v 0.159010872 0.00525 0.191553116
v 0.15928176 0.00550000044 0.19157517
v 0.159128144 0.00500000035 0.190707132
v 0.159593046 0.00550000044 0.190891176
v 0.1595003 0.00525 0.190414965
v 0.15950276 0.00500000035 0.1894042
v 0.159994423 0.00550000044 0.1894952
v 0.159781456 0.00525 0.189257711
v 0.159619614 0.00500000035 0.188130453
v 0.160119653 0.00550000044 0.188130453
f 1 2 3
f 1 3 4
f 5 1 4
f 4 3 6
f 7 5 4
f 8 4 6
f 7 4 8
f 8 6 9
f 10 7 8
f 11 8 9
f 10 8 11
f 11 9 12
f 13 10 11
f 14 11 12
f 13 11 14
f 14 12 15
f 16 13 14
f 17 14 15
f 16 14 17
f 17 15 18
f 19 16 17
f 20 17 18
f 19 17 20
f 20 18 21
f 22 20 21
f 23 19 20
f 23 20 22
f 22 21 24
f 25 23 22
f 26 22 24
f 27 25 22
f 28 22 26
f 27 22 28
f 29 28 26
f 30 27 28
f 31 28 29
f 31 30 28
f 32 31 29
f 31 32 30
f 32 29 33
f 32 34 30
f 35 32 33
f 32 35 34
f 35 33 36
f 35 37 34
f 38 35 36
f 35 38 37
f 38 36 39
f 38 40 37
f 41 38 39
f 38 41 40
f 41 39 42
f 41 43 40
f 44 41 42
f 41 44 43
f 44 42 45
f 44 46 43
f 47 44 45
f 44 47 46
f 47 45 48
f 46 47 49
f 47 48 49
f 48 50 49
f 50 51 49
f 49 51 52
f 50 53 51
f 51 54 52
f 53 55 51
f 51 55 54
f 53 56 55
f 55 57 54
f 56 58 55
f 55 58 57
f 56 59 58
f 58 60 57
f 59 61 58
f 58 61 60
f 59 62 61
f 61 63 60
f 62 64 61
f 61 64 63
f 62 65 64
f 64 66 63
f 65 67 64
f 64 67 66
f 65 68 67
f 68 69 67
f 67 70 66
f 67 69 70
f 68 71 69
f 69 72 70
f 71 73 69
f 69 74 72
f 73 75 69
f 69 75 74
f 73 76 75
f 75 77 74
f 76 78 75
f 75 78 77
f 76 79 78
f 79 77 78
f 80 79 76
f 79 81 77
f 82 79 80
f 79 82 81
f 83 82 80
f 82 84 81
f 85 82 83
f 82 85 84
f 86 85 83
f 85 87 84
f 88 85 86
f 85 88 87
f 89 88 86
f 88 90 87
f 91 88 89
f 88 91 90
f 92 91 89
f 91 93 90
f 94 91 92
f 91 94 93
f 95 94 92
f 94 96 93
f 94 95 96
f 97 98 99
f 97 100 98
f 97 101 100
f 101 102 100
f 101 103 102
f 104 97 99
f 104 99 105
f 104 105 106
f 107 104 106
f 107 106 108
f 109 107 108
f 109 108 110
f 111 109 110
f 111 110 112
f 103 113 102
f 113 103 114
f 113 114 115
f 116 113 115
f 115 117 116
f 117 118 116
f 119 111 112
f 119 112 120
f 119 120 121
f 122 119 121
f 122 121 123
f 124 122 123
f 124 123 125
f 126 124 125
f 126 125 127
f 117 128 118
f 128 129 118
f 128 130 129
f 131 126 127
f 131 127 132
f 131 132 133
f 128 134 130
f 134 135 130
f 134 136 135
f 134 137 136
f 137 138 136
f 137 139 138
f 139 140 138
f 141 131 133
f 141 133 142
f 141 142 143
f 144 141 143
f 144 143 145
f 146 144 145
f 146 145 147
f 148 146 147
f 139 149 140
f 149 150 140
f 149 151 150
f 149 152 151
f 152 153 151
f 152 154 153
f 154 155 153
f 154 156 155
f 156 157 155
f 148 147 158
f 159 148 158
f 160 159 158
f 160 158 161
f 156 162 157
f 163 160 161
f 163 161 164
f 162 165 157
f 162 166 165
f 163 164 167
f 166 162 167
f 168 163 167
f 162 168 167
f 169 170 171
f 172 169 171
f 172 171 173
f 169 174 170
f 175 172 173
f 169 176 174
f 176 177 174
f 178 172 175
f 179 178 175
f 180 178 179
f 181 180 179
f 180 181 182
f 176 183 177
f 177 183 184
f 180 182 185
f 185 182 186
f 187 185 186
f 187 186 188
f 189 180 185
f 189 185 187
f 180 189 190
f 180 190 191
f 178 180 191
f 178 191 192
f 172 178 192
f 172 192 193
f 172 193 194
f 169 172 194
f 169 194 195
f 176 169 195
f 176 195 196
f 183 176 196
f 183 196 197
f 198 189 187
f 183 197 184
f 187 199 198
f 199 187 188
f 199 200 198
f 199 188 201
f 202 184 197
f 203 202 197
f 202 204 184
f 199 205 200
f 205 199 201
f 205 206 200
f 205 201 206
f 200 206 207
f 201 208 206
f 202 203 209
f 204 202 209
f 210 209 203
f 204 209 210
f 211 210 203
f 212 204 210
f 213 210 211
f 210 213 212
f 213 214 212
f 215 213 211
f 213 216 214
f 216 213 215
f 216 217 214
f 218 216 215
f 216 218 217
f 218 215 219
f 220 218 219
f 218 221 217
f 218 220 221
f 220 219 222
f 220 223 221
f 224 220 222
f 220 225 223
f 226 220 224
f 220 226 225
f 226 227 225
f 228 226 224
f 226 229 227
f 229 226 228
f 229 230 227
f 231 229 228
f 229 231 230
f 231 228 232
f 231 233 230
f 234 231 232
f 231 234 233
f 234 232 235
f 234 236 233
f 237 234 235
f 234 237 236
f 237 235 238
f 237 238 236
f 235 239 238
f 236 238 240
f 239 241 238
f 238 241 240
f 239 242 241
f 242 240 241
f 242 239 243
f 242 244 240
f 245 242 243
f 242 245 244
f 245 246 244
f 243 247 245
f 245 248 246
f 247 248 245
f 247 249 248
f 248 250 246
f 248 249 250
f 249 247 251
f 249 252 250
f 249 251 253
f 249 254 252
f 255 249 253
f 249 255 254
f 255 253 256
f 257 255 256
f 255 258 254
f 255 257 258
f 257 256 259
f 257 260 258
f 261 257 259
f 257 262 260
f 263 257 261
f 257 263 262
f 263 264 262
f 265 263 261
f 263 266 264
f 267 263 265
f 263 267 266
f 268 267 265
f 267 269 266
f 270 267 268
f 267 270 269
f 271 270 268
f 270 272 269
f 270 271 272
f 208 273 206
f 206 273 207
f 208 274 273
f 274 207 273
f 275 274 208
f 274 276 207
f 277 274 275
f 274 277 276
f 278 277 275
f 277 279 276
f 280 277 278
f 277 280 279
f 281 280 278
f 280 282 279
f 280 281 282
f 279 282 283
f 282 284 283
f 281 285 282
f 285 284 282
f 283 284 286
f 285 287 284
f 284 288 286
f 287 289 284
f 284 290 288
f 289 290 284
f 289 291 290
f 290 292 288
f 291 293 290
f 290 293 292
f 291 294 293
f 293 295 292
f 294 295 293
f 292 295 296
f 294 297 295
f 295 298 296
f 297 298 295
f 296 298 299
f 297 300 298
f 298 301 299
f 300 301 298
f 302 299 301
f 300 302 301
f 302 303 299
f 302 300 304
f 303 302 304
f 305 306 307
f 305 308 306
f 309 305 307
f 305 310 308
f 311 309 307
f 310 312 308
f 312 310 313
f 312 313 314
f 315 312 314
f 315 314 316
f 317 315 316
f 316 318 317
f 318 319 317
f 320 311 307
f 311 320 321
f 311 321 322
f 323 311 322
f 323 322 324
f 325 323 324
f 325 324 326
f 327 325 326
f 327 326 328
f 318 329 319
f 329 330 319
f 329 331 330
f 332 327 328
f 332 328 333
f 332 333 334
f 335 332 334
f 335 334 336
f 337 335 336
f 337 336 338
f 329 339 331
f 339 340 331
f 339 341 340
f 339 342 341
f 342 343 341
f 342 344 343
f 344 345 343
f 344 346 345
f 346 347 345
f 348 337 338
f 348 338 349
f 348 349 350
f 346 351 347
f 351 352 347
f 351 353 352
f 351 354 353
f 354 355 353
f 354 356 355
f 356 357 355
f 356 358 357
f 358 359 357
f 360 348 350
f 360 350 361
f 360 361 362
f 363 360 362
f 363 362 364
f 365 363 364
f 358 366 359
f 366 367 359
f 366 368 367
f 365 364 369
f 370 365 369
f 371 370 369
f 371 369 372
f 373 371 372
f 373 372 374
f 366 375 368
f 375 373 374
f 375 376 368
f 375 374 376
f 377 378 379
f 380 377 379
f 380 379 381
f 377 382 378
f 380 381 383
f 377 384 382
f 384 385 382
f 386 380 383
f 386 383 387
f 388 386 387
f 388 387 389
f 388 389 390
f 384 391 385
f 385 391 392
f 393 388 390
f 393 390 394
f 395 393 394
f 395 394 396
f 397 395 396
f 397 396 398
f 391 384 399
f 384 400 399
f 391 399 401
f 391 401 392
f 384 377 400
f 377 402 400
f 377 403 402
f 377 380 403
f 380 404 403
f 380 405 404
f 380 386 405
f 386 406 405
f 386 388 406
f 388 407 406
f 388 408 407
f 388 393 408
f 393 409 408
f 393 395 409
f 395 410 409
f 395 397 410
f 397 411 410
f 397 412 411
f 412 397 398
f 412 413 411
f 412 398 413
f 411 413 414
f 398 415 413
f 413 416 414
f 415 416 413
f 417 414 416
f 415 417 416
f 417 418 414
f 417 415 419
f 417 420 418
f 420 417 419
f 420 421 418
f 420 419 422
f 420 423 421
f 423 420 422
f 423 424 421
f 423 422 425
f 423 426 424
f 426 423 425
f 426 427 424
f 426 428 427
f 426 425 429
f 428 426 429
f 428 430 427
f 428 429 431
f 428 432 430
f 428 431 433
f 428 434 432
f 434 428 433
f 434 435 432
f 434 433 436
f 434 437 435
f 437 434 436
f 437 438 435
f 437 436 439
f 437 440 438
f 440 437 439
f 440 441 438
f 440 439 442
f 440 443 441
f 443 440 442
f 443 444 441
f 443 442 445
f 443 446 444
f 446 443 445
f 446 447 444
f 446 445 447
f 448 444 447
f 445 449 447
f 449 448 447
f 450 392 401
f 451 450 401
f 450 452 392
f 450 451 453
f 452 450 453
f 454 453 451
f 452 453 454
f 454 451 455
f 456 452 454
f 457 454 455
f 454 457 456
f 457 455 458
f 457 459 456
f 460 457 458
f 457 460 459
f 460 458 461
f 460 462 459
f 463 460 461
f 460 463 462
f 463 461 464
f 465 463 464
f 463 466 462
f 463 465 466
f 465 464 467
f 465 468 466
f 465 467 469
f 465 470 468
f 471 465 469
f 465 471 470
f 471 469 472
f 471 473 470
f 474 471 472
f 471 474 473
f 474 472 475
f 474 476 473
f 477 474 475
f 474 477 476
f 477 475 478
f 477 479 476
f 480 477 478
f 477 480 479
f 480 478 481
f 480 482 479
f 483 480 481
f 480 483 482
f 483 481 484
f 483 484 482
f 481 485 484
f 482 484 486
f 485 487 484
f 484 487 486
f 485 488 487
f 488 486 487
f 488 485 489
f 488 490 486
f 491 488 489
f 488 491 490
f 491 489 492
f 491 493 490
f 494 491 492
f 491 494 493
f 494 492 495
f 496 494 495
f 494 497 493
f 494 496 497
f 496 495 498
f 496 499 497
f 496 498 500
f 496 501 499
f 502 496 500
f 496 502 501
f 502 500 503
f 504 502 503
f 502 505 501
f 502 504 505
f 504 503 506
f 504 507 505
f 504 506 508
f 509 504 508
f 504 510 507
f 504 509 510
f 509 508 511
f 509 512 510
f 513 509 511
f 509 514 512
f 515 509 513
f 509 515 514
f 516 515 513
f 515 517 514
f 518 515 516
f 515 518 517
f 519 518 516
f 518 520 517
f 518 519 520
f 521 522 523
f 524 521 523
f 524 523 525
f 521 526 522
f 527 524 525
f 521 528 526
f 528 529 526
f 530 524 527
f 531 530 527
f 532 530 531
f 533 532 531
f 532 533 534
f 528 535 529
f 529 535 536
f 535 537 536
f 535 528 538
f 535 538 537
f 528 539 538
f 528 521 539
f 521 540 539
f 521 524 540
f 524 541 540
f 524 542 541
f 524 530 542
f 530 543 542
f 530 532 543
f 532 544 543
f 532 545 544
f 545 532 546
f 532 534 546
f 546 534 547
f 545 546 548
f 548 546 547
f 549 545 548
f 548 547 550
f 548 551 549
f 551 548 550
f 551 552 549
f 551 550 553
f 551 554 552
f 554 551 553
f 554 555 552
f 554 553 555
f 552 555 556
f 553 557 555
f 555 558 556
f 557 558 555
f 559 556 558
f 557 559 558
f 559 560 556
f 561 559 557
f 559 562 560
f 562 559 561
f 563 562 561
f 562 564 560
f 565 562 563
f 562 565 564
f 566 565 563
f 565 567 564
f 565 566 567
f 564 567 568
f 567 569 568
f 566 570 567
f 570 569 567
f 568 569 571
f 570 572 569
f 569 573 571
f 572 574 569
f 569 575 573
f 574 575 569
f 574 576 575
f 575 577 573
f 576 578 575
f 575 578 577
f 576 579 578
f 578 580 577
f 579 580 578
f 577 580 581
f 579 582 580
f 580 583 581
f 582 583 580
f 581 583 584
f 582 585 583
f 583 586 584
f 585 586 583
f 587 584 586
f 585 587 586
f 587 588 584
f 587 585 589
f 588 587 589
f 590 591 537
f 591 592 537
f 591 593 592
f 591 590 594
f 593 591 594
f 595 594 590
f 593 594 595
f 596 595 590
f 597 593 595
f 598 595 596
f 595 598 597
f 598 599 597
f 600 598 596
f 598 601 599
f 601 598 600
f 601 602 599
f 603 601 600
f 601 603 602
f 603 600 604
f 605 603 604
f 603 606 602
f 603 605 606
f 605 604 607
f 605 608 606
f 609 605 607
f 605 610 608
f 611 605 609
f 605 611 610
f 611 612 610
f 613 611 609
f 611 614 612
f 614 611 613
f 614 615 612
f 616 614 613
f 614 616 615
f 616 613 617
f 616 618 615
f 619 616 617
f 616 619 618
f 619 617 620
f 619 621 618
f 622 619 620
f 619 622 621
f 622 620 623
f 622 623 621
f 620 624 623
f 621 623 625
f 624 626 623
f 623 626 625
f 624 627 626
f 627 625 626
f 627 624 628
f 627 629 625
f 630 627 628
f 627 630 629
f 630 631 629
f 628 632 630
f 630 633 631
f 632 633 630
f 632 634 633
f 633 635 631
f 633 634 635
f 634 632 636
f 634 637 635
f 634 636 638
f 634 639 637
f 640 634 638
f 634 640 639
f 640 638 641
f 642 640 641
f 640 643 639
f 640 642 643
f 642 641 644
f 642 645 643
f 646 642 644
f 642 647 645
f 648 642 646
f 642 648 647
f 648 649 647
f 650 648 646
f 648 651 649
f 652 648 650
f 648 652 651
f 653 652 650
f 652 654 651
f 655 652 653
f 652 655 654
f 656 655 653
f 655 657 654
f 655 656 657
