# ROS coordinates: X forward, Y left, Z up; units are metres.
o mesh
v -0.11285 0.064 0.167000011
v -0.1128859 0.064 0.167391226
v -0.113350004 0.0645000041 0.167000011
v -0.113141775 0.06425001 0.167396232
v -0.113377556 0.0645000041 0.167300254
v -0.113000959 0.064 0.167791411
v -0.11346586 0.0645000041 0.167607367
v -0.113276161 0.06425001 0.167799
v -0.113200471 0.064 0.1681765
v -0.113618962 0.0645000041 0.167902887
v -0.113507435 0.06425001 0.168175682
v -0.113479726 0.064 0.168520287
v -0.113833278 0.0645000041 0.168166742
v -0.113824323 0.06425001 0.168492571
v -0.1138235 0.064 0.168799534
v -0.1140971 0.0645000041 0.16838105
v -0.114201017 0.06425001 0.168723837
v -0.1142086 0.064 0.168999046
v -0.114392646 0.0645000041 0.168534145
v -0.114603788 0.06425001 0.16885823
v -0.114608787 0.064 0.169114113
v -0.11500001 0.06425001 0.168900013
v -0.114699766 0.0645000041 0.168622464
v -0.11500001 0.064 0.16915001
v -0.11500001 0.0645000041 0.16865
v -0.115391225 0.064 0.169114113
v -0.115300238 0.0645000041 0.168622464
v -0.115396224 0.06425001 0.16885823
v -0.11579141 0.064 0.168999046
v -0.115992792 0.06425001 0.16861999
v -0.115607366 0.0645000041 0.168534145
v -0.1161765 0.064 0.168799534
v -0.115902908 0.0645000041 0.16838105
v -0.116520286 0.064 0.168520287
v -0.116166733 0.0645000041 0.168166742
v -0.116492577 0.06425001 0.168175682
v -0.116799541 0.064 0.1681765
v -0.116803207 0.06425001 0.167598709
v -0.116381049 0.0645000041 0.167902887
v -0.116999045 0.064 0.167791411
v -0.116534151 0.0645000041 0.167607367
v -0.117114112 0.064 0.167391226
v -0.116622463 0.0645000041 0.167300254
v -0.117150009 0.064 0.167000011
v -0.116650008 0.0645000041 0.167000011
v -0.11285 0.0690000057 0.167000011
v -0.1128859 0.0690000057 0.166608781
v -0.113350004 0.0685 0.167000011
v -0.113141775 0.06875 0.166603774
v -0.113377556 0.0685 0.166699752
v -0.113000959 0.0690000057 0.1662086
v -0.11346586 0.0685 0.166392654
v -0.113276161 0.06875 0.166201025
v -0.113200471 0.0690000057 0.165823519
v -0.113618962 0.0685 0.166097119
v -0.113507435 0.06875 0.165824324
v -0.113479726 0.0690000057 0.16547972
v -0.113833278 0.0685 0.1658333
v -0.113824323 0.06875 0.165507436
v -0.1138235 0.0690000057 0.165200472
v -0.1140971 0.0685 0.165618956
v -0.114201017 0.06875 0.16527617
v -0.1142086 0.0690000057 0.165000975
v -0.114392646 0.0685 0.165465862
v -0.114603788 0.06875 0.165141791
v -0.114608787 0.0690000057 0.164885908
v -0.11500001 0.06875 0.165100008
v -0.114699766 0.0685 0.165377557
v -0.11500001 0.0690000057 0.164850026
v -0.11500001 0.0685 0.16535
v -0.115391225 0.0690000057 0.164885908
v -0.115300238 0.0685 0.165377557
v -0.115396224 0.06875 0.165141791
v -0.11579141 0.0690000057 0.165000975
v -0.115992792 0.06875 0.165380016
v -0.115607366 0.0685 0.165465862
v -0.1161765 0.0690000057 0.165200472
v -0.115902908 0.0685 0.165618956
v -0.116520286 0.0690000057 0.16547972
v -0.116166733 0.0685 0.1658333
v -0.116492577 0.06875 0.165824324
v -0.116799541 0.0690000057 0.165823519
v -0.116803207 0.06875 0.166401327
v -0.116381049 0.0685 0.166097119
v -0.116999045 0.0690000057 0.1662086
v -0.116534151 0.0685 0.166392654
v -0.117114112 0.0690000057 0.166608781
v -0.116622463 0.0685 0.166699752
v -0.117150009 0.0690000057 0.167000011
v -0.116650008 0.0685 0.167000011
v -0.05785 0.0690000057 0.110000007
v -0.0578859 0.0690000057 0.109608784
v -0.0583500043 0.0685 0.110000007
v -0.0581417754 0.06875 0.109603792
v -0.05837755 0.0685 0.109699771
v -0.05800096 0.0690000057 0.1092086
v -0.0584658533 0.0685 0.109392643
v -0.0582761653 0.06875 0.109201014
v -0.0582004637 0.0690000057 0.108823508
v -0.0586189553 0.0685 0.1090971
v -0.05850743 0.06875 0.108824328
v -0.0584797226 0.0690000057 0.108479723
v -0.05883328 0.0685 0.108833276
v -0.0588243157 0.06875 0.108507432
v -0.0588235036 0.0690000057 0.108200468
v -0.0590971075 0.0685 0.10861896
v -0.0592010133 0.06875 0.108276159
v -0.0592086 0.0690000057 0.108000964
v -0.059392646 0.0685 0.108465858
v -0.0596037842 0.06875 0.10814178
v -0.05960878 0.0690000057 0.1078859
v -0.0600000024 0.06875 0.108100012
v -0.05969976 0.0685 0.108377554
v -0.0600000024 0.0690000057 0.10785
v -0.0600000024 0.0685 0.10835
v -0.0603912249 0.0690000057 0.1078859
v -0.0603002459 0.0685 0.108377554
v -0.0603962243 0.06875 0.10814178
v -0.0607914068 0.0690000057 0.108000964
v -0.0609927848 0.06875 0.108380012
v -0.06060736 0.0685 0.108465858
v -0.0611765 0.0690000057 0.108200468
v -0.0609029 0.0685 0.10861896
v -0.0615202822 0.0690000057 0.108479723
v -0.06116673 0.0685 0.108833276
v -0.0614925772 0.06875 0.108824328
v -0.0617995448 0.0690000057 0.108823508
v -0.0618032068 0.06875 0.109401308
v -0.06138105 0.0685 0.1090971
v -0.0619990453 0.0690000057 0.1092086
v -0.0615341552 0.0685 0.109392643
v -0.06211411 0.0690000057 0.109608784
v -0.0616224557 0.0685 0.109699771
v -0.0621500053 0.0690000057 0.110000007
v -0.06165 0.0685 0.110000007
v -0.08215001 0.0690000057 0.110000007
v -0.0816500038 0.0685 0.110000007
v -0.08162246 0.0685 0.109699771
v -0.08180321 0.06875 0.109401308
v -0.08211411 0.0690000057 0.109608784
v -0.0815341547 0.0685 0.109392643
v -0.08199905 0.0690000057 0.1092086
v -0.08138105 0.0685 0.1090971
v -0.0817995444 0.0690000057 0.108823508
v -0.08149257 0.06875 0.108824328
v -0.08116673 0.0685 0.108833276
v -0.08099279 0.06875 0.108380012
v -0.08152029 0.0690000057 0.108479723
v -0.0809029043 0.0685 0.10861896
v -0.0811765045 0.0690000057 0.108200468
v -0.0806073546 0.0685 0.108465858
v -0.0807914138 0.0690000057 0.108000964
v -0.08039622 0.06875 0.10814178
v -0.08030024 0.0685 0.108377554
v -0.0800000057 0.06875 0.108100012
v -0.08039123 0.0690000057 0.1078859
v -0.0800000057 0.0685 0.10835
v -0.0800000057 0.0690000057 0.10785
v -0.07969976 0.0685 0.108377554
v -0.07960878 0.0690000057 0.1078859
v -0.0796037838 0.06875 0.10814178
v -0.07939265 0.0685 0.108465858
v -0.079208605 0.0690000057 0.108000964
v -0.07920101 0.06875 0.108276159
v -0.07909711 0.0685 0.10861896
v -0.0788235 0.0690000057 0.108200468
v -0.07882432 0.06875 0.108507432
v -0.07883328 0.0685 0.108833276
v -0.07847972 0.0690000057 0.108479723
v -0.07850743 0.06875 0.108824328
v -0.07861896 0.0685 0.1090971
v -0.07820047 0.0690000057 0.108823508
v -0.0782761648 0.06875 0.109201014
v -0.07846586 0.0685 0.109392643
v -0.0780009553 0.0690000057 0.1092086
v -0.07814177 0.06875 0.109603792
v -0.0783775449 0.0685 0.109699771
v -0.077885896 0.0690000057 0.109608784
v -0.07835001 0.0685 0.110000007
v -0.07785001 0.0690000057 0.110000007
v -0.0783775449 0.0685 0.110300243
v -0.0781967938 0.06875 0.1105987
v -0.07846586 0.0685 0.110607363
v -0.077885896 0.0690000057 0.110391222
v -0.0780009553 0.0690000057 0.110791408
v -0.07861896 0.0685 0.110902905
v -0.07820047 0.0690000057 0.111176506
v -0.07850743 0.06875 0.111175686
v -0.07883328 0.0685 0.111166731
v -0.07900722 0.06875 0.111619994
v -0.07847972 0.0690000057 0.11152029
v -0.07909711 0.0685 0.111381046
v -0.0788235 0.0690000057 0.111799538
v -0.07939265 0.0685 0.111534148
v -0.079208605 0.0690000057 0.11199905
v -0.0796037838 0.06875 0.111858234
v -0.07969976 0.0685 0.111622468
v -0.0800000057 0.06875 0.1119
v -0.07960878 0.0690000057 0.112114109
v -0.0800000057 0.0685 0.111650005
v -0.0800000057 0.0690000057 0.112150006
v -0.08030024 0.0685 0.111622468
v -0.08039123 0.0690000057 0.112114109
v -0.08039622 0.06875 0.111858234
v -0.0806073546 0.0685 0.111534148
v -0.0807914138 0.0690000057 0.11199905
v -0.080799 0.06875 0.111723848
v -0.0809029043 0.0685 0.111381046
v -0.0811765045 0.0690000057 0.111799538
v -0.0811756849 0.06875 0.111492574
v -0.08116673 0.0685 0.111166731
v -0.08152029 0.0690000057 0.11152029
v -0.08149257 0.06875 0.111175686
v -0.08138105 0.0685 0.110902905
v -0.0817995444 0.0690000057 0.111176506
v -0.08172385 0.06875 0.110798992
v -0.0815341547 0.0685 0.110607363
v -0.08199905 0.0690000057 0.110791408
v -0.0818582252 0.06875 0.110396221
v -0.08162246 0.0685 0.110300243
v -0.08211411 0.0690000057 0.110391222
v -0.0816500038 0.0685 0.110000007
v -0.08215001 0.0690000057 0.110000007
v -0.09803284 0.0685 0.163770542
v -0.09803284 0.079 0.163770542
v -0.09878267 0.0695 0.16310893
v -0.10365662 0.0737500042 0.1588084
v -0.109280415 0.079 0.153846219
v -0.109280415 0.0695 0.153846219
v -0.0695831 0.079 0.131527528
v -0.0695831 0.0685 0.131527528
v -0.0703329444 0.0695 0.1308659
v -0.07520689 0.0737500042 0.126565367
v -0.08083067 0.0695 0.1216032
v -0.08083067 0.079 0.1216032
v -0.08500001 0.0645000041 0.105000004
v -0.08500001 0.0550000034 0.105000004
v -0.08500001 0.0635 0.106764138
v -0.08500001 0.0597500019 0.110000007
v -0.08500001 0.0550000034 0.11500001
v -0.08500001 0.0635 0.11500001
v -0.0550000034 0.0550000034 0.11500001
v -0.0550000034 0.0645000041 0.11500001
v -0.0563336238 0.0635 0.11500001
v -0.07 0.0597500019 0.11500001
v -0.08500001 0.0635 0.11500001
v -0.08500001 0.0550000034 0.11500001
v -0.0816500038 0.0550000034 0.110000007
v -0.0816500038 0.0685 0.110000007
v -0.08162246 0.0685 0.110300243
v -0.08161373 0.0617500059 0.1103441
v -0.08162246 0.0550000034 0.110300243
v -0.0815341547 0.0685 0.110607363
v -0.0815341547 0.0550000034 0.110607363
v -0.08149702 0.0617500059 0.110693865
v -0.08138105 0.0685 0.110902905
v -0.08138105 0.0550000034 0.110902905
v -0.08129618 0.0617500059 0.11102099
v -0.08116673 0.0685 0.111166731
v -0.08116673 0.0550000034 0.111166731
v -0.08102098 0.0617500059 0.111296184
v -0.0809029043 0.0685 0.111381046
v -0.0809029043 0.0550000034 0.111381046
v -0.0806938559 0.0617500059 0.11149703
v -0.0806073546 0.0685 0.111534148
v -0.0806073546 0.0550000034 0.111534148
v -0.08034409 0.0617500059 0.111613728
v -0.08030024 0.0685 0.111622468
v -0.0800000057 0.0617500059 0.111650005
v -0.08030024 0.0550000034 0.111622468
v -0.0800000057 0.0685 0.111650005
v -0.0800000057 0.0550000034 0.111650005
v -0.07969976 0.0685 0.111622468
v -0.07969976 0.0550000034 0.111622468
v -0.07965593 0.0617500059 0.111613728
v -0.07939265 0.0685 0.111534148
v -0.07939265 0.0550000034 0.111534148
v -0.07939265 0.0617500059 0.111534148
v -0.07913785 0.0617500059 0.111406848
v -0.07909711 0.0685 0.111381046
v -0.07909711 0.0550000034 0.111381046
v -0.0789043 0.0617500059 0.111233667
v -0.07883328 0.0685 0.111166731
v -0.07883328 0.0550000034 0.111166731
v -0.07870383 0.0617500059 0.11102099
v -0.07861896 0.0685 0.110902905
v -0.07861896 0.0550000034 0.110902905
v -0.07854544 0.0617500059 0.110778958
v -0.07846586 0.0685 0.110607363
v -0.07846586 0.0550000034 0.110607363
v -0.07843406 0.0617500059 0.110519931
v -0.0783775449 0.0685 0.110300243
v -0.0783775449 0.0550000034 0.110300243
v -0.0783700645 0.0617500059 0.110256553
v -0.07835001 0.0685 0.110000007
v -0.07835001 0.0550000034 0.110000007
v -0.0783775449 0.0685 0.109699771
v -0.07838628 0.0617500059 0.109655924
v -0.0783775449 0.0550000034 0.109699771
v -0.07846586 0.0685 0.109392643
v -0.07846586 0.0550000034 0.109392643
v -0.07850298 0.0617500059 0.109306142
v -0.07861896 0.0685 0.1090971
v -0.07861896 0.0550000034 0.1090971
v -0.07870383 0.0617500059 0.108979017
v -0.07883328 0.0685 0.108833276
v -0.07883328 0.0550000034 0.108833276
v -0.0789790154 0.0617500059 0.108703829
v -0.07909711 0.0685 0.10861896
v -0.07909711 0.0550000034 0.10861896
v -0.07930614 0.0617500059 0.108502984
v -0.07939265 0.0685 0.108465858
v -0.07939265 0.0550000034 0.108465858
v -0.07965593 0.0617500059 0.108386286
v -0.07969976 0.0685 0.108377554
v -0.0800000057 0.0617500059 0.10835
v -0.07969976 0.0550000034 0.108377554
v -0.0800000057 0.0685 0.10835
v -0.0800000057 0.0550000034 0.10835
v -0.08030024 0.0685 0.108377554
v -0.08030024 0.0550000034 0.108377554
v -0.08034409 0.0617500059 0.108386286
v -0.0806073546 0.0685 0.108465858
v -0.0806073546 0.0550000034 0.108465858
v -0.0806073546 0.0617500059 0.108465858
v -0.08086216 0.0617500059 0.108593166
v -0.0809029043 0.0685 0.10861896
v -0.0809029043 0.0550000034 0.10861896
v -0.0810957 0.0617500059 0.10876634
v -0.08116673 0.0685 0.108833276
v -0.08116673 0.0550000034 0.108833276
v -0.08129618 0.0617500059 0.108979017
v -0.08138105 0.0685 0.1090971
v -0.08138105 0.0550000034 0.1090971
v -0.08145456 0.0617500059 0.109221049
v -0.0815341547 0.0685 0.109392643
v -0.0815341547 0.0550000034 0.109392643
v -0.08156595 0.0617500059 0.109480083
v -0.08162246 0.0685 0.109699771
v -0.08162246 0.0550000034 0.109699771
v -0.08162994 0.0617500059 0.109743461
v -0.0816500038 0.0685 0.110000007
v -0.0816500038 0.0550000034 0.110000007
v -0.0583500043 0.0685 0.110000007
v -0.05837755 0.0685 0.110300243
v -0.05785 0.0690000057 0.110000007
v -0.058196798 0.06875 0.1105987
v -0.0584658533 0.0685 0.110607363
v -0.0578859 0.0690000057 0.110391222
v -0.05800096 0.0690000057 0.110791408
v -0.0586189553 0.0685 0.110902905
v -0.0582004637 0.0690000057 0.111176506
v -0.05850743 0.06875 0.111175686
v -0.05883328 0.0685 0.111166731
v -0.05900722 0.06875 0.111619994
v -0.0584797226 0.0690000057 0.11152029
v -0.0590971075 0.0685 0.111381046
v -0.0588235036 0.0690000057 0.111799538
v -0.059392646 0.0685 0.111534148
v -0.0592086 0.0690000057 0.11199905
v -0.0596037842 0.06875 0.111858234
v -0.05969976 0.0685 0.111622468
v -0.0600000024 0.06875 0.1119
v -0.05960878 0.0690000057 0.112114109
v -0.0600000024 0.0685 0.111650005
v -0.0600000024 0.0690000057 0.112150006
v -0.0603002459 0.0685 0.111622468
v -0.0603912249 0.0690000057 0.112114109
v -0.0603962243 0.06875 0.111858234
v -0.06060736 0.0685 0.111534148
v -0.0607914068 0.0690000057 0.11199905
v -0.06079899 0.06875 0.111723848
v -0.0609029 0.0685 0.111381046
v -0.0611765 0.0690000057 0.111799538
v -0.06117569 0.06875 0.111492574
v -0.06116673 0.0685 0.111166731
v -0.0615202822 0.0690000057 0.11152029
v -0.0614925772 0.06875 0.111175686
v -0.06138105 0.0685 0.110902905
v -0.0617995448 0.0690000057 0.111176506
v -0.0617238432 0.06875 0.110798992
v -0.0615341552 0.0685 0.110607363
v -0.0619990453 0.0690000057 0.110791408
v -0.06185823 0.06875 0.110396221
v -0.0616224557 0.0685 0.110300243
v -0.06211411 0.0690000057 0.110391222
v -0.06165 0.0685 0.110000007
v -0.0621500053 0.0690000057 0.110000007
v -0.06165 0.0550000034 0.110000007
v -0.06165 0.0685 0.110000007
v -0.0616224557 0.0685 0.110300243
v -0.06161373 0.0617500059 0.1103441
v -0.0616224557 0.0550000034 0.110300243
v -0.0615341552 0.0685 0.110607363
v -0.0615341552 0.0550000034 0.110607363
v -0.0614970177 0.0617500059 0.110693865
v -0.06138105 0.0685 0.110902905
v -0.06138105 0.0550000034 0.110902905
v -0.0612961836 0.0617500059 0.11102099
v -0.06116673 0.0685 0.111166731
v -0.06116673 0.0550000034 0.111166731
v -0.0610209927 0.0617500059 0.111296184
v -0.0609029 0.0685 0.111381046
v -0.0609029 0.0550000034 0.111381046
v -0.0606938638 0.0617500059 0.11149703
v -0.06060736 0.0685 0.111534148
v -0.06060736 0.0550000034 0.111534148
v -0.06034408 0.0617500059 0.111613728
v -0.0603002459 0.0685 0.111622468
v -0.0600000024 0.0617500059 0.111650005
v -0.0603002459 0.0550000034 0.111622468
v -0.0600000024 0.0685 0.111650005
v -0.0600000024 0.0550000034 0.111650005
v -0.05969976 0.0685 0.111622468
v -0.05969976 0.0550000034 0.111622468
v -0.0596559234 0.0617500059 0.111613728
v -0.059392646 0.0685 0.111534148
v -0.059392646 0.0550000034 0.111534148
v -0.059392646 0.0617500059 0.111534148
v -0.0591378473 0.0617500059 0.111406848
v -0.0590971075 0.0685 0.111381046
v -0.0590971075 0.0550000034 0.111381046
v -0.0589042976 0.0617500059 0.111233667
v -0.05883328 0.0685 0.111166731
v -0.05883328 0.0550000034 0.111166731
v -0.0587038249 0.0617500059 0.11102099
v -0.0586189553 0.0685 0.110902905
v -0.0586189553 0.0550000034 0.110902905
v -0.05854544 0.0617500059 0.110778958
v -0.0584658533 0.0685 0.110607363
v -0.0584658533 0.0550000034 0.110607363
v -0.05843406 0.0617500059 0.110519931
v -0.05837755 0.0685 0.110300243
v -0.05837755 0.0550000034 0.110300243
v -0.05837007 0.0617500059 0.110256553
v -0.0583500043 0.0685 0.110000007
v -0.0583500043 0.0550000034 0.110000007
v -0.05837755 0.0685 0.109699771
v -0.0583862737 0.0617500059 0.109655924
v -0.05837755 0.0550000034 0.109699771
v -0.0584658533 0.0685 0.109392643
v -0.0584658533 0.0550000034 0.109392643
v -0.058502987 0.0617500059 0.109306142
v -0.0586189553 0.0685 0.1090971
v -0.0586189553 0.0550000034 0.1090971
v -0.0587038249 0.0617500059 0.108979017
v -0.05883328 0.0685 0.108833276
v -0.05883328 0.0550000034 0.108833276
v -0.0589790158 0.0617500059 0.108703829
v -0.0590971075 0.0685 0.10861896
v -0.0590971075 0.0550000034 0.10861896
v -0.05930614 0.0617500059 0.108502984
v -0.059392646 0.0685 0.108465858
v -0.059392646 0.0550000034 0.108465858
v -0.0596559234 0.0617500059 0.108386286
v -0.05969976 0.0685 0.108377554
v -0.0600000024 0.0617500059 0.10835
v -0.05969976 0.0550000034 0.108377554
v -0.0600000024 0.0685 0.10835
v -0.0600000024 0.0550000034 0.10835
v -0.0603002459 0.0685 0.108377554
v -0.0603002459 0.0550000034 0.108377554
v -0.06034408 0.0617500059 0.108386286
v -0.06060736 0.0685 0.108465858
v -0.06060736 0.0550000034 0.108465858
v -0.06060736 0.0617500059 0.108465858
v -0.0608621575 0.0617500059 0.108593166
v -0.0609029 0.0685 0.10861896
v -0.0609029 0.0550000034 0.10861896
v -0.0610957071 0.0617500059 0.10876634
v -0.06116673 0.0685 0.108833276
v -0.06116673 0.0550000034 0.108833276
v -0.0612961836 0.0617500059 0.108979017
v -0.06138105 0.0685 0.1090971
v -0.06138105 0.0550000034 0.1090971
v -0.0614545643 0.0617500059 0.109221049
v -0.0615341552 0.0685 0.109392643
v -0.0615341552 0.0550000034 0.109392643
v -0.0615659431 0.0617500059 0.109480083
v -0.0616224557 0.0685 0.109699771
v -0.0616224557 0.0550000034 0.109699771
v -0.0616299361 0.0617500059 0.109743461
v -0.06165 0.0685 0.110000007
v -0.06165 0.0550000034 0.110000007
v -0.113350004 0.0685 0.167000011
v -0.113377556 0.0685 0.167300254
v -0.11285 0.0690000057 0.167000011
v -0.113196805 0.06875 0.167598709
v -0.11346586 0.0685 0.167607367
v -0.1128859 0.0690000057 0.167391226
v -0.113000959 0.0690000057 0.167791411
v -0.113618962 0.0685 0.167902887
v -0.113200471 0.0690000057 0.1681765
v -0.113507435 0.06875 0.168175682
v -0.113833278 0.0685 0.168166742
v -0.11400722 0.06875 0.16861999
v -0.113479726 0.0690000057 0.168520287
v -0.1140971 0.0685 0.16838105
v -0.1138235 0.0690000057 0.168799534
v -0.114392646 0.0685 0.168534145
v -0.1142086 0.0690000057 0.168999046
v -0.114603788 0.06875 0.16885823
v -0.114699766 0.0685 0.168622464
v -0.11500001 0.06875 0.168900013
v -0.114608787 0.0690000057 0.169114113
v -0.11500001 0.0685 0.16865
v -0.11500001 0.0690000057 0.16915001
v -0.115300238 0.0685 0.168622464
v -0.115391225 0.0690000057 0.169114113
v -0.115396224 0.06875 0.16885823
v -0.115607366 0.0685 0.168534145
v -0.11579141 0.0690000057 0.168999046
v -0.115798995 0.06875 0.168723837
v -0.115902908 0.0685 0.16838105
v -0.1161765 0.0690000057 0.168799534
v -0.116175681 0.06875 0.168492571
v -0.116166733 0.0685 0.168166742
v -0.116520286 0.0690000057 0.168520287
v -0.116492577 0.06875 0.168175682
v -0.116381049 0.0685 0.167902887
v -0.116799541 0.0690000057 0.1681765
v -0.11672385 0.06875 0.167799
v -0.116534151 0.0685 0.167607367
v -0.116999045 0.0690000057 0.167791411
v -0.116858229 0.06875 0.167396232
v -0.116622463 0.0685 0.167300254
v -0.117114112 0.0690000057 0.167391226
v -0.116650008 0.0685 0.167000011
v -0.117150009 0.0690000057 0.167000011
v -0.116650008 0.0685 0.167000011
v -0.116650008 0.0645000041 0.167000011
v -0.116622463 0.0645000041 0.166699752
v -0.116613731 0.0665 0.166655928
v -0.116622463 0.0685 0.166699752
v -0.116534151 0.0645000041 0.166392654
v -0.116534151 0.0685 0.166392654
v -0.116497025 0.0665 0.166306138
v -0.116381049 0.0645000041 0.166097119
v -0.116381049 0.0685 0.166097119
v -0.116296187 0.0665 0.165979
v -0.116166733 0.0645000041 0.1658333
v -0.116166733 0.0685 0.1658333
v -0.116020992 0.0665 0.165703818
v -0.115902908 0.0645000041 0.165618956
v -0.115902908 0.0685 0.165618956
v -0.115693867 0.0665 0.165503
v -0.115607366 0.0645000041 0.165465862
v -0.115607366 0.0685 0.165465862
v -0.115344085 0.0665 0.165386289
v -0.115300238 0.0645000041 0.165377557
v -0.11500001 0.0665 0.16535
v -0.115300238 0.0685 0.165377557
v -0.11500001 0.0645000041 0.16535
v -0.11500001 0.0685 0.16535
v -0.114699766 0.0645000041 0.165377557
v -0.114699766 0.0685 0.165377557
v -0.114655927 0.0665 0.165386289
v -0.114392646 0.0645000041 0.165465862
v -0.114392646 0.0685 0.165465862
v -0.114392646 0.0665 0.165465862
v -0.114137858 0.0665 0.165593177
v -0.1140971 0.0645000041 0.165618956
v -0.1140971 0.0685 0.165618956
v -0.1139043 0.0665 0.165766343
v -0.113833278 0.0645000041 0.1658333
v -0.113833278 0.0685 0.1658333
v -0.113703832 0.0665 0.165979
v -0.113618962 0.0645000041 0.166097119
v -0.113618962 0.0685 0.166097119
v -0.113545448 0.0665 0.166221052
v -0.11346586 0.0645000041 0.166392654
v -0.11346586 0.0685 0.166392654
v -0.113434061 0.0665 0.1664801
v -0.113377556 0.0645000041 0.166699752
v -0.113377556 0.0685 0.166699752
v -0.113370076 0.0665 0.166743457
v -0.113350004 0.0645000041 0.167000011
v -0.113350004 0.0685 0.167000011
v -0.113377556 0.0645000041 0.167300254
v -0.113386281 0.0665 0.167344078
v -0.113377556 0.0685 0.167300254
v -0.11346586 0.0645000041 0.167607367
v -0.11346586 0.0685 0.167607367
v -0.113502979 0.0665 0.167693868
v -0.113618962 0.0645000041 0.167902887
v -0.113618962 0.0685 0.167902887
v -0.113703832 0.0665 0.168021008
v -0.113833278 0.0645000041 0.168166742
v -0.113833278 0.0685 0.168166742
v -0.113979019 0.0665 0.168296188
v -0.1140971 0.0645000041 0.16838105
v -0.1140971 0.0685 0.16838105
v -0.114306144 0.0665 0.168497026
v -0.114392646 0.0645000041 0.168534145
v -0.114392646 0.0685 0.168534145
v -0.114655927 0.0665 0.168613732
v -0.114699766 0.0645000041 0.168622464
v -0.11500001 0.0665 0.16865
v -0.114699766 0.0685 0.168622464
v -0.11500001 0.0645000041 0.16865
v -0.11500001 0.0685 0.16865
v -0.115300238 0.0645000041 0.168622464
v -0.115300238 0.0685 0.168622464
v -0.115344085 0.0665 0.168613732
v -0.115607366 0.0645000041 0.168534145
v -0.115607366 0.0685 0.168534145
v -0.115607366 0.0665 0.168534145
v -0.115862153 0.0665 0.168406829
v -0.115902908 0.0645000041 0.16838105
v -0.115902908 0.0685 0.16838105
v -0.116095707 0.0665 0.168233663
v -0.116166733 0.0645000041 0.168166742
v -0.116166733 0.0685 0.168166742
v -0.116296187 0.0665 0.168021008
v -0.116381049 0.0645000041 0.167902887
v -0.116381049 0.0685 0.167902887
v -0.116454557 0.0665 0.167778954
v -0.116534151 0.0645000041 0.167607367
v -0.116534151 0.0685 0.167607367
v -0.116565943 0.0665 0.167519912
v -0.116622463 0.0645000041 0.167300254
v -0.116622463 0.0685 0.167300254
v -0.116629936 0.0665 0.167256564
v -0.116650008 0.0645000041 0.167000011
v -0.116650008 0.0685 0.167000011
v -0.06962721 0.0690000057 0.1308218
v -0.0703329444 0.0695 0.1308659
v -0.0695831 0.0685 0.131527528
v -0.06266647 0.06881516 0.123212345
v -0.0550000034 0.0685 0.11500001
v -0.0555000044 0.0690000057 0.114810951
v -0.09878267 0.0695 0.16310893
v -0.098738566 0.0690000057 0.163814664
v -0.09803284 0.0685 0.163770542
v -0.102207452 0.06890224 0.167893842
v -0.106382079 0.0690000057 0.1724773
v -0.106007159 0.0685 0.172808111
v -0.122000009 0.0690000057 0.161054015
v -0.121949606 0.0690000057 0.16038239
v -0.1225 0.0685 0.161054015
v -0.122035965 0.06875 0.159644216
v -0.121797234 0.0690000057 0.159718424
v -0.122444004 0.0685 0.160307765
v -0.121546388 0.0690000057 0.15908508
v -0.122274712 0.0685 0.159570038
v -0.121207207 0.0690000057 0.1585032
v -0.121995993 0.0685 0.158866286
v -0.121619113 0.0685 0.15821977
v -0.0550000034 0.0645000041 0.11500001
v -0.0550000034 0.0685 0.11500001
v -0.0695831 0.0685 0.131527528
v -0.07289121 0.0645000041 0.13527672
v -0.07289121 0.074 0.13527672
v -0.0695831 0.079 0.131527528
v -0.0761993155 0.079 0.139025912
v -0.0761993155 0.074 0.139025912
v -0.106007159 0.0685 0.172808111
v -0.106007159 0.0645000041 0.172808111
v -0.09803284 0.0685 0.163770542
v -0.09472473 0.0645000041 0.160021365
v -0.09472473 0.074 0.160021365
v -0.09803284 0.079 0.163770542
v -0.09141662 0.079 0.156272173
v -0.09141662 0.074 0.156272173
v -0.05610799 0.064 0.115500011
v -0.0563336238 0.0635 0.11500001
v -0.0550000034 0.0645000041 0.11500001
v -0.06396766 0.06433627 0.124915883
v -0.07289121 0.0645000041 0.13527672
v -0.07293532 0.064 0.134570986
v -0.08500001 0.0635 0.106764138
v -0.0855 0.064 0.106608734
v -0.08500001 0.0645000041 0.105000004
v -0.103309564 0.06437841 0.1318244
v -0.121207207 0.064 0.1585032
v -0.121619113 0.0645000041 0.15821977
v -0.121207207 0.064 0.1585032
v -0.121546388 0.064 0.15908508
v -0.121619113 0.0645000041 0.15821977
v -0.122035965 0.06425001 0.159644216
v -0.121797234 0.064 0.159718424
v -0.121995993 0.0645000041 0.158866286
v -0.121949606 0.064 0.16038239
v -0.122274712 0.0645000041 0.159570038
v -0.122000009 0.064 0.161054015
v -0.122444004 0.0645000041 0.160307765
v -0.1225 0.0645000041 0.161054015
v -0.08188927 0.0645000041 0.127337247
v -0.08188927 0.074 0.127337247
v -0.08519738 0.074 0.131086439
v -0.09280603 0.07175 0.139709577
v -0.103722781 0.0645000041 0.1520819
v -0.08519738 0.079 0.131086439
v -0.100414671 0.074 0.148332715
v -0.103722781 0.074 0.1520819
v -0.100414671 0.079 0.148332715
v -0.113350004 0.0645000041 0.167000011
v -0.113377556 0.0645000041 0.166699752
v -0.11285 0.064 0.167000011
v -0.113196805 0.06425001 0.166401327
v -0.11346586 0.0645000041 0.166392654
v -0.1128859 0.064 0.166608781
v -0.113000959 0.064 0.1662086
v -0.113618962 0.0645000041 0.166097119
v -0.113200471 0.064 0.165823519
v -0.113507435 0.06425001 0.165824324
v -0.113833278 0.0645000041 0.1658333
v -0.11400722 0.06425001 0.165380016
v -0.113479726 0.064 0.16547972
v -0.1140971 0.0645000041 0.165618956
v -0.1138235 0.064 0.165200472
v -0.114392646 0.0645000041 0.165465862
v -0.1142086 0.064 0.165000975
v -0.114603788 0.06425001 0.165141791
v -0.114699766 0.0645000041 0.165377557
v -0.11500001 0.06425001 0.165100008
v -0.114608787 0.064 0.164885908
v -0.11500001 0.0645000041 0.16535
v -0.11500001 0.064 0.164850026
v -0.115300238 0.0645000041 0.165377557
v -0.115391225 0.064 0.164885908
v -0.115396224 0.06425001 0.165141791
v -0.115607366 0.0645000041 0.165465862
v -0.11579141 0.064 0.165000975
v -0.115798995 0.06425001 0.16527617
v -0.115902908 0.0645000041 0.165618956
v -0.1161765 0.064 0.165200472
v -0.116175681 0.06425001 0.165507436
v -0.116166733 0.0645000041 0.1658333
v -0.116520286 0.064 0.16547972
v -0.116492577 0.06425001 0.165824324
v -0.116381049 0.0645000041 0.166097119
v -0.116799541 0.064 0.165823519
v -0.11672385 0.06425001 0.166201025
v -0.116534151 0.0645000041 0.166392654
v -0.116999045 0.064 0.1662086
v -0.116858229 0.06425001 0.166603774
v -0.116622463 0.0645000041 0.166699752
v -0.117114112 0.064 0.166608781
v -0.116650008 0.0645000041 0.167000011
v -0.117150009 0.064 0.167000011
v -0.0855 0.064 0.106608734
v -0.0855 0.064 0.115500011
v -0.121207207 0.064 0.1585032
v -0.08193338 0.064 0.126631528
v -0.104428515 0.064 0.152126014
v -0.05610799 0.064 0.115500011
v -0.07293532 0.064 0.134570986
v -0.114608787 0.064 0.164885908
v -0.11500001 0.064 0.164850026
v -0.1142086 0.064 0.165000975
v -0.121546388 0.064 0.15908508
v -0.1138235 0.064 0.165200472
v -0.121797234 0.064 0.159718424
v -0.121949606 0.064 0.16038239
v -0.122000009 0.064 0.161054015
v -0.115391225 0.064 0.164885908
v -0.113479726 0.064 0.16547972
v -0.113200471 0.064 0.165823519
v -0.11579141 0.064 0.165000975
v -0.113000959 0.064 0.1662086
v -0.0954304561 0.064 0.160065457
v -0.1161765 0.064 0.165200472
v -0.106382079 0.064 0.1724773
v -0.116520286 0.064 0.16547972
v -0.1128859 0.064 0.166608781
v -0.116799541 0.064 0.165823519
v -0.116999045 0.064 0.1662086
v -0.117114112 0.064 0.166608781
v -0.11285 0.064 0.167000011
v -0.1128859 0.064 0.167391226
v -0.122000009 0.064 0.169500023
v -0.113000959 0.064 0.167791411
v -0.107075214 0.064 0.173114076
v -0.10790538 0.064 0.173601717
v -0.117150009 0.064 0.167000011
v -0.113200471 0.064 0.1681765
v -0.108820274 0.064 0.173901558
v -0.117114112 0.064 0.167391226
v -0.116999045 0.064 0.167791411
v -0.116799541 0.064 0.1681765
v -0.109756351 0.064 0.174
v -0.121924885 0.064 0.170318842
v -0.116520286 0.064 0.168520287
v -0.1161765 0.064 0.168799534
v -0.113479726 0.064 0.168520287
v -0.12168406 0.064 0.171156436
v -0.11579141 0.064 0.168999046
v -0.115391225 0.064 0.169114113
v -0.1138235 0.064 0.168799534
v -0.1142086 0.064 0.168999046
v -0.114608787 0.064 0.169114113
v -0.121266484 0.064 0.171962455
v -0.117500007 0.064 0.174
v -0.11500001 0.064 0.16915001
v -0.120681986 0.064 0.172681987
v -0.118318841 0.064 0.173924878
v -0.119962454 0.064 0.1732665
v -0.119156435 0.064 0.173684061
v -0.0985697 0.079 0.15417704
v -0.0985697 0.074 0.15417704
v -0.098553 0.074 0.153995067
v -0.09854772 0.076500006 0.1539685
v -0.098553 0.079 0.153995067
v -0.0984995 0.074 0.153808951
v -0.0984995 0.079 0.153808951
v -0.09847699 0.076500006 0.153756529
v -0.0984067 0.074 0.153629825
v -0.0984067 0.079 0.153629825
v -0.09835527 0.076500006 0.153558269
v -0.09827681 0.074 0.15346992
v -0.09827681 0.079 0.15346992
v -0.09818848 0.076500006 0.15339148
v -0.09811691 0.074 0.153340042
v -0.09811691 0.079 0.153340042
v -0.09799022 0.076500006 0.153269753
v -0.0979378 0.074 0.153247252
v -0.0979378 0.079 0.153247252
v -0.09777823 0.076500006 0.153199017
v -0.09775168 0.074 0.153193727
v -0.0975697041 0.076500006 0.153177038
v -0.09775168 0.079 0.153193727
v -0.0975697041 0.074 0.153177038
v -0.0975697041 0.079 0.153177038
v -0.09738774 0.074 0.153193727
v -0.09738774 0.079 0.153193727
v -0.09736117 0.076500006 0.153199017
v -0.09720161 0.074 0.153247252
v -0.09720161 0.079 0.153247252
v -0.09720161 0.076500006 0.153247252
v -0.09704718 0.076500006 0.15332441
v -0.0970224962 0.074 0.153340042
v -0.0970224962 0.079 0.153340042
v -0.09690564 0.076500006 0.153429359
v -0.0968626 0.074 0.15346992
v -0.0968626 0.079 0.15346992
v -0.0967841446 0.076500006 0.153558269
v -0.0967327058 0.074 0.153629825
v -0.0967327058 0.079 0.153629825
v -0.09668815 0.076500006 0.153704941
v -0.09663992 0.074 0.153808951
v -0.09663992 0.079 0.153808951
v -0.0966206342 0.076500006 0.153861925
v -0.09658639 0.074 0.153995067
v -0.09658639 0.079 0.153995067
v -0.09658187 0.076500006 0.154021561
v -0.0965697 0.074 0.15417704
v -0.0965697 0.079 0.15417704
v -0.09658639 0.074 0.154359013
v -0.09659168 0.076500006 0.154385582
v -0.09658639 0.079 0.154359013
v -0.09663992 0.074 0.154545128
v -0.09663992 0.079 0.154545128
v -0.09666242 0.076500006 0.154597551
v -0.0967327058 0.074 0.15472424
v -0.0967327058 0.079 0.15472424
v -0.0967841446 0.076500006 0.154795811
v -0.0968626 0.074 0.154884145
v -0.0968626 0.079 0.154884145
v -0.09695092 0.076500006 0.1549626
v -0.0970224962 0.074 0.155014038
v -0.0970224962 0.079 0.155014038
v -0.09714918 0.076500006 0.155084312
v -0.09720161 0.074 0.155106828
v -0.09720161 0.079 0.155106828
v -0.09736117 0.076500006 0.155155048
v -0.09738774 0.074 0.155160338
v -0.0975697041 0.076500006 0.155177042
v -0.09738774 0.079 0.155160338
v -0.0975697041 0.074 0.155177042
v -0.0975697041 0.079 0.155177042
v -0.09775168 0.074 0.155160338
v -0.09775168 0.079 0.155160338
v -0.09777823 0.076500006 0.155155048
v -0.0979378 0.074 0.155106828
v -0.0979378 0.079 0.155106828
v -0.0979378 0.076500006 0.155106828
v -0.09809222 0.076500006 0.155029669
v -0.09811691 0.074 0.155014038
v -0.09811691 0.079 0.155014038
v -0.0982337743 0.076500006 0.154924721
v -0.09827681 0.074 0.154884145
v -0.09827681 0.079 0.154884145
v -0.09835527 0.076500006 0.154795811
v -0.0984067 0.074 0.15472424
v -0.0984067 0.079 0.15472424
v -0.09845126 0.076500006 0.154649138
v -0.0984995 0.074 0.154545128
v -0.0984995 0.079 0.154545128
v -0.09851876 0.076500006 0.15449214
v -0.098553 0.074 0.154359013
v -0.098553 0.079 0.154359013
v -0.09855755 0.076500006 0.154332519
v -0.0985697 0.074 0.15417704
v -0.0985697 0.079 0.15417704
v -0.0800442845 0.079 0.133181572
v -0.0800442845 0.074 0.133181572
v -0.0800275952 0.074 0.132999614
v -0.0800223053 0.076500006 0.13297303
v -0.0800275952 0.079 0.132999614
v -0.0799740851 0.074 0.132813483
v -0.0799740851 0.079 0.132813483
v -0.0799515843 0.076500006 0.132761061
v -0.07988129 0.074 0.132634372
v -0.07988129 0.079 0.132634372
v -0.07982986 0.076500006 0.1325628
v -0.0797514 0.074 0.132474467
v -0.0797514 0.079 0.132474467
v -0.07966308 0.076500006 0.132396013
v -0.0795915052 0.074 0.132344589
v -0.0795915052 0.079 0.132344589
v -0.07946482 0.076500006 0.1322743
v -0.07941239 0.074 0.132251784
v -0.07941239 0.079 0.132251784
v -0.07925283 0.076500006 0.132203564
v -0.07922626 0.074 0.132198274
v -0.0790443 0.076500006 0.13218157
v -0.07922626 0.079 0.132198274
v -0.0790443 0.074 0.13218157
v -0.0790443 0.079 0.13218157
v -0.0788623244 0.074 0.132198274
v -0.0788623244 0.079 0.132198274
v -0.07883577 0.076500006 0.132203564
v -0.0786762 0.074 0.132251784
v -0.0786762 0.079 0.132251784
v -0.0786762 0.076500006 0.132251784
v -0.07852178 0.076500006 0.132328942
v -0.07849708 0.074 0.132344589
v -0.07849708 0.079 0.132344589
v -0.07838023 0.076500006 0.132433891
v -0.0783371851 0.074 0.132474467
v -0.0783371851 0.079 0.132474467
v -0.07825873 0.076500006 0.1325628
v -0.0782073 0.074 0.132634372
v -0.0782073 0.079 0.132634372
v -0.0781627446 0.076500006 0.132709473
v -0.07811451 0.074 0.132813483
v -0.07811451 0.079 0.132813483
v -0.07809524 0.076500006 0.132866472
v -0.07806099 0.074 0.132999614
v -0.07806099 0.079 0.132999614
v -0.07805646 0.076500006 0.133026108
v -0.0780442953 0.074 0.133181572
v -0.0780442953 0.079 0.133181572
v -0.07806099 0.074 0.133363545
v -0.07806628 0.076500006 0.133390114
v -0.07806099 0.079 0.133363545
v -0.07811451 0.074 0.13354966
v -0.07811451 0.079 0.13354966
v -0.07813701 0.076500006 0.1336021
v -0.0782073 0.074 0.133728787
v -0.0782073 0.079 0.133728787
v -0.07825873 0.076500006 0.133800358
v -0.0783371851 0.074 0.133888692
v -0.0783371851 0.079 0.133888692
v -0.07842552 0.076500006 0.133967131
v -0.07849708 0.074 0.13401857
v -0.07849708 0.079 0.13401857
v -0.07862378 0.076500006 0.134088859
v -0.0786762 0.074 0.13411136
v -0.0786762 0.079 0.13411136
v -0.07883577 0.076500006 0.1341596
v -0.0788623244 0.074 0.134164885
v -0.0790443 0.076500006 0.134181574
v -0.0788623244 0.079 0.134164885
v -0.0790443 0.074 0.134181574
v -0.0790443 0.079 0.134181574
v -0.07922626 0.074 0.134164885
v -0.07922626 0.079 0.134164885
v -0.07925283 0.076500006 0.1341596
v -0.07941239 0.074 0.13411136
v -0.07941239 0.079 0.13411136
v -0.07941239 0.076500006 0.13411136
v -0.07956681 0.076500006 0.1340342
v -0.0795915052 0.074 0.13401857
v -0.0795915052 0.079 0.13401857
v -0.07970836 0.076500006 0.133929253
v -0.0797514 0.074 0.133888692
v -0.0797514 0.079 0.133888692
v -0.07982986 0.076500006 0.133800358
v -0.07988129 0.074 0.133728787
v -0.07988129 0.079 0.133728787
v -0.07992584 0.076500006 0.133653671
v -0.0799740851 0.074 0.13354966
v -0.0799740851 0.079 0.13354966
v -0.07999335 0.076500006 0.133496687
v -0.0800275952 0.074 0.133363545
v -0.0800275952 0.079 0.133363545
v -0.08003213 0.076500006 0.133337051
v -0.0800442845 0.074 0.133181572
v -0.0800442845 0.079 0.133181572
v -0.0584658533 0.0550000034 0.109392643
v -0.0550000034 0.0550000034 0.105000004
v -0.05837755 0.0550000034 0.109699771
v -0.0586189553 0.0550000034 0.1090971
v -0.05883328 0.0550000034 0.108833276
v -0.0590971075 0.0550000034 0.10861896
v -0.059392646 0.0550000034 0.108465858
v -0.05969976 0.0550000034 0.108377554
v -0.0600000024 0.0550000034 0.10835
v -0.0583500043 0.0550000034 0.110000007
v -0.0603002459 0.0550000034 0.108377554
v -0.0550000034 0.0550000034 0.11500001
v -0.05837755 0.0550000034 0.110300243
v -0.0584658533 0.0550000034 0.110607363
v -0.0586189553 0.0550000034 0.110902905
v -0.05883328 0.0550000034 0.111166731
v -0.0590971075 0.0550000034 0.111381046
v -0.059392646 0.0550000034 0.111534148
v -0.05969976 0.0550000034 0.111622468
v -0.0600000024 0.0550000034 0.111650005
v -0.0603002459 0.0550000034 0.111622468
v -0.07 0.0550000034 0.10835
v -0.06060736 0.0550000034 0.108465858
v -0.0609029 0.0550000034 0.10861896
v -0.06116673 0.0550000034 0.108833276
v -0.06138105 0.0550000034 0.1090971
v -0.0615341552 0.0550000034 0.109392643
v -0.08500001 0.0550000034 0.105000004
v -0.07 0.0550000034 0.110000007
v -0.0616224557 0.0550000034 0.109699771
v -0.06165 0.0550000034 0.110000007
v -0.0616224557 0.0550000034 0.110300243
v -0.0615341552 0.0550000034 0.110607363
v -0.06138105 0.0550000034 0.110902905
v -0.06116673 0.0550000034 0.111166731
v -0.0609029 0.0550000034 0.111381046
v -0.06060736 0.0550000034 0.111534148
v -0.07939265 0.0550000034 0.111534148
v -0.07909711 0.0550000034 0.111381046
v -0.07883328 0.0550000034 0.111166731
v -0.07969976 0.0550000034 0.111622468
v -0.07861896 0.0550000034 0.110902905
v -0.08500001 0.0550000034 0.11500001
v -0.0800000057 0.0550000034 0.111650005
v -0.08030024 0.0550000034 0.111622468
v -0.0806073546 0.0550000034 0.111534148
v -0.07846586 0.0550000034 0.110607363
v -0.0809029043 0.0550000034 0.111381046
v -0.0783775449 0.0550000034 0.110300243
v -0.08116673 0.0550000034 0.111166731
v -0.07835001 0.0550000034 0.110000007
v -0.0783775449 0.0550000034 0.109699771
v -0.07846586 0.0550000034 0.109392643
v -0.08138105 0.0550000034 0.110902905
v -0.0815341547 0.0550000034 0.110607363
v -0.08162246 0.0550000034 0.110300243
v -0.0816500038 0.0550000034 0.110000007
v -0.08162246 0.0550000034 0.109699771
v -0.0815341547 0.0550000034 0.109392643
v -0.08138105 0.0550000034 0.1090971
v -0.07861896 0.0550000034 0.1090971
v -0.08116673 0.0550000034 0.108833276
v -0.07883328 0.0550000034 0.108833276
v -0.0809029043 0.0550000034 0.10861896
v -0.07909711 0.0550000034 0.10861896
v -0.07939265 0.0550000034 0.108465858
v -0.07969976 0.0550000034 0.108377554
v -0.0806073546 0.0550000034 0.108465858
v -0.0800000057 0.0550000034 0.10835
v -0.08030024 0.0550000034 0.108377554
v -0.0959156454 0.076500006 0.152302444
v -0.09141662 0.079 0.156272173
v -0.09141662 0.074 0.156272173
v -0.100414671 0.074 0.148332715
v -0.100414671 0.079 0.148332715
v -0.100414671 0.079 0.148332715
v -0.0984995 0.079 0.153808951
v -0.0984067 0.079 0.153629825
v -0.09827681 0.079 0.15346992
v -0.09811691 0.079 0.153340042
v -0.0979378 0.079 0.153247252
v -0.09775168 0.079 0.153193727
v -0.0975697041 0.079 0.153177038
v -0.09738774 0.079 0.153193727
v -0.09720161 0.079 0.153247252
v -0.0970224962 0.079 0.153340042
v -0.098553 0.079 0.153995067
v -0.0968626 0.079 0.15346992
v -0.109280415 0.079 0.153846219
v -0.0985697 0.079 0.15417704
v -0.098553 0.079 0.154359013
v -0.0984995 0.079 0.154545128
v -0.08083067 0.079 0.1216032
v -0.08519738 0.079 0.131086439
v -0.0984067 0.079 0.15472424
v -0.09803284 0.079 0.163770542
v -0.09827681 0.079 0.154884145
v -0.09141662 0.079 0.156272173
v -0.0967327058 0.079 0.153629825
v -0.09663992 0.079 0.153808951
v -0.09658639 0.079 0.153995067
v -0.0965697 0.079 0.15417704
v -0.09811691 0.079 0.155014038
v -0.09658639 0.079 0.154359013
v -0.0979378 0.079 0.155106828
v -0.09663992 0.079 0.154545128
v -0.09775168 0.079 0.155160338
v -0.0967327058 0.079 0.15472424
v -0.0975697041 0.079 0.155177042
v -0.09738774 0.079 0.155160338
v -0.09720161 0.079 0.155106828
v -0.0968626 0.079 0.154884145
v -0.0970224962 0.079 0.155014038
v -0.0799740851 0.079 0.132813483
v -0.07988129 0.079 0.132634372
v -0.0797514 0.079 0.132474467
v -0.0800275952 0.079 0.132999614
v -0.0795915052 0.079 0.132344589
v -0.0800442845 0.079 0.133181572
v -0.0800275952 0.079 0.133363545
v -0.0799740851 0.079 0.13354966
v -0.07988129 0.079 0.133728787
v -0.07941239 0.079 0.132251784
v -0.0797514 0.079 0.133888692
v -0.0761993155 0.079 0.139025912
v -0.07922626 0.079 0.132198274
v -0.0795915052 0.079 0.13401857
v -0.07941239 0.079 0.13411136
v -0.07922626 0.079 0.134164885
v -0.0790443 0.079 0.134181574
v -0.0788623244 0.079 0.134164885
v -0.0790443 0.079 0.13218157
v -0.0786762 0.079 0.13411136
v -0.0788623244 0.079 0.132198274
v -0.0786762 0.079 0.132251784
v -0.07849708 0.079 0.132344589
v -0.0695831 0.079 0.131527528
v -0.07849708 0.079 0.13401857
v -0.0783371851 0.079 0.132474467
v -0.0783371851 0.079 0.133888692
v -0.0782073 0.079 0.132634372
v -0.0782073 0.079 0.133728787
v -0.07811451 0.079 0.13354966
v -0.07806099 0.079 0.133363545
v -0.07811451 0.079 0.132813483
v -0.0780442953 0.079 0.133181572
v -0.07806099 0.079 0.132999614
v -0.08069835 0.076500006 0.135056168
v -0.08519738 0.079 0.131086439
v -0.08519738 0.074 0.131086439
v -0.0761993155 0.074 0.139025912
v -0.0761993155 0.079 0.139025912
v -0.0761993155 0.074 0.139025912
v -0.0795915052 0.074 0.13401857
v -0.07941239 0.074 0.13411136
v -0.07922626 0.074 0.134164885
v -0.0790443 0.074 0.134181574
v -0.0788623244 0.074 0.134164885
v -0.0786762 0.074 0.13411136
v -0.07849708 0.074 0.13401857
v -0.0797514 0.074 0.133888692
v -0.0783371851 0.074 0.133888692
v -0.08519738 0.074 0.131086439
v -0.07988129 0.074 0.133728787
v -0.0799740851 0.074 0.13354966
v -0.07289121 0.074 0.13527672
v -0.0782073 0.074 0.133728787
v -0.07811451 0.074 0.13354966
v -0.0800275952 0.074 0.133363545
v -0.07806099 0.074 0.133363545
v -0.0800442845 0.074 0.133181572
v -0.0780442953 0.074 0.133181572
v -0.0800275952 0.074 0.132999614
v -0.07806099 0.074 0.132999614
v -0.0799740851 0.074 0.132813483
v -0.07988129 0.074 0.132634372
v -0.0797514 0.074 0.132474467
v -0.08188927 0.074 0.127337247
v -0.0795915052 0.074 0.132344589
v -0.07941239 0.074 0.132251784
v -0.07811451 0.074 0.132813483
v -0.0782073 0.074 0.132634372
v -0.0783371851 0.074 0.132474467
v -0.07922626 0.074 0.132198274
v -0.07849708 0.074 0.132344589
v -0.0790443 0.074 0.13218157
v -0.0786762 0.074 0.132251784
v -0.0788623244 0.074 0.132198274
v -0.09472473 0.074 0.160021365
v -0.09811691 0.074 0.155014038
v -0.0979378 0.074 0.155106828
v -0.09775168 0.074 0.155160338
v -0.0975697041 0.074 0.155177042
v -0.09738774 0.074 0.155160338
v -0.09720161 0.074 0.155106828
v -0.0970224962 0.074 0.155014038
v -0.09827681 0.074 0.154884145
v -0.0968626 0.074 0.154884145
v -0.103722781 0.074 0.1520819
v -0.0984067 0.074 0.15472424
v -0.0984995 0.074 0.154545128
v -0.09141662 0.074 0.156272173
v -0.0967327058 0.074 0.15472424
v -0.09663992 0.074 0.154545128
v -0.098553 0.074 0.154359013
v -0.09658639 0.074 0.154359013
v -0.0985697 0.074 0.15417704
v -0.0965697 0.074 0.15417704
v -0.098553 0.074 0.153995067
v -0.09658639 0.074 0.153995067
v -0.0984995 0.074 0.153808951
v -0.0984067 0.074 0.153629825
v -0.09827681 0.074 0.15346992
v -0.100414671 0.074 0.148332715
v -0.09811691 0.074 0.153340042
v -0.0979378 0.074 0.153247252
v -0.09663992 0.074 0.153808951
v -0.0967327058 0.074 0.153629825
v -0.0968626 0.074 0.15346992
v -0.09775168 0.074 0.153193727
v -0.0970224962 0.074 0.153340042
v -0.0975697041 0.074 0.153177038
v -0.09720161 0.074 0.153247252
v -0.09738774 0.074 0.153193727
v -0.09922376 0.06925 0.156051636
v -0.09472473 0.074 0.160021365
v -0.09472473 0.0645000041 0.160021365
v -0.103722781 0.0645000041 0.1520819
v -0.103722781 0.074 0.1520819
v -0.07739024 0.06925 0.131306976
v -0.08188927 0.0645000041 0.127337247
v -0.07289121 0.0645000041 0.13527672
v -0.07289121 0.074 0.13527672
v -0.08188927 0.074 0.127337247
v -0.1005534 0.06433627 0.166379735
v -0.106007159 0.0645000041 0.172808111
v -0.106382079 0.064 0.1724773
v -0.0954304561 0.064 0.160065457
v -0.09472473 0.0645000041 0.160021365
v -0.106926262 0.06425001 0.173314869
v -0.106007159 0.0645000041 0.172808111
v -0.10677731 0.0645000041 0.173515663
v -0.106382079 0.064 0.1724773
v -0.107699715 0.0645000041 0.174057454
v -0.107075214 0.064 0.173114076
v -0.107802555 0.06425001 0.173829585
v -0.108716264 0.0645000041 0.174390644
v -0.10790538 0.064 0.173601717
v -0.108768269 0.06425001 0.174146116
v -0.109756351 0.0645000041 0.174500018
v -0.108820274 0.064 0.173901558
v -0.109756351 0.064 0.174
v -0.113628171 0.06425001 0.17425
v -0.117500007 0.064 0.174
v -0.109756351 0.064 0.174
v -0.109756351 0.0645000041 0.174500018
v -0.117500007 0.0645000041 0.174500018
v -0.118364327 0.06425001 0.174170718
v -0.117500007 0.0645000041 0.174500018
v -0.118409827 0.0645000041 0.174416527
v -0.117500007 0.064 0.174
v -0.119340487 0.0645000041 0.174148962
v -0.118318841 0.064 0.173924878
v -0.11924845 0.06425001 0.1739165
v -0.120236062 0.0645000041 0.173684984
v -0.119156435 0.064 0.173684061
v -0.120099254 0.06425001 0.173475727
v -0.121035546 0.0645000041 0.173035547
v -0.119962454 0.064 0.1732665
v -0.120858766 0.06425001 0.17285876
v -0.121684983 0.0645000041 0.172236055
v -0.120681986 0.064 0.172681987
v -0.121475726 0.06425001 0.172099248
v -0.122148953 0.0645000041 0.17134048
v -0.121266484 0.064 0.171962455
v -0.1219165 0.06425001 0.171248466
v -0.122416534 0.0645000041 0.170409828
v -0.12168406 0.064 0.171156436
v -0.1221707 0.06425001 0.17036432
v -0.1225 0.0645000041 0.169500023
v -0.121924885 0.064 0.170318842
v -0.122000009 0.064 0.169500023
v -0.122250013 0.06425001 0.165277
v -0.122000009 0.064 0.161054015
v -0.122000009 0.064 0.169500023
v -0.1225 0.0645000041 0.169500023
v -0.1225 0.0645000041 0.161054015
v -0.09957662 0.06425001 0.156073689
v -0.09472473 0.0645000041 0.160021365
v -0.0954304561 0.064 0.160065457
v -0.104428515 0.064 0.152126014
v -0.103722781 0.0645000041 0.1520819
v -0.08188927 0.0645000041 0.127337247
v -0.0931588858 0.06407747 0.13947086
v -0.08193338 0.064 0.126631528
v -0.103722781 0.0645000041 0.1520819
v -0.104428515 0.064 0.152126014
v -0.07289121 0.0645000041 0.13527672
v -0.07741229 0.06425001 0.130954117
v -0.07293532 0.064 0.134570986
v -0.08188927 0.0645000041 0.127337247
v -0.08193338 0.064 0.126631528
v -0.10677731 0.0665 0.173515663
v -0.106007159 0.0685 0.172808111
v -0.10677731 0.0685 0.173515663
v -0.106007159 0.0645000041 0.172808111
v -0.107699715 0.0685 0.174057454
v -0.10677731 0.0645000041 0.173515663
v -0.107699715 0.0665 0.174057454
v -0.108716264 0.0685 0.174390644
v -0.107699715 0.0645000041 0.174057454
v -0.108716264 0.0665 0.174390644
v -0.109756351 0.0685 0.174500018
v -0.108716264 0.0645000041 0.174390644
v -0.109756351 0.0645000041 0.174500018
v -0.113628171 0.0665 0.174500018
v -0.109756351 0.0685 0.174500018
v -0.117500007 0.0685 0.174500018
v -0.117500007 0.0645000041 0.174500018
v -0.109756351 0.0645000041 0.174500018
v -0.118409827 0.0665 0.174416527
v -0.117500007 0.0685 0.174500018
v -0.118409827 0.0685 0.174416527
v -0.117500007 0.0645000041 0.174500018
v -0.119340487 0.0685 0.174148962
v -0.118409827 0.0645000041 0.174416527
v -0.119340487 0.0665 0.174148962
v -0.120236062 0.0685 0.173684984
v -0.119340487 0.0645000041 0.174148962
v -0.120236062 0.0665 0.173684984
v -0.121035546 0.0685 0.173035547
v -0.120236062 0.0645000041 0.173684984
v -0.121035546 0.0665 0.173035547
v -0.121684983 0.0685 0.172236055
v -0.121035546 0.0645000041 0.173035547
v -0.121684983 0.0665 0.172236055
v -0.122148953 0.0685 0.17134048
v -0.121684983 0.0645000041 0.172236055
v -0.122148953 0.0665 0.17134048
v -0.122416534 0.0685 0.170409828
v -0.122148953 0.0645000041 0.17134048
v -0.122416534 0.0665 0.170409828
v -0.1225 0.0685 0.169500023
v -0.122416534 0.0645000041 0.170409828
v -0.1225 0.0645000041 0.169500023
v -0.1225 0.0665 0.165277
v -0.1225 0.0685 0.169500023
v -0.1225 0.0685 0.161054015
v -0.1225 0.0645000041 0.161054015
v -0.1225 0.0645000041 0.169500023
v -0.122444004 0.0665 0.160307765
v -0.1225 0.0685 0.161054015
v -0.122444004 0.0685 0.160307765
v -0.1225 0.0645000041 0.161054015
v -0.122274712 0.0685 0.159570038
v -0.122444004 0.0645000041 0.160307765
v -0.122274712 0.0665 0.159570038
v -0.121995993 0.0685 0.158866286
v -0.122274712 0.0645000041 0.159570038
v -0.121995993 0.0665 0.158866286
v -0.121619113 0.0685 0.15821977
v -0.121995993 0.0645000041 0.158866286
v -0.121619113 0.0645000041 0.15821977
v -0.103309564 0.0665 0.1316099
v -0.121619113 0.0685 0.15821977
v -0.08500001 0.0685 0.105000004
v -0.08500001 0.0645000041 0.105000004
v -0.121619113 0.0645000041 0.15821977
v -0.08500001 0.0645000041 0.105000004
v -0.07 0.0617500059 0.105000004
v -0.08500001 0.0550000034 0.105000004
v -0.08500001 0.0685 0.105000004
v -0.0550000034 0.0550000034 0.105000004
v -0.0550000034 0.0685 0.105000004
v -0.0550000034 0.0550000034 0.105000004
v -0.0550000034 0.0617500059 0.110000007
v -0.0550000034 0.0550000034 0.11500001
v -0.0550000034 0.0685 0.105000004
v -0.0550000034 0.0645000041 0.11500001
v -0.0550000034 0.0685 0.11500001
v -0.103178114 0.06870355 0.131777942
v -0.121619113 0.0685 0.15821977
v -0.121207207 0.0690000057 0.1585032
v -0.08473711 0.0690000057 0.105500005
v -0.08500001 0.0685 0.105000004
v -0.122250013 0.06875 0.165277
v -0.122000009 0.0690000057 0.169500023
v -0.122000009 0.0690000057 0.161054015
v -0.1225 0.0685 0.161054015
v -0.1225 0.0685 0.169500023
v -0.1225 0.0685 0.169500023
v -0.1221707 0.06875 0.17036432
v -0.122000009 0.0690000057 0.169500023
v -0.122416534 0.0685 0.170409828
v -0.121924885 0.0690000057 0.170318842
v -0.122148953 0.0685 0.17134048
v -0.1219165 0.06875 0.171248466
v -0.12168406 0.0690000057 0.171156436
v -0.121684983 0.0685 0.172236055
v -0.121475726 0.06875 0.172099248
v -0.121266484 0.0690000057 0.171962455
v -0.121035546 0.0685 0.173035547
v -0.120858766 0.06875 0.17285876
v -0.120681986 0.0690000057 0.172681987
v -0.120236062 0.0685 0.173684984
v -0.120099254 0.06875 0.173475727
v -0.119962454 0.0690000057 0.1732665
v -0.119340487 0.0685 0.174148962
v -0.11924845 0.06875 0.1739165
v -0.119156435 0.0690000057 0.173684061
v -0.118409827 0.0685 0.174416527
v -0.118364327 0.06875 0.174170718
v -0.118318841 0.0690000057 0.173924878
v -0.117500007 0.0685 0.174500018
v -0.117500007 0.0690000057 0.174
v -0.113628171 0.06875 0.17425
v -0.109756351 0.0690000057 0.174
v -0.117500007 0.0690000057 0.174
v -0.117500007 0.0685 0.174500018
v -0.109756351 0.0685 0.174500018
v -0.109756351 0.0685 0.174500018
v -0.108768269 0.06875 0.174146116
v -0.109756351 0.0690000057 0.174
v -0.108716264 0.0685 0.174390644
v -0.108820274 0.0690000057 0.173901558
v -0.107699715 0.0685 0.174057454
v -0.107802555 0.06875 0.173829585
v -0.10790538 0.0690000057 0.173601717
v -0.10677731 0.0685 0.173515663
v -0.106926262 0.06875 0.173314869
v -0.107075214 0.0690000057 0.173114076
v -0.106007159 0.0685 0.172808111
v -0.106382079 0.0690000057 0.1724773
v -0.07 0.06875 0.10525
v -0.08473711 0.0690000057 0.105500005
v -0.0555000044 0.0690000057 0.105500005
v -0.0550000034 0.0685 0.105000004
v -0.08500001 0.0685 0.105000004
v -0.0552500039 0.06875 0.110000007
v -0.0555000044 0.0690000057 0.105500005
v -0.0555000044 0.0690000057 0.114810951
v -0.0550000034 0.0685 0.11500001
v -0.0550000034 0.0685 0.105000004
v -0.09505554 0.0742500052 0.137724712
v -0.08083067 0.079 0.1216032
v -0.08083067 0.0695 0.1216032
v -0.109280415 0.0695 0.153846219
v -0.109280415 0.079 0.153846219
v -0.09540841 0.06907747 0.137486
v -0.109986141 0.0690000057 0.153890327
v -0.109280415 0.0695 0.153846219
v -0.08083067 0.0695 0.1216032
v -0.08087478 0.0690000057 0.120897472
v -0.08087478 0.0690000057 0.120897472
v -0.0788235 0.0690000057 0.111799538
v -0.079208605 0.0690000057 0.11199905
v -0.07960878 0.0690000057 0.112114109
v -0.0800000057 0.0690000057 0.112150006
v -0.08039123 0.0690000057 0.112114109
v -0.0807914138 0.0690000057 0.11199905
v -0.0811765045 0.0690000057 0.111799538
v -0.08152029 0.0690000057 0.11152029
v -0.0817995444 0.0690000057 0.111176506
v -0.08199905 0.0690000057 0.110791408
v -0.08473711 0.0690000057 0.105500005
v -0.08211411 0.0690000057 0.110391222
v -0.08215001 0.0690000057 0.110000007
v -0.08211411 0.0690000057 0.109608784
v -0.08199905 0.0690000057 0.1092086
v -0.0817995444 0.0690000057 0.108823508
v -0.08152029 0.0690000057 0.108479723
v -0.0811765045 0.0690000057 0.108200468
v -0.0807914138 0.0690000057 0.108000964
v -0.08039123 0.0690000057 0.1078859
v -0.0800000057 0.0690000057 0.10785
v -0.07960878 0.0690000057 0.1078859
v -0.109986141 0.0690000057 0.153890327
v -0.121207207 0.0690000057 0.1585032
v -0.079208605 0.0690000057 0.108000964
v -0.0555000044 0.0690000057 0.105500005
v -0.0607914068 0.0690000057 0.108000964
v -0.0788235 0.0690000057 0.108200468
v -0.0603912249 0.0690000057 0.1078859
v -0.0600000024 0.0690000057 0.10785
v -0.05960878 0.0690000057 0.1078859
v -0.0592086 0.0690000057 0.108000964
v -0.0611765 0.0690000057 0.108200468
v -0.07847972 0.0690000057 0.108479723
v -0.0615202822 0.0690000057 0.108479723
v -0.07820047 0.0690000057 0.108823508
v -0.0617995448 0.0690000057 0.108823508
v -0.0780009553 0.0690000057 0.1092086
v -0.0619990453 0.0690000057 0.1092086
v -0.077885896 0.0690000057 0.109608784
v -0.06211411 0.0690000057 0.109608784
v -0.07785001 0.0690000057 0.110000007
v -0.0621500053 0.0690000057 0.110000007
v -0.077885896 0.0690000057 0.110391222
v -0.06211411 0.0690000057 0.110391222
v -0.0780009553 0.0690000057 0.110791408
v -0.0619990453 0.0690000057 0.110791408
v -0.07820047 0.0690000057 0.111176506
v -0.0617995448 0.0690000057 0.111176506
v -0.07847972 0.0690000057 0.11152029
v -0.0615202822 0.0690000057 0.11152029
v -0.06962721 0.0690000057 0.1308218
v -0.0611765 0.0690000057 0.111799538
v -0.0607914068 0.0690000057 0.11199905
v -0.0603912249 0.0690000057 0.112114109
v -0.0555000044 0.0690000057 0.114810951
v -0.0600000024 0.0690000057 0.112150006
v -0.05960878 0.0690000057 0.112114109
v -0.0592086 0.0690000057 0.11199905
v -0.0588235036 0.0690000057 0.111799538
v -0.0584797226 0.0690000057 0.11152029
v -0.0582004637 0.0690000057 0.111176506
v -0.05800096 0.0690000057 0.110791408
v -0.0578859 0.0690000057 0.110391222
v -0.05785 0.0690000057 0.110000007
v -0.0578859 0.0690000057 0.109608784
v -0.05800096 0.0690000057 0.1092086
v -0.0582004637 0.0690000057 0.108823508
v -0.0584797226 0.0690000057 0.108479723
v -0.0588235036 0.0690000057 0.108200468
v -0.114608787 0.0690000057 0.164885908
v -0.1142086 0.0690000057 0.165000975
v -0.1138235 0.0690000057 0.165200472
v -0.113479726 0.0690000057 0.16547972
v -0.11500001 0.0690000057 0.164850026
v -0.113200471 0.0690000057 0.165823519
v -0.115391225 0.0690000057 0.164885908
v -0.098738566 0.0690000057 0.163814664
v -0.113000959 0.0690000057 0.1662086
v -0.1128859 0.0690000057 0.166608781
v -0.11579141 0.0690000057 0.165000975
v -0.106382079 0.0690000057 0.1724773
v -0.121546388 0.0690000057 0.15908508
v -0.11285 0.0690000057 0.167000011
v -0.1128859 0.0690000057 0.167391226
v -0.121797234 0.0690000057 0.159718424
v -0.121949606 0.0690000057 0.16038239
v -0.113000959 0.0690000057 0.167791411
v -0.122000009 0.0690000057 0.161054015
v -0.107075214 0.0690000057 0.173114076
v -0.10790538 0.0690000057 0.173601717
v -0.108820274 0.0690000057 0.173901558
v -0.113200471 0.0690000057 0.1681765
v -0.1161765 0.0690000057 0.165200472
v -0.109756351 0.0690000057 0.174
v -0.116520286 0.0690000057 0.16547972
v -0.113479726 0.0690000057 0.168520287
v -0.116799541 0.0690000057 0.165823519
v -0.116999045 0.0690000057 0.1662086
v -0.117114112 0.0690000057 0.166608781
v -0.1138235 0.0690000057 0.168799534
v -0.1142086 0.0690000057 0.168999046
v -0.114608787 0.0690000057 0.169114113
v -0.122000009 0.0690000057 0.169500023
v -0.117500007 0.0690000057 0.174
v -0.117150009 0.0690000057 0.167000011
v -0.11500001 0.0690000057 0.16915001
v -0.117114112 0.0690000057 0.167391226
v -0.116999045 0.0690000057 0.167791411
v -0.115391225 0.0690000057 0.169114113
v -0.11579141 0.0690000057 0.168999046
v -0.116799541 0.0690000057 0.1681765
v -0.1161765 0.0690000057 0.168799534
v -0.118318841 0.0690000057 0.173924878
v -0.119156435 0.0690000057 0.173684061
v -0.121924885 0.0690000057 0.170318842
v -0.12168406 0.0690000057 0.171156436
v -0.121266484 0.0690000057 0.171962455
v -0.116520286 0.0690000057 0.168520287
v -0.119962454 0.0690000057 0.1732665
v -0.120681986 0.0690000057 0.172681987
v -0.08500001 0.0635 0.11500001
v -0.070804 0.0637500063 0.115250006
v -0.0855 0.064 0.115500011
v -0.0563336238 0.0635 0.11500001
v -0.05610799 0.064 0.115500011
v -0.0855 0.064 0.115500011
v -0.08525 0.0637500063 0.111054368
v -0.08500001 0.0635 0.11500001
v -0.0855 0.064 0.106608734
v -0.08500001 0.0635 0.106764138
v -0.08087478 0.0690000057 0.120897472
v -0.075251 0.0691005662 0.125993744
v -0.06962721 0.0690000057 0.1308218
v -0.08083067 0.0695 0.1216032
v -0.0703329444 0.0695 0.1308659
v -0.098738566 0.0690000057 0.163814664
v -0.104362354 0.0691005662 0.158718377
v -0.109986141 0.0690000057 0.153890327
v -0.09878267 0.0695 0.16310893
v -0.109280415 0.0695 0.153846219
f 1 2 3
f 2 4 3
f 3 4 5
f 2 6 4
f 4 7 5
f 6 8 4
f 4 8 7
f 6 9 8
f 8 10 7
f 9 11 8
f 8 11 10
f 9 12 11
f 11 13 10
f 12 14 11
f 11 14 13
f 12 15 14
f 14 16 13
f 15 17 14
f 14 17 16
f 15 18 17
f 17 19 16
f 18 20 17
f 17 20 19
f 18 21 20
f 21 22 20
f 20 23 19
f 20 22 23
f 21 24 22
f 22 25 23
f 24 26 22
f 22 27 25
f 26 28 22
f 22 28 27
f 26 29 28
f 29 30 28
f 28 31 27
f 28 30 31
f 29 32 30
f 30 33 31
f 32 34 30
f 30 35 33
f 34 36 30
f 30 36 35
f 34 37 36
f 37 38 36
f 36 39 35
f 36 38 39
f 37 40 38
f 38 41 39
f 40 42 38
f 38 43 41
f 42 44 38
f 44 43 38
f 44 45 43
f 46 47 48
f 47 49 48
f 48 49 50
f 47 51 49
f 49 52 50
f 51 53 49
f 49 53 52
f 51 54 53
f 53 55 52
f 54 56 53
f 53 56 55
f 54 57 56
f 56 58 55
f 57 59 56
f 56 59 58
f 57 60 59
f 59 61 58
f 60 62 59
f 59 62 61
f 60 63 62
f 62 64 61
f 63 65 62
f 62 65 64
f 63 66 65
f 66 67 65
f 65 68 64
f 65 67 68
f 66 69 67
f 67 70 68
f 69 71 67
f 67 72 70
f 71 73 67
f 67 73 72
f 71 74 73
f 74 75 73
f 73 76 72
f 73 75 76
f 74 77 75
f 75 78 76
f 77 79 75
f 75 80 78
f 79 81 75
f 75 81 80
f 79 82 81
f 82 83 81
f 81 84 80
f 81 83 84
f 82 85 83
f 83 86 84
f 85 87 83
f 83 88 86
f 87 89 83
f 89 88 83
f 89 90 88
f 91 92 93
f 92 94 93
f 93 94 95
f 92 96 94
f 94 97 95
f 96 98 94
f 94 98 97
f 96 99 98
f 98 100 97
f 99 101 98
f 98 101 100
f 99 102 101
f 101 103 100
f 102 104 101
f 101 104 103
f 102 105 104
f 104 106 103
f 105 107 104
f 104 107 106
f 105 108 107
f 107 109 106
f 108 110 107
f 107 110 109
f 108 111 110
f 111 112 110
f 110 113 109
f 110 112 113
f 111 114 112
f 112 115 113
f 114 116 112
f 112 117 115
f 116 118 112
f 112 118 117
f 116 119 118
f 119 120 118
f 118 121 117
f 118 120 121
f 119 122 120
f 120 123 121
f 122 124 120
f 120 125 123
f 124 126 120
f 120 126 125
f 124 127 126
f 127 128 126
f 126 129 125
f 126 128 129
f 127 130 128
f 128 131 129
f 130 132 128
f 128 133 131
f 132 134 128
f 134 133 128
f 134 135 133
f 136 137 138
f 136 138 139
f 140 136 139
f 139 138 141
f 142 140 139
f 139 141 143
f 144 142 139
f 145 139 143
f 144 139 145
f 145 143 146
f 147 145 146
f 148 144 145
f 148 145 147
f 147 146 149
f 150 148 147
f 147 149 151
f 152 150 147
f 153 147 151
f 152 147 153
f 153 151 154
f 155 153 154
f 156 152 153
f 156 153 155
f 155 154 157
f 158 156 155
f 155 157 159
f 160 158 155
f 161 155 159
f 160 155 161
f 161 159 162
f 163 160 161
f 164 161 162
f 163 161 164
f 164 162 165
f 166 163 164
f 167 164 165
f 166 164 167
f 167 165 168
f 169 166 167
f 170 167 168
f 169 167 170
f 170 168 171
f 172 169 170
f 173 170 171
f 172 170 173
f 173 171 174
f 175 172 173
f 176 173 174
f 175 173 176
f 176 174 177
f 178 175 176
f 179 176 177
f 178 176 179
f 180 178 179
f 179 181 180
f 181 182 180
f 181 183 182
f 180 182 184
f 182 185 184
f 183 186 182
f 182 187 185
f 186 188 182
f 182 188 187
f 186 189 188
f 189 190 188
f 188 191 187
f 188 190 191
f 189 192 190
f 190 193 191
f 192 194 190
f 190 195 193
f 194 196 190
f 190 196 195
f 194 197 196
f 197 198 196
f 196 199 195
f 196 198 199
f 197 200 198
f 198 201 199
f 200 202 198
f 198 203 201
f 202 204 198
f 198 204 203
f 202 205 204
f 204 206 203
f 205 207 204
f 204 207 206
f 205 208 207
f 207 209 206
f 208 210 207
f 207 210 209
f 208 211 210
f 210 212 209
f 211 213 210
f 210 213 212
f 211 214 213
f 213 215 212
f 214 216 213
f 213 216 215
f 214 217 216
f 216 218 215
f 217 219 216
f 216 219 218
f 217 220 219
f 219 221 218
f 220 222 219
f 222 221 219
f 222 223 221
f 224 225 226
f 225 227 226
f 225 228 227
f 229 226 227
f 228 229 227
f 230 231 232
f 233 230 232
f 233 232 234
f 230 233 235
f 235 233 234
f 236 237 238
f 237 239 238
f 237 240 239
f 241 238 239
f 240 241 239
f 242 243 244
f 245 242 244
f 245 244 246
f 242 245 247
f 247 245 246
f 248 249 250
f 248 250 251
f 252 248 251
f 251 250 253
f 254 252 251
f 255 251 253
f 254 251 255
f 255 253 256
f 257 254 255
f 258 255 256
f 257 255 258
f 258 256 259
f 260 257 258
f 261 258 259
f 260 258 261
f 261 259 262
f 263 260 261
f 264 261 262
f 263 261 264
f 264 262 265
f 266 263 264
f 267 264 265
f 266 264 267
f 267 265 268
f 269 267 268
f 270 266 267
f 270 267 269
f 269 268 271
f 272 270 269
f 273 269 271
f 274 272 269
f 275 269 273
f 274 269 275
f 276 275 273
f 277 274 275
f 278 275 276
f 278 277 275
f 279 278 276
f 278 279 277
f 279 276 280
f 279 281 277
f 282 279 280
f 279 282 281
f 282 280 283
f 282 284 281
f 285 282 283
f 282 285 284
f 285 283 286
f 285 287 284
f 288 285 286
f 285 288 287
f 288 286 289
f 288 290 287
f 291 288 289
f 288 291 290
f 291 289 292
f 291 293 290
f 294 291 292
f 291 294 293
f 294 292 295
f 293 294 296
f 294 295 296
f 295 297 296
f 297 298 296
f 296 298 299
f 297 300 298
f 298 301 299
f 300 302 298
f 298 302 301
f 300 303 302
f 302 304 301
f 303 305 302
f 302 305 304
f 303 306 305
f 305 307 304
f 306 308 305
f 305 308 307
f 306 309 308
f 308 310 307
f 309 311 308
f 308 311 310
f 309 312 311
f 311 313 310
f 312 314 311
f 311 314 313
f 312 315 314
f 315 316 314
f 314 317 313
f 314 316 317
f 315 318 316
f 316 319 317
f 318 320 316
f 316 321 319
f 320 322 316
f 316 322 321
f 320 323 322
f 322 324 321
f 323 325 322
f 322 325 324
f 323 326 325
f 326 324 325
f 327 326 323
f 326 328 324
f 329 326 327
f 326 329 328
f 330 329 327
f 329 331 328
f 332 329 330
f 329 332 331
f 333 332 330
f 332 334 331
f 335 332 333
f 332 335 334
f 336 335 333
f 335 337 334
f 338 335 336
f 335 338 337
f 339 338 336
f 338 340 337
f 341 338 339
f 338 341 340
f 342 341 339
f 341 343 340
f 341 342 343
f 344 345 346
f 345 347 346
f 345 348 347
f 346 347 349
f 347 350 349
f 348 351 347
f 347 352 350
f 351 353 347
f 347 353 352
f 351 354 353
f 354 355 353
f 353 356 352
f 353 355 356
f 354 357 355
f 355 358 356
f 357 359 355
f 355 360 358
f 359 361 355
f 355 361 360
f 359 362 361
f 362 363 361
f 361 364 360
f 361 363 364
f 362 365 363
f 363 366 364
f 365 367 363
f 363 368 366
f 367 369 363
f 363 369 368
f 367 370 369
f 369 371 368
f 370 372 369
f 369 372 371
f 370 373 372
f 372 374 371
f 373 375 372
f 372 375 374
f 373 376 375
f 375 377 374
f 376 378 375
f 375 378 377
f 376 379 378
f 378 380 377
f 379 381 378
f 378 381 380
f 379 382 381
f 381 383 380
f 382 384 381
f 381 384 383
f 382 385 384
f 384 386 383
f 385 387 384
f 387 386 384
f 387 388 386
f 389 390 391
f 389 391 392
f 393 389 392
f 392 391 394
f 395 393 392
f 396 392 394
f 395 392 396
f 396 394 397
f 398 395 396
f 399 396 397
f 398 396 399
f 399 397 400
f 401 398 399
f 402 399 400
f 401 399 402
f 402 400 403
f 404 401 402
f 405 402 403
f 404 402 405
f 405 403 406
f 407 404 405
f 408 405 406
f 407 405 408
f 408 406 409
f 410 408 409
f 411 407 408
f 411 408 410
f 410 409 412
f 413 411 410
f 414 410 412
f 415 413 410
f 416 410 414
f 415 410 416
f 417 416 414
f 418 415 416
f 419 416 417
f 419 418 416
f 420 419 417
f 419 420 418
f 420 417 421
f 420 422 418
f 423 420 421
f 420 423 422
f 423 421 424
f 423 425 422
f 426 423 424
f 423 426 425
f 426 424 427
f 426 428 425
f 429 426 427
f 426 429 428
f 429 427 430
f 429 431 428
f 432 429 430
f 429 432 431
f 432 430 433
f 432 434 431
f 435 432 433
f 432 435 434
f 435 433 436
f 434 435 437
f 435 436 437
f 436 438 437
f 438 439 437
f 437 439 440
f 438 441 439
f 439 442 440
f 441 443 439
f 439 443 442
f 441 444 443
f 443 445 442
f 444 446 443
f 443 446 445
f 444 447 446
f 446 448 445
f 447 449 446
f 446 449 448
f 447 450 449
f 449 451 448
f 450 452 449
f 449 452 451
f 450 453 452
f 452 454 451
f 453 455 452
f 452 455 454
f 453 456 455
f 456 457 455
f 455 458 454
f 455 457 458
f 456 459 457
f 457 460 458
f 459 461 457
f 457 462 460
f 461 463 457
f 457 463 462
f 461 464 463
f 463 465 462
f 464 466 463
f 463 466 465
f 464 467 466
f 467 465 466
f 468 467 464
f 467 469 465
f 470 467 468
f 467 470 469
f 471 470 468
f 470 472 469
f 473 470 471
f 470 473 472
f 474 473 471
f 473 475 472
f 476 473 474
f 473 476 475
f 477 476 474
f 476 478 475
f 479 476 477
f 476 479 478
f 480 479 477
f 479 481 478
f 482 479 480
f 479 482 481
f 483 482 480
f 482 484 481
f 482 483 484
f 485 486 487
f 486 488 487
f 486 489 488
f 487 488 490
f 488 491 490
f 489 492 488
f 488 493 491
f 492 494 488
f 488 494 493
f 492 495 494
f 495 496 494
f 494 497 493
f 494 496 497
f 495 498 496
f 496 499 497
f 498 500 496
f 496 501 499
f 500 502 496
f 496 502 501
f 500 503 502
f 503 504 502
f 502 505 501
f 502 504 505
f 503 506 504
f 504 507 505
f 506 508 504
f 504 509 507
f 508 510 504
f 504 510 509
f 508 511 510
f 510 512 509
f 511 513 510
f 510 513 512
f 511 514 513
f 513 515 512
f 514 516 513
f 513 516 515
f 514 517 516
f 516 518 515
f 517 519 516
f 516 519 518
f 517 520 519
f 519 521 518
f 520 522 519
f 519 522 521
f 520 523 522
f 522 524 521
f 523 525 522
f 522 525 524
f 523 526 525
f 525 527 524
f 526 528 525
f 528 527 525
f 528 529 527
f 530 531 532
f 530 532 533
f 534 530 533
f 533 532 535
f 536 534 533
f 537 533 535
f 536 533 537
f 537 535 538
f 539 536 537
f 540 537 538
f 539 537 540
f 540 538 541
f 542 539 540
f 543 540 541
f 542 540 543
f 543 541 544
f 545 542 543
f 546 543 544
f 545 543 546
f 546 544 547
f 548 545 546
f 549 546 547
f 548 546 549
f 549 547 550
f 551 549 550
f 552 548 549
f 552 549 551
f 551 550 553
f 554 552 551
f 555 551 553
f 556 554 551
f 557 551 555
f 556 551 557
f 558 557 555
f 559 556 557
f 560 557 558
f 560 559 557
f 561 560 558
f 560 561 559
f 561 558 562
f 561 563 559
f 564 561 562
f 561 564 563
f 564 562 565
f 564 566 563
f 567 564 565
f 564 567 566
f 567 565 568
f 567 569 566
f 570 567 568
f 567 570 569
f 570 568 571
f 570 572 569
f 573 570 571
f 570 573 572
f 573 571 574
f 573 575 572
f 576 573 574
f 573 576 575
f 576 574 577
f 575 576 578
f 576 577 578
f 577 579 578
f 579 580 578
f 578 580 581
f 579 582 580
f 580 583 581
f 582 584 580
f 580 584 583
f 582 585 584
f 584 586 583
f 585 587 584
f 584 587 586
f 585 588 587
f 587 589 586
f 588 590 587
f 587 590 589
f 588 591 590
f 590 592 589
f 591 593 590
f 590 593 592
f 591 594 593
f 593 595 592
f 594 596 593
f 593 596 595
f 594 597 596
f 597 598 596
f 596 599 595
f 596 598 599
f 597 600 598
f 598 601 599
f 600 602 598
f 598 603 601
f 602 604 598
f 598 604 603
f 602 605 604
f 604 606 603
f 605 607 604
f 604 607 606
f 605 608 607
f 608 606 607
f 609 608 605
f 608 610 606
f 611 608 609
f 608 611 610
f 612 611 609
f 611 613 610
f 614 611 612
f 611 614 613
f 615 614 612
f 614 616 613
f 617 614 615
f 614 617 616
f 618 617 615
f 617 619 616
f 620 617 618
f 617 620 619
f 621 620 618
f 620 622 619
f 623 620 621
f 620 623 622
f 624 623 621
f 623 625 622
f 623 624 625
f 626 627 628
f 629 626 628
f 629 628 630
f 626 629 631
f 631 629 630
f 632 633 634
f 633 635 634
f 633 636 635
f 637 634 635
f 636 637 635
f 638 639 640
f 639 641 640
f 639 642 641
f 640 641 643
f 642 644 641
f 641 645 643
f 644 646 641
f 641 647 645
f 646 647 641
f 646 648 647
f 649 650 651
f 652 649 651
f 653 652 651
f 653 651 654
f 655 653 654
f 653 655 656
f 657 658 659
f 658 660 659
f 660 661 659
f 661 662 659
f 661 663 662
f 663 661 664
f 665 666 667
f 668 665 667
f 668 667 669
f 665 668 670
f 670 668 669
f 671 672 673
f 672 674 673
f 672 675 674
f 676 673 674
f 675 676 674
f 677 678 679
f 678 680 679
f 678 681 680
f 679 680 682
f 681 683 680
f 680 684 682
f 683 685 680
f 680 686 684
f 685 686 680
f 685 687 686
f 688 689 690
f 688 690 691
f 692 688 691
f 693 691 690
f 692 691 694
f 694 691 693
f 695 692 694
f 696 694 693
f 697 698 699
f 698 700 699
f 698 701 700
f 699 700 702
f 700 703 702
f 701 704 700
f 700 705 703
f 704 706 700
f 700 706 705
f 704 707 706
f 707 708 706
f 706 709 705
f 706 708 709
f 707 710 708
f 708 711 709
f 710 712 708
f 708 713 711
f 712 714 708
f 708 714 713
f 712 715 714
f 715 716 714
f 714 717 713
f 714 716 717
f 715 718 716
f 716 719 717
f 718 720 716
f 716 721 719
f 720 722 716
f 716 722 721
f 720 723 722
f 722 724 721
f 723 725 722
f 722 725 724
f 723 726 725
f 725 727 724
f 726 728 725
f 725 728 727
f 726 729 728
f 728 730 727
f 729 731 728
f 728 731 730
f 729 732 731
f 731 733 730
f 732 734 731
f 731 734 733
f 732 735 734
f 734 736 733
f 735 737 734
f 734 737 736
f 735 738 737
f 737 739 736
f 738 740 737
f 740 739 737
f 740 741 739
f 742 743 744
f 743 745 744
f 746 744 745
f 743 747 745
f 747 748 745
f 744 746 749
f 744 749 750
f 746 751 749
f 752 744 750
f 746 753 751
f 752 750 754
f 750 755 754
f 750 756 755
f 756 750 757
f 758 753 746
f 759 758 746
f 760 756 757
f 761 759 746
f 762 761 746
f 756 760 763
f 762 764 761
f 756 763 765
f 764 766 761
f 767 756 765
f 756 767 768
f 756 768 769
f 764 770 766
f 770 764 771
f 772 756 769
f 764 773 771
f 773 764 774
f 773 774 775
f 772 769 776
f 777 773 775
f 777 775 778
f 779 772 776
f 772 779 780
f 772 780 781
f 777 778 782
f 783 772 781
f 783 781 784
f 783 784 785
f 786 777 782
f 787 783 785
f 787 785 788
f 787 788 789
f 790 786 782
f 791 790 782
f 792 791 782
f 793 787 789
f 792 782 794
f 795 792 794
f 789 795 794
f 793 789 796
f 789 794 797
f 789 798 796
f 799 789 797
f 789 799 798
f 800 801 802
f 800 802 803
f 804 800 803
f 803 802 805
f 806 804 803
f 807 803 805
f 806 803 807
f 807 805 808
f 809 806 807
f 810 807 808
f 809 807 810
f 810 808 811
f 812 809 810
f 813 810 811
f 812 810 813
f 813 811 814
f 815 812 813
f 816 813 814
f 815 813 816
f 816 814 817
f 818 815 816
f 819 816 817
f 818 816 819
f 819 817 820
f 821 819 820
f 822 818 819
f 822 819 821
f 821 820 823
f 824 822 821
f 825 821 823
f 826 824 821
f 827 821 825
f 826 821 827
f 828 827 825
f 829 826 827
f 830 827 828
f 830 829 827
f 831 830 828
f 830 831 829
f 831 828 832
f 831 833 829
f 834 831 832
f 831 834 833
f 834 832 835
f 834 836 833
f 837 834 835
f 834 837 836
f 837 835 838
f 837 839 836
f 840 837 838
f 837 840 839
f 840 838 841
f 840 842 839
f 843 840 841
f 840 843 842
f 843 841 844
f 843 845 842
f 846 843 844
f 843 846 845
f 846 844 847
f 845 846 848
f 846 847 848
f 847 849 848
f 849 850 848
f 848 850 851
f 849 852 850
f 850 853 851
f 852 854 850
f 850 854 853
f 852 855 854
f 854 856 853
f 855 857 854
f 854 857 856
f 855 858 857
f 857 859 856
f 858 860 857
f 857 860 859
f 858 861 860
f 860 862 859
f 861 863 860
f 860 863 862
f 861 864 863
f 863 865 862
f 864 866 863
f 863 866 865
f 864 867 866
f 867 868 866
f 866 869 865
f 866 868 869
f 867 870 868
f 868 871 869
f 870 872 868
f 868 873 871
f 872 874 868
f 868 874 873
f 872 875 874
f 874 876 873
f 875 877 874
f 874 877 876
f 875 878 877
f 878 876 877
f 879 878 875
f 878 880 876
f 881 878 879
f 878 881 880
f 882 881 879
f 881 883 880
f 884 881 882
f 881 884 883
f 885 884 882
f 884 886 883
f 887 884 885
f 884 887 886
f 888 887 885
f 887 889 886
f 890 887 888
f 887 890 889
f 891 890 888
f 890 892 889
f 893 890 891
f 890 893 892
f 894 893 891
f 893 895 892
f 893 894 895
f 896 897 898
f 896 898 899
f 900 896 899
f 899 898 901
f 902 900 899
f 903 899 901
f 902 899 903
f 903 901 904
f 905 902 903
f 906 903 904
f 905 903 906
f 906 904 907
f 908 905 906
f 909 906 907
f 908 906 909
f 909 907 910
f 911 908 909
f 912 909 910
f 911 909 912
f 912 910 913
f 914 911 912
f 915 912 913
f 914 912 915
f 915 913 916
f 917 915 916
f 918 914 915
f 918 915 917
f 917 916 919
f 920 918 917
f 921 917 919
f 922 920 917
f 923 917 921
f 922 917 923
f 924 923 921
f 925 922 923
f 926 923 924
f 926 925 923
f 927 926 924
f 926 927 925
f 927 924 928
f 927 929 925
f 930 927 928
f 927 930 929
f 930 928 931
f 930 932 929
f 933 930 931
f 930 933 932
f 933 931 934
f 933 935 932
f 936 933 934
f 933 936 935
f 936 934 937
f 936 938 935
f 939 936 937
f 936 939 938
f 939 937 940
f 939 941 938
f 942 939 940
f 939 942 941
f 942 940 943
f 941 942 944
f 942 943 944
f 943 945 944
f 945 946 944
f 944 946 947
f 945 948 946
f 946 949 947
f 948 950 946
f 946 950 949
f 948 951 950
f 950 952 949
f 951 953 950
f 950 953 952
f 951 954 953
f 953 955 952
f 954 956 953
f 953 956 955
f 954 957 956
f 956 958 955
f 957 959 956
f 956 959 958
f 957 960 959
f 959 961 958
f 960 962 959
f 959 962 961
f 960 963 962
f 963 964 962
f 962 965 961
f 962 964 965
f 963 966 964
f 964 967 965
f 966 968 964
f 964 969 967
f 968 970 964
f 964 970 969
f 968 971 970
f 970 972 969
f 971 973 970
f 970 973 972
f 971 974 973
f 974 972 973
f 975 974 971
f 974 976 972
f 977 974 975
f 974 977 976
f 978 977 975
f 977 979 976
f 980 977 978
f 977 980 979
f 981 980 978
f 980 982 979
f 983 980 981
f 980 983 982
f 984 983 981
f 983 985 982
f 986 983 984
f 983 986 985
f 987 986 984
f 986 988 985
f 989 986 987
f 986 989 988
f 990 989 987
f 989 991 988
f 989 990 991
f 992 993 994
f 993 992 995
f 993 995 996
f 997 993 996
f 993 997 998
f 993 998 999
f 1000 993 999
f 993 1001 994
f 993 1000 1002
f 993 1003 1001
f 1003 1004 1001
f 1003 1005 1004
f 1006 1005 1003
f 1007 1006 1003
f 1008 1007 1003
f 1009 1008 1003
f 1010 1009 1003
f 1011 1010 1003
f 1012 1011 1003
f 993 1002 1013
f 1013 1002 1014
f 1015 1013 1014
f 1013 1015 1016
f 1013 1016 1017
f 1018 1013 1017
f 1019 993 1013
f 1020 1013 1018
f 1021 1020 1018
f 1020 1021 1022
f 1020 1022 1023
f 1024 1020 1023
f 1020 1024 1025
f 1020 1025 1026
f 1027 1020 1026
f 1020 1027 1028
f 1020 1028 1029
f 1030 1020 1029
f 1020 1030 1031
f 1029 1028 1032
f 1020 1031 1033
f 1028 1012 1032
f 1012 1003 1032
f 1003 1034 1032
f 1034 1035 1032
f 1034 1036 1035
f 1036 1034 1037
f 1038 1020 1033
f 1034 1039 1037
f 1020 1038 1040
f 1034 1041 1039
f 1020 1040 1042
f 1043 1020 1042
f 1020 1043 1044
f 1041 1034 1045
f 1013 1020 1044
f 1034 1046 1045
f 1034 1047 1046
f 1047 1034 1048
f 1034 1019 1048
f 1019 1049 1048
f 1019 1050 1049
f 1050 1019 1051
f 1013 1044 1052
f 1019 1053 1051
f 1054 1013 1052
f 1019 1055 1053
f 1013 1054 1056
f 1013 1056 1057
f 1058 1013 1057
f 1019 1013 1058
f 1055 1019 1059
f 1060 1019 1058
f 1019 1061 1059
f 1019 1060 1061
f 1062 1063 1064
f 1062 1064 1065
f 1063 1062 1066
f 1066 1062 1065
f 1067 1068 1069
f 1070 1067 1069
f 1067 1070 1071
f 1067 1071 1072
f 1073 1067 1072
f 1067 1073 1074
f 1067 1074 1075
f 1076 1067 1075
f 1067 1076 1077
f 1067 1078 1068
f 1067 1077 1079
f 1080 1078 1067
f 1080 1081 1078
f 1081 1080 1082
f 1080 1083 1082
f 1084 1080 1067
f 1067 1085 1084
f 1080 1086 1083
f 1080 1087 1086
f 1087 1088 1086
f 1089 1067 1079
f 1089 1079 1090
f 1091 1089 1090
f 1089 1091 1092
f 1089 1092 1093
f 1087 1094 1088
f 1095 1089 1093
f 1094 1087 1096
f 1089 1095 1097
f 1087 1098 1096
f 1089 1097 1099
f 1087 1100 1098
f 1100 1087 1101
f 1087 1102 1101
f 1087 1089 1102
f 1103 1089 1099
f 1089 1104 1102
f 1089 1103 1104
f 1085 1105 1106
f 1085 1106 1107
f 1105 1085 1108
f 1109 1085 1107
f 1108 1085 1110
f 1085 1111 1110
f 1085 1112 1111
f 1112 1085 1113
f 1085 1109 1114
f 1085 1115 1113
f 1085 1114 1084
f 1085 1116 1115
f 1084 1114 1117
f 1116 1118 1115
f 1116 1119 1118
f 1119 1116 1120
f 1116 1121 1120
f 1116 1122 1121
f 1084 1117 1123
f 1122 1116 1124
f 1125 1084 1123
f 1084 1125 1126
f 1084 1126 1127
f 1128 1084 1127
f 1116 1129 1124
f 1130 1128 1127
f 1116 1131 1129
f 1128 1130 1132
f 1131 1116 1133
f 1116 1134 1133
f 1116 1135 1134
f 1116 1128 1135
f 1128 1132 1136
f 1128 1137 1135
f 1138 1128 1136
f 1128 1138 1137
f 1139 1140 1141
f 1139 1141 1142
f 1140 1139 1143
f 1143 1139 1142
f 1144 1145 1146
f 1147 1144 1146
f 1144 1147 1148
f 1144 1148 1149
f 1150 1144 1149
f 1144 1150 1151
f 1144 1152 1145
f 1144 1151 1153
f 1144 1154 1152
f 1154 1155 1152
f 1154 1156 1155
f 1157 1144 1153
f 1157 1153 1158
f 1157 1158 1159
f 1156 1154 1160
f 1161 1157 1159
f 1160 1154 1162
f 1157 1161 1163
f 1154 1164 1162
f 1157 1163 1165
f 1154 1166 1164
f 1166 1154 1167
f 1154 1168 1167
f 1154 1169 1168
f 1169 1170 1168
f 1169 1171 1170
f 1172 1157 1165
f 1157 1172 1173
f 1157 1173 1174
f 1169 1157 1174
f 1171 1169 1175
f 1169 1174 1176
f 1169 1177 1175
f 1169 1176 1178
f 1169 1179 1177
f 1179 1169 1178
f 1180 1181 1182
f 1183 1180 1182
f 1180 1183 1184
f 1180 1184 1185
f 1186 1180 1185
f 1180 1186 1187
f 1180 1188 1181
f 1180 1187 1189
f 1180 1190 1188
f 1190 1191 1188
f 1190 1192 1191
f 1193 1180 1189
f 1193 1189 1194
f 1193 1194 1195
f 1192 1190 1196
f 1197 1193 1195
f 1196 1190 1198
f 1193 1197 1199
f 1190 1200 1198
f 1193 1199 1201
f 1190 1202 1200
f 1202 1190 1203
f 1190 1204 1203
f 1190 1205 1204
f 1205 1206 1204
f 1205 1207 1206
f 1208 1193 1201
f 1193 1208 1209
f 1193 1209 1210
f 1205 1193 1210
f 1207 1205 1211
f 1205 1210 1212
f 1205 1213 1211
f 1205 1212 1214
f 1205 1215 1213
f 1215 1205 1214
f 1216 1217 1218
f 1216 1218 1219
f 1217 1216 1220
f 1220 1216 1219
f 1221 1222 1223
f 1224 1221 1223
f 1221 1225 1222
f 1225 1221 1224
f 1226 1227 1228
f 1226 1228 1229
f 1227 1226 1230
f 1230 1226 1229
f 1231 1232 1233
f 1232 1231 1234
f 1231 1233 1235
f 1231 1236 1234
f 1237 1231 1235
f 1231 1237 1236
f 1237 1235 1238
f 1237 1239 1236
f 1240 1237 1238
f 1237 1240 1239
f 1240 1238 1241
f 1240 1242 1239
f 1240 1241 1243
f 1242 1240 1243
f 1244 1245 1246
f 1244 1246 1247
f 1245 1244 1248
f 1248 1244 1247
f 1249 1250 1251
f 1250 1249 1252
f 1249 1251 1253
f 1249 1254 1252
f 1255 1249 1253
f 1249 1255 1254
f 1255 1253 1256
f 1255 1257 1254
f 1258 1255 1256
f 1255 1258 1257
f 1258 1256 1259
f 1258 1260 1257
f 1261 1258 1259
f 1258 1261 1260
f 1261 1259 1262
f 1261 1263 1260
f 1264 1261 1262
f 1261 1264 1263
f 1264 1262 1265
f 1264 1266 1263
f 1267 1264 1265
f 1264 1267 1266
f 1267 1265 1268
f 1267 1269 1266
f 1270 1267 1268
f 1267 1270 1269
f 1270 1268 1271
f 1270 1272 1269
f 1270 1271 1273
f 1272 1270 1273
f 1274 1275 1276
f 1274 1276 1277
f 1275 1274 1278
f 1278 1274 1277
f 1279 1280 1281
f 1279 1281 1282
f 1280 1279 1283
f 1283 1279 1282
f 1284 1285 1286
f 1287 1285 1284
f 1285 1288 1286
f 1285 1287 1288
f 1289 1290 1291
f 1292 1290 1289
f 1290 1293 1291
f 1290 1292 1293
f 1294 1295 1296
f 1295 1294 1297
f 1294 1296 1298
f 1294 1299 1297
f 1300 1294 1298
f 1294 1300 1299
f 1300 1298 1301
f 1300 1302 1299
f 1303 1300 1301
f 1300 1303 1302
f 1303 1301 1304
f 1303 1305 1302
f 1306 1303 1304
f 1303 1306 1305
f 1307 1308 1309
f 1310 1307 1309
f 1307 1311 1308
f 1311 1307 1310
f 1312 1313 1314
f 1313 1312 1315
f 1312 1314 1316
f 1312 1317 1315
f 1318 1312 1316
f 1312 1318 1317
f 1318 1316 1319
f 1318 1320 1317
f 1321 1318 1319
f 1318 1321 1320
f 1321 1319 1322
f 1321 1323 1320
f 1324 1321 1322
f 1321 1324 1323
f 1324 1322 1325
f 1324 1326 1323
f 1327 1324 1325
f 1324 1327 1326
f 1327 1325 1328
f 1327 1329 1326
f 1330 1327 1328
f 1327 1330 1329
f 1330 1328 1331
f 1330 1332 1329
f 1333 1330 1331
f 1330 1333 1332
f 1333 1331 1334
f 1333 1335 1332
f 1336 1333 1334
f 1333 1336 1335
f 1337 1338 1339
f 1340 1337 1339
f 1337 1341 1338
f 1341 1337 1340
f 1342 1343 1344
f 1343 1342 1345
f 1342 1344 1346
f 1342 1347 1345
f 1348 1342 1346
f 1342 1348 1347
f 1348 1346 1349
f 1348 1350 1347
f 1351 1348 1349
f 1348 1351 1350
f 1351 1349 1352
f 1351 1353 1350
f 1354 1351 1352
f 1351 1354 1353
f 1355 1356 1357
f 1358 1355 1357
f 1355 1359 1356
f 1359 1355 1358
f 1360 1361 1362
f 1361 1360 1363
f 1361 1364 1362
f 1361 1363 1365
f 1364 1361 1365
f 1366 1367 1368
f 1367 1366 1369
f 1367 1370 1368
f 1367 1369 1371
f 1370 1367 1371
f 1372 1373 1374
f 1372 1374 1375
f 1373 1372 1376
f 1376 1372 1375
f 1377 1378 1379
f 1377 1379 1380
f 1378 1377 1381
f 1381 1377 1380
f 1382 1383 1384
f 1383 1382 1385
f 1383 1386 1384
f 1383 1385 1387
f 1383 1388 1386
f 1388 1383 1387
f 1388 1389 1386
f 1388 1387 1390
f 1388 1391 1389
f 1391 1388 1390
f 1391 1392 1389
f 1391 1390 1393
f 1391 1394 1392
f 1394 1391 1393
f 1394 1395 1392
f 1394 1393 1396
f 1394 1397 1395
f 1397 1394 1396
f 1397 1398 1395
f 1397 1396 1399
f 1397 1400 1398
f 1400 1397 1399
f 1400 1401 1398
f 1400 1399 1402
f 1400 1403 1401
f 1403 1400 1402
f 1403 1404 1401
f 1403 1402 1405
f 1404 1403 1406
f 1403 1405 1406
f 1407 1408 1409
f 1407 1409 1410
f 1408 1407 1411
f 1411 1407 1410
f 1412 1413 1414
f 1413 1412 1415
f 1413 1416 1414
f 1413 1415 1417
f 1413 1418 1416
f 1418 1413 1417
f 1418 1419 1416
f 1418 1417 1420
f 1418 1421 1419
f 1421 1418 1420
f 1421 1422 1419
f 1421 1420 1423
f 1422 1421 1424
f 1421 1423 1424
f 1425 1426 1427
f 1428 1425 1427
f 1425 1429 1426
f 1429 1425 1428
f 1430 1431 1432
f 1433 1430 1432
f 1430 1434 1431
f 1434 1430 1433
f 1435 1436 1437
f 1435 1437 1438
f 1436 1435 1439
f 1439 1435 1438
f 1440 1441 1442
f 1440 1442 1443
f 1441 1440 1444
f 1444 1440 1443
f 1445 1446 1447
f 1448 1445 1447
f 1445 1448 1449
f 1445 1449 1450
f 1451 1445 1450
f 1445 1451 1452
f 1445 1452 1453
f 1454 1445 1453
f 1445 1454 1455
f 1445 1455 1456
f 1457 1456 1455
f 1456 1457 1458
f 1456 1458 1459
f 1460 1456 1459
f 1456 1460 1461
f 1456 1461 1462
f 1463 1456 1462
f 1456 1463 1464
f 1456 1464 1465
f 1466 1456 1465
f 1456 1466 1467
f 1468 1445 1456
f 1469 1468 1456
f 1456 1467 1470
f 1471 1456 1470
f 1471 1470 1472
f 1470 1473 1472
f 1471 1472 1474
f 1475 1471 1474
f 1471 1475 1476
f 1471 1476 1477
f 1473 1478 1472
f 1473 1479 1478
f 1479 1480 1478
f 1479 1481 1480
f 1481 1482 1480
f 1481 1483 1482
f 1483 1484 1482
f 1483 1485 1484
f 1485 1486 1484
f 1485 1487 1486
f 1487 1488 1486
f 1487 1489 1488
f 1489 1490 1488
f 1489 1491 1490
f 1491 1492 1490
f 1491 1493 1492
f 1493 1494 1492
f 1493 1495 1494
f 1495 1496 1494
f 1495 1445 1496
f 1445 1495 1446
f 1445 1497 1496
f 1497 1498 1496
f 1497 1499 1498
f 1499 1497 1500
f 1497 1501 1500
f 1501 1502 1500
f 1501 1503 1502
f 1503 1501 1504
f 1501 1505 1504
f 1501 1506 1505
f 1506 1501 1507
f 1501 1508 1507
f 1501 1509 1508
f 1509 1501 1510
f 1501 1471 1510
f 1471 1511 1510
f 1471 1512 1511
f 1512 1471 1513
f 1471 1514 1513
f 1471 1515 1514
f 1515 1471 1477
f 1516 1517 1468
f 1517 1518 1468
f 1468 1518 1519
f 1520 1516 1468
f 1468 1519 1521
f 1520 1468 1469
f 1522 1520 1469
f 1523 1468 1521
f 1523 1521 1524
f 1523 1524 1525
f 1526 1522 1469
f 1527 1523 1525
f 1526 1469 1528
f 1529 1527 1525
f 1527 1529 1530
f 1531 1526 1528
f 1526 1531 1532
f 1527 1530 1533
f 1526 1532 1534
f 1535 1527 1533
f 1535 1533 1536
f 1533 1537 1536
f 1533 1538 1537
f 1539 1526 1534
f 1538 1540 1537
f 1541 1539 1534
f 1538 1542 1540
f 1543 1541 1534
f 1544 1543 1534
f 1545 1544 1534
f 1542 1546 1540
f 1546 1547 1540
f 1547 1548 1540
f 1545 1534 1549
f 1548 1550 1540
f 1551 1545 1549
f 1548 1552 1550
f 1553 1551 1549
f 1554 1553 1549
f 1552 1555 1550
f 1555 1556 1550
f 1557 1554 1549
f 1556 1558 1550
f 1558 1559 1550
f 1558 1560 1559
f 1561 1557 1549
f 1557 1561 1562
f 1557 1562 1563
f 1558 1564 1560
f 1564 1557 1563
f 1564 1565 1560
f 1566 1564 1563
f 1564 1566 1565
f 1567 1568 1569
f 1570 1568 1567
f 1568 1571 1569
f 1568 1570 1571
f 1572 1573 1574
f 1575 1573 1572
f 1573 1576 1574
f 1573 1575 1576
f 1577 1578 1579
f 1580 1578 1577
f 1578 1581 1579
f 1578 1580 1581
f 1582 1583 1584
f 1585 1583 1582
f 1583 1586 1584
f 1583 1585 1586
