# ROS coordinates: X forward, Y left, Z up; units are metres.
o mesh
v 0.0118561108 -0.03250371 0.12794
v 0.0118561108 -0.03250371 0.128540009
v 0.01180611 -0.03250371 0.128540009
v 0.00960611 -0.03250371 0.12794
v 0.00960611 -0.03250371 0.128540009
v 0.009551521 -0.03250371 0.127934992
v 0.009442344 -0.03250371 0.128524974
v 0.009495681 -0.03250371 0.127918944
v 0.009274825 -0.03250371 0.128476813
v 0.009441948 -0.03250371 0.1278911
v 0.009113621 -0.03250371 0.128393292
v 0.009393979 -0.03250371 0.127852142
v 0.008969715 -0.03250371 0.1282764
v 0.009355012 -0.03250371 0.12780416
v 0.008852813 -0.03250371 0.128132492
v 0.009327173 -0.03250371 0.127750427
v 0.0087693 -0.03250371 0.127971292
v 0.009311119 -0.03250371 0.127694592
v 0.008721136 -0.03250371 0.127803773
v 0.00930611 -0.03250371 0.127640009
v 0.00870611 -0.03250371 0.127640009
v 0.00930611 -0.03250371 0.12555
v 0.00870611 -0.03250371 0.12555
v 0.008721136 -0.03250371 0.125386238
v 0.009311119 -0.03250371 0.125495419
v 0.0087693 -0.03250371 0.125218719
v 0.009327173 -0.03250371 0.125439569
v 0.008852813 -0.03250371 0.125057518
v 0.009355012 -0.03250371 0.125385836
v 0.008969715 -0.03250371 0.1249136
v 0.009393979 -0.03250371 0.125337869
v 0.009113621 -0.03250371 0.1247967
v 0.009441948 -0.03250371 0.1252989
v 0.009274825 -0.03250371 0.12471319
v 0.009495681 -0.03250371 0.125271067
v 0.009442344 -0.03250371 0.124665029
v 0.009551521 -0.03250371 0.125255018
v 0.00960611 -0.03250371 0.12465
v 0.00960611 -0.03250371 0.12525
v 0.01180611 -0.03250371 0.12525
v 0.01180611 -0.03250371 0.12465
v 0.0118607 -0.03250371 0.125255018
v 0.0119698774 -0.03250371 0.124665029
v 0.0119165387 -0.03250371 0.125271067
v 0.0121373963 -0.03250371 0.12471319
v 0.0119702742 -0.03250371 0.1252989
v 0.0122985989 -0.03250371 0.1247967
v 0.0120182429 -0.03250371 0.125337869
v 0.0124425068 -0.03250371 0.1249136
v 0.0120572094 -0.03250371 0.125385836
v 0.0125594065 -0.03250371 0.125057518
v 0.0120850466 -0.03250371 0.125439569
v 0.01264292 -0.03250371 0.125218719
v 0.0121011026 -0.03250371 0.125495419
v 0.0126910862 -0.03250371 0.125386238
v 0.0121061113 -0.03250371 0.12555
v 0.01270611 -0.03250371 0.12555
v 0.0121061113 -0.03250371 0.12825
v 0.01270611 -0.03250371 0.12825
v 0.0126910862 -0.03250371 0.128413767
v 0.0121022314 -0.03250371 0.128298089
v 0.01264292 -0.03250371 0.128581285
v 0.0120898485 -0.03250371 0.128347427
v 0.0125594065 -0.03250371 0.128742486
v 0.0120683033 -0.03250371 0.1283958
v 0.0124425068 -0.03250371 0.1288864
v 0.0120377429 -0.03250371 0.128440648
v 0.0122985989 -0.03250371 0.1290033
v 0.0119992327 -0.03250371 0.12847957
v 0.0119546615 -0.03250371 0.128510639
v 0.0121373963 -0.03250371 0.1290868
v 0.0119064357 -0.03250371 0.128532737
v 0.0119698774 -0.03250371 0.129134983
v 0.0118570831 -0.03250371 0.128545642
v 0.01180611 -0.03250371 0.12915
v 0.01180611 -0.03250371 0.12855
v 0.00960611 -0.03250371 0.12855
v 0.009106111 -0.03250371 0.12915
v 0.009106111 -0.03250371 0.12855
v 0.0118561108 -0.0285037085 0.12794
v 0.01180611 -0.0285037085 0.128540009
v 0.0118561108 -0.0285037085 0.128540009
v 0.00960611 -0.0285037085 0.12794
v 0.00960611 -0.0285037085 0.128540009
v 0.009551521 -0.0285037085 0.127934992
v 0.009442342 -0.0285037085 0.128524974
v 0.009495681 -0.0285037085 0.127918944
v 0.009274824 -0.0285037085 0.128476813
v 0.009441948 -0.0285037085 0.1278911
v 0.009113621 -0.0285037085 0.128393292
v 0.009393977 -0.0285037085 0.127852142
v 0.008969713 -0.0285037085 0.1282764
v 0.00935501 -0.0285037085 0.12780416
v 0.008852813 -0.0285037085 0.128132492
v 0.009327173 -0.0285037085 0.127750427
v 0.0087693 -0.0285037085 0.127971292
v 0.009311117 -0.0285037085 0.127694592
v 0.008721136 -0.0285037085 0.127803773
v 0.00930611 -0.0285037085 0.127640009
v 0.00870611 -0.0285037085 0.127640009
v 0.00870611 -0.0285037085 0.12555
v 0.00930611 -0.0285037085 0.12555
v 0.008721136 -0.0285037085 0.125386238
v 0.009311117 -0.0285037085 0.125495419
v 0.0087693 -0.0285037085 0.125218719
v 0.009327173 -0.0285037085 0.125439569
v 0.008852813 -0.0285037085 0.125057518
v 0.00935501 -0.0285037085 0.125385836
v 0.008969713 -0.0285037085 0.1249136
v 0.009393977 -0.0285037085 0.125337869
v 0.009113621 -0.0285037085 0.1247967
v 0.009441948 -0.0285037085 0.1252989
v 0.009274824 -0.0285037085 0.12471319
v 0.009495681 -0.0285037085 0.125271067
v 0.009442342 -0.0285037085 0.124665029
v 0.009551521 -0.0285037085 0.125255018
v 0.00960611 -0.0285037085 0.12465
v 0.00960611 -0.0285037085 0.12525
v 0.01180611 -0.0285037085 0.12465
v 0.01180611 -0.0285037085 0.12525
v 0.0118606985 -0.0285037085 0.125255018
v 0.0119698774 -0.0285037085 0.124665029
v 0.0119165387 -0.0285037085 0.125271067
v 0.0121373963 -0.0285037085 0.12471319
v 0.0119702723 -0.0285037085 0.1252989
v 0.0122985989 -0.0285037085 0.1247967
v 0.0120182429 -0.0285037085 0.125337869
v 0.012442505 -0.0285037085 0.1249136
v 0.0120572094 -0.0285037085 0.125385836
v 0.0125594046 -0.0285037085 0.125057518
v 0.0120850466 -0.0285037085 0.125439569
v 0.0126429182 -0.0285037085 0.125218719
v 0.0121011008 -0.0285037085 0.125495419
v 0.0126910843 -0.0285037085 0.125386238
v 0.0121061113 -0.0285037085 0.12555
v 0.01270611 -0.0285037085 0.12555
v 0.01270611 -0.0285037085 0.12825
v 0.0121061113 -0.0285037085 0.12825
v 0.0126910843 -0.0285037085 0.128413767
v 0.0121022314 -0.0285037085 0.128298089
v 0.0126429182 -0.0285037085 0.128581285
v 0.0120898485 -0.0285037085 0.128347427
v 0.0125594046 -0.0285037085 0.128742486
v 0.0120683033 -0.0285037085 0.1283958
v 0.012442505 -0.0285037085 0.1288864
v 0.012037741 -0.0285037085 0.128440648
v 0.0122985989 -0.0285037085 0.1290033
v 0.0119992327 -0.0285037085 0.12847957
v 0.01195466 -0.0285037085 0.128510639
v 0.0121373963 -0.0285037085 0.1290868
v 0.0119064357 -0.0285037085 0.128532737
v 0.0119698774 -0.0285037085 0.129134983
v 0.0118570831 -0.0285037085 0.128545642
v 0.01180611 -0.0285037085 0.12915
v 0.01180611 -0.0285037085 0.12855
v 0.00960611 -0.0285037085 0.12855
v 0.009106109 -0.0285037085 0.12915
v 0.009106109 -0.0285037085 0.12855
v 0.0121061113 -0.0285037085 0.12825
v 0.0121061113 -0.03250371 0.12825
v 0.0121022314 -0.03250371 0.128298089
v 0.0121011026 -0.0305037089 0.128304586
v 0.0121022314 -0.0285037085 0.128298089
v 0.0120898485 -0.03250371 0.128347427
v 0.0120898485 -0.0285037085 0.128347427
v 0.0120850466 -0.0305037089 0.128360435
v 0.0120683033 -0.03250371 0.1283958
v 0.0120683033 -0.0285037085 0.1283958
v 0.0120572094 -0.0305037089 0.128414169
v 0.0120377429 -0.03250371 0.128440648
v 0.012037741 -0.0285037085 0.128440648
v 0.0120182429 -0.0305037089 0.128462136
v 0.0119992327 -0.03250371 0.12847957
v 0.0119992327 -0.0285037085 0.12847957
v 0.0119702723 -0.0305037089 0.1285011
v 0.0119546615 -0.03250371 0.128510639
v 0.01195466 -0.0285037085 0.128510639
v 0.0119165387 -0.0305037089 0.128528938
v 0.0119064357 -0.03250371 0.128532737
v 0.0119064357 -0.0285037085 0.128532737
v 0.0118606985 -0.0305037089 0.128544986
v 0.0118570831 -0.03250371 0.128545642
v 0.0118570831 -0.0285037085 0.128545642
v 0.01180611 -0.03250371 0.12855
v 0.01180611 -0.0285037085 0.12855
v 0.0117561091 -0.0305037089 0.12794
v 0.0117561091 -0.0305037089 0.128540009
v 0.0117385816 -0.030312648 0.128540009
v 0.0117330253 -0.0302847475 0.12824
v 0.0117385816 -0.030312648 0.12794
v 0.0116823874 -0.03011721 0.128540009
v 0.0116823874 -0.03011721 0.12794
v 0.0116587579 -0.0300621632 0.12824
v 0.0115849562 -0.0299291387 0.128540009
v 0.0115849562 -0.0299291387 0.12794
v 0.0115309525 -0.02985399 0.12824
v 0.0114485715 -0.0297612473 0.128540009
v 0.0114485715 -0.0297612473 0.12794
v 0.01135583 -0.0296788663 0.12824
v 0.01128068 -0.0296248645 0.128540009
v 0.01128068 -0.0296248645 0.12794
v 0.0111476555 -0.0295510627 0.12824
v 0.0110926088 -0.0295274314 0.128540009
v 0.0110926088 -0.0295274314 0.12794
v 0.0109250713 -0.0294767935 0.12824
v 0.0108971708 -0.02947124 0.128540009
v 0.01070611 -0.02945371 0.12824
v 0.0108971708 -0.02947124 0.12794
v 0.01070611 -0.02945371 0.128540009
v 0.01070611 -0.02945371 0.12794
v 0.0105150491 -0.02947124 0.128540009
v 0.0105150491 -0.02947124 0.12794
v 0.0104871485 -0.0294767935 0.12824
v 0.0103196111 -0.0295274314 0.128540009
v 0.0103196111 -0.0295274314 0.12794
v 0.0103196111 -0.0295274314 0.12824
v 0.0101574678 -0.029608449 0.12824
v 0.01013154 -0.0296248645 0.128540009
v 0.01013154 -0.0296248645 0.12794
v 0.0100088418 -0.02971865 0.12824
v 0.009963648 -0.0297612473 0.128540009
v 0.009963648 -0.0297612473 0.12794
v 0.009881267 -0.02985399 0.12824
v 0.00982726552 -0.0299291387 0.128540009
v 0.00982726552 -0.0299291387 0.12794
v 0.009780483 -0.0300080143 0.12824
v 0.009729832 -0.03011721 0.128540009
v 0.009729832 -0.03011721 0.12794
v 0.0097096 -0.0301728509 0.12824
v 0.00967364 -0.030312648 0.128540009
v 0.00967364 -0.030312648 0.12794
v 0.009668879 -0.0303404555 0.12824
v 0.009656111 -0.0305037089 0.128540009
v 0.009656111 -0.0305037089 0.12794
v 0.00967364 -0.0306947716 0.128540009
v 0.009679195 -0.0307226721 0.12824
v 0.00967364 -0.0306947716 0.12794
v 0.009729832 -0.03089021 0.128540009
v 0.009729832 -0.03089021 0.12794
v 0.009753464 -0.0309452564 0.12824
v 0.00982726552 -0.031078279 0.128540009
v 0.00982726552 -0.031078279 0.12794
v 0.009881267 -0.03115343 0.12824
v 0.009963648 -0.0312461723 0.128540009
v 0.009963648 -0.0312461723 0.12794
v 0.0100563914 -0.03132855 0.12824
v 0.01013154 -0.0313825533 0.128540009
v 0.01013154 -0.0313825533 0.12794
v 0.0102645643 -0.03145636 0.12824
v 0.0103196111 -0.03147999 0.128540009
v 0.0103196111 -0.03147999 0.12794
v 0.0104871485 -0.0315306261 0.12824
v 0.0105150491 -0.03153618 0.128540009
v 0.01070611 -0.031553708 0.12824
v 0.0105150491 -0.03153618 0.12794
v 0.01070611 -0.031553708 0.128540009
v 0.01070611 -0.031553708 0.12794
v 0.0108971708 -0.03153618 0.128540009
v 0.0108971708 -0.03153618 0.12794
v 0.0109250713 -0.0315306261 0.12824
v 0.0110926088 -0.03147999 0.128540009
v 0.0110926088 -0.03147999 0.12794
v 0.0110926088 -0.03147999 0.12824
v 0.0112547539 -0.03139897 0.12824
v 0.01128068 -0.0313825533 0.128540009
v 0.01128068 -0.0313825533 0.12794
v 0.0114033781 -0.03128877 0.12824
v 0.0114485733 -0.03124617 0.128540009
v 0.0114485733 -0.03124617 0.12794
v 0.0115309525 -0.03115343 0.12824
v 0.0115849562 -0.031078279 0.128540009
v 0.0115849562 -0.031078279 0.12794
v 0.0116317365 -0.0309994053 0.12824
v 0.0116823874 -0.0308902077 0.128540009
v 0.0116823874 -0.0308902077 0.12794
v 0.0117026214 -0.0308345687 0.12824
v 0.0117385816 -0.0306947716 0.128540009
v 0.0117385816 -0.0306947716 0.12794
v 0.0117433406 -0.0306669641 0.12824
v 0.0117561091 -0.0305037089 0.128540009
v 0.0117561091 -0.0305037089 0.12794
v 0.0117561091 -0.0305037089 0.12855
v 0.0117561091 -0.0305037089 0.12915
v 0.0117385816 -0.030312648 0.12915
v 0.0117330253 -0.0302847475 0.12885
v 0.0117385816 -0.030312648 0.12855
v 0.0116823874 -0.03011721 0.12915
v 0.0116823874 -0.03011721 0.12855
v 0.0116587579 -0.0300621632 0.12885
v 0.0115849562 -0.0299291387 0.12915
v 0.0115849562 -0.0299291387 0.12855
v 0.0115309525 -0.02985399 0.12885
v 0.0114485715 -0.0297612473 0.12915
v 0.0114485715 -0.0297612473 0.12855
v 0.01135583 -0.0296788663 0.12885
v 0.01128068 -0.0296248645 0.12915
v 0.01128068 -0.0296248645 0.12855
v 0.0111476555 -0.0295510627 0.12885
v 0.0110926088 -0.0295274314 0.12915
v 0.0110926088 -0.0295274314 0.12855
v 0.0109250713 -0.0294767935 0.12885
v 0.0108971708 -0.02947124 0.12915
v 0.01070611 -0.02945371 0.12885
v 0.0108971708 -0.02947124 0.12855
v 0.01070611 -0.02945371 0.12915
v 0.01070611 -0.02945371 0.12855
v 0.0105150491 -0.02947124 0.12915
v 0.0105150491 -0.02947124 0.12855
v 0.0104871485 -0.0294767935 0.12885
v 0.0103196111 -0.0295274314 0.12915
v 0.0103196111 -0.0295274314 0.12855
v 0.0103196111 -0.0295274314 0.12885
v 0.0101574678 -0.029608449 0.12885
v 0.01013154 -0.0296248645 0.12915
v 0.01013154 -0.0296248645 0.12855
v 0.0100088418 -0.02971865 0.12885
v 0.009963648 -0.0297612473 0.12915
v 0.009963648 -0.0297612473 0.12855
v 0.009881267 -0.02985399 0.12885
v 0.00982726552 -0.0299291387 0.12915
v 0.00982726552 -0.0299291387 0.12855
v 0.009780483 -0.0300080143 0.12885
v 0.009729832 -0.03011721 0.12915
v 0.009729832 -0.03011721 0.12855
v 0.0097096 -0.0301728509 0.12885
v 0.00967364 -0.030312648 0.12915
v 0.00967364 -0.030312648 0.12855
v 0.009668879 -0.0303404555 0.12885
v 0.009656111 -0.0305037089 0.12915
v 0.009656111 -0.0305037089 0.12855
v 0.00967364 -0.0306947716 0.12915
v 0.009679195 -0.0307226721 0.12885
v 0.00967364 -0.0306947716 0.12855
v 0.009729832 -0.03089021 0.12915
v 0.009729832 -0.03089021 0.12855
v 0.009753464 -0.0309452564 0.12885
v 0.00982726552 -0.031078279 0.12915
v 0.00982726552 -0.031078279 0.12855
v 0.009881267 -0.03115343 0.12885
v 0.009963648 -0.0312461723 0.12915
v 0.009963648 -0.0312461723 0.12855
v 0.0100563914 -0.03132855 0.12885
v 0.01013154 -0.0313825533 0.12915
v 0.01013154 -0.0313825533 0.12855
v 0.0102645643 -0.03145636 0.12885
v 0.0103196111 -0.03147999 0.12915
v 0.0103196111 -0.03147999 0.12855
v 0.0104871485 -0.0315306261 0.12885
v 0.0105150491 -0.03153618 0.12915
v 0.01070611 -0.031553708 0.12885
v 0.0105150491 -0.03153618 0.12855
v 0.01070611 -0.031553708 0.12915
v 0.01070611 -0.031553708 0.12855
v 0.0108971708 -0.03153618 0.12915
v 0.0108971708 -0.03153618 0.12855
v 0.0109250713 -0.0315306261 0.12885
v 0.0110926088 -0.03147999 0.12915
v 0.0110926088 -0.03147999 0.12855
v 0.0110926088 -0.03147999 0.12885
v 0.0112547539 -0.03139897 0.12885
v 0.01128068 -0.0313825533 0.12915
v 0.01128068 -0.0313825533 0.12855
v 0.0114033781 -0.03128877 0.12885
v 0.0114485733 -0.03124617 0.12915
v 0.0114485733 -0.03124617 0.12855
v 0.0115309525 -0.03115343 0.12885
v 0.0115849562 -0.031078279 0.12915
v 0.0115849562 -0.031078279 0.12855
v 0.0116317365 -0.0309994053 0.12885
v 0.0116823874 -0.0308902077 0.12915
v 0.0116823874 -0.0308902077 0.12855
v 0.0117026214 -0.0308345687 0.12885
v 0.0117385816 -0.0306947716 0.12915
v 0.0117385816 -0.0306947716 0.12855
v 0.0117433406 -0.0306669641 0.12885
v 0.0117561091 -0.0305037089 0.12915
v 0.0117561091 -0.0305037089 0.12855
v 0.01040611 -0.0309953615 0.120409019
v 0.01040611 -0.03100371 0.1205
v 0.01040611 -0.0309686027 0.120315954
v 0.01040611 -0.030922208 0.1202264
v 0.01040611 -0.0308572631 0.120146446
v 0.01040611 -0.0305037089 0.122325
v 0.01040611 -0.03100371 0.12465
v 0.01040611 -0.0307773147 0.1200815
v 0.01040611 -0.03000371 0.12465
v 0.01040611 -0.0306877568 0.120035112
v 0.01040611 -0.0305946916 0.120008349
v 0.01040611 -0.0305037089 0.120000005
v 0.01040611 -0.030412728 0.120008349
v 0.01040611 -0.0303196628 0.120035112
v 0.01040611 -0.0302301049 0.1200815
v 0.01040611 -0.0301501565 0.120146446
v 0.01040611 -0.03000371 0.1205
v 0.01040611 -0.0300852116 0.1202264
v 0.01040611 -0.030038815 0.120315954
v 0.01040611 -0.0300120562 0.120409019
v 0.0110061094 -0.030038815 0.120315954
v 0.0110061094 -0.0300120562 0.120409019
v 0.0110061094 -0.03000371 0.1205
v 0.0110061094 -0.0300852116 0.1202264
v 0.0110061094 -0.0301501565 0.120146446
v 0.0110061094 -0.0305037089 0.122325
v 0.0110061094 -0.03000371 0.12465
v 0.0110061094 -0.0302301049 0.1200815
v 0.0110061094 -0.03100371 0.12465
v 0.0110061094 -0.0303196628 0.120035112
v 0.0110061094 -0.030412728 0.120008349
v 0.0110061094 -0.0305037089 0.120000005
v 0.0110061094 -0.0305946916 0.120008349
v 0.0110061094 -0.0306877568 0.120035112
v 0.0110061094 -0.0307773147 0.1200815
v 0.0110061094 -0.0308572631 0.120146446
v 0.0110061094 -0.03100371 0.1205
v 0.0110061094 -0.030922208 0.1202264
v 0.0110061094 -0.0309686027 0.120315954
v 0.0110061094 -0.0309953615 0.120409019
v 0.01040611 -0.03000371 0.1205
v 0.0110061094 -0.03000371 0.1205
v 0.0110061094 -0.0300120562 0.120409019
v 0.01070611 -0.0300147012 0.120395735
v 0.01040611 -0.0300120562 0.120409019
v 0.0110061094 -0.030038815 0.120315954
v 0.01040611 -0.030038815 0.120315954
v 0.01070611 -0.0300500672 0.120289743
v 0.0110061094 -0.0300852116 0.1202264
v 0.01040611 -0.0300852116 0.1202264
v 0.01070611 -0.0301109273 0.120190613
v 0.0110061094 -0.0301501565 0.120146446
v 0.01040611 -0.0301501565 0.120146446
v 0.01070611 -0.03019432 0.120107219
v 0.0110061094 -0.0302301049 0.1200815
v 0.01040611 -0.0302301049 0.1200815
v 0.01070611 -0.03029345 0.120046362
v 0.0110061094 -0.0303196628 0.120035112
v 0.01040611 -0.0303196628 0.120035112
v 0.01070611 -0.0303994417 0.120010994
v 0.0110061094 -0.030412728 0.120008349
v 0.01070611 -0.0305037089 0.120000005
v 0.01040611 -0.030412728 0.120008349
v 0.0110061094 -0.0305037089 0.120000005
v 0.01040611 -0.0305037089 0.120000005
v 0.0110061094 -0.0305946916 0.120008349
v 0.01040611 -0.0305946916 0.120008349
v 0.01070611 -0.030607976 0.120010994
v 0.0110061094 -0.0306877568 0.120035112
v 0.01040611 -0.0306877568 0.120035112
v 0.01070611 -0.0306877568 0.120035112
v 0.01070611 -0.0307649672 0.120073691
v 0.0110061094 -0.0307773147 0.1200815
v 0.01040611 -0.0307773147 0.1200815
v 0.01070611 -0.0308357421 0.120126165
v 0.0110061094 -0.0308572631 0.120146446
v 0.01040611 -0.0308572631 0.120146446
v 0.01070611 -0.0308964923 0.120190613
v 0.0110061094 -0.030922208 0.1202264
v 0.01040611 -0.030922208 0.1202264
v 0.01070611 -0.0309444852 0.120263956
v 0.0110061094 -0.0309686027 0.120315954
v 0.01040611 -0.0309686027 0.120315954
v 0.01070611 -0.0309782382 0.120342448
v 0.0110061094 -0.0309953615 0.120409019
v 0.01040611 -0.0309953615 0.120409019
v 0.01070611 -0.03099763 0.120422259
v 0.0110061094 -0.03100371 0.1205
v 0.01040611 -0.03100371 0.1205
v 0.01070611 -0.03100371 0.122575
v 0.01040611 -0.03100371 0.1205
v 0.0110061094 -0.03100371 0.1205
v 0.0110061094 -0.03100371 0.12465
v 0.01040611 -0.03100371 0.12465
v 0.0110061094 -0.03000371 0.12465
v 0.01070611 -0.03000371 0.122575
v 0.01040611 -0.03000371 0.12465
v 0.0110061094 -0.03000371 0.1205
v 0.01040611 -0.03000371 0.1205
v 0.008721136 -0.0305037089 0.125386238
v 0.008721136 -0.0285037085 0.125386238
v 0.0087693 -0.0285037085 0.125218719
v 0.00870611 -0.0285037085 0.12555
v 0.00870611 -0.03250371 0.12555
v 0.008721136 -0.03250371 0.125386238
v 0.0087693 -0.0305037089 0.125218719
v 0.008852813 -0.0285037085 0.125057518
v 0.0087693 -0.03250371 0.125218719
v 0.008852813 -0.0305037089 0.125057518
v 0.008969713 -0.0285037085 0.1249136
v 0.008852813 -0.03250371 0.125057518
v 0.008969715 -0.0305037089 0.1249136
v 0.009113621 -0.0285037085 0.1247967
v 0.008969715 -0.03250371 0.1249136
v 0.009113621 -0.0305037089 0.1247967
v 0.009274824 -0.0285037085 0.12471319
v 0.009113621 -0.03250371 0.1247967
v 0.009274825 -0.0305037089 0.12471319
v 0.009442342 -0.0285037085 0.124665029
v 0.009274825 -0.03250371 0.12471319
v 0.009442344 -0.0305037089 0.124665029
v 0.00960611 -0.0285037085 0.12465
v 0.009442344 -0.03250371 0.124665029
v 0.00960611 -0.03250371 0.12465
v 0.0126910843 -0.0305037089 0.125386238
v 0.0126910862 -0.03250371 0.125386238
v 0.01264292 -0.03250371 0.125218719
v 0.01270611 -0.03250371 0.12555
v 0.01270611 -0.0285037085 0.12555
v 0.0126910843 -0.0285037085 0.125386238
v 0.01264292 -0.0305037089 0.125218719
v 0.0125594065 -0.03250371 0.125057518
v 0.0126429182 -0.0285037085 0.125218719
v 0.0125594065 -0.0305037089 0.125057518
v 0.0124425068 -0.03250371 0.1249136
v 0.0125594046 -0.0285037085 0.125057518
v 0.0124425068 -0.0305037089 0.1249136
v 0.0122985989 -0.03250371 0.1247967
v 0.012442505 -0.0285037085 0.1249136
v 0.0122985989 -0.0305037089 0.1247967
v 0.0121373963 -0.03250371 0.12471319
v 0.0122985989 -0.0285037085 0.1247967
v 0.0121373963 -0.0305037089 0.12471319
v 0.0119698774 -0.03250371 0.124665029
v 0.0121373963 -0.0285037085 0.12471319
v 0.0119698774 -0.0305037089 0.124665029
v 0.01180611 -0.03250371 0.12465
v 0.0119698774 -0.0285037085 0.124665029
v 0.01180611 -0.0285037085 0.12465
v 0.0119698774 -0.0305037089 0.129134983
v 0.0119698774 -0.03250371 0.129134983
v 0.0121373963 -0.03250371 0.1290868
v 0.01180611 -0.03250371 0.12915
v 0.01180611 -0.0285037085 0.12915
v 0.0119698774 -0.0285037085 0.129134983
v 0.0121373963 -0.0305037089 0.1290868
v 0.0122985989 -0.03250371 0.1290033
v 0.0121373963 -0.0285037085 0.1290868
v 0.0122985989 -0.0305037089 0.1290033
v 0.0124425068 -0.03250371 0.1288864
v 0.0122985989 -0.0285037085 0.1290033
v 0.0124425068 -0.0305037089 0.1288864
v 0.0125594065 -0.03250371 0.128742486
v 0.012442505 -0.0285037085 0.1288864
v 0.0125594065 -0.0305037089 0.128742486
v 0.01264292 -0.03250371 0.128581285
v 0.0125594046 -0.0285037085 0.128742486
v 0.01264292 -0.0305037089 0.128581285
v 0.0126910862 -0.03250371 0.128413767
v 0.0126429182 -0.0285037085 0.128581285
v 0.0126910843 -0.0305037089 0.128413767
v 0.01270611 -0.03250371 0.12825
v 0.0126910843 -0.0285037085 0.128413767
v 0.01270611 -0.0285037085 0.12825
v 0.00960611 -0.0285037085 0.128540009
v 0.009442344 -0.0305037089 0.128524974
v 0.00960611 -0.03250371 0.128540009
v 0.009442342 -0.0285037085 0.128524974
v 0.009442344 -0.03250371 0.128524974
v 0.009274824 -0.0285037085 0.128476813
v 0.009274825 -0.0305037089 0.128476813
v 0.009274825 -0.03250371 0.128476813
v 0.009113621 -0.0285037085 0.128393292
v 0.009113621 -0.0305037089 0.128393292
v 0.009113621 -0.03250371 0.128393292
v 0.008969713 -0.0285037085 0.1282764
v 0.008969715 -0.0305037089 0.1282764
v 0.008969715 -0.03250371 0.1282764
v 0.008852813 -0.0285037085 0.128132492
v 0.008852813 -0.0305037089 0.128132492
v 0.008852813 -0.03250371 0.128132492
v 0.0087693 -0.0285037085 0.127971292
v 0.0087693 -0.0305037089 0.127971292
v 0.0087693 -0.03250371 0.127971292
v 0.008721136 -0.0285037085 0.127803773
v 0.008721136 -0.0305037089 0.127803773
v 0.008721136 -0.03250371 0.127803773
v 0.00870611 -0.0285037085 0.127640009
v 0.00870611 -0.03250371 0.127640009
v 0.00930611 -0.0285037085 0.127640009
v 0.009311119 -0.0305037089 0.127694592
v 0.00930611 -0.03250371 0.127640009
v 0.009311117 -0.0285037085 0.127694592
v 0.009311119 -0.03250371 0.127694592
v 0.009327173 -0.0285037085 0.127750427
v 0.009327173 -0.0305037089 0.127750427
v 0.009327173 -0.03250371 0.127750427
v 0.00935501 -0.0285037085 0.12780416
v 0.009355012 -0.0305037089 0.12780416
v 0.009355012 -0.03250371 0.12780416
v 0.009393977 -0.0285037085 0.127852142
v 0.009393979 -0.0305037089 0.127852142
v 0.009393979 -0.03250371 0.127852142
v 0.009441948 -0.0285037085 0.1278911
v 0.009441948 -0.0305037089 0.1278911
v 0.009441948 -0.03250371 0.1278911
v 0.009495681 -0.0285037085 0.127918944
v 0.009495681 -0.0305037089 0.127918944
v 0.009495681 -0.03250371 0.127918944
v 0.009551521 -0.0285037085 0.127934992
v 0.009551521 -0.0305037089 0.127934992
v 0.009551521 -0.03250371 0.127934992
v 0.00960611 -0.0285037085 0.12794
v 0.00960611 -0.03250371 0.12794
v 0.009311119 -0.0305037089 0.125495419
v 0.009311119 -0.03250371 0.125495419
v 0.009327173 -0.03250371 0.125439569
v 0.00930611 -0.03250371 0.12555
v 0.00930611 -0.0285037085 0.12555
v 0.009311117 -0.0285037085 0.125495419
v 0.009327173 -0.0305037089 0.125439569
v 0.009355012 -0.03250371 0.125385836
v 0.009327173 -0.0285037085 0.125439569
v 0.009355012 -0.0305037089 0.125385836
v 0.009393979 -0.03250371 0.125337869
v 0.00935501 -0.0285037085 0.125385836
v 0.009393979 -0.0305037089 0.125337869
v 0.009441948 -0.03250371 0.1252989
v 0.009393977 -0.0285037085 0.125337869
v 0.009441948 -0.0305037089 0.1252989
v 0.009495681 -0.03250371 0.125271067
v 0.009441948 -0.0285037085 0.1252989
v 0.009495681 -0.0305037089 0.125271067
v 0.009551521 -0.03250371 0.125255018
v 0.009495681 -0.0285037085 0.125271067
v 0.009551521 -0.0305037089 0.125255018
v 0.00960611 -0.03250371 0.12525
v 0.009551521 -0.0285037085 0.125255018
v 0.00960611 -0.0285037085 0.12525
v 0.0118606985 -0.0305037089 0.125255018
v 0.0118607 -0.03250371 0.125255018
v 0.0119165387 -0.03250371 0.125271067
v 0.01180611 -0.03250371 0.12525
v 0.01180611 -0.0285037085 0.12525
v 0.0118606985 -0.0285037085 0.125255018
v 0.0119165387 -0.0305037089 0.125271067
v 0.0119702742 -0.03250371 0.1252989
v 0.0119165387 -0.0285037085 0.125271067
v 0.0119702723 -0.0305037089 0.1252989
v 0.0120182429 -0.03250371 0.125337869
v 0.0119702723 -0.0285037085 0.1252989
v 0.0120182429 -0.0305037089 0.125337869
v 0.0120572094 -0.03250371 0.125385836
v 0.0120182429 -0.0285037085 0.125337869
v 0.0120572094 -0.0305037089 0.125385836
v 0.0120850466 -0.03250371 0.125439569
v 0.0120572094 -0.0285037085 0.125385836
v 0.0120850466 -0.0305037089 0.125439569
v 0.0121011026 -0.03250371 0.125495419
v 0.0120850466 -0.0285037085 0.125439569
v 0.0121011026 -0.0305037089 0.125495419
v 0.0121061113 -0.03250371 0.12555
v 0.0121011008 -0.0285037085 0.125495419
v 0.0121061113 -0.0285037085 0.12555
v 0.00930611 -0.0305037089 0.126595
v 0.00930611 -0.0285037085 0.127640009
v 0.00930611 -0.03250371 0.127640009
v 0.00930611 -0.03250371 0.12555
v 0.00930611 -0.0285037085 0.12555
v 0.01070611 -0.0305037089 0.12525
v 0.00960611 -0.0285037085 0.12525
v 0.00960611 -0.03250371 0.12525
v 0.01180611 -0.03250371 0.12525
v 0.01180611 -0.0285037085 0.12525
v 0.0121061113 -0.0305037089 0.1269
v 0.0121061113 -0.0285037085 0.12555
v 0.0121061113 -0.03250371 0.12555
v 0.0121061113 -0.03250371 0.12825
v 0.0121061113 -0.0285037085 0.12825
v 0.00960611 -0.03250371 0.12855
v 0.009963648 -0.0312461723 0.12855
v 0.01013154 -0.0313825533 0.12855
v 0.0103196111 -0.03147999 0.12855
v 0.0105150491 -0.03153618 0.12855
v 0.00982726552 -0.031078279 0.12855
v 0.01070611 -0.031553708 0.12855
v 0.01180611 -0.03250371 0.12855
v 0.0108971708 -0.03153618 0.12855
v 0.0110926088 -0.03147999 0.12855
v 0.009106111 -0.03250371 0.12855
v 0.01128068 -0.0313825533 0.12855
v 0.009729832 -0.03089021 0.12855
v 0.00967364 -0.0306947716 0.12855
v 0.009656111 -0.0305037089 0.12855
v 0.0114485733 -0.03124617 0.12855
v 0.009106109 -0.0285037085 0.12855
v 0.0115849562 -0.031078279 0.12855
v 0.00967364 -0.030312648 0.12855
v 0.009729832 -0.03011721 0.12855
v 0.00982726552 -0.0299291387 0.12855
v 0.0116823874 -0.0308902077 0.12855
v 0.0117385816 -0.0306947716 0.12855
v 0.0117561091 -0.0305037089 0.12855
v 0.01180611 -0.0285037085 0.12855
v 0.0117385816 -0.030312648 0.12855
v 0.0116823874 -0.03011721 0.12855
v 0.00960611 -0.0285037085 0.12855
v 0.0115849562 -0.0299291387 0.12855
v 0.009963648 -0.0297612473 0.12855
v 0.0114485715 -0.0297612473 0.12855
v 0.01013154 -0.0296248645 0.12855
v 0.01128068 -0.0296248645 0.12855
v 0.0103196111 -0.0295274314 0.12855
v 0.0105150491 -0.02947124 0.12855
v 0.01070611 -0.02945371 0.12855
v 0.0110926088 -0.0295274314 0.12855
v 0.0108971708 -0.02947124 0.12855
v 0.01180611 -0.03250371 0.12915
v 0.0117385816 -0.0306947716 0.12915
v 0.0116823874 -0.0308902077 0.12915
v 0.0115849562 -0.031078279 0.12915
v 0.0114485733 -0.03124617 0.12915
v 0.01128068 -0.0313825533 0.12915
v 0.0110926088 -0.03147999 0.12915
v 0.0108971708 -0.03153618 0.12915
v 0.01070611 -0.031553708 0.12915
v 0.0117561091 -0.0305037089 0.12915
v 0.0105150491 -0.03153618 0.12915
v 0.009106111 -0.03250371 0.12915
v 0.0103196111 -0.03147999 0.12915
v 0.01180611 -0.0285037085 0.12915
v 0.0117385816 -0.030312648 0.12915
v 0.0116823874 -0.03011721 0.12915
v 0.0115849562 -0.0299291387 0.12915
v 0.01013154 -0.0313825533 0.12915
v 0.0114485715 -0.0297612473 0.12915
v 0.009963648 -0.0312461723 0.12915
v 0.01128068 -0.0296248645 0.12915
v 0.00982726552 -0.031078279 0.12915
v 0.0110926088 -0.0295274314 0.12915
v 0.009729832 -0.03089021 0.12915
v 0.00967364 -0.0306947716 0.12915
v 0.009656111 -0.0305037089 0.12915
v 0.009106109 -0.0285037085 0.12915
v 0.00967364 -0.030312648 0.12915
v 0.0108971708 -0.02947124 0.12915
v 0.01070611 -0.02945371 0.12915
v 0.0105150491 -0.02947124 0.12915
v 0.009729832 -0.03011721 0.12915
v 0.0103196111 -0.0295274314 0.12915
v 0.00982726552 -0.0299291387 0.12915
v 0.01013154 -0.0296248645 0.12915
v 0.009963648 -0.0297612473 0.12915
v 0.01270611 -0.0305037089 0.1269
v 0.01270611 -0.03250371 0.12555
v 0.01270611 -0.0285037085 0.12555
v 0.01270611 -0.0285037085 0.12825
v 0.01270611 -0.03250371 0.12825
v 0.00870611 -0.0305037089 0.126595
v 0.00870611 -0.03250371 0.12555
v 0.00870611 -0.03250371 0.127640009
v 0.00870611 -0.0285037085 0.127640009
v 0.00870611 -0.0285037085 0.12555
v 0.01180611 -0.03250371 0.128540009
v 0.0114485733 -0.03124617 0.128540009
v 0.01128068 -0.0313825533 0.128540009
v 0.0110926088 -0.03147999 0.128540009
v 0.0108971708 -0.03153618 0.128540009
v 0.0115849562 -0.031078279 0.128540009
v 0.01070611 -0.031553708 0.128540009
v 0.00960611 -0.03250371 0.128540009
v 0.0105150491 -0.03153618 0.128540009
v 0.0103196111 -0.03147999 0.128540009
v 0.0118561108 -0.03250371 0.128540009
v 0.01013154 -0.0313825533 0.128540009
v 0.0116823874 -0.0308902077 0.128540009
v 0.0117385816 -0.0306947716 0.128540009
v 0.0117561091 -0.0305037089 0.128540009
v 0.009963648 -0.0312461723 0.128540009
v 0.0118561108 -0.0285037085 0.128540009
v 0.00982726552 -0.031078279 0.128540009
v 0.0117385816 -0.030312648 0.128540009
v 0.0116823874 -0.03011721 0.128540009
v 0.0115849562 -0.0299291387 0.128540009
v 0.009729832 -0.03089021 0.128540009
v 0.00967364 -0.0306947716 0.128540009
v 0.009656111 -0.0305037089 0.128540009
v 0.00960611 -0.0285037085 0.128540009
v 0.00967364 -0.030312648 0.128540009
v 0.009729832 -0.03011721 0.128540009
v 0.01180611 -0.0285037085 0.128540009
v 0.00982726552 -0.0299291387 0.128540009
v 0.0114485715 -0.0297612473 0.128540009
v 0.009963648 -0.0297612473 0.128540009
v 0.01128068 -0.0296248645 0.128540009
v 0.01013154 -0.0296248645 0.128540009
v 0.0110926088 -0.0295274314 0.128540009
v 0.0108971708 -0.02947124 0.128540009
v 0.01070611 -0.02945371 0.128540009
v 0.0103196111 -0.0295274314 0.128540009
v 0.0105150491 -0.02947124 0.128540009
v 0.0118561108 -0.0305037089 0.12824
v 0.0118561108 -0.0285037085 0.12794
v 0.0118561108 -0.0285037085 0.128540009
v 0.0118561108 -0.03250371 0.128540009
v 0.0118561108 -0.03250371 0.12794
v 0.00960611 -0.03250371 0.12794
v 0.00967364 -0.0306947716 0.12794
v 0.009729832 -0.03089021 0.12794
v 0.00982726552 -0.031078279 0.12794
v 0.009963648 -0.0312461723 0.12794
v 0.01013154 -0.0313825533 0.12794
v 0.0103196111 -0.03147999 0.12794
v 0.0105150491 -0.03153618 0.12794
v 0.009656111 -0.0305037089 0.12794
v 0.01070611 -0.031553708 0.12794
v 0.00960611 -0.0285037085 0.12794
v 0.00967364 -0.030312648 0.12794
v 0.009729832 -0.03011721 0.12794
v 0.0118561108 -0.03250371 0.12794
v 0.0108971708 -0.03153618 0.12794
v 0.0110926088 -0.03147999 0.12794
v 0.00982726552 -0.0299291387 0.12794
v 0.01128068 -0.0313825533 0.12794
v 0.009963648 -0.0297612473 0.12794
v 0.0114485733 -0.03124617 0.12794
v 0.01013154 -0.0296248645 0.12794
v 0.0115849562 -0.031078279 0.12794
v 0.0103196111 -0.0295274314 0.12794
v 0.0105150491 -0.02947124 0.12794
v 0.01070611 -0.02945371 0.12794
v 0.0118561108 -0.0285037085 0.12794
v 0.0108971708 -0.02947124 0.12794
v 0.0110926088 -0.0295274314 0.12794
v 0.0116823874 -0.0308902077 0.12794
v 0.0117385816 -0.0306947716 0.12794
v 0.0117561091 -0.0305037089 0.12794
v 0.01128068 -0.0296248645 0.12794
v 0.0117385816 -0.030312648 0.12794
v 0.0114485715 -0.0297612473 0.12794
v 0.0116823874 -0.03011721 0.12794
v 0.0115849562 -0.0299291387 0.12794
v 0.009106109 -0.0285037085 0.12915
v 0.009106111 -0.0305037089 0.12885
v 0.009106111 -0.03250371 0.12915
v 0.009106109 -0.0285037085 0.12855
v 0.009106111 -0.03250371 0.12855
v 0.01180611 -0.03250371 0.12465
v 0.01040611 -0.03100371 0.12465
v 0.0110061094 -0.03100371 0.12465
v 0.01180611 -0.0285037085 0.12465
v 0.00960611 -0.03250371 0.12465
v 0.0110061094 -0.03000371 0.12465
v 0.01040611 -0.03000371 0.12465
v 0.00960611 -0.0285037085 0.12465
f 1 2 3
f 4 1 3
f 4 3 5
f 6 4 5
f 5 7 6
f 7 8 6
f 7 9 8
f 9 10 8
f 9 11 10
f 11 12 10
f 11 13 12
f 13 14 12
f 13 15 14
f 15 16 14
f 15 17 16
f 17 18 16
f 17 19 18
f 19 20 18
f 19 21 20
f 21 22 20
f 21 23 22
f 23 24 22
f 24 25 22
f 24 26 25
f 26 27 25
f 26 28 27
f 28 29 27
f 28 30 29
f 30 31 29
f 30 32 31
f 32 33 31
f 32 34 33
f 34 35 33
f 34 36 35
f 36 37 35
f 36 38 37
f 38 39 37
f 38 40 39
f 38 41 40
f 41 42 40
f 41 43 42
f 43 44 42
f 43 45 44
f 45 46 44
f 45 47 46
f 47 48 46
f 47 49 48
f 49 50 48
f 49 51 50
f 51 52 50
f 51 53 52
f 53 54 52
f 53 55 54
f 55 56 54
f 55 57 56
f 57 58 56
f 57 59 58
f 59 60 58
f 60 61 58
f 60 62 61
f 62 63 61
f 62 64 63
f 64 65 63
f 64 66 65
f 66 67 65
f 66 68 67
f 68 69 67
f 68 70 69
f 68 71 70
f 71 72 70
f 71 73 72
f 73 74 72
f 73 75 74
f 75 76 74
f 75 77 76
f 77 75 78
f 79 77 78
f 80 81 82
f 80 83 81
f 83 84 81
f 83 85 84
f 85 86 84
f 85 87 86
f 87 88 86
f 87 89 88
f 89 90 88
f 89 91 90
f 91 92 90
f 91 93 92
f 93 94 92
f 93 95 94
f 95 96 94
f 95 97 96
f 97 98 96
f 97 99 98
f 99 100 98
f 99 101 100
f 99 102 101
f 102 103 101
f 102 104 103
f 104 105 103
f 104 106 105
f 106 107 105
f 106 108 107
f 108 109 107
f 108 110 109
f 110 111 109
f 110 112 111
f 112 113 111
f 112 114 113
f 114 115 113
f 114 116 115
f 116 117 115
f 116 118 117
f 118 119 117
f 118 120 119
f 120 121 119
f 121 122 119
f 121 123 122
f 123 124 122
f 123 125 124
f 125 126 124
f 125 127 126
f 127 128 126
f 127 129 128
f 129 130 128
f 129 131 130
f 131 132 130
f 131 133 132
f 133 134 132
f 133 135 134
f 135 136 134
f 135 137 136
f 135 138 137
f 138 139 137
f 138 140 139
f 140 141 139
f 140 142 141
f 142 143 141
f 142 144 143
f 144 145 143
f 144 146 145
f 146 147 145
f 146 148 147
f 148 149 147
f 149 150 147
f 149 151 150
f 151 152 150
f 151 153 152
f 153 154 152
f 153 155 154
f 155 156 154
f 156 157 154
f 156 158 157
f 159 160 161
f 159 161 162
f 163 159 162
f 164 162 161
f 163 162 165
f 162 164 166
f 162 166 165
f 164 167 166
f 165 166 168
f 167 169 166
f 166 169 168
f 167 170 169
f 168 169 171
f 170 172 169
f 169 172 171
f 170 173 172
f 171 172 174
f 173 175 172
f 172 175 174
f 173 176 175
f 174 175 177
f 176 178 175
f 175 178 177
f 176 179 178
f 177 178 180
f 179 181 178
f 178 181 180
f 179 182 181
f 180 181 183
f 182 184 181
f 184 183 181
f 184 185 183
f 186 187 188
f 186 188 189
f 190 186 189
f 189 188 191
f 192 190 189
f 193 189 191
f 192 189 193
f 193 191 194
f 195 192 193
f 196 193 194
f 195 193 196
f 196 194 197
f 198 195 196
f 199 196 197
f 198 196 199
f 199 197 200
f 201 198 199
f 202 199 200
f 201 199 202
f 202 200 203
f 204 201 202
f 205 202 203
f 204 202 205
f 205 203 206
f 207 205 206
f 208 204 205
f 208 205 207
f 207 206 209
f 210 208 207
f 211 207 209
f 212 210 207
f 213 207 211
f 212 207 213
f 214 213 211
f 215 212 213
f 216 213 214
f 216 215 213
f 217 216 214
f 216 217 215
f 217 214 218
f 217 219 215
f 220 217 218
f 217 220 219
f 220 218 221
f 220 222 219
f 223 220 221
f 220 223 222
f 223 221 224
f 223 225 222
f 226 223 224
f 223 226 225
f 226 224 227
f 226 228 225
f 229 226 227
f 226 229 228
f 229 227 230
f 229 231 228
f 232 229 230
f 229 232 231
f 232 230 233
f 231 232 234
f 232 233 234
f 233 235 234
f 235 236 234
f 234 236 237
f 235 238 236
f 236 239 237
f 238 240 236
f 236 240 239
f 238 241 240
f 240 242 239
f 241 243 240
f 240 243 242
f 241 244 243
f 243 245 242
f 244 246 243
f 243 246 245
f 244 247 246
f 246 248 245
f 247 249 246
f 246 249 248
f 247 250 249
f 249 251 248
f 250 252 249
f 249 252 251
f 250 253 252
f 253 254 252
f 252 255 251
f 252 254 255
f 253 256 254
f 254 257 255
f 256 258 254
f 254 259 257
f 258 260 254
f 254 260 259
f 258 261 260
f 260 262 259
f 261 263 260
f 260 263 262
f 261 264 263
f 264 262 263
f 265 264 261
f 264 266 262
f 267 264 265
f 264 267 266
f 268 267 265
f 267 269 266
f 270 267 268
f 267 270 269
f 271 270 268
f 270 272 269
f 273 270 271
f 270 273 272
f 274 273 271
f 273 275 272
f 276 273 274
f 273 276 275
f 277 276 274
f 276 278 275
f 279 276 277
f 276 279 278
f 280 279 277
f 279 281 278
f 279 280 281
f 282 283 284
f 282 284 285
f 286 282 285
f 285 284 287
f 288 286 285
f 289 285 287
f 288 285 289
f 289 287 290
f 291 288 289
f 292 289 290
f 291 289 292
f 292 290 293
f 294 291 292
f 295 292 293
f 294 292 295
f 295 293 296
f 297 294 295
f 298 295 296
f 297 295 298
f 298 296 299
f 300 297 298
f 301 298 299
f 300 298 301
f 301 299 302
f 303 301 302
f 304 300 301
f 304 301 303
f 303 302 305
f 306 304 303
f 307 303 305
f 308 306 303
f 309 303 307
f 308 303 309
f 310 309 307
f 311 308 309
f 312 309 310
f 312 311 309
f 313 312 310
f 312 313 311
f 313 310 314
f 313 315 311
f 316 313 314
f 313 316 315
f 316 314 317
f 316 318 315
f 319 316 317
f 316 319 318
f 319 317 320
f 319 321 318
f 322 319 320
f 319 322 321
f 322 320 323
f 322 324 321
f 325 322 323
f 322 325 324
f 325 323 326
f 325 327 324
f 328 325 326
f 325 328 327
f 328 326 329
f 327 328 330
f 328 329 330
f 329 331 330
f 331 332 330
f 330 332 333
f 331 334 332
f 332 335 333
f 334 336 332
f 332 336 335
f 334 337 336
f 336 338 335
f 337 339 336
f 336 339 338
f 337 340 339
f 339 341 338
f 340 342 339
f 339 342 341
f 340 343 342
f 342 344 341
f 343 345 342
f 342 345 344
f 343 346 345
f 345 347 344
f 346 348 345
f 345 348 347
f 346 349 348
f 349 350 348
f 348 351 347
f 348 350 351
f 349 352 350
f 350 353 351
f 352 354 350
f 350 355 353
f 354 356 350
f 350 356 355
f 354 357 356
f 356 358 355
f 357 359 356
f 356 359 358
f 357 360 359
f 360 358 359
f 361 360 357
f 360 362 358
f 363 360 361
f 360 363 362
f 364 363 361
f 363 365 362
f 366 363 364
f 363 366 365
f 367 366 364
f 366 368 365
f 369 366 367
f 366 369 368
f 370 369 367
f 369 371 368
f 372 369 370
f 369 372 371
f 373 372 370
f 372 374 371
f 375 372 373
f 372 375 374
f 376 375 373
f 375 377 374
f 375 376 377
f 378 379 380
f 379 381 380
f 379 382 381
f 379 383 382
f 383 379 384
f 383 385 382
f 383 384 386
f 383 387 385
f 387 383 388
f 383 389 388
f 383 390 389
f 390 383 391
f 383 392 391
f 383 393 392
f 394 383 386
f 383 394 393
f 394 395 393
f 394 396 395
f 396 394 397
f 398 399 400
f 401 398 400
f 402 401 400
f 403 402 400
f 403 400 404
f 402 403 405
f 406 403 404
f 403 407 405
f 403 408 407
f 408 403 409
f 403 410 409
f 403 411 410
f 411 403 412
f 403 413 412
f 414 403 406
f 403 414 413
f 414 415 413
f 414 416 415
f 416 414 417
f 418 419 420
f 418 420 421
f 422 418 421
f 423 421 420
f 422 421 424
f 421 423 425
f 421 425 424
f 423 426 425
f 424 425 427
f 426 428 425
f 425 428 427
f 426 429 428
f 427 428 430
f 429 431 428
f 428 431 430
f 429 432 431
f 430 431 433
f 432 434 431
f 431 434 433
f 432 435 434
f 433 434 436
f 435 437 434
f 434 437 436
f 435 438 437
f 438 439 437
f 436 437 440
f 437 439 440
f 438 441 439
f 440 439 442
f 441 443 439
f 439 444 442
f 443 445 439
f 439 445 444
f 443 446 445
f 445 447 444
f 446 448 445
f 445 448 447
f 446 449 448
f 449 447 448
f 450 449 446
f 449 451 447
f 452 449 450
f 449 452 451
f 453 452 450
f 452 454 451
f 455 452 453
f 452 455 454
f 456 455 453
f 455 457 454
f 458 455 456
f 455 458 457
f 459 458 456
f 458 460 457
f 461 458 459
f 458 461 460
f 462 461 459
f 461 463 460
f 464 461 462
f 461 464 463
f 465 464 462
f 464 466 463
f 464 465 466
f 467 468 469
f 467 469 470
f 468 467 471
f 471 467 470
f 472 473 474
f 475 473 472
f 473 476 474
f 473 475 476
f 477 478 479
f 477 480 478
f 480 477 481
f 477 482 481
f 483 477 479
f 477 483 482
f 483 479 484
f 483 485 482
f 486 483 484
f 483 486 485
f 486 484 487
f 486 488 485
f 489 486 487
f 486 489 488
f 489 487 490
f 489 491 488
f 492 489 490
f 489 492 491
f 492 490 493
f 492 494 491
f 495 492 493
f 492 495 494
f 495 493 496
f 495 497 494
f 498 495 496
f 495 498 497
f 498 496 499
f 498 500 497
f 501 498 499
f 498 501 500
f 502 503 504
f 502 505 503
f 505 502 506
f 502 507 506
f 508 502 504
f 502 508 507
f 508 504 509
f 508 510 507
f 511 508 509
f 508 511 510
f 511 509 512
f 511 513 510
f 514 511 512
f 511 514 513
f 514 512 515
f 514 516 513
f 517 514 515
f 514 517 516
f 517 515 518
f 517 519 516
f 520 517 518
f 517 520 519
f 520 518 521
f 520 522 519
f 523 520 521
f 520 523 522
f 523 521 524
f 523 525 522
f 526 523 524
f 523 526 525
f 527 528 529
f 527 530 528
f 530 527 531
f 527 532 531
f 533 527 529
f 527 533 532
f 533 529 534
f 533 535 532
f 536 533 534
f 533 536 535
f 536 534 537
f 536 538 535
f 539 536 537
f 536 539 538
f 539 537 540
f 539 541 538
f 542 539 540
f 539 542 541
f 542 540 543
f 542 544 541
f 545 542 543
f 542 545 544
f 545 543 546
f 545 547 544
f 548 545 546
f 545 548 547
f 548 546 549
f 548 550 547
f 551 548 549
f 548 551 550
f 552 553 554
f 553 552 555
f 553 556 554
f 553 555 557
f 553 558 556
f 558 553 557
f 558 559 556
f 558 557 560
f 558 561 559
f 561 558 560
f 561 562 559
f 561 560 563
f 561 564 562
f 564 561 563
f 564 565 562
f 564 563 566
f 564 567 565
f 567 564 566
f 567 568 565
f 567 566 569
f 567 570 568
f 570 567 569
f 570 571 568
f 570 569 572
f 570 573 571
f 573 570 572
f 573 574 571
f 573 572 575
f 574 573 576
f 573 575 576
f 577 578 579
f 578 577 580
f 578 581 579
f 578 580 582
f 578 583 581
f 583 578 582
f 583 584 581
f 583 582 585
f 583 586 584
f 586 583 585
f 586 587 584
f 586 585 588
f 586 589 587
f 589 586 588
f 589 590 587
f 589 588 591
f 589 592 590
f 592 589 591
f 592 593 590
f 592 591 594
f 592 595 593
f 595 592 594
f 595 596 593
f 595 594 597
f 595 598 596
f 598 595 597
f 598 599 596
f 598 597 600
f 599 598 601
f 598 600 601
f 602 603 604
f 602 605 603
f 605 602 606
f 602 607 606
f 608 602 604
f 602 608 607
f 608 604 609
f 608 610 607
f 611 608 609
f 608 611 610
f 611 609 612
f 611 613 610
f 614 611 612
f 611 614 613
f 614 612 615
f 614 616 613
f 617 614 615
f 614 617 616
f 617 615 618
f 617 619 616
f 620 617 618
f 617 620 619
f 620 618 621
f 620 622 619
f 623 620 621
f 620 623 622
f 623 621 624
f 623 625 622
f 626 623 624
f 623 626 625
f 627 628 629
f 627 630 628
f 630 627 631
f 627 632 631
f 633 627 629
f 627 633 632
f 633 629 634
f 633 635 632
f 636 633 634
f 633 636 635
f 636 634 637
f 636 638 635
f 639 636 637
f 636 639 638
f 639 637 640
f 639 641 638
f 642 639 640
f 639 642 641
f 642 640 643
f 642 644 641
f 645 642 643
f 642 645 644
f 645 643 646
f 645 647 644
f 648 645 646
f 645 648 647
f 648 646 649
f 648 650 647
f 651 648 649
f 648 651 650
f 652 653 654
f 652 654 655
f 653 652 656
f 656 652 655
f 657 658 659
f 657 659 660
f 658 657 661
f 661 657 660
f 662 663 664
f 662 664 665
f 663 662 666
f 666 662 665
f 667 668 669
f 670 667 669
f 667 670 671
f 667 672 668
f 667 671 673
f 674 667 673
f 674 673 675
f 674 675 676
f 667 677 672
f 678 674 676
f 677 679 672
f 677 680 679
f 680 677 681
f 674 678 682
f 677 683 681
f 674 682 684
f 683 685 681
f 683 686 685
f 686 683 687
f 688 674 684
f 674 688 689
f 674 689 690
f 691 674 690
f 691 690 692
f 691 692 693
f 683 694 687
f 695 691 693
f 694 696 687
f 691 695 697
f 694 698 696
f 691 697 699
f 698 694 700
f 694 701 700
f 694 702 701
f 694 691 702
f 703 691 699
f 691 704 702
f 691 703 704
f 705 706 707
f 705 707 708
f 709 705 708
f 705 709 710
f 705 710 711
f 712 705 711
f 705 712 713
f 706 705 714
f 705 713 715
f 716 705 715
f 716 715 717
f 705 718 714
f 718 719 714
f 718 720 719
f 720 718 721
f 722 716 717
f 718 723 721
f 716 722 724
f 718 725 723
f 716 724 726
f 725 718 727
f 728 716 726
f 716 728 729
f 716 729 730
f 731 716 730
f 731 730 732
f 718 733 727
f 718 734 733
f 734 718 735
f 718 731 735
f 736 731 732
f 731 737 735
f 731 736 738
f 731 739 737
f 731 738 740
f 739 731 740
f 741 742 743
f 741 743 744
f 742 741 745
f 745 741 744
f 746 747 748
f 749 746 748
f 746 750 747
f 750 746 749
f 751 752 753
f 754 751 753
f 751 754 755
f 751 756 752
f 751 755 757
f 758 751 757
f 758 757 759
f 758 759 760
f 751 761 756
f 762 758 760
f 761 763 756
f 761 764 763
f 764 761 765
f 758 762 766
f 761 767 765
f 758 766 768
f 767 769 765
f 767 770 769
f 770 767 771
f 772 758 768
f 758 772 773
f 758 773 774
f 775 758 774
f 775 774 776
f 775 776 777
f 767 778 771
f 779 775 777
f 778 780 771
f 775 779 781
f 778 782 780
f 775 781 783
f 782 778 784
f 778 785 784
f 778 786 785
f 778 775 786
f 787 775 783
f 775 788 786
f 775 787 788
f 789 790 791
f 789 791 792
f 790 789 793
f 793 789 792
f 794 795 796
f 797 794 796
f 794 797 798
f 794 798 799
f 800 794 799
f 794 800 801
f 794 802 795
f 794 801 803
f 794 804 802
f 804 805 802
f 804 806 805
f 807 794 803
f 807 803 808
f 807 808 809
f 806 804 810
f 811 807 809
f 804 812 810
f 807 811 813
f 804 814 812
f 807 813 815
f 814 804 816
f 804 817 816
f 804 818 817
f 804 819 818
f 819 820 818
f 819 821 820
f 822 807 815
f 807 822 823
f 807 823 824
f 819 807 824
f 821 819 825
f 819 824 826
f 819 827 825
f 819 826 828
f 819 829 827
f 829 819 828
f 830 831 832
f 833 831 830
f 831 834 832
f 831 833 834
f 835 836 837
f 838 835 837
f 835 839 836
f 838 837 840
f 839 841 836
f 842 838 840
f 839 842 841
f 842 840 841
