# ROS coordinates: X forward, Y left, Z up; units are metres.
o mesh
v -0.0999350548 -0.07629205 0.04817919
v -0.09947469 -0.07712421 0.04777236
v -0.0986225158 -0.0755659342 0.04817919
v -0.09816215 -0.07639809 0.04777236
v -0.09849229 -0.07735066 0.04741965
v -0.0990194157 -0.0779471546 0.047263775
v -0.0977068841 -0.077221036 0.047263775
v -0.0985766 -0.0787475854 0.04665114
v -0.09726407 -0.07802147 0.04665114
v -0.09773631 -0.07871717 0.04635677
v -0.09815413 -0.079511255 0.04593508
v -0.09684159 -0.07878514 0.04593508
v -0.09738202 -0.0793575943 0.0457119569
v -0.09776007 -0.08022356 0.045119524
v -0.09644753 -0.07949744 0.045119524
v -0.09705029 -0.07995723 0.0449952856
v -0.09740227 -0.08087031 0.0442119166
v -0.0960897356 -0.08014419 0.0442119166
v -0.096746 -0.08050725 0.0442119166
v -0.096473664 -0.08099952 0.0433688462
v -0.0970879346 -0.0814385 0.0432231165
v -0.0957754 -0.08071238 0.0432231165
v -0.09623719 -0.08142698 0.0424747467
v -0.09682317 -0.08191709 0.04216708
v -0.09551063 -0.08119097 0.04216708
v -0.09603972 -0.08178393 0.0415396728
v -0.09661262 -0.08229768 0.0410602
v -0.09530008 -0.0815715641 0.0410602
v -0.0958834961 -0.08206631 0.0405746959
v -0.096459195 -0.08257501 0.0399205051
v -0.095146656 -0.08184889 0.0399205051
v -0.09576978 -0.08227187 0.03959146
v -0.09636396 -0.08274715 0.03876666
v -0.09505143 -0.08202103 0.03876666
v -0.09569882 -0.08240013 0.0386017524
v -0.09632616 -0.08281549 0.0376170129
v -0.09501362 -0.08208937 0.0376170129
v -0.09566989 -0.08245243 0.0376170129
v -0.09634331 -0.08278449 0.0364886671
v -0.09503077 -0.08205837 0.0364886671
v -0.09573084 -0.08234226 0.0357042328
v -0.09641154 -0.08266115 0.03539677
v -0.095099 -0.08193503 0.03539677
v -0.09585067 -0.08212566 0.0344995558
v -0.0965258852 -0.08245446 0.034354
v -0.096024394 -0.08181162 0.0333702825
v -0.0952133462 -0.08172834 0.034354
v -0.09668066 -0.08217468 0.0333702825
v -0.09536813 -0.08144856 0.0333702825
v -0.0968776047 -0.0818187 0.03241928
v -0.0955650657 -0.08109257 0.03241928
v -0.0962534547 -0.0813975856 0.03228394
v -0.0971238 -0.08137368 0.0314787924
v -0.09581126 -0.08064755 0.0314787924
v -0.09654711 -0.08086677 0.03121411
v -0.0974203646 -0.08083761 0.0305640344
v -0.0961078256 -0.08011148 0.0305640344
v -0.0969065949 -0.08021696 0.0301838871
v -0.0977669954 -0.08021103 0.0296912976
v -0.09645446 -0.07948491 0.0296912976
v -0.0973306149 -0.0794504955 0.0292178821
v -0.09816179 -0.0794974044 0.0288772546
v -0.0968492553 -0.07877128 0.0288772546
v -0.097815074 -0.07857479 0.0283407643
v -0.09860115 -0.0787032247 0.0281381328
v -0.09728861 -0.077977106 0.0281381328
v -0.09835299 -0.07760246 0.0275755525
v -0.0990798 -0.077838 0.0274887942
v -0.09893474 -0.076550886 0.0269418489
v -0.09776726 -0.077111885 0.0274887942
v -0.09959101 -0.0769139454 0.0269418489
v -0.09827848 -0.07618783 0.0269418489
v -0.100126833 -0.0759454 0.0265068933
v -0.0988142937 -0.07521928 0.0265068933
v -0.09954861 -0.0754412562 0.026454296
v -0.100678533 -0.07494814 0.026189955
v -0.099366 -0.07422202 0.026189955
v -0.10018155 -0.07429716 0.0261214823
v -0.101237088 -0.0739385 0.0259932354
v -0.09992455 -0.07321238 0.0259932354
v -0.100820079 -0.07314295 0.0259454586
v -0.10179361 -0.07293253 0.025915131
v -0.100481078 -0.07220641 0.025915131
v -0.101451218 -0.0720021054 0.0259219278
v -0.102339819 -0.0719452053 0.02595056
v -0.101027288 -0.07121908 0.02595056
v -0.102063283 -0.07089575 0.0260410346
v -0.102868386 -0.07098977 0.0260915086
v -0.101555854 -0.07026365 0.0260915086
v -0.10264644 -0.06984162 0.026288582
v -0.10337317 -0.070077315 0.0263277255
v -0.102060638 -0.0693512 0.0263277255
v -0.103849366 -0.06921655 0.0266474634
v -0.102536835 -0.06849042 0.0266474634
v -0.104309738 -0.068384394 0.0270542968
v -0.1029972 -0.0676582754 0.0270542968
v -0.103979595 -0.06743182 0.0274070017
v -0.104765005 -0.06756145 0.027562879
v -0.103452474 -0.06683533 0.027562879
v -0.105207823 -0.06676102 0.02817551
v -0.103895284 -0.06603489 0.02817551
v -0.104735576 -0.06606531 0.028469881
v -0.105630293 -0.06599735 0.0288915746
v -0.104317762 -0.06527123 0.0288915746
v -0.105089866 -0.06542489 0.0291146953
v -0.106024362 -0.06528504 0.0297071282
v -0.104711823 -0.0645589158 0.0297071282
v -0.1054216 -0.06482525 0.0298313685
v -0.106382154 -0.06463829 0.0306147374
v -0.105069615 -0.06391217 0.0306147374
v -0.105725884 -0.06427523 0.0306147374
v -0.105998218 -0.06378296 0.0314578041
v -0.106696486 -0.0640701056 0.0316035338
v -0.105383947 -0.06334399 0.0316035338
v -0.1062347 -0.0633555055 0.0323519036
v -0.10696125 -0.06359152 0.03265957
v -0.105648711 -0.06286539 0.03265957
v -0.10643217 -0.06299856 0.03328698
v -0.1071718 -0.06321092 0.03376645
v -0.105859265 -0.0624848 0.03376645
v -0.106588393 -0.06271617 0.0342519581
v -0.107325226 -0.062933594 0.03490615
v -0.106012695 -0.0622074679 0.03490615
v -0.106702104 -0.06251061 0.03523519
v -0.107420459 -0.0627614558 0.03605999
v -0.10610792 -0.0620353371 0.03605999
v -0.106773064 -0.0623823442 0.0362249
v -0.107458264 -0.06269312 0.03720964
v -0.106145725 -0.0619669929 0.03720964
v -0.106801994 -0.0623300523 0.03720964
v -0.107441112 -0.06272411 0.0383379869
v -0.106128581 -0.0619979948 0.0383379869
v -0.106741048 -0.0624402165 0.0391224176
v -0.10737288 -0.06284745 0.03942988
v -0.106060348 -0.062121328 0.03942988
v -0.106621221 -0.06265683 0.0403271019
v -0.107258536 -0.0630541444 0.0404726528
v -0.106447488 -0.06297086 0.0414563678
v -0.105946004 -0.06232802 0.0404726528
v -0.107103758 -0.06333392 0.0414563678
v -0.105791226 -0.062607795 0.0414563678
v -0.106906816 -0.0636899 0.0424073748
v -0.105594285 -0.0629637837 0.0424073748
v -0.106218435 -0.0633849 0.04254271
v -0.106660619 -0.0641349256 0.0433478579
v -0.105348088 -0.06340881 0.0433478579
v -0.105924778 -0.0639157146 0.0436125435
v -0.106364064 -0.0646709949 0.0442626178
v -0.105051525 -0.0639448762 0.0442626178
v -0.105565295 -0.06456551 0.0446427651
v -0.106017426 -0.0652975738 0.0451353565
v -0.104704887 -0.0645714551 0.0451353565
v -0.105141267 -0.06533198 0.0456087738
v -0.105622634 -0.0660112053 0.0459494
v -0.104310095 -0.06528508 0.0459494
v -0.104656808 -0.06620769 0.04648589
v -0.105183274 -0.06680538 0.04668852
v -0.103870742 -0.06607926 0.04668852
v -0.1041189 -0.06718002 0.0472511
v -0.104704618 -0.0676706 0.04733786
v -0.103537142 -0.0682316 0.0478848033
v -0.103392079 -0.06694448 0.04733786
v -0.104193412 -0.06859466 0.0478848033
v -0.10288088 -0.06786853 0.0478848033
v -0.103657596 -0.0695631951 0.04831976
v -0.102345057 -0.06883708 0.04831976
v -0.102923274 -0.06934123 0.0483723581
v -0.103105888 -0.07056046 0.0486366972
v -0.101793349 -0.06983434 0.0486366972
v -0.102290332 -0.07048532 0.04870517
v -0.102547333 -0.0715701 0.04883342
v -0.101234794 -0.07084398 0.04883342
v -0.1016518 -0.07163952 0.0488811955
v -0.101990812 -0.07257607 0.0489115231
v -0.10067828 -0.07184995 0.0489115231
v -0.101020664 -0.07278038 0.0489047244
v -0.1014446 -0.0735634 0.04887609
v -0.100132063 -0.07283728 0.04887609
v -0.100408606 -0.07388674 0.04878562
v -0.100916035 -0.07451883 0.04873514
v -0.0996035039 -0.07379271 0.04873514
v -0.09982544 -0.07494086 0.0485380739
v -0.100411251 -0.07543128 0.04849893
v -0.09909871 -0.07470516 0.04849893
v -0.0999350548 -0.07629205 0.04817919
v -0.0986225158 -0.0755659342 0.04817919
v -0.09886002 -0.07513663 0.0397617742
v -0.09929753 -0.07537867 0.0397617742
v -0.09918664 -0.07557912 0.03969893
v -0.09895106 -0.0754885152 0.03969322
v -0.09874912 -0.07533708 0.03969893
v -0.09906514 -0.075798735 0.03967899
v -0.09862763 -0.0755566955 0.03967899
v -0.09881052 -0.07574254 0.0396824181
v -0.09893908 -0.07602659 0.039710056
v -0.09850158 -0.07578455 0.039710056
v -0.09866679 -0.07600236 0.03973994
v -0.09881615 -0.07624881 0.039795056
v -0.0983786359 -0.07600677 0.039795056
v -0.0985316262 -0.0762466639 0.03986669
v -0.09870425 -0.07645108 0.0399302877
v -0.0982667357 -0.07620904 0.0399302877
v -0.09841606 -0.07645558 0.0400523432
v -0.0986099541 -0.076621525 0.04010586
v -0.09817244 -0.0763794854 0.04010586
v -0.09832749 -0.07661568 0.0402780063
v -0.0985372439 -0.07675295 0.0403079242
v -0.0982684 -0.07672249 0.04052175
v -0.09809974 -0.07651091 0.0403079242
v -0.09848715 -0.0768435 0.04052175
v -0.09804964 -0.07660146 0.04052175
v -0.09845673 -0.07689849 0.0407508276
v -0.09801922 -0.07665645 0.0407508276
v -0.09823521 -0.07678247 0.04078558
v -0.09844708 -0.07691594 0.04100181
v -0.098009564 -0.0766739 0.04100181
v -0.09822832 -0.07679492 0.04100181
v -0.0982396156 -0.07677451 0.0412250124
v -0.09846212 -0.076888755 0.0412622057
v -0.09802461 -0.0766467154 0.0412622057
v -0.09827013 -0.07671935 0.0414452441
v -0.09850326 -0.07681438 0.04151617
v -0.09806575 -0.07657234 0.04151617
v -0.09831919 -0.07663068 0.0416520163
v -0.09856873 -0.07669605 0.0417473242
v -0.09813122 -0.07645401 0.0417473242
v -0.0983843654 -0.07651286 0.041835878
v -0.09865372 -0.07654242 0.0419421121
v -0.0982162058 -0.07630038 0.0419421121
v -0.09846192 -0.0763726756 0.04198978
v -0.09875154 -0.076365605 0.0420923159
v -0.0983140245 -0.0761235654 0.0420923159
v -0.09854738 -0.0762182 0.0421099365
v -0.09885504 -0.076178506 0.042195797
v -0.09841753 -0.07593647 0.042195797
v -0.0989659354 -0.0759780556 0.0422586426
v -0.098764 -0.07582663 0.04226435
v -0.09852842 -0.075736016 0.0422586426
v -0.09908743 -0.07575844 0.04227858
v -0.09864992 -0.0755164 0.04227858
v -0.09890454 -0.075572595 0.0422751531
v -0.09921348 -0.07553059 0.0422475152
v -0.09877597 -0.07528855 0.0422475152
v -0.09904827 -0.0753127858 0.0422176346
v -0.09933642 -0.07530837 0.04216252
v -0.09889891 -0.07506633 0.04216252
v -0.0991834253 -0.0750684738 0.0420908853
v -0.0994483158 -0.0751061 0.0420272872
v -0.09901081 -0.07486406 0.0420272872
v -0.099299 -0.07485957 0.041905228
v -0.09954262 -0.07493566 0.04185171
v -0.0991051048 -0.07469362 0.04185171
v -0.09938757 -0.07469947 0.04167957
v -0.09961532 -0.0748042241 0.0416496471
v -0.09944666 -0.07459266 0.0414358266
v -0.099177815 -0.0745621845 0.0416496471
v -0.09966542 -0.07471368 0.0414358266
v -0.0992279053 -0.07447164 0.0414358266
v -0.09969584 -0.0746586844 0.0412067436
v -0.099258326 -0.0744166449 0.0412067436
v -0.09947985 -0.07453267 0.04117199
v -0.0997054949 -0.0746412352 0.04095576
v -0.09926798 -0.0743991956 0.04095576
v -0.09948674 -0.0745202154 0.04095576
v -0.09947544 -0.07454063 0.0407325625
v -0.09969045 -0.07466842 0.0406953655
v -0.09925294 -0.07442638 0.0406953655
v -0.0994449258 -0.0745957941 0.04051233
v -0.09964931 -0.074742794 0.040441405
v -0.0992118 -0.0745007545 0.040441405
v -0.09939587 -0.074684456 0.0403055549
v -0.09958384 -0.0748611242 0.040210247
v -0.09914633 -0.0746190846 0.040210247
v -0.09933069 -0.07480228 0.0401216969
v -0.09949885 -0.07501476 0.04001546
v -0.09906134 -0.07477272 0.04001546
v -0.09925314 -0.07494247 0.0399677865
v -0.0994010344 -0.07519157 0.0398652554
v -0.09896352 -0.07494953 0.0398652554
v -0.09916768 -0.07509694 0.0398476347
v -0.09929753 -0.07537867 0.0397617742
v -0.09886002 -0.07513663 0.0397617742
v -0.100579672 -0.07202818 0.03741333
v -0.103452474 -0.06683533 0.027562879
v -0.103895284 -0.06603489 0.02817551
v -0.104317762 -0.06527123 0.0288915746
v -0.1029972 -0.0676582754 0.0270542968
v -0.104711823 -0.0645589158 0.0297071282
v -0.102536835 -0.06849042 0.0266474634
v -0.105069615 -0.06391217 0.0306147374
v -0.102060638 -0.0693512 0.0263277255
v -0.105383947 -0.06334399 0.0316035338
v -0.101555854 -0.07026365 0.0260915086
v -0.105648711 -0.06286539 0.03265957
v -0.101027288 -0.07121908 0.02595056
v -0.105859265 -0.0624848 0.03376645
v -0.100481078 -0.07220641 0.025915131
v -0.106012695 -0.0622074679 0.03490615
v -0.09992455 -0.07321238 0.0259932354
v -0.10610792 -0.0620353371 0.03605999
v -0.099366 -0.07422202 0.026189955
v -0.106145725 -0.0619669929 0.03720964
v -0.0988142937 -0.07521928 0.0265068933
v -0.106128581 -0.0619979948 0.0383379869
v -0.09827848 -0.07618783 0.0269418489
v -0.106060348 -0.062121328 0.03942988
v -0.09776726 -0.077111885 0.0274887942
v -0.105946004 -0.06232802 0.0404726528
v -0.09728861 -0.077977106 0.0281381328
v -0.105791226 -0.062607795 0.0414563678
v -0.0968492553 -0.07877128 0.0288772546
v -0.105594285 -0.0629637837 0.0424073748
v -0.09645446 -0.07948491 0.0296912976
v -0.105348088 -0.06340881 0.0433478579
v -0.0961078256 -0.08011148 0.0305640344
v -0.105051525 -0.0639448762 0.0442626178
v -0.09581126 -0.08064755 0.0314787924
v -0.104704887 -0.0645714551 0.0451353565
v -0.0955650657 -0.08109257 0.03241928
v -0.104310095 -0.06528508 0.0459494
v -0.103870742 -0.06607926 0.04668852
v -0.103392079 -0.06694448 0.04733786
v -0.10288088 -0.06786853 0.0478848033
v -0.102345057 -0.06883708 0.04831976
v -0.101793349 -0.06983434 0.0486366972
v -0.101234794 -0.07084398 0.04883342
v -0.10067828 -0.07184995 0.0489115231
v -0.100132063 -0.07283728 0.04887609
v -0.0996035039 -0.07379271 0.04873514
v -0.09909871 -0.07470516 0.04849893
v -0.0986225158 -0.0755659342 0.04817919
v -0.09536813 -0.08144856 0.0333702825
v -0.0992279053 -0.07447164 0.0414358266
v -0.099258326 -0.0744166449 0.0412067436
v -0.09926798 -0.0743991956 0.04095576
v -0.09925294 -0.07442638 0.0406953655
v -0.0992118 -0.0745007545 0.040441405
v -0.099177815 -0.0745621845 0.0416496471
v -0.09914633 -0.0746190846 0.040210247
v -0.0991051048 -0.07469362 0.04185171
v -0.09906134 -0.07477272 0.04001546
v -0.09901081 -0.07486406 0.0420272872
v -0.09889891 -0.07506633 0.04216252
v -0.09877597 -0.07528855 0.0422475152
v -0.09816215 -0.07639809 0.04777236
v -0.09864992 -0.0755164 0.04227858
v -0.0977068841 -0.077221036 0.047263775
v -0.09852842 -0.075736016 0.0422586426
v -0.09896352 -0.07494953 0.0398652554
v -0.09726407 -0.07802147 0.04665114
v -0.09841753 -0.07593647 0.042195797
v -0.0983140245 -0.0761235654 0.0420923159
v -0.09684159 -0.07878514 0.04593508
v -0.0982162058 -0.07630038 0.0419421121
v -0.09644753 -0.07949744 0.045119524
v -0.09813122 -0.07645401 0.0417473242
v -0.0960897356 -0.08014419 0.0442119166
v -0.09806575 -0.07657234 0.04151617
v -0.0957754 -0.08071238 0.0432231165
v -0.09802461 -0.0766467154 0.0412622057
v -0.09886002 -0.07513663 0.0397617742
v -0.09874912 -0.07533708 0.03969893
v -0.09862763 -0.0755566955 0.03967899
v -0.09551063 -0.08119097 0.04216708
v -0.098009564 -0.0766739 0.04100181
v -0.09801922 -0.07665645 0.0407508276
v -0.09530008 -0.0815715641 0.0410602
v -0.09804964 -0.07660146 0.04052175
v -0.095146656 -0.08184889 0.0399205051
v -0.09809974 -0.07651091 0.0403079242
v -0.09505143 -0.08202103 0.03876666
v -0.09850158 -0.07578455 0.039710056
v -0.09817244 -0.0763794854 0.04010586
v -0.09501362 -0.08208937 0.0376170129
v -0.09503077 -0.08205837 0.0364886671
v -0.0982667357 -0.07620904 0.0399302877
v -0.095099 -0.08193503 0.03539677
v -0.0983786359 -0.07600677 0.039795056
v -0.0952133462 -0.08172834 0.034354
v -0.101892211 -0.0727543 0.03741333
v -0.100916035 -0.07451883 0.04873514
v -0.1014446 -0.0735634 0.04887609
v -0.101990812 -0.07257607 0.0489115231
v -0.100411251 -0.07543128 0.04849893
v -0.102547333 -0.0715701 0.04883342
v -0.0999350548 -0.07629205 0.04817919
v -0.103105888 -0.07056046 0.0486366972
v -0.09947469 -0.07712421 0.04777236
v -0.103657596 -0.0695631951 0.04831976
v -0.0990194157 -0.0779471546 0.047263775
v -0.104193412 -0.06859466 0.0478848033
v -0.0985766 -0.0787475854 0.04665114
v -0.104704618 -0.0676706 0.04733786
v -0.09815413 -0.079511255 0.04593508
v -0.105183274 -0.06680538 0.04668852
v -0.09776007 -0.08022356 0.045119524
v -0.105622634 -0.0660112053 0.0459494
v -0.09740227 -0.08087031 0.0442119166
v -0.106017426 -0.0652975738 0.0451353565
v -0.0970879346 -0.0814385 0.0432231165
v -0.106364064 -0.0646709949 0.0442626178
v -0.09682317 -0.08191709 0.04216708
v -0.106660619 -0.0641349256 0.0433478579
v -0.09661262 -0.08229768 0.0410602
v -0.106906816 -0.0636899 0.0424073748
v -0.096459195 -0.08257501 0.0399205051
v -0.107103758 -0.06333392 0.0414563678
v -0.09636396 -0.08274715 0.03876666
v -0.107258536 -0.0630541444 0.0404726528
v -0.09632616 -0.08281549 0.0376170129
v -0.10737288 -0.06284745 0.03942988
v -0.09634331 -0.08278449 0.0364886671
v -0.107441112 -0.06272411 0.0383379869
v -0.09641154 -0.08266115 0.03539677
v -0.107458264 -0.06269312 0.03720964
v -0.0965258852 -0.08245446 0.034354
v -0.107420459 -0.0627614558 0.03605999
v -0.09668066 -0.08217468 0.0333702825
v -0.107325226 -0.062933594 0.03490615
v -0.0968776047 -0.0818187 0.03241928
v -0.1071718 -0.06321092 0.03376645
v -0.0971238 -0.08137368 0.0314787924
v -0.10696125 -0.06359152 0.03265957
v -0.0974203646 -0.08083761 0.0305640344
v -0.106696486 -0.0640701056 0.0316035338
v -0.0977669954 -0.08021103 0.0296912976
v -0.106382154 -0.06463829 0.0306147374
v -0.09816179 -0.0794974044 0.0288772546
v -0.106024362 -0.06528504 0.0297071282
v -0.09860115 -0.0787032247 0.0281381328
v -0.105630293 -0.06599735 0.0288915746
v -0.0990798 -0.077838 0.0274887942
v -0.105207823 -0.06676102 0.02817551
v -0.09959101 -0.0769139454 0.0269418489
v -0.104765005 -0.06756145 0.027562879
v -0.100126833 -0.0759454 0.0265068933
v -0.104309738 -0.068384394 0.0270542968
v -0.100678533 -0.07494814 0.026189955
v -0.103849366 -0.06921655 0.0266474634
v -0.101237088 -0.0739385 0.0259932354
v -0.10337317 -0.070077315 0.0263277255
v -0.10179361 -0.07293253 0.025915131
v -0.102868386 -0.07098977 0.0260915086
v -0.102339819 -0.0719452053 0.02595056
v -0.09856873 -0.07669605 0.0417473242
v -0.099076286 -0.07577859 0.0409787856
v -0.09865372 -0.07654242 0.0419421121
v -0.09850326 -0.07681438 0.04151617
v -0.09875154 -0.076365605 0.0420923159
v -0.09846212 -0.076888755 0.0412622057
v -0.09885504 -0.076178506 0.042195797
v -0.09844708 -0.07691594 0.04100181
v -0.0989659354 -0.0759780556 0.0422586426
v -0.09845673 -0.07689849 0.0407508276
v -0.09908743 -0.07575844 0.04227858
v -0.09848715 -0.0768435 0.04052175
v -0.09921348 -0.07553059 0.0422475152
v -0.0985372439 -0.07675295 0.0403079242
v -0.09933642 -0.07530837 0.04216252
v -0.0986099541 -0.076621525 0.04010586
v -0.0994483158 -0.0751061 0.0420272872
v -0.09870425 -0.07645108 0.0399302877
v -0.09954262 -0.07493566 0.04185171
v -0.09881615 -0.07624881 0.039795056
v -0.09961532 -0.0748042241 0.0416496471
v -0.09893908 -0.07602659 0.039710056
v -0.09966542 -0.07471368 0.0414358266
v -0.09906514 -0.075798735 0.03967899
v -0.09969584 -0.0746586844 0.0412067436
v -0.09918664 -0.07557912 0.03969893
v -0.0997054949 -0.0746412352 0.04095576
v -0.09929753 -0.07537867 0.0397617742
v -0.09969045 -0.07466842 0.0406953655
v -0.0994010344 -0.07519157 0.0398652554
v -0.09964931 -0.074742794 0.040441405
v -0.09949885 -0.07501476 0.04001546
v -0.09958384 -0.0748611242 0.040210247
f 1 2 3
f 2 4 3
f 2 5 4
f 5 2 6
f 5 7 4
f 5 6 8
f 5 9 7
f 10 5 8
f 5 10 9
f 10 8 11
f 10 12 9
f 13 10 11
f 10 13 12
f 13 11 14
f 13 15 12
f 16 13 14
f 13 16 15
f 16 14 17
f 16 18 15
f 16 17 19
f 18 16 19
f 20 19 17
f 18 19 20
f 20 17 21
f 22 18 20
f 23 20 21
f 22 20 23
f 23 21 24
f 25 22 23
f 26 23 24
f 25 23 26
f 26 24 27
f 28 25 26
f 29 26 27
f 28 26 29
f 29 27 30
f 31 28 29
f 32 29 30
f 31 29 32
f 32 30 33
f 34 31 32
f 35 32 33
f 34 32 35
f 35 33 36
f 37 34 35
f 38 35 36
f 37 35 38
f 38 36 39
f 40 37 38
f 41 38 39
f 40 38 41
f 41 39 42
f 43 40 41
f 44 41 42
f 43 41 44
f 44 42 45
f 46 44 45
f 47 43 44
f 47 44 46
f 46 45 48
f 49 47 46
f 46 48 50
f 51 49 46
f 52 46 50
f 51 46 52
f 52 50 53
f 54 51 52
f 55 52 53
f 54 52 55
f 55 53 56
f 57 54 55
f 58 55 56
f 57 55 58
f 58 56 59
f 60 57 58
f 61 58 59
f 60 58 61
f 61 59 62
f 63 60 61
f 64 61 62
f 63 61 64
f 64 62 65
f 66 63 64
f 67 64 65
f 66 64 67
f 67 65 68
f 69 67 68
f 70 66 67
f 70 67 69
f 69 68 71
f 72 70 69
f 69 71 73
f 74 72 69
f 75 69 73
f 74 69 75
f 75 73 76
f 77 74 75
f 78 75 76
f 77 75 78
f 78 76 79
f 80 77 78
f 81 78 79
f 80 78 81
f 81 79 82
f 83 80 81
f 84 81 82
f 83 81 84
f 84 82 85
f 86 83 84
f 87 84 85
f 86 84 87
f 87 85 88
f 89 86 87
f 90 87 88
f 89 87 90
f 90 88 91
f 92 89 90
f 93 90 91
f 92 90 93
f 94 92 93
f 93 95 94
f 95 96 94
f 95 97 96
f 97 95 98
f 97 99 96
f 97 98 100
f 97 101 99
f 102 97 100
f 97 102 101
f 102 100 103
f 102 104 101
f 105 102 103
f 102 105 104
f 105 103 106
f 105 107 104
f 108 105 106
f 105 108 107
f 108 106 109
f 108 110 107
f 111 108 109
f 108 111 110
f 111 109 112
f 111 112 110
f 109 113 112
f 110 112 114
f 113 115 112
f 112 115 114
f 113 116 115
f 114 115 117
f 116 118 115
f 115 118 117
f 116 119 118
f 117 118 120
f 119 121 118
f 118 121 120
f 119 122 121
f 120 121 123
f 122 124 121
f 121 124 123
f 122 125 124
f 123 124 126
f 125 127 124
f 124 127 126
f 125 128 127
f 126 127 129
f 128 130 127
f 127 130 129
f 128 131 130
f 129 130 132
f 131 133 130
f 130 133 132
f 131 134 133
f 132 133 135
f 134 136 133
f 133 136 135
f 134 137 136
f 137 138 136
f 135 136 139
f 136 138 139
f 137 140 138
f 139 138 141
f 140 142 138
f 138 143 141
f 142 144 138
f 138 144 143
f 142 145 144
f 144 146 143
f 145 147 144
f 144 147 146
f 145 148 147
f 147 149 146
f 148 150 147
f 147 150 149
f 148 151 150
f 150 152 149
f 151 153 150
f 150 153 152
f 151 154 153
f 153 155 152
f 154 156 153
f 153 156 155
f 154 157 156
f 156 158 155
f 157 159 156
f 156 159 158
f 157 160 159
f 160 161 159
f 159 162 158
f 159 161 162
f 160 163 161
f 161 164 162
f 163 165 161
f 161 166 164
f 165 167 161
f 161 167 166
f 165 168 167
f 167 169 166
f 168 170 167
f 167 170 169
f 168 171 170
f 170 172 169
f 171 173 170
f 170 173 172
f 171 174 173
f 173 175 172
f 174 176 173
f 173 176 175
f 174 177 176
f 176 178 175
f 177 179 176
f 176 179 178
f 177 180 179
f 179 181 178
f 180 182 179
f 179 182 181
f 180 183 182
f 182 184 181
f 183 185 182
f 185 184 182
f 185 186 184
f 187 188 189
f 187 189 190
f 191 187 190
f 190 189 192
f 193 191 190
f 194 190 192
f 193 190 194
f 194 192 195
f 196 193 194
f 197 194 195
f 196 194 197
f 197 195 198
f 199 196 197
f 200 197 198
f 199 197 200
f 200 198 201
f 202 199 200
f 203 200 201
f 202 200 203
f 203 201 204
f 205 202 203
f 206 203 204
f 205 203 206
f 206 204 207
f 208 206 207
f 209 205 206
f 209 206 208
f 208 207 210
f 211 209 208
f 212 208 210
f 213 211 208
f 214 208 212
f 213 208 214
f 215 214 212
f 216 213 214
f 217 214 215
f 217 216 214
f 218 217 215
f 217 218 216
f 218 215 219
f 218 220 216
f 221 218 219
f 218 221 220
f 221 219 222
f 221 223 220
f 224 221 222
f 221 224 223
f 224 222 225
f 224 226 223
f 227 224 225
f 224 227 226
f 227 225 228
f 227 229 226
f 230 227 228
f 227 230 229
f 230 228 231
f 230 232 229
f 233 230 231
f 230 233 232
f 233 231 234
f 232 233 235
f 233 234 235
f 234 236 235
f 236 237 235
f 235 237 238
f 236 239 237
f 237 240 238
f 239 241 237
f 237 241 240
f 239 242 241
f 241 243 240
f 242 244 241
f 241 244 243
f 242 245 244
f 244 246 243
f 245 247 244
f 244 247 246
f 245 248 247
f 247 249 246
f 248 250 247
f 247 250 249
f 248 251 250
f 250 252 249
f 251 253 250
f 250 253 252
f 251 254 253
f 254 255 253
f 253 256 252
f 253 255 256
f 254 257 255
f 255 258 256
f 257 259 255
f 255 260 258
f 259 261 255
f 255 261 260
f 259 262 261
f 261 263 260
f 262 264 261
f 261 264 263
f 262 265 264
f 265 263 264
f 266 265 262
f 265 267 263
f 268 265 266
f 265 268 267
f 269 268 266
f 268 270 267
f 271 268 269
f 268 271 270
f 272 271 269
f 271 273 270
f 274 271 272
f 271 274 273
f 275 274 272
f 274 276 273
f 277 274 275
f 274 277 276
f 278 277 275
f 277 279 276
f 280 277 278
f 277 280 279
f 281 280 278
f 280 282 279
f 280 281 282
f 283 284 285
f 283 285 286
f 284 283 287
f 288 283 286
f 287 283 289
f 283 288 290
f 283 291 289
f 283 290 292
f 283 293 291
f 294 283 292
f 293 283 295
f 283 294 296
f 283 297 295
f 283 296 298
f 283 299 297
f 300 283 298
f 299 283 301
f 283 300 302
f 283 303 301
f 283 302 304
f 283 305 303
f 306 283 304
f 305 283 307
f 283 306 308
f 283 309 307
f 283 308 310
f 283 311 309
f 312 283 310
f 311 283 313
f 283 312 314
f 283 315 313
f 283 314 316
f 283 317 315
f 318 283 316
f 317 283 319
f 283 318 320
f 283 320 321
f 322 283 321
f 283 322 323
f 283 323 324
f 325 283 324
f 283 325 326
f 283 326 327
f 328 283 327
f 283 328 329
f 283 329 330
f 331 283 330
f 283 332 319
f 333 283 331
f 333 334 283
f 334 335 283
f 335 336 283
f 336 337 283
f 338 333 331
f 337 339 283
f 340 338 331
f 339 341 283
f 342 340 331
f 343 342 331
f 344 343 331
f 344 331 345
f 346 344 345
f 346 345 347
f 348 346 347
f 341 349 283
f 348 347 350
f 351 348 350
f 352 351 350
f 352 350 353
f 354 352 353
f 354 353 355
f 356 354 355
f 356 355 357
f 358 356 357
f 358 357 359
f 360 358 359
f 349 361 283
f 361 362 283
f 362 363 283
f 360 359 364
f 365 360 364
f 366 365 364
f 366 364 367
f 368 366 367
f 368 367 369
f 370 368 369
f 370 369 371
f 283 363 332
f 363 372 332
f 373 370 371
f 373 371 374
f 373 374 375
f 376 373 375
f 376 375 377
f 372 378 332
f 378 376 377
f 378 379 332
f 378 377 379
f 380 381 382
f 380 382 383
f 381 380 384
f 385 380 383
f 384 380 386
f 380 385 387
f 380 388 386
f 380 387 389
f 380 390 388
f 391 380 389
f 390 380 392
f 380 391 393
f 380 394 392
f 380 393 395
f 380 396 394
f 397 380 395
f 396 380 398
f 380 397 399
f 380 400 398
f 380 399 401
f 380 402 400
f 403 380 401
f 402 380 404
f 380 403 405
f 380 406 404
f 380 405 407
f 380 408 406
f 409 380 407
f 408 380 410
f 380 409 411
f 380 412 410
f 380 411 413
f 380 414 412
f 415 380 413
f 414 380 416
f 380 415 417
f 380 418 416
f 380 417 419
f 380 420 418
f 421 380 419
f 420 380 422
f 380 421 423
f 380 424 422
f 380 423 425
f 380 426 424
f 427 380 425
f 426 380 428
f 380 427 429
f 380 430 428
f 380 429 431
f 380 432 430
f 433 380 431
f 432 380 434
f 380 433 435
f 380 436 434
f 380 435 437
f 380 438 436
f 439 380 437
f 438 380 440
f 380 439 441
f 380 442 440
f 380 441 443
f 380 444 442
f 444 380 443
f 445 446 447
f 446 445 448
f 446 449 447
f 446 448 450
f 449 446 451
f 452 446 450
f 446 453 451
f 446 452 454
f 446 455 453
f 446 454 456
f 455 446 457
f 458 446 456
f 446 459 457
f 446 458 460
f 446 461 459
f 446 460 462
f 461 446 463
f 464 446 462
f 446 465 463
f 446 464 466
f 446 467 465
f 446 466 468
f 467 446 469
f 470 446 468
f 446 471 469
f 446 470 472
f 446 473 471
f 446 472 474
f 473 446 475
f 476 446 474
f 446 477 475
f 446 476 477
