# ROS coordinates: X forward, Y left, Z up; units are metres.
o mesh
v -0.0249580424 0.106607407 0.0663799942
v -0.0249580424 0.106607407 0.06206
v -0.0246443041 0.107012294 0.06206
v -0.0246042684 0.107076682 0.06422
v -0.0246443059 0.107012294 0.0663799942
v -0.0243967958 0.107493848 0.06206
v -0.0243967958 0.107493848 0.0663799942
v -0.0243418682 0.107643336 0.06422
v -0.0242404882 0.108034544 0.06206
v -0.02424049 0.108034544 0.0663799942
v -0.0242062341 0.10827782 0.06422
v -0.024193285 0.108606786 0.06206
v -0.0241932869 0.108606786 0.0663799942
v -0.0242182277 0.108935066 0.06422
v -0.0242613386 0.109176919 0.06206
v -0.0242613368 0.109176919 0.0663799942
v -0.0243769214 0.10956417 0.06422
v -0.0244372673 0.109711558 0.06206
v -0.02443727 0.109711558 0.0663799942
v -0.0246598218 0.110120878 0.06422
v -0.0247021839 0.110183761 0.06206
v -0.0250304844 0.110576928 0.06422
v -0.024702182 0.110183761 0.0663799942
v -0.0250304826 0.110576928 0.06206
v -0.0250304844 0.110576928 0.0663799942
v -0.0254236534 0.11090523 0.06206
v -0.0254236516 0.11090523 0.0663799942
v -0.0254865345 0.110947587 0.06422
v -0.0258958526 0.111170143 0.06206
v -0.0258958545 0.111170143 0.0663799942
v -0.0258958545 0.111170143 0.06422
v -0.0263512153 0.111327209 0.06422
v -0.02643049 0.111346073 0.06206
v -0.0264304876 0.111346073 0.0663799942
v -0.02683599 0.111406371 0.06422
v -0.0270006228 0.111414127 0.06206
v -0.0270006247 0.111414127 0.0663799942
v -0.027329592 0.111401178 0.06422
v -0.0275728609 0.11136692 0.06206
v -0.0275728628 0.11136692 0.0663799942
v -0.02781026 0.111312479 0.06422
v -0.0281135626 0.111210614 0.06206
v -0.0281135626 0.111210614 0.0663799942
v -0.0282581579 0.111148193 0.06422
v -0.028595116 0.110963106 0.06206
v -0.0285951141 0.110963106 0.0663799942
v -0.0286579188 0.110921711 0.06422
v -0.029 0.11064937 0.06206
v -0.029000001 0.11064937 0.0663799942
v -0.0242404882 0.108034544 0.06206
v -0.0243967958 0.107493848 0.06206
v -0.0246443041 0.107012294 0.06206
v -0.024193285 0.108606786 0.06206
v -0.0249580424 0.106607407 0.06206
v -0.0242613386 0.109176919 0.06206
v -0.0244372673 0.109711558 0.06206
v -0.0247021839 0.110183761 0.06206
v -0.02531649 0.106135204 0.06206
v -0.0303196441 0.105287768 0.06206
v -0.0255785845 0.105589852 0.06206
v -0.0250304826 0.110576928 0.06206
v -0.0257251486 0.105002813 0.06206
v -0.0257508587 0.104410522 0.06206
v -0.0257643517 0.103574738 0.06206
v -0.0259050764 0.102721259 0.06206
v -0.0261794254 0.101879276 0.06206
v -0.02658472 0.101079963 0.06206
v -0.0271087028 0.100352906 0.06206
v -0.0277307145 0.09972259 0.06206
v -0.0284242909 0.0992056951 0.06206
v -0.0291605722 0.09880995 0.06206
v -0.0299462378 0.09852455 0.06206
v -0.0307937935 0.0983517 0.06206
v -0.03167826 0.0983078 0.06206
v -0.0325695463 0.09840146 0.06206
v -0.0334356427 0.0986317545 0.06206
v -0.03424632 0.09898814 0.06206
v -0.034976542 0.099451825 0.06206
v -0.035608802 0.09999861 0.06206
v -0.03615558 0.100630865 0.06206
v -0.0366192721 0.101361088 0.06206
v -0.036975652 0.102171764 0.06206
v -0.0372059532 0.103037864 0.06206
v -0.0372996069 0.103929155 0.06206
v -0.0372557044 0.104813613 0.06206
v -0.03708286 0.105661169 0.06206
v -0.0367974564 0.106446832 0.06206
v -0.03640172 0.107183121 0.06206
v -0.0358848237 0.107876696 0.06206
v -0.0352545045 0.108498707 0.06206
v -0.03452745 0.109022692 0.06206
v -0.03372813 0.109427989 0.06206
v -0.03288615 0.109702334 0.06206
v -0.032032676 0.10984306 0.06206
v -0.0311968848 0.109856553 0.06206
v -0.030604599 0.109882258 0.06206
v -0.0300175585 0.110028826 0.06206
v -0.0294722077 0.110290922 0.06206
v -0.0254236534 0.11090523 0.06206
v -0.029 0.11064937 0.06206
v -0.0258958526 0.111170143 0.06206
v -0.02643049 0.111346073 0.06206
v -0.0270006228 0.111414127 0.06206
v -0.028595116 0.110963106 0.06206
v -0.0275728609 0.11136692 0.06206
v -0.0281135626 0.111210614 0.06206
v -0.0275728628 0.11136692 0.0663799942
v -0.0281135626 0.111210614 0.0663799942
v -0.0285951141 0.110963106 0.0663799942
v -0.0270006247 0.111414127 0.0663799942
v -0.029000001 0.11064937 0.0663799942
v -0.0264304876 0.111346073 0.0663799942
v -0.0258958545 0.111170143 0.0663799942
v -0.0254236516 0.11090523 0.0663799942
v -0.0294722077 0.110290922 0.0663799942
v -0.0303196441 0.105287768 0.0663799942
v -0.0300175585 0.110028826 0.0663799942
v -0.0250304844 0.110576928 0.0663799942
v -0.0306045972 0.109882258 0.0663799942
v -0.0311968867 0.109856553 0.0663799942
v -0.032032676 0.10984306 0.0663799942
v -0.03288615 0.109702334 0.0663799942
v -0.0337281339 0.109427989 0.0663799942
v -0.03452745 0.109022692 0.0663799942
v -0.0352545045 0.108498707 0.0663799942
v -0.0358848274 0.107876696 0.0663799942
v -0.03640172 0.107183121 0.0663799942
v -0.03679746 0.106446832 0.0663799942
v -0.0370828621 0.105661169 0.0663799942
v -0.0372557044 0.104813613 0.0663799942
v -0.0372996032 0.103929155 0.0663799942
v -0.0372059569 0.103037864 0.0663799942
v -0.036975652 0.102171764 0.0663799942
v -0.0366192721 0.101361088 0.0663799942
v -0.0361555852 0.100630865 0.0663799942
v -0.0356088057 0.09999861 0.0663799942
v -0.034976542 0.099451825 0.0663799942
v -0.03424632 0.09898814 0.0663799942
v -0.0334356464 0.0986317545 0.0663799942
v -0.03256955 0.09840146 0.0663799942
v -0.03167826 0.0983078 0.0663799942
v -0.0307937935 0.0983517 0.0663799942
v -0.0299462378 0.09852455 0.0663799942
v -0.0291605741 0.09880995 0.0663799942
v -0.0284242909 0.0992056951 0.0663799942
v -0.0277307127 0.09972259 0.0663799942
v -0.0271087028 0.100352906 0.0663799942
v -0.0265847184 0.101079963 0.0663799942
v -0.0261794254 0.101879276 0.0663799942
v -0.0259050764 0.102721259 0.0663799942
v -0.0257643517 0.103574738 0.0663799942
v -0.0257508587 0.104410522 0.0663799942
v -0.0257251486 0.105002813 0.0663799942
v -0.0255785845 0.105589852 0.0663799942
v -0.02531649 0.106135204 0.0663799942
v -0.024702182 0.110183761 0.0663799942
v -0.0249580424 0.106607407 0.0663799942
v -0.02443727 0.109711558 0.0663799942
v -0.0242613368 0.109176919 0.0663799942
v -0.0241932869 0.108606786 0.0663799942
v -0.0246443059 0.107012294 0.0663799942
v -0.02424049 0.108034544 0.0663799942
v -0.0243967958 0.107493848 0.0663799942
v -0.0257508587 0.104410522 0.06206
v -0.0257251486 0.105002813 0.06422
v -0.0257508587 0.104410522 0.0663799942
v -0.0257251486 0.105002813 0.06206
v -0.0257251486 0.105002813 0.0663799942
v -0.0255785845 0.105589852 0.06206
v -0.0255785845 0.105589852 0.06422
v -0.0255785845 0.105589852 0.0663799942
v -0.02531649 0.106135204 0.06206
v -0.02531649 0.106135204 0.06422
v -0.02531649 0.106135204 0.0663799942
v -0.0249580424 0.106607407 0.06206
v -0.0249580424 0.106607407 0.0663799942
v -0.0311968867 0.109856553 0.0663799942
v -0.0306045972 0.109882258 0.06422
v -0.0311968848 0.109856553 0.06206
v -0.0306045972 0.109882258 0.0663799942
v -0.030604599 0.109882258 0.06206
v -0.0300175585 0.110028826 0.0663799942
v -0.0300175585 0.110028826 0.06422
v -0.0300175585 0.110028826 0.06206
v -0.0294722077 0.110290922 0.0663799942
v -0.0294722077 0.110290922 0.06422
v -0.0294722077 0.110290922 0.06206
v -0.029000001 0.11064937 0.0663799942
v -0.029 0.11064937 0.06206
v -0.0257508587 0.104410522 0.0663799942
v -0.0257494766 0.103786394 0.06422
v -0.0257508587 0.104410522 0.06206
v -0.0257643517 0.103574738 0.0663799942
v -0.0257643517 0.103574738 0.06206
v -0.0258182138 0.103148468 0.06422
v -0.0259050764 0.102721259 0.0663799942
v -0.0259050764 0.102721259 0.06206
v -0.0259610768 0.102508478 0.06422
v -0.0261794254 0.101879276 0.0663799942
v -0.0261794254 0.101879276 0.06206
v -0.0261794254 0.101879276 0.06422
v -0.02647163 0.10127411 0.06422
v -0.0265847184 0.101079963 0.0663799942
v -0.02658472 0.101079963 0.06206
v -0.0268329941 0.100705713 0.06422
v -0.0271087028 0.100352906 0.0663799942
v -0.0271087028 0.100352906 0.06206
v -0.0272559766 0.100185454 0.06422
v -0.0277307127 0.09972259 0.0663799942
v -0.0277307145 0.09972259 0.06206
v -0.0277307127 0.09972259 0.06422
v -0.0282457564 0.0993237048 0.06422
v -0.0284242909 0.0992056951 0.0663799942
v -0.0284242909 0.0992056951 0.06206
v -0.0287888963 0.09899255 0.06422
v -0.0291605741 0.09880995 0.0663799942
v -0.0291605722 0.09880995 0.06206
v -0.0293500759 0.09872916 0.06422
v -0.0299462378 0.09852455 0.0663799942
v -0.0299462378 0.09852455 0.06206
v -0.0299462378 0.09852455 0.06422
v -0.0305773634 0.09838335 0.06422
v -0.0307937935 0.0983517 0.0663799942
v -0.0307937935 0.0983517 0.06206
v -0.0312332045 0.09831289 0.06422
v -0.03167826 0.0983078 0.0663799942
v -0.03167826 0.0983078 0.06206
v -0.0319016874 0.09831819 0.06422
v -0.03256955 0.09840146 0.0663799942
v -0.0325695463 0.09840146 0.06206
v -0.03256955 0.09840146 0.06422
v -0.03311581 0.0985298455 0.06422
v -0.0334356464 0.0986317545 0.0663799942
v -0.0334356427 0.0986317545 0.06206
v -0.0336446 0.09870964 0.06422
v -0.03424632 0.09898814 0.0663799942
v -0.03424632 0.09898814 0.06206
v -0.03414894 0.09893727 0.06422
v -0.0346227773 0.09920799 0.06422
v -0.034976542 0.099451825 0.0663799942
v -0.034976542 0.099451825 0.06206
v -0.0350612 0.09951616 0.06422
v -0.03546056 0.09985556 0.06422
v -0.0356088057 0.09999861 0.0663799942
v -0.035608802 0.09999861 0.06206
v -0.03582192 0.100223467 0.06422
v -0.0361555852 0.100630865 0.0663799942
v -0.03615558 0.100630865 0.06206
v -0.0361555852 0.100630865 0.06422
v -0.03645675 0.101076707 0.06422
v -0.0366192721 0.101361088 0.0663799942
v -0.0366192721 0.101361088 0.06206
v -0.0367192775 0.101557076 0.06422
v -0.036975652 0.102171764 0.0663799942
v -0.036975652 0.102171764 0.06206
v -0.0369376838 0.102066822 0.06422
v -0.0371074378 0.102599688 0.06422
v -0.0372059569 0.103037864 0.0663799942
v -0.0372059532 0.103037864 0.06206
v -0.0372252464 0.10314855 0.06422
v -0.0372892246 0.103705727 0.06422
v -0.0372996032 0.103929155 0.0663799942
v -0.0372996069 0.103929155 0.06206
v -0.0372989923 0.104263321 0.06422
v -0.0372557044 0.104813613 0.0663799942
v -0.0372557044 0.104813613 0.06206
v -0.0372557044 0.104813613 0.06422
v -0.03716189 0.105349392 0.06422
v -0.0370828621 0.105661169 0.0663799942
v -0.03708286 0.105661169 0.06206
v -0.03702129 0.105864219 0.06422
v -0.03679746 0.106446832 0.0663799942
v -0.0367974564 0.106446832 0.06206
v -0.03683859 0.1063527 0.06422
v -0.0366148651 0.106818512 0.06422
v -0.03640172 0.107183121 0.0663799942
v -0.03640172 0.107183121 0.06206
v -0.03634366 0.107272744 0.06422
v -0.03602514 0.107708894 0.06422
v -0.0358848274 0.107876696 0.0663799942
v -0.0358848237 0.107876696 0.06206
v -0.03566104 0.108119845 0.06422
v -0.0352545045 0.108498707 0.0663799942
v -0.0352545045 0.108498707 0.06206
v -0.0352545 0.108498707 0.06422
v -0.03481002 0.108839154 0.06422
v -0.03452745 0.109022692 0.0663799942
v -0.03452745 0.109022692 0.06206
v -0.0343333 0.109135777 0.06422
v -0.0337281339 0.109427989 0.0663799942
v -0.03372813 0.109427989 0.06206
v -0.03383102 0.109384321 0.06422
v -0.03331052 0.109581925 0.06422
v -0.03288615 0.109702334 0.0663799942
v -0.03288615 0.109702334 0.06206
v -0.0327794626 0.109727181 0.06422
v -0.0322454646 0.109820195 0.06422
v -0.032032676 0.10984306 0.0663799942
v -0.032032676 0.10984306 0.06206
v -0.0317157432 0.109862432 0.06422
v -0.0311968867 0.109856553 0.0663799942
v -0.0311968848 0.109856553 0.06206
f 1 2 3
f 1 3 4
f 5 1 4
f 6 4 3
f 5 4 7
f 4 6 8
f 4 8 7
f 6 9 8
f 7 8 10
f 9 11 8
f 8 11 10
f 9 12 11
f 10 11 13
f 12 14 11
f 11 14 13
f 12 15 14
f 13 14 16
f 15 17 14
f 14 17 16
f 15 18 17
f 16 17 19
f 18 20 17
f 17 20 19
f 18 21 20
f 21 22 20
f 19 20 23
f 20 22 23
f 21 24 22
f 23 22 25
f 24 26 22
f 22 27 25
f 26 28 22
f 22 28 27
f 26 29 28
f 28 30 27
f 29 31 28
f 28 31 30
f 29 32 31
f 32 30 31
f 33 32 29
f 32 34 30
f 35 32 33
f 32 35 34
f 36 35 33
f 35 37 34
f 38 35 36
f 35 38 37
f 39 38 36
f 38 40 37
f 41 38 39
f 38 41 40
f 42 41 39
f 41 43 40
f 44 41 42
f 41 44 43
f 45 44 42
f 44 46 43
f 47 44 45
f 44 47 46
f 48 47 45
f 47 49 46
f 47 48 49
f 50 51 52
f 53 50 52
f 53 52 54
f 55 53 54
f 56 55 54
f 57 56 54
f 57 54 58
f 59 57 58
f 59 58 60
f 57 59 61
f 59 60 62
f 63 59 62
f 59 63 64
f 59 64 65
f 66 59 65
f 59 66 67
f 59 67 68
f 69 59 68
f 59 69 70
f 59 70 71
f 72 59 71
f 59 72 73
f 59 73 74
f 75 59 74
f 59 75 76
f 59 76 77
f 78 59 77
f 59 78 79
f 59 79 80
f 81 59 80
f 59 81 82
f 59 82 83
f 84 59 83
f 59 84 85
f 59 85 86
f 87 59 86
f 59 87 88
f 59 88 89
f 90 59 89
f 59 90 91
f 59 91 92
f 93 59 92
f 59 93 94
f 59 94 95
f 96 59 95
f 59 96 97
f 59 97 98
f 99 59 98
f 59 99 61
f 98 100 99
f 100 101 99
f 100 102 101
f 102 100 103
f 100 104 103
f 104 105 103
f 104 106 105
f 107 108 109
f 110 107 109
f 110 109 111
f 112 110 111
f 113 112 111
f 114 113 111
f 115 114 111
f 116 114 115
f 117 116 115
f 116 118 114
f 116 117 119
f 116 119 120
f 121 116 120
f 116 121 122
f 116 122 123
f 124 116 123
f 116 124 125
f 116 125 126
f 127 116 126
f 116 127 128
f 116 128 129
f 130 116 129
f 116 130 131
f 116 131 132
f 133 116 132
f 116 133 134
f 116 134 135
f 136 116 135
f 116 136 137
f 116 137 138
f 139 116 138
f 116 139 140
f 116 140 141
f 142 116 141
f 116 142 143
f 116 143 144
f 145 116 144
f 116 145 146
f 116 146 147
f 148 116 147
f 116 148 149
f 116 149 150
f 151 116 150
f 116 151 152
f 116 152 153
f 154 116 153
f 116 154 155
f 116 155 156
f 118 116 156
f 155 157 156
f 157 158 156
f 157 159 158
f 159 157 160
f 157 161 160
f 161 162 160
f 161 163 162
f 164 165 166
f 165 164 167
f 165 168 166
f 165 167 169
f 165 170 168
f 170 165 169
f 170 171 168
f 170 169 172
f 170 173 171
f 173 170 172
f 173 174 171
f 173 172 175
f 173 176 174
f 176 173 175
f 177 178 179
f 178 177 180
f 178 181 179
f 178 180 182
f 178 183 181
f 183 178 182
f 183 184 181
f 183 182 185
f 183 186 184
f 186 183 185
f 186 187 184
f 186 185 188
f 186 189 187
f 189 186 188
f 190 191 192
f 191 190 193
f 191 194 192
f 195 191 193
f 191 195 194
f 195 193 196
f 195 197 194
f 198 195 196
f 195 198 197
f 198 196 199
f 198 200 197
f 201 198 199
f 198 201 200
f 201 199 202
f 201 202 200
f 199 203 202
f 200 202 204
f 203 205 202
f 202 205 204
f 203 206 205
f 204 205 207
f 206 208 205
f 205 208 207
f 206 209 208
f 207 208 210
f 209 211 208
f 208 211 210
f 209 212 211
f 212 210 211
f 212 209 213
f 212 214 210
f 215 212 213
f 212 215 214
f 215 213 216
f 215 217 214
f 218 215 216
f 215 218 217
f 218 216 219
f 218 220 217
f 221 218 219
f 218 221 220
f 221 219 222
f 221 222 220
f 219 223 222
f 220 222 224
f 223 225 222
f 222 225 224
f 223 226 225
f 224 225 227
f 226 228 225
f 225 228 227
f 226 229 228
f 227 228 230
f 229 231 228
f 228 231 230
f 229 232 231
f 232 230 231
f 232 229 233
f 232 234 230
f 235 232 233
f 232 235 234
f 235 233 236
f 235 237 234
f 238 235 236
f 235 238 237
f 238 236 239
f 238 239 237
f 236 240 239
f 237 239 241
f 240 242 239
f 239 242 241
f 240 243 242
f 243 241 242
f 243 240 244
f 243 245 241
f 246 243 244
f 243 246 245
f 246 244 247
f 246 248 245
f 249 246 247
f 246 249 248
f 249 247 250
f 249 250 248
f 247 251 250
f 248 250 252
f 251 253 250
f 250 253 252
f 251 254 253
f 252 253 255
f 254 256 253
f 253 256 255
f 254 257 256
f 257 255 256
f 257 254 258
f 257 259 255
f 257 258 260
f 259 257 260
f 261 260 258
f 259 260 261
f 261 258 262
f 263 259 261
f 264 261 262
f 261 264 263
f 264 262 265
f 264 266 263
f 267 264 265
f 264 267 266
f 267 265 268
f 267 268 266
f 265 269 268
f 266 268 270
f 269 271 268
f 268 271 270
f 269 272 271
f 270 271 273
f 272 274 271
f 271 274 273
f 272 275 274
f 275 273 274
f 275 272 276
f 275 277 273
f 275 276 278
f 277 275 278
f 279 278 276
f 277 278 279
f 279 276 280
f 281 277 279
f 282 279 280
f 279 282 281
f 282 280 283
f 282 284 281
f 285 282 283
f 282 285 284
f 285 283 286
f 285 286 284
f 283 287 286
f 284 286 288
f 287 289 286
f 286 289 288
f 287 290 289
f 288 289 291
f 290 292 289
f 289 292 291
f 290 293 292
f 293 291 292
f 293 290 294
f 293 295 291
f 293 294 296
f 295 293 296
f 297 296 294
f 295 296 297
f 298 297 294
f 299 295 297
f 300 297 298
f 297 300 299
f 301 300 298
f 300 302 299
f 300 301 302
