# ROS coordinates: X forward, Y left, Z up; units are metres.
o mesh
v -0.0828680843 0.09371476 0.09291653
v -0.08330851 0.09291865 0.09300001
v -0.08241757 0.09452911 0.09264895
v -0.08198404 0.09531276 0.0921849757
v -0.08159702 0.0960123241 0.09153554
v -0.0812826455 0.0965805948 0.09073605
v -0.08105804 0.0969865844 0.08984047
v -0.08814932 0.08416841 0.0855
v -0.0954105258 0.07104306 0.09300001
v -0.08092851 0.09722072 0.08890982
v -0.0954105258 0.07104306 0.0779999942
v -0.08088811 0.0972937644 0.088
v -0.08088811 0.0972937644 0.0779999942
v -0.0954105258 0.07104306 0.09300001
v -0.08330851 0.09291865 0.09300001
v -0.0876836255 0.0953390449 0.09300001
v -0.10287641 0.063745074 0.09300001
v -0.107046857 0.0603381172 0.09300001
v -0.105296813 0.0593699552 0.09300001
v -0.0892853662 0.0676545 0.09300001
v -0.0915011 0.057452023 0.09300001
v -0.07569432 0.07156392 0.09300001
v -0.0751918554 0.0621433333 0.09300001
v -0.0553445369 0.0980193 0.09300001
v -0.0597196557 0.1004397 0.09300001
v -0.06974594 0.0719873458 0.08400001
v -0.07412106 0.07440775 0.08400001
v -0.07412712 0.07439679 0.08386353
v -0.07194148 0.07318312 0.0838436037
v -0.06975201 0.07197639 0.08386353
v -0.0741465539 0.07436167 0.08372393
v -0.06977143 0.07194127 0.08372393
v -0.07196716 0.0731367 0.08368461
v -0.0741802454 0.07430077 0.0835896
v -0.06980512 0.07188037 0.0835896
v -0.07201135 0.07305682 0.0835359246
v -0.0742274 0.07421553 0.083469674
v -0.06985228 0.07179513 0.083469674
v -0.07207191 0.07294736 0.08341083
v -0.07428545 0.0741106 0.08337225
v -0.06991033 0.0716901943 0.08337225
v -0.07214389 0.07281725 0.0833195448
v -0.07435048 0.07399305 0.08330266
v -0.06997536 0.07157265 0.08330266
v -0.07222085 0.0726781338 0.0832665
v -0.07441806 0.0738709 0.08326253
v -0.07229656 0.07254128 0.08325
v -0.07004294 0.0714504942 0.08326253
v -0.0744841248 0.07375148 0.08325
v -0.070109 0.07133108 0.08325
v -0.07455018 0.07363206 0.08326253
v -0.07017507 0.0712116659 0.08326253
v -0.07237227 0.07240442 0.0832665
v -0.0746177658 0.07350992 0.08330266
v -0.07024264 0.0710895061 0.08330266
v -0.0724302 0.07229971 0.08330266
v -0.07248627 0.07219837 0.08336054
v -0.07468279 0.07339236 0.08337225
v -0.07030767 0.0709719658 0.08337225
v -0.07253766 0.0721054748 0.0834392458
v -0.07474084 0.07328743 0.083469674
v -0.07036573 0.0708670244 0.083469674
v -0.07258177 0.07202574 0.0835359246
v -0.0747880042 0.07320219 0.0835896
v -0.07041288 0.07078178 0.0835896
v -0.07261662 0.071962744 0.08364594
v -0.0748216957 0.07314129 0.08372393
v -0.07044657 0.07072089 0.08372393
v -0.07264113 0.07191844 0.0837636739
v -0.07484112 0.07310617 0.08386353
v -0.070466 0.07068577 0.08386353
v -0.07265521 0.07189299 0.08388339
v -0.0748471841 0.07309522 0.08400001
v -0.07047206 0.0706748143 0.08400001
v -0.07484112 0.07310617 0.08413647
v -0.07265164 0.07189944 0.08415641
v -0.070466 0.07068577 0.08413647
v -0.0748216957 0.07314129 0.0842760652
v -0.07044657 0.07072089 0.0842760652
v -0.0726259649 0.07194586 0.08431539
v -0.0747880042 0.07320219 0.0844104141
v -0.07041288 0.07078178 0.0844104141
v -0.07258177 0.07202574 0.08446409
v -0.07474084 0.07328743 0.08453034
v -0.07036573 0.0708670244 0.08453034
v -0.07252122 0.0721351951 0.08458918
v -0.07468279 0.07339236 0.08462775
v -0.07030767 0.0709719658 0.08462775
v -0.07244924 0.0722653046 0.08468047
v -0.0746177658 0.07350992 0.084697336
v -0.07024264 0.0710895061 0.084697336
v -0.07237227 0.07240442 0.084733516
v -0.07455018 0.07363206 0.08473748
v -0.07229656 0.07254128 0.08475
v -0.07017507 0.0712116659 0.08473748
v -0.0744841248 0.07375148 0.08475
v -0.070109 0.07133108 0.08475
v -0.07441806 0.0738709 0.08473748
v -0.07004294 0.0714504942 0.08473748
v -0.07222085 0.0726781338 0.084733516
v -0.07435048 0.07399305 0.084697336
v -0.06997536 0.07157265 0.084697336
v -0.07216292 0.0727828443 0.084697336
v -0.07210685 0.07288419 0.0846394747
v -0.07428545 0.0741106 0.08462775
v -0.06991033 0.0716901943 0.08462775
v -0.07205547 0.07297708 0.08456075
v -0.0742274 0.07421553 0.08453034
v -0.06985228 0.07179513 0.08453034
v -0.07201135 0.07305682 0.08446409
v -0.0741802454 0.07430077 0.0844104141
v -0.06980512 0.07188037 0.0844104141
v -0.0719765052 0.07311981 0.08435407
v -0.0741465539 0.07436167 0.0842760652
v -0.06977143 0.07194127 0.0842760652
v -0.07195199 0.07316412 0.08423634
v -0.07412712 0.07439679 0.08413647
v -0.06975201 0.07197639 0.08413647
v -0.07193792 0.073189564 0.08411661
v -0.07412106 0.07440775 0.08400001
v -0.06974594 0.0719873458 0.08400001
v -0.0561916828 0.096488 0.08400001
v -0.0605668 0.0989084 0.08400001
v -0.0605728626 0.09889744 0.08386353
v -0.05838722 0.09768377 0.0838436037
v -0.0561977439 0.09647705 0.08386353
v -0.06059229 0.09886233 0.08372393
v -0.05621717 0.0964419246 0.08372393
v -0.0584129021 0.0976373553 0.08368461
v -0.0606259778 0.098801434 0.0835896
v -0.0562508628 0.09638102 0.0835896
v -0.05845709 0.09755747 0.0835359246
v -0.06067314 0.0987161845 0.083469674
v -0.0562980175 0.09629578 0.083469674
v -0.058517646 0.09744802 0.08341083
v -0.0607311875 0.09861125 0.08337225
v -0.0563560724 0.0961908549 0.08337225
v -0.0585896224 0.09731791 0.0833195448
v -0.0607962161 0.09849371 0.08330266
v -0.0564211 0.0960733 0.08330266
v -0.05866659 0.09717879 0.0832665
v -0.0608637966 0.09837155 0.08326253
v -0.0587423 0.0970419347 0.08325
v -0.0564886779 0.0959511548 0.08326253
v -0.06092986 0.09825213 0.08325
v -0.0565547422 0.09583174 0.08325
v -0.0609959252 0.0981327146 0.08326253
v -0.0566208065 0.09571232 0.08326253
v -0.0588180125 0.09690508 0.0832665
v -0.0610635 0.09801057 0.08330266
v -0.0566883832 0.09559017 0.08330266
v -0.05887594 0.09680037 0.08330266
v -0.0589320064 0.09669903 0.08336054
v -0.06112853 0.0978930146 0.08337225
v -0.0567534119 0.09547262 0.08337225
v -0.0589833967 0.09660613 0.0834392458
v -0.06118658 0.09778808 0.083469674
v -0.0568114668 0.095367685 0.083469674
v -0.0590275079 0.0965264 0.0835359246
v -0.0612337366 0.0977028459 0.0835896
v -0.05685862 0.09528245 0.0835896
v -0.0590623543 0.0964634 0.08364594
v -0.0612674281 0.0976419449 0.08372393
v -0.0568923131 0.09522155 0.08372393
v -0.059086863 0.096419096 0.0837636739
v -0.06128686 0.09760682 0.08386353
v -0.0569117442 0.09518642 0.08386353
v -0.0591009445 0.0963936448 0.08388339
v -0.061292924 0.09759587 0.08400001
v -0.0569178 0.09517546 0.08400001
v -0.06128686 0.09760682 0.08413647
v -0.05909738 0.0964001 0.08415641
v -0.0569117442 0.09518642 0.08413647
v -0.0612674281 0.0976419449 0.0842760652
v -0.0568923131 0.09522155 0.0842760652
v -0.0590716973 0.0964465141 0.08431539
v -0.0612337366 0.0977028459 0.0844104141
v -0.05685862 0.09528245 0.0844104141
v -0.0590275079 0.0965264 0.08446409
v -0.06118658 0.09778808 0.08453034
v -0.0568114668 0.095367685 0.08453034
v -0.0589669533 0.09663585 0.08458918
v -0.06112853 0.0978930146 0.08462775
v -0.0567534119 0.09547262 0.08462775
v -0.05889497 0.0967659652 0.08468047
v -0.0610635 0.09801057 0.084697336
v -0.0566883832 0.09559017 0.084697336
v -0.0588180125 0.09690508 0.084733516
v -0.0609959252 0.0981327146 0.08473748
v -0.0587423 0.0970419347 0.08475
v -0.0566208065 0.09571232 0.08473748
v -0.06092986 0.09825213 0.08475
v -0.0565547422 0.09583174 0.08475
v -0.0608637966 0.09837155 0.08473748
v -0.0564886779 0.0959511548 0.08473748
v -0.05866659 0.09717879 0.084733516
v -0.0607962161 0.09849371 0.084697336
v -0.0564211 0.0960733 0.084697336
v -0.05860866 0.0972835049 0.084697336
v -0.058552593 0.09738484 0.0846394747
v -0.0607311875 0.09861125 0.08462775
v -0.0563560724 0.0961908549 0.08462775
v -0.0585012026 0.0974777341 0.08456075
v -0.06067314 0.0987161845 0.08453034
v -0.0562980175 0.09629578 0.08453034
v -0.05845709 0.09755747 0.08446409
v -0.0606259778 0.098801434 0.0844104141
v -0.0562508628 0.09638102 0.0844104141
v -0.0584222451 0.0976204649 0.08435407
v -0.06059229 0.09886233 0.0842760652
v -0.05621717 0.0964419246 0.0842760652
v -0.0583977327 0.09766477 0.08423634
v -0.0605728626 0.09889744 0.08413647
v -0.0561977439 0.09647705 0.08413647
v -0.0583836548 0.0976902246 0.08411661
v -0.0605668 0.0989084 0.08400001
v -0.0561916828 0.096488 0.08400001
v -0.08351318 0.09874601 0.0779999942
v -0.08088811 0.0972937644 0.0779999942
v -0.0954105258 0.07104306 0.0779999942
v -0.10287641 0.063745074 0.0779999942
v -0.0892853662 0.0676545 0.0779999942
v -0.0915011 0.057452023 0.0779999942
v -0.07569432 0.07156392 0.0779999942
v -0.0751918554 0.0621433333 0.0779999942
v -0.0688988045 0.0735186338 0.0779999942
v -0.07327392 0.07593904 0.0779999942
v -0.107676804 0.05506788 0.08890982
v -0.107717216 0.0549948364 0.088
v -0.107547276 0.05530202 0.08984047
v -0.107322678 0.0557080023 0.09073605
v -0.107008293 0.05627628 0.09153554
v -0.10662128 0.05697585 0.0921849757
v -0.106187746 0.0577594973 0.09264895
v -0.105737232 0.0585738458 0.09291653
v -0.105296813 0.0593699552 0.09300001
v -0.10287641 0.063745074 0.0779999942
v -0.10287641 0.063745074 0.09300001
v -0.105478272 0.05904194 0.0565
v -0.107717216 0.0549948364 0.02
v -0.103819959 0.06203951 0.0590810031
v -0.1032255 0.06311405 0.06076354
v -0.102546707 0.06434104 0.0623189174
v -0.10472957 0.0603952929 0.0554539226
v -0.105254181 0.0594470128 0.0516847521
v -0.105417833 0.0591512 0.048
v -0.105254181 0.0594470128 0.04431525
v -0.10472957 0.0603952929 0.040546082
v -0.103819959 0.06203951 0.0369190052
v -0.1032255 0.06311405 0.035236463
v -0.101793781 0.06570203 0.06372115
v -0.102546707 0.06434104 0.0336810872
v -0.100979291 0.0671742857 0.0649491549
v -0.101793781 0.06570203 0.03227885
v -0.0992234945 0.07034807 0.06682821
v -0.100979291 0.0671742857 0.0310508423
v -0.09739891 0.07364618 0.06791194
v -0.09561519 0.07687043 0.06825
v -0.09383148 0.0800946653 0.06791194
v -0.08351318 0.09874601 0.0779999942
v -0.09200689 0.08339278 0.06682821
v -0.0902511 0.08656655 0.0649491549
v -0.08943661 0.08803882 0.06372115
v -0.0992234945 0.07034807 0.0291717872
v -0.09739891 0.07364618 0.0280880667
v -0.09561519 0.07687043 0.02775
v -0.08868369 0.0893998 0.0623189174
v -0.08351318 0.09874601 0.02
v -0.09383148 0.0800946653 0.0280880667
v -0.09200689 0.08339278 0.0291717872
v -0.0902511 0.08656655 0.0310508423
v -0.08943661 0.08803882 0.03227885
v -0.08800489 0.0906268 0.06076354
v -0.08868369 0.0893998 0.0336810872
v -0.0874104351 0.09170133 0.0590810031
v -0.08800489 0.0906268 0.035236463
v -0.08650082 0.0933455452 0.0554539226
v -0.08597621 0.09429383 0.0516847521
v -0.08581256 0.09458964 0.048
v -0.0874104351 0.09170133 0.0369190052
v -0.08597621 0.09429383 0.04431525
v -0.08650082 0.0933455452 0.040546082
v -0.08377822 0.09206961 0.02
v -0.08377822 0.09206961 0.013
v -0.08352883 0.09190017 0.013
v -0.08349469 0.09187131 0.0165
v -0.08352883 0.09190017 0.02
v -0.08330285 0.09167422 0.013
v -0.08330285 0.09167422 0.02
v -0.08324513 0.09159987 0.0165
v -0.08311836 0.0913971961 0.013
v -0.08311836 0.0913971961 0.02
v -0.08305611 0.09126577 0.0165
v -0.08299124 0.09108195 0.013
v -0.08299124 0.09108195 0.02
v -0.08294852 0.09089175 0.0165
v -0.08293143 0.09074734 0.013
v -0.08293143 0.09074734 0.02
v -0.08293114 0.09050828 0.0165
v -0.08294052 0.09041461 0.013
v -0.08294052 0.09041461 0.02
v -0.0829983354 0.09014573 0.0165
v -0.0830119252 0.0901031345 0.013
v -0.08313316 0.08982709 0.0165
v -0.0830119252 0.0901031345 0.02
v -0.08313316 0.08982709 0.013
v -0.08313316 0.08982709 0.02
v -0.0833026 0.0895777047 0.013
v -0.0833026 0.0895777047 0.02
v -0.0833314657 0.0895435661 0.0165
v -0.08352853 0.08935173 0.013
v -0.08352853 0.08935173 0.02
v -0.08352853 0.08935173 0.0165
v -0.08376329 0.08919039 0.0165
v -0.083805576 0.08916723 0.013
v -0.083805576 0.08916723 0.02
v -0.08402787 0.08906986 0.0165
v -0.0841208249 0.0890401155 0.013
v -0.0841208249 0.0890401155 0.02
v -0.0843110159 0.0889973938 0.0165
v -0.08445543 0.0889803 0.013
v -0.08445543 0.0889803 0.02
v -0.0845994651 0.08897597 0.0165
v -0.08478815 0.08898939 0.013
v -0.08478815 0.08898939 0.02
v -0.08488005 0.0890039 0.0165
v -0.08509963 0.0890608 0.013
v -0.08509963 0.0890608 0.02
v -0.08514149 0.0890754 0.0165
v -0.08537568 0.0891820341 0.013
v -0.08537568 0.0891820341 0.02
v -0.08562507 0.0893514752 0.013
v -0.0856592059 0.08938034 0.0165
v -0.08562507 0.0893514752 0.02
v -0.08585105 0.0895774141 0.013
v -0.08585105 0.0895774141 0.02
v -0.08590877 0.08965178 0.0165
v -0.08603554 0.08985445 0.013
v -0.08603554 0.08985445 0.02
v -0.08609779 0.08998588 0.0165
v -0.08616265 0.0901697 0.013
v -0.08616265 0.0901697 0.02
v -0.08620538 0.09035989 0.0165
v -0.08622247 0.0905043 0.013
v -0.08622247 0.0905043 0.02
v -0.08622275 0.0907433555 0.0165
v -0.08621337 0.09083703 0.013
v -0.08621337 0.09083703 0.02
v -0.0861555561 0.09110591 0.0165
v -0.0861419737 0.0911485 0.013
v -0.08602074 0.0914245546 0.0165
v -0.0861419737 0.0911485 0.02
v -0.08602074 0.0914245546 0.013
v -0.08602074 0.0914245546 0.02
v -0.0858513 0.09167394 0.013
v -0.0858513 0.09167394 0.02
v -0.08582243 0.09170808 0.0165
v -0.08562536 0.091899924 0.013
v -0.08562536 0.091899924 0.02
v -0.08562536 0.091899924 0.0165
v -0.08539061 0.09206125 0.0165
v -0.0853483155 0.0920844153 0.013
v -0.0853483155 0.0920844153 0.02
v -0.08512603 0.09218179 0.0165
v -0.085033074 0.09221152 0.013
v -0.085033074 0.09221152 0.02
v -0.0848428756 0.09225425 0.0165
v -0.08469847 0.09227134 0.013
v -0.08469847 0.09227134 0.02
v -0.08455443 0.0922756642 0.0165
v -0.08436575 0.0922622457 0.013
v -0.08436575 0.0922622457 0.02
v -0.084273845 0.09224774 0.0165
v -0.08405426 0.09219085 0.013
v -0.08405426 0.09219085 0.02
v -0.08401241 0.09217624 0.0165
v -0.08377822 0.09206961 0.013
v -0.08377822 0.09206961 0.02
v -0.100721039 0.06144379 0.02
v -0.100721039 0.06144379 0.013
v -0.10047166 0.061274346 0.013
v -0.100437522 0.0612454861 0.0165
v -0.10047166 0.061274346 0.02
v -0.100245669 0.06104841 0.013
v -0.100245669 0.06104841 0.02
v -0.100187957 0.0609740429 0.0165
v -0.100061186 0.0607713722 0.013
v -0.100061186 0.0607713722 0.02
v -0.09999893 0.06063995 0.0165
v -0.09993407 0.0604561269 0.013
v -0.09993407 0.0604561269 0.02
v -0.09989134 0.060265936 0.0165
v -0.09987426 0.06012152 0.013
v -0.09987426 0.06012152 0.02
v -0.09987397 0.05988247 0.0165
v -0.09988335 0.0597888 0.013
v -0.09988335 0.0597888 0.02
v -0.0999411643 0.05951991 0.0165
v -0.09995475 0.05947732 0.013
v -0.100075983 0.05920127 0.0165
v -0.09995475 0.05947732 0.02
v -0.100075983 0.05920127 0.013
v -0.100075983 0.05920127 0.02
v -0.100245431 0.05895189 0.013
v -0.100245431 0.05895189 0.02
v -0.100274295 0.05891775 0.0165
v -0.100471362 0.0587258972 0.013
v -0.100471362 0.0587258972 0.02
v -0.100471362 0.0587258972 0.0165
v -0.100706108 0.0585645773 0.0165
v -0.100748405 0.05854141 0.013
v -0.100748405 0.05854141 0.02
v -0.1009707 0.05844404 0.0165
v -0.101063654 0.0584143 0.013
v -0.101063654 0.0584143 0.02
v -0.101253845 0.0583715737 0.0165
v -0.101398252 0.0583544821 0.013
v -0.101398252 0.0583544821 0.02
v -0.101542294 0.058350157 0.0165
v -0.101730973 0.0583635755 0.013
v -0.101730973 0.0583635755 0.02
v -0.101822875 0.05837808 0.0165
v -0.102042459 0.0584349781 0.013
v -0.102042459 0.0584349781 0.02
v -0.102084309 0.058449585 0.0165
v -0.10231851 0.058556214 0.013
v -0.10231851 0.058556214 0.02
v -0.102567889 0.05872566 0.013
v -0.102602027 0.05875452 0.0165
v -0.102567889 0.05872566 0.02
v -0.10279388 0.0589515939 0.013
v -0.10279388 0.0589515939 0.02
v -0.102851592 0.0590259619 0.0165
v -0.102978364 0.0592286326 0.013
v -0.102978364 0.0592286326 0.02
v -0.103040621 0.0593600534 0.0165
v -0.103105478 0.0595438778 0.013
v -0.103105478 0.0595438778 0.02
v -0.1031482 0.05973407 0.0165
v -0.103165291 0.0598784834 0.013
v -0.103165291 0.0598784834 0.02
v -0.103165582 0.06011754 0.0165
v -0.1031562 0.060211204 0.013
v -0.1031562 0.060211204 0.02
v -0.103098385 0.0604800954 0.0165
v -0.1030848 0.060522683 0.013
v -0.102963559 0.0607987344 0.0165
v -0.1030848 0.060522683 0.02
v -0.102963559 0.0607987344 0.013
v -0.102963559 0.0607987344 0.02
v -0.102794118 0.0610481165 0.013
v -0.102794118 0.0610481165 0.02
v -0.102765255 0.0610822551 0.0165
v -0.102568179 0.0612741075 0.013
v -0.102568179 0.0612741075 0.02
v -0.102568179 0.0612741075 0.0165
v -0.102333441 0.06143543 0.0165
v -0.102291144 0.0614585951 0.013
v -0.102291144 0.0614585951 0.02
v -0.102068849 0.0615559667 0.0165
v -0.101975895 0.0615857057 0.013
v -0.101975895 0.0615857057 0.02
v -0.101785704 0.06162843 0.0165
v -0.10164129 0.0616455227 0.013
v -0.10164129 0.0616455227 0.02
v -0.101497248 0.06164985 0.0165
v -0.101308569 0.06163643 0.013
v -0.101308569 0.06163643 0.02
v -0.101216674 0.061621923 0.0165
v -0.10099709 0.0615650266 0.013
v -0.10099709 0.0615650266 0.02
v -0.100955233 0.06155042 0.0165
v -0.100721039 0.06144379 0.013
v -0.100721039 0.06144379 0.02
v -0.08088811 0.0972937644 0.0779999942
v -0.08351318 0.09874601 0.0779999942
v -0.08088811 0.0972937644 0.088
v -0.08526322 0.0997141749 0.088
v -0.08526322 0.0997141749 0.013
v -0.08351318 0.09874601 0.02
v -0.07651299 0.09487337 0.013
v -0.07651299 0.09487337 0.02
v -0.0853036344 0.09964113 0.08890982
v -0.08526322 0.0997141749 0.088
v -0.08543316 0.09940699 0.08984047
v -0.08565776 0.0990010053 0.09073605
v -0.0859721452 0.09843273 0.09153554
v -0.08635916 0.0977331549 0.0921849757
v -0.08679269 0.0969495 0.09264895
v -0.0872432 0.0961351544 0.09291653
v -0.0876836255 0.0953390449 0.09300001
v -0.09118666 0.0890069753 0.06372115
v -0.09043373 0.0903679654 0.0623189174
v -0.09200115 0.08753471 0.0649491549
v -0.08975493 0.0915949643 0.06076354
v -0.0937569439 0.0843609348 0.06682821
v -0.0955815241 0.08106282 0.06791194
v -0.0973652452 0.0778385848 0.06825
v -0.08916048 0.09266949 0.0590810031
v -0.107046857 0.0603381172 0.09300001
v -0.08825087 0.09431371 0.0554539226
v -0.08772626 0.09526199 0.0516847521
v -0.0875626057 0.09555781 0.048
v -0.09914896 0.07461434 0.06791194
v -0.08526322 0.0997141749 0.013
v -0.08772626 0.09526199 0.04431525
v -0.08825087 0.09431371 0.040546082
v -0.08916048 0.09266949 0.0369190052
v -0.08975493 0.0915949643 0.035236463
v -0.100973539 0.07131623 0.06682821
v -0.09043373 0.0903679654 0.0336810872
v -0.102729335 0.06814245 0.0649491549
v -0.09118666 0.0890069753 0.03227885
v -0.09200115 0.08753471 0.0310508423
v -0.0937569439 0.0843609348 0.0291717872
v -0.0955815241 0.08106282 0.0280880667
v -0.0973652452 0.0778385848 0.02775
v -0.109467261 0.055963 0.013
v -0.09914896 0.07461434 0.0280880667
v -0.100973539 0.07131623 0.0291717872
v -0.102729335 0.06814245 0.0310508423
v -0.103543825 0.06667019 0.03227885
v -0.104296751 0.0653092 0.0336810872
v -0.104975551 0.0640822053 0.035236463
v -0.10557 0.0630076751 0.0369190052
v -0.106479615 0.0613634549 0.040546082
v -0.107004225 0.0604151748 0.04431525
v -0.107167877 0.06011936 0.048
v -0.109467261 0.055963 0.088
v -0.107004225 0.0604151748 0.0516847521
v -0.106479615 0.0613634549 0.0554539226
v -0.10557 0.0630076751 0.0590810031
v -0.104975551 0.0640822053 0.06076354
v -0.104296751 0.0653092 0.0623189174
v -0.103543825 0.06667019 0.06372115
v -0.107487284 0.0595420077 0.09291653
v -0.1079378 0.05872766 0.09264895
v -0.108371325 0.0579440072 0.0921849757
v -0.108758338 0.0572444424 0.09153554
v -0.109072722 0.05667616 0.09073605
v -0.10929732 0.0562701821 0.08984047
v -0.109426856 0.05603604 0.08890982
v -0.109467261 0.055963 0.013
v -0.108592235 0.05547892 0.0505
v -0.109467261 0.055963 0.088
v -0.107717216 0.0549948364 0.013
v -0.107717216 0.0549948364 0.088
v -0.107717216 0.0549948364 0.02
v -0.10855183 0.0555519573 0.08890982
v -0.107717216 0.0549948364 0.088
v -0.107676804 0.05506788 0.08890982
v -0.109467261 0.055963 0.088
v -0.107547276 0.05530202 0.08984047
v -0.109426856 0.05603604 0.08890982
v -0.108422294 0.055786103 0.08984047
v -0.107322678 0.0557080023 0.09073605
v -0.10929732 0.0562701821 0.08984047
v -0.108197704 0.05619208 0.09073605
v -0.107008293 0.05627628 0.09153554
v -0.109072722 0.05667616 0.09073605
v -0.107883319 0.05676036 0.09153554
v -0.10662128 0.05697585 0.0921849757
v -0.108758338 0.0572444424 0.09153554
v -0.1074963 0.0574599281 0.0921849757
v -0.106187746 0.0577594973 0.09264895
v -0.108371325 0.0579440072 0.0921849757
v -0.107062772 0.0582435764 0.09264895
v -0.105737232 0.0585738458 0.09291653
v -0.1079378 0.05872766 0.09264895
v -0.106612258 0.0590579249 0.09291653
v -0.105296813 0.0593699552 0.09300001
v -0.107487284 0.0595420077 0.09291653
v -0.107046857 0.0603381172 0.09300001
v -0.08526322 0.0997141749 0.088
v -0.08311607 0.0984309241 0.08890982
v -0.08088811 0.0972937644 0.088
v -0.0853036344 0.09964113 0.08890982
v -0.08092851 0.09722072 0.08890982
v -0.08543316 0.09940699 0.08984047
v -0.0832456052 0.09819679 0.08984047
v -0.08105804 0.0969865844 0.08984047
v -0.08565776 0.0990010053 0.09073605
v -0.0834702 0.0977908 0.09073605
v -0.0812826455 0.0965805948 0.09073605
v -0.0859721452 0.09843273 0.09153554
v -0.08378458 0.09722252 0.09153554
v -0.08159702 0.0960123241 0.09153554
v -0.08635916 0.0977331549 0.0921849757
v -0.0841716 0.09652296 0.0921849757
v -0.08198404 0.09531276 0.0921849757
v -0.08679269 0.0969495 0.09264895
v -0.08460513 0.095739305 0.09264895
v -0.08241757 0.09452911 0.09264895
v -0.0872432 0.0961351544 0.09291653
v -0.08505565 0.09492496 0.09291653
v -0.0828680843 0.09371476 0.09291653
v -0.0876836255 0.0953390449 0.09300001
v -0.08330851 0.09291865 0.09300001
v -0.0921151042 0.0749341 0.02
v -0.100245669 0.06104841 0.02
v -0.100061186 0.0607713722 0.02
v -0.09993407 0.0604561269 0.02
v -0.10047166 0.061274346 0.02
v -0.09987426 0.06012152 0.02
v -0.100721039 0.06144379 0.02
v -0.09988335 0.0597888 0.02
v -0.10099709 0.0615650266 0.02
v -0.09995475 0.05947732 0.02
v -0.0985703841 0.05500246 0.02
v -0.100075983 0.05920127 0.02
v -0.100245431 0.05895189 0.02
v -0.100471362 0.0587258972 0.02
v -0.100748405 0.05854141 0.02
v -0.101063654 0.0584143 0.02
v -0.101398252 0.0583544821 0.02
v -0.07651299 0.09487337 0.02
v -0.107717216 0.0549948364 0.02
v -0.101730973 0.0583635755 0.02
v -0.102042459 0.0584349781 0.02
v -0.10231851 0.058556214 0.02
v -0.102567889 0.05872566 0.02
v -0.10279388 0.0589515939 0.02
v -0.102978364 0.0592286326 0.02
v -0.103105478 0.0595438778 0.02
v -0.103165291 0.0598784834 0.02
v -0.1031562 0.060211204 0.02
v -0.1030848 0.060522683 0.02
v -0.0833026 0.0895777047 0.02
v -0.08313316 0.08982709 0.02
v -0.08352853 0.08935173 0.02
v -0.083805576 0.08916723 0.02
v -0.0841208249 0.0890401155 0.02
v -0.0830119252 0.0901031345 0.02
v -0.08445543 0.0889803 0.02
v -0.08294052 0.09041461 0.02
v -0.08478815 0.08898939 0.02
v -0.08293143 0.09074734 0.02
v -0.08509963 0.0890608 0.02
v -0.08299124 0.09108195 0.02
v -0.08311836 0.0913971961 0.02
v -0.08330285 0.09167422 0.02
v -0.08537568 0.0891820341 0.02
v -0.08351318 0.09874601 0.02
v -0.08352883 0.09190017 0.02
v -0.08377822 0.09206961 0.02
v -0.08405426 0.09219085 0.02
v -0.08436575 0.0922622457 0.02
v -0.08469847 0.09227134 0.02
v -0.085033074 0.09221152 0.02
v -0.0853483155 0.0920844153 0.02
v -0.08562536 0.091899924 0.02
v -0.0858513 0.09167394 0.02
v -0.08562507 0.0893514752 0.02
v -0.08602074 0.0914245546 0.02
v -0.09443391 0.0762169138 0.02
v -0.08585105 0.0895774141 0.02
v -0.0861419737 0.0911485 0.02
v -0.101308569 0.06163643 0.02
v -0.08603554 0.08985445 0.02
v -0.08621337 0.09083703 0.02
v -0.10164129 0.0616455227 0.02
v -0.08616265 0.0901697 0.02
v -0.08622247 0.0905043 0.02
v -0.101975895 0.0615857057 0.02
v -0.102291144 0.0614585951 0.02
v -0.102568179 0.0612741075 0.02
v -0.102794118 0.0610481165 0.02
v -0.102963559 0.0607987344 0.02
v -0.0875416845 0.07493791 0.0165
v -0.0985703841 0.05500246 0.02
v -0.0985703841 0.05500246 0.013
v -0.07651299 0.09487337 0.013
v -0.07651299 0.09487337 0.02
v -0.08436575 0.0922622457 0.013
v -0.08526322 0.0997141749 0.013
v -0.08405426 0.09219085 0.013
v -0.08469847 0.09227134 0.013
v -0.085033074 0.09221152 0.013
v -0.0853483155 0.0920844153 0.013
v -0.08562536 0.091899924 0.013
v -0.0858513 0.09167394 0.013
v -0.08602074 0.0914245546 0.013
v -0.08377822 0.09206961 0.013
v -0.0861419737 0.0911485 0.013
v -0.09491835 0.07648492 0.013
v -0.08621337 0.09083703 0.013
v -0.08622247 0.0905043 0.013
v -0.07651299 0.09487337 0.013
v -0.08352883 0.09190017 0.013
v -0.08330285 0.09167422 0.013
v -0.08311836 0.0913971961 0.013
v -0.08299124 0.09108195 0.013
v -0.08293143 0.09074734 0.013
v -0.08294052 0.09041461 0.013
v -0.0830119252 0.0901031345 0.013
v -0.08313316 0.08982709 0.013
v -0.0833026 0.0895777047 0.013
v -0.0985703841 0.05500246 0.013
v -0.09299012 0.07541818 0.013
v -0.09995475 0.05947732 0.013
v -0.08352853 0.08935173 0.013
v -0.083805576 0.08916723 0.013
v -0.0841208249 0.0890401155 0.013
v -0.08445543 0.0889803 0.013
v -0.08478815 0.08898939 0.013
v -0.08509963 0.0890608 0.013
v -0.08537568 0.0891820341 0.013
v -0.08562507 0.0893514752 0.013
v -0.08585105 0.0895774141 0.013
v -0.09988335 0.0597888 0.013
v -0.09987426 0.06012152 0.013
v -0.09993407 0.0604561269 0.013
v -0.100061186 0.0607713722 0.013
v -0.100245669 0.06104841 0.013
v -0.10047166 0.061274346 0.013
v -0.100721039 0.06144379 0.013
v -0.10099709 0.0615650266 0.013
v -0.101308569 0.06163643 0.013
v -0.09443391 0.0762169138 0.013
v -0.08603554 0.08985445 0.013
v -0.10164129 0.0616455227 0.013
v -0.08616265 0.0901697 0.013
v -0.101975895 0.0615857057 0.013
v -0.102291144 0.0614585951 0.013
v -0.102568179 0.0612741075 0.013
v -0.102794118 0.0610481165 0.013
v -0.109467261 0.055963 0.013
v -0.102963559 0.0607987344 0.013
v -0.107717216 0.0549948364 0.013
v -0.1030848 0.060522683 0.013
v -0.1031562 0.060211204 0.013
v -0.103165291 0.0598784834 0.013
v -0.103105478 0.0595438778 0.013
v -0.102978364 0.0592286326 0.013
v -0.10279388 0.0589515939 0.013
v -0.102567889 0.05872566 0.013
v -0.10231851 0.058556214 0.013
v -0.102042459 0.0584349781 0.013
v -0.101730973 0.0583635755 0.013
v -0.101398252 0.0583544821 0.013
v -0.101063654 0.0584143 0.013
v -0.100748405 0.05854141 0.013
v -0.100471362 0.0587258972 0.013
v -0.100245431 0.05895189 0.013
v -0.100075983 0.05920127 0.013
v -0.1031438 0.0549986474 0.0165
v -0.107717216 0.0549948364 0.02
v -0.107717216 0.0549948364 0.013
v -0.0985703841 0.05500246 0.013
v -0.0985703841 0.05500246 0.02
v -0.107167877 0.06011936 0.048
v -0.105417833 0.0591512 0.048
v -0.106240816 0.0597293377 0.0459162779
v -0.107004225 0.0604151748 0.04431525
v -0.105254181 0.0594470128 0.04431525
v -0.106077343 0.06002484 0.0437771678
v -0.105793484 0.06053794 0.04161915
v -0.106479615 0.0613634549 0.040546082
v -0.10472957 0.0603952929 0.040546082
v -0.105383985 0.06127815 0.03948447
v -0.10557 0.0630076751 0.0369190052
v -0.103819959 0.06203951 0.0369190052
v -0.104848228 0.0622465834 0.03741903
v -0.104190819 0.0634349138 0.0354697
v -0.104975551 0.0640822053 0.035236463
v -0.103421725 0.06482512 0.0336810872
v -0.1032255 0.06311405 0.035236463
v -0.104296751 0.0653092 0.0336810872
v -0.102546707 0.06434104 0.0336810872
v -0.103543825 0.06667019 0.03227885
v -0.101793781 0.06570203 0.03227885
v -0.1025559 0.066390194 0.0320923328
v -0.102729335 0.06814245 0.0310508423
v -0.100979291 0.0671742857 0.0310508423
v -0.101612262 0.06809591 0.0307342689
v -0.100612424 0.06990321 0.029627515
v -0.100973539 0.07131623 0.0291717872
v -0.0992234945 0.07034807 0.0291717872
v -0.099579066 0.0717711151 0.028781591
v -0.09914896 0.07461434 0.0280880667
v -0.09739891 0.07364618 0.0280880667
v -0.09853441 0.07365942 0.0281951986
v -0.09749891 0.07553119 0.0278574936
v -0.0973652452 0.0778385848 0.02775
v -0.09561519 0.07687043 0.02775
v -0.09649022 0.0773545057 0.02775
v -0.09548153 0.07917781 0.0278574936
v -0.0955815241 0.08106282 0.0280880667
v -0.09383148 0.0800946653 0.0280880667
v -0.0944460258 0.0810495839 0.0281951986
v -0.0937569439 0.0843609348 0.0291717872
v -0.09200689 0.08339278 0.0291717872
v -0.09288192 0.0838768557 0.0291717872
v -0.09136817 0.0866131037 0.0307342689
v -0.09200115 0.08753471 0.0310508423
v -0.0902511 0.08656655 0.0310508423
v -0.09118666 0.0890069753 0.03227885
v -0.08943661 0.08803882 0.03227885
v -0.08998063 0.08912121 0.03285958
v -0.09043373 0.0903679654 0.0336810872
v -0.08878962 0.09127408 0.0354697
v -0.08868369 0.0893998 0.0336810872
v -0.08975493 0.0915949643 0.035236463
v -0.08800489 0.0906268 0.035236463
v -0.08916048 0.09266949 0.0369190052
v -0.0874104351 0.09170133 0.0369190052
v -0.08784871 0.09297489 0.03844015
v -0.08825087 0.09431371 0.040546082
v -0.08650082 0.0933455452 0.040546082
v -0.0871869549 0.09417106 0.04161915
v -0.08772626 0.09526199 0.04431525
v -0.08597621 0.09429383 0.04431525
v -0.08680679 0.0948582441 0.04485152
v -0.0875626057 0.09555781 0.048
v -0.08581256 0.09458964 0.048
v -0.0867396146 0.09497967 0.0500837266
v -0.08597621 0.09429383 0.0516847521
v -0.08772626 0.09526199 0.0516847521
v -0.0869030952 0.09468417 0.0522228368
v -0.0871869549 0.09417106 0.0543808527
v -0.08650082 0.0933455452 0.0554539226
v -0.08825087 0.09431371 0.0554539226
v -0.0875964537 0.0934308544 0.0565155335
v -0.0874104351 0.09170133 0.0590810031
v -0.08916048 0.09266949 0.0590810031
v -0.08813221 0.09246242 0.058580976
v -0.08878962 0.09127408 0.0605303049
v -0.08800489 0.0906268 0.06076354
v -0.0895587057 0.08988389 0.0623189174
v -0.08975493 0.0915949643 0.06076354
v -0.08868369 0.0893998 0.0623189174
v -0.09043373 0.0903679654 0.0623189174
v -0.08943661 0.08803882 0.06372115
v -0.09118666 0.0890069753 0.06372115
v -0.09042454 0.08831881 0.06390767
v -0.0902511 0.08656655 0.0649491549
v -0.09200115 0.08753471 0.0649491549
v -0.09136817 0.0866131037 0.0652657449
v -0.0923680142 0.0848057941 0.066372484
v -0.09200689 0.08339278 0.06682821
v -0.0937569439 0.0843609348 0.06682821
v -0.09340137 0.08293789 0.0672184154
v -0.09383148 0.0800946653 0.06791194
v -0.0955815241 0.08106282 0.06791194
v -0.0944460258 0.0810495839 0.0678048
v -0.09548153 0.07917781 0.06814251
v -0.09561519 0.07687043 0.06825
v -0.0973652452 0.0778385848 0.06825
v -0.09649022 0.0773545057 0.06825
v -0.09749891 0.07553119 0.06814251
v -0.09739891 0.07364618 0.06791194
v -0.09914896 0.07461434 0.06791194
v -0.09853441 0.07365942 0.0678048
v -0.0992234945 0.07034807 0.06682821
v -0.100973539 0.07131623 0.06682821
v -0.100098521 0.07083215 0.06682821
v -0.101612262 0.06809591 0.0652657449
v -0.100979291 0.0671742857 0.0649491549
v -0.102729335 0.06814245 0.0649491549
v -0.101793781 0.06570203 0.06372115
v -0.103543825 0.06667019 0.06372115
v -0.1029998 0.06558779 0.06314043
v -0.102546707 0.06434104 0.0623189174
v -0.104190819 0.0634349138 0.0605303049
v -0.104296751 0.0653092 0.0623189174
v -0.1032255 0.06311405 0.06076354
v -0.104975551 0.0640822053 0.06076354
v -0.103819959 0.06203951 0.0590810031
v -0.10557 0.0630076751 0.0590810031
v -0.10513173 0.06173413 0.0575598553
v -0.10472957 0.0603952929 0.0554539226
v -0.106479615 0.0613634549 0.0554539226
v -0.105793484 0.06053794 0.0543808527
v -0.105254181 0.0594470128 0.0516847521
v -0.107004225 0.0604151748 0.0516847521
v -0.106173642 0.0598507635 0.0511484854
v -0.105417833 0.0591512 0.048
v -0.107167877 0.06011936 0.048
v -0.06059229 0.09886233 0.0842760652
v -0.0597196557 0.1004397 0.09300001
v -0.0605728626 0.09889744 0.08413647
v -0.0606259778 0.098801434 0.0844104141
v -0.06067314 0.0987161845 0.08453034
v -0.0607311875 0.09861125 0.08462775
v -0.0605668 0.0989084 0.08400001
v -0.0607962161 0.09849371 0.084697336
v -0.0597196557 0.1004397 0.0779999942
v -0.0605728626 0.09889744 0.08386353
v -0.06059229 0.09886233 0.08372393
v -0.0606259778 0.098801434 0.0835896
v -0.06067314 0.0987161845 0.083469674
v -0.0607311875 0.09861125 0.08337225
v -0.0607962161 0.09849371 0.08330266
v -0.0608637966 0.09837155 0.08326253
v -0.06092986 0.09825213 0.08325
v -0.0621400625 0.09606458 0.0779999942
v -0.0609959252 0.0981327146 0.08326253
v -0.0610635 0.09801057 0.08330266
v -0.06112853 0.0978930146 0.08337225
v -0.06118658 0.09778808 0.083469674
v -0.0612337366 0.0977028459 0.0835896
v -0.0612674281 0.0976419449 0.08372393
v -0.06128686 0.09760682 0.08386353
v -0.061292924 0.09759587 0.08400001
v -0.0621400625 0.09606458 0.09
v -0.06128686 0.09760682 0.08413647
v -0.0612674281 0.0976419449 0.0842760652
v -0.0612337366 0.0977028459 0.0844104141
v -0.06118658 0.09778808 0.08453034
v -0.06112853 0.0978930146 0.08462775
v -0.0610635 0.09801057 0.084697336
v -0.0609959252 0.0981327146 0.08473748
v -0.06092986 0.09825213 0.08475
v -0.0608637966 0.09837155 0.08473748
v -0.07569432 0.07156392 0.09300001
v -0.07327392 0.07593904 0.09
v -0.0746177658 0.07350992 0.084697336
v -0.07455018 0.07363206 0.08473748
v -0.0744841248 0.07375148 0.08475
v -0.07441806 0.0738709 0.08473748
v -0.07435048 0.07399305 0.084697336
v -0.07468279 0.07339236 0.08462775
v -0.07428545 0.0741106 0.08462775
v -0.07474084 0.07328743 0.08453034
v -0.0742274 0.07421553 0.08453034
v -0.0747880042 0.07320219 0.0844104141
v -0.0741802454 0.07430077 0.0844104141
v -0.0748216957 0.07314129 0.0842760652
v -0.07484112 0.07310617 0.08413647
v -0.0748471841 0.07309522 0.08400001
v -0.07569432 0.07156392 0.0779999942
v -0.07484112 0.07310617 0.08386353
v -0.0748216957 0.07314129 0.08372393
v -0.0741465539 0.07436167 0.0842760652
v -0.07412712 0.07439679 0.08413647
v -0.07412106 0.07440775 0.08400001
v -0.07327392 0.07593904 0.0779999942
v -0.07412712 0.07439679 0.08386353
v -0.0741465539 0.07436167 0.08372393
v -0.0747880042 0.07320219 0.0835896
v -0.0741802454 0.07430077 0.0835896
v -0.07474084 0.07328743 0.083469674
v -0.0742274 0.07421553 0.083469674
v -0.07468279 0.07339236 0.08337225
v -0.07428545 0.0741106 0.08337225
v -0.0746177658 0.07350992 0.08330266
v -0.07455018 0.07363206 0.08326253
v -0.0744841248 0.07375148 0.08325
v -0.07435048 0.07399305 0.08330266
v -0.07441806 0.0738709 0.08326253
v -0.0562508628 0.09638102 0.0835896
v -0.0553445369 0.0980193 0.0779999942
v -0.05621717 0.0964419246 0.08372393
v -0.0562980175 0.09629578 0.083469674
v -0.0561977439 0.09647705 0.08386353
v -0.0563560724 0.0961908549 0.08337225
v -0.0561916828 0.096488 0.08400001
v -0.0564211 0.0960733 0.08330266
v -0.0564886779 0.0959511548 0.08326253
v -0.0561977439 0.09647705 0.08413647
v -0.0553445369 0.0980193 0.09300001
v -0.05621717 0.0964419246 0.0842760652
v -0.0565547422 0.09583174 0.08325
v -0.05776494 0.09364417 0.0779999942
v -0.0566208065 0.09571232 0.08326253
v -0.0566883832 0.09559017 0.08330266
v -0.0562508628 0.09638102 0.0844104141
v -0.0567534119 0.09547262 0.08337225
v -0.0562980175 0.09629578 0.08453034
v -0.0568114668 0.095367685 0.083469674
v -0.0563560724 0.0961908549 0.08462775
v -0.05685862 0.09528245 0.0835896
v -0.0568923131 0.09522155 0.08372393
v -0.0569117442 0.09518642 0.08386353
v -0.0569178 0.09517546 0.08400001
v -0.05776494 0.09364417 0.09
v -0.0569117442 0.09518642 0.08413647
v -0.0568923131 0.09522155 0.0842760652
v -0.05685862 0.09528245 0.0844104141
v -0.0568114668 0.095367685 0.08453034
v -0.0567534119 0.09547262 0.08462775
v -0.0566883832 0.09559017 0.084697336
v -0.0566208065 0.09571232 0.08473748
v -0.0565547422 0.09583174 0.08475
v -0.0564886779 0.0959511548 0.08473748
v -0.0564211 0.0960733 0.084697336
v -0.0688988045 0.0735186338 0.09
v -0.0751918554 0.0621433333 0.09300001
v -0.07024264 0.0710895061 0.084697336
v -0.07017507 0.0712116659 0.08473748
v -0.070109 0.07133108 0.08475
v -0.07004294 0.0714504942 0.08473748
v -0.06997536 0.07157265 0.084697336
v -0.07030767 0.0709719658 0.08462775
v -0.06991033 0.0716901943 0.08462775
v -0.07036573 0.0708670244 0.08453034
v -0.07041288 0.07078178 0.0844104141
v -0.07044657 0.07072089 0.0842760652
v -0.0751918554 0.0621433333 0.0779999942
v -0.070466 0.07068577 0.08413647
v -0.07047206 0.0706748143 0.08400001
v -0.070466 0.07068577 0.08386353
v -0.06985228 0.07179513 0.08453034
v -0.07044657 0.07072089 0.08372393
v -0.06980512 0.07188037 0.0844104141
v -0.07041288 0.07078178 0.0835896
v -0.06977143 0.07194127 0.0842760652
v -0.06975201 0.07197639 0.08413647
v -0.06974594 0.0719873458 0.08400001
v -0.0688988045 0.0735186338 0.0779999942
v -0.06975201 0.07197639 0.08386353
v -0.06977143 0.07194127 0.08372393
v -0.06980512 0.07188037 0.0835896
v -0.07036573 0.0708670244 0.083469674
v -0.06985228 0.07179513 0.083469674
v -0.07030767 0.0709719658 0.08337225
v -0.07024264 0.0710895061 0.08330266
v -0.07017507 0.0712116659 0.08326253
v -0.06991033 0.0716901943 0.08337225
v -0.070109 0.07133108 0.08325
v -0.06997536 0.07157265 0.08330266
v -0.07004294 0.0714504942 0.08326253
v -0.0575320944 0.0992295 0.0855
v -0.0553445369 0.0980193 0.0779999942
v -0.0597196557 0.1004397 0.0779999942
v -0.0597196557 0.1004397 0.09300001
v -0.0553445369 0.0980193 0.09300001
v -0.0587423 0.0970419347 0.0779999942
v -0.05776494 0.09364417 0.0779999942
v -0.0621400625 0.09606458 0.0779999942
v -0.0597196557 0.1004397 0.0779999942
v -0.0553445369 0.0980193 0.0779999942
v -0.0599524975 0.09485438 0.08400001
v -0.05776494 0.09364417 0.09
v -0.0621400625 0.09606458 0.09
v -0.0621400625 0.09606458 0.0779999942
v -0.05776494 0.09364417 0.0779999942
v -0.06551943 0.08479161 0.09
v -0.0688988045 0.0735186338 0.09
v -0.07327392 0.07593904 0.09
v -0.0621400625 0.09606458 0.09
v -0.05776494 0.09364417 0.09
v -0.08248985 0.06960921 0.0855
v -0.0892853662 0.0676545 0.0779999942
v -0.0892853662 0.0676545 0.09300001
v -0.07569432 0.07156392 0.09300001
v -0.07569432 0.07156392 0.0779999942
v -0.0971887559 0.0605985448 0.0855
v -0.0915011 0.057452023 0.0779999942
v -0.0915011 0.057452023 0.09300001
v -0.10287641 0.063745074 0.09300001
v -0.10287641 0.063745074 0.0779999942
v -0.09234795 0.06934878 0.0855
v -0.0954105258 0.07104306 0.0779999942
v -0.0954105258 0.07104306 0.09300001
v -0.0892853662 0.0676545 0.09300001
v -0.0892853662 0.0676545 0.0779999942
v -0.0688988045 0.0735186338 0.09
v -0.07108636 0.07472883 0.08400001
v -0.07327392 0.07593904 0.09
v -0.0688988045 0.0735186338 0.0779999942
v -0.07327392 0.07593904 0.0779999942
v -0.0915011 0.057452023 0.0779999942
v -0.08334648 0.05979768 0.0855
v -0.0915011 0.057452023 0.09300001
v -0.0751918554 0.0621433333 0.0779999942
v -0.0751918554 0.0621433333 0.09300001
f 1 2 3
f 2 4 3
f 2 5 4
f 5 2 6
f 2 7 6
f 8 7 2
f 9 8 2
f 8 10 7
f 8 9 11
f 10 8 12
f 8 11 13
f 12 8 13
f 14 15 16
f 14 16 17
f 17 16 18
f 19 17 18
f 20 14 17
f 20 17 21
f 22 20 21
f 22 21 23
f 24 22 23
f 22 24 25
f 26 27 28
f 26 28 29
f 30 26 29
f 29 28 31
f 32 30 29
f 33 29 31
f 32 29 33
f 33 31 34
f 35 32 33
f 36 33 34
f 35 33 36
f 36 34 37
f 38 35 36
f 39 36 37
f 38 36 39
f 39 37 40
f 41 38 39
f 42 39 40
f 41 39 42
f 42 40 43
f 44 41 42
f 45 42 43
f 44 42 45
f 45 43 46
f 47 45 46
f 48 44 45
f 48 45 47
f 47 46 49
f 50 48 47
f 51 47 49
f 52 50 47
f 53 47 51
f 52 47 53
f 54 53 51
f 55 52 53
f 56 53 54
f 56 55 53
f 57 56 54
f 56 57 55
f 57 54 58
f 57 59 55
f 60 57 58
f 57 60 59
f 60 58 61
f 60 62 59
f 63 60 61
f 60 63 62
f 63 61 64
f 63 65 62
f 66 63 64
f 63 66 65
f 66 64 67
f 66 68 65
f 69 66 67
f 66 69 68
f 69 67 70
f 69 71 68
f 72 69 70
f 69 72 71
f 72 70 73
f 71 72 74
f 72 73 74
f 73 75 74
f 75 76 74
f 74 76 77
f 75 78 76
f 76 79 77
f 78 80 76
f 76 80 79
f 78 81 80
f 80 82 79
f 81 83 80
f 80 83 82
f 81 84 83
f 83 85 82
f 84 86 83
f 83 86 85
f 84 87 86
f 86 88 85
f 87 89 86
f 86 89 88
f 87 90 89
f 89 91 88
f 90 92 89
f 89 92 91
f 90 93 92
f 93 94 92
f 92 95 91
f 92 94 95
f 93 96 94
f 94 97 95
f 96 98 94
f 94 99 97
f 98 100 94
f 94 100 99
f 98 101 100
f 100 102 99
f 101 103 100
f 100 103 102
f 101 104 103
f 104 102 103
f 105 104 101
f 104 106 102
f 107 104 105
f 104 107 106
f 108 107 105
f 107 109 106
f 110 107 108
f 107 110 109
f 111 110 108
f 110 112 109
f 113 110 111
f 110 113 112
f 114 113 111
f 113 115 112
f 116 113 114
f 113 116 115
f 117 116 114
f 116 118 115
f 119 116 117
f 116 119 118
f 120 119 117
f 119 121 118
f 119 120 121
f 122 123 124
f 122 124 125
f 126 122 125
f 125 124 127
f 128 126 125
f 129 125 127
f 128 125 129
f 129 127 130
f 131 128 129
f 132 129 130
f 131 129 132
f 132 130 133
f 134 131 132
f 135 132 133
f 134 132 135
f 135 133 136
f 137 134 135
f 138 135 136
f 137 135 138
f 138 136 139
f 140 137 138
f 141 138 139
f 140 138 141
f 141 139 142
f 143 141 142
f 144 140 141
f 144 141 143
f 143 142 145
f 146 144 143
f 147 143 145
f 148 146 143
f 149 143 147
f 148 143 149
f 150 149 147
f 151 148 149
f 152 149 150
f 152 151 149
f 153 152 150
f 152 153 151
f 153 150 154
f 153 155 151
f 156 153 154
f 153 156 155
f 156 154 157
f 156 158 155
f 159 156 157
f 156 159 158
f 159 157 160
f 159 161 158
f 162 159 160
f 159 162 161
f 162 160 163
f 162 164 161
f 165 162 163
f 162 165 164
f 165 163 166
f 165 167 164
f 168 165 166
f 165 168 167
f 168 166 169
f 167 168 170
f 168 169 170
f 169 171 170
f 171 172 170
f 170 172 173
f 171 174 172
f 172 175 173
f 174 176 172
f 172 176 175
f 174 177 176
f 176 178 175
f 177 179 176
f 176 179 178
f 177 180 179
f 179 181 178
f 180 182 179
f 179 182 181
f 180 183 182
f 182 184 181
f 183 185 182
f 182 185 184
f 183 186 185
f 185 187 184
f 186 188 185
f 185 188 187
f 186 189 188
f 189 190 188
f 188 191 187
f 188 190 191
f 189 192 190
f 190 193 191
f 192 194 190
f 190 195 193
f 194 196 190
f 190 196 195
f 194 197 196
f 196 198 195
f 197 199 196
f 196 199 198
f 197 200 199
f 200 198 199
f 201 200 197
f 200 202 198
f 203 200 201
f 200 203 202
f 204 203 201
f 203 205 202
f 206 203 204
f 203 206 205
f 207 206 204
f 206 208 205
f 209 206 207
f 206 209 208
f 210 209 207
f 209 211 208
f 212 209 210
f 209 212 211
f 213 212 210
f 212 214 211
f 215 212 213
f 212 215 214
f 216 215 213
f 215 217 214
f 215 216 217
f 218 219 220
f 221 218 220
f 221 220 222
f 223 221 222
f 223 222 224
f 225 223 224
f 225 224 226
f 224 227 226
f 228 229 230
f 229 231 230
f 229 232 231
f 232 229 233
f 229 234 233
f 229 235 234
f 235 229 236
f 229 237 236
f 236 237 238
f 229 239 237
f 229 240 239
f 239 241 237
f 237 241 242
f 237 242 243
f 239 244 241
f 244 239 245
f 239 246 245
f 240 246 239
f 240 247 246
f 247 240 248
f 240 249 248
f 240 250 249
f 251 237 243
f 250 240 252
f 237 251 253
f 240 254 252
f 237 253 255
f 240 256 254
f 257 237 255
f 237 257 258
f 237 258 259
f 260 237 259
f 261 260 259
f 260 261 262
f 260 262 263
f 256 240 264
f 240 265 264
f 240 266 265
f 267 260 263
f 240 268 266
f 268 269 266
f 268 270 269
f 270 268 271
f 268 272 271
f 260 267 273
f 268 274 272
f 260 273 275
f 274 268 276
f 277 260 275
f 260 277 278
f 260 278 279
f 268 260 279
f 268 280 276
f 268 279 281
f 268 282 280
f 282 268 281
f 283 284 285
f 283 285 286
f 287 283 286
f 286 285 288
f 289 287 286
f 290 286 288
f 289 286 290
f 290 288 291
f 292 289 290
f 293 290 291
f 292 290 293
f 293 291 294
f 295 292 293
f 296 293 294
f 295 293 296
f 296 294 297
f 298 295 296
f 299 296 297
f 298 296 299
f 299 297 300
f 301 298 299
f 302 299 300
f 301 299 302
f 302 300 303
f 304 302 303
f 305 301 302
f 305 302 304
f 304 303 306
f 307 305 304
f 308 304 306
f 309 307 304
f 310 304 308
f 309 304 310
f 311 310 308
f 312 309 310
f 313 310 311
f 313 312 310
f 314 313 311
f 313 314 312
f 314 311 315
f 314 316 312
f 317 314 315
f 314 317 316
f 317 315 318
f 317 319 316
f 320 317 318
f 317 320 319
f 320 318 321
f 320 322 319
f 323 320 321
f 320 323 322
f 323 321 324
f 323 325 322
f 326 323 324
f 323 326 325
f 326 324 327
f 326 328 325
f 329 326 327
f 326 329 328
f 329 327 330
f 328 329 331
f 329 330 331
f 330 332 331
f 332 333 331
f 331 333 334
f 332 335 333
f 333 336 334
f 335 337 333
f 333 337 336
f 335 338 337
f 337 339 336
f 338 340 337
f 337 340 339
f 338 341 340
f 340 342 339
f 341 343 340
f 340 343 342
f 341 344 343
f 343 345 342
f 344 346 343
f 343 346 345
f 344 347 346
f 346 348 345
f 347 349 346
f 346 349 348
f 347 350 349
f 350 351 349
f 349 352 348
f 349 351 352
f 350 353 351
f 351 354 352
f 353 355 351
f 351 356 354
f 355 357 351
f 351 357 356
f 355 358 357
f 357 359 356
f 358 360 357
f 357 360 359
f 358 361 360
f 361 359 360
f 362 361 358
f 361 363 359
f 364 361 362
f 361 364 363
f 365 364 362
f 364 366 363
f 367 364 365
f 364 367 366
f 368 367 365
f 367 369 366
f 370 367 368
f 367 370 369
f 371 370 368
f 370 372 369
f 373 370 371
f 370 373 372
f 374 373 371
f 373 375 372
f 376 373 374
f 373 376 375
f 377 376 374
f 376 378 375
f 376 377 378
f 379 380 381
f 379 381 382
f 383 379 382
f 382 381 384
f 385 383 382
f 386 382 384
f 385 382 386
f 386 384 387
f 388 385 386
f 389 386 387
f 388 386 389
f 389 387 390
f 391 388 389
f 392 389 390
f 391 389 392
f 392 390 393
f 394 391 392
f 395 392 393
f 394 392 395
f 395 393 396
f 397 394 395
f 398 395 396
f 397 395 398
f 398 396 399
f 400 398 399
f 401 397 398
f 401 398 400
f 400 399 402
f 403 401 400
f 404 400 402
f 405 403 400
f 406 400 404
f 405 400 406
f 407 406 404
f 408 405 406
f 409 406 407
f 409 408 406
f 410 409 407
f 409 410 408
f 410 407 411
f 410 412 408
f 413 410 411
f 410 413 412
f 413 411 414
f 413 415 412
f 416 413 414
f 413 416 415
f 416 414 417
f 416 418 415
f 419 416 417
f 416 419 418
f 419 417 420
f 419 421 418
f 422 419 420
f 419 422 421
f 422 420 423
f 422 424 421
f 425 422 423
f 422 425 424
f 425 423 426
f 424 425 427
f 425 426 427
f 426 428 427
f 428 429 427
f 427 429 430
f 428 431 429
f 429 432 430
f 431 433 429
f 429 433 432
f 431 434 433
f 433 435 432
f 434 436 433
f 433 436 435
f 434 437 436
f 436 438 435
f 437 439 436
f 436 439 438
f 437 440 439
f 439 441 438
f 440 442 439
f 439 442 441
f 440 443 442
f 442 444 441
f 443 445 442
f 442 445 444
f 443 446 445
f 446 447 445
f 445 448 444
f 445 447 448
f 446 449 447
f 447 450 448
f 449 451 447
f 447 452 450
f 451 453 447
f 447 453 452
f 451 454 453
f 453 455 452
f 454 456 453
f 453 456 455
f 454 457 456
f 457 455 456
f 458 457 454
f 457 459 455
f 460 457 458
f 457 460 459
f 461 460 458
f 460 462 459
f 463 460 461
f 460 463 462
f 464 463 461
f 463 465 462
f 466 463 464
f 463 466 465
f 467 466 464
f 466 468 465
f 469 466 467
f 466 469 468
f 470 469 467
f 469 471 468
f 472 469 470
f 469 472 471
f 473 472 470
f 472 474 471
f 472 473 474
f 475 476 477
f 476 478 477
f 476 479 478
f 476 480 479
f 480 481 479
f 480 482 481
f 483 484 485
f 484 486 485
f 484 487 486
f 487 484 488
f 484 489 488
f 484 490 489
f 490 484 491
f 484 492 491
f 484 493 492
f 491 492 494
f 493 484 495
f 496 491 494
f 491 496 497
f 491 497 498
f 484 499 495
f 500 491 498
f 484 501 499
f 501 484 502
f 484 503 502
f 500 498 504
f 484 505 503
f 505 506 503
f 505 507 506
f 507 505 508
f 505 509 508
f 500 504 510
f 505 511 509
f 512 500 510
f 511 505 513
f 505 514 513
f 505 515 514
f 515 505 516
f 505 517 516
f 505 518 517
f 518 519 517
f 518 520 519
f 520 518 521
f 518 522 521
f 518 523 522
f 523 518 524
f 518 525 524
f 518 526 525
f 526 518 527
f 518 528 527
f 518 529 528
f 529 530 528
f 529 531 530
f 531 529 532
f 529 533 532
f 529 534 533
f 534 529 535
f 500 535 529
f 500 512 535
f 536 500 529
f 536 529 537
f 529 538 537
f 529 539 538
f 539 529 540
f 529 541 540
f 529 542 541
f 543 544 545
f 544 543 546
f 544 547 545
f 544 546 548
f 547 544 548
f 549 550 551
f 550 549 552
f 549 551 553
f 549 554 552
f 555 549 553
f 549 555 554
f 555 553 556
f 555 557 554
f 558 555 556
f 555 558 557
f 558 556 559
f 558 560 557
f 561 558 559
f 558 561 560
f 561 559 562
f 561 563 560
f 564 561 562
f 561 564 563
f 564 562 565
f 564 566 563
f 567 564 565
f 564 567 566
f 567 565 568
f 567 569 566
f 570 567 568
f 567 570 569
f 570 568 571
f 570 572 569
f 573 570 571
f 570 573 572
f 574 575 576
f 575 574 577
f 575 578 576
f 575 577 579
f 575 580 578
f 580 575 579
f 580 581 578
f 580 579 582
f 580 583 581
f 583 580 582
f 583 584 581
f 583 582 585
f 583 586 584
f 586 583 585
f 586 587 584
f 586 585 588
f 586 589 587
f 589 586 588
f 589 590 587
f 589 588 591
f 589 592 590
f 592 589 591
f 592 593 590
f 592 591 594
f 592 595 593
f 595 592 594
f 595 596 593
f 595 594 597
f 596 595 598
f 595 597 598
f 599 600 601
f 602 599 601
f 599 603 600
f 599 602 604
f 603 599 605
f 599 604 606
f 599 607 605
f 608 599 606
f 609 599 608
f 610 609 608
f 609 610 611
f 609 611 612
f 613 609 612
f 609 613 614
f 609 614 615
f 609 616 599
f 617 609 615
f 618 617 615
f 617 618 619
f 617 619 620
f 621 617 620
f 617 621 622
f 617 622 623
f 624 617 623
f 617 624 625
f 617 625 626
f 627 617 626
f 616 628 599
f 616 629 628
f 599 628 630
f 599 630 631
f 632 599 631
f 629 616 633
f 599 632 634
f 616 635 633
f 599 634 636
f 616 637 635
f 638 599 636
f 637 616 639
f 616 640 639
f 616 641 640
f 599 638 642
f 616 643 641
f 643 644 641
f 643 645 644
f 645 643 646
f 643 647 646
f 643 648 647
f 648 643 649
f 643 650 649
f 643 651 650
f 651 643 652
f 599 642 653
f 643 654 652
f 655 599 653
f 643 655 654
f 599 655 607
f 655 653 656
f 655 657 654
f 655 658 607
f 659 655 656
f 655 660 657
f 655 661 658
f 655 659 662
f 660 655 663
f 655 662 663
f 661 655 664
f 655 665 664
f 655 666 665
f 666 655 667
f 655 668 667
f 617 668 655
f 643 617 655
f 617 627 668
f 669 670 671
f 672 669 671
f 669 673 670
f 673 669 672
f 674 675 676
f 675 674 677
f 675 677 678
f 679 675 678
f 675 679 680
f 675 680 681
f 682 675 681
f 675 683 676
f 675 682 684
f 675 684 685
f 685 684 686
f 687 685 686
f 675 688 683
f 688 689 683
f 688 690 689
f 690 688 691
f 688 692 691
f 688 693 692
f 693 688 694
f 688 695 694
f 688 696 695
f 696 688 697
f 688 698 697
f 698 699 697
f 698 700 699
f 697 699 701
f 699 702 701
f 699 703 702
f 703 699 704
f 699 705 704
f 699 706 705
f 706 699 707
f 699 708 707
f 699 709 708
f 700 710 699
f 710 711 699
f 711 712 699
f 712 713 699
f 713 714 699
f 714 715 699
f 715 716 699
f 716 717 699
f 717 718 699
f 699 719 709
f 718 719 699
f 719 720 709
f 718 721 719
f 719 722 720
f 721 723 719
f 722 719 687
f 723 724 719
f 719 685 687
f 724 685 719
f 724 725 685
f 725 726 685
f 726 727 685
f 727 675 685
f 726 728 727
f 728 729 727
f 728 730 729
f 730 731 729
f 731 732 729
f 732 733 729
f 733 734 729
f 734 735 729
f 735 736 729
f 736 737 729
f 737 738 729
f 729 738 739
f 729 739 740
f 698 729 740
f 698 740 741
f 698 741 742
f 743 698 742
f 698 743 744
f 698 744 745
f 700 698 745
f 746 747 748
f 746 748 749
f 747 746 750
f 750 746 749
f 751 752 753
f 754 751 753
f 752 755 753
f 756 754 753
f 756 753 755
f 756 757 754
f 757 756 755
f 757 758 754
f 757 755 759
f 757 760 758
f 760 757 759
f 760 761 758
f 760 759 762
f 761 760 763
f 760 762 763
f 761 763 764
f 764 763 762
f 765 761 764
f 765 764 766
f 764 762 767
f 766 764 767
f 768 765 766
f 766 767 769
f 770 768 766
f 771 766 769
f 770 766 772
f 772 766 771
f 773 770 772
f 774 772 771
f 775 773 772
f 775 772 774
f 775 776 773
f 776 775 774
f 776 777 773
f 776 774 778
f 776 779 777
f 779 776 778
f 779 780 777
f 779 778 781
f 780 779 782
f 779 781 782
f 780 782 783
f 783 782 781
f 784 780 783
f 785 783 781
f 786 784 783
f 786 783 785
f 786 787 784
f 787 786 785
f 787 788 784
f 787 785 789
f 787 790 788
f 790 787 789
f 790 791 788
f 789 792 790
f 790 793 791
f 792 793 790
f 794 791 793
f 792 794 793
f 794 795 791
f 794 792 796
f 795 794 797
f 794 796 798
f 794 799 797
f 799 794 798
f 797 799 800
f 799 801 800
f 799 798 802
f 801 799 802
f 800 801 803
f 801 802 804
f 801 805 803
f 801 804 806
f 801 807 805
f 807 801 806
f 807 808 805
f 807 806 809
f 807 810 808
f 810 807 809
f 810 811 808
f 810 809 812
f 810 813 811
f 813 810 812
f 811 813 814
f 813 812 815
f 813 815 814
f 816 814 815
f 817 816 815
f 816 818 814
f 816 817 819
f 818 816 819
f 820 819 817
f 818 819 820
f 820 817 821
f 822 818 820
f 823 820 821
f 820 823 822
f 823 821 824
f 823 825 822
f 826 823 824
f 823 826 825
f 826 824 827
f 826 827 825
f 824 828 827
f 828 829 827
f 825 827 830
f 827 829 830
f 828 831 829
f 830 829 832
f 831 833 829
f 829 834 832
f 833 835 829
f 829 835 834
f 833 836 835
f 835 837 834
f 836 838 835
f 835 838 837
f 836 839 838
f 839 837 838
f 839 836 840
f 839 841 837
f 842 839 840
f 839 842 841
f 842 840 843
f 842 844 841
f 845 842 843
f 842 845 844
f 845 843 846
f 845 846 844
f 843 847 846
f 844 846 848
f 847 849 846
f 846 849 848
f 847 850 849
f 850 848 849
f 850 847 851
f 850 852 848
f 853 850 851
f 850 853 852
f 853 851 854
f 853 855 852
f 856 853 854
f 853 856 855
f 856 854 857
f 856 857 855
f 854 858 857
f 859 855 857
f 858 860 857
f 861 859 857
f 860 862 857
f 861 857 862
f 860 863 862
f 863 864 862
f 865 861 862
f 865 862 864
f 863 866 864
f 867 865 864
f 866 868 864
f 869 867 864
f 868 870 864
f 869 864 870
f 868 871 870
f 872 869 870
f 871 873 870
f 872 870 873
f 871 874 873
f 875 872 873
f 874 876 873
f 875 873 876
f 874 877 876
f 878 875 876
f 877 878 876
f 879 880 881
f 880 879 882
f 880 882 883
f 884 880 883
f 880 885 881
f 880 884 886
f 880 887 885
f 887 888 885
f 887 889 888
f 889 887 890
f 887 891 890
f 887 892 891
f 892 887 893
f 887 894 893
f 887 895 894
f 887 896 895
f 896 897 895
f 896 898 897
f 898 896 899
f 896 900 899
f 896 901 900
f 901 896 902
f 896 903 902
f 896 904 903
f 896 905 904
f 905 906 904
f 905 907 906
f 907 905 908
f 905 909 908
f 905 910 909
f 910 905 911
f 905 912 911
f 905 913 912
f 913 905 914
f 905 886 914
f 880 886 905
f 915 880 905
f 905 916 915
f 916 917 915
f 916 918 917
f 918 916 919
f 916 920 919
f 916 921 920
f 922 915 917
f 921 916 923
f 915 922 924
f 916 925 923
f 915 924 926
f 916 927 925
f 928 915 926
f 915 928 929
f 915 929 930
f 931 915 930
f 931 930 932
f 931 932 933
f 927 916 934
f 916 935 934
f 916 936 935
f 916 937 936
f 937 938 936
f 937 939 938
f 940 931 933
f 939 937 941
f 931 940 942
f 937 943 941
f 931 942 944
f 937 945 943
f 946 931 944
f 931 946 947
f 931 947 948
f 937 931 948
f 945 937 949
f 937 948 950
f 937 950 949
f 951 952 953
f 952 951 954
f 952 955 953
f 952 954 956
f 955 952 957
f 958 952 956
f 952 958 959
f 952 960 957
f 952 961 960
f 961 962 960
f 952 959 963
f 964 952 963
f 964 963 965
f 964 965 966
f 961 967 962
f 968 964 966
f 967 961 969
f 964 968 970
f 961 971 969
f 964 970 972
f 973 964 972
f 964 973 974
f 964 974 975
f 976 964 975
f 976 975 977
f 976 977 978
f 979 976 978
f 976 979 980
f 976 980 981
f 982 976 981
f 976 982 983
f 976 983 984
f 985 976 984
f 976 985 986
f 976 986 961
f 961 986 971
f 987 976 961
f 961 988 987
f 988 989 987
f 987 989 990
f 991 987 990
f 987 991 992
f 987 992 993
f 988 994 989
f 995 987 993
f 994 988 996
f 988 997 996
f 988 998 997
f 988 999 998
f 999 1000 998
f 999 1001 1000
f 1001 999 1002
f 987 995 1003
f 999 1004 1002
f 987 1003 1005
f 999 1006 1004
f 1007 987 1005
f 987 1007 1008
f 987 1008 1009
f 1010 987 1009
f 1011 1010 1009
f 1010 1011 1012
f 1010 1012 1013
f 1006 999 1014
f 1015 1010 1013
f 999 1016 1014
f 999 1017 1016
f 1017 999 1018
f 999 1010 1018
f 1010 1015 1019
f 1010 1020 1018
f 1010 1019 1021
f 1010 1022 1020
f 1022 1010 1021
f 1023 1024 1025
f 1023 1025 1026
f 1024 1023 1027
f 1027 1023 1026
f 1028 1029 1030
f 1028 1030 1031
f 1029 1028 1032
f 1032 1028 1031
f 1033 1034 1035
f 1033 1035 1036
f 1034 1033 1037
f 1037 1033 1036
f 1038 1039 1040
f 1038 1040 1041
f 1039 1038 1042
f 1042 1038 1041
f 1043 1044 1045
f 1043 1045 1046
f 1044 1043 1047
f 1047 1043 1046
f 1048 1049 1050
f 1051 1048 1050
f 1048 1052 1049
f 1052 1048 1051
f 1053 1054 1055
f 1056 1053 1055
f 1053 1057 1054
f 1057 1053 1056
f 1058 1059 1060
f 1061 1059 1058
f 1059 1062 1060
f 1059 1061 1062
f 1063 1064 1065
f 1066 1064 1063
f 1064 1067 1065
f 1064 1066 1067
