# ROS coordinates: X forward, Y left, Z up; units are metres.
o mesh
v -0.0561529323 -0.1063098 0.0345000029
v -0.05798673 -0.108008981 0.0345
v -0.0579753779 -0.10802123 0.0343180373
v -0.0570548847 -0.107175522 0.0342914648
v -0.0561415851 -0.10632205 0.0343180373
v -0.0579390079 -0.108060479 0.0341319069
v -0.0561052151 -0.1063613 0.0341319069
v -0.0570068136 -0.1072274 0.0340794772
v -0.05787594 -0.108128548 0.03395279
v -0.0560421422 -0.106429368 0.0339527875
v -0.0569240861 -0.10731668 0.0338812172
v -0.0577876568 -0.108223818 0.0337928943
v -0.05595386 -0.106524646 0.03379289
v -0.05681073 -0.107439019 0.033714436
v -0.0576789752 -0.108341105 0.0336630046
v -0.0558451861 -0.106641933 0.0336630046
v -0.0566759743 -0.107584447 0.0335927159
v -0.05755724 -0.108472496 0.03357021
v -0.0557234436 -0.106773317 0.03357021
v -0.05653189 -0.107739948 0.0335219875
v -0.05743073 -0.108609021 0.0335166939
v -0.05639016 -0.107892908 0.0335
v -0.05559694 -0.106909841 0.0335166939
v -0.0573070571 -0.1087425 0.0335
v -0.0554732643 -0.107043318 0.0335
v -0.0571833774 -0.108875968 0.0335166939
v -0.05534959 -0.107176796 0.0335166939
v -0.0562484227 -0.108045876 0.0335219875
v -0.057056874 -0.1090125 0.03357021
v -0.0552230775 -0.10731332 0.03357021
v -0.0561399758 -0.10816291 0.03357021
v -0.05603502 -0.108276181 0.0336473733
v -0.05693513 -0.109143883 0.0336630046
v -0.0551013425 -0.1074447 0.0336630046
v -0.0559388138 -0.108380012 0.0337523222
v -0.0568264574 -0.10926117 0.0337928943
v -0.05499266 -0.107561991 0.03379289
v -0.05585623 -0.108469136 0.0338812172
v -0.0567381755 -0.109356448 0.03395279
v -0.05490438 -0.107657269 0.0339527875
v -0.0557909943 -0.108539544 0.034027908
v -0.0566751063 -0.109424517 0.0341319069
v -0.05484131 -0.107725337 0.0341319069
v -0.0557451136 -0.108589061 0.0341848955
v -0.0566387326 -0.109463766 0.0343180373
v -0.05480494 -0.107764587 0.0343180373
v -0.0557187572 -0.108617507 0.0343445167
v -0.0566273853 -0.109476015 0.0345
v -0.0547935925 -0.107776836 0.0345000029
v -0.0566387326 -0.109463766 0.03468196
v -0.05572543 -0.1086103 0.0347085372
v -0.05480494 -0.107764587 0.03468196
v -0.0566751063 -0.109424517 0.0348680951
v -0.05484131 -0.107725337 0.0348680951
v -0.0557735041 -0.108558416 0.03492052
v -0.0567381755 -0.109356448 0.03504721
v -0.05490438 -0.107657269 0.03504721
v -0.0558562353 -0.108469136 0.03511878
v -0.0568264574 -0.10926117 0.0352071077
v -0.05499266 -0.107561991 0.0352071077
v -0.0559695922 -0.1083468 0.0352855623
v -0.0569351353 -0.109143883 0.0353369936
v -0.0551013425 -0.1074447 0.0353369936
v -0.0561043434 -0.10820137 0.0354072824
v -0.057056874 -0.1090125 0.0354297869
v -0.0552230775 -0.10731332 0.03542979
v -0.0562484227 -0.108045876 0.0354780145
v -0.0571833774 -0.108875968 0.0354833044
v -0.05639016 -0.107892908 0.0354999974
v -0.05534959 -0.107176796 0.0354833081
v -0.0573070571 -0.1087425 0.0354999974
v -0.05547326 -0.107043318 0.0354999974
v -0.05743073 -0.108609021 0.0354833044
v -0.05559694 -0.106909841 0.0354833081
v -0.05653189 -0.107739948 0.0354780145
v -0.05755724 -0.108472496 0.0354297869
v -0.0557234436 -0.106773317 0.03542979
v -0.0566403419 -0.107622907 0.03542979
v -0.0567453 -0.107509628 0.03535263
v -0.0576789752 -0.108341105 0.0353369936
v -0.0558451861 -0.106641933 0.0353369936
v -0.0568415038 -0.107405804 0.0352476761
v -0.0577876568 -0.108223818 0.0352071077
v -0.05595386 -0.106524646 0.0352071077
v -0.0569240823 -0.10731668 0.03511878
v -0.05787594 -0.108128548 0.03504721
v -0.0560421422 -0.106429368 0.03504721
v -0.0569893233 -0.107246272 0.034972094
v -0.0579390079 -0.108060479 0.0348680951
v -0.05610521 -0.1063613 0.0348680951
v -0.0570352077 -0.107196756 0.0348151028
v -0.05797538 -0.108021222 0.03468196
v -0.0561415851 -0.10632205 0.03468196
v -0.0570615679 -0.107168309 0.03465548
v -0.05798673 -0.108008981 0.0345
v -0.0561529323 -0.1063098 0.0345000029
v -0.0371221527 -0.1268483 0.0345000029
v -0.03895595 -0.128547475 0.0345
v -0.038944602 -0.128559709 0.0343180373
v -0.03802411 -0.127714008 0.0342914648
v -0.03711081 -0.126860529 0.0343180373
v -0.03890823 -0.128598973 0.0341319069
v -0.0370744355 -0.1268998 0.0341319069
v -0.037976034 -0.1277659 0.0340794772
v -0.03884516 -0.128667042 0.03395279
v -0.0370113663 -0.126967862 0.0339527875
v -0.0378933065 -0.127855182 0.0338812172
v -0.0387568772 -0.1287623 0.0337928943
v -0.0369230881 -0.127063125 0.03379289
v -0.03777995 -0.12797752 0.033714436
v -0.0386482 -0.1288796 0.0336630046
v -0.0368144065 -0.127180427 0.0336630046
v -0.0376452 -0.128122941 0.0335927159
v -0.03852646 -0.129010975 0.03357021
v -0.03669267 -0.127311811 0.03357021
v -0.03750112 -0.128278434 0.0335219875
v -0.0383999534 -0.129147515 0.0335166939
v -0.03735938 -0.1284314 0.0335
v -0.03656616 -0.127448335 0.0335166939
v -0.0382762775 -0.129280984 0.0335
v -0.03644249 -0.1275818 0.0335
v -0.0381526053 -0.129414454 0.0335166939
v -0.03631881 -0.12771529 0.0335166939
v -0.0372176468 -0.128584355 0.0335219875
v -0.0380260944 -0.129551 0.03357021
v -0.0361923 -0.127851814 0.03357021
v -0.0371091962 -0.1287014 0.03357021
v -0.03700424 -0.128814667 0.0336473733
v -0.03790436 -0.129682377 0.0336630046
v -0.0360705629 -0.1279832 0.0336630046
v -0.036908038 -0.1289185 0.0337523222
v -0.0377956778 -0.129799664 0.0337928943
v -0.035961885 -0.128100485 0.03379289
v -0.0368254557 -0.129007623 0.0338812172
v -0.0377073959 -0.129894942 0.03395279
v -0.0358736068 -0.128195763 0.0339527875
v -0.03676022 -0.129078031 0.034027908
v -0.0376443267 -0.129963011 0.0341319069
v -0.0358105376 -0.128263831 0.0341319069
v -0.0367143378 -0.129127547 0.0341848955
v -0.0376079567 -0.13000226 0.0343180373
v -0.0357741639 -0.128303081 0.0343180373
v -0.0366879776 -0.129156 0.0343445167
v -0.0375966057 -0.130014509 0.0345
v -0.0357628167 -0.12831533 0.0345000029
v -0.0376079567 -0.13000226 0.03468196
v -0.0366946533 -0.129148781 0.0347085372
v -0.0357741639 -0.128303081 0.03468196
v -0.0376443267 -0.129963011 0.0348680951
v -0.0358105376 -0.128263831 0.0348680951
v -0.03674273 -0.12909691 0.03492052
v -0.0377073959 -0.129894942 0.03504721
v -0.0358736068 -0.128195763 0.03504721
v -0.0368254557 -0.129007623 0.03511878
v -0.0377956778 -0.129799664 0.0352071077
v -0.035961885 -0.128100485 0.0352071077
v -0.0369388163 -0.128885284 0.0352855623
v -0.03790436 -0.129682377 0.0353369936
v -0.0360705629 -0.1279832 0.0353369936
v -0.0370735675 -0.128739864 0.0354072824
v -0.0380260944 -0.129551 0.0354297869
v -0.0361923 -0.127851814 0.03542979
v -0.0372176468 -0.128584355 0.0354780145
v -0.0381526053 -0.129414454 0.0354833044
v -0.03735938 -0.1284314 0.0354999974
v -0.03631881 -0.12771529 0.0354833081
v -0.0382762775 -0.129280984 0.0354999974
v -0.03644249 -0.1275818 0.0354999974
v -0.0383999534 -0.129147515 0.0354833044
v -0.03656616 -0.127448335 0.0354833081
v -0.03750112 -0.128278434 0.0354780145
v -0.03852646 -0.129010975 0.0354297869
v -0.03669267 -0.127311811 0.03542979
v -0.037609566 -0.1281614 0.03542979
v -0.0377145223 -0.128048122 0.03535263
v -0.0386482 -0.1288796 0.0353369936
v -0.0368144065 -0.127180427 0.0353369936
v -0.037810728 -0.127944291 0.0352476761
v -0.0387568772 -0.1287623 0.0352071077
v -0.0369230881 -0.127063125 0.0352071077
v -0.0378933065 -0.127855182 0.03511878
v -0.03884516 -0.128667042 0.03504721
v -0.0370113663 -0.126967862 0.03504721
v -0.0379585475 -0.127784759 0.034972094
v -0.03890823 -0.128598973 0.0348680951
v -0.0370744355 -0.1268998 0.0348680951
v -0.03800443 -0.127735257 0.0348151028
v -0.038944602 -0.128559709 0.03468196
v -0.03711081 -0.126860529 0.03468196
v -0.03803079 -0.1277068 0.03465548
v -0.03895595 -0.128547475 0.0345
v -0.0371221527 -0.1268483 0.0345000029
v -0.042886436 -0.103560247 0.0345
v -0.0461872667 -0.106618762 0.0345
v -0.0461589 -0.106649376 0.03495491
v -0.04449949 -0.105129823 0.03502134
v -0.04285807 -0.103590861 0.03495491
v -0.0460679643 -0.106747515 0.0354202352
v -0.0427671336 -0.103689 0.0354202352
v -0.0443793051 -0.105259523 0.0355513
v -0.04591029 -0.106917679 0.0358680263
v -0.04260946 -0.103859164 0.0358680263
v -0.0441724844 -0.105482735 0.036046952
v -0.04568959 -0.107155867 0.0362677649
v -0.04238876 -0.104097351 0.0362677649
v -0.0438890867 -0.105788581 0.03646391
v -0.0454178974 -0.107449085 0.0365924872
v -0.0421170667 -0.104390569 0.0365924872
v -0.04355221 -0.106152147 0.03676821
v -0.04511355 -0.107777551 0.0368244722
v -0.0418127179 -0.104719028 0.0368244722
v -0.04319201 -0.106540889 0.0369450375
v -0.0447972752 -0.108118877 0.0369582623
v -0.0428376719 -0.1069233 0.037
v -0.04149645 -0.105060361 0.0369582623
v -0.0444880873 -0.108452559 0.037
v -0.04118726 -0.105394043 0.037
v -0.0441789 -0.10878624 0.0369582623
v -0.0408780724 -0.105727725 0.0369582623
v -0.0424833335 -0.107305706 0.0369450375
v -0.0438626334 -0.109127566 0.0368244722
v -0.0405618027 -0.106069051 0.0368244722
v -0.0422122143 -0.107598305 0.0368244722
v -0.0419498235 -0.107881486 0.036631573
v -0.0435582846 -0.109456025 0.0365924872
v -0.0402574539 -0.10639751 0.0365924872
v -0.0417093076 -0.108141057 0.0363691859
v -0.04328659 -0.10974925 0.0362677649
v -0.03998576 -0.106690727 0.0362677649
v -0.04150286 -0.108363859 0.036046952
v -0.0430658832 -0.109987438 0.0358680263
v -0.0397650562 -0.106928915 0.0358680263
v -0.0413397625 -0.108539879 0.035680227
v -0.042908214 -0.1101576 0.0354202352
v -0.0396073833 -0.107099079 0.0354202352
v -0.0412250534 -0.108663671 0.03528776
v -0.04281728 -0.110255741 0.03495491
v -0.03951645 -0.107197218 0.03495491
v -0.04115916 -0.108734794 0.0348887034
v -0.04278891 -0.110286355 0.0345
v -0.0394880846 -0.107227832 0.0345
v -0.04281728 -0.110255741 0.0340450928
v -0.0411758535 -0.108716771 0.03397866
v -0.03951645 -0.107197218 0.0340450928
v -0.042908214 -0.1101576 0.033579763
v -0.0396073833 -0.107099079 0.033579763
v -0.0412960351 -0.108587071 0.0334487
v -0.0430658869 -0.109987438 0.0331319757
v -0.0397650562 -0.106928915 0.0331319757
v -0.04150286 -0.108363859 0.03295305
v -0.04328659 -0.10974925 0.0327322334
v -0.03998576 -0.106690727 0.0327322334
v -0.0417862535 -0.108058013 0.03253609
v -0.0435582846 -0.109456025 0.03240751
v -0.0402574539 -0.10639751 0.03240751
v -0.0421231352 -0.107694447 0.0322317928
v -0.0438626334 -0.109127566 0.03217553
v -0.0405618027 -0.106069051 0.03217553
v -0.0424833335 -0.107305706 0.0320549645
v -0.0441789 -0.10878624 0.0320417359
v -0.0428376719 -0.1069233 0.032
v -0.0408780724 -0.105727725 0.0320417359
v -0.0444880873 -0.108452559 0.0319999978
v -0.04118726 -0.105394043 0.0319999978
v -0.0447972752 -0.108118877 0.0320417359
v -0.04149645 -0.105060361 0.0320417359
v -0.04319201 -0.106540889 0.0320549645
v -0.04511355 -0.107777551 0.03217553
v -0.0418127179 -0.104719028 0.03217553
v -0.04346313 -0.106248289 0.03217553
v -0.04372552 -0.105965108 0.03236843
v -0.0454178974 -0.107449085 0.03240751
v -0.0421170667 -0.104390569 0.03240751
v -0.0439660326 -0.105705537 0.0326308124
v -0.04568959 -0.107155867 0.0327322334
v -0.04238876 -0.104097351 0.0327322334
v -0.0441724844 -0.105482735 0.03295305
v -0.04591029 -0.106917679 0.0331319757
v -0.04260946 -0.103859164 0.0331319757
v -0.04433558 -0.105306715 0.03331977
v -0.0460679643 -0.106747515 0.033579763
v -0.0427671336 -0.103689 0.033579763
v -0.04445029 -0.105182923 0.03371224
v -0.0461589 -0.106649376 0.0340450928
v -0.04285807 -0.103590861 0.0340450928
v -0.0445161872 -0.1051118 0.0341113
v -0.0461872667 -0.106618762 0.0345
v -0.042886436 -0.103560247 0.0345
v -0.04856611 -0.104051456 0.0345
v -0.0526004545 -0.107789643 0.0345
v -0.0525323749 -0.107863113 0.0355917774
v -0.0504936278 -0.106017306 0.03575121
v -0.04849803 -0.104124926 0.0355917774
v -0.0523141325 -0.108098648 0.0367085673
v -0.04827979 -0.104360461 0.0367085673
v -0.0502051823 -0.1063286 0.03702312
v -0.05193572 -0.108507037 0.0377832577
v -0.0479013771 -0.10476885 0.0377832577
v -0.04970881 -0.1068643 0.0382126831
v -0.05140603 -0.10907869 0.03874264
v -0.0473716855 -0.105340511 0.03874264
v -0.04902866 -0.107598335 0.03921338
v -0.050753966 -0.10978242 0.0395219736
v -0.0467196219 -0.106044233 0.0395219736
v -0.04822015 -0.108470894 0.0399437
v -0.05002353 -0.110570721 0.04007873
v -0.0459891856 -0.106832534 0.04007873
v -0.04735567 -0.109403864 0.0403680876
v -0.0492644832 -0.111389905 0.0403998345
v -0.0465052575 -0.110321648 0.0405
v -0.04523014 -0.107651718 0.0403998345
v -0.04852243 -0.112190746 0.0405
v -0.0444880873 -0.108452559 0.0405
v -0.0477803834 -0.112991586 0.0403998345
v -0.04374604 -0.1092534 0.0403998345
v -0.04565485 -0.111239433 0.0403680876
v -0.0470213331 -0.11381077 0.04007873
v -0.04298699 -0.110072583 0.04007873
v -0.04500416 -0.111941673 0.04007873
v -0.04437442 -0.1126213 0.0396157727
v -0.0462908968 -0.114599071 0.0395219736
v -0.0422565565 -0.110860884 0.0395219736
v -0.0437971875 -0.113244265 0.03898605
v -0.0456388332 -0.115302794 0.03874264
v -0.04160449 -0.111564606 0.03874264
v -0.0433017127 -0.113779 0.0382126831
v -0.0451091453 -0.115874447 0.0377832577
v -0.0410748 -0.11213626 0.0377832577
v -0.0429102778 -0.114201441 0.03733255
v -0.0447307341 -0.116282843 0.0367085673
v -0.04069639 -0.112544656 0.0367085673
v -0.04263498 -0.114498548 0.03639062
v -0.0445124879 -0.116518378 0.0355917774
v -0.0404781476 -0.112780191 0.0355917774
v -0.04247683 -0.114669234 0.0354328826
v -0.04444441 -0.116591848 0.0345
v -0.0404100642 -0.112853661 0.0345
v -0.0445124879 -0.116518378 0.03340822
v -0.04251689 -0.114626 0.03324879
v -0.0404781476 -0.112780191 0.03340822
v -0.0447307341 -0.116282836 0.03229143
v -0.04069639 -0.112544656 0.03229143
v -0.0428053364 -0.1143147 0.03197688
v -0.0451091453 -0.115874447 0.03121674
v -0.0410748 -0.11213626 0.03121674
v -0.04330171 -0.113779 0.0307873171
v -0.0456388369 -0.115302794 0.03025736
v -0.0416044928 -0.111564606 0.03025736
v -0.0439818576 -0.11304497 0.0297866147
v -0.0462908968 -0.114599071 0.0294780284
v -0.0422565565 -0.110860884 0.0294780284
v -0.04479037 -0.1121724 0.0290563013
v -0.0470213331 -0.11381077 0.0289212689
v -0.04298699 -0.110072583 0.0289212689
v -0.04565485 -0.111239433 0.0286319088
v -0.0477803834 -0.112991586 0.0286001675
v -0.0465052575 -0.110321648 0.0285
v -0.04374604 -0.1092534 0.0286001675
v -0.04852243 -0.112190746 0.0284999982
v -0.0444880873 -0.108452559 0.0284999982
v -0.0492644832 -0.111389905 0.0286001675
v -0.04523014 -0.107651718 0.0286001675
v -0.0473556742 -0.109403864 0.0286319088
v -0.05002353 -0.110570721 0.0289212689
v -0.0459891856 -0.106832534 0.0289212689
v -0.0480063558 -0.108701624 0.028921267
v -0.0486360937 -0.108022 0.0293842275
v -0.050753966 -0.10978242 0.0294780284
v -0.0467196219 -0.106044233 0.0294780284
v -0.04921333 -0.107399032 0.0300139468
v -0.05140603 -0.10907869 0.03025736
v -0.0473716855 -0.105340511 0.03025736
v -0.04970881 -0.1068643 0.0307873171
v -0.05193572 -0.108507037 0.03121674
v -0.0479013771 -0.10476885 0.03121674
v -0.05010024 -0.106441855 0.03166745
v -0.0523141325 -0.108098648 0.03229143
v -0.04827979 -0.104360461 0.03229143
v -0.0503755361 -0.106144749 0.03260938
v -0.0525323749 -0.107863113 0.03340822
v -0.04849803 -0.104124926 0.03340822
v -0.05053369 -0.105974063 0.0335671157
v -0.0526004545 -0.107789643 0.0345
v -0.04856611 -0.104051456 0.0345
v -0.0367130376 -0.130968079 0.0285
v -0.0399754569 -0.127447188 0.0285
v -0.0348792449 -0.1292689 0.0285
v -0.03814166 -0.125748008 0.0285
v -0.04852243 -0.112190746 0.0284999982
v -0.03696803 -0.124660537 0.0284999982
v -0.05307299 -0.123905368 0.0285
v -0.0535455272 -0.1400211 0.0285
v -0.0691779554 -0.1231502 0.0285
v -0.0556078777 -0.110576287 0.0285
v -0.0537740849 -0.108877115 0.0285
v -0.0526004545 -0.107789636 0.0284999982
v -0.0588703 -0.1070554 0.0285
v -0.0570365041 -0.105356231 0.0285
v -0.0367130376 -0.130968079 0.0405
v -0.0348792449 -0.1292689 0.0405
v -0.0399754569 -0.127447188 0.0405
v -0.03814166 -0.125748008 0.0405
v -0.04852243 -0.112190746 0.0405
v -0.03696803 -0.124660537 0.0405
v -0.05307299 -0.123905368 0.0405
v -0.0535455272 -0.1400211 0.0405
v -0.0691779554 -0.1231502 0.0405
v -0.0556078777 -0.110576287 0.0405
v -0.0537740849 -0.108877115 0.0405
v -0.0526004545 -0.107789636 0.0405
v -0.0588702969 -0.1070554 0.0405
v -0.0570365041 -0.105356231 0.0405
v -0.0399754569 -0.127447188 0.0405
v -0.038944602 -0.128559709 0.03468196
v -0.03890823 -0.128598973 0.0348680951
v -0.03884516 -0.128667042 0.03504721
v -0.0387568772 -0.1287623 0.0352071077
v -0.0386482 -0.1288796 0.0353369936
v -0.03852646 -0.129010975 0.0354297869
v -0.0383999534 -0.129147515 0.0354833044
v -0.03895595 -0.128547475 0.0345
v -0.0382762775 -0.129280984 0.0354999974
v -0.0399754569 -0.127447188 0.0285
v -0.038944602 -0.128559709 0.0343180373
v -0.03890823 -0.128598973 0.0341319069
v -0.0367130376 -0.130968079 0.0405
v -0.0381526053 -0.129414454 0.0354833044
v -0.0380260944 -0.129551 0.0354297869
v -0.03884516 -0.128667042 0.03395279
v -0.03790436 -0.129682377 0.0353369936
v -0.0387568772 -0.1287623 0.0337928943
v -0.0377956778 -0.129799664 0.0352071077
v -0.0386482 -0.1288796 0.0336630046
v -0.0377073959 -0.129894942 0.03504721
v -0.03852646 -0.129010975 0.03357021
v -0.0383999534 -0.129147515 0.0335166939
v -0.0382762775 -0.129280984 0.0335
v -0.0367130376 -0.130968079 0.0285
v -0.0381526053 -0.129414454 0.0335166939
v -0.0380260944 -0.129551 0.03357021
v -0.0376443267 -0.129963011 0.0348680951
v -0.0376079567 -0.13000226 0.03468196
v -0.0375966057 -0.130014509 0.0345
v -0.03790436 -0.129682377 0.0336630046
v -0.0376079567 -0.13000226 0.0343180373
v -0.0377956778 -0.129799664 0.0337928943
v -0.0376443267 -0.129963011 0.0341319069
v -0.0377073959 -0.129894942 0.03395279
v -0.0357961431 -0.130118489 0.0345000029
v -0.0348792449 -0.1292689 0.0285
v -0.0348792449 -0.1292689 0.0405
v -0.0367130376 -0.130968079 0.0405
v -0.0367130376 -0.130968079 0.0285
v -0.03814166 -0.125748008 0.0285
v -0.03711081 -0.126860529 0.0343180373
v -0.0370744355 -0.1268998 0.0341319069
v -0.0370113663 -0.126967862 0.0339527875
v -0.0369230881 -0.127063125 0.03379289
v -0.0368144065 -0.127180427 0.0336630046
v -0.03669267 -0.127311811 0.03357021
v -0.03656616 -0.127448335 0.0335166939
v -0.0371221527 -0.1268483 0.0345000029
v -0.03644249 -0.1275818 0.0335
v -0.03814166 -0.125748008 0.0405
v -0.03711081 -0.126860529 0.03468196
v -0.0370744355 -0.1268998 0.0348680951
v -0.0348792449 -0.1292689 0.0285
v -0.03631881 -0.12771529 0.0335166939
v -0.0361923 -0.127851814 0.03357021
v -0.0370113663 -0.126967862 0.03504721
v -0.0360705629 -0.1279832 0.0336630046
v -0.0369230881 -0.127063125 0.0352071077
v -0.035961885 -0.128100485 0.03379289
v -0.0368144065 -0.127180427 0.0353369936
v -0.0358736068 -0.128195763 0.0339527875
v -0.03669267 -0.127311811 0.03542979
v -0.03656616 -0.127448335 0.0354833081
v -0.03644249 -0.1275818 0.0354999974
v -0.0348792449 -0.1292689 0.0405
v -0.03631881 -0.12771529 0.0354833081
v -0.0361923 -0.127851814 0.03542979
v -0.0358105376 -0.128263831 0.0341319069
v -0.0357741639 -0.128303081 0.0343180373
v -0.0357628167 -0.12831533 0.0345000029
v -0.0360705629 -0.1279832 0.0353369936
v -0.0357741639 -0.128303081 0.03468196
v -0.035961885 -0.128100485 0.0352071077
v -0.0358105376 -0.128263831 0.0348680951
v -0.0358736068 -0.128195763 0.03504721
v -0.0375548452 -0.12520428 0.0345
v -0.03696803 -0.124660537 0.0284999982
v -0.03696803 -0.124660537 0.0405
v -0.03814166 -0.125748008 0.0405
v -0.03814166 -0.125748008 0.0285
v -0.0537740849 -0.108877115 0.0285
v -0.05318727 -0.108333379 0.0345
v -0.0526004545 -0.107789636 0.0284999982
v -0.0537740849 -0.108877115 0.0405
v -0.0526004545 -0.107789643 0.0345
v -0.0526004545 -0.107789636 0.0405
v -0.0570365041 -0.105356231 0.0285
v -0.0561415851 -0.10632205 0.0343180373
v -0.0561052151 -0.1063613 0.0341319069
v -0.0560421422 -0.106429368 0.0339527875
v -0.05595386 -0.106524646 0.03379289
v -0.0558451861 -0.106641933 0.0336630046
v -0.0557234436 -0.106773317 0.03357021
v -0.05559694 -0.106909841 0.0335166939
v -0.0561529323 -0.1063098 0.0345000029
v -0.0554732643 -0.107043318 0.0335
v -0.0570365041 -0.105356231 0.0405
v -0.0561415851 -0.10632205 0.03468196
v -0.05610521 -0.1063613 0.0348680951
v -0.0537740849 -0.108877115 0.0285
v -0.05534959 -0.107176796 0.0335166939
v -0.0552230775 -0.10731332 0.03357021
v -0.0560421422 -0.106429368 0.03504721
v -0.0551013425 -0.1074447 0.0336630046
v -0.05595386 -0.106524646 0.0352071077
v -0.05499266 -0.107561991 0.03379289
v -0.0558451861 -0.106641933 0.0353369936
v -0.05490438 -0.107657269 0.0339527875
v -0.0557234436 -0.106773317 0.03542979
v -0.05559694 -0.106909841 0.0354833081
v -0.05547326 -0.107043318 0.0354999974
v -0.0537740849 -0.108877115 0.0405
v -0.05534959 -0.107176796 0.0354833081
v -0.0552230775 -0.10731332 0.03542979
v -0.05484131 -0.107725337 0.0341319069
v -0.05480494 -0.107764587 0.0343180373
v -0.0547935925 -0.107776836 0.0345000029
v -0.0551013425 -0.1074447 0.0353369936
v -0.05480494 -0.107764587 0.03468196
v -0.05499266 -0.107561991 0.0352071077
v -0.05484131 -0.107725337 0.0348680951
v -0.05490438 -0.107657269 0.03504721
v -0.0579534024 -0.106205821 0.0345000029
v -0.0588703 -0.1070554 0.0285
v -0.0588702969 -0.1070554 0.0405
v -0.0570365041 -0.105356231 0.0405
v -0.0570365041 -0.105356231 0.0285
v -0.0588702969 -0.1070554 0.0405
v -0.05797538 -0.108021222 0.03468196
v -0.0579390079 -0.108060479 0.0348680951
v -0.05787594 -0.108128548 0.03504721
v -0.0577876568 -0.108223818 0.0352071077
v -0.0576789752 -0.108341105 0.0353369936
v -0.05755724 -0.108472496 0.0354297869
v -0.05743073 -0.108609021 0.0354833044
v -0.05798673 -0.108008981 0.0345
v -0.0573070571 -0.1087425 0.0354999974
v -0.0588703 -0.1070554 0.0285
v -0.0579753779 -0.10802123 0.0343180373
v -0.0579390079 -0.108060479 0.0341319069
v -0.0556078777 -0.110576287 0.0405
v -0.0571833774 -0.108875968 0.0354833044
v -0.057056874 -0.1090125 0.0354297869
v -0.05787594 -0.108128548 0.03395279
v -0.0569351353 -0.109143883 0.0353369936
v -0.0577876568 -0.108223818 0.0337928943
v -0.0568264574 -0.10926117 0.0352071077
v -0.0576789752 -0.108341105 0.0336630046
v -0.0567381755 -0.109356448 0.03504721
v -0.05755724 -0.108472496 0.03357021
v -0.05743073 -0.108609021 0.0335166939
v -0.0573070571 -0.1087425 0.0335
v -0.0556078777 -0.110576287 0.0285
v -0.0571833774 -0.108875968 0.0335166939
v -0.057056874 -0.1090125 0.03357021
v -0.0566751063 -0.109424517 0.0348680951
v -0.0566387326 -0.109463766 0.03468196
v -0.0566273853 -0.109476015 0.0345
v -0.05693513 -0.109143883 0.0336630046
v -0.0566387326 -0.109463766 0.0343180373
v -0.0568264574 -0.10926117 0.0337928943
v -0.0566751063 -0.109424517 0.0341319069
v -0.0567381755 -0.109356448 0.03395279
v -0.0623929128 -0.116863243 0.0345
v -0.0691779554 -0.1231502 0.0285
v -0.0691779554 -0.1231502 0.0405
v -0.0556078777 -0.110576287 0.0405
v -0.0556078777 -0.110576287 0.0285
v -0.0613617375 -0.131585658 0.0345
v -0.0535455272 -0.1400211 0.0285
v -0.0535455272 -0.1400211 0.0405
v -0.0691779554 -0.1231502 0.0405
v -0.0691779554 -0.1231502 0.0285
v -0.0523141325 -0.108098648 0.03229143
v -0.0526004545 -0.107789636 0.0284999982
v -0.0525323749 -0.107863113 0.03340822
v -0.05193572 -0.108507037 0.03121674
v -0.0526004545 -0.107789643 0.0345
v -0.05140603 -0.10907869 0.03025736
v -0.050753966 -0.10978242 0.0294780284
v -0.05002353 -0.110570721 0.0289212689
v -0.0492644832 -0.111389905 0.0286001675
v -0.04852243 -0.112190746 0.0284999982
v -0.0526004545 -0.107789636 0.0405
v -0.0525323749 -0.107863113 0.0355917774
v -0.0523141325 -0.108098648 0.0367085673
v -0.05193572 -0.108507037 0.0377832577
v -0.05140603 -0.10907869 0.03874264
v -0.050753966 -0.10978242 0.0395219736
v -0.05002353 -0.110570721 0.04007873
v -0.0492644832 -0.111389905 0.0403998345
v -0.04852243 -0.112190746 0.0405
v -0.0477803834 -0.112991586 0.0286001675
v -0.03696803 -0.124660537 0.0284999982
v -0.0470213331 -0.11381077 0.0289212689
v -0.0462908968 -0.114599071 0.0294780284
v -0.0456388369 -0.115302794 0.03025736
v -0.0451091453 -0.115874447 0.03121674
v -0.0447307341 -0.116282836 0.03229143
v -0.0427452326 -0.118425645 0.0345
v -0.03696803 -0.124660537 0.0405
v -0.0477803834 -0.112991586 0.0403998345
v -0.0445124879 -0.116518378 0.03340822
v -0.0470213331 -0.11381077 0.04007873
v -0.04444441 -0.116591848 0.0345
v -0.0445124879 -0.116518378 0.0355917774
v -0.0447307341 -0.116282843 0.0367085673
v -0.0462908968 -0.114599071 0.0395219736
v -0.0451091453 -0.115874447 0.0377832577
v -0.0456388332 -0.115302794 0.03874264
v -0.0444880873 -0.108452559 0.037
v -0.0444880873 -0.108452559 0.0405
v -0.04374604 -0.1092534 0.0403998345
v -0.04523014 -0.107651718 0.0403998345
v -0.0441789 -0.10878624 0.0369582623
v -0.0447972752 -0.108118877 0.0369582623
v -0.04298699 -0.110072583 0.04007873
v -0.0459891856 -0.106832534 0.04007873
v -0.0438626334 -0.109127566 0.0368244722
v -0.04511355 -0.107777551 0.0368244722
v -0.0422565565 -0.110860884 0.0395219736
v -0.0467196219 -0.106044233 0.0395219736
v -0.0435582846 -0.109456025 0.0365924872
v -0.0454178974 -0.107449085 0.0365924872
v -0.04160449 -0.111564606 0.03874264
v -0.0473716855 -0.105340511 0.03874264
v -0.04328659 -0.10974925 0.0362677649
v -0.04568959 -0.107155867 0.0362677649
v -0.0410748 -0.11213626 0.0377832577
v -0.0479013771 -0.10476885 0.0377832577
v -0.0430658832 -0.109987438 0.0358680263
v -0.04591029 -0.106917679 0.0358680263
v -0.04069639 -0.112544656 0.0367085673
v -0.04827979 -0.104360461 0.0367085673
v -0.042908214 -0.1101576 0.0354202352
v -0.0460679643 -0.106747515 0.0354202352
v -0.0404781476 -0.112780191 0.0355917774
v -0.04849803 -0.104124926 0.0355917774
v -0.04281728 -0.110255741 0.03495491
v -0.0461589 -0.106649376 0.03495491
v -0.0404100642 -0.112853661 0.0345
v -0.04278891 -0.110286355 0.0345
v -0.04856611 -0.104051456 0.0345
v -0.0461872667 -0.106618762 0.0345
v -0.0461589 -0.106649376 0.0340450928
v -0.04849803 -0.104124926 0.03340822
v -0.0460679643 -0.106747515 0.033579763
v -0.04827979 -0.104360461 0.03229143
v -0.04591029 -0.106917679 0.0331319757
v -0.0479013771 -0.10476885 0.03121674
v -0.04568959 -0.107155867 0.0327322334
v -0.0473716855 -0.105340511 0.03025736
v -0.0454178974 -0.107449085 0.03240751
v -0.0467196219 -0.106044233 0.0294780284
v -0.04511355 -0.107777551 0.03217553
v -0.0459891856 -0.106832534 0.0289212689
v -0.0447972752 -0.108118877 0.0320417359
v -0.04523014 -0.107651718 0.0286001675
v -0.0444880873 -0.108452559 0.0284999982
v -0.0444880873 -0.108452559 0.0319999978
v -0.04374604 -0.1092534 0.0286001675
v -0.0441789 -0.10878624 0.0320417359
v -0.04298699 -0.110072583 0.0289212689
v -0.0438626334 -0.109127566 0.03217553
v -0.0422565565 -0.110860884 0.0294780284
v -0.0435582846 -0.109456025 0.03240751
v -0.0416044928 -0.111564606 0.03025736
v -0.04328659 -0.10974925 0.0327322334
v -0.0410748 -0.11213626 0.03121674
v -0.0430658869 -0.109987438 0.0331319757
v -0.04069639 -0.112544656 0.03229143
v -0.042908214 -0.1101576 0.033579763
v -0.0404781476 -0.112780191 0.03340822
v -0.04281728 -0.110255741 0.0340450928
v -0.04260946 -0.103859164 0.0358680263
v -0.04118726 -0.105394043 0.0345
v -0.0427671336 -0.103689 0.0354202352
v -0.04238876 -0.104097351 0.0362677649
v -0.04285807 -0.103590861 0.03495491
v -0.0421170667 -0.104390569 0.0365924872
v -0.042886436 -0.103560247 0.0345
v -0.0418127179 -0.104719028 0.0368244722
v -0.04285807 -0.103590861 0.0340450928
v -0.04149645 -0.105060361 0.0369582623
v -0.0427671336 -0.103689 0.033579763
v -0.04118726 -0.105394043 0.037
v -0.04260946 -0.103859164 0.0331319757
v -0.0408780724 -0.105727725 0.0369582623
v -0.04238876 -0.104097351 0.0327322334
v -0.0405618027 -0.106069051 0.0368244722
v -0.0421170667 -0.104390569 0.03240751
v -0.0402574539 -0.10639751 0.0365924872
v -0.0418127179 -0.104719028 0.03217553
v -0.03998576 -0.106690727 0.0362677649
v -0.04149645 -0.105060361 0.0320417359
v -0.0397650562 -0.106928915 0.0358680263
v -0.04118726 -0.105394043 0.0319999978
v -0.0396073833 -0.107099079 0.0354202352
v -0.0408780724 -0.105727725 0.0320417359
v -0.03951645 -0.107197218 0.03495491
v -0.0405618027 -0.106069051 0.03217553
v -0.0394880846 -0.107227832 0.0345
v -0.0402574539 -0.10639751 0.03240751
v -0.03951645 -0.107197218 0.0340450928
v -0.03998576 -0.106690727 0.0327322334
v -0.0396073833 -0.107099079 0.033579763
v -0.0397650562 -0.106928915 0.0331319757
v -0.0535455272 -0.1400211 0.0285
v -0.046760492 -0.133734137 0.0345
v -0.0535455272 -0.1400211 0.0405
v -0.0399754569 -0.127447188 0.0285
v -0.0399754569 -0.127447188 0.0405
f 1 2 3
f 1 3 4
f 5 1 4
f 4 3 6
f 7 5 4
f 8 4 6
f 7 4 8
f 8 6 9
f 10 7 8
f 11 8 9
f 10 8 11
f 11 9 12
f 13 10 11
f 14 11 12
f 13 11 14
f 14 12 15
f 16 13 14
f 17 14 15
f 16 14 17
f 17 15 18
f 19 16 17
f 20 17 18
f 19 17 20
f 20 18 21
f 22 20 21
f 23 19 20
f 23 20 22
f 22 21 24
f 25 23 22
f 26 22 24
f 27 25 22
f 28 22 26
f 27 22 28
f 29 28 26
f 30 27 28
f 31 28 29
f 31 30 28
f 32 31 29
f 31 32 30
f 32 29 33
f 32 34 30
f 35 32 33
f 32 35 34
f 35 33 36
f 35 37 34
f 38 35 36
f 35 38 37
f 38 36 39
f 38 40 37
f 41 38 39
f 38 41 40
f 41 39 42
f 41 43 40
f 44 41 42
f 41 44 43
f 44 42 45
f 44 46 43
f 47 44 45
f 44 47 46
f 47 45 48
f 46 47 49
f 47 48 49
f 48 50 49
f 50 51 49
f 49 51 52
f 50 53 51
f 51 54 52
f 53 55 51
f 51 55 54
f 53 56 55
f 55 57 54
f 56 58 55
f 55 58 57
f 56 59 58
f 58 60 57
f 59 61 58
f 58 61 60
f 59 62 61
f 61 63 60
f 62 64 61
f 61 64 63
f 62 65 64
f 64 66 63
f 65 67 64
f 64 67 66
f 65 68 67
f 68 69 67
f 67 70 66
f 67 69 70
f 68 71 69
f 69 72 70
f 71 73 69
f 69 74 72
f 73 75 69
f 69 75 74
f 73 76 75
f 75 77 74
f 76 78 75
f 75 78 77
f 76 79 78
f 79 77 78
f 80 79 76
f 79 81 77
f 82 79 80
f 79 82 81
f 83 82 80
f 82 84 81
f 85 82 83
f 82 85 84
f 86 85 83
f 85 87 84
f 88 85 86
f 85 88 87
f 89 88 86
f 88 90 87
f 91 88 89
f 88 91 90
f 92 91 89
f 91 93 90
f 94 91 92
f 91 94 93
f 95 94 92
f 94 96 93
f 94 95 96
f 97 98 99
f 97 99 100
f 101 97 100
f 100 99 102
f 103 101 100
f 104 100 102
f 103 100 104
f 104 102 105
f 106 103 104
f 107 104 105
f 106 104 107
f 107 105 108
f 109 106 107
f 110 107 108
f 109 107 110
f 110 108 111
f 112 109 110
f 113 110 111
f 112 110 113
f 113 111 114
f 115 112 113
f 116 113 114
f 115 113 116
f 116 114 117
f 118 116 117
f 119 115 116
f 119 116 118
f 118 117 120
f 121 119 118
f 122 118 120
f 123 121 118
f 124 118 122
f 123 118 124
f 125 124 122
f 126 123 124
f 127 124 125
f 127 126 124
f 128 127 125
f 127 128 126
f 128 125 129
f 128 130 126
f 131 128 129
f 128 131 130
f 131 129 132
f 131 133 130
f 134 131 132
f 131 134 133
f 134 132 135
f 134 136 133
f 137 134 135
f 134 137 136
f 137 135 138
f 137 139 136
f 140 137 138
f 137 140 139
f 140 138 141
f 140 142 139
f 143 140 141
f 140 143 142
f 143 141 144
f 142 143 145
f 143 144 145
f 144 146 145
f 146 147 145
f 145 147 148
f 146 149 147
f 147 150 148
f 149 151 147
f 147 151 150
f 149 152 151
f 151 153 150
f 152 154 151
f 151 154 153
f 152 155 154
f 154 156 153
f 155 157 154
f 154 157 156
f 155 158 157
f 157 159 156
f 158 160 157
f 157 160 159
f 158 161 160
f 160 162 159
f 161 163 160
f 160 163 162
f 161 164 163
f 164 165 163
f 163 166 162
f 163 165 166
f 164 167 165
f 165 168 166
f 167 169 165
f 165 170 168
f 169 171 165
f 165 171 170
f 169 172 171
f 171 173 170
f 172 174 171
f 171 174 173
f 172 175 174
f 175 173 174
f 176 175 172
f 175 177 173
f 178 175 176
f 175 178 177
f 179 178 176
f 178 180 177
f 181 178 179
f 178 181 180
f 182 181 179
f 181 183 180
f 184 181 182
f 181 184 183
f 185 184 182
f 184 186 183
f 187 184 185
f 184 187 186
f 188 187 185
f 187 189 186
f 190 187 188
f 187 190 189
f 191 190 188
f 190 192 189
f 190 191 192
f 193 194 195
f 193 195 196
f 197 193 196
f 196 195 198
f 199 197 196
f 200 196 198
f 199 196 200
f 200 198 201
f 202 199 200
f 203 200 201
f 202 200 203
f 203 201 204
f 205 202 203
f 206 203 204
f 205 203 206
f 206 204 207
f 208 205 206
f 209 206 207
f 208 206 209
f 209 207 210
f 211 208 209
f 212 209 210
f 211 209 212
f 212 210 213
f 214 212 213
f 215 211 212
f 215 212 214
f 214 213 216
f 217 215 214
f 218 214 216
f 219 217 214
f 220 214 218
f 219 214 220
f 221 220 218
f 222 219 220
f 223 220 221
f 223 222 220
f 224 223 221
f 223 224 222
f 224 221 225
f 224 226 222
f 227 224 225
f 224 227 226
f 227 225 228
f 227 229 226
f 230 227 228
f 227 230 229
f 230 228 231
f 230 232 229
f 233 230 231
f 230 233 232
f 233 231 234
f 233 235 232
f 236 233 234
f 233 236 235
f 236 234 237
f 236 238 235
f 239 236 237
f 236 239 238
f 239 237 240
f 238 239 241
f 239 240 241
f 240 242 241
f 242 243 241
f 241 243 244
f 242 245 243
f 243 246 244
f 245 247 243
f 243 247 246
f 245 248 247
f 247 249 246
f 248 250 247
f 247 250 249
f 248 251 250
f 250 252 249
f 251 253 250
f 250 253 252
f 251 254 253
f 253 255 252
f 254 256 253
f 253 256 255
f 254 257 256
f 256 258 255
f 257 259 256
f 256 259 258
f 257 260 259
f 260 261 259
f 259 262 258
f 259 261 262
f 260 263 261
f 261 264 262
f 263 265 261
f 261 266 264
f 265 267 261
f 261 267 266
f 265 268 267
f 267 269 266
f 268 270 267
f 267 270 269
f 268 271 270
f 271 269 270
f 272 271 268
f 271 273 269
f 274 271 272
f 271 274 273
f 275 274 272
f 274 276 273
f 277 274 275
f 274 277 276
f 278 277 275
f 277 279 276
f 280 277 278
f 277 280 279
f 281 280 278
f 280 282 279
f 283 280 281
f 280 283 282
f 284 283 281
f 283 285 282
f 286 283 284
f 283 286 285
f 287 286 284
f 286 288 285
f 286 287 288
f 289 290 291
f 289 291 292
f 293 289 292
f 292 291 294
f 295 293 292
f 296 292 294
f 295 292 296
f 296 294 297
f 298 295 296
f 299 296 297
f 298 296 299
f 299 297 300
f 301 298 299
f 302 299 300
f 301 299 302
f 302 300 303
f 304 301 302
f 305 302 303
f 304 302 305
f 305 303 306
f 307 304 305
f 308 305 306
f 307 305 308
f 308 306 309
f 310 308 309
f 311 307 308
f 311 308 310
f 310 309 312
f 313 311 310
f 314 310 312
f 315 313 310
f 316 310 314
f 315 310 316
f 317 316 314
f 318 315 316
f 319 316 317
f 319 318 316
f 320 319 317
f 319 320 318
f 320 317 321
f 320 322 318
f 323 320 321
f 320 323 322
f 323 321 324
f 323 325 322
f 326 323 324
f 323 326 325
f 326 324 327
f 326 328 325
f 329 326 327
f 326 329 328
f 329 327 330
f 329 331 328
f 332 329 330
f 329 332 331
f 332 330 333
f 332 334 331
f 335 332 333
f 332 335 334
f 335 333 336
f 334 335 337
f 335 336 337
f 336 338 337
f 338 339 337
f 337 339 340
f 338 341 339
f 339 342 340
f 341 343 339
f 339 343 342
f 341 344 343
f 343 345 342
f 344 346 343
f 343 346 345
f 344 347 346
f 346 348 345
f 347 349 346
f 346 349 348
f 347 350 349
f 349 351 348
f 350 352 349
f 349 352 351
f 350 353 352
f 352 354 351
f 353 355 352
f 352 355 354
f 353 356 355
f 356 357 355
f 355 358 354
f 355 357 358
f 356 359 357
f 357 360 358
f 359 361 357
f 357 362 360
f 361 363 357
f 357 363 362
f 361 364 363
f 363 365 362
f 364 366 363
f 363 366 365
f 364 367 366
f 367 365 366
f 368 367 364
f 367 369 365
f 370 367 368
f 367 370 369
f 371 370 368
f 370 372 369
f 373 370 371
f 370 373 372
f 374 373 371
f 373 375 372
f 376 373 374
f 373 376 375
f 377 376 374
f 376 378 375
f 379 376 377
f 376 379 378
f 380 379 377
f 379 381 378
f 382 379 380
f 379 382 381
f 383 382 380
f 382 384 381
f 382 383 384
f 385 386 387
f 386 388 387
f 386 389 388
f 389 390 388
f 391 389 386
f 392 391 386
f 391 392 393
f 391 393 394
f 389 391 394
f 389 394 395
f 396 389 395
f 395 394 397
f 398 395 397
f 399 400 401
f 400 402 401
f 402 403 401
f 402 404 403
f 403 405 401
f 405 406 401
f 405 407 406
f 407 405 408
f 405 403 408
f 403 409 408
f 409 403 410
f 409 411 408
f 409 412 411
f 413 414 415
f 416 413 415
f 413 416 417
f 413 417 418
f 419 413 418
f 413 419 420
f 413 421 414
f 413 420 422
f 413 423 421
f 423 424 421
f 423 425 424
f 426 413 422
f 426 422 427
f 426 427 428
f 425 423 429
f 430 426 428
f 423 431 429
f 426 430 432
f 423 433 431
f 426 432 434
f 433 423 435
f 423 436 435
f 423 437 436
f 423 438 437
f 438 439 437
f 438 440 439
f 441 426 434
f 426 441 442
f 426 442 443
f 438 426 443
f 440 438 444
f 438 443 445
f 438 446 444
f 438 445 447
f 438 448 446
f 448 438 447
f 449 450 451
f 449 451 452
f 450 449 453
f 453 449 452
f 454 455 456
f 457 454 456
f 454 457 458
f 454 458 459
f 460 454 459
f 454 460 461
f 454 462 455
f 454 461 463
f 454 464 462
f 464 465 462
f 464 466 465
f 467 454 463
f 467 463 468
f 467 468 469
f 466 464 470
f 471 467 469
f 464 472 470
f 467 471 473
f 464 474 472
f 467 473 475
f 474 464 476
f 464 477 476
f 464 478 477
f 464 479 478
f 479 480 478
f 479 481 480
f 482 467 475
f 467 482 483
f 467 483 484
f 479 467 484
f 481 479 485
f 479 484 486
f 479 487 485
f 479 486 488
f 479 489 487
f 489 479 488
f 490 491 492
f 490 492 493
f 491 490 494
f 494 490 493
f 495 496 497
f 496 495 498
f 496 499 497
f 496 498 500
f 499 496 500
f 501 502 503
f 504 501 503
f 501 504 505
f 501 505 506
f 507 501 506
f 501 507 508
f 501 509 502
f 501 508 510
f 501 511 509
f 511 512 509
f 511 513 512
f 514 501 510
f 514 510 515
f 514 515 516
f 513 511 517
f 518 514 516
f 511 519 517
f 514 518 520
f 511 521 519
f 514 520 522
f 521 511 523
f 511 524 523
f 511 525 524
f 511 526 525
f 526 527 525
f 526 528 527
f 529 514 522
f 514 529 530
f 514 530 531
f 526 514 531
f 528 526 532
f 526 531 533
f 526 534 532
f 526 533 535
f 526 536 534
f 536 526 535
f 537 538 539
f 537 539 540
f 538 537 541
f 541 537 540
f 542 543 544
f 545 542 544
f 542 545 546
f 542 546 547
f 548 542 547
f 542 548 549
f 542 550 543
f 542 549 551
f 542 552 550
f 552 553 550
f 552 554 553
f 555 542 551
f 555 551 556
f 555 556 557
f 554 552 558
f 559 555 557
f 552 560 558
f 555 559 561
f 552 562 560
f 555 561 563
f 562 552 564
f 552 565 564
f 552 566 565
f 552 567 566
f 567 568 566
f 567 569 568
f 570 555 563
f 555 570 571
f 555 571 572
f 567 555 572
f 569 567 573
f 567 572 574
f 567 575 573
f 567 574 576
f 567 577 575
f 577 567 576
f 578 579 580
f 578 580 581
f 579 578 582
f 582 578 581
f 583 584 585
f 583 585 586
f 584 583 587
f 587 583 586
f 588 589 590
f 589 588 591
f 589 592 590
f 589 591 593
f 594 589 593
f 589 594 595
f 589 595 596
f 597 589 596
f 592 598 599
f 598 600 599
f 598 601 600
f 601 598 602
f 598 603 602
f 598 604 603
f 604 598 605
f 598 606 605
f 607 608 597
f 608 607 609
f 608 609 610
f 611 608 610
f 608 611 612
f 608 612 613
f 614 608 613
f 608 614 615
f 606 615 616
f 614 613 617
f 615 618 616
f 619 614 617
f 614 619 620
f 614 620 621
f 615 614 621
f 615 622 618
f 615 621 623
f 622 615 624
f 615 623 624
f 625 626 627
f 625 628 626
f 629 625 627
f 625 630 628
f 629 627 631
f 630 632 628
f 633 629 631
f 630 634 632
f 633 631 635
f 634 636 632
f 637 633 635
f 634 638 636
f 637 635 639
f 638 640 636
f 641 637 639
f 638 642 640
f 641 639 643
f 642 644 640
f 645 641 643
f 642 646 644
f 645 643 647
f 646 648 644
f 649 645 647
f 646 650 648
f 649 647 651
f 650 652 648
f 653 649 651
f 650 654 652
f 653 651 655
f 656 653 655
f 654 657 652
f 657 654 658
f 657 658 659
f 660 657 659
f 659 661 660
f 661 662 660
f 661 663 662
f 663 664 662
f 663 665 664
f 665 666 664
f 665 667 666
f 667 668 666
f 667 669 668
f 669 670 668
f 669 671 670
f 671 672 670
f 671 673 672
f 671 674 673
f 674 675 673
f 674 676 675
f 676 677 675
f 676 678 677
f 678 679 677
f 678 680 679
f 680 681 679
f 680 682 681
f 682 683 681
f 682 684 683
f 684 685 683
f 684 686 685
f 686 687 685
f 686 688 687
f 688 656 687
f 656 655 687
f 689 690 691
f 690 689 692
f 690 693 691
f 690 692 694
f 693 690 695
f 696 690 694
f 690 697 695
f 690 696 698
f 690 699 697
f 690 698 700
f 699 690 701
f 702 690 700
f 690 703 701
f 690 702 704
f 690 705 703
f 690 704 706
f 705 690 707
f 708 690 706
f 690 709 707
f 690 708 710
f 690 711 709
f 690 710 712
f 711 690 713
f 714 690 712
f 690 715 713
f 690 714 716
f 690 717 715
f 690 716 718
f 717 690 719
f 720 690 718
f 690 721 719
f 690 720 721
f 722 723 724
f 725 723 722
f 723 726 724
f 723 725 726
