# ROS coordinates: X forward, Y left, Z up; units are metres.
o mesh
v -0.0999350548 -0.07629205 0.04817919
v -0.10086038 -0.0746194348 0.04871406
v -0.0986225158 -0.0755659342 0.04817919
v -0.1003438 -0.0740038753 0.0487646945
v -0.09954785 -0.0738933161 0.04871406
v -0.101866841 -0.07280017 0.0489132069
v -0.1005543 -0.07207405 0.0489132069
v -0.101507165 -0.07190098 0.04889967
v -0.102910161 -0.07091425 0.0487194322
v -0.101597629 -0.0701881349 0.0487194322
v -0.102698892 -0.06974681 0.0485091247
v -0.103935435 -0.06906098 0.0481107421
v -0.1026229 -0.06833486 0.0481107421
v -0.103279166 -0.06869792 0.0481107421
v -0.103834778 -0.06769359 0.04758329
v -0.104885668 -0.06734333 0.04710923
v -0.103573136 -0.0666172057 0.04710923
v -0.104834527 -0.0658864453 0.046187602
v -0.105711952 -0.06584974 0.0457791239
v -0.10439942 -0.06512362 0.0457791239
v -0.105639838 -0.06443076 0.044447992
v -0.106381431 -0.0646396 0.0442139581
v -0.106224388 -0.06337413 0.04251796
v -0.105068892 -0.06391348 0.0442139581
v -0.106880657 -0.0637372 0.04251796
v -0.105568126 -0.06301107 0.04251796
v -0.107231267 -0.06310344 0.04066989
v -0.105918735 -0.06237731 0.04066989
v -0.106613427 -0.06267092 0.04038787
v -0.107428342 -0.0627472 0.0386213176
v -0.1061158 -0.06202108 0.0386213176
v -0.106772073 -0.06238414 0.0386213176
v -0.106794149 -0.0623442419 0.03676965
v -0.107439876 -0.0627263561 0.0364574827
v -0.106127337 -0.0620002337 0.0364574827
v -0.106668517 -0.0625713244 0.0349020734
v -0.107249759 -0.06307 0.034289062
v -0.105937228 -0.06234388 0.034289062
v -0.106395304 -0.0630651861 0.0330940858
v -0.10686291 -0.063769266 0.03223536
v -0.105550379 -0.06304315 0.03223536
v -0.105986431 -0.06380427 0.0314177647
v -0.106305346 -0.0647771358 0.0304034036
v -0.104992807 -0.06405101 0.0304034036
v -0.105464 -0.064748615 0.0299324263
v -0.105618805 -0.06601813 0.0288701169
v -0.104306266 -0.065292 0.0288701169
v -0.104856759 -0.06584626 0.0286781732
v -0.10485214 -0.06740394 0.0276735853
v -0.1035396 -0.06667782 0.0276735853
v -0.1035396 -0.06667782 0.0276735853
v -0.103707 -0.06792457 0.0271083415
v -0.102536835 -0.06849042 0.0266474634
v -0.103849366 -0.06921655 0.0266474634
v -0.10485214 -0.06740394 0.0276735853
v -0.1035396 -0.06667782 0.0276735853
v -0.102868386 -0.07098977 0.0260915086
v -0.102536835 -0.06849042 0.0266474634
v -0.102063283 -0.07089575 0.0260410346
v -0.101555854 -0.07026365 0.0260915086
v -0.101451218 -0.0720021054 0.0259219278
v -0.10179361 -0.07293253 0.025915131
v -0.100481078 -0.07220641 0.025915131
v -0.100820079 -0.07314295 0.0259454586
v -0.100678533 -0.07494814 0.026189955
v -0.099366 -0.07422202 0.026189955
v -0.10018155 -0.07429716 0.0261214823
v -0.09954861 -0.0754412562 0.026454296
v -0.09959101 -0.0769139454 0.0269418489
v -0.09827848 -0.07618783 0.0269418489
v -0.09893474 -0.076550886 0.0269418489
v -0.09835299 -0.07760246 0.0275755525
v -0.09860115 -0.0787032247 0.0281381328
v -0.09728861 -0.077977106 0.0281381328
v -0.097815074 -0.07857479 0.0283407643
v -0.0973306149 -0.0794504955 0.0292178821
v -0.0977669954 -0.08021103 0.0296912976
v -0.09645446 -0.07948491 0.0296912976
v -0.0969065949 -0.08021696 0.0301838871
v -0.0971238 -0.08137368 0.0314787924
v -0.09581126 -0.08064755 0.0314787924
v -0.09654711 -0.08086677 0.03121411
v -0.096024394 -0.08181162 0.0333702825
v -0.09668066 -0.08217468 0.0333702825
v -0.09536813 -0.08144856 0.0333702825
v -0.09641154 -0.08266115 0.03539677
v -0.095099 -0.08193503 0.03539677
v -0.09573084 -0.08234226 0.0357042328
v -0.09632616 -0.08281549 0.0376170129
v -0.09501362 -0.08208937 0.0376170129
v -0.09566989 -0.08245243 0.0376170129
v -0.09576978 -0.08227187 0.03959146
v -0.096459195 -0.08257501 0.0399205051
v -0.095146656 -0.08184889 0.0399205051
v -0.09603972 -0.08178393 0.0415396728
v -0.09682317 -0.08191709 0.04216708
v -0.09551063 -0.08119097 0.04216708
v -0.096473664 -0.08099952 0.0433688462
v -0.09740227 -0.08087031 0.0442119166
v -0.0960897356 -0.08014419 0.0442119166
v -0.09705029 -0.07995723 0.0449952856
v -0.09815413 -0.079511255 0.04593508
v -0.09684159 -0.07878514 0.04593508
v -0.09773631 -0.07871717 0.04635677
v -0.0990194157 -0.0779471546 0.047263775
v -0.0977068841 -0.077221036 0.047263775
v -0.09849229 -0.07735066 0.04741965
v -0.0999350548 -0.07629205 0.04817919
v -0.0986225158 -0.0755659342 0.04817919
v -0.09418477 -0.08358759 0.0441462249
v -0.0946222842 -0.08382963 0.0441462249
v -0.09451139 -0.0840300843 0.04408338
v -0.09427581 -0.08393948 0.0440776721
v -0.09407388 -0.0837880448 0.04408338
v -0.0943899 -0.0842497 0.0440634377
v -0.09395239 -0.08400766 0.0440634377
v -0.09413528 -0.08419351 0.04406687
v -0.0942638442 -0.08447755 0.0440945067
v -0.09382633 -0.08423551 0.0440945067
v -0.09399155 -0.0844533145 0.0441243872
v -0.09414091 -0.08469977 0.0441795066
v -0.0937034 -0.08445773 0.0441795066
v -0.09385639 -0.08469763 0.04425114
v -0.09402901 -0.08490204 0.0443147346
v -0.0935915 -0.08466 0.0443147346
v -0.09374081 -0.08490653 0.0444367938
v -0.0939347148 -0.08507249 0.04449031
v -0.0934972 -0.08483045 0.04449031
v -0.09365224 -0.08506663 0.0446624532
v -0.0938620046 -0.0852039158 0.04469238
v -0.09359315 -0.08517344 0.0449061953
v -0.09342449 -0.0849618763 0.04469238
v -0.0938119143 -0.08529446 0.0449061953
v -0.0933744 -0.08505242 0.0449061953
v -0.0937814862 -0.0853494555 0.04513528
v -0.09334397 -0.0851074159 0.04513528
v -0.09355997 -0.08523343 0.0451700352
v -0.09377184 -0.0853669047 0.0453862622
v -0.0933343247 -0.0851248652 0.0453862622
v -0.09355308 -0.085245885 0.0453862622
v -0.09356437 -0.08522547 0.04560946
v -0.09378687 -0.08533972 0.0456466563
v -0.09334937 -0.08509768 0.0456466563
v -0.09359489 -0.08517031 0.04582969
v -0.09382802 -0.0852653459 0.0459006168
v -0.09339051 -0.08502331 0.0459006168
v -0.09364394 -0.08508164 0.04603647
v -0.09389348 -0.0851470158 0.04613177
v -0.09345597 -0.08490497 0.04613177
v -0.0937091261 -0.08496381 0.0462203249
v -0.09397848 -0.08499338 0.0463265628
v -0.09354097 -0.08475134 0.0463265628
v -0.09378667 -0.08482364 0.0463742353
v -0.09407629 -0.08481657 0.0464767665
v -0.09363878 -0.08457453 0.0464767665
v -0.09387213 -0.08466916 0.0464943871
v -0.0941798 -0.08462947 0.0465802476
v -0.09374229 -0.08438743 0.0465802476
v -0.09429069 -0.08442902 0.0466430932
v -0.09408876 -0.0842775851 0.0466488
v -0.0938531756 -0.08418698 0.0466430932
v -0.09441219 -0.0842094049 0.04666303
v -0.09397468 -0.08396736 0.04666303
v -0.0942292958 -0.08402355 0.0466596037
v -0.09453824 -0.08398155 0.0466319658
v -0.09410073 -0.08373951 0.0466319658
v -0.094373025 -0.08376375 0.04660208
v -0.0946611762 -0.08375933 0.0465469658
v -0.09422366 -0.08351729 0.0465469658
v -0.094508186 -0.08351944 0.0464753322
v -0.09477308 -0.08355706 0.0464117341
v -0.09433556 -0.08331502 0.0464117341
v -0.09462376 -0.08331053 0.04628968
v -0.09486737 -0.0833866149 0.04623616
v -0.09442986 -0.0831445754 0.04623616
v -0.09471233 -0.0831504241 0.0460640155
v -0.09494008 -0.08325519 0.0460340939
v -0.094771415 -0.08304362 0.0458202735
v -0.09450257 -0.08301315 0.0460340939
v -0.09499017 -0.08316464 0.0458202735
v -0.09455266 -0.0829226 0.0458202735
v -0.09502059 -0.08310965 0.0455911942
v -0.09458309 -0.08286761 0.0455911942
v -0.0948046 -0.0829836354 0.0455564372
v -0.09503025 -0.0830922 0.04534021
v -0.0945927352 -0.08285016 0.04534021
v -0.09481149 -0.08297118 0.04534021
v -0.0948002 -0.08299159 0.04511701
v -0.09501521 -0.0831193849 0.0450798161
v -0.0945777 -0.0828773454 0.0450798161
v -0.09476969 -0.08304675 0.0448967777
v -0.09497406 -0.08319376 0.0448258556
v -0.09453655 -0.08295172 0.0448258556
v -0.09472063 -0.08313542 0.0446900055
v -0.0949086 -0.08331209 0.0445947
v -0.09447109 -0.08307005 0.0445947
v -0.09465545 -0.08325324 0.0445061438
v -0.09482361 -0.0834657252 0.0443999059
v -0.09438609 -0.0832236856 0.0443999059
v -0.09457789 -0.0833934247 0.0443522371
v -0.0947257951 -0.0836425349 0.044249706
v -0.09428828 -0.0834004954 0.044249706
v -0.0944924355 -0.0835479 0.0442320853
v -0.0946222842 -0.08382963 0.0441462249
v -0.09418477 -0.08358759 0.0441462249
v -0.100982442 -0.0713001341 0.049419757
v -0.101419955 -0.07154217 0.049419757
v -0.101309061 -0.071742624 0.04935691
v -0.101073481 -0.07165202 0.0493512042
v -0.100871548 -0.0715005845 0.04935691
v -0.101187564 -0.0719622448 0.0493369736
v -0.100750051 -0.0717202052 0.0493369736
v -0.100932941 -0.07190605 0.0493404
v -0.101061516 -0.07219009 0.04936804
v -0.100624 -0.07194805 0.04936804
v -0.100789219 -0.07216586 0.04939792
v -0.100938573 -0.07241231 0.04945304
v -0.100501068 -0.07217027 0.04945304
v -0.100654058 -0.0724101663 0.0495246723
v -0.100826681 -0.07261458 0.0495882668
v -0.100389168 -0.07237254 0.0495882668
v -0.100538485 -0.07261908 0.0497103259
v -0.100732386 -0.07278503 0.0497638434
v -0.100294873 -0.07254299 0.0497638434
v -0.100449912 -0.07277918 0.04993599
v -0.100659676 -0.0729164556 0.04996591
v -0.100390822 -0.07288599 0.05017973
v -0.100222163 -0.072674416 0.04996591
v -0.100609578 -0.07300701 0.05017973
v -0.100172073 -0.07276497 0.05017973
v -0.100579157 -0.073062 0.05040881
v -0.100141644 -0.07281996 0.05040881
v -0.100357637 -0.0729459748 0.0504435673
v -0.100569509 -0.0730794445 0.0506597944
v -0.100131996 -0.0728374049 0.0506597944
v -0.100350752 -0.0729584247 0.0506597944
v -0.10036204 -0.07293802 0.05088299
v -0.100584544 -0.0730522648 0.05092019
v -0.100147031 -0.0728102252 0.05092019
v -0.100392558 -0.07288285 0.0511032231
v -0.100625694 -0.0729778856 0.05117415
v -0.100188181 -0.072735846 0.05117415
v -0.100441612 -0.0727941841 0.05131
v -0.100691155 -0.0728595555 0.0514053032
v -0.100253642 -0.0726175159 0.0514053032
v -0.1005068 -0.07267636 0.05149386
v -0.100776151 -0.0727059245 0.0516000949
v -0.100338638 -0.0724638849 0.0516000949
v -0.100584343 -0.0725361854 0.0516477674
v -0.100873962 -0.07252911 0.0517503
v -0.100436449 -0.07228707 0.0517503
v -0.1006698 -0.072381705 0.0517679155
v -0.100977466 -0.0723420158 0.05185378
v -0.100539953 -0.0720999762 0.05185378
v -0.10108836 -0.0721415654 0.0519166254
v -0.100886434 -0.07199013 0.0519223325
v -0.100650847 -0.0718995258 0.0519166254
v -0.101209857 -0.0719219446 0.0519365631
v -0.100772351 -0.0716799051 0.0519365631
v -0.101026967 -0.0717361 0.0519331358
v -0.101335913 -0.07169409 0.0519054942
v -0.1008984 -0.07145205 0.0519054942
v -0.1011707 -0.0714762956 0.0518756174
v -0.101458848 -0.07147187 0.0518205
v -0.101021335 -0.07122983 0.0518205
v -0.101305857 -0.07123198 0.0517488644
v -0.10157074 -0.07126961 0.05168527
v -0.101133235 -0.07102757 0.05168527
v -0.101421431 -0.07102307 0.05156321
v -0.101665042 -0.07109916 0.0515096933
v -0.101227529 -0.07085712 0.0515096933
v -0.10151 -0.07086297 0.05133755
v -0.101737753 -0.0709677339 0.05130763
v -0.101569086 -0.07075616 0.05109381
v -0.10130024 -0.0707256943 0.05130763
v -0.101787843 -0.07087718 0.05109381
v -0.10135033 -0.07063514 0.05109381
v -0.101818264 -0.0708221942 0.0508647263
v -0.101380751 -0.0705801547 0.0508647263
v -0.101602271 -0.0706961751 0.05082997
v -0.101827919 -0.070804745 0.0506137423
v -0.101390406 -0.0705627054 0.0506137423
v -0.101609163 -0.0706837252 0.0506137423
v -0.101597868 -0.07070413 0.0503905453
v -0.101812877 -0.0708319247 0.05035335
v -0.101375371 -0.0705898851 0.05035335
v -0.101567358 -0.07075929 0.05017031
v -0.101771735 -0.0709063 0.0500993878
v -0.101334222 -0.07066426 0.0500993878
v -0.1015183 -0.0708479658 0.0499635339
v -0.101706266 -0.0710246339 0.04986823
v -0.101268761 -0.0707825944 0.04986823
v -0.101453118 -0.07096579 0.0497796759
v -0.101621278 -0.0711782649 0.04967344
v -0.101183765 -0.0709362254 0.04967344
v -0.101375565 -0.07110597 0.04962577
v -0.101523459 -0.0713550746 0.0495232381
v -0.101085946 -0.0711130351 0.0495232381
v -0.101290107 -0.0712604448 0.0495056175
v -0.101419955 -0.07154217 0.049419757
v -0.100982442 -0.0713001341 0.049419757
v -0.0963072 -0.0797511 0.0538042076
v -0.0967447162 -0.0799931362 0.0538042076
v -0.09663382 -0.08019359 0.05374136
v -0.09639824 -0.08010298 0.0537356548
v -0.09619631 -0.07995155 0.05374136
v -0.0965123251 -0.0804132 0.0537214242
v -0.09607481 -0.08017116 0.0537214242
v -0.0962577 -0.08035701 0.05372485
v -0.09638627 -0.08064105 0.0537524857
v -0.0959487557 -0.0803990141 0.0537524857
v -0.09611397 -0.08061682 0.0537823737
v -0.0962633342 -0.0808632746 0.0538374856
v -0.09582582 -0.0806212351 0.0538374856
v -0.09597881 -0.08086113 0.0539091229
v -0.0961514339 -0.08106554 0.0539727174
v -0.09571393 -0.0808235 0.0539727174
v -0.09586324 -0.0810700357 0.0540947765
v -0.09605714 -0.08123599 0.054148294
v -0.09561963 -0.08099395 0.054148294
v -0.09577467 -0.0812301338 0.054320436
v -0.09598443 -0.08136742 0.0543503575
v -0.09571558 -0.0813369453 0.054564178
v -0.0955469161 -0.08112538 0.0543503575
v -0.09593434 -0.08145797 0.054564178
v -0.0954968259 -0.08121593 0.054564178
v -0.09590392 -0.08151296 0.0547932573
v -0.0954664052 -0.08127092 0.0547932573
v -0.0956824 -0.08139693 0.0548280142
v -0.09589426 -0.08153041 0.05504424
v -0.09545675 -0.08128837 0.05504424
v -0.0956755057 -0.08140939 0.05504424
v -0.0956868 -0.08138898 0.055267442
v -0.0959093049 -0.08150322 0.05530464
v -0.09547179 -0.08126118 0.05530464
v -0.09571731 -0.0813338161 0.0554876775
v -0.09595045 -0.08142885 0.0555586033
v -0.095512934 -0.08118681 0.0555586033
v -0.0957663655 -0.08124515 0.0556944534
v -0.09601591 -0.08131052 0.05578975
v -0.0955784 -0.08106848 0.05578975
v -0.09583155 -0.0811273158 0.05587831
v -0.096100904 -0.08115689 0.0559845455
v -0.09566339 -0.08091485 0.0559845455
v -0.0959091038 -0.08098714 0.0560322143
v -0.09619872 -0.08098008 0.05613475
v -0.09576121 -0.08073804 0.05613475
v -0.09599456 -0.08083266 0.0561523661
v -0.0963022262 -0.08079298 0.05623823
v -0.09586471 -0.08055094 0.05623823
v -0.09641312 -0.08059253 0.056301076
v -0.09621119 -0.08044109 0.0563067831
v -0.09597561 -0.08035049 0.056301076
v -0.09653462 -0.08037291 0.0563210137
v -0.0960971043 -0.08013087 0.0563210137
v -0.09635173 -0.08018706 0.0563175865
v -0.0966606662 -0.08014505 0.0562899448
v -0.09622315 -0.079903014 0.0562899448
v -0.09649546 -0.07992725 0.0562600642
v -0.09678361 -0.07992283 0.05620495
v -0.0963460952 -0.07968079 0.05620495
v -0.09663061 -0.07968294 0.056133315
v -0.0968955 -0.0797205642 0.0560697168
v -0.09645799 -0.0794785246 0.0560697168
v -0.0967461839 -0.07947403 0.0559476577
v -0.0969897956 -0.0795501247 0.0558941439
v -0.09655228 -0.0793080851 0.0558941439
v -0.09683476 -0.0793139338 0.055722
v -0.0970625058 -0.07941869 0.05569208
v -0.09689385 -0.07920712 0.0554782562
v -0.09662499 -0.07917665 0.05569208
v -0.0971126 -0.07932814 0.0554782562
v -0.09667509 -0.0790861 0.0554782562
v -0.0971430242 -0.07927315 0.0552491732
v -0.09670551 -0.07903111 0.0552491732
v -0.09692703 -0.07914714 0.0552144237
v -0.09715267 -0.0792557 0.0549981929
v -0.09671516 -0.07901366 0.0549981929
v -0.0969339162 -0.07913469 0.0549981929
v -0.09692263 -0.0791550949 0.0547749959
v -0.09713764 -0.07928289 0.0547378
v -0.0967001244 -0.07904085 0.0547378
v -0.09689211 -0.07921025 0.05455476
v -0.09709649 -0.07935727 0.0544838347
v -0.0966589749 -0.07911523 0.0544838347
v -0.09684306 -0.07929893 0.0543479845
v -0.09703103 -0.0794756 0.05425268
v -0.0965935141 -0.07923356 0.05425268
v -0.09677787 -0.07941675 0.0541641265
v -0.09694604 -0.07962923 0.0540578924
v -0.0965085253 -0.07938719 0.0540578924
v -0.0967003256 -0.07955693 0.0540102236
v -0.09684822 -0.07980604 0.0539076924
v -0.09641071 -0.079564 0.0539076924
v -0.09661487 -0.07971141 0.0538900681
v -0.0967447162 -0.0799931362 0.0538042076
v -0.0963072 -0.0797511 0.0538042076
v -0.108872652 -0.057037808 0.04474045
v -0.110185191 -0.05776393 0.04474045
v -0.109940141 -0.0582068749 0.0470180325
v -0.109254286 -0.0578973033 0.0472260341
v -0.10862761 -0.0574807525 0.0470180325
v -0.109545067 -0.0589210168 0.0492970273
v -0.108232528 -0.0581948943 0.0492970273
v -0.108800337 -0.05871785 0.0497068167
v -0.108995065 -0.0599152 0.0515157059
v -0.107682526 -0.0591890775 0.0515157059
v -0.108162105 -0.0598715246 0.0521016754
v -0.108293205 -0.0611838736 0.0536081
v -0.106980674 -0.06045775 0.0536081
v -0.1073461 -0.06134653 0.05432486
v -0.107451282 -0.06270574 0.0555095635
v -0.106138743 -0.0619796179 0.0555095635
v -0.106712162 -0.0624924377 0.05567089
v -0.106015816 -0.06375116 0.0568829179
v -0.10648942 -0.0644444 0.0571628548
v -0.105176881 -0.0637182742 0.0571628548
v -0.105267391 -0.06510401 0.05794356
v -0.105434611 -0.06635107 0.0585236847
v -0.104122072 -0.06562495 0.0585236847
v -0.1044786 -0.0665298253 0.058840014
v -0.104318194 -0.0683691055 0.05956458
v -0.103005655 -0.06764298 0.05956458
v -0.103661925 -0.06800604 0.05956458
v -0.102830023 -0.06950979 0.0601147339
v -0.103172913 -0.070439294 0.0602764226
v -0.101860382 -0.0697131753 0.0602764226
v -0.101995111 -0.07101898 0.0604928881
v -0.102030046 -0.0725051463 0.0606675632
v -0.100717515 -0.07177903 0.0606675632
v -0.101168469 -0.07251321 0.060705822
v -0.100911655 -0.07452676 0.0607606769
v -0.0995991156 -0.07380064 0.0607606769
v -0.100357242 -0.07397958 0.0607638471
v -0.09953323 -0.07546906 0.0606711432
v -0.09977128 -0.07658809 0.060565047
v -0.0984587446 -0.07586197 0.060565047
v -0.0986943543 -0.0769854039 0.0604174025
v -0.09861282 -0.07868212 0.0600561537
v -0.09730029 -0.07795599 0.0600561537
v -0.09785135 -0.07850923 0.05999368
v -0.09701608 -0.08001906 0.0593950562
v -0.09746621 -0.0807547346 0.05921794
v -0.09615367 -0.0800286159 0.05921794
v -0.09620112 -0.08149217 0.05862133
v -0.09636402 -0.08274705 0.058050815
v -0.09505148 -0.08202093 0.058050815
v -0.09541919 -0.08290559 0.0576774441
v -0.09533879 -0.08460025 0.05657353
v -0.09402626 -0.08387412 0.05657353
v -0.09468253 -0.08423718 0.05657353
v -0.09392467 -0.0856070742 0.0551654026
v -0.09442 -0.08626105 0.0548227243
v -0.09310746 -0.08553493 0.0548227243
v -0.09325078 -0.0868252 0.0536027551
v -0.0936313 -0.08768672 0.0528499819
v -0.09231876 -0.0869606 0.0528499819
v -0.09267071 -0.08787374 0.05191786
v -0.0929885358 -0.08884857 0.0507168956
v -0.091676 -0.08812245 0.0507168956
v -0.0921905339 -0.08874171 0.0501457676
v -0.09249892 -0.0897336 0.0484891273
v -0.09118638 -0.0890074745 0.0484891273
v -0.09181249 -0.08942505 0.04832213
v -0.09153524 -0.08992621 0.0464811362
v -0.09216129 -0.09034389 0.0462305062
v -0.09084876 -0.08961777 0.0462305062
v -0.09135331 -0.09025507 0.0446403325
v -0.09196489 -0.0906989 0.0439541563
v -0.09065236 -0.08997277 0.0439541563
v -0.091259174 -0.09042522 0.042727612
v -0.09190413 -0.09080873 0.04156436
v -0.0905916 -0.0900826 0.04156436
v -0.09129492 -0.09036061 0.03983496
v -0.09199448 -0.090645425 0.0391007736
v -0.09068194 -0.0899193 0.0391007736
v -0.09155416 -0.08989202 0.0368983336
v -0.0922465846 -0.09018972 0.0366246738
v -0.0920442045 -0.0890062 0.03402891
v -0.0909340456 -0.0894636 0.0366246738
v -0.0926631838 -0.0894366652 0.03420409
v -0.09135065 -0.08871055 0.03420409
v -0.09323804 -0.08839757 0.03190816
v -0.0919255 -0.0876714438 0.03190816
v -0.09275496 -0.0877214447 0.0313413367
v -0.09395599 -0.08709979 0.029800836
v -0.0926434547 -0.08637367 0.029800836
v -0.0936590359 -0.08608725 0.0289391559
v -0.0947943255 -0.08558442 0.0279350653
v -0.093481794 -0.0848583 0.0279350653
v -0.09471519 -0.08417814 0.0269019
v -0.09572501 -0.08390212 0.0263485163
v -0.0944124758 -0.083176 0.0263485163
v -0.0958741754 -0.08208315 0.0252769
v -0.09671751 -0.08210809 0.0250615459
v -0.09540497 -0.08138197 0.0250615459
v -0.09774159 -0.08025696 0.0240775682
v -0.09642905 -0.07953084 0.0240775682
v -0.09547179 -0.08126118 0.05530464
v -0.09402626 -0.08387412 0.05657353
v -0.09545675 -0.08128837 0.05504424
v -0.095512934 -0.08118681 0.0555586033
v -0.0954664052 -0.08127092 0.0547932573
v -0.0955784 -0.08106848 0.05578975
v -0.09310746 -0.08553493 0.0548227243
v -0.09505148 -0.08202093 0.058050815
v -0.0954968259 -0.08121593 0.054564178
v -0.0955469161 -0.08112538 0.0543503575
v -0.09561963 -0.08099395 0.054148294
v -0.09566339 -0.08091485 0.0559845455
v -0.09231876 -0.0869606 0.0528499819
v -0.09576121 -0.08073804 0.05613475
v -0.09586471 -0.08055094 0.05623823
v -0.09597561 -0.08035049 0.056301076
v -0.09615367 -0.0800286159 0.05921794
v -0.0960971043 -0.08013087 0.0563210137
v -0.09622315 -0.079903014 0.0562899448
v -0.0963460952 -0.07968079 0.05620495
v -0.09645799 -0.0794785246 0.0560697168
v -0.09730029 -0.07795599 0.0600561537
v -0.09655228 -0.0793080851 0.0558941439
v -0.09662499 -0.07917665 0.05569208
v -0.0984587446 -0.07586197 0.060565047
v -0.09667509 -0.0790861 0.0554782562
v -0.09670551 -0.07903111 0.0552491732
v -0.100436449 -0.07228707 0.0517503
v -0.0995991156 -0.07380064 0.0607606769
v -0.09671516 -0.07901366 0.0549981929
v -0.100539953 -0.0720999762 0.05185378
v -0.100338638 -0.0724638849 0.0516000949
v -0.0967001244 -0.07904085 0.0547378
v -0.100253642 -0.0726175159 0.0514053032
v -0.0966589749 -0.07911523 0.0544838347
v -0.100188181 -0.072735846 0.05117415
v -0.100717515 -0.07177903 0.0606675632
v -0.100650847 -0.0718995258 0.0519166254
v -0.100772351 -0.0716799051 0.0519365631
v -0.101860382 -0.0697131753 0.0602764226
v -0.1008984 -0.07145205 0.0519054942
v -0.0965935141 -0.07923356 0.05425268
v -0.103005655 -0.06764298 0.05956458
v -0.101021335 -0.07122983 0.0518205
v -0.101133235 -0.07102757 0.05168527
v -0.104122072 -0.06562495 0.0585236847
v -0.101227529 -0.07085712 0.0515096933
v -0.10130024 -0.0707256943 0.05130763
v -0.105176881 -0.0637182742 0.0571628548
v -0.100147031 -0.0728102252 0.05092019
v -0.10135033 -0.07063514 0.05109381
v -0.0986225158 -0.0755659342 0.04817919
v -0.0965085253 -0.07938719 0.0540578924
v -0.100131996 -0.0728374049 0.0506597944
v -0.09641071 -0.079564 0.0539076924
v -0.1026229 -0.06833486 0.0481107421
v -0.101380751 -0.0705801547 0.0508647263
v -0.101390406 -0.0705627054 0.0506137423
v -0.106138743 -0.0619796179 0.0555095635
v -0.101375371 -0.0705898851 0.05035335
v -0.101597629 -0.0701881349 0.0487194322
v -0.103573136 -0.0666172057 0.04710923
v -0.106980674 -0.06045775 0.0536081
v -0.107682526 -0.0591890775 0.0515157059
v -0.10439942 -0.06512362 0.0457791239
v -0.108232528 -0.0581948943 0.0492970273
v -0.105068892 -0.06391348 0.0442139581
v -0.10862761 -0.0574807525 0.0470180325
v -0.101334222 -0.07066426 0.0500993878
v -0.105568126 -0.06301107 0.04251796
v -0.108872652 -0.057037808 0.04474045
v -0.108638436 -0.05746118 0.0422207564
v -0.105918735 -0.06237731 0.04066989
v -0.108267605 -0.0581314936 0.03972345
v -0.1061158 -0.06202108 0.0386213176
v -0.1077607 -0.0590477735 0.03729558
v -0.106127337 -0.0620002337 0.0364574827
v -0.107123315 -0.0601999052 0.0349839628
v -0.105937228 -0.06234388 0.034289062
v -0.106366009 -0.06156882 0.0328322724
v -0.105550379 -0.06304315 0.03223536
v -0.105503686 -0.06312755 0.030878339
v -0.104992807 -0.06405101 0.0304034036
v -0.104554705 -0.0648429245 0.02915198
v -0.104306266 -0.065292 0.0288701169
v -0.1035396 -0.06667782 0.0276735853
v -0.10274148 -0.0681205 0.0267274156
v -0.102536835 -0.06849042 0.0266474634
v -0.101901405 -0.06963903 0.02590749
v -0.101555854 -0.07026365 0.0260915086
v -0.101026565 -0.07122038 0.02522492
v -0.100481078 -0.07220641 0.025915131
v -0.100125015 -0.07285002 0.0246884134
v -0.099366 -0.07422202 0.026189955
v -0.09920545 -0.07451222 0.0243039317
v -0.09827848 -0.07618783 0.0269418489
v -0.09827691 -0.07619065 0.0240744762
v -0.09734849 -0.0778688639 0.0240000188
v -0.09728861 -0.077977106 0.0281381328
v -0.09642905 -0.07953084 0.0240775682
v -0.09540497 -0.08138197 0.0250615459
v -0.09645446 -0.07948491 0.0296912976
v -0.0944124758 -0.083176 0.0263485163
v -0.09581126 -0.08064755 0.0314787924
v -0.093481794 -0.0848583 0.0279350653
v -0.0926434547 -0.08637367 0.029800836
v -0.09536813 -0.08144856 0.0333702825
v -0.0919255 -0.0876714438 0.03190816
v -0.095099 -0.08193503 0.03539677
v -0.09135065 -0.08871055 0.03420409
v -0.09501362 -0.08208937 0.0376170129
v -0.0909340456 -0.0894636 0.0366246738
v -0.09387311 -0.08415094 0.0403942429
v -0.09415326 -0.083644554 0.0406115726
v -0.09068194 -0.0899193 0.0391007736
v -0.095146656 -0.08184889 0.0399205051
v -0.0905916 -0.0900826 0.04156436
v -0.09551063 -0.08119097 0.04216708
v -0.09382633 -0.08423551 0.0440945067
v -0.0937034 -0.08445773 0.0441795066
v -0.0935915 -0.08466 0.0443147346
v -0.0934972 -0.08483045 0.04449031
v -0.09342449 -0.0849618763 0.04469238
v -0.09395239 -0.08400766 0.0440634377
v -0.09407388 -0.0837880448 0.04408338
v -0.09418477 -0.08358759 0.0441462249
v -0.09065236 -0.08997277 0.0439541563
v -0.0933744 -0.08505242 0.0449061953
v -0.09334397 -0.0851074159 0.04513528
v -0.09428828 -0.0834004954 0.044249706
v -0.09438609 -0.0832236856 0.0443999059
v -0.09447109 -0.08307005 0.0445947
v -0.09084876 -0.08961777 0.0462305062
v -0.0960897356 -0.08014419 0.0442119166
v -0.0933343247 -0.0851248652 0.0453862622
v -0.09334937 -0.08509768 0.0456466563
v -0.09339051 -0.08502331 0.0459006168
v -0.09453655 -0.08295172 0.0448258556
v -0.09118638 -0.0890074745 0.0484891273
v -0.09345597 -0.08490497 0.04613177
v -0.09354097 -0.08475134 0.0463265628
v -0.0945777 -0.0828773454 0.0450798161
v -0.0945927352 -0.08285016 0.04534021
v -0.09458309 -0.08286761 0.0455911942
v -0.091676 -0.08812245 0.0507168956
v -0.09684159 -0.07878514 0.04593508
v -0.09363878 -0.08457453 0.0464767665
v -0.09374229 -0.08438743 0.0465802476
v -0.0938531756 -0.08418698 0.0466430932
v -0.09455266 -0.0829226 0.0458202735
v -0.09450257 -0.08301315 0.0460340939
v -0.09442986 -0.0831445754 0.04623616
v -0.09397468 -0.08396736 0.04666303
v -0.09433556 -0.08331502 0.0464117341
v -0.09571393 -0.0808235 0.0539727174
v -0.09410073 -0.08373951 0.0466319658
v -0.09582582 -0.0806212351 0.0538374856
v -0.09422366 -0.08351729 0.0465469658
v -0.0959487557 -0.0803990141 0.0537524857
v -0.09607481 -0.08017116 0.0537214242
v -0.0977068841 -0.077221036 0.047263775
v -0.09619631 -0.07995155 0.05374136
v -0.0963072 -0.0797511 0.0538042076
v -0.09954785 -0.0738933161 0.04871406
v -0.100141644 -0.07281996 0.05040881
v -0.100172073 -0.07276497 0.05017973
v -0.100222163 -0.072674416 0.04996591
v -0.100294873 -0.07254299 0.0497638434
v -0.100389168 -0.07237254 0.0495882668
v -0.1005543 -0.07207405 0.0489132069
v -0.100501068 -0.07217027 0.04945304
v -0.100624 -0.07194805 0.04936804
v -0.100750051 -0.0717202052 0.0493369736
v -0.100871548 -0.0715005845 0.04935691
v -0.100982442 -0.0713001341 0.049419757
v -0.101085946 -0.0711130351 0.0495232381
v -0.101183765 -0.0709362254 0.04967344
v -0.101268761 -0.0707825944 0.04986823
v -0.105867237 -0.06556904 0.02915198
v -0.105618805 -0.06601813 0.0288701169
v -0.106305346 -0.0647771358 0.0304034036
v -0.10485214 -0.06740394 0.0276735853
v -0.106816217 -0.06385367 0.030878339
v -0.10686291 -0.063769266 0.03223536
v -0.10767854 -0.06229494 0.0328322724
v -0.107249759 -0.06307 0.034289062
v -0.108435854 -0.0609260276 0.0349839628
v -0.107439876 -0.0627263561 0.0364574827
v -0.109073237 -0.0597738959 0.03729558
v -0.107428342 -0.0627472 0.0386213176
v -0.109580144 -0.058857616 0.03972345
v -0.107231267 -0.06310344 0.04066989
v -0.109950975 -0.0581873022 0.0422207564
v -0.106880657 -0.0637372 0.04251796
v -0.110185191 -0.05776393 0.04474045
v -0.109940141 -0.0582068749 0.0470180325
v -0.106381431 -0.0646396 0.0442139581
v -0.109545067 -0.0589210168 0.0492970273
v -0.105711952 -0.06584974 0.0457791239
v -0.108995065 -0.0599152 0.0515157059
v -0.104885668 -0.06734333 0.04710923
v -0.108293205 -0.0611838736 0.0536081
v -0.107451282 -0.06270574 0.0555095635
v -0.103935435 -0.06906098 0.0481107421
v -0.10648942 -0.0644444 0.0571628548
v -0.105434611 -0.06635107 0.0585236847
v -0.102910161 -0.07091425 0.0487194322
v -0.104318194 -0.0683691055 0.05956458
v -0.101866841 -0.07280017 0.0489132069
v -0.103172913 -0.070439294 0.0602764226
v -0.102030046 -0.0725051463 0.0606675632
v -0.100911655 -0.07452676 0.0607606769
v -0.10086038 -0.0746194348 0.04871406
v -0.09977128 -0.07658809 0.060565047
v -0.09861282 -0.07868212 0.0600561537
v -0.0999350548 -0.07629205 0.04817919
v -0.09746621 -0.0807547346 0.05921794
v -0.09636402 -0.08274705 0.058050815
v -0.0990194157 -0.0779471546 0.047263775
v -0.09533879 -0.08460025 0.05657353
v -0.09442 -0.08626105 0.0548227243
v -0.09815413 -0.079511255 0.04593508
v -0.0936313 -0.08768672 0.0528499819
v -0.0929885358 -0.08884857 0.0507168956
v -0.09740227 -0.08087031 0.0442119166
v -0.09249892 -0.0897336 0.0484891273
v -0.09216129 -0.09034389 0.0462305062
v -0.09682317 -0.08191709 0.04216708
v -0.09196489 -0.0906989 0.0439541563
v -0.09190413 -0.09080873 0.04156436
v -0.096459195 -0.08257501 0.0399205051
v -0.09199448 -0.090645425 0.0391007736
v -0.09632616 -0.08281549 0.0376170129
v -0.0922465846 -0.09018972 0.0366246738
v -0.0926631838 -0.0894366652 0.03420409
v -0.09641154 -0.08266115 0.03539677
v -0.09323804 -0.08839757 0.03190816
v -0.09668066 -0.08217468 0.0333702825
v -0.09395599 -0.08709979 0.029800836
v -0.0971238 -0.08137368 0.0314787924
v -0.0947943255 -0.08558442 0.0279350653
v -0.09572501 -0.08390212 0.0263485163
v -0.0977669954 -0.08021103 0.0296912976
v -0.09671751 -0.08210809 0.0250615459
v -0.09860115 -0.0787032247 0.0281381328
v -0.09774159 -0.08025696 0.0240775682
v -0.09866103 -0.07859498 0.0240000188
v -0.09959101 -0.0769139454 0.0269418489
v -0.09958945 -0.07691677 0.0240744762
v -0.100517988 -0.07523835 0.0243039317
v -0.100678533 -0.07494814 0.026189955
v -0.101437554 -0.07357614 0.0246884134
v -0.10179361 -0.07293253 0.025915131
v -0.102339104 -0.0719465 0.02522492
v -0.102868386 -0.07098977 0.0260915086
v -0.103213936 -0.0703651458 0.02590749
v -0.103849366 -0.06921655 0.0266474634
v -0.104054019 -0.06884662 0.0267274156
v -0.1035396 -0.06667782 0.0276735853
v -0.103397749 -0.06848356 0.0267274156
v -0.10485214 -0.06740394 0.0276735853
v -0.10274148 -0.0681205 0.0267274156
v -0.104054019 -0.06884662 0.0267274156
v -0.101901405 -0.06963903 0.02590749
v -0.102557674 -0.07000209 0.02590749
v -0.103213936 -0.0703651458 0.02590749
v -0.101026565 -0.07122038 0.02522492
v -0.101682834 -0.07158345 0.02522492
v -0.102339104 -0.0719465 0.02522492
v -0.100125015 -0.07285002 0.0246884134
v -0.100781284 -0.0732130855 0.0246884134
v -0.101437554 -0.07357614 0.0246884134
v -0.09920545 -0.07451222 0.0243039317
v -0.09986172 -0.07487528 0.0243039317
v -0.100517988 -0.07523835 0.0243039317
v -0.09827691 -0.07619065 0.0240744762
v -0.09893318 -0.07655371 0.0240744762
v -0.09958945 -0.07691677 0.0240744762
v -0.09734849 -0.0778688639 0.0240000188
v -0.09800476 -0.07823192 0.0240000188
v -0.09866103 -0.07859498 0.0240000188
v -0.09642905 -0.07953084 0.0240775682
v -0.09774159 -0.08025696 0.0240775682
v -0.10485214 -0.06740394 0.0276735853
v -0.105210975 -0.0652059838 0.02915198
v -0.1035396 -0.06667782 0.0276735853
v -0.105867237 -0.06556904 0.02915198
v -0.104554705 -0.0648429245 0.02915198
v -0.106816217 -0.06385367 0.030878339
v -0.106159955 -0.0634906143 0.030878339
v -0.105503686 -0.06312755 0.030878339
v -0.10767854 -0.06229494 0.0328322724
v -0.107022271 -0.06193188 0.0328322724
v -0.106366009 -0.06156882 0.0328322724
v -0.108435854 -0.0609260276 0.0349839628
v -0.107779585 -0.0605629645 0.0349839628
v -0.107123315 -0.0601999052 0.0349839628
v -0.109073237 -0.0597738959 0.03729558
v -0.108416967 -0.0594108328 0.03729558
v -0.1077607 -0.0590477735 0.03729558
v -0.109580144 -0.058857616 0.03972345
v -0.108923875 -0.058494553 0.03972345
v -0.108267605 -0.0581314936 0.03972345
v -0.109950975 -0.0581873022 0.0422207564
v -0.109294705 -0.05782424 0.0422207564
v -0.108638436 -0.05746118 0.0422207564
v -0.110185191 -0.05776393 0.04474045
v -0.108872652 -0.057037808 0.04474045
v -0.09601591 -0.08131052 0.05578975
v -0.09652347 -0.08039305 0.05502122
v -0.096100904 -0.08115689 0.0559845455
v -0.09595045 -0.08142885 0.0555586033
v -0.09619872 -0.08098008 0.05613475
v -0.0959093049 -0.08150322 0.05530464
v -0.0963022262 -0.08079298 0.05623823
v -0.09589426 -0.08153041 0.05504424
v -0.09641312 -0.08059253 0.056301076
v -0.09590392 -0.08151296 0.0547932573
v -0.09653462 -0.08037291 0.0563210137
v -0.09593434 -0.08145797 0.054564178
v -0.0966606662 -0.08014505 0.0562899448
v -0.09598443 -0.08136742 0.0543503575
v -0.09678361 -0.07992283 0.05620495
v -0.09605714 -0.08123599 0.054148294
v -0.0968955 -0.0797205642 0.0560697168
v -0.0961514339 -0.08106554 0.0539727174
v -0.0969897956 -0.0795501247 0.0558941439
v -0.0962633342 -0.0808632746 0.0538374856
v -0.0970625058 -0.07941869 0.05569208
v -0.09638627 -0.08064105 0.0537524857
v -0.0971126 -0.07932814 0.0554782562
v -0.0965123251 -0.0804132 0.0537214242
v -0.0971430242 -0.07927315 0.0552491732
v -0.09663382 -0.08019359 0.05374136
v -0.09715267 -0.0792557 0.0549981929
v -0.0967447162 -0.0799931362 0.0538042076
v -0.09713764 -0.07928289 0.0547378
v -0.09684822 -0.07980604 0.0539076924
v -0.09709649 -0.07935727 0.0544838347
v -0.09694604 -0.07962923 0.0540578924
v -0.09703103 -0.0794756 0.05425268
v -0.100691155 -0.0728595555 0.0514053032
v -0.101198711 -0.07194209 0.05063677
v -0.100776151 -0.0727059245 0.0516000949
v -0.100625694 -0.0729778856 0.05117415
v -0.100873962 -0.07252911 0.0517503
v -0.100584544 -0.0730522648 0.05092019
v -0.100977466 -0.0723420158 0.05185378
v -0.100569509 -0.0730794445 0.0506597944
v -0.10108836 -0.0721415654 0.0519166254
v -0.100579157 -0.073062 0.05040881
v -0.101209857 -0.0719219446 0.0519365631
v -0.100609578 -0.07300701 0.05017973
v -0.101335913 -0.07169409 0.0519054942
v -0.100659676 -0.0729164556 0.04996591
v -0.101458848 -0.07147187 0.0518205
v -0.100732386 -0.07278503 0.0497638434
v -0.10157074 -0.07126961 0.05168527
v -0.100826681 -0.07261458 0.0495882668
v -0.101665042 -0.07109916 0.0515096933
v -0.100938573 -0.07241231 0.04945304
v -0.101737753 -0.0709677339 0.05130763
v -0.101061516 -0.07219009 0.04936804
v -0.101787843 -0.07087718 0.05109381
v -0.101187564 -0.0719622448 0.0493369736
v -0.101818264 -0.0708221942 0.0508647263
v -0.101309061 -0.071742624 0.04935691
v -0.101827919 -0.070804745 0.0506137423
v -0.101419955 -0.07154217 0.049419757
v -0.101812877 -0.0708319247 0.05035335
v -0.101523459 -0.0713550746 0.0495232381
v -0.101771735 -0.0709063 0.0500993878
v -0.101621278 -0.0711782649 0.04967344
v -0.101706266 -0.0710246339 0.04986823
v -0.09389348 -0.0851470158 0.04613177
v -0.09440104 -0.08422955 0.0453632362
v -0.09397848 -0.08499338 0.0463265628
v -0.09382802 -0.0852653459 0.0459006168
v -0.09407629 -0.08481657 0.0464767665
v -0.09378687 -0.08533972 0.0456466563
v -0.0941798 -0.08462947 0.0465802476
v -0.09377184 -0.0853669047 0.0453862622
v -0.09429069 -0.08442902 0.0466430932
v -0.0937814862 -0.0853494555 0.04513528
v -0.09441219 -0.0842094049 0.04666303
v -0.0938119143 -0.08529446 0.0449061953
v -0.09453824 -0.08398155 0.0466319658
v -0.0938620046 -0.0852039158 0.04469238
v -0.0946611762 -0.08375933 0.0465469658
v -0.0939347148 -0.08507249 0.04449031
v -0.09477308 -0.08355706 0.0464117341
v -0.09402901 -0.08490204 0.0443147346
v -0.09486737 -0.0833866149 0.04623616
v -0.09414091 -0.08469977 0.0441795066
v -0.09494008 -0.08325519 0.0460340939
v -0.0942638442 -0.08447755 0.0440945067
v -0.09499017 -0.08316464 0.0458202735
v -0.0943899 -0.0842497 0.0440634377
v -0.09502059 -0.08310965 0.0455911942
v -0.09451139 -0.0840300843 0.04408338
v -0.09503025 -0.0830922 0.04534021
v -0.0946222842 -0.08382963 0.0441462249
v -0.09501521 -0.0831193849 0.0450798161
v -0.0947257951 -0.0836425349 0.044249706
v -0.09497406 -0.08319376 0.0448258556
v -0.09482361 -0.0834657252 0.0443999059
v -0.0949086 -0.08331209 0.0445947
f 1 2 3
f 2 4 3
f 3 4 5
f 2 6 4
f 4 7 5
f 6 8 4
f 4 8 7
f 6 9 8
f 8 10 7
f 9 11 8
f 8 11 10
f 9 12 11
f 11 13 10
f 12 14 11
f 11 14 13
f 12 15 14
f 15 13 14
f 15 12 16
f 15 17 13
f 18 15 16
f 15 18 17
f 18 16 19
f 18 20 17
f 21 18 19
f 18 21 20
f 21 19 22
f 23 21 22
f 21 24 20
f 21 23 24
f 23 22 25
f 23 26 24
f 23 25 27
f 23 28 26
f 29 23 27
f 23 29 28
f 29 27 30
f 29 31 28
f 32 29 30
f 29 32 31
f 32 30 33
f 32 33 31
f 30 34 33
f 35 31 33
f 34 36 33
f 35 33 36
f 34 37 36
f 38 35 36
f 37 39 36
f 38 36 39
f 37 40 39
f 41 38 39
f 40 42 39
f 41 39 42
f 40 43 42
f 44 41 42
f 43 45 42
f 44 42 45
f 43 46 45
f 47 44 45
f 46 48 45
f 47 45 48
f 46 49 48
f 50 47 48
f 49 50 48
f 51 52 53
f 52 54 53
f 52 55 54
f 55 52 56
f 54 57 58
f 57 59 58
f 58 59 60
f 57 61 59
f 61 60 59
f 61 57 62
f 61 63 60
f 64 61 62
f 61 64 63
f 64 62 65
f 64 66 63
f 67 64 65
f 64 67 66
f 67 65 68
f 67 68 66
f 65 69 68
f 66 68 70
f 69 71 68
f 68 71 70
f 69 72 71
f 72 70 71
f 72 69 73
f 72 74 70
f 72 73 75
f 74 72 75
f 76 75 73
f 74 75 76
f 76 73 77
f 78 74 76
f 79 76 77
f 76 79 78
f 79 77 80
f 79 81 78
f 82 79 80
f 79 82 81
f 82 80 83
f 82 83 81
f 80 84 83
f 81 83 85
f 84 86 83
f 83 87 85
f 86 88 83
f 83 88 87
f 86 89 88
f 88 90 87
f 89 91 88
f 88 91 90
f 89 92 91
f 92 90 91
f 93 92 89
f 92 94 90
f 95 92 93
f 92 95 94
f 96 95 93
f 95 97 94
f 98 95 96
f 95 98 97
f 99 98 96
f 98 100 97
f 101 98 99
f 98 101 100
f 102 101 99
f 101 103 100
f 104 101 102
f 101 104 103
f 105 104 102
f 104 106 103
f 107 104 105
f 104 107 106
f 108 107 105
f 107 109 106
f 107 108 109
f 110 111 112
f 110 112 113
f 114 110 113
f 113 112 115
f 116 114 113
f 117 113 115
f 116 113 117
f 117 115 118
f 119 116 117
f 120 117 118
f 119 117 120
f 120 118 121
f 122 119 120
f 123 120 121
f 122 120 123
f 123 121 124
f 125 122 123
f 126 123 124
f 125 123 126
f 126 124 127
f 128 125 126
f 129 126 127
f 128 126 129
f 129 127 130
f 131 129 130
f 132 128 129
f 132 129 131
f 131 130 133
f 134 132 131
f 135 131 133
f 136 134 131
f 137 131 135
f 136 131 137
f 138 137 135
f 139 136 137
f 140 137 138
f 140 139 137
f 141 140 138
f 140 141 139
f 141 138 142
f 141 143 139
f 144 141 142
f 141 144 143
f 144 142 145
f 144 146 143
f 147 144 145
f 144 147 146
f 147 145 148
f 147 149 146
f 150 147 148
f 147 150 149
f 150 148 151
f 150 152 149
f 153 150 151
f 150 153 152
f 153 151 154
f 153 155 152
f 156 153 154
f 153 156 155
f 156 154 157
f 155 156 158
f 156 157 158
f 157 159 158
f 159 160 158
f 158 160 161
f 159 162 160
f 160 163 161
f 162 164 160
f 160 164 163
f 162 165 164
f 164 166 163
f 165 167 164
f 164 167 166
f 165 168 167
f 167 169 166
f 168 170 167
f 167 170 169
f 168 171 170
f 170 172 169
f 171 173 170
f 170 173 172
f 171 174 173
f 173 175 172
f 174 176 173
f 173 176 175
f 174 177 176
f 177 178 176
f 176 179 175
f 176 178 179
f 177 180 178
f 178 181 179
f 180 182 178
f 178 183 181
f 182 184 178
f 178 184 183
f 182 185 184
f 184 186 183
f 185 187 184
f 184 187 186
f 185 188 187
f 188 186 187
f 189 188 185
f 188 190 186
f 191 188 189
f 188 191 190
f 192 191 189
f 191 193 190
f 194 191 192
f 191 194 193
f 195 194 192
f 194 196 193
f 197 194 195
f 194 197 196
f 198 197 195
f 197 199 196
f 200 197 198
f 197 200 199
f 201 200 198
f 200 202 199
f 203 200 201
f 200 203 202
f 204 203 201
f 203 205 202
f 203 204 205
f 206 207 208
f 206 208 209
f 210 206 209
f 209 208 211
f 212 210 209
f 213 209 211
f 212 209 213
f 213 211 214
f 215 212 213
f 216 213 214
f 215 213 216
f 216 214 217
f 218 215 216
f 219 216 217
f 218 216 219
f 219 217 220
f 221 218 219
f 222 219 220
f 221 219 222
f 222 220 223
f 224 221 222
f 225 222 223
f 224 222 225
f 225 223 226
f 227 225 226
f 228 224 225
f 228 225 227
f 227 226 229
f 230 228 227
f 231 227 229
f 232 230 227
f 233 227 231
f 232 227 233
f 234 233 231
f 235 232 233
f 236 233 234
f 236 235 233
f 237 236 234
f 236 237 235
f 237 234 238
f 237 239 235
f 240 237 238
f 237 240 239
f 240 238 241
f 240 242 239
f 243 240 241
f 240 243 242
f 243 241 244
f 243 245 242
f 246 243 244
f 243 246 245
f 246 244 247
f 246 248 245
f 249 246 247
f 246 249 248
f 249 247 250
f 249 251 248
f 252 249 250
f 249 252 251
f 252 250 253
f 251 252 254
f 252 253 254
f 253 255 254
f 255 256 254
f 254 256 257
f 255 258 256
f 256 259 257
f 258 260 256
f 256 260 259
f 258 261 260
f 260 262 259
f 261 263 260
f 260 263 262
f 261 264 263
f 263 265 262
f 264 266 263
f 263 266 265
f 264 267 266
f 266 268 265
f 267 269 266
f 266 269 268
f 267 270 269
f 269 271 268
f 270 272 269
f 269 272 271
f 270 273 272
f 273 274 272
f 272 275 271
f 272 274 275
f 273 276 274
f 274 277 275
f 276 278 274
f 274 279 277
f 278 280 274
f 274 280 279
f 278 281 280
f 280 282 279
f 281 283 280
f 280 283 282
f 281 284 283
f 284 282 283
f 285 284 281
f 284 286 282
f 287 284 285
f 284 287 286
f 288 287 285
f 287 289 286
f 290 287 288
f 287 290 289
f 291 290 288
f 290 292 289
f 293 290 291
f 290 293 292
f 294 293 291
f 293 295 292
f 296 293 294
f 293 296 295
f 297 296 294
f 296 298 295
f 299 296 297
f 296 299 298
f 300 299 297
f 299 301 298
f 299 300 301
f 302 303 304
f 302 304 305
f 306 302 305
f 305 304 307
f 308 306 305
f 309 305 307
f 308 305 309
f 309 307 310
f 311 308 309
f 312 309 310
f 311 309 312
f 312 310 313
f 314 311 312
f 315 312 313
f 314 312 315
f 315 313 316
f 317 314 315
f 318 315 316
f 317 315 318
f 318 316 319
f 320 317 318
f 321 318 319
f 320 318 321
f 321 319 322
f 323 321 322
f 324 320 321
f 324 321 323
f 323 322 325
f 326 324 323
f 327 323 325
f 328 326 323
f 329 323 327
f 328 323 329
f 330 329 327
f 331 328 329
f 332 329 330
f 332 331 329
f 333 332 330
f 332 333 331
f 333 330 334
f 333 335 331
f 336 333 334
f 333 336 335
f 336 334 337
f 336 338 335
f 339 336 337
f 336 339 338
f 339 337 340
f 339 341 338
f 342 339 340
f 339 342 341
f 342 340 343
f 342 344 341
f 345 342 343
f 342 345 344
f 345 343 346
f 345 347 344
f 348 345 346
f 345 348 347
f 348 346 349
f 347 348 350
f 348 349 350
f 349 351 350
f 351 352 350
f 350 352 353
f 351 354 352
f 352 355 353
f 354 356 352
f 352 356 355
f 354 357 356
f 356 358 355
f 357 359 356
f 356 359 358
f 357 360 359
f 359 361 358
f 360 362 359
f 359 362 361
f 360 363 362
f 362 364 361
f 363 365 362
f 362 365 364
f 363 366 365
f 365 367 364
f 366 368 365
f 365 368 367
f 366 369 368
f 369 370 368
f 368 371 367
f 368 370 371
f 369 372 370
f 370 373 371
f 372 374 370
f 370 375 373
f 374 376 370
f 370 376 375
f 374 377 376
f 376 378 375
f 377 379 376
f 376 379 378
f 377 380 379
f 380 378 379
f 381 380 377
f 380 382 378
f 383 380 381
f 380 383 382
f 384 383 381
f 383 385 382
f 386 383 384
f 383 386 385
f 387 386 384
f 386 388 385
f 389 386 387
f 386 389 388
f 390 389 387
f 389 391 388
f 392 389 390
f 389 392 391
f 393 392 390
f 392 394 391
f 395 392 393
f 392 395 394
f 396 395 393
f 395 397 394
f 395 396 397
f 398 399 400
f 398 400 401
f 402 398 401
f 403 401 400
f 402 401 404
f 401 403 405
f 401 405 404
f 403 406 405
f 404 405 407
f 406 408 405
f 405 408 407
f 406 409 408
f 407 408 410
f 409 411 408
f 408 411 410
f 409 412 411
f 410 411 413
f 412 414 411
f 411 414 413
f 412 415 414
f 415 413 414
f 415 412 416
f 415 417 413
f 418 415 416
f 415 418 417
f 418 416 419
f 418 420 417
f 421 418 419
f 418 421 420
f 421 419 422
f 421 423 420
f 424 421 422
f 421 424 423
f 424 422 425
f 424 425 423
f 422 426 425
f 423 425 427
f 426 428 425
f 425 428 427
f 426 429 428
f 427 428 430
f 429 431 428
f 428 431 430
f 429 432 431
f 430 431 433
f 432 434 431
f 431 434 433
f 432 435 434
f 435 433 434
f 435 432 436
f 435 437 433
f 438 435 436
f 435 438 437
f 438 436 439
f 438 440 437
f 441 438 439
f 438 441 440
f 441 439 442
f 441 442 440
f 439 443 442
f 440 442 444
f 443 445 442
f 442 445 444
f 443 446 445
f 444 445 447
f 446 448 445
f 445 448 447
f 446 449 448
f 447 448 450
f 449 451 448
f 448 451 450
f 449 452 451
f 452 450 451
f 452 449 453
f 452 454 450
f 455 452 453
f 452 455 454
f 455 453 456
f 455 457 454
f 458 455 456
f 455 458 457
f 458 456 459
f 458 460 457
f 461 458 459
f 458 461 460
f 461 459 462
f 461 463 460
f 464 461 462
f 461 464 463
f 464 462 465
f 464 465 463
f 462 466 465
f 463 465 467
f 466 468 465
f 465 468 467
f 466 469 468
f 467 468 470
f 469 471 468
f 468 471 470
f 469 472 471
f 470 471 473
f 472 474 471
f 471 474 473
f 472 475 474
f 473 474 476
f 475 477 474
f 474 477 476
f 475 478 477
f 478 479 477
f 476 477 480
f 477 479 480
f 478 481 479
f 480 479 482
f 481 483 479
f 479 484 482
f 483 485 479
f 479 485 484
f 483 486 485
f 485 487 484
f 486 488 485
f 485 488 487
f 486 489 488
f 488 490 487
f 489 491 488
f 488 491 490
f 489 492 491
f 491 493 490
f 492 494 491
f 491 494 493
f 492 495 494
f 494 496 493
f 495 497 494
f 497 496 494
f 497 498 496
f 499 500 501
f 500 499 502
f 500 503 501
f 500 502 504
f 500 505 503
f 506 500 504
f 505 507 503
f 505 508 507
f 508 505 509
f 506 504 510
f 505 511 509
f 512 506 510
f 506 512 513
f 506 513 514
f 515 506 514
f 515 514 516
f 517 515 516
f 515 517 518
f 515 518 519
f 520 515 519
f 520 519 521
f 520 521 522
f 523 520 522
f 524 523 522
f 523 524 525
f 523 525 526
f 527 523 526
f 526 525 528
f 526 529 527
f 530 526 528
f 530 528 531
f 532 530 531
f 532 531 533
f 534 532 533
f 529 535 527
f 529 536 535
f 536 537 535
f 537 538 535
f 537 539 538
f 534 533 540
f 539 541 538
f 539 542 541
f 542 543 541
f 543 544 541
f 543 545 544
f 545 546 544
f 546 547 544
f 548 534 540
f 546 549 547
f 548 540 550
f 550 540 551
f 552 548 550
f 550 551 553
f 549 554 547
f 549 555 554
f 555 556 554
f 547 554 557
f 556 558 554
f 558 559 554
f 554 560 557
f 560 561 557
f 560 562 561
f 560 563 562
f 563 564 562
f 563 565 564
f 565 566 564
f 558 567 559
f 565 568 566
f 568 569 566
f 568 570 569
f 568 571 570
f 571 572 570
f 571 573 572
f 573 574 572
f 573 575 574
f 575 576 574
f 575 577 576
f 577 578 576
f 577 579 578
f 579 580 578
f 579 581 580
f 581 582 580
f 581 583 582
f 583 584 582
f 585 584 586
f 587 585 586
f 587 586 588
f 589 587 588
f 589 588 590
f 591 589 590
f 591 590 592
f 593 591 592
f 593 592 594
f 595 593 594
f 596 595 594
f 597 596 594
f 596 597 598
f 597 599 598
f 597 600 599
f 600 601 599
f 600 602 601
f 602 603 601
f 602 604 603
f 602 605 604
f 605 606 604
f 605 607 606
f 607 608 606
f 607 609 608
f 609 610 608
f 609 611 610
f 612 611 609
f 611 613 610
f 614 612 609
f 611 615 613
f 614 616 612
f 612 617 611
f 617 618 611
f 618 619 611
f 619 615 611
f 615 619 620
f 615 620 621
f 617 612 622
f 612 623 622
f 612 624 623
f 616 624 612
f 625 615 621
f 625 621 626
f 625 626 627
f 616 628 624
f 628 616 629
f 616 630 629
f 631 625 627
f 616 632 630
f 633 631 627
f 631 633 634
f 631 634 635
f 632 636 630
f 637 631 635
f 637 635 638
f 637 638 639
f 632 640 636
f 640 632 641
f 632 642 641
f 643 637 639
f 632 644 642
f 645 643 639
f 643 645 646
f 643 646 647
f 644 648 642
f 511 643 647
f 644 649 648
f 649 644 650
f 651 511 647
f 644 652 650
f 511 651 653
f 511 653 509
f 651 654 653
f 654 655 653
f 654 656 655
f 656 657 655
f 656 652 657
f 652 658 657
f 652 644 658
f 644 659 658
f 659 660 658
f 659 661 660
f 661 659 553
f 659 550 553
f 552 550 662
f 663 552 662
f 664 663 662
f 665 664 662
f 666 665 662
f 667 666 662
f 667 662 668
f 669 667 668
f 670 669 668
f 671 670 668
f 672 671 668
f 672 668 559
f 673 672 559
f 674 673 559
f 675 674 559
f 676 675 559
f 567 676 559
f 677 678 679
f 677 680 678
f 681 677 679
f 681 679 682
f 683 681 682
f 683 682 684
f 685 683 684
f 685 684 686
f 687 685 686
f 687 686 688
f 689 687 688
f 689 688 690
f 691 689 690
f 692 691 690
f 691 692 693
f 692 694 693
f 692 695 694
f 695 696 694
f 695 697 696
f 697 698 696
f 697 699 698
f 699 700 698
f 699 701 700
f 699 702 701
f 702 703 701
f 702 704 703
f 702 705 704
f 705 706 704
f 705 707 706
f 707 708 706
f 707 709 708
f 709 707 710
f 707 711 710
f 711 712 710
f 711 713 712
f 711 714 713
f 714 715 713
f 714 716 715
f 714 717 716
f 717 718 716
f 717 719 718
f 717 720 719
f 720 721 719
f 720 722 721
f 720 723 722
f 723 724 722
f 723 725 724
f 723 726 725
f 726 727 725
f 726 728 727
f 726 729 728
f 729 730 728
f 729 731 730
f 731 732 730
f 731 733 732
f 731 734 733
f 734 735 733
f 734 736 735
f 736 737 735
f 736 738 737
f 738 739 737
f 738 740 739
f 738 741 740
f 741 742 740
f 741 743 742
f 743 744 742
f 743 745 744
f 743 746 745
f 746 747 745
f 746 748 747
f 746 749 748
f 749 750 748
f 749 751 750
f 751 752 750
f 751 753 752
f 753 754 752
f 753 755 754
f 755 756 754
f 755 680 756
f 757 758 759
f 758 757 760
f 758 761 759
f 758 760 762
f 758 763 761
f 763 758 762
f 763 764 761
f 763 762 765
f 763 766 764
f 766 763 765
f 766 767 764
f 766 765 768
f 766 769 767
f 769 766 768
f 769 770 767
f 769 768 771
f 769 772 770
f 772 769 771
f 772 773 770
f 772 771 774
f 772 775 773
f 775 772 774
f 775 776 773
f 775 774 777
f 775 778 776
f 778 775 777
f 778 779 776
f 778 777 780
f 778 781 779
f 781 778 780
f 782 783 784
f 783 782 785
f 783 786 784
f 783 785 787
f 783 788 786
f 788 783 787
f 788 789 786
f 788 787 790
f 788 791 789
f 791 788 790
f 791 792 789
f 791 790 793
f 791 794 792
f 794 791 793
f 794 795 792
f 794 793 796
f 794 797 795
f 797 794 796
f 797 798 795
f 797 796 799
f 797 800 798
f 800 797 799
f 800 801 798
f 800 799 802
f 800 803 801
f 803 800 802
f 803 804 801
f 803 802 805
f 803 806 804
f 806 803 805
f 807 808 809
f 808 807 810
f 808 811 809
f 808 810 812
f 811 808 813
f 814 808 812
f 808 815 813
f 808 814 816
f 808 817 815
f 808 816 818
f 817 808 819
f 820 808 818
f 808 821 819
f 808 820 822
f 808 823 821
f 808 822 824
f 823 808 825
f 826 808 824
f 808 827 825
f 808 826 828
f 808 829 827
f 808 828 830
f 829 808 831
f 832 808 830
f 808 833 831
f 808 832 834
f 808 835 833
f 808 834 836
f 835 808 837
f 838 808 836
f 808 839 837
f 808 838 839
f 840 841 842
f 841 840 843
f 841 844 842
f 841 843 845
f 844 841 846
f 847 841 845
f 841 848 846
f 841 847 849
f 841 850 848
f 841 849 851
f 850 841 852
f 853 841 851
f 841 854 852
f 841 853 855
f 841 856 854
f 841 855 857
f 856 841 858
f 859 841 857
f 841 860 858
f 841 859 861
f 841 862 860
f 841 861 863
f 862 841 864
f 865 841 863
f 841 866 864
f 841 865 867
f 841 868 866
f 841 867 869
f 868 841 870
f 871 841 869
f 841 872 870
f 841 871 872
f 873 874 875
f 874 873 876
f 874 877 875
f 874 876 878
f 877 874 879
f 880 874 878
f 874 881 879
f 874 880 882
f 874 883 881
f 874 882 884
f 883 874 885
f 886 874 884
f 874 887 885
f 874 886 888
f 874 889 887
f 874 888 890
f 889 874 891
f 892 874 890
f 874 893 891
f 874 892 894
f 874 895 893
f 874 894 896
f 895 874 897
f 898 874 896
f 874 899 897
f 874 898 900
f 874 901 899
f 874 900 902
f 901 874 903
f 904 874 902
f 874 905 903
f 874 904 905
