# ROS coordinates: X forward, Y left, Z up; units are metres.
o mesh
v -0.08215001 -0.0690000057 0.110000007
v -0.0816500038 -0.0685 0.110000007
v -0.08162246 -0.0685 0.110300243
v -0.08180321 -0.06875 0.1105987
v -0.08211411 -0.0690000057 0.110391222
v -0.0815341547 -0.0685 0.110607363
v -0.08199905 -0.0690000057 0.110791408
v -0.08138105 -0.0685 0.110902905
v -0.0817995444 -0.0690000057 0.111176506
v -0.08149257 -0.06875 0.111175686
v -0.08116673 -0.0685 0.111166731
v -0.08099279 -0.06875 0.111619994
v -0.08152029 -0.0690000057 0.11152029
v -0.0809029043 -0.0685 0.111381046
v -0.0811765045 -0.0690000057 0.111799538
v -0.0806073546 -0.0685 0.111534148
v -0.0807914138 -0.0690000057 0.11199905
v -0.08039622 -0.06875 0.111858234
v -0.08030024 -0.0685 0.111622468
v -0.0800000057 -0.06875 0.1119
v -0.08039123 -0.0690000057 0.112114109
v -0.0800000057 -0.0685 0.111650005
v -0.0800000057 -0.0690000057 0.112150006
v -0.07969976 -0.0685 0.111622468
v -0.07960878 -0.0690000057 0.112114109
v -0.0796037838 -0.06875 0.111858234
v -0.07939265 -0.0685 0.111534148
v -0.079208605 -0.0690000057 0.11199905
v -0.07920101 -0.06875 0.111723848
v -0.07909711 -0.0685 0.111381046
v -0.0788235 -0.0690000057 0.111799538
v -0.07882432 -0.06875 0.111492574
v -0.07883328 -0.0685 0.111166731
v -0.07847972 -0.0690000057 0.11152029
v -0.07850743 -0.06875 0.111175686
v -0.07861896 -0.0685 0.110902905
v -0.07820047 -0.0690000057 0.111176506
v -0.0782761648 -0.06875 0.110798992
v -0.07846586 -0.0685 0.110607363
v -0.0780009553 -0.0690000057 0.110791408
v -0.07814177 -0.06875 0.110396221
v -0.0783775449 -0.0685 0.110300243
v -0.077885896 -0.0690000057 0.110391222
v -0.07835001 -0.0685 0.110000007
v -0.07785001 -0.0690000057 0.110000007
v -0.0783775449 -0.0685 0.109699771
v -0.0781967938 -0.06875 0.109401308
v -0.07846586 -0.0685 0.109392643
v -0.077885896 -0.0690000057 0.109608784
v -0.0780009553 -0.0690000057 0.1092086
v -0.07861896 -0.0685 0.1090971
v -0.07820047 -0.0690000057 0.108823508
v -0.07850743 -0.06875 0.108824328
v -0.07883328 -0.0685 0.108833276
v -0.07900722 -0.06875 0.108380012
v -0.07847972 -0.0690000057 0.108479723
v -0.07909711 -0.0685 0.10861896
v -0.0788235 -0.0690000057 0.108200468
v -0.07939265 -0.0685 0.108465858
v -0.079208605 -0.0690000057 0.108000964
v -0.0796037838 -0.06875 0.10814178
v -0.07969976 -0.0685 0.108377554
v -0.0800000057 -0.06875 0.108100012
v -0.07960878 -0.0690000057 0.1078859
v -0.0800000057 -0.0685 0.10835
v -0.0800000057 -0.0690000057 0.10785
v -0.08030024 -0.0685 0.108377554
v -0.08039123 -0.0690000057 0.1078859
v -0.08039622 -0.06875 0.10814178
v -0.0806073546 -0.0685 0.108465858
v -0.0807914138 -0.0690000057 0.108000964
v -0.080799 -0.06875 0.108276159
v -0.0809029043 -0.0685 0.10861896
v -0.0811765045 -0.0690000057 0.108200468
v -0.0811756849 -0.06875 0.108507432
v -0.08116673 -0.0685 0.108833276
v -0.08152029 -0.0690000057 0.108479723
v -0.08149257 -0.06875 0.108824328
v -0.08138105 -0.0685 0.1090971
v -0.0817995444 -0.0690000057 0.108823508
v -0.08172385 -0.06875 0.109201014
v -0.0815341547 -0.0685 0.109392643
v -0.08199905 -0.0690000057 0.1092086
v -0.0818582252 -0.06875 0.109603792
v -0.08162246 -0.0685 0.109699771
v -0.08211411 -0.0690000057 0.109608784
v -0.0816500038 -0.0685 0.110000007
v -0.08215001 -0.0690000057 0.110000007
v -0.05785 -0.0690000057 0.110000007
v -0.0578859 -0.0690000057 0.110391222
v -0.0583500043 -0.0685 0.110000007
v -0.0581417754 -0.06875 0.110396221
v -0.05837755 -0.0685 0.110300243
v -0.05800096 -0.0690000057 0.110791408
v -0.0584658533 -0.0685 0.110607363
v -0.0582761653 -0.06875 0.110798992
v -0.0582004637 -0.0690000057 0.111176506
v -0.0586189553 -0.0685 0.110902905
v -0.05850743 -0.06875 0.111175686
v -0.0584797226 -0.0690000057 0.11152029
v -0.05883328 -0.0685 0.111166731
v -0.0588243157 -0.06875 0.111492574
v -0.0588235036 -0.0690000057 0.111799538
v -0.0590971075 -0.0685 0.111381046
v -0.0592010133 -0.06875 0.111723848
v -0.0592086 -0.0690000057 0.11199905
v -0.059392646 -0.0685 0.111534148
v -0.0596037842 -0.06875 0.111858234
v -0.05960878 -0.0690000057 0.112114109
v -0.0600000024 -0.06875 0.1119
v -0.05969976 -0.0685 0.111622468
v -0.0600000024 -0.0690000057 0.112150006
v -0.0600000024 -0.0685 0.111650005
v -0.0603912249 -0.0690000057 0.112114109
v -0.0603002459 -0.0685 0.111622468
v -0.0603962243 -0.06875 0.111858234
v -0.0607914068 -0.0690000057 0.11199905
v -0.0609927848 -0.06875 0.111619994
v -0.06060736 -0.0685 0.111534148
v -0.0611765 -0.0690000057 0.111799538
v -0.0609029 -0.0685 0.111381046
v -0.0615202822 -0.0690000057 0.11152029
v -0.06116673 -0.0685 0.111166731
v -0.0614925772 -0.06875 0.111175686
v -0.0617995448 -0.0690000057 0.111176506
v -0.0618032068 -0.06875 0.1105987
v -0.06138105 -0.0685 0.110902905
v -0.0619990453 -0.0690000057 0.110791408
v -0.0615341552 -0.0685 0.110607363
v -0.06211411 -0.0690000057 0.110391222
v -0.0616224557 -0.0685 0.110300243
v -0.0621500053 -0.0690000057 0.110000007
v -0.06165 -0.0685 0.110000007
v -0.11285 -0.0690000057 0.167000011
v -0.1128859 -0.0690000057 0.167391226
v -0.113350004 -0.0685 0.167000011
v -0.113141775 -0.06875 0.167396232
v -0.113377556 -0.0685 0.167300254
v -0.113000959 -0.0690000057 0.167791411
v -0.11346586 -0.0685 0.167607367
v -0.113276161 -0.06875 0.167799
v -0.113200471 -0.0690000057 0.1681765
v -0.113618962 -0.0685 0.167902887
v -0.113507435 -0.06875 0.168175682
v -0.113479726 -0.0690000057 0.168520287
v -0.113833278 -0.0685 0.168166742
v -0.113824323 -0.06875 0.168492571
v -0.1138235 -0.0690000057 0.168799534
v -0.1140971 -0.0685 0.16838105
v -0.114201017 -0.06875 0.168723837
v -0.1142086 -0.0690000057 0.168999046
v -0.114392646 -0.0685 0.168534145
v -0.114603788 -0.06875 0.16885823
v -0.114608787 -0.0690000057 0.169114113
v -0.11500001 -0.06875 0.168900013
v -0.114699766 -0.0685 0.168622464
v -0.11500001 -0.0690000057 0.16915001
v -0.11500001 -0.0685 0.16865
v -0.115391225 -0.0690000057 0.169114113
v -0.115300238 -0.0685 0.168622464
v -0.115396224 -0.06875 0.16885823
v -0.11579141 -0.0690000057 0.168999046
v -0.115992792 -0.06875 0.16861999
v -0.115607366 -0.0685 0.168534145
v -0.1161765 -0.0690000057 0.168799534
v -0.115902908 -0.0685 0.16838105
v -0.116520286 -0.0690000057 0.168520287
v -0.116166733 -0.0685 0.168166742
v -0.116492577 -0.06875 0.168175682
v -0.116799541 -0.0690000057 0.1681765
v -0.116803207 -0.06875 0.167598709
v -0.116381049 -0.0685 0.167902887
v -0.116999045 -0.0690000057 0.167791411
v -0.116534151 -0.0685 0.167607367
v -0.117114112 -0.0690000057 0.167391226
v -0.116622463 -0.0685 0.167300254
v -0.117150009 -0.0690000057 0.167000011
v -0.116650008 -0.0685 0.167000011
v -0.11285 -0.064 0.167000011
v -0.1128859 -0.064 0.166608781
v -0.113350004 -0.0645000041 0.167000011
v -0.113141775 -0.06425001 0.166603774
v -0.113377556 -0.0645000041 0.166699752
v -0.113000959 -0.064 0.1662086
v -0.11346586 -0.0645000041 0.166392654
v -0.113276161 -0.06425001 0.166201025
v -0.113200471 -0.064 0.165823519
v -0.113618962 -0.0645000041 0.166097119
v -0.113507435 -0.06425001 0.165824324
v -0.113479726 -0.064 0.16547972
v -0.113833278 -0.0645000041 0.1658333
v -0.113824323 -0.06425001 0.165507436
v -0.1138235 -0.064 0.165200472
v -0.1140971 -0.0645000041 0.165618956
v -0.114201017 -0.06425001 0.16527617
v -0.1142086 -0.064 0.165000975
v -0.114392646 -0.0645000041 0.165465862
v -0.114603788 -0.06425001 0.165141791
v -0.114608787 -0.064 0.164885908
v -0.11500001 -0.06425001 0.165100008
v -0.114699766 -0.0645000041 0.165377557
v -0.11500001 -0.064 0.164850026
v -0.11500001 -0.0645000041 0.16535
v -0.115391225 -0.064 0.164885908
v -0.115300238 -0.0645000041 0.165377557
v -0.115396224 -0.06425001 0.165141791
v -0.11579141 -0.064 0.165000975
v -0.115992792 -0.06425001 0.165380016
v -0.115607366 -0.0645000041 0.165465862
v -0.1161765 -0.064 0.165200472
v -0.115902908 -0.0645000041 0.165618956
v -0.116520286 -0.064 0.16547972
v -0.116166733 -0.0645000041 0.1658333
v -0.116492577 -0.06425001 0.165824324
v -0.116799541 -0.064 0.165823519
v -0.116803207 -0.06425001 0.166401327
v -0.116381049 -0.0645000041 0.166097119
v -0.116999045 -0.064 0.1662086
v -0.116534151 -0.0645000041 0.166392654
v -0.117114112 -0.064 0.166608781
v -0.116622463 -0.0645000041 0.166699752
v -0.117150009 -0.064 0.167000011
v -0.116650008 -0.0645000041 0.167000011
v -0.0855 -0.064 0.106608734
v -0.121207207 -0.064 0.1585032
v -0.0855 -0.064 0.115500011
v -0.0890539959 -0.064 0.140304372
v -0.05610799 -0.064 0.115500011
v -0.114608787 -0.064 0.164885908
v -0.11500001 -0.064 0.164850026
v -0.1142086 -0.064 0.165000975
v -0.121546388 -0.064 0.15908508
v -0.1138235 -0.064 0.165200472
v -0.113479726 -0.064 0.16547972
v -0.113200471 -0.064 0.165823519
v -0.121797234 -0.064 0.159718424
v -0.121949606 -0.064 0.16038239
v -0.122000009 -0.064 0.161054015
v -0.115391225 -0.064 0.164885908
v -0.106382079 -0.064 0.1724773
v -0.11579141 -0.064 0.165000975
v -0.113000959 -0.064 0.1662086
v -0.1161765 -0.064 0.165200472
v -0.1128859 -0.064 0.166608781
v -0.116520286 -0.064 0.16547972
v -0.11285 -0.064 0.167000011
v -0.1128859 -0.064 0.167391226
v -0.116799541 -0.064 0.165823519
v -0.116999045 -0.064 0.1662086
v -0.117114112 -0.064 0.166608781
v -0.113000959 -0.064 0.167791411
v -0.107075214 -0.064 0.173114076
v -0.10790538 -0.064 0.173601717
v -0.122000009 -0.064 0.169500023
v -0.113200471 -0.064 0.1681765
v -0.108820274 -0.064 0.173901558
v -0.117150009 -0.064 0.167000011
v -0.109756351 -0.064 0.174
v -0.117114112 -0.064 0.167391226
v -0.116999045 -0.064 0.167791411
v -0.113479726 -0.064 0.168520287
v -0.116799541 -0.064 0.1681765
v -0.1138235 -0.064 0.168799534
v -0.1142086 -0.064 0.168999046
v -0.114608787 -0.064 0.169114113
v -0.121924885 -0.064 0.170318842
v -0.12168406 -0.064 0.171156436
v -0.117500007 -0.064 0.174
v -0.121266484 -0.064 0.171962455
v -0.116520286 -0.064 0.168520287
v -0.11500001 -0.064 0.16915001
v -0.1161765 -0.064 0.168799534
v -0.115391225 -0.064 0.169114113
v -0.11579141 -0.064 0.168999046
v -0.120681986 -0.064 0.172681987
v -0.118318841 -0.064 0.173924878
v -0.119962454 -0.064 0.1732665
v -0.119156435 -0.064 0.173684061
v -0.113350004 -0.0645000041 0.167000011
v -0.113377556 -0.0645000041 0.167300254
v -0.11285 -0.064 0.167000011
v -0.113196805 -0.06425001 0.167598709
v -0.11346586 -0.0645000041 0.167607367
v -0.1128859 -0.064 0.167391226
v -0.113000959 -0.064 0.167791411
v -0.113618962 -0.0645000041 0.167902887
v -0.113200471 -0.064 0.1681765
v -0.113507435 -0.06425001 0.168175682
v -0.113833278 -0.0645000041 0.168166742
v -0.11400722 -0.06425001 0.16861999
v -0.113479726 -0.064 0.168520287
v -0.1140971 -0.0645000041 0.16838105
v -0.1138235 -0.064 0.168799534
v -0.114392646 -0.0645000041 0.168534145
v -0.1142086 -0.064 0.168999046
v -0.114603788 -0.06425001 0.16885823
v -0.114699766 -0.0645000041 0.168622464
v -0.11500001 -0.06425001 0.168900013
v -0.114608787 -0.064 0.169114113
v -0.11500001 -0.0645000041 0.16865
v -0.11500001 -0.064 0.16915001
v -0.115300238 -0.0645000041 0.168622464
v -0.115391225 -0.064 0.169114113
v -0.115396224 -0.06425001 0.16885823
v -0.115607366 -0.0645000041 0.168534145
v -0.11579141 -0.064 0.168999046
v -0.115798995 -0.06425001 0.168723837
v -0.115902908 -0.0645000041 0.16838105
v -0.1161765 -0.064 0.168799534
v -0.116175681 -0.06425001 0.168492571
v -0.116166733 -0.0645000041 0.168166742
v -0.116520286 -0.064 0.168520287
v -0.116492577 -0.06425001 0.168175682
v -0.116381049 -0.0645000041 0.167902887
v -0.116799541 -0.064 0.1681765
v -0.11672385 -0.06425001 0.167799
v -0.116534151 -0.0645000041 0.167607367
v -0.116999045 -0.064 0.167791411
v -0.116858229 -0.06425001 0.167396232
v -0.116622463 -0.0645000041 0.167300254
v -0.117114112 -0.064 0.167391226
v -0.116650008 -0.0645000041 0.167000011
v -0.117150009 -0.064 0.167000011
v -0.116650008 -0.0645000041 0.167000011
v -0.116650008 -0.0685 0.167000011
v -0.116622463 -0.0685 0.166699752
v -0.116613731 -0.0665 0.166655928
v -0.116622463 -0.0645000041 0.166699752
v -0.116534151 -0.0685 0.166392654
v -0.116534151 -0.0645000041 0.166392654
v -0.116497025 -0.0665 0.166306138
v -0.116381049 -0.0685 0.166097119
v -0.116381049 -0.0645000041 0.166097119
v -0.116296187 -0.0665 0.165979
v -0.116166733 -0.0685 0.1658333
v -0.116166733 -0.0645000041 0.1658333
v -0.116020992 -0.0665 0.165703818
v -0.115902908 -0.0685 0.165618956
v -0.115902908 -0.0645000041 0.165618956
v -0.115693867 -0.0665 0.165503
v -0.115607366 -0.0685 0.165465862
v -0.115607366 -0.0645000041 0.165465862
v -0.115344085 -0.0665 0.165386289
v -0.115300238 -0.0685 0.165377557
v -0.11500001 -0.0665 0.16535
v -0.115300238 -0.0645000041 0.165377557
v -0.11500001 -0.0685 0.16535
v -0.11500001 -0.0645000041 0.16535
v -0.114699766 -0.0685 0.165377557
v -0.114699766 -0.0645000041 0.165377557
v -0.114655927 -0.0665 0.165386289
v -0.114392646 -0.0685 0.165465862
v -0.114392646 -0.0645000041 0.165465862
v -0.114392646 -0.0665 0.165465862
v -0.114137858 -0.0665 0.165593177
v -0.1140971 -0.0685 0.165618956
v -0.1140971 -0.0645000041 0.165618956
v -0.1139043 -0.0665 0.165766343
v -0.113833278 -0.0685 0.1658333
v -0.113833278 -0.0645000041 0.1658333
v -0.113703832 -0.0665 0.165979
v -0.113618962 -0.0685 0.166097119
v -0.113618962 -0.0645000041 0.166097119
v -0.113545448 -0.0665 0.166221052
v -0.11346586 -0.0685 0.166392654
v -0.11346586 -0.0645000041 0.166392654
v -0.113434061 -0.0665 0.1664801
v -0.113377556 -0.0685 0.166699752
v -0.113377556 -0.0645000041 0.166699752
v -0.113370076 -0.0665 0.166743457
v -0.113350004 -0.0685 0.167000011
v -0.113350004 -0.0645000041 0.167000011
v -0.113377556 -0.0685 0.167300254
v -0.113386281 -0.0665 0.167344078
v -0.113377556 -0.0645000041 0.167300254
v -0.11346586 -0.0685 0.167607367
v -0.11346586 -0.0645000041 0.167607367
v -0.113502979 -0.0665 0.167693868
v -0.113618962 -0.0685 0.167902887
v -0.113618962 -0.0645000041 0.167902887
v -0.113703832 -0.0665 0.168021008
v -0.113833278 -0.0685 0.168166742
v -0.113833278 -0.0645000041 0.168166742
v -0.113979019 -0.0665 0.168296188
v -0.1140971 -0.0685 0.16838105
v -0.1140971 -0.0645000041 0.16838105
v -0.114306144 -0.0665 0.168497026
v -0.114392646 -0.0685 0.168534145
v -0.114392646 -0.0645000041 0.168534145
v -0.114655927 -0.0665 0.168613732
v -0.114699766 -0.0685 0.168622464
v -0.11500001 -0.0665 0.16865
v -0.114699766 -0.0645000041 0.168622464
v -0.11500001 -0.0685 0.16865
v -0.11500001 -0.0645000041 0.16865
v -0.115300238 -0.0685 0.168622464
v -0.115300238 -0.0645000041 0.168622464
v -0.115344085 -0.0665 0.168613732
v -0.115607366 -0.0685 0.168534145
v -0.115607366 -0.0645000041 0.168534145
v -0.115607366 -0.0665 0.168534145
v -0.115862153 -0.0665 0.168406829
v -0.115902908 -0.0685 0.16838105
v -0.115902908 -0.0645000041 0.16838105
v -0.116095707 -0.0665 0.168233663
v -0.116166733 -0.0685 0.168166742
v -0.116166733 -0.0645000041 0.168166742
v -0.116296187 -0.0665 0.168021008
v -0.116381049 -0.0685 0.167902887
v -0.116381049 -0.0645000041 0.167902887
v -0.116454557 -0.0665 0.167778954
v -0.116534151 -0.0685 0.167607367
v -0.116534151 -0.0645000041 0.167607367
v -0.116565943 -0.0665 0.167519912
v -0.116622463 -0.0685 0.167300254
v -0.116622463 -0.0645000041 0.167300254
v -0.116629936 -0.0665 0.167256564
v -0.116650008 -0.0685 0.167000011
v -0.116650008 -0.0645000041 0.167000011
v -0.08500001 -0.0635 0.106764138
v -0.08500001 -0.0645000041 0.105000004
v -0.0855 -0.064 0.106608734
v -0.103309564 -0.06437841 0.1318244
v -0.121619113 -0.0645000041 0.15821977
v -0.121207207 -0.064 0.1585032
v -0.122000009 -0.064 0.161054015
v -0.121949606 -0.064 0.16038239
v -0.1225 -0.0645000041 0.161054015
v -0.122035965 -0.06425001 0.159644216
v -0.121797234 -0.064 0.159718424
v -0.122444004 -0.0645000041 0.160307765
v -0.121546388 -0.064 0.15908508
v -0.122274712 -0.0645000041 0.159570038
v -0.121207207 -0.064 0.1585032
v -0.121995993 -0.0645000041 0.158866286
v -0.121619113 -0.0645000041 0.15821977
v -0.0563336238 -0.0635 0.11500001
v -0.05610799 -0.064 0.115500011
v -0.0550000034 -0.0645000041 0.11500001
v -0.08069104 -0.06425001 0.143738657
v -0.106382079 -0.064 0.1724773
v -0.106007159 -0.0645000041 0.172808111
v -0.113350004 -0.0685 0.167000011
v -0.113377556 -0.0685 0.166699752
v -0.11285 -0.0690000057 0.167000011
v -0.113196805 -0.06875 0.166401327
v -0.11346586 -0.0685 0.166392654
v -0.1128859 -0.0690000057 0.166608781
v -0.113000959 -0.0690000057 0.1662086
v -0.113618962 -0.0685 0.166097119
v -0.113200471 -0.0690000057 0.165823519
v -0.113507435 -0.06875 0.165824324
v -0.113833278 -0.0685 0.1658333
v -0.11400722 -0.06875 0.165380016
v -0.113479726 -0.0690000057 0.16547972
v -0.1140971 -0.0685 0.165618956
v -0.1138235 -0.0690000057 0.165200472
v -0.114392646 -0.0685 0.165465862
v -0.1142086 -0.0690000057 0.165000975
v -0.114603788 -0.06875 0.165141791
v -0.114699766 -0.0685 0.165377557
v -0.11500001 -0.06875 0.165100008
v -0.114608787 -0.0690000057 0.164885908
v -0.11500001 -0.0685 0.16535
v -0.11500001 -0.0690000057 0.164850026
v -0.115300238 -0.0685 0.165377557
v -0.115391225 -0.0690000057 0.164885908
v -0.115396224 -0.06875 0.165141791
v -0.115607366 -0.0685 0.165465862
v -0.11579141 -0.0690000057 0.165000975
v -0.115798995 -0.06875 0.16527617
v -0.115902908 -0.0685 0.165618956
v -0.1161765 -0.0690000057 0.165200472
v -0.116175681 -0.06875 0.165507436
v -0.116166733 -0.0685 0.1658333
v -0.116520286 -0.0690000057 0.16547972
v -0.116492577 -0.06875 0.165824324
v -0.116381049 -0.0685 0.166097119
v -0.116799541 -0.0690000057 0.165823519
v -0.11672385 -0.06875 0.166201025
v -0.116534151 -0.0685 0.166392654
v -0.116999045 -0.0690000057 0.1662086
v -0.116858229 -0.06875 0.166603774
v -0.116622463 -0.0685 0.166699752
v -0.117114112 -0.0690000057 0.166608781
v -0.116650008 -0.0685 0.167000011
v -0.117150009 -0.0690000057 0.167000011
v -0.0583500043 -0.0685 0.110000007
v -0.05837755 -0.0685 0.109699771
v -0.05785 -0.0690000057 0.110000007
v -0.058196798 -0.06875 0.109401308
v -0.0584658533 -0.0685 0.109392643
v -0.0578859 -0.0690000057 0.109608784
v -0.05800096 -0.0690000057 0.1092086
v -0.0586189553 -0.0685 0.1090971
v -0.0582004637 -0.0690000057 0.108823508
v -0.05850743 -0.06875 0.108824328
v -0.05883328 -0.0685 0.108833276
v -0.05900722 -0.06875 0.108380012
v -0.0584797226 -0.0690000057 0.108479723
v -0.0590971075 -0.0685 0.10861896
v -0.0588235036 -0.0690000057 0.108200468
v -0.059392646 -0.0685 0.108465858
v -0.0592086 -0.0690000057 0.108000964
v -0.0596037842 -0.06875 0.10814178
v -0.05969976 -0.0685 0.108377554
v -0.0600000024 -0.06875 0.108100012
v -0.05960878 -0.0690000057 0.1078859
v -0.0600000024 -0.0685 0.10835
v -0.0600000024 -0.0690000057 0.10785
v -0.0603002459 -0.0685 0.108377554
v -0.0603912249 -0.0690000057 0.1078859
v -0.0603962243 -0.06875 0.10814178
v -0.06060736 -0.0685 0.108465858
v -0.0607914068 -0.0690000057 0.108000964
v -0.06079899 -0.06875 0.108276159
v -0.0609029 -0.0685 0.10861896
v -0.0611765 -0.0690000057 0.108200468
v -0.06117569 -0.06875 0.108507432
v -0.06116673 -0.0685 0.108833276
v -0.0615202822 -0.0690000057 0.108479723
v -0.0614925772 -0.06875 0.108824328
v -0.06138105 -0.0685 0.1090971
v -0.0617995448 -0.0690000057 0.108823508
v -0.0617238432 -0.06875 0.109201014
v -0.0615341552 -0.0685 0.109392643
v -0.0619990453 -0.0690000057 0.1092086
v -0.06185823 -0.06875 0.109603792
v -0.0616224557 -0.0685 0.109699771
v -0.06211411 -0.0690000057 0.109608784
v -0.06165 -0.0685 0.110000007
v -0.0621500053 -0.0690000057 0.110000007
v -0.06165 -0.0685 0.110000007
v -0.06165 -0.0550000034 0.110000007
v -0.0616224557 -0.0550000034 0.110300243
v -0.06161373 -0.0617500059 0.1103441
v -0.0616224557 -0.0685 0.110300243
v -0.0615341552 -0.0550000034 0.110607363
v -0.0615341552 -0.0685 0.110607363
v -0.0614970177 -0.0617500059 0.110693865
v -0.06138105 -0.0550000034 0.110902905
v -0.06138105 -0.0685 0.110902905
v -0.0612961836 -0.0617500059 0.11102099
v -0.06116673 -0.0550000034 0.111166731
v -0.06116673 -0.0685 0.111166731
v -0.0610209927 -0.0617500059 0.111296184
v -0.0609029 -0.0550000034 0.111381046
v -0.0609029 -0.0685 0.111381046
v -0.0606938638 -0.0617500059 0.11149703
v -0.06060736 -0.0550000034 0.111534148
v -0.06060736 -0.0685 0.111534148
v -0.06034408 -0.0617500059 0.111613728
v -0.0603002459 -0.0550000034 0.111622468
v -0.0600000024 -0.0617500059 0.111650005
v -0.0603002459 -0.0685 0.111622468
v -0.0600000024 -0.0550000034 0.111650005
v -0.0600000024 -0.0685 0.111650005
v -0.05969976 -0.0550000034 0.111622468
v -0.05969976 -0.0685 0.111622468
v -0.0596559234 -0.0617500059 0.111613728
v -0.059392646 -0.0550000034 0.111534148
v -0.059392646 -0.0685 0.111534148
v -0.059392646 -0.0617500059 0.111534148
v -0.0591378473 -0.0617500059 0.111406848
v -0.0590971075 -0.0550000034 0.111381046
v -0.0590971075 -0.0685 0.111381046
v -0.0589042976 -0.0617500059 0.111233667
v -0.05883328 -0.0550000034 0.111166731
v -0.05883328 -0.0685 0.111166731
v -0.0587038249 -0.0617500059 0.11102099
v -0.0586189553 -0.0550000034 0.110902905
v -0.0586189553 -0.0685 0.110902905
v -0.05854544 -0.0617500059 0.110778958
v -0.0584658533 -0.0550000034 0.110607363
v -0.0584658533 -0.0685 0.110607363
v -0.05843406 -0.0617500059 0.110519931
v -0.05837755 -0.0550000034 0.110300243
v -0.05837755 -0.0685 0.110300243
v -0.05837007 -0.0617500059 0.110256553
v -0.0583500043 -0.0550000034 0.110000007
v -0.0583500043 -0.0685 0.110000007
v -0.05837755 -0.0550000034 0.109699771
v -0.0583862737 -0.0617500059 0.109655924
v -0.05837755 -0.0685 0.109699771
v -0.0584658533 -0.0550000034 0.109392643
v -0.0584658533 -0.0685 0.109392643
v -0.058502987 -0.0617500059 0.109306142
v -0.0586189553 -0.0550000034 0.1090971
v -0.0586189553 -0.0685 0.1090971
v -0.0587038249 -0.0617500059 0.108979017
v -0.05883328 -0.0550000034 0.108833276
v -0.05883328 -0.0685 0.108833276
v -0.0589790158 -0.0617500059 0.108703829
v -0.0590971075 -0.0550000034 0.10861896
v -0.0590971075 -0.0685 0.10861896
v -0.05930614 -0.0617500059 0.108502984
v -0.059392646 -0.0550000034 0.108465858
v -0.059392646 -0.0685 0.108465858
v -0.0596559234 -0.0617500059 0.108386286
v -0.05969976 -0.0550000034 0.108377554
v -0.0600000024 -0.0617500059 0.10835
v -0.05969976 -0.0685 0.108377554
v -0.0600000024 -0.0550000034 0.10835
v -0.0600000024 -0.0685 0.10835
v -0.0603002459 -0.0550000034 0.108377554
v -0.0603002459 -0.0685 0.108377554
v -0.06034408 -0.0617500059 0.108386286
v -0.06060736 -0.0550000034 0.108465858
v -0.06060736 -0.0685 0.108465858
v -0.06060736 -0.0617500059 0.108465858
v -0.0608621575 -0.0617500059 0.108593166
v -0.0609029 -0.0550000034 0.10861896
v -0.0609029 -0.0685 0.10861896
v -0.0610957071 -0.0617500059 0.10876634
v -0.06116673 -0.0550000034 0.108833276
v -0.06116673 -0.0685 0.108833276
v -0.0612961836 -0.0617500059 0.108979017
v -0.06138105 -0.0550000034 0.1090971
v -0.06138105 -0.0685 0.1090971
v -0.0614545643 -0.0617500059 0.109221049
v -0.0615341552 -0.0550000034 0.109392643
v -0.0615341552 -0.0685 0.109392643
v -0.0615659431 -0.0617500059 0.109480083
v -0.0616224557 -0.0550000034 0.109699771
v -0.0616224557 -0.0685 0.109699771
v -0.0616299361 -0.0617500059 0.109743461
v -0.06165 -0.0550000034 0.110000007
v -0.06165 -0.0685 0.110000007
v -0.0816500038 -0.0685 0.110000007
v -0.0816500038 -0.0550000034 0.110000007
v -0.08162246 -0.0550000034 0.110300243
v -0.08161373 -0.0617500059 0.1103441
v -0.08162246 -0.0685 0.110300243
v -0.0815341547 -0.0550000034 0.110607363
v -0.0815341547 -0.0685 0.110607363
v -0.08149702 -0.0617500059 0.110693865
v -0.08138105 -0.0550000034 0.110902905
v -0.08138105 -0.0685 0.110902905
v -0.08129618 -0.0617500059 0.11102099
v -0.08116673 -0.0550000034 0.111166731
v -0.08116673 -0.0685 0.111166731
v -0.08102098 -0.0617500059 0.111296184
v -0.0809029043 -0.0550000034 0.111381046
v -0.0809029043 -0.0685 0.111381046
v -0.0806938559 -0.0617500059 0.11149703
v -0.0806073546 -0.0550000034 0.111534148
v -0.0806073546 -0.0685 0.111534148
v -0.08034409 -0.0617500059 0.111613728
v -0.08030024 -0.0550000034 0.111622468
v -0.0800000057 -0.0617500059 0.111650005
v -0.08030024 -0.0685 0.111622468
v -0.0800000057 -0.0550000034 0.111650005
v -0.0800000057 -0.0685 0.111650005
v -0.07969976 -0.0550000034 0.111622468
v -0.07969976 -0.0685 0.111622468
v -0.07965593 -0.0617500059 0.111613728
v -0.07939265 -0.0550000034 0.111534148
v -0.07939265 -0.0685 0.111534148
v -0.07939265 -0.0617500059 0.111534148
v -0.07913785 -0.0617500059 0.111406848
v -0.07909711 -0.0550000034 0.111381046
v -0.07909711 -0.0685 0.111381046
v -0.0789043 -0.0617500059 0.111233667
v -0.07883328 -0.0550000034 0.111166731
v -0.07883328 -0.0685 0.111166731
v -0.07870383 -0.0617500059 0.11102099
v -0.07861896 -0.0550000034 0.110902905
v -0.07861896 -0.0685 0.110902905
v -0.07854544 -0.0617500059 0.110778958
v -0.07846586 -0.0550000034 0.110607363
v -0.07846586 -0.0685 0.110607363
v -0.07843406 -0.0617500059 0.110519931
v -0.0783775449 -0.0550000034 0.110300243
v -0.0783775449 -0.0685 0.110300243
v -0.0783700645 -0.0617500059 0.110256553
v -0.07835001 -0.0550000034 0.110000007
v -0.07835001 -0.0685 0.110000007
v -0.0783775449 -0.0550000034 0.109699771
v -0.07838628 -0.0617500059 0.109655924
v -0.0783775449 -0.0685 0.109699771
v -0.07846586 -0.0550000034 0.109392643
v -0.07846586 -0.0685 0.109392643
v -0.07850298 -0.0617500059 0.109306142
v -0.07861896 -0.0550000034 0.1090971
v -0.07861896 -0.0685 0.1090971
v -0.07870383 -0.0617500059 0.108979017
v -0.07883328 -0.0550000034 0.108833276
v -0.07883328 -0.0685 0.108833276
v -0.0789790154 -0.0617500059 0.108703829
v -0.07909711 -0.0550000034 0.10861896
v -0.07909711 -0.0685 0.10861896
v -0.07930614 -0.0617500059 0.108502984
v -0.07939265 -0.0550000034 0.108465858
v -0.07939265 -0.0685 0.108465858
v -0.07965593 -0.0617500059 0.108386286
v -0.07969976 -0.0550000034 0.108377554
v -0.0800000057 -0.0617500059 0.10835
v -0.07969976 -0.0685 0.108377554
v -0.0800000057 -0.0550000034 0.10835
v -0.0800000057 -0.0685 0.10835
v -0.08030024 -0.0550000034 0.108377554
v -0.08030024 -0.0685 0.108377554
v -0.08034409 -0.0617500059 0.108386286
v -0.0806073546 -0.0550000034 0.108465858
v -0.0806073546 -0.0685 0.108465858
v -0.0806073546 -0.0617500059 0.108465858
v -0.08086216 -0.0617500059 0.108593166
v -0.0809029043 -0.0550000034 0.10861896
v -0.0809029043 -0.0685 0.10861896
v -0.0810957 -0.0617500059 0.10876634
v -0.08116673 -0.0550000034 0.108833276
v -0.08116673 -0.0685 0.108833276
v -0.08129618 -0.0617500059 0.108979017
v -0.08138105 -0.0550000034 0.1090971
v -0.08138105 -0.0685 0.1090971
v -0.08145456 -0.0617500059 0.109221049
v -0.0815341547 -0.0550000034 0.109392643
v -0.0815341547 -0.0685 0.109392643
v -0.08156595 -0.0617500059 0.109480083
v -0.08162246 -0.0550000034 0.109699771
v -0.08162246 -0.0685 0.109699771
v -0.08162994 -0.0617500059 0.109743461
v -0.0816500038 -0.0550000034 0.110000007
v -0.0816500038 -0.0685 0.110000007
v -0.121207207 -0.0690000057 0.1585032
v -0.121546388 -0.0690000057 0.15908508
v -0.121619113 -0.0685 0.15821977
v -0.122035965 -0.06875 0.159644216
v -0.121797234 -0.0690000057 0.159718424
v -0.121995993 -0.0685 0.158866286
v -0.121949606 -0.0690000057 0.16038239
v -0.122274712 -0.0685 0.159570038
v -0.122000009 -0.0690000057 0.161054015
v -0.122444004 -0.0685 0.160307765
v -0.1225 -0.0685 0.161054015
v -0.08500001 -0.0645000041 0.105000004
v -0.08500001 -0.0635 0.106764138
v -0.08500001 -0.0550000034 0.105000004
v -0.08500001 -0.0597500019 0.110000007
v -0.08500001 -0.0635 0.11500001
v -0.08500001 -0.0550000034 0.11500001
v -0.0563336238 -0.0635 0.11500001
v -0.0550000034 -0.0645000041 0.11500001
v -0.0550000034 -0.0550000034 0.11500001
v -0.07 -0.0597500019 0.11500001
v -0.08500001 -0.0635 0.11500001
v -0.08500001 -0.0550000034 0.11500001
v -0.0550000034 -0.0550000034 0.11500001
v -0.05837755 -0.0550000034 0.110300243
v -0.0584658533 -0.0550000034 0.110607363
v -0.0586189553 -0.0550000034 0.110902905
v -0.05883328 -0.0550000034 0.111166731
v -0.0590971075 -0.0550000034 0.111381046
v -0.059392646 -0.0550000034 0.111534148
v -0.05969976 -0.0550000034 0.111622468
v -0.0600000024 -0.0550000034 0.111650005
v -0.0583500043 -0.0550000034 0.110000007
v -0.0603002459 -0.0550000034 0.111622468
v -0.0550000034 -0.0550000034 0.105000004
v -0.05837755 -0.0550000034 0.109699771
v -0.0584658533 -0.0550000034 0.109392643
v -0.0586189553 -0.0550000034 0.1090971
v -0.05883328 -0.0550000034 0.108833276
v -0.0590971075 -0.0550000034 0.10861896
v -0.059392646 -0.0550000034 0.108465858
v -0.05969976 -0.0550000034 0.108377554
v -0.0600000024 -0.0550000034 0.10835
v -0.0603002459 -0.0550000034 0.108377554
v -0.08500001 -0.0550000034 0.11500001
v -0.07 -0.0550000034 0.10835
v -0.06060736 -0.0550000034 0.108465858
v -0.0609029 -0.0550000034 0.10861896
v -0.06116673 -0.0550000034 0.108833276
v -0.06138105 -0.0550000034 0.1090971
v -0.0615341552 -0.0550000034 0.109392643
v -0.08500001 -0.0550000034 0.105000004
v -0.07 -0.0550000034 0.110000007
v -0.0616224557 -0.0550000034 0.109699771
v -0.06165 -0.0550000034 0.110000007
v -0.0616224557 -0.0550000034 0.110300243
v -0.0615341552 -0.0550000034 0.110607363
v -0.06138105 -0.0550000034 0.110902905
v -0.06116673 -0.0550000034 0.111166731
v -0.0609029 -0.0550000034 0.111381046
v -0.06060736 -0.0550000034 0.111534148
v -0.07939265 -0.0550000034 0.111534148
v -0.07909711 -0.0550000034 0.111381046
v -0.07883328 -0.0550000034 0.111166731
v -0.07969976 -0.0550000034 0.111622468
v -0.0800000057 -0.0550000034 0.111650005
v -0.08030024 -0.0550000034 0.111622468
v -0.0806073546 -0.0550000034 0.111534148
v -0.07861896 -0.0550000034 0.110902905
v -0.0809029043 -0.0550000034 0.111381046
v -0.07846586 -0.0550000034 0.110607363
v -0.08116673 -0.0550000034 0.111166731
v -0.0783775449 -0.0550000034 0.110300243
v -0.08138105 -0.0550000034 0.110902905
v -0.07835001 -0.0550000034 0.110000007
v -0.0783775449 -0.0550000034 0.109699771
v -0.07846586 -0.0550000034 0.109392643
v -0.0815341547 -0.0550000034 0.110607363
v -0.08162246 -0.0550000034 0.110300243
v -0.0816500038 -0.0550000034 0.110000007
v -0.08162246 -0.0550000034 0.109699771
v -0.0815341547 -0.0550000034 0.109392643
v -0.08138105 -0.0550000034 0.1090971
v -0.08116673 -0.0550000034 0.108833276
v -0.07861896 -0.0550000034 0.1090971
v -0.0809029043 -0.0550000034 0.10861896
v -0.07883328 -0.0550000034 0.108833276
v -0.0806073546 -0.0550000034 0.108465858
v -0.07909711 -0.0550000034 0.10861896
v -0.07939265 -0.0550000034 0.108465858
v -0.07969976 -0.0550000034 0.108377554
v -0.08030024 -0.0550000034 0.108377554
v -0.0800000057 -0.0550000034 0.10835
v -0.113628171 -0.0665 0.174500018
v -0.109756351 -0.0685 0.174500018
v -0.109756351 -0.0645000041 0.174500018
v -0.117500007 -0.0645000041 0.174500018
v -0.117500007 -0.0685 0.174500018
v -0.08050358 -0.0665 0.14390406
v -0.0550000034 -0.0685 0.11500001
v -0.0550000034 -0.0645000041 0.11500001
v -0.106007159 -0.0645000041 0.172808111
v -0.106007159 -0.0685 0.172808111
v -0.108716264 -0.0665 0.174390644
v -0.108716264 -0.0685 0.174390644
v -0.107699715 -0.0685 0.174057454
v -0.109756351 -0.0685 0.174500018
v -0.109756351 -0.0645000041 0.174500018
v -0.108716264 -0.0645000041 0.174390644
v -0.107699715 -0.0665 0.174057454
v -0.10677731 -0.0685 0.173515663
v -0.107699715 -0.0645000041 0.174057454
v -0.10677731 -0.0665 0.173515663
v -0.106007159 -0.0685 0.172808111
v -0.10677731 -0.0645000041 0.173515663
v -0.106007159 -0.0645000041 0.172808111
v -0.122416534 -0.0665 0.170409828
v -0.122416534 -0.0685 0.170409828
v -0.122148953 -0.0685 0.17134048
v -0.1225 -0.0685 0.169500023
v -0.1225 -0.0645000041 0.169500023
v -0.122416534 -0.0645000041 0.170409828
v -0.122148953 -0.0665 0.17134048
v -0.121684983 -0.0685 0.172236055
v -0.122148953 -0.0645000041 0.17134048
v -0.121684983 -0.0665 0.172236055
v -0.121035546 -0.0685 0.173035547
v -0.121684983 -0.0645000041 0.172236055
v -0.121035546 -0.0665 0.173035547
v -0.120236062 -0.0685 0.173684984
v -0.121035546 -0.0645000041 0.173035547
v -0.120236062 -0.0665 0.173684984
v -0.119340487 -0.0685 0.174148962
v -0.120236062 -0.0645000041 0.173684984
v -0.119340487 -0.0665 0.174148962
v -0.118409827 -0.0685 0.174416527
v -0.119340487 -0.0645000041 0.174148962
v -0.118409827 -0.0665 0.174416527
v -0.117500007 -0.0685 0.174500018
v -0.118409827 -0.0645000041 0.174416527
v -0.117500007 -0.0645000041 0.174500018
v -0.0550000034 -0.0617500059 0.110000007
v -0.0550000034 -0.0645000041 0.11500001
v -0.0550000034 -0.0685 0.11500001
v -0.0550000034 -0.0685 0.105000004
v -0.0550000034 -0.0550000034 0.11500001
v -0.0550000034 -0.0550000034 0.105000004
v -0.07 -0.0617500059 0.105000004
v -0.0550000034 -0.0685 0.105000004
v -0.08500001 -0.0685 0.105000004
v -0.08500001 -0.0645000041 0.105000004
v -0.0550000034 -0.0550000034 0.105000004
v -0.08500001 -0.0550000034 0.105000004
v -0.103309564 -0.0665 0.1316099
v -0.121619113 -0.0685 0.15821977
v -0.121619113 -0.0645000041 0.15821977
v -0.08500001 -0.0645000041 0.105000004
v -0.08500001 -0.0685 0.105000004
v -0.121995993 -0.0665 0.158866286
v -0.121995993 -0.0685 0.158866286
v -0.122274712 -0.0685 0.159570038
v -0.121619113 -0.0685 0.15821977
v -0.121619113 -0.0645000041 0.15821977
v -0.121995993 -0.0645000041 0.158866286
v -0.122274712 -0.0665 0.159570038
v -0.122444004 -0.0685 0.160307765
v -0.122274712 -0.0645000041 0.159570038
v -0.122444004 -0.0665 0.160307765
v -0.1225 -0.0685 0.161054015
v -0.122444004 -0.0645000041 0.160307765
v -0.1225 -0.0645000041 0.161054015
v -0.1225 -0.0665 0.165277
v -0.1225 -0.0685 0.169500023
v -0.1225 -0.0645000041 0.169500023
v -0.1225 -0.0645000041 0.161054015
v -0.1225 -0.0685 0.161054015
v -0.07 -0.06875 0.10525
v -0.08473711 -0.0690000057 0.105500005
v -0.08500001 -0.0685 0.105000004
v -0.0550000034 -0.0685 0.105000004
v -0.0555000044 -0.0690000057 0.105500005
v -0.103178114 -0.06870355 0.131777942
v -0.121207207 -0.0690000057 0.1585032
v -0.121619113 -0.0685 0.15821977
v -0.08500001 -0.0685 0.105000004
v -0.08473711 -0.0690000057 0.105500005
v -0.122250013 -0.06875 0.165277
v -0.1225 -0.0685 0.169500023
v -0.1225 -0.0685 0.161054015
v -0.122000009 -0.0690000057 0.161054015
v -0.122000009 -0.0690000057 0.169500023
v -0.117500007 -0.0685 0.174500018
v -0.118364327 -0.06875 0.174170718
v -0.117500007 -0.0690000057 0.174
v -0.118409827 -0.0685 0.174416527
v -0.118318841 -0.0690000057 0.173924878
v -0.119340487 -0.0685 0.174148962
v -0.11924845 -0.06875 0.1739165
v -0.119156435 -0.0690000057 0.173684061
v -0.120236062 -0.0685 0.173684984
v -0.120099254 -0.06875 0.173475727
v -0.119962454 -0.0690000057 0.1732665
v -0.121035546 -0.0685 0.173035547
v -0.120858766 -0.06875 0.17285876
v -0.120681986 -0.0690000057 0.172681987
v -0.121684983 -0.0685 0.172236055
v -0.121475726 -0.06875 0.172099248
v -0.121266484 -0.0690000057 0.171962455
v -0.122148953 -0.0685 0.17134048
v -0.1219165 -0.06875 0.171248466
v -0.12168406 -0.0690000057 0.171156436
v -0.122416534 -0.0685 0.170409828
v -0.1221707 -0.06875 0.17036432
v -0.121924885 -0.0690000057 0.170318842
v -0.1225 -0.0685 0.169500023
v -0.122000009 -0.0690000057 0.169500023
v -0.113628171 -0.06875 0.17425
v -0.109756351 -0.0685 0.174500018
v -0.117500007 -0.0685 0.174500018
v -0.117500007 -0.0690000057 0.174
v -0.109756351 -0.0690000057 0.174
v -0.106007159 -0.0685 0.172808111
v -0.106926262 -0.06875 0.173314869
v -0.106382079 -0.0690000057 0.1724773
v -0.10677731 -0.0685 0.173515663
v -0.107075214 -0.0690000057 0.173114076
v -0.107699715 -0.0685 0.174057454
v -0.107802555 -0.06875 0.173829585
v -0.10790538 -0.0690000057 0.173601717
v -0.108716264 -0.0685 0.174390644
v -0.108768269 -0.06875 0.174146116
v -0.108820274 -0.0690000057 0.173901558
v -0.109756351 -0.0685 0.174500018
v -0.109756351 -0.0690000057 0.174
v -0.08069104 -0.06871739 0.14378795
v -0.106382079 -0.0690000057 0.1724773
v -0.0555000044 -0.0690000057 0.114810951
v -0.0550000034 -0.0685 0.11500001
v -0.106007159 -0.0685 0.172808111
v -0.0552500039 -0.06875 0.110000007
v -0.0555000044 -0.0690000057 0.114810951
v -0.0555000044 -0.0690000057 0.105500005
v -0.0550000034 -0.0685 0.105000004
v -0.0550000034 -0.0685 0.11500001
v -0.122000009 -0.0690000057 0.161054015
v -0.1161765 -0.0690000057 0.165200472
v -0.116520286 -0.0690000057 0.16547972
v -0.116799541 -0.0690000057 0.165823519
v -0.116999045 -0.0690000057 0.1662086
v -0.117114112 -0.0690000057 0.166608781
v -0.11579141 -0.0690000057 0.165000975
v -0.122000009 -0.0690000057 0.169500023
v -0.121949606 -0.0690000057 0.16038239
v -0.117150009 -0.0690000057 0.167000011
v -0.121797234 -0.0690000057 0.159718424
v -0.121546388 -0.0690000057 0.15908508
v -0.121207207 -0.0690000057 0.1585032
v -0.117114112 -0.0690000057 0.167391226
v -0.116999045 -0.0690000057 0.167791411
v -0.115391225 -0.0690000057 0.164885908
v -0.116799541 -0.0690000057 0.1681765
v -0.11500001 -0.0690000057 0.164850026
v -0.121924885 -0.0690000057 0.170318842
v -0.12168406 -0.0690000057 0.171156436
v -0.121266484 -0.0690000057 0.171962455
v -0.114608787 -0.0690000057 0.164885908
v -0.116520286 -0.0690000057 0.168520287
v -0.1142086 -0.0690000057 0.165000975
v -0.120681986 -0.0690000057 0.172681987
v -0.119962454 -0.0690000057 0.1732665
v -0.119156435 -0.0690000057 0.173684061
v -0.1161765 -0.0690000057 0.168799534
v -0.118318841 -0.0690000057 0.173924878
v -0.117500007 -0.0690000057 0.174
v -0.11579141 -0.0690000057 0.168999046
v -0.115391225 -0.0690000057 0.169114113
v -0.11500001 -0.0690000057 0.16915001
v -0.114608787 -0.0690000057 0.169114113
v -0.109756351 -0.0690000057 0.174
v -0.1142086 -0.0690000057 0.168999046
v -0.1138235 -0.0690000057 0.168799534
v -0.113479726 -0.0690000057 0.168520287
v -0.113200471 -0.0690000057 0.1681765
v -0.108820274 -0.0690000057 0.173901558
v -0.113000959 -0.0690000057 0.167791411
v -0.10790538 -0.0690000057 0.173601717
v -0.107075214 -0.0690000057 0.173114076
v -0.106382079 -0.0690000057 0.1724773
v -0.1128859 -0.0690000057 0.167391226
v -0.11285 -0.0690000057 0.167000011
v -0.1128859 -0.0690000057 0.166608781
v -0.113000959 -0.0690000057 0.1662086
v -0.113200471 -0.0690000057 0.165823519
v -0.0887500048 -0.0690000057 0.13975
v -0.113479726 -0.0690000057 0.16547972
v -0.1138235 -0.0690000057 0.165200472
v -0.0555000044 -0.0690000057 0.114810951
v -0.08473711 -0.0690000057 0.105500005
v -0.08199905 -0.0690000057 0.110791408
v -0.0817995444 -0.0690000057 0.111176506
v -0.08152029 -0.0690000057 0.11152029
v -0.0811765045 -0.0690000057 0.111799538
v -0.08211411 -0.0690000057 0.110391222
v -0.0807914138 -0.0690000057 0.11199905
v -0.08215001 -0.0690000057 0.110000007
v -0.08211411 -0.0690000057 0.109608784
v -0.08199905 -0.0690000057 0.1092086
v -0.0817995444 -0.0690000057 0.108823508
v -0.08152029 -0.0690000057 0.108479723
v -0.08039123 -0.0690000057 0.112114109
v -0.0811765045 -0.0690000057 0.108200468
v -0.0800000057 -0.0690000057 0.112150006
v -0.0807914138 -0.0690000057 0.108000964
v -0.07960878 -0.0690000057 0.112114109
v -0.08039123 -0.0690000057 0.1078859
v -0.0800000057 -0.0690000057 0.10785
v -0.07960878 -0.0690000057 0.1078859
v -0.079208605 -0.0690000057 0.108000964
v -0.079208605 -0.0690000057 0.11199905
v -0.0555000044 -0.0690000057 0.105500005
v -0.0607914068 -0.0690000057 0.11199905
v -0.0788235 -0.0690000057 0.111799538
v -0.0611765 -0.0690000057 0.111799538
v -0.0603912249 -0.0690000057 0.112114109
v -0.0600000024 -0.0690000057 0.112150006
v -0.05960878 -0.0690000057 0.112114109
v -0.0592086 -0.0690000057 0.11199905
v -0.07847972 -0.0690000057 0.11152029
v -0.0615202822 -0.0690000057 0.11152029
v -0.07820047 -0.0690000057 0.111176506
v -0.0617995448 -0.0690000057 0.111176506
v -0.0780009553 -0.0690000057 0.110791408
v -0.0619990453 -0.0690000057 0.110791408
v -0.077885896 -0.0690000057 0.110391222
v -0.06211411 -0.0690000057 0.110391222
v -0.07785001 -0.0690000057 0.110000007
v -0.0621500053 -0.0690000057 0.110000007
v -0.077885896 -0.0690000057 0.109608784
v -0.06211411 -0.0690000057 0.109608784
v -0.0780009553 -0.0690000057 0.1092086
v -0.0619990453 -0.0690000057 0.1092086
v -0.07820047 -0.0690000057 0.108823508
v -0.0617995448 -0.0690000057 0.108823508
v -0.07847972 -0.0690000057 0.108479723
v -0.0615202822 -0.0690000057 0.108479723
v -0.0788235 -0.0690000057 0.108200468
v -0.0611765 -0.0690000057 0.108200468
v -0.0607914068 -0.0690000057 0.108000964
v -0.0603912249 -0.0690000057 0.1078859
v -0.0600000024 -0.0690000057 0.10785
v -0.05960878 -0.0690000057 0.1078859
v -0.0592086 -0.0690000057 0.108000964
v -0.0588235036 -0.0690000057 0.108200468
v -0.0584797226 -0.0690000057 0.108479723
v -0.0582004637 -0.0690000057 0.108823508
v -0.05800096 -0.0690000057 0.1092086
v -0.0578859 -0.0690000057 0.109608784
v -0.05785 -0.0690000057 0.110000007
v -0.0578859 -0.0690000057 0.110391222
v -0.05800096 -0.0690000057 0.110791408
v -0.0582004637 -0.0690000057 0.111176506
v -0.0584797226 -0.0690000057 0.11152029
v -0.0588235036 -0.0690000057 0.111799538
v -0.109756351 -0.0645000041 0.174500018
v -0.108768269 -0.06425001 0.174146116
v -0.109756351 -0.064 0.174
v -0.108716264 -0.0645000041 0.174390644
v -0.108820274 -0.064 0.173901558
v -0.107699715 -0.0645000041 0.174057454
v -0.107802555 -0.06425001 0.173829585
v -0.10790538 -0.064 0.173601717
v -0.10677731 -0.0645000041 0.173515663
v -0.106926262 -0.06425001 0.173314869
v -0.107075214 -0.064 0.173114076
v -0.106007159 -0.0645000041 0.172808111
v -0.106382079 -0.064 0.1724773
v -0.113628171 -0.06425001 0.17425
v -0.117500007 -0.0645000041 0.174500018
v -0.109756351 -0.0645000041 0.174500018
v -0.109756351 -0.064 0.174
v -0.117500007 -0.064 0.174
v -0.1225 -0.0645000041 0.169500023
v -0.1221707 -0.06425001 0.17036432
v -0.122000009 -0.064 0.169500023
v -0.122416534 -0.0645000041 0.170409828
v -0.121924885 -0.064 0.170318842
v -0.122148953 -0.0645000041 0.17134048
v -0.1219165 -0.06425001 0.171248466
v -0.12168406 -0.064 0.171156436
v -0.121684983 -0.0645000041 0.172236055
v -0.121475726 -0.06425001 0.172099248
v -0.121266484 -0.064 0.171962455
v -0.121035546 -0.0645000041 0.173035547
v -0.120858766 -0.06425001 0.17285876
v -0.120681986 -0.064 0.172681987
v -0.120236062 -0.0645000041 0.173684984
v -0.120099254 -0.06425001 0.173475727
v -0.119962454 -0.064 0.1732665
v -0.119340487 -0.0645000041 0.174148962
v -0.11924845 -0.06425001 0.1739165
v -0.119156435 -0.064 0.173684061
v -0.118409827 -0.0645000041 0.174416527
v -0.118364327 -0.06425001 0.174170718
v -0.118318841 -0.064 0.173924878
v -0.117500007 -0.0645000041 0.174500018
v -0.117500007 -0.064 0.174
v -0.122250013 -0.06425001 0.165277
v -0.1225 -0.0645000041 0.161054015
v -0.1225 -0.0645000041 0.169500023
v -0.122000009 -0.064 0.169500023
v -0.122000009 -0.064 0.161054015
v -0.0855 -0.064 0.115500011
v -0.070804 -0.0637500063 0.115250006
v -0.08500001 -0.0635 0.11500001
v -0.05610799 -0.064 0.115500011
v -0.0563336238 -0.0635 0.11500001
v -0.08500001 -0.0635 0.11500001
v -0.08525 -0.0637500063 0.111054368
v -0.0855 -0.064 0.115500011
v -0.08500001 -0.0635 0.106764138
v -0.0855 -0.064 0.106608734
f 1 2 3
f 1 3 4
f 5 1 4
f 4 3 6
f 7 5 4
f 4 6 8
f 9 7 4
f 10 4 8
f 9 4 10
f 10 8 11
f 12 10 11
f 13 9 10
f 13 10 12
f 12 11 14
f 15 13 12
f 12 14 16
f 17 15 12
f 18 12 16
f 17 12 18
f 18 16 19
f 20 18 19
f 21 17 18
f 21 18 20
f 20 19 22
f 23 21 20
f 20 22 24
f 25 23 20
f 26 20 24
f 25 20 26
f 26 24 27
f 28 25 26
f 29 26 27
f 28 26 29
f 29 27 30
f 31 28 29
f 32 29 30
f 31 29 32
f 32 30 33
f 34 31 32
f 35 32 33
f 34 32 35
f 35 33 36
f 37 34 35
f 38 35 36
f 37 35 38
f 38 36 39
f 40 37 38
f 41 38 39
f 40 38 41
f 41 39 42
f 43 40 41
f 44 41 42
f 43 41 44
f 45 43 44
f 44 46 45
f 46 47 45
f 46 48 47
f 45 47 49
f 47 50 49
f 48 51 47
f 47 52 50
f 51 53 47
f 47 53 52
f 51 54 53
f 54 55 53
f 53 56 52
f 53 55 56
f 54 57 55
f 55 58 56
f 57 59 55
f 55 60 58
f 59 61 55
f 55 61 60
f 59 62 61
f 62 63 61
f 61 64 60
f 61 63 64
f 62 65 63
f 63 66 64
f 65 67 63
f 63 68 66
f 67 69 63
f 63 69 68
f 67 70 69
f 69 71 68
f 70 72 69
f 69 72 71
f 70 73 72
f 72 74 71
f 73 75 72
f 72 75 74
f 73 76 75
f 75 77 74
f 76 78 75
f 75 78 77
f 76 79 78
f 78 80 77
f 79 81 78
f 78 81 80
f 79 82 81
f 81 83 80
f 82 84 81
f 81 84 83
f 82 85 84
f 84 86 83
f 85 87 84
f 87 86 84
f 87 88 86
f 89 90 91
f 90 92 91
f 91 92 93
f 90 94 92
f 92 95 93
f 94 96 92
f 92 96 95
f 94 97 96
f 96 98 95
f 97 99 96
f 96 99 98
f 97 100 99
f 99 101 98
f 100 102 99
f 99 102 101
f 100 103 102
f 102 104 101
f 103 105 102
f 102 105 104
f 103 106 105
f 105 107 104
f 106 108 105
f 105 108 107
f 106 109 108
f 109 110 108
f 108 111 107
f 108 110 111
f 109 112 110
f 110 113 111
f 112 114 110
f 110 115 113
f 114 116 110
f 110 116 115
f 114 117 116
f 117 118 116
f 116 119 115
f 116 118 119
f 117 120 118
f 118 121 119
f 120 122 118
f 118 123 121
f 122 124 118
f 118 124 123
f 122 125 124
f 125 126 124
f 124 127 123
f 124 126 127
f 125 128 126
f 126 129 127
f 128 130 126
f 126 131 129
f 130 132 126
f 132 131 126
f 132 133 131
f 134 135 136
f 135 137 136
f 136 137 138
f 135 139 137
f 137 140 138
f 139 141 137
f 137 141 140
f 139 142 141
f 141 143 140
f 142 144 141
f 141 144 143
f 142 145 144
f 144 146 143
f 145 147 144
f 144 147 146
f 145 148 147
f 147 149 146
f 148 150 147
f 147 150 149
f 148 151 150
f 150 152 149
f 151 153 150
f 150 153 152
f 151 154 153
f 154 155 153
f 153 156 152
f 153 155 156
f 154 157 155
f 155 158 156
f 157 159 155
f 155 160 158
f 159 161 155
f 155 161 160
f 159 162 161
f 162 163 161
f 161 164 160
f 161 163 164
f 162 165 163
f 163 166 164
f 165 167 163
f 163 168 166
f 167 169 163
f 163 169 168
f 167 170 169
f 170 171 169
f 169 172 168
f 169 171 172
f 170 173 171
f 171 174 172
f 173 175 171
f 171 176 174
f 175 177 171
f 177 176 171
f 177 178 176
f 179 180 181
f 180 182 181
f 181 182 183
f 180 184 182
f 182 185 183
f 184 186 182
f 182 186 185
f 184 187 186
f 186 188 185
f 187 189 186
f 186 189 188
f 187 190 189
f 189 191 188
f 190 192 189
f 189 192 191
f 190 193 192
f 192 194 191
f 193 195 192
f 192 195 194
f 193 196 195
f 195 197 194
f 196 198 195
f 195 198 197
f 196 199 198
f 199 200 198
f 198 201 197
f 198 200 201
f 199 202 200
f 200 203 201
f 202 204 200
f 200 205 203
f 204 206 200
f 200 206 205
f 204 207 206
f 207 208 206
f 206 209 205
f 206 208 209
f 207 210 208
f 208 211 209
f 210 212 208
f 208 213 211
f 212 214 208
f 208 214 213
f 212 215 214
f 215 216 214
f 214 217 213
f 214 216 217
f 215 218 216
f 216 219 217
f 218 220 216
f 216 221 219
f 220 222 216
f 222 221 216
f 222 223 221
f 224 225 226
f 225 227 226
f 226 227 228
f 225 229 227
f 229 228 227
f 230 229 225
f 229 231 228
f 230 225 232
f 231 233 228
f 233 234 228
f 234 235 228
f 236 230 232
f 230 236 237
f 230 237 238
f 239 230 238
f 235 240 228
f 241 239 238
f 235 242 240
f 243 241 238
f 242 244 240
f 245 243 238
f 244 246 240
f 246 247 240
f 248 245 238
f 249 248 238
f 250 249 238
f 247 251 240
f 251 252 240
f 251 253 252
f 250 238 254
f 251 255 253
f 255 256 253
f 257 250 254
f 255 258 256
f 259 257 254
f 260 259 254
f 258 255 261
f 262 260 254
f 263 258 261
f 258 263 264
f 258 264 265
f 266 262 254
f 262 266 267
f 268 258 265
f 262 267 269
f 270 262 269
f 268 265 271
f 272 270 269
f 273 268 271
f 268 273 274
f 268 274 272
f 275 272 269
f 276 268 272
f 272 275 277
f 276 272 278
f 272 277 278
f 279 280 281
f 280 282 281
f 280 283 282
f 281 282 284
f 282 285 284
f 283 286 282
f 282 287 285
f 286 288 282
f 282 288 287
f 286 289 288
f 289 290 288
f 288 291 287
f 288 290 291
f 289 292 290
f 290 293 291
f 292 294 290
f 290 295 293
f 294 296 290
f 290 296 295
f 294 297 296
f 297 298 296
f 296 299 295
f 296 298 299
f 297 300 298
f 298 301 299
f 300 302 298
f 298 303 301
f 302 304 298
f 298 304 303
f 302 305 304
f 304 306 303
f 305 307 304
f 304 307 306
f 305 308 307
f 307 309 306
f 308 310 307
f 307 310 309
f 308 311 310
f 310 312 309
f 311 313 310
f 310 313 312
f 311 314 313
f 313 315 312
f 314 316 313
f 313 316 315
f 314 317 316
f 316 318 315
f 317 319 316
f 316 319 318
f 317 320 319
f 319 321 318
f 320 322 319
f 322 321 319
f 322 323 321
f 324 325 326
f 324 326 327
f 328 324 327
f 327 326 329
f 330 328 327
f 331 327 329
f 330 327 331
f 331 329 332
f 333 330 331
f 334 331 332
f 333 331 334
f 334 332 335
f 336 333 334
f 337 334 335
f 336 334 337
f 337 335 338
f 339 336 337
f 340 337 338
f 339 337 340
f 340 338 341
f 342 339 340
f 343 340 341
f 342 340 343
f 343 341 344
f 345 343 344
f 346 342 343
f 346 343 345
f 345 344 347
f 348 346 345
f 349 345 347
f 350 348 345
f 351 345 349
f 350 345 351
f 352 351 349
f 353 350 351
f 354 351 352
f 354 353 351
f 355 354 352
f 354 355 353
f 355 352 356
f 355 357 353
f 358 355 356
f 355 358 357
f 358 356 359
f 358 360 357
f 361 358 359
f 358 361 360
f 361 359 362
f 361 363 360
f 364 361 362
f 361 364 363
f 364 362 365
f 364 366 363
f 367 364 365
f 364 367 366
f 367 365 368
f 367 369 366
f 370 367 368
f 367 370 369
f 370 368 371
f 369 370 372
f 370 371 372
f 371 373 372
f 373 374 372
f 372 374 375
f 373 376 374
f 374 377 375
f 376 378 374
f 374 378 377
f 376 379 378
f 378 380 377
f 379 381 378
f 378 381 380
f 379 382 381
f 381 383 380
f 382 384 381
f 381 384 383
f 382 385 384
f 384 386 383
f 385 387 384
f 384 387 386
f 385 388 387
f 387 389 386
f 388 390 387
f 387 390 389
f 388 391 390
f 391 392 390
f 390 393 389
f 390 392 393
f 391 394 392
f 392 395 393
f 394 396 392
f 392 397 395
f 396 398 392
f 392 398 397
f 396 399 398
f 398 400 397
f 399 401 398
f 398 401 400
f 399 402 401
f 402 400 401
f 403 402 399
f 402 404 400
f 405 402 403
f 402 405 404
f 406 405 403
f 405 407 404
f 408 405 406
f 405 408 407
f 409 408 406
f 408 410 407
f 411 408 409
f 408 411 410
f 412 411 409
f 411 413 410
f 414 411 412
f 411 414 413
f 415 414 412
f 414 416 413
f 417 414 415
f 414 417 416
f 418 417 415
f 417 419 416
f 417 418 419
f 420 421 422
f 421 423 422
f 421 424 423
f 425 422 423
f 424 425 423
f 426 427 428
f 427 429 428
f 427 430 429
f 428 429 431
f 430 432 429
f 429 433 431
f 432 434 429
f 429 435 433
f 434 435 429
f 434 436 435
f 437 438 439
f 438 440 439
f 438 441 440
f 442 439 440
f 441 442 440
f 443 444 445
f 444 446 445
f 444 447 446
f 445 446 448
f 446 449 448
f 447 450 446
f 446 451 449
f 450 452 446
f 446 452 451
f 450 453 452
f 453 454 452
f 452 455 451
f 452 454 455
f 453 456 454
f 454 457 455
f 456 458 454
f 454 459 457
f 458 460 454
f 454 460 459
f 458 461 460
f 461 462 460
f 460 463 459
f 460 462 463
f 461 464 462
f 462 465 463
f 464 466 462
f 462 467 465
f 466 468 462
f 462 468 467
f 466 469 468
f 468 470 467
f 469 471 468
f 468 471 470
f 469 472 471
f 471 473 470
f 472 474 471
f 471 474 473
f 472 475 474
f 474 476 473
f 475 477 474
f 474 477 476
f 475 478 477
f 477 479 476
f 478 480 477
f 477 480 479
f 478 481 480
f 480 482 479
f 481 483 480
f 480 483 482
f 481 484 483
f 483 485 482
f 484 486 483
f 486 485 483
f 486 487 485
f 488 489 490
f 489 491 490
f 489 492 491
f 490 491 493
f 491 494 493
f 492 495 491
f 491 496 494
f 495 497 491
f 491 497 496
f 495 498 497
f 498 499 497
f 497 500 496
f 497 499 500
f 498 501 499
f 499 502 500
f 501 503 499
f 499 504 502
f 503 505 499
f 499 505 504
f 503 506 505
f 506 507 505
f 505 508 504
f 505 507 508
f 506 509 507
f 507 510 508
f 509 511 507
f 507 512 510
f 511 513 507
f 507 513 512
f 511 514 513
f 513 515 512
f 514 516 513
f 513 516 515
f 514 517 516
f 516 518 515
f 517 519 516
f 516 519 518
f 517 520 519
f 519 521 518
f 520 522 519
f 519 522 521
f 520 523 522
f 522 524 521
f 523 525 522
f 522 525 524
f 523 526 525
f 525 527 524
f 526 528 525
f 525 528 527
f 526 529 528
f 528 530 527
f 529 531 528
f 531 530 528
f 531 532 530
f 533 534 535
f 533 535 536
f 537 533 536
f 536 535 538
f 539 537 536
f 540 536 538
f 539 536 540
f 540 538 541
f 542 539 540
f 543 540 541
f 542 540 543
f 543 541 544
f 545 542 543
f 546 543 544
f 545 543 546
f 546 544 547
f 548 545 546
f 549 546 547
f 548 546 549
f 549 547 550
f 551 548 549
f 552 549 550
f 551 549 552
f 552 550 553
f 554 552 553
f 555 551 552
f 555 552 554
f 554 553 556
f 557 555 554
f 558 554 556
f 559 557 554
f 560 554 558
f 559 554 560
f 561 560 558
f 562 559 560
f 563 560 561
f 563 562 560
f 564 563 561
f 563 564 562
f 564 561 565
f 564 566 562
f 567 564 565
f 564 567 566
f 567 565 568
f 567 569 566
f 570 567 568
f 567 570 569
f 570 568 571
f 570 572 569
f 573 570 571
f 570 573 572
f 573 571 574
f 573 575 572
f 576 573 574
f 573 576 575
f 576 574 577
f 576 578 575
f 579 576 577
f 576 579 578
f 579 577 580
f 578 579 581
f 579 580 581
f 580 582 581
f 582 583 581
f 581 583 584
f 582 585 583
f 583 586 584
f 585 587 583
f 583 587 586
f 585 588 587
f 587 589 586
f 588 590 587
f 587 590 589
f 588 591 590
f 590 592 589
f 591 593 590
f 590 593 592
f 591 594 593
f 593 595 592
f 594 596 593
f 593 596 595
f 594 597 596
f 596 598 595
f 597 599 596
f 596 599 598
f 597 600 599
f 600 601 599
f 599 602 598
f 599 601 602
f 600 603 601
f 601 604 602
f 603 605 601
f 601 606 604
f 605 607 601
f 601 607 606
f 605 608 607
f 607 609 606
f 608 610 607
f 607 610 609
f 608 611 610
f 611 609 610
f 612 611 608
f 611 613 609
f 614 611 612
f 611 614 613
f 615 614 612
f 614 616 613
f 617 614 615
f 614 617 616
f 618 617 615
f 617 619 616
f 620 617 618
f 617 620 619
f 621 620 618
f 620 622 619
f 623 620 621
f 620 623 622
f 624 623 621
f 623 625 622
f 626 623 624
f 623 626 625
f 627 626 624
f 626 628 625
f 626 627 628
f 629 630 631
f 629 631 632
f 633 629 632
f 632 631 634
f 635 633 632
f 636 632 634
f 635 632 636
f 636 634 637
f 638 635 636
f 639 636 637
f 638 636 639
f 639 637 640
f 641 638 639
f 642 639 640
f 641 639 642
f 642 640 643
f 644 641 642
f 645 642 643
f 644 642 645
f 645 643 646
f 647 644 645
f 648 645 646
f 647 645 648
f 648 646 649
f 650 648 649
f 651 647 648
f 651 648 650
f 650 649 652
f 653 651 650
f 654 650 652
f 655 653 650
f 656 650 654
f 655 650 656
f 657 656 654
f 658 655 656
f 659 656 657
f 659 658 656
f 660 659 657
f 659 660 658
f 660 657 661
f 660 662 658
f 663 660 661
f 660 663 662
f 663 661 664
f 663 665 662
f 666 663 664
f 663 666 665
f 666 664 667
f 666 668 665
f 669 666 667
f 666 669 668
f 669 667 670
f 669 671 668
f 672 669 670
f 669 672 671
f 672 670 673
f 672 674 671
f 675 672 673
f 672 675 674
f 675 673 676
f 674 675 677
f 675 676 677
f 676 678 677
f 678 679 677
f 677 679 680
f 678 681 679
f 679 682 680
f 681 683 679
f 679 683 682
f 681 684 683
f 683 685 682
f 684 686 683
f 683 686 685
f 684 687 686
f 686 688 685
f 687 689 686
f 686 689 688
f 687 690 689
f 689 691 688
f 690 692 689
f 689 692 691
f 690 693 692
f 692 694 691
f 693 695 692
f 692 695 694
f 693 696 695
f 696 697 695
f 695 698 694
f 695 697 698
f 696 699 697
f 697 700 698
f 699 701 697
f 697 702 700
f 701 703 697
f 697 703 702
f 701 704 703
f 703 705 702
f 704 706 703
f 703 706 705
f 704 707 706
f 707 705 706
f 708 707 704
f 707 709 705
f 710 707 708
f 707 710 709
f 711 710 708
f 710 712 709
f 713 710 711
f 710 713 712
f 714 713 711
f 713 715 712
f 716 713 714
f 713 716 715
f 717 716 714
f 716 718 715
f 719 716 717
f 716 719 718
f 720 719 717
f 719 721 718
f 722 719 720
f 719 722 721
f 723 722 720
f 722 724 721
f 722 723 724
f 725 726 727
f 726 728 727
f 726 729 728
f 727 728 730
f 729 731 728
f 728 732 730
f 731 733 728
f 728 734 732
f 733 734 728
f 733 735 734
f 736 737 738
f 737 739 738
f 737 740 739
f 741 738 739
f 740 741 739
f 742 743 744
f 742 744 745
f 746 742 745
f 745 744 747
f 746 745 747
f 748 749 750
f 748 750 751
f 752 748 751
f 748 752 753
f 748 753 754
f 755 748 754
f 748 755 756
f 749 748 757
f 748 756 758
f 748 759 757
f 759 760 757
f 759 761 760
f 762 761 759
f 763 762 759
f 764 763 759
f 765 764 759
f 766 765 759
f 767 766 759
f 768 767 759
f 769 748 758
f 768 759 770
f 771 768 770
f 772 771 770
f 773 772 770
f 774 773 770
f 775 774 770
f 759 776 770
f 775 770 777
f 778 775 777
f 779 778 777
f 780 779 777
f 781 780 777
f 782 781 777
f 783 782 777
f 784 783 777
f 785 784 777
f 785 777 786
f 786 777 787
f 777 788 787
f 758 785 786
f 789 758 786
f 769 758 789
f 790 769 789
f 769 790 791
f 769 791 792
f 777 793 788
f 794 769 792
f 793 777 795
f 769 794 796
f 777 797 795
f 769 796 798
f 777 799 797
f 799 777 800
f 777 801 800
f 802 769 798
f 769 802 803
f 769 803 804
f 776 769 804
f 776 804 805
f 806 776 805
f 776 806 807
f 777 770 801
f 776 807 808
f 770 809 801
f 810 776 808
f 770 811 809
f 776 810 812
f 811 770 813
f 770 814 813
f 770 815 814
f 776 815 770
f 776 812 816
f 776 817 815
f 817 776 816
f 818 819 820
f 818 820 821
f 819 818 822
f 822 818 821
f 823 824 825
f 823 825 826
f 824 823 827
f 827 823 826
f 828 829 830
f 828 831 829
f 831 828 832
f 828 833 832
f 834 828 830
f 828 834 833
f 834 830 835
f 834 836 833
f 837 834 835
f 834 837 836
f 837 835 838
f 837 839 836
f 840 837 838
f 837 840 839
f 841 842 843
f 841 844 842
f 844 841 845
f 841 846 845
f 847 841 843
f 841 847 846
f 847 843 848
f 847 849 846
f 850 847 848
f 847 850 849
f 850 848 851
f 850 852 849
f 853 850 851
f 850 853 852
f 853 851 854
f 853 855 852
f 856 853 854
f 853 856 855
f 856 854 857
f 856 858 855
f 859 856 857
f 856 859 858
f 859 857 860
f 859 861 858
f 862 859 860
f 859 862 861
f 862 860 863
f 862 864 861
f 865 862 863
f 862 865 864
f 866 867 868
f 866 868 869
f 867 866 870
f 871 866 869
f 866 871 870
f 872 873 874
f 875 872 874
f 872 876 873
f 872 875 877
f 876 872 877
f 878 879 880
f 878 880 881
f 879 878 882
f 882 878 881
f 883 884 885
f 883 886 884
f 886 883 887
f 883 888 887
f 889 883 885
f 883 889 888
f 889 885 890
f 889 891 888
f 892 889 890
f 889 892 891
f 892 890 893
f 892 894 891
f 895 892 893
f 892 895 894
f 896 897 898
f 896 898 899
f 897 896 900
f 900 896 899
f 901 902 903
f 901 903 904
f 902 901 905
f 905 901 904
f 906 907 908
f 906 908 909
f 907 906 910
f 910 906 909
f 911 912 913
f 911 913 914
f 912 911 915
f 915 911 914
f 916 917 918
f 917 916 919
f 917 920 918
f 917 919 921
f 917 922 920
f 922 917 921
f 922 923 920
f 922 921 924
f 922 925 923
f 925 922 924
f 925 926 923
f 925 924 927
f 925 928 926
f 928 925 927
f 928 929 926
f 928 927 930
f 928 931 929
f 931 928 930
f 931 932 929
f 931 930 933
f 931 934 932
f 934 931 933
f 934 935 932
f 934 933 936
f 934 937 935
f 937 934 936
f 937 938 935
f 937 936 939
f 938 937 940
f 937 939 940
f 941 942 943
f 941 943 944
f 942 941 945
f 945 941 944
f 946 947 948
f 947 946 949
f 947 950 948
f 947 949 951
f 947 952 950
f 952 947 951
f 952 953 950
f 952 951 954
f 952 955 953
f 955 952 954
f 955 956 953
f 955 954 957
f 956 955 958
f 955 957 958
f 959 960 961
f 962 959 961
f 959 963 960
f 963 959 962
f 964 965 966
f 967 964 966
f 964 968 965
f 968 964 967
f 969 970 971
f 972 969 971
f 969 972 973
f 969 973 974
f 969 975 970
f 976 969 974
f 975 969 977
f 976 974 978
f 975 977 979
f 980 975 979
f 980 981 975
f 982 976 978
f 976 982 983
f 981 984 975
f 976 983 985
f 981 986 984
f 987 976 985
f 987 985 988
f 985 989 988
f 990 986 981
f 985 991 989
f 992 990 981
f 991 993 989
f 991 994 993
f 994 991 995
f 991 996 995
f 996 997 995
f 996 998 997
f 998 996 999
f 1000 998 999
f 998 1000 1001
f 998 1001 1002
f 1003 998 1002
f 1003 1002 1004
f 1005 1003 1004
f 1003 1005 1006
f 1003 1006 1007
f 1008 1003 1007
f 1007 1009 1008
f 1009 1010 1008
f 1009 1011 1010
f 1011 1009 1012
f 1009 1013 1012
f 1013 1014 1012
f 1014 1015 1012
f 1015 1016 1012
f 1016 1017 1012
f 1017 1018 1012
f 1017 1019 1018
f 1019 1020 1018
f 1012 1018 1021
f 1020 981 1018
f 1020 992 981
f 981 1022 1018
f 1022 1023 1018
f 1018 1023 1024
f 1025 1018 1024
f 1018 1025 1026
f 1022 1027 1023
f 1018 1026 1028
f 1027 1022 1029
f 1022 1030 1029
f 1022 1031 1030
f 1031 1022 1032
f 1022 1033 1032
f 1034 1018 1028
f 1022 1035 1033
f 1018 1034 1036
f 1035 1022 1037
f 1018 1036 1038
f 1022 1039 1037
f 1022 1040 1039
f 1040 1022 1041
f 1022 1042 1041
f 1043 1018 1038
f 1022 1044 1042
f 1018 1043 1045
f 1043 1046 1045
f 1018 1045 1021
f 1046 1047 1045
f 1021 1045 1048
f 1049 1021 1048
f 1021 1049 1050
f 1021 1050 1051
f 1046 1052 1047
f 1052 1053 1047
f 1052 1054 1053
f 1054 1055 1053
f 1054 1056 1055
f 1056 1057 1055
f 1056 1058 1057
f 1058 1059 1057
f 1058 1060 1059
f 1060 1061 1059
f 1060 1062 1061
f 1062 1063 1061
f 1062 1064 1063
f 1064 1065 1063
f 1064 1066 1065
f 1066 1067 1065
f 1066 1068 1067
f 1068 1069 1067
f 1068 1070 1069
f 1070 1071 1069
f 1070 1042 1071
f 1042 1072 1071
f 1044 1072 1042
f 1044 1073 1072
f 1073 1044 1074
f 1044 1075 1074
f 1044 1076 1075
f 1076 1044 1077
f 1044 1078 1077
f 1044 1079 1078
f 1079 1044 1080
f 1044 1081 1080
f 1044 1082 1081
f 1044 1021 1082
f 1021 1083 1082
f 1021 1084 1083
f 1084 1021 1085
f 1021 1086 1085
f 1021 1087 1086
f 1087 1021 1051
f 1088 1089 1090
f 1089 1088 1091
f 1089 1092 1090
f 1089 1091 1093
f 1089 1094 1092
f 1094 1089 1093
f 1094 1095 1092
f 1094 1093 1096
f 1094 1097 1095
f 1097 1094 1096
f 1097 1098 1095
f 1097 1096 1099
f 1098 1097 1100
f 1097 1099 1100
f 1101 1102 1103
f 1101 1103 1104
f 1102 1101 1105
f 1105 1101 1104
f 1106 1107 1108
f 1107 1106 1109
f 1107 1110 1108
f 1107 1109 1111
f 1107 1112 1110
f 1112 1107 1111
f 1112 1113 1110
f 1112 1111 1114
f 1112 1115 1113
f 1115 1112 1114
f 1115 1116 1113
f 1115 1114 1117
f 1115 1118 1116
f 1118 1115 1117
f 1118 1119 1116
f 1118 1117 1120
f 1118 1121 1119
f 1121 1118 1120
f 1121 1122 1119
f 1121 1120 1123
f 1121 1124 1122
f 1124 1121 1123
f 1124 1125 1122
f 1124 1123 1126
f 1124 1127 1125
f 1127 1124 1126
f 1127 1128 1125
f 1127 1126 1129
f 1128 1127 1130
f 1127 1129 1130
f 1131 1132 1133
f 1131 1133 1134
f 1132 1131 1135
f 1135 1131 1134
f 1136 1137 1138
f 1139 1137 1136
f 1137 1140 1138
f 1137 1139 1140
f 1141 1142 1143
f 1144 1142 1141
f 1142 1145 1143
f 1142 1144 1145
