# ROS coordinates: X forward, Y left, Z up; units are metres.
o mesh
v -0.0308075473 0.103371508 0.0614799969
v -0.0308075473 0.103371508 0.06048
v -0.030949425 0.103253476 0.06048
v -0.030972179 0.103238277 0.0609799959
v -0.030949425 0.103253476 0.0614799969
v -0.031120576 0.103158765 0.06048
v -0.031120576 0.103158765 0.0614799969
v -0.03117409 0.1031374 0.0609799959
v -0.0313147679 0.103097118 0.06048
v -0.0313147679 0.103097118 0.0614799969
v -0.03140261 0.103082731 0.0609799959
v -0.0315217227 0.103075683 0.06048
v -0.0315217227 0.103075683 0.0614799969
v -0.0315217227 0.103075683 0.0609799959
v -0.0316408351 0.103082731 0.0609799959
v -0.0317286849 0.103097118 0.06048
v -0.0317286849 0.103097118 0.0614799969
v -0.03186936 0.1031374 0.0609799959
v -0.0319228768 0.103158765 0.06048
v -0.0319228768 0.103158765 0.0614799969
v -0.03207127 0.103238277 0.0609799959
v -0.0320940241 0.103253476 0.06048
v -0.0322359 0.103371508 0.0609799959
v -0.0320940241 0.103253476 0.0614799969
v -0.0322359 0.103371508 0.06048
v -0.0322359 0.103371508 0.0614799969
v -0.0323539376 0.103513382 0.06048
v -0.0323539376 0.103513382 0.0614799969
v -0.0323691331 0.103536136 0.0609799959
v -0.0324486457 0.103684537 0.06048
v -0.032448642 0.103684537 0.0614799969
v -0.032448642 0.103684537 0.0609799959
v -0.0325038247 0.103849925 0.0609799959
v -0.0325102955 0.103878729 0.06048
v -0.0325102955 0.103878729 0.0614799969
v -0.0325299576 0.104025975 0.0609799959
v -0.0325317234 0.104085684 0.06048
v -0.0325317234 0.104085684 0.0614799969
v -0.0325246751 0.104204796 0.0609799959
v -0.0325102955 0.104292646 0.06048
v -0.0325102955 0.104292646 0.0614799969
v -0.0324884653 0.104378112 0.0609799922
v -0.032448642 0.104486831 0.06048
v -0.0324486457 0.104486831 0.0614799969
v -0.03242456 0.104538441 0.06098
v -0.0323539339 0.104657985 0.06048
v -0.0323539339 0.104657985 0.0614799969
v -0.0323382579 0.104680136 0.0609799922
v -0.0322359055 0.104799867 0.06048
v -0.0322359 0.104799867 0.0614799969
v -0.0320940241 0.104917891 0.06048
v -0.03207127 0.104933091 0.0609799959
v -0.0320940241 0.104917891 0.0614799969
v -0.0319228731 0.1050126 0.06048
v -0.0319228768 0.1050126 0.0614799969
v -0.03186936 0.105033971 0.0609799922
v -0.0317286849 0.105074257 0.06048
v -0.0317286849 0.105074257 0.0614799969
v -0.03164084 0.105088636 0.0609799959
v -0.0315217227 0.105095685 0.06048
v -0.0315217227 0.105095685 0.0614799969
v -0.0315217227 0.105095685 0.0609799922
v -0.03140261 0.105088636 0.0609799959
v -0.0313147679 0.105074257 0.06048
v -0.0313147679 0.105074257 0.0614799969
v -0.0311740879 0.105033971 0.0609799959
v -0.031120576 0.1050126 0.06048
v -0.0311205741 0.1050126 0.0614799969
v -0.03097218 0.104933091 0.0609799959
v -0.030949425 0.104917891 0.06048
v -0.0308075473 0.104799859 0.0609799959
v -0.030949425 0.104917891 0.0614799969
v -0.0308075473 0.104799859 0.06048
v -0.0308075473 0.104799859 0.0614799969
v -0.0306895152 0.104657985 0.06048
v -0.0306895152 0.104657985 0.0614799969
v -0.0306743179 0.104635231 0.0609799959
v -0.0305948053 0.104486831 0.06048
v -0.0305948053 0.104486831 0.0614799969
v -0.0305948053 0.104486831 0.0609799959
v -0.0305396263 0.104321443 0.0609799959
v -0.0305331554 0.104292646 0.06048
v -0.0305331554 0.104292646 0.0614799969
v -0.0305134915 0.1041454 0.0609799959
v -0.0305117238 0.104085684 0.06048
v -0.0305117238 0.104085684 0.0614799969
v -0.0305187739 0.103966571 0.0609799959
v -0.0305331554 0.103878729 0.06048
v -0.0305331554 0.103878729 0.0614799969
v -0.0305549838 0.103793256 0.0609799959
v -0.0305948053 0.103684537 0.06048
v -0.0305948053 0.103684537 0.0614799969
v -0.03061889 0.103632927 0.0609799959
v -0.030689517 0.103513382 0.06048
v -0.030689517 0.103513382 0.0614799969
v -0.03070519 0.103491232 0.06098
v -0.0308075473 0.103371508 0.06048
v -0.0308075473 0.103371508 0.0614799969
v -0.0332081765 0.105772138 0.06206
v -0.0332081765 0.105772138 0.06048
v -0.03335289 0.105613776 0.06048
v -0.0333727561 0.105589643 0.0612699948
v -0.03335289 0.105613776 0.06206
v -0.03348689 0.105437107 0.06048
v -0.03348689 0.105437107 0.06206
v -0.0335227847 0.105383374 0.06127
v -0.0336071178 0.105243 0.06048
v -0.0336071178 0.105243 0.06206
v -0.03365367 0.105154812 0.0612699948
v -0.03371054 0.105032951 0.06048
v -0.03371054 0.105032951 0.06206
v -0.033761 0.104906589 0.06127
v -0.03379435 0.10480915 0.06048
v -0.03379435 0.10480915 0.06206
v -0.03384084 0.1046424 0.06127
v -0.0338561162 0.1045744 0.06048
v -0.0338561162 0.1045744 0.06206
v -0.0338900834 0.104366958 0.06127
v -0.0338939726 0.104332 0.06048
v -0.033906728 0.104085684 0.06127
v -0.0338939726 0.104332 0.06206
v -0.0339067243 0.104085684 0.06048
v -0.033906728 0.104085684 0.06206
v -0.0338939726 0.103839368 0.06048
v -0.0338939726 0.103839368 0.06206
v -0.03389008 0.10380441 0.06127
v -0.0338561162 0.103596978 0.06048
v -0.0338561162 0.103596978 0.06206
v -0.03384084 0.103528969 0.0612699948
v -0.03379435 0.103362218 0.06048
v -0.03379435 0.103362218 0.06206
v -0.033761 0.103264786 0.06127
v -0.03371054 0.103138417 0.06048
v -0.03371054 0.103138417 0.06206
v -0.03365367 0.103016555 0.06127
v -0.0336071178 0.10292837 0.06048
v -0.0336071178 0.10292837 0.06206
v -0.0335227847 0.102787994 0.06127
v -0.03348689 0.10273426 0.06048
v -0.03348689 0.10273426 0.06206
v -0.03337276 0.102581725 0.06127
v -0.03335289 0.102557592 0.06048
v -0.0332081765 0.102399237 0.06127
v -0.03335289 0.102557592 0.06206
v -0.0332081765 0.102399237 0.06048
v -0.0332081765 0.102399237 0.06206
v -0.0330498144 0.102254525 0.06048
v -0.0330498144 0.102254525 0.06206
v -0.03302569 0.102234654 0.06127
v -0.03287315 0.102120519 0.06048
v -0.03287315 0.102120519 0.06206
v -0.0328194126 0.102084629 0.06127
v -0.0326790363 0.102000296 0.06048
v -0.0326790363 0.102000296 0.06206
v -0.03264996 0.101984419 0.06127
v -0.0324689932 0.101896867 0.06048
v -0.0324689932 0.101896867 0.06206
v -0.0324689932 0.101896867 0.06127
v -0.03227791 0.101823732 0.06127
v -0.0322451964 0.101813063 0.06048
v -0.0322451964 0.101813063 0.06206
v -0.03207844 0.101766571 0.06127
v -0.0320104361 0.10175129 0.06048
v -0.0320104361 0.10175129 0.06206
v -0.0318726264 0.101726636 0.06127
v -0.03176804 0.101713441 0.06048
v -0.03176804 0.101713441 0.06206
v -0.0316627324 0.101704858 0.06127
v -0.0315217227 0.101700686 0.06048
v -0.0315217227 0.101700686 0.06206
v -0.0314511769 0.101701729 0.06127
v -0.03127541 0.101713434 0.06048
v -0.03127541 0.101713434 0.06206
v -0.0312404539 0.101717331 0.06127
v -0.0310330149 0.10175129 0.06048
v -0.0310330149 0.10175129 0.06206
v -0.0310330149 0.10175129 0.06127
v -0.0308311936 0.101802841 0.06127
v -0.0307982545 0.101813063 0.06048
v -0.0307982545 0.101813063 0.06206
v -0.0306371078 0.101870805 0.06127
v -0.0305744559 0.101896867 0.06048
v -0.0305744559 0.101896867 0.06206
v -0.0304525942 0.101953745 0.06127
v -0.0303644147 0.102000296 0.06048
v -0.0303644147 0.102000296 0.06206
v -0.0302791689 0.102049932 0.06127
v -0.0301703028 0.102120519 0.06048
v -0.0301703028 0.102120519 0.06206
v -0.0301179942 0.102157533 0.06127
v -0.0299936328 0.102254525 0.06048
v -0.0299936328 0.102254525 0.06206
v -0.0299698766 0.102274612 0.06127
v -0.0298352744 0.102399237 0.06048
v -0.0298352744 0.102399237 0.06206
v -0.0296905618 0.102557592 0.06048
v -0.0296706911 0.102581725 0.06127
v -0.0296905618 0.102557592 0.06206
v -0.02955656 0.10273426 0.06048
v -0.02955656 0.10273426 0.06206
v -0.0295206681 0.102787994 0.06127
v -0.0294363331 0.102928378 0.06048
v -0.0294363331 0.102928378 0.06206
v -0.0293897819 0.103016555 0.06127
v -0.02933291 0.103138417 0.06048
v -0.02933291 0.103138417 0.06206
v -0.0292824525 0.103264786 0.06127
v -0.0292491 0.103362218 0.06048
v -0.0292491 0.103362218 0.06206
v -0.02920261 0.103528969 0.06127
v -0.029187331 0.103596978 0.06048
v -0.029187331 0.103596978 0.06206
v -0.02915337 0.10380441 0.06127
v -0.0291494783 0.103839368 0.06048
v -0.0291367248 0.104085684 0.06127
v -0.0291494783 0.103839368 0.06206
v -0.0291367229 0.104085684 0.06048
v -0.0291367229 0.104085684 0.06206
v -0.0291494764 0.104332 0.06048
v -0.0291494764 0.104332 0.06206
v -0.02915337 0.104366958 0.06127
v -0.029187331 0.1045744 0.06048
v -0.029187331 0.1045744 0.06206
v -0.02920261 0.1046424 0.06127
v -0.0292491019 0.104809158 0.06048
v -0.0292491019 0.104809158 0.06206
v -0.0292824525 0.104906589 0.06127
v -0.0293329116 0.105032951 0.06048
v -0.0293329116 0.105032951 0.06206
v -0.02938978 0.10515482 0.06127
v -0.0294363331 0.105243 0.06048
v -0.0294363331 0.105243 0.06206
v -0.0295206681 0.105383374 0.06127
v -0.02955656 0.105437107 0.06048
v -0.02955656 0.105437107 0.06206
v -0.0296706911 0.105589651 0.06127
v -0.0296905618 0.105613776 0.06048
v -0.0298352744 0.105772138 0.06127
v -0.0296905618 0.105613776 0.06206
v -0.0298352744 0.105772138 0.06048
v -0.0298352744 0.105772138 0.06206
v -0.0299936328 0.10591685 0.06048
v -0.0299936328 0.10591685 0.06206
v -0.0300177615 0.105936721 0.06127
v -0.030170301 0.106050849 0.06048
v -0.030170301 0.106050849 0.06206
v -0.0302240364 0.106086746 0.06127
v -0.0303644147 0.106171079 0.06048
v -0.0303644147 0.106171079 0.06206
v -0.0303934887 0.106186949 0.06127
v -0.03057446 0.1062745 0.06048
v -0.0305744577 0.1062745 0.06206
v -0.0305744559 0.1062745 0.06127
v -0.0307655428 0.106347635 0.0612699948
v -0.0307982564 0.106358312 0.06048
v -0.0307982564 0.106358312 0.06206
v -0.0309650078 0.106404796 0.0612699948
v -0.031033013 0.106420077 0.06048
v -0.0310330149 0.106420077 0.06206
v -0.0311708227 0.106444731 0.06127
v -0.03127541 0.106457934 0.06048
v -0.03127541 0.106457934 0.06206
v -0.03138072 0.106466517 0.06127
v -0.0315217227 0.106470682 0.06048
v -0.0315217227 0.106470682 0.06206
v -0.0315922722 0.106469639 0.06127
v -0.03176804 0.106457934 0.06048
v -0.03176804 0.106457934 0.06206
v -0.031802997 0.106454045 0.06127
v -0.0320104323 0.106420077 0.06048
v -0.0320104361 0.106420077 0.06206
v -0.0320104361 0.106420077 0.0612699948
v -0.0322122574 0.106368534 0.06127
v -0.0322451964 0.106358312 0.06048
v -0.0322451964 0.106358312 0.06206
v -0.032406345 0.106300563 0.06127
v -0.0324689932 0.1062745 0.06048
v -0.0324689932 0.1062745 0.06206
v -0.03259086 0.10621763 0.0612699948
v -0.0326790363 0.106171079 0.06048
v -0.0326790363 0.106171079 0.06206
v -0.03276428 0.106121436 0.06127
v -0.0328731462 0.106050849 0.06048
v -0.0328731462 0.106050849 0.06206
v -0.0329254568 0.106013834 0.06127
v -0.0330498181 0.10591685 0.06048
v -0.0330498144 0.10591685 0.06206
v -0.0330735743 0.105896756 0.0612699948
v -0.0332081765 0.105772138 0.06048
v -0.0332081765 0.105772138 0.06206
v -0.0313147679 0.103097118 0.0614799969
v -0.0315217227 0.104085684 0.0614799969
v -0.031120576 0.103158765 0.0614799969
v -0.0315217227 0.103075683 0.0614799969
v -0.030949425 0.103253476 0.0614799969
v -0.0317286849 0.103097118 0.0614799969
v -0.0308075473 0.103371508 0.0614799969
v -0.0319228768 0.103158765 0.0614799969
v -0.030689517 0.103513382 0.0614799969
v -0.0320940241 0.103253476 0.0614799969
v -0.0305948053 0.103684537 0.0614799969
v -0.0322359 0.103371508 0.0614799969
v -0.0305331554 0.103878729 0.0614799969
v -0.0323539376 0.103513382 0.0614799969
v -0.0305117238 0.104085684 0.0614799969
v -0.032448642 0.103684537 0.0614799969
v -0.0305331554 0.104292646 0.0614799969
v -0.0325102955 0.103878729 0.0614799969
v -0.0305948053 0.104486831 0.0614799969
v -0.0325317234 0.104085684 0.0614799969
v -0.0306895152 0.104657985 0.0614799969
v -0.0325102955 0.104292646 0.0614799969
v -0.0308075473 0.104799859 0.0614799969
v -0.0324486457 0.104486831 0.0614799969
v -0.030949425 0.104917891 0.0614799969
v -0.0323539339 0.104657985 0.0614799969
v -0.0311205741 0.1050126 0.0614799969
v -0.0322359 0.104799867 0.0614799969
v -0.0313147679 0.105074257 0.0614799969
v -0.0320940241 0.104917891 0.0614799969
v -0.0315217227 0.105095685 0.0614799969
v -0.0319228768 0.1050126 0.0614799969
v -0.0317286849 0.105074257 0.0614799969
v -0.0315217227 0.104085684 0.06206
v -0.02955656 0.10273426 0.06206
v -0.0294363331 0.102928378 0.06206
v -0.02933291 0.103138417 0.06206
v -0.0296905618 0.102557592 0.06206
v -0.0292491 0.103362218 0.06206
v -0.0298352744 0.102399237 0.06206
v -0.029187331 0.103596978 0.06206
v -0.0299936328 0.102254525 0.06206
v -0.0291494783 0.103839368 0.06206
v -0.0301703028 0.102120519 0.06206
v -0.0291367229 0.104085684 0.06206
v -0.0303644147 0.102000296 0.06206
v -0.0291494764 0.104332 0.06206
v -0.0305744559 0.101896867 0.06206
v -0.029187331 0.1045744 0.06206
v -0.0307982545 0.101813063 0.06206
v -0.0292491019 0.104809158 0.06206
v -0.0310330149 0.10175129 0.06206
v -0.0293329116 0.105032951 0.06206
v -0.03127541 0.101713434 0.06206
v -0.0294363331 0.105243 0.06206
v -0.0315217227 0.101700686 0.06206
v -0.02955656 0.105437107 0.06206
v -0.03176804 0.101713441 0.06206
v -0.0296905618 0.105613776 0.06206
v -0.0320104361 0.10175129 0.06206
v -0.0298352744 0.105772138 0.06206
v -0.0322451964 0.101813063 0.06206
v -0.0299936328 0.10591685 0.06206
v -0.0324689932 0.101896867 0.06206
v -0.030170301 0.106050849 0.06206
v -0.0326790363 0.102000296 0.06206
v -0.0303644147 0.106171079 0.06206
v -0.03287315 0.102120519 0.06206
v -0.0305744577 0.1062745 0.06206
v -0.0330498144 0.102254525 0.06206
v -0.0307982564 0.106358312 0.06206
v -0.0332081765 0.102399237 0.06206
v -0.0310330149 0.106420077 0.06206
v -0.03335289 0.102557592 0.06206
v -0.03127541 0.106457934 0.06206
v -0.03348689 0.10273426 0.06206
v -0.0315217227 0.106470682 0.06206
v -0.0336071178 0.10292837 0.06206
v -0.03176804 0.106457934 0.06206
v -0.03371054 0.103138417 0.06206
v -0.0320104361 0.106420077 0.06206
v -0.03379435 0.103362218 0.06206
v -0.0322451964 0.106358312 0.06206
v -0.0338561162 0.103596978 0.06206
v -0.0324689932 0.1062745 0.06206
v -0.0338939726 0.103839368 0.06206
v -0.0326790363 0.106171079 0.06206
v -0.033906728 0.104085684 0.06206
v -0.0328731462 0.106050849 0.06206
v -0.0338939726 0.104332 0.06206
v -0.0330498144 0.10591685 0.06206
v -0.0338561162 0.1045744 0.06206
v -0.0332081765 0.105772138 0.06206
v -0.03379435 0.10480915 0.06206
v -0.03335289 0.105613776 0.06206
v -0.03371054 0.105032951 0.06206
v -0.03348689 0.105437107 0.06206
v -0.0336071178 0.105243 0.06206
v -0.0320940241 0.104917891 0.06048
v -0.0328731462 0.106050849 0.06048
v -0.0326790363 0.106171079 0.06048
v -0.0330498181 0.10591685 0.06048
v -0.0319228731 0.1050126 0.06048
v -0.0324689932 0.1062745 0.06048
v -0.0322451964 0.106358312 0.06048
v -0.0317286849 0.105074257 0.06048
v -0.0322359055 0.104799867 0.06048
v -0.0332081765 0.105772138 0.06048
v -0.03335289 0.105613776 0.06048
v -0.0320104323 0.106420077 0.06048
v -0.0323539339 0.104657985 0.06048
v -0.03348689 0.105437107 0.06048
v -0.0336071178 0.105243 0.06048
v -0.0315217227 0.105095685 0.06048
v -0.0313147679 0.105074257 0.06048
v -0.032448642 0.104486831 0.06048
v -0.03371054 0.105032951 0.06048
v -0.03379435 0.10480915 0.06048
v -0.031120576 0.1050126 0.06048
v -0.03176804 0.106457934 0.06048
v -0.0315217227 0.106470682 0.06048
v -0.030949425 0.104917891 0.06048
v -0.03127541 0.106457934 0.06048
v -0.0325102955 0.104292646 0.06048
v -0.0338561162 0.1045744 0.06048
v -0.0338939726 0.104332 0.06048
v -0.031033013 0.106420077 0.06048
v -0.0325317234 0.104085684 0.06048
v -0.0339067243 0.104085684 0.06048
v -0.0338939726 0.103839368 0.06048
v -0.0307982564 0.106358312 0.06048
v -0.0325102955 0.103878729 0.06048
v -0.0338561162 0.103596978 0.06048
v -0.03379435 0.103362218 0.06048
v -0.03057446 0.1062745 0.06048
v -0.0324486457 0.103684537 0.06048
v -0.03371054 0.103138417 0.06048
v -0.0336071178 0.10292837 0.06048
v -0.0303644147 0.106171079 0.06048
v -0.030170301 0.106050849 0.06048
v -0.0299936328 0.10591685 0.06048
v -0.0323539376 0.103513382 0.06048
v -0.03348689 0.10273426 0.06048
v -0.03335289 0.102557592 0.06048
v -0.0308075473 0.104799859 0.06048
v -0.0298352744 0.105772138 0.06048
v -0.0296905618 0.105613776 0.06048
v -0.0322359 0.103371508 0.06048
v -0.0332081765 0.102399237 0.06048
v -0.0330498144 0.102254525 0.06048
v -0.0306895152 0.104657985 0.06048
v -0.02955656 0.105437107 0.06048
v -0.0294363331 0.105243 0.06048
v -0.0320940241 0.103253476 0.06048
v -0.03287315 0.102120519 0.06048
v -0.0326790363 0.102000296 0.06048
v -0.0305948053 0.104486831 0.06048
v -0.0293329116 0.105032951 0.06048
v -0.0292491019 0.104809158 0.06048
v -0.0319228768 0.103158765 0.06048
v -0.0324689932 0.101896867 0.06048
v -0.0322451964 0.101813063 0.06048
v -0.0305331554 0.104292646 0.06048
v -0.029187331 0.1045744 0.06048
v -0.0291494764 0.104332 0.06048
v -0.0317286849 0.103097118 0.06048
v -0.0320104361 0.10175129 0.06048
v -0.03176804 0.101713441 0.06048
v -0.0305117238 0.104085684 0.06048
v -0.0291367229 0.104085684 0.06048
v -0.0291494783 0.103839368 0.06048
v -0.0315217227 0.103075683 0.06048
v -0.0315217227 0.101700686 0.06048
v -0.03127541 0.101713434 0.06048
v -0.0305331554 0.103878729 0.06048
v -0.029187331 0.103596978 0.06048
v -0.0292491 0.103362218 0.06048
v -0.0313147679 0.103097118 0.06048
v -0.0310330149 0.10175129 0.06048
v -0.0307982545 0.101813063 0.06048
v -0.0305948053 0.103684537 0.06048
v -0.02933291 0.103138417 0.06048
v -0.0294363331 0.102928378 0.06048
v -0.031120576 0.103158765 0.06048
v -0.0305744559 0.101896867 0.06048
v -0.0303644147 0.102000296 0.06048
v -0.030689517 0.103513382 0.06048
v -0.02955656 0.10273426 0.06048
v -0.0296905618 0.102557592 0.06048
v -0.030949425 0.103253476 0.06048
v -0.0301703028 0.102120519 0.06048
v -0.0299936328 0.102254525 0.06048
v -0.0308075473 0.103371508 0.06048
v -0.0298352744 0.102399237 0.06048
f 1 2 3
f 4 1 3
f 1 4 5
f 4 3 6
f 4 7 5
f 8 4 6
f 4 8 7
f 8 6 9
f 8 10 7
f 11 8 9
f 8 11 10
f 11 9 12
f 11 13 10
f 11 12 14
f 13 11 14
f 15 14 12
f 13 14 15
f 15 12 16
f 17 13 15
f 18 15 16
f 17 15 18
f 18 16 19
f 20 17 18
f 21 18 19
f 20 18 21
f 21 19 22
f 23 21 22
f 24 20 21
f 24 21 23
f 23 22 25
f 26 24 23
f 27 23 25
f 28 26 23
f 29 23 27
f 28 23 29
f 30 29 27
f 31 28 29
f 32 29 30
f 32 31 29
f 33 32 30
f 32 33 31
f 33 30 34
f 33 35 31
f 36 33 34
f 33 36 35
f 36 34 37
f 36 38 35
f 39 36 37
f 36 39 38
f 39 37 40
f 39 41 38
f 42 39 40
f 39 42 41
f 42 40 43
f 42 44 41
f 45 42 43
f 42 45 44
f 45 43 46
f 45 47 44
f 48 45 46
f 45 48 47
f 48 46 49
f 47 48 50
f 48 49 50
f 49 51 50
f 51 52 50
f 50 52 53
f 51 54 52
f 52 55 53
f 54 56 52
f 52 56 55
f 54 57 56
f 56 58 55
f 57 59 56
f 56 59 58
f 57 60 59
f 59 61 58
f 60 62 59
f 59 62 61
f 60 63 62
f 63 61 62
f 63 60 64
f 63 65 61
f 66 63 64
f 63 66 65
f 66 64 67
f 66 68 65
f 69 66 67
f 66 69 68
f 69 67 70
f 71 69 70
f 69 72 68
f 69 71 72
f 71 70 73
f 71 74 72
f 71 73 75
f 71 76 74
f 77 71 75
f 71 77 76
f 77 75 78
f 77 79 76
f 80 77 78
f 77 80 79
f 80 78 81
f 80 81 79
f 78 82 81
f 83 79 81
f 82 84 81
f 83 81 84
f 82 85 84
f 86 83 84
f 85 87 84
f 86 84 87
f 85 88 87
f 89 86 87
f 88 90 87
f 89 87 90
f 88 91 90
f 92 89 90
f 91 93 90
f 92 90 93
f 91 94 93
f 95 92 93
f 94 96 93
f 95 93 96
f 94 97 96
f 98 95 96
f 97 98 96
f 99 100 101
f 102 99 101
f 99 102 103
f 102 101 104
f 102 105 103
f 106 102 104
f 102 106 105
f 106 104 107
f 106 108 105
f 109 106 107
f 106 109 108
f 109 107 110
f 109 111 108
f 112 109 110
f 109 112 111
f 112 110 113
f 112 114 111
f 115 112 113
f 112 115 114
f 115 113 116
f 115 117 114
f 118 115 116
f 115 118 117
f 118 116 119
f 120 118 119
f 118 121 117
f 118 120 121
f 120 119 122
f 120 123 121
f 120 122 124
f 120 125 123
f 126 120 124
f 120 126 125
f 126 124 127
f 126 128 125
f 129 126 127
f 126 129 128
f 129 127 130
f 129 131 128
f 132 129 130
f 129 132 131
f 132 130 133
f 132 134 131
f 135 132 133
f 132 135 134
f 135 133 136
f 135 137 134
f 138 135 136
f 135 138 137
f 138 136 139
f 138 140 137
f 141 138 139
f 138 141 140
f 141 139 142
f 143 141 142
f 141 144 140
f 141 143 144
f 143 142 145
f 143 146 144
f 143 145 147
f 143 148 146
f 149 143 147
f 143 149 148
f 149 147 150
f 149 151 148
f 152 149 150
f 149 152 151
f 152 150 153
f 152 154 151
f 155 152 153
f 152 155 154
f 155 153 156
f 155 157 154
f 155 156 158
f 157 155 158
f 159 158 156
f 157 158 159
f 160 159 156
f 161 157 159
f 162 159 160
f 161 159 162
f 163 162 160
f 164 161 162
f 165 162 163
f 164 162 165
f 166 165 163
f 167 164 165
f 168 165 166
f 167 165 168
f 169 168 166
f 170 167 168
f 171 168 169
f 170 168 171
f 172 171 169
f 173 170 171
f 174 171 172
f 173 171 174
f 175 174 172
f 176 173 174
f 177 174 175
f 177 176 174
f 178 177 175
f 177 178 176
f 178 175 179
f 178 180 176
f 181 178 179
f 178 181 180
f 181 179 182
f 181 183 180
f 184 181 182
f 181 184 183
f 184 182 185
f 184 186 183
f 187 184 185
f 184 187 186
f 187 185 188
f 187 189 186
f 190 187 188
f 187 190 189
f 190 188 191
f 190 192 189
f 193 190 191
f 190 193 192
f 193 191 194
f 192 193 195
f 193 194 195
f 194 196 195
f 196 197 195
f 195 197 198
f 196 199 197
f 197 200 198
f 199 201 197
f 197 201 200
f 199 202 201
f 201 203 200
f 202 204 201
f 201 204 203
f 202 205 204
f 204 206 203
f 205 207 204
f 204 207 206
f 205 208 207
f 207 209 206
f 208 210 207
f 207 210 209
f 208 211 210
f 210 212 209
f 211 213 210
f 210 213 212
f 211 214 213
f 214 215 213
f 213 216 212
f 213 215 216
f 214 217 215
f 215 218 216
f 217 219 215
f 215 220 218
f 219 221 215
f 215 221 220
f 219 222 221
f 221 223 220
f 222 224 221
f 221 224 223
f 222 225 224
f 224 226 223
f 225 227 224
f 224 227 226
f 225 228 227
f 227 229 226
f 228 230 227
f 227 230 229
f 228 231 230
f 230 232 229
f 231 233 230
f 230 233 232
f 231 234 233
f 233 235 232
f 234 236 233
f 233 236 235
f 234 237 236
f 237 238 236
f 236 239 235
f 236 238 239
f 237 240 238
f 238 241 239
f 240 242 238
f 238 243 241
f 242 244 238
f 238 244 243
f 242 245 244
f 244 246 243
f 245 247 244
f 244 247 246
f 245 248 247
f 247 249 246
f 248 250 247
f 247 250 249
f 248 251 250
f 250 252 249
f 251 253 250
f 250 253 252
f 251 254 253
f 254 252 253
f 254 251 255
f 254 256 252
f 257 254 255
f 254 257 256
f 257 255 258
f 257 259 256
f 260 257 258
f 257 260 259
f 260 258 261
f 260 262 259
f 263 260 261
f 260 263 262
f 263 261 264
f 263 265 262
f 266 263 264
f 263 266 265
f 266 264 267
f 266 268 265
f 269 266 267
f 266 269 268
f 269 267 270
f 269 271 268
f 272 269 270
f 269 272 271
f 272 270 273
f 272 273 271
f 270 274 273
f 275 271 273
f 274 276 273
f 275 273 276
f 274 277 276
f 278 275 276
f 277 279 276
f 278 276 279
f 277 280 279
f 281 278 279
f 280 282 279
f 281 279 282
f 280 283 282
f 284 281 282
f 283 285 282
f 284 282 285
f 283 286 285
f 287 284 285
f 286 288 285
f 287 285 288
f 286 289 288
f 290 287 288
f 289 290 288
f 291 292 293
f 292 291 294
f 292 295 293
f 292 294 296
f 295 292 297
f 298 292 296
f 292 299 297
f 292 298 300
f 292 301 299
f 292 300 302
f 301 292 303
f 304 292 302
f 292 305 303
f 292 304 306
f 292 307 305
f 292 306 308
f 307 292 309
f 310 292 308
f 292 311 309
f 292 310 312
f 292 313 311
f 292 312 314
f 313 292 315
f 316 292 314
f 292 317 315
f 292 316 318
f 292 319 317
f 292 318 320
f 319 292 321
f 322 292 320
f 292 323 321
f 292 322 323
f 324 325 326
f 324 326 327
f 325 324 328
f 329 324 327
f 328 324 330
f 324 329 331
f 324 332 330
f 324 331 333
f 324 334 332
f 335 324 333
f 334 324 336
f 324 335 337
f 324 338 336
f 324 337 339
f 324 340 338
f 341 324 339
f 340 324 342
f 324 341 343
f 324 344 342
f 324 343 345
f 324 346 344
f 347 324 345
f 346 324 348
f 324 347 349
f 324 350 348
f 324 349 351
f 324 352 350
f 353 324 351
f 352 324 354
f 324 353 355
f 324 356 354
f 324 355 357
f 324 358 356
f 359 324 357
f 358 324 360
f 324 359 361
f 324 362 360
f 324 361 363
f 324 364 362
f 365 324 363
f 364 324 366
f 324 365 367
f 324 368 366
f 324 367 369
f 324 370 368
f 371 324 369
f 370 324 372
f 324 371 373
f 324 374 372
f 324 373 375
f 324 376 374
f 377 324 375
f 376 324 378
f 324 377 379
f 324 380 378
f 324 379 381
f 324 382 380
f 383 324 381
f 382 324 384
f 324 383 385
f 324 386 384
f 324 385 387
f 324 388 386
f 388 324 387
f 389 390 391
f 389 392 390
f 393 389 391
f 393 391 394
f 393 394 395
f 396 393 395
f 389 397 392
f 392 397 398
f 397 399 398
f 395 400 396
f 397 401 399
f 401 402 399
f 401 403 402
f 400 404 396
f 400 405 404
f 401 406 403
f 406 407 403
f 406 408 407
f 405 400 409
f 409 400 410
f 409 410 411
f 412 409 411
f 412 411 413
f 406 414 408
f 414 415 408
f 414 416 415
f 417 412 413
f 414 418 416
f 418 419 416
f 418 420 419
f 412 417 421
f 418 422 420
f 422 423 420
f 422 424 423
f 412 421 425
f 422 426 424
f 426 427 424
f 426 428 427
f 429 412 425
f 412 429 430
f 412 430 431
f 426 432 428
f 432 433 428
f 432 434 433
f 435 412 431
f 435 431 436
f 435 436 437
f 432 438 434
f 438 439 434
f 438 440 439
f 441 435 437
f 441 437 442
f 441 442 443
f 438 444 440
f 444 445 440
f 444 446 445
f 447 441 443
f 447 443 448
f 447 448 449
f 444 450 446
f 450 451 446
f 450 452 451
f 453 447 449
f 453 449 454
f 453 454 455
f 450 456 452
f 456 457 452
f 456 458 457
f 459 453 455
f 459 455 460
f 459 460 461
f 456 462 458
f 462 463 458
f 462 464 463
f 465 459 461
f 465 461 466
f 465 466 467
f 462 468 464
f 468 469 464
f 468 470 469
f 471 465 467
f 471 467 472
f 471 472 473
f 468 474 470
f 474 475 470
f 474 476 475
f 477 471 473
f 477 473 478
f 477 478 479
f 474 480 476
f 480 481 476
f 480 482 481
f 483 477 479
f 480 483 482
f 483 479 484
f 483 484 482
