# ROS coordinates: X forward, Y left, Z up; units are metres.
o mesh
v 0.0300000012 -0.0430000052 0.08500001
v 0.0300000012 -0.037 0.08500001
v 0.03003034 -0.037 0.0843261
v 0.03009121 -0.0400000028 0.0838338956
v 0.03003034 -0.0430000052 0.0843261
v 0.0301252119 -0.037 0.08363527
v 0.0301252119 -0.0430000052 0.08363527
v 0.0302895084 -0.037 0.08293632
v 0.0302895084 -0.0430000052 0.08293632
v 0.0303820726 -0.0400000028 0.08263673
v 0.03052659 -0.037 0.08223929
v 0.0308883786 -0.0400000028 0.08145931
v 0.03052659 -0.0430000052 0.08223929
v 0.0308378711 -0.037 0.08155529
v 0.0308378711 -0.0430000052 0.08155529
v 0.0312225353 -0.037 0.08089594
v 0.0316082723 -0.0400000028 0.080359146
v 0.0312225353 -0.0430000052 0.08089594
v 0.03167735 -0.037 0.080272764
v 0.03167735 -0.0430000052 0.080272764
v 0.0321967 -0.037 0.0796967
v 0.0321967 -0.0430000052 0.0796967
v 0.0325195156 -0.0400000028 0.07939245
v 0.0327727646 -0.037 0.07917736
v 0.0335811228 -0.0400000028 0.0786052942
v 0.0327727646 -0.0430000052 0.07917736
v 0.0333959274 -0.037 0.07872254
v 0.0333959274 -0.0430000052 0.07872254
v 0.0340552926 -0.037 0.07833787
v 0.0347392932 -0.0400000028 0.0780265853
v 0.0340552926 -0.0430000052 0.07833787
v 0.0347392932 -0.037 0.0780265853
v 0.0347392932 -0.0430000052 0.0780265853
v 0.0354363136 -0.037 0.07778951
v 0.0354363136 -0.0430000052 0.07778951
v 0.0359359868 -0.0400000028 0.0776649
v 0.03613528 -0.037 0.07762521
v 0.03613528 -0.0430000052 0.07762521
v 0.03672825 -0.0400000028 0.07753982
v 0.0368260927 -0.037 0.07753034
v 0.0375 -0.0400000028 0.0775
v 0.0368260927 -0.0430000052 0.07753034
v 0.0375 -0.037 0.0775
v 0.0375 -0.0430000052 0.0775
v 0.03817391 -0.037 0.07753034
v 0.03817391 -0.0430000052 0.07753034
v 0.03827175 -0.0400000028 0.07753982
v 0.0388647243 -0.037 0.07762521
v 0.0388647243 -0.0430000052 0.07762521
v 0.03906402 -0.0400000028 0.0776649
v 0.0395636857 -0.037 0.07778951
v 0.0395636857 -0.0430000052 0.07778951
v 0.03986328 -0.0400000028 0.0778820738
v 0.04026071 -0.037 0.0780265853
v 0.04026071 -0.0430000052 0.0780265853
v 0.040653903 -0.0400000028 0.07819538
v 0.04094471 -0.037 0.07833787
v 0.04094471 -0.0430000052 0.07833787
v 0.0414188765 -0.0400000028 0.0786052942
v 0.04160408 -0.037 0.07872254
v 0.04160408 -0.0430000052 0.07872254
v 0.0421408527 -0.0400000028 0.07910827
v 0.04222724 -0.037 0.07917736
v 0.0428033061 -0.0400000028 0.0796967
v 0.04222724 -0.0430000052 0.07917736
v 0.0428033061 -0.037 0.0796967
v 0.0428033061 -0.0430000052 0.0796967
v 0.04332265 -0.037 0.080272764
v 0.04332265 -0.0430000052 0.080272764
v 0.04339173 -0.0400000028 0.080359146
v 0.04377747 -0.037 0.08089594
v 0.04377747 -0.0430000052 0.08089594
v 0.04389472 -0.0400000028 0.08108113
v 0.04416213 -0.037 0.08155529
v 0.04416213 -0.0430000052 0.08155529
v 0.0443046242 -0.0400000028 0.08184611
v 0.0444734134 -0.037 0.08223929
v 0.0444734134 -0.0430000052 0.08223929
v 0.0446179323 -0.0400000028 0.08263673
v 0.0447104946 -0.037 0.08293632
v 0.0447104946 -0.0430000052 0.08293632
v 0.044835113 -0.0400000028 0.08343599
v 0.0448747948 -0.037 0.08363527
v 0.0448747948 -0.0430000052 0.08363527
v 0.04496019 -0.0400000028 0.0842282549
v 0.044969663 -0.037 0.0843261
v 0.044969663 -0.0430000052 0.0843261
v 0.045 -0.037 0.08500001
v 0.045 -0.0430000052 0.08500001
v 0.044969663 -0.037 0.08567391
v 0.04490879 -0.0400000028 0.08616611
v 0.0448747948 -0.037 0.08636473
v 0.044969663 -0.0430000052 0.08567391
v 0.0448747948 -0.0430000052 0.08636473
v 0.0447104946 -0.037 0.0870636851
v 0.0447104946 -0.0430000052 0.0870636851
v 0.0446179323 -0.0400000028 0.08736328
v 0.0444734134 -0.037 0.0877607
v 0.0441116281 -0.0400000028 0.08854069
v 0.0444734134 -0.0430000052 0.0877607
v 0.04416213 -0.037 0.08844472
v 0.04416213 -0.0430000052 0.08844472
v 0.04377747 -0.037 0.08910407
v 0.04339173 -0.0400000028 0.0896408558
v 0.04377747 -0.0430000052 0.08910407
v 0.04332265 -0.037 0.08972724
v 0.04332265 -0.0430000052 0.08972724
v 0.0428033061 -0.037 0.0903033
v 0.0428033061 -0.0430000052 0.0903033
v 0.0424804874 -0.0400000028 0.09060757
v 0.04222724 -0.037 0.09082265
v 0.0414188765 -0.0400000028 0.09139472
v 0.04222724 -0.0430000052 0.09082265
v 0.04160408 -0.037 0.09127747
v 0.04160408 -0.0430000052 0.09127747
v 0.04094471 -0.037 0.09166214
v 0.04026071 -0.0400000028 0.09197341
v 0.04094471 -0.0430000052 0.09166214
v 0.04026071 -0.037 0.09197341
v 0.04026071 -0.0430000052 0.09197341
v 0.0395636857 -0.037 0.0922105
v 0.0395636857 -0.0430000052 0.0922105
v 0.03906402 -0.0400000028 0.09233511
v 0.0388647243 -0.037 0.0923747942
v 0.0388647243 -0.0430000052 0.0923747942
v 0.03827175 -0.0400000028 0.0924601853
v 0.03817391 -0.037 0.09246967
v 0.0375 -0.0400000028 0.0925
v 0.03817391 -0.0430000052 0.09246967
v 0.0375 -0.037 0.0925
v 0.0375 -0.0430000052 0.0925
v 0.0368260927 -0.037 0.09246967
v 0.0368260927 -0.0430000052 0.09246967
v 0.03672825 -0.0400000028 0.0924601853
v 0.03613528 -0.037 0.0923747942
v 0.03613528 -0.0430000052 0.0923747942
v 0.0359359868 -0.0400000028 0.09233511
v 0.0354363136 -0.037 0.0922105
v 0.0354363136 -0.0430000052 0.0922105
v 0.0351367258 -0.0400000028 0.0921179354
v 0.0347392932 -0.037 0.09197341
v 0.0347392932 -0.0430000052 0.09197341
v 0.0343461 -0.0400000028 0.09180463
v 0.0340552926 -0.037 0.09166214
v 0.0340552926 -0.0430000052 0.09166214
v 0.0335811228 -0.0400000028 0.09139472
v 0.0333959274 -0.037 0.09127747
v 0.0333959274 -0.0430000052 0.09127747
v 0.03285915 -0.0400000028 0.0908917338
v 0.0327727646 -0.037 0.09082265
v 0.0321967 -0.0400000028 0.0903033
v 0.0327727646 -0.0430000052 0.09082265
v 0.0321967 -0.037 0.0903033
v 0.0321967 -0.0430000052 0.0903033
v 0.03167735 -0.037 0.08972724
v 0.03167735 -0.0430000052 0.08972724
v 0.0316082723 -0.0400000028 0.0896408558
v 0.0312225353 -0.037 0.08910407
v 0.0312225353 -0.0430000052 0.08910407
v 0.0311052874 -0.0400000028 0.08891888
v 0.0308378711 -0.037 0.08844472
v 0.0308378711 -0.0430000052 0.08844472
v 0.0306953769 -0.0400000028 0.0881539
v 0.03052659 -0.037 0.0877607
v 0.03052659 -0.0430000052 0.0877607
v 0.0303820726 -0.0400000028 0.08736328
v 0.0302895084 -0.037 0.0870636851
v 0.0302895084 -0.0430000052 0.0870636851
v 0.0301648881 -0.0400000028 0.08656402
v 0.0301252119 -0.037 0.08636473
v 0.0301252119 -0.0430000052 0.08636473
v 0.0300398115 -0.0400000028 0.0857717544
v 0.03003034 -0.037 0.08567391
v 0.03003034 -0.0430000052 0.08567391
v 0.0300000012 -0.037 0.08500001
v 0.0300000012 -0.0430000052 0.08500001
v 0.03965 -0.045 0.08500001
v 0.0396141075 -0.045 0.085391216
v 0.0391500033 -0.0445 0.08500001
v 0.03935823 -0.044750005 0.0853962153
v 0.0391224548 -0.0445 0.0853002444
v 0.03949905 -0.045 0.08579142
v 0.03903415 -0.0445 0.08560736
v 0.03922384 -0.044750005 0.08579899
v 0.03929954 -0.045 0.08617651
v 0.0388810448 -0.0445 0.0859029
v 0.0389925726 -0.044750005 0.08617569
v 0.03902028 -0.045 0.0865202844
v 0.03866673 -0.0445 0.0861667246
v 0.0386756845 -0.044750005 0.08649257
v 0.0386765 -0.045 0.08679955
v 0.0384028964 -0.0445 0.08638105
v 0.03829899 -0.044750005 0.08672385
v 0.0382914059 -0.045 0.08699905
v 0.0381073579 -0.0445 0.08653416
v 0.03789622 -0.044750005 0.08685823
v 0.037891224 -0.045 0.08711411
v 0.0375 -0.044750005 0.0868999958
v 0.0378002375 -0.0445 0.08662246
v 0.0375 -0.045 0.08715001
v 0.0375 -0.0445 0.08665
v 0.03710878 -0.045 0.08711411
v 0.0371997654 -0.0445 0.08662246
v 0.0371037871 -0.044750005 0.08685823
v 0.0367085971 -0.045 0.08699905
v 0.0368926451 -0.0445 0.08653416
v 0.0368006229 -0.044750005 0.0867666
v 0.03650722 -0.044750005 0.08662
v 0.0363235027 -0.045 0.08679955
v 0.0365971066 -0.0445 0.08638105
v 0.03623828 -0.044750005 0.08642059
v 0.03597972 -0.045 0.0865202844
v 0.0363332741 -0.0445 0.0861667246
v 0.03600743 -0.044750005 0.08617569
v 0.03570046 -0.045 0.08617651
v 0.03611896 -0.0445 0.0859029
v 0.03582506 -0.044750005 0.0858969837
v 0.03550096 -0.045 0.08579142
v 0.0359658524 -0.0445 0.08560736
v 0.03569679 -0.044750005 0.08559871
v 0.0353858955 -0.045 0.085391216
v 0.03587755 -0.0445 0.0853002444
v 0.03562311 -0.044750005 0.08529541
v 0.0353500023 -0.045 0.08500001
v 0.0358500034 -0.0445 0.08500001
v 0.03965 -0.035 0.08500001
v 0.0396141075 -0.035 0.0846087858
v 0.0391500033 -0.0355 0.08500001
v 0.03935823 -0.0352500044 0.0846037939
v 0.0391224548 -0.0355 0.0846997648
v 0.03949905 -0.035 0.08420859
v 0.03903415 -0.0355 0.0843926445
v 0.03922384 -0.0352500044 0.0842010155
v 0.03929954 -0.035 0.0838235
v 0.0388810448 -0.0355 0.0840971
v 0.0389925726 -0.0352500044 0.08382432
v 0.03902028 -0.035 0.0834797248
v 0.03866673 -0.0355 0.08383328
v 0.0386756845 -0.0352500044 0.08350744
v 0.0386765 -0.035 0.08320047
v 0.0384028964 -0.0355 0.0836189538
v 0.03829899 -0.0352500044 0.08327617
v 0.0382914059 -0.035 0.08300096
v 0.0381073579 -0.0355 0.08346586
v 0.03789622 -0.0352500044 0.08314178
v 0.037891224 -0.035 0.0828859061
v 0.0375 -0.0352500044 0.083100006
v 0.0378002375 -0.0355 0.08337755
v 0.0375 -0.035 0.08285
v 0.0375 -0.0355 0.08335001
v 0.03710878 -0.035 0.0828859061
v 0.0371997654 -0.0355 0.08337755
v 0.0371037871 -0.0352500044 0.08314178
v 0.0367085971 -0.035 0.08300096
v 0.0368926451 -0.0355 0.08346586
v 0.0368006229 -0.0352500044 0.08323341
v 0.03650722 -0.0352500044 0.0833800063
v 0.0363235027 -0.035 0.08320047
v 0.0365971066 -0.0355 0.0836189538
v 0.03623828 -0.0352500044 0.08357942
v 0.03597972 -0.035 0.0834797248
v 0.0363332741 -0.0355 0.08383328
v 0.03600743 -0.0352500044 0.08382432
v 0.03570046 -0.035 0.0838235
v 0.03611896 -0.0355 0.0840971
v 0.03582506 -0.0352500044 0.08410303
v 0.03550096 -0.035 0.08420859
v 0.0359658524 -0.0355 0.0843926445
v 0.03569679 -0.0352500044 0.0844013
v 0.0353858955 -0.035 0.0846087858
v 0.03587755 -0.0355 0.0846997648
v 0.03562311 -0.0352500044 0.0847046
v 0.0353500023 -0.035 0.08500001
v 0.0358500034 -0.0355 0.08500001
v 0.0275000017 -0.0355 0.08500001
v 0.028 -0.035 0.08500001
v 0.028038431 -0.035 0.0841463953
v 0.0278017577 -0.0352500044 0.08399673
v 0.0275404528 -0.0355 0.08410147
v 0.0281585976 -0.035 0.0832713544
v 0.0276669469 -0.0355 0.0831803754
v 0.0279643573 -0.0352500044 0.08296679
v 0.02836671 -0.035 0.082386
v 0.0278860126 -0.0355 0.08224842
v 0.0282466933 -0.0352500044 0.08192774
v 0.0286670122 -0.035 0.0815031
v 0.0282021165 -0.0355 0.0813190639
v 0.02865399 -0.0352500044 0.08089993
v 0.0290613025 -0.035 0.0806367
v 0.02861716 -0.0355 0.08040705
v 0.029186869 -0.0352500044 0.0799054652
v 0.0295485444 -0.035 0.0798015147
v 0.0291300453 -0.0355 0.07952791
v 0.02984075 -0.0352500044 0.0789669
v 0.0301246457 -0.035 0.07901218
v 0.030605711 -0.0352500044 0.07810571
v 0.02973647 -0.0355 0.07869702
v 0.0307824854 -0.035 0.07828249
v 0.030428933 -0.0355 0.07792894
v 0.03151217 -0.035 0.07762465
v 0.0311970189 -0.0355 0.07723647
v 0.0314668939 -0.0352500044 0.07734076
v 0.0323015079 -0.035 0.07704855
v 0.0320279039 -0.0355 0.07663005
v 0.03240546 -0.0352500044 0.076686874
v 0.0331367031 -0.035 0.0765613
v 0.0329070576 -0.0355 0.07611716
v 0.0333999321 -0.0352500044 0.07615399
v 0.0340031 -0.035 0.07616702
v 0.0338190533 -0.0355 0.07570212
v 0.0344277434 -0.0352500044 0.07574669
v 0.034886 -0.035 0.0758667141
v 0.03474842 -0.0355 0.07538601
v 0.0354667827 -0.0352500044 0.07546435
v 0.03577135 -0.035 0.0756586045
v 0.0356803723 -0.0355 0.07516695
v 0.03649673 -0.0352500044 0.07530176
v 0.0366463847 -0.035 0.0755384341
v 0.0375 -0.0352500044 0.07525
v 0.0366014577 -0.0355 0.07504045
v 0.0375 -0.035 0.075500004
v 0.0375 -0.0355 0.075
v 0.03835362 -0.035 0.0755384341
v 0.0383985452 -0.0355 0.07504045
v 0.0385032743 -0.0352500044 0.07530176
v 0.03922865 -0.035 0.0756586045
v 0.0393196344 -0.0355 0.07516695
v 0.03953322 -0.0352500044 0.07546435
v 0.0401140042 -0.035 0.0758667141
v 0.0402515829 -0.0355 0.07538601
v 0.0403127223 -0.0352500044 0.07566453
v 0.0409969 -0.035 0.07616702
v 0.0411809534 -0.0355 0.07570212
v 0.0410889275 -0.0352500044 0.07593457
v 0.0418527 -0.0352500044 0.07627553
v 0.0418633 -0.035 0.0765613
v 0.04209295 -0.0355 0.07611716
v 0.0425945446 -0.0352500044 0.076686874
v 0.0426984951 -0.035 0.07704855
v 0.0429721 -0.0355 0.07663005
v 0.0433049165 -0.0352500044 0.07716639
v 0.043487832 -0.035 0.07762465
v 0.0438029841 -0.0355 0.07723647
v 0.04397463 -0.0352500044 0.07771017
v 0.0442175157 -0.035 0.07828249
v 0.04457107 -0.0355 0.07792894
v 0.044595208 -0.0352500044 0.0783126652
v 0.04487536 -0.035 0.07901218
v 0.0452635363 -0.0355 0.07869702
v 0.04515925 -0.0352500044 0.0789669
v 0.0454514548 -0.035 0.0798015147
v 0.04586996 -0.0355 0.07952791
v 0.0456607044 -0.0352500044 0.07966471
v 0.04609511 -0.0352500044 0.0803971142
v 0.0459387 -0.035 0.0806367
v 0.0463828444 -0.0355 0.08040705
v 0.0464596748 -0.0352500044 0.0811546445
v 0.0463329926 -0.035 0.0815031
v 0.0467978828 -0.0355 0.0813190639
v 0.04675331 -0.0352500044 0.08192774
v 0.0466332957 -0.035 0.082386
v 0.0471139923 -0.0355 0.08224842
v 0.0469765626 -0.0352500044 0.08270712
v 0.0468414053 -0.035 0.0832713544
v 0.047333058 -0.0355 0.0831803754
v 0.0471314341 -0.0352500044 0.08348406
v 0.046961572 -0.035 0.0841463953
v 0.04745955 -0.0355 0.08410147
v 0.04722116 -0.0352500044 0.08425066
v 0.047 -0.035 0.08500001
v 0.0475000031 -0.0355 0.08500001
v 0.046961572 -0.035 0.08585362
v 0.0471982434 -0.0352500044 0.08600328
v 0.04745955 -0.0355 0.08589855
v 0.0468414053 -0.035 0.08672865
v 0.047333058 -0.0355 0.0868196338
v 0.04703565 -0.0352500044 0.08703322
v 0.0466332957 -0.035 0.087614
v 0.0471139923 -0.0355 0.08775159
v 0.04675331 -0.0352500044 0.08807227
v 0.0463329926 -0.035 0.08849691
v 0.0467978828 -0.0355 0.0886809453
v 0.0463460162 -0.0352500044 0.08910008
v 0.0459387 -0.035 0.08936331
v 0.0463828444 -0.0355 0.08959294
v 0.0458131358 -0.0352500044 0.090094544
v 0.0454514548 -0.035 0.09019849
v 0.04586996 -0.0355 0.0904721
v 0.04515925 -0.0352500044 0.091033116
v 0.04487536 -0.035 0.09098784
v 0.0443942919 -0.0352500044 0.0918943
v 0.0452635363 -0.0355 0.09130298
v 0.0442175157 -0.035 0.09171751
v 0.04457107 -0.0355 0.09207107
v 0.043487832 -0.035 0.09237536
v 0.0438029841 -0.0355 0.0927635357
v 0.0435331129 -0.0352500044 0.09265925
v 0.0426984951 -0.035 0.09295146
v 0.0429721 -0.0355 0.09336996
v 0.0425945446 -0.0352500044 0.09331314
v 0.0418633 -0.035 0.09343871
v 0.04209295 -0.0355 0.09388284
v 0.04160007 -0.0352500044 0.09384602
v 0.0409969 -0.035 0.09383299
v 0.0411809534 -0.0355 0.09429789
v 0.0405722633 -0.0352500044 0.09425332
v 0.0401140042 -0.035 0.0941333
v 0.0402515829 -0.0355 0.09461399
v 0.03953322 -0.0352500044 0.09453565
v 0.03922865 -0.035 0.0943414047
v 0.0393196344 -0.0355 0.09483306
v 0.0385032743 -0.0352500044 0.09469825
v 0.03835362 -0.035 0.09446158
v 0.0375 -0.0352500044 0.09475001
v 0.0383985452 -0.0355 0.09495955
v 0.0375 -0.035 0.0945000052
v 0.0375 -0.0355 0.0950000063
v 0.0366463847 -0.035 0.09446158
v 0.0366014577 -0.0355 0.09495955
v 0.03649673 -0.0352500044 0.09469825
v 0.03577135 -0.035 0.0943414047
v 0.0356803723 -0.0355 0.09483306
v 0.0354667827 -0.0352500044 0.09453565
v 0.034886 -0.035 0.0941333
v 0.03474842 -0.0355 0.09461399
v 0.03468728 -0.0352500044 0.09433548
v 0.0340031 -0.035 0.09383299
v 0.0338190533 -0.0355 0.09429789
v 0.03391108 -0.0352500044 0.09406544
v 0.0331473 -0.0352500044 0.09372449
v 0.0331367031 -0.035 0.09343871
v 0.0329070576 -0.0355 0.09388284
v 0.03240546 -0.0352500044 0.09331314
v 0.0323015079 -0.035 0.09295146
v 0.0320279039 -0.0355 0.09336996
v 0.0316950828 -0.0352500044 0.09283362
v 0.03151217 -0.035 0.09237536
v 0.0311970189 -0.0355 0.0927635357
v 0.03102537 -0.0352500044 0.09228983
v 0.0307824854 -0.035 0.09171751
v 0.030428933 -0.0355 0.09207107
v 0.0304047931 -0.0352500044 0.09168734
v 0.0301246457 -0.035 0.09098784
v 0.02973647 -0.0355 0.09130298
v 0.02984075 -0.0352500044 0.091033116
v 0.0295485444 -0.035 0.09019849
v 0.0291300453 -0.0355 0.0904721
v 0.0293392967 -0.0352500044 0.0903353
v 0.0289048925 -0.0352500044 0.0896029
v 0.0290613025 -0.035 0.08936331
v 0.02861716 -0.0355 0.08959294
v 0.0285403319 -0.0352500044 0.08884536
v 0.0286670122 -0.035 0.08849691
v 0.0282021165 -0.0355 0.0886809453
v 0.0282466933 -0.0352500044 0.08807227
v 0.02836671 -0.035 0.087614
v 0.0278860126 -0.0355 0.08775159
v 0.02802344 -0.0352500044 0.08729288
v 0.0281585976 -0.035 0.08672865
v 0.0276669469 -0.0355 0.0868196338
v 0.0278685726 -0.0352500044 0.08651595
v 0.028038431 -0.035 0.08585362
v 0.0275404528 -0.0355 0.08589855
v 0.02777884 -0.0352500044 0.08574934
v 0.028 -0.035 0.08500001
v 0.0275000017 -0.0355 0.08500001
v 0.0275000017 -0.0355 0.08500001
v 0.0275000017 -0.037 0.08500001
v 0.0275404528 -0.037 0.08589855
v 0.0275530852 -0.0362500027 0.08602899
v 0.0275404528 -0.0355 0.08589855
v 0.0276669469 -0.037 0.0868196338
v 0.0276669469 -0.0355 0.0868196338
v 0.0277198516 -0.0362500027 0.08708536
v 0.0278860126 -0.037 0.08775159
v 0.0278860126 -0.0355 0.08775159
v 0.02800943 -0.0362500027 0.08815104
v 0.0282021165 -0.037 0.0886809453
v 0.0282021165 -0.0355 0.0886809453
v 0.0284271687 -0.0362500027 0.0892052054
v 0.02861716 -0.037 0.08959294
v 0.02861716 -0.0355 0.08959294
v 0.0289737154 -0.0362500027 0.09022518
v 0.0291300453 -0.037 0.0904721
v 0.0291300453 -0.0355 0.0904721
v 0.0296443626 -0.0362500027 0.0911878049
v 0.02973647 -0.037 0.09130298
v 0.030428933 -0.0362500027 0.09207107
v 0.02973647 -0.0355 0.09130298
v 0.030428933 -0.037 0.09207107
v 0.030428933 -0.0355 0.09207107
v 0.0311970189 -0.037 0.0927635357
v 0.0311970189 -0.0355 0.0927635357
v 0.0313121974 -0.0362500027 0.09285565
v 0.0320279039 -0.037 0.09336996
v 0.0320279039 -0.0355 0.09336996
v 0.03227483 -0.0362500027 0.09352629
v 0.0329070576 -0.037 0.09388284
v 0.0329070576 -0.0355 0.09388284
v 0.0332948 -0.0362500027 0.09407283
v 0.0338190533 -0.037 0.09429789
v 0.0338190533 -0.0355 0.09429789
v 0.03434897 -0.0362500027 0.09449058
v 0.03474842 -0.037 0.09461399
v 0.03474842 -0.0355 0.09461399
v 0.03541465 -0.0362500027 0.09478016
v 0.0356803723 -0.037 0.09483306
v 0.0356803723 -0.0355 0.09483306
v 0.0364710055 -0.0362500027 0.09494692
v 0.0366014577 -0.037 0.09495955
v 0.0375 -0.0362500027 0.0950000063
v 0.0366014577 -0.0355 0.09495955
v 0.0375 -0.037 0.0950000063
v 0.0375 -0.0355 0.0950000063
v 0.0383985452 -0.037 0.09495955
v 0.0383985452 -0.0355 0.09495955
v 0.0385289975 -0.0362500027 0.09494692
v 0.0393196344 -0.037 0.09483306
v 0.0393196344 -0.0355 0.09483306
v 0.0395853519 -0.0362500027 0.09478016
v 0.0402515829 -0.037 0.09461399
v 0.0402515829 -0.0355 0.09461399
v 0.0403848439 -0.0362500027 0.09457485
v 0.0411809534 -0.037 0.09429789
v 0.0411809534 -0.0355 0.09429789
v 0.0411809534 -0.0362500027 0.09429789
v 0.04196431 -0.0362500027 0.0939481854
v 0.04209295 -0.037 0.09388284
v 0.04209295 -0.0355 0.09388284
v 0.0427251719 -0.0362500027 0.09352629
v 0.0429721 -0.037 0.09336996
v 0.0429721 -0.0355 0.09336996
v 0.04345376 -0.0362500027 0.09303447
v 0.0438029841 -0.037 0.0927635357
v 0.0438029841 -0.0355 0.0927635357
v 0.0441406481 -0.0362500027 0.0924767554
v 0.04457107 -0.037 0.09207107
v 0.04457107 -0.0355 0.09207107
v 0.0447771363 -0.0362500027 0.09185881
v 0.0452635363 -0.037 0.09130298
v 0.0452635363 -0.0355 0.09130298
v 0.04535564 -0.0362500027 0.0911878049
v 0.04586996 -0.037 0.0904721
v 0.04586996 -0.0355 0.0904721
v 0.04586996 -0.0362500027 0.0904721
v 0.0463155 -0.0362500027 0.08972093
v 0.0463828444 -0.037 0.08959294
v 0.0463828444 -0.0355 0.08959294
v 0.046689406 -0.0362500027 0.08894396
v 0.0467978828 -0.037 0.0886809453
v 0.0467978828 -0.0355 0.0886809453
v 0.0469905734 -0.0362500027 0.08815104
v 0.0471139923 -0.037 0.08775159
v 0.0471139923 -0.0355 0.08775159
v 0.04721955 -0.0362500027 0.08735168
v 0.047333058 -0.037 0.0868196338
v 0.047333058 -0.0355 0.0868196338
v 0.04737839 -0.0362500027 0.08655481
v 0.04745955 -0.037 0.08589855
v 0.04745955 -0.0355 0.08589855
v 0.0474704243 -0.0362500027 0.08576856
v 0.0475000031 -0.037 0.08500001
v 0.0475000031 -0.0355 0.08500001
v 0.04745955 -0.037 0.08410147
v 0.04744692 -0.0362500027 0.08397101
v 0.04745955 -0.0355 0.08410147
v 0.047333058 -0.037 0.0831803754
v 0.047333058 -0.0355 0.0831803754
v 0.04728015 -0.0362500027 0.08291465
v 0.0471139923 -0.037 0.08224842
v 0.0471139923 -0.0355 0.08224842
v 0.0469905734 -0.0362500027 0.0818489641
v 0.0467978828 -0.037 0.0813190639
v 0.0467978828 -0.0355 0.0813190639
v 0.0465728343 -0.0362500027 0.0807948038
v 0.0463828444 -0.037 0.08040705
v 0.0463828444 -0.0355 0.08040705
v 0.04602629 -0.0362500027 0.07977483
v 0.04586996 -0.037 0.07952791
v 0.04586996 -0.0355 0.07952791
v 0.04535564 -0.0362500027 0.0788122
v 0.0452635363 -0.037 0.07869702
v 0.04457107 -0.0362500027 0.07792894
v 0.0452635363 -0.0355 0.07869702
v 0.04457107 -0.037 0.07792894
v 0.04457107 -0.0355 0.07792894
v 0.0438029841 -0.037 0.07723647
v 0.0438029841 -0.0355 0.07723647
v 0.0436878055 -0.0362500027 0.07714436
v 0.0429721 -0.037 0.07663005
v 0.0429721 -0.0355 0.07663005
v 0.0427251719 -0.0362500027 0.07647372
v 0.04209295 -0.037 0.07611716
v 0.04209295 -0.0355 0.07611716
v 0.041705206 -0.0362500027 0.07592717
v 0.0411809534 -0.037 0.07570212
v 0.0411809534 -0.0355 0.07570212
v 0.04065104 -0.0362500027 0.07550943
v 0.0402515829 -0.037 0.07538601
v 0.0402515829 -0.0355 0.07538601
v 0.0395853519 -0.0362500027 0.0752198547
v 0.0393196344 -0.037 0.07516695
v 0.0393196344 -0.0355 0.07516695
v 0.0385289975 -0.0362500027 0.07505308
v 0.0383985452 -0.037 0.07504045
v 0.0375 -0.0362500027 0.075
v 0.0383985452 -0.0355 0.07504045
v 0.0375 -0.037 0.075
v 0.0375 -0.0355 0.075
v 0.0366014577 -0.037 0.07504045
v 0.0366014577 -0.0355 0.07504045
v 0.0364710055 -0.0362500027 0.07505308
v 0.0356803723 -0.037 0.07516695
v 0.0356803723 -0.0355 0.07516695
v 0.03541465 -0.0362500027 0.0752198547
v 0.03474842 -0.037 0.07538601
v 0.03474842 -0.0355 0.07538601
v 0.03461516 -0.0362500027 0.0754251555
v 0.0338190533 -0.037 0.07570212
v 0.0338190533 -0.0355 0.07570212
v 0.0338190533 -0.0362500027 0.07570212
v 0.0330356956 -0.0362500027 0.07605182
v 0.0329070576 -0.037 0.07611716
v 0.0329070576 -0.0355 0.07611716
v 0.03227483 -0.0362500027 0.07647372
v 0.0320279039 -0.037 0.07663005
v 0.0320279039 -0.0355 0.07663005
v 0.03154624 -0.0362500027 0.07696553
v 0.0311970189 -0.037 0.07723647
v 0.0311970189 -0.0355 0.07723647
v 0.0308593549 -0.0362500027 0.07752325
v 0.030428933 -0.037 0.07792894
v 0.030428933 -0.0355 0.07792894
v 0.030222863 -0.0362500027 0.0781412
v 0.02973647 -0.037 0.07869702
v 0.02973647 -0.0355 0.07869702
v 0.0296443626 -0.0362500027 0.0788122
v 0.0291300453 -0.037 0.07952791
v 0.0291300453 -0.0355 0.07952791
v 0.0291300453 -0.0362500027 0.07952791
v 0.0286845043 -0.0362500027 0.08027908
v 0.02861716 -0.037 0.08040705
v 0.02861716 -0.0355 0.08040705
v 0.0283105951 -0.0362500027 0.08105605
v 0.0282021165 -0.037 0.0813190639
v 0.0282021165 -0.0355 0.0813190639
v 0.02800943 -0.0362500027 0.0818489641
v 0.0278860126 -0.037 0.08224842
v 0.0278860126 -0.0355 0.08224842
v 0.02778045 -0.0362500027 0.08264833
v 0.0276669469 -0.037 0.0831803754
v 0.0276669469 -0.0355 0.0831803754
v 0.027621612 -0.0362500027 0.0834452
v 0.0275404528 -0.037 0.08410147
v 0.0275404528 -0.0355 0.08410147
v 0.0275295787 -0.0362500027 0.08423145
v 0.0275000017 -0.037 0.08500001
v 0.0275000017 -0.0355 0.08500001
v 0.0358500034 -0.0355 0.08500001
v 0.0353500023 -0.035 0.08500001
v 0.0353858955 -0.035 0.085391216
v 0.0356417745 -0.0352500044 0.0853962153
v 0.03587755 -0.0355 0.0853002444
v 0.03550096 -0.035 0.08579142
v 0.0359658524 -0.0355 0.08560736
v 0.0357761644 -0.0352500044 0.08579899
v 0.03570046 -0.035 0.08617651
v 0.03611896 -0.0355 0.0859029
v 0.03600743 -0.0352500044 0.08617569
v 0.03597972 -0.035 0.0865202844
v 0.0363332741 -0.0355 0.0861667246
v 0.03632432 -0.0352500044 0.08649257
v 0.0363235027 -0.035 0.08679955
v 0.0365971066 -0.0355 0.08638105
v 0.0367010124 -0.0352500044 0.08672385
v 0.0367085971 -0.035 0.08699905
v 0.0368926451 -0.0355 0.08653416
v 0.0371037871 -0.0352500044 0.08685823
v 0.03710878 -0.035 0.08711411
v 0.0375 -0.0352500044 0.0868999958
v 0.0371997654 -0.0355 0.08662246
v 0.0375 -0.035 0.08715001
v 0.0375 -0.0355 0.08665
v 0.037891224 -0.035 0.08711411
v 0.0378002375 -0.0355 0.08662246
v 0.03789622 -0.0352500044 0.08685823
v 0.0382914059 -0.035 0.08699905
v 0.0381073579 -0.0355 0.08653416
v 0.03819938 -0.0352500044 0.0867666
v 0.0384927839 -0.0352500044 0.08662
v 0.0386765 -0.035 0.08679955
v 0.0384028964 -0.0355 0.08638105
v 0.0387617238 -0.0352500044 0.08642059
v 0.03902028 -0.035 0.0865202844
v 0.03866673 -0.0355 0.0861667246
v 0.0389925726 -0.0352500044 0.08617569
v 0.03929954 -0.035 0.08617651
v 0.0388810448 -0.0355 0.0859029
v 0.0391749479 -0.0352500044 0.0858969837
v 0.03949905 -0.035 0.08579142
v 0.03903415 -0.0355 0.08560736
v 0.03930321 -0.0352500044 0.08559871
v 0.0396141075 -0.035 0.085391216
v 0.0391224548 -0.0355 0.0853002444
v 0.0393768959 -0.0352500044 0.08529541
v 0.03965 -0.035 0.08500001
v 0.0391500033 -0.0355 0.08500001
v 0.0358500034 -0.0445 0.08500001
v 0.0358500034 -0.0355 0.08500001
v 0.03587755 -0.0355 0.0853002444
v 0.0358862765 -0.0400000028 0.08534409
v 0.03587755 -0.0445 0.0853002444
v 0.0359658524 -0.0355 0.08560736
v 0.0359658524 -0.0445 0.08560736
v 0.0360029861 -0.0400000028 0.08569386
v 0.03611896 -0.0355 0.0859029
v 0.03611896 -0.0445 0.0859029
v 0.03620382 -0.0400000028 0.0860209838
v 0.0363332741 -0.0355 0.0861667246
v 0.0363332741 -0.0445 0.0861667246
v 0.0364790149 -0.0400000028 0.0862961859
v 0.0365971066 -0.0355 0.08638105
v 0.0365971066 -0.0445 0.08638105
v 0.0368061438 -0.0400000028 0.08649702
v 0.0368926451 -0.0355 0.08653416
v 0.0368926451 -0.0445 0.08653416
v 0.03715592 -0.0400000028 0.08661373
v 0.0371997654 -0.0355 0.08662246
v 0.0375 -0.0400000028 0.08665
v 0.0371997654 -0.0445 0.08662246
v 0.0375 -0.0355 0.08665
v 0.0375 -0.0445 0.08665
v 0.0378002375 -0.0355 0.08662246
v 0.0378002375 -0.0445 0.08662246
v 0.0378440842 -0.0400000028 0.08661373
v 0.0381073579 -0.0355 0.08653416
v 0.0381073579 -0.0445 0.08653416
v 0.0381073579 -0.0400000028 0.08653416
v 0.0383621529 -0.0400000028 0.08640684
v 0.0384028964 -0.0355 0.08638105
v 0.0384028964 -0.0445 0.08638105
v 0.03859571 -0.0400000028 0.0862336755
v 0.03866673 -0.0355 0.0861667246
v 0.03866673 -0.0445 0.0861667246
v 0.0387961827 -0.0400000028 0.0860209838
v 0.0388810448 -0.0355 0.0859029
v 0.0388810448 -0.0445 0.0859029
v 0.038954556 -0.0400000028 0.08577895
v 0.03903415 -0.0355 0.08560736
v 0.03903415 -0.0445 0.08560736
v 0.0390659459 -0.0400000028 0.0855199248
v 0.0391224548 -0.0355 0.0853002444
v 0.0391224548 -0.0445 0.0853002444
v 0.0391299352 -0.0400000028 0.0852565542
v 0.0391500033 -0.0355 0.08500001
v 0.0391500033 -0.0445 0.08500001
v 0.0391224548 -0.0355 0.0846997648
v 0.0391137265 -0.0400000028 0.08465592
v 0.0391224548 -0.0445 0.0846997648
v 0.03903415 -0.0355 0.0843926445
v 0.03903415 -0.0445 0.0843926445
v 0.03899702 -0.0400000028 0.08430615
v 0.0388810448 -0.0355 0.0840971
v 0.0388810448 -0.0445 0.0840971
v 0.0387961827 -0.0400000028 0.0839790255
v 0.03866673 -0.0355 0.08383328
v 0.03866673 -0.0445 0.08383328
v 0.0385209881 -0.0400000028 0.08370383
v 0.0384028964 -0.0355 0.0836189538
v 0.0384028964 -0.0445 0.0836189538
v 0.03819386 -0.0400000028 0.0835029855
v 0.0381073579 -0.0355 0.08346586
v 0.0381073579 -0.0445 0.08346586
v 0.0378440842 -0.0400000028 0.08338629
v 0.0378002375 -0.0355 0.08337755
v 0.0375 -0.0400000028 0.08335001
v 0.0378002375 -0.0445 0.08337755
v 0.0375 -0.0355 0.08335001
v 0.0375 -0.0445 0.08335001
v 0.0371997654 -0.0355 0.08337755
v 0.0371997654 -0.0445 0.08337755
v 0.03715592 -0.0400000028 0.08338629
v 0.0368926451 -0.0355 0.08346586
v 0.0368926451 -0.0445 0.08346586
v 0.0368926451 -0.0400000028 0.08346586
v 0.03663785 -0.0400000028 0.08359316
v 0.0365971066 -0.0355 0.0836189538
v 0.0365971066 -0.0445 0.0836189538
v 0.036404293 -0.0400000028 0.08376634
v 0.0363332741 -0.0355 0.08383328
v 0.0363332741 -0.0445 0.08383328
v 0.03620382 -0.0400000028 0.0839790255
v 0.03611896 -0.0355 0.0840971
v 0.03611896 -0.0445 0.0840971
v 0.036045447 -0.0400000028 0.08422106
v 0.0359658524 -0.0355 0.0843926445
v 0.0359658524 -0.0445 0.0843926445
v 0.0359340571 -0.0400000028 0.0844800845
v 0.03587755 -0.0355 0.0846997648
v 0.03587755 -0.0445 0.0846997648
v 0.0358700678 -0.0400000028 0.0847434551
v 0.0358500034 -0.0355 0.08500001
v 0.0358500034 -0.0445 0.08500001
v 0.0275000017 -0.0445 0.08500001
v 0.028 -0.045 0.08500001
v 0.028038431 -0.045 0.08585362
v 0.0278017577 -0.044750005 0.08600328
v 0.0275404528 -0.0445 0.08589855
v 0.0281585976 -0.045 0.08672865
v 0.0276669469 -0.0445 0.0868196338
v 0.0279643573 -0.044750005 0.08703322
v 0.02836671 -0.045 0.087614
v 0.0278860126 -0.0445 0.08775159
v 0.0282466933 -0.044750005 0.08807227
v 0.0286670122 -0.045 0.08849691
v 0.0282021165 -0.0445 0.0886809453
v 0.02865399 -0.044750005 0.08910008
v 0.0290613025 -0.045 0.08936331
v 0.02861716 -0.0445 0.08959294
v 0.029186869 -0.044750005 0.090094544
v 0.0295485444 -0.045 0.09019849
v 0.0291300453 -0.0445 0.0904721
v 0.02984075 -0.044750005 0.091033116
v 0.0301246457 -0.045 0.09098784
v 0.030605711 -0.044750005 0.0918943
v 0.02973647 -0.0445 0.09130298
v 0.0307824854 -0.045 0.09171751
v 0.030428933 -0.0445 0.09207107
v 0.03151217 -0.045 0.09237536
v 0.0311970189 -0.0445 0.0927635357
v 0.0314668939 -0.044750005 0.09265925
v 0.0323015079 -0.045 0.09295146
v 0.0320279039 -0.0445 0.09336996
v 0.03240546 -0.044750005 0.09331314
v 0.0331367031 -0.045 0.09343871
v 0.0329070576 -0.0445 0.09388284
v 0.0333999321 -0.044750005 0.09384602
v 0.0340031 -0.045 0.09383299
v 0.0338190533 -0.0445 0.09429789
v 0.0344277434 -0.044750005 0.09425332
v 0.034886 -0.045 0.0941333
v 0.03474842 -0.0445 0.09461399
v 0.0354667827 -0.044750005 0.09453565
v 0.03577135 -0.045 0.0943414047
v 0.0356803723 -0.0445 0.09483306
v 0.03649673 -0.044750005 0.09469825
v 0.0366463847 -0.045 0.09446158
v 0.0375 -0.044750005 0.09475001
v 0.0366014577 -0.0445 0.09495955
v 0.0375 -0.045 0.0945000052
v 0.0375 -0.0445 0.0950000063
v 0.03835362 -0.045 0.09446158
v 0.0383985452 -0.0445 0.09495955
v 0.0385032743 -0.044750005 0.09469825
v 0.03922865 -0.045 0.0943414047
v 0.0393196344 -0.0445 0.09483306
v 0.03953322 -0.044750005 0.09453565
v 0.0401140042 -0.045 0.0941333
v 0.0402515829 -0.0445 0.09461399
v 0.0403127223 -0.044750005 0.09433548
v 0.0409969 -0.045 0.09383299
v 0.0411809534 -0.0445 0.09429789
v 0.0410889275 -0.044750005 0.09406544
v 0.0418527 -0.044750005 0.09372449
v 0.0418633 -0.045 0.09343871
v 0.04209295 -0.0445 0.09388284
v 0.0425945446 -0.044750005 0.09331314
v 0.0426984951 -0.045 0.09295146
v 0.0429721 -0.0445 0.09336996
v 0.0433049165 -0.044750005 0.09283362
v 0.043487832 -0.045 0.09237536
v 0.0438029841 -0.0445 0.0927635357
v 0.04397463 -0.044750005 0.09228983
v 0.0442175157 -0.045 0.09171751
v 0.04457107 -0.0445 0.09207107
v 0.044595208 -0.044750005 0.09168734
v 0.04487536 -0.045 0.09098784
v 0.0452635363 -0.0445 0.09130298
v 0.04515925 -0.044750005 0.091033116
v 0.0454514548 -0.045 0.09019849
v 0.04586996 -0.0445 0.0904721
v 0.0456607044 -0.044750005 0.0903353
v 0.04609511 -0.044750005 0.0896029
v 0.0459387 -0.045 0.08936331
v 0.0463828444 -0.0445 0.08959294
v 0.0464596748 -0.044750005 0.08884536
v 0.0463329926 -0.045 0.08849691
v 0.0467978828 -0.0445 0.0886809453
v 0.04675331 -0.044750005 0.08807227
v 0.0466332957 -0.045 0.087614
v 0.0471139923 -0.0445 0.08775159
v 0.0469765626 -0.044750005 0.08729288
v 0.0468414053 -0.045 0.08672865
v 0.047333058 -0.0445 0.0868196338
v 0.0471314341 -0.044750005 0.08651595
v 0.046961572 -0.045 0.08585362
v 0.04745955 -0.0445 0.08589855
v 0.04722116 -0.044750005 0.08574934
v 0.047 -0.045 0.08500001
v 0.0475000031 -0.0445 0.08500001
v 0.046961572 -0.045 0.0841463953
v 0.0471982434 -0.044750005 0.08399673
v 0.04745955 -0.0445 0.08410147
v 0.0468414053 -0.045 0.0832713544
v 0.047333058 -0.0445 0.0831803754
v 0.04703565 -0.044750005 0.08296679
v 0.0466332957 -0.045 0.082386
v 0.0471139923 -0.0445 0.08224842
v 0.04675331 -0.044750005 0.08192774
v 0.0463329926 -0.045 0.0815031
v 0.0467978828 -0.0445 0.0813190639
v 0.0463460162 -0.044750005 0.08089993
v 0.0459387 -0.045 0.0806367
v 0.0463828444 -0.0445 0.08040705
v 0.0458131358 -0.044750005 0.0799054652
v 0.0454514548 -0.045 0.0798015147
v 0.04586996 -0.0445 0.07952791
v 0.04515925 -0.044750005 0.0789669
v 0.04487536 -0.045 0.07901218
v 0.0443942919 -0.044750005 0.07810571
v 0.0452635363 -0.0445 0.07869702
v 0.0442175157 -0.045 0.07828249
v 0.04457107 -0.0445 0.07792894
v 0.043487832 -0.045 0.07762465
v 0.0438029841 -0.0445 0.07723647
v 0.0435331129 -0.044750005 0.07734076
v 0.0426984951 -0.045 0.07704855
v 0.0429721 -0.0445 0.07663005
v 0.0425945446 -0.044750005 0.076686874
v 0.0418633 -0.045 0.0765613
v 0.04209295 -0.0445 0.07611716
v 0.04160007 -0.044750005 0.07615399
v 0.0409969 -0.045 0.07616702
v 0.0411809534 -0.0445 0.07570212
v 0.0405722633 -0.044750005 0.07574669
v 0.0401140042 -0.045 0.0758667141
v 0.0402515829 -0.0445 0.07538601
v 0.03953322 -0.044750005 0.07546435
v 0.03922865 -0.045 0.0756586045
v 0.0393196344 -0.0445 0.07516695
v 0.0385032743 -0.044750005 0.07530176
v 0.03835362 -0.045 0.0755384341
v 0.0375 -0.044750005 0.07525
v 0.0383985452 -0.0445 0.07504045
v 0.0375 -0.045 0.075500004
v 0.0375 -0.0445 0.075
v 0.0366463847 -0.045 0.0755384341
v 0.0366014577 -0.0445 0.07504045
v 0.03649673 -0.044750005 0.07530176
v 0.03577135 -0.045 0.0756586045
v 0.0356803723 -0.0445 0.07516695
v 0.0354667827 -0.044750005 0.07546435
v 0.034886 -0.045 0.0758667141
v 0.03474842 -0.0445 0.07538601
v 0.03468728 -0.044750005 0.07566453
v 0.0340031 -0.045 0.07616702
v 0.0338190533 -0.0445 0.07570212
v 0.03391108 -0.044750005 0.07593457
v 0.0331473 -0.044750005 0.07627553
v 0.0331367031 -0.045 0.0765613
v 0.0329070576 -0.0445 0.07611716
v 0.03240546 -0.044750005 0.076686874
v 0.0323015079 -0.045 0.07704855
v 0.0320279039 -0.0445 0.07663005
v 0.0316950828 -0.044750005 0.07716639
v 0.03151217 -0.045 0.07762465
v 0.0311970189 -0.0445 0.07723647
v 0.03102537 -0.044750005 0.07771017
v 0.0307824854 -0.045 0.07828249
v 0.030428933 -0.0445 0.07792894
v 0.0304047931 -0.044750005 0.0783126652
v 0.0301246457 -0.045 0.07901218
v 0.02973647 -0.0445 0.07869702
v 0.02984075 -0.044750005 0.0789669
v 0.0295485444 -0.045 0.0798015147
v 0.0291300453 -0.0445 0.07952791
v 0.0293392967 -0.044750005 0.07966471
v 0.0289048925 -0.044750005 0.0803971142
v 0.0290613025 -0.045 0.0806367
v 0.02861716 -0.0445 0.08040705
v 0.0285403319 -0.044750005 0.0811546445
v 0.0286670122 -0.045 0.0815031
v 0.0282021165 -0.0445 0.0813190639
v 0.0282466933 -0.044750005 0.08192774
v 0.02836671 -0.045 0.082386
v 0.0278860126 -0.0445 0.08224842
v 0.02802344 -0.044750005 0.08270712
v 0.0281585976 -0.045 0.0832713544
v 0.0276669469 -0.0445 0.0831803754
v 0.0278685726 -0.044750005 0.08348406
v 0.028038431 -0.045 0.0841463953
v 0.0275404528 -0.0445 0.08410147
v 0.02777884 -0.044750005 0.08425066
v 0.028 -0.045 0.08500001
v 0.0275000017 -0.0445 0.08500001
v 0.0375 -0.045 0.075500004
v 0.03835362 -0.045 0.0755384341
v 0.03922865 -0.045 0.0756586045
v 0.0401140042 -0.045 0.0758667141
v 0.0409969 -0.045 0.07616702
v 0.0418633 -0.045 0.0765613
v 0.0426984951 -0.045 0.07704855
v 0.0382914059 -0.045 0.08300096
v 0.0386765 -0.045 0.08320047
v 0.037891224 -0.045 0.0828859061
v 0.043487832 -0.045 0.07762465
v 0.0375 -0.045 0.08285
v 0.03902028 -0.045 0.0834797248
v 0.0442175157 -0.045 0.07828249
v 0.04487536 -0.045 0.07901218
v 0.0366463847 -0.045 0.0755384341
v 0.03929954 -0.045 0.0838235
v 0.0454514548 -0.045 0.0798015147
v 0.0459387 -0.045 0.0806367
v 0.03577135 -0.045 0.0756586045
v 0.03949905 -0.045 0.08420859
v 0.0463329926 -0.045 0.0815031
v 0.0466332957 -0.045 0.082386
v 0.034886 -0.045 0.0758667141
v 0.0340031 -0.045 0.07616702
v 0.0331367031 -0.045 0.0765613
v 0.0323015079 -0.045 0.07704855
v 0.03151217 -0.045 0.07762465
v 0.0396141075 -0.045 0.0846087858
v 0.0468414053 -0.045 0.0832713544
v 0.046961572 -0.045 0.0841463953
v 0.0307824854 -0.045 0.07828249
v 0.03965 -0.045 0.08500001
v 0.047 -0.045 0.08500001
v 0.046961572 -0.045 0.08585362
v 0.0301246457 -0.045 0.07901218
v 0.0396141075 -0.045 0.085391216
v 0.0468414053 -0.045 0.08672865
v 0.0466332957 -0.045 0.087614
v 0.0295485444 -0.045 0.0798015147
v 0.03949905 -0.045 0.08579142
v 0.0463329926 -0.045 0.08849691
v 0.0459387 -0.045 0.08936331
v 0.0290613025 -0.045 0.0806367
v 0.0286670122 -0.045 0.0815031
v 0.02836671 -0.045 0.082386
v 0.03710878 -0.045 0.0828859061
v 0.03929954 -0.045 0.08617651
v 0.0454514548 -0.045 0.09019849
v 0.04487536 -0.045 0.09098784
v 0.0367085971 -0.045 0.08300096
v 0.03902028 -0.045 0.0865202844
v 0.0442175157 -0.045 0.09171751
v 0.043487832 -0.045 0.09237536
v 0.0363235027 -0.045 0.08320047
v 0.0386765 -0.045 0.08679955
v 0.0426984951 -0.045 0.09295146
v 0.0418633 -0.045 0.09343871
v 0.03597972 -0.045 0.0834797248
v 0.0382914059 -0.045 0.08699905
v 0.0409969 -0.045 0.09383299
v 0.0401140042 -0.045 0.0941333
v 0.03570046 -0.045 0.0838235
v 0.03550096 -0.045 0.08420859
v 0.037891224 -0.045 0.08711411
v 0.03922865 -0.045 0.0943414047
v 0.03835362 -0.045 0.09446158
v 0.0353858955 -0.045 0.0846087858
v 0.0281585976 -0.045 0.0832713544
v 0.028038431 -0.045 0.0841463953
v 0.0375 -0.045 0.08715001
v 0.0375 -0.045 0.0945000052
v 0.0366463847 -0.045 0.09446158
v 0.0353500023 -0.045 0.08500001
v 0.028 -0.045 0.08500001
v 0.028038431 -0.045 0.08585362
v 0.03710878 -0.045 0.08711411
v 0.03577135 -0.045 0.0943414047
v 0.034886 -0.045 0.0941333
v 0.0353858955 -0.045 0.085391216
v 0.0281585976 -0.045 0.08672865
v 0.02836671 -0.045 0.087614
v 0.0367085971 -0.045 0.08699905
v 0.0340031 -0.045 0.09383299
v 0.0331367031 -0.045 0.09343871
v 0.03550096 -0.045 0.08579142
v 0.0286670122 -0.045 0.08849691
v 0.0290613025 -0.045 0.08936331
v 0.0363235027 -0.045 0.08679955
v 0.0323015079 -0.045 0.09295146
v 0.03151217 -0.045 0.09237536
v 0.03570046 -0.045 0.08617651
v 0.0295485444 -0.045 0.09019849
v 0.0301246457 -0.045 0.09098784
v 0.03597972 -0.045 0.0865202844
v 0.0307824854 -0.045 0.09171751
v 0.0275000017 -0.0430000052 0.08500001
v 0.0275000017 -0.0445 0.08500001
v 0.0275404528 -0.0445 0.08589855
v 0.0275530852 -0.04375 0.08602899
v 0.0275404528 -0.0430000052 0.08589855
v 0.0276669469 -0.0445 0.0868196338
v 0.0276669469 -0.0430000052 0.0868196338
v 0.0277198516 -0.04375 0.08708536
v 0.0278860126 -0.0445 0.08775159
v 0.0278860126 -0.0430000052 0.08775159
v 0.02800943 -0.04375 0.08815104
v 0.0282021165 -0.0445 0.0886809453
v 0.0282021165 -0.0430000052 0.0886809453
v 0.0284271687 -0.04375 0.0892052054
v 0.02861716 -0.0445 0.08959294
v 0.02861716 -0.0430000052 0.08959294
v 0.0289737154 -0.04375 0.09022518
v 0.0291300453 -0.0445 0.0904721
v 0.0291300453 -0.0430000052 0.0904721
v 0.0296443626 -0.04375 0.0911878049
v 0.02973647 -0.0445 0.09130298
v 0.030428933 -0.04375 0.09207107
v 0.02973647 -0.0430000052 0.09130298
v 0.030428933 -0.0445 0.09207107
v 0.030428933 -0.0430000052 0.09207107
v 0.0311970189 -0.0445 0.0927635357
v 0.0311970189 -0.0430000052 0.0927635357
v 0.0313121974 -0.04375 0.09285565
v 0.0320279039 -0.0445 0.09336996
v 0.0320279039 -0.0430000052 0.09336996
v 0.03227483 -0.04375 0.09352629
v 0.0329070576 -0.0445 0.09388284
v 0.0329070576 -0.0430000052 0.09388284
v 0.0332948 -0.04375 0.09407283
v 0.0338190533 -0.0445 0.09429789
v 0.0338190533 -0.0430000052 0.09429789
v 0.03434897 -0.04375 0.09449058
v 0.03474842 -0.0445 0.09461399
v 0.03474842 -0.0430000052 0.09461399
v 0.03541465 -0.04375 0.09478016
v 0.0356803723 -0.0445 0.09483306
v 0.0356803723 -0.0430000052 0.09483306
v 0.0364710055 -0.04375 0.09494692
v 0.0366014577 -0.0445 0.09495955
v 0.0375 -0.04375 0.0950000063
v 0.0366014577 -0.0430000052 0.09495955
v 0.0375 -0.0445 0.0950000063
v 0.0375 -0.0430000052 0.0950000063
v 0.0383985452 -0.0445 0.09495955
v 0.0383985452 -0.0430000052 0.09495955
v 0.0385289975 -0.04375 0.09494692
v 0.0393196344 -0.0445 0.09483306
v 0.0393196344 -0.0430000052 0.09483306
v 0.0395853519 -0.04375 0.09478016
v 0.0402515829 -0.0445 0.09461399
v 0.0402515829 -0.0430000052 0.09461399
v 0.0403848439 -0.04375 0.09457485
v 0.0411809534 -0.0445 0.09429789
v 0.0411809534 -0.0430000052 0.09429789
v 0.0411809534 -0.04375 0.09429789
v 0.04196431 -0.04375 0.0939481854
v 0.04209295 -0.0445 0.09388284
v 0.04209295 -0.0430000052 0.09388284
v 0.0427251719 -0.04375 0.09352629
v 0.0429721 -0.0445 0.09336996
v 0.0429721 -0.0430000052 0.09336996
v 0.04345376 -0.04375 0.09303447
v 0.0438029841 -0.0445 0.0927635357
v 0.0438029841 -0.0430000052 0.0927635357
v 0.0441406481 -0.04375 0.0924767554
v 0.04457107 -0.0445 0.09207107
v 0.04457107 -0.0430000052 0.09207107
v 0.0447771363 -0.04375 0.09185881
v 0.0452635363 -0.0445 0.09130298
v 0.0452635363 -0.0430000052 0.09130298
v 0.04535564 -0.04375 0.0911878049
v 0.04586996 -0.0445 0.0904721
v 0.04586996 -0.0430000052 0.0904721
v 0.04586996 -0.04375 0.0904721
v 0.0463155 -0.04375 0.08972093
v 0.0463828444 -0.0445 0.08959294
v 0.0463828444 -0.0430000052 0.08959294
v 0.046689406 -0.04375 0.08894396
v 0.0467978828 -0.0445 0.0886809453
v 0.0467978828 -0.0430000052 0.0886809453
v 0.0469905734 -0.04375 0.08815104
v 0.0471139923 -0.0445 0.08775159
v 0.0471139923 -0.0430000052 0.08775159
v 0.04721955 -0.04375 0.08735168
v 0.047333058 -0.0445 0.0868196338
v 0.047333058 -0.0430000052 0.0868196338
v 0.04737839 -0.04375 0.08655481
v 0.04745955 -0.0445 0.08589855
v 0.04745955 -0.0430000052 0.08589855
v 0.0474704243 -0.04375 0.08576856
v 0.0475000031 -0.0445 0.08500001
v 0.0475000031 -0.0430000052 0.08500001
v 0.04745955 -0.0445 0.08410147
v 0.04744692 -0.04375 0.08397101
v 0.04745955 -0.0430000052 0.08410147
v 0.047333058 -0.0445 0.0831803754
v 0.047333058 -0.0430000052 0.0831803754
v 0.04728015 -0.04375 0.08291465
v 0.0471139923 -0.0445 0.08224842
v 0.0471139923 -0.0430000052 0.08224842
v 0.0469905734 -0.04375 0.0818489641
v 0.0467978828 -0.0445 0.0813190639
v 0.0467978828 -0.0430000052 0.0813190639
v 0.0465728343 -0.04375 0.0807948038
v 0.0463828444 -0.0445 0.08040705
v 0.0463828444 -0.0430000052 0.08040705
v 0.04602629 -0.04375 0.07977483
v 0.04586996 -0.0445 0.07952791
v 0.04586996 -0.0430000052 0.07952791
v 0.04535564 -0.04375 0.0788122
v 0.0452635363 -0.0445 0.07869702
v 0.04457107 -0.04375 0.07792894
v 0.0452635363 -0.0430000052 0.07869702
v 0.04457107 -0.0445 0.07792894
v 0.04457107 -0.0430000052 0.07792894
v 0.0438029841 -0.0445 0.07723647
v 0.0438029841 -0.0430000052 0.07723647
v 0.0436878055 -0.04375 0.07714436
v 0.0429721 -0.0445 0.07663005
v 0.0429721 -0.0430000052 0.07663005
v 0.0427251719 -0.04375 0.07647372
v 0.04209295 -0.0445 0.07611716
v 0.04209295 -0.0430000052 0.07611716
v 0.041705206 -0.04375 0.07592717
v 0.0411809534 -0.0445 0.07570212
v 0.0411809534 -0.0430000052 0.07570212
v 0.04065104 -0.04375 0.07550943
v 0.0402515829 -0.0445 0.07538601
v 0.0402515829 -0.0430000052 0.07538601
v 0.0395853519 -0.04375 0.0752198547
v 0.0393196344 -0.0445 0.07516695
v 0.0393196344 -0.0430000052 0.07516695
v 0.0385289975 -0.04375 0.07505308
v 0.0383985452 -0.0445 0.07504045
v 0.0375 -0.04375 0.075
v 0.0383985452 -0.0430000052 0.07504045
v 0.0375 -0.0445 0.075
v 0.0375 -0.0430000052 0.075
v 0.0366014577 -0.0445 0.07504045
v 0.0366014577 -0.0430000052 0.07504045
v 0.0364710055 -0.04375 0.07505308
v 0.0356803723 -0.0445 0.07516695
v 0.0356803723 -0.0430000052 0.07516695
v 0.03541465 -0.04375 0.0752198547
v 0.03474842 -0.0445 0.07538601
v 0.03474842 -0.0430000052 0.07538601
v 0.03461516 -0.04375 0.0754251555
v 0.0338190533 -0.0445 0.07570212
v 0.0338190533 -0.0430000052 0.07570212
v 0.0338190533 -0.04375 0.07570212
v 0.0330356956 -0.04375 0.07605182
v 0.0329070576 -0.0445 0.07611716
v 0.0329070576 -0.0430000052 0.07611716
v 0.03227483 -0.04375 0.07647372
v 0.0320279039 -0.0445 0.07663005
v 0.0320279039 -0.0430000052 0.07663005
v 0.03154624 -0.04375 0.07696553
v 0.0311970189 -0.0445 0.07723647
v 0.0311970189 -0.0430000052 0.07723647
v 0.0308593549 -0.04375 0.07752325
v 0.030428933 -0.0445 0.07792894
v 0.030428933 -0.0430000052 0.07792894
v 0.030222863 -0.04375 0.0781412
v 0.02973647 -0.0445 0.07869702
v 0.02973647 -0.0430000052 0.07869702
v 0.0296443626 -0.04375 0.0788122
v 0.0291300453 -0.0445 0.07952791
v 0.0291300453 -0.0430000052 0.07952791
v 0.0291300453 -0.04375 0.07952791
v 0.0286845043 -0.04375 0.08027908
v 0.02861716 -0.0445 0.08040705
v 0.02861716 -0.0430000052 0.08040705
v 0.0283105951 -0.04375 0.08105605
v 0.0282021165 -0.0445 0.0813190639
v 0.0282021165 -0.0430000052 0.0813190639
v 0.02800943 -0.04375 0.0818489641
v 0.0278860126 -0.0445 0.08224842
v 0.0278860126 -0.0430000052 0.08224842
v 0.02778045 -0.04375 0.08264833
v 0.0276669469 -0.0445 0.0831803754
v 0.0276669469 -0.0430000052 0.0831803754
v 0.027621612 -0.04375 0.0834452
v 0.0275404528 -0.0445 0.08410147
v 0.0275404528 -0.0430000052 0.08410147
v 0.0275295787 -0.04375 0.08423145
v 0.0275000017 -0.0445 0.08500001
v 0.0275000017 -0.0430000052 0.08500001
v 0.0358500034 -0.0445 0.08500001
v 0.0353500023 -0.045 0.08500001
v 0.0353858955 -0.045 0.0846087858
v 0.0356417745 -0.044750005 0.0846037939
v 0.03587755 -0.0445 0.0846997648
v 0.03550096 -0.045 0.08420859
v 0.0359658524 -0.0445 0.0843926445
v 0.0357761644 -0.044750005 0.0842010155
v 0.03570046 -0.045 0.0838235
v 0.03611896 -0.0445 0.0840971
v 0.03600743 -0.044750005 0.08382432
v 0.03597972 -0.045 0.0834797248
v 0.0363332741 -0.0445 0.08383328
v 0.03632432 -0.044750005 0.08350744
v 0.0363235027 -0.045 0.08320047
v 0.0365971066 -0.0445 0.0836189538
v 0.0367010124 -0.044750005 0.08327617
v 0.0367085971 -0.045 0.08300096
v 0.0368926451 -0.0445 0.08346586
v 0.0371037871 -0.044750005 0.08314178
v 0.03710878 -0.045 0.0828859061
v 0.0375 -0.044750005 0.083100006
v 0.0371997654 -0.0445 0.08337755
v 0.0375 -0.045 0.08285
v 0.0375 -0.0445 0.08335001
v 0.037891224 -0.045 0.0828859061
v 0.0378002375 -0.0445 0.08337755
v 0.03789622 -0.044750005 0.08314178
v 0.0382914059 -0.045 0.08300096
v 0.0381073579 -0.0445 0.08346586
v 0.03819938 -0.044750005 0.08323341
v 0.0384927839 -0.044750005 0.0833800063
v 0.0386765 -0.045 0.08320047
v 0.0384028964 -0.0445 0.0836189538
v 0.0387617238 -0.044750005 0.08357942
v 0.03902028 -0.045 0.0834797248
v 0.03866673 -0.0445 0.08383328
v 0.0389925726 -0.044750005 0.08382432
v 0.03929954 -0.045 0.0838235
v 0.0388810448 -0.0445 0.0840971
v 0.0391749479 -0.044750005 0.08410303
v 0.03949905 -0.045 0.08420859
v 0.03903415 -0.0445 0.0843926445
v 0.03930321 -0.044750005 0.0844013
v 0.0396141075 -0.045 0.0846087858
v 0.0391224548 -0.0445 0.0846997648
v 0.0393768959 -0.044750005 0.0847046
v 0.03965 -0.045 0.08500001
v 0.0391500033 -0.0445 0.08500001
v 0.0375 -0.0430000052 0.0925
v 0.0375 -0.0430000052 0.0950000063
v 0.0383985452 -0.0430000052 0.09495955
v 0.0366014577 -0.0430000052 0.09495955
v 0.03817391 -0.0430000052 0.09246967
v 0.0368260927 -0.0430000052 0.09246967
v 0.0393196344 -0.0430000052 0.09483306
v 0.0356803723 -0.0430000052 0.09483306
v 0.0388647243 -0.0430000052 0.0923747942
v 0.03613528 -0.0430000052 0.0923747942
v 0.0402515829 -0.0430000052 0.09461399
v 0.03474842 -0.0430000052 0.09461399
v 0.0395636857 -0.0430000052 0.0922105
v 0.0354363136 -0.0430000052 0.0922105
v 0.0411809534 -0.0430000052 0.09429789
v 0.0338190533 -0.0430000052 0.09429789
v 0.04026071 -0.0430000052 0.09197341
v 0.0347392932 -0.0430000052 0.09197341
v 0.04209295 -0.0430000052 0.09388284
v 0.0329070576 -0.0430000052 0.09388284
v 0.04094471 -0.0430000052 0.09166214
v 0.0340552926 -0.0430000052 0.09166214
v 0.0429721 -0.0430000052 0.09336996
v 0.0320279039 -0.0430000052 0.09336996
v 0.04160408 -0.0430000052 0.09127747
v 0.0333959274 -0.0430000052 0.09127747
v 0.0438029841 -0.0430000052 0.0927635357
v 0.0311970189 -0.0430000052 0.0927635357
v 0.04222724 -0.0430000052 0.09082265
v 0.0327727646 -0.0430000052 0.09082265
v 0.04457107 -0.0430000052 0.09207107
v 0.030428933 -0.0430000052 0.09207107
v 0.0428033061 -0.0430000052 0.0903033
v 0.0321967 -0.0430000052 0.0903033
v 0.0452635363 -0.0430000052 0.09130298
v 0.02973647 -0.0430000052 0.09130298
v 0.04332265 -0.0430000052 0.08972724
v 0.03167735 -0.0430000052 0.08972724
v 0.04586996 -0.0430000052 0.0904721
v 0.0291300453 -0.0430000052 0.0904721
v 0.04377747 -0.0430000052 0.08910407
v 0.0312225353 -0.0430000052 0.08910407
v 0.0463828444 -0.0430000052 0.08959294
v 0.02861716 -0.0430000052 0.08959294
v 0.04416213 -0.0430000052 0.08844472
v 0.0308378711 -0.0430000052 0.08844472
v 0.0467978828 -0.0430000052 0.0886809453
v 0.0282021165 -0.0430000052 0.0886809453
v 0.0444734134 -0.0430000052 0.0877607
v 0.03052659 -0.0430000052 0.0877607
v 0.0471139923 -0.0430000052 0.08775159
v 0.0278860126 -0.0430000052 0.08775159
v 0.0447104946 -0.0430000052 0.0870636851
v 0.0302895084 -0.0430000052 0.0870636851
v 0.047333058 -0.0430000052 0.0868196338
v 0.0276669469 -0.0430000052 0.0868196338
v 0.0448747948 -0.0430000052 0.08636473
v 0.0301252119 -0.0430000052 0.08636473
v 0.04745955 -0.0430000052 0.08589855
v 0.0275404528 -0.0430000052 0.08589855
v 0.044969663 -0.0430000052 0.08567391
v 0.03003034 -0.0430000052 0.08567391
v 0.0475000031 -0.0430000052 0.08500001
v 0.045 -0.0430000052 0.08500001
v 0.0275000017 -0.0430000052 0.08500001
v 0.0300000012 -0.0430000052 0.08500001
v 0.03003034 -0.0430000052 0.0843261
v 0.0275404528 -0.0430000052 0.08410147
v 0.0301252119 -0.0430000052 0.08363527
v 0.0276669469 -0.0430000052 0.0831803754
v 0.0302895084 -0.0430000052 0.08293632
v 0.0278860126 -0.0430000052 0.08224842
v 0.03052659 -0.0430000052 0.08223929
v 0.0282021165 -0.0430000052 0.0813190639
v 0.0308378711 -0.0430000052 0.08155529
v 0.02861716 -0.0430000052 0.08040705
v 0.0312225353 -0.0430000052 0.08089594
v 0.0291300453 -0.0430000052 0.07952791
v 0.03167735 -0.0430000052 0.080272764
v 0.02973647 -0.0430000052 0.07869702
v 0.0321967 -0.0430000052 0.0796967
v 0.030428933 -0.0430000052 0.07792894
v 0.0327727646 -0.0430000052 0.07917736
v 0.0311970189 -0.0430000052 0.07723647
v 0.0333959274 -0.0430000052 0.07872254
v 0.0320279039 -0.0430000052 0.07663005
v 0.0340552926 -0.0430000052 0.07833787
v 0.0329070576 -0.0430000052 0.07611716
v 0.0347392932 -0.0430000052 0.0780265853
v 0.0338190533 -0.0430000052 0.07570212
v 0.0354363136 -0.0430000052 0.07778951
v 0.03474842 -0.0430000052 0.07538601
v 0.03613528 -0.0430000052 0.07762521
v 0.0356803723 -0.0430000052 0.07516695
v 0.0368260927 -0.0430000052 0.07753034
v 0.0366014577 -0.0430000052 0.07504045
v 0.0375 -0.0430000052 0.075
v 0.0375 -0.0430000052 0.0775
v 0.0383985452 -0.0430000052 0.07504045
v 0.03817391 -0.0430000052 0.07753034
v 0.0393196344 -0.0430000052 0.07516695
v 0.0388647243 -0.0430000052 0.07762521
v 0.0402515829 -0.0430000052 0.07538601
v 0.0395636857 -0.0430000052 0.07778951
v 0.0411809534 -0.0430000052 0.07570212
v 0.04026071 -0.0430000052 0.0780265853
v 0.04209295 -0.0430000052 0.07611716
v 0.04094471 -0.0430000052 0.07833787
v 0.0429721 -0.0430000052 0.07663005
v 0.04160408 -0.0430000052 0.07872254
v 0.0438029841 -0.0430000052 0.07723647
v 0.04222724 -0.0430000052 0.07917736
v 0.04457107 -0.0430000052 0.07792894
v 0.0428033061 -0.0430000052 0.0796967
v 0.0452635363 -0.0430000052 0.07869702
v 0.04332265 -0.0430000052 0.080272764
v 0.04586996 -0.0430000052 0.07952791
v 0.04377747 -0.0430000052 0.08089594
v 0.0463828444 -0.0430000052 0.08040705
v 0.04416213 -0.0430000052 0.08155529
v 0.0467978828 -0.0430000052 0.0813190639
v 0.0444734134 -0.0430000052 0.08223929
v 0.0471139923 -0.0430000052 0.08224842
v 0.0447104946 -0.0430000052 0.08293632
v 0.047333058 -0.0430000052 0.0831803754
v 0.0448747948 -0.0430000052 0.08363527
v 0.04745955 -0.0430000052 0.08410147
v 0.044969663 -0.0430000052 0.0843261
v 0.0375 -0.037 0.0925
v 0.0375 -0.037 0.0950000063
v 0.0366014577 -0.037 0.09495955
v 0.0383985452 -0.037 0.09495955
v 0.0368260927 -0.037 0.09246967
v 0.03817391 -0.037 0.09246967
v 0.0356803723 -0.037 0.09483306
v 0.0393196344 -0.037 0.09483306
v 0.03613528 -0.037 0.0923747942
v 0.0388647243 -0.037 0.0923747942
v 0.03474842 -0.037 0.09461399
v 0.0402515829 -0.037 0.09461399
v 0.0354363136 -0.037 0.0922105
v 0.0395636857 -0.037 0.0922105
v 0.0338190533 -0.037 0.09429789
v 0.0411809534 -0.037 0.09429789
v 0.0347392932 -0.037 0.09197341
v 0.04026071 -0.037 0.09197341
v 0.0329070576 -0.037 0.09388284
v 0.04209295 -0.037 0.09388284
v 0.0340552926 -0.037 0.09166214
v 0.04094471 -0.037 0.09166214
v 0.0320279039 -0.037 0.09336996
v 0.0429721 -0.037 0.09336996
v 0.0333959274 -0.037 0.09127747
v 0.04160408 -0.037 0.09127747
v 0.0311970189 -0.037 0.0927635357
v 0.0438029841 -0.037 0.0927635357
v 0.0327727646 -0.037 0.09082265
v 0.04222724 -0.037 0.09082265
v 0.030428933 -0.037 0.09207107
v 0.04457107 -0.037 0.09207107
v 0.0321967 -0.037 0.0903033
v 0.0428033061 -0.037 0.0903033
v 0.02973647 -0.037 0.09130298
v 0.0452635363 -0.037 0.09130298
v 0.03167735 -0.037 0.08972724
v 0.04332265 -0.037 0.08972724
v 0.0291300453 -0.037 0.0904721
v 0.04586996 -0.037 0.0904721
v 0.0312225353 -0.037 0.08910407
v 0.04377747 -0.037 0.08910407
v 0.02861716 -0.037 0.08959294
v 0.0463828444 -0.037 0.08959294
v 0.0308378711 -0.037 0.08844472
v 0.04416213 -0.037 0.08844472
v 0.0282021165 -0.037 0.0886809453
v 0.0467978828 -0.037 0.0886809453
v 0.03052659 -0.037 0.0877607
v 0.0444734134 -0.037 0.0877607
v 0.0278860126 -0.037 0.08775159
v 0.0471139923 -0.037 0.08775159
v 0.0302895084 -0.037 0.0870636851
v 0.0447104946 -0.037 0.0870636851
v 0.0276669469 -0.037 0.0868196338
v 0.047333058 -0.037 0.0868196338
v 0.0301252119 -0.037 0.08636473
v 0.0448747948 -0.037 0.08636473
v 0.0275404528 -0.037 0.08589855
v 0.04745955 -0.037 0.08589855
v 0.03003034 -0.037 0.08567391
v 0.044969663 -0.037 0.08567391
v 0.0275000017 -0.037 0.08500001
v 0.0300000012 -0.037 0.08500001
v 0.0475000031 -0.037 0.08500001
v 0.045 -0.037 0.08500001
v 0.044969663 -0.037 0.0843261
v 0.04745955 -0.037 0.08410147
v 0.0448747948 -0.037 0.08363527
v 0.047333058 -0.037 0.0831803754
v 0.0447104946 -0.037 0.08293632
v 0.0471139923 -0.037 0.08224842
v 0.0444734134 -0.037 0.08223929
v 0.0467978828 -0.037 0.0813190639
v 0.04416213 -0.037 0.08155529
v 0.0463828444 -0.037 0.08040705
v 0.04377747 -0.037 0.08089594
v 0.04586996 -0.037 0.07952791
v 0.04332265 -0.037 0.080272764
v 0.0452635363 -0.037 0.07869702
v 0.0428033061 -0.037 0.0796967
v 0.04457107 -0.037 0.07792894
v 0.04222724 -0.037 0.07917736
v 0.0438029841 -0.037 0.07723647
v 0.04160408 -0.037 0.07872254
v 0.0429721 -0.037 0.07663005
v 0.04094471 -0.037 0.07833787
v 0.04209295 -0.037 0.07611716
v 0.04026071 -0.037 0.0780265853
v 0.0411809534 -0.037 0.07570212
v 0.0395636857 -0.037 0.07778951
v 0.0402515829 -0.037 0.07538601
v 0.0388647243 -0.037 0.07762521
v 0.0393196344 -0.037 0.07516695
v 0.03817391 -0.037 0.07753034
v 0.0383985452 -0.037 0.07504045
v 0.0375 -0.037 0.075
v 0.0375 -0.037 0.0775
v 0.0366014577 -0.037 0.07504045
v 0.0368260927 -0.037 0.07753034
v 0.0356803723 -0.037 0.07516695
v 0.03613528 -0.037 0.07762521
v 0.03474842 -0.037 0.07538601
v 0.0354363136 -0.037 0.07778951
v 0.0338190533 -0.037 0.07570212
v 0.0347392932 -0.037 0.0780265853
v 0.0329070576 -0.037 0.07611716
v 0.0340552926 -0.037 0.07833787
v 0.0320279039 -0.037 0.07663005
v 0.0333959274 -0.037 0.07872254
v 0.0311970189 -0.037 0.07723647
v 0.0327727646 -0.037 0.07917736
v 0.030428933 -0.037 0.07792894
v 0.0321967 -0.037 0.0796967
v 0.02973647 -0.037 0.07869702
v 0.03167735 -0.037 0.080272764
v 0.0291300453 -0.037 0.07952791
v 0.0312225353 -0.037 0.08089594
v 0.02861716 -0.037 0.08040705
v 0.0308378711 -0.037 0.08155529
v 0.0282021165 -0.037 0.0813190639
v 0.03052659 -0.037 0.08223929
v 0.0278860126 -0.037 0.08224842
v 0.0302895084 -0.037 0.08293632
v 0.0276669469 -0.037 0.0831803754
v 0.0301252119 -0.037 0.08363527
v 0.0275404528 -0.037 0.08410147
v 0.03003034 -0.037 0.0843261
v 0.0382914059 -0.035 0.08300096
v 0.0466332957 -0.035 0.082386
v 0.037891224 -0.035 0.0828859061
v 0.0375 -0.035 0.08285
v 0.0386765 -0.035 0.08320047
v 0.03902028 -0.035 0.0834797248
v 0.03929954 -0.035 0.0838235
v 0.03949905 -0.035 0.08420859
v 0.0396141075 -0.035 0.0846087858
v 0.0468414053 -0.035 0.0832713544
v 0.046961572 -0.035 0.0841463953
v 0.03965 -0.035 0.08500001
v 0.0463329926 -0.035 0.0815031
v 0.047 -0.035 0.08500001
v 0.0396141075 -0.035 0.085391216
v 0.03949905 -0.035 0.08579142
v 0.046961572 -0.035 0.08585362
v 0.0459387 -0.035 0.0806367
v 0.03929954 -0.035 0.08617651
v 0.0454514548 -0.035 0.0798015147
v 0.0468414053 -0.035 0.08672865
v 0.04487536 -0.035 0.07901218
v 0.0442175157 -0.035 0.07828249
v 0.043487832 -0.035 0.07762465
v 0.0426984951 -0.035 0.07704855
v 0.0418633 -0.035 0.0765613
v 0.0466332957 -0.035 0.087614
v 0.0409969 -0.035 0.07616702
v 0.0463329926 -0.035 0.08849691
v 0.0459387 -0.035 0.08936331
v 0.0454514548 -0.035 0.09019849
v 0.0401140042 -0.035 0.0758667141
v 0.03902028 -0.035 0.0865202844
v 0.03922865 -0.035 0.0756586045
v 0.04487536 -0.035 0.09098784
v 0.0442175157 -0.035 0.09171751
v 0.043487832 -0.035 0.09237536
v 0.03835362 -0.035 0.0755384341
v 0.0375 -0.035 0.075500004
v 0.0366463847 -0.035 0.0755384341
v 0.0386765 -0.035 0.08679955
v 0.0426984951 -0.035 0.09295146
v 0.0418633 -0.035 0.09343871
v 0.03710878 -0.035 0.0828859061
v 0.03577135 -0.035 0.0756586045
v 0.034886 -0.035 0.0758667141
v 0.0382914059 -0.035 0.08699905
v 0.0409969 -0.035 0.09383299
v 0.0401140042 -0.035 0.0941333
v 0.0367085971 -0.035 0.08300096
v 0.0340031 -0.035 0.07616702
v 0.0331367031 -0.035 0.0765613
v 0.037891224 -0.035 0.08711411
v 0.03922865 -0.035 0.0943414047
v 0.03835362 -0.035 0.09446158
v 0.0363235027 -0.035 0.08320047
v 0.0323015079 -0.035 0.07704855
v 0.03151217 -0.035 0.07762465
v 0.0375 -0.035 0.08715001
v 0.0375 -0.035 0.0945000052
v 0.0366463847 -0.035 0.09446158
v 0.03597972 -0.035 0.0834797248
v 0.0307824854 -0.035 0.07828249
v 0.0301246457 -0.035 0.07901218
v 0.03710878 -0.035 0.08711411
v 0.03577135 -0.035 0.0943414047
v 0.034886 -0.035 0.0941333
v 0.03570046 -0.035 0.0838235
v 0.0295485444 -0.035 0.0798015147
v 0.0290613025 -0.035 0.0806367
v 0.0367085971 -0.035 0.08699905
v 0.0340031 -0.035 0.09383299
v 0.0331367031 -0.035 0.09343871
v 0.03550096 -0.035 0.08420859
v 0.0286670122 -0.035 0.0815031
v 0.02836671 -0.035 0.082386
v 0.0363235027 -0.035 0.08679955
v 0.0323015079 -0.035 0.09295146
v 0.03151217 -0.035 0.09237536
v 0.0353858955 -0.035 0.0846087858
v 0.0281585976 -0.035 0.0832713544
v 0.028038431 -0.035 0.0841463953
v 0.03597972 -0.035 0.0865202844
v 0.0307824854 -0.035 0.09171751
v 0.0301246457 -0.035 0.09098784
v 0.0353500023 -0.035 0.08500001
v 0.028 -0.035 0.08500001
v 0.028038431 -0.035 0.08585362
v 0.03570046 -0.035 0.08617651
v 0.0295485444 -0.035 0.09019849
v 0.0290613025 -0.035 0.08936331
v 0.0353858955 -0.035 0.085391216
v 0.0281585976 -0.035 0.08672865
v 0.02836671 -0.035 0.087614
v 0.03550096 -0.035 0.08579142
v 0.0286670122 -0.035 0.08849691
f 1 2 3
f 1 3 4
f 5 1 4
f 4 3 6
f 7 5 4
f 4 6 8
f 9 7 4
f 10 4 8
f 9 4 10
f 10 8 11
f 12 10 11
f 13 9 10
f 13 10 12
f 12 11 14
f 15 13 12
f 12 14 16
f 17 12 16
f 18 15 12
f 18 12 17
f 17 16 19
f 20 18 17
f 17 19 21
f 22 20 17
f 23 17 21
f 22 17 23
f 23 21 24
f 25 23 24
f 26 22 23
f 26 23 25
f 25 24 27
f 28 26 25
f 25 27 29
f 30 25 29
f 31 28 25
f 31 25 30
f 30 29 32
f 33 31 30
f 30 32 34
f 35 33 30
f 36 30 34
f 35 30 36
f 36 34 37
f 38 35 36
f 39 36 37
f 38 36 39
f 39 37 40
f 41 39 40
f 42 38 39
f 42 39 41
f 41 40 43
f 44 42 41
f 41 43 45
f 46 44 41
f 47 41 45
f 46 41 47
f 47 45 48
f 49 46 47
f 50 47 48
f 49 47 50
f 50 48 51
f 52 49 50
f 53 50 51
f 52 50 53
f 53 51 54
f 55 52 53
f 56 53 54
f 55 53 56
f 56 54 57
f 58 55 56
f 59 56 57
f 58 56 59
f 59 57 60
f 61 58 59
f 62 59 60
f 61 59 62
f 62 60 63
f 64 62 63
f 65 61 62
f 65 62 64
f 64 63 66
f 67 65 64
f 64 66 68
f 69 67 64
f 70 64 68
f 69 64 70
f 70 68 71
f 72 69 70
f 73 70 71
f 72 70 73
f 73 71 74
f 75 72 73
f 76 73 74
f 75 73 76
f 76 74 77
f 78 75 76
f 79 76 77
f 78 76 79
f 79 77 80
f 81 78 79
f 82 79 80
f 81 79 82
f 82 80 83
f 84 81 82
f 85 82 83
f 84 82 85
f 85 83 86
f 87 84 85
f 88 85 86
f 87 85 88
f 89 87 88
f 88 90 89
f 90 91 89
f 90 92 91
f 89 91 93
f 91 94 93
f 92 95 91
f 91 96 94
f 95 97 91
f 91 97 96
f 95 98 97
f 98 99 97
f 97 100 96
f 97 99 100
f 98 101 99
f 99 102 100
f 101 103 99
f 103 104 99
f 99 105 102
f 99 104 105
f 103 106 104
f 104 107 105
f 106 108 104
f 104 109 107
f 108 110 104
f 104 110 109
f 108 111 110
f 111 112 110
f 110 113 109
f 110 112 113
f 111 114 112
f 112 115 113
f 114 116 112
f 116 117 112
f 112 118 115
f 112 117 118
f 116 119 117
f 117 120 118
f 119 121 117
f 117 122 120
f 121 123 117
f 117 123 122
f 121 124 123
f 123 125 122
f 124 126 123
f 123 126 125
f 124 127 126
f 127 128 126
f 126 129 125
f 126 128 129
f 127 130 128
f 128 131 129
f 130 132 128
f 128 133 131
f 132 134 128
f 128 134 133
f 132 135 134
f 134 136 133
f 135 137 134
f 134 137 136
f 135 138 137
f 137 139 136
f 138 140 137
f 137 140 139
f 138 141 140
f 140 142 139
f 141 143 140
f 140 143 142
f 141 144 143
f 143 145 142
f 144 146 143
f 143 146 145
f 144 147 146
f 146 148 145
f 147 149 146
f 146 149 148
f 147 150 149
f 150 151 149
f 149 152 148
f 149 151 152
f 150 153 151
f 151 154 152
f 153 155 151
f 151 156 154
f 155 157 151
f 151 157 156
f 155 158 157
f 157 159 156
f 158 160 157
f 157 160 159
f 158 161 160
f 160 162 159
f 161 163 160
f 160 163 162
f 161 164 163
f 163 165 162
f 164 166 163
f 163 166 165
f 164 167 166
f 166 168 165
f 167 169 166
f 166 169 168
f 167 170 169
f 169 171 168
f 170 172 169
f 169 172 171
f 170 173 172
f 172 174 171
f 173 175 172
f 175 174 172
f 175 176 174
f 177 178 179
f 178 180 179
f 179 180 181
f 178 182 180
f 180 183 181
f 182 184 180
f 180 184 183
f 182 185 184
f 184 186 183
f 185 187 184
f 184 187 186
f 185 188 187
f 187 189 186
f 188 190 187
f 187 190 189
f 188 191 190
f 190 192 189
f 191 193 190
f 190 193 192
f 191 194 193
f 193 195 192
f 194 196 193
f 193 196 195
f 194 197 196
f 197 198 196
f 196 199 195
f 196 198 199
f 197 200 198
f 198 201 199
f 200 202 198
f 198 203 201
f 202 204 198
f 198 204 203
f 202 205 204
f 204 206 203
f 205 207 204
f 204 207 206
f 205 208 207
f 208 206 207
f 209 208 205
f 208 210 206
f 211 208 209
f 208 211 210
f 212 211 209
f 211 213 210
f 214 211 212
f 211 214 213
f 215 214 212
f 214 216 213
f 217 214 215
f 214 217 216
f 218 217 215
f 217 219 216
f 220 217 218
f 217 220 219
f 221 220 218
f 220 222 219
f 223 220 221
f 220 223 222
f 224 223 221
f 223 225 222
f 223 224 225
f 226 227 228
f 227 229 228
f 228 229 230
f 227 231 229
f 229 232 230
f 231 233 229
f 229 233 232
f 231 234 233
f 233 235 232
f 234 236 233
f 233 236 235
f 234 237 236
f 236 238 235
f 237 239 236
f 236 239 238
f 237 240 239
f 239 241 238
f 240 242 239
f 239 242 241
f 240 243 242
f 242 244 241
f 243 245 242
f 242 245 244
f 243 246 245
f 246 247 245
f 245 248 244
f 245 247 248
f 246 249 247
f 247 250 248
f 249 251 247
f 247 252 250
f 251 253 247
f 247 253 252
f 251 254 253
f 253 255 252
f 254 256 253
f 253 256 255
f 254 257 256
f 257 255 256
f 258 257 254
f 257 259 255
f 260 257 258
f 257 260 259
f 261 260 258
f 260 262 259
f 263 260 261
f 260 263 262
f 264 263 261
f 263 265 262
f 266 263 264
f 263 266 265
f 267 266 264
f 266 268 265
f 269 266 267
f 266 269 268
f 270 269 267
f 269 271 268
f 272 269 270
f 269 272 271
f 273 272 270
f 272 274 271
f 272 273 274
f 275 276 277
f 278 275 277
f 275 278 279
f 278 277 280
f 278 281 279
f 282 278 280
f 278 282 281
f 282 280 283
f 282 284 281
f 285 282 283
f 282 285 284
f 285 283 286
f 285 287 284
f 288 285 286
f 285 288 287
f 288 286 289
f 288 290 287
f 291 288 289
f 288 291 290
f 291 289 292
f 291 293 290
f 294 291 292
f 291 294 293
f 294 292 295
f 296 294 295
f 294 297 293
f 294 296 297
f 296 295 298
f 296 299 297
f 296 298 300
f 296 301 299
f 302 296 300
f 296 302 301
f 302 300 303
f 302 304 301
f 305 302 303
f 302 305 304
f 305 303 306
f 305 307 304
f 308 305 306
f 305 308 307
f 308 306 309
f 308 310 307
f 311 308 309
f 308 311 310
f 311 309 312
f 311 313 310
f 314 311 312
f 311 314 313
f 314 312 315
f 314 316 313
f 317 314 315
f 314 317 316
f 317 315 318
f 319 317 318
f 317 320 316
f 317 319 320
f 319 318 321
f 319 322 320
f 319 321 323
f 319 324 322
f 325 319 323
f 319 325 324
f 325 323 326
f 325 327 324
f 328 325 326
f 325 328 327
f 328 326 329
f 328 330 327
f 331 328 329
f 328 331 330
f 331 329 332
f 331 333 330
f 331 332 334
f 333 331 334
f 335 334 332
f 333 334 335
f 336 335 332
f 337 333 335
f 338 335 336
f 337 335 338
f 339 338 336
f 340 337 338
f 341 338 339
f 340 338 341
f 342 341 339
f 343 340 341
f 344 341 342
f 343 341 344
f 345 344 342
f 346 343 344
f 347 344 345
f 346 344 347
f 348 347 345
f 349 346 347
f 350 347 348
f 349 347 350
f 351 350 348
f 352 349 350
f 353 350 351
f 353 352 350
f 354 353 351
f 353 354 352
f 354 351 355
f 354 356 352
f 357 354 355
f 354 357 356
f 357 355 358
f 357 359 356
f 360 357 358
f 357 360 359
f 360 358 361
f 360 362 359
f 363 360 361
f 360 363 362
f 363 361 364
f 363 365 362
f 366 363 364
f 363 366 365
f 366 364 367
f 366 368 365
f 369 366 367
f 366 369 368
f 369 367 370
f 368 369 371
f 369 370 371
f 370 372 371
f 372 373 371
f 371 373 374
f 372 375 373
f 373 376 374
f 375 377 373
f 373 377 376
f 375 378 377
f 377 379 376
f 378 380 377
f 377 380 379
f 378 381 380
f 380 382 379
f 381 383 380
f 380 383 382
f 381 384 383
f 383 385 382
f 384 386 383
f 383 386 385
f 384 387 386
f 386 388 385
f 387 389 386
f 386 389 388
f 387 390 389
f 390 391 389
f 389 392 388
f 389 391 392
f 390 393 391
f 391 394 392
f 393 395 391
f 391 396 394
f 395 397 391
f 391 397 396
f 395 398 397
f 397 399 396
f 398 400 397
f 397 400 399
f 398 401 400
f 400 402 399
f 401 403 400
f 400 403 402
f 401 404 403
f 403 405 402
f 404 406 403
f 403 406 405
f 404 407 406
f 406 408 405
f 407 409 406
f 406 409 408
f 407 410 409
f 409 411 408
f 410 412 409
f 409 412 411
f 410 413 412
f 413 414 412
f 412 415 411
f 412 414 415
f 413 416 414
f 414 417 415
f 416 418 414
f 414 419 417
f 418 420 414
f 414 420 419
f 418 421 420
f 420 422 419
f 421 423 420
f 420 423 422
f 421 424 423
f 423 425 422
f 424 426 423
f 423 426 425
f 424 427 426
f 426 428 425
f 427 429 426
f 426 429 428
f 427 430 429
f 430 428 429
f 430 427 431
f 430 432 428
f 433 430 431
f 430 433 432
f 433 431 434
f 433 435 432
f 436 433 434
f 433 436 435
f 436 434 437
f 436 438 435
f 439 436 437
f 436 439 438
f 439 437 440
f 439 441 438
f 442 439 440
f 439 442 441
f 442 440 443
f 442 444 441
f 445 442 443
f 442 445 444
f 445 443 446
f 445 447 444
f 448 445 446
f 445 448 447
f 448 446 449
f 448 449 447
f 446 450 449
f 451 447 449
f 450 452 449
f 451 449 452
f 450 453 452
f 454 451 452
f 453 455 452
f 454 452 455
f 453 456 455
f 457 454 455
f 456 458 455
f 457 455 458
f 456 459 458
f 460 457 458
f 459 461 458
f 460 458 461
f 459 462 461
f 463 460 461
f 462 464 461
f 463 461 464
f 462 465 464
f 466 463 464
f 465 466 464
f 467 468 469
f 470 467 469
f 467 470 471
f 470 469 472
f 470 473 471
f 474 470 472
f 470 474 473
f 474 472 475
f 474 476 473
f 477 474 475
f 474 477 476
f 477 475 478
f 477 479 476
f 480 477 478
f 477 480 479
f 480 478 481
f 480 482 479
f 483 480 481
f 480 483 482
f 483 481 484
f 483 485 482
f 486 483 484
f 483 486 485
f 486 484 487
f 488 486 487
f 486 489 485
f 486 488 489
f 488 487 490
f 488 491 489
f 488 490 492
f 488 493 491
f 494 488 492
f 488 494 493
f 494 492 495
f 494 496 493
f 497 494 495
f 494 497 496
f 497 495 498
f 497 499 496
f 500 497 498
f 497 500 499
f 500 498 501
f 500 502 499
f 503 500 501
f 500 503 502
f 503 501 504
f 503 505 502
f 506 503 504
f 503 506 505
f 506 504 507
f 506 508 505
f 509 506 507
f 506 509 508
f 509 507 510
f 511 509 510
f 509 512 508
f 509 511 512
f 511 510 513
f 511 514 512
f 511 513 515
f 511 516 514
f 517 511 515
f 511 517 516
f 517 515 518
f 517 519 516
f 520 517 518
f 517 520 519
f 520 518 521
f 520 522 519
f 523 520 521
f 520 523 522
f 523 521 524
f 523 525 522
f 523 524 526
f 525 523 526
f 527 526 524
f 525 526 527
f 528 527 524
f 529 525 527
f 530 527 528
f 529 527 530
f 531 530 528
f 532 529 530
f 533 530 531
f 532 530 533
f 534 533 531
f 535 532 533
f 536 533 534
f 535 533 536
f 537 536 534
f 538 535 536
f 539 536 537
f 538 536 539
f 540 539 537
f 541 538 539
f 542 539 540
f 541 539 542
f 543 542 540
f 544 541 542
f 545 542 543
f 545 544 542
f 546 545 543
f 545 546 544
f 546 543 547
f 546 548 544
f 549 546 547
f 546 549 548
f 549 547 550
f 549 551 548
f 552 549 550
f 549 552 551
f 552 550 553
f 552 554 551
f 555 552 553
f 552 555 554
f 555 553 556
f 555 557 554
f 558 555 556
f 555 558 557
f 558 556 559
f 558 560 557
f 561 558 559
f 558 561 560
f 561 559 562
f 560 561 563
f 561 562 563
f 562 564 563
f 564 565 563
f 563 565 566
f 564 567 565
f 565 568 566
f 567 569 565
f 565 569 568
f 567 570 569
f 569 571 568
f 570 572 569
f 569 572 571
f 570 573 572
f 572 574 571
f 573 575 572
f 572 575 574
f 573 576 575
f 575 577 574
f 576 578 575
f 575 578 577
f 576 579 578
f 578 580 577
f 579 581 578
f 578 581 580
f 579 582 581
f 582 583 581
f 581 584 580
f 581 583 584
f 582 585 583
f 583 586 584
f 585 587 583
f 583 588 586
f 587 589 583
f 583 589 588
f 587 590 589
f 589 591 588
f 590 592 589
f 589 592 591
f 590 593 592
f 592 594 591
f 593 595 592
f 592 595 594
f 593 596 595
f 595 597 594
f 596 598 595
f 595 598 597
f 596 599 598
f 598 600 597
f 599 601 598
f 598 601 600
f 599 602 601
f 601 603 600
f 602 604 601
f 601 604 603
f 602 605 604
f 605 606 604
f 604 607 603
f 604 606 607
f 605 608 606
f 606 609 607
f 608 610 606
f 606 611 609
f 610 612 606
f 606 612 611
f 610 613 612
f 612 614 611
f 613 615 612
f 612 615 614
f 613 616 615
f 615 617 614
f 616 618 615
f 615 618 617
f 616 619 618
f 618 620 617
f 619 621 618
f 618 621 620
f 619 622 621
f 622 620 621
f 622 619 623
f 622 624 620
f 625 622 623
f 622 625 624
f 625 623 626
f 625 627 624
f 628 625 626
f 625 628 627
f 628 626 629
f 628 630 627
f 631 628 629
f 628 631 630
f 631 629 632
f 631 633 630
f 634 631 632
f 631 634 633
f 634 632 635
f 634 636 633
f 637 634 635
f 634 637 636
f 637 635 638
f 637 639 636
f 640 637 638
f 637 640 639
f 640 638 641
f 640 641 639
f 638 642 641
f 643 639 641
f 642 644 641
f 643 641 644
f 642 645 644
f 646 643 644
f 645 647 644
f 646 644 647
f 645 648 647
f 649 646 647
f 648 650 647
f 649 647 650
f 648 651 650
f 652 649 650
f 651 653 650
f 652 650 653
f 651 654 653
f 655 652 653
f 654 656 653
f 655 653 656
f 654 657 656
f 658 655 656
f 657 658 656
f 659 660 661
f 659 661 662
f 663 659 662
f 662 661 664
f 665 663 662
f 666 662 664
f 665 662 666
f 666 664 667
f 668 665 666
f 669 666 667
f 668 666 669
f 669 667 670
f 671 668 669
f 672 669 670
f 671 669 672
f 672 670 673
f 674 671 672
f 675 672 673
f 674 672 675
f 675 673 676
f 677 674 675
f 678 675 676
f 677 675 678
f 678 676 679
f 680 678 679
f 681 677 678
f 681 678 680
f 680 679 682
f 683 681 680
f 684 680 682
f 685 683 680
f 686 680 684
f 685 680 686
f 687 686 684
f 688 685 686
f 689 686 687
f 689 688 686
f 690 689 687
f 689 690 688
f 690 687 691
f 690 692 688
f 693 690 691
f 690 693 692
f 693 691 694
f 693 695 692
f 696 693 694
f 693 696 695
f 696 694 697
f 696 698 695
f 699 696 697
f 696 699 698
f 699 697 700
f 699 701 698
f 702 699 700
f 699 702 701
f 702 700 703
f 702 704 701
f 705 702 703
f 702 705 704
f 705 703 706
f 704 705 707
f 705 706 707
f 708 709 710
f 708 710 711
f 712 708 711
f 711 710 713
f 714 712 711
f 715 711 713
f 714 711 715
f 715 713 716
f 717 714 715
f 718 715 716
f 717 715 718
f 718 716 719
f 720 717 718
f 721 718 719
f 720 718 721
f 721 719 722
f 723 720 721
f 724 721 722
f 723 721 724
f 724 722 725
f 726 723 724
f 727 724 725
f 726 724 727
f 727 725 728
f 729 727 728
f 730 726 727
f 730 727 729
f 729 728 731
f 732 730 729
f 733 729 731
f 734 732 729
f 735 729 733
f 734 729 735
f 736 735 733
f 737 734 735
f 738 735 736
f 738 737 735
f 739 738 736
f 738 739 737
f 739 736 740
f 739 741 737
f 742 739 740
f 739 742 741
f 742 740 743
f 742 744 741
f 745 742 743
f 742 745 744
f 745 743 746
f 745 747 744
f 748 745 746
f 745 748 747
f 748 746 749
f 748 750 747
f 751 748 749
f 748 751 750
f 751 749 752
f 751 753 750
f 754 751 752
f 751 754 753
f 754 752 755
f 753 754 756
f 754 755 756
f 755 757 756
f 757 758 756
f 756 758 759
f 757 760 758
f 758 761 759
f 760 762 758
f 758 762 761
f 760 763 762
f 762 764 761
f 763 765 762
f 762 765 764
f 763 766 765
f 765 767 764
f 766 768 765
f 765 768 767
f 766 769 768
f 768 770 767
f 769 771 768
f 768 771 770
f 769 772 771
f 771 773 770
f 772 774 771
f 771 774 773
f 772 775 774
f 775 776 774
f 774 777 773
f 774 776 777
f 775 778 776
f 776 779 777
f 778 780 776
f 776 781 779
f 780 782 776
f 776 782 781
f 780 783 782
f 782 784 781
f 783 785 782
f 782 785 784
f 783 786 785
f 786 784 785
f 787 786 783
f 786 788 784
f 789 786 787
f 786 789 788
f 790 789 787
f 789 791 788
f 792 789 790
f 789 792 791
f 793 792 790
f 792 794 791
f 795 792 793
f 792 795 794
f 796 795 793
f 795 797 794
f 798 795 796
f 795 798 797
f 799 798 796
f 798 800 797
f 801 798 799
f 798 801 800
f 802 801 799
f 801 803 800
f 801 802 803
f 804 805 806
f 807 804 806
f 804 807 808
f 807 806 809
f 807 810 808
f 811 807 809
f 807 811 810
f 811 809 812
f 811 813 810
f 814 811 812
f 811 814 813
f 814 812 815
f 814 816 813
f 817 814 815
f 814 817 816
f 817 815 818
f 817 819 816
f 820 817 818
f 817 820 819
f 820 818 821
f 820 822 819
f 823 820 821
f 820 823 822
f 823 821 824
f 825 823 824
f 823 826 822
f 823 825 826
f 825 824 827
f 825 828 826
f 825 827 829
f 825 830 828
f 831 825 829
f 825 831 830
f 831 829 832
f 831 833 830
f 834 831 832
f 831 834 833
f 834 832 835
f 834 836 833
f 837 834 835
f 834 837 836
f 837 835 838
f 837 839 836
f 840 837 838
f 837 840 839
f 840 838 841
f 840 842 839
f 843 840 841
f 840 843 842
f 843 841 844
f 843 845 842
f 846 843 844
f 843 846 845
f 846 844 847
f 848 846 847
f 846 849 845
f 846 848 849
f 848 847 850
f 848 851 849
f 848 850 852
f 848 853 851
f 854 848 852
f 848 854 853
f 854 852 855
f 854 856 853
f 857 854 855
f 854 857 856
f 857 855 858
f 857 859 856
f 860 857 858
f 857 860 859
f 860 858 861
f 860 862 859
f 860 861 863
f 862 860 863
f 864 863 861
f 862 863 864
f 865 864 861
f 866 862 864
f 867 864 865
f 866 864 867
f 868 867 865
f 869 866 867
f 870 867 868
f 869 867 870
f 871 870 868
f 872 869 870
f 873 870 871
f 872 870 873
f 874 873 871
f 875 872 873
f 876 873 874
f 875 873 876
f 877 876 874
f 878 875 876
f 879 876 877
f 878 876 879
f 880 879 877
f 881 878 879
f 882 879 880
f 882 881 879
f 883 882 880
f 882 883 881
f 883 880 884
f 883 885 881
f 886 883 884
f 883 886 885
f 886 884 887
f 886 888 885
f 889 886 887
f 886 889 888
f 889 887 890
f 889 891 888
f 892 889 890
f 889 892 891
f 892 890 893
f 892 894 891
f 895 892 893
f 892 895 894
f 895 893 896
f 895 897 894
f 898 895 896
f 895 898 897
f 898 896 899
f 897 898 900
f 898 899 900
f 899 901 900
f 901 902 900
f 900 902 903
f 901 904 902
f 902 905 903
f 904 906 902
f 902 906 905
f 904 907 906
f 906 908 905
f 907 909 906
f 906 909 908
f 907 910 909
f 909 911 908
f 910 912 909
f 909 912 911
f 910 913 912
f 912 914 911
f 913 915 912
f 912 915 914
f 913 916 915
f 915 917 914
f 916 918 915
f 915 918 917
f 916 919 918
f 919 920 918
f 918 921 917
f 918 920 921
f 919 922 920
f 920 923 921
f 922 924 920
f 920 925 923
f 924 926 920
f 920 926 925
f 924 927 926
f 926 928 925
f 927 929 926
f 926 929 928
f 927 930 929
f 929 931 928
f 930 932 929
f 929 932 931
f 930 933 932
f 932 934 931
f 933 935 932
f 932 935 934
f 933 936 935
f 935 937 934
f 936 938 935
f 935 938 937
f 936 939 938
f 938 940 937
f 939 941 938
f 938 941 940
f 939 942 941
f 942 943 941
f 941 944 940
f 941 943 944
f 942 945 943
f 943 946 944
f 945 947 943
f 943 948 946
f 947 949 943
f 943 949 948
f 947 950 949
f 949 951 948
f 950 952 949
f 949 952 951
f 950 953 952
f 952 954 951
f 953 955 952
f 952 955 954
f 953 956 955
f 955 957 954
f 956 958 955
f 955 958 957
f 956 959 958
f 959 957 958
f 959 956 960
f 959 961 957
f 962 959 960
f 959 962 961
f 962 960 963
f 962 964 961
f 965 962 963
f 962 965 964
f 965 963 966
f 965 967 964
f 968 965 966
f 965 968 967
f 968 966 969
f 968 970 967
f 971 968 969
f 968 971 970
f 971 969 972
f 971 973 970
f 974 971 972
f 971 974 973
f 974 972 975
f 974 976 973
f 977 974 975
f 974 977 976
f 977 975 978
f 977 978 976
f 975 979 978
f 980 976 978
f 979 981 978
f 980 978 981
f 979 982 981
f 983 980 981
f 982 984 981
f 983 981 984
f 982 985 984
f 986 983 984
f 985 987 984
f 986 984 987
f 985 988 987
f 989 986 987
f 988 990 987
f 989 987 990
f 988 991 990
f 992 989 990
f 991 993 990
f 992 990 993
f 991 994 993
f 995 992 993
f 994 995 993
f 996 997 998
f 999 996 998
f 996 999 1000
f 996 1000 1001
f 1002 996 1001
f 1003 996 1002
f 1004 1003 1002
f 1003 1005 996
f 1004 1002 1006
f 1005 1007 996
f 1008 1004 1006
f 1008 1006 1009
f 1008 1009 1010
f 1007 1011 996
f 1012 1008 1010
f 1012 1010 1013
f 1012 1013 1014
f 1007 1015 1011
f 1016 1012 1014
f 1016 1014 1017
f 1016 1017 1018
f 1015 1007 1019
f 1007 1020 1019
f 1007 1021 1020
f 1021 1007 1022
f 1007 1023 1022
f 1024 1016 1018
f 1024 1018 1025
f 1024 1025 1026
f 1007 1027 1023
f 1028 1024 1026
f 1028 1026 1029
f 1030 1028 1029
f 1027 1007 1031
f 1032 1028 1030
f 1032 1030 1033
f 1032 1033 1034
f 1007 1035 1031
f 1036 1032 1034
f 1036 1034 1037
f 1036 1037 1038
f 1007 1039 1035
f 1039 1007 1040
f 1007 1041 1040
f 1007 1042 1041
f 1043 1036 1038
f 1043 1038 1044
f 1043 1044 1045
f 1042 1046 1041
f 1047 1043 1045
f 1047 1045 1048
f 1047 1048 1049
f 1046 1050 1041
f 1051 1047 1049
f 1051 1049 1052
f 1051 1052 1053
f 1050 1054 1041
f 1055 1051 1053
f 1055 1053 1056
f 1055 1056 1057
f 1054 1058 1041
f 1058 1059 1041
f 1060 1055 1057
f 1060 1057 1061
f 1060 1061 1062
f 1059 1063 1041
f 1063 1064 1041
f 1063 1065 1064
f 1066 1060 1062
f 1066 1062 1067
f 1066 1067 1068
f 1063 1069 1065
f 1069 1070 1065
f 1069 1071 1070
f 1072 1066 1068
f 1072 1068 1073
f 1072 1073 1074
f 1069 1075 1071
f 1075 1076 1071
f 1075 1077 1076
f 1078 1072 1074
f 1078 1074 1079
f 1078 1079 1080
f 1075 1081 1077
f 1081 1082 1077
f 1081 1083 1082
f 1084 1078 1080
f 1084 1080 1085
f 1084 1085 1086
f 1081 1087 1083
f 1087 1088 1083
f 1087 1089 1088
f 1090 1084 1086
f 1087 1090 1089
f 1090 1086 1091
f 1090 1091 1089
f 1092 1093 1094
f 1095 1092 1094
f 1092 1095 1096
f 1095 1094 1097
f 1095 1098 1096
f 1099 1095 1097
f 1095 1099 1098
f 1099 1097 1100
f 1099 1101 1098
f 1102 1099 1100
f 1099 1102 1101
f 1102 1100 1103
f 1102 1104 1101
f 1105 1102 1103
f 1102 1105 1104
f 1105 1103 1106
f 1105 1107 1104
f 1108 1105 1106
f 1105 1108 1107
f 1108 1106 1109
f 1108 1110 1107
f 1111 1108 1109
f 1108 1111 1110
f 1111 1109 1112
f 1113 1111 1112
f 1111 1114 1110
f 1111 1113 1114
f 1113 1112 1115
f 1113 1116 1114
f 1113 1115 1117
f 1113 1118 1116
f 1119 1113 1117
f 1113 1119 1118
f 1119 1117 1120
f 1119 1121 1118
f 1122 1119 1120
f 1119 1122 1121
f 1122 1120 1123
f 1122 1124 1121
f 1125 1122 1123
f 1122 1125 1124
f 1125 1123 1126
f 1125 1127 1124
f 1128 1125 1126
f 1125 1128 1127
f 1128 1126 1129
f 1128 1130 1127
f 1131 1128 1129
f 1128 1131 1130
f 1131 1129 1132
f 1131 1133 1130
f 1134 1131 1132
f 1131 1134 1133
f 1134 1132 1135
f 1136 1134 1135
f 1134 1137 1133
f 1134 1136 1137
f 1136 1135 1138
f 1136 1139 1137
f 1136 1138 1140
f 1136 1141 1139
f 1142 1136 1140
f 1136 1142 1141
f 1142 1140 1143
f 1142 1144 1141
f 1145 1142 1143
f 1142 1145 1144
f 1145 1143 1146
f 1145 1147 1144
f 1148 1145 1146
f 1145 1148 1147
f 1148 1146 1149
f 1148 1150 1147
f 1148 1149 1151
f 1150 1148 1151
f 1152 1151 1149
f 1150 1151 1152
f 1153 1152 1149
f 1154 1150 1152
f 1155 1152 1153
f 1154 1152 1155
f 1156 1155 1153
f 1157 1154 1155
f 1158 1155 1156
f 1157 1155 1158
f 1159 1158 1156
f 1160 1157 1158
f 1161 1158 1159
f 1160 1158 1161
f 1162 1161 1159
f 1163 1160 1161
f 1164 1161 1162
f 1163 1161 1164
f 1165 1164 1162
f 1166 1163 1164
f 1167 1164 1165
f 1166 1164 1167
f 1168 1167 1165
f 1169 1166 1167
f 1170 1167 1168
f 1170 1169 1167
f 1171 1170 1168
f 1170 1171 1169
f 1171 1168 1172
f 1171 1173 1169
f 1174 1171 1172
f 1171 1174 1173
f 1174 1172 1175
f 1174 1176 1173
f 1177 1174 1175
f 1174 1177 1176
f 1177 1175 1178
f 1177 1179 1176
f 1180 1177 1178
f 1177 1180 1179
f 1180 1178 1181
f 1180 1182 1179
f 1183 1180 1181
f 1180 1183 1182
f 1183 1181 1184
f 1183 1185 1182
f 1186 1183 1184
f 1183 1186 1185
f 1186 1184 1187
f 1185 1186 1188
f 1186 1187 1188
f 1187 1189 1188
f 1189 1190 1188
f 1188 1190 1191
f 1189 1192 1190
f 1190 1193 1191
f 1192 1194 1190
f 1190 1194 1193
f 1192 1195 1194
f 1194 1196 1193
f 1195 1197 1194
f 1194 1197 1196
f 1195 1198 1197
f 1197 1199 1196
f 1198 1200 1197
f 1197 1200 1199
f 1198 1201 1200
f 1200 1202 1199
f 1201 1203 1200
f 1200 1203 1202
f 1201 1204 1203
f 1203 1205 1202
f 1204 1206 1203
f 1203 1206 1205
f 1204 1207 1206
f 1207 1208 1206
f 1206 1209 1205
f 1206 1208 1209
f 1207 1210 1208
f 1208 1211 1209
f 1210 1212 1208
f 1208 1213 1211
f 1212 1214 1208
f 1208 1214 1213
f 1212 1215 1214
f 1214 1216 1213
f 1215 1217 1214
f 1214 1217 1216
f 1215 1218 1217
f 1217 1219 1216
f 1218 1220 1217
f 1217 1220 1219
f 1218 1221 1220
f 1220 1222 1219
f 1221 1223 1220
f 1220 1223 1222
f 1221 1224 1223
f 1223 1225 1222
f 1224 1226 1223
f 1223 1226 1225
f 1224 1227 1226
f 1226 1228 1225
f 1227 1229 1226
f 1226 1229 1228
f 1227 1230 1229
f 1230 1231 1229
f 1229 1232 1228
f 1229 1231 1232
f 1230 1233 1231
f 1231 1234 1232
f 1233 1235 1231
f 1231 1236 1234
f 1235 1237 1231
f 1231 1237 1236
f 1235 1238 1237
f 1237 1239 1236
f 1238 1240 1237
f 1237 1240 1239
f 1238 1241 1240
f 1240 1242 1239
f 1241 1243 1240
f 1240 1243 1242
f 1241 1244 1243
f 1243 1245 1242
f 1244 1246 1243
f 1243 1246 1245
f 1244 1247 1246
f 1247 1245 1246
f 1247 1244 1248
f 1247 1249 1245
f 1250 1247 1248
f 1247 1250 1249
f 1250 1248 1251
f 1250 1252 1249
f 1253 1250 1251
f 1250 1253 1252
f 1253 1251 1254
f 1253 1255 1252
f 1256 1253 1254
f 1253 1256 1255
f 1256 1254 1257
f 1256 1258 1255
f 1259 1256 1257
f 1256 1259 1258
f 1259 1257 1260
f 1259 1261 1258
f 1262 1259 1260
f 1259 1262 1261
f 1262 1260 1263
f 1262 1264 1261
f 1265 1262 1263
f 1262 1265 1264
f 1265 1263 1266
f 1265 1266 1264
f 1263 1267 1266
f 1268 1264 1266
f 1267 1269 1266
f 1268 1266 1269
f 1267 1270 1269
f 1271 1268 1269
f 1270 1272 1269
f 1271 1269 1272
f 1270 1273 1272
f 1274 1271 1272
f 1273 1275 1272
f 1274 1272 1275
f 1273 1276 1275
f 1277 1274 1275
f 1276 1278 1275
f 1277 1275 1278
f 1276 1279 1278
f 1280 1277 1278
f 1279 1281 1278
f 1280 1278 1281
f 1279 1282 1281
f 1283 1280 1281
f 1282 1283 1281
f 1284 1285 1286
f 1284 1286 1287
f 1288 1284 1287
f 1287 1286 1289
f 1290 1288 1287
f 1291 1287 1289
f 1290 1287 1291
f 1291 1289 1292
f 1293 1290 1291
f 1294 1291 1292
f 1293 1291 1294
f 1294 1292 1295
f 1296 1293 1294
f 1297 1294 1295
f 1296 1294 1297
f 1297 1295 1298
f 1299 1296 1297
f 1300 1297 1298
f 1299 1297 1300
f 1300 1298 1301
f 1302 1299 1300
f 1303 1300 1301
f 1302 1300 1303
f 1303 1301 1304
f 1305 1303 1304
f 1306 1302 1303
f 1306 1303 1305
f 1305 1304 1307
f 1308 1306 1305
f 1309 1305 1307
f 1310 1308 1305
f 1311 1305 1309
f 1310 1305 1311
f 1312 1311 1309
f 1313 1310 1311
f 1314 1311 1312
f 1314 1313 1311
f 1315 1314 1312
f 1314 1315 1313
f 1315 1312 1316
f 1315 1317 1313
f 1318 1315 1316
f 1315 1318 1317
f 1318 1316 1319
f 1318 1320 1317
f 1321 1318 1319
f 1318 1321 1320
f 1321 1319 1322
f 1321 1323 1320
f 1324 1321 1322
f 1321 1324 1323
f 1324 1322 1325
f 1324 1326 1323
f 1327 1324 1325
f 1324 1327 1326
f 1327 1325 1328
f 1327 1329 1326
f 1330 1327 1328
f 1327 1330 1329
f 1330 1328 1331
f 1329 1330 1332
f 1330 1331 1332
f 1333 1334 1335
f 1333 1336 1334
f 1337 1333 1335
f 1333 1338 1336
f 1337 1335 1339
f 1338 1340 1336
f 1341 1337 1339
f 1338 1342 1340
f 1341 1339 1343
f 1342 1344 1340
f 1345 1341 1343
f 1342 1346 1344
f 1345 1343 1347
f 1346 1348 1344
f 1349 1345 1347
f 1346 1350 1348
f 1349 1347 1351
f 1350 1352 1348
f 1353 1349 1351
f 1350 1354 1352
f 1353 1351 1355
f 1354 1356 1352
f 1357 1353 1355
f 1354 1358 1356
f 1357 1355 1359
f 1358 1360 1356
f 1361 1357 1359
f 1358 1362 1360
f 1361 1359 1363
f 1362 1364 1360
f 1365 1361 1363
f 1362 1366 1364
f 1365 1363 1367
f 1366 1368 1364
f 1369 1365 1367
f 1366 1370 1368
f 1369 1367 1371
f 1370 1372 1368
f 1373 1369 1371
f 1370 1374 1372
f 1373 1371 1375
f 1374 1376 1372
f 1377 1373 1375
f 1374 1378 1376
f 1377 1375 1379
f 1378 1380 1376
f 1381 1377 1379
f 1378 1382 1380
f 1381 1379 1383
f 1382 1384 1380
f 1385 1381 1383
f 1382 1386 1384
f 1385 1383 1387
f 1386 1388 1384
f 1389 1385 1387
f 1386 1390 1388
f 1389 1387 1391
f 1390 1392 1388
f 1393 1389 1391
f 1390 1394 1392
f 1393 1391 1395
f 1396 1393 1395
f 1394 1397 1392
f 1397 1394 1398
f 1397 1398 1399
f 1400 1397 1399
f 1399 1401 1400
f 1401 1402 1400
f 1401 1403 1402
f 1403 1404 1402
f 1403 1405 1404
f 1405 1406 1404
f 1405 1407 1406
f 1407 1408 1406
f 1407 1409 1408
f 1409 1410 1408
f 1409 1411 1410
f 1411 1412 1410
f 1411 1413 1412
f 1413 1414 1412
f 1413 1415 1414
f 1415 1416 1414
f 1415 1417 1416
f 1417 1418 1416
f 1417 1419 1418
f 1419 1420 1418
f 1419 1421 1420
f 1421 1422 1420
f 1421 1423 1422
f 1423 1424 1422
f 1423 1425 1424
f 1425 1426 1424
f 1425 1427 1426
f 1427 1428 1426
f 1427 1429 1428
f 1427 1430 1429
f 1430 1431 1429
f 1430 1432 1431
f 1432 1433 1431
f 1432 1434 1433
f 1434 1435 1433
f 1434 1436 1435
f 1436 1437 1435
f 1436 1438 1437
f 1438 1439 1437
f 1438 1440 1439
f 1440 1441 1439
f 1440 1442 1441
f 1442 1443 1441
f 1442 1444 1443
f 1444 1445 1443
f 1444 1446 1445
f 1446 1447 1445
f 1446 1448 1447
f 1448 1449 1447
f 1448 1450 1449
f 1450 1451 1449
f 1450 1452 1451
f 1452 1453 1451
f 1452 1454 1453
f 1454 1455 1453
f 1454 1456 1455
f 1456 1457 1455
f 1456 1458 1457
f 1458 1459 1457
f 1458 1460 1459
f 1460 1396 1459
f 1396 1395 1459
f 1461 1462 1463
f 1461 1464 1462
f 1465 1461 1463
f 1461 1466 1464
f 1465 1463 1467
f 1466 1468 1464
f 1469 1465 1467
f 1466 1470 1468
f 1469 1467 1471
f 1470 1472 1468
f 1473 1469 1471
f 1470 1474 1472
f 1473 1471 1475
f 1474 1476 1472
f 1477 1473 1475
f 1474 1478 1476
f 1477 1475 1479
f 1478 1480 1476
f 1481 1477 1479
f 1478 1482 1480
f 1481 1479 1483
f 1482 1484 1480
f 1485 1481 1483
f 1482 1486 1484
f 1485 1483 1487
f 1486 1488 1484
f 1489 1485 1487
f 1486 1490 1488
f 1489 1487 1491
f 1490 1492 1488
f 1493 1489 1491
f 1490 1494 1492
f 1493 1491 1495
f 1494 1496 1492
f 1497 1493 1495
f 1494 1498 1496
f 1497 1495 1499
f 1498 1500 1496
f 1501 1497 1499
f 1498 1502 1500
f 1501 1499 1503
f 1502 1504 1500
f 1505 1501 1503
f 1502 1506 1504
f 1505 1503 1507
f 1506 1508 1504
f 1509 1505 1507
f 1506 1510 1508
f 1509 1507 1511
f 1510 1512 1508
f 1513 1509 1511
f 1510 1514 1512
f 1513 1511 1515
f 1514 1516 1512
f 1517 1513 1515
f 1514 1518 1516
f 1517 1515 1519
f 1518 1520 1516
f 1521 1517 1519
f 1518 1522 1520
f 1521 1519 1523
f 1524 1521 1523
f 1522 1525 1520
f 1525 1522 1526
f 1525 1526 1527
f 1528 1525 1527
f 1527 1529 1528
f 1529 1530 1528
f 1529 1531 1530
f 1531 1532 1530
f 1531 1533 1532
f 1533 1534 1532
f 1533 1535 1534
f 1535 1536 1534
f 1535 1537 1536
f 1537 1538 1536
f 1537 1539 1538
f 1539 1540 1538
f 1539 1541 1540
f 1541 1542 1540
f 1541 1543 1542
f 1543 1544 1542
f 1543 1545 1544
f 1545 1546 1544
f 1545 1547 1546
f 1547 1548 1546
f 1547 1549 1548
f 1549 1550 1548
f 1549 1551 1550
f 1551 1552 1550
f 1551 1553 1552
f 1553 1554 1552
f 1553 1555 1554
f 1555 1556 1554
f 1555 1557 1556
f 1555 1558 1557
f 1558 1559 1557
f 1558 1560 1559
f 1560 1561 1559
f 1560 1562 1561
f 1562 1563 1561
f 1562 1564 1563
f 1564 1565 1563
f 1564 1566 1565
f 1566 1567 1565
f 1566 1568 1567
f 1568 1569 1567
f 1568 1570 1569
f 1570 1571 1569
f 1570 1572 1571
f 1572 1573 1571
f 1572 1574 1573
f 1574 1575 1573
f 1574 1576 1575
f 1576 1577 1575
f 1576 1578 1577
f 1578 1579 1577
f 1578 1580 1579
f 1580 1581 1579
f 1580 1582 1581
f 1582 1583 1581
f 1582 1584 1583
f 1584 1585 1583
f 1584 1586 1585
f 1586 1587 1585
f 1586 1588 1587
f 1588 1524 1587
f 1524 1523 1587
f 1589 1590 1591
f 1590 1592 1591
f 1590 1589 1593
f 1590 1593 1594
f 1595 1590 1594
f 1590 1595 1596
f 1590 1596 1597
f 1598 1590 1597
f 1598 1597 1599
f 1597 1600 1599
f 1592 1590 1601
f 1600 1602 1599
f 1602 1600 1603
f 1602 1603 1604
f 1605 1602 1604
f 1592 1601 1606
f 1604 1607 1605
f 1608 1592 1606
f 1607 1609 1605
f 1592 1608 1610
f 1592 1610 1611
f 1612 1592 1611
f 1592 1612 1613
f 1592 1613 1614
f 1607 1615 1609
f 1616 1592 1614
f 1615 1607 1617
f 1607 1618 1617
f 1607 1619 1618
f 1592 1616 1620
f 1607 1621 1619
f 1592 1620 1622
f 1621 1623 1619
f 1621 1624 1623
f 1624 1621 1625
f 1626 1592 1622
f 1592 1626 1627
f 1592 1627 1628
f 1621 1629 1625
f 1629 1630 1625
f 1629 1631 1630
f 1632 1592 1628
f 1632 1628 1633
f 1632 1633 1634
f 1629 1635 1631
f 1635 1636 1631
f 1635 1637 1636
f 1638 1632 1634
f 1638 1634 1639
f 1638 1639 1640
f 1635 1641 1637
f 1641 1642 1637
f 1641 1643 1642
f 1644 1638 1640
f 1644 1640 1645
f 1644 1645 1646
f 1641 1647 1643
f 1647 1648 1643
f 1647 1649 1648
f 1650 1644 1646
f 1650 1646 1651
f 1650 1651 1652
f 1647 1653 1649
f 1653 1654 1649
f 1653 1655 1654
f 1656 1650 1652
f 1656 1652 1657
f 1656 1657 1658
f 1653 1659 1655
f 1659 1660 1655
f 1659 1661 1660
f 1662 1656 1658
f 1662 1658 1663
f 1662 1663 1664
f 1659 1665 1661
f 1665 1666 1661
f 1665 1667 1666
f 1668 1662 1664
f 1668 1664 1669
f 1668 1669 1670
f 1665 1671 1667
f 1671 1672 1667
f 1671 1673 1672
f 1674 1668 1670
f 1674 1670 1675
f 1674 1675 1676
f 1671 1677 1673
f 1677 1678 1673
f 1677 1679 1678
f 1680 1674 1676
f 1680 1676 1681
f 1680 1681 1682
f 1677 1683 1679
f 1683 1680 1682
f 1683 1684 1679
f 1683 1682 1684
