# ROS coordinates: X forward, Y left, Z up; units are metres.
o mesh
v -0.0435574651 -0.09864284 0.0215750448
v -0.0458935462 -0.09612168 0.0271075852
v -0.0442877 -0.0978547558 0.0207371153
v -0.04498977 -0.09709707 0.0198138151
v -0.045657143 -0.09637682 0.01880785
v -0.04689584 -0.0950399861 0.02599655
v -0.0462834239 -0.09570092 0.01772334
v -0.0478606671 -0.09399872 0.0247647874
v -0.0468625128 -0.09507595 0.0165657848
v -0.0487785265 -0.0930081457 0.0234158
v -0.04738877 -0.09450801 0.0153420065
v -0.04964006 -0.09207836 0.0219552014
v -0.0478571951 -0.09400247 0.014060053
v -0.04985442 -0.09184702 0.0135777844
v -0.0504363142 -0.09121902 0.0203906819
v -0.04826356 -0.09356391 0.0127290124
v -0.0511590019 -0.0904390737 0.0187319554
v -0.048604548 -0.09319591 0.0113588134
v -0.0518007651 -0.08974647 0.0169905685
v -0.04887782 -0.092900984 0.009959978
v -0.0523553938 -0.0891478956 0.0151796751
v -0.049082078 -0.09268054 0.008543354
v -0.052818045 -0.0886485949 0.0133136893
v -0.0531853437 -0.0882522 0.011407922
v -0.0534554869 -0.08796065 0.009478156
v -0.0492170975 -0.0925348252 0.007119837
v -0.0536282547 -0.0877741948 0.00754022552
v -0.04928367 -0.09246299 0.005700103
v -0.053704977 -0.0876914 0.00560958777
v -0.0536884 -0.0877092853 0.0037009567
v -0.05358257 -0.0878235 0.00182795618
v -0.0492835343 -0.09246313 0.00429436238
v -0.05339261 -0.0880285054 2.86567956E-06
v -0.04921934 -0.09253241 0.002912134
v -0.04909446 -0.09266718 0.00156206731
v -0.0417592861 -0.0858704746 0.00156206731
v -0.0460574329 -0.0812318 2.86567956E-06
v -0.0418841653 -0.0857357 0.002912134
v -0.0419483557 -0.08566642 0.00429436238
v -0.0462473929 -0.08102679 0.00182795618
v -0.04194849 -0.085666284 0.005700103
v -0.0463532247 -0.08091258 0.0037009567
v -0.0463698 -0.0808946937 0.00560958777
v -0.04629308 -0.08097749 0.00754022552
v -0.0418819226 -0.08573812 0.007119837
v -0.04612031 -0.08116395 0.009478156
v -0.04251924 -0.08505031 0.0135777844
v -0.0458501652 -0.08145549 0.011407922
v -0.0417469069 -0.08588383 0.008543354
v -0.0454828665 -0.0818518847 0.0133136893
v -0.04154264 -0.08610428 0.009959978
v -0.0450202227 -0.08235119 0.0151796751
v -0.0412693731 -0.0863992 0.0113588134
v -0.044465594 -0.08294976 0.0169905685
v -0.0409283862 -0.0867672 0.0127290124
v -0.0438238271 -0.08364236 0.0187319554
v -0.04310114 -0.08442231 0.0203906819
v -0.040522024 -0.08720576 0.014060053
v -0.04230489 -0.08528165 0.0219552014
v -0.0400535949 -0.0877113 0.0153420065
v -0.0414433479 -0.08621144 0.0234158
v -0.03952734 -0.08827925 0.0165657848
v -0.04052549 -0.08720201 0.0247647874
v -0.0389482528 -0.08890421 0.01772334
v -0.0395606644 -0.0882432759 0.02599655
v -0.0383219644 -0.08958011 0.01880785
v -0.03855837 -0.08932498 0.0271075852
v -0.0376545936 -0.09030036 0.0198138151
v -0.0369525254 -0.0910580456 0.0207371153
v -0.036222294 -0.09184614 0.0215750448
v -0.0475759469 -0.08694949 0.000782464631
v -0.0417592861 -0.0858704746 0.00156206731
v -0.04909446 -0.09266718 0.00156206731
v -0.05339261 -0.0880285054 2.86567956E-06
v -0.0460574329 -0.0812318 2.86567956E-06
v -0.0435574651 -0.09864284 0.0215750448
v -0.04062011 -0.0944564044 0.0207371153
v -0.036222294 -0.09184614 0.0215750448
v -0.0442877 -0.0978547558 0.0207371153
v -0.0369525254 -0.0910580456 0.0207371153
v -0.04498977 -0.09709707 0.0198138151
v -0.04132218 -0.09369871 0.0198138151
v -0.0376545936 -0.09030036 0.0198138151
v -0.045657143 -0.09637682 0.01880785
v -0.0419895537 -0.09297846 0.01880785
v -0.0383219644 -0.08958011 0.01880785
v -0.0462834239 -0.09570092 0.01772334
v -0.04261584 -0.09230257 0.01772334
v -0.0389482528 -0.08890421 0.01772334
v -0.0468625128 -0.09507595 0.0165657848
v -0.0431949273 -0.0916776 0.0165657848
v -0.03952734 -0.08827925 0.0165657848
v -0.04738877 -0.09450801 0.0153420065
v -0.0437211841 -0.09110965 0.0153420065
v -0.0400535949 -0.0877113 0.0153420065
v -0.0478571951 -0.09400247 0.014060053
v -0.04418961 -0.09060411 0.014060053
v -0.040522024 -0.08720576 0.014060053
v -0.04826356 -0.09356391 0.0127290124
v -0.04459597 -0.0901655555 0.0127290124
v -0.0409283862 -0.0867672 0.0127290124
v -0.048604548 -0.09319591 0.0113588134
v -0.0449369624 -0.08979755 0.0113588134
v -0.0412693731 -0.0863992 0.0113588134
v -0.04887782 -0.092900984 0.009959978
v -0.04521023 -0.08950263 0.009959978
v -0.04154264 -0.08610428 0.009959978
v -0.049082078 -0.09268054 0.008543354
v -0.0454144925 -0.0892821848 0.008543354
v -0.0417469069 -0.08588383 0.008543354
v -0.0492170975 -0.0925348252 0.007119837
v -0.0455495119 -0.0891364738 0.007119837
v -0.0418819226 -0.08573812 0.007119837
v -0.04928367 -0.09246299 0.005700103
v -0.04561608 -0.0890646353 0.005700103
v -0.04194849 -0.085666284 0.005700103
v -0.0492835343 -0.09246313 0.00429436238
v -0.045615945 -0.08906478 0.00429436238
v -0.0419483557 -0.08566642 0.00429436238
v -0.04921934 -0.09253241 0.002912134
v -0.0455517545 -0.08913405 0.002912134
v -0.0418841653 -0.0857357 0.002912134
v -0.04909446 -0.09266718 0.00156206731
v -0.0417592861 -0.0858704746 0.00156206731
v -0.04105792 -0.09398391 0.024341315
v -0.03855837 -0.08932498 0.0271075852
v -0.0458935462 -0.09612168 0.0271075852
v -0.0435574651 -0.09864284 0.0215750448
v -0.036222294 -0.09184614 0.0215750448
v -0.03855837 -0.08932498 0.0271075852
v -0.0432282537 -0.0916416347 0.02599655
v -0.0458935462 -0.09612168 0.0271075852
v -0.0395606644 -0.0882432759 0.02599655
v -0.04689584 -0.0950399861 0.02599655
v -0.04052549 -0.08720201 0.0247647874
v -0.0441930778 -0.09060037 0.0247647874
v -0.0478606671 -0.09399872 0.0247647874
v -0.0414433479 -0.08621144 0.0234158
v -0.0451109372 -0.0896097943 0.0234158
v -0.0487785265 -0.0930081457 0.0234158
v -0.04230489 -0.08528165 0.0219552014
v -0.0459724739 -0.08868 0.0219552014
v -0.04964006 -0.09207836 0.0219552014
v -0.04310114 -0.08442231 0.0203906819
v -0.0467687249 -0.087820664 0.0203906819
v -0.0504363142 -0.09121902 0.0203906819
v -0.0438238271 -0.08364236 0.0187319554
v -0.0474914163 -0.08704072 0.0187319554
v -0.0511590019 -0.0904390737 0.0187319554
v -0.044465594 -0.08294976 0.0169905685
v -0.04813318 -0.08634812 0.0169905685
v -0.0518007651 -0.08974647 0.0169905685
v -0.0450202227 -0.08235119 0.0151796751
v -0.04868781 -0.0857495442 0.0151796751
v -0.0523553938 -0.0891478956 0.0151796751
v -0.0454828665 -0.0818518847 0.0133136893
v -0.0491504557 -0.08525024 0.0133136893
v -0.052818045 -0.0886485949 0.0133136893
v -0.0458501652 -0.08145549 0.011407922
v -0.0495177545 -0.08485384 0.011407922
v -0.0531853437 -0.0882522 0.011407922
v -0.04612031 -0.08116395 0.009478156
v -0.0497878976 -0.0845623 0.009478156
v -0.0534554869 -0.08796065 0.009478156
v -0.04629308 -0.08097749 0.00754022552
v -0.0499606654 -0.08437584 0.00754022552
v -0.0536282547 -0.0877741948 0.00754022552
v -0.0463698 -0.0808946937 0.00560958777
v -0.0500373878 -0.0842930451 0.00560958777
v -0.053704977 -0.0876914 0.00560958777
v -0.0463532247 -0.08091258 0.0037009567
v -0.0500208139 -0.0843109339 0.0037009567
v -0.0536884 -0.0877092853 0.0037009567
v -0.0462473929 -0.08102679 0.00182795618
v -0.0499149822 -0.08442515 0.00182795618
v -0.05358257 -0.0878235 0.00182795618
v -0.0460574329 -0.0812318 2.86567956E-06
v -0.05339261 -0.0880285054 2.86567956E-06
f 1 2 3
f 2 4 3
f 2 5 4
f 2 6 5
f 6 7 5
f 6 8 7
f 8 9 7
f 8 10 9
f 10 11 9
f 10 12 11
f 12 13 11
f 12 14 13
f 14 12 15
f 14 16 13
f 17 14 15
f 14 18 16
f 14 17 19
f 18 14 20
f 14 19 21
f 14 22 20
f 23 14 21
f 14 23 24
f 14 24 25
f 14 26 22
f 26 14 25
f 26 25 27
f 28 26 27
f 29 28 27
f 28 29 30
f 28 30 31
f 32 28 31
f 31 33 32
f 33 34 32
f 33 35 34
f 36 37 38
f 37 39 38
f 37 40 39
f 40 41 39
f 40 42 41
f 42 43 41
f 43 44 41
f 44 45 41
f 44 46 45
f 46 47 45
f 46 48 47
f 45 47 49
f 48 50 47
f 47 51 49
f 50 52 47
f 47 53 51
f 52 54 47
f 53 47 55
f 54 56 47
f 56 57 47
f 47 58 55
f 57 59 47
f 59 58 47
f 59 60 58
f 59 61 60
f 61 62 60
f 61 63 62
f 63 64 62
f 63 65 64
f 65 66 64
f 65 67 66
f 67 68 66
f 67 69 68
f 69 67 70
f 71 72 73
f 71 73 74
f 72 71 75
f 75 71 74
f 76 77 78
f 77 76 79
f 77 80 78
f 77 79 81
f 77 82 80
f 82 77 81
f 82 83 80
f 82 81 84
f 82 85 83
f 85 82 84
f 85 86 83
f 85 84 87
f 85 88 86
f 88 85 87
f 88 89 86
f 88 87 90
f 88 91 89
f 91 88 90
f 91 92 89
f 91 90 93
f 91 94 92
f 94 91 93
f 94 95 92
f 94 93 96
f 94 97 95
f 97 94 96
f 97 98 95
f 97 96 99
f 97 100 98
f 100 97 99
f 100 101 98
f 100 99 102
f 100 103 101
f 103 100 102
f 103 104 101
f 103 102 105
f 103 106 104
f 106 103 105
f 106 107 104
f 106 105 108
f 106 109 107
f 109 106 108
f 109 110 107
f 109 108 111
f 109 112 110
f 112 109 111
f 112 113 110
f 112 111 114
f 112 115 113
f 115 112 114
f 115 116 113
f 115 114 117
f 115 118 116
f 118 115 117
f 118 119 116
f 118 117 120
f 118 121 119
f 121 118 120
f 121 122 119
f 121 120 123
f 121 124 122
f 124 121 123
f 125 126 127
f 125 127 128
f 126 125 129
f 129 125 128
f 130 131 132
f 131 130 133
f 131 134 132
f 131 133 135
f 131 136 134
f 136 131 135
f 136 137 134
f 136 135 138
f 136 139 137
f 139 136 138
f 139 140 137
f 139 138 141
f 139 142 140
f 142 139 141
f 142 143 140
f 142 141 144
f 142 145 143
f 145 142 144
f 145 146 143
f 145 144 147
f 145 148 146
f 148 145 147
f 148 149 146
f 148 147 150
f 148 151 149
f 151 148 150
f 151 152 149
f 151 150 153
f 151 154 152
f 154 151 153
f 154 155 152
f 154 153 156
f 154 157 155
f 157 154 156
f 157 158 155
f 157 156 159
f 157 160 158
f 160 157 159
f 160 161 158
f 160 159 162
f 160 163 161
f 163 160 162
f 163 164 161
f 163 162 165
f 163 166 164
f 166 163 165
f 166 167 164
f 166 165 168
f 166 169 167
f 169 166 168
f 169 170 167
f 169 168 171
f 169 172 170
f 172 169 171
f 172 173 170
f 172 171 174
f 172 175 173
f 175 172 174
f 175 176 173
f 175 174 177
f 175 178 176
f 178 175 177
