# ROS coordinates: X forward, Y left, Z up; units are metres.
o mesh
v 0.00664675562 0.0332625471 0.127677828
v 0.00664675562 0.03327242 0.127754152
v 0.00664675562 0.0330724157 0.127754152
v 0.00664675562 0.03306913 0.1277287
v 0.00664675562 0.03314742 0.127624243
v 0.00664675562 0.033064913 0.127716139
v 0.00664675562 0.03324991 0.127640143
v 0.00664675562 0.03305902 0.127704144
v 0.00664675562 0.0332322232 0.127604142
v 0.00664675562 0.0330515765 0.127693042
v 0.00664675562 0.0332098939 0.127570838
v 0.00664675562 0.0330428071 0.127683118
v 0.00664675562 0.03318358 0.12754105
v 0.00664675562 0.0330224149 0.127667546
v 0.00664675562 0.0331224166 0.127494335
v 0.004746756 0.03327242 0.127754152
v 0.004746755 0.0332625471 0.127677828
v 0.004746755 0.0330724157 0.127754152
v 0.004746755 0.03306913 0.1277287
v 0.004746755 0.03314742 0.127624243
v 0.004746756 0.03324991 0.127640143
v 0.004746755 0.033064913 0.127716139
v 0.004746756 0.0332322232 0.127604142
v 0.004746755 0.03305902 0.127704144
v 0.004746755 0.0332098939 0.127570838
v 0.004746756 0.0330515765 0.127693042
v 0.004746755 0.03318358 0.12754105
v 0.004746756 0.0330428071 0.127683118
v 0.004746755 0.0331224166 0.127494335
v 0.004746755 0.0330224149 0.127667546
v 0.00684675528 0.0304724164 0.129454151
v 0.00684675528 0.0304724164 0.129254147
v 0.006827557 0.03026316 0.129254147
v 0.00682147266 0.0302326046 0.129354149
v 0.006827557 0.03026316 0.129454151
v 0.0067660124 0.0300491042 0.129254147
v 0.0067660124 0.0300491042 0.129454151
v 0.006740131 0.0299888216 0.129354149
v 0.00665930053 0.0298431255 0.129254147
v 0.00665930053 0.0298431255 0.129454151
v 0.006677278 0.02987152 0.129354149
v 0.006600154 0.0297608189 0.129354149
v 0.0065099285 0.0296592452 0.129254147
v 0.0065099285 0.0296592452 0.129454151
v 0.0065099285 0.0296592452 0.129354149
v 0.006408353 0.0295690186 0.129354149
v 0.00632604631 0.0295098685 0.129254147
v 0.00632604631 0.0295098685 0.129454151
v 0.00629765028 0.02949189 0.129354149
v 0.006180354 0.0294290371 0.129354149
v 0.006120064 0.0294031613 0.129254147
v 0.006120064 0.0294031613 0.129454151
v 0.005936571 0.0293477 0.129354149
v 0.00590601237 0.029341612 0.129254147
v 0.00569675537 0.02932242 0.129354149
v 0.00590601237 0.029341612 0.129454151
v 0.00569675537 0.02932242 0.129254147
v 0.00569675537 0.02932242 0.129454151
v 0.00548749836 0.029341612 0.129254147
v 0.00548749836 0.029341612 0.129454151
v 0.00545694 0.0293477 0.129354149
v 0.005273447 0.0294031613 0.129254147
v 0.005273447 0.0294031613 0.129454151
v 0.005273447 0.0294031613 0.129354149
v 0.00509586046 0.02949189 0.129354149
v 0.00506746443 0.0295098685 0.129254147
v 0.00506746443 0.0295098685 0.129454151
v 0.00493308 0.02961259 0.129354149
v 0.00488358224 0.0296592452 0.129254147
v 0.00488358224 0.0296592452 0.129454151
v 0.00479335664 0.0297608189 0.129354149
v 0.00473421 0.0298431255 0.129254147
v 0.00473421 0.0298431255 0.129454151
v 0.00468297349 0.029929515 0.129354149
v 0.00462749833 0.0300491042 0.129254147
v 0.00462749833 0.0300491042 0.129454151
v 0.00460533937 0.03011005 0.129354149
v 0.00456595374 0.03026316 0.129254147
v 0.00456595374 0.03026316 0.129454151
v 0.00456074 0.0302936174 0.129354149
v 0.00454675453 0.0304724164 0.129254147
v 0.00454675453 0.0304724164 0.129454151
v 0.00456595374 0.0306816734 0.129254147
v 0.004572038 0.0307122357 0.129354149
v 0.00456595374 0.0306816734 0.129454151
v 0.00462749833 0.0308957286 0.129254147
v 0.00462749833 0.0308957286 0.129454151
v 0.00465338 0.0309560187 0.129354149
v 0.00473421 0.0311017074 0.129254147
v 0.00473421 0.0311017074 0.129454151
v 0.004716232 0.0310733132 0.129354149
v 0.00479335664 0.0311840139 0.129354149
v 0.00488358224 0.0312855877 0.129254147
v 0.00488358224 0.0312855877 0.129454151
v 0.00488358224 0.0312855877 0.129354149
v 0.004985158 0.0313758142 0.129354149
v 0.00506746443 0.0314349644 0.129254147
v 0.00506746443 0.0314349644 0.129454151
v 0.00509586046 0.0314529426 0.129354149
v 0.005213157 0.0315157957 0.129354149
v 0.005273447 0.03154167 0.129254147
v 0.005273447 0.03154167 0.129454151
v 0.00545694 0.0315971337 0.129354149
v 0.00548749836 0.03160322 0.129254147
v 0.00569675537 0.0316224135 0.129354149
v 0.00548749836 0.03160322 0.129454151
v 0.00569675537 0.0316224135 0.129254147
v 0.00569675537 0.0316224135 0.129454151
v 0.00590601237 0.03160322 0.129254147
v 0.00590601237 0.03160322 0.129454151
v 0.005936571 0.0315971337 0.129354149
v 0.006120064 0.03154167 0.129254147
v 0.006120064 0.03154167 0.129454151
v 0.006120064 0.03154167 0.129354149
v 0.00629765028 0.0314529426 0.129354149
v 0.00632604631 0.0314349644 0.129254147
v 0.00632604631 0.0314349644 0.129454151
v 0.00646042963 0.0313322432 0.129354149
v 0.0065099285 0.0312855877 0.129254147
v 0.0065099285 0.0312855877 0.129454151
v 0.006600154 0.0311840139 0.129354149
v 0.00665930053 0.0311017074 0.129254147
v 0.00665930053 0.0311017074 0.129454151
v 0.00671053724 0.0310153253 0.129354149
v 0.0067660124 0.0308957286 0.129254147
v 0.0067660124 0.0308957286 0.129454151
v 0.00678817136 0.0308347829 0.129354149
v 0.006827557 0.0306816734 0.129254147
v 0.006827557 0.0306816734 0.129454151
v 0.00683277054 0.0306512229 0.129354149
v 0.00684675528 0.0304724164 0.129254147
v 0.00684675528 0.0304724164 0.129454151
v 0.003746756 0.032972414 0.129454151
v 0.003746756 0.0330270045 0.129449144
v 0.003746756 0.032972414 0.129254147
v 0.003746756 0.0329906158 0.129252478
v 0.003746756 0.0330092274 0.129247129
v 0.003746756 0.0330828466 0.129433081
v 0.003746756 0.0331224166 0.129304141
v 0.003746756 0.03302714 0.129237846
v 0.003746756 0.03313658 0.129405245
v 0.003746756 0.0330431275 0.129224852
v 0.003746756 0.033184547 0.129366279
v 0.003746756 0.0330561139 0.129208863
v 0.003746756 0.0332235135 0.129318312
v 0.003746756 0.0332513563 0.129264578
v 0.003746756 0.0330653973 0.129190952
v 0.003746756 0.0332674123 0.129208744
v 0.003746756 0.0330707468 0.12917234
v 0.003746756 0.03327242 0.129154146
v 0.003746756 0.0330724157 0.129154146
v 0.007646756 0.0330724157 0.129154146
v 0.007646756 0.03327242 0.129154146
v 0.007646756 0.0330707468 0.12917234
v 0.007646756 0.0332674049 0.129208744
v 0.007646756 0.0332513563 0.129264578
v 0.007646756 0.0330653973 0.129190952
v 0.007646756 0.0331224166 0.129304141
v 0.007646756 0.0332235135 0.129318312
v 0.007646756 0.0330561139 0.129208863
v 0.007646756 0.033184547 0.129366279
v 0.007646756 0.0330431275 0.129224852
v 0.007646756 0.03313658 0.129405245
v 0.007646756 0.03302714 0.129237846
v 0.007646756 0.0330092274 0.129247129
v 0.007646756 0.0330828466 0.129433081
v 0.007646756 0.0329906158 0.129252478
v 0.007646756 0.0330270045 0.129449144
v 0.007646756 0.032972414 0.129454151
v 0.007646756 0.032972414 0.129254147
v 0.00569675537 0.0330724157 0.128454149
v 0.007646756 0.0330724157 0.129154146
v 0.003746756 0.0330724157 0.129154146
v 0.004746755 0.0330724157 0.127754152
v 0.00664675562 0.0330724157 0.127754152
v 0.00569675537 0.03327242 0.128454149
v 0.004746756 0.03327242 0.127754152
v 0.003746756 0.03327242 0.129154146
v 0.007646756 0.03327242 0.129154146
v 0.00664675562 0.03327242 0.127754152
v 0.004246755 0.0331724174 0.128454149
v 0.003746756 0.0330724157 0.129154146
v 0.003746756 0.03327242 0.129154146
v 0.004746756 0.03327242 0.127754152
v 0.004746755 0.0330724157 0.127754152
v 0.0071467557 0.0331724174 0.128454149
v 0.007646756 0.0330724157 0.129154146
v 0.00664675562 0.0330724157 0.127754152
v 0.00664675562 0.03327242 0.127754152
v 0.007646756 0.03327242 0.129154146
v 0.00569675537 0.0329906158 0.129252478
v 0.003746756 0.0329906158 0.129252478
v 0.003746756 0.0330092274 0.129247129
v 0.003746756 0.032972414 0.129254147
v 0.007646756 0.032972414 0.129254147
v 0.007646756 0.0329906158 0.129252478
v 0.00569675537 0.0330092274 0.129247129
v 0.003746756 0.03302714 0.129237846
v 0.007646756 0.0330092274 0.129247129
v 0.00569675537 0.03302714 0.129237846
v 0.003746756 0.0330431275 0.129224852
v 0.007646756 0.03302714 0.129237846
v 0.00569675537 0.0330431275 0.129224852
v 0.003746756 0.0330561139 0.129208863
v 0.007646756 0.0330431275 0.129224852
v 0.00569675537 0.0330561139 0.129208863
v 0.003746756 0.0330653973 0.129190952
v 0.007646756 0.0330561139 0.129208863
v 0.00569675537 0.0330653973 0.129190952
v 0.003746756 0.0330707468 0.12917234
v 0.007646756 0.0330653973 0.129190952
v 0.00569675537 0.0330707468 0.12917234
v 0.003746756 0.0330724157 0.129154146
v 0.007646756 0.0330707468 0.12917234
v 0.007646756 0.0330724157 0.129154146
v 0.00569675537 0.0332674123 0.129208744
v 0.003746756 0.0332674123 0.129208744
v 0.003746756 0.0332513563 0.129264578
v 0.003746756 0.03327242 0.129154146
v 0.007646756 0.03327242 0.129154146
v 0.007646756 0.0332674049 0.129208744
v 0.00569675537 0.0332513563 0.129264578
v 0.003746756 0.0332235135 0.129318312
v 0.007646756 0.0332513563 0.129264578
v 0.00569675537 0.0332235135 0.129318312
v 0.003746756 0.033184547 0.129366279
v 0.007646756 0.0332235135 0.129318312
v 0.00569675537 0.033184547 0.129366279
v 0.003746756 0.03313658 0.129405245
v 0.007646756 0.033184547 0.129366279
v 0.00569675537 0.03313658 0.129405245
v 0.003746756 0.0330828466 0.129433081
v 0.007646756 0.03313658 0.129405245
v 0.00569675537 0.0330828466 0.129433081
v 0.003746756 0.0330270045 0.129449144
v 0.007646756 0.0330828466 0.129433081
v 0.00569675537 0.0330270045 0.129449144
v 0.003746756 0.032972414 0.129454151
v 0.007646756 0.0330270045 0.129449144
v 0.007646756 0.032972414 0.129454151
v 0.007646756 0.0307724141 0.129354149
v 0.007646756 0.032972414 0.129454151
v 0.007646755 0.0285724141 0.129454151
v 0.007646755 0.0285724141 0.129254147
v 0.007646756 0.032972414 0.129254147
v 0.003746756 0.0307724141 0.129354149
v 0.003746755 0.0285724141 0.129254147
v 0.003746755 0.0285724141 0.129454151
v 0.003746756 0.032972414 0.129454151
v 0.003746756 0.032972414 0.129254147
v 0.00569675537 0.0285724141 0.129454151
v 0.00590601237 0.029341612 0.129454151
v 0.00569675537 0.02932242 0.129454151
v 0.00548749836 0.029341612 0.129454151
v 0.006120064 0.0294031613 0.129454151
v 0.005273447 0.0294031613 0.129454151
v 0.007096755 0.0285724141 0.129454151
v 0.00632604631 0.0295098685 0.129454151
v 0.0065099285 0.0296592452 0.129454151
v 0.00665930053 0.0298431255 0.129454151
v 0.0067660124 0.0300491042 0.129454151
v 0.007096755 0.02757242 0.129454151
v 0.004296755 0.02757242 0.129454151
v 0.007646755 0.0285724141 0.129454151
v 0.006827557 0.03026316 0.129454151
v 0.00684675528 0.0304724164 0.129454151
v 0.007646756 0.032972414 0.129454151
v 0.006827557 0.0306816734 0.129454151
v 0.0067660124 0.0308957286 0.129454151
v 0.004296755 0.0285724141 0.129454151
v 0.00665930053 0.0311017074 0.129454151
v 0.0065099285 0.0312855877 0.129454151
v 0.00506746443 0.0295098685 0.129454151
v 0.00632604631 0.0314349644 0.129454151
v 0.00488358224 0.0296592452 0.129454151
v 0.00473421 0.0298431255 0.129454151
v 0.00462749833 0.0300491042 0.129454151
v 0.006120064 0.03154167 0.129454151
v 0.00590601237 0.03160322 0.129454151
v 0.00569675537 0.0316224135 0.129454151
v 0.003746756 0.032972414 0.129454151
v 0.00548749836 0.03160322 0.129454151
v 0.005273447 0.03154167 0.129454151
v 0.003746755 0.0285724141 0.129454151
v 0.00456595374 0.03026316 0.129454151
v 0.00454675453 0.0304724164 0.129454151
v 0.00506746443 0.0314349644 0.129454151
v 0.00456595374 0.0306816734 0.129454151
v 0.00488358224 0.0312855877 0.129454151
v 0.00462749833 0.0308957286 0.129454151
v 0.00473421 0.0311017074 0.129454151
v 0.00569675537 0.02932242 0.129254147
v 0.00590601237 0.029341612 0.129254147
v 0.00569675537 0.0285724141 0.129254147
v 0.00548749836 0.029341612 0.129254147
v 0.006120064 0.0294031613 0.129254147
v 0.005273447 0.0294031613 0.129254147
v 0.007096755 0.0285724141 0.129254147
v 0.00632604631 0.0295098685 0.129254147
v 0.0065099285 0.0296592452 0.129254147
v 0.00665930053 0.0298431255 0.129254147
v 0.0067660124 0.0300491042 0.129254147
v 0.007096755 0.02757242 0.129254147
v 0.004296755 0.02757242 0.129254147
v 0.007646755 0.0285724141 0.129254147
v 0.006827557 0.03026316 0.129254147
v 0.00684675528 0.0304724164 0.129254147
v 0.007646756 0.032972414 0.129254147
v 0.006827557 0.0306816734 0.129254147
v 0.0067660124 0.0308957286 0.129254147
v 0.004296755 0.0285724141 0.129254147
v 0.00665930053 0.0311017074 0.129254147
v 0.0065099285 0.0312855877 0.129254147
v 0.00506746443 0.0295098685 0.129254147
v 0.00632604631 0.0314349644 0.129254147
v 0.00488358224 0.0296592452 0.129254147
v 0.00473421 0.0298431255 0.129254147
v 0.00462749833 0.0300491042 0.129254147
v 0.006120064 0.03154167 0.129254147
v 0.00590601237 0.03160322 0.129254147
v 0.00569675537 0.0316224135 0.129254147
v 0.003746756 0.032972414 0.129254147
v 0.00548749836 0.03160322 0.129254147
v 0.005273447 0.03154167 0.129254147
v 0.003746755 0.0285724141 0.129254147
v 0.00456595374 0.03026316 0.129254147
v 0.00454675453 0.0304724164 0.129254147
v 0.00506746443 0.0314349644 0.129254147
v 0.00456595374 0.0306816734 0.129254147
v 0.00488358224 0.0312855877 0.129254147
v 0.00462749833 0.0308957286 0.129254147
v 0.00473421 0.0311017074 0.129254147
v 0.007371756 0.0285724141 0.129354149
v 0.007096755 0.0285724141 0.129254147
v 0.007646755 0.0285724141 0.129254147
v 0.007646755 0.0285724141 0.129454151
v 0.007096755 0.0285724141 0.129454151
v 0.004021755 0.0285724141 0.129354149
v 0.004296755 0.0285724141 0.129254147
v 0.004296755 0.0285724141 0.129454151
v 0.003746755 0.0285724141 0.129454151
v 0.003746755 0.0285724141 0.129254147
v 0.007096755 0.0280724131 0.129354149
v 0.007096755 0.02757242 0.129254147
v 0.007096755 0.0285724141 0.129254147
v 0.007096755 0.0285724141 0.129454151
v 0.007096755 0.02757242 0.129454151
v 0.004296755 0.02757242 0.129254147
v 0.00569675537 0.02757242 0.129354149
v 0.004296755 0.02757242 0.129454151
v 0.007096755 0.02757242 0.129254147
v 0.007096755 0.02757242 0.129454151
v 0.00664675562 0.0330224149 0.127667546
v 0.00569675537 0.0330428071 0.127683118
v 0.004746755 0.0330224149 0.127667546
v 0.00664675562 0.0330428071 0.127683118
v 0.004746756 0.0330428071 0.127683118
v 0.00664675562 0.0330515765 0.127693042
v 0.00569675537 0.0330515765 0.127693042
v 0.004746756 0.0330515765 0.127693042
v 0.00664675562 0.03305902 0.127704144
v 0.00569675537 0.03305902 0.127704144
v 0.004746755 0.03305902 0.127704144
v 0.00664675562 0.033064913 0.127716139
v 0.00569675537 0.033064913 0.127716139
v 0.004746755 0.033064913 0.127716139
v 0.00664675562 0.03306913 0.1277287
v 0.00569675537 0.03306913 0.1277287
v 0.004746755 0.03306913 0.1277287
v 0.00664675562 0.0330724157 0.127754152
v 0.004746755 0.0330724157 0.127754152
v 0.004746755 0.0331224166 0.127494335
v 0.00569675537 0.03318358 0.12754105
v 0.00664675562 0.0331224166 0.127494335
v 0.004746755 0.03318358 0.12754105
v 0.00664675562 0.03318358 0.12754105
v 0.004746755 0.0332098939 0.127570838
v 0.00569675537 0.0332098939 0.127570838
v 0.00664675562 0.0332098939 0.127570838
v 0.004746756 0.0332322232 0.127604142
v 0.00569675537 0.0332322232 0.127604142
v 0.00664675562 0.0332322232 0.127604142
v 0.004746756 0.03324991 0.127640143
v 0.00569675537 0.03324991 0.127640143
v 0.00664675562 0.03324991 0.127640143
v 0.004746755 0.0332625471 0.127677828
v 0.00569675537 0.0332625471 0.127677828
v 0.00664675562 0.0332625471 0.127677828
v 0.004746756 0.03327242 0.127754152
v 0.00664675562 0.03327242 0.127754152
v 0.00664675562 0.0323595 0.127169341
v 0.00664675562 0.0316965841 0.126671135
v 0.00664675562 0.0331224166 0.127494335
v 0.00664675562 0.0330224149 0.127667546
v 0.00664675562 0.0315965824 0.126844347
v 0.00569675537 0.0323095 0.127255946
v 0.004746755 0.0330224149 0.127667546
v 0.004746755 0.0315965824 0.126844347
v 0.00664675562 0.0315965824 0.126844347
v 0.00664675562 0.0330224149 0.127667546
v 0.004746756 0.0323595 0.127169341
v 0.004746755 0.0331224166 0.127494335
v 0.004746755 0.0316965841 0.126671135
v 0.004746755 0.0315965824 0.126844347
v 0.004746755 0.0330224149 0.127667546
v 0.00569675537 0.0324095 0.127082735
v 0.004746755 0.0316965841 0.126671135
v 0.004746755 0.0331224166 0.127494335
v 0.00664675562 0.0331224166 0.127494335
v 0.00664675562 0.0316965841 0.126671135
v 0.004746755 0.0316965841 0.126671135
v 0.00664675562 0.0316965841 0.126671135
v 0.00569675537 0.031661544 0.12665385
v 0.004746755 0.03162423 0.126641169
v 0.00664675562 0.03162423 0.126641169
v 0.00569675537 0.03162423 0.126641169
v 0.00569675537 0.03158557 0.12663348
v 0.004746755 0.03154658 0.126630947
v 0.00664675562 0.03154658 0.126630947
v 0.004746755 0.03154658 0.126830935
v 0.004746755 0.0316215865 0.126737639
v 0.004746755 0.03154658 0.126630947
v 0.004746756 0.0315595828 0.126831785
v 0.004746755 0.03162423 0.126641169
v 0.004746755 0.0315724649 0.126834348
v 0.004746755 0.0316965841 0.126671135
v 0.004746756 0.0315849073 0.12683858
v 0.004746755 0.0315965824 0.126844347
v 0.004746755 0.03154658 0.126830935
v 0.00664675562 0.03154658 0.126830935
v 0.00569675537 0.0315595828 0.126831785
v 0.004746756 0.0315595828 0.126831785
v 0.00664675562 0.0315724649 0.126834348
v 0.00569675537 0.0315724649 0.126834348
v 0.004746755 0.0315724649 0.126834348
v 0.00569675537 0.0315849073 0.12683858
v 0.00664675562 0.0315965824 0.126844347
v 0.004746756 0.0315849073 0.12683858
v 0.004746755 0.0315965824 0.126844347
v 0.00664675562 0.0316215865 0.126737639
v 0.00664675562 0.03154658 0.126830935
v 0.00664675562 0.03154658 0.126630947
v 0.00664675562 0.03162423 0.126641169
v 0.00664675562 0.0315724649 0.126834348
v 0.00664675562 0.0316965841 0.126671135
v 0.00664675562 0.0315965824 0.126844347
v 0.00569675537 0.0304599814 0.126630947
v 0.004746755 0.0293733813 0.126630947
v 0.004746755 0.03154658 0.126630947
v 0.00664675562 0.03154658 0.126630947
v 0.00664675562 0.0293733813 0.126630947
v 0.004746755 0.0304599814 0.126730949
v 0.004746755 0.03154658 0.126830935
v 0.004746755 0.03154658 0.126630947
v 0.004746755 0.0293733813 0.126630947
v 0.004746755 0.0293733813 0.126830935
v 0.00569675537 0.0304599814 0.126830935
v 0.00664675562 0.03154658 0.126830935
v 0.004746755 0.03154658 0.126830935
v 0.004746755 0.0293733813 0.126830935
v 0.00664675562 0.0293733813 0.126830935
v 0.00664675562 0.0293733813 0.126630947
v 0.00664675562 0.0304599814 0.126730949
v 0.00664675562 0.0293733813 0.126830935
v 0.00664675562 0.03154658 0.126630947
v 0.00664675562 0.03154658 0.126830935
v 0.004296755 0.0285724141 0.129454151
v 0.004296755 0.0280724131 0.129354149
v 0.004296755 0.02757242 0.129454151
v 0.004296755 0.0285724141 0.129254147
v 0.004296755 0.02757242 0.129254147
v 0.00664675562 0.0293733813 0.126830935
v 0.00569675537 0.0293733813 0.126730949
v 0.00664675562 0.0293733813 0.126630947
v 0.004746755 0.0293733813 0.126830935
v 0.004746755 0.0293733813 0.126630947
f 1 2 3
f 4 1 3
f 5 1 4
f 6 5 4
f 5 7 1
f 5 6 8
f 7 5 9
f 5 8 10
f 5 11 9
f 12 5 10
f 5 13 11
f 5 12 14
f 13 5 15
f 5 14 15
f 16 17 18
f 17 19 18
f 17 20 19
f 20 17 21
f 20 22 19
f 20 21 23
f 20 24 22
f 25 20 23
f 24 20 26
f 20 25 27
f 20 28 26
f 20 27 29
f 20 30 28
f 30 20 29
f 31 32 33
f 34 31 33
f 31 34 35
f 34 33 36
f 34 37 35
f 38 34 36
f 34 38 37
f 36 39 38
f 38 40 37
f 39 41 38
f 38 41 40
f 39 42 41
f 42 40 41
f 39 43 42
f 42 44 40
f 43 45 42
f 44 42 45
f 43 46 45
f 46 44 45
f 46 43 47
f 46 48 44
f 46 47 49
f 48 46 49
f 50 49 47
f 48 49 50
f 50 47 51
f 52 48 50
f 53 50 51
f 52 50 53
f 53 51 54
f 55 53 54
f 56 52 53
f 56 53 55
f 55 54 57
f 58 56 55
f 59 55 57
f 60 58 55
f 61 55 59
f 60 55 61
f 62 61 59
f 63 60 61
f 64 61 62
f 64 63 61
f 65 64 62
f 64 65 63
f 65 62 66
f 65 67 63
f 68 65 66
f 65 68 67
f 68 66 69
f 68 70 67
f 71 68 69
f 68 71 70
f 71 69 72
f 71 73 70
f 74 71 72
f 71 74 73
f 74 72 75
f 74 76 73
f 77 74 75
f 74 77 76
f 77 75 78
f 77 79 76
f 80 77 78
f 77 80 79
f 80 78 81
f 79 80 82
f 80 81 82
f 81 83 82
f 83 84 82
f 82 84 85
f 83 86 84
f 84 87 85
f 86 88 84
f 84 88 87
f 86 89 88
f 88 90 87
f 89 91 88
f 88 91 90
f 89 92 91
f 92 90 91
f 92 89 93
f 92 94 90
f 92 93 95
f 94 92 95
f 93 96 95
f 94 95 96
f 96 93 97
f 98 94 96
f 96 97 99
f 98 96 99
f 100 99 97
f 98 99 100
f 100 97 101
f 102 98 100
f 103 100 101
f 100 103 102
f 103 101 104
f 105 103 104
f 103 106 102
f 103 105 106
f 105 104 107
f 105 108 106
f 105 107 109
f 105 110 108
f 111 105 109
f 105 111 110
f 111 109 112
f 111 113 110
f 114 111 112
f 111 114 113
f 114 112 115
f 114 115 113
f 112 116 115
f 117 113 115
f 116 118 115
f 117 115 118
f 116 119 118
f 120 117 118
f 119 121 118
f 120 118 121
f 119 122 121
f 123 120 121
f 122 124 121
f 123 121 124
f 122 125 124
f 126 123 124
f 125 127 124
f 126 124 127
f 125 128 127
f 129 126 127
f 128 130 127
f 129 127 130
f 128 131 130
f 132 129 130
f 131 132 130
f 133 134 135
f 134 136 135
f 134 137 136
f 137 134 138
f 137 138 139
f 140 137 139
f 139 138 141
f 140 139 142
f 143 139 141
f 139 144 142
f 139 143 145
f 139 145 146
f 139 147 144
f 147 139 146
f 147 146 148
f 149 147 148
f 149 148 150
f 151 149 150
f 152 153 154
f 153 155 154
f 155 156 154
f 156 157 154
f 156 158 157
f 159 158 156
f 158 160 157
f 158 159 161
f 158 162 160
f 158 161 163
f 162 158 164
f 158 165 164
f 166 158 163
f 158 166 165
f 166 167 165
f 166 168 167
f 168 169 167
f 169 170 167
f 171 172 173
f 171 173 174
f 172 171 175
f 175 171 174
f 176 177 178
f 176 178 179
f 177 176 180
f 180 176 179
f 181 182 183
f 181 183 184
f 182 181 185
f 185 181 184
f 186 187 188
f 186 188 189
f 187 186 190
f 190 186 189
f 191 192 193
f 191 194 192
f 194 191 195
f 191 196 195
f 197 191 193
f 191 197 196
f 197 193 198
f 197 199 196
f 200 197 198
f 197 200 199
f 200 198 201
f 200 202 199
f 203 200 201
f 200 203 202
f 203 201 204
f 203 205 202
f 206 203 204
f 203 206 205
f 206 204 207
f 206 208 205
f 209 206 207
f 206 209 208
f 209 207 210
f 209 211 208
f 212 209 210
f 209 212 211
f 212 210 213
f 212 214 211
f 215 212 213
f 212 215 214
f 216 217 218
f 216 219 217
f 219 216 220
f 216 221 220
f 222 216 218
f 216 222 221
f 222 218 223
f 222 224 221
f 225 222 223
f 222 225 224
f 225 223 226
f 225 227 224
f 228 225 226
f 225 228 227
f 228 226 229
f 228 230 227
f 231 228 229
f 228 231 230
f 231 229 232
f 231 233 230
f 234 231 232
f 231 234 233
f 234 232 235
f 234 236 233
f 237 234 235
f 234 237 236
f 237 235 238
f 237 239 236
f 240 237 238
f 237 240 239
f 241 242 243
f 241 243 244
f 242 241 245
f 245 241 244
f 246 247 248
f 246 248 249
f 247 246 250
f 250 246 249
f 251 252 253
f 251 253 254
f 252 251 255
f 256 251 254
f 257 255 251
f 257 258 255
f 259 258 257
f 260 259 257
f 261 260 257
f 262 257 251
f 262 251 263
f 261 257 264
f 265 261 264
f 266 265 264
f 266 264 267
f 268 266 267
f 269 268 267
f 251 270 263
f 271 269 267
f 251 256 270
f 272 271 267
f 256 273 270
f 274 272 267
f 273 275 270
f 275 276 270
f 276 277 270
f 278 274 267
f 279 278 267
f 280 279 267
f 280 267 281
f 282 280 281
f 283 282 281
f 277 284 270
f 277 285 284
f 285 286 284
f 286 281 284
f 287 283 281
f 286 288 281
f 289 287 281
f 288 290 281
f 291 289 281
f 290 291 281
f 292 293 294
f 295 292 294
f 293 296 294
f 297 295 294
f 294 296 298
f 296 299 298
f 299 300 298
f 300 301 298
f 301 302 298
f 294 298 303
f 304 294 303
f 302 305 298
f 302 306 305
f 306 307 305
f 307 308 305
f 307 309 308
f 309 310 308
f 311 294 304
f 310 312 308
f 297 294 311
f 312 313 308
f 314 297 311
f 313 315 308
f 316 314 311
f 317 316 311
f 318 317 311
f 315 319 308
f 319 320 308
f 320 321 308
f 321 322 308
f 321 323 322
f 323 324 322
f 318 311 325
f 326 318 325
f 327 326 325
f 327 325 322
f 324 328 322
f 329 327 322
f 328 330 322
f 331 329 322
f 330 332 322
f 332 331 322
f 333 334 335
f 333 335 336
f 334 333 337
f 337 333 336
f 338 339 340
f 341 338 340
f 338 342 339
f 342 338 341
f 343 344 345
f 343 345 346
f 344 343 347
f 347 343 346
f 348 349 350
f 351 349 348
f 349 352 350
f 349 351 352
f 353 354 355
f 354 353 356
f 354 357 355
f 354 356 358
f 354 359 357
f 359 354 358
f 359 360 357
f 359 358 361
f 359 362 360
f 362 359 361
f 362 363 360
f 362 361 364
f 362 365 363
f 365 362 364
f 365 366 363
f 365 364 367
f 365 368 366
f 368 365 367
f 368 369 366
f 368 367 370
f 368 371 369
f 371 368 370
f 372 373 374
f 373 372 375
f 373 376 374
f 373 375 377
f 373 378 376
f 378 373 377
f 378 379 376
f 378 377 380
f 378 381 379
f 381 378 380
f 381 382 379
f 381 380 383
f 381 384 382
f 384 381 383
f 384 385 382
f 384 383 386
f 384 387 385
f 387 384 386
f 387 388 385
f 387 386 389
f 387 390 388
f 390 387 389
f 391 392 393
f 391 393 394
f 392 391 395
f 395 391 394
f 396 397 398
f 399 396 398
f 396 400 397
f 400 396 399
f 401 402 403
f 404 401 403
f 401 405 402
f 405 401 404
f 406 407 408
f 406 408 409
f 407 406 410
f 410 406 409
f 411 412 413
f 414 411 413
f 412 415 413
f 416 414 413
f 416 413 415
f 416 417 414
f 417 416 415
f 417 418 414
f 417 415 419
f 418 417 419
f 420 421 422
f 421 420 423
f 421 424 422
f 421 423 425
f 424 421 426
f 427 421 425
f 421 428 426
f 421 427 428
f 429 430 431
f 432 429 431
f 430 433 431
f 434 432 431
f 434 431 433
f 432 434 435
f 436 434 433
f 434 436 435
f 436 433 437
f 435 436 438
f 439 436 437
f 436 439 438
f 440 441 442
f 443 440 442
f 440 444 441
f 440 443 445
f 444 440 446
f 440 445 446
f 447 448 449
f 447 449 450
f 448 447 451
f 451 447 450
f 452 453 454
f 452 454 455
f 453 452 456
f 456 452 455
f 457 458 459
f 457 459 460
f 458 457 461
f 461 457 460
f 462 463 464
f 465 463 462
f 463 466 464
f 463 465 466
f 467 468 469
f 470 468 467
f 468 471 469
f 468 470 471
f 472 473 474
f 475 473 472
f 473 476 474
f 473 475 476
