# ROS coordinates: X forward, Y left, Z up; units are metres.
o mesh
v -0.09712926 0.0395 0.0260705911
v -0.0972643346 0.0395 0.02564163
v -0.09712926 0.041 0.0260705911
v -0.0972643346 0.041 0.02564163
v -0.0973879248 0.0402500033 0.02533497
v -0.09744388 0.0395 0.0252128374
v -0.09744388 0.041 0.0252128374
v -0.09766956 0.0395 0.0247906968
v -0.09766956 0.041 0.0247906968
v -0.09778054 0.0402500033 0.0246135555
v -0.0979417861 0.0395 0.0243822858
v -0.0979417861 0.041 0.0243822858
v -0.09802802 0.0402500033 0.0242691487
v -0.09825959 0.0395 0.0239949841
v -0.09825959 0.041 0.0239949841
v -0.0983085856 0.0402500033 0.02394181
v -0.0986204445 0.0395 0.0236361325
v -0.0986204445 0.041 0.0236361325
v -0.0986204445 0.0402500033 0.0236361325
v -0.09896098 0.0402500033 0.0233564414
v -0.0990202948 0.0395 0.023312632
v -0.0990202948 0.041 0.023312632
v -0.09932678 0.0402500033 0.0231066
v -0.0994536355 0.0395 0.0230305344
v -0.0994536355 0.041 0.0230305344
v -0.0997137651 0.0402500033 0.0228898562
v -0.09991379 0.0395 0.0227947012
v -0.09991379 0.041 0.0227947012
v -0.10011737 0.0402500033 0.02270869
v -0.100393236 0.0395 0.0226085167
v -0.100393236 0.041 0.0226085167
v -0.100532651 0.0402500033 0.022564726
v -0.100883976 0.0395 0.0224737339
v -0.100883976 0.041 0.0224737339
v -0.10095454 0.0402500033 0.0224587023
v -0.101378009 0.0395 0.02239045
v -0.101378009 0.041 0.02239045
v -0.101378009 0.0402500033 0.02239045
v -0.1018677 0.0395 0.0223572012
v -0.1018677 0.041 0.0223572012
v -0.102210984 0.0402500033 0.02236258
v -0.102346174 0.0395 0.0223711785
v -0.102346174 0.041 0.0223711785
v -0.102742836 0.0402500033 0.02241782
v -0.1028075 0.0395 0.0224284865
v -0.103246868 0.0402500033 0.0225244686
v -0.1028075 0.041 0.0224284865
v -0.103246868 0.0395 0.0225244686
v -0.103246868 0.041 0.0225244686
v -0.103675827 0.0395 0.0226595458
v -0.103675827 0.041 0.0226595458
v -0.103737235 0.0402500033 0.02268242
v -0.104104616 0.0395 0.0228390936
v -0.104104616 0.041 0.0228390936
v -0.1042262 0.0402500033 0.0228988212
v -0.104526758 0.0395 0.0230647661
v -0.104526758 0.041 0.0230647661
v -0.1047039 0.0402500033 0.02317576
v -0.104935177 0.0395 0.0233369973
v -0.104935177 0.041 0.0233369973
v -0.105159543 0.0402500033 0.0235131457
v -0.105322465 0.0395 0.0236548
v -0.105322465 0.041 0.0236548
v -0.105582111 0.0402500033 0.02390837
v -0.105681315 0.0395 0.0240156539
v -0.105681315 0.041 0.0240156539
v -0.10596101 0.0402500033 0.0243561864
v -0.106004819 0.0395 0.0244154986
v -0.106286921 0.0402500033 0.024848843
v -0.106004819 0.041 0.0244154986
v -0.106286921 0.0395 0.024848843
v -0.106286921 0.041 0.024848843
v -0.106522754 0.0395 0.0253090058
v -0.106522754 0.041 0.0253090058
v -0.106552452 0.0402500033 0.0253765
v -0.106708936 0.0395 0.0257884488
v -0.106708936 0.041 0.0257884488
v -0.106752731 0.0402500033 0.02592786
v -0.106843725 0.0395 0.026279185
v -0.106843725 0.041 0.026279185
v -0.106885664 0.0402500033 0.0264909659
v -0.106927 0.0395 0.0267732143
v -0.106927 0.041 0.0267732143
v -0.106951974 0.0402500033 0.0270540342
v -0.106960252 0.0395 0.0272629131
v -0.106960252 0.041 0.0272629131
v -0.106954873 0.0402500033 0.0276061911
v -0.106946275 0.0395 0.0277413838
v -0.106946275 0.041 0.0277413838
v -0.106899634 0.0402500033 0.0281380471
v -0.106888965 0.0395 0.0282027032
v -0.106888965 0.041 0.0282027032
v -0.106792979 0.0395 0.02864207
v -0.106792979 0.041 0.02864207
v -0.106657907 0.0395 0.029071033
v -0.106657907 0.041 0.029071033
v -0.106534317 0.0402500033 0.0293776952
v -0.106478363 0.0395 0.029499827
v -0.106478363 0.041 0.029499827
v -0.106252685 0.0395 0.0299219638
v -0.106252685 0.041 0.0299219638
v -0.1061417 0.0402500033 0.030099107
v -0.105980456 0.0395 0.0303303786
v -0.105980456 0.041 0.0303303786
v -0.105894223 0.0402500033 0.0304435156
v -0.105662651 0.0395 0.03071768
v -0.105662651 0.041 0.03071768
v -0.105613656 0.0402500033 0.0307708532
v -0.1053018 0.0395 0.03107653
v -0.1053018 0.041 0.03107653
v -0.1053018 0.0402500033 0.03107653
v -0.104961261 0.0402500033 0.0313562229
v -0.104901955 0.0395 0.0314000323
v -0.104901955 0.041 0.0314000323
v -0.104595467 0.0402500033 0.0316060632
v -0.104468606 0.0395 0.0316821262
v -0.104468606 0.041 0.0316821262
v -0.104208477 0.0402500033 0.0318228044
v -0.104008451 0.0395 0.03191796
v -0.104008451 0.041 0.03191796
v -0.103804871 0.0402500033 0.0320039727
v -0.103529014 0.0395 0.0321041457
v -0.103529014 0.041 0.0321041457
v -0.103389591 0.0402500033 0.0321479365
v -0.103038266 0.0395 0.0322389267
v -0.103038266 0.041 0.0322389267
v -0.102967709 0.0402500033 0.032253962
v -0.102544241 0.0395 0.0323222131
v -0.102544241 0.041 0.0323222131
v -0.102544241 0.0402500033 0.0323222131
v -0.102054544 0.0395 0.0323554575
v -0.102054544 0.041 0.0323554575
v -0.101711258 0.0402500033 0.032350082
v -0.101576068 0.0395 0.032341484
v -0.101576068 0.041 0.032341484
v -0.101179406 0.0402500033 0.0322948433
v -0.101114742 0.0395 0.0322841778
v -0.100675382 0.0402500033 0.032188192
v -0.101114742 0.041 0.0322841778
v -0.100675382 0.0395 0.032188192
v -0.100675382 0.041 0.032188192
v -0.100246429 0.0395 0.0320531167
v -0.100246429 0.041 0.0320531167
v -0.100185007 0.0402500033 0.03203024
v -0.0998176262 0.0395 0.03187357
v -0.0998176262 0.041 0.03187357
v -0.09969604 0.0402500033 0.0318138376
v -0.0993954837 0.0395 0.0316479
v -0.0993954837 0.041 0.0316479
v -0.0992183462 0.0402500033 0.0315369
v -0.09898708 0.0395 0.0313756652
v -0.09898708 0.041 0.0313756652
v -0.0987627 0.0402500033 0.0311995186
v -0.09859978 0.0395 0.03105786
v -0.09859978 0.041 0.03105786
v -0.09834014 0.0402500033 0.0308042951
v -0.09824093 0.0395 0.0306970086
v -0.09824093 0.041 0.0306970086
v -0.09796123 0.0402500033 0.0303564779
v -0.09791742 0.0395 0.0302971639
v -0.09763533 0.0402500033 0.02986382
v -0.09791742 0.041 0.0302971639
v -0.09763533 0.0395 0.02986382
v -0.09763533 0.041 0.02986382
v -0.0973994955 0.0395 0.0294036567
v -0.0973994955 0.041 0.0294036567
v -0.097369805 0.0402500033 0.0293361619
v -0.09721331 0.0395 0.0289242137
v -0.09721331 0.041 0.0289242137
v -0.09716952 0.0402500033 0.028784804
v -0.09707853 0.0395 0.0284334756
v -0.09707853 0.041 0.0284334756
v -0.09703658 0.0402500033 0.0282216966
v -0.09699524 0.0395 0.02793945
v -0.09699524 0.041 0.02793945
v -0.09697027 0.0402500033 0.0276586264
v -0.096962 0.0395 0.02744975
v -0.096962 0.041 0.02744975
v -0.09696737 0.0402500033 0.0271064714
v -0.0969759747 0.0395 0.0269712768
v -0.0969759747 0.041 0.0269712768
v -0.09702261 0.0402500033 0.0265746154
v -0.09703328 0.0395 0.02650996
v -0.09703328 0.041 0.02650996
v -0.09712926 0.0395 0.0260705911
v -0.09712926 0.041 0.0260705911
v -0.100366607 0.041 0.0269320384
v -0.100366607 0.0345000029 0.0269320384
v -0.100316025 0.0345000029 0.0272292625
v -0.100313187 0.037750002 0.0272738766
v -0.100316025 0.041 0.0272292625
v -0.100322381 0.0345000029 0.02754876
v -0.100322381 0.041 0.02754876
v -0.100336015 0.037750002 0.0276419
v -0.100394338 0.0345000029 0.0278737321
v -0.100394338 0.041 0.0278737321
v -0.100445978 0.037750002 0.0280096754
v -0.10053362 0.0345000029 0.028183803
v -0.10053362 0.041 0.028183803
v -0.100641161 0.037750002 0.0283463821
v -0.100733459 0.0345000029 0.0284587555
v -0.100733459 0.041 0.0284587555
v -0.100905642 0.037750002 0.028624583
v -0.100979686 0.0345000029 0.0286827125
v -0.100979686 0.041 0.0286827125
v -0.101213641 0.037750002 0.02882731
v -0.10125377 0.0345000029 0.0288470183
v -0.101536825 0.037750002 0.028950844
v -0.10125377 0.041 0.0288470183
v -0.101536825 0.0345000029 0.028950844
v -0.101536825 0.041 0.028950844
v -0.101834051 0.0345000029 0.0290014315
v -0.101834051 0.041 0.0290014315
v -0.101878673 0.037750002 0.02900427
v -0.102153555 0.0345000029 0.0289950725
v -0.102153555 0.041 0.0289950725
v -0.102153555 0.037750002 0.0289950725
v -0.102432519 0.037750002 0.0289375614
v -0.102478527 0.0345000029 0.02892311
v -0.102478527 0.041 0.02892311
v -0.102702744 0.037750002 0.0288302675
v -0.10278859 0.0345000029 0.0287838448
v -0.10278859 0.041 0.0287838448
v -0.102951169 0.037750002 0.0286762957
v -0.103063546 0.0345000029 0.028584
v -0.103063546 0.041 0.028584
v -0.103166461 0.037750002 0.0284831226
v -0.1032875 0.0345000029 0.0283377655
v -0.1032875 0.041 0.0283377655
v -0.103340708 0.037750002 0.02826145
v -0.103451818 0.0345000029 0.0280636847
v -0.103451818 0.041 0.0280636847
v -0.103470273 0.037750002 0.0280233826
v -0.103555635 0.0345000029 0.0277806241
v -0.103555635 0.041 0.0277806241
v -0.103606217 0.0345000029 0.0274834018
v -0.103609055 0.037750002 0.027438784
v -0.103606217 0.041 0.0274834018
v -0.103599869 0.0345000029 0.0271639023
v -0.103599869 0.041 0.0271639023
v -0.103586227 0.037750002 0.02707076
v -0.1035279 0.0345000029 0.0268389285
v -0.1035279 0.041 0.0268389285
v -0.103476264 0.037750002 0.0267029889
v -0.103388645 0.0345000029 0.0265288614
v -0.103388645 0.041 0.0265288614
v -0.103281081 0.037750002 0.0263662823
v -0.10318879 0.0345000029 0.0262539089
v -0.10318879 0.041 0.0262539089
v -0.1030166 0.037750002 0.02608808
v -0.102942556 0.0345000029 0.0260299519
v -0.102942556 0.041 0.0260299519
v -0.1027086 0.037750002 0.025885351
v -0.102668472 0.0345000029 0.0258656424
v -0.102385424 0.037750002 0.0257618167
v -0.102668472 0.041 0.0258656424
v -0.102385424 0.0345000029 0.0257618167
v -0.102385424 0.041 0.0257618167
v -0.102088191 0.0345000029 0.0257112309
v -0.102088191 0.041 0.0257112309
v -0.102043584 0.037750002 0.0257083941
v -0.101768687 0.0345000029 0.02571759
v -0.101768687 0.041 0.02571759
v -0.101768687 0.037750002 0.02571759
v -0.10148973 0.037750002 0.025775101
v -0.101443723 0.0345000029 0.0257895533
v -0.101443723 0.041 0.0257895533
v -0.1012195 0.037750002 0.0258823931
v -0.101133659 0.0345000029 0.02592882
v -0.101133659 0.041 0.02592882
v -0.10097108 0.037750002 0.0260363668
v -0.1008587 0.0345000029 0.0261286646
v -0.1008587 0.041 0.0261286646
v -0.100755781 0.037750002 0.026229538
v -0.100634739 0.0345000029 0.026374897
v -0.100634739 0.041 0.026374897
v -0.100581534 0.037750002 0.0264512151
v -0.100470439 0.0345000029 0.0266489778
v -0.100470439 0.041 0.0266489778
v -0.100451969 0.037750002 0.0266892817
v -0.100366607 0.0345000029 0.0269320384
v -0.100366607 0.041 0.0269320384
v -0.09954519 0.0345000029 0.02671346
v -0.09954519 0.0395 0.02671346
v -0.0994685441 0.0395 0.0271638036
v -0.0994642451 0.037 0.0272314027
v -0.0994685441 0.0345000029 0.0271638036
v -0.0994781852 0.0395 0.02764789
v -0.0994781852 0.0345000029 0.02764789
v -0.09949885 0.037 0.0277890153
v -0.09958722 0.0395 0.0281402729
v -0.09958722 0.0345000029 0.0281402729
v -0.0996654555 0.037 0.0283462461
v -0.0997982249 0.0395 0.028610073
v -0.0997982249 0.0345000029 0.028610073
v -0.09996118 0.037 0.028856406
v -0.100101024 0.0395 0.02902667
v -0.100101024 0.0345000029 0.02902667
v -0.100361921 0.037 0.0292779244
v -0.1004741 0.0395 0.0293659978
v -0.1004741 0.0345000029 0.0293659978
v -0.100828573 0.037 0.0295850858
v -0.10088937 0.0395 0.02961495
v -0.101318248 0.037 0.0297722612
v -0.10088937 0.0345000029 0.02961495
v -0.101318248 0.0395 0.0297722612
v -0.101318248 0.0345000029 0.0297722612
v -0.1017686 0.0395 0.0298489071
v -0.1017686 0.0345000029 0.0298489071
v -0.10183619 0.037 0.029853208
v -0.102252677 0.0395 0.0298392735
v -0.102252677 0.0345000029 0.0298392735
v -0.102252677 0.037 0.0298392735
v -0.102675363 0.037 0.0297521334
v -0.102745064 0.0395 0.029730238
v -0.102745064 0.0345000029 0.029730238
v -0.1030848 0.037 0.02958957
v -0.103214867 0.0395 0.02951923
v -0.103214867 0.0345000029 0.02951923
v -0.103461191 0.037 0.0293562766
v -0.103631467 0.0395 0.0292164311
v -0.103631467 0.0345000029 0.0292164311
v -0.103787392 0.037 0.0290635936
v -0.103970796 0.0395 0.0288433544
v -0.103970796 0.0345000029 0.0288433544
v -0.104051396 0.037 0.0287277177
v -0.104219735 0.0395 0.02842808
v -0.104219735 0.0345000029 0.02842808
v -0.104247712 0.037 0.0283670127
v -0.104377054 0.0395 0.0279992
v -0.104377054 0.0345000029 0.0279992
v -0.104453705 0.0395 0.027548857
v -0.104458004 0.037 0.0274812616
v -0.104453705 0.0345000029 0.027548857
v -0.104444064 0.0395 0.0270647723
v -0.104444064 0.0345000029 0.0270647723
v -0.1044234 0.037 0.026923649
v -0.104335025 0.0395 0.0265723877
v -0.104335025 0.0345000029 0.0265723877
v -0.104256786 0.037 0.0263664164
v -0.104124017 0.0395 0.0261025876
v -0.104124017 0.0345000029 0.0261025876
v -0.103961073 0.037 0.0258562565
v -0.103821225 0.0395 0.0256859921
v -0.103821225 0.0345000029 0.0256859921
v -0.103560343 0.037 0.025434738
v -0.103448145 0.0395 0.0253466628
v -0.103448145 0.0345000029 0.0253466628
v -0.103093669 0.037 0.0251275767
v -0.103032872 0.0395 0.025097711
v -0.102603994 0.037 0.0249404013
v -0.103032872 0.0345000029 0.025097711
v -0.102603994 0.0395 0.0249404013
v -0.102603994 0.0345000029 0.0249404013
v -0.102153651 0.0395 0.0248637535
v -0.102153651 0.0345000029 0.0248637535
v -0.102086052 0.037 0.0248594545
v -0.101669565 0.0395 0.02487339
v -0.101669565 0.0345000029 0.02487339
v -0.101669565 0.037 0.02487339
v -0.101246893 0.037 0.0249605272
v -0.101177178 0.0395 0.0249824263
v -0.101177178 0.0345000029 0.0249824263
v -0.100837439 0.037 0.0251230951
v -0.100707382 0.0395 0.0251934323
v -0.100707382 0.0345000029 0.0251934323
v -0.100461051 0.037 0.0253563859
v -0.100290783 0.0395 0.0254962314
v -0.100290783 0.0345000029 0.0254962314
v -0.10013485 0.037 0.0256490689
v -0.09995146 0.0395 0.02586931
v -0.09995146 0.0345000029 0.02586931
v -0.0998708457 0.037 0.0259849448
v -0.09970251 0.0395 0.0262845848
v -0.09970251 0.0345000029 0.0262845848
v -0.09967453 0.037 0.0263456516
v -0.09954519 0.0395 0.02671346
v -0.09954519 0.0345000029 0.02671346
v -0.101536825 0.0345000029 0.028950844
v -0.101318248 0.0345000029 0.0297722612
v -0.1017686 0.0345000029 0.0298489071
v -0.10088937 0.0345000029 0.02961495
v -0.101834051 0.0345000029 0.0290014315
v -0.10125377 0.0345000029 0.0288470183
v -0.102252677 0.0345000029 0.0298392735
v -0.1004741 0.0345000029 0.0293659978
v -0.102153555 0.0345000029 0.0289950725
v -0.100979686 0.0345000029 0.0286827125
v -0.102745064 0.0345000029 0.029730238
v -0.100101024 0.0345000029 0.02902667
v -0.102478527 0.0345000029 0.02892311
v -0.100733459 0.0345000029 0.0284587555
v -0.103214867 0.0345000029 0.02951923
v -0.0997982249 0.0345000029 0.028610073
v -0.10278859 0.0345000029 0.0287838448
v -0.10053362 0.0345000029 0.028183803
v -0.103631467 0.0345000029 0.0292164311
v -0.09958722 0.0345000029 0.0281402729
v -0.103063546 0.0345000029 0.028584
v -0.100394338 0.0345000029 0.0278737321
v -0.103970796 0.0345000029 0.0288433544
v -0.0994781852 0.0345000029 0.02764789
v -0.1032875 0.0345000029 0.0283377655
v -0.100322381 0.0345000029 0.02754876
v -0.104219735 0.0345000029 0.02842808
v -0.0994685441 0.0345000029 0.0271638036
v -0.103451818 0.0345000029 0.0280636847
v -0.100316025 0.0345000029 0.0272292625
v -0.104377054 0.0345000029 0.0279992
v -0.103555635 0.0345000029 0.0277806241
v -0.09954519 0.0345000029 0.02671346
v -0.100366607 0.0345000029 0.0269320384
v -0.100470439 0.0345000029 0.0266489778
v -0.09970251 0.0345000029 0.0262845848
v -0.100634739 0.0345000029 0.026374897
v -0.09995146 0.0345000029 0.02586931
v -0.1008587 0.0345000029 0.0261286646
v -0.100290783 0.0345000029 0.0254962314
v -0.101133659 0.0345000029 0.02592882
v -0.100707382 0.0345000029 0.0251934323
v -0.101443723 0.0345000029 0.0257895533
v -0.101177178 0.0345000029 0.0249824263
v -0.101768687 0.0345000029 0.02571759
v -0.101669565 0.0345000029 0.02487339
v -0.102088191 0.0345000029 0.0257112309
v -0.102153651 0.0345000029 0.0248637535
v -0.102603994 0.0345000029 0.0249404013
v -0.102385424 0.0345000029 0.0257618167
v -0.103032872 0.0345000029 0.025097711
v -0.102668472 0.0345000029 0.0258656424
v -0.103448145 0.0345000029 0.0253466628
v -0.102942556 0.0345000029 0.0260299519
v -0.103821225 0.0345000029 0.0256859921
v -0.10318879 0.0345000029 0.0262539089
v -0.104124017 0.0345000029 0.0261025876
v -0.103388645 0.0345000029 0.0265288614
v -0.104335025 0.0345000029 0.0265723877
v -0.1035279 0.0345000029 0.0268389285
v -0.104444064 0.0345000029 0.0270647723
v -0.103599869 0.0345000029 0.0271639023
v -0.104453705 0.0345000029 0.027548857
v -0.103606217 0.0345000029 0.0274834018
v -0.103451818 0.041 0.0280636847
v -0.106478363 0.041 0.029499827
v -0.106252685 0.041 0.0299219638
v -0.106657907 0.041 0.029071033
v -0.1032875 0.041 0.0283377655
v -0.105980456 0.041 0.0303303786
v -0.105662651 0.041 0.03071768
v -0.103555635 0.041 0.0277806241
v -0.106792979 0.041 0.02864207
v -0.106888965 0.041 0.0282027032
v -0.103063546 0.041 0.028584
v -0.1053018 0.041 0.03107653
v -0.104901955 0.041 0.0314000323
v -0.103606217 0.041 0.0274834018
v -0.106946275 0.041 0.0277413838
v -0.106960252 0.041 0.0272629131
v -0.10278859 0.041 0.0287838448
v -0.104468606 0.041 0.0316821262
v -0.104008451 0.041 0.03191796
v -0.103599869 0.041 0.0271639023
v -0.106927 0.041 0.0267732143
v -0.106843725 0.041 0.026279185
v -0.102478527 0.041 0.02892311
v -0.103529014 0.041 0.0321041457
v -0.103038266 0.041 0.0322389267
v -0.1035279 0.041 0.0268389285
v -0.106708936 0.041 0.0257884488
v -0.106522754 0.041 0.0253090058
v -0.102153555 0.041 0.0289950725
v -0.102544241 0.041 0.0323222131
v -0.102054544 0.041 0.0323554575
v -0.103388645 0.041 0.0265288614
v -0.106286921 0.041 0.024848843
v -0.106004819 0.041 0.0244154986
v -0.101834051 0.041 0.0290014315
v -0.101576068 0.041 0.032341484
v -0.101114742 0.041 0.0322841778
v -0.10318879 0.041 0.0262539089
v -0.105681315 0.041 0.0240156539
v -0.105322465 0.041 0.0236548
v -0.101536825 0.041 0.028950844
v -0.100675382 0.041 0.032188192
v -0.100246429 0.041 0.0320531167
v -0.102942556 0.041 0.0260299519
v -0.104935177 0.041 0.0233369973
v -0.104526758 0.041 0.0230647661
v -0.10125377 0.041 0.0288470183
v -0.0998176262 0.041 0.03187357
v -0.0993954837 0.041 0.0316479
v -0.102668472 0.041 0.0258656424
v -0.104104616 0.041 0.0228390936
v -0.103675827 0.041 0.0226595458
v -0.102385424 0.041 0.0257618167
v -0.100979686 0.041 0.0286827125
v -0.09898708 0.041 0.0313756652
v -0.09859978 0.041 0.03105786
v -0.103246868 0.041 0.0225244686
v -0.100733459 0.041 0.0284587555
v -0.09824093 0.041 0.0306970086
v -0.09791742 0.041 0.0302971639
v -0.1028075 0.041 0.0224284865
v -0.10053362 0.041 0.028183803
v -0.09763533 0.041 0.02986382
v -0.0973994955 0.041 0.0294036567
v -0.102346174 0.041 0.0223711785
v -0.100394338 0.041 0.0278737321
v -0.09721331 0.041 0.0289242137
v -0.09707853 0.041 0.0284334756
v -0.1018677 0.041 0.0223572012
v -0.101378009 0.041 0.02239045
v -0.100883976 0.041 0.0224737339
v -0.102088191 0.041 0.0257112309
v -0.100393236 0.041 0.0226085167
v -0.100322381 0.041 0.02754876
v -0.09699524 0.041 0.02793945
v -0.096962 0.041 0.02744975
v -0.09991379 0.041 0.0227947012
v -0.100316025 0.041 0.0272292625
v -0.0969759747 0.041 0.0269712768
v -0.09703328 0.041 0.02650996
v -0.0994536355 0.041 0.0230305344
v -0.100366607 0.041 0.0269320384
v -0.09712926 0.041 0.0260705911
v -0.0972643346 0.041 0.02564163
v -0.0990202948 0.041 0.023312632
v -0.100470439 0.041 0.0266489778
v -0.09744388 0.041 0.0252128374
v -0.09766956 0.041 0.0247906968
v -0.100634739 0.041 0.026374897
v -0.0986204445 0.041 0.0236361325
v -0.09825959 0.041 0.0239949841
v -0.0979417861 0.041 0.0243822858
v -0.1008587 0.041 0.0261286646
v -0.101768687 0.041 0.02571759
v -0.101133659 0.041 0.02592882
v -0.101443723 0.041 0.0257895533
v -0.104377054 0.0395 0.0279992
v -0.106792979 0.0395 0.02864207
v -0.106888965 0.0395 0.0282027032
v -0.106657907 0.0395 0.029071033
v -0.104453705 0.0395 0.027548857
v -0.106946275 0.0395 0.0277413838
v -0.106960252 0.0395 0.0272629131
v -0.104219735 0.0395 0.02842808
v -0.106478363 0.0395 0.029499827
v -0.106252685 0.0395 0.0299219638
v -0.104444064 0.0395 0.0270647723
v -0.106927 0.0395 0.0267732143
v -0.106843725 0.0395 0.026279185
v -0.103970796 0.0395 0.0288433544
v -0.105980456 0.0395 0.0303303786
v -0.105662651 0.0395 0.03071768
v -0.104335025 0.0395 0.0265723877
v -0.106708936 0.0395 0.0257884488
v -0.106522754 0.0395 0.0253090058
v -0.103631467 0.0395 0.0292164311
v -0.1053018 0.0395 0.03107653
v -0.104901955 0.0395 0.0314000323
v -0.104124017 0.0395 0.0261025876
v -0.106286921 0.0395 0.024848843
v -0.106004819 0.0395 0.0244154986
v -0.103214867 0.0395 0.02951923
v -0.104468606 0.0395 0.0316821262
v -0.104008451 0.0395 0.03191796
v -0.103821225 0.0395 0.0256859921
v -0.105681315 0.0395 0.0240156539
v -0.105322465 0.0395 0.0236548
v -0.102745064 0.0395 0.029730238
v -0.103529014 0.0395 0.0321041457
v -0.103038266 0.0395 0.0322389267
v -0.103448145 0.0395 0.0253466628
v -0.104935177 0.0395 0.0233369973
v -0.104526758 0.0395 0.0230647661
v -0.102252677 0.0395 0.0298392735
v -0.102544241 0.0395 0.0323222131
v -0.102054544 0.0395 0.0323554575
v -0.103032872 0.0395 0.025097711
v -0.104104616 0.0395 0.0228390936
v -0.103675827 0.0395 0.0226595458
v -0.1017686 0.0395 0.0298489071
v -0.101576068 0.0395 0.032341484
v -0.101114742 0.0395 0.0322841778
v -0.102603994 0.0395 0.0249404013
v -0.103246868 0.0395 0.0225244686
v -0.1028075 0.0395 0.0224284865
v -0.101318248 0.0395 0.0297722612
v -0.100675382 0.0395 0.032188192
v -0.100246429 0.0395 0.0320531167
v -0.102153651 0.0395 0.0248637535
v -0.102346174 0.0395 0.0223711785
v -0.1018677 0.0395 0.0223572012
v -0.10088937 0.0395 0.02961495
v -0.0998176262 0.0395 0.03187357
v -0.0993954837 0.0395 0.0316479
v -0.101669565 0.0395 0.02487339
v -0.101378009 0.0395 0.02239045
v -0.100883976 0.0395 0.0224737339
v -0.1004741 0.0395 0.0293659978
v -0.09898708 0.0395 0.0313756652
v -0.09859978 0.0395 0.03105786
v -0.101177178 0.0395 0.0249824263
v -0.100393236 0.0395 0.0226085167
v -0.09991379 0.0395 0.0227947012
v -0.100101024 0.0395 0.02902667
v -0.09824093 0.0395 0.0306970086
v -0.09791742 0.0395 0.0302971639
v -0.100707382 0.0395 0.0251934323
v -0.0994536355 0.0395 0.0230305344
v -0.0990202948 0.0395 0.023312632
v -0.0997982249 0.0395 0.028610073
v -0.09763533 0.0395 0.02986382
v -0.0973994955 0.0395 0.0294036567
v -0.100290783 0.0395 0.0254962314
v -0.0986204445 0.0395 0.0236361325
v -0.09825959 0.0395 0.0239949841
v -0.09958722 0.0395 0.0281402729
v -0.09721331 0.0395 0.0289242137
v -0.09707853 0.0395 0.0284334756
v -0.09995146 0.0395 0.02586931
v -0.0979417861 0.0395 0.0243822858
v -0.09766956 0.0395 0.0247906968
v -0.0994781852 0.0395 0.02764789
v -0.09699524 0.0395 0.02793945
v -0.096962 0.0395 0.02744975
v -0.09970251 0.0395 0.0262845848
v -0.09744388 0.0395 0.0252128374
v -0.0972643346 0.0395 0.02564163
v -0.0994685441 0.0395 0.0271638036
v -0.0969759747 0.0395 0.0269712768
v -0.09703328 0.0395 0.02650996
v -0.09954519 0.0395 0.02671346
v -0.09712926 0.0395 0.0260705911
f 1 2 3
f 2 4 3
f 2 5 4
f 5 2 6
f 5 7 4
f 5 6 8
f 5 9 7
f 10 5 8
f 5 10 9
f 10 8 11
f 10 12 9
f 13 10 11
f 10 13 12
f 13 11 14
f 13 15 12
f 16 13 14
f 13 16 15
f 16 14 17
f 16 18 15
f 16 17 19
f 18 16 19
f 20 19 17
f 18 19 20
f 20 17 21
f 22 18 20
f 23 20 21
f 22 20 23
f 23 21 24
f 25 22 23
f 26 23 24
f 25 23 26
f 26 24 27
f 28 25 26
f 29 26 27
f 28 26 29
f 29 27 30
f 31 28 29
f 32 29 30
f 31 29 32
f 32 30 33
f 34 31 32
f 35 32 33
f 34 32 35
f 35 33 36
f 37 34 35
f 38 35 36
f 37 35 38
f 38 36 39
f 40 37 38
f 41 38 39
f 40 38 41
f 41 39 42
f 43 40 41
f 44 41 42
f 43 41 44
f 44 42 45
f 46 44 45
f 47 43 44
f 47 44 46
f 46 45 48
f 49 47 46
f 46 48 50
f 51 49 46
f 52 46 50
f 51 46 52
f 52 50 53
f 54 51 52
f 55 52 53
f 54 52 55
f 55 53 56
f 57 54 55
f 58 55 56
f 57 55 58
f 58 56 59
f 60 57 58
f 61 58 59
f 60 58 61
f 61 59 62
f 63 60 61
f 64 61 62
f 63 61 64
f 64 62 65
f 66 63 64
f 67 64 65
f 66 64 67
f 67 65 68
f 69 67 68
f 70 66 67
f 70 67 69
f 69 68 71
f 72 70 69
f 69 71 73
f 74 72 69
f 75 69 73
f 74 69 75
f 75 73 76
f 77 74 75
f 78 75 76
f 77 75 78
f 78 76 79
f 80 77 78
f 81 78 79
f 80 78 81
f 81 79 82
f 83 80 81
f 84 81 82
f 83 81 84
f 84 82 85
f 86 83 84
f 87 84 85
f 86 84 87
f 87 85 88
f 89 86 87
f 90 87 88
f 89 87 90
f 90 88 91
f 92 89 90
f 93 90 91
f 92 90 93
f 94 92 93
f 93 95 94
f 95 96 94
f 95 97 96
f 97 95 98
f 97 99 96
f 97 98 100
f 97 101 99
f 102 97 100
f 97 102 101
f 102 100 103
f 102 104 101
f 105 102 103
f 102 105 104
f 105 103 106
f 105 107 104
f 108 105 106
f 105 108 107
f 108 106 109
f 108 110 107
f 111 108 109
f 108 111 110
f 111 109 112
f 111 112 110
f 109 113 112
f 110 112 114
f 113 115 112
f 112 115 114
f 113 116 115
f 114 115 117
f 116 118 115
f 115 118 117
f 116 119 118
f 117 118 120
f 119 121 118
f 118 121 120
f 119 122 121
f 120 121 123
f 122 124 121
f 121 124 123
f 122 125 124
f 123 124 126
f 125 127 124
f 124 127 126
f 125 128 127
f 126 127 129
f 128 130 127
f 127 130 129
f 128 131 130
f 129 130 132
f 131 133 130
f 130 133 132
f 131 134 133
f 132 133 135
f 134 136 133
f 133 136 135
f 134 137 136
f 137 138 136
f 135 136 139
f 136 138 139
f 137 140 138
f 139 138 141
f 140 142 138
f 138 143 141
f 142 144 138
f 138 144 143
f 142 145 144
f 144 146 143
f 145 147 144
f 144 147 146
f 145 148 147
f 147 149 146
f 148 150 147
f 147 150 149
f 148 151 150
f 150 152 149
f 151 153 150
f 150 153 152
f 151 154 153
f 153 155 152
f 154 156 153
f 153 156 155
f 154 157 156
f 156 158 155
f 157 159 156
f 156 159 158
f 157 160 159
f 160 161 159
f 159 162 158
f 159 161 162
f 160 163 161
f 161 164 162
f 163 165 161
f 161 166 164
f 165 167 161
f 161 167 166
f 165 168 167
f 167 169 166
f 168 170 167
f 167 170 169
f 168 171 170
f 170 172 169
f 171 173 170
f 170 173 172
f 171 174 173
f 173 175 172
f 174 176 173
f 173 176 175
f 174 177 176
f 176 178 175
f 177 179 176
f 176 179 178
f 177 180 179
f 179 181 178
f 180 182 179
f 179 182 181
f 180 183 182
f 182 184 181
f 183 185 182
f 185 184 182
f 185 186 184
f 187 188 189
f 187 189 190
f 191 187 190
f 190 189 192
f 193 191 190
f 194 190 192
f 193 190 194
f 194 192 195
f 196 193 194
f 197 194 195
f 196 194 197
f 197 195 198
f 199 196 197
f 200 197 198
f 199 197 200
f 200 198 201
f 202 199 200
f 203 200 201
f 202 200 203
f 203 201 204
f 205 202 203
f 206 203 204
f 205 203 206
f 206 204 207
f 208 206 207
f 209 205 206
f 209 206 208
f 208 207 210
f 211 209 208
f 212 208 210
f 213 211 208
f 214 208 212
f 213 208 214
f 215 214 212
f 216 213 214
f 217 214 215
f 217 216 214
f 218 217 215
f 217 218 216
f 218 215 219
f 218 220 216
f 221 218 219
f 218 221 220
f 221 219 222
f 221 223 220
f 224 221 222
f 221 224 223
f 224 222 225
f 224 226 223
f 227 224 225
f 224 227 226
f 227 225 228
f 227 229 226
f 230 227 228
f 227 230 229
f 230 228 231
f 230 232 229
f 233 230 231
f 230 233 232
f 233 231 234
f 232 233 235
f 233 234 235
f 234 236 235
f 236 237 235
f 235 237 238
f 236 239 237
f 237 240 238
f 239 241 237
f 237 241 240
f 239 242 241
f 241 243 240
f 242 244 241
f 241 244 243
f 242 245 244
f 244 246 243
f 245 247 244
f 244 247 246
f 245 248 247
f 247 249 246
f 248 250 247
f 247 250 249
f 248 251 250
f 250 252 249
f 251 253 250
f 250 253 252
f 251 254 253
f 254 255 253
f 253 256 252
f 253 255 256
f 254 257 255
f 255 258 256
f 257 259 255
f 255 260 258
f 259 261 255
f 255 261 260
f 259 262 261
f 261 263 260
f 262 264 261
f 261 264 263
f 262 265 264
f 265 263 264
f 266 265 262
f 265 267 263
f 268 265 266
f 265 268 267
f 269 268 266
f 268 270 267
f 271 268 269
f 268 271 270
f 272 271 269
f 271 273 270
f 274 271 272
f 271 274 273
f 275 274 272
f 274 276 273
f 277 274 275
f 274 277 276
f 278 277 275
f 277 279 276
f 280 277 278
f 277 280 279
f 281 280 278
f 280 282 279
f 280 281 282
f 283 284 285
f 283 285 286
f 287 283 286
f 286 285 288
f 289 287 286
f 290 286 288
f 289 286 290
f 290 288 291
f 292 289 290
f 293 290 291
f 292 290 293
f 293 291 294
f 295 292 293
f 296 293 294
f 295 293 296
f 296 294 297
f 298 295 296
f 299 296 297
f 298 296 299
f 299 297 300
f 301 298 299
f 302 299 300
f 301 299 302
f 302 300 303
f 304 302 303
f 305 301 302
f 305 302 304
f 304 303 306
f 307 305 304
f 308 304 306
f 309 307 304
f 310 304 308
f 309 304 310
f 311 310 308
f 312 309 310
f 313 310 311
f 313 312 310
f 314 313 311
f 313 314 312
f 314 311 315
f 314 316 312
f 317 314 315
f 314 317 316
f 317 315 318
f 317 319 316
f 320 317 318
f 317 320 319
f 320 318 321
f 320 322 319
f 323 320 321
f 320 323 322
f 323 321 324
f 323 325 322
f 326 323 324
f 323 326 325
f 326 324 327
f 326 328 325
f 329 326 327
f 326 329 328
f 329 327 330
f 328 329 331
f 329 330 331
f 330 332 331
f 332 333 331
f 331 333 334
f 332 335 333
f 333 336 334
f 335 337 333
f 333 337 336
f 335 338 337
f 337 339 336
f 338 340 337
f 337 340 339
f 338 341 340
f 340 342 339
f 341 343 340
f 340 343 342
f 341 344 343
f 343 345 342
f 344 346 343
f 343 346 345
f 344 347 346
f 346 348 345
f 347 349 346
f 346 349 348
f 347 350 349
f 350 351 349
f 349 352 348
f 349 351 352
f 350 353 351
f 351 354 352
f 353 355 351
f 351 356 354
f 355 357 351
f 351 357 356
f 355 358 357
f 357 359 356
f 358 360 357
f 357 360 359
f 358 361 360
f 361 359 360
f 362 361 358
f 361 363 359
f 364 361 362
f 361 364 363
f 365 364 362
f 364 366 363
f 367 364 365
f 364 367 366
f 368 367 365
f 367 369 366
f 370 367 368
f 367 370 369
f 371 370 368
f 370 372 369
f 373 370 371
f 370 373 372
f 374 373 371
f 373 375 372
f 376 373 374
f 373 376 375
f 377 376 374
f 376 378 375
f 376 377 378
f 379 380 381
f 379 382 380
f 383 379 381
f 379 384 382
f 383 381 385
f 384 386 382
f 387 383 385
f 384 388 386
f 387 385 389
f 388 390 386
f 391 387 389
f 388 392 390
f 391 389 393
f 392 394 390
f 395 391 393
f 392 396 394
f 395 393 397
f 396 398 394
f 399 395 397
f 396 400 398
f 399 397 401
f 400 402 398
f 403 399 401
f 400 404 402
f 403 401 405
f 404 406 402
f 407 403 405
f 404 408 406
f 407 405 409
f 410 407 409
f 408 411 406
f 411 408 412
f 411 412 413
f 414 411 413
f 413 415 414
f 415 416 414
f 415 417 416
f 417 418 416
f 417 419 418
f 419 420 418
f 419 421 420
f 421 422 420
f 421 423 422
f 423 424 422
f 423 425 424
f 425 426 424
f 425 427 426
f 425 428 427
f 428 429 427
f 428 430 429
f 430 431 429
f 430 432 431
f 432 433 431
f 432 434 433
f 434 435 433
f 434 436 435
f 436 437 435
f 436 438 437
f 438 439 437
f 438 440 439
f 440 441 439
f 440 442 441
f 442 410 441
f 410 409 441
f 443 444 445
f 443 446 444
f 447 443 445
f 447 445 448
f 447 448 449
f 443 450 446
f 446 450 451
f 450 452 451
f 453 447 449
f 453 449 454
f 453 454 455
f 450 456 452
f 456 457 452
f 456 458 457
f 459 453 455
f 459 455 460
f 459 460 461
f 456 462 458
f 462 463 458
f 462 464 463
f 465 459 461
f 465 461 466
f 465 466 467
f 462 468 464
f 468 469 464
f 468 470 469
f 471 465 467
f 471 467 472
f 471 472 473
f 468 474 470
f 474 475 470
f 474 476 475
f 477 471 473
f 477 473 478
f 477 478 479
f 474 480 476
f 480 481 476
f 480 482 481
f 483 477 479
f 483 479 484
f 483 484 485
f 480 486 482
f 486 487 482
f 486 488 487
f 489 483 485
f 489 485 490
f 489 490 491
f 486 492 488
f 492 493 488
f 492 494 493
f 492 495 494
f 496 489 491
f 496 491 497
f 496 497 498
f 495 499 494
f 500 496 498
f 500 498 501
f 500 501 502
f 495 503 499
f 504 500 502
f 504 502 505
f 504 505 506
f 503 495 507
f 508 504 506
f 508 506 509
f 508 509 510
f 495 511 507
f 495 512 511
f 512 495 513
f 495 514 513
f 514 515 513
f 516 508 510
f 516 510 517
f 516 517 518
f 514 519 515
f 520 516 518
f 520 518 521
f 520 521 522
f 519 514 523
f 524 520 522
f 524 522 525
f 524 525 526
f 514 527 523
f 528 524 526
f 528 526 529
f 528 529 530
f 531 528 530
f 514 532 527
f 532 514 533
f 531 530 534
f 514 534 533
f 535 531 534
f 514 536 534
f 537 535 534
f 536 538 534
f 538 537 534
f 539 540 541
f 539 542 540
f 543 539 541
f 543 541 544
f 543 544 545
f 539 546 542
f 546 547 542
f 546 548 547
f 549 543 545
f 549 545 550
f 549 550 551
f 546 552 548
f 552 553 548
f 552 554 553
f 555 549 551
f 555 551 556
f 555 556 557
f 552 558 554
f 558 559 554
f 558 560 559
f 561 555 557
f 561 557 562
f 561 562 563
f 558 564 560
f 564 565 560
f 564 566 565
f 567 561 563
f 567 563 568
f 567 568 569
f 564 570 566
f 570 571 566
f 570 572 571
f 573 567 569
f 573 569 574
f 573 574 575
f 570 576 572
f 576 577 572
f 576 578 577
f 579 573 575
f 579 575 580
f 579 580 581
f 576 582 578
f 582 583 578
f 582 584 583
f 585 579 581
f 585 581 586
f 585 586 587
f 582 588 584
f 588 589 584
f 588 590 589
f 591 585 587
f 591 587 592
f 591 592 593
f 588 594 590
f 594 595 590
f 594 596 595
f 597 591 593
f 597 593 598
f 597 598 599
f 594 600 596
f 600 601 596
f 600 602 601
f 603 597 599
f 603 599 604
f 603 604 605
f 600 606 602
f 606 607 602
f 606 608 607
f 609 603 605
f 609 605 610
f 609 610 611
f 606 612 608
f 612 613 608
f 612 614 613
f 615 609 611
f 615 611 616
f 615 616 617
f 612 618 614
f 618 619 614
f 618 620 619
f 621 615 617
f 621 617 622
f 621 622 623
f 618 624 620
f 624 625 620
f 624 626 625
f 627 621 623
f 627 623 628
f 627 628 629
f 624 630 626
f 630 631 626
f 630 632 631
f 633 627 629
f 630 633 632
f 633 629 634
f 632 633 634
