# ROS coordinates: X forward, Y left, Z up; units are metres.
o mesh
v -0.146377653 -0.0261500012 0.01341269
v -0.144499689 -0.0261500012 0.0117624542
v -0.14469789 -0.0261224546 0.0115369186
v -0.14566581 -0.0261137262 0.0123291016
v -0.146575838 -0.0261224546 0.0131871551
v -0.1449006 -0.0260341521 0.0113062188
v -0.146778554 -0.0260341521 0.0129564535
v -0.145896688 -0.0259970166 0.0120663568
v -0.145095691 -0.0258810446 0.0110842139
v -0.14697364 -0.0258810446 0.0127344495
v -0.146112621 -0.02579618 0.0118206237
v -0.145269841 -0.0256667268 0.0108860293
v -0.1471478 -0.0256667268 0.012536265
v -0.146294266 -0.0255209878 0.0116139036
v -0.145411313 -0.0254028961 0.0107250381
v -0.147289276 -0.0254028961 0.0123752747
v -0.146426842 -0.0251938589 0.0114630386
v -0.145512387 -0.0251073558 0.0106100263
v -0.147390336 -0.0251073558 0.0122602619
v -0.146503881 -0.0248440839 0.0113753695
v -0.145570666 -0.024800241 0.0105436938
v -0.146527827 -0.0245000031 0.01134812
v -0.147448614 -0.024800241 0.0121939313
v -0.145588845 -0.0245000031 0.0105230026
v -0.147466809 -0.0245000031 0.0121732382
v -0.145570666 -0.0241997615 0.0105436938
v -0.147448614 -0.0241997615 0.0121939313
v -0.146503881 -0.0241559185 0.0113753695
v -0.145512387 -0.0238926448 0.0106100263
v -0.147390336 -0.0238926448 0.0122602619
v -0.146451354 -0.0238926448 0.0114351436
v -0.146367311 -0.0236378461 0.01153078
v -0.145411313 -0.0235971063 0.0107250381
v -0.147289276 -0.0235971063 0.0123752747
v -0.146253 -0.0234042946 0.0116608655
v -0.145269841 -0.0233332738 0.0108860293
v -0.1471478 -0.0233332738 0.012536265
v -0.146112621 -0.02320382 0.0118206237
v -0.145095691 -0.0231189616 0.0110842139
v -0.14697364 -0.0231189616 0.0127344495
v -0.145952851 -0.023045443 0.0120024374
v -0.1449006 -0.0229658484 0.0113062188
v -0.146778554 -0.0229658484 0.0129564535
v -0.145781875 -0.0229340568 0.0121970158
v -0.14469789 -0.022877546 0.0115369186
v -0.146575838 -0.022877546 0.0131871551
v -0.145608008 -0.0228700675 0.01239486
v -0.144499689 -0.0228500012 0.0117624542
v -0.146377653 -0.0228500012 0.01341269
v -0.1443015 -0.022877546 0.0119879888
v -0.145211548 -0.0228862762 0.0128460405
v -0.146179467 -0.022877546 0.0136382235
v -0.144098788 -0.0229658484 0.01221869
v -0.145976737 -0.0229658484 0.0138689252
v -0.144980654 -0.0230029821 0.0131087853
v -0.1439037 -0.0231189616 0.0124406945
v -0.145781651 -0.0231189616 0.0140909292
v -0.144764721 -0.02320382 0.0133545212
v -0.143729538 -0.0233332738 0.0126388781
v -0.1456075 -0.0233332738 0.0142891137
v -0.144583076 -0.0234790146 0.0135612395
v -0.143588066 -0.0235971063 0.0127998693
v -0.14546603 -0.0235971063 0.0144501049
v -0.1444505 -0.0238061436 0.0137121053
v -0.143487021 -0.0238926448 0.0129148811
v -0.14536497 -0.0238926448 0.0145651167
v -0.144373462 -0.0241559185 0.0137997735
v -0.143428728 -0.0241997615 0.0129812127
v -0.144349515 -0.0245000031 0.0138270222
v -0.145306677 -0.0241997615 0.0146314492
v -0.143410534 -0.0245000031 0.0130019048
v -0.1452885 -0.0245000031 0.01465214
v -0.143428728 -0.024800241 0.0129812127
v -0.145306677 -0.024800241 0.0146314492
v -0.144373462 -0.0248440839 0.0137997735
v -0.143487021 -0.0251073558 0.0129148811
v -0.14536497 -0.0251073558 0.0145651167
v -0.144425988 -0.0251073558 0.0137399985
v -0.144510031 -0.0253621526 0.0136443637
v -0.143588066 -0.0254028961 0.0127998693
v -0.14546603 -0.0254028961 0.0144501049
v -0.144624338 -0.025595706 0.0135142785
v -0.143729538 -0.0256667268 0.0126388781
v -0.1456075 -0.0256667268 0.0142891137
v -0.144764721 -0.02579618 0.0133545212
v -0.1439037 -0.0258810446 0.0124406945
v -0.145781651 -0.0258810446 0.0140909292
v -0.144924492 -0.02595456 0.0131727057
v -0.144098788 -0.0260341521 0.01221869
v -0.145976737 -0.0260341521 0.0138689252
v -0.145095468 -0.0260659475 0.0129781282
v -0.1443015 -0.0261224546 0.0119879888
v -0.146179467 -0.0261224546 0.0136382235
v -0.145269334 -0.0261299349 0.0127802826
v -0.144499689 -0.0261500012 0.0117624542
v -0.146377653 -0.0261500012 0.01341269
v -0.1482556 -0.0275000017 0.0150629263
v -0.146377653 -0.0275000017 0.01341269
v -0.146738 -0.0274499152 0.0130026275
v -0.147729576 -0.0274340454 0.0137678636
v -0.148615956 -0.0274499152 0.0146528631
v -0.147106588 -0.0272893645 0.01258317
v -0.148984551 -0.0272893645 0.0142334076
v -0.148149386 -0.0272218511 0.0132901464
v -0.14746128 -0.0270109884 0.0121795274
v -0.149339229 -0.0270109884 0.0138297621
v -0.148541987 -0.0268566944 0.0128433565
v -0.14777793 -0.0266213231 0.01181919
v -0.149655879 -0.0266213231 0.0134694278
v -0.148872271 -0.0263563432 0.0124675017
v -0.148035139 -0.02614163 0.01152648
v -0.1499131 -0.02614163 0.0131767159
v -0.149113312 -0.0257615633 0.0121932011
v -0.1482189 -0.0256042853 0.0113173667
v -0.150096849 -0.0256042853 0.0129676042
v -0.149253368 -0.0251256078 0.0120338043
v -0.148324877 -0.02504589 0.0111967642
v -0.14929691 -0.0245000031 0.0119842589
v -0.150202841 -0.02504589 0.012847
v -0.148357928 -0.0245000031 0.0111591425
v -0.150235891 -0.0245000031 0.0128093781
v -0.148324877 -0.02395411 0.0111967642
v -0.150202841 -0.02395411 0.012847
v -0.149253368 -0.0238743965 0.0120338043
v -0.1482189 -0.0233957153 0.0113173667
v -0.150096849 -0.0233957153 0.0129676042
v -0.149157882 -0.0233957153 0.0121424859
v -0.14900507 -0.02293245 0.0123163685
v -0.148035139 -0.022858372 0.01152648
v -0.1499131 -0.022858372 0.0131767159
v -0.148797244 -0.0225078054 0.0125528863
v -0.14777793 -0.0223786831 0.01181919
v -0.149655879 -0.0223786831 0.0134694278
v -0.148541987 -0.02214331 0.0128433565
v -0.14746128 -0.021989014 0.0121795274
v -0.149339229 -0.021989014 0.0138297621
v -0.1482515 -0.0218553543 0.0131739285
v -0.147106588 -0.0217106361 0.01258317
v -0.148984551 -0.0217106361 0.0142334076
v -0.147940636 -0.0216528289 0.0135277063
v -0.146738 -0.0215500854 0.0130026275
v -0.148615956 -0.0215500854 0.0146528631
v -0.147624522 -0.0215364844 0.013887425
v -0.146377653 -0.0215000026 0.01341269
v -0.1482556 -0.0215000026 0.0150629263
v -0.146017313 -0.0215500854 0.0138227511
v -0.146903679 -0.0215659551 0.0147077525
v -0.147895262 -0.0215500854 0.0154729886
v -0.145648718 -0.0217106361 0.0142422086
v -0.147526681 -0.0217106361 0.015892446
v -0.146483868 -0.02177815 0.01518547
v -0.145294026 -0.021989014 0.014645854
v -0.147171974 -0.021989014 0.0162960887
v -0.146091267 -0.02214331 0.01563226
v -0.144977376 -0.0223786831 0.0150061883
v -0.146855325 -0.0223786831 0.0166564249
v -0.145760983 -0.02264366 0.0160081144
v -0.144720167 -0.022858372 0.0152988993
v -0.146598116 -0.022858372 0.0169491358
v -0.145519957 -0.02323844 0.0162824132
v -0.1445364 -0.0233957153 0.0155080119
v -0.146414369 -0.0233957153 0.0171582475
v -0.145379886 -0.0238743965 0.01644181
v -0.144430429 -0.02395411 0.0156286154
v -0.14533636 -0.0245000031 0.0164913554
v -0.146308377 -0.02395411 0.0172788519
v -0.144397378 -0.0245000031 0.015666239
v -0.146275327 -0.0245000031 0.0173164736
v -0.144430429 -0.02504589 0.0156286154
v -0.146308377 -0.02504589 0.0172788519
v -0.145379886 -0.0251256078 0.01644181
v -0.1445364 -0.0256042853 0.0155080119
v -0.146414369 -0.0256042853 0.0171582475
v -0.145475388 -0.0256042853 0.01633313
v -0.145628184 -0.0260675531 0.0161592476
v -0.144720167 -0.02614163 0.0152988993
v -0.146598116 -0.02614163 0.0169491358
v -0.145836011 -0.0264921952 0.01592273
v -0.144977376 -0.0266213231 0.0150061883
v -0.146855325 -0.0266213231 0.0166564249
v -0.146091267 -0.0268566944 0.01563226
v -0.145294026 -0.0270109884 0.014645854
v -0.147171974 -0.0270109884 0.0162960887
v -0.146381751 -0.0271446519 0.0153016876
v -0.145648718 -0.0272893645 0.0142422086
v -0.147526681 -0.0272893645 0.015892446
v -0.146692634 -0.0273471717 0.0149479089
v -0.146017313 -0.0274499152 0.0138227511
v -0.147895262 -0.0274499152 0.0154729886
v -0.147008732 -0.0274635181 0.0145881912
v -0.146377653 -0.0275000017 0.01341269
v -0.1482556 -0.0275000017 0.0150629263
v -0.159714162 -0.02833047 0.00202317024
v -0.160390213 -0.025773745 0.00125383236
v -0.160142928 -0.0270766653 0.00153523986
v -0.159114 -0.029449746 0.00270616123
v -0.158375174 -0.03035897 0.00354694435
v -0.160467356 -0.0245000031 0.0011660473
v -0.157547534 -0.03100852 0.004488781
v -0.156687483 -0.0313831419 0.00546751358
v -0.1558467 -0.0315000042 0.006424326
v -0.150202841 -0.02395411 0.012847
v -0.150235891 -0.0245000031 0.0128093781
v -0.150202841 -0.02504589 0.012847
v -0.150096849 -0.0256042853 0.0129676042
v -0.1499131 -0.02614163 0.0131767159
v -0.149655879 -0.0266213231 0.0134694278
v -0.149339229 -0.0270109884 0.0138297621
v -0.148984551 -0.0272893645 0.0142334076
v -0.148615956 -0.0274499152 0.0146528631
v -0.1433049 -0.0315000042 0.0206967965
v -0.1482556 -0.0275000017 0.0150629263
v -0.147895262 -0.0274499152 0.0154729886
v -0.147526681 -0.0272893645 0.015892446
v -0.147171974 -0.0270109884 0.0162960887
v -0.146855325 -0.0266213231 0.0166564249
v -0.146598116 -0.02614163 0.0169491358
v -0.146414369 -0.0256042853 0.0171582475
v -0.146308377 -0.02504589 0.0172788519
v -0.146275327 -0.0245000031 0.0173164736
v -0.146308377 -0.02395411 0.0172788519
v -0.146414369 -0.0233957153 0.0171582475
v -0.1433049 -0.0015 0.0206967965
v -0.146598116 -0.022858372 0.0169491358
v -0.146855325 -0.0223786831 0.0166564249
v -0.147171974 -0.021989014 0.0162960887
v -0.147526681 -0.0217106361 0.015892446
v -0.147895262 -0.0215500854 0.0154729886
v -0.151886135 -0.0165000018 0.010931422
v -0.160467356 -0.0015 0.0011660473
v -0.1482556 -0.0215000026 0.0150629263
v -0.148615956 -0.0215500854 0.0146528631
v -0.148984551 -0.0217106361 0.0142334076
v -0.150096849 -0.0233957153 0.0129676042
v -0.149339229 -0.021989014 0.0138297621
v -0.1499131 -0.022858372 0.0131767159
v -0.149655879 -0.0223786831 0.0134694278
v -0.159115225 -0.013 -2.2122822E-05
v -0.160467356 -0.0015 0.0011660473
v -0.1577631 -0.0015 -0.00121029292
v -0.1577631 -0.0245000031 -0.00121029292
v -0.160467356 -0.0245000031 0.0011660473
v -0.160467356 -0.0245000031 0.0011660473
v -0.1577631 -0.0245000031 -0.00121029292
v -0.158512264 -0.025773745 -0.00039640395
v -0.160390213 -0.025773745 0.00125383236
v -0.15761061 -0.0258354936 -0.00117311929
v -0.158264965 -0.0270766653 -0.000114996306
v -0.160142928 -0.0270766653 0.00153523986
v -0.157147288 -0.0271457527 -0.00106016651
v -0.157836214 -0.02833047 0.000372934
v -0.156390756 -0.0283550732 -0.0008757302
v -0.159714162 -0.02833047 0.00202317024
v -0.155391261 -0.0293989815 -0.00063206
v -0.15723604 -0.029449746 0.00105592515
v -0.159114 -0.029449746 0.00270616123
v -0.1546948 -0.03028253 0.00016049789
v -0.15649721 -0.03035897 0.00189670827
v -0.158375174 -0.03035897 0.00354694435
v -0.15388079 -0.0309534073 0.001086836
v -0.155669585 -0.03100852 0.002838545
v -0.157547534 -0.03100852 0.004488781
v -0.152994782 -0.031364724 0.0020951035
v -0.154809535 -0.0313831419 0.003817277
v -0.156687483 -0.0313831419 0.00546751358
v -0.152090788 -0.0315000042 0.00312385336
v -0.1558467 -0.0315000042 0.006424326
v -0.147697836 -0.0315000042 0.0119103249
v -0.1558467 -0.0315000042 0.006424326
v -0.152090788 -0.0315000042 0.00312385336
v -0.139548987 -0.0315000042 0.0173963234
v -0.1433049 -0.0315000042 0.0206967965
v -0.141426936 -0.0165000018 0.01904656
v -0.139548987 -0.0315000042 0.0173963234
v -0.139548987 -0.0015 0.0173963234
v -0.1433049 -0.0015 0.0206967965
v -0.1433049 -0.0315000042 0.0206967965
v -0.146179467 -0.0261224546 0.0136382235
v -0.146377653 -0.0261500012 0.01341269
v -0.146377653 -0.0275000017 0.01341269
v -0.146575838 -0.0261224546 0.0131871551
v -0.146017313 -0.0274499152 0.0138227511
v -0.146738 -0.0274499152 0.0130026275
v -0.145976737 -0.0260341521 0.0138689252
v -0.146778554 -0.0260341521 0.0129564535
v -0.145648718 -0.0272893645 0.0142422086
v -0.147106588 -0.0272893645 0.01258317
v -0.145781651 -0.0258810446 0.0140909292
v -0.14697364 -0.0258810446 0.0127344495
v -0.145294026 -0.0270109884 0.014645854
v -0.14746128 -0.0270109884 0.0121795274
v -0.1456075 -0.0256667268 0.0142891137
v -0.1471478 -0.0256667268 0.012536265
v -0.144977376 -0.0266213231 0.0150061883
v -0.14777793 -0.0266213231 0.01181919
v -0.14546603 -0.0254028961 0.0144501049
v -0.147289276 -0.0254028961 0.0123752747
v -0.144720167 -0.02614163 0.0152988993
v -0.148035139 -0.02614163 0.01152648
v -0.14536497 -0.0251073558 0.0145651167
v -0.147390336 -0.0251073558 0.0122602619
v -0.1445364 -0.0256042853 0.0155080119
v -0.1482189 -0.0256042853 0.0113173667
v -0.145306677 -0.024800241 0.0146314492
v -0.144430429 -0.02504589 0.0156286154
v -0.147448614 -0.024800241 0.0121939313
v -0.148324877 -0.02504589 0.0111967642
v -0.148357928 -0.0245000031 0.0111591425
v -0.147466809 -0.0245000031 0.0121732382
v -0.148324877 -0.02395411 0.0111967642
v -0.147448614 -0.0241997615 0.0121939313
v -0.1482189 -0.0233957153 0.0113173667
v -0.147390336 -0.0238926448 0.0122602619
v -0.148035139 -0.022858372 0.01152648
v -0.147289276 -0.0235971063 0.0123752747
v -0.14777793 -0.0223786831 0.01181919
v -0.1471478 -0.0233332738 0.012536265
v -0.14746128 -0.021989014 0.0121795274
v -0.14697364 -0.0231189616 0.0127344495
v -0.147106588 -0.0217106361 0.01258317
v -0.146778554 -0.0229658484 0.0129564535
v -0.146738 -0.0215500854 0.0130026275
v -0.146575838 -0.022877546 0.0131871551
v -0.146377653 -0.0228500012 0.01341269
v -0.146377653 -0.0215000026 0.01341269
v -0.146179467 -0.022877546 0.0136382235
v -0.146017313 -0.0215500854 0.0138227511
v -0.145976737 -0.0229658484 0.0138689252
v -0.145648718 -0.0217106361 0.0142422086
v -0.145781651 -0.0231189616 0.0140909292
v -0.145294026 -0.021989014 0.014645854
v -0.1456075 -0.0233332738 0.0142891137
v -0.144977376 -0.0223786831 0.0150061883
v -0.14546603 -0.0235971063 0.0144501049
v -0.144720167 -0.022858372 0.0152988993
v -0.14536497 -0.0238926448 0.0145651167
v -0.1445364 -0.0233957153 0.0155080119
v -0.145306677 -0.0241997615 0.0146314492
v -0.144430429 -0.02395411 0.0156286154
v -0.1452885 -0.0245000031 0.01465214
v -0.144397378 -0.0245000031 0.015666239
v -0.1443015 -0.022877546 0.0119879888
v -0.144499689 -0.0228500012 0.0117624542
v -0.147470117 -0.0165000018 0.008382132
v -0.14469789 -0.022877546 0.0115369186
v -0.1449006 -0.0229658484 0.0113062188
v -0.145095691 -0.0231189616 0.0110842139
v -0.145269841 -0.0233332738 0.0108860293
v -0.145411313 -0.0235971063 0.0107250381
v -0.144098788 -0.0229658484 0.01221869
v -0.145512387 -0.0238926448 0.0106100263
v -0.139548987 -0.0015 0.0173963234
v -0.147470117 -0.0270360876 0.008382132
v -0.1439037 -0.0231189616 0.0124406945
v -0.145570666 -0.0241997615 0.0105436938
v -0.143729538 -0.0233332738 0.0126388781
v -0.145588845 -0.0245000031 0.0105230026
v -0.145570666 -0.024800241 0.0105436938
v -0.145512387 -0.0251073558 0.0106100263
v -0.145411313 -0.0254028961 0.0107250381
v -0.145269841 -0.0256667268 0.0108860293
v -0.143588066 -0.0235971063 0.0127998693
v -0.145095691 -0.0258810446 0.0110842139
v -0.1449006 -0.0260341521 0.0113062188
v -0.14469789 -0.0261224546 0.0115369186
v -0.143487021 -0.0238926448 0.0129148811
v -0.144499689 -0.0261500012 0.0117624542
v -0.139548987 -0.0315000042 0.0173963234
v -0.143428728 -0.0241997615 0.0129812127
v -0.1443015 -0.0261224546 0.0119879888
v -0.143410534 -0.0245000031 0.0130019048
v -0.144098788 -0.0260341521 0.01221869
v -0.143428728 -0.024800241 0.0129812127
v -0.1439037 -0.0258810446 0.0124406945
v -0.143487021 -0.0251073558 0.0129148811
v -0.143729538 -0.0256667268 0.0126388781
v -0.143588066 -0.0254028961 0.0127998693
v -0.152090788 -0.0315000042 0.00312385336
v -0.155391261 -0.0015 -0.00063206
v -0.152994782 -0.031364724 0.0020951035
v -0.155391261 -0.0293989815 -0.00063206
v -0.15388079 -0.0309534073 0.001086836
v -0.1546948 -0.03028253 0.00016049789
v -0.150008172 -0.0015 0.009281185
v -0.155391261 -0.0015 -0.00063206
v -0.1577631 -0.0015 -0.00121029292
v -0.160467356 -0.0015 0.0011660473
v -0.139548987 -0.0015 0.0173963234
v -0.1433049 -0.0015 0.0206967965
v -0.155391261 -0.0293989815 -0.00063206
v -0.15657717 -0.01544949 -0.0009211764
v -0.155391261 -0.0015 -0.00063206
v -0.156390756 -0.0283550732 -0.0008757302
v -0.1577631 -0.0015 -0.00121029292
v -0.157147288 -0.0271457527 -0.00106016651
v -0.1577631 -0.0245000031 -0.00121029292
v -0.15761061 -0.0258354936 -0.00117311929
f 1 2 3
f 1 3 4
f 5 1 4
f 4 3 6
f 7 5 4
f 8 4 6
f 7 4 8
f 8 6 9
f 10 7 8
f 11 8 9
f 10 8 11
f 11 9 12
f 13 10 11
f 14 11 12
f 13 11 14
f 14 12 15
f 16 13 14
f 17 14 15
f 16 14 17
f 17 15 18
f 19 16 17
f 20 17 18
f 19 17 20
f 20 18 21
f 22 20 21
f 23 19 20
f 23 20 22
f 22 21 24
f 25 23 22
f 26 22 24
f 27 25 22
f 28 22 26
f 27 22 28
f 29 28 26
f 30 27 28
f 31 28 29
f 31 30 28
f 32 31 29
f 31 32 30
f 32 29 33
f 32 34 30
f 35 32 33
f 32 35 34
f 35 33 36
f 35 37 34
f 38 35 36
f 35 38 37
f 38 36 39
f 38 40 37
f 41 38 39
f 38 41 40
f 41 39 42
f 41 43 40
f 44 41 42
f 41 44 43
f 44 42 45
f 44 46 43
f 47 44 45
f 44 47 46
f 47 45 48
f 46 47 49
f 47 48 49
f 48 50 49
f 50 51 49
f 49 51 52
f 50 53 51
f 51 54 52
f 53 55 51
f 51 55 54
f 53 56 55
f 55 57 54
f 56 58 55
f 55 58 57
f 56 59 58
f 58 60 57
f 59 61 58
f 58 61 60
f 59 62 61
f 61 63 60
f 62 64 61
f 61 64 63
f 62 65 64
f 64 66 63
f 65 67 64
f 64 67 66
f 65 68 67
f 68 69 67
f 67 70 66
f 67 69 70
f 68 71 69
f 69 72 70
f 71 73 69
f 69 74 72
f 73 75 69
f 69 75 74
f 73 76 75
f 75 77 74
f 76 78 75
f 75 78 77
f 76 79 78
f 79 77 78
f 80 79 76
f 79 81 77
f 82 79 80
f 79 82 81
f 83 82 80
f 82 84 81
f 85 82 83
f 82 85 84
f 86 85 83
f 85 87 84
f 88 85 86
f 85 88 87
f 89 88 86
f 88 90 87
f 91 88 89
f 88 91 90
f 92 91 89
f 91 93 90
f 94 91 92
f 91 94 93
f 95 94 92
f 94 96 93
f 94 95 96
f 97 98 99
f 97 99 100
f 101 97 100
f 100 99 102
f 103 101 100
f 104 100 102
f 103 100 104
f 104 102 105
f 106 103 104
f 107 104 105
f 106 104 107
f 107 105 108
f 109 106 107
f 110 107 108
f 109 107 110
f 110 108 111
f 112 109 110
f 113 110 111
f 112 110 113
f 113 111 114
f 115 112 113
f 116 113 114
f 115 113 116
f 116 114 117
f 118 116 117
f 119 115 116
f 119 116 118
f 118 117 120
f 121 119 118
f 122 118 120
f 123 121 118
f 124 118 122
f 123 118 124
f 125 124 122
f 126 123 124
f 127 124 125
f 127 126 124
f 128 127 125
f 127 128 126
f 128 125 129
f 128 130 126
f 131 128 129
f 128 131 130
f 131 129 132
f 131 133 130
f 134 131 132
f 131 134 133
f 134 132 135
f 134 136 133
f 137 134 135
f 134 137 136
f 137 135 138
f 137 139 136
f 140 137 138
f 137 140 139
f 140 138 141
f 140 142 139
f 143 140 141
f 140 143 142
f 143 141 144
f 142 143 145
f 143 144 145
f 144 146 145
f 146 147 145
f 145 147 148
f 146 149 147
f 147 150 148
f 149 151 147
f 147 151 150
f 149 152 151
f 151 153 150
f 152 154 151
f 151 154 153
f 152 155 154
f 154 156 153
f 155 157 154
f 154 157 156
f 155 158 157
f 157 159 156
f 158 160 157
f 157 160 159
f 158 161 160
f 160 162 159
f 161 163 160
f 160 163 162
f 161 164 163
f 164 165 163
f 163 166 162
f 163 165 166
f 164 167 165
f 165 168 166
f 167 169 165
f 165 170 168
f 169 171 165
f 165 171 170
f 169 172 171
f 171 173 170
f 172 174 171
f 171 174 173
f 172 175 174
f 175 173 174
f 176 175 172
f 175 177 173
f 178 175 176
f 175 178 177
f 179 178 176
f 178 180 177
f 181 178 179
f 178 181 180
f 182 181 179
f 181 183 180
f 184 181 182
f 181 184 183
f 185 184 182
f 184 186 183
f 187 184 185
f 184 187 186
f 188 187 185
f 187 189 186
f 190 187 188
f 187 190 189
f 191 190 188
f 190 192 189
f 190 191 192
f 193 194 195
f 194 193 196
f 194 196 197
f 198 194 197
f 198 197 199
f 198 199 200
f 201 198 200
f 202 198 201
f 203 202 201
f 204 203 201
f 205 204 201
f 206 205 201
f 207 206 201
f 208 207 201
f 209 208 201
f 210 209 201
f 210 201 211
f 212 210 211
f 213 212 211
f 214 213 211
f 215 214 211
f 216 215 211
f 217 216 211
f 218 217 211
f 219 218 211
f 220 219 211
f 221 220 211
f 222 221 211
f 222 211 223
f 224 222 223
f 225 224 223
f 226 225 223
f 227 226 223
f 228 227 223
f 229 228 223
f 229 223 230
f 228 229 231
f 198 229 230
f 229 232 231
f 202 229 198
f 229 233 232
f 229 202 234
f 233 229 235
f 236 229 234
f 229 237 235
f 229 236 237
f 238 239 240
f 238 240 241
f 239 238 242
f 242 238 241
f 243 244 245
f 246 243 245
f 244 247 245
f 246 245 248
f 247 248 245
f 249 246 248
f 247 250 248
f 249 248 251
f 250 251 248
f 250 252 251
f 253 249 251
f 252 254 251
f 253 251 255
f 254 255 251
f 256 253 255
f 254 257 255
f 256 255 258
f 257 258 255
f 259 256 258
f 257 260 258
f 259 258 261
f 260 261 258
f 262 259 261
f 260 263 261
f 262 261 264
f 263 264 261
f 265 262 264
f 263 266 264
f 267 265 264
f 266 267 264
f 268 269 270
f 268 270 271
f 269 268 272
f 272 268 271
f 273 274 275
f 273 275 276
f 274 273 277
f 277 273 276
f 278 279 280
f 279 281 280
f 278 280 282
f 281 283 280
f 284 278 282
f 281 285 283
f 284 282 286
f 285 287 283
f 288 284 286
f 285 289 287
f 288 286 290
f 289 291 287
f 292 288 290
f 289 293 291
f 292 290 294
f 293 295 291
f 296 292 294
f 293 297 295
f 296 294 298
f 297 299 295
f 300 296 298
f 297 301 299
f 300 298 302
f 301 303 299
f 304 300 302
f 304 302 305
f 301 306 303
f 306 307 303
f 306 308 307
f 306 309 308
f 309 310 308
f 309 311 310
f 311 312 310
f 311 313 312
f 313 314 312
f 313 315 314
f 315 316 314
f 315 317 316
f 317 318 316
f 317 319 318
f 319 320 318
f 319 321 320
f 321 322 320
f 322 321 323
f 322 323 324
f 325 322 324
f 325 324 326
f 327 325 326
f 326 328 327
f 328 329 327
f 328 330 329
f 330 331 329
f 330 332 331
f 332 333 331
f 332 334 333
f 334 335 333
f 334 336 335
f 336 337 335
f 336 338 337
f 338 339 337
f 338 340 339
f 340 341 339
f 340 305 341
f 340 304 305
f 342 343 344
f 343 345 344
f 345 346 344
f 346 347 344
f 347 348 344
f 348 349 344
f 350 342 344
f 349 351 344
f 350 344 352
f 351 353 344
f 354 350 352
f 351 355 353
f 356 354 352
f 355 357 353
f 357 358 353
f 358 359 353
f 359 360 353
f 360 361 353
f 362 356 352
f 361 363 353
f 363 364 353
f 364 365 353
f 366 362 352
f 365 367 353
f 366 352 368
f 353 367 368
f 369 366 368
f 367 370 368
f 371 369 368
f 370 372 368
f 373 371 368
f 372 374 368
f 375 373 368
f 374 376 368
f 377 375 368
f 376 377 368
f 353 368 378
f 344 353 378
f 352 344 379
f 344 378 380
f 344 381 379
f 344 380 382
f 344 383 381
f 383 344 382
f 384 385 386
f 387 384 386
f 384 388 385
f 384 387 389
f 388 384 389
f 390 391 392
f 393 391 390
f 391 394 392
f 391 393 395
f 391 396 394
f 391 395 397
f 396 391 397
