# ROS coordinates: X forward, Y left, Z up; units are metres.
o mesh
v 0.0130802747 -0.007452013 0.1303
v 0.0130052753 -0.007622013 0.130225
v 0.0130802747 -0.00779201277 0.1303
v 0.0130052753 -0.007622013 0.130225
v 0.012930274 -0.007942013 0.13015
v 0.0130802747 -0.00779201277 0.1303
v 0.012930274 -0.00730201229 0.13015
v 0.0130802747 -0.007452013 0.1303
v 0.0132502746 -0.00737701356 0.130225
v 0.0130802747 -0.007452013 0.1303
v 0.0134202745 -0.007452013 0.1303
v 0.0135702752 -0.00730201229 0.13015
v 0.012930274 -0.00730201229 0.13015
v 0.0132502746 -0.007867012 0.130225
v 0.012930274 -0.007942013 0.13015
v 0.0135702752 -0.007942013 0.13015
v 0.0134202745 -0.00779201277 0.1303
v 0.0130802747 -0.00779201277 0.1303
v 0.0134952758 -0.007622013 0.130225
v 0.0135702752 -0.007942013 0.13015
v 0.0135702752 -0.00730201229 0.13015
v 0.0134202745 -0.007452013 0.1303
v 0.0134202745 -0.00779201277 0.1303
v 0.0134952758 -0.007622013 0.120675
v 0.0135702752 -0.00730201229 0.12075
v 0.0135702752 -0.007942013 0.12075
v 0.0134202745 -0.00779201277 0.1206
v 0.0134202745 -0.007452013 0.1206
v 0.0132502746 -0.00737701356 0.120675
v 0.0134202745 -0.007452013 0.1206
v 0.0130802747 -0.007452013 0.1206
v 0.012930274 -0.00730201229 0.12075
v 0.0135702752 -0.00730201229 0.12075
v 0.0132502746 -0.007867012 0.120675
v 0.0135702752 -0.007942013 0.12075
v 0.012930274 -0.007942013 0.12075
v 0.0130802747 -0.00779201277 0.1206
v 0.0134202745 -0.00779201277 0.1206
v 0.0130052753 -0.007622013 0.120675
v 0.012930274 -0.007942013 0.12075
v 0.012930274 -0.00730201229 0.12075
v 0.0130802747 -0.007452013 0.1206
v 0.0130802747 -0.00779201277 0.1206
v 0.0132502746 -0.00730201229 0.12545
v 0.0135702752 -0.00730201229 0.12075
v 0.012930274 -0.00730201229 0.12075
v 0.012930274 -0.00730201229 0.13015
v 0.0135702752 -0.00730201229 0.13015
v 0.0132502746 -0.007942013 0.12545
v 0.012930274 -0.007942013 0.12075
v 0.0135702752 -0.007942013 0.12075
v 0.0135702752 -0.007942013 0.13015
v 0.012930274 -0.007942013 0.13015
v 0.012930274 -0.00730201229 0.13015
v 0.012930274 -0.007622013 0.12545
v 0.012930274 -0.007942013 0.13015
v 0.012930274 -0.00730201229 0.12075
v 0.012930274 -0.007942013 0.12075
v 0.0130802747 -0.007452013 0.1206
v 0.0132502746 -0.007622013 0.1206
v 0.0130802747 -0.00779201277 0.1206
v 0.0134202745 -0.007452013 0.1206
v 0.0134202745 -0.00779201277 0.1206
v 0.0135702752 -0.007942013 0.13015
v 0.0135702752 -0.007622013 0.12545
v 0.0135702752 -0.00730201229 0.13015
v 0.0135702752 -0.007942013 0.12075
v 0.0135702752 -0.00730201229 0.12075
v 0.0134202745 -0.007452013 0.1303
v 0.0132502746 -0.007622013 0.1303
v 0.0134202745 -0.00779201277 0.1303
v 0.0130802747 -0.007452013 0.1303
v 0.0130802747 -0.00779201277 0.1303
f 1 2 3
f 4 5 6
f 4 7 5
f 7 4 8
f 9 10 11
f 9 11 12
f 10 9 13
f 13 9 12
f 14 15 16
f 14 16 17
f 15 14 18
f 18 14 17
f 19 20 21
f 19 21 22
f 20 19 23
f 23 19 22
f 24 25 26
f 24 26 27
f 25 24 28
f 28 24 27
f 29 30 31
f 29 31 32
f 30 29 33
f 33 29 32
f 34 35 36
f 34 36 37
f 35 34 38
f 38 34 37
f 39 40 41
f 39 41 42
f 40 39 43
f 43 39 42
f 44 45 46
f 44 46 47
f 45 44 48
f 48 44 47
f 49 50 51
f 49 51 52
f 50 49 53
f 53 49 52
f 54 55 56
f 57 55 54
f 55 58 56
f 55 57 58
f 59 60 61
f 62 60 59
f 60 63 61
f 60 62 63
f 64 65 66
f 67 65 64
f 65 68 66
f 65 67 68
f 69 70 71
f 72 70 69
f 70 73 71
f 70 72 73
