# ROS coordinates: X forward, Y left, Z up; units are metres.
o mesh
v -0.09642905 -0.07953084 0.0240775682
v -0.09774159 -0.08025696 0.0240775682
v -0.09671751 -0.08210809 0.0250615459
v -0.0958741754 -0.08208315 0.0252769
v -0.09540497 -0.08138197 0.0250615459
v -0.09572501 -0.08390212 0.0263485163
v -0.0944124758 -0.083176 0.0263485163
v -0.09471519 -0.08417814 0.0269019
v -0.0947943255 -0.08558442 0.0279350653
v -0.093481794 -0.0848583 0.0279350653
v -0.0936590359 -0.08608725 0.0289391559
v -0.09395599 -0.08709979 0.029800836
v -0.0926434547 -0.08637367 0.029800836
v -0.09275496 -0.0877214447 0.0313413367
v -0.09323804 -0.08839757 0.03190816
v -0.0920442045 -0.0890062 0.03402891
v -0.0919255 -0.0876714438 0.03190816
v -0.0926631838 -0.0894366652 0.03420409
v -0.09135065 -0.08871055 0.03420409
v -0.0922465846 -0.09018972 0.0366246738
v -0.0909340456 -0.0894636 0.0366246738
v -0.09155416 -0.08989202 0.0368983336
v -0.09199448 -0.090645425 0.0391007736
v -0.09068194 -0.0899193 0.0391007736
v -0.09129492 -0.09036061 0.03983496
v -0.09190413 -0.09080873 0.04156436
v -0.0905916 -0.0900826 0.04156436
v -0.091259174 -0.09042522 0.042727612
v -0.09196489 -0.0906989 0.0439541563
v -0.09065236 -0.08997277 0.0439541563
v -0.09135331 -0.09025507 0.0446403325
v -0.09216129 -0.09034389 0.0462305062
v -0.09084876 -0.08961777 0.0462305062
v -0.09153524 -0.08992621 0.0464811362
v -0.09249892 -0.0897336 0.0484891273
v -0.09118638 -0.0890074745 0.0484891273
v -0.09181249 -0.08942505 0.04832213
v -0.0921905339 -0.08874171 0.0501457676
v -0.0929885358 -0.08884857 0.0507168956
v -0.091676 -0.08812245 0.0507168956
v -0.09267071 -0.08787374 0.05191786
v -0.0936313 -0.08768672 0.0528499819
v -0.09231876 -0.0869606 0.0528499819
v -0.09325078 -0.0868252 0.0536027551
v -0.09442 -0.08626105 0.0548227243
v -0.09310746 -0.08553493 0.0548227243
v -0.09392467 -0.0856070742 0.0551654026
v -0.09533879 -0.08460025 0.05657353
v -0.09402626 -0.08387412 0.05657353
v -0.09468253 -0.08423718 0.05657353
v -0.09541919 -0.08290559 0.0576774441
v -0.09636402 -0.08274705 0.058050815
v -0.09505148 -0.08202093 0.058050815
v -0.09620112 -0.08149217 0.05862133
v -0.09746621 -0.0807547346 0.05921794
v -0.09615367 -0.0800286159 0.05921794
v -0.09701608 -0.08001906 0.0593950562
v -0.09861282 -0.07868212 0.0600561537
v -0.09730029 -0.07795599 0.0600561537
v -0.09785135 -0.07850923 0.05999368
v -0.09977128 -0.07658809 0.060565047
v -0.0984587446 -0.07586197 0.060565047
v -0.09953323 -0.07546906 0.0606711432
v -0.100911655 -0.07452676 0.0607606769
v -0.101168469 -0.07251321 0.060705822
v -0.0995991156 -0.07380064 0.0607606769
v -0.102030046 -0.0725051463 0.0606675632
v -0.100717515 -0.07177903 0.0606675632
v -0.103172913 -0.070439294 0.0602764226
v -0.101860382 -0.0697131753 0.0602764226
v -0.102830023 -0.06950979 0.0601147339
v -0.104318194 -0.0683691055 0.05956458
v -0.103005655 -0.06764298 0.05956458
v -0.103661925 -0.06800604 0.05956458
v -0.1044786 -0.0665298253 0.058840014
v -0.105434611 -0.06635107 0.0585236847
v -0.104122072 -0.06562495 0.0585236847
v -0.105267391 -0.06510401 0.05794356
v -0.10648942 -0.0644444 0.0571628548
v -0.105176881 -0.0637182742 0.0571628548
v -0.106015816 -0.06375116 0.0568829179
v -0.107451282 -0.06270574 0.0555095635
v -0.106138743 -0.0619796179 0.0555095635
v -0.106712162 -0.0624924377 0.05567089
v -0.1073461 -0.06134653 0.05432486
v -0.108293205 -0.0611838736 0.0536081
v -0.106980674 -0.06045775 0.0536081
v -0.108162105 -0.0598715246 0.0521016754
v -0.108995065 -0.0599152 0.0515157059
v -0.107682526 -0.0591890775 0.0515157059
v -0.108800337 -0.05871785 0.0497068167
v -0.109545067 -0.0589210168 0.0492970273
v -0.108232528 -0.0581948943 0.0492970273
v -0.109254286 -0.0578973033 0.0472260341
v -0.109940141 -0.0582068749 0.0470180325
v -0.10862761 -0.0574807525 0.0470180325
v -0.110185191 -0.05776393 0.04474045
v -0.108872652 -0.057037808 0.04474045
v -0.110185191 -0.05776393 0.04474045
v -0.109940141 -0.0582068749 0.0470180325
v -0.110292554 -0.057569854 0.0481668
v -0.109545067 -0.0589210168 0.0492970273
v -0.110153534 -0.0578211471 0.0517053865
v -0.108995065 -0.0599152 0.0515157059
v -0.109751351 -0.0585481338 0.0552416071
v -0.108293205 -0.0611838736 0.0536081
v -0.107451282 -0.06270574 0.0555095635
v -0.10908626 -0.0597503446 0.0586502366
v -0.10648942 -0.0644444 0.0571628548
v -0.108177051 -0.06139384 0.06180913
v -0.105434611 -0.06635107 0.0585236847
v -0.107059345 -0.0634142 0.06461342
v -0.104318194 -0.0683691055 0.05956458
v -0.105781212 -0.0657245442 0.06698676
v -0.103172913 -0.070439294 0.0602764226
v -0.104396947 -0.06822674 0.06888725
v -0.102030046 -0.0725051463 0.0606675632
v -0.102895565 -0.0709406361 0.07036024
v -0.100911655 -0.07452676 0.0607606769
v -0.1012526 -0.07391046 0.07140182
v -0.09977128 -0.07658809 0.060565047
v -0.09951339 -0.0770542547 0.07193741
v -0.09861282 -0.07868212 0.0600561537
v -0.09773436 -0.08027002 0.07192123
v -0.09597739 -0.08344593 0.07134412
v -0.09746621 -0.0807547346 0.05921794
v -0.09430281 -0.0864728838 0.07023573
v -0.09636402 -0.08274705 0.058050815
v -0.09276275 -0.08925669 0.06866009
v -0.09533879 -0.08460025 0.05657353
v -0.09139612 -0.09172701 0.06670588
v -0.09017847 -0.09392804 0.0643688142
v -0.09442 -0.08626105 0.0548227243
v -0.0891025 -0.09587296 0.0616004951
v -0.0936313 -0.08768672 0.0528499819
v -0.08821852 -0.0974708349 0.05846035
v -0.0929885358 -0.08884857 0.0507168956
v -0.08756799 -0.09864672 0.05503975
v -0.08717791 -0.09935184 0.0514540821
v -0.09249892 -0.0897336 0.0484891273
v -0.0870572552 -0.09956994 0.04783013
v -0.09216129 -0.09034389 0.0462305062
v -0.08719649 -0.09931825 0.044291582
v -0.09196489 -0.0906989 0.0439541563
v -0.08757012 -0.09864288 0.04094594
v -0.09190413 -0.09080873 0.04156436
v -0.0881710351 -0.0975566655 0.0377446637
v -0.09199448 -0.090645425 0.0391007736
v -0.0890183151 -0.09602513 0.0346558839
v -0.0922465846 -0.09018972 0.0366246738
v -0.09010381 -0.094062984 0.03179812
v -0.0926631838 -0.0894366652 0.03420409
v -0.09140177 -0.0917167962 0.0292847417
v -0.09323804 -0.08839757 0.03190816
v -0.09395599 -0.08709979 0.029800836
v -0.09287028 -0.0890623257 0.02721021
v -0.0947943255 -0.08558442 0.0279350653
v -0.09445562 -0.08619666 0.0256386455
v -0.09572501 -0.08390212 0.0263485163
v -0.096098654 -0.0832267255 0.0245975014
v -0.09671751 -0.08210809 0.0250615459
v -0.09774159 -0.08025696 0.0240775682
v -0.09642905 -0.07953084 0.0240775682
v -0.09540497 -0.08138197 0.0250615459
v -0.094786115 -0.08250061 0.0245975014
v -0.0944124758 -0.083176 0.0263485163
v -0.09314309 -0.08547054 0.0256386455
v -0.093481794 -0.0848583 0.0279350653
v -0.09155774 -0.08833621 0.02721021
v -0.0926434547 -0.08637367 0.029800836
v -0.09008924 -0.09099067 0.0292847417
v -0.0919255 -0.0876714438 0.03190816
v -0.09135065 -0.08871055 0.03420409
v -0.08879128 -0.0933368653 0.03179812
v -0.0909340456 -0.0894636 0.0366246738
v -0.0877057761 -0.09529901 0.0346558839
v -0.09068194 -0.0899193 0.0391007736
v -0.0868585 -0.09683055 0.0377446637
v -0.0905916 -0.0900826 0.04156436
v -0.08625759 -0.09791675 0.04094594
v -0.09065236 -0.08997277 0.0439541563
v -0.08588396 -0.09859213 0.044291582
v -0.09084876 -0.08961777 0.0462305062
v -0.0857447162 -0.09884382 0.04783013
v -0.09118638 -0.0890074745 0.0484891273
v -0.08586538 -0.09862571 0.0514540821
v -0.091676 -0.08812245 0.0507168956
v -0.08625546 -0.0979206041 0.05503975
v -0.0869059861 -0.0967447162 0.05846035
v -0.09231876 -0.0869606 0.0528499819
v -0.08778996 -0.0951468349 0.0616004951
v -0.09310746 -0.08553493 0.0548227243
v -0.08886593 -0.09320192 0.0643688142
v -0.09402626 -0.08387412 0.05657353
v -0.0900835842 -0.09100089 0.06670588
v -0.0914502144 -0.08853057 0.06866009
v -0.09505148 -0.08202093 0.058050815
v -0.09299028 -0.08574676 0.07023573
v -0.09615367 -0.0800286159 0.05921794
v -0.09466485 -0.0827198 0.07134412
v -0.09730029 -0.07795599 0.0600561537
v -0.09642182 -0.0795439 0.07192123
v -0.09820086 -0.07632813 0.07193741
v -0.0984587446 -0.07586197 0.060565047
v -0.09994006 -0.07318434 0.07140182
v -0.0995991156 -0.07380064 0.0607606769
v -0.101583034 -0.07021452 0.07036024
v -0.100717515 -0.07177903 0.0606675632
v -0.103084415 -0.06750062 0.06888725
v -0.101860382 -0.0697131753 0.0602764226
v -0.104468681 -0.06499842 0.06698676
v -0.103005655 -0.06764298 0.05956458
v -0.105746806 -0.06268808 0.06461342
v -0.104122072 -0.06562495 0.0585236847
v -0.106864512 -0.060667716 0.06180913
v -0.105176881 -0.0637182742 0.0571628548
v -0.107773729 -0.0590242222 0.0586502366
v -0.106138743 -0.0619796179 0.0555095635
v -0.10843882 -0.05782201 0.0552416071
v -0.106980674 -0.06045775 0.0536081
v -0.107682526 -0.0591890775 0.0515157059
v -0.108841 -0.0570950247 0.0517053865
v -0.108232528 -0.0581948943 0.0492970273
v -0.108980022 -0.05684373 0.0481668
v -0.10862761 -0.0574807525 0.0470180325
v -0.108872652 -0.057037808 0.04474045
v -0.09606142 -0.0817447 0.0243430175
v -0.09774159 -0.08025696 0.0240775682
v -0.09642905 -0.07953084 0.0240775682
v -0.094786115 -0.08250061 0.0245975014
v -0.096098654 -0.0832267255 0.0245975014
v -0.09502946 -0.0836100653 0.0248079747
v -0.09314309 -0.08547054 0.0256386455
v -0.09445562 -0.08619666 0.0256386455
v -0.0940028057 -0.08546585 0.0254793465
v -0.0929957256 -0.0872862339 0.02635895
v -0.09155774 -0.08833621 0.02721021
v -0.09287028 -0.0890623257 0.02721021
v -0.09202287 -0.0890447646 0.0274429955
v -0.0910985842 -0.09071551 0.0287218727
v -0.09008924 -0.09099067 0.0292847417
v -0.09140177 -0.0917167962 0.0292847417
v -0.09023622 -0.0922743157 0.0301803425
v -0.08879128 -0.0933368653 0.03179812
v -0.09010381 -0.094062984 0.03179812
v -0.08944754 -0.0936999246 0.03179812
v -0.08874219 -0.09497492 0.0335508063
v -0.0877057761 -0.09529901 0.0346558839
v -0.0890183151 -0.09602513 0.0346558839
v -0.08812728 -0.09608644 0.03541107
v -0.0868585 -0.09683055 0.0377446637
v -0.0881710351 -0.0975566655 0.0377446637
v -0.0876072049 -0.09702651 0.0373500139
v -0.08718368 -0.09779209 0.03933848
v -0.08625759 -0.09791675 0.04094594
v -0.08757012 -0.09864288 0.04094594
v -0.0868555158 -0.0983852744 0.0413505062
v -0.08661295 -0.09882374 0.04343339
v -0.08588396 -0.09859213 0.044291582
v -0.08719649 -0.09931825 0.044291582
v -0.08645887 -0.0991022438 0.0456012264
v -0.0857447162 -0.09884382 0.04783013
v -0.0870572552 -0.09956994 0.04783013
v -0.0864009857 -0.09920688 0.04783013
v -0.0864449441 -0.09912742 0.0500927232
v -0.08586538 -0.09862571 0.0514540821
v -0.08717791 -0.09935184 0.0514540821
v -0.08659393 -0.0988581 0.0523591
v -0.08625546 -0.0979206041 0.05503975
v -0.08756799 -0.09864672 0.05503975
v -0.0868483558 -0.09839821 0.0545980223
v -0.08720573 -0.09775223 0.0567783266
v -0.0869059861 -0.0967447162 0.05846035
v -0.08821852 -0.0974708349 0.05846035
v -0.087660715 -0.096929796 0.0588703565
v -0.08820542 -0.0959451944 0.0608472563
v -0.08778996 -0.0951468349 0.0616004951
v -0.0891025 -0.09587296 0.0616004951
v -0.08882979 -0.0948165655 0.06268613
v -0.08886593 -0.09320192 0.0643688142
v -0.09017847 -0.09392804 0.0643688142
v -0.0895222 -0.09356498 0.0643688142
v -0.09027 -0.09221326 0.06588237
v -0.0900835842 -0.09100089 0.06670588
v -0.09139612 -0.09172701 0.06670588
v -0.0910637 -0.09077856 0.06722449
v -0.0914502144 -0.08853057 0.06866009
v -0.09276275 -0.08925669 0.06866009
v -0.09192554 -0.08922071 0.0684345141
v -0.09285692 -0.08753715 0.0695012137
v -0.09299028 -0.08574676 0.07023573
v -0.09430281 -0.0864728838 0.07023573
v -0.0938494653 -0.08574302 0.07040143
v -0.0948925242 -0.08385759 0.07111486
v -0.09466485 -0.0827198 0.07134412
v -0.09597739 -0.08344593 0.07134412
v -0.0959734544 -0.08190371 0.07162521
v -0.09642182 -0.0795439 0.07192123
v -0.09773436 -0.08027002 0.07192123
v -0.09707809 -0.07990696 0.07192123
v -0.09841372 -0.0774926841 0.0719861239
v -0.09820086 -0.07632813 0.07193741
v -0.09951339 -0.0770542547 0.07193741
v -0.09973543 -0.07510356 0.0717365146
v -0.09994006 -0.07318434 0.07140182
v -0.1012526 -0.07391046 0.07140182
v -0.101018094 -0.07278503 0.07118636
v -0.101583034 -0.07021452 0.07036024
v -0.102895565 -0.0709406361 0.07036024
v -0.102239296 -0.07057758 0.07036024
v -0.103380561 -0.06851463 0.0692911
v -0.103084415 -0.06750062 0.06888725
v -0.104396947 -0.06822674 0.06888725
v -0.104442626 -0.06659485 0.06799735
v -0.104468681 -0.06499842 0.06698676
v -0.105781212 -0.0657245442 0.06698676
v -0.1054566 -0.0647619963 0.06643672
v -0.105746806 -0.06268808 0.06461342
v -0.107059345 -0.0634142 0.06461342
v -0.106403075 -0.0630511343 0.06461342
v -0.107259192 -0.0615036264 0.06254698
v -0.106864512 -0.060667716 0.06180913
v -0.108177051 -0.06139384 0.06180913
v -0.108004034 -0.0601572543 0.06026801
v -0.107773729 -0.0590242222 0.0586502366
v -0.10908626 -0.0597503446 0.0586502366
v -0.108620204 -0.059043467 0.05781691
v -0.10843882 -0.05782201 0.0552416071
v -0.109751351 -0.0585481338 0.0552416071
v -0.109095082 -0.05818507 0.0552416071
v -0.1094217 -0.0575946867 0.05259447
v -0.108841 -0.0570950247 0.0517053865
v -0.110153534 -0.0578211471 0.0517053865
v -0.109598994 -0.05727421 0.0499288328
v -0.108980022 -0.05684373 0.0481668
v -0.110292554 -0.057569854 0.0481668
v -0.109631568 -0.05721532 0.04729562
v -0.108872652 -0.057037808 0.04474045
v -0.110185191 -0.05776393 0.04474045
f 1 2 3
f 1 3 4
f 5 1 4
f 6 4 3
f 5 4 7
f 4 6 8
f 4 8 7
f 6 9 8
f 7 8 10
f 9 11 8
f 8 11 10
f 9 12 11
f 10 11 13
f 12 14 11
f 11 14 13
f 12 15 14
f 15 16 14
f 13 14 17
f 14 16 17
f 15 18 16
f 17 16 19
f 18 20 16
f 16 21 19
f 20 22 16
f 16 22 21
f 20 23 22
f 22 24 21
f 23 25 22
f 22 25 24
f 23 26 25
f 25 27 24
f 26 28 25
f 25 28 27
f 26 29 28
f 28 30 27
f 29 31 28
f 28 31 30
f 29 32 31
f 31 33 30
f 32 34 31
f 31 34 33
f 32 35 34
f 34 36 33
f 35 37 34
f 34 37 36
f 35 38 37
f 38 36 37
f 38 35 39
f 38 40 36
f 41 38 39
f 38 41 40
f 41 39 42
f 41 43 40
f 44 41 42
f 41 44 43
f 44 42 45
f 44 46 43
f 47 44 45
f 44 47 46
f 47 45 48
f 47 49 46
f 50 47 48
f 47 50 49
f 50 48 51
f 50 51 49
f 48 52 51
f 49 51 53
f 52 54 51
f 51 54 53
f 52 55 54
f 53 54 56
f 55 57 54
f 54 57 56
f 55 58 57
f 56 57 59
f 58 60 57
f 57 60 59
f 58 61 60
f 59 60 62
f 61 63 60
f 60 63 62
f 61 64 63
f 64 65 63
f 62 63 66
f 63 65 66
f 64 67 65
f 66 65 68
f 67 69 65
f 65 70 68
f 69 71 65
f 65 71 70
f 69 72 71
f 71 73 70
f 72 74 71
f 71 74 73
f 72 75 74
f 75 73 74
f 75 72 76
f 75 77 73
f 78 75 76
f 75 78 77
f 78 76 79
f 78 80 77
f 81 78 79
f 78 81 80
f 81 79 82
f 81 83 80
f 84 81 82
f 81 84 83
f 84 82 85
f 84 85 83
f 82 86 85
f 83 85 87
f 86 88 85
f 85 88 87
f 86 89 88
f 87 88 90
f 89 91 88
f 88 91 90
f 89 92 91
f 90 91 93
f 92 94 91
f 91 94 93
f 92 95 94
f 93 94 96
f 95 97 94
f 97 96 94
f 97 98 96
f 99 100 101
f 100 102 101
f 102 103 101
f 102 104 103
f 104 105 103
f 104 106 105
f 106 107 105
f 107 108 105
f 107 109 108
f 109 110 108
f 109 111 110
f 111 112 110
f 111 113 112
f 113 114 112
f 113 115 114
f 115 116 114
f 115 117 116
f 117 118 116
f 117 119 118
f 119 120 118
f 119 121 120
f 121 122 120
f 121 123 122
f 123 124 122
f 123 125 124
f 123 126 125
f 126 127 125
f 126 128 127
f 128 129 127
f 128 130 129
f 130 131 129
f 130 132 131
f 130 133 132
f 133 134 132
f 133 135 134
f 135 136 134
f 135 137 136
f 137 138 136
f 137 139 138
f 137 140 139
f 140 141 139
f 140 142 141
f 142 143 141
f 142 144 143
f 144 145 143
f 144 146 145
f 146 147 145
f 146 148 147
f 148 149 147
f 148 150 149
f 150 151 149
f 150 152 151
f 152 153 151
f 152 154 153
f 154 155 153
f 155 156 153
f 155 157 156
f 157 158 156
f 157 159 158
f 159 160 158
f 159 161 160
f 161 162 160
f 163 164 165
f 164 166 165
f 166 167 165
f 166 168 167
f 168 169 167
f 168 170 169
f 170 171 169
f 170 172 171
f 172 173 171
f 173 174 171
f 173 175 174
f 175 176 174
f 175 177 176
f 177 178 176
f 177 179 178
f 179 180 178
f 179 181 180
f 181 182 180
f 181 183 182
f 183 184 182
f 183 185 184
f 185 186 184
f 185 187 186
f 187 188 186
f 187 189 188
f 187 190 189
f 190 191 189
f 190 192 191
f 192 193 191
f 192 194 193
f 194 195 193
f 194 196 195
f 194 197 196
f 197 198 196
f 197 199 198
f 199 200 198
f 199 201 200
f 201 202 200
f 201 203 202
f 201 204 203
f 204 205 203
f 204 206 205
f 206 207 205
f 206 208 207
f 208 209 207
f 208 210 209
f 210 211 209
f 210 212 211
f 212 213 211
f 212 214 213
f 214 215 213
f 214 216 215
f 216 217 215
f 216 218 217
f 218 219 217
f 218 220 219
f 220 221 219
f 221 222 219
f 221 223 222
f 223 224 222
f 223 225 224
f 225 226 224
f 227 228 229
f 227 229 230
f 228 227 231
f 232 227 230
f 227 232 231
f 230 233 232
f 231 232 234
f 233 235 232
f 232 235 234
f 233 236 235
f 236 234 235
f 236 233 237
f 236 238 234
f 236 237 239
f 238 236 239
f 240 239 237
f 238 239 240
f 241 240 237
f 242 238 240
f 243 240 241
f 242 240 243
f 244 243 241
f 245 242 243
f 246 243 244
f 246 245 243
f 247 246 244
f 246 247 245
f 247 244 248
f 247 249 245
f 250 247 248
f 247 250 249
f 248 251 250
f 250 252 249
f 251 253 250
f 250 253 252
f 251 254 253
f 254 252 253
f 254 251 255
f 254 256 252
f 254 255 257
f 256 254 257
f 258 257 255
f 256 257 258
f 259 258 255
f 260 256 258
f 261 258 259
f 260 258 261
f 262 261 259
f 263 260 261
f 264 261 262
f 264 263 261
f 265 264 262
f 264 265 263
f 265 262 266
f 265 267 263
f 268 265 266
f 265 268 267
f 266 269 268
f 268 270 267
f 269 271 268
f 268 271 270
f 269 272 271
f 272 270 271
f 272 269 273
f 272 274 270
f 272 273 275
f 274 272 275
f 276 275 273
f 274 275 276
f 277 276 273
f 278 274 276
f 279 276 277
f 278 276 279
f 280 279 277
f 281 278 279
f 282 279 280
f 282 281 279
f 283 282 280
f 282 283 281
f 283 280 284
f 283 285 281
f 286 283 284
f 283 286 285
f 286 284 287
f 286 288 285
f 286 287 289
f 288 286 289
f 290 289 287
f 288 289 290
f 291 290 287
f 292 288 290
f 293 290 291
f 293 292 290
f 294 293 291
f 293 294 292
f 294 291 295
f 294 296 292
f 297 294 295
f 294 297 296
f 297 295 298
f 297 299 296
f 297 298 300
f 299 297 300
f 301 300 298
f 299 300 301
f 302 301 298
f 303 299 301
f 304 301 302
f 303 301 304
f 305 304 302
f 306 303 304
f 307 304 305
f 306 304 307
f 308 307 305
f 309 306 307
f 310 307 308
f 310 309 307
f 311 310 308
f 310 311 309
f 311 308 312
f 311 313 309
f 314 311 312
f 311 314 313
f 314 312 315
f 314 316 313
f 317 314 315
f 314 317 316
f 317 315 318
f 317 319 316
f 317 318 320
f 319 317 320
f 321 320 318
f 319 320 321
f 322 321 318
f 323 319 321
f 324 321 322
f 323 321 324
f 325 324 322
f 326 323 324
f 327 324 325
f 326 324 327
f 328 327 325
f 329 326 327
f 330 327 328
f 330 329 327
f 331 330 328
f 330 331 329
f 331 328 332
f 331 333 329
f 334 331 332
f 331 334 333
f 334 332 335
f 334 336 333
f 337 334 335
f 334 337 336
f 337 335 338
f 337 339 336
f 339 337 338
