# ROS coordinates: X forward, Y left, Z up; units are metres.
o mesh
v 0.144931078 -0.006543985 0.0663799942
v 0.144931078 -0.006543985 0.06206
v 0.14499554 -0.007052127 0.06206
v 0.145012751 -0.007125966 0.06422
v 0.144995525 -0.007052127 0.0663799942
v 0.145161033 -0.0075676525 0.06206
v 0.145161033 -0.0075676525 0.0663799942
v 0.1452279 -0.00771219842 0.06422
v 0.14543283 -0.008060509 0.06206
v 0.14543283 -0.008060509 0.0663799942
v 0.145580634 -0.00825675 0.06422
v 0.145804092 -0.00849852152 0.06206
v 0.145804092 -0.00849852152 0.0663799942
v 0.146053851 -0.008713011 0.06422
v 0.146255359 -0.008853548 0.06206
v 0.146255359 -0.008853548 0.0663799942
v 0.146610916 -0.009045643 0.06422
v 0.1467578 -0.00910719 0.06206
v 0.1467578 -0.00910719 0.0663799942
v 0.147204608 -0.009239253 0.06422
v 0.147279024 -0.00925376453 0.06206
v 0.14778918 -0.009299632 0.06422
v 0.147279024 -0.00925376453 0.0663799942
v 0.14778918 -0.009299632 0.06206
v 0.14778918 -0.009299632 0.0663799942
v 0.148299336 -0.00925376453 0.06206
v 0.148299336 -0.00925376453 0.0663799942
v 0.148373753 -0.009239253 0.06422
v 0.148820549 -0.00910719 0.06206
v 0.148820549 -0.00910719 0.0663799942
v 0.148820549 -0.00910719 0.06422
v 0.1492536 -0.008896265 0.06422
v 0.149323 -0.008853548 0.06206
v 0.149323 -0.008853548 0.0663799942
v 0.149652362 -0.008609452 0.06422
v 0.149774268 -0.00849852152 0.06206
v 0.149774268 -0.00849852152 0.0663799942
v 0.149997726 -0.00825675 0.06422
v 0.150145516 -0.008060509 0.06206
v 0.150145516 -0.008060509 0.0663799942
v 0.150274888 -0.007854145 0.06422
v 0.150417328 -0.0075676525 0.06206
v 0.150417328 -0.0075676525 0.0663799942
v 0.150475442 -0.00742127048 0.06422
v 0.15058282 -0.007052127 0.06206
v 0.15058282 -0.007052127 0.0663799942
v 0.15059796 -0.00697845 0.06422
v 0.150647268 -0.006543985 0.06206
v 0.150647268 -0.006543985 0.0663799942
v 0.14543283 -0.008060509 0.06206
v 0.145161033 -0.0075676525 0.06206
v 0.14499554 -0.007052127 0.06206
v 0.145804092 -0.00849852152 0.06206
v 0.144931078 -0.006543985 0.06206
v 0.146255359 -0.008853548 0.06206
v 0.1467578 -0.00910719 0.06206
v 0.147279024 -0.00925376453 0.06206
v 0.144850641 -0.005956623 0.06206
v 0.14778918 -0.00181963178 0.06206
v 0.14465034 -0.005385674 0.06206
v 0.14778918 -0.009299632 0.06206
v 0.144338876 -0.00486693624 0.06206
v 0.143938258 -0.00442994526 0.06206
v 0.1433568 -0.00382941286 0.06206
v 0.142852813 -0.00312640727 0.06206
v 0.142451435 -0.00233704178 0.06206
v 0.142172813 -0.00148525462 0.06206
v 0.142029226 -0.0006006365 0.06206
v 0.142023355 0.000284895767 0.06206
v 0.142148286 0.00114082638 0.06206
v 0.142389089 0.00194128929 0.06206
v 0.142742813 0.00269864826 0.06206
v 0.143219918 0.00342017924 0.06206
v 0.143814281 0.00407663127 0.06206
v 0.144510746 0.00464064674 0.06206
v 0.145286024 0.005090222 0.06206
v 0.14611125 0.00541145867 0.06206
v 0.14695546 0.005599925 0.06206
v 0.14778918 0.0056603686 0.06206
v 0.148622885 0.005599925 0.06206
v 0.149467111 0.00541145867 0.06206
v 0.150292337 0.005090222 0.06206
v 0.151067615 0.00464064674 0.06206
v 0.151764065 0.00407663127 0.06206
v 0.152358443 0.00342017924 0.06206
v 0.152835533 0.00269864826 0.06206
v 0.153189272 0.00194128929 0.06206
v 0.153430074 0.00114082638 0.06206
v 0.153555 0.000284895767 0.06206
v 0.153549135 -0.0006006365 0.06206
v 0.153405532 -0.00148525462 0.06206
v 0.153126925 -0.00233704178 0.06206
v 0.152725548 -0.00312640727 0.06206
v 0.152221546 -0.00382941286 0.06206
v 0.1516401 -0.00442994526 0.06206
v 0.15123947 -0.00486693624 0.06206
v 0.150928 -0.005385674 0.06206
v 0.150727719 -0.005956623 0.06206
v 0.148299336 -0.00925376453 0.06206
v 0.150647268 -0.006543985 0.06206
v 0.148820549 -0.00910719 0.06206
v 0.149323 -0.008853548 0.06206
v 0.149774268 -0.00849852152 0.06206
v 0.15058282 -0.007052127 0.06206
v 0.150145516 -0.008060509 0.06206
v 0.150417328 -0.0075676525 0.06206
v 0.150145516 -0.008060509 0.0663799942
v 0.150417328 -0.0075676525 0.0663799942
v 0.15058282 -0.007052127 0.0663799942
v 0.149774268 -0.00849852152 0.0663799942
v 0.150647268 -0.006543985 0.0663799942
v 0.149323 -0.008853548 0.0663799942
v 0.148820549 -0.00910719 0.0663799942
v 0.148299336 -0.00925376453 0.0663799942
v 0.150727719 -0.005956623 0.0663799942
v 0.14778918 -0.00181963178 0.0663799942
v 0.150928 -0.005385674 0.0663799942
v 0.14778918 -0.009299632 0.0663799942
v 0.15123947 -0.00486693624 0.0663799942
v 0.1516401 -0.00442994526 0.0663799942
v 0.152221546 -0.00382941286 0.0663799942
v 0.152725548 -0.00312640727 0.0663799942
v 0.153126925 -0.00233704178 0.0663799942
v 0.153405532 -0.00148525462 0.0663799942
v 0.153549135 -0.0006006365 0.0663799942
v 0.153555 0.000284895767 0.0663799942
v 0.153430074 0.00114082638 0.0663799942
v 0.153189272 0.00194128929 0.0663799942
v 0.152835533 0.00269864826 0.0663799942
v 0.152358443 0.00342017924 0.0663799942
v 0.151764065 0.00407663127 0.0663799942
v 0.151067615 0.00464064674 0.0663799942
v 0.150292337 0.005090222 0.0663799942
v 0.149467111 0.00541145867 0.0663799942
v 0.148622885 0.005599925 0.0663799942
v 0.14778918 0.0056603686 0.0663799942
v 0.14695546 0.005599925 0.0663799942
v 0.14611125 0.00541145867 0.0663799942
v 0.145286009 0.005090222 0.0663799942
v 0.144510746 0.00464064674 0.0663799942
v 0.143814281 0.00407663127 0.0663799942
v 0.143219918 0.00342017924 0.0663799942
v 0.142742828 0.00269864826 0.0663799942
v 0.142389089 0.00194128929 0.0663799942
v 0.142148286 0.00114082638 0.0663799942
v 0.142023355 0.000284895767 0.0663799942
v 0.142029226 -0.0006006365 0.0663799942
v 0.142172813 -0.00148525462 0.0663799942
v 0.142451435 -0.00233704178 0.0663799942
v 0.142852813 -0.00312640727 0.0663799942
v 0.1433568 -0.00382941286 0.0663799942
v 0.143938258 -0.00442994526 0.0663799942
v 0.144338876 -0.00486693624 0.0663799942
v 0.144650355 -0.005385674 0.0663799942
v 0.144850641 -0.005956623 0.0663799942
v 0.147279024 -0.00925376453 0.0663799942
v 0.144931078 -0.006543985 0.0663799942
v 0.1467578 -0.00910719 0.0663799942
v 0.146255359 -0.008853548 0.0663799942
v 0.145804092 -0.00849852152 0.0663799942
v 0.144995525 -0.007052127 0.0663799942
v 0.14543283 -0.008060509 0.0663799942
v 0.145161033 -0.0075676525 0.0663799942
v 0.143938258 -0.00442994526 0.06206
v 0.144338876 -0.00486693624 0.06422
v 0.143938258 -0.00442994526 0.0663799942
v 0.144338876 -0.00486693624 0.06206
v 0.144338876 -0.00486693624 0.0663799942
v 0.14465034 -0.005385674 0.06206
v 0.144650355 -0.005385674 0.06422
v 0.144650355 -0.005385674 0.0663799942
v 0.144850641 -0.005956623 0.06206
v 0.144850641 -0.005956623 0.06422
v 0.144850641 -0.005956623 0.0663799942
v 0.144931078 -0.006543985 0.06206
v 0.144931078 -0.006543985 0.0663799942
v 0.1516401 -0.00442994526 0.0663799942
v 0.15123947 -0.00486693624 0.06422
v 0.1516401 -0.00442994526 0.06206
v 0.15123947 -0.00486693624 0.0663799942
v 0.15123947 -0.00486693624 0.06206
v 0.150928 -0.005385674 0.0663799942
v 0.150928 -0.005385674 0.06422
v 0.150928 -0.005385674 0.06206
v 0.150727719 -0.005956623 0.0663799942
v 0.150727719 -0.005956623 0.06422
v 0.150727719 -0.005956623 0.06206
v 0.150647268 -0.006543985 0.0663799942
v 0.150647268 -0.006543985 0.06206
v 0.143938258 -0.00442994526 0.0663799942
v 0.143495947 -0.00398959452 0.06422
v 0.143938258 -0.00442994526 0.06206
v 0.1433568 -0.00382941286 0.0663799942
v 0.1433568 -0.00382941286 0.06206
v 0.143093467 -0.003489911 0.06422
v 0.142852813 -0.00312640727 0.0663799942
v 0.142852813 -0.00312640727 0.06206
v 0.142741948 -0.00293634925 0.06422
v 0.142451435 -0.00233704178 0.0663799942
v 0.142451435 -0.00233704178 0.06206
v 0.142451435 -0.00233704178 0.06422
v 0.142230138 -0.0017025033 0.06422
v 0.142172813 -0.00148525462 0.0663799942
v 0.142172813 -0.00148525462 0.06206
v 0.142083749 -0.001045065 0.06422
v 0.142029226 -0.0006006365 0.0663799942
v 0.142029226 -0.0006006365 0.06206
v 0.142014951 -0.000378094148 0.06422
v 0.142023355 0.000284895767 0.0663799942
v 0.142023355 0.000284895767 0.06206
v 0.142023355 0.000284895767 0.06422
v 0.14210549 0.000931137241 0.06422
v 0.142148286 0.00114082638 0.0663799942
v 0.142148286 0.00114082638 0.06206
v 0.142255381 0.001549359 0.06422
v 0.142389089 0.00194128929 0.0663799942
v 0.142389089 0.00194128929 0.06206
v 0.142465949 0.00213241437 0.06422
v 0.142742828 0.00269864826 0.0663799942
v 0.142742813 0.00269864826 0.06206
v 0.142742828 0.00269864826 0.06422
v 0.14308925 0.00324476 0.06422
v 0.143219918 0.00342017924 0.0663799942
v 0.143219918 0.00342017924 0.06206
v 0.143503174 0.003758336 0.06422
v 0.143814281 0.00407663127 0.0663799942
v 0.143814281 0.00407663127 0.06206
v 0.143979609 0.00422727736 0.06422
v 0.144510746 0.00464064674 0.0663799942
v 0.144510746 0.00464064674 0.06206
v 0.144510746 0.00464064674 0.06422
v 0.144987792 0.0049361256 0.06422
v 0.145286009 0.005090222 0.0663799942
v 0.145286024 0.005090222 0.06206
v 0.145488843 0.005182901 0.06422
v 0.14611125 0.00541145867 0.0663799942
v 0.14611125 0.00541145867 0.06206
v 0.14600642 0.005378566 0.06422
v 0.146532908 0.005522191 0.06422
v 0.14695546 0.005599925 0.0663799942
v 0.14695546 0.005599925 0.06206
v 0.147060826 0.00561429327 0.06422
v 0.1475832 0.00565669639 0.06422
v 0.14778918 0.0056603686 0.0663799942
v 0.14778918 0.0056603686 0.06206
v 0.148098871 0.005652066 0.06422
v 0.148622885 0.005599925 0.0663799942
v 0.148622885 0.005599925 0.06206
v 0.148622885 0.005599925 0.06422
v 0.1491511 0.00549762556 0.06422
v 0.149467111 0.00541145867 0.0663799942
v 0.149467111 0.00541145867 0.06206
v 0.149676412 0.00534358853 0.06422
v 0.150292337 0.005090222 0.0663799942
v 0.150292337 0.005090222 0.06206
v 0.150191292 0.00513758 0.06422
v 0.150688112 0.00488082366 0.06422
v 0.151067615 0.00464064674 0.0663799942
v 0.151067615 0.00464064674 0.06206
v 0.151159525 0.00457602134 0.06422
v 0.151598737 0.00422727736 0.06422
v 0.151764065 0.00407663127 0.0663799942
v 0.151764065 0.00407663127 0.06206
v 0.151999936 0.00383990584 0.06422
v 0.152358443 0.00342017924 0.0663799942
v 0.152358443 0.00342017924 0.06206
v 0.152358443 0.00342017924 0.06422
v 0.15267095 0.002974993 0.06422
v 0.152835533 0.00269864826 0.0663799942
v 0.152835533 0.00269864826 0.06206
v 0.152935565 0.00251153344 0.06422
v 0.153189272 0.00194128929 0.0663799942
v 0.153189272 0.00194128929 0.06206
v 0.1531518 0.00203693751 0.06422
v 0.153322965 0.001549359 0.06422
v 0.153430074 0.00114082638 0.0663799942
v 0.153430074 0.00114082638 0.06206
v 0.1534524 0.00103639672 0.06422
v 0.153535575 0.0005027647 0.06422
v 0.153555 0.000284895767 0.0663799942
v 0.153555 0.000284895767 0.06206
v 0.1535687 -4.52767126E-05 0.06422
v 0.153549135 -0.0006006365 0.0663799942
v 0.153549135 -0.0006006365 0.06206
v 0.153549135 -0.0006006365 0.06422
v 0.153475568 -0.00115566747 0.06422
v 0.153405532 -0.00148525462 0.0663799942
v 0.153405532 -0.00148525462 0.06206
v 0.153348222 -0.0017025033 0.06422
v 0.153126925 -0.00233704178 0.0663799942
v 0.153126925 -0.00233704178 0.06206
v 0.1531688 -0.002233418 0.06422
v 0.152940467 -0.00274118828 0.06422
v 0.152725548 -0.00312640727 0.0663799942
v 0.152725548 -0.00312640727 0.06206
v 0.152667671 -0.0032194173 0.06422
v 0.15235585 -0.00366278435 0.06422
v 0.152221546 -0.00382941286 0.0663799942
v 0.152221546 -0.00382941286 0.06206
v 0.152011141 -0.00406721374 0.06422
v 0.1516401 -0.00442994526 0.0663799942
v 0.1516401 -0.00442994526 0.06206
f 1 2 3
f 1 3 4
f 5 1 4
f 6 4 3
f 5 4 7
f 4 6 8
f 4 8 7
f 6 9 8
f 7 8 10
f 9 11 8
f 8 11 10
f 9 12 11
f 10 11 13
f 12 14 11
f 11 14 13
f 12 15 14
f 13 14 16
f 15 17 14
f 14 17 16
f 15 18 17
f 16 17 19
f 18 20 17
f 17 20 19
f 18 21 20
f 21 22 20
f 19 20 23
f 20 22 23
f 21 24 22
f 23 22 25
f 24 26 22
f 22 27 25
f 26 28 22
f 22 28 27
f 26 29 28
f 28 30 27
f 29 31 28
f 28 31 30
f 29 32 31
f 32 30 31
f 33 32 29
f 32 34 30
f 35 32 33
f 32 35 34
f 36 35 33
f 35 37 34
f 38 35 36
f 35 38 37
f 39 38 36
f 38 40 37
f 41 38 39
f 38 41 40
f 42 41 39
f 41 43 40
f 44 41 42
f 41 44 43
f 45 44 42
f 44 46 43
f 47 44 45
f 44 47 46
f 48 47 45
f 47 49 46
f 47 48 49
f 50 51 52
f 53 50 52
f 53 52 54
f 55 53 54
f 56 55 54
f 57 56 54
f 57 54 58
f 59 57 58
f 59 58 60
f 57 59 61
f 59 60 62
f 63 59 62
f 59 63 64
f 59 64 65
f 66 59 65
f 59 66 67
f 59 67 68
f 69 59 68
f 59 69 70
f 59 70 71
f 72 59 71
f 59 72 73
f 59 73 74
f 75 59 74
f 59 75 76
f 59 76 77
f 78 59 77
f 59 78 79
f 59 79 80
f 81 59 80
f 59 81 82
f 59 82 83
f 84 59 83
f 59 84 85
f 59 85 86
f 87 59 86
f 59 87 88
f 59 88 89
f 90 59 89
f 59 90 91
f 59 91 92
f 93 59 92
f 59 93 94
f 59 94 95
f 96 59 95
f 59 96 97
f 59 97 98
f 99 59 98
f 59 99 61
f 98 100 99
f 100 101 99
f 100 102 101
f 102 100 103
f 100 104 103
f 104 105 103
f 104 106 105
f 107 108 109
f 110 107 109
f 110 109 111
f 112 110 111
f 113 112 111
f 114 113 111
f 115 114 111
f 116 114 115
f 117 116 115
f 116 118 114
f 116 117 119
f 116 119 120
f 121 116 120
f 116 121 122
f 116 122 123
f 124 116 123
f 116 124 125
f 116 125 126
f 127 116 126
f 116 127 128
f 116 128 129
f 130 116 129
f 116 130 131
f 116 131 132
f 133 116 132
f 116 133 134
f 116 134 135
f 136 116 135
f 116 136 137
f 116 137 138
f 139 116 138
f 116 139 140
f 116 140 141
f 142 116 141
f 116 142 143
f 116 143 144
f 145 116 144
f 116 145 146
f 116 146 147
f 148 116 147
f 116 148 149
f 116 149 150
f 151 116 150
f 116 151 152
f 116 152 153
f 154 116 153
f 116 154 155
f 116 155 156
f 118 116 156
f 155 157 156
f 157 158 156
f 157 159 158
f 159 157 160
f 157 161 160
f 161 162 160
f 161 163 162
f 164 165 166
f 165 164 167
f 165 168 166
f 165 167 169
f 165 170 168
f 170 165 169
f 170 171 168
f 170 169 172
f 170 173 171
f 173 170 172
f 173 174 171
f 173 172 175
f 173 176 174
f 176 173 175
f 177 178 179
f 178 177 180
f 178 181 179
f 178 180 182
f 178 183 181
f 183 178 182
f 183 184 181
f 183 182 185
f 183 186 184
f 186 183 185
f 186 187 184
f 186 185 188
f 186 189 187
f 189 186 188
f 190 191 192
f 191 190 193
f 191 194 192
f 195 191 193
f 191 195 194
f 195 193 196
f 195 197 194
f 198 195 196
f 195 198 197
f 198 196 199
f 198 200 197
f 201 198 199
f 198 201 200
f 201 199 202
f 201 202 200
f 199 203 202
f 200 202 204
f 203 205 202
f 202 205 204
f 203 206 205
f 204 205 207
f 206 208 205
f 205 208 207
f 206 209 208
f 207 208 210
f 209 211 208
f 208 211 210
f 209 212 211
f 212 210 211
f 212 209 213
f 212 214 210
f 215 212 213
f 212 215 214
f 215 213 216
f 215 217 214
f 218 215 216
f 215 218 217
f 218 216 219
f 218 220 217
f 221 218 219
f 218 221 220
f 221 219 222
f 221 222 220
f 219 223 222
f 220 222 224
f 223 225 222
f 222 225 224
f 223 226 225
f 224 225 227
f 226 228 225
f 225 228 227
f 226 229 228
f 227 228 230
f 229 231 228
f 228 231 230
f 229 232 231
f 232 230 231
f 232 229 233
f 232 234 230
f 235 232 233
f 232 235 234
f 235 233 236
f 235 237 234
f 238 235 236
f 235 238 237
f 238 236 239
f 238 239 237
f 236 240 239
f 237 239 241
f 240 242 239
f 239 242 241
f 240 243 242
f 243 241 242
f 243 240 244
f 243 245 241
f 246 243 244
f 243 246 245
f 246 244 247
f 246 248 245
f 249 246 247
f 246 249 248
f 249 247 250
f 249 250 248
f 247 251 250
f 248 250 252
f 251 253 250
f 250 253 252
f 251 254 253
f 252 253 255
f 254 256 253
f 253 256 255
f 254 257 256
f 257 255 256
f 257 254 258
f 257 259 255
f 257 258 260
f 259 257 260
f 261 260 258
f 259 260 261
f 261 258 262
f 263 259 261
f 264 261 262
f 261 264 263
f 264 262 265
f 264 266 263
f 267 264 265
f 264 267 266
f 267 265 268
f 267 268 266
f 265 269 268
f 266 268 270
f 269 271 268
f 268 271 270
f 269 272 271
f 270 271 273
f 272 274 271
f 271 274 273
f 272 275 274
f 275 273 274
f 275 272 276
f 275 277 273
f 275 276 278
f 277 275 278
f 279 278 276
f 277 278 279
f 279 276 280
f 281 277 279
f 282 279 280
f 279 282 281
f 282 280 283
f 282 284 281
f 285 282 283
f 282 285 284
f 285 283 286
f 285 286 284
f 283 287 286
f 284 286 288
f 287 289 286
f 286 289 288
f 287 290 289
f 288 289 291
f 290 292 289
f 289 292 291
f 290 293 292
f 293 291 292
f 293 290 294
f 293 295 291
f 293 294 296
f 295 293 296
f 297 296 294
f 295 296 297
f 298 297 294
f 299 295 297
f 300 297 298
f 297 300 299
f 301 300 298
f 300 302 299
f 300 301 302
