# ROS coordinates: X forward, Y left, Z up; units are metres.
o mesh
v -0.0422184579 0.108879879 0.0224220715
v -0.0460461453 0.108953483 0.0276914015
v -0.0410375148 0.10885717 0.0231012553
v -0.03979313 0.108833246 0.02370987
v -0.03849144 0.108808212 0.0242400467
v -0.0371398032 0.108782224 0.02468461
v -0.0357466973 0.10875544 0.0250373185
v -0.0444614068 0.108923011 0.0286383666
v -0.0343215726 0.108728036 0.0252930671
v -0.0427856445 0.108890787 0.0294887535
v -0.0314166844 0.108672172 0.02977439
v -0.041027382 0.108856976 0.0302309431
v -0.0328746475 0.108700208 0.02544807
v -0.039197 0.108821779 0.0308542922
v -0.0314166844 0.108672172 0.0255000014
v -0.0373065919 0.108785428 0.0313495025
v -0.02995872 0.108644143 0.02544807
v -0.0353697464 0.10874819 0.0317089446
v -0.0334012359 0.108710334 0.03192694
v -0.0314166844 0.108672172 0.032
v -0.02943213 0.108634017 0.03192694
v -0.0274636187 0.108596161 0.0317089446
v -0.0255267713 0.108558923 0.0313495025
v -0.0236363634 0.108522572 0.0308542922
v -0.021805983 0.108487375 0.0302309431
v -0.02004772 0.108453564 0.0294887535
v -0.0285117943 0.108616315 0.0252930671
v -0.0183719583 0.108421341 0.0286383666
v -0.0270866677 0.108588912 0.0250373185
v -0.01678722 0.108390868 0.0276914015
v -0.0256935619 0.108562127 0.02468461
v -0.024341926 0.108536139 0.0242400467
v -0.023040235 0.108511105 0.02370987
v -0.02179585 0.108487181 0.0231012553
v -0.0206149071 0.108464472 0.0224220715
v -0.0208071582 0.0984663144 0.0224220715
v -0.01697947 0.09839272 0.0276914015
v -0.0219881032 0.0984890237 0.0231012553
v -0.023232488 0.098512955 0.02370987
v -0.024534177 0.09853798 0.0242400467
v -0.0258858148 0.09856398 0.02468461
v -0.0272789188 0.09859076 0.0250373185
v -0.01856421 0.09842319 0.0286383666
v -0.0287040453 0.0986181647 0.0252930671
v -0.0202399734 0.0984554142 0.0294887535
v -0.0316089354 0.09867402 0.02977439
v -0.0219982341 0.09848922 0.0302309431
v -0.0301509723 0.0986459851 0.02544807
v -0.0238286145 0.098524414 0.0308542922
v -0.0316089354 0.09867402 0.0255000014
v -0.0257190242 0.0985607654 0.0313495025
v -0.0330669 0.09870206 0.02544807
v -0.0276558716 0.09859801 0.0317089446
v -0.02962438 0.09863586 0.03192694
v -0.0316089354 0.09867402 0.032
v -0.03359349 0.09871218 0.03192694
v -0.0355619974 0.09875003 0.0317089446
v -0.0374988467 0.09878728 0.0313495025
v -0.0393892527 0.09882363 0.0308542922
v -0.0412196331 0.0988588259 0.0302309431
v -0.0429778956 0.09889264 0.0294887535
v -0.0345138237 0.09872988 0.0252930671
v -0.0446536578 0.09892486 0.0286383666
v -0.0359389521 0.09875728 0.0250373185
v -0.0462383963 0.0989553258 0.0276914015
v -0.0373320542 0.0987840742 0.02468461
v -0.0386836939 0.09881006 0.0242400467
v -0.03998538 0.09883509 0.02370987
v -0.0412297659 0.09885902 0.0231012553
v -0.04241071 0.09888173 0.0224220715
v -0.0184680857 0.103422262 0.0286383666
v -0.0183719583 0.108421341 0.0286383666
v -0.02004772 0.108453564 0.0294887535
v -0.01678722 0.108390868 0.0276914015
v -0.01697947 0.09839272 0.0276914015
v -0.01856421 0.09842319 0.0286383666
v -0.0201438479 0.103454486 0.0294887535
v -0.021805983 0.108487375 0.0302309431
v -0.0202399734 0.0984554142 0.0294887535
v -0.02190211 0.103488296 0.0302309431
v -0.0236363634 0.108522572 0.0308542922
v -0.0219982341 0.09848922 0.0302309431
v -0.023732489 0.103523493 0.0308542922
v -0.0255267713 0.108558923 0.0313495025
v -0.0238286145 0.098524414 0.0308542922
v -0.0256228969 0.103559844 0.0313495025
v -0.0274636187 0.108596161 0.0317089446
v -0.0257190242 0.0985607654 0.0313495025
v -0.0275597461 0.10359709 0.0317089446
v -0.02943213 0.108634017 0.03192694
v -0.0276558716 0.09859801 0.0317089446
v -0.0295282546 0.103634939 0.03192694
v -0.0314166844 0.108672172 0.032
v -0.02962438 0.09863586 0.03192694
v -0.0315128081 0.1036731 0.032
v -0.0334012359 0.108710334 0.03192694
v -0.0316089354 0.09867402 0.032
v -0.0334973633 0.103711262 0.03192694
v -0.0353697464 0.10874819 0.0317089446
v -0.03359349 0.09871218 0.03192694
v -0.0354658738 0.103749111 0.0317089446
v -0.0373065919 0.108785428 0.0313495025
v -0.0355619974 0.09875003 0.0317089446
v -0.03740272 0.103786357 0.0313495025
v -0.039197 0.108821779 0.0308542922
v -0.0374988467 0.09878728 0.0313495025
v -0.03929313 0.103822708 0.0308542922
v -0.041027382 0.108856976 0.0302309431
v -0.0393892527 0.09882363 0.0308542922
v -0.04112351 0.1038579 0.0302309431
v -0.0427856445 0.108890787 0.0294887535
v -0.0412196331 0.0988588259 0.0302309431
v -0.0428817719 0.103891708 0.0294887535
v -0.0444614068 0.108923011 0.0286383666
v -0.0429778956 0.09889264 0.0294887535
v -0.0445575342 0.103923932 0.0286383666
v -0.0460461453 0.108953483 0.0276914015
v -0.0446536578 0.09892486 0.0286383666
v -0.0462383963 0.0989553258 0.0276914015
v -0.018797189 0.103428595 0.0250567384
v -0.01678722 0.108390868 0.0276914015
v -0.01697947 0.09839272 0.0276914015
v -0.0208071582 0.0984663144 0.0224220715
v -0.0206149071 0.108464472 0.0224220715
v -0.0411336422 0.1038581 0.0231012553
v -0.0410375148 0.10885717 0.0231012553
v -0.03979313 0.108833246 0.02370987
v -0.0422184579 0.108879879 0.0224220715
v -0.04241071 0.09888173 0.0224220715
v -0.0412297659 0.09885902 0.0231012553
v -0.0398892537 0.103834167 0.02370987
v -0.03849144 0.108808212 0.0242400467
v -0.03998538 0.09883509 0.02370987
v -0.0385875665 0.103809141 0.0242400467
v -0.0371398032 0.108782224 0.02468461
v -0.0386836939 0.09881006 0.0242400467
v -0.03723593 0.103783146 0.02468461
v -0.0357466973 0.10875544 0.0250373185
v -0.0373320542 0.0987840742 0.02468461
v -0.0358428247 0.103756361 0.0250373185
v -0.0343215726 0.108728036 0.0252930671
v -0.0359389521 0.09875728 0.0250373185
v -0.0344176963 0.103728957 0.0252930671
v -0.0328746475 0.108700208 0.02544807
v -0.0345138237 0.09872988 0.0252930671
v -0.03297077 0.103701137 0.02544807
v -0.0314166844 0.108672172 0.0255000014
v -0.0330669 0.09870206 0.02544807
v -0.0315128081 0.1036731 0.0255000014
v -0.02995872 0.108644143 0.02544807
v -0.0316089354 0.09867402 0.0255000014
v -0.0300548449 0.103645064 0.02544807
v -0.0285117943 0.108616315 0.0252930671
v -0.0301509723 0.0986459851 0.02544807
v -0.02860792 0.103617243 0.0252930671
v -0.0270866677 0.108588912 0.0250373185
v -0.0287040453 0.0986181647 0.0252930671
v -0.0271827932 0.10358984 0.0250373185
v -0.0256935619 0.108562127 0.02468461
v -0.0272789188 0.09859076 0.0250373185
v -0.02578969 0.103563048 0.02468461
v -0.024341926 0.108536139 0.0242400467
v -0.0258858148 0.09856398 0.02468461
v -0.0244380515 0.10353706 0.0242400467
v -0.023040235 0.108511105 0.02370987
v -0.024534177 0.09853798 0.0242400467
v -0.0231363624 0.103512026 0.02370987
v -0.02179585 0.108487181 0.0231012553
v -0.023232488 0.098512955 0.02370987
v -0.0218919776 0.1034881 0.0231012553
v -0.0206149071 0.108464472 0.0224220715
v -0.0219881032 0.0984890237 0.0231012553
v -0.0208071582 0.0984663144 0.0224220715
v -0.0442284271 0.103917606 0.0250567384
v -0.0422184579 0.108879879 0.0224220715
v -0.04241071 0.09888173 0.0224220715
v -0.0462383963 0.0989553258 0.0276914015
v -0.0460461453 0.108953483 0.0276914015
f 1 2 3
f 2 4 3
f 2 5 4
f 5 2 6
f 2 7 6
f 2 8 7
f 8 9 7
f 8 10 9
f 10 11 9
f 10 12 11
f 9 11 13
f 12 14 11
f 11 15 13
f 14 16 11
f 11 17 15
f 16 18 11
f 18 19 11
f 19 20 11
f 20 21 11
f 21 22 11
f 22 23 11
f 23 24 11
f 24 25 11
f 25 26 11
f 17 11 27
f 26 27 11
f 26 28 27
f 28 29 27
f 28 30 29
f 30 31 29
f 30 32 31
f 32 30 33
f 30 34 33
f 30 35 34
f 36 37 38
f 37 39 38
f 37 40 39
f 40 37 41
f 37 42 41
f 37 43 42
f 43 44 42
f 43 45 44
f 45 46 44
f 45 47 46
f 44 46 48
f 47 49 46
f 46 50 48
f 49 51 46
f 46 52 50
f 51 53 46
f 53 54 46
f 54 55 46
f 55 56 46
f 56 57 46
f 57 58 46
f 58 59 46
f 59 60 46
f 60 61 46
f 52 46 62
f 61 62 46
f 61 63 62
f 63 64 62
f 63 65 64
f 65 66 64
f 65 67 66
f 67 65 68
f 65 69 68
f 65 70 69
f 71 72 73
f 71 74 72
f 74 71 75
f 71 76 75
f 77 71 73
f 71 77 76
f 77 73 78
f 77 79 76
f 80 77 78
f 77 80 79
f 80 78 81
f 80 82 79
f 83 80 81
f 80 83 82
f 83 81 84
f 83 85 82
f 86 83 84
f 83 86 85
f 86 84 87
f 86 88 85
f 89 86 87
f 86 89 88
f 89 87 90
f 89 91 88
f 92 89 90
f 89 92 91
f 92 90 93
f 92 94 91
f 95 92 93
f 92 95 94
f 95 93 96
f 95 97 94
f 98 95 96
f 95 98 97
f 98 96 99
f 98 100 97
f 101 98 99
f 98 101 100
f 101 99 102
f 101 103 100
f 104 101 102
f 101 104 103
f 104 102 105
f 104 106 103
f 107 104 105
f 104 107 106
f 107 105 108
f 107 109 106
f 110 107 108
f 107 110 109
f 110 108 111
f 110 112 109
f 113 110 111
f 110 113 112
f 113 111 114
f 113 115 112
f 116 113 114
f 113 116 115
f 116 114 117
f 116 118 115
f 119 116 117
f 116 119 118
f 120 121 122
f 120 122 123
f 121 120 124
f 124 120 123
f 125 126 127
f 125 128 126
f 128 125 129
f 125 130 129
f 131 125 127
f 125 131 130
f 131 127 132
f 131 133 130
f 134 131 132
f 131 134 133
f 134 132 135
f 134 136 133
f 137 134 135
f 134 137 136
f 137 135 138
f 137 139 136
f 140 137 138
f 137 140 139
f 140 138 141
f 140 142 139
f 143 140 141
f 140 143 142
f 143 141 144
f 143 145 142
f 146 143 144
f 143 146 145
f 146 144 147
f 146 148 145
f 149 146 147
f 146 149 148
f 149 147 150
f 149 151 148
f 152 149 150
f 149 152 151
f 152 150 153
f 152 154 151
f 155 152 153
f 152 155 154
f 155 153 156
f 155 157 154
f 158 155 156
f 155 158 157
f 158 156 159
f 158 160 157
f 161 158 159
f 158 161 160
f 161 159 162
f 161 163 160
f 164 161 162
f 161 164 163
f 164 162 165
f 164 166 163
f 167 164 165
f 164 167 166
f 167 165 168
f 167 169 166
f 170 167 168
f 167 170 169
f 170 168 171
f 170 172 169
f 173 170 171
f 170 173 172
f 174 175 176
f 174 176 177
f 175 174 178
f 178 174 177
