# ROS coordinates: X forward, Y left, Z up; units are metres.
o mesh
v -0.0434733666 -0.118963994 0.00500000035
v -0.04417996 -0.118937075 0.00500000035
v -0.044207193 -0.118907683 0.00456328876
v -0.04386626 -0.118907794 0.004447382
v -0.0435062721 -0.118928477 0.0044723074
v -0.04429449 -0.11881347 0.004116573
v -0.0436117575 -0.11881464 0.0039325254
v -0.04399366 -0.118770309 0.003885622
v -0.0444458537 -0.118650109 0.00368669676
v -0.0437946543 -0.118617252 0.00341309188
v -0.04421289 -0.118533708 0.00336023187
v -0.04465773 -0.11842145 0.003302944
v -0.04405067 -0.118340954 0.00294939056
v -0.0445132852 -0.118209511 0.00291825528
v -0.0449185558 -0.11813996 0.00299121113
v -0.0443658344 -0.11800082 0.00257271319
v -0.0448703766 -0.117824122 0.00259569963
v -0.04521073 -0.117824636 0.00276850816
v -0.04471888 -0.117619805 0.002303614
v -0.04525219 -0.117412068 0.00240826071
v -0.04551435 -0.117496967 0.00264006713
v -0.0456277877 -0.117006712 0.0023500002
v -0.0450857542 -0.117223866 0.0021484145
v -0.04581117 -0.11717663 0.0026
v -0.04544441 -0.116836794 0.0021
v -0.04610799 -0.116856292 0.00264006713
v -0.0458030663 -0.116449721 0.0021484145
v -0.0460033864 -0.116601355 0.00240826071
v -0.04641161 -0.116528623 0.00276850816
v -0.04616994 -0.116053782 0.002303614
v -0.0462907739 -0.1162912 0.00253606122
v -0.0465689078 -0.115991026 0.00274053356
v -0.0467037857 -0.1162133 0.00299121113
v -0.0465229861 -0.115672767 0.00257271319
v -0.04682385 -0.115715884 0.003018661
v -0.0469646081 -0.115931809 0.003302944
v -0.04683815 -0.115332633 0.00294939056
v -0.04704269 -0.115479715 0.00336023187
v -0.047176484 -0.115703151 0.00368669676
v -0.0470941663 -0.115056336 0.00341309188
v -0.0472155735 -0.115293138 0.003748958
v -0.0473278463 -0.115539789 0.004116573
v -0.0472770631 -0.114858948 0.0039325254
v -0.04733716 -0.115161911 0.004164976
v -0.0474151447 -0.115445577 0.00456328876
v -0.04738255 -0.11474511 0.0044723074
v -0.0474070124 -0.115086526 0.00458797626
v -0.0474154577 -0.114709593 0.00500000035
v -0.0474423766 -0.115416184 0.00500000035
v -0.0474151447 -0.115445577 0.00543671148
v -0.0474154577 -0.114709593 0.00500000035
v -0.0473893173 -0.115105622 0.00555261876
v -0.04738255 -0.11474511 0.00552769331
v -0.0473278463 -0.115539789 0.005883428
v -0.0472770631 -0.114858948 0.00606747437
v -0.04726192 -0.115243115 0.006114379
v -0.047176484 -0.115703151 0.00631330349
v -0.0470941663 -0.115056336 0.00658690836
v -0.04704269 -0.115479715 0.00663976837
v -0.0469646081 -0.115931809 0.006697057
v -0.04683815 -0.115332633 0.00705061
v -0.04674229 -0.115803912 0.00708174473
v -0.0467037857 -0.1162133 0.00700878957
v -0.0465229861 -0.115672767 0.00742728775
v -0.0463852 -0.116189294 0.007404301
v -0.04641161 -0.116528623 0.007231492
v -0.04616994 -0.116053782 0.00769638643
v -0.0460033864 -0.116601355 0.0075917393
v -0.04610799 -0.116856292 0.007359933
v -0.0456277877 -0.117006712 0.00765
v -0.0458030663 -0.116449721 0.007851586
v -0.04581117 -0.11717663 0.00740000047
v -0.04544441 -0.116836794 0.007900001
v -0.04551435 -0.117496967 0.007359933
v -0.0450857542 -0.117223866 0.007851586
v -0.04525219 -0.117412068 0.0075917393
v -0.04521073 -0.117824636 0.007231492
v -0.04471888 -0.117619805 0.00769638643
v -0.0449648052 -0.117722221 0.00746393949
v -0.0446866676 -0.11802239 0.007259466
v -0.0449185558 -0.11813996 0.00700878957
v -0.0443658344 -0.11800082 0.00742728775
v -0.0444317237 -0.118297532 0.00698133931
v -0.04465773 -0.11842145 0.006697057
v -0.04405067 -0.118340954 0.00705061
v -0.04421289 -0.118533708 0.00663976837
v -0.0444458537 -0.118650109 0.00631330349
v -0.0437946543 -0.118617252 0.00658690836
v -0.0440400057 -0.118720286 0.00625104271
v -0.04429449 -0.11881347 0.005883428
v -0.0436117575 -0.11881464 0.00606747437
v -0.0439184159 -0.118851505 0.005835025
v -0.044207193 -0.118907683 0.00543671148
v -0.0435062721 -0.118928477 0.00552769331
v -0.0438485667 -0.11892689 0.00541202445
v -0.04417996 -0.118937075 0.00500000035
v -0.0434733666 -0.118963994 0.00500000035
v -0.0434733666 -0.118963994 0.00500000035
v -0.0152329411 -0.0927966759 0.00500000035
v -0.0152658485 -0.09276116 0.00552769331
v -0.0293964874 -0.105833568 0.005604753
v -0.0435062721 -0.118928477 0.00552769331
v -0.0153713319 -0.09264732 0.00606747437
v -0.0436117575 -0.11881464 0.00606747437
v -0.0295359027 -0.105683111 0.006219508
v -0.0155542307 -0.09244993 0.00658690836
v -0.0437946543 -0.118617252 0.00658690836
v -0.0297758169 -0.105424188 0.006794464
v -0.0158102456 -0.092173636 0.00705061
v -0.04405067 -0.118340954 0.00705061
v -0.0301045552 -0.105069406 0.007278136
v -0.01612541 -0.0918335 0.00742728775
v -0.0443658344 -0.11800082 0.00742728775
v -0.0304953344 -0.104647666 0.00763112167
v -0.0164784547 -0.09145249 0.00769638643
v -0.04471888 -0.117619805 0.00769638643
v -0.0309131667 -0.104196735 0.007836243
v -0.0168453287 -0.09105655 0.007851586
v -0.0313241966 -0.103753135 0.007900001
v -0.0450857542 -0.117223866 0.007851586
v -0.0172039866 -0.0906694755 0.007900001
v -0.04544441 -0.116836794 0.007900001
v -0.0175626427 -0.0902824 0.007851586
v -0.0458030663 -0.116449721 0.007851586
v -0.03173523 -0.103309542 0.007836243
v -0.0179295167 -0.0898864642 0.00769638643
v -0.04616994 -0.116053782 0.00769638643
v -0.03204973 -0.102970123 0.00769638643
v -0.0323541 -0.102641635 0.007472624
v -0.0182825625 -0.08950545 0.00742728775
v -0.0465229861 -0.115672767 0.00742728775
v -0.0326331 -0.102340534 0.00716825854
v -0.0185977258 -0.089165315 0.00705061
v -0.04683815 -0.115332633 0.00705061
v -0.03287258 -0.102082081 0.006794464
v -0.0188537426 -0.08888902 0.00658690836
v -0.0470941663 -0.115056336 0.00658690836
v -0.0330617726 -0.101877905 0.00636906549
v -0.01903664 -0.08869163 0.00606747437
v -0.0472770631 -0.114858948 0.00606747437
v -0.0331948325 -0.1017343 0.005913801
v -0.0191421248 -0.08857779 0.00552769331
v -0.04738255 -0.11474511 0.00552769331
v -0.03327127 -0.1016518 0.005450894
v -0.01917503 -0.0885422751 0.00500000035
v -0.0474154577 -0.114709593 0.00500000035
v -0.0191421248 -0.08857779 0.0044723074
v -0.03325191 -0.1016727 0.00439524837
v -0.04738255 -0.11474511 0.0044723074
v -0.01903664 -0.08869163 0.0039325254
v -0.0472770631 -0.114858948 0.0039325254
v -0.0331124961 -0.101823159 0.00378049188
v -0.0188537426 -0.08888902 0.00341309188
v -0.0470941663 -0.115056336 0.00341309188
v -0.03287258 -0.102082081 0.00320553686
v -0.0185977258 -0.089165315 0.00294939056
v -0.04683815 -0.115332633 0.00294939056
v -0.03254384 -0.102436863 0.0027218645
v -0.0182825625 -0.08950545 0.00257271319
v -0.0465229861 -0.115672767 0.00257271319
v -0.0321530625 -0.1028586 0.00236887881
v -0.0179295167 -0.0898864642 0.002303614
v -0.04616994 -0.116053782 0.002303614
v -0.03173523 -0.103309542 0.002163757
v -0.0175626427 -0.0902824 0.0021484145
v -0.0313241966 -0.103753135 0.0021
v -0.0458030663 -0.116449721 0.0021484145
v -0.0172039866 -0.0906694755 0.0021
v -0.04544441 -0.116836794 0.0021
v -0.0168453287 -0.09105655 0.0021484145
v -0.0450857542 -0.117223866 0.0021484145
v -0.0309131667 -0.104196735 0.002163757
v -0.0164784547 -0.09145249 0.002303614
v -0.04471888 -0.117619805 0.002303614
v -0.0305986665 -0.104536146 0.002303614
v -0.0302942935 -0.104864635 0.00252737687
v -0.01612541 -0.0918335 0.00257271319
v -0.0443658344 -0.11800082 0.00257271319
v -0.0300152972 -0.105165735 0.002831742
v -0.0158102456 -0.092173636 0.00294939056
v -0.04405067 -0.118340954 0.00294939056
v -0.0297758169 -0.105424188 0.00320553686
v -0.0155542307 -0.09244993 0.00341309188
v -0.0437946543 -0.118617252 0.00341309188
v -0.0295866244 -0.105628371 0.00363093521
v -0.0153713319 -0.09264732 0.0039325254
v -0.0436117575 -0.11881464 0.0039325254
v -0.0294535644 -0.105771974 0.0040862
v -0.0152658485 -0.09276116 0.0044723074
v -0.0435062721 -0.118928477 0.0044723074
v -0.0293771233 -0.105854467 0.004549106
v -0.0152329411 -0.0927966759 0.00500000035
v -0.0434733666 -0.118963994 0.00500000035
v -0.0152329411 -0.0927966759 0.00500000035
v -0.0152060185 -0.0920900851 0.00500000035
v -0.01523325 -0.09206069 0.00543671148
v -0.0152590778 -0.09240065 0.00555261876
v -0.0152658485 -0.09276116 0.00552769331
v -0.0153205488 -0.09196648 0.005883428
v -0.0153713319 -0.09264732 0.00606747437
v -0.0153864753 -0.0922631547 0.006114379
v -0.0154719129 -0.091803126 0.00631330349
v -0.0155542307 -0.09244993 0.00658690836
v -0.0156057067 -0.092026554 0.00663976837
v -0.0156837888 -0.09157446 0.006697057
v -0.0158102456 -0.092173636 0.00705061
v -0.0159061048 -0.09170236 0.00708174473
v -0.0159446131 -0.09129297 0.00700878957
v -0.01612541 -0.0918335 0.00742728775
v -0.0162631981 -0.0913169757 0.007404301
v -0.0162367877 -0.0909776539 0.007231492
v -0.0164784547 -0.09145249 0.00769638643
v -0.0166450087 -0.0909049138 0.0075917393
v -0.0165404081 -0.09064998 0.007359933
v -0.0170206074 -0.09049956 0.00765
v -0.0168453287 -0.09105655 0.007851586
v -0.0168372281 -0.09032964 0.00740000047
v -0.0172039866 -0.0906694755 0.007900001
v -0.017134048 -0.0900093 0.007359933
v -0.0175626427 -0.0902824 0.007851586
v -0.017396206 -0.0900942 0.0075917393
v -0.0174376667 -0.08968163 0.007231492
v -0.0179295167 -0.0898864642 0.00769638643
v -0.0176835936 -0.08978405 0.00746393949
v -0.0179617275 -0.08948388 0.007259466
v -0.0177298412 -0.08936631 0.00700878957
v -0.0182825625 -0.08950545 0.00742728775
v -0.0182166733 -0.08920874 0.00698133931
v -0.0179906655 -0.08908482 0.006697057
v -0.0185977258 -0.089165315 0.00705061
v -0.018435508 -0.08897256 0.00663976837
v -0.0182025433 -0.08885616 0.00631330349
v -0.0188537426 -0.08888902 0.00658690836
v -0.01860839 -0.08878598 0.00625104271
v -0.0183539055 -0.0886928 0.005883428
v -0.01903664 -0.08869163 0.00606747437
v -0.018729981 -0.088654764 0.005835025
v -0.018441204 -0.08859859 0.00543671148
v -0.0191421248 -0.08857779 0.00552769331
v -0.01879983 -0.08857938 0.00541202445
v -0.01917503 -0.0885422751 0.00500000035
v -0.0184684359 -0.0885692 0.00500000035
v -0.018441204 -0.08859859 0.00456328876
v -0.01917503 -0.0885422751 0.00500000035
v -0.018782137 -0.0885984749 0.004447382
v -0.0191421248 -0.08857779 0.0044723074
v -0.0183539055 -0.0886928 0.004116573
v -0.01903664 -0.08869163 0.0039325254
v -0.01865474 -0.08873596 0.003885622
v -0.0182025433 -0.08885616 0.00368669676
v -0.0188537426 -0.08888902 0.00341309188
v -0.018435508 -0.08897256 0.00336023187
v -0.0179906655 -0.08908482 0.003302944
v -0.0185977258 -0.089165315 0.00294939056
v -0.01813511 -0.08929676 0.00291825528
v -0.0177298412 -0.08936631 0.00299121113
v -0.0182825625 -0.08950545 0.00257271319
v -0.0177780166 -0.08968215 0.00259569963
v -0.0174376667 -0.08968163 0.00276850816
v -0.0179295167 -0.0898864642 0.002303614
v -0.017396206 -0.0900942 0.00240826071
v -0.017134048 -0.0900093 0.00264006713
v -0.0170206074 -0.09049956 0.0023500002
v -0.0175626427 -0.0902824 0.0021484145
v -0.0168372281 -0.09032964 0.0026
v -0.0172039866 -0.0906694755 0.0021
v -0.0165404081 -0.09064998 0.00264006713
v -0.0168453287 -0.09105655 0.0021484145
v -0.0166450087 -0.0909049138 0.00240826071
v -0.0162367877 -0.0909776539 0.00276850816
v -0.0164784547 -0.09145249 0.002303614
v -0.0163576212 -0.09121507 0.00253606122
v -0.0160794873 -0.09151524 0.00274053356
v -0.0159446131 -0.09129297 0.00299121113
v -0.01612541 -0.0918335 0.00257271319
v -0.0158245414 -0.0917903855 0.003018661
v -0.0156837888 -0.09157446 0.003302944
v -0.0158102456 -0.092173636 0.00294939056
v -0.0156057067 -0.092026554 0.00336023187
v -0.0154719129 -0.091803126 0.00368669676
v -0.0155542307 -0.09244993 0.00341309188
v -0.0154328234 -0.09221313 0.003748958
v -0.0153205488 -0.09196648 0.004116573
v -0.0153713319 -0.09264732 0.0039325254
v -0.0153112337 -0.09234436 0.004164976
v -0.01523325 -0.09206069 0.00456328876
v -0.0152658485 -0.09276116 0.0044723074
v -0.0152413845 -0.09241974 0.00458797626
v -0.0152060185 -0.0920900851 0.00500000035
v -0.0152329411 -0.0927966759 0.00500000035
v -0.0182025433 -0.08885616 0.00631330349
v -0.0168372281 -0.09032964 0.00500000035
v -0.0183539055 -0.0886928 0.005883428
v -0.0179906655 -0.08908482 0.006697057
v -0.018441204 -0.08859859 0.00543671148
v -0.0177298412 -0.08936631 0.00700878957
v -0.0184684359 -0.0885692 0.00500000035
v -0.0174376667 -0.08968163 0.007231492
v -0.018441204 -0.08859859 0.00456328876
v -0.017134048 -0.0900093 0.007359933
v -0.0183539055 -0.0886928 0.004116573
v -0.0168372281 -0.09032964 0.00740000047
v -0.0182025433 -0.08885616 0.00368669676
v -0.0165404081 -0.09064998 0.007359933
v -0.0179906655 -0.08908482 0.003302944
v -0.0162367877 -0.0909776539 0.007231492
v -0.0177298412 -0.08936631 0.00299121113
v -0.0159446131 -0.09129297 0.00700878957
v -0.0174376667 -0.08968163 0.00276850816
v -0.0156837888 -0.09157446 0.006697057
v -0.017134048 -0.0900093 0.00264006713
v -0.0154719129 -0.091803126 0.00631330349
v -0.0168372281 -0.09032964 0.0026
v -0.0153205488 -0.09196648 0.005883428
v -0.0165404081 -0.09064998 0.00264006713
v -0.01523325 -0.09206069 0.00543671148
v -0.0162367877 -0.0909776539 0.00276850816
v -0.0152060185 -0.0920900851 0.00500000035
v -0.0159446131 -0.09129297 0.00299121113
v -0.01523325 -0.09206069 0.00456328876
v -0.0156837888 -0.09157446 0.003302944
v -0.0153205488 -0.09196648 0.004116573
v -0.0154719129 -0.091803126 0.00368669676
v -0.047176484 -0.115703151 0.00368669676
v -0.04581117 -0.11717663 0.00500000035
v -0.0473278463 -0.115539789 0.004116573
v -0.0469646081 -0.115931809 0.003302944
v -0.0474151447 -0.115445577 0.00456328876
v -0.0467037857 -0.1162133 0.00299121113
v -0.0474423766 -0.115416184 0.00500000035
v -0.04641161 -0.116528623 0.00276850816
v -0.0474151447 -0.115445577 0.00543671148
v -0.04610799 -0.116856292 0.00264006713
v -0.0473278463 -0.115539789 0.005883428
v -0.04581117 -0.11717663 0.0026
v -0.047176484 -0.115703151 0.00631330349
v -0.04551435 -0.117496967 0.00264006713
v -0.0469646081 -0.115931809 0.006697057
v -0.04521073 -0.117824636 0.00276850816
v -0.0467037857 -0.1162133 0.00700878957
v -0.0449185558 -0.11813996 0.00299121113
v -0.04641161 -0.116528623 0.007231492
v -0.04465773 -0.11842145 0.003302944
v -0.04610799 -0.116856292 0.007359933
v -0.0444458537 -0.118650109 0.00368669676
v -0.04581117 -0.11717663 0.00740000047
v -0.04429449 -0.11881347 0.004116573
v -0.04551435 -0.117496967 0.007359933
v -0.044207193 -0.118907683 0.00456328876
v -0.04521073 -0.117824636 0.007231492
v -0.04417996 -0.118937075 0.00500000035
v -0.0449185558 -0.11813996 0.00700878957
v -0.044207193 -0.118907683 0.00543671148
v -0.04465773 -0.11842145 0.006697057
v -0.04429449 -0.11881347 0.005883428
v -0.0444458537 -0.118650109 0.00631330349
f 1 2 3
f 1 3 4
f 5 1 4
f 4 3 6
f 7 5 4
f 8 4 6
f 7 4 8
f 8 6 9
f 10 7 8
f 11 8 9
f 10 8 11
f 11 9 12
f 13 10 11
f 14 11 12
f 13 11 14
f 14 12 15
f 16 13 14
f 17 14 15
f 16 14 17
f 17 15 18
f 19 16 17
f 20 17 18
f 19 17 20
f 20 18 21
f 22 20 21
f 23 19 20
f 23 20 22
f 22 21 24
f 25 23 22
f 26 22 24
f 27 25 22
f 28 22 26
f 27 22 28
f 29 28 26
f 30 27 28
f 31 28 29
f 31 30 28
f 32 31 29
f 31 32 30
f 32 29 33
f 32 34 30
f 35 32 33
f 32 35 34
f 35 33 36
f 35 37 34
f 38 35 36
f 35 38 37
f 38 36 39
f 38 40 37
f 41 38 39
f 38 41 40
f 41 39 42
f 41 43 40
f 44 41 42
f 41 44 43
f 44 42 45
f 44 46 43
f 47 44 45
f 44 47 46
f 46 47 48
f 47 45 49
f 47 49 48
f 49 50 51
f 50 52 51
f 51 52 53
f 50 54 52
f 52 55 53
f 54 56 52
f 52 56 55
f 54 57 56
f 56 58 55
f 57 59 56
f 56 59 58
f 57 60 59
f 59 61 58
f 60 62 59
f 59 62 61
f 60 63 62
f 62 64 61
f 63 65 62
f 62 65 64
f 63 66 65
f 65 67 64
f 66 68 65
f 65 68 67
f 66 69 68
f 69 70 68
f 68 71 67
f 68 70 71
f 69 72 70
f 70 73 71
f 72 74 70
f 70 75 73
f 74 76 70
f 70 76 75
f 74 77 76
f 76 78 75
f 77 79 76
f 76 79 78
f 77 80 79
f 80 78 79
f 81 80 77
f 80 82 78
f 83 80 81
f 80 83 82
f 84 83 81
f 83 85 82
f 86 83 84
f 83 86 85
f 87 86 84
f 86 88 85
f 89 86 87
f 86 89 88
f 90 89 87
f 89 91 88
f 92 89 90
f 89 92 91
f 93 92 90
f 92 94 91
f 95 92 93
f 92 95 94
f 96 95 93
f 95 97 94
f 95 96 97
f 98 99 100
f 98 100 101
f 102 98 101
f 101 100 103
f 104 102 101
f 105 101 103
f 104 101 105
f 105 103 106
f 107 104 105
f 108 105 106
f 107 105 108
f 108 106 109
f 110 107 108
f 111 108 109
f 110 108 111
f 111 109 112
f 113 110 111
f 114 111 112
f 113 111 114
f 114 112 115
f 116 113 114
f 117 114 115
f 116 114 117
f 117 115 118
f 119 117 118
f 120 116 117
f 120 117 119
f 119 118 121
f 122 120 119
f 123 119 121
f 124 122 119
f 125 119 123
f 124 119 125
f 126 125 123
f 127 124 125
f 128 125 126
f 128 127 125
f 129 128 126
f 128 129 127
f 129 126 130
f 129 131 127
f 132 129 130
f 129 132 131
f 132 130 133
f 132 134 131
f 135 132 133
f 132 135 134
f 135 133 136
f 135 137 134
f 138 135 136
f 135 138 137
f 138 136 139
f 138 140 137
f 141 138 139
f 138 141 140
f 141 139 142
f 141 143 140
f 144 141 142
f 141 144 143
f 144 142 145
f 143 144 146
f 144 145 146
f 145 147 146
f 147 148 146
f 146 148 149
f 147 150 148
f 148 151 149
f 150 152 148
f 148 152 151
f 150 153 152
f 152 154 151
f 153 155 152
f 152 155 154
f 153 156 155
f 155 157 154
f 156 158 155
f 155 158 157
f 156 159 158
f 158 160 157
f 159 161 158
f 158 161 160
f 159 162 161
f 161 163 160
f 162 164 161
f 161 164 163
f 162 165 164
f 165 166 164
f 164 167 163
f 164 166 167
f 165 168 166
f 166 169 167
f 168 170 166
f 166 171 169
f 170 172 166
f 166 172 171
f 170 173 172
f 172 174 171
f 173 175 172
f 172 175 174
f 173 176 175
f 176 174 175
f 177 176 173
f 176 178 174
f 179 176 177
f 176 179 178
f 180 179 177
f 179 181 178
f 182 179 180
f 179 182 181
f 183 182 180
f 182 184 181
f 185 182 183
f 182 185 184
f 186 185 183
f 185 187 184
f 188 185 186
f 185 188 187
f 189 188 186
f 188 190 187
f 191 188 189
f 188 191 190
f 192 191 189
f 191 193 190
f 191 192 193
f 194 195 196
f 194 196 197
f 198 194 197
f 197 196 199
f 200 198 197
f 201 197 199
f 200 197 201
f 201 199 202
f 203 200 201
f 204 201 202
f 203 201 204
f 204 202 205
f 206 203 204
f 207 204 205
f 206 204 207
f 207 205 208
f 209 206 207
f 210 207 208
f 209 207 210
f 210 208 211
f 212 209 210
f 213 210 211
f 212 210 213
f 213 211 214
f 215 213 214
f 216 212 213
f 216 213 215
f 215 214 217
f 218 216 215
f 219 215 217
f 220 218 215
f 221 215 219
f 220 215 221
f 222 221 219
f 223 220 221
f 224 221 222
f 224 223 221
f 225 224 222
f 224 225 223
f 225 222 226
f 225 227 223
f 228 225 226
f 225 228 227
f 228 226 229
f 228 230 227
f 231 228 229
f 228 231 230
f 231 229 232
f 231 233 230
f 234 231 232
f 231 234 233
f 234 232 235
f 234 236 233
f 237 234 235
f 234 237 236
f 237 235 238
f 237 239 236
f 240 237 238
f 237 240 239
f 239 240 241
f 240 238 242
f 240 242 241
f 242 243 244
f 243 245 244
f 244 245 246
f 243 247 245
f 245 248 246
f 247 249 245
f 245 249 248
f 247 250 249
f 249 251 248
f 250 252 249
f 249 252 251
f 250 253 252
f 252 254 251
f 253 255 252
f 252 255 254
f 253 256 255
f 255 257 254
f 256 258 255
f 255 258 257
f 256 259 258
f 258 260 257
f 259 261 258
f 258 261 260
f 259 262 261
f 262 263 261
f 261 264 260
f 261 263 264
f 262 265 263
f 263 266 264
f 265 267 263
f 263 268 266
f 267 269 263
f 263 269 268
f 267 270 269
f 269 271 268
f 270 272 269
f 269 272 271
f 270 273 272
f 273 271 272
f 274 273 270
f 273 275 271
f 276 273 274
f 273 276 275
f 277 276 274
f 276 278 275
f 279 276 277
f 276 279 278
f 280 279 277
f 279 281 278
f 282 279 280
f 279 282 281
f 283 282 280
f 282 284 281
f 285 282 283
f 282 285 284
f 286 285 283
f 285 287 284
f 288 285 286
f 285 288 287
f 289 288 286
f 288 290 287
f 288 289 290
f 291 292 293
f 292 291 294
f 292 295 293
f 292 294 296
f 295 292 297
f 298 292 296
f 292 299 297
f 292 298 300
f 292 301 299
f 292 300 302
f 301 292 303
f 304 292 302
f 292 305 303
f 292 304 306
f 292 307 305
f 292 306 308
f 307 292 309
f 310 292 308
f 292 311 309
f 292 310 312
f 292 313 311
f 292 312 314
f 313 292 315
f 316 292 314
f 292 317 315
f 292 316 318
f 292 319 317
f 292 318 320
f 319 292 321
f 322 292 320
f 292 323 321
f 292 322 323
f 324 325 326
f 325 324 327
f 325 328 326
f 325 327 329
f 328 325 330
f 331 325 329
f 325 332 330
f 325 331 333
f 325 334 332
f 325 333 335
f 334 325 336
f 337 325 335
f 325 338 336
f 325 337 339
f 325 340 338
f 325 339 341
f 340 325 342
f 343 325 341
f 325 344 342
f 325 343 345
f 325 346 344
f 325 345 347
f 346 325 348
f 349 325 347
f 325 350 348
f 325 349 351
f 325 352 350
f 325 351 353
f 352 325 354
f 355 325 353
f 325 356 354
f 325 355 356
