# ROS coordinates: X forward, Y left, Z up; units are metres.
o mesh
v -0.0240546912 -0.104977712 0.0214971155
v -0.0212673247 -0.102394961 0.0214971155
v -0.0222908817 -0.101290315 0.0219550524
v -0.0250782482 -0.103873067 0.0219550524
v -0.0244526155 -0.101752795 0.0222043619
v -0.0261612274 -0.102704287 0.0222842023
v -0.02337386 -0.100121535 0.0222842023
v -0.0254091453 -0.10072048 0.0224076211
v -0.027293127 -0.101482712 0.02246699
v -0.02450576 -0.09889996 0.02246699
v -0.0263963155 -0.09965511 0.0224966332
v -0.02846064 -0.100222707 0.0224881712
v -0.0256732721 -0.0976399556 0.0224881712
v -0.0274049137 -0.0985666 0.0224627927
v -0.0296479445 -0.09894133 0.0223359987
v -0.026860578 -0.09635858 0.0223359987
v -0.0284244735 -0.09746626 0.022299625
v -0.03083725 -0.09765781 0.0220032334
v -0.0280498825 -0.095075056 0.0220032334
v -0.0294435658 -0.0963664353 0.0220032334
v -0.0304501746 -0.09528007 0.0215726718
v -0.0320095569 -0.0963926241 0.0214879736
v -0.02922219 -0.09380987 0.0214879736
v -0.0314321369 -0.09422032 0.0210101157
v -0.0331456 -0.09516658 0.0207941011
v -0.0303582326 -0.09258383 0.0207941011
v -0.0323776156 -0.09319994 0.0203209147
v -0.03422686 -0.0939996541 0.01993132
v -0.0314394943 -0.09141691 0.01993132
v -0.0332755633 -0.09223084 0.01951341
v -0.03523657 -0.09290995 0.0189146958
v -0.0324492 -0.0903272 0.0189146958
v -0.034116175 -0.09132364 0.0185986273
v -0.0361605547 -0.09191276 0.01776383
v -0.0333731845 -0.08933002 0.01776383
v -0.03489119 -0.09048723 0.0175897684
v -0.0369878672 -0.0910199061 0.0165016446
v -0.0342005 -0.0884371549 0.0165016446
v -0.035594184 -0.0897285342 0.0165016446
v -0.03622068 -0.0890524 0.01535002
v -0.0377111435 -0.09023933 0.0151530392
v -0.0349237733 -0.08765659 0.0151530392
v -0.03676817 -0.08846154 0.0141509734
v -0.03832663 -0.08957508 0.0137435021
v -0.035539262 -0.08699233 0.0137435021
v -0.0373743922 -0.08780729 0.0125056747
v -0.038834013 -0.0890275 0.012297838
v -0.03784229 -0.08730233 0.0108391186
v -0.0360466465 -0.08644475 0.012297838
v -0.0392359719 -0.0885937 0.0108391186
v -0.0364486054 -0.08601095 0.0108391186
v -0.03954722 -0.08825779 0.00933316
v -0.0367598534 -0.08567504 0.00933316
v -0.0381911471 -0.08692583 0.009110572
v -0.0397709347 -0.08801635 0.007739772
v -0.03698357 -0.0854336 0.007739772
v -0.03842339 -0.08667518 0.00727051636
v -0.03989517 -0.08788227 0.006074406
v -0.0371078029 -0.08529952 0.006074406
v -0.0385216326 -0.08656916 0.0053433585
v -0.039909564 -0.08786674 0.00435664458
v -0.0371221974 -0.08528399 0.00435664458
v -0.0384716019 -0.0866231546 0.00336036645
v -0.039806135 -0.08797836 0.00260976143
v -0.03701877 -0.08539561 0.00260976143
v -0.0382635742 -0.08684766 0.00135857612
v -0.0395799652 -0.0882224441 0.000859934837
v -0.0367926 -0.0856397 0.000859934837
v -0.037893638 -0.0872469 -0.0006210888
v -0.0392297581 -0.0886004046 -0.000864882
v -0.03736447 -0.087818 -0.00253633969
v -0.03644239 -0.08601765 -0.000864882
v -0.038758155 -0.08910937 -0.00253633969
v -0.03597079 -0.08652662 -0.00253633969
v -0.0381717458 -0.0897422358 -0.00412720069
v -0.03538438 -0.0871594846 -0.00412720069
v -0.0366854742 -0.08855078 -0.004346407
v -0.03748078 -0.09048794 -0.005612788
v -0.0346934125 -0.0879052 -0.005612788
v -0.0358722731 -0.08942841 -0.006014875
v -0.0366985723 -0.09133212 -0.00697224867
v -0.0339112058 -0.08874937 -0.00697224867
v -0.0349455252 -0.0904285759 -0.00751209
v -0.0358406976 -0.09225796 -0.008189476
v -0.03305333 -0.08967521 -0.008189476
v -0.03392932 -0.0915252939 -0.00881678
v -0.0349240936 -0.09324718 -0.00925362948
v -0.0321367234 -0.09066443 -0.00925362948
v -0.0328493342 -0.09269084 -0.009916759
v -0.0339660719 -0.09428111 -0.0101591973
v -0.0311787035 -0.091698356 -0.0101591973
v -0.0317310728 -0.0938977 -0.0108087
v -0.03019613 -0.0927587748 -0.0109057119
v -0.0329834968 -0.095341526 -0.0109057119
v -0.0292046815 -0.093828775 -0.0114971166
v -0.031992048 -0.09641152 -0.0114971166
v -0.0281811245 -0.09493342 -0.0119550517
v -0.030968491 -0.0975161642 -0.0119550517
v -0.0288067572 -0.09705369 -0.0122043667
v -0.0270981453 -0.09610219 -0.0122842072
v -0.0298855118 -0.0986849442 -0.0122842072
v -0.0278502274 -0.09808601 -0.0124076223
v -0.0259662457 -0.0973237753 -0.01246699
v -0.0287536122 -0.09990652 -0.01246699
v -0.0268630572 -0.09915138 -0.0124966344
v -0.0247987323 -0.09858378 -0.0124881705
v -0.0275860988 -0.101166531 -0.0124881705
v -0.025854459 -0.100239888 -0.0124627938
v -0.0236114282 -0.09986515 -0.012336
v -0.0263987947 -0.1024479 -0.012336
v -0.0248349 -0.101340219 -0.0122996224
v -0.0224221218 -0.10114868 -0.0120032346
v -0.0252094883 -0.103731431 -0.0120032346
v -0.0238158051 -0.102440052 -0.0120032346
v -0.0228091981 -0.103526413 -0.0115726711
v -0.0212498158 -0.102413863 -0.0114879729
v -0.0240371823 -0.104996607 -0.0114879729
v -0.0218272377 -0.104586169 -0.0110101206
v -0.0201137736 -0.103639908 -0.0107941022
v -0.02290114 -0.106222652 -0.0107941022
v -0.02088176 -0.105606548 -0.0103209121
v -0.0190325137 -0.104806826 -0.009931323
v -0.02181988 -0.107389577 -0.009931323
v -0.01998381 -0.106575638 -0.009513411
v -0.0180228036 -0.105896533 -0.008914701
v -0.020810172 -0.108479284 -0.008914701
v -0.0191432014 -0.107482843 -0.008598625
v -0.01709882 -0.106893718 -0.007763832
v -0.0198861882 -0.109476469 -0.007763832
v -0.0183681846 -0.10831926 -0.00758976955
v -0.0162715055 -0.107786581 -0.006501646
v -0.019058872 -0.110369325 -0.006501646
v -0.0176651888 -0.109077953 -0.006501646
v -0.0170386918 -0.109754086 -0.00535002258
v -0.0155482311 -0.108567156 -0.0051530404
v -0.0183356 -0.1111499 -0.0051530404
v -0.0164912026 -0.110344946 -0.0041509755
v -0.0149327423 -0.109231405 -0.00374350417
v -0.01772011 -0.111814156 -0.00374350417
v -0.01588498 -0.1109992 -0.002505676
v -0.0144253578 -0.109778985 -0.00229783822
v -0.0154170841 -0.11150416 -0.0008391198
v -0.0172127243 -0.112361737 -0.00229783822
v -0.0140234008 -0.110212788 -0.0008391198
v -0.0168107674 -0.112795539 -0.0008391198
v -0.0137121528 -0.1105487 0.000666839071
v -0.01649952 -0.113131449 0.000666839071
v -0.0150682237 -0.11188066 0.000889427
v -0.013488438 -0.110790133 0.00226022769
v -0.0162758045 -0.113372885 0.00226022769
v -0.0148359854 -0.1121313 0.00272948248
v -0.0133642033 -0.110924214 0.00392559264
v -0.01615157 -0.113506958 0.00392559264
v -0.01473774 -0.112237327 0.00465663942
v -0.0133498069 -0.110939749 0.00564335473
v -0.0161371734 -0.1135225 0.00564335473
v -0.0147877727 -0.112183332 0.0066396324
v -0.0134532358 -0.110828124 0.00739023834
v -0.0162406024 -0.113410875 0.00739023834
v -0.0149957947 -0.111958832 0.008641424
v -0.0136794057 -0.110584036 0.009140064
v -0.0164667722 -0.113166787 0.009140064
v -0.0153657291 -0.111559585 0.0106210895
v -0.0140296128 -0.110206082 0.01086488
v -0.0158949 -0.11098849 0.0125363395
v -0.01681698 -0.112788834 0.01086488
v -0.0145012159 -0.109697118 0.0125363395
v -0.0172885824 -0.11227987 0.0125363395
v -0.015087625 -0.109064251 0.0141272005
v -0.0178749915 -0.111647 0.0141272005
v -0.0165738985 -0.1102557 0.014346404
v -0.0157785919 -0.108318545 0.0156127866
v -0.0185659584 -0.110901289 0.0156127866
v -0.0173871 -0.10937807 0.0160148721
v -0.0165608 -0.107474364 0.0169722456
v -0.0193481669 -0.110057116 0.0169722456
v -0.0183138475 -0.1083779 0.0175120886
v -0.0174186751 -0.106548525 0.0181894731
v -0.0202060416 -0.109131277 0.0181894731
v -0.0193300527 -0.107281193 0.0188167766
v -0.0183352809 -0.1055593 0.0192536265
v -0.02112265 -0.108142048 0.0192536265
v -0.0204100385 -0.106115639 0.0199167579
v -0.0192933 -0.10452538 0.0201591961
v -0.0220806673 -0.107108131 0.0201591961
v -0.0215283 -0.104908787 0.0208086967
v -0.0202758759 -0.103464961 0.02090571
v -0.0230632424 -0.106047712 0.02090571
v -0.0212673247 -0.102394961 0.0214971155
v -0.0240546912 -0.104977712 0.0214971155
v -0.0211659782 -0.102210082 0.0213085748
v -0.0212673247 -0.102394961 0.0214971155
v -0.0202758759 -0.103464961 0.02090571
v -0.02018586 -0.103267848 0.0207239315
v -0.0195312575 -0.104121439 0.0203006864
v -0.0192145146 -0.104316145 0.0199859478
v -0.0192933 -0.10452538 0.0201591961
v -0.01870555 -0.105012566 0.0195775032
v -0.0182674415 -0.105338253 0.019090727
v -0.0183352809 -0.1055593 0.0192536265
v -0.0179047324 -0.105876833 0.0187378265
v -0.0173613112 -0.106316172 0.0180387348
v -0.0174186751 -0.106548525 0.0181894731
v -0.0171395745 -0.1067026 0.0177834723
v -0.0165132433 -0.107231423 0.0168354213
v -0.0165608 -0.107474364 0.0169722456
v -0.01642093 -0.107478186 0.0167190749
v -0.0157399736 -0.108065963 0.0154914977
v -0.0157785919 -0.108318545 0.0156127866
v -0.0157592837 -0.10819225 0.0155521417
v -0.015164325 -0.108834349 0.0142929973
v -0.0150569025 -0.108803146 0.0140228905
v -0.015087625 -0.109064251 0.0141272005
v -0.0146445278 -0.109395325 0.0129545182
v -0.0144771971 -0.109428778 0.0124502108
v -0.0145012159 -0.109697118 0.0125363395
v -0.0142067727 -0.109867759 0.01155173
v -0.0140109826 -0.109931931 0.0107978536
v -0.0140296128 -0.110206082 0.01086488
v -0.0138560422 -0.110246278 0.0101012457
v -0.0136647783 -0.110305563 0.009092749
v -0.0136794057 -0.110584036 0.009140064
v -0.0135952421 -0.110527739 0.008620616
v -0.01344119 -0.110546865 0.00736292126
v -0.0134532358 -0.110828124 0.00739023834
v -0.0134251267 -0.110711336 0.00712764
v -0.0133389439 -0.110657208 0.005636002
v -0.0133498069 -0.110939749 0.00564335473
v -0.0133443791 -0.110798478 0.005639679
v -0.0133497473 -0.110792682 0.0041730376
v -0.0133531764 -0.110641852 0.003937871
v -0.0133642033 -0.110924214 0.00392559264
v -0.0134363435 -0.110699229 0.00274245627
v -0.01347599 -0.110509306 0.00229153875
v -0.013488438 -0.110790133 0.00226022769
v -0.0136672575 -0.110450014 0.000912916847
v -0.0136971492 -0.110270627 0.0007163603
v -0.0140141211 -0.110075675 -0.0008057542
v -0.0137121528 -0.1105487 0.000666839071
v -0.01400484 -0.109938562 -0.0007723877
v -0.0140234008 -0.110212788 -0.0008391198
v -0.0144022033 -0.109509714 -0.00221443456
v -0.0144253578 -0.109778985 -0.00229783822
v -0.0144793428 -0.109573595 -0.00246278476
v -0.0149037912 -0.108968392 -0.003643576
v -0.0149327423 -0.109231405 -0.00374350417
v -0.0150821023 -0.108923085 -0.00409868453
v -0.0155122466 -0.108311728 -0.005037006
v -0.0155482311 -0.108567156 -0.0051530404
v -0.015825456 -0.108120836 -0.00567858946
v -0.0162272528 -0.107540078 -0.006370199
v -0.0162715055 -0.107786581 -0.006501646
v -0.0167071484 -0.107169293 -0.00716519076
v -0.01704511 -0.106657423 -0.00761796068
v -0.01709882 -0.106893718 -0.007763832
v -0.0177189447 -0.106077336 -0.008520921
v -0.0179585367 -0.105671629 -0.008755674
v -0.0180228036 -0.105896533 -0.008914701
v -0.0188464746 -0.104860477 -0.009710549
v -0.0189567078 -0.10459438 -0.009760675
v -0.0200696923 -0.103540346 -0.0107038533
v -0.0190325137 -0.104806826 -0.009931323
v -0.0200256091 -0.103440791 -0.0106135933
v -0.0201137736 -0.103639908 -0.0107941022
v -0.0211486686 -0.102228761 -0.01129954
v -0.0212498158 -0.102413863 -0.0114879729
v -0.0213639941 -0.102143511 -0.0114779724
v -0.0223075785 -0.100978039 -0.0118089141
v -0.0224221218 -0.10114868 -0.0120032346
v -0.0227018259 -0.100699686 -0.0120191416
v -0.0234832913 -0.0997091755 -0.012137874
v -0.0236114282 -0.09986515 -0.012336
v -0.02405461 -0.09923973 -0.0123234605
v -0.0246570278 -0.09844245 -0.0122883068
v -0.0247987323 -0.09858378 -0.0124881705
v -0.02539469 -0.09779348 -0.0123966513
v -0.0258111954 -0.09719685 -0.012267367
v -0.0259662457 -0.0973237753 -0.01246699
v -0.0266970359 -0.09638795 -0.0122529333
v -0.02693016 -0.09598923 -0.0120866681
v -0.0270981453 -0.09610219 -0.0122842072
v -0.0279405229 -0.095045954 -0.011913185
v -0.0281811245 -0.09493342 -0.0119550517
v -0.0280007627 -0.0948338062 -0.0117612826
v -0.0292046815 -0.093828775 -0.0114971166
v -0.02901262 -0.09374179 -0.011308576
v -0.03019613 -0.0927587748 -0.0109057119
v -0.0299927387 -0.0926840156 -0.0107239289
v -0.030794045 -0.09196636 -0.0103006857
v -0.0311787035 -0.091698356 -0.0101591973
v -0.030964084 -0.09163572 -0.009985945
v -0.0316197537 -0.0910752341 -0.009577504
v -0.0321367234 -0.09066443 -0.00925362948
v -0.0319111571 -0.09061362 -0.009090728
v -0.0324205756 -0.0902109742 -0.008737828
v -0.03305333 -0.08967521 -0.008189476
v -0.03281729 -0.0896357 -0.008038738
v -0.0331857279 -0.0893852 -0.00778347347
v -0.0339112058 -0.08874937 -0.00697224867
v -0.0336653553 -0.08872044 -0.00683542248
v -0.0339043736 -0.08860962 -0.00671907235
v -0.0346934125 -0.0879052 -0.005612788
v -0.034438625 -0.08788591 -0.005491498
v -0.0345660225 -0.08789555 -0.00555214565
v -0.03516098 -0.08725345 -0.00429299753
v -0.03538438 -0.0871594846 -0.00412720069
v -0.0351216942 -0.08714872 -0.00402289163
v -0.0356807746 -0.08669248 -0.00295452122
v -0.03597079 -0.08652662 -0.00253633969
v -0.0357014 -0.0865230858 -0.002450212
v -0.03611853 -0.08622004 -0.00155173242
v -0.03644239 -0.08601765 -0.000864882
v -0.0361676142 -0.08601993 -0.000797855668
v -0.0364692621 -0.08584152 -0.000101245008
v -0.0367926 -0.0856397 0.000859934837
v -0.03651382 -0.0856463 0.0009072507
v -0.0367300622 -0.08556006 0.00137938187
v -0.03701877 -0.08539561 0.00260976143
v -0.0367374048 -0.08540501 0.00263707712
v -0.0369001776 -0.08537647 0.002872358
v -0.0371221974 -0.08528399 0.00435664458
v -0.03683965 -0.0852946639 0.004363996
v -0.036980927 -0.08528933 0.00436032
v -0.0369755551 -0.08529512 0.00582696125
v -0.0371078029 -0.08529952 0.006074406
v -0.0368254222 -0.08531002 0.00606212765
v -0.03688896 -0.08538858 0.00725754164
v -0.03698357 -0.0854336 0.007739772
v -0.03670261 -0.08544256 0.00770846
v -0.03665805 -0.0856377855 0.009087082
v -0.0367598534 -0.08567504 0.00933316
v -0.0363111831 -0.086012125 0.0108057531
v -0.0364814475 -0.0856812447 0.009283639
v -0.0364486054 -0.08601095 0.0108391186
v -0.03617376 -0.08601331 0.0107723866
v -0.0360466465 -0.08644475 0.012297838
v -0.03577639 -0.08644216 0.0122144343
v -0.0358459577 -0.0865142047 0.0124627855
v -0.035539262 -0.08699233 0.0137435021
v -0.0352748074 -0.08698348 0.0136435768
v -0.035243202 -0.0871647149 0.0140986834
v -0.0349237733 -0.08765659 0.0151530392
v -0.034666352 -0.08764014 0.0150370048
v -0.0344998464 -0.08796696 0.0156785864
v -0.0342005 -0.0884371549 0.0165016446
v -0.03395135 -0.08841179 0.0163701978
v -0.0336181521 -0.08891851 0.0171651877
v -0.0333731845 -0.08933002 0.01776383
v -0.03313349 -0.08929445 0.01761796
v -0.0326063558 -0.09001047 0.0185209215
v -0.0324492 -0.0903272 0.0189146958
v -0.0322200619 -0.0902802348 0.0187556725
v -0.03147883 -0.09122732 0.0197105482
v -0.0314394943 -0.09141691 0.01993132
v -0.030255612 -0.0925474539 0.0207038485
v -0.03122189 -0.0913574845 0.0197606739
v -0.0303582326 -0.09258383 0.0207941011
v -0.0301529877 -0.09251107 0.0206136
v -0.02922219 -0.09380987 0.0214879736
v -0.0290299319 -0.0937231 0.02129954
v -0.0289613083 -0.0939442962 0.0214779712
v -0.0280498825 -0.095075056 0.0220032334
v -0.02787102 -0.09497383 0.0218089111
v -0.0276234783 -0.0953881145 0.0220191423
v -0.026860578 -0.09635858 0.0223359987
v -0.0266953073 -0.09624269 0.0221378729
v -0.026270695 -0.09684808 0.02232346
v -0.0256732721 -0.0976399556 0.0224881712
v -0.02552157 -0.097509414 0.0222883075
v -0.024930615 -0.0982943252 0.022396652
v -0.02450576 -0.09889996 0.02246699
v -0.0243674014 -0.0987550244 0.0222673677
v -0.0236282665 -0.09969985 0.02225293
v -0.02337386 -0.100121535 0.0222842023
v -0.0232484378 -0.09996264 0.0220866725
v -0.0223847814 -0.101041846 0.0219131857
v -0.0222908817 -0.101290315 0.0219550524
v -0.0221778359 -0.101118058 0.02176128
v -0.0212673247 -0.102394961 0.0214971155
v -0.0211659782 -0.102210082 0.0213085748
v -0.02639259 -0.09686365 0.000192269683
v -0.0262912419 -0.09667876 3.729947E-06
v -0.02688909 -0.09603356 0.000408928841
v -0.0270107742 -0.09604936 0.0005675908
v -0.0269678757 -0.0962427855 0.000582176261
v -0.0274568349 -0.09542083 0.00100547262
v -0.0275141969 -0.0956531838 0.00115621
v -0.0276336428 -0.09537715 0.00128212292
v -0.0279535428 -0.09488477 0.00178584177
v -0.0279921629 -0.09513735 0.00190713163
v -0.0281506591 -0.09481917 0.002222781
v -0.0283404049 -0.09446726 0.00271756481
v -0.0283644255 -0.09473559 0.002803695
v -0.028509656 -0.09443173 0.00332973339
v -0.0285892971 -0.09419865 0.003746152
v -0.0286039244 -0.0944771245 0.00379346544
v -0.0286813937 -0.09424639 0.00451279432
v -0.02868912 -0.0940909162 0.004805155
v -0.02869998 -0.09437346 0.004812507
v -0.0286670662 -0.0942618549 0.005674667
v -0.0286471322 -0.09413623 0.00582975941
v -0.0284943972 -0.0944482 0.006735052
v -0.0286595784 -0.09441706 0.00579844741
v -0.0284851156 -0.09431108 0.00676841848
v -0.028503675 -0.0945853144 0.00670168549
v -0.0282097161 -0.09460831 0.007648032
v -0.0282386653 -0.09487132 0.007548106
v -0.02817523 -0.09479265 0.007719146
v -0.0278042611 -0.09504588 0.008483355
v -0.0278485138 -0.09529238 0.008351907
v -0.0278263874 -0.09516913 0.008417631
v -0.0273872074 -0.0956431 0.009040734
v -0.0272738673 -0.09561829 0.009214166
v -0.027338136 -0.0958431959 0.00905514
v -0.0268706065 -0.09620063 0.0095525
v -0.0266406015 -0.09630173 0.009783356
v -0.0267287679 -0.0965008438 0.009602852
v -0.0262978822 -0.09681873 0.009924451
v -0.0259415023 -0.09705622 0.0101495506
v -0.0260560475 -0.09722686 0.009955227
v -0.025695961 -0.09746834 0.0101404591
v -0.02522173 -0.097833015 0.0102964174
v -0.025363436 -0.09797434 0.0100965528
v -0.0250933077 -0.09811874 0.0101989992
v -0.0245253369 -0.09858458 0.0102346446
v -0.0246933214 -0.09869754 0.01003711
v -0.0245157517 -0.09874205 0.0101121524
v -0.0238873567 -0.0992731 0.009996268
v -0.0240794159 -0.099360086 0.00980773
v -0.02328951 -0.09991831 0.009591071
v -0.0233145282 -0.100038446 0.009432409
v -0.02350413 -0.09998095 0.009417823
v -0.0227217656 -0.100531034 0.008994526
v -0.02295781 -0.100570552 0.008843789
v -0.02269166 -0.10071066 0.008717877
v -0.022225054 -0.101067096 0.008214158
v -0.0224798433 -0.101086386 0.008092869
v -0.0221746452 -0.101268634 0.00777721731
v -0.0218381919 -0.101484612 0.007282434
v -0.0221075788 -0.101488143 0.00719630439
v -0.0218156464 -0.101656072 0.00667026546
v -0.0215893015 -0.10175322 0.006253848
v -0.02186808 -0.101746611 0.00620653247
v -0.02164391 -0.101841412 0.00548720453
v -0.0214894786 -0.101860948 0.00519484375
v -0.0217720252 -0.101850279 0.005187492
v -0.021658238 -0.101825953 0.004325332
v -0.0215314664 -0.101815633 0.00417024
v -0.0218309052 -0.101639606 0.00326494686
v -0.0218124259 -0.101806678 0.004201552
v -0.021693483 -0.101640783 0.00323158083
v -0.02196833 -0.101638421 0.003298313
v -0.0219688825 -0.101343565 0.00235196762
v -0.022233339 -0.101352416 0.00245189341
v -0.0221500732 -0.101295151 0.00228085276
v -0.0223743375 -0.100905985 0.00151664484
v -0.0226234924 -0.100931354 0.00164809264
v -0.022498915 -0.100918673 0.00158236735
v -0.0229380969 -0.1004447 0.0009592641
v -0.0229047313 -0.100333579 0.000785834156
v -0.02313387 -0.10038054 0.0009448584
v -0.0234546959 -0.09988717 0.000447501428
v -0.0235379953 -0.09965014 0.0002166424
v -0.0237432383 -0.09972289 0.000397146679
v -0.02402742 -0.09926907 7.55470246E-05
v -0.0242370963 -0.0988956541 -0.000149550848
v -0.0244159587 -0.09899688 4.47724E-05
v -0.0246293433 -0.09861946 -0.000140458345
v -0.024956869 -0.09811886 -0.000296418555
v -0.0251085684 -0.0982494 -9.655394E-05
v -0.0252319966 -0.09796906 -0.000199000351
v -0.0256532617 -0.09736729 -0.000234646723
v -0.0257786848 -0.09752619 -3.711041E-05
v -0.0258095525 -0.09734575 -0.000112152658
v -0.0262912419 -0.09667876 3.729947E-06
v -0.02639259 -0.09686365 0.000192269683
v -0.0291799549 -0.0994464 0.000192269683
v -0.02639259 -0.09686365 0.000192269683
v -0.0269678757 -0.0962427855 0.000582176261
v -0.02844227 -0.09744706 0.0006528301
v -0.0297552422 -0.09882554 0.000582176261
v -0.0275141969 -0.0956531838 0.00115621
v -0.0303015634 -0.098235935 0.00115621
v -0.0290531591 -0.09678777 0.00135362055
v -0.0279921629 -0.09513735 0.00190713163
v -0.03077953 -0.0977201 0.00190713163
v -0.02956023 -0.09624053 0.00227619149
v -0.0283644255 -0.09473559 0.002803695
v -0.0311517939 -0.0973183438 0.002803695
v -0.0299123228 -0.09586054 0.00336185237
v -0.0286039244 -0.0944771245 0.00379346544
v -0.0313912928 -0.09705987 0.00379346544
v -0.030080758 -0.09567876 0.004522163
v -0.02869998 -0.09437346 0.004812507
v -0.0314873457 -0.09695621 0.004812507
v -0.0300667062 -0.09569392 0.005661693
v -0.0286595784 -0.09441706 0.00579844741
v -0.0298973583 -0.09587669 0.00670168549
v -0.0314469449 -0.09699981 0.00579844741
v -0.028503675 -0.0945853144 0.00670168549
v -0.03129104 -0.0971680656 0.00670168549
v -0.0282386653 -0.09487132 0.007548106
v -0.0310260337 -0.09745407 0.007548106
v -0.02958433 -0.09621452 0.00766685465
v -0.0278485138 -0.09529238 0.008351907
v -0.03063588 -0.09787513 0.008351907
v -0.0292421971 -0.0965837538 0.008351907
v -0.0288114622 -0.09704862 0.008963028
v -0.027338136 -0.0958431959 0.00905514
v -0.0301255025 -0.09842594 0.00905514
v -0.0283047967 -0.09759542 0.009464952
v -0.0267287679 -0.0965008438 0.009602852
v -0.0295161325 -0.09908359 0.009602852
v -0.0277430862 -0.09820163 0.009829749
v -0.0260560475 -0.09722686 0.009955227
v -0.028843414 -0.0998096 0.009955227
v -0.02715274 -0.098838754 0.0100416038
v -0.025363436 -0.09797434 0.0100965528
v -0.0281508025 -0.100557089 0.0100965528
v -0.0265616756 -0.09947664 0.0100990189
v -0.0246933214 -0.09869754 0.01003711
v -0.0274806879 -0.101280294 0.01003711
v -0.0259952247 -0.10008797 0.010013842
v -0.0240794159 -0.099360086 0.00980773
v -0.0268667825 -0.101942837 0.00980773
v -0.02350413 -0.09998095 0.009417823
v -0.0248171035 -0.101359427 0.00934717
v -0.0262914971 -0.102563694 0.009417823
v -0.02295781 -0.100570552 0.008843789
v -0.0257451758 -0.1031533 0.008843789
v -0.0242062137 -0.102018714 0.008646379
v -0.0224798433 -0.101086386 0.008092869
v -0.02526721 -0.103669137 0.008092869
v -0.023699142 -0.102565959 0.007723809
v -0.0221075788 -0.101488143 0.00719630439
v -0.0248949453 -0.104070887 0.00719630439
v -0.0233470481 -0.102945946 0.006638145
v -0.02186808 -0.101746611 0.00620653247
v -0.0246554464 -0.104329363 0.00620653247
v -0.0231786147 -0.103127725 0.00547783542
v -0.0217720252 -0.101850279 0.005187492
v -0.0245593917 -0.10443303 0.005187492
v -0.0231926646 -0.103112563 0.004338306
v -0.0218124259 -0.101806678 0.004201552
v -0.0233620126 -0.1029298 0.003298313
v -0.0245997943 -0.104389429 0.004201552
v -0.02196833 -0.101638421 0.003298313
v -0.0247556958 -0.104221173 0.003298313
v -0.022233339 -0.101352416 0.00245189341
v -0.0250207055 -0.103935167 0.00245189341
v -0.0236750431 -0.102591969 0.00233314373
v -0.0226234924 -0.100931354 0.00164809264
v -0.0254108589 -0.103514105 0.00164809264
v -0.0240171757 -0.102222733 0.00164809264
v -0.02444791 -0.101757869 0.00103697088
v -0.02313387 -0.10038054 0.0009448584
v -0.0259212367 -0.102963291 0.0009448584
v -0.024954576 -0.101211064 0.0005350476
v -0.0237432383 -0.09972289 0.000397146679
v -0.0265306048 -0.102305643 0.000397146679
v -0.0255162865 -0.100604855 0.000170250423
v -0.0244159587 -0.09899688 4.47724E-05
v -0.0272033252 -0.101579629 4.47724E-05
v -0.0261066332 -0.09996773 -4.16049734E-05
v -0.0251085684 -0.0982494 -9.655394E-05
v -0.0278959367 -0.100832149 -9.655394E-05
v -0.0266976971 -0.0993298441 -9.90182161E-05
v -0.0257786848 -0.09752619 -3.711041E-05
v -0.0285660513 -0.100108944 -3.711041E-05
v -0.027264148 -0.09871852 -1.38422474E-05
v -0.02639259 -0.09686365 0.000192269683
v -0.0291799549 -0.0994464 0.000192269683
v -0.0288893655 -0.09976001 -0.00652922969
v -0.0281558484 -0.09908034 -0.00652922969
v -0.0283419713 -0.09887947 -0.006403084
v -0.0287348423 -0.09919113 -0.00638022553
v -0.0290754884 -0.09955914 -0.006403084
v -0.0285187215 -0.09868872 -0.006217365
v -0.0292522386 -0.09936839 -0.006217365
v -0.028932482 -0.09897783 -0.0061535025
v -0.0286733583 -0.0985218361 -0.005974422
v -0.0294068754 -0.0992015 -0.005974422
v -0.0290965345 -0.09880078 -0.005855021
v -0.0287937969 -0.09839185 -0.005684356
v -0.029527314 -0.099071525 -0.005684356
v -0.0292104483 -0.0986778438 -0.00550377835
v -0.0288712811 -0.09830823 -0.005364135
v -0.0296047982 -0.0989879 -0.005364135
v -0.0292649418 -0.09861903 -0.005128382
v -0.0289023574 -0.09827469 -0.00503444858
v -0.0296358746 -0.0989543647 -0.00503444858
v -0.0292603951 -0.09862394 -0.00475970935
v -0.0288892873 -0.0982888 -0.004715466
v -0.0292056054 -0.09868307 -0.004423242
v -0.0296228044 -0.09896847 -0.004715466
v -0.0288388468 -0.09834323 -0.004423242
v -0.0295723639 -0.0990229 -0.004423242
v -0.02875311 -0.09843577 -0.0041493997
v -0.0294866264 -0.09911543 -0.0041493997
v -0.0291043315 -0.09879237 -0.004110981
v -0.0286268834 -0.09857199 -0.00388934743
v -0.0293604 -0.09925166 -0.00388934743
v -0.028993642 -0.09891182 -0.00388934743
v -0.0288542863 -0.09906222 -0.00369162951
v -0.02846176 -0.0987502 -0.003661831
v -0.029195277 -0.09942987 -0.003661831
v -0.0286903642 -0.0992391258 -0.003529246
v -0.028264612 -0.09896296 -0.00348462816
v -0.02899813 -0.0996426344 -0.00348462816
v -0.0285086352 -0.0994352549 -0.00341122225
v -0.0280469675 -0.09919785 -0.00337062683
v -0.0287804846 -0.09987752 -0.00337062683
v -0.02831764 -0.09964138 -0.00334268156
v -0.0278228875 -0.09943968 -0.00332490355
v -0.0285564046 -0.100119352 -0.00332490355
v -0.028126413 -0.09984776 -0.0033241054
v -0.0276060849 -0.09967366 -0.00334413443
v -0.0283396021 -0.10035333 -0.00334413443
v -0.0279431511 -0.100045539 -0.00335166231
v -0.02740747 -0.09988801 -0.003418346
v -0.0281409863 -0.100567684 -0.003418346
v -0.0272213481 -0.100088879 -0.00354449265
v -0.0275619924 -0.100456893 -0.003567352
v -0.0279548652 -0.100768551 -0.00354449265
v -0.0270445962 -0.100279637 -0.00373020861
v -0.0277781133 -0.1009593 -0.00373020861
v -0.0273643527 -0.100670196 -0.00379407685
v -0.0268899612 -0.100446522 -0.00397315435
v -0.0276234783 -0.101126194 -0.00397315435
v -0.0272003 -0.100847244 -0.00409255642
v -0.0267695226 -0.1005765 -0.00426321942
v -0.02750304 -0.101256169 -0.00426321942
v -0.0270863883 -0.100970179 -0.0044438
v -0.0266920365 -0.100660123 -0.00458344072
v -0.0274255536 -0.101339795 -0.00458344072
v -0.0270318948 -0.101028994 -0.004819194
v -0.02666096 -0.100693665 -0.004913129
v -0.0273944773 -0.10137333 -0.004913129
v -0.02703644 -0.101024084 -0.00518786628
v -0.0266740322 -0.100679554 -0.00523210969
v -0.02709123 -0.100964956 -0.00552433357
v -0.02740755 -0.101359226 -0.00523210969
v -0.02672447 -0.10062512 -0.00552433357
v -0.0274579879 -0.101304792 -0.00552433357
v -0.0268102083 -0.100532591 -0.005798173
v -0.0275437254 -0.101212263 -0.005798173
v -0.0271925032 -0.100855656 -0.005836596
v -0.0269364342 -0.100396365 -0.00605823
v -0.0276699513 -0.101076037 -0.00605823
v -0.0273031928 -0.1007362 -0.00605823
v -0.0274425484 -0.1005858 -0.00625594426
v -0.0271015577 -0.100218162 -0.006285743
v -0.0278350748 -0.100897834 -0.006285743
v -0.02760647 -0.1004089 -0.00641833153
v -0.0272987057 -0.100005388 -0.0064629456
v -0.0280322228 -0.10068506 -0.0064629456
v -0.0277882 -0.100212768 -0.006536356
v -0.02751635 -0.0997705 -0.006576947
v -0.0282498673 -0.100450173 -0.006576947
v -0.0279791951 -0.10000664 -0.006604894
v -0.02774043 -0.09952867 -0.006622675
v -0.0284739472 -0.100208342 -0.006622675
v -0.0281704217 -0.09980027 -0.00662346836
v -0.0279572327 -0.09929469 -0.00660343934
v -0.02869075 -0.099974364 -0.00660343934
v -0.0283536837 -0.09960248 -0.00659591239
v -0.0281558484 -0.09908034 -0.00652922969
v -0.0288893655 -0.09976001 -0.00652922969
v -0.021618668 -0.107606731 0.00272096181
v -0.02088515 -0.10692706 0.00272096181
v -0.0210712738 -0.106726192 0.002847108
v -0.0214641448 -0.107037842 0.002869967
v -0.0218047909 -0.107405864 0.002847108
v -0.0212480258 -0.106535435 0.003032825
v -0.0219815429 -0.107215106 0.003032825
v -0.0216617845 -0.106824547 0.0030966932
v -0.02140266 -0.106368549 0.00327576976
v -0.0221361779 -0.107048221 0.00327576976
v -0.0218258388 -0.1066475 0.003395171
v -0.0215231 -0.106238574 0.00356583484
v -0.0222566165 -0.106918238 0.00356583484
v -0.02193975 -0.106524557 0.003746416
v -0.0216005854 -0.106154948 0.0038860552
v -0.0223341025 -0.106834613 0.0038860552
v -0.0219942443 -0.106465749 0.00412181
v -0.0216316618 -0.106121406 0.00421574432
v -0.0223651789 -0.106801078 0.00421574432
v -0.0219897 -0.106470652 0.00449048076
v -0.02161859 -0.106135517 0.004534725
v -0.0219349116 -0.106529787 0.004826949
v -0.0223521069 -0.106815189 0.004534725
v -0.0215681531 -0.106189951 0.004826949
v -0.02230167 -0.106869623 0.004826949
v -0.0214824136 -0.10628248 0.005100792
v -0.02221593 -0.106962152 0.005100792
v -0.0218336359 -0.10663908 0.00513921
v -0.0213561878 -0.106418706 0.00536084455
v -0.0220897049 -0.107098378 0.00536084455
v -0.0217229463 -0.106758542 0.00536084455
v -0.02158359 -0.10690894 0.0055585606
v -0.0211910643 -0.106596909 0.005588362
v -0.0219245814 -0.107276581 0.005588362
v -0.0214196686 -0.107085846 0.0057209474
v -0.0209939145 -0.106809676 0.00576556241
v -0.0217274316 -0.107489347 0.00576556241
v -0.02123794 -0.107281975 0.00583897065
v -0.0207762718 -0.107044563 0.005879566
v -0.0215097889 -0.107724234 0.005879566
v -0.021046944 -0.107488096 0.00590751134
v -0.0205521919 -0.1072864 0.00592528842
v -0.021285709 -0.107966065 0.00592528842
v -0.0208557174 -0.107694477 0.00592608657
v -0.02033539 -0.107520379 0.00590605754
v -0.0210689064 -0.108200043 0.00590605754
v -0.0206724554 -0.10789226 0.00589852966
v -0.0201367736 -0.107734732 0.005831846
v -0.02087029 -0.1084144 0.005831846
v -0.01995065 -0.107935593 0.00570569932
v -0.0202912986 -0.108303614 0.00568284141
v -0.0206841677 -0.108615264 0.00570569932
v -0.0197739 -0.10812635 0.00551998243
v -0.0205074176 -0.108806022 0.00551998243
v -0.0200936571 -0.108516909 0.005456115
v -0.0196192637 -0.108293235 0.00527703855
v -0.02035278 -0.108972907 0.00527703855
v -0.0199296027 -0.108693957 0.00515763648
v -0.0194988251 -0.108423218 0.00498697348
v -0.0202323422 -0.10910289 0.00498697348
v -0.01981569 -0.1088169 0.004806393
v -0.019421339 -0.108506843 0.00466675358
v -0.0201548561 -0.109186515 0.00466675358
v -0.0197611973 -0.108875707 0.004430997
v -0.0193902645 -0.108540379 0.004337063
v -0.0201237816 -0.10922005 0.004337063
v -0.0197657421 -0.108870804 0.00406232662
v -0.0194033347 -0.108526275 0.00401808228
v -0.0198205337 -0.108811677 0.00372585887
v -0.0201368518 -0.109205946 0.00401808228
v -0.0194537751 -0.108471841 0.00372585887
v -0.0201872922 -0.109151512 0.00372585887
v -0.0195395127 -0.108379304 0.003452017
v -0.02027303 -0.109058976 0.003452017
v -0.0199218057 -0.108702376 0.00341359852
v -0.01966574 -0.108243078 0.00319196284
v -0.0203992575 -0.10892275 0.00319196284
v -0.020032499 -0.108582914 0.00319196284
v -0.0201718546 -0.108432516 0.00299424771
v -0.01983086 -0.108064875 0.00296444586
v -0.0205643773 -0.108744547 0.00296444586
v -0.020335773 -0.10825561 0.00283186184
v -0.02002801 -0.107852109 0.00278724637
v -0.0207615271 -0.108531781 0.00278724637
v -0.0205175038 -0.108059481 0.00271383813
v -0.0202456526 -0.107617222 0.00267324224
v -0.02097917 -0.108296894 0.00267324224
v -0.0207084976 -0.10785336 0.002645296
v -0.0204697344 -0.107375391 0.002627519
v -0.0212032516 -0.108055055 0.002627519
v -0.0208997261 -0.107646979 0.00262672128
v -0.020686537 -0.107141413 0.0026467503
v -0.0214200541 -0.107821085 0.0026467503
v -0.021082988 -0.107449204 0.00265427865
v -0.02088515 -0.10692706 0.00272096181
v -0.021618668 -0.107606731 0.00272096181
v -0.0279057529 -0.100821555 0.0134183448
v -0.0271722358 -0.100141883 0.0134183448
v -0.0273583569 -0.0999410152 0.0135444915
v -0.0277512278 -0.100252666 0.01356735
v -0.028091874 -0.100620687 0.0135444915
v -0.0275351088 -0.09975026 0.0137302084
v -0.028268626 -0.10042993 0.0137302084
v -0.02794887 -0.10003937 0.0137940757
v -0.0276897438 -0.09958337 0.0139731523
v -0.02842326 -0.100263044 0.0139731523
v -0.0281129219 -0.09986232 0.0140925543
v -0.0278101824 -0.09945339 0.0142632183
v -0.0285437 -0.100133061 0.0142632183
v -0.0282268338 -0.09973938 0.014443798
v -0.0278876685 -0.09936977 0.0145834368
v -0.0286211856 -0.100049436 0.0145834368
v -0.0282813273 -0.09968057 0.0148191936
v -0.0279187448 -0.09933623 0.0149131278
v -0.0286522619 -0.1000159 0.0149131278
v -0.0282767825 -0.0996854752 0.0151878642
v -0.0279056728 -0.09935034 0.0152321085
v -0.0282219928 -0.09974461 0.0155243315
v -0.02863919 -0.100030005 0.0152321085
v -0.0278552342 -0.0994047746 0.0155243315
v -0.0285887513 -0.100084446 0.0155243315
v -0.0277694967 -0.0994973 0.0157981738
v -0.0285030138 -0.100176975 0.0157981738
v -0.0281207189 -0.0998539 0.0158365928
v -0.02764327 -0.09963353 0.0160582289
v -0.0283767879 -0.1003132 0.0160582289
v -0.0280100275 -0.0999733657 0.0160582289
v -0.0278706737 -0.100123763 0.0162559431
v -0.0274781473 -0.09981173 0.0162857454
v -0.0282116644 -0.100491405 0.0162857454
v -0.0277067516 -0.10030067 0.01641833
v -0.027281 -0.1000245 0.0164629444
v -0.0280145165 -0.100704171 0.0164629444
v -0.0275250226 -0.1004968 0.0165363532
v -0.0270633548 -0.100259386 0.01657695
v -0.027796872 -0.100939058 0.01657695
v -0.027334027 -0.100702919 0.0166048948
v -0.0268392749 -0.100501224 0.0166226737
v -0.027572792 -0.101180896 0.0166226737
v -0.0271428 -0.1009093 0.01662347
v -0.0266224723 -0.1007352 0.01660344
v -0.02735599 -0.101414874 0.01660344
v -0.0269595385 -0.101107083 0.0165959112
v -0.0264238566 -0.100949548 0.0165292285
v -0.0271573737 -0.10162922 0.0165292285
v -0.0262377337 -0.101150423 0.0164030828
v -0.02657838 -0.101518437 0.0163802244
v -0.02697125 -0.101830088 0.0164030828
v -0.0260609835 -0.101341173 0.0162173659
v -0.0267945 -0.102020845 0.0162173659
v -0.02638074 -0.101731732 0.0161534976
v -0.0259063467 -0.101508059 0.0159744211
v -0.0266398638 -0.10218773 0.0159744211
v -0.0262166858 -0.101908781 0.01585502
v -0.0257859081 -0.101638041 0.0156843551
v -0.0265194252 -0.102317713 0.0156843551
v -0.0261027738 -0.102031723 0.0155037753
v -0.0257084239 -0.101721667 0.0153641365
v -0.026441941 -0.102401331 0.0153641365
v -0.02604828 -0.10209053 0.0151283806
v -0.0256773476 -0.1017552 0.0150344465
v -0.0264108647 -0.102434874 0.0150344465
v -0.026052827 -0.102085628 0.01475971
v -0.0256904177 -0.1017411 0.0147154657
v -0.0261076167 -0.102026492 0.0144232418
v -0.0264239348 -0.10242077 0.0147154657
v -0.0257408582 -0.101686664 0.0144232418
v -0.0264743753 -0.102366328 0.0144232418
v -0.0258265957 -0.101594128 0.0141493995
v -0.0265601128 -0.1022738 0.0141493995
v -0.02620889 -0.1019172 0.0141109806
v -0.0259528216 -0.1014579 0.0138893463
v -0.0266863387 -0.102137573 0.0138893463
v -0.02631958 -0.101797737 0.0138893463
v -0.0264589358 -0.10164734 0.0136916311
v -0.0261179451 -0.1012797 0.01366183
v -0.0268514622 -0.10195937 0.01366183
v -0.0266228579 -0.101470433 0.0135292439
v -0.026315093 -0.101066932 0.0134846289
v -0.02704861 -0.101746604 0.0134846289
v -0.0268045869 -0.101274304 0.0134112211
v -0.0265327375 -0.100832045 0.0133706247
v -0.0272662546 -0.101511717 0.0133706247
v -0.02699558 -0.101068184 0.0133426795
v -0.0267568175 -0.100590214 0.0133249024
v -0.0274903346 -0.101269878 0.0133249024
v -0.0271868072 -0.1008618 0.0133241042
v -0.02697362 -0.100356236 0.0133441333
v -0.0277071372 -0.1010359 0.0133441333
v -0.027370071 -0.10066402 0.0133516612
v -0.0271722358 -0.100141883 0.0134183448
v -0.0279057529 -0.100821555 0.0134183448
v -0.03517645 -0.0929748341 0.00416815327
v -0.03444293 -0.09229516 0.00416815327
v -0.0346290544 -0.0920943 0.00429429952
v -0.0350219272 -0.09240595 0.00431715744
v -0.03536257 -0.09277397 0.00429429952
v -0.0348058045 -0.09190354 0.00448001642
v -0.03553932 -0.09258321 0.00448001642
v -0.035219565 -0.09219265 0.00454388466
v -0.03496044 -0.09173666 0.00472296029
v -0.03569396 -0.09241633 0.00472296029
v -0.03538362 -0.0920156 0.00484236237
v -0.03508088 -0.09160668 0.00501302537
v -0.035814397 -0.09228635 0.00501302537
v -0.03549753 -0.09189267 0.00519360648
v -0.035158366 -0.09152305 0.00533324573
v -0.0358918831 -0.09220272 0.00533324573
v -0.0355520248 -0.09183385 0.00556900166
v -0.0351894423 -0.09148951 0.005662936
v -0.03592296 -0.09216918 0.005662936
v -0.03554748 -0.09183876 0.005937672
v -0.035176374 -0.09150362 0.00598191656
v -0.03549269 -0.09189789 0.00627414044
v -0.0359098874 -0.09218329 0.00598191656
v -0.0351259336 -0.0915580541 0.00627414044
v -0.03585945 -0.0922377259 0.00627414044
v -0.0350401923 -0.09165059 0.00654798234
v -0.03577371 -0.0923302546 0.00654798234
v -0.0353914164 -0.09200719 0.00658640126
v -0.03491397 -0.09178681 0.00680803554
v -0.0356474854 -0.09246648 0.00680803554
v -0.0352807269 -0.0921266451 0.00680803554
v -0.03514137 -0.09227704 0.007005751
v -0.0347488448 -0.09196502 0.00703555252
v -0.0354823619 -0.092644684 0.00703555252
v -0.03497745 -0.09245395 0.0071681384
v -0.034551695 -0.0921777859 0.00721275341
v -0.0352852121 -0.09285746 0.00721275341
v -0.0347957164 -0.09265008 0.007286161
v -0.0343340524 -0.09241267 0.007326757
v -0.03506757 -0.0930923447 0.007326757
v -0.0346047245 -0.092856206 0.00735470233
v -0.0341099724 -0.0926545039 0.00737248
v -0.03484349 -0.0933341756 0.00737248
v -0.0344134942 -0.09306258 0.00737327756
v -0.033893168 -0.09288848 0.007353249
v -0.0346266851 -0.09356815 0.007353249
v -0.0342302322 -0.09326036 0.00734572066
v -0.0336945541 -0.0931028351 0.007279037
v -0.03442807 -0.09378251 0.007279037
v -0.03350843 -0.0933037 0.00715289032
v -0.03384908 -0.09367172 0.00713003241
v -0.03424195 -0.09398337 0.00715289032
v -0.03333168 -0.09349445 0.006967174
v -0.0340652 -0.0941741243 0.006967174
v -0.0336514376 -0.09388502 0.006903306
v -0.0331770442 -0.0936613455 0.00672422955
v -0.03391056 -0.09434101 0.00672422955
v -0.0334873833 -0.09406207 0.00660482747
v -0.0330566056 -0.09379132 0.006434164
v -0.0337901227 -0.09447099 0.006434164
v -0.03337347 -0.094185 0.00625358336
v -0.03297912 -0.0938749462 0.006113944
v -0.0337126367 -0.09455462 0.006113944
v -0.0333189778 -0.09424381 0.00587818865
v -0.0329480432 -0.09390849 0.00578425452
v -0.03368156 -0.09458816 0.00578425452
v -0.0333235227 -0.09423891 0.005509518
v -0.0329611152 -0.09389438 0.00546527375
v -0.0333783142 -0.09417978 0.00517305033
v -0.0336946324 -0.09457405 0.00546527375
v -0.0330115557 -0.09383994 0.00517305033
v -0.0337450728 -0.0945196152 0.00517305033
v -0.0330972932 -0.0937474146 0.0048992075
v -0.03383081 -0.09442708 0.0048992075
v -0.0334795862 -0.09407048 0.00486079
v -0.0332235172 -0.09361119 0.0046391543
v -0.0339570343 -0.09429085 0.0046391543
v -0.03359028 -0.09395102 0.0046391543
v -0.03372963 -0.09380063 0.004441439
v -0.03338864 -0.09343298 0.00441163732
v -0.0341221578 -0.09411265 0.00441163732
v -0.0338935554 -0.09362372 0.00427905237
v -0.03358579 -0.09322021 0.004234437
v -0.0343193077 -0.09389988 0.004234437
v -0.0340752825 -0.09342759 0.00416102866
v -0.0338034332 -0.09298533 0.0041204337
v -0.03453695 -0.093665 0.0041204337
v -0.03426628 -0.09322146 0.00409248751
v -0.0340275131 -0.09274349 0.00407470949
v -0.03476103 -0.0934231654 0.00407470949
v -0.0344575047 -0.09301509 0.00407391274
v -0.0342443138 -0.0925095156 0.00409394177
v -0.03497783 -0.09318919 0.00409394177
v -0.0346407667 -0.09281731 0.004101469
v -0.03444293 -0.09229516 0.00416815327
v -0.03517645 -0.0929748341 0.00416815327
v -0.0291799549 -0.0994464 0.000192269683
v -0.0294866264 -0.09911543 -0.0041493997
v -0.0293604 -0.09925166 -0.00388934743
v -0.029195277 -0.09942987 -0.003661831
v -0.02899813 -0.0996426344 -0.00348462816
v -0.0295723639 -0.0990229 -0.004423242
v -0.031992048 -0.09641152 -0.0114971166
v -0.0296228044 -0.09896847 -0.004715466
v -0.0296358746 -0.0989543647 -0.00503444858
v -0.0296047982 -0.0989879 -0.005364135
v -0.029527314 -0.099071525 -0.005684356
v -0.0294068754 -0.0992015 -0.005974422
v -0.0292522386 -0.09936839 -0.006217365
v -0.0287804846 -0.09987752 -0.00337062683
v -0.030968491 -0.0975161642 -0.0119550517
v -0.0290754884 -0.09955914 -0.006403084
v -0.0298855118 -0.0986849442 -0.0122842072
v -0.0288893655 -0.09976001 -0.00652922969
v -0.02869075 -0.099974364 -0.00660343934
v -0.0287536122 -0.09990652 -0.01246699
v -0.0284739472 -0.100208342 -0.006622675
v -0.0275860988 -0.101166531 -0.0124881705
v -0.0282498673 -0.100450173 -0.006576947
v -0.0280322228 -0.10068506 -0.0064629456
v -0.0263987947 -0.1024479 -0.012336
v -0.0278350748 -0.100897834 -0.006285743
v -0.0252094883 -0.103731431 -0.0120032346
v -0.0276699513 -0.101076037 -0.00605823
v -0.0275437254 -0.101212263 -0.005798173
v -0.0240371823 -0.104996607 -0.0114879729
v -0.0274579879 -0.101304792 -0.00552433357
v -0.02290114 -0.106222652 -0.0107941022
v -0.02740755 -0.101359226 -0.00523210969
v -0.02181988 -0.107389577 -0.009931323
v -0.0273944773 -0.10137333 -0.004913129
v -0.020810172 -0.108479284 -0.008914701
v -0.0274255536 -0.101339795 -0.00458344072
v -0.0259212367 -0.102963291 0.0009448584
v -0.0198861882 -0.109476469 -0.007763832
v -0.02750304 -0.101256169 -0.00426321942
v -0.0265306048 -0.102305643 0.000397146679
v -0.0276234783 -0.101126194 -0.00397315435
v -0.0254108589 -0.103514105 0.00164809264
v -0.019058872 -0.110369325 -0.006501646
v -0.0183356 -0.1111499 -0.0051530404
v -0.0272033252 -0.101579629 4.47724E-05
v -0.0277781133 -0.1009593 -0.00373020861
v -0.0279548652 -0.100768551 -0.00354449265
v -0.0250207055 -0.103935167 0.00245189341
v -0.01772011 -0.111814156 -0.00374350417
v -0.0172127243 -0.112361737 -0.00229783822
v -0.0247556958 -0.104221173 0.003298313
v -0.0168107674 -0.112795539 -0.0008391198
v -0.021618668 -0.107606731 0.00272096181
v -0.0278959367 -0.100832149 -9.655394E-05
v -0.0281409863 -0.100567684 -0.003418346
v -0.0283396021 -0.10035333 -0.00334413443
v -0.0285660513 -0.100108944 -3.711041E-05
v -0.0285564046 -0.100119352 -0.00332490355
v -0.0214200541 -0.107821085 0.0026467503
v -0.0218047909 -0.107405864 0.002847108
v -0.0212032516 -0.108055055 0.002627519
v -0.0219815429 -0.107215106 0.003032825
v -0.02097917 -0.108296894 0.00267324224
v -0.0221361779 -0.107048221 0.00327576976
v -0.0222566165 -0.106918238 0.00356583484
v -0.0223341025 -0.106834613 0.0038860552
v -0.0207615271 -0.108531781 0.00278724637
v -0.0205643773 -0.108744547 0.00296444586
v -0.0203992575 -0.10892275 0.00319196284
v -0.01649952 -0.113131449 0.000666839071
v -0.02027303 -0.109058976 0.003452017
v -0.0245997943 -0.104389429 0.004201552
v -0.0223651789 -0.106801078 0.00421574432
v -0.0223521069 -0.106815189 0.004534725
v -0.0162758045 -0.113372885 0.00226022769
v -0.0201872922 -0.109151512 0.00372585887
v -0.0201368518 -0.109205946 0.00401808228
v -0.01615157 -0.113506958 0.00392559264
v -0.0201237816 -0.10922005 0.004337063
v -0.0245593917 -0.10443303 0.005187492
v -0.02230167 -0.106869623 0.004826949
v -0.02221593 -0.106962152 0.005100792
v -0.0161371734 -0.1135225 0.00564335473
v -0.0201548561 -0.109186515 0.00466675358
v -0.0202323422 -0.10910289 0.00498697348
v -0.0162406024 -0.113410875 0.00739023834
v -0.02035278 -0.108972907 0.00527703855
v -0.0246554464 -0.104329363 0.00620653247
v -0.0220897049 -0.107098378 0.00536084455
v -0.0219245814 -0.107276581 0.005588362
v -0.0248949453 -0.104070887 0.00719630439
v -0.0217274316 -0.107489347 0.00576556241
v -0.0164667722 -0.113166787 0.009140064
v -0.0205074176 -0.108806022 0.00551998243
v -0.0206841677 -0.108615264 0.00570569932
v -0.01681698 -0.112788834 0.01086488
v -0.02087029 -0.1084144 0.005831846
v -0.0172885824 -0.11227987 0.0125363395
v -0.0210689064 -0.108200043 0.00590605754
v -0.0178749915 -0.111647 0.0141272005
v -0.021285709 -0.107966065 0.00592528842
v -0.02526721 -0.103669137 0.008092869
v -0.0185659584 -0.110901289 0.0156127866
v -0.0215097889 -0.107724234 0.005879566
v -0.0193481669 -0.110057116 0.0169722456
v -0.0257451758 -0.1031533 0.008843789
v -0.0202060416 -0.109131277 0.0181894731
v -0.02112265 -0.108142048 0.0192536265
v -0.0262914971 -0.102563694 0.009417823
v -0.0220806673 -0.107108131 0.0201591961
v -0.0230632424 -0.106047712 0.02090571
v -0.0268667825 -0.101942837 0.00980773
v -0.0240546912 -0.104977712 0.0214971155
v -0.0264743753 -0.102366328 0.0144232418
v -0.0264239348 -0.10242077 0.0147154657
v -0.0265601128 -0.1022738 0.0141493995
v -0.0264108647 -0.102434874 0.0150344465
v -0.0266863387 -0.102137573 0.0138893463
v -0.026441941 -0.102401331 0.0153641365
v -0.0268514622 -0.10195937 0.01366183
v -0.02704861 -0.101746604 0.0134846289
v -0.0272662546 -0.101511717 0.0133706247
v -0.0265194252 -0.102317713 0.0156843551
v -0.0266398638 -0.10218773 0.0159744211
v -0.0267945 -0.102020845 0.0162173659
v -0.0250782482 -0.103873067 0.0219550524
v -0.02697125 -0.101830088 0.0164030828
v -0.0274806879 -0.101280294 0.01003711
v -0.0274903346 -0.101269878 0.0133249024
v -0.0277071372 -0.1010359 0.0133441333
v -0.0261612274 -0.102704287 0.0222842023
v -0.0271573737 -0.10162922 0.0165292285
v -0.02735599 -0.101414874 0.01660344
v -0.027293127 -0.101482712 0.02246699
v -0.027572792 -0.101180896 0.0166226737
v -0.0281508025 -0.100557089 0.0100965528
v -0.0279057529 -0.100821555 0.0134183448
v -0.028091874 -0.100620687 0.0135444915
v -0.02846064 -0.100222707 0.0224881712
v -0.027796872 -0.100939058 0.01657695
v -0.0280145165 -0.100704171 0.0164629444
v -0.0296479445 -0.09894133 0.0223359987
v -0.0282116644 -0.100491405 0.0162857454
v -0.028843414 -0.0998096 0.009955227
v -0.028268626 -0.10042993 0.0137302084
v -0.02842326 -0.100263044 0.0139731523
v -0.0295161325 -0.09908359 0.009602852
v -0.0285437 -0.100133061 0.0142632183
v -0.03083725 -0.09765781 0.0220032334
v -0.0283767879 -0.1003132 0.0160582289
v -0.0285030138 -0.100176975 0.0157981738
v -0.0320095569 -0.0963926241 0.0214879736
v -0.0285887513 -0.100084446 0.0155243315
v -0.0331456 -0.09516658 0.0207941011
v -0.02863919 -0.100030005 0.0152321085
v -0.03422686 -0.0939996541 0.01993132
v -0.0286522619 -0.1000159 0.0149131278
v -0.0301255025 -0.09842594 0.00905514
v -0.03523657 -0.09290995 0.0189146958
v -0.0286211856 -0.100049436 0.0145834368
v -0.0361605547 -0.09191276 0.01776383
v -0.03063588 -0.09787513 0.008351907
v -0.0369878672 -0.0910199061 0.0165016446
v -0.0377111435 -0.09023933 0.0151530392
v -0.0310260337 -0.09745407 0.007548106
v -0.03832663 -0.08957508 0.0137435021
v -0.038834013 -0.0890275 0.012297838
v -0.03129104 -0.0971680656 0.00670168549
v -0.0392359719 -0.0885937 0.0108391186
v -0.03442807 -0.09378251 0.007279037
v -0.0346266851 -0.09356815 0.007353249
v -0.03424195 -0.09398337 0.00715289032
v -0.03484349 -0.0933341756 0.00737248
v -0.0340652 -0.0941741243 0.006967174
v -0.03506757 -0.0930923447 0.007326757
v -0.03391056 -0.09434101 0.00672422955
v -0.0337901227 -0.09447099 0.006434164
v -0.0337126367 -0.09455462 0.006113944
v -0.0352852121 -0.09285746 0.00721275341
v -0.0354823619 -0.092644684 0.00703555252
v -0.0356474854 -0.09246648 0.00680803554
v -0.03954722 -0.08825779 0.00933316
v -0.03577371 -0.0923302546 0.00654798234
v -0.0314469449 -0.09699981 0.00579844741
v -0.03368156 -0.09458816 0.00578425452
v -0.0336946324 -0.09457405 0.00546527375
v -0.0397709347 -0.08801635 0.007739772
v -0.03585945 -0.0922377259 0.00627414044
v -0.0359098874 -0.09218329 0.00598191656
v -0.03989517 -0.08788227 0.006074406
v -0.03592296 -0.09216918 0.005662936
v -0.0314873457 -0.09695621 0.004812507
v -0.0337450728 -0.0945196152 0.00517305033
v -0.03383081 -0.09442708 0.0048992075
v -0.039909564 -0.08786674 0.00435664458
v -0.0358918831 -0.09220272 0.00533324573
v -0.035814397 -0.09228635 0.00501302537
v -0.039806135 -0.08797836 0.00260976143
v -0.03569396 -0.09241633 0.00472296029
v -0.0313912928 -0.09705987 0.00379346544
v -0.0339570343 -0.09429085 0.0046391543
v -0.0341221578 -0.09411265 0.00441163732
v -0.0311517939 -0.0973183438 0.002803695
v -0.0343193077 -0.09389988 0.004234437
v -0.0395799652 -0.0882224441 0.000859934837
v -0.03553932 -0.09258321 0.00448001642
v -0.03536257 -0.09277397 0.00429429952
v -0.0392297581 -0.0886004046 -0.000864882
v -0.03517645 -0.0929748341 0.00416815327
v -0.038758155 -0.08910937 -0.00253633969
v -0.03497783 -0.09318919 0.00409394177
v -0.0381717458 -0.0897422358 -0.00412720069
v -0.03476103 -0.0934231654 0.00407470949
v -0.03077953 -0.0977201 0.00190713163
v -0.03748078 -0.09048794 -0.005612788
v -0.03453695 -0.093665 0.0041204337
v -0.0366985723 -0.09133212 -0.00697224867
v -0.0303015634 -0.098235935 0.00115621
v -0.0358406976 -0.09225796 -0.008189476
v -0.0349240936 -0.09324718 -0.00925362948
v -0.0297552422 -0.09882554 0.000582176261
v -0.0339660719 -0.09428111 -0.0101591973
v -0.0329834968 -0.095341526 -0.0109057119
v -0.03422775 -0.09252739 0.002498906
v -0.03444293 -0.09229516 0.00416815327
v -0.0342443138 -0.0925095156 0.00409394177
v -0.0340275131 -0.09274349 0.00407470949
v -0.0346290544 -0.0920943 0.00429429952
v -0.0338034332 -0.09298533 0.0041204337
v -0.0348058045 -0.09190354 0.00448001642
v -0.03358579 -0.09322021 0.004234437
v -0.0360463336 -0.09056473 0.00431385869
v -0.03225016 -0.09466166 0.003908645
v -0.03496044 -0.09173666 0.00472296029
v -0.03338864 -0.09343298 0.00441163732
v -0.03508088 -0.09160668 0.00501302537
v -0.0332235172 -0.09361119 0.0046391543
v -0.035158366 -0.09152305 0.00533324573
v -0.0351894423 -0.09148951 0.005662936
v -0.035176374 -0.09150362 0.00598191656
v -0.0330972932 -0.0937474146 0.0048992075
v -0.0330115557 -0.09383994 0.00517305033
v -0.0329611152 -0.09389438 0.00546527375
v -0.03588733 -0.09073634 0.007538545
v -0.03209115 -0.09483327 0.007133332
v -0.0351259336 -0.0915580541 0.00627414044
v -0.0329480432 -0.09390849 0.00578425452
v -0.0350401923 -0.09165059 0.00654798234
v -0.03297912 -0.0938749462 0.006113944
v -0.03491397 -0.09178681 0.00680803554
v -0.0347488448 -0.09196502 0.00703555252
v -0.034551695 -0.0921777859 0.00721275341
v -0.0339097343 -0.09287061 0.008948281
v -0.0330566056 -0.09379132 0.006434164
v -0.0331770442 -0.0936613455 0.00672422955
v -0.03333168 -0.09349445 0.006967174
v -0.0343340524 -0.09241267 0.007326757
v -0.03350843 -0.0933037 0.00715289032
v -0.0341099724 -0.0926545039 0.00737248
v -0.0336945541 -0.0931028351 0.007279037
v -0.033893168 -0.09288848 0.007353249
v -0.0319001637 -0.09283243 0.008040806
v -0.0339097343 -0.09287061 0.008948281
v -0.03170918 -0.09083159 0.008948281
v -0.029890595 -0.0927942544 0.007133332
v -0.03209115 -0.09483327 0.007133332
v -0.0310703758 -0.09372796 0.005520988
v -0.029890595 -0.0927942544 0.007133332
v -0.0300496034 -0.09262265 0.003908645
v -0.03225016 -0.09466166 0.003908645
v -0.03209115 -0.09483327 0.007133332
v -0.0321386755 -0.09257502 0.00320377667
v -0.0300496034 -0.09262265 0.003908645
v -0.0320272 -0.09048838 0.002498906
v -0.03422775 -0.09252739 0.002498906
v -0.03225016 -0.09466166 0.003908645
v -0.0340367667 -0.09052656 0.003406383
v -0.0320272 -0.09048838 0.002498906
v -0.0338457823 -0.08852572 0.00431385869
v -0.0360463336 -0.09056473 0.00431385869
v -0.03422775 -0.09252739 0.002498906
v -0.0348665565 -0.08963103 0.00592620159
v -0.0338457823 -0.08852572 0.00431385869
v -0.033686772 -0.08869732 0.007538545
v -0.03588733 -0.09073634 0.007538545
v -0.0360463336 -0.09056473 0.00431385869
v -0.033798255 -0.09078397 0.008243414
v -0.033686772 -0.08869732 0.007538545
v -0.03170918 -0.09083159 0.008948281
v -0.0339097343 -0.09287061 0.008948281
v -0.03588733 -0.09073634 0.007538545
v -0.026823502 -0.100518242 -0.007883421
v -0.02774043 -0.09952867 -0.006622675
v -0.02751635 -0.0997705 -0.006576947
v -0.0272987057 -0.100005388 -0.0064629456
v -0.0271015577 -0.100218162 -0.006285743
v -0.0279572327 -0.09929469 -0.00660343934
v -0.0269364342 -0.100396365 -0.00605823
v -0.0255899336 -0.101849541 -0.005207739
v -0.0290152282 -0.0981528759 -0.007649473
v -0.0268102083 -0.100532591 -0.005798173
v -0.0281558484 -0.09908034 -0.00652922969
v -0.02672447 -0.10062512 -0.00552433357
v -0.0283419713 -0.09887947 -0.006403084
v -0.0266740322 -0.100679554 -0.00523210969
v -0.0285187215 -0.09868872 -0.006217365
v -0.0286733583 -0.0985218361 -0.005974422
v -0.0287937969 -0.09839185 -0.005684356
v -0.029973384 -0.09711881 -0.00473983865
v -0.02666096 -0.100693665 -0.004913129
v -0.0266920365 -0.100660123 -0.00458344072
v -0.0267695226 -0.1005765 -0.00426321942
v -0.0288712811 -0.09830823 -0.005364135
v -0.0265480913 -0.100815475 -0.00229810365
v -0.0289023574 -0.09827469 -0.00503444858
v -0.0268899612 -0.100446522 -0.00397315435
v -0.0288892873 -0.0982888 -0.004715466
v -0.0270445962 -0.100279637 -0.00373020861
v -0.0288388468 -0.09834323 -0.004423242
v -0.02875311 -0.09843577 -0.0041493997
v -0.0286268834 -0.09857199 -0.00388934743
v -0.0272213481 -0.100088879 -0.00354449265
v -0.02740747 -0.09988801 -0.003418346
v -0.0276060849 -0.09967366 -0.00334413443
v -0.0287398156 -0.09845011 -0.00206415169
v -0.02846176 -0.0987502 -0.003661831
v -0.0278228875 -0.09943968 -0.00332490355
v -0.028264612 -0.09896296 -0.00348462816
v -0.0280469675 -0.09919785 -0.00337062683
v -0.0282563232 -0.09676495 -0.00340199564
v -0.029973384 -0.09711881 -0.00473983865
v -0.0277728289 -0.0950798 -0.00473983865
v -0.0265392624 -0.0964110941 -0.00206415169
v -0.0287398156 -0.09845011 -0.00206415169
v -0.0265436769 -0.0986132845 -0.00218112767
v -0.0265392624 -0.0964110941 -0.00206415169
v -0.0243475381 -0.09877646 -0.00229810365
v -0.0265480913 -0.100815475 -0.00229810365
v -0.0287398156 -0.09845011 -0.00206415169
v -0.0249687359 -0.100313 -0.00375292171
v -0.0243475381 -0.09877646 -0.00229810365
v -0.02338938 -0.0998105258 -0.005207739
v -0.0255899336 -0.101849541 -0.005207739
v -0.0265480913 -0.100815475 -0.00229810365
v -0.0251064412 -0.100164384 -0.006545578
v -0.02338938 -0.0998105258 -0.005207739
v -0.0246229488 -0.09847923 -0.007883421
v -0.026823502 -0.100518242 -0.007883421
v -0.0255899336 -0.101849541 -0.005207739
v -0.0268190876 -0.09831606 -0.007766447
v -0.0246229488 -0.09847923 -0.007883421
v -0.026814675 -0.09611387 -0.007649473
v -0.0290152282 -0.0981528759 -0.007649473
v -0.026823502 -0.100518242 -0.007883421
v -0.0283940285 -0.09661634 -0.006194656
v -0.026814675 -0.09611387 -0.007649473
v -0.0277728289 -0.0950798 -0.00473983865
v -0.029973384 -0.09711881 -0.00473983865
v -0.0290152282 -0.0981528759 -0.007649473
v -0.0206699725 -0.107159287 0.00105171651
v -0.02088515 -0.10692706 0.00272096181
v -0.020686537 -0.107141413 0.0026467503
v -0.0204697344 -0.107375391 0.002627519
v -0.0210712738 -0.106726192 0.002847108
v -0.0202456526 -0.107617222 0.00267324224
v -0.0212480258 -0.106535435 0.003032825
v -0.02002801 -0.107852109 0.00278724637
v -0.0224885549 -0.105196625 0.00286666816
v -0.018692378 -0.109293558 0.00246145437
v -0.02140266 -0.106368549 0.00327576976
v -0.01983086 -0.108064875 0.00296444586
v -0.0215231 -0.106238574 0.00356583484
v -0.01966574 -0.108243078 0.00319196284
v -0.0216005854 -0.106154948 0.0038860552
v -0.0216316618 -0.106121406 0.00421574432
v -0.02161859 -0.106135517 0.004534725
v -0.0195395127 -0.108379304 0.003452017
v -0.0194537751 -0.108471841 0.00372585887
v -0.0194033347 -0.108526275 0.00401808228
v -0.0223295465 -0.105368234 0.00609135441
v -0.0185333677 -0.109465167 0.00568614062
v -0.0215681531 -0.106189951 0.004826949
v -0.0193902645 -0.108540379 0.004337063
v -0.0214824136 -0.10628248 0.005100792
v -0.019421339 -0.108506843 0.00466675358
v -0.0213561878 -0.106418706 0.00536084455
v -0.0211910643 -0.106596909 0.005588362
v -0.0209939145 -0.106809676 0.00576556241
v -0.0203519538 -0.1075025 0.00750109041
v -0.0194988251 -0.108423218 0.00498697348
v -0.0196192637 -0.108293235 0.00527703855
v -0.0197739 -0.10812635 0.00551998243
v -0.0207762718 -0.107044563 0.005879566
v -0.01995065 -0.107935593 0.00570569932
v -0.0205521919 -0.1072864 0.00592528842
v -0.0201367736 -0.107734732 0.005831846
v -0.02033539 -0.107520379 0.00590605754
v -0.0204789862 -0.105158448 0.00195919257
v -0.0206699725 -0.107159287 0.00105171651
v -0.01846942 -0.105120271 0.00105171651
v -0.0202880017 -0.10315761 0.00286666816
v -0.0224885549 -0.105196625 0.00286666816
v -0.0213087741 -0.104262926 0.004479011
v -0.0202880017 -0.10315761 0.00286666816
v -0.0201289933 -0.103329219 0.00609135441
v -0.0223295465 -0.105368234 0.00609135441
v -0.0224885549 -0.105196625 0.00286666816
v -0.0202404745 -0.105415858 0.006796222
v -0.0201289933 -0.103329219 0.00609135441
v -0.0181514 -0.10546349 0.00750109041
v -0.0203519538 -0.1075025 0.00750109041
v -0.0223295465 -0.105368234 0.00609135441
v -0.0183423851 -0.107464328 0.00659361575
v -0.0181514 -0.10546349 0.00750109041
v -0.0163328163 -0.107426152 0.00568614062
v -0.0185333677 -0.109465167 0.00568614062
v -0.0203519538 -0.1075025 0.00750109041
v -0.0175125971 -0.108359851 0.00407379726
v -0.0163328163 -0.107426152 0.00568614062
v -0.0164918229 -0.107254542 0.00246145437
v -0.018692378 -0.109293558 0.00246145437
v -0.0185333677 -0.109465167 0.00568614062
v -0.0185808968 -0.107206918 0.00175658613
v -0.0164918229 -0.107254542 0.00246145437
v -0.01846942 -0.105120271 0.00105171651
v -0.0206699725 -0.107159287 0.00105171651
v -0.018692378 -0.109293558 0.00246145437
v -0.02583989 -0.101579785 0.0120641515
v -0.0267568175 -0.100590214 0.0133249024
v -0.0265327375 -0.100832045 0.0133706247
v -0.026315093 -0.101066932 0.0134846289
v -0.0261179451 -0.1012797 0.01366183
v -0.02697362 -0.100356236 0.0133441333
v -0.0259528216 -0.1014579 0.0138893463
v -0.024606321 -0.102911077 0.0147398375
v -0.0280316137 -0.09921442 0.0122981016
v -0.0258265957 -0.101594128 0.0141493995
v -0.0271722358 -0.100141883 0.0134183448
v -0.0257408582 -0.101686664 0.0144232418
v -0.0273583569 -0.0999410152 0.0135444915
v -0.0256904177 -0.1017411 0.0147154657
v -0.0275351088 -0.09975026 0.0137302084
v -0.0276897438 -0.09958337 0.0139731523
v -0.0278101824 -0.09945339 0.0142632183
v -0.02898977 -0.09818035 0.0152077377
v -0.0256773476 -0.1017552 0.0150344465
v -0.0257084239 -0.101721667 0.0153641365
v -0.0257859081 -0.101638041 0.0156843551
v -0.0278876685 -0.09936977 0.0145834368
v -0.0255644768 -0.101877011 0.0176494718
v -0.0279187448 -0.09933623 0.0149131278
v -0.0259063467 -0.101508059 0.0159744211
v -0.0279056728 -0.09935034 0.0152321085
v -0.0260609835 -0.101341173 0.0162173659
v -0.0278552342 -0.0994047746 0.0155243315
v -0.0277694967 -0.0994973 0.0157981738
v -0.02764327 -0.09963353 0.0160582289
v -0.0262377337 -0.101150423 0.0164030828
v -0.0264238566 -0.100949548 0.0165292285
v -0.0266224723 -0.1007352 0.01660344
v -0.027756203 -0.09951165 0.0178834237
v -0.0274781473 -0.09981173 0.0162857454
v -0.0268392749 -0.100501224 0.0166226737
v -0.027281 -0.1000245 0.0164629444
v -0.0270633548 -0.100259386 0.01657695
v -0.0274104159 -0.09767788 0.01375292
v -0.0280316137 -0.09921442 0.0122981016
v -0.02583106 -0.0971754044 0.0122981016
v -0.0267892182 -0.09614134 0.0152077377
v -0.02898977 -0.09818035 0.0152077377
v -0.0272727087 -0.0978264958 0.01654558
v -0.0267892182 -0.09614134 0.0152077377
v -0.0255556479 -0.09747264 0.0178834237
v -0.027756203 -0.09951165 0.0178834237
v -0.02898977 -0.09818035 0.0152077377
v -0.0255600624 -0.09967483 0.0177664459
v -0.0255556479 -0.09747264 0.0178834237
v -0.0233639255 -0.099838 0.0176494718
v -0.0255644768 -0.101877011 0.0176494718
v -0.027756203 -0.09951165 0.0178834237
v -0.0239851233 -0.101374544 0.0161946546
v -0.0233639255 -0.099838 0.0176494718
v -0.0224057678 -0.10087207 0.0147398375
v -0.024606321 -0.102911077 0.0147398375
v -0.0255644768 -0.101877011 0.0176494718
v -0.0241228286 -0.101225927 0.0134019945
v -0.0224057678 -0.10087207 0.0147398375
v -0.0236393362 -0.09954077 0.0120641515
v -0.02583989 -0.101579785 0.0120641515
v -0.024606321 -0.102911077 0.0147398375
v -0.025835475 -0.0993775949 0.0121811265
v -0.0236393362 -0.09954077 0.0120641515
v -0.02583106 -0.0971754044 0.0122981016
v -0.0280316137 -0.09921442 0.0122981016
v -0.02583989 -0.101579785 0.0120641515
v -0.029890595 -0.0927942544 0.007133332
v -0.0282097161 -0.09460831 0.007648032
v -0.0284851156 -0.09431108 0.00676841848
v -0.0286471322 -0.09413623 0.00582975941
v -0.0278042611 -0.09504588 0.008483355
v -0.03170918 -0.09083159 0.008948281
v -0.0272738673 -0.09561829 0.009214166
v -0.0300496034 -0.09262265 0.003908645
v -0.02868912 -0.0940909162 0.004805155
v -0.0285892971 -0.09419865 0.003746152
v -0.0283404049 -0.09446726 0.00271756481
v -0.0320272 -0.09048838 0.002498906
v -0.0279535428 -0.09488477 0.00178584177
v -0.0277728289 -0.0950798 -0.00473983865
v -0.0274568349 -0.09542083 0.00100547262
v -0.0267892182 -0.09614134 0.0152077377
v -0.0266406015 -0.09630173 0.009783356
v -0.02583106 -0.0971754044 0.0122981016
v -0.0259415023 -0.09705622 0.0101495506
v -0.02522173 -0.097833015 0.0102964174
v -0.0245253369 -0.09858458 0.0102346446
v -0.0236393362 -0.09954077 0.0120641515
v -0.0238873567 -0.0992731 0.009996268
v -0.02328951 -0.09991831 0.009591071
v -0.0227217656 -0.100531034 0.008994526
v -0.0224057678 -0.10087207 0.0147398375
v -0.022225054 -0.101067096 0.008214158
v -0.0181514 -0.10546349 0.00750109041
v -0.0218381919 -0.101484612 0.007282434
v -0.0201289933 -0.103329219 0.00609135441
v -0.0215893015 -0.10175322 0.006253848
v -0.0214894786 -0.101860948 0.00519484375
v -0.0215314664 -0.101815633 0.00417024
v -0.0202880017 -0.10315761 0.00286666816
v -0.021693483 -0.101640783 0.00323158083
v -0.0219688825 -0.101343565 0.00235196762
v -0.0223743375 -0.100905985 0.00151664484
v -0.01846942 -0.105120271 0.00105171651
v -0.0229047313 -0.100333579 0.000785834156
v -0.02338938 -0.0998105258 -0.005207739
v -0.0235379953 -0.09965014 0.0002166424
v -0.0243475381 -0.09877646 -0.00229810365
v -0.0242370963 -0.0988956541 -0.000149550848
v -0.024956869 -0.09811886 -0.000296418555
v -0.0256532617 -0.09736729 -0.000234646723
v -0.0265392624 -0.0964110941 -0.00206415169
v -0.0262912419 -0.09667876 3.729947E-06
v -0.02688909 -0.09603356 0.000408928841
v -0.01704511 -0.106657423 -0.00761796068
v -0.0179585367 -0.105671629 -0.008755674
v -0.0162272528 -0.107540078 -0.006370199
v -0.0189567078 -0.10459438 -0.009760675
v -0.0155122466 -0.108311728 -0.005037006
v -0.0149037912 -0.108968392 -0.003643576
v -0.0144022033 -0.109509714 -0.00221443456
v -0.0200256091 -0.103440791 -0.0106135933
v -0.0211486686 -0.102228761 -0.01129954
v -0.0223075785 -0.100978039 -0.0118089141
v -0.0164918229 -0.107254542 0.00246145437
v -0.0246229488 -0.09847923 -0.007883421
v -0.01400484 -0.109938562 -0.0007723877
v -0.0234832913 -0.0997091755 -0.012137874
v -0.0246570278 -0.09844245 -0.0122883068
v -0.0258111954 -0.09719685 -0.012267367
v -0.0136971492 -0.110270627 0.0007163603
v -0.01347599 -0.110509306 0.00229153875
v -0.0133531764 -0.110641852 0.003937871
v -0.026814675 -0.09611387 -0.007649473
v -0.0163328163 -0.107426152 0.00568614062
v -0.02693016 -0.09598923 -0.0120866681
v -0.0133389439 -0.110657208 0.005636002
v -0.01344119 -0.110546865 0.00736292126
v -0.0136647783 -0.110305563 0.009092749
v -0.0280007627 -0.0948338062 -0.0117612826
v -0.02901262 -0.09374179 -0.011308576
v -0.0299927387 -0.0926840156 -0.0107239289
v -0.0140109826 -0.109931931 0.0107978536
v -0.030964084 -0.09163572 -0.009985945
v -0.0144771971 -0.109428778 0.0124502108
v -0.0319111571 -0.09061362 -0.009090728
v -0.03281729 -0.0896357 -0.008038738
v -0.0336653553 -0.08872044 -0.00683542248
v -0.0150569025 -0.108803146 0.0140228905
v -0.0157399736 -0.108065963 0.0154914977
v -0.0165132433 -0.107231423 0.0168354213
v -0.034438625 -0.08788591 -0.005491498
v -0.0173613112 -0.106316172 0.0180387348
v -0.0351216942 -0.08714872 -0.00402289163
v -0.0182674415 -0.105338253 0.019090727
v -0.0192145146 -0.104316145 0.0199859478
v -0.02018586 -0.103267848 0.0207239315
v -0.0357014 -0.0865230858 -0.002450212
v -0.0361676142 -0.08601993 -0.000797855668
v -0.03651382 -0.0856463 0.0009072507
v -0.0233639255 -0.099838 0.0176494718
v -0.0338457823 -0.08852572 0.00431385869
v -0.0211659782 -0.102210082 0.0213085748
v -0.0367374048 -0.08540501 0.00263707712
v -0.03683965 -0.0852946639 0.004363996
v -0.0368254222 -0.08531002 0.00606212765
v -0.0221778359 -0.101118058 0.02176128
v -0.0232484378 -0.09996264 0.0220866725
v -0.0243674014 -0.0987550244 0.0222673677
v -0.033686772 -0.08869732 0.007538545
v -0.0255556479 -0.09747264 0.0178834237
v -0.03670261 -0.08544256 0.00770846
v -0.02552157 -0.097509414 0.0222883075
v -0.0266953073 -0.09624269 0.0221378729
v -0.02787102 -0.09497383 0.0218089111
v -0.0364814475 -0.0856812447 0.009283639
v -0.03617376 -0.08601331 0.0107723866
v -0.03577639 -0.08644216 0.0122144343
v -0.0290299319 -0.0937231 0.02129954
v -0.0352748074 -0.08698348 0.0136435768
v -0.0301529877 -0.09251107 0.0206136
v -0.034666352 -0.08764014 0.0150370048
v -0.03395135 -0.08841179 0.0163701978
v -0.03313349 -0.08929445 0.01761796
v -0.03122189 -0.0913574845 0.0197606739
v -0.0322200619 -0.0902802348 0.0187556725
f 1 2 3
f 4 1 3
f 4 3 5
f 6 4 5
f 7 5 3
f 6 5 8
f 8 5 7
f 9 6 8
f 10 8 7
f 9 8 11
f 11 8 10
f 12 9 11
f 13 11 10
f 12 11 14
f 14 11 13
f 15 12 14
f 16 14 13
f 15 14 17
f 17 14 16
f 18 15 17
f 19 17 16
f 20 18 17
f 20 17 19
f 20 21 18
f 21 20 19
f 21 22 18
f 21 19 23
f 21 24 22
f 24 21 23
f 24 25 22
f 24 23 26
f 24 27 25
f 27 24 26
f 27 28 25
f 27 26 29
f 27 30 28
f 30 27 29
f 30 31 28
f 30 29 32
f 30 33 31
f 33 30 32
f 33 34 31
f 33 32 35
f 33 36 34
f 36 33 35
f 36 37 34
f 36 35 38
f 37 36 39
f 36 38 39
f 37 39 40
f 40 39 38
f 41 37 40
f 40 38 42
f 41 40 43
f 43 40 42
f 44 41 43
f 43 42 45
f 44 43 46
f 46 43 45
f 47 44 46
f 47 46 48
f 46 45 49
f 48 46 49
f 50 47 48
f 48 49 51
f 52 50 48
f 48 51 53
f 52 48 54
f 54 48 53
f 55 52 54
f 54 53 56
f 55 54 57
f 57 54 56
f 58 55 57
f 57 56 59
f 58 57 60
f 60 57 59
f 61 58 60
f 60 59 62
f 61 60 63
f 63 60 62
f 64 61 63
f 63 62 65
f 64 63 66
f 66 63 65
f 67 64 66
f 66 65 68
f 67 66 69
f 69 66 68
f 70 67 69
f 70 69 71
f 69 68 72
f 71 69 72
f 73 70 71
f 71 72 74
f 75 73 71
f 71 74 76
f 75 71 77
f 77 71 76
f 78 75 77
f 77 76 79
f 78 77 80
f 80 77 79
f 81 78 80
f 80 79 82
f 81 80 83
f 83 80 82
f 84 81 83
f 83 82 85
f 84 83 86
f 86 83 85
f 87 84 86
f 86 85 88
f 87 86 89
f 89 86 88
f 90 87 89
f 89 88 91
f 90 89 92
f 92 89 91
f 92 91 93
f 94 90 92
f 95 92 93
f 94 92 95
f 96 94 95
f 95 97 96
f 97 98 96
f 97 99 98
f 99 97 100
f 99 101 98
f 102 99 100
f 99 102 101
f 102 100 103
f 102 104 101
f 105 102 103
f 102 105 104
f 105 103 106
f 105 107 104
f 108 105 106
f 105 108 107
f 108 106 109
f 108 110 107
f 111 108 109
f 108 111 110
f 111 109 112
f 111 113 110
f 114 111 112
f 111 114 113
f 114 112 115
f 114 115 113
f 112 116 115
f 113 115 117
f 116 118 115
f 115 118 117
f 116 119 118
f 117 118 120
f 119 121 118
f 118 121 120
f 119 122 121
f 120 121 123
f 122 124 121
f 121 124 123
f 122 125 124
f 123 124 126
f 125 127 124
f 124 127 126
f 125 128 127
f 126 127 129
f 128 130 127
f 127 130 129
f 128 131 130
f 129 130 132
f 131 133 130
f 130 133 132
f 131 134 133
f 134 132 133
f 134 131 135
f 134 136 132
f 137 134 135
f 134 137 136
f 137 135 138
f 137 139 136
f 140 137 138
f 137 140 139
f 140 138 141
f 142 140 141
f 140 143 139
f 140 142 143
f 142 141 144
f 142 145 143
f 142 144 146
f 142 147 145
f 148 142 146
f 142 148 147
f 148 146 149
f 148 150 147
f 151 148 149
f 148 151 150
f 151 149 152
f 151 153 150
f 154 151 152
f 151 154 153
f 154 152 155
f 154 156 153
f 157 154 155
f 154 157 156
f 157 155 158
f 157 159 156
f 160 157 158
f 157 160 159
f 160 158 161
f 160 162 159
f 163 160 161
f 160 163 162
f 163 161 164
f 165 163 164
f 163 166 162
f 163 165 166
f 165 164 167
f 165 168 166
f 165 167 169
f 165 170 168
f 171 165 169
f 165 171 170
f 171 169 172
f 171 173 170
f 174 171 172
f 171 174 173
f 174 172 175
f 174 176 173
f 177 174 175
f 174 177 176
f 177 175 178
f 177 179 176
f 180 177 178
f 177 180 179
f 180 178 181
f 180 182 179
f 183 180 181
f 180 183 182
f 183 181 184
f 183 185 182
f 186 183 184
f 183 186 185
f 186 184 187
f 186 188 185
f 189 186 187
f 186 189 188
f 189 190 188
f 191 192 193
f 194 191 193
f 194 193 195
f 196 194 195
f 197 195 193
f 196 195 198
f 198 195 197
f 199 196 198
f 200 198 197
f 199 198 201
f 201 198 200
f 202 199 201
f 203 201 200
f 202 201 204
f 204 201 203
f 205 202 204
f 206 204 203
f 205 204 207
f 207 204 206
f 208 205 207
f 209 207 206
f 210 208 207
f 210 207 209
f 210 211 208
f 211 210 209
f 211 212 208
f 211 209 213
f 211 214 212
f 214 211 213
f 214 215 212
f 214 213 216
f 214 217 215
f 217 214 216
f 217 218 215
f 217 216 219
f 217 220 218
f 220 217 219
f 220 221 218
f 220 219 222
f 220 223 221
f 223 220 222
f 223 224 221
f 223 222 225
f 223 226 224
f 226 223 225
f 226 227 224
f 226 225 228
f 227 226 229
f 226 228 229
f 227 229 230
f 230 229 228
f 231 227 230
f 230 228 232
f 231 230 233
f 233 230 232
f 234 231 233
f 233 232 235
f 234 233 236
f 236 233 235
f 237 234 236
f 237 236 238
f 236 235 239
f 238 236 239
f 240 237 238
f 238 239 241
f 242 240 238
f 238 241 243
f 242 238 244
f 244 238 243
f 245 242 244
f 244 243 246
f 245 244 247
f 247 244 246
f 248 245 247
f 247 246 249
f 248 247 250
f 250 247 249
f 251 248 250
f 250 249 252
f 251 250 253
f 253 250 252
f 254 251 253
f 253 252 255
f 254 253 256
f 256 253 255
f 257 254 256
f 256 255 258
f 257 256 259
f 259 256 258
f 260 257 259
f 260 259 261
f 259 258 262
f 261 259 262
f 263 260 261
f 261 262 264
f 265 263 261
f 261 264 266
f 265 261 267
f 267 261 266
f 268 265 267
f 267 266 269
f 268 267 270
f 270 267 269
f 271 268 270
f 270 269 272
f 271 270 273
f 273 270 272
f 274 271 273
f 273 272 275
f 274 273 276
f 276 273 275
f 277 274 276
f 276 275 278
f 277 276 279
f 279 276 278
f 280 277 279
f 279 278 281
f 280 279 282
f 282 279 281
f 282 281 283
f 284 280 282
f 285 282 283
f 284 282 285
f 286 284 285
f 285 287 286
f 287 288 286
f 287 289 288
f 289 287 290
f 289 291 288
f 292 289 290
f 289 292 291
f 292 290 293
f 292 294 291
f 295 292 293
f 292 295 294
f 295 293 296
f 295 297 294
f 298 295 296
f 295 298 297
f 298 296 299
f 298 300 297
f 301 298 299
f 298 301 300
f 301 299 302
f 301 303 300
f 304 301 302
f 301 304 303
f 304 302 305
f 304 305 303
f 302 306 305
f 303 305 307
f 306 308 305
f 305 308 307
f 306 309 308
f 307 308 310
f 309 311 308
f 308 311 310
f 309 312 311
f 310 311 313
f 312 314 311
f 311 314 313
f 312 315 314
f 313 314 316
f 315 317 314
f 314 317 316
f 315 318 317
f 316 317 319
f 318 320 317
f 317 320 319
f 318 321 320
f 319 320 322
f 321 323 320
f 320 323 322
f 321 324 323
f 324 322 323
f 324 321 325
f 324 326 322
f 327 324 325
f 324 327 326
f 327 325 328
f 327 329 326
f 330 327 328
f 327 330 329
f 330 328 331
f 332 330 331
f 330 333 329
f 330 332 333
f 332 331 334
f 332 335 333
f 332 334 336
f 332 337 335
f 338 332 336
f 332 338 337
f 338 336 339
f 338 340 337
f 341 338 339
f 338 341 340
f 341 339 342
f 341 343 340
f 344 341 342
f 341 344 343
f 344 342 345
f 344 346 343
f 347 344 345
f 344 347 346
f 347 345 348
f 347 349 346
f 350 347 348
f 347 350 349
f 350 348 351
f 350 352 349
f 353 350 351
f 350 353 352
f 353 351 354
f 355 353 354
f 353 356 352
f 353 355 356
f 355 354 357
f 355 358 356
f 355 357 359
f 355 360 358
f 361 355 359
f 355 361 360
f 361 359 362
f 361 363 360
f 364 361 362
f 361 364 363
f 364 362 365
f 364 366 363
f 367 364 365
f 364 367 366
f 367 365 368
f 367 369 366
f 370 367 368
f 367 370 369
f 370 368 371
f 370 372 369
f 373 370 371
f 370 373 372
f 373 371 374
f 373 375 372
f 376 373 374
f 373 376 375
f 376 374 377
f 376 378 375
f 379 376 377
f 376 379 378
f 379 380 378
f 381 382 383
f 381 383 384
f 385 381 384
f 384 383 386
f 387 385 384
f 388 384 386
f 387 384 388
f 388 386 389
f 390 387 388
f 391 388 389
f 390 388 391
f 391 389 392
f 393 390 391
f 394 391 392
f 393 391 394
f 394 392 395
f 396 393 394
f 397 394 395
f 396 394 397
f 397 395 398
f 399 396 397
f 400 397 398
f 399 397 400
f 400 398 401
f 402 400 401
f 403 399 400
f 403 400 402
f 402 401 404
f 405 403 402
f 406 402 404
f 407 405 402
f 408 402 406
f 407 402 408
f 409 408 406
f 410 407 408
f 411 408 409
f 411 410 408
f 412 411 409
f 411 412 410
f 412 409 413
f 412 414 410
f 415 412 413
f 412 415 414
f 415 413 416
f 415 417 414
f 418 415 416
f 415 418 417
f 418 416 419
f 418 420 417
f 421 418 419
f 418 421 420
f 421 419 422
f 421 423 420
f 424 421 422
f 421 424 423
f 424 422 425
f 424 426 423
f 427 424 425
f 424 427 426
f 427 425 428
f 426 427 429
f 427 428 429
f 428 430 429
f 430 431 429
f 429 431 432
f 430 433 431
f 431 434 432
f 433 435 431
f 431 435 434
f 433 436 435
f 435 437 434
f 436 438 435
f 435 438 437
f 436 439 438
f 438 440 437
f 439 441 438
f 438 441 440
f 439 442 441
f 441 443 440
f 442 444 441
f 441 444 443
f 442 445 444
f 444 446 443
f 445 447 444
f 444 447 446
f 445 448 447
f 448 449 447
f 447 450 446
f 447 449 450
f 448 451 449
f 449 452 450
f 451 453 449
f 449 454 452
f 453 455 449
f 449 455 454
f 453 456 455
f 455 457 454
f 456 458 455
f 455 458 457
f 456 459 458
f 459 457 458
f 460 459 456
f 459 461 457
f 462 459 460
f 459 462 461
f 463 462 460
f 462 464 461
f 465 462 463
f 462 465 464
f 466 465 463
f 465 467 464
f 468 465 466
f 465 468 467
f 469 468 466
f 468 470 467
f 471 468 469
f 468 471 470
f 472 471 469
f 471 473 470
f 474 471 472
f 471 474 473
f 475 474 472
f 474 476 473
f 474 475 476
f 477 478 479
f 477 479 480
f 481 477 480
f 480 479 482
f 483 481 480
f 484 480 482
f 483 480 484
f 484 482 485
f 486 483 484
f 487 484 485
f 486 484 487
f 487 485 488
f 489 486 487
f 490 487 488
f 489 487 490
f 490 488 491
f 492 489 490
f 493 490 491
f 492 490 493
f 493 491 494
f 495 492 493
f 496 493 494
f 495 493 496
f 496 494 497
f 498 496 497
f 499 495 496
f 499 496 498
f 498 497 500
f 501 499 498
f 502 498 500
f 503 501 498
f 504 498 502
f 503 498 504
f 505 504 502
f 506 503 504
f 507 504 505
f 507 506 504
f 508 507 505
f 507 508 506
f 508 505 509
f 508 510 506
f 511 508 509
f 508 511 510
f 511 509 512
f 511 513 510
f 514 511 512
f 511 514 513
f 514 512 515
f 514 516 513
f 517 514 515
f 514 517 516
f 517 515 518
f 517 519 516
f 520 517 518
f 517 520 519
f 520 518 521
f 520 522 519
f 523 520 521
f 520 523 522
f 523 521 524
f 522 523 525
f 523 524 525
f 524 526 525
f 526 527 525
f 525 527 528
f 526 529 527
f 527 530 528
f 529 531 527
f 527 531 530
f 529 532 531
f 531 533 530
f 532 534 531
f 531 534 533
f 532 535 534
f 534 536 533
f 535 537 534
f 534 537 536
f 535 538 537
f 537 539 536
f 538 540 537
f 537 540 539
f 538 541 540
f 540 542 539
f 541 543 540
f 540 543 542
f 541 544 543
f 544 545 543
f 543 546 542
f 543 545 546
f 544 547 545
f 545 548 546
f 547 549 545
f 545 550 548
f 549 551 545
f 545 551 550
f 549 552 551
f 551 553 550
f 552 554 551
f 551 554 553
f 552 555 554
f 555 553 554
f 556 555 552
f 555 557 553
f 558 555 556
f 555 558 557
f 559 558 556
f 558 560 557
f 561 558 559
f 558 561 560
f 562 561 559
f 561 563 560
f 564 561 562
f 561 564 563
f 565 564 562
f 564 566 563
f 567 564 565
f 564 567 566
f 568 567 565
f 567 569 566
f 570 567 568
f 567 570 569
f 571 570 568
f 570 572 569
f 570 571 572
f 573 574 575
f 573 575 576
f 577 573 576
f 576 575 578
f 579 577 576
f 580 576 578
f 579 576 580
f 580 578 581
f 582 579 580
f 583 580 581
f 582 580 583
f 583 581 584
f 585 582 583
f 586 583 584
f 585 583 586
f 586 584 587
f 588 585 586
f 589 586 587
f 588 586 589
f 589 587 590
f 591 588 589
f 592 589 590
f 591 589 592
f 592 590 593
f 594 592 593
f 595 591 592
f 595 592 594
f 594 593 596
f 597 595 594
f 598 594 596
f 599 597 594
f 600 594 598
f 599 594 600
f 601 600 598
f 602 599 600
f 603 600 601
f 603 602 600
f 604 603 601
f 603 604 602
f 604 601 605
f 604 606 602
f 607 604 605
f 604 607 606
f 607 605 608
f 607 609 606
f 610 607 608
f 607 610 609
f 610 608 611
f 610 612 609
f 613 610 611
f 610 613 612
f 613 611 614
f 613 615 612
f 616 613 614
f 613 616 615
f 616 614 617
f 616 618 615
f 619 616 617
f 616 619 618
f 619 617 620
f 618 619 621
f 619 620 621
f 620 622 621
f 622 623 621
f 621 623 624
f 622 625 623
f 623 626 624
f 625 627 623
f 623 627 626
f 625 628 627
f 627 629 626
f 628 630 627
f 627 630 629
f 628 631 630
f 630 632 629
f 631 633 630
f 630 633 632
f 631 634 633
f 633 635 632
f 634 636 633
f 633 636 635
f 634 637 636
f 636 638 635
f 637 639 636
f 636 639 638
f 637 640 639
f 640 641 639
f 639 642 638
f 639 641 642
f 640 643 641
f 641 644 642
f 643 645 641
f 641 646 644
f 645 647 641
f 641 647 646
f 645 648 647
f 647 649 646
f 648 650 647
f 647 650 649
f 648 651 650
f 651 649 650
f 652 651 648
f 651 653 649
f 654 651 652
f 651 654 653
f 655 654 652
f 654 656 653
f 657 654 655
f 654 657 656
f 658 657 655
f 657 659 656
f 660 657 658
f 657 660 659
f 661 660 658
f 660 662 659
f 663 660 661
f 660 663 662
f 664 663 661
f 663 665 662
f 666 663 664
f 663 666 665
f 667 666 664
f 666 668 665
f 666 667 668
f 669 670 671
f 669 671 672
f 673 669 672
f 672 671 674
f 675 673 672
f 676 672 674
f 675 672 676
f 676 674 677
f 678 675 676
f 679 676 677
f 678 676 679
f 679 677 680
f 681 678 679
f 682 679 680
f 681 679 682
f 682 680 683
f 684 681 682
f 685 682 683
f 684 682 685
f 685 683 686
f 687 684 685
f 688 685 686
f 687 685 688
f 688 686 689
f 690 688 689
f 691 687 688
f 691 688 690
f 690 689 692
f 693 691 690
f 694 690 692
f 695 693 690
f 696 690 694
f 695 690 696
f 697 696 694
f 698 695 696
f 699 696 697
f 699 698 696
f 700 699 697
f 699 700 698
f 700 697 701
f 700 702 698
f 703 700 701
f 700 703 702
f 703 701 704
f 703 705 702
f 706 703 704
f 703 706 705
f 706 704 707
f 706 708 705
f 709 706 707
f 706 709 708
f 709 707 710
f 709 711 708
f 712 709 710
f 709 712 711
f 712 710 713
f 712 714 711
f 715 712 713
f 712 715 714
f 715 713 716
f 714 715 717
f 715 716 717
f 716 718 717
f 718 719 717
f 717 719 720
f 718 721 719
f 719 722 720
f 721 723 719
f 719 723 722
f 721 724 723
f 723 725 722
f 724 726 723
f 723 726 725
f 724 727 726
f 726 728 725
f 727 729 726
f 726 729 728
f 727 730 729
f 729 731 728
f 730 732 729
f 729 732 731
f 730 733 732
f 732 734 731
f 733 735 732
f 732 735 734
f 733 736 735
f 736 737 735
f 735 738 734
f 735 737 738
f 736 739 737
f 737 740 738
f 739 741 737
f 737 742 740
f 741 743 737
f 737 743 742
f 741 744 743
f 743 745 742
f 744 746 743
f 743 746 745
f 744 747 746
f 747 745 746
f 748 747 744
f 747 749 745
f 750 747 748
f 747 750 749
f 751 750 748
f 750 752 749
f 753 750 751
f 750 753 752
f 754 753 751
f 753 755 752
f 756 753 754
f 753 756 755
f 757 756 754
f 756 758 755
f 759 756 757
f 756 759 758
f 760 759 757
f 759 761 758
f 762 759 760
f 759 762 761
f 763 762 760
f 762 764 761
f 762 763 764
f 765 766 767
f 765 767 768
f 769 765 768
f 768 767 770
f 771 769 768
f 772 768 770
f 771 768 772
f 772 770 773
f 774 771 772
f 775 772 773
f 774 772 775
f 775 773 776
f 777 774 775
f 778 775 776
f 777 775 778
f 778 776 779
f 780 777 778
f 781 778 779
f 780 778 781
f 781 779 782
f 783 780 781
f 784 781 782
f 783 781 784
f 784 782 785
f 786 784 785
f 787 783 784
f 787 784 786
f 786 785 788
f 789 787 786
f 790 786 788
f 791 789 786
f 792 786 790
f 791 786 792
f 793 792 790
f 794 791 792
f 795 792 793
f 795 794 792
f 796 795 793
f 795 796 794
f 796 793 797
f 796 798 794
f 799 796 797
f 796 799 798
f 799 797 800
f 799 801 798
f 802 799 800
f 799 802 801
f 802 800 803
f 802 804 801
f 805 802 803
f 802 805 804
f 805 803 806
f 805 807 804
f 808 805 806
f 805 808 807
f 808 806 809
f 808 810 807
f 811 808 809
f 808 811 810
f 811 809 812
f 810 811 813
f 811 812 813
f 812 814 813
f 814 815 813
f 813 815 816
f 814 817 815
f 815 818 816
f 817 819 815
f 815 819 818
f 817 820 819
f 819 821 818
f 820 822 819
f 819 822 821
f 820 823 822
f 822 824 821
f 823 825 822
f 822 825 824
f 823 826 825
f 825 827 824
f 826 828 825
f 825 828 827
f 826 829 828
f 828 830 827
f 829 831 828
f 828 831 830
f 829 832 831
f 832 833 831
f 831 834 830
f 831 833 834
f 832 835 833
f 833 836 834
f 835 837 833
f 833 838 836
f 837 839 833
f 833 839 838
f 837 840 839
f 839 841 838
f 840 842 839
f 839 842 841
f 840 843 842
f 843 841 842
f 844 843 840
f 843 845 841
f 846 843 844
f 843 846 845
f 847 846 844
f 846 848 845
f 849 846 847
f 846 849 848
f 850 849 847
f 849 851 848
f 852 849 850
f 849 852 851
f 853 852 850
f 852 854 851
f 855 852 853
f 852 855 854
f 856 855 853
f 855 857 854
f 858 855 856
f 855 858 857
f 859 858 856
f 858 860 857
f 858 859 860
f 861 862 863
f 861 863 864
f 865 861 864
f 864 863 866
f 867 865 864
f 868 864 866
f 867 864 868
f 868 866 869
f 870 867 868
f 871 868 869
f 870 868 871
f 871 869 872
f 873 870 871
f 874 871 872
f 873 871 874
f 874 872 875
f 876 873 874
f 877 874 875
f 876 874 877
f 877 875 878
f 879 876 877
f 880 877 878
f 879 877 880
f 880 878 881
f 882 880 881
f 883 879 880
f 883 880 882
f 882 881 884
f 885 883 882
f 886 882 884
f 887 885 882
f 888 882 886
f 887 882 888
f 889 888 886
f 890 887 888
f 891 888 889
f 891 890 888
f 892 891 889
f 891 892 890
f 892 889 893
f 892 894 890
f 895 892 893
f 892 895 894
f 895 893 896
f 895 897 894
f 898 895 896
f 895 898 897
f 898 896 899
f 898 900 897
f 901 898 899
f 898 901 900
f 901 899 902
f 901 903 900
f 904 901 902
f 901 904 903
f 904 902 905
f 904 906 903
f 907 904 905
f 904 907 906
f 907 905 908
f 906 907 909
f 907 908 909
f 908 910 909
f 910 911 909
f 909 911 912
f 910 913 911
f 911 914 912
f 913 915 911
f 911 915 914
f 913 916 915
f 915 917 914
f 916 918 915
f 915 918 917
f 916 919 918
f 918 920 917
f 919 921 918
f 918 921 920
f 919 922 921
f 921 923 920
f 922 924 921
f 921 924 923
f 922 925 924
f 924 926 923
f 925 927 924
f 924 927 926
f 925 928 927
f 928 929 927
f 927 930 926
f 927 929 930
f 928 931 929
f 929 932 930
f 931 933 929
f 929 934 932
f 933 935 929
f 929 935 934
f 933 936 935
f 935 937 934
f 936 938 935
f 935 938 937
f 936 939 938
f 939 937 938
f 940 939 936
f 939 941 937
f 942 939 940
f 939 942 941
f 943 942 940
f 942 944 941
f 945 942 943
f 942 945 944
f 946 945 943
f 945 947 944
f 948 945 946
f 945 948 947
f 949 948 946
f 948 950 947
f 951 948 949
f 948 951 950
f 952 951 949
f 951 953 950
f 954 951 952
f 951 954 953
f 955 954 952
f 954 956 953
f 954 955 956
f 957 958 959
f 960 957 959
f 957 960 961
f 957 962 958
f 963 962 957
f 963 964 962
f 965 964 963
f 966 965 963
f 967 966 963
f 968 967 963
f 969 968 963
f 957 961 970
f 969 963 971
f 972 969 971
f 972 971 973
f 974 972 973
f 975 974 973
f 975 973 976
f 977 975 976
f 977 976 978
f 979 977 978
f 980 979 978
f 980 978 981
f 982 980 981
f 982 981 983
f 984 982 983
f 985 984 983
f 985 983 986
f 987 985 986
f 987 986 988
f 989 987 988
f 989 988 990
f 991 989 990
f 991 990 992
f 993 991 992
f 994 993 992
f 994 992 995
f 996 993 994
f 996 994 997
f 998 996 997
f 999 994 995
f 999 995 1000
f 999 1000 1001
f 997 1002 998
f 1002 1003 998
f 1002 1004 1003
f 1005 999 1001
f 1005 1001 1006
f 1005 1006 1007
f 1008 1005 1007
f 1009 1008 1007
f 1010 1008 1009
f 1002 1011 1004
f 1011 1012 1004
f 1011 1013 1012
f 1011 1014 1013
f 1014 1015 1013
f 1014 970 1015
f 1014 957 970
f 1016 1010 1009
f 1010 1017 1008
f 1018 1016 1009
f 1017 1019 1008
f 1020 1018 1009
f 1019 1021 1008
f 1021 1022 1008
f 1022 1023 1008
f 1024 1020 1009
f 1025 1024 1009
f 1026 1025 1009
f 1026 1009 1027
f 1028 1026 1027
f 1023 1029 1008
f 1023 1030 1029
f 1030 1031 1029
f 1028 1027 1032
f 1033 1028 1032
f 1034 1033 1032
f 1034 1032 1035
f 1036 1034 1035
f 1031 1037 1029
f 1031 1038 1037
f 1038 1039 1037
f 1036 1035 1040
f 1041 1036 1040
f 1042 1041 1040
f 1042 1040 1043
f 1044 1042 1043
f 1039 1045 1037
f 1039 1046 1045
f 1046 1047 1045
f 1047 1048 1045
f 1047 1049 1048
f 1044 1043 1050
f 1051 1044 1050
f 1052 1051 1050
f 1052 1050 1053
f 1054 1052 1053
f 1054 1053 1055
f 1056 1054 1055
f 1056 1055 1057
f 1058 1056 1057
f 1049 1059 1048
f 1058 1057 1060
f 1061 1058 1060
f 1049 1061 1059
f 1059 1061 1060
f 1059 1060 1062
f 1063 1059 1062
f 1063 1062 1064
f 1063 1064 1065
f 1066 1063 1065
f 1066 1065 1067
f 1066 1067 1068
f 1069 1066 1068
f 1070 1069 1068
f 1071 1069 1070
f 1072 1071 1070
f 1071 1073 1069
f 1074 1072 1070
f 1073 1075 1069
f 1076 1074 1070
f 1075 1077 1069
f 1077 1078 1069
f 1078 1079 1069
f 1080 1076 1070
f 1081 1080 1070
f 1082 1081 1070
f 1082 1070 1083
f 1084 1082 1083
f 1079 1085 1069
f 1079 1086 1085
f 1086 1087 1085
f 1084 1083 1088
f 1089 1084 1088
f 1090 1089 1088
f 1090 1088 1091
f 1092 1090 1091
f 1087 1093 1085
f 1087 1094 1093
f 1094 1095 1093
f 1092 1091 1096
f 1097 1092 1096
f 1098 1097 1096
f 1098 1096 1099
f 1100 1098 1099
f 1095 1101 1093
f 1095 1102 1101
f 1102 1103 1101
f 1103 1104 1101
f 1103 1105 1104
f 1100 1099 1106
f 1107 1100 1106
f 1108 1107 1106
f 1108 1106 1109
f 1110 1108 1109
f 1110 1109 1111
f 1112 1110 1111
f 1112 1111 1113
f 1114 1112 1113
f 1105 1115 1104
f 1114 1113 1116
f 1117 1114 1116
f 1105 1117 1115
f 1115 1117 1116
f 1115 1116 1118
f 1119 1115 1118
f 1119 1118 1120
f 1119 1120 1121
f 1122 1119 1121
f 1122 1121 1123
f 1122 1123 1124
f 1125 1122 1124
f 1126 1125 1124
f 1127 1125 1126
f 1128 1127 1126
f 1127 1129 1125
f 1130 1128 1126
f 1129 1131 1125
f 1132 1130 1126
f 1131 1133 1125
f 1133 1134 1125
f 1134 1135 1125
f 1136 1132 1126
f 1137 1136 1126
f 1138 1137 1126
f 1138 1126 1139
f 1140 1138 1139
f 1135 1141 1125
f 1135 1142 1141
f 1142 1143 1141
f 1140 1139 1144
f 1145 1140 1144
f 1146 1145 1144
f 1146 1144 1147
f 1148 1146 1147
f 1143 1149 1141
f 1143 1150 1149
f 1150 1151 1149
f 1148 1147 1152
f 1153 1148 1152
f 1154 1153 1152
f 1154 1152 1155
f 1156 1154 1155
f 1151 1157 1149
f 1151 1158 1157
f 1158 1159 1157
f 1159 1160 1157
f 1159 1161 1160
f 1156 1155 1162
f 1163 1156 1162
f 1164 1163 1162
f 1164 1162 1165
f 1166 1164 1165
f 1166 1165 1167
f 1168 1166 1167
f 1168 1167 1169
f 1170 1168 1169
f 1161 1171 1160
f 1170 1169 1172
f 1173 1170 1172
f 1161 1173 1171
f 1171 1173 1172
f 1171 1172 1174
f 1175 1171 1174
f 1175 1174 1176
f 1175 1176 1177
f 1178 1175 1177
f 1178 1177 1179
f 1178 1179 1180
f 957 1178 1180
f 1180 963 957
f 1181 1182 1183
f 1184 1181 1183
f 1181 1185 1182
f 1181 1184 1186
f 1185 1181 1187
f 1181 1186 1188
f 1181 1189 1187
f 1190 1181 1188
f 1189 1191 1187
f 1190 1188 1192
f 1189 1193 1191
f 1190 1192 1194
f 1193 1189 1195
f 1189 1196 1195
f 1189 1197 1196
f 1198 1190 1194
f 1190 1198 1199
f 1190 1199 1200
f 1189 1201 1197
f 1202 1190 1200
f 1201 1203 1197
f 1202 1200 1204
f 1201 1205 1203
f 1202 1204 1206
f 1205 1201 1207
f 1201 1208 1207
f 1201 1209 1208
f 1201 1210 1209
f 1211 1202 1206
f 1202 1211 1212
f 1202 1212 1213
f 1210 1202 1213
f 1210 1214 1209
f 1210 1213 1215
f 1210 1216 1214
f 1210 1215 1217
f 1216 1210 1218
f 1218 1210 1217
f 1219 1220 1221
f 1219 1221 1222
f 1220 1219 1223
f 1223 1219 1222
f 1224 1225 1226
f 1227 1224 1226
f 1224 1228 1225
f 1228 1224 1227
f 1229 1230 1231
f 1232 1229 1231
f 1229 1233 1230
f 1233 1229 1232
f 1234 1235 1236
f 1237 1234 1236
f 1234 1238 1235
f 1238 1234 1237
f 1239 1240 1241
f 1242 1239 1241
f 1239 1243 1240
f 1243 1239 1242
f 1244 1245 1246
f 1247 1244 1246
f 1244 1248 1245
f 1248 1244 1247
f 1249 1250 1251
f 1252 1249 1251
f 1249 1252 1253
f 1249 1254 1250
f 1249 1253 1255
f 1256 1249 1255
f 1249 1257 1254
f 1258 1256 1255
f 1257 1259 1254
f 1256 1258 1260
f 1257 1261 1259
f 1256 1260 1262
f 1261 1257 1263
f 1257 1264 1263
f 1257 1265 1264
f 1257 1266 1265
f 1267 1256 1262
f 1256 1267 1268
f 1256 1268 1269
f 1266 1270 1265
f 1271 1256 1269
f 1266 1272 1270
f 1271 1269 1273
f 1272 1266 1274
f 1271 1273 1275
f 1266 1276 1274
f 1266 1277 1276
f 1277 1266 1278
f 1279 1271 1275
f 1271 1279 1280
f 1271 1280 1281
f 1266 1282 1278
f 1282 1271 1281
f 1282 1283 1278
f 1282 1281 1284
f 1282 1285 1283
f 1282 1284 1286
f 1285 1282 1286
f 1287 1288 1289
f 1287 1289 1290
f 1288 1287 1291
f 1291 1287 1290
f 1292 1293 1294
f 1295 1292 1294
f 1292 1296 1293
f 1296 1292 1295
f 1297 1298 1299
f 1300 1297 1299
f 1297 1301 1298
f 1301 1297 1300
f 1302 1303 1304
f 1305 1302 1304
f 1302 1306 1303
f 1306 1302 1305
f 1307 1308 1309
f 1310 1307 1309
f 1307 1311 1308
f 1311 1307 1310
f 1312 1313 1314
f 1315 1312 1314
f 1312 1316 1313
f 1316 1312 1315
f 1317 1318 1319
f 1320 1317 1319
f 1317 1321 1318
f 1317 1320 1322
f 1321 1317 1323
f 1317 1322 1324
f 1317 1325 1323
f 1326 1317 1324
f 1325 1327 1323
f 1326 1324 1328
f 1325 1329 1327
f 1326 1328 1330
f 1329 1325 1331
f 1325 1332 1331
f 1325 1333 1332
f 1334 1326 1330
f 1326 1334 1335
f 1326 1335 1336
f 1325 1337 1333
f 1338 1326 1336
f 1337 1339 1333
f 1338 1336 1340
f 1337 1341 1339
f 1338 1340 1342
f 1341 1337 1343
f 1337 1344 1343
f 1337 1345 1344
f 1337 1346 1345
f 1347 1338 1342
f 1338 1347 1348
f 1338 1348 1349
f 1346 1338 1349
f 1346 1350 1345
f 1346 1349 1351
f 1346 1352 1350
f 1346 1351 1353
f 1352 1346 1354
f 1354 1346 1353
f 1355 1356 1357
f 1355 1357 1358
f 1356 1355 1359
f 1359 1355 1358
f 1360 1361 1362
f 1363 1360 1362
f 1360 1364 1361
f 1364 1360 1363
f 1365 1366 1367
f 1368 1365 1367
f 1365 1369 1366
f 1369 1365 1368
f 1370 1371 1372
f 1373 1370 1372
f 1370 1374 1371
f 1374 1370 1373
f 1375 1376 1377
f 1378 1375 1377
f 1375 1379 1376
f 1379 1375 1378
f 1380 1381 1382
f 1383 1380 1382
f 1380 1384 1381
f 1384 1380 1383
f 1385 1386 1387
f 1388 1385 1387
f 1385 1388 1389
f 1385 1390 1386
f 1385 1389 1391
f 1392 1385 1391
f 1385 1393 1390
f 1394 1392 1391
f 1393 1395 1390
f 1392 1394 1396
f 1393 1397 1395
f 1392 1396 1398
f 1397 1393 1399
f 1393 1400 1399
f 1393 1401 1400
f 1393 1402 1401
f 1403 1392 1398
f 1392 1403 1404
f 1392 1404 1405
f 1402 1406 1401
f 1407 1392 1405
f 1402 1408 1406
f 1407 1405 1409
f 1408 1402 1410
f 1407 1409 1411
f 1402 1412 1410
f 1402 1413 1412
f 1413 1402 1414
f 1415 1407 1411
f 1407 1415 1416
f 1407 1416 1417
f 1402 1418 1414
f 1418 1407 1417
f 1418 1419 1414
f 1418 1417 1420
f 1418 1421 1419
f 1418 1420 1422
f 1421 1418 1422
f 1423 1424 1425
f 1423 1425 1426
f 1424 1423 1427
f 1427 1423 1426
f 1428 1429 1430
f 1431 1428 1430
f 1428 1432 1429
f 1432 1428 1431
f 1433 1434 1435
f 1436 1433 1435
f 1433 1437 1434
f 1437 1433 1436
f 1438 1439 1440
f 1441 1438 1440
f 1438 1442 1439
f 1442 1438 1441
f 1443 1444 1445
f 1446 1443 1445
f 1443 1447 1444
f 1447 1443 1446
f 1448 1449 1450
f 1451 1448 1450
f 1448 1452 1449
f 1452 1448 1451
f 1453 1454 1455
f 1453 1455 1456
f 1454 1453 1457
f 1453 1458 1457
f 1458 1459 1457
f 1460 1453 1456
f 1461 1460 1456
f 1460 1461 1462
f 1460 1462 1463
f 1464 1460 1463
f 1464 1463 1465
f 1466 1464 1465
f 1466 1465 1467
f 1458 1468 1459
f 1468 1469 1459
f 1468 1470 1469
f 1470 1471 1469
f 1470 1472 1471
f 1472 1470 1473
f 1470 1474 1473
f 1474 1475 1473
f 1474 1476 1475
f 1476 1474 1477
f 1474 1478 1477
f 1478 1479 1477
f 1478 1480 1479
f 1480 1481 1479
f 1480 1482 1481
f 1482 1483 1481
f 1482 1484 1483
f 1484 1482 1485
f 1482 1486 1485
f 1486 1487 1485
f 1486 1488 1487
f 1488 1486 1489
f 1486 1490 1489
f 1490 1491 1489
f 1490 1492 1491
f 1492 1493 1491
f 1492 1494 1493
f 1494 1495 1493
f 1494 1496 1495
f 1496 1494 1497
f 1494 1498 1497
f 1498 1499 1497
f 1498 1500 1499
f 1500 1498 1467
f 1498 1466 1467
f 1492 1490 1501
f 1492 1501 1502
f 1490 1503 1501
f 1492 1502 1504
f 1490 1505 1503
f 1505 1490 1506
f 1490 1507 1506
f 1508 1492 1504
f 1492 1508 1509
f 1492 1509 1510
f 1490 1511 1507
f 1512 1492 1510
f 1511 1513 1507
f 1514 1512 1510
f 1512 1514 1515
f 1512 1515 1516
f 1511 1517 1513
f 1517 1511 1518
f 1511 1519 1518
f 1520 1512 1516
f 1511 1521 1519
f 1522 1520 1516
f 1521 1523 1519
f 1521 1524 1523
f 1524 1521 1525
f 1520 1522 1526
f 1520 1526 1527
f 1528 1520 1527
f 1521 1480 1525
f 1466 1520 1528
f 1480 1529 1525
f 1466 1528 1530
f 1480 1531 1529
f 1532 1466 1530
f 1466 1532 1533
f 1466 1533 1534
f 1531 1480 1535
f 1480 1536 1535
f 1480 1537 1536
f 1464 1466 1534
f 1480 1478 1537
f 1464 1534 1538
f 1478 1539 1537
f 1464 1538 1540
f 1478 1541 1539
f 1541 1478 1542
f 1478 1543 1542
f 1544 1464 1540
f 1464 1544 1545
f 1464 1545 1546
f 1478 1547 1543
f 1548 1464 1546
f 1547 1549 1543
f 1550 1548 1546
f 1548 1550 1551
f 1548 1551 1552
f 1547 1553 1549
f 1553 1547 1554
f 1547 1555 1554
f 1556 1548 1552
f 1547 1557 1555
f 1556 1552 1558
f 1557 1559 1555
f 1557 1560 1559
f 1560 1557 1561
f 1562 1556 1558
f 1556 1562 1563
f 1556 1563 1564
f 1557 1468 1561
f 1458 1556 1564
f 1468 1565 1561
f 1458 1564 1566
f 1468 1567 1565
f 1568 1458 1566
f 1458 1568 1569
f 1458 1569 1570
f 1468 1458 1570
f 1567 1468 1571
f 1468 1570 1572
f 1468 1572 1571
