# ROS coordinates: X forward, Y left, Z up; units are metres.
o mesh
v -0.0384820253 0.09827564 0.0905070156
v -0.0352198929 0.101518884 0.090652585
v -0.03847258 0.09826619 0.090652585
v -0.0368586741 0.09990498 0.09048575
v -0.0352293365 0.101528332 0.0905070156
v -0.0368750542 0.09992136 0.0904005
v -0.0385123 0.09830591 0.09035811
v -0.03525961 0.1015586 0.09035811
v -0.0368986838 0.09994499 0.09031617
v -0.0385647938 0.0983584 0.09021481
v -0.0353121 0.101611093 0.09021481
v -0.0369296 0.09997591 0.09023457
v -0.03696754 0.100013845 0.09015756
v -0.0386382677 0.09843188 0.0900869
v -0.0353855751 0.10168457 0.0900869
v -0.03701192 0.100058228 0.0900869
v -0.037061885 0.100108191 0.09002413
v -0.03872872 0.09852233 0.08998299
v -0.03547603 0.10177502 0.08998299
v -0.03711634 0.100162648 0.08997048
v -0.03717404 0.100220345 0.08992676
v -0.0388300419 0.0986236557 0.08990875
v -0.03557735 0.101876348 0.08990875
v -0.037233673 0.100279979 0.08989333
v -0.0389353335 0.09872895 0.08986594
v -0.03568264 0.10198164 0.08986594
v -0.0372939557 0.100340262 0.08987017
v -0.03741192 0.100458227 0.08985258
v -0.039038267 0.09883188 0.08985258
v -0.03578558 0.10208457 0.08985258
v -0.0391412 0.0989348143 0.08986594
v -0.035888508 0.102187507 0.08986594
v -0.0375298858 0.100576192 0.08987017
v -0.0392464921 0.0990401059 0.08990875
v -0.0359938033 0.1022928 0.08990875
v -0.03762015 0.100666448 0.08990875
v -0.0377075039 0.100753807 0.08997048
v -0.0393478163 0.09914143 0.08998299
v -0.0360951237 0.102394119 0.08998299
v -0.03778757 0.100833878 0.090054445
v -0.03943827 0.09923188 0.0900869
v -0.0361855775 0.102484569 0.0900869
v -0.0378563032 0.10090261 0.09015756
v -0.0395117439 0.0993053541 0.09021481
v -0.03625905 0.102558047 0.09021481
v -0.037910603 0.1009569 0.09027491
v -0.039564237 0.09935784 0.09035811
v -0.0363115445 0.102610543 0.09035811
v -0.03794879 0.100995094 0.0904005
v -0.03959451 0.09938812 0.0905070156
v -0.0363418162 0.102640815 0.0905070156
v -0.03797073 0.101017028 0.0905282
v -0.0396039523 0.09939756 0.090652585
v -0.0363512635 0.102650255 0.090652585
v -0.03959451 0.09938812 0.0907981545
v -0.03796517 0.101011477 0.09081941
v -0.0363418162 0.102640815 0.0907981545
v -0.03794879 0.100995094 0.09090467
v -0.039564237 0.09935784 0.09094706
v -0.0363115445 0.102610543 0.09094706
v -0.0379251577 0.10097146 0.090989
v -0.0395117439 0.0993053541 0.09109035
v -0.03625905 0.102558047 0.09109035
v -0.03789424 0.100940548 0.09107059
v -0.0378563032 0.10090261 0.09114761
v -0.0394382663 0.09923188 0.09121827
v -0.0361855775 0.102484569 0.09121827
v -0.03781192 0.100858226 0.09121827
v -0.0377619565 0.100808263 0.0912810341
v -0.0393478163 0.09914143 0.0913221762
v -0.0360951237 0.102394119 0.0913221762
v -0.0377075039 0.100753807 0.0913346857
v -0.0376498029 0.100696109 0.0913784057
v -0.0392464921 0.0990401059 0.0913964137
v -0.0359938033 0.1022928 0.0913964137
v -0.0375901721 0.100636475 0.09141183
v -0.0391412 0.0989348143 0.0914392248
v -0.035888508 0.102187507 0.0914392248
v -0.0375298858 0.100576192 0.09143499
v -0.03741192 0.100458227 0.09145258
v -0.039038267 0.09883188 0.09145258
v -0.03578558 0.10208457 0.09145258
v -0.0389353335 0.09872895 0.0914392248
v -0.03568264 0.10198164 0.0914392248
v -0.0372939557 0.100340262 0.09143499
v -0.0388300419 0.0986236557 0.0913964137
v -0.03557735 0.101876348 0.0913964137
v -0.0372036956 0.10025 0.0913964137
v -0.03711634 0.100162648 0.0913346857
v -0.0387287177 0.09852233 0.0913221762
v -0.03547603 0.10177502 0.0913221762
v -0.03703627 0.100082576 0.0912507251
v -0.0386382677 0.09843188 0.09121827
v -0.0353855751 0.10168457 0.09121827
v -0.03696754 0.100013845 0.09114761
v -0.03856479 0.0983584 0.09109035
v -0.0353121 0.101611093 0.09109035
v -0.0369132422 0.0999595448 0.091030255
v -0.0385123 0.09830591 0.0909470543
v -0.03525961 0.1015586 0.0909470543
v -0.0368750542 0.09992136 0.09090467
v -0.0384820253 0.09827564 0.0907981545
v -0.0352293327 0.101528332 0.0907981545
v -0.036853116 0.09989942 0.090776965
v -0.03847258 0.09826619 0.090652585
v -0.0352198929 0.101518884 0.090652585
v -0.03625905 0.102558047 0.09109035
v -0.03578558 0.10208457 0.090652585
v -0.0363115445 0.102610543 0.09094706
v -0.0361855775 0.102484569 0.09121827
v -0.0363418162 0.102640815 0.0907981545
v -0.0360951237 0.102394119 0.0913221762
v -0.0363512635 0.102650255 0.090652585
v -0.0359938033 0.1022928 0.0913964137
v -0.0363418162 0.102640815 0.0905070156
v -0.035888508 0.102187507 0.0914392248
v -0.0363115445 0.102610543 0.09035811
v -0.03578558 0.10208457 0.09145258
v -0.03625905 0.102558047 0.09021481
v -0.03568264 0.10198164 0.0914392248
v -0.0361855775 0.102484569 0.0900869
v -0.03557735 0.101876348 0.0913964137
v -0.0360951237 0.102394119 0.08998299
v -0.03547603 0.10177502 0.0913221762
v -0.0359938033 0.1022928 0.08990875
v -0.0353855751 0.10168457 0.09121827
v -0.035888508 0.102187507 0.08986594
v -0.0353121 0.101611093 0.09109035
v -0.03578558 0.10208457 0.08985258
v -0.03525961 0.1015586 0.0909470543
v -0.03568264 0.10198164 0.08986594
v -0.0352293327 0.101528332 0.0907981545
v -0.03557735 0.101876348 0.08990875
v -0.0352198929 0.101518884 0.090652585
v -0.03547603 0.10177502 0.08998299
v -0.0352293365 0.101528332 0.0905070156
v -0.0353855751 0.10168457 0.0900869
v -0.03525961 0.1015586 0.09035811
v -0.0353121 0.101611093 0.09021481
v -0.03856479 0.0983584 0.09109035
v -0.039038267 0.09883188 0.090652585
v -0.0385123 0.09830591 0.0909470543
v -0.0386382677 0.09843188 0.09121827
v -0.0384820253 0.09827564 0.0907981545
v -0.0387287177 0.09852233 0.0913221762
v -0.03847258 0.09826619 0.090652585
v -0.0388300419 0.0986236557 0.0913964137
v -0.0384820253 0.09827564 0.0905070156
v -0.0389353335 0.09872895 0.0914392248
v -0.0385123 0.09830591 0.09035811
v -0.039038267 0.09883188 0.09145258
v -0.0385647938 0.0983584 0.09021481
v -0.0391412 0.0989348143 0.0914392248
v -0.0386382677 0.09843188 0.0900869
v -0.0392464921 0.0990401059 0.0913964137
v -0.03872872 0.09852233 0.08998299
v -0.0393478163 0.09914143 0.0913221762
v -0.0388300419 0.0986236557 0.08990875
v -0.0394382663 0.09923188 0.09121827
v -0.0389353335 0.09872895 0.08986594
v -0.0395117439 0.0993053541 0.09109035
v -0.039038267 0.09883188 0.08985258
v -0.039564237 0.09935784 0.09094706
v -0.0391412 0.0989348143 0.08986594
v -0.03959451 0.09938812 0.0907981545
v -0.0392464921 0.0990401059 0.08990875
v -0.0396039523 0.09939756 0.090652585
v -0.0393478163 0.09914143 0.08998299
v -0.03959451 0.09938812 0.0905070156
v -0.03943827 0.09923188 0.0900869
v -0.039564237 0.09935784 0.09035811
v -0.0395117439 0.0993053541 0.09021481
f 1 2 3
f 4 2 1
f 4 5 2
f 6 4 1
f 4 6 5
f 6 1 7
f 6 8 5
f 9 6 7
f 6 9 8
f 7 10 9
f 9 11 8
f 10 12 9
f 9 12 11
f 10 13 12
f 13 11 12
f 13 10 14
f 13 15 11
f 13 14 16
f 15 13 16
f 17 16 14
f 15 16 17
f 18 17 14
f 19 15 17
f 20 17 18
f 20 19 17
f 21 20 18
f 20 21 19
f 21 18 22
f 21 23 19
f 24 21 22
f 21 24 23
f 24 22 25
f 24 26 23
f 24 25 27
f 26 24 27
f 28 27 25
f 26 27 28
f 28 25 29
f 30 26 28
f 31 28 29
f 32 30 28
f 33 28 31
f 32 28 33
f 34 33 31
f 35 32 33
f 36 33 34
f 36 35 33
f 37 36 34
f 36 37 35
f 37 34 38
f 37 39 35
f 40 37 38
f 37 40 39
f 40 38 41
f 40 42 39
f 43 40 41
f 40 43 42
f 43 41 44
f 43 45 42
f 46 43 44
f 43 46 45
f 46 44 47
f 46 48 45
f 49 46 47
f 46 49 48
f 49 47 50
f 49 51 48
f 52 49 50
f 49 52 51
f 52 50 53
f 51 52 54
f 52 53 54
f 53 55 54
f 55 56 54
f 54 56 57
f 55 58 56
f 58 57 56
f 58 55 59
f 58 60 57
f 61 58 59
f 58 61 60
f 61 59 62
f 61 63 60
f 64 61 62
f 61 64 63
f 64 62 65
f 64 65 63
f 62 66 65
f 63 65 67
f 66 68 65
f 65 68 67
f 66 69 68
f 69 67 68
f 69 66 70
f 69 71 67
f 69 70 72
f 71 69 72
f 73 72 70
f 71 72 73
f 73 70 74
f 75 71 73
f 76 73 74
f 73 76 75
f 76 74 77
f 76 78 75
f 79 76 77
f 76 79 78
f 79 77 80
f 79 80 78
f 77 81 80
f 78 80 82
f 81 83 80
f 80 84 82
f 83 85 80
f 80 85 84
f 83 86 85
f 85 87 84
f 86 88 85
f 85 88 87
f 86 89 88
f 89 87 88
f 90 89 86
f 89 91 87
f 92 89 90
f 89 92 91
f 93 92 90
f 92 94 91
f 95 92 93
f 92 95 94
f 96 95 93
f 95 97 94
f 98 95 96
f 95 98 97
f 99 98 96
f 98 100 97
f 101 98 99
f 98 101 100
f 102 101 99
f 101 103 100
f 104 101 102
f 101 104 103
f 105 104 102
f 104 106 103
f 104 105 106
f 107 108 109
f 108 107 110
f 108 111 109
f 108 110 112
f 111 108 113
f 114 108 112
f 108 115 113
f 108 114 116
f 108 117 115
f 108 116 118
f 117 108 119
f 120 108 118
f 108 121 119
f 108 120 122
f 108 123 121
f 108 122 124
f 123 108 125
f 126 108 124
f 108 127 125
f 108 126 128
f 108 129 127
f 108 128 130
f 129 108 131
f 132 108 130
f 108 133 131
f 108 132 134
f 108 135 133
f 108 134 136
f 135 108 137
f 138 108 136
f 108 139 137
f 108 138 139
f 140 141 142
f 141 140 143
f 141 144 142
f 141 143 145
f 144 141 146
f 147 141 145
f 141 148 146
f 141 147 149
f 141 150 148
f 141 149 151
f 150 141 152
f 153 141 151
f 141 154 152
f 141 153 155
f 141 156 154
f 141 155 157
f 156 141 158
f 159 141 157
f 141 160 158
f 141 159 161
f 141 162 160
f 141 161 163
f 162 141 164
f 165 141 163
f 141 166 164
f 141 165 167
f 141 168 166
f 141 167 169
f 168 141 170
f 171 141 169
f 141 172 170
f 141 171 172
