# ROS coordinates: X forward, Y left, Z up; units are metres.
o mesh
v -0.155391261 -0.0015 -0.00063206
v -0.1577631 -0.0015 -0.00121029292
v -0.155391261 0.0015 -0.00063206
v -0.1577631 0.0015 -0.00121029292
v -0.158356056 -3.996803E-17 -0.00135485106
v -0.1577631 -0.0245000031 -0.00121029292
v -0.1577631 0.0245000031 -0.00121029292
v -0.158849388 -0.0306104012 -0.00147512322
v -0.159732029 -0.0295 -0.00169029972
v -0.160431132 -0.0283002574 -0.00186073547
v -0.160930663 -0.0270440821 -0.00198251428
v -0.157809034 -0.03160327 -0.0012214887
v -0.15761061 -0.0258354936 -0.00117311929
v -0.157147288 -0.0271457527 -0.00106016651
v -0.156643957 -0.0324574672 -0.0009374529
v -0.156390756 -0.0283550732 -0.0008757302
v -0.155391261 -0.0331602581 -0.00063206
v -0.155391261 -0.0293989815 -0.00063206
v -0.161320865 -0.0245000031 -0.00207764236
v -0.161225423 -0.0257661752 -0.00205437327
v -0.161320865 0.0245000031 -0.00207764236
v -0.160930663 0.0270440821 -0.00198251428
v -0.161225423 0.0257661752 -0.00205437327
v -0.160431132 0.0283002574 -0.00186073547
v -0.159732029 0.0295 -0.00169029972
v -0.158849388 0.0306104012 -0.00147512322
v -0.157809034 0.03160327 -0.0012214887
v -0.15761061 0.0258354936 -0.00117311929
v -0.157147288 0.0271457527 -0.00106016651
v -0.156643957 0.0324574672 -0.0009374529
v -0.156390756 0.0283550732 -0.0008757302
v -0.155391261 0.0331602581 -0.00063206
v -0.155391261 0.0293989815 -0.00063206
v -0.155391261 -0.0293989815 -0.00063206
v -0.1546948 -0.03028253 0.00016049789
v -0.155391261 -0.0331602581 -0.00063206
v -0.15388079 -0.0309534073 0.001086836
v -0.152994782 -0.031364724 0.0020951035
v -0.152090788 -0.0315000042 0.00312385336
v -0.147470117 -0.03194949 0.008382132
v -0.139548987 -0.0315000042 0.0173963234
v -0.15462029 -0.0337366425 0.000245293952
v -0.139548987 -0.0345000029 0.0173963234
v -0.153799236 -0.034159258 0.00117964949
v -0.152090788 -0.0345000029 0.00312385336
v -0.152948692 -0.0344151855 0.00214755745
v -0.155391261 0.0293989815 -0.00063206
v -0.155391261 0.0331602581 -0.00063206
v -0.1546948 0.03028253 0.00016049789
v -0.15388079 0.0309534073 0.001086836
v -0.152994782 0.031364724 0.0020951035
v -0.152090788 0.0315000042 0.00312385336
v -0.147470117 0.03194949 0.008382132
v -0.15462029 0.0337366425 0.000245293952
v -0.139548987 0.0315000042 0.0173963234
v -0.139548987 0.0345000029 0.0173963234
v -0.153799236 0.034159258 0.00117964949
v -0.152090788 0.0345000029 0.00312385336
v -0.152948692 0.0344151855 0.00214755745
v -0.162447631 -0.0245000031 -0.0010875006
v -0.161320865 -0.0245000031 -0.00207764236
v -0.161225423 -0.0257661752 -0.00205437327
v -0.162337437 -0.0263196323 -0.0009620935
v -0.160930663 -0.0270440821 -0.00198251428
v -0.16198419 -0.0281809475 -0.0005600825
v -0.160431132 -0.0283002574 -0.00186073547
v -0.159732029 -0.0295 -0.00169029972
v -0.161371663 -0.0299721 0.000136960778
v -0.1594937 -0.0299721 -0.00151327555
v -0.158849388 -0.0306104012 -0.00147512322
v -0.1586363 -0.0315710679 -0.0005375739
v -0.157809034 -0.03160327 -0.0012214887
v -0.160514265 -0.0315710679 0.00111266237
v -0.156643957 -0.0324574672 -0.0009374529
v -0.157580838 -0.0328699537 0.000663544866
v -0.1594588 -0.0328699537 0.002313781
v -0.155391261 -0.0331602581 -0.00063206
v -0.1563985 -0.0337978862 0.002009026
v -0.15462029 -0.0337366425 0.000245293952
v -0.158276469 -0.0337978862 0.003659262
v -0.153799236 -0.034159258 0.00117964949
v -0.155169874 -0.034333054 0.00340721477
v -0.157047823 -0.034333054 0.00505745038
v -0.152948692 -0.0344151855 0.00214755745
v -0.1558467 -0.0345000029 0.006424326
v -0.152090788 -0.0345000029 0.00312385336
v -0.161320865 0.0245000031 -0.00207764236
v -0.162447631 0.0245000031 -0.0010875006
v -0.161225423 0.0257661752 -0.00205437327
v -0.162337437 0.0263196323 -0.0009620935
v -0.160930663 0.0270440821 -0.00198251428
v -0.16198419 0.0281809475 -0.0005600825
v -0.160431132 0.0283002574 -0.00186073547
v -0.161371663 0.0299721 0.000136960778
v -0.159732029 0.0295 -0.00169029972
v -0.1594937 0.0299721 -0.00151327555
v -0.160514265 0.0315710679 0.00111266237
v -0.158849388 0.0306104012 -0.00147512322
v -0.1586363 0.0315710679 -0.0005375739
v -0.1594588 0.0328699537 0.002313781
v -0.157809034 0.03160327 -0.0012214887
v -0.157580838 0.0328699537 0.000663544866
v -0.156643957 0.0324574672 -0.0009374529
v -0.158276469 0.0337978862 0.003659262
v -0.155391261 0.0331602581 -0.00063206
v -0.1563985 0.0337978862 0.002009026
v -0.15462029 0.0337366425 0.000245293952
v -0.157047823 0.034333054 0.00505745038
v -0.153799236 0.034159258 0.00117964949
v -0.155169874 0.034333054 0.00340721477
v -0.1558467 0.0345000029 0.006424326
v -0.152948692 0.0344151855 0.00214755745
v -0.152090788 0.0345000029 0.00312385336
v -0.1558467 0.0315000042 0.006424326
v -0.1433049 0.0315000042 0.0206967965
v -0.1433049 0.0345000029 0.0206967965
v -0.1558467 0.0345000029 0.006424326
v -0.156687483 0.0313831419 0.00546751358
v -0.157047823 0.034333054 0.00505745038
v -0.157547534 0.03100852 0.004488781
v -0.158276469 0.0337978862 0.003659262
v -0.158375174 0.03035897 0.00354694435
v -0.1594588 0.0328699537 0.002313781
v -0.159114 0.029449746 0.00270616123
v -0.159714162 0.02833047 0.00202317024
v -0.160514265 0.0315710679 0.00111266237
v -0.160142928 0.0270766653 0.00153523986
v -0.161371663 0.0299721 0.000136960778
v -0.160390213 0.025773745 0.00125383236
v -0.16198419 0.0281809475 -0.0005600825
v -0.160467356 0.0245000031 0.0011660473
v -0.162337437 0.0263196323 -0.0009620935
v -0.162447631 0.0245000031 -0.0010875006
v -0.160467356 0.0015 0.0011660473
v -0.160467356 -0.0015 0.0011660473
v -0.162447631 -0.0245000031 -0.0010875006
v -0.152876258 -4.88498161E-17 0.009804647
v -0.1433049 0.0015 0.0206967965
v -0.1433049 -0.0015 0.0206967965
v -0.160467356 -0.0245000031 0.0011660473
v -0.162337437 -0.0263196323 -0.0009620935
v -0.16198419 -0.0281809475 -0.0005600825
v -0.160390213 -0.025773745 0.00125383236
v -0.161371663 -0.0299721 0.000136960778
v -0.160142928 -0.0270766653 0.00153523986
v -0.160514265 -0.0315710679 0.00111266237
v -0.159714162 -0.02833047 0.00202317024
v -0.1594588 -0.0328699537 0.002313781
v -0.159114 -0.029449746 0.00270616123
v -0.158375174 -0.03035897 0.00354694435
v -0.158276469 -0.0337978862 0.003659262
v -0.157547534 -0.03100852 0.004488781
v -0.157047823 -0.034333054 0.00505745038
v -0.156687483 -0.0313831419 0.00546751358
v -0.1558467 -0.0345000029 0.006424326
v -0.1558467 -0.0315000042 0.006424326
v -0.1433049 -0.0315000042 0.0206967965
v -0.1433049 -0.0345000029 0.0206967965
v -0.147697836 -0.0345000029 0.0119103249
v -0.139548987 -0.0345000029 0.0173963234
v -0.1433049 -0.0345000029 0.0206967965
v -0.1558467 -0.0345000029 0.006424326
v -0.152090788 -0.0345000029 0.00312385336
v -0.141426936 -0.0330000035 0.01904656
v -0.139548987 -0.0315000042 0.0173963234
v -0.1433049 -0.0315000042 0.0206967965
v -0.1433049 -0.0345000029 0.0206967965
v -0.139548987 -0.0345000029 0.0173963234
v -0.147697836 -0.0315000042 0.0119103249
v -0.152090788 -0.0315000042 0.00312385336
v -0.1558467 -0.0315000042 0.006424326
v -0.1433049 -0.0315000042 0.0206967965
v -0.139548987 -0.0315000042 0.0173963234
v -0.141426936 -4.99600381E-17 0.01904656
v -0.139548987 0.0015 0.0173963234
v -0.1433049 0.0015 0.0206967965
v -0.1433049 -0.0015 0.0206967965
v -0.139548987 -0.0015 0.0173963234
v -0.150008172 0.0015 0.009281185
v -0.139548987 0.0015 0.0173963234
v -0.155391261 0.0015 -0.00063206
v -0.1577631 0.0015 -0.00121029292
v -0.1433049 0.0015 0.0206967965
v -0.160467356 0.0015 0.0011660473
v -0.159115225 0.013 -2.2122822E-05
v -0.1577631 0.0015 -0.00121029292
v -0.1577631 0.0245000031 -0.00121029292
v -0.160467356 0.0245000031 0.0011660473
v -0.160467356 0.0015 0.0011660473
v -0.152090788 0.0315000042 0.00312385336
v -0.1558467 0.0315000042 0.006424326
v -0.154809535 0.0313831419 0.003817277
v -0.156687483 0.0313831419 0.00546751358
v -0.152994782 0.031364724 0.0020951035
v -0.157547534 0.03100852 0.004488781
v -0.155669585 0.03100852 0.002838545
v -0.15388079 0.0309534073 0.001086836
v -0.158375174 0.03035897 0.00354694435
v -0.15649721 0.03035897 0.00189670827
v -0.1546948 0.03028253 0.00016049789
v -0.159114 0.029449746 0.00270616123
v -0.15723604 0.029449746 0.00105592515
v -0.155391261 0.0293989815 -0.00063206
v -0.159714162 0.02833047 0.00202317024
v -0.156390756 0.0283550732 -0.0008757302
v -0.157836214 0.02833047 0.000372934
v -0.160142928 0.0270766653 0.00153523986
v -0.157147288 0.0271457527 -0.00106016651
v -0.158264965 0.0270766653 -0.000114996306
v -0.160390213 0.025773745 0.00125383236
v -0.15761061 0.0258354936 -0.00117311929
v -0.158512264 0.025773745 -0.00039640395
v -0.160467356 0.0245000031 0.0011660473
v -0.1577631 0.0245000031 -0.00121029292
v -0.147697836 0.0315000042 0.0119103249
v -0.139548987 0.0315000042 0.0173963234
v -0.1433049 0.0315000042 0.0206967965
v -0.1558467 0.0315000042 0.006424326
v -0.152090788 0.0315000042 0.00312385336
v -0.141426936 0.0330000035 0.01904656
v -0.139548987 0.0345000029 0.0173963234
v -0.1433049 0.0345000029 0.0206967965
v -0.1433049 0.0315000042 0.0206967965
v -0.139548987 0.0315000042 0.0173963234
v -0.147697836 0.0345000029 0.0119103249
v -0.152090788 0.0345000029 0.00312385336
v -0.1558467 0.0345000029 0.006424326
v -0.1433049 0.0345000029 0.0206967965
v -0.139548987 0.0345000029 0.0173963234
v -0.161884263 -4.88498161E-17 -0.00158257142
v -0.161320865 0.0245000031 -0.00207764236
v -0.161320865 -0.0245000031 -0.00207764236
v -0.162447631 -0.0245000031 -0.0010875006
v -0.162447631 0.0245000031 -0.0010875006
v -0.147470117 -4.99600381E-17 0.008382132
v -0.139548987 -0.0015 0.0173963234
v -0.155391261 -0.0015 -0.00063206
v -0.155391261 0.0015 -0.00063206
v -0.139548987 0.0015 0.0173963234
v -0.157836214 -0.02833047 0.000372934
v -0.156390756 -0.0283550732 -0.0008757302
v -0.157147288 -0.0271457527 -0.00106016651
v -0.155391261 -0.0293989815 -0.00063206
v -0.158264965 -0.0270766653 -0.000114996306
v -0.15761061 -0.0258354936 -0.00117311929
v -0.15723604 -0.029449746 0.00105592515
v -0.1546948 -0.03028253 0.00016049789
v -0.158512264 -0.025773745 -0.00039640395
v -0.1577631 -0.0245000031 -0.00121029292
v -0.160467356 -0.0245000031 0.0011660473
v -0.160390213 -0.025773745 0.00125383236
v -0.160142928 -0.0270766653 0.00153523986
v -0.159714162 -0.02833047 0.00202317024
v -0.159114 -0.029449746 0.00270616123
v -0.158375174 -0.03035897 0.00354694435
v -0.15649721 -0.03035897 0.00189670827
v -0.15388079 -0.0309534073 0.001086836
v -0.157547534 -0.03100852 0.004488781
v -0.155669585 -0.03100852 0.002838545
v -0.152994782 -0.031364724 0.0020951035
v -0.156687483 -0.0313831419 0.00546751358
v -0.154809535 -0.0313831419 0.003817277
v -0.152090788 -0.0315000042 0.00312385336
v -0.1558467 -0.0315000042 0.006424326
v -0.159115225 -0.013 -2.2122822E-05
v -0.1577631 -0.0245000031 -0.00121029292
v -0.1577631 -0.0015 -0.00121029292
v -0.160467356 -0.0015 0.0011660473
v -0.160467356 -0.0245000031 0.0011660473
v -0.150008172 -0.0015 0.009281185
v -0.1577631 -0.0015 -0.00121029292
v -0.155391261 -0.0015 -0.00063206
v -0.139548987 -0.0015 0.0173963234
v -0.160467356 -0.0015 0.0011660473
v -0.1433049 -0.0015 0.0206967965
f 1 2 3
f 2 4 3
f 2 5 4
f 6 5 2
f 5 7 4
f 5 6 8
f 5 8 9
f 10 5 9
f 5 10 11
f 6 12 8
f 6 13 12
f 13 14 12
f 14 15 12
f 14 16 15
f 16 17 15
f 16 18 17
f 5 11 19
f 19 11 20
f 21 5 19
f 22 5 21
f 23 22 21
f 5 22 24
f 5 24 25
f 26 5 25
f 5 26 7
f 26 27 7
f 27 28 7
f 27 29 28
f 27 30 29
f 30 31 29
f 30 32 31
f 32 33 31
f 34 35 36
f 35 37 36
f 37 38 36
f 38 39 36
f 39 40 36
f 39 41 40
f 36 40 42
f 41 43 40
f 40 44 42
f 43 45 40
f 45 44 40
f 45 46 44
f 47 48 49
f 48 50 49
f 48 51 50
f 51 48 52
f 48 53 52
f 48 54 53
f 52 53 55
f 53 56 55
f 54 57 53
f 53 58 56
f 57 58 53
f 57 59 58
f 60 61 62
f 63 60 62
f 63 62 64
f 65 63 64
f 65 64 66
f 65 66 67
f 68 65 67
f 69 68 67
f 69 67 70
f 68 69 70
f 68 70 71
f 71 70 72
f 73 68 71
f 71 72 74
f 73 71 75
f 75 71 74
f 76 73 75
f 74 77 75
f 76 75 78
f 77 78 75
f 77 79 78
f 80 76 78
f 79 81 78
f 80 78 82
f 81 82 78
f 83 80 82
f 81 84 82
f 85 83 82
f 84 86 82
f 86 85 82
f 87 88 89
f 88 90 89
f 90 91 89
f 90 92 91
f 92 93 91
f 92 94 93
f 94 95 93
f 94 96 95
f 97 96 94
f 96 98 95
f 96 97 98
f 97 99 98
f 97 100 99
f 98 99 101
f 100 102 99
f 99 102 101
f 101 102 103
f 100 104 102
f 102 105 103
f 104 106 102
f 102 106 105
f 106 107 105
f 104 108 106
f 106 109 107
f 108 110 106
f 106 110 109
f 108 111 110
f 110 112 109
f 111 112 110
f 111 113 112
f 114 115 116
f 114 116 117
f 118 114 117
f 118 117 119
f 120 118 119
f 120 119 121
f 122 120 121
f 122 121 123
f 124 122 123
f 125 124 123
f 125 123 126
f 127 125 126
f 127 126 128
f 129 127 128
f 129 128 130
f 131 129 130
f 131 130 132
f 131 132 133
f 134 131 133
f 135 134 133
f 135 133 136
f 135 137 134
f 137 138 134
f 137 139 138
f 139 137 135
f 140 135 136
f 140 136 141
f 140 141 142
f 143 140 142
f 143 142 144
f 145 143 144
f 145 144 146
f 147 145 146
f 147 146 148
f 149 147 148
f 150 149 148
f 150 148 151
f 152 150 151
f 152 151 153
f 154 152 153
f 153 155 154
f 155 156 154
f 155 157 156
f 157 155 158
f 159 160 161
f 159 161 162
f 160 159 163
f 163 159 162
f 164 165 166
f 164 166 167
f 165 164 168
f 168 164 167
f 169 170 171
f 169 171 172
f 170 169 173
f 173 169 172
f 174 175 176
f 174 176 177
f 175 174 178
f 178 174 177
f 179 180 181
f 179 181 182
f 180 179 183
f 184 179 182
f 179 184 183
f 185 186 187
f 188 185 187
f 185 189 186
f 189 185 188
f 190 191 192
f 191 193 192
f 194 190 192
f 193 195 192
f 194 192 196
f 195 196 192
f 197 194 196
f 195 198 196
f 197 196 199
f 198 199 196
f 200 197 199
f 198 201 199
f 202 200 199
f 202 199 201
f 200 202 203
f 204 202 201
f 202 205 203
f 206 202 204
f 202 206 205
f 207 206 204
f 206 208 205
f 209 206 207
f 206 209 208
f 210 209 207
f 209 211 208
f 212 209 210
f 209 212 211
f 213 212 210
f 212 214 211
f 212 213 214
f 215 216 217
f 215 217 218
f 216 215 219
f 219 215 218
f 220 221 222
f 220 222 223
f 221 220 224
f 224 220 223
f 225 226 227
f 225 227 228
f 226 225 229
f 229 225 228
f 230 231 232
f 233 230 232
f 230 234 231
f 234 230 233
f 235 236 237
f 235 237 238
f 236 235 239
f 239 235 238
f 240 241 242
f 240 243 241
f 244 240 242
f 244 242 245
f 240 246 243
f 246 247 243
f 248 244 245
f 248 245 249
f 250 248 249
f 248 250 251
f 252 248 251
f 244 248 252
f 253 244 252
f 240 244 253
f 254 240 253
f 246 240 254
f 255 246 254
f 246 256 247
f 256 246 255
f 256 257 247
f 258 256 255
f 256 259 257
f 259 256 258
f 259 260 257
f 261 259 258
f 259 262 260
f 262 259 261
f 262 263 260
f 264 262 261
f 262 264 263
f 265 266 267
f 268 265 267
f 265 269 266
f 269 265 268
f 270 271 272
f 273 270 272
f 270 274 271
f 270 273 275
f 274 270 275
