# ROS coordinates: X forward, Y left, Z up; units are metres.
o mesh
v -0.0115075763 -0.07635 0.194
v -0.011898797 -0.0763859 0.194
v -0.0115075763 -0.07685 0.193500012
v -0.0119037926 -0.07664177 0.19375
v -0.0118078152 -0.07687755 0.193500012
v -0.0122989807 -0.07650096 0.194
v -0.0121149328 -0.07696585 0.193500012
v -0.0123065636 -0.07677616 0.19375
v -0.012684078 -0.0767004639 0.194
v -0.0124104731 -0.07711896 0.193500012
v -0.0126832593 -0.07700743 0.19375
v -0.0130278561 -0.07697972 0.194
v -0.0126743028 -0.07733328 0.193500012
v -0.0130001474 -0.07732432 0.19375
v -0.0133071169 -0.0773235038 0.194
v -0.01288862 -0.07759711 0.193500012
v -0.0132314153 -0.07770102 0.19375
v -0.0135066221 -0.0777086 0.194
v -0.0130417272 -0.0778926462 0.193500012
v -0.0133658051 -0.07810379 0.19375
v -0.0136216823 -0.07810878 0.194
v -0.0134075768 -0.0785 0.19375
v -0.01313003 -0.07819977 0.193500012
v -0.0136575764 -0.0785 0.194
v -0.0131575773 -0.0785 0.193500012
v -0.0136216823 -0.0788912252 0.194
v -0.01313003 -0.0788002461 0.193500012
v -0.0133658051 -0.07889622 0.19375
v -0.0135066221 -0.0792914 0.194
v -0.01312757 -0.079492785 0.19375
v -0.0130417272 -0.07910736 0.193500012
v -0.0133071169 -0.0796765 0.194
v -0.01288862 -0.0794028938 0.193500012
v -0.0130278561 -0.08002028 0.194
v -0.0126743028 -0.0796667337 0.193500012
v -0.0126832593 -0.07999257 0.19375
v -0.012684078 -0.08029954 0.194
v -0.0121062733 -0.0803032145 0.19375
v -0.0124104731 -0.07988104 0.193500012
v -0.0122989807 -0.08049905 0.194
v -0.0121149328 -0.08003415 0.193500012
v -0.011898797 -0.0806141049 0.194
v -0.0118078152 -0.080122456 0.193500012
v -0.0115075763 -0.08065 0.194
v -0.0115075763 -0.08015 0.193500012
v -0.0115075763 0.08065 0.194
v -0.011898797 0.0806141049 0.194
v -0.0115075763 0.08015 0.193500012
v -0.0119037926 0.08035824 0.19375
v -0.0118078152 0.080122456 0.193500012
v -0.0122989807 0.08049905 0.194
v -0.0121149328 0.08003415 0.193500012
v -0.0123065636 0.080223836 0.19375
v -0.012684078 0.08029954 0.194
v -0.0124104731 0.07988104 0.193500012
v -0.0126832593 0.07999257 0.19375
v -0.0130278561 0.08002028 0.194
v -0.0126743028 0.0796667337 0.193500012
v -0.0130001474 0.07967569 0.19375
v -0.0133071169 0.0796765 0.194
v -0.01288862 0.0794028938 0.193500012
v -0.0132314153 0.07929899 0.19375
v -0.0135066221 0.0792914 0.194
v -0.0130417272 0.07910736 0.193500012
v -0.0133658051 0.07889622 0.19375
v -0.0136216823 0.0788912252 0.194
v -0.0134075768 0.0785 0.19375
v -0.01313003 0.0788002461 0.193500012
v -0.0136575764 0.0785 0.194
v -0.0131575773 0.0785 0.193500012
v -0.0136216823 0.07810878 0.194
v -0.01313003 0.07819977 0.193500012
v -0.0133658051 0.07810379 0.19375
v -0.0135066221 0.0777086 0.194
v -0.01312757 0.07750722 0.19375
v -0.0130417272 0.0778926462 0.193500012
v -0.0133071169 0.0773235038 0.194
v -0.01288862 0.07759711 0.193500012
v -0.0130278561 0.07697972 0.194
v -0.0126743028 0.07733328 0.193500012
v -0.0126832593 0.07700743 0.19375
v -0.012684078 0.0767004639 0.194
v -0.0121062733 0.07669679 0.19375
v -0.0124104731 0.07711896 0.193500012
v -0.0122989807 0.07650096 0.194
v -0.0121149328 0.07696585 0.193500012
v -0.011898797 0.0763859 0.194
v -0.0118078152 0.07687755 0.193500012
v -0.0115075763 0.07635 0.194
v -0.0115075763 0.07685 0.193500012
v -0.0115075763 -0.07635 0.184
v -0.0111163557 -0.0763859 0.184
v -0.0115075763 -0.07685 0.184500009
v -0.01111136 -0.07664177 0.184250012
v -0.0112073384 -0.07687755 0.184500009
v -0.0107161719 -0.07650096 0.184
v -0.01090022 -0.07696585 0.184500009
v -0.0107085882 -0.07677616 0.184250012
v -0.0103310756 -0.0767004639 0.184
v -0.0106046805 -0.07711896 0.184500009
v -0.0103318933 -0.07700743 0.184250012
v -0.00998729747 -0.07697972 0.184
v -0.0103408508 -0.07733328 0.184500009
v -0.0100150052 -0.07732432 0.184250012
v -0.009708036 -0.0773235038 0.184
v -0.010126533 -0.07759711 0.184500009
v -0.009783738 -0.07770102 0.184250012
v -0.009508532 -0.0777086 0.184
v -0.009973425 -0.0778926462 0.184500009
v -0.009649348 -0.07810379 0.184250012
v -0.00939347 -0.07810878 0.184
v -0.009607577 -0.0785 0.184250012
v -0.009885123 -0.07819977 0.184500009
v -0.009357576 -0.0785 0.184
v -0.009857576 -0.0785 0.184500009
v -0.00939347 -0.0788912252 0.184
v -0.009885123 -0.0788002461 0.184500009
v -0.009649348 -0.07889622 0.184250012
v -0.009508532 -0.0792914 0.184
v -0.009887582 -0.079492785 0.184250012
v -0.009973425 -0.07910736 0.184500009
v -0.009708036 -0.0796765 0.184
v -0.010126533 -0.0794028938 0.184500009
v -0.00998729747 -0.08002028 0.184
v -0.0103408508 -0.0796667337 0.184500009
v -0.0103318933 -0.07999257 0.184250012
v -0.0103310756 -0.08029954 0.184
v -0.0109088793 -0.0803032145 0.184250012
v -0.0106046805 -0.07988104 0.184500009
v -0.0107161719 -0.08049905 0.184
v -0.01090022 -0.08003415 0.184500009
v -0.0111163557 -0.0806141049 0.184
v -0.0112073384 -0.080122456 0.184500009
v -0.0115075763 -0.08065 0.184
v -0.0115075763 -0.08015 0.184500009
v -0.0115075763 0.08065 0.184
v -0.0111163557 0.0806141049 0.184
v -0.0115075763 0.08015 0.184500009
v -0.01111136 0.08035824 0.184250012
v -0.0112073384 0.080122456 0.184500009
v -0.0107161719 0.08049905 0.184
v -0.01090022 0.08003415 0.184500009
v -0.0107085882 0.080223836 0.184250012
v -0.0103310756 0.08029954 0.184
v -0.0106046805 0.07988104 0.184500009
v -0.0103318933 0.07999257 0.184250012
v -0.00998729747 0.08002028 0.184
v -0.0103408508 0.0796667337 0.184500009
v -0.0100150052 0.07967569 0.184250012
v -0.009708036 0.0796765 0.184
v -0.010126533 0.0794028938 0.184500009
v -0.009783738 0.07929899 0.184250012
v -0.009508532 0.0792914 0.184
v -0.009973425 0.07910736 0.184500009
v -0.009649348 0.07889622 0.184250012
v -0.00939347 0.0788912252 0.184
v -0.009607577 0.0785 0.184250012
v -0.009885123 0.0788002461 0.184500009
v -0.009357576 0.0785 0.184
v -0.009857576 0.0785 0.184500009
v -0.00939347 0.07810878 0.184
v -0.009885123 0.07819977 0.184500009
v -0.009649348 0.07810379 0.184250012
v -0.009508532 0.0777086 0.184
v -0.009887582 0.07750722 0.184250012
v -0.009973425 0.0778926462 0.184500009
v -0.009708036 0.0773235038 0.184
v -0.010126533 0.07759711 0.184500009
v -0.00998729747 0.07697972 0.184
v -0.0103408508 0.07733328 0.184500009
v -0.0103318933 0.07700743 0.184250012
v -0.0103310756 0.0767004639 0.184
v -0.0109088793 0.07669679 0.184250012
v -0.0106046805 0.07711896 0.184500009
v -0.0107161719 0.07650096 0.184
v -0.01090022 0.07696585 0.184500009
v -0.0111163557 0.0763859 0.184
v -0.0112073384 0.07687755 0.184500009
v -0.0115075763 0.07635 0.184
v -0.0115075763 0.07685 0.184500009
v -0.0165075772 -0.0521500036 0.18900001
v -0.0160075761 -0.05165 0.18900001
v -0.0160075761 -0.0516224578 0.188699782
v -0.0162575766 -0.0518032126 0.188401312
v -0.0165075772 -0.0521141067 0.188608781
v -0.0160075761 -0.0515341535 0.188392639
v -0.0165075772 -0.0519990474 0.18820861
v -0.0160075761 -0.0513810478 0.18809709
v -0.0165075772 -0.0517995432 0.1878235
v -0.0162575766 -0.05149257 0.187824339
v -0.0160075761 -0.05116673 0.187833279
v -0.0162575766 -0.0509927869 0.187380016
v -0.0165075772 -0.0515202843 0.187479734
v -0.0160075761 -0.0509028956 0.187618971
v -0.0165075772 -0.0511765033 0.187200457
v -0.0160075761 -0.05060736 0.187465861
v -0.0165075772 -0.0507914051 0.18700096
v -0.0162575766 -0.05039622 0.187141776
v -0.0160075761 -0.0503002442 0.187377557
v -0.0162575766 -0.0500000045 0.187100008
v -0.0165075772 -0.0503912233 0.1868859
v -0.0160075761 -0.0500000045 0.18735
v -0.0165075772 -0.0500000045 0.18685
v -0.0160075761 -0.0496997647 0.187377557
v -0.0165075772 -0.0496087819 0.1868859
v -0.0162575766 -0.0496037863 0.187141776
v -0.0160075761 -0.049392648 0.187465861
v -0.0165075772 -0.0492085963 0.18700096
v -0.0162575766 -0.04920101 0.187276155
v -0.0160075761 -0.0490971059 0.187618971
v -0.0165075772 -0.0488235019 0.187200457
v -0.0162575766 -0.0488243178 0.187507421
v -0.0160075761 -0.0488332734 0.187833279
v -0.0165075772 -0.04847972 0.187479734
v -0.0162575766 -0.04850743 0.187824339
v -0.0160075761 -0.0486189574 0.18809709
v -0.0165075772 -0.04820046 0.1878235
v -0.0162575766 -0.0482761636 0.18820101
v -0.0160075761 -0.048465848 0.188392639
v -0.0165075772 -0.0480009578 0.18820861
v -0.0162575766 -0.0481417738 0.188603789
v -0.0160075761 -0.04837755 0.188699782
v -0.0165075772 -0.0478858948 0.188608781
v -0.0160075761 -0.0483500026 0.18900001
v -0.0165075772 -0.0478499979 0.18900001
v -0.0160075761 -0.04837755 0.189300239
v -0.0162575766 -0.0481967963 0.189598709
v -0.0160075761 -0.048465848 0.189607367
v -0.0165075772 -0.0478858948 0.189391226
v -0.0165075772 -0.0480009578 0.189791411
v -0.0160075761 -0.0486189574 0.189902917
v -0.0165075772 -0.04820046 0.190176517
v -0.0162575766 -0.04850743 0.1901757
v -0.0160075761 -0.0488332734 0.190166742
v -0.0162575766 -0.04900722 0.19062
v -0.0165075772 -0.04847972 0.190520287
v -0.0160075761 -0.0490971059 0.19038105
v -0.0165075772 -0.0488235019 0.190799549
v -0.0160075761 -0.049392648 0.19053416
v -0.0165075772 -0.0492085963 0.190999061
v -0.0162575766 -0.0496037863 0.190858245
v -0.0160075761 -0.0496997647 0.190622479
v -0.0162575766 -0.0500000045 0.1909
v -0.0165075772 -0.0496087819 0.191114113
v -0.0160075761 -0.0500000045 0.190650016
v -0.0165075772 -0.0500000045 0.19115001
v -0.0160075761 -0.0503002442 0.190622479
v -0.0165075772 -0.0503912233 0.191114113
v -0.0162575766 -0.05039622 0.190858245
v -0.0160075761 -0.05060736 0.19053416
v -0.0165075772 -0.0507914051 0.190999061
v -0.0162575766 -0.05079899 0.190723851
v -0.0160075761 -0.0509028956 0.19038105
v -0.0165075772 -0.0511765033 0.190799549
v -0.0162575766 -0.0511756875 0.190492585
v -0.0160075761 -0.05116673 0.190166742
v -0.0165075772 -0.0515202843 0.190520287
v -0.0162575766 -0.05149257 0.1901757
v -0.0160075761 -0.0513810478 0.189902917
v -0.0165075772 -0.0517995432 0.190176517
v -0.0162575766 -0.0517238379 0.189799
v -0.0160075761 -0.0515341535 0.189607367
v -0.0165075772 -0.0519990474 0.189791411
v -0.0162575766 -0.0518582352 0.189396217
v -0.0160075761 -0.0516224578 0.189300239
v -0.0165075772 -0.0521141067 0.189391226
v -0.0160075761 -0.05165 0.18900001
v -0.0165075772 -0.0521500036 0.18900001
v -0.0165075772 0.0521500036 0.18900001
v -0.0165075772 0.0521141067 0.188608781
v -0.0160075761 0.05165 0.18900001
v -0.0162575766 0.0518582352 0.188603789
v -0.0160075761 0.0516224578 0.188699782
v -0.0165075772 0.0519990474 0.18820861
v -0.0160075761 0.0515341535 0.188392639
v -0.0162575766 0.0517238379 0.18820101
v -0.0165075772 0.0517995432 0.1878235
v -0.0160075761 0.0513810478 0.18809709
v -0.0162575766 0.05149257 0.187824339
v -0.0165075772 0.0515202843 0.187479734
v -0.0160075761 0.05116673 0.187833279
v -0.0162575766 0.0511756875 0.187507421
v -0.0165075772 0.0511765033 0.187200457
v -0.0160075761 0.0509028956 0.187618971
v -0.0162575766 0.05079899 0.187276155
v -0.0165075772 0.0507914051 0.18700096
v -0.0160075761 0.05060736 0.187465861
v -0.0162575766 0.05039622 0.187141776
v -0.0165075772 0.0503912233 0.1868859
v -0.0162575766 0.0500000045 0.187100008
v -0.0160075761 0.0503002442 0.187377557
v -0.0165075772 0.0500000045 0.18685
v -0.0160075761 0.0500000045 0.18735
v -0.0165075772 0.0496087819 0.1868859
v -0.0160075761 0.0496997647 0.187377557
v -0.0162575766 0.0496037863 0.187141776
v -0.0165075772 0.0492085963 0.18700096
v -0.0162575766 0.04900722 0.187380016
v -0.0160075761 0.049392648 0.187465861
v -0.0165075772 0.0488235019 0.187200457
v -0.0160075761 0.0490971059 0.187618971
v -0.0165075772 0.04847972 0.187479734
v -0.0160075761 0.0488332734 0.187833279
v -0.0162575766 0.04850743 0.187824339
v -0.0165075772 0.04820046 0.1878235
v -0.0162575766 0.0481967963 0.188401312
v -0.0160075761 0.0486189574 0.18809709
v -0.0165075772 0.0480009578 0.18820861
v -0.0160075761 0.048465848 0.188392639
v -0.0165075772 0.0478858948 0.188608781
v -0.0160075761 0.04837755 0.188699782
v -0.0165075772 0.0478499979 0.18900001
v -0.0160075761 0.0483500026 0.18900001
v -0.00650757644 -0.0521500036 0.18900001
v -0.00700757653 -0.05165 0.18900001
v -0.00700757653 -0.0516224578 0.189300239
v -0.006757576 -0.0518032126 0.189598709
v -0.00650757644 -0.0521141067 0.189391226
v -0.00700757653 -0.0515341535 0.189607367
v -0.00650757644 -0.0519990474 0.189791411
v -0.00700757653 -0.0513810478 0.189902917
v -0.00650757644 -0.0517995432 0.190176517
v -0.006757576 -0.05149257 0.1901757
v -0.00700757653 -0.05116673 0.190166742
v -0.006757576 -0.0509927869 0.19062
v -0.00650757644 -0.0515202843 0.190520287
v -0.00700757653 -0.0509028956 0.19038105
v -0.00650757644 -0.0511765033 0.190799549
v -0.00700757653 -0.05060736 0.19053416
v -0.00650757644 -0.0507914051 0.190999061
v -0.006757576 -0.05039622 0.190858245
v -0.00700757653 -0.0503002442 0.190622479
v -0.006757576 -0.0500000045 0.1909
v -0.00650757644 -0.0503912233 0.191114113
v -0.00700757653 -0.0500000045 0.190650016
v -0.00650757644 -0.0500000045 0.19115001
v -0.00700757653 -0.0496997647 0.190622479
v -0.00650757644 -0.0496087819 0.191114113
v -0.006757576 -0.0496037863 0.190858245
v -0.00700757653 -0.049392648 0.19053416
v -0.00650757644 -0.0492085963 0.190999061
v -0.006757576 -0.04920101 0.190723851
v -0.00700757653 -0.0490971059 0.19038105
v -0.00650757644 -0.0488235019 0.190799549
v -0.006757576 -0.0488243178 0.190492585
v -0.00700757653 -0.0488332734 0.190166742
v -0.00650757644 -0.04847972 0.190520287
v -0.006757576 -0.04850743 0.1901757
v -0.00700757653 -0.0486189574 0.189902917
v -0.00650757644 -0.04820046 0.190176517
v -0.006757576 -0.0482761636 0.189799
v -0.00700757653 -0.048465848 0.189607367
v -0.00650757644 -0.0480009578 0.189791411
v -0.006757576 -0.0481417738 0.189396217
v -0.00700757653 -0.04837755 0.189300239
v -0.00650757644 -0.0478858948 0.189391226
v -0.00700757653 -0.0483500026 0.18900001
v -0.00650757644 -0.0478499979 0.18900001
v -0.00700757653 -0.04837755 0.188699782
v -0.006757576 -0.0481967963 0.188401312
v -0.00700757653 -0.048465848 0.188392639
v -0.00650757644 -0.0478858948 0.188608781
v -0.00650757644 -0.0480009578 0.18820861
v -0.00700757653 -0.0486189574 0.18809709
v -0.00650757644 -0.04820046 0.1878235
v -0.006757576 -0.04850743 0.187824339
v -0.00700757653 -0.0488332734 0.187833279
v -0.006757576 -0.04900722 0.187380016
v -0.00650757644 -0.04847972 0.187479734
v -0.00700757653 -0.0490971059 0.187618971
v -0.00650757644 -0.0488235019 0.187200457
v -0.00700757653 -0.049392648 0.187465861
v -0.00650757644 -0.0492085963 0.18700096
v -0.006757576 -0.0496037863 0.187141776
v -0.00700757653 -0.0496997647 0.187377557
v -0.006757576 -0.0500000045 0.187100008
v -0.00650757644 -0.0496087819 0.1868859
v -0.00700757653 -0.0500000045 0.18735
v -0.00650757644 -0.0500000045 0.18685
v -0.00700757653 -0.0503002442 0.187377557
v -0.00650757644 -0.0503912233 0.1868859
v -0.006757576 -0.05039622 0.187141776
v -0.00700757653 -0.05060736 0.187465861
v -0.00650757644 -0.0507914051 0.18700096
v -0.006757576 -0.05079899 0.187276155
v -0.00700757653 -0.0509028956 0.187618971
v -0.00650757644 -0.0511765033 0.187200457
v -0.006757576 -0.0511756875 0.187507421
v -0.00700757653 -0.05116673 0.187833279
v -0.00650757644 -0.0515202843 0.187479734
v -0.006757576 -0.05149257 0.187824339
v -0.00700757653 -0.0513810478 0.18809709
v -0.00650757644 -0.0517995432 0.1878235
v -0.006757576 -0.0517238379 0.18820101
v -0.00700757653 -0.0515341535 0.188392639
v -0.00650757644 -0.0519990474 0.18820861
v -0.006757576 -0.0518582352 0.188603789
v -0.00700757653 -0.0516224578 0.188699782
v -0.00650757644 -0.0521141067 0.188608781
v -0.00700757653 -0.05165 0.18900001
v -0.00650757644 -0.0521500036 0.18900001
v -0.00650757644 0.0478499979 0.18900001
v -0.00700757653 0.0483500026 0.18900001
v -0.00700757653 0.04837755 0.189300239
v -0.006757576 0.0481967963 0.189598709
v -0.00650757644 0.0478858948 0.189391226
v -0.00700757653 0.048465848 0.189607367
v -0.00650757644 0.0480009578 0.189791411
v -0.00700757653 0.0486189574 0.189902917
v -0.00650757644 0.04820046 0.190176517
v -0.006757576 0.04850743 0.1901757
v -0.00700757653 0.0488332734 0.190166742
v -0.006757576 0.04900722 0.19062
v -0.00650757644 0.04847972 0.190520287
v -0.00700757653 0.0490971059 0.19038105
v -0.00650757644 0.0488235019 0.190799549
v -0.00700757653 0.049392648 0.19053416
v -0.00650757644 0.0492085963 0.190999061
v -0.006757576 0.0496037863 0.190858245
v -0.00700757653 0.0496997647 0.190622479
v -0.006757576 0.0500000045 0.1909
v -0.00650757644 0.0496087819 0.191114113
v -0.00700757653 0.0500000045 0.190650016
v -0.00650757644 0.0500000045 0.19115001
v -0.00700757653 0.0503002442 0.190622479
v -0.00650757644 0.0503912233 0.191114113
v -0.006757576 0.05039622 0.190858245
v -0.00700757653 0.05060736 0.19053416
v -0.00650757644 0.0507914051 0.190999061
v -0.006757576 0.05079899 0.190723851
v -0.00700757653 0.0509028956 0.19038105
v -0.00650757644 0.0511765033 0.190799549
v -0.006757576 0.0511756875 0.190492585
v -0.00700757653 0.05116673 0.190166742
v -0.00650757644 0.0515202843 0.190520287
v -0.006757576 0.05149257 0.1901757
v -0.00700757653 0.0513810478 0.189902917
v -0.00650757644 0.0517995432 0.190176517
v -0.006757576 0.0517238379 0.189799
v -0.00700757653 0.0515341535 0.189607367
v -0.00650757644 0.0519990474 0.189791411
v -0.006757576 0.0518582352 0.189396217
v -0.00700757653 0.0516224578 0.189300239
v -0.00650757644 0.0521141067 0.189391226
v -0.00700757653 0.05165 0.18900001
v -0.00650757644 0.0521500036 0.18900001
v -0.00700757653 0.0516224578 0.188699782
v -0.00700757653 0.0483500026 0.18900001
v -0.00650757644 0.0478499979 0.18900001
v -0.00650757644 0.0478858948 0.188608781
v -0.006757576 0.0481417738 0.188603789
v -0.00700757653 0.04837755 0.188699782
v -0.00650757644 0.0480009578 0.18820861
v -0.00700757653 0.048465848 0.188392639
v -0.006757576 0.0482761636 0.18820101
v -0.00650757644 0.04820046 0.1878235
v -0.00700757653 0.0486189574 0.18809709
v -0.006757576 0.04850743 0.187824339
v -0.00650757644 0.04847972 0.187479734
v -0.00700757653 0.0488332734 0.187833279
v -0.006757576 0.0488243178 0.187507421
v -0.00650757644 0.0488235019 0.187200457
v -0.00700757653 0.0490971059 0.187618971
v -0.006757576 0.04920101 0.187276155
v -0.00650757644 0.0492085963 0.18700096
v -0.00700757653 0.049392648 0.187465861
v -0.006757576 0.0496037863 0.187141776
v -0.00650757644 0.0496087819 0.1868859
v -0.006757576 0.0500000045 0.187100008
v -0.00700757653 0.0496997647 0.187377557
v -0.00650757644 0.0500000045 0.18685
v -0.00700757653 0.0500000045 0.18735
v -0.00650757644 0.0503912233 0.1868859
v -0.00700757653 0.0503002442 0.187377557
v -0.006757576 0.05039622 0.187141776
v -0.00650757644 0.0507914051 0.18700096
v -0.006757576 0.0509927869 0.187380016
v -0.00700757653 0.05060736 0.187465861
v -0.00650757644 0.0511765033 0.187200457
v -0.00700757653 0.0509028956 0.187618971
v -0.00650757644 0.0515202843 0.187479734
v -0.00700757653 0.05116673 0.187833279
v -0.006757576 0.05149257 0.187824339
v -0.00650757644 0.0517995432 0.1878235
v -0.006757576 0.0518032126 0.188401312
v -0.00700757653 0.0513810478 0.18809709
v -0.00650757644 0.0519990474 0.18820861
v -0.00700757653 0.0515341535 0.188392639
v -0.00650757644 0.0521141067 0.188608781
v -0.00700757653 0.0516224578 0.188699782
v -0.00650757644 0.0521500036 0.18900001
v -0.00700757653 0.0483500026 0.18900001
v -0.0160075761 0.0483500026 0.18900001
v -0.0160075761 0.04837755 0.189300239
v -0.0115075763 0.0483862758 0.189344078
v -0.00700757653 0.04837755 0.189300239
v -0.0160075761 0.048465848 0.189607367
v -0.00700757653 0.048465848 0.189607367
v -0.0115075763 0.0485029854 0.189693868
v -0.0160075761 0.0486189574 0.189902917
v -0.00700757653 0.0486189574 0.189902917
v -0.0115075763 0.04870382 0.190020978
v -0.0160075761 0.0488332734 0.190166742
v -0.00700757653 0.0488332734 0.190166742
v -0.0115075763 0.0489790142 0.190296173
v -0.0160075761 0.0490971059 0.19038105
v -0.00700757653 0.0490971059 0.19038105
v -0.0115075763 0.04930614 0.190497026
v -0.0160075761 0.049392648 0.19053416
v -0.00700757653 0.049392648 0.19053416
v -0.0115075763 0.04965592 0.190613732
v -0.0160075761 0.0496997647 0.190622479
v -0.0115075763 0.0500000045 0.190650016
v -0.00700757653 0.0496997647 0.190622479
v -0.0160075761 0.0500000045 0.190650016
v -0.00700757653 0.0500000045 0.190650016
v -0.0160075761 0.0503002442 0.190622479
v -0.00700757653 0.0503002442 0.190622479
v -0.0115075763 0.0503440872 0.190613732
v -0.0160075761 0.05060736 0.19053416
v -0.00700757653 0.05060736 0.19053416
v -0.0115075763 0.05060736 0.19053416
v -0.0115075763 0.0508621559 0.190406859
v -0.0160075761 0.0509028956 0.19038105
v -0.00700757653 0.0509028956 0.19038105
v -0.0115075763 0.05109571 0.190233678
v -0.0160075761 0.05116673 0.190166742
v -0.00700757653 0.05116673 0.190166742
v -0.0115075763 0.0512961857 0.190020978
v -0.0160075761 0.0513810478 0.189902917
v -0.00700757653 0.0513810478 0.189902917
v -0.0115075763 0.0514545627 0.189778969
v -0.0160075761 0.0515341535 0.189607367
v -0.00700757653 0.0515341535 0.189607367
v -0.0115075763 0.0515659451 0.189519942
v -0.0160075761 0.0516224578 0.189300239
v -0.00700757653 0.0516224578 0.189300239
v -0.0115075763 0.0516299345 0.189256534
v -0.0160075761 0.05165 0.18900001
v -0.00700757653 0.05165 0.18900001
v -0.0160075761 0.0516224578 0.188699782
v -0.0115075763 0.05161373 0.188655928
v -0.00700757653 0.0516224578 0.188699782
v -0.0160075761 0.0515341535 0.188392639
v -0.00700757653 0.0515341535 0.188392639
v -0.0115075763 0.0514970161 0.188306138
v -0.0160075761 0.0513810478 0.18809709
v -0.00700757653 0.0513810478 0.18809709
v -0.0115075763 0.0512961857 0.187979028
v -0.0160075761 0.05116673 0.187833279
v -0.00700757653 0.05116673 0.187833279
v -0.0115075763 0.0510209948 0.187703833
v -0.0160075761 0.0509028956 0.187618971
v -0.00700757653 0.0509028956 0.187618971
v -0.0115075763 0.0506938621 0.18750298
v -0.0160075761 0.05060736 0.187465861
v -0.00700757653 0.05060736 0.187465861
v -0.0115075763 0.0503440872 0.187386289
v -0.0160075761 0.0503002442 0.187377557
v -0.0115075763 0.0500000045 0.18735
v -0.00700757653 0.0503002442 0.187377557
v -0.0160075761 0.0500000045 0.18735
v -0.00700757653 0.0500000045 0.18735
v -0.0160075761 0.0496997647 0.187377557
v -0.00700757653 0.0496997647 0.187377557
v -0.0115075763 0.04965592 0.187386289
v -0.0160075761 0.049392648 0.187465861
v -0.00700757653 0.049392648 0.187465861
v -0.0115075763 0.049392648 0.187465861
v -0.0115075763 0.0491378456 0.187593162
v -0.0160075761 0.0490971059 0.187618971
v -0.00700757653 0.0490971059 0.187618971
v -0.0115075763 0.0489043 0.187766343
v -0.0160075761 0.0488332734 0.187833279
v -0.00700757653 0.0488332734 0.187833279
v -0.0115075763 0.04870382 0.187979028
v -0.0160075761 0.0486189574 0.18809709
v -0.00700757653 0.0486189574 0.18809709
v -0.0115075763 0.0485454462 0.188221052
v -0.0160075761 0.048465848 0.188392639
v -0.00700757653 0.048465848 0.188392639
v -0.0115075763 0.04843406 0.188480079
v -0.0160075761 0.04837755 0.188699782
v -0.00700757653 0.04837755 0.188699782
v -0.0115075763 0.048370067 0.188743472
v -0.0160075761 0.0483500026 0.18900001
v -0.00700757653 0.0483500026 0.18900001
v -0.00700757653 -0.05165 0.18900001
v -0.0160075761 -0.05165 0.18900001
v -0.0160075761 -0.0516224578 0.189300239
v -0.0115075763 -0.05161373 0.189344078
v -0.00700757653 -0.0516224578 0.189300239
v -0.0160075761 -0.0515341535 0.189607367
v -0.00700757653 -0.0515341535 0.189607367
v -0.0115075763 -0.0514970161 0.189693868
v -0.0160075761 -0.0513810478 0.189902917
v -0.00700757653 -0.0513810478 0.189902917
v -0.0115075763 -0.0512961857 0.190020978
v -0.0160075761 -0.05116673 0.190166742
v -0.00700757653 -0.05116673 0.190166742
v -0.0115075763 -0.0510209948 0.190296173
v -0.0160075761 -0.0509028956 0.19038105
v -0.00700757653 -0.0509028956 0.19038105
v -0.0115075763 -0.0506938621 0.190497026
v -0.0160075761 -0.05060736 0.19053416
v -0.00700757653 -0.05060736 0.19053416
v -0.0115075763 -0.0503440872 0.190613732
v -0.0160075761 -0.0503002442 0.190622479
v -0.0115075763 -0.0500000045 0.190650016
v -0.00700757653 -0.0503002442 0.190622479
v -0.0160075761 -0.0500000045 0.190650016
v -0.00700757653 -0.0500000045 0.190650016
v -0.0160075761 -0.0496997647 0.190622479
v -0.00700757653 -0.0496997647 0.190622479
v -0.0115075763 -0.04965592 0.190613732
v -0.0160075761 -0.049392648 0.19053416
v -0.00700757653 -0.049392648 0.19053416
v -0.0115075763 -0.049392648 0.19053416
v -0.0115075763 -0.0491378456 0.190406859
v -0.0160075761 -0.0490971059 0.19038105
v -0.00700757653 -0.0490971059 0.19038105
v -0.0115075763 -0.0489043 0.190233678
v -0.0160075761 -0.0488332734 0.190166742
v -0.00700757653 -0.0488332734 0.190166742
v -0.0115075763 -0.04870382 0.190020978
v -0.0160075761 -0.0486189574 0.189902917
v -0.00700757653 -0.0486189574 0.189902917
v -0.0115075763 -0.0485454462 0.189778969
v -0.0160075761 -0.048465848 0.189607367
v -0.00700757653 -0.048465848 0.189607367
v -0.0115075763 -0.04843406 0.189519942
v -0.0160075761 -0.04837755 0.189300239
v -0.00700757653 -0.04837755 0.189300239
v -0.0115075763 -0.048370067 0.189256534
v -0.0160075761 -0.0483500026 0.18900001
v -0.00700757653 -0.0483500026 0.18900001
v -0.0160075761 -0.04837755 0.188699782
v -0.0115075763 -0.0483862758 0.188655928
v -0.00700757653 -0.04837755 0.188699782
v -0.0160075761 -0.048465848 0.188392639
v -0.00700757653 -0.048465848 0.188392639
v -0.0115075763 -0.0485029854 0.188306138
v -0.0160075761 -0.0486189574 0.18809709
v -0.00700757653 -0.0486189574 0.18809709
v -0.0115075763 -0.04870382 0.187979028
v -0.0160075761 -0.0488332734 0.187833279
v -0.00700757653 -0.0488332734 0.187833279
v -0.0115075763 -0.0489790142 0.187703833
v -0.0160075761 -0.0490971059 0.187618971
v -0.00700757653 -0.0490971059 0.187618971
v -0.0115075763 -0.04930614 0.18750298
v -0.0160075761 -0.049392648 0.187465861
v -0.00700757653 -0.049392648 0.187465861
v -0.0115075763 -0.04965592 0.187386289
v -0.0160075761 -0.0496997647 0.187377557
v -0.0115075763 -0.0500000045 0.18735
v -0.00700757653 -0.0496997647 0.187377557
v -0.0160075761 -0.0500000045 0.18735
v -0.00700757653 -0.0500000045 0.18735
v -0.0160075761 -0.0503002442 0.187377557
v -0.00700757653 -0.0503002442 0.187377557
v -0.0115075763 -0.0503440872 0.187386289
v -0.0160075761 -0.05060736 0.187465861
v -0.00700757653 -0.05060736 0.187465861
v -0.0115075763 -0.05060736 0.187465861
v -0.0115075763 -0.0508621559 0.187593162
v -0.0160075761 -0.0509028956 0.187618971
v -0.00700757653 -0.0509028956 0.187618971
v -0.0115075763 -0.05109571 0.187766343
v -0.0160075761 -0.05116673 0.187833279
v -0.00700757653 -0.05116673 0.187833279
v -0.0115075763 -0.0512961857 0.187979028
v -0.0160075761 -0.0513810478 0.18809709
v -0.00700757653 -0.0513810478 0.18809709
v -0.0115075763 -0.0514545627 0.188221052
v -0.0160075761 -0.0515341535 0.188392639
v -0.00700757653 -0.0515341535 0.188392639
v -0.0115075763 -0.0515659451 0.188480079
v -0.0160075761 -0.0516224578 0.188699782
v -0.00700757653 -0.0516224578 0.188699782
v -0.0115075763 -0.0516299345 0.188743472
v -0.0160075761 -0.05165 0.18900001
v -0.00700757653 -0.05165 0.18900001
v -0.0160075761 0.05165 0.18900001
v -0.0160075761 0.0516224578 0.189300239
v -0.0165075772 0.0521500036 0.18900001
v -0.0162575766 0.0518032126 0.189598709
v -0.0160075761 0.0515341535 0.189607367
v -0.0165075772 0.0521141067 0.189391226
v -0.0165075772 0.0519990474 0.189791411
v -0.0160075761 0.0513810478 0.189902917
v -0.0165075772 0.0517995432 0.190176517
v -0.0162575766 0.05149257 0.1901757
v -0.0160075761 0.05116673 0.190166742
v -0.0162575766 0.0509927869 0.19062
v -0.0165075772 0.0515202843 0.190520287
v -0.0160075761 0.0509028956 0.19038105
v -0.0165075772 0.0511765033 0.190799549
v -0.0160075761 0.05060736 0.19053416
v -0.0165075772 0.0507914051 0.190999061
v -0.0162575766 0.05039622 0.190858245
v -0.0160075761 0.0503002442 0.190622479
v -0.0162575766 0.0500000045 0.1909
v -0.0165075772 0.0503912233 0.191114113
v -0.0160075761 0.0500000045 0.190650016
v -0.0165075772 0.0500000045 0.19115001
v -0.0160075761 0.0496997647 0.190622479
v -0.0165075772 0.0496087819 0.191114113
v -0.0162575766 0.0496037863 0.190858245
v -0.0160075761 0.049392648 0.19053416
v -0.0165075772 0.0492085963 0.190999061
v -0.0162575766 0.04920101 0.190723851
v -0.0160075761 0.0490971059 0.19038105
v -0.0165075772 0.0488235019 0.190799549
v -0.0162575766 0.0488243178 0.190492585
v -0.0160075761 0.0488332734 0.190166742
v -0.0165075772 0.04847972 0.190520287
v -0.0162575766 0.04850743 0.1901757
v -0.0160075761 0.0486189574 0.189902917
v -0.0165075772 0.04820046 0.190176517
v -0.0162575766 0.0482761636 0.189799
v -0.0160075761 0.048465848 0.189607367
v -0.0165075772 0.0480009578 0.189791411
v -0.0162575766 0.0481417738 0.189396217
v -0.0160075761 0.04837755 0.189300239
v -0.0165075772 0.0478858948 0.189391226
v -0.0160075761 0.0483500026 0.18900001
v -0.0165075772 0.0478499979 0.18900001
v -0.0115075763 0.08015 0.184500009
v -0.0118078152 0.080122456 0.184500009
v -0.0115075763 0.08065 0.184
v -0.0121062733 0.0803032145 0.184250012
v -0.0121149328 0.08003415 0.184500009
v -0.011898797 0.0806141049 0.184
v -0.0122989807 0.08049905 0.184
v -0.0124104731 0.07988104 0.184500009
v -0.012684078 0.08029954 0.184
v -0.0126832593 0.07999257 0.184250012
v -0.0126743028 0.0796667337 0.184500009
v -0.01312757 0.079492785 0.184250012
v -0.0130278561 0.08002028 0.184
v -0.01288862 0.0794028938 0.184500009
v -0.0133071169 0.0796765 0.184
v -0.0130417272 0.07910736 0.184500009
v -0.0135066221 0.0792914 0.184
v -0.0133658051 0.07889622 0.184250012
v -0.01313003 0.0788002461 0.184500009
v -0.0134075768 0.0785 0.184250012
v -0.0136216823 0.0788912252 0.184
v -0.0131575773 0.0785 0.184500009
v -0.0136575764 0.0785 0.184
v -0.01313003 0.07819977 0.184500009
v -0.0136216823 0.07810878 0.184
v -0.0133658051 0.07810379 0.184250012
v -0.0130417272 0.0778926462 0.184500009
v -0.0135066221 0.0777086 0.184
v -0.0132314153 0.07770102 0.184250012
v -0.01288862 0.07759711 0.184500009
v -0.0133071169 0.0773235038 0.184
v -0.0130001474 0.07732432 0.184250012
v -0.0126743028 0.07733328 0.184500009
v -0.0130278561 0.07697972 0.184
v -0.0126832593 0.07700743 0.184250012
v -0.0124104731 0.07711896 0.184500009
v -0.012684078 0.0767004639 0.184
v -0.0123065636 0.07677616 0.184250012
v -0.0121149328 0.07696585 0.184500009
v -0.0122989807 0.07650096 0.184
v -0.0119037926 0.07664177 0.184250012
v -0.0118078152 0.07687755 0.184500009
v -0.011898797 0.0763859 0.184
v -0.0115075763 0.07685 0.184500009
v -0.0115075763 0.07635 0.184
v -0.0115075763 0.07685 0.184500009
v -0.0115075763 0.07685 0.193500012
v -0.0112073384 0.07687755 0.193500012
v -0.0111634936 0.07688628 0.18900001
v -0.0112073384 0.07687755 0.184500009
v -0.01090022 0.07696585 0.193500012
v -0.01090022 0.07696585 0.184500009
v -0.0108137177 0.07700299 0.18900001
v -0.0106046805 0.07711896 0.193500012
v -0.0106046805 0.07711896 0.184500009
v -0.0104865888 0.07720382 0.18900001
v -0.0103408508 0.07733328 0.193500012
v -0.0103408508 0.07733328 0.184500009
v -0.0102113951 0.07747902 0.18900001
v -0.010126533 0.07759711 0.193500012
v -0.010126533 0.07759711 0.184500009
v -0.0100105591 0.077806145 0.18900001
v -0.009973425 0.0778926462 0.193500012
v -0.009973425 0.0778926462 0.184500009
v -0.009893851 0.07815592 0.18900001
v -0.009885123 0.07819977 0.193500012
v -0.009857576 0.0785 0.18900001
v -0.009885123 0.07819977 0.184500009
v -0.009857576 0.0785 0.193500012
v -0.009857576 0.0785 0.184500009
v -0.009885123 0.0788002461 0.193500012
v -0.009885123 0.0788002461 0.184500009
v -0.009893851 0.07884409 0.18900001
v -0.009973425 0.07910736 0.193500012
v -0.009973425 0.07910736 0.184500009
v -0.009973425 0.07910736 0.18900001
v -0.0101007391 0.07936216 0.18900001
v -0.010126533 0.0794028938 0.193500012
v -0.010126533 0.0794028938 0.184500009
v -0.0102739129 0.0795957148 0.18900001
v -0.0103408508 0.0796667337 0.193500012
v -0.0103408508 0.0796667337 0.184500009
v -0.0104865888 0.07979618 0.18900001
v -0.0106046805 0.07988104 0.193500012
v -0.0106046805 0.07988104 0.184500009
v -0.0107286256 0.0799545646 0.18900001
v -0.01090022 0.08003415 0.193500012
v -0.01090022 0.08003415 0.184500009
v -0.0109876553 0.08006595 0.18900001
v -0.0112073384 0.080122456 0.193500012
v -0.0112073384 0.080122456 0.184500009
v -0.0112510333 0.0801299438 0.18900001
v -0.0115075763 0.08015 0.193500012
v -0.0115075763 0.08015 0.184500009
v -0.0118078152 0.080122456 0.193500012
v -0.011851659 0.0801137239 0.18900001
v -0.0118078152 0.080122456 0.184500009
v -0.0121149328 0.08003415 0.193500012
v -0.0121149328 0.08003415 0.184500009
v -0.0122014349 0.07999702 0.18900001
v -0.0124104731 0.07988104 0.193500012
v -0.0124104731 0.07988104 0.184500009
v -0.0125285648 0.07979618 0.18900001
v -0.0126743028 0.0796667337 0.193500012
v -0.0126743028 0.0796667337 0.184500009
v -0.0128037566 0.079521 0.18900001
v -0.01288862 0.0794028938 0.193500012
v -0.01288862 0.0794028938 0.184500009
v -0.0130045954 0.07919386 0.18900001
v -0.0130417272 0.07910736 0.193500012
v -0.0130417272 0.07910736 0.184500009
v -0.0131213013 0.07884409 0.18900001
v -0.01313003 0.0788002461 0.193500012
v -0.0131575773 0.0785 0.18900001
v -0.01313003 0.0788002461 0.184500009
v -0.0131575773 0.0785 0.193500012
v -0.0131575773 0.0785 0.184500009
v -0.01313003 0.07819977 0.193500012
v -0.01313003 0.07819977 0.184500009
v -0.0131213013 0.07815592 0.18900001
v -0.0130417272 0.0778926462 0.193500012
v -0.0130417272 0.0778926462 0.184500009
v -0.0130417272 0.0778926462 0.18900001
v -0.0129144136 0.07763785 0.18900001
v -0.01288862 0.07759711 0.193500012
v -0.01288862 0.07759711 0.184500009
v -0.0127412416 0.0774043 0.18900001
v -0.0126743028 0.07733328 0.193500012
v -0.0126743028 0.07733328 0.184500009
v -0.0125285648 0.07720382 0.18900001
v -0.0124104731 0.07711896 0.193500012
v -0.0124104731 0.07711896 0.184500009
v -0.012286528 0.07704545 0.18900001
v -0.0121149328 0.07696585 0.193500012
v -0.0121149328 0.07696585 0.184500009
v -0.0120274983 0.07693406 0.18900001
v -0.0118078152 0.07687755 0.193500012
v -0.0118078152 0.07687755 0.184500009
v -0.0117641184 0.07687007 0.18900001
v -0.0115075763 0.07685 0.193500012
v -0.0115075763 0.07685 0.184500009
v -0.0115075763 -0.07685 0.184500009
v -0.0118078152 -0.07687755 0.184500009
v -0.0115075763 -0.07635 0.184
v -0.0121062733 -0.07669679 0.184250012
v -0.0121149328 -0.07696585 0.184500009
v -0.011898797 -0.0763859 0.184
v -0.0122989807 -0.07650096 0.184
v -0.0124104731 -0.07711896 0.184500009
v -0.012684078 -0.0767004639 0.184
v -0.0126832593 -0.07700743 0.184250012
v -0.0126743028 -0.07733328 0.184500009
v -0.01312757 -0.07750722 0.184250012
v -0.0130278561 -0.07697972 0.184
v -0.01288862 -0.07759711 0.184500009
v -0.0133071169 -0.0773235038 0.184
v -0.0130417272 -0.0778926462 0.184500009
v -0.0135066221 -0.0777086 0.184
v -0.0133658051 -0.07810379 0.184250012
v -0.01313003 -0.07819977 0.184500009
v -0.0134075768 -0.0785 0.184250012
v -0.0136216823 -0.07810878 0.184
v -0.0131575773 -0.0785 0.184500009
v -0.0136575764 -0.0785 0.184
v -0.01313003 -0.0788002461 0.184500009
v -0.0136216823 -0.0788912252 0.184
v -0.0133658051 -0.07889622 0.184250012
v -0.0130417272 -0.07910736 0.184500009
v -0.0135066221 -0.0792914 0.184
v -0.0132314153 -0.07929899 0.184250012
v -0.01288862 -0.0794028938 0.184500009
v -0.0133071169 -0.0796765 0.184
v -0.0130001474 -0.07967569 0.184250012
v -0.0126743028 -0.0796667337 0.184500009
v -0.0130278561 -0.08002028 0.184
v -0.0126832593 -0.07999257 0.184250012
v -0.0124104731 -0.07988104 0.184500009
v -0.012684078 -0.08029954 0.184
v -0.0123065636 -0.080223836 0.184250012
v -0.0121149328 -0.08003415 0.184500009
v -0.0122989807 -0.08049905 0.184
v -0.0119037926 -0.08035824 0.184250012
v -0.0118078152 -0.080122456 0.184500009
v -0.011898797 -0.0806141049 0.184
v -0.0115075763 -0.08015 0.184500009
v -0.0115075763 -0.08065 0.184
v -0.0115075763 -0.08015 0.184500009
v -0.0115075763 -0.08015 0.193500012
v -0.0112073384 -0.080122456 0.193500012
v -0.0111634936 -0.0801137239 0.18900001
v -0.0112073384 -0.080122456 0.184500009
v -0.01090022 -0.08003415 0.193500012
v -0.01090022 -0.08003415 0.184500009
v -0.0108137177 -0.07999702 0.18900001
v -0.0106046805 -0.07988104 0.193500012
v -0.0106046805 -0.07988104 0.184500009
v -0.0104865888 -0.07979618 0.18900001
v -0.0103408508 -0.0796667337 0.193500012
v -0.0103408508 -0.0796667337 0.184500009
v -0.0102113951 -0.079521 0.18900001
v -0.010126533 -0.0794028938 0.193500012
v -0.010126533 -0.0794028938 0.184500009
v -0.0100105591 -0.07919386 0.18900001
v -0.009973425 -0.07910736 0.193500012
v -0.009973425 -0.07910736 0.184500009
v -0.009893851 -0.07884409 0.18900001
v -0.009885123 -0.0788002461 0.193500012
v -0.009857576 -0.0785 0.18900001
v -0.009885123 -0.0788002461 0.184500009
v -0.009857576 -0.0785 0.193500012
v -0.009857576 -0.0785 0.184500009
v -0.009885123 -0.07819977 0.193500012
v -0.009885123 -0.07819977 0.184500009
v -0.009893851 -0.07815592 0.18900001
v -0.009973425 -0.0778926462 0.193500012
v -0.009973425 -0.0778926462 0.184500009
v -0.009973425 -0.0778926462 0.18900001
v -0.0101007391 -0.07763785 0.18900001
v -0.010126533 -0.07759711 0.193500012
v -0.010126533 -0.07759711 0.184500009
v -0.0102739129 -0.0774043 0.18900001
v -0.0103408508 -0.07733328 0.193500012
v -0.0103408508 -0.07733328 0.184500009
v -0.0104865888 -0.07720382 0.18900001
v -0.0106046805 -0.07711896 0.193500012
v -0.0106046805 -0.07711896 0.184500009
v -0.0107286256 -0.07704545 0.18900001
v -0.01090022 -0.07696585 0.193500012
v -0.01090022 -0.07696585 0.184500009
v -0.0109876553 -0.07693406 0.18900001
v -0.0112073384 -0.07687755 0.193500012
v -0.0112073384 -0.07687755 0.184500009
v -0.0112510333 -0.07687007 0.18900001
v -0.0115075763 -0.07685 0.193500012
v -0.0115075763 -0.07685 0.184500009
v -0.0118078152 -0.07687755 0.193500012
v -0.011851659 -0.07688628 0.18900001
v -0.0118078152 -0.07687755 0.184500009
v -0.0121149328 -0.07696585 0.193500012
v -0.0121149328 -0.07696585 0.184500009
v -0.0122014349 -0.07700299 0.18900001
v -0.0124104731 -0.07711896 0.193500012
v -0.0124104731 -0.07711896 0.184500009
v -0.0125285648 -0.07720382 0.18900001
v -0.0126743028 -0.07733328 0.193500012
v -0.0126743028 -0.07733328 0.184500009
v -0.0128037566 -0.07747902 0.18900001
v -0.01288862 -0.07759711 0.193500012
v -0.01288862 -0.07759711 0.184500009
v -0.0130045954 -0.077806145 0.18900001
v -0.0130417272 -0.0778926462 0.193500012
v -0.0130417272 -0.0778926462 0.184500009
v -0.0131213013 -0.07815592 0.18900001
v -0.01313003 -0.07819977 0.193500012
v -0.0131575773 -0.0785 0.18900001
v -0.01313003 -0.07819977 0.184500009
v -0.0131575773 -0.0785 0.193500012
v -0.0131575773 -0.0785 0.184500009
v -0.01313003 -0.0788002461 0.193500012
v -0.01313003 -0.0788002461 0.184500009
v -0.0131213013 -0.07884409 0.18900001
v -0.0130417272 -0.07910736 0.193500012
v -0.0130417272 -0.07910736 0.184500009
v -0.0130417272 -0.07910736 0.18900001
v -0.0129144136 -0.07936216 0.18900001
v -0.01288862 -0.0794028938 0.193500012
v -0.01288862 -0.0794028938 0.184500009
v -0.0127412416 -0.0795957148 0.18900001
v -0.0126743028 -0.0796667337 0.193500012
v -0.0126743028 -0.0796667337 0.184500009
v -0.0125285648 -0.07979618 0.18900001
v -0.0124104731 -0.07988104 0.193500012
v -0.0124104731 -0.07988104 0.184500009
v -0.012286528 -0.0799545646 0.18900001
v -0.0121149328 -0.08003415 0.193500012
v -0.0121149328 -0.08003415 0.184500009
v -0.0120274983 -0.08006595 0.18900001
v -0.0118078152 -0.080122456 0.193500012
v -0.0118078152 -0.080122456 0.184500009
v -0.0117641184 -0.0801299438 0.18900001
v -0.0115075763 -0.08015 0.193500012
v -0.0115075763 -0.08015 0.184500009
v -0.0115075763 0.08015 0.193500012
v -0.0112073384 0.080122456 0.193500012
v -0.0115075763 0.08065 0.194
v -0.0109088793 0.0803032145 0.19375
v -0.01090022 0.08003415 0.193500012
v -0.0111163557 0.0806141049 0.194
v -0.0107161719 0.08049905 0.194
v -0.0106046805 0.07988104 0.193500012
v -0.0103310756 0.08029954 0.194
v -0.0103318933 0.07999257 0.19375
v -0.0103408508 0.0796667337 0.193500012
v -0.009887582 0.079492785 0.19375
v -0.00998729747 0.08002028 0.194
v -0.010126533 0.0794028938 0.193500012
v -0.009708036 0.0796765 0.194
v -0.009973425 0.07910736 0.193500012
v -0.009508532 0.0792914 0.194
v -0.009649348 0.07889622 0.19375
v -0.009885123 0.0788002461 0.193500012
v -0.009607577 0.0785 0.19375
v -0.00939347 0.0788912252 0.194
v -0.009857576 0.0785 0.193500012
v -0.009357576 0.0785 0.194
v -0.009885123 0.07819977 0.193500012
v -0.00939347 0.07810878 0.194
v -0.009649348 0.07810379 0.19375
v -0.009973425 0.0778926462 0.193500012
v -0.009508532 0.0777086 0.194
v -0.009783738 0.07770102 0.19375
v -0.010126533 0.07759711 0.193500012
v -0.009708036 0.0773235038 0.194
v -0.0100150052 0.07732432 0.19375
v -0.0103408508 0.07733328 0.193500012
v -0.00998729747 0.07697972 0.194
v -0.0103318933 0.07700743 0.19375
v -0.0106046805 0.07711896 0.193500012
v -0.0103310756 0.0767004639 0.194
v -0.0107085882 0.07677616 0.19375
v -0.01090022 0.07696585 0.193500012
v -0.0107161719 0.07650096 0.194
v -0.01111136 0.07664177 0.19375
v -0.0112073384 0.07687755 0.193500012
v -0.0111163557 0.0763859 0.194
v -0.0115075763 0.07685 0.193500012
v -0.0115075763 0.07635 0.194
v -0.0115075763 -0.07685 0.193500012
v -0.0112073384 -0.07687755 0.193500012
v -0.0115075763 -0.07635 0.194
v -0.0109088793 -0.07669679 0.19375
v -0.01090022 -0.07696585 0.193500012
v -0.0111163557 -0.0763859 0.194
v -0.0107161719 -0.07650096 0.194
v -0.0106046805 -0.07711896 0.193500012
v -0.0103310756 -0.0767004639 0.194
v -0.0103318933 -0.07700743 0.19375
v -0.0103408508 -0.07733328 0.193500012
v -0.009887582 -0.07750722 0.19375
v -0.00998729747 -0.07697972 0.194
v -0.010126533 -0.07759711 0.193500012
v -0.009708036 -0.0773235038 0.194
v -0.009973425 -0.0778926462 0.193500012
v -0.009508532 -0.0777086 0.194
v -0.009649348 -0.07810379 0.19375
v -0.009885123 -0.07819977 0.193500012
v -0.009607577 -0.0785 0.19375
v -0.00939347 -0.07810878 0.194
v -0.009857576 -0.0785 0.193500012
v -0.009357576 -0.0785 0.194
v -0.009885123 -0.0788002461 0.193500012
v -0.00939347 -0.0788912252 0.194
v -0.009649348 -0.07889622 0.19375
v -0.009973425 -0.07910736 0.193500012
v -0.009508532 -0.0792914 0.194
v -0.009783738 -0.07929899 0.19375
v -0.010126533 -0.0794028938 0.193500012
v -0.009708036 -0.0796765 0.194
v -0.0100150052 -0.07967569 0.19375
v -0.0103408508 -0.0796667337 0.193500012
v -0.00998729747 -0.08002028 0.194
v -0.0103318933 -0.07999257 0.19375
v -0.0106046805 -0.07988104 0.193500012
v -0.0103310756 -0.08029954 0.194
v -0.0107085882 -0.080223836 0.19375
v -0.01090022 -0.08003415 0.193500012
v -0.0107161719 -0.08049905 0.194
v -0.01111136 -0.08035824 0.19375
v -0.0112073384 -0.080122456 0.193500012
v -0.0111163557 -0.0806141049 0.194
v -0.0115075763 -0.08015 0.193500012
v -0.0115075763 -0.08065 0.194
v -0.0122989807 -0.08049905 0.194
v -0.0160075761 -0.082 0.194
v -0.011898797 -0.0806141049 0.194
v -0.012684078 -0.08029954 0.194
v -0.0130278561 -0.08002028 0.194
v -0.0133071169 -0.0796765 0.194
v -0.0135066221 -0.0792914 0.194
v -0.0136216823 -0.0788912252 0.194
v -0.0136575764 -0.0785 0.194
v -0.0115075763 -0.08065 0.194
v -0.0136216823 -0.07810878 0.194
v -0.0115075763 -1.776357E-17 0.194
v -0.0135066221 -0.0777086 0.194
v -0.0133071169 -0.0773235038 0.194
v -0.0130278561 -0.07697972 0.194
v -0.012684078 -0.0767004639 0.194
v -0.0122989807 -0.07650096 0.194
v -0.011898797 -0.0763859 0.194
v -0.0115075763 -0.07635 0.194
v -0.0111163557 -0.0763859 0.194
v -0.0107161719 -0.07650096 0.194
v -0.0103310756 -0.0767004639 0.194
v -0.00700757653 -0.082 0.194
v -0.0111163557 -0.0806141049 0.194
v -0.0107161719 -0.08049905 0.194
v -0.0103310756 -0.08029954 0.194
v -0.00998729747 -0.08002028 0.194
v -0.009708036 -0.0796765 0.194
v -0.009508532 -0.0792914 0.194
v -0.00939347 -0.0788912252 0.194
v -0.009357576 -0.0785 0.194
v -0.0160075761 0.082 0.194
v -0.009357576 -1.776357E-17 0.194
v -0.00939347 -0.07810878 0.194
v -0.00998729747 -0.07697972 0.194
v -0.009508532 -0.0777086 0.194
v -0.009708036 -0.0773235038 0.194
v -0.00700757653 0.082 0.194
v -0.0115075763 0.08065 0.194
v -0.0111163557 0.0806141049 0.194
v -0.0107161719 0.08049905 0.194
v -0.011898797 0.0806141049 0.194
v -0.0122989807 0.08049905 0.194
v -0.012684078 0.08029954 0.194
v -0.0103310756 0.08029954 0.194
v -0.0130278561 0.08002028 0.194
v -0.00998729747 0.08002028 0.194
v -0.0133071169 0.0796765 0.194
v -0.009708036 0.0796765 0.194
v -0.0135066221 0.0792914 0.194
v -0.009508532 0.0792914 0.194
v -0.00939347 0.0788912252 0.194
v -0.009357576 0.0785 0.194
v -0.0136216823 0.0788912252 0.194
v -0.0136575764 0.0785 0.194
v -0.0136216823 0.07810878 0.194
v -0.0135066221 0.0777086 0.194
v -0.0133071169 0.0773235038 0.194
v -0.0130278561 0.07697972 0.194
v -0.012684078 0.0767004639 0.194
v -0.00939347 0.07810878 0.194
v -0.0122989807 0.07650096 0.194
v -0.009508532 0.0777086 0.194
v -0.011898797 0.0763859 0.194
v -0.009708036 0.0773235038 0.194
v -0.00998729747 0.07697972 0.194
v -0.0103310756 0.0767004639 0.194
v -0.0115075763 0.07635 0.194
v -0.0107161719 0.07650096 0.194
v -0.0111163557 0.0763859 0.194
v -0.0115075763 0.0824999958 0.18900001
v -0.0160075761 0.0824999958 0.193500012
v -0.00700757653 0.0824999958 0.193500012
v -0.00700757653 0.0824999958 0.184500009
v -0.0160075761 0.0824999958 0.184500009
v -0.0115075763 -0.0824999958 0.18900001
v -0.0160075761 -0.0824999958 0.193500012
v -0.0160075761 -0.0824999958 0.184500009
v -0.00700757653 -0.0824999958 0.184500009
v -0.00700757653 -0.0824999958 0.193500012
v -0.0162575766 0 0.184250012
v -0.0165075772 -0.082 0.184500009
v -0.0165075772 0.082 0.184500009
v -0.0160075761 0.082 0.184
v -0.0160075761 -0.082 0.184
v -0.0115075763 0.08225001 0.184250012
v -0.00700757653 0.082 0.184
v -0.0160075761 0.082 0.184
v -0.0160075761 0.0824999958 0.184500009
v -0.00700757653 0.0824999958 0.184500009
v -0.0162575766 0.08225001 0.18900001
v -0.0165075772 0.082 0.184500009
v -0.0165075772 0.082 0.193500012
v -0.0160075761 0.0824999958 0.193500012
v -0.0160075761 0.0824999958 0.184500009
v -0.0162575766 0 0.19375
v -0.0165075772 0.082 0.193500012
v -0.0165075772 -0.082 0.193500012
v -0.0160075761 -0.082 0.194
v -0.0160075761 0.082 0.194
v -0.0162575766 -0.08225001 0.18900001
v -0.0165075772 -0.082 0.193500012
v -0.0165075772 -0.082 0.184500009
v -0.0160075761 -0.0824999958 0.184500009
v -0.0160075761 -0.0824999958 0.193500012
v -0.0115075763 0.08225001 0.19375
v -0.00700757653 0.0824999958 0.193500012
v -0.0160075761 0.0824999958 0.193500012
v -0.0160075761 0.082 0.194
v -0.00700757653 0.082 0.194
v -0.0115075763 -0.08225001 0.19375
v -0.00700757653 -0.082 0.194
v -0.0160075761 -0.082 0.194
v -0.0160075761 -0.0824999958 0.193500012
v -0.00700757653 -0.0824999958 0.193500012
v -0.006757576 -0.08225001 0.18900001
v -0.00650757644 -0.082 0.184500009
v -0.00650757644 -0.082 0.193500012
v -0.00700757653 -0.0824999958 0.193500012
v -0.00700757653 -0.0824999958 0.184500009
v -0.006757576 0 0.19375
v -0.00650757644 -0.082 0.193500012
v -0.00650757644 0.082 0.193500012
v -0.00700757653 0.082 0.194
v -0.00700757653 -0.082 0.194
v -0.00650757644 -0.082 0.193500012
v -0.006757576 -0.082125 0.193625
v -0.00700757653 -0.0824999958 0.193500012
v -0.00700757653 -0.082 0.194
v -0.006757576 0.08225001 0.18900001
v -0.00650757644 0.082 0.193500012
v -0.00650757644 0.082 0.184500009
v -0.00700757653 0.0824999958 0.184500009
v -0.00700757653 0.0824999958 0.193500012
v -0.00650757644 0.082 0.193500012
v -0.006757576 0.082125 0.193625
v -0.00700757653 0.082 0.194
v -0.00700757653 0.0824999958 0.193500012
v -0.0160075761 -0.0824999958 0.193500012
v -0.0162575766 -0.082125 0.193625
v -0.0165075772 -0.082 0.193500012
v -0.0160075761 -0.082 0.194
v -0.0115075763 -0.08225001 0.184250012
v -0.00700757653 -0.0824999958 0.184500009
v -0.0160075761 -0.0824999958 0.184500009
v -0.0160075761 -0.082 0.184
v -0.00700757653 -0.082 0.184
v -0.006757576 0 0.184250012
v -0.00650757644 0.082 0.184500009
v -0.00650757644 -0.082 0.184500009
v -0.00700757653 -0.082 0.184
v -0.00700757653 0.082 0.184
v -0.006757576 -0.082125 0.184375018
v -0.00650757644 -0.082 0.184500009
v -0.00700757653 -0.0824999958 0.184500009
v -0.00700757653 -0.082 0.184
v -0.0160075761 0.082 0.194
v -0.0162575766 0.082125 0.193625
v -0.0165075772 0.082 0.193500012
v -0.0160075761 0.0824999958 0.193500012
v -0.006757576 0.082125 0.184375018
v -0.00700757653 0.082 0.184
v -0.00700757653 0.0824999958 0.184500009
v -0.00650757644 0.082 0.184500009
v -0.0160075761 -0.082 0.184
v -0.0162575766 -0.082125 0.184375018
v -0.0165075772 -0.082 0.184500009
v -0.0160075761 -0.0824999958 0.184500009
v -0.0162575766 0.082125 0.184375018
v -0.0160075761 0.082 0.184
v -0.0165075772 0.082 0.184500009
v -0.0160075761 0.0824999958 0.184500009
v -0.0122989807 0.08049905 0.184
v -0.0160075761 0.082 0.184
v -0.011898797 0.0806141049 0.184
v -0.012684078 0.08029954 0.184
v -0.0130278561 0.08002028 0.184
v -0.0133071169 0.0796765 0.184
v -0.0135066221 0.0792914 0.184
v -0.0136216823 0.0788912252 0.184
v -0.0136575764 0.0785 0.184
v -0.0115075763 0.08065 0.184
v -0.0136216823 0.07810878 0.184
v -0.0115075763 1.776357E-17 0.184
v -0.0135066221 0.0777086 0.184
v -0.0133071169 0.0773235038 0.184
v -0.0130278561 0.07697972 0.184
v -0.012684078 0.0767004639 0.184
v -0.0122989807 0.07650096 0.184
v -0.011898797 0.0763859 0.184
v -0.0115075763 0.07635 0.184
v -0.0111163557 0.0763859 0.184
v -0.0107161719 0.07650096 0.184
v -0.0103310756 0.0767004639 0.184
v -0.00700757653 0.082 0.184
v -0.0111163557 0.0806141049 0.184
v -0.0107161719 0.08049905 0.184
v -0.0103310756 0.08029954 0.184
v -0.00998729747 0.08002028 0.184
v -0.009708036 0.0796765 0.184
v -0.009508532 0.0792914 0.184
v -0.00939347 0.0788912252 0.184
v -0.009357576 0.0785 0.184
v -0.0160075761 -0.082 0.184
v -0.009357576 1.776357E-17 0.184
v -0.00939347 0.07810878 0.184
v -0.00998729747 0.07697972 0.184
v -0.009508532 0.0777086 0.184
v -0.009708036 0.0773235038 0.184
v -0.00700757653 -0.082 0.184
v -0.0115075763 -0.08065 0.184
v -0.0111163557 -0.0806141049 0.184
v -0.0107161719 -0.08049905 0.184
v -0.011898797 -0.0806141049 0.184
v -0.0122989807 -0.08049905 0.184
v -0.012684078 -0.08029954 0.184
v -0.0103310756 -0.08029954 0.184
v -0.0130278561 -0.08002028 0.184
v -0.00998729747 -0.08002028 0.184
v -0.0133071169 -0.0796765 0.184
v -0.009708036 -0.0796765 0.184
v -0.0135066221 -0.0792914 0.184
v -0.009508532 -0.0792914 0.184
v -0.00939347 -0.0788912252 0.184
v -0.009357576 -0.0785 0.184
v -0.0136216823 -0.0788912252 0.184
v -0.0136575764 -0.0785 0.184
v -0.0136216823 -0.07810878 0.184
v -0.0135066221 -0.0777086 0.184
v -0.0133071169 -0.0773235038 0.184
v -0.0130278561 -0.07697972 0.184
v -0.012684078 -0.0767004639 0.184
v -0.00939347 -0.07810878 0.184
v -0.0122989807 -0.07650096 0.184
v -0.009508532 -0.0777086 0.184
v -0.011898797 -0.0763859 0.184
v -0.009708036 -0.0773235038 0.184
v -0.00998729747 -0.07697972 0.184
v -0.0103310756 -0.0767004639 0.184
v -0.0115075763 -0.07635 0.184
v -0.0107161719 -0.07650096 0.184
v -0.0111163557 -0.0763859 0.184
v -0.0165075772 0.082 0.193500012
v -0.0165075772 0.0521141067 0.189391226
v -0.0165075772 0.0519990474 0.189791411
v -0.0165075772 0.0517995432 0.190176517
v -0.0165075772 0.0515202843 0.190520287
v -0.0165075772 0.0511765033 0.190799549
v -0.0165075772 0.0507914051 0.190999061
v -0.0165075772 0.0503912233 0.191114113
v -0.0165075772 0.0521500036 0.18900001
v -0.0165075772 0.0500000045 0.19115001
v -0.0165075772 0.082 0.184500009
v -0.0165075772 0.0521141067 0.188608781
v -0.0165075772 0.0519990474 0.18820861
v -0.0165075772 0.0517995432 0.1878235
v -0.0165075772 0.0515202843 0.187479734
v -0.0165075772 0.0511765033 0.187200457
v -0.0165075772 0.0507914051 0.18700096
v -0.0165075772 0.0503912233 0.1868859
v -0.0165075772 0.0500000045 0.18685
v -0.0165075772 -0.082 0.193500012
v -0.0165075772 0 0.18685
v -0.0165075772 0.0496087819 0.1868859
v -0.0165075772 0.0492085963 0.18700096
v -0.0165075772 0.0488235019 0.187200457
v -0.0165075772 0.04847972 0.187479734
v -0.0165075772 -0.082 0.184500009
v -0.0165075772 0.04820046 0.1878235
v -0.0165075772 -0.0500000045 0.18685
v -0.0165075772 -0.0503912233 0.1868859
v -0.0165075772 -0.0507914051 0.18700096
v -0.0165075772 -0.0496087819 0.1868859
v -0.0165075772 -0.0511765033 0.187200457
v -0.0165075772 -0.0492085963 0.18700096
v -0.0165075772 -0.0515202843 0.187479734
v -0.0165075772 -0.0488235019 0.187200457
v -0.0165075772 -0.0517995432 0.1878235
v -0.0165075772 -0.04847972 0.187479734
v -0.0165075772 -0.0519990474 0.18820861
v -0.0165075772 -0.0521141067 0.188608781
v -0.0165075772 -0.0521500036 0.18900001
v -0.0165075772 -0.0521141067 0.189391226
v -0.0165075772 -0.0519990474 0.189791411
v -0.0165075772 -0.0517995432 0.190176517
v -0.0165075772 -0.0515202843 0.190520287
v -0.0165075772 -0.0511765033 0.190799549
v -0.0165075772 -0.0507914051 0.190999061
v -0.0165075772 -0.0503912233 0.191114113
v -0.0165075772 -0.0500000045 0.19115001
v -0.0165075772 -0.0496087819 0.191114113
v -0.0165075772 0.0496087819 0.191114113
v -0.0165075772 0 0.18900001
v -0.0165075772 0.0492085963 0.190999061
v -0.0165075772 -0.0492085963 0.190999061
v -0.0165075772 0.0488235019 0.190799549
v -0.0165075772 -0.0488235019 0.190799549
v -0.0165075772 0.04847972 0.190520287
v -0.0165075772 -0.04847972 0.190520287
v -0.0165075772 0.04820046 0.190176517
v -0.0165075772 -0.04820046 0.190176517
v -0.0165075772 0.0480009578 0.189791411
v -0.0165075772 -0.0480009578 0.189791411
v -0.0165075772 0.0478858948 0.189391226
v -0.0165075772 -0.0478858948 0.189391226
v -0.0165075772 0.0478499979 0.18900001
v -0.0165075772 -0.0478499979 0.18900001
v -0.0165075772 0.0478858948 0.188608781
v -0.0165075772 -0.0478858948 0.188608781
v -0.0165075772 0.0480009578 0.18820861
v -0.0165075772 -0.0480009578 0.18820861
v -0.0165075772 -0.04820046 0.1878235
v -0.00650757644 0.082 0.184500009
v -0.00650757644 0.0521141067 0.188608781
v -0.00650757644 0.0519990474 0.18820861
v -0.00650757644 0.0517995432 0.1878235
v -0.00650757644 0.0515202843 0.187479734
v -0.00650757644 0.0511765033 0.187200457
v -0.00650757644 0.0507914051 0.18700096
v -0.00650757644 0.0503912233 0.1868859
v -0.00650757644 0.0521500036 0.18900001
v -0.00650757644 0.0500000045 0.18685
v -0.00650757644 0.082 0.193500012
v -0.00650757644 0.0521141067 0.189391226
v -0.00650757644 0.0519990474 0.189791411
v -0.00650757644 0.0517995432 0.190176517
v -0.00650757644 0.0515202843 0.190520287
v -0.00650757644 0.0511765033 0.190799549
v -0.00650757644 0.0507914051 0.190999061
v -0.00650757644 0.0503912233 0.191114113
v -0.00650757644 0.0500000045 0.19115001
v -0.00650757644 0 0.18685
v -0.00650757644 0.0496087819 0.1868859
v -0.00650757644 0.0492085963 0.18700096
v -0.00650757644 0.0488235019 0.187200457
v -0.00650757644 0.04847972 0.187479734
v -0.00650757644 -0.082 0.184500009
v -0.00650757644 0.04820046 0.1878235
v -0.00650757644 -0.0500000045 0.18685
v -0.00650757644 -0.0503912233 0.1868859
v -0.00650757644 -0.0507914051 0.18700096
v -0.00650757644 -0.0496087819 0.1868859
v -0.00650757644 -0.0511765033 0.187200457
v -0.00650757644 -0.0492085963 0.18700096
v -0.00650757644 -0.0515202843 0.187479734
v -0.00650757644 -0.0488235019 0.187200457
v -0.00650757644 -0.0517995432 0.1878235
v -0.00650757644 -0.04847972 0.187479734
v -0.00650757644 -0.0519990474 0.18820861
v -0.00650757644 -0.0521141067 0.188608781
v -0.00650757644 -0.0521500036 0.18900001
v -0.00650757644 -0.082 0.193500012
v -0.00650757644 -0.0521141067 0.189391226
v -0.00650757644 -0.0519990474 0.189791411
v -0.00650757644 -0.0517995432 0.190176517
v -0.00650757644 -0.0515202843 0.190520287
v -0.00650757644 -0.0511765033 0.190799549
v -0.00650757644 -0.0507914051 0.190999061
v -0.00650757644 -0.0503912233 0.191114113
v -0.00650757644 -0.0500000045 0.19115001
v -0.00650757644 0.0496087819 0.191114113
v -0.00650757644 -0.0496087819 0.191114113
v -0.00650757644 0 0.18900001
v -0.00650757644 -0.0492085963 0.190999061
v -0.00650757644 0.0492085963 0.190999061
v -0.00650757644 -0.0488235019 0.190799549
v -0.00650757644 0.0488235019 0.190799549
v -0.00650757644 -0.04847972 0.190520287
v -0.00650757644 0.04847972 0.190520287
v -0.00650757644 -0.04820046 0.190176517
v -0.00650757644 0.04820046 0.190176517
v -0.00650757644 -0.0480009578 0.189791411
v -0.00650757644 0.0480009578 0.189791411
v -0.00650757644 -0.0478858948 0.189391226
v -0.00650757644 0.0478858948 0.189391226
v -0.00650757644 -0.0478499979 0.18900001
v -0.00650757644 0.0478499979 0.18900001
v -0.00650757644 -0.0478858948 0.188608781
v -0.00650757644 0.0478858948 0.188608781
v -0.00650757644 -0.0480009578 0.18820861
v -0.00650757644 0.0480009578 0.18820861
v -0.00650757644 -0.04820046 0.1878235
f 1 2 3
f 2 4 3
f 3 4 5
f 2 6 4
f 4 7 5
f 6 8 4
f 4 8 7
f 6 9 8
f 8 10 7
f 9 11 8
f 8 11 10
f 9 12 11
f 11 13 10
f 12 14 11
f 11 14 13
f 12 15 14
f 14 16 13
f 15 17 14
f 14 17 16
f 15 18 17
f 17 19 16
f 18 20 17
f 17 20 19
f 18 21 20
f 21 22 20
f 20 23 19
f 20 22 23
f 21 24 22
f 22 25 23
f 24 26 22
f 22 27 25
f 26 28 22
f 22 28 27
f 26 29 28
f 29 30 28
f 28 31 27
f 28 30 31
f 29 32 30
f 30 33 31
f 32 34 30
f 30 35 33
f 34 36 30
f 30 36 35
f 34 37 36
f 37 38 36
f 36 39 35
f 36 38 39
f 37 40 38
f 38 41 39
f 40 42 38
f 38 43 41
f 42 44 38
f 44 43 38
f 44 45 43
f 46 47 48
f 47 49 48
f 48 49 50
f 47 51 49
f 49 52 50
f 51 53 49
f 49 53 52
f 51 54 53
f 53 55 52
f 54 56 53
f 53 56 55
f 54 57 56
f 56 58 55
f 57 59 56
f 56 59 58
f 57 60 59
f 59 61 58
f 60 62 59
f 59 62 61
f 60 63 62
f 62 64 61
f 63 65 62
f 62 65 64
f 63 66 65
f 66 67 65
f 65 68 64
f 65 67 68
f 66 69 67
f 67 70 68
f 69 71 67
f 67 72 70
f 71 73 67
f 67 73 72
f 71 74 73
f 74 75 73
f 73 76 72
f 73 75 76
f 74 77 75
f 75 78 76
f 77 79 75
f 75 80 78
f 79 81 75
f 75 81 80
f 79 82 81
f 82 83 81
f 81 84 80
f 81 83 84
f 82 85 83
f 83 86 84
f 85 87 83
f 83 88 86
f 87 89 83
f 89 88 83
f 89 90 88
f 91 92 93
f 92 94 93
f 93 94 95
f 92 96 94
f 94 97 95
f 96 98 94
f 94 98 97
f 96 99 98
f 98 100 97
f 99 101 98
f 98 101 100
f 99 102 101
f 101 103 100
f 102 104 101
f 101 104 103
f 102 105 104
f 104 106 103
f 105 107 104
f 104 107 106
f 105 108 107
f 107 109 106
f 108 110 107
f 107 110 109
f 108 111 110
f 111 112 110
f 110 113 109
f 110 112 113
f 111 114 112
f 112 115 113
f 114 116 112
f 112 117 115
f 116 118 112
f 112 118 117
f 116 119 118
f 119 120 118
f 118 121 117
f 118 120 121
f 119 122 120
f 120 123 121
f 122 124 120
f 120 125 123
f 124 126 120
f 120 126 125
f 124 127 126
f 127 128 126
f 126 129 125
f 126 128 129
f 127 130 128
f 128 131 129
f 130 132 128
f 128 133 131
f 132 134 128
f 134 133 128
f 134 135 133
f 136 137 138
f 137 139 138
f 138 139 140
f 137 141 139
f 139 142 140
f 141 143 139
f 139 143 142
f 141 144 143
f 143 145 142
f 144 146 143
f 143 146 145
f 144 147 146
f 146 148 145
f 147 149 146
f 146 149 148
f 147 150 149
f 149 151 148
f 150 152 149
f 149 152 151
f 150 153 152
f 152 154 151
f 153 155 152
f 152 155 154
f 153 156 155
f 156 157 155
f 155 158 154
f 155 157 158
f 156 159 157
f 157 160 158
f 159 161 157
f 157 162 160
f 161 163 157
f 157 163 162
f 161 164 163
f 164 165 163
f 163 166 162
f 163 165 166
f 164 167 165
f 165 168 166
f 167 169 165
f 165 170 168
f 169 171 165
f 165 171 170
f 169 172 171
f 172 173 171
f 171 174 170
f 171 173 174
f 172 175 173
f 173 176 174
f 175 177 173
f 173 178 176
f 177 179 173
f 179 178 173
f 179 180 178
f 181 182 183
f 181 183 184
f 185 181 184
f 184 183 186
f 187 185 184
f 184 186 188
f 189 187 184
f 190 184 188
f 189 184 190
f 190 188 191
f 192 190 191
f 193 189 190
f 193 190 192
f 192 191 194
f 195 193 192
f 192 194 196
f 197 195 192
f 198 192 196
f 197 192 198
f 198 196 199
f 200 198 199
f 201 197 198
f 201 198 200
f 200 199 202
f 203 201 200
f 200 202 204
f 205 203 200
f 206 200 204
f 205 200 206
f 206 204 207
f 208 205 206
f 209 206 207
f 208 206 209
f 209 207 210
f 211 208 209
f 212 209 210
f 211 209 212
f 212 210 213
f 214 211 212
f 215 212 213
f 214 212 215
f 215 213 216
f 217 214 215
f 218 215 216
f 217 215 218
f 218 216 219
f 220 217 218
f 221 218 219
f 220 218 221
f 221 219 222
f 223 220 221
f 224 221 222
f 223 221 224
f 225 223 224
f 224 226 225
f 226 227 225
f 226 228 227
f 225 227 229
f 227 230 229
f 228 231 227
f 227 232 230
f 231 233 227
f 227 233 232
f 231 234 233
f 234 235 233
f 233 236 232
f 233 235 236
f 234 237 235
f 235 238 236
f 237 239 235
f 235 240 238
f 239 241 235
f 235 241 240
f 239 242 241
f 242 243 241
f 241 244 240
f 241 243 244
f 242 245 243
f 243 246 244
f 245 247 243
f 243 248 246
f 247 249 243
f 243 249 248
f 247 250 249
f 249 251 248
f 250 252 249
f 249 252 251
f 250 253 252
f 252 254 251
f 253 255 252
f 252 255 254
f 253 256 255
f 255 257 254
f 256 258 255
f 255 258 257
f 256 259 258
f 258 260 257
f 259 261 258
f 258 261 260
f 259 262 261
f 261 263 260
f 262 264 261
f 261 264 263
f 262 265 264
f 264 266 263
f 265 267 264
f 267 266 264
f 267 268 266
f 269 270 271
f 270 272 271
f 271 272 273
f 270 274 272
f 272 275 273
f 274 276 272
f 272 276 275
f 274 277 276
f 276 278 275
f 277 279 276
f 276 279 278
f 277 280 279
f 279 281 278
f 280 282 279
f 279 282 281
f 280 283 282
f 282 284 281
f 283 285 282
f 282 285 284
f 283 286 285
f 285 287 284
f 286 288 285
f 285 288 287
f 286 289 288
f 289 290 288
f 288 291 287
f 288 290 291
f 289 292 290
f 290 293 291
f 292 294 290
f 290 295 293
f 294 296 290
f 290 296 295
f 294 297 296
f 297 298 296
f 296 299 295
f 296 298 299
f 297 300 298
f 298 301 299
f 300 302 298
f 298 303 301
f 302 304 298
f 298 304 303
f 302 305 304
f 305 306 304
f 304 307 303
f 304 306 307
f 305 308 306
f 306 309 307
f 308 310 306
f 306 311 309
f 310 312 306
f 312 311 306
f 312 313 311
f 314 315 316
f 314 316 317
f 318 314 317
f 317 316 319
f 320 318 317
f 317 319 321
f 322 320 317
f 323 317 321
f 322 317 323
f 323 321 324
f 325 323 324
f 326 322 323
f 326 323 325
f 325 324 327
f 328 326 325
f 325 327 329
f 330 328 325
f 331 325 329
f 330 325 331
f 331 329 332
f 333 331 332
f 334 330 331
f 334 331 333
f 333 332 335
f 336 334 333
f 333 335 337
f 338 336 333
f 339 333 337
f 338 333 339
f 339 337 340
f 341 338 339
f 342 339 340
f 341 339 342
f 342 340 343
f 344 341 342
f 345 342 343
f 344 342 345
f 345 343 346
f 347 344 345
f 348 345 346
f 347 345 348
f 348 346 349
f 350 347 348
f 351 348 349
f 350 348 351
f 351 349 352
f 353 350 351
f 354 351 352
f 353 351 354
f 354 352 355
f 356 353 354
f 357 354 355
f 356 354 357
f 358 356 357
f 357 359 358
f 359 360 358
f 359 361 360
f 358 360 362
f 360 363 362
f 361 364 360
f 360 365 363
f 364 366 360
f 360 366 365
f 364 367 366
f 367 368 366
f 366 369 365
f 366 368 369
f 367 370 368
f 368 371 369
f 370 372 368
f 368 373 371
f 372 374 368
f 368 374 373
f 372 375 374
f 375 376 374
f 374 377 373
f 374 376 377
f 375 378 376
f 376 379 377
f 378 380 376
f 376 381 379
f 380 382 376
f 376 382 381
f 380 383 382
f 382 384 381
f 383 385 382
f 382 385 384
f 383 386 385
f 385 387 384
f 386 388 385
f 385 388 387
f 386 389 388
f 388 390 387
f 389 391 388
f 388 391 390
f 389 392 391
f 391 393 390
f 392 394 391
f 391 394 393
f 392 395 394
f 394 396 393
f 395 397 394
f 394 397 396
f 395 398 397
f 397 399 396
f 398 400 397
f 400 399 397
f 400 401 399
f 402 403 404
f 402 404 405
f 406 402 405
f 405 404 407
f 408 406 405
f 405 407 409
f 410 408 405
f 411 405 409
f 410 405 411
f 411 409 412
f 413 411 412
f 414 410 411
f 414 411 413
f 413 412 415
f 416 414 413
f 413 415 417
f 418 416 413
f 419 413 417
f 418 413 419
f 419 417 420
f 421 419 420
f 422 418 419
f 422 419 421
f 421 420 423
f 424 422 421
f 421 423 425
f 426 424 421
f 427 421 425
f 426 421 427
f 427 425 428
f 429 426 427
f 430 427 428
f 429 427 430
f 430 428 431
f 432 429 430
f 433 430 431
f 432 430 433
f 433 431 434
f 435 432 433
f 436 433 434
f 435 433 436
f 436 434 437
f 438 435 436
f 439 436 437
f 438 436 439
f 439 437 440
f 441 438 439
f 442 439 440
f 441 439 442
f 442 440 443
f 444 441 442
f 445 442 443
f 444 442 445
f 446 444 445
f 445 447 446
f 448 449 450
f 448 450 451
f 452 448 451
f 451 450 453
f 454 452 451
f 455 451 453
f 454 451 455
f 455 453 456
f 457 454 455
f 458 455 456
f 457 455 458
f 458 456 459
f 460 457 458
f 461 458 459
f 460 458 461
f 461 459 462
f 463 460 461
f 464 461 462
f 463 461 464
f 464 462 465
f 466 463 464
f 467 464 465
f 466 464 467
f 467 465 468
f 469 467 468
f 470 466 467
f 470 467 469
f 469 468 471
f 472 470 469
f 469 471 473
f 474 472 469
f 475 469 473
f 474 469 475
f 475 473 476
f 477 475 476
f 478 474 475
f 478 475 477
f 477 476 479
f 480 478 477
f 477 479 481
f 482 480 477
f 483 477 481
f 482 477 483
f 483 481 484
f 485 483 484
f 486 482 483
f 486 483 485
f 485 484 487
f 488 486 485
f 485 487 489
f 490 488 485
f 491 485 489
f 490 485 491
f 492 493 494
f 492 494 495
f 496 492 495
f 495 494 497
f 498 496 495
f 499 495 497
f 498 495 499
f 499 497 500
f 501 498 499
f 502 499 500
f 501 499 502
f 502 500 503
f 504 501 502
f 505 502 503
f 504 502 505
f 505 503 506
f 507 504 505
f 508 505 506
f 507 505 508
f 508 506 509
f 510 507 508
f 511 508 509
f 510 508 511
f 511 509 512
f 513 511 512
f 514 510 511
f 514 511 513
f 513 512 515
f 516 514 513
f 517 513 515
f 518 516 513
f 519 513 517
f 518 513 519
f 520 519 517
f 521 518 519
f 522 519 520
f 522 521 519
f 523 522 520
f 522 523 521
f 523 520 524
f 523 525 521
f 526 523 524
f 523 526 525
f 526 524 527
f 526 528 525
f 529 526 527
f 526 529 528
f 529 527 530
f 529 531 528
f 532 529 530
f 529 532 531
f 532 530 533
f 532 534 531
f 535 532 533
f 532 535 534
f 535 533 536
f 535 537 534
f 538 535 536
f 535 538 537
f 538 536 539
f 537 538 540
f 538 539 540
f 539 541 540
f 541 542 540
f 540 542 543
f 541 544 542
f 542 545 543
f 544 546 542
f 542 546 545
f 544 547 546
f 546 548 545
f 547 549 546
f 546 549 548
f 547 550 549
f 549 551 548
f 550 552 549
f 549 552 551
f 550 553 552
f 552 554 551
f 553 555 552
f 552 555 554
f 553 556 555
f 555 557 554
f 556 558 555
f 555 558 557
f 556 559 558
f 559 560 558
f 558 561 557
f 558 560 561
f 559 562 560
f 560 563 561
f 562 564 560
f 560 565 563
f 564 566 560
f 560 566 565
f 564 567 566
f 566 568 565
f 567 569 566
f 566 569 568
f 567 570 569
f 570 568 569
f 571 570 567
f 570 572 568
f 573 570 571
f 570 573 572
f 574 573 571
f 573 575 572
f 576 573 574
f 573 576 575
f 577 576 574
f 576 578 575
f 579 576 577
f 576 579 578
f 580 579 577
f 579 581 578
f 582 579 580
f 579 582 581
f 583 582 580
f 582 584 581
f 585 582 583
f 582 585 584
f 586 585 583
f 585 587 584
f 585 586 587
f 588 589 590
f 588 590 591
f 592 588 591
f 591 590 593
f 594 592 591
f 595 591 593
f 594 591 595
f 595 593 596
f 597 594 595
f 598 595 596
f 597 595 598
f 598 596 599
f 600 597 598
f 601 598 599
f 600 598 601
f 601 599 602
f 603 600 601
f 604 601 602
f 603 601 604
f 604 602 605
f 606 603 604
f 607 604 605
f 606 604 607
f 607 605 608
f 609 607 608
f 610 606 607
f 610 607 609
f 609 608 611
f 612 610 609
f 613 609 611
f 614 612 609
f 615 609 613
f 614 609 615
f 616 615 613
f 617 614 615
f 618 615 616
f 618 617 615
f 619 618 616
f 618 619 617
f 619 616 620
f 619 621 617
f 622 619 620
f 619 622 621
f 622 620 623
f 622 624 621
f 625 622 623
f 622 625 624
f 625 623 626
f 625 627 624
f 628 625 626
f 625 628 627
f 628 626 629
f 628 630 627
f 631 628 629
f 628 631 630
f 631 629 632
f 631 633 630
f 634 631 632
f 631 634 633
f 634 632 635
f 633 634 636
f 634 635 636
f 635 637 636
f 637 638 636
f 636 638 639
f 637 640 638
f 638 641 639
f 640 642 638
f 638 642 641
f 640 643 642
f 642 644 641
f 643 645 642
f 642 645 644
f 643 646 645
f 645 647 644
f 646 648 645
f 645 648 647
f 646 649 648
f 648 650 647
f 649 651 648
f 648 651 650
f 649 652 651
f 651 653 650
f 652 654 651
f 651 654 653
f 652 655 654
f 655 656 654
f 654 657 653
f 654 656 657
f 655 658 656
f 656 659 657
f 658 660 656
f 656 661 659
f 660 662 656
f 656 662 661
f 660 663 662
f 662 664 661
f 663 665 662
f 662 665 664
f 663 666 665
f 666 664 665
f 667 666 663
f 666 668 664
f 669 666 667
f 666 669 668
f 670 669 667
f 669 671 668
f 672 669 670
f 669 672 671
f 673 672 670
f 672 674 671
f 675 672 673
f 672 675 674
f 676 675 673
f 675 677 674
f 678 675 676
f 675 678 677
f 679 678 676
f 678 680 677
f 681 678 679
f 678 681 680
f 682 681 679
f 681 683 680
f 681 682 683
f 684 685 686
f 685 687 686
f 685 688 687
f 686 687 689
f 687 690 689
f 688 691 687
f 687 692 690
f 691 693 687
f 687 693 692
f 691 694 693
f 694 695 693
f 693 696 692
f 693 695 696
f 694 697 695
f 695 698 696
f 697 699 695
f 695 700 698
f 699 701 695
f 695 701 700
f 699 702 701
f 702 703 701
f 701 704 700
f 701 703 704
f 702 705 703
f 703 706 704
f 705 707 703
f 703 708 706
f 707 709 703
f 703 709 708
f 707 710 709
f 709 711 708
f 710 712 709
f 709 712 711
f 710 713 712
f 712 714 711
f 713 715 712
f 712 715 714
f 713 716 715
f 715 717 714
f 716 718 715
f 715 718 717
f 716 719 718
f 718 720 717
f 719 721 718
f 718 721 720
f 719 722 721
f 721 723 720
f 722 724 721
f 721 724 723
f 722 725 724
f 724 726 723
f 725 727 724
f 727 726 724
f 727 728 726
f 729 730 731
f 730 732 731
f 730 733 732
f 731 732 734
f 732 735 734
f 733 736 732
f 732 737 735
f 736 738 732
f 732 738 737
f 736 739 738
f 739 740 738
f 738 741 737
f 738 740 741
f 739 742 740
f 740 743 741
f 742 744 740
f 740 745 743
f 744 746 740
f 740 746 745
f 744 747 746
f 747 748 746
f 746 749 745
f 746 748 749
f 747 750 748
f 748 751 749
f 750 752 748
f 748 753 751
f 752 754 748
f 748 754 753
f 752 755 754
f 754 756 753
f 755 757 754
f 754 757 756
f 755 758 757
f 757 759 756
f 758 760 757
f 757 760 759
f 758 761 760
f 760 762 759
f 761 763 760
f 760 763 762
f 761 764 763
f 763 765 762
f 764 766 763
f 763 766 765
f 764 767 766
f 766 768 765
f 767 769 766
f 766 769 768
f 767 770 769
f 769 771 768
f 770 772 769
f 772 771 769
f 772 773 771
f 774 775 776
f 774 776 777
f 778 774 777
f 777 776 779
f 780 778 777
f 781 777 779
f 780 777 781
f 781 779 782
f 783 780 781
f 784 781 782
f 783 781 784
f 784 782 785
f 786 783 784
f 787 784 785
f 786 784 787
f 787 785 788
f 789 786 787
f 790 787 788
f 789 787 790
f 790 788 791
f 792 789 790
f 793 790 791
f 792 790 793
f 793 791 794
f 795 793 794
f 796 792 793
f 796 793 795
f 795 794 797
f 798 796 795
f 799 795 797
f 800 798 795
f 801 795 799
f 800 795 801
f 802 801 799
f 803 800 801
f 804 801 802
f 804 803 801
f 805 804 802
f 804 805 803
f 805 802 806
f 805 807 803
f 808 805 806
f 805 808 807
f 808 806 809
f 808 810 807
f 811 808 809
f 808 811 810
f 811 809 812
f 811 813 810
f 814 811 812
f 811 814 813
f 814 812 815
f 814 816 813
f 817 814 815
f 814 817 816
f 817 815 818
f 817 819 816
f 820 817 818
f 817 820 819
f 820 818 821
f 819 820 822
f 820 821 822
f 821 823 822
f 823 824 822
f 822 824 825
f 823 826 824
f 824 827 825
f 826 828 824
f 824 828 827
f 826 829 828
f 828 830 827
f 829 831 828
f 828 831 830
f 829 832 831
f 831 833 830
f 832 834 831
f 831 834 833
f 832 835 834
f 834 836 833
f 835 837 834
f 834 837 836
f 835 838 837
f 837 839 836
f 838 840 837
f 837 840 839
f 838 841 840
f 841 842 840
f 840 843 839
f 840 842 843
f 841 844 842
f 842 845 843
f 844 846 842
f 842 847 845
f 846 848 842
f 842 848 847
f 846 849 848
f 848 850 847
f 849 851 848
f 848 851 850
f 849 852 851
f 852 850 851
f 853 852 849
f 852 854 850
f 855 852 853
f 852 855 854
f 856 855 853
f 855 857 854
f 858 855 856
f 855 858 857
f 859 858 856
f 858 860 857
f 861 858 859
f 858 861 860
f 862 861 859
f 861 863 860
f 864 861 862
f 861 864 863
f 865 864 862
f 864 866 863
f 867 864 865
f 864 867 866
f 868 867 865
f 867 869 866
f 867 868 869
f 870 871 872
f 871 873 872
f 871 874 873
f 872 873 875
f 873 876 875
f 874 877 873
f 873 878 876
f 877 879 873
f 873 879 878
f 877 880 879
f 880 881 879
f 879 882 878
f 879 881 882
f 880 883 881
f 881 884 882
f 883 885 881
f 881 886 884
f 885 887 881
f 881 887 886
f 885 888 887
f 888 889 887
f 887 890 886
f 887 889 890
f 888 891 889
f 889 892 890
f 891 893 889
f 889 894 892
f 893 895 889
f 889 895 894
f 893 896 895
f 895 897 894
f 896 898 895
f 895 898 897
f 896 899 898
f 898 900 897
f 899 901 898
f 898 901 900
f 899 902 901
f 901 903 900
f 902 904 901
f 901 904 903
f 902 905 904
f 904 906 903
f 905 907 904
f 904 907 906
f 905 908 907
f 907 909 906
f 908 910 907
f 907 910 909
f 908 911 910
f 910 912 909
f 911 913 910
f 913 912 910
f 913 914 912
f 915 916 917
f 915 917 918
f 919 915 918
f 918 917 920
f 921 919 918
f 922 918 920
f 921 918 922
f 922 920 923
f 924 921 922
f 925 922 923
f 924 922 925
f 925 923 926
f 927 924 925
f 928 925 926
f 927 925 928
f 928 926 929
f 930 927 928
f 931 928 929
f 930 928 931
f 931 929 932
f 933 930 931
f 934 931 932
f 933 931 934
f 934 932 935
f 936 934 935
f 937 933 934
f 937 934 936
f 936 935 938
f 939 937 936
f 940 936 938
f 941 939 936
f 942 936 940
f 941 936 942
f 943 942 940
f 944 941 942
f 945 942 943
f 945 944 942
f 946 945 943
f 945 946 944
f 946 943 947
f 946 948 944
f 949 946 947
f 946 949 948
f 949 947 950
f 949 951 948
f 952 949 950
f 949 952 951
f 952 950 953
f 952 954 951
f 955 952 953
f 952 955 954
f 955 953 956
f 955 957 954
f 958 955 956
f 955 958 957
f 958 956 959
f 958 960 957
f 961 958 959
f 958 961 960
f 961 959 962
f 960 961 963
f 961 962 963
f 962 964 963
f 964 965 963
f 963 965 966
f 964 967 965
f 965 968 966
f 967 969 965
f 965 969 968
f 967 970 969
f 969 971 968
f 970 972 969
f 969 972 971
f 970 973 972
f 972 974 971
f 973 975 972
f 972 975 974
f 973 976 975
f 975 977 974
f 976 978 975
f 975 978 977
f 976 979 978
f 978 980 977
f 979 981 978
f 978 981 980
f 979 982 981
f 982 983 981
f 981 984 980
f 981 983 984
f 982 985 983
f 983 986 984
f 985 987 983
f 983 988 986
f 987 989 983
f 983 989 988
f 987 990 989
f 989 991 988
f 990 992 989
f 989 992 991
f 990 993 992
f 993 991 992
f 994 993 990
f 993 995 991
f 996 993 994
f 993 996 995
f 997 996 994
f 996 998 995
f 999 996 997
f 996 999 998
f 1000 999 997
f 999 1001 998
f 1002 999 1000
f 999 1002 1001
f 1003 1002 1000
f 1002 1004 1001
f 1005 1002 1003
f 1002 1005 1004
f 1006 1005 1003
f 1005 1007 1004
f 1008 1005 1006
f 1005 1008 1007
f 1009 1008 1006
f 1008 1010 1007
f 1008 1009 1010
f 1011 1012 1013
f 1012 1014 1013
f 1012 1015 1014
f 1013 1014 1016
f 1014 1017 1016
f 1015 1018 1014
f 1014 1019 1017
f 1018 1020 1014
f 1014 1020 1019
f 1018 1021 1020
f 1021 1022 1020
f 1020 1023 1019
f 1020 1022 1023
f 1021 1024 1022
f 1022 1025 1023
f 1024 1026 1022
f 1022 1027 1025
f 1026 1028 1022
f 1022 1028 1027
f 1026 1029 1028
f 1029 1030 1028
f 1028 1031 1027
f 1028 1030 1031
f 1029 1032 1030
f 1030 1033 1031
f 1032 1034 1030
f 1030 1035 1033
f 1034 1036 1030
f 1030 1036 1035
f 1034 1037 1036
f 1036 1038 1035
f 1037 1039 1036
f 1036 1039 1038
f 1037 1040 1039
f 1039 1041 1038
f 1040 1042 1039
f 1039 1042 1041
f 1040 1043 1042
f 1042 1044 1041
f 1043 1045 1042
f 1042 1045 1044
f 1043 1046 1045
f 1045 1047 1044
f 1046 1048 1045
f 1045 1048 1047
f 1046 1049 1048
f 1048 1050 1047
f 1049 1051 1048
f 1048 1051 1050
f 1049 1052 1051
f 1051 1053 1050
f 1052 1054 1051
f 1054 1053 1051
f 1054 1055 1053
f 1056 1057 1058
f 1057 1059 1058
f 1057 1060 1059
f 1058 1059 1061
f 1059 1062 1061
f 1060 1063 1059
f 1059 1064 1062
f 1063 1065 1059
f 1059 1065 1064
f 1063 1066 1065
f 1066 1067 1065
f 1065 1068 1064
f 1065 1067 1068
f 1066 1069 1067
f 1067 1070 1068
f 1069 1071 1067
f 1067 1072 1070
f 1071 1073 1067
f 1067 1073 1072
f 1071 1074 1073
f 1074 1075 1073
f 1073 1076 1072
f 1073 1075 1076
f 1074 1077 1075
f 1075 1078 1076
f 1077 1079 1075
f 1075 1080 1078
f 1079 1081 1075
f 1075 1081 1080
f 1079 1082 1081
f 1081 1083 1080
f 1082 1084 1081
f 1081 1084 1083
f 1082 1085 1084
f 1084 1086 1083
f 1085 1087 1084
f 1084 1087 1086
f 1085 1088 1087
f 1087 1089 1086
f 1088 1090 1087
f 1087 1090 1089
f 1088 1091 1090
f 1090 1092 1089
f 1091 1093 1090
f 1090 1093 1092
f 1091 1094 1093
f 1093 1095 1092
f 1094 1096 1093
f 1093 1096 1095
f 1094 1097 1096
f 1096 1098 1095
f 1097 1099 1096
f 1099 1098 1096
f 1099 1100 1098
f 1101 1102 1103
f 1102 1101 1104
f 1102 1104 1105
f 1106 1102 1105
f 1102 1106 1107
f 1102 1107 1108
f 1109 1102 1108
f 1102 1110 1103
f 1102 1109 1111
f 1102 1111 1112
f 1112 1111 1113
f 1114 1112 1113
f 1112 1114 1115
f 1112 1115 1116
f 1117 1112 1116
f 1112 1117 1118
f 1112 1118 1119
f 1120 1112 1119
f 1112 1120 1121
f 1122 1112 1121
f 1102 1123 1110
f 1123 1124 1110
f 1123 1125 1124
f 1126 1125 1123
f 1127 1126 1123
f 1128 1127 1123
f 1129 1128 1123
f 1130 1129 1123
f 1131 1130 1123
f 1132 1102 1112
f 1131 1123 1133
f 1112 1122 1133
f 1134 1131 1133
f 1122 1135 1133
f 1136 1134 1133
f 1135 1137 1133
f 1137 1136 1133
f 1123 1138 1133
f 1138 1132 1139
f 1140 1138 1139
f 1138 1140 1141
f 1132 1142 1139
f 1132 1143 1142
f 1143 1132 1144
f 1138 1141 1145
f 1132 1146 1144
f 1147 1138 1145
f 1132 1148 1146
f 1138 1147 1149
f 1148 1132 1150
f 1138 1149 1151
f 1152 1138 1151
f 1138 1152 1153
f 1132 1154 1150
f 1132 1155 1154
f 1155 1132 1156
f 1138 1153 1133
f 1132 1112 1156
f 1156 1112 1157
f 1112 1158 1157
f 1112 1159 1158
f 1159 1112 1160
f 1133 1153 1161
f 1112 1162 1160
f 1163 1133 1161
f 1112 1164 1162
f 1133 1163 1165
f 1133 1165 1166
f 1167 1133 1166
f 1112 1133 1167
f 1164 1112 1168
f 1169 1112 1167
f 1112 1170 1168
f 1112 1169 1170
f 1171 1172 1173
f 1171 1173 1174
f 1172 1171 1175
f 1175 1171 1174
f 1176 1177 1178
f 1176 1178 1179
f 1177 1176 1180
f 1180 1176 1179
f 1181 1182 1183
f 1181 1183 1184
f 1182 1181 1185
f 1185 1181 1184
f 1186 1187 1188
f 1186 1188 1189
f 1187 1186 1190
f 1190 1186 1189
f 1191 1192 1193
f 1191 1193 1194
f 1192 1191 1195
f 1195 1191 1194
f 1196 1197 1198
f 1196 1198 1199
f 1197 1196 1200
f 1200 1196 1199
f 1201 1202 1203
f 1201 1203 1204
f 1202 1201 1205
f 1205 1201 1204
f 1206 1207 1208
f 1206 1208 1209
f 1207 1206 1210
f 1210 1206 1209
f 1211 1212 1213
f 1211 1213 1214
f 1212 1211 1215
f 1215 1211 1214
f 1216 1217 1218
f 1216 1218 1219
f 1217 1216 1220
f 1220 1216 1219
f 1221 1222 1223
f 1221 1223 1224
f 1222 1221 1225
f 1225 1221 1224
f 1226 1227 1228
f 1227 1226 1229
f 1227 1229 1228
f 1230 1231 1232
f 1230 1232 1233
f 1231 1230 1234
f 1234 1230 1233
f 1235 1236 1237
f 1236 1235 1238
f 1236 1238 1237
f 1239 1240 1241
f 1240 1239 1242
f 1240 1242 1241
f 1243 1244 1245
f 1243 1245 1246
f 1244 1243 1247
f 1247 1243 1246
f 1248 1249 1250
f 1248 1250 1251
f 1249 1248 1252
f 1252 1248 1251
f 1253 1254 1255
f 1256 1253 1255
f 1253 1256 1254
f 1257 1258 1259
f 1258 1257 1260
f 1258 1260 1259
f 1261 1262 1263
f 1264 1261 1263
f 1261 1264 1262
f 1265 1266 1267
f 1266 1265 1268
f 1266 1268 1267
f 1269 1270 1271
f 1272 1269 1271
f 1269 1272 1270
f 1273 1274 1275
f 1274 1273 1276
f 1274 1276 1277
f 1278 1274 1277
f 1274 1278 1279
f 1274 1279 1280
f 1281 1274 1280
f 1274 1282 1275
f 1274 1281 1283
f 1274 1283 1284
f 1285 1284 1283
f 1284 1285 1286
f 1284 1286 1287
f 1288 1284 1287
f 1284 1288 1289
f 1284 1289 1290
f 1291 1284 1290
f 1284 1291 1292
f 1284 1292 1293
f 1294 1284 1293
f 1274 1295 1282
f 1295 1296 1282
f 1295 1297 1296
f 1298 1297 1295
f 1299 1298 1295
f 1300 1299 1295
f 1301 1300 1295
f 1302 1301 1295
f 1303 1302 1295
f 1304 1274 1284
f 1303 1295 1305
f 1284 1294 1305
f 1306 1303 1305
f 1294 1307 1305
f 1308 1306 1305
f 1307 1309 1305
f 1309 1308 1305
f 1295 1310 1305
f 1310 1304 1311
f 1312 1310 1311
f 1310 1312 1313
f 1304 1314 1311
f 1304 1315 1314
f 1315 1304 1316
f 1310 1313 1317
f 1304 1318 1316
f 1319 1310 1317
f 1304 1320 1318
f 1310 1319 1321
f 1320 1304 1322
f 1310 1321 1323
f 1324 1310 1323
f 1310 1324 1325
f 1304 1326 1322
f 1304 1327 1326
f 1327 1304 1328
f 1310 1325 1305
f 1304 1284 1328
f 1328 1284 1329
f 1284 1330 1329
f 1284 1331 1330
f 1331 1284 1332
f 1305 1325 1333
f 1284 1334 1332
f 1335 1305 1333
f 1284 1336 1334
f 1305 1335 1337
f 1305 1337 1338
f 1339 1305 1338
f 1284 1305 1339
f 1336 1284 1340
f 1341 1284 1339
f 1284 1342 1340
f 1284 1341 1342
f 1343 1344 1345
f 1346 1343 1345
f 1343 1346 1347
f 1343 1347 1348
f 1349 1343 1348
f 1343 1349 1350
f 1343 1351 1344
f 1343 1350 1352
f 1343 1353 1351
f 1353 1354 1351
f 1353 1355 1354
f 1356 1355 1353
f 1357 1356 1353
f 1358 1357 1353
f 1359 1358 1353
f 1360 1359 1353
f 1361 1360 1353
f 1362 1343 1352
f 1361 1353 1363
f 1364 1361 1363
f 1365 1364 1363
f 1366 1365 1363
f 1367 1366 1363
f 1353 1368 1363
f 1369 1367 1363
f 1368 1370 1363
f 1368 1371 1370
f 1371 1368 1372
f 1363 1370 1373
f 1368 1374 1372
f 1375 1363 1373
f 1368 1376 1374
f 1363 1375 1377
f 1376 1368 1378
f 1363 1377 1379
f 1368 1380 1378
f 1368 1381 1380
f 1381 1368 1382
f 1368 1362 1382
f 1362 1383 1382
f 1362 1384 1383
f 1384 1362 1385
f 1362 1386 1385
f 1362 1387 1386
f 1387 1362 1388
f 1362 1389 1388
f 1362 1390 1389
f 1362 1352 1390
f 1352 1391 1390
f 1352 1392 1391
f 1392 1393 1391
f 1392 1394 1393
f 1391 1393 1395
f 1394 1396 1393
f 1393 1397 1395
f 1396 1398 1393
f 1393 1399 1397
f 1398 1400 1393
f 1399 1393 1401
f 1400 1402 1393
f 1393 1403 1401
f 1402 1404 1393
f 1393 1405 1403
f 1404 1406 1393
f 1405 1393 1407
f 1406 1408 1393
f 1393 1409 1407
f 1408 1410 1393
f 1393 1411 1409
f 1410 1369 1393
f 1411 1393 1412
f 1393 1369 1363
f 1393 1363 1412
f 1412 1363 1379
f 1413 1414 1415
f 1413 1415 1416
f 1417 1413 1416
f 1413 1417 1418
f 1413 1418 1419
f 1420 1413 1419
f 1414 1413 1421
f 1413 1420 1422
f 1413 1423 1421
f 1423 1424 1421
f 1423 1425 1424
f 1426 1425 1423
f 1427 1426 1423
f 1428 1427 1423
f 1429 1428 1423
f 1430 1429 1423
f 1431 1430 1423
f 1413 1422 1432
f 1432 1422 1433
f 1434 1432 1433
f 1432 1434 1435
f 1432 1435 1436
f 1437 1413 1432
f 1438 1432 1436
f 1437 1432 1439
f 1437 1439 1440
f 1437 1440 1441
f 1432 1442 1439
f 1443 1437 1441
f 1432 1444 1442
f 1437 1443 1445
f 1444 1432 1446
f 1437 1445 1447
f 1432 1448 1446
f 1449 1437 1447
f 1437 1449 1450
f 1437 1450 1451
f 1452 1437 1451
f 1452 1451 1453
f 1452 1453 1454
f 1455 1452 1454
f 1452 1455 1456
f 1452 1456 1457
f 1458 1452 1457
f 1452 1458 1459
f 1452 1459 1460
f 1423 1452 1460
f 1431 1423 1460
f 1461 1431 1460
f 1461 1460 1462
f 1463 1461 1462
f 1463 1462 1464
f 1461 1463 1465
f 1466 1463 1464
f 1463 1467 1465
f 1463 1466 1468
f 1463 1469 1467
f 1463 1468 1470
f 1469 1463 1471
f 1472 1463 1470
f 1463 1473 1471
f 1463 1472 1474
f 1463 1475 1473
f 1463 1474 1476
f 1475 1463 1477
f 1478 1463 1476
f 1463 1479 1477
f 1463 1478 1480
f 1463 1481 1479
f 1481 1463 1438
f 1463 1480 1482
f 1463 1432 1438
f 1432 1463 1482
f 1432 1482 1448
