# ROS coordinates: X forward, Y left, Z up; units are metres.
o mesh
v -0.103265725 -0.032 0.0277034789
v -0.103265725 -0.0345000029 0.0277034789
v -0.103307106 -0.0345000029 0.0274602957
v -0.103309438 -0.03325 0.0274237916
v -0.103307106 -0.032 0.0274602957
v -0.103301913 -0.0345000029 0.0271988921
v -0.103301913 -0.032 0.0271988921
v -0.103290752 -0.03325 0.027122682
v -0.103243031 -0.0345000029 0.0269330032
v -0.103243031 -0.032 0.0269330032
v -0.103200786 -0.03325 0.0268217754
v -0.103129081 -0.0345000029 0.02667931
v -0.103129081 -0.032 0.02667931
v -0.10304109 -0.03325 0.02654629
v -0.102965578 -0.0345000029 0.0264543481
v -0.102965578 -0.032 0.0264543481
v -0.102824688 -0.03325 0.0263186712
v -0.102764115 -0.0345000029 0.02627111
v -0.102764115 -0.032 0.02627111
v -0.102572694 -0.03325 0.0261528026
v -0.102539875 -0.0345000029 0.0261366758
v -0.102308273 -0.03325 0.02605173
v -0.102539875 -0.032 0.0261366758
v -0.102308273 -0.0345000029 0.02605173
v -0.102308273 -0.032 0.02605173
v -0.102065094 -0.0345000029 0.02601034
v -0.102065094 -0.032 0.02601034
v -0.102028586 -0.03325 0.02600802
v -0.101803683 -0.0345000029 0.0260155443
v -0.101803683 -0.032 0.0260155443
v -0.101803683 -0.03325 0.0260155443
v -0.101575434 -0.03325 0.0260625966
v -0.101537794 -0.0345000029 0.02607442
v -0.101537794 -0.032 0.02607442
v -0.101354338 -0.03325 0.0261503831
v -0.101284094 -0.0345000029 0.0261883643
v -0.101284094 -0.032 0.0261883643
v -0.101151086 -0.03325 0.0262763612
v -0.101059139 -0.0345000029 0.0263518766
v -0.101059139 -0.032 0.0263518766
v -0.100974932 -0.03325 0.02643441
v -0.100875907 -0.0345000029 0.0265533384
v -0.100875907 -0.032 0.0265533384
v -0.100832365 -0.03325 0.0266157817
v -0.100741468 -0.0345000029 0.02677759
v -0.100741468 -0.032 0.02677759
v -0.100726366 -0.03325 0.0268105641
v -0.100656524 -0.0345000029 0.0270091817
v -0.100656524 -0.032 0.0270091817
v -0.100615136 -0.0345000029 0.0272523686
v -0.100612804 -0.03325 0.027288869
v -0.100615136 -0.032 0.0272523686
v -0.100620329 -0.0345000029 0.0275137722
v -0.100620329 -0.032 0.0275137722
v -0.1006315 -0.03325 0.02758998
v -0.100679211 -0.0345000029 0.02777966
v -0.100679211 -0.032 0.02777966
v -0.100721464 -0.03325 0.0278908852
v -0.10079316 -0.0345000029 0.0280333534
v -0.10079316 -0.032 0.0280333534
v -0.100881152 -0.03325 0.0281663723
v -0.100956663 -0.0345000029 0.0282583125
v -0.100956663 -0.032 0.0282583125
v -0.101097554 -0.03325 0.0283939932
v -0.101158127 -0.0345000029 0.0284415521
v -0.101158127 -0.032 0.0284415521
v -0.101349548 -0.03325 0.02855986
v -0.101382375 -0.0345000029 0.0285759848
v -0.101613969 -0.03325 0.0286609326
v -0.101382375 -0.032 0.0285759848
v -0.101613969 -0.0345000029 0.0286609326
v -0.101613969 -0.032 0.0286609326
v -0.101857156 -0.0345000029 0.0287023224
v -0.101857156 -0.032 0.0287023224
v -0.101893656 -0.03325 0.0287046451
v -0.102118559 -0.0345000029 0.02869712
v -0.102118559 -0.032 0.02869712
v -0.102118559 -0.03325 0.02869712
v -0.102346808 -0.03325 0.028650064
v -0.102384448 -0.0345000029 0.0286382418
v -0.102384448 -0.032 0.0286382418
v -0.1025679 -0.03325 0.0285622813
v -0.102638148 -0.0345000029 0.0285242964
v -0.102638148 -0.032 0.0285242964
v -0.102771163 -0.03325 0.0284363031
v -0.1028631 -0.0345000029 0.0283607859
v -0.1028631 -0.032 0.0283607859
v -0.10294731 -0.03325 0.0282782521
v -0.103046343 -0.0345000029 0.0281593241
v -0.103046343 -0.032 0.0281593241
v -0.103089884 -0.03325 0.02809688
v -0.103180774 -0.0345000029 0.0279350746
v -0.103180774 -0.032 0.0279350746
v -0.103195876 -0.03325 0.0279020984
v -0.103265725 -0.0345000029 0.0277034789
v -0.103265725 -0.032 0.0277034789
v -0.145305872 -0.0295 0.007024127
v -0.145305872 -0.0345000029 0.007024127
v -0.145356461 -0.0345000029 0.00672690058
v -0.145359308 -0.032 0.0066822865
v -0.145356461 -0.0295 0.00672690058
v -0.1453501 -0.0345000029 0.00640740432
v -0.1453501 -0.0295 0.00640740432
v -0.145336464 -0.032 0.00631426228
v -0.145278141 -0.0345000029 0.00608243141
v -0.145278141 -0.0295 0.00608243141
v -0.1452265 -0.032 0.00594648952
v -0.145138875 -0.0345000029 0.00577236246
v -0.145138875 -0.0295 0.00577236246
v -0.145031333 -0.032 0.00560978474
v -0.144939035 -0.0345000029 0.00549741
v -0.144939035 -0.0295 0.00549741
v -0.144766837 -0.032 0.00533158146
v -0.1446928 -0.0345000029 0.00527345343
v -0.1446928 -0.0295 0.00527345343
v -0.14445883 -0.032 0.00512885442
v -0.144418716 -0.0345000029 0.005109145
v -0.144135654 -0.032 0.005005319
v -0.144418716 -0.0295 0.005109145
v -0.144135654 -0.0345000029 0.005005319
v -0.144135654 -0.0295 0.005005319
v -0.143838435 -0.0345000029 0.00495473342
v -0.143838435 -0.0295 0.00495473342
v -0.1437938 -0.032 0.00495189428
v -0.143518925 -0.0345000029 0.00496109249
v -0.143518925 -0.0295 0.00496109249
v -0.143518925 -0.032 0.00496109249
v -0.14323996 -0.032 0.005018604
v -0.14319396 -0.0345000029 0.00503305439
v -0.14319396 -0.0295 0.00503305439
v -0.142969728 -0.032 0.005125896
v -0.1428839 -0.0345000029 0.00517232064
v -0.1428839 -0.0295 0.00517232064
v -0.142721325 -0.032 0.005279869
v -0.142608941 -0.0345000029 0.005372167
v -0.142608941 -0.0295 0.005372167
v -0.142506033 -0.032 0.00547304051
v -0.142384976 -0.0345000029 0.005618397
v -0.142384976 -0.0295 0.005618397
v -0.142331764 -0.032 0.0056947167
v -0.142220676 -0.0345000029 0.00589248026
v -0.142220676 -0.0295 0.00589248026
v -0.1422022 -0.032 0.00593278324
v -0.142116845 -0.0345000029 0.00617553946
v -0.142116845 -0.0295 0.00617553946
v -0.142066255 -0.0345000029 0.00647276547
v -0.142063424 -0.032 0.00651737954
v -0.142066255 -0.0295 0.00647276547
v -0.142072618 -0.0345000029 0.00679226173
v -0.142072618 -0.0295 0.00679226173
v -0.142086267 -0.032 0.006885404
v -0.142144576 -0.0345000029 0.00711723464
v -0.142144576 -0.0295 0.00711723464
v -0.142196223 -0.032 0.00725317746
v -0.142283857 -0.0345000029 0.007427303
v -0.142283857 -0.0295 0.007427303
v -0.142391384 -0.032 0.00758988131
v -0.1424837 -0.0345000029 0.007702256
v -0.1424837 -0.0295 0.007702256
v -0.142655879 -0.032 0.007868085
v -0.142729923 -0.0345000029 0.007926214
v -0.142729923 -0.0295 0.007926214
v -0.142963886 -0.032 0.008070812
v -0.143004 -0.0345000029 0.008090521
v -0.143287063 -0.032 0.008194348
v -0.143004 -0.0295 0.008090521
v -0.143287063 -0.0345000029 0.008194348
v -0.143287063 -0.0295 0.008194348
v -0.1435843 -0.0345000029 0.008244934
v -0.1435843 -0.0295 0.008244934
v -0.14362891 -0.032 0.008247772
v -0.143903777 -0.0345000029 0.008238574
v -0.143903777 -0.0295 0.008238574
v -0.143903777 -0.032 0.008238574
v -0.144182757 -0.032 0.00818106253
v -0.144228756 -0.0345000029 0.008166612
v -0.144228756 -0.0295 0.008166612
v -0.144452989 -0.032 0.00807377
v -0.144538835 -0.0345000029 0.008027346
v -0.144538835 -0.0295 0.008027346
v -0.144701421 -0.032 0.007919798
v -0.144813791 -0.0345000029 0.007827498
v -0.144813791 -0.0295 0.007827498
v -0.1449167 -0.032 0.00772662554
v -0.14503774 -0.0345000029 0.007581269
v -0.14503774 -0.0295 0.007581269
v -0.145090953 -0.032 0.00750494935
v -0.145202056 -0.0345000029 0.00730718672
v -0.145202056 -0.0295 0.00730718672
v -0.145220518 -0.032 0.00726688374
v -0.145305872 -0.0345000029 0.007024127
v -0.145305872 -0.0295 0.007024127
v -0.121146575 -0.0295 0.0005954323
v -0.121146575 -0.0345000029 0.0005954323
v -0.121197149 -0.0345000029 0.000298206258
v -0.121199995 -0.032 0.000253591861
v -0.121197149 -0.0295 0.000298206258
v -0.1211908 -0.0345000029 -2.12902669E-05
v -0.1211908 -0.0295 -2.12902669E-05
v -0.121177152 -0.032 -0.000114432078
v -0.121118836 -0.0345000029 -0.000346263143
v -0.121118836 -0.0295 -0.000346263143
v -0.121067196 -0.032 -0.000482205651
v -0.120979577 -0.0345000029 -0.0006563322
v -0.120979577 -0.0295 -0.0006563322
v -0.120872021 -0.032 -0.0008189096
v -0.120779723 -0.0345000029 -0.000931284856
v -0.120779723 -0.0295 -0.000931284856
v -0.120607533 -0.032 -0.00109711324
v -0.120533489 -0.0345000029 -0.00115524174
v -0.120533489 -0.0295 -0.00115524174
v -0.120299533 -0.032 -0.00129983982
v -0.120259412 -0.0345000029 -0.00131955
v -0.119976357 -0.032 -0.00142337545
v -0.120259412 -0.0295 -0.00131955
v -0.119976357 -0.0345000029 -0.00142337545
v -0.119976357 -0.0295 -0.00142337545
v -0.119679123 -0.0345000029 -0.00147396163
v -0.119679123 -0.0295 -0.00147396163
v -0.119634509 -0.032 -0.0014768003
v -0.119359635 -0.0345000029 -0.00146760233
v -0.119359635 -0.0295 -0.00146760233
v -0.119359635 -0.032 -0.00146760233
v -0.119080663 -0.032 -0.00141009083
v -0.119034655 -0.0345000029 -0.00139564031
v -0.119034655 -0.0295 -0.00139564031
v -0.11881043 -0.032 -0.00130279863
v -0.118724592 -0.0345000029 -0.00125637441
v -0.118724592 -0.0295 -0.00125637441
v -0.118562013 -0.032 -0.00114882551
v -0.118449636 -0.0345000029 -0.00105652725
v -0.118449636 -0.0295 -0.00105652725
v -0.118346721 -0.032 -0.000955653959
v -0.118225671 -0.0345000029 -0.0008102972
v -0.118225671 -0.0295 -0.0008102972
v -0.118172467 -0.032 -0.000733977766
v -0.118061371 -0.0345000029 -0.0005362146
v -0.118061371 -0.0295 -0.0005362146
v -0.1180429 -0.032 -0.00049591175
v -0.117957532 -0.0345000029 -0.0002531554
v -0.117957532 -0.0295 -0.0002531554
v -0.117906958 -0.0345000029 4.407067E-05
v -0.117904112 -0.032 8.868503E-05
v -0.117906958 -0.0295 4.407067E-05
v -0.117913321 -0.0345000029 0.0003635672
v -0.117913321 -0.0295 0.0003635672
v -0.117926955 -0.032 0.000456708978
v -0.117985278 -0.0345000029 0.000688540051
v -0.117985278 -0.0295 0.000688540051
v -0.118036911 -0.032 0.000824482529
v -0.118124552 -0.0345000029 0.0009986091
v -0.118124552 -0.0295 0.0009986091
v -0.118232086 -0.032 0.00116118649
v -0.118324392 -0.0345000029 0.00127356173
v -0.118324392 -0.0295 0.00127356173
v -0.118496574 -0.032 0.00143939
v -0.118570618 -0.0345000029 0.00149751874
v -0.118570618 -0.0295 0.00149751874
v -0.118804574 -0.032 0.00164211669
v -0.1188447 -0.0345000029 0.00166182686
v -0.119127765 -0.032 0.00176565256
v -0.1188447 -0.0295 0.00166182686
v -0.119127765 -0.0345000029 0.00176565256
v -0.119127765 -0.0295 0.00176565256
v -0.119424984 -0.0345000029 0.00181623839
v -0.119424984 -0.0295 0.00181623839
v -0.119469605 -0.032 0.001819077
v -0.11974448 -0.0345000029 0.00180987932
v -0.11974448 -0.0295 0.00180987932
v -0.11974448 -0.032 0.00180987932
v -0.120023459 -0.032 0.00175236783
v -0.120069459 -0.0345000029 0.00173791731
v -0.120069459 -0.0295 0.00173791731
v -0.120293684 -0.032 0.00164507551
v -0.120379537 -0.0345000029 0.00159865117
v -0.120379537 -0.0295 0.00159865117
v -0.120542109 -0.032 0.00149110239
v -0.120654486 -0.0345000029 0.00139880413
v -0.120654486 -0.0295 0.00139880413
v -0.1207574 -0.032 0.001297931
v -0.120878436 -0.0345000029 0.00115257408
v -0.120878436 -0.0295 0.00115257408
v -0.120931648 -0.032 0.00107625476
v -0.121042743 -0.0345000029 0.0008784915
v -0.121042743 -0.0295 0.0008784915
v -0.121061206 -0.032 0.000838188629
v -0.121146575 -0.0345000029 0.0005954323
v -0.121146575 -0.0295 0.0005954323
v -0.126752719 -0.032 0.02813748
v -0.126752719 -0.0345000029 0.02813748
v -0.126803309 -0.0345000029 0.0278402567
v -0.12680614 -0.03325 0.02779564
v -0.126803309 -0.032 0.0278402567
v -0.126796946 -0.0345000029 0.027520759
v -0.126796946 -0.032 0.027520759
v -0.1267833 -0.03325 0.0274276175
v -0.126724973 -0.0345000029 0.0271957852
v -0.126724973 -0.032 0.0271957852
v -0.126673341 -0.03325 0.0270598419
v -0.126585722 -0.0345000029 0.0268857162
v -0.126585722 -0.032 0.0268857162
v -0.126478165 -0.03325 0.026723139
v -0.126385868 -0.0345000029 0.0266107637
v -0.126385868 -0.032 0.0266107637
v -0.126213685 -0.03325 0.0264449343
v -0.126139641 -0.0345000029 0.0263868086
v -0.126139641 -0.032 0.0263868086
v -0.1259057 -0.03325 0.02624221
v -0.125865564 -0.0345000029 0.026222501
v -0.1255825 -0.03325 0.0261186734
v -0.125865564 -0.032 0.026222501
v -0.1255825 -0.0345000029 0.0261186734
v -0.1255825 -0.032 0.0261186734
v -0.125285268 -0.0345000029 0.0260680877
v -0.125285268 -0.032 0.0260680877
v -0.125240654 -0.03325 0.026065249
v -0.124965772 -0.0345000029 0.0260744449
v -0.124965772 -0.032 0.0260744449
v -0.124965772 -0.03325 0.0260744449
v -0.124686807 -0.03325 0.0261319578
v -0.1246408 -0.0345000029 0.0261464082
v -0.1246408 -0.032 0.0261464082
v -0.124416575 -0.03325 0.02623925
v -0.124330737 -0.0345000029 0.0262856763
v -0.124330737 -0.032 0.0262856763
v -0.124168158 -0.03325 0.0263932236
v -0.12405578 -0.0345000029 0.0264855213
v -0.12405578 -0.032 0.0264855213
v -0.123952858 -0.03325 0.0265863948
v -0.123831823 -0.0345000029 0.0267317519
v -0.123831823 -0.032 0.0267317519
v -0.123778619 -0.03325 0.0268080682
v -0.123667508 -0.0345000029 0.0270058326
v -0.123667508 -0.032 0.0270058326
v -0.123649053 -0.03325 0.0270461384
v -0.123563692 -0.0345000029 0.0272888951
v -0.123563692 -0.032 0.0272888951
v -0.12351311 -0.0345000029 0.0275861211
v -0.123510256 -0.03325 0.0276307352
v -0.12351311 -0.032 0.0275861211
v -0.123519465 -0.0345000029 0.0279056169
v -0.123519465 -0.032 0.0279056169
v -0.1235331 -0.03325 0.0279987585
v -0.12359143 -0.0345000029 0.0282305889
v -0.12359143 -0.032 0.0282305889
v -0.12364307 -0.03325 0.02836653
v -0.123730689 -0.0345000029 0.0285406578
v -0.123730689 -0.032 0.0285406578
v -0.123838246 -0.03325 0.0287032351
v -0.123930536 -0.0345000029 0.0288156122
v -0.123930536 -0.032 0.0288156122
v -0.124102719 -0.03325 0.0289814379
v -0.12417677 -0.0345000029 0.0290395673
v -0.12417677 -0.032 0.0290395673
v -0.124410726 -0.03325 0.0291841663
v -0.124450848 -0.0345000029 0.029203875
v -0.12473391 -0.03325 0.0293077
v -0.124450848 -0.032 0.029203875
v -0.12473391 -0.0345000029 0.0293077
v -0.12473391 -0.032 0.0293077
v -0.125031143 -0.0345000029 0.0293582883
v -0.125031143 -0.032 0.0293582883
v -0.125075743 -0.03325 0.0293611251
v -0.125350639 -0.0345000029 0.0293519273
v -0.125350639 -0.032 0.0293519273
v -0.125350639 -0.03325 0.0293519273
v -0.1256296 -0.03325 0.0292944163
v -0.125675619 -0.0345000029 0.029279964
v -0.125675619 -0.032 0.029279964
v -0.125899822 -0.03325 0.0291871261
v -0.125985682 -0.0345000029 0.0291407
v -0.125985682 -0.032 0.0291407
v -0.126148254 -0.03325 0.0290331524
v -0.126260638 -0.0345000029 0.0289408527
v -0.126260638 -0.032 0.0289408527
v -0.126363546 -0.03325 0.02883998
v -0.126484588 -0.0345000029 0.0286946241
v -0.126484588 -0.032 0.0286946241
v -0.1265378 -0.03325 0.0286183041
v -0.126648888 -0.0345000029 0.02842054
v -0.126648888 -0.032 0.02842054
v -0.126667351 -0.03325 0.0283802375
v -0.126752719 -0.0345000029 0.02813748
v -0.126752719 -0.032 0.02813748
v -0.105228283 -0.0295 0.0290645584
v -0.105228283 -0.0345000029 0.0290645584
v -0.104770929 -0.0345000029 0.029634688
v -0.10469462 -0.032 0.0297116488
v -0.104770929 -0.0295 0.029634688
v -0.104181536 -0.0345000029 0.0301374421
v -0.104181536 -0.0295 0.0301374421
v -0.103990741 -0.032 0.03026264
v -0.103476614 -0.0345000029 0.0305300914
v -0.103476614 -0.0295 0.0305300914
v -0.103147067 -0.032 0.0306553
v -0.102690376 -0.0345000029 0.0307767447
v -0.102690376 -0.0295 0.0307767447
v -0.102222554 -0.032 0.0308434833
v -0.101870269 -0.0345000029 0.03085706
v -0.101870269 -0.0295 0.03085706
v -0.101292513 -0.032 0.03081186
v -0.101067953 -0.0345000029 0.0307712071
v -0.101067953 -0.0295 0.0307712071
v -0.100429252 -0.032 0.0305798613
v -0.100328937 -0.0345000029 0.0305388514
v -0.0996851 -0.032 0.0301928669
v -0.100328937 -0.0295 0.0305388514
v -0.0996851 -0.0345000029 0.0301928669
v -0.0996851 -0.0295 0.0301928669
v -0.09911497 -0.0345000029 0.0297355074
v -0.09911497 -0.0295 0.0297355074
v -0.09903802 -0.032 0.0296592
v -0.09861222 -0.0345000029 0.0291461125
v -0.09861222 -0.0295 0.0291461125
v -0.09861222 -0.032 0.0291461125
v -0.09826743 -0.032 0.02854785
v -0.09821957 -0.0345000029 0.0284411944
v -0.09821957 -0.0295 0.0284411944
v -0.09802693 -0.032 0.0278852917
v -0.09797291 -0.0345000029 0.0276549533
v -0.09797291 -0.0295 0.0276549533
v -0.09790617 -0.032 0.02718713
v -0.0978926 -0.0345000029 0.0268348567
v -0.0978926 -0.0295 0.0268348567
v -0.0979098 -0.032 0.0264859311
v -0.09797845 -0.0345000029 0.0260325409
v -0.09797845 -0.0295 0.0260325409
v -0.0980311558 -0.032 0.02581324
v -0.0982108042 -0.0345000029 0.0252935141
v -0.0982108042 -0.0295 0.0252935141
v -0.0982541442 -0.032 0.02519517
v -0.0985567942 -0.0345000029 0.02464968
v -0.0985567942 -0.0295 0.02464968
v -0.1424837 -0.0345000029 0.007702256
v -0.122426219 -0.0345000029 0.0171803739
v -0.142729923 -0.0345000029 0.007926214
v -0.142283857 -0.0345000029 0.007427303
v -0.142144576 -0.0345000029 0.00711723464
v -0.143004 -0.0345000029 0.008090521
v -0.126887262 -0.0345000029 0.000415590534
v -0.120379537 -0.0345000029 0.00159865117
v -0.142072618 -0.0345000029 0.00679226173
v -0.142066255 -0.0345000029 0.00647276547
v -0.142116845 -0.0345000029 0.00617553946
v -0.142220676 -0.0345000029 0.00589248026
v -0.142384976 -0.0345000029 0.005618397
v -0.142608941 -0.0345000029 0.005372167
v -0.144739956 -0.0345000029 0.00273434469
v -0.1428839 -0.0345000029 0.00517232064
v -0.14319396 -0.0345000029 0.00503305439
v -0.143518925 -0.0345000029 0.00496109249
v -0.143838435 -0.0345000029 0.00495473342
v -0.144135654 -0.0345000029 0.005005319
v -0.144418716 -0.0345000029 0.005109145
v -0.1456636 -0.0345000029 0.00310859527
v -0.1446928 -0.0345000029 0.00527345343
v -0.146490112 -0.0345000029 0.00372259179
v -0.144939035 -0.0345000029 0.00549741
v -0.147132516 -0.0345000029 0.004527226
v -0.145138875 -0.0345000029 0.00577236246
v -0.147538692 -0.0345000029 0.0054372903
v -0.145278141 -0.0345000029 0.00608243141
v -0.1477073 -0.0345000029 0.0064195185
v -0.1453501 -0.0345000029 0.00640740432
v -0.145356461 -0.0345000029 0.00672690058
v -0.147620946 -0.0345000029 0.00744550955
v -0.145305872 -0.0345000029 0.007024127
v -0.145202056 -0.0345000029 0.00730718672
v -0.147275552 -0.0345000029 0.008415468
v -0.14503774 -0.0345000029 0.007581269
v -0.146716088 -0.0345000029 0.009240211
v -0.144813791 -0.0345000029 0.007827498
v -0.144538835 -0.0345000029 0.008027346
v -0.144228756 -0.0345000029 0.008166612
v -0.143903777 -0.0345000029 0.008238574
v -0.1435843 -0.0345000029 0.008244934
v -0.143287063 -0.0345000029 0.008194348
v -0.126585722 -0.0345000029 0.0268857162
v -0.126724973 -0.0345000029 0.0271957852
v -0.128162935 -0.0345000029 0.0303535685
v -0.126385868 -0.0345000029 0.0266107637
v -0.126796946 -0.0345000029 0.027520759
v -0.126803309 -0.0345000029 0.0278402567
v -0.126139641 -0.0345000029 0.0263868086
v -0.126752719 -0.0345000029 0.02813748
v -0.125865564 -0.0345000029 0.026222501
v -0.126648888 -0.0345000029 0.02842054
v -0.126484588 -0.0345000029 0.0286946241
v -0.126260638 -0.0345000029 0.0289408527
v -0.127382174 -0.0345000029 0.031037936
v -0.125985682 -0.0345000029 0.0291407
v -0.1269171 -0.0345000029 0.0313057229
v -0.125675619 -0.0345000029 0.029279964
v -0.12641567 -0.0345000029 0.0315103978
v -0.1255825 -0.0345000029 0.0261186734
v -0.125285268 -0.0345000029 0.0260680877
v -0.124965772 -0.0345000029 0.0260744449
v -0.1246408 -0.0345000029 0.0261464082
v -0.124330737 -0.0345000029 0.0262856763
v -0.125350639 -0.0345000029 0.0293519273
v -0.125891179 -0.0345000029 0.0316454545
v -0.1253582 -0.0345000029 0.0317081846
v -0.125031143 -0.0345000029 0.0293582883
v -0.12405578 -0.0345000029 0.0264855213
v -0.124323286 -0.0345000029 0.03162508
v -0.12473391 -0.0345000029 0.0293077
v -0.124450848 -0.0345000029 0.029203875
v -0.12417677 -0.0345000029 0.0290395673
v -0.123930536 -0.0345000029 0.0288156122
v -0.123831823 -0.0345000029 0.0267317519
v -0.118944861 -0.0345000029 0.0302634723
v -0.106106728 -0.0345000029 0.0277371239
v -0.123730689 -0.0345000029 0.0285406578
v -0.123667508 -0.0345000029 0.0270058326
v -0.12359143 -0.0345000029 0.0282305889
v -0.123563692 -0.0345000029 0.0272888951
v -0.123519465 -0.0345000029 0.0279056169
v -0.12351311 -0.0345000029 0.0275861211
v -0.102764115 -0.0345000029 0.02627111
v -0.102539875 -0.0345000029 0.0261366758
v -0.102308273 -0.0345000029 0.02605173
v -0.118324392 -0.0345000029 0.00127356173
v -0.102965578 -0.0345000029 0.0264543481
v -0.103129081 -0.0345000029 0.02667931
v -0.103243031 -0.0345000029 0.0269330032
v -0.103301913 -0.0345000029 0.0271988921
v -0.103307106 -0.0345000029 0.0274602957
v -0.105228283 -0.0345000029 0.0290645584
v -0.103265725 -0.0345000029 0.0277034789
v -0.103180774 -0.0345000029 0.0279350746
v -0.103046343 -0.0345000029 0.0281593241
v -0.104770929 -0.0345000029 0.029634688
v -0.1028631 -0.0345000029 0.0283607859
v -0.104181536 -0.0345000029 0.0301374421
v -0.102638148 -0.0345000029 0.0285242964
v -0.103476614 -0.0345000029 0.0305300914
v -0.102384448 -0.0345000029 0.0286382418
v -0.102690376 -0.0345000029 0.0307767447
v -0.102118559 -0.0345000029 0.02869712
v -0.101870269 -0.0345000029 0.03085706
v -0.101857156 -0.0345000029 0.0287023224
v -0.101613969 -0.0345000029 0.0286609326
v -0.101067953 -0.0345000029 0.0307712071
v -0.101382375 -0.0345000029 0.0285759848
v -0.100328937 -0.0345000029 0.0305388514
v -0.101158127 -0.0345000029 0.0284415521
v -0.0996851 -0.0345000029 0.0301928669
v -0.09911497 -0.0345000029 0.0297355074
v -0.100956663 -0.0345000029 0.0282583125
v -0.09861222 -0.0345000029 0.0291461125
v -0.10079316 -0.0345000029 0.0280333534
v -0.09821957 -0.0345000029 0.0284411944
v -0.100679211 -0.0345000029 0.02777966
v -0.100620329 -0.0345000029 0.0275137722
v -0.09797291 -0.0345000029 0.0276549533
v -0.100615136 -0.0345000029 0.0272523686
v -0.0978926 -0.0345000029 0.0268348567
v -0.100656524 -0.0345000029 0.0270091817
v -0.09797845 -0.0345000029 0.0260325409
v -0.100741468 -0.0345000029 0.02677759
v -0.0982108042 -0.0345000029 0.0252935141
v -0.100875907 -0.0345000029 0.0265533384
v -0.0985567942 -0.0345000029 0.02464968
v -0.101059139 -0.0345000029 0.0263518766
v -0.101284094 -0.0345000029 0.0261883643
v -0.101537794 -0.0345000029 0.02607442
v -0.101803683 -0.0345000029 0.0260155443
v -0.102065094 -0.0345000029 0.02601034
v -0.118124552 -0.0345000029 0.0009986091
v -0.116216317 -0.0345000029 -0.002036301
v -0.117985278 -0.0345000029 0.000688540051
v -0.117913321 -0.0345000029 0.0003635672
v -0.117906958 -0.0345000029 4.407067E-05
v -0.117957532 -0.0345000029 -0.0002531554
v -0.118061371 -0.0345000029 -0.0005362146
v -0.118225671 -0.0345000029 -0.0008102972
v -0.116581313 -0.0345000029 -0.002507416
v -0.118449636 -0.0345000029 -0.00105652725
v -0.117029481 -0.0345000029 -0.00293314923
v -0.118724592 -0.0345000029 -0.00125637441
v -0.117551535 -0.0345000029 -0.00329266256
v -0.119034655 -0.0345000029 -0.00139564031
v -0.118131481 -0.0345000029 -0.00356810982
v -0.119359635 -0.0345000029 -0.00146760233
v -0.118748032 -0.0345000029 -0.00374722178
v -0.119377114 -0.0345000029 -0.003825034
v -0.119679123 -0.0345000029 -0.00147396163
v -0.119994909 -0.0345000029 -0.00380427134
v -0.119976357 -0.0345000029 -0.00142337545
v -0.120580651 -0.0345000029 -0.00369435
v -0.120259412 -0.0345000029 -0.00131955
v -0.120533489 -0.0345000029 -0.00115524174
v -0.120779723 -0.0345000029 -0.000931284856
v -0.120979577 -0.0345000029 -0.0006563322
v -0.121118836 -0.0345000029 -0.000346263143
v -0.1211908 -0.0345000029 -2.12902669E-05
v -0.121197149 -0.0345000029 0.000298206258
v -0.121146575 -0.0345000029 0.0005954323
v -0.121042743 -0.0345000029 0.0008784915
v -0.120878436 -0.0345000029 0.00115257408
v -0.120654486 -0.0345000029 0.00139880413
v -0.120069459 -0.0345000029 0.00173791731
v -0.11974448 -0.0345000029 0.00180987932
v -0.119424984 -0.0345000029 0.00181623839
v -0.119127765 -0.0345000029 0.00176565256
v -0.1188447 -0.0345000029 0.00166182686
v -0.118570618 -0.0345000029 0.00149751874
v -0.120533489 -0.0295 -0.00115524174
v -0.120580651 -0.0295 -0.00369435
v -0.120779723 -0.0295 -0.000931284856
v -0.120259412 -0.0295 -0.00131955
v -0.120979577 -0.0295 -0.0006563322
v -0.1269153 -0.0295 0.0003101668
v -0.121118836 -0.0295 -0.000346263143
v -0.119976357 -0.0295 -0.00142337545
v -0.144739956 -0.0295 0.00273434469
v -0.142608941 -0.0295 0.005372167
v -0.119994909 -0.0295 -0.00380427134
v -0.119679123 -0.0295 -0.00147396163
v -0.119377114 -0.0295 -0.003825034
v -0.119359635 -0.0295 -0.00146760233
v -0.118748032 -0.0295 -0.00374722178
v -0.118131481 -0.0295 -0.00356810982
v -0.119034655 -0.0295 -0.00139564031
v -0.117551535 -0.0295 -0.00329266256
v -0.118724592 -0.0295 -0.00125637441
v -0.117029481 -0.0295 -0.00293314923
v -0.118449636 -0.0295 -0.00105652725
v -0.116581313 -0.0295 -0.002507416
v -0.118225671 -0.0295 -0.0008102972
v -0.116216317 -0.0295 -0.002036301
v -0.118061371 -0.0295 -0.0005362146
v -0.117957532 -0.0295 -0.0002531554
v -0.117906958 -0.0295 4.407067E-05
v -0.117913321 -0.0295 0.0003635672
v -0.117985278 -0.0295 0.000688540051
v -0.118124552 -0.0295 0.0009986091
v -0.101118922 -0.0295 0.02423479
v -0.118324392 -0.0295 0.00127356173
v -0.0985567942 -0.0295 0.02464968
v -0.104243346 -0.0295 0.02506619
v -0.09883668 -0.0295 0.0265249312
v -0.0982108042 -0.0295 0.0252935141
v -0.09797845 -0.0295 0.0260325409
v -0.0978926 -0.0295 0.0268348567
v -0.09797291 -0.0295 0.0276549533
v -0.09821957 -0.0295 0.0284411944
v -0.0996789 -0.0295 0.029646473
v -0.09861222 -0.0295 0.0291461125
v -0.09911497 -0.0295 0.0297355074
v -0.0996851 -0.0295 0.0301928669
v -0.100328937 -0.0295 0.0305388514
v -0.101067953 -0.0295 0.0307712071
v -0.102803335 -0.0295 0.030477874
v -0.101870269 -0.0295 0.03085706
v -0.102690376 -0.0295 0.0307767447
v -0.103476614 -0.0295 0.0305300914
v -0.104181536 -0.0295 0.0301374421
v -0.105085559 -0.0295 0.0281877331
v -0.104770929 -0.0295 0.029634688
v -0.105228283 -0.0295 0.0290645584
v -0.106106728 -0.0295 0.0277371239
v -0.11926844 -0.0295 0.0290474314
v -0.124323286 -0.0295 0.03162508
v -0.122875974 -0.0295 0.03000333
v -0.1260004 -0.0295 0.0308347289
v -0.1253582 -0.0295 0.0317081846
v -0.125891179 -0.0295 0.0316454545
v -0.12641567 -0.0295 0.0315103978
v -0.1269171 -0.0295 0.0313057229
v -0.127382174 -0.0295 0.031037936
v -0.128162935 -0.0295 0.0303535685
v -0.128282636 -0.0295 0.028544588
v -0.130482078 -0.0295 0.0277143978
v -0.127440438 -0.0295 0.0254230462
v -0.122033767 -0.0295 0.0268817861
v -0.13280122 -0.0295 0.025075227
v -0.122426219 -0.0295 0.0171803739
v -0.124316 -0.0295 0.0245916452
v -0.137439519 -0.0295 0.01979689
v -0.126887262 -0.0295 0.000415590534
v -0.118570618 -0.0295 0.00149751874
v -0.142144576 -0.0295 0.00711723464
v -0.1188447 -0.0295 0.00166182686
v -0.119127765 -0.0295 0.00176565256
v -0.119424984 -0.0295 0.00181623839
v -0.11974448 -0.0295 0.00180987932
v -0.120069459 -0.0295 0.00173791731
v -0.120379537 -0.0295 0.00159865117
v -0.120654486 -0.0295 0.00139880413
v -0.120878436 -0.0295 0.00115257408
v -0.121042743 -0.0295 0.0008784915
v -0.121146575 -0.0295 0.0005954323
v -0.121197149 -0.0295 0.000298206258
v -0.1211908 -0.0295 -2.12902669E-05
v -0.142220676 -0.0295 0.00589248026
v -0.142384976 -0.0295 0.005618397
v -0.142116845 -0.0295 0.00617553946
v -0.142066255 -0.0295 0.00647276547
v -0.142072618 -0.0295 0.00679226173
v -0.1428839 -0.0295 0.00517232064
v -0.14319396 -0.0295 0.00503305439
v -0.143518925 -0.0295 0.00496109249
v -0.143838435 -0.0295 0.00495473342
v -0.144135654 -0.0295 0.005005319
v -0.144418716 -0.0295 0.005109145
v -0.1456636 -0.0295 0.00310859527
v -0.1446928 -0.0295 0.00527345343
v -0.146490112 -0.0295 0.00372259179
v -0.144939035 -0.0295 0.00549741
v -0.147132516 -0.0295 0.004527226
v -0.145138875 -0.0295 0.00577236246
v -0.147538692 -0.0295 0.0054372903
v -0.145278141 -0.0295 0.00608243141
v -0.1477073 -0.0295 0.0064195185
v -0.1453501 -0.0295 0.00640740432
v -0.145356461 -0.0295 0.00672690058
v -0.147620946 -0.0295 0.00744550955
v -0.145305872 -0.0295 0.007024127
v -0.145202056 -0.0295 0.00730718672
v -0.147275552 -0.0295 0.008415468
v -0.14503774 -0.0295 0.007581269
v -0.146716088 -0.0295 0.009240211
v -0.144813791 -0.0295 0.007827498
v -0.144538835 -0.0295 0.008027346
v -0.144228756 -0.0295 0.008166612
v -0.143903777 -0.0295 0.008238574
v -0.1435843 -0.0295 0.008244934
v -0.143287063 -0.0295 0.008194348
v -0.143004 -0.0295 0.008090521
v -0.142729923 -0.0295 0.007926214
v -0.1424837 -0.0295 0.007702256
v -0.142283857 -0.0295 0.007427303
v -0.128162935 -0.0345000029 0.0303535685
v -0.127382174 -0.032 0.031037936
v -0.128162935 -0.0295 0.0303535685
v -0.127382174 -0.0345000029 0.031037936
v -0.127382174 -0.0295 0.031037936
v -0.1269171 -0.0345000029 0.0313057229
v -0.1269171 -0.032 0.0313057229
v -0.1269171 -0.0295 0.0313057229
v -0.12641567 -0.0345000029 0.0315103978
v -0.12641567 -0.032 0.0315103978
v -0.12641567 -0.0295 0.0315103978
v -0.125891179 -0.0345000029 0.0316454545
v -0.125891179 -0.032 0.0316454545
v -0.125891179 -0.0295 0.0316454545
v -0.1253582 -0.0345000029 0.0317081846
v -0.1253582 -0.032 0.0317081846
v -0.1253582 -0.0295 0.0317081846
v -0.124323286 -0.0345000029 0.03162508
v -0.124323286 -0.0295 0.03162508
v -0.137439519 -0.032 0.01979689
v -0.146716088 -0.0295 0.009240211
v -0.146716088 -0.0345000029 0.009240211
v -0.128162935 -0.0345000029 0.0303535685
v -0.137439519 -0.0295 0.01979689
v -0.128162935 -0.0295 0.0303535685
v -0.13280122 -0.0295 0.025075227
v -0.130482078 -0.0295 0.0277143978
v -0.144739956 -0.0295 0.00273434469
v -0.144739956 -0.0345000029 0.00273434469
v -0.145273983 -0.032 0.002917689
v -0.1456636 -0.0295 0.00310859527
v -0.1456636 -0.0345000029 0.00310859527
v -0.145789862 -0.032 0.00318226265
v -0.1462694 -0.032 0.003524701
v -0.146490112 -0.0295 0.00372259179
v -0.146490112 -0.0345000029 0.00372259179
v -0.146695569 -0.032 0.00393628562
v -0.147132516 -0.0295 0.004527226
v -0.147132516 -0.0345000029 0.004527226
v -0.1470545 -0.032 0.00440359954
v -0.14733687 -0.032 0.00490995776
v -0.147538692 -0.0295 0.0054372903
v -0.147538692 -0.0345000029 0.0054372903
v -0.147538692 -0.032 0.0054372903
v -0.147664264 -0.032 0.00598778762
v -0.1477073 -0.0295 0.0064195185
v -0.1477073 -0.0345000029 0.0064195185
v -0.147702917 -0.032 0.006859554
v -0.147620946 -0.0295 0.00744550955
v -0.147620946 -0.0345000029 0.00744550955
v -0.147547573 -0.032 0.007732727
v -0.147275552 -0.0295 0.008415468
v -0.147275552 -0.0345000029 0.008415468
v -0.147207171 -0.032 0.00854389
v -0.146716088 -0.0295 0.009240211
v -0.146716088 -0.0345000029 0.009240211
v -0.1326603 -0.032 -0.000480002753
v -0.120580651 -0.0295 -0.00369435
v -0.120580651 -0.0345000029 -0.00369435
v -0.144739956 -0.0345000029 0.00273434469
v -0.144739956 -0.0295 0.00273434469
v -0.116216317 -0.0345000029 -0.002036301
v -0.116581313 -0.032 -0.002507416
v -0.116216317 -0.0295 -0.002036301
v -0.116581313 -0.0345000029 -0.002507416
v -0.116581313 -0.0295 -0.002507416
v -0.117029481 -0.0345000029 -0.00293314923
v -0.117029481 -0.032 -0.00293314923
v -0.117029481 -0.0295 -0.00293314923
v -0.117551535 -0.0345000029 -0.00329266256
v -0.117551535 -0.032 -0.00329266256
v -0.117551535 -0.0295 -0.00329266256
v -0.118131481 -0.0345000029 -0.00356810982
v -0.118131481 -0.032 -0.00356810982
v -0.118131481 -0.0295 -0.00356810982
v -0.118748032 -0.0345000029 -0.00374722178
v -0.118748032 -0.032 -0.00374722178
v -0.118748032 -0.0295 -0.00374722178
v -0.119377114 -0.0345000029 -0.003825034
v -0.119377114 -0.032 -0.003825034
v -0.119377114 -0.0295 -0.003825034
v -0.119994909 -0.0345000029 -0.00380427134
v -0.119994909 -0.032 -0.00380427134
v -0.119994909 -0.0295 -0.00380427134
v -0.120580651 -0.0345000029 -0.00369435
v -0.120580651 -0.0295 -0.00369435
v -0.107386559 -0.032 0.0113066891
v -0.0985567942 -0.0295 0.02464968
v -0.0985567942 -0.0345000029 0.02464968
v -0.116216317 -0.0345000029 -0.002036301
v -0.116216317 -0.0295 -0.002036301
v -0.105667517 -0.032 0.0284008421
v -0.106106728 -0.0295 0.0277371239
v -0.106106728 -0.0345000029 0.0277371239
v -0.105228283 -0.0345000029 0.0290645584
v -0.105228283 -0.0295 0.0290645584
v -0.122875974 -0.032 0.03000333
v -0.123730689 -0.032 0.0285406578
v -0.123930536 -0.032 0.0288156122
v -0.12417677 -0.032 0.0290395673
v -0.124450848 -0.032 0.029203875
v -0.12359143 -0.032 0.0282305889
v -0.122033767 -0.032 0.0268817861
v -0.12473391 -0.032 0.0293077
v -0.123519465 -0.032 0.0279056169
v -0.1260004 -0.032 0.0308347289
v -0.12351311 -0.032 0.0275861211
v -0.125031143 -0.032 0.0293582883
v -0.123563692 -0.032 0.0272888951
v -0.125350639 -0.032 0.0293519273
v -0.123667508 -0.032 0.0270058326
v -0.123831823 -0.032 0.0267317519
v -0.12405578 -0.032 0.0264855213
v -0.125675619 -0.032 0.029279964
v -0.125985682 -0.032 0.0291407
v -0.126260638 -0.032 0.0289408527
v -0.128282636 -0.032 0.028544588
v -0.124316 -0.032 0.0245916452
v -0.126484588 -0.032 0.0286946241
v -0.124330737 -0.032 0.0262856763
v -0.126648888 -0.032 0.02842054
v -0.1246408 -0.032 0.0261464082
v -0.126752719 -0.032 0.02813748
v -0.124965772 -0.032 0.0260744449
v -0.125285268 -0.032 0.0260680877
v -0.1255825 -0.032 0.0261186734
v -0.126803309 -0.032 0.0278402567
v -0.126796946 -0.032 0.027520759
v -0.126724973 -0.032 0.0271957852
v -0.127440438 -0.032 0.0254230462
v -0.125865564 -0.032 0.026222501
v -0.126585722 -0.032 0.0268857162
v -0.126139641 -0.032 0.0263868086
v -0.126385868 -0.032 0.0266107637
v -0.122454867 -0.03075 0.0284425579
v -0.122875974 -0.032 0.03000333
v -0.122875974 -0.0295 0.03000333
v -0.122033767 -0.0295 0.0268817861
v -0.122033767 -0.032 0.0268817861
v -0.124316 -0.032 0.0245916452
v -0.123174876 -0.03075 0.0257367175
v -0.124316 -0.0295 0.0245916452
v -0.122033767 -0.032 0.0268817861
v -0.122033767 -0.0295 0.0268817861
v -0.127440438 -0.032 0.0254230462
v -0.125878215 -0.03075 0.0250073448
v -0.127440438 -0.0295 0.0254230462
v -0.124316 -0.032 0.0245916452
v -0.124316 -0.0295 0.0245916452
v -0.128282636 -0.032 0.028544588
v -0.12786153 -0.03075 0.0269838162
v -0.128282636 -0.0295 0.028544588
v -0.127440438 -0.032 0.0254230462
v -0.127440438 -0.0295 0.0254230462
v -0.1260004 -0.032 0.0308347289
v -0.127141535 -0.03075 0.0296896584
v -0.1260004 -0.0295 0.0308347289
v -0.128282636 -0.032 0.028544588
v -0.128282636 -0.0295 0.028544588
v -0.0996789 -0.032 0.029646473
v -0.10079316 -0.032 0.0280333534
v -0.100956663 -0.032 0.0282583125
v -0.101158127 -0.032 0.0284415521
v -0.101382375 -0.032 0.0285759848
v -0.100679211 -0.032 0.02777966
v -0.09883668 -0.032 0.0265249312
v -0.101613969 -0.032 0.0286609326
v -0.100620329 -0.032 0.0275137722
v -0.102803335 -0.032 0.030477874
v -0.100615136 -0.032 0.0272523686
v -0.101857156 -0.032 0.0287023224
v -0.100656524 -0.032 0.0270091817
v -0.102118559 -0.032 0.02869712
v -0.100741468 -0.032 0.02677759
v -0.100875907 -0.032 0.0265533384
v -0.101059139 -0.032 0.0263518766
v -0.102384448 -0.032 0.0286382418
v -0.102638148 -0.032 0.0285242964
v -0.1028631 -0.032 0.0283607859
v -0.105085559 -0.032 0.0281877331
v -0.101118922 -0.032 0.02423479
v -0.103046343 -0.032 0.0281593241
v -0.101284094 -0.032 0.0261883643
v -0.103180774 -0.032 0.0279350746
v -0.101537794 -0.032 0.02607442
v -0.103265725 -0.032 0.0277034789
v -0.101803683 -0.032 0.0260155443
v -0.102065094 -0.032 0.02601034
v -0.102308273 -0.032 0.02605173
v -0.103307106 -0.032 0.0274602957
v -0.103301913 -0.032 0.0271988921
v -0.103243031 -0.032 0.0269330032
v -0.104243346 -0.032 0.02506619
v -0.102539875 -0.032 0.0261366758
v -0.103129081 -0.032 0.02667931
v -0.102764115 -0.032 0.02627111
v -0.102965578 -0.032 0.0264543481
v -0.101241104 -0.03075 0.0300621726
v -0.102803335 -0.032 0.030477874
v -0.102803335 -0.0295 0.030477874
v -0.0996789 -0.0295 0.029646473
v -0.0996789 -0.032 0.029646473
v -0.09883668 -0.032 0.0265249312
v -0.09925779 -0.03075 0.0280857049
v -0.09883668 -0.0295 0.0265249312
v -0.0996789 -0.032 0.029646473
v -0.0996789 -0.0295 0.029646473
v -0.101118922 -0.032 0.02423479
v -0.0999778062 -0.03075 0.02537986
v -0.101118922 -0.0295 0.02423479
v -0.09883668 -0.032 0.0265249312
v -0.09883668 -0.0295 0.0265249312
v -0.104243346 -0.032 0.02506619
v -0.102681138 -0.03075 0.024650488
v -0.104243346 -0.0295 0.02506619
v -0.101118922 -0.032 0.02423479
v -0.101118922 -0.0295 0.02423479
v -0.105085559 -0.032 0.0281877331
v -0.104664452 -0.03075 0.02662696
v -0.105085559 -0.0295 0.0281877331
v -0.104243346 -0.032 0.02506619
v -0.104243346 -0.0295 0.02506619
v -0.106106728 -0.0295 0.0277371239
v -0.115215 -0.032 0.0296811014
v -0.106106728 -0.0345000029 0.0277371239
v -0.124323286 -0.0295 0.03162508
v -0.124323286 -0.0345000029 0.03162508
v -0.122875974 -0.032 0.03000333
v -0.124438189 -0.03075 0.03041903
v -0.122875974 -0.0295 0.03000333
v -0.1260004 -0.032 0.0308347289
v -0.1260004 -0.0295 0.0308347289
v -0.102803335 -0.032 0.030477874
v -0.103944436 -0.03075 0.0293328036
v -0.102803335 -0.0295 0.030477874
v -0.105085559 -0.032 0.0281877331
v -0.105085559 -0.0295 0.0281877331
f 1 2 3
f 1 3 4
f 5 1 4
f 4 3 6
f 7 5 4
f 8 4 6
f 7 4 8
f 8 6 9
f 10 7 8
f 11 8 9
f 10 8 11
f 11 9 12
f 13 10 11
f 14 11 12
f 13 11 14
f 14 12 15
f 16 13 14
f 17 14 15
f 16 14 17
f 17 15 18
f 19 16 17
f 20 17 18
f 19 17 20
f 20 18 21
f 22 20 21
f 23 19 20
f 23 20 22
f 22 21 24
f 25 23 22
f 26 22 24
f 27 25 22
f 28 22 26
f 27 22 28
f 29 28 26
f 30 27 28
f 31 28 29
f 31 30 28
f 32 31 29
f 31 32 30
f 32 29 33
f 32 34 30
f 35 32 33
f 32 35 34
f 35 33 36
f 35 37 34
f 38 35 36
f 35 38 37
f 38 36 39
f 38 40 37
f 41 38 39
f 38 41 40
f 41 39 42
f 41 43 40
f 44 41 42
f 41 44 43
f 44 42 45
f 44 46 43
f 47 44 45
f 44 47 46
f 47 45 48
f 46 47 49
f 47 48 49
f 48 50 49
f 50 51 49
f 49 51 52
f 50 53 51
f 51 54 52
f 53 55 51
f 51 55 54
f 53 56 55
f 55 57 54
f 56 58 55
f 55 58 57
f 56 59 58
f 58 60 57
f 59 61 58
f 58 61 60
f 59 62 61
f 61 63 60
f 62 64 61
f 61 64 63
f 62 65 64
f 64 66 63
f 65 67 64
f 64 67 66
f 65 68 67
f 68 69 67
f 67 70 66
f 67 69 70
f 68 71 69
f 69 72 70
f 71 73 69
f 69 74 72
f 73 75 69
f 69 75 74
f 73 76 75
f 75 77 74
f 76 78 75
f 75 78 77
f 76 79 78
f 79 77 78
f 80 79 76
f 79 81 77
f 82 79 80
f 79 82 81
f 83 82 80
f 82 84 81
f 85 82 83
f 82 85 84
f 86 85 83
f 85 87 84
f 88 85 86
f 85 88 87
f 89 88 86
f 88 90 87
f 91 88 89
f 88 91 90
f 92 91 89
f 91 93 90
f 94 91 92
f 91 94 93
f 95 94 92
f 94 96 93
f 94 95 96
f 97 98 99
f 97 99 100
f 101 97 100
f 100 99 102
f 103 101 100
f 104 100 102
f 103 100 104
f 104 102 105
f 106 103 104
f 107 104 105
f 106 104 107
f 107 105 108
f 109 106 107
f 110 107 108
f 109 107 110
f 110 108 111
f 112 109 110
f 113 110 111
f 112 110 113
f 113 111 114
f 115 112 113
f 116 113 114
f 115 113 116
f 116 114 117
f 118 116 117
f 119 115 116
f 119 116 118
f 118 117 120
f 121 119 118
f 122 118 120
f 123 121 118
f 124 118 122
f 123 118 124
f 125 124 122
f 126 123 124
f 127 124 125
f 127 126 124
f 128 127 125
f 127 128 126
f 128 125 129
f 128 130 126
f 131 128 129
f 128 131 130
f 131 129 132
f 131 133 130
f 134 131 132
f 131 134 133
f 134 132 135
f 134 136 133
f 137 134 135
f 134 137 136
f 137 135 138
f 137 139 136
f 140 137 138
f 137 140 139
f 140 138 141
f 140 142 139
f 143 140 141
f 140 143 142
f 143 141 144
f 142 143 145
f 143 144 145
f 144 146 145
f 146 147 145
f 145 147 148
f 146 149 147
f 147 150 148
f 149 151 147
f 147 151 150
f 149 152 151
f 151 153 150
f 152 154 151
f 151 154 153
f 152 155 154
f 154 156 153
f 155 157 154
f 154 157 156
f 155 158 157
f 157 159 156
f 158 160 157
f 157 160 159
f 158 161 160
f 160 162 159
f 161 163 160
f 160 163 162
f 161 164 163
f 164 165 163
f 163 166 162
f 163 165 166
f 164 167 165
f 165 168 166
f 167 169 165
f 165 170 168
f 169 171 165
f 165 171 170
f 169 172 171
f 171 173 170
f 172 174 171
f 171 174 173
f 172 175 174
f 175 173 174
f 176 175 172
f 175 177 173
f 178 175 176
f 175 178 177
f 179 178 176
f 178 180 177
f 181 178 179
f 178 181 180
f 182 181 179
f 181 183 180
f 184 181 182
f 181 184 183
f 185 184 182
f 184 186 183
f 187 184 185
f 184 187 186
f 188 187 185
f 187 189 186
f 190 187 188
f 187 190 189
f 191 190 188
f 190 192 189
f 190 191 192
f 193 194 195
f 193 195 196
f 197 193 196
f 196 195 198
f 199 197 196
f 200 196 198
f 199 196 200
f 200 198 201
f 202 199 200
f 203 200 201
f 202 200 203
f 203 201 204
f 205 202 203
f 206 203 204
f 205 203 206
f 206 204 207
f 208 205 206
f 209 206 207
f 208 206 209
f 209 207 210
f 211 208 209
f 212 209 210
f 211 209 212
f 212 210 213
f 214 212 213
f 215 211 212
f 215 212 214
f 214 213 216
f 217 215 214
f 218 214 216
f 219 217 214
f 220 214 218
f 219 214 220
f 221 220 218
f 222 219 220
f 223 220 221
f 223 222 220
f 224 223 221
f 223 224 222
f 224 221 225
f 224 226 222
f 227 224 225
f 224 227 226
f 227 225 228
f 227 229 226
f 230 227 228
f 227 230 229
f 230 228 231
f 230 232 229
f 233 230 231
f 230 233 232
f 233 231 234
f 233 235 232
f 236 233 234
f 233 236 235
f 236 234 237
f 236 238 235
f 239 236 237
f 236 239 238
f 239 237 240
f 238 239 241
f 239 240 241
f 240 242 241
f 242 243 241
f 241 243 244
f 242 245 243
f 243 246 244
f 245 247 243
f 243 247 246
f 245 248 247
f 247 249 246
f 248 250 247
f 247 250 249
f 248 251 250
f 250 252 249
f 251 253 250
f 250 253 252
f 251 254 253
f 253 255 252
f 254 256 253
f 253 256 255
f 254 257 256
f 256 258 255
f 257 259 256
f 256 259 258
f 257 260 259
f 260 261 259
f 259 262 258
f 259 261 262
f 260 263 261
f 261 264 262
f 263 265 261
f 261 266 264
f 265 267 261
f 261 267 266
f 265 268 267
f 267 269 266
f 268 270 267
f 267 270 269
f 268 271 270
f 271 269 270
f 272 271 268
f 271 273 269
f 274 271 272
f 271 274 273
f 275 274 272
f 274 276 273
f 277 274 275
f 274 277 276
f 278 277 275
f 277 279 276
f 280 277 278
f 277 280 279
f 281 280 278
f 280 282 279
f 283 280 281
f 280 283 282
f 284 283 281
f 283 285 282
f 286 283 284
f 283 286 285
f 287 286 284
f 286 288 285
f 286 287 288
f 289 290 291
f 289 291 292
f 293 289 292
f 292 291 294
f 295 293 292
f 296 292 294
f 295 292 296
f 296 294 297
f 298 295 296
f 299 296 297
f 298 296 299
f 299 297 300
f 301 298 299
f 302 299 300
f 301 299 302
f 302 300 303
f 304 301 302
f 305 302 303
f 304 302 305
f 305 303 306
f 307 304 305
f 308 305 306
f 307 305 308
f 308 306 309
f 310 308 309
f 311 307 308
f 311 308 310
f 310 309 312
f 313 311 310
f 314 310 312
f 315 313 310
f 316 310 314
f 315 310 316
f 317 316 314
f 318 315 316
f 319 316 317
f 319 318 316
f 320 319 317
f 319 320 318
f 320 317 321
f 320 322 318
f 323 320 321
f 320 323 322
f 323 321 324
f 323 325 322
f 326 323 324
f 323 326 325
f 326 324 327
f 326 328 325
f 329 326 327
f 326 329 328
f 329 327 330
f 329 331 328
f 332 329 330
f 329 332 331
f 332 330 333
f 332 334 331
f 335 332 333
f 332 335 334
f 335 333 336
f 334 335 337
f 335 336 337
f 336 338 337
f 338 339 337
f 337 339 340
f 338 341 339
f 339 342 340
f 341 343 339
f 339 343 342
f 341 344 343
f 343 345 342
f 344 346 343
f 343 346 345
f 344 347 346
f 346 348 345
f 347 349 346
f 346 349 348
f 347 350 349
f 349 351 348
f 350 352 349
f 349 352 351
f 350 353 352
f 352 354 351
f 353 355 352
f 352 355 354
f 353 356 355
f 356 357 355
f 355 358 354
f 355 357 358
f 356 359 357
f 357 360 358
f 359 361 357
f 357 362 360
f 361 363 357
f 357 363 362
f 361 364 363
f 363 365 362
f 364 366 363
f 363 366 365
f 364 367 366
f 367 365 366
f 368 367 364
f 367 369 365
f 370 367 368
f 367 370 369
f 371 370 368
f 370 372 369
f 373 370 371
f 370 373 372
f 374 373 371
f 373 375 372
f 376 373 374
f 373 376 375
f 377 376 374
f 376 378 375
f 379 376 377
f 376 379 378
f 380 379 377
f 379 381 378
f 382 379 380
f 379 382 381
f 383 382 380
f 382 384 381
f 382 383 384
f 385 386 387
f 385 387 388
f 389 385 388
f 388 387 390
f 391 389 388
f 392 388 390
f 391 388 392
f 392 390 393
f 394 391 392
f 395 392 393
f 394 392 395
f 395 393 396
f 397 394 395
f 398 395 396
f 397 395 398
f 398 396 399
f 400 397 398
f 401 398 399
f 400 398 401
f 401 399 402
f 403 400 401
f 404 401 402
f 403 401 404
f 404 402 405
f 406 404 405
f 407 403 404
f 407 404 406
f 406 405 408
f 409 407 406
f 410 406 408
f 411 409 406
f 412 406 410
f 411 406 412
f 413 412 410
f 414 411 412
f 415 412 413
f 415 414 412
f 416 415 413
f 415 416 414
f 416 413 417
f 416 418 414
f 419 416 417
f 416 419 418
f 419 417 420
f 419 421 418
f 422 419 420
f 419 422 421
f 422 420 423
f 422 424 421
f 425 422 423
f 422 425 424
f 425 423 426
f 425 427 424
f 428 425 426
f 425 428 427
f 428 426 429
f 428 430 427
f 431 428 429
f 428 431 430
f 431 429 432
f 431 433 430
f 433 431 432
f 434 435 436
f 435 434 437
f 435 437 438
f 435 439 436
f 440 435 438
f 441 435 440
f 440 438 442
f 443 440 442
f 440 443 444
f 440 444 445
f 446 440 445
f 440 446 447
f 440 447 448
f 449 448 447
f 448 449 450
f 448 450 451
f 452 448 451
f 448 452 453
f 448 453 454
f 455 448 454
f 454 456 455
f 456 457 455
f 456 458 457
f 458 459 457
f 458 460 459
f 460 461 459
f 460 462 461
f 462 463 461
f 462 464 463
f 464 465 463
f 465 466 463
f 465 467 466
f 467 468 466
f 468 469 466
f 468 470 469
f 470 471 469
f 470 472 471
f 472 473 471
f 473 474 471
f 474 475 471
f 471 475 476
f 471 476 477
f 478 471 477
f 478 477 439
f 478 479 471
f 479 480 471
f 481 478 439
f 479 482 480
f 481 439 435
f 482 483 480
f 484 481 435
f 483 485 480
f 486 484 435
f 485 487 480
f 480 487 488
f 480 488 489
f 490 480 489
f 489 491 490
f 491 492 490
f 491 493 492
f 493 494 492
f 495 486 435
f 496 495 435
f 497 496 435
f 498 497 435
f 499 498 435
f 493 500 494
f 500 501 494
f 500 502 501
f 500 503 502
f 504 499 435
f 503 505 502
f 503 506 505
f 506 507 505
f 507 508 505
f 508 509 505
f 510 504 435
f 509 511 505
f 510 435 511
f 505 511 512
f 511 435 512
f 509 513 511
f 514 510 511
f 513 515 511
f 516 514 511
f 515 517 511
f 518 516 511
f 517 518 511
f 512 435 519
f 435 520 519
f 435 521 520
f 521 435 522
f 512 519 523
f 512 523 524
f 525 512 524
f 512 525 526
f 512 526 527
f 528 512 527
f 529 528 527
f 528 529 530
f 528 530 531
f 532 528 531
f 531 533 532
f 533 534 532
f 533 535 534
f 535 536 534
f 535 537 536
f 537 538 536
f 537 539 538
f 539 540 538
f 539 541 540
f 541 542 540
f 542 543 540
f 542 544 543
f 544 545 543
f 544 546 545
f 546 547 545
f 546 548 547
f 546 549 548
f 549 550 548
f 549 551 550
f 551 552 550
f 551 553 552
f 553 554 552
f 554 555 552
f 554 556 555
f 556 557 555
f 556 558 557
f 558 559 557
f 558 560 559
f 560 561 559
f 560 562 561
f 562 563 561
f 562 564 563
f 564 565 563
f 565 566 563
f 566 567 563
f 567 568 563
f 568 521 563
f 521 522 563
f 522 569 563
f 569 570 563
f 569 571 570
f 571 572 570
f 572 573 570
f 573 574 570
f 574 575 570
f 575 576 570
f 576 577 570
f 576 578 577
f 578 579 577
f 578 580 579
f 580 581 579
f 580 582 581
f 582 583 581
f 582 584 583
f 584 585 583
f 584 586 585
f 584 587 586
f 587 588 586
f 587 589 588
f 589 590 588
f 589 591 590
f 591 592 590
f 592 593 590
f 593 594 590
f 594 440 590
f 590 440 448
f 594 595 440
f 595 596 440
f 596 597 440
f 597 598 440
f 598 599 440
f 599 600 440
f 600 601 440
f 601 441 440
f 441 602 435
f 602 603 435
f 603 604 435
f 604 605 435
f 605 606 435
f 435 606 607
f 435 607 522
f 608 609 610
f 609 608 611
f 609 612 610
f 613 612 609
f 613 614 612
f 609 611 615
f 616 613 609
f 617 613 616
f 618 609 615
f 615 619 618
f 619 620 618
f 619 621 620
f 621 622 620
f 621 623 622
f 621 624 623
f 624 625 623
f 624 626 625
f 626 627 625
f 626 628 627
f 628 629 627
f 628 630 629
f 630 631 629
f 630 632 631
f 632 633 631
f 633 634 631
f 634 635 631
f 635 636 631
f 636 637 631
f 637 638 631
f 637 639 638
f 631 638 640
f 639 641 638
f 638 642 640
f 642 643 640
f 642 644 643
f 644 642 645
f 642 646 645
f 642 647 646
f 642 648 647
f 648 649 647
f 648 650 649
f 650 648 651
f 648 652 651
f 648 653 652
f 648 654 653
f 654 655 653
f 654 656 655
f 656 654 657
f 654 658 657
f 654 659 658
f 659 660 658
f 659 661 660
f 661 659 662
f 659 641 662
f 641 663 662
f 662 663 664
f 664 663 665
f 664 665 666
f 667 664 666
f 667 666 668
f 666 669 668
f 666 670 669
f 670 666 671
f 666 672 671
f 666 673 672
f 673 674 672
f 673 675 674
f 663 676 665
f 675 677 674
f 663 678 676
f 675 678 677
f 678 679 676
f 678 675 679
f 678 680 677
f 641 678 663
f 678 681 680
f 682 678 641
f 681 683 680
f 639 682 641
f 682 684 678
f 684 685 678
f 685 686 678
f 686 687 678
f 687 688 678
f 688 689 678
f 689 681 678
f 689 690 681
f 690 691 681
f 691 692 681
f 692 693 681
f 693 694 681
f 694 695 681
f 695 613 681
f 695 614 613
f 696 681 613
f 697 696 613
f 617 697 613
f 696 698 681
f 698 699 681
f 699 700 681
f 681 700 683
f 701 617 616
f 702 701 616
f 703 702 616
f 704 703 616
f 705 704 616
f 706 705 616
f 706 616 707
f 708 706 707
f 708 707 709
f 710 708 709
f 710 709 711
f 712 710 711
f 712 711 713
f 714 712 713
f 714 713 715
f 716 714 715
f 717 716 715
f 717 715 718
f 719 717 718
f 720 719 718
f 720 718 721
f 722 720 721
f 721 723 722
f 723 724 722
f 723 725 724
f 725 723 726
f 723 727 726
f 723 728 727
f 723 680 728
f 680 729 728
f 680 730 729
f 730 680 731
f 680 732 731
f 680 733 732
f 733 680 683
f 734 735 736
f 735 734 737
f 735 738 736
f 735 737 739
f 735 740 738
f 740 735 739
f 740 741 738
f 740 739 742
f 740 743 741
f 743 740 742
f 743 744 741
f 743 742 745
f 743 746 744
f 746 743 745
f 746 747 744
f 746 745 748
f 746 749 747
f 749 746 748
f 749 750 747
f 749 748 751
f 749 752 750
f 752 749 751
f 753 754 755
f 753 755 756
f 754 753 757
f 758 753 756
f 753 759 757
f 760 753 758
f 753 760 759
f 761 762 763
f 764 761 763
f 762 765 763
f 766 764 763
f 766 763 765
f 766 767 764
f 767 766 765
f 767 768 764
f 767 765 769
f 767 770 768
f 770 767 769
f 770 771 768
f 770 769 772
f 771 770 773
f 770 772 773
f 771 773 774
f 774 773 772
f 775 771 774
f 776 774 772
f 777 775 774
f 777 774 776
f 777 778 775
f 778 777 776
f 778 779 775
f 778 776 780
f 778 781 779
f 781 778 780
f 781 782 779
f 781 780 783
f 781 784 782
f 784 781 783
f 784 785 782
f 784 783 786
f 784 787 785
f 787 784 786
f 787 788 785
f 787 786 789
f 788 787 789
f 790 791 792
f 790 792 793
f 791 790 794
f 794 790 793
f 795 796 797
f 796 795 798
f 796 799 797
f 796 798 800
f 796 801 799
f 801 796 800
f 801 802 799
f 801 800 803
f 801 804 802
f 804 801 803
f 804 805 802
f 804 803 806
f 804 807 805
f 807 804 806
f 807 808 805
f 807 806 809
f 807 810 808
f 810 807 809
f 810 811 808
f 810 809 812
f 810 813 811
f 813 810 812
f 813 814 811
f 813 812 815
f 813 816 814
f 816 813 815
f 816 817 814
f 816 815 818
f 816 819 817
f 819 816 818
f 820 821 822
f 820 822 823
f 821 820 824
f 824 820 823
f 825 826 827
f 825 827 828
f 826 825 829
f 829 825 828
f 830 831 832
f 833 830 832
f 830 833 834
f 830 835 831
f 830 836 835
f 830 834 837
f 836 838 835
f 839 830 837
f 836 840 838
f 839 837 841
f 840 836 842
f 839 841 843
f 836 844 842
f 836 845 844
f 845 836 846
f 847 839 843
f 839 847 848
f 839 848 849
f 850 839 849
f 836 851 846
f 852 850 849
f 851 853 846
f 850 852 854
f 851 855 853
f 850 854 856
f 855 851 857
f 851 858 857
f 851 859 858
f 860 850 856
f 850 860 861
f 850 861 862
f 851 863 859
f 863 850 862
f 863 864 859
f 863 862 865
f 863 866 864
f 863 865 867
f 866 863 867
f 868 869 870
f 868 870 871
f 869 868 872
f 872 868 871
f 873 874 875
f 876 874 873
f 874 877 875
f 874 876 877
f 878 879 880
f 881 879 878
f 879 882 880
f 879 881 882
f 883 884 885
f 886 884 883
f 884 887 885
f 884 886 887
f 888 889 890
f 891 889 888
f 889 892 890
f 889 891 892
f 893 894 895
f 896 893 895
f 893 896 897
f 893 898 894
f 893 899 898
f 893 897 900
f 899 901 898
f 902 893 900
f 899 903 901
f 902 900 904
f 903 899 905
f 902 904 906
f 899 907 905
f 899 908 907
f 908 899 909
f 910 902 906
f 902 910 911
f 902 911 912
f 913 902 912
f 899 914 909
f 915 913 912
f 914 916 909
f 913 915 917
f 914 918 916
f 913 917 919
f 918 914 920
f 914 921 920
f 914 922 921
f 923 913 919
f 913 923 924
f 913 924 925
f 914 926 922
f 926 913 925
f 926 927 922
f 926 925 928
f 926 929 927
f 926 928 930
f 929 926 930
f 931 932 933
f 931 933 934
f 932 931 935
f 935 931 934
f 936 937 938
f 939 937 936
f 937 940 938
f 937 939 940
f 941 942 943
f 944 942 941
f 942 945 943
f 942 944 945
f 946 947 948
f 949 947 946
f 947 950 948
f 947 949 950
f 951 952 953
f 954 952 951
f 952 955 953
f 952 954 955
f 956 957 958
f 959 957 956
f 957 960 958
f 957 959 960
f 961 962 963
f 964 962 961
f 962 965 963
f 962 964 965
f 966 967 968
f 969 967 966
f 967 970 968
f 967 969 970
