# ROS coordinates: X forward, Y left, Z up; units are metres.
o mesh
v -0.0117046889 0.0982912853 0.000108717941
v -0.005511366 0.0981721953 -0.00190398749
v -0.0114237983 0.09828588 0.00144195
v -0.0112296157 0.09828215 0.00281372247
v -0.0051006265 0.0981643 -0.000103904866
v -0.0111277252 0.09828019 0.004215764
v -0.004809847 0.09815871 0.00175291859
v -0.00464745238 0.09815559 0.00365478173
v -0.004620338 0.09815507 0.005588525
v -0.0111226756 0.0982800946 0.005638862
v -0.00473361835 0.09815724 0.00753977
v -0.009720411 0.09825313 0.0120120291
v -0.004990354 0.09816218 0.009493236
v -0.0112177879 0.09828193 0.00707302149
v -0.005391367 0.09816989 0.0114331115
v -0.01141499 0.09828572 0.008507678
v -0.005935155 0.0981803462 0.013343459
v -0.0117147211 0.09829148 0.00993194
v -0.006617885 0.0981934741 0.015208655
v -0.012115879 0.0982992 0.0113348495
v -0.007433476 0.09820916 0.0170138
v -0.008373788 0.09822724 0.0187451169
v -0.0126157925 0.09830881 0.0127056632
v -0.009428836 0.09824753 0.0203903057
v -0.0132103115 0.09832024 0.014034126
v -0.0105871893 0.0982698 0.0219387971
v -0.0138938837 0.09833338 0.0153107224
v -0.0118362531 0.09829382 0.0233819634
v -0.0146597605 0.09834811 0.0165268965
v -0.0131627079 0.09831932 0.02471322
v -0.0155001655 0.09836427 0.01767524
v -0.0145528689 0.0983460546 0.0259280466
v -0.0164065417 0.0983817 0.0187496152
v -0.0173698 0.09840022 0.0197452419
v -0.0183805544 0.09841966 0.0206587166
v -0.0181883015 0.108417809 0.0206587166
v -0.014360616 0.108344212 0.0259280466
v -0.0171775483 0.108398378 0.0197452419
v -0.0162142888 0.108379856 0.0187496152
v -0.0153079126 0.108362421 0.01767524
v -0.012970455 0.108317479 0.02471322
v -0.0144675076 0.108346261 0.0165268965
v -0.011644 0.108291969 0.0233819634
v -0.0137016308 0.108331539 0.0153107224
v -0.0103949364 0.108267955 0.0219387971
v -0.0130180586 0.108318396 0.014034126
v -0.00923658349 0.108245678 0.0203903057
v -0.0124235395 0.108306959 0.0127056632
v -0.009528158 0.108251289 0.0120120291
v -0.008181535 0.10822539 0.0187451169
v -0.0119236261 0.108297348 0.0113348495
v -0.007241223 0.108207315 0.0170138
v -0.0115224682 0.108289637 0.00993194
v -0.006425632 0.108191632 0.015208655
v -0.0112227369 0.10828387 0.008507678
v -0.005742902 0.108178504 0.013343459
v -0.0110255349 0.108280078 0.00707302149
v -0.005199114 0.108168043 0.0114331115
v -0.00479810126 0.108160332 0.009493236
v -0.00454136543 0.1081554 0.00753977
v -0.0109304227 0.108278252 0.005638862
v -0.004428085 0.108153217 0.005588525
v -0.0109354723 0.108278349 0.004215764
v -0.00445519947 0.108153738 0.00365478173
v -0.004617594 0.10815686 0.00175291859
v -0.00490837358 0.108162455 -0.000103904866
v -0.0110373627 0.108280309 0.00281372247
v -0.005319113 0.108170353 -0.00190398749
v -0.0112315454 0.108284041 0.00144195
v -0.011512436 0.108289443 0.000108717941
v -0.0163705871 0.103381932 0.0232933816
v -0.0181883015 0.108417809 0.0206587166
v -0.0183805544 0.09841966 0.0206587166
v -0.0145528689 0.0983460546 0.0259280466
v -0.014360616 0.108344212 0.0259280466
v -0.0117046889 0.0982912853 0.000108717941
v -0.0113276709 0.103284962 0.00144195
v -0.011512436 0.108289443 0.000108717941
v -0.0114237983 0.09828588 0.00144195
v -0.0112315454 0.108284041 0.00144195
v -0.0112296157 0.09828215 0.00281372247
v -0.0111334883 0.10328123 0.00281372247
v -0.0110373627 0.108280309 0.00281372247
v -0.0111277252 0.09828019 0.004215764
v -0.0110315979 0.10327927 0.004215764
v -0.0109354723 0.108278349 0.004215764
v -0.0111226756 0.0982800946 0.005638862
v -0.0110265482 0.103279173 0.005638862
v -0.0109304227 0.108278252 0.005638862
v -0.0112177879 0.09828193 0.00707302149
v -0.0111216605 0.103281 0.00707302149
v -0.0110255349 0.108280078 0.00707302149
v -0.01141499 0.09828572 0.008507678
v -0.0113188624 0.103284791 0.008507678
v -0.0112227369 0.10828387 0.008507678
v -0.0117147211 0.09829148 0.00993194
v -0.0116185937 0.103290558 0.00993194
v -0.0115224682 0.108289637 0.00993194
v -0.012115879 0.0982992 0.0113348495
v -0.0120197516 0.103298269 0.0113348495
v -0.0119236261 0.108297348 0.0113348495
v -0.0126157925 0.09830881 0.0127056632
v -0.0125196651 0.10330788 0.0127056632
v -0.0124235395 0.108306959 0.0127056632
v -0.0132103115 0.09832024 0.014034126
v -0.0131141841 0.103319317 0.014034126
v -0.0130180586 0.108318396 0.014034126
v -0.0138938837 0.09833338 0.0153107224
v -0.0137977563 0.10333246 0.0153107224
v -0.0137016308 0.108331539 0.0153107224
v -0.0146597605 0.09834811 0.0165268965
v -0.0145636331 0.10334719 0.0165268965
v -0.0144675076 0.108346261 0.0165268965
v -0.0155001655 0.09836427 0.01767524
v -0.0154040381 0.10336335 0.01767524
v -0.0153079126 0.108362421 0.01767524
v -0.0164065417 0.0983817 0.0187496152
v -0.0163104162 0.103380777 0.0187496152
v -0.0162142888 0.108379856 0.0187496152
v -0.0173698 0.09840022 0.0197452419
v -0.0172736757 0.1033993 0.0197452419
v -0.0171775483 0.108398378 0.0197452419
v -0.0183805544 0.09841966 0.0206587166
v -0.0181883015 0.108417809 0.0206587166
v -0.008511901 0.103230819 -0.0008976357
v -0.005319113 0.108170353 -0.00190398749
v -0.005511366 0.0981721953 -0.00190398749
v -0.0117046889 0.0982912853 0.000108717941
v -0.011512436 0.108289443 0.000108717941
v -0.005319113 0.108170353 -0.00190398749
v -0.005004499 0.103163376 -0.000103904866
v -0.005511366 0.0981721953 -0.00190398749
v -0.00490837358 0.108162455 -0.000103904866
v -0.0051006265 0.0981643 -0.000103904866
v -0.004617594 0.10815686 0.00175291859
v -0.00471371971 0.103157789 0.00175291859
v -0.004809847 0.09815871 0.00175291859
v -0.00445519947 0.108153738 0.00365478173
v -0.004551325 0.103154659 0.00365478173
v -0.00464745238 0.09815559 0.00365478173
v -0.004428085 0.108153217 0.005588525
v -0.00452421047 0.103154138 0.005588525
v -0.004620338 0.09815507 0.005588525
v -0.00454136543 0.1081554 0.00753977
v -0.004637491 0.103156321 0.00753977
v -0.00473361835 0.09815724 0.00753977
v -0.00479810126 0.108160332 0.009493236
v -0.004894227 0.103161253 0.009493236
v -0.004990354 0.09816218 0.009493236
v -0.005199114 0.108168043 0.0114331115
v -0.00529523939 0.103168964 0.0114331115
v -0.005391367 0.09816989 0.0114331115
v -0.005742902 0.108178504 0.013343459
v -0.00583902746 0.103179425 0.013343459
v -0.005935155 0.0981803462 0.013343459
v -0.006425632 0.108191632 0.015208655
v -0.00652175769 0.103192553 0.015208655
v -0.006617885 0.0981934741 0.015208655
v -0.007241223 0.108207315 0.0170138
v -0.00733734854 0.103208236 0.0170138
v -0.007433476 0.09820916 0.0170138
v -0.008181535 0.10822539 0.0187451169
v -0.00827766 0.103226319 0.0187451169
v -0.008373788 0.09822724 0.0187451169
v -0.00923658349 0.108245678 0.0203903057
v -0.009332709 0.1032466 0.0203903057
v -0.009428836 0.09824753 0.0203903057
v -0.0103949364 0.108267955 0.0219387971
v -0.010491062 0.103268877 0.0219387971
v -0.0105871893 0.0982698 0.0219387971
v -0.011644 0.108291969 0.0233819634
v -0.0117401257 0.1032929 0.0233819634
v -0.0118362531 0.09829382 0.0233819634
v -0.012970455 0.108317479 0.02471322
v -0.0130665805 0.1033184 0.02471322
v -0.0131627079 0.09831932 0.02471322
v -0.014360616 0.108344212 0.0259280466
v -0.0145528689 0.0983460546 0.0259280466
f 1 2 3
f 2 4 3
f 2 5 4
f 5 6 4
f 5 7 6
f 7 8 6
f 8 9 6
f 9 10 6
f 9 11 10
f 11 12 10
f 11 13 12
f 10 12 14
f 13 15 12
f 12 16 14
f 15 17 12
f 12 18 16
f 17 19 12
f 18 12 20
f 19 21 12
f 21 22 12
f 12 23 20
f 22 24 12
f 24 23 12
f 24 25 23
f 24 26 25
f 26 27 25
f 26 28 27
f 28 29 27
f 28 30 29
f 30 31 29
f 30 32 31
f 32 33 31
f 32 34 33
f 34 32 35
f 36 37 38
f 37 39 38
f 37 40 39
f 37 41 40
f 41 42 40
f 41 43 42
f 43 44 42
f 43 45 44
f 45 46 44
f 45 47 46
f 47 48 46
f 47 49 48
f 49 47 50
f 49 51 48
f 52 49 50
f 49 53 51
f 49 52 54
f 53 49 55
f 49 54 56
f 49 57 55
f 58 49 56
f 49 58 59
f 49 59 60
f 49 61 57
f 61 49 60
f 61 60 62
f 63 61 62
f 64 63 62
f 63 64 65
f 63 65 66
f 67 63 66
f 66 68 67
f 68 69 67
f 68 70 69
f 71 72 73
f 71 73 74
f 72 71 75
f 75 71 74
f 76 77 78
f 77 76 79
f 77 80 78
f 77 79 81
f 77 82 80
f 82 77 81
f 82 83 80
f 82 81 84
f 82 85 83
f 85 82 84
f 85 86 83
f 85 84 87
f 85 88 86
f 88 85 87
f 88 89 86
f 88 87 90
f 88 91 89
f 91 88 90
f 91 92 89
f 91 90 93
f 91 94 92
f 94 91 93
f 94 95 92
f 94 93 96
f 94 97 95
f 97 94 96
f 97 98 95
f 97 96 99
f 97 100 98
f 100 97 99
f 100 101 98
f 100 99 102
f 100 103 101
f 103 100 102
f 103 104 101
f 103 102 105
f 103 106 104
f 106 103 105
f 106 107 104
f 106 105 108
f 106 109 107
f 109 106 108
f 109 110 107
f 109 108 111
f 109 112 110
f 112 109 111
f 112 113 110
f 112 111 114
f 112 115 113
f 115 112 114
f 115 116 113
f 115 114 117
f 115 118 116
f 118 115 117
f 118 119 116
f 118 117 120
f 118 121 119
f 121 118 120
f 121 122 119
f 121 120 123
f 121 124 122
f 124 121 123
f 125 126 127
f 125 127 128
f 126 125 129
f 129 125 128
f 130 131 132
f 131 130 133
f 131 134 132
f 131 133 135
f 131 136 134
f 136 131 135
f 136 137 134
f 136 135 138
f 136 139 137
f 139 136 138
f 139 140 137
f 139 138 141
f 139 142 140
f 142 139 141
f 142 143 140
f 142 141 144
f 142 145 143
f 145 142 144
f 145 146 143
f 145 144 147
f 145 148 146
f 148 145 147
f 148 149 146
f 148 147 150
f 148 151 149
f 151 148 150
f 151 152 149
f 151 150 153
f 151 154 152
f 154 151 153
f 154 155 152
f 154 153 156
f 154 157 155
f 157 154 156
f 157 158 155
f 157 156 159
f 157 160 158
f 160 157 159
f 160 161 158
f 160 159 162
f 160 163 161
f 163 160 162
f 163 164 161
f 163 162 165
f 163 166 164
f 166 163 165
f 166 167 164
f 166 165 168
f 166 169 167
f 169 166 168
f 169 170 167
f 169 168 171
f 169 172 170
f 172 169 171
f 172 173 170
f 172 171 174
f 172 175 173
f 175 172 174
f 175 176 173
f 175 174 177
f 175 178 176
f 178 175 177
