# ROS coordinates: X forward, Y left, Z up; units are metres.
o mesh
v 0.153432772 0.0107180765 0.0224220715
v 0.153500468 0.0145458728 0.0276914015
v 0.15341188 0.009537099 0.0231012553
v 0.153389871 0.008292678 0.02370987
v 0.153366849 0.006990952 0.0242400467
v 0.153342932 0.00563927647 0.02468461
v 0.153318286 0.004246132 0.0250373185
v 0.153472438 0.0129610877 0.0286383666
v 0.153293088 0.002820965 0.0252930671
v 0.1534428 0.0112852771 0.0294887535
v 0.1532417 -8.400623E-05 0.02977439
v 0.1534117 0.009526967 0.0302309431
v 0.153267488 0.00137399847 0.02544807
v 0.153379321 0.00769653358 0.0308542922
v 0.1532417 -8.400623E-05 0.0255000014
v 0.153345883 0.00580607168 0.0313495025
v 0.153215915 -0.00154201093 0.02544807
v 0.153311625 0.003869169 0.0317089446
v 0.1532768 0.00190060446 0.03192694
v 0.1532417 -8.400623E-05 0.032
v 0.153206587 -0.002068617 0.03192694
v 0.153171778 -0.00403718138 0.0317089446
v 0.1531375 -0.005974084 0.0313495025
v 0.153104067 -0.007864546 0.0308542922
v 0.1530717 -0.00969497953 0.0302309431
v 0.153040588 -0.01145329 0.0294887535
v 0.153190315 -0.00298897736 0.0252930671
v 0.153010949 -0.0131291 0.0286383666
v 0.1531651 -0.00441414444 0.0250373185
v 0.15298292 -0.0147138853 0.0276914015
v 0.153140455 -0.005807289 0.02468461
v 0.153116554 -0.00715896441 0.0242400467
v 0.153093532 -0.00846069 0.02370987
v 0.153071523 -0.009705111 0.0231012553
v 0.153050631 -0.0108860889 0.0224220715
v 0.143052191 -0.0107092336 0.0224220715
v 0.14298448 -0.01453703 0.0276914015
v 0.143073082 -0.009528256 0.0231012553
v 0.143095091 -0.008283835 0.02370987
v 0.143118113 -0.006982109 0.0242400467
v 0.14314203 -0.00563043356 0.02468461
v 0.143166661 -0.004237289 0.0250373185
v 0.143012509 -0.0129522448 0.0286383666
v 0.143191874 -0.002812122 0.0252930671
v 0.143042162 -0.0112764342 0.0294887535
v 0.143243268 9.28491354E-05 0.02977439
v 0.143073261 -0.009518124 0.0302309431
v 0.143217474 -0.00136515556 0.02544807
v 0.143105641 -0.00768769067 0.0308542922
v 0.143243268 9.28491354E-05 0.0255000014
v 0.143139079 -0.005797229 0.0313495025
v 0.143269047 0.00155085383 0.02544807
v 0.143173337 -0.003860326 0.0317089446
v 0.143208161 -0.00189176155 0.03192694
v 0.143243268 9.28491354E-05 0.032
v 0.14327836 0.00207745982 0.03192694
v 0.143313184 0.00404602429 0.0317089446
v 0.143347442 0.005982927 0.0313495025
v 0.14338088 0.007873389 0.0308542922
v 0.143413261 0.009703822 0.0302309431
v 0.143444359 0.0114621324 0.0294887535
v 0.143294647 0.00299782027 0.0252930671
v 0.143474013 0.0131379431 0.0286383666
v 0.14331986 0.00442298735 0.0250373185
v 0.143502042 0.0147227282 0.0276914015
v 0.143344492 0.005816132 0.02468461
v 0.143368408 0.00716780731 0.0242400467
v 0.14339143 0.008469533 0.02370987
v 0.143413439 0.009713954 0.0231012553
v 0.143434331 0.0108949319 0.0224220715
v 0.148011729 -0.013040673 0.0286383666
v 0.153010949 -0.0131291 0.0286383666
v 0.153040588 -0.01145329 0.0294887535
v 0.15298292 -0.0147138853 0.0276914015
v 0.14298448 -0.01453703 0.0276914015
v 0.143012509 -0.0129522448 0.0286383666
v 0.148041382 -0.0113648623 0.0294887535
v 0.1530717 -0.00969497953 0.0302309431
v 0.143042162 -0.0112764342 0.0294887535
v 0.148072481 -0.009606552 0.0302309431
v 0.153104067 -0.007864546 0.0308542922
v 0.143073261 -0.009518124 0.0302309431
v 0.148104861 -0.00777611835 0.0308542922
v 0.1531375 -0.005974084 0.0313495025
v 0.143105641 -0.00768769067 0.0308542922
v 0.1481383 -0.00588565646 0.0313495025
v 0.153171778 -0.00403718138 0.0317089446
v 0.143139079 -0.005797229 0.0313495025
v 0.148172557 -0.0039487537 0.0317089446
v 0.153206587 -0.002068617 0.03192694
v 0.143173337 -0.003860326 0.0317089446
v 0.148207381 -0.00198018923 0.03192694
v 0.1532417 -8.400623E-05 0.032
v 0.143208161 -0.00189176155 0.03192694
v 0.148242474 4.42139572E-06 0.032
v 0.1532768 0.00190060446 0.03192694
v 0.143243268 9.28491354E-05 0.032
v 0.148277581 0.00198903214 0.03192694
v 0.153311625 0.003869169 0.0317089446
v 0.14327836 0.00207745982 0.03192694
v 0.1483124 0.00395759661 0.0317089446
v 0.153345883 0.00580607168 0.0313495025
v 0.143313184 0.00404602429 0.0317089446
v 0.148346663 0.00589449937 0.0313495025
v 0.153379321 0.00769653358 0.0308542922
v 0.143347442 0.005982927 0.0313495025
v 0.1483801 0.00778496126 0.0308542922
v 0.1534117 0.009526967 0.0302309431
v 0.14338088 0.007873389 0.0308542922
v 0.148412481 0.009615394 0.0302309431
v 0.1534428 0.0112852771 0.0294887535
v 0.143413261 0.009703822 0.0302309431
v 0.14844358 0.0113737043 0.0294887535
v 0.153472438 0.0129610877 0.0286383666
v 0.143444359 0.0114621324 0.0294887535
v 0.148473218 0.013049515 0.0286383666
v 0.153500468 0.0145458728 0.0276914015
v 0.143474013 0.0131379431 0.0286383666
v 0.143502042 0.0147227282 0.0276914015
v 0.148017555 -0.0127115594 0.0250567384
v 0.15298292 -0.0147138853 0.0276914015
v 0.14298448 -0.01453703 0.0276914015
v 0.143052191 -0.0107092336 0.0224220715
v 0.153050631 -0.0108860889 0.0224220715
v 0.14841266 0.009625526 0.0231012553
v 0.15341188 0.009537099 0.0231012553
v 0.153389871 0.008292678 0.02370987
v 0.153432772 0.0107180765 0.0224220715
v 0.143434331 0.0108949319 0.0224220715
v 0.143413439 0.009713954 0.0231012553
v 0.148390651 0.008381105 0.02370987
v 0.153366849 0.006990952 0.0242400467
v 0.14339143 0.008469533 0.02370987
v 0.148367628 0.00707937963 0.0242400467
v 0.153342932 0.00563927647 0.02468461
v 0.143368408 0.00716780731 0.0242400467
v 0.148343712 0.005727704 0.02468461
v 0.153318286 0.004246132 0.0250373185
v 0.143344492 0.005816132 0.02468461
v 0.148319066 0.00433455966 0.0250373185
v 0.153293088 0.002820965 0.0252930671
v 0.14331986 0.00442298735 0.0250373185
v 0.148293868 0.00290939258 0.0252930671
v 0.153267488 0.00137399847 0.02544807
v 0.143294647 0.00299782027 0.0252930671
v 0.148268268 0.001462426 0.02544807
v 0.1532417 -8.400623E-05 0.0255000014
v 0.143269047 0.00155085383 0.02544807
v 0.148242474 4.42139572E-06 0.0255000014
v 0.153215915 -0.00154201093 0.02544807
v 0.143243268 9.28491354E-05 0.0255000014
v 0.1482167 -0.00145358336 0.02544807
v 0.153190315 -0.00298897736 0.0252930671
v 0.143217474 -0.00136515556 0.02544807
v 0.1481911 -0.00290054968 0.0252930671
v 0.1531651 -0.00441414444 0.0250373185
v 0.143191874 -0.002812122 0.0252930671
v 0.148165882 -0.00432571676 0.0250373185
v 0.153140455 -0.005807289 0.02468461
v 0.143166661 -0.004237289 0.0250373185
v 0.14814125 -0.00571886124 0.02468461
v 0.153116554 -0.00715896441 0.0242400467
v 0.14314203 -0.00563043356 0.02468461
v 0.148117334 -0.00707053673 0.0242400467
v 0.153093532 -0.00846069 0.02370987
v 0.143118113 -0.006982109 0.0242400467
v 0.148094311 -0.008372263 0.02370987
v 0.153071523 -0.009705111 0.0231012553
v 0.143095091 -0.008283835 0.02370987
v 0.1480723 -0.009616684 0.0231012553
v 0.153050631 -0.0108860889 0.0224220715
v 0.143073082 -0.009528256 0.0231012553
v 0.143052191 -0.0107092336 0.0224220715
v 0.1484674 0.0127204014 0.0250567384
v 0.153432772 0.0107180765 0.0224220715
v 0.143434331 0.0108949319 0.0224220715
v 0.143502042 0.0147227282 0.0276914015
v 0.153500468 0.0145458728 0.0276914015
f 1 2 3
f 2 4 3
f 2 5 4
f 5 2 6
f 2 7 6
f 2 8 7
f 8 9 7
f 8 10 9
f 10 11 9
f 10 12 11
f 9 11 13
f 12 14 11
f 11 15 13
f 14 16 11
f 11 17 15
f 16 18 11
f 18 19 11
f 19 20 11
f 20 21 11
f 21 22 11
f 22 23 11
f 23 24 11
f 24 25 11
f 25 26 11
f 17 11 27
f 26 27 11
f 26 28 27
f 28 29 27
f 28 30 29
f 30 31 29
f 30 32 31
f 32 30 33
f 30 34 33
f 30 35 34
f 36 37 38
f 37 39 38
f 37 40 39
f 40 37 41
f 37 42 41
f 37 43 42
f 43 44 42
f 43 45 44
f 45 46 44
f 45 47 46
f 44 46 48
f 47 49 46
f 46 50 48
f 49 51 46
f 46 52 50
f 51 53 46
f 53 54 46
f 54 55 46
f 55 56 46
f 56 57 46
f 57 58 46
f 58 59 46
f 59 60 46
f 60 61 46
f 52 46 62
f 61 62 46
f 61 63 62
f 63 64 62
f 63 65 64
f 65 66 64
f 65 67 66
f 67 65 68
f 65 69 68
f 65 70 69
f 71 72 73
f 71 74 72
f 74 71 75
f 71 76 75
f 77 71 73
f 71 77 76
f 77 73 78
f 77 79 76
f 80 77 78
f 77 80 79
f 80 78 81
f 80 82 79
f 83 80 81
f 80 83 82
f 83 81 84
f 83 85 82
f 86 83 84
f 83 86 85
f 86 84 87
f 86 88 85
f 89 86 87
f 86 89 88
f 89 87 90
f 89 91 88
f 92 89 90
f 89 92 91
f 92 90 93
f 92 94 91
f 95 92 93
f 92 95 94
f 95 93 96
f 95 97 94
f 98 95 96
f 95 98 97
f 98 96 99
f 98 100 97
f 101 98 99
f 98 101 100
f 101 99 102
f 101 103 100
f 104 101 102
f 101 104 103
f 104 102 105
f 104 106 103
f 107 104 105
f 104 107 106
f 107 105 108
f 107 109 106
f 110 107 108
f 107 110 109
f 110 108 111
f 110 112 109
f 113 110 111
f 110 113 112
f 113 111 114
f 113 115 112
f 116 113 114
f 113 116 115
f 116 114 117
f 116 118 115
f 119 116 117
f 116 119 118
f 120 121 122
f 120 122 123
f 121 120 124
f 124 120 123
f 125 126 127
f 125 128 126
f 128 125 129
f 125 130 129
f 131 125 127
f 125 131 130
f 131 127 132
f 131 133 130
f 134 131 132
f 131 134 133
f 134 132 135
f 134 136 133
f 137 134 135
f 134 137 136
f 137 135 138
f 137 139 136
f 140 137 138
f 137 140 139
f 140 138 141
f 140 142 139
f 143 140 141
f 140 143 142
f 143 141 144
f 143 145 142
f 146 143 144
f 143 146 145
f 146 144 147
f 146 148 145
f 149 146 147
f 146 149 148
f 149 147 150
f 149 151 148
f 152 149 150
f 149 152 151
f 152 150 153
f 152 154 151
f 155 152 153
f 152 155 154
f 155 153 156
f 155 157 154
f 158 155 156
f 155 158 157
f 158 156 159
f 158 160 157
f 161 158 159
f 158 161 160
f 161 159 162
f 161 163 160
f 164 161 162
f 161 164 163
f 164 162 165
f 164 166 163
f 167 164 165
f 164 167 166
f 167 165 168
f 167 169 166
f 170 167 168
f 167 170 169
f 170 168 171
f 170 172 169
f 173 170 171
f 170 173 172
f 174 175 176
f 174 176 177
f 175 174 178
f 178 174 177
