# ROS coordinates: X forward, Y left, Z up; units are metres.
o mesh
v -0.0641350746 0.132748216 0.118
v -0.0641350746 0.132748216 0.119
v -0.06444409 0.131797165 0.119
v -0.0657574162 0.127755165 0.119
v -0.06444409 0.131797165 0.120000005
v -0.06707074 0.12371318 0.120000005
v -0.06737975 0.122762129 0.118
v -0.06707074 0.12371318 0.119
v -0.06737975 0.122762129 0.119
v -0.06887159 0.121406794 0.11500001
v -0.06454535 0.134721577 0.11500001
v 0.0200000014 0.09253067 0.11500001
v 0.0379077569 0.0898608 0.11500001
v 0.1446871 0.06673784 0.11500001
v 0.140360862 0.05342305 0.11500001
v 0.0300000012 0.08928147 0.11500001
v 0.0300000012 0.0550000034 0.11500001
v 0.0200000014 0.045 0.11500001
v 0.0286189578 0.0509028956 0.11500001
v 0.0288332775 0.05116673 0.11500001
v 0.0290971063 0.0513810478 0.11500001
v 0.0293926448 0.0515341535 0.11500001
v 0.0296997633 0.0516224578 0.11500001
v 0.0300000012 0.05165 0.11500001
v 0.0284658521 0.05060736 0.11500001
v 0.030300241 0.0516224578 0.11500001
v 0.0283775479 0.0503002442 0.11500001
v 0.0283500012 0.0500000045 0.11500001
v 0.0283775479 0.0496997647 0.11500001
v 0.0284658521 0.049392648 0.11500001
v 0.0286189578 0.0490971059 0.11500001
v 0.0306073576 0.0515341535 0.11500001
v 0.0288332775 0.0488332734 0.11500001
v 0.0290971063 0.0486189574 0.11500001
v 0.0293926448 0.048465848 0.11500001
v 0.0296997633 0.04837755 0.11500001
v 0.0300000012 0.0483500026 0.11500001
v 0.030300241 0.04837755 0.11500001
v 0.0309028961 0.0513810478 0.11500001
v 0.0500000045 0.045 0.11500001
v 0.0440971032 0.0513810478 0.11500001
v 0.0311667267 0.05116673 0.11500001
v 0.0443926454 0.0515341535 0.11500001
v 0.0438332781 0.05116673 0.11500001
v 0.044699762 0.0516224578 0.11500001
v 0.0313810445 0.0509028956 0.11500001
v 0.0500000045 0.0550000034 0.11500001
v 0.045 0.05165 0.11500001
v 0.04530024 0.0516224578 0.11500001
v 0.04560736 0.0515341535 0.11500001
v 0.04361896 0.0509028956 0.11500001
v 0.03153415 0.05060736 0.11500001
v 0.04346585 0.05060736 0.11500001
v 0.0316224545 0.0503002442 0.11500001
v 0.04337755 0.0503002442 0.11500001
v 0.03165 0.0500000045 0.11500001
v 0.0433500037 0.0500000045 0.11500001
v 0.0316224545 0.0496997647 0.11500001
v 0.04337755 0.0496997647 0.11500001
v 0.03153415 0.049392648 0.11500001
v 0.04346585 0.049392648 0.11500001
v 0.0313810445 0.0490971059 0.11500001
v 0.04361896 0.0490971059 0.11500001
v 0.0311667267 0.0488332734 0.11500001
v 0.0438332781 0.0488332734 0.11500001
v 0.0309028961 0.0486189574 0.11500001
v 0.0440971032 0.0486189574 0.11500001
v 0.0306073576 0.048465848 0.11500001
v 0.0443926454 0.048465848 0.11500001
v 0.044699762 0.04837755 0.11500001
v 0.045 0.0483500026 0.11500001
v 0.04530024 0.04837755 0.11500001
v 0.04560736 0.048465848 0.11500001
v 0.0459028967 0.0486189574 0.11500001
v 0.0461667255 0.0488332734 0.11500001
v 0.04638105 0.0490971059 0.11500001
v 0.04653416 0.049392648 0.11500001
v 0.0466224551 0.0496997647 0.11500001
v 0.0466500036 0.0500000045 0.11500001
v 0.0466224551 0.0503002442 0.11500001
v 0.04653416 0.05060736 0.11500001
v 0.04638105 0.0509028956 0.11500001
v 0.0461667255 0.05116673 0.11500001
v 0.0459028967 0.0513810478 0.11500001
v -0.06887159 0.121406794 0.11500001
v 0.0200000014 0.09253067 0.11500001
v 0.0200000014 0.09253067 0.118
v -0.06887159 0.121406794 0.120000005
v 0.0300000012 0.08928147 0.118
v 0.140360862 0.05342305 0.120000005
v 0.0357446373 0.08741491 0.117500007
v 0.0300000012 0.08928147 0.11500001
v 0.140360862 0.05342305 0.11500001
v 0.140360862 0.05342305 0.120000005
v 0.14121066 0.0560384579 0.120000005
v -0.06707074 0.12371318 0.120000005
v -0.06887159 0.121406794 0.120000005
v -0.06454535 0.134721577 0.120000005
v -0.06444409 0.131797165 0.120000005
v 0.1446871 0.06673784 0.120000005
v 0.1438373 0.06412244 0.120000005
v 0.0300000012 0.08928147 0.118
v 0.0200000014 0.09253067 0.118
v 0.0300000012 0.0550000034 0.118
v 0.0200000014 0.045 0.118
v 0.0284658521 0.05060736 0.118
v 0.0286189578 0.0509028956 0.118
v 0.0283775479 0.0503002442 0.118
v 0.0283500012 0.0500000045 0.118
v 0.0283775479 0.0496997647 0.118
v 0.0284658521 0.049392648 0.118
v 0.0286189578 0.0490971059 0.118
v 0.0288332775 0.05116673 0.118
v 0.0288332775 0.0488332734 0.118
v 0.0290971063 0.0513810478 0.118
v 0.0290971063 0.0486189574 0.118
v 0.0293926448 0.0515341535 0.118
v 0.0293926448 0.048465848 0.118
v 0.0296997633 0.0516224578 0.118
v 0.0300000012 0.05165 0.118
v 0.030300241 0.0516224578 0.118
v 0.0306073576 0.0515341535 0.118
v 0.0309028961 0.0513810478 0.118
v 0.0296997633 0.04837755 0.118
v 0.0300000012 0.0483500026 0.118
v 0.030300241 0.04837755 0.118
v 0.0311667267 0.05116673 0.118
v 0.0500000045 0.045 0.118
v 0.0313810445 0.0509028956 0.118
v 0.0306073576 0.048465848 0.118
v 0.04361896 0.0509028956 0.118
v 0.04346585 0.05060736 0.118
v 0.03153415 0.05060736 0.118
v 0.04337755 0.0503002442 0.118
v 0.0316224545 0.0503002442 0.118
v 0.0433500037 0.0500000045 0.118
v 0.03165 0.0500000045 0.118
v 0.04337755 0.0496997647 0.118
v 0.0316224545 0.0496997647 0.118
v 0.04346585 0.049392648 0.118
v 0.03153415 0.049392648 0.118
v 0.04361896 0.0490971059 0.118
v 0.0313810445 0.0490971059 0.118
v 0.0438332781 0.0488332734 0.118
v 0.0311667267 0.0488332734 0.118
v 0.0440971032 0.0486189574 0.118
v 0.0309028961 0.0486189574 0.118
v 0.0443926454 0.048465848 0.118
v 0.044699762 0.04837755 0.118
v 0.045 0.0483500026 0.118
v 0.04530024 0.04837755 0.118
v 0.04560736 0.048465848 0.118
v 0.0459028967 0.0486189574 0.118
v 0.0461667255 0.0488332734 0.118
v 0.04638105 0.0490971059 0.118
v 0.04653416 0.049392648 0.118
v 0.0466224551 0.0496997647 0.118
v 0.0466500036 0.0500000045 0.118
v 0.0500000045 0.0550000034 0.118
v 0.0466224551 0.0503002442 0.118
v 0.04653416 0.05060736 0.118
v 0.04638105 0.0509028956 0.118
v 0.0461667255 0.05116673 0.118
v 0.0459028967 0.0513810478 0.118
v 0.04560736 0.0515341535 0.118
v 0.04530024 0.0516224578 0.118
v 0.045 0.05165 0.118
v 0.044699762 0.0516224578 0.118
v 0.0443926454 0.0515341535 0.118
v 0.0440971032 0.0513810478 0.118
v 0.0438332781 0.05116673 0.118
v 0.0300000012 0.05165 0.11500001
v 0.0300000012 0.05165 0.118
v 0.0296997633 0.0516224578 0.118
v 0.0296559185 0.05161373 0.1165
v 0.0296997633 0.0516224578 0.11500001
v 0.0293926448 0.0515341535 0.118
v 0.0293926448 0.0515341535 0.11500001
v 0.0293061435 0.0514970161 0.1165
v 0.0290971063 0.0513810478 0.118
v 0.0290971063 0.0513810478 0.11500001
v 0.0289790146 0.0512961857 0.1165
v 0.0288332775 0.05116673 0.118
v 0.0288332775 0.05116673 0.11500001
v 0.02870382 0.0510209948 0.1165
v 0.0286189578 0.0509028956 0.118
v 0.0286189578 0.0509028956 0.11500001
v 0.0285029821 0.0506938621 0.1165
v 0.0284658521 0.05060736 0.118
v 0.0284658521 0.05060736 0.11500001
v 0.0283862762 0.0503440872 0.1165
v 0.0283775479 0.0503002442 0.118
v 0.0283500012 0.0500000045 0.1165
v 0.0283775479 0.0503002442 0.11500001
v 0.0283500012 0.0500000045 0.118
v 0.0283500012 0.0500000045 0.11500001
v 0.0283775479 0.0496997647 0.118
v 0.0283775479 0.0496997647 0.11500001
v 0.0283862762 0.04965592 0.1165
v 0.0284658521 0.049392648 0.118
v 0.0284658521 0.049392648 0.11500001
v 0.0284658521 0.049392648 0.1165
v 0.0285931658 0.0491378456 0.1165
v 0.0286189578 0.0490971059 0.118
v 0.0286189578 0.0490971059 0.11500001
v 0.0287663378 0.0489043 0.1165
v 0.0288332775 0.0488332734 0.118
v 0.0288332775 0.0488332734 0.11500001
v 0.0289790146 0.04870382 0.1165
v 0.0290971063 0.0486189574 0.118
v 0.0290971063 0.0486189574 0.11500001
v 0.0292210486 0.0485454462 0.1165
v 0.0293926448 0.048465848 0.118
v 0.0293926448 0.048465848 0.11500001
v 0.0294800811 0.04843406 0.1165
v 0.0296997633 0.04837755 0.118
v 0.0296997633 0.04837755 0.11500001
v 0.02974346 0.048370067 0.1165
v 0.0300000012 0.0483500026 0.118
v 0.0300000012 0.0483500026 0.11500001
v 0.030300241 0.04837755 0.118
v 0.0303440839 0.0483862758 0.1165
v 0.030300241 0.04837755 0.11500001
v 0.0306073576 0.048465848 0.118
v 0.0306073576 0.048465848 0.11500001
v 0.0306938589 0.0485029854 0.1165
v 0.0309028961 0.0486189574 0.118
v 0.0309028961 0.0486189574 0.11500001
v 0.0310209878 0.04870382 0.1165
v 0.0311667267 0.0488332734 0.118
v 0.0311667267 0.0488332734 0.11500001
v 0.0312961824 0.0489790142 0.1165
v 0.0313810445 0.0490971059 0.118
v 0.0313810445 0.0490971059 0.11500001
v 0.03149702 0.04930614 0.1165
v 0.03153415 0.049392648 0.118
v 0.03153415 0.049392648 0.11500001
v 0.0316137262 0.04965592 0.1165
v 0.0316224545 0.0496997647 0.118
v 0.03165 0.0500000045 0.1165
v 0.0316224545 0.0496997647 0.11500001
v 0.03165 0.0500000045 0.118
v 0.03165 0.0500000045 0.11500001
v 0.0316224545 0.0503002442 0.118
v 0.0316224545 0.0503002442 0.11500001
v 0.0316137262 0.0503440872 0.1165
v 0.03153415 0.05060736 0.118
v 0.03153415 0.05060736 0.11500001
v 0.03153415 0.05060736 0.1165
v 0.03140684 0.0508621559 0.1165
v 0.0313810445 0.0509028956 0.118
v 0.0313810445 0.0509028956 0.11500001
v 0.0312336646 0.05109571 0.1165
v 0.0311667267 0.05116673 0.118
v 0.0311667267 0.05116673 0.11500001
v 0.0310209878 0.0512961857 0.1165
v 0.0309028961 0.0513810478 0.118
v 0.0309028961 0.0513810478 0.11500001
v 0.0307789538 0.0514545627 0.1165
v 0.0306073576 0.0515341535 0.118
v 0.0306073576 0.0515341535 0.11500001
v 0.0305199232 0.0515659451 0.1165
v 0.030300241 0.0516224578 0.118
v 0.030300241 0.0516224578 0.11500001
v 0.0302565452 0.0516299345 0.1165
v 0.0300000012 0.05165 0.118
v 0.0300000012 0.05165 0.11500001
v 0.045 0.05165 0.11500001
v 0.045 0.05165 0.118
v 0.044699762 0.0516224578 0.118
v 0.04465592 0.05161373 0.1165
v 0.044699762 0.0516224578 0.11500001
v 0.0443926454 0.0515341535 0.118
v 0.0443926454 0.0515341535 0.11500001
v 0.0443061441 0.0514970161 0.1165
v 0.0440971032 0.0513810478 0.118
v 0.0440971032 0.0513810478 0.11500001
v 0.04397901 0.0512961857 0.1165
v 0.0438332781 0.05116673 0.118
v 0.0438332781 0.05116673 0.11500001
v 0.04370382 0.0510209948 0.1165
v 0.04361896 0.0509028956 0.118
v 0.04361896 0.0509028956 0.11500001
v 0.0435029864 0.0506938621 0.1165
v 0.04346585 0.05060736 0.118
v 0.04346585 0.05060736 0.11500001
v 0.0433862768 0.0503440872 0.1165
v 0.04337755 0.0503002442 0.118
v 0.0433500037 0.0500000045 0.1165
v 0.04337755 0.0503002442 0.11500001
v 0.0433500037 0.0500000045 0.118
v 0.0433500037 0.0500000045 0.11500001
v 0.04337755 0.0496997647 0.118
v 0.04337755 0.0496997647 0.11500001
v 0.0433862768 0.04965592 0.1165
v 0.04346585 0.049392648 0.118
v 0.04346585 0.049392648 0.11500001
v 0.04346585 0.049392648 0.1165
v 0.0435931645 0.0491378456 0.1165
v 0.04361896 0.0490971059 0.118
v 0.04361896 0.0490971059 0.11500001
v 0.0437663421 0.0489043 0.1165
v 0.0438332781 0.0488332734 0.118
v 0.0438332781 0.0488332734 0.11500001
v 0.04397901 0.04870382 0.1165
v 0.0440971032 0.0486189574 0.118
v 0.0440971032 0.0486189574 0.11500001
v 0.04422105 0.0485454462 0.1165
v 0.0443926454 0.048465848 0.118
v 0.0443926454 0.048465848 0.11500001
v 0.04448008 0.04843406 0.1165
v 0.044699762 0.04837755 0.118
v 0.044699762 0.04837755 0.11500001
v 0.04474346 0.048370067 0.1165
v 0.045 0.0483500026 0.118
v 0.045 0.0483500026 0.11500001
v 0.04530024 0.04837755 0.118
v 0.0453440845 0.0483862758 0.1165
v 0.04530024 0.04837755 0.11500001
v 0.04560736 0.048465848 0.118
v 0.04560736 0.048465848 0.11500001
v 0.04569386 0.0485029854 0.1165
v 0.0459028967 0.0486189574 0.118
v 0.0459028967 0.0486189574 0.11500001
v 0.0460209921 0.04870382 0.1165
v 0.0461667255 0.0488332734 0.118
v 0.0461667255 0.0488332734 0.11500001
v 0.0462961867 0.0489790142 0.1165
v 0.04638105 0.0490971059 0.118
v 0.04638105 0.0490971059 0.11500001
v 0.04649702 0.04930614 0.1165
v 0.04653416 0.049392648 0.118
v 0.04653416 0.049392648 0.11500001
v 0.04661373 0.04965592 0.1165
v 0.0466224551 0.0496997647 0.118
v 0.0466500036 0.0500000045 0.1165
v 0.0466224551 0.0496997647 0.11500001
v 0.0466500036 0.0500000045 0.118
v 0.0466500036 0.0500000045 0.11500001
v 0.0466224551 0.0503002442 0.118
v 0.0466224551 0.0503002442 0.11500001
v 0.04661373 0.0503440872 0.1165
v 0.04653416 0.05060736 0.118
v 0.04653416 0.05060736 0.11500001
v 0.04653416 0.05060736 0.1165
v 0.04640684 0.0508621559 0.1165
v 0.04638105 0.0509028956 0.118
v 0.04638105 0.0509028956 0.11500001
v 0.0462336652 0.05109571 0.1165
v 0.0461667255 0.05116673 0.118
v 0.0461667255 0.05116673 0.11500001
v 0.0460209921 0.0512961857 0.1165
v 0.0459028967 0.0513810478 0.118
v 0.0459028967 0.0513810478 0.11500001
v 0.0457789525 0.0514545627 0.1165
v 0.04560736 0.0515341535 0.118
v 0.04560736 0.0515341535 0.11500001
v 0.0455199219 0.0515659451 0.1165
v 0.04530024 0.0516224578 0.118
v 0.04530024 0.0516224578 0.11500001
v 0.0452565439 0.0516299345 0.1165
v 0.045 0.05165 0.118
v 0.045 0.05165 0.11500001
v 0.1438373 0.06412244 0.120000005
v 0.1438373 0.06412244 0.119
v 0.144146323 0.06507349 0.119
v 0.1446871 0.06673784 0.120000005
v 0.144146323 0.06507349 0.118
v 0.1446871 0.06673784 0.11500001
v 0.142523974 0.0600804426 0.117500007
v 0.140360862 0.05342305 0.11500001
v 0.14090164 0.0550874025 0.118
v 0.140360862 0.05342305 0.120000005
v 0.14090164 0.0550874025 0.119
v 0.14121066 0.0560384579 0.120000005
v 0.14121066 0.0560384579 0.119
v -0.06670847 0.128064185 0.117500007
v -0.06887159 0.121406794 0.11500001
v -0.06887159 0.121406794 0.120000005
v -0.06454535 0.134721577 0.120000005
v -0.06454535 0.134721577 0.11500001
v 0.0300000012 0.07214074 0.1165
v 0.0300000012 0.0550000034 0.118
v 0.0300000012 0.0550000034 0.11500001
v 0.0300000012 0.08928147 0.11500001
v 0.0300000012 0.08928147 0.118
v 0.0400000028 0.0550000034 0.1165
v 0.0500000045 0.0550000034 0.118
v 0.0500000045 0.0550000034 0.11500001
v 0.0300000012 0.0550000034 0.11500001
v 0.0300000012 0.0550000034 0.118
v 0.0500000045 0.0500000045 0.1165
v 0.0500000045 0.045 0.118
v 0.0500000045 0.045 0.11500001
v 0.0500000045 0.0550000034 0.11500001
v 0.0500000045 0.0550000034 0.118
v 0.035 0.045 0.1165
v 0.0200000014 0.045 0.118
v 0.0200000014 0.045 0.11500001
v 0.0500000045 0.045 0.11500001
v 0.0500000045 0.045 0.118
v 0.0200000014 0.0687653348 0.1165
v 0.0200000014 0.09253067 0.118
v 0.0200000014 0.09253067 0.11500001
v 0.0200000014 0.045 0.11500001
v 0.0200000014 0.045 0.118
v 0.0383832827 0.09391781 0.118
v 0.144146323 0.06507349 0.118
v -0.0641350746 0.132748216 0.118
v -0.06737975 0.122762129 0.118
v 0.14090164 0.0550874025 0.118
v 0.03676094 0.0889247656 0.118500009
v -0.06737975 0.122762129 0.118
v -0.06737975 0.122762129 0.119
v 0.14090164 0.0550874025 0.119
v 0.14090164 0.0550874025 0.118
v 0.0400056243 0.09891086 0.118500009
v 0.144146323 0.06507349 0.119
v -0.0641350746 0.132748216 0.119
v -0.0641350746 0.132748216 0.118
v 0.144146323 0.06507349 0.118
v 0.03985111 0.09843533 0.119
v 0.1438373 0.06412244 0.119
v -0.06444409 0.131797165 0.119
v -0.0641350746 0.132748216 0.119
v 0.144146323 0.06507349 0.119
v 0.039696604 0.0979597941 0.119500004
v 0.1438373 0.06412244 0.120000005
v -0.06444409 0.131797165 0.120000005
v -0.06444409 0.131797165 0.119
v 0.1438373 0.06412244 0.119
v 0.03691545 0.08940029 0.119
v -0.06737975 0.122762129 0.119
v -0.06707074 0.12371318 0.119
v 0.14121066 0.0560384579 0.119
v 0.14090164 0.0550874025 0.119
v 0.0370699577 0.08987582 0.119500004
v -0.06707074 0.12371318 0.119
v -0.06707074 0.12371318 0.120000005
v 0.14121066 0.0560384579 0.120000005
v 0.14121066 0.0560384579 0.119
v -0.06454535 0.134721577 0.120000005
v 0.0400708765 0.100729719 0.117500007
v -0.06454535 0.134721577 0.11500001
v 0.1446871 0.06673784 0.120000005
v 0.1446871 0.06673784 0.11500001
f 1 2 3
f 4 1 3
f 4 3 5
f 6 4 5
f 1 4 7
f 4 6 8
f 4 8 7
f 7 8 9
f 10 11 12
f 11 13 12
f 11 14 13
f 14 15 13
f 15 16 13
f 16 12 13
f 16 17 12
f 17 18 12
f 17 19 18
f 19 17 20
f 17 21 20
f 17 22 21
f 22 17 23
f 17 24 23
f 19 25 18
f 17 26 24
f 25 27 18
f 27 28 18
f 28 29 18
f 29 30 18
f 30 31 18
f 26 17 32
f 31 33 18
f 33 34 18
f 34 35 18
f 35 36 18
f 36 37 18
f 37 38 18
f 17 39 32
f 38 40 18
f 41 39 17
f 41 42 39
f 43 41 17
f 41 44 42
f 45 43 17
f 44 46 42
f 45 17 47
f 48 45 47
f 49 48 47
f 50 49 47
f 44 51 46
f 51 52 46
f 51 53 52
f 53 54 52
f 53 55 54
f 55 56 54
f 55 57 56
f 57 58 56
f 57 59 58
f 59 60 58
f 59 61 60
f 61 62 60
f 61 63 62
f 63 64 62
f 63 65 64
f 65 66 64
f 65 67 66
f 67 68 66
f 67 69 68
f 69 38 68
f 69 70 38
f 38 70 40
f 70 71 40
f 71 72 40
f 72 73 40
f 73 74 40
f 74 75 40
f 75 76 40
f 76 77 40
f 77 78 40
f 78 79 40
f 79 47 40
f 79 80 47
f 80 81 47
f 81 82 47
f 82 83 47
f 83 84 47
f 84 50 47
f 85 86 87
f 88 85 87
f 88 87 89
f 90 88 89
f 89 91 90
f 92 91 89
f 91 93 90
f 91 92 93
f 94 95 96
f 97 94 96
f 98 97 96
f 98 96 99
f 100 98 99
f 100 99 101
f 102 103 104
f 103 105 104
f 105 106 104
f 107 104 106
f 105 108 106
f 108 105 109
f 105 110 109
f 105 111 110
f 111 105 112
f 104 107 113
f 105 114 112
f 104 113 115
f 105 116 114
f 117 104 115
f 116 105 118
f 104 117 119
f 104 119 120
f 121 104 120
f 104 121 122
f 104 122 123
f 105 124 118
f 105 125 124
f 125 105 126
f 127 104 123
f 105 128 126
f 104 127 129
f 128 130 126
f 104 129 131
f 131 129 132
f 129 133 132
f 133 134 132
f 133 135 134
f 135 136 134
f 135 137 136
f 137 138 136
f 137 139 138
f 139 140 138
f 139 141 140
f 141 142 140
f 141 143 142
f 143 144 142
f 143 145 144
f 145 146 144
f 146 145 147
f 146 147 130
f 148 146 130
f 128 148 130
f 148 128 149
f 128 150 149
f 128 151 150
f 151 128 152
f 128 153 152
f 128 154 153
f 154 128 155
f 128 156 155
f 128 157 156
f 157 128 158
f 128 159 158
f 159 160 158
f 159 161 160
f 161 159 162
f 159 163 162
f 159 164 163
f 164 159 165
f 159 166 165
f 166 159 167
f 159 168 167
f 159 169 168
f 159 104 169
f 104 170 169
f 104 171 170
f 171 104 131
f 172 173 174
f 172 174 175
f 176 172 175
f 175 174 177
f 178 176 175
f 179 175 177
f 178 175 179
f 179 177 180
f 181 178 179
f 182 179 180
f 181 179 182
f 182 180 183
f 184 181 182
f 185 182 183
f 184 182 185
f 185 183 186
f 187 184 185
f 188 185 186
f 187 185 188
f 188 186 189
f 190 187 188
f 191 188 189
f 190 188 191
f 191 189 192
f 193 191 192
f 194 190 191
f 194 191 193
f 193 192 195
f 196 194 193
f 197 193 195
f 198 196 193
f 199 193 197
f 198 193 199
f 200 199 197
f 201 198 199
f 202 199 200
f 202 201 199
f 203 202 200
f 202 203 201
f 203 200 204
f 203 205 201
f 206 203 204
f 203 206 205
f 206 204 207
f 206 208 205
f 209 206 207
f 206 209 208
f 209 207 210
f 209 211 208
f 212 209 210
f 209 212 211
f 212 210 213
f 212 214 211
f 215 212 213
f 212 215 214
f 215 213 216
f 215 217 214
f 218 215 216
f 215 218 217
f 218 216 219
f 217 218 220
f 218 219 220
f 219 221 220
f 221 222 220
f 220 222 223
f 221 224 222
f 222 225 223
f 224 226 222
f 222 226 225
f 224 227 226
f 226 228 225
f 227 229 226
f 226 229 228
f 227 230 229
f 229 231 228
f 230 232 229
f 229 232 231
f 230 233 232
f 232 234 231
f 233 235 232
f 232 235 234
f 233 236 235
f 235 237 234
f 236 238 235
f 235 238 237
f 236 239 238
f 239 240 238
f 238 241 237
f 238 240 241
f 239 242 240
f 240 243 241
f 242 244 240
f 240 245 243
f 244 246 240
f 240 246 245
f 244 247 246
f 246 248 245
f 247 249 246
f 246 249 248
f 247 250 249
f 250 248 249
f 251 250 247
f 250 252 248
f 253 250 251
f 250 253 252
f 254 253 251
f 253 255 252
f 256 253 254
f 253 256 255
f 257 256 254
f 256 258 255
f 259 256 257
f 256 259 258
f 260 259 257
f 259 261 258
f 262 259 260
f 259 262 261
f 263 262 260
f 262 264 261
f 265 262 263
f 262 265 264
f 266 265 263
f 265 267 264
f 265 266 267
f 268 269 270
f 268 270 271
f 272 268 271
f 271 270 273
f 274 272 271
f 275 271 273
f 274 271 275
f 275 273 276
f 277 274 275
f 278 275 276
f 277 275 278
f 278 276 279
f 280 277 278
f 281 278 279
f 280 278 281
f 281 279 282
f 283 280 281
f 284 281 282
f 283 281 284
f 284 282 285
f 286 283 284
f 287 284 285
f 286 284 287
f 287 285 288
f 289 287 288
f 290 286 287
f 290 287 289
f 289 288 291
f 292 290 289
f 293 289 291
f 294 292 289
f 295 289 293
f 294 289 295
f 296 295 293
f 297 294 295
f 298 295 296
f 298 297 295
f 299 298 296
f 298 299 297
f 299 296 300
f 299 301 297
f 302 299 300
f 299 302 301
f 302 300 303
f 302 304 301
f 305 302 303
f 302 305 304
f 305 303 306
f 305 307 304
f 308 305 306
f 305 308 307
f 308 306 309
f 308 310 307
f 311 308 309
f 308 311 310
f 311 309 312
f 311 313 310
f 314 311 312
f 311 314 313
f 314 312 315
f 313 314 316
f 314 315 316
f 315 317 316
f 317 318 316
f 316 318 319
f 317 320 318
f 318 321 319
f 320 322 318
f 318 322 321
f 320 323 322
f 322 324 321
f 323 325 322
f 322 325 324
f 323 326 325
f 325 327 324
f 326 328 325
f 325 328 327
f 326 329 328
f 328 330 327
f 329 331 328
f 328 331 330
f 329 332 331
f 331 333 330
f 332 334 331
f 331 334 333
f 332 335 334
f 335 336 334
f 334 337 333
f 334 336 337
f 335 338 336
f 336 339 337
f 338 340 336
f 336 341 339
f 340 342 336
f 336 342 341
f 340 343 342
f 342 344 341
f 343 345 342
f 342 345 344
f 343 346 345
f 346 344 345
f 347 346 343
f 346 348 344
f 349 346 347
f 346 349 348
f 350 349 347
f 349 351 348
f 352 349 350
f 349 352 351
f 353 352 350
f 352 354 351
f 355 352 353
f 352 355 354
f 356 355 353
f 355 357 354
f 358 355 356
f 355 358 357
f 359 358 356
f 358 360 357
f 361 358 359
f 358 361 360
f 362 361 359
f 361 363 360
f 361 362 363
f 364 365 366
f 367 364 366
f 367 366 368
f 369 367 368
f 369 368 370
f 371 369 370
f 372 370 368
f 370 372 371
f 372 373 371
f 372 374 373
f 374 375 373
f 374 376 375
f 377 378 379
f 377 379 380
f 378 377 381
f 381 377 380
f 382 383 384
f 382 384 385
f 383 382 386
f 386 382 385
f 387 388 389
f 387 389 390
f 388 387 391
f 391 387 390
f 392 393 394
f 392 394 395
f 393 392 396
f 396 392 395
f 397 398 399
f 397 399 400
f 398 397 401
f 401 397 400
f 402 403 404
f 402 404 405
f 403 402 406
f 406 402 405
f 407 408 409
f 407 409 410
f 408 407 411
f 411 407 410
f 412 413 414
f 415 412 414
f 412 416 413
f 416 412 415
f 417 418 419
f 417 419 420
f 418 417 421
f 421 417 420
f 422 423 424
f 422 424 425
f 423 422 426
f 426 422 425
f 427 428 429
f 427 429 430
f 428 427 431
f 431 427 430
f 432 433 434
f 435 432 434
f 432 436 433
f 436 432 435
f 437 438 439
f 440 437 439
f 437 441 438
f 441 437 440
f 442 443 444
f 445 443 442
f 443 446 444
f 443 445 446
