# ROS coordinates: X forward, Y left, Z up; units are metres.
o mesh
v -0.101043724 0.07118937 0.04844359
v -0.101481237 0.0714314058 0.04844359
v -0.101366274 0.07163921 0.048448775
v -0.101130523 0.07154891 0.0484458469
v -0.100928761 0.07139717 0.048448775
v -0.101246081 0.07185647 0.048407007
v -0.100808568 0.07161443 0.048407007
v -0.100992948 0.0717975944 0.0483856462
v -0.101127483 0.07207085 0.04831348
v -0.10068997 0.07182881 0.04831348
v -0.100860313 0.07203734 0.04825757
v -0.101018265 0.07226828 0.048169218
v -0.100580752 0.07202624 0.048169218
v -0.100744165 0.0722473 0.048066657
v -0.100925669 0.07243565 0.0479817726
v -0.100488156 0.07219361 0.0479817726
v -0.100653946 0.07241036 0.0478284657
v -0.1008549 0.0725635663 0.04776406
v -0.10041739 0.07232153 0.04776406
v -0.10059464 0.0725175738 0.04756505
v -0.100808196 0.07264799 0.0475315042
v -0.100566052 0.07256925 0.0472989269
v -0.100370683 0.07240595 0.0475315042
v -0.100784808 0.07269027 0.0472989269
v -0.100347295 0.07244823 0.0472989269
v -0.1007823 0.0726948 0.04706144
v -0.100344792 0.07245276 0.04706144
v -0.100564957 0.07257122 0.0470263325
v -0.100802511 0.07265826 0.0468131527
v -0.100365 0.07241622 0.0468131527
v -0.100583754 0.07253724 0.0468131527
v -0.100621015 0.07246989 0.04660235
v -0.100847788 0.07257642 0.0465681553
v -0.100410283 0.07233438 0.0465681553
v -0.100676566 0.07236948 0.0464040861
v -0.10091763 0.07245018 0.04634253
v -0.100480117 0.0722081438 0.04634253
v -0.100748517 0.07223943 0.0462282039
v -0.101008363 0.07228617 0.04615125
v -0.10057085 0.0720441341 0.04615125
v -0.100833409 0.07208598 0.04608266
v -0.101113752 0.07209566 0.0460050665
v -0.100676239 0.07185362 0.0460050665
v -0.100926764 0.07191723 0.0459723845
v -0.10122633 0.07189217 0.045908574
v -0.100788817 0.07165013 0.045908574
v -0.101023808 0.0717418045 0.0458988249
v -0.101338916 0.07168866 0.0458602645
v -0.10090141 0.07144662 0.0458602645
v -0.101453885 0.07148085 0.04585508
v -0.101252116 0.07132912 0.0458580069
v -0.101016372 0.07123881 0.04585508
v -0.101574071 0.0712636 0.0458968468
v -0.101136558 0.07102156 0.0458968468
v -0.101389691 0.07108043 0.0459182076
v -0.101692669 0.07104922 0.04599037
v -0.101255156 0.0708071738 0.04599037
v -0.101522326 0.070840694 0.0460462831
v -0.101801895 0.07085179 0.04613464
v -0.101364382 0.07060975 0.04613464
v -0.101638474 0.07063074 0.0462371968
v -0.101894483 0.07068442 0.0463220775
v -0.10145697 0.07044238 0.0463220775
v -0.101728693 0.0704676658 0.0464753844
v -0.101965249 0.07055651 0.0465397947
v -0.101527736 0.07031446 0.0465397947
v -0.101788 0.07036045 0.0467388
v -0.102011956 0.07047208 0.04677235
v -0.101816587 0.0703087747 0.0470049269
v -0.101574451 0.07023003 0.04677235
v -0.102035344 0.0704297945 0.0470049269
v -0.101597831 0.0701877549 0.0470049269
v -0.102037854 0.0704252645 0.0472424142
v -0.101600341 0.070183225 0.0472424142
v -0.101817682 0.07030681 0.0472775176
v -0.102017641 0.07046181 0.0474907
v -0.101580128 0.07021977 0.0474907
v -0.101798885 0.07034079 0.0474907
v -0.101761624 0.07040813 0.0477015041
v -0.101972364 0.07054365 0.0477356948
v -0.101534851 0.0703016 0.0477356948
v -0.101706073 0.07050855 0.0478997678
v -0.10190253 0.07066988 0.04796133
v -0.101465017 0.070427835 0.04796133
v -0.101634122 0.0706386 0.04807565
v -0.101811789 0.07083389 0.0481526
v -0.101374283 0.07059185 0.0481526
v -0.101549238 0.07079205 0.048221197
v -0.1017064 0.0710244 0.0482987873
v -0.101268888 0.07078236 0.0482987873
v -0.101455882 0.0709608 0.04833147
v -0.10159383 0.0712278858 0.04839528
v -0.101156317 0.0709858462 0.04839528
v -0.101358831 0.07113622 0.0484050252
v -0.101481237 0.0714314058 0.04844359
v -0.101043724 0.07118937 0.04844359
v -0.09784694 0.0769678652 0.05674356
v -0.09828445 0.0772099048 0.05674356
v -0.09816949 0.07741771 0.0567487478
v -0.09793374 0.0773274153 0.056745816
v -0.09773198 0.07717567 0.0567487478
v -0.0980493 0.07763496 0.05670698
v -0.0976117849 0.07739292 0.05670698
v -0.0977961645 0.07757609 0.05668562
v -0.0979307 0.07784934 0.0566134565
v -0.09749319 0.0776073039 0.0566134565
v -0.09766354 0.07781583 0.05655754
v -0.0978214741 0.07804678 0.0564691871
v -0.09738396 0.07780474 0.0564691871
v -0.09754738 0.07802579 0.0563666336
v -0.0977288857 0.0782141462 0.05628175
v -0.09729137 0.07797211 0.05628175
v -0.09745716 0.07818887 0.05612844
v -0.09765812 0.0783420652 0.0560640357
v -0.09722061 0.0781000257 0.0560640357
v -0.09739786 0.07829607 0.0558650233
v -0.09761141 0.07842649 0.055831477
v -0.09736927 0.07834775 0.055598896
v -0.0971739 0.07818445 0.055831477
v -0.097588025 0.07846877 0.055598896
v -0.09715051 0.07822673 0.055598896
v -0.0975855142 0.0784733 0.05536141
v -0.097148 0.07823126 0.05536141
v -0.09736818 0.07834972 0.05532631
v -0.0976057351 0.07843676 0.0551131256
v -0.09716822 0.07819472 0.0551131256
v -0.09738698 0.0783157349 0.0551131256
v -0.09742423 0.0782484 0.05490232
v -0.0976510048 0.07835492 0.05486813
v -0.09721349 0.07811288 0.05486813
v -0.09747978 0.07814798 0.0547040626
v -0.09772085 0.07822868 0.0546425022
v -0.09728333 0.07798664 0.0546425022
v -0.09755173 0.07801792 0.0545281768
v -0.09781158 0.0780646652 0.0544512235
v -0.09737407 0.0778226256 0.0544512235
v -0.0976366252 0.0778644755 0.05438263
v -0.0979169756 0.07787416 0.0543050356
v -0.09747946 0.07763212 0.0543050356
v -0.09772998 0.07769573 0.0542723574
v -0.09802955 0.07767068 0.05420855
v -0.09759203 0.07742864 0.05420855
v -0.0978270248 0.0775203 0.0541988
v -0.09814213 0.07746716 0.0541602336
v -0.09770462 0.07722512 0.0541602336
v -0.0982570946 0.0772593543 0.05415505
v -0.09805533 0.07710762 0.0541579835
v -0.09781958 0.0770173147 0.05415505
v -0.09837729 0.0770420954 0.0541968159
v -0.0979397744 0.0768000558 0.0541968159
v -0.0981929153 0.07685892 0.05421818
v -0.0984958857 0.07682772 0.0542903431
v -0.09805837 0.07658568 0.0542903431
v -0.09832554 0.07661919 0.054346256
v -0.09860511 0.07663029 0.05443461
v -0.0981676 0.07638825 0.05443461
v -0.09844169 0.0764092356 0.0545371659
v -0.0986977 0.0764629245 0.05462205
v -0.09826019 0.0762208849 0.05462205
v -0.09853191 0.0762461647 0.05477536
v -0.0987684652 0.076335 0.0548397675
v -0.09833096 0.07609296 0.0548397675
v -0.09859122 0.07613894 0.0550387762
v -0.09881517 0.07625057 0.05507232
v -0.0986198038 0.07608727 0.0553048961
v -0.09837766 0.07600853 0.05507232
v -0.09883857 0.07620829 0.0553048961
v -0.0984010547 0.0759662539 0.0553048961
v -0.09884107 0.07620376 0.0555423871
v -0.09840356 0.0759617239 0.0555423871
v -0.0986209 0.0760853 0.05557749
v -0.09882086 0.0762403 0.0557906739
v -0.0983833447 0.07599826 0.0557906739
v -0.0986021 0.07611929 0.0557906739
v -0.09856484 0.0761866346 0.05600148
v -0.09877558 0.0763221458 0.05603567
v -0.09833807 0.0760801062 0.05603567
v -0.09850929 0.0762870461 0.05619974
v -0.09870574 0.07644838 0.0562612973
v -0.09826823 0.07620634 0.0562612973
v -0.09843734 0.076417096 0.05637562
v -0.0986150056 0.0766124 0.0564525761
v -0.09817749 0.07637036 0.0564525761
v -0.09835245 0.07657055 0.0565211661
v -0.09850962 0.0768029 0.05659876
v -0.0980721042 0.07656086 0.05659876
v -0.0982591 0.0767393 0.05663144
v -0.09839704 0.07700639 0.05669525
v -0.0979595259 0.07676435 0.05669525
v -0.09816205 0.07691472 0.0567049943
v -0.09828445 0.0772099048 0.05674356
v -0.09784694 0.0769678652 0.05674356
v -0.09382909 0.08423053 0.05013974
v -0.0942666 0.08447257 0.05013974
v -0.09415163 0.0846803859 0.0501449257
v -0.09391589 0.08459007 0.0501419939
v -0.09371412 0.08443835 0.0501449257
v -0.09403144 0.08489764 0.0501031578
v -0.0935939252 0.0846556 0.0501031578
v -0.0937783048 0.08483876 0.0500817969
v -0.09391284 0.08511202 0.05000963
v -0.09347533 0.08486998 0.05000963
v -0.09364568 0.08507851 0.0499537177
v -0.09380362 0.0853094459 0.049865365
v -0.09336611 0.08506741 0.049865365
v -0.09352952 0.08528846 0.04976281
v -0.093711026 0.0854768157 0.0496779233
v -0.09327351 0.0852347761 0.0496779233
v -0.09343931 0.08545153 0.0495246165
v -0.09364026 0.0856047347 0.0494602062
v -0.0932027549 0.0853626952 0.0494602062
v -0.09338 0.08555875 0.0492612
v -0.09359355 0.0856891647 0.0492276549
v -0.09335141 0.08561042 0.0489950739
v -0.09315604 0.0854471251 0.0492276549
v -0.0935701653 0.08573143 0.0489950739
v -0.09313266 0.08548939 0.0489950739
v -0.0935676545 0.08573598 0.0487575866
v -0.09313015 0.08549394 0.0487575866
v -0.09335032 0.0856123939 0.0487224869
v -0.0935878754 0.0856994241 0.0485093
v -0.09315036 0.0854573846 0.0485093
v -0.09336912 0.08557841 0.0485093
v -0.09340638 0.08551106 0.0482984968
v -0.0936331451 0.0856175944 0.048264306
v -0.09319563 0.0853755549 0.048264306
v -0.09346193 0.08541065 0.0481002368
v -0.09370299 0.08549135 0.0480386764
v -0.0932654738 0.08524931 0.0480386764
v -0.09353387 0.0852806 0.04792435
v -0.09379372 0.08532734 0.0478474
v -0.09335621 0.0850853 0.0478474
v -0.0936187655 0.0851271451 0.0477788076
v -0.0938991159 0.08513683 0.0477012135
v -0.0934616 0.08489479 0.0477012135
v -0.09371212 0.0849584 0.0476685353
v -0.09401169 0.08493334 0.0476047248
v -0.0935741737 0.0846913 0.0476047248
v -0.09380917 0.08478297 0.0475949757
v -0.09412428 0.08472983 0.04755641
v -0.09368677 0.08448779 0.04755641
v -0.09423924 0.0845220238 0.0475512259
v -0.09403747 0.0843702853 0.0475541539
v -0.09380173 0.0842799842 0.0475512259
v -0.09435943 0.0843047649 0.0475929938
v -0.09392192 0.0840627253 0.0475929938
v -0.0941750556 0.0841216 0.0476143546
v -0.094478026 0.08409039 0.04768652
v -0.09404051 0.08384835 0.04768652
v -0.09430768 0.083881855 0.0477424338
v -0.09458725 0.08389296 0.0478307866
v -0.09414974 0.08365092 0.0478307866
v -0.09442384 0.0836719 0.0479333438
v -0.09467985 0.08372559 0.04801823
v -0.0942423344 0.08348355 0.04801823
v -0.09451405 0.0835088342 0.04817153
v -0.09475061 0.083597675 0.04823594
v -0.0943131 0.0833556354 0.04823594
v -0.09457336 0.08340162 0.04843495
v -0.09479732 0.083513245 0.0484684967
v -0.09460195 0.08334994 0.048701074
v -0.09435981 0.0832712054 0.0484684967
v -0.09482071 0.08347096 0.048701074
v -0.094383195 0.08322892 0.048701074
v -0.09482321 0.08346643 0.048938565
v -0.0943857059 0.08322439 0.048938565
v -0.09460304 0.0833479762 0.04897367
v -0.094803 0.08350298 0.0491868481
v -0.094365485 0.08326094 0.0491868481
v -0.09458424 0.08338196 0.0491868481
v -0.09454698 0.0834493041 0.0493976548
v -0.09475772 0.0835848153 0.04943185
v -0.0943202153 0.0833427757 0.04943185
v -0.09449144 0.0835497156 0.0495959148
v -0.09468789 0.08371105 0.0496574752
v -0.09425037 0.08346901 0.0496574752
v -0.09441949 0.0836797655 0.0497717969
v -0.0945971459 0.08387507 0.049848754
v -0.09415964 0.08363303 0.049848754
v -0.0943345949 0.08383322 0.04991734
v -0.09449176 0.08406557 0.0499949381
v -0.0940542445 0.08382353 0.0499949381
v -0.09424124 0.0840019658 0.05002762
v -0.09437919 0.08426906 0.0500914268
v -0.09394167 0.08402702 0.0500914268
v -0.09414419 0.08417739 0.0501011722
v -0.0942666 0.08447257 0.05013974
v -0.09382909 0.08423053 0.05013974
v -0.108208373 0.0613372177 0.03427478
v -0.106895842 0.0606110953 0.03427478
v -0.107179493 0.06009837 0.036533162
v -0.107855238 0.0604262128 0.0367461853
v -0.108492024 0.06082449 0.036533162
v -0.10732986 0.0598265566 0.0389338732
v -0.1086424 0.06055268 0.0389338732
v -0.107997663 0.06016876 0.0393819138
v -0.107329 0.0598281063 0.0414265431
v -0.108641542 0.06055423 0.0414265431
v -0.107957058 0.0602421649 0.04211443
v -0.107165113 0.06012436 0.0439495556
v -0.108477645 0.0608504824 0.0439495556
v -0.107720338 0.0606700554 0.04486124
v -0.106834419 0.06072212 0.04643428
v -0.108146951 0.06144824 0.04643428
v -0.10745246 0.0611542724 0.0466558263
v -0.107099488 0.0617923029 0.04838979
v -0.106342264 0.0616117381 0.0488107949
v -0.107654795 0.06233786 0.0488107949
v -0.106666796 0.0625744462 0.050037913
v -0.1057029 0.06276745 0.0510143042
v -0.107015431 0.06349357 0.0510143042
v -0.106161974 0.0634869561 0.0515778027
v -0.104938187 0.0641497448 0.05299086
v -0.106250726 0.06487586 0.05299086
v -0.105594456 0.0645128042 0.05299086
v -0.104974948 0.06563262 0.05426294
v -0.104075283 0.06570953 0.05470157
v -0.105387814 0.06643565 0.05470157
v -0.104314856 0.06682579 0.0553847067
v -0.103143848 0.06739318 0.0561244637
v -0.104456387 0.0681193 0.0561244637
v -0.103625737 0.06807145 0.056351576
v -0.102168545 0.06915614 0.0572589748
v -0.103481084 0.0698822662 0.0572589748
v -0.1029162 0.0693540052 0.05716602
v -0.102162071 0.07071717 0.0578582846
v -0.101110049 0.07106948 0.05815706
v -0.10242258 0.0717956 0.05815706
v -0.101359233 0.07216839 0.05842113
v -0.09996642 0.0731366947 0.0587932132
v -0.101278961 0.07386281 0.0587932132
v -0.100515246 0.07369396 0.05883651
v -0.0996396244 0.07527675 0.0590888821
v -0.0987607762 0.07531602 0.0591250062
v -0.100073308 0.07604214 0.0591250062
v -0.0987435 0.07689658 0.05916624
v -0.09752222 0.07755482 0.0591221564
v -0.09883476 0.07828095 0.0591221564
v -0.09783929 0.07853103 0.05906104
v -0.09628385 0.0797933 0.05877078
v -0.09759639 0.0805194154 0.05877078
v -0.09694012 0.0801563561 0.05877078
v -0.09595506 0.0819369555 0.05822957
v -0.09507999 0.08196941 0.0580757819
v -0.09639252 0.08269553 0.0580757819
v -0.09501071 0.08364396 0.05747183
v -0.0939430445 0.08402454 0.05706085
v -0.0952555761 0.08475066 0.05706085
v -0.09412296 0.08524865 0.0565170273
v -0.09290072 0.08590864 0.0557659157
v -0.0942132547 0.08663476 0.0557659157
v -0.09330495 0.08672729 0.055390656
v -0.0919739 0.08758396 0.054242678
v -0.09328644 0.08831008 0.054242678
v -0.09256652 0.08806207 0.05412234
v -0.0919140056 0.08924155 0.05274381
v -0.0911756158 0.08902694 0.05254906
v -0.0924881548 0.08975306 0.05254906
v -0.09134641 0.09026753 0.0512758158
v -0.09049917 0.09024968 0.050706856
v -0.0918117 0.0909758061 0.050706856
v -0.09084115 0.0911808461 0.049661234
v -0.0899185 0.0912992954 0.0486361049
v -0.09123104 0.0920254141 0.0486361049
v -0.0905170962 0.0917666 0.04839251
v -0.0902356058 0.09227542 0.047052
v -0.08945612 0.0921351 0.04635757
v -0.09076865 0.09286122 0.04635757
v -0.0900016 0.09269841 0.04564872
v -0.0891350061 0.09271553 0.0439157933
v -0.0904475451 0.09344166 0.0439157933
v -0.08981938 0.0930278 0.04419346
v -0.08969247 0.09325719 0.0426985919
v -0.0889726058 0.0930091 0.04136877
v -0.09028514 0.09373522 0.04136877
v -0.08962347 0.09338191 0.04117773
v -0.08961391 0.09339921 0.03964537
v -0.0889785662 0.0929983258 0.03878395
v -0.0902911 0.0937244445 0.03878395
v -0.0896641538 0.09330838 0.0381163955
v -0.08915351 0.09268209 0.0362324938
v -0.0904660448 0.09340821 0.0362324938
v -0.08977343 0.09311085 0.036605645
v -0.08993985 0.09281005 0.0351274051
v -0.0894888639 0.0920759141 0.0337829329
v -0.0908013955 0.09280203 0.0337829329
v -0.09016044 0.0924113 0.0336949937
v -0.09043136 0.09192158 0.032320343
v -0.0899679661 0.09120989 0.0314951725
v -0.0912805 0.0919360146 0.0314951725
v -0.09074802 0.0913491845 0.0310137533
v -0.09056811 0.0901250541 0.029416021
v -0.09188065 0.09085118 0.029416021
v -0.0911052749 0.09070341 0.0297836587
v -0.09149763 0.08999419 0.0286365487
v -0.09126315 0.08886871 0.0275769569
v -0.0925756842 0.08959483 0.0275769569
v -0.09878016 0.07837963 0.0240009315
v -0.09913945 0.07773018 0.02404933
v -0.09858033 0.07874085 0.0241221711
v -0.09969929 0.07671822 0.02409295
v -0.09785149 0.08005829 0.0240607783
v -0.09758436 0.08054116 0.0245495439
v -0.09692214 0.0817382 0.0242756084
v -0.09708266 0.081448026 0.0249210447
v -0.0965885147 0.0823412538 0.02540309
v -0.09600118 0.08340291 0.0246456116
v -0.09611019 0.08320587 0.0259959213
v -0.0950976759 0.08503608 0.0251679122
v -0.0956561938 0.08402651 0.02669628
v -0.09523479 0.08478823 0.0274972431
v -0.09422035 0.08662195 0.025836695
v -0.0948535353 0.0854774 0.0283883475
v -0.09337727 0.0881459 0.0266433768
v -0.09451887 0.08608234 0.0293560252
v -0.0925756842 0.08959483 0.0275769569
v -0.09423575 0.08659411 0.0303842761
v -0.09188065 0.09085118 0.029416021
v -0.0940074 0.08700687 0.0314555056
v -0.0938352346 0.08731807 0.0325515531
v -0.0912805 0.0919360146 0.0314951725
v -0.0937188938 0.08752836 0.0336545669
v -0.0908013955 0.09280203 0.0337829329
v -0.09365639 0.08764135 0.0347479247
v -0.0904660448 0.09340821 0.0362324938
v -0.09367859 0.08760122 0.0368487947
v -0.0902911 0.0937244445 0.03878395
v -0.09388548 0.0872272551 0.0389062352
v -0.09028514 0.09373522 0.04136877
v -0.094065316 0.08690218 0.03994262
v -0.09429866 0.08648039 0.04096343
v -0.0904475451 0.09344166 0.0439157933
v -0.09458564 0.08596164 0.041951526
v -0.09076865 0.09286122 0.04635757
v -0.09492467 0.0853488147 0.0428893752
v -0.09123104 0.0920254141 0.0486361049
v -0.0953124 0.08464795 0.0437599048
v -0.0918117 0.0909758061 0.050706856
v -0.09574377 0.08386822 0.0445474945
v -0.0924881548 0.08975306 0.05254906
v -0.0962122 0.08302147 0.04523884
v -0.09328644 0.08831008 0.054242678
v -0.09670996 0.08212173 0.04582371
v -0.0942132547 0.08663476 0.0557659157
v -0.09722852 0.08118438 0.0462954231
v -0.0952555761 0.08475066 0.05706085
v -0.0977591 0.08022531 0.04665106
v -0.09639252 0.08269553 0.0580757819
v -0.09829304 0.07926015 0.0468914025
v -0.09759639 0.0805194154 0.05877078
v -0.09882232 0.07830343 0.04702052
v -0.09883476 0.07828095 0.0591221564
v -0.09983931 0.07646512 0.0469746552
v -0.100073308 0.07604214 0.0591250062
v -0.101278961 0.07386281 0.0587932132
v -0.100781076 0.07476279 0.04658084
v -0.10242258 0.0717956 0.05815706
v -0.103481084 0.0698822662 0.0572589748
v -0.101721108 0.07306359 0.0458118059
v -0.104456387 0.0681193 0.0561244637
v -0.105387814 0.06643565 0.05470157
v -0.106250726 0.06487586 0.05299086
v -0.102607392 0.071461536 0.0446582474
v -0.107015431 0.06349357 0.0510143042
v -0.103386179 0.0700538158 0.0431522243
v -0.107654795 0.06233786 0.0488107949
v -0.108146951 0.06144824 0.04643428
v -0.104011595 0.0689233 0.04136699
v -0.108477645 0.0608504824 0.0439495556
v -0.108641542 0.06055423 0.0414265431
v -0.104454249 0.06812316 0.0394057147
v -0.1086424 0.06055268 0.0389338732
v -0.104705483 0.06766904 0.0373825952
v -0.108492024 0.06082449 0.036533162
v -0.1047763 0.0675410256 0.0354030579
v -0.108208373 0.0613372177 0.03427478
v -0.107444637 0.06271774 0.0322514661
v -0.104681283 0.06771278 0.03342785
v -0.106564187 0.06430925 0.0303765349
v -0.104405373 0.0682115 0.03141849
v -0.105577886 0.06609209 0.0286913887
v -0.10393887 0.06905477 0.0294809565
v -0.104501016 0.06803863 0.02723243
v -0.1032918 0.0702244043 0.0277289525
v -0.1033526 0.07011451 0.0260286443
v -0.102494836 0.07166499 0.0262640715
v -0.102154255 0.07228062 0.02509968
v -0.101594716 0.07329205 0.0251571685
v -0.100928895 0.0744955838 0.0244548321
v -0.100645579 0.0750077143 0.0244374648
v -0.0996163562 0.0737694651 0.0244548321
v -0.09933304 0.07428159 0.0244374648
v -0.100282185 0.07256593 0.0251571685
v -0.09838676 0.0759921 0.02409295
v -0.100841723 0.0715545043 0.02509968
v -0.101182304 0.07093887 0.0262640715
v -0.10204006 0.06938839 0.0260286443
v -0.101979263 0.0694982857 0.0277289525
v -0.103188477 0.06731251 0.02723243
v -0.102626331 0.06832864 0.0294809565
v -0.104265347 0.06536596 0.0286913887
v -0.103092842 0.0674853846 0.03141849
v -0.105251655 0.06358312 0.0303765349
v -0.103368744 0.06698666 0.03342785
v -0.106132105 0.0619916245 0.0322514661
v -0.103463762 0.06681491 0.0354030579
v -0.106895842 0.0606110953 0.03427478
v -0.107179493 0.06009837 0.036533162
v -0.103392944 0.0669429153 0.0373825952
v -0.10732986 0.0598265566 0.0389338732
v -0.103141718 0.06739704 0.0394057147
v -0.107329 0.0598281063 0.0414265431
v -0.102699064 0.0681971759 0.04136699
v -0.107165113 0.06012436 0.0439495556
v -0.106834419 0.06072212 0.04643428
v -0.10207364 0.06932769 0.0431522243
v -0.106342264 0.0616117381 0.0488107949
v -0.101597831 0.0701877549 0.0470049269
v -0.101600341 0.070183225 0.0472424142
v -0.101574451 0.07023003 0.04677235
v -0.101527736 0.07031446 0.0465397947
v -0.10145697 0.07044238 0.0463220775
v -0.10129486 0.07073542 0.0446582474
v -0.1057029 0.06276745 0.0510143042
v -0.101580128 0.07021977 0.0474907
v -0.101534851 0.0703016 0.0477356948
v -0.101364382 0.07060975 0.04613464
v -0.104938187 0.0641497448 0.05299086
v -0.101465017 0.070427835 0.04796133
v -0.101374283 0.07059185 0.0481526
v -0.104075283 0.06570953 0.05470157
v -0.101268888 0.07078236 0.0482987873
v -0.101255156 0.0708071738 0.04599037
v -0.103143848 0.06739318 0.0561244637
v -0.101156317 0.0709858462 0.04839528
v -0.101043724 0.07118937 0.04844359
v -0.102168545 0.06915614 0.0572589748
v -0.101136558 0.07102156 0.0458968468
v -0.100928761 0.07139717 0.048448775
v -0.101016372 0.07123881 0.04585508
v -0.10090141 0.07144662 0.0458602645
v -0.100788817 0.07165013 0.045908574
v -0.100408569 0.07233746 0.0458118059
v -0.100676239 0.07185362 0.0460050665
v -0.10057085 0.0720441341 0.04615125
v -0.100480117 0.0722081438 0.04634253
v -0.100410283 0.07233438 0.0465681553
v -0.09946854 0.07403667 0.04658084
v -0.100365 0.07241622 0.0468131527
v -0.100344792 0.07245276 0.04706144
v -0.100347295 0.07244823 0.0472989269
v -0.100370683 0.07240595 0.0475315042
v -0.10041739 0.07232153 0.04776406
v -0.09852677 0.075739 0.0469746552
v -0.100488156 0.07219361 0.0479817726
v -0.09805837 0.07658568 0.0542903431
v -0.100580752 0.07202624 0.048169218
v -0.0979397744 0.0768000558 0.0541968159
v -0.0981676 0.07638825 0.05443461
v -0.09781958 0.0770173147 0.05415505
v -0.10068997 0.07182881 0.04831348
v -0.09826019 0.0762208849 0.05462205
v -0.100808568 0.07161443 0.048407007
v -0.09833096 0.07609296 0.0548397675
v -0.09750979 0.07757731 0.04702052
v -0.09770462 0.07722512 0.0541602336
v -0.09759203 0.07742864 0.05420855
v -0.09698051 0.07853402 0.0468914025
v -0.09837766 0.07600853 0.05507232
v -0.09747946 0.07763212 0.0543050356
v -0.101110049 0.07106948 0.05815706
v -0.0984010547 0.0759662539 0.0553048961
v -0.09840356 0.0759617239 0.0555423871
v -0.09996642 0.0731366947 0.0587932132
v -0.0983833447 0.07599826 0.0557906739
v -0.09833807 0.0760801062 0.05603567
v -0.0987607762 0.07531602 0.0591250062
v -0.09826823 0.07620634 0.0562612973
v -0.09817749 0.07637036 0.0564525761
v -0.0980721042 0.07656086 0.05659876
v -0.0979595259 0.07676435 0.05669525
v -0.09752222 0.07755482 0.0591221564
v -0.09784694 0.0769678652 0.05674356
v -0.09773198 0.07717567 0.0567487478
v -0.0976117849 0.07739292 0.05670698
v -0.09749319 0.0776073039 0.0566134565
v -0.09628385 0.0797933 0.05877078
v -0.09738396 0.07780474 0.0564691871
v -0.09729137 0.07797211 0.05628175
v -0.09722061 0.0781000257 0.0560640357
v -0.0971739 0.07818445 0.055831477
v -0.09507999 0.08196941 0.0580757819
v -0.09715051 0.07822673 0.055598896
v -0.097148 0.07823126 0.05536141
v -0.09716822 0.07819472 0.0551131256
v -0.0939430445 0.08402454 0.05706085
v -0.09721349 0.07811288 0.05486813
v -0.0940542445 0.08382353 0.0499949381
v -0.09415964 0.08363303 0.049848754
v -0.09394167 0.08402702 0.0500914268
v -0.09728333 0.07798664 0.0546425022
v -0.09425037 0.08346901 0.0496574752
v -0.09737407 0.0778226256 0.0544512235
v -0.09290072 0.08590864 0.0557659157
v -0.0943202153 0.0833427757 0.04943185
v -0.094365485 0.08326094 0.0491868481
v -0.09644656 0.0794991851 0.04665106
v -0.0943857059 0.08322439 0.048938565
v -0.09382909 0.08423053 0.05013974
v -0.09371412 0.08443835 0.0501449257
v -0.0935939252 0.0846556 0.0501031578
v -0.09591599 0.08045825 0.0462954231
v -0.094383195 0.08322892 0.048701074
v -0.09435981 0.0832712054 0.0484684967
v -0.0919739 0.08758396 0.054242678
v -0.09347533 0.08486998 0.05000963
v -0.09336611 0.08506741 0.049865365
v -0.09539742 0.08139561 0.04582371
v -0.0911756158 0.08902694 0.05254906
v -0.0943131 0.0833556354 0.04823594
v -0.0942423344 0.08348355 0.04801823
v -0.09414974 0.08365092 0.0478307866
v -0.09327351 0.0852347761 0.0496779233
v -0.0932027549 0.0853626952 0.0494602062
v -0.09315604 0.0854471251 0.0492276549
v -0.09489967 0.08229535 0.04523884
v -0.09404051 0.08384835 0.04768652
v -0.09392192 0.0840627253 0.0475929938
v -0.09049917 0.09024968 0.050706856
v -0.09313266 0.08548939 0.0489950739
v -0.09313015 0.08549394 0.0487575866
v -0.09443123 0.0831420943 0.0445474945
v -0.0899185 0.0912992954 0.0486361049
v -0.09380173 0.0842799842 0.0475512259
v -0.09315036 0.0854573846 0.0485093
v -0.09368677 0.08448779 0.04755641
v -0.09287988 0.085946314 0.04443878
v -0.0935741737 0.0846913 0.0476047248
v -0.09399986 0.0839218348 0.0437599048
v -0.0934616 0.08489479 0.0477012135
v -0.0936121345 0.084622696 0.0428893752
v -0.09319563 0.0853755549 0.048264306
v -0.09258255 0.08648376 0.044508677
v -0.0932654738 0.08524931 0.0480386764
v -0.08945612 0.0921351 0.04635757
v -0.09335621 0.0850853 0.0478474
v -0.0932731 0.08523552 0.041951526
v -0.0891350061 0.09271553 0.0439157933
v -0.09298612 0.08575427 0.04096343
v -0.0889726058 0.0930091 0.04136877
v -0.09275278 0.08617606 0.03994262
v -0.09257294 0.08650114 0.0389062352
v -0.0889785662 0.0929983258 0.03878395
v -0.0923660547 0.086875096 0.0368487947
v -0.08915351 0.09268209 0.0362324938
v -0.09234385 0.08691523 0.0347479247
v -0.0894888639 0.0920759141 0.0337829329
v -0.09240636 0.0868022442 0.0336545669
v -0.0899679661 0.09120989 0.0314951725
v -0.0925227 0.0865919441 0.0325515531
v -0.09056811 0.0901250541 0.029416021
v -0.09269486 0.08628075 0.0314555056
v -0.09292321 0.08586799 0.0303842761
v -0.09126315 0.08886871 0.0275769569
v -0.09320633 0.08535622 0.0293560252
v -0.09206474 0.08741977 0.0266433768
v -0.093541 0.08475128 0.0283883475
v -0.09290781 0.08589582 0.025836695
v -0.09392226 0.0840621144 0.0274972431
v -0.0937851444 0.08430996 0.0251679122
v -0.09434366 0.08330038 0.02669628
v -0.0947976559 0.0824797451 0.0259959213
v -0.09468865 0.08267679 0.0246456116
v -0.0952759758 0.0816151351 0.02540309
v -0.0956096 0.08101208 0.0242756084
v -0.09577013 0.08072191 0.0249210447
v -0.09627182 0.079815045 0.0245495439
v -0.09653896 0.07933217 0.0240607783
v -0.09726779 0.07801473 0.0241221711
v -0.09746763 0.07765351 0.0240009315
v -0.09782692 0.07700406 0.02404933
v -0.09969929 0.07671822 0.02409295
v -0.09812389 0.07801657 0.0240009315
v -0.09838676 0.0759921 0.02409295
v -0.09878016 0.07837963 0.0240009315
v -0.09746763 0.07765351 0.0240009315
v -0.09785149 0.08005829 0.0240607783
v -0.09719522 0.07969523 0.0240607783
v -0.09653896 0.07933217 0.0240607783
v -0.09692214 0.0817382 0.0242756084
v -0.09626587 0.08137514 0.0242756084
v -0.0956096 0.08101208 0.0242756084
v -0.09600118 0.08340291 0.0246456116
v -0.095344916 0.08303985 0.0246456116
v -0.09468865 0.08267679 0.0246456116
v -0.0950976759 0.08503608 0.0251679122
v -0.0944414139 0.08467302 0.0251679122
v -0.0937851444 0.08430996 0.0251679122
v -0.09422035 0.08662195 0.025836695
v -0.09356408 0.08625889 0.025836695
v -0.09290781 0.08589582 0.025836695
v -0.09337727 0.0881459 0.0266433768
v -0.092721 0.08778283 0.0266433768
v -0.09206474 0.08741977 0.0266433768
v -0.0925756842 0.08959483 0.0275769569
v -0.09126315 0.08886871 0.0275769569
v -0.09838676 0.0759921 0.02409295
v -0.100272626 0.07413253 0.0244548321
v -0.09969929 0.07671822 0.02409295
v -0.0996163562 0.0737694651 0.0244548321
v -0.100928895 0.0744955838 0.0244548321
v -0.100841723 0.0715545043 0.02509968
v -0.101497993 0.07191756 0.02509968
v -0.102154255 0.07228062 0.02509968
v -0.10204006 0.06938839 0.0260286443
v -0.102696329 0.06975145 0.0260286443
v -0.1033526 0.07011451 0.0260286443
v -0.103188477 0.06731251 0.02723243
v -0.103844747 0.06767557 0.02723243
v -0.104501016 0.06803863 0.02723243
v -0.104265347 0.06536596 0.0286913887
v -0.104921617 0.06572902 0.0286913887
v -0.105577886 0.06609209 0.0286913887
v -0.105251655 0.06358312 0.0303765349
v -0.105907917 0.06394618 0.0303765349
v -0.106564187 0.06430925 0.0303765349
v -0.106132105 0.0619916245 0.0322514661
v -0.106788367 0.0623546839 0.0322514661
v -0.107444637 0.06271774 0.0322514661
v -0.106895842 0.0606110953 0.03427478
v -0.108208373 0.0613372177 0.03427478
v -0.09379372 0.08532734 0.0478474
v -0.09419544 0.0846012 0.0488480739
v -0.0938991159 0.08513683 0.0477012135
v -0.09370299 0.08549135 0.0480386764
v -0.09401169 0.08493334 0.0476047248
v -0.0936331451 0.0856175944 0.048264306
v -0.09412428 0.08472983 0.04755641
v -0.0935878754 0.0856994241 0.0485093
v -0.09423924 0.0845220238 0.0475512259
v -0.0935676545 0.08573598 0.0487575866
v -0.09435943 0.0843047649 0.0475929938
v -0.0935701653 0.08573143 0.0489950739
v -0.094478026 0.08409039 0.04768652
v -0.09359355 0.0856891647 0.0492276549
v -0.09458725 0.08389296 0.0478307866
v -0.09364026 0.0856047347 0.0494602062
v -0.09467985 0.08372559 0.04801823
v -0.093711026 0.0854768157 0.0496779233
v -0.09475061 0.083597675 0.04823594
v -0.09380362 0.0853094459 0.049865365
v -0.09479732 0.083513245 0.0484684967
v -0.09391284 0.08511202 0.05000963
v -0.09482071 0.08347096 0.048701074
v -0.09403144 0.08489764 0.0501031578
v -0.09482321 0.08346643 0.048938565
v -0.09415163 0.0846803859 0.0501449257
v -0.094803 0.08350298 0.0491868481
v -0.0942666 0.08447257 0.05013974
v -0.09475772 0.0835848153 0.04943185
v -0.09437919 0.08426906 0.0500914268
v -0.09468789 0.08371105 0.0496574752
v -0.09449176 0.08406557 0.0499949381
v -0.0945971459 0.08387507 0.049848754
v -0.09781158 0.0780646652 0.0544512235
v -0.09821329 0.07733853 0.055451896
v -0.0979169756 0.07787416 0.0543050356
v -0.09772085 0.07822868 0.0546425022
v -0.09802955 0.07767068 0.05420855
v -0.0976510048 0.07835492 0.05486813
v -0.09814213 0.07746716 0.0541602336
v -0.0976057351 0.07843676 0.0551131256
v -0.0982570946 0.0772593543 0.05415505
v -0.0975855142 0.0784733 0.05536141
v -0.09837729 0.0770420954 0.0541968159
v -0.097588025 0.07846877 0.055598896
v -0.0984958857 0.07682772 0.0542903431
v -0.09761141 0.07842649 0.055831477
v -0.09860511 0.07663029 0.05443461
v -0.09765812 0.0783420652 0.0560640357
v -0.0986977 0.0764629245 0.05462205
v -0.0977288857 0.0782141462 0.05628175
v -0.0987684652 0.076335 0.0548397675
v -0.0978214741 0.07804678 0.0564691871
v -0.09881517 0.07625057 0.05507232
v -0.0979307 0.07784934 0.0566134565
v -0.09883857 0.07620829 0.0553048961
v -0.0980493 0.07763496 0.05670698
v -0.09884107 0.07620376 0.0555423871
v -0.09816949 0.07741771 0.0567487478
v -0.09882086 0.0762403 0.0557906739
v -0.09828445 0.0772099048 0.05674356
v -0.09877558 0.0763221458 0.05603567
v -0.09839704 0.07700639 0.05669525
v -0.09870574 0.07644838 0.0562612973
v -0.09850962 0.0768029 0.05659876
v -0.0986150056 0.0766124 0.0564525761
v -0.101008363 0.07228617 0.04615125
v -0.101410076 0.07156003 0.0471519269
v -0.101113752 0.07209566 0.0460050665
v -0.10091763 0.07245018 0.04634253
v -0.10122633 0.07189217 0.045908574
v -0.100847788 0.07257642 0.0465681553
v -0.101338916 0.07168866 0.0458602645
v -0.100802511 0.07265826 0.0468131527
v -0.101453885 0.07148085 0.04585508
v -0.1007823 0.0726948 0.04706144
v -0.101574071 0.0712636 0.0458968468
v -0.100784808 0.07269027 0.0472989269
v -0.101692669 0.07104922 0.04599037
v -0.100808196 0.07264799 0.0475315042
v -0.101801895 0.07085179 0.04613464
v -0.1008549 0.0725635663 0.04776406
v -0.101894483 0.07068442 0.0463220775
v -0.100925669 0.07243565 0.0479817726
v -0.101965249 0.07055651 0.0465397947
v -0.101018265 0.07226828 0.048169218
v -0.102011956 0.07047208 0.04677235
v -0.101127483 0.07207085 0.04831348
v -0.102035344 0.0704297945 0.0470049269
v -0.101246081 0.07185647 0.048407007
v -0.102037854 0.0704252645 0.0472424142
v -0.101366274 0.07163921 0.048448775
v -0.102017641 0.07046181 0.0474907
v -0.101481237 0.0714314058 0.04844359
v -0.101972364 0.07054365 0.0477356948
v -0.10159383 0.0712278858 0.04839528
v -0.10190253 0.07066988 0.04796133
v -0.1017064 0.0710244 0.0482987873
v -0.101811789 0.07083389 0.0481526
v -0.09848319 0.07736712 0.02404933
v -0.09969929 0.07671822 0.02409295
v -0.09838676 0.0759921 0.02409295
v -0.09782692 0.07700406 0.02404933
v -0.09913945 0.07773018 0.02404933
v -0.09726779 0.07801473 0.0241221711
v -0.09858033 0.07874085 0.0241221711
v -0.09735824 0.07940057 0.0243166313
v -0.09627182 0.079815045 0.0245495439
v -0.09758436 0.08054116 0.0245495439
v -0.09678444 0.0804377645 0.02464455
v -0.09577013 0.08072191 0.0249210447
v -0.09708266 0.081448026 0.0249210447
v -0.09621322 0.0814703 0.0251140073
v -0.0952759758 0.0816151351 0.02540309
v -0.0965885147 0.0823412538 0.02540309
v -0.09565643 0.08247675 0.0257284045
v -0.0947976559 0.0824797451 0.0259959213
v -0.09611019 0.08320587 0.0259959213
v -0.09512667 0.08343435 0.02648554
v -0.09434366 0.08330038 0.02669628
v -0.0956561938 0.08402651 0.02669628
v -0.09463643 0.0843205 0.0273770168
v -0.09392226 0.0840621144 0.0274972431
v -0.0941972658 0.08511434 0.0283883475
v -0.09523479 0.08478823 0.0274972431
v -0.093541 0.08475128 0.0283883475
v -0.0948535353 0.0854774 0.0283883475
v -0.09320633 0.08535622 0.0293560252
v -0.09451887 0.08608234 0.0293560252
v -0.0938189 0.08579826 0.029499609
v -0.09292321 0.08586799 0.0303842761
v -0.09423575 0.08659411 0.0303842761
v -0.09350855 0.08635926 0.0306867473
v -0.09269486 0.08628075 0.0314555056
v -0.0940074 0.08700687 0.0314555056
v -0.09327045 0.08678965 0.03192326
v -0.0925227 0.0865919441 0.0325515531
v -0.0938352346 0.08731807 0.0325515531
v -0.09310575 0.08708736 0.0331820957
v -0.09240636 0.0868022442 0.0336545669
v -0.0937188938 0.08752836 0.0336545669
v -0.09301266 0.08725563 0.03443743
v -0.09234385 0.08691523 0.0347479247
v -0.09365639 0.08764135 0.0347479247
v -0.09298691 0.08730216 0.03566613
v -0.0923660547 0.086875096 0.0368487947
v -0.09367859 0.08760122 0.0368487947
v -0.0930223241 0.08723816 0.0368487947
v -0.09311646 0.087068 0.0380176455
v -0.09257294 0.08650114 0.0389062352
v -0.09388548 0.0872272551 0.0389062352
v -0.0932752043 0.08678106 0.03920298
v -0.09275278 0.08617606 0.03994262
v -0.09364239 0.08611733 0.04096343
v -0.094065316 0.08690218 0.03994262
v -0.09298612 0.08575427 0.04096343
v -0.09429866 0.08648039 0.04096343
v -0.0932731 0.08523552 0.041951526
v -0.09416638 0.08517016 0.04262756
v -0.09458564 0.08596164 0.041951526
v -0.0936121345 0.084622696 0.0428893752
v -0.09492467 0.0853488147 0.0428893752
v -0.09399986 0.0839218348 0.0437599048
v -0.0953124 0.08464795 0.0437599048
v -0.09483601 0.08395974 0.0441084355
v -0.09443123 0.0831420943 0.0445474945
v -0.09562544 0.08253277 0.0453291051
v -0.09574377 0.08386822 0.0445474945
v -0.09489967 0.08229535 0.04523884
v -0.0962122 0.08302147 0.04523884
v -0.09539742 0.08139561 0.04582371
v -0.09649723 0.08095692 0.04623511
v -0.09670996 0.08212173 0.04582371
v -0.09591599 0.08045825 0.0462954231
v -0.09722852 0.08118438 0.0462954231
v -0.09644656 0.0794991851 0.04665106
v -0.0977591 0.08022531 0.04665106
v -0.09740806 0.07931051 0.046802327
v -0.09698051 0.07853402 0.0468914025
v -0.09829304 0.07926015 0.0468914025
v -0.09831538 0.07767044 0.04703788
v -0.09750979 0.07757731 0.04702052
v -0.09882232 0.07830343 0.04702052
v -0.09852677 0.075739 0.0469746552
v -0.09983931 0.07646512 0.0469746552
v -0.09971864 0.07513392 0.0467937328
v -0.09983931 0.07646512 0.0469746552
v -0.09852677 0.075739 0.0469746552
v -0.09946854 0.07403667 0.04658084
v -0.100781076 0.07476279 0.04658084
v -0.100260347 0.0741547346 0.04649457
v -0.100799359 0.07318041 0.0460710824
v -0.100408569 0.07233746 0.0458118059
v -0.101721108 0.07306359 0.0458118059
v -0.101325944 0.07222855 0.04552087
v -0.10129486 0.07073542 0.0446582474
v -0.102607392 0.071461536 0.0446582474
v -0.101829879 0.07131764 0.0448458381
v -0.102301016 0.07046601 0.0440525673
v -0.10207364 0.06932769 0.0431522243
v -0.103386179 0.0700538158 0.0431522243
v -0.102729909 0.06969075 0.0431522243
v -0.103108414 0.06900657 0.0421601459
v -0.102699064 0.0681971759 0.04136699
v -0.104011595 0.0689233 0.04136699
v -0.103430189 0.06842492 0.0410949439
v -0.103691064 0.06795336 0.0399773754
v -0.103141718 0.06739704 0.0394057147
v -0.104454249 0.06812316 0.0394057147
v -0.103889152 0.0675953 0.0388290659
v -0.103392944 0.0669429153 0.0373825952
v -0.104705483 0.06766904 0.0373825952
v -0.104024813 0.06735008 0.0376712047
v -0.104100436 0.0672133937 0.0365234427
v -0.103463762 0.06681491 0.0354030579
v -0.1047763 0.0675410256 0.0354030579
v -0.104120031 0.0671779662 0.0354030579
v -0.104086727 0.06723817 0.0342840478
v -0.103368744 0.06698666 0.03342785
v -0.104681283 0.06771278 0.03342785
v -0.103997089 0.0674001947 0.03314061
v -0.103092842 0.0674853846 0.03141849
v -0.104405373 0.0682115 0.03141849
v -0.103749111 0.067848444 0.03141849
v -0.103360765 0.0685504153 0.0297490135
v -0.102626331 0.06832864 0.0294809565
v -0.10393887 0.06905477 0.0294809565
v -0.102837406 0.06949644 0.0282042325
v -0.101979263 0.0694982857 0.0277289525
v -0.1032918 0.0702244043 0.0277289525
v -0.102195762 0.07065628 0.0268512964
v -0.101182304 0.07093887 0.0262640715
v -0.102494836 0.07166499 0.0262640715
v -0.101462334 0.07198201 0.0257431455
v -0.100282185 0.07256593 0.0251571685
v -0.101594716 0.07329205 0.0251571685
v -0.100669883 0.0734144449 0.0249118358
v -0.09933304 0.07428159 0.0244374648
v -0.100645579 0.0750077143 0.0244374648
v -0.09985283 0.07489134 0.0243660174
v -0.09838676 0.0759921 0.02409295
v -0.09969929 0.07671822 0.02409295
f 1 2 3
f 1 3 4
f 5 1 4
f 4 3 6
f 7 5 4
f 8 4 6
f 7 4 8
f 8 6 9
f 10 7 8
f 11 8 9
f 10 8 11
f 11 9 12
f 13 10 11
f 14 11 12
f 13 11 14
f 14 12 15
f 16 13 14
f 17 14 15
f 16 14 17
f 17 15 18
f 19 16 17
f 20 17 18
f 19 17 20
f 20 18 21
f 22 20 21
f 23 19 20
f 23 20 22
f 22 21 24
f 25 23 22
f 26 22 24
f 27 25 22
f 28 22 26
f 27 22 28
f 29 28 26
f 30 27 28
f 31 28 29
f 31 30 28
f 32 31 29
f 31 32 30
f 32 29 33
f 32 34 30
f 35 32 33
f 32 35 34
f 35 33 36
f 35 37 34
f 38 35 36
f 35 38 37
f 38 36 39
f 38 40 37
f 41 38 39
f 38 41 40
f 41 39 42
f 41 43 40
f 44 41 42
f 41 44 43
f 44 42 45
f 44 46 43
f 47 44 45
f 44 47 46
f 47 45 48
f 46 47 49
f 47 48 49
f 48 50 49
f 50 51 49
f 49 51 52
f 50 53 51
f 51 54 52
f 53 55 51
f 51 55 54
f 53 56 55
f 55 57 54
f 56 58 55
f 55 58 57
f 56 59 58
f 58 60 57
f 59 61 58
f 58 61 60
f 59 62 61
f 61 63 60
f 62 64 61
f 61 64 63
f 62 65 64
f 64 66 63
f 65 67 64
f 64 67 66
f 65 68 67
f 68 69 67
f 67 70 66
f 67 69 70
f 68 71 69
f 69 72 70
f 71 73 69
f 69 74 72
f 73 75 69
f 69 75 74
f 73 76 75
f 75 77 74
f 76 78 75
f 75 78 77
f 76 79 78
f 79 77 78
f 80 79 76
f 79 81 77
f 82 79 80
f 79 82 81
f 83 82 80
f 82 84 81
f 85 82 83
f 82 85 84
f 86 85 83
f 85 87 84
f 88 85 86
f 85 88 87
f 89 88 86
f 88 90 87
f 91 88 89
f 88 91 90
f 92 91 89
f 91 93 90
f 94 91 92
f 91 94 93
f 95 94 92
f 94 96 93
f 94 95 96
f 97 98 99
f 97 99 100
f 101 97 100
f 100 99 102
f 103 101 100
f 104 100 102
f 103 100 104
f 104 102 105
f 106 103 104
f 107 104 105
f 106 104 107
f 107 105 108
f 109 106 107
f 110 107 108
f 109 107 110
f 110 108 111
f 112 109 110
f 113 110 111
f 112 110 113
f 113 111 114
f 115 112 113
f 116 113 114
f 115 113 116
f 116 114 117
f 118 116 117
f 119 115 116
f 119 116 118
f 118 117 120
f 121 119 118
f 122 118 120
f 123 121 118
f 124 118 122
f 123 118 124
f 125 124 122
f 126 123 124
f 127 124 125
f 127 126 124
f 128 127 125
f 127 128 126
f 128 125 129
f 128 130 126
f 131 128 129
f 128 131 130
f 131 129 132
f 131 133 130
f 134 131 132
f 131 134 133
f 134 132 135
f 134 136 133
f 137 134 135
f 134 137 136
f 137 135 138
f 137 139 136
f 140 137 138
f 137 140 139
f 140 138 141
f 140 142 139
f 143 140 141
f 140 143 142
f 143 141 144
f 142 143 145
f 143 144 145
f 144 146 145
f 146 147 145
f 145 147 148
f 146 149 147
f 147 150 148
f 149 151 147
f 147 151 150
f 149 152 151
f 151 153 150
f 152 154 151
f 151 154 153
f 152 155 154
f 154 156 153
f 155 157 154
f 154 157 156
f 155 158 157
f 157 159 156
f 158 160 157
f 157 160 159
f 158 161 160
f 160 162 159
f 161 163 160
f 160 163 162
f 161 164 163
f 164 165 163
f 163 166 162
f 163 165 166
f 164 167 165
f 165 168 166
f 167 169 165
f 165 170 168
f 169 171 165
f 165 171 170
f 169 172 171
f 171 173 170
f 172 174 171
f 171 174 173
f 172 175 174
f 175 173 174
f 176 175 172
f 175 177 173
f 178 175 176
f 175 178 177
f 179 178 176
f 178 180 177
f 181 178 179
f 178 181 180
f 182 181 179
f 181 183 180
f 184 181 182
f 181 184 183
f 185 184 182
f 184 186 183
f 187 184 185
f 184 187 186
f 188 187 185
f 187 189 186
f 190 187 188
f 187 190 189
f 191 190 188
f 190 192 189
f 190 191 192
f 193 194 195
f 193 195 196
f 197 193 196
f 196 195 198
f 199 197 196
f 200 196 198
f 199 196 200
f 200 198 201
f 202 199 200
f 203 200 201
f 202 200 203
f 203 201 204
f 205 202 203
f 206 203 204
f 205 203 206
f 206 204 207
f 208 205 206
f 209 206 207
f 208 206 209
f 209 207 210
f 211 208 209
f 212 209 210
f 211 209 212
f 212 210 213
f 214 212 213
f 215 211 212
f 215 212 214
f 214 213 216
f 217 215 214
f 218 214 216
f 219 217 214
f 220 214 218
f 219 214 220
f 221 220 218
f 222 219 220
f 223 220 221
f 223 222 220
f 224 223 221
f 223 224 222
f 224 221 225
f 224 226 222
f 227 224 225
f 224 227 226
f 227 225 228
f 227 229 226
f 230 227 228
f 227 230 229
f 230 228 231
f 230 232 229
f 233 230 231
f 230 233 232
f 233 231 234
f 233 235 232
f 236 233 234
f 233 236 235
f 236 234 237
f 236 238 235
f 239 236 237
f 236 239 238
f 239 237 240
f 238 239 241
f 239 240 241
f 240 242 241
f 242 243 241
f 241 243 244
f 242 245 243
f 243 246 244
f 245 247 243
f 243 247 246
f 245 248 247
f 247 249 246
f 248 250 247
f 247 250 249
f 248 251 250
f 250 252 249
f 251 253 250
f 250 253 252
f 251 254 253
f 253 255 252
f 254 256 253
f 253 256 255
f 254 257 256
f 256 258 255
f 257 259 256
f 256 259 258
f 257 260 259
f 260 261 259
f 259 262 258
f 259 261 262
f 260 263 261
f 261 264 262
f 263 265 261
f 261 266 264
f 265 267 261
f 261 267 266
f 265 268 267
f 267 269 266
f 268 270 267
f 267 270 269
f 268 271 270
f 271 269 270
f 272 271 268
f 271 273 269
f 274 271 272
f 271 274 273
f 275 274 272
f 274 276 273
f 277 274 275
f 274 277 276
f 278 277 275
f 277 279 276
f 280 277 278
f 277 280 279
f 281 280 278
f 280 282 279
f 283 280 281
f 280 283 282
f 284 283 281
f 283 285 282
f 286 283 284
f 283 286 285
f 287 286 284
f 286 288 285
f 286 287 288
f 289 290 291
f 289 291 292
f 293 289 292
f 294 292 291
f 293 292 295
f 292 294 296
f 292 296 295
f 294 297 296
f 295 296 298
f 297 299 296
f 296 299 298
f 297 300 299
f 298 299 301
f 300 302 299
f 299 302 301
f 300 303 302
f 301 302 304
f 303 305 302
f 302 305 304
f 303 306 305
f 306 304 305
f 306 303 307
f 306 308 304
f 309 306 307
f 306 309 308
f 309 307 310
f 309 311 308
f 312 309 310
f 309 312 311
f 312 310 313
f 312 314 311
f 315 312 313
f 312 315 314
f 315 313 316
f 315 316 314
f 313 317 316
f 314 316 318
f 317 319 316
f 316 319 318
f 317 320 319
f 318 319 321
f 320 322 319
f 319 322 321
f 320 323 322
f 321 322 324
f 323 325 322
f 322 325 324
f 323 326 325
f 326 324 325
f 326 323 327
f 326 328 324
f 329 326 327
f 326 329 328
f 329 327 330
f 329 331 328
f 332 329 330
f 329 332 331
f 332 330 333
f 332 333 331
f 330 334 333
f 331 333 335
f 334 336 333
f 333 336 335
f 334 337 336
f 335 336 338
f 337 339 336
f 336 339 338
f 337 340 339
f 338 339 341
f 340 342 339
f 339 342 341
f 340 343 342
f 343 341 342
f 343 340 344
f 343 345 341
f 346 343 344
f 343 346 345
f 346 344 347
f 346 348 345
f 349 346 347
f 346 349 348
f 349 347 350
f 349 351 348
f 352 349 350
f 349 352 351
f 352 350 353
f 352 354 351
f 355 352 353
f 352 355 354
f 355 353 356
f 355 356 354
f 353 357 356
f 354 356 358
f 357 359 356
f 356 359 358
f 357 360 359
f 358 359 361
f 360 362 359
f 359 362 361
f 360 363 362
f 361 362 364
f 363 365 362
f 362 365 364
f 363 366 365
f 366 364 365
f 366 363 367
f 366 368 364
f 369 366 367
f 366 369 368
f 369 367 370
f 369 371 368
f 372 369 370
f 369 372 371
f 372 370 373
f 372 373 371
f 370 374 373
f 371 373 375
f 374 376 373
f 373 376 375
f 374 377 376
f 377 375 376
f 377 374 378
f 377 379 375
f 380 377 378
f 377 380 379
f 380 378 381
f 380 382 379
f 383 380 381
f 380 383 382
f 383 381 384
f 383 384 382
f 381 385 384
f 382 384 386
f 385 387 384
f 384 387 386
f 385 388 387
f 388 386 387
f 388 385 389
f 388 390 386
f 391 388 389
f 388 391 390
f 391 389 392
f 391 393 390
f 394 391 392
f 391 394 393
f 394 392 395
f 394 395 393
f 392 396 395
f 397 393 395
f 396 397 395
f 398 399 400
f 398 401 399
f 402 398 400
f 402 400 403
f 404 402 403
f 404 403 405
f 404 405 406
f 407 404 406
f 407 406 408
f 409 407 408
f 409 408 410
f 409 410 411
f 412 409 411
f 412 411 413
f 414 412 413
f 414 413 415
f 416 414 415
f 416 415 417
f 418 416 417
f 418 417 419
f 418 419 420
f 421 418 420
f 420 422 421
f 422 423 421
f 422 424 423
f 424 425 423
f 424 426 425
f 426 427 425
f 426 428 427
f 428 429 427
f 428 430 429
f 430 431 429
f 431 432 429
f 431 433 432
f 433 434 432
f 433 435 434
f 435 436 434
f 435 437 436
f 437 438 436
f 437 439 438
f 439 440 438
f 439 441 440
f 441 442 440
f 441 443 442
f 443 444 442
f 443 445 444
f 445 446 444
f 445 447 446
f 447 448 446
f 447 449 448
f 449 450 448
f 449 451 450
f 451 452 450
f 451 453 452
f 453 454 452
f 453 455 454
f 453 456 455
f 456 457 455
f 456 458 457
f 456 459 458
f 459 460 458
f 459 461 460
f 461 459 462
f 459 463 462
f 463 464 462
f 463 465 464
f 465 466 464
f 465 467 466
f 465 468 467
f 468 469 467
f 468 470 469
f 468 471 470
f 471 472 470
f 471 473 472
f 473 474 472
f 473 475 474
f 475 476 474
f 475 477 476
f 475 478 477
f 478 479 477
f 478 480 479
f 480 481 479
f 480 482 481
f 482 483 481
f 482 484 483
f 484 485 483
f 484 486 485
f 486 487 485
f 486 488 487
f 488 489 487
f 488 490 489
f 490 401 489
f 491 492 493
f 491 494 492
f 495 491 493
f 495 493 496
f 497 495 496
f 497 496 498
f 499 497 498
f 499 498 500
f 501 499 500
f 501 500 502
f 503 501 502
f 503 502 504
f 505 503 504
f 506 505 504
f 505 506 507
f 506 508 507
f 506 509 508
f 509 510 508
f 509 511 510
f 511 512 510
f 511 513 512
f 513 514 512
f 513 515 514
f 513 516 515
f 516 517 515
f 516 518 517
f 518 519 517
f 520 518 516
f 521 520 516
f 522 521 516
f 522 516 523
f 519 524 517
f 519 525 524
f 525 526 524
f 527 522 523
f 526 528 524
f 526 529 528
f 529 530 528
f 530 531 528
f 530 532 531
f 533 527 523
f 532 534 531
f 532 535 534
f 535 536 534
f 536 537 534
f 538 533 523
f 536 539 537
f 540 538 523
f 541 540 523
f 542 541 523
f 542 523 543
f 544 542 543
f 545 544 543
f 546 545 543
f 547 546 543
f 547 543 548
f 549 547 548
f 550 549 548
f 551 550 548
f 552 551 548
f 553 552 548
f 553 548 554
f 555 553 554
f 556 555 554
f 556 557 555
f 558 556 554
f 556 559 557
f 560 558 554
f 559 561 557
f 559 562 561
f 562 563 561
f 562 564 563
f 560 554 565
f 566 560 565
f 567 566 565
f 564 539 563
f 567 565 568
f 564 569 539
f 570 567 568
f 539 569 571
f 539 571 537
f 569 572 571
f 572 573 571
f 573 574 571
f 573 575 574
f 575 576 574
f 576 577 574
f 576 578 577
f 578 579 577
f 579 580 577
f 580 581 577
f 581 582 577
f 581 583 582
f 583 584 582
f 584 585 582
f 585 586 582
f 586 587 582
f 586 588 587
f 588 589 587
f 589 590 587
f 590 591 587
f 591 592 587
f 591 593 592
f 593 594 592
f 594 595 592
f 595 596 592
f 595 597 596
f 597 598 596
f 597 599 598
f 598 600 596
f 599 597 601
f 602 599 601
f 602 601 603
f 600 604 596
f 605 602 603
f 605 603 570
f 605 570 568
f 606 605 568
f 606 568 607
f 608 606 607
f 600 609 604
f 609 610 604
f 610 611 604
f 608 607 612
f 613 608 612
f 614 613 612
f 611 615 604
f 611 616 615
f 616 617 615
f 614 612 618
f 617 619 615
f 620 614 618
f 621 620 618
f 622 621 618
f 617 623 619
f 623 624 619
f 624 625 619
f 622 618 626
f 627 622 626
f 628 627 626
f 625 629 619
f 625 630 629
f 630 631 629
f 628 626 632
f 631 633 629
f 634 628 632
f 631 635 633
f 636 634 632
f 636 632 637
f 638 636 637
f 637 632 639
f 640 638 637
f 637 639 641
f 635 642 633
f 642 643 633
f 642 644 643
f 633 643 645
f 646 640 637
f 644 646 643
f 646 637 643
f 647 637 641
f 643 637 647
f 643 648 645
f 649 643 647
f 643 649 648
f 649 650 648
f 649 651 650
f 651 652 650
f 652 653 650
f 652 654 653
f 654 655 653
f 654 656 655
f 656 657 655
f 656 658 657
f 658 659 657
f 658 660 659
f 660 661 659
f 660 662 661
f 662 663 661
f 663 664 661
f 663 665 664
f 665 666 664
f 665 667 666
f 667 668 666
f 667 669 668
f 669 670 668
f 669 671 670
f 671 672 670
f 672 673 670
f 672 674 673
f 674 675 673
f 674 676 675
f 676 677 675
f 677 678 675
f 677 679 678
f 679 680 678
f 679 681 680
f 681 494 680
f 682 683 684
f 683 682 685
f 683 686 684
f 683 685 687
f 683 688 686
f 688 683 687
f 688 689 686
f 688 687 690
f 688 691 689
f 691 688 690
f 691 692 689
f 691 690 693
f 691 694 692
f 694 691 693
f 694 695 692
f 694 693 696
f 694 697 695
f 697 694 696
f 697 698 695
f 697 696 699
f 697 700 698
f 700 697 699
f 700 701 698
f 700 699 702
f 700 703 701
f 703 700 702
f 703 704 701
f 703 702 705
f 703 706 704
f 706 703 705
f 707 708 709
f 708 707 710
f 708 711 709
f 708 710 712
f 708 713 711
f 713 708 712
f 713 714 711
f 713 712 715
f 713 716 714
f 716 713 715
f 716 717 714
f 716 715 718
f 716 719 717
f 719 716 718
f 719 720 717
f 719 718 721
f 719 722 720
f 722 719 721
f 722 723 720
f 722 721 724
f 722 725 723
f 725 722 724
f 725 726 723
f 725 724 727
f 725 728 726
f 728 725 727
f 728 729 726
f 728 727 730
f 728 731 729
f 731 728 730
f 732 733 734
f 733 732 735
f 733 736 734
f 733 735 737
f 736 733 738
f 739 733 737
f 733 740 738
f 733 739 741
f 733 742 740
f 733 741 743
f 742 733 744
f 745 733 743
f 733 746 744
f 733 745 747
f 733 748 746
f 733 747 749
f 748 733 750
f 751 733 749
f 733 752 750
f 733 751 753
f 733 754 752
f 733 753 755
f 754 733 756
f 757 733 755
f 733 758 756
f 733 757 759
f 733 760 758
f 733 759 761
f 760 733 762
f 763 733 761
f 733 764 762
f 733 763 764
f 765 766 767
f 766 765 768
f 766 769 767
f 766 768 770
f 769 766 771
f 772 766 770
f 766 773 771
f 766 772 774
f 766 775 773
f 766 774 776
f 775 766 777
f 778 766 776
f 766 779 777
f 766 778 780
f 766 781 779
f 766 780 782
f 781 766 783
f 784 766 782
f 766 785 783
f 766 784 786
f 766 787 785
f 766 786 788
f 787 766 789
f 790 766 788
f 766 791 789
f 766 790 792
f 766 793 791
f 766 792 794
f 793 766 795
f 796 766 794
f 766 797 795
f 766 796 797
f 798 799 800
f 799 798 801
f 799 802 800
f 799 801 803
f 802 799 804
f 805 799 803
f 799 806 804
f 799 805 807
f 799 808 806
f 799 807 809
f 808 799 810
f 811 799 809
f 799 812 810
f 799 811 813
f 799 814 812
f 799 813 815
f 814 799 816
f 817 799 815
f 799 818 816
f 799 817 819
f 799 820 818
f 799 819 821
f 820 799 822
f 823 799 821
f 799 824 822
f 799 823 825
f 799 826 824
f 799 825 827
f 826 799 828
f 829 799 827
f 799 830 828
f 799 829 830
f 831 832 833
f 834 831 833
f 831 835 832
f 831 834 836
f 835 831 837
f 831 836 837
f 838 837 836
f 839 838 836
f 838 840 837
f 841 838 839
f 838 841 840
f 841 839 842
f 841 843 840
f 844 841 842
f 841 844 843
f 844 842 845
f 844 846 843
f 847 844 845
f 844 847 846
f 847 845 848
f 847 849 846
f 850 847 848
f 847 850 849
f 850 848 851
f 850 852 849
f 853 850 851
f 850 853 852
f 853 851 854
f 855 853 854
f 853 856 852
f 853 855 856
f 855 854 857
f 855 858 856
f 855 857 859
f 855 860 858
f 861 855 859
f 855 861 860
f 861 859 862
f 861 863 860
f 864 861 862
f 861 864 863
f 864 862 865
f 864 866 863
f 867 864 865
f 864 867 866
f 867 865 868
f 867 869 866
f 870 867 868
f 867 870 869
f 870 868 871
f 870 872 869
f 873 870 871
f 870 873 872
f 873 871 874
f 873 875 872
f 876 873 874
f 873 876 875
f 876 874 877
f 876 878 875
f 879 876 877
f 876 879 878
f 879 877 880
f 879 880 878
f 877 881 880
f 882 878 880
f 881 883 880
f 882 880 883
f 881 884 883
f 884 885 883
f 886 882 883
f 886 883 885
f 884 887 885
f 888 886 885
f 887 889 885
f 889 890 885
f 891 888 885
f 891 885 890
f 889 892 890
f 893 891 890
f 892 894 890
f 895 893 890
f 894 896 890
f 895 890 896
f 894 897 896
f 897 898 896
f 899 895 896
f 899 896 898
f 897 900 898
f 901 899 898
f 900 902 898
f 902 903 898
f 904 901 898
f 904 898 903
f 902 905 903
f 906 904 903
f 905 907 903
f 908 906 903
f 907 909 903
f 908 903 909
f 907 910 909
f 911 908 909
f 910 912 909
f 911 909 912
f 910 913 912
f 914 911 912
f 913 915 912
f 916 914 912
f 915 916 912
f 917 918 919
f 920 917 919
f 917 921 918
f 917 920 922
f 921 917 922
f 923 922 920
f 921 922 923
f 923 920 924
f 925 921 923
f 926 923 924
f 923 926 925
f 926 924 927
f 926 928 925
f 929 926 927
f 926 929 928
f 929 927 930
f 929 930 928
f 927 931 930
f 928 930 932
f 931 933 930
f 930 933 932
f 931 934 933
f 934 932 933
f 934 931 935
f 934 936 932
f 934 935 937
f 936 934 937
f 938 937 935
f 936 937 938
f 938 935 939
f 940 936 938
f 941 938 939
f 938 941 940
f 941 939 942
f 941 943 940
f 944 941 942
f 941 944 943
f 944 942 945
f 944 945 943
f 942 946 945
f 943 945 947
f 946 948 945
f 945 948 947
f 946 949 948
f 949 947 948
f 949 946 950
f 949 951 947
f 952 949 950
f 949 952 951
f 952 950 953
f 952 954 951
f 955 952 953
f 952 955 954
f 955 953 956
f 955 956 954
f 953 957 956
f 958 954 956
f 957 959 956
f 958 956 959
f 957 960 959
f 961 958 959
f 960 962 959
f 961 959 962
f 960 963 962
f 964 961 962
f 963 965 962
f 964 962 965
f 963 966 965
f 967 964 965
f 966 968 965
f 967 965 968
f 966 969 968
f 970 967 968
f 969 971 968
f 970 968 971
f 969 972 971
f 973 970 971
f 972 973 971
