# ROS coordinates: X forward, Y left, Z up; units are metres.
o mesh
v -0.0626333356 0.100337364 0.08400001
v -0.0604457855 0.09912716 0.08400001
v -0.06045387 0.0991125554 0.0841819644
v -0.0615502074 0.09971303 0.08420853
v -0.06264143 0.100322753 0.0841819644
v -0.06047977 0.09906572 0.0843680948
v -0.0626673251 0.100275926 0.0843680948
v -0.0615844429 0.09965113 0.08442052
v -0.0605246946 0.0989845246 0.08454721
v -0.06271225 0.10019473 0.08454721
v -0.06164337 0.09954463 0.08461879
v -0.06058757 0.09887087 0.08470711
v -0.06277512 0.100081071 0.08470711
v -0.061724104 0.09939869 0.0847855657
v -0.0606649742 0.09873096 0.0848370045
v -0.06285253 0.0999411643 0.0848370045
v -0.0618200749 0.09922521 0.08490729
v -0.0607516766 0.09857423 0.0849297941
v -0.06293924 0.0997844338 0.0849297941
v -0.06192269 0.09903972 0.0849780142
v -0.06084178 0.09841136 0.0849833041
v -0.06202364 0.09885724 0.08500001
v -0.0630293339 0.0996215641 0.0849833041
v -0.0609298646 0.09825214 0.08500001
v -0.0631174147 0.0994623452 0.08500001
v -0.0610179529 0.09809291 0.0849833041
v -0.06320551 0.09930312 0.0849833041
v -0.06212459 0.09867476 0.0849780142
v -0.0611080527 0.0979300439 0.0849297941
v -0.06329561 0.09914025 0.0849297941
v -0.06220183 0.09853515 0.0849297941
v -0.0622765832 0.09840003 0.0848526359
v -0.0611947551 0.09777332 0.0848370045
v -0.06338231 0.0989835262 0.0848370045
v -0.0623451024 0.09827617 0.08474767
v -0.06127216 0.09763341 0.08470711
v -0.06345972 0.0988436043 0.08470711
v -0.06240392 0.09816985 0.08461879
v -0.0613350421 0.09751975 0.08454721
v -0.06352259 0.09872995 0.08454721
v -0.0624503866 0.0980858654 0.08447209
v -0.0613799579 0.09743855 0.0843680948
v -0.06356752 0.09864876 0.0843680948
v -0.0624830648 0.0980268 0.0843151063
v -0.0614058673 0.0973917246 0.0841819644
v -0.06359342 0.09860192 0.0841819644
v -0.06250183 0.09799285 0.084155485
v -0.0614139438 0.097377114 0.08400001
v -0.0636015 0.09858732 0.08400001
v -0.0614058636 0.0973917246 0.08381803
v -0.06249708 0.09800145 0.0837914646
v -0.06359342 0.09860192 0.08381803
v -0.06137996 0.09743855 0.0836319
v -0.06356752 0.09864876 0.0836319
v -0.062462844 0.09806335 0.08357948
v -0.06133504 0.09751975 0.08345279
v -0.06352259 0.09872995 0.08345279
v -0.0624039173 0.09816985 0.08338122
v -0.06127216 0.09763341 0.0832929
v -0.06345972 0.0988436043 0.0832929
v -0.0623231828 0.09831579 0.08321443
v -0.0611947551 0.09777332 0.08316301
v -0.06338231 0.0989835262 0.08316301
v -0.06222721 0.09848927 0.08309272
v -0.0611080527 0.0979300439 0.08307022
v -0.0632956 0.09914025 0.08307022
v -0.06212459 0.09867476 0.08302198
v -0.0610179529 0.09809291 0.08301669
v -0.06202364 0.09885724 0.0830000043
v -0.06320551 0.09930312 0.08301669
v -0.0609298646 0.09825214 0.0830000043
v -0.0631174147 0.0994623452 0.0830000043
v -0.0608417839 0.09841136 0.08301669
v -0.0630293339 0.0996215641 0.08301669
v -0.06192269 0.09903972 0.08302198
v -0.0607516766 0.09857423 0.08307022
v -0.0629392341 0.0997844338 0.08307022
v -0.0618454553 0.09917933 0.08307022
v -0.0617707 0.09931445 0.08314738
v -0.0606649742 0.09873096 0.08316301
v -0.06285253 0.0999411643 0.08316301
v -0.06170218 0.09943831 0.0832523257
v -0.06058757 0.09887087 0.0832929
v -0.06277512 0.100081071 0.0832929
v -0.0616433658 0.09954463 0.08338122
v -0.06052469 0.0989845246 0.08345279
v -0.06271225 0.10019473 0.08345279
v -0.0615969 0.09962861 0.08352791
v -0.0604797751 0.09906572 0.0836319
v -0.0626673251 0.100275926 0.0836319
v -0.061564222 0.09968768 0.08368491
v -0.06045387 0.0991125554 0.08381803
v -0.06264143 0.100322753 0.08381803
v -0.0615454465 0.0997216254 0.08384453
v -0.0604457855 0.09912716 0.08400001
v -0.0626333356 0.100337364 0.08400001
v -0.0761875957 0.0758367 0.08400001
v -0.0740000457 0.0746265054 0.08400001
v -0.07400813 0.0746118948 0.0841819644
v -0.07510447 0.07521237 0.08420853
v -0.07619569 0.0758221 0.0841819644
v -0.0740340352 0.07456507 0.0843680948
v -0.07622159 0.0757752657 0.0843680948
v -0.0751387 0.0751504749 0.08442052
v -0.0740789548 0.07448387 0.08454721
v -0.07626651 0.07569408 0.08454721
v -0.07519763 0.07504398 0.08461879
v -0.07414183 0.07437022 0.08470711
v -0.07632938 0.07558042 0.08470711
v -0.0752783641 0.0748980343 0.0847855657
v -0.0742192343 0.0742303059 0.0848370045
v -0.07640679 0.07544051 0.0848370045
v -0.0753743351 0.07472455 0.08490729
v -0.07430594 0.0740735754 0.0849297941
v -0.0764935 0.07528378 0.0849297941
v -0.07547696 0.07453906 0.0849780142
v -0.074396044 0.0739107057 0.0849833041
v -0.0755779 0.0743565857 0.08500001
v -0.0765835941 0.07512091 0.0849833041
v -0.0744841248 0.07375148 0.08500001
v -0.07667168 0.0749616846 0.08500001
v -0.07457221 0.07359226 0.0849833041
v -0.07675977 0.07480246 0.0849833041
v -0.0756788552 0.0741741061 0.0849780142
v -0.07466231 0.07342939 0.0849297941
v -0.07684987 0.074639596 0.0849297941
v -0.07575609 0.0740345 0.0849297941
v -0.07583085 0.073899366 0.0848526359
v -0.07474902 0.07327266 0.0848370045
v -0.07693657 0.07448286 0.0848370045
v -0.07589936 0.073775515 0.08474767
v -0.07482643 0.07313275 0.08470711
v -0.0770139843 0.07434295 0.08470711
v -0.07595818 0.0736691952 0.08461879
v -0.0748893 0.0730190948 0.08454721
v -0.07707685 0.07422929 0.08454721
v -0.07600465 0.0735852048 0.08447209
v -0.0749342144 0.07293789 0.0843680948
v -0.07712178 0.0741480961 0.0843680948
v -0.076037325 0.07352614 0.0843151063
v -0.07496013 0.07289107 0.0841819644
v -0.077147685 0.07410127 0.0841819644
v -0.07605609 0.0734922 0.084155485
v -0.0749682039 0.07287646 0.08400001
v -0.07715576 0.0740866661 0.08400001
v -0.07496013 0.07289107 0.08381803
v -0.07605134 0.0735008 0.0837914646
v -0.07714768 0.07410127 0.08381803
v -0.07493422 0.0729379 0.0836319
v -0.07712178 0.0741480961 0.0836319
v -0.0760171041 0.07356269 0.08357948
v -0.0748893 0.07301909 0.08345279
v -0.07707685 0.07422929 0.08345279
v -0.07595818 0.0736691952 0.08338122
v -0.07482643 0.07313275 0.0832929
v -0.0770139843 0.07434295 0.0832929
v -0.07587744 0.07381514 0.08321443
v -0.07474902 0.07327266 0.08316301
v -0.07693657 0.07448286 0.08316301
v -0.0757814646 0.07398862 0.08309272
v -0.07466231 0.07342939 0.08307022
v -0.07684987 0.07463959 0.08307022
v -0.0756788552 0.0741741061 0.08302198
v -0.07457221 0.07359226 0.08301669
v -0.0755779 0.0743565857 0.0830000043
v -0.07675977 0.07480246 0.08301669
v -0.0744841248 0.07375148 0.0830000043
v -0.07667168 0.0749616846 0.0830000043
v -0.074396044 0.0739107057 0.08301669
v -0.0765835941 0.07512091 0.08301669
v -0.07547696 0.07453906 0.08302198
v -0.07430594 0.0740735754 0.08307022
v -0.0764934942 0.07528378 0.08307022
v -0.07539971 0.0746786743 0.08307022
v -0.07532497 0.0748138 0.08314738
v -0.0742192343 0.0742303059 0.08316301
v -0.07640679 0.07544051 0.08316301
v -0.0752564445 0.07493766 0.0832523257
v -0.07414183 0.07437022 0.0832929
v -0.07632938 0.07558042 0.0832929
v -0.07519762 0.07504398 0.08338122
v -0.0740789548 0.07448387 0.08345279
v -0.07626651 0.07569408 0.08345279
v -0.07515116 0.07512796 0.08352791
v -0.0740340352 0.07456507 0.0836319
v -0.0762215853 0.0757752657 0.0836319
v -0.07511848 0.07518703 0.08368491
v -0.07400813 0.0746118948 0.08381803
v -0.07619569 0.0758221 0.08381803
v -0.07509971 0.0752209648 0.08384453
v -0.0740000457 0.0746265054 0.08400001
v -0.0761875957 0.0758367 0.08400001
v -0.07617217 0.09982754 0.08400001
v -0.07223457 0.09764917 0.08400001
v -0.07225478 0.09761265 0.08354509
v -0.07422999 0.09869026 0.08347866
v -0.07619238 0.09979102 0.08354509
v -0.0723195449 0.0974955857 0.08307977
v -0.07625715 0.09967394 0.08307977
v -0.0743155852 0.09853554 0.0829487
v -0.07243185 0.09729259 0.0826319754
v -0.07636945 0.09947096 0.0826319754
v -0.07446289 0.09826927 0.08245306
v -0.07258903 0.09700845 0.08223224
v -0.07652664 0.09918682 0.08223224
v -0.0746647343 0.0979044139 0.08203609
v -0.07278255 0.09665867 0.08190751
v -0.07672015 0.09883703 0.08190751
v -0.0749046654 0.09747071 0.0817317963
v -0.07299931 0.09626684 0.08167553
v -0.0769369155 0.09844521 0.08167553
v -0.07516121 0.0970069841 0.0815549642
v -0.07322456 0.09585966 0.08154173
v -0.0754135847 0.09655079 0.0814999938
v -0.07716217 0.09803803 0.08154173
v -0.07344477 0.09546161 0.0814999938
v -0.07738238 0.09763998 0.0814999938
v -0.07366499 0.09506355 0.08154173
v -0.0776025951 0.09724192 0.08154173
v -0.07566595 0.09609461 0.0815549642
v -0.07389024 0.09465639 0.08167553
v -0.0778278559 0.09683475 0.08167553
v -0.0758590549 0.09574557 0.08167553
v -0.07604593 0.09540776 0.081868425
v -0.0741070062 0.09426457 0.08190751
v -0.0780446157 0.09644292 0.08190751
v -0.0762172341 0.09509812 0.08213082
v -0.07430051 0.09391478 0.08223224
v -0.07823813 0.09609314 0.08223224
v -0.07636427 0.09483233 0.08245306
v -0.074457705 0.09363064 0.0826319754
v -0.0783953145 0.0958090052 0.0826319754
v -0.07648043 0.09462236 0.0828197747
v -0.07457001 0.09342765 0.08307977
v -0.07850761 0.0956060141 0.08307977
v -0.07656214 0.09447467 0.08321224
v -0.0746347755 0.09331058 0.08354509
v -0.07857238 0.0954889357 0.08354509
v -0.07660907 0.09438984 0.0836112946
v -0.074654974 0.09327406 0.08400001
v -0.07859258 0.09545243 0.08400001
v -0.0746347755 0.09331058 0.08445491
v -0.07659718 0.0944113359 0.08452134
v -0.07857238 0.0954889357 0.08445491
v -0.07457 0.09342764 0.08492024
v -0.07850761 0.0956060141 0.08492024
v -0.07651158 0.09456606 0.0850513
v -0.074457705 0.09363064 0.08536802
v -0.0783953145 0.095809 0.08536802
v -0.07636428 0.09483233 0.0855469555
v -0.07430051 0.09391478 0.08576776
v -0.07823812 0.09609313 0.08576776
v -0.07616243 0.0951971859 0.0859639049
v -0.0741070062 0.09426456 0.08609249
v -0.0780446157 0.09644292 0.08609249
v -0.0759225 0.0956308842 0.08626822
v -0.07389024 0.0946563855 0.08632447
v -0.07782785 0.09683475 0.08632447
v -0.07566595 0.09609461 0.08644503
v -0.07366499 0.09506355 0.0864582658
v -0.0754135847 0.09655079 0.0865000039
v -0.0776025951 0.09724192 0.0864582658
v -0.0734447762 0.0954616144 0.0865000039
v -0.0773823857 0.09763998 0.0865000039
v -0.07322456 0.09585966 0.0864582658
v -0.07716217 0.09803803 0.0864582658
v -0.07516121 0.0970069841 0.08644503
v -0.072999306 0.0962668359 0.08632447
v -0.0769369155 0.09844521 0.08632447
v -0.0749681145 0.09735602 0.08632447
v -0.07478123 0.09769384 0.08613157
v -0.07278255 0.09665866 0.08609249
v -0.07672015 0.09883703 0.08609249
v -0.0746099353 0.09800348 0.08586919
v -0.0725890249 0.09700845 0.08576776
v -0.0765266344 0.09918682 0.08576776
v -0.07446289 0.09826927 0.0855469555
v -0.07243184 0.09729259 0.08536802
v -0.07636945 0.09947096 0.08536802
v -0.07434673 0.09847924 0.08518024
v -0.07231954 0.09749558 0.08492024
v -0.07625715 0.09967394 0.08492024
v -0.07426503 0.09862692 0.0847877562
v -0.07225478 0.09761265 0.08445491
v -0.07619238 0.09979102 0.08445491
v -0.0742180943 0.09871176 0.0843887
v -0.07223457 0.09764917 0.08400001
v -0.07617217 0.09982754 0.08400001
v -0.0705402941 0.100711748 0.08400001
v -0.065727666 0.09804931 0.08400001
v -0.0657761544 0.0979616642 0.08290823
v -0.06819783 0.09926511 0.0827487856
v -0.07058878 0.1006241 0.08290823
v -0.0659315959 0.09768069 0.08179143
v -0.07074422 0.100343131 0.08179143
v -0.0684032738 0.09889376 0.08147688
v -0.0662011057 0.09719351 0.0807167441
v -0.0710137337 0.09985596 0.0807167441
v -0.0687568039 0.09825472 0.08028732
v -0.0665783659 0.09651158 0.07975736
v -0.0713909939 0.09917402 0.07975736
v -0.0692412257 0.09737908 0.07928662
v -0.06704278 0.09567209 0.07897803
v -0.07185541 0.098334536 0.07897803
v -0.0698170662 0.09633818 0.0785563
v -0.06756303 0.09473172 0.07842128
v -0.0723756552 0.09739416 0.0784212649
v -0.0704327747 0.09522524 0.0781319141
v -0.06810364 0.0937545 0.0781001747
v -0.07103846 0.0941304 0.0779999942
v -0.07291627 0.09641694 0.0781001747
v -0.06863215 0.09279917 0.07800001
v -0.07344477 0.09546161 0.0779999942
v -0.0691606551 0.09184384 0.0781001747
v -0.07397328 0.09450628 0.0781001747
v -0.07164415 0.09303556 0.0781319141
v -0.06970127 0.0908666253 0.07842128
v -0.0745139 0.09352906 0.0784212649
v -0.07210758 0.09219785 0.0784212649
v -0.07255611 0.09138711 0.07888423
v -0.07022151 0.08992624 0.07897803
v -0.07503414 0.0925886855 0.07897803
v -0.07296723 0.09064396 0.07951395
v -0.07068593 0.0890867561 0.07975736
v -0.07549855 0.0917492062 0.07975736
v -0.07332012 0.0900060758 0.08028732
v -0.07106319 0.0884048343 0.0807167441
v -0.07587582 0.09106727 0.0807167441
v -0.07359891 0.08950214 0.08116746
v -0.07133271 0.0879176557 0.08179143
v -0.076145336 0.09058009 0.08179143
v -0.07379498 0.08914771 0.08210938
v -0.07148814 0.08763668 0.08290823
v -0.07630077 0.09029912 0.08290823
v -0.07390763 0.0889441 0.08306712
v -0.07153663 0.08754903 0.08400001
v -0.07634926 0.09021147 0.08400001
v -0.07148814 0.08763668 0.0850917846
v -0.07387909 0.08899568 0.08525121
v -0.07630077 0.09029912 0.0850917846
v -0.07133271 0.0879176557 0.08620857
v -0.076145336 0.09058009 0.08620857
v -0.07367365 0.08936703 0.08652313
v -0.07106319 0.08840483 0.08728327
v -0.07587582 0.09106727 0.08728325
v -0.07332012 0.0900060758 0.08771269
v -0.07068593 0.0890867561 0.08824265
v -0.07549855 0.0917492062 0.0882426351
v -0.0728357 0.0908817053 0.08871339
v -0.07022151 0.08992624 0.08902198
v -0.07503414 0.09258869 0.08902198
v -0.07225986 0.0919226 0.0894437
v -0.06970128 0.0908666253 0.08957873
v -0.0745139 0.09352906 0.08957873
v -0.07164415 0.09303556 0.0898681
v -0.0691606551 0.09184384 0.08989984
v -0.07103846 0.0941304 0.09
v -0.07397328 0.0945062861 0.08989984
v -0.06863215 0.09279917 0.09
v -0.0734447762 0.0954616144 0.09
v -0.06810364 0.0937545 0.08989984
v -0.07291627 0.09641695 0.08989984
v -0.0704327747 0.09522524 0.0898681
v -0.06756303 0.09473172 0.08957873
v -0.0723756552 0.09739416 0.08957873
v -0.06996934 0.09606294 0.08957873
v -0.0695208162 0.09687368 0.08911577
v -0.06704278 0.09567209 0.08902198
v -0.07185541 0.098334536 0.08902198
v -0.0691097 0.09761683 0.08848606
v -0.06657837 0.09651159 0.08824265
v -0.0713909939 0.09917402 0.0882426351
v -0.0687568039 0.09825472 0.08771269
v -0.0662011057 0.09719351 0.08728327
v -0.0710137337 0.09985596 0.08728325
v -0.06847802 0.09875865 0.08683255
v -0.0659315959 0.09768069 0.08620857
v -0.07074422 0.100343131 0.08620857
v -0.06828194 0.09911308 0.08589062
v -0.0657761544 0.0979616642 0.0850917846
v -0.07058878 0.1006241 0.0850917846
v -0.0681693 0.09931669 0.08493289
v -0.065727666 0.09804931 0.08400001
v -0.0705402941 0.100711748 0.08400001
v -0.07559751 0.07173893 0.09
v -0.07327393 0.0759390444 0.09
v -0.0777850747 0.0729491338 0.09
v -0.07546148 0.07714924 0.09
v -0.06863215 0.09279917 0.09
v -0.07686152 0.0779237747 0.09
v -0.06140683 0.08251643 0.09
v -0.05708599 0.06698354 0.09
v -0.0459521338 0.08710908 0.09
v -0.06214007 0.096064575 0.09
v -0.06432763 0.09727478 0.09
v -0.065727666 0.0980493054 0.09
v -0.05981648 0.1002647 0.09
v -0.0620040335 0.101474896 0.09
v -0.07559751 0.07173893 0.07800001
v -0.07778507 0.07294913 0.07800001
v -0.07327393 0.0759390444 0.07800001
v -0.07546148 0.07714924 0.07800001
v -0.06863215 0.09279917 0.07800001
v -0.07686152 0.0779237747 0.07800001
v -0.0614068247 0.08251643 0.07800001
v -0.05708599 0.06698354 0.07800001
v -0.0459521338 0.08710908 0.07800001
v -0.06214007 0.096064575 0.07800001
v -0.06432763 0.09727478 0.07800001
v -0.065727666 0.0980493054 0.07800001
v -0.05981648 0.1002647 0.07800001
v -0.0620040335 0.101474896 0.07800001
v -0.07327393 0.0759390444 0.07800001
v -0.07400813 0.0746118948 0.08381803
v -0.0740340352 0.07456507 0.0836319
v -0.0740789548 0.07448387 0.08345279
v -0.07414183 0.07437022 0.0832929
v -0.0742192343 0.0742303059 0.08316301
v -0.07430594 0.0740735754 0.08307022
v -0.074396044 0.0739107057 0.08301669
v -0.0740000457 0.0746265054 0.08400001
v -0.0744841248 0.07375148 0.0830000043
v -0.07327393 0.0759390444 0.09
v -0.07400813 0.0746118948 0.0841819644
v -0.0740340352 0.07456507 0.0843680948
v -0.07559751 0.07173893 0.07800001
v -0.07457221 0.07359226 0.08301669
v -0.07466231 0.07342939 0.08307022
v -0.0740789548 0.07448387 0.08454721
v -0.07474902 0.07327266 0.08316301
v -0.07414183 0.07437022 0.08470711
v -0.07482643 0.07313275 0.0832929
v -0.0742192343 0.0742303059 0.0848370045
v -0.0748893 0.07301909 0.08345279
v -0.07430594 0.0740735754 0.0849297941
v -0.074396044 0.0739107057 0.0849833041
v -0.0744841248 0.07375148 0.08500001
v -0.07559751 0.07173893 0.09
v -0.07457221 0.07359226 0.0849833041
v -0.07466231 0.07342939 0.0849297941
v -0.07493422 0.0729379 0.0836319
v -0.07496013 0.07289107 0.08381803
v -0.0749682039 0.07287646 0.08400001
v -0.07474902 0.07327266 0.0848370045
v -0.07496013 0.07289107 0.0841819644
v -0.07482643 0.07313275 0.08470711
v -0.0749342144 0.07293789 0.0843680948
v -0.0748893 0.0730190948 0.08454721
v -0.0766912848 0.0723440349 0.08400001
v -0.0777850747 0.0729491338 0.09
v -0.07778507 0.07294913 0.07800001
v -0.07559751 0.07173893 0.07800001
v -0.07559751 0.07173893 0.09
v -0.07546148 0.07714924 0.09
v -0.07619569 0.0758221 0.0841819644
v -0.07622159 0.0757752657 0.0843680948
v -0.07626651 0.07569408 0.08454721
v -0.07632938 0.07558042 0.08470711
v -0.07640679 0.07544051 0.0848370045
v -0.0764935 0.07528378 0.0849297941
v -0.0765835941 0.07512091 0.0849833041
v -0.0761875957 0.0758367 0.08400001
v -0.07667168 0.0749616846 0.08500001
v -0.07546148 0.07714924 0.07800001
v -0.07619569 0.0758221 0.08381803
v -0.0762215853 0.0757752657 0.0836319
v -0.0777850747 0.0729491338 0.09
v -0.07675977 0.07480246 0.0849833041
v -0.07684987 0.074639596 0.0849297941
v -0.07626651 0.07569408 0.08345279
v -0.07693657 0.07448286 0.0848370045
v -0.07632938 0.07558042 0.0832929
v -0.0770139843 0.07434295 0.08470711
v -0.07640679 0.07544051 0.08316301
v -0.07707685 0.07422929 0.08454721
v -0.0764934942 0.07528378 0.08307022
v -0.0765835941 0.07512091 0.08301669
v -0.07667168 0.0749616846 0.0830000043
v -0.07778507 0.07294913 0.07800001
v -0.07675977 0.07480246 0.08301669
v -0.07684987 0.07463959 0.08307022
v -0.07712178 0.0741480961 0.0843680948
v -0.077147685 0.07410127 0.0841819644
v -0.07715576 0.0740866661 0.08400001
v -0.07693657 0.07448286 0.08316301
v -0.07714768 0.07410127 0.08381803
v -0.0770139843 0.07434295 0.0832929
v -0.07712178 0.0741480961 0.0836319
v -0.07707685 0.07422929 0.08345279
v -0.0761615038 0.07753651 0.08400001
v -0.07686152 0.0779237747 0.09
v -0.07686152 0.0779237747 0.07800001
v -0.07546148 0.07714924 0.07800001
v -0.07546148 0.07714924 0.09
v -0.06432763 0.09727478 0.09
v -0.06502765 0.09766205 0.08400001
v -0.065727666 0.0980493054 0.09
v -0.06432763 0.09727478 0.07800001
v -0.065727666 0.09804931 0.08400001
v -0.065727666 0.0980493054 0.07800001
v -0.0620040335 0.101474896 0.09
v -0.06264143 0.100322753 0.0841819644
v -0.0626673251 0.100275926 0.0843680948
v -0.06271225 0.10019473 0.08454721
v -0.06277512 0.100081071 0.08470711
v -0.06285253 0.0999411643 0.0848370045
v -0.06293924 0.0997844338 0.0849297941
v -0.0630293339 0.0996215641 0.0849833041
v -0.0626333356 0.100337364 0.08400001
v -0.0631174147 0.0994623452 0.08500001
v -0.0620040335 0.101474896 0.07800001
v -0.06264143 0.100322753 0.08381803
v -0.0626673251 0.100275926 0.0836319
v -0.06432763 0.09727478 0.09
v -0.06320551 0.09930312 0.0849833041
v -0.06329561 0.09914025 0.0849297941
v -0.06271225 0.10019473 0.08345279
v -0.06338231 0.0989835262 0.0848370045
v -0.06277512 0.100081071 0.0832929
v -0.06345972 0.0988436043 0.08470711
v -0.06285253 0.0999411643 0.08316301
v -0.06352259 0.09872995 0.08454721
v -0.0629392341 0.0997844338 0.08307022
v -0.0630293339 0.0996215641 0.08301669
v -0.0631174147 0.0994623452 0.0830000043
v -0.06432763 0.09727478 0.07800001
v -0.06320551 0.09930312 0.08301669
v -0.0632956 0.09914025 0.08307022
v -0.06356752 0.09864876 0.0843680948
v -0.06359342 0.09860192 0.0841819644
v -0.0636015 0.09858732 0.08400001
v -0.06338231 0.0989835262 0.08316301
v -0.06359342 0.09860192 0.08381803
v -0.06345972 0.0988436043 0.0832929
v -0.06356752 0.09864876 0.0836319
v -0.06352259 0.09872995 0.08345279
v -0.0609102547 0.10086979 0.08400001
v -0.05981648 0.1002647 0.09
v -0.05981648 0.1002647 0.07800001
v -0.0620040335 0.101474896 0.07800001
v -0.0620040335 0.101474896 0.09
v -0.05981648 0.1002647 0.07800001
v -0.06045387 0.0991125554 0.08381803
v -0.0604797751 0.09906572 0.0836319
v -0.06052469 0.0989845246 0.08345279
v -0.06058757 0.09887087 0.0832929
v -0.0606649742 0.09873096 0.08316301
v -0.0607516766 0.09857423 0.08307022
v -0.0608417839 0.09841136 0.08301669
v -0.0604457855 0.09912716 0.08400001
v -0.0609298646 0.09825214 0.0830000043
v -0.05981648 0.1002647 0.09
v -0.06045387 0.0991125554 0.0841819644
v -0.06047977 0.09906572 0.0843680948
v -0.06214007 0.096064575 0.07800001
v -0.0610179529 0.09809291 0.08301669
v -0.0611080527 0.0979300439 0.08307022
v -0.0605246946 0.0989845246 0.08454721
v -0.0611947551 0.09777332 0.08316301
v -0.06058757 0.09887087 0.08470711
v -0.06127216 0.09763341 0.0832929
v -0.0606649742 0.09873096 0.0848370045
v -0.06133504 0.09751975 0.08345279
v -0.0607516766 0.09857423 0.0849297941
v -0.06084178 0.09841136 0.0849833041
v -0.0609298646 0.09825214 0.08500001
v -0.06214007 0.096064575 0.09
v -0.0610179529 0.09809291 0.0849833041
v -0.0611080527 0.0979300439 0.0849297941
v -0.06137996 0.09743855 0.0836319
v -0.0614058636 0.0973917246 0.08381803
v -0.0614139438 0.097377114 0.08400001
v -0.0611947551 0.09777332 0.0848370045
v -0.0614058673 0.0973917246 0.0841819644
v -0.06127216 0.09763341 0.08470711
v -0.0613799579 0.09743855 0.0843680948
v -0.0613350421 0.09751975 0.08454721
v -0.0540461019 0.09158683 0.08400001
v -0.0459521338 0.08710908 0.09
v -0.0459521338 0.08710908 0.07800001
v -0.06214007 0.096064575 0.07800001
v -0.06214007 0.096064575 0.09
v -0.0515190624 0.07704631 0.08400001
v -0.05708599 0.06698354 0.09
v -0.05708599 0.06698354 0.07800001
v -0.0459521338 0.08710908 0.07800001
v -0.0459521338 0.08710908 0.09
v -0.0659315959 0.09768069 0.08620857
v -0.065727666 0.0980493054 0.09
v -0.0657761544 0.0979616642 0.0850917846
v -0.0662011057 0.09719351 0.08728327
v -0.065727666 0.09804931 0.08400001
v -0.06657837 0.09651159 0.08824265
v -0.06704278 0.09567209 0.08902198
v -0.06756303 0.09473172 0.08957873
v -0.06810364 0.0937545 0.08989984
v -0.06863215 0.09279917 0.09
v -0.065727666 0.0980493054 0.07800001
v -0.0657761544 0.0979616642 0.08290823
v -0.0659315959 0.09768069 0.08179143
v -0.0662011057 0.09719351 0.0807167441
v -0.0665783659 0.09651158 0.07975736
v -0.06704278 0.09567209 0.07897803
v -0.06756303 0.09473172 0.07842128
v -0.06810364 0.0937545 0.0781001747
v -0.06863215 0.09279917 0.07800001
v -0.0691606551 0.09184384 0.08989984
v -0.07686152 0.0779237747 0.09
v -0.06970128 0.0908666253 0.08957873
v -0.07022151 0.08992624 0.08902198
v -0.07068593 0.0890867561 0.08824265
v -0.07106319 0.08840483 0.08728327
v -0.07133271 0.0879176557 0.08620857
v -0.0727468356 0.08536147 0.08400001
v -0.07686152 0.0779237747 0.07800001
v -0.0691606551 0.09184384 0.0781001747
v -0.07148814 0.08763668 0.0850917846
v -0.06970127 0.0908666253 0.07842128
v -0.07153663 0.08754903 0.08400001
v -0.07148814 0.08763668 0.08290823
v -0.07133271 0.0879176557 0.08179143
v -0.07022151 0.08992624 0.07897803
v -0.07106319 0.0884048343 0.0807167441
v -0.07068593 0.0890867561 0.07975736
v -0.07344477 0.09546161 0.0814999938
v -0.07344477 0.09546161 0.0779999942
v -0.07397328 0.09450628 0.0781001747
v -0.07291627 0.09641694 0.0781001747
v -0.07366499 0.09506355 0.08154173
v -0.07322456 0.09585966 0.08154173
v -0.0745139 0.09352906 0.0784212649
v -0.0723756552 0.09739416 0.0784212649
v -0.07389024 0.09465639 0.08167553
v -0.07299931 0.09626684 0.08167553
v -0.07503414 0.0925886855 0.07897803
v -0.07185541 0.098334536 0.07897803
v -0.0741070062 0.09426457 0.08190751
v -0.07278255 0.09665867 0.08190751
v -0.07549855 0.0917492062 0.07975736
v -0.0713909939 0.09917402 0.07975736
v -0.07430051 0.09391478 0.08223224
v -0.07258903 0.09700845 0.08223224
v -0.07587582 0.09106727 0.0807167441
v -0.0710137337 0.09985596 0.0807167441
v -0.074457705 0.09363064 0.0826319754
v -0.07243185 0.09729259 0.0826319754
v -0.076145336 0.09058009 0.08179143
v -0.07074422 0.100343131 0.08179143
v -0.07457001 0.09342765 0.08307977
v -0.0723195449 0.0974955857 0.08307977
v -0.07630077 0.09029912 0.08290823
v -0.07058878 0.1006241 0.08290823
v -0.0746347755 0.09331058 0.08354509
v -0.07225478 0.09761265 0.08354509
v -0.07634926 0.09021147 0.08400001
v -0.074654974 0.09327406 0.08400001
v -0.0705402941 0.100711748 0.08400001
v -0.07223457 0.09764917 0.08400001
v -0.07225478 0.09761265 0.08445491
v -0.07058878 0.1006241 0.0850917846
v -0.07231954 0.09749558 0.08492024
v -0.07074422 0.100343131 0.08620857
v -0.07243184 0.09729259 0.08536802
v -0.0710137337 0.09985596 0.08728325
v -0.0725890249 0.09700845 0.08576776
v -0.0713909939 0.09917402 0.0882426351
v -0.07278255 0.09665866 0.08609249
v -0.07185541 0.098334536 0.08902198
v -0.072999306 0.0962668359 0.08632447
v -0.0723756552 0.09739416 0.08957873
v -0.07322456 0.09585966 0.0864582658
v -0.07291627 0.09641695 0.08989984
v -0.0734447762 0.0954616144 0.09
v -0.0734447762 0.0954616144 0.0865000039
v -0.07397328 0.0945062861 0.08989984
v -0.07366499 0.09506355 0.0864582658
v -0.0745139 0.09352906 0.08957873
v -0.07389024 0.0946563855 0.08632447
v -0.07503414 0.09258869 0.08902198
v -0.0741070062 0.09426456 0.08609249
v -0.07549855 0.0917492062 0.0882426351
v -0.07430051 0.09391478 0.08576776
v -0.07587582 0.09106727 0.08728325
v -0.074457705 0.09363064 0.08536802
v -0.076145336 0.09058009 0.08620857
v -0.07457 0.09342764 0.08492024
v -0.07630077 0.09029912 0.0850917846
v -0.0746347755 0.09331058 0.08445491
v -0.07636945 0.09947096 0.0826319754
v -0.07738238 0.09763998 0.08400001
v -0.07625715 0.09967394 0.08307977
v -0.07652664 0.09918682 0.08223224
v -0.07619238 0.09979102 0.08354509
v -0.07672015 0.09883703 0.08190751
v -0.07617217 0.09982754 0.08400001
v -0.0769369155 0.09844521 0.08167553
v -0.07619238 0.09979102 0.08445491
v -0.07716217 0.09803803 0.08154173
v -0.07625715 0.09967394 0.08492024
v -0.07738238 0.09763998 0.0814999938
v -0.07636945 0.09947096 0.08536802
v -0.0776025951 0.09724192 0.08154173
v -0.0765266344 0.09918682 0.08576776
v -0.0778278559 0.09683475 0.08167553
v -0.07672015 0.09883703 0.08609249
v -0.0780446157 0.09644292 0.08190751
v -0.0769369155 0.09844521 0.08632447
v -0.07823813 0.09609314 0.08223224
v -0.07716217 0.09803803 0.0864582658
v -0.0783953145 0.0958090052 0.0826319754
v -0.0773823857 0.09763998 0.0865000039
v -0.07850761 0.0956060141 0.08307977
v -0.0776025951 0.09724192 0.0864582658
v -0.07857238 0.0954889357 0.08354509
v -0.07782785 0.09683475 0.08632447
v -0.07859258 0.09545243 0.08400001
v -0.0780446157 0.09644292 0.08609249
v -0.07857238 0.0954889357 0.08445491
v -0.07823812 0.09609313 0.08576776
v -0.07850761 0.0956060141 0.08492024
v -0.0783953145 0.095809 0.08536802
v -0.05708599 0.06698354 0.09
v -0.06517996 0.07146129 0.08400001
v -0.05708599 0.06698354 0.07800001
v -0.07327393 0.0759390444 0.09
v -0.07327393 0.0759390444 0.07800001
f 1 2 3
f 1 3 4
f 5 1 4
f 4 3 6
f 7 5 4
f 8 4 6
f 7 4 8
f 8 6 9
f 10 7 8
f 11 8 9
f 10 8 11
f 11 9 12
f 13 10 11
f 14 11 12
f 13 11 14
f 14 12 15
f 16 13 14
f 17 14 15
f 16 14 17
f 17 15 18
f 19 16 17
f 20 17 18
f 19 17 20
f 20 18 21
f 22 20 21
f 23 19 20
f 23 20 22
f 22 21 24
f 25 23 22
f 26 22 24
f 27 25 22
f 28 22 26
f 27 22 28
f 29 28 26
f 30 27 28
f 31 28 29
f 31 30 28
f 32 31 29
f 31 32 30
f 32 29 33
f 32 34 30
f 35 32 33
f 32 35 34
f 35 33 36
f 35 37 34
f 38 35 36
f 35 38 37
f 38 36 39
f 38 40 37
f 41 38 39
f 38 41 40
f 41 39 42
f 41 43 40
f 44 41 42
f 41 44 43
f 44 42 45
f 44 46 43
f 47 44 45
f 44 47 46
f 47 45 48
f 46 47 49
f 47 48 49
f 48 50 49
f 50 51 49
f 49 51 52
f 50 53 51
f 51 54 52
f 53 55 51
f 51 55 54
f 53 56 55
f 55 57 54
f 56 58 55
f 55 58 57
f 56 59 58
f 58 60 57
f 59 61 58
f 58 61 60
f 59 62 61
f 61 63 60
f 62 64 61
f 61 64 63
f 62 65 64
f 64 66 63
f 65 67 64
f 64 67 66
f 65 68 67
f 68 69 67
f 67 70 66
f 67 69 70
f 68 71 69
f 69 72 70
f 71 73 69
f 69 74 72
f 73 75 69
f 69 75 74
f 73 76 75
f 75 77 74
f 76 78 75
f 75 78 77
f 76 79 78
f 79 77 78
f 80 79 76
f 79 81 77
f 82 79 80
f 79 82 81
f 83 82 80
f 82 84 81
f 85 82 83
f 82 85 84
f 86 85 83
f 85 87 84
f 88 85 86
f 85 88 87
f 89 88 86
f 88 90 87
f 91 88 89
f 88 91 90
f 92 91 89
f 91 93 90
f 94 91 92
f 91 94 93
f 95 94 92
f 94 96 93
f 94 95 96
f 97 98 99
f 97 99 100
f 101 97 100
f 100 99 102
f 103 101 100
f 104 100 102
f 103 100 104
f 104 102 105
f 106 103 104
f 107 104 105
f 106 104 107
f 107 105 108
f 109 106 107
f 110 107 108
f 109 107 110
f 110 108 111
f 112 109 110
f 113 110 111
f 112 110 113
f 113 111 114
f 115 112 113
f 116 113 114
f 115 113 116
f 116 114 117
f 118 116 117
f 119 115 116
f 119 116 118
f 118 117 120
f 121 119 118
f 122 118 120
f 123 121 118
f 124 118 122
f 123 118 124
f 125 124 122
f 126 123 124
f 127 124 125
f 127 126 124
f 128 127 125
f 127 128 126
f 128 125 129
f 128 130 126
f 131 128 129
f 128 131 130
f 131 129 132
f 131 133 130
f 134 131 132
f 131 134 133
f 134 132 135
f 134 136 133
f 137 134 135
f 134 137 136
f 137 135 138
f 137 139 136
f 140 137 138
f 137 140 139
f 140 138 141
f 140 142 139
f 143 140 141
f 140 143 142
f 143 141 144
f 142 143 145
f 143 144 145
f 144 146 145
f 146 147 145
f 145 147 148
f 146 149 147
f 147 150 148
f 149 151 147
f 147 151 150
f 149 152 151
f 151 153 150
f 152 154 151
f 151 154 153
f 152 155 154
f 154 156 153
f 155 157 154
f 154 157 156
f 155 158 157
f 157 159 156
f 158 160 157
f 157 160 159
f 158 161 160
f 160 162 159
f 161 163 160
f 160 163 162
f 161 164 163
f 164 165 163
f 163 166 162
f 163 165 166
f 164 167 165
f 165 168 166
f 167 169 165
f 165 170 168
f 169 171 165
f 165 171 170
f 169 172 171
f 171 173 170
f 172 174 171
f 171 174 173
f 172 175 174
f 175 173 174
f 176 175 172
f 175 177 173
f 178 175 176
f 175 178 177
f 179 178 176
f 178 180 177
f 181 178 179
f 178 181 180
f 182 181 179
f 181 183 180
f 184 181 182
f 181 184 183
f 185 184 182
f 184 186 183
f 187 184 185
f 184 187 186
f 188 187 185
f 187 189 186
f 190 187 188
f 187 190 189
f 191 190 188
f 190 192 189
f 190 191 192
f 193 194 195
f 193 195 196
f 197 193 196
f 196 195 198
f 199 197 196
f 200 196 198
f 199 196 200
f 200 198 201
f 202 199 200
f 203 200 201
f 202 200 203
f 203 201 204
f 205 202 203
f 206 203 204
f 205 203 206
f 206 204 207
f 208 205 206
f 209 206 207
f 208 206 209
f 209 207 210
f 211 208 209
f 212 209 210
f 211 209 212
f 212 210 213
f 214 212 213
f 215 211 212
f 215 212 214
f 214 213 216
f 217 215 214
f 218 214 216
f 219 217 214
f 220 214 218
f 219 214 220
f 221 220 218
f 222 219 220
f 223 220 221
f 223 222 220
f 224 223 221
f 223 224 222
f 224 221 225
f 224 226 222
f 227 224 225
f 224 227 226
f 227 225 228
f 227 229 226
f 230 227 228
f 227 230 229
f 230 228 231
f 230 232 229
f 233 230 231
f 230 233 232
f 233 231 234
f 233 235 232
f 236 233 234
f 233 236 235
f 236 234 237
f 236 238 235
f 239 236 237
f 236 239 238
f 239 237 240
f 238 239 241
f 239 240 241
f 240 242 241
f 242 243 241
f 241 243 244
f 242 245 243
f 243 246 244
f 245 247 243
f 243 247 246
f 245 248 247
f 247 249 246
f 248 250 247
f 247 250 249
f 248 251 250
f 250 252 249
f 251 253 250
f 250 253 252
f 251 254 253
f 253 255 252
f 254 256 253
f 253 256 255
f 254 257 256
f 256 258 255
f 257 259 256
f 256 259 258
f 257 260 259
f 260 261 259
f 259 262 258
f 259 261 262
f 260 263 261
f 261 264 262
f 263 265 261
f 261 266 264
f 265 267 261
f 261 267 266
f 265 268 267
f 267 269 266
f 268 270 267
f 267 270 269
f 268 271 270
f 271 269 270
f 272 271 268
f 271 273 269
f 274 271 272
f 271 274 273
f 275 274 272
f 274 276 273
f 277 274 275
f 274 277 276
f 278 277 275
f 277 279 276
f 280 277 278
f 277 280 279
f 281 280 278
f 280 282 279
f 283 280 281
f 280 283 282
f 284 283 281
f 283 285 282
f 286 283 284
f 283 286 285
f 287 286 284
f 286 288 285
f 286 287 288
f 289 290 291
f 289 291 292
f 293 289 292
f 292 291 294
f 295 293 292
f 296 292 294
f 295 292 296
f 296 294 297
f 298 295 296
f 299 296 297
f 298 296 299
f 299 297 300
f 301 298 299
f 302 299 300
f 301 299 302
f 302 300 303
f 304 301 302
f 305 302 303
f 304 302 305
f 305 303 306
f 307 304 305
f 308 305 306
f 307 305 308
f 308 306 309
f 310 308 309
f 311 307 308
f 311 308 310
f 310 309 312
f 313 311 310
f 314 310 312
f 315 313 310
f 316 310 314
f 315 310 316
f 317 316 314
f 318 315 316
f 319 316 317
f 319 318 316
f 320 319 317
f 319 320 318
f 320 317 321
f 320 322 318
f 323 320 321
f 320 323 322
f 323 321 324
f 323 325 322
f 326 323 324
f 323 326 325
f 326 324 327
f 326 328 325
f 329 326 327
f 326 329 328
f 329 327 330
f 329 331 328
f 332 329 330
f 329 332 331
f 332 330 333
f 332 334 331
f 335 332 333
f 332 335 334
f 335 333 336
f 334 335 337
f 335 336 337
f 336 338 337
f 338 339 337
f 337 339 340
f 338 341 339
f 339 342 340
f 341 343 339
f 339 343 342
f 341 344 343
f 343 345 342
f 344 346 343
f 343 346 345
f 344 347 346
f 346 348 345
f 347 349 346
f 346 349 348
f 347 350 349
f 349 351 348
f 350 352 349
f 349 352 351
f 350 353 352
f 352 354 351
f 353 355 352
f 352 355 354
f 353 356 355
f 356 357 355
f 355 358 354
f 355 357 358
f 356 359 357
f 357 360 358
f 359 361 357
f 357 362 360
f 361 363 357
f 357 363 362
f 361 364 363
f 363 365 362
f 364 366 363
f 363 366 365
f 364 367 366
f 367 365 366
f 368 367 364
f 367 369 365
f 370 367 368
f 367 370 369
f 371 370 368
f 370 372 369
f 373 370 371
f 370 373 372
f 374 373 371
f 373 375 372
f 376 373 374
f 373 376 375
f 377 376 374
f 376 378 375
f 379 376 377
f 376 379 378
f 380 379 377
f 379 381 378
f 382 379 380
f 379 382 381
f 383 382 380
f 382 384 381
f 382 383 384
f 385 386 387
f 386 388 387
f 386 389 388
f 389 390 388
f 391 389 386
f 392 391 386
f 391 392 393
f 391 393 394
f 389 391 394
f 389 394 395
f 396 389 395
f 395 394 397
f 398 395 397
f 399 400 401
f 400 402 401
f 402 403 401
f 402 404 403
f 403 405 401
f 405 406 401
f 405 407 406
f 407 405 408
f 405 403 408
f 403 409 408
f 409 403 410
f 409 411 408
f 409 412 411
f 413 414 415
f 416 413 415
f 413 416 417
f 413 417 418
f 419 413 418
f 413 419 420
f 413 421 414
f 413 420 422
f 413 423 421
f 423 424 421
f 423 425 424
f 426 413 422
f 426 422 427
f 426 427 428
f 425 423 429
f 430 426 428
f 423 431 429
f 426 430 432
f 423 433 431
f 426 432 434
f 433 423 435
f 423 436 435
f 423 437 436
f 423 438 437
f 438 439 437
f 438 440 439
f 441 426 434
f 426 441 442
f 426 442 443
f 438 426 443
f 440 438 444
f 438 443 445
f 438 446 444
f 438 445 447
f 438 448 446
f 448 438 447
f 449 450 451
f 449 451 452
f 450 449 453
f 453 449 452
f 454 455 456
f 457 454 456
f 454 457 458
f 454 458 459
f 460 454 459
f 454 460 461
f 454 462 455
f 454 461 463
f 454 464 462
f 464 465 462
f 464 466 465
f 467 454 463
f 467 463 468
f 467 468 469
f 466 464 470
f 471 467 469
f 464 472 470
f 467 471 473
f 464 474 472
f 467 473 475
f 474 464 476
f 464 477 476
f 464 478 477
f 464 479 478
f 479 480 478
f 479 481 480
f 482 467 475
f 467 482 483
f 467 483 484
f 479 467 484
f 481 479 485
f 479 484 486
f 479 487 485
f 479 486 488
f 479 489 487
f 489 479 488
f 490 491 492
f 490 492 493
f 491 490 494
f 494 490 493
f 495 496 497
f 496 495 498
f 496 499 497
f 496 498 500
f 499 496 500
f 501 502 503
f 504 501 503
f 501 504 505
f 501 505 506
f 507 501 506
f 501 507 508
f 501 509 502
f 501 508 510
f 501 511 509
f 511 512 509
f 511 513 512
f 514 501 510
f 514 510 515
f 514 515 516
f 513 511 517
f 518 514 516
f 511 519 517
f 514 518 520
f 511 521 519
f 514 520 522
f 521 511 523
f 511 524 523
f 511 525 524
f 511 526 525
f 526 527 525
f 526 528 527
f 529 514 522
f 514 529 530
f 514 530 531
f 526 514 531
f 528 526 532
f 526 531 533
f 526 534 532
f 526 533 535
f 526 536 534
f 536 526 535
f 537 538 539
f 537 539 540
f 538 537 541
f 541 537 540
f 542 543 544
f 545 542 544
f 542 545 546
f 542 546 547
f 548 542 547
f 542 548 549
f 542 550 543
f 542 549 551
f 542 552 550
f 552 553 550
f 552 554 553
f 555 542 551
f 555 551 556
f 555 556 557
f 554 552 558
f 559 555 557
f 552 560 558
f 555 559 561
f 552 562 560
f 555 561 563
f 562 552 564
f 552 565 564
f 552 566 565
f 552 567 566
f 567 568 566
f 567 569 568
f 570 555 563
f 555 570 571
f 555 571 572
f 567 555 572
f 569 567 573
f 567 572 574
f 567 575 573
f 567 574 576
f 567 577 575
f 577 567 576
f 578 579 580
f 578 580 581
f 579 578 582
f 582 578 581
f 583 584 585
f 583 585 586
f 584 583 587
f 587 583 586
f 588 589 590
f 589 588 591
f 589 592 590
f 589 591 593
f 594 589 593
f 589 594 595
f 589 595 596
f 597 589 596
f 592 598 599
f 598 600 599
f 598 601 600
f 601 598 602
f 598 603 602
f 598 604 603
f 604 598 605
f 598 606 605
f 607 608 597
f 608 607 609
f 608 609 610
f 611 608 610
f 608 611 612
f 608 612 613
f 614 608 613
f 608 614 615
f 606 615 616
f 614 613 617
f 615 618 616
f 619 614 617
f 614 619 620
f 614 620 621
f 615 614 621
f 615 622 618
f 615 621 623
f 622 615 624
f 615 623 624
f 625 626 627
f 625 628 626
f 629 625 627
f 625 630 628
f 629 627 631
f 630 632 628
f 633 629 631
f 630 634 632
f 633 631 635
f 634 636 632
f 637 633 635
f 634 638 636
f 637 635 639
f 638 640 636
f 641 637 639
f 638 642 640
f 641 639 643
f 642 644 640
f 645 641 643
f 642 646 644
f 645 643 647
f 646 648 644
f 649 645 647
f 646 650 648
f 649 647 651
f 650 652 648
f 653 649 651
f 650 654 652
f 653 651 655
f 656 653 655
f 654 657 652
f 657 654 658
f 657 658 659
f 660 657 659
f 659 661 660
f 661 662 660
f 661 663 662
f 663 664 662
f 663 665 664
f 665 666 664
f 665 667 666
f 667 668 666
f 667 669 668
f 669 670 668
f 669 671 670
f 671 672 670
f 671 673 672
f 671 674 673
f 674 675 673
f 674 676 675
f 676 677 675
f 676 678 677
f 678 679 677
f 678 680 679
f 680 681 679
f 680 682 681
f 682 683 681
f 682 684 683
f 684 685 683
f 684 686 685
f 686 687 685
f 686 688 687
f 688 656 687
f 656 655 687
f 689 690 691
f 690 689 692
f 690 693 691
f 690 692 694
f 693 690 695
f 696 690 694
f 690 697 695
f 690 696 698
f 690 699 697
f 690 698 700
f 699 690 701
f 702 690 700
f 690 703 701
f 690 702 704
f 690 705 703
f 690 704 706
f 705 690 707
f 708 690 706
f 690 709 707
f 690 708 710
f 690 711 709
f 690 710 712
f 711 690 713
f 714 690 712
f 690 715 713
f 690 714 716
f 690 717 715
f 690 716 718
f 717 690 719
f 720 690 718
f 690 721 719
f 690 720 721
f 722 723 724
f 725 723 722
f 723 726 724
f 723 725 726
