# ROS coordinates: X forward, Y left, Z up; units are metres.
o mesh
v -0.138569608 -0.035 0.0187709816
v -0.1386055 -0.035 0.0191622023
v -0.1390696 -0.0345000029 0.0187709816
v -0.138861373 -0.03475 0.0191671979
v -0.139097139 -0.0345000029 0.01907122
v -0.138720557 -0.035 0.0195623841
v -0.139185458 -0.0345000029 0.019378338
v -0.138995767 -0.03475 0.01956997
v -0.138920054 -0.035 0.01994748
v -0.139338553 -0.0345000029 0.0196738765
v -0.139227033 -0.03475 0.0199466646
v -0.139199317 -0.035 0.0202912614
v -0.139552876 -0.0345000029 0.0199377071
v -0.139543921 -0.03475 0.0202635527
v -0.1395431 -0.035 0.0205705222
v -0.1398167 -0.0345000029 0.0201520231
v -0.1399206 -0.03475 0.0204948187
v -0.139928192 -0.035 0.0207700245
v -0.140112251 -0.0345000029 0.0203051325
v -0.140323386 -0.03475 0.0206292085
v -0.140328377 -0.035 0.0208850875
v -0.1407196 -0.03475 0.02067098
v -0.140419364 -0.0345000029 0.020393433
v -0.1407196 -0.035 0.02092098
v -0.1407196 -0.0345000029 0.0204209816
v -0.141110823 -0.035 0.0208850875
v -0.141019836 -0.0345000029 0.020393433
v -0.141115814 -0.03475 0.0206292085
v -0.141511008 -0.035 0.0207700245
v -0.141326964 -0.0345000029 0.0203051325
v -0.141418979 -0.03475 0.0205375776
v -0.1417124 -0.03475 0.0203909762
v -0.1418961 -0.035 0.0205705222
v -0.141622484 -0.0345000029 0.0201520231
v -0.141981319 -0.03475 0.0201915614
v -0.142239884 -0.035 0.0202912614
v -0.141886324 -0.0345000029 0.0199377071
v -0.142212167 -0.03475 0.0199466646
v -0.142519146 -0.035 0.01994748
v -0.142100647 -0.0345000029 0.0196738765
v -0.142394543 -0.03475 0.0196679533
v -0.142718643 -0.035 0.0195623841
v -0.142253757 -0.0345000029 0.019378338
v -0.142522812 -0.03475 0.0193696786
v -0.14283371 -0.035 0.0191622023
v -0.142342046 -0.0345000029 0.01907122
v -0.1425965 -0.03475 0.0190663934
v -0.1428696 -0.035 0.0187709816
v -0.1423696 -0.0345000029 0.0187709816
v -0.1434696 -0.032 0.0187709816
v -0.1434696 -0.034 0.0187709816
v -0.143423691 -0.034 0.018270582
v -0.143409148 -0.0330000035 0.0181975085
v -0.143423691 -0.032 0.018270582
v -0.143276513 -0.034 0.0177587215
v -0.143276513 -0.032 0.0177587215
v -0.143214628 -0.0330000035 0.017614549
v -0.143021345 -0.034 0.0172661543
v -0.143021345 -0.032 0.0172661543
v -0.1428799 -0.0330000035 0.0170693342
v -0.142664149 -0.034 0.0168264378
v -0.142664149 -0.032 0.0168264378
v -0.142421246 -0.0330000035 0.01661068
v -0.142224416 -0.034 0.0164692439
v -0.142224416 -0.032 0.0164692439
v -0.141876027 -0.0330000035 0.0162759516
v -0.141731858 -0.034 0.0162140634
v -0.141731858 -0.032 0.0162140634
v -0.141293079 -0.0330000035 0.0160814412
v -0.141219988 -0.034 0.01606689
v -0.1407196 -0.0330000035 0.0160209816
v -0.141219988 -0.032 0.01606689
v -0.1407196 -0.034 0.0160209816
v -0.1407196 -0.032 0.0160209816
v -0.1402192 -0.034 0.01606689
v -0.1402192 -0.032 0.01606689
v -0.140146136 -0.0330000035 0.0160814412
v -0.139707342 -0.034 0.0162140634
v -0.139707342 -0.032 0.0162140634
v -0.139707342 -0.0330000035 0.0162140634
v -0.139282674 -0.0330000035 0.0164262522
v -0.139214769 -0.034 0.0164692439
v -0.139214769 -0.032 0.0164692439
v -0.138893411 -0.0330000035 0.0167148747
v -0.138775066 -0.034 0.0168264378
v -0.138775066 -0.032 0.0168264378
v -0.138559312 -0.0330000035 0.0170693342
v -0.13841787 -0.034 0.0172661543
v -0.13841787 -0.032 0.0172661543
v -0.138295338 -0.0330000035 0.01747273
v -0.138162687 -0.034 0.0177587215
v -0.138162687 -0.032 0.0177587215
v -0.138109684 -0.0330000035 0.0179044455
v -0.138015509 -0.034 0.018270582
v -0.138015509 -0.032 0.018270582
v -0.138003051 -0.0330000035 0.0183434077
v -0.1379696 -0.034 0.0187709816
v -0.1379696 -0.032 0.0187709816
v -0.138015509 -0.034 0.01927138
v -0.138030067 -0.0330000035 0.0193444528
v -0.138015509 -0.032 0.01927138
v -0.138162687 -0.034 0.0197832435
v -0.138162687 -0.032 0.0197832435
v -0.138224572 -0.0330000035 0.0199274123
v -0.13841787 -0.034 0.020275807
v -0.13841787 -0.032 0.020275807
v -0.138559312 -0.0330000035 0.020472629
v -0.138775066 -0.034 0.0207155235
v -0.138775066 -0.032 0.0207155235
v -0.139017954 -0.0330000035 0.0209312849
v -0.139214769 -0.034 0.0210727174
v -0.139214769 -0.032 0.0210727174
v -0.139563173 -0.0330000035 0.02126601
v -0.139707342 -0.034 0.0213279
v -0.139707342 -0.032 0.0213279
v -0.140146136 -0.0330000035 0.021460522
v -0.1402192 -0.034 0.0214750711
v -0.1407196 -0.0330000035 0.0215209816
v -0.1402192 -0.032 0.0214750711
v -0.1407196 -0.034 0.0215209816
v -0.1407196 -0.032 0.0215209816
v -0.141219988 -0.034 0.0214750711
v -0.141219988 -0.032 0.0214750711
v -0.141293079 -0.0330000035 0.021460522
v -0.141731858 -0.034 0.0213279
v -0.141731858 -0.032 0.0213279
v -0.141731858 -0.0330000035 0.0213279
v -0.142156512 -0.0330000035 0.02111571
v -0.142224416 -0.034 0.0210727174
v -0.142224416 -0.032 0.0210727174
v -0.142545775 -0.0330000035 0.0208270885
v -0.142664149 -0.034 0.0207155235
v -0.142664149 -0.032 0.0207155235
v -0.1428799 -0.0330000035 0.020472629
v -0.143021345 -0.034 0.020275807
v -0.143021345 -0.032 0.020275807
v -0.143143862 -0.0330000035 0.0200692341
v -0.143276513 -0.034 0.0197832435
v -0.143276513 -0.032 0.0197832435
v -0.143329516 -0.0330000035 0.0196375158
v -0.143423691 -0.034 0.01927138
v -0.143423691 -0.032 0.01927138
v -0.143436164 -0.0330000035 0.0191985536
v -0.1434696 -0.034 0.0187709816
v -0.1434696 -0.032 0.0187709816
v -0.1482196 -0.0345000029 0.0187709816
v -0.147719592 -0.035 0.0187709816
v -0.14769128 -0.035 0.0193999633
v -0.147931114 -0.03475 0.0195170045
v -0.148189262 -0.0345000029 0.01944489
v -0.147602737 -0.035 0.0200447235
v -0.148094386 -0.0345000029 0.0201357044
v -0.1478102 -0.03475 0.02028286
v -0.147449389 -0.035 0.0206970889
v -0.1479301 -0.0345000029 0.02083467
v -0.147600263 -0.03475 0.0210554823
v -0.1472281 -0.035 0.0213476438
v -0.147693008 -0.0345000029 0.0215316936
v -0.147297412 -0.03475 0.0218197517
v -0.146937579 -0.035 0.0219860412
v -0.147381738 -0.0345000029 0.0222156923
v -0.14690116 -0.03475 0.0225592311
v -0.146578565 -0.035 0.02260145
v -0.146997064 -0.0345000029 0.0228750538
v -0.146414936 -0.03475 0.0232571382
v -0.146154076 -0.035 0.0231830683
v -0.145846128 -0.03475 0.0238975063
v -0.146542251 -0.0345000029 0.0234982166
v -0.145669356 -0.035 0.0237207282
v -0.1460229 -0.0345000029 0.02407428
v -0.145131692 -0.035 0.0242054556
v -0.145446837 -0.0345000029 0.02459363
v -0.145205766 -0.03475 0.02446632
v -0.14455007 -0.035 0.02462995
v -0.14482367 -0.0345000029 0.0250484459
v -0.144507855 -0.03475 0.0249525383
v -0.143934667 -0.035 0.02498897
v -0.144164309 -0.0345000029 0.0254331138
v -0.14376837 -0.03475 0.0253487844
v -0.143296272 -0.035 0.0252795
v -0.143480316 -0.0345000029 0.0257443935
v -0.14300409 -0.03475 0.0256516449
v -0.1426457 -0.035 0.0255007744
v -0.142783284 -0.0345000029 0.0259814747
v -0.142231479 -0.03475 0.02586159
v -0.141993344 -0.035 0.0256541185
v -0.14208433 -0.0345000029 0.0261457711
v -0.141465634 -0.03475 0.0259824954
v -0.141348571 -0.035 0.0257426668
v -0.1407196 -0.03475 0.0260209814
v -0.141393512 -0.0345000029 0.0262406431
v -0.1407196 -0.035 0.02577098
v -0.1407196 -0.0345000029 0.0262709819
v -0.140090615 -0.035 0.0257426668
v -0.140045688 -0.0345000029 0.0262406431
v -0.139973581 -0.03475 0.0259824954
v -0.139445856 -0.035 0.0256541185
v -0.139354885 -0.0345000029 0.0261457711
v -0.139207721 -0.03475 0.02586159
v -0.1387935 -0.035 0.0255007744
v -0.138655916 -0.0345000029 0.0259814747
v -0.1386281 -0.03475 0.0257127453
v -0.138142943 -0.035 0.0252795
v -0.137958884 -0.0345000029 0.0257443935
v -0.138050914 -0.03475 0.0255119447
v -0.137482971 -0.03475 0.0252584144
v -0.137504533 -0.035 0.02498897
v -0.137274891 -0.0345000029 0.0254331138
v -0.13693136 -0.03475 0.0249525383
v -0.13688913 -0.035 0.02462995
v -0.13661553 -0.0345000029 0.0250484459
v -0.136403114 -0.03475 0.0245959722
v -0.136307508 -0.035 0.0242054556
v -0.135992363 -0.0345000029 0.02459363
v -0.135905132 -0.03475 0.0241916254
v -0.135769859 -0.035 0.0237207282
v -0.1354163 -0.0345000029 0.02407428
v -0.135443673 -0.03475 0.02374362
v -0.135285124 -0.035 0.0231830683
v -0.134896949 -0.0345000029 0.0234982166
v -0.13502425 -0.03475 0.0232571382
v -0.134860635 -0.035 0.02260145
v -0.134442136 -0.0345000029 0.0228750538
v -0.134651378 -0.03475 0.0227382518
v -0.134328365 -0.03475 0.0221936423
v -0.134501621 -0.035 0.0219860412
v -0.134057462 -0.0345000029 0.0222156923
v -0.134057283 -0.03475 0.0216303542
v -0.134211078 -0.035 0.0213476438
v -0.133746192 -0.0345000029 0.0215316936
v -0.133838937 -0.03475 0.0210554823
v -0.133989811 -0.035 0.0206970889
v -0.1335091 -0.0345000029 0.02083467
v -0.133672938 -0.03475 0.0204759426
v -0.133836463 -0.035 0.0200447235
v -0.133344814 -0.0345000029 0.0201357044
v -0.133557767 -0.03475 0.0198982172
v -0.13374792 -0.035 0.0193999633
v -0.133249938 -0.0345000029 0.01944489
v -0.133491039 -0.03475 0.01932818
v -0.1332196 -0.0345000029 0.0187709816
v -0.133719608 -0.035 0.0187709816
v -0.13374792 -0.035 0.018142
v -0.1332196 -0.0345000029 0.0187709816
v -0.133508086 -0.03475 0.0180249568
v -0.133249938 -0.0345000029 0.0180970728
v -0.133836463 -0.035 0.01749724
v -0.133344814 -0.0345000029 0.0174062587
v -0.133629 -0.03475 0.0172591
v -0.133989811 -0.035 0.0168448724
v -0.1335091 -0.0345000029 0.0167072956
v -0.133838937 -0.03475 0.016486479
v -0.134211078 -0.035 0.0161943175
v -0.133746192 -0.0345000029 0.0160102714
v -0.1341418 -0.03475 0.0157222115
v -0.134501621 -0.035 0.0155559191
v -0.134057462 -0.0345000029 0.0153262718
v -0.13453804 -0.03475 0.0149827311
v -0.134860635 -0.035 0.0149405133
v -0.134442136 -0.0345000029 0.0146669066
v -0.13502425 -0.03475 0.0142848222
v -0.135285124 -0.035 0.014358894
v -0.135593086 -0.03475 0.0136444569
v -0.134896949 -0.0345000029 0.0140437437
v -0.135769859 -0.035 0.0138212331
v -0.1354163 -0.0345000029 0.01346768
v -0.136307508 -0.035 0.0133365095
v -0.135992363 -0.0345000029 0.0129483314
v -0.136233434 -0.03475 0.0130756423
v -0.13688913 -0.035 0.0129120126
v -0.13661553 -0.0345000029 0.0124935145
v -0.13693136 -0.03475 0.0125894221
v -0.137504533 -0.035 0.0125529934
v -0.137274891 -0.0345000029 0.0121088512
v -0.13767083 -0.03475 0.0121931778
v -0.138142943 -0.035 0.0122624626
v -0.137958884 -0.0345000029 0.0117975678
v -0.1384351 -0.03475 0.0118903155
v -0.1387935 -0.035 0.0120411888
v -0.138655916 -0.0345000029 0.0115604885
v -0.139207721 -0.03475 0.0116803721
v -0.139445856 -0.035 0.0118878428
v -0.139354885 -0.0345000029 0.01139619
v -0.139973581 -0.03475 0.011559465
v -0.140090615 -0.035 0.0117992973
v -0.1407196 -0.03475 0.0115209809
v -0.140045688 -0.0345000029 0.0113013191
v -0.1407196 -0.035 0.0117709814
v -0.1407196 -0.0345000029 0.0112709794
v -0.141348571 -0.035 0.0117992973
v -0.141393512 -0.0345000029 0.0113013191
v -0.141465634 -0.03475 0.011559465
v -0.141993344 -0.035 0.0118878428
v -0.14208433 -0.0345000029 0.01139619
v -0.142231479 -0.03475 0.0116803721
v -0.1426457 -0.035 0.0120411888
v -0.142783284 -0.0345000029 0.0115604885
v -0.1428111 -0.03475 0.011829216
v -0.143296272 -0.035 0.0122624626
v -0.143480316 -0.0345000029 0.0117975678
v -0.143388286 -0.03475 0.0120300157
v -0.143956214 -0.03475 0.0122835487
v -0.143934667 -0.035 0.0125529934
v -0.144164309 -0.0345000029 0.0121088512
v -0.144507855 -0.03475 0.0125894221
v -0.14455007 -0.035 0.0129120126
v -0.14482367 -0.0345000029 0.0124935145
v -0.145036072 -0.03475 0.0129459891
v -0.145131692 -0.035 0.0133365095
v -0.145446837 -0.0345000029 0.0129483314
v -0.145534068 -0.03475 0.0133503359
v -0.145669356 -0.035 0.0138212331
v -0.1460229 -0.0345000029 0.01346768
v -0.145995528 -0.03475 0.0137983439
v -0.146154076 -0.035 0.014358894
v -0.146542251 -0.0345000029 0.0140437437
v -0.146414936 -0.03475 0.0142848222
v -0.146578565 -0.035 0.0149405133
v -0.146997064 -0.0345000029 0.0146669066
v -0.146787822 -0.03475 0.0148037095
v -0.147110835 -0.03475 0.015348318
v -0.146937579 -0.035 0.0155559191
v -0.147381738 -0.0345000029 0.0153262718
v -0.147381917 -0.03475 0.01591161
v -0.1472281 -0.035 0.0161943175
v -0.147693008 -0.0345000029 0.0160102714
v -0.147600263 -0.03475 0.016486479
v -0.147449389 -0.035 0.0168448724
v -0.1479301 -0.0345000029 0.0167072956
v -0.147766277 -0.03475 0.0170660187
v -0.147602737 -0.035 0.01749724
v -0.148094386 -0.0345000029 0.0174062587
v -0.147881433 -0.03475 0.017643746
v -0.14769128 -0.035 0.018142
v -0.148189262 -0.0345000029 0.0180970728
v -0.147948146 -0.03475 0.01821378
v -0.147719592 -0.035 0.0187709816
v -0.1482196 -0.0345000029 0.0187709816
v -0.1482196 -0.0325 0.0187709816
v -0.1482196 -0.0345000029 0.0187709816
v -0.148189262 -0.0345000029 0.01944489
v -0.148179784 -0.0335 0.0195427313
v -0.148189262 -0.0325 0.01944489
v -0.148094386 -0.0345000029 0.0201357044
v -0.148094386 -0.0325 0.0201357044
v -0.148054719 -0.0335 0.0203349963
v -0.1479301 -0.0345000029 0.02083467
v -0.1479301 -0.0325 0.02083467
v -0.147837535 -0.0335 0.02113426
v -0.147693008 -0.0345000029 0.0215316936
v -0.147693008 -0.0325 0.0215316936
v -0.147524223 -0.0335 0.0219248831
v -0.147381738 -0.0345000029 0.0222156923
v -0.147381738 -0.0325 0.0222156923
v -0.1471143 -0.0335 0.02268986
v -0.146997064 -0.0345000029 0.0228750538
v -0.146997064 -0.0325 0.0228750538
v -0.146611333 -0.0335 0.0234118365
v -0.146542251 -0.0345000029 0.0234982166
v -0.1460229 -0.0335 0.02407428
v -0.146542251 -0.0325 0.0234982166
v -0.1460229 -0.0345000029 0.02407428
v -0.1460229 -0.0325 0.02407428
v -0.145446837 -0.0345000029 0.02459363
v -0.145446837 -0.0325 0.02459363
v -0.145360455 -0.0335 0.0246627089
v -0.14482367 -0.0345000029 0.0250484459
v -0.14482367 -0.0325 0.0250484459
v -0.144638479 -0.0335 0.0251656976
v -0.144164309 -0.0345000029 0.0254331138
v -0.144164309 -0.0325 0.0254331138
v -0.1438735 -0.0335 0.0255756062
v -0.143480316 -0.0345000029 0.0257443935
v -0.143480316 -0.0325 0.0257443935
v -0.143082872 -0.0335 0.0258889124
v -0.142783284 -0.0345000029 0.0259814747
v -0.142783284 -0.0325 0.0259814747
v -0.142283618 -0.0335 0.0261060912
v -0.14208433 -0.0345000029 0.0261457711
v -0.14208433 -0.0325 0.0261457711
v -0.141491354 -0.0335 0.0262311678
v -0.141393512 -0.0345000029 0.0262406431
v -0.1407196 -0.0335 0.0262709819
v -0.141393512 -0.0325 0.0262406431
v -0.1407196 -0.0345000029 0.0262709819
v -0.1407196 -0.0325 0.0262709819
v -0.140045688 -0.0345000029 0.0262406431
v -0.140045688 -0.0325 0.0262406431
v -0.139947847 -0.0335 0.0262311678
v -0.139354885 -0.0345000029 0.0261457711
v -0.139354885 -0.0325 0.0261457711
v -0.139155582 -0.0335 0.0261060912
v -0.138655916 -0.0345000029 0.0259814747
v -0.138655916 -0.0325 0.0259814747
v -0.138555974 -0.0335 0.0259521157
v -0.137958884 -0.0345000029 0.0257443935
v -0.137958884 -0.0325 0.0257443935
v -0.137958884 -0.0335 0.0257443935
v -0.137371361 -0.0335 0.0254821181
v -0.137274891 -0.0345000029 0.0254331138
v -0.137274891 -0.0325 0.0254331138
v -0.136800721 -0.0335 0.0251656976
v -0.13661553 -0.0345000029 0.0250484459
v -0.13661553 -0.0325 0.0250484459
v -0.136254281 -0.0335 0.0247968361
v -0.135992363 -0.0345000029 0.02459363
v -0.135992363 -0.0325 0.02459363
v -0.135739118 -0.0335 0.0243785437
v -0.1354163 -0.0345000029 0.02407428
v -0.1354163 -0.0325 0.02407428
v -0.135261744 -0.0335 0.02391509
v -0.134896949 -0.0345000029 0.0234982166
v -0.134896949 -0.0325 0.0234982166
v -0.134827867 -0.0335 0.0234118365
v -0.134442136 -0.0345000029 0.0228750538
v -0.134442136 -0.0325 0.0228750538
v -0.134442136 -0.0335 0.0228750538
v -0.134107977 -0.0335 0.022311667
v -0.134057462 -0.0345000029 0.0222156923
v -0.134057462 -0.0325 0.0222156923
v -0.133827552 -0.0335 0.02172895
v -0.133746192 -0.0345000029 0.0215316936
v -0.133746192 -0.0325 0.0215316936
v -0.133601665 -0.0335 0.02113426
v -0.1335091 -0.0345000029 0.02083467
v -0.1335091 -0.0325 0.02083467
v -0.13342993 -0.0335 0.0205347333
v -0.133344814 -0.0345000029 0.0201357044
v -0.133344814 -0.0325 0.0201357044
v -0.13331081 -0.0335 0.0199370869
v -0.133249938 -0.0345000029 0.01944489
v -0.133249938 -0.0325 0.01944489
v -0.133241788 -0.0335 0.0193473957
v -0.1332196 -0.0345000029 0.0187709816
v -0.1332196 -0.0325 0.0187709816
v -0.133249938 -0.0345000029 0.0180970728
v -0.133259416 -0.0335 0.0179992318
v -0.133249938 -0.0325 0.0180970728
v -0.133344814 -0.0345000029 0.0174062587
v -0.133344814 -0.0325 0.0174062587
v -0.1333845 -0.0335 0.0172069669
v -0.1335091 -0.0345000029 0.0167072956
v -0.1335091 -0.0325 0.0167072956
v -0.133601665 -0.0335 0.016407704
v -0.133746192 -0.0345000029 0.0160102714
v -0.133746192 -0.0325 0.0160102714
v -0.133914977 -0.0335 0.01561708
v -0.134057462 -0.0345000029 0.0153262718
v -0.134057462 -0.0325 0.0153262718
v -0.134324878 -0.0335 0.0148521028
v -0.134442136 -0.0345000029 0.0146669066
v -0.134442136 -0.0325 0.0146669066
v -0.134827867 -0.0335 0.0141301285
v -0.134896949 -0.0345000029 0.0140437437
v -0.1354163 -0.0335 0.01346768
v -0.134896949 -0.0325 0.0140437437
v -0.1354163 -0.0345000029 0.01346768
v -0.1354163 -0.0325 0.01346768
v -0.135992363 -0.0345000029 0.0129483314
v -0.135992363 -0.0325 0.0129483314
v -0.136078745 -0.0335 0.0128792506
v -0.13661553 -0.0345000029 0.0124935145
v -0.13661553 -0.0325 0.0124935145
v -0.136800721 -0.0335 0.0123762656
v -0.137274891 -0.0345000029 0.0121088512
v -0.137274891 -0.0325 0.0121088512
v -0.1375657 -0.0335 0.011966357
v -0.137958884 -0.0345000029 0.0117975678
v -0.137958884 -0.0325 0.0117975678
v -0.138356328 -0.0335 0.0116530508
v -0.138655916 -0.0345000029 0.0115604885
v -0.138655916 -0.0325 0.0115604885
v -0.139155582 -0.0335 0.0114358691
v -0.139354885 -0.0345000029 0.01139619
v -0.139354885 -0.0325 0.01139619
v -0.139947847 -0.0335 0.0113107925
v -0.140045688 -0.0345000029 0.0113013191
v -0.1407196 -0.0335 0.0112709794
v -0.140045688 -0.0325 0.0113013191
v -0.1407196 -0.0345000029 0.0112709794
v -0.1407196 -0.0325 0.0112709794
v -0.141393512 -0.0345000029 0.0113013191
v -0.141393512 -0.0325 0.0113013191
v -0.141491354 -0.0335 0.0113107925
v -0.14208433 -0.0345000029 0.01139619
v -0.14208433 -0.0325 0.01139619
v -0.142283618 -0.0335 0.0114358691
v -0.142783284 -0.0345000029 0.0115604885
v -0.142783284 -0.0325 0.0115604885
v -0.142883226 -0.0335 0.0115898447
v -0.143480316 -0.0345000029 0.0117975678
v -0.143480316 -0.0325 0.0117975678
v -0.143480316 -0.0335 0.0117975678
v -0.144067824 -0.0335 0.0120598441
v -0.144164309 -0.0345000029 0.0121088512
v -0.144164309 -0.0325 0.0121088512
v -0.144638479 -0.0335 0.0123762656
v -0.14482367 -0.0345000029 0.0124935145
v -0.14482367 -0.0325 0.0124935145
v -0.145184934 -0.0335 0.0127451271
v -0.145446837 -0.0345000029 0.0129483314
v -0.145446837 -0.0325 0.0129483314
v -0.1457001 -0.0335 0.0131634166
v -0.1460229 -0.0345000029 0.01346768
v -0.1460229 -0.0325 0.01346768
v -0.146177441 -0.0335 0.0136268735
v -0.146542251 -0.0345000029 0.0140437437
v -0.146542251 -0.0325 0.0140437437
v -0.146611333 -0.0335 0.0141301285
v -0.146997064 -0.0345000029 0.0146669066
v -0.146997064 -0.0325 0.0146669066
v -0.146997064 -0.0335 0.0146669066
v -0.147331223 -0.0335 0.0152302952
v -0.147381738 -0.0345000029 0.0153262718
v -0.147381738 -0.0325 0.0153262718
v -0.147611663 -0.0335 0.0158130117
v -0.147693008 -0.0345000029 0.0160102714
v -0.147693008 -0.0325 0.0160102714
v -0.147837535 -0.0335 0.016407704
v -0.1479301 -0.0345000029 0.0167072956
v -0.1479301 -0.0325 0.0167072956
v -0.148009256 -0.0335 0.017007228
v -0.148094386 -0.0345000029 0.0174062587
v -0.148094386 -0.0325 0.0174062587
v -0.14812839 -0.0335 0.0176048763
v -0.148189262 -0.0345000029 0.0180970728
v -0.148189262 -0.0325 0.0180970728
v -0.148197427 -0.0335 0.0181945674
v -0.1482196 -0.0345000029 0.0187709816
v -0.1482196 -0.0325 0.0187709816
v -0.1423696 -0.0345000029 0.0187709816
v -0.1428696 -0.035 0.0187709816
v -0.14283371 -0.035 0.01837976
v -0.142577827 -0.03475 0.0183747653
v -0.142342046 -0.0345000029 0.0184707418
v -0.142718643 -0.035 0.0179795772
v -0.142253757 -0.0345000029 0.0181636252
v -0.142443433 -0.03475 0.0179719925
v -0.142519146 -0.035 0.017594479
v -0.142100647 -0.0345000029 0.0178680848
v -0.142212167 -0.03475 0.0175952986
v -0.142239884 -0.035 0.0172507
v -0.141886324 -0.0345000029 0.0176042542
v -0.141895279 -0.03475 0.01727841
v -0.1418961 -0.035 0.016971441
v -0.141622484 -0.0345000029 0.0173899382
v -0.1415186 -0.03475 0.0170471426
v -0.141511008 -0.035 0.0167719349
v -0.141326964 -0.0345000029 0.0172368288
v -0.141115814 -0.03475 0.0169127528
v -0.141110823 -0.035 0.0166568737
v -0.1407196 -0.03475 0.0168709811
v -0.141019836 -0.0345000029 0.0171485264
v -0.1407196 -0.035 0.01662098
v -0.1407196 -0.0345000029 0.0171209816
v -0.140328377 -0.035 0.0166568737
v -0.140419364 -0.0345000029 0.0171485264
v -0.140323386 -0.03475 0.0169127528
v -0.139928192 -0.035 0.0167719349
v -0.140112251 -0.0345000029 0.0172368288
v -0.140020221 -0.03475 0.0170043837
v -0.139726818 -0.03475 0.0171509869
v -0.1395431 -0.035 0.016971441
v -0.1398167 -0.0345000029 0.0173899382
v -0.139457881 -0.03475 0.017350398
v -0.139199317 -0.035 0.0172507
v -0.139552876 -0.0345000029 0.0176042542
v -0.139227033 -0.03475 0.0175952986
v -0.138920054 -0.035 0.017594479
v -0.139338553 -0.0345000029 0.0178680848
v -0.139044657 -0.03475 0.0178740062
v -0.138720557 -0.035 0.0179795772
v -0.139185458 -0.0345000029 0.0181636252
v -0.138916388 -0.03475 0.0181722846
v -0.1386055 -0.035 0.01837976
v -0.139097139 -0.0345000029 0.0184707418
v -0.1388427 -0.03475 0.0184755679
v -0.138569608 -0.035 0.0187709816
v -0.1390696 -0.0345000029 0.0187709816
v -0.1423696 -0.0345000029 0.0187709816
v -0.1423696 -0.034 0.0187709816
v -0.142342046 -0.034 0.01907122
v -0.142333329 -0.03425 0.0191150643
v -0.142342046 -0.0345000029 0.01907122
v -0.142253757 -0.034 0.019378338
v -0.142253757 -0.0345000029 0.019378338
v -0.142216623 -0.03425 0.01946484
v -0.142100647 -0.034 0.0196738765
v -0.142100647 -0.0345000029 0.0196738765
v -0.142015785 -0.03425 0.0197919682
v -0.141886324 -0.034 0.0199377071
v -0.141886324 -0.0345000029 0.0199377071
v -0.14174059 -0.03425 0.0200671609
v -0.141622484 -0.034 0.0201520231
v -0.141622484 -0.0345000029 0.0201520231
v -0.14141345 -0.03425 0.0202679988
v -0.141326964 -0.034 0.0203051325
v -0.141326964 -0.0345000029 0.0203051325
v -0.14106369 -0.03425 0.0203847066
v -0.141019836 -0.034 0.020393433
v -0.1407196 -0.03425 0.0204209816
v -0.141019836 -0.0345000029 0.020393433
v -0.1407196 -0.034 0.0204209816
v -0.1407196 -0.0345000029 0.0204209816
v -0.140419364 -0.034 0.020393433
v -0.140419364 -0.0345000029 0.020393433
v -0.14037551 -0.03425 0.0203847066
v -0.140112251 -0.034 0.0203051325
v -0.140112251 -0.0345000029 0.0203051325
v -0.140112251 -0.03425 0.0203051325
v -0.139857441 -0.03425 0.0201778188
v -0.1398167 -0.034 0.0201520231
v -0.1398167 -0.0345000029 0.0201520231
v -0.1396239 -0.03425 0.020004645
v -0.139552876 -0.034 0.0199377071
v -0.139552876 -0.0345000029 0.0199377071
v -0.139423415 -0.03425 0.0197919682
v -0.139338553 -0.034 0.0196738765
v -0.139338553 -0.0345000029 0.0196738765
v -0.139265046 -0.03425 0.0195499323
v -0.139185458 -0.034 0.019378338
v -0.139185458 -0.0345000029 0.019378338
v -0.139153659 -0.03425 0.0192909017
v -0.139097139 -0.034 0.01907122
v -0.139097139 -0.0345000029 0.01907122
v -0.139089659 -0.03425 0.0190275237
v -0.1390696 -0.034 0.0187709816
v -0.1390696 -0.0345000029 0.0187709816
v -0.139097139 -0.034 0.0184707418
v -0.139105886 -0.03425 0.0184268989
v -0.139097139 -0.0345000029 0.0184707418
v -0.139185458 -0.034 0.0181636252
v -0.139185458 -0.0345000029 0.0181636252
v -0.139222577 -0.03425 0.018077122
v -0.139338553 -0.034 0.0178680848
v -0.139338553 -0.0345000029 0.0178680848
v -0.139423415 -0.03425 0.0177499931
v -0.139552876 -0.034 0.0176042542
v -0.139552876 -0.0345000029 0.0176042542
v -0.139698625 -0.03425 0.0174748
v -0.1398167 -0.034 0.0173899382
v -0.1398167 -0.0345000029 0.0173899382
v -0.14002575 -0.03425 0.0172739644
v -0.140112251 -0.034 0.0172368288
v -0.140112251 -0.0345000029 0.0172368288
v -0.14037551 -0.03425 0.0171572566
v -0.140419364 -0.034 0.0171485264
v -0.1407196 -0.03425 0.0171209816
v -0.140419364 -0.0345000029 0.0171485264
v -0.1407196 -0.034 0.0171209816
v -0.1407196 -0.0345000029 0.0171209816
v -0.141019836 -0.034 0.0171485264
v -0.141019836 -0.0345000029 0.0171485264
v -0.14106369 -0.03425 0.0171572566
v -0.141326964 -0.034 0.0172368288
v -0.141326964 -0.0345000029 0.0172368288
v -0.141326964 -0.03425 0.0172368288
v -0.141581759 -0.03425 0.0173641443
v -0.141622484 -0.034 0.0173899382
v -0.141622484 -0.0345000029 0.0173899382
v -0.1418153 -0.03425 0.0175373182
v -0.141886324 -0.034 0.0176042542
v -0.141886324 -0.0345000029 0.0176042542
v -0.142015785 -0.03425 0.0177499931
v -0.142100647 -0.034 0.0178680848
v -0.142100647 -0.0345000029 0.0178680848
v -0.142174155 -0.03425 0.01799203
v -0.142253757 -0.034 0.0181636252
v -0.142253757 -0.0345000029 0.0181636252
v -0.142285541 -0.03425 0.01825106
v -0.142342046 -0.034 0.0184707418
v -0.142342046 -0.0345000029 0.0184707418
v -0.142349541 -0.03425 0.0185144376
v -0.1423696 -0.034 0.0187709816
v -0.1423696 -0.0345000029 0.0187709816
v -0.1482196 -0.0325 0.0187709816
v -0.147719592 -0.032 0.0187709816
v -0.14769128 -0.032 0.018142
v -0.147931114 -0.032250002 0.0180249568
v -0.148189262 -0.0325 0.0180970728
v -0.147602737 -0.032 0.01749724
v -0.148094386 -0.0325 0.0174062587
v -0.1478102 -0.032250002 0.0172591
v -0.147449389 -0.032 0.0168448724
v -0.1479301 -0.0325 0.0167072956
v -0.147600263 -0.032250002 0.016486479
v -0.1472281 -0.032 0.0161943175
v -0.147693008 -0.0325 0.0160102714
v -0.147297412 -0.032250002 0.0157222115
v -0.146937579 -0.032 0.0155559191
v -0.147381738 -0.0325 0.0153262718
v -0.14690116 -0.032250002 0.0149827311
v -0.146578565 -0.032 0.0149405133
v -0.146997064 -0.0325 0.0146669066
v -0.146414936 -0.032250002 0.0142848222
v -0.146154076 -0.032 0.014358894
v -0.145846128 -0.032250002 0.0136444569
v -0.146542251 -0.0325 0.0140437437
v -0.145669356 -0.032 0.0138212331
v -0.1460229 -0.0325 0.01346768
v -0.145131692 -0.032 0.0133365095
v -0.145446837 -0.0325 0.0129483314
v -0.145205766 -0.032250002 0.0130756423
v -0.14455007 -0.032 0.0129120126
v -0.14482367 -0.0325 0.0124935145
v -0.144507855 -0.032250002 0.0125894221
v -0.143934667 -0.032 0.0125529934
v -0.144164309 -0.0325 0.0121088512
v -0.14376837 -0.032250002 0.0121931778
v -0.143296272 -0.032 0.0122624626
v -0.143480316 -0.0325 0.0117975678
v -0.14300409 -0.032250002 0.0118903155
v -0.1426457 -0.032 0.0120411888
v -0.142783284 -0.0325 0.0115604885
v -0.142231479 -0.032250002 0.0116803721
v -0.141993344 -0.032 0.0118878428
v -0.14208433 -0.0325 0.01139619
v -0.141465634 -0.032250002 0.011559465
v -0.141348571 -0.032 0.0117992973
v -0.1407196 -0.032250002 0.0115209809
v -0.141393512 -0.0325 0.0113013191
v -0.1407196 -0.032 0.0117709814
v -0.1407196 -0.0325 0.0112709794
v -0.140090615 -0.032 0.0117992973
v -0.140045688 -0.0325 0.0113013191
v -0.139973581 -0.032250002 0.011559465
v -0.139445856 -0.032 0.0118878428
v -0.139354885 -0.0325 0.01139619
v -0.139207721 -0.032250002 0.0116803721
v -0.1387935 -0.032 0.0120411888
v -0.138655916 -0.0325 0.0115604885
v -0.1386281 -0.032250002 0.011829216
v -0.138142943 -0.032 0.0122624626
v -0.137958884 -0.0325 0.0117975678
v -0.138050914 -0.032250002 0.0120300157
v -0.137482971 -0.032250002 0.0122835487
v -0.137504533 -0.032 0.0125529934
v -0.137274891 -0.0325 0.0121088512
v -0.13693136 -0.032250002 0.0125894221
v -0.13688913 -0.032 0.0129120126
v -0.13661553 -0.0325 0.0124935145
v -0.136403114 -0.032250002 0.0129459891
v -0.136307508 -0.032 0.0133365095
v -0.135992363 -0.0325 0.0129483314
v -0.135905132 -0.032250002 0.0133503359
v -0.135769859 -0.032 0.0138212331
v -0.1354163 -0.0325 0.01346768
v -0.135443673 -0.032250002 0.0137983439
v -0.135285124 -0.032 0.014358894
v -0.134896949 -0.0325 0.0140437437
v -0.13502425 -0.032250002 0.0142848222
v -0.134860635 -0.032 0.0149405133
v -0.134442136 -0.0325 0.0146669066
v -0.134651378 -0.032250002 0.0148037095
v -0.134328365 -0.032250002 0.015348318
v -0.134501621 -0.032 0.0155559191
v -0.134057462 -0.0325 0.0153262718
v -0.134057283 -0.032250002 0.01591161
v -0.134211078 -0.032 0.0161943175
v -0.133746192 -0.0325 0.0160102714
v -0.133838937 -0.032250002 0.016486479
v -0.133989811 -0.032 0.0168448724
v -0.1335091 -0.0325 0.0167072956
v -0.133672938 -0.032250002 0.0170660187
v -0.133836463 -0.032 0.01749724
v -0.133344814 -0.0325 0.0174062587
v -0.133557767 -0.032250002 0.017643746
v -0.13374792 -0.032 0.018142
v -0.133249938 -0.0325 0.0180970728
v -0.133491039 -0.032250002 0.01821378
v -0.1332196 -0.0325 0.0187709816
v -0.133719608 -0.032 0.0187709816
v -0.13374792 -0.032 0.0193999633
v -0.1332196 -0.0325 0.0187709816
v -0.133508086 -0.032250002 0.0195170045
v -0.133249938 -0.0325 0.01944489
v -0.133836463 -0.032 0.0200447235
v -0.133344814 -0.0325 0.0201357044
v -0.133629 -0.032250002 0.02028286
v -0.133989811 -0.032 0.0206970889
v -0.1335091 -0.0325 0.02083467
v -0.133838937 -0.032250002 0.0210554823
v -0.134211078 -0.032 0.0213476438
v -0.133746192 -0.0325 0.0215316936
v -0.1341418 -0.032250002 0.0218197517
v -0.134501621 -0.032 0.0219860412
v -0.134057462 -0.0325 0.0222156923
v -0.13453804 -0.032250002 0.0225592311
v -0.134860635 -0.032 0.02260145
v -0.134442136 -0.0325 0.0228750538
v -0.13502425 -0.032250002 0.0232571382
v -0.135285124 -0.032 0.0231830683
v -0.135593086 -0.032250002 0.0238975063
v -0.134896949 -0.0325 0.0234982166
v -0.135769859 -0.032 0.0237207282
v -0.1354163 -0.0325 0.02407428
v -0.136307508 -0.032 0.0242054556
v -0.135992363 -0.0325 0.02459363
v -0.136233434 -0.032250002 0.02446632
v -0.13688913 -0.032 0.02462995
v -0.13661553 -0.0325 0.0250484459
v -0.13693136 -0.032250002 0.0249525383
v -0.137504533 -0.032 0.02498897
v -0.137274891 -0.0325 0.0254331138
v -0.13767083 -0.032250002 0.0253487844
v -0.138142943 -0.032 0.0252795
v -0.137958884 -0.0325 0.0257443935
v -0.1384351 -0.032250002 0.0256516449
v -0.1387935 -0.032 0.0255007744
v -0.138655916 -0.0325 0.0259814747
v -0.139207721 -0.032250002 0.02586159
v -0.139445856 -0.032 0.0256541185
v -0.139354885 -0.0325 0.0261457711
v -0.139973581 -0.032250002 0.0259824954
v -0.140090615 -0.032 0.0257426668
v -0.1407196 -0.032250002 0.0260209814
v -0.140045688 -0.0325 0.0262406431
v -0.1407196 -0.032 0.02577098
v -0.1407196 -0.0325 0.0262709819
v -0.141348571 -0.032 0.0257426668
v -0.141393512 -0.0325 0.0262406431
v -0.141465634 -0.032250002 0.0259824954
v -0.141993344 -0.032 0.0256541185
v -0.14208433 -0.0325 0.0261457711
v -0.142231479 -0.032250002 0.02586159
v -0.1426457 -0.032 0.0255007744
v -0.142783284 -0.0325 0.0259814747
v -0.1428111 -0.032250002 0.0257127453
v -0.143296272 -0.032 0.0252795
v -0.143480316 -0.0325 0.0257443935
v -0.143388286 -0.032250002 0.0255119447
v -0.143956214 -0.032250002 0.0252584144
v -0.143934667 -0.032 0.02498897
v -0.144164309 -0.0325 0.0254331138
v -0.144507855 -0.032250002 0.0249525383
v -0.14455007 -0.032 0.02462995
v -0.14482367 -0.0325 0.0250484459
v -0.145036072 -0.032250002 0.0245959722
v -0.145131692 -0.032 0.0242054556
v -0.145446837 -0.0325 0.02459363
v -0.145534068 -0.032250002 0.0241916254
v -0.145669356 -0.032 0.0237207282
v -0.1460229 -0.0325 0.02407428
v -0.145995528 -0.032250002 0.02374362
v -0.146154076 -0.032 0.0231830683
v -0.146542251 -0.0325 0.0234982166
v -0.146414936 -0.032250002 0.0232571382
v -0.146578565 -0.032 0.02260145
v -0.146997064 -0.0325 0.0228750538
v -0.146787822 -0.032250002 0.0227382518
v -0.147110835 -0.032250002 0.0221936423
v -0.146937579 -0.032 0.0219860412
v -0.147381738 -0.0325 0.0222156923
v -0.147381917 -0.032250002 0.0216303542
v -0.1472281 -0.032 0.0213476438
v -0.147693008 -0.0325 0.0215316936
v -0.147600263 -0.032250002 0.0210554823
v -0.147449389 -0.032 0.0206970889
v -0.1479301 -0.0325 0.02083467
v -0.147766277 -0.032250002 0.0204759426
v -0.147602737 -0.032 0.0200447235
v -0.148094386 -0.0325 0.0201357044
v -0.147881433 -0.032250002 0.0198982172
v -0.14769128 -0.032 0.0193999633
v -0.148189262 -0.0325 0.01944489
v -0.147948146 -0.032250002 0.01932818
v -0.147719592 -0.032 0.0187709816
v -0.1482196 -0.0325 0.0187709816
v -0.138015509 -0.032 0.018270582
v -0.133836463 -0.032 0.01749724
v -0.133989811 -0.032 0.0168448724
v -0.13374792 -0.032 0.018142
v -0.138162687 -0.032 0.0177587215
v -0.134211078 -0.032 0.0161943175
v -0.1379696 -0.032 0.0187709816
v -0.133719608 -0.032 0.0187709816
v -0.13374792 -0.032 0.0193999633
v -0.134501621 -0.032 0.0155559191
v -0.138015509 -0.032 0.01927138
v -0.133836463 -0.032 0.0200447235
v -0.133989811 -0.032 0.0206970889
v -0.13841787 -0.032 0.0172661543
v -0.138775066 -0.032 0.0168264378
v -0.139214769 -0.032 0.0164692439
v -0.138162687 -0.032 0.0197832435
v -0.134211078 -0.032 0.0213476438
v -0.134501621 -0.032 0.0219860412
v -0.134860635 -0.032 0.0149405133
v -0.139707342 -0.032 0.0162140634
v -0.1402192 -0.032 0.01606689
v -0.135285124 -0.032 0.014358894
v -0.135769859 -0.032 0.0138212331
v -0.136307508 -0.032 0.0133365095
v -0.13841787 -0.032 0.020275807
v -0.134860635 -0.032 0.02260145
v -0.135285124 -0.032 0.0231830683
v -0.13688913 -0.032 0.0129120126
v -0.138775066 -0.032 0.0207155235
v -0.135769859 -0.032 0.0237207282
v -0.136307508 -0.032 0.0242054556
v -0.137504533 -0.032 0.0125529934
v -0.139214769 -0.032 0.0210727174
v -0.13688913 -0.032 0.02462995
v -0.137504533 -0.032 0.02498897
v -0.138142943 -0.032 0.0122624626
v -0.139707342 -0.032 0.0213279
v -0.138142943 -0.032 0.0252795
v -0.1387935 -0.032 0.0255007744
v -0.1387935 -0.032 0.0120411888
v -0.139445856 -0.032 0.0118878428
v -0.140090615 -0.032 0.0117992973
v -0.1402192 -0.032 0.0214750711
v -0.139445856 -0.032 0.0256541185
v -0.140090615 -0.032 0.0257426668
v -0.1407196 -0.032 0.0160209816
v -0.1407196 -0.032 0.0117709814
v -0.141348571 -0.032 0.0117992973
v -0.1407196 -0.032 0.0215209816
v -0.1407196 -0.032 0.02577098
v -0.141348571 -0.032 0.0257426668
v -0.141219988 -0.032 0.01606689
v -0.141993344 -0.032 0.0118878428
v -0.1426457 -0.032 0.0120411888
v -0.141219988 -0.032 0.0214750711
v -0.141993344 -0.032 0.0256541185
v -0.1426457 -0.032 0.0255007744
v -0.141731858 -0.032 0.0162140634
v -0.143296272 -0.032 0.0122624626
v -0.143934667 -0.032 0.0125529934
v -0.141731858 -0.032 0.0213279
v -0.143296272 -0.032 0.0252795
v -0.143934667 -0.032 0.02498897
v -0.142224416 -0.032 0.0164692439
v -0.14455007 -0.032 0.0129120126
v -0.145131692 -0.032 0.0133365095
v -0.142224416 -0.032 0.0210727174
v -0.14455007 -0.032 0.02462995
v -0.145131692 -0.032 0.0242054556
v -0.142664149 -0.032 0.0168264378
v -0.145669356 -0.032 0.0138212331
v -0.146154076 -0.032 0.014358894
v -0.142664149 -0.032 0.0207155235
v -0.145669356 -0.032 0.0237207282
v -0.146154076 -0.032 0.0231830683
v -0.143021345 -0.032 0.0172661543
v -0.146578565 -0.032 0.0149405133
v -0.146937579 -0.032 0.0155559191
v -0.143021345 -0.032 0.020275807
v -0.146578565 -0.032 0.02260145
v -0.146937579 -0.032 0.0219860412
v -0.143276513 -0.032 0.0177587215
v -0.1472281 -0.032 0.0161943175
v -0.147449389 -0.032 0.0168448724
v -0.143276513 -0.032 0.0197832435
v -0.1472281 -0.032 0.0213476438
v -0.147449389 -0.032 0.0206970889
v -0.143423691 -0.032 0.018270582
v -0.147602737 -0.032 0.01749724
v -0.14769128 -0.032 0.018142
v -0.143423691 -0.032 0.01927138
v -0.147602737 -0.032 0.0200447235
v -0.14769128 -0.032 0.0193999633
v -0.1434696 -0.032 0.0187709816
v -0.147719592 -0.032 0.0187709816
v -0.1386055 -0.035 0.0191622023
v -0.133836463 -0.035 0.0200447235
v -0.133989811 -0.035 0.0206970889
v -0.13374792 -0.035 0.0193999633
v -0.138720557 -0.035 0.0195623841
v -0.134211078 -0.035 0.0213476438
v -0.134501621 -0.035 0.0219860412
v -0.138569608 -0.035 0.0187709816
v -0.133719608 -0.035 0.0187709816
v -0.13374792 -0.035 0.018142
v -0.138920054 -0.035 0.01994748
v -0.134860635 -0.035 0.02260145
v -0.135285124 -0.035 0.0231830683
v -0.1386055 -0.035 0.01837976
v -0.133836463 -0.035 0.01749724
v -0.133989811 -0.035 0.0168448724
v -0.139199317 -0.035 0.0202912614
v -0.135769859 -0.035 0.0237207282
v -0.136307508 -0.035 0.0242054556
v -0.138720557 -0.035 0.0179795772
v -0.134211078 -0.035 0.0161943175
v -0.134501621 -0.035 0.0155559191
v -0.1395431 -0.035 0.0205705222
v -0.13688913 -0.035 0.02462995
v -0.137504533 -0.035 0.02498897
v -0.138920054 -0.035 0.017594479
v -0.134860635 -0.035 0.0149405133
v -0.135285124 -0.035 0.014358894
v -0.139928192 -0.035 0.0207700245
v -0.138142943 -0.035 0.0252795
v -0.1387935 -0.035 0.0255007744
v -0.139199317 -0.035 0.0172507
v -0.135769859 -0.035 0.0138212331
v -0.136307508 -0.035 0.0133365095
v -0.140328377 -0.035 0.0208850875
v -0.139445856 -0.035 0.0256541185
v -0.140090615 -0.035 0.0257426668
v -0.1395431 -0.035 0.016971441
v -0.13688913 -0.035 0.0129120126
v -0.137504533 -0.035 0.0125529934
v -0.1407196 -0.035 0.02092098
v -0.1407196 -0.035 0.02577098
v -0.141348571 -0.035 0.0257426668
v -0.139928192 -0.035 0.0167719349
v -0.138142943 -0.035 0.0122624626
v -0.1387935 -0.035 0.0120411888
v -0.141110823 -0.035 0.0208850875
v -0.141993344 -0.035 0.0256541185
v -0.1426457 -0.035 0.0255007744
v -0.140328377 -0.035 0.0166568737
v -0.139445856 -0.035 0.0118878428
v -0.140090615 -0.035 0.0117992973
v -0.141511008 -0.035 0.0207700245
v -0.143296272 -0.035 0.0252795
v -0.143934667 -0.035 0.02498897
v -0.1407196 -0.035 0.01662098
v -0.1418961 -0.035 0.0205705222
v -0.14455007 -0.035 0.02462995
v -0.145131692 -0.035 0.0242054556
v -0.1407196 -0.035 0.0117709814
v -0.142239884 -0.035 0.0202912614
v -0.145669356 -0.035 0.0237207282
v -0.146154076 -0.035 0.0231830683
v -0.141348571 -0.035 0.0117992973
v -0.142519146 -0.035 0.01994748
v -0.146578565 -0.035 0.02260145
v -0.146937579 -0.035 0.0219860412
v -0.141993344 -0.035 0.0118878428
v -0.1426457 -0.035 0.0120411888
v -0.143296272 -0.035 0.0122624626
v -0.143934667 -0.035 0.0125529934
v -0.14455007 -0.035 0.0129120126
v -0.142718643 -0.035 0.0195623841
v -0.1472281 -0.035 0.0213476438
v -0.147449389 -0.035 0.0206970889
v -0.145131692 -0.035 0.0133365095
v -0.14283371 -0.035 0.0191622023
v -0.147602737 -0.035 0.0200447235
v -0.14769128 -0.035 0.0193999633
v -0.145669356 -0.035 0.0138212331
v -0.1428696 -0.035 0.0187709816
v -0.147719592 -0.035 0.0187709816
v -0.14769128 -0.035 0.018142
v -0.146154076 -0.035 0.014358894
v -0.14283371 -0.035 0.01837976
v -0.147602737 -0.035 0.01749724
v -0.147449389 -0.035 0.0168448724
v -0.142718643 -0.035 0.0179795772
v -0.1472281 -0.035 0.0161943175
v -0.146578565 -0.035 0.0149405133
v -0.146937579 -0.035 0.0155559191
v -0.142519146 -0.035 0.017594479
v -0.141110823 -0.035 0.0166568737
v -0.142239884 -0.035 0.0172507
v -0.141511008 -0.035 0.0167719349
v -0.1418961 -0.035 0.016971441
v -0.141019836 -0.034 0.0171485264
v -0.141219988 -0.034 0.01606689
v -0.141731858 -0.034 0.0162140634
v -0.1407196 -0.034 0.0160209816
v -0.141326964 -0.034 0.0172368288
v -0.1407196 -0.034 0.0171209816
v -0.142224416 -0.034 0.0164692439
v -0.1402192 -0.034 0.01606689
v -0.141622484 -0.034 0.0173899382
v -0.140419364 -0.034 0.0171485264
v -0.142664149 -0.034 0.0168264378
v -0.139707342 -0.034 0.0162140634
v -0.141886324 -0.034 0.0176042542
v -0.140112251 -0.034 0.0172368288
v -0.143021345 -0.034 0.0172661543
v -0.139214769 -0.034 0.0164692439
v -0.142100647 -0.034 0.0178680848
v -0.1398167 -0.034 0.0173899382
v -0.143276513 -0.034 0.0177587215
v -0.138775066 -0.034 0.0168264378
v -0.142253757 -0.034 0.0181636252
v -0.139552876 -0.034 0.0176042542
v -0.143423691 -0.034 0.018270582
v -0.13841787 -0.034 0.0172661543
v -0.142342046 -0.034 0.0184707418
v -0.139338553 -0.034 0.0178680848
v -0.138162687 -0.034 0.0177587215
v -0.139185458 -0.034 0.0181636252
v -0.1434696 -0.034 0.0187709816
v -0.1423696 -0.034 0.0187709816
v -0.142342046 -0.034 0.01907122
v -0.143423691 -0.034 0.01927138
v -0.142253757 -0.034 0.019378338
v -0.143276513 -0.034 0.0197832435
v -0.142100647 -0.034 0.0196738765
v -0.143021345 -0.034 0.020275807
v -0.141886324 -0.034 0.0199377071
v -0.142664149 -0.034 0.0207155235
v -0.141622484 -0.034 0.0201520231
v -0.142224416 -0.034 0.0210727174
v -0.141326964 -0.034 0.0203051325
v -0.141731858 -0.034 0.0213279
v -0.141019836 -0.034 0.020393433
v -0.141219988 -0.034 0.0214750711
v -0.1407196 -0.034 0.0204209816
v -0.1407196 -0.034 0.0215209816
v -0.1402192 -0.034 0.0214750711
v -0.140419364 -0.034 0.020393433
v -0.139707342 -0.034 0.0213279
v -0.140112251 -0.034 0.0203051325
v -0.139214769 -0.034 0.0210727174
v -0.1398167 -0.034 0.0201520231
v -0.138775066 -0.034 0.0207155235
v -0.139552876 -0.034 0.0199377071
v -0.13841787 -0.034 0.020275807
v -0.139338553 -0.034 0.0196738765
v -0.138162687 -0.034 0.0197832435
v -0.139185458 -0.034 0.019378338
v -0.138015509 -0.034 0.01927138
v -0.139097139 -0.034 0.01907122
v -0.1379696 -0.034 0.0187709816
v -0.1390696 -0.034 0.0187709816
v -0.138015509 -0.034 0.018270582
v -0.139097139 -0.034 0.0184707418
f 1 2 3
f 2 4 3
f 3 4 5
f 2 6 4
f 4 7 5
f 6 8 4
f 4 8 7
f 6 9 8
f 8 10 7
f 9 11 8
f 8 11 10
f 9 12 11
f 11 13 10
f 12 14 11
f 11 14 13
f 12 15 14
f 14 16 13
f 15 17 14
f 14 17 16
f 15 18 17
f 17 19 16
f 18 20 17
f 17 20 19
f 18 21 20
f 21 22 20
f 20 23 19
f 20 22 23
f 21 24 22
f 22 25 23
f 24 26 22
f 22 27 25
f 26 28 22
f 22 28 27
f 26 29 28
f 28 30 27
f 29 31 28
f 28 31 30
f 29 32 31
f 32 30 31
f 33 32 29
f 32 34 30
f 35 32 33
f 32 35 34
f 36 35 33
f 35 37 34
f 38 35 36
f 35 38 37
f 39 38 36
f 38 40 37
f 41 38 39
f 38 41 40
f 42 41 39
f 41 43 40
f 44 41 42
f 41 44 43
f 45 44 42
f 44 46 43
f 47 44 45
f 44 47 46
f 48 47 45
f 47 49 46
f 47 48 49
f 50 51 52
f 50 52 53
f 54 50 53
f 53 52 55
f 56 54 53
f 57 53 55
f 56 53 57
f 57 55 58
f 59 56 57
f 60 57 58
f 59 57 60
f 60 58 61
f 62 59 60
f 63 60 61
f 62 60 63
f 63 61 64
f 65 62 63
f 66 63 64
f 65 63 66
f 66 64 67
f 68 65 66
f 69 66 67
f 68 66 69
f 69 67 70
f 71 69 70
f 72 68 69
f 72 69 71
f 71 70 73
f 74 72 71
f 75 71 73
f 76 74 71
f 77 71 75
f 76 71 77
f 78 77 75
f 79 76 77
f 80 77 78
f 80 79 77
f 81 80 78
f 80 81 79
f 81 78 82
f 81 83 79
f 84 81 82
f 81 84 83
f 84 82 85
f 84 86 83
f 87 84 85
f 84 87 86
f 87 85 88
f 87 89 86
f 90 87 88
f 87 90 89
f 90 88 91
f 90 92 89
f 93 90 91
f 90 93 92
f 93 91 94
f 93 95 92
f 96 93 94
f 93 96 95
f 96 94 97
f 95 96 98
f 96 97 98
f 97 99 98
f 99 100 98
f 98 100 101
f 99 102 100
f 100 103 101
f 102 104 100
f 100 104 103
f 102 105 104
f 104 106 103
f 105 107 104
f 104 107 106
f 105 108 107
f 107 109 106
f 108 110 107
f 107 110 109
f 108 111 110
f 110 112 109
f 111 113 110
f 110 113 112
f 111 114 113
f 113 115 112
f 114 116 113
f 113 116 115
f 114 117 116
f 117 118 116
f 116 119 115
f 116 118 119
f 117 120 118
f 118 121 119
f 120 122 118
f 118 123 121
f 122 124 118
f 118 124 123
f 122 125 124
f 124 126 123
f 125 127 124
f 124 127 126
f 125 128 127
f 128 126 127
f 129 128 125
f 128 130 126
f 131 128 129
f 128 131 130
f 132 131 129
f 131 133 130
f 134 131 132
f 131 134 133
f 135 134 132
f 134 136 133
f 137 134 135
f 134 137 136
f 138 137 135
f 137 139 136
f 140 137 138
f 137 140 139
f 141 140 138
f 140 142 139
f 143 140 141
f 140 143 142
f 144 143 141
f 143 145 142
f 143 144 145
f 146 147 148
f 149 146 148
f 146 149 150
f 149 148 151
f 149 152 150
f 153 149 151
f 149 153 152
f 153 151 154
f 153 155 152
f 156 153 154
f 153 156 155
f 156 154 157
f 156 158 155
f 159 156 157
f 156 159 158
f 159 157 160
f 159 161 158
f 162 159 160
f 159 162 161
f 162 160 163
f 162 164 161
f 165 162 163
f 162 165 164
f 165 163 166
f 167 165 166
f 165 168 164
f 165 167 168
f 167 166 169
f 167 170 168
f 167 169 171
f 167 172 170
f 173 167 171
f 167 173 172
f 173 171 174
f 173 175 172
f 176 173 174
f 173 176 175
f 176 174 177
f 176 178 175
f 179 176 177
f 176 179 178
f 179 177 180
f 179 181 178
f 182 179 180
f 179 182 181
f 182 180 183
f 182 184 181
f 185 182 183
f 182 185 184
f 185 183 186
f 185 187 184
f 188 185 186
f 185 188 187
f 188 186 189
f 190 188 189
f 188 191 187
f 188 190 191
f 190 189 192
f 190 193 191
f 190 192 194
f 190 195 193
f 196 190 194
f 190 196 195
f 196 194 197
f 196 198 195
f 199 196 197
f 196 199 198
f 199 197 200
f 199 201 198
f 202 199 200
f 199 202 201
f 202 200 203
f 202 204 201
f 202 203 205
f 204 202 205
f 206 205 203
f 204 205 206
f 207 206 203
f 208 204 206
f 209 206 207
f 208 206 209
f 210 209 207
f 211 208 209
f 212 209 210
f 211 209 212
f 213 212 210
f 214 211 212
f 215 212 213
f 214 212 215
f 216 215 213
f 217 214 215
f 218 215 216
f 217 215 218
f 219 218 216
f 220 217 218
f 221 218 219
f 220 218 221
f 222 221 219
f 223 220 221
f 224 221 222
f 224 223 221
f 225 224 222
f 224 225 223
f 225 222 226
f 225 227 223
f 228 225 226
f 225 228 227
f 228 226 229
f 228 230 227
f 231 228 229
f 228 231 230
f 231 229 232
f 231 233 230
f 234 231 232
f 231 234 233
f 234 232 235
f 234 236 233
f 237 234 235
f 234 237 236
f 237 235 238
f 237 239 236
f 240 237 238
f 237 240 239
f 239 240 241
f 240 238 242
f 240 242 241
f 242 243 244
f 243 245 244
f 244 245 246
f 243 247 245
f 245 248 246
f 247 249 245
f 245 249 248
f 247 250 249
f 249 251 248
f 250 252 249
f 249 252 251
f 250 253 252
f 252 254 251
f 253 255 252
f 252 255 254
f 253 256 255
f 255 257 254
f 256 258 255
f 255 258 257
f 256 259 258
f 258 260 257
f 259 261 258
f 258 261 260
f 259 262 261
f 262 263 261
f 261 264 260
f 261 263 264
f 262 265 263
f 263 266 264
f 265 267 263
f 263 268 266
f 267 269 263
f 263 269 268
f 267 270 269
f 269 271 268
f 270 272 269
f 269 272 271
f 270 273 272
f 272 274 271
f 273 275 272
f 272 275 274
f 273 276 275
f 275 277 274
f 276 278 275
f 275 278 277
f 276 279 278
f 278 280 277
f 279 281 278
f 278 281 280
f 279 282 281
f 281 283 280
f 282 284 281
f 281 284 283
f 282 285 284
f 285 286 284
f 284 287 283
f 284 286 287
f 285 288 286
f 286 289 287
f 288 290 286
f 286 291 289
f 290 292 286
f 286 292 291
f 290 293 292
f 292 294 291
f 293 295 292
f 292 295 294
f 293 296 295
f 295 297 294
f 296 298 295
f 295 298 297
f 296 299 298
f 298 300 297
f 299 301 298
f 298 301 300
f 299 302 301
f 302 300 301
f 302 299 303
f 302 304 300
f 305 302 303
f 302 305 304
f 305 303 306
f 305 307 304
f 308 305 306
f 305 308 307
f 308 306 309
f 308 310 307
f 311 308 309
f 308 311 310
f 311 309 312
f 311 313 310
f 314 311 312
f 311 314 313
f 314 312 315
f 314 316 313
f 317 314 315
f 314 317 316
f 317 315 318
f 317 319 316
f 320 317 318
f 317 320 319
f 320 318 321
f 320 321 319
f 318 322 321
f 323 319 321
f 322 324 321
f 323 321 324
f 322 325 324
f 326 323 324
f 325 327 324
f 326 324 327
f 325 328 327
f 329 326 327
f 328 330 327
f 329 327 330
f 328 331 330
f 332 329 330
f 331 333 330
f 332 330 333
f 331 334 333
f 335 332 333
f 334 336 333
f 335 333 336
f 334 337 336
f 338 335 336
f 337 338 336
f 339 340 341
f 342 339 341
f 339 342 343
f 342 341 344
f 342 345 343
f 346 342 344
f 342 346 345
f 346 344 347
f 346 348 345
f 349 346 347
f 346 349 348
f 349 347 350
f 349 351 348
f 352 349 350
f 349 352 351
f 352 350 353
f 352 354 351
f 355 352 353
f 352 355 354
f 355 353 356
f 355 357 354
f 358 355 356
f 355 358 357
f 358 356 359
f 360 358 359
f 358 361 357
f 358 360 361
f 360 359 362
f 360 363 361
f 360 362 364
f 360 365 363
f 366 360 364
f 360 366 365
f 366 364 367
f 366 368 365
f 369 366 367
f 366 369 368
f 369 367 370
f 369 371 368
f 372 369 370
f 369 372 371
f 372 370 373
f 372 374 371
f 375 372 373
f 372 375 374
f 375 373 376
f 375 377 374
f 378 375 376
f 375 378 377
f 378 376 379
f 378 380 377
f 381 378 379
f 378 381 380
f 381 379 382
f 383 381 382
f 381 384 380
f 381 383 384
f 383 382 385
f 383 386 384
f 383 385 387
f 383 388 386
f 389 383 387
f 383 389 388
f 389 387 390
f 389 391 388
f 392 389 390
f 389 392 391
f 392 390 393
f 392 394 391
f 395 392 393
f 392 395 394
f 395 393 396
f 395 397 394
f 395 396 398
f 397 395 398
f 399 398 396
f 397 398 399
f 400 399 396
f 401 397 399
f 402 399 400
f 401 399 402
f 403 402 400
f 404 401 402
f 405 402 403
f 404 402 405
f 406 405 403
f 407 404 405
f 408 405 406
f 407 405 408
f 409 408 406
f 410 407 408
f 411 408 409
f 410 408 411
f 412 411 409
f 413 410 411
f 414 411 412
f 413 411 414
f 415 414 412
f 416 413 414
f 417 414 415
f 417 416 414
f 418 417 415
f 417 418 416
f 418 415 419
f 418 420 416
f 421 418 419
f 418 421 420
f 421 419 422
f 421 423 420
f 424 421 422
f 421 424 423
f 424 422 425
f 424 426 423
f 427 424 425
f 424 427 426
f 427 425 428
f 427 429 426
f 430 427 428
f 427 430 429
f 430 428 431
f 430 432 429
f 433 430 431
f 430 433 432
f 433 431 434
f 432 433 435
f 433 434 435
f 434 436 435
f 436 437 435
f 435 437 438
f 436 439 437
f 437 440 438
f 439 441 437
f 437 441 440
f 439 442 441
f 441 443 440
f 442 444 441
f 441 444 443
f 442 445 444
f 444 446 443
f 445 447 444
f 444 447 446
f 445 448 447
f 447 449 446
f 448 450 447
f 447 450 449
f 448 451 450
f 450 452 449
f 451 453 450
f 450 453 452
f 451 454 453
f 454 455 453
f 453 456 452
f 453 455 456
f 454 457 455
f 455 458 456
f 457 459 455
f 455 460 458
f 459 461 455
f 455 461 460
f 459 462 461
f 461 463 460
f 462 464 461
f 461 464 463
f 462 465 464
f 464 466 463
f 465 467 464
f 464 467 466
f 465 468 467
f 467 469 466
f 468 470 467
f 467 470 469
f 468 471 470
f 470 472 469
f 471 473 470
f 470 473 472
f 471 474 473
f 473 475 472
f 474 476 473
f 473 476 475
f 474 477 476
f 477 478 476
f 476 479 475
f 476 478 479
f 477 480 478
f 478 481 479
f 480 482 478
f 478 483 481
f 482 484 478
f 478 484 483
f 482 485 484
f 484 486 483
f 485 487 484
f 484 487 486
f 485 488 487
f 487 489 486
f 488 490 487
f 487 490 489
f 488 491 490
f 490 492 489
f 491 493 490
f 490 493 492
f 491 494 493
f 494 492 493
f 494 491 495
f 494 496 492
f 497 494 495
f 494 497 496
f 497 495 498
f 497 499 496
f 500 497 498
f 497 500 499
f 500 498 501
f 500 502 499
f 503 500 501
f 500 503 502
f 503 501 504
f 503 505 502
f 506 503 504
f 503 506 505
f 506 504 507
f 506 508 505
f 509 506 507
f 506 509 508
f 509 507 510
f 509 511 508
f 512 509 510
f 509 512 511
f 512 510 513
f 512 513 511
f 510 514 513
f 515 511 513
f 514 516 513
f 515 513 516
f 514 517 516
f 518 515 516
f 517 519 516
f 518 516 519
f 517 520 519
f 521 518 519
f 520 522 519
f 521 519 522
f 520 523 522
f 524 521 522
f 523 525 522
f 524 522 525
f 523 526 525
f 527 524 525
f 526 528 525
f 527 525 528
f 526 529 528
f 530 527 528
f 529 530 528
f 531 532 533
f 531 533 534
f 535 531 534
f 534 533 536
f 537 535 534
f 538 534 536
f 537 534 538
f 538 536 539
f 540 537 538
f 541 538 539
f 540 538 541
f 541 539 542
f 543 540 541
f 544 541 542
f 543 541 544
f 544 542 545
f 546 543 544
f 547 544 545
f 546 544 547
f 547 545 548
f 549 546 547
f 550 547 548
f 549 547 550
f 550 548 551
f 552 550 551
f 553 549 550
f 553 550 552
f 552 551 554
f 555 553 552
f 556 552 554
f 557 555 552
f 558 552 556
f 557 552 558
f 559 558 556
f 560 557 558
f 561 558 559
f 561 560 558
f 562 561 559
f 561 562 560
f 562 559 563
f 562 564 560
f 565 562 563
f 562 565 564
f 565 563 566
f 565 567 564
f 568 565 566
f 565 568 567
f 568 566 569
f 568 570 567
f 571 568 569
f 568 571 570
f 571 569 572
f 571 573 570
f 574 571 572
f 571 574 573
f 574 572 575
f 574 576 573
f 577 574 575
f 574 577 576
f 577 575 578
f 576 577 579
f 577 578 579
f 580 581 582
f 580 582 583
f 584 580 583
f 583 582 585
f 586 584 583
f 587 583 585
f 586 583 587
f 587 585 588
f 589 586 587
f 590 587 588
f 589 587 590
f 590 588 591
f 592 589 590
f 593 590 591
f 592 590 593
f 593 591 594
f 595 592 593
f 596 593 594
f 595 593 596
f 596 594 597
f 598 595 596
f 599 596 597
f 598 596 599
f 599 597 600
f 601 599 600
f 602 598 599
f 602 599 601
f 601 600 603
f 604 602 601
f 605 601 603
f 606 604 601
f 607 601 605
f 606 601 607
f 608 607 605
f 609 606 607
f 610 607 608
f 610 609 607
f 611 610 608
f 610 611 609
f 611 608 612
f 611 613 609
f 614 611 612
f 611 614 613
f 614 612 615
f 614 616 613
f 617 614 615
f 614 617 616
f 617 615 618
f 617 619 616
f 620 617 618
f 617 620 619
f 620 618 621
f 620 622 619
f 623 620 621
f 620 623 622
f 623 621 624
f 623 625 622
f 626 623 624
f 623 626 625
f 626 624 627
f 625 626 628
f 626 627 628
f 627 629 628
f 629 630 628
f 628 630 631
f 629 632 630
f 630 633 631
f 632 634 630
f 630 634 633
f 632 635 634
f 634 636 633
f 635 637 634
f 634 637 636
f 635 638 637
f 637 639 636
f 638 640 637
f 637 640 639
f 638 641 640
f 640 642 639
f 641 643 640
f 640 643 642
f 641 644 643
f 643 645 642
f 644 646 643
f 643 646 645
f 644 647 646
f 647 648 646
f 646 649 645
f 646 648 649
f 647 650 648
f 648 651 649
f 650 652 648
f 648 653 651
f 652 654 648
f 648 654 653
f 652 655 654
f 654 656 653
f 655 657 654
f 654 657 656
f 655 658 657
f 658 656 657
f 659 658 655
f 658 660 656
f 661 658 659
f 658 661 660
f 662 661 659
f 661 663 660
f 664 661 662
f 661 664 663
f 665 664 662
f 664 666 663
f 667 664 665
f 664 667 666
f 668 667 665
f 667 669 666
f 670 667 668
f 667 670 669
f 671 670 668
f 670 672 669
f 673 670 671
f 670 673 672
f 674 673 671
f 673 675 672
f 673 674 675
f 676 677 678
f 679 676 678
f 676 679 680
f 679 678 681
f 679 682 680
f 683 679 681
f 679 683 682
f 683 681 684
f 683 685 682
f 686 683 684
f 683 686 685
f 686 684 687
f 686 688 685
f 689 686 687
f 686 689 688
f 689 687 690
f 689 691 688
f 692 689 690
f 689 692 691
f 692 690 693
f 692 694 691
f 695 692 693
f 692 695 694
f 695 693 696
f 697 695 696
f 695 698 694
f 695 697 698
f 697 696 699
f 697 700 698
f 697 699 701
f 697 702 700
f 703 697 701
f 697 703 702
f 703 701 704
f 703 705 702
f 706 703 704
f 703 706 705
f 706 704 707
f 706 708 705
f 709 706 707
f 706 709 708
f 709 707 710
f 709 711 708
f 712 709 710
f 709 712 711
f 712 710 713
f 712 714 711
f 715 712 713
f 712 715 714
f 715 713 716
f 715 717 714
f 718 715 716
f 715 718 717
f 718 716 719
f 720 718 719
f 718 721 717
f 718 720 721
f 720 719 722
f 720 723 721
f 720 722 724
f 720 725 723
f 726 720 724
f 720 726 725
f 726 724 727
f 726 728 725
f 729 726 727
f 726 729 728
f 729 727 730
f 729 731 728
f 732 729 730
f 729 732 731
f 732 730 733
f 732 734 731
f 732 733 735
f 734 732 735
f 736 735 733
f 734 735 736
f 737 736 733
f 738 734 736
f 739 736 737
f 738 736 739
f 740 739 737
f 741 738 739
f 742 739 740
f 741 739 742
f 743 742 740
f 744 741 742
f 745 742 743
f 744 742 745
f 746 745 743
f 747 744 745
f 748 745 746
f 747 745 748
f 749 748 746
f 750 747 748
f 751 748 749
f 750 748 751
f 752 751 749
f 753 750 751
f 754 751 752
f 754 753 751
f 755 754 752
f 754 755 753
f 755 752 756
f 755 757 753
f 758 755 756
f 755 758 757
f 758 756 759
f 758 760 757
f 761 758 759
f 758 761 760
f 761 759 762
f 761 763 760
f 764 761 762
f 761 764 763
f 764 762 765
f 764 766 763
f 767 764 765
f 764 767 766
f 767 765 768
f 767 769 766
f 770 767 768
f 767 770 769
f 769 770 771
f 770 768 772
f 770 772 771
f 772 773 774
f 773 775 774
f 774 775 776
f 773 777 775
f 775 778 776
f 777 779 775
f 775 779 778
f 777 780 779
f 779 781 778
f 780 782 779
f 779 782 781
f 780 783 782
f 782 784 781
f 783 785 782
f 782 785 784
f 783 786 785
f 785 787 784
f 786 788 785
f 785 788 787
f 786 789 788
f 788 790 787
f 789 791 788
f 788 791 790
f 789 792 791
f 792 793 791
f 791 794 790
f 791 793 794
f 792 795 793
f 793 796 794
f 795 797 793
f 793 798 796
f 797 799 793
f 793 799 798
f 797 800 799
f 799 801 798
f 800 802 799
f 799 802 801
f 800 803 802
f 802 804 801
f 803 805 802
f 802 805 804
f 803 806 805
f 805 807 804
f 806 808 805
f 805 808 807
f 806 809 808
f 808 810 807
f 809 811 808
f 808 811 810
f 809 812 811
f 811 813 810
f 812 814 811
f 811 814 813
f 812 815 814
f 815 816 814
f 814 817 813
f 814 816 817
f 815 818 816
f 816 819 817
f 818 820 816
f 816 821 819
f 820 822 816
f 816 822 821
f 820 823 822
f 822 824 821
f 823 825 822
f 822 825 824
f 823 826 825
f 825 827 824
f 826 828 825
f 825 828 827
f 826 829 828
f 828 830 827
f 829 831 828
f 828 831 830
f 829 832 831
f 832 830 831
f 832 829 833
f 832 834 830
f 835 832 833
f 832 835 834
f 835 833 836
f 835 837 834
f 838 835 836
f 835 838 837
f 838 836 839
f 838 840 837
f 841 838 839
f 838 841 840
f 841 839 842
f 841 843 840
f 844 841 842
f 841 844 843
f 844 842 845
f 844 846 843
f 847 844 845
f 844 847 846
f 847 845 848
f 847 849 846
f 850 847 848
f 847 850 849
f 850 848 851
f 850 851 849
f 848 852 851
f 853 849 851
f 852 854 851
f 853 851 854
f 852 855 854
f 856 853 854
f 855 857 854
f 856 854 857
f 855 858 857
f 859 856 857
f 858 860 857
f 859 857 860
f 858 861 860
f 862 859 860
f 861 863 860
f 862 860 863
f 861 864 863
f 865 862 863
f 864 866 863
f 865 863 866
f 864 867 866
f 868 865 866
f 867 868 866
f 869 870 871
f 869 872 870
f 873 869 871
f 873 871 874
f 869 875 872
f 872 875 876
f 875 877 876
f 873 874 878
f 875 879 877
f 879 880 877
f 879 881 880
f 882 873 878
f 883 882 878
f 884 883 878
f 879 885 881
f 885 886 881
f 885 887 886
f 884 878 888
f 889 884 888
f 890 889 888
f 891 890 888
f 890 891 892
f 890 892 893
f 885 894 887
f 894 895 887
f 894 896 895
f 897 890 893
f 894 898 896
f 898 899 896
f 898 900 899
f 890 897 901
f 898 902 900
f 902 903 900
f 902 904 903
f 890 901 905
f 902 906 904
f 906 907 904
f 906 908 907
f 909 890 905
f 890 909 910
f 890 910 911
f 906 912 908
f 912 913 908
f 912 914 913
f 915 890 911
f 915 911 916
f 915 916 917
f 912 918 914
f 918 919 914
f 918 920 919
f 921 915 917
f 921 917 922
f 921 922 923
f 918 924 920
f 924 925 920
f 924 926 925
f 927 921 923
f 927 923 928
f 927 928 929
f 924 930 926
f 930 931 926
f 930 932 931
f 933 927 929
f 933 929 934
f 933 934 935
f 930 936 932
f 936 937 932
f 936 938 937
f 939 933 935
f 939 935 940
f 939 940 941
f 936 942 938
f 942 943 938
f 942 944 943
f 945 939 941
f 945 941 946
f 945 946 947
f 942 948 944
f 948 949 944
f 948 950 949
f 951 945 947
f 951 947 952
f 951 952 953
f 948 954 950
f 954 955 950
f 954 956 955
f 957 951 953
f 957 953 958
f 957 958 959
f 954 960 956
f 960 961 956
f 960 962 961
f 963 957 959
f 960 963 962
f 963 959 964
f 963 964 962
f 965 966 967
f 965 968 966
f 969 965 967
f 969 967 970
f 969 970 971
f 965 972 968
f 968 972 973
f 972 974 973
f 975 969 971
f 975 971 976
f 975 976 977
f 972 978 974
f 978 979 974
f 978 980 979
f 981 975 977
f 981 977 982
f 981 982 983
f 978 984 980
f 984 985 980
f 984 986 985
f 987 981 983
f 987 983 988
f 987 988 989
f 984 990 986
f 990 991 986
f 990 992 991
f 993 987 989
f 993 989 994
f 993 994 995
f 990 996 992
f 996 997 992
f 996 998 997
f 999 993 995
f 999 995 1000
f 999 1000 1001
f 996 1002 998
f 1002 1003 998
f 1002 1004 1003
f 1005 999 1001
f 1005 1001 1006
f 1005 1006 1007
f 1002 1008 1004
f 1008 1009 1004
f 1008 1010 1009
f 1011 1005 1007
f 1011 1007 1012
f 1011 1012 1013
f 1008 1014 1010
f 1014 1015 1010
f 1014 1016 1015
f 1017 1011 1013
f 1017 1013 1018
f 1017 1018 1019
f 1014 1020 1016
f 1021 1017 1019
f 1021 1019 1022
f 1021 1022 1023
f 1020 1024 1016
f 1025 1021 1023
f 1025 1023 1026
f 1025 1026 1027
f 1020 1028 1024
f 1029 1025 1027
f 1029 1027 1030
f 1029 1030 1031
f 1028 1020 1032
f 1020 1033 1032
f 1020 1034 1033
f 1034 1020 1035
f 1020 1036 1035
f 1037 1029 1031
f 1037 1031 1038
f 1037 1038 1039
f 1020 1040 1036
f 1041 1037 1039
f 1041 1039 1042
f 1041 1042 1043
f 1040 1020 1044
f 1045 1041 1043
f 1045 1043 1046
f 1045 1046 1047
f 1020 1048 1044
f 1049 1045 1047
f 1049 1047 1050
f 1049 1050 1051
f 1052 1049 1051
f 1052 1051 1053
f 1020 1054 1048
f 1054 1020 1055
f 1020 1053 1055
f 1056 1052 1053
f 1020 1057 1053
f 1058 1056 1053
f 1057 1059 1053
f 1060 1058 1053
f 1059 1060 1053
f 1061 1062 1063
f 1061 1064 1062
f 1065 1061 1063
f 1061 1066 1064
f 1065 1063 1067
f 1066 1068 1064
f 1069 1065 1067
f 1066 1070 1068
f 1069 1067 1071
f 1070 1072 1068
f 1073 1069 1071
f 1070 1074 1072
f 1073 1071 1075
f 1074 1076 1072
f 1077 1073 1075
f 1074 1078 1076
f 1077 1075 1079
f 1078 1080 1076
f 1081 1077 1079
f 1078 1082 1080
f 1081 1079 1083
f 1082 1084 1080
f 1085 1081 1083
f 1082 1086 1084
f 1086 1087 1084
f 1086 1088 1087
f 1085 1083 1089
f 1090 1085 1089
f 1091 1090 1089
f 1091 1089 1092
f 1093 1091 1092
f 1093 1092 1094
f 1095 1093 1094
f 1095 1094 1096
f 1097 1095 1096
f 1097 1096 1098
f 1099 1097 1098
f 1099 1098 1100
f 1101 1099 1100
f 1101 1100 1102
f 1103 1101 1102
f 1103 1102 1104
f 1105 1103 1104
f 1105 1104 1106
f 1105 1106 1107
f 1108 1105 1107
f 1108 1107 1109
f 1110 1108 1109
f 1110 1109 1111
f 1112 1110 1111
f 1112 1111 1113
f 1114 1112 1113
f 1114 1113 1115
f 1116 1114 1115
f 1116 1115 1117
f 1118 1116 1117
f 1118 1117 1119
f 1120 1118 1119
f 1119 1121 1120
f 1121 1122 1120
f 1121 1123 1122
f 1123 1124 1122
f 1123 1088 1124
f 1088 1123 1087
