# ROS coordinates: X forward, Y left, Z up; units are metres.
o mesh
v -0.0170075763 0.0745 0.194500014
v -0.00700757653 0.0745 0.194500014
v -0.00700757653 0.0745 0.198288679
v 0.0240126066 0.0745 0.220817015
v 0.032074783 0.0745 0.220852911
v 0.0210126042 0.0745 0.226013154
v 0.027074784 0.0745 0.229513139
v -0.07038417 0.0745 0.166317
v -0.0170075763 0.0745 0.19251518
v -0.07444634 0.0745 0.159352884
v -0.0794463456 0.0745 0.168013141
v -0.0733841658 0.0745 0.17151314
v -0.00700757653 0.0824999958 0.194500014
v -0.0170075763 0.0824999958 0.194500014
v -0.00700757653 0.0824999958 0.198288679
v 0.0240126066 0.0824999958 0.220817015
v 0.032074783 0.0824999958 0.220852911
v 0.0210126042 0.0824999958 0.226013154
v 0.027074784 0.0824999958 0.229513139
v -0.07038417 0.0824999958 0.166317
v -0.0170075763 0.0824999958 0.19251518
v -0.07444634 0.0824999958 0.159352884
v -0.0794463456 0.0824999958 0.168013141
v -0.0733841658 0.0824999958 0.17151314
v -0.0115075763 0.0772 0.194
v -0.0115075763 0.0772 0.200000018
v -0.0112710241 0.07722171 0.200000018
v -0.0112364814 0.07722858 0.197000027
v -0.0112710241 0.07722171 0.194
v -0.0110290535 0.07729128 0.200000018
v -0.0110290535 0.07729128 0.194
v -0.0109609012 0.07732054 0.197000027
v -0.0107962042 0.07741191 0.200000018
v -0.0107962042 0.07741191 0.194
v -0.0107031632 0.07747877 0.197000027
v -0.0105883377 0.0775807649 0.200000018
v -0.0105883377 0.0775807649 0.194
v -0.0104863429 0.0776955858 0.197000027
v -0.0104194824 0.0777886361 0.200000018
v -0.0104194824 0.0777886361 0.194
v -0.0103281084 0.07795333 0.197000027
v -0.0102988528 0.07802148 0.200000018
v -0.0102988528 0.07802148 0.194
v -0.0102361571 0.0782289058 0.197000027
v -0.0102292793 0.07826345 0.200000018
v -0.0102075757 0.0785 0.197000027
v -0.0102292793 0.07826345 0.194
v -0.0102075757 0.0785 0.200000018
v -0.0102075757 0.0785 0.194
v -0.0102292793 0.07873655 0.200000018
v -0.0102292793 0.07873655 0.194
v -0.0102361571 0.0787711 0.197000027
v -0.0102988528 0.07897853 0.200000018
v -0.0102988528 0.07897853 0.194
v -0.0102988528 0.07897853 0.197000027
v -0.0103991581 0.07917927 0.197000027
v -0.0104194824 0.07921138 0.200000018
v -0.0104194824 0.07921138 0.194
v -0.0105355978 0.07936329 0.197000027
v -0.0105883377 0.07941924 0.200000018
v -0.0105883377 0.07941924 0.194
v -0.0107031632 0.07952124 0.197000027
v -0.0107962042 0.0795881 0.200000018
v -0.0107962042 0.0795881 0.194
v -0.010893858 0.07964602 0.197000027
v -0.0110290535 0.0797087252 0.200000018
v -0.0110290535 0.0797087252 0.194
v -0.0110979425 0.0797337741 0.197000027
v -0.0112710241 0.0797783 0.200000018
v -0.0112710241 0.0797783 0.194
v -0.0113054514 0.0797841847 0.197000027
v -0.0115075763 0.0798 0.200000018
v -0.0115075763 0.0798 0.194
v -0.0117441285 0.0797783 0.200000018
v -0.0117786713 0.07977142 0.197000027
v -0.0117441285 0.0797783 0.194
v -0.011986101 0.0797087252 0.200000018
v -0.011986101 0.0797087252 0.194
v -0.0120542534 0.0796794742 0.197000027
v -0.0122189485 0.0795881 0.200000018
v -0.0122189485 0.0795881 0.194
v -0.0123119913 0.07952124 0.197000027
v -0.012426815 0.07941924 0.200000018
v -0.012426815 0.07941924 0.194
v -0.0125288107 0.07930442 0.197000027
v -0.0125956712 0.07921138 0.200000018
v -0.0125956712 0.07921138 0.194
v -0.0126870442 0.0790466741 0.197000027
v -0.0127163008 0.07897853 0.200000018
v -0.0127163008 0.07897853 0.194
v -0.0127789956 0.0787711 0.197000027
v -0.0127858743 0.07873655 0.200000018
v -0.012807576 0.0785 0.197000027
v -0.0127858743 0.07873655 0.194
v -0.012807576 0.0785 0.200000018
v -0.012807576 0.0785 0.194
v -0.0127858743 0.07826345 0.200000018
v -0.0127858743 0.07826345 0.194
v -0.0127789956 0.0782289058 0.197000027
v -0.0127163008 0.07802148 0.200000018
v -0.0127163008 0.07802148 0.194
v -0.0127163008 0.07802148 0.197000027
v -0.0126159936 0.0778207257 0.197000027
v -0.0125956712 0.0777886361 0.200000018
v -0.0125956712 0.0777886361 0.194
v -0.0124795539 0.07763672 0.197000027
v -0.012426815 0.0775807649 0.200000018
v -0.012426815 0.0775807649 0.194
v -0.0123119913 0.07747877 0.197000027
v -0.0122189485 0.07741191 0.200000018
v -0.0122189485 0.07741191 0.194
v -0.0121212946 0.07735399 0.197000027
v -0.011986101 0.07729128 0.200000018
v -0.011986101 0.07729128 0.194
v -0.011917212 0.07726623 0.197000027
v -0.0117441285 0.07722171 0.200000018
v -0.0117441285 0.07722171 0.194
v -0.0117097013 0.07721581 0.197000027
v -0.0115075763 0.0772 0.200000018
v -0.0115075763 0.0772 0.194
v -0.07666526 0.0772 0.170196161
v -0.0711652562 0.0772 0.1606699
v -0.07137011 0.07722171 0.160551608
v -0.07415003 0.07722858 0.165297478
v -0.07687011 0.07722171 0.17007789
v -0.07157967 0.07729128 0.16043061
v -0.07707967 0.07729128 0.169956908
v -0.07438869 0.07732054 0.165159687
v -0.07178132 0.07741191 0.160314173
v -0.07728132 0.07741191 0.16984047
v -0.0746119 0.07747877 0.1650308
v -0.07196134 0.0775807649 0.160210267
v -0.07746134 0.0775807649 0.169736534
v -0.07479967 0.0776955858 0.1649224
v -0.07210757 0.0777886361 0.160125822
v -0.07760757 0.0777886361 0.1696521
v -0.0749367 0.07795333 0.164843276
v -0.07221204 0.07802148 0.160065517
v -0.0777120441 0.07802148 0.169591784
v -0.0750163347 0.0782289058 0.1647973
v -0.07227229 0.07826345 0.160030738
v -0.0750410855 0.0785 0.164783016
v -0.0777723 0.07826345 0.16955702
v -0.07229109 0.0785 0.160019875
v -0.07779109 0.0785 0.169546157
v -0.07227229 0.07873655 0.160030738
v -0.0777723 0.07873655 0.16955702
v -0.0750163347 0.0787711 0.1647973
v -0.07221204 0.07897853 0.160065517
v -0.0777120441 0.07897853 0.169591784
v -0.07496204 0.07897853 0.164828658
v -0.074875176 0.07917927 0.164878815
v -0.07210757 0.07921138 0.160125822
v -0.07760757 0.07921138 0.1696521
v -0.07475701 0.07936329 0.164947048
v -0.07196134 0.07941924 0.160210267
v -0.07746134 0.07941924 0.169736534
v -0.0746119 0.07952124 0.1650308
v -0.07178132 0.0795881 0.160314173
v -0.07728132 0.0795881 0.16984047
v -0.07444675 0.07964602 0.16512616
v -0.07157967 0.0797087252 0.16043061
v -0.07707967 0.0797087252 0.169956908
v -0.07427001 0.0797337741 0.165228218
v -0.07137011 0.0797783 0.160551608
v -0.07687011 0.0797783 0.17007789
v -0.0740903 0.0797841847 0.16533196
v -0.0711652562 0.0798 0.1606699
v -0.07666526 0.0798 0.170196161
v -0.070960395 0.0797783 0.160788164
v -0.07368048 0.07977142 0.165568575
v -0.0764604 0.0797783 0.170314446
v -0.07075084 0.0797087252 0.160909146
v -0.07625084 0.0797087252 0.170435429
v -0.07344182 0.0796794742 0.165706351
v -0.07054919 0.0795881 0.161025554
v -0.07604919 0.0795881 0.170551836
v -0.0732186139 0.07952124 0.165835232
v -0.07036917 0.07941924 0.1611295
v -0.07586917 0.07941924 0.170655772
v -0.0730308443 0.07930442 0.165943637
v -0.07022294 0.07921138 0.1612139
v -0.07572294 0.07921138 0.1707402
v -0.0728938058 0.0790466741 0.166022748
v -0.07011847 0.07897853 0.161274239
v -0.07561847 0.07897853 0.170800522
v -0.07281417 0.0787711 0.166068733
v -0.07005822 0.07873655 0.161309019
v -0.07278942 0.0785 0.166083008
v -0.0755582154 0.07873655 0.170835316
v -0.07003942 0.0785 0.161319882
v -0.07553942 0.0785 0.170846164
v -0.07005822 0.07826345 0.161309019
v -0.0755582154 0.07826345 0.170835316
v -0.07281417 0.0782289058 0.166068733
v -0.07011847 0.07802148 0.161274239
v -0.07561847 0.07802148 0.170800522
v -0.0728684738 0.07802148 0.166037381
v -0.07295534 0.0778207257 0.165987238
v -0.07022294 0.0777886361 0.1612139
v -0.07572294 0.0777886361 0.1707402
v -0.0730735 0.07763672 0.165919
v -0.07036917 0.0775807649 0.1611295
v -0.07586917 0.0775807649 0.170655772
v -0.0732186139 0.07747877 0.165835232
v -0.07054919 0.07741191 0.161025554
v -0.07604919 0.07741191 0.170551836
v -0.073383756 0.07735399 0.165739879
v -0.07075084 0.07729128 0.160909146
v -0.07625084 0.07729128 0.170435429
v -0.0735605061 0.07726623 0.165637851
v -0.070960395 0.07722171 0.160788164
v -0.0764604 0.07722171 0.170314446
v -0.07374021 0.07721581 0.165534079
v -0.0711652562 0.0772 0.1606699
v -0.07666526 0.0772 0.170196161
v 0.0237936974 0.0772 0.228196159
v 0.0292936973 0.0772 0.218669891
v 0.0290888343 0.07722171 0.2185516
v 0.02630892 0.07722858 0.223297477
v 0.0235888343 0.07722171 0.228077888
v 0.0288792811 0.07729128 0.218430623
v 0.0233792812 0.07729128 0.2279569
v 0.02607026 0.07732054 0.223159671
v 0.02867763 0.07741191 0.2183142
v 0.02317763 0.07741191 0.227840468
v 0.0258470513 0.07747877 0.2230308
v 0.0284976121 0.0775807649 0.21821028
v 0.0229976121 0.0775807649 0.227736533
v 0.02565928 0.0776955858 0.222922415
v 0.0283513777 0.0777886361 0.21812582
v 0.0228513777 0.0777886361 0.227652118
v 0.0255222451 0.07795333 0.222843289
v 0.02824691 0.07802148 0.218065515
v 0.02274691 0.07802148 0.227591783
v 0.0254426133 0.0782289058 0.2227973
v 0.02818666 0.07826345 0.218030736
v 0.0254178625 0.0785 0.222783014
v 0.0226866566 0.07826345 0.227557033
v 0.0281678624 0.0785 0.218019873
v 0.0226678625 0.0785 0.22754617
v 0.02818666 0.07873655 0.218030736
v 0.0226866566 0.07873655 0.227557033
v 0.0254426133 0.0787711 0.2227973
v 0.02824691 0.07897853 0.218065515
v 0.02274691 0.07897853 0.227591783
v 0.02549691 0.07897853 0.222828671
v 0.0255837776 0.07917927 0.222878814
v 0.0283513777 0.07921138 0.21812582
v 0.0228513777 0.07921138 0.227652118
v 0.02570194 0.07936329 0.222947031
v 0.0284976121 0.07941924 0.21821028
v 0.0229976121 0.07941924 0.227736533
v 0.0258470513 0.07952124 0.2230308
v 0.02867763 0.0795881 0.2183142
v 0.02317763 0.0795881 0.227840468
v 0.0260122 0.07964602 0.223126143
v 0.0288792811 0.0797087252 0.218430623
v 0.0233792812 0.0797087252 0.2279569
v 0.0261889417 0.0797337741 0.2232282
v 0.0290888343 0.0797783 0.2185516
v 0.0235888343 0.0797783 0.228077888
v 0.02636865 0.0797841847 0.223331958
v 0.0292936973 0.0798 0.218669891
v 0.0237936974 0.0798 0.228196159
v 0.0294985548 0.0797783 0.218788162
v 0.0267784689 0.07977142 0.223568559
v 0.0239985548 0.0797783 0.228314459
v 0.0297081079 0.0797087252 0.218909144
v 0.024208108 0.0797087252 0.228435427
v 0.0270171314 0.0796794742 0.223706365
v 0.0299097616 0.0795881 0.219025552
v 0.0244097617 0.0795881 0.22855185
v 0.02724034 0.07952124 0.22383523
v 0.03008978 0.07941924 0.219129488
v 0.02458978 0.07941924 0.228655785
v 0.02742811 0.07930442 0.223943651
v 0.0302360114 0.07921138 0.219213948
v 0.0247360114 0.07921138 0.2287402
v 0.027565144 0.0790466741 0.224022746
v 0.0303404815 0.07897853 0.219274238
v 0.0248404816 0.07897853 0.2288005
v 0.0276447758 0.0787711 0.224068731
v 0.0304007325 0.07873655 0.219309032
v 0.0276695285 0.0785 0.224083
v 0.0249007326 0.07873655 0.228835315
v 0.0304195285 0.0785 0.2193199
v 0.0249195285 0.0785 0.228846163
v 0.0304007325 0.07826345 0.219309032
v 0.0249007326 0.07826345 0.228835315
v 0.0276447758 0.0782289058 0.224068731
v 0.0303404815 0.07802148 0.219274238
v 0.0248404816 0.07802148 0.2288005
v 0.02759048 0.07802148 0.2240374
v 0.0275036134 0.0778207257 0.223987237
v 0.0302360114 0.0777886361 0.219213948
v 0.0247360114 0.0777886361 0.2287402
v 0.0273854546 0.07763672 0.223919019
v 0.03008978 0.0775807649 0.219129488
v 0.02458978 0.0775807649 0.228655785
v 0.02724034 0.07747877 0.22383523
v 0.0299097616 0.07741191 0.219025552
v 0.0244097617 0.07741191 0.22855185
v 0.02707519 0.07735399 0.223739877
v 0.0297081079 0.07729128 0.218909144
v 0.024208108 0.07729128 0.228435427
v 0.02689845 0.07726623 0.223637834
v 0.0294985548 0.07722171 0.218788162
v 0.0239985548 0.07722171 0.228314459
v 0.0267187413 0.07721581 0.223534092
v 0.0292936973 0.0772 0.218669891
v 0.0237936974 0.0772 0.228196159
v -0.0165075772 0.0785 0.193113253
v -0.0165075772 0.082 0.194
v -0.0165075772 0.075 0.194
v -0.0165075772 0.075 0.1922265
v -0.0165075772 0.082 0.1922265
v -0.07054919 0.07741191 0.161025554
v -0.0455684662 0.0785 0.1754482
v -0.07075084 0.07729128 0.160909146
v -0.07036917 0.0775807649 0.1611295
v -0.07022294 0.0777886361 0.1612139
v -0.07011847 0.07802148 0.161274239
v -0.07005822 0.07826345 0.161309019
v -0.07003942 0.0785 0.161319882
v -0.07005822 0.07873655 0.161309019
v -0.07011847 0.07897853 0.161274239
v -0.07022294 0.07921138 0.1612139
v -0.07036917 0.07941924 0.1611295
v -0.07054919 0.0795881 0.161025554
v -0.07075084 0.0797087252 0.160909146
v -0.070960395 0.07722171 0.160788164
v -0.070960395 0.0797783 0.160788164
v -0.07462936 0.075 0.158669874
v -0.0711652562 0.0772 0.1606699
v -0.07137011 0.07722171 0.160551608
v -0.07157967 0.07729128 0.16043061
v -0.07178132 0.07741191 0.160314173
v -0.07196134 0.0775807649 0.160210267
v -0.07210757 0.0777886361 0.160125822
v -0.07221204 0.07802148 0.160065517
v -0.07227229 0.07826345 0.160030738
v -0.07229109 0.0785 0.160019875
v -0.0165075772 0.075 0.1922265
v -0.0165075772 0.082 0.1922265
v -0.07462936 0.082 0.158669874
v -0.07227229 0.07873655 0.160030738
v -0.07221204 0.07897853 0.160065517
v -0.0711652562 0.0798 0.1606699
v -0.07210757 0.07921138 0.160125822
v -0.07137011 0.0797783 0.160551608
v -0.07196134 0.07941924 0.160210267
v -0.07157967 0.0797087252 0.16043061
v -0.07178132 0.0795881 0.160314173
v -0.07737936 0.0785 0.16343303
v -0.07462936 0.082 0.158669874
v -0.07462936 0.075 0.158669874
v -0.08012936 0.075 0.168196142
v -0.08012936 0.082 0.168196142
v -0.08012936 0.075 0.168196142
v -0.07687011 0.07722171 0.17007789
v -0.07707967 0.07729128 0.169956908
v -0.07728132 0.07741191 0.16984047
v -0.07746134 0.0775807649 0.169736534
v -0.07760757 0.0777886361 0.1696521
v -0.0777120441 0.07802148 0.169591784
v -0.0777723 0.07826345 0.16955702
v -0.07666526 0.0772 0.170196161
v -0.07779109 0.0785 0.169546157
v -0.07320115 0.075 0.172196165
v -0.0764604 0.07722171 0.170314446
v -0.07625084 0.07729128 0.170435429
v -0.08012936 0.082 0.168196142
v -0.0777723 0.07873655 0.16955702
v -0.0777120441 0.07897853 0.169591784
v -0.07604919 0.07741191 0.170551836
v -0.07760757 0.07921138 0.1696521
v -0.07586917 0.0775807649 0.170655772
v -0.07746134 0.07941924 0.169736534
v -0.07572294 0.0777886361 0.1707402
v -0.07728132 0.0795881 0.16984047
v -0.07561847 0.07802148 0.170800522
v -0.0755582154 0.07826345 0.170835316
v -0.07553942 0.0785 0.170846164
v -0.07320115 0.082 0.172196165
v -0.0755582154 0.07873655 0.170835316
v -0.07561847 0.07897853 0.170800522
v -0.07707967 0.0797087252 0.169956908
v -0.07687011 0.0797783 0.17007789
v -0.07666526 0.0798 0.170196161
v -0.07572294 0.07921138 0.1707402
v -0.0764604 0.0797783 0.170314446
v -0.07586917 0.07941924 0.170655772
v -0.07625084 0.0797087252 0.170435429
v -0.07604919 0.0795881 0.170551836
v -0.0717011541 0.0785 0.169598088
v -0.07320115 0.082 0.172196165
v -0.07320115 0.075 0.172196165
v -0.07020115 0.075 0.167000011
v -0.07020115 0.082 0.167000011
v -0.0107962042 0.0795881 0.200000018
v -0.0115075763 0.0785 0.200000018
v -0.0110290535 0.0797087252 0.200000018
v -0.0105883377 0.07941924 0.200000018
v -0.0112710241 0.0797783 0.200000018
v -0.0104194824 0.07921138 0.200000018
v -0.0115075763 0.0798 0.200000018
v -0.0102988528 0.07897853 0.200000018
v -0.0117441285 0.0797783 0.200000018
v -0.0102292793 0.07873655 0.200000018
v -0.011986101 0.0797087252 0.200000018
v -0.0102075757 0.0785 0.200000018
v -0.0122189485 0.0795881 0.200000018
v -0.0102292793 0.07826345 0.200000018
v -0.012426815 0.07941924 0.200000018
v -0.0102988528 0.07802148 0.200000018
v -0.0125956712 0.07921138 0.200000018
v -0.0104194824 0.0777886361 0.200000018
v -0.0127163008 0.07897853 0.200000018
v -0.0105883377 0.0775807649 0.200000018
v -0.0127858743 0.07873655 0.200000018
v -0.0107962042 0.07741191 0.200000018
v -0.012807576 0.0785 0.200000018
v -0.0110290535 0.07729128 0.200000018
v -0.0127858743 0.07826345 0.200000018
v -0.0112710241 0.07722171 0.200000018
v -0.0127163008 0.07802148 0.200000018
v -0.0115075763 0.0772 0.200000018
v -0.0125956712 0.0777886361 0.200000018
v -0.0117441285 0.07722171 0.200000018
v -0.012426815 0.0775807649 0.200000018
v -0.011986101 0.07729128 0.200000018
v -0.0122189485 0.07741191 0.200000018
v -0.02343578 0.0785 0.194
v -0.07020115 0.082 0.167000011
v -0.07020115 0.075 0.167000011
v 0.0233295932 0.075 0.221000016
v 0.0233295932 0.082 0.221000016
v -0.07179266 0.08225001 0.169256568
v -0.07020115 0.082 0.167000011
v -0.07038417 0.0824999958 0.166317
v -0.0733841658 0.0824999958 0.17151314
v -0.07320115 0.082 0.172196165
v -0.07666526 0.0821524262 0.170020148
v -0.0794463456 0.0824999958 0.168013141
v -0.08012936 0.082 0.168196142
v -0.07320115 0.082 0.172196165
v -0.0733841658 0.0824999958 0.17151314
v 0.0237936974 0.0821524262 0.228020161
v 0.0272577982 0.082 0.230196148
v 0.027074784 0.0824999958 0.229513139
v 0.0210126042 0.0824999958 0.226013154
v 0.0203295946 0.082 0.22619617
v 0.02991629 0.0820767954 0.225437909
v 0.0327577963 0.082 0.2206699
v 0.032074783 0.0824999958 0.220852911
v 0.027074784 0.0824999958 0.229513139
v 0.0272577982 0.082 0.230196148
v 0.0128751108 0.08222386 0.209449083
v -0.00650757644 0.082 0.198
v -0.00700757653 0.0824999958 0.198288679
v 0.032074783 0.0824999958 0.220852911
v 0.0327577963 0.082 0.2206699
v -0.0117575768 0.08225001 0.194250017
v -0.00700757653 0.0824999958 0.194500014
v -0.00650757644 0.082 0.194
v -0.0165075772 0.082 0.194
v -0.0170075763 0.0824999958 0.194500014
v -0.006757576 0.08225001 0.196144342
v -0.00650757644 0.082 0.194
v -0.00700757653 0.0824999958 0.194500014
v -0.00700757653 0.0824999958 0.198288679
v -0.00650757644 0.082 0.198
v -0.0167575777 0.08225001 0.193363264
v -0.0165075772 0.082 0.194
v -0.0165075772 0.082 0.1922265
v -0.0170075763 0.0824999958 0.19251518
v -0.0170075763 0.0824999958 0.194500014
v -0.07444634 0.0824999958 0.159352884
v -0.0455684662 0.08217858 0.175654382
v -0.07462936 0.082 0.158669874
v -0.0170075763 0.0824999958 0.19251518
v -0.0165075772 0.082 0.1922265
v 0.0221711 0.08225001 0.22350657
v 0.0203295946 0.082 0.22619617
v 0.0210126042 0.0824999958 0.226013154
v 0.0240126066 0.0824999958 0.220817015
v 0.0233295932 0.082 0.221000016
v -0.02318578 0.08234758 0.19374302
v 0.0233295932 0.082 0.221000016
v 0.0240126066 0.0824999958 0.220817015
v -0.07038417 0.0824999958 0.166317
v -0.07020115 0.082 0.167000011
v 0.0218295939 0.0785 0.2235981
v 0.0233295932 0.075 0.221000016
v 0.0203295946 0.075 0.22619617
v 0.0203295946 0.082 0.22619617
v 0.0233295932 0.082 0.221000016
v 0.0272577982 0.082 0.230196148
v 0.0239985548 0.0797783 0.228314459
v 0.024208108 0.0797087252 0.228435427
v 0.0244097617 0.0795881 0.22855185
v 0.02458978 0.07941924 0.228655785
v 0.0247360114 0.07921138 0.2287402
v 0.0248404816 0.07897853 0.2288005
v 0.0249007326 0.07873655 0.228835315
v 0.0237936974 0.0798 0.228196159
v 0.0249195285 0.0785 0.228846163
v 0.0203295946 0.082 0.22619617
v 0.0235888343 0.0797783 0.228077888
v 0.0233792812 0.0797087252 0.2279569
v 0.0272577982 0.075 0.230196148
v 0.0249007326 0.07826345 0.228835315
v 0.0248404816 0.07802148 0.2288005
v 0.02317763 0.0795881 0.227840468
v 0.0247360114 0.0777886361 0.2287402
v 0.0229976121 0.07941924 0.227736533
v 0.02458978 0.0775807649 0.228655785
v 0.0228513777 0.07921138 0.227652118
v 0.0244097617 0.07741191 0.22855185
v 0.02274691 0.07897853 0.227591783
v 0.0226866566 0.07873655 0.227557033
v 0.0226678625 0.0785 0.22754617
v 0.0203295946 0.075 0.22619617
v 0.0226866566 0.07826345 0.227557033
v 0.02274691 0.07802148 0.227591783
v 0.024208108 0.07729128 0.228435427
v 0.0239985548 0.07722171 0.228314459
v 0.0237936974 0.0772 0.228196159
v 0.0228513777 0.0777886361 0.227652118
v 0.0235888343 0.07722171 0.228077888
v 0.0229976121 0.0775807649 0.227736533
v 0.0233792812 0.07729128 0.2279569
v 0.02317763 0.07741191 0.227840468
v 0.0300077982 0.0785 0.225433022
v 0.0272577982 0.075 0.230196148
v 0.0327577963 0.075 0.2206699
v 0.0327577963 0.082 0.2206699
v 0.0272577982 0.082 0.230196148
v 0.0299097616 0.07741191 0.219025552
v 0.0327577963 0.075 0.2206699
v 0.0297081079 0.07729128 0.218909144
v 0.03008978 0.0775807649 0.219129488
v 0.0294985548 0.07722171 0.218788162
v 0.0302360114 0.0777886361 0.219213948
v 0.0292936973 0.0772 0.218669891
v 0.0303404815 0.07802148 0.219274238
v 0.0304007325 0.07826345 0.219309032
v 0.0304195285 0.0785 0.2193199
v 0.0290888343 0.07722171 0.2185516
v 0.0327577963 0.082 0.2206699
v 0.0304007325 0.07873655 0.219309032
v 0.0303404815 0.07897853 0.219274238
v 0.0302360114 0.07921138 0.219213948
v 0.03008978 0.07941924 0.219129488
v 0.0299097616 0.0795881 0.219025552
v 0.0297081079 0.0797087252 0.218909144
v 0.0294985548 0.0797783 0.218788162
v 0.0292936973 0.0798 0.218669891
v 0.0290888343 0.0797783 0.2185516
v -0.00650757644 0.075 0.198
v 0.01312511 0.0785 0.209334955
v 0.0288792811 0.07729128 0.218430623
v 0.02867763 0.07741191 0.2183142
v 0.0284976121 0.0775807649 0.21821028
v 0.0283513777 0.0777886361 0.21812582
v 0.02824691 0.07802148 0.218065515
v 0.02818666 0.07826345 0.218030736
v 0.0281678624 0.0785 0.218019873
v 0.02818666 0.07873655 0.218030736
v 0.02824691 0.07897853 0.218065515
v 0.0283513777 0.07921138 0.21812582
v 0.0284976121 0.07941924 0.21821028
v 0.02867763 0.0795881 0.2183142
v 0.0288792811 0.0797087252 0.218430623
v -0.00650757644 0.082 0.198
v -0.00650757644 0.0785 0.196000025
v -0.00650757644 0.075 0.198
v -0.00650757644 0.075 0.194
v -0.00650757644 0.082 0.194
v -0.00650757644 0.082 0.198
v -0.0165075772 0.082 0.194
v -0.0117441285 0.0797783 0.194
v -0.011986101 0.0797087252 0.194
v -0.0122189485 0.0795881 0.194
v -0.012426815 0.07941924 0.194
v -0.0125956712 0.07921138 0.194
v -0.0127163008 0.07897853 0.194
v -0.0127858743 0.07873655 0.194
v -0.0115075763 0.0798 0.194
v -0.012807576 0.0785 0.194
v -0.00650757644 0.082 0.194
v -0.0112710241 0.0797783 0.194
v -0.0110290535 0.0797087252 0.194
v -0.0165075772 0.075 0.194
v -0.0127858743 0.07826345 0.194
v -0.0127163008 0.07802148 0.194
v -0.0107962042 0.0795881 0.194
v -0.0125956712 0.0777886361 0.194
v -0.0105883377 0.07941924 0.194
v -0.012426815 0.0775807649 0.194
v -0.0104194824 0.07921138 0.194
v -0.0122189485 0.07741191 0.194
v -0.0102988528 0.07897853 0.194
v -0.0102292793 0.07873655 0.194
v -0.0102075757 0.0785 0.194
v -0.00650757644 0.075 0.194
v -0.0102292793 0.07826345 0.194
v -0.0102988528 0.07802148 0.194
v -0.011986101 0.07729128 0.194
v -0.0117441285 0.07722171 0.194
v -0.0115075763 0.0772 0.194
v -0.0104194824 0.0777886361 0.194
v -0.0112710241 0.07722171 0.194
v -0.0105883377 0.0775807649 0.194
v -0.0110290535 0.07729128 0.194
v -0.0107962042 0.07741191 0.194
v -0.07179266 0.0747500062 0.169256568
v -0.07038417 0.0745 0.166317
v -0.07020115 0.075 0.167000011
v -0.07320115 0.075 0.172196165
v -0.0733841658 0.0745 0.17151314
v -0.07666526 0.07484758 0.170020148
v -0.08012936 0.075 0.168196142
v -0.0794463456 0.0745 0.168013141
v -0.0733841658 0.0745 0.17151314
v -0.07320115 0.075 0.172196165
v -0.02318578 0.07465243 0.19374302
v 0.0240126066 0.0745 0.220817015
v 0.0233295932 0.075 0.221000016
v -0.07020115 0.075 0.167000011
v -0.07038417 0.0745 0.166317
v 0.0237936974 0.07484758 0.228020161
v 0.027074784 0.0745 0.229513139
v 0.0272577982 0.075 0.230196148
v 0.0203295946 0.075 0.22619617
v 0.0210126042 0.0745 0.226013154
v 0.02991629 0.07492321 0.225437909
v 0.032074783 0.0745 0.220852911
v 0.0327577963 0.075 0.2206699
v 0.0272577982 0.075 0.230196148
v 0.027074784 0.0745 0.229513139
v 0.0128751108 0.07477614 0.209449083
v -0.00700757653 0.0745 0.198288679
v -0.00650757644 0.075 0.198
v 0.0327577963 0.075 0.2206699
v 0.032074783 0.0745 0.220852911
v -0.00650757644 0.075 0.194
v -0.006757576 0.0747500062 0.196144342
v -0.00700757653 0.0745 0.194500014
v -0.00650757644 0.075 0.198
v -0.00700757653 0.0745 0.198288679
v -0.0165075772 0.075 0.194
v -0.0117575768 0.0747500062 0.194250017
v -0.0170075763 0.0745 0.194500014
v -0.00650757644 0.075 0.194
v -0.00700757653 0.0745 0.194500014
v -0.0165075772 0.075 0.1922265
v -0.0167575777 0.0747500062 0.193363264
v -0.0170075763 0.0745 0.19251518
v -0.0165075772 0.075 0.194
v -0.0170075763 0.0745 0.194500014
v -0.07462936 0.075 0.158669874
v -0.0455684662 0.07482143 0.175654382
v -0.07444634 0.0745 0.159352884
v -0.0165075772 0.075 0.1922265
v -0.0170075763 0.0745 0.19251518
v -0.0794463456 0.0824999958 0.168013141
v -0.0772878453 0.0820767954 0.163428128
v -0.08012936 0.082 0.168196142
v -0.07444634 0.0824999958 0.159352884
v -0.07462936 0.082 0.158669874
v 0.0240126066 0.0745 0.220817015
v 0.0221711 0.0747500062 0.22350657
v 0.0233295932 0.075 0.221000016
v 0.0210126042 0.0745 0.226013154
v 0.0203295946 0.075 0.22619617
v -0.08012936 0.075 0.168196142
v -0.0772878453 0.07492321 0.163428128
v -0.0794463456 0.0745 0.168013141
v -0.07462936 0.075 0.158669874
v -0.07444634 0.0745 0.159352884
f 1 2 3
f 4 1 3
f 4 3 5
f 6 4 5
f 6 5 7
f 4 8 1
f 8 9 1
f 8 10 9
f 10 8 11
f 8 12 11
f 13 14 15
f 14 16 15
f 15 16 17
f 16 18 17
f 18 19 17
f 14 20 16
f 21 20 14
f 20 21 22
f 20 22 23
f 24 20 23
f 25 26 27
f 25 27 28
f 29 25 28
f 28 27 30
f 31 29 28
f 32 28 30
f 31 28 32
f 32 30 33
f 34 31 32
f 35 32 33
f 34 32 35
f 35 33 36
f 37 34 35
f 38 35 36
f 37 35 38
f 38 36 39
f 40 37 38
f 41 38 39
f 40 38 41
f 41 39 42
f 43 40 41
f 44 41 42
f 43 41 44
f 44 42 45
f 46 44 45
f 47 43 44
f 47 44 46
f 46 45 48
f 49 47 46
f 50 46 48
f 51 49 46
f 52 46 50
f 51 46 52
f 53 52 50
f 54 51 52
f 55 52 53
f 55 54 52
f 56 55 53
f 55 56 54
f 56 53 57
f 56 58 54
f 59 56 57
f 56 59 58
f 59 57 60
f 59 61 58
f 62 59 60
f 59 62 61
f 62 60 63
f 62 64 61
f 65 62 63
f 62 65 64
f 65 63 66
f 65 67 64
f 68 65 66
f 65 68 67
f 68 66 69
f 68 70 67
f 71 68 69
f 68 71 70
f 71 69 72
f 70 71 73
f 71 72 73
f 72 74 73
f 74 75 73
f 73 75 76
f 74 77 75
f 75 78 76
f 77 79 75
f 75 79 78
f 77 80 79
f 79 81 78
f 80 82 79
f 79 82 81
f 80 83 82
f 82 84 81
f 83 85 82
f 82 85 84
f 83 86 85
f 85 87 84
f 86 88 85
f 85 88 87
f 86 89 88
f 88 90 87
f 89 91 88
f 88 91 90
f 89 92 91
f 92 93 91
f 91 94 90
f 91 93 94
f 92 95 93
f 93 96 94
f 95 97 93
f 93 98 96
f 97 99 93
f 93 99 98
f 97 100 99
f 99 101 98
f 100 102 99
f 99 102 101
f 100 103 102
f 103 101 102
f 104 103 100
f 103 105 101
f 106 103 104
f 103 106 105
f 107 106 104
f 106 108 105
f 109 106 107
f 106 109 108
f 110 109 107
f 109 111 108
f 112 109 110
f 109 112 111
f 113 112 110
f 112 114 111
f 115 112 113
f 112 115 114
f 116 115 113
f 115 117 114
f 118 115 116
f 115 118 117
f 119 118 116
f 118 120 117
f 118 119 120
f 121 122 123
f 121 123 124
f 125 121 124
f 124 123 126
f 127 125 124
f 128 124 126
f 127 124 128
f 128 126 129
f 130 127 128
f 131 128 129
f 130 128 131
f 131 129 132
f 133 130 131
f 134 131 132
f 133 131 134
f 134 132 135
f 136 133 134
f 137 134 135
f 136 134 137
f 137 135 138
f 139 136 137
f 140 137 138
f 139 137 140
f 140 138 141
f 142 140 141
f 143 139 140
f 143 140 142
f 142 141 144
f 145 143 142
f 146 142 144
f 147 145 142
f 148 142 146
f 147 142 148
f 149 148 146
f 150 147 148
f 151 148 149
f 151 150 148
f 152 151 149
f 151 152 150
f 152 149 153
f 152 154 150
f 155 152 153
f 152 155 154
f 155 153 156
f 155 157 154
f 158 155 156
f 155 158 157
f 158 156 159
f 158 160 157
f 161 158 159
f 158 161 160
f 161 159 162
f 161 163 160
f 164 161 162
f 161 164 163
f 164 162 165
f 164 166 163
f 167 164 165
f 164 167 166
f 167 165 168
f 166 167 169
f 167 168 169
f 168 170 169
f 170 171 169
f 169 171 172
f 170 173 171
f 171 174 172
f 173 175 171
f 171 175 174
f 173 176 175
f 175 177 174
f 176 178 175
f 175 178 177
f 176 179 178
f 178 180 177
f 179 181 178
f 178 181 180
f 179 182 181
f 181 183 180
f 182 184 181
f 181 184 183
f 182 185 184
f 184 186 183
f 185 187 184
f 184 187 186
f 185 188 187
f 188 189 187
f 187 190 186
f 187 189 190
f 188 191 189
f 189 192 190
f 191 193 189
f 189 194 192
f 193 195 189
f 189 195 194
f 193 196 195
f 195 197 194
f 196 198 195
f 195 198 197
f 196 199 198
f 199 197 198
f 200 199 196
f 199 201 197
f 202 199 200
f 199 202 201
f 203 202 200
f 202 204 201
f 205 202 203
f 202 205 204
f 206 205 203
f 205 207 204
f 208 205 206
f 205 208 207
f 209 208 206
f 208 210 207
f 211 208 209
f 208 211 210
f 212 211 209
f 211 213 210
f 214 211 212
f 211 214 213
f 215 214 212
f 214 216 213
f 214 215 216
f 217 218 219
f 217 219 220
f 221 217 220
f 220 219 222
f 223 221 220
f 224 220 222
f 223 220 224
f 224 222 225
f 226 223 224
f 227 224 225
f 226 224 227
f 227 225 228
f 229 226 227
f 230 227 228
f 229 227 230
f 230 228 231
f 232 229 230
f 233 230 231
f 232 230 233
f 233 231 234
f 235 232 233
f 236 233 234
f 235 233 236
f 236 234 237
f 238 236 237
f 239 235 236
f 239 236 238
f 238 237 240
f 241 239 238
f 242 238 240
f 243 241 238
f 244 238 242
f 243 238 244
f 245 244 242
f 246 243 244
f 247 244 245
f 247 246 244
f 248 247 245
f 247 248 246
f 248 245 249
f 248 250 246
f 251 248 249
f 248 251 250
f 251 249 252
f 251 253 250
f 254 251 252
f 251 254 253
f 254 252 255
f 254 256 253
f 257 254 255
f 254 257 256
f 257 255 258
f 257 259 256
f 260 257 258
f 257 260 259
f 260 258 261
f 260 262 259
f 263 260 261
f 260 263 262
f 263 261 264
f 262 263 265
f 263 264 265
f 264 266 265
f 266 267 265
f 265 267 268
f 266 269 267
f 267 270 268
f 269 271 267
f 267 271 270
f 269 272 271
f 271 273 270
f 272 274 271
f 271 274 273
f 272 275 274
f 274 276 273
f 275 277 274
f 274 277 276
f 275 278 277
f 277 279 276
f 278 280 277
f 277 280 279
f 278 281 280
f 280 282 279
f 281 283 280
f 280 283 282
f 281 284 283
f 284 285 283
f 283 286 282
f 283 285 286
f 284 287 285
f 285 288 286
f 287 289 285
f 285 290 288
f 289 291 285
f 285 291 290
f 289 292 291
f 291 293 290
f 292 294 291
f 291 294 293
f 292 295 294
f 295 293 294
f 296 295 292
f 295 297 293
f 298 295 296
f 295 298 297
f 299 298 296
f 298 300 297
f 301 298 299
f 298 301 300
f 302 301 299
f 301 303 300
f 304 301 302
f 301 304 303
f 305 304 302
f 304 306 303
f 307 304 305
f 304 307 306
f 308 307 305
f 307 309 306
f 310 307 308
f 307 310 309
f 311 310 308
f 310 312 309
f 310 311 312
f 313 314 315
f 313 315 316
f 314 313 317
f 317 313 316
f 318 319 320
f 319 318 321
f 319 321 322
f 323 319 322
f 319 323 324
f 319 324 325
f 326 319 325
f 319 326 327
f 319 327 328
f 329 319 328
f 319 329 330
f 319 330 331
f 319 332 320
f 333 319 331
f 334 332 319
f 334 335 332
f 336 335 334
f 337 336 334
f 338 337 334
f 339 338 334
f 340 339 334
f 341 340 334
f 342 341 334
f 343 342 334
f 344 334 319
f 344 319 345
f 343 334 346
f 319 346 345
f 347 343 346
f 319 333 346
f 348 347 346
f 333 349 346
f 350 348 346
f 349 351 346
f 352 350 346
f 351 353 346
f 354 352 346
f 353 354 346
f 355 356 357
f 355 357 358
f 356 355 359
f 359 355 358
f 360 361 362
f 363 360 362
f 360 363 364
f 360 364 365
f 366 360 365
f 360 366 367
f 360 368 361
f 360 367 369
f 360 370 368
f 370 371 368
f 370 372 371
f 373 360 369
f 373 369 374
f 373 374 375
f 372 370 376
f 377 373 375
f 370 378 376
f 373 377 379
f 370 380 378
f 373 379 381
f 380 370 382
f 370 383 382
f 370 384 383
f 370 385 384
f 385 386 384
f 385 387 386
f 388 373 381
f 373 388 389
f 373 389 390
f 385 373 390
f 387 385 391
f 385 390 392
f 385 393 391
f 385 392 394
f 385 395 393
f 395 385 394
f 396 397 398
f 396 398 399
f 397 396 400
f 400 396 399
f 401 402 403
f 402 401 404
f 402 405 403
f 402 404 406
f 405 402 407
f 408 402 406
f 402 409 407
f 402 408 410
f 402 411 409
f 402 410 412
f 411 402 413
f 414 402 412
f 402 415 413
f 402 414 416
f 402 417 415
f 402 416 418
f 417 402 419
f 420 402 418
f 402 421 419
f 402 420 422
f 402 423 421
f 402 422 424
f 423 402 425
f 426 402 424
f 402 427 425
f 402 426 428
f 402 429 427
f 402 428 430
f 429 402 431
f 432 402 430
f 402 433 431
f 402 432 433
f 434 435 436
f 434 436 437
f 435 434 438
f 438 434 437
f 439 440 441
f 439 441 442
f 440 439 443
f 443 439 442
f 444 445 446
f 444 446 447
f 445 444 448
f 448 444 447
f 449 450 451
f 449 451 452
f 450 449 453
f 453 449 452
f 454 455 456
f 454 456 457
f 455 454 458
f 458 454 457
f 459 460 461
f 459 461 462
f 460 459 463
f 463 459 462
f 464 465 466
f 464 466 467
f 465 464 468
f 468 464 467
f 469 470 471
f 469 471 472
f 470 469 473
f 473 469 472
f 474 475 476
f 477 474 476
f 474 478 475
f 478 474 477
f 479 480 481
f 482 480 479
f 480 483 481
f 480 482 483
f 484 485 486
f 484 486 487
f 485 484 488
f 488 484 487
f 489 490 491
f 489 491 492
f 490 489 493
f 493 489 492
f 494 495 496
f 497 494 496
f 494 498 495
f 498 494 497
f 499 500 501
f 502 499 501
f 499 502 503
f 499 503 504
f 505 499 504
f 499 505 506
f 499 507 500
f 499 506 508
f 499 509 507
f 509 510 507
f 509 511 510
f 512 499 508
f 512 508 513
f 512 513 514
f 511 509 515
f 516 512 514
f 509 517 515
f 512 516 518
f 509 519 517
f 512 518 520
f 519 509 521
f 509 522 521
f 509 523 522
f 509 524 523
f 524 525 523
f 524 526 525
f 527 512 520
f 512 527 528
f 512 528 529
f 524 512 529
f 526 524 530
f 524 529 531
f 524 532 530
f 524 531 533
f 524 534 532
f 534 524 533
f 535 536 537
f 538 535 537
f 535 539 536
f 539 535 538
f 540 541 542
f 541 540 543
f 541 544 542
f 541 543 545
f 544 541 546
f 547 541 545
f 541 547 548
f 541 548 549
f 541 550 546
f 551 541 549
f 552 551 549
f 551 552 553
f 551 553 554
f 555 551 554
f 551 555 556
f 551 556 557
f 558 551 557
f 551 558 559
f 551 559 560
f 541 561 550
f 561 562 550
f 550 562 563
f 562 564 563
f 562 565 564
f 565 562 566
f 562 567 566
f 562 568 567
f 568 562 569
f 562 570 569
f 562 571 570
f 571 562 572
f 562 573 572
f 562 574 573
f 574 562 575
f 561 576 562
f 562 560 575
f 576 560 562
f 576 551 560
f 577 578 579
f 580 577 579
f 577 581 578
f 581 577 580
f 582 583 584
f 585 582 584
f 582 585 586
f 582 586 587
f 588 582 587
f 582 588 589
f 582 590 583
f 582 589 591
f 582 592 590
f 592 593 590
f 592 594 593
f 595 582 591
f 595 591 596
f 595 596 597
f 594 592 598
f 599 595 597
f 592 600 598
f 595 599 601
f 592 602 600
f 595 601 603
f 602 592 604
f 592 605 604
f 592 606 605
f 592 607 606
f 607 608 606
f 607 609 608
f 610 595 603
f 595 610 611
f 595 611 612
f 607 595 612
f 609 607 613
f 607 612 614
f 607 615 613
f 607 614 616
f 607 617 615
f 617 607 616
f 618 619 620
f 618 620 621
f 619 618 622
f 622 618 621
f 623 624 625
f 623 625 626
f 624 623 627
f 627 623 626
f 628 629 630
f 628 630 631
f 629 628 632
f 632 628 631
f 633 634 635
f 633 635 636
f 634 633 637
f 637 633 636
f 638 639 640
f 638 640 641
f 639 638 642
f 642 638 641
f 643 644 645
f 643 645 646
f 644 643 647
f 647 643 646
f 648 649 650
f 651 649 648
f 649 652 650
f 649 651 652
f 653 654 655
f 656 654 653
f 654 657 655
f 654 656 657
f 658 659 660
f 661 659 658
f 659 662 660
f 659 661 662
f 663 664 665
f 666 664 663
f 664 667 665
f 664 666 667
f 668 669 670
f 671 669 668
f 669 672 670
f 669 671 672
f 673 674 675
f 676 674 673
f 674 677 675
f 674 676 677
f 678 679 680
f 681 679 678
f 679 682 680
f 679 681 682
