# ROS coordinates: X forward, Y left, Z up; units are metres.
o mesh
v -0.07635 0.0125250015 0.123040006
v -0.0773500055 0.0125250015 0.12569
v -0.0773500055 0.0125250015 0.123040006
v -0.07635001 0.0125250015 0.13004
v -0.0773500055 0.0125250015 0.12774
v -0.0773500055 0.0125250015 0.12894
v -0.07875001 0.0125250015 0.13004
v -0.07835001 0.0125250015 0.12894
v -0.07875001 0.0125250015 0.12999
v -0.08005001 0.0125250015 0.129674539
v -0.07835001 0.0125250015 0.12774
v -0.08005001 0.0125250015 0.125909865
v -0.07740001 0.0125250015 0.12774
v -0.07875001 0.0125250015 0.12569
v -0.078200005 0.0125250015 0.12654
v -0.07830001 0.0125250015 0.12774
v -0.0773500055 0.012775002 0.123040006
v -0.0773500055 0.012775002 0.12569
v -0.07635 0.012775002 0.123040006
v -0.07635001 0.012775002 0.13004
v -0.0773500055 0.012775002 0.12774
v -0.0773500055 0.012775002 0.12894
v -0.07875001 0.012775002 0.13004
v -0.07835001 0.012775002 0.12894
v -0.07875001 0.012775002 0.12999
v -0.08005001 0.012775002 0.129674539
v -0.07835001 0.012775002 0.12774
v -0.08005001 0.012775002 0.125909865
v -0.07740001 0.012775002 0.12774
v -0.07875001 0.012775002 0.12569
v -0.078200005 0.012775002 0.12654
v -0.07830001 0.012775002 0.12774
v -0.07635001 0.0125460643 0.130150437
v -0.07635 0.01253001 0.130094588
v -0.07635001 0.0125250015 0.13004
v -0.07635 0.012712501 0.12669
v -0.07635 0.0125250015 0.123040006
v -0.07635 0.0125739016 0.130204171
v -0.07635 0.012775002 0.123040006
v -0.07635 0.0126128681 0.130252138
v -0.07635 0.0126608387 0.1302911
v -0.07635001 0.0127145723 0.13031894
v -0.07635001 0.012775002 0.13004
v -0.07635 0.0127704125 0.130334988
v -0.07635 0.0127758365 0.1300491
v -0.07635 0.0127785113 0.130058408
v -0.07635001 0.0127831511 0.130067363
v -0.07635 0.0127896462 0.130075365
v -0.07635 0.0127976406 0.130081847
v -0.07635 0.012825001 0.13034001
v -0.07635 0.0128065962 0.1300865
v -0.07635 0.012815902 0.130089164
v -0.07635001 0.012825001 0.13009
v -0.07635001 0.0129 0.13009
v -0.07635 0.0129 0.13034001
v -0.07875001 0.0125250015 0.12999
v -0.07875001 0.0125250015 0.13004
v -0.07875001 0.012775002 0.12999
v -0.07875001 0.012775002 0.13004
v -0.07875001 0.0127758365 0.1300491
v -0.07875001 0.0127785113 0.130058408
v -0.07875001 0.01253001 0.130094588
v -0.07875001 0.0127831511 0.130067363
v -0.07875001 0.0127896462 0.130075365
v -0.07875001 0.0127976406 0.130081847
v -0.07875001 0.0128065962 0.1300865
v -0.07875001 0.012815902 0.130089164
v -0.07875001 0.0125460643 0.130150437
v -0.07875001 0.012825001 0.13009
v -0.07875001 0.013212502 0.130165011
v -0.07875001 0.0125739016 0.130204171
v -0.07875001 0.0139000006 0.13009
v -0.07875001 0.0126128681 0.130252138
v -0.07875001 0.0139000006 0.13034001
v -0.07875001 0.0126608387 0.1302911
v -0.07875001 0.012825001 0.13034001
v -0.07875001 0.0127145723 0.13031894
v -0.07875001 0.0127704125 0.130334988
v -0.08018024 0.0125363953 0.129648075
v -0.08018024 0.0125363953 0.125928313
v -0.08014791 0.0125314184 0.125923708
v -0.08011538 0.0125278551 0.127792209
v -0.08014791 0.0125314184 0.129654691
v -0.08011537 0.0125278551 0.1259191
v -0.08011538 0.0125278551 0.1296613
v -0.08008272 0.0125257149 0.125914484
v -0.08008272 0.0125257149 0.129667923
v -0.08005001 0.0125250015 0.125909865
v -0.08005001 0.0125250015 0.129674539
v -0.08005001 0.012775002 0.129674539
v -0.08005001 0.012775002 0.125909865
v -0.0800718144 0.012775477 0.125914484
v -0.080093585 0.0127769038 0.127792209
v -0.08007182 0.012775477 0.129667923
v -0.080093585 0.0127769038 0.1259191
v -0.080093585 0.0127769038 0.1296613
v -0.08011527 0.0127792787 0.125923708
v -0.08011527 0.0127792787 0.129654691
v -0.08013683 0.0127825979 0.125928313
v -0.08013683 0.0127825979 0.129648075
v -0.07830001 0.012775002 0.12774
v -0.07830001 0.0125250015 0.12774
v -0.07830001 0.0127724558 0.127778992
v -0.07830001 0.012764778 0.127817646
v -0.07830001 0.0125245769 0.1277465
v -0.07830001 0.0127521008 0.127854958
v -0.07830001 0.012734808 0.12789
v -0.07830001 0.0125232972 0.127752945
v -0.07830001 0.012521185 0.127759159
v -0.07830001 0.0125183016 0.127765
v -0.07830001 0.0124195591 0.128208339
v -0.07830001 0.0122806244 0.128676668
v -0.07830001 0.0120641179 0.128551677
v -0.07740001 0.0125250015 0.12774
v -0.07740001 0.012775002 0.12774
v -0.07740001 0.0127724558 0.127778992
v -0.07740001 0.012764778 0.127817646
v -0.07740001 0.0125245769 0.1277465
v -0.07740001 0.0127521008 0.127854958
v -0.07740001 0.012734808 0.12789
v -0.07740001 0.0125232972 0.127752945
v -0.07740001 0.012521185 0.127759159
v -0.07740001 0.0125183016 0.127765
v -0.07740001 0.0124195591 0.128208339
v -0.07740001 0.0122806244 0.128676668
v -0.07740001 0.0120641179 0.128551677
v -0.07875001 0.012825001 0.13034001
v -0.07635 0.012825001 0.13034001
v -0.07635 0.0129 0.13034001
v -0.0773500055 0.0133625008 0.13034001
v -0.0759500042 0.0129 0.13034001
v -0.07875001 0.0139000006 0.13034001
v -0.0759500042 0.0139000006 0.13034001
v -0.08013683 0.0127825979 0.129648075
v -0.0801586 0.0126591492 0.129648075
v -0.08011527 0.0127792787 0.129654691
v -0.08010459 0.0126511361 0.1296613
v -0.080093585 0.0127769038 0.1296613
v -0.08007182 0.012775477 0.129667923
v -0.08014791 0.0125314184 0.129654691
v -0.08018024 0.0125363953 0.129648075
v -0.08011538 0.0125278551 0.1296613
v -0.08008272 0.0125257149 0.129667923
v -0.08005001 0.0126503538 0.129674539
v -0.08005001 0.0125250015 0.129674539
v -0.08005001 0.012775002 0.129674539
v -0.08005001 0.012775002 0.125909865
v -0.08005001 0.01264965 0.125909865
v -0.0800718144 0.012775477 0.125914484
v -0.08010459 0.0126511361 0.1259191
v -0.080093585 0.0127769038 0.1259191
v -0.08011527 0.0127792787 0.125923708
v -0.08008272 0.0125257149 0.125914484
v -0.08005001 0.0125250015 0.125909865
v -0.08011537 0.0125278551 0.1259191
v -0.08014791 0.0125314184 0.125923708
v -0.08015847 0.0126598421 0.125928313
v -0.08018024 0.0125363953 0.125928313
v -0.08013683 0.0127825979 0.125928313
v -0.07875001 0.012825001 0.13009
v -0.07635001 0.0129 0.13009
v -0.07635001 0.012825001 0.13009
v -0.0773500055 0.0133625008 0.13009
v -0.0759500042 0.0129 0.13009
v -0.07875001 0.0139000006 0.13009
v -0.0759500042 0.0139000006 0.13009
v -0.08309125 0.0133035425 0.126435712
v -0.0831129551 0.0131804459 0.126435712
v -0.08318565 0.0133299418 0.126456469
v -0.08323606 0.0132143181 0.126457334
v -0.08327308 0.01337425 0.126477212
v -0.08327626 0.01309694 0.126456469
v -0.0831346661 0.01305734 0.126435712
v -0.0834074 0.0131634027 0.126477212
v -0.0833488554 0.0132733174 0.126478851
v -0.08335019 0.013434764 0.126497969
v -0.0835230649 0.0132541731 0.126497969
v -0.08344069 0.0133468956 0.126498744
v -0.083414 0.013509158 0.126518726
v -0.08361879 0.0133657642 0.126518726
v -0.0835164 0.013437463 0.126518726
v -0.08361879 0.0133657642 0.128800958
v -0.0835230649 0.0132541731 0.128830746
v -0.08351639 0.0134374667 0.128800958
v -0.08343378 0.0133403149 0.128831938
v -0.0834074 0.0131634027 0.128860518
v -0.08335019 0.013434764 0.128830746
v -0.083414 0.013509158 0.128800958
v -0.08327308 0.01337425 0.128860518
v -0.08333278 0.0132630765 0.128862783
v -0.08327626 0.01309694 0.128890291
v -0.08318565 0.0133299418 0.128890291
v -0.08322717 0.0132108368 0.128891364
v -0.0831346661 0.01305734 0.128920078
v -0.08309125 0.0133035425 0.128920078
v -0.0831129551 0.01318045 0.128920078
v -0.0840776563 0.0140210856 0.126654029
v -0.0840776563 0.0140210856 0.128606826
v -0.0841207355 0.0140727442 0.128585368
v -0.08413555 0.0140869878 0.127630427
v -0.08410969 0.0140611045 0.126665413
v -0.08417051 0.0141154826 0.128564462
v -0.08415544 0.0141040012 0.126679361
v -0.0842090547 0.0141401943 0.127630427
v -0.08425827 0.014163645 0.128532484
v -0.08421753 0.0141448341 0.126695871
v -0.0842934251 0.0141756851 0.127630427
v -0.08430506 0.014178887 0.126716778
v -0.0843468755 0.014187362 0.1285032
v -0.08436689 0.014189804 0.126730725
v -0.08438209 0.0141909793 0.127630427
v -0.08440906 0.0141916368 0.12848334
v -0.08442965 0.0141909141 0.126744673
v -0.08444018 0.0141901318 0.127630427
v -0.08446897 0.0141865574 0.128464177
v -0.08449754 0.0141808782 0.127630427
v -0.08452208 0.0141742341 0.126765579
v -0.08455723 0.0141616873 0.1284349
v -0.0845545 0.0141627938 0.127630427
v -0.08458051 0.0141512509 0.126779526
v -0.08460456 0.0141384993 0.1284181
v -0.08460903 0.0141358953 0.127630427
v -0.08463462 0.014119409 0.126793474
v -0.08465518 0.0141040161 0.128398567
v -0.08465913 0.014100818 0.127630427
v -0.08470473 0.0140569005 0.126814365
v -0.08470305 0.0140587781 0.127630427
v -0.0847063959 0.0140550043 0.128375962
v -0.0847358555 0.0140169207 0.126825631
v -0.08473952 0.0140114389 0.127630427
v -0.08474301 0.0140060484 0.128356487
v -0.08476784 0.0139607023 0.12684
v -0.08476784 0.0139607023 0.12834
v -0.08499442 0.0140663572 0.12684
v -0.08499442 0.0140663572 0.12834
v -0.08493231 0.01417215 0.128364086
v -0.08492038 0.0141881555 0.127630427
v -0.08494003 0.0141612217 0.12682505
v -0.08486157 0.0142546147 0.1283854
v -0.08486633 0.014249878 0.126809269
v -0.08481775 0.014294045 0.127630427
v -0.08477775 0.0143243782 0.1284068
v -0.08477841 0.0143239107 0.126793548
v -0.08469275 0.014374651 0.127630427
v -0.0846897662 0.0143761095 0.126779482
v -0.08465117 0.014393365 0.1284351
v -0.08459419 0.0144136082 0.126765445
v -0.08455518 0.0144241415 0.127630427
v -0.08455841 0.0144233666 0.128454238
v -0.0844621956 0.0144391619 0.128473371
v -0.08446242 0.0144391414 0.126747072
v -0.0844623 0.0144391526 0.127630427
v -0.08436919 0.01444065 0.12849161
v -0.08436756 0.014440557 0.127630427
v -0.08436028 0.0144400913 0.126733109
v -0.08428836 0.0144310463 0.128507584
v -0.0842713043 0.01442769 0.127630427
v -0.0842591152 0.0144249983 0.126719117
v -0.08417645 0.01440003 0.127630427
v -0.08413032 0.0143806171 0.128540188
v -0.0841307 0.01438079 0.126700535
v -0.08408639 0.0143580306 0.127630427
v -0.0840307 0.0143228434 0.128562778
v -0.0840332657 0.0143246427 0.126685157
v -0.08400423 0.01430315 0.127630427
v -0.08394258 0.0142481308 0.128585458
v -0.08394626 0.0142518338 0.126669645
v -0.0839325 0.0142376851 0.127630427
v -0.08387287 0.0141644794 0.128606826
v -0.08387287 0.0141644794 0.126654029
v -0.08387287 0.0141644794 0.126654029
v -0.08397526 0.0140927806 0.126654029
v -0.08394626 0.0142518338 0.126669645
v -0.08406714 0.0141947027 0.126677275
v -0.0840332657 0.0143246427 0.126685157
v -0.08410969 0.0140611045 0.126665413
v -0.0840776563 0.0140210856 0.126654029
v -0.08415544 0.0141040012 0.126679361
v -0.08421753 0.0141448341 0.126695871
v -0.0841829553 0.014268592 0.126700535
v -0.0841307 0.01438079 0.126700535
v -0.08430506 0.014178887 0.126716778
v -0.0842591152 0.0144249983 0.126719117
v -0.08431396 0.0143097844 0.126723766
v -0.08436689 0.014189804 0.126730725
v -0.08445136 0.0143158622 0.126747042
v -0.08436028 0.0144400913 0.126733109
v -0.08442965 0.0141909141 0.126744673
v -0.08446242 0.0144391414 0.126747072
v -0.08452208 0.0141742341 0.126765579
v -0.08459419 0.0144136082 0.126765445
v -0.0845852643 0.0142860487 0.126770258
v -0.08458051 0.0141512509 0.126779526
v -0.08470717 0.0142226946 0.126793519
v -0.0846897662 0.0143761095 0.126779482
v -0.08463462 0.014119409 0.126793474
v -0.08477841 0.0143239107 0.126793548
v -0.08470473 0.0140569005 0.126814365
v -0.08486633 0.014249878 0.126809269
v -0.08480835 0.0141298566 0.12681675
v -0.0847358555 0.0140169207 0.126825631
v -0.08494003 0.0141612217 0.12682505
v -0.08476784 0.0139607023 0.12684
v -0.08499442 0.0140663572 0.12684
v -0.08397527 0.0140927806 0.128606826
v -0.08387287 0.0141644794 0.128606826
v -0.08394258 0.0142481308 0.128585458
v -0.08406714 0.0141947027 0.128573462
v -0.0840307 0.0143228434 0.128562778
v -0.0841207355 0.0140727442 0.128585368
v -0.0840776563 0.0140210856 0.128606826
v -0.08417051 0.0141154826 0.128564462
v -0.08418281 0.0142685212 0.128540143
v -0.08413032 0.0143806171 0.128540188
v -0.08425827 0.014163645 0.128532484
v -0.08428836 0.0144310463 0.128507584
v -0.08431396 0.0143097844 0.128506765
v -0.0843468755 0.014187362 0.1285032
v -0.08436919 0.01444065 0.12849161
v -0.08440906 0.0141916368 0.12848334
v -0.08445127 0.01431587 0.128473386
v -0.0844621956 0.0144391619 0.128473371
v -0.08446897 0.0141865574 0.128464177
v -0.08455841 0.0144233666 0.128454238
v -0.0845852643 0.0142860487 0.128440052
v -0.08455723 0.0141616873 0.1284349
v -0.08465117 0.014393365 0.1284351
v -0.08460456 0.0141384993 0.1284181
v -0.08470699 0.0142228268 0.128406748
v -0.08477775 0.0143243782 0.1284068
v -0.08465518 0.0141040161 0.128398567
v -0.08480835 0.0141298566 0.128373355
v -0.08486157 0.0142546147 0.1283854
v -0.0847063959 0.0140550043 0.128375962
v -0.08493231 0.01417215 0.128364086
v -0.08474301 0.0140060484 0.128356487
v -0.08499442 0.0140663572 0.12834
v -0.08476784 0.0139607023 0.12834
v -0.08488113 0.0140135288 0.12759
v -0.08499442 0.0140663572 0.12834
v -0.08499442 0.0140663572 0.12684
v -0.08476784 0.0139607023 0.12684
v -0.08476784 0.0139607023 0.12834
v -0.08374583 0.0137651227 0.128703892
v -0.083414 0.013509158 0.128800958
v -0.08387287 0.0141644794 0.128606826
v -0.08397527 0.0140927806 0.128606826
v -0.08351639 0.0134374667 0.128800958
v -0.0840776563 0.0140210856 0.128606826
v -0.08361879 0.0133657642 0.128800958
v -0.08374583 0.0137651227 0.126586378
v -0.08361879 0.0133657642 0.126518726
v -0.0840776563 0.0140210856 0.126654029
v -0.08397526 0.0140927806 0.126654029
v -0.0835164 0.013437463 0.126518726
v -0.08387287 0.0141644794 0.126654029
v -0.083414 0.013509158 0.126518726
v -0.08364344 0.0138368178 0.127659842
v -0.083414 0.013509158 0.128800958
v -0.083414 0.013509158 0.126518726
v -0.08387287 0.0141644794 0.126654029
v -0.08387287 0.0141644794 0.128606826
v -0.08384822 0.0136934239 0.127659842
v -0.08361879 0.0133657642 0.126518726
v -0.08361879 0.0133657642 0.128800958
v -0.0840776563 0.0140210856 0.128606826
v -0.0840776563 0.0140210856 0.126654029
v -0.08309125 0.0133035425 0.126435712
v -0.08318565 0.0133299418 0.127677888
v -0.08309125 0.0133035425 0.128920078
v -0.08318565 0.0133299418 0.126456469
v -0.08318565 0.0133299418 0.128890291
v -0.08327308 0.01337425 0.126477212
v -0.08327308 0.01337425 0.128860518
v -0.08327308 0.01337425 0.127677888
v -0.08335019 0.013434764 0.126497969
v -0.08335019 0.013434764 0.128830746
v -0.08335019 0.013434764 0.127677888
v -0.083414 0.013509158 0.126518726
v -0.083414 0.013509158 0.128800958
v -0.0831346661 0.01305734 0.128920078
v -0.08327626 0.01309694 0.127677888
v -0.0831346661 0.01305734 0.126435712
v -0.08327626 0.01309694 0.128890291
v -0.08327626 0.01309694 0.126456469
v -0.0834074 0.0131634027 0.128860518
v -0.0834074 0.0131634027 0.126477212
v -0.0834074 0.0131634027 0.127677888
v -0.0835230649 0.0132541731 0.128830746
v -0.0835230649 0.0132541731 0.126497969
v -0.0835230649 0.0132541731 0.127677888
v -0.08361879 0.0133657642 0.128800958
v -0.08361879 0.0133657642 0.126518726
v -0.08163578 0.0129198 0.129284069
v -0.08013683 0.0127825979 0.129648075
v -0.08309125 0.0133035425 0.128920078
v -0.0831129551 0.01318045 0.128920078
v -0.0801586 0.0126591492 0.129648075
v -0.0831346661 0.01305734 0.128920078
v -0.08018024 0.0125363953 0.129648075
v -0.08163571 0.0129201449 0.12618202
v -0.08018024 0.0125363953 0.125928313
v -0.0831346661 0.01305734 0.126435712
v -0.0831129551 0.0131804459 0.126435712
v -0.08015847 0.0126598421 0.125928313
v -0.08309125 0.0133035425 0.126435712
v -0.08013683 0.0127825979 0.125928313
v -0.0773500055 0.0139000006 0.130215
v -0.0759500042 0.0139000006 0.13034001
v -0.0759500042 0.0139000006 0.13009
v -0.07875001 0.0139000006 0.13009
v -0.07875001 0.0139000006 0.13034001
v -0.0759500042 0.0134000015 0.130215
v -0.0759500042 0.0129 0.13034001
v -0.0759500042 0.0129 0.13009
v -0.0759500042 0.0139000006 0.13009
v -0.0759500042 0.0139000006 0.13034001
v -0.07615001 0.0129 0.130215
v -0.07635 0.0129 0.13034001
v -0.07635001 0.0129 0.13009
v -0.0759500042 0.0129 0.13009
v -0.0759500042 0.0129 0.13034001
v -0.07785001 0.0121723711 0.128614172
v -0.07740001 0.0120641179 0.128551677
v -0.07740001 0.0122806244 0.128676668
v -0.07830001 0.0122806244 0.128676668
v -0.07830001 0.0120641179 0.128551677
v -0.08161404 0.01304307 0.127788186
v -0.08013683 0.0127825979 0.129648075
v -0.08013683 0.0127825979 0.125928313
v -0.08309125 0.0133035425 0.126435712
v -0.08309125 0.0133035425 0.128920078
v -0.07785001 0.0125077162 0.128283337
v -0.07830001 0.012734808 0.12789
v -0.07830001 0.0122806244 0.128676668
v -0.07740001 0.0122806244 0.128676668
v -0.07740001 0.012734808 0.12789
v -0.0816574544 0.0127968676 0.127788186
v -0.08018024 0.0125363953 0.125928313
v -0.08018024 0.0125363953 0.129648075
v -0.0831346661 0.01305734 0.128920078
v -0.0831346661 0.01305734 0.126435712
v -0.07785001 0.01229121 0.128158331
v -0.07740001 0.0120641179 0.128551677
v -0.07830001 0.0120641179 0.128551677
v -0.07830001 0.0125183016 0.127765
v -0.07740001 0.0125183016 0.127765
v -0.07875001 0.012775002 0.13004
v -0.07755001 0.0127758365 0.1300491
v -0.07635001 0.012775002 0.13004
v -0.07875001 0.0127758365 0.1300491
v -0.07635 0.0127758365 0.1300491
v -0.07875001 0.0127785113 0.130058408
v -0.07755001 0.0127785113 0.130058408
v -0.07635 0.0127785113 0.130058408
v -0.07875001 0.0127831511 0.130067363
v -0.07755001 0.0127831511 0.130067363
v -0.07635001 0.0127831511 0.130067363
v -0.07875001 0.0127896462 0.130075365
v -0.07755001 0.0127896462 0.130075365
v -0.07635 0.0127896462 0.130075365
v -0.07875001 0.0127976406 0.130081847
v -0.07755001 0.0127976406 0.130081847
v -0.07635 0.0127976406 0.130081847
v -0.07875001 0.0128065962 0.1300865
v -0.07755001 0.0128065962 0.1300865
v -0.07635 0.0128065962 0.1300865
v -0.07875001 0.012815902 0.130089164
v -0.07755001 0.012815902 0.130089164
v -0.07635 0.012815902 0.130089164
v -0.07875001 0.012825001 0.13009
v -0.07635001 0.012825001 0.13009
v -0.07830001 0.012775002 0.12774
v -0.07785001 0.0127724558 0.127778992
v -0.07740001 0.012775002 0.12774
v -0.07830001 0.0127724558 0.127778992
v -0.07740001 0.0127724558 0.127778992
v -0.07830001 0.012764778 0.127817646
v -0.07785001 0.012764778 0.127817646
v -0.07740001 0.012764778 0.127817646
v -0.07830001 0.0127521008 0.127854958
v -0.07785001 0.0127521008 0.127854958
v -0.07740001 0.0127521008 0.127854958
v -0.07830001 0.012734808 0.12789
v -0.07740001 0.012734808 0.12789
v -0.07805 0.0126500018 0.12569
v -0.07875001 0.0125250015 0.12569
v -0.07875001 0.012775002 0.12569
v -0.0773500055 0.012775002 0.12569
v -0.0773500055 0.0125250015 0.12569
v -0.08005001 0.01264965 0.125909865
v -0.07940001 0.0126498248 0.125799939
v -0.08005001 0.0125250015 0.125909865
v -0.08005001 0.012775002 0.125909865
v -0.07875001 0.0125250015 0.12569
v -0.07875001 0.012775002 0.12569
v -0.08005001 0.0126503538 0.129674539
v -0.07940001 0.0126501769 0.129832268
v -0.08005001 0.012775002 0.129674539
v -0.08005001 0.0125250015 0.129674539
v -0.07875001 0.012775002 0.12999
v -0.07875001 0.0125250015 0.12999
v -0.07635001 0.0125250015 0.13004
v -0.07755001 0.01253001 0.130094588
v -0.07875001 0.0125250015 0.13004
v -0.07635 0.01253001 0.130094588
v -0.07875001 0.01253001 0.130094588
v -0.07635001 0.0125460643 0.130150437
v -0.07755001 0.0125460643 0.130150437
v -0.07875001 0.0125460643 0.130150437
v -0.07635 0.0125739016 0.130204171
v -0.07755001 0.0125739016 0.130204171
v -0.07875001 0.0125739016 0.130204171
v -0.07635 0.0126128681 0.130252138
v -0.07755001 0.0126128681 0.130252138
v -0.07875001 0.0126128681 0.130252138
v -0.07635 0.0126608387 0.1302911
v -0.07755001 0.0126608387 0.1302911
v -0.07875001 0.0126608387 0.1302911
v -0.07635001 0.0127145723 0.13031894
v -0.07755001 0.0127145723 0.13031894
v -0.07875001 0.0127145723 0.13031894
v -0.07635 0.0127704125 0.130334988
v -0.07755001 0.0127704125 0.130334988
v -0.07875001 0.0127704125 0.130334988
v -0.07635 0.012825001 0.13034001
v -0.07875001 0.012825001 0.13034001
v -0.07740001 0.0125250015 0.12774
v -0.07785001 0.0125245769 0.1277465
v -0.07830001 0.0125250015 0.12774
v -0.07740001 0.0125245769 0.1277465
v -0.07830001 0.0125245769 0.1277465
v -0.07740001 0.0125232972 0.127752945
v -0.07785001 0.0125232972 0.127752945
v -0.07830001 0.0125232972 0.127752945
v -0.07740001 0.012521185 0.127759159
v -0.07785001 0.012521185 0.127759159
v -0.07830001 0.012521185 0.127759159
v -0.07740001 0.0125183016 0.127765
v -0.07830001 0.0125183016 0.127765
v -0.07737501 0.0126500018 0.12774
v -0.0773500055 0.0125250015 0.12774
v -0.0773500055 0.012775002 0.12774
v -0.07740001 0.012775002 0.12774
v -0.07740001 0.0125250015 0.12774
v -0.0773500055 0.0126500018 0.12834
v -0.0773500055 0.0125250015 0.12894
v -0.0773500055 0.012775002 0.12894
v -0.0773500055 0.012775002 0.12774
v -0.0773500055 0.0125250015 0.12774
v -0.07785001 0.0126500018 0.12894
v -0.07835001 0.0125250015 0.12894
v -0.07835001 0.012775002 0.12894
v -0.0773500055 0.012775002 0.12894
v -0.0773500055 0.0125250015 0.12894
v -0.07835001 0.0126500018 0.12834
v -0.07835001 0.0125250015 0.12774
v -0.07835001 0.012775002 0.12774
v -0.07835001 0.012775002 0.12894
v -0.07835001 0.0125250015 0.12894
v -0.078325 0.0126500018 0.12774
v -0.07830001 0.0125250015 0.12774
v -0.07830001 0.012775002 0.12774
v -0.07835001 0.012775002 0.12774
v -0.07835001 0.0125250015 0.12774
v -0.0773500055 0.0126500018 0.124365
v -0.0773500055 0.0125250015 0.123040006
v -0.0773500055 0.0125250015 0.12569
v -0.0773500055 0.012775002 0.12569
v -0.0773500055 0.012775002 0.123040006
v -0.07635 0.0125250015 0.123040006
v -0.0768500045 0.0126500018 0.123040006
v -0.07635 0.012775002 0.123040006
v -0.0773500055 0.0125250015 0.123040006
v -0.0773500055 0.012775002 0.123040006
f 1 2 3
f 1 4 2
f 4 5 2
f 4 6 5
f 4 7 6
f 7 8 6
f 7 9 8
f 9 10 8
f 10 11 8
f 10 12 11
f 2 5 13
f 12 14 11
f 14 2 15
f 2 13 15
f 14 15 11
f 15 13 16
f 11 15 16
f 17 18 19
f 18 20 19
f 20 18 21
f 20 21 22
f 23 20 22
f 23 22 24
f 25 23 24
f 26 25 24
f 26 24 27
f 28 26 27
f 18 29 21
f 30 28 27
f 18 30 31
f 18 31 29
f 30 27 31
f 31 32 29
f 31 27 32
f 33 34 35
f 36 33 35
f 36 35 37
f 33 36 38
f 39 36 37
f 36 40 38
f 36 41 40
f 41 36 42
f 36 39 43
f 36 43 42
f 42 43 44
f 43 45 44
f 45 46 44
f 46 47 44
f 47 48 44
f 48 49 44
f 49 50 44
f 49 51 50
f 51 52 50
f 52 53 50
f 53 54 50
f 54 55 50
f 56 57 58
f 57 59 58
f 57 60 59
f 60 57 61
f 57 62 61
f 62 63 61
f 62 64 63
f 64 62 65
f 62 66 65
f 62 67 66
f 62 68 67
f 68 69 67
f 68 70 69
f 70 68 71
f 70 72 69
f 73 70 71
f 70 74 72
f 70 73 75
f 74 70 76
f 70 75 76
f 76 75 77
f 78 76 77
f 79 80 81
f 79 81 82
f 83 79 82
f 82 81 84
f 83 82 85
f 86 82 84
f 82 87 85
f 82 86 87
f 86 88 87
f 88 89 87
f 90 91 92
f 90 92 93
f 94 90 93
f 93 92 95
f 94 93 96
f 93 95 97
f 93 98 96
f 99 93 97
f 93 99 98
f 99 100 98
f 101 102 103
f 102 104 103
f 102 105 104
f 105 106 104
f 105 107 106
f 107 105 108
f 109 107 108
f 107 109 110
f 107 110 111
f 112 107 111
f 111 110 113
f 112 111 113
f 114 115 116
f 114 116 117
f 118 114 117
f 118 117 119
f 118 119 120
f 121 118 120
f 121 120 122
f 120 123 122
f 120 124 123
f 125 124 120
f 124 126 123
f 124 125 126
f 127 128 129
f 130 127 129
f 130 129 131
f 127 130 132
f 133 130 131
f 130 133 132
f 134 135 136
f 135 137 136
f 136 137 138
f 137 139 138
f 135 140 137
f 140 135 141
f 140 142 137
f 142 143 137
f 143 139 137
f 143 144 139
f 144 143 145
f 144 146 139
f 147 148 149
f 148 150 149
f 149 150 151
f 150 152 151
f 148 153 150
f 153 148 154
f 153 155 150
f 155 156 150
f 156 152 150
f 156 157 152
f 157 156 158
f 157 159 152
f 160 161 162
f 163 161 160
f 161 163 164
f 165 163 160
f 163 166 164
f 163 165 166
f 167 168 169
f 168 170 169
f 171 169 170
f 168 172 170
f 172 168 173
f 172 174 170
f 171 170 175
f 174 175 170
f 176 171 175
f 174 177 175
f 176 175 178
f 177 178 175
f 179 176 178
f 177 180 178
f 181 179 178
f 180 181 178
f 182 183 184
f 183 185 184
f 183 186 185
f 187 184 185
f 187 188 184
f 189 187 185
f 186 190 185
f 189 185 190
f 186 191 190
f 192 189 190
f 191 193 190
f 192 190 193
f 191 194 193
f 195 192 193
f 194 196 193
f 196 195 193
f 197 198 199
f 197 199 200
f 201 197 200
f 202 200 199
f 201 200 203
f 200 202 204
f 200 204 203
f 202 205 204
f 203 204 206
f 205 207 204
f 204 207 206
f 206 207 208
f 205 209 207
f 207 210 208
f 209 211 207
f 207 211 210
f 209 212 211
f 211 213 210
f 212 214 211
f 211 214 213
f 212 215 214
f 214 216 213
f 215 216 214
f 213 216 217
f 215 218 216
f 216 219 217
f 218 219 216
f 217 219 220
f 218 221 219
f 219 222 220
f 221 222 219
f 220 222 223
f 221 224 222
f 222 225 223
f 224 225 222
f 223 225 226
f 224 227 225
f 227 226 225
f 227 224 228
f 227 229 226
f 230 227 228
f 227 230 229
f 230 228 231
f 230 232 229
f 233 230 231
f 230 233 232
f 234 235 236
f 234 236 237
f 238 234 237
f 239 237 236
f 238 237 240
f 237 239 241
f 237 241 240
f 239 242 241
f 240 241 243
f 242 244 241
f 241 244 243
f 243 244 245
f 242 246 244
f 244 247 245
f 246 248 244
f 244 248 247
f 246 249 248
f 249 250 248
f 248 251 247
f 250 252 248
f 248 252 251
f 250 253 252
f 252 254 251
f 253 254 252
f 251 254 255
f 253 256 254
f 254 257 255
f 256 257 254
f 255 257 258
f 256 259 257
f 259 258 257
f 260 259 256
f 259 261 258
f 262 259 260
f 259 262 261
f 263 262 260
f 262 264 261
f 265 262 263
f 262 265 264
f 266 265 263
f 265 267 264
f 268 265 266
f 265 268 267
f 269 268 266
f 268 270 267
f 268 269 270
f 271 272 273
f 272 274 273
f 275 273 274
f 272 276 274
f 276 272 277
f 276 278 274
f 278 279 274
f 275 274 280
f 279 280 274
f 281 275 280
f 279 282 280
f 283 281 280
f 282 284 280
f 283 280 284
f 282 285 284
f 285 286 284
f 287 283 284
f 287 284 286
f 285 288 286
f 289 287 286
f 288 290 286
f 291 289 286
f 290 292 286
f 291 286 292
f 290 293 292
f 293 294 292
f 295 291 292
f 295 292 294
f 293 296 294
f 297 295 294
f 296 298 294
f 299 297 294
f 298 300 294
f 299 294 300
f 298 301 300
f 302 299 300
f 301 303 300
f 304 302 300
f 303 304 300
f 305 306 307
f 308 305 307
f 308 307 309
f 305 308 310
f 311 305 310
f 310 308 312
f 313 308 309
f 308 313 312
f 313 309 314
f 312 313 315
f 313 314 316
f 313 317 315
f 317 313 316
f 315 317 318
f 317 316 319
f 317 320 318
f 321 317 319
f 317 321 320
f 321 319 322
f 321 323 320
f 321 322 324
f 321 325 323
f 325 321 324
f 325 326 323
f 325 324 327
f 325 328 326
f 329 325 327
f 325 329 328
f 329 327 330
f 329 331 328
f 329 332 331
f 329 330 333
f 332 329 333
f 332 334 331
f 332 333 335
f 332 336 334
f 332 335 337
f 336 332 338
f 338 332 337
f 339 340 341
f 339 341 342
f 340 339 343
f 343 339 342
f 344 345 346
f 347 344 346
f 344 348 345
f 344 347 349
f 348 344 350
f 344 349 350
f 351 352 353
f 354 351 353
f 351 355 352
f 351 354 356
f 355 351 357
f 351 356 357
f 358 359 360
f 358 360 361
f 359 358 362
f 362 358 361
f 363 364 365
f 366 363 365
f 363 367 364
f 367 363 366
f 368 369 370
f 369 368 371
f 369 372 370
f 373 369 371
f 369 374 372
f 375 369 373
f 369 375 374
f 376 375 373
f 375 377 374
f 378 375 376
f 375 378 377
f 379 378 376
f 378 380 377
f 378 379 380
f 381 382 383
f 382 381 384
f 382 385 383
f 382 384 386
f 382 387 385
f 388 382 386
f 382 388 387
f 388 386 389
f 388 390 387
f 391 388 389
f 388 391 390
f 391 389 392
f 391 393 390
f 393 391 392
f 394 395 396
f 397 394 396
f 394 398 395
f 394 397 399
f 398 394 400
f 394 399 400
f 401 402 403
f 404 401 403
f 401 405 402
f 401 404 406
f 405 401 407
f 401 406 407
f 408 409 410
f 408 410 411
f 409 408 412
f 412 408 411
f 413 414 415
f 413 415 416
f 414 413 417
f 417 413 416
f 418 419 420
f 418 420 421
f 419 418 422
f 422 418 421
f 423 424 425
f 423 425 426
f 424 423 427
f 427 423 426
f 428 429 430
f 428 430 431
f 429 428 432
f 432 428 431
f 433 434 435
f 433 435 436
f 434 433 437
f 437 433 436
f 438 439 440
f 441 438 440
f 438 442 439
f 442 438 441
f 443 444 445
f 443 445 446
f 444 443 447
f 447 443 446
f 448 449 450
f 449 448 451
f 449 452 450
f 449 451 453
f 449 454 452
f 454 449 453
f 454 455 452
f 454 453 456
f 454 457 455
f 457 454 456
f 457 458 455
f 457 456 459
f 457 460 458
f 460 457 459
f 460 461 458
f 460 459 462
f 460 463 461
f 463 460 462
f 463 464 461
f 463 462 465
f 463 466 464
f 466 463 465
f 466 467 464
f 466 465 468
f 466 469 467
f 469 466 468
f 469 470 467
f 469 468 471
f 470 469 472
f 469 471 472
f 473 474 475
f 474 473 476
f 474 477 475
f 474 476 478
f 474 479 477
f 479 474 478
f 479 480 477
f 479 478 481
f 479 482 480
f 482 479 481
f 482 483 480
f 482 481 484
f 482 485 483
f 485 482 484
f 486 487 488
f 486 488 489
f 487 486 490
f 490 486 489
f 491 492 493
f 492 491 494
f 492 495 493
f 492 494 496
f 495 492 496
f 497 498 499
f 498 497 500
f 498 501 499
f 498 500 502
f 501 498 502
f 503 504 505
f 504 503 506
f 504 507 505
f 504 506 508
f 504 509 507
f 509 504 508
f 509 510 507
f 509 508 511
f 509 512 510
f 512 509 511
f 512 513 510
f 512 511 514
f 512 515 513
f 515 512 514
f 515 516 513
f 515 514 517
f 515 518 516
f 518 515 517
f 518 519 516
f 518 517 520
f 518 521 519
f 521 518 520
f 521 522 519
f 521 520 523
f 521 524 522
f 524 521 523
f 524 525 522
f 524 523 526
f 525 524 527
f 524 526 527
f 528 529 530
f 529 528 531
f 529 532 530
f 529 531 533
f 529 534 532
f 534 529 533
f 534 535 532
f 534 533 536
f 534 537 535
f 537 534 536
f 537 538 535
f 537 536 539
f 537 540 538
f 540 537 539
f 541 542 543
f 541 543 544
f 542 541 545
f 545 541 544
f 546 547 548
f 546 548 549
f 547 546 550
f 550 546 549
f 551 552 553
f 551 553 554
f 552 551 555
f 555 551 554
f 556 557 558
f 556 558 559
f 557 556 560
f 560 556 559
f 561 562 563
f 561 563 564
f 562 561 565
f 565 561 564
f 566 567 568
f 566 568 569
f 567 566 570
f 570 566 569
f 571 572 573
f 574 572 571
f 572 575 573
f 572 574 575
