# ROS coordinates: X forward, Y left, Z up; units are metres.
o mesh
v -0.0241546929 -8.684203E-16 0.2022452
v 0.0191465821 -0.0824999958 0.2272452
v -0.06745596 -0.0824999958 0.1772452
v -0.06745596 0.0824999958 0.1772452
v 0.0191465821 0.0824999958 0.2272452
v 0.0140485037 0.0775 0.23007533
v 0.0140485037 -0.0775 0.23007533
v 0.0166465845 -0.0824999958 0.231575325
v -0.06302776 -0.0775 0.185575321
v 0.0166465845 0.0824999958 0.231575325
v -0.06995596 -0.0824999958 0.181575328
v -0.06302776 0.0775 0.185575321
v -0.06995596 0.0824999958 0.181575328
v -0.06870597 -7.523692E-16 0.179410264
v -0.06995596 0.0824999958 0.181575328
v -0.06745596 0.0824999958 0.1772452
v -0.06745596 -0.0824999958 0.1772452
v -0.06995596 -0.0824999958 0.181575328
v -0.0254046917 0.0824999958 0.204410255
v 0.0166465845 0.0824999958 0.231575325
v 0.0191465821 0.0824999958 0.2272452
v -0.06745596 0.0824999958 0.1772452
v -0.06995596 0.0824999958 0.181575328
v 0.01789658 -1.0477985E-15 0.229410261
v 0.0166465845 -0.0824999958 0.231575325
v 0.0191465821 -0.0824999958 0.2272452
v 0.0191465821 0.0824999958 0.2272452
v 0.0166465845 0.0824999958 0.231575325
v -0.06290276 -8.528176E-16 0.185358822
v -0.06277776 0.0775 0.185142308
v -0.06302776 0.0775 0.185575321
v -0.06302776 -0.0775 0.185575321
v -0.06277776 -0.0775 0.185142308
v 0.0142985005 -0.0775 0.229642317
v -0.0243646279 -0.0775 0.207608819
v 0.0140485037 -0.0775 0.23007533
v -0.06277776 -0.0775 0.185142308
v -0.06302776 -0.0775 0.185575321
v 0.0142985005 0.0775 0.229642317
v 0.0141735021 -1.00312863E-15 0.229858816
v 0.0140485037 0.0775 0.23007533
v 0.0142985005 -0.0775 0.229642317
v 0.0140485037 -0.0775 0.23007533
v 0.0166465845 -0.0824999958 0.231575325
v -0.0254046917 -0.0824999958 0.204410255
v 0.0191465821 -0.0824999958 0.2272452
v -0.06995596 -0.0824999958 0.181575328
v -0.06745596 -0.0824999958 0.1772452
v -0.06277776 0.0775 0.185142308
v -0.0243646279 0.0775 0.207608819
v -0.06302776 0.0775 0.185575321
v 0.0142985005 0.0775 0.229642317
v 0.0140485037 0.0775 0.23007533
v -0.02423963 -9.194777E-16 0.2073923
v 0.0142985005 0.0775 0.229642317
v -0.06277776 0.0775 0.185142308
v -0.06277776 -0.0775 0.185142308
v 0.0142985005 -0.0775 0.229642317
f 1 2 3
f 1 3 4
f 2 1 5
f 5 1 4
f 6 7 8
f 7 9 8
f 6 8 10
f 8 9 11
f 12 6 10
f 9 13 11
f 9 12 13
f 12 10 13
f 14 15 16
f 14 16 17
f 15 14 18
f 18 14 17
f 19 20 21
f 19 21 22
f 20 19 23
f 23 19 22
f 24 25 26
f 24 26 27
f 25 24 28
f 28 24 27
f 29 30 31
f 29 31 32
f 30 29 33
f 33 29 32
f 34 35 36
f 37 35 34
f 35 38 36
f 35 37 38
f 39 40 41
f 42 40 39
f 40 43 41
f 40 42 43
f 44 45 46
f 47 45 44
f 45 48 46
f 45 47 48
f 49 50 51
f 52 50 49
f 50 53 51
f 50 52 53
f 54 55 56
f 54 56 57
f 55 54 58
f 58 54 57
