# ROS coordinates: X forward, Y left, Z up; units are metres.
o mesh
v -0.132989287 -0.05634 0.156980738
v -0.13298966 -0.05630828 0.15732646
v -0.1327393 -0.0560900047 0.156980991
v -0.132864684 -0.05617598 0.157351017
v -0.132739618 -0.0560624562 0.157281235
v -0.132990032 -0.0562066026 0.1576801
v -0.132739946 -0.0559741557 0.157588348
v -0.132865071 -0.0560504347 0.157727286
v -0.1329904 -0.0560302958 0.158020437
v -0.132740259 -0.0558210462 0.157883883
v -0.132865459 -0.0558343753 0.1580792
v -0.132990718 -0.0557835028 0.158324242
v -0.132740542 -0.05560673 0.158147722
v -0.132865787 -0.0555383377 0.158375233
v -0.132991016 -0.0554797 0.15857102
v -0.132740766 -0.0553428978 0.158362031
v -0.132866025 -0.0551864281 0.158591285
v -0.1329912 -0.05513938 0.158747345
v -0.132740945 -0.0550473556 0.158515155
v -0.132866144 -0.0548101552 0.158716843
v -0.132991284 -0.05478573 0.158849
v -0.132866189 -0.05444 0.158755869
v -0.132741034 -0.05474024 0.15860346
v -0.132991314 -0.05444 0.158880726
v -0.132741064 -0.05444 0.158631012
v -0.132991284 -0.0540942736 0.158849
v -0.132741034 -0.0541397631 0.15860346
v -0.132866144 -0.05406985 0.158716843
v -0.1329912 -0.0537406243 0.158747345
v -0.1328659 -0.0535125323 0.1584943
v -0.132740945 -0.0538326465 0.158515155
v -0.132991016 -0.0534003042 0.15857102
v -0.132740766 -0.053537108 0.158362031
v -0.132990718 -0.053096503 0.158324242
v -0.132740542 -0.0532732755 0.158147722
v -0.132865459 -0.05304563 0.1580792
v -0.1329904 -0.05284971 0.158020437
v -0.132864892 -0.0527554229 0.157540172
v -0.132740259 -0.05305896 0.157883883
v -0.132990032 -0.0526734032 0.1576801
v -0.132739946 -0.05290585 0.157588348
v -0.13298966 -0.0525717251 0.15732646
v -0.132739618 -0.0528175458 0.157281235
v -0.132989287 -0.0525400043 0.156980738
v -0.1327393 -0.05279 0.156980991
v -0.133010715 -0.0525400043 0.1769807
v -0.132760718 -0.05279 0.176980987
v -0.132761031 -0.0528175458 0.177281231
v -0.132886291 -0.0527554229 0.177540153
v -0.133011073 -0.0525717251 0.177326441
v -0.132761359 -0.05290585 0.177588344
v -0.13301146 -0.0526734032 0.1776801
v -0.132761657 -0.05305896 0.177883878
v -0.133011833 -0.05284971 0.178020418
v -0.132886887 -0.05304563 0.178079173
v -0.132761955 -0.0532732755 0.1781477
v -0.132887319 -0.0535125323 0.17849426
v -0.133012161 -0.053096503 0.178324223
v -0.1327622 -0.053537108 0.178362012
v -0.133012414 -0.0534003042 0.178571
v -0.132762343 -0.0538326465 0.178515151
v -0.133012608 -0.0537406243 0.178747326
v -0.132887557 -0.05406985 0.178716823
v -0.132762447 -0.0541397631 0.178603426
v -0.1328876 -0.05444 0.178755865
v -0.133012712 -0.0540942736 0.178849
v -0.132762462 -0.05444 0.178630978
v -0.133012742 -0.05444 0.178880721
v -0.132762447 -0.05474024 0.178603426
v -0.133012712 -0.05478573 0.178849
v -0.132887557 -0.0548101552 0.178716823
v -0.132762343 -0.0550473556 0.178515151
v -0.133012608 -0.05513938 0.178747326
v -0.132887423 -0.0551864281 0.178591281
v -0.1327622 -0.0553428978 0.178362012
v -0.133012414 -0.0554797 0.178571
v -0.132887214 -0.0555383377 0.178375229
v -0.132761955 -0.05560673 0.1781477
v -0.133012161 -0.0557835028 0.178324223
v -0.132886887 -0.0558343753 0.178079173
v -0.132761657 -0.0558210462 0.177883878
v -0.133011833 -0.0560302958 0.178020418
v -0.1328865 -0.0560504347 0.177727267
v -0.132761359 -0.0559741557 0.177588344
v -0.13301146 -0.0562066026 0.1776801
v -0.132886112 -0.05617598 0.177351
v -0.132761031 -0.0560624562 0.177281231
v -0.133011073 -0.05630828 0.177326441
v -0.132760718 -0.0560900047 0.176980987
v -0.133010715 -0.05634 0.1769807
v -0.132760376 -0.0560624562 0.176680744
v -0.132760718 -0.05279 0.176980987
v -0.133010715 -0.0525400043 0.1769807
v -0.133010358 -0.0525717251 0.176635012
v -0.1328853 -0.05270403 0.1766107
v -0.132760376 -0.0528175458 0.176680744
v -0.13300997 -0.0526734032 0.176281348
v -0.132760063 -0.05290585 0.176373616
v -0.13288492 -0.05282957 0.176234439
v -0.133009613 -0.05284971 0.17594102
v -0.13275975 -0.05305896 0.1760781
v -0.132884532 -0.05304563 0.175882518
v -0.13300927 -0.053096503 0.1756372
v -0.132759452 -0.0532732755 0.175814271
v -0.1328842 -0.0533416681 0.175586477
v -0.133009 -0.0534003042 0.175390422
v -0.132759228 -0.053537108 0.175599948
v -0.132883981 -0.0536935776 0.175370425
v -0.133008823 -0.0537406243 0.175214112
v -0.132759064 -0.0538326465 0.175446838
v -0.132883847 -0.05406985 0.175244868
v -0.133008718 -0.0540942736 0.175112441
v -0.1328838 -0.05444 0.175205857
v -0.132758975 -0.0541397631 0.175358534
v -0.133008659 -0.05444 0.175080732
v -0.132758945 -0.05444 0.175330982
v -0.133008718 -0.05478573 0.175112441
v -0.132758975 -0.05474024 0.175358534
v -0.132883847 -0.0548101552 0.175244868
v -0.133008823 -0.05513938 0.175214112
v -0.132884085 -0.05536747 0.175467432
v -0.132759064 -0.0550473556 0.175446838
v -0.133009 -0.0554797 0.175390422
v -0.132759228 -0.0553428978 0.175599948
v -0.13300927 -0.0557835028 0.1756372
v -0.132759452 -0.05560673 0.175814271
v -0.132884532 -0.0558343753 0.175882518
v -0.133009613 -0.0560302958 0.17594102
v -0.132885113 -0.0561245829 0.176421553
v -0.13275975 -0.0558210462 0.1760781
v -0.13300997 -0.0562066026 0.176281348
v -0.132760063 -0.0559741557 0.176373616
v -0.133010358 -0.05630828 0.176635012
v -0.132760376 -0.0560624562 0.176680744
v -0.133010715 -0.05634 0.1769807
v -0.132760718 -0.05279 0.176980987
v -0.130010724 -0.05279 0.176983923
v -0.130011037 -0.0528175458 0.177284166
v -0.131386071 -0.0528262779 0.177326545
v -0.132761031 -0.0528175458 0.177281231
v -0.13001135 -0.05290585 0.1775913
v -0.132761359 -0.05290585 0.177588344
v -0.131386459 -0.0529429838 0.17767632
v -0.130011678 -0.05305896 0.177886829
v -0.132761657 -0.05305896 0.177883878
v -0.1313868 -0.05314382 0.17800343
v -0.130011961 -0.0532732755 0.178150669
v -0.132761955 -0.0532732755 0.1781477
v -0.131387115 -0.0534190163 0.17827864
v -0.130012214 -0.053537108 0.178364977
v -0.1327622 -0.053537108 0.178362012
v -0.131387308 -0.0537461452 0.178479478
v -0.130012363 -0.0538326465 0.178518072
v -0.132762343 -0.0538326465 0.178515151
v -0.131387442 -0.0540959165 0.1785962
v -0.130012453 -0.0541397631 0.178606391
v -0.131387472 -0.05444 0.178632453
v -0.132762447 -0.0541397631 0.178603426
v -0.130012482 -0.05444 0.178633928
v -0.132762462 -0.05444 0.178630978
v -0.130012453 -0.05474024 0.178606391
v -0.132762447 -0.05474024 0.178603426
v -0.131387442 -0.0547840856 0.1785962
v -0.130012363 -0.0550473556 0.178518072
v -0.132762343 -0.0550473556 0.178515151
v -0.131387353 -0.0550473556 0.178516626
v -0.131387219 -0.0553021543 0.1783893
v -0.130012214 -0.0553428978 0.178364977
v -0.1327622 -0.0553428978 0.178362012
v -0.131387025 -0.05553571 0.178216115
v -0.130011961 -0.05560673 0.178150669
v -0.132761955 -0.05560673 0.1781477
v -0.1313868 -0.0557361841 0.17800343
v -0.130011678 -0.0558210462 0.177886829
v -0.132761657 -0.0558210462 0.177883878
v -0.131386548 -0.0558945574 0.1777614
v -0.13001135 -0.0559741557 0.1775913
v -0.132761359 -0.0559741557 0.177588344
v -0.131386265 -0.0560059473 0.177502379
v -0.130011037 -0.0560624562 0.177284166
v -0.132761031 -0.0560624562 0.177281231
v -0.131385982 -0.0560699366 0.177239
v -0.130010724 -0.0560900047 0.176983923
v -0.132760718 -0.0560900047 0.176980987
v -0.130010381 -0.0560624562 0.1766837
v -0.131385326 -0.0560537279 0.17663838
v -0.132760376 -0.0560624562 0.176680744
v -0.130010068 -0.0559741557 0.176376581
v -0.132760063 -0.0559741557 0.176373616
v -0.131384939 -0.055937022 0.1762886
v -0.130009741 -0.0558210462 0.176081032
v -0.13275975 -0.0558210462 0.1760781
v -0.131384626 -0.0557361841 0.175961465
v -0.130009472 -0.05560673 0.1758172
v -0.132759452 -0.05560673 0.175814271
v -0.131384328 -0.05546099 0.175686285
v -0.130009234 -0.0553428978 0.175602883
v -0.132759228 -0.0553428978 0.175599948
v -0.1313841 -0.0551338568 0.175485432
v -0.13000907 -0.0550473556 0.175449789
v -0.132759064 -0.0550473556 0.175446838
v -0.131383985 -0.0547840856 0.175368741
v -0.130008981 -0.05474024 0.175361469
v -0.131383926 -0.05444 0.175332457
v -0.132758975 -0.05474024 0.175358534
v -0.130008936 -0.05444 0.175333932
v -0.132758945 -0.05444 0.175330982
v -0.130008981 -0.0541397631 0.175361469
v -0.132758975 -0.0541397631 0.175358534
v -0.131383985 -0.0540959165 0.175368741
v -0.13000907 -0.0538326465 0.175449789
v -0.132759064 -0.0538326465 0.175446838
v -0.131384045 -0.0538326465 0.1754483
v -0.1313842 -0.05357785 0.1755756
v -0.130009234 -0.053537108 0.175602883
v -0.132759228 -0.053537108 0.175599948
v -0.131384388 -0.0533442944 0.1757488
v -0.130009472 -0.0532732755 0.1758172
v -0.132759452 -0.0532732755 0.175814271
v -0.131384626 -0.05314382 0.175961465
v -0.130009741 -0.05305896 0.176081032
v -0.13275975 -0.05305896 0.1760781
v -0.131384879 -0.0529854447 0.176203534
v -0.130010068 -0.05290585 0.176376581
v -0.132760063 -0.05290585 0.176373616
v -0.131385162 -0.0528740548 0.176462531
v -0.130010381 -0.0528175458 0.1766837
v -0.132760376 -0.0528175458 0.176680744
v -0.131385431 -0.05281007 0.176725924
v -0.130010724 -0.05279 0.176983923
v -0.132760718 -0.05279 0.176980987
v -0.1327393 -0.0560900047 0.156980991
v -0.132738963 -0.0560624562 0.156680778
v -0.132989287 -0.05634 0.156980738
v -0.132863685 -0.0561245829 0.156421542
v -0.13273862 -0.0559741557 0.15637365
v -0.13298893 -0.05630828 0.156635016
v -0.132988542 -0.0562066026 0.156281352
v -0.132738322 -0.0558210462 0.1560781
v -0.132988185 -0.0560302958 0.155941024
v -0.1328631 -0.0558343753 0.155882522
v -0.132738054 -0.05560673 0.155814275
v -0.132862672 -0.05536747 0.155467436
v -0.132987857 -0.0557835028 0.155637234
v -0.132737815 -0.0553428978 0.155599967
v -0.132987559 -0.0554797 0.155390441
v -0.132737637 -0.0550473556 0.155446842
v -0.13298738 -0.05513938 0.155214131
v -0.132862419 -0.0548101552 0.155244887
v -0.132737547 -0.05474024 0.155358553
v -0.132862389 -0.05444 0.155205861
v -0.132987291 -0.05478573 0.155112445
v -0.132737517 -0.05444 0.155331016
v -0.132987231 -0.05444 0.155080736
v -0.132737547 -0.0541397631 0.155358553
v -0.132987291 -0.0540942736 0.155112445
v -0.132862419 -0.05406985 0.155244887
v -0.132737637 -0.0538326465 0.155446842
v -0.13298738 -0.0537406243 0.155214131
v -0.132862568 -0.0536935776 0.155370444
v -0.132737815 -0.053537108 0.155599967
v -0.132987559 -0.0534003042 0.155390441
v -0.1328628 -0.0533416681 0.155586481
v -0.132738054 -0.0532732755 0.155814275
v -0.132987857 -0.053096503 0.155637234
v -0.1328631 -0.05304563 0.155882522
v -0.132738322 -0.05305896 0.1560781
v -0.132988185 -0.05284971 0.155941024
v -0.1328635 -0.05282957 0.156234428
v -0.13273862 -0.05290585 0.15637365
v -0.132988542 -0.0526734032 0.156281352
v -0.1328639 -0.05270403 0.1566107
v -0.132738963 -0.0528175458 0.156680778
v -0.13298893 -0.0525717251 0.156635016
v -0.1327393 -0.05279 0.156980991
v -0.132989287 -0.0525400043 0.156980738
v -0.1327393 -0.05279 0.156980991
v -0.1299893 -0.05279 0.156983942
v -0.129989624 -0.0528175458 0.15728417
v -0.131364673 -0.0528262779 0.157326549
v -0.132739618 -0.0528175458 0.157281235
v -0.129989952 -0.05290585 0.1575913
v -0.132739946 -0.05290585 0.157588348
v -0.131365031 -0.0529429838 0.157676324
v -0.129990265 -0.05305896 0.157886833
v -0.132740259 -0.05305896 0.157883883
v -0.131365389 -0.05314382 0.158003464
v -0.129990518 -0.0532732755 0.158150673
v -0.132740542 -0.0532732755 0.158147722
v -0.131365687 -0.0534190163 0.158278644
v -0.129990786 -0.053537108 0.158364981
v -0.132740766 -0.053537108 0.158362031
v -0.1313659 -0.0537461452 0.1584795
v -0.129990935 -0.0538326465 0.158518091
v -0.132740945 -0.0538326465 0.158515155
v -0.131366014 -0.0540959165 0.1585962
v -0.129991025 -0.0541397631 0.1586064
v -0.131366059 -0.05444 0.158632472
v -0.132741034 -0.0541397631 0.15860346
v -0.129991055 -0.05444 0.158633932
v -0.132741064 -0.05444 0.158631012
v -0.129991025 -0.05474024 0.1586064
v -0.132741034 -0.05474024 0.15860346
v -0.131366014 -0.0547840856 0.1585962
v -0.129990935 -0.0550473556 0.158518091
v -0.132740945 -0.0550473556 0.158515155
v -0.131365955 -0.0550473556 0.158516616
v -0.1313658 -0.0553021543 0.1583893
v -0.129990786 -0.0553428978 0.158364981
v -0.132740766 -0.0553428978 0.158362031
v -0.131365627 -0.05553571 0.158216134
v -0.129990518 -0.05560673 0.158150673
v -0.132740542 -0.05560673 0.158147722
v -0.131365389 -0.0557361841 0.158003464
v -0.129990265 -0.0558210462 0.157886833
v -0.132740259 -0.0558210462 0.157883883
v -0.13136512 -0.0558945574 0.15776141
v -0.129989952 -0.0559741557 0.1575913
v -0.132739946 -0.0559741557 0.157588348
v -0.131364852 -0.0560059473 0.157502383
v -0.129989624 -0.0560624562 0.15728417
v -0.132739618 -0.0560624562 0.157281235
v -0.131364569 -0.0560699366 0.157239
v -0.1299893 -0.0560900047 0.156983942
v -0.1327393 -0.0560900047 0.156980991
v -0.129988983 -0.0560624562 0.1566837
v -0.131363928 -0.0560537279 0.1566384
v -0.132738963 -0.0560624562 0.156680778
v -0.129988641 -0.0559741557 0.15637657
v -0.13273862 -0.0559741557 0.15637365
v -0.131363541 -0.055937022 0.156288609
v -0.129988313 -0.0558210462 0.156081051
v -0.132738322 -0.0558210462 0.1560781
v -0.131363213 -0.0557361841 0.155961484
v -0.12998803 -0.05560673 0.155817211
v -0.132738054 -0.05560673 0.155814275
v -0.131362885 -0.05546099 0.155686289
v -0.1299878 -0.0553428978 0.1556029
v -0.132737815 -0.0553428978 0.155599967
v -0.131362677 -0.0551338568 0.155485436
v -0.129987657 -0.0550473556 0.1554498
v -0.132737637 -0.0550473556 0.155446842
v -0.131362572 -0.0547840856 0.155368745
v -0.129987568 -0.05474024 0.155361488
v -0.1313625 -0.05444 0.155332461
v -0.132737547 -0.05474024 0.155358553
v -0.129987523 -0.05444 0.155333936
v -0.132737517 -0.05444 0.155331016
v -0.129987568 -0.0541397631 0.155361488
v -0.132737547 -0.0541397631 0.155358553
v -0.131362572 -0.0540959165 0.155368745
v -0.129987657 -0.0538326465 0.1554498
v -0.132737637 -0.0538326465 0.155446842
v -0.131362647 -0.0538326465 0.1554483
v -0.1313628 -0.05357785 0.155575633
v -0.1299878 -0.053537108 0.1556029
v -0.132737815 -0.053537108 0.155599967
v -0.131362975 -0.0533442944 0.155748814
v -0.12998803 -0.0532732755 0.155817211
v -0.132738054 -0.0532732755 0.155814275
v -0.131363213 -0.05314382 0.155961484
v -0.129988313 -0.05305896 0.156081051
v -0.132738322 -0.05305896 0.1560781
v -0.131363481 -0.0529854447 0.156203508
v -0.129988641 -0.05290585 0.15637657
v -0.13273862 -0.05290585 0.15637365
v -0.13136375 -0.0528740548 0.156462565
v -0.129988983 -0.0528175458 0.1566837
v -0.132738963 -0.0528175458 0.156680778
v -0.131364018 -0.05281007 0.156725928
v -0.1299893 -0.05279 0.156983942
v -0.1327393 -0.05279 0.156980991
v -0.129985541 -0.0580000058 0.153483942
v -0.129987523 -0.05444 0.155333936
v -0.129987568 -0.05474024 0.155361488
v -0.129987657 -0.0550473556 0.1554498
v -0.1299878 -0.0553428978 0.1556029
v -0.12998803 -0.05560673 0.155817211
v -0.129988313 -0.0558210462 0.156081051
v -0.129988641 -0.0559741557 0.15637657
v -0.129988983 -0.0560624562 0.1566837
v -0.1299893 -0.0560900047 0.156983942
v -0.129989624 -0.0560624562 0.15728417
v -0.129987568 -0.0541397631 0.155361488
v -0.129989952 -0.0559741557 0.1575913
v -0.129985541 -0.04434847 0.153483942
v -0.129987657 -0.0538326465 0.1554498
v -0.1299878 -0.053537108 0.1556029
v -0.12998803 -0.0532732755 0.155817211
v -0.129988313 -0.05305896 0.156081051
v -0.129988641 -0.05290585 0.15637657
v -0.129988983 -0.0528175458 0.1566837
v -0.1299893 -0.05279 0.156983942
v -0.129989624 -0.0528175458 0.15728417
v -0.130014449 -0.0580000058 0.180483937
v -0.13000001 -0.05117424 0.166983947
v -0.129989952 -0.05290585 0.1575913
v -0.129990265 -0.05305896 0.157886833
v -0.129990518 -0.0532732755 0.158150673
v -0.129990786 -0.053537108 0.158364981
v -0.129990935 -0.0538326465 0.158518091
v -0.129991025 -0.0541397631 0.1586064
v -0.129991055 -0.05444 0.158633932
v -0.130014449 -0.04434847 0.180483937
v -0.129991025 -0.05474024 0.1586064
v -0.130010381 -0.0528175458 0.1766837
v -0.130010724 -0.05279 0.176983923
v -0.130011037 -0.0528175458 0.177284166
v -0.130010068 -0.05290585 0.176376581
v -0.130009741 -0.05305896 0.176081032
v -0.13001135 -0.05290585 0.1775913
v -0.130009472 -0.0532732755 0.1758172
v -0.130011678 -0.05305896 0.177886829
v -0.130009234 -0.053537108 0.175602883
v -0.130011961 -0.0532732755 0.178150669
v -0.13000907 -0.0538326465 0.175449789
v -0.130012214 -0.053537108 0.178364977
v -0.130012363 -0.0538326465 0.178518072
v -0.130012453 -0.0541397631 0.178606391
v -0.130008981 -0.0541397631 0.175361469
v -0.130008936 -0.05444 0.175333932
v -0.130008981 -0.05474024 0.175361469
v -0.129990935 -0.0550473556 0.158518091
v -0.13000907 -0.0550473556 0.175449789
v -0.129990786 -0.0553428978 0.158364981
v -0.130009234 -0.0553428978 0.175602883
v -0.129990518 -0.05560673 0.158150673
v -0.130009472 -0.05560673 0.1758172
v -0.129990265 -0.0558210462 0.157886833
v -0.130009741 -0.0558210462 0.176081032
v -0.130010068 -0.0559741557 0.176376581
v -0.130012482 -0.05444 0.178633928
v -0.130010381 -0.0560624562 0.1766837
v -0.130012453 -0.05474024 0.178606391
v -0.130010724 -0.0560900047 0.176983923
v -0.130012363 -0.0550473556 0.178518072
v -0.130011037 -0.0560624562 0.177284166
v -0.130012214 -0.0553428978 0.178364977
v -0.13001135 -0.0559741557 0.1775913
v -0.130011961 -0.05560673 0.178150669
v -0.130011678 -0.0558210462 0.177886829
v -0.131389469 -0.05117424 0.180482447
v -0.130014449 -0.04434847 0.180483937
v -0.132764459 -0.04434847 0.180480987
v -0.132764459 -0.0580000058 0.180480987
v -0.130014449 -0.0580000058 0.180483937
v -0.131374985 -0.04434847 0.166982457
v -0.129985541 -0.04434847 0.153483942
v -0.13273555 -0.04434847 0.153480992
v -0.132764459 -0.04434847 0.180480987
v -0.130014449 -0.04434847 0.180483937
v -0.131374985 -0.0580000058 0.166982457
v -0.132764459 -0.0580000058 0.180480987
v -0.13273555 -0.0580000058 0.153480992
v -0.129985541 -0.0580000058 0.153483942
v -0.130014449 -0.0580000058 0.180483937
v -0.131360531 -0.05117424 0.153482467
v -0.13273555 -0.0580000058 0.153480992
v -0.13273555 -0.04434847 0.153480992
v -0.129985541 -0.04434847 0.153483942
v -0.129985541 -0.0580000058 0.153483942
v -0.13286069 -0.05117424 0.153605878
v -0.132985815 -0.04459847 0.153730735
v -0.13273555 -0.04434847 0.153480992
v -0.13273555 -0.0580000058 0.153480992
v -0.132985815 -0.0577500053 0.153730735
v -0.13287501 -0.04447347 0.166980878
v -0.132985815 -0.04459847 0.153730735
v -0.1330142 -0.04459847 0.180230722
v -0.132764459 -0.04434847 0.180480987
v -0.13273555 -0.04434847 0.153480992
v -0.1328893 -0.05117424 0.180355847
v -0.1330142 -0.04459847 0.180230722
v -0.1330142 -0.0577500053 0.180230722
v -0.132764459 -0.0580000058 0.180480987
v -0.132764459 -0.04434847 0.180480987
v -0.13287501 -0.057875 0.166980878
v -0.1330142 -0.0577500053 0.180230722
v -0.132985815 -0.0577500053 0.153730735
v -0.13273555 -0.0580000058 0.153480992
v -0.132764459 -0.0580000058 0.180480987
v -0.1330142 -0.0577500053 0.180230722
v -0.133012742 -0.05444 0.178880721
v -0.133012712 -0.05478573 0.178849
v -0.133012608 -0.05513938 0.178747326
v -0.133012414 -0.0554797 0.178571
v -0.133012161 -0.0557835028 0.178324223
v -0.133011833 -0.0560302958 0.178020418
v -0.13301146 -0.0562066026 0.1776801
v -0.133011073 -0.05630828 0.177326441
v -0.133010715 -0.05634 0.1769807
v -0.133010358 -0.05630828 0.176635012
v -0.133012712 -0.0540942736 0.178849
v -0.13300997 -0.0562066026 0.176281348
v -0.1330142 -0.04459847 0.180230722
v -0.133012608 -0.0537406243 0.178747326
v -0.133012414 -0.0534003042 0.178571
v -0.133012161 -0.053096503 0.178324223
v -0.133011833 -0.05284971 0.178020418
v -0.13301146 -0.0526734032 0.1776801
v -0.133011073 -0.0525717251 0.177326441
v -0.133010715 -0.0525400043 0.1769807
v -0.133010358 -0.0525717251 0.176635012
v -0.132985815 -0.0577500053 0.153730735
v -0.132999986 -0.05117424 0.166980714
v -0.13300997 -0.0526734032 0.176281348
v -0.133009613 -0.05284971 0.17594102
v -0.132985815 -0.04459847 0.153730735
v -0.13300927 -0.053096503 0.1756372
v -0.132999986 -0.0525400043 0.166980714
v -0.133009 -0.0534003042 0.175390422
v -0.133008823 -0.0537406243 0.175214112
v -0.133008718 -0.0540942736 0.175112441
v -0.133008659 -0.05444 0.175080732
v -0.133008718 -0.05478573 0.175112441
v -0.133008823 -0.05513938 0.175214112
v -0.133009 -0.0554797 0.175390422
v -0.132991016 -0.0554797 0.15857102
v -0.1329912 -0.05513938 0.158747345
v -0.13300927 -0.0557835028 0.1756372
v -0.132990718 -0.0557835028 0.158324242
v -0.133009613 -0.0560302958 0.17594102
v -0.1329904 -0.0560302958 0.158020437
v -0.132990032 -0.0562066026 0.1576801
v -0.132991284 -0.05478573 0.158849
v -0.132991314 -0.05444 0.158880726
v -0.13298966 -0.05630828 0.15732646
v -0.132989287 -0.05634 0.156980738
v -0.13298893 -0.05630828 0.156635016
v -0.132988542 -0.0562066026 0.156281352
v -0.132988185 -0.0560302958 0.155941024
v -0.132991284 -0.0540942736 0.158849
v -0.132987857 -0.0557835028 0.155637234
v -0.1329912 -0.0537406243 0.158747345
v -0.132991016 -0.0534003042 0.15857102
v -0.132990718 -0.053096503 0.158324242
v -0.132987559 -0.0554797 0.155390441
v -0.13298738 -0.05513938 0.155214131
v -0.1329904 -0.05284971 0.158020437
v -0.132990032 -0.0526734032 0.1576801
v -0.13298966 -0.0525717251 0.15732646
v -0.132989287 -0.0525400043 0.156980738
v -0.13298893 -0.0525717251 0.156635016
v -0.132987291 -0.05478573 0.155112445
v -0.132987231 -0.05444 0.155080736
v -0.132987291 -0.0540942736 0.155112445
v -0.132988542 -0.0526734032 0.156281352
v -0.13298738 -0.0537406243 0.155214131
v -0.132988185 -0.05284971 0.155941024
v -0.132987559 -0.0534003042 0.155390441
v -0.132987857 -0.053096503 0.155637234
f 1 2 3
f 2 4 3
f 3 4 5
f 2 6 4
f 4 7 5
f 6 8 4
f 4 8 7
f 6 9 8
f 8 10 7
f 9 11 8
f 8 11 10
f 9 12 11
f 11 13 10
f 12 14 11
f 11 14 13
f 12 15 14
f 14 16 13
f 15 17 14
f 14 17 16
f 15 18 17
f 17 19 16
f 18 20 17
f 17 20 19
f 18 21 20
f 21 22 20
f 20 23 19
f 20 22 23
f 21 24 22
f 22 25 23
f 24 26 22
f 22 27 25
f 26 28 22
f 22 28 27
f 26 29 28
f 29 30 28
f 28 31 27
f 28 30 31
f 29 32 30
f 30 33 31
f 32 34 30
f 30 35 33
f 34 36 30
f 30 36 35
f 34 37 36
f 37 38 36
f 36 39 35
f 36 38 39
f 37 40 38
f 38 41 39
f 40 42 38
f 38 43 41
f 42 44 38
f 44 43 38
f 44 45 43
f 46 47 48
f 46 48 49
f 50 46 49
f 49 48 51
f 52 50 49
f 49 51 53
f 54 52 49
f 55 49 53
f 54 49 55
f 55 53 56
f 57 55 56
f 58 54 55
f 58 55 57
f 57 56 59
f 60 58 57
f 57 59 61
f 62 60 57
f 63 57 61
f 62 57 63
f 63 61 64
f 65 63 64
f 66 62 63
f 66 63 65
f 65 64 67
f 68 66 65
f 65 67 69
f 70 68 65
f 71 65 69
f 70 65 71
f 71 69 72
f 73 70 71
f 74 71 72
f 73 71 74
f 74 72 75
f 76 73 74
f 77 74 75
f 76 74 77
f 77 75 78
f 79 76 77
f 80 77 78
f 79 77 80
f 80 78 81
f 82 79 80
f 83 80 81
f 82 80 83
f 83 81 84
f 85 82 83
f 86 83 84
f 85 83 86
f 86 84 87
f 88 85 86
f 89 86 87
f 88 86 89
f 90 88 89
f 89 91 90
f 92 93 94
f 92 94 95
f 96 92 95
f 95 94 97
f 98 96 95
f 99 95 97
f 98 95 99
f 99 97 100
f 101 98 99
f 102 99 100
f 101 99 102
f 102 100 103
f 104 101 102
f 105 102 103
f 104 102 105
f 105 103 106
f 107 104 105
f 108 105 106
f 107 105 108
f 108 106 109
f 110 107 108
f 111 108 109
f 110 108 111
f 111 109 112
f 113 111 112
f 114 110 111
f 114 111 113
f 113 112 115
f 116 114 113
f 113 115 117
f 118 116 113
f 119 113 117
f 118 113 119
f 119 117 120
f 121 119 120
f 122 118 119
f 122 119 121
f 121 120 123
f 124 122 121
f 121 123 125
f 126 124 121
f 127 121 125
f 126 121 127
f 127 125 128
f 129 127 128
f 130 126 127
f 130 127 129
f 129 128 131
f 132 130 129
f 129 131 133
f 134 132 129
f 135 129 133
f 134 129 135
f 136 137 138
f 136 138 139
f 140 136 139
f 139 138 141
f 142 140 139
f 143 139 141
f 142 139 143
f 143 141 144
f 145 142 143
f 146 143 144
f 145 143 146
f 146 144 147
f 148 145 146
f 149 146 147
f 148 146 149
f 149 147 150
f 151 148 149
f 152 149 150
f 151 149 152
f 152 150 153
f 154 151 152
f 155 152 153
f 154 152 155
f 155 153 156
f 157 155 156
f 158 154 155
f 158 155 157
f 157 156 159
f 160 158 157
f 161 157 159
f 162 160 157
f 163 157 161
f 162 157 163
f 164 163 161
f 165 162 163
f 166 163 164
f 166 165 163
f 167 166 164
f 166 167 165
f 167 164 168
f 167 169 165
f 170 167 168
f 167 170 169
f 170 168 171
f 170 172 169
f 173 170 171
f 170 173 172
f 173 171 174
f 173 175 172
f 176 173 174
f 173 176 175
f 176 174 177
f 176 178 175
f 179 176 177
f 176 179 178
f 179 177 180
f 179 181 178
f 182 179 180
f 179 182 181
f 182 180 183
f 181 182 184
f 182 183 184
f 183 185 184
f 185 186 184
f 184 186 187
f 185 188 186
f 186 189 187
f 188 190 186
f 186 190 189
f 188 191 190
f 190 192 189
f 191 193 190
f 190 193 192
f 191 194 193
f 193 195 192
f 194 196 193
f 193 196 195
f 194 197 196
f 196 198 195
f 197 199 196
f 196 199 198
f 197 200 199
f 199 201 198
f 200 202 199
f 199 202 201
f 200 203 202
f 203 204 202
f 202 205 201
f 202 204 205
f 203 206 204
f 204 207 205
f 206 208 204
f 204 209 207
f 208 210 204
f 204 210 209
f 208 211 210
f 210 212 209
f 211 213 210
f 210 213 212
f 211 214 213
f 214 212 213
f 215 214 211
f 214 216 212
f 217 214 215
f 214 217 216
f 218 217 215
f 217 219 216
f 220 217 218
f 217 220 219
f 221 220 218
f 220 222 219
f 223 220 221
f 220 223 222
f 224 223 221
f 223 225 222
f 226 223 224
f 223 226 225
f 227 226 224
f 226 228 225
f 229 226 227
f 226 229 228
f 230 229 227
f 229 231 228
f 229 230 231
f 232 233 234
f 233 235 234
f 233 236 235
f 234 235 237
f 235 238 237
f 236 239 235
f 235 240 238
f 239 241 235
f 235 241 240
f 239 242 241
f 242 243 241
f 241 244 240
f 241 243 244
f 242 245 243
f 243 246 244
f 245 247 243
f 243 248 246
f 247 249 243
f 243 249 248
f 247 250 249
f 250 251 249
f 249 252 248
f 249 251 252
f 250 253 251
f 251 254 252
f 253 255 251
f 251 256 254
f 255 257 251
f 251 257 256
f 255 258 257
f 257 259 256
f 258 260 257
f 257 260 259
f 258 261 260
f 260 262 259
f 261 263 260
f 260 263 262
f 261 264 263
f 263 265 262
f 264 266 263
f 263 266 265
f 264 267 266
f 266 268 265
f 267 269 266
f 266 269 268
f 267 270 269
f 269 271 268
f 270 272 269
f 269 272 271
f 270 273 272
f 272 274 271
f 273 275 272
f 275 274 272
f 275 276 274
f 277 278 279
f 277 279 280
f 281 277 280
f 280 279 282
f 283 281 280
f 284 280 282
f 283 280 284
f 284 282 285
f 286 283 284
f 287 284 285
f 286 284 287
f 287 285 288
f 289 286 287
f 290 287 288
f 289 287 290
f 290 288 291
f 292 289 290
f 293 290 291
f 292 290 293
f 293 291 294
f 295 292 293
f 296 293 294
f 295 293 296
f 296 294 297
f 298 296 297
f 299 295 296
f 299 296 298
f 298 297 300
f 301 299 298
f 302 298 300
f 303 301 298
f 304 298 302
f 303 298 304
f 305 304 302
f 306 303 304
f 307 304 305
f 307 306 304
f 308 307 305
f 307 308 306
f 308 305 309
f 308 310 306
f 311 308 309
f 308 311 310
f 311 309 312
f 311 313 310
f 314 311 312
f 311 314 313
f 314 312 315
f 314 316 313
f 317 314 315
f 314 317 316
f 317 315 318
f 317 319 316
f 320 317 318
f 317 320 319
f 320 318 321
f 320 322 319
f 323 320 321
f 320 323 322
f 323 321 324
f 322 323 325
f 323 324 325
f 324 326 325
f 326 327 325
f 325 327 328
f 326 329 327
f 327 330 328
f 329 331 327
f 327 331 330
f 329 332 331
f 331 333 330
f 332 334 331
f 331 334 333
f 332 335 334
f 334 336 333
f 335 337 334
f 334 337 336
f 335 338 337
f 337 339 336
f 338 340 337
f 337 340 339
f 338 341 340
f 340 342 339
f 341 343 340
f 340 343 342
f 341 344 343
f 344 345 343
f 343 346 342
f 343 345 346
f 344 347 345
f 345 348 346
f 347 349 345
f 345 350 348
f 349 351 345
f 345 351 350
f 349 352 351
f 351 353 350
f 352 354 351
f 351 354 353
f 352 355 354
f 355 353 354
f 356 355 352
f 355 357 353
f 358 355 356
f 355 358 357
f 359 358 356
f 358 360 357
f 361 358 359
f 358 361 360
f 362 361 359
f 361 363 360
f 364 361 362
f 361 364 363
f 365 364 362
f 364 366 363
f 367 364 365
f 364 367 366
f 368 367 365
f 367 369 366
f 370 367 368
f 367 370 369
f 371 370 368
f 370 372 369
f 370 371 372
f 373 374 375
f 376 373 375
f 373 376 377
f 373 377 378
f 379 373 378
f 373 379 380
f 373 380 381
f 382 373 381
f 373 382 383
f 373 384 374
f 373 383 385
f 373 386 384
f 386 387 384
f 386 388 387
f 389 388 386
f 390 389 386
f 391 390 386
f 392 391 386
f 393 392 386
f 394 393 386
f 395 373 385
f 394 386 396
f 397 394 396
f 398 397 396
f 399 398 396
f 400 399 396
f 401 400 396
f 402 401 396
f 403 402 396
f 386 404 396
f 405 403 396
f 404 406 396
f 404 407 406
f 407 404 408
f 396 406 409
f 410 396 409
f 404 411 408
f 396 410 412
f 404 413 411
f 396 412 414
f 413 404 415
f 416 396 414
f 404 417 415
f 404 418 417
f 418 404 419
f 396 416 420
f 396 420 421
f 404 395 419
f 422 396 421
f 405 396 422
f 423 405 422
f 423 422 424
f 425 423 424
f 425 424 426
f 427 425 426
f 427 426 428
f 429 427 428
f 429 428 430
f 385 429 430
f 385 430 431
f 395 385 431
f 395 432 419
f 395 431 433
f 395 434 432
f 395 433 435
f 434 395 436
f 437 395 435
f 395 438 436
f 395 437 439
f 395 440 438
f 395 439 441
f 440 395 441
f 442 443 444
f 442 444 445
f 443 442 446
f 446 442 445
f 447 448 449
f 447 449 450
f 448 447 451
f 451 447 450
f 452 453 454
f 455 452 454
f 452 456 453
f 456 452 455
f 457 458 459
f 460 457 459
f 457 461 458
f 461 457 460
f 462 463 464
f 462 464 465
f 463 462 466
f 466 462 465
f 467 468 469
f 470 467 469
f 467 471 468
f 471 467 470
f 472 473 474
f 475 472 474
f 472 476 473
f 476 472 475
f 477 478 479
f 480 477 479
f 477 481 478
f 481 477 480
f 482 483 484
f 485 482 484
f 482 485 486
f 482 486 487
f 488 482 487
f 482 488 489
f 482 489 490
f 491 482 490
f 482 491 492
f 482 493 483
f 482 492 494
f 482 495 493
f 495 496 493
f 495 497 496
f 498 497 495
f 499 498 495
f 500 499 495
f 501 500 495
f 502 501 495
f 503 502 495
f 504 482 494
f 503 495 505
f 506 503 505
f 507 506 505
f 495 508 505
f 509 507 505
f 509 505 510
f 511 509 510
f 512 511 510
f 513 512 510
f 514 513 510
f 515 514 510
f 516 515 510
f 517 516 510
f 517 510 518
f 518 510 519
f 520 517 518
f 520 518 521
f 522 520 521
f 522 521 523
f 494 522 523
f 494 523 524
f 510 525 519
f 504 494 524
f 510 526 525
f 504 524 527
f 504 527 528
f 529 504 528
f 504 529 530
f 504 530 531
f 526 510 532
f 533 504 531
f 510 534 532
f 510 535 534
f 535 510 536
f 504 533 537
f 510 505 536
f 504 537 538
f 536 505 539
f 505 540 539
f 505 541 540
f 508 541 505
f 508 542 541
f 542 508 543
f 544 504 538
f 504 544 545
f 504 545 546
f 508 504 546
f 508 547 543
f 548 508 546
f 508 549 547
f 508 548 550
f 549 508 551
f 508 550 551
