# ROS coordinates: X forward, Y left, Z up; units are metres.
o mesh
v -0.0124393161 0.108307265 -0.00274445117
v -0.006245991 0.108188175 -0.00475715753
v -0.0129955821 0.108317964 -0.00398819428
v -0.006971564 0.10820213 -0.006454927
v -0.0136446431 0.108330444 -0.00521214027
v -0.00782753 0.108218588 -0.008128074
v -0.0143861584 0.1083447 -0.0064063156
v -0.008813826 0.10823755 -0.009762189
v -0.0152183976 0.1083607 -0.007560595
v -0.00992831 0.108258978 -0.01134256
v -0.0161381625 0.108378388 -0.00866494048
v -0.01116666 0.10828279 -0.012854551
v -0.017140815 0.10839767 -0.009709668
v -0.012522364 0.108308859 -0.0142840045
v -0.018081475 0.108415753 -0.0123876138
v -0.013986811 0.108337022 -0.0156176453
v -0.018220311 0.108418427 -0.0106857093
v -0.015549412 0.108367071 -0.01684346
v -0.01936931 0.108440518 -0.011584851
v -0.0205793455 0.108463787 -0.012399965
v -0.0171978846 0.108398765 -0.01795106
v -0.0218410268 0.108488046 -0.0131252008
v -0.0189185552 0.108431853 -0.0189319663
v -0.023144275 0.108513109 -0.0137561178
v -0.0206967369 0.108466044 -0.0197798349
v -0.0244786 0.108538762 -0.0142897693
v -0.02251713 0.108501047 -0.02049056
v -0.0258333571 0.108564816 -0.0147247305
v -0.0243642665 0.108536564 -0.02106233
v -0.0271980166 0.108591057 -0.0150610628
v -0.0262228977 0.108572304 -0.0214955583
v -0.0285624154 0.108617291 -0.0153002506
v -0.02807837 0.108607985 -0.02179275
v -0.0299169589 0.108643338 -0.0154450508
v -0.0299169589 0.108643338 -0.021958299
v -0.0301092118 0.09864519 -0.021958299
v -0.0282706227 0.0986098349 -0.02179275
v -0.0301092118 0.09864519 -0.0154450508
v -0.0287546664 0.09861914 -0.0153002506
v -0.02641515 0.0985741541 -0.0214955583
v -0.0273902677 0.0985929 -0.0150610628
v -0.02455652 0.09853841 -0.02106233
v -0.0260256082 0.09856666 -0.0147247305
v -0.02270938 0.0985029 -0.02049056
v -0.0246708523 0.09854061 -0.0142897693
v -0.0208889879 0.0984678939 -0.0197798349
v -0.0233365279 0.09851495 -0.0137561178
v -0.0191108081 0.0984336957 -0.0189319663
v -0.0220332779 0.0984898955 -0.0131252008
v -0.0173901375 0.0984006152 -0.01795106
v -0.0207715984 0.09846564 -0.012399965
v -0.0182737261 0.0984176 -0.0123876138
v -0.0157416649 0.09836891 -0.01684346
v -0.0195615627 0.09844237 -0.011584851
v -0.014179064 0.0983388647 -0.0156176453
v -0.0184125639 0.09842027 -0.0106857093
v -0.012714617 0.09831071 -0.0142840045
v -0.017333068 0.09839951 -0.009709668
v -0.011358913 0.09828464 -0.012854551
v -0.0163304135 0.09838024 -0.00866494048
v -0.0101205632 0.09826083 -0.01134256
v -0.0154106505 0.09836255 -0.007560595
v -0.009006079 0.0982394 -0.009762189
v -0.0145784114 0.09834655 -0.0064063156
v -0.008019783 0.09822043 -0.008128074
v -0.013836896 0.0983322859 -0.00521214027
v -0.007163817 0.09820397 -0.006454927
v -0.013187835 0.0983198062 -0.00398819428
v -0.006438244 0.0981900245 -0.00475715753
v -0.0126315691 0.0983091146 -0.00274445117
v -0.0281744953 0.103608906 -0.02179275
v -0.02807837 0.108607985 -0.02179275
v -0.0262228977 0.108572304 -0.0214955583
v -0.0299169589 0.108643338 -0.021958299
v -0.0301092118 0.09864519 -0.021958299
v -0.0282706227 0.0986098349 -0.02179275
v -0.0263190232 0.103573225 -0.0214955583
v -0.0243642665 0.108536564 -0.02106233
v -0.02641515 0.0985741541 -0.0214955583
v -0.0244603921 0.103537492 -0.02106233
v -0.02251713 0.108501047 -0.02049056
v -0.02455652 0.09853841 -0.02106233
v -0.0226132572 0.103501968 -0.02049056
v -0.0206967369 0.108466044 -0.0197798349
v -0.02270938 0.0985029 -0.02049056
v -0.0207928643 0.103466965 -0.0197798349
v -0.0189185552 0.108431853 -0.0189319663
v -0.0208889879 0.0984678939 -0.0197798349
v -0.0190146826 0.103432775 -0.0189319663
v -0.0171978846 0.108398765 -0.01795106
v -0.0191108081 0.0984336957 -0.0189319663
v -0.017294012 0.103399687 -0.01795106
v -0.015549412 0.108367071 -0.01684346
v -0.0173901375 0.0984006152 -0.01795106
v -0.0156455375 0.103367992 -0.01684346
v -0.013986811 0.108337022 -0.0156176453
v -0.0157416649 0.09836891 -0.01684346
v -0.0140829366 0.103337944 -0.0156176453
v -0.012522364 0.108308859 -0.0142840045
v -0.014179064 0.0983388647 -0.0156176453
v -0.01261849 0.103309788 -0.0142840045
v -0.01116666 0.10828279 -0.012854551
v -0.012714617 0.09831071 -0.0142840045
v -0.0112627856 0.103283718 -0.012854551
v -0.00992831 0.108258978 -0.01134256
v -0.011358913 0.09828464 -0.012854551
v -0.0100244358 0.103259906 -0.01134256
v -0.008813826 0.10823755 -0.009762189
v -0.0101205632 0.09826083 -0.01134256
v -0.008909952 0.103238471 -0.009762189
v -0.00782753 0.108218588 -0.008128074
v -0.009006079 0.0982394 -0.009762189
v -0.007923655 0.103219509 -0.008128074
v -0.006971564 0.10820213 -0.006454927
v -0.008019783 0.09822043 -0.008128074
v -0.00706768967 0.103203051 -0.006454927
v -0.006245991 0.108188175 -0.00475715753
v -0.007163817 0.09820397 -0.006454927
v -0.006438244 0.0981900245 -0.00475715753
v -0.0300130863 0.103644259 -0.0187016763
v -0.0299169589 0.108643338 -0.021958299
v -0.0301092118 0.09864519 -0.021958299
v -0.0301092118 0.09864519 -0.0154450508
v -0.0299169589 0.108643338 -0.0154450508
v -0.0130917076 0.103318885 -0.00398819428
v -0.0129955821 0.108317964 -0.00398819428
v -0.0136446431 0.108330444 -0.00521214027
v -0.0124393161 0.108307265 -0.00274445117
v -0.0126315691 0.0983091146 -0.00274445117
v -0.013187835 0.0983198062 -0.00398819428
v -0.0137407687 0.103331365 -0.00521214027
v -0.0143861584 0.1083447 -0.0064063156
v -0.013836896 0.0983322859 -0.00521214027
v -0.014482284 0.103345625 -0.0064063156
v -0.0152183976 0.1083607 -0.007560595
v -0.0145784114 0.09834655 -0.0064063156
v -0.0153145231 0.103361629 -0.007560595
v -0.0161381625 0.108378388 -0.00866494048
v -0.0154106505 0.09836255 -0.007560595
v -0.01623429 0.103379309 -0.00866494048
v -0.017140815 0.10839767 -0.009709668
v -0.0163304135 0.09838024 -0.00866494048
v -0.01723694 0.103398591 -0.009709668
v -0.018220311 0.108418427 -0.0106857093
v -0.017333068 0.09839951 -0.009709668
v -0.0183164366 0.103419349 -0.0106857093
v -0.01936931 0.108440518 -0.011584851
v -0.0184125639 0.09842027 -0.0106857093
v -0.0194654353 0.10344144 -0.011584851
v -0.0205793455 0.108463787 -0.012399965
v -0.0195615627 0.09844237 -0.011584851
v -0.0206754729 0.103464708 -0.012399965
v -0.0218410268 0.108488046 -0.0131252008
v -0.0207715984 0.09846564 -0.012399965
v -0.0219371524 0.103488974 -0.0131252008
v -0.023144275 0.108513109 -0.0137561178
v -0.0220332779 0.0984898955 -0.0131252008
v -0.0232404023 0.103514031 -0.0137561178
v -0.0244786 0.108538762 -0.0142897693
v -0.0233365279 0.09851495 -0.0137561178
v -0.0245747268 0.10353969 -0.0142897693
v -0.0258333571 0.108564816 -0.0147247305
v -0.0246708523 0.09854061 -0.0142897693
v -0.0259294827 0.103565738 -0.0147247305
v -0.0271980166 0.108591057 -0.0150610628
v -0.0260256082 0.09856666 -0.0147247305
v -0.0272941422 0.103591979 -0.0150610628
v -0.0285624154 0.108617291 -0.0153002506
v -0.0273902677 0.0985929 -0.0150610628
v -0.02865854 0.103618212 -0.0153002506
v -0.0299169589 0.108643338 -0.0154450508
v -0.0287546664 0.09861914 -0.0153002506
v -0.0301092118 0.09864519 -0.0154450508
v -0.009438779 0.103248641 -0.00375080481
v -0.0124393161 0.108307265 -0.00274445117
v -0.0126315691 0.0983091146 -0.00274445117
v -0.006438244 0.0981900245 -0.00475715753
v -0.006245991 0.108188175 -0.00475715753
f 1 2 3
f 2 4 3
f 4 5 3
f 4 6 5
f 6 7 5
f 6 8 7
f 8 9 7
f 8 10 9
f 10 11 9
f 10 12 11
f 12 13 11
f 12 14 13
f 14 15 13
f 14 16 15
f 13 15 17
f 16 18 15
f 15 19 17
f 15 20 19
f 18 21 15
f 21 20 15
f 21 22 20
f 21 23 22
f 23 24 22
f 23 25 24
f 25 26 24
f 25 27 26
f 27 28 26
f 27 29 28
f 29 30 28
f 29 31 30
f 31 32 30
f 31 33 32
f 33 34 32
f 33 35 34
f 36 37 38
f 37 39 38
f 37 40 39
f 40 41 39
f 40 42 41
f 42 43 41
f 42 44 43
f 44 45 43
f 44 46 45
f 46 47 45
f 46 48 47
f 48 49 47
f 48 50 49
f 50 51 49
f 50 52 51
f 52 50 53
f 52 54 51
f 55 52 53
f 52 56 54
f 52 55 57
f 56 52 58
f 52 57 58
f 57 59 58
f 59 60 58
f 59 61 60
f 61 62 60
f 61 63 62
f 63 64 62
f 63 65 64
f 65 66 64
f 65 67 66
f 67 68 66
f 67 69 68
f 69 70 68
f 71 72 73
f 71 74 72
f 74 71 75
f 71 76 75
f 77 71 73
f 71 77 76
f 77 73 78
f 77 79 76
f 80 77 78
f 77 80 79
f 80 78 81
f 80 82 79
f 83 80 81
f 80 83 82
f 83 81 84
f 83 85 82
f 86 83 84
f 83 86 85
f 86 84 87
f 86 88 85
f 89 86 87
f 86 89 88
f 89 87 90
f 89 91 88
f 92 89 90
f 89 92 91
f 92 90 93
f 92 94 91
f 95 92 93
f 92 95 94
f 95 93 96
f 95 97 94
f 98 95 96
f 95 98 97
f 98 96 99
f 98 100 97
f 101 98 99
f 98 101 100
f 101 99 102
f 101 103 100
f 104 101 102
f 101 104 103
f 104 102 105
f 104 106 103
f 107 104 105
f 104 107 106
f 107 105 108
f 107 109 106
f 110 107 108
f 107 110 109
f 110 108 111
f 110 112 109
f 113 110 111
f 110 113 112
f 113 111 114
f 113 115 112
f 116 113 114
f 113 116 115
f 116 114 117
f 116 118 115
f 119 116 117
f 116 119 118
f 120 121 122
f 120 122 123
f 121 120 124
f 124 120 123
f 125 126 127
f 125 128 126
f 128 125 129
f 125 130 129
f 131 125 127
f 125 131 130
f 131 127 132
f 131 133 130
f 134 131 132
f 131 134 133
f 134 132 135
f 134 136 133
f 137 134 135
f 134 137 136
f 137 135 138
f 137 139 136
f 140 137 138
f 137 140 139
f 140 138 141
f 140 142 139
f 143 140 141
f 140 143 142
f 143 141 144
f 143 145 142
f 146 143 144
f 143 146 145
f 146 144 147
f 146 148 145
f 149 146 147
f 146 149 148
f 149 147 150
f 149 151 148
f 152 149 150
f 149 152 151
f 152 150 153
f 152 154 151
f 155 152 153
f 152 155 154
f 155 153 156
f 155 157 154
f 158 155 156
f 155 158 157
f 158 156 159
f 158 160 157
f 161 158 159
f 158 161 160
f 161 159 162
f 161 163 160
f 164 161 162
f 161 164 163
f 164 162 165
f 164 166 163
f 167 164 165
f 164 167 166
f 167 165 168
f 167 169 166
f 170 167 168
f 167 170 169
f 170 168 171
f 170 172 169
f 173 170 171
f 170 173 172
f 174 175 176
f 174 176 177
f 175 174 178
f 178 174 177
