# ROS coordinates: X forward, Y left, Z up; units are metres.
o mesh
v -0.02137443 0.00909137353 0.124000005
v -0.0216009319 0.00909137353 0.124000005
v -0.0216009319 0.00909137353 0.124400005
v -0.02137443 0.00909137353 0.12636
v -0.0224509314 0.00909137353 0.12518
v -0.0235274322 0.00909137353 0.12636
v -0.02330093 0.00909137353 0.124400005
v -0.0235274322 0.00909137353 0.124000005
v -0.02330093 0.00909137353 0.124000005
v -0.023700932 -0.000923126936 0.124000005
v -0.023700932 0.001276873 0.124000005
v -0.0235274322 0.00145037472 0.124000005
v -0.02350093 -0.0011231266 0.124000005
v -0.02350093 0.00398412347 0.124000005
v -0.02330093 -0.0011231266 0.124000005
v -0.02330093 0.00909137353 0.124000005
v -0.0235274322 0.00399737433 0.124000005
v -0.023700932 0.00162387267 0.124000005
v -0.023700932 0.00382387266 0.124000005
v -0.0235274322 0.006544374 0.124000005
v -0.023700932 0.00417087227 0.124000005
v -0.023700932 0.00637087226 0.124000005
v -0.0235274322 0.00909137353 0.124000005
v -0.023700932 0.006717872 0.124000005
v -0.023700932 0.008917872 0.124000005
v -0.02120093 0.008917872 0.12636
v -0.02137443 0.00909137353 0.12636
v -0.02120093 0.006717872 0.12636
v -0.02137443 0.006544374 0.12636
v -0.02214593 0.008122873 0.12636
v -0.0227559321 0.008122873 0.12636
v -0.0235274322 0.00909137353 0.12636
v -0.0227559321 0.007512875 0.12636
v -0.02214593 0.007512875 0.12636
v -0.0235274322 0.006544374 0.12636
v -0.023700932 0.008917872 0.12636
v -0.023700932 0.006717872 0.12636
v -0.0227559321 0.005575873 0.12636
v -0.02214593 0.005575873 0.12636
v -0.02181245 0.00398412347 0.12636
v -0.0227559321 0.00496587157 0.12636
v -0.02214593 0.00496587157 0.12636
v -0.0235274322 0.00399737433 0.12636
v -0.023700932 0.00637087226 0.12636
v -0.023700932 0.00417087227 0.12636
v -0.0224509314 0.00398412347 0.12636
v -0.02214593 0.00398412347 0.12636
v -0.02214593 0.00302887335 0.12636
v -0.0227559321 0.00302887335 0.12636
v -0.02214593 0.002418872 0.12636
v -0.0235274322 0.00145037472 0.12636
v -0.023700932 0.00382387266 0.12636
v -0.023700932 0.00162387267 0.12636
v -0.0227559321 0.002418872 0.12636
v -0.0227559321 0.000481873751 0.12636
v -0.02350093 -0.0011231266 0.12636
v -0.023700932 0.001276873 0.12636
v -0.023700932 -0.000923126936 0.12636
v -0.0227559321 -0.000128127635 0.12636
v -0.02214593 -0.000128127635 0.12636
v -0.0214009322 -0.0011231266 0.12636
v -0.02214593 0.000481873751 0.12636
v -0.02137443 0.00145037472 0.12636
v -0.02120093 0.001276873 0.12636
v -0.02120093 -0.000923126936 0.12636
v -0.02137443 0.00399737433 0.12636
v -0.02120093 0.00162387267 0.12636
v -0.02120093 0.00382387266 0.12636
v -0.02120093 0.00417087227 0.12636
v -0.02120093 0.00637087226 0.12636
v -0.02137443 0.00145037472 0.124000005
v -0.02120093 0.001276873 0.124000005
v -0.02120093 -0.000923126936 0.124000005
v -0.0214009322 -0.0011231266 0.124000005
v -0.0214009322 0.00398412347 0.124000005
v -0.0216009319 -0.0011231266 0.124000005
v -0.0216009319 0.00909137353 0.124000005
v -0.02137443 0.006544374 0.124000005
v -0.02137443 0.00909137353 0.124000005
v -0.02120093 0.008917872 0.124000005
v -0.02120093 0.006717872 0.124000005
v -0.02137443 0.00399737433 0.124000005
v -0.02120093 0.00637087226 0.124000005
v -0.02120093 0.00417087227 0.124000005
v -0.02120093 0.00382387266 0.124000005
v -0.02120093 0.00162387267 0.124000005
v -0.02330093 -0.0011231266 0.124000005
v -0.02330093 -0.0011231266 0.124400005
v -0.02350093 -0.0011231266 0.124000005
v -0.02350093 -0.0011231266 0.12636
v -0.0224509314 -0.0011231266 0.12518
v -0.0214009322 -0.0011231266 0.12636
v -0.0216009319 -0.0011231266 0.124400005
v -0.0214009322 -0.0011231266 0.124000005
v -0.0216009319 -0.0011231266 0.124000005
v -0.0224509314 0.000481873751 0.125380009
v -0.0227559321 0.000481873751 0.12636
v -0.0227559321 0.000481873751 0.124400005
v -0.02214593 0.000481873751 0.124400005
v -0.02214593 0.000481873751 0.12636
v -0.0227559321 0.000176873058 0.125380009
v -0.0227559321 -0.000128127635 0.12636
v -0.0227559321 -0.000128127635 0.124400005
v -0.0227559321 0.000481873751 0.124400005
v -0.0227559321 0.000481873751 0.12636
v -0.02214593 0.000176873058 0.125380009
v -0.02214593 0.000481873751 0.12636
v -0.02214593 0.000481873751 0.124400005
v -0.02214593 -0.000128127635 0.124400005
v -0.02214593 -0.000128127635 0.12636
v -0.0224509314 -0.000128127635 0.125380009
v -0.02214593 -0.000128127635 0.12636
v -0.02214593 -0.000128127635 0.124400005
v -0.0227559321 -0.000128127635 0.124400005
v -0.0227559321 -0.000128127635 0.12636
v -0.0216009319 0.00398412347 0.1242
v -0.0216009319 -0.0011231266 0.124400005
v -0.0216009319 0.00909137353 0.124400005
v -0.0216009319 0.00909137353 0.124000005
v -0.0216009319 -0.0011231266 0.124000005
v -0.02120093 0.000176873058 0.12518
v -0.02120093 0.001276873 0.12636
v -0.02120093 -0.000923126936 0.12636
v -0.02120093 -0.000923126936 0.124000005
v -0.02120093 0.001276873 0.124000005
v -0.02130093 -0.00102312863 0.12518
v -0.02120093 -0.000923126936 0.12636
v -0.0214009322 -0.0011231266 0.12636
v -0.0214009322 -0.0011231266 0.124000005
v -0.02120093 -0.000923126936 0.124000005
v -0.023700932 0.000176873058 0.12518
v -0.023700932 0.001276873 0.124000005
v -0.023700932 -0.000923126936 0.124000005
v -0.023700932 -0.000923126936 0.12636
v -0.023700932 0.001276873 0.12636
v -0.0236009322 -0.00102312863 0.12518
v -0.02350093 -0.0011231266 0.124000005
v -0.02350093 -0.0011231266 0.12636
v -0.023700932 -0.000923126936 0.12636
v -0.023700932 -0.000923126936 0.124000005
v -0.0212876815 0.00136362389 0.12518
v -0.02137443 0.00145037472 0.124000005
v -0.02137443 0.00145037472 0.12636
v -0.02120093 0.001276873 0.12636
v -0.02120093 0.001276873 0.124000005
v -0.0236141812 0.00136362389 0.12518
v -0.023700932 0.001276873 0.12636
v -0.0235274322 0.00145037472 0.12636
v -0.0235274322 0.00145037472 0.124000005
v -0.023700932 0.001276873 0.124000005
v -0.0224509314 0.00302887335 0.125380009
v -0.0227559321 0.00302887335 0.12636
v -0.0227559321 0.00302887335 0.124400005
v -0.02214593 0.00302887335 0.124400005
v -0.02214593 0.00302887335 0.12636
v -0.0227559321 0.00272387266 0.125380009
v -0.0227559321 0.002418872 0.12636
v -0.0227559321 0.002418872 0.124400005
v -0.0227559321 0.00302887335 0.124400005
v -0.0227559321 0.00302887335 0.12636
v -0.02214593 0.00272387266 0.125380009
v -0.02214593 0.00302887335 0.12636
v -0.02214593 0.00302887335 0.124400005
v -0.02214593 0.002418872 0.124400005
v -0.02214593 0.002418872 0.12636
v -0.0224509314 0.002418872 0.125380009
v -0.02214593 0.002418872 0.12636
v -0.02214593 0.002418872 0.124400005
v -0.0227559321 0.002418872 0.124400005
v -0.0227559321 0.002418872 0.12636
v -0.02120093 0.00272387266 0.12518
v -0.02120093 0.00382387266 0.12636
v -0.02120093 0.00162387267 0.12636
v -0.02120093 0.00162387267 0.124000005
v -0.02120093 0.00382387266 0.124000005
v -0.0212876815 0.00153712183 0.12518
v -0.02120093 0.00162387267 0.12636
v -0.02137443 0.00145037472 0.12636
v -0.02137443 0.00145037472 0.124000005
v -0.02120093 0.00162387267 0.124000005
v -0.023700932 0.00272387266 0.12518
v -0.023700932 0.00382387266 0.124000005
v -0.023700932 0.00162387267 0.124000005
v -0.023700932 0.00162387267 0.12636
v -0.023700932 0.00382387266 0.12636
v -0.0236141812 0.00153712183 0.12518
v -0.023700932 0.00162387267 0.124000005
v -0.0235274322 0.00145037472 0.124000005
v -0.0235274322 0.00145037472 0.12636
v -0.023700932 0.00162387267 0.12636
v -0.0212876815 0.00391062349 0.12518
v -0.02137443 0.00399737433 0.124000005
v -0.02137443 0.00399737433 0.12636
v -0.02120093 0.00382387266 0.12636
v -0.02120093 0.00382387266 0.124000005
v -0.0236141812 0.00391062349 0.12518
v -0.023700932 0.00382387266 0.12636
v -0.0235274322 0.00399737433 0.12636
v -0.0235274322 0.00399737433 0.124000005
v -0.023700932 0.00382387266 0.124000005
v -0.0224509314 0.008122873 0.125380009
v -0.0227559321 0.008122873 0.12636
v -0.0227559321 0.008122873 0.124400005
v -0.02214593 0.008122873 0.124400005
v -0.02214593 0.008122873 0.12636
v -0.0227559321 0.007817876 0.125380009
v -0.0227559321 0.007512875 0.12636
v -0.0227559321 0.007512875 0.124400005
v -0.0227559321 0.008122873 0.124400005
v -0.0227559321 0.008122873 0.12636
v -0.02214593 0.007817876 0.125380009
v -0.02214593 0.008122873 0.12636
v -0.02214593 0.008122873 0.124400005
v -0.02214593 0.007512875 0.124400005
v -0.02214593 0.007512875 0.12636
v -0.0224509314 0.007512875 0.125380009
v -0.02214593 0.007512875 0.12636
v -0.02214593 0.007512875 0.124400005
v -0.0227559321 0.007512875 0.124400005
v -0.0227559321 0.007512875 0.12636
v -0.02120093 0.007817876 0.12518
v -0.02120093 0.008917872 0.12636
v -0.02120093 0.006717872 0.12636
v -0.02120093 0.006717872 0.124000005
v -0.02120093 0.008917872 0.124000005
v -0.023700932 0.007817876 0.12518
v -0.023700932 0.008917872 0.124000005
v -0.023700932 0.006717872 0.124000005
v -0.023700932 0.006717872 0.12636
v -0.023700932 0.008917872 0.12636
v -0.0236141812 0.00663112476 0.12518
v -0.023700932 0.006717872 0.124000005
v -0.0235274322 0.006544374 0.124000005
v -0.0235274322 0.006544374 0.12636
v -0.023700932 0.006717872 0.12636
v -0.0212876815 0.009004623 0.12518
v -0.02137443 0.00909137353 0.124000005
v -0.02137443 0.00909137353 0.12636
v -0.02120093 0.008917872 0.12636
v -0.02120093 0.008917872 0.124000005
v -0.0236141812 0.009004623 0.12518
v -0.023700932 0.008917872 0.12636
v -0.0235274322 0.00909137353 0.12636
v -0.0235274322 0.00909137353 0.124000005
v -0.023700932 0.008917872 0.124000005
v -0.0212876815 0.00663112476 0.12518
v -0.02120093 0.006717872 0.12636
v -0.02137443 0.006544374 0.12636
v -0.02137443 0.006544374 0.124000005
v -0.02120093 0.006717872 0.124000005
v -0.0224509314 0.005575873 0.125380009
v -0.0227559321 0.005575873 0.12636
v -0.0227559321 0.005575873 0.124400005
v -0.02214593 0.005575873 0.124400005
v -0.02214593 0.005575873 0.12636
v -0.0227559321 0.00527087227 0.125380009
v -0.0227559321 0.00496587157 0.12636
v -0.0227559321 0.00496587157 0.124400005
v -0.0227559321 0.005575873 0.124400005
v -0.0227559321 0.005575873 0.12636
v -0.02214593 0.00527087227 0.125380009
v -0.02214593 0.005575873 0.12636
v -0.02214593 0.005575873 0.124400005
v -0.02214593 0.00496587157 0.124400005
v -0.02214593 0.00496587157 0.12636
v -0.0224509314 0.00496587157 0.125380009
v -0.02214593 0.00496587157 0.12636
v -0.02214593 0.00496587157 0.124400005
v -0.0227559321 0.00496587157 0.124400005
v -0.0227559321 0.00496587157 0.12636
v -0.0212876815 0.006457623 0.12518
v -0.02120093 0.00637087226 0.124000005
v -0.02137443 0.006544374 0.124000005
v -0.02137443 0.006544374 0.12636
v -0.02120093 0.00637087226 0.12636
v -0.02120093 0.00527087227 0.12518
v -0.02120093 0.00637087226 0.12636
v -0.02120093 0.00417087227 0.12636
v -0.02120093 0.00417087227 0.124000005
v -0.02120093 0.00637087226 0.124000005
v -0.0212876815 0.00408412144 0.12518
v -0.02120093 0.00417087227 0.12636
v -0.02137443 0.00399737433 0.12636
v -0.02137443 0.00399737433 0.124000005
v -0.02120093 0.00417087227 0.124000005
v -0.023700932 0.00527087227 0.12518
v -0.023700932 0.00637087226 0.124000005
v -0.023700932 0.00417087227 0.124000005
v -0.023700932 0.00417087227 0.12636
v -0.023700932 0.00637087226 0.12636
v -0.0236141812 0.00408412144 0.12518
v -0.023700932 0.00417087227 0.124000005
v -0.0235274322 0.00399737433 0.124000005
v -0.0235274322 0.00399737433 0.12636
v -0.023700932 0.00417087227 0.12636
v -0.0236141812 0.006457623 0.12518
v -0.023700932 0.00637087226 0.12636
v -0.0235274322 0.006544374 0.12636
v -0.0235274322 0.006544374 0.124000005
v -0.023700932 0.00637087226 0.124000005
v -0.02330093 0.00398412347 0.1242
v -0.02330093 0.00909137353 0.124000005
v -0.02330093 0.00909137353 0.124400005
v -0.02330093 -0.0011231266 0.124400005
v -0.02330093 -0.0011231266 0.124000005
v -0.0227559321 0.007512875 0.124400005
v -0.02330093 0.00909137353 0.124400005
v -0.0227559321 0.008122873 0.124400005
v -0.02214593 0.008122873 0.124400005
v -0.0216009319 0.00909137353 0.124400005
v -0.02214593 0.007512875 0.124400005
v -0.02214593 0.005575873 0.124400005
v -0.0227559321 0.005575873 0.124400005
v -0.02214593 0.00496587157 0.124400005
v -0.0227559321 0.00496587157 0.124400005
v -0.02214593 0.00398412347 0.124400005
v -0.0216009319 -0.0011231266 0.124400005
v -0.0227559321 0.00302887335 0.124400005
v -0.02330093 -0.0011231266 0.124400005
v -0.0224509314 0.00398412347 0.124400005
v -0.02214593 0.00302887335 0.124400005
v -0.02214593 0.002418872 0.124400005
v -0.0227559321 0.002418872 0.124400005
v -0.02214593 0.000481873751 0.124400005
v -0.0227559321 0.000481873751 0.124400005
v -0.02214593 -0.000128127635 0.124400005
v -0.0227559321 -0.000128127635 0.124400005
f 1 2 3
f 4 1 3
f 4 3 5
f 6 4 5
f 7 5 3
f 5 7 6
f 7 8 6
f 7 9 8
f 10 11 12
f 13 10 12
f 13 12 14
f 15 13 14
f 16 15 14
f 14 12 17
f 17 12 18
f 19 17 18
f 16 14 20
f 20 14 17
f 20 17 21
f 22 20 21
f 23 16 20
f 23 20 24
f 25 23 24
f 26 27 28
f 27 29 28
f 27 30 29
f 30 27 31
f 27 32 31
f 32 33 31
f 30 34 29
f 32 35 33
f 35 32 36
f 37 35 36
f 33 38 34
f 35 38 33
f 34 38 39
f 34 39 29
f 40 29 39
f 35 41 38
f 39 42 40
f 43 41 35
f 43 35 44
f 45 43 44
f 46 42 41
f 46 41 43
f 42 47 40
f 42 46 47
f 46 48 47
f 40 47 48
f 46 49 48
f 49 46 43
f 50 40 48
f 49 43 51
f 51 43 52
f 53 51 52
f 54 49 51
f 55 54 51
f 54 55 50
f 55 51 56
f 56 51 57
f 58 56 57
f 59 55 56
f 60 59 56
f 60 56 61
f 50 55 62
f 62 60 61
f 50 62 63
f 62 61 63
f 40 50 63
f 61 64 63
f 61 65 64
f 40 63 66
f 66 63 67
f 68 66 67
f 29 40 66
f 29 66 69
f 70 29 69
f 71 72 73
f 71 73 74
f 75 71 74
f 75 74 76
f 75 76 77
f 78 75 77
f 78 77 79
f 80 78 79
f 78 80 81
f 75 78 82
f 71 75 82
f 82 78 83
f 84 82 83
f 71 82 85
f 86 71 85
f 87 88 89
f 88 90 89
f 88 91 90
f 91 92 90
f 93 91 88
f 91 93 92
f 93 94 92
f 93 95 94
f 96 97 98
f 96 98 99
f 97 96 100
f 100 96 99
f 101 102 103
f 101 103 104
f 102 101 105
f 105 101 104
f 106 107 108
f 106 108 109
f 107 106 110
f 110 106 109
f 111 112 113
f 111 113 114
f 112 111 115
f 115 111 114
f 116 117 118
f 116 118 119
f 117 116 120
f 120 116 119
f 121 122 123
f 121 123 124
f 122 121 125
f 125 121 124
f 126 127 128
f 129 126 128
f 126 130 127
f 130 126 129
f 131 132 133
f 131 133 134
f 132 131 135
f 135 131 134
f 136 137 138
f 136 138 139
f 137 136 140
f 140 136 139
f 141 142 143
f 144 141 143
f 141 145 142
f 145 141 144
f 146 147 148
f 146 148 149
f 147 146 150
f 150 146 149
f 151 152 153
f 151 153 154
f 152 151 155
f 155 151 154
f 156 157 158
f 156 158 159
f 157 156 160
f 160 156 159
f 161 162 163
f 161 163 164
f 162 161 165
f 165 161 164
f 166 167 168
f 166 168 169
f 167 166 170
f 170 166 169
f 171 172 173
f 171 173 174
f 172 171 175
f 175 171 174
f 176 177 178
f 176 178 179
f 177 176 180
f 180 176 179
f 181 182 183
f 181 183 184
f 182 181 185
f 185 181 184
f 186 187 188
f 186 188 189
f 187 186 190
f 190 186 189
f 191 192 193
f 194 191 193
f 191 195 192
f 195 191 194
f 196 197 198
f 196 198 199
f 197 196 200
f 200 196 199
f 201 202 203
f 201 203 204
f 202 201 205
f 205 201 204
f 206 207 208
f 206 208 209
f 207 206 210
f 210 206 209
f 211 212 213
f 211 213 214
f 212 211 215
f 215 211 214
f 216 217 218
f 216 218 219
f 217 216 220
f 220 216 219
f 221 222 223
f 221 223 224
f 222 221 225
f 225 221 224
f 226 227 228
f 226 228 229
f 227 226 230
f 230 226 229
f 231 232 233
f 231 233 234
f 232 231 235
f 235 231 234
f 236 237 238
f 239 236 238
f 236 240 237
f 240 236 239
f 241 242 243
f 241 243 244
f 242 241 245
f 245 241 244
f 246 247 248
f 246 248 249
f 247 246 250
f 250 246 249
f 251 252 253
f 251 253 254
f 252 251 255
f 255 251 254
f 256 257 258
f 256 258 259
f 257 256 260
f 260 256 259
f 261 262 263
f 261 263 264
f 262 261 265
f 265 261 264
f 266 267 268
f 266 268 269
f 267 266 270
f 270 266 269
f 271 272 273
f 271 273 274
f 272 271 275
f 275 271 274
f 276 277 278
f 276 278 279
f 277 276 280
f 280 276 279
f 281 282 283
f 281 283 284
f 282 281 285
f 285 281 284
f 286 287 288
f 286 288 289
f 287 286 290
f 290 286 289
f 291 292 293
f 291 293 294
f 292 291 295
f 295 291 294
f 296 297 298
f 296 298 299
f 297 296 300
f 300 296 299
f 301 302 303
f 304 301 303
f 301 305 302
f 305 301 304
f 306 307 308
f 307 309 308
f 307 310 309
f 310 311 309
f 312 306 311
f 310 312 311
f 312 313 306
f 313 307 306
f 312 310 314
f 313 315 307
f 310 316 314
f 316 310 317
f 315 318 307
f 307 318 319
f 320 315 314
f 316 320 314
f 315 320 318
f 320 316 321
f 320 321 318
f 316 317 321
f 321 317 322
f 318 323 319
f 324 323 322
f 324 322 317
f 323 324 325
f 323 325 319
f 326 324 317
f 325 327 319
f 327 326 317
f 327 317 319
