# ROS coordinates: X forward, Y left, Z up; units are metres.
o mesh
v -0.0468839668 0.084515065 0.0345000029
v -0.04693203 0.08201553 0.0345
v -0.0469153374 0.08201521 0.0343180373
v -0.0468860157 0.08326487 0.0342914648
v -0.0468672737 0.0845147446 0.0343180373
v -0.0468618348 0.08201418 0.0341319069
v -0.04681377 0.08451372 0.0341319069
v -0.0468153 0.08326352 0.0340794772
v -0.0467690565 0.08201239 0.03395279
v -0.0467209928 0.0845119357 0.0339527875
v -0.0466936044 0.08326118 0.0338812172
v -0.0466391928 0.0820099 0.0337928943
v -0.04659113 0.08450943 0.03379289
v -0.046526853 0.08325797 0.033714436
v -0.0464793257 0.08200683 0.0336630046
v -0.046431262 0.08450636 0.0336630046
v -0.0463286266 0.08325416 0.0335927159
v -0.0463002436 0.0820033848 0.03357021
v -0.04625218 0.08450292 0.03357021
v -0.04611668 0.08325008 0.0335219875
v -0.0461141467 0.0819998 0.0335166939
v -0.0459081866 0.0832460746 0.0335
v -0.046066083 0.0844993442 0.0335166939
v -0.04593222 0.08199631 0.0335
v -0.0458841547 0.08449584 0.0335
v -0.0457502864 0.081992805 0.0335166939
v -0.0457022227 0.08449234 0.0335166939
v -0.0456996858 0.0832420662 0.0335219875
v -0.04556419 0.08198923 0.03357021
v -0.0455161259 0.0844887644 0.03357021
v -0.0455401577 0.083239 0.03357021
v -0.045385763 0.0832360238 0.0336473733
v -0.0453851074 0.08198579 0.0336630046
v -0.0453370437 0.08448532 0.0336630046
v -0.045244243 0.0832333043 0.0337523222
v -0.04522524 0.08198271 0.0337928943
v -0.0451771766 0.0844822451 0.03379289
v -0.04512276 0.08323097 0.0338812172
v -0.0450953729 0.08198021 0.03395279
v -0.04504731 0.08447975 0.0339527875
v -0.0450267978 0.0832291245 0.034027908
v -0.0450026 0.0819784254 0.0341319069
v -0.0449545346 0.08447797 0.0341319069
v -0.044959303 0.08322783 0.0341848955
v -0.044949092 0.0819774 0.0343180373
v -0.04490103 0.08447693 0.0343180373
v -0.04492053 0.08322708 0.0343445167
v -0.0449324 0.08197708 0.0345
v -0.0448843352 0.08447662 0.0345000029
v -0.044949092 0.0819774 0.03468196
v -0.0449303463 0.08322727 0.0347085372
v -0.04490103 0.08447693 0.03468196
v -0.0450026 0.0819784254 0.0348680951
v -0.0449545346 0.08447797 0.0348680951
v -0.04500107 0.08322863 0.03492052
v -0.0450953729 0.08198021 0.03504721
v -0.04504731 0.08447975 0.03504721
v -0.045122765 0.08323097 0.03511878
v -0.04522524 0.08198271 0.0352071077
v -0.0451771766 0.0844822451 0.0352071077
v -0.04528952 0.083234176 0.0352855623
v -0.0453851074 0.08198579 0.0353369936
v -0.0453370437 0.08448532 0.0353369936
v -0.0454877429 0.08323799 0.0354072824
v -0.04556419 0.08198923 0.0354297869
v -0.0455161259 0.0844887644 0.03542979
v -0.0456996858 0.0832420662 0.0354780145
v -0.0457502864 0.081992805 0.0354833044
v -0.0459081829 0.0832460746 0.0354999974
v -0.0457022227 0.08449234 0.0354833081
v -0.0459322147 0.08199631 0.0354999974
v -0.04588415 0.08449584 0.0354999974
v -0.0461141467 0.0819998 0.0354833044
v -0.046066083 0.0844993442 0.0354833081
v -0.04611668 0.08325008 0.0354780145
v -0.0463002436 0.0820033848 0.0354297869
v -0.04625218 0.08450292 0.03542979
v -0.04627621 0.08325315 0.03542979
v -0.0464306064 0.08325612 0.03535263
v -0.0464793257 0.08200683 0.0353369936
v -0.046431262 0.08450636 0.0353369936
v -0.0465721264 0.08325884 0.0352476761
v -0.0466391928 0.0820099 0.0352071077
v -0.04659113 0.08450943 0.0352071077
v -0.0466936044 0.08326118 0.03511878
v -0.0467690565 0.08201239 0.03504721
v -0.0467209928 0.0845119357 0.03504721
v -0.04678957 0.0832630247 0.034972094
v -0.0468618348 0.08201418 0.0348680951
v -0.04681377 0.08451372 0.0348680951
v -0.0468570665 0.08326432 0.0348151028
v -0.04691534 0.08201521 0.03468196
v -0.0468672775 0.0845147446 0.03468196
v -0.046895843 0.0832650661 0.03465548
v -0.04693203 0.08201553 0.0345
v -0.0468839668 0.084515065 0.0345000029
v -0.01888914 0.08397676 0.0345000029
v -0.018937204 0.0814772248 0.0345
v -0.018920511 0.0814769045 0.0343180373
v -0.0188911911 0.08272657 0.0342914648
v -0.0188724473 0.08397644 0.0343180373
v -0.0188670047 0.08147587 0.0341319069
v -0.018818941 0.08397541 0.0341319069
v -0.0188204721 0.08272521 0.0340794772
v -0.01877423 0.08147409 0.03395279
v -0.0187261663 0.08397363 0.0339527875
v -0.0186987743 0.08272287 0.0338812172
v -0.0186443664 0.08147159 0.0337928943
v -0.0185963027 0.08397113 0.03379289
v -0.0185320228 0.08271966 0.033714436
v -0.0184844974 0.08146852 0.0336630046
v -0.0184364337 0.08396806 0.0336630046
v -0.0183338 0.082715854 0.0335927159
v -0.0183054134 0.08146507 0.03357021
v -0.01825735 0.0839646161 0.03357021
v -0.0181218535 0.08271178 0.0335219875
v -0.0181193165 0.0814615 0.0335166939
v -0.0179133564 0.08270777 0.0335
v -0.0180712529 0.08396103 0.0335166939
v -0.0179373883 0.081458 0.0335
v -0.0178893246 0.08395754 0.0335
v -0.01775546 0.0814545 0.0335166939
v -0.0177073963 0.0839540362 0.0335166939
v -0.01770486 0.0827037543 0.0335219875
v -0.01756936 0.0814509243 0.03357021
v -0.0175212957 0.08395046 0.03357021
v -0.0175453275 0.08270069 0.03357021
v -0.0173909366 0.08269772 0.0336473733
v -0.017390281 0.08144748 0.0336630046
v -0.0173422173 0.08394702 0.0336630046
v -0.0172494147 0.082695 0.0337523222
v -0.017230412 0.081444405 0.0337928943
v -0.0171823483 0.08394394 0.03379289
v -0.0171279386 0.08269267 0.0338812172
v -0.0171005465 0.08144191 0.03395279
v -0.0170524828 0.0839414448 0.0339527875
v -0.0170319676 0.08269082 0.034027908
v -0.0170077719 0.08144012 0.0341319069
v -0.0169597082 0.08393966 0.0341319069
v -0.0169644747 0.08268952 0.0341848955
v -0.0169542655 0.08143909 0.0343180373
v -0.0169062018 0.08393863 0.0343180373
v -0.0169257 0.08268878 0.0343445167
v -0.0169375725 0.08143877 0.0345
v -0.0168895088 0.08393831 0.0345000029
v -0.0169542655 0.08143909 0.03468196
v -0.0169355236 0.0826889649 0.0347085372
v -0.0169062018 0.08393863 0.03468196
v -0.0170077719 0.08144012 0.0348680951
v -0.0169597082 0.08393966 0.0348680951
v -0.01700624 0.08269033 0.03492052
v -0.0171005465 0.08144191 0.03504721
v -0.0170524828 0.0839414448 0.03504721
v -0.0171279386 0.08269267 0.03511878
v -0.017230412 0.081444405 0.0352071077
v -0.0171823483 0.08394394 0.0352071077
v -0.01729469 0.08269587 0.0352855623
v -0.017390281 0.08144748 0.0353369936
v -0.0173422173 0.08394702 0.0353369936
v -0.0174929146 0.08269969 0.0354072824
v -0.01756936 0.0814509243 0.0354297869
v -0.0175212957 0.08395046 0.03542979
v -0.01770486 0.0827037543 0.0354780145
v -0.01775546 0.0814545 0.0354833044
v -0.0179133564 0.08270777 0.0354999974
v -0.0177073963 0.0839540362 0.0354833081
v -0.0179373883 0.081458 0.0354999974
v -0.0178893246 0.08395754 0.0354999974
v -0.0181193165 0.0814615 0.0354833044
v -0.0180712529 0.08396103 0.0354833081
v -0.0181218535 0.08271178 0.0354780145
v -0.0183054134 0.08146507 0.0354297869
v -0.01825735 0.0839646161 0.03542979
v -0.0182813816 0.08271484 0.03542979
v -0.0184357762 0.08271781 0.03535263
v -0.0184844974 0.08146852 0.0353369936
v -0.0184364337 0.08396806 0.0353369936
v -0.0185772981 0.08272053 0.0352476761
v -0.0186443664 0.08147159 0.0352071077
v -0.0185963027 0.08397113 0.0352071077
v -0.0186987743 0.08272287 0.03511878
v -0.01877423 0.08147409 0.03504721
v -0.0187261663 0.08397363 0.03504721
v -0.0187947415 0.08272471 0.034972094
v -0.0188670047 0.08147587 0.0348680951
v -0.018818941 0.08397541 0.0348680951
v -0.01886224 0.08272602 0.0348151028
v -0.018920511 0.0814769045 0.03468196
v -0.0188724473 0.08397644 0.03468196
v -0.0189010128 0.08272676 0.03465548
v -0.018937204 0.0814772248 0.0345
v -0.01888914 0.08397676 0.0345000029
v -0.03966225 0.09597835 0.0345
v -0.03974876 0.0914791748 0.0345
v -0.0397070348 0.09147838 0.03495491
v -0.039650552 0.09372771 0.03502134
v -0.03962052 0.0959775448 0.03495491
v -0.0395732671 0.0914758 0.0354202352
v -0.03948675 0.0959749743 0.0354202352
v -0.0394737571 0.09372431 0.0355513
v -0.0393413268 0.0914713442 0.0358680263
v -0.03925481 0.09597051 0.0358680263
v -0.0391695127 0.09371846 0.036046952
v -0.039016664 0.0914651 0.0362677649
v -0.03893015 0.09596427 0.0362677649
v -0.03875263 0.0937104449 0.03646391
v -0.0386169963 0.09145741 0.0365924872
v -0.0385304838 0.09595659 0.0365924872
v -0.03825707 0.0937009156 0.03676821
v -0.03816929 0.0914488062 0.0368244722
v -0.0380827747 0.09594798 0.0368244722
v -0.03772721 0.09369072 0.0369450375
v -0.0377040468 0.09143986 0.0369582623
v -0.0372059681 0.0936807 0.037
v -0.0376175344 0.09593903 0.0369582623
v -0.0372492224 0.09143111 0.037
v -0.03716271 0.0959302858 0.037
v -0.036794398 0.09142237 0.0369582623
v -0.0367078856 0.09592154 0.0369582623
v -0.0366847254 0.09367068 0.0369450375
v -0.0363291577 0.09141342 0.0368244722
v -0.0362426452 0.09591259 0.0368244722
v -0.0362859 0.0936630145 0.0368244722
v -0.0358999148 0.0936555862 0.036631573
v -0.0358814523 0.09140481 0.0365924872
v -0.03579494 0.0959039852 0.0365924872
v -0.03554611 0.0936487839 0.0363691859
v -0.03548178 0.09139713 0.0362677649
v -0.03539527 0.0958963 0.0362677649
v -0.03524242 0.09364295 0.036046952
v -0.03515712 0.0913908854 0.0358680263
v -0.0350706056 0.09589006 0.0358680263
v -0.0350025 0.09363833 0.035680227
v -0.03492518 0.09138642 0.0354202352
v -0.03483867 0.0958856 0.0354202352
v -0.0348337628 0.09363509 0.03528776
v -0.0347914137 0.09138385 0.03495491
v -0.0347049 0.09588303 0.03495491
v -0.0347368233 0.09363323 0.0348887034
v -0.0347496867 0.0913830549 0.0345
v -0.03466317 0.09588222 0.0345
v -0.0347914137 0.09138385 0.0340450928
v -0.0347613841 0.0936337 0.03397866
v -0.0347049 0.09588303 0.0340450928
v -0.03492518 0.09138642 0.033579763
v -0.03483867 0.0958856 0.033579763
v -0.03493818 0.0936370939 0.0334487
v -0.03515712 0.0913908854 0.0331319757
v -0.03507061 0.09589006 0.0331319757
v -0.03524242 0.09364295 0.03295305
v -0.03548178 0.09139713 0.0327322334
v -0.03539527 0.0958963 0.0327322334
v -0.035659302 0.09365097 0.03253609
v -0.0358814523 0.09140481 0.03240751
v -0.03579494 0.0959039852 0.03240751
v -0.0361548625 0.09366049 0.0322317928
v -0.0363291577 0.09141342 0.03217553
v -0.0362426452 0.09591259 0.03217553
v -0.0366847254 0.09367068 0.0320549645
v -0.036794398 0.09142237 0.0320417359
v -0.0372059681 0.0936807 0.032
v -0.0367078856 0.09592154 0.0320417359
v -0.0372492224 0.09143111 0.0319999978
v -0.03716271 0.0959302858 0.0319999978
v -0.0377040468 0.09143986 0.0320417359
v -0.0376175344 0.09593903 0.0320417359
v -0.03772721 0.09369072 0.0320549645
v -0.03816929 0.0914488062 0.03217553
v -0.0380827747 0.09594798 0.03217553
v -0.0381260328 0.0936984 0.03217553
v -0.03851202 0.09370582 0.03236843
v -0.0386169963 0.09145741 0.03240751
v -0.0385304838 0.09595659 0.03240751
v -0.03886582 0.09371262 0.0326308124
v -0.039016664 0.0914651 0.0327322334
v -0.03893015 0.09596427 0.0327322334
v -0.0391695127 0.09371846 0.03295305
v -0.0393413268 0.0914713442 0.0331319757
v -0.03925481 0.09597051 0.0331319757
v -0.0394094363 0.09372307 0.03331977
v -0.0395732671 0.0914758 0.033579763
v -0.03948675 0.0959749743 0.033579763
v -0.0395781733 0.09372632 0.03371224
v -0.0397070348 0.09147838 0.0340450928
v -0.03962052 0.0959775448 0.0340450928
v -0.03967511 0.0937281847 0.0341113
v -0.03974876 0.0914791748 0.0345
v -0.03966225 0.09597835 0.0345
v -0.0432481132 0.09154647 0.0345
v -0.0433538519 0.0860474855 0.0345
v -0.0432537049 0.08604556 0.0355917774
v -0.0431690961 0.08879444 0.03575121
v -0.0431479663 0.09154454 0.0355917774
v -0.0429326631 0.08603939 0.0367085673
v -0.0428269245 0.09153837 0.0367085673
v -0.0427447855 0.08878628 0.03702312
v -0.0423760079 0.08602868 0.0377832577
v -0.04227027 0.09152766 0.0377832577
v -0.0420146063 0.0887722448 0.0382126831
v -0.04159682 0.0860137045 0.03874264
v -0.04149108 0.09151268 0.03874264
v -0.04101409 0.08875301 0.03921338
v -0.0406376123 0.08599526 0.0395219736
v -0.0405318737 0.09149423 0.0395219736
v -0.0398247465 0.0887301341 0.0399437
v -0.0395631231 0.0859746 0.04007873
v -0.0394573845 0.09147357 0.04007873
v -0.038553074 0.08870568 0.0403680876
v -0.03844654 0.0859531239 0.0403998345
v -0.03730209 0.08868162 0.0405
v -0.0383408 0.09145211 0.0403998345
v -0.03735496 0.0859321356 0.0405
v -0.0372492224 0.09143111 0.0405
v -0.0362633839 0.08591115 0.0403998345
v -0.0361576453 0.09141012 0.0403998345
v -0.0360511132 0.08865757 0.0403680876
v -0.0351468027 0.0858896747 0.04007873
v -0.035041064 0.09138866 0.04007873
v -0.0350939333 0.08863917 0.04007873
v -0.03416757 0.0886213556 0.0396157727
v -0.03407231 0.0858690143 0.0395219736
v -0.03396657 0.09136799 0.0395219736
v -0.03331844 0.0886050239 0.03898605
v -0.0331131071 0.08585057 0.03874264
v -0.03300737 0.09134955 0.03874264
v -0.03258958 0.08859101 0.0382126831
v -0.0323339179 0.08583559 0.0377832577
v -0.03222818 0.09133457 0.0377832577
v -0.03201377 0.08857994 0.03733255
v -0.0317772627 0.0858248845 0.0367085673
v -0.031671524 0.09132386 0.0367085673
v -0.0316088 0.08857215 0.03639062
v -0.03145622 0.08581871 0.0355917774
v -0.0313504823 0.09131769 0.0355917774
v -0.031376157 0.08856768 0.0354328826
v -0.03135607 0.0858167857 0.0345
v -0.03125033 0.09131576 0.0345
v -0.03145622 0.08581871 0.03340822
v -0.0314350873 0.0885688141 0.03324879
v -0.0313504823 0.09131769 0.03340822
v -0.0317772627 0.0858248845 0.03229143
v -0.031671524 0.09132386 0.03229143
v -0.0318593979 0.08857697 0.03197688
v -0.0323339179 0.08583559 0.03121674
v -0.03222818 0.09133457 0.03121674
v -0.03258958 0.08859101 0.0307873171
v -0.0331131071 0.08585057 0.03025736
v -0.03300737 0.09134955 0.03025736
v -0.033590097 0.08861025 0.0297866147
v -0.03407231 0.0858690143 0.0294780284
v -0.03396657 0.09136799 0.0294780284
v -0.03477944 0.08863312 0.0290563013
v -0.0351468027 0.0858896747 0.0289212689
v -0.035041064 0.09138866 0.0289212689
v -0.0360511132 0.08865757 0.0286319088
v -0.0362633839 0.08591115 0.0286001675
v -0.03730209 0.08868162 0.0285
v -0.0361576453 0.09141012 0.0286001675
v -0.03735496 0.0859321356 0.0284999982
v -0.0372492224 0.09143111 0.0284999982
v -0.03844654 0.0859531239 0.0286001675
v -0.0383408 0.09145211 0.0286001675
v -0.038553074 0.08870568 0.0286319088
v -0.0395631231 0.0859746 0.0289212689
v -0.0394573845 0.09147357 0.0289212689
v -0.0395102538 0.0887240842 0.028921267
v -0.0404366143 0.0887419 0.0293842275
v -0.0406376123 0.08599526 0.0294780284
v -0.0405318737 0.09149423 0.0294780284
v -0.0412857458 0.08875823 0.0300139468
v -0.04159682 0.0860137045 0.03025736
v -0.04149108 0.09151268 0.03025736
v -0.0420146063 0.0887722448 0.0307873171
v -0.0423760079 0.08602868 0.03121674
v -0.04227027 0.09152766 0.03121674
v -0.0425904132 0.08878332 0.03166745
v -0.0429326631 0.08603939 0.03229143
v -0.0428269245 0.09153837 0.03229143
v -0.0429953858 0.0887911 0.03260938
v -0.0432537049 0.08604556 0.03340822
v -0.0431479663 0.09154454 0.03340822
v -0.0432280339 0.08879557 0.0335671157
v -0.0433538519 0.0860474855 0.0345
v -0.0432481132 0.09154647 0.0345
v -0.0156378113 0.0814137757 0.0285
v -0.0204369277 0.08150606 0.0285
v -0.0155897494 0.08391332 0.0285
v -0.020388864 0.0840055943 0.0285
v -0.03735496 0.0859321356 0.0284999982
v -0.0203581043 0.08560531 0.0284999982
v -0.0320732221 0.0745284855 0.0285
v -0.0207925923 0.06300948 0.0285
v -0.0437883437 0.0634516552 0.0285
v -0.0434326753 0.08194824 0.0285
v -0.04338461 0.08444778 0.0285
v -0.0433538519 0.0860474855 0.0284999982
v -0.0482317954 0.08204052 0.0285
v -0.04818373 0.08454006 0.0285
v -0.0156378113 0.0814137757 0.0405
v -0.0155897494 0.08391332 0.0405
v -0.0204369277 0.08150606 0.0405
v -0.020388864 0.0840055943 0.0405
v -0.03735496 0.0859321356 0.0405
v -0.0203581043 0.08560531 0.0405
v -0.0320732221 0.0745284855 0.0405
v -0.0207925923 0.06300948 0.0405
v -0.0437883437 0.0634516552 0.0405
v -0.0434326753 0.08194824 0.0405
v -0.04338461 0.08444778 0.0405
v -0.0433538519 0.0860474855 0.0405
v -0.04823179 0.08204052 0.0405
v -0.04818373 0.08454006 0.0405
v -0.0204369277 0.08150606 0.0405
v -0.018920511 0.0814769045 0.03468196
v -0.0188670047 0.08147587 0.0348680951
v -0.01877423 0.08147409 0.03504721
v -0.0186443664 0.08147159 0.0352071077
v -0.0184844974 0.08146852 0.0353369936
v -0.0183054134 0.08146507 0.0354297869
v -0.0181193165 0.0814615 0.0354833044
v -0.018937204 0.0814772248 0.0345
v -0.0179373883 0.081458 0.0354999974
v -0.0204369277 0.08150606 0.0285
v -0.018920511 0.0814769045 0.0343180373
v -0.0188670047 0.08147587 0.0341319069
v -0.0156378113 0.0814137757 0.0405
v -0.01775546 0.0814545 0.0354833044
v -0.01756936 0.0814509243 0.0354297869
v -0.01877423 0.08147409 0.03395279
v -0.017390281 0.08144748 0.0353369936
v -0.0186443664 0.08147159 0.0337928943
v -0.017230412 0.081444405 0.0352071077
v -0.0184844974 0.08146852 0.0336630046
v -0.0171005465 0.08144191 0.03504721
v -0.0183054134 0.08146507 0.03357021
v -0.0181193165 0.0814615 0.0335166939
v -0.0179373883 0.081458 0.0335
v -0.0156378113 0.0814137757 0.0285
v -0.01775546 0.0814545 0.0335166939
v -0.01756936 0.0814509243 0.03357021
v -0.0170077719 0.08144012 0.0348680951
v -0.0169542655 0.08143909 0.03468196
v -0.0169375725 0.08143877 0.0345
v -0.017390281 0.08144748 0.0336630046
v -0.0169542655 0.08143909 0.0343180373
v -0.017230412 0.081444405 0.0337928943
v -0.0170077719 0.08144012 0.0341319069
v -0.0171005465 0.08144191 0.03395279
v -0.0156137813 0.08266355 0.0345000029
v -0.0155897494 0.08391332 0.0285
v -0.0155897494 0.08391332 0.0405
v -0.0156378113 0.0814137757 0.0405
v -0.0156378113 0.0814137757 0.0285
v -0.020388864 0.0840055943 0.0285
v -0.0188724473 0.08397644 0.0343180373
v -0.018818941 0.08397541 0.0341319069
v -0.0187261663 0.08397363 0.0339527875
v -0.0185963027 0.08397113 0.03379289
v -0.0184364337 0.08396806 0.0336630046
v -0.01825735 0.0839646161 0.03357021
v -0.0180712529 0.08396103 0.0335166939
v -0.01888914 0.08397676 0.0345000029
v -0.0178893246 0.08395754 0.0335
v -0.020388864 0.0840055943 0.0405
v -0.0188724473 0.08397644 0.03468196
v -0.018818941 0.08397541 0.0348680951
v -0.0155897494 0.08391332 0.0285
v -0.0177073963 0.0839540362 0.0335166939
v -0.0175212957 0.08395046 0.03357021
v -0.0187261663 0.08397363 0.03504721
v -0.0173422173 0.08394702 0.0336630046
v -0.0185963027 0.08397113 0.0352071077
v -0.0171823483 0.08394394 0.03379289
v -0.0184364337 0.08396806 0.0353369936
v -0.0170524828 0.0839414448 0.0339527875
v -0.01825735 0.0839646161 0.03542979
v -0.0180712529 0.08396103 0.0354833081
v -0.0178893246 0.08395754 0.0354999974
v -0.0155897494 0.08391332 0.0405
v -0.0177073963 0.0839540362 0.0354833081
v -0.0175212957 0.08395046 0.03542979
v -0.0169597082 0.08393966 0.0341319069
v -0.0169062018 0.08393863 0.0343180373
v -0.0168895088 0.08393831 0.0345000029
v -0.0173422173 0.08394702 0.0353369936
v -0.0169062018 0.08393863 0.03468196
v -0.0171823483 0.08394394 0.0352071077
v -0.0169597082 0.08393966 0.0348680951
v -0.0170524828 0.0839414448 0.03504721
v -0.0203734823 0.08480545 0.0345
v -0.0203581043 0.08560531 0.0284999982
v -0.0203581043 0.08560531 0.0405
v -0.020388864 0.0840055943 0.0405
v -0.020388864 0.0840055943 0.0285
v -0.04338461 0.08444778 0.0285
v -0.04336923 0.08524763 0.0345
v -0.0433538519 0.0860474855 0.0284999982
v -0.04338461 0.08444778 0.0405
v -0.0433538519 0.0860474855 0.0345
v -0.0433538519 0.0860474855 0.0405
v -0.04818373 0.08454006 0.0285
v -0.0468672737 0.0845147446 0.0343180373
v -0.04681377 0.08451372 0.0341319069
v -0.0467209928 0.0845119357 0.0339527875
v -0.04659113 0.08450943 0.03379289
v -0.046431262 0.08450636 0.0336630046
v -0.04625218 0.08450292 0.03357021
v -0.046066083 0.0844993442 0.0335166939
v -0.0468839668 0.084515065 0.0345000029
v -0.0458841547 0.08449584 0.0335
v -0.04818373 0.08454006 0.0405
v -0.0468672775 0.0845147446 0.03468196
v -0.04681377 0.08451372 0.0348680951
v -0.04338461 0.08444778 0.0285
v -0.0457022227 0.08449234 0.0335166939
v -0.0455161259 0.0844887644 0.03357021
v -0.0467209928 0.0845119357 0.03504721
v -0.0453370437 0.08448532 0.0336630046
v -0.04659113 0.08450943 0.0352071077
v -0.0451771766 0.0844822451 0.03379289
v -0.046431262 0.08450636 0.0353369936
v -0.04504731 0.08447975 0.0339527875
v -0.04625218 0.08450292 0.03542979
v -0.046066083 0.0844993442 0.0354833081
v -0.04588415 0.08449584 0.0354999974
v -0.04338461 0.08444778 0.0405
v -0.0457022227 0.08449234 0.0354833081
v -0.0455161259 0.0844887644 0.03542979
v -0.0449545346 0.08447797 0.0341319069
v -0.04490103 0.08447693 0.0343180373
v -0.0448843352 0.08447662 0.0345000029
v -0.0453370437 0.08448532 0.0353369936
v -0.04490103 0.08447693 0.03468196
v -0.0451771766 0.0844822451 0.0352071077
v -0.0449545346 0.08447797 0.0348680951
v -0.04504731 0.08447975 0.03504721
v -0.04820776 0.0832902938 0.0345000029
v -0.0482317954 0.08204052 0.0285
v -0.04823179 0.08204052 0.0405
v -0.04818373 0.08454006 0.0405
v -0.04818373 0.08454006 0.0285
v -0.04823179 0.08204052 0.0405
v -0.04691534 0.08201521 0.03468196
v -0.0468618348 0.08201418 0.0348680951
v -0.0467690565 0.08201239 0.03504721
v -0.0466391928 0.0820099 0.0352071077
v -0.0464793257 0.08200683 0.0353369936
v -0.0463002436 0.0820033848 0.0354297869
v -0.0461141467 0.0819998 0.0354833044
v -0.04693203 0.08201553 0.0345
v -0.0459322147 0.08199631 0.0354999974
v -0.0482317954 0.08204052 0.0285
v -0.0469153374 0.08201521 0.0343180373
v -0.0468618348 0.08201418 0.0341319069
v -0.0434326753 0.08194824 0.0405
v -0.0457502864 0.081992805 0.0354833044
v -0.04556419 0.08198923 0.0354297869
v -0.0467690565 0.08201239 0.03395279
v -0.0453851074 0.08198579 0.0353369936
v -0.0466391928 0.0820099 0.0337928943
v -0.04522524 0.08198271 0.0352071077
v -0.0464793257 0.08200683 0.0336630046
v -0.0450953729 0.08198021 0.03504721
v -0.0463002436 0.0820033848 0.03357021
v -0.0461141467 0.0819998 0.0335166939
v -0.04593222 0.08199631 0.0335
v -0.0434326753 0.08194824 0.0285
v -0.0457502864 0.081992805 0.0335166939
v -0.04556419 0.08198923 0.03357021
v -0.0450026 0.0819784254 0.0348680951
v -0.044949092 0.0819774 0.03468196
v -0.0449324 0.08197708 0.0345
v -0.0453851074 0.08198579 0.0336630046
v -0.044949092 0.0819774 0.0343180373
v -0.04522524 0.08198271 0.0337928943
v -0.0450026 0.0819784254 0.0341319069
v -0.0450953729 0.08198021 0.03395279
v -0.0436105058 0.07269995 0.0345
v -0.0437883437 0.0634516552 0.0285
v -0.0437883437 0.0634516552 0.0405
v -0.0434326753 0.08194824 0.0405
v -0.0434326753 0.08194824 0.0285
v -0.0322904661 0.06323057 0.0345
v -0.0207925923 0.06300948 0.0285
v -0.0207925923 0.06300948 0.0405
v -0.0437883437 0.0634516552 0.0405
v -0.0437883437 0.0634516552 0.0285
v -0.0429326631 0.08603939 0.03229143
v -0.0433538519 0.0860474855 0.0284999982
v -0.0432537049 0.08604556 0.03340822
v -0.0423760079 0.08602868 0.03121674
v -0.0433538519 0.0860474855 0.0345
v -0.04159682 0.0860137045 0.03025736
v -0.0406376123 0.08599526 0.0294780284
v -0.0395631231 0.0859746 0.0289212689
v -0.03844654 0.0859531239 0.0286001675
v -0.03735496 0.0859321356 0.0284999982
v -0.0433538519 0.0860474855 0.0405
v -0.0432537049 0.08604556 0.0355917774
v -0.0429326631 0.08603939 0.0367085673
v -0.0423760079 0.08602868 0.0377832577
v -0.04159682 0.0860137045 0.03874264
v -0.0406376123 0.08599526 0.0395219736
v -0.0395631231 0.0859746 0.04007873
v -0.03844654 0.0859531239 0.0403998345
v -0.03735496 0.0859321356 0.0405
v -0.0362633839 0.08591115 0.0286001675
v -0.0203581043 0.08560531 0.0284999982
v -0.0351468027 0.0858896747 0.0289212689
v -0.03407231 0.0858690143 0.0294780284
v -0.0331131071 0.08585057 0.03025736
v -0.0323339179 0.08583559 0.03121674
v -0.0317772627 0.0858248845 0.03229143
v -0.0288565326 0.08576872 0.0345
v -0.0203581043 0.08560531 0.0405
v -0.0362633839 0.08591115 0.0403998345
v -0.03145622 0.08581871 0.03340822
v -0.0351468027 0.0858896747 0.04007873
v -0.03135607 0.0858167857 0.0345
v -0.03145622 0.08581871 0.0355917774
v -0.0317772627 0.0858248845 0.0367085673
v -0.03407231 0.0858690143 0.0395219736
v -0.0323339179 0.08583559 0.0377832577
v -0.0331131071 0.08585057 0.03874264
v -0.0372492224 0.09143111 0.037
v -0.0372492224 0.09143111 0.0405
v -0.0361576453 0.09141012 0.0403998345
v -0.0383408 0.09145211 0.0403998345
v -0.036794398 0.09142237 0.0369582623
v -0.0377040468 0.09143986 0.0369582623
v -0.035041064 0.09138866 0.04007873
v -0.0394573845 0.09147357 0.04007873
v -0.0363291577 0.09141342 0.0368244722
v -0.03816929 0.0914488062 0.0368244722
v -0.03396657 0.09136799 0.0395219736
v -0.0405318737 0.09149423 0.0395219736
v -0.0358814523 0.09140481 0.0365924872
v -0.0386169963 0.09145741 0.0365924872
v -0.03300737 0.09134955 0.03874264
v -0.04149108 0.09151268 0.03874264
v -0.03548178 0.09139713 0.0362677649
v -0.039016664 0.0914651 0.0362677649
v -0.03222818 0.09133457 0.0377832577
v -0.04227027 0.09152766 0.0377832577
v -0.03515712 0.0913908854 0.0358680263
v -0.0393413268 0.0914713442 0.0358680263
v -0.031671524 0.09132386 0.0367085673
v -0.0428269245 0.09153837 0.0367085673
v -0.03492518 0.09138642 0.0354202352
v -0.0395732671 0.0914758 0.0354202352
v -0.0313504823 0.09131769 0.0355917774
v -0.0431479663 0.09154454 0.0355917774
v -0.0347914137 0.09138385 0.03495491
v -0.0397070348 0.09147838 0.03495491
v -0.03125033 0.09131576 0.0345
v -0.0347496867 0.0913830549 0.0345
v -0.0432481132 0.09154647 0.0345
v -0.03974876 0.0914791748 0.0345
v -0.0397070348 0.09147838 0.0340450928
v -0.0431479663 0.09154454 0.03340822
v -0.0395732671 0.0914758 0.033579763
v -0.0428269245 0.09153837 0.03229143
v -0.0393413268 0.0914713442 0.0331319757
v -0.04227027 0.09152766 0.03121674
v -0.039016664 0.0914651 0.0327322334
v -0.04149108 0.09151268 0.03025736
v -0.0386169963 0.09145741 0.03240751
v -0.0405318737 0.09149423 0.0294780284
v -0.03816929 0.0914488062 0.03217553
v -0.0394573845 0.09147357 0.0289212689
v -0.0377040468 0.09143986 0.0320417359
v -0.0383408 0.09145211 0.0286001675
v -0.0372492224 0.09143111 0.0284999982
v -0.0372492224 0.09143111 0.0319999978
v -0.0361576453 0.09141012 0.0286001675
v -0.036794398 0.09142237 0.0320417359
v -0.035041064 0.09138866 0.0289212689
v -0.0363291577 0.09141342 0.03217553
v -0.03396657 0.09136799 0.0294780284
v -0.0358814523 0.09140481 0.03240751
v -0.03300737 0.09134955 0.03025736
v -0.03548178 0.09139713 0.0327322334
v -0.03222818 0.09133457 0.03121674
v -0.03515712 0.0913908854 0.0331319757
v -0.031671524 0.09132386 0.03229143
v -0.03492518 0.09138642 0.033579763
v -0.0313504823 0.09131769 0.03340822
v -0.0347914137 0.09138385 0.0340450928
v -0.03925481 0.09597051 0.0358680263
v -0.03716271 0.0959302858 0.0345
v -0.03948675 0.0959749743 0.0354202352
v -0.03893015 0.09596427 0.0362677649
v -0.03962052 0.0959775448 0.03495491
v -0.0385304838 0.09595659 0.0365924872
v -0.03966225 0.09597835 0.0345
v -0.0380827747 0.09594798 0.0368244722
v -0.03962052 0.0959775448 0.0340450928
v -0.0376175344 0.09593903 0.0369582623
v -0.03948675 0.0959749743 0.033579763
v -0.03716271 0.0959302858 0.037
v -0.03925481 0.09597051 0.0331319757
v -0.0367078856 0.09592154 0.0369582623
v -0.03893015 0.09596427 0.0327322334
v -0.0362426452 0.09591259 0.0368244722
v -0.0385304838 0.09595659 0.03240751
v -0.03579494 0.0959039852 0.0365924872
v -0.0380827747 0.09594798 0.03217553
v -0.03539527 0.0958963 0.0362677649
v -0.0376175344 0.09593903 0.0320417359
v -0.0350706056 0.09589006 0.0358680263
v -0.03716271 0.0959302858 0.0319999978
v -0.03483867 0.0958856 0.0354202352
v -0.0367078856 0.09592154 0.0320417359
v -0.0347049 0.09588303 0.03495491
v -0.0362426452 0.09591259 0.03217553
v -0.03466317 0.09588222 0.0345
v -0.03579494 0.0959039852 0.03240751
v -0.0347049 0.09588303 0.0340450928
v -0.03539527 0.0958963 0.0327322334
v -0.03483867 0.0958856 0.033579763
v -0.03507061 0.09589006 0.0331319757
v -0.0207925923 0.06300948 0.0285
v -0.02061476 0.07225777 0.0345
v -0.0207925923 0.06300948 0.0405
v -0.0204369277 0.08150606 0.0285
v -0.0204369277 0.08150606 0.0405
f 1 2 3
f 1 3 4
f 5 1 4
f 4 3 6
f 7 5 4
f 8 4 6
f 7 4 8
f 8 6 9
f 10 7 8
f 11 8 9
f 10 8 11
f 11 9 12
f 13 10 11
f 14 11 12
f 13 11 14
f 14 12 15
f 16 13 14
f 17 14 15
f 16 14 17
f 17 15 18
f 19 16 17
f 20 17 18
f 19 17 20
f 20 18 21
f 22 20 21
f 23 19 20
f 23 20 22
f 22 21 24
f 25 23 22
f 26 22 24
f 27 25 22
f 28 22 26
f 27 22 28
f 29 28 26
f 30 27 28
f 31 28 29
f 31 30 28
f 32 31 29
f 31 32 30
f 32 29 33
f 32 34 30
f 35 32 33
f 32 35 34
f 35 33 36
f 35 37 34
f 38 35 36
f 35 38 37
f 38 36 39
f 38 40 37
f 41 38 39
f 38 41 40
f 41 39 42
f 41 43 40
f 44 41 42
f 41 44 43
f 44 42 45
f 44 46 43
f 47 44 45
f 44 47 46
f 47 45 48
f 46 47 49
f 47 48 49
f 48 50 49
f 50 51 49
f 49 51 52
f 50 53 51
f 51 54 52
f 53 55 51
f 51 55 54
f 53 56 55
f 55 57 54
f 56 58 55
f 55 58 57
f 56 59 58
f 58 60 57
f 59 61 58
f 58 61 60
f 59 62 61
f 61 63 60
f 62 64 61
f 61 64 63
f 62 65 64
f 64 66 63
f 65 67 64
f 64 67 66
f 65 68 67
f 68 69 67
f 67 70 66
f 67 69 70
f 68 71 69
f 69 72 70
f 71 73 69
f 69 74 72
f 73 75 69
f 69 75 74
f 73 76 75
f 75 77 74
f 76 78 75
f 75 78 77
f 76 79 78
f 79 77 78
f 80 79 76
f 79 81 77
f 82 79 80
f 79 82 81
f 83 82 80
f 82 84 81
f 85 82 83
f 82 85 84
f 86 85 83
f 85 87 84
f 88 85 86
f 85 88 87
f 89 88 86
f 88 90 87
f 91 88 89
f 88 91 90
f 92 91 89
f 91 93 90
f 94 91 92
f 91 94 93
f 95 94 92
f 94 96 93
f 94 95 96
f 97 98 99
f 97 99 100
f 101 97 100
f 100 99 102
f 103 101 100
f 104 100 102
f 103 100 104
f 104 102 105
f 106 103 104
f 107 104 105
f 106 104 107
f 107 105 108
f 109 106 107
f 110 107 108
f 109 107 110
f 110 108 111
f 112 109 110
f 113 110 111
f 112 110 113
f 113 111 114
f 115 112 113
f 116 113 114
f 115 113 116
f 116 114 117
f 118 116 117
f 119 115 116
f 119 116 118
f 118 117 120
f 121 119 118
f 122 118 120
f 123 121 118
f 124 118 122
f 123 118 124
f 125 124 122
f 126 123 124
f 127 124 125
f 127 126 124
f 128 127 125
f 127 128 126
f 128 125 129
f 128 130 126
f 131 128 129
f 128 131 130
f 131 129 132
f 131 133 130
f 134 131 132
f 131 134 133
f 134 132 135
f 134 136 133
f 137 134 135
f 134 137 136
f 137 135 138
f 137 139 136
f 140 137 138
f 137 140 139
f 140 138 141
f 140 142 139
f 143 140 141
f 140 143 142
f 143 141 144
f 142 143 145
f 143 144 145
f 144 146 145
f 146 147 145
f 145 147 148
f 146 149 147
f 147 150 148
f 149 151 147
f 147 151 150
f 149 152 151
f 151 153 150
f 152 154 151
f 151 154 153
f 152 155 154
f 154 156 153
f 155 157 154
f 154 157 156
f 155 158 157
f 157 159 156
f 158 160 157
f 157 160 159
f 158 161 160
f 160 162 159
f 161 163 160
f 160 163 162
f 161 164 163
f 164 165 163
f 163 166 162
f 163 165 166
f 164 167 165
f 165 168 166
f 167 169 165
f 165 170 168
f 169 171 165
f 165 171 170
f 169 172 171
f 171 173 170
f 172 174 171
f 171 174 173
f 172 175 174
f 175 173 174
f 176 175 172
f 175 177 173
f 178 175 176
f 175 178 177
f 179 178 176
f 178 180 177
f 181 178 179
f 178 181 180
f 182 181 179
f 181 183 180
f 184 181 182
f 181 184 183
f 185 184 182
f 184 186 183
f 187 184 185
f 184 187 186
f 188 187 185
f 187 189 186
f 190 187 188
f 187 190 189
f 191 190 188
f 190 192 189
f 190 191 192
f 193 194 195
f 193 195 196
f 197 193 196
f 196 195 198
f 199 197 196
f 200 196 198
f 199 196 200
f 200 198 201
f 202 199 200
f 203 200 201
f 202 200 203
f 203 201 204
f 205 202 203
f 206 203 204
f 205 203 206
f 206 204 207
f 208 205 206
f 209 206 207
f 208 206 209
f 209 207 210
f 211 208 209
f 212 209 210
f 211 209 212
f 212 210 213
f 214 212 213
f 215 211 212
f 215 212 214
f 214 213 216
f 217 215 214
f 218 214 216
f 219 217 214
f 220 214 218
f 219 214 220
f 221 220 218
f 222 219 220
f 223 220 221
f 223 222 220
f 224 223 221
f 223 224 222
f 224 221 225
f 224 226 222
f 227 224 225
f 224 227 226
f 227 225 228
f 227 229 226
f 230 227 228
f 227 230 229
f 230 228 231
f 230 232 229
f 233 230 231
f 230 233 232
f 233 231 234
f 233 235 232
f 236 233 234
f 233 236 235
f 236 234 237
f 236 238 235
f 239 236 237
f 236 239 238
f 239 237 240
f 238 239 241
f 239 240 241
f 240 242 241
f 242 243 241
f 241 243 244
f 242 245 243
f 243 246 244
f 245 247 243
f 243 247 246
f 245 248 247
f 247 249 246
f 248 250 247
f 247 250 249
f 248 251 250
f 250 252 249
f 251 253 250
f 250 253 252
f 251 254 253
f 253 255 252
f 254 256 253
f 253 256 255
f 254 257 256
f 256 258 255
f 257 259 256
f 256 259 258
f 257 260 259
f 260 261 259
f 259 262 258
f 259 261 262
f 260 263 261
f 261 264 262
f 263 265 261
f 261 266 264
f 265 267 261
f 261 267 266
f 265 268 267
f 267 269 266
f 268 270 267
f 267 270 269
f 268 271 270
f 271 269 270
f 272 271 268
f 271 273 269
f 274 271 272
f 271 274 273
f 275 274 272
f 274 276 273
f 277 274 275
f 274 277 276
f 278 277 275
f 277 279 276
f 280 277 278
f 277 280 279
f 281 280 278
f 280 282 279
f 283 280 281
f 280 283 282
f 284 283 281
f 283 285 282
f 286 283 284
f 283 286 285
f 287 286 284
f 286 288 285
f 286 287 288
f 289 290 291
f 289 291 292
f 293 289 292
f 292 291 294
f 295 293 292
f 296 292 294
f 295 292 296
f 296 294 297
f 298 295 296
f 299 296 297
f 298 296 299
f 299 297 300
f 301 298 299
f 302 299 300
f 301 299 302
f 302 300 303
f 304 301 302
f 305 302 303
f 304 302 305
f 305 303 306
f 307 304 305
f 308 305 306
f 307 305 308
f 308 306 309
f 310 308 309
f 311 307 308
f 311 308 310
f 310 309 312
f 313 311 310
f 314 310 312
f 315 313 310
f 316 310 314
f 315 310 316
f 317 316 314
f 318 315 316
f 319 316 317
f 319 318 316
f 320 319 317
f 319 320 318
f 320 317 321
f 320 322 318
f 323 320 321
f 320 323 322
f 323 321 324
f 323 325 322
f 326 323 324
f 323 326 325
f 326 324 327
f 326 328 325
f 329 326 327
f 326 329 328
f 329 327 330
f 329 331 328
f 332 329 330
f 329 332 331
f 332 330 333
f 332 334 331
f 335 332 333
f 332 335 334
f 335 333 336
f 334 335 337
f 335 336 337
f 336 338 337
f 338 339 337
f 337 339 340
f 338 341 339
f 339 342 340
f 341 343 339
f 339 343 342
f 341 344 343
f 343 345 342
f 344 346 343
f 343 346 345
f 344 347 346
f 346 348 345
f 347 349 346
f 346 349 348
f 347 350 349
f 349 351 348
f 350 352 349
f 349 352 351
f 350 353 352
f 352 354 351
f 353 355 352
f 352 355 354
f 353 356 355
f 356 357 355
f 355 358 354
f 355 357 358
f 356 359 357
f 357 360 358
f 359 361 357
f 357 362 360
f 361 363 357
f 357 363 362
f 361 364 363
f 363 365 362
f 364 366 363
f 363 366 365
f 364 367 366
f 367 365 366
f 368 367 364
f 367 369 365
f 370 367 368
f 367 370 369
f 371 370 368
f 370 372 369
f 373 370 371
f 370 373 372
f 374 373 371
f 373 375 372
f 376 373 374
f 373 376 375
f 377 376 374
f 376 378 375
f 379 376 377
f 376 379 378
f 380 379 377
f 379 381 378
f 382 379 380
f 379 382 381
f 383 382 380
f 382 384 381
f 382 383 384
f 385 386 387
f 386 388 387
f 386 389 388
f 389 390 388
f 391 389 386
f 392 391 386
f 391 392 393
f 391 393 394
f 389 391 394
f 389 394 395
f 396 389 395
f 395 394 397
f 398 395 397
f 399 400 401
f 400 402 401
f 402 403 401
f 402 404 403
f 403 405 401
f 405 406 401
f 405 407 406
f 407 405 408
f 405 403 408
f 403 409 408
f 409 403 410
f 409 411 408
f 409 412 411
f 413 414 415
f 416 413 415
f 413 416 417
f 413 417 418
f 419 413 418
f 413 419 420
f 413 421 414
f 413 420 422
f 413 423 421
f 423 424 421
f 423 425 424
f 426 413 422
f 426 422 427
f 426 427 428
f 425 423 429
f 430 426 428
f 423 431 429
f 426 430 432
f 423 433 431
f 426 432 434
f 433 423 435
f 423 436 435
f 423 437 436
f 423 438 437
f 438 439 437
f 438 440 439
f 441 426 434
f 426 441 442
f 426 442 443
f 438 426 443
f 440 438 444
f 438 443 445
f 438 446 444
f 438 445 447
f 438 448 446
f 448 438 447
f 449 450 451
f 449 451 452
f 450 449 453
f 453 449 452
f 454 455 456
f 457 454 456
f 454 457 458
f 454 458 459
f 460 454 459
f 454 460 461
f 454 462 455
f 454 461 463
f 454 464 462
f 464 465 462
f 464 466 465
f 467 454 463
f 467 463 468
f 467 468 469
f 466 464 470
f 471 467 469
f 464 472 470
f 467 471 473
f 464 474 472
f 467 473 475
f 474 464 476
f 464 477 476
f 464 478 477
f 464 479 478
f 479 480 478
f 479 481 480
f 482 467 475
f 467 482 483
f 467 483 484
f 479 467 484
f 481 479 485
f 479 484 486
f 479 487 485
f 479 486 488
f 479 489 487
f 489 479 488
f 490 491 492
f 490 492 493
f 491 490 494
f 494 490 493
f 495 496 497
f 496 495 498
f 496 499 497
f 496 498 500
f 499 496 500
f 501 502 503
f 504 501 503
f 501 504 505
f 501 505 506
f 507 501 506
f 501 507 508
f 501 509 502
f 501 508 510
f 501 511 509
f 511 512 509
f 511 513 512
f 514 501 510
f 514 510 515
f 514 515 516
f 513 511 517
f 518 514 516
f 511 519 517
f 514 518 520
f 511 521 519
f 514 520 522
f 521 511 523
f 511 524 523
f 511 525 524
f 511 526 525
f 526 527 525
f 526 528 527
f 529 514 522
f 514 529 530
f 514 530 531
f 526 514 531
f 528 526 532
f 526 531 533
f 526 534 532
f 526 533 535
f 526 536 534
f 536 526 535
f 537 538 539
f 537 539 540
f 538 537 541
f 541 537 540
f 542 543 544
f 545 542 544
f 542 545 546
f 542 546 547
f 548 542 547
f 542 548 549
f 542 550 543
f 542 549 551
f 542 552 550
f 552 553 550
f 552 554 553
f 555 542 551
f 555 551 556
f 555 556 557
f 554 552 558
f 559 555 557
f 552 560 558
f 555 559 561
f 552 562 560
f 555 561 563
f 562 552 564
f 552 565 564
f 552 566 565
f 552 567 566
f 567 568 566
f 567 569 568
f 570 555 563
f 555 570 571
f 555 571 572
f 567 555 572
f 569 567 573
f 567 572 574
f 567 575 573
f 567 574 576
f 567 577 575
f 577 567 576
f 578 579 580
f 578 580 581
f 579 578 582
f 582 578 581
f 583 584 585
f 583 585 586
f 584 583 587
f 587 583 586
f 588 589 590
f 589 588 591
f 589 592 590
f 589 591 593
f 594 589 593
f 589 594 595
f 589 595 596
f 597 589 596
f 592 598 599
f 598 600 599
f 598 601 600
f 601 598 602
f 598 603 602
f 598 604 603
f 604 598 605
f 598 606 605
f 607 608 597
f 608 607 609
f 608 609 610
f 611 608 610
f 608 611 612
f 608 612 613
f 614 608 613
f 608 614 615
f 606 615 616
f 614 613 617
f 615 618 616
f 619 614 617
f 614 619 620
f 614 620 621
f 615 614 621
f 615 622 618
f 615 621 623
f 622 615 624
f 615 623 624
f 625 626 627
f 625 628 626
f 629 625 627
f 625 630 628
f 629 627 631
f 630 632 628
f 633 629 631
f 630 634 632
f 633 631 635
f 634 636 632
f 637 633 635
f 634 638 636
f 637 635 639
f 638 640 636
f 641 637 639
f 638 642 640
f 641 639 643
f 642 644 640
f 645 641 643
f 642 646 644
f 645 643 647
f 646 648 644
f 649 645 647
f 646 650 648
f 649 647 651
f 650 652 648
f 653 649 651
f 650 654 652
f 653 651 655
f 656 653 655
f 654 657 652
f 657 654 658
f 657 658 659
f 660 657 659
f 659 661 660
f 661 662 660
f 661 663 662
f 663 664 662
f 663 665 664
f 665 666 664
f 665 667 666
f 667 668 666
f 667 669 668
f 669 670 668
f 669 671 670
f 671 672 670
f 671 673 672
f 671 674 673
f 674 675 673
f 674 676 675
f 676 677 675
f 676 678 677
f 678 679 677
f 678 680 679
f 680 681 679
f 680 682 681
f 682 683 681
f 682 684 683
f 684 685 683
f 684 686 685
f 686 687 685
f 686 688 687
f 688 656 687
f 656 655 687
f 689 690 691
f 690 689 692
f 690 693 691
f 690 692 694
f 693 690 695
f 696 690 694
f 690 697 695
f 690 696 698
f 690 699 697
f 690 698 700
f 699 690 701
f 702 690 700
f 690 703 701
f 690 702 704
f 690 705 703
f 690 704 706
f 705 690 707
f 708 690 706
f 690 709 707
f 690 708 710
f 690 711 709
f 690 710 712
f 711 690 713
f 714 690 712
f 690 715 713
f 690 714 716
f 690 717 715
f 690 716 718
f 717 690 719
f 720 690 718
f 690 721 719
f 690 720 721
f 722 723 724
f 725 723 722
f 723 726 724
f 723 725 726
