# ROS coordinates: X forward, Y left, Z up; units are metres.
o mesh
v -0.0292943344 -0.109735474 0.09153
v -0.0302489288 -0.108780883 0.09153
v -0.0316702127 -0.11211136 0.09153
v -0.0473467745 -0.0964347944 0.09153
v -0.0354214162 -0.100186 0.09153
v -0.03917262 -0.0882606357 0.09153
v -0.02682653 -0.105358489 0.09153
v -0.0234960578 -0.1039372 0.09153
v -0.0258719381 -0.10631308 0.09153
v -0.0389958434 -0.08808386 0.0912800059
v -0.039030958 -0.08805465 0.0912800059
v -0.0389987938 -0.08808681 0.09132549
v -0.0390333235 -0.0880580842 0.09132549
v -0.0390733257 -0.0880312 0.0912800059
v -0.0390082523 -0.0880962759 0.09137203
v -0.03907498 -0.08803503 0.09132549
v -0.03912139 -0.0880159438 0.0912800059
v -0.0390409045 -0.08806911 0.09137203
v -0.03902466 -0.0881126747 0.091416806
v -0.0391222462 -0.08802003 0.09132549
v -0.03917262 -0.08801064 0.0912800059
v -0.0390802957 -0.08804731 0.09137203
v -0.03905405 -0.08808823 0.091416806
v -0.0390476175 -0.08813564 0.09145678
v -0.0391726159 -0.08801481 0.09132549
v -0.039223846 -0.0880159438 0.0912800059
v -0.039124988 -0.0880331248 0.09137203
v -0.03908951 -0.0880686045 0.091416806
v -0.03907245 -0.08811498 0.09145678
v -0.039075885 -0.0881639048 0.0914892554
v -0.03922299 -0.08802003 0.09132549
v -0.0392719135 -0.0880312 0.0912800059
v -0.03917262 -0.08802819 0.09137203
v -0.03912974 -0.08805583 0.091416806
v -0.0391024053 -0.08809841 0.09145678
v -0.0390951 -0.0881479159 0.0914892554
v -0.03910755 -0.08819557 0.09151245
v -0.0392702557 -0.08803503 0.09132549
v -0.0393142775 -0.08805464 0.0912800059
v -0.0392202474 -0.0880331248 0.09137203
v -0.03917262 -0.08805139 0.091416806
v -0.0391363949 -0.08808761 0.09145678
v -0.0391182825 -0.08813509 0.0914892554
v -0.0391204767 -0.08818481 0.09151245
v -0.03914045 -0.08822847 0.09152583
v -0.03917262 -0.0882606357 0.09153
v -0.0393119119 -0.0880580842 0.09132549
v -0.0393493958 -0.08808386 0.0912800059
v -0.03934644 -0.08808681 0.09132549
v -0.03926494 -0.08804731 0.09137203
v -0.03930433 -0.08806911 0.09137203
v -0.0393369831 -0.0880962759 0.09137203
v -0.039136067 -0.08817618 0.09151245
v -0.03917262 -0.0882606357 0.09153
v -0.0392154939 -0.08805583 0.091416806
v -0.0392911844 -0.08808822 0.091416806
v -0.03932058 -0.0881126747 0.091416806
v -0.0392557271 -0.0880686045 0.091416806
v -0.0391445868 -0.08812674 0.0914892554
v -0.03917262 -0.08808386 0.09145678
v -0.0392727852 -0.0881149843 0.09145678
v -0.039297618 -0.08813564 0.09145678
v -0.03920884 -0.08808762 0.09145678
v -0.03924283 -0.08809841 0.09145678
v -0.0391537622 -0.0881705657 0.09151245
v -0.03917262 -0.0882606357 0.09153
v -0.0391726159 -0.0881238356 0.0914892554
v -0.0392501354 -0.08814792 0.0914892554
v -0.03926935 -0.0881639048 0.0914892554
v -0.03920065 -0.08812674 0.0914892554
v -0.03917262 -0.08816861 0.09151245
v -0.03917262 -0.0882606357 0.09153
v -0.0392269529 -0.08813509 0.0914892554
v -0.039191477 -0.0881705657 0.09151245
v -0.03917262 -0.0882606357 0.09153
v -0.03920917 -0.08817618 0.09151245
v -0.03917262 -0.0882606357 0.09153
v -0.0392247625 -0.08818482 0.09151245
v -0.03917262 -0.0882606357 0.09153
v -0.03923769 -0.08819557 0.09151245
v -0.0392047837 -0.08822847 0.09152583
v -0.03917262 -0.0882606357 0.09153
v -0.0475206 -0.0962609649 0.09132549
v -0.04752355 -0.0962580144 0.09128
v -0.0475527644 -0.09629314 0.09128
v -0.047549326 -0.0962955 0.09132549
v -0.04757621 -0.0963355 0.09128
v -0.047511138 -0.09627043 0.09137203
v -0.0475723781 -0.0963371545 0.09132549
v -0.04759147 -0.0963835642 0.09128
v -0.0475383028 -0.09630308 0.09137203
v -0.0474947356 -0.09628683 0.091416806
v -0.0475873835 -0.09638442 0.09132549
v -0.047596775 -0.0964347944 0.09128
v -0.0475601 -0.0963424742 0.09137203
v -0.04751919 -0.0963162258 0.091416806
v -0.0474717729 -0.096309796 0.09145678
v -0.0475926 -0.0964347944 0.09132549
v -0.04759147 -0.0964860246 0.09128
v -0.04757429 -0.09638716 0.09137203
v -0.04753881 -0.09635168 0.091416806
v -0.04749243 -0.09633463 0.09145678
v -0.04744351 -0.09633806 0.09148925
v -0.0475873835 -0.09648517 0.09132549
v -0.04757621 -0.09653409 0.09128
v -0.04757922 -0.0964347944 0.09137203
v -0.0475515835 -0.09639192 0.091416806
v -0.0475090072 -0.09636458 0.09145678
v -0.0474594943 -0.09635728 0.09148925
v -0.0474118441 -0.09636972 0.09151245
v -0.0475723781 -0.0965324342 0.09132549
v -0.0475527644 -0.09657645 0.09128
v -0.04757429 -0.0964824259 0.09137203
v -0.04755602 -0.0964347944 0.091416806
v -0.0475198 -0.09639857 0.09145678
v -0.04747232 -0.09638046 0.09148925
v -0.0474226 -0.09638265 0.09151245
v -0.0473789424 -0.09640263 0.09152583
v -0.0473467745 -0.0964347944 0.09153
v -0.047549326 -0.09657409 0.09132549
v -0.04752355 -0.09661157 0.09128
v -0.0475206 -0.09660862 0.09132549
v -0.0475601 -0.0965271145 0.09137203
v -0.0475383028 -0.0965665057 0.09137203
v -0.047511138 -0.09659916 0.09137203
v -0.0474312268 -0.09639824 0.09151245
v -0.0473467745 -0.0964347944 0.09153
v -0.0475515835 -0.09647767 0.091416806
v -0.04751919 -0.09655336 0.091416806
v -0.0474947356 -0.0965827554 0.091416806
v -0.04753881 -0.0965179056 0.091416806
v -0.0474806726 -0.09640676 0.09148925
v -0.04752355 -0.0964347944 0.09145678
v -0.0474924333 -0.09653496 0.09145678
v -0.0474717729 -0.09655979 0.09145678
v -0.0475198 -0.09647102 0.09145678
v -0.0475090072 -0.096505 0.09145678
v -0.0474368446 -0.09641594 0.09151245
v -0.0473467745 -0.0964347944 0.09153
v -0.0474835746 -0.0964347944 0.09148925
v -0.0474594943 -0.09651231 0.09148925
v -0.04744351 -0.0965315253 0.09148925
v -0.0474806726 -0.09646283 0.09148925
v -0.0474388 -0.0964347944 0.09151245
v -0.0473467745 -0.0964347944 0.09153
v -0.0474723242 -0.09648913 0.09148925
v -0.0474368446 -0.09645365 0.09151245
v -0.0473467745 -0.0964347944 0.09153
v -0.0474312268 -0.09647135 0.09151245
v -0.0473467745 -0.0964347944 0.09153
v -0.0474226 -0.09648693 0.09151245
v -0.0473467745 -0.0964347944 0.09153
v -0.0474118441 -0.09649986 0.09151245
v -0.0473789424 -0.09646696 0.09152583
v -0.0473467745 -0.0964347944 0.09153
v -0.0233222339 -0.104111031 0.09132549
v -0.0233192835 -0.104113981 0.0912800059
v -0.0232900679 -0.104078859 0.0912800059
v -0.0232935064 -0.1040765 0.09132549
v -0.0232666228 -0.104036495 0.0912800059
v -0.0233316943 -0.104101568 0.09137203
v -0.0232704543 -0.104034841 0.09132549
v -0.023251364 -0.103988431 0.0912800059
v -0.02330453 -0.104068913 0.09137203
v -0.0233480968 -0.104085162 0.091416806
v -0.0232554488 -0.103987575 0.09132549
v -0.02324606 -0.1039372 0.0912800059
v -0.0232827328 -0.104029521 0.09137203
v -0.023323644 -0.10405577 0.091416806
v -0.02337106 -0.1040622 0.09145678
v -0.0232502334 -0.1039372 0.09132549
v -0.023251364 -0.103885971 0.0912800059
v -0.0232685432 -0.103984833 0.09137203
v -0.0233040228 -0.104020312 0.091416806
v -0.0233504 -0.104037367 0.09145678
v -0.0233993251 -0.104033932 0.0914892554
v -0.0232554488 -0.103886828 0.09132549
v -0.0232666247 -0.103837907 0.0912800059
v -0.02326361 -0.1039372 0.09137203
v -0.0232912488 -0.103980079 0.091416806
v -0.0233338233 -0.104007415 0.09145678
v -0.023383338 -0.104014717 0.0914892554
v -0.0234309882 -0.104002275 0.09151245
v -0.0232704543 -0.103839561 0.09132549
v -0.0232900679 -0.103795543 0.0912800059
v -0.0232685432 -0.10388957 0.09137203
v -0.02328681 -0.1039372 0.091416806
v -0.023323033 -0.103973426 0.09145678
v -0.02337051 -0.103991538 0.0914892554
v -0.0234202351 -0.103989348 0.09151245
v -0.0234638937 -0.103969365 0.09152583
v -0.0234960578 -0.1039372 0.09153
v -0.0232935064 -0.103797905 0.09132549
v -0.0233192816 -0.103760429 0.0912800059
v -0.0233222321 -0.103763379 0.09132549
v -0.0232827328 -0.103844881 0.09137203
v -0.02330453 -0.10380549 0.09137203
v -0.0233316943 -0.103772834 0.09137203
v -0.0234116055 -0.103973754 0.09151245
v -0.0234960578 -0.1039372 0.09153
v -0.0232912488 -0.103894323 0.091416806
v -0.023323644 -0.103818633 0.091416806
v -0.0233480968 -0.10378924 0.091416806
v -0.0233040228 -0.10385409 0.091416806
v -0.02336216 -0.103965238 0.0914892554
v -0.0233192816 -0.1039372 0.09145678
v -0.023350399 -0.103837036 0.09145678
v -0.02337106 -0.1038122 0.09145678
v -0.023323033 -0.103900976 0.09145678
v -0.0233338233 -0.103866994 0.09145678
v -0.0234059878 -0.103956059 0.09151245
v -0.0234960578 -0.1039372 0.09153
v -0.0233592577 -0.1039372 0.0914892554
v -0.023383338 -0.103859685 0.0914892554
v -0.0233993251 -0.10384047 0.0914892554
v -0.02336216 -0.103909165 0.0914892554
v -0.0234040357 -0.1039372 0.09151245
v -0.0234960578 -0.1039372 0.09153
v -0.0233705081 -0.103882864 0.0914892554
v -0.0234059878 -0.103918344 0.09151245
v -0.0234960578 -0.1039372 0.09153
v -0.0234116055 -0.103900649 0.09151245
v -0.0234960578 -0.1039372 0.09153
v -0.0234202333 -0.103885062 0.09151245
v -0.0234960578 -0.1039372 0.09153
v -0.0234309882 -0.103872135 0.09151245
v -0.0234638918 -0.103905037 0.09152583
v -0.0234960578 -0.1039372 0.09153
v -0.0318469927 -0.112288132 0.09128
v -0.0318118744 -0.112317346 0.09128
v -0.03184404 -0.112285182 0.09132549
v -0.03180951 -0.112313911 0.09132549
v -0.0317695066 -0.112340793 0.09128
v -0.03183458 -0.11227572 0.09137203
v -0.0317678526 -0.112336963 0.09132549
v -0.0317214429 -0.112356052 0.09128
v -0.0318019278 -0.112302884 0.09137203
v -0.0318181738 -0.112259321 0.091416806
v -0.0317205861 -0.112351969 0.09132549
v -0.0316702165 -0.112361357 0.09128
v -0.0317625366 -0.112324685 0.09137203
v -0.03178878 -0.112283766 0.091416806
v -0.0317952149 -0.112236358 0.09145678
v -0.0316702165 -0.112357184 0.09132549
v -0.0316189863 -0.112356052 0.09128
v -0.0317178443 -0.112338871 0.09137203
v -0.031753324 -0.112303391 0.091416806
v -0.0317703821 -0.112257019 0.09145678
v -0.0317669474 -0.112208091 0.09148925
v -0.0316198431 -0.112351969 0.09132549
v -0.03157092 -0.112340793 0.09128
v -0.0316702127 -0.1123438 0.09137203
v -0.03171309 -0.112316169 0.091416806
v -0.031740427 -0.112273589 0.09145678
v -0.0317477323 -0.11222408 0.09148925
v -0.0317352861 -0.112176426 0.09151245
v -0.0315725766 -0.112336963 0.09132549
v -0.0315285549 -0.112317353 0.09128
v -0.0316225849 -0.112338871 0.09137203
v -0.0316702127 -0.1123206 0.091416806
v -0.0317064375 -0.112284385 0.09145678
v -0.03172455 -0.1122369 0.09148925
v -0.03172236 -0.112187184 0.09151245
v -0.03170238 -0.112143524 0.09152583
v -0.0316702127 -0.11211136 0.09153
v -0.03153092 -0.112313911 0.09132549
v -0.0314934365 -0.112288132 0.09128
v -0.03149639 -0.112285182 0.09132549
v -0.0315778926 -0.112324685 0.09137203
v -0.0315385 -0.112302884 0.09137203
v -0.03150585 -0.11227572 0.09137203
v -0.0317067653 -0.112195812 0.09151245
v -0.0316702127 -0.11211136 0.09153
v -0.03162734 -0.112316169 0.091416806
v -0.0315516479 -0.112283774 0.091416806
v -0.03152225 -0.112259321 0.091416806
v -0.0315871052 -0.112303391 0.091416806
v -0.0316982456 -0.112245254 0.09148925
v -0.0316702127 -0.112288132 0.09145678
v -0.0315700471 -0.112257011 0.09145678
v -0.0315452144 -0.112236358 0.09145678
v -0.03163399 -0.112284377 0.09145678
v -0.0316000022 -0.112273589 0.09145678
v -0.03168907 -0.11220143 0.09151245
v -0.0316702127 -0.11211136 0.09153
v -0.0316702165 -0.11224816 0.09148925
v -0.0315926969 -0.112224072 0.09148925
v -0.03157348 -0.112208091 0.09148925
v -0.0316421837 -0.112245254 0.09148925
v -0.0316702127 -0.112203382 0.09151245
v -0.0316702127 -0.11211136 0.09153
v -0.03161588 -0.1122369 0.09148925
v -0.03165136 -0.11220143 0.09151245
v -0.0316702127 -0.11211136 0.09153
v -0.0316336639 -0.112195812 0.09151245
v -0.0316702127 -0.11211136 0.09153
v -0.03161807 -0.112187177 0.09151245
v -0.0316702127 -0.11211136 0.09153
v -0.0316051431 -0.112176426 0.09151245
v -0.03163805 -0.112143524 0.09152583
v -0.0316702127 -0.11211136 0.09153
v -0.0291175582 -0.109912254 0.0912800059
v -0.0314934365 -0.112288132 0.09128
v -0.0291175582 -0.109912254 0.08977516
v -0.0314934365 -0.112288132 0.08877516
v -0.0256951619 -0.10648986 0.08977516
v -0.0233192835 -0.104113981 0.0887751654
v -0.0233192835 -0.104113981 0.0912800059
v -0.0256951619 -0.10648986 0.0912800059
v -0.0317695066 -0.112340793 0.08877516
v -0.0318118744 -0.112317346 0.08877516
v -0.0318469927 -0.112288132 0.08877516
v -0.0317214429 -0.112356052 0.08877516
v -0.0316702165 -0.112361357 0.08877516
v -0.0316189863 -0.112356052 0.08877516
v -0.03157092 -0.112340793 0.08877516
v -0.0315285549 -0.112317353 0.08877516
v -0.0314934365 -0.112288132 0.08877516
v -0.0354214162 -0.100186 0.0887751654
v -0.04752355 -0.09661157 0.08877516
v -0.04752355 -0.0962580144 0.08877516
v -0.0233192835 -0.104113981 0.0887751654
v -0.0233192816 -0.103760429 0.0887751654
v -0.0232900679 -0.104078859 0.0887751654
v -0.0232666228 -0.104036495 0.0887751654
v -0.023251364 -0.103988431 0.0887751654
v -0.02324606 -0.1039372 0.0887751654
v -0.023251364 -0.103885971 0.0887751654
v -0.0232666247 -0.103837907 0.0887751654
v -0.0232900679 -0.103795543 0.0887751654
v -0.0389958434 -0.08808386 0.0887751654
v -0.0393493958 -0.08808386 0.0887751654
v -0.0475527644 -0.09629314 0.08877516
v -0.0393142775 -0.08805464 0.0887751654
v -0.04757621 -0.0963355 0.08877516
v -0.0392719135 -0.0880312 0.0887751654
v -0.04759147 -0.0963835642 0.08877516
v -0.039223846 -0.0880159438 0.0887751654
v -0.047596775 -0.0964347944 0.08877516
v -0.04759147 -0.0964860246 0.08877516
v -0.04757621 -0.09653409 0.08877516
v -0.0475527644 -0.09657645 0.08877516
v -0.03917262 -0.08801064 0.0887751654
v -0.03912139 -0.0880159438 0.0887751654
v -0.0390733257 -0.0880312 0.0887751654
v -0.039030958 -0.08805465 0.0887751654
v -0.029129969 -0.109899841 0.09137203
v -0.02912051 -0.1099093 0.09132549
v -0.0291463733 -0.109883443 0.091416806
v -0.029169336 -0.10986048 0.09145678
v -0.0291976016 -0.109832212 0.09148925
v -0.0291175582 -0.109912254 0.0912800059
v -0.0292292647 -0.109800547 0.09151245
v -0.02926217 -0.109767646 0.09152583
v -0.0292943344 -0.109735474 0.09153
v -0.0296832435 -0.109346569 0.090652585
v -0.0291175582 -0.109912254 0.08977516
v -0.0302489288 -0.108780883 0.09153
v -0.0302489288 -0.108780883 0.08977516
v -0.0257469378 -0.106438078 0.09145678
v -0.0257075727 -0.106477447 0.09137203
v -0.0257239752 -0.106461041 0.091416806
v -0.0257752053 -0.10640981 0.0914892554
v -0.0258068666 -0.106378153 0.09151245
v -0.0256981142 -0.106486909 0.09132549
v -0.0256951619 -0.10648986 0.0912800059
v -0.0258397721 -0.106345244 0.09152583
v -0.0258719381 -0.10631308 0.09153
v -0.0262608454 -0.105924174 0.090652585
v -0.02682653 -0.105358489 0.09153
v -0.0256951619 -0.10648986 0.08977516
v -0.02682653 -0.105358489 0.08977516
v -0.0285377316 -0.107069686 0.090652585
v -0.02682653 -0.105358489 0.09153
v -0.0302489288 -0.108780883 0.09153
v -0.0302489288 -0.108780883 0.08977516
v -0.02682653 -0.105358489 0.08977516
v -0.0279720463 -0.107635371 0.08977516
v -0.0302489288 -0.108780883 0.08977516
v -0.0291175582 -0.109912254 0.08977516
v -0.0256951619 -0.10648986 0.08977516
v -0.02682653 -0.105358489 0.08977516
v -0.04343647 -0.09217094 0.0900275856
v -0.0393493958 -0.08808386 0.0887751654
v -0.04752355 -0.0962580144 0.08877516
v -0.04752355 -0.0962580144 0.09128
v -0.0393493958 -0.08808386 0.0912800059
v -0.03968527 -0.104449853 0.09002758
v -0.04752355 -0.09661157 0.09128
v -0.04752355 -0.09661157 0.08877516
v -0.0318469927 -0.112288132 0.08877516
v -0.0318469927 -0.112288132 0.09128
v -0.04752355 -0.0962580144 0.08877516
v -0.0475527644 -0.09629314 0.0900275856
v -0.04752355 -0.0962580144 0.09128
v -0.0475527644 -0.09629314 0.08877516
v -0.0475527644 -0.09629314 0.09128
v -0.04757621 -0.0963355 0.08877516
v -0.04757621 -0.0963355 0.09002758
v -0.04757621 -0.0963355 0.09128
v -0.04759147 -0.0963835642 0.08877516
v -0.04759147 -0.0963835642 0.09002758
v -0.04759147 -0.0963835642 0.09128
v -0.047596775 -0.0964347944 0.08877516
v -0.047596775 -0.0964347944 0.09002758
v -0.047596775 -0.0964347944 0.09128
v -0.04759147 -0.0964860246 0.08877516
v -0.04759147 -0.0964860246 0.09002758
v -0.04759147 -0.0964860246 0.09128
v -0.04757621 -0.09653409 0.08877516
v -0.04757621 -0.09653409 0.09002758
v -0.04757621 -0.09653409 0.09128
v -0.0475527644 -0.09657645 0.08877516
v -0.0475527644 -0.09657645 0.09002758
v -0.0475527644 -0.09657645 0.09128
v -0.04752355 -0.09661157 0.08877516
v -0.04752355 -0.09661157 0.09128
v -0.0318469927 -0.112288132 0.08877516
v -0.0318118744 -0.112317346 0.09002758
v -0.0318469927 -0.112288132 0.09128
v -0.0318118744 -0.112317346 0.08877516
v -0.0318118744 -0.112317346 0.09128
v -0.0317695066 -0.112340793 0.08877516
v -0.0317695066 -0.112340793 0.09002758
v -0.0317695066 -0.112340793 0.09128
v -0.0317214429 -0.112356052 0.08877516
v -0.0317214429 -0.112356052 0.09002758
v -0.0317214429 -0.112356052 0.09128
v -0.0316702165 -0.112361357 0.08877516
v -0.0316702165 -0.112361357 0.09002758
v -0.0316702165 -0.112361357 0.09128
v -0.0316189863 -0.112356052 0.08877516
v -0.0316189863 -0.112356052 0.09002758
v -0.0316189863 -0.112356052 0.09128
v -0.03157092 -0.112340793 0.08877516
v -0.03157092 -0.112340793 0.09002758
v -0.03157092 -0.112340793 0.09128
v -0.0315285549 -0.112317353 0.08877516
v -0.0315285549 -0.112317353 0.0900275856
v -0.0315285549 -0.112317353 0.09128
v -0.0314934365 -0.112288132 0.08877516
v -0.0314934365 -0.112288132 0.09128
v -0.0311575625 -0.09592214 0.0900275856
v -0.0233192816 -0.103760429 0.0912800059
v -0.0233192816 -0.103760429 0.0887751654
v -0.0389958434 -0.08808386 0.0887751654
v -0.0389958434 -0.08808386 0.0912800059
v -0.0233192835 -0.104113981 0.0887751654
v -0.0232900679 -0.104078859 0.0900275856
v -0.0233192835 -0.104113981 0.0912800059
v -0.0232900679 -0.104078859 0.0887751654
v -0.0232900679 -0.104078859 0.0912800059
v -0.0232666228 -0.104036495 0.0887751654
v -0.0232666228 -0.104036495 0.0900275856
v -0.0232666228 -0.104036495 0.0912800059
v -0.023251364 -0.103988431 0.0887751654
v -0.023251364 -0.103988431 0.0900275856
v -0.023251364 -0.103988431 0.0912800059
v -0.02324606 -0.1039372 0.0887751654
v -0.02324606 -0.1039372 0.0900275856
v -0.02324606 -0.1039372 0.0912800059
v -0.023251364 -0.103885971 0.0887751654
v -0.023251364 -0.103885971 0.0900275856
v -0.023251364 -0.103885971 0.0912800059
v -0.0232666247 -0.103837907 0.0887751654
v -0.0232666247 -0.103837907 0.0900275856
v -0.0232666247 -0.103837907 0.0912800059
v -0.0232900679 -0.103795543 0.0887751654
v -0.0232900679 -0.103795543 0.0900275856
v -0.0232900679 -0.103795543 0.0912800059
v -0.0233192816 -0.103760429 0.0887751654
v -0.0233192816 -0.103760429 0.0912800059
v -0.0389958434 -0.08808386 0.0887751654
v -0.039030958 -0.08805465 0.0900275856
v -0.0389958434 -0.08808386 0.0912800059
v -0.039030958 -0.08805465 0.0887751654
v -0.039030958 -0.08805465 0.0912800059
v -0.0390733257 -0.0880312 0.0887751654
v -0.0390733257 -0.0880312 0.0900275856
v -0.0390733257 -0.0880312 0.0912800059
v -0.03912139 -0.0880159438 0.0887751654
v -0.03912139 -0.0880159438 0.0900275856
v -0.03912139 -0.0880159438 0.0912800059
v -0.03917262 -0.08801064 0.0887751654
v -0.03917262 -0.08801064 0.0900275856
v -0.03917262 -0.08801064 0.0912800059
v -0.039223846 -0.0880159438 0.0887751654
v -0.039223846 -0.0880159438 0.0900275856
v -0.039223846 -0.0880159438 0.0912800059
v -0.0392719135 -0.0880312 0.0887751654
v -0.0392719135 -0.0880312 0.0900275856
v -0.0392719135 -0.0880312 0.0912800059
v -0.0393142775 -0.08805464 0.0887751654
v -0.0393142775 -0.08805464 0.0900275856
v -0.0393142775 -0.08805464 0.0912800059
v -0.0393493958 -0.08808386 0.0887751654
v -0.0393493958 -0.08808386 0.0912800059
v -0.0473467745 -0.0964347944 0.09153
v -0.03954066 -0.104305245 0.09152583
v -0.0316702127 -0.11211136 0.09153
v -0.0473789424 -0.09646696 0.09152583
v -0.03170238 -0.112143524 0.09152583
v -0.0474118441 -0.09649986 0.09151245
v -0.0395735651 -0.104338147 0.09151245
v -0.0317352861 -0.112176426 0.09151245
v -0.04744351 -0.0965315253 0.09148925
v -0.0396052264 -0.104369812 0.09148925
v -0.0317669474 -0.112208091 0.09148925
v -0.0474717729 -0.09655979 0.09145678
v -0.0396334939 -0.104398072 0.09145678
v -0.0317952149 -0.112236358 0.09145678
v -0.0474947356 -0.0965827554 0.091416806
v -0.0396564566 -0.104421034 0.091416806
v -0.0318181738 -0.112259321 0.091416806
v -0.047511138 -0.09659916 0.09137203
v -0.03967286 -0.104437441 0.09137203
v -0.03183458 -0.11227572 0.09137203
v -0.0475206 -0.09660862 0.09132549
v -0.03968232 -0.1044469 0.09132549
v -0.03184404 -0.112285182 0.09132549
v -0.04752355 -0.09661157 0.09128
v -0.0318469927 -0.112288132 0.09128
v -0.0234960578 -0.1039372 0.09153
v -0.0313021727 -0.09606675 0.09152583
v -0.03917262 -0.0882606357 0.09153
v -0.0234638918 -0.103905037 0.09152583
v -0.03914045 -0.08822847 0.09152583
v -0.0234309882 -0.103872135 0.09151245
v -0.0312692672 -0.09603385 0.09151245
v -0.03910755 -0.08819557 0.09151245
v -0.0233993251 -0.10384047 0.0914892554
v -0.031237606 -0.0960021839 0.0914892554
v -0.039075885 -0.0881639048 0.0914892554
v -0.02337106 -0.1038122 0.09145678
v -0.0312093385 -0.0959739238 0.09145678
v -0.0390476175 -0.08813564 0.09145678
v -0.0233480968 -0.10378924 0.091416806
v -0.0311863776 -0.09595096 0.091416806
v -0.03902466 -0.0881126747 0.091416806
v -0.0233316943 -0.103772834 0.09137203
v -0.0311699733 -0.0959345549 0.09137203
v -0.0390082523 -0.0880962759 0.09137203
v -0.0233222321 -0.103763379 0.09132549
v -0.0311605129 -0.09592509 0.09132549
v -0.0389987938 -0.08808681 0.09132549
v -0.0233192816 -0.103760429 0.0912800059
v -0.0389958434 -0.08808386 0.0912800059
v -0.03917262 -0.0882606357 0.09153
v -0.0432918631 -0.0923155546 0.09152583
v -0.0473467745 -0.0964347944 0.09153
v -0.0392047837 -0.08822847 0.09152583
v -0.0473789424 -0.09640263 0.09152583
v -0.03923769 -0.08819557 0.09151245
v -0.04332477 -0.0922826454 0.09151245
v -0.0474118441 -0.09636972 0.09151245
v -0.03926935 -0.0881639048 0.0914892554
v -0.04335643 -0.09225098 0.09148925
v -0.04744351 -0.09633806 0.09148925
v -0.039297618 -0.08813564 0.09145678
v -0.0433846936 -0.09222272 0.09145678
v -0.0474717729 -0.096309796 0.09145678
v -0.03932058 -0.0881126747 0.091416806
v -0.0434076563 -0.09219976 0.091416806
v -0.0474947356 -0.09628683 0.091416806
v -0.0393369831 -0.0880962759 0.09137203
v -0.0434240624 -0.09218335 0.09137203
v -0.047511138 -0.09627043 0.09137203
v -0.03934644 -0.08808681 0.09132549
v -0.04343352 -0.09217389 0.09132549
v -0.0475206 -0.0962609649 0.09132549
v -0.0393493958 -0.08808386 0.0912800059
v -0.04752355 -0.0962580144 0.09128
v -0.0258719381 -0.10631308 0.09153
v -0.0246518329 -0.105157308 0.09152583
v -0.0234960578 -0.1039372 0.09153
v -0.0258397721 -0.106345244 0.09152583
v -0.0234638937 -0.103969365 0.09152583
v -0.0258068666 -0.106378153 0.09151245
v -0.0246189274 -0.10519021 0.09151245
v -0.0234309882 -0.104002275 0.09151245
v -0.0257752053 -0.10640981 0.0914892554
v -0.0245872643 -0.105221875 0.0914892554
v -0.0233993251 -0.104033932 0.0914892554
v -0.0257469378 -0.106438078 0.09145678
v -0.0245589986 -0.105250143 0.09145678
v -0.02337106 -0.1040622 0.09145678
v -0.0257239752 -0.106461041 0.091416806
v -0.024536036 -0.105273105 0.091416806
v -0.0233480968 -0.104085162 0.091416806
v -0.0257075727 -0.106477447 0.09137203
v -0.0245196335 -0.105289504 0.09137203
v -0.0233316943 -0.104101568 0.09137203
v -0.0256981142 -0.106486909 0.09132549
v -0.0245101731 -0.105298966 0.09132549
v -0.0233222339 -0.104111031 0.09132549
v -0.0256951619 -0.10648986 0.0912800059
v -0.0233192835 -0.104113981 0.0912800059
v -0.0316702127 -0.11211136 0.09153
v -0.03045011 -0.110955581 0.09152583
v -0.0292943344 -0.109735474 0.09153
v -0.03163805 -0.112143524 0.09152583
v -0.02926217 -0.109767646 0.09152583
v -0.0316051431 -0.112176426 0.09151245
v -0.0304172039 -0.11098849 0.09151245
v -0.0292292647 -0.109800547 0.09151245
v -0.03157348 -0.112208091 0.09148925
v -0.03038554 -0.111020148 0.09148925
v -0.0291976016 -0.109832212 0.09148925
v -0.0315452144 -0.112236358 0.09145678
v -0.0303572752 -0.111048415 0.09145678
v -0.029169336 -0.10986048 0.09145678
v -0.03152225 -0.112259321 0.091416806
v -0.0303343125 -0.111071378 0.091416806
v -0.0291463733 -0.109883443 0.091416806
v -0.03150585 -0.11227572 0.09137203
v -0.0303179082 -0.111087784 0.09137203
v -0.029129969 -0.109899841 0.09137203
v -0.03149639 -0.112285182 0.09132549
v -0.03030845 -0.111097246 0.09132549
v -0.02912051 -0.1099093 0.09132549
v -0.0314934365 -0.112288132 0.09128
v -0.0291175582 -0.109912254 0.0912800059
f 1 2 3
f 2 4 3
f 2 5 4
f 5 6 4
f 2 7 5
f 7 6 5
f 7 8 6
f 8 7 9
f 10 11 12
f 11 13 12
f 11 14 13
f 12 13 15
f 14 16 13
f 14 17 16
f 13 18 15
f 13 16 18
f 15 18 19
f 17 20 16
f 17 21 20
f 16 22 18
f 16 20 22
f 18 23 19
f 18 22 23
f 19 23 24
f 21 25 20
f 21 26 25
f 20 27 22
f 20 25 27
f 22 28 23
f 22 27 28
f 23 29 24
f 23 28 29
f 24 29 30
f 26 31 25
f 26 32 31
f 25 33 27
f 25 31 33
f 27 34 28
f 27 33 34
f 28 35 29
f 28 34 35
f 29 36 30
f 29 35 36
f 30 36 37
f 32 38 31
f 32 39 38
f 31 40 33
f 31 38 40
f 33 41 34
f 33 40 41
f 34 42 35
f 34 41 42
f 35 43 36
f 35 42 43
f 36 44 37
f 36 43 44
f 37 44 45
f 44 46 45
f 39 47 38
f 39 48 47
f 48 49 47
f 38 50 40
f 38 47 50
f 49 51 47
f 47 51 50
f 49 52 51
f 43 53 44
f 44 53 54
f 40 50 55
f 40 55 41
f 52 56 51
f 52 57 56
f 50 51 58
f 50 58 55
f 51 56 58
f 43 59 53
f 42 59 43
f 41 60 42
f 41 55 60
f 42 60 59
f 57 61 56
f 57 62 61
f 55 58 63
f 55 63 60
f 58 56 64
f 56 61 64
f 58 64 63
f 59 65 53
f 53 65 66
f 60 67 59
f 60 63 67
f 59 67 65
f 62 68 61
f 62 69 68
f 63 64 70
f 63 70 67
f 67 71 65
f 67 70 71
f 65 71 72
f 64 61 73
f 64 73 70
f 61 68 73
f 70 74 71
f 70 73 74
f 71 74 75
f 73 76 74
f 73 68 76
f 74 76 77
f 69 78 68
f 68 78 76
f 76 78 79
f 69 80 78
f 80 81 78
f 81 82 78
f 83 84 85
f 86 83 85
f 86 85 87
f 83 86 88
f 89 86 87
f 89 87 90
f 86 91 88
f 86 89 91
f 88 91 92
f 93 89 90
f 93 90 94
f 89 95 91
f 89 93 95
f 91 96 92
f 91 95 96
f 92 96 97
f 98 93 94
f 98 94 99
f 93 100 95
f 93 98 100
f 95 101 96
f 95 100 101
f 96 102 97
f 96 101 102
f 97 102 103
f 104 98 99
f 104 99 105
f 98 106 100
f 98 104 106
f 100 107 101
f 100 106 107
f 101 108 102
f 101 107 108
f 102 109 103
f 102 108 109
f 103 109 110
f 111 104 105
f 111 105 112
f 104 113 106
f 104 111 113
f 106 114 107
f 106 113 114
f 107 115 108
f 107 114 115
f 108 116 109
f 108 115 116
f 109 117 110
f 109 116 117
f 110 117 118
f 117 119 118
f 120 111 112
f 120 112 121
f 122 120 121
f 111 123 113
f 111 120 123
f 120 122 124
f 120 124 123
f 122 125 124
f 116 126 117
f 117 126 127
f 113 123 128
f 113 128 114
f 125 129 124
f 125 130 129
f 123 124 131
f 123 131 128
f 124 129 131
f 116 132 126
f 115 132 116
f 114 133 115
f 114 128 133
f 115 133 132
f 130 134 129
f 130 135 134
f 128 131 136
f 128 136 133
f 131 129 137
f 129 134 137
f 131 137 136
f 132 138 126
f 126 138 139
f 133 140 132
f 133 136 140
f 132 140 138
f 135 141 134
f 135 142 141
f 136 137 143
f 136 143 140
f 140 144 138
f 140 143 144
f 138 144 145
f 137 134 146
f 137 146 143
f 134 141 146
f 143 147 144
f 143 146 147
f 144 147 148
f 146 149 147
f 146 141 149
f 147 149 150
f 142 151 141
f 141 151 149
f 149 151 152
f 142 153 151
f 153 154 151
f 154 155 151
f 156 157 158
f 159 156 158
f 159 158 160
f 156 159 161
f 162 159 160
f 162 160 163
f 159 164 161
f 159 162 164
f 161 164 165
f 166 162 163
f 166 163 167
f 162 168 164
f 162 166 168
f 164 169 165
f 164 168 169
f 165 169 170
f 171 166 167
f 171 167 172
f 166 173 168
f 166 171 173
f 168 174 169
f 168 173 174
f 169 175 170
f 169 174 175
f 170 175 176
f 177 171 172
f 177 172 178
f 171 179 173
f 171 177 179
f 173 180 174
f 173 179 180
f 174 181 175
f 174 180 181
f 175 182 176
f 175 181 182
f 176 182 183
f 184 177 178
f 184 178 185
f 177 186 179
f 177 184 186
f 179 187 180
f 179 186 187
f 180 188 181
f 180 187 188
f 181 189 182
f 181 188 189
f 182 190 183
f 182 189 190
f 183 190 191
f 190 192 191
f 193 184 185
f 193 185 194
f 195 193 194
f 184 196 186
f 184 193 196
f 193 195 197
f 193 197 196
f 195 198 197
f 189 199 190
f 190 199 200
f 186 196 201
f 186 201 187
f 198 202 197
f 198 203 202
f 196 197 204
f 196 204 201
f 197 202 204
f 189 205 199
f 188 205 189
f 187 206 188
f 187 201 206
f 188 206 205
f 203 207 202
f 203 208 207
f 201 204 209
f 201 209 206
f 204 202 210
f 202 207 210
f 204 210 209
f 205 211 199
f 199 211 212
f 206 213 205
f 206 209 213
f 205 213 211
f 208 214 207
f 208 215 214
f 209 210 216
f 209 216 213
f 213 217 211
f 213 216 217
f 211 217 218
f 210 207 219
f 210 219 216
f 207 214 219
f 216 220 217
f 216 219 220
f 217 220 221
f 219 222 220
f 219 214 222
f 220 222 223
f 215 224 214
f 214 224 222
f 222 224 225
f 215 226 224
f 226 227 224
f 227 228 224
f 229 230 231
f 230 232 231
f 230 233 232
f 231 232 234
f 233 235 232
f 233 236 235
f 232 237 234
f 232 235 237
f 234 237 238
f 236 239 235
f 236 240 239
f 235 241 237
f 235 239 241
f 237 242 238
f 237 241 242
f 238 242 243
f 240 244 239
f 240 245 244
f 239 246 241
f 239 244 246
f 241 247 242
f 241 246 247
f 242 248 243
f 242 247 248
f 243 248 249
f 245 250 244
f 245 251 250
f 244 252 246
f 244 250 252
f 246 253 247
f 246 252 253
f 247 254 248
f 247 253 254
f 248 255 249
f 248 254 255
f 249 255 256
f 251 257 250
f 251 258 257
f 250 259 252
f 250 257 259
f 252 260 253
f 252 259 260
f 253 261 254
f 253 260 261
f 254 262 255
f 254 261 262
f 255 263 256
f 255 262 263
f 256 263 264
f 263 265 264
f 258 266 257
f 258 267 266
f 267 268 266
f 257 269 259
f 257 266 269
f 268 270 266
f 266 270 269
f 268 271 270
f 262 272 263
f 263 272 273
f 259 269 274
f 259 274 260
f 271 275 270
f 271 276 275
f 269 270 277
f 269 277 274
f 270 275 277
f 262 278 272
f 261 278 262
f 260 279 261
f 260 274 279
f 261 279 278
f 276 280 275
f 276 281 280
f 274 277 282
f 274 282 279
f 277 275 283
f 275 280 283
f 277 283 282
f 278 284 272
f 272 284 285
f 279 286 278
f 279 282 286
f 278 286 284
f 281 287 280
f 281 288 287
f 282 283 289
f 282 289 286
f 286 290 284
f 286 289 290
f 284 290 291
f 283 280 292
f 283 292 289
f 280 287 292
f 289 293 290
f 289 292 293
f 290 293 294
f 292 295 293
f 292 287 295
f 293 295 296
f 288 297 287
f 287 297 295
f 295 297 298
f 288 299 297
f 299 300 297
f 300 301 297
f 302 303 304
f 303 305 304
f 305 306 304
f 305 307 306
f 307 308 306
f 308 309 306
f 310 311 312
f 313 310 312
f 314 313 312
f 315 314 312
f 316 315 312
f 317 316 312
f 318 317 312
f 318 312 319
f 320 319 312
f 319 320 321
f 322 318 319
f 319 323 322
f 323 324 322
f 323 325 324
f 325 323 326
f 323 327 326
f 323 328 327
f 328 323 329
f 323 330 329
f 323 319 331
f 319 332 331
f 319 321 332
f 320 333 321
f 334 331 332
f 320 335 333
f 331 334 336
f 335 320 337
f 331 336 338
f 320 339 337
f 320 340 339
f 340 320 341
f 320 342 341
f 343 331 338
f 331 343 344
f 331 344 345
f 346 331 345
f 347 348 349
f 348 350 349
f 348 351 350
f 348 352 351
f 352 353 351
f 352 354 353
f 354 352 355
f 352 356 355
f 352 357 356
f 358 355 356
f 357 359 356
f 359 358 356
f 360 361 362
f 361 360 363
f 361 363 364
f 365 361 364
f 366 365 364
f 367 366 364
f 367 368 366
f 368 369 366
f 368 370 369
f 371 366 369
f 370 372 369
f 372 371 369
f 373 374 375
f 373 375 376
f 374 373 377
f 377 373 376
f 378 379 380
f 378 380 381
f 379 378 382
f 382 378 381
f 383 384 385
f 383 385 386
f 384 383 387
f 387 383 386
f 388 389 390
f 388 390 391
f 389 388 392
f 392 388 391
f 393 394 395
f 394 393 396
f 394 397 395
f 394 396 398
f 394 399 397
f 399 394 398
f 399 400 397
f 399 398 401
f 399 402 400
f 402 399 401
f 402 403 400
f 402 401 404
f 402 405 403
f 405 402 404
f 405 406 403
f 405 404 407
f 405 408 406
f 408 405 407
f 408 409 406
f 408 407 410
f 408 411 409
f 411 408 410
f 411 412 409
f 411 410 413
f 411 414 412
f 414 411 413
f 414 415 412
f 414 413 416
f 415 414 417
f 414 416 417
f 418 419 420
f 419 418 421
f 419 422 420
f 419 421 423
f 419 424 422
f 424 419 423
f 424 425 422
f 424 423 426
f 424 427 425
f 427 424 426
f 427 428 425
f 427 426 429
f 427 430 428
f 430 427 429
f 430 431 428
f 430 429 432
f 430 433 431
f 433 430 432
f 433 434 431
f 433 432 435
f 433 436 434
f 436 433 435
f 436 437 434
f 436 435 438
f 436 439 437
f 439 436 438
f 439 440 437
f 439 438 441
f 440 439 442
f 439 441 442
f 443 444 445
f 443 445 446
f 444 443 447
f 447 443 446
f 448 449 450
f 449 448 451
f 449 452 450
f 449 451 453
f 449 454 452
f 454 449 453
f 454 455 452
f 454 453 456
f 454 457 455
f 457 454 456
f 457 458 455
f 457 456 459
f 457 460 458
f 460 457 459
f 460 461 458
f 460 459 462
f 460 463 461
f 463 460 462
f 463 464 461
f 463 462 465
f 463 466 464
f 466 463 465
f 466 467 464
f 466 465 468
f 466 469 467
f 469 466 468
f 469 470 467
f 469 468 471
f 470 469 472
f 469 471 472
f 473 474 475
f 474 473 476
f 474 477 475
f 474 476 478
f 474 479 477
f 479 474 478
f 479 480 477
f 479 478 481
f 479 482 480
f 482 479 481
f 482 483 480
f 482 481 484
f 482 485 483
f 485 482 484
f 485 486 483
f 485 484 487
f 485 488 486
f 488 485 487
f 488 489 486
f 488 487 490
f 488 491 489
f 491 488 490
f 491 492 489
f 491 490 493
f 491 494 492
f 494 491 493
f 494 495 492
f 494 493 496
f 495 494 497
f 494 496 497
f 498 499 500
f 499 498 501
f 499 502 500
f 499 501 503
f 499 504 502
f 504 499 503
f 504 505 502
f 504 503 506
f 504 507 505
f 507 504 506
f 507 508 505
f 507 506 509
f 507 510 508
f 510 507 509
f 510 511 508
f 510 509 512
f 510 513 511
f 513 510 512
f 513 514 511
f 513 512 515
f 513 516 514
f 516 513 515
f 516 517 514
f 516 515 518
f 516 519 517
f 519 516 518
f 519 520 517
f 519 518 521
f 519 522 520
f 522 519 521
f 523 524 525
f 524 523 526
f 524 527 525
f 524 526 528
f 524 529 527
f 529 524 528
f 529 530 527
f 529 528 531
f 529 532 530
f 532 529 531
f 532 533 530
f 532 531 534
f 532 535 533
f 535 532 534
f 535 536 533
f 535 534 537
f 535 538 536
f 538 535 537
f 538 539 536
f 538 537 540
f 538 541 539
f 541 538 540
f 541 542 539
f 541 540 543
f 541 544 542
f 544 541 543
f 544 545 542
f 544 543 546
f 544 547 545
f 547 544 546
f 548 549 550
f 549 548 551
f 549 552 550
f 549 551 553
f 549 554 552
f 554 549 553
f 554 555 552
f 554 553 556
f 554 557 555
f 557 554 556
f 557 558 555
f 557 556 559
f 557 560 558
f 560 557 559
f 560 561 558
f 560 559 562
f 560 563 561
f 563 560 562
f 563 564 561
f 563 562 565
f 563 566 564
f 566 563 565
f 566 567 564
f 566 565 568
f 566 569 567
f 569 566 568
f 569 570 567
f 569 568 571
f 569 572 570
f 572 569 571
f 573 574 575
f 574 573 576
f 574 577 575
f 574 576 578
f 574 579 577
f 579 574 578
f 579 580 577
f 579 578 581
f 579 582 580
f 582 579 581
f 582 583 580
f 582 581 584
f 582 585 583
f 585 582 584
f 585 586 583
f 585 584 587
f 585 588 586
f 588 585 587
f 588 589 586
f 588 587 590
f 588 591 589
f 591 588 590
f 591 592 589
f 591 590 593
f 591 594 592
f 594 591 593
f 594 595 592
f 594 593 596
f 594 597 595
f 597 594 596
f 598 599 600
f 599 598 601
f 599 602 600
f 599 601 603
f 599 604 602
f 604 599 603
f 604 605 602
f 604 603 606
f 604 607 605
f 607 604 606
f 607 608 605
f 607 606 609
f 607 610 608
f 610 607 609
f 610 611 608
f 610 609 612
f 610 613 611
f 613 610 612
f 613 614 611
f 613 612 615
f 613 616 614
f 616 613 615
f 616 617 614
f 616 615 618
f 616 619 617
f 619 616 618
f 619 620 617
f 619 618 621
f 619 622 620
f 622 619 621
