# ROS coordinates: X forward, Y left, Z up; units are metres.
o mesh
v -0.0486063436 -0.09319396 -0.00135070458
v -0.0529044941 -0.0885553 -0.00290990528
v -0.04829036 -0.09353498 -0.00263144542
v -0.0524960421 -0.0889961049 -0.00465573836
v -0.04791048 -0.09394496 -0.003899158
v -0.0519979671 -0.08953364 -0.00638644677
v -0.04746645 -0.0944241658 -0.00514386874
v -0.0514096171 -0.09016861 -0.008087658
v -0.0469589531 -0.09497187 -0.00635535363
v -0.0507317036 -0.09090023 -0.009744546
v -0.04638965 -0.09558628 -0.007523368
v -0.0499664471 -0.09172611 -0.0113421967
v -0.0457612164 -0.0962645 -0.008637923
v -0.0491175577 -0.09264225 -0.0128660193
v -0.04525514 -0.09681067 -0.0113769295
v -0.0481902361 -0.09364304 -0.01430215
v -0.0450773053 -0.0970025957 -0.009689535
v -0.0471910536 -0.0947213843 -0.0156378448
v -0.0443424881 -0.09779563 -0.0106694745
v -0.0435621552 -0.09863778 -0.0115700243
v -0.0461278372 -0.09586883 -0.0168618411
v -0.0427423865 -0.0995225 -0.0123846708
v -0.04500944 -0.0970758349 -0.01796471
v -0.0418897942 -0.10044264 -0.0131082544
v -0.04384551 -0.09833198 -0.0189390481
v -0.04101135 -0.101390675 -0.01373708
v -0.04264621 -0.0996262953 -0.0197796561
v -0.0401141942 -0.102358907 -0.0142689431
v -0.0414219461 -0.100947551 -0.02048361
v -0.0392054766 -0.10333962 -0.0147031611
v -0.0401830748 -0.102284573 -0.0210502185
v -0.03829216 -0.104325294 -0.0150404694
v -0.0389396548 -0.103626505 -0.0214809254
v -0.0373808779 -0.105308771 -0.0152829206
v -0.0377012044 -0.104963064 -0.0217790939
v -0.0412711725 -0.08639726 -0.00135070458
v -0.0409551859 -0.08673828 -0.00263144542
v -0.0455693156 -0.08175859 -0.00290990528
v -0.0451608673 -0.0821994 -0.00465573836
v -0.0405753031 -0.08714826 -0.003899158
v -0.044662796 -0.08273693 -0.00638644677
v -0.04013128 -0.08762746 -0.00514386874
v -0.04407444 -0.0833719 -0.008087658
v -0.0396237746 -0.08817516 -0.00635535363
v -0.0433965325 -0.08410352 -0.009744546
v -0.0390544757 -0.0887895748 -0.007523368
v -0.04263127 -0.08492941 -0.0113421967
v -0.03842604 -0.08946779 -0.008637923
v -0.0417823866 -0.0858455449 -0.0128660193
v -0.03791996 -0.090013966 -0.0113769295
v -0.03774213 -0.0902058855 -0.009689535
v -0.04085506 -0.08684634 -0.01430215
v -0.0370073169 -0.09099892 -0.0106694745
v -0.0398558825 -0.0879246742 -0.0156378448
v -0.03622698 -0.09184108 -0.0115700243
v -0.0387926623 -0.08907212 -0.0168618411
v -0.03540721 -0.09272579 -0.0123846708
v -0.0376742668 -0.09027913 -0.01796471
v -0.0345546156 -0.09364593 -0.0131082544
v -0.0365103334 -0.09153527 -0.0189390481
v -0.0336761735 -0.09459397 -0.01373708
v -0.0353110358 -0.0928295851 -0.0197796561
v -0.03277902 -0.0955622047 -0.0142689431
v -0.03408677 -0.09415084 -0.02048361
v -0.0318703 -0.09654291 -0.0147031611
v -0.0328479 -0.09548786 -0.0210502185
v -0.0309569836 -0.0975285843 -0.0150404694
v -0.0316044763 -0.0968297943 -0.0214809254
v -0.0300457031 -0.09851206 -0.0152829206
v -0.03036603 -0.09816636 -0.0217790939
v -0.0486063436 -0.09319396 -0.00135070458
v -0.04462277 -0.09013663 -0.00263144542
v -0.0412711725 -0.08639726 -0.00135070458
v -0.04829036 -0.09353498 -0.00263144542
v -0.0409551859 -0.08673828 -0.00263144542
v -0.04791048 -0.09394496 -0.003899158
v -0.0442428924 -0.09054661 -0.003899158
v -0.0405753031 -0.08714826 -0.003899158
v -0.04746645 -0.0944241658 -0.00514386874
v -0.0437988639 -0.0910258144 -0.00514386874
v -0.04013128 -0.08762746 -0.00514386874
v -0.0469589531 -0.09497187 -0.00635535363
v -0.0432913639 -0.09157352 -0.00635535363
v -0.0396237746 -0.08817516 -0.00635535363
v -0.04638965 -0.09558628 -0.007523368
v -0.04272206 -0.0921879262 -0.007523368
v -0.0390544757 -0.0887895748 -0.007523368
v -0.0457612164 -0.0962645 -0.008637923
v -0.04209363 -0.0928661451 -0.008637923
v -0.03842604 -0.08946779 -0.008637923
v -0.0450773053 -0.0970025957 -0.009689535
v -0.041409716 -0.0936042443 -0.009689535
v -0.03774213 -0.0902058855 -0.009689535
v -0.0443424881 -0.09779563 -0.0106694745
v -0.0406749025 -0.09439728 -0.0106694745
v -0.0370073169 -0.09099892 -0.0106694745
v -0.0435621552 -0.09863778 -0.0115700243
v -0.0398945659 -0.09523943 -0.0115700243
v -0.03622698 -0.09184108 -0.0115700243
v -0.0427423865 -0.0995225 -0.0123846708
v -0.0390748 -0.09612414 -0.0123846708
v -0.03540721 -0.09272579 -0.0123846708
v -0.0418897942 -0.10044264 -0.0131082544
v -0.0382222049 -0.09704428 -0.0131082544
v -0.0345546156 -0.09364593 -0.0131082544
v -0.04101135 -0.101390675 -0.01373708
v -0.03734376 -0.09799232 -0.01373708
v -0.0336761735 -0.09459397 -0.01373708
v -0.0401141942 -0.102358907 -0.0142689431
v -0.03644661 -0.0989605561 -0.0142689431
v -0.03277902 -0.0955622047 -0.0142689431
v -0.0392054766 -0.10333962 -0.0147031611
v -0.03553789 -0.09994127 -0.0147031611
v -0.0318703 -0.09654291 -0.0147031611
v -0.03829216 -0.104325294 -0.0150404694
v -0.03462457 -0.100926943 -0.0150404694
v -0.0309569836 -0.0975285843 -0.0150404694
v -0.0373808779 -0.105308771 -0.0152829206
v -0.0300457031 -0.09851206 -0.0152829206
v -0.0470878333 -0.0874762759 -0.00213030726
v -0.0455693156 -0.08175859 -0.00290990528
v -0.0529044941 -0.0885553 -0.00290990528
v -0.0486063436 -0.09319396 -0.00135070458
v -0.0412711725 -0.08639726 -0.00135070458
v -0.0377012044 -0.104963064 -0.0217790939
v -0.0352720656 -0.100228146 -0.0214809254
v -0.03036603 -0.09816636 -0.0217790939
v -0.0389396548 -0.103626505 -0.0214809254
v -0.0316044763 -0.0968297943 -0.0214809254
v -0.0401830748 -0.102284573 -0.0210502185
v -0.0365154855 -0.0988862142 -0.0210502185
v -0.0328479 -0.09548786 -0.0210502185
v -0.0414219461 -0.100947551 -0.02048361
v -0.0377543569 -0.09754919 -0.02048361
v -0.03408677 -0.09415084 -0.02048361
v -0.04264621 -0.0996262953 -0.0197796561
v -0.03897862 -0.09622794 -0.0197796561
v -0.0353110358 -0.0928295851 -0.0197796561
v -0.04384551 -0.09833198 -0.0189390481
v -0.0401779227 -0.09493363 -0.0189390481
v -0.0365103334 -0.09153527 -0.0189390481
v -0.04500944 -0.0970758349 -0.01796471
v -0.0413418561 -0.09367748 -0.01796471
v -0.0376742668 -0.09027913 -0.01796471
v -0.0461278372 -0.09586883 -0.0168618411
v -0.0424602479 -0.09247048 -0.0168618411
v -0.0387926623 -0.08907212 -0.0168618411
v -0.0471910536 -0.0947213843 -0.0156378448
v -0.0435234681 -0.09132303 -0.0156378448
v -0.0398558825 -0.0879246742 -0.0156378448
v -0.0481902361 -0.09364304 -0.01430215
v -0.04452265 -0.09024469 -0.01430215
v -0.04085506 -0.08684634 -0.01430215
v -0.0491175577 -0.09264225 -0.0128660193
v -0.0454499722 -0.0892439 -0.0128660193
v -0.0417823866 -0.0858455449 -0.0128660193
v -0.0499664471 -0.09172611 -0.0113421967
v -0.0462988578 -0.08832776 -0.0113421967
v -0.04263127 -0.08492941 -0.0113421967
v -0.0507317036 -0.09090023 -0.009744546
v -0.0470641181 -0.08750187 -0.009744546
v -0.0433965325 -0.08410352 -0.009744546
v -0.0514096171 -0.09016861 -0.008087658
v -0.0477420278 -0.08677025 -0.008087658
v -0.04407444 -0.0833719 -0.008087658
v -0.0519979671 -0.08953364 -0.00638644677
v -0.04833038 -0.08613528 -0.00638644677
v -0.044662796 -0.08273693 -0.00638644677
v -0.0524960421 -0.0889961049 -0.00465573836
v -0.0488284528 -0.08559775 -0.00465573836
v -0.0451608673 -0.0821994 -0.00465573836
v -0.0529044941 -0.0885553 -0.00290990528
v -0.0455693156 -0.08175859 -0.00290990528
v -0.03036603 -0.09816636 -0.0217790939
v -0.0338734537 -0.101737566 -0.0185310058
v -0.0377012044 -0.104963064 -0.0217790939
v -0.0300457031 -0.09851206 -0.0152829206
v -0.0373808779 -0.105308771 -0.0152829206
f 1 2 3
f 2 4 3
f 4 5 3
f 4 6 5
f 6 7 5
f 6 8 7
f 8 9 7
f 8 10 9
f 10 11 9
f 10 12 11
f 12 13 11
f 12 14 13
f 14 15 13
f 14 16 15
f 13 15 17
f 16 18 15
f 15 19 17
f 15 20 19
f 18 21 15
f 21 20 15
f 21 22 20
f 21 23 22
f 23 24 22
f 23 25 24
f 25 26 24
f 25 27 26
f 27 28 26
f 27 29 28
f 29 30 28
f 29 31 30
f 31 32 30
f 31 33 32
f 33 34 32
f 33 35 34
f 36 37 38
f 37 39 38
f 37 40 39
f 40 41 39
f 40 42 41
f 42 43 41
f 42 44 43
f 44 45 43
f 44 46 45
f 46 47 45
f 46 48 47
f 48 49 47
f 48 50 49
f 50 48 51
f 50 52 49
f 53 50 51
f 50 54 52
f 50 53 55
f 54 50 56
f 50 55 56
f 55 57 56
f 57 58 56
f 57 59 58
f 59 60 58
f 59 61 60
f 61 62 60
f 61 63 62
f 63 64 62
f 63 65 64
f 65 66 64
f 65 67 66
f 67 68 66
f 67 69 68
f 69 70 68
f 71 72 73
f 72 71 74
f 72 75 73
f 72 74 76
f 72 77 75
f 77 72 76
f 77 78 75
f 77 76 79
f 77 80 78
f 80 77 79
f 80 81 78
f 80 79 82
f 80 83 81
f 83 80 82
f 83 84 81
f 83 82 85
f 83 86 84
f 86 83 85
f 86 87 84
f 86 85 88
f 86 89 87
f 89 86 88
f 89 90 87
f 89 88 91
f 89 92 90
f 92 89 91
f 92 93 90
f 92 91 94
f 92 95 93
f 95 92 94
f 95 96 93
f 95 94 97
f 95 98 96
f 98 95 97
f 98 99 96
f 98 97 100
f 98 101 99
f 101 98 100
f 101 102 99
f 101 100 103
f 101 104 102
f 104 101 103
f 104 105 102
f 104 103 106
f 104 107 105
f 107 104 106
f 107 108 105
f 107 106 109
f 107 110 108
f 110 107 109
f 110 111 108
f 110 109 112
f 110 113 111
f 113 110 112
f 113 114 111
f 113 112 115
f 113 116 114
f 116 113 115
f 116 117 114
f 116 115 118
f 116 119 117
f 119 116 118
f 120 121 122
f 120 122 123
f 121 120 124
f 124 120 123
f 125 126 127
f 126 125 128
f 126 129 127
f 126 128 130
f 126 131 129
f 131 126 130
f 131 132 129
f 131 130 133
f 131 134 132
f 134 131 133
f 134 135 132
f 134 133 136
f 134 137 135
f 137 134 136
f 137 138 135
f 137 136 139
f 137 140 138
f 140 137 139
f 140 141 138
f 140 139 142
f 140 143 141
f 143 140 142
f 143 144 141
f 143 142 145
f 143 146 144
f 146 143 145
f 146 147 144
f 146 145 148
f 146 149 147
f 149 146 148
f 149 150 147
f 149 148 151
f 149 152 150
f 152 149 151
f 152 153 150
f 152 151 154
f 152 155 153
f 155 152 154
f 155 156 153
f 155 154 157
f 155 158 156
f 158 155 157
f 158 159 156
f 158 157 160
f 158 161 159
f 161 158 160
f 161 162 159
f 161 160 163
f 161 164 162
f 164 161 163
f 164 165 162
f 164 163 166
f 164 167 165
f 167 164 166
f 167 168 165
f 167 166 169
f 167 170 168
f 170 167 169
f 170 171 168
f 170 169 172
f 170 173 171
f 173 170 172
f 174 175 176
f 177 175 174
f 175 178 176
f 175 177 178
