# ROS coordinates: X forward, Y left, Z up; units are metres.
o mesh
v -0.0301605444 0.102724507 0.0576
v -0.0301605444 0.102724507 0.06048
v -0.03028836 0.102607705 0.06048
v -0.030307835 0.102591664 0.0590399951
v -0.03028836 0.102607705 0.0576
v -0.0304309539 0.102499545 0.06048
v -0.0304309539 0.102499545 0.0576
v -0.0304743238 0.102470577 0.0590399951
v -0.0305876266 0.102402508 0.06048
v -0.0305876266 0.102402508 0.0576
v -0.0306588 0.102364935 0.0590399951
v -0.030757159 0.102319032 0.06048
v -0.0307571571 0.102319032 0.0576
v -0.0308591537 0.102278307 0.0590399951
v -0.0309377927 0.102251388 0.06048
v -0.0309377946 0.102251388 0.0576
v -0.0310723856 0.10221386 0.0590399951
v -0.031127274 0.102201529 0.06048
v -0.031127274 0.102201529 0.0576
v -0.0312947 0.102174118 0.0590399951
v -0.03132292 0.102170981 0.06048
v -0.0315217264 0.102160685 0.0590399951
v -0.03132292 0.102170981 0.0576
v -0.0315217264 0.102160685 0.06048
v -0.0315217264 0.102160685 0.0576
v -0.031720534 0.102170981 0.06048
v -0.031720534 0.102170981 0.0576
v -0.0317487456 0.102174118 0.0590399951
v -0.031916175 0.102201529 0.06048
v -0.03191617 0.102201529 0.0576
v -0.0319710672 0.10221386 0.0590399951
v -0.0321056545 0.102251388 0.06048
v -0.03210566 0.102251388 0.0576
v -0.0321843 0.102278307 0.0590399951
v -0.03228629 0.102319032 0.06048
v -0.03228629 0.102319032 0.0576
v -0.0323846526 0.102364935 0.0590399951
v -0.0324558243 0.102402508 0.06048
v -0.0324558243 0.102402508 0.0576
v -0.03256913 0.102470577 0.0590399951
v -0.0326124951 0.102499545 0.06048
v -0.0326125 0.102499545 0.0576
v -0.0327356122 0.102591664 0.0590399951
v -0.03275509 0.102607705 0.06048
v -0.0328829065 0.102724507 0.0590399951
v -0.03275509 0.102607705 0.0576
v -0.0328829065 0.102724507 0.06048
v -0.0328829065 0.102724507 0.0576
v -0.03299971 0.102852315 0.06048
v -0.03299971 0.102852315 0.0576
v -0.0330157466 0.1028718 0.0590399951
v -0.0331078656 0.102994911 0.06048
v -0.0331078656 0.102994911 0.0576
v -0.0331368335 0.103038281 0.0590399951
v -0.0332049057 0.10315159 0.06048
v -0.0332049057 0.10315159 0.0576
v -0.0332177132 0.103175052 0.0590399951
v -0.03328838 0.10332112 0.06048
v -0.03328838 0.10332112 0.0576
v -0.03328838 0.10332112 0.0590399951
v -0.0333474055 0.103475347 0.0590399951
v -0.0333560221 0.103501752 0.06048
v -0.0333560221 0.103501752 0.0576
v -0.0333935469 0.103636339 0.0590399951
v -0.0334058776 0.103691235 0.06048
v -0.0334058776 0.103691235 0.0576
v -0.03342578 0.103802465 0.0590399951
v -0.0334364325 0.10388688 0.06048
v -0.0334364325 0.10388688 0.0576
v -0.0334433578 0.103971876 0.0590399951
v -0.0334467255 0.104085684 0.06048
v -0.0334467255 0.104085684 0.0576
v -0.0334458835 0.104142629 0.0590399951
v -0.0334364325 0.104284495 0.06048
v -0.0334364325 0.104284495 0.0576
v -0.0334332921 0.10431271 0.0590399951
v -0.0334058776 0.104480132 0.06048
v -0.0334058776 0.104480132 0.0576
v -0.0334058776 0.104480132 0.0590399951
v -0.0333642736 0.104643032 0.0590399951
v -0.0333560221 0.104669616 0.06048
v -0.0333560221 0.104669616 0.0576
v -0.033309415 0.104799688 0.0590399951
v -0.033288382 0.104850255 0.06048
v -0.033288382 0.104850255 0.0576
v -0.0332424752 0.10494861 0.0590399951
v -0.0332049057 0.105019778 0.06048
v -0.0332049057 0.105019778 0.0576
v -0.0331648365 0.105088584 0.0590399951
v -0.0331078656 0.105176456 0.06048
v -0.0331078656 0.105176456 0.0576
v -0.0330779925 0.105218671 0.0590399951
v -0.03299971 0.105319053 0.06048
v -0.03299971 0.105319053 0.0576
v -0.03298349 0.105338223 0.0590399951
v -0.0328829065 0.105446868 0.06048
v -0.0328829065 0.105446868 0.0576
v -0.03275509 0.10556367 0.06048
v -0.032735616 0.105579704 0.0590399951
v -0.03275509 0.10556367 0.0576
v -0.0326124951 0.105671823 0.06048
v -0.0326124951 0.105671823 0.0576
v -0.0325691253 0.105700791 0.0590399951
v -0.0324558243 0.105768859 0.06048
v -0.0324558243 0.105768859 0.0576
v -0.03238465 0.10580644 0.0590399951
v -0.0322862938 0.105852336 0.06048
v -0.0322862938 0.105852336 0.0576
v -0.0321842954 0.105893068 0.0590399951
v -0.0321056545 0.10591998 0.06048
v -0.0321056545 0.10591998 0.0576
v -0.0319710672 0.105957508 0.0590399951
v -0.031916175 0.105969839 0.06048
v -0.031916175 0.105969839 0.0576
v -0.03174875 0.105997249 0.0590399951
v -0.031720534 0.106000394 0.06048
v -0.0315217227 0.106010683 0.0590399951
v -0.031720534 0.106000394 0.0576
v -0.0315217227 0.106010683 0.06048
v -0.0315217227 0.106010683 0.0576
v -0.03132292 0.106000394 0.06048
v -0.03132292 0.106000394 0.0576
v -0.0312947035 0.105997249 0.0590399951
v -0.0311272759 0.105969839 0.06048
v -0.0311272778 0.105969839 0.0576
v -0.0310723837 0.105957508 0.0590399951
v -0.0309377927 0.10591998 0.06048
v -0.03093779 0.10591998 0.0576
v -0.03085915 0.105893068 0.0590399951
v -0.030757159 0.105852336 0.06048
v -0.030757159 0.105852336 0.0576
v -0.0306587983 0.10580644 0.0590399951
v -0.0305876285 0.105768859 0.06048
v -0.0305876285 0.105768859 0.0576
v -0.0304743219 0.105700791 0.0590399951
v -0.0304309521 0.105671823 0.06048
v -0.03043095 0.105671823 0.0576
v -0.0303078368 0.105579704 0.0590399951
v -0.03028836 0.10556367 0.06048
v -0.0301605444 0.105446868 0.0590399951
v -0.0302883573 0.10556367 0.0576
v -0.0301605444 0.105446868 0.06048
v -0.0301605426 0.105446868 0.0576
v -0.0300437417 0.105319053 0.06048
v -0.03004374 0.105319053 0.0576
v -0.0300277025 0.105299577 0.0590399951
v -0.0299355835 0.105176456 0.06048
v -0.0299355835 0.105176456 0.0576
v -0.0299066175 0.105133086 0.0590399951
v -0.0298385471 0.105019785 0.06048
v -0.0298385471 0.105019785 0.0576
v -0.0298257358 0.104996316 0.0590399951
v -0.02975507 0.104850255 0.06048
v -0.02975507 0.104850255 0.0576
v -0.02975507 0.104850255 0.0590399951
v -0.0296960436 0.10469602 0.0590399951
v -0.029687427 0.104669616 0.06048
v -0.029687427 0.104669616 0.0576
v -0.029649904 0.104535028 0.0590399951
v -0.0296375714 0.104480132 0.06048
v -0.0296375714 0.104480132 0.0576
v -0.0296176728 0.10436891 0.0590399951
v -0.0296070185 0.104284495 0.06048
v -0.0296070185 0.104284495 0.0576
v -0.0296000913 0.104199491 0.0590399951
v -0.0295967255 0.104085684 0.06048
v -0.0295967255 0.104085684 0.0576
v -0.0295975655 0.104028746 0.0590399951
v -0.0296070185 0.10388688 0.06048
v -0.0296070185 0.10388688 0.0576
v -0.029610157 0.103858665 0.0590399951
v -0.0296375714 0.103691235 0.06048
v -0.0296375714 0.103691235 0.0576
v -0.0296375714 0.103691235 0.0590399951
v -0.0296791736 0.103528336 0.0590399951
v -0.029687427 0.103501752 0.06048
v -0.0296874288 0.103501752 0.0576
v -0.029734036 0.103371687 0.0590399951
v -0.0297550727 0.10332112 0.06048
v -0.02975507 0.10332112 0.0576
v -0.0298009738 0.103222758 0.0590399951
v -0.0298385452 0.10315159 0.06048
v -0.0298385452 0.10315159 0.0576
v -0.0298786126 0.103082784 0.0590399951
v -0.0299355835 0.102994911 0.06048
v -0.0299355835 0.102994911 0.0576
v -0.02996546 0.1029527 0.0590399951
v -0.0300437417 0.102852315 0.06048
v -0.0300437417 0.102852315 0.0576
v -0.030059956 0.102833144 0.0590399951
v -0.0301605444 0.102724507 0.06048
v -0.0301605444 0.102724507 0.0576
v -0.030949425 0.103253476 0.0576
v -0.0308075473 0.103371508 0.06048
v -0.0308075454 0.103371508 0.0576
v -0.030972179 0.103238277 0.0590399951
v -0.030949425 0.103253476 0.06048
v -0.0310689714 0.103182852 0.0590399951
v -0.0311205778 0.103158765 0.0576
v -0.031120576 0.103158765 0.06048
v -0.03117409 0.1031374 0.05904
v -0.0313147679 0.103097118 0.0576
v -0.0313147679 0.103097118 0.06048
v -0.0312859677 0.103103586 0.0590399951
v -0.03140261 0.103082731 0.0590399951
v -0.0315217227 0.103075683 0.0576
v -0.0315217227 0.103075683 0.06048
v -0.0315217227 0.103075683 0.0590399951
v -0.0316408351 0.103082731 0.0590399951
v -0.0317286849 0.103097118 0.0576
v -0.0317286849 0.103097118 0.06048
v -0.0317574851 0.103103586 0.0590399951
v -0.03186936 0.1031374 0.0590399951
v -0.0319228731 0.103158765 0.0576
v -0.0319228768 0.103158765 0.06048
v -0.03197448 0.103182852 0.0590399951
v -0.0320940278 0.103253476 0.0576
v -0.0320940241 0.103253476 0.06048
v -0.03207127 0.103238277 0.0590399951
v -0.0322359 0.103371508 0.0590399951
v -0.0322359 0.103371508 0.0576
v -0.0322359 0.103371508 0.06048
v -0.0323539339 0.103513382 0.0576
v -0.0323539376 0.103513382 0.06048
v -0.03236913 0.103536136 0.0590399951
v -0.0324486457 0.103684537 0.0576
v -0.0324486457 0.103684537 0.06048
v -0.0324486457 0.103684537 0.0590399951
v -0.0325038247 0.103849925 0.0590399951
v -0.0325102955 0.103878729 0.0576
v -0.0325102955 0.103878729 0.06048
v -0.0325299576 0.104025975 0.0590399951
v -0.0325317234 0.104085684 0.0576
v -0.0325317234 0.104085684 0.06048
v -0.0325246751 0.104204796 0.0590399951
v -0.0325102955 0.104292646 0.0576
v -0.0325102955 0.104292646 0.06048
v -0.0324884653 0.104378112 0.0590399951
v -0.032448642 0.104486831 0.0576
v -0.032448642 0.104486831 0.06048
v -0.03242456 0.104538441 0.0590399951
v -0.0323539339 0.104657985 0.0576
v -0.0323539339 0.104657985 0.06048
v -0.0323382579 0.104680136 0.0590399951
v -0.0322359055 0.104799867 0.0576
v -0.0322359055 0.104799867 0.06048
v -0.0320940241 0.104917891 0.0576
v -0.03207127 0.104933091 0.0590399951
v -0.0320940241 0.104917891 0.06048
v -0.03197448 0.104988523 0.0590399951
v -0.0319228731 0.1050126 0.0576
v -0.0319228731 0.1050126 0.06048
v -0.03186936 0.105033971 0.05903999
v -0.0317286849 0.105074257 0.0576
v -0.0317286849 0.105074257 0.06048
v -0.03175748 0.105067782 0.0590399951
v -0.03164084 0.105088636 0.0590399951
v -0.0315217227 0.105095685 0.0576
v -0.0315217227 0.105095685 0.06048
v -0.0315217227 0.105095685 0.0590399951
v -0.03140261 0.105088636 0.0590399951
v -0.0313147679 0.105074257 0.0576
v -0.0313147679 0.105074257 0.06048
v -0.031285964 0.105067782 0.0590399951
v -0.0311740879 0.105033971 0.0590399951
v -0.031120576 0.1050126 0.0576
v -0.031120576 0.1050126 0.06048
v -0.03106897 0.104988523 0.0590399951
v -0.0309494231 0.104917891 0.0576
v -0.030949425 0.104917891 0.06048
v -0.030972179 0.104933091 0.0590399951
v -0.0308075473 0.104799859 0.0590399951
v -0.0308075473 0.104799859 0.0576
v -0.0308075473 0.104799859 0.06048
v -0.030689517 0.104657985 0.0576
v -0.0306895152 0.104657985 0.06048
v -0.03067432 0.104635231 0.0590399951
v -0.0305948034 0.104486831 0.0576
v -0.0305948053 0.104486831 0.06048
v -0.0305948034 0.104486831 0.0590399951
v -0.0305396263 0.104321443 0.0590399951
v -0.0305331554 0.104292646 0.0576
v -0.0305331554 0.104292646 0.06048
v -0.0305134933 0.1041454 0.0590399951
v -0.0305117238 0.104085684 0.0576
v -0.0305117238 0.104085684 0.06048
v -0.0305187739 0.103966571 0.0590399951
v -0.0305331554 0.103878729 0.0576
v -0.0305331554 0.103878729 0.06048
v -0.0305549856 0.103793256 0.0590399951
v -0.0305948071 0.103684537 0.0576
v -0.0305948053 0.103684537 0.06048
v -0.0306188911 0.103632927 0.0590399951
v -0.030689517 0.103513382 0.0576
v -0.030689517 0.103513382 0.06048
v -0.0307051912 0.103491232 0.0590399951
v -0.0308075454 0.103371508 0.0576
v -0.0308075473 0.103371508 0.06048
v -0.0323539339 0.104657985 0.06048
v -0.0331078656 0.105176456 0.06048
v -0.0332049057 0.105019778 0.06048
v -0.03299971 0.105319053 0.06048
v -0.032448642 0.104486831 0.06048
v -0.033288382 0.104850255 0.06048
v -0.0333560221 0.104669616 0.06048
v -0.0322359055 0.104799867 0.06048
v -0.0328829065 0.105446868 0.06048
v -0.03275509 0.10556367 0.06048
v -0.0325102955 0.104292646 0.06048
v -0.0334058776 0.104480132 0.06048
v -0.0334364325 0.104284495 0.06048
v -0.0320940241 0.104917891 0.06048
v -0.0326124951 0.105671823 0.06048
v -0.0324558243 0.105768859 0.06048
v -0.0325317234 0.104085684 0.06048
v -0.0334467255 0.104085684 0.06048
v -0.0334364325 0.10388688 0.06048
v -0.0319228731 0.1050126 0.06048
v -0.0322862938 0.105852336 0.06048
v -0.0321056545 0.10591998 0.06048
v -0.0325102955 0.103878729 0.06048
v -0.0334058776 0.103691235 0.06048
v -0.0333560221 0.103501752 0.06048
v -0.0317286849 0.105074257 0.06048
v -0.031916175 0.105969839 0.06048
v -0.031720534 0.106000394 0.06048
v -0.0324486457 0.103684537 0.06048
v -0.03328838 0.10332112 0.06048
v -0.0332049057 0.10315159 0.06048
v -0.0315217227 0.105095685 0.06048
v -0.0315217227 0.106010683 0.06048
v -0.03132292 0.106000394 0.06048
v -0.0323539376 0.103513382 0.06048
v -0.0331078656 0.102994911 0.06048
v -0.03299971 0.102852315 0.06048
v -0.0313147679 0.105074257 0.06048
v -0.0311272759 0.105969839 0.06048
v -0.0309377927 0.10591998 0.06048
v -0.0322359 0.103371508 0.06048
v -0.0328829065 0.102724507 0.06048
v -0.03275509 0.102607705 0.06048
v -0.031120576 0.1050126 0.06048
v -0.030757159 0.105852336 0.06048
v -0.0305876285 0.105768859 0.06048
v -0.0320940241 0.103253476 0.06048
v -0.0326124951 0.102499545 0.06048
v -0.0324558243 0.102402508 0.06048
v -0.030949425 0.104917891 0.06048
v -0.0304309521 0.105671823 0.06048
v -0.03028836 0.10556367 0.06048
v -0.0319228768 0.103158765 0.06048
v -0.03228629 0.102319032 0.06048
v -0.0321056545 0.102251388 0.06048
v -0.0308075473 0.104799859 0.06048
v -0.0301605444 0.105446868 0.06048
v -0.0300437417 0.105319053 0.06048
v -0.0317286849 0.103097118 0.06048
v -0.031916175 0.102201529 0.06048
v -0.031720534 0.102170981 0.06048
v -0.0306895152 0.104657985 0.06048
v -0.0299355835 0.105176456 0.06048
v -0.0298385471 0.105019785 0.06048
v -0.0315217227 0.103075683 0.06048
v -0.0315217264 0.102160685 0.06048
v -0.03132292 0.102170981 0.06048
v -0.0305948053 0.104486831 0.06048
v -0.02975507 0.104850255 0.06048
v -0.029687427 0.104669616 0.06048
v -0.0313147679 0.103097118 0.06048
v -0.031127274 0.102201529 0.06048
v -0.0309377927 0.102251388 0.06048
v -0.0305331554 0.104292646 0.06048
v -0.0296375714 0.104480132 0.06048
v -0.0296070185 0.104284495 0.06048
v -0.031120576 0.103158765 0.06048
v -0.030757159 0.102319032 0.06048
v -0.0305876266 0.102402508 0.06048
v -0.0305117238 0.104085684 0.06048
v -0.0295967255 0.104085684 0.06048
v -0.0296070185 0.10388688 0.06048
v -0.030949425 0.103253476 0.06048
v -0.0304309539 0.102499545 0.06048
v -0.03028836 0.102607705 0.06048
v -0.0305331554 0.103878729 0.06048
v -0.0296375714 0.103691235 0.06048
v -0.029687427 0.103501752 0.06048
v -0.0308075473 0.103371508 0.06048
v -0.0301605444 0.102724507 0.06048
v -0.0300437417 0.102852315 0.06048
v -0.0305948053 0.103684537 0.06048
v -0.0297550727 0.10332112 0.06048
v -0.0298385452 0.10315159 0.06048
v -0.030689517 0.103513382 0.06048
v -0.0299355835 0.102994911 0.06048
v -0.030949425 0.103253476 0.0576
v -0.0304309539 0.102499545 0.0576
v -0.0305876266 0.102402508 0.0576
v -0.03028836 0.102607705 0.0576
v -0.0311205778 0.103158765 0.0576
v -0.0307571571 0.102319032 0.0576
v -0.0309377946 0.102251388 0.0576
v -0.0308075454 0.103371508 0.0576
v -0.0301605444 0.102724507 0.0576
v -0.0300437417 0.102852315 0.0576
v -0.0313147679 0.103097118 0.0576
v -0.031127274 0.102201529 0.0576
v -0.03132292 0.102170981 0.0576
v -0.030689517 0.103513382 0.0576
v -0.0299355835 0.102994911 0.0576
v -0.0298385452 0.10315159 0.0576
v -0.0315217227 0.103075683 0.0576
v -0.0315217264 0.102160685 0.0576
v -0.031720534 0.102170981 0.0576
v -0.0305948071 0.103684537 0.0576
v -0.02975507 0.10332112 0.0576
v -0.0296874288 0.103501752 0.0576
v -0.0317286849 0.103097118 0.0576
v -0.03191617 0.102201529 0.0576
v -0.03210566 0.102251388 0.0576
v -0.0305331554 0.103878729 0.0576
v -0.0296375714 0.103691235 0.0576
v -0.0296070185 0.10388688 0.0576
v -0.0319228731 0.103158765 0.0576
v -0.03228629 0.102319032 0.0576
v -0.0324558243 0.102402508 0.0576
v -0.0305117238 0.104085684 0.0576
v -0.0295967255 0.104085684 0.0576
v -0.0296070185 0.104284495 0.0576
v -0.0320940278 0.103253476 0.0576
v -0.0326125 0.102499545 0.0576
v -0.03275509 0.102607705 0.0576
v -0.0305331554 0.104292646 0.0576
v -0.0296375714 0.104480132 0.0576
v -0.029687427 0.104669616 0.0576
v -0.0322359 0.103371508 0.0576
v -0.0328829065 0.102724507 0.0576
v -0.03299971 0.102852315 0.0576
v -0.0305948034 0.104486831 0.0576
v -0.02975507 0.104850255 0.0576
v -0.0298385471 0.105019785 0.0576
v -0.0323539339 0.103513382 0.0576
v -0.0331078656 0.102994911 0.0576
v -0.0332049057 0.10315159 0.0576
v -0.030689517 0.104657985 0.0576
v -0.0299355835 0.105176456 0.0576
v -0.03004374 0.105319053 0.0576
v -0.0324486457 0.103684537 0.0576
v -0.03328838 0.10332112 0.0576
v -0.0333560221 0.103501752 0.0576
v -0.0308075473 0.104799859 0.0576
v -0.0301605426 0.105446868 0.0576
v -0.0302883573 0.10556367 0.0576
v -0.0325102955 0.103878729 0.0576
v -0.0334058776 0.103691235 0.0576
v -0.0334364325 0.10388688 0.0576
v -0.0309494231 0.104917891 0.0576
v -0.03043095 0.105671823 0.0576
v -0.0305876285 0.105768859 0.0576
v -0.0325317234 0.104085684 0.0576
v -0.0334467255 0.104085684 0.0576
v -0.0334364325 0.104284495 0.0576
v -0.031120576 0.1050126 0.0576
v -0.030757159 0.105852336 0.0576
v -0.03093779 0.10591998 0.0576
v -0.0325102955 0.104292646 0.0576
v -0.0334058776 0.104480132 0.0576
v -0.0333560221 0.104669616 0.0576
v -0.0313147679 0.105074257 0.0576
v -0.0311272778 0.105969839 0.0576
v -0.03132292 0.106000394 0.0576
v -0.032448642 0.104486831 0.0576
v -0.033288382 0.104850255 0.0576
v -0.0332049057 0.105019778 0.0576
v -0.0315217227 0.105095685 0.0576
v -0.0315217227 0.106010683 0.0576
v -0.031720534 0.106000394 0.0576
v -0.0323539339 0.104657985 0.0576
v -0.0331078656 0.105176456 0.0576
v -0.03299971 0.105319053 0.0576
v -0.0317286849 0.105074257 0.0576
v -0.031916175 0.105969839 0.0576
v -0.0321056545 0.10591998 0.0576
v -0.0322359055 0.104799867 0.0576
v -0.0328829065 0.105446868 0.0576
v -0.03275509 0.10556367 0.0576
v -0.0319228731 0.1050126 0.0576
v -0.0322862938 0.105852336 0.0576
v -0.0324558243 0.105768859 0.0576
v -0.0320940241 0.104917891 0.0576
v -0.0326124951 0.105671823 0.0576
f 1 2 3
f 4 1 3
f 1 4 5
f 4 3 6
f 4 7 5
f 8 4 6
f 4 8 7
f 8 6 9
f 8 10 7
f 11 8 9
f 8 11 10
f 11 9 12
f 11 13 10
f 14 11 12
f 11 14 13
f 14 12 15
f 14 16 13
f 17 14 15
f 14 17 16
f 17 15 18
f 17 19 16
f 20 17 18
f 17 20 19
f 20 18 21
f 22 20 21
f 20 23 19
f 20 22 23
f 22 21 24
f 22 25 23
f 22 24 26
f 22 27 25
f 28 22 26
f 22 28 27
f 28 26 29
f 28 30 27
f 31 28 29
f 28 31 30
f 31 29 32
f 31 33 30
f 34 31 32
f 31 34 33
f 34 32 35
f 34 36 33
f 37 34 35
f 34 37 36
f 37 35 38
f 37 39 36
f 40 37 38
f 37 40 39
f 40 38 41
f 40 42 39
f 43 40 41
f 40 43 42
f 43 41 44
f 45 43 44
f 43 46 42
f 43 45 46
f 45 44 47
f 45 48 46
f 45 47 49
f 45 50 48
f 51 45 49
f 45 51 50
f 51 49 52
f 51 53 50
f 54 51 52
f 51 54 53
f 54 52 55
f 54 56 53
f 57 54 55
f 54 57 56
f 57 55 58
f 57 59 56
f 57 58 60
f 59 57 60
f 61 60 58
f 59 60 61
f 62 61 58
f 63 59 61
f 64 61 62
f 63 61 64
f 65 64 62
f 66 63 64
f 67 64 65
f 66 64 67
f 68 67 65
f 69 66 67
f 70 67 68
f 69 67 70
f 71 70 68
f 72 69 70
f 73 70 71
f 72 70 73
f 74 73 71
f 75 72 73
f 76 73 74
f 75 73 76
f 77 76 74
f 78 75 76
f 79 76 77
f 79 78 76
f 80 79 77
f 79 80 78
f 80 77 81
f 80 82 78
f 83 80 81
f 80 83 82
f 83 81 84
f 83 85 82
f 86 83 84
f 83 86 85
f 86 84 87
f 86 88 85
f 89 86 87
f 86 89 88
f 89 87 90
f 89 91 88
f 92 89 90
f 89 92 91
f 92 90 93
f 92 94 91
f 95 92 93
f 92 95 94
f 95 93 96
f 94 95 97
f 95 96 97
f 96 98 97
f 98 99 97
f 97 99 100
f 98 101 99
f 99 102 100
f 101 103 99
f 99 103 102
f 101 104 103
f 103 105 102
f 104 106 103
f 103 106 105
f 104 107 106
f 106 108 105
f 107 109 106
f 106 109 108
f 107 110 109
f 109 111 108
f 110 112 109
f 109 112 111
f 110 113 112
f 112 114 111
f 113 115 112
f 112 115 114
f 113 116 115
f 116 117 115
f 115 118 114
f 115 117 118
f 116 119 117
f 117 120 118
f 119 121 117
f 117 122 120
f 121 123 117
f 117 123 122
f 121 124 123
f 123 125 122
f 124 126 123
f 123 126 125
f 124 127 126
f 126 128 125
f 127 129 126
f 126 129 128
f 127 130 129
f 129 131 128
f 130 132 129
f 129 132 131
f 130 133 132
f 132 134 131
f 133 135 132
f 132 135 134
f 133 136 135
f 135 137 134
f 136 138 135
f 135 138 137
f 136 139 138
f 139 140 138
f 138 141 137
f 138 140 141
f 139 142 140
f 140 143 141
f 142 144 140
f 140 145 143
f 144 146 140
f 140 146 145
f 144 147 146
f 146 148 145
f 147 149 146
f 146 149 148
f 147 150 149
f 149 151 148
f 150 152 149
f 149 152 151
f 150 153 152
f 152 154 151
f 153 155 152
f 152 155 154
f 153 156 155
f 156 154 155
f 156 153 157
f 156 158 154
f 159 156 157
f 156 159 158
f 159 157 160
f 159 161 158
f 162 159 160
f 159 162 161
f 162 160 163
f 162 164 161
f 165 162 163
f 162 165 164
f 165 163 166
f 165 167 164
f 168 165 166
f 165 168 167
f 168 166 169
f 168 170 167
f 171 168 169
f 168 171 170
f 171 169 172
f 171 173 170
f 174 171 172
f 171 174 173
f 174 172 175
f 174 175 173
f 172 176 175
f 177 173 175
f 176 178 175
f 177 175 178
f 176 179 178
f 180 177 178
f 179 181 178
f 180 178 181
f 179 182 181
f 183 180 181
f 182 184 181
f 183 181 184
f 182 185 184
f 186 183 184
f 185 187 184
f 186 184 187
f 185 188 187
f 189 186 187
f 188 190 187
f 189 187 190
f 188 191 190
f 192 189 190
f 191 192 190
f 193 194 195
f 196 194 193
f 196 197 194
f 198 196 193
f 196 198 197
f 198 193 199
f 198 200 197
f 201 198 199
f 198 201 200
f 199 202 201
f 201 203 200
f 202 204 201
f 201 204 203
f 202 205 204
f 205 203 204
f 205 202 206
f 205 207 203
f 205 206 208
f 207 205 208
f 209 208 206
f 207 208 209
f 210 209 206
f 211 207 209
f 212 209 210
f 212 211 209
f 213 212 210
f 212 213 211
f 213 210 214
f 213 215 211
f 216 213 214
f 213 216 215
f 216 214 217
f 216 218 215
f 216 217 219
f 218 216 219
f 220 219 217
f 218 219 220
f 220 217 221
f 222 218 220
f 223 220 221
f 224 222 220
f 225 220 223
f 224 220 225
f 226 225 223
f 227 224 225
f 228 225 226
f 228 227 225
f 229 228 226
f 228 229 227
f 229 226 230
f 229 231 227
f 232 229 230
f 229 232 231
f 232 230 233
f 232 234 231
f 235 232 233
f 232 235 234
f 235 233 236
f 235 237 234
f 238 235 236
f 235 238 237
f 238 236 239
f 238 240 237
f 241 238 239
f 238 241 240
f 241 239 242
f 241 243 240
f 244 241 242
f 241 244 243
f 244 242 245
f 243 244 246
f 244 245 246
f 245 247 246
f 247 248 246
f 246 248 249
f 247 250 248
f 250 249 248
f 250 247 251
f 250 252 249
f 253 250 251
f 250 253 252
f 253 251 254
f 253 255 252
f 256 253 254
f 253 256 255
f 256 254 257
f 256 257 255
f 254 258 257
f 255 257 259
f 258 260 257
f 257 260 259
f 258 261 260
f 261 259 260
f 261 258 262
f 261 263 259
f 261 262 264
f 263 261 264
f 265 264 262
f 263 264 265
f 265 262 266
f 267 263 265
f 268 265 266
f 265 268 267
f 268 266 269
f 268 270 267
f 271 268 269
f 268 271 270
f 271 269 272
f 271 272 270
f 269 273 272
f 270 272 274
f 273 275 272
f 272 276 274
f 275 277 272
f 272 277 276
f 275 278 277
f 277 279 276
f 278 280 277
f 277 280 279
f 278 281 280
f 281 279 280
f 282 281 278
f 281 283 279
f 284 281 282
f 281 284 283
f 285 284 282
f 284 286 283
f 287 284 285
f 284 287 286
f 288 287 285
f 287 289 286
f 290 287 288
f 287 290 289
f 291 290 288
f 290 292 289
f 293 290 291
f 290 293 292
f 294 293 291
f 293 295 292
f 296 293 294
f 293 296 295
f 297 296 294
f 296 298 295
f 296 297 298
f 299 300 301
f 299 302 300
f 303 299 301
f 303 301 304
f 303 304 305
f 299 306 302
f 302 306 307
f 306 308 307
f 309 303 305
f 309 305 310
f 309 310 311
f 306 312 308
f 312 313 308
f 312 314 313
f 315 309 311
f 315 311 316
f 315 316 317
f 312 318 314
f 318 319 314
f 318 320 319
f 321 315 317
f 321 317 322
f 321 322 323
f 318 324 320
f 324 325 320
f 324 326 325
f 327 321 323
f 327 323 328
f 327 328 329
f 324 330 326
f 330 331 326
f 330 332 331
f 333 327 329
f 333 329 334
f 333 334 335
f 330 336 332
f 336 337 332
f 336 338 337
f 339 333 335
f 339 335 340
f 339 340 341
f 336 342 338
f 342 343 338
f 342 344 343
f 345 339 341
f 345 341 346
f 345 346 347
f 342 348 344
f 348 349 344
f 348 350 349
f 351 345 347
f 351 347 352
f 351 352 353
f 348 354 350
f 354 355 350
f 354 356 355
f 357 351 353
f 357 353 358
f 357 358 359
f 354 360 356
f 360 361 356
f 360 362 361
f 363 357 359
f 363 359 364
f 363 364 365
f 360 366 362
f 366 367 362
f 366 368 367
f 369 363 365
f 369 365 370
f 369 370 371
f 366 372 368
f 372 373 368
f 372 374 373
f 375 369 371
f 375 371 376
f 375 376 377
f 372 378 374
f 378 379 374
f 378 380 379
f 381 375 377
f 381 377 382
f 381 382 383
f 378 384 380
f 384 385 380
f 384 386 385
f 387 381 383
f 387 383 388
f 387 388 389
f 384 390 386
f 390 391 386
f 390 392 391
f 393 387 389
f 390 393 392
f 393 389 394
f 393 394 392
f 395 396 397
f 395 398 396
f 399 395 397
f 399 397 400
f 399 400 401
f 395 402 398
f 398 402 403
f 402 404 403
f 405 399 401
f 405 401 406
f 405 406 407
f 402 408 404
f 408 409 404
f 408 410 409
f 411 405 407
f 411 407 412
f 411 412 413
f 408 414 410
f 414 415 410
f 414 416 415
f 417 411 413
f 417 413 418
f 417 418 419
f 414 420 416
f 420 421 416
f 420 422 421
f 423 417 419
f 423 419 424
f 423 424 425
f 420 426 422
f 426 427 422
f 426 428 427
f 429 423 425
f 429 425 430
f 429 430 431
f 426 432 428
f 432 433 428
f 432 434 433
f 435 429 431
f 435 431 436
f 435 436 437
f 432 438 434
f 438 439 434
f 438 440 439
f 441 435 437
f 441 437 442
f 441 442 443
f 438 444 440
f 444 445 440
f 444 446 445
f 447 441 443
f 447 443 448
f 447 448 449
f 444 450 446
f 450 451 446
f 450 452 451
f 453 447 449
f 453 449 454
f 453 454 455
f 450 456 452
f 456 457 452
f 456 458 457
f 459 453 455
f 459 455 460
f 459 460 461
f 456 462 458
f 462 463 458
f 462 464 463
f 465 459 461
f 465 461 466
f 465 466 467
f 462 468 464
f 468 469 464
f 468 470 469
f 471 465 467
f 471 467 472
f 471 472 473
f 468 474 470
f 474 475 470
f 474 476 475
f 477 471 473
f 477 473 478
f 477 478 479
f 474 480 476
f 480 481 476
f 480 482 481
f 483 477 479
f 483 479 484
f 483 484 485
f 480 486 482
f 486 487 482
f 486 488 487
f 489 483 485
f 486 489 488
f 489 485 490
f 489 490 488
