# ROS coordinates: X forward, Y left, Z up; units are metres.
o mesh
v -0.0640900061 -0.0365155973 0.122984216
v -0.0640900061 -0.0364634134 0.12296658
v -0.0640900061 -0.0365690663 0.122990005
v -0.0640900061 -0.03695 0.122990005
v -0.0640900061 -0.0364163555 0.12293794
v -0.0640900061 -0.03695 0.12284
v -0.0640900061 -0.0363775566 0.1229007
v -0.0640900061 -0.0365690663 0.12284
v -0.0640900061 -0.03654768 0.122837692
v -0.0640900061 -0.0365268029 0.122830637
v -0.0640900061 -0.03628947 0.122795723
v -0.0640900061 -0.0365079828 0.122819178
v -0.0640900061 -0.0364924632 0.122804284
v -0.0640900061 -0.03627395 0.12278083
v -0.0640900061 -0.03625513 0.122769371
v -0.0640900061 -0.03640438 0.122699305
v -0.0640900061 -0.0362342522 0.122762315
v -0.0640900061 -0.0362128653 0.122760005
v -0.0640900061 -0.0363655761 0.122662067
v -0.0640900061 -0.0341494754 0.122760005
v -0.0640900061 -0.0341494754 0.12261
v -0.0640900061 -0.03370674 0.122750342
v -0.0640900061 -0.0362128653 0.12261
v -0.0640900061 -0.0363185219 0.122633427
v -0.0640900061 -0.0362663344 0.122615784
v -0.0640900061 -0.03371328 0.122600488
v -0.0640900061 -0.0332648456 0.122721381
v -0.0640900061 -0.0332779177 0.122571953
v -0.0640900061 -0.02986011 0.1224235
v -0.0640900061 -0.0298731811 0.122274071
v -0.0640900061 -0.029609479 0.122373052
v -0.0640900061 -0.0293761939 0.122268476
v -0.0640900061 -0.0296552442 0.1222302
v -0.0640900061 -0.0293447971 0.122254528
v -0.0640900061 -0.0293100961 0.122248024
v -0.0640900061 -0.02906102 0.122216329
v -0.0640900061 -0.0292748362 0.122249804
v -0.0640900061 -0.0292418525 0.122259408
v -0.0640900061 -0.0291123837 0.122163586
v -0.0640900061 -0.0294523872 0.122139268
v -0.0640900061 -0.0291730762 0.122125849
v -0.0640900061 -0.0293869376 0.122110553
v -0.0640900061 -0.029240977 0.122103542
v -0.0640900061 -0.0293143913 0.122098029
v -0.0640900061 -0.0290240459 0.122279994
v -0.0640900061 -0.02921192 0.122276269
v -0.0640900061 -0.02918598 0.122300215
v -0.0640900061 -0.0291663557 0.122329563
v -0.0640900061 -0.0290040411 0.122348607
v -0.0640900061 -0.029154364 0.122361757
v -0.0637500063 -0.0364634134 0.12296658
v -0.0637500063 -0.0365155973 0.122984216
v -0.0637500063 -0.0365690663 0.122990005
v -0.0637500063 -0.03695 0.122990005
v -0.0637500063 -0.0364163555 0.12293794
v -0.0637500063 -0.03695 0.12284
v -0.0637500063 -0.0363775566 0.1229007
v -0.0637500063 -0.0365690663 0.12284
v -0.0637500063 -0.03654768 0.122837692
v -0.0637500063 -0.0365268029 0.122830637
v -0.0637500063 -0.03628947 0.122795723
v -0.0637500063 -0.0365079828 0.122819178
v -0.0637500063 -0.0364924632 0.122804284
v -0.0637500063 -0.03627395 0.12278083
v -0.0637500063 -0.03625513 0.122769371
v -0.0637500063 -0.03640438 0.122699305
v -0.0637500063 -0.0362342522 0.122762315
v -0.0637500063 -0.0362128653 0.122760005
v -0.0637500063 -0.0363655761 0.122662067
v -0.0637500063 -0.0341494754 0.122760005
v -0.0637500063 -0.0341494754 0.12261
v -0.0637500063 -0.03370674 0.122750342
v -0.0637500063 -0.0362128653 0.12261
v -0.0637500063 -0.0363185219 0.122633427
v -0.0637500063 -0.0362663344 0.122615784
v -0.0637500063 -0.03371328 0.122600488
v -0.0637500063 -0.0332648456 0.122721381
v -0.0637500063 -0.0332779177 0.122571953
v -0.0637500063 -0.02986011 0.1224235
v -0.0637500063 -0.0298731811 0.122274071
v -0.0637500063 -0.029609479 0.122373052
v -0.0637500063 -0.0293761939 0.122268476
v -0.0637500063 -0.0296552442 0.1222302
v -0.0637500063 -0.0293447971 0.122254528
v -0.0637500063 -0.0293100961 0.122248024
v -0.0637500063 -0.02906102 0.122216329
v -0.0637500063 -0.0292748362 0.122249804
v -0.0637500063 -0.0292418525 0.122259408
v -0.0637500063 -0.0291123837 0.122163586
v -0.0637500063 -0.0294523872 0.122139268
v -0.0637500063 -0.0291730762 0.122125849
v -0.0637500063 -0.0293869376 0.122110553
v -0.0637500063 -0.029240977 0.122103542
v -0.0637500063 -0.0293143913 0.122098029
v -0.0637500063 -0.0290240459 0.122279994
v -0.0637500063 -0.02921192 0.122276261
v -0.0637500063 -0.02918598 0.122300215
v -0.0637500063 -0.0291663557 0.122329563
v -0.0637500063 -0.0290040411 0.122348607
v -0.0637500063 -0.029154364 0.122361757
v -0.0639200062 -0.036759533 0.12284
v -0.0637500063 -0.03695 0.12284
v -0.0640900061 -0.03695 0.12284
v -0.0640900061 -0.0365690663 0.12284
v -0.0637500063 -0.0365690663 0.12284
v -0.0639200062 -0.0365079828 0.122819178
v -0.0637500063 -0.0365079828 0.122819178
v -0.0637500063 -0.0365268029 0.122830637
v -0.0637500063 -0.0364924632 0.122804284
v -0.0640900061 -0.0364924632 0.122804284
v -0.0640900061 -0.0365079828 0.122819178
v -0.0639200062 -0.0365268029 0.122830637
v -0.0637500063 -0.03654768 0.122837692
v -0.0640900061 -0.0365268029 0.122830637
v -0.0639200062 -0.03654768 0.122837692
v -0.0637500063 -0.0365690663 0.12284
v -0.0640900061 -0.03654768 0.122837692
v -0.0640900061 -0.0365690663 0.12284
v -0.0639200062 -0.03157555 0.122423008
v -0.0637500063 -0.0332779177 0.122571953
v -0.0640900061 -0.0332779177 0.122571953
v -0.0640900061 -0.0298731811 0.122274071
v -0.0637500063 -0.0298731811 0.122274071
v -0.0639200062 -0.0296552442 0.1222302
v -0.0637500063 -0.0296552442 0.1222302
v -0.0637500063 -0.0298731811 0.122274071
v -0.0640900061 -0.0298731811 0.122274071
v -0.0637500063 -0.0294523872 0.122139268
v -0.0640900061 -0.0296552442 0.1222302
v -0.0640900061 -0.0294523872 0.122139268
v -0.0637500063 -0.0294523872 0.122139268
v -0.0640900061 -0.0294523872 0.122139268
v -0.0639200062 -0.02941617 0.122121088
v -0.0637500063 -0.0293869376 0.122110553
v -0.0640900061 -0.0293869376 0.122110553
v -0.0639200062 -0.0293768756 0.1221077
v -0.0639200062 -0.0293354988 0.122099787
v -0.0637500063 -0.0293143913 0.122098029
v -0.0640900061 -0.0293143913 0.122098029
v -0.0639200062 -0.02929321 0.12209776
v -0.0637500063 -0.029240977 0.122103542
v -0.0640900061 -0.029240977 0.122103542
v -0.0639200062 -0.0292512625 0.122101665
v -0.0639200062 -0.02921087 0.122111224
v -0.0637500063 -0.0291730762 0.122125849
v -0.0640900061 -0.0291730762 0.122125849
v -0.0639200062 -0.0291730762 0.122125849
v -0.0639200062 -0.0291376 0.122145437
v -0.0637500063 -0.0291123837 0.122163586
v -0.0640900061 -0.0291123837 0.122163586
v -0.0639200062 -0.0290888883 0.12218453
v -0.0637500063 -0.02906102 0.122216329
v -0.0640900061 -0.02906102 0.122216329
v -0.0639200062 -0.02904882 0.122233644
v -0.0637500063 -0.0290240459 0.122279994
v -0.0640900061 -0.0290240459 0.122279994
v -0.0639200062 -0.0290201269 0.122289643
v -0.0637500063 -0.0290040411 0.122348607
v -0.0640900061 -0.0290040411 0.122348607
v -0.0639200062 -0.0290792026 0.122355185
v -0.0637500063 -0.0290040411 0.122348607
v -0.0640900061 -0.0290040411 0.122348607
v -0.0640900061 -0.029154364 0.122361757
v -0.0637500063 -0.029154364 0.122361757
v -0.0640900061 -0.029154364 0.122361757
v -0.0639200062 -0.0291602537 0.122343175
v -0.0637500063 -0.029154364 0.122361757
v -0.0640900061 -0.0291663557 0.122329563
v -0.0637500063 -0.0291663557 0.122329563
v -0.0639200062 -0.02916871 0.122325137
v -0.0639200062 -0.0291796476 0.12230815
v -0.0640900061 -0.02918598 0.122300215
v -0.0637500063 -0.02918598 0.122300215
v -0.0639200062 -0.0291928351 0.122292727
v -0.0640900061 -0.02921192 0.122276269
v -0.0637500063 -0.02921192 0.122276261
v -0.0639200062 -0.0292079076 0.122279279
v -0.0639200062 -0.0292244144 0.122268118
v -0.0640900061 -0.0292418525 0.122259408
v -0.0637500063 -0.0292418525 0.122259408
v -0.0639200062 -0.02926027 0.122253038
v -0.0640900061 -0.0292748362 0.122249804
v -0.0637500063 -0.0292748362 0.122249804
v -0.0639200062 -0.0292898268 0.122248024
v -0.0640900061 -0.0293100961 0.122248024
v -0.0637500063 -0.0293100961 0.122248024
v -0.0639200062 -0.0293201953 0.122249044
v -0.0640900061 -0.0293447971 0.122254528
v -0.0637500063 -0.0293447971 0.122254528
v -0.0639200062 -0.0293495432 0.1222561
v -0.0640900061 -0.0293761939 0.122268476
v -0.0637500063 -0.0293761939 0.122268476
v -0.0639200062 -0.029609479 0.122373052
v -0.0637500063 -0.029609479 0.122373052
v -0.0637500063 -0.0293761939 0.122268476
v -0.0640900061 -0.0293761939 0.122268476
v -0.0637500063 -0.02986011 0.1224235
v -0.0640900061 -0.029609479 0.122373052
v -0.0640900061 -0.02986011 0.1224235
v -0.0639200062 -0.0315624774 0.122572444
v -0.0637500063 -0.02986011 0.1224235
v -0.0640900061 -0.02986011 0.1224235
v -0.0640900061 -0.0332648456 0.122721381
v -0.0637500063 -0.0332648456 0.122721381
v -0.0639200062 -0.03370674 0.122750342
v -0.0637500063 -0.03370674 0.122750342
v -0.0637500063 -0.0332648456 0.122721381
v -0.0640900061 -0.0332648456 0.122721381
v -0.0637500063 -0.0341494754 0.122760005
v -0.0640900061 -0.03370674 0.122750342
v -0.0640900061 -0.0341494754 0.122760005
v -0.0639200062 -0.0351811722 0.122760005
v -0.0637500063 -0.0341494754 0.122760005
v -0.0640900061 -0.0341494754 0.122760005
v -0.0640900061 -0.0362128653 0.122760005
v -0.0637500063 -0.0362128653 0.122760005
v -0.0639200062 -0.03627395 0.12278083
v -0.0637500063 -0.03627395 0.12278083
v -0.0637500063 -0.03625513 0.122769371
v -0.0637500063 -0.03628947 0.122795723
v -0.0640900061 -0.03628947 0.122795723
v -0.0640900061 -0.03627395 0.12278083
v -0.0639200062 -0.03625513 0.122769371
v -0.0637500063 -0.0362342522 0.122762315
v -0.0640900061 -0.03625513 0.122769371
v -0.0639200062 -0.0362342522 0.122762315
v -0.0637500063 -0.0362128653 0.122760005
v -0.0640900061 -0.0362342522 0.122762315
v -0.0640900061 -0.0362128653 0.122760005
v -0.0639200062 -0.0363335125 0.122848213
v -0.0637500063 -0.03628947 0.122795723
v -0.0640900061 -0.03628947 0.122795723
v -0.0640900061 -0.0363775566 0.1229007
v -0.0637500063 -0.0363775566 0.1229007
v -0.0639200062 -0.0365155973 0.122984216
v -0.0637500063 -0.0365155973 0.122984216
v -0.0637500063 -0.0364634134 0.12296658
v -0.0637500063 -0.0365690663 0.122990005
v -0.0640900061 -0.0365690663 0.122990005
v -0.0640900061 -0.0365155973 0.122984216
v -0.0639200062 -0.0364634134 0.12296658
v -0.0637500063 -0.0364163555 0.12293794
v -0.0640900061 -0.0364634134 0.12296658
v -0.0639200062 -0.0364163555 0.12293794
v -0.0637500063 -0.0363775566 0.1229007
v -0.0640900061 -0.0364163555 0.12293794
v -0.0640900061 -0.0363775566 0.1229007
v -0.0639200062 -0.036759533 0.122990005
v -0.0637500063 -0.0365690663 0.122990005
v -0.0640900061 -0.0365690663 0.122990005
v -0.0640900061 -0.03695 0.122990005
v -0.0637500063 -0.03695 0.122990005
v -0.0639200062 -0.03695 0.122915
v -0.0637500063 -0.03695 0.122990005
v -0.0640900061 -0.03695 0.122990005
v -0.0640900061 -0.03695 0.12284
v -0.0637500063 -0.03695 0.12284
v -0.0639200062 -0.03644842 0.122751795
v -0.0637500063 -0.0364924632 0.122804284
v -0.0640900061 -0.0364924632 0.122804284
v -0.0640900061 -0.03640438 0.122699305
v -0.0637500063 -0.03640438 0.122699305
v -0.0640900061 -0.0341494754 0.12261
v -0.0639200062 -0.03371328 0.122600488
v -0.0637500063 -0.0341494754 0.12261
v -0.0640900061 -0.03371328 0.122600488
v -0.0637500063 -0.03371328 0.122600488
v -0.0640900061 -0.0332779177 0.122571953
v -0.0637500063 -0.0332779177 0.122571953
v -0.0637500063 -0.0362128653 0.12261
v -0.0639200062 -0.0362663344 0.122615784
v -0.0640900061 -0.0362128653 0.12261
v -0.0637500063 -0.0362663344 0.122615784
v -0.0640900061 -0.0362663344 0.122615784
v -0.0637500063 -0.0363185219 0.122633427
v -0.0639200062 -0.0363185219 0.122633427
v -0.0640900061 -0.0363185219 0.122633427
v -0.0637500063 -0.0363655761 0.122662067
v -0.0639200062 -0.0363655761 0.122662067
v -0.0640900061 -0.0363655761 0.122662067
v -0.0637500063 -0.03640438 0.122699305
v -0.0640900061 -0.03640438 0.122699305
v -0.0637500063 -0.0341494754 0.12261
v -0.0639200062 -0.0351811722 0.12261
v -0.0640900061 -0.0341494754 0.12261
v -0.0637500063 -0.0362128653 0.12261
v -0.0640900061 -0.0362128653 0.12261
f 1 2 3
f 2 4 3
f 2 5 4
f 5 6 4
f 5 7 6
f 7 8 6
f 7 9 8
f 9 7 10
f 7 11 10
f 11 12 10
f 11 13 12
f 13 11 14
f 13 14 15
f 16 13 15
f 16 15 17
f 16 17 18
f 19 16 18
f 20 19 18
f 19 20 21
f 20 22 21
f 19 21 23
f 24 19 23
f 24 23 25
f 22 26 21
f 22 27 26
f 27 28 26
f 27 29 28
f 29 30 28
f 29 31 30
f 31 32 30
f 32 33 30
f 32 34 33
f 34 35 33
f 35 36 33
f 35 37 36
f 37 38 36
f 36 39 33
f 39 40 33
f 39 41 40
f 41 42 40
f 41 43 42
f 43 44 42
f 38 45 36
f 38 46 45
f 46 47 45
f 47 48 45
f 48 49 45
f 48 50 49
f 51 52 53
f 51 53 54
f 55 51 54
f 55 54 56
f 57 55 56
f 57 56 58
f 59 57 58
f 59 60 57
f 60 61 57
f 60 62 61
f 62 63 61
f 63 64 61
f 63 65 64
f 63 66 65
f 66 67 65
f 66 68 67
f 66 69 68
f 69 70 68
f 69 71 70
f 71 72 70
f 71 69 73
f 69 74 73
f 74 75 73
f 71 76 72
f 76 77 72
f 76 78 77
f 78 79 77
f 78 80 79
f 80 81 79
f 80 82 81
f 80 83 82
f 83 84 82
f 83 85 84
f 83 86 85
f 86 87 85
f 86 88 87
f 86 83 89
f 83 90 89
f 90 91 89
f 90 92 91
f 92 93 91
f 92 94 93
f 86 95 88
f 95 96 88
f 95 97 96
f 97 95 98
f 95 99 98
f 99 100 98
f 101 102 103
f 101 103 104
f 102 101 105
f 105 101 104
f 106 107 108
f 106 109 107
f 109 106 110
f 106 111 110
f 112 106 108
f 106 112 111
f 112 108 113
f 112 114 111
f 115 112 113
f 112 115 114
f 115 113 116
f 115 117 114
f 118 115 116
f 115 118 117
f 119 120 121
f 119 121 122
f 120 119 123
f 123 119 122
f 124 125 126
f 127 124 126
f 124 128 125
f 124 127 129
f 128 124 130
f 124 129 130
f 131 132 133
f 134 131 133
f 132 135 133
f 136 134 133
f 136 133 135
f 136 137 134
f 137 136 135
f 137 138 134
f 137 135 139
f 137 140 138
f 140 137 139
f 140 141 138
f 140 139 142
f 141 140 143
f 140 142 143
f 141 143 144
f 144 143 142
f 145 141 144
f 146 144 142
f 147 145 144
f 147 144 146
f 147 148 145
f 148 147 146
f 148 149 145
f 148 146 150
f 148 151 149
f 151 148 150
f 151 152 149
f 151 150 153
f 151 154 152
f 154 151 153
f 154 155 152
f 154 153 156
f 154 157 155
f 157 154 156
f 157 158 155
f 157 156 159
f 158 157 159
f 160 161 162
f 160 162 163
f 161 160 164
f 164 160 163
f 165 166 167
f 166 165 168
f 166 169 167
f 166 168 170
f 169 166 170
f 171 170 168
f 169 170 171
f 172 171 168
f 173 169 171
f 174 171 172
f 173 171 174
f 175 174 172
f 176 173 174
f 177 174 175
f 177 176 174
f 178 177 175
f 177 178 176
f 178 175 179
f 178 180 176
f 181 178 179
f 178 181 180
f 181 179 182
f 181 183 180
f 184 181 182
f 181 184 183
f 184 182 185
f 184 186 183
f 187 184 185
f 184 187 186
f 187 185 188
f 187 189 186
f 190 187 188
f 187 190 189
f 190 188 191
f 190 192 189
f 192 190 191
f 193 194 195
f 196 193 195
f 193 197 194
f 193 196 198
f 197 193 199
f 193 198 199
f 200 201 202
f 200 202 203
f 201 200 204
f 204 200 203
f 205 206 207
f 208 205 207
f 205 209 206
f 205 208 210
f 209 205 211
f 205 210 211
f 212 213 214
f 212 214 215
f 213 212 216
f 216 212 215
f 217 218 219
f 217 220 218
f 220 217 221
f 217 222 221
f 223 217 219
f 217 223 222
f 223 219 224
f 223 225 222
f 226 223 224
f 223 226 225
f 226 224 227
f 226 228 225
f 229 226 227
f 226 229 228
f 230 231 232
f 230 232 233
f 231 230 234
f 234 230 233
f 235 236 237
f 235 238 236
f 238 235 239
f 235 240 239
f 241 235 237
f 235 241 240
f 241 237 242
f 241 243 240
f 244 241 242
f 241 244 243
f 244 242 245
f 244 246 243
f 247 244 245
f 244 247 246
f 248 249 250
f 248 250 251
f 249 248 252
f 252 248 251
f 253 254 255
f 253 255 256
f 254 253 257
f 257 253 256
f 258 259 260
f 258 260 261
f 259 258 262
f 262 258 261
f 263 264 265
f 264 263 266
f 264 267 265
f 264 266 268
f 264 269 267
f 269 264 268
f 270 271 272
f 271 270 273
f 271 274 272
f 271 273 275
f 271 276 274
f 276 271 275
f 276 277 274
f 276 275 278
f 276 279 277
f 279 276 278
f 279 280 277
f 279 278 281
f 279 282 280
f 282 279 281
f 283 284 285
f 286 284 283
f 284 287 285
f 284 286 287
