# ROS coordinates: X forward, Y left, Z up; units are metres.
o mesh
v -0.105000004 -0.04865 0.035
v -0.105000004 -0.04865 0.0259486865
v -0.104861706 -0.0486571155 0.0259587876
v -0.1047901 -0.0486664176 0.0304743424
v -0.104726717 -0.0486779548 0.0259872638
v -0.104754351 -0.04867254 0.035
v -0.104574621 -0.0487187728 0.0304743424
v -0.104471311 -0.0487578325 0.0260860547
v -0.104503073 -0.04874479 0.035
v -0.104362682 -0.0488099121 0.0304743424
v -0.104241513 -0.0488834642 0.0262143351
v -0.104261272 -0.0488700643 0.035
v -0.104164645 -0.0489394926 0.0304743424
v -0.104045413 -0.0490454063 0.0263458285
v -0.104045413 -0.0490454063 0.035
v -0.103990652 -0.0491035171 0.0304743424
v -0.103885889 -0.0492381677 0.0264633
v -0.103870064 -0.04926127 0.035
v -0.103848957 -0.0492946021 0.0304743424
v -0.103758425 -0.0494699366 0.0265625417
v -0.10374479 -0.0495030768 0.035
v -0.10374479 -0.0495030768 0.0304743424
v -0.103677735 -0.0497297235 0.02662731
v -0.103679679 -0.0497184768 0.0304743424
v -0.10365 -0.0500000045 0.0304743424
v -0.103672534 -0.0497543477 0.035
v -0.10365 -0.0500000045 0.02665
v -0.10365 -0.0500000045 0.035
v -0.103677735 -0.050270278 0.02662731
v -0.103672534 -0.0502456538 0.035
v -0.103679679 -0.05028153 0.0304743424
v -0.103758425 -0.05053007 0.0265625417
v -0.10374479 -0.05049693 0.035
v -0.103775173 -0.0505677052 0.0304743424
v -0.103885889 -0.0507618338 0.0264633
v -0.103870064 -0.050738737 0.035
v -0.103939489 -0.0508353524 0.0304743424
v -0.104045413 -0.0509545952 0.0263458285
v -0.104045413 -0.0509545952 0.035
v -0.104164645 -0.05106051 0.0304743424
v -0.104241513 -0.0511165373 0.0262143351
v -0.104261272 -0.0511299446 0.035
v -0.1044323 -0.0512248352 0.0304743424
v -0.104471311 -0.0512421727 0.0260860547
v -0.104503073 -0.05125521 0.035
v -0.104718477 -0.05132032 0.0304743424
v -0.104726717 -0.0513220541 0.0259872638
v -0.104861706 -0.05134289 0.0259587876
v -0.104754351 -0.0513274632 0.035
v -0.105000004 -0.051350005 0.0259486865
v -0.105000004 -0.051350005 0.035
v -0.105138309 -0.05134289 0.0259587876
v -0.105209909 -0.0513335876 0.0304743424
v -0.105273284 -0.0513220541 0.0259872638
v -0.10524565 -0.0513274632 0.035
v -0.105425388 -0.05128123 0.0304743424
v -0.10552869 -0.0512421727 0.0260860547
v -0.105496936 -0.05125521 0.035
v -0.105637327 -0.0511900932 0.0304743424
v -0.1057585 -0.0511165373 0.0262143351
v -0.105738744 -0.0511299446 0.035
v -0.105835356 -0.05106051 0.0304743424
v -0.105954595 -0.0509545952 0.0263458285
v -0.105954595 -0.0509545952 0.035
v -0.106009364 -0.0508964881 0.0304743424
v -0.106114119 -0.0507618338 0.0264633
v -0.106129944 -0.050738737 0.035
v -0.106151044 -0.0507054031 0.0304743424
v -0.106241584 -0.05053007 0.0265625417
v -0.106255226 -0.05049693 0.035
v -0.106255226 -0.05049693 0.0304743424
v -0.106322274 -0.050270278 0.02662731
v -0.106320322 -0.05028153 0.0304743424
v -0.106350005 -0.0500000045 0.0304743424
v -0.106327467 -0.0502456538 0.035
v -0.106350005 -0.0500000045 0.02665
v -0.106350005 -0.0500000045 0.035
v -0.106322274 -0.0497297235 0.02662731
v -0.106327467 -0.0497543477 0.035
v -0.106320322 -0.0497184768 0.0304743424
v -0.106241584 -0.0494699366 0.0265625417
v -0.106255226 -0.0495030768 0.035
v -0.106224835 -0.0494322963 0.0304743424
v -0.106114119 -0.0492381677 0.0264633
v -0.106129944 -0.04926127 0.035
v -0.10606052 -0.04916465 0.0304743424
v -0.105954595 -0.0490454063 0.0263458285
v -0.105954595 -0.0490454063 0.035
v -0.105835356 -0.0489394926 0.0304743424
v -0.1057585 -0.0488834642 0.0262143351
v -0.105738744 -0.0488700643 0.035
v -0.105567709 -0.04877517 0.0304743424
v -0.10552869 -0.0487578325 0.0260860547
v -0.105496936 -0.04874479 0.035
v -0.105281532 -0.04867968 0.0304743424
v -0.105273284 -0.0486779548 0.0259872638
v -0.105138309 -0.0486571155 0.0259587876
v -0.10524565 -0.04867254 0.035
v -0.105000004 -0.04865 0.0259486865
v -0.105000004 -0.04865 0.035
v -0.106850006 -0.045 0.100000009
v -0.106350005 -0.0455000028 0.100000009
v -0.106327467 -0.0455000028 0.09975436
v -0.106518492 -0.0452500023 0.0994958356
v -0.106819123 -0.045 0.09966338
v -0.106255226 -0.0455000028 0.09950307
v -0.106720105 -0.045 0.09931903
v -0.106129944 -0.0455000028 0.09926127
v -0.106548443 -0.045 0.09898767
v -0.10625691 -0.0452500023 0.09900995
v -0.105954595 -0.0455000028 0.09904541
v -0.105836034 -0.0452500023 0.09863581
v -0.106308155 -0.045 0.0986918658
v -0.105738744 -0.0455000028 0.09887006
v -0.106012337 -0.045 0.09845156
v -0.105496936 -0.0455000028 0.09874479
v -0.105680972 -0.045 0.0982799
v -0.105333656 -0.0452500023 0.09843518
v -0.10524565 -0.0455000028 0.09867254
v -0.105000004 -0.0452500023 0.0984000042
v -0.105336636 -0.045 0.09818089
v -0.105000004 -0.0455000028 0.09865
v -0.105000004 -0.045 0.09815
v -0.104754351 -0.0455000028 0.09867254
v -0.104663379 -0.045 0.09818089
v -0.104666352 -0.0452500023 0.09843518
v -0.104503073 -0.0455000028 0.09874479
v -0.104319036 -0.045 0.0982799
v -0.104327165 -0.0452500023 0.09854835
v -0.104261272 -0.0455000028 0.09887006
v -0.103987671 -0.045 0.09845156
v -0.104009956 -0.0452500023 0.0987431
v -0.104045413 -0.0455000028 0.09904541
v -0.103691861 -0.045 0.0986918658
v -0.103743106 -0.0452500023 0.09900995
v -0.103870064 -0.0455000028 0.09926127
v -0.103451565 -0.045 0.09898767
v -0.103548348 -0.0452500023 0.09932716
v -0.10374479 -0.0455000028 0.09950307
v -0.1032799 -0.045 0.09931903
v -0.103435181 -0.0452500023 0.09966635
v -0.103672534 -0.0455000028 0.09975436
v -0.103180893 -0.045 0.09966338
v -0.10365 -0.0455000028 0.100000009
v -0.10315 -0.045 0.100000009
v -0.103672534 -0.0455000028 0.100245655
v -0.103481516 -0.0452500023 0.100504175
v -0.10374479 -0.0455000028 0.100496933
v -0.103180893 -0.045 0.100336634
v -0.1032799 -0.045 0.10068097
v -0.103870064 -0.0455000028 0.100738741
v -0.103451565 -0.045 0.101012334
v -0.103743106 -0.0452500023 0.10099005
v -0.104045413 -0.0455000028 0.100954592
v -0.104163975 -0.0452500023 0.10136421
v -0.103691861 -0.045 0.101308152
v -0.104261272 -0.0455000028 0.101129942
v -0.103987671 -0.045 0.101548448
v -0.104503073 -0.0455000028 0.101255223
v -0.104319036 -0.045 0.10172011
v -0.104666352 -0.0452500023 0.101564832
v -0.104754351 -0.0455000028 0.101327464
v -0.105000004 -0.0452500023 0.1016
v -0.104663379 -0.045 0.10181912
v -0.105000004 -0.0455000028 0.101350009
v -0.105000004 -0.045 0.10185
v -0.10524565 -0.0455000028 0.101327464
v -0.105336636 -0.045 0.10181912
v -0.105333656 -0.0452500023 0.101564832
v -0.105496936 -0.0455000028 0.101255223
v -0.105680972 -0.045 0.10172011
v -0.105672844 -0.0452500023 0.101451658
v -0.105738744 -0.0455000028 0.101129942
v -0.106012337 -0.045 0.101548448
v -0.105990052 -0.0452500023 0.101256907
v -0.105954595 -0.0455000028 0.100954592
v -0.106308155 -0.045 0.101308152
v -0.10625691 -0.0452500023 0.10099005
v -0.106129944 -0.0455000028 0.100738741
v -0.106548443 -0.045 0.101012334
v -0.10645166 -0.0452500023 0.100672841
v -0.106255226 -0.0455000028 0.100496933
v -0.106720105 -0.045 0.10068097
v -0.106564835 -0.0452500023 0.100333653
v -0.106327467 -0.0455000028 0.100245655
v -0.106819123 -0.045 0.100336634
v -0.106350005 -0.0455000028 0.100000009
v -0.106850006 -0.045 0.100000009
v -0.106850006 -0.045 0.045
v -0.106350005 -0.0455000028 0.045
v -0.106327467 -0.0455000028 0.04475435
v -0.106518492 -0.0452500023 0.0444958359
v -0.106819123 -0.045 0.04466337
v -0.106255226 -0.0455000028 0.0445030779
v -0.106720105 -0.045 0.0443190262
v -0.106129944 -0.0455000028 0.04426127
v -0.106548443 -0.045 0.0439876653
v -0.10625691 -0.0452500023 0.0440099537
v -0.105954595 -0.0455000028 0.0440454073
v -0.105836034 -0.0452500023 0.0436357968
v -0.106308155 -0.045 0.04369186
v -0.105738744 -0.0455000028 0.04387006
v -0.106012337 -0.045 0.04345156
v -0.105496936 -0.0455000028 0.0437447876
v -0.105680972 -0.045 0.0432798937
v -0.105333656 -0.0452500023 0.04343518
v -0.10524565 -0.0455000028 0.043672543
v -0.105000004 -0.0452500023 0.0434000045
v -0.105336636 -0.045 0.0431808867
v -0.105000004 -0.0455000028 0.04365
v -0.105000004 -0.045 0.043150004
v -0.104754351 -0.0455000028 0.043672543
v -0.104663379 -0.045 0.0431808867
v -0.104666352 -0.0452500023 0.04343518
v -0.104503073 -0.0455000028 0.0437447876
v -0.104319036 -0.045 0.0432798937
v -0.104327165 -0.0452500023 0.0435483456
v -0.104261272 -0.0455000028 0.04387006
v -0.103987671 -0.045 0.04345156
v -0.104009956 -0.0452500023 0.0437431
v -0.104045413 -0.0455000028 0.0440454073
v -0.103691861 -0.045 0.04369186
v -0.103743106 -0.0452500023 0.0440099537
v -0.103870064 -0.0455000028 0.04426127
v -0.103451565 -0.045 0.0439876653
v -0.103548348 -0.0452500023 0.04432717
v -0.10374479 -0.0455000028 0.0445030779
v -0.1032799 -0.045 0.0443190262
v -0.103435181 -0.0452500023 0.0446663462
v -0.103672534 -0.0455000028 0.04475435
v -0.103180893 -0.045 0.04466337
v -0.10365 -0.0455000028 0.045
v -0.10315 -0.045 0.045
v -0.103672534 -0.0455000028 0.0452456549
v -0.103481516 -0.0452500023 0.045504164
v -0.10374479 -0.0455000028 0.04549693
v -0.103180893 -0.045 0.0453366339
v -0.1032799 -0.045 0.0456809774
v -0.103870064 -0.0455000028 0.045738738
v -0.103451565 -0.045 0.046012342
v -0.103743106 -0.0452500023 0.04599005
v -0.104045413 -0.0455000028 0.0459546
v -0.104163975 -0.0452500023 0.04636421
v -0.103691861 -0.045 0.04630815
v -0.104261272 -0.0455000028 0.0461299419
v -0.103987671 -0.045 0.04654844
v -0.104503073 -0.0455000028 0.046255216
v -0.104319036 -0.045 0.04672011
v -0.104666352 -0.0452500023 0.0465648249
v -0.104754351 -0.0455000028 0.0463274643
v -0.105000004 -0.0452500023 0.0466
v -0.104663379 -0.045 0.0468191169
v -0.105000004 -0.0455000028 0.046350006
v -0.105000004 -0.045 0.04685
v -0.10524565 -0.0455000028 0.0463274643
v -0.105336636 -0.045 0.0468191169
v -0.105333656 -0.0452500023 0.0465648249
v -0.105496936 -0.0455000028 0.046255216
v -0.105680972 -0.045 0.04672011
v -0.105672844 -0.0452500023 0.0464516543
v -0.105738744 -0.0455000028 0.0461299419
v -0.106012337 -0.045 0.04654844
v -0.105990052 -0.0452500023 0.0462569073
v -0.105954595 -0.0455000028 0.0459546
v -0.106308155 -0.045 0.04630815
v -0.10625691 -0.0452500023 0.04599005
v -0.106129944 -0.0455000028 0.045738738
v -0.106548443 -0.045 0.046012342
v -0.10645166 -0.0452500023 0.0456728339
v -0.106255226 -0.0455000028 0.04549693
v -0.106720105 -0.045 0.0456809774
v -0.106564835 -0.0452500023 0.0453336574
v -0.106327467 -0.0455000028 0.0452456549
v -0.106819123 -0.045 0.0453366339
v -0.106350005 -0.0455000028 0.045
v -0.106850006 -0.045 0.045
v -0.10315 -0.0550000034 0.100000009
v -0.103180893 -0.0550000034 0.100336634
v -0.10365 -0.0545 0.100000009
v -0.103435181 -0.05475 0.100333653
v -0.103672534 -0.0545 0.100245655
v -0.1032799 -0.0550000034 0.10068097
v -0.10374479 -0.0545 0.100496933
v -0.103548348 -0.05475 0.100672841
v -0.103451565 -0.0550000034 0.101012334
v -0.103870064 -0.0545 0.100738741
v -0.103743106 -0.05475 0.10099005
v -0.103691861 -0.0550000034 0.101308152
v -0.104045413 -0.0545 0.100954592
v -0.104009956 -0.05475 0.101256907
v -0.103987671 -0.0550000034 0.101548448
v -0.104261272 -0.0545 0.101129942
v -0.104327165 -0.05475 0.101451658
v -0.104319036 -0.0550000034 0.10172011
v -0.104503073 -0.0545 0.101255223
v -0.104666352 -0.05475 0.101564832
v -0.104663379 -0.0550000034 0.10181912
v -0.105000004 -0.05475 0.1016
v -0.104754351 -0.0545 0.101327464
v -0.105000004 -0.0550000034 0.10185
v -0.105000004 -0.0545 0.101350009
v -0.105336636 -0.0550000034 0.10181912
v -0.10524565 -0.0545 0.101327464
v -0.105333656 -0.05475 0.101564832
v -0.105680972 -0.0550000034 0.10172011
v -0.105836034 -0.05475 0.10136421
v -0.105496936 -0.0545 0.101255223
v -0.106012337 -0.0550000034 0.101548448
v -0.105738744 -0.0545 0.101129942
v -0.106308155 -0.0550000034 0.101308152
v -0.105954595 -0.0545 0.100954592
v -0.10625691 -0.05475 0.10099005
v -0.106548443 -0.0550000034 0.101012334
v -0.106518492 -0.05475 0.100504175
v -0.106129944 -0.0545 0.100738741
v -0.106720105 -0.0550000034 0.10068097
v -0.106255226 -0.0545 0.100496933
v -0.106819123 -0.0550000034 0.100336634
v -0.106327467 -0.0545 0.100245655
v -0.106850006 -0.0550000034 0.100000009
v -0.106350005 -0.0545 0.100000009
v -0.10315 -0.0550000034 0.045
v -0.103180893 -0.0550000034 0.0453366339
v -0.10365 -0.0545 0.045
v -0.103435181 -0.05475 0.0453336574
v -0.103672534 -0.0545 0.0452456549
v -0.1032799 -0.0550000034 0.0456809774
v -0.10374479 -0.0545 0.04549693
v -0.103548348 -0.05475 0.0456728339
v -0.103451565 -0.0550000034 0.046012342
v -0.103870064 -0.0545 0.045738738
v -0.103743106 -0.05475 0.04599005
v -0.103691861 -0.0550000034 0.04630815
v -0.104045413 -0.0545 0.0459546
v -0.104009956 -0.05475 0.0462569073
v -0.103987671 -0.0550000034 0.04654844
v -0.104261272 -0.0545 0.0461299419
v -0.104327165 -0.05475 0.0464516543
v -0.104319036 -0.0550000034 0.04672011
v -0.104503073 -0.0545 0.046255216
v -0.104666352 -0.05475 0.0465648249
v -0.104663379 -0.0550000034 0.0468191169
v -0.105000004 -0.05475 0.0466
v -0.104754351 -0.0545 0.0463274643
v -0.105000004 -0.0550000034 0.04685
v -0.105000004 -0.0545 0.046350006
v -0.105336636 -0.0550000034 0.0468191169
v -0.10524565 -0.0545 0.0463274643
v -0.105333656 -0.05475 0.0465648249
v -0.105680972 -0.0550000034 0.04672011
v -0.105836034 -0.05475 0.04636421
v -0.105496936 -0.0545 0.046255216
v -0.106012337 -0.0550000034 0.04654844
v -0.105738744 -0.0545 0.0461299419
v -0.106308155 -0.0550000034 0.04630815
v -0.105954595 -0.0545 0.0459546
v -0.10625691 -0.05475 0.04599005
v -0.106548443 -0.0550000034 0.046012342
v -0.106518492 -0.05475 0.045504164
v -0.106129944 -0.0545 0.045738738
v -0.106720105 -0.0550000034 0.0456809774
v -0.106255226 -0.0545 0.04549693
v -0.106819123 -0.0550000034 0.0453366339
v -0.106327467 -0.0545 0.0452456549
v -0.106850006 -0.0550000034 0.045
v -0.106350005 -0.0545 0.045
v -0.110000007 -0.05165 0.0250000022
v -0.100000009 -0.05165 0.0250000022
v -0.100000009 -0.0516224578 0.0246997625
v -0.105000004 -0.05161373 0.0246559177
v -0.110000007 -0.0516224578 0.0246997625
v -0.100000009 -0.0515341535 0.0243926439
v -0.110000007 -0.0515341535 0.0243926439
v -0.105000004 -0.0514970161 0.0243061427
v -0.100000009 -0.0513810478 0.0240971055
v -0.110000007 -0.0513810478 0.0240971055
v -0.105000004 -0.051350005 0.0240513161
v -0.104861706 -0.05134289 0.024041215
v -0.104726717 -0.0513220541 0.0240127388
v -0.104471311 -0.0512421727 0.023913946
v -0.105138309 -0.05134289 0.024041215
v -0.105273284 -0.0513220541 0.0240127388
v -0.10552869 -0.0512421727 0.023913946
v -0.110000007 -0.05116673 0.0238332748
v -0.1057585 -0.0511165373 0.02378567
v -0.100000009 -0.05116673 0.0238332748
v -0.104241513 -0.0511165373 0.02378567
v -0.104045413 -0.0509545952 0.0236541741
v -0.100000009 -0.0509028956 0.0236189589
v -0.103885889 -0.0507618338 0.0235367026
v -0.100000009 -0.05060736 0.02346585
v -0.103758425 -0.05053007 0.02343746
v -0.100000009 -0.0503002442 0.0233775489
v -0.103677735 -0.050270278 0.0233726948
v -0.110000007 -0.0509028956 0.0236189589
v -0.105954595 -0.0509545952 0.0236541741
v -0.106114119 -0.0507618338 0.0235367026
v -0.110000007 -0.05060736 0.02346585
v -0.106241584 -0.05053007 0.02343746
v -0.110000007 -0.0503002442 0.0233775489
v -0.106322274 -0.050270278 0.0233726948
v -0.100000009 -0.0500000045 0.02335
v -0.10365 -0.0500000045 0.02335
v -0.103677735 -0.0497297235 0.0233726948
v -0.100000009 -0.0496997647 0.0233775489
v -0.103758425 -0.0494699366 0.02343746
v -0.100000009 -0.049392648 0.02346585
v -0.103885889 -0.0492381677 0.0235367026
v -0.110000007 -0.0500000045 0.02335
v -0.106350005 -0.0500000045 0.02335
v -0.106322274 -0.0497297235 0.0233726948
v -0.110000007 -0.0496997647 0.0233775489
v -0.106241584 -0.0494699366 0.02343746
v -0.110000007 -0.049392648 0.02346585
v -0.106114119 -0.0492381677 0.0235367026
v -0.110000007 -0.0490971059 0.0236189589
v -0.105954595 -0.0490454063 0.0236541741
v -0.100000009 -0.0490971059 0.0236189589
v -0.104045413 -0.0490454063 0.0236541741
v -0.104241513 -0.0488834642 0.02378567
v -0.100000009 -0.0488332734 0.0238332748
v -0.104471311 -0.0487578325 0.023913946
v -0.110000007 -0.0488332734 0.0238332748
v -0.1057585 -0.0488834642 0.02378567
v -0.10552869 -0.0487578325 0.023913946
v -0.100000009 -0.0486189574 0.0240971055
v -0.110000007 -0.0486189574 0.0240971055
v -0.104726717 -0.0486779548 0.0240127388
v -0.105273284 -0.0486779548 0.0240127388
v -0.104861706 -0.0486571155 0.024041215
v -0.105138309 -0.0486571155 0.024041215
v -0.105000004 -0.04865 0.0240513161
v -0.105000004 -0.0485454462 0.0242210515
v -0.100000009 -0.048465848 0.0243926439
v -0.110000007 -0.048465848 0.0243926439
v -0.105000004 -0.04843406 0.0244800784
v -0.100000009 -0.04837755 0.0246997625
v -0.110000007 -0.04837755 0.0246997625
v -0.105000004 -0.048370067 0.0247434564
v -0.100000009 -0.0483500026 0.0250000022
v -0.110000007 -0.0483500026 0.0250000022
v -0.100000009 -0.04837755 0.0253002383
v -0.105000004 -0.0483862758 0.0253440831
v -0.110000007 -0.04837755 0.0253002383
v -0.100000009 -0.048465848 0.0256073587
v -0.110000007 -0.048465848 0.0256073587
v -0.105000004 -0.0485029854 0.025693858
v -0.100000009 -0.0486189574 0.0259028971
v -0.110000007 -0.0486189574 0.0259028971
v -0.105000004 -0.04865 0.0259486865
v -0.104861706 -0.0486571155 0.0259587876
v -0.104726717 -0.0486779548 0.0259872638
v -0.104471311 -0.0487578325 0.0260860547
v -0.105138309 -0.0486571155 0.0259587876
v -0.105273284 -0.0486779548 0.0259872638
v -0.10552869 -0.0487578325 0.0260860547
v -0.110000007 -0.0488332734 0.0261667259
v -0.1057585 -0.0488834642 0.0262143351
v -0.100000009 -0.0488332734 0.0261667259
v -0.104241513 -0.0488834642 0.0262143351
v -0.104045413 -0.0490454063 0.0263458285
v -0.100000009 -0.0490971059 0.0263810437
v -0.103885889 -0.0492381677 0.0264633
v -0.100000009 -0.049392648 0.0265341513
v -0.103758425 -0.0494699366 0.0265625417
v -0.100000009 -0.0496997647 0.0266224537
v -0.103677735 -0.0497297235 0.02662731
v -0.110000007 -0.0490971059 0.0263810437
v -0.105954595 -0.0490454063 0.0263458285
v -0.106114119 -0.0492381677 0.0264633
v -0.110000007 -0.049392648 0.0265341513
v -0.106241584 -0.0494699366 0.0265625417
v -0.110000007 -0.0496997647 0.0266224537
v -0.106322274 -0.0497297235 0.02662731
v -0.100000009 -0.0500000045 0.02665
v -0.10365 -0.0500000045 0.02665
v -0.103677735 -0.050270278 0.02662731
v -0.100000009 -0.0503002442 0.0266224537
v -0.103758425 -0.05053007 0.0265625417
v -0.100000009 -0.05060736 0.0265341513
v -0.103885889 -0.0507618338 0.0264633
v -0.110000007 -0.0500000045 0.02665
v -0.106350005 -0.0500000045 0.02665
v -0.106322274 -0.050270278 0.02662731
v -0.110000007 -0.0503002442 0.0266224537
v -0.106241584 -0.05053007 0.0265625417
v -0.110000007 -0.05060736 0.0265341513
v -0.106114119 -0.0507618338 0.0264633
v -0.110000007 -0.0509028956 0.0263810437
v -0.105954595 -0.0509545952 0.0263458285
v -0.100000009 -0.0509028956 0.0263810437
v -0.104045413 -0.0509545952 0.0263458285
v -0.104241513 -0.0511165373 0.0262143351
v -0.100000009 -0.05116673 0.0261667259
v -0.104471311 -0.0512421727 0.0260860547
v -0.110000007 -0.05116673 0.0261667259
v -0.1057585 -0.0511165373 0.0262143351
v -0.10552869 -0.0512421727 0.0260860547
v -0.100000009 -0.0513810478 0.0259028971
v -0.110000007 -0.0513810478 0.0259028971
v -0.104726717 -0.0513220541 0.0259872638
v -0.105273284 -0.0513220541 0.0259872638
v -0.104861706 -0.05134289 0.0259587876
v -0.105138309 -0.05134289 0.0259587876
v -0.105000004 -0.051350005 0.0259486865
v -0.105000004 -0.0514545627 0.025778953
v -0.100000009 -0.0515341535 0.0256073587
v -0.110000007 -0.0515341535 0.0256073587
v -0.105000004 -0.0515659451 0.0255199224
v -0.100000009 -0.0516224578 0.0253002383
v -0.110000007 -0.0516224578 0.0253002383
v -0.105000004 -0.0516299345 0.0252565444
v -0.100000009 -0.05165 0.0250000022
v -0.110000007 -0.05165 0.0250000022
v -0.110000007 -0.05165 0.0950000063
v -0.100000009 -0.05165 0.0950000063
v -0.100000009 -0.0516224578 0.09469977
v -0.105000004 -0.05161373 0.0946559161
v -0.110000007 -0.0516224578 0.09469977
v -0.100000009 -0.0515341535 0.09439264
v -0.110000007 -0.0515341535 0.09439264
v -0.105000004 -0.0514970161 0.094306156
v -0.100000009 -0.0513810478 0.09409711
v -0.110000007 -0.0513810478 0.09409711
v -0.105000004 -0.0512961857 0.0939790159
v -0.100000009 -0.05116673 0.09383328
v -0.110000007 -0.05116673 0.09383328
v -0.105000004 -0.0510209948 0.09370383
v -0.100000009 -0.0509028956 0.09361896
v -0.110000007 -0.0509028956 0.09361896
v -0.105000004 -0.0506938621 0.09350298
v -0.100000009 -0.05060736 0.09346586
v -0.110000007 -0.05060736 0.09346586
v -0.105000004 -0.0503440872 0.093386285
v -0.100000009 -0.0503002442 0.0933775455
v -0.105000004 -0.0500000045 0.09335
v -0.110000007 -0.0503002442 0.0933775455
v -0.100000009 -0.0500000045 0.09335
v -0.110000007 -0.0500000045 0.09335
v -0.100000009 -0.0496997647 0.0933775455
v -0.110000007 -0.0496997647 0.0933775455
v -0.105000004 -0.04965592 0.093386285
v -0.100000009 -0.049392648 0.09346586
v -0.110000007 -0.049392648 0.09346586
v -0.105000004 -0.049392648 0.09346586
v -0.105000004 -0.0491378456 0.09359316
v -0.100000009 -0.0490971059 0.09361896
v -0.110000007 -0.0490971059 0.09361896
v -0.105000004 -0.0489043 0.09376634
v -0.100000009 -0.0488332734 0.09383328
v -0.110000007 -0.0488332734 0.09383328
v -0.105000004 -0.04870382 0.0939790159
v -0.100000009 -0.0486189574 0.09409711
v -0.110000007 -0.0486189574 0.09409711
v -0.105000004 -0.0485454462 0.0942210555
v -0.100000009 -0.048465848 0.09439264
v -0.110000007 -0.048465848 0.09439264
v -0.105000004 -0.04843406 0.0944800749
v -0.100000009 -0.04837755 0.09469977
v -0.110000007 -0.04837755 0.09469977
v -0.105000004 -0.048370067 0.09474345
v -0.100000009 -0.0483500026 0.0950000063
v -0.110000007 -0.0483500026 0.0950000063
v -0.100000009 -0.04837755 0.0953002349
v -0.105000004 -0.0483862758 0.0953441
v -0.110000007 -0.04837755 0.0953002349
v -0.100000009 -0.048465848 0.0956073552
v -0.110000007 -0.048465848 0.0956073552
v -0.105000004 -0.0485029854 0.09569386
v -0.100000009 -0.0486189574 0.0959029049
v -0.110000007 -0.0486189574 0.0959029049
v -0.105000004 -0.04870382 0.09602099
v -0.100000009 -0.0488332734 0.09616673
v -0.110000007 -0.0488332734 0.09616673
v -0.105000004 -0.0489790142 0.0962961838
v -0.100000009 -0.0490971059 0.0963810459
v -0.110000007 -0.0490971059 0.0963810459
v -0.105000004 -0.04930614 0.09649702
v -0.100000009 -0.049392648 0.0965341553
v -0.110000007 -0.049392648 0.0965341553
v -0.105000004 -0.04965592 0.09661373
v -0.100000009 -0.0496997647 0.09662247
v -0.105000004 -0.0500000045 0.0966500044
v -0.110000007 -0.0496997647 0.09662247
v -0.100000009 -0.0500000045 0.0966500044
v -0.110000007 -0.0500000045 0.0966500044
v -0.100000009 -0.0503002442 0.09662247
v -0.110000007 -0.0503002442 0.09662247
v -0.105000004 -0.0503440872 0.09661373
v -0.100000009 -0.05060736 0.0965341553
v -0.110000007 -0.05060736 0.0965341553
v -0.105000004 -0.05060736 0.0965341553
v -0.105000004 -0.0508621559 0.09640685
v -0.100000009 -0.0509028956 0.0963810459
v -0.110000007 -0.0509028956 0.0963810459
v -0.105000004 -0.05109571 0.0962336659
v -0.100000009 -0.05116673 0.09616673
v -0.110000007 -0.05116673 0.09616673
v -0.105000004 -0.0512961857 0.09602099
v -0.100000009 -0.0513810478 0.0959029049
v -0.110000007 -0.0513810478 0.0959029049
v -0.105000004 -0.0514545627 0.09577896
v -0.100000009 -0.0515341535 0.0956073552
v -0.110000007 -0.0515341535 0.0956073552
v -0.105000004 -0.0515659451 0.09551993
v -0.100000009 -0.0516224578 0.0953002349
v -0.110000007 -0.0516224578 0.0953002349
v -0.105000004 -0.0516299345 0.09525655
v -0.100000009 -0.05165 0.0950000063
v -0.110000007 -0.05165 0.0950000063
v -0.105000004 -0.04865 0.0240513161
v -0.105138309 -0.0486571155 0.024041215
v -0.105000004 -0.04865 0.0100000007
v -0.105281532 -0.04867968 0.0170256589
v -0.105273284 -0.0486779548 0.0240127388
v -0.10524565 -0.04867254 0.0100000007
v -0.10552869 -0.0487578325 0.023913946
v -0.105496936 -0.04874479 0.0100000007
v -0.105567709 -0.04877517 0.0170256589
v -0.1057585 -0.0488834642 0.02378567
v -0.105738744 -0.0488700643 0.0100000007
v -0.105835356 -0.0489394926 0.0170256589
v -0.105954595 -0.0490454063 0.0236541741
v -0.105954595 -0.0490454063 0.0100000007
v -0.10606052 -0.04916465 0.0170256589
v -0.106114119 -0.0492381677 0.0235367026
v -0.106129944 -0.04926127 0.0100000007
v -0.106224835 -0.0494322963 0.0170256589
v -0.106241584 -0.0494699366 0.02343746
v -0.106255226 -0.0495030768 0.0100000007
v -0.106320322 -0.0497184768 0.0170256589
v -0.106322274 -0.0497297235 0.0233726948
v -0.106350005 -0.0500000045 0.0170256589
v -0.106327467 -0.0497543477 0.0100000007
v -0.106350005 -0.0500000045 0.02335
v -0.106350005 -0.0500000045 0.0100000007
v -0.106327467 -0.0502456538 0.0100000007
v -0.106322274 -0.050270278 0.0233726948
v -0.106320322 -0.05028153 0.0170256589
v -0.106255226 -0.05049693 0.0100000007
v -0.106255226 -0.05049693 0.0170256589
v -0.106241584 -0.05053007 0.02343746
v -0.106151044 -0.0507054031 0.0170256589
v -0.106129944 -0.050738737 0.0100000007
v -0.106114119 -0.0507618338 0.0235367026
v -0.106009364 -0.0508964881 0.0170256589
v -0.105954595 -0.0509545952 0.0100000007
v -0.105954595 -0.0509545952 0.0236541741
v -0.105835356 -0.05106051 0.0170256589
v -0.105738744 -0.0511299446 0.0100000007
v -0.1057585 -0.0511165373 0.02378567
v -0.105637327 -0.0511900932 0.0170256589
v -0.105496936 -0.05125521 0.0100000007
v -0.10552869 -0.0512421727 0.023913946
v -0.105425388 -0.05128123 0.0170256589
v -0.10524565 -0.0513274632 0.0100000007
v -0.105273284 -0.0513220541 0.0240127388
v -0.105209909 -0.0513335876 0.0170256589
v -0.105138309 -0.05134289 0.024041215
v -0.105000004 -0.051350005 0.0240513161
v -0.105000004 -0.051350005 0.0100000007
v -0.104861706 -0.05134289 0.024041215
v -0.104718477 -0.05132032 0.0170256589
v -0.104726717 -0.0513220541 0.0240127388
v -0.104754351 -0.0513274632 0.0100000007
v -0.104471311 -0.0512421727 0.023913946
v -0.104503073 -0.05125521 0.0100000007
v -0.1044323 -0.0512248352 0.0170256589
v -0.104241513 -0.0511165373 0.02378567
v -0.104261272 -0.0511299446 0.0100000007
v -0.104164645 -0.05106051 0.0170256589
v -0.104045413 -0.0509545952 0.0236541741
v -0.104045413 -0.0509545952 0.0100000007
v -0.103939489 -0.0508353524 0.0170256589
v -0.103885889 -0.0507618338 0.0235367026
v -0.103870064 -0.050738737 0.0100000007
v -0.103775173 -0.0505677052 0.0170256589
v -0.103758425 -0.05053007 0.02343746
v -0.10374479 -0.05049693 0.0100000007
v -0.103679679 -0.05028153 0.0170256589
v -0.103677735 -0.050270278 0.0233726948
v -0.10365 -0.0500000045 0.0170256589
v -0.103672534 -0.0502456538 0.0100000007
v -0.10365 -0.0500000045 0.02335
v -0.10365 -0.0500000045 0.0100000007
v -0.103672534 -0.0497543477 0.0100000007
v -0.103677735 -0.0497297235 0.0233726948
v -0.103679679 -0.0497184768 0.0170256589
v -0.10374479 -0.0495030768 0.0100000007
v -0.10374479 -0.0495030768 0.0170256589
v -0.103758425 -0.0494699366 0.02343746
v -0.103848957 -0.0492946021 0.0170256589
v -0.103870064 -0.04926127 0.0100000007
v -0.103885889 -0.0492381677 0.0235367026
v -0.103990652 -0.0491035171 0.0170256589
v -0.104045413 -0.0490454063 0.0100000007
v -0.104045413 -0.0490454063 0.0236541741
v -0.104164645 -0.0489394926 0.0170256589
v -0.104261272 -0.0488700643 0.0100000007
v -0.104241513 -0.0488834642 0.02378567
v -0.104362682 -0.0488099121 0.0170256589
v -0.104503073 -0.04874479 0.0100000007
v -0.104471311 -0.0487578325 0.023913946
v -0.104574621 -0.0487187728 0.0170256589
v -0.104754351 -0.04867254 0.0100000007
v -0.104726717 -0.0486779548 0.0240127388
v -0.1047901 -0.0486664176 0.0170256589
v -0.105000004 -0.04865 0.0100000007
v -0.104861706 -0.0486571155 0.024041215
v -0.105000004 -0.04865 0.0240513161
v -0.110000007 -0.05165 0.110000007
v -0.100000009 -0.05165 0.110000007
v -0.100000009 -0.0516224578 0.109699771
v -0.105000004 -0.05161373 0.109655924
v -0.110000007 -0.0516224578 0.109699771
v -0.100000009 -0.0515341535 0.109392643
v -0.110000007 -0.0515341535 0.109392643
v -0.105000004 -0.0514970161 0.109306142
v -0.100000009 -0.0513810478 0.1090971
v -0.110000007 -0.0513810478 0.1090971
v -0.105000004 -0.0512961857 0.108979017
v -0.100000009 -0.05116673 0.108833276
v -0.110000007 -0.05116673 0.108833276
v -0.105000004 -0.0510209948 0.108703829
v -0.100000009 -0.0509028956 0.10861896
v -0.110000007 -0.0509028956 0.10861896
v -0.105000004 -0.0506938621 0.108502984
v -0.100000009 -0.05060736 0.108465858
v -0.110000007 -0.05060736 0.108465858
v -0.105000004 -0.0503440872 0.108386286
v -0.100000009 -0.0503002442 0.108377554
v -0.105000004 -0.0500000045 0.10835
v -0.110000007 -0.0503002442 0.108377554
v -0.100000009 -0.0500000045 0.10835
v -0.110000007 -0.0500000045 0.10835
v -0.100000009 -0.0496997647 0.108377554
v -0.110000007 -0.0496997647 0.108377554
v -0.105000004 -0.04965592 0.108386286
v -0.100000009 -0.049392648 0.108465858
v -0.110000007 -0.049392648 0.108465858
v -0.105000004 -0.049392648 0.108465858
v -0.105000004 -0.0491378456 0.108593166
v -0.100000009 -0.0490971059 0.10861896
v -0.110000007 -0.0490971059 0.10861896
v -0.105000004 -0.0489043 0.10876634
v -0.100000009 -0.0488332734 0.108833276
v -0.110000007 -0.0488332734 0.108833276
v -0.105000004 -0.04870382 0.108979017
v -0.100000009 -0.0486189574 0.1090971
v -0.110000007 -0.0486189574 0.1090971
v -0.105000004 -0.0485454462 0.109221049
v -0.100000009 -0.048465848 0.109392643
v -0.110000007 -0.048465848 0.109392643
v -0.105000004 -0.04843406 0.109480083
v -0.100000009 -0.04837755 0.109699771
v -0.110000007 -0.04837755 0.109699771
v -0.105000004 -0.048370067 0.109743461
v -0.100000009 -0.0483500026 0.110000007
v -0.110000007 -0.0483500026 0.110000007
v -0.100000009 -0.04837755 0.110300243
v -0.105000004 -0.0483862758 0.1103441
v -0.110000007 -0.04837755 0.110300243
v -0.100000009 -0.048465848 0.110607363
v -0.110000007 -0.048465848 0.110607363
v -0.105000004 -0.0485029854 0.110693865
v -0.100000009 -0.0486189574 0.110902905
v -0.110000007 -0.0486189574 0.110902905
v -0.105000004 -0.04870382 0.11102099
v -0.100000009 -0.0488332734 0.111166731
v -0.110000007 -0.0488332734 0.111166731
v -0.105000004 -0.0489790142 0.111296184
v -0.100000009 -0.0490971059 0.111381046
v -0.110000007 -0.0490971059 0.111381046
v -0.105000004 -0.04930614 0.11149703
v -0.100000009 -0.049392648 0.111534148
v -0.110000007 -0.049392648 0.111534148
v -0.105000004 -0.04965592 0.111613728
v -0.100000009 -0.0496997647 0.111622468
v -0.105000004 -0.0500000045 0.111650005
v -0.110000007 -0.0496997647 0.111622468
v -0.100000009 -0.0500000045 0.111650005
v -0.110000007 -0.0500000045 0.111650005
v -0.100000009 -0.0503002442 0.111622468
v -0.110000007 -0.0503002442 0.111622468
v -0.105000004 -0.0503440872 0.111613728
v -0.100000009 -0.05060736 0.111534148
v -0.110000007 -0.05060736 0.111534148
v -0.105000004 -0.05060736 0.111534148
v -0.105000004 -0.0508621559 0.111406848
v -0.100000009 -0.0509028956 0.111381046
v -0.110000007 -0.0509028956 0.111381046
v -0.105000004 -0.05109571 0.111233667
v -0.100000009 -0.05116673 0.111166731
v -0.110000007 -0.05116673 0.111166731
v -0.105000004 -0.0512961857 0.11102099
v -0.100000009 -0.0513810478 0.110902905
v -0.110000007 -0.0513810478 0.110902905
v -0.105000004 -0.0514545627 0.110778958
v -0.100000009 -0.0515341535 0.110607363
v -0.110000007 -0.0515341535 0.110607363
v -0.105000004 -0.0515659451 0.110519931
v -0.100000009 -0.0516224578 0.110300243
v -0.110000007 -0.0516224578 0.110300243
v -0.105000004 -0.0516299345 0.110256553
v -0.100000009 -0.05165 0.110000007
v -0.110000007 -0.05165 0.110000007
v -0.10365 -0.0545 0.045
v -0.103672534 -0.0545 0.04475435
v -0.10315 -0.0550000034 0.045
v -0.103481516 -0.05475 0.0444958359
v -0.10374479 -0.0545 0.0445030779
v -0.103180893 -0.0550000034 0.04466337
v -0.1032799 -0.0550000034 0.0443190262
v -0.103870064 -0.0545 0.04426127
v -0.103451565 -0.0550000034 0.0439876653
v -0.103743106 -0.05475 0.0440099537
v -0.104045413 -0.0545 0.0440454073
v -0.104163975 -0.05475 0.0436357968
v -0.103691861 -0.0550000034 0.04369186
v -0.104261272 -0.0545 0.04387006
v -0.103987671 -0.0550000034 0.04345156
v -0.104503073 -0.0545 0.0437447876
v -0.104319036 -0.0550000034 0.0432798937
v -0.104666352 -0.05475 0.04343518
v -0.104754351 -0.0545 0.043672543
v -0.105000004 -0.05475 0.0434000045
v -0.104663379 -0.0550000034 0.0431808867
v -0.105000004 -0.0545 0.04365
v -0.105000004 -0.0550000034 0.043150004
v -0.10524565 -0.0545 0.043672543
v -0.105336636 -0.0550000034 0.0431808867
v -0.105333656 -0.05475 0.04343518
v -0.105496936 -0.0545 0.0437447876
v -0.105680972 -0.0550000034 0.0432798937
v -0.105672844 -0.05475 0.0435483456
v -0.105738744 -0.0545 0.04387006
v -0.106012337 -0.0550000034 0.04345156
v -0.105990052 -0.05475 0.0437431
v -0.105954595 -0.0545 0.0440454073
v -0.106308155 -0.0550000034 0.04369186
v -0.10625691 -0.05475 0.0440099537
v -0.106129944 -0.0545 0.04426127
v -0.106548443 -0.0550000034 0.0439876653
v -0.10645166 -0.05475 0.04432717
v -0.106255226 -0.0545 0.0445030779
v -0.106720105 -0.0550000034 0.0443190262
v -0.106564835 -0.05475 0.0446663462
v -0.106327467 -0.0545 0.04475435
v -0.106819123 -0.0550000034 0.04466337
v -0.106350005 -0.0545 0.045
v -0.106850006 -0.0550000034 0.045
v -0.106350005 -0.0455000028 0.045
v -0.106350005 -0.0545 0.045
v -0.106327467 -0.0545 0.04475435
v -0.106320322 -0.0500000045 0.0447184779
v -0.106327467 -0.0455000028 0.04475435
v -0.106255226 -0.0545 0.0445030779
v -0.106255226 -0.0455000028 0.0445030779
v -0.106224835 -0.0500000045 0.0444323
v -0.106129944 -0.0545 0.04426127
v -0.106129944 -0.0455000028 0.04426127
v -0.10606052 -0.0500000045 0.04416465
v -0.105954595 -0.0545 0.0440454073
v -0.105954595 -0.0455000028 0.0440454073
v -0.105835356 -0.0500000045 0.0439394936
v -0.105738744 -0.0545 0.04387006
v -0.105738744 -0.0455000028 0.04387006
v -0.105567709 -0.0500000045 0.04377517
v -0.105496936 -0.0545 0.0437447876
v -0.105496936 -0.0455000028 0.0437447876
v -0.105281532 -0.0500000045 0.04367968
v -0.10524565 -0.0545 0.043672543
v -0.105000004 -0.0500000045 0.04365
v -0.10524565 -0.0455000028 0.043672543
v -0.105000004 -0.0545 0.04365
v -0.105000004 -0.0455000028 0.04365
v -0.104754351 -0.0545 0.043672543
v -0.104754351 -0.0455000028 0.043672543
v -0.104718477 -0.0500000045 0.04367968
v -0.104503073 -0.0545 0.0437447876
v -0.104503073 -0.0455000028 0.0437447876
v -0.104503073 -0.0500000045 0.0437447876
v -0.104294606 -0.0500000045 0.0438489541
v -0.104261272 -0.0545 0.04387006
v -0.104261272 -0.0455000028 0.04387006
v -0.104103528 -0.0500000045 0.0439906456
v -0.104045413 -0.0545 0.0440454073
v -0.104045413 -0.0455000028 0.0440454073
v -0.103939489 -0.0500000045 0.04416465
v -0.103870064 -0.0545 0.04426127
v -0.103870064 -0.0455000028 0.04426127
v -0.103809915 -0.0500000045 0.04436268
v -0.10374479 -0.0545 0.0445030779
v -0.10374479 -0.0455000028 0.0445030779
v -0.10371878 -0.0500000045 0.04457461
v -0.103672534 -0.0545 0.04475435
v -0.103672534 -0.0455000028 0.04475435
v -0.103666425 -0.0500000045 0.0447901
v -0.10365 -0.0545 0.045
v -0.10365 -0.0455000028 0.045
v -0.103672534 -0.0545 0.0452456549
v -0.103679679 -0.0500000045 0.04528153
v -0.103672534 -0.0455000028 0.0452456549
v -0.10374479 -0.0545 0.04549693
v -0.10374479 -0.0455000028 0.04549693
v -0.103775173 -0.0500000045 0.0455677062
v -0.103870064 -0.0545 0.045738738
v -0.103870064 -0.0455000028 0.045738738
v -0.103939489 -0.0500000045 0.0458353534
v -0.104045413 -0.0545 0.0459546
v -0.104045413 -0.0455000028 0.0459546
v -0.104164645 -0.0500000045 0.0460605137
v -0.104261272 -0.0545 0.0461299419
v -0.104261272 -0.0455000028 0.0461299419
v -0.1044323 -0.0500000045 0.0462248363
v -0.104503073 -0.0545 0.046255216
v -0.104503073 -0.0455000028 0.046255216
v -0.104718477 -0.0500000045 0.04632032
v -0.104754351 -0.0545 0.0463274643
v -0.105000004 -0.0500000045 0.046350006
v -0.104754351 -0.0455000028 0.0463274643
v -0.105000004 -0.0545 0.046350006
v -0.105000004 -0.0455000028 0.046350006
v -0.10524565 -0.0545 0.0463274643
v -0.10524565 -0.0455000028 0.0463274643
v -0.105281532 -0.0500000045 0.04632032
v -0.105496936 -0.0545 0.046255216
v -0.105496936 -0.0455000028 0.046255216
v -0.105496936 -0.0500000045 0.046255216
v -0.1057054 -0.0500000045 0.04615105
v -0.105738744 -0.0545 0.0461299419
v -0.105738744 -0.0455000028 0.0461299419
v -0.105896488 -0.0500000045 0.04600936
v -0.105954595 -0.0545 0.0459546
v -0.105954595 -0.0455000028 0.0459546
v -0.10606052 -0.0500000045 0.0458353534
v -0.106129944 -0.0545 0.045738738
v -0.106129944 -0.0455000028 0.045738738
v -0.1061901 -0.0500000045 0.0456373245
v -0.106255226 -0.0545 0.04549693
v -0.106255226 -0.0455000028 0.04549693
v -0.106281228 -0.0500000045 0.0454253927
v -0.106327467 -0.0545 0.0452456549
v -0.106327467 -0.0455000028 0.0452456549
v -0.106333584 -0.0500000045 0.0452099
v -0.106350005 -0.0545 0.045
v -0.106350005 -0.0455000028 0.045
v -0.10365 -0.0545 0.100000009
v -0.103672534 -0.0545 0.09975436
v -0.10315 -0.0550000034 0.100000009
v -0.103481516 -0.05475 0.0994958356
v -0.10374479 -0.0545 0.09950307
v -0.103180893 -0.0550000034 0.09966338
v -0.1032799 -0.0550000034 0.09931903
v -0.103870064 -0.0545 0.09926127
v -0.103451565 -0.0550000034 0.09898767
v -0.103743106 -0.05475 0.09900995
v -0.104045413 -0.0545 0.09904541
v -0.104163975 -0.05475 0.09863581
v -0.103691861 -0.0550000034 0.0986918658
v -0.104261272 -0.0545 0.09887006
v -0.103987671 -0.0550000034 0.09845156
v -0.104503073 -0.0545 0.09874479
v -0.104319036 -0.0550000034 0.0982799
v -0.104666352 -0.05475 0.09843518
v -0.104754351 -0.0545 0.09867254
v -0.105000004 -0.05475 0.0984000042
v -0.104663379 -0.0550000034 0.09818089
v -0.105000004 -0.0545 0.09865
v -0.105000004 -0.0550000034 0.09815
v -0.10524565 -0.0545 0.09867254
v -0.105336636 -0.0550000034 0.09818089
v -0.105333656 -0.05475 0.09843518
v -0.105496936 -0.0545 0.09874479
v -0.105680972 -0.0550000034 0.0982799
v -0.105672844 -0.05475 0.09854835
v -0.105738744 -0.0545 0.09887006
v -0.106012337 -0.0550000034 0.09845156
v -0.105990052 -0.05475 0.0987431
v -0.105954595 -0.0545 0.09904541
v -0.106308155 -0.0550000034 0.0986918658
v -0.10625691 -0.05475 0.09900995
v -0.106129944 -0.0545 0.09926127
v -0.106548443 -0.0550000034 0.09898767
v -0.10645166 -0.05475 0.09932716
v -0.106255226 -0.0545 0.09950307
v -0.106720105 -0.0550000034 0.09931903
v -0.106564835 -0.05475 0.09966635
v -0.106327467 -0.0545 0.09975436
v -0.106819123 -0.0550000034 0.09966338
v -0.106350005 -0.0545 0.100000009
v -0.106850006 -0.0550000034 0.100000009
v -0.106350005 -0.0455000028 0.100000009
v -0.106350005 -0.0545 0.100000009
v -0.106327467 -0.0545 0.09975436
v -0.106320322 -0.0500000045 0.09971848
v -0.106327467 -0.0455000028 0.09975436
v -0.106255226 -0.0545 0.09950307
v -0.106255226 -0.0455000028 0.09950307
v -0.106224835 -0.0500000045 0.0994323045
v -0.106129944 -0.0545 0.09926127
v -0.106129944 -0.0455000028 0.09926127
v -0.10606052 -0.0500000045 0.09916466
v -0.105954595 -0.0545 0.09904541
v -0.105954595 -0.0455000028 0.09904541
v -0.105835356 -0.0500000045 0.09893949
v -0.105738744 -0.0545 0.09887006
v -0.105738744 -0.0455000028 0.09887006
v -0.105567709 -0.0500000045 0.09877517
v -0.105496936 -0.0545 0.09874479
v -0.105496936 -0.0455000028 0.09874479
v -0.105281532 -0.0500000045 0.09867968
v -0.10524565 -0.0545 0.09867254
v -0.105000004 -0.0500000045 0.09865
v -0.10524565 -0.0455000028 0.09867254
v -0.105000004 -0.0545 0.09865
v -0.105000004 -0.0455000028 0.09865
v -0.104754351 -0.0545 0.09867254
v -0.104754351 -0.0455000028 0.09867254
v -0.104718477 -0.0500000045 0.09867968
v -0.104503073 -0.0545 0.09874479
v -0.104503073 -0.0455000028 0.09874479
v -0.104503073 -0.0500000045 0.09874479
v -0.104294606 -0.0500000045 0.0988489538
v -0.104261272 -0.0545 0.09887006
v -0.104261272 -0.0455000028 0.09887006
v -0.104103528 -0.0500000045 0.09899065
v -0.104045413 -0.0545 0.09904541
v -0.104045413 -0.0455000028 0.09904541
v -0.103939489 -0.0500000045 0.09916466
v -0.103870064 -0.0545 0.09926127
v -0.103870064 -0.0455000028 0.09926127
v -0.103809915 -0.0500000045 0.09936269
v -0.10374479 -0.0545 0.09950307
v -0.10374479 -0.0455000028 0.09950307
v -0.10371878 -0.0500000045 0.09957462
v -0.103672534 -0.0545 0.09975436
v -0.103672534 -0.0455000028 0.09975436
v -0.103666425 -0.0500000045 0.0997901037
v -0.10365 -0.0545 0.100000009
v -0.10365 -0.0455000028 0.100000009
v -0.103672534 -0.0545 0.100245655
v -0.103679679 -0.0500000045 0.100281529
v -0.103672534 -0.0455000028 0.100245655
v -0.10374479 -0.0545 0.100496933
v -0.10374479 -0.0455000028 0.100496933
v -0.103775173 -0.0500000045 0.100567706
v -0.103870064 -0.0545 0.100738741
v -0.103870064 -0.0455000028 0.100738741
v -0.103939489 -0.0500000045 0.100835353
v -0.104045413 -0.0545 0.100954592
v -0.104045413 -0.0455000028 0.100954592
v -0.104164645 -0.0500000045 0.101060525
v -0.104261272 -0.0545 0.101129942
v -0.104261272 -0.0455000028 0.101129942
v -0.1044323 -0.0500000045 0.10122484
v -0.104503073 -0.0545 0.101255223
v -0.104503073 -0.0455000028 0.101255223
v -0.104718477 -0.0500000045 0.101320326
v -0.104754351 -0.0545 0.101327464
v -0.105000004 -0.0500000045 0.101350009
v -0.104754351 -0.0455000028 0.101327464
v -0.105000004 -0.0545 0.101350009
v -0.105000004 -0.0455000028 0.101350009
v -0.10524565 -0.0545 0.101327464
v -0.10524565 -0.0455000028 0.101327464
v -0.105281532 -0.0500000045 0.101320326
v -0.105496936 -0.0545 0.101255223
v -0.105496936 -0.0455000028 0.101255223
v -0.105496936 -0.0500000045 0.101255223
v -0.1057054 -0.0500000045 0.101151049
v -0.105738744 -0.0545 0.101129942
v -0.105738744 -0.0455000028 0.101129942
v -0.105896488 -0.0500000045 0.101009369
v -0.105954595 -0.0545 0.100954592
v -0.105954595 -0.0455000028 0.100954592
v -0.10606052 -0.0500000045 0.100835353
v -0.106129944 -0.0545 0.100738741
v -0.106129944 -0.0455000028 0.100738741
v -0.1061901 -0.0500000045 0.100637332
v -0.106255226 -0.0545 0.100496933
v -0.106255226 -0.0455000028 0.100496933
v -0.106281228 -0.0500000045 0.100425392
v -0.106327467 -0.0545 0.100245655
v -0.106327467 -0.0455000028 0.100245655
v -0.106333584 -0.0500000045 0.100209907
v -0.106350005 -0.0545 0.100000009
v -0.106350005 -0.0455000028 0.100000009
v -0.104261272 -0.0488700643 0.035
v -0.105000004 -0.0500000045 0.035
v -0.104503073 -0.04874479 0.035
v -0.104045413 -0.0490454063 0.035
v -0.104754351 -0.04867254 0.035
v -0.103870064 -0.04926127 0.035
v -0.105000004 -0.04865 0.035
v -0.10374479 -0.0495030768 0.035
v -0.10524565 -0.04867254 0.035
v -0.103672534 -0.0497543477 0.035
v -0.105496936 -0.04874479 0.035
v -0.10365 -0.0500000045 0.035
v -0.105738744 -0.0488700643 0.035
v -0.103672534 -0.0502456538 0.035
v -0.105954595 -0.0490454063 0.035
v -0.10374479 -0.05049693 0.035
v -0.106129944 -0.04926127 0.035
v -0.103870064 -0.050738737 0.035
v -0.106255226 -0.0495030768 0.035
v -0.104045413 -0.0509545952 0.035
v -0.106327467 -0.0497543477 0.035
v -0.104261272 -0.0511299446 0.035
v -0.106350005 -0.0500000045 0.035
v -0.104503073 -0.05125521 0.035
v -0.106327467 -0.0502456538 0.035
v -0.104754351 -0.0513274632 0.035
v -0.106255226 -0.05049693 0.035
v -0.105000004 -0.051350005 0.035
v -0.106129944 -0.050738737 0.035
v -0.10524565 -0.0513274632 0.035
v -0.105954595 -0.0509545952 0.035
v -0.105496936 -0.05125521 0.035
v -0.105738744 -0.0511299446 0.035
v -0.100000009 -0.0455000028 0.11500001
v -0.100000009 -0.0496997647 0.111622468
v -0.100000009 -0.049392648 0.111534148
v -0.100000009 -0.0490971059 0.111381046
v -0.100000009 -0.0488332734 0.111166731
v -0.100000009 -0.0486189574 0.110902905
v -0.100000009 -0.048465848 0.110607363
v -0.100000009 -0.04837755 0.110300243
v -0.100000009 -0.0500000045 0.111650005
v -0.100000009 -0.0483500026 0.110000007
v -0.100000009 -0.0545 0.11500001
v -0.100000009 -0.0503002442 0.111622468
v -0.100000009 -0.05060736 0.111534148
v -0.100000009 -0.0509028956 0.111381046
v -0.100000009 -0.05116673 0.111166731
v -0.100000009 -0.0513810478 0.110902905
v -0.100000009 -0.0515341535 0.110607363
v -0.100000009 -0.0516224578 0.110300243
v -0.100000009 -0.05165 0.110000007
v -0.100000009 -0.0483500026 0.0950000063
v -0.100000009 -0.0455000028 0.0105
v -0.100000009 -0.04837755 0.109699771
v -0.100000009 -0.05165 0.0950000063
v -0.100000009 -0.0516224578 0.109699771
v -0.100000009 -0.0545 0.0105
v -0.100000009 -0.0500000045 0.02335
v -0.100000009 -0.0503002442 0.0233775489
v -0.100000009 -0.05060736 0.02346585
v -0.100000009 -0.0496997647 0.0233775489
v -0.100000009 -0.049392648 0.02346585
v -0.100000009 -0.0509028956 0.0236189589
v -0.100000009 -0.0490971059 0.0236189589
v -0.100000009 -0.05116673 0.0238332748
v -0.100000009 -0.0488332734 0.0238332748
v -0.100000009 -0.0513810478 0.0240971055
v -0.100000009 -0.0486189574 0.0240971055
v -0.100000009 -0.0515341535 0.0243926439
v -0.100000009 -0.0516224578 0.0246997625
v -0.100000009 -0.048465848 0.0243926439
v -0.100000009 -0.04837755 0.0246997625
v -0.100000009 -0.0483500026 0.0250000022
v -0.100000009 -0.05165 0.0250000022
v -0.100000009 -0.04837755 0.0253002383
v -0.100000009 -0.0516224578 0.09469977
v -0.100000009 -0.0516224578 0.0253002383
v -0.100000009 -0.0500000045 0.0627500042
v -0.100000009 -0.0515341535 0.09439264
v -0.100000009 -0.0515341535 0.0256073587
v -0.100000009 -0.0513810478 0.09409711
v -0.100000009 -0.0513810478 0.0259028971
v -0.100000009 -0.05116673 0.09383328
v -0.100000009 -0.05116673 0.0261667259
v -0.100000009 -0.0509028956 0.09361896
v -0.100000009 -0.0509028956 0.0263810437
v -0.100000009 -0.05060736 0.09346586
v -0.100000009 -0.05060736 0.0265341513
v -0.100000009 -0.0503002442 0.0933775455
v -0.100000009 -0.0503002442 0.0266224537
v -0.100000009 -0.0500000045 0.09335
v -0.100000009 -0.0500000045 0.02665
v -0.100000009 -0.0496997647 0.0933775455
v -0.100000009 -0.0496997647 0.0266224537
v -0.100000009 -0.049392648 0.09346586
v -0.100000009 -0.049392648 0.0265341513
v -0.100000009 -0.0490971059 0.09361896
v -0.100000009 -0.0490971059 0.0263810437
v -0.100000009 -0.0488332734 0.09383328
v -0.100000009 -0.0488332734 0.0261667259
v -0.100000009 -0.0486189574 0.09409711
v -0.100000009 -0.0486189574 0.0259028971
v -0.100000009 -0.048465848 0.09439264
v -0.100000009 -0.048465848 0.0256073587
v -0.100000009 -0.04837755 0.09469977
v -0.100000009 -0.04837755 0.0953002349
v -0.100000009 -0.048465848 0.109392643
v -0.100000009 -0.048465848 0.0956073552
v -0.100000009 -0.0486189574 0.1090971
v -0.100000009 -0.0486189574 0.0959029049
v -0.100000009 -0.0488332734 0.09616673
v -0.100000009 -0.0488332734 0.108833276
v -0.100000009 -0.0490971059 0.0963810459
v -0.100000009 -0.0490971059 0.10861896
v -0.100000009 -0.049392648 0.0965341553
v -0.100000009 -0.049392648 0.108465858
v -0.100000009 -0.0496997647 0.09662247
v -0.100000009 -0.0496997647 0.108377554
v -0.100000009 -0.0500000045 0.0966500044
v -0.100000009 -0.0500000045 0.10835
v -0.100000009 -0.0503002442 0.108377554
v -0.100000009 -0.0503002442 0.09662247
v -0.100000009 -0.05060736 0.108465858
v -0.100000009 -0.05060736 0.0965341553
v -0.100000009 -0.0509028956 0.10861896
v -0.100000009 -0.0509028956 0.0963810459
v -0.100000009 -0.05116673 0.108833276
v -0.100000009 -0.05116673 0.09616673
v -0.100000009 -0.0513810478 0.1090971
v -0.100000009 -0.0513810478 0.0959029049
v -0.100000009 -0.0515341535 0.0956073552
v -0.100000009 -0.0515341535 0.109392643
v -0.100000009 -0.0516224578 0.0953002349
v -0.103691861 -0.045 0.0986918658
v -0.103451565 -0.045 0.09898767
v -0.105000004 -0.045 0.0627500042
v -0.103987671 -0.045 0.09845156
v -0.104319036 -0.045 0.0982799
v -0.104663379 -0.045 0.09818089
v -0.105000004 -0.045 0.09815
v -0.105336636 -0.045 0.09818089
v -0.105680972 -0.045 0.0982799
v -0.106012337 -0.045 0.09845156
v -0.106308155 -0.045 0.0986918658
v -0.106548443 -0.045 0.09898767
v -0.106720105 -0.045 0.09931903
v -0.1032799 -0.045 0.09931903
v -0.106720105 -0.045 0.0456809774
v -0.106819123 -0.045 0.09966338
v -0.106819123 -0.045 0.0453366339
v -0.106548443 -0.045 0.046012342
v -0.106850006 -0.045 0.100000009
v -0.106308155 -0.045 0.04630815
v -0.106012337 -0.045 0.04654844
v -0.105680972 -0.045 0.04672011
v -0.105336636 -0.045 0.0468191169
v -0.105000004 -0.045 0.04685
v -0.104663379 -0.045 0.0468191169
v -0.104319036 -0.045 0.04672011
v -0.103987671 -0.045 0.04654844
v -0.103691861 -0.045 0.04630815
v -0.103451565 -0.045 0.046012342
v -0.1032799 -0.045 0.0456809774
v -0.103180893 -0.045 0.0453366339
v -0.103180893 -0.045 0.09966338
v -0.10315 -0.045 0.045
v -0.10315 -0.045 0.100000009
v -0.1005 -0.045 0.11500001
v -0.103180893 -0.045 0.100336634
v -0.1032799 -0.045 0.10068097
v -0.103451565 -0.045 0.101012334
v -0.103691861 -0.045 0.101308152
v -0.103987671 -0.045 0.101548448
v -0.104319036 -0.045 0.10172011
v -0.104663379 -0.045 0.10181912
v -0.105000004 -0.045 0.10185
v -0.1005 -0.045 0.0105
v -0.103180893 -0.045 0.04466337
v -0.1032799 -0.045 0.0443190262
v -0.1095 -0.045 0.11500001
v -0.105336636 -0.045 0.10181912
v -0.105680972 -0.045 0.10172011
v -0.106012337 -0.045 0.101548448
v -0.103451565 -0.045 0.0439876653
v -0.106308155 -0.045 0.101308152
v -0.103691861 -0.045 0.04369186
v -0.106548443 -0.045 0.101012334
v -0.103987671 -0.045 0.04345156
v -0.106720105 -0.045 0.10068097
v -0.104319036 -0.045 0.0432798937
v -0.104663379 -0.045 0.0431808867
v -0.105000004 -0.045 0.043150004
v -0.1095 -0.045 0.0105
v -0.105336636 -0.045 0.0431808867
v -0.105680972 -0.045 0.0432798937
v -0.106819123 -0.045 0.100336634
v -0.106012337 -0.045 0.04345156
v -0.106308155 -0.045 0.04369186
v -0.106548443 -0.045 0.0439876653
v -0.106720105 -0.045 0.0443190262
v -0.106819123 -0.045 0.04466337
v -0.106850006 -0.045 0.045
v -0.1005 -0.0545 0.0100000007
v -0.104754351 -0.0513274632 0.0100000007
v -0.104503073 -0.05125521 0.0100000007
v -0.104261272 -0.0511299446 0.0100000007
v -0.104045413 -0.0509545952 0.0100000007
v -0.103870064 -0.050738737 0.0100000007
v -0.10374479 -0.05049693 0.0100000007
v -0.103672534 -0.0502456538 0.0100000007
v -0.105000004 -0.051350005 0.0100000007
v -0.10365 -0.0500000045 0.0100000007
v -0.110000007 -0.0545 0.0100000007
v -0.10524565 -0.0513274632 0.0100000007
v -0.105496936 -0.05125521 0.0100000007
v -0.1005 -0.0455000028 0.0100000007
v -0.103672534 -0.0497543477 0.0100000007
v -0.10374479 -0.0495030768 0.0100000007
v -0.105738744 -0.0511299446 0.0100000007
v -0.103870064 -0.04926127 0.0100000007
v -0.105954595 -0.0509545952 0.0100000007
v -0.104045413 -0.0490454063 0.0100000007
v -0.106129944 -0.050738737 0.0100000007
v -0.104261272 -0.0488700643 0.0100000007
v -0.106255226 -0.05049693 0.0100000007
v -0.106327467 -0.0502456538 0.0100000007
v -0.106350005 -0.0500000045 0.0100000007
v -0.110000007 -0.0455000028 0.0100000007
v -0.106327467 -0.0497543477 0.0100000007
v -0.106255226 -0.0495030768 0.0100000007
v -0.104503073 -0.04874479 0.0100000007
v -0.104754351 -0.04867254 0.0100000007
v -0.105000004 -0.04865 0.0100000007
v -0.106129944 -0.04926127 0.0100000007
v -0.10524565 -0.04867254 0.0100000007
v -0.105954595 -0.0490454063 0.0100000007
v -0.105496936 -0.04874479 0.0100000007
v -0.105738744 -0.0488700643 0.0100000007
v -0.10525 -0.05475 0.01025
v -0.1005 -0.0545 0.0100000007
v -0.1005 -0.0550000034 0.0105
v -0.1095 -0.0550000034 0.0105
v -0.110000007 -0.0545 0.0100000007
v -0.100250006 -0.05475 0.0627500042
v -0.100000009 -0.0545 0.0105
v -0.100000009 -0.0545 0.11500001
v -0.1005 -0.0550000034 0.11500001
v -0.1005 -0.0550000034 0.0105
v -0.100250006 -0.0500000045 0.01025
v -0.1005 -0.0545 0.0100000007
v -0.1005 -0.0455000028 0.0100000007
v -0.100000009 -0.0455000028 0.0105
v -0.100000009 -0.0545 0.0105
v -0.100250006 -0.0452500023 0.0627500042
v -0.1005 -0.045 0.0105
v -0.1005 -0.045 0.11500001
v -0.100000009 -0.0455000028 0.11500001
v -0.100000009 -0.0455000028 0.0105
v -0.10525 -0.0452500023 0.01025
v -0.1005 -0.045 0.0105
v -0.1005 -0.0455000028 0.0100000007
v -0.110000007 -0.0455000028 0.0100000007
v -0.1095 -0.045 0.0105
v -0.1005 -0.0545 0.0100000007
v -0.100250006 -0.0546250045 0.0103750005
v -0.1005 -0.0550000034 0.0105
v -0.100000009 -0.0545 0.0105
v -0.1005 -0.0550000034 0.11500001
v -0.104663379 -0.0550000034 0.10181912
v -0.104319036 -0.0550000034 0.10172011
v -0.103987671 -0.0550000034 0.101548448
v -0.103691861 -0.0550000034 0.101308152
v -0.103451565 -0.0550000034 0.101012334
v -0.1032799 -0.0550000034 0.10068097
v -0.103180893 -0.0550000034 0.100336634
v -0.105000004 -0.0550000034 0.10185
v -0.10315 -0.0550000034 0.100000009
v -0.1095 -0.0550000034 0.11500001
v -0.105336636 -0.0550000034 0.10181912
v -0.105680972 -0.0550000034 0.10172011
v -0.106012337 -0.0550000034 0.101548448
v -0.106308155 -0.0550000034 0.101308152
v -0.106548443 -0.0550000034 0.101012334
v -0.106720105 -0.0550000034 0.10068097
v -0.106819123 -0.0550000034 0.100336634
v -0.106850006 -0.0550000034 0.100000009
v -0.106850006 -0.0550000034 0.045
v -0.1095 -0.0550000034 0.0105
v -0.106819123 -0.0550000034 0.04466337
v -0.106720105 -0.0550000034 0.0443190262
v -0.106819123 -0.0550000034 0.09966338
v -0.106819123 -0.0550000034 0.0453366339
v -0.106548443 -0.0550000034 0.0439876653
v -0.106720105 -0.0550000034 0.09931903
v -0.106308155 -0.0550000034 0.04369186
v -0.106012337 -0.0550000034 0.04345156
v -0.105680972 -0.0550000034 0.0432798937
v -0.105336636 -0.0550000034 0.0431808867
v -0.105000004 -0.0550000034 0.043150004
v -0.1005 -0.0550000034 0.0105
v -0.104663379 -0.0550000034 0.0431808867
v -0.104319036 -0.0550000034 0.0432798937
v -0.103987671 -0.0550000034 0.04345156
v -0.103691861 -0.0550000034 0.04369186
v -0.103451565 -0.0550000034 0.0439876653
v -0.1032799 -0.0550000034 0.0443190262
v -0.103180893 -0.0550000034 0.04466337
v -0.10315 -0.0550000034 0.045
v -0.103180893 -0.0550000034 0.0453366339
v -0.103180893 -0.0550000034 0.09966338
v -0.1032799 -0.0550000034 0.0456809774
v -0.1032799 -0.0550000034 0.09931903
v -0.105000004 -0.0550000034 0.0627500042
v -0.103451565 -0.0550000034 0.09898767
v -0.103451565 -0.0550000034 0.046012342
v -0.103691861 -0.0550000034 0.0986918658
v -0.103691861 -0.0550000034 0.04630815
v -0.103987671 -0.0550000034 0.09845156
v -0.103987671 -0.0550000034 0.04654844
v -0.104319036 -0.0550000034 0.0982799
v -0.104319036 -0.0550000034 0.04672011
v -0.104663379 -0.0550000034 0.09818089
v -0.104663379 -0.0550000034 0.0468191169
v -0.105000004 -0.0550000034 0.09815
v -0.105000004 -0.0550000034 0.04685
v -0.105336636 -0.0550000034 0.09818089
v -0.105336636 -0.0550000034 0.0468191169
v -0.105680972 -0.0550000034 0.0982799
v -0.105680972 -0.0550000034 0.04672011
v -0.106012337 -0.0550000034 0.09845156
v -0.106012337 -0.0550000034 0.04654844
v -0.106308155 -0.0550000034 0.0986918658
v -0.106308155 -0.0550000034 0.04630815
v -0.106548443 -0.0550000034 0.09898767
v -0.106548443 -0.0550000034 0.046012342
v -0.106720105 -0.0550000034 0.0456809774
v -0.10975 -0.05475 0.0625
v -0.1095 -0.0550000034 0.11500001
v -0.110000007 -0.0545 0.11500001
v -0.110000007 -0.0545 0.0100000007
v -0.1095 -0.0550000034 0.0105
v -0.110000007 -0.0513810478 0.0259028971
v -0.110000007 -0.0515341535 0.0256073587
v -0.110000007 -0.0500000045 0.0625
v -0.110000007 -0.05116673 0.0261667259
v -0.110000007 -0.0509028956 0.0263810437
v -0.110000007 -0.05060736 0.0265341513
v -0.110000007 -0.0503002442 0.0266224537
v -0.110000007 -0.0500000045 0.02665
v -0.110000007 -0.0496997647 0.0266224537
v -0.110000007 -0.049392648 0.0265341513
v -0.110000007 -0.0490971059 0.0263810437
v -0.110000007 -0.0488332734 0.0261667259
v -0.110000007 -0.0486189574 0.0259028971
v -0.110000007 -0.048465848 0.0256073587
v -0.110000007 -0.04837755 0.0253002383
v -0.110000007 -0.0516224578 0.0253002383
v -0.110000007 -0.04837755 0.09469977
v -0.110000007 -0.0483500026 0.0250000022
v -0.110000007 -0.048465848 0.09439264
v -0.110000007 -0.0486189574 0.09409711
v -0.110000007 -0.0488332734 0.09383328
v -0.110000007 -0.0490971059 0.09361896
v -0.110000007 -0.049392648 0.09346586
v -0.110000007 -0.0496997647 0.0933775455
v -0.110000007 -0.0500000045 0.09335
v -0.110000007 -0.0503002442 0.0933775455
v -0.110000007 -0.05060736 0.09346586
v -0.110000007 -0.0509028956 0.09361896
v -0.110000007 -0.05116673 0.09383328
v -0.110000007 -0.0513810478 0.09409711
v -0.110000007 -0.0515341535 0.09439264
v -0.110000007 -0.0516224578 0.09469977
v -0.110000007 -0.05165 0.0950000063
v -0.110000007 -0.05165 0.0250000022
v -0.110000007 -0.0545 0.0100000007
v -0.110000007 -0.0516224578 0.0246997625
v -0.110000007 -0.0515341535 0.0243926439
v -0.110000007 -0.0513810478 0.0240971055
v -0.110000007 -0.05116673 0.0238332748
v -0.110000007 -0.0509028956 0.0236189589
v -0.110000007 -0.05060736 0.02346585
v -0.110000007 -0.0503002442 0.0233775489
v -0.110000007 -0.0500000045 0.02335
v -0.110000007 -0.0455000028 0.0100000007
v -0.110000007 -0.0496997647 0.0233775489
v -0.110000007 -0.049392648 0.02346585
v -0.110000007 -0.0490971059 0.0236189589
v -0.110000007 -0.0488332734 0.0238332748
v -0.110000007 -0.0486189574 0.0240971055
v -0.110000007 -0.048465848 0.0243926439
v -0.110000007 -0.04837755 0.0246997625
v -0.110000007 -0.0483500026 0.0950000063
v -0.110000007 -0.0455000028 0.11500001
v -0.110000007 -0.0483500026 0.110000007
v -0.110000007 -0.04837755 0.110300243
v -0.110000007 -0.048465848 0.110607363
v -0.110000007 -0.04837755 0.109699771
v -0.110000007 -0.04837755 0.0953002349
v -0.110000007 -0.048465848 0.109392643
v -0.110000007 -0.048465848 0.0956073552
v -0.110000007 -0.0486189574 0.110902905
v -0.110000007 -0.0486189574 0.1090971
v -0.110000007 -0.0486189574 0.0959029049
v -0.110000007 -0.0488332734 0.09616673
v -0.110000007 -0.0488332734 0.108833276
v -0.110000007 -0.0490971059 0.0963810459
v -0.110000007 -0.0490971059 0.10861896
v -0.110000007 -0.049392648 0.0965341553
v -0.110000007 -0.049392648 0.108465858
v -0.110000007 -0.0496997647 0.09662247
v -0.110000007 -0.0496997647 0.108377554
v -0.110000007 -0.0488332734 0.111166731
v -0.110000007 -0.0500000045 0.0966500044
v -0.110000007 -0.0500000045 0.10835
v -0.110000007 -0.0503002442 0.108377554
v -0.110000007 -0.0503002442 0.09662247
v -0.110000007 -0.05060736 0.108465858
v -0.110000007 -0.05060736 0.0965341553
v -0.110000007 -0.0509028956 0.10861896
v -0.110000007 -0.0509028956 0.0963810459
v -0.110000007 -0.05116673 0.108833276
v -0.110000007 -0.05116673 0.09616673
v -0.110000007 -0.0490971059 0.111381046
v -0.110000007 -0.0513810478 0.1090971
v -0.110000007 -0.0513810478 0.0959029049
v -0.110000007 -0.0515341535 0.0956073552
v -0.110000007 -0.0515341535 0.109392643
v -0.110000007 -0.0516224578 0.0953002349
v -0.110000007 -0.0516224578 0.109699771
v -0.110000007 -0.049392648 0.111534148
v -0.110000007 -0.0496997647 0.111622468
v -0.110000007 -0.0500000045 0.111650005
v -0.110000007 -0.0545 0.11500001
v -0.110000007 -0.0503002442 0.111622468
v -0.110000007 -0.05060736 0.111534148
v -0.110000007 -0.0509028956 0.111381046
v -0.110000007 -0.05116673 0.111166731
v -0.110000007 -0.0513810478 0.110902905
v -0.110000007 -0.0515341535 0.110607363
v -0.110000007 -0.0516224578 0.110300243
v -0.110000007 -0.05165 0.110000007
v -0.10975 -0.0452500023 0.0625
v -0.110000007 -0.0455000028 0.11500001
v -0.1095 -0.045 0.11500001
v -0.1095 -0.045 0.0105
v -0.110000007 -0.0455000028 0.0100000007
v -0.1005 -0.0455000028 0.0100000007
v -0.100250006 -0.045375 0.0103750005
v -0.100000009 -0.0455000028 0.0105
v -0.1005 -0.045 0.0105
v -0.110000007 -0.0545 0.11500001
v -0.105000004 -0.0500000045 0.11500001
v -0.110000007 -0.0455000028 0.11500001
v -0.1095 -0.0550000034 0.11500001
v -0.1095 -0.045 0.11500001
v -0.1005 -0.0550000034 0.11500001
v -0.1005 -0.045 0.11500001
v -0.100000009 -0.0545 0.11500001
v -0.100000009 -0.0455000028 0.11500001
f 1 2 3
f 4 1 3
f 4 3 5
f 1 4 6
f 7 4 5
f 4 7 6
f 7 5 8
f 6 7 9
f 10 7 8
f 7 10 9
f 10 8 11
f 9 10 12
f 13 10 11
f 10 13 12
f 13 11 14
f 12 13 15
f 16 13 14
f 13 16 15
f 16 14 17
f 15 16 18
f 19 16 17
f 16 19 18
f 19 17 20
f 18 19 21
f 19 20 22
f 21 19 22
f 20 23 22
f 21 22 24
f 23 24 22
f 23 25 24
f 26 21 24
f 26 24 25
f 25 23 27
f 28 26 25
f 25 27 29
f 30 28 25
f 31 25 29
f 30 25 31
f 31 29 32
f 33 30 31
f 34 31 32
f 33 31 34
f 34 32 35
f 36 33 34
f 37 34 35
f 36 34 37
f 37 35 38
f 39 36 37
f 40 37 38
f 39 37 40
f 40 38 41
f 42 39 40
f 43 40 41
f 42 40 43
f 43 41 44
f 45 42 43
f 46 43 44
f 45 43 46
f 46 44 47
f 46 47 48
f 49 45 46
f 50 46 48
f 49 46 50
f 51 49 50
f 50 52 51
f 52 53 51
f 52 54 53
f 51 53 55
f 54 56 53
f 53 56 55
f 54 57 56
f 55 56 58
f 57 59 56
f 56 59 58
f 57 60 59
f 58 59 61
f 60 62 59
f 59 62 61
f 60 63 62
f 61 62 64
f 63 65 62
f 62 65 64
f 63 66 65
f 64 65 67
f 66 68 65
f 65 68 67
f 66 69 68
f 67 68 70
f 69 71 68
f 68 71 70
f 69 72 71
f 71 73 70
f 72 73 71
f 72 74 73
f 73 75 70
f 74 75 73
f 74 72 76
f 74 77 75
f 78 74 76
f 77 74 79
f 74 78 80
f 74 80 79
f 78 81 80
f 79 80 82
f 81 83 80
f 80 83 82
f 81 84 83
f 82 83 85
f 84 86 83
f 83 86 85
f 84 87 86
f 85 86 88
f 87 89 86
f 86 89 88
f 87 90 89
f 88 89 91
f 90 92 89
f 89 92 91
f 90 93 92
f 91 92 94
f 93 95 92
f 92 95 94
f 93 96 95
f 96 97 95
f 94 95 98
f 97 99 95
f 99 98 95
f 99 100 98
f 101 102 103
f 101 103 104
f 105 101 104
f 104 103 106
f 107 105 104
f 104 106 108
f 109 107 104
f 110 104 108
f 109 104 110
f 110 108 111
f 112 110 111
f 113 109 110
f 113 110 112
f 112 111 114
f 115 113 112
f 112 114 116
f 117 115 112
f 118 112 116
f 117 112 118
f 118 116 119
f 120 118 119
f 121 117 118
f 121 118 120
f 120 119 122
f 123 121 120
f 120 122 124
f 125 123 120
f 126 120 124
f 125 120 126
f 126 124 127
f 128 125 126
f 129 126 127
f 128 126 129
f 129 127 130
f 131 128 129
f 132 129 130
f 131 129 132
f 132 130 133
f 134 131 132
f 135 132 133
f 134 132 135
f 135 133 136
f 137 134 135
f 138 135 136
f 137 135 138
f 138 136 139
f 140 137 138
f 141 138 139
f 140 138 141
f 141 139 142
f 143 140 141
f 144 141 142
f 143 141 144
f 145 143 144
f 144 146 145
f 146 147 145
f 146 148 147
f 145 147 149
f 147 150 149
f 148 151 147
f 147 152 150
f 151 153 147
f 147 153 152
f 151 154 153
f 154 155 153
f 153 156 152
f 153 155 156
f 154 157 155
f 155 158 156
f 157 159 155
f 155 160 158
f 159 161 155
f 155 161 160
f 159 162 161
f 162 163 161
f 161 164 160
f 161 163 164
f 162 165 163
f 163 166 164
f 165 167 163
f 163 168 166
f 167 169 163
f 163 169 168
f 167 170 169
f 169 171 168
f 170 172 169
f 169 172 171
f 170 173 172
f 172 174 171
f 173 175 172
f 172 175 174
f 173 176 175
f 175 177 174
f 176 178 175
f 175 178 177
f 176 179 178
f 178 180 177
f 179 181 178
f 178 181 180
f 179 182 181
f 181 183 180
f 182 184 181
f 181 184 183
f 182 185 184
f 184 186 183
f 185 187 184
f 187 186 184
f 187 188 186
f 189 190 191
f 189 191 192
f 193 189 192
f 192 191 194
f 195 193 192
f 192 194 196
f 197 195 192
f 198 192 196
f 197 192 198
f 198 196 199
f 200 198 199
f 201 197 198
f 201 198 200
f 200 199 202
f 203 201 200
f 200 202 204
f 205 203 200
f 206 200 204
f 205 200 206
f 206 204 207
f 208 206 207
f 209 205 206
f 209 206 208
f 208 207 210
f 211 209 208
f 208 210 212
f 213 211 208
f 214 208 212
f 213 208 214
f 214 212 215
f 216 213 214
f 217 214 215
f 216 214 217
f 217 215 218
f 219 216 217
f 220 217 218
f 219 217 220
f 220 218 221
f 222 219 220
f 223 220 221
f 222 220 223
f 223 221 224
f 225 222 223
f 226 223 224
f 225 223 226
f 226 224 227
f 228 225 226
f 229 226 227
f 228 226 229
f 229 227 230
f 231 228 229
f 232 229 230
f 231 229 232
f 233 231 232
f 232 234 233
f 234 235 233
f 234 236 235
f 233 235 237
f 235 238 237
f 236 239 235
f 235 240 238
f 239 241 235
f 235 241 240
f 239 242 241
f 242 243 241
f 241 244 240
f 241 243 244
f 242 245 243
f 243 246 244
f 245 247 243
f 243 248 246
f 247 249 243
f 243 249 248
f 247 250 249
f 250 251 249
f 249 252 248
f 249 251 252
f 250 253 251
f 251 254 252
f 253 255 251
f 251 256 254
f 255 257 251
f 251 257 256
f 255 258 257
f 257 259 256
f 258 260 257
f 257 260 259
f 258 261 260
f 260 262 259
f 261 263 260
f 260 263 262
f 261 264 263
f 263 265 262
f 264 266 263
f 263 266 265
f 264 267 266
f 266 268 265
f 267 269 266
f 266 269 268
f 267 270 269
f 269 271 268
f 270 272 269
f 269 272 271
f 270 273 272
f 272 274 271
f 273 275 272
f 275 274 272
f 275 276 274
f 277 278 279
f 278 280 279
f 279 280 281
f 278 282 280
f 280 283 281
f 282 284 280
f 280 284 283
f 282 285 284
f 284 286 283
f 285 287 284
f 284 287 286
f 285 288 287
f 287 289 286
f 288 290 287
f 287 290 289
f 288 291 290
f 290 292 289
f 291 293 290
f 290 293 292
f 291 294 293
f 293 295 292
f 294 296 293
f 293 296 295
f 294 297 296
f 297 298 296
f 296 299 295
f 296 298 299
f 297 300 298
f 298 301 299
f 300 302 298
f 298 303 301
f 302 304 298
f 298 304 303
f 302 305 304
f 305 306 304
f 304 307 303
f 304 306 307
f 305 308 306
f 306 309 307
f 308 310 306
f 306 311 309
f 310 312 306
f 306 312 311
f 310 313 312
f 313 314 312
f 312 315 311
f 312 314 315
f 313 316 314
f 314 317 315
f 316 318 314
f 314 319 317
f 318 320 314
f 320 319 314
f 320 321 319
f 322 323 324
f 323 325 324
f 324 325 326
f 323 327 325
f 325 328 326
f 327 329 325
f 325 329 328
f 327 330 329
f 329 331 328
f 330 332 329
f 329 332 331
f 330 333 332
f 332 334 331
f 333 335 332
f 332 335 334
f 333 336 335
f 335 337 334
f 336 338 335
f 335 338 337
f 336 339 338
f 338 340 337
f 339 341 338
f 338 341 340
f 339 342 341
f 342 343 341
f 341 344 340
f 341 343 344
f 342 345 343
f 343 346 344
f 345 347 343
f 343 348 346
f 347 349 343
f 343 349 348
f 347 350 349
f 350 351 349
f 349 352 348
f 349 351 352
f 350 353 351
f 351 354 352
f 353 355 351
f 351 356 354
f 355 357 351
f 351 357 356
f 355 358 357
f 358 359 357
f 357 360 356
f 357 359 360
f 358 361 359
f 359 362 360
f 361 363 359
f 359 364 362
f 363 365 359
f 365 364 359
f 365 366 364
f 367 368 369
f 367 369 370
f 371 367 370
f 372 370 369
f 373 371 370
f 374 370 372
f 373 370 374
f 375 374 372
f 376 373 374
f 377 374 375
f 377 376 374
f 378 377 375
f 379 378 375
f 380 379 375
f 381 376 377
f 376 381 382
f 376 382 383
f 384 376 383
f 383 385 384
f 380 375 386
f 387 380 386
f 388 387 386
f 388 386 389
f 390 388 389
f 390 389 391
f 392 390 391
f 392 391 393
f 394 392 393
f 385 395 384
f 385 396 395
f 396 397 395
f 397 398 395
f 397 399 398
f 399 400 398
f 399 401 400
f 394 393 402
f 403 394 402
f 404 403 402
f 404 402 405
f 406 404 405
f 406 405 407
f 408 406 407
f 401 409 400
f 401 410 409
f 410 411 409
f 411 412 409
f 411 413 412
f 413 414 412
f 413 415 414
f 415 416 414
f 415 417 416
f 408 407 418
f 419 408 418
f 420 419 418
f 420 418 421
f 422 420 421
f 417 423 416
f 417 424 423
f 424 425 423
f 422 421 426
f 425 427 423
f 428 422 426
f 425 429 427
f 430 428 426
f 429 431 427
f 432 430 426
f 431 432 427
f 433 432 426
f 432 433 427
f 433 426 434
f 427 433 435
f 436 433 434
f 433 436 435
f 436 434 437
f 435 436 438
f 439 436 437
f 436 439 438
f 439 437 440
f 438 439 441
f 439 440 441
f 441 440 442
f 441 442 443
f 444 441 443
f 445 443 442
f 446 444 443
f 447 443 445
f 446 443 447
f 448 447 445
f 449 446 447
f 447 448 450
f 449 447 450
f 448 451 450
f 448 452 451
f 452 448 453
f 454 449 450
f 449 454 455
f 449 455 456
f 457 449 456
f 457 456 458
f 448 459 453
f 459 460 453
f 459 461 460
f 459 462 461
f 462 463 461
f 462 464 463
f 464 465 463
f 464 466 465
f 466 467 465
f 468 457 458
f 468 458 469
f 468 469 470
f 471 468 470
f 471 470 472
f 473 471 472
f 473 472 474
f 466 475 467
f 475 476 467
f 475 477 476
f 475 478 477
f 478 479 477
f 478 480 479
f 480 481 479
f 482 473 474
f 482 474 483
f 482 483 484
f 485 482 484
f 485 484 486
f 487 485 486
f 487 486 488
f 489 487 488
f 489 488 490
f 480 491 481
f 491 492 481
f 491 493 492
f 491 494 493
f 494 495 493
f 496 489 490
f 496 490 497
f 496 497 498
f 494 499 495
f 500 496 498
f 499 501 495
f 500 498 502
f 499 503 501
f 504 500 502
f 503 499 505
f 504 505 500
f 505 499 506
f 505 506 500
f 499 507 506
f 508 500 506
f 507 509 506
f 508 506 509
f 507 510 509
f 511 508 509
f 510 512 509
f 511 509 512
f 510 513 512
f 514 511 512
f 513 514 512
f 515 516 517
f 515 517 518
f 519 515 518
f 518 517 520
f 521 519 518
f 522 518 520
f 521 518 522
f 522 520 523
f 524 521 522
f 525 522 523
f 524 522 525
f 525 523 526
f 527 524 525
f 528 525 526
f 527 525 528
f 528 526 529
f 530 527 528
f 531 528 529
f 530 528 531
f 531 529 532
f 533 530 531
f 534 531 532
f 533 531 534
f 534 532 535
f 536 534 535
f 537 533 534
f 537 534 536
f 536 535 538
f 539 537 536
f 540 536 538
f 541 539 536
f 542 536 540
f 541 536 542
f 543 542 540
f 544 541 542
f 545 542 543
f 545 544 542
f 546 545 543
f 545 546 544
f 546 543 547
f 546 548 544
f 549 546 547
f 546 549 548
f 549 547 550
f 549 551 548
f 552 549 550
f 549 552 551
f 552 550 553
f 552 554 551
f 555 552 553
f 552 555 554
f 555 553 556
f 555 557 554
f 558 555 556
f 555 558 557
f 558 556 559
f 558 560 557
f 561 558 559
f 558 561 560
f 561 559 562
f 560 561 563
f 561 562 563
f 562 564 563
f 564 565 563
f 563 565 566
f 564 567 565
f 565 568 566
f 567 569 565
f 565 569 568
f 567 570 569
f 569 571 568
f 570 572 569
f 569 572 571
f 570 573 572
f 572 574 571
f 573 575 572
f 572 575 574
f 573 576 575
f 575 577 574
f 576 578 575
f 575 578 577
f 576 579 578
f 578 580 577
f 579 581 578
f 578 581 580
f 579 582 581
f 582 583 581
f 581 584 580
f 581 583 584
f 582 585 583
f 583 586 584
f 585 587 583
f 583 588 586
f 587 589 583
f 583 589 588
f 587 590 589
f 589 591 588
f 590 592 589
f 589 592 591
f 590 593 592
f 593 591 592
f 594 593 590
f 593 595 591
f 596 593 594
f 593 596 595
f 597 596 594
f 596 598 595
f 599 596 597
f 596 599 598
f 600 599 597
f 599 601 598
f 602 599 600
f 599 602 601
f 603 602 600
f 602 604 601
f 605 602 603
f 602 605 604
f 606 605 603
f 605 607 604
f 608 605 606
f 605 608 607
f 609 608 606
f 608 610 607
f 608 609 610
f 611 612 613
f 612 614 613
f 614 612 615
f 613 614 616
f 614 615 617
f 614 618 616
f 619 614 617
f 614 619 618
f 619 617 620
f 619 621 618
f 622 619 620
f 619 622 621
f 622 620 623
f 622 624 621
f 625 622 623
f 622 625 624
f 625 623 626
f 625 627 624
f 628 625 626
f 625 628 627
f 628 626 629
f 628 630 627
f 631 628 629
f 628 631 630
f 631 629 632
f 633 631 632
f 631 634 630
f 631 633 634
f 633 632 635
f 633 636 634
f 633 637 636
f 633 635 638
f 633 639 637
f 639 633 638
f 639 640 637
f 639 638 641
f 640 639 641
f 642 641 638
f 640 641 643
f 643 641 642
f 644 640 643
f 645 643 642
f 644 643 646
f 646 643 645
f 647 644 646
f 648 646 645
f 647 646 649
f 649 646 648
f 650 647 649
f 651 649 648
f 650 649 652
f 652 649 651
f 653 650 652
f 654 652 651
f 653 652 655
f 655 652 654
f 656 653 655
f 657 655 654
f 658 656 655
f 658 655 657
f 659 658 657
f 658 659 660
f 656 658 661
f 658 660 661
f 660 662 661
f 662 663 661
f 662 664 663
f 661 663 665
f 664 666 663
f 663 667 665
f 666 668 663
f 663 668 667
f 666 669 668
f 668 670 667
f 669 671 668
f 668 671 670
f 669 672 671
f 671 673 670
f 672 674 671
f 671 674 673
f 672 675 674
f 674 676 673
f 675 677 674
f 674 677 676
f 675 678 677
f 677 679 676
f 678 680 677
f 677 680 679
f 678 681 680
f 681 682 680
f 680 683 679
f 680 682 683
f 681 684 682
f 682 685 683
f 682 686 685
f 684 687 682
f 682 688 686
f 687 688 682
f 688 689 686
f 687 690 688
f 690 689 688
f 690 687 691
f 690 692 689
f 692 690 691
f 692 693 689
f 692 691 694
f 692 695 693
f 695 692 694
f 695 696 693
f 695 694 697
f 695 698 696
f 698 695 697
f 698 699 696
f 698 697 700
f 698 701 699
f 701 698 700
f 701 702 699
f 701 700 703
f 701 704 702
f 704 701 703
f 704 705 702
f 704 703 706
f 704 707 705
f 707 704 706
f 707 708 705
f 707 706 709
f 707 710 708
f 710 707 709
f 711 712 713
f 711 713 714
f 715 711 714
f 714 713 716
f 717 715 714
f 718 714 716
f 717 714 718
f 718 716 719
f 720 717 718
f 721 718 719
f 720 718 721
f 721 719 722
f 723 720 721
f 724 721 722
f 723 721 724
f 724 722 725
f 726 723 724
f 727 724 725
f 726 724 727
f 727 725 728
f 729 726 727
f 730 727 728
f 729 727 730
f 730 728 731
f 732 730 731
f 733 729 730
f 733 730 732
f 732 731 734
f 735 733 732
f 736 732 734
f 737 735 732
f 738 732 736
f 737 732 738
f 739 738 736
f 740 737 738
f 741 738 739
f 741 740 738
f 742 741 739
f 741 742 740
f 742 739 743
f 742 744 740
f 745 742 743
f 742 745 744
f 745 743 746
f 745 747 744
f 748 745 746
f 745 748 747
f 748 746 749
f 748 750 747
f 751 748 749
f 748 751 750
f 751 749 752
f 751 753 750
f 754 751 752
f 751 754 753
f 754 752 755
f 754 756 753
f 757 754 755
f 754 757 756
f 757 755 758
f 756 757 759
f 757 758 759
f 758 760 759
f 760 761 759
f 759 761 762
f 760 763 761
f 761 764 762
f 763 765 761
f 761 765 764
f 763 766 765
f 765 767 764
f 766 768 765
f 765 768 767
f 766 769 768
f 768 770 767
f 769 771 768
f 768 771 770
f 769 772 771
f 771 773 770
f 772 774 771
f 771 774 773
f 772 775 774
f 774 776 773
f 775 777 774
f 774 777 776
f 775 778 777
f 778 779 777
f 777 780 776
f 777 779 780
f 778 781 779
f 779 782 780
f 781 783 779
f 779 784 782
f 783 785 779
f 779 785 784
f 783 786 785
f 785 787 784
f 786 788 785
f 785 788 787
f 786 789 788
f 789 787 788
f 790 789 786
f 789 791 787
f 792 789 790
f 789 792 791
f 793 792 790
f 792 794 791
f 795 792 793
f 792 795 794
f 796 795 793
f 795 797 794
f 798 795 796
f 795 798 797
f 799 798 796
f 798 800 797
f 801 798 799
f 798 801 800
f 802 801 799
f 801 803 800
f 804 801 802
f 801 804 803
f 805 804 802
f 804 806 803
f 804 805 806
f 807 808 809
f 808 810 809
f 808 811 810
f 809 810 812
f 810 813 812
f 811 814 810
f 810 815 813
f 814 816 810
f 810 816 815
f 814 817 816
f 817 818 816
f 816 819 815
f 816 818 819
f 817 820 818
f 818 821 819
f 820 822 818
f 818 823 821
f 822 824 818
f 818 824 823
f 822 825 824
f 825 826 824
f 824 827 823
f 824 826 827
f 825 828 826
f 826 829 827
f 828 830 826
f 826 831 829
f 830 832 826
f 826 832 831
f 830 833 832
f 832 834 831
f 833 835 832
f 832 835 834
f 833 836 835
f 835 837 834
f 836 838 835
f 835 838 837
f 836 839 838
f 838 840 837
f 839 841 838
f 838 841 840
f 839 842 841
f 841 843 840
f 842 844 841
f 841 844 843
f 842 845 844
f 844 846 843
f 845 847 844
f 844 847 846
f 845 848 847
f 847 849 846
f 848 850 847
f 850 849 847
f 850 851 849
f 852 853 854
f 852 854 855
f 856 852 855
f 855 854 857
f 858 856 855
f 859 855 857
f 858 855 859
f 859 857 860
f 861 858 859
f 862 859 860
f 861 859 862
f 862 860 863
f 864 861 862
f 865 862 863
f 864 862 865
f 865 863 866
f 867 864 865
f 868 865 866
f 867 865 868
f 868 866 869
f 870 867 868
f 871 868 869
f 870 868 871
f 871 869 872
f 873 871 872
f 874 870 871
f 874 871 873
f 873 872 875
f 876 874 873
f 877 873 875
f 878 876 873
f 879 873 877
f 878 873 879
f 880 879 877
f 881 878 879
f 882 879 880
f 882 881 879
f 883 882 880
f 882 883 881
f 883 880 884
f 883 885 881
f 886 883 884
f 883 886 885
f 886 884 887
f 886 888 885
f 889 886 887
f 886 889 888
f 889 887 890
f 889 891 888
f 892 889 890
f 889 892 891
f 892 890 893
f 892 894 891
f 895 892 893
f 892 895 894
f 895 893 896
f 895 897 894
f 898 895 896
f 895 898 897
f 898 896 899
f 897 898 900
f 898 899 900
f 899 901 900
f 901 902 900
f 900 902 903
f 901 904 902
f 902 905 903
f 904 906 902
f 902 906 905
f 904 907 906
f 906 908 905
f 907 909 906
f 906 909 908
f 907 910 909
f 909 911 908
f 910 912 909
f 909 912 911
f 910 913 912
f 912 914 911
f 913 915 912
f 912 915 914
f 913 916 915
f 915 917 914
f 916 918 915
f 915 918 917
f 916 919 918
f 919 920 918
f 918 921 917
f 918 920 921
f 919 922 920
f 920 923 921
f 922 924 920
f 920 925 923
f 924 926 920
f 920 926 925
f 924 927 926
f 926 928 925
f 927 929 926
f 926 929 928
f 927 930 929
f 930 928 929
f 931 930 927
f 930 932 928
f 933 930 931
f 930 933 932
f 934 933 931
f 933 935 932
f 936 933 934
f 933 936 935
f 937 936 934
f 936 938 935
f 939 936 937
f 936 939 938
f 940 939 937
f 939 941 938
f 942 939 940
f 939 942 941
f 943 942 940
f 942 944 941
f 945 942 943
f 942 945 944
f 946 945 943
f 945 947 944
f 945 946 947
f 948 949 950
f 949 951 950
f 949 952 951
f 950 951 953
f 951 954 953
f 952 955 951
f 951 956 954
f 955 957 951
f 951 957 956
f 955 958 957
f 958 959 957
f 957 960 956
f 957 959 960
f 958 961 959
f 959 962 960
f 961 963 959
f 959 964 962
f 963 965 959
f 959 965 964
f 963 966 965
f 966 967 965
f 965 968 964
f 965 967 968
f 966 969 967
f 967 970 968
f 969 971 967
f 967 972 970
f 971 973 967
f 967 973 972
f 971 974 973
f 973 975 972
f 974 976 973
f 973 976 975
f 974 977 976
f 976 978 975
f 977 979 976
f 976 979 978
f 977 980 979
f 979 981 978
f 980 982 979
f 979 982 981
f 980 983 982
f 982 984 981
f 983 985 982
f 982 985 984
f 983 986 985
f 985 987 984
f 986 988 985
f 985 988 987
f 986 989 988
f 988 990 987
f 989 991 988
f 991 990 988
f 991 992 990
f 993 994 995
f 993 995 996
f 997 993 996
f 996 995 998
f 999 997 996
f 1000 996 998
f 999 996 1000
f 1000 998 1001
f 1002 999 1000
f 1003 1000 1001
f 1002 1000 1003
f 1003 1001 1004
f 1005 1002 1003
f 1006 1003 1004
f 1005 1003 1006
f 1006 1004 1007
f 1008 1005 1006
f 1009 1006 1007
f 1008 1006 1009
f 1009 1007 1010
f 1011 1008 1009
f 1012 1009 1010
f 1011 1009 1012
f 1012 1010 1013
f 1014 1012 1013
f 1015 1011 1012
f 1015 1012 1014
f 1014 1013 1016
f 1017 1015 1014
f 1018 1014 1016
f 1019 1017 1014
f 1020 1014 1018
f 1019 1014 1020
f 1021 1020 1018
f 1022 1019 1020
f 1023 1020 1021
f 1023 1022 1020
f 1024 1023 1021
f 1023 1024 1022
f 1024 1021 1025
f 1024 1026 1022
f 1027 1024 1025
f 1024 1027 1026
f 1027 1025 1028
f 1027 1029 1026
f 1030 1027 1028
f 1027 1030 1029
f 1030 1028 1031
f 1030 1032 1029
f 1033 1030 1031
f 1030 1033 1032
f 1033 1031 1034
f 1033 1035 1032
f 1036 1033 1034
f 1033 1036 1035
f 1036 1034 1037
f 1036 1038 1035
f 1039 1036 1037
f 1036 1039 1038
f 1039 1037 1040
f 1038 1039 1041
f 1039 1040 1041
f 1040 1042 1041
f 1042 1043 1041
f 1041 1043 1044
f 1042 1045 1043
f 1043 1046 1044
f 1045 1047 1043
f 1043 1047 1046
f 1045 1048 1047
f 1047 1049 1046
f 1048 1050 1047
f 1047 1050 1049
f 1048 1051 1050
f 1050 1052 1049
f 1051 1053 1050
f 1050 1053 1052
f 1051 1054 1053
f 1053 1055 1052
f 1054 1056 1053
f 1053 1056 1055
f 1054 1057 1056
f 1056 1058 1055
f 1057 1059 1056
f 1056 1059 1058
f 1057 1060 1059
f 1060 1061 1059
f 1059 1062 1058
f 1059 1061 1062
f 1060 1063 1061
f 1061 1064 1062
f 1063 1065 1061
f 1061 1066 1064
f 1065 1067 1061
f 1061 1067 1066
f 1065 1068 1067
f 1067 1069 1066
f 1068 1070 1067
f 1067 1070 1069
f 1068 1071 1070
f 1071 1069 1070
f 1072 1071 1068
f 1071 1073 1069
f 1074 1071 1072
f 1071 1074 1073
f 1075 1074 1072
f 1074 1076 1073
f 1077 1074 1075
f 1074 1077 1076
f 1078 1077 1075
f 1077 1079 1076
f 1080 1077 1078
f 1077 1080 1079
f 1081 1080 1078
f 1080 1082 1079
f 1083 1080 1081
f 1080 1083 1082
f 1084 1083 1081
f 1083 1085 1082
f 1086 1083 1084
f 1083 1086 1085
f 1087 1086 1084
f 1086 1088 1085
f 1086 1087 1088
f 1089 1090 1091
f 1090 1089 1092
f 1090 1093 1091
f 1090 1092 1094
f 1093 1090 1095
f 1096 1090 1094
f 1090 1097 1095
f 1090 1096 1098
f 1090 1099 1097
f 1090 1098 1100
f 1099 1090 1101
f 1102 1090 1100
f 1090 1103 1101
f 1090 1102 1104
f 1090 1105 1103
f 1090 1104 1106
f 1105 1090 1107
f 1108 1090 1106
f 1090 1109 1107
f 1090 1108 1110
f 1090 1111 1109
f 1090 1110 1112
f 1111 1090 1113
f 1114 1090 1112
f 1090 1115 1113
f 1090 1114 1116
f 1090 1117 1115
f 1090 1116 1118
f 1117 1090 1119
f 1120 1090 1118
f 1090 1121 1119
f 1090 1120 1121
f 1122 1123 1124
f 1122 1124 1125
f 1126 1122 1125
f 1122 1126 1127
f 1122 1127 1128
f 1129 1122 1128
f 1123 1122 1130
f 1122 1129 1131
f 1122 1132 1130
f 1132 1133 1130
f 1132 1134 1133
f 1135 1134 1132
f 1136 1135 1132
f 1137 1136 1132
f 1138 1137 1132
f 1139 1138 1132
f 1140 1139 1132
f 1122 1131 1141
f 1142 1122 1141
f 1131 1143 1141
f 1140 1132 1144
f 1145 1140 1144
f 1132 1146 1144
f 1146 1142 1147
f 1148 1146 1147
f 1146 1148 1149
f 1142 1150 1147
f 1142 1151 1150
f 1146 1149 1152
f 1151 1142 1153
f 1154 1146 1152
f 1142 1155 1153
f 1146 1154 1156
f 1142 1157 1155
f 1146 1156 1158
f 1159 1146 1158
f 1157 1142 1160
f 1142 1161 1160
f 1142 1162 1161
f 1146 1159 1163
f 1142 1141 1162
f 1146 1163 1144
f 1141 1164 1162
f 1144 1163 1165
f 1165 1163 1166
f 1165 1166 1167
f 1168 1165 1167
f 1167 1166 1169
f 1170 1168 1167
f 1171 1167 1169
f 1172 1170 1167
f 1167 1171 1173
f 1174 1172 1167
f 1167 1173 1175
f 1176 1174 1167
f 1177 1167 1175
f 1178 1176 1167
f 1167 1177 1179
f 1180 1178 1167
f 1167 1179 1181
f 1182 1180 1167
f 1183 1167 1181
f 1184 1182 1167
f 1167 1183 1185
f 1186 1184 1167
f 1167 1185 1187
f 1188 1186 1167
f 1189 1167 1187
f 1190 1188 1167
f 1167 1189 1191
f 1192 1190 1167
f 1167 1191 1193
f 1194 1192 1167
f 1164 1167 1193
f 1194 1167 1164
f 1141 1194 1164
f 1143 1195 1141
f 1143 1196 1195
f 1196 1197 1195
f 1196 1198 1197
f 1198 1199 1197
f 1198 1200 1199
f 1198 1201 1200
f 1201 1202 1200
f 1201 1203 1202
f 1203 1204 1202
f 1203 1205 1204
f 1205 1206 1204
f 1205 1207 1206
f 1207 1208 1206
f 1207 1209 1208
f 1209 1210 1208
f 1210 1211 1208
f 1210 1212 1211
f 1212 1213 1211
f 1212 1214 1213
f 1214 1215 1213
f 1214 1216 1215
f 1216 1217 1215
f 1216 1218 1217
f 1218 1219 1217
f 1218 1220 1219
f 1218 1221 1220
f 1221 1222 1220
f 1221 1145 1222
f 1145 1144 1222
f 1223 1224 1225
f 1226 1223 1225
f 1227 1226 1225
f 1228 1227 1225
f 1229 1228 1225
f 1230 1229 1225
f 1231 1230 1225
f 1232 1231 1225
f 1233 1232 1225
f 1234 1233 1225
f 1235 1234 1225
f 1224 1236 1225
f 1235 1225 1237
f 1238 1235 1237
f 1238 1237 1239
f 1237 1225 1240
f 1241 1238 1239
f 1225 1242 1240
f 1225 1243 1242
f 1243 1225 1244
f 1225 1245 1244
f 1225 1246 1245
f 1246 1225 1247
f 1225 1248 1247
f 1225 1249 1248
f 1249 1225 1250
f 1225 1251 1250
f 1225 1252 1251
f 1236 1252 1225
f 1236 1253 1252
f 1236 1254 1253
f 1254 1255 1253
f 1254 1256 1255
f 1256 1257 1255
f 1256 1258 1257
f 1258 1259 1257
f 1259 1260 1257
f 1260 1261 1257
f 1261 1262 1257
f 1262 1263 1257
f 1257 1263 1264
f 1257 1264 1265
f 1257 1266 1255
f 1266 1267 1255
f 1266 1268 1267
f 1269 1257 1265
f 1270 1269 1265
f 1269 1270 1271
f 1269 1271 1272
f 1268 1266 1273
f 1274 1269 1272
f 1266 1275 1273
f 1269 1274 1276
f 1266 1277 1275
f 1269 1276 1278
f 1277 1266 1279
f 1266 1280 1279
f 1266 1281 1280
f 1266 1282 1281
f 1282 1283 1281
f 1282 1284 1283
f 1285 1269 1278
f 1284 1282 1286
f 1282 1287 1286
f 1282 1288 1287
f 1288 1282 1289
f 1282 1290 1289
f 1282 1291 1290
f 1282 1269 1291
f 1269 1285 1241
f 1269 1241 1291
f 1291 1241 1239
f 1292 1293 1294
f 1295 1292 1294
f 1292 1295 1296
f 1292 1296 1297
f 1298 1292 1297
f 1292 1298 1299
f 1292 1300 1293
f 1292 1299 1301
f 1292 1302 1300
f 1302 1303 1300
f 1302 1304 1303
f 1305 1292 1301
f 1305 1301 1306
f 1305 1306 1307
f 1304 1302 1308
f 1309 1305 1307
f 1302 1310 1308
f 1305 1309 1311
f 1302 1312 1310
f 1305 1311 1313
f 1312 1302 1314
f 1302 1315 1314
f 1302 1316 1315
f 1302 1317 1316
f 1317 1318 1316
f 1317 1319 1318
f 1320 1305 1313
f 1305 1320 1321
f 1305 1321 1322
f 1317 1305 1322
f 1319 1317 1323
f 1317 1322 1324
f 1317 1325 1323
f 1317 1324 1326
f 1317 1327 1325
f 1327 1317 1326
f 1328 1329 1330
f 1328 1330 1331
f 1329 1328 1332
f 1332 1328 1331
f 1333 1334 1335
f 1333 1335 1336
f 1334 1333 1337
f 1337 1333 1336
f 1338 1339 1340
f 1338 1340 1341
f 1339 1338 1342
f 1342 1338 1341
f 1343 1344 1345
f 1343 1345 1346
f 1344 1343 1347
f 1347 1343 1346
f 1348 1349 1350
f 1348 1350 1351
f 1349 1348 1352
f 1352 1348 1351
f 1353 1354 1355
f 1354 1353 1356
f 1354 1356 1355
f 1357 1358 1359
f 1357 1359 1360
f 1361 1357 1360
f 1357 1361 1362
f 1357 1362 1363
f 1364 1357 1363
f 1358 1357 1365
f 1357 1364 1366
f 1357 1367 1365
f 1367 1368 1365
f 1367 1369 1368
f 1370 1369 1367
f 1371 1370 1367
f 1372 1371 1367
f 1373 1372 1367
f 1374 1373 1367
f 1375 1374 1367
f 1375 1367 1376
f 1367 1377 1376
f 1377 1378 1376
f 1377 1379 1378
f 1380 1375 1376
f 1380 1376 1381
f 1379 1377 1382
f 1383 1380 1381
f 1377 1384 1382
f 1377 1385 1384
f 1385 1377 1386
f 1377 1387 1386
f 1377 1388 1387
f 1377 1389 1388
f 1389 1390 1388
f 1389 1391 1390
f 1391 1389 1392
f 1389 1393 1392
f 1389 1394 1393
f 1394 1389 1395
f 1389 1396 1395
f 1389 1397 1396
f 1389 1357 1397
f 1357 1366 1397
f 1397 1366 1398
f 1366 1399 1398
f 1399 1400 1398
f 1399 1401 1400
f 1401 1402 1400
f 1401 1403 1402
f 1400 1402 1404
f 1403 1405 1402
f 1402 1406 1404
f 1405 1407 1402
f 1402 1408 1406
f 1407 1409 1402
f 1408 1402 1410
f 1409 1411 1402
f 1402 1412 1410
f 1411 1413 1402
f 1402 1414 1412
f 1413 1415 1402
f 1414 1402 1416
f 1415 1417 1402
f 1402 1418 1416
f 1417 1419 1402
f 1402 1420 1418
f 1419 1421 1402
f 1420 1402 1422
f 1421 1423 1402
f 1402 1424 1422
f 1423 1383 1402
f 1402 1425 1424
f 1383 1425 1402
f 1383 1381 1425
f 1426 1427 1428
f 1429 1426 1428
f 1426 1430 1427
f 1430 1426 1429
f 1431 1432 1433
f 1434 1431 1433
f 1435 1434 1433
f 1436 1435 1433
f 1437 1436 1433
f 1438 1437 1433
f 1439 1438 1433
f 1440 1439 1433
f 1441 1440 1433
f 1442 1441 1433
f 1443 1442 1433
f 1444 1443 1433
f 1445 1444 1433
f 1432 1446 1433
f 1445 1433 1447
f 1448 1445 1447
f 1447 1433 1449
f 1433 1450 1449
f 1433 1451 1450
f 1451 1433 1452
f 1433 1453 1452
f 1433 1454 1453
f 1454 1433 1455
f 1433 1456 1455
f 1433 1457 1456
f 1457 1433 1458
f 1433 1459 1458
f 1433 1460 1459
f 1460 1433 1461
f 1433 1462 1461
f 1446 1462 1433
f 1446 1463 1462
f 1446 1464 1463
f 1464 1465 1463
f 1464 1466 1465
f 1466 1467 1465
f 1467 1468 1465
f 1468 1469 1465
f 1469 1470 1465
f 1470 1471 1465
f 1465 1471 1472
f 1465 1472 1473
f 1474 1465 1473
f 1475 1474 1473
f 1474 1475 1476
f 1474 1476 1477
f 1478 1474 1477
f 1474 1478 1479
f 1474 1479 1480
f 1481 1474 1480
f 1474 1481 1448
f 1474 1448 1482
f 1482 1448 1447
f 1483 1474 1482
f 1483 1482 1484
f 1483 1484 1485
f 1483 1485 1486
f 1482 1487 1484
f 1482 1488 1487
f 1488 1489 1487
f 1488 1490 1489
f 1491 1483 1486
f 1490 1492 1489
f 1490 1493 1492
f 1493 1494 1492
f 1494 1495 1492
f 1494 1496 1495
f 1496 1497 1495
f 1496 1498 1497
f 1498 1499 1497
f 1498 1500 1499
f 1500 1501 1499
f 1483 1491 1502
f 1500 1503 1501
f 1503 1504 1501
f 1503 1505 1504
f 1503 1506 1505
f 1506 1507 1505
f 1506 1508 1507
f 1508 1509 1507
f 1508 1510 1509
f 1510 1511 1509
f 1510 1512 1511
f 1483 1502 1513
f 1512 1514 1511
f 1512 1515 1514
f 1515 1516 1514
f 1516 1517 1514
f 1516 1518 1517
f 1518 1519 1517
f 1520 1483 1513
f 1483 1520 1521
f 1483 1521 1522
f 1523 1483 1522
f 1524 1523 1522
f 1523 1524 1525
f 1523 1525 1526
f 1518 1463 1519
f 1527 1523 1526
f 1523 1527 1528
f 1523 1528 1529
f 1530 1523 1529
f 1465 1523 1463
f 1463 1531 1519
f 1523 1530 1531
f 1523 1531 1463
f 1532 1533 1534
f 1535 1532 1534
f 1532 1536 1533
f 1536 1532 1535
f 1537 1538 1539
f 1538 1537 1540
f 1538 1540 1539
f 1541 1542 1543
f 1542 1541 1544
f 1542 1545 1543
f 1546 1542 1544
f 1542 1547 1545
f 1542 1546 1548
f 1547 1542 1549
f 1542 1548 1549
