# ROS coordinates: X forward, Y left, Z up; units are metres.
o mesh
v -0.022103738 -0.121796243 -0.00131899025
v -0.0180035625 -0.126221254 -0.00377464946
v -0.0218477212 -0.12207254 -9.581447E-06
v -0.0216485988 -0.122287437 0.001344542
v -0.0176365469 -0.126617342 -0.00200901087
v -0.0215105619 -0.122436419 0.00273553375
v -0.0173480771 -0.126928672 -0.000178098679
v -0.0171444323 -0.127148449 0.0017070258
v -0.0170309469 -0.127270922 0.0036337385
v -0.02143715 -0.122515641 0.004154536
v -0.01701179 -0.1272916 0.0055880663
v -0.02017296 -0.123879984 0.0104095116
v -0.017089786 -0.127207428 0.007554993
v -0.0214311015 -0.122522168 0.00559182
v -0.0172662716 -0.127016962 0.009518805
v -0.0214942526 -0.122454017 0.007036988
v -0.01754102 -0.126720443 0.0114635006
v -0.0216274261 -0.122310288 0.008479209
v -0.0179121885 -0.12631987 0.0133732194
v -0.0218304209 -0.122091211 0.009907473
v -0.0183763914 -0.125818878 0.0152326571
v -0.0189287886 -0.125222728 0.01702749
v -0.0221019555 -0.121798165 0.0113108745
v -0.0195632186 -0.124538034 0.0187447239
v -0.0224397127 -0.121433645 0.0126788821
v -0.02027244 -0.123772621 0.02037299
v -0.0228403956 -0.121001221 0.0140016032
v -0.0210483465 -0.12293525 0.0219027735
v -0.02329986 -0.120505363 0.0152700171
v -0.0218822286 -0.122035295 0.0233265366
v -0.0238131918 -0.119951352 0.016476173
v -0.0227650348 -0.121082552 0.02463879
v -0.02437489 -0.119345158 0.01761333
v -0.0249790289 -0.118693158 0.0186760612
v -0.02561941 -0.118002042 0.01966029
v -0.0182842351 -0.111205332 0.01966029
v -0.01542986 -0.114285849 0.02463879
v -0.017643854 -0.111896455 0.0186760612
v -0.0170397144 -0.112548456 0.01761333
v -0.016478017 -0.11315465 0.016476173
v -0.0145470537 -0.115238592 0.0233265366
v -0.015964685 -0.113708653 0.0152700171
v -0.0137131717 -0.11613854 0.0219027735
v -0.0155052207 -0.114204518 0.0140016032
v -0.0129372645 -0.116975918 0.02037299
v -0.0151045378 -0.114636943 0.0126788821
v -0.0122280437 -0.117741331 0.0187447239
v -0.0147667807 -0.115001462 0.0113108745
v -0.0128377844 -0.117083281 0.0104095116
v -0.0115936138 -0.118426025 0.01702749
v -0.0144952461 -0.1152945 0.009907473
v -0.0110412166 -0.119022176 0.0152326571
v -0.0142922513 -0.115513586 0.008479209
v -0.0105770137 -0.11952316 0.0133732194
v -0.0141590778 -0.115657307 0.007036988
v -0.0102058444 -0.119923741 0.0114635006
v -0.0140959267 -0.115725458 0.00559182
v -0.009931097 -0.120220251 0.009518805
v -0.009754611 -0.120410718 0.007554993
v -0.009676615 -0.120494895 0.0055880663
v -0.0141019747 -0.115718931 0.004154536
v -0.009695772 -0.120474219 0.0036337385
v -0.0141753871 -0.115639709 0.00273553375
v -0.009809257 -0.120351739 0.0017070258
v -0.0100129023 -0.120131969 -0.000178098679
v -0.010301372 -0.119820639 -0.00200901087
v -0.014313424 -0.115490735 0.001344542
v -0.0106683876 -0.119424552 -0.00377464946
v -0.0145125464 -0.115275837 -9.581447E-06
v -0.0147685632 -0.114999533 -0.00131899025
v -0.020524634 -0.116143942 0.02214954
v -0.0182842351 -0.111205332 0.01966029
v -0.02561941 -0.118002042 0.01966029
v -0.0227650348 -0.121082552 0.02463879
v -0.01542986 -0.114285849 0.02463879
v -0.022103738 -0.121796243 -0.00131899025
v -0.0181801338 -0.118674189 -9.581447E-06
v -0.0147685632 -0.114999533 -0.00131899025
v -0.0218477212 -0.12207254 -9.581447E-06
v -0.0145125464 -0.115275837 -9.581447E-06
v -0.0216485988 -0.122287437 0.001344542
v -0.0179810114 -0.118889086 0.001344542
v -0.014313424 -0.115490735 0.001344542
v -0.0215105619 -0.122436419 0.00273553375
v -0.0178429745 -0.11903806 0.00273553375
v -0.0141753871 -0.115639709 0.00273553375
v -0.02143715 -0.122515641 0.004154536
v -0.0177695621 -0.11911729 0.004154536
v -0.0141019747 -0.115718931 0.004154536
v -0.0214311015 -0.122522168 0.00559182
v -0.0177635141 -0.119123816 0.00559182
v -0.0140959267 -0.115725458 0.00559182
v -0.0214942526 -0.122454017 0.007036988
v -0.0178266652 -0.119055659 0.007036988
v -0.0141590778 -0.115657307 0.007036988
v -0.0216274261 -0.122310288 0.008479209
v -0.0179598387 -0.118911937 0.008479209
v -0.0142922513 -0.115513586 0.008479209
v -0.0218304209 -0.122091211 0.009907473
v -0.0181628335 -0.11869286 0.009907473
v -0.0144952461 -0.1152945 0.009907473
v -0.0221019555 -0.121798165 0.0113108745
v -0.0184343681 -0.118399814 0.0113108745
v -0.0147667807 -0.115001462 0.0113108745
v -0.0224397127 -0.121433645 0.0126788821
v -0.0187721252 -0.118035294 0.0126788821
v -0.0151045378 -0.114636943 0.0126788821
v -0.0228403956 -0.121001221 0.0140016032
v -0.0191728082 -0.11760287 0.0140016032
v -0.0155052207 -0.114204518 0.0140016032
v -0.02329986 -0.120505363 0.0152700171
v -0.0196322724 -0.117107004 0.0152700171
v -0.015964685 -0.113708653 0.0152700171
v -0.0238131918 -0.119951352 0.016476173
v -0.0201456044 -0.116553 0.016476173
v -0.016478017 -0.11315465 0.016476173
v -0.02437489 -0.119345158 0.01761333
v -0.0207073018 -0.115946807 0.01761333
v -0.0170397144 -0.112548456 0.01761333
v -0.0249790289 -0.118693158 0.0186760612
v -0.02131144 -0.115294807 0.0186760612
v -0.017643854 -0.111896455 0.0186760612
v -0.02561941 -0.118002042 0.01966029
v -0.0182842351 -0.111205332 0.01966029
v -0.0163860656 -0.120610394 -0.00254681986
v -0.0106683876 -0.119424552 -0.00377464946
v -0.0180035625 -0.126221254 -0.00377464946
v -0.022103738 -0.121796243 -0.00131899025
v -0.0147685632 -0.114999533 -0.00131899025
v -0.0106683876 -0.119424552 -0.00377464946
v -0.0139689595 -0.123218991 -0.00200901087
v -0.0180035625 -0.126221254 -0.00377464946
v -0.010301372 -0.119820639 -0.00200901087
v -0.0176365469 -0.126617342 -0.00200901087
v -0.0100129023 -0.120131969 -0.000178098679
v -0.01368049 -0.123530321 -0.000178098679
v -0.0173480771 -0.126928672 -0.000178098679
v -0.009809257 -0.120351739 0.0017070258
v -0.0134768449 -0.123750091 0.0017070258
v -0.0171444323 -0.127148449 0.0017070258
v -0.009695772 -0.120474219 0.0036337385
v -0.0133633595 -0.123872571 0.0036337385
v -0.0170309469 -0.127270922 0.0036337385
v -0.009676615 -0.120494895 0.0055880663
v -0.0133442022 -0.123893246 0.0055880663
v -0.01701179 -0.1272916 0.0055880663
v -0.009754611 -0.120410718 0.007554993
v -0.0134221986 -0.123809069 0.007554993
v -0.017089786 -0.127207428 0.007554993
v -0.009931097 -0.120220251 0.009518805
v -0.0135986842 -0.1236186 0.009518805
v -0.0172662716 -0.127016962 0.009518805
v -0.0102058444 -0.119923741 0.0114635006
v -0.0138734318 -0.123322092 0.0114635006
v -0.01754102 -0.126720443 0.0114635006
v -0.0105770137 -0.11952316 0.0133732194
v -0.0142446011 -0.122921512 0.0133732194
v -0.0179121885 -0.12631987 0.0133732194
v -0.0110412166 -0.119022176 0.0152326571
v -0.014708804 -0.122420534 0.0152326571
v -0.0183763914 -0.125818878 0.0152326571
v -0.0115936138 -0.118426025 0.01702749
v -0.0152612012 -0.121824376 0.01702749
v -0.0189287886 -0.125222728 0.01702749
v -0.0122280437 -0.117741331 0.0187447239
v -0.0158956312 -0.121139683 0.0187447239
v -0.0195632186 -0.124538034 0.0187447239
v -0.0129372645 -0.116975918 0.02037299
v -0.0166048519 -0.12037427 0.02037299
v -0.02027244 -0.123772621 0.02037299
v -0.0137131717 -0.11613854 0.0219027735
v -0.01738076 -0.119536892 0.0219027735
v -0.0210483465 -0.12293525 0.0219027735
v -0.0145470537 -0.115238592 0.0233265366
v -0.0182146411 -0.118636943 0.0233265366
v -0.0218822286 -0.122035295 0.0233265366
v -0.01542986 -0.114285849 0.02463879
v -0.0227650348 -0.121082552 0.02463879
f 1 2 3
f 2 4 3
f 2 5 4
f 5 6 4
f 5 7 6
f 7 8 6
f 8 9 6
f 9 10 6
f 9 11 10
f 11 12 10
f 11 13 12
f 10 12 14
f 13 15 12
f 12 16 14
f 15 17 12
f 12 18 16
f 17 19 12
f 18 12 20
f 19 21 12
f 21 22 12
f 12 23 20
f 22 24 12
f 24 23 12
f 24 25 23
f 24 26 25
f 26 27 25
f 26 28 27
f 28 29 27
f 28 30 29
f 30 31 29
f 30 32 31
f 32 33 31
f 32 34 33
f 34 32 35
f 36 37 38
f 37 39 38
f 37 40 39
f 37 41 40
f 41 42 40
f 41 43 42
f 43 44 42
f 43 45 44
f 45 46 44
f 45 47 46
f 47 48 46
f 47 49 48
f 49 47 50
f 49 51 48
f 52 49 50
f 49 53 51
f 49 52 54
f 53 49 55
f 49 54 56
f 49 57 55
f 58 49 56
f 49 58 59
f 49 59 60
f 49 61 57
f 61 49 60
f 61 60 62
f 63 61 62
f 64 63 62
f 63 64 65
f 63 65 66
f 67 63 66
f 66 68 67
f 68 69 67
f 68 70 69
f 71 72 73
f 71 73 74
f 72 71 75
f 75 71 74
f 76 77 78
f 77 76 79
f 77 80 78
f 77 79 81
f 77 82 80
f 82 77 81
f 82 83 80
f 82 81 84
f 82 85 83
f 85 82 84
f 85 86 83
f 85 84 87
f 85 88 86
f 88 85 87
f 88 89 86
f 88 87 90
f 88 91 89
f 91 88 90
f 91 92 89
f 91 90 93
f 91 94 92
f 94 91 93
f 94 95 92
f 94 93 96
f 94 97 95
f 97 94 96
f 97 98 95
f 97 96 99
f 97 100 98
f 100 97 99
f 100 101 98
f 100 99 102
f 100 103 101
f 103 100 102
f 103 104 101
f 103 102 105
f 103 106 104
f 106 103 105
f 106 107 104
f 106 105 108
f 106 109 107
f 109 106 108
f 109 110 107
f 109 108 111
f 109 112 110
f 112 109 111
f 112 113 110
f 112 111 114
f 112 115 113
f 115 112 114
f 115 116 113
f 115 114 117
f 115 118 116
f 118 115 117
f 118 119 116
f 118 117 120
f 118 121 119
f 121 118 120
f 121 122 119
f 121 120 123
f 121 124 122
f 124 121 123
f 125 126 127
f 125 127 128
f 126 125 129
f 129 125 128
f 130 131 132
f 131 130 133
f 131 134 132
f 131 133 135
f 131 136 134
f 136 131 135
f 136 137 134
f 136 135 138
f 136 139 137
f 139 136 138
f 139 140 137
f 139 138 141
f 139 142 140
f 142 139 141
f 142 143 140
f 142 141 144
f 142 145 143
f 145 142 144
f 145 146 143
f 145 144 147
f 145 148 146
f 148 145 147
f 148 149 146
f 148 147 150
f 148 151 149
f 151 148 150
f 151 152 149
f 151 150 153
f 151 154 152
f 154 151 153
f 154 155 152
f 154 153 156
f 154 157 155
f 157 154 156
f 157 158 155
f 157 156 159
f 157 160 158
f 160 157 159
f 160 161 158
f 160 159 162
f 160 163 161
f 163 160 162
f 163 164 161
f 163 162 165
f 163 166 164
f 166 163 165
f 166 167 164
f 166 165 168
f 166 169 167
f 169 166 168
f 169 170 167
f 169 168 171
f 169 172 170
f 172 169 171
f 172 173 170
f 172 171 174
f 172 175 173
f 175 172 174
f 175 176 173
f 175 174 177
f 175 178 176
f 178 175 177
