# ROS coordinates: X forward, Y left, Z up; units are metres.
o mesh
v -0.124383911 0.0345000029 0.00145687733
v -0.124383911 0.0385 0.00145687733
v -0.124479905 0.0385 0.00101751229
v -0.124479905 0.0345000029 0.00101751229
v -0.124525063 0.0365000032 0.000689980166
v -0.124537207 0.0345000029 0.000556192361
v -0.124537207 0.0385 0.000556192361
v -0.124551192 0.0345000029 7.772037E-05
v -0.124551192 0.0385 7.772037E-05
v -0.124542907 0.0365000032 -0.000131158187
v -0.12451794 0.0345000029 -0.000411978865
v -0.12451794 0.0385 -0.000411978865
v -0.124499336 0.0365000032 -0.0005530105
v -0.124434665 0.0345000029 -0.0009060077
v -0.124434665 0.0385 -0.0009060077
v -0.124418572 0.0365000032 -0.0009764988
v -0.124299869 0.0345000029 -0.00139674509
v -0.124299869 0.0385 -0.00139674509
v -0.124299869 0.0365000032 -0.00139674509
v -0.124143392 0.0365000032 -0.00180869224
v -0.124113694 0.0345000029 -0.00187618681
v -0.124113694 0.0385 -0.00187618681
v -0.123950131 0.0365000032 -0.002207293
v -0.123877853 0.0345000029 -0.00233634817
v -0.123877853 0.0385 -0.00233634817
v -0.123722039 0.0365000032 -0.00258771
v -0.123595759 0.0345000029 -0.00276969327
v -0.123595759 0.0385 -0.00276969327
v -0.123461857 0.0365000032 -0.00294550788
v -0.123272248 0.0345000029 -0.003169538
v -0.123272248 0.0385 -0.003169538
v -0.123173043 0.0365000032 -0.003276824
v -0.122913405 0.0345000029 -0.003530393
v -0.122913405 0.0385 -0.003530393
v -0.122859642 0.0365000032 -0.003578505
v -0.122526109 0.0345000029 -0.003848195
v -0.122526109 0.0385 -0.003848195
v -0.122526109 0.0365000032 -0.003848195
v -0.122177042 0.0365000032 -0.00408437941
v -0.122117691 0.0345000029 -0.004120426
v -0.122117691 0.0385 -0.004120426
v -0.121817142 0.0365000032 -0.004286371
v -0.121695548 0.0345000029 -0.004346099
v -0.121695548 0.0385 -0.004346099
v -0.121328168 0.0365000032 -0.004502771
v -0.12126676 0.0345000029 -0.0045256475
v -0.1208378 0.0365000032 -0.00466072233
v -0.12126676 0.0385 -0.0045256475
v -0.1208378 0.0345000029 -0.00466072233
v -0.1208378 0.0385 -0.00466072233
v -0.120398432 0.0345000029 -0.0047567063
v -0.120398432 0.0385 -0.0047567063
v -0.120333768 0.0365000032 -0.004767376
v -0.119937107 0.0345000029 -0.004814013
v -0.119937107 0.0385 -0.004814013
v -0.119801916 0.0365000032 -0.004822615
v -0.119458646 0.0345000029 -0.00482798927
v -0.119458646 0.0385 -0.00482798927
v -0.119249754 0.0365000032 -0.004819715
v -0.118968941 0.0345000029 -0.00479474245
v -0.118968941 0.0385 -0.00479474245
v -0.118686691 0.0365000032 -0.004753407
v -0.1184749 0.0345000029 -0.00471145939
v -0.1184749 0.0385 -0.00471145939
v -0.118123583 0.0365000032 -0.00462046545
v -0.117984176 0.0345000029 -0.004576676
v -0.117984176 0.0385 -0.004576676
v -0.117572233 0.0365000032 -0.00442018732
v -0.117504738 0.0345000029 -0.004390491
v -0.117044568 0.0365000032 -0.00415465748
v -0.117504738 0.0385 -0.004390491
v -0.117044568 0.0345000029 -0.00415465748
v -0.117044568 0.0385 -0.00415465748
v -0.116611227 0.0345000029 -0.00387256173
v -0.116611227 0.0385 -0.00387256173
v -0.116551906 0.0365000032 -0.00382875232
v -0.116211385 0.0345000029 -0.00354906078
v -0.116211385 0.0385 -0.00354906078
v -0.116104096 0.0365000032 -0.00344984955
v -0.115850523 0.0345000029 -0.00319021032
v -0.115850523 0.0385 -0.00319021032
v -0.115708865 0.0365000032 -0.00302728545
v -0.115532719 0.0345000029 -0.00280290865
v -0.115532719 0.0385 -0.00280290865
v -0.115371481 0.0365000032 -0.002571638
v -0.115260489 0.0345000029 -0.00239449576
v -0.115260489 0.0385 -0.00239449576
v -0.115094543 0.0365000032 -0.00209394633
v -0.115034811 0.0345000029 -0.00197235565
v -0.115034811 0.0385 -0.00197235565
v -0.114878148 0.0365000032 -0.00160497357
v -0.11485526 0.0385 -0.00154356367
v -0.11485526 0.0345000029 -0.00154356367
v -0.114720196 0.0385 -0.00111460057
v -0.114720196 0.0345000029 -0.00111460057
v -0.11462421 0.0385 -0.0006752354
v -0.11462421 0.0345000029 -0.0006752354
v -0.114579052 0.0365000032 -0.0003477032
v -0.114566907 0.0385 -0.000213915424
v -0.114566907 0.0345000029 -0.000213915424
v -0.11455293 0.0385 0.000264556526
v -0.11455293 0.0345000029 0.000264556526
v -0.1145612 0.0365000032 0.0004734351
v -0.114586174 0.0385 0.000754255743
v -0.114586174 0.0345000029 0.000754255743
v -0.114604771 0.0365000032 0.000895287434
v -0.114669465 0.0385 0.00124828471
v -0.114669465 0.0345000029 0.00124828471
v -0.11468555 0.0365000032 0.00131877582
v -0.114804246 0.0385 0.00173902209
v -0.114804246 0.0345000029 0.00173902209
v -0.114804246 0.0365000032 0.00173902209
v -0.114960738 0.0365000032 0.00215096888
v -0.114990428 0.0385 0.00221846369
v -0.114990428 0.0345000029 0.00221846369
v -0.115153983 0.0365000032 0.00254957
v -0.115226269 0.0385 0.00267862529
v -0.115226269 0.0345000029 0.00267862529
v -0.115382075 0.0365000032 0.00292998715
v -0.115508355 0.0385 0.00311197
v -0.115508355 0.0345000029 0.00311197
v -0.115642257 0.0365000032 0.003287785
v -0.115831859 0.0385 0.003511815
v -0.115831859 0.0345000029 0.003511815
v -0.115931071 0.0365000032 0.00361910113
v -0.1161907 0.0385 0.00387267
v -0.1161907 0.0345000029 0.00387267
v -0.116244465 0.0365000032 0.00392078236
v -0.116578013 0.0385 0.00419047242
v -0.116578013 0.0345000029 0.00419047242
v -0.116578013 0.0365000032 0.00419047242
v -0.116927065 0.0365000032 0.00442665629
v -0.116986424 0.0385 0.00446270267
v -0.116986424 0.0345000029 0.00446270267
v -0.117286973 0.0365000032 0.00462864852
v -0.117408566 0.0385 0.004688376
v -0.117408566 0.0345000029 0.004688376
v -0.117775939 0.0365000032 0.004845048
v -0.117837355 0.0385 0.00486792438
v -0.118266329 0.0365000032 0.005002999
v -0.117837355 0.0345000029 0.00486792438
v -0.118266329 0.0385 0.005002999
v -0.118266329 0.0345000029 0.005002999
v -0.118705675 0.0385 0.00509898365
v -0.118705675 0.0345000029 0.00509898365
v -0.118770339 0.0365000032 0.00510965241
v -0.119167 0.0385 0.00515629025
v -0.119167 0.0345000029 0.00515629025
v -0.1193022 0.0365000032 0.00516489148
v -0.119645476 0.0385 0.00517026568
v -0.119645476 0.0345000029 0.00517026568
v -0.119854353 0.0365000032 0.00516199227
v -0.120135173 0.0385 0.00513702
v -0.120135173 0.0345000029 0.00513702
v -0.120417416 0.0365000032 0.005095684
v -0.120629206 0.0385 0.00505373627
v -0.120629206 0.0345000029 0.00505373627
v -0.120980524 0.0365000032 0.004962743
v -0.121119946 0.0385 0.004918953
v -0.121119946 0.0345000029 0.004918953
v -0.121531889 0.0365000032 0.004762464
v -0.121599376 0.0385 0.004732768
v -0.122059546 0.0365000032 0.004496935
v -0.121599376 0.0345000029 0.004732768
v -0.122059546 0.0385 0.004496935
v -0.122059546 0.0345000029 0.004496935
v -0.122492895 0.0385 0.00421483861
v -0.122492895 0.0345000029 0.00421483861
v -0.1225522 0.0365000032 0.00417102966
v -0.122892737 0.0385 0.0038913372
v -0.122892737 0.0345000029 0.0038913372
v -0.123000011 0.0365000032 0.00379212666
v -0.123253584 0.0385 0.00353248743
v -0.123253584 0.0345000029 0.00353248743
v -0.123395249 0.0365000032 0.00336956256
v -0.123571388 0.0385 0.00314518576
v -0.123571388 0.0345000029 0.00314518576
v -0.123732626 0.0365000032 0.002913915
v -0.123843618 0.0385 0.00273677264
v -0.123843618 0.0345000029 0.00273677264
v -0.124009565 0.0365000032 0.00243622321
v -0.124069296 0.0385 0.00231463253
v -0.124069296 0.0345000029 0.00231463253
v -0.124225959 0.0365000032 0.00194725022
v -0.124248847 0.0385 0.00188584044
v -0.124248847 0.0345000029 0.00188584044
v -0.124383911 0.0385 0.00145687733
v -0.124383911 0.0345000029 0.00145687733
v -0.121001609 0.0345000029 0.0005568601
v -0.121001609 0.0385 0.0005568601
v -0.120907232 0.0385 0.000814186642
v -0.120889314 0.0365000032 0.0008506639
v -0.120907232 0.0345000029 0.000814186642
v -0.120757855 0.0385 0.00106335268
v -0.120757855 0.0345000029 0.00106335268
v -0.120705009 0.0365000032 0.00113066565
v -0.120554261 0.0385 0.00128719816
v -0.120554261 0.0345000029 0.00128719816
v -0.120452106 0.0365000032 0.00137110578
v -0.1203043 0.0385 0.00146887731
v -0.1203043 0.0345000029 0.00146887731
v -0.120146006 0.0365000032 0.00154853624
v -0.120022431 0.0385 0.00159548293
v -0.120022431 0.0345000029 0.00159548293
v -0.119811669 0.0365000032 0.001648502
v -0.119726986 0.0385 0.001660903
v -0.119726986 0.0345000029 0.001660903
v -0.1194771 0.0365000032 0.0016692644
v -0.119436532 0.0385 0.00166668394
v -0.11916633 0.0365000032 0.00162069674
v -0.119436532 0.0345000029 0.00166668394
v -0.11916633 0.0385 0.00162069674
v -0.11916633 0.0345000029 0.00162069674
v -0.118909016 0.0385 0.00152630976
v -0.118909016 0.0345000029 0.00152630976
v -0.118872531 0.0365000032 0.00150839146
v -0.118659846 0.0385 0.00137693854
v -0.118659846 0.0345000029 0.00137693854
v -0.118659846 0.0365000032 0.00137693854
v -0.118465759 0.0365000032 0.00120552722
v -0.118436 0.0385 0.00117334141
v -0.118436 0.0345000029 0.00117334141
v -0.118301064 0.0365000032 0.0009987931
v -0.118254311 0.0385 0.0009233845
v -0.118254311 0.0345000029 0.0009233845
v -0.118174665 0.0365000032 0.0007650876
v -0.118127719 0.0385 0.0006415035
v -0.118127719 0.0345000029 0.0006415035
v -0.118092105 0.0365000032 0.000515429652
v -0.118062288 0.0385 0.000346073648
v -0.118062288 0.0345000029 0.000346073648
v -0.118054792 0.0365000032 0.00026182743
v -0.118056521 0.0385 5.562229E-05
v -0.118056521 0.0345000029 5.562229E-05
v -0.118060157 0.0365000032 1.54859554E-05
v -0.1181025 0.0385 -0.00021458324
v -0.1181025 0.0345000029 -0.00021458324
v -0.11819689 0.0385 -0.000471909763
v -0.1182148 0.0365000032 -0.000508386933
v -0.11819689 0.0345000029 -0.000471909763
v -0.118346259 0.0385 -0.0007210758
v -0.118346259 0.0345000029 -0.0007210758
v -0.118399106 0.0365000032 -0.0007883887
v -0.118549854 0.0385 -0.0009449213
v -0.118549854 0.0345000029 -0.0009449213
v -0.118652016 0.0365000032 -0.0010288289
v -0.118799806 0.0385 -0.00112660043
v -0.118799806 0.0345000029 -0.00112660043
v -0.1189581 0.0365000032 -0.00120625936
v -0.119081691 0.0385 -0.00125320582
v -0.119081691 0.0345000029 -0.00125320582
v -0.119292445 0.0365000032 -0.0013062252
v -0.119377121 0.0385 -0.00131862587
v -0.119377121 0.0345000029 -0.00131862587
v -0.119627014 0.0365000032 -0.00132698752
v -0.119667575 0.0385 -0.001324407
v -0.119937778 0.0365000032 -0.00127841963
v -0.119667575 0.0345000029 -0.001324407
v -0.119937778 0.0385 -0.00127841963
v -0.119937778 0.0345000029 -0.00127841963
v -0.120195106 0.0385 -0.00118403276
v -0.120195106 0.0345000029 -0.00118403276
v -0.120231584 0.0365000032 -0.00116611458
v -0.120444283 0.0385 -0.00103466178
v -0.120444283 0.0345000029 -0.00103466178
v -0.120444283 0.0365000032 -0.00103466178
v -0.120638356 0.0365000032 -0.0008632504
v -0.120668121 0.0385 -0.0008310646
v -0.120668121 0.0345000029 -0.0008310646
v -0.120803043 0.0365000032 -0.0006565161
v -0.120849796 0.0385 -0.000581107568
v -0.120849796 0.0345000029 -0.000581107568
v -0.120929465 0.0365000032 -0.000422810728
v -0.1209764 0.0385 -0.0002992266
v -0.1209764 0.0345000029 -0.0002992266
v -0.121012 0.0365000032 -0.000173152745
v -0.121041819 0.0385 -3.79674657E-06
v -0.121041819 0.0345000029 -3.79674657E-06
v -0.121049315 0.0365000032 8.044946E-05
v -0.1210476 0.0385 0.000286654627
v -0.1210476 0.0345000029 0.000286654627
v -0.121043958 0.0365000032 0.000326790934
v -0.121001609 0.0385 0.0005568601
v -0.121001609 0.0345000029 0.0005568601
v -0.118056521 0.0345000029 5.562229E-05
v -0.114566907 0.0345000029 -0.000213915424
v -0.11455293 0.0345000029 0.000264556526
v -0.11462421 0.0345000029 -0.0006752354
v -0.118062288 0.0345000029 0.000346073648
v -0.114586174 0.0345000029 0.000754255743
v -0.114669465 0.0345000029 0.00124828471
v -0.1181025 0.0345000029 -0.00021458324
v -0.114720196 0.0345000029 -0.00111460057
v -0.11485526 0.0345000029 -0.00154356367
v -0.118127719 0.0345000029 0.0006415035
v -0.114804246 0.0345000029 0.00173902209
v -0.114990428 0.0345000029 0.00221846369
v -0.11819689 0.0345000029 -0.000471909763
v -0.115034811 0.0345000029 -0.00197235565
v -0.115260489 0.0345000029 -0.00239449576
v -0.118254311 0.0345000029 0.0009233845
v -0.115226269 0.0345000029 0.00267862529
v -0.115508355 0.0345000029 0.00311197
v -0.118346259 0.0345000029 -0.0007210758
v -0.115532719 0.0345000029 -0.00280290865
v -0.115850523 0.0345000029 -0.00319021032
v -0.118436 0.0345000029 0.00117334141
v -0.115831859 0.0345000029 0.003511815
v -0.1161907 0.0345000029 0.00387267
v -0.118549854 0.0345000029 -0.0009449213
v -0.116211385 0.0345000029 -0.00354906078
v -0.116611227 0.0345000029 -0.00387256173
v -0.118659846 0.0345000029 0.00137693854
v -0.116578013 0.0345000029 0.00419047242
v -0.116986424 0.0345000029 0.00446270267
v -0.118799806 0.0345000029 -0.00112660043
v -0.117044568 0.0345000029 -0.00415465748
v -0.117504738 0.0345000029 -0.004390491
v -0.118909016 0.0345000029 0.00152630976
v -0.117408566 0.0345000029 0.004688376
v -0.117837355 0.0345000029 0.00486792438
v -0.119081691 0.0345000029 -0.00125320582
v -0.117984176 0.0345000029 -0.004576676
v -0.1184749 0.0345000029 -0.00471145939
v -0.11916633 0.0345000029 0.00162069674
v -0.118266329 0.0345000029 0.005002999
v -0.118705675 0.0345000029 0.00509898365
v -0.119377121 0.0345000029 -0.00131862587
v -0.118968941 0.0345000029 -0.00479474245
v -0.119458646 0.0345000029 -0.00482798927
v -0.119436532 0.0345000029 0.00166668394
v -0.119167 0.0345000029 0.00515629025
v -0.119645476 0.0345000029 0.00517026568
v -0.119667575 0.0345000029 -0.001324407
v -0.119937107 0.0345000029 -0.004814013
v -0.120398432 0.0345000029 -0.0047567063
v -0.119726986 0.0345000029 0.001660903
v -0.120135173 0.0345000029 0.00513702
v -0.120629206 0.0345000029 0.00505373627
v -0.119937778 0.0345000029 -0.00127841963
v -0.120022431 0.0345000029 0.00159548293
v -0.121119946 0.0345000029 0.004918953
v -0.121599376 0.0345000029 0.004732768
v -0.1208378 0.0345000029 -0.00466072233
v -0.1203043 0.0345000029 0.00146887731
v -0.122059546 0.0345000029 0.004496935
v -0.122492895 0.0345000029 0.00421483861
v -0.12126676 0.0345000029 -0.0045256475
v -0.120554261 0.0345000029 0.00128719816
v -0.122892737 0.0345000029 0.0038913372
v -0.123253584 0.0345000029 0.00353248743
v -0.121695548 0.0345000029 -0.004346099
v -0.122117691 0.0345000029 -0.004120426
v -0.122526109 0.0345000029 -0.003848195
v -0.122913405 0.0345000029 -0.003530393
v -0.123272248 0.0345000029 -0.003169538
v -0.120757855 0.0345000029 0.00106335268
v -0.123571388 0.0345000029 0.00314518576
v -0.123843618 0.0345000029 0.00273677264
v -0.123595759 0.0345000029 -0.00276969327
v -0.120907232 0.0345000029 0.000814186642
v -0.124069296 0.0345000029 0.00231463253
v -0.124248847 0.0345000029 0.00188584044
v -0.123877853 0.0345000029 -0.00233634817
v -0.121001609 0.0345000029 0.0005568601
v -0.124383911 0.0345000029 0.00145687733
v -0.124479905 0.0345000029 0.00101751229
v -0.124113694 0.0345000029 -0.00187618681
v -0.1210476 0.0345000029 0.000286654627
v -0.124537207 0.0345000029 0.000556192361
v -0.124551192 0.0345000029 7.772037E-05
v -0.121041819 0.0345000029 -3.79674657E-06
v -0.12451794 0.0345000029 -0.000411978865
v -0.124299869 0.0345000029 -0.00139674509
v -0.124434665 0.0345000029 -0.0009060077
v -0.1209764 0.0345000029 -0.0002992266
v -0.120195106 0.0345000029 -0.00118403276
v -0.120849796 0.0345000029 -0.000581107568
v -0.120444283 0.0345000029 -0.00103466178
v -0.120668121 0.0345000029 -0.0008310646
v -0.120907232 0.0385 0.000814186642
v -0.124069296 0.0385 0.00231463253
v -0.123843618 0.0385 0.00273677264
v -0.124248847 0.0385 0.00188584044
v -0.120757855 0.0385 0.00106335268
v -0.123571388 0.0385 0.00314518576
v -0.123253584 0.0385 0.00353248743
v -0.121001609 0.0385 0.0005568601
v -0.124383911 0.0385 0.00145687733
v -0.124479905 0.0385 0.00101751229
v -0.120554261 0.0385 0.00128719816
v -0.122892737 0.0385 0.0038913372
v -0.122492895 0.0385 0.00421483861
v -0.1210476 0.0385 0.000286654627
v -0.124537207 0.0385 0.000556192361
v -0.124551192 0.0385 7.772037E-05
v -0.1203043 0.0385 0.00146887731
v -0.122059546 0.0385 0.004496935
v -0.121599376 0.0385 0.004732768
v -0.121041819 0.0385 -3.79674657E-06
v -0.12451794 0.0385 -0.000411978865
v -0.124434665 0.0385 -0.0009060077
v -0.120022431 0.0385 0.00159548293
v -0.121119946 0.0385 0.004918953
v -0.120629206 0.0385 0.00505373627
v -0.1209764 0.0385 -0.0002992266
v -0.124299869 0.0385 -0.00139674509
v -0.124113694 0.0385 -0.00187618681
v -0.119726986 0.0385 0.001660903
v -0.120135173 0.0385 0.00513702
v -0.119645476 0.0385 0.00517026568
v -0.120849796 0.0385 -0.000581107568
v -0.123877853 0.0385 -0.00233634817
v -0.123595759 0.0385 -0.00276969327
v -0.119436532 0.0385 0.00166668394
v -0.119167 0.0385 0.00515629025
v -0.118705675 0.0385 0.00509898365
v -0.120668121 0.0385 -0.0008310646
v -0.123272248 0.0385 -0.003169538
v -0.122913405 0.0385 -0.003530393
v -0.11916633 0.0385 0.00162069674
v -0.118266329 0.0385 0.005002999
v -0.117837355 0.0385 0.00486792438
v -0.120444283 0.0385 -0.00103466178
v -0.122526109 0.0385 -0.003848195
v -0.122117691 0.0385 -0.004120426
v -0.118909016 0.0385 0.00152630976
v -0.117408566 0.0385 0.004688376
v -0.116986424 0.0385 0.00446270267
v -0.120195106 0.0385 -0.00118403276
v -0.121695548 0.0385 -0.004346099
v -0.12126676 0.0385 -0.0045256475
v -0.118659846 0.0385 0.00137693854
v -0.116578013 0.0385 0.00419047242
v -0.1161907 0.0385 0.00387267
v -0.119937778 0.0385 -0.00127841963
v -0.118436 0.0385 0.00117334141
v -0.115831859 0.0385 0.003511815
v -0.115508355 0.0385 0.00311197
v -0.1208378 0.0385 -0.00466072233
v -0.118254311 0.0385 0.0009233845
v -0.115226269 0.0385 0.00267862529
v -0.114990428 0.0385 0.00221846369
v -0.120398432 0.0385 -0.0047567063
v -0.118127719 0.0385 0.0006415035
v -0.114804246 0.0385 0.00173902209
v -0.114669465 0.0385 0.00124828471
v -0.119937107 0.0385 -0.004814013
v -0.119458646 0.0385 -0.00482798927
v -0.118968941 0.0385 -0.00479474245
v -0.1184749 0.0385 -0.00471145939
v -0.117984176 0.0385 -0.004576676
v -0.118062288 0.0385 0.000346073648
v -0.114586174 0.0385 0.000754255743
v -0.11455293 0.0385 0.000264556526
v -0.117504738 0.0385 -0.004390491
v -0.118056521 0.0385 5.562229E-05
v -0.114566907 0.0385 -0.000213915424
v -0.11462421 0.0385 -0.0006752354
v -0.117044568 0.0385 -0.00415465748
v -0.1181025 0.0385 -0.00021458324
v -0.114720196 0.0385 -0.00111460057
v -0.11485526 0.0385 -0.00154356367
v -0.116611227 0.0385 -0.00387256173
v -0.11819689 0.0385 -0.000471909763
v -0.115034811 0.0385 -0.00197235565
v -0.115260489 0.0385 -0.00239449576
v -0.118346259 0.0385 -0.0007210758
v -0.115532719 0.0385 -0.00280290865
v -0.116211385 0.0385 -0.00354906078
v -0.115850523 0.0385 -0.00319021032
v -0.118549854 0.0385 -0.0009449213
v -0.119667575 0.0385 -0.001324407
v -0.118799806 0.0385 -0.00112660043
v -0.119377121 0.0385 -0.00131862587
v -0.119081691 0.0385 -0.00125320582
f 1 2 3
f 4 1 3
f 4 3 5
f 6 4 5
f 5 3 7
f 8 6 5
f 9 5 7
f 8 5 10
f 10 5 9
f 11 8 10
f 12 10 9
f 11 10 13
f 13 10 12
f 14 11 13
f 15 13 12
f 14 13 16
f 16 13 15
f 17 14 16
f 18 16 15
f 19 17 16
f 19 16 18
f 19 20 17
f 20 19 18
f 20 21 17
f 20 18 22
f 20 23 21
f 23 20 22
f 23 24 21
f 23 22 25
f 23 26 24
f 26 23 25
f 26 27 24
f 26 25 28
f 26 29 27
f 29 26 28
f 29 30 27
f 29 28 31
f 29 32 30
f 32 29 31
f 32 33 30
f 32 31 34
f 32 35 33
f 35 32 34
f 35 36 33
f 35 34 37
f 36 35 38
f 35 37 38
f 36 38 39
f 39 38 37
f 40 36 39
f 39 37 41
f 40 39 42
f 42 39 41
f 43 40 42
f 42 41 44
f 43 42 45
f 45 42 44
f 46 43 45
f 46 45 47
f 45 44 48
f 47 45 48
f 49 46 47
f 47 48 50
f 51 49 47
f 47 50 52
f 51 47 53
f 53 47 52
f 54 51 53
f 53 52 55
f 54 53 56
f 56 53 55
f 57 54 56
f 56 55 58
f 57 56 59
f 59 56 58
f 60 57 59
f 59 58 61
f 60 59 62
f 62 59 61
f 63 60 62
f 62 61 64
f 63 62 65
f 65 62 64
f 66 63 65
f 65 64 67
f 66 65 68
f 68 65 67
f 69 66 68
f 69 68 70
f 68 67 71
f 70 68 71
f 72 69 70
f 70 71 73
f 74 72 70
f 70 73 75
f 74 70 76
f 76 70 75
f 77 74 76
f 76 75 78
f 77 76 79
f 79 76 78
f 80 77 79
f 79 78 81
f 80 79 82
f 82 79 81
f 83 80 82
f 82 81 84
f 83 82 85
f 85 82 84
f 86 83 85
f 85 84 87
f 86 85 88
f 88 85 87
f 89 86 88
f 88 87 90
f 89 88 91
f 91 88 90
f 91 90 92
f 93 89 91
f 94 91 92
f 93 91 94
f 95 93 94
f 94 96 95
f 96 97 95
f 96 98 97
f 98 96 99
f 98 100 97
f 98 99 101
f 98 102 100
f 103 98 101
f 98 103 102
f 103 101 104
f 103 105 102
f 106 103 104
f 103 106 105
f 106 104 107
f 106 108 105
f 109 106 107
f 106 109 108
f 109 107 110
f 109 111 108
f 112 109 110
f 109 112 111
f 112 110 113
f 112 113 111
f 110 114 113
f 111 113 115
f 114 116 113
f 113 116 115
f 114 117 116
f 115 116 118
f 117 119 116
f 116 119 118
f 117 120 119
f 118 119 121
f 120 122 119
f 119 122 121
f 120 123 122
f 121 122 124
f 123 125 122
f 122 125 124
f 123 126 125
f 124 125 127
f 126 128 125
f 125 128 127
f 126 129 128
f 127 128 130
f 129 131 128
f 128 131 130
f 129 132 131
f 132 130 131
f 132 129 133
f 132 134 130
f 135 132 133
f 132 135 134
f 135 133 136
f 135 137 134
f 138 135 136
f 135 138 137
f 138 136 139
f 140 138 139
f 138 141 137
f 138 140 141
f 140 139 142
f 140 143 141
f 140 142 144
f 140 145 143
f 146 140 144
f 140 146 145
f 146 144 147
f 146 148 145
f 149 146 147
f 146 149 148
f 149 147 150
f 149 151 148
f 152 149 150
f 149 152 151
f 152 150 153
f 152 154 151
f 155 152 153
f 152 155 154
f 155 153 156
f 155 157 154
f 158 155 156
f 155 158 157
f 158 156 159
f 158 160 157
f 161 158 159
f 158 161 160
f 161 159 162
f 163 161 162
f 161 164 160
f 161 163 164
f 163 162 165
f 163 166 164
f 163 165 167
f 163 168 166
f 169 163 167
f 163 169 168
f 169 167 170
f 169 171 168
f 172 169 170
f 169 172 171
f 172 170 173
f 172 174 171
f 175 172 173
f 172 175 174
f 175 173 176
f 175 177 174
f 178 175 176
f 175 178 177
f 178 176 179
f 178 180 177
f 181 178 179
f 178 181 180
f 181 179 182
f 181 183 180
f 184 181 182
f 181 184 183
f 184 182 185
f 184 186 183
f 187 184 185
f 184 187 186
f 187 188 186
f 189 190 191
f 189 191 192
f 193 189 192
f 192 191 194
f 195 193 192
f 196 192 194
f 195 192 196
f 196 194 197
f 198 195 196
f 199 196 197
f 198 196 199
f 199 197 200
f 201 198 199
f 202 199 200
f 201 199 202
f 202 200 203
f 204 201 202
f 205 202 203
f 204 202 205
f 205 203 206
f 207 204 205
f 208 205 206
f 207 205 208
f 208 206 209
f 210 208 209
f 211 207 208
f 211 208 210
f 210 209 212
f 213 211 210
f 214 210 212
f 215 213 210
f 216 210 214
f 215 210 216
f 217 216 214
f 218 215 216
f 219 216 217
f 219 218 216
f 220 219 217
f 219 220 218
f 220 217 221
f 220 222 218
f 223 220 221
f 220 223 222
f 223 221 224
f 223 225 222
f 226 223 224
f 223 226 225
f 226 224 227
f 226 228 225
f 229 226 227
f 226 229 228
f 229 227 230
f 229 231 228
f 232 229 230
f 229 232 231
f 232 230 233
f 232 234 231
f 235 232 233
f 232 235 234
f 235 233 236
f 234 235 237
f 235 236 237
f 236 238 237
f 238 239 237
f 237 239 240
f 238 241 239
f 239 242 240
f 241 243 239
f 239 243 242
f 241 244 243
f 243 245 242
f 244 246 243
f 243 246 245
f 244 247 246
f 246 248 245
f 247 249 246
f 246 249 248
f 247 250 249
f 249 251 248
f 250 252 249
f 249 252 251
f 250 253 252
f 252 254 251
f 253 255 252
f 252 255 254
f 253 256 255
f 256 257 255
f 255 258 254
f 255 257 258
f 256 259 257
f 257 260 258
f 259 261 257
f 257 262 260
f 261 263 257
f 257 263 262
f 261 264 263
f 263 265 262
f 264 266 263
f 263 266 265
f 264 267 266
f 267 265 266
f 268 267 264
f 267 269 265
f 270 267 268
f 267 270 269
f 271 270 268
f 270 272 269
f 273 270 271
f 270 273 272
f 274 273 271
f 273 275 272
f 276 273 274
f 273 276 275
f 277 276 274
f 276 278 275
f 279 276 277
f 276 279 278
f 280 279 277
f 279 281 278
f 282 279 280
f 279 282 281
f 283 282 280
f 282 284 281
f 282 283 284
f 285 286 287
f 285 288 286
f 289 285 287
f 289 287 290
f 289 290 291
f 285 292 288
f 288 292 293
f 292 294 293
f 295 289 291
f 295 291 296
f 295 296 297
f 292 298 294
f 298 299 294
f 298 300 299
f 301 295 297
f 301 297 302
f 301 302 303
f 298 304 300
f 304 305 300
f 304 306 305
f 307 301 303
f 307 303 308
f 307 308 309
f 304 310 306
f 310 311 306
f 310 312 311
f 313 307 309
f 313 309 314
f 313 314 315
f 310 316 312
f 316 317 312
f 316 318 317
f 319 313 315
f 319 315 320
f 319 320 321
f 316 322 318
f 322 323 318
f 322 324 323
f 325 319 321
f 325 321 326
f 325 326 327
f 322 328 324
f 328 329 324
f 328 330 329
f 331 325 327
f 331 327 332
f 331 332 333
f 328 334 330
f 334 335 330
f 334 336 335
f 337 331 333
f 337 333 338
f 337 338 339
f 334 340 336
f 341 337 339
f 341 339 342
f 341 342 343
f 340 344 336
f 345 341 343
f 345 343 346
f 345 346 347
f 340 348 344
f 349 345 347
f 349 347 350
f 349 350 351
f 348 340 352
f 340 353 352
f 340 354 353
f 354 340 355
f 340 356 355
f 357 349 351
f 357 351 358
f 357 358 359
f 340 360 356
f 361 357 359
f 361 359 362
f 361 362 363
f 360 340 364
f 365 361 363
f 365 363 366
f 365 366 367
f 340 368 364
f 369 365 367
f 369 367 370
f 369 370 371
f 372 369 371
f 372 371 373
f 340 374 368
f 374 340 375
f 340 373 375
f 376 372 373
f 340 377 373
f 378 376 373
f 377 379 373
f 380 378 373
f 379 380 373
f 381 382 383
f 381 384 382
f 385 381 383
f 385 383 386
f 385 386 387
f 381 388 384
f 384 388 389
f 388 390 389
f 391 385 387
f 391 387 392
f 391 392 393
f 388 394 390
f 394 395 390
f 394 396 395
f 397 391 393
f 397 393 398
f 397 398 399
f 394 400 396
f 400 401 396
f 400 402 401
f 403 397 399
f 403 399 404
f 403 404 405
f 400 406 402
f 406 407 402
f 406 408 407
f 409 403 405
f 409 405 410
f 409 410 411
f 406 412 408
f 412 413 408
f 412 414 413
f 415 409 411
f 415 411 416
f 415 416 417
f 412 418 414
f 418 419 414
f 418 420 419
f 421 415 417
f 421 417 422
f 421 422 423
f 418 424 420
f 424 425 420
f 424 426 425
f 427 421 423
f 427 423 428
f 427 428 429
f 424 430 426
f 430 431 426
f 430 432 431
f 433 427 429
f 433 429 434
f 433 434 435
f 430 436 432
f 437 433 435
f 437 435 438
f 437 438 439
f 436 440 432
f 441 437 439
f 441 439 442
f 441 442 443
f 436 444 440
f 445 441 443
f 445 443 446
f 445 446 447
f 444 436 448
f 436 449 448
f 436 450 449
f 450 436 451
f 436 452 451
f 453 445 447
f 453 447 454
f 453 454 455
f 436 456 452
f 457 453 455
f 457 455 458
f 457 458 459
f 456 436 460
f 461 457 459
f 461 459 462
f 461 462 463
f 436 464 460
f 465 461 463
f 465 463 466
f 465 466 467
f 468 465 467
f 468 467 469
f 436 470 464
f 470 436 471
f 436 469 471
f 472 468 469
f 436 473 469
f 474 472 469
f 473 475 469
f 476 474 469
f 475 476 469
