# ROS coordinates: X forward, Y left, Z up; units are metres.
o mesh
v 0.152906016 -0.0190619081 -0.00274445117
v 0.152796462 -0.0252554119 -0.00475715753
v 0.15291585 -0.01850563 -0.00398819428
v 0.152809292 -0.0245298184 -0.006454927
v 0.152927339 -0.01785655 -0.00521214027
v 0.152824432 -0.0236738287 -0.008128074
v 0.152940452 -0.0171150155 -0.0064063156
v 0.152841881 -0.0226875022 -0.009762189
v 0.152955174 -0.0162827522 -0.007560595
v 0.1528616 -0.0215729885 -0.01134256
v 0.152971447 -0.01536296 -0.00866494048
v 0.1528835 -0.0203346051 -0.012854551
v 0.152989179 -0.0143602779 -0.009709668
v 0.152907476 -0.01897886 -0.0142840045
v 0.153005809 -0.0134195918 -0.0123876138
v 0.152933389 -0.0175143741 -0.0156176453
v 0.153008267 -0.0132807512 -0.0106857093
v 0.152961031 -0.0159517266 -0.01684346
v 0.153028592 -0.01213172 -0.011584851
v 0.15305 -0.01092165 -0.012399965
v 0.152990192 -0.0143032074 -0.01795106
v 0.153072312 -0.009659935 -0.0131252008
v 0.15302062 -0.0125824874 -0.0189319663
v 0.153095365 -0.0083566485 -0.0137561178
v 0.153052077 -0.0108042564 -0.0197798349
v 0.153118968 -0.00702228537 -0.0142897693
v 0.153084278 -0.008983811 -0.02049056
v 0.153142929 -0.005667491 -0.0147247305
v 0.153116956 -0.007136622 -0.02106233
v 0.153167069 -0.00430279225 -0.0150610628
v 0.153149828 -0.00527793868 -0.0214955583
v 0.153191209 -0.00293835532 -0.0153002506
v 0.153182641 -0.00342241372 -0.02179275
v 0.15321517 -0.00158377166 -0.0154450508
v 0.15321517 -0.00158377166 -0.021958299
v 0.143216729 -0.0014069163 -0.021958299
v 0.143184215 -0.00324555836 -0.02179275
v 0.143216729 -0.0014069163 -0.0154450508
v 0.143192768 -0.0027615 -0.0153002506
v 0.143151388 -0.00510108331 -0.0214955583
v 0.143168643 -0.004125937 -0.0150610628
v 0.143118516 -0.00695976662 -0.02106233
v 0.1431445 -0.00549063552 -0.0147247305
v 0.143085837 -0.008806956 -0.02049056
v 0.143120527 -0.00684543 -0.0142897693
v 0.143053636 -0.0106274011 -0.0197798349
v 0.143096939 -0.008179793 -0.0137561178
v 0.14302218 -0.0124056321 -0.0189319663
v 0.143073887 -0.009483079 -0.0131252008
v 0.142991751 -0.014126352 -0.01795106
v 0.143051565 -0.0107447943 -0.012399965
v 0.143007383 -0.0132427365 -0.0123876138
v 0.14296259 -0.01577487 -0.01684346
v 0.143030152 -0.0119548645 -0.011584851
v 0.142934948 -0.0173375178 -0.0156176453
v 0.143009827 -0.0131038958 -0.0106857093
v 0.14290905 -0.0188020039 -0.0142840045
v 0.142990738 -0.0141834226 -0.009709668
v 0.142885059 -0.0201577488 -0.012854551
v 0.142973 -0.0151861049 -0.00866494048
v 0.142863154 -0.0213961322 -0.01134256
v 0.142956734 -0.0161058977 -0.007560595
v 0.14284344 -0.0225106478 -0.009762189
v 0.142942011 -0.01693816 -0.0064063156
v 0.142825991 -0.0234969724 -0.008128074
v 0.1429289 -0.017679695 -0.00521214027
v 0.142810851 -0.024352964 -0.006454927
v 0.14291741 -0.0183287747 -0.00398819428
v 0.142798021 -0.0250785574 -0.00475715753
v 0.142907575 -0.0188850537 -0.00274445117
v 0.148183435 -0.003333986 -0.02179275
v 0.153182641 -0.00342241372 -0.02179275
v 0.153149828 -0.00527793868 -0.0214955583
v 0.15321517 -0.00158377166 -0.021958299
v 0.143216729 -0.0014069163 -0.021958299
v 0.143184215 -0.00324555836 -0.02179275
v 0.148150608 -0.005189511 -0.0214955583
v 0.153116956 -0.007136622 -0.02106233
v 0.143151388 -0.00510108331 -0.0214955583
v 0.148117736 -0.0070481943 -0.02106233
v 0.153084278 -0.008983811 -0.02049056
v 0.143118516 -0.00695976662 -0.02106233
v 0.148085058 -0.008895384 -0.02049056
v 0.153052077 -0.0108042564 -0.0197798349
v 0.143085837 -0.008806956 -0.02049056
v 0.148052856 -0.0107158292 -0.0197798349
v 0.15302062 -0.0125824874 -0.0189319663
v 0.143053636 -0.0106274011 -0.0197798349
v 0.1480214 -0.01249406 -0.0189319663
v 0.152990192 -0.0143032074 -0.01795106
v 0.14302218 -0.0124056321 -0.0189319663
v 0.147990972 -0.01421478 -0.01795106
v 0.152961031 -0.0159517266 -0.01684346
v 0.142991751 -0.014126352 -0.01795106
v 0.14796181 -0.0158632975 -0.01684346
v 0.152933389 -0.0175143741 -0.0156176453
v 0.14296259 -0.01577487 -0.01684346
v 0.147934169 -0.017425945 -0.0156176453
v 0.152907476 -0.01897886 -0.0142840045
v 0.142934948 -0.0173375178 -0.0156176453
v 0.147908255 -0.0188904312 -0.0142840045
v 0.1528835 -0.0203346051 -0.012854551
v 0.14290905 -0.0188020039 -0.0142840045
v 0.147884279 -0.020246176 -0.012854551
v 0.1528616 -0.0215729885 -0.01134256
v 0.142885059 -0.0201577488 -0.012854551
v 0.147862375 -0.02148456 -0.01134256
v 0.152841881 -0.0226875022 -0.009762189
v 0.142863154 -0.0213961322 -0.01134256
v 0.147842661 -0.022599075 -0.009762189
v 0.152824432 -0.0236738287 -0.008128074
v 0.14284344 -0.0225106478 -0.009762189
v 0.147825211 -0.0235854 -0.008128074
v 0.152809292 -0.0245298184 -0.006454927
v 0.142825991 -0.0234969724 -0.008128074
v 0.147810072 -0.0244413912 -0.006454927
v 0.152796462 -0.0252554119 -0.00475715753
v 0.142810851 -0.024352964 -0.006454927
v 0.142798021 -0.0250785574 -0.00475715753
v 0.14821595 -0.0014953441 -0.0187016763
v 0.15321517 -0.00158377166 -0.021958299
v 0.143216729 -0.0014069163 -0.021958299
v 0.143216729 -0.0014069163 -0.0154450508
v 0.15321517 -0.00158377166 -0.0154450508
v 0.14791663 -0.0184172019 -0.00398819428
v 0.15291585 -0.01850563 -0.00398819428
v 0.152927339 -0.01785655 -0.00521214027
v 0.152906016 -0.0190619081 -0.00274445117
v 0.142907575 -0.0188850537 -0.00274445117
v 0.14291741 -0.0183287747 -0.00398819428
v 0.147928119 -0.0177681223 -0.00521214027
v 0.152940452 -0.0171150155 -0.0064063156
v 0.1429289 -0.017679695 -0.00521214027
v 0.147941232 -0.0170265865 -0.0064063156
v 0.152955174 -0.0162827522 -0.007560595
v 0.142942011 -0.01693816 -0.0064063156
v 0.147955954 -0.0161943249 -0.007560595
v 0.152971447 -0.01536296 -0.00866494048
v 0.142956734 -0.0161058977 -0.007560595
v 0.147972226 -0.0152745331 -0.00866494048
v 0.152989179 -0.0143602779 -0.009709668
v 0.142973 -0.0151861049 -0.00866494048
v 0.147989959 -0.0142718507 -0.009709668
v 0.153008267 -0.0132807512 -0.0106857093
v 0.142990738 -0.0141834226 -0.009709668
v 0.148009047 -0.013192324 -0.0106857093
v 0.153028592 -0.01213172 -0.011584851
v 0.143009827 -0.0131038958 -0.0106857093
v 0.148029372 -0.0120432926 -0.011584851
v 0.15305 -0.01092165 -0.012399965
v 0.143030152 -0.0119548645 -0.011584851
v 0.148050785 -0.0108332224 -0.012399965
v 0.153072312 -0.009659935 -0.0131252008
v 0.143051565 -0.0107447943 -0.012399965
v 0.148073092 -0.009571508 -0.0131252008
v 0.153095365 -0.0083566485 -0.0137561178
v 0.143073887 -0.009483079 -0.0131252008
v 0.148096144 -0.008268221 -0.0137561178
v 0.153118968 -0.00702228537 -0.0142897693
v 0.143096939 -0.008179793 -0.0137561178
v 0.148119748 -0.00693385769 -0.0142897693
v 0.153142929 -0.005667491 -0.0147247305
v 0.143120527 -0.00684543 -0.0142897693
v 0.148143724 -0.005579063 -0.0147247305
v 0.153167069 -0.00430279225 -0.0150610628
v 0.1431445 -0.00549063552 -0.0147247305
v 0.148167863 -0.00421436457 -0.0150610628
v 0.153191209 -0.00293835532 -0.0153002506
v 0.143168643 -0.004125937 -0.0150610628
v 0.148191988 -0.00284992764 -0.0153002506
v 0.15321517 -0.00158377166 -0.0154450508
v 0.143192768 -0.0027615 -0.0153002506
v 0.143216729 -0.0014069163 -0.0154450508
v 0.147852018 -0.0220702328 -0.00375080481
v 0.152906016 -0.0190619081 -0.00274445117
v 0.142907575 -0.0188850537 -0.00274445117
v 0.142798021 -0.0250785574 -0.00475715753
v 0.152796462 -0.0252554119 -0.00475715753
f 1 2 3
f 2 4 3
f 4 5 3
f 4 6 5
f 6 7 5
f 6 8 7
f 8 9 7
f 8 10 9
f 10 11 9
f 10 12 11
f 12 13 11
f 12 14 13
f 14 15 13
f 14 16 15
f 13 15 17
f 16 18 15
f 15 19 17
f 15 20 19
f 18 21 15
f 21 20 15
f 21 22 20
f 21 23 22
f 23 24 22
f 23 25 24
f 25 26 24
f 25 27 26
f 27 28 26
f 27 29 28
f 29 30 28
f 29 31 30
f 31 32 30
f 31 33 32
f 33 34 32
f 33 35 34
f 36 37 38
f 37 39 38
f 37 40 39
f 40 41 39
f 40 42 41
f 42 43 41
f 42 44 43
f 44 45 43
f 44 46 45
f 46 47 45
f 46 48 47
f 48 49 47
f 48 50 49
f 50 51 49
f 50 52 51
f 52 50 53
f 52 54 51
f 55 52 53
f 52 56 54
f 52 55 57
f 56 52 58
f 52 57 58
f 57 59 58
f 59 60 58
f 59 61 60
f 61 62 60
f 61 63 62
f 63 64 62
f 63 65 64
f 65 66 64
f 65 67 66
f 67 68 66
f 67 69 68
f 69 70 68
f 71 72 73
f 71 74 72
f 74 71 75
f 71 76 75
f 77 71 73
f 71 77 76
f 77 73 78
f 77 79 76
f 80 77 78
f 77 80 79
f 80 78 81
f 80 82 79
f 83 80 81
f 80 83 82
f 83 81 84
f 83 85 82
f 86 83 84
f 83 86 85
f 86 84 87
f 86 88 85
f 89 86 87
f 86 89 88
f 89 87 90
f 89 91 88
f 92 89 90
f 89 92 91
f 92 90 93
f 92 94 91
f 95 92 93
f 92 95 94
f 95 93 96
f 95 97 94
f 98 95 96
f 95 98 97
f 98 96 99
f 98 100 97
f 101 98 99
f 98 101 100
f 101 99 102
f 101 103 100
f 104 101 102
f 101 104 103
f 104 102 105
f 104 106 103
f 107 104 105
f 104 107 106
f 107 105 108
f 107 109 106
f 110 107 108
f 107 110 109
f 110 108 111
f 110 112 109
f 113 110 111
f 110 113 112
f 113 111 114
f 113 115 112
f 116 113 114
f 113 116 115
f 116 114 117
f 116 118 115
f 119 116 117
f 116 119 118
f 120 121 122
f 120 122 123
f 121 120 124
f 124 120 123
f 125 126 127
f 125 128 126
f 128 125 129
f 125 130 129
f 131 125 127
f 125 131 130
f 131 127 132
f 131 133 130
f 134 131 132
f 131 134 133
f 134 132 135
f 134 136 133
f 137 134 135
f 134 137 136
f 137 135 138
f 137 139 136
f 140 137 138
f 137 140 139
f 140 138 141
f 140 142 139
f 143 140 141
f 140 143 142
f 143 141 144
f 143 145 142
f 146 143 144
f 143 146 145
f 146 144 147
f 146 148 145
f 149 146 147
f 146 149 148
f 149 147 150
f 149 151 148
f 152 149 150
f 149 152 151
f 152 150 153
f 152 154 151
f 155 152 153
f 152 155 154
f 155 153 156
f 155 157 154
f 158 155 156
f 155 158 157
f 158 156 159
f 158 160 157
f 161 158 159
f 158 161 160
f 161 159 162
f 161 163 160
f 164 161 162
f 161 164 163
f 164 162 165
f 164 166 163
f 167 164 165
f 164 167 166
f 167 165 168
f 167 169 166
f 170 167 168
f 167 170 169
f 170 168 171
f 170 172 169
f 173 170 171
f 170 173 172
f 174 175 176
f 174 176 177
f 175 174 178
f 178 174 177
