# ROS coordinates: X forward, Y left, Z up; units are metres.
o mesh
v 0.160577521 0.0385 0.169166774
v 0.1610116 0.0385 0.169049263
v 0.160577521 0.0345000029 0.169166774
v 0.1610116 0.0345000029 0.169049263
v 0.161336526 0.0365000032 0.168988019
v 0.161469549 0.0385 0.168969274
v 0.161469549 0.0345000029 0.168969274
v 0.161946744 0.0385 0.168931723
v 0.161946744 0.0345000029 0.168931723
v 0.162155792 0.0365000032 0.168929681
v 0.162437484 0.0385 0.168940783
v 0.162437484 0.0345000029 0.168940783
v 0.162579253 0.0365000032 0.1689524
v 0.162935019 0.0385 0.1689996
v 0.162935019 0.0345000029 0.1689996
v 0.163006216 0.0365000032 0.169012189
v 0.1634318 0.0385 0.169110015
v 0.1634318 0.0345000029 0.169110015
v 0.1634318 0.0365000032 0.169110015
v 0.163850963 0.0365000032 0.169246018
v 0.163919851 0.0385 0.169272333
v 0.163919851 0.0345000029 0.169272333
v 0.164258629 0.0365000032 0.169419363
v 0.164391086 0.0385 0.1694852
v 0.164391086 0.0345000029 0.1694852
v 0.164649814 0.0365000032 0.169628426
v 0.1648378 0.0385 0.1697456
v 0.1648378 0.0345000029 0.1697456
v 0.165020019 0.0365000032 0.169870645
v 0.165253118 0.0385 0.170048982
v 0.165253118 0.0345000029 0.170048982
v 0.165365174 0.0365000032 0.170142785
v 0.165631235 0.0385 0.1703896
v 0.165631235 0.0345000029 0.1703896
v 0.165681928 0.0365000032 0.170440912
v 0.165967733 0.0385 0.170760751
v 0.165967733 0.0345000029 0.170760751
v 0.165967733 0.0365000032 0.170760751
v 0.166259781 0.0385 0.171155259
v 0.166259781 0.0345000029 0.171155259
v 0.166440338 0.0365000032 0.171447247
v 0.166505992 0.0385 0.171565741
v 0.166505992 0.0345000029 0.171565741
v 0.166680589 0.0365000032 0.171924964
v 0.166706458 0.0385 0.171985179
v 0.166862532 0.0365000032 0.172406957
v 0.166706458 0.0345000029 0.171985179
v 0.166862532 0.0385 0.172406957
v 0.166862532 0.0345000029 0.172406957
v 0.166980058 0.0385 0.172841042
v 0.166980058 0.0345000029 0.172841042
v 0.166993886 0.0365000032 0.1729051
v 0.167060047 0.0385 0.173298985
v 0.167060047 0.0345000029 0.173298985
v 0.1670753 0.0365000032 0.173433572
v 0.1670976 0.0385 0.173776165
v 0.1670976 0.0345000029 0.173776165
v 0.16709961 0.0365000032 0.173985228
v 0.167088524 0.0385 0.174266919
v 0.167088524 0.0345000029 0.174266919
v 0.167061165 0.0365000032 0.174550861
v 0.167029709 0.0385 0.174764454
v 0.167029709 0.0345000029 0.174764454
v 0.166956156 0.0365000032 0.175119847
v 0.166919261 0.0385 0.175261229
v 0.166919261 0.0345000029 0.175261229
v 0.1667833 0.0365000032 0.175680429
v 0.166756958 0.0385 0.175749287
v 0.1665441 0.0365000032 0.176220521
v 0.166756958 0.0345000029 0.175749287
v 0.1665441 0.0385 0.176220521
v 0.1665441 0.0345000029 0.176220521
v 0.166283727 0.0385 0.176667243
v 0.166283727 0.0345000029 0.176667243
v 0.166242883 0.0365000032 0.176728651
v 0.165980324 0.0385 0.177082554
v 0.165980324 0.0345000029 0.177082554
v 0.165886521 0.0365000032 0.17719461
v 0.1656397 0.0385 0.17746067
v 0.1656397 0.0345000029 0.17746067
v 0.165483966 0.0365000032 0.177610189
v 0.16526854 0.0385 0.177797168
v 0.16526854 0.0345000029 0.177797168
v 0.16504553 0.0365000032 0.17796962
v 0.164874062 0.0385 0.178089216
v 0.164874062 0.0345000029 0.178089216
v 0.164582059 0.0365000032 0.178269774
v 0.16446355 0.0385 0.178335428
v 0.16446355 0.0345000029 0.178335428
v 0.164104342 0.0365000032 0.178510025
v 0.164044142 0.0385 0.1785359
v 0.164044142 0.0345000029 0.1785359
v 0.163622364 0.0385 0.178691968
v 0.163622364 0.0345000029 0.178691968
v 0.163188264 0.0385 0.1788095
v 0.163188264 0.0345000029 0.1788095
v 0.162863359 0.0365000032 0.178870738
v 0.162730336 0.0385 0.178889468
v 0.162730336 0.0345000029 0.178889468
v 0.162253112 0.0385 0.178927034
v 0.162253112 0.0345000029 0.178927034
v 0.1620441 0.0365000032 0.178929061
v 0.161762387 0.0385 0.178917959
v 0.161762387 0.0345000029 0.178917959
v 0.1616206 0.0365000032 0.178906351
v 0.161264852 0.0385 0.178859144
v 0.161264852 0.0345000029 0.178859144
v 0.161193639 0.0365000032 0.178846553
v 0.160768047 0.0385 0.178748727
v 0.160768047 0.0345000029 0.178748727
v 0.160768047 0.0365000032 0.178748727
v 0.160348892 0.0365000032 0.178612739
v 0.160280019 0.0385 0.1785864
v 0.160280019 0.0345000029 0.1785864
v 0.159941256 0.0365000032 0.178439379
v 0.159808785 0.0385 0.178373545
v 0.159808785 0.0345000029 0.178373545
v 0.159550041 0.0365000032 0.178230315
v 0.159362078 0.0385 0.178113163
v 0.159362078 0.0345000029 0.178113163
v 0.159179866 0.0365000032 0.1779881
v 0.158946753 0.0385 0.17780976
v 0.158946753 0.0345000029 0.17780976
v 0.158834726 0.0365000032 0.177715987
v 0.158568636 0.0385 0.177469134
v 0.158568636 0.0345000029 0.177469134
v 0.158517942 0.0365000032 0.17741783
v 0.158232138 0.0385 0.177097991
v 0.158232138 0.0345000029 0.177097991
v 0.158232138 0.0365000032 0.177097991
v 0.1579401 0.0385 0.1767035
v 0.1579401 0.0345000029 0.1767035
v 0.157759547 0.0365000032 0.17641148
v 0.1576939 0.0385 0.176292986
v 0.1576939 0.0345000029 0.176292986
v 0.1575193 0.0365000032 0.175933778
v 0.157493412 0.0385 0.175873578
v 0.157337353 0.0365000032 0.1754518
v 0.157493412 0.0345000029 0.175873578
v 0.157337353 0.0385 0.1754518
v 0.157337353 0.0345000029 0.1754518
v 0.157219827 0.0385 0.1750177
v 0.157219827 0.0345000029 0.1750177
v 0.157205969 0.0365000032 0.17495364
v 0.157139838 0.0385 0.174559772
v 0.157139838 0.0345000029 0.174559772
v 0.157124564 0.0365000032 0.174425155
v 0.157102287 0.0385 0.174082577
v 0.157102287 0.0345000029 0.174082577
v 0.157100245 0.0365000032 0.173873529
v 0.157111347 0.0385 0.173591807
v 0.157111347 0.0345000029 0.173591807
v 0.15713872 0.0365000032 0.173307881
v 0.157170162 0.0385 0.173094273
v 0.157170162 0.0345000029 0.173094273
v 0.157243729 0.0365000032 0.1727389
v 0.157280579 0.0385 0.172597483
v 0.157280579 0.0345000029 0.172597483
v 0.157416582 0.0365000032 0.172178328
v 0.157442912 0.0385 0.172109455
v 0.157655761 0.0365000032 0.171638221
v 0.157442912 0.0345000029 0.172109455
v 0.157655761 0.0385 0.171638221
v 0.157655761 0.0345000029 0.171638221
v 0.157916158 0.0385 0.171191514
v 0.157916158 0.0345000029 0.171191514
v 0.157956988 0.0365000032 0.171130091
v 0.158219546 0.0385 0.170776218
v 0.158219546 0.0345000029 0.170776218
v 0.158313349 0.0365000032 0.170664161
v 0.158560157 0.0385 0.170398086
v 0.158560157 0.0345000029 0.170398086
v 0.1587159 0.0365000032 0.170248583
v 0.158931315 0.0385 0.170061573
v 0.158931315 0.0345000029 0.170061573
v 0.15915437 0.0365000032 0.169889122
v 0.159325823 0.0385 0.16976954
v 0.159325823 0.0345000029 0.16976954
v 0.159617826 0.0365000032 0.169588983
v 0.1597363 0.0385 0.169523329
v 0.1597363 0.0345000029 0.169523329
v 0.160095528 0.0365000032 0.169348717
v 0.160155743 0.0385 0.169322848
v 0.160155743 0.0345000029 0.169322848
v 0.160577521 0.0385 0.169166774
v 0.160577521 0.0345000029 0.169166774
v 0.1616432 0.0345000029 0.1725006
v 0.1616432 0.0385 0.1725006
v 0.161390841 0.0385 0.172607571
v 0.161355287 0.0365000032 0.172627255
v 0.161390841 0.0345000029 0.172607571
v 0.161149353 0.0385 0.17276904
v 0.161149353 0.0345000029 0.17276904
v 0.161084741 0.0365000032 0.172825143
v 0.160935819 0.0385 0.172983423
v 0.160935819 0.0345000029 0.172983423
v 0.160857052 0.0365000032 0.1730896
v 0.160766691 0.0385 0.173242018
v 0.160766691 0.0345000029 0.173242018
v 0.160694927 0.0365000032 0.173404068
v 0.160654128 0.0385 0.1735298
v 0.160654128 0.0345000029 0.1735298
v 0.160611585 0.0365000032 0.173742935
v 0.160603359 0.0385 0.173828125
v 0.160603359 0.0345000029 0.173828125
v 0.160607323 0.0365000032 0.1740781
v 0.1606119 0.0385 0.174118489
v 0.160671175 0.0365000032 0.174386114
v 0.1606119 0.0345000029 0.174118489
v 0.160671175 0.0385 0.174386114
v 0.160671175 0.0345000029 0.174386114
v 0.160778135 0.0385 0.17463845
v 0.160778135 0.0345000029 0.17463845
v 0.160797819 0.0365000032 0.174674
v 0.1609396 0.0385 0.174879953
v 0.1609396 0.0345000029 0.174879953
v 0.1609396 0.0365000032 0.174879953
v 0.16112037 0.0365000032 0.175065368
v 0.161153987 0.0385 0.175093487
v 0.161153987 0.0345000029 0.175093487
v 0.161334991 0.0365000032 0.175219655
v 0.161412582 0.0385 0.17526263
v 0.161412582 0.0345000029 0.17526263
v 0.161574617 0.0365000032 0.175334379
v 0.161700383 0.0385 0.175375178
v 0.161700383 0.0345000029 0.175375178
v 0.161828041 0.0365000032 0.175404519
v 0.161998689 0.0385 0.175425947
v 0.161998689 0.0345000029 0.175425947
v 0.1620832 0.0365000032 0.175429285
v 0.162289053 0.0385 0.175417423
v 0.162289053 0.0345000029 0.175417423
v 0.162328959 0.0365000032 0.175411791
v 0.162556648 0.0385 0.175358146
v 0.162556648 0.0345000029 0.175358146
v 0.162809029 0.0385 0.175251186
v 0.162844568 0.0365000032 0.175231516
v 0.162809029 0.0345000029 0.175251186
v 0.163050517 0.0385 0.1750897
v 0.163050517 0.0345000029 0.1750897
v 0.163115144 0.0365000032 0.175033629
v 0.163264051 0.0385 0.174875334
v 0.163264051 0.0345000029 0.174875334
v 0.163342819 0.0365000032 0.174769163
v 0.1634332 0.0385 0.174616709
v 0.1634332 0.0345000029 0.174616709
v 0.163504943 0.0365000032 0.174454674
v 0.163545758 0.0385 0.174328923
v 0.163545758 0.0345000029 0.174328923
v 0.1635883 0.0365000032 0.174115822
v 0.163596511 0.0385 0.174030647
v 0.163596511 0.0345000029 0.174030647
v 0.163592532 0.0365000032 0.173780635
v 0.163587958 0.0385 0.173740253
v 0.163528711 0.0365000032 0.173472643
v 0.163587958 0.0345000029 0.173740253
v 0.163528711 0.0385 0.173472643
v 0.163528711 0.0345000029 0.173472643
v 0.163421765 0.0385 0.173220277
v 0.163421765 0.0345000029 0.173220277
v 0.163402051 0.0365000032 0.173184738
v 0.163260266 0.0385 0.172978789
v 0.163260266 0.0345000029 0.172978789
v 0.163260266 0.0365000032 0.172978789
v 0.1630795 0.0365000032 0.1727934
v 0.1630459 0.0385 0.172765255
v 0.1630459 0.0345000029 0.172765255
v 0.162864909 0.0365000032 0.1726391
v 0.162787274 0.0385 0.172596127
v 0.162787274 0.0345000029 0.172596127
v 0.162625238 0.0365000032 0.172524363
v 0.162499487 0.0385 0.172483563
v 0.162499487 0.0345000029 0.172483563
v 0.162371814 0.0365000032 0.172454208
v 0.162201211 0.0385 0.1724328
v 0.162201211 0.0345000029 0.1724328
v 0.162116677 0.0365000032 0.172429472
v 0.161910817 0.0385 0.172441334
v 0.161910817 0.0345000029 0.172441334
v 0.1618709 0.0365000032 0.172446966
v 0.1616432 0.0385 0.1725006
v 0.1616432 0.0345000029 0.1725006
v 0.162289053 0.0345000029 0.175417423
v 0.162730336 0.0345000029 0.178889468
v 0.162253112 0.0345000029 0.178927034
v 0.163188264 0.0345000029 0.1788095
v 0.161998689 0.0345000029 0.175425947
v 0.161762387 0.0345000029 0.178917959
v 0.161264852 0.0345000029 0.178859144
v 0.162556648 0.0345000029 0.175358146
v 0.163622364 0.0345000029 0.178691968
v 0.164044142 0.0345000029 0.1785359
v 0.161700383 0.0345000029 0.175375178
v 0.160768047 0.0345000029 0.178748727
v 0.160280019 0.0345000029 0.1785864
v 0.162809029 0.0345000029 0.175251186
v 0.16446355 0.0345000029 0.178335428
v 0.164874062 0.0345000029 0.178089216
v 0.161412582 0.0345000029 0.17526263
v 0.159808785 0.0345000029 0.178373545
v 0.159362078 0.0345000029 0.178113163
v 0.163050517 0.0345000029 0.1750897
v 0.16526854 0.0345000029 0.177797168
v 0.1656397 0.0345000029 0.17746067
v 0.161153987 0.0345000029 0.175093487
v 0.158946753 0.0345000029 0.17780976
v 0.158568636 0.0345000029 0.177469134
v 0.163264051 0.0345000029 0.174875334
v 0.165980324 0.0345000029 0.177082554
v 0.166283727 0.0345000029 0.176667243
v 0.1609396 0.0345000029 0.174879953
v 0.158232138 0.0345000029 0.177097991
v 0.1579401 0.0345000029 0.1767035
v 0.1634332 0.0345000029 0.174616709
v 0.1665441 0.0345000029 0.176220521
v 0.166756958 0.0345000029 0.175749287
v 0.160778135 0.0345000029 0.17463845
v 0.1576939 0.0345000029 0.176292986
v 0.157493412 0.0345000029 0.175873578
v 0.163545758 0.0345000029 0.174328923
v 0.166919261 0.0345000029 0.175261229
v 0.167029709 0.0345000029 0.174764454
v 0.160671175 0.0345000029 0.174386114
v 0.157337353 0.0345000029 0.1754518
v 0.157219827 0.0345000029 0.1750177
v 0.163596511 0.0345000029 0.174030647
v 0.167088524 0.0345000029 0.174266919
v 0.1670976 0.0345000029 0.173776165
v 0.1606119 0.0345000029 0.174118489
v 0.157139838 0.0345000029 0.174559772
v 0.157102287 0.0345000029 0.174082577
v 0.163587958 0.0345000029 0.173740253
v 0.167060047 0.0345000029 0.173298985
v 0.166980058 0.0345000029 0.172841042
v 0.160603359 0.0345000029 0.173828125
v 0.157111347 0.0345000029 0.173591807
v 0.157170162 0.0345000029 0.173094273
v 0.163528711 0.0345000029 0.173472643
v 0.160654128 0.0345000029 0.1735298
v 0.157280579 0.0345000029 0.172597483
v 0.157442912 0.0345000029 0.172109455
v 0.166862532 0.0345000029 0.172406957
v 0.160766691 0.0345000029 0.173242018
v 0.157655761 0.0345000029 0.171638221
v 0.157916158 0.0345000029 0.171191514
v 0.166706458 0.0345000029 0.171985179
v 0.160935819 0.0345000029 0.172983423
v 0.158219546 0.0345000029 0.170776218
v 0.158560157 0.0345000029 0.170398086
v 0.166505992 0.0345000029 0.171565741
v 0.166259781 0.0345000029 0.171155259
v 0.165967733 0.0345000029 0.170760751
v 0.165631235 0.0345000029 0.1703896
v 0.165253118 0.0345000029 0.170048982
v 0.161149353 0.0345000029 0.17276904
v 0.158931315 0.0345000029 0.170061573
v 0.159325823 0.0345000029 0.16976954
v 0.1648378 0.0345000029 0.1697456
v 0.161390841 0.0345000029 0.172607571
v 0.1597363 0.0345000029 0.169523329
v 0.160155743 0.0345000029 0.169322848
v 0.164391086 0.0345000029 0.1694852
v 0.1616432 0.0345000029 0.1725006
v 0.160577521 0.0345000029 0.169166774
v 0.1610116 0.0345000029 0.169049263
v 0.163919851 0.0345000029 0.169272333
v 0.161910817 0.0345000029 0.172441334
v 0.161469549 0.0345000029 0.168969274
v 0.161946744 0.0345000029 0.168931723
v 0.162201211 0.0345000029 0.1724328
v 0.162437484 0.0345000029 0.168940783
v 0.1634318 0.0345000029 0.169110015
v 0.162935019 0.0345000029 0.1689996
v 0.162499487 0.0345000029 0.172483563
v 0.163421765 0.0345000029 0.173220277
v 0.162787274 0.0345000029 0.172596127
v 0.163260266 0.0345000029 0.172978789
v 0.1630459 0.0345000029 0.172765255
v 0.161390841 0.0385 0.172607571
v 0.1597363 0.0385 0.169523329
v 0.159325823 0.0385 0.16976954
v 0.160155743 0.0385 0.169322848
v 0.161149353 0.0385 0.17276904
v 0.158931315 0.0385 0.170061573
v 0.158560157 0.0385 0.170398086
v 0.1616432 0.0385 0.1725006
v 0.160577521 0.0385 0.169166774
v 0.1610116 0.0385 0.169049263
v 0.160935819 0.0385 0.172983423
v 0.158219546 0.0385 0.170776218
v 0.157916158 0.0385 0.171191514
v 0.161910817 0.0385 0.172441334
v 0.161469549 0.0385 0.168969274
v 0.161946744 0.0385 0.168931723
v 0.160766691 0.0385 0.173242018
v 0.157655761 0.0385 0.171638221
v 0.157442912 0.0385 0.172109455
v 0.162201211 0.0385 0.1724328
v 0.162437484 0.0385 0.168940783
v 0.162935019 0.0385 0.1689996
v 0.160654128 0.0385 0.1735298
v 0.157280579 0.0385 0.172597483
v 0.157170162 0.0385 0.173094273
v 0.162499487 0.0385 0.172483563
v 0.1634318 0.0385 0.169110015
v 0.163919851 0.0385 0.169272333
v 0.160603359 0.0385 0.173828125
v 0.157111347 0.0385 0.173591807
v 0.157102287 0.0385 0.174082577
v 0.162787274 0.0385 0.172596127
v 0.164391086 0.0385 0.1694852
v 0.1648378 0.0385 0.1697456
v 0.1606119 0.0385 0.174118489
v 0.157139838 0.0385 0.174559772
v 0.157219827 0.0385 0.1750177
v 0.1630459 0.0385 0.172765255
v 0.165253118 0.0385 0.170048982
v 0.165631235 0.0385 0.1703896
v 0.160671175 0.0385 0.174386114
v 0.157337353 0.0385 0.1754518
v 0.157493412 0.0385 0.175873578
v 0.163260266 0.0385 0.172978789
v 0.165967733 0.0385 0.170760751
v 0.166259781 0.0385 0.171155259
v 0.160778135 0.0385 0.17463845
v 0.1576939 0.0385 0.176292986
v 0.1579401 0.0385 0.1767035
v 0.163421765 0.0385 0.173220277
v 0.166505992 0.0385 0.171565741
v 0.166706458 0.0385 0.171985179
v 0.1609396 0.0385 0.174879953
v 0.158232138 0.0385 0.177097991
v 0.158568636 0.0385 0.177469134
v 0.163528711 0.0385 0.173472643
v 0.161153987 0.0385 0.175093487
v 0.158946753 0.0385 0.17780976
v 0.159362078 0.0385 0.178113163
v 0.166862532 0.0385 0.172406957
v 0.161412582 0.0385 0.17526263
v 0.159808785 0.0385 0.178373545
v 0.160280019 0.0385 0.1785864
v 0.166980058 0.0385 0.172841042
v 0.161700383 0.0385 0.175375178
v 0.160768047 0.0385 0.178748727
v 0.161264852 0.0385 0.178859144
v 0.167060047 0.0385 0.173298985
v 0.1670976 0.0385 0.173776165
v 0.167088524 0.0385 0.174266919
v 0.167029709 0.0385 0.174764454
v 0.166919261 0.0385 0.175261229
v 0.161998689 0.0385 0.175425947
v 0.161762387 0.0385 0.178917959
v 0.162253112 0.0385 0.178927034
v 0.166756958 0.0385 0.175749287
v 0.162289053 0.0385 0.175417423
v 0.162730336 0.0385 0.178889468
v 0.163188264 0.0385 0.1788095
v 0.1665441 0.0385 0.176220521
v 0.162556648 0.0385 0.175358146
v 0.163622364 0.0385 0.178691968
v 0.164044142 0.0385 0.1785359
v 0.166283727 0.0385 0.176667243
v 0.162809029 0.0385 0.175251186
v 0.16446355 0.0385 0.178335428
v 0.164874062 0.0385 0.178089216
v 0.163050517 0.0385 0.1750897
v 0.16526854 0.0385 0.177797168
v 0.165980324 0.0385 0.177082554
v 0.1656397 0.0385 0.17746067
v 0.163264051 0.0385 0.174875334
v 0.163587958 0.0385 0.173740253
v 0.1634332 0.0385 0.174616709
v 0.163596511 0.0385 0.174030647
v 0.163545758 0.0385 0.174328923
f 1 2 3
f 2 4 3
f 2 5 4
f 5 2 6
f 5 7 4
f 5 6 8
f 5 9 7
f 10 5 8
f 5 10 9
f 10 8 11
f 10 12 9
f 13 10 11
f 10 13 12
f 13 11 14
f 13 15 12
f 16 13 14
f 13 16 15
f 16 14 17
f 16 18 15
f 16 17 19
f 18 16 19
f 20 19 17
f 18 19 20
f 20 17 21
f 22 18 20
f 23 20 21
f 22 20 23
f 23 21 24
f 25 22 23
f 26 23 24
f 25 23 26
f 26 24 27
f 28 25 26
f 29 26 27
f 28 26 29
f 29 27 30
f 31 28 29
f 32 29 30
f 31 29 32
f 32 30 33
f 34 31 32
f 35 32 33
f 34 32 35
f 35 33 36
f 37 34 35
f 38 35 36
f 37 35 38
f 38 36 39
f 40 37 38
f 41 38 39
f 40 38 41
f 41 39 42
f 43 40 41
f 44 41 42
f 43 41 44
f 44 42 45
f 46 44 45
f 47 43 44
f 47 44 46
f 46 45 48
f 49 47 46
f 46 48 50
f 51 49 46
f 52 46 50
f 51 46 52
f 52 50 53
f 54 51 52
f 55 52 53
f 54 52 55
f 55 53 56
f 57 54 55
f 58 55 56
f 57 55 58
f 58 56 59
f 60 57 58
f 61 58 59
f 60 58 61
f 61 59 62
f 63 60 61
f 64 61 62
f 63 61 64
f 64 62 65
f 66 63 64
f 67 64 65
f 66 64 67
f 67 65 68
f 69 67 68
f 70 66 67
f 70 67 69
f 69 68 71
f 72 70 69
f 69 71 73
f 74 72 69
f 75 69 73
f 74 69 75
f 75 73 76
f 77 74 75
f 78 75 76
f 77 75 78
f 78 76 79
f 80 77 78
f 81 78 79
f 80 78 81
f 81 79 82
f 83 80 81
f 84 81 82
f 83 81 84
f 84 82 85
f 86 83 84
f 87 84 85
f 86 84 87
f 87 85 88
f 89 86 87
f 90 87 88
f 89 87 90
f 90 88 91
f 92 89 90
f 93 90 91
f 92 90 93
f 94 92 93
f 93 95 94
f 95 96 94
f 95 97 96
f 97 95 98
f 97 99 96
f 97 98 100
f 97 101 99
f 102 97 100
f 97 102 101
f 102 100 103
f 102 104 101
f 105 102 103
f 102 105 104
f 105 103 106
f 105 107 104
f 108 105 106
f 105 108 107
f 108 106 109
f 108 110 107
f 111 108 109
f 108 111 110
f 111 109 112
f 111 112 110
f 109 113 112
f 110 112 114
f 113 115 112
f 112 115 114
f 113 116 115
f 114 115 117
f 116 118 115
f 115 118 117
f 116 119 118
f 117 118 120
f 119 121 118
f 118 121 120
f 119 122 121
f 120 121 123
f 122 124 121
f 121 124 123
f 122 125 124
f 123 124 126
f 125 127 124
f 124 127 126
f 125 128 127
f 126 127 129
f 128 130 127
f 127 130 129
f 128 131 130
f 129 130 132
f 131 133 130
f 130 133 132
f 131 134 133
f 132 133 135
f 134 136 133
f 133 136 135
f 134 137 136
f 137 138 136
f 135 136 139
f 136 138 139
f 137 140 138
f 139 138 141
f 140 142 138
f 138 143 141
f 142 144 138
f 138 144 143
f 142 145 144
f 144 146 143
f 145 147 144
f 144 147 146
f 145 148 147
f 147 149 146
f 148 150 147
f 147 150 149
f 148 151 150
f 150 152 149
f 151 153 150
f 150 153 152
f 151 154 153
f 153 155 152
f 154 156 153
f 153 156 155
f 154 157 156
f 156 158 155
f 157 159 156
f 156 159 158
f 157 160 159
f 160 161 159
f 159 162 158
f 159 161 162
f 160 163 161
f 161 164 162
f 163 165 161
f 161 166 164
f 165 167 161
f 161 167 166
f 165 168 167
f 167 169 166
f 168 170 167
f 167 170 169
f 168 171 170
f 170 172 169
f 171 173 170
f 170 173 172
f 171 174 173
f 173 175 172
f 174 176 173
f 173 176 175
f 174 177 176
f 176 178 175
f 177 179 176
f 176 179 178
f 177 180 179
f 179 181 178
f 180 182 179
f 179 182 181
f 180 183 182
f 182 184 181
f 183 185 182
f 185 184 182
f 185 186 184
f 187 188 189
f 187 189 190
f 191 187 190
f 190 189 192
f 193 191 190
f 194 190 192
f 193 190 194
f 194 192 195
f 196 193 194
f 197 194 195
f 196 194 197
f 197 195 198
f 199 196 197
f 200 197 198
f 199 197 200
f 200 198 201
f 202 199 200
f 203 200 201
f 202 200 203
f 203 201 204
f 205 202 203
f 206 203 204
f 205 203 206
f 206 204 207
f 208 206 207
f 209 205 206
f 209 206 208
f 208 207 210
f 211 209 208
f 212 208 210
f 213 211 208
f 214 208 212
f 213 208 214
f 215 214 212
f 216 213 214
f 217 214 215
f 217 216 214
f 218 217 215
f 217 218 216
f 218 215 219
f 218 220 216
f 221 218 219
f 218 221 220
f 221 219 222
f 221 223 220
f 224 221 222
f 221 224 223
f 224 222 225
f 224 226 223
f 227 224 225
f 224 227 226
f 227 225 228
f 227 229 226
f 230 227 228
f 227 230 229
f 230 228 231
f 230 232 229
f 233 230 231
f 230 233 232
f 233 231 234
f 232 233 235
f 233 234 235
f 234 236 235
f 236 237 235
f 235 237 238
f 236 239 237
f 237 240 238
f 239 241 237
f 237 241 240
f 239 242 241
f 241 243 240
f 242 244 241
f 241 244 243
f 242 245 244
f 244 246 243
f 245 247 244
f 244 247 246
f 245 248 247
f 247 249 246
f 248 250 247
f 247 250 249
f 248 251 250
f 250 252 249
f 251 253 250
f 250 253 252
f 251 254 253
f 254 255 253
f 253 256 252
f 253 255 256
f 254 257 255
f 255 258 256
f 257 259 255
f 255 260 258
f 259 261 255
f 255 261 260
f 259 262 261
f 261 263 260
f 262 264 261
f 261 264 263
f 262 265 264
f 265 263 264
f 266 265 262
f 265 267 263
f 268 265 266
f 265 268 267
f 269 268 266
f 268 270 267
f 271 268 269
f 268 271 270
f 272 271 269
f 271 273 270
f 274 271 272
f 271 274 273
f 275 274 272
f 274 276 273
f 277 274 275
f 274 277 276
f 278 277 275
f 277 279 276
f 280 277 278
f 277 280 279
f 281 280 278
f 280 282 279
f 280 281 282
f 283 284 285
f 283 286 284
f 287 283 285
f 287 285 288
f 287 288 289
f 283 290 286
f 286 290 291
f 290 292 291
f 293 287 289
f 293 289 294
f 293 294 295
f 290 296 292
f 296 297 292
f 296 298 297
f 299 293 295
f 299 295 300
f 299 300 301
f 296 302 298
f 302 303 298
f 302 304 303
f 305 299 301
f 305 301 306
f 305 306 307
f 302 308 304
f 308 309 304
f 308 310 309
f 311 305 307
f 311 307 312
f 311 312 313
f 308 314 310
f 314 315 310
f 314 316 315
f 317 311 313
f 317 313 318
f 317 318 319
f 314 320 316
f 320 321 316
f 320 322 321
f 323 317 319
f 323 319 324
f 323 324 325
f 320 326 322
f 326 327 322
f 326 328 327
f 329 323 325
f 329 325 330
f 329 330 331
f 326 332 328
f 332 333 328
f 332 334 333
f 335 329 331
f 335 331 336
f 335 336 337
f 332 338 334
f 339 335 337
f 339 337 340
f 339 340 341
f 338 342 334
f 343 339 341
f 343 341 344
f 343 344 345
f 338 346 342
f 347 343 345
f 347 345 348
f 347 348 349
f 346 338 350
f 338 351 350
f 338 352 351
f 352 338 353
f 338 354 353
f 355 347 349
f 355 349 356
f 355 356 357
f 338 358 354
f 359 355 357
f 359 357 360
f 359 360 361
f 358 338 362
f 363 359 361
f 363 361 364
f 363 364 365
f 338 366 362
f 367 363 365
f 367 365 368
f 367 368 369
f 370 367 369
f 370 369 371
f 338 372 366
f 372 338 373
f 338 371 373
f 374 370 371
f 338 375 371
f 376 374 371
f 375 377 371
f 378 376 371
f 377 378 371
f 379 380 381
f 379 382 380
f 383 379 381
f 383 381 384
f 383 384 385
f 379 386 382
f 382 386 387
f 386 388 387
f 389 383 385
f 389 385 390
f 389 390 391
f 386 392 388
f 392 393 388
f 392 394 393
f 395 389 391
f 395 391 396
f 395 396 397
f 392 398 394
f 398 399 394
f 398 400 399
f 401 395 397
f 401 397 402
f 401 402 403
f 398 404 400
f 404 405 400
f 404 406 405
f 407 401 403
f 407 403 408
f 407 408 409
f 404 410 406
f 410 411 406
f 410 412 411
f 413 407 409
f 413 409 414
f 413 414 415
f 410 416 412
f 416 417 412
f 416 418 417
f 419 413 415
f 419 415 420
f 419 420 421
f 416 422 418
f 422 423 418
f 422 424 423
f 425 419 421
f 425 421 426
f 425 426 427
f 422 428 424
f 428 429 424
f 428 430 429
f 431 425 427
f 431 427 432
f 431 432 433
f 428 434 430
f 435 431 433
f 435 433 436
f 435 436 437
f 434 438 430
f 439 435 437
f 439 437 440
f 439 440 441
f 434 442 438
f 443 439 441
f 443 441 444
f 443 444 445
f 442 434 446
f 434 447 446
f 434 448 447
f 448 434 449
f 434 450 449
f 451 443 445
f 451 445 452
f 451 452 453
f 434 454 450
f 455 451 453
f 455 453 456
f 455 456 457
f 454 434 458
f 459 455 457
f 459 457 460
f 459 460 461
f 434 462 458
f 463 459 461
f 463 461 464
f 463 464 465
f 466 463 465
f 466 465 467
f 434 468 462
f 468 434 469
f 434 467 469
f 470 466 467
f 434 471 467
f 472 470 467
f 471 473 467
f 474 472 467
f 473 474 467
