# ROS coordinates: X forward, Y left, Z up; units are metres.
o mesh
v -0.160142928 0.0270766653 0.00153523986
v -0.160390213 0.025773745 0.00125383236
v -0.159714162 0.02833047 0.00202317024
v -0.159114 0.029449746 0.00270616123
v -0.158375174 0.03035897 0.00354694435
v -0.160467356 0.0245000031 0.0011660473
v -0.157547534 0.03100852 0.004488781
v -0.156687483 0.0313831419 0.00546751358
v -0.1558467 0.0315000042 0.006424326
v -0.150202841 0.02395411 0.012847
v -0.150235891 0.0245000031 0.0128093781
v -0.150202841 0.02504589 0.012847
v -0.150096849 0.0256042853 0.0129676042
v -0.1499131 0.02614163 0.0131767159
v -0.149655879 0.0266213231 0.0134694278
v -0.149339229 0.0270109884 0.0138297621
v -0.148984551 0.0272893645 0.0142334076
v -0.148615956 0.0274499152 0.0146528631
v -0.1433049 0.0315000042 0.0206967965
v -0.1482556 0.0275000017 0.0150629263
v -0.147895262 0.0274499152 0.0154729886
v -0.147526681 0.0272893645 0.015892446
v -0.147171974 0.0270109884 0.0162960887
v -0.146855325 0.0266213231 0.0166564249
v -0.146598116 0.02614163 0.0169491358
v -0.146414369 0.0256042853 0.0171582475
v -0.146308377 0.02504589 0.0172788519
v -0.146275327 0.0245000031 0.0173164736
v -0.146308377 0.02395411 0.0172788519
v -0.146414369 0.0233957153 0.0171582475
v -0.1433049 0.0015 0.0206967965
v -0.146598116 0.022858372 0.0169491358
v -0.146855325 0.0223786831 0.0166564249
v -0.147171974 0.021989014 0.0162960887
v -0.147526681 0.0217106361 0.015892446
v -0.147895262 0.0215500854 0.0154729886
v -0.151886135 0.0165000018 0.010931422
v -0.160467356 0.0015 0.0011660473
v -0.1482556 0.0215000026 0.0150629263
v -0.148615956 0.0215500854 0.0146528631
v -0.148984551 0.0217106361 0.0142334076
v -0.150096849 0.0233957153 0.0129676042
v -0.149339229 0.021989014 0.0138297621
v -0.1499131 0.022858372 0.0131767159
v -0.149655879 0.0223786831 0.0134694278
v -0.1482556 0.0215000026 0.0150629263
v -0.146377653 0.0215000026 0.01341269
v -0.146738 0.0215500854 0.0130026275
v -0.147729576 0.0215659551 0.0137678636
v -0.148615956 0.0215500854 0.0146528631
v -0.147106588 0.0217106361 0.01258317
v -0.148984551 0.0217106361 0.0142334076
v -0.148149386 0.02177815 0.0132901464
v -0.14746128 0.021989014 0.0121795274
v -0.149339229 0.021989014 0.0138297621
v -0.148541987 0.02214331 0.0128433565
v -0.14777793 0.0223786831 0.01181919
v -0.149655879 0.0223786831 0.0134694278
v -0.148872271 0.02264366 0.0124675017
v -0.148035139 0.022858372 0.01152648
v -0.1499131 0.022858372 0.0131767159
v -0.149113312 0.02323844 0.0121932011
v -0.1482189 0.0233957153 0.0113173667
v -0.150096849 0.0233957153 0.0129676042
v -0.149253368 0.0238743965 0.0120338043
v -0.148324877 0.02395411 0.0111967642
v -0.14929691 0.0245000031 0.0119842589
v -0.150202841 0.02395411 0.012847
v -0.148357928 0.0245000031 0.0111591425
v -0.150235891 0.0245000031 0.0128093781
v -0.148324877 0.02504589 0.0111967642
v -0.150202841 0.02504589 0.012847
v -0.149253368 0.0251256078 0.0120338043
v -0.1482189 0.0256042853 0.0113173667
v -0.150096849 0.0256042853 0.0129676042
v -0.149157882 0.0256042853 0.0121424859
v -0.14900507 0.0260675531 0.0123163685
v -0.148035139 0.02614163 0.01152648
v -0.1499131 0.02614163 0.0131767159
v -0.148797244 0.0264921952 0.0125528863
v -0.14777793 0.0266213231 0.01181919
v -0.149655879 0.0266213231 0.0134694278
v -0.148541987 0.0268566944 0.0128433565
v -0.14746128 0.0270109884 0.0121795274
v -0.149339229 0.0270109884 0.0138297621
v -0.1482515 0.0271446519 0.0131739285
v -0.147106588 0.0272893645 0.01258317
v -0.148984551 0.0272893645 0.0142334076
v -0.147940636 0.0273471717 0.0135277063
v -0.146738 0.0274499152 0.0130026275
v -0.148615956 0.0274499152 0.0146528631
v -0.147624522 0.0274635181 0.013887425
v -0.146377653 0.0275000017 0.01341269
v -0.1482556 0.0275000017 0.0150629263
v -0.146017313 0.0274499152 0.0138227511
v -0.146903679 0.0274340454 0.0147077525
v -0.147895262 0.0274499152 0.0154729886
v -0.145648718 0.0272893645 0.0142422086
v -0.147526681 0.0272893645 0.015892446
v -0.146483868 0.0272218511 0.01518547
v -0.145294026 0.0270109884 0.014645854
v -0.147171974 0.0270109884 0.0162960887
v -0.146091267 0.0268566944 0.01563226
v -0.144977376 0.0266213231 0.0150061883
v -0.146855325 0.0266213231 0.0166564249
v -0.145760983 0.0263563432 0.0160081144
v -0.144720167 0.02614163 0.0152988993
v -0.146598116 0.02614163 0.0169491358
v -0.145519957 0.0257615633 0.0162824132
v -0.1445364 0.0256042853 0.0155080119
v -0.146414369 0.0256042853 0.0171582475
v -0.145379886 0.0251256078 0.01644181
v -0.144430429 0.02504589 0.0156286154
v -0.14533636 0.0245000031 0.0164913554
v -0.146308377 0.02504589 0.0172788519
v -0.144397378 0.0245000031 0.015666239
v -0.146275327 0.0245000031 0.0173164736
v -0.144430429 0.02395411 0.0156286154
v -0.146308377 0.02395411 0.0172788519
v -0.145379886 0.0238743965 0.01644181
v -0.1445364 0.0233957153 0.0155080119
v -0.146414369 0.0233957153 0.0171582475
v -0.145475388 0.0233957153 0.01633313
v -0.145628184 0.02293245 0.0161592476
v -0.144720167 0.022858372 0.0152988993
v -0.146598116 0.022858372 0.0169491358
v -0.145836011 0.0225078054 0.01592273
v -0.144977376 0.0223786831 0.0150061883
v -0.146855325 0.0223786831 0.0166564249
v -0.146091267 0.02214331 0.01563226
v -0.145294026 0.021989014 0.014645854
v -0.147171974 0.021989014 0.0162960887
v -0.146381751 0.0218553543 0.0153016876
v -0.145648718 0.0217106361 0.0142422086
v -0.147526681 0.0217106361 0.015892446
v -0.146692634 0.0216528289 0.0149479089
v -0.146017313 0.0215500854 0.0138227511
v -0.147895262 0.0215500854 0.0154729886
v -0.147008732 0.0215364844 0.0145881912
v -0.146377653 0.0215000026 0.01341269
v -0.1482556 0.0215000026 0.0150629263
v -0.146377653 0.0228500012 0.01341269
v -0.144499689 0.0228500012 0.0117624542
v -0.14469789 0.022877546 0.0115369186
v -0.14566581 0.0228862762 0.0123291016
v -0.146575838 0.022877546 0.0131871551
v -0.1449006 0.0229658484 0.0113062188
v -0.146778554 0.0229658484 0.0129564535
v -0.145896688 0.0230029821 0.0120663568
v -0.145095691 0.0231189616 0.0110842139
v -0.14697364 0.0231189616 0.0127344495
v -0.146112621 0.02320382 0.0118206237
v -0.145269841 0.0233332738 0.0108860293
v -0.1471478 0.0233332738 0.012536265
v -0.146294266 0.0234790146 0.0116139036
v -0.145411313 0.0235971063 0.0107250381
v -0.147289276 0.0235971063 0.0123752747
v -0.146426842 0.0238061436 0.0114630386
v -0.145512387 0.0238926448 0.0106100263
v -0.147390336 0.0238926448 0.0122602619
v -0.146503881 0.0241559185 0.0113753695
v -0.145570666 0.0241997615 0.0105436938
v -0.146527827 0.0245000031 0.01134812
v -0.147448614 0.0241997615 0.0121939313
v -0.145588845 0.0245000031 0.0105230026
v -0.147466809 0.0245000031 0.0121732382
v -0.145570666 0.024800241 0.0105436938
v -0.147448614 0.024800241 0.0121939313
v -0.146503881 0.0248440839 0.0113753695
v -0.145512387 0.0251073558 0.0106100263
v -0.147390336 0.0251073558 0.0122602619
v -0.146451354 0.0251073558 0.0114351436
v -0.146367311 0.0253621526 0.01153078
v -0.145411313 0.0254028961 0.0107250381
v -0.147289276 0.0254028961 0.0123752747
v -0.146253 0.025595706 0.0116608655
v -0.145269841 0.0256667268 0.0108860293
v -0.1471478 0.0256667268 0.012536265
v -0.146112621 0.02579618 0.0118206237
v -0.145095691 0.0258810446 0.0110842139
v -0.14697364 0.0258810446 0.0127344495
v -0.145952851 0.02595456 0.0120024374
v -0.1449006 0.0260341521 0.0113062188
v -0.146778554 0.0260341521 0.0129564535
v -0.145781875 0.0260659475 0.0121970158
v -0.14469789 0.0261224546 0.0115369186
v -0.146575838 0.0261224546 0.0131871551
v -0.145608008 0.0261299349 0.01239486
v -0.144499689 0.0261500012 0.0117624542
v -0.146377653 0.0261500012 0.01341269
v -0.1443015 0.0261224546 0.0119879888
v -0.145211548 0.0261137262 0.0128460405
v -0.146179467 0.0261224546 0.0136382235
v -0.144098788 0.0260341521 0.01221869
v -0.145976737 0.0260341521 0.0138689252
v -0.144980654 0.0259970166 0.0131087853
v -0.1439037 0.0258810446 0.0124406945
v -0.145781651 0.0258810446 0.0140909292
v -0.144764721 0.02579618 0.0133545212
v -0.143729538 0.0256667268 0.0126388781
v -0.1456075 0.0256667268 0.0142891137
v -0.144583076 0.0255209878 0.0135612395
v -0.143588066 0.0254028961 0.0127998693
v -0.14546603 0.0254028961 0.0144501049
v -0.1444505 0.0251938589 0.0137121053
v -0.143487021 0.0251073558 0.0129148811
v -0.14536497 0.0251073558 0.0145651167
v -0.144373462 0.0248440839 0.0137997735
v -0.143428728 0.024800241 0.0129812127
v -0.144349515 0.0245000031 0.0138270222
v -0.145306677 0.024800241 0.0146314492
v -0.143410534 0.0245000031 0.0130019048
v -0.1452885 0.0245000031 0.01465214
v -0.143428728 0.0241997615 0.0129812127
v -0.145306677 0.0241997615 0.0146314492
v -0.144373462 0.0241559185 0.0137997735
v -0.143487021 0.0238926448 0.0129148811
v -0.14536497 0.0238926448 0.0145651167
v -0.144425988 0.0238926448 0.0137399985
v -0.144510031 0.0236378461 0.0136443637
v -0.143588066 0.0235971063 0.0127998693
v -0.14546603 0.0235971063 0.0144501049
v -0.144624338 0.0234042946 0.0135142785
v -0.143729538 0.0233332738 0.0126388781
v -0.1456075 0.0233332738 0.0142891137
v -0.144764721 0.02320382 0.0133545212
v -0.1439037 0.0231189616 0.0124406945
v -0.145781651 0.0231189616 0.0140909292
v -0.144924492 0.023045443 0.0131727057
v -0.144098788 0.0229658484 0.01221869
v -0.145976737 0.0229658484 0.0138689252
v -0.145095468 0.0229340568 0.0129781282
v -0.1443015 0.022877546 0.0119879888
v -0.146179467 0.022877546 0.0136382235
v -0.145269334 0.0228700675 0.0127802826
v -0.144499689 0.0228500012 0.0117624542
v -0.146377653 0.0228500012 0.01341269
v -0.143729538 0.0233332738 0.0126388781
v -0.139548987 0.0015 0.0173963234
v -0.1439037 0.0231189616 0.0124406945
v -0.143588066 0.0235971063 0.0127998693
v -0.144098788 0.0229658484 0.01221869
v -0.143487021 0.0238926448 0.0129148811
v -0.147470117 0.0165000018 0.008382132
v -0.1443015 0.022877546 0.0119879888
v -0.144499689 0.0228500012 0.0117624542
v -0.14469789 0.022877546 0.0115369186
v -0.1449006 0.0229658484 0.0113062188
v -0.145095691 0.0231189616 0.0110842139
v -0.145269841 0.0233332738 0.0108860293
v -0.145411313 0.0235971063 0.0107250381
v -0.145512387 0.0238926448 0.0106100263
v -0.145570666 0.0241997615 0.0105436938
v -0.145588845 0.0245000031 0.0105230026
v -0.139548987 0.0315000042 0.0173963234
v -0.155391261 0.0015 -0.00063206
v -0.143428728 0.0241997615 0.0129812127
v -0.143410534 0.0245000031 0.0130019048
v -0.143428728 0.024800241 0.0129812127
v -0.143487021 0.0251073558 0.0129148811
v -0.143588066 0.0254028961 0.0127998693
v -0.155391261 0.0293989815 -0.00063206
v -0.143729538 0.0256667268 0.0126388781
v -0.1546948 0.03028253 0.00016049789
v -0.1439037 0.0258810446 0.0124406945
v -0.15388079 0.0309534073 0.001086836
v -0.152994782 0.031364724 0.0020951035
v -0.152090788 0.0315000042 0.00312385336
v -0.145570666 0.024800241 0.0105436938
v -0.144098788 0.0260341521 0.01221869
v -0.145512387 0.0251073558 0.0106100263
v -0.1443015 0.0261224546 0.0119879888
v -0.144499689 0.0261500012 0.0117624542
v -0.14469789 0.0261224546 0.0115369186
v -0.145411313 0.0254028961 0.0107250381
v -0.1449006 0.0260341521 0.0113062188
v -0.145269841 0.0256667268 0.0108860293
v -0.145095691 0.0258810446 0.0110842139
v -0.141426936 0.0165000018 0.01904656
v -0.1433049 0.0315000042 0.0206967965
v -0.1433049 0.0015 0.0206967965
v -0.139548987 0.0015 0.0173963234
v -0.139548987 0.0315000042 0.0173963234
v -0.147448614 0.0241997615 0.0121939313
v -0.148324877 0.02395411 0.0111967642
v -0.1482189 0.0233957153 0.0113173667
v -0.148357928 0.0245000031 0.0111591425
v -0.147390336 0.0238926448 0.0122602619
v -0.147466809 0.0245000031 0.0121732382
v -0.148035139 0.022858372 0.01152648
v -0.148324877 0.02504589 0.0111967642
v -0.147289276 0.0235971063 0.0123752747
v -0.147448614 0.024800241 0.0121939313
v -0.14777793 0.0223786831 0.01181919
v -0.1482189 0.0256042853 0.0113173667
v -0.1471478 0.0233332738 0.012536265
v -0.147390336 0.0251073558 0.0122602619
v -0.14746128 0.021989014 0.0121795274
v -0.148035139 0.02614163 0.01152648
v -0.14697364 0.0231189616 0.0127344495
v -0.147289276 0.0254028961 0.0123752747
v -0.147106588 0.0217106361 0.01258317
v -0.14777793 0.0266213231 0.01181919
v -0.146778554 0.0229658484 0.0129564535
v -0.1471478 0.0256667268 0.012536265
v -0.146738 0.0215500854 0.0130026275
v -0.14746128 0.0270109884 0.0121795274
v -0.146575838 0.022877546 0.0131871551
v -0.14697364 0.0258810446 0.0127344495
v -0.147106588 0.0272893645 0.01258317
v -0.146778554 0.0260341521 0.0129564535
v -0.146377653 0.0215000026 0.01341269
v -0.146377653 0.0228500012 0.01341269
v -0.146179467 0.022877546 0.0136382235
v -0.146017313 0.0215500854 0.0138227511
v -0.145976737 0.0229658484 0.0138689252
v -0.145648718 0.0217106361 0.0142422086
v -0.145781651 0.0231189616 0.0140909292
v -0.145294026 0.021989014 0.014645854
v -0.1456075 0.0233332738 0.0142891137
v -0.144977376 0.0223786831 0.0150061883
v -0.14546603 0.0235971063 0.0144501049
v -0.144720167 0.022858372 0.0152988993
v -0.14536497 0.0238926448 0.0145651167
v -0.1445364 0.0233957153 0.0155080119
v -0.145306677 0.0241997615 0.0146314492
v -0.144430429 0.02395411 0.0156286154
v -0.1452885 0.0245000031 0.01465214
v -0.144397378 0.0245000031 0.015666239
v -0.144430429 0.02504589 0.0156286154
v -0.145306677 0.024800241 0.0146314492
v -0.1445364 0.0256042853 0.0155080119
v -0.14536497 0.0251073558 0.0145651167
v -0.144720167 0.02614163 0.0152988993
v -0.14546603 0.0254028961 0.0144501049
v -0.144977376 0.0266213231 0.0150061883
v -0.1456075 0.0256667268 0.0142891137
v -0.145294026 0.0270109884 0.014645854
v -0.145781651 0.0258810446 0.0140909292
v -0.145648718 0.0272893645 0.0142422086
v -0.145976737 0.0260341521 0.0138689252
v -0.146017313 0.0274499152 0.0138227511
v -0.146179467 0.0261224546 0.0136382235
v -0.146377653 0.0275000017 0.01341269
v -0.146377653 0.0261500012 0.01341269
v -0.146738 0.0274499152 0.0130026275
v -0.146575838 0.0261224546 0.0131871551
v -0.1558467 0.0315000042 0.006424326
v -0.147697836 0.0315000042 0.0119103249
v -0.152090788 0.0315000042 0.00312385336
v -0.1433049 0.0315000042 0.0206967965
v -0.139548987 0.0315000042 0.0173963234
v -0.150008172 0.0015 0.009281185
v -0.160467356 0.0015 0.0011660473
v -0.1577631 0.0015 -0.00121029292
v -0.155391261 0.0015 -0.00063206
v -0.1433049 0.0015 0.0206967965
v -0.139548987 0.0015 0.0173963234
v -0.15723604 0.029449746 0.00105592515
v -0.155391261 0.0293989815 -0.00063206
v -0.156390756 0.0283550732 -0.0008757302
v -0.1546948 0.03028253 0.00016049789
v -0.157836214 0.02833047 0.000372934
v -0.157147288 0.0271457527 -0.00106016651
v -0.15649721 0.03035897 0.00189670827
v -0.15388079 0.0309534073 0.001086836
v -0.158264965 0.0270766653 -0.000114996306
v -0.15761061 0.0258354936 -0.00117311929
v -0.155669585 0.03100852 0.002838545
v -0.152994782 0.031364724 0.0020951035
v -0.158512264 0.025773745 -0.00039640395
v -0.1577631 0.0245000031 -0.00121029292
v -0.160467356 0.0245000031 0.0011660473
v -0.160390213 0.025773745 0.00125383236
v -0.160142928 0.0270766653 0.00153523986
v -0.159714162 0.02833047 0.00202317024
v -0.159114 0.029449746 0.00270616123
v -0.158375174 0.03035897 0.00354694435
v -0.157547534 0.03100852 0.004488781
v -0.156687483 0.0313831419 0.00546751358
v -0.154809535 0.0313831419 0.003817277
v -0.1558467 0.0315000042 0.006424326
v -0.152090788 0.0315000042 0.00312385336
v -0.159115225 0.013 -2.2122822E-05
v -0.1577631 0.0245000031 -0.00121029292
v -0.1577631 0.0015 -0.00121029292
v -0.160467356 0.0015 0.0011660473
v -0.160467356 0.0245000031 0.0011660473
v -0.1577631 0.0245000031 -0.00121029292
v -0.15657717 0.01544949 -0.0009211764
v -0.1577631 0.0015 -0.00121029292
v -0.15761061 0.0258354936 -0.00117311929
v -0.155391261 0.0015 -0.00063206
v -0.157147288 0.0271457527 -0.00106016651
v -0.155391261 0.0293989815 -0.00063206
v -0.156390756 0.0283550732 -0.0008757302
f 1 2 3
f 2 4 3
f 2 5 4
f 2 6 5
f 6 7 5
f 6 8 7
f 8 6 9
f 6 10 9
f 9 10 11
f 9 11 12
f 13 9 12
f 9 13 14
f 9 14 15
f 16 9 15
f 9 16 17
f 9 17 18
f 19 9 18
f 19 18 20
f 19 20 21
f 22 19 21
f 19 22 23
f 19 23 24
f 25 19 24
f 19 25 26
f 19 26 27
f 28 19 27
f 19 28 29
f 19 29 30
f 31 19 30
f 32 31 30
f 31 32 33
f 31 33 34
f 35 31 34
f 31 35 36
f 31 36 37
f 38 31 37
f 37 36 39
f 38 37 6
f 40 37 39
f 37 10 6
f 37 40 41
f 37 42 10
f 43 37 41
f 42 37 44
f 37 43 45
f 37 45 44
f 46 47 48
f 46 48 49
f 50 46 49
f 49 48 51
f 52 50 49
f 53 49 51
f 52 49 53
f 53 51 54
f 55 52 53
f 56 53 54
f 55 53 56
f 56 54 57
f 58 55 56
f 59 56 57
f 58 56 59
f 59 57 60
f 61 58 59
f 62 59 60
f 61 59 62
f 62 60 63
f 64 61 62
f 65 62 63
f 64 62 65
f 65 63 66
f 67 65 66
f 68 64 65
f 68 65 67
f 67 66 69
f 70 68 67
f 71 67 69
f 72 70 67
f 73 67 71
f 72 67 73
f 74 73 71
f 75 72 73
f 76 73 74
f 76 75 73
f 77 76 74
f 76 77 75
f 77 74 78
f 77 79 75
f 80 77 78
f 77 80 79
f 80 78 81
f 80 82 79
f 83 80 81
f 80 83 82
f 83 81 84
f 83 85 82
f 86 83 84
f 83 86 85
f 86 84 87
f 86 88 85
f 89 86 87
f 86 89 88
f 89 87 90
f 89 91 88
f 92 89 90
f 89 92 91
f 92 90 93
f 91 92 94
f 92 93 94
f 93 95 94
f 95 96 94
f 94 96 97
f 95 98 96
f 96 99 97
f 98 100 96
f 96 100 99
f 98 101 100
f 100 102 99
f 101 103 100
f 100 103 102
f 101 104 103
f 103 105 102
f 104 106 103
f 103 106 105
f 104 107 106
f 106 108 105
f 107 109 106
f 106 109 108
f 107 110 109
f 109 111 108
f 110 112 109
f 109 112 111
f 110 113 112
f 113 114 112
f 112 115 111
f 112 114 115
f 113 116 114
f 114 117 115
f 116 118 114
f 114 119 117
f 118 120 114
f 114 120 119
f 118 121 120
f 120 122 119
f 121 123 120
f 120 123 122
f 121 124 123
f 124 122 123
f 125 124 121
f 124 126 122
f 127 124 125
f 124 127 126
f 128 127 125
f 127 129 126
f 130 127 128
f 127 130 129
f 131 130 128
f 130 132 129
f 133 130 131
f 130 133 132
f 134 133 131
f 133 135 132
f 136 133 134
f 133 136 135
f 137 136 134
f 136 138 135
f 139 136 137
f 136 139 138
f 140 139 137
f 139 141 138
f 139 140 141
f 142 143 144
f 142 144 145
f 146 142 145
f 145 144 147
f 148 146 145
f 149 145 147
f 148 145 149
f 149 147 150
f 151 148 149
f 152 149 150
f 151 149 152
f 152 150 153
f 154 151 152
f 155 152 153
f 154 152 155
f 155 153 156
f 157 154 155
f 158 155 156
f 157 155 158
f 158 156 159
f 160 157 158
f 161 158 159
f 160 158 161
f 161 159 162
f 163 161 162
f 164 160 161
f 164 161 163
f 163 162 165
f 166 164 163
f 167 163 165
f 168 166 163
f 169 163 167
f 168 163 169
f 170 169 167
f 171 168 169
f 172 169 170
f 172 171 169
f 173 172 170
f 172 173 171
f 173 170 174
f 173 175 171
f 176 173 174
f 173 176 175
f 176 174 177
f 176 178 175
f 179 176 177
f 176 179 178
f 179 177 180
f 179 181 178
f 182 179 180
f 179 182 181
f 182 180 183
f 182 184 181
f 185 182 183
f 182 185 184
f 185 183 186
f 185 187 184
f 188 185 186
f 185 188 187
f 188 186 189
f 187 188 190
f 188 189 190
f 189 191 190
f 191 192 190
f 190 192 193
f 191 194 192
f 192 195 193
f 194 196 192
f 192 196 195
f 194 197 196
f 196 198 195
f 197 199 196
f 196 199 198
f 197 200 199
f 199 201 198
f 200 202 199
f 199 202 201
f 200 203 202
f 202 204 201
f 203 205 202
f 202 205 204
f 203 206 205
f 205 207 204
f 206 208 205
f 205 208 207
f 206 209 208
f 209 210 208
f 208 211 207
f 208 210 211
f 209 212 210
f 210 213 211
f 212 214 210
f 210 215 213
f 214 216 210
f 210 216 215
f 214 217 216
f 216 218 215
f 217 219 216
f 216 219 218
f 217 220 219
f 220 218 219
f 221 220 217
f 220 222 218
f 223 220 221
f 220 223 222
f 224 223 221
f 223 225 222
f 226 223 224
f 223 226 225
f 227 226 224
f 226 228 225
f 229 226 227
f 226 229 228
f 230 229 227
f 229 231 228
f 232 229 230
f 229 232 231
f 233 232 230
f 232 234 231
f 235 232 233
f 232 235 234
f 236 235 233
f 235 237 234
f 235 236 237
f 238 239 240
f 239 238 241
f 239 242 240
f 239 241 243
f 239 244 242
f 244 245 242
f 245 244 246
f 244 247 246
f 244 248 247
f 248 244 249
f 244 250 249
f 244 251 250
f 251 244 252
f 244 253 252
f 244 254 253
f 255 239 243
f 244 239 256
f 255 243 257
f 255 257 258
f 259 255 258
f 255 259 260
f 255 260 261
f 244 256 262
f 263 255 261
f 264 244 262
f 255 263 265
f 244 264 266
f 267 244 266
f 267 268 244
f 268 254 244
f 268 269 254
f 255 265 270
f 269 268 271
f 272 255 270
f 255 272 273
f 255 273 274
f 268 255 274
f 268 275 271
f 268 274 276
f 268 277 275
f 268 276 278
f 277 268 278
f 279 280 281
f 279 281 282
f 280 279 283
f 283 279 282
f 284 285 286
f 284 287 285
f 288 284 286
f 284 289 287
f 288 286 290
f 289 291 287
f 292 288 290
f 289 293 291
f 292 290 294
f 293 295 291
f 296 292 294
f 293 297 295
f 296 294 298
f 297 299 295
f 300 296 298
f 297 301 299
f 300 298 302
f 301 303 299
f 304 300 302
f 301 305 303
f 304 302 306
f 305 307 303
f 308 304 306
f 305 309 307
f 309 310 307
f 309 311 310
f 308 306 312
f 313 308 312
f 314 313 312
f 314 312 315
f 316 314 315
f 316 315 317
f 318 316 317
f 318 317 319
f 320 318 319
f 320 319 321
f 322 320 321
f 322 321 323
f 324 322 323
f 324 323 325
f 326 324 325
f 326 325 327
f 328 326 327
f 328 327 329
f 328 329 330
f 331 328 330
f 331 330 332
f 333 331 332
f 333 332 334
f 335 333 334
f 335 334 336
f 337 335 336
f 337 336 338
f 339 337 338
f 339 338 340
f 341 339 340
f 341 340 342
f 343 341 342
f 342 344 343
f 344 345 343
f 344 346 345
f 346 347 345
f 346 311 347
f 311 346 310
f 348 349 350
f 351 349 348
f 349 352 350
f 349 351 352
f 353 354 355
f 353 355 356
f 354 353 357
f 358 353 356
f 353 358 357
f 359 360 361
f 359 362 360
f 363 359 361
f 363 361 364
f 359 365 362
f 365 366 362
f 367 363 364
f 367 364 368
f 365 369 366
f 369 370 366
f 371 367 368
f 371 368 372
f 373 371 372
f 371 373 374
f 375 371 374
f 367 371 375
f 376 367 375
f 363 367 376
f 377 363 376
f 359 363 377
f 378 359 377
f 365 359 378
f 379 365 378
f 369 365 379
f 380 369 379
f 381 369 380
f 369 381 370
f 382 381 380
f 381 383 370
f 381 382 383
f 384 385 386
f 387 384 386
f 384 388 385
f 388 384 387
f 389 390 391
f 392 390 389
f 390 393 391
f 390 392 394
f 390 395 393
f 390 394 396
f 395 390 396
