# ROS coordinates: X forward, Y left, Z up; units are metres.
o mesh
v -0.09823132 0.0714999959 0.154926881
v -0.09823132 0.07399999 0.1549269
v -0.09808384 0.07399999 0.155034766
v -0.0980604142 0.0727499947 0.15504837
v -0.09808384 0.0714999959 0.155034766
v -0.09790886 0.07399999 0.15511778
v -0.09790886 0.0714999959 0.15511778
v -0.09785466 0.0727499947 0.155135587
v -0.09771316 0.07399999 0.155166715
v -0.09771316 0.0714999959 0.1551667
v -0.0976254642 0.0727499947 0.155175492
v -0.09750733 0.07399999 0.1551751
v -0.09750733 0.0714999959 0.1551751
v -0.0973900557 0.0727499947 0.155160785
v -0.0973041356 0.07399999 0.155141145
v -0.0973041356 0.0714999959 0.155141145
v -0.09716761 0.0727499947 0.155092657
v -0.09711605 0.07399999 0.155068234
v -0.09711605 0.0714999959 0.155068234
v -0.09697432 0.0727499947 0.1549805
v -0.09695277 0.07399999 0.154964074
v -0.09681986 0.0727499947 0.154838681
v -0.09695277 0.0714999959 0.154964074
v -0.09681986 0.07399999 0.154838681
v -0.09681986 0.0714999959 0.154838681
v -0.09671199 0.07399999 0.15469119
v -0.09671199 0.0714999959 0.15469119
v -0.09669838 0.0727499947 0.15466775
v -0.09662897 0.07399999 0.1545162
v -0.09662897 0.0714999959 0.1545162
v -0.09662897 0.0727499947 0.1545162
v -0.09658466 0.0727499947 0.154349372
v -0.09658005 0.07399999 0.154320508
v -0.09658005 0.0714999959 0.154320508
v -0.09656971 0.0727499947 0.154173791
v -0.0965716541 0.07399999 0.154114664
v -0.0965716541 0.0714999959 0.154114679
v -0.0965859741 0.0727499947 0.1539974
v -0.09660561 0.07399999 0.153911486
v -0.09660561 0.0714999959 0.153911486
v -0.09663246 0.0727499947 0.153828382
v -0.0966785252 0.07399999 0.1537234
v -0.0966785252 0.0714999959 0.153723389
v -0.09670551 0.0727499947 0.153673887
v -0.0967826843 0.07399999 0.153560117
v -0.0967826843 0.0714999959 0.153560117
v -0.096799545 0.0727499947 0.1535392
v -0.096908085 0.07399999 0.153427213
v -0.096908085 0.0714999959 0.153427213
v -0.09705557 0.07399999 0.153319344
v -0.0970789939 0.0727499947 0.153305724
v -0.09705557 0.0714999959 0.153319344
v -0.0972305462 0.07399999 0.153236315
v -0.0972305462 0.0714999959 0.153236315
v -0.09728475 0.0727499947 0.153218508
v -0.09742624 0.07399999 0.1531874
v -0.09742624 0.0714999959 0.1531874
v -0.0975139439 0.0727499947 0.1531786
v -0.09763208 0.07399999 0.15317899
v -0.09763208 0.0714999959 0.15317899
v -0.09774935 0.0727499947 0.153193325
v -0.09783527 0.07399999 0.153212965
v -0.09783527 0.0714999959 0.153212965
v -0.0979718 0.0727499947 0.153261453
v -0.098023355 0.07399999 0.153285876
v -0.098023355 0.0714999959 0.153285876
v -0.09816508 0.0727499947 0.1533736
v -0.0981866345 0.07399999 0.153390035
v -0.09831954 0.0727499947 0.153515428
v -0.0981866345 0.0714999959 0.153390035
v -0.09831954 0.07399999 0.153515428
v -0.09831954 0.0714999959 0.153515428
v -0.0984274149 0.07399999 0.15366292
v -0.0984274149 0.0714999959 0.15366292
v -0.09844103 0.0727499947 0.153686345
v -0.09851043 0.07399999 0.153837889
v -0.09851043 0.0714999959 0.153837889
v -0.09851043 0.0727499947 0.153837889
v -0.0985547453 0.0727499947 0.154004738
v -0.09855936 0.07399999 0.1540336
v -0.09855936 0.0714999959 0.1540336
v -0.0985697 0.0727499947 0.154180318
v -0.098567754 0.07399999 0.154239431
v -0.098567754 0.0714999959 0.154239431
v -0.098553434 0.0727499947 0.1543567
v -0.0985337943 0.07399999 0.154442608
v -0.0985337943 0.0714999959 0.154442608
v -0.09850695 0.0727499947 0.154525727
v -0.09846088 0.07399999 0.1546307
v -0.09846088 0.0714999959 0.1546307
v -0.0984339 0.0727499947 0.1546802
v -0.0983567238 0.07399999 0.154793978
v -0.0983567238 0.0714999959 0.154793978
v -0.09833986 0.0727499947 0.1548149
v -0.09823132 0.07399999 0.1549269
v -0.09823132 0.0714999959 0.154926881
v -0.07970592 0.0715 0.133931428
v -0.07970592 0.074 0.133931428
v -0.0795584247 0.074 0.1340393
v -0.079535 0.07275 0.134052917
v -0.0795584247 0.0715 0.1340393
v -0.07938345 0.074 0.134122312
v -0.07938345 0.0715 0.134122312
v -0.07932925 0.07275 0.134140134
v -0.07918775 0.074 0.134171247
v -0.07918775 0.0715 0.134171247
v -0.07910006 0.07275 0.134180039
v -0.07898191 0.074 0.134179637
v -0.07898191 0.0715 0.134179637
v -0.07886465 0.07275 0.134165317
v -0.07877873 0.074 0.134145677
v -0.07877873 0.0715 0.134145677
v -0.0786422044 0.07275 0.134097189
v -0.07859064 0.074 0.134072766
v -0.07859064 0.0715 0.134072766
v -0.078448914 0.07275 0.133985028
v -0.07842737 0.074 0.1339686
v -0.078294456 0.07275 0.133843213
v -0.07842737 0.0715 0.1339686
v -0.078294456 0.074 0.133843213
v -0.078294456 0.0715 0.133843213
v -0.07818658 0.074 0.133695722
v -0.07818658 0.0715 0.133695722
v -0.07817297 0.07275 0.1336723
v -0.0781035647 0.074 0.133520752
v -0.0781035647 0.0715 0.133520752
v -0.0781035647 0.07275 0.133520752
v -0.07805925 0.07275 0.1333539
v -0.07805464 0.074 0.13332504
v -0.07805464 0.0715 0.13332504
v -0.0780442953 0.07275 0.133178324
v -0.07804624 0.074 0.133119211
v -0.07804624 0.0715 0.133119211
v -0.07806056 0.07275 0.133001938
v -0.0780802 0.074 0.132916018
v -0.0780802 0.0715 0.132916018
v -0.0781070441 0.07275 0.132832915
v -0.07815311 0.074 0.132727936
v -0.07815311 0.0715 0.132727936
v -0.0781801 0.07275 0.132678434
v -0.07825728 0.074 0.132564664
v -0.07825728 0.0715 0.132564664
v -0.07827413 0.07275 0.132543743
v -0.07838267 0.074 0.132431746
v -0.07838267 0.0715 0.132431746
v -0.07853016 0.074 0.132323876
v -0.07855359 0.07275 0.132310271
v -0.07853016 0.0715 0.132323876
v -0.07870513 0.074 0.132240862
v -0.07870513 0.0715 0.132240862
v -0.078759335 0.07275 0.13222304
v -0.07890084 0.074 0.132191926
v -0.07890084 0.0715 0.132191926
v -0.07898853 0.07275 0.132183149
v -0.07910667 0.074 0.132183537
v -0.07910667 0.0715 0.132183537
v -0.07922394 0.07275 0.132197857
v -0.07930986 0.074 0.1322175
v -0.07930986 0.0715 0.1322175
v -0.07944638 0.07275 0.132265985
v -0.07949794 0.074 0.132290408
v -0.07949794 0.0715 0.132290408
v -0.07963967 0.07275 0.132378146
v -0.07966122 0.074 0.132394567
v -0.07979413 0.07275 0.13251996
v -0.07966122 0.0715 0.132394567
v -0.07979413 0.074 0.13251996
v -0.07979413 0.0715 0.13251996
v -0.079902 0.074 0.132667452
v -0.079902 0.0715 0.132667452
v -0.07991562 0.07275 0.132690877
v -0.07998502 0.074 0.132842436
v -0.07998502 0.0715 0.132842436
v -0.07998502 0.07275 0.132842436
v -0.08002934 0.07275 0.13300927
v -0.08003395 0.074 0.133038133
v -0.08003395 0.0715 0.133038133
v -0.0800442845 0.07275 0.13318485
v -0.08004235 0.074 0.133243963
v -0.08004235 0.0715 0.133243963
v -0.08002803 0.07275 0.133361235
v -0.08000839 0.074 0.133447155
v -0.08000839 0.0715 0.133447155
v -0.0799815357 0.07275 0.133530259
v -0.0799354762 0.074 0.133635238
v -0.0799354762 0.0715 0.133635238
v -0.07990848 0.07275 0.133684754
v -0.07983131 0.074 0.13379851
v -0.07983131 0.0715 0.13379851
v -0.07981446 0.07275 0.133819431
v -0.07970592 0.074 0.133931428
v -0.07970592 0.0715 0.133931428
v -0.0935999751 0.0598999932 0.149678022
v -0.0935999751 0.0643999949 0.149678022
v -0.0939134657 0.0643999949 0.149345756
v -0.0939545259 0.0621499941 0.149291873
v -0.0939134657 0.0598999932 0.149345756
v -0.09417386 0.0643999949 0.148937553
v -0.09417386 0.0598999932 0.148937553
v -0.09423492 0.0621499941 0.148808658
v -0.09435615 0.0643999949 0.148467332
v -0.09435615 0.0598999932 0.148467332
v -0.09440525 0.0621499941 0.148252547
v -0.09444105 0.0643999949 0.147959366
v -0.09444105 0.0598999932 0.147959366
v -0.0944420248 0.0621499941 0.147664025
v -0.09442006 0.0643999949 0.147444785
v -0.09442006 0.0598999932 0.147444785
v -0.09434227 0.0621499941 0.147091031
v -0.0942977443 0.0643999949 0.146955535
v -0.0942977443 0.0598999932 0.146955535
v -0.09412423 0.0621499941 0.146576658
v -0.09409019 0.0643999949 0.1465181
v -0.09382051 0.0621499941 0.146149367
v -0.09409019 0.0598999932 0.1465181
v -0.09382051 0.0643999949 0.146149367
v -0.09382051 0.0598999932 0.146149367
v -0.09348824 0.0643999949 0.145835876
v -0.09348824 0.0598999932 0.145835876
v -0.09343437 0.0621499941 0.145794809
v -0.0930800438 0.0643999949 0.145575479
v -0.0930800438 0.0598999932 0.145575479
v -0.0930800438 0.0621499941 0.145575479
v -0.09267998 0.0621499941 0.145413622
v -0.09260983 0.0643999949 0.1453932
v -0.09260983 0.0598999932 0.1453932
v -0.0922491 0.0621499941 0.145321876
v -0.0921018645 0.0643999949 0.145308286
v -0.0921018645 0.0598999932 0.145308286
v -0.0918065161 0.0621499941 0.145307317
v -0.0915872753 0.0643999949 0.145329282
v -0.0915872753 0.0598999932 0.145329282
v -0.0913727656 0.0621499941 0.14537
v -0.0910980254 0.0643999949 0.1454516
v -0.0910980254 0.0598999932 0.1454516
v -0.09096682 0.0621499941 0.145503134
v -0.09066059 0.0643999949 0.145659149
v -0.09066059 0.0598999932 0.145659149
v -0.09060344 0.0621499941 0.14569445
v -0.0902918652 0.0643999949 0.14592883
v -0.0902918652 0.0598999932 0.14592883
v -0.08997837 0.0643999949 0.1462611
v -0.08993731 0.0621499941 0.146314979
v -0.08997837 0.0598999932 0.1462611
v -0.08971797 0.0643999949 0.1466693
v -0.08971797 0.0598999932 0.1466693
v -0.08965692 0.0621499941 0.1467982
v -0.08953568 0.0643999949 0.147139519
v -0.08953568 0.0598999932 0.147139519
v -0.08948659 0.0621499941 0.1473543
v -0.089450784 0.0643999949 0.147647485
v -0.089450784 0.0598999932 0.147647485
v -0.08944981 0.0621499941 0.147942826
v -0.08947178 0.0643999949 0.148162067
v -0.08947178 0.0598999932 0.148162067
v -0.0895495638 0.0621499941 0.148515821
v -0.0895940959 0.0643999949 0.148651317
v -0.0895940959 0.0598999932 0.148651317
v -0.0897676051 0.0621499941 0.1490302
v -0.08980164 0.0643999949 0.149088755
v -0.09007132 0.0621499941 0.149457484
v -0.08980164 0.0598999932 0.149088755
v -0.09007132 0.0643999949 0.149457484
v -0.09007132 0.0598999932 0.149457484
v -0.0904035941 0.0643999949 0.149770975
v -0.0904035941 0.0598999932 0.149770975
v -0.09045747 0.0621499941 0.149812043
v -0.09081179 0.0643999949 0.150031373
v -0.09081179 0.0598999932 0.150031373
v -0.09081179 0.0621499941 0.150031373
v -0.0912118554 0.0621499941 0.150193229
v -0.091282 0.0643999949 0.150213659
v -0.091282 0.0598999932 0.150213659
v -0.09164273 0.0621499941 0.150284976
v -0.0917899758 0.0643999949 0.150298551
v -0.0917899758 0.0598999932 0.150298551
v -0.0920853242 0.0621499941 0.150299534
v -0.09230456 0.0643999949 0.15027757
v -0.09230456 0.0598999932 0.15027757
v -0.09251907 0.0621499941 0.150236845
v -0.09279381 0.0643999949 0.150155246
v -0.09279381 0.0598999932 0.150155246
v -0.09292502 0.0621499941 0.150103718
v -0.09323125 0.0643999949 0.1499477
v -0.09323125 0.0598999932 0.1499477
v -0.09328839 0.0621499941 0.1499124
v -0.0935999751 0.0643999949 0.149678022
v -0.0935999751 0.0598999932 0.149678022
v -0.0959156454 0.0643999949 0.152302459
v -0.0959156454 0.06989999 0.152302459
v -0.0966680348 0.06989999 0.151505008
v -0.0967665762 0.06715 0.151375711
v -0.0966680348 0.0643999949 0.151505008
v -0.097293 0.06989999 0.150525331
v -0.097293 0.0643999949 0.150525331
v -0.09743952 0.06715 0.150215968
v -0.09773047 0.06989999 0.149396822
v -0.09773047 0.0643999949 0.149396822
v -0.0978483 0.06715 0.148881316
v -0.09793423 0.06989999 0.1481777
v -0.09793423 0.0643999949 0.1481777
v -0.0979365855 0.06715 0.147468865
v -0.09788386 0.06989999 0.14694269
v -0.09788386 0.0643999949 0.14694269
v -0.09769716 0.06715 0.1460937
v -0.0975903 0.06989999 0.1457685
v -0.0975903 0.0643999949 0.145768479
v -0.09717386 0.06715 0.14485918
v -0.09709218 0.06989999 0.144718632
v -0.09644494 0.06715 0.1438337
v -0.09709218 0.0643999949 0.144718617
v -0.09644494 0.06989999 0.1438337
v -0.09644494 0.0643999949 0.1438337
v -0.09564749 0.06989999 0.1430813
v -0.09564749 0.0643999949 0.1430813
v -0.09551821 0.06715 0.142982766
v -0.09466782 0.06989999 0.142456353
v -0.09466782 0.0643999949 0.142456353
v -0.09466782 0.06715 0.142456353
v -0.0937076658 0.06715 0.1420679
v -0.093539305 0.06989999 0.14201887
v -0.093539305 0.0643999949 0.14201887
v -0.09267357 0.06715 0.141847715
v -0.09232019 0.06989999 0.141815111
v -0.09232019 0.0643999949 0.141815111
v -0.09161135 0.06715 0.141812757
v -0.09108518 0.06989999 0.141865492
v -0.09108518 0.0643999949 0.141865477
v -0.09057035 0.06715 0.141963229
v -0.08991098 0.06989999 0.142159045
v -0.08991098 0.0644 0.142159045
v -0.08959608 0.06715 0.142282709
v -0.0888611153 0.06989999 0.142657161
v -0.0888611153 0.0644 0.142657161
v -0.08872397 0.06715 0.142741889
v -0.08797619 0.06989999 0.143304408
v -0.08797619 0.0644 0.1433044
v -0.0872238055 0.06989999 0.144101858
v -0.08712526 0.06715 0.144231141
v -0.0872238055 0.0644 0.144101858
v -0.08659884 0.06989999 0.14508152
v -0.08659884 0.0644 0.14508152
v -0.08645232 0.06715 0.145390883
v -0.08616136 0.06989999 0.14621003
v -0.08616136 0.0643999949 0.14621003
v -0.08604353 0.06715 0.14672555
v -0.0859576 0.06989999 0.147429153
v -0.0859576 0.0643999949 0.147429153
v -0.0859552547 0.06715 0.148137987
v -0.086007975 0.06989999 0.148664162
v -0.086007975 0.0643999949 0.148664162
v -0.08619467 0.06715 0.14951317
v -0.0863015354 0.06989999 0.149838373
v -0.0863015354 0.0643999949 0.149838373
v -0.08671798 0.06715 0.150747687
v -0.08679965 0.06989999 0.150888234
v -0.08744689 0.06715 0.151773155
v -0.08679965 0.0643999949 0.150888234
v -0.08744689 0.06989999 0.151773155
v -0.08744689 0.0643999949 0.151773155
v -0.08824434 0.06989999 0.152525544
v -0.08824434 0.0643999949 0.152525544
v -0.08837363 0.06715 0.152624086
v -0.08922401 0.06989999 0.1531505
v -0.08922401 0.0643999949 0.1531505
v -0.08922401 0.06715 0.1531505
v -0.09018417 0.06715 0.153538942
v -0.09035253 0.06989999 0.153587982
v -0.09035253 0.0643999949 0.153587982
v -0.09121826 0.06715 0.153759137
v -0.09157165 0.06989999 0.153791741
v -0.09157165 0.0643999949 0.153791741
v -0.0922804847 0.06715 0.1537941
v -0.09280665 0.06989999 0.153741375
v -0.09280665 0.0643999949 0.15374136
v -0.09332148 0.06715 0.153643623
v -0.09398086 0.06989999 0.1534478
v -0.09398086 0.0643999949 0.1534478
v -0.09429576 0.06715 0.153324142
v -0.09503072 0.06989999 0.152949691
v -0.09503072 0.0643999949 0.152949691
v -0.09516786 0.06715 0.152864963
v -0.0959156454 0.06989999 0.152302459
v -0.0959156454 0.0643999949 0.152302459
v -0.0730235353 0.074 0.135426685
v -0.07619932 0.074 0.139025912
v -0.0730235353 0.0715 0.135426685
v -0.07619932 0.0715 0.139025912
v -0.08744689 0.06989999 0.151773155
v -0.07619932 0.0699 0.139025912
v -0.08380797 0.0811999962 0.14764905
v -0.07619932 0.0925 0.139025912
v -0.09141662 0.0925 0.156272188
v -0.09141662 0.074 0.156272188
v -0.09141662 0.0714999959 0.156272188
v -0.09141662 0.06989999 0.156272188
v -0.09459241 0.07399999 0.1598714
v -0.09459241 0.0714999959 0.1598714
v -0.08202159 0.074 0.127487227
v -0.08202159 0.0715 0.127487227
v -0.0851973742 0.074 0.131086454
v -0.0851973742 0.0715 0.131086454
v -0.09644494 0.06989999 0.1438337
v -0.0851973742 0.0699 0.131086454
v -0.09280603 0.0811999962 0.139709592
v -0.0851973742 0.0925 0.131086454
v -0.100414678 0.0925 0.14833273
v -0.100414678 0.074 0.14833273
v -0.100414678 0.0714999959 0.14833273
v -0.100414678 0.06989999 0.14833273
v -0.103590459 0.07399999 0.151931942
v -0.103590459 0.0714999959 0.151931942
v -0.0851973742 0.074 0.131086454
v -0.07983131 0.074 0.13379851
v -0.0799354762 0.074 0.133635238
v -0.08000839 0.074 0.133447155
v -0.08004235 0.074 0.133243963
v -0.08003395 0.074 0.133038133
v -0.07998502 0.074 0.132842436
v -0.079902 0.074 0.132667452
v -0.07970592 0.074 0.133931428
v -0.07979413 0.074 0.13251996
v -0.07619932 0.074 0.139025912
v -0.0795584247 0.074 0.1340393
v -0.07938345 0.074 0.134122312
v -0.08202159 0.074 0.127487227
v -0.07966122 0.074 0.132394567
v -0.07949794 0.074 0.132290408
v -0.07918775 0.074 0.134171247
v -0.07930986 0.074 0.1322175
v -0.07898191 0.074 0.134179637
v -0.07910667 0.074 0.132183537
v -0.07877873 0.074 0.134145677
v -0.07890084 0.074 0.132191926
v -0.07859064 0.074 0.134072766
v -0.07842737 0.074 0.1339686
v -0.078294456 0.074 0.133843213
v -0.0730235353 0.074 0.135426685
v -0.07818658 0.074 0.133695722
v -0.0781035647 0.074 0.133520752
v -0.07870513 0.074 0.132240862
v -0.07853016 0.074 0.132323876
v -0.07838267 0.074 0.132431746
v -0.07805464 0.074 0.13332504
v -0.07825728 0.074 0.132564664
v -0.07804624 0.074 0.133119211
v -0.07815311 0.074 0.132727936
v -0.0780802 0.074 0.132916018
v -0.07752256 0.07275 0.131456956
v -0.0730235353 0.0715 0.135426685
v -0.08202159 0.0715 0.127487227
v -0.08202159 0.074 0.127487227
v -0.0730235353 0.074 0.135426685
v -0.07619932 0.0715 0.139025912
v -0.0795584247 0.0715 0.1340393
v -0.07938345 0.0715 0.134122312
v -0.07918775 0.0715 0.134171247
v -0.07898191 0.0715 0.134179637
v -0.07877873 0.0715 0.134145677
v -0.07859064 0.0715 0.134072766
v -0.07842737 0.0715 0.1339686
v -0.07970592 0.0715 0.133931428
v -0.078294456 0.0715 0.133843213
v -0.0851973742 0.0715 0.131086454
v -0.07983131 0.0715 0.13379851
v -0.0799354762 0.0715 0.133635238
v -0.0730235353 0.0715 0.135426685
v -0.07818658 0.0715 0.133695722
v -0.0781035647 0.0715 0.133520752
v -0.08000839 0.0715 0.133447155
v -0.07805464 0.0715 0.13332504
v -0.08004235 0.0715 0.133243963
v -0.07804624 0.0715 0.133119211
v -0.08003395 0.0715 0.133038133
v -0.0780802 0.0715 0.132916018
v -0.07998502 0.0715 0.132842436
v -0.079902 0.0715 0.132667452
v -0.07979413 0.0715 0.13251996
v -0.08202159 0.0715 0.127487227
v -0.07966122 0.0715 0.132394567
v -0.07949794 0.0715 0.132290408
v -0.07815311 0.0715 0.132727936
v -0.07825728 0.0715 0.132564664
v -0.07838267 0.0715 0.132431746
v -0.07930986 0.0715 0.1322175
v -0.07853016 0.0715 0.132323876
v -0.07910667 0.0715 0.132183537
v -0.07870513 0.0715 0.132240862
v -0.07890084 0.0715 0.132191926
v -0.08069835 0.0707 0.135056183
v -0.07619932 0.0699 0.139025912
v -0.0851973742 0.0699 0.131086454
v -0.0851973742 0.0715 0.131086454
v -0.07619932 0.0715 0.139025912
v -0.09141662 0.0714999959 0.156272188
v -0.0959156454 0.0707 0.152302459
v -0.09141662 0.06989999 0.156272188
v -0.100414678 0.0714999959 0.14833273
v -0.0959156454 0.06989999 0.152302459
v -0.100414678 0.06989999 0.14833273
v -0.09459241 0.0714999959 0.1598714
v -0.09808384 0.0714999959 0.155034766
v -0.09790886 0.0714999959 0.15511778
v -0.09771316 0.0714999959 0.1551667
v -0.09750733 0.0714999959 0.1551751
v -0.0973041356 0.0714999959 0.155141145
v -0.09711605 0.0714999959 0.155068234
v -0.09695277 0.0714999959 0.154964074
v -0.09823132 0.0714999959 0.154926881
v -0.09681986 0.0714999959 0.154838681
v -0.103590459 0.0714999959 0.151931942
v -0.0983567238 0.0714999959 0.154793978
v -0.09846088 0.0714999959 0.1546307
v -0.09141662 0.0714999959 0.156272188
v -0.09671199 0.0714999959 0.15469119
v -0.09662897 0.0714999959 0.1545162
v -0.0985337943 0.0714999959 0.154442608
v -0.09658005 0.0714999959 0.154320508
v -0.098567754 0.0714999959 0.154239431
v -0.0965716541 0.0714999959 0.154114679
v -0.09855936 0.0714999959 0.1540336
v -0.09660561 0.0714999959 0.153911486
v -0.09851043 0.0714999959 0.153837889
v -0.0984274149 0.0714999959 0.15366292
v -0.09831954 0.0714999959 0.153515428
v -0.100414678 0.0714999959 0.14833273
v -0.0981866345 0.0714999959 0.153390035
v -0.098023355 0.0714999959 0.153285876
v -0.0966785252 0.0714999959 0.153723389
v -0.0967826843 0.0714999959 0.153560117
v -0.096908085 0.0714999959 0.153427213
v -0.09783527 0.0714999959 0.153212965
v -0.09705557 0.0714999959 0.153319344
v -0.09763208 0.0714999959 0.15317899
v -0.0972305462 0.0714999959 0.153236315
v -0.09742624 0.0714999959 0.1531874
v -0.09909143 0.0727499947 0.15590167
v -0.09459241 0.07399999 0.1598714
v -0.103590459 0.07399999 0.151931942
v -0.103590459 0.0714999959 0.151931942
v -0.09459241 0.0714999959 0.1598714
v -0.103590459 0.07399999 0.151931942
v -0.0983567238 0.07399999 0.154793978
v -0.09846088 0.07399999 0.1546307
v -0.0985337943 0.07399999 0.154442608
v -0.098567754 0.07399999 0.154239431
v -0.09855936 0.07399999 0.1540336
v -0.09851043 0.07399999 0.153837889
v -0.0984274149 0.07399999 0.15366292
v -0.09823132 0.07399999 0.1549269
v -0.09831954 0.07399999 0.153515428
v -0.09459241 0.07399999 0.1598714
v -0.09808384 0.07399999 0.155034766
v -0.09790886 0.07399999 0.15511778
v -0.100414678 0.074 0.14833273
v -0.0981866345 0.07399999 0.153390035
v -0.098023355 0.07399999 0.153285876
v -0.09771316 0.07399999 0.155166715
v -0.09783527 0.07399999 0.153212965
v -0.09750733 0.07399999 0.1551751
v -0.09763208 0.07399999 0.15317899
v -0.0973041356 0.07399999 0.155141145
v -0.09742624 0.07399999 0.1531874
v -0.09711605 0.07399999 0.155068234
v -0.09695277 0.07399999 0.154964074
v -0.09681986 0.07399999 0.154838681
v -0.09141662 0.074 0.156272188
v -0.09671199 0.07399999 0.15469119
v -0.09662897 0.07399999 0.1545162
v -0.0972305462 0.07399999 0.153236315
v -0.09705557 0.07399999 0.153319344
v -0.096908085 0.07399999 0.153427213
v -0.09658005 0.07399999 0.154320508
v -0.0967826843 0.07399999 0.153560117
v -0.0965716541 0.07399999 0.154114664
v -0.0966785252 0.07399999 0.1537234
v -0.09660561 0.07399999 0.153911486
v -0.0959156454 0.08325 0.152302459
v -0.09141662 0.0925 0.156272188
v -0.100414678 0.0925 0.14833273
v -0.100414678 0.074 0.14833273
v -0.09141662 0.074 0.156272188
v -0.088307 0.0925 0.143679321
v -0.07619932 0.0925 0.139025912
v -0.0851973742 0.0925 0.131086454
v -0.100414678 0.0925 0.14833273
v -0.09141662 0.0925 0.156272188
v -0.09398086 0.06989999 0.1534478
v -0.09141662 0.06989999 0.156272188
v -0.09503072 0.06989999 0.152949691
v -0.09280665 0.06989999 0.153741375
v -0.0959156454 0.06989999 0.152302459
v -0.09157165 0.06989999 0.153791741
v -0.09035253 0.06989999 0.153587982
v -0.08922401 0.06989999 0.1531505
v -0.08824434 0.06989999 0.152525544
v -0.08744689 0.06989999 0.151773155
v -0.100414678 0.06989999 0.14833273
v -0.0966680348 0.06989999 0.151505008
v -0.097293 0.06989999 0.150525331
v -0.09773047 0.06989999 0.149396822
v -0.09793423 0.06989999 0.1481777
v -0.09788386 0.06989999 0.14694269
v -0.0975903 0.06989999 0.1457685
v -0.09709218 0.06989999 0.144718632
v -0.09644494 0.06989999 0.1438337
v -0.08679965 0.06989999 0.150888234
v -0.07619932 0.0699 0.139025912
v -0.0863015354 0.06989999 0.149838373
v -0.086007975 0.06989999 0.148664162
v -0.0859576 0.06989999 0.147429153
v -0.08616136 0.06989999 0.14621003
v -0.08659884 0.06989999 0.14508152
v -0.0863221362 0.06989999 0.141429812
v -0.0851973742 0.0699 0.131086454
v -0.09564749 0.06989999 0.1430813
v -0.0872238055 0.06989999 0.144101858
v -0.09466782 0.06989999 0.142456353
v -0.08797619 0.06989999 0.143304408
v -0.0888611153 0.06989999 0.142657161
v -0.08991098 0.06989999 0.142159045
v -0.093539305 0.06989999 0.14201887
v -0.09108518 0.06989999 0.141865492
v -0.09232019 0.06989999 0.141815111
v -0.09382051 0.0643999949 0.146149367
v -0.09644494 0.0643999949 0.1438337
v -0.09564749 0.0643999949 0.1430813
v -0.09709218 0.0643999949 0.144718617
v -0.09348824 0.0643999949 0.145835876
v -0.09409019 0.0643999949 0.1465181
v -0.09466782 0.0643999949 0.142456353
v -0.0975903 0.0643999949 0.145768479
v -0.0930800438 0.0643999949 0.145575479
v -0.0942977443 0.0643999949 0.146955535
v -0.093539305 0.0643999949 0.14201887
v -0.09788386 0.0643999949 0.14694269
v -0.09260983 0.0643999949 0.1453932
v -0.09442006 0.0643999949 0.147444785
v -0.09232019 0.0643999949 0.141815111
v -0.09793423 0.0643999949 0.1481777
v -0.0921018645 0.0643999949 0.145308286
v -0.09444105 0.0643999949 0.147959366
v -0.09108518 0.0643999949 0.141865477
v -0.09773047 0.0643999949 0.149396822
v -0.0915872753 0.0643999949 0.145329282
v -0.09435615 0.0643999949 0.148467332
v -0.08991098 0.0644 0.142159045
v -0.097293 0.0643999949 0.150525331
v -0.0910980254 0.0643999949 0.1454516
v -0.09417386 0.0643999949 0.148937553
v -0.0888611153 0.0644 0.142657161
v -0.0966680348 0.0643999949 0.151505008
v -0.09066059 0.0643999949 0.145659149
v -0.0939134657 0.0643999949 0.149345756
v -0.08797619 0.0644 0.1433044
v -0.0902918652 0.0643999949 0.14592883
v -0.0959156454 0.0643999949 0.152302459
v -0.0935999751 0.0643999949 0.149678022
v -0.09323125 0.0643999949 0.1499477
v -0.09503072 0.0643999949 0.152949691
v -0.09279381 0.0643999949 0.150155246
v -0.09398086 0.0643999949 0.1534478
v -0.09230456 0.0643999949 0.15027757
v -0.09280665 0.0643999949 0.15374136
v -0.0917899758 0.0643999949 0.150298551
v -0.09157165 0.0643999949 0.153791741
v -0.091282 0.0643999949 0.150213659
v -0.09035253 0.0643999949 0.153587982
v -0.09081179 0.0643999949 0.150031373
v -0.08922401 0.0643999949 0.1531505
v -0.0904035941 0.0643999949 0.149770975
v -0.08824434 0.0643999949 0.152525544
v -0.08744689 0.0643999949 0.151773155
v -0.09007132 0.0643999949 0.149457484
v -0.08679965 0.0643999949 0.150888234
v -0.08980164 0.0643999949 0.149088755
v -0.0863015354 0.0643999949 0.149838373
v -0.0895940959 0.0643999949 0.148651317
v -0.086007975 0.0643999949 0.148664162
v -0.08947178 0.0643999949 0.148162067
v -0.0859576 0.0643999949 0.147429153
v -0.089450784 0.0643999949 0.147647485
v -0.08616136 0.0643999949 0.14621003
v -0.08953568 0.0643999949 0.147139519
v -0.08659884 0.0644 0.14508152
v -0.08971797 0.0643999949 0.1466693
v -0.0872238055 0.0644 0.144101858
v -0.08997837 0.0643999949 0.1462611
v -0.09435615 0.0598999932 0.148467332
v -0.09194592 0.0598999932 0.147803426
v -0.09417386 0.0598999932 0.148937553
v -0.09444105 0.0598999932 0.147959366
v -0.0939134657 0.0598999932 0.149345756
v -0.09442006 0.0598999932 0.147444785
v -0.0935999751 0.0598999932 0.149678022
v -0.0942977443 0.0598999932 0.146955535
v -0.09323125 0.0598999932 0.1499477
v -0.09409019 0.0598999932 0.1465181
v -0.09279381 0.0598999932 0.150155246
v -0.09382051 0.0598999932 0.146149367
v -0.09230456 0.0598999932 0.15027757
v -0.09348824 0.0598999932 0.145835876
v -0.0917899758 0.0598999932 0.150298551
v -0.0930800438 0.0598999932 0.145575479
v -0.091282 0.0598999932 0.150213659
v -0.09260983 0.0598999932 0.1453932
v -0.09081179 0.0598999932 0.150031373
v -0.0921018645 0.0598999932 0.145308286
v -0.0904035941 0.0598999932 0.149770975
v -0.0915872753 0.0598999932 0.145329282
v -0.09007132 0.0598999932 0.149457484
v -0.0910980254 0.0598999932 0.1454516
v -0.08980164 0.0598999932 0.149088755
v -0.09066059 0.0598999932 0.145659149
v -0.0895940959 0.0598999932 0.148651317
v -0.0902918652 0.0598999932 0.14592883
v -0.08947178 0.0598999932 0.148162067
v -0.08997837 0.0598999932 0.1462611
v -0.089450784 0.0598999932 0.147647485
v -0.08971797 0.0598999932 0.1466693
v -0.08953568 0.0598999932 0.147139519
v -0.07619932 0.0925 0.139025912
v -0.08069835 0.08325 0.135056183
v -0.0851973742 0.0925 0.131086454
v -0.07619932 0.074 0.139025912
v -0.0851973742 0.074 0.131086454
f 1 2 3
f 1 3 4
f 5 1 4
f 4 3 6
f 7 5 4
f 8 4 6
f 7 4 8
f 8 6 9
f 10 7 8
f 11 8 9
f 10 8 11
f 11 9 12
f 13 10 11
f 14 11 12
f 13 11 14
f 14 12 15
f 16 13 14
f 17 14 15
f 16 14 17
f 17 15 18
f 19 16 17
f 20 17 18
f 19 17 20
f 20 18 21
f 22 20 21
f 23 19 20
f 23 20 22
f 22 21 24
f 25 23 22
f 26 22 24
f 27 25 22
f 28 22 26
f 27 22 28
f 29 28 26
f 30 27 28
f 31 28 29
f 31 30 28
f 32 31 29
f 31 32 30
f 32 29 33
f 32 34 30
f 35 32 33
f 32 35 34
f 35 33 36
f 35 37 34
f 38 35 36
f 35 38 37
f 38 36 39
f 38 40 37
f 41 38 39
f 38 41 40
f 41 39 42
f 41 43 40
f 44 41 42
f 41 44 43
f 44 42 45
f 44 46 43
f 47 44 45
f 44 47 46
f 47 45 48
f 46 47 49
f 47 48 49
f 48 50 49
f 50 51 49
f 49 51 52
f 50 53 51
f 51 54 52
f 53 55 51
f 51 55 54
f 53 56 55
f 55 57 54
f 56 58 55
f 55 58 57
f 56 59 58
f 58 60 57
f 59 61 58
f 58 61 60
f 59 62 61
f 61 63 60
f 62 64 61
f 61 64 63
f 62 65 64
f 64 66 63
f 65 67 64
f 64 67 66
f 65 68 67
f 68 69 67
f 67 70 66
f 67 69 70
f 68 71 69
f 69 72 70
f 71 73 69
f 69 74 72
f 73 75 69
f 69 75 74
f 73 76 75
f 75 77 74
f 76 78 75
f 75 78 77
f 76 79 78
f 79 77 78
f 80 79 76
f 79 81 77
f 82 79 80
f 79 82 81
f 83 82 80
f 82 84 81
f 85 82 83
f 82 85 84
f 86 85 83
f 85 87 84
f 88 85 86
f 85 88 87
f 89 88 86
f 88 90 87
f 91 88 89
f 88 91 90
f 92 91 89
f 91 93 90
f 94 91 92
f 91 94 93
f 95 94 92
f 94 96 93
f 94 95 96
f 97 98 99
f 97 99 100
f 101 97 100
f 100 99 102
f 103 101 100
f 104 100 102
f 103 100 104
f 104 102 105
f 106 103 104
f 107 104 105
f 106 104 107
f 107 105 108
f 109 106 107
f 110 107 108
f 109 107 110
f 110 108 111
f 112 109 110
f 113 110 111
f 112 110 113
f 113 111 114
f 115 112 113
f 116 113 114
f 115 113 116
f 116 114 117
f 118 116 117
f 119 115 116
f 119 116 118
f 118 117 120
f 121 119 118
f 122 118 120
f 123 121 118
f 124 118 122
f 123 118 124
f 125 124 122
f 126 123 124
f 127 124 125
f 127 126 124
f 128 127 125
f 127 128 126
f 128 125 129
f 128 130 126
f 131 128 129
f 128 131 130
f 131 129 132
f 131 133 130
f 134 131 132
f 131 134 133
f 134 132 135
f 134 136 133
f 137 134 135
f 134 137 136
f 137 135 138
f 137 139 136
f 140 137 138
f 137 140 139
f 140 138 141
f 140 142 139
f 143 140 141
f 140 143 142
f 143 141 144
f 142 143 145
f 143 144 145
f 144 146 145
f 146 147 145
f 145 147 148
f 146 149 147
f 147 150 148
f 149 151 147
f 147 151 150
f 149 152 151
f 151 153 150
f 152 154 151
f 151 154 153
f 152 155 154
f 154 156 153
f 155 157 154
f 154 157 156
f 155 158 157
f 157 159 156
f 158 160 157
f 157 160 159
f 158 161 160
f 160 162 159
f 161 163 160
f 160 163 162
f 161 164 163
f 164 165 163
f 163 166 162
f 163 165 166
f 164 167 165
f 165 168 166
f 167 169 165
f 165 170 168
f 169 171 165
f 165 171 170
f 169 172 171
f 171 173 170
f 172 174 171
f 171 174 173
f 172 175 174
f 175 173 174
f 176 175 172
f 175 177 173
f 178 175 176
f 175 178 177
f 179 178 176
f 178 180 177
f 181 178 179
f 178 181 180
f 182 181 179
f 181 183 180
f 184 181 182
f 181 184 183
f 185 184 182
f 184 186 183
f 187 184 185
f 184 187 186
f 188 187 185
f 187 189 186
f 190 187 188
f 187 190 189
f 191 190 188
f 190 192 189
f 190 191 192
f 193 194 195
f 193 195 196
f 197 193 196
f 196 195 198
f 199 197 196
f 200 196 198
f 199 196 200
f 200 198 201
f 202 199 200
f 203 200 201
f 202 200 203
f 203 201 204
f 205 202 203
f 206 203 204
f 205 203 206
f 206 204 207
f 208 205 206
f 209 206 207
f 208 206 209
f 209 207 210
f 211 208 209
f 212 209 210
f 211 209 212
f 212 210 213
f 214 212 213
f 215 211 212
f 215 212 214
f 214 213 216
f 217 215 214
f 218 214 216
f 219 217 214
f 220 214 218
f 219 214 220
f 221 220 218
f 222 219 220
f 223 220 221
f 223 222 220
f 224 223 221
f 223 224 222
f 224 221 225
f 224 226 222
f 227 224 225
f 224 227 226
f 227 225 228
f 227 229 226
f 230 227 228
f 227 230 229
f 230 228 231
f 230 232 229
f 233 230 231
f 230 233 232
f 233 231 234
f 233 235 232
f 236 233 234
f 233 236 235
f 236 234 237
f 236 238 235
f 239 236 237
f 236 239 238
f 239 237 240
f 238 239 241
f 239 240 241
f 240 242 241
f 242 243 241
f 241 243 244
f 242 245 243
f 243 246 244
f 245 247 243
f 243 247 246
f 245 248 247
f 247 249 246
f 248 250 247
f 247 250 249
f 248 251 250
f 250 252 249
f 251 253 250
f 250 253 252
f 251 254 253
f 253 255 252
f 254 256 253
f 253 256 255
f 254 257 256
f 256 258 255
f 257 259 256
f 256 259 258
f 257 260 259
f 260 261 259
f 259 262 258
f 259 261 262
f 260 263 261
f 261 264 262
f 263 265 261
f 261 266 264
f 265 267 261
f 261 267 266
f 265 268 267
f 267 269 266
f 268 270 267
f 267 270 269
f 268 271 270
f 271 269 270
f 272 271 268
f 271 273 269
f 274 271 272
f 271 274 273
f 275 274 272
f 274 276 273
f 277 274 275
f 274 277 276
f 278 277 275
f 277 279 276
f 280 277 278
f 277 280 279
f 281 280 278
f 280 282 279
f 283 280 281
f 280 283 282
f 284 283 281
f 283 285 282
f 286 283 284
f 283 286 285
f 287 286 284
f 286 288 285
f 286 287 288
f 289 290 291
f 289 291 292
f 293 289 292
f 292 291 294
f 295 293 292
f 296 292 294
f 295 292 296
f 296 294 297
f 298 295 296
f 299 296 297
f 298 296 299
f 299 297 300
f 301 298 299
f 302 299 300
f 301 299 302
f 302 300 303
f 304 301 302
f 305 302 303
f 304 302 305
f 305 303 306
f 307 304 305
f 308 305 306
f 307 305 308
f 308 306 309
f 310 308 309
f 311 307 308
f 311 308 310
f 310 309 312
f 313 311 310
f 314 310 312
f 315 313 310
f 316 310 314
f 315 310 316
f 317 316 314
f 318 315 316
f 319 316 317
f 319 318 316
f 320 319 317
f 319 320 318
f 320 317 321
f 320 322 318
f 323 320 321
f 320 323 322
f 323 321 324
f 323 325 322
f 326 323 324
f 323 326 325
f 326 324 327
f 326 328 325
f 329 326 327
f 326 329 328
f 329 327 330
f 329 331 328
f 332 329 330
f 329 332 331
f 332 330 333
f 332 334 331
f 335 332 333
f 332 335 334
f 335 333 336
f 334 335 337
f 335 336 337
f 336 338 337
f 338 339 337
f 337 339 340
f 338 341 339
f 339 342 340
f 341 343 339
f 339 343 342
f 341 344 343
f 343 345 342
f 344 346 343
f 343 346 345
f 344 347 346
f 346 348 345
f 347 349 346
f 346 349 348
f 347 350 349
f 349 351 348
f 350 352 349
f 349 352 351
f 350 353 352
f 352 354 351
f 353 355 352
f 352 355 354
f 353 356 355
f 356 357 355
f 355 358 354
f 355 357 358
f 356 359 357
f 357 360 358
f 359 361 357
f 357 362 360
f 361 363 357
f 357 363 362
f 361 364 363
f 363 365 362
f 364 366 363
f 363 366 365
f 364 367 366
f 367 365 366
f 368 367 364
f 367 369 365
f 370 367 368
f 367 370 369
f 371 370 368
f 370 372 369
f 373 370 371
f 370 373 372
f 374 373 371
f 373 375 372
f 376 373 374
f 373 376 375
f 377 376 374
f 376 378 375
f 379 376 377
f 376 379 378
f 380 379 377
f 379 381 378
f 382 379 380
f 379 382 381
f 383 382 380
f 382 384 381
f 382 383 384
f 385 386 387
f 386 388 387
f 386 389 388
f 389 390 388
f 391 389 386
f 392 391 386
f 391 392 393
f 391 393 394
f 389 391 394
f 389 394 395
f 396 389 395
f 395 394 397
f 398 395 397
f 399 400 401
f 400 402 401
f 402 403 401
f 402 404 403
f 403 405 401
f 405 406 401
f 405 407 406
f 407 405 408
f 405 403 408
f 403 409 408
f 409 403 410
f 409 411 408
f 409 412 411
f 413 414 415
f 416 413 415
f 413 416 417
f 413 417 418
f 419 413 418
f 413 419 420
f 413 421 414
f 413 420 422
f 413 423 421
f 423 424 421
f 423 425 424
f 426 413 422
f 426 422 427
f 426 427 428
f 425 423 429
f 430 426 428
f 423 431 429
f 426 430 432
f 423 433 431
f 426 432 434
f 433 423 435
f 423 436 435
f 423 437 436
f 423 438 437
f 438 439 437
f 438 440 439
f 441 426 434
f 426 441 442
f 426 442 443
f 438 426 443
f 440 438 444
f 438 443 445
f 438 446 444
f 438 445 447
f 438 448 446
f 448 438 447
f 449 450 451
f 449 451 452
f 450 449 453
f 453 449 452
f 454 455 456
f 457 454 456
f 454 457 458
f 454 458 459
f 460 454 459
f 454 460 461
f 454 462 455
f 454 461 463
f 454 464 462
f 464 465 462
f 464 466 465
f 467 454 463
f 467 463 468
f 467 468 469
f 466 464 470
f 471 467 469
f 464 472 470
f 467 471 473
f 464 474 472
f 467 473 475
f 474 464 476
f 464 477 476
f 464 478 477
f 464 479 478
f 479 480 478
f 479 481 480
f 482 467 475
f 467 482 483
f 467 483 484
f 479 467 484
f 481 479 485
f 479 484 486
f 479 487 485
f 479 486 488
f 479 489 487
f 489 479 488
f 490 491 492
f 490 492 493
f 491 490 494
f 494 490 493
f 495 496 497
f 496 495 498
f 496 499 497
f 496 498 500
f 499 496 500
f 501 502 503
f 504 501 503
f 501 504 505
f 501 505 506
f 507 501 506
f 501 507 508
f 501 509 502
f 501 508 510
f 501 511 509
f 511 512 509
f 511 513 512
f 514 501 510
f 514 510 515
f 514 515 516
f 513 511 517
f 518 514 516
f 511 519 517
f 514 518 520
f 511 521 519
f 514 520 522
f 521 511 523
f 511 524 523
f 511 525 524
f 511 526 525
f 526 527 525
f 526 528 527
f 529 514 522
f 514 529 530
f 514 530 531
f 526 514 531
f 528 526 532
f 526 531 533
f 526 534 532
f 526 533 535
f 526 536 534
f 536 526 535
f 537 538 539
f 537 539 540
f 538 537 541
f 541 537 540
f 542 543 544
f 545 542 544
f 542 545 546
f 542 546 547
f 548 542 547
f 542 548 549
f 542 550 543
f 542 549 551
f 542 552 550
f 552 553 550
f 552 554 553
f 555 542 551
f 555 551 556
f 555 556 557
f 554 552 558
f 559 555 557
f 552 560 558
f 555 559 561
f 552 562 560
f 555 561 563
f 562 552 564
f 552 565 564
f 552 566 565
f 552 567 566
f 567 568 566
f 567 569 568
f 570 555 563
f 555 570 571
f 555 571 572
f 567 555 572
f 569 567 573
f 567 572 574
f 567 575 573
f 567 574 576
f 567 577 575
f 577 567 576
f 578 579 580
f 578 580 581
f 579 578 582
f 582 578 581
f 583 584 585
f 583 585 586
f 584 583 587
f 587 583 586
f 588 589 590
f 589 588 591
f 589 592 590
f 589 591 593
f 594 589 593
f 589 594 595
f 589 595 596
f 597 589 596
f 592 598 599
f 598 600 599
f 598 601 600
f 601 598 602
f 598 603 602
f 598 604 603
f 604 598 605
f 598 606 605
f 607 608 597
f 608 607 609
f 608 609 610
f 611 608 610
f 608 611 612
f 608 612 613
f 614 608 613
f 608 614 615
f 606 615 616
f 614 613 617
f 615 618 616
f 619 614 617
f 614 619 620
f 614 620 621
f 615 614 621
f 615 622 618
f 615 621 623
f 622 615 624
f 615 623 624
f 625 626 627
f 625 628 626
f 629 625 627
f 625 630 628
f 629 627 631
f 630 632 628
f 633 629 631
f 630 634 632
f 633 631 635
f 634 636 632
f 637 633 635
f 634 638 636
f 637 635 639
f 638 640 636
f 641 637 639
f 638 642 640
f 641 639 643
f 642 644 640
f 645 641 643
f 642 646 644
f 645 643 647
f 646 648 644
f 649 645 647
f 646 650 648
f 649 647 651
f 650 652 648
f 653 649 651
f 650 654 652
f 653 651 655
f 656 653 655
f 654 657 652
f 657 654 658
f 657 658 659
f 660 657 659
f 659 661 660
f 661 662 660
f 661 663 662
f 663 664 662
f 663 665 664
f 665 666 664
f 665 667 666
f 667 668 666
f 667 669 668
f 669 670 668
f 669 671 670
f 671 672 670
f 671 673 672
f 671 674 673
f 674 675 673
f 674 676 675
f 676 677 675
f 676 678 677
f 678 679 677
f 678 680 679
f 680 681 679
f 680 682 681
f 682 683 681
f 682 684 683
f 684 685 683
f 684 686 685
f 686 687 685
f 686 688 687
f 688 656 687
f 656 655 687
f 689 690 691
f 690 689 692
f 690 693 691
f 690 692 694
f 693 690 695
f 696 690 694
f 690 697 695
f 690 696 698
f 690 699 697
f 690 698 700
f 699 690 701
f 702 690 700
f 690 703 701
f 690 702 704
f 690 705 703
f 690 704 706
f 705 690 707
f 708 690 706
f 690 709 707
f 690 708 710
f 690 711 709
f 690 710 712
f 711 690 713
f 714 690 712
f 690 715 713
f 690 714 716
f 690 717 715
f 690 716 718
f 717 690 719
f 720 690 718
f 690 721 719
f 690 720 721
f 722 723 724
f 725 723 722
f 723 726 724
f 723 725 726
