# ROS coordinates: X forward, Y left, Z up; units are metres.
o mesh
v -0.0616250038 -0.03205112 0.124735922
v -0.0613750033 -0.03205112 0.124735922
v -0.0613750033 -0.03201965 0.124733031
v -0.0615000054 -0.0320150554 0.124732114
v -0.0616250038 -0.03201965 0.124733031
v -0.0613750033 -0.03198746 0.124723777
v -0.0616250038 -0.03198746 0.124723777
v -0.0615000054 -0.0319783874 0.124719881
v -0.0613750033 -0.03195648 0.124707729
v -0.0616250038 -0.03195648 0.124707729
v -0.0615000054 -0.0319441 0.124698833
v -0.0613750033 -0.0319288224 0.124685258
v -0.0616250038 -0.0319288224 0.124685258
v -0.0615000054 -0.03191525 0.124669984
v -0.0613750033 -0.0319063552 0.1246576
v -0.0616250038 -0.0319063552 0.1246576
v -0.0615000054 -0.0318942 0.1246357
v -0.0613750033 -0.0318903066 0.124626622
v -0.0616250038 -0.0318903066 0.124626622
v -0.0615000054 -0.0318819657 0.124599025
v -0.0613750033 -0.031881053 0.124594435
v -0.0615000054 -0.0318781659 0.124562964
v -0.0616250038 -0.031881053 0.124594435
v -0.0613750033 -0.0318781659 0.124562964
v -0.0616250038 -0.0318781659 0.124562964
v -0.0613750033 -0.031881053 0.124531485
v -0.0616250038 -0.031881053 0.124531485
v -0.0615000054 -0.0318819657 0.124526896
v -0.0613750033 -0.0318903066 0.1244993
v -0.0616250038 -0.0318903066 0.1244993
v -0.0615000054 -0.0318903066 0.1244993
v -0.0615000054 -0.0319036543 0.124472588
v -0.0613750033 -0.0319063552 0.124468319
v -0.0616250038 -0.0319063552 0.124468319
v -0.0615000054 -0.031921804 0.124448106
v -0.0613750033 -0.0319288224 0.124440663
v -0.0616250038 -0.0319288224 0.124440663
v -0.0615000054 -0.0319441 0.124427095
v -0.0613750033 -0.03195648 0.1244182
v -0.0616250038 -0.03195648 0.1244182
v -0.0615000054 -0.03196947 0.124410488
v -0.0613750033 -0.03198746 0.124402151
v -0.0616250038 -0.03198746 0.124402151
v -0.0615000054 -0.0319966227 0.124398813
v -0.0613750033 -0.03201965 0.124392889
v -0.0616250038 -0.03201965 0.124392889
v -0.0615000054 -0.03202423 0.124392107
v -0.0613750033 -0.03205112 0.124390006
v -0.0616250038 -0.03205112 0.124390006
v -0.0616250038 -0.0365270451 0.124390006
v -0.0613750033 -0.0365270451 0.124390006
v -0.0613750033 -0.0365585163 0.124392889
v -0.0615000054 -0.0365631133 0.124393806
v -0.0616250038 -0.0365585163 0.124392889
v -0.0613750033 -0.03659071 0.124402151
v -0.0616250038 -0.03659071 0.124402151
v -0.0615000054 -0.0365997776 0.12440604
v -0.0613750033 -0.03662169 0.1244182
v -0.0616250038 -0.03662169 0.1244182
v -0.0615 -0.03663407 0.124427095
v -0.0613750033 -0.0366493464 0.124440663
v -0.0616250038 -0.0366493464 0.124440663
v -0.0615000054 -0.0366629139 0.124455936
v -0.0613750033 -0.03667181 0.124468319
v -0.0616250038 -0.03667181 0.124468319
v -0.0615000054 -0.03668397 0.124490231
v -0.0613750033 -0.03668786 0.1244993
v -0.0616250038 -0.03668786 0.1244993
v -0.0615000054 -0.0366962 0.124526896
v -0.0613750033 -0.0366971157 0.124531485
v -0.0615000054 -0.0367000028 0.124562964
v -0.0616250038 -0.0366971157 0.124531485
v -0.0613750033 -0.0367000028 0.124562964
v -0.0616250038 -0.0367000028 0.124562964
v -0.0613750033 -0.0366971157 0.124594435
v -0.0616250038 -0.0366971157 0.124594435
v -0.0615000054 -0.0366962 0.124599025
v -0.0613750033 -0.03668786 0.124626622
v -0.0616250038 -0.03668786 0.124626622
v -0.0615000054 -0.03668786 0.124626622
v -0.0615000054 -0.0366745144 0.124653332
v -0.0613750033 -0.03667181 0.1246576
v -0.0616250038 -0.03667181 0.1246576
v -0.0615000054 -0.03665636 0.124677815
v -0.0613750033 -0.0366493464 0.124685258
v -0.0616250038 -0.0366493464 0.124685258
v -0.0615000054 -0.03663407 0.124698833
v -0.0613750033 -0.03662169 0.124707729
v -0.0616250038 -0.03662169 0.124707729
v -0.0615000054 -0.036608696 0.124715433
v -0.0613750033 -0.03659071 0.124723777
v -0.0616250038 -0.03659071 0.124723777
v -0.0615000054 -0.0365815461 0.124727108
v -0.0613750033 -0.0365585163 0.124733031
v -0.0616250038 -0.0365585163 0.124733031
v -0.0615000054 -0.0365539379 0.124733813
v -0.0613750033 -0.0365270451 0.124735922
v -0.0616250038 -0.0365270451 0.124735922
v -0.0613750033 -0.0338234156 0.129076481
v -0.0613750033 -0.033830896 0.129074186
v -0.0613750033 -0.0338379219 0.129070759
v -0.0613750033 -0.0338157676 0.129077569
v -0.0613750033 -0.03384426 0.129066333
v -0.0613750033 -0.0338082239 0.1290775
v -0.0613750033 -0.0338497125 0.129061118
v -0.0613750033 -0.03380103 0.129076332
v -0.0613750033 -0.03379408 0.129074141
v -0.0613750033 -0.0337873 0.129070833
v -0.0613750033 -0.03378095 0.129066437
v -0.0613750033 -0.0337752923 0.129061028
v -0.0613750033 -0.0337705463 0.129054815
v -0.0613750033 -0.0337668657 0.12904802
v -0.0613750033 -0.03385418 0.129055366
v -0.0613750033 -0.0337643251 0.129040912
v -0.0613750033 -0.0337629132 0.129033774
v -0.0613750033 -0.0341195539 0.1286562
v -0.0613750033 -0.0340834744 0.128362328
v -0.0613750033 -0.034137886 0.128622875
v -0.0613750033 -0.033403106 0.126103386
v -0.0613750033 -0.0341093168 0.128390223
v -0.0613750033 -0.03415086 0.128585175
v -0.0613750033 -0.0341310278 0.128423661
v -0.0613750033 -0.034157142 0.128544465
v -0.0613750033 -0.034146972 0.128461644
v -0.0613750033 -0.03415589 0.128502578
v -0.0613750033 -0.0338586047 0.126530915
v -0.0613750033 -0.03416552 0.126173615
v -0.0613750033 -0.03416552 0.125978142
v -0.0613750033 -0.0341802277 0.126153275
v -0.0613750033 -0.03334568 0.126045957
v -0.0613750033 -0.0341802277 0.125998482
v -0.0613750033 -0.03416552 0.1254732
v -0.0613750033 -0.03334568 0.125050381
v -0.0613750033 -0.03416719 0.125455
v -0.0613750033 -0.03419178 0.126129612
v -0.0613750033 -0.03419178 0.126022145
v -0.0613750033 -0.0341991819 0.126103431
v -0.0613750033 -0.0341991819 0.126048326
v -0.0613750033 -0.0342017338 0.126075879
v -0.0613750033 -0.0341725424 0.1254364
v -0.0613750033 -0.0341818221 0.125418484
v -0.0613750033 -0.03419481 0.1254025
v -0.0613750033 -0.0342108 0.1253895
v -0.0613750033 -0.0342287123 0.125380218
v -0.0613750033 -0.0334319137 0.124494828
v -0.0613750033 -0.0342473239 0.125374869
v -0.0613750033 -0.0342655219 0.1253732
v -0.0613750033 -0.033031214 0.124735922
v -0.0613750033 -0.03339809 0.124390006
v -0.0613750033 -0.03205112 0.124390006
v -0.0613750033 -0.0353292 0.124494828
v -0.0613750033 -0.03205112 0.124735922
v -0.0613750033 -0.0348421335 0.1253732
v -0.0613750033 -0.03201965 0.124392889
v -0.0613750033 -0.03198746 0.124402151
v -0.0613750033 -0.03195648 0.1244182
v -0.0613750033 -0.03201965 0.124733031
v -0.0613750033 -0.03198746 0.124723777
v -0.0613750033 -0.03195648 0.124707729
v -0.0613750033 -0.0319288224 0.124440663
v -0.0613750033 -0.0319063552 0.124468319
v -0.0613750033 -0.0318903066 0.1244993
v -0.0613750033 -0.031881053 0.124531485
v -0.0613750033 -0.0318781659 0.124562964
v -0.0613750033 -0.031881053 0.124594435
v -0.0613750033 -0.0318903066 0.124626622
v -0.0613750033 -0.0319063552 0.1246576
v -0.0613750033 -0.0319288224 0.124685258
v -0.0613750033 -0.03667181 0.124468319
v -0.0613750033 -0.0366493464 0.124440663
v -0.0613750033 -0.03662169 0.1244182
v -0.0613750033 -0.03668786 0.1244993
v -0.0613750033 -0.0366971157 0.124531485
v -0.0613750033 -0.0367000028 0.124562964
v -0.0613750033 -0.0366971157 0.124594435
v -0.0613750033 -0.03668786 0.124626622
v -0.0613750033 -0.03667181 0.1246576
v -0.0613750033 -0.0366493464 0.124685258
v -0.0613750033 -0.03662169 0.124707729
v -0.0613750033 -0.03659071 0.124402151
v -0.0613750033 -0.0365585163 0.124392889
v -0.0613750033 -0.0365270451 0.124390006
v -0.0613750033 -0.03659071 0.124723777
v -0.0613750033 -0.0365585163 0.124733031
v -0.0613750033 -0.0365270451 0.124735922
v -0.0613750033 -0.0357566 0.124735922
v -0.0613750033 -0.03538972 0.124390006
v -0.0613750033 -0.0354421325 0.125050381
v -0.0613750033 -0.0348603278 0.125374869
v -0.0613750033 -0.0348789431 0.125380218
v -0.0613750033 -0.0348968543 0.1253895
v -0.0613750033 -0.0349128433 0.1254025
v -0.0613750033 -0.0349258333 0.125418484
v -0.0613750033 -0.03493511 0.1254364
v -0.0613750033 -0.0349404626 0.125455
v -0.0613750033 -0.03494213 0.1254732
v -0.0613750033 -0.0354421325 0.126045957
v -0.0613750033 -0.03494213 0.1259749
v -0.0613750033 -0.03539213 0.126095966
v -0.0613750033 -0.0349921323 0.126477361
v -0.0613750033 -0.0348421335 0.1260749
v -0.0613750033 -0.0348421335 0.126327351
v -0.0613750033 -0.03539213 0.128744051
v -0.0613750033 -0.0349921323 0.128826886
v -0.0613750033 -0.0350507125 0.128885478
v -0.0613750033 -0.0353901275 0.128772289
v -0.0613750033 -0.035072092 0.128904015
v -0.0613750033 -0.035096705 0.12891981
v -0.0613750033 -0.0351239778 0.128932074
v -0.0613750033 -0.0351531133 0.12894021
v -0.0613750033 -0.0351831429 0.128943846
v -0.0613750033 -0.0352130346 0.128942952
v -0.0613750033 -0.0352418162 0.128937781
v -0.0613750033 -0.0352686681 0.128928825
v -0.0613750033 -0.03529399 0.128916174
v -0.0613750033 -0.035383895 0.128800854
v -0.0613750033 -0.035318 0.128899485
v -0.0613750033 -0.03537328 0.128828824
v -0.0613750033 -0.0353584252 0.128855169
v -0.0613750033 -0.03533977 0.128878966
v -0.0613750033 -0.03539213 0.128744051
v -0.0613750033 -0.0353901275 0.128772289
v -0.0616250038 -0.03539213 0.128744051
v -0.0615000054 -0.0353895053 0.128776371
v -0.0616250038 -0.0353901275 0.128772289
v -0.0613750033 -0.035383895 0.128800854
v -0.0616250038 -0.035383895 0.128800854
v -0.0615000054 -0.03538131 0.128808945
v -0.0613750033 -0.03537328 0.128828824
v -0.0616250038 -0.03537328 0.128828824
v -0.0615000054 -0.0353674144 0.128840357
v -0.0613750033 -0.0353584252 0.128855169
v -0.0616250038 -0.0353584252 0.128855169
v -0.0615000054 -0.03534819 0.128869131
v -0.0613750033 -0.03533977 0.128878966
v -0.0616250038 -0.03533977 0.128878966
v -0.0615000054 -0.0353244878 0.128893986
v -0.0613750033 -0.035318 0.128899485
v -0.0616250038 -0.035318 0.128899485
v -0.0615000054 -0.03529752 0.128914028
v -0.0613750033 -0.03529399 0.128916174
v -0.0615000054 -0.0352686681 0.128928825
v -0.0616250038 -0.03529399 0.128916174
v -0.0613750033 -0.0352686681 0.128928825
v -0.0616250038 -0.0352686681 0.128928825
v -0.0613750033 -0.0352418162 0.128937781
v -0.0616250038 -0.0352418162 0.128937781
v -0.0615000054 -0.0352378078 0.128938764
v -0.0613750033 -0.0352130346 0.128942952
v -0.0615000054 -0.0351874456 0.128944
v -0.0616250038 -0.0352130346 0.128942952
v -0.0613750033 -0.0351831429 0.128943846
v -0.0616250038 -0.0351831429 0.128943846
v -0.0613750033 -0.0351531133 0.12894021
v -0.0616250038 -0.0351531133 0.12894021
v -0.0615000054 -0.03513629 0.1289361
v -0.0613750033 -0.0351239778 0.128932074
v -0.0615000054 -0.03508937 0.128915638
v -0.0616250038 -0.0351239778 0.128932089
v -0.0613750033 -0.035096705 0.12891981
v -0.0616250038 -0.035096705 0.12891981
v -0.0613750033 -0.035072092 0.128904015
v -0.0616250038 -0.035072092 0.128904015
v -0.0613750033 -0.0350507125 0.128885478
v -0.0616250038 -0.0350507125 0.128885478
v -0.0613750033 -0.03385418 0.129055366
v -0.0613750033 -0.0338497125 0.129061118
v -0.0616250038 -0.03385418 0.129055351
v -0.0615000054 -0.0338489935 0.129061908
v -0.0616250038 -0.0338497125 0.129061118
v -0.0613750033 -0.03384426 0.129066333
v -0.0616250038 -0.03384426 0.129066333
v -0.0615000054 -0.03384253 0.129067689
v -0.0613750033 -0.0338379219 0.129070759
v -0.0616250038 -0.0338379219 0.129070759
v -0.0615000054 -0.0338349827 0.129072353
v -0.0613750033 -0.033830896 0.129074186
v -0.0616250038 -0.033830896 0.129074186
v -0.0615000054 -0.03382666 0.129075646
v -0.0613750033 -0.0338234156 0.129076481
v -0.0616250038 -0.0338234156 0.129076481
v -0.0615000054 -0.0338179544 0.12907739
v -0.0613750033 -0.0338157676 0.129077569
v -0.0616250038 -0.0338157676 0.129077569
v -0.0615000054 -0.0338092856 0.129077569
v -0.0613750033 -0.0338082239 0.1290775
v -0.0615000054 -0.03380103 0.129076332
v -0.0616250038 -0.0338082239 0.1290775
v -0.0613750033 -0.03380103 0.129076332
v -0.0616250038 -0.03380103 0.129076332
v -0.0613750033 -0.03379408 0.129074141
v -0.0616250038 -0.03379408 0.129074141
v -0.0615000054 -0.0337930955 0.129073739
v -0.0613750033 -0.0337873 0.129070833
v -0.0616250038 -0.0337873 0.129070833
v -0.0615000054 -0.0337873 0.129070833
v -0.0615000054 -0.03378182 0.129067123
v -0.0613750033 -0.03378095 0.129066437
v -0.0616250038 -0.03378095 0.129066437
v -0.0615000054 -0.0337768234 0.129062667
v -0.0613750033 -0.0337752923 0.129061028
v -0.0616250038 -0.0337752923 0.129061028
v -0.0615000054 -0.0337724574 0.129057571
v -0.0613750033 -0.0337705463 0.129054815
v -0.0616250038 -0.0337705463 0.129054815
v -0.0615000054 -0.0337688327 0.129051954
v -0.0613750033 -0.0337668657 0.12904802
v -0.0616250038 -0.0337668657 0.12904802
v -0.0615000054 -0.0337660238 0.129046008
v -0.0613750033 -0.0337643251 0.129040912
v -0.0616250038 -0.0337643251 0.129040912
v -0.0613750033 -0.0337629132 0.129033774
v -0.0616250038 -0.0337629132 0.129033774
v -0.0616250038 -0.034146972 0.128461644
v -0.0616250038 -0.03415589 0.128502578
v -0.0616250038 -0.034157142 0.128544465
v -0.0616250038 -0.0341310278 0.128423661
v -0.0616250038 -0.03415086 0.128585175
v -0.0616250038 -0.0341093168 0.128390223
v -0.0616250038 -0.034137886 0.128622875
v -0.0616250038 -0.0340834744 0.128362328
v -0.0616250038 -0.0341195539 0.1286562
v -0.0616250038 -0.0337629132 0.129033774
v -0.0616250038 -0.03385418 0.129055351
v -0.0616250038 -0.0337643251 0.129040912
v -0.0616250038 -0.0338497125 0.129061118
v -0.0616250038 -0.03384426 0.129066333
v -0.0616250038 -0.0338379219 0.129070759
v -0.0616250038 -0.033403106 0.126103386
v -0.0616250038 -0.033830896 0.129074186
v -0.0616250038 -0.0338586047 0.126530915
v -0.0616250038 -0.0338234156 0.129076481
v -0.0616250038 -0.0338157676 0.129077569
v -0.0616250038 -0.0338082239 0.1290775
v -0.0616250038 -0.03380103 0.129076332
v -0.0616250038 -0.03379408 0.129074141
v -0.0616250038 -0.0337668657 0.12904802
v -0.0616250038 -0.0337873 0.129070833
v -0.0616250038 -0.0337705463 0.129054815
v -0.0616250038 -0.0337752923 0.129061028
v -0.0616250038 -0.03378095 0.129066437
v -0.0616250038 -0.03416552 0.126173615
v -0.0616250038 -0.03416552 0.125978142
v -0.0616250038 -0.03334568 0.126045957
v -0.0616250038 -0.0341802277 0.125998482
v -0.0616250038 -0.03416552 0.1254732
v -0.0616250038 -0.03334568 0.125050381
v -0.0616250038 -0.03416719 0.125455
v -0.0616250038 -0.0341802277 0.126153275
v -0.0616250038 -0.03419178 0.126022145
v -0.0616250038 -0.03419178 0.126129612
v -0.0616250038 -0.0341991819 0.126048326
v -0.0616250038 -0.0341991819 0.126103431
v -0.0616250038 -0.0342017338 0.126075879
v -0.0616250038 -0.0341725424 0.1254364
v -0.0616250038 -0.0341818221 0.125418484
v -0.0616250038 -0.03419481 0.1254025
v -0.0616250038 -0.0342108 0.1253895
v -0.0616250038 -0.0342287123 0.125380218
v -0.0616250038 -0.0334319137 0.124494828
v -0.0616250038 -0.0342473239 0.125374869
v -0.0616250038 -0.0342655219 0.1253732
v -0.0616250038 -0.033031214 0.124735922
v -0.0616250038 -0.03339809 0.124390006
v -0.0616250038 -0.0353292 0.124494828
v -0.0616250038 -0.03205112 0.124390006
v -0.0616250038 -0.0348421335 0.1253732
v -0.0616250038 -0.03205112 0.124735922
v -0.0616250038 -0.03201965 0.124733031
v -0.0616250038 -0.03198746 0.124723777
v -0.0616250038 -0.03195648 0.124707729
v -0.0616250038 -0.03201965 0.124392889
v -0.0616250038 -0.03198746 0.124402151
v -0.0616250038 -0.03195648 0.1244182
v -0.0616250038 -0.0319288224 0.124685258
v -0.0616250038 -0.0319063552 0.1246576
v -0.0616250038 -0.0318903066 0.124626622
v -0.0616250038 -0.031881053 0.124594435
v -0.0616250038 -0.0318781659 0.124562964
v -0.0616250038 -0.031881053 0.124531485
v -0.0616250038 -0.0318903066 0.1244993
v -0.0616250038 -0.0319063552 0.124468319
v -0.0616250038 -0.0319288224 0.124440663
v -0.0616250038 -0.0349921323 0.126477361
v -0.0616250038 -0.0348421335 0.126327351
v -0.0616250038 -0.0348421335 0.1260749
v -0.0616250038 -0.03494213 0.1259749
v -0.0616250038 -0.03539213 0.126095966
v -0.0616250038 -0.0354421325 0.126045957
v -0.0616250038 -0.03494213 0.1254732
v -0.0616250038 -0.0354421325 0.125050381
v -0.0616250038 -0.0349404626 0.125455
v -0.0616250038 -0.03493511 0.1254364
v -0.0616250038 -0.03539213 0.128744051
v -0.0616250038 -0.0349921323 0.128826886
v -0.0616250038 -0.0349258333 0.125418484
v -0.0616250038 -0.0350507125 0.128885478
v -0.0616250038 -0.0349128433 0.1254025
v -0.0616250038 -0.0353901275 0.128772289
v -0.0616250038 -0.0348968543 0.1253895
v -0.0616250038 -0.035383895 0.128800854
v -0.0616250038 -0.03537328 0.128828824
v -0.0616250038 -0.0353584252 0.128855169
v -0.0616250038 -0.0348789431 0.125380218
v -0.0616250038 -0.035072092 0.128904015
v -0.0616250038 -0.03533977 0.128878966
v -0.0616250038 -0.035318 0.128899485
v -0.0616250038 -0.03529399 0.128916174
v -0.0616250038 -0.0352686681 0.128928825
v -0.0616250038 -0.0352418162 0.128937781
v -0.0616250038 -0.035096705 0.12891981
v -0.0616250038 -0.0352130346 0.128942952
v -0.0616250038 -0.0351239778 0.128932089
v -0.0616250038 -0.0351831429 0.128943846
v -0.0616250038 -0.0351531133 0.12894021
v -0.0616250038 -0.0348603278 0.125374869
v -0.0616250038 -0.0357566 0.124735922
v -0.0616250038 -0.03538972 0.124390006
v -0.0616250038 -0.0365270451 0.124390006
v -0.0616250038 -0.0365270451 0.124735922
v -0.0616250038 -0.0365585163 0.124392889
v -0.0616250038 -0.03659071 0.124402151
v -0.0616250038 -0.03662169 0.1244182
v -0.0616250038 -0.0365585163 0.124733031
v -0.0616250038 -0.03659071 0.124723777
v -0.0616250038 -0.03662169 0.124707729
v -0.0616250038 -0.0366493464 0.124440663
v -0.0616250038 -0.03667181 0.124468319
v -0.0616250038 -0.03668786 0.1244993
v -0.0616250038 -0.0366971157 0.124531485
v -0.0616250038 -0.0367000028 0.124562964
v -0.0616250038 -0.0366971157 0.124594435
v -0.0616250038 -0.03668786 0.124626622
v -0.0616250038 -0.03667181 0.1246576
v -0.0616250038 -0.0366493464 0.124685258
v -0.0615000054 -0.0335830078 0.127568588
v -0.0616250038 -0.033403106 0.126103386
v -0.0616250038 -0.0337629132 0.129033774
v -0.0613750033 -0.0337629132 0.129033774
v -0.0613750033 -0.033403106 0.126103386
v -0.0615000054 -0.0333743952 0.126074672
v -0.0616250038 -0.03334568 0.126045957
v -0.0616250038 -0.033403106 0.126103386
v -0.0613750033 -0.033403106 0.126103386
v -0.0613750033 -0.03334568 0.126045957
v -0.0615000054 -0.03334568 0.125548169
v -0.0616250038 -0.03334568 0.125050381
v -0.0616250038 -0.03334568 0.126045957
v -0.0613750033 -0.03334568 0.126045957
v -0.0613750033 -0.03334568 0.125050381
v -0.0615000054 -0.0331884474 0.124893151
v -0.0616250038 -0.033031214 0.124735922
v -0.0616250038 -0.03334568 0.125050381
v -0.0613750033 -0.03334568 0.125050381
v -0.0613750033 -0.033031214 0.124735922
v -0.0615000054 -0.032541167 0.124735922
v -0.0616250038 -0.03205112 0.124735922
v -0.0616250038 -0.033031214 0.124735922
v -0.0613750033 -0.033031214 0.124735922
v -0.0613750033 -0.03205112 0.124735922
v -0.0615000054 -0.0327246077 0.124390006
v -0.0616250038 -0.03339809 0.124390006
v -0.0616250038 -0.03205112 0.124390006
v -0.0613750033 -0.03205112 0.124390006
v -0.0613750033 -0.03339809 0.124390006
v -0.0615000054 -0.033415 0.124442413
v -0.0616250038 -0.0334319137 0.124494828
v -0.0616250038 -0.03339809 0.124390006
v -0.0613750033 -0.03339809 0.124390006
v -0.0613750033 -0.0334319137 0.124494828
v -0.0615000054 -0.0343805552 0.124494828
v -0.0616250038 -0.0353292 0.124494828
v -0.0616250038 -0.0334319137 0.124494828
v -0.0613750033 -0.0334319137 0.124494828
v -0.0613750033 -0.0353292 0.124494828
v -0.0615000054 -0.0355993658 0.124893151
v -0.0616250038 -0.0354421325 0.125050381
v -0.0616250038 -0.0357566 0.124735922
v -0.0613750033 -0.0357566 0.124735922
v -0.0613750033 -0.0354421325 0.125050381
v -0.0615000054 -0.0354421325 0.125548169
v -0.0616250038 -0.0354421325 0.126045957
v -0.0616250038 -0.0354421325 0.125050381
v -0.0613750033 -0.0354421325 0.125050381
v -0.0613750033 -0.0354421325 0.126045957
v -0.0615000054 -0.0354171321 0.126070961
v -0.0616250038 -0.03539213 0.126095966
v -0.0616250038 -0.0354421325 0.126045957
v -0.0613750033 -0.0354421325 0.126045957
v -0.0613750033 -0.03539213 0.126095966
v -0.0615000054 -0.03539213 0.127420008
v -0.0616250038 -0.03539213 0.128744051
v -0.0616250038 -0.03539213 0.126095966
v -0.0613750033 -0.03539213 0.126095966
v -0.0613750033 -0.03539213 0.128744051
v -0.0615000054 -0.03502142 0.128856182
v -0.0616250038 -0.0349921323 0.128826886
v -0.0616250038 -0.0350507125 0.128885478
v -0.0613750033 -0.0350507125 0.128885478
v -0.0613750033 -0.0349921323 0.128826886
v -0.0615000054 -0.0349921323 0.127652124
v -0.0616250038 -0.0349921323 0.126477361
v -0.0616250038 -0.0349921323 0.128826886
v -0.0613750033 -0.0349921323 0.128826886
v -0.0613750033 -0.0349921323 0.126477361
v -0.0615000054 -0.03491713 0.126402363
v -0.0616250038 -0.0348421335 0.126327351
v -0.0616250038 -0.0349921323 0.126477361
v -0.0613750033 -0.0349921323 0.126477361
v -0.0613750033 -0.0348421335 0.126327351
v -0.0615000054 -0.0348421335 0.126201123
v -0.0616250038 -0.0348421335 0.1260749
v -0.0616250038 -0.0348421335 0.126327351
v -0.0613750033 -0.0348421335 0.126327351
v -0.0613750033 -0.0348421335 0.1260749
v -0.0615000054 -0.03489213 0.1260249
v -0.0616250038 -0.03494213 0.1259749
v -0.0616250038 -0.0348421335 0.1260749
v -0.0613750033 -0.0348421335 0.1260749
v -0.0613750033 -0.03494213 0.1259749
v -0.0613750033 -0.03494213 0.1254732
v -0.0615000054 -0.03494213 0.125724047
v -0.0613750033 -0.03494213 0.1259749
v -0.0616250038 -0.03494213 0.1259749
v -0.0616250038 -0.03494213 0.1254732
v -0.0615000054 -0.0349404626 0.125455
v -0.0613750033 -0.0349404626 0.125455
v -0.0616250038 -0.0349404626 0.125455
v -0.0613750033 -0.03493511 0.1254364
v -0.0615000054 -0.03493511 0.1254364
v -0.0616250038 -0.03493511 0.1254364
v -0.0613750033 -0.0349258333 0.125418484
v -0.0615000054 -0.0349258333 0.125418484
v -0.0616250038 -0.0349258333 0.125418484
v -0.0613750033 -0.0349128433 0.1254025
v -0.0615000054 -0.0349128433 0.1254025
v -0.0616250038 -0.0349128433 0.1254025
v -0.0613750033 -0.0348968543 0.1253895
v -0.0615000054 -0.0348968543 0.1253895
v -0.0616250038 -0.0348968543 0.1253895
v -0.0613750033 -0.0348789431 0.125380218
v -0.0615000054 -0.0348789431 0.125380218
v -0.0616250038 -0.0348789431 0.125380218
v -0.0613750033 -0.0348603278 0.125374869
v -0.0615000054 -0.0348603278 0.125374869
v -0.0616250038 -0.0348603278 0.125374869
v -0.0613750033 -0.0348421335 0.1253732
v -0.0616250038 -0.0348421335 0.1253732
v -0.0615000054 -0.0345538259 0.1253732
v -0.0616250038 -0.0342655219 0.1253732
v -0.0616250038 -0.0348421335 0.1253732
v -0.0613750033 -0.0348421335 0.1253732
v -0.0613750033 -0.0342655219 0.1253732
v -0.0616250038 -0.03416552 0.1254732
v -0.0615000054 -0.03416719 0.125455
v -0.0613750033 -0.03416552 0.1254732
v -0.0616250038 -0.03416719 0.125455
v -0.0613750033 -0.03416719 0.125455
v -0.0616250038 -0.0341725424 0.1254364
v -0.0615000054 -0.0341725424 0.1254364
v -0.0613750033 -0.0341725424 0.1254364
v -0.0616250038 -0.0341818221 0.125418484
v -0.0615000054 -0.0341818221 0.125418484
v -0.0613750033 -0.0341818221 0.125418484
v -0.0616250038 -0.03419481 0.1254025
v -0.0615000054 -0.03419481 0.1254025
v -0.0613750033 -0.03419481 0.1254025
v -0.0616250038 -0.0342108 0.1253895
v -0.0615000054 -0.0342108 0.1253895
v -0.0613750033 -0.0342108 0.1253895
v -0.0616250038 -0.0342287123 0.125380218
v -0.0615000054 -0.0342287123 0.125380218
v -0.0613750033 -0.0342287123 0.125380218
v -0.0616250038 -0.0342473239 0.125374869
v -0.0615000054 -0.0342473239 0.125374869
v -0.0613750033 -0.0342473239 0.125374869
v -0.0616250038 -0.0342655219 0.1253732
v -0.0613750033 -0.0342655219 0.1253732
v -0.0615000054 -0.03416552 0.125725672
v -0.0616250038 -0.03416552 0.125978142
v -0.0616250038 -0.03416552 0.1254732
v -0.0613750033 -0.03416552 0.1254732
v -0.0613750033 -0.03416552 0.125978142
v -0.0615000054 -0.0341802277 0.125998482
v -0.0613750033 -0.03416552 0.125978142
v -0.0613750033 -0.0341802277 0.125998482
v -0.0616250038 -0.03416552 0.125978142
v -0.0613750033 -0.03419178 0.126022145
v -0.0616250038 -0.0341802277 0.125998482
v -0.0615000054 -0.03419178 0.126022145
v -0.0613750033 -0.0341991819 0.126048326
v -0.0616250038 -0.03419178 0.126022145
v -0.0615000054 -0.0341991819 0.126048326
v -0.0613750033 -0.0342017338 0.126075879
v -0.0616250038 -0.0341991819 0.126048326
v -0.0615000054 -0.0342017338 0.126075879
v -0.0613750033 -0.0341991819 0.126103431
v -0.0616250038 -0.0342017338 0.126075879
v -0.0615000054 -0.0341991819 0.126103431
v -0.0613750033 -0.03419178 0.126129612
v -0.0616250038 -0.0341991819 0.126103431
v -0.0615000054 -0.03419178 0.126129612
v -0.0613750033 -0.0341802277 0.126153275
v -0.0616250038 -0.03419178 0.126129612
v -0.0615000054 -0.0341802277 0.126153275
v -0.0613750033 -0.03416552 0.126173615
v -0.0616250038 -0.0341802277 0.126153275
v -0.0616250038 -0.03416552 0.126173615
v -0.0615000054 -0.0340120643 0.126352265
v -0.0616250038 -0.0338586047 0.126530915
v -0.0616250038 -0.03416552 0.126173615
v -0.0613750033 -0.03416552 0.126173615
v -0.0613750033 -0.0338586047 0.126530915
v -0.0615000054 -0.0339710377 0.127446622
v -0.0616250038 -0.0340834744 0.128362328
v -0.0616250038 -0.0338586047 0.126530915
v -0.0613750033 -0.0338586047 0.126530915
v -0.0613750033 -0.0340834744 0.128362328
v -0.0615000054 -0.0341093168 0.128390223
v -0.0613750033 -0.0340834744 0.128362328
v -0.0613750033 -0.0341093168 0.128390223
v -0.0616250038 -0.0340834744 0.128362328
v -0.0613750033 -0.0341310278 0.128423661
v -0.0616250038 -0.0341093168 0.128390223
v -0.0615000054 -0.0341310278 0.128423661
v -0.0613750033 -0.034146972 0.128461644
v -0.0616250038 -0.0341310278 0.128423661
v -0.0615000054 -0.034146972 0.128461644
v -0.0613750033 -0.03415589 0.128502578
v -0.0616250038 -0.034146972 0.128461644
v -0.0615000054 -0.03415589 0.128502578
v -0.0613750033 -0.034157142 0.128544465
v -0.0616250038 -0.03415589 0.128502578
v -0.0615000054 -0.034157142 0.128544465
v -0.0613750033 -0.03415086 0.128585175
v -0.0616250038 -0.034157142 0.128544465
v -0.0615000054 -0.03415086 0.128585175
v -0.0613750033 -0.034137886 0.128622875
v -0.0616250038 -0.03415086 0.128585175
v -0.0615000054 -0.034137886 0.128622875
v -0.0613750033 -0.0341195539 0.1286562
v -0.0616250038 -0.034137886 0.128622875
v -0.0616250038 -0.0341195539 0.1286562
v -0.0613750033 -0.03385418 0.129055366
v -0.0615000054 -0.0339868665 0.12885578
v -0.0613750033 -0.0341195539 0.1286562
v -0.0616250038 -0.03385418 0.129055351
v -0.0616250038 -0.0341195539 0.1286562
v -0.0615000054 -0.03535946 0.124442413
v -0.0616250038 -0.03538972 0.124390006
v -0.0616250038 -0.0353292 0.124494828
v -0.0613750033 -0.0353292 0.124494828
v -0.0613750033 -0.03538972 0.124390006
v -0.0615000054 -0.036141824 0.124735922
v -0.0616250038 -0.0365270451 0.124735922
v -0.0613750033 -0.0365270451 0.124735922
v -0.0613750033 -0.0357566 0.124735922
v -0.0616250038 -0.0357566 0.124735922
v -0.0615000054 -0.0359583832 0.124390006
v -0.0616250038 -0.0365270451 0.124390006
v -0.0616250038 -0.03538972 0.124390006
v -0.0613750033 -0.03538972 0.124390006
v -0.0613750033 -0.0365270451 0.124390006
f 1 2 3
f 1 3 4
f 5 1 4
f 4 3 6
f 7 5 4
f 8 4 6
f 7 4 8
f 8 6 9
f 10 7 8
f 11 8 9
f 10 8 11
f 11 9 12
f 13 10 11
f 14 11 12
f 13 11 14
f 14 12 15
f 16 13 14
f 17 14 15
f 16 14 17
f 17 15 18
f 19 16 17
f 20 17 18
f 19 17 20
f 20 18 21
f 22 20 21
f 23 19 20
f 23 20 22
f 22 21 24
f 25 23 22
f 26 22 24
f 27 25 22
f 28 22 26
f 27 22 28
f 29 28 26
f 30 27 28
f 31 28 29
f 31 30 28
f 32 31 29
f 31 32 30
f 32 29 33
f 32 34 30
f 35 32 33
f 32 35 34
f 35 33 36
f 35 37 34
f 38 35 36
f 35 38 37
f 38 36 39
f 38 40 37
f 41 38 39
f 38 41 40
f 41 39 42
f 41 43 40
f 44 41 42
f 41 44 43
f 44 42 45
f 44 46 43
f 47 44 45
f 44 47 46
f 47 45 48
f 47 49 46
f 49 47 48
f 50 51 52
f 50 52 53
f 54 50 53
f 53 52 55
f 56 54 53
f 57 53 55
f 56 53 57
f 57 55 58
f 59 56 57
f 60 57 58
f 59 57 60
f 60 58 61
f 62 59 60
f 63 60 61
f 62 60 63
f 63 61 64
f 65 62 63
f 66 63 64
f 65 63 66
f 66 64 67
f 68 65 66
f 69 66 67
f 68 66 69
f 69 67 70
f 71 69 70
f 72 68 69
f 72 69 71
f 71 70 73
f 74 72 71
f 75 71 73
f 76 74 71
f 77 71 75
f 76 71 77
f 78 77 75
f 79 76 77
f 80 77 78
f 80 79 77
f 81 80 78
f 80 81 79
f 81 78 82
f 81 83 79
f 84 81 82
f 81 84 83
f 84 82 85
f 84 86 83
f 87 84 85
f 84 87 86
f 87 85 88
f 87 89 86
f 90 87 88
f 87 90 89
f 90 88 91
f 90 92 89
f 93 90 91
f 90 93 92
f 93 91 94
f 93 95 92
f 96 93 94
f 93 96 95
f 96 94 97
f 96 98 95
f 98 96 97
f 99 100 101
f 102 99 101
f 102 101 103
f 104 102 103
f 104 103 105
f 106 104 105
f 107 106 105
f 108 107 105
f 109 108 105
f 110 109 105
f 111 110 105
f 112 111 105
f 112 105 113
f 114 112 113
f 115 114 113
f 115 113 116
f 117 115 116
f 117 116 118
f 115 117 119
f 120 117 118
f 118 121 120
f 121 122 120
f 121 123 122
f 123 124 122
f 123 125 124
f 117 126 119
f 126 127 119
f 127 128 119
f 127 129 128
f 119 128 130
f 129 131 128
f 128 132 130
f 132 133 130
f 132 134 133
f 129 135 131
f 135 136 131
f 135 137 136
f 137 138 136
f 137 139 138
f 134 140 133
f 140 141 133
f 141 142 133
f 142 143 133
f 143 144 133
f 144 145 133
f 144 146 145
f 146 147 145
f 133 145 148
f 145 149 148
f 149 150 148
f 147 151 145
f 150 152 148
f 147 153 151
f 150 154 152
f 154 155 152
f 155 156 152
f 156 157 152
f 156 158 157
f 158 156 159
f 156 160 159
f 160 161 159
f 161 162 159
f 162 163 159
f 163 164 159
f 164 165 159
f 165 166 159
f 166 167 159
f 167 168 159
f 169 170 171
f 172 169 171
f 173 172 171
f 174 173 171
f 175 174 171
f 176 175 171
f 177 176 171
f 178 177 171
f 179 178 171
f 179 171 180
f 181 179 180
f 181 182 179
f 182 183 179
f 182 184 183
f 184 182 185
f 182 186 185
f 186 182 187
f 186 187 151
f 188 186 151
f 189 188 151
f 189 190 188
f 153 189 151
f 190 191 188
f 191 192 188
f 192 193 188
f 193 194 188
f 194 195 188
f 195 196 188
f 196 197 188
f 196 198 197
f 198 199 197
f 198 200 199
f 200 198 201
f 202 200 201
f 200 203 199
f 200 204 203
f 204 205 203
f 205 206 203
f 205 207 206
f 207 208 206
f 208 209 206
f 209 210 206
f 210 211 206
f 211 212 206
f 212 213 206
f 213 214 206
f 214 215 206
f 215 216 206
f 215 217 216
f 217 218 216
f 217 219 218
f 219 217 220
f 221 222 223
f 222 224 223
f 223 224 225
f 222 226 224
f 224 227 225
f 226 228 224
f 224 228 227
f 226 229 228
f 228 230 227
f 229 231 228
f 228 231 230
f 229 232 231
f 231 233 230
f 232 234 231
f 231 234 233
f 232 235 234
f 234 236 233
f 235 237 234
f 234 237 236
f 235 238 237
f 237 239 236
f 238 240 237
f 237 240 239
f 238 241 240
f 241 242 240
f 240 243 239
f 240 242 243
f 241 244 242
f 242 245 243
f 244 246 242
f 242 247 245
f 246 248 242
f 242 248 247
f 246 249 248
f 249 250 248
f 248 251 247
f 248 250 251
f 249 252 250
f 250 253 251
f 252 254 250
f 250 255 253
f 254 256 250
f 250 256 255
f 254 257 256
f 257 258 256
f 256 259 255
f 256 258 259
f 257 260 258
f 258 261 259
f 260 262 258
f 258 263 261
f 262 264 258
f 264 263 258
f 264 265 263
f 266 267 268
f 267 269 268
f 268 269 270
f 267 271 269
f 269 272 270
f 271 273 269
f 269 273 272
f 271 274 273
f 273 275 272
f 274 276 273
f 273 276 275
f 274 277 276
f 276 278 275
f 277 279 276
f 276 279 278
f 277 280 279
f 279 281 278
f 280 282 279
f 279 282 281
f 280 283 282
f 282 284 281
f 283 285 282
f 282 285 284
f 283 286 285
f 286 287 285
f 285 288 284
f 285 287 288
f 286 289 287
f 287 290 288
f 289 291 287
f 287 292 290
f 291 293 287
f 287 293 292
f 291 294 293
f 293 295 292
f 294 296 293
f 293 296 295
f 294 297 296
f 297 295 296
f 298 297 294
f 297 299 295
f 300 297 298
f 297 300 299
f 301 300 298
f 300 302 299
f 303 300 301
f 300 303 302
f 304 303 301
f 303 305 302
f 306 303 304
f 303 306 305
f 307 306 304
f 306 308 305
f 309 306 307
f 306 309 308
f 310 309 307
f 309 311 308
f 309 310 311
f 310 312 311
f 312 313 311
f 314 315 316
f 317 314 316
f 317 316 318
f 319 317 318
f 319 318 320
f 321 319 320
f 321 320 322
f 323 321 322
f 323 322 324
f 325 323 324
f 326 325 324
f 325 326 327
f 325 327 328
f 323 329 321
f 330 325 328
f 329 331 321
f 325 330 332
f 325 332 333
f 334 325 333
f 325 334 335
f 325 335 336
f 337 325 336
f 336 338 337
f 338 339 337
f 338 340 339
f 340 338 341
f 329 342 331
f 342 329 343
f 329 344 343
f 342 343 345
f 344 346 343
f 344 347 346
f 347 348 346
f 349 342 345
f 345 350 349
f 350 351 349
f 350 352 351
f 352 353 351
f 352 354 353
f 347 355 348
f 355 347 356
f 347 357 356
f 347 358 357
f 358 347 359
f 347 360 359
f 359 360 361
f 360 362 361
f 347 363 360
f 363 364 360
f 360 365 362
f 363 366 364
f 365 367 362
f 366 363 368
f 369 366 368
f 366 369 370
f 366 370 371
f 372 366 371
f 372 371 373
f 371 374 373
f 371 375 374
f 375 376 374
f 376 377 374
f 377 378 374
f 378 379 374
f 379 380 374
f 380 381 374
f 381 382 374
f 382 383 374
f 384 385 386
f 387 384 386
f 388 384 387
f 389 388 387
f 389 387 390
f 391 389 390
f 391 390 392
f 393 391 392
f 388 394 384
f 394 395 384
f 391 393 396
f 394 397 395
f 391 396 398
f 397 394 399
f 400 391 398
f 401 397 399
f 397 401 402
f 397 402 403
f 391 400 404
f 405 397 403
f 405 403 406
f 405 406 407
f 408 405 407
f 405 408 409
f 405 409 410
f 411 405 410
f 410 412 411
f 412 413 411
f 412 414 413
f 414 415 413
f 391 404 416
f 365 391 416
f 365 416 367
f 391 365 417
f 365 418 417
f 418 419 417
f 419 420 417
f 419 421 420
f 421 422 420
f 422 423 420
f 423 424 420
f 423 425 424
f 425 423 426
f 423 427 426
f 427 428 426
f 428 429 426
f 429 430 426
f 430 431 426
f 431 432 426
f 432 433 426
f 433 434 426
f 434 435 426
f 436 437 438
f 436 438 439
f 437 436 440
f 440 436 439
f 441 442 443
f 441 443 444
f 442 441 445
f 445 441 444
f 446 447 448
f 446 448 449
f 447 446 450
f 450 446 449
f 451 452 453
f 451 453 454
f 452 451 455
f 455 451 454
f 456 457 458
f 456 458 459
f 457 456 460
f 460 456 459
f 461 462 463
f 461 463 464
f 462 461 465
f 465 461 464
f 466 467 468
f 466 468 469
f 467 466 470
f 470 466 469
f 471 472 473
f 471 473 474
f 472 471 475
f 475 471 474
f 476 477 478
f 476 478 479
f 477 476 480
f 480 476 479
f 481 482 483
f 481 483 484
f 482 481 485
f 485 481 484
f 486 487 488
f 486 488 489
f 487 486 490
f 490 486 489
f 491 492 493
f 491 493 494
f 492 491 495
f 495 491 494
f 496 497 498
f 496 498 499
f 497 496 500
f 500 496 499
f 501 502 503
f 501 503 504
f 502 501 505
f 505 501 504
f 506 507 508
f 506 508 509
f 507 506 510
f 510 506 509
f 511 512 513
f 511 513 514
f 512 511 515
f 515 511 514
f 516 517 518
f 516 518 519
f 517 516 520
f 520 516 519
f 521 522 523
f 522 524 523
f 522 525 524
f 525 522 521
f 526 525 521
f 527 526 521
f 526 528 525
f 526 527 529
f 526 530 528
f 530 526 529
f 530 531 528
f 530 529 532
f 530 533 531
f 533 530 532
f 533 534 531
f 533 532 535
f 533 536 534
f 536 533 535
f 536 537 534
f 536 535 538
f 536 539 537
f 539 536 538
f 539 540 537
f 539 538 541
f 539 542 540
f 542 539 541
f 542 543 540
f 542 541 544
f 542 545 543
f 545 542 544
f 545 546 543
f 545 544 547
f 545 548 546
f 548 545 547
f 549 550 551
f 549 551 552
f 550 549 553
f 553 549 552
f 554 555 556
f 555 554 557
f 555 558 556
f 555 557 559
f 555 560 558
f 560 555 559
f 560 561 558
f 560 559 562
f 560 563 561
f 563 560 562
f 563 564 561
f 563 562 565
f 563 566 564
f 566 563 565
f 566 567 564
f 566 565 568
f 566 569 567
f 569 566 568
f 569 570 567
f 569 568 571
f 569 572 570
f 572 569 571
f 572 573 570
f 572 571 574
f 572 575 573
f 575 572 574
f 575 576 573
f 575 574 577
f 576 575 578
f 575 577 578
f 579 580 581
f 579 581 582
f 580 579 583
f 583 579 582
f 584 585 586
f 585 584 587
f 584 586 588
f 584 589 587
f 590 584 588
f 584 590 589
f 590 588 591
f 590 592 589
f 593 590 591
f 590 593 592
f 593 591 594
f 593 595 592
f 596 593 594
f 593 596 595
f 596 594 597
f 596 598 595
f 599 596 597
f 596 599 598
f 599 597 600
f 599 601 598
f 602 599 600
f 599 602 601
f 602 600 603
f 602 604 601
f 605 602 603
f 602 605 604
f 605 603 606
f 605 607 604
f 608 605 606
f 605 608 607
f 609 610 611
f 609 611 612
f 610 609 613
f 613 609 612
f 614 615 616
f 614 616 617
f 615 614 618
f 618 614 617
f 619 620 621
f 620 619 622
f 619 621 623
f 619 624 622
f 625 619 623
f 619 625 624
f 625 623 626
f 625 627 624
f 628 625 626
f 625 628 627
f 628 626 629
f 628 630 627
f 631 628 629
f 628 631 630
f 631 629 632
f 631 633 630
f 634 631 632
f 631 634 633
f 634 632 635
f 634 636 633
f 637 634 635
f 634 637 636
f 637 635 638
f 637 639 636
f 640 637 638
f 637 640 639
f 640 638 641
f 640 642 639
f 643 640 641
f 640 643 642
f 644 645 646
f 647 645 644
f 645 648 646
f 645 647 648
f 649 650 651
f 649 651 652
f 650 649 653
f 653 649 652
f 654 655 656
f 657 654 656
f 654 658 655
f 658 654 657
f 659 660 661
f 659 661 662
f 660 659 663
f 663 659 662
