# ROS coordinates: X forward, Y left, Z up; units are metres.
o mesh
v -0.0223270264 0.0178160332 0.13177
v -0.0221770257 0.0179660358 0.13177
v -0.022477027 0.0179660358 0.13177
v -0.022477027 0.0176660344 0.13177
v -0.0221770257 0.0176660344 0.13177
v -0.0223270264 0.0178160332 0.12077
v -0.0221770257 0.0176660344 0.12077
v -0.022477027 0.0176660344 0.12077
v -0.022477027 0.0179660358 0.12077
v -0.0221770257 0.0179660358 0.12077
v -0.0220220257 0.0178160332 0.12627
v -0.0220220257 0.0181210339 0.121656552
v -0.0220220257 0.0181210339 0.130883455
v -0.0220220257 0.0175110325 0.130883455
v -0.0220220257 0.0175110325 0.121656552
v -0.0223270264 0.0181210339 0.12627
v -0.022632027 0.0181210339 0.121656552
v -0.022632027 0.0181210339 0.130883455
v -0.0220220257 0.0181210339 0.130883455
v -0.0220220257 0.0181210339 0.121656552
v -0.0223270264 0.0175885335 0.12121328
v -0.022477027 0.0176660344 0.12077
v -0.0221770257 0.0176660344 0.12077
v -0.0220220257 0.0175110325 0.121656552
v -0.022632027 0.0175110325 0.121656552
v -0.0220995266 0.0178160332 0.12121328
v -0.0221770257 0.0179660358 0.12077
v -0.0220220257 0.0181210339 0.121656552
v -0.0220220257 0.0175110325 0.121656552
v -0.0221770257 0.0176660344 0.12077
v -0.0223270264 0.018043533 0.12121328
v -0.022477027 0.0179660358 0.12077
v -0.022632027 0.0181210339 0.121656552
v -0.0220220257 0.0181210339 0.121656552
v -0.0221770257 0.0179660358 0.12077
v -0.022632027 0.0181210339 0.121656552
v -0.0225545261 0.0178160332 0.12121328
v -0.022632027 0.0175110325 0.121656552
v -0.022477027 0.0179660358 0.12077
v -0.022477027 0.0176660344 0.12077
v -0.0223270264 0.0175110325 0.12627
v -0.0220220257 0.0175110325 0.130883455
v -0.022632027 0.0175110325 0.130883455
v -0.022632027 0.0175110325 0.121656552
v -0.0220220257 0.0175110325 0.121656552
v -0.022632027 0.0178160332 0.12627
v -0.022632027 0.0175110325 0.130883455
v -0.022632027 0.0181210339 0.130883455
v -0.022632027 0.0181210339 0.121656552
v -0.022632027 0.0175110325 0.121656552
v -0.0223270264 0.0175885335 0.131326735
v -0.022632027 0.0175110325 0.130883455
v -0.0220220257 0.0175110325 0.130883455
v -0.0221770257 0.0176660344 0.13177
v -0.022477027 0.0176660344 0.13177
v -0.0220995266 0.0178160332 0.131326735
v -0.0220220257 0.0181210339 0.130883455
v -0.0221770257 0.0179660358 0.13177
v -0.0221770257 0.0176660344 0.13177
v -0.0220220257 0.0175110325 0.130883455
v -0.0223270264 0.018043533 0.131326735
v -0.022632027 0.0181210339 0.130883455
v -0.022477027 0.0179660358 0.13177
v -0.0221770257 0.0179660358 0.13177
v -0.0220220257 0.0181210339 0.130883455
v -0.022477027 0.0179660358 0.13177
v -0.0225545261 0.0178160332 0.131326735
v -0.022477027 0.0176660344 0.13177
v -0.022632027 0.0181210339 0.130883455
v -0.022632027 0.0175110325 0.130883455
f 1 2 3
f 1 3 4
f 2 1 5
f 5 1 4
f 6 7 8
f 6 8 9
f 7 6 10
f 10 6 9
f 11 12 13
f 11 13 14
f 12 11 15
f 15 11 14
f 16 17 18
f 16 18 19
f 17 16 20
f 20 16 19
f 21 22 23
f 21 23 24
f 22 21 25
f 25 21 24
f 26 27 28
f 29 26 28
f 26 30 27
f 30 26 29
f 31 32 33
f 34 31 33
f 31 35 32
f 35 31 34
f 36 37 38
f 39 37 36
f 37 40 38
f 37 39 40
f 41 42 43
f 44 41 43
f 41 45 42
f 45 41 44
f 46 47 48
f 49 46 48
f 46 50 47
f 50 46 49
f 51 52 53
f 51 53 54
f 52 51 55
f 55 51 54
f 56 57 58
f 59 56 58
f 56 60 57
f 60 56 59
f 61 62 63
f 64 61 63
f 61 65 62
f 65 61 64
f 66 67 68
f 69 67 66
f 67 70 68
f 67 69 70
