# ROS coordinates: X forward, Y left, Z up; units are metres.
o mesh
v -0.129990071 0.0345000029 0.0289989263
v -0.129990071 0.0385 0.0289989263
v -0.130086049 0.0385 0.0285595637
v -0.130086049 0.0345000029 0.0285595637
v -0.130131215 0.0365000032 0.0282320287
v -0.130143344 0.0345000029 0.0280982424
v -0.130143344 0.0385 0.0280982424
v -0.130157337 0.0345000029 0.0276197679
v -0.130157337 0.0385 0.0276197679
v -0.130149052 0.0365000032 0.02741089
v -0.130124092 0.0345000029 0.0271300711
v -0.130124092 0.0385 0.0271300711
v -0.130105481 0.0365000032 0.026989039
v -0.13004081 0.0345000029 0.0266360417
v -0.13004081 0.0385 0.0266360417
v -0.130024716 0.0365000032 0.02656555
v -0.129906029 0.0345000029 0.0261453055
v -0.129906029 0.0385 0.0261453055
v -0.129906029 0.0365000032 0.0261453055
v -0.129749537 0.0365000032 0.0257333573
v -0.129719839 0.0345000029 0.0256658625
v -0.129719839 0.0385 0.0256658625
v -0.129556283 0.0365000032 0.0253347568
v -0.129484 0.0345000029 0.0252057016
v -0.129484 0.0385 0.0252057016
v -0.129328191 0.0365000032 0.02495434
v -0.1292019 0.0345000029 0.0247723572
v -0.1292019 0.0385 0.0247723572
v -0.129068 0.0365000032 0.0245965421
v -0.1288784 0.0345000029 0.0243725087
v -0.1288784 0.0385 0.0243725087
v -0.128779188 0.0365000032 0.0242652223
v -0.12851955 0.0345000029 0.0240116566
v -0.12851955 0.0385 0.0240116566
v -0.1284658 0.0365000032 0.0239635427
v -0.128132254 0.0345000029 0.023693854
v -0.128132254 0.0385 0.023693854
v -0.128132254 0.0365000032 0.023693854
v -0.1277832 0.0365000032 0.0234576687
v -0.127723828 0.0345000029 0.0234216228
v -0.127723828 0.0385 0.0234216228
v -0.127423286 0.0365000032 0.02325568
v -0.1273017 0.0345000029 0.02319595
v -0.1273017 0.0385 0.02319595
v -0.12693432 0.0365000032 0.0230392776
v -0.126872912 0.0345000029 0.0230164
v -0.126443937 0.0365000032 0.0228813272
v -0.126872912 0.0385 0.0230164
v -0.126443937 0.0345000029 0.0228813272
v -0.126443937 0.0385 0.0228813272
v -0.126004577 0.0345000029 0.0227853432
v -0.126004577 0.0385 0.0227853432
v -0.125939921 0.0365000032 0.022774674
v -0.125543267 0.0345000029 0.0227280352
v -0.125543267 0.0385 0.0227280352
v -0.125408053 0.0365000032 0.0227194354
v -0.12506479 0.0345000029 0.0227140617
v -0.12506479 0.0385 0.0227140617
v -0.124855906 0.0365000032 0.0227223337
v -0.124575086 0.0345000029 0.0227473043
v -0.124575086 0.0385 0.0227473043
v -0.124292836 0.0365000032 0.022788642
v -0.12408106 0.0345000029 0.02283059
v -0.12408106 0.0385 0.02283059
v -0.123729736 0.0365000032 0.0229215827
v -0.12359032 0.0345000029 0.0229653716
v -0.12359032 0.0385 0.0229653716
v -0.12317837 0.0365000032 0.0231218617
v -0.123110875 0.0345000029 0.02315156
v -0.122650713 0.0365000032 0.0233873911
v -0.123110875 0.0385 0.02315156
v -0.122650713 0.0345000029 0.0233873911
v -0.122650713 0.0385 0.0233873911
v -0.12221738 0.0345000029 0.0236694869
v -0.12221738 0.0385 0.0236694869
v -0.122158051 0.0365000032 0.0237132963
v -0.121817522 0.0345000029 0.02399299
v -0.121817522 0.0385 0.02399299
v -0.121710233 0.0365000032 0.0240921974
v -0.121456675 0.0345000029 0.024351839
v -0.121456675 0.0385 0.024351839
v -0.121315017 0.0365000032 0.0245147645
v -0.121138878 0.0345000029 0.02473914
v -0.121138878 0.0385 0.02473914
v -0.12097764 0.0365000032 0.0249704123
v -0.120866634 0.0345000029 0.0251475535
v -0.120866634 0.0385 0.0251475535
v -0.120700687 0.0365000032 0.0254481
v -0.120640978 0.0345000029 0.0255696923
v -0.120640978 0.0385 0.0255696923
v -0.120484293 0.0365000032 0.0259370748
v -0.120461427 0.0385 0.0259984862
v -0.120461427 0.0345000029 0.0259984862
v -0.120326348 0.0385 0.02642745
v -0.120326348 0.0345000029 0.02642745
v -0.120230354 0.0385 0.0268668141
v -0.120230354 0.0345000029 0.0268668141
v -0.120185204 0.0365000032 0.0271943472
v -0.120173052 0.0385 0.0273281336
v -0.120173052 0.0345000029 0.0273281336
v -0.120159082 0.0385 0.0278066061
v -0.120159082 0.0345000029 0.0278066061
v -0.120167352 0.0365000032 0.028015485
v -0.120192319 0.0385 0.028296303
v -0.120192319 0.0345000029 0.028296303
v -0.120210916 0.0365000032 0.0284373369
v -0.120275609 0.0385 0.0287903361
v -0.120275609 0.0345000029 0.0287903361
v -0.1202917 0.0365000032 0.028860826
v -0.12041039 0.0385 0.0292810723
v -0.12041039 0.0345000029 0.0292810723
v -0.12041039 0.0365000032 0.0292810723
v -0.120566875 0.0365000032 0.0296930186
v -0.12059658 0.0385 0.0297605135
v -0.12059658 0.0345000029 0.0297605135
v -0.120760128 0.0365000032 0.03009162
v -0.120832406 0.0385 0.0302206744
v -0.120832406 0.0345000029 0.0302206744
v -0.12098822 0.0365000032 0.0304720365
v -0.121114507 0.0385 0.0306540187
v -0.121114507 0.0345000029 0.0306540187
v -0.1212484 0.0365000032 0.0308298338
v -0.121438 0.0385 0.0310538635
v -0.121438 0.0345000029 0.0310538635
v -0.121537216 0.0365000032 0.03116115
v -0.121796846 0.0385 0.03141472
v -0.121796846 0.0345000029 0.03141472
v -0.12185061 0.0365000032 0.03146283
v -0.122184157 0.0385 0.031732522
v -0.122184157 0.0345000029 0.031732522
v -0.122184157 0.0365000032 0.031732522
v -0.122533217 0.0365000032 0.0319687054
v -0.122592568 0.0385 0.03200475
v -0.122592568 0.0345000029 0.03200475
v -0.122893117 0.0365000032 0.032170698
v -0.123014711 0.0385 0.0322304256
v -0.123014711 0.0345000029 0.0322304256
v -0.123382092 0.0365000032 0.0323870964
v -0.1234435 0.0385 0.0324099734
v -0.123872466 0.0365000032 0.03254505
v -0.1234435 0.0345000029 0.0324099734
v -0.123872466 0.0385 0.03254505
v -0.123872466 0.0345000029 0.03254505
v -0.124311835 0.0385 0.0326410346
v -0.124311835 0.0345000029 0.0326410346
v -0.124376483 0.0365000032 0.0326517
v -0.124773152 0.0385 0.03269834
v -0.124773152 0.0345000029 0.03269834
v -0.12490835 0.0365000032 0.0327069424
v -0.125251621 0.0385 0.032712318
v -0.125251621 0.0345000029 0.032712318
v -0.125460491 0.0365000032 0.03270404
v -0.125741333 0.0385 0.03267907
v -0.125741333 0.0345000029 0.03267907
v -0.126023561 0.0365000032 0.032637734
v -0.126235351 0.0385 0.0325957835
v -0.126235351 0.0345000029 0.0325957835
v -0.126586676 0.0365000032 0.0325047933
v -0.126726091 0.0385 0.0324610025
v -0.126726091 0.0345000029 0.0324610025
v -0.127138034 0.0365000032 0.0323045142
v -0.127205536 0.0385 0.03227482
v -0.127665684 0.0365000032 0.032038983
v -0.127205536 0.0345000029 0.03227482
v -0.127665684 0.0385 0.032038983
v -0.127665684 0.0345000029 0.032038983
v -0.128099039 0.0385 0.0317568853
v -0.128099039 0.0345000029 0.0317568853
v -0.128158346 0.0365000032 0.03171308
v -0.128498882 0.0385 0.0314333849
v -0.128498882 0.0345000029 0.0314333849
v -0.12860617 0.0365000032 0.0313341767
v -0.128859743 0.0385 0.031074537
v -0.128859743 0.0345000029 0.031074537
v -0.1290014 0.0365000032 0.0309116114
v -0.129177541 0.0385 0.0306872353
v -0.129177541 0.0345000029 0.0306872353
v -0.129338771 0.0365000032 0.0304559637
v -0.12944977 0.0385 0.0302788224
v -0.12944977 0.0345000029 0.0302788224
v -0.129615709 0.0365000032 0.0299782716
v -0.129675448 0.0385 0.0298566818
v -0.129675448 0.0345000029 0.0298566818
v -0.129832119 0.0365000032 0.0294893011
v -0.129854992 0.0385 0.02942789
v -0.129854992 0.0345000029 0.02942789
v -0.129990071 0.0385 0.0289989263
v -0.129990071 0.0345000029 0.0289989263
v -0.126607746 0.0345000029 0.0280989073
v -0.126607746 0.0385 0.0280989073
v -0.126513377 0.0385 0.0283562373
v -0.126495451 0.0365000032 0.0283927117
v -0.126513377 0.0345000029 0.0283562373
v -0.126364008 0.0385 0.0286054015
v -0.126364008 0.0345000029 0.0286054015
v -0.126311153 0.0365000032 0.0286727175
v -0.126160413 0.0385 0.0288292468
v -0.126160413 0.0345000029 0.0288292468
v -0.126058251 0.0365000032 0.0289131533
v -0.125910461 0.0385 0.0290109254
v -0.125910461 0.0345000029 0.0290109254
v -0.125752151 0.0365000032 0.0290905852
v -0.125628576 0.0385 0.0291375332
v -0.125628576 0.0345000029 0.0291375332
v -0.125417814 0.0365000032 0.0291905515
v -0.125333145 0.0385 0.0292029511
v -0.125333145 0.0345000029 0.0292029511
v -0.125083238 0.0365000032 0.0292113125
v -0.125042692 0.0385 0.0292087328
v -0.124772482 0.0365000032 0.0291627441
v -0.125042692 0.0345000029 0.0292087328
v -0.124772482 0.0385 0.0291627441
v -0.124772482 0.0345000029 0.0291627441
v -0.124515153 0.0385 0.0290683582
v -0.124515153 0.0345000029 0.0290683582
v -0.124478675 0.0365000032 0.02905044
v -0.124265991 0.0385 0.028918989
v -0.124265991 0.0345000029 0.028918989
v -0.124265991 0.0365000032 0.028918989
v -0.124071911 0.0365000032 0.0287475772
v -0.124042146 0.0385 0.02871539
v -0.124042146 0.0345000029 0.02871539
v -0.123907208 0.0365000032 0.0285408422
v -0.123860464 0.0385 0.0284654349
v -0.123860464 0.0345000029 0.0284654349
v -0.123780809 0.0365000032 0.028307138
v -0.123733863 0.0385 0.0281835515
v -0.123733863 0.0345000029 0.0281835515
v -0.123698249 0.0365000032 0.0280574784
v -0.123668432 0.0385 0.0278881229
v -0.123668432 0.0345000029 0.0278881229
v -0.123660952 0.0365000032 0.0278038755
v -0.123662658 0.0385 0.0275976732
v -0.123662658 0.0345000029 0.0275976732
v -0.1236663 0.0365000032 0.0275575351
v -0.12370865 0.0385 0.0273274649
v -0.12370865 0.0345000029 0.0273274649
v -0.123803027 0.0385 0.0270701386
v -0.123820946 0.0365000032 0.02703366
v -0.123803027 0.0345000029 0.0270701386
v -0.1239524 0.0385 0.0268209726
v -0.1239524 0.0345000029 0.0268209726
v -0.124005243 0.0365000032 0.02675366
v -0.124156 0.0385 0.0265971273
v -0.124156 0.0345000029 0.0265971273
v -0.124258168 0.0365000032 0.0265132189
v -0.124405958 0.0385 0.0264154486
v -0.124405958 0.0345000029 0.0264154486
v -0.124564253 0.0365000032 0.0263357889
v -0.124687843 0.0385 0.0262888428
v -0.124687843 0.0345000029 0.0262888428
v -0.12489859 0.0365000032 0.0262358245
v -0.124983266 0.0385 0.0262234211
v -0.124983266 0.0345000029 0.0262234211
v -0.125233158 0.0365000032 0.0262150615
v -0.125273719 0.0385 0.0262176432
v -0.125543922 0.0365000032 0.02626363
v -0.125273719 0.0345000029 0.0262176432
v -0.125543922 0.0385 0.02626363
v -0.125543922 0.0345000029 0.02626363
v -0.12580125 0.0385 0.0263580158
v -0.12580125 0.0345000029 0.0263580158
v -0.125837743 0.0365000032 0.0263759326
v -0.126050428 0.0385 0.0265073888
v -0.126050428 0.0345000029 0.0265073888
v -0.126050428 0.0365000032 0.0265073888
v -0.1262445 0.0365000032 0.0266787987
v -0.126274258 0.0385 0.0267109834
v -0.126274258 0.0345000029 0.0267109834
v -0.1264092 0.0365000032 0.0268855318
v -0.126455933 0.0385 0.026960941
v -0.126455933 0.0345000029 0.026960941
v -0.126535609 0.0365000032 0.0271192379
v -0.126582548 0.0385 0.0272428226
v -0.126582548 0.0345000029 0.0272428226
v -0.126618162 0.0365000032 0.0273688976
v -0.126647964 0.0385 0.0275382549
v -0.126647964 0.0345000029 0.0275382549
v -0.126655459 0.0365000032 0.0276224986
v -0.126653746 0.0385 0.0278287027
v -0.126653746 0.0345000029 0.0278287027
v -0.12665011 0.0365000032 0.027868839
v -0.126607746 0.0385 0.0280989073
v -0.126607746 0.0345000029 0.0280989073
v -0.123662658 0.0345000029 0.0275976732
v -0.120173052 0.0345000029 0.0273281336
v -0.120159082 0.0345000029 0.0278066061
v -0.120230354 0.0345000029 0.0268668141
v -0.123668432 0.0345000029 0.0278881229
v -0.120192319 0.0345000029 0.028296303
v -0.120275609 0.0345000029 0.0287903361
v -0.12370865 0.0345000029 0.0273274649
v -0.120326348 0.0345000029 0.02642745
v -0.120461427 0.0345000029 0.0259984862
v -0.123733863 0.0345000029 0.0281835515
v -0.12041039 0.0345000029 0.0292810723
v -0.12059658 0.0345000029 0.0297605135
v -0.123803027 0.0345000029 0.0270701386
v -0.120640978 0.0345000029 0.0255696923
v -0.120866634 0.0345000029 0.0251475535
v -0.123860464 0.0345000029 0.0284654349
v -0.120832406 0.0345000029 0.0302206744
v -0.121114507 0.0345000029 0.0306540187
v -0.1239524 0.0345000029 0.0268209726
v -0.121138878 0.0345000029 0.02473914
v -0.121456675 0.0345000029 0.024351839
v -0.124042146 0.0345000029 0.02871539
v -0.121438 0.0345000029 0.0310538635
v -0.121796846 0.0345000029 0.03141472
v -0.124156 0.0345000029 0.0265971273
v -0.121817522 0.0345000029 0.02399299
v -0.12221738 0.0345000029 0.0236694869
v -0.124265991 0.0345000029 0.028918989
v -0.122184157 0.0345000029 0.031732522
v -0.122592568 0.0345000029 0.03200475
v -0.124405958 0.0345000029 0.0264154486
v -0.122650713 0.0345000029 0.0233873911
v -0.123110875 0.0345000029 0.02315156
v -0.124515153 0.0345000029 0.0290683582
v -0.123014711 0.0345000029 0.0322304256
v -0.1234435 0.0345000029 0.0324099734
v -0.124687843 0.0345000029 0.0262888428
v -0.12359032 0.0345000029 0.0229653716
v -0.12408106 0.0345000029 0.02283059
v -0.124772482 0.0345000029 0.0291627441
v -0.123872466 0.0345000029 0.03254505
v -0.124311835 0.0345000029 0.0326410346
v -0.124983266 0.0345000029 0.0262234211
v -0.124575086 0.0345000029 0.0227473043
v -0.12506479 0.0345000029 0.0227140617
v -0.125042692 0.0345000029 0.0292087328
v -0.124773152 0.0345000029 0.03269834
v -0.125251621 0.0345000029 0.032712318
v -0.125273719 0.0345000029 0.0262176432
v -0.125543267 0.0345000029 0.0227280352
v -0.126004577 0.0345000029 0.0227853432
v -0.125333145 0.0345000029 0.0292029511
v -0.125741333 0.0345000029 0.03267907
v -0.126235351 0.0345000029 0.0325957835
v -0.125543922 0.0345000029 0.02626363
v -0.125628576 0.0345000029 0.0291375332
v -0.126726091 0.0345000029 0.0324610025
v -0.127205536 0.0345000029 0.03227482
v -0.126443937 0.0345000029 0.0228813272
v -0.125910461 0.0345000029 0.0290109254
v -0.127665684 0.0345000029 0.032038983
v -0.128099039 0.0345000029 0.0317568853
v -0.126872912 0.0345000029 0.0230164
v -0.126160413 0.0345000029 0.0288292468
v -0.128498882 0.0345000029 0.0314333849
v -0.128859743 0.0345000029 0.031074537
v -0.1273017 0.0345000029 0.02319595
v -0.127723828 0.0345000029 0.0234216228
v -0.128132254 0.0345000029 0.023693854
v -0.12851955 0.0345000029 0.0240116566
v -0.1288784 0.0345000029 0.0243725087
v -0.126364008 0.0345000029 0.0286054015
v -0.129177541 0.0345000029 0.0306872353
v -0.12944977 0.0345000029 0.0302788224
v -0.1292019 0.0345000029 0.0247723572
v -0.126513377 0.0345000029 0.0283562373
v -0.129675448 0.0345000029 0.0298566818
v -0.129854992 0.0345000029 0.02942789
v -0.129484 0.0345000029 0.0252057016
v -0.126607746 0.0345000029 0.0280989073
v -0.129990071 0.0345000029 0.0289989263
v -0.130086049 0.0345000029 0.0285595637
v -0.129719839 0.0345000029 0.0256658625
v -0.126653746 0.0345000029 0.0278287027
v -0.130143344 0.0345000029 0.0280982424
v -0.130157337 0.0345000029 0.0276197679
v -0.126647964 0.0345000029 0.0275382549
v -0.130124092 0.0345000029 0.0271300711
v -0.129906029 0.0345000029 0.0261453055
v -0.13004081 0.0345000029 0.0266360417
v -0.126582548 0.0345000029 0.0272428226
v -0.12580125 0.0345000029 0.0263580158
v -0.126455933 0.0345000029 0.026960941
v -0.126050428 0.0345000029 0.0265073888
v -0.126274258 0.0345000029 0.0267109834
v -0.126513377 0.0385 0.0283562373
v -0.129675448 0.0385 0.0298566818
v -0.12944977 0.0385 0.0302788224
v -0.129854992 0.0385 0.02942789
v -0.126364008 0.0385 0.0286054015
v -0.129177541 0.0385 0.0306872353
v -0.128859743 0.0385 0.031074537
v -0.126607746 0.0385 0.0280989073
v -0.129990071 0.0385 0.0289989263
v -0.130086049 0.0385 0.0285595637
v -0.126160413 0.0385 0.0288292468
v -0.128498882 0.0385 0.0314333849
v -0.128099039 0.0385 0.0317568853
v -0.126653746 0.0385 0.0278287027
v -0.130143344 0.0385 0.0280982424
v -0.130157337 0.0385 0.0276197679
v -0.125910461 0.0385 0.0290109254
v -0.127665684 0.0385 0.032038983
v -0.127205536 0.0385 0.03227482
v -0.126647964 0.0385 0.0275382549
v -0.130124092 0.0385 0.0271300711
v -0.13004081 0.0385 0.0266360417
v -0.125628576 0.0385 0.0291375332
v -0.126726091 0.0385 0.0324610025
v -0.126235351 0.0385 0.0325957835
v -0.126582548 0.0385 0.0272428226
v -0.129906029 0.0385 0.0261453055
v -0.129719839 0.0385 0.0256658625
v -0.125333145 0.0385 0.0292029511
v -0.125741333 0.0385 0.03267907
v -0.125251621 0.0385 0.032712318
v -0.126455933 0.0385 0.026960941
v -0.129484 0.0385 0.0252057016
v -0.1292019 0.0385 0.0247723572
v -0.125042692 0.0385 0.0292087328
v -0.124773152 0.0385 0.03269834
v -0.124311835 0.0385 0.0326410346
v -0.126274258 0.0385 0.0267109834
v -0.1288784 0.0385 0.0243725087
v -0.12851955 0.0385 0.0240116566
v -0.124772482 0.0385 0.0291627441
v -0.123872466 0.0385 0.03254505
v -0.1234435 0.0385 0.0324099734
v -0.126050428 0.0385 0.0265073888
v -0.128132254 0.0385 0.023693854
v -0.127723828 0.0385 0.0234216228
v -0.124515153 0.0385 0.0290683582
v -0.123014711 0.0385 0.0322304256
v -0.122592568 0.0385 0.03200475
v -0.12580125 0.0385 0.0263580158
v -0.1273017 0.0385 0.02319595
v -0.126872912 0.0385 0.0230164
v -0.124265991 0.0385 0.028918989
v -0.122184157 0.0385 0.031732522
v -0.121796846 0.0385 0.03141472
v -0.125543922 0.0385 0.02626363
v -0.124042146 0.0385 0.02871539
v -0.121438 0.0385 0.0310538635
v -0.121114507 0.0385 0.0306540187
v -0.126443937 0.0385 0.0228813272
v -0.123860464 0.0385 0.0284654349
v -0.120832406 0.0385 0.0302206744
v -0.12059658 0.0385 0.0297605135
v -0.126004577 0.0385 0.0227853432
v -0.123733863 0.0385 0.0281835515
v -0.12041039 0.0385 0.0292810723
v -0.120275609 0.0385 0.0287903361
v -0.125543267 0.0385 0.0227280352
v -0.12506479 0.0385 0.0227140617
v -0.124575086 0.0385 0.0227473043
v -0.12408106 0.0385 0.02283059
v -0.12359032 0.0385 0.0229653716
v -0.123668432 0.0385 0.0278881229
v -0.120192319 0.0385 0.028296303
v -0.120159082 0.0385 0.0278066061
v -0.123110875 0.0385 0.02315156
v -0.123662658 0.0385 0.0275976732
v -0.120173052 0.0385 0.0273281336
v -0.120230354 0.0385 0.0268668141
v -0.122650713 0.0385 0.0233873911
v -0.12370865 0.0385 0.0273274649
v -0.120326348 0.0385 0.02642745
v -0.120461427 0.0385 0.0259984862
v -0.12221738 0.0385 0.0236694869
v -0.123803027 0.0385 0.0270701386
v -0.120640978 0.0385 0.0255696923
v -0.120866634 0.0385 0.0251475535
v -0.1239524 0.0385 0.0268209726
v -0.121138878 0.0385 0.02473914
v -0.121817522 0.0385 0.02399299
v -0.121456675 0.0385 0.024351839
v -0.124156 0.0385 0.0265971273
v -0.125273719 0.0385 0.0262176432
v -0.124405958 0.0385 0.0264154486
v -0.124983266 0.0385 0.0262234211
v -0.124687843 0.0385 0.0262888428
f 1 2 3
f 4 1 3
f 4 3 5
f 6 4 5
f 5 3 7
f 8 6 5
f 9 5 7
f 8 5 10
f 10 5 9
f 11 8 10
f 12 10 9
f 11 10 13
f 13 10 12
f 14 11 13
f 15 13 12
f 14 13 16
f 16 13 15
f 17 14 16
f 18 16 15
f 19 17 16
f 19 16 18
f 19 20 17
f 20 19 18
f 20 21 17
f 20 18 22
f 20 23 21
f 23 20 22
f 23 24 21
f 23 22 25
f 23 26 24
f 26 23 25
f 26 27 24
f 26 25 28
f 26 29 27
f 29 26 28
f 29 30 27
f 29 28 31
f 29 32 30
f 32 29 31
f 32 33 30
f 32 31 34
f 32 35 33
f 35 32 34
f 35 36 33
f 35 34 37
f 36 35 38
f 35 37 38
f 36 38 39
f 39 38 37
f 40 36 39
f 39 37 41
f 40 39 42
f 42 39 41
f 43 40 42
f 42 41 44
f 43 42 45
f 45 42 44
f 46 43 45
f 46 45 47
f 45 44 48
f 47 45 48
f 49 46 47
f 47 48 50
f 51 49 47
f 47 50 52
f 51 47 53
f 53 47 52
f 54 51 53
f 53 52 55
f 54 53 56
f 56 53 55
f 57 54 56
f 56 55 58
f 57 56 59
f 59 56 58
f 60 57 59
f 59 58 61
f 60 59 62
f 62 59 61
f 63 60 62
f 62 61 64
f 63 62 65
f 65 62 64
f 66 63 65
f 65 64 67
f 66 65 68
f 68 65 67
f 69 66 68
f 69 68 70
f 68 67 71
f 70 68 71
f 72 69 70
f 70 71 73
f 74 72 70
f 70 73 75
f 74 70 76
f 76 70 75
f 77 74 76
f 76 75 78
f 77 76 79
f 79 76 78
f 80 77 79
f 79 78 81
f 80 79 82
f 82 79 81
f 83 80 82
f 82 81 84
f 83 82 85
f 85 82 84
f 86 83 85
f 85 84 87
f 86 85 88
f 88 85 87
f 89 86 88
f 88 87 90
f 89 88 91
f 91 88 90
f 91 90 92
f 93 89 91
f 94 91 92
f 93 91 94
f 95 93 94
f 94 96 95
f 96 97 95
f 96 98 97
f 98 96 99
f 98 100 97
f 98 99 101
f 98 102 100
f 103 98 101
f 98 103 102
f 103 101 104
f 103 105 102
f 106 103 104
f 103 106 105
f 106 104 107
f 106 108 105
f 109 106 107
f 106 109 108
f 109 107 110
f 109 111 108
f 112 109 110
f 109 112 111
f 112 110 113
f 112 113 111
f 110 114 113
f 111 113 115
f 114 116 113
f 113 116 115
f 114 117 116
f 115 116 118
f 117 119 116
f 116 119 118
f 117 120 119
f 118 119 121
f 120 122 119
f 119 122 121
f 120 123 122
f 121 122 124
f 123 125 122
f 122 125 124
f 123 126 125
f 124 125 127
f 126 128 125
f 125 128 127
f 126 129 128
f 127 128 130
f 129 131 128
f 128 131 130
f 129 132 131
f 132 130 131
f 132 129 133
f 132 134 130
f 135 132 133
f 132 135 134
f 135 133 136
f 135 137 134
f 138 135 136
f 135 138 137
f 138 136 139
f 140 138 139
f 138 141 137
f 138 140 141
f 140 139 142
f 140 143 141
f 140 142 144
f 140 145 143
f 146 140 144
f 140 146 145
f 146 144 147
f 146 148 145
f 149 146 147
f 146 149 148
f 149 147 150
f 149 151 148
f 152 149 150
f 149 152 151
f 152 150 153
f 152 154 151
f 155 152 153
f 152 155 154
f 155 153 156
f 155 157 154
f 158 155 156
f 155 158 157
f 158 156 159
f 158 160 157
f 161 158 159
f 158 161 160
f 161 159 162
f 163 161 162
f 161 164 160
f 161 163 164
f 163 162 165
f 163 166 164
f 163 165 167
f 163 168 166
f 169 163 167
f 163 169 168
f 169 167 170
f 169 171 168
f 172 169 170
f 169 172 171
f 172 170 173
f 172 174 171
f 175 172 173
f 172 175 174
f 175 173 176
f 175 177 174
f 178 175 176
f 175 178 177
f 178 176 179
f 178 180 177
f 181 178 179
f 178 181 180
f 181 179 182
f 181 183 180
f 184 181 182
f 181 184 183
f 184 182 185
f 184 186 183
f 187 184 185
f 184 187 186
f 187 188 186
f 189 190 191
f 189 191 192
f 193 189 192
f 192 191 194
f 195 193 192
f 196 192 194
f 195 192 196
f 196 194 197
f 198 195 196
f 199 196 197
f 198 196 199
f 199 197 200
f 201 198 199
f 202 199 200
f 201 199 202
f 202 200 203
f 204 201 202
f 205 202 203
f 204 202 205
f 205 203 206
f 207 204 205
f 208 205 206
f 207 205 208
f 208 206 209
f 210 208 209
f 211 207 208
f 211 208 210
f 210 209 212
f 213 211 210
f 214 210 212
f 215 213 210
f 216 210 214
f 215 210 216
f 217 216 214
f 218 215 216
f 219 216 217
f 219 218 216
f 220 219 217
f 219 220 218
f 220 217 221
f 220 222 218
f 223 220 221
f 220 223 222
f 223 221 224
f 223 225 222
f 226 223 224
f 223 226 225
f 226 224 227
f 226 228 225
f 229 226 227
f 226 229 228
f 229 227 230
f 229 231 228
f 232 229 230
f 229 232 231
f 232 230 233
f 232 234 231
f 235 232 233
f 232 235 234
f 235 233 236
f 234 235 237
f 235 236 237
f 236 238 237
f 238 239 237
f 237 239 240
f 238 241 239
f 239 242 240
f 241 243 239
f 239 243 242
f 241 244 243
f 243 245 242
f 244 246 243
f 243 246 245
f 244 247 246
f 246 248 245
f 247 249 246
f 246 249 248
f 247 250 249
f 249 251 248
f 250 252 249
f 249 252 251
f 250 253 252
f 252 254 251
f 253 255 252
f 252 255 254
f 253 256 255
f 256 257 255
f 255 258 254
f 255 257 258
f 256 259 257
f 257 260 258
f 259 261 257
f 257 262 260
f 261 263 257
f 257 263 262
f 261 264 263
f 263 265 262
f 264 266 263
f 263 266 265
f 264 267 266
f 267 265 266
f 268 267 264
f 267 269 265
f 270 267 268
f 267 270 269
f 271 270 268
f 270 272 269
f 273 270 271
f 270 273 272
f 274 273 271
f 273 275 272
f 276 273 274
f 273 276 275
f 277 276 274
f 276 278 275
f 279 276 277
f 276 279 278
f 280 279 277
f 279 281 278
f 282 279 280
f 279 282 281
f 283 282 280
f 282 284 281
f 282 283 284
f 285 286 287
f 285 288 286
f 289 285 287
f 289 287 290
f 289 290 291
f 285 292 288
f 288 292 293
f 292 294 293
f 295 289 291
f 295 291 296
f 295 296 297
f 292 298 294
f 298 299 294
f 298 300 299
f 301 295 297
f 301 297 302
f 301 302 303
f 298 304 300
f 304 305 300
f 304 306 305
f 307 301 303
f 307 303 308
f 307 308 309
f 304 310 306
f 310 311 306
f 310 312 311
f 313 307 309
f 313 309 314
f 313 314 315
f 310 316 312
f 316 317 312
f 316 318 317
f 319 313 315
f 319 315 320
f 319 320 321
f 316 322 318
f 322 323 318
f 322 324 323
f 325 319 321
f 325 321 326
f 325 326 327
f 322 328 324
f 328 329 324
f 328 330 329
f 331 325 327
f 331 327 332
f 331 332 333
f 328 334 330
f 334 335 330
f 334 336 335
f 337 331 333
f 337 333 338
f 337 338 339
f 334 340 336
f 341 337 339
f 341 339 342
f 341 342 343
f 340 344 336
f 345 341 343
f 345 343 346
f 345 346 347
f 340 348 344
f 349 345 347
f 349 347 350
f 349 350 351
f 348 340 352
f 340 353 352
f 340 354 353
f 354 340 355
f 340 356 355
f 357 349 351
f 357 351 358
f 357 358 359
f 340 360 356
f 361 357 359
f 361 359 362
f 361 362 363
f 360 340 364
f 365 361 363
f 365 363 366
f 365 366 367
f 340 368 364
f 369 365 367
f 369 367 370
f 369 370 371
f 372 369 371
f 372 371 373
f 340 374 368
f 374 340 375
f 340 373 375
f 376 372 373
f 340 377 373
f 378 376 373
f 377 379 373
f 380 378 373
f 379 380 373
f 381 382 383
f 381 384 382
f 385 381 383
f 385 383 386
f 385 386 387
f 381 388 384
f 384 388 389
f 388 390 389
f 391 385 387
f 391 387 392
f 391 392 393
f 388 394 390
f 394 395 390
f 394 396 395
f 397 391 393
f 397 393 398
f 397 398 399
f 394 400 396
f 400 401 396
f 400 402 401
f 403 397 399
f 403 399 404
f 403 404 405
f 400 406 402
f 406 407 402
f 406 408 407
f 409 403 405
f 409 405 410
f 409 410 411
f 406 412 408
f 412 413 408
f 412 414 413
f 415 409 411
f 415 411 416
f 415 416 417
f 412 418 414
f 418 419 414
f 418 420 419
f 421 415 417
f 421 417 422
f 421 422 423
f 418 424 420
f 424 425 420
f 424 426 425
f 427 421 423
f 427 423 428
f 427 428 429
f 424 430 426
f 430 431 426
f 430 432 431
f 433 427 429
f 433 429 434
f 433 434 435
f 430 436 432
f 437 433 435
f 437 435 438
f 437 438 439
f 436 440 432
f 441 437 439
f 441 439 442
f 441 442 443
f 436 444 440
f 445 441 443
f 445 443 446
f 445 446 447
f 444 436 448
f 436 449 448
f 436 450 449
f 450 436 451
f 436 452 451
f 453 445 447
f 453 447 454
f 453 454 455
f 436 456 452
f 457 453 455
f 457 455 458
f 457 458 459
f 456 436 460
f 461 457 459
f 461 459 462
f 461 462 463
f 436 464 460
f 465 461 463
f 465 463 466
f 465 466 467
f 468 465 467
f 468 467 469
f 436 470 464
f 470 436 471
f 436 469 471
f 472 468 469
f 436 473 469
f 474 472 469
f 473 475 469
f 476 474 469
f 475 476 469
